<?xml version="1.0" encoding="utf-8"?>
<!DOCTYPE svg PUBLIC "-//W3C//DTD SVG 1.1//EN" "http://www.w3.org/Graphics/SVG/1.1/DTD/svg11.dtd">
<svg version="1.1" xmlns="http://www.w3.org/2000/svg" xmlns:xlink="http://www.w3.org/1999/xlink" x="0px" y="0px" width="216px" height="216px" viewBox="0 0 216 216" enable-background="new 0 0 216 216" xml:space="preserve">
<path d="M194.574,131.109c-0.989-2.865-3.541-4.96-6.604-5.416l-29.854-4.439l-12.98-26.941
	c-1.363-2.83-4.284-4.639-7.503-4.639c-3.206,0-6.132,1.809-7.499,4.639l-10.938,22.713l8.541,1.27l9.896-20.553l12.984,26.937
	c1.172,2.434,3.516,4.139,6.246,4.546l29.854,4.447l-21.875,21.838l0,0c-1.836,1.836-2.67,4.407-2.246,6.938l5.073,30.302
	l-26.025-14.01c-1.249-0.671-2.628-1.009-4.012-1.009c-1.371,0-2.755,0.338-4.004,1.009l-11.8,6.352l0.858,5.144
	c0.199,1.18,0.252,2.36,0.175,3.523l14.771-7.955l26.033,14.014c1.254,0.668,2.633,1.006,4.004,1.006
	c1.677,0,3.35-0.501,4.777-1.478c2.592-1.786,3.91-4.846,3.397-7.897l-5.074-30.303l21.88-21.842
	C194.818,137.144,195.559,133.982,194.574,131.109L194.574,131.109z"/>
</svg>
