<?xml version="1.0" encoding="utf-8"?>
<!DOCTYPE svg PUBLIC "-//W3C//DTD SVG 1.1//EN" "http://www.w3.org/Graphics/SVG/1.1/DTD/svg11.dtd">
<svg version="1.1" xmlns="http://www.w3.org/2000/svg" xmlns:xlink="http://www.w3.org/1999/xlink" x="0px" y="0px" width="216px" height="216px" viewBox="0 0 216 216" enable-background="new 0 0 216 216" xml:space="preserve">
<path d="M134.178,131.109c-0.993-2.865-3.545-4.96-6.608-5.416l-29.854-4.439l-12.98-26.941
	c-1.361-2.83-4.285-4.639-7.501-4.639c-3.21,0-6.132,1.809-7.5,4.639L56.76,121.254l-29.858,4.439
	c-3.066,0.456-5.617,2.551-6.604,5.416c-0.987,2.873-0.24,6.034,1.929,8.195l21.875,21.842l-5.074,30.303
	c-0.513,3.052,0.808,6.111,3.401,7.897c1.424,0.977,3.097,1.478,4.771,1.478c1.375,0,2.755-0.338,4.008-1.006l26.025-14.014
	l26.031,14.014c1.253,0.668,2.633,1.006,4.006,1.006c1.676,0,3.346-0.501,4.775-1.478c2.588-1.786,3.91-4.846,3.401-7.897
	l-5.078-30.303l21.879-21.842C134.417,137.144,135.158,133.982,134.178,131.109L134.178,131.109z M104.441,155.511L104.441,155.511
	c-1.835,1.836-2.667,4.407-2.242,6.938l5.072,30.302l-26.028-14.01c-1.249-0.671-2.628-1.009-4.01-1.009
	c-1.374,0-2.753,0.338-4.004,1.009l-26.03,14.01l5.076-30.302c0.425-2.531-0.407-5.103-2.242-6.938l-21.879-21.838l29.853-4.447
	c2.728-0.407,5.078-2.112,6.252-4.546l12.974-26.937l12.98,26.937c1.174,2.434,3.52,4.139,6.248,4.546l29.859,4.447L104.441,155.511
	L104.441,155.511z"/>
</svg>
