<?xml version="1.0" encoding="utf-8"?>
<!DOCTYPE svg PUBLIC "-//W3C//DTD SVG 1.1//EN" "http://www.w3.org/Graphics/SVG/1.1/DTD/svg11.dtd">
<svg version="1.1" xmlns="http://www.w3.org/2000/svg" xmlns:xlink="http://www.w3.org/1999/xlink" x="0px" y="0px" width="216px" height="216px" viewBox="0 0 216 216" enable-background="new 0 0 216 216" xml:space="preserve">
<path id="_x33_" fill="#F58031" d="M134.178,131.109c-0.993-2.865-3.545-4.96-6.608-5.416l-29.854-4.439l-12.98-26.941
	c-1.361-2.83-4.285-4.639-7.501-4.639c-3.21,0-6.132,1.809-7.5,4.639L56.76,121.254l-29.858,4.439
	c-3.066,0.456-5.617,2.551-6.604,5.416c-0.987,2.873-0.24,6.034,1.929,8.195l21.875,21.842l-5.074,30.303
	c-0.513,3.052,0.808,6.111,3.401,7.897c1.424,0.977,3.097,1.478,4.771,1.478c1.375,0,2.755-0.338,4.008-1.006l26.025-14.014
	l26.031,14.014c1.253,0.668,2.633,1.006,4.006,1.006c1.676,0,3.346-0.501,4.775-1.478c2.588-1.786,3.91-4.846,3.401-7.897
	l-5.078-30.303l21.879-21.842C134.417,137.144,135.158,133.982,134.178,131.109L134.178,131.109z M104.441,155.511L104.441,155.511
	c-1.835,1.836-2.667,4.407-2.242,6.938l5.072,30.302l-26.028-14.01c-1.249-0.671-2.628-1.009-4.01-1.009
	c-1.374,0-2.753,0.338-4.004,1.009l-26.03,14.01l5.076-30.302c0.425-2.531-0.407-5.103-2.242-6.938l-21.879-21.838l29.853-4.447
	c2.728-0.407,5.078-2.112,6.252-4.546l12.974-26.937l12.98,26.937c1.174,2.434,3.52,4.139,6.248,4.546l29.859,4.447L104.441,155.511
	L104.441,155.511z"/>
<path id="_x32_" fill-rule="evenodd" clip-rule="evenodd" fill="#999557" d="M16.119,4.918h183.602c6.161,0,11.198,5.04,11.198,11.2
	v183.602c0,6.161-5.037,11.198-11.198,11.198H16.119c-6.161,0-11.2-5.037-11.2-11.198V16.119C4.918,9.958,9.958,4.918,16.119,4.918
	L16.119,4.918z M16.119-0.08h183.602c8.911,0,16.199,7.29,16.199,16.199v183.602c0,8.907-7.288,16.199-16.199,16.199H16.119
	c-8.909,0-16.199-7.292-16.199-16.199V16.119C-0.08,7.209,7.209-0.08,16.119-0.08L16.119-0.08z M165.175,31.078h-19.197V22.22
	c0-2.45-1.985-4.431-4.432-4.431c-2.445,0-4.427,1.981-4.427,4.431v8.858h-26.581V22.22c0-2.45-1.983-4.431-4.429-4.431
	c-2.448,0-4.432,1.981-4.432,4.431v8.858H75.097V22.22c0-2.45-1.982-4.431-4.429-4.431c-2.445,0-4.431,1.981-4.431,4.431v8.858
	H47.041c-6.524,0-11.814,5.288-11.814,11.811v74.142l8.862-1.314V42.889c0-1.625,1.323-2.95,2.952-2.95h19.196v8.86
	c0,2.448,1.986,4.429,4.431,4.429c2.447,0,4.429-1.981,4.429-4.429v-8.86h26.581v8.86c0,2.448,1.984,4.429,4.432,4.429
	c2.445,0,4.429-1.981,4.429-4.429v-8.86h26.581v8.86c0,2.448,1.981,4.429,4.427,4.429c2.446,0,4.432-1.981,4.432-4.429v-8.86h19.197
	c1.628,0,2.95,1.325,2.95,2.95v72.429l8.862,1.318V42.889C176.987,36.366,171.697,31.078,165.175,31.078L165.175,31.078z
	 M66.237,84.24h3.473c2.269-1.231,4.849-1.908,7.524-1.908c2.366,0,4.657,0.527,6.724,1.499V70.949H66.237V84.24L66.237,84.24z
	 M98.704,106.39h16.264V93.099H97.247v10.268L98.704,106.39L98.704,106.39z M97.247,84.24h17.721V70.949H97.247V84.24L97.247,84.24z
	 M128.257,84.24h1.852c2.271-1.231,4.851-1.908,7.523-1.908c2.682,0,5.261,0.677,7.532,1.908h0.813V70.949h-17.721V84.24
	L128.257,84.24z"/>
<path id="_x31_" fill="#7E5628" d="M194.574,131.109c-0.989-2.865-3.541-4.96-6.604-5.416l-29.854-4.439l-12.98-26.941
	c-1.363-2.83-4.284-4.639-7.503-4.639c-3.206,0-6.132,1.809-7.499,4.639l-10.938,22.713l8.541,1.27l9.896-20.553l12.984,26.937
	c1.172,2.434,3.516,4.139,6.246,4.546l29.854,4.447l-21.875,21.838l0,0c-1.836,1.836-2.67,4.407-2.246,6.938l5.073,30.302
	l-26.025-14.01c-1.249-0.671-2.628-1.009-4.012-1.009c-1.371,0-2.755,0.338-4.004,1.009l-11.8,6.352l0.858,5.144
	c0.199,1.18,0.252,2.36,0.175,3.523l14.771-7.955l26.033,14.014c1.254,0.668,2.633,1.006,4.004,1.006
	c1.677,0,3.35-0.501,4.777-1.478c2.592-1.786,3.91-4.846,3.397-7.897l-5.074-30.303l21.88-21.842
	C194.818,137.144,195.559,133.982,194.574,131.109L194.574,131.109z"/>
</svg>
