<?xml version="1.0" encoding="utf-8"?>
<!DOCTYPE svg PUBLIC "-//W3C//DTD SVG 1.1//EN" "http://www.w3.org/Graphics/SVG/1.1/DTD/svg11.dtd">
<svg version="1.1" xmlns="http://www.w3.org/2000/svg" xmlns:xlink="http://www.w3.org/1999/xlink" x="0px" y="0px" width="216px" height="216px" viewBox="0 0 216 216" enable-background="new 0 0 216 216" xml:space="preserve">
<path fill-rule="evenodd" clip-rule="evenodd" d="M197.662,45.93c0.562-0.264,1.473,1.011,1.095,1.508
	c-17.623,23.185-32.068,48.54-45.341,74.687c-0.411,0.802-2.222,0.729-2.702-0.037c-8.057-12.874-18.335-24.959-30.131-36.482
	c-0.766-0.749-0.615-2.36,0.032-3.213c2.034-2.677,4.643-3.989,6.49-5.153c1.848-1.164,3.247-0.724,4.032-0.102
	c5.981,4.738,11.292,9.912,17.188,14.754c0.513,0.421,1.534,0.319,1.981-0.171c12.655-13.827,24.378-28.589,38.912-39.801
	C191.949,49.812,194.537,47.397,197.662,45.93L197.662,45.93z"/>
</svg>
