<?xml version="1.0" encoding="utf-8"?>
<!DOCTYPE svg PUBLIC "-//W3C//DTD SVG 1.1//EN" "http://www.w3.org/Graphics/SVG/1.1/DTD/svg11.dtd">
<svg version="1.1" xmlns="http://www.w3.org/2000/svg" xmlns:xlink="http://www.w3.org/1999/xlink" x="0px" y="0px" width="216px" height="216px" viewBox="0 0 216 216" enable-background="new 0 0 216 216" xml:space="preserve">
<path id="_x33_" fill-rule="evenodd" clip-rule="evenodd" fill="#F58031" d="M197.662,45.93c0.562-0.264,1.473,1.011,1.095,1.508
	c-17.623,23.185-32.068,48.54-45.341,74.687c-0.411,0.802-2.222,0.729-2.702-0.037c-8.057-12.874-18.335-24.959-30.131-36.482
	c-0.766-0.749-0.615-2.36,0.032-3.213c2.034-2.677,4.643-3.989,6.49-5.153c1.848-1.164,3.247-0.724,4.032-0.102
	c5.981,4.738,11.292,9.912,17.188,14.754c0.513,0.421,1.534,0.319,1.981-0.171c12.655-13.827,24.378-28.589,38.912-39.801
	C191.949,49.812,194.537,47.397,197.662,45.93L197.662,45.93z"/>
<path id="_x32_" fill-rule="evenodd" clip-rule="evenodd" fill="#999557" d="M16.119,4.918h183.602c6.161,0,11.198,5.04,11.198,11.2
	v183.602c0,6.161-5.037,11.198-11.198,11.198H16.119c-6.161,0-11.2-5.037-11.2-11.198V16.119C4.918,9.958,9.958,4.918,16.119,4.918
	L16.119,4.918z M16.119-0.08h183.602c8.911,0,16.199,7.29,16.199,16.199v183.602c0,8.907-7.288,16.199-16.199,16.199H16.119
	c-8.909,0-16.199-7.292-16.199-16.199V16.119C-0.08,7.209,7.209-0.08,16.119-0.08L16.119-0.08z M168.215,45.442h-20.012v-9.232
	c0-2.553-2.063-4.619-4.614-4.619c-2.547,0-4.618,2.065-4.618,4.619v9.232h-27.7v-9.232c0-2.553-2.064-4.619-4.616-4.619
	c-2.549,0-4.618,2.065-4.618,4.619v9.232h-27.7v-9.232c0-2.553-2.067-4.619-4.616-4.619s-4.618,2.065-4.618,4.619v9.232H45.094
	c-6.797,0-12.311,5.512-12.311,12.307v109.27c0,6.799,5.514,12.313,12.311,12.313h123.121c6.795,0,12.309-5.514,12.309-12.313
	V86.775c-3.174,5.298-6.246,10.661-9.232,16.068v64.175l0,0c0,1.696-1.38,3.076-3.076,3.076H45.094c-1.695,0-3.076-1.38-3.076-3.076
	V57.749c0-1.695,1.381-3.074,3.076-3.074h20.007v9.234c0,2.551,2.069,4.616,4.618,4.616s4.616-2.065,4.616-4.616v-9.234h27.7v9.234
	c0,2.551,2.069,4.616,4.618,4.616c2.552,0,4.616-2.065,4.616-4.616v-9.234h27.7v9.234c0,2.551,2.071,4.616,4.618,4.616
	c2.552,0,4.614-2.065,4.614-4.616v-9.234h20.012c1.696,0,3.076,1.379,3.076,3.074v0.98c2.462-2.443,4.988-4.822,7.601-7.108
	C176.768,47.928,172.78,45.442,168.215,45.442L168.215,45.442z"/>
<path id="_x31_" fill="#7E5628" d="M65.102,100.844h18.469V86.993H65.102V100.844L65.102,100.844z M65.102,123.928h18.469v-13.852
	H65.102V123.928L65.102,123.928z M65.102,147.011h18.469v-13.847H65.102V147.011L65.102,147.011z M97.417,147.011h18.469v-13.847
	H97.417V147.011L97.417,147.011z M97.417,123.928h18.469v-13.852H97.417V123.928L97.417,123.928z M97.417,100.844h18.469V90.525
	l-0.057-0.057c-1.009-0.985-1.713-2.185-2.124-3.475H97.417V100.844L97.417,100.844z M129.738,147.011h18.465v-13.847h-18.465
	V147.011L129.738,147.011z M129.738,123.928h14.087c-3.093-4.785-6.462-9.399-10.043-13.852h-4.044V123.928L129.738,123.928z"/>
</svg>
