<?xml version="1.0" encoding="utf-8"?>
<!DOCTYPE svg PUBLIC "-//W3C//DTD SVG 1.1//EN" "http://www.w3.org/Graphics/SVG/1.1/DTD/svg11.dtd">
<svg version="1.1" xmlns="http://www.w3.org/2000/svg" xmlns:xlink="http://www.w3.org/1999/xlink" x="0px" y="0px" width="216px" height="216px" viewBox="0 0 216 216" enable-background="new 0 0 216 216" xml:space="preserve">
<path fill-rule="evenodd" clip-rule="evenodd" d="M16.119,4.918h183.602c6.161,0,11.198,5.04,11.198,11.2
	v183.602c0,6.161-5.037,11.198-11.198,11.198H16.119c-6.161,0-11.2-5.037-11.2-11.198V16.119C4.918,9.958,9.958,4.918,16.119,4.918
	L16.119,4.918z M16.119-0.08h183.602c8.911,0,16.199,7.29,16.199,16.199v183.602c0,8.907-7.288,16.199-16.199,16.199H16.119
	c-8.909,0-16.199-7.292-16.199-16.199V16.119C-0.08,7.209,7.209-0.08,16.119-0.08L16.119-0.08z M168.215,45.442h-20.012v-9.232
	c0-2.553-2.063-4.619-4.614-4.619c-2.547,0-4.618,2.065-4.618,4.619v9.232h-27.7v-9.232c0-2.553-2.064-4.619-4.616-4.619
	c-2.549,0-4.618,2.065-4.618,4.619v9.232h-27.7v-9.232c0-2.553-2.067-4.619-4.616-4.619s-4.618,2.065-4.618,4.619v9.232H45.094
	c-6.797,0-12.311,5.512-12.311,12.307v109.27c0,6.799,5.514,12.313,12.311,12.313h123.121c6.795,0,12.309-5.514,12.309-12.313
	V86.775c-3.174,5.298-6.246,10.661-9.232,16.068v64.175l0,0c0,1.696-1.38,3.076-3.076,3.076H45.094c-1.695,0-3.076-1.38-3.076-3.076
	V57.749c0-1.695,1.381-3.074,3.076-3.074h20.007v9.234c0,2.551,2.069,4.616,4.618,4.616s4.616-2.065,4.616-4.616v-9.234h27.7v9.234
	c0,2.551,2.069,4.616,4.618,4.616c2.552,0,4.616-2.065,4.616-4.616v-9.234h27.7v9.234c0,2.551,2.071,4.616,4.618,4.616
	c2.552,0,4.614-2.065,4.614-4.616v-9.234h20.012c1.696,0,3.076,1.379,3.076,3.074v0.98c2.462-2.443,4.988-4.822,7.601-7.108
	C176.768,47.928,172.78,45.442,168.215,45.442L168.215,45.442z"/>
</svg>
