<?xml version="1.0" encoding="utf-8"?>
<!DOCTYPE svg PUBLIC "-//W3C//DTD SVG 1.1//EN" "http://www.w3.org/Graphics/SVG/1.1/DTD/svg11.dtd">
<svg version="1.1" xmlns="http://www.w3.org/2000/svg" xmlns:xlink="http://www.w3.org/1999/xlink" x="0px" y="0px" width="216px" height="216px" viewBox="0 0 216 216" enable-background="new 0 0 216 216" xml:space="preserve">

<g>
	<path fill-rule="evenodd" clip-rule="evenodd" d="M175.116,16.779H44.084c-9.87,0-17.867,8.268-17.867,18.472
		v12.316H20.26c-9.87,0-17.868,8.268-17.868,18.472v123.154c0,13.603,10.667,24.632,23.824,24.632h142.942
		c13.159,0,23.827-11.029,23.827-24.632V50.626c-4.102,6.933-8.064,13.957-11.914,21.048v117.519l0,0
		c0,6.785-5.344,12.316-11.913,12.316H26.217c-6.567,0-11.913-5.531-11.913-12.316V66.039c0-3.396,2.669-6.158,5.957-6.158h5.957
		v123.156c0,3.403,2.664,6.156,5.956,6.156c3.29,0,5.955-2.753,5.955-6.156V35.251c0-3.396,2.671-6.156,5.956-6.156h125.53
		c3.515-3.92,7.094-7.77,10.795-11.492C178.736,17.068,176.959,16.779,175.116,16.779L175.116,16.779z"/>
</g>
</svg>
