<?xml version="1.0" encoding="utf-8"?>
<!DOCTYPE svg PUBLIC "-//W3C//DTD SVG 1.1//EN" "http://www.w3.org/Graphics/SVG/1.1/DTD/svg11.dtd">
<svg version="1.1" xmlns="http://www.w3.org/2000/svg" xmlns:xlink="http://www.w3.org/1999/xlink" x="0px" y="0px" width="216px" height="216px" viewBox="0 0 216 216" enable-background="new 0 0 216 216" xml:space="preserve">
<path id="_x33_" fill-rule="evenodd" clip-rule="evenodd" fill="#F58031" d="M203.033,17.826c0.599-0.279,1.563,1.074,1.164,1.601
	c-18.686,24.581-34.001,51.459-48.076,79.183c-0.431,0.851-2.355,0.773-2.86-0.037c-8.545-13.653-19.441-26.465-31.945-38.684
	c-0.814-0.79-0.651-2.5,0.036-3.404c2.156-2.84,4.92-4.229,6.877-5.463c1.957-1.232,3.446-0.769,4.28-0.109
	c6.34,5.025,11.967,10.508,18.217,15.645c0.546,0.444,1.628,0.336,2.104-0.183c13.415-14.661,25.842-30.308,41.251-42.198
	C196.979,21.943,199.721,19.384,203.033,17.826L203.033,17.826z"/>
<path id="_x32_" fill-rule="evenodd" clip-rule="evenodd" fill="#999557" d="M16.119,4.918h183.602c6.161,0,11.198,5.04,11.198,11.2
	v183.602c0,6.161-5.037,11.198-11.198,11.198H16.119c-6.161,0-11.2-5.037-11.2-11.198V16.119C4.918,9.958,9.958,4.918,16.119,4.918
	L16.119,4.918z M16.119-0.08h183.602c8.911,0,16.199,7.29,16.199,16.199v183.602c0,8.907-7.288,16.199-16.199,16.199H16.119
	c-8.909,0-16.199-7.292-16.199-16.199V16.119C-0.08,7.209,7.209-0.08,16.119-0.08L16.119-0.08z M171.986,29.314H60.271
	c-8.417,0-15.236,6.82-15.236,15.234v10.158h-5.078c-8.415,0-15.234,6.818-15.234,15.234v101.565
	c0,11.218,9.094,20.313,20.313,20.313h121.877c11.219,0,20.313-9.095,20.313-20.313V57.228c-3.495,5.719-6.876,11.513-10.156,17.358
	v96.92l0,0c0,5.595-4.557,10.156-10.156,10.156H45.035c-5.599,0-10.156-4.562-10.156-10.156V69.941c0-2.801,2.274-5.08,5.078-5.08
	h5.078v101.571c0,2.804,2.271,5.074,5.078,5.074c2.806,0,5.078-2.271,5.078-5.074V44.549c0-2.799,2.276-5.076,5.08-5.076h107.027
	c2.995-3.233,6.047-6.409,9.2-9.477C175.075,29.553,173.562,29.314,171.986,29.314L171.986,29.314z"/>
<path id="_x31_" fill="#7E5628" d="M131.536,158.335l-4.194-11.039H91.591l-4.195,11.283c-1.66,4.402-3.052,7.373-4.219,8.907
	c-1.146,1.534-3.052,2.315-5.691,2.315c-2.231,0-4.219-0.822-5.938-2.458c-1.719-1.64-2.58-3.499-2.58-5.591
	c0-1.188,0.203-2.438,0.594-3.707c0.409-1.29,1.064-3.072,1.986-5.343l22.501-57.104c0.635-1.638,1.414-3.603,2.313-5.896
	c0.901-2.315,1.843-4.219,2.867-5.733c1.025-1.514,2.376-2.745,4.032-3.687c1.66-0.94,3.707-1.412,6.145-1.412
	c2.476,0,4.545,0.472,6.201,1.412c1.66,0.942,3.011,2.15,4.036,3.625c1.001,1.475,1.859,3.072,2.58,4.771
	c0.695,1.699,1.574,3.971,2.661,6.795l22.974,56.757c1.799,4.321,2.702,7.454,2.702,9.42c0,2.026-0.863,3.89-2.56,5.591
	c-1.701,1.696-3.748,2.56-6.141,2.56c-1.396,0-2.6-0.248-3.605-0.757c-1.005-0.492-1.843-1.172-2.519-2.03
	c-0.675-0.859-1.411-2.189-2.192-3.972C132.766,161.261,132.09,159.706,131.536,158.335L131.536,158.335z M96.26,133.929h26.288
	l-13.265-36.283L96.26,133.929L96.26,133.929z"/>
</svg>
