<?xml version="1.0" encoding="utf-8"?>
<!DOCTYPE svg PUBLIC "-//W3C//DTD SVG 1.1//EN" "http://www.w3.org/Graphics/SVG/1.1/DTD/svg11.dtd">
<svg version="1.1" xmlns="http://www.w3.org/2000/svg" xmlns:xlink="http://www.w3.org/1999/xlink" x="0px" y="0px" width="216px" height="216px" viewBox="0 0 216 216" enable-background="new 0 0 216 216" xml:space="preserve">
<path d="M131.536,158.335l-4.194-11.039H91.591l-4.195,11.283c-1.66,4.402-3.052,7.373-4.219,8.907
	c-1.146,1.534-3.052,2.315-5.691,2.315c-2.231,0-4.219-0.822-5.938-2.458c-1.719-1.64-2.58-3.499-2.58-5.591
	c0-1.188,0.203-2.438,0.594-3.707c0.409-1.29,1.064-3.072,1.986-5.343l22.501-57.104c0.635-1.638,1.414-3.603,2.313-5.896
	c0.901-2.315,1.843-4.219,2.867-5.733c1.025-1.514,2.376-2.745,4.032-3.687c1.66-0.94,3.707-1.412,6.145-1.412
	c2.476,0,4.545,0.472,6.201,1.412c1.66,0.942,3.011,2.15,4.036,3.625c1.001,1.475,1.859,3.072,2.58,4.771
	c0.695,1.699,1.574,3.971,2.661,6.795l22.974,56.757c1.799,4.321,2.702,7.454,2.702,9.42c0,2.026-0.863,3.89-2.56,5.591
	c-1.701,1.696-3.748,2.56-6.141,2.56c-1.396,0-2.6-0.248-3.605-0.757c-1.005-0.492-1.843-1.172-2.519-2.03
	c-0.675-0.859-1.411-2.189-2.192-3.972C132.766,161.261,132.09,159.706,131.536,158.335L131.536,158.335z M96.26,133.929h26.288
	l-13.265-36.283L96.26,133.929L96.26,133.929z"/>
</svg>
