<?xml version="1.0" encoding="utf-8"?>
<!DOCTYPE svg PUBLIC "-//W3C//DTD SVG 1.1//EN" "http://www.w3.org/Graphics/SVG/1.1/DTD/svg11.dtd">
<svg version="1.1" xmlns="http://www.w3.org/2000/svg" xmlns:xlink="http://www.w3.org/1999/xlink" x="0px" y="0px" width="216px" height="216px" viewBox="0 0 216 216" enable-background="new 0 0 216 216" xml:space="preserve">
<path fill-rule="evenodd" clip-rule="evenodd" d="M16.119,4.918h183.602c6.161,0,11.198,5.04,11.198,11.2
	v183.602c0,6.161-5.037,11.198-11.198,11.198H16.119c-6.161,0-11.2-5.037-11.2-11.198V16.119C4.918,9.958,9.958,4.918,16.119,4.918
	L16.119,4.918z M16.119-0.08h183.602c8.911,0,16.199,7.29,16.199,16.199v183.602c0,8.907-7.288,16.199-16.199,16.199H16.119
	c-8.909,0-16.199-7.292-16.199-16.199V16.119C-0.08,7.209,7.209-0.08,16.119-0.08L16.119-0.08z M171.986,29.314H60.271
	c-8.417,0-15.236,6.82-15.236,15.234v10.158h-5.078c-8.415,0-15.234,6.818-15.234,15.234v101.565
	c0,11.218,9.094,20.313,20.313,20.313h121.877c11.219,0,20.313-9.095,20.313-20.313V57.228c-3.495,5.719-6.876,11.513-10.156,17.358
	v96.92l0,0c0,5.595-4.557,10.156-10.156,10.156H45.035c-5.599,0-10.156-4.562-10.156-10.156V69.941c0-2.801,2.274-5.08,5.078-5.08
	h5.078v101.571c0,2.804,2.271,5.074,5.078,5.074c2.806,0,5.078-2.271,5.078-5.074V44.549c0-2.799,2.276-5.076,5.08-5.076h107.027
	c2.995-3.233,6.047-6.409,9.2-9.477C175.075,29.553,173.562,29.314,171.986,29.314L171.986,29.314z"/>
</svg>
