<?xml version="1.0" encoding="utf-8"?>
<!DOCTYPE svg PUBLIC "-//W3C//DTD SVG 1.1//EN" "http://www.w3.org/Graphics/SVG/1.1/DTD/svg11.dtd">
<svg version="1.1" xmlns="http://www.w3.org/2000/svg" xmlns:xlink="http://www.w3.org/1999/xlink" x="0px" y="0px" width="216px" height="216px" viewBox="0 0 216 216" enable-background="new 0 0 216 216" xml:space="preserve">
<path fill-rule="evenodd" clip-rule="evenodd" d="M107.92,158.791c-28.091,0-50.871-22.778-50.871-50.871
	s22.78-50.871,50.871-50.871c28.093,0,50.871,22.778,50.871,50.871S136.013,158.791,107.92,158.791L107.92,158.791z M145.192,98.648
	h-11.239c1.359-2.749,2.039-6.093,2.039-10.036c0-4.413-1.07-8.431-3.215-12.052c-2.141-3.624-5.432-6.515-9.867-8.684
	c-4.436-2.163-9.94-3.245-16.518-3.245c-4.592,0-9.084,0.686-13.483,2.061c-3.127,0.977-5.953,2.216-8.482,3.719v9.288
	c3.347-2.391,6.919-4.187,10.718-5.388c3.827-1.208,7.575-1.811,11.247-1.811c7.033,0,12.331,1.479,15.887,4.436
	c3.557,2.954,5.339,6.765,5.339,11.428c0,3.499-0.98,6.309-2.93,8.433c-0.61,0.667-1.273,1.284-1.986,1.851H70.399v4.877h74.793
	V98.648L145.192,98.648z M108.101,151.471c5.69,0,11.147-0.993,16.364-2.979c3.516-1.339,6.49-2.967,8.927-4.879v-9.77l-0.004-0.008
	c-2.774,3.015-6.457,5.46-11.056,7.324c-4.598,1.867-9.342,2.799-14.231,2.799c-6.858,0-12.002-1.367-15.434-4.109
	c-3.428-2.738-5.143-6.295-5.143-10.665c0-3.337,0.932-5.998,2.792-7.983c1.861-1.985,4.142-3.516,6.842-4.59
	c2.647-1.05,6.307-2.197,10.984-3.438h37.376v-4.651H70.906v4.651h15.66c-1.239,1.005-2.38,2.152-3.42,3.438
	c-2.407,2.982-3.611,7.015-3.611,12.098c0,4.211,1.038,8.044,3.119,11.499c2.077,3.454,5.273,6.196,9.576,8.223
	C96.535,150.457,101.824,151.471,108.101,151.471L108.101,151.471z"/>
</svg>
