<?xml version="1.0" encoding="utf-8"?>
<!DOCTYPE svg PUBLIC "-//W3C//DTD SVG 1.1//EN" "http://www.w3.org/Graphics/SVG/1.1/DTD/svg11.dtd">
<svg version="1.1" xmlns="http://www.w3.org/2000/svg" xmlns:xlink="http://www.w3.org/1999/xlink" x="0px" y="0px" width="216px" height="216px" viewBox="0 0 216 216" enable-background="new 0 0 216 216" xml:space="preserve">

	<g>
		<polygon fill-rule="evenodd" clip-rule="evenodd" points="58.019,49.665 105.397,49.665 105.397,62.114 
			58.019,62.114 58.019,49.665 		"/>
		<polygon fill-rule="evenodd" clip-rule="evenodd" points="58.019,81.827 125.109,81.827 125.109,94.276 
			58.019,94.276 58.019,81.827 		"/>
		<path d="M96.164,127.482c-1.515,0-2.88-0.28-4.094-0.842c-1.215-0.562-2.162-1.346-2.841-2.352
			c-0.679-1.005-1.019-2.148-1.019-3.428c0-1.28,0.339-2.423,1.019-3.429s1.626-1.789,2.841-2.352
			c1.214-0.562,2.579-0.842,4.094-0.842c1.542,0,2.913,0.28,4.114,0.842c1.202,0.563,2.142,1.346,2.821,2.352
			s1.019,2.148,1.019,3.429c0,1.279-0.339,2.423-1.019,3.428c-0.679,1.006-1.62,1.79-2.821,2.352S97.705,127.482,96.164,127.482
			L96.164,127.482z M77.239,114.631h9.012v27.428h-7.601l-10.422-12.46v12.46h-9.012v-27.428h7.602l10.422,12.46V114.631
			L77.239,114.631z M96.164,118.549c-0.601,0-1.09,0.196-1.469,0.588s-0.568,0.967-0.568,1.725c0,0.731,0.189,1.299,0.568,1.704
			c0.379,0.404,0.869,0.607,1.469,0.607c0.601,0,1.091-0.203,1.469-0.607c0.379-0.405,0.568-0.973,0.568-1.704
			c0-0.758-0.189-1.333-0.568-1.725C97.254,118.745,96.765,118.549,96.164,118.549L96.164,118.549z M88.994,129.441h14.34v5.094
			h-14.34V129.441L88.994,129.441z M120.652,142.686c-4.205,0-7.483-1.137-9.834-3.409c-2.352-2.272-3.527-5.459-3.527-9.561
			v-15.085h9.248v14.811c0,2.012,0.358,3.475,1.077,4.389c0.718,0.914,1.757,1.371,3.115,1.371s2.396-0.457,3.114-1.371
			c0.719-0.914,1.078-2.377,1.078-4.389v-14.811h9.09v15.085c0,4.102-1.176,7.288-3.526,9.561S124.858,142.686,120.652,142.686
			L120.652,142.686z M156.936,137.278h-10.423l-1.842,4.78h-9.403l11.99-27.428h9.09l11.989,27.428h-9.561L156.936,137.278
			L156.936,137.278z M154.389,130.617l-2.664-6.896l-2.665,6.896H154.389L154.389,130.617z"/>
		<path d="M69.177,153.323v26.364h-7.973v-19.66H57.15v-6.704H69.177L69.177,153.323z M93.985,172.795v6.893H75.034
			v-5.462l8.547-8.813c0.743-0.778,1.239-1.444,1.486-1.996c0.248-0.553,0.372-1.093,0.372-1.62c0-0.652-0.197-1.161-0.591-1.525
			s-0.963-0.546-1.706-0.546c-0.721,0-1.396,0.214-2.027,0.641c-0.63,0.427-1.115,1.029-1.453,1.808l-6.013-3.353
			c0.901-1.883,2.218-3.37,3.953-4.463c1.734-1.092,3.829-1.638,6.283-1.638c1.87,0,3.525,0.339,4.966,1.017s2.567,1.645,3.378,2.9
			c0.811,1.255,1.216,2.699,1.216,4.331c0,1.456-0.276,2.818-0.828,4.086c-0.552,1.269-1.627,2.706-3.226,4.313l-3.378,3.428H93.985
			L93.985,172.795z M111.869,163.756c1.824,0.502,3.227,1.412,4.206,2.73s1.47,2.906,1.47,4.765c0,1.581-0.389,3.057-1.166,4.425
			c-0.776,1.369-1.976,2.479-3.598,3.333c-1.621,0.854-3.637,1.281-6.047,1.281c-1.666,0-3.327-0.201-4.983-0.603
			c-1.655-0.402-3.102-0.992-4.341-1.771l2.703-6.554c0.968,0.628,2.01,1.105,3.125,1.432c1.114,0.326,2.19,0.489,3.226,0.489
			c0.923,0,1.667-0.176,2.229-0.527s0.844-0.854,0.844-1.506c0-1.205-0.935-1.809-2.804-1.809h-3.142v-5.461l3.479-3.954h-8.445
			v-6.704h17.634v5.461L111.869,163.756L111.869,163.756z M145.259,175.168h-3.142v4.52h-7.736v-4.52h-12.263v-5.649l10.033-16.195
			h8.175l-8.918,14.952h3.21v-4.03h7.499v4.03h3.142V175.168L145.259,175.168z M159.021,162.626c3.311,0,5.749,0.771,7.314,2.316
			c1.565,1.544,2.348,3.571,2.348,6.082c0,1.657-0.389,3.183-1.165,4.576c-0.777,1.394-1.977,2.523-3.599,3.39
			c-1.621,0.866-3.637,1.3-6.047,1.3c-1.666,0-3.327-0.201-4.982-0.603c-1.655-0.402-3.103-0.992-4.341-1.771l2.702-6.554
			c0.991,0.628,2.033,1.105,3.125,1.432s2.156,0.489,3.192,0.489c0.924,0,1.672-0.182,2.247-0.546
			c0.574-0.364,0.861-0.872,0.861-1.525c0-0.628-0.26-1.099-0.777-1.412c-0.518-0.314-1.452-0.471-2.804-0.471h-6.858l1.183-16.007
			h15.709v6.704h-9.155l-0.169,2.599H159.021L159.021,162.626z"/>

</g>
</svg>
