<?xml version="1.0" encoding="utf-8"?>
<!DOCTYPE svg PUBLIC "-//W3C//DTD SVG 1.1//EN" "http://www.w3.org/Graphics/SVG/1.1/DTD/svg11.dtd">
<svg version="1.1" xmlns="http://www.w3.org/2000/svg" xmlns:xlink="http://www.w3.org/1999/xlink" x="0px" y="0px" width="216px" height="216px" viewBox="0 0 216 216" enable-background="new 0 0 216 216" xml:space="preserve">

<g>
	<path fill-rule="evenodd" clip-rule="evenodd" d="M177.576,18.2H44.678c-10.011,0-18.122,8.112-18.122,18.122
		v12.083h-6.041c-10.011,0-18.122,8.111-18.122,18.122v120.819c0,13.345,10.819,24.165,24.163,24.165h144.979
		c13.345,0,24.165-10.82,24.165-24.165V51.406c-4.16,6.802-8.179,13.693-12.082,20.649v115.291l0,0
		c0,6.656-5.422,12.083-12.083,12.083H26.556c-6.661,0-12.083-5.427-12.083-12.083V66.527c0-3.333,2.708-6.042,6.042-6.042h6.041
		v120.821c0,3.339,2.702,6.039,6.042,6.039c3.337,0,6.04-2.7,6.04-6.039V36.322c0-3.332,2.709-6.04,6.041-6.04h127.317
		c3.564-3.846,7.196-7.623,10.95-11.274C181.248,18.483,179.446,18.2,177.576,18.2L177.576,18.2z"/>
</g>
</svg>
