<?xml version="1.0" encoding="utf-8"?>
<!DOCTYPE svg PUBLIC "-//W3C//DTD SVG 1.1//EN" "http://www.w3.org/Graphics/SVG/1.1/DTD/svg11.dtd">
<svg version="1.1" xmlns="http://www.w3.org/2000/svg" xmlns:xlink="http://www.w3.org/1999/xlink" x="0px" y="0px" width="216px" height="216px" viewBox="0 0 216 216" enable-background="new 0 0 216 216" xml:space="preserve">
<path fill-rule="evenodd" clip-rule="evenodd" d="M27.123,17.789h88.153
	c6.274,0,11.41,5.135,11.41,11.412v23.267c-3.789-1.284-7.752-2.189-11.846-2.671V28.671H26.594v54.332h28.361
	c-1.667,3.532-2.991,7.257-3.927,11.133H27.123c-6.278,0-11.414-5.135-11.414-11.414V29.201
	C15.709,22.924,20.845,17.789,27.123,17.789L27.123,17.789z M32.612,43.708H54.37v16.626H32.612V43.708L32.612,43.708z
	 M150.164,148.423h38.937v-11.084H169.5h-10.978c2.156-3.698,3.918-7.658,5.229-11.813h24.959c6.283,0,11.422,5.14,11.422,11.422
	v53.561c0,6.282-5.139,11.422-11.422,11.422h-88.224c-6.283,0-11.422-5.14-11.422-11.422v-26.286v-0.883
	c3.536,1.204,7.227,2.075,11.029,2.588v25.766h24.725h64.282v-27.471h-65.145C134.075,161.346,143.08,155.809,150.164,148.423
	L150.164,148.423z"/>
</svg>
