<?xml version="1.0" encoding="utf-8"?>
<!DOCTYPE svg PUBLIC "-//W3C//DTD SVG 1.1//EN" "http://www.w3.org/Graphics/SVG/1.1/DTD/svg11.dtd">
<svg version="1.1" xmlns="http://www.w3.org/2000/svg" xmlns:xlink="http://www.w3.org/1999/xlink" x="0px" y="0px" width="216px" height="216px" viewBox="0 0 216 216" enable-background="new 0 0 216 216" xml:space="preserve">
<path fill-rule="evenodd" clip-rule="evenodd" d="M16.119-0.08h183.602
	c8.911,0,16.199,7.29,16.199,16.199v183.602c0,8.907-7.288,16.199-16.199,16.199H16.119c-8.909,0-16.199-7.292-16.199-16.199V16.119
	C-0.08,7.209,7.209-0.08,16.119-0.08L16.119-0.08z M16.119,4.918h183.602c6.161,0,11.198,5.04,11.198,11.2v183.602
	c0,6.161-5.037,11.198-11.198,11.198H16.119c-6.161,0-11.2-5.037-11.2-11.198V16.119C4.918,9.958,9.958,4.918,16.119,4.918
	L16.119,4.918z M107.92,158.791c-1.308,0-2.604-0.049-3.89-0.146v-7.89c1.383,0.102,2.777,0.154,4.187,0.154
	c0.521,0,1.04-0.004,1.551-0.021v7.865C109.154,158.774,108.538,158.791,107.92,158.791L107.92,158.791z M100.02,158.181
	c-24.341-3.801-42.971-24.858-42.971-50.261c0-25.405,18.63-46.462,42.971-50.261v9.979c-2.586,0.511-4.938,1.235-7.052,2.187
	c-4.574,2.047-7.959,4.785-10.168,8.215c-2.204,3.428-3.308,7.227-3.308,11.405c0,5.123,1.318,9.178,3.961,12.173
	c2.639,2.997,5.811,5.223,9.516,6.679c1.988,0.784,4.339,1.583,7.052,2.399v31.996c-2.425-0.459-4.816-1.127-7.172-2.01
	c-4.962-1.848-8.944-4.272-11.937-7.268l-3.428,6.738c3.072,3.231,7.428,5.831,13.06,7.801c3.083,1.078,6.244,1.863,9.477,2.348
	V158.181L100.02,158.181z M104.03,57.195c1.286-0.098,2.582-0.146,3.89-0.146c0.618,0,1.232,0.012,1.848,0.037v9.666
	c-2.011,0.006-3.921,0.104-5.738,0.293V57.195L104.03,57.195z M113.779,57.387c25.334,2.905,45.012,24.422,45.012,50.533
	c0,26.111-19.678,47.628-45.012,50.533v-7.792c4.398-0.407,8.26-1.331,11.576-2.768c4.651-2.006,8.094-4.728,10.344-8.154
	c2.242-3.426,3.369-7.227,3.369-11.405c0-5.041-1.303-9.041-3.902-11.995c-2.604-2.958-5.773-5.164-9.514-6.622
	c-3.141-1.221-7.096-2.458-11.873-3.708V74.387c2.56,0.254,5.159,0.761,7.792,1.526c3.943,1.141,7.646,2.854,11.112,5.139
	l2.959-6.97c-3.313-2.287-7.235-4.082-11.764-5.379c-3.316-0.95-6.682-1.554-10.1-1.811V57.387L113.779,57.387z M104.03,143.268
	c1.386,0.13,2.779,0.195,4.187,0.195c0.525,0,1.042-0.004,1.551-0.021v-30.123c-0.617-0.154-1.251-0.313-1.907-0.468
	c-1.333-0.338-2.608-0.676-3.831-1.007V143.268L104.03,143.268z M113.779,143.17c4.691-0.533,8.395-1.795,11.104-3.784
	c3.702-2.718,5.55-6.246,5.55-10.579c0-3.309-1.001-5.949-3.011-7.919c-2.011-1.97-4.472-3.487-7.386-4.549
	c-1.696-0.623-3.788-1.273-6.258-1.962V143.17L113.779,143.17z M109.768,74.196c-2.06,0.01-3.97,0.132-5.738,0.368v28.904
	c1.728,0.493,3.64,0.999,5.738,1.526V74.196L109.768,74.196z M100.02,75.364c-2.539,0.698-4.671,1.707-6.403,3.031
	c-3.664,2.795-5.495,6.403-5.495,10.815c0,3.308,1.005,5.969,3.013,7.979c2.01,2.01,4.533,3.544,7.566,4.61
	c0.417,0.146,0.856,0.293,1.318,0.448V75.364L100.02,75.364z"/>
</svg>
