<?xml version="1.0" encoding="utf-8"?>
<!DOCTYPE svg PUBLIC "-//W3C//DTD SVG 1.1//EN" "http://www.w3.org/Graphics/SVG/1.1/DTD/svg11.dtd">
<svg version="1.1" xmlns="http://www.w3.org/2000/svg" xmlns:xlink="http://www.w3.org/1999/xlink" x="0px" y="0px" width="216px" height="216px" viewBox="0 0 216 216" enable-background="new 0 0 216 216" xml:space="preserve">
<path id="_x33_" fill-rule="evenodd" clip-rule="evenodd" fill="#F58031" d="M27.123,17.789h88.153
	c6.274,0,11.41,5.135,11.41,11.412v23.267c-3.789-1.284-7.752-2.189-11.846-2.671V28.671H26.594v54.332h28.361
	c-1.667,3.532-2.991,7.257-3.927,11.133H27.123c-6.278,0-11.414-5.135-11.414-11.414V29.201
	C15.709,22.924,20.845,17.789,27.123,17.789L27.123,17.789z M32.612,43.708H54.37v16.626H32.612V43.708L32.612,43.708z
	 M150.164,148.423h38.937v-11.084H169.5h-10.978c2.156-3.698,3.918-7.658,5.229-11.813h24.959c6.283,0,11.422,5.14,11.422,11.422
	v53.561c0,6.282-5.139,11.422-11.422,11.422h-88.224c-6.283,0-11.422-5.14-11.422-11.422v-26.286v-0.883
	c3.536,1.204,7.227,2.075,11.029,2.588v25.766h24.725h64.282v-27.471h-65.145C134.075,161.346,143.08,155.809,150.164,148.423
	L150.164,148.423z"/>
<path id="_x32_" fill-rule="evenodd" clip-rule="evenodd" fill="#999557" d="M16.119,4.918h183.602c6.161,0,11.198,5.04,11.198,11.2
	v183.602c0,6.161-5.037,11.198-11.198,11.198H16.119c-6.161,0-11.2-5.037-11.2-11.198V16.119C4.918,9.958,9.958,4.918,16.119,4.918
	L16.119,4.918z M16.119-0.08h183.602c8.911,0,16.199,7.29,16.199,16.199v183.602c0,8.907-7.288,16.199-16.199,16.199H16.119
	c-8.909,0-16.199-7.292-16.199-16.199V16.119C-0.08,7.209,7.209-0.08,16.119-0.08L16.119-0.08z M56.945,184.393
	c-21.008-9.717-32.847-33.357-27.444-58.675l-6.791-1.652c4.962-4.605,9.924-9.208,14.887-13.814
	c3.727-3.417,6.571-2.413,7.743,2.026l6.818,18.958l-6.792-1.656c-3.31,16.524,4.907,32.895,19.356,40.401
	C72.566,174.493,65.801,188.222,56.945,184.393L56.945,184.393z M159.588,33.314c21.009,9.713,32.85,33.355,27.446,58.673
	l6.791,1.652c-4.96,4.604-9.925,9.208-14.889,13.813c-3.724,3.418-6.571,2.413-7.739-2.026l-6.819-18.954l6.791,1.654
	c3.312-16.524-4.907-32.894-19.356-40.399C143.972,43.21,150.734,29.485,159.588,33.314L159.588,33.314z"/>
<path id="_x31_" fill-rule="evenodd" clip-rule="evenodd" fill="#7E5628" d="M107.92,158.791c-24.551,0-45.044-17.399-49.821-40.536
	h9.167c1.469,6.03,4.159,11.365,8.063,16.008c3.906,4.639,8.722,8.256,14.447,10.848c5.723,2.593,11.949,3.887,18.677,3.887
	c6.111,0,11.719-1.006,16.821-3.016c5.106-2.01,9.477-4.988,13.11-8.932l-5.566-5.452c-6.267,6.494-14.233,9.745-23.901,9.745
	c-7.888,0-14.791-2.128-20.709-6.38c-5.917-4.257-9.92-9.827-12.01-16.708h25.045l3.528-5.11H74.924
	c-0.234-1.774-0.348-3.593-0.348-5.451c0-1.935,0.114-3.751,0.348-5.45h37.382l3.527-5.107H76.198
	c2.089-6.882,6.093-12.451,12.01-16.707c5.918-4.254,12.821-6.38,20.709-6.38c7.279,0,13.627,1.852,19.034,5.548l4.46-6.458
	c-2.193-1.477-4.569-2.722-7.137-3.731c-5.103-2.012-10.71-3.017-16.821-3.017c-6.729,0-12.954,1.294-18.677,3.886
	c-5.725,2.592-10.541,6.207-14.447,10.85c-3.904,4.641-6.594,9.979-8.063,16.009h-9.068c4.946-22.913,25.332-40.088,49.722-40.088
	c28.093,0,50.871,22.778,50.871,50.871S136.013,158.791,107.92,158.791L107.92,158.791z M57.313,113.145
	c-0.175-1.717-0.265-3.461-0.265-5.225c0-1.921,0.11-3.813,0.317-5.676h8.972c-0.232,1.699-0.35,3.516-0.35,5.45
	c0,1.858,0.118,3.676,0.35,5.451H57.313L57.313,113.145z"/>
</svg>
