<?xml version="1.0" encoding="utf-8"?>
<!DOCTYPE svg PUBLIC "-//W3C//DTD SVG 1.1//EN" "http://www.w3.org/Graphics/SVG/1.1/DTD/svg11.dtd">
<svg version="1.1" xmlns="http://www.w3.org/2000/svg" xmlns:xlink="http://www.w3.org/1999/xlink" x="0px" y="0px" width="216px" height="216px" viewBox="0 0 216 216" enable-background="new 0 0 216 216" xml:space="preserve">
<path fill-rule="evenodd" clip-rule="evenodd" d="M16.119,4.918h183.602c6.161,0,11.198,5.04,11.198,11.2
	v183.602c0,6.161-5.037,11.198-11.198,11.198H16.119c-6.161,0-11.2-5.037-11.2-11.198V16.119C4.918,9.958,9.958,4.918,16.119,4.918
	L16.119,4.918z M16.119-0.08h183.602c8.911,0,16.199,7.29,16.199,16.199v183.602c0,8.907-7.288,16.199-16.199,16.199H16.119
	c-8.909,0-16.199-7.292-16.199-16.199V16.119C-0.08,7.209,7.209-0.08,16.119-0.08L16.119-0.08z M56.945,184.393
	c-21.008-9.717-32.847-33.357-27.444-58.675l-6.791-1.652c4.962-4.605,9.924-9.208,14.887-13.814
	c3.727-3.417,6.571-2.413,7.743,2.026l6.818,18.958l-6.792-1.656c-3.31,16.524,4.907,32.895,19.356,40.401
	C72.566,174.493,65.801,188.222,56.945,184.393L56.945,184.393z M159.588,33.314c21.009,9.713,32.85,33.355,27.446,58.673
	l6.791,1.652c-4.96,4.604-9.925,9.208-14.889,13.813c-3.724,3.418-6.571,2.413-7.739-2.026l-6.819-18.954l6.791,1.654
	c3.312-16.524-4.907-32.894-19.356-40.399C143.972,43.21,150.734,29.485,159.588,33.314L159.588,33.314z"/>
</svg>
