<?xml version="1.0" encoding="utf-8"?>
<!DOCTYPE svg PUBLIC "-//W3C//DTD SVG 1.1//EN" "http://www.w3.org/Graphics/SVG/1.1/DTD/svg11.dtd">
<svg version="1.1" xmlns="http://www.w3.org/2000/svg" xmlns:xlink="http://www.w3.org/1999/xlink" x="0px" y="0px" width="216px" height="216px" viewBox="0 0 216 216" enable-background="new 0 0 216 216" xml:space="preserve">
<path fill-rule="evenodd" clip-rule="evenodd" d="M107.92,158.791c-24.551,0-45.044-17.399-49.821-40.536
	h9.167c1.469,6.03,4.159,11.365,8.063,16.008c3.906,4.639,8.722,8.256,14.447,10.848c5.723,2.593,11.949,3.887,18.677,3.887
	c6.111,0,11.719-1.006,16.821-3.016c5.106-2.01,9.477-4.988,13.11-8.932l-5.566-5.452c-6.267,6.494-14.233,9.745-23.901,9.745
	c-7.888,0-14.791-2.128-20.709-6.38c-5.917-4.257-9.92-9.827-12.01-16.708h25.045l3.528-5.11H74.924
	c-0.234-1.774-0.348-3.593-0.348-5.451c0-1.935,0.114-3.751,0.348-5.45h37.382l3.527-5.107H76.198
	c2.089-6.882,6.093-12.451,12.01-16.707c5.918-4.254,12.821-6.38,20.709-6.38c7.279,0,13.627,1.852,19.034,5.548l4.46-6.458
	c-2.193-1.477-4.569-2.722-7.137-3.731c-5.103-2.012-10.71-3.017-16.821-3.017c-6.729,0-12.954,1.294-18.677,3.886
	c-5.725,2.592-10.541,6.207-14.447,10.85c-3.904,4.641-6.594,9.979-8.063,16.009h-9.068c4.946-22.913,25.332-40.088,49.722-40.088
	c28.093,0,50.871,22.778,50.871,50.871S136.013,158.791,107.92,158.791L107.92,158.791z M57.313,113.145
	c-0.175-1.717-0.265-3.461-0.265-5.225c0-1.921,0.11-3.813,0.317-5.676h8.972c-0.232,1.699-0.35,3.516-0.35,5.45
	c0,1.858,0.118,3.676,0.35,5.451H57.313L57.313,113.145z"/>
</svg>
