<?xml version="1.0" encoding="utf-8"?>
<!DOCTYPE svg PUBLIC "-//W3C//DTD SVG 1.1//EN" "http://www.w3.org/Graphics/SVG/1.1/DTD/svg11.dtd">
<svg version="1.1" xmlns="http://www.w3.org/2000/svg" xmlns:xlink="http://www.w3.org/1999/xlink" x="0px" y="0px" width="216px" height="216px" viewBox="0 0 216 216" enable-background="new 0 0 216 216" xml:space="preserve">

<g>
	<path fill-rule="evenodd" clip-rule="evenodd" d="M213.31,2.535c0.709-0.34,1.857,1.304,1.383,1.941
		c-22.228,29.852-40.443,62.493-57.188,96.158c-0.514,1.033-2.802,0.938-3.404-0.043c-10.161-16.582-23.127-32.139-38.002-46.976
		c-0.966-0.963-0.772-3.038,0.043-4.135c2.564-3.447,5.854-5.138,8.183-6.635c2.329-1.497,4.098-0.934,5.088-0.132
		c7.541,6.103,14.238,12.762,21.675,18.998c0.646,0.542,1.935,0.409,2.499-0.22c15.958-17.804,30.746-36.806,49.073-51.245
		C206.105,7.533,209.37,4.424,213.31,2.535L213.31,2.535z"/>
</g>
</svg>
