<?xml version="1.0" encoding="utf-8"?>
<!DOCTYPE svg PUBLIC "-//W3C//DTD SVG 1.1//EN" "http://www.w3.org/Graphics/SVG/1.1/DTD/svg11.dtd">
<svg version="1.1" xmlns="http://www.w3.org/2000/svg" xmlns:xlink="http://www.w3.org/1999/xlink" x="0px" y="0px" width="216px" height="216px" viewBox="0 0 216 216" enable-background="new 0 0 216 216" xml:space="preserve">

<g>
	<path fill-rule="evenodd" clip-rule="evenodd" d="M176.38,16.486H43.481c-10.011,0-18.122,8.281-18.122,18.5V47.32
		h-6.041c-10.011,0-18.122,8.281-18.122,18.5v123.336c0,13.623,10.819,24.669,24.163,24.669h144.979
		c13.345,0,24.165-11.046,24.165-24.669V50.383c-4.16,6.944-8.179,13.979-12.082,21.08v117.693l0,0
		c0,6.795-5.422,12.335-12.083,12.335H25.359c-6.661,0-12.083-5.54-12.083-12.335V65.82c0-3.402,2.708-6.167,6.042-6.167h6.041
		v123.339c0,3.409,2.702,6.165,6.042,6.165c3.337,0,6.04-2.756,6.04-6.165V34.986c0-3.402,2.709-6.166,6.041-6.166h127.317
		c3.564-3.926,7.196-7.781,10.95-11.509C180.052,16.775,178.25,16.486,176.38,16.486L176.38,16.486z"/>
</g>
</svg>
