<?xml version="1.0" encoding="utf-8"?>
<!DOCTYPE svg PUBLIC "-//W3C//DTD SVG 1.1//EN" "http://www.w3.org/Graphics/SVG/1.1/DTD/svg11.dtd">
<svg version="1.1" xmlns="http://www.w3.org/2000/svg" xmlns:xlink="http://www.w3.org/1999/xlink" x="0px" y="0px" width="216px" height="216px" viewBox="0 0 216 216" enable-background="new 0 0 216 216" xml:space="preserve">
<path id="_x33_" fill-rule="evenodd" clip-rule="evenodd" fill="#F58031" d="M172.63,138.82h17.272c5.14,0,9.343,4.207,9.343,9.347
	v43.831c0,5.144-4.203,9.347-9.343,9.347H117.71c-5.144,0-9.349-4.203-9.349-9.347v-14.233h9.027v15.202h20.23h52.604v-22.478
	h-20.996c2.116-2.376,3.402-5.497,3.402-8.911v-4.021h17.594v-9.065H174.18h-1.55V138.82L172.63,138.82z M83.25,109.304h72.135
	c5.136,0,9.339,4.199,9.339,9.338v43.795c0,5.14-4.203,9.343-9.339,9.343H83.25c-5.137,0-9.338-4.203-9.338-9.343v-43.795
	C73.911,113.503,78.112,109.304,83.25,109.304L83.25,109.304z M84.903,130.511h17.804v13.607H84.903V130.511L84.903,130.511z"/>
<path id="_x32_" fill-rule="evenodd" clip-rule="evenodd" fill="#999557" d="M16.119-0.08h183.602
	c8.911,0,16.199,7.29,16.199,16.199v183.602c0,8.907-7.288,16.199-16.199,16.199H16.119c-8.909,0-16.199-7.292-16.199-16.199V16.119
	C-0.08,7.209,7.209-0.08,16.119-0.08L16.119-0.08z M16.119,4.918h183.602c6.161,0,11.198,5.04,11.198,11.2v183.602
	c0,6.161-5.037,11.198-11.198,11.198H16.119c-6.161,0-11.2-5.037-11.2-11.198V16.119C4.918,9.958,9.958,4.918,16.119,4.918
	L16.119,4.918z M159.588,33.314c21.009,9.713,32.85,33.355,27.446,58.673l6.791,1.652c-4.96,4.604-9.925,9.208-14.889,13.813
	c-3.724,3.418-6.571,2.413-7.739-2.026l-6.819-18.954l6.791,1.654c3.312-16.524-4.907-32.894-19.356-40.399
	C143.972,43.21,150.734,29.485,159.588,33.314L159.588,33.314z M56.945,184.393c-21.008-9.717-32.847-33.357-27.444-58.675
	l-6.791-1.652c4.962-4.605,9.924-9.208,14.887-13.814c3.727-3.417,6.571-2.413,7.743,2.026l6.818,18.958l-6.792-1.656
	c-3.31,16.524,4.907,32.895,19.356,40.401C72.566,174.493,65.801,188.222,56.945,184.393L56.945,184.393z"/>
<path id="_x31_" fill-rule="evenodd" clip-rule="evenodd" fill="#7E5628" d="M27.123,17.789h88.153
	c6.274,0,11.41,5.135,11.41,11.412v53.522c0,6.278-5.136,11.414-11.41,11.414H27.123c-6.278,0-11.414-5.135-11.414-11.414V29.201
	C15.709,22.924,20.845,17.789,27.123,17.789L27.123,17.789z M26.7,28.94h88.292v54.32H26.7V28.94L26.7,28.94z M32.612,43.708H54.37
	v16.626H32.612V43.708L32.612,43.708z"/>
</svg>
