<?xml version="1.0" encoding="utf-8"?>
<!DOCTYPE svg PUBLIC "-//W3C//DTD SVG 1.1//EN" "http://www.w3.org/Graphics/SVG/1.1/DTD/svg11.dtd">
<svg version="1.1" xmlns="http://www.w3.org/2000/svg" xmlns:xlink="http://www.w3.org/1999/xlink" x="0px" y="0px" width="216px" height="216px" viewBox="0 0 216 216" enable-background="new 0 0 216 216" xml:space="preserve">
<path fill-rule="evenodd" clip-rule="evenodd" d="M107.525,103.145c16.976,0,30.741,14.321,30.741,31.984
	c0,17.664-24.675,52.813-30.741,61.735c-7.557-7.935-30.744-44.071-30.744-61.735C76.782,117.466,90.549,103.145,107.525,103.145
	L107.525,103.145z M106.982,177.423c9.002-13.978,20.071-32.886,20.071-42.294c0-10.938-8.276-20.764-19.527-20.764
	S88,124.191,88,135.129C88,143.923,98.205,163.841,106.982,177.423L106.982,177.423z M107.525,125.844
	c4.928,0,8.923,4.158,8.923,9.285c0,5.128-3.995,9.286-8.923,9.286c-4.932,0-8.928-4.158-8.928-9.286
	C98.598,130.002,102.594,125.844,107.525,125.844L107.525,125.844z"/>
</svg>
