<?xml version="1.0" encoding="utf-8"?>
<!DOCTYPE svg PUBLIC "-//W3C//DTD SVG 1.1//EN" "http://www.w3.org/Graphics/SVG/1.1/DTD/svg11.dtd">
<svg version="1.1" xmlns="http://www.w3.org/2000/svg" xmlns:xlink="http://www.w3.org/1999/xlink" x="0px" y="0px" width="216px" height="216px" viewBox="0 0 216 216" enable-background="new 0 0 216 216" xml:space="preserve">
<path id="_x33_" fill-rule="evenodd" clip-rule="evenodd" fill="#F58031" d="M107.525,103.145c16.976,0,30.741,14.321,30.741,31.984
	c0,17.664-24.675,52.813-30.741,61.735c-7.557-7.935-30.744-44.071-30.744-61.735C76.782,117.466,90.549,103.145,107.525,103.145
	L107.525,103.145z M106.982,177.423c9.002-13.978,20.071-32.886,20.071-42.294c0-10.938-8.276-20.764-19.527-20.764
	S88,124.191,88,135.129C88,143.923,98.205,163.841,106.982,177.423L106.982,177.423z M107.525,125.844
	c4.928,0,8.923,4.158,8.923,9.285c0,5.128-3.995,9.286-8.923,9.286c-4.932,0-8.928-4.158-8.928-9.286
	C98.598,130.002,102.594,125.844,107.525,125.844L107.525,125.844z"/>
<path id="_x32_" fill-rule="evenodd" clip-rule="evenodd" fill="#999557" d="M16.119,4.918h183.602c6.161,0,11.198,5.04,11.198,11.2
	v183.602c0,6.161-5.037,11.198-11.198,11.198H16.119c-6.161,0-11.2-5.037-11.2-11.198V16.119C4.918,9.958,9.958,4.918,16.119,4.918
	L16.119,4.918z M16.119-0.08h183.602c8.911,0,16.199,7.29,16.199,16.199v183.602c0,8.907-7.288,16.199-16.199,16.199H16.119
	c-8.909,0-16.199-7.292-16.199-16.199V16.119C-0.08,7.209,7.209-0.08,16.119-0.08L16.119-0.08z M163.689,196.173h-36.49v-11.271
	h35.046v-15.344h-33.194c0.915-1.701,1.798-3.41,2.632-5.106h30.563V82.849l-55.477-47.605L53.143,81.872v82.579h28.512
	c0.836,1.794,1.685,3.511,2.5,5.106H53.143v15.344h33.205v11.271c-8.242,0-25.091,0-33.331,0c-8.226,0-11.745-5.277-11.143-11.146
	V91.532c-3.257,3.257-6.517,6.517-9.774,9.774c-5.133,4.445-12.291-5.271-7.969-9.579l29.828-28.221V34.441h11.271l0.017,21.967
	l37.286-32.866c2.277-1.924,5.563-2.911,8.409-0.067l80.723,69.853c4.346,5.16-3.584,13.017-7.389,8.975l-10.759-10.759
	c0,31.212,0,62.425,0,93.639C173.517,192.95,168.959,196.137,163.689,196.173L163.689,196.173z"/>
<path id="_x31_" fill-rule="evenodd" clip-rule="evenodd" fill="#7E5628" d="M63.779,107.751h12.746v12.746H63.779V107.751
	L63.779,107.751z M138.071,107.751h12.744v12.746h-12.744V107.751L138.071,107.751z M137.876,83.14h12.744v12.746h-12.744V83.14
	L137.876,83.14z M113.226,83.14h12.744v12.746h-12.744V83.14L113.226,83.14z M113.226,58.144h12.744V70.89h-12.744V58.144
	L113.226,58.144z M88.58,83.14h12.747v12.746H88.58V83.14L88.58,83.14z M63.584,83.14h12.744v12.746H63.584V83.14L63.584,83.14z
	 M88.58,58.144h12.747V70.89H88.58V58.144L88.58,58.144z"/>
</svg>
