<?xml version="1.0" encoding="utf-8"?>
<!DOCTYPE svg PUBLIC "-//W3C//DTD SVG 1.1//EN" "http://www.w3.org/Graphics/SVG/1.1/DTD/svg11.dtd">
<svg version="1.1" xmlns="http://www.w3.org/2000/svg" xmlns:xlink="http://www.w3.org/1999/xlink" x="0px" y="0px" width="216px" height="216px" viewBox="0 0 216 216" enable-background="new 0 0 216 216" xml:space="preserve">
<path fill-rule="evenodd" clip-rule="evenodd" d="M63.779,107.751h12.746v12.746H63.779V107.751
	L63.779,107.751z M138.071,107.751h12.744v12.746h-12.744V107.751L138.071,107.751z M137.876,83.14h12.744v12.746h-12.744V83.14
	L137.876,83.14z M113.226,83.14h12.744v12.746h-12.744V83.14L113.226,83.14z M113.226,58.144h12.744V70.89h-12.744V58.144
	L113.226,58.144z M88.58,83.14h12.747v12.746H88.58V83.14L88.58,83.14z M63.584,83.14h12.744v12.746H63.584V83.14L63.584,83.14z
	 M88.58,58.144h12.747V70.89H88.58V58.144L88.58,58.144z"/>
</svg>
