<?xml version="1.0" encoding="utf-8"?>
<!DOCTYPE svg PUBLIC "-//W3C//DTD SVG 1.1//EN" "http://www.w3.org/Graphics/SVG/1.1/DTD/svg11.dtd">
<svg version="1.1" xmlns="http://www.w3.org/2000/svg" xmlns:xlink="http://www.w3.org/1999/xlink" x="0px" y="0px" width="216px" height="216px" viewBox="0 0 216 216" enable-background="new 0 0 216 216" xml:space="preserve">
<path fill-rule="evenodd" clip-rule="evenodd" d="M16.119,4.918h183.602c6.161,0,11.198,5.04,11.198,11.2
	v183.602c0,6.161-5.037,11.198-11.198,11.198H16.119c-6.161,0-11.2-5.037-11.2-11.198V16.119C4.918,9.958,9.958,4.918,16.119,4.918
	L16.119,4.918z M16.119-0.08h183.602c8.911,0,16.199,7.29,16.199,16.199v183.602c0,8.907-7.288,16.199-16.199,16.199H16.119
	c-8.909,0-16.199-7.292-16.199-16.199V16.119C-0.08,7.209,7.209-0.08,16.119-0.08L16.119-0.08z M163.689,196.173h-36.49v-11.271
	h35.046v-15.344h-33.194c0.915-1.701,1.798-3.41,2.632-5.106h30.563V82.849l-55.477-47.605L53.143,81.872v82.579h28.512
	c0.836,1.794,1.685,3.511,2.5,5.106H53.143v15.344h33.205v11.271c-8.242,0-25.091,0-33.331,0c-8.226,0-11.745-5.277-11.143-11.146
	V91.532c-3.257,3.257-6.517,6.517-9.774,9.774c-5.133,4.445-12.291-5.271-7.969-9.579l29.828-28.221V34.441h11.271l0.017,21.967
	l37.286-32.866c2.277-1.924,5.563-2.911,8.409-0.067l80.723,69.853c4.346,5.16-3.584,13.017-7.389,8.975l-10.759-10.759
	c0,31.212,0,62.425,0,93.639C173.517,192.95,168.959,196.137,163.689,196.173L163.689,196.173z"/>
</svg>
