<?xml version="1.0" encoding="utf-8"?>
<!DOCTYPE svg PUBLIC "-//W3C//DTD SVG 1.1//EN" "http://www.w3.org/Graphics/SVG/1.1/DTD/svg11.dtd">
<svg version="1.1" xmlns="http://www.w3.org/2000/svg" xmlns:xlink="http://www.w3.org/1999/xlink" x="0px" y="0px" width="216px" height="216px" viewBox="0 0 216 216" enable-background="new 0 0 216 216" xml:space="preserve">
<path fill-rule="evenodd" clip-rule="evenodd" d="M16.119-0.08h183.602
	c8.911,0,16.199,7.29,16.199,16.199v183.602c0,8.907-7.288,16.199-16.199,16.199H16.119c-8.909,0-16.199-7.292-16.199-16.199V16.119
	C-0.08,7.209,7.209-0.08,16.119-0.08L16.119-0.08z M16.119,4.918h183.602c6.161,0,11.198,5.04,11.198,11.2v183.602
	c0,6.161-5.037,11.198-11.198,11.198H16.119c-6.161,0-11.2-5.037-11.2-11.198V16.119C4.918,9.958,9.958,4.918,16.119,4.918
	L16.119,4.918z M161.114,144.439v-1.033c2.323-0.562,4.513-1.771,6.278-3.618l4.045-4.231v17.562v33.436
	c0,7.324-5.99,13.313-13.31,13.313H57.663c-7.324,0-13.313-5.989-13.313-13.313V134.73l4.561,4.545
	c1.652,1.652,3.65,2.755,5.766,3.313v24.264h106.438V144.439L161.114,144.439z M161.114,63.883V49.926H54.677v15.596l-1.746-1.739
	c-2.376-2.368-5.461-3.609-8.582-3.725V29.001c0-7.322,5.989-13.313,13.313-13.313h100.465c7.319,0,13.31,5.991,13.31,13.313v24.581
	v5.764c-3.553-0.118-7.142,1.215-9.782,3.976L161.114,63.883L161.114,63.883z M104.343,179.018h7.2c1.089,0,1.984,0.892,1.984,1.982
	v1.244c0,1.091-0.896,1.982-1.984,1.982h-7.2c-1.09,0-1.986-0.892-1.986-1.982V181C102.357,179.909,103.253,179.018,104.343,179.018
	L104.343,179.018z M161.114,173.806v12.748c0,1.644-1.343,2.986-2.986,2.986H57.663c-1.644,0-2.986-1.343-2.986-2.986v-12.748
	H161.114L161.114,173.806z M97.698,31.076h20.109c1.363,0,2.482,1.117,2.482,2.482v0.747c0,1.365-1.119,2.482-2.482,2.482H97.698
	c-1.363,0-2.482-1.117-2.482-2.482v-0.747C95.216,32.193,96.335,31.076,97.698,31.076L97.698,31.076z M54.677,42.976h106.438V29.001
	c0-1.644-1.343-2.988-2.986-2.988H57.663c-1.644,0-2.986,1.345-2.986,2.988V42.976L54.677,42.976z"/>
</svg>
