<?xml version="1.0" encoding="utf-8"?>
<!DOCTYPE svg PUBLIC "-//W3C//DTD SVG 1.1//EN" "http://www.w3.org/Graphics/SVG/1.1/DTD/svg11.dtd">
<svg version="1.1" xmlns="http://www.w3.org/2000/svg" xmlns:xlink="http://www.w3.org/1999/xlink" x="0px" y="0px" width="216px" height="216px" viewBox="0 0 216 216" enable-background="new 0 0 216 216" xml:space="preserve">
<path fill-rule="evenodd" clip-rule="evenodd" d="M86.391,91.566c5.019-5.888,12.494-9.625,20.837-9.625
	c7.682,0,14.625,3.166,19.596,8.26c4.696,4.814,0.199,9.607-4.431,4.73c-3.809-4.016-9.192-6.519-15.166-6.519
	c-6.402,0-12.134,2.881-15.969,7.414C88.051,99.623,83.056,95.479,86.391,91.566L86.391,91.566z M131.598,86.293
	c-6.112-6.466-14.771-10.502-24.37-10.502c-10.028,0-19.027,4.404-25.171,11.385c-2.942,3.341-8.392-1.058-4.759-5.056
	c7.397-8.136,18.068-13.247,29.93-13.247c11.47,0,21.827,4.779,29.187,12.449C140.903,86,135.585,90.508,131.598,86.293
	L131.598,86.293z M141.086,76.777c-8.545-8.889-20.557-14.422-33.858-14.422c-13.617,0-25.881,5.802-34.46,15.063
	c-3.27,3.532-8.4-0.529-4.574-4.618c9.755-10.423,23.637-16.938,39.034-16.938c15.055,0,28.654,6.228,38.371,16.244
	C150.066,76.714,145.082,80.936,141.086,76.777L141.086,76.777z"/>
</svg>
