<?xml version="1.0" encoding="utf-8"?>
<!DOCTYPE svg PUBLIC "-//W3C//DTD SVG 1.1//EN" "http://www.w3.org/Graphics/SVG/1.1/DTD/svg11.dtd">
<svg version="1.1" xmlns="http://www.w3.org/2000/svg" xmlns:xlink="http://www.w3.org/1999/xlink" x="0px" y="0px" width="216px" height="216px" viewBox="0 0 216 216" enable-background="new 0 0 216 216" xml:space="preserve">
<path id="_x33_" fill-rule="evenodd" clip-rule="evenodd" fill="#F58031" d="M132.937,48.797
	c-6.088-6.439-14.71-10.459-24.272-10.459c-9.985,0-18.95,4.387-25.067,11.338c-2.932,3.329-8.36-1.052-4.74-5.033
	c7.369-8.104,17.995-13.192,29.808-13.192c11.421,0,21.737,4.757,29.069,12.398C142.201,48.504,136.903,52.996,132.937,48.797
	L132.937,48.797z M142.385,39.32c-8.513-8.853-20.472-14.364-33.72-14.364c-13.562,0-25.775,5.778-34.318,15
	c-3.257,3.52-8.368-0.523-4.555-4.598c9.715-10.378,23.537-16.87,38.874-16.87c14.995,0,28.541,6.203,38.216,16.181
	C151.332,39.257,146.364,43.462,142.385,39.32L142.385,39.32z M87.91,54.05c5.001-5.865,12.443-9.586,20.754-9.586
	c7.65,0,14.563,3.151,19.515,8.228c4.68,4.793,0.199,9.566-4.407,4.708c-3.796-3.996-9.159-6.49-15.108-6.49
	c-6.376,0-12.085,2.869-15.904,7.385C89.564,62.074,84.592,57.946,87.91,54.05L87.91,54.05z M108.665,80.247
	c-5.866,0-10.625-4.757-10.625-10.625c0-5.865,4.759-10.622,10.625-10.622c5.868,0,10.625,4.757,10.625,10.622
	C119.289,75.49,114.532,80.247,108.665,80.247L108.665,80.247z"/>
<path id="_x33__2_" fill-rule="evenodd" clip-rule="evenodd" fill="#999557" d="M16.119,4.918h183.602
	c6.161,0,11.198,5.04,11.198,11.2v183.602c0,6.161-5.037,11.198-11.198,11.198H16.119c-6.161,0-11.2-5.037-11.2-11.198V16.119
	C4.918,9.958,9.958,4.918,16.119,4.918L16.119,4.918z M16.119-0.08h183.602c8.911,0,16.199,7.29,16.199,16.199v183.602
	c0,8.907-7.288,16.199-16.199,16.199H16.119c-8.909,0-16.199-7.292-16.199-16.199V16.119C-0.08,7.209,7.209-0.08,16.119-0.08
	L16.119-0.08z M61.454,172.259H111.7c1.005,4.338,2.355,8.651,4.105,12.708H61.454c-2.795,0-5.084-2.287-5.084-5.082v-2.543
	C56.369,174.546,58.658,172.259,61.454,172.259L61.454,172.259z M36.541,67.773h55.306C91.782,68.381,91.75,69,91.75,69.622
	c0,2.415,0.504,4.712,1.418,6.789H36.032c-1.399,0-2.543,1.146-2.543,2.543v62.283c0,1.399,1.144,2.543,2.543,2.543h73.653
	c-0.235,2.714-0.348,5.363-0.348,7.882c0,4.476,0.36,9.399,1.16,14.42c-24.229,1.282-49.555-0.15-73.957-5.013
	c-5.485-1.091-10.168-4.573-10.168-10.164V77.941C26.373,72.351,30.948,67.773,36.541,67.773L36.541,67.773z M125.481,67.773h36.39
	c5.591,0,10.168,4.578,10.168,10.168v31.72h-8.39V78.955c0-1.398-1.144-2.543-2.543-2.543h-36.943
	c0.912-2.077,1.42-4.374,1.42-6.789C125.583,69,125.551,68.381,125.481,67.773L125.481,67.773z M97.298,153.444h4.069
	c0.84,0,1.524,0.688,1.524,1.525v2.543c0,0.839-0.684,1.526-1.524,1.526h-4.069c-0.838,0-1.524-0.688-1.524-1.526v-2.543
	C95.774,154.132,96.459,153.444,97.298,153.444L97.298,153.444z M38.191,106.072L67.83,83.512c0.859-0.653,2.246-0.287,3.086,0.816
	l0,0c0.838,1.101,0.822,2.539-0.037,3.19L41.241,110.08c-0.858,0.653-2.246,0.285-3.084-0.817l0,0
	C37.318,108.162,37.333,106.724,38.191,106.072L38.191,106.072z M37.819,93.805l16.64-12.667c0.86-0.651,2.246-0.285,3.086,0.815
	l0,0c0.838,1.105,0.822,2.539-0.037,3.192L40.871,97.813c-0.859,0.651-2.246,0.285-3.086-0.818l0,0
	C36.944,95.894,36.962,94.459,37.819,93.805L37.819,93.805z"/>
<path id="_x31_" fill-rule="evenodd" clip-rule="evenodd" fill="#7E5628" d="M129.726,170.213
	c-2.543-4.997-4.081-11.471-4.081-18.551c0-6.686,1.371-12.838,3.67-17.705c0.68-1.069,1.303-2.632,2.283-2.539
	c0.984,0.094,1.969,0.191,2.95,0.281c0.984,0.094,1.969,0.191,2.954,0.285c3.894,0.366,3.263-0.484,4.732-4.077
	c0.594-1.457,1.188-2.905,1.777-4.362c0.595-1.448,1.188-2.901,1.782-4.354c1.986-4.858,1.929-4.24-2.152-7.547
	c-1.314-1.062-2.624-2.126-3.938-3.186c-1.311-1.062-2.625-2.124-3.935-3.184c-1.953-1.688-3.052-0.916-3.939-0.138
	c-10.339,7.552-17.618,25.537-17.618,46.525c0,21.936,7.95,40.597,19.039,47.485l0.016-0.032c0.847,0.691,1.917,1.204,3.699-0.338
	c1.31-1.063,2.624-2.124,3.938-3.187c1.311-1.062,2.62-2.124,3.935-3.186c4.081-3.3,4.143-2.686,2.157-7.544
	c-0.595-1.453-1.188-2.905-1.782-4.358c-0.595-1.452-1.185-2.905-1.783-4.357c-1.469-3.598-1.623-4.334-5.518-3.964
	c-0.984,0.094-1.969,0.188-2.953,0.281c-0.985,0.094-1.966,0.187-2.95,0.28C131.027,172.837,130.405,171.278,129.726,170.213
	L129.726,170.213z M153.655,115.956h28.521c5.298,0,9.635,4.216,9.635,9.371v54.545c0,5.155-4.337,9.371-9.635,9.371h-27.312
	c0.154-2.425-0.806-4.565-1.754-6.881c-0.59-1.452-1.188-2.905-1.778-4.357c-0.594-1.453-1.188-2.905-1.782-4.358
	c-1.041-2.551-1.908-4.789-4.284-6.466c-2.45-1.729-5.119-1.847-7.979-1.578c-0.773,0.073-1.551,0.146-2.323,0.224
	c-1.908-4.383-2.71-9.465-2.71-14.164c0-4.428,0.708-9.14,2.359-13.314c0.753,0.069,1.51,0.143,2.263,0.212
	c2.909,0.276,5.615,0.105,7.976-1.884c2.229-1.889,2.502-3.829,3.499-6.271c0.594-1.452,1.188-2.905,1.782-4.358
	c0.594-1.452,1.188-2.904,1.782-4.357C152.708,119.748,153.509,117.926,153.655,115.956L153.655,115.956z M180.548,170.619
	c2.226,0,4.028,1.803,4.028,4.028s-1.803,4.032-4.028,4.032s-4.032-1.807-4.032-4.032S178.322,170.619,180.548,170.619
	L180.548,170.619z M180.548,158.994c2.226,0,4.028,1.807,4.028,4.032s-1.803,4.028-4.028,4.028s-4.032-1.803-4.032-4.028
	S178.322,158.994,180.548,158.994L180.548,158.994z M158.913,170.619c2.226,0,4.032,1.803,4.032,4.028s-1.807,4.032-4.032,4.032
	c-2.222,0-4.028-1.807-4.028-4.032S156.691,170.619,158.913,170.619L158.913,170.619z M169.732,158.994
	c2.226,0,4.028,1.807,4.028,4.032s-1.803,4.028-4.028,4.028s-4.032-1.803-4.032-4.028S167.507,158.994,169.732,158.994
	L169.732,158.994z M169.732,170.619c2.226,0,4.028,1.803,4.028,4.028s-1.803,4.032-4.028,4.032s-4.032-1.807-4.032-4.032
	S167.507,170.619,169.732,170.619L169.732,170.619z M158.913,158.994c2.226,0,4.032,1.807,4.032,4.032s-1.807,4.028-4.032,4.028
	c-2.222,0-4.028-1.803-4.028-4.028S156.691,158.994,158.913,158.994L158.913,158.994z M158.913,148.008
	c2.226,0,4.032,1.803,4.032,4.028s-1.807,4.032-4.032,4.032c-2.222,0-4.028-1.807-4.028-4.032S156.691,148.008,158.913,148.008
	L158.913,148.008z M180.548,148.008c2.226,0,4.028,1.803,4.028,4.028s-1.803,4.032-4.028,4.032s-4.032-1.807-4.032-4.032
	S178.322,148.008,180.548,148.008L180.548,148.008z M169.732,148.008c2.226,0,4.028,1.803,4.028,4.028s-1.803,4.032-4.028,4.032
	s-4.032-1.807-4.032-4.032S167.507,148.008,169.732,148.008L169.732,148.008z M157.696,129.827h24.183
	c1.749,0,3.182,1.433,3.182,3.187v1.311c0,1.753-1.433,3.186-3.182,3.186h-24.183c-1.754,0-3.187-1.433-3.187-3.186v-1.311
	C154.51,131.26,155.942,129.827,157.696,129.827L157.696,129.827z"/>
</svg>
