<?xml version="1.0" encoding="utf-8"?>
<!DOCTYPE svg PUBLIC "-//W3C//DTD SVG 1.1//EN" "http://www.w3.org/Graphics/SVG/1.1/DTD/svg11.dtd">
<svg version="1.1" xmlns="http://www.w3.org/2000/svg" xmlns:xlink="http://www.w3.org/1999/xlink" x="0px" y="0px" width="216px" height="216px" viewBox="0 0 216 216" enable-background="new 0 0 216 216" xml:space="preserve">
<path fill-rule="evenodd" clip-rule="evenodd" d="M16.119,4.918h183.602
	c6.161,0,11.198,5.04,11.198,11.2v183.602c0,6.161-5.037,11.198-11.198,11.198H16.119c-6.161,0-11.2-5.037-11.2-11.198V16.119
	C4.918,9.958,9.958,4.918,16.119,4.918L16.119,4.918z M16.119-0.08h183.602c8.911,0,16.199,7.29,16.199,16.199v183.602
	c0,8.907-7.288,16.199-16.199,16.199H16.119c-8.909,0-16.199-7.292-16.199-16.199V16.119C-0.08,7.209,7.209-0.08,16.119-0.08
	L16.119-0.08z M61.454,172.259H111.7c1.005,4.338,2.355,8.651,4.105,12.708H61.454c-2.795,0-5.084-2.287-5.084-5.082v-2.543
	C56.369,174.546,58.658,172.259,61.454,172.259L61.454,172.259z M36.541,67.773h55.306C91.782,68.381,91.75,69,91.75,69.622
	c0,2.415,0.504,4.712,1.418,6.789H36.032c-1.399,0-2.543,1.146-2.543,2.543v62.283c0,1.399,1.144,2.543,2.543,2.543h73.653
	c-0.235,2.714-0.348,5.363-0.348,7.882c0,4.476,0.36,9.399,1.16,14.42c-24.229,1.282-49.555-0.15-73.957-5.013
	c-5.485-1.091-10.168-4.573-10.168-10.164V77.941C26.373,72.351,30.948,67.773,36.541,67.773L36.541,67.773z M125.481,67.773h36.39
	c5.591,0,10.168,4.578,10.168,10.168v31.72h-8.39V78.955c0-1.398-1.144-2.543-2.543-2.543h-36.943
	c0.912-2.077,1.42-4.374,1.42-6.789C125.583,69,125.551,68.381,125.481,67.773L125.481,67.773z M97.298,153.444h4.069
	c0.84,0,1.524,0.688,1.524,1.525v2.543c0,0.839-0.684,1.526-1.524,1.526h-4.069c-0.838,0-1.524-0.688-1.524-1.526v-2.543
	C95.774,154.132,96.459,153.444,97.298,153.444L97.298,153.444z M38.191,106.072L67.83,83.512c0.859-0.653,2.246-0.287,3.086,0.816
	l0,0c0.838,1.101,0.822,2.539-0.037,3.19L41.241,110.08c-0.858,0.653-2.246,0.285-3.084-0.817l0,0
	C37.318,108.162,37.333,106.724,38.191,106.072L38.191,106.072z M37.819,93.805l16.64-12.667c0.86-0.651,2.246-0.285,3.086,0.815
	l0,0c0.838,1.105,0.822,2.539-0.037,3.192L40.871,97.813c-0.859,0.651-2.246,0.285-3.086-0.818l0,0
	C36.944,95.894,36.962,94.459,37.819,93.805L37.819,93.805z"/>
</svg>
