<?xml version="1.0" encoding="utf-8"?>
<!DOCTYPE svg PUBLIC "-//W3C//DTD SVG 1.1//EN" "http://www.w3.org/Graphics/SVG/1.1/DTD/svg11.dtd">
<svg version="1.1" xmlns="http://www.w3.org/2000/svg" xmlns:xlink="http://www.w3.org/1999/xlink" x="0px" y="0px" width="216px" height="216px" viewBox="0 0 216 216" enable-background="new 0 0 216 216" xml:space="preserve">
<path fill-rule="evenodd" clip-rule="evenodd" d="M44.309,165.472h13.322v10.181H44.309V165.472
	L44.309,165.472z M74.666,179.096c0,1.514,0.28,2.844,0.844,3.991c0.562,1.144,1.331,2.1,2.295,2.86
	c0.966,0.766,2.091,1.339,3.383,1.726s2.677,0.578,4.144,0.578c0.997,0,1.925-0.078,2.775-0.244c0.85-0.159,1.605-0.358,2.258-0.587
	c0.653-0.235,1.2-0.468,1.642-0.728c0.434-0.249,0.753-0.473,0.942-0.672c0.198-0.187,0.336-0.468,0.411-0.826
	c0.085-0.366,0.122-0.891,0.122-1.574c0-0.464-0.016-0.843-0.037-1.155c-0.033-0.31-0.085-0.57-0.146-0.762
	c-0.069-0.191-0.159-0.325-0.272-0.41c-0.106-0.082-0.236-0.118-0.389-0.118c-0.206,0-0.502,0.118-0.881,0.362
	c-0.375,0.244-0.859,0.517-1.461,0.813c-0.594,0.297-1.3,0.569-2.122,0.813c-0.828,0.244-1.778,0.366-2.867,0.366
	c-0.714,0-1.351-0.085-1.915-0.252c-0.562-0.175-1.042-0.419-1.436-0.729c-0.389-0.313-0.692-0.691-0.897-1.155
	c-0.213-0.469-0.311-0.977-0.311-1.538c0-0.655,0.173-1.217,0.531-1.681c0.358-0.473,0.822-0.888,1.392-1.245
	c0.376-0.24,0.788-0.473,1.231-0.692h9.938c0.145,0,0.265-0.162,0.265-0.357v-1.416c0-0.199-0.12-0.358-0.265-0.358H73.188
	c-0.144,0-0.266,0.159-0.266,0.358v1.416c0,0.195,0.122,0.357,0.266,0.357h1.945C74.82,177.061,74.666,178.013,74.666,179.096
	L74.666,179.096z M73.188,170.115h9.666l0.275-0.118c0.743-0.313,1.406-0.655,1.992-1.018c0.584-0.366,1.054-0.785,1.406-1.249
	c0.348-0.472,0.525-1.025,0.525-1.664c0-0.428-0.083-0.839-0.236-1.225c-0.161-0.387-0.395-0.713-0.716-0.989
	c-0.317-0.272-0.714-0.496-1.194-0.646c-0.47-0.159-1.025-0.232-1.664-0.232c-0.822,0-1.564,0.094-2.25,0.301
	c-0.684,0.2-1.286,0.42-1.801,0.668c-0.525,0.244-0.958,0.472-1.316,0.68c-0.358,0.203-0.614,0.309-0.783,0.309
	c-0.159,0-0.289-0.045-0.389-0.134c-0.098-0.086-0.175-0.232-0.22-0.419c-0.053-0.2-0.091-0.444-0.114-0.737
	c-0.022-0.297-0.028-0.663-0.028-1.09c0-0.387,0.006-0.712,0.014-0.969c0.014-0.261,0.045-0.472,0.083-0.646
	c0.037-0.171,0.075-0.306,0.128-0.411c0.053-0.11,0.153-0.229,0.305-0.383c0.143-0.143,0.448-0.334,0.912-0.554
	s0.989-0.427,1.581-0.602c0.594-0.18,1.233-0.317,1.917-0.428c0.684-0.105,1.37-0.15,2.047-0.15c1.322,0,2.576,0.167,3.753,0.509
	c1.178,0.346,2.206,0.862,3.072,1.55c0.875,0.688,1.566,1.563,2.077,2.601c0.509,1.05,0.765,2.267,0.765,3.646
	c0,1.209-0.173,2.234-0.531,3.101c-0.043,0.102-0.086,0.199-0.13,0.302h1.507c0.145,0,0.265,0.158,0.265,0.354v1.42
	c0,0.199-0.12,0.358-0.265,0.358H73.188c-0.144,0-0.266-0.159-0.266-0.358v-1.42C72.922,170.273,73.044,170.115,73.188,170.115
	L73.188,170.115z M43.07,149.603h53.981c3.845,0,6.987,3.142,6.987,6.987v32.775c0,3.842-3.142,6.986-6.987,6.986H43.07
	c-3.843,0-6.989-3.145-6.989-6.986V156.59C36.081,152.744,39.227,149.603,43.07,149.603L43.07,149.603z"/>
</svg>
