<?xml version="1.0" encoding="utf-8"?>
<!DOCTYPE svg PUBLIC "-//W3C//DTD SVG 1.1//EN" "http://www.w3.org/Graphics/SVG/1.1/DTD/svg11.dtd">
<svg version="1.1" xmlns="http://www.w3.org/2000/svg" xmlns:xlink="http://www.w3.org/1999/xlink" x="0px" y="0px" width="216px" height="216px" viewBox="0 0 216 216" enable-background="new 0 0 216 216" xml:space="preserve">
<path id="_x33_" fill-rule="evenodd" clip-rule="evenodd" fill="#F58031" d="M137.986,97.023h37.695
	c2.856,0,4.943,2.348,5.191,5.194l4.306,49.29c0.248,2.845-2.34,5.192-5.196,5.192h-46.302c-2.856,0-5.44-2.348-5.196-5.192
	l4.306-49.29C133.038,99.371,135.129,97.023,137.986,97.023L137.986,97.023z M172.45,110.968
	c-0.455,15.148-7.324,27.185-15.73,27.185c-8.476,0-15.397-12.252-15.739-27.594c-0.09-3.931,4.358-3.062,4.358,0.421
	c0,12.382,5.099,22.421,11.381,22.421c6.286,0,11.385-10.039,11.385-22.421C168.104,107.362,172.585,106.53,172.45,110.968
	L172.45,110.968z M170.477,101.938c3.438,0,6.23,2.791,6.23,6.233c0,2.326-1.274,4.354-3.162,5.424
	c0.069-0.866,0.118-1.737,0.143-2.592c0.032-1.041-0.184-2.163-0.749-2.999c-0.085-1.286-1.155-2.301-2.462-2.301
	c-1.249,0-2.282,0.924-2.449,2.126c-0.798,0.851-1.164,1.994-1.164,3.149c0,0.732-0.016,1.478-0.057,2.23
	c-1.555-1.132-2.563-2.967-2.563-5.038C164.243,104.729,167.034,101.938,170.477,101.938L170.477,101.938z M143.031,101.938
	c3.438,0,6.234,2.791,6.234,6.233c0,2.098-1.038,3.953-2.629,5.087c-0.041-0.773-0.062-1.532-0.062-2.279
	c0-1.106-0.35-2.185-1.082-3.005c-0.102-1.271-1.164-2.271-2.462-2.271c-1.225,0-2.242,0.891-2.438,2.059
	c-0.622,0.749-0.875,1.796-0.85,2.824c0.02,0.979,0.068,1.972,0.146,2.973c-1.848-1.082-3.093-3.091-3.093-5.388
	C136.798,104.729,139.589,101.938,143.031,101.938L143.031,101.938z M90.014,47.69c0.541-1.902,5.462-8.094,8.201-8.094h0.865
	c1.455,0,3.452,1.813,3.452,3.642v0.812c0,2.484-2.053,3.64-4.749,3.64H90.014L90.014,47.69z M70.586,44.453
	c-0.832-2.862,1.5-4.856,3.886-4.856c3.204,0,8.024,5.642,8.634,8.094h-8.203C72.959,47.69,70.586,46.024,70.586,44.453
	L70.586,44.453z M66.703,43.646c0,5.146,4.545,7.931,9.497,7.561h21.584c3.715,0.557,8.635-2.552,8.635-6.348v-2.427
	c0-2.934-4.228-6.476-7.338-6.476c-8.663,0-11.064,6.858-12.285,10.109c-0.669-3.521-7.257-10.109-12.754-10.109
	c-3.166,0-7.471,2.645-7.338,6.881V43.646L66.703,43.646z M109.873,64.69c1.007,0,2.158-1.08,2.158-2.024v-5.259
	c0-1.095-0.207-1.119-0.433-2.026c-0.969-0.212-0.991-0.405-2.159-0.405H88.72v9.715H109.873L109.873,64.69z M62.385,64.286h22.016
	v-8.905H62.385c-0.673,0.423-1.296,0.537-1.296,1.619v5.666C61.089,63.749,61.712,63.862,62.385,64.286L62.385,64.286z
	 M108.494,68.64v21.405c0,1.565-1.28,2.842-2.844,2.842H88.797V68.64H108.494L108.494,68.64z M84.401,92.887H66.99
	c-1.563,0-2.842-1.277-2.842-2.842V68.64h20.253V92.887L84.401,92.887z"/>
<path id="_x32_" fill-rule="evenodd" clip-rule="evenodd" fill="#999557" d="M16.119,4.918h183.602c6.161,0,11.198,5.04,11.198,11.2
	v183.602c0,6.161-5.037,11.198-11.198,11.198H16.119c-6.161,0-11.2-5.037-11.2-11.198V16.119C4.918,9.958,9.958,4.918,16.119,4.918
	L16.119,4.918z M16.119-0.08h183.602c8.911,0,16.199,7.29,16.199,16.199v183.602c0,8.907-7.288,16.199-16.199,16.199H16.119
	c-8.909,0-16.199-7.292-16.199-16.199V16.119C-0.08,7.209,7.209-0.08,16.119-0.08L16.119-0.08z M23.258,33.648
	c0-3.156,2.785-5.896,5.87-5.896h117.395c3.129,0,5.872,2.635,5.872,5.896v25.371h7.963V33.255c0-6.883-6.429-12.58-13.835-12.58
	H28.706c-6.303,0-12.997,5.465-12.997,11.007v75.466c0,4.197,6.75,10.219,11.741,10.219h80.121v-16.51H28.287
	c-3.367,0-5.029-2.972-5.029-6.289V33.648L23.258,33.648z M84.889,108.722c0-1.111,1.75-2.36,2.936-2.36
	c1.631,0,2.936,1.081,2.936,2.753v0.393c0,1.508-1.212,2.751-2.517,2.751c-1.532,0-3.355-1.085-3.355-2.358V108.722L84.889,108.722z
	 M61.411,140.163c0,0.919,1.119,1.969,2.095,1.969h15.853h16.83h11.383v-6.681h-4.4c-0.895,0.166-1.4-0.31-1.709-1.181V124.05
	c-0.478-0.672-1.233-1.571-2.417-1.571h-2.856h-16.83h-2.856c-1.184,0-1.939,0.899-2.417,1.571v10.221
	c-0.309,0.871-0.814,1.347-1.709,1.181h-8.871c-0.73,0.455-2.095,1.27-2.095,2.352V140.163L61.411,140.163z M154.412,175.4h4.903
	c0.745,0,1.355,0.61,1.355,1.355v0.846c0,0.745-0.61,1.355-1.355,1.355h-4.903c-0.744,0-1.351-0.61-1.351-1.355v-0.846
	C153.062,176.011,153.668,175.4,154.412,175.4L154.412,175.4z M193.097,171.853v8.688c0,1.118-0.915,2.034-2.038,2.034h-68.454
	c-1.118,0-2.034-0.916-2.034-2.034v-8.688H193.097L193.097,171.853z M200.132,158.465v22.075c0,4.988-4.085,9.069-9.073,9.069
	h-68.454c-4.988,0-9.069-4.081-9.069-9.069V73.185c0-4.988,4.081-9.072,9.069-9.072h68.454c4.988,0,9.073,4.083,9.073,9.072V158.465
	L200.132,158.465z M193.097,151.845V87.442H120.57v79.674h72.526V151.845L193.097,151.845z M120.57,82.706h72.526v-9.521
	c0-1.121-0.915-2.037-2.038-2.037h-68.454c-1.118,0-2.034,0.916-2.034,2.037V82.706L120.57,82.706z M149.888,74.599h13.696
	c0.932,0,1.692,0.763,1.692,1.693v0.506c0,0.93-0.761,1.691-1.692,1.691h-13.696c-0.932,0-1.692-0.761-1.692-1.691v-0.506
	C148.195,75.361,148.956,74.599,149.888,74.599L149.888,74.599z"/>
<path id="_x31_" fill-rule="evenodd" clip-rule="evenodd" fill="#7E5628" d="M44.309,165.472h13.322v10.181H44.309V165.472
	L44.309,165.472z M74.666,179.096c0,1.514,0.28,2.844,0.844,3.991c0.562,1.144,1.331,2.1,2.295,2.86
	c0.966,0.766,2.091,1.339,3.383,1.726s2.677,0.578,4.144,0.578c0.997,0,1.925-0.078,2.775-0.244c0.85-0.159,1.605-0.358,2.258-0.587
	c0.653-0.235,1.2-0.468,1.642-0.728c0.434-0.249,0.753-0.473,0.942-0.672c0.198-0.187,0.336-0.468,0.411-0.826
	c0.085-0.366,0.122-0.891,0.122-1.574c0-0.464-0.016-0.843-0.037-1.155c-0.033-0.31-0.085-0.57-0.146-0.762
	c-0.069-0.191-0.159-0.325-0.272-0.41c-0.106-0.082-0.236-0.118-0.389-0.118c-0.206,0-0.502,0.118-0.881,0.362
	c-0.375,0.244-0.859,0.517-1.461,0.813c-0.594,0.297-1.3,0.569-2.122,0.813c-0.828,0.244-1.778,0.366-2.867,0.366
	c-0.714,0-1.351-0.085-1.915-0.252c-0.562-0.175-1.042-0.419-1.436-0.729c-0.389-0.313-0.692-0.691-0.897-1.155
	c-0.213-0.469-0.311-0.977-0.311-1.538c0-0.655,0.173-1.217,0.531-1.681c0.358-0.473,0.822-0.888,1.392-1.245
	c0.376-0.24,0.788-0.473,1.231-0.692h9.938c0.145,0,0.265-0.162,0.265-0.357v-1.416c0-0.199-0.12-0.358-0.265-0.358H73.188
	c-0.144,0-0.266,0.159-0.266,0.358v1.416c0,0.195,0.122,0.357,0.266,0.357h1.945C74.82,177.061,74.666,178.013,74.666,179.096
	L74.666,179.096z M73.188,170.115h9.666l0.275-0.118c0.743-0.313,1.406-0.655,1.992-1.018c0.584-0.366,1.054-0.785,1.406-1.249
	c0.348-0.472,0.525-1.025,0.525-1.664c0-0.428-0.083-0.839-0.236-1.225c-0.161-0.387-0.395-0.713-0.716-0.989
	c-0.317-0.272-0.714-0.496-1.194-0.646c-0.47-0.159-1.025-0.232-1.664-0.232c-0.822,0-1.564,0.094-2.25,0.301
	c-0.684,0.2-1.286,0.42-1.801,0.668c-0.525,0.244-0.958,0.472-1.316,0.68c-0.358,0.203-0.614,0.309-0.783,0.309
	c-0.159,0-0.289-0.045-0.389-0.134c-0.098-0.086-0.175-0.232-0.22-0.419c-0.053-0.2-0.091-0.444-0.114-0.737
	c-0.022-0.297-0.028-0.663-0.028-1.09c0-0.387,0.006-0.712,0.014-0.969c0.014-0.261,0.045-0.472,0.083-0.646
	c0.037-0.171,0.075-0.306,0.128-0.411c0.053-0.11,0.153-0.229,0.305-0.383c0.143-0.143,0.448-0.334,0.912-0.554
	s0.989-0.427,1.581-0.602c0.594-0.18,1.233-0.317,1.917-0.428c0.684-0.105,1.37-0.15,2.047-0.15c1.322,0,2.576,0.167,3.753,0.509
	c1.178,0.346,2.206,0.862,3.072,1.55c0.875,0.688,1.566,1.563,2.077,2.601c0.509,1.05,0.765,2.267,0.765,3.646
	c0,1.209-0.173,2.234-0.531,3.101c-0.043,0.102-0.086,0.199-0.13,0.302h1.507c0.145,0,0.265,0.158,0.265,0.354v1.42
	c0,0.199-0.12,0.358-0.265,0.358H73.188c-0.144,0-0.266-0.159-0.266-0.358v-1.42C72.922,170.273,73.044,170.115,73.188,170.115
	L73.188,170.115z M43.07,149.603h53.981c3.845,0,6.987,3.142,6.987,6.987v32.775c0,3.842-3.142,6.986-6.987,6.986H43.07
	c-3.843,0-6.989-3.145-6.989-6.986V156.59C36.081,152.744,39.227,149.603,43.07,149.603L43.07,149.603z"/>
</svg>
