<?xml version="1.0" encoding="utf-8"?>
<!DOCTYPE svg PUBLIC "-//W3C//DTD SVG 1.1//EN" "http://www.w3.org/Graphics/SVG/1.1/DTD/svg11.dtd">
<svg version="1.1" xmlns="http://www.w3.org/2000/svg" xmlns:xlink="http://www.w3.org/1999/xlink" x="0px" y="0px" width="216px" height="216px" viewBox="0 0 216 216" enable-background="new 0 0 216 216" xml:space="preserve">
<path fill-rule="evenodd" clip-rule="evenodd" d="M16.119,4.918h183.602c6.161,0,11.198,5.04,11.198,11.2
	v183.602c0,6.161-5.037,11.198-11.198,11.198H16.119c-6.161,0-11.2-5.037-11.2-11.198V16.119C4.918,9.958,9.958,4.918,16.119,4.918
	L16.119,4.918z M16.119-0.08h183.602c8.911,0,16.199,7.29,16.199,16.199v183.602c0,8.907-7.288,16.199-16.199,16.199H16.119
	c-8.909,0-16.199-7.292-16.199-16.199V16.119C-0.08,7.209,7.209-0.08,16.119-0.08L16.119-0.08z M23.258,33.648
	c0-3.156,2.785-5.896,5.87-5.896h117.395c3.129,0,5.872,2.635,5.872,5.896v25.371h7.963V33.255c0-6.883-6.429-12.58-13.835-12.58
	H28.706c-6.303,0-12.997,5.465-12.997,11.007v75.466c0,4.197,6.75,10.219,11.741,10.219h80.121v-16.51H28.287
	c-3.367,0-5.029-2.972-5.029-6.289V33.648L23.258,33.648z M84.889,108.722c0-1.111,1.75-2.36,2.936-2.36
	c1.631,0,2.936,1.081,2.936,2.753v0.393c0,1.508-1.212,2.751-2.517,2.751c-1.532,0-3.355-1.085-3.355-2.358V108.722L84.889,108.722z
	 M61.411,140.163c0,0.919,1.119,1.969,2.095,1.969h15.853h16.83h11.383v-6.681h-4.4c-0.895,0.166-1.4-0.31-1.709-1.181V124.05
	c-0.478-0.672-1.233-1.571-2.417-1.571h-2.856h-16.83h-2.856c-1.184,0-1.939,0.899-2.417,1.571v10.221
	c-0.309,0.871-0.814,1.347-1.709,1.181h-8.871c-0.73,0.455-2.095,1.27-2.095,2.352V140.163L61.411,140.163z M154.412,175.4h4.903
	c0.745,0,1.355,0.61,1.355,1.355v0.846c0,0.745-0.61,1.355-1.355,1.355h-4.903c-0.744,0-1.351-0.61-1.351-1.355v-0.846
	C153.062,176.011,153.668,175.4,154.412,175.4L154.412,175.4z M193.097,171.853v8.688c0,1.118-0.915,2.034-2.038,2.034h-68.454
	c-1.118,0-2.034-0.916-2.034-2.034v-8.688H193.097L193.097,171.853z M200.132,158.465v22.075c0,4.988-4.085,9.069-9.073,9.069
	h-68.454c-4.988,0-9.069-4.081-9.069-9.069V73.185c0-4.988,4.081-9.072,9.069-9.072h68.454c4.988,0,9.073,4.083,9.073,9.072V158.465
	L200.132,158.465z M193.097,151.845V87.442H120.57v79.674h72.526V151.845L193.097,151.845z M120.57,82.706h72.526v-9.521
	c0-1.121-0.915-2.037-2.038-2.037h-68.454c-1.118,0-2.034,0.916-2.034,2.037V82.706L120.57,82.706z M149.888,74.599h13.696
	c0.932,0,1.692,0.763,1.692,1.693v0.506c0,0.93-0.761,1.691-1.692,1.691h-13.696c-0.932,0-1.692-0.761-1.692-1.691v-0.506
	C148.195,75.361,148.956,74.599,149.888,74.599L149.888,74.599z"/>
</svg>
