<?xml version="1.0" encoding="utf-8"?>
<!DOCTYPE svg PUBLIC "-//W3C//DTD SVG 1.1//EN" "http://www.w3.org/Graphics/SVG/1.1/DTD/svg11.dtd">
<svg version="1.1" xmlns="http://www.w3.org/2000/svg" xmlns:xlink="http://www.w3.org/1999/xlink" x="0px" y="0px" width="216px" height="216px" viewBox="0 0 216 216" enable-background="new 0 0 216 216" xml:space="preserve">
<path fill-rule="evenodd" clip-rule="evenodd" d="M121.551,111.013c0.257,1.924,0.407,3.882,0.436,5.867
	c0.663,41.87-10.907,53.072-42.159,73.747c-9.338,13.029-10.75,13.965-20.992,0.582c-31.508-23.047-39.333-31.946-40.91-74.329
	c-0.08-2.571,0.051-5.095,0.37-7.561c13.821-4.26,20.756-14.559,21.517-26.743h48.024c3.791,0,4.077,8.925-0.659,8.925H47.358
	c-2.932,10.815-10.183,19.228-20.53,24.077c0,0.333,0.006,0.667,0.017,1.001c1.477,39.771,9.261,47.062,38.688,68.697l0.391,0.509
	c0.667,0.87,2.019,2.686,3.325,4.228c1.298-1.673,2.653-3.646,3.324-4.586l0.527-0.732c29.519-19.544,39.647-27.079,39.968-66.354
	C111.492,105.356,119.793,105.193,121.551,111.013L121.551,111.013z M154.498,133.025c10.579-4.036,19.096-19.909,21.83-32.926
	h-43.767C134.666,113.698,141.51,128.501,154.498,133.025L154.498,133.025z"/>
</svg>
