<?xml version="1.0" encoding="utf-8"?>
<!DOCTYPE svg PUBLIC "-//W3C//DTD SVG 1.1//EN" "http://www.w3.org/Graphics/SVG/1.1/DTD/svg11.dtd">
<svg version="1.1" xmlns="http://www.w3.org/2000/svg" xmlns:xlink="http://www.w3.org/1999/xlink" x="0px" y="0px" width="216px" height="216px" viewBox="0 0 216 216" enable-background="new 0 0 216 216" xml:space="preserve">
<path fill-rule="evenodd" clip-rule="evenodd" d="M152.313,54.17
	c-10.799-18.821-30.379-31.643-53.064-31.643c-22.629,0-42.169,12.758-52.984,31.506c-1.253,2.171-1.595,2.012,0.787,1.654
	c1.951-0.293,3.981-0.267,6.051,0.138c4.016,0.785,7.373,2.84,9.922,5.658c1.811,2.002,1.158,1.601,3.106-0.24
	c3.821-3.613,8.911-5.835,14.549-5.835c6.665,0,12.504,3.08,16.425,7.845c2.026,2.463,1.182,2.604,3.206,0.114
	c3.919-4.83,9.799-7.959,16.517-7.959c5.692,0,10.823,2.264,14.656,5.937c2.181,2.089,1.351,2.12,3.397-0.073
	c2.527-2.71,5.814-4.679,9.729-5.446c2.083-0.409,4.126-0.431,6.091-0.132C153.424,56.109,154.006,57.12,152.313,54.17
	L152.313,54.17z M32.47,69.329c7.88-31.034,34.792-53.898,66.779-53.898c31.987,0,58.899,22.864,66.781,53.898
	c1.111,2.376-4.947,4.285-6.197,1.622c-2.767-5.762-8.316-9.247-13.858-8.163c-5.425,1.062-9.208,6.185-9.729,12.384
	c-0.032,2.722-4.484,3.471-5.041,0.584c-0.932-7.477-7.016-13.251-14.376-13.251c-7.89,0-14.311,6.628-14.498,14.878
	c-0.073,2.602-7.19,2.785-7.153-0.01c-0.191-8.246-6.61-14.868-14.496-14.868c-7.328,0-13.389,5.719-14.364,13.145
	c-0.799,2.38-4.655,2.057-4.854-0.58c-0.558-6.155-4.328-11.227-9.723-12.283c-5.485-1.074-10.982,2.334-13.778,7.992
	C36.482,73.862,31.471,72.566,32.47,69.329L32.47,69.329z M94.517,129.579c-0.021-0.163-0.033-0.329-0.033-0.496V86.028
	c0-2.126,1.742-3.867,3.87-3.867h3.259c2.126,0,3.868,1.741,3.868,3.867v43.055c0,0.167-0.01,0.333-0.033,0.496h0.059v0.009
	c0,7.869-7.872,14.249-17.578,14.249c-8.936,0-16.317-5.407-17.432-12.41c-0.265-0.558-0.415-1.185-0.415-1.839v-16.329
	c0-2.373,1.941-4.315,4.315-4.315h3.029c2.374,0,4.315,1.942,4.315,4.315v16.32v0.009c0,2.767,2.771,5.013,6.189,5.013
	c3.416,0,6.185-2.246,6.185-5.013v-0.009H94.517L94.517,129.579z"/>
</svg>
