<?xml version="1.0" encoding="utf-8"?>
<!DOCTYPE svg PUBLIC "-//W3C//DTD SVG 1.1//EN" "http://www.w3.org/Graphics/SVG/1.1/DTD/svg11.dtd">
<svg version="1.1" xmlns="http://www.w3.org/2000/svg" xmlns:xlink="http://www.w3.org/1999/xlink" x="0px" y="0px" width="216px" height="216px" viewBox="0 0 216 216" enable-background="new 0 0 216 216" xml:space="preserve">
<path fill-rule="evenodd" clip-rule="evenodd" d="M157.054,198.732h-5.025h-38.677
	c-0.883,0-1.609-0.725-1.609-1.607v-4.606c0-0.887,0.727-1.611,1.609-1.611c2.556,0,5.107,0,7.662,0c1.091,0,0.961,0.09,0.961-0.996
	c0-22.205,10.132-41.228,24.499-49.105c-14.367-7.878-24.499-26.896-24.499-49.105c0-0.448,0.004-0.891,0.012-1.334h-8.635
	c-0.883,0-1.609-0.725-1.609-1.609V84.15c0-0.885,0.727-1.609,1.609-1.609h38.677h5.025h38.676c0.883,0,1.607,0.728,1.607,1.609
	v4.606c0,0.881-0.729,1.609-1.607,1.609c-2.462,0-4.924,0-7.386,0c-0.846-0.008-1.217,0.368-1.24,1.334
	c0,11.326-10.133,41.227-24.496,49.105c14.363,7.878,24.861,31.612,24.496,49.105c0.032,0.496,0.085,1.013,0.716,0.996h7.91
	c0.883,0,1.607,0.729,1.607,1.611v4.606c0,0.879-0.729,1.607-1.607,1.607H157.054L157.054,198.732z M153.574,145.005
	c-14.188,4.907-24.724,23.108-24.724,44.809c0,0.964-0.15,0.964,0.814,0.96l22.363,0.004l5.025,0.032h22.318
	c0.528,0,0.851-0.419,0.858-0.996c0.529-15.093-10.547-39.511-24.821-44.816C154.836,144.72,154.222,144.725,153.574,145.005
	L153.574,145.005z M153.574,135.874c-14.188-4.907-24.724-23.108-24.724-44.808c0-0.964-0.15-0.96,0.814-0.96
	c16.568,0,33.138-0.034,49.707-0.034c0.528,0,0.851,0.421,0.858,0.995c0.529,15.096-10.547,39.51-24.821,44.816
	C154.836,136.163,154.222,136.154,153.574,135.874L153.574,135.874z M16.119,4.918h183.602c6.161,0,11.198,5.04,11.198,11.2v183.602
	c0,6.161-5.037,11.198-11.198,11.198H16.119c-6.161,0-11.2-5.037-11.2-11.198V16.119C4.918,9.958,9.958,4.918,16.119,4.918
	L16.119,4.918z M16.119-0.08h183.602c8.911,0,16.199,7.29,16.199,16.199v183.602c0,8.907-7.288,16.199-16.199,16.199H16.119
	c-8.909,0-16.199-7.292-16.199-16.199V16.119C-0.08,7.209,7.209-0.08,16.119-0.08L16.119-0.08z"/>
</svg>
