<?xml version="1.0" encoding="utf-8"?>
<!DOCTYPE svg PUBLIC "-//W3C//DTD SVG 1.1//EN" "http://www.w3.org/Graphics/SVG/1.1/DTD/svg11.dtd">
<svg version="1.1" xmlns="http://www.w3.org/2000/svg" xmlns:xlink="http://www.w3.org/1999/xlink" x="0px" y="0px" width="216px" height="216px" viewBox="0 0 216 216" enable-background="new 0 0 216 216" xml:space="preserve">
<path fill-rule="evenodd" clip-rule="evenodd" d="M16.119-0.08h183.602
	c8.911,0,16.199,7.29,16.199,16.199v183.602c0,8.907-7.288,16.199-16.199,16.199H16.119c-8.909,0-16.199-7.292-16.199-16.199V16.119
	C-0.08,7.209,7.209-0.08,16.119-0.08L16.119-0.08z M16.119,4.918h183.602c6.161,0,11.198,5.04,11.198,11.2v183.602
	c0,6.161-5.037,11.198-11.198,11.198H16.119c-6.161,0-11.2-5.037-11.2-11.198V16.119C4.918,9.958,9.958,4.918,16.119,4.918
	L16.119,4.918z M46.457,173.016c7.133,0,5.835-6.803,5.835-13.729c0-6.404,0-12.813,0-19.218c0-12.813,0,3.234,0-9.579
	c0-12.813,0-23.305,0-36.12c0-6.407,0-12.813,0-19.22c0-6.561-1.208-13.729,5.493-13.729h7.939c-0.443-2.5-0.675-5.074-0.675-7.705
	c0-1.103,0.041-2.195,0.122-3.277h-6.7c-9.231,0-17.161,6.986-17.161,15.79v11.668h-4.806c-9.229,0-17.161,6.986-17.161,15.788
	v78.647c0,13.005,9.375,22.652,22.309,22.652h131.112c12.932,0,22.307-9.647,22.307-22.652V67.6
	c0-10.014-7.146-17.161-17.159-17.161h-25.338c0.077,1.082,0.122,2.175,0.122,3.277c0,2.628-0.231,5.205-0.676,7.705h26.579
	c3.101,0,5.489,2.391,5.489,5.491v107.134c0,5.692-5.681,9.952-12.012,9.952H42.339c-6.291,0-12.014-4.268-12.014-9.952V94.37
	c0-3.101,2.391-5.489,5.491-5.489h5.493v78.646C41.31,170.437,43.672,173.016,46.457,173.016L46.457,173.016z"/>
</svg>
