<?xml version="1.0" encoding="utf-8"?>
<!DOCTYPE svg PUBLIC "-//W3C//DTD SVG 1.1//EN" "http://www.w3.org/Graphics/SVG/1.1/DTD/svg11.dtd">
<svg version="1.1" xmlns="http://www.w3.org/2000/svg" xmlns:xlink="http://www.w3.org/1999/xlink" x="0px" y="0px" width="216px" height="216px" viewBox="0 0 216 216" enable-background="new 0 0 216 216" xml:space="preserve">
<path fill-rule="evenodd" clip-rule="evenodd" d="M63.274,138.796c0,1.993,1.086,3.296,2.747,3.296
	h104.338c1.66,0,2.746-1.303,2.746-3.296c0-2.454-1.388-3.292-3.435-3.292H66.709C64.662,135.504,63.274,136.342,63.274,138.796
	L63.274,138.796z M110.324,125.286c0,1.763,1.38,2.914,3.487,2.914h55.807c2.108,0,3.487-1.151,3.487-2.914
	c0-1.88-1.814-2.913-3.927-2.913h-54.932C112.14,122.373,110.324,123.406,110.324,125.286L110.324,125.286z M110.324,112.115
	c0,1.762,1.38,2.917,3.487,2.917h55.807c2.108,0,3.487-1.155,3.487-2.917c0-1.878-1.814-2.914-3.927-2.914h-54.496
	C112.082,109.201,110.324,109.946,110.324,112.115L110.324,112.115z M110.324,98.639c0,1.762,1.38,2.913,3.487,2.913h55.807
	c2.108,0,3.487-1.151,3.487-2.913c0-1.88-1.814-2.914-3.927-2.914h-54.932C112.14,95.725,110.324,96.759,110.324,98.639
	L110.324,98.639z"/>
</svg>
