<?xml version="1.0" encoding="utf-8"?>
<!DOCTYPE svg PUBLIC "-//W3C//DTD SVG 1.1//EN" "http://www.w3.org/Graphics/SVG/1.1/DTD/svg11.dtd">
<svg version="1.1" xmlns="http://www.w3.org/2000/svg" xmlns:xlink="http://www.w3.org/1999/xlink" x="0px" y="0px" width="216px" height="216px" viewBox="0 0 216 216" enable-background="new 0 0 216 216" xml:space="preserve">
<path fill-rule="evenodd" clip-rule="evenodd" d="M65.1,94.478h84.976v29.401H65.1V94.478L65.1,94.478z
	 M134.563,131.378h13.818c0.688,0,1.254,0.562,1.254,1.249v8.231c0,0.688-0.565,1.254-1.254,1.254h-13.818
	c-0.688,0-1.249-0.566-1.249-1.254v-8.231C133.314,131.939,133.876,131.378,134.563,131.378L134.563,131.378z M111.926,131.378
	h13.816c0.688,0,1.253,0.562,1.253,1.249v8.231c0,0.688-0.565,1.254-1.253,1.254h-13.816c-0.688,0-1.251-0.566-1.251-1.254v-8.231
	C110.675,131.939,111.238,131.378,111.926,131.378L111.926,131.378z M111.926,164.895h13.816c0.688,0,1.253,0.565,1.253,1.253v8.231
	c0,0.688-0.565,1.249-1.253,1.249h-13.816c-0.688,0-1.251-0.562-1.251-1.249v-8.231C110.675,165.46,111.238,164.895,111.926,164.895
	L111.926,164.895z M111.926,148.138h13.816c0.688,0,1.253,0.562,1.253,1.25v8.231c0,0.688-0.565,1.253-1.253,1.253h-13.816
	c-0.688,0-1.251-0.565-1.251-1.253v-8.231C110.675,148.699,111.238,148.138,111.926,148.138L111.926,148.138z M89.284,148.138h13.82
	c0.686,0,1.25,0.562,1.25,1.25v8.231c0,0.688-0.563,1.253-1.25,1.253h-13.82c-0.688,0-1.249-0.565-1.249-1.253v-8.231
	C88.035,148.699,88.596,148.138,89.284,148.138L89.284,148.138z M89.284,164.895h13.82c0.686,0,1.25,0.565,1.25,1.253v8.231
	c0,0.688-0.563,1.249-1.25,1.249h-13.82c-0.688,0-1.249-0.562-1.249-1.249v-8.231C88.035,165.46,88.596,164.895,89.284,164.895
	L89.284,164.895z M66.646,164.895h13.818c0.688,0,1.25,0.565,1.25,1.253v8.231c0,0.688-0.562,1.249-1.25,1.249H66.646
	c-0.688,0-1.251-0.562-1.251-1.249v-8.231C65.395,165.46,65.958,164.895,66.646,164.895L66.646,164.895z M66.646,148.138h13.818
	c0.688,0,1.25,0.562,1.25,1.25v8.231c0,0.688-0.562,1.253-1.25,1.253H66.646c-0.688,0-1.251-0.565-1.251-1.253v-8.231
	C65.395,148.699,65.958,148.138,66.646,148.138L66.646,148.138z M72.393,101.77h70.39v14.817h-70.39V101.77L72.393,101.77z"/>
</svg>
