<?xml version="1.0" encoding="utf-8"?>
<!DOCTYPE svg PUBLIC "-//W3C//DTD SVG 1.1//EN" "http://www.w3.org/Graphics/SVG/1.1/DTD/svg11.dtd">
<svg version="1.1" xmlns="http://www.w3.org/2000/svg" xmlns:xlink="http://www.w3.org/1999/xlink" x="0px" y="0px" width="216px" height="216px" viewBox="0 0 216 216" enable-background="new 0 0 216 216" xml:space="preserve">
<path fill-rule="evenodd" clip-rule="evenodd" d="M16.119,4.918h183.602c6.161,0,11.198,5.04,11.198,11.2
	v183.602c0,6.161-5.037,11.198-11.198,11.198H16.119c-6.161,0-11.2-5.037-11.2-11.198V16.119C4.918,9.958,9.958,4.918,16.119,4.918
	L16.119,4.918z M16.119-0.08h183.602c8.911,0,16.199,7.29,16.199,16.199v183.602c0,8.907-7.288,16.199-16.199,16.199H16.119
	c-8.909,0-16.199-7.292-16.199-16.199V16.119C-0.08,7.209,7.209-0.08,16.119-0.08L16.119-0.08z M66.646,131.378h13.818
	c0.688,0,1.25,0.562,1.25,1.249v8.231c0,0.688-0.562,1.254-1.25,1.254H66.646c-0.688,0-1.251-0.566-1.251-1.254v-8.231
	C65.395,131.939,65.958,131.378,66.646,131.378L66.646,131.378z M45.696,30.673h34.106v15.635l28.52-28.52l87.863,87.86h-12.017
	L171.71,93.19l0.415,75.382c0.098,17.465-14.286,31.755-31.755,31.755H75.685c-17.464,0-31.891-14.29-31.755-31.755l0.588-74.963
	l-12.041,12.04H20.462l25.232-25.212l0.002-1.249V30.673L45.696,30.673z M79.803,58.327L58.939,79.188l-5.306,5.308v84.076
	c0,12.109,9.943,22.055,22.052,22.055h64.685c12.113,0,22.055-9.945,22.055-22.055V83.906l-54.102-54.102L79.803,58.327
	L79.803,58.327z"/>
</svg>
