<?xml version="1.0" encoding="utf-8"?>
<!DOCTYPE svg PUBLIC "-//W3C//DTD SVG 1.1//EN" "http://www.w3.org/Graphics/SVG/1.1/DTD/svg11.dtd">
<svg version="1.1" xmlns="http://www.w3.org/2000/svg" xmlns:xlink="http://www.w3.org/1999/xlink" x="0px" y="0px" width="216px" height="216px" viewBox="0 0 216 216" enable-background="new 0 0 216 216" xml:space="preserve">
<path fill-rule="evenodd" clip-rule="evenodd" d="M198.932,23.781c0.569-0.267,1.489,1.025,1.106,1.526
	c-17.826,23.454-32.434,49.097-45.861,75.549c-0.415,0.81-2.25,0.734-2.734-0.037c-8.146-13.025-18.547-25.248-30.478-36.906
	c-0.772-0.757-0.622-2.387,0.033-3.25c2.059-2.708,4.695-4.034,6.563-5.212c1.868-1.176,3.288-0.734,4.082-0.104
	c6.051,4.793,11.417,10.026,17.383,14.925c0.517,0.425,1.554,0.321,2.006-0.173c12.797-13.987,24.658-28.917,39.359-40.261
	C193.153,27.707,195.77,25.264,198.932,23.781L198.932,23.781z"/>
</svg>
