<?xml version="1.0" encoding="utf-8"?>
<!DOCTYPE svg PUBLIC "-//W3C//DTD SVG 1.1//EN" "http://www.w3.org/Graphics/SVG/1.1/DTD/svg11.dtd">
<svg version="1.1" xmlns="http://www.w3.org/2000/svg" xmlns:xlink="http://www.w3.org/1999/xlink" x="0px" y="0px" width="216px" height="216px" viewBox="0 0 216 216" enable-background="new 0 0 216 216" xml:space="preserve">
<path id="_x33_" fill-rule="evenodd" clip-rule="evenodd" fill="#F58031" d="M198.932,23.781c0.569-0.267,1.489,1.025,1.106,1.526
	c-17.826,23.454-32.434,49.097-45.861,75.549c-0.415,0.81-2.25,0.734-2.734-0.037c-8.146-13.025-18.547-25.248-30.478-36.906
	c-0.772-0.757-0.622-2.387,0.033-3.25c2.059-2.708,4.695-4.034,6.563-5.212c1.868-1.176,3.288-0.734,4.082-0.104
	c6.051,4.793,11.417,10.026,17.383,14.925c0.517,0.425,1.554,0.321,2.006-0.173c12.797-13.987,24.658-28.917,39.359-40.261
	C193.153,27.707,195.77,25.264,198.932,23.781L198.932,23.781z"/>
<path id="_x32_" fill-rule="evenodd" clip-rule="evenodd" fill="#999557" d="M16.119,4.918h183.602c6.161,0,11.198,5.04,11.198,11.2
	v183.602c0,6.161-5.037,11.198-11.198,11.198H16.119c-6.161,0-11.2-5.037-11.2-11.198V16.119C4.918,9.958,9.958,4.918,16.119,4.918
	L16.119,4.918z M16.119-0.08h183.602c8.911,0,16.199,7.29,16.199,16.199v183.602c0,8.907-7.288,16.199-16.199,16.199H16.119
	c-8.909,0-16.199-7.292-16.199-16.199V16.119C-0.08,7.209,7.209-0.08,16.119-0.08L16.119-0.08z M169.313,34.743H62.723
	c-8.028,0-14.535,6.504-14.535,14.532v9.692h-4.846c-8.026,0-14.535,6.504-14.535,14.533v96.903
	c0,10.702,8.677,19.381,19.381,19.381h116.278c10.702,0,19.381-8.679,19.381-19.381V61.375c-3.336,5.455-6.56,10.982-9.688,16.561
	v92.468l0,0c0,5.339-4.35,9.692-9.692,9.692H48.188c-5.34,0-9.688-4.354-9.688-9.692V73.5c0-2.671,2.168-4.846,4.842-4.846h4.846
	v96.908c0,2.678,2.167,4.842,4.846,4.842c2.678,0,4.844-2.164,4.844-4.842V49.275c0-2.673,2.173-4.844,4.844-4.844h102.114
	c2.856-3.082,5.771-6.111,8.781-9.041C172.259,34.968,170.811,34.743,169.313,34.743L169.313,34.743z"/>
<path id="_x31_" fill-rule="evenodd" clip-rule="evenodd" fill="#7E5628" d="M120.574,144.297h38.001v9.985h-38.001V144.297
	L120.574,144.297z M73.423,144.297h38v9.985h-38V144.297L73.423,144.297z M73.423,118.223h84.871v9.985H73.423V118.223
	L73.423,118.223z M73.423,92.429h38v9.985h-38V92.429L73.423,92.429z"/>
</svg>
