<?xml version="1.0" encoding="utf-8"?>
<!DOCTYPE svg PUBLIC "-//W3C//DTD SVG 1.1//EN" "http://www.w3.org/Graphics/SVG/1.1/DTD/svg11.dtd">
<svg version="1.1" xmlns="http://www.w3.org/2000/svg" xmlns:xlink="http://www.w3.org/1999/xlink" x="0px" y="0px" width="216px" height="216px" viewBox="0 0 216 216" enable-background="new 0 0 216 216" xml:space="preserve">
<path fill-rule="evenodd" clip-rule="evenodd" d="M16.119,4.918h183.602c6.161,0,11.198,5.04,11.198,11.2
	v183.602c0,6.161-5.037,11.198-11.198,11.198H16.119c-6.161,0-11.2-5.037-11.2-11.198V16.119C4.918,9.958,9.958,4.918,16.119,4.918
	L16.119,4.918z M16.119-0.08h183.602c8.911,0,16.199,7.29,16.199,16.199v183.602c0,8.907-7.288,16.199-16.199,16.199H16.119
	c-8.909,0-16.199-7.292-16.199-16.199V16.119C-0.08,7.209,7.209-0.08,16.119-0.08L16.119-0.08z M169.313,34.743H62.723
	c-8.028,0-14.535,6.504-14.535,14.532v9.692h-4.846c-8.026,0-14.535,6.504-14.535,14.533v96.903
	c0,10.702,8.677,19.381,19.381,19.381h116.278c10.702,0,19.381-8.679,19.381-19.381V61.375c-3.336,5.455-6.56,10.982-9.688,16.561
	v92.468l0,0c0,5.339-4.35,9.692-9.692,9.692H48.188c-5.34,0-9.688-4.354-9.688-9.692V73.5c0-2.671,2.168-4.846,4.842-4.846h4.846
	v96.908c0,2.678,2.167,4.842,4.846,4.842c2.678,0,4.844-2.164,4.844-4.842V49.275c0-2.673,2.173-4.844,4.844-4.844h102.114
	c2.856-3.082,5.771-6.111,8.781-9.041C172.259,34.968,170.811,34.743,169.313,34.743L169.313,34.743z"/>
</svg>
