<?xml version="1.0" encoding="utf-8"?>
<!DOCTYPE svg PUBLIC "-//W3C//DTD SVG 1.1//EN" "http://www.w3.org/Graphics/SVG/1.1/DTD/svg11.dtd">
<svg version="1.1" xmlns="http://www.w3.org/2000/svg" xmlns:xlink="http://www.w3.org/1999/xlink" x="0px" y="0px" width="612.283px" height="612.283px" viewBox="0 0 612.283 612.283" enable-background="new 0 0 612.283 612.283" xml:space="preserve">
<path fill-rule="evenodd" clip-rule="evenodd" d="M351.851,325.795h32.688v24.339h-32.688V325.795L351.851,325.795z M295.88,216.622
	h100.141c6.495,0,11.819,5.319,11.819,11.819v37.555c0,6.5-5.324,11.819-11.819,11.819h-30.594v7.648h39.556
	c7.684,0,13.983,6.291,13.983,13.979v98.677h39.645c9.938,0,18.065,8.137,18.065,18.083v45.891c0,9.947-8.127,18.084-18.065,18.084
	H148.455c-9.947,0-18.079-8.137-18.079-18.084v-45.891c0-9.946,8.132-18.083,18.079-18.083h43.114v-98.677
	c0-7.688,6.291-13.979,13.979-13.979h133.437v-7.648H295.88c-6.504,0-11.823-5.319-11.823-11.819V228.44
	C284.057,221.941,289.376,216.622,295.88,216.622L295.88,216.622z M302.086,234.651h87.723v25.137h-87.723V234.651L302.086,234.651z
	 M292.748,325.795h32.679v24.339h-32.679V325.795L292.748,325.795z M230.167,325.795h32.684v24.339h-32.684V325.795L230.167,325.795
	z M230.167,360.214h32.684v24.338h-32.684V360.214L230.167,360.214z M292.748,360.214h32.679v24.338h-32.679V360.214
	L292.748,360.214z M351.851,360.214h32.688v24.338h-32.688V360.214L351.851,360.214z M212.172,398.119h186.191V306.07H212.172
	V398.119L212.172,398.119z M274.323,426.628h74.404v29.21h-74.404V426.628L274.323,426.628z M145.931,377.95V270.219
	c0-88.229,66.534-161.076,156.156-161.076c88.948,0,161.067,72.133,161.067,161.076V377.95h-20.603V270.219
	c0-77.567-62.892-140.473-140.464-140.473c-77.567,0-135.553,62.918-135.553,140.473V377.95H145.931L145.931,377.95z M305.268,3.803
	c166.901,0,302.268,135.357,302.268,302.268S472.169,608.338,305.268,608.338C138.357,608.338,3,472.98,3,306.07
	S138.357,3.803,305.268,3.803L305.268,3.803z M305.268,20.546c157.655,0,285.533,127.86,285.533,285.524
	S462.923,591.595,305.268,591.595c-157.664,0-285.524-127.86-285.524-285.524S147.604,20.546,305.268,20.546L305.268,20.546z"/>
</svg>
