<?xml version="1.0" encoding="utf-8"?>
<!DOCTYPE svg PUBLIC "-//W3C//DTD SVG 1.1//EN" "http://www.w3.org/Graphics/SVG/1.1/DTD/svg11.dtd">
<svg version="1.1" xmlns="http://www.w3.org/2000/svg" xmlns:xlink="http://www.w3.org/1999/xlink" x="0px" y="0px" width="612.283px" height="612.283px" viewBox="0 0 612.283 612.283" enable-background="new 0 0 612.283 612.283" xml:space="preserve">
<path fill-rule="evenodd" clip-rule="evenodd" d="M305.267,5.803c165.801,0,300.263,134.462,300.263,300.268
	c0,165.797-134.462,300.268-300.263,300.268S5.004,471.867,5.004,306.07C5.004,140.265,139.466,5.803,305.267,5.803L305.267,5.803z
	 M305.267,22.431c156.617,0,283.63,127.019,283.63,283.64s-127.014,283.635-283.63,283.635
	c-156.621,0-283.635-127.014-283.635-283.635S148.646,22.431,305.267,22.431L305.267,22.431z M281.252,307.273
	c11.635-0.194,23.248-0.414,34.754-0.608c11.477-0.189,22.9-0.379,34.262-0.595c0.644,7.122,1.322,14.473,2.036,22.142
	c-10.842,0.247-21.798,0.484-32.719,0.723c-10.991,0.229-22.089,0.502-33.204,0.749c2.64,4.716,3.865,9.625,3.526,14.658
	c-0.696,10.357-5.086,22.027-13.442,35.16c-8.938,14.05-23.596,29.502-44.825,46.777c16.263-4.434,30.63-6.813,43.252-7.333
	c15.994-0.67,33.886,0.67,53.833,3.878c33.247,5.359,55.82,7.801,67.5,7.263c13.935-0.643,30.929-6.099,50.117-15.971
	c8.93,13.054,18.439,26.804,28.479,41.295c-16.042,8.215-28.981,13.936-38.704,16.835c-9.748,2.918-19.876,4.628-30.25,5.209
	c-8.709,0.494-17.726,0.273-26.91-0.784c-5.765-0.661-19.55-3.737-41.339-8.797c-21.524-4.997-35.187-7.906-41.432-8.673
	c-9.665-1.199-19.431-1.296-29.303-0.803c-15.209,0.768-31.93,4.037-50.436,9.907c-18.916,5.994-37.28,13.988-55.12,23.949
	c-2.569-17.85-4.962-34.693-7.153-50.551c22.935-10.269,42.851-23.815,59.744-40.008c15.627-14.976,24.786-31.731,28.082-49.703
	c1.331-7.229,1.208-14.314-0.211-21.313c-15.782,0.335-31.736,0.705-47.765,1.075c2.521-8.012,4.94-15.707,7.245-23.08
	c11.842-0.225,23.614-0.428,35.363-0.621c-2.521-10.516-3.87-17.805-4.125-22.248c-0.247-4.363,0.22-8.515,1.208-12.485
	c3.931-15.791,16.412-27.188,36.853-34.869c7.84-2.949,16.253-5.095,25.204-6.51c8.828-1.393,18.294-2.124,28.449-2.124
	c10.365,0,19.894,0.78,28.566,2.248c8.735,1.485,16.791,3.702,24.151,6.761c15.169,6.311,26.17,15.619,33.08,28.373
	c-10.965,1.12-22.054,2.243-33.256,3.38c-3.482-8.885-10.216-15.544-19.93-20.189c-9.563-4.57-20.449-6.796-32.93-6.761
	c-13.425,0.031-24.751,2.45-34.165,7.312c-9.837,5.082-15.354,11.326-16.346,18.955
	C272.244,278.737,274.748,290.967,281.252,307.273L281.252,307.273z M74.337,352.328c13.283-25.544,25.91-49.766,37.853-72.67
	c-10.872,0.97-21.489,1.917-31.789,2.852c-10.075,0.908-19.89,1.812-29.449,2.693c5.223-8.814,10.366-17.448,15.381-25.888
	c9.445-1.168,19.145-2.336,29.061-3.543c10.141-1.229,20.559-2.463,31.273-3.746c4.725-9.043,9.33-17.871,13.918-26.522
	c-10.507,1.538-20.758,3.05-30.762,4.53c-9.762,1.45-19.294,2.878-28.628,4.275c4.945-8.272,9.771-16.368,14.521-24.332
	c15.227-2.662,31.022-5.412,47.443-8.246c0.661-17.298,1.3-33.375,1.939-48.377c0.595-14.023,1.128-27.192,1.666-39.607
	c8.188-2.164,16.487-4.372,24.944-6.615c0.057,9.048,0.128,18.497,0.203,28.373c0.08,10.388,0.256,21.304,0.339,32.771
	c0.058,8.224-0.383,15.711-1.384,22.45c5.381-6.293,14.068-15.879,26.134-28.717c13.57-14.438,26.91-28.523,39.951-42.331
	c12.758-13.517,25.271-26.791,37.513-39.81c11.388-3.023,23.05-6.113,34.984-9.277c-17.84,18.995-36.253,38.487-55.243,58.549
	c-19.528,20.634-39.691,41.956-60.427,63.974c19.18-3.23,39.118-6.544,59.977-9.978c-3.711,9.07-7.492,18.369-11.371,27.884
	c-13.036,1.815-25.747,3.592-38.064,5.337c-12.014,1.701-23.71,3.376-35.107,5.016c-4.398,8.854-8.858,17.941-13.411,27.218
	c11.63-1.34,23.587-2.724,35.834-4.125c12.626-1.437,25.597-2.926,38.963-4.412c-3.997,9.894-8.096,20.048-12.3,30.471
	c-13.68,1.141-26.923,2.252-39.827,3.354c-12.521,1.067-24.729,2.129-36.558,3.156c-11.52,23.64-23.697,48.717-36.495,75.221
	C94.795,352.274,84.425,352.301,74.337,352.328L74.337,352.328z M408.998,136.351c-2.855,0.317-5.095,0.604-6.637,0.881
	c-7.061,1.274-12.561,3.791-16.598,7.607c-4.107,3.887-5.368,9.109-3.755,15.817c1.64,6.844,5.896,14.698,12.843,23.534
	c7.571,9.638,15.839,17.783,24.662,24.235c9.105,6.655,18.184,11.124,27.174,13.477c-7.342-16.677-14.226-32.243-20.643-46.822
	C420.024,161.401,414.34,148.506,408.998,136.351L408.998,136.351z M426.274,137.938c5.94,12.283,12.233,25.28,18.933,39.14
	c7.14,14.742,14.764,30.506,22.917,47.346c4.002,0.022,7.352-0.304,10.154-0.943c10.33-2.362,16.43-7.298,18.36-14.671
	c1.851-7.083-1.155-15.562-8.753-25.178c8.832-0.987,17.611-1.974,26.382-2.935c11.026,13.979,15.195,26.703,12.11,37.897
	c-3.253,11.789-13.38,19.92-30.488,24.015c-5.068,1.216-10.921,1.838-17.646,1.921c9.607,20.321,19.991,42.26,31.265,65.993
	c-8.013-0.026-15.98-0.079-23.958-0.172c-10.595-23.878-20.387-45.918-29.396-66.336c-16.095-2.124-32.419-8.039-48.522-17.492
	c-15.513-9.11-28.629-21.269-39.171-35.949c-9.167-12.776-13.82-23.706-14.411-33.014c-0.564-8.938,2.891-16.095,10.26-21.622
	c7.131-5.359,15.769-8.88,25.984-10.608c3.023-0.511,7.396-0.992,13.143-1.446c-4.839-10.925-9.423-21.265-13.725-31.132
	c4.937,0.11,9.917,0.198,14.879,0.286c4.751,9.828,9.767,20.167,15.09,31.097c10.384,0.908,19.727,2.917,28.162,6.17
	c8.523,3.288,16.968,7.933,25.358,13.997c-6.54,2.168-13.168,4.407-19.876,6.628C444.449,144.579,435.459,140.278,426.274,137.938
	L426.274,137.938z"/>
</svg>
