<?xml version="1.0" encoding="utf-8"?>
<!DOCTYPE svg PUBLIC "-//W3C//DTD SVG 1.1//EN" "http://www.w3.org/Graphics/SVG/1.1/DTD/svg11.dtd">
<svg version="1.1" xmlns="http://www.w3.org/2000/svg" xmlns:xlink="http://www.w3.org/1999/xlink" x="0px" y="0px" width="612.283px" height="612.283px" viewBox="0 0 612.283 612.283" enable-background="new 0 0 612.283 612.283" xml:space="preserve">
<path fill-rule="evenodd" clip-rule="evenodd" d="M271.232,448.647h229.015V327.198L271.232,448.647L271.232,448.647z
	 M324.577,292.849c19.447,48.887-0.469,105.69-47.95,131.168c-51.067,27.416-114.711,8.216-142.122-42.847
	c-12.205-22.746-15.163-47.978-10.192-71.396c4.979-23.413,17.891-45.022,37.453-60.495c27.389-21.663,36.356,15.455,18.006,32.646
	c-21.154,19.841-27.358,54.017-12.708,81.768c17.688,33.526,59,45.527,92.093,27.77c30.55-16.396,43.506-52.814,31.329-84.347
	c-0.796-2.065-1.68-4.705-1.486-7.513C289.8,287.945,317.184,274.295,324.577,292.849L324.577,292.849z M388.039,354.224
	c8.543-4.403,17.086-8.816,25.638-13.229c17.095-12.001-4.563-43.484-17.404-33.721l-9.321,4.811
	c-11.851-22.967-23.701-45.934-35.551-68.896c-5.041-7.349-7.226-17.926-15.123-22.052c-7.27-3.798-17.236-2.339-24.594,1.292
	l-64.099,31.638c-9.909-19.2-19.819-38.399-29.728-57.599c-13.982-27.084-43.184-4.771-32.058,16.776
	c12.041,23.334,24.085,46.664,36.126,69.993c11.793,22.861,8.291,22.499,31.196,10.674l66.124-34.127l40.504,78.46
	C363.967,350.536,375.561,360.22,388.039,354.224L388.039,354.224z M167.134,120.738c16.768,0,30.365,13.597,30.365,30.365
	c0,16.759-13.597,30.36-30.365,30.36c-16.763,0-30.36-13.602-30.36-30.36C136.773,134.335,150.371,120.738,167.134,120.738
	L167.134,120.738z M305.267,4.803c166.353,0,301.263,134.91,301.263,301.268c0,166.357-134.91,301.268-301.263,301.268
	c-166.354,0-301.263-134.91-301.263-301.268C4.004,139.712,138.914,4.803,305.267,4.803L305.267,4.803z M305.267,21.491
	c157.138,0,284.576,127.437,284.576,284.58S462.405,590.65,305.267,590.65c-157.143,0-284.58-127.438-284.58-284.58
	S148.125,21.491,305.267,21.491L305.267,21.491z"/>
</svg>
