<?xml version="1.0" encoding="utf-8"?>
<!DOCTYPE svg PUBLIC "-//W3C//DTD SVG 1.1//EN" "http://www.w3.org/Graphics/SVG/1.1/DTD/svg11.dtd">
<svg version="1.1" xmlns="http://www.w3.org/2000/svg" xmlns:xlink="http://www.w3.org/1999/xlink" x="0px" y="0px" width="612.283px" height="612.283px" viewBox="0 0 612.283 612.283" enable-background="new 0 0 612.283 612.283" xml:space="preserve">
<path fill-rule="evenodd" clip-rule="evenodd" d="M305.263,4.803c166.355,0,301.276,134.912,301.276,301.267
	c0,166.356-134.921,301.267-301.276,301.267c-166.355,0-301.267-134.911-301.267-301.267C3.996,139.714,138.908,4.803,305.263,4.803
	L305.263,4.803z M305.263,21.486c157.14,0,284.587,127.438,284.587,284.583c0,157.149-127.447,284.587-284.587,284.587
	c-157.145,0-284.583-127.438-284.583-284.587C20.68,148.925,148.118,21.486,305.263,21.486L305.263,21.486z"/>
<path fill-rule="evenodd" clip-rule="evenodd" d="M290.512,230.323v58.802h22.888c16.507,0,27.562-1.057,33.115-3.232
	c5.545-2.175,9.896-5.554,13.08-10.188c3.14-4.634,4.731-9.989,4.731-16.122c0-7.535-2.22-13.761-6.659-18.687
	c-4.396-4.873-10.038-7.963-16.804-9.167c-5.022-0.968-15.061-1.406-30.121-1.406H290.512L290.512,230.323z M248.659,402.577
	V195.227h67.151c25.435,0,42.052,1.065,49.772,3.14c11.877,3.091,21.87,9.852,29.883,20.279s12.019,23.896,12.019,40.354
	c0,12.748-2.316,23.467-6.951,32.107c-4.634,8.694-10.471,15.495-17.616,20.469c-7.102,4.917-14.345,8.207-21.677,9.799
	c-9.993,1.98-24.479,2.998-43.449,2.998h-27.278v78.205H248.659L248.659,402.577z M174.026,153.67h282.753
	c1.45,0,2.644,1.189,2.644,2.644v282.752c0,1.45-1.193,2.645-2.644,2.645H174.026c-1.455,0-2.649-1.194-2.649-2.645V156.314
	C171.377,154.859,172.571,153.67,174.026,153.67L174.026,153.67z M174.026,132.971h282.753c12.841,0,23.338,10.507,23.338,23.348
	v282.748c0,12.842-10.497,23.348-23.338,23.348H174.026c-12.841,0-23.348-10.506-23.348-23.348V156.318
	C150.679,143.478,161.185,132.971,174.026,132.971L174.026,132.971z"/>
</svg>
