<?xml version="1.0" encoding="utf-8"?>
<!DOCTYPE svg PUBLIC "-//W3C//DTD SVG 1.1//EN" "http://www.w3.org/Graphics/SVG/1.1/DTD/svg11.dtd">
<svg version="1.1" id="Layer_1" xmlns="http://www.w3.org/2000/svg" xmlns:xlink="http://www.w3.org/1999/xlink" x="0px" y="0px" width="216px" height="216px" viewBox="0 0 216 216" enable-background="new 0 0 216 216" xml:space="preserve">
<g>
	<path fill-rule="evenodd" clip-rule="evenodd" d="M104.641,28.706C54.363,30.042,14,71.23,14,121.829
		c0,51.443,41.719,93.162,93.161,93.162s93.161-41.719,93.161-93.162c0-34.965-19.273-65.437-47.771-81.371l4.535,14.894
		c1.518,3.259,0.973,6.202-2.113,6.446l-14.484,5.062c18.553,11.274,30.949,31.678,30.949,54.969
		c0,35.493-28.783,64.277-64.276,64.277c-35.493,0-64.284-28.775-64.276-64.277c0.007-33.166,26.373-61.713,57.611-64.155
		l4.352-0.021L93.292,90.138l42.243-37.257c7.16-6.315,7.041-6.297,0.139-13.925c-7.117-7.867-33.916-30.356-41.177-37.153
		L104.641,28.706L104.641,28.706z"/>
</g>

</svg>
