<?xml version="1.0" encoding="iso-8859-1"?>
<!-- Generator: Adobe Illustrator 12.0.0, SVG Export Plug-In . SVG Version: 6.00 Build 51448)  -->
<!DOCTYPE svg PUBLIC "-//W3C//DTD SVG 1.1//EN" "http://www.w3.org/Graphics/SVG/1.1/DTD/svg11.dtd" [
	<!ENTITY ns_svg "http://www.w3.org/2000/svg">
	<!ENTITY ns_xlink "http://www.w3.org/1999/xlink">
]>
<svg  version="1.1" id="Layer_1" xmlns="&ns_svg;" xmlns:xlink="&ns_xlink;" width="122.684" height="122.063"
	 viewBox="0 0 122.684 122.063" overflow="visible" enable-background="new 0 0 122.684 122.063" xml:space="preserve">
<path fill-rule="evenodd" clip-rule="evenodd" fill="#FFFFFF" d="M0,114.303v7.761h122.684v-7.761H0L0,114.303z M8.017,109.941
	h6.444V40.999l-6.444,4.054V109.941L8.017,109.941z M18.763,109.941h6.445V34.238l-6.445,4.054V109.941L18.763,109.941z
	 M110.453,109.941h6.445V45.908l-6.445-4.081V109.941L110.453,109.941z M99.359,109.941h6.445V38.885l-6.445-4.081V109.941
	L99.359,109.941z M0.82,38.593l2.968,6.285L61.959,8.285l57.921,36.671l2.514-6.402L61.638,0L0.82,38.593L0.82,38.593z
	 M53.164,71.987h7.236l0.205-0.088c0.558-0.233,1.053-0.489,1.491-0.763c0.438-0.273,0.791-0.587,1.053-0.934
	c0.262-0.353,0.393-0.769,0.393-1.246c0-0.318-0.063-0.626-0.176-0.916c-0.119-0.291-0.297-0.536-0.536-0.74
	c-0.239-0.205-0.535-0.37-0.894-0.483c-0.353-0.12-0.769-0.177-1.246-0.177c-0.615,0-1.173,0.074-1.685,0.228
	c-0.513,0.148-0.962,0.313-1.349,0.501c-0.393,0.182-0.717,0.353-0.984,0.506c-0.268,0.154-0.461,0.233-0.586,0.233
	c-0.12,0-0.216-0.034-0.29-0.103c-0.074-0.063-0.131-0.17-0.165-0.313c-0.04-0.147-0.068-0.33-0.085-0.552
	c-0.017-0.223-0.023-0.495-0.023-0.814c0-0.29,0.006-0.535,0.011-0.729c0.012-0.193,0.035-0.353,0.063-0.483
	c0.028-0.125,0.057-0.228,0.097-0.308c0.04-0.079,0.114-0.171,0.228-0.284c0.108-0.108,0.336-0.251,0.683-0.416
	s0.74-0.318,1.184-0.449c0.444-0.137,0.922-0.239,1.434-0.318c0.513-0.08,1.025-0.114,1.531-0.114c0.99,0,1.93,0.125,2.812,0.381
	c0.881,0.257,1.65,0.644,2.299,1.161c0.654,0.513,1.172,1.167,1.555,1.947c0.381,0.785,0.574,1.695,0.574,2.726
	c0,0.905-0.131,1.674-0.398,2.322c-0.031,0.076-0.064,0.151-0.1,0.225h1.129c0.109,0,0.199,0.12,0.199,0.267v1.063
	c0,0.146-0.09,0.267-0.199,0.267H53.164c-0.108,0-0.198-0.12-0.198-0.267v-1.063C52.966,72.107,53.055,71.987,53.164,71.987
	L53.164,71.987z M54.27,78.712c0,1.133,0.21,2.128,0.632,2.987c0.421,0.854,0.996,1.571,1.719,2.141
	c0.723,0.574,1.565,1.001,2.533,1.292c0.967,0.29,2.003,0.432,3.102,0.432c0.745,0,1.44-0.057,2.077-0.182
	c0.637-0.119,1.201-0.268,1.691-0.438c0.488-0.176,0.898-0.353,1.229-0.546c0.324-0.188,0.563-0.353,0.705-0.501
	c0.148-0.143,0.25-0.353,0.309-0.62c0.063-0.273,0.09-0.666,0.09-1.179c0-0.347-0.012-0.631-0.027-0.864
	c-0.023-0.233-0.063-0.427-0.109-0.569c-0.051-0.143-0.119-0.245-0.205-0.308c-0.078-0.063-0.176-0.091-0.289-0.091
	c-0.154,0-0.375,0.091-0.66,0.273c-0.279,0.182-0.643,0.387-1.094,0.608c-0.443,0.222-0.973,0.427-1.588,0.609
	c-0.619,0.182-1.33,0.272-2.145,0.272c-0.535,0-1.013-0.063-1.435-0.188c-0.421-0.131-0.779-0.313-1.075-0.546
	c-0.291-0.233-0.518-0.519-0.671-0.865c-0.16-0.348-0.233-0.729-0.233-1.149c0-0.49,0.13-0.911,0.398-1.259
	c0.268-0.353,0.615-0.665,1.042-0.933c0.281-0.18,0.59-0.353,0.922-0.518h7.438c0.109,0,0.199-0.12,0.199-0.267v-1.063
	c0-0.146-0.09-0.267-0.199-0.267H53.164c-0.109,0-0.198,0.12-0.198,0.267v1.063c0,0.146,0.089,0.267,0.198,0.267h1.457
	C54.385,77.188,54.27,77.899,54.27,78.712L54.27,78.712z M61.393,89.98c-8.448,0-15.299-6.852-15.299-15.299
	s6.851-15.298,15.299-15.298c8.447,0,15.298,6.851,15.298,15.298S69.84,89.98,61.393,89.98L61.393,89.98z M57.64,32.342h-0.936
	c-1.373,0-2.885-2.607-4.365-2.607h-0.936c-2.9,0-4.054,1.932-4.054,5.051c0,4.907,3.912,8.687,4.99,13.522
	c0.755,0,1.479-0.331,2.088-0.587c0.665-0.28,1.617-0.245,2.311-0.355c1.447-0.23,3.419-0.361,4.956-0.361l0.166-0.117l8.112,0.769
	l-0.014,0.163c0.658-2.953,7.172-4.369,7.172-8.798v-2.118c0-1.308-1.787-2.118-3.119-2.118h-0.623
	c-2.354,0-2.227-0.155-2.613,1.505c-0.229,0.986-0.816,2.372-1.281,3.059c-0.832,1.228-2.996,3.536-4.525,3.908
	c1.746-2.723,3.586-5.012,3.586-9.613c0-1.899-2.953-4.073-4.832-4.073h-1.092C60.32,29.572,59.198,32.342,57.64,32.342
	L57.64,32.342z M34.876,93.438c0,8.347,17.844,9.124,26.817,9.124h4.522c5.646,0,9.545-0.995,14.279-1.86
	c3.918-0.715,9.264-2.639,9.264-7.101c0-3.043-0.648-5.391-1.559-7.496c-0.656-1.521-2.475-4.643-2.775-6.062
	c-0.533-2.519-0.285-5.577-0.717-8.209c-0.498-3.027-0.691-4.764-1.518-7.377c-2.9-9.182-9.193-14.032-20.873-14.032
	c-11.728,0-17.937,4.828-20.873,14.033c-0.799,2.506-1.035,4.495-1.456,7.438c-0.283,1.97-0.339,6.478-0.774,8.152
	C38.058,84.497,34.876,86.647,34.876,93.438L34.876,93.438z M47.962,49.022c-0.071-0.265-0.155-0.526-0.248-0.784
	c-0.282-0.788-0.647-1.551-1.023-2.294c-1.87-3.698-3.751-6.799-3.751-11.158c0-5.482,2.919-9.658,8.463-9.658h0.936
	c1.958,0,3.411,0.95,4.833,2.185c0.215-0.199,0.432-0.396,0.652-0.568c1.423-1.113,3.006-1.78,4.805-1.78h1.092
	c3.111,0,6.662,2.205,8.311,5.221c0.436-0.013,0.887-0.008,1.355-0.008h0.623c3.646,0,7.529,2.563,7.529,6.726v2.118
	c0,1.316-0.281,2.592-0.824,3.779c-0.92,2.011-2.432,3.459-4.129,4.747c-0.268,0.204-0.719,0.512-1.18,0.842
	c5.514,2.596,9.65,7.283,11.971,14.625c0.863,2.73,1.213,5.229,1.676,8.041c0.229,1.396,0.301,2.806,0.359,4.219
	c0.049,1.188,0.066,2.556,0.307,3.722c0.189,0.625,0.676,1.529,0.969,2.11c0.516,1.022,1.076,2.053,1.531,3.104
	c1.311,3.035,1.949,6.056,1.949,9.393c0,7.326-7.045,10.567-12.914,11.64c-5.193,0.948-9.668,1.929-15.039,1.929h-4.522
	c-9.022,0-31.227-0.376-31.227-13.731c0-5.134,1.265-7.793,3.474-12.111c0.408-0.797,0.79-1.606,1.018-2.482
	c0.214-0.88,0.257-2.396,0.317-3.323c0.091-1.419,0.15-2.903,0.352-4.307c0.41-2.858,0.754-5.454,1.634-8.213
	C39.423,56.222,43.09,51.713,47.962,49.022L47.962,49.022z"/>
</svg>
