<?xml version="1.0" encoding="utf-8"?>
<!DOCTYPE svg PUBLIC "-//W3C//DTD SVG 1.1//EN" "http://www.w3.org/Graphics/SVG/1.1/DTD/svg11.dtd" [
	<!ENTITY ns_extend "http://ns.adobe.com/Extensibility/1.0/">
	<!ENTITY ns_ai "http://ns.adobe.com/AdobeIllustrator/10.0/">
	<!ENTITY ns_graphs "http://ns.adobe.com/Graphs/1.0/">
	<!ENTITY ns_vars "http://ns.adobe.com/Variables/1.0/">
	<!ENTITY ns_imrep "http://ns.adobe.com/ImageReplacement/1.0/">
	<!ENTITY ns_sfw "http://ns.adobe.com/SaveForWeb/1.0/">
	<!ENTITY ns_custom "http://ns.adobe.com/GenericCustomNamespace/1.0/">
	<!ENTITY ns_adobe_xpath "http://ns.adobe.com/XPath/1.0/">
]>
<svg version="1.1" id="Layer_1" xmlns:x="&ns_extend;" xmlns:i="&ns_ai;" xmlns:graph="&ns_graphs;"
	 xmlns="http://www.w3.org/2000/svg" xmlns:xlink="http://www.w3.org/1999/xlink" x="0px" y="0px" width="216px" height="216px" viewBox="0 0 216 216" enable-background="new 0 0 216 216" xml:space="preserve">
<metadata>
	<sfw  xmlns="&ns_sfw;">
		<slices></slices>
		<sliceSourceBounds  height="203.619" width="206.502" y="45.381" x="32" bottomLeftOrigin="true"></sliceSourceBounds>
	</sfw>
</metadata>
<g>
	<path d="M190.652,24.892h-27.575V12.167c0-3.517-2.85-6.364-6.363-6.364s-6.363,2.847-6.363,6.364v12.725h-38.177
		V12.167c0-3.517-2.851-6.364-6.364-6.364c-3.514,0-6.363,2.847-6.363,6.364v12.725H61.268V12.167c0-3.517-2.848-6.364-6.362-6.364
		s-6.363,2.847-6.363,6.364v12.725H20.967C11.597,24.892,4,32.485,4,41.855v150.596c0,9.371,7.597,16.971,16.967,16.971h169.685
		c9.37,0,16.966-7.6,16.966-16.971v-51.559l-12.725,14.131v37.428l0,0c0,2.342-1.901,4.244-4.241,4.244H20.967
		c-2.339,0-4.241-1.902-4.241-4.244V41.855c0-2.336,1.901-4.237,4.241-4.237h27.575v12.727c0,3.516,2.85,6.362,6.363,6.362
		s6.362-2.846,6.362-6.362V37.619h38.179v12.727c0,3.516,2.85,6.362,6.363,6.362c3.513,0,6.364-2.846,6.364-6.362V37.619h38.177
		v12.727c0,3.516,2.85,6.362,6.363,6.362s6.363-2.846,6.363-6.362V37.619h27.575c2.34,0,4.241,1.901,4.241,4.237v50.271
		l12.725,12.875V41.855C207.618,32.485,200.022,24.892,190.652,24.892L190.652,24.892z M49.969,100.947h26.663V80.949H49.969
		V100.947L49.969,100.947z M49.969,134.275h26.663v-19.998H49.969V134.275L49.969,134.275z M49.969,167.604h26.663v-19.998H49.969
		V167.604L49.969,167.604z M96.628,167.604h26.662v-19.998H96.628V167.604L96.628,167.604z M96.628,100.947h26.662V80.949H96.628
		V100.947L96.628,100.947z M210.502,122.113l-53.037-53.038l-14.678,14.678l30.126,30.126H96.685v20.576h71.346l-25.101,25.1
		l15.064,15.064L210.502,122.113L210.502,122.113z"/>
</g>
</svg>
