<?xml version="1.0" encoding="iso-8859-1"?>
<!-- Generator: Adobe Illustrator 12.0.0, SVG Export Plug-In . SVG Version: 6.00 Build 51448)  -->
<!DOCTYPE svg PUBLIC "-//W3C//DTD SVG 1.1//EN" "http://www.w3.org/Graphics/SVG/1.1/DTD/svg11.dtd" [
	<!ENTITY ns_svg "http://www.w3.org/2000/svg">
	<!ENTITY ns_xlink "http://www.w3.org/1999/xlink">
]>
<svg  version="1.1" id="Layer_1" xmlns="&ns_svg;" xmlns:xlink="&ns_xlink;" width="94.852" height="121.392"
	 viewBox="0 0 94.852 121.392" overflow="visible" enable-background="new 0 0 94.852 121.392" xml:space="preserve">
<path fill-rule="evenodd" clip-rule="evenodd" fill="#FFFFFF" d="M13.506,11.15h68.155c1.295,0,2.355,1.06,2.355,2.355v44.285
	c0,1.296-1.061,2.356-2.355,2.356H13.506c-1.296,0-2.356-1.06-2.356-2.356V13.505C11.15,12.21,12.21,11.15,13.506,11.15
	L13.506,11.15z M60.837,15.39h5.855c0.69,0,0.804,0.565,0.252,1.256L37.009,54.099c-0.552,0.691-1.569,1.256-2.26,1.256h-5.855
	c-0.691,0-0.805-0.565-0.252-1.256l29.936-37.453C59.129,15.955,60.146,15.39,60.837,15.39L60.837,15.39z M32.979,14.605
	c6.59,0,11.935,5.345,11.935,11.935c0,6.59-5.345,11.935-11.935,11.935S21.043,33.13,21.043,26.54
	C21.043,19.95,26.388,14.605,32.979,14.605L32.979,14.605z M32.979,22.3c2.341,0,4.24,1.898,4.24,4.24c0,2.341-1.899,4.24-4.24,4.24
	s-4.24-1.898-4.24-4.24C28.738,24.198,30.637,22.3,32.979,22.3L32.979,22.3z M62.543,32.991c6.59,0,11.935,5.345,11.935,11.935
	s-5.345,11.935-11.935,11.935c-6.591,0-11.936-5.345-11.936-11.935S55.952,32.991,62.543,32.991L62.543,32.991z M62.543,40.687
	c2.341,0,4.24,1.898,4.24,4.24c0,2.342-1.899,4.24-4.24,4.24c-2.342,0-4.24-1.898-4.24-4.24
	C58.303,42.585,60.201,40.687,62.543,40.687L62.543,40.687z M12.721,66.899h10.364c0.864,0,1.57,0.706,1.57,1.57v6.752
	c0,0.864-0.707,1.57-1.57,1.57H12.721c-0.864,0-1.571-0.706-1.571-1.57V68.47C11.15,67.605,11.856,66.899,12.721,66.899
	L12.721,66.899z M12.721,82.603h10.364c0.864,0,1.57,0.707,1.57,1.57v6.753c0,0.863-0.707,1.57-1.57,1.57H12.721
	c-0.864,0-1.571-0.707-1.571-1.57v-6.753C11.15,83.31,11.856,82.603,12.721,82.603L12.721,82.603z M12.721,98.307h10.364
	c0.864,0,1.57,0.706,1.57,1.57v6.752c0,0.864-0.707,1.571-1.57,1.571H12.721c-0.864,0-1.571-0.707-1.571-1.571v-6.752
	C11.15,99.013,11.856,98.307,12.721,98.307L12.721,98.307z M32.665,66.899h10.365c0.863,0,1.57,0.706,1.57,1.57v6.752
	c0,0.864-0.707,1.57-1.57,1.57H32.665c-0.864,0-1.57-0.706-1.57-1.57V68.47C31.094,67.605,31.801,66.899,32.665,66.899
	L32.665,66.899z M32.665,82.603h10.365c0.863,0,1.57,0.707,1.57,1.57v6.753c0,0.863-0.707,1.57-1.57,1.57H32.665
	c-0.864,0-1.57-0.707-1.57-1.57v-6.753C31.094,83.31,31.801,82.603,32.665,82.603L32.665,82.603z M32.665,98.307h10.365
	c0.863,0,1.57,0.706,1.57,1.57v6.752c0,0.864-0.707,1.571-1.57,1.571H32.665c-0.864,0-1.57-0.707-1.57-1.571v-6.752
	C31.094,99.013,31.801,98.307,32.665,98.307L32.665,98.307z M52.608,66.899h10.364c0.864,0,1.57,0.706,1.57,1.57v6.752
	c0,0.864-0.706,1.57-1.57,1.57H52.608c-0.863,0-1.57-0.706-1.57-1.57V68.47C51.038,67.605,51.745,66.899,52.608,66.899
	L52.608,66.899z M52.608,82.603h10.364c0.864,0,1.57,0.707,1.57,1.57v6.753c0,0.863-0.706,1.57-1.57,1.57H52.608
	c-0.863,0-1.57-0.707-1.57-1.57v-6.753C51.038,83.31,51.745,82.603,52.608,82.603L52.608,82.603z M52.608,98.307h10.364
	c0.864,0,1.57,0.706,1.57,1.57v6.752c0,0.864-0.706,1.571-1.57,1.571H52.608c-0.863,0-1.57-0.707-1.57-1.571v-6.752
	C51.038,99.013,51.745,98.307,52.608,98.307L52.608,98.307z M72.238,66.899h10.364c0.864,0,1.571,0.706,1.571,1.57v38.159
	c0,0.864-0.707,1.571-1.571,1.571H72.238c-0.863,0-1.57-0.707-1.57-1.571V68.47C70.668,67.605,71.375,66.899,72.238,66.899
	L72.238,66.899z M11.307,0h72.238c6.219,0,11.307,5.088,11.307,11.307v98.778c0,6.219-5.088,11.307-11.307,11.307H11.307
	C5.088,121.392,0,116.304,0,110.085V11.307C0,5.088,5.088,0,11.307,0L11.307,0z M11.307,6.221h72.238
	c2.798,0,5.087,2.289,5.087,5.086v98.778c0,2.798-2.289,5.086-5.087,5.086H11.307c-2.798,0-5.086-2.288-5.086-5.086V11.307
	C6.221,8.509,8.509,6.221,11.307,6.221L11.307,6.221z"/>
</svg>
