<?xml version="1.0" encoding="utf-8"?>
<!DOCTYPE svg PUBLIC "-//W3C//DTD SVG 1.1//EN" "http://www.w3.org/Graphics/SVG/1.1/DTD/svg11.dtd" [
	<!ENTITY ns_extend "http://ns.adobe.com/Extensibility/1.0/">
	<!ENTITY ns_ai "http://ns.adobe.com/AdobeIllustrator/10.0/">
	<!ENTITY ns_graphs "http://ns.adobe.com/Graphs/1.0/">
	<!ENTITY ns_vars "http://ns.adobe.com/Variables/1.0/">
	<!ENTITY ns_imrep "http://ns.adobe.com/ImageReplacement/1.0/">
	<!ENTITY ns_sfw "http://ns.adobe.com/SaveForWeb/1.0/">
	<!ENTITY ns_custom "http://ns.adobe.com/GenericCustomNamespace/1.0/">
	<!ENTITY ns_adobe_xpath "http://ns.adobe.com/XPath/1.0/">
]>
<svg version="1.1" id="Layer_1" xmlns:x="&ns_extend;" xmlns:i="&ns_ai;" xmlns:graph="&ns_graphs;"
	 xmlns="http://www.w3.org/2000/svg" xmlns:xlink="http://www.w3.org/1999/xlink" x="0px" y="0px" width="216px" height="216px" viewBox="0 0 216 216" enable-background="new 0 0 216 216" xml:space="preserve">
<metadata>
	<sfw  xmlns="&ns_sfw;">
		<slices></slices>
		<sliceSourceBounds  height="163.694" width="164.25" y="65.306" x="53" bottomLeftOrigin="true"></sliceSourceBounds>
	</sfw>
</metadata>
<g>
	<path d="M173.859,89.168h-0.008V57.486v-2.64V41.644c0-8.75-6.895-15.841-15.398-15.841h-20.532H53.23
		C37.664,25.803,25,38.834,25,54.846v105.608c0,16.012,12.664,29.043,28.23,29.043h92.391c15.566,0,28.23-13.031,28.23-29.043v-7.92
		h0.008C194.38,136.688,194.38,105.015,173.859,89.168L173.859,89.168z M53.23,36.363L53.23,36.363h84.69h20.532
		c2.829,0,5.132,2.368,5.132,5.281v13.202v2.64v16.812c-1.612-0.589-3.322-0.971-5.132-0.971h-0.002v-5.28V57.486V46.924
		c0-2.919-2.299-5.281-5.133-5.281H45.529c-2.834,0-5.133,2.362-5.133,5.281v10.562v10.261c-3.167-3.331-5.13-7.875-5.13-12.901
		C35.266,44.64,43.309,36.363,53.23,36.363L53.23,36.363z M153.318,52.205L153.318,52.205H45.529v-5.281h107.789V52.205
		L153.318,52.205z M153.318,57.486L153.318,57.486v5.279H45.529v-5.279H153.318L153.318,57.486z M153.318,68.046L153.318,68.046
		v5.28h-15.397H53.23c-2.77,0-5.359-0.696-7.701-1.845v-3.435H153.318L153.318,68.046z M163.585,160.454L163.585,160.454
		c0,10.205-8.041,18.48-17.964,18.48H53.23c-9.921,0-17.964-8.275-17.964-18.48V77.23c4.884,4.157,11.145,6.656,17.964,6.656h84.69
		h20.532c2.829,0,5.132,2.369,5.132,5.281v10.562h-46.192c-14.175,0-25.667,11.819-25.667,26.402
		c0,14.582,11.491,26.402,25.667,26.402h46.192V160.454L163.585,160.454z M170.142,141.973L170.142,141.973h-52.749
		c-8.49,0-15.4-7.105-15.4-15.841s6.91-15.843,15.4-15.843h46.192c3.174-0.04,6.313-1.618,8.224-4.243
		c0.536-0.738,0.947-1.567,1.283-2.434c0.046-0.118,0.13-0.207,0.171-0.325c3.691,4.976,5.723,11.081,5.723,17.563
		C178.985,128.973,175.797,136.506,170.142,141.973L170.142,141.973z"/>
</g>

</svg>
