<?xml version="1.0" encoding="iso-8859-1"?>
<!-- Generator: Adobe Illustrator 12.0.0, SVG Export Plug-In . SVG Version: 6.00 Build 51448)  -->
<!DOCTYPE svg PUBLIC "-//W3C//DTD SVG 1.1//EN" "http://www.w3.org/Graphics/SVG/1.1/DTD/svg11.dtd" [
	<!ENTITY ns_svg "http://www.w3.org/2000/svg">
	<!ENTITY ns_xlink "http://www.w3.org/1999/xlink">
]>
<svg  version="1.1" id="Layer_1" xmlns="&ns_svg;" xmlns:xlink="&ns_xlink;" width="122.396" height="134.126"
	 viewBox="0 0 122.396 134.126" overflow="visible" enable-background="new 0 0 122.396 134.126" xml:space="preserve">
<path fill-rule="evenodd" clip-rule="evenodd" fill="#FFFFFF" d="M76.464,112.247c-1.881-3.693-3.019-8.485-3.019-13.723
	c0-4.947,1.015-9.497,2.714-13.099c0.502-0.791,0.963-1.947,1.688-1.877c0.728,0.068,1.456,0.138,2.185,0.208
	c0.728,0.069,1.456,0.139,2.185,0.207c2.88,0.274,2.414-0.355,3.5-3.016c0.439-1.074,0.879-2.149,1.317-3.225
	c0.439-1.074,0.879-2.148,1.318-3.224c1.469-3.594,1.424-3.138-1.596-5.581c-0.97-0.786-1.94-1.572-2.911-2.357
	c-0.971-0.786-1.942-1.572-2.912-2.357c-1.444-1.248-2.258-0.675-2.913-0.1c-7.649,5.585-13.034,18.893-13.034,34.42
	c0,16.23,5.883,30.034,14.085,35.132l0.01-0.025c0.627,0.513,1.42,0.892,2.738-0.248c0.971-0.786,1.941-1.571,2.913-2.357
	c0.971-0.785,1.94-1.571,2.911-2.357c3.02-2.444,3.063-1.987,1.596-5.581c-0.44-1.075-0.879-2.149-1.317-3.225
	c-0.439-1.075-0.879-2.149-1.318-3.225c-1.087-2.659-1.203-3.206-4.083-2.932c-0.729,0.069-1.456,0.139-2.185,0.208
	s-1.456,0.139-2.185,0.208C77.427,114.191,76.967,113.037,76.464,112.247L76.464,112.247z M94.169,72.108h21.098
	c3.921,0,7.129,3.12,7.129,6.934v40.353c0,3.813-3.208,6.934-7.129,6.934H95.061c0.116-1.793-0.597-3.379-1.296-5.091
	c-0.439-1.075-0.878-2.149-1.317-3.224c-0.438-1.075-0.878-2.15-1.316-3.224c-0.771-1.888-1.414-3.544-3.172-4.785
	c-1.811-1.279-3.786-1.367-5.901-1.166c-0.574,0.055-1.147,0.108-1.721,0.163c-1.41-3.241-2.002-7-2.002-10.478
	c0-3.274,0.521-6.762,1.743-9.852c0.559,0.053,1.117,0.105,1.674,0.158c2.153,0.205,4.156,0.078,5.899-1.395
	c1.652-1.396,1.854-2.831,2.592-4.639c0.439-1.074,0.879-2.149,1.317-3.225c0.439-1.074,0.879-2.149,1.317-3.223
	C93.465,74.913,94.061,73.564,94.169,72.108L94.169,72.108z M114.063,112.548c1.646,0,2.981,1.335,2.981,2.981
	s-1.335,2.981-2.981,2.981c-1.646,0-2.981-1.335-2.981-2.981S112.417,112.548,114.063,112.548L114.063,112.548z M114.063,103.95
	c1.646,0,2.981,1.335,2.981,2.981s-1.335,2.981-2.981,2.981c-1.646,0-2.981-1.335-2.981-2.981S112.417,103.95,114.063,103.95
	L114.063,103.95z M98.059,112.548c1.646,0,2.981,1.335,2.981,2.981s-1.335,2.981-2.981,2.981c-1.646,0-2.98-1.335-2.98-2.981
	S96.414,112.548,98.059,112.548L98.059,112.548z M106.061,103.95c1.646,0,2.981,1.335,2.981,2.981s-1.335,2.981-2.981,2.981
	c-1.646,0-2.981-1.335-2.981-2.981S104.416,103.95,106.061,103.95L106.061,103.95z M106.061,112.548
	c1.646,0,2.981,1.335,2.981,2.981s-1.335,2.981-2.981,2.981c-1.646,0-2.981-1.335-2.981-2.981S104.416,112.548,106.061,112.548
	L106.061,112.548z M98.059,103.95c1.646,0,2.981,1.335,2.981,2.981s-1.335,2.981-2.981,2.981c-1.646,0-2.98-1.335-2.98-2.981
	S96.414,103.95,98.059,103.95L98.059,103.95z M98.059,95.821c1.646,0,2.981,1.335,2.981,2.98c0,1.646-1.335,2.982-2.981,2.982
	c-1.646,0-2.98-1.336-2.98-2.982C95.079,97.156,96.414,95.821,98.059,95.821L98.059,95.821z M114.063,95.821
	c1.646,0,2.981,1.335,2.981,2.98c0,1.646-1.335,2.982-2.981,2.982c-1.646,0-2.981-1.336-2.981-2.982
	C111.082,97.156,112.417,95.821,114.063,95.821L114.063,95.821z M106.061,95.821c1.646,0,2.981,1.335,2.981,2.98
	c0,1.646-1.335,2.982-2.981,2.982c-1.646,0-2.981-1.336-2.981-2.982C103.08,97.156,104.416,95.821,106.061,95.821L106.061,95.821z
	 M97.159,82.37h17.888c1.297,0,2.357,1.061,2.357,2.357v0.97c0,1.298-1.061,2.358-2.357,2.358H97.159
	c-1.298,0-2.358-1.061-2.358-2.358v-0.97C94.8,83.43,95.861,82.37,97.159,82.37L97.159,82.37z M78.838,22.422
	c-4.504-4.765-10.883-7.739-17.956-7.739c-7.389,0-14.02,3.246-18.546,8.389c-2.169,2.462-6.185-0.779-3.507-3.724
	c5.451-5.996,13.313-9.761,22.053-9.761c8.452,0,16.082,3.52,21.505,9.173C85.693,22.206,81.776,25.528,78.838,22.422L78.838,22.422
	z M85.829,15.411C79.533,8.861,70.684,4.784,60.883,4.784c-10.034,0-19.07,4.274-25.391,11.099c-2.409,2.603-6.19-0.389-3.371-3.403
	C39.31,4.8,49.537,0,60.883,0c11.092,0,21.114,4.588,28.273,11.969C92.448,15.363,88.773,18.474,85.829,15.411L85.829,15.411z
	 M45.528,26.307c3.701-4.339,9.207-7.092,15.355-7.092c5.659,0,10.774,2.332,14.438,6.086c3.462,3.547,0.147,7.079-3.263,3.486
	c-2.808-2.958-6.776-4.804-11.175-4.804c-4.717,0-8.941,2.122-11.767,5.463C46.751,32.244,43.072,29.19,45.528,26.307L45.528,26.307
	z M60.883,45.688c-4.34,0-7.859-3.52-7.859-7.859c0-4.34,3.519-7.859,7.859-7.859c4.34,0,7.859,3.52,7.859,7.859
	C68.742,42.169,65.223,45.688,60.883,45.688L60.883,45.688z M25.955,113.76h37.172c0.744,3.212,1.745,6.4,3.038,9.404h-40.21
	c-2.069,0-3.762-1.692-3.762-3.762v-1.88C22.193,115.454,23.886,113.76,25.955,113.76L25.955,113.76z M7.523,36.461h40.917
	c-0.049,0.449-0.074,0.906-0.074,1.369c0,1.786,0.375,3.484,1.05,5.022H7.147c-1.034,0-1.881,0.846-1.881,1.881v46.079
	c0,1.034,0.847,1.881,1.881,1.881h54.491c-0.175,2.009-0.258,3.967-0.258,5.831c0,3.313,0.268,6.954,0.857,10.67
	c-17.925,0.946-36.66-0.111-54.714-3.709C3.465,104.677,0,102.1,0,97.962V43.984C0,39.846,3.385,36.461,7.523,36.461L7.523,36.461z
	 M73.326,36.461h26.92c4.138,0,7.523,3.385,7.523,7.523v23.466h-6.207V44.733c0-1.035-0.847-1.881-1.881-1.881H72.349
	c0.675-1.538,1.05-3.237,1.05-5.022C73.399,37.367,73.375,36.91,73.326,36.461L73.326,36.461z M52.474,99.843h3.009
	c0.621,0,1.128,0.507,1.128,1.128v1.881c0,0.621-0.507,1.129-1.128,1.129h-3.009c-0.621,0-1.128-0.508-1.128-1.129v-1.881
	C51.345,100.35,51.853,99.843,52.474,99.843L52.474,99.843z M8.744,64.795l21.928-16.691c0.635-0.484,1.662-0.212,2.283,0.604l0,0
	c0.62,0.815,0.608,1.877-0.026,2.36L11,67.76c-0.635,0.483-1.662,0.211-2.282-0.604l0,0C8.097,66.34,8.109,65.278,8.744,64.795
	L8.744,64.795z M8.469,55.719l12.311-9.371c0.635-0.483,1.662-0.211,2.282,0.604l0,0c0.621,0.816,0.609,1.878-0.025,2.361
	l-12.311,9.37c-0.635,0.483-1.663,0.211-2.283-0.603l0,0C7.822,57.265,7.834,56.203,8.469,55.719L8.469,55.719z"/>
</svg>
