<?xml version="1.0" encoding="iso-8859-1"?>
<!-- Generator: Adobe Illustrator 12.0.0, SVG Export Plug-In . SVG Version: 6.00 Build 51448)  -->
<!DOCTYPE svg PUBLIC "-//W3C//DTD SVG 1.1//EN" "http://www.w3.org/Graphics/SVG/1.1/DTD/svg11.dtd" [
	<!ENTITY ns_svg "http://www.w3.org/2000/svg">
	<!ENTITY ns_xlink "http://www.w3.org/1999/xlink">
]>
<svg  version="1.1" id="Layer_1" xmlns="&ns_svg;" xmlns:xlink="&ns_xlink;" width="127.042" height="128.664"
	 viewBox="0 0 127.042 128.664" overflow="visible" enable-background="new 0 0 127.042 128.664" xml:space="preserve">
<path fill-rule="evenodd" clip-rule="evenodd" fill="#FFFFFF" d="M91.28,109.459c-2.774,3.863-5.55,7.725-8.325,11.586
	c-4.008,4.152-3.667,4.836-4.112,0.211c0.058-16.447,0.115-32.895,0.173-49.342c0.75-5.83-0.026-5.369,5.563-2.869
	c13.828,10.23,26.051,19.768,39.879,29.998c3.289,3.322,4.242,3.08-1.998,3.225c-5.236-0.416-8.867-0.139-14.104-0.557
	c1.497,2.73,6.752,12.318,8.248,15.049c1.968,3.59,2.194,2.984-2.74,5.742c-2.712,1.516-5.423,3.031-8.135,4.545
	c-4.375,2.445-3.643,2.129-5.374-1.031C98.582,122.781,93.053,112.693,91.28,109.459L91.28,109.459z M111.55,119.125L99.101,96.41
	l13.527,0.512L84.252,75.436l-0.127,36.463l8.531-11.955l12.449,22.715L111.55,119.125L111.55,119.125z M7.849,61.999L7.849,61.999
	h23.234c0.243,9.9,2.309,19.251,5.824,27.656c-4.908,1.914-9.486,4.465-13.709,7.48C14.096,88.082,8.355,75.701,7.849,61.999
	L7.849,61.999z M21.055,25.324L21.055,25.324c4.413,3.428,9.249,6.33,14.474,8.514c-2.708,7.503-4.234,15.704-4.446,24.287H7.849
	C8.311,45.55,13.215,34.121,21.055,25.324L21.055,25.324z M62,58.125L62,58.125V38.651c6.626-0.2,12.991-1.408,18.967-3.481
	c2.554,7.087,3.991,14.841,4.2,22.955H62L62,58.125z M51.473,111.605L51.473,111.605c-9.583-1.592-18.285-5.768-25.361-11.826
	c3.818-2.645,7.943-4.885,12.351-6.588C41.842,100.201,46.265,106.418,51.473,111.605L51.473,111.605z M58.125,61.999L58.125,61.999
	v23.349c-6.112,0.186-12.019,1.184-17.589,2.979c-3.357-7.988-5.335-16.893-5.578-26.328H58.125L58.125,61.999z M39.158,35.17
	L39.158,35.17c5.976,2.073,12.341,3.281,18.967,3.481v19.474H34.958C35.167,50.011,36.605,42.257,39.158,35.17L39.158,35.17z
	 M36.99,30.266L36.99,30.266c-4.787-1.995-9.223-4.632-13.278-7.743c7.467-7.23,17.066-12.226,27.761-14.004
	C45.467,14.516,40.521,21.906,36.99,30.266L36.99,30.266z M58.125,7.848L58.125,7.848v26.928
	c-6.112-0.197-11.985-1.291-17.505-3.179c4.033-9.506,9.998-17.653,17.304-23.738C57.992,7.855,58.057,7.853,58.125,7.848
	L58.125,7.848z M68.652,8.518L68.652,8.518c10.693,1.778,20.294,6.774,27.761,14.004c-4.058,3.111-8.491,5.748-13.278,7.743
	C79.604,21.906,74.658,14.516,68.652,8.518L68.652,8.518z M62.201,7.859L62.201,7.859c7.307,6.085,13.271,14.232,17.305,23.738
	C73.985,33.485,68.11,34.579,62,34.776V7.848C62.068,7.853,62.132,7.855,62.201,7.859L62.201,7.859z M57.92,112.264L57.92,112.264
	c-6.44-5.361-11.84-12.324-15.795-20.412c5.071-1.586,10.448-2.451,16-2.629v23.053C58.057,112.271,57.989,112.268,57.92,112.264
	L57.92,112.264z M112.275,58.125L112.275,58.125H89.041c-0.212-8.583-1.736-16.784-4.445-24.287
	c5.225-2.184,10.062-5.086,14.474-8.514C106.91,34.121,111.814,45.55,112.275,58.125L112.275,58.125z M60.063,0
	C26.89,0,0,26.89,0,60.061c0,33.171,26.89,60.062,60.063,60.062c4.928,0,9.715-0.598,14.297-1.717l0.028-8.088
	c-1.871,0.531-3.785,0.963-5.735,1.287c2.044-2.037,3.967-4.23,5.754-6.57l0.023-6.797c-3.424,5.396-7.551,10.133-12.225,14.025
	c-0.068,0.004-0.136,0.008-0.205,0.012l0,0V89.223c4.275,0.137,8.447,0.682,12.456,1.65l0.014-3.951
	c-4.027-0.918-8.199-1.445-12.47-1.574V61.999h23.167c-0.021,0.775-0.052,1.546-0.096,2.313c0.455,0.218,0.902,0.435,1.343,0.632
	l0.444,0.199l0.393,0.29l1.546,1.147c0.125-1.514,0.206-3.041,0.244-4.582h23.234c-0.249,6.738-1.764,13.154-4.32,19.013
	c2.122,1.609,4.244,3.219,6.369,4.826c3.717-7.811,5.8-16.551,5.8-25.777C120.124,26.89,93.233,0,60.063,0L60.063,0z"/>
</svg>
