<?xml version="1.0" encoding="utf-8"?>
<!DOCTYPE svg PUBLIC "-//W3C//DTD SVG 1.1//EN" "http://www.w3.org/Graphics/SVG/1.1/DTD/svg11.dtd">
<svg version="1.1" xmlns="http://www.w3.org/2000/svg" xmlns:xlink="http://www.w3.org/1999/xlink" x="0px" y="0px" width="216px" height="216px" viewBox="0 0 216 216" enable-background="new 0 0 216 216" xml:space="preserve">

<path fill-rule="evenodd" clip-rule="evenodd" d="M163.831,214.366h-32.028v-13.86h30.25v-18.87h-27.976
	c1.127-2.095,2.212-4.193,3.238-6.281h24.737V71.834l-55.375-55.375L51.314,71.822v103.533h24.477
	c1.028,2.207,2.07,4.318,3.074,6.281H51.314v18.87h30.25v13.86c-10.135,0-20.271,0-30.406,0c-10.114,0-14.442-6.491-13.705-13.706
	V85.682c-4.006,4.006-8.013,8.013-12.019,12.018c-6.312,5.467-15.114-4.503-9.8-9.801l36.685-36.686V15.47H66.18v21.884
	C77.942,25.592,89.704,13.83,101.466,2.068c2.8-2.365,6.84-3.58,10.341-0.081c29.046,29.045,58.091,58.091,87.138,87.137
	c5.343,6.342-5.12,14.775-9.801,9.8l-13.23-13.23c0,38.384,0,76.769,0,115.153C175.914,210.404,170.311,214.32,163.831,214.366
	L163.831,214.366z"/>

</svg>
