<?xml version="1.0" encoding="utf-8"?>
<!DOCTYPE svg PUBLIC "-//W3C//DTD SVG 1.1//EN" "http://www.w3.org/Graphics/SVG/1.1/DTD/svg11.dtd">
<svg version="1.1" xmlns="http://www.w3.org/2000/svg" xmlns:xlink="http://www.w3.org/1999/xlink" x="0px" y="0px" width="216px" height="216px" viewBox="0 0 216 216" enable-background="new 0 0 216 216" xml:space="preserve">
<g>
	<path fill-rule="evenodd" clip-rule="evenodd" d="M107.992-0.197c59.631,0,107.991,48.36,107.991,107.992
		c0,59.631-48.359,107.992-107.991,107.992C48.36,215.786,0,167.426,0,107.794C0,48.163,48.36-0.197,107.992-0.197L107.992-0.197z
		 M107.992,6.27c56.061,0,101.524,45.463,101.524,101.524s-45.463,101.525-101.524,101.525S6.467,163.855,6.467,107.794
		S51.931,6.27,107.992,6.27L107.992,6.27z M108.409,28.28c-40.649,0-73.6,32.951-73.6,73.598c0,40.649,32.951,73.6,73.6,73.6
		c6.039,0,11.904-0.733,17.519-2.104l0.035-9.912c-2.293,0.652-4.639,1.181-7.029,1.578c2.506-2.495,4.861-5.185,7.051-8.052
		l0.029-8.327c-4.195,6.613-9.252,12.417-14.98,17.187c-0.084,0.004-0.166,0.008-0.25,0.014l0,0v-28.25
		c5.238,0.168,10.352,0.837,15.264,2.023l0.016-4.841c-4.934-1.125-10.047-1.771-15.279-1.93v-28.611h28.389
		c-0.025,0.949-0.064,1.894-0.117,2.834c0.557,0.268,1.105,0.534,1.645,0.775l0.545,0.244l0.48,0.355l1.895,1.404
		c0.152-1.853,0.254-3.725,0.299-5.612h28.473c-0.307,8.256-2.162,16.119-5.295,23.299c2.6,1.973,5.201,3.944,7.805,5.913
		c4.555-9.571,7.107-20.28,7.107-31.586C182.008,61.231,149.057,28.28,108.409,28.28L108.409,28.28z M172.391,99.506L172.391,99.506
		h-28.473c-0.26-10.518-2.127-20.567-5.447-29.761c6.402-2.676,12.33-6.232,17.736-10.433
		C165.814,70.092,171.824,84.097,172.391,99.506L172.391,99.506z M105.784,165.848L105.784,165.848
		c-7.892-6.571-14.51-15.104-19.355-25.013c6.214-1.943,12.803-3.005,19.606-3.224v28.25
		C105.951,165.855,105.868,165.852,105.784,165.848L105.784,165.848z M111.029,37.911L111.029,37.911
		c8.953,7.457,16.262,17.44,21.205,29.088c-6.766,2.314-13.963,3.655-21.451,3.896V37.897
		C110.867,37.903,110.945,37.907,111.029,37.911L111.029,37.911z M118.934,38.718L118.934,38.718
		c13.105,2.179,24.869,8.301,34.02,17.161c-4.973,3.812-10.406,7.044-16.271,9.488C132.355,55.123,126.295,46.067,118.934,38.718
		L118.934,38.718z M106.035,37.897L106.035,37.897v32.997c-7.489-0.241-14.686-1.582-21.451-3.896
		c4.942-11.648,12.251-21.631,21.205-29.088C105.872,37.907,105.951,37.903,106.035,37.897L106.035,37.897z M80.136,65.367
		L80.136,65.367c-5.866-2.444-11.301-5.676-16.271-9.488c9.15-8.86,20.914-14.982,34.019-17.161
		C90.523,46.067,84.462,55.123,80.136,65.367L80.136,65.367z M82.793,71.377L82.793,71.377c7.322,2.54,15.123,4.021,23.242,4.265
		v23.863H77.646C77.902,89.563,79.664,80.062,82.793,71.377L82.793,71.377z M106.035,104.253L106.035,104.253v28.611
		c-7.489,0.227-14.728,1.451-21.553,3.649c-4.114-9.789-6.538-20.7-6.835-32.261H106.035L106.035,104.253z M97.883,165.04
		L97.883,165.04c-11.742-1.951-22.407-7.066-31.078-14.49c4.679-3.241,9.733-5.986,15.134-8.074
		C86.082,151.064,91.502,158.684,97.883,165.04L97.883,165.04z M110.783,99.506L110.783,99.506V75.643
		c8.119-0.245,15.918-1.725,23.24-4.265c3.131,8.684,4.893,18.186,5.148,28.128H110.783L110.783,99.506z M60.61,59.312L60.61,59.312
		c5.407,4.201,11.333,7.757,17.736,10.433c-3.319,9.194-5.189,19.244-5.448,29.761H44.427C44.993,84.097,51.002,70.092,60.61,59.312
		L60.61,59.312z M44.427,104.253L44.427,104.253h28.471c0.297,12.131,2.829,23.59,7.136,33.888
		c-6.014,2.346-11.624,5.472-16.799,9.168C52.082,136.216,45.048,121.044,44.427,104.253L44.427,104.253z M171.5,174.255
		l-15.254-27.834l16.576,0.627l-34.771-26.331l-0.156,44.682l10.455-14.649l15.254,27.834L171.5,174.255L171.5,174.255z
		 M146.664,162.41c-3.4,4.733-6.803,9.466-10.203,14.198c-4.912,5.086-4.494,5.926-5.039,0.259
		c0.07-20.155,0.141-40.31,0.211-60.465c0.92-7.143-0.031-6.58,6.816-3.515c16.945,12.537,31.924,24.223,48.867,36.759
		c4.031,4.071,5.199,3.774-2.449,3.952c-6.414-0.511-10.865-0.172-17.281-0.683c1.834,3.347,8.273,15.094,10.107,18.44
		c2.412,4.399,2.689,3.657-3.357,7.036c-3.324,1.856-6.646,3.713-9.969,5.57c-5.361,2.996-4.463,2.606-6.586-1.266
		C155.611,178.735,148.834,166.373,146.664,162.41L146.664,162.41z"/>
</g>

</svg>
