<?xml version="1.0" encoding="utf-8"?>
<!DOCTYPE svg PUBLIC "-//W3C//DTD SVG 1.1//EN" "http://www.w3.org/Graphics/SVG/1.1/DTD/svg11.dtd">
<svg version="1.1" xmlns="http://www.w3.org/2000/svg" xmlns:xlink="http://www.w3.org/1999/xlink" x="0px" y="0px" width="216px" height="216px" viewBox="0 0 216 216" enable-background="new 0 0 216 216" xml:space="preserve">
<g>
	<path fill-rule="evenodd" clip-rule="evenodd" d="M107.992-0.197c59.631,0,107.991,48.36,107.991,107.992
		c0,59.631-48.359,107.992-107.991,107.992C48.36,215.786,0,167.426,0,107.794C0,48.163,48.36-0.197,107.992-0.197L107.992-0.197z
		 M107.992,6.27c56.061,0,101.524,45.463,101.524,101.524s-45.463,101.525-101.524,101.525S6.467,163.855,6.467,107.794
		S51.931,6.27,107.992,6.27L107.992,6.27z"/>
	<path fill-rule="evenodd" clip-rule="evenodd" d="M51.596,60.523l58.428-24.75l56.803,25.562c0,16.5,0,33,0,49.499
		c-5.746,36.298-25.357,54.861-52.746,64.107c-2.166-0.135-4.328,0.136-6.492,0c-27.025-10.536-49.549-26.76-55.993-63.295V60.523
		L51.596,60.523z M154.607,106.372L154.607,106.372h-44.99v56.222l0.457,0.188c0.633-0.008,1.271-0.032,1.912-0.051
		c25.213-9.084,38.145-26.07,42.621-52.882V106.372L154.607,106.372z M63.816,103.531L63.816,103.531h45.395V49.388l-45.395,19.23
		V103.531L63.816,103.531z"/>
</g>
</svg>
