<?xml version="1.0" encoding="utf-8"?>
<!DOCTYPE svg PUBLIC "-//W3C//DTD SVG 1.1//EN" "http://www.w3.org/Graphics/SVG/1.1/DTD/svg11.dtd">
<svg version="1.1" xmlns="http://www.w3.org/2000/svg" xmlns:xlink="http://www.w3.org/1999/xlink" x="0px" y="0px" width="216px" height="216px" viewBox="0 0 216 216" enable-background="new 0 0 216 216" xml:space="preserve">
<g>
	<path fill-rule="evenodd" clip-rule="evenodd" d="M107.992-0.197c59.631,0,107.991,48.36,107.991,107.992
		c0,59.631-48.359,107.992-107.991,107.992C48.36,215.786,0,167.426,0,107.794C0,48.163,48.36-0.197,107.992-0.197L107.992-0.197z
		 M107.992,6.27c56.061,0,101.524,45.463,101.524,101.524s-45.463,101.525-101.524,101.525S6.467,163.855,6.467,107.794
		S51.931,6.27,107.992,6.27L107.992,6.27z M72.644,133.353c-4.041-7.932-6.483-18.22-6.483-29.464
		c0-10.622,2.179-20.391,5.827-28.126c1.08-1.697,2.068-4.179,3.626-4.029c1.563,0.148,3.126,0.297,4.689,0.446
		c1.563,0.149,3.126,0.297,4.689,0.447c6.186,0.588,5.184-0.765,7.517-6.476c0.943-2.308,1.886-4.615,2.829-6.923
		c0.942-2.307,1.886-4.614,2.829-6.921c3.153-7.717,3.059-6.736-3.424-11.984c-2.084-1.688-4.168-3.375-6.252-5.062
		c-2.084-1.688-4.169-3.375-6.253-5.062c-3.1-2.679-4.847-1.45-6.253-0.215C59.56,41.977,47.999,70.55,47.999,103.889
		c0,34.846,12.63,64.485,30.241,75.429l0.021-0.054c1.346,1.102,3.048,1.915,5.881-0.532c2.083-1.687,4.168-3.374,6.252-5.062
		s4.168-3.374,6.252-5.062c6.483-5.247,6.577-4.267,3.424-11.983c-0.943-2.308-1.886-4.615-2.829-6.923s-1.886-4.615-2.829-6.922
		c-2.333-5.712-2.582-6.885-8.768-6.297c-1.564,0.149-3.126,0.299-4.689,0.447s-3.126,0.298-4.689,0.446
		C74.709,137.525,73.722,135.049,72.644,133.353L72.644,133.353z M110.656,47.17h45.299c8.418,0,15.307,6.699,15.307,14.887v86.641
		c0,8.188-6.889,14.888-15.307,14.888h-43.383c0.248-3.851-1.281-7.255-2.783-10.932c-0.943-2.308-1.887-4.613-2.829-6.921
		c-0.943-2.309-1.886-4.616-2.828-6.923c-1.656-4.051-3.036-7.606-6.809-10.272c-3.888-2.748-8.13-2.936-12.673-2.504
		c-1.231,0.118-2.462,0.234-3.692,0.352c-3.029-6.959-4.3-15.031-4.3-22.497c0-7.031,1.12-14.519,3.745-21.153
		c1.198,0.114,2.396,0.228,3.592,0.342c4.624,0.44,8.924,0.167,12.667-2.995c3.547-2.997,3.979-6.079,5.565-9.961
		c0.944-2.307,1.886-4.614,2.829-6.922c0.943-2.308,1.885-4.615,2.829-6.922C109.145,53.192,110.424,50.297,110.656,47.17
		L110.656,47.17z M153.369,133.999c3.535,0,6.402,2.866,6.402,6.401c0,3.534-2.867,6.401-6.402,6.401c-3.533,0-6.4-2.867-6.4-6.401
		C146.969,136.865,149.836,133.999,153.369,133.999L153.369,133.999z M153.369,115.538c3.535,0,6.402,2.866,6.402,6.4
		c0,3.535-2.867,6.401-6.402,6.401c-3.533,0-6.4-2.866-6.4-6.401C146.969,118.404,149.836,115.538,153.369,115.538L153.369,115.538z
		 M119.008,133.999c3.535,0,6.402,2.866,6.402,6.401c0,3.534-2.867,6.401-6.402,6.401c-3.533,0-6.4-2.867-6.4-6.401
		C112.607,136.865,115.475,133.999,119.008,133.999L119.008,133.999z M136.189,115.538c3.535,0,6.402,2.866,6.402,6.4
		c0,3.535-2.867,6.401-6.402,6.401s-6.402-2.866-6.402-6.401C129.787,118.404,132.654,115.538,136.189,115.538L136.189,115.538z
		 M136.189,133.999c3.535,0,6.402,2.866,6.402,6.401c0,3.534-2.867,6.401-6.402,6.401s-6.402-2.867-6.402-6.401
		C129.787,136.865,132.654,133.999,136.189,133.999L136.189,133.999z M119.008,115.538c3.535,0,6.402,2.866,6.402,6.4
		c0,3.535-2.867,6.401-6.402,6.401c-3.533,0-6.4-2.866-6.4-6.401C112.607,118.404,115.475,115.538,119.008,115.538L119.008,115.538z
		 M119.008,98.083c3.535,0,6.402,2.867,6.402,6.4c0,3.535-2.867,6.402-6.402,6.402c-3.533,0-6.4-2.867-6.4-6.402
		C112.607,100.95,115.475,98.083,119.008,98.083L119.008,98.083z M153.369,98.083c3.535,0,6.402,2.867,6.402,6.4
		c0,3.535-2.867,6.402-6.402,6.402c-3.533,0-6.4-2.867-6.4-6.402C146.969,100.95,149.836,98.083,153.369,98.083L153.369,98.083z
		 M136.189,98.083c3.535,0,6.402,2.867,6.402,6.4c0,3.535-2.867,6.402-6.402,6.402s-6.402-2.867-6.402-6.402
		C129.787,100.95,132.654,98.083,136.189,98.083L136.189,98.083z M117.074,69.203h38.408c2.783,0,5.061,2.277,5.061,5.062v2.083
		c0,2.785-2.277,5.063-5.061,5.063h-38.408c-2.785,0-5.063-2.278-5.063-5.063v-2.083C112.012,71.48,114.289,69.203,117.074,69.203
		L117.074,69.203z"/>
</g>

</svg>
