<?xml version="1.0" encoding="iso-8859-1"?>
<!-- Generator: Adobe Illustrator 12.0.0, SVG Export Plug-In . SVG Version: 6.00 Build 51448)  -->
<!DOCTYPE svg PUBLIC "-//W3C//DTD SVG 1.1//EN" "http://www.w3.org/Graphics/SVG/1.1/DTD/svg11.dtd" [
	<!ENTITY ns_svg "http://www.w3.org/2000/svg">
	<!ENTITY ns_xlink "http://www.w3.org/1999/xlink">
]>
<svg  version="1.1" id="Layer_1" xmlns="&ns_svg;" xmlns:xlink="&ns_xlink;" width="122.104" height="125.717"
	 viewBox="0 0 122.104 125.717" overflow="visible" enable-background="new 0 0 122.104 125.717" xml:space="preserve">
<path fill-rule="evenodd" clip-rule="evenodd" fill="#FFFFFF" d="M101.119,125.221h-26.19v-8.089h25.153v-11.013H76.255
	c0.657-1.223,1.291-2.448,1.89-3.666h21.937V43.886L60.265,9.72L21.777,43.186v59.268H42.24c0.6,1.288,1.208,2.521,1.794,3.666
	H21.777v11.013h23.833v8.089c-5.915,0-18.009,0-23.923,0c-5.903,0-8.429-3.789-7.999-7.999V50.12
	c-2.338,2.337-4.676,4.676-7.014,7.014c-3.684,3.19-8.821-3.783-5.719-6.875l21.409-20.255V9.144h8.089l0.011,15.767l26.76-23.588
	c1.634-1.38,3.992-2.089,6.035-0.047l57.937,50.134c3.118,3.701-2.572,9.343-5.305,6.439l-7.721-7.722c0,22.401,0,44.803,0,67.205
	C108.17,122.908,104.9,125.193,101.119,125.221L101.119,125.221z M64.9,44.097h9.147v9.147H64.9V44.097L64.9,44.097z M82.73,61.76
	h9.147v9.147H82.73V61.76L82.73,61.76z M29.411,61.76h9.147v9.147h-9.147V61.76L29.411,61.76z M29.27,44.097h9.146v9.147H29.27
	V44.097L29.27,44.097z M47.211,26.155h9.147v9.148h-9.147V26.155L47.211,26.155z M47.211,44.097h9.147v9.147h-9.147V44.097
	L47.211,44.097z M64.9,26.155h9.147v9.148H64.9V26.155L64.9,26.155z M82.589,44.097h9.146v9.147h-9.146V44.097L82.589,44.097z
	 M60.808,74.745c3.538,0,6.406,2.984,6.406,6.664s-2.868,6.664-6.406,6.664c-3.539,0-6.407-2.984-6.407-6.664
	S57.269,74.745,60.808,74.745L60.808,74.745z M60.417,111.765c6.461-10.033,14.404-23.604,14.404-30.355
	c0-7.851-5.939-14.903-14.013-14.903c-8.075,0-14.014,7.053-14.014,14.903C46.794,87.722,54.119,102.015,60.417,111.765
	L60.417,111.765z M60.808,58.454c12.184,0,22.065,10.279,22.065,22.955c0,12.675-17.711,37.901-22.065,44.308
	c-5.423-5.694-22.065-31.633-22.065-44.308C38.742,68.733,48.623,58.454,60.808,58.454L60.808,58.454z"/>
</svg>
