<?xml version="1.0" encoding="utf-8"?>
<!DOCTYPE svg PUBLIC "-//W3C//DTD SVG 1.1//EN" "http://www.w3.org/Graphics/SVG/1.1/DTD/svg11.dtd">
<svg version="1.1" xmlns="http://www.w3.org/2000/svg" xmlns:xlink="http://www.w3.org/1999/xlink" x="0px" y="0px" width="216px" height="216px" viewBox="0 0 216 216" enable-background="new 0 0 216 216" xml:space="preserve">
<g>
	<path fill-rule="evenodd" clip-rule="evenodd" d="M71.84,166.968h25.423h23.995h25.424c2.75,0,5,2.715,5,6.033v3.016
		c0,3.318-2.25,6.033-5,6.033h-21.385H93.224H71.84c-2.75,0-5.001-2.715-5.001-6.033v-3.016
		C66.839,169.683,69.089,166.968,71.84,166.968L71.84,166.968z M48.594,73.885L64.96,58.856c0.844-0.774,2.209-0.339,3.035,0.968
		l0,0c0.825,1.308,0.809,3.012-0.034,3.787L51.594,78.639c-0.844,0.774-2.209,0.339-3.034-0.968l0,0
		C47.734,76.363,47.75,74.66,48.594,73.885L48.594,73.885z M48.959,88.44l29.152-26.769c0.844-0.775,2.209-0.339,3.035,0.968l0,0
		c0.825,1.307,0.809,3.011-0.035,3.786L51.958,93.195c-0.844,0.775-2.209,0.339-3.034-0.969l0,0
		C48.1,90.919,48.115,89.215,48.959,88.44L48.959,88.44z M107.426,144.647c-0.826,0-1.5,0.814-1.5,1.811v3.016
		c0,0.996,0.674,1.811,1.5,1.811h3.67c0.824,0,1.5-0.814,1.5-1.811v-3.016c0-0.996-0.676-1.811-1.5-1.811H107.426L107.426,144.647z
		 M103.031,53.249h68.652c1.377,0,2.502,1.358,2.502,3.017v73.899c0,1.659-1.125,3.017-2.502,3.017h-52.404H99.242H46.836
		c-1.375,0-2.5-1.357-2.5-3.017V56.265c0-1.659,1.125-3.017,2.5-3.017h49.803H103.031L103.031,53.249z M171.184,43h-69.45h-3.797
		h-50.6c-5.501,0-10.001,5.429-10.001,12.065v86.566c0,6.637,4.607,10.77,10.001,12.065c20.394,4.901,41.44,6.862,61.923,6.41
		c20.484,0.452,41.531-1.509,61.924-6.41c5.395-1.296,10.002-5.429,10.002-12.065V55.064C181.186,48.429,176.686,43,171.184,43
		L171.184,43z M107.992-0.197c59.631,0,107.991,48.36,107.991,107.992c0,59.631-48.359,107.992-107.991,107.992
		C48.36,215.786,0,167.426,0,107.794C0,48.163,48.36-0.197,107.992-0.197L107.992-0.197z M107.992,6.27
		c56.061,0,101.524,45.463,101.524,101.524s-45.463,101.525-101.524,101.525S6.467,163.855,6.467,107.794S51.931,6.27,107.992,6.27
		L107.992,6.27z"/>
</g>

</svg>
