<?xml version="1.0" encoding="utf-8"?>
<!DOCTYPE svg PUBLIC "-//W3C//DTD SVG 1.1//EN" "http://www.w3.org/Graphics/SVG/1.1/DTD/svg11.dtd">
<svg version="1.1" xmlns="http://www.w3.org/2000/svg" xmlns:xlink="http://www.w3.org/1999/xlink" x="0px" y="0px" width="216px" height="216px" viewBox="0 0 216 216" enable-background="new 0 0 216 216" xml:space="preserve">
<g>
	<path fill-rule="evenodd" clip-rule="evenodd" d="M107.992-0.197c59.631,0,107.991,48.36,107.991,107.992
		c0,59.631-48.359,107.992-107.991,107.992C48.36,215.786,0,167.426,0,107.794C0,48.163,48.36-0.197,107.992-0.197L107.992-0.197z
		 M107.992,6.27c56.061,0,101.524,45.463,101.524,101.524s-45.463,101.525-101.524,101.525S6.467,163.855,6.467,107.794
		S51.931,6.27,107.992,6.27L107.992,6.27z M58.472,41.973h95.599c6.615,0,12.029,5.413,12.029,12.029v108.26
		c0,6.616-5.414,12.029-12.029,12.029H58.472c-6.616,0-12.029-5.413-12.029-12.029V54.001
		C46.443,47.386,51.856,41.973,58.472,41.973L58.472,41.973z M57.839,154.47h77.817v11.286H57.839V154.47L57.839,154.47z
		 M141.596,154.47h12.475v11.286h-12.475V154.47L141.596,154.47z M57.839,137.242h77.817v11.287H57.839V137.242L57.839,137.242z
		 M141.596,137.242h12.475v11.287h-12.475V137.242L141.596,137.242z M83.791,123.964h48.112c-6.768,4.587-15.076,7.292-24.057,7.292
		C98.864,131.256,90.556,128.551,83.791,123.964L83.791,123.964z M107.868,54.002c9.369,0.004,18.003,2.952,24.917,7.909h-49.88
		c6.915-4.957,15.551-7.904,24.918-7.909H107.868L107.868,54.002z M139.533,67.995c2.127,2.408,3.947,5.061,5.408,7.908H70.75
		c1.46-2.847,3.281-5.5,5.407-7.908H139.533L139.533,67.995z M147.406,81.987c0.773,2.539,1.275,5.185,1.48,7.909H66.806
		c0.204-2.724,0.706-5.37,1.479-7.909H147.406L147.406,81.987z M148.834,95.979c-0.25,2.727-0.801,5.373-1.623,7.909H68.48
		c-0.822-2.536-1.373-5.182-1.623-7.909H148.834L148.834,95.979z M144.615,109.972c-1.533,2.857-3.43,5.513-5.637,7.909H76.714
		c-2.208-2.396-4.104-5.052-5.637-7.909H144.615L144.615,109.972z"/>
</g>
</svg>
