<?xml version="1.0" encoding="utf-8"?>
<!DOCTYPE svg PUBLIC "-//W3C//DTD SVG 1.1//EN" "http://www.w3.org/Graphics/SVG/1.1/DTD/svg11.dtd">
<svg version="1.1" xmlns="http://www.w3.org/2000/svg" xmlns:xlink="http://www.w3.org/1999/xlink" x="0px" y="0px" width="216px" height="216px" viewBox="0 0 216 216" enable-background="new 0 0 216 216" xml:space="preserve">
<g>
	<path fill-rule="evenodd" clip-rule="evenodd" d="M107.992-0.197c59.631,0,107.991,48.36,107.991,107.992
		c0,59.631-48.359,107.992-107.991,107.992C48.36,215.786,0,167.426,0,107.794C0,48.163,48.36-0.197,107.992-0.197L107.992-0.197z
		 M107.992,6.27c56.061,0,101.524,45.463,101.524,101.524s-45.463,101.525-101.524,101.525S6.467,163.855,6.467,107.794
		S51.931,6.27,107.992,6.27L107.992,6.27z M54.743,43.462h107.898c9.51,0,17.291,7.781,17.291,17.292v25.605
		c-9.992,0.364-17.982,8.58-17.982,18.661c0,10.08,7.99,18.296,17.982,18.66v27.681c0,9.51-7.781,17.291-17.291,17.291H54.743
		c-9.51,0-17.292-7.781-17.292-17.291v-27.666c10.312,0,18.675-8.363,18.675-18.675c0-10.312-8.363-18.675-18.675-18.675V60.753
		C37.451,51.243,45.232,43.462,54.743,43.462L54.743,43.462z M149.139,95.316c-0.695-2.006-2.48-3.476-4.629-3.795l-20.916-3.11
		L114.5,69.536c-0.953-1.981-3.002-3.25-5.254-3.25c-2.25,0-4.297,1.268-5.254,3.25l-9.091,18.875l-20.917,3.11
		c-2.149,0.319-3.935,1.789-4.626,3.795c-0.692,2.011-0.169,4.227,1.35,5.74l15.327,15.305l-3.555,21.229
		c-0.361,2.137,0.566,4.283,2.381,5.534c0.999,0.685,2.171,1.033,3.343,1.033c0.964,0,1.931-0.236,2.809-0.704l18.233-9.817
		l18.236,9.817c0.879,0.468,1.844,0.704,2.807,0.704c1.174,0,2.344-0.349,3.346-1.033c1.814-1.251,2.74-3.397,2.381-5.534
		l-3.557-21.229l15.33-15.305C149.307,99.542,149.828,97.327,149.139,95.316L149.139,95.316z M128.307,112.413L128.307,112.413
		c-1.285,1.283-1.869,3.086-1.572,4.857l3.555,21.231l-18.234-9.815c-0.875-0.47-1.842-0.706-2.809-0.706
		c-0.964,0-1.931,0.236-2.806,0.706l-18.236,9.815l3.557-21.231c0.297-1.771-0.287-3.574-1.572-4.857L74.862,97.111l20.914-3.115
		c1.911-0.285,3.557-1.48,4.379-3.185l9.091-18.871l9.094,18.871c0.822,1.705,2.465,2.899,4.377,3.185l20.916,3.115L128.307,112.413
		L128.307,112.413z"/>
</g>

</svg>
