<?xml version="1.0" encoding="utf-8"?>
<!DOCTYPE svg PUBLIC "-//W3C//DTD SVG 1.1//EN" "http://www.w3.org/Graphics/SVG/1.1/DTD/svg11.dtd">
<svg version="1.1" xmlns="http://www.w3.org/2000/svg" xmlns:xlink="http://www.w3.org/1999/xlink" x="0px" y="0px" width="216px" height="216px" viewBox="0 0 216 216" enable-background="new 0 0 216 216" xml:space="preserve">
<g>
	<path fill-rule="evenodd" clip-rule="evenodd" d="M107.992-0.197c59.631,0,107.991,48.36,107.991,107.992
		c0,59.631-48.359,107.992-107.991,107.992C48.36,215.786,0,167.426,0,107.794C0,48.163,48.36-0.197,107.992-0.197L107.992-0.197z
		 M107.992,6.27c56.061,0,101.524,45.463,101.524,101.524s-45.463,101.525-101.524,101.525S6.467,163.855,6.467,107.794
		S51.931,6.27,107.992,6.27L107.992,6.27z"/>
	<path fill-rule="evenodd" clip-rule="evenodd" d="M80.436,52.149c7.246,0,13.121,5.876,13.121,13.121
		c0,4.416-2.183,8.321-5.527,10.7c-0.085-1.618-0.126-3.218-0.126-4.79c0-2.33-0.746-4.6-2.286-6.325
		c-0.213-2.677-2.45-4.784-5.182-4.784c-2.578,0-4.716,1.877-5.126,4.338c-1.31,1.573-1.843,3.778-1.794,5.94
		c0.046,2.063,0.151,4.154,0.315,6.257c-3.897-2.275-6.515-6.501-6.515-11.337C67.316,58.025,73.19,52.149,80.436,52.149
		L80.436,52.149z M138.207,52.149L138.207,52.149c7.246,0,13.121,5.876,13.121,13.121c0,4.894-2.682,9.161-6.654,11.417
		c0.145-1.832,0.244-3.653,0.297-5.455c0.066-2.194-0.383-4.553-1.578-6.315c-0.182-2.708-2.434-4.846-5.186-4.846
		c-2.627,0-4.799,1.948-5.148,4.479c-1.68,1.789-2.451,4.194-2.451,6.629c0,1.542-0.039,3.11-0.123,4.697
		c-3.271-2.387-5.396-6.248-5.396-10.607C125.088,58.025,130.961,52.149,138.207,52.149L138.207,52.149z M142.365,71.153
		L142.365,71.153c-0.961,31.893-15.42,57.219-33.111,57.219c-17.847,0-32.409-25.785-33.134-58.082
		c-0.184-8.271,9.176-6.445,9.176,0.89c0,26.061,10.729,47.194,23.958,47.194c13.23,0,23.959-21.133,23.959-47.194
		C133.213,63.568,142.646,61.813,142.365,71.153L142.365,71.153z M69.814,41.8L69.814,41.8h79.35c6.012,0,10.41,4.942,10.932,10.933
		l9.059,103.753c0.525,5.991-4.918,10.935-10.932,10.935H60.755c-6.012,0-11.456-4.943-10.932-10.935l9.058-103.753
		C59.405,46.742,63.802,41.8,69.814,41.8L69.814,41.8z"/>
</g>

</svg>
