<?xml version="1.0" encoding="utf-8"?>
<!DOCTYPE svg PUBLIC "-//W3C//DTD SVG 1.1//EN" "http://www.w3.org/Graphics/SVG/1.1/DTD/svg11.dtd">
<svg version="1.1" xmlns="http://www.w3.org/2000/svg" xmlns:xlink="http://www.w3.org/1999/xlink" x="0px" y="0px" width="216px" height="216px" viewBox="0 0 216 216" enable-background="new 0 0 216 216" xml:space="preserve">
<path fill-rule="evenodd" clip-rule="evenodd" d="M63.14,144.226h11.652V75.771H63.14V144.226L63.14,144.226z M92.343,75.771h-1.53
	v30.04c-7.374,5.661-11.943,14.535-11.943,24.214c0,10.419,5.229,19.619,13.202,25.125h-1.259v17.114
	c0,3.404-2.786,6.189-6.19,6.189h-3.642c-3.404,0-6.19-2.785-6.19-6.189v-17.114H63.14v17.114c0,3.404-2.786,6.189-6.19,6.189
	h-3.641c-3.404,0-6.19-2.785-6.19-6.189V75.771h-2.913c-2.003,0-3.641-1.639-3.641-3.641V59.021c0-2.002,1.638-3.641,3.641-3.641
	h2.913V42.271c0-3.405,2.786-6.19,6.19-6.19h3.641c3.405,0,6.19,2.786,6.19,6.19v13.108h11.652V42.271c0-3.405,2.786-6.19,6.19-6.19
	h3.642c3.404,0,6.19,2.786,6.19,6.19v13.108h11.652V42.271c0-3.405,2.786-6.19,6.19-6.19h3.642c3.404,0,6.189,2.786,6.189,6.19
	v13.108h11.652V42.271c0-3.405,2.785-6.19,6.189-6.19h3.641c3.406,0,6.191,2.786,6.191,6.19v13.108h11.652V42.271
	c0-3.405,2.785-6.19,6.189-6.19h3.641c3.406,0,6.191,2.786,6.191,6.19v13.108h0.729c2.002,0,3.641,1.639,3.641,3.641v13.109
	c0,2.002-1.639,3.641-3.641,3.641h-0.729v96.493c0,3.404-2.785,6.189-6.191,6.189h-3.641c-3.404,0-6.189-2.785-6.189-6.189v-17.114
	H146.16v17.114c0,3.404-2.785,6.189-6.191,6.189h-3.641c-3.404,0-6.189-2.785-6.189-6.189v-17.114h-3.443
	c7.973-5.506,13.201-14.706,13.201-25.125c0-8.668-3.666-16.709-9.758-22.367V75.771h-2.986v-1.457
	c0-9.393-7.648-17.041-17.041-17.041h-0.729c-9.393,0-17.04,7.647-17.04,17.041V75.771L92.343,75.771z M146.16,144.226h11.652
	V75.771H146.16V144.226L146.16,144.226z M118.486,159.155v13.108c0,3.404-2.785,6.189-6.189,6.189h-3.642
	c-3.405,0-6.19-2.785-6.19-6.189v-12.515c2.224,0.516,4.539,0.789,6.918,0.789C112.553,160.538,115.611,160.055,118.486,159.155
	L118.486,159.155z M109.383,149.688c-10.857,0-19.662-8.805-19.662-19.663c0-8.694,5.647-16.072,13.473-18.667V78.502
	c0-3.405,2.785-6.19,6.189-6.19h0.729c3.404,0,6.189,2.786,6.189,6.19v33.114c7.445,2.8,12.746,9.986,12.746,18.408
	C129.047,140.883,120.24,149.688,109.383,149.688L109.383,149.688z M107.992,6.27c56.061,0,101.524,45.463,101.524,101.524
	s-45.463,101.525-101.524,101.525S6.467,163.855,6.467,107.794S51.931,6.27,107.992,6.27L107.992,6.27z M107.992-0.197
	c59.631,0,107.991,48.36,107.991,107.992c0,59.631-48.359,107.992-107.991,107.992C48.36,215.786,0,167.426,0,107.794
	C0,48.163,48.36-0.197,107.992-0.197L107.992-0.197z"/>

</svg>
