<?xml version="1.0" encoding="utf-8"?>
<!DOCTYPE svg PUBLIC "-//W3C//DTD SVG 1.1//EN" "http://www.w3.org/Graphics/SVG/1.1/DTD/svg11.dtd">
<svg version="1.1" xmlns="http://www.w3.org/2000/svg" xmlns:xlink="http://www.w3.org/1999/xlink" x="0px" y="0px" width="216px" height="216px" viewBox="0 0 216 216" enable-background="new 0 0 216 216" xml:space="preserve">
<g>
	<path fill-rule="evenodd" clip-rule="evenodd" d="M107.992-0.197c59.631,0,107.991,48.36,107.991,107.992
		c0,59.631-48.359,107.992-107.991,107.992C48.36,215.786,0,167.426,0,107.794C0,48.163,48.36-0.197,107.992-0.197L107.992-0.197z
		 M107.992,6.27c56.061,0,101.524,45.463,101.524,101.524s-45.463,101.525-101.524,101.525S6.467,163.855,6.467,107.794
		S51.931,6.27,107.992,6.27L107.992,6.27z"/>
	<path fill-rule="evenodd" clip-rule="evenodd" d="M59.969,110.699c14.494,8.101,28.988,16.203,43.482,24.305
		c3.439,1.922,3.216,1.84,6.658-0.084l43.334-24.221c1.455-0.813,3.063-0.861,3.063,3.063v12.348v11.322
		c0,2.349-1.537,3.234-3.063,4.085c-14.676,8.204-29.352,16.407-44.025,24.608c-2.83,1.582-2.642,1.555-5.473-0.027l-43.976-24.581
		c-1.525-0.851-3.062-2.04-3.062-4.393v-11.015v-12.348C56.908,109.734,58.515,109.887,59.969,110.699L59.969,110.699z
		 M171.252,137.129L171.252,137.129l-0.623-47.355l-59.881,33.067c-2.223,1.228-5.86,1.228-8.083,0L32.24,83.951
		c-2.223-1.228-2.223-3.236,0-4.463l70.425-38.891c2.223-1.227,5.859-1.227,8.083,0l67.85,37.468h5.777
		c0.84,0,1.52,0.691,1.529,1.531l0.756,57.533c0.012,0.842-0.689,1.531-1.531,1.531h-12.348
		C171.939,138.66,171.262,137.971,171.252,137.129L171.252,137.129z"/>
</g>

</svg>
