<?xml version="1.0" encoding="utf-8"?>
<!DOCTYPE svg PUBLIC "-//W3C//DTD SVG 1.1//EN" "http://www.w3.org/Graphics/SVG/1.1/DTD/svg11.dtd">
<svg version="1.1" xmlns="http://www.w3.org/2000/svg" xmlns:xlink="http://www.w3.org/1999/xlink" x="0px" y="0px" width="216px" height="216px" viewBox="0 0 216 216" enable-background="new 0 0 216 216" xml:space="preserve">
<g>
	<path fill-rule="evenodd" clip-rule="evenodd" d="M107.992-0.197c59.631,0,107.991,48.36,107.991,107.992
		c0,59.631-48.359,107.992-107.991,107.992C48.36,215.786,0,167.426,0,107.794C0,48.163,48.36-0.197,107.992-0.197L107.992-0.197z
		 M107.992,6.27c56.061,0,101.524,45.463,101.524,101.524s-45.463,101.525-101.524,101.525S6.467,163.855,6.467,107.794
		S51.931,6.27,107.992,6.27L107.992,6.27z"/>
	<path fill-rule="evenodd" clip-rule="evenodd" d="M42.583,50.883h95.739c4.941,0,8.986,4.044,8.986,8.987v18.507
		c1.047,0.017,2.102,0.017,3.154,0.017c3.344,0,6.688,0,10.031,0c5.227,0,5.406-0.344,8.539,3.837
		c5.119,6.827,10.039,13.698,15.385,20.474c3.258,4.124,3.697,4.62,3.697,9.876c0,7.756,0,15.51,0,23.264
		c0,5.81,0.662,5.369-5.158,5.369h-8.389c0.014,0.302,0.021,0.606,0.021,0.912c0,11.522-9.342,20.863-20.861,20.863
		c-11.521,0-20.863-9.341-20.863-20.863c0-0.461,0.016-0.92,0.045-1.375H90.866c0.029,0.455,0.045,0.914,0.045,1.375
		c0,11.522-9.342,20.863-20.862,20.863c-11.52,0-20.862-9.341-20.862-20.863c0-0.461,0.016-0.92,0.046-1.375h-6.649
		c-4.943,0-8.986-4.044-8.986-8.986V59.871C33.597,54.928,37.641,50.883,42.583,50.883L42.583,50.883z M153.729,131.812
		L153.729,131.812c5.695,0,10.316,4.619,10.316,10.315c0,5.697-4.621,10.317-10.316,10.317c-5.697,0-10.318-4.62-10.318-10.317
		C143.41,136.431,148.031,131.812,153.729,131.812L153.729,131.812z M70.049,131.812L70.049,131.812
		c5.697,0,10.317,4.619,10.317,10.315c0,5.697-4.62,10.317-10.317,10.317s-10.316-4.62-10.316-10.317
		C59.733,136.431,64.352,131.812,70.049,131.812L70.049,131.812z M147.309,89.857L147.309,89.857v17.425c10.373,0,17.539,0,27.912,0
		c2.92,0,2.504,0.128,0.73-2.039c-1.871-2.285-3.742-4.57-5.611-6.856c-1.873-2.284-3.742-4.57-5.613-6.856
		c-1.4-1.709-1.406-1.674-3.619-1.674H147.309L147.309,89.857z M124.82,88.464L124.82,88.464
		c-5.793-5.793-11.588-11.586-17.38-17.38c-1.15-1.15-1.228-1.175-2.856-1.175c-3.027,0-6.056,0-9.083,0
		c-2.364,0-2.357-0.25-0.708,1.497c5.21,5.513,10.419,11.027,15.629,16.541c1.889,1.998,1.777,1.638-0.109,3.633
		c-5.195,5.499-10.39,10.997-15.585,16.495c-1.682,1.781-1.428,1.427,0.869,1.427c2.773,0,5.546,0,8.319,0
		c2.207,0,2.334,0.016,3.889-1.54c5.538-5.539,11.077-11.077,16.614-16.615C125.965,89.801,126.389,90.034,124.82,88.464
		L124.82,88.464z M95.342,88.464L95.342,88.464c-5.794-5.793-11.588-11.586-17.381-17.38c-1.151-1.15-1.228-1.175-2.855-1.175
		c-3.029,0-6.057,0-9.085,0c-2.364,0-2.357-0.25-0.708,1.497c5.209,5.513,10.419,11.027,15.63,16.541
		c1.888,1.998,1.776,1.638-0.108,3.633c-5.196,5.499-10.391,10.997-15.586,16.495c-1.681,1.781-1.428,1.427,0.869,1.427
		c2.773,0,5.545,0,8.319,0c2.206,0,2.333,0.016,3.888-1.54c5.539-5.539,11.078-11.077,16.616-16.615
		C96.486,89.801,96.912,90.034,95.342,88.464L95.342,88.464z"/>

</g>
</svg>
