<?xml version="1.0" encoding="utf-8"?>
<!DOCTYPE svg PUBLIC "-//W3C//DTD SVG 1.1//EN" "http://www.w3.org/Graphics/SVG/1.1/DTD/svg11.dtd">
<svg version="1.1" xmlns="http://www.w3.org/2000/svg" xmlns:xlink="http://www.w3.org/1999/xlink" x="0px" y="0px" width="216px" height="216px" viewBox="0 0 216 216" enable-background="new 0 0 216 216" xml:space="preserve">
<g>
	<path fill-rule="evenodd" clip-rule="evenodd" d="M107.992-0.197c59.631,0,107.991,48.36,107.991,107.992
		c0,59.631-48.359,107.992-107.991,107.992C48.36,215.786,0,167.426,0,107.794C0,48.163,48.36-0.197,107.992-0.197L107.992-0.197z
		 M107.992,6.27c56.061,0,101.524,45.463,101.524,101.524s-45.463,101.525-101.524,101.525S6.467,163.855,6.467,107.794
		S51.931,6.27,107.992,6.27L107.992,6.27z"/>
	<path fill-rule="evenodd" clip-rule="evenodd" d="M61.068,102.582c5.587-22.004,24.67-38.216,47.35-38.216
		c22.679,0,41.763,16.212,47.351,38.216c0.787,1.685-3.508,3.038-4.393,1.15c-1.963-4.085-5.9-6.557-9.828-5.788
		c-3.846,0.754-6.529,4.386-6.9,8.783c-0.021,1.928-3.178,2.459-3.572,0.413c-0.66-5.302-4.973-9.396-10.193-9.396
		c-5.596,0-10.146,4.702-10.279,10.552c-0.053,1.844-5.1,1.974-5.073-0.008c-0.136-5.847-4.687-10.543-10.279-10.543
		c-5.196,0-9.492,4.056-10.184,9.322c-0.568,1.688-3.302,1.458-3.444-0.411c-0.394-4.364-3.068-7.961-6.893-8.71
		c-3.889-0.761-7.787,1.654-9.768,5.667C63.913,105.798,60.36,104.878,61.068,102.582L61.068,102.582z M105.063,145.304
		L105.063,145.304c-0.015-0.115-0.023-0.234-0.023-0.352v-30.528c0-1.509,1.234-2.743,2.743-2.743h2.31
		c1.508,0,2.742,1.235,2.742,2.743v30.528c0,0.117-0.006,0.236-0.021,0.352h0.041v0.005c0,5.579-5.581,10.104-12.464,10.104
		c-6.336,0-11.57-3.835-12.36-8.8c-0.188-0.396-0.293-0.839-0.293-1.305v-11.577c0-1.683,1.376-3.062,3.06-3.062h2.148
		c1.683,0,3.06,1.379,3.06,3.062v11.572v0.005c0,1.964,1.964,3.555,4.386,3.555c2.423,0,4.388-1.591,4.388-3.555v-0.005H105.063
		L105.063,145.304z"/>
	<path fill-rule="evenodd" clip-rule="evenodd" d="M167.551,83.327c-18.195-5.373-29.248-18.419-33.281-36.567H78.028
		c-3.995,14.737-13.871,26.197-27.971,32.803c0.002,0.454,0.01,0.909,0.023,1.363c2.011,54.183,12.618,64.113,52.709,93.592
		l0.53,0.693c0.907,1.186,2.751,3.656,4.53,5.761c1.767-2.279,3.615-4.97,4.531-6.248l0.715-0.997
		C153.313,147.098,167.107,136.833,167.551,83.327L167.551,83.327z M179.105,73.342L179.105,73.342
		c0.352,2.622,0.555,5.289,0.596,7.993c0.9,57.041-14.861,72.306-57.438,100.472c-12.723,17.752-14.648,19.025-28.601,0.794
		c-42.927-31.397-53.586-43.526-55.735-101.266c-0.107-3.5,0.069-6.939,0.506-10.299C57.261,65.231,66.711,51.199,67.746,34.6
		h77.084C146.053,54.202,154.895,70.22,179.105,73.342L179.105,73.342z"/>
</g>
</svg>
