<?xml version="1.0" encoding="iso-8859-1"?>
<!-- Generator: Adobe Illustrator 12.0.0, SVG Export Plug-In . SVG Version: 6.00 Build 51448)  -->
<!DOCTYPE svg PUBLIC "-//W3C//DTD SVG 1.1//EN" "http://www.w3.org/Graphics/SVG/1.1/DTD/svg11.dtd" [
	<!ENTITY ns_svg "http://www.w3.org/2000/svg">
	<!ENTITY ns_xlink "http://www.w3.org/1999/xlink">
]>
<svg  version="1.1" id="Layer_1" xmlns="&ns_svg;" xmlns:xlink="&ns_xlink;" width="122.518" height="121.487"
	 viewBox="0 0 122.518 121.487" overflow="visible" enable-background="new 0 0 122.518 121.487" xml:space="preserve">
<path fill-rule="evenodd" clip-rule="evenodd" fill="#FFFFFF" d="M20.075,75.326C8.99,75.326,0,66.337,0,55.252
	s8.99-20.074,20.075-20.074c11.085,0,20.075,8.989,20.075,20.074S31.16,75.326,20.075,75.326L20.075,75.326z M12.045,59.682
	c0,1.261,0.234,2.37,0.704,3.327c0.469,0.95,1.109,1.749,1.914,2.383c0.805,0.64,1.743,1.115,2.82,1.438s2.23,0.481,3.453,0.481
	c0.831,0,1.604-0.063,2.313-0.203c0.71-0.133,1.337-0.298,1.882-0.488c0.545-0.196,1.001-0.393,1.369-0.607
	c0.361-0.21,0.627-0.393,0.786-0.558c0.165-0.159,0.279-0.394,0.342-0.69c0.069-0.305,0.102-0.742,0.102-1.313
	c0-0.387-0.013-0.703-0.032-0.963c-0.025-0.26-0.069-0.476-0.12-0.634c-0.057-0.158-0.133-0.272-0.228-0.342
	c-0.089-0.069-0.197-0.101-0.323-0.101c-0.171,0-0.418,0.101-0.735,0.304c-0.311,0.203-0.716,0.432-1.216,0.678
	c-0.494,0.247-1.083,0.476-1.768,0.679c-0.691,0.203-1.483,0.304-2.389,0.304c-0.596,0-1.128-0.069-1.597-0.208
	c-0.469-0.146-0.868-0.35-1.197-0.609c-0.323-0.26-0.577-0.576-0.748-0.963c-0.178-0.386-0.26-0.811-0.26-1.28
	c0-0.545,0.146-1.014,0.444-1.4c0.297-0.393,0.684-0.741,1.16-1.039c0.313-0.2,0.656-0.393,1.026-0.576h8.282
	c0.121,0,0.22-0.134,0.22-0.297v-1.184c0-0.164-0.099-0.297-0.22-0.297H10.813c-0.121,0-0.221,0.133-0.221,0.297v1.184
	c0,0.163,0.1,0.297,0.221,0.297h1.622C12.174,57.985,12.045,58.778,12.045,59.682L12.045,59.682z M10.813,52.195h8.057l0.228-0.098
	c0.621-0.26,1.172-0.545,1.66-0.849c0.488-0.304,0.881-0.653,1.173-1.04c0.291-0.393,0.437-0.855,0.437-1.388
	c0-0.355-0.07-0.696-0.197-1.02c-0.133-0.323-0.33-0.596-0.596-0.824c-0.266-0.228-0.596-0.411-0.995-0.538
	c-0.393-0.133-0.855-0.197-1.388-0.197c-0.685,0-1.306,0.083-1.876,0.254c-0.57,0.165-1.071,0.349-1.501,0.558
	c-0.437,0.203-0.799,0.393-1.096,0.564c-0.298,0.171-0.514,0.259-0.653,0.259c-0.133,0-0.241-0.038-0.323-0.114
	c-0.082-0.069-0.146-0.19-0.184-0.349c-0.044-0.165-0.076-0.367-0.095-0.614c-0.019-0.248-0.025-0.551-0.025-0.906
	c0-0.323,0.006-0.596,0.013-0.811c0.013-0.215,0.038-0.393,0.07-0.539c0.032-0.14,0.063-0.254,0.108-0.342s0.126-0.19,0.253-0.317
	c0.12-0.121,0.374-0.278,0.76-0.463c0.386-0.184,0.824-0.354,1.318-0.5c0.494-0.152,1.026-0.266,1.597-0.354
	s1.141-0.127,1.705-0.127c1.102,0,2.148,0.14,3.13,0.425c0.982,0.285,1.838,0.716,2.56,1.292c0.729,0.57,1.306,1.299,1.73,2.167
	c0.424,0.875,0.64,1.889,0.64,3.035c0,1.008-0.146,1.863-0.444,2.585c-0.035,0.085-0.072,0.168-0.109,0.25h1.257
	c0.121,0,0.22,0.134,0.22,0.297v1.184c0,0.163-0.099,0.297-0.22,0.297H10.813c-0.121,0-0.221-0.134-0.221-0.297v-1.184
	C10.593,52.329,10.692,52.195,10.813,52.195L10.813,52.195z M60.67,54.809c-11.085,0-20.075-8.99-20.075-20.075
	S49.585,14.66,60.67,14.66s20.074,8.989,20.074,20.074S71.755,54.809,60.67,54.809L60.67,54.809z M70.093,40.377
	c0,1.174-0.21,2.23-0.63,3.174c-0.412,0.937-1.007,1.754-1.769,2.433c-0.763,0.685-1.686,1.23-2.77,1.643
	c-1.076,0.406-2.271,0.664-3.579,0.776l-0.434,4.384c-0.014,0.112-0.042,0.203-0.091,0.287c-0.049,0.084-0.133,0.154-0.266,0.203
	c-0.132,0.056-0.307,0.104-0.531,0.133c-0.224,0.035-0.511,0.056-0.854,0.056c-0.434,0-0.79-0.021-1.056-0.063
	c-0.266-0.042-0.476-0.098-0.622-0.174c-0.147-0.077-0.252-0.175-0.294-0.294c-0.049-0.126-0.063-0.266-0.035-0.413l0.434-4.16
	c-0.587-0.083-1.14-0.188-1.665-0.314c-0.517-0.133-0.986-0.272-1.412-0.434c-0.419-0.154-0.79-0.315-1.098-0.482
	c-0.301-0.161-0.539-0.322-0.692-0.476c-0.161-0.161-0.272-0.392-0.335-0.699c-0.07-0.308-0.105-0.762-0.105-1.364
	c0-0.461,0.014-0.846,0.042-1.146c0.028-0.301,0.07-0.532,0.14-0.7c0.069-0.161,0.153-0.272,0.258-0.335
	c0.105-0.063,0.224-0.091,0.356-0.091c0.182,0,0.441,0.105,0.776,0.308c0.343,0.203,0.783,0.426,1.314,0.678
	c0.531,0.245,1.175,0.468,1.937,0.671c0.755,0.21,1.65,0.308,2.671,0.308c1.601,0,2.79-0.294,3.566-0.888
	c0.776-0.595,1.167-1.385,1.167-2.371c0-0.65-0.167-1.196-0.503-1.615c-0.336-0.427-0.783-0.797-1.343-1.119
	c-0.56-0.321-1.188-0.608-1.895-0.86c-0.699-0.251-1.419-0.518-2.161-0.811c-0.734-0.287-1.455-0.615-2.161-1
	c-0.706-0.384-1.335-0.853-1.895-1.413c-0.56-0.559-1.007-1.237-1.342-2.042c-0.336-0.797-0.503-1.762-0.503-2.895
	c0-1.028,0.175-1.958,0.517-2.797c0.335-0.839,0.832-1.573,1.476-2.202c0.636-0.629,1.426-1.14,2.363-1.524
	c0.937-0.392,2-0.658,3.188-0.791l0.405-4.118c0.014-0.112,0.042-0.203,0.091-0.28c0.049-0.07,0.14-0.14,0.266-0.203
	c0.133-0.063,0.307-0.105,0.524-0.133s0.504-0.042,0.86-0.042c0.427,0,0.776,0.021,1.056,0.063c0.28,0.042,0.497,0.098,0.644,0.175
	c0.153,0.077,0.245,0.175,0.287,0.293c0.042,0.126,0.063,0.266,0.063,0.413l-0.405,3.873c0.378,0.056,0.783,0.126,1.202,0.224
	c0.427,0.098,0.825,0.21,1.188,0.335c0.371,0.133,0.706,0.266,1.007,0.413c0.301,0.14,0.511,0.272,0.622,0.392
	c0.119,0.112,0.203,0.23,0.267,0.342c0.063,0.119,0.111,0.259,0.146,0.434c0.035,0.168,0.056,0.377,0.07,0.615
	c0.014,0.237,0.021,0.51,0.021,0.825c0,0.426-0.007,0.776-0.028,1.049c-0.021,0.272-0.063,0.482-0.118,0.622
	c-0.05,0.146-0.112,0.237-0.183,0.287c-0.069,0.049-0.146,0.07-0.244,0.07c-0.175,0-0.44-0.084-0.776-0.266
	c-0.343-0.175-0.762-0.364-1.266-0.573c-0.496-0.203-1.069-0.392-1.72-0.573c-0.644-0.175-1.356-0.266-2.14-0.266
	c-0.706,0-1.314,0.07-1.825,0.203c-0.503,0.14-0.909,0.329-1.223,0.58c-0.315,0.245-0.545,0.539-0.699,0.881
	c-0.147,0.336-0.224,0.713-0.224,1.126c0,0.636,0.168,1.182,0.511,1.615c0.343,0.44,0.797,0.811,1.363,1.125
	c0.566,0.314,1.21,0.602,1.923,0.86c0.72,0.259,1.447,0.531,2.195,0.818c0.741,0.286,1.476,0.622,2.188,1
	c0.721,0.37,1.356,0.839,1.916,1.391s1.014,1.223,1.356,2.007C69.918,38.321,70.093,39.265,70.093,40.377L70.093,40.377z
	 M102.443,40.149c-11.085,0-20.074-8.989-20.074-20.075C82.369,8.99,91.358,0,102.443,0s20.074,8.99,20.074,20.074
	C122.518,31.16,113.528,40.149,102.443,40.149L102.443,40.149z M111.413,29.392c0,0.605-0.057,1.085-0.169,1.437
	c-0.105,0.352-0.261,0.62-0.451,0.81c-0.189,0.198-0.472,0.395-0.838,0.592c-0.366,0.197-0.81,0.387-1.338,0.557
	c-0.528,0.168-1.134,0.31-1.817,0.422c-0.683,0.112-1.437,0.169-2.261,0.169c-1.556,0-2.929-0.204-4.126-0.599
	c-1.197-0.401-2.219-0.979-3.071-1.725c-0.852-0.754-1.549-1.669-2.077-2.768c-0.527-1.091-0.908-2.331-1.141-3.718h-1.986
	c-0.204,0-0.366-0.134-0.492-0.408c-0.12-0.268-0.184-0.718-0.184-1.345c0-0.317,0.007-0.584,0.028-0.81
	c0.021-0.218,0.057-0.394,0.105-0.521c0.05-0.134,0.105-0.232,0.184-0.289c0.077-0.064,0.169-0.099,0.281-0.099h1.831
	c0-0.205,0-0.422-0.007-0.647c-0.007-0.226-0.007-0.452-0.007-0.669c0-0.274,0-0.549,0.007-0.817
	c0.007-0.267,0.007-0.528,0.007-0.774h-1.831c-0.211,0-0.359-0.127-0.458-0.381c-0.091-0.253-0.141-0.704-0.141-1.352
	c0-0.332,0.014-0.606,0.05-0.824c0.035-0.218,0.084-0.394,0.147-0.528c0.057-0.126,0.134-0.218,0.211-0.274
	c0.085-0.057,0.177-0.084,0.268-0.084h2.127c0.275-1.317,0.677-2.528,1.212-3.62c0.528-1.091,1.204-2.035,2.042-2.831
	c0.831-0.789,1.824-1.402,2.985-1.831c1.162-0.437,2.521-0.655,4.078-0.655c0.718,0,1.408,0.057,2.07,0.155
	c0.669,0.106,1.274,0.24,1.81,0.409c0.535,0.162,0.979,0.331,1.331,0.5c0.353,0.176,0.599,0.323,0.753,0.443
	c0.148,0.127,0.261,0.253,0.332,0.387c0.063,0.127,0.119,0.289,0.162,0.479c0.042,0.197,0.077,0.437,0.105,0.732
	c0.028,0.295,0.042,0.662,0.042,1.084c0,0.373-0.014,0.676-0.042,0.909c-0.028,0.232-0.077,0.422-0.134,0.57
	c-0.063,0.141-0.141,0.239-0.232,0.295c-0.085,0.056-0.184,0.085-0.296,0.085c-0.219,0-0.479-0.099-0.774-0.289
	c-0.296-0.197-0.662-0.402-1.092-0.634c-0.437-0.226-0.951-0.43-1.557-0.612c-0.605-0.19-1.317-0.282-2.127-0.282
	c-0.774,0-1.443,0.105-2.021,0.317c-0.577,0.219-1.076,0.528-1.499,0.944c-0.416,0.408-0.761,0.908-1.021,1.485
	s-0.458,1.226-0.599,1.958h5.655c0.098,0,0.189,0.028,0.281,0.084c0.085,0.057,0.162,0.148,0.212,0.274
	c0.056,0.134,0.104,0.31,0.133,0.528c0.036,0.218,0.057,0.493,0.057,0.824c0,0.647-0.063,1.099-0.189,1.352
	c-0.12,0.254-0.289,0.381-0.493,0.381h-6.063c-0.015,0.225-0.028,0.443-0.035,0.668c-0.007,0.233-0.007,0.479-0.007,0.754
	c0,0.253,0,0.493,0.007,0.732c0.007,0.246,0.021,0.493,0.035,0.753h6.063c0.098,0,0.189,0.035,0.281,0.099
	c0.085,0.056,0.162,0.155,0.212,0.289c0.056,0.127,0.104,0.303,0.133,0.521c0.036,0.226,0.057,0.493,0.057,0.81
	c0,0.627-0.063,1.078-0.189,1.345c-0.12,0.274-0.289,0.408-0.493,0.408h-5.676c0.112,0.697,0.295,1.332,0.563,1.888
	c0.261,0.556,0.606,1.028,1.036,1.408c0.436,0.387,0.964,0.683,1.591,0.887c0.627,0.211,1.373,0.31,2.239,0.31
	c0.81,0,1.515-0.091,2.113-0.288c0.599-0.19,1.119-0.401,1.557-0.641c0.443-0.232,0.81-0.444,1.104-0.634
	c0.296-0.197,0.543-0.289,0.733-0.289c0.112,0,0.211,0.021,0.303,0.078c0.085,0.056,0.162,0.162,0.225,0.323
	c0.063,0.155,0.106,0.374,0.135,0.656C111.398,28.546,111.413,28.927,111.413,29.392L111.413,29.392z M9.459,81.604h24.208
	c2.216,0,4.028,1.613,4.028,3.585v32.713c0,1.972-1.812,3.585-4.028,3.585H9.459c-2.215,0-4.027-1.613-4.027-3.585V85.189
	C5.432,83.218,7.244,81.604,9.459,81.604L9.459,81.604z M13.006,89.18h17.115v24.732H13.006V89.18L13.006,89.18z M49.23,60.992
	h24.961c2.009,0,3.651,2.218,3.651,4.929v50.637c0,2.711-1.643,4.93-3.651,4.93H49.23c-2.008,0-3.651-2.219-3.651-4.93V65.921
	C45.579,63.21,47.222,60.992,49.23,60.992L49.23,60.992z M53.153,68.566h17.116v45.346H53.153V68.566L53.153,68.566z M90.646,46.204
	h24.795c2.054,0,3.734,2.823,3.734,6.273v62.735c0,3.451-1.681,6.274-3.734,6.274H90.646c-2.055,0-3.734-2.823-3.734-6.274V52.478
	C86.912,49.027,88.592,46.204,90.646,46.204L90.646,46.204z M94.486,53.778h17.115v60.134H94.486V53.778L94.486,53.778z"/>
</svg>
