<?xml version="1.0" encoding="utf-8"?>
<!DOCTYPE svg PUBLIC "-//W3C//DTD SVG 1.1//EN" "http://www.w3.org/Graphics/SVG/1.1/DTD/svg11.dtd">
<svg version="1.1" id="Layer_1" xmlns="http://www.w3.org/2000/svg" xmlns:xlink="http://www.w3.org/1999/xlink" x="0px" y="0px" width="216px" height="216px" viewBox="0 0 216 216" enable-background="new 0 0 216 216" xml:space="preserve">
<g>
	<path fill-rule="evenodd" clip-rule="evenodd" d="M55.906,174.752h116.908c0.426,0,0.775,0.33,0.775,0.736v13.238
		c0,0.406-0.35,0.736-0.775,0.736H55.906c-0.427,0-0.776-0.33-0.776-0.736v-13.238C55.13,175.082,55.479,174.752,55.906,174.752
		L55.906,174.752z M38.936,104.874h14.759c0.214,0,0.389,0.166,0.389,0.368v13.975c0,0.203-0.174,0.367-0.389,0.367H38.936
		c-0.213,0-0.389-0.164-0.389-0.367v-13.975C38.547,105.039,38.723,104.874,38.936,104.874L38.936,104.874z M67.17,104.874h14.759
		c0.214,0,0.388,0.166,0.388,0.368v13.975c0,0.203-0.174,0.367-0.388,0.367H67.17c-0.213,0-0.388-0.164-0.388-0.367v-13.975
		C66.782,105.039,66.957,104.874,67.17,104.874L67.17,104.874z M94.357,104.874h14.758c0.215,0,0.389,0.166,0.389,0.368v13.975
		c0,0.203-0.174,0.367-0.389,0.367H94.357c-0.213,0-0.388-0.164-0.388-0.367v-13.975C93.97,105.039,94.144,104.874,94.357,104.874
		L94.357,104.874z M67.17,77.291h14.759c0.214,0,0.388,0.166,0.388,0.368v13.975c0,0.202-0.174,0.368-0.388,0.368H67.17
		c-0.213,0-0.388-0.166-0.388-0.368V77.659C66.782,77.457,66.957,77.291,67.17,77.291L67.17,77.291z M94.357,77.291h14.758
		c0.215,0,0.389,0.166,0.389,0.368v13.975c0,0.202-0.174,0.368-0.389,0.368H94.357c-0.213,0-0.388-0.166-0.388-0.368V77.659
		C93.97,77.457,94.144,77.291,94.357,77.291L94.357,77.291z M67.17,49.708h14.759c0.214,0,0.388,0.166,0.388,0.369v13.975
		c0,0.202-0.174,0.367-0.388,0.367H67.17c-0.213,0-0.388-0.165-0.388-0.367V50.077C66.782,49.874,66.957,49.708,67.17,49.708
		L67.17,49.708z M94.357,49.708h14.758c0.215,0,0.389,0.166,0.389,0.369v13.975c0,0.202-0.174,0.367-0.389,0.367H94.357
		c-0.213,0-0.388-0.165-0.388-0.367V50.077C93.97,49.874,94.144,49.708,94.357,49.708L94.357,49.708z M67.17,132.457h14.759
		c0.214,0,0.388,0.164,0.388,0.367v13.975c0,0.203-0.174,0.369-0.388,0.369H67.17c-0.213,0-0.388-0.166-0.388-0.369v-13.975
		C66.782,132.621,66.957,132.457,67.17,132.457L67.17,132.457z M94.357,132.457h14.758c0.215,0,0.389,0.164,0.389,0.367v13.975
		c0,0.203-0.174,0.369-0.389,0.369H94.357c-0.213,0-0.388-0.166-0.388-0.369v-13.975C93.97,132.621,94.144,132.457,94.357,132.457
		L94.357,132.457z M39.982,132.457h14.758c0.214,0,0.39,0.164,0.39,0.367v13.975c0,0.203-0.176,0.369-0.39,0.369H39.982
		c-0.214,0-0.388-0.166-0.388-0.369v-13.975C39.594,132.621,39.769,132.457,39.982,132.457L39.982,132.457z M146.791,36.835h14.758
		c0.215,0,0.391,0.166,0.391,0.369v26.847c0,0.202-0.176,0.367-0.391,0.367h-14.758c-0.213,0-0.389-0.165-0.389-0.367V37.204
		C146.402,37.001,146.578,36.835,146.791,36.835L146.791,36.835z M148.732,92.003h14.76c0.213,0,0.389,0.165,0.389,0.368v13.975
		c0,0.203-0.176,0.368-0.389,0.368h-14.76c-0.213,0-0.387-0.165-0.387-0.368V92.371C148.346,92.168,148.52,92.003,148.732,92.003
		L148.732,92.003z M123.1,119.586h13.205c0.213,0,0.389,0.166,0.389,0.367v13.977c0,0.201-0.176,0.367-0.389,0.367H123.1v12.229
		c0,1.365,1.18,2.482,2.621,2.482h47.189c1.443,0,2.623-1.117,2.623-2.482V79.774c0-1.365-1.18-2.482-2.623-2.482h-47.189
		c-1.441,0-2.621,1.117-2.621,2.482v12.229h13.205c0.213,0,0.389,0.165,0.389,0.368v13.975c0,0.203-0.176,0.368-0.389,0.368H123.1
		V119.586L123.1,119.586z M148.732,119.586h14.76c0.213,0,0.389,0.166,0.389,0.367v13.977c0,0.201-0.176,0.367-0.389,0.367h-14.76
		c-0.213,0-0.387-0.166-0.387-0.367v-13.977C148.346,119.752,148.52,119.586,148.732,119.586L148.732,119.586z M136.693,25.803
		h34.955c1.068,0,1.941,0.827,1.941,1.839v36.777h10.002c3.045,0,5.535,2.358,5.535,5.242v85.141c0,2.883-2.49,5.24-5.535,5.24
		h-15.828H123.1h-7.77h-60.2H31.389c-2.963,0-5.389-2.297-5.389-5.104V97.105c0-2.807,2.426-5.103,5.389-5.103H55.13V39.824
		c0-2.655,2.293-4.827,5.098-4.827H118c2.805,0,5.1,2.172,5.1,4.827v24.594h11.65V27.642
		C134.75,26.63,135.625,25.803,136.693,25.803L136.693,25.803z"/>
</g>
</svg>
