<?xml version="1.0" encoding="iso-8859-1"?>
<!-- Generator: Adobe Illustrator 12.0.0, SVG Export Plug-In . SVG Version: 6.00 Build 51448)  -->
<!DOCTYPE svg PUBLIC "-//W3C//DTD SVG 1.1//EN" "http://www.w3.org/Graphics/SVG/1.1/DTD/svg11.dtd" [
	<!ENTITY ns_svg "http://www.w3.org/2000/svg">
	<!ENTITY ns_xlink "http://www.w3.org/1999/xlink">
]>
<svg  version="1.1" id="Layer_1" xmlns="&ns_svg;" xmlns:xlink="&ns_xlink;" width="122.038" height="122.235"
	 viewBox="0 0 122.038 122.235" overflow="visible" enable-background="new 0 0 122.038 122.235" xml:space="preserve">
<path fill-rule="evenodd" clip-rule="evenodd" fill="#FFFFFF" d="M76.635,102.287v19.74H47.284v-14.767
	c4.264-1.106,7.749-4.217,9.277-8.3l11.789-1.666C70.384,99.899,73.339,101.688,76.635,102.287L76.635,102.287z M111.481,79.643
	v42.384H82.135v-19.857c5.979-1.358,10.514-6.632,10.514-13.037c0-0.546-0.033-1.089-0.1-1.627l14.458-9.327
	C108.396,78.919,109.909,79.416,111.481,79.643L111.481,79.643z M41.207,107.444v14.583H19.298c1.748-2.215,2.808-4.992,2.846-8.032
	l15.128-7.971C38.5,106.696,39.827,107.176,41.207,107.444L41.207,107.444z M50.098,56.326h10.605l0.301-0.13
	c0.817-0.342,1.543-0.717,2.186-1.117c0.642-0.4,1.159-0.859,1.543-1.368c0.384-0.517,0.575-1.126,0.575-1.827
	c0-0.467-0.091-0.917-0.258-1.343c-0.175-0.426-0.434-0.785-0.784-1.084c-0.351-0.3-0.784-0.542-1.31-0.709
	c-0.518-0.175-1.126-0.259-1.827-0.259c-0.901,0-1.719,0.108-2.469,0.334c-0.751,0.217-1.41,0.458-1.977,0.734
	c-0.576,0.267-1.051,0.517-1.443,0.742c-0.392,0.226-0.676,0.342-0.859,0.342c-0.175,0-0.316-0.05-0.425-0.149
	c-0.109-0.092-0.192-0.251-0.242-0.459c-0.059-0.216-0.1-0.484-0.125-0.809c-0.025-0.325-0.034-0.726-0.034-1.193
	c0-0.426,0.008-0.784,0.017-1.068c0.017-0.284,0.05-0.517,0.091-0.709c0.042-0.184,0.083-0.334,0.142-0.451
	c0.058-0.117,0.167-0.25,0.333-0.417c0.159-0.158,0.493-0.367,1.001-0.609c0.509-0.242,1.084-0.467,1.735-0.659
	c0.65-0.2,1.351-0.35,2.102-0.467c0.751-0.117,1.501-0.167,2.244-0.167c1.451,0,2.828,0.184,4.121,0.559
	c1.293,0.376,2.419,0.943,3.37,1.702c0.959,0.751,1.719,1.71,2.277,2.853c0.559,1.151,0.843,2.486,0.843,3.996
	c0,1.327-0.191,2.453-0.584,3.404c-0.046,0.111-0.095,0.222-0.145,0.33h1.654c0.159,0,0.291,0.176,0.291,0.391v1.558
	c0,0.215-0.132,0.391-0.291,0.391h-22.66c-0.16,0-0.29-0.176-0.29-0.391v-1.558C49.808,56.502,49.938,56.326,50.098,56.326
	L50.098,56.326z M51.719,66.182c0,1.661,0.308,3.12,0.926,4.38c0.617,1.252,1.459,2.303,2.52,3.137
	c1.059,0.843,2.294,1.469,3.712,1.894c1.418,0.426,2.937,0.635,4.547,0.635c1.092,0,2.109-0.084,3.044-0.268
	c0.935-0.175,1.761-0.392,2.478-0.643c0.718-0.259,1.318-0.517,1.802-0.801c0.476-0.275,0.826-0.517,1.035-0.733
	c0.216-0.209,0.366-0.518,0.45-0.91c0.092-0.399,0.134-0.976,0.134-1.727c0-0.509-0.018-0.926-0.042-1.268
	c-0.033-0.342-0.092-0.626-0.159-0.834c-0.074-0.209-0.175-0.359-0.3-0.451c-0.117-0.091-0.259-0.133-0.426-0.133
	c-0.225,0-0.551,0.133-0.968,0.4c-0.408,0.267-0.942,0.567-1.602,0.893c-0.65,0.325-1.426,0.625-2.327,0.892
	c-0.909,0.268-1.952,0.401-3.146,0.401c-0.784,0-1.484-0.092-2.102-0.275c-0.618-0.192-1.143-0.459-1.577-0.801
	c-0.426-0.342-0.759-0.76-0.985-1.269c-0.233-0.509-0.342-1.067-0.342-1.685c0-0.718,0.192-1.335,0.584-1.844
	c0.392-0.518,0.901-0.976,1.526-1.368c0.413-0.264,0.865-0.517,1.352-0.759h10.903c0.159,0,0.291-0.176,0.291-0.391v-1.558
	c0-0.215-0.132-0.391-0.291-0.391h-22.66c-0.16,0-0.29,0.175-0.29,0.391v1.558c0,0.215,0.13,0.391,0.29,0.391h2.135
	C51.888,63.949,51.719,64.992,51.719,66.182L51.719,66.182z M62.16,82.699c-12.383,0-22.425-10.042-22.425-22.424
	S49.777,37.851,62.16,37.851c12.382,0,22.423,10.042,22.423,22.424S74.542,82.699,62.16,82.699L62.16,82.699z M24.635,24.296
	C33.894,15.038,46.646,9.272,60.743,9.15v24.265c-7.397,0.121-14.084,3.17-18.952,8.037L24.635,24.296L24.635,24.296z
	 M20.322,92.531C13.53,83.78,9.484,72.792,9.484,60.859c0-0.152,0.004-0.303,0.005-0.455h24.265
	c-0.002,0.151-0.006,0.303-0.006,0.455c0,5.737,1.763,11.064,4.774,15.47c0.843,1.232,1.785,2.394,2.813,3.472l1.425,1.186
	c-6.689,0.523-12.103,5.869-12.458,12.628l-6.387,3.365L20.322,92.531L20.322,92.531z M0.429,55.354
	C1.583,42.45,6.755,30.703,14.686,21.372l20.37,20.37c-2.896,3.952-4.917,8.585-5.778,13.613H0.429L0.429,55.354z M65.629,0
	c29.803,2.14,53.683,25.695,56.336,55.354H93.117c-2.369-13.83-13.509-24.667-27.488-26.582V0L65.629,0z M113.449,57.995
	c4.743,0,8.589,3.767,8.589,8.411c0,4.644-3.846,8.41-8.589,8.41c-2.473,0-4.701-1.025-6.269-2.663L86.756,85.331
	c0.592,1.142,0.926,2.433,0.926,3.801c0,4.644-3.847,8.41-8.589,8.41c-3.751,0-6.939-2.355-8.11-5.637l-18.556,2.623
	c-0.112,4.548-3.914,8.203-8.586,8.203c-2.411,0-4.59-0.974-6.15-2.542l-20.933,11.03c0.273,0.82,0.421,1.696,0.421,2.605
	c0,4.645-3.846,8.41-8.589,8.41c-4.743,0-8.589-3.766-8.589-8.41c0-4.644,3.846-8.41,8.589-8.41c2.232,0,4.267,0.835,5.794,2.202
	l21.152-11.146c-0.185-0.687-0.284-1.407-0.284-2.151c0-4.644,3.846-8.41,8.589-8.41c3.274,0,6.121,1.796,7.57,4.436l19.23-2.719
	c0.725-3.927,4.233-6.906,8.452-6.906c1.748,0,3.374,0.513,4.731,1.392l21.276-13.727c-0.156-0.635-0.24-1.298-0.24-1.979
	C104.86,61.762,108.706,57.995,113.449,57.995L113.449,57.995z M8.589,109.62c2.372,0,4.295,1.883,4.295,4.205
	s-1.923,4.206-4.295,4.206s-4.294-1.884-4.294-4.206S6.217,109.62,8.589,109.62L8.589,109.62z M43.84,90.115
	c2.372,0,4.295,1.884,4.295,4.205c0,2.322-1.923,4.206-4.295,4.206c-2.371,0-4.294-1.884-4.294-4.206
	C39.546,91.999,41.469,90.115,43.84,90.115L43.84,90.115z M79.093,84.927c2.371,0,4.294,1.883,4.294,4.205
	c0,2.321-1.923,4.205-4.294,4.205c-2.372,0-4.295-1.884-4.295-4.205C74.798,86.81,76.721,84.927,79.093,84.927L79.093,84.927z
	 M113.449,62.201c2.371,0,4.295,1.883,4.295,4.206c0,2.321-1.924,4.205-4.295,4.205s-4.295-1.884-4.295-4.205
	C109.154,64.084,111.078,62.201,113.449,62.201L113.449,62.201z"/>
</svg>
