<?xml version="1.0" encoding="iso-8859-1"?>
<!-- Generator: Adobe Illustrator 12.0.0, SVG Export Plug-In . SVG Version: 6.00 Build 51448)  -->
<!DOCTYPE svg PUBLIC "-//W3C//DTD SVG 1.1//EN" "http://www.w3.org/Graphics/SVG/1.1/DTD/svg11.dtd" [
	<!ENTITY ns_svg "http://www.w3.org/2000/svg">
	<!ENTITY ns_xlink "http://www.w3.org/1999/xlink">
]>
<svg  version="1.1" id="Layer_1" xmlns="&ns_svg;" xmlns:xlink="&ns_xlink;" width="122.39" height="122.391"
	 viewBox="0 0 122.39 122.391" overflow="visible" enable-background="new 0 0 122.39 122.391" xml:space="preserve">
<path fill-rule="evenodd" clip-rule="evenodd" fill="#FFFFFF" d="M0,0h110.151c6.731,0,12.239,5.508,12.239,12.239v97.912
	c0,6.731-5.508,12.239-12.239,12.239H0V0L0,0z M4.882,11.175h6.292c1.17,0,2.128,0.957,2.128,2.128v1.064
	c0,1.171-0.958,2.128-2.128,2.128H4.882v6.386h6.292c1.17,0,2.128,0.958,2.128,2.128v1.064c0,1.171-0.958,2.129-2.128,2.129H4.882
	v6.385h6.292c1.17,0,2.128,0.958,2.128,2.128v1.064c0,1.171-0.958,2.128-2.128,2.128H4.882v6.385h6.292
	c1.17,0,2.128,0.958,2.128,2.128v1.064c0,1.171-0.958,2.128-2.128,2.128H4.882v6.385h6.292c1.17,0,2.128,0.958,2.128,2.129v1.064
	c0,1.171-0.958,2.128-2.128,2.128H4.882v6.386h6.292c1.17,0,2.128,0.957,2.128,2.128V72.9c0,1.171-0.958,2.129-2.128,2.129H4.882
	v6.385h6.292c1.17,0,2.128,0.958,2.128,2.129v1.064c0,1.171-0.958,2.128-2.128,2.128H4.882v6.386h6.292
	c1.17,0,2.128,0.958,2.128,2.129v1.064c0,1.17-0.958,2.128-2.128,2.128H4.882v6.385h6.292c1.17,0,2.128,0.958,2.128,2.129v1.064
	c0,1.171-0.958,2.128-2.128,2.128H4.882v7.359h14.807v-40.35C31.396,68.645,43.103,60.13,54.81,51.616
	c0.646-0.58,1.287-0.561,2.128,0L75.03,63.323c1.064,1.064,2.502,1.01,3.193,0l24.844-37.762l-6.476,1.161l-0.803-4.757
	l13.845-2.483l2.248,13.321l-4.615,0.827l-0.986-5.844l-1.982,3.157v86.565h5.854c4.036,0,7.356-3.32,7.356-7.356V12.239
	c0-4.037-3.32-7.357-7.356-7.357H4.882V11.175L4.882,11.175z M99.138,117.508V39.159l-6.19,9.859v68.49H99.138L99.138,117.508z
	 M87.789,117.508V57.234l-6.191,9.859v50.414H87.789L87.789,117.508z M76.438,117.508V68.96l-6.19-3.939v52.487H76.438
	L76.438,117.508z M65.088,117.508V61.737l-6.191-3.939v59.71H65.088L65.088,117.508z M53.739,117.508V57.526l-6.191,4.793v55.188
	H53.739L53.739,117.508z M42.389,117.508V66.313l-6.191,4.793v46.401H42.389L42.389,117.508z M31.039,117.508V75.101l-6.19,4.793
	v37.614H31.039L31.039,117.508z"/>
</svg>
