<?xml version="1.0" encoding="iso-8859-1"?>
<!-- Generator: Adobe Illustrator 12.0.0, SVG Export Plug-In . SVG Version: 6.00 Build 51448)  -->
<!DOCTYPE svg PUBLIC "-//W3C//DTD SVG 1.1//EN" "http://www.w3.org/Graphics/SVG/1.1/DTD/svg11.dtd" [
	<!ENTITY ns_svg "http://www.w3.org/2000/svg">
	<!ENTITY ns_xlink "http://www.w3.org/1999/xlink">
]>
<svg  version="1.1" id="Layer_1" xmlns="&ns_svg;" xmlns:xlink="&ns_xlink;" width="137.774" height="122.573"
	 viewBox="0 0 137.774 122.573" overflow="visible" enable-background="new 0 0 137.774 122.573" xml:space="preserve">
<path fill="#FFFFFF" d="M112.36,11.491h-16.6v-7.66C95.761,1.713,94.045,0,91.93,0c-2.114,0-3.831,1.713-3.831,3.831v7.66h-22.98
	v-7.66C65.118,1.713,63.402,0,61.287,0s-3.831,1.713-3.831,3.831v7.66H34.474v-7.66c0-2.117-1.714-3.831-3.83-3.831
	c-2.115,0-3.831,1.713-3.831,3.831v7.66H10.214C4.574,11.491,0,16.062,0,21.703v90.654c0,5.643,4.574,10.217,10.214,10.217H112.36
	c5.641,0,10.213-4.574,10.213-10.217V45.783c-2.634,4.396-5.182,8.845-7.66,13.332v53.242l0,0c0,1.41-1.145,2.555-2.553,2.555
	H10.214c-1.408,0-2.553-1.145-2.553-2.555V21.703c0-1.406,1.145-2.55,2.553-2.55h16.599v7.661c0,2.116,1.716,3.83,3.831,3.83
	c2.115,0,3.83-1.713,3.83-3.83v-7.661h22.983v7.661c0,2.116,1.715,3.83,3.831,3.83s3.831-1.713,3.831-3.83v-7.661h22.98v7.661
	c0,2.116,1.717,3.83,3.831,3.83c2.115,0,3.831-1.713,3.831-3.83v-7.661h16.6c1.408,0,2.553,1.145,2.553,2.55v0.813
	c2.043-2.027,4.138-4,6.306-5.897C119.456,13.554,116.149,11.491,112.36,11.491L112.36,11.491z M26.813,57.456h15.322V45.965H26.813
	V57.456L26.813,57.456z M26.813,76.608h15.322V65.116H26.813V76.608L26.813,76.608z M26.813,95.761h15.322V84.269H26.813V95.761
	L26.813,95.761z M53.626,95.761h15.321V84.269H53.626V95.761L53.626,95.761z M53.626,76.608h15.321V65.116H53.626V76.608
	L53.626,76.608z M53.626,57.456h15.321v-8.563L68.9,48.848c-0.837-0.818-1.42-1.813-1.761-2.883H53.626V57.456L53.626,57.456z
	 M80.439,95.761h15.321V84.269H80.439V95.761L80.439,95.761z M80.439,76.608h11.687c-2.564-3.972-5.361-7.799-8.332-11.492h-3.354
	V76.608L80.439,76.608z M136.791,11.896c0.467-0.219,1.223,0.84,0.91,1.251c-14.622,19.237-26.604,40.271-37.62,61.965
	c-0.338,0.665-1.843,0.604-2.239-0.028c-6.685-10.686-15.213-20.71-24.999-30.271c-0.635-0.621-0.509-1.957,0.028-2.665
	c1.688-2.221,3.851-3.311,5.383-4.275c1.532-0.964,2.696-0.602,3.347-0.085c4.961,3.933,9.367,8.224,14.259,12.242
	c0.425,0.349,1.272,0.264,1.644-0.142c10.498-11.473,20.226-23.718,32.283-33.022C132.053,15.117,134.2,13.113,136.791,11.896
	L136.791,11.896z"/>
</svg>
