<?xml version="1.0" encoding="utf-8"?>
<!DOCTYPE svg PUBLIC "-//W3C//DTD SVG 1.1//EN" "http://www.w3.org/Graphics/SVG/1.1/DTD/svg11.dtd">
<svg version="1.1" xmlns="http://www.w3.org/2000/svg" xmlns:xlink="http://www.w3.org/1999/xlink" x="0px" y="0px" width="216px" height="216px" viewBox="0 0 216 216" enable-background="new 0 0 216 216" xml:space="preserve">
 
<g>

	<path display="inline" fill-rule="evenodd" clip-rule="evenodd" d="M120.828,89.022h14.716l0.417-0.18
		c1.134-0.475,2.141-0.995,3.033-1.552c0.892-0.554,1.608-1.192,2.143-1.897c0.532-0.718,0.798-1.563,0.798-2.535
		c0-0.648-0.127-1.273-0.359-1.864c-0.242-0.59-0.602-1.087-1.088-1.504c-0.486-0.417-1.089-0.752-1.817-0.984
		c-0.717-0.243-1.563-0.358-2.534-0.358c-1.251,0-2.385,0.15-3.428,0.463c-1.04,0.3-1.956,0.636-2.742,1.018
		c-0.799,0.371-1.458,0.717-2.002,1.03c-0.546,0.313-0.939,0.475-1.193,0.475c-0.242,0-0.439-0.069-0.59-0.208
		c-0.151-0.127-0.267-0.348-0.336-0.636c-0.081-0.301-0.139-0.672-0.173-1.123c-0.035-0.452-0.048-1.007-0.048-1.655
		c0-0.59,0.013-1.088,0.024-1.482c0.023-0.393,0.069-0.718,0.127-0.984c0.058-0.254,0.115-0.463,0.196-0.625
		c0.082-0.162,0.232-0.348,0.463-0.579c0.221-0.22,0.684-0.509,1.391-0.845c0.705-0.336,1.503-0.648,2.406-0.915
		c0.904-0.278,1.875-0.486,2.918-0.648c1.04-0.162,2.083-0.231,3.113-0.231c2.014,0,3.925,0.254,5.718,0.776
		c1.793,0.521,3.356,1.308,4.677,2.361c1.331,1.042,2.386,2.373,3.16,3.959c0.776,1.597,1.169,3.45,1.169,5.545
		c0,1.84-0.266,3.403-0.81,4.723c-0.065,0.155-0.131,0.307-0.201,0.458h2.296c0.221,0,0.403,0.244,0.403,0.542v2.162
		c0,0.297-0.183,0.542-0.403,0.542h-31.443c-0.22,0-0.403-0.245-0.403-0.542v-2.162C120.425,89.265,120.608,89.022,120.828,89.022
		L120.828,89.022z M123.078,102.698c0,2.303,0.428,4.328,1.285,6.076c0.856,1.737,2.025,3.196,3.495,4.352
		c1.47,1.17,3.184,2.038,5.151,2.629c1.969,0.59,4.075,0.88,6.31,0.88c1.516,0,2.928-0.116,4.225-0.371
		c1.296-0.243,2.442-0.544,3.438-0.892c0.995-0.358,1.829-0.718,2.5-1.11c0.659-0.383,1.146-0.719,1.436-1.02
		c0.3-0.29,0.509-0.718,0.624-1.262c0.129-0.555,0.187-1.354,0.187-2.396c0-0.706-0.023-1.284-0.058-1.758
		c-0.048-0.475-0.129-0.868-0.221-1.158c-0.103-0.29-0.244-0.499-0.417-0.625c-0.161-0.127-0.359-0.185-0.59-0.185
		c-0.313,0-0.765,0.185-1.342,0.556c-0.568,0.37-1.31,0.787-2.223,1.237c-0.903,0.452-1.98,0.869-3.229,1.239
		c-1.263,0.371-2.711,0.556-4.365,0.556c-1.088,0-2.059-0.127-2.917-0.382c-0.855-0.268-1.585-0.637-2.187-1.111
		c-0.592-0.475-1.055-1.053-1.366-1.76c-0.323-0.706-0.475-1.481-0.475-2.338c0-0.995,0.266-1.852,0.811-2.558
		c0.544-0.718,1.249-1.354,2.116-1.898c0.572-0.366,1.2-0.717,1.877-1.053h15.129c0.221,0,0.403-0.244,0.403-0.542v-2.162
		c0-0.298-0.183-0.542-0.403-0.542h-31.443c-0.22,0-0.403,0.244-0.403,0.542v2.162c0,0.298,0.184,0.542,0.403,0.542h2.963
		C123.313,99.599,123.078,101.046,123.078,102.698L123.078,102.698z M107.942,149.263c5.338-0.907,10.505-3.479,14.644-7.673
		c3.164-3.204,5.374-6.997,6.625-11.006c1.231,0.314,2.488,0.564,3.77,0.745v28.535l-18.351-2.829
		C112.787,154.651,110.521,151.881,107.942,149.263L107.942,149.263z M45.659,133.33h20.665v67.79H45.659V133.33L45.659,133.33z
		 M98.839,180.945c0.888-1.185,2.451-2.011,3.93-2.068l43.226,0.206c1.954-0.144,4.355-1.772,4.552-3.723
		c0.194-1.95-1.841-4.006-3.724-4.55c-12.078-3.495-24.348-2.398-36.297-6.309c-3.244-1.062-4.805-6.252-7.448-9.199
		c-3.463-3.105-4.532-4.765-8.952-6.214l-18.656,0.185v37.352l52.326,17.277c2.717,0.775,5.893,1.138,8.48,0l62.046-31.024
		c1.729-1.021,1.462-4.172,0.62-5.997c-0.672-1.456-2.803-2.514-4.344-2.068l-37.222,14.095c-0.539,2.329-1.94,3.794-3.521,5.14
		c-1.833,1.558-4.016,3.117-6.413,3.309l-45.086,0.828c-1.755-0.097-3.213-1.469-3.981-3.049
		C97.829,184.011,98.09,181.943,98.839,180.945L98.839,180.945z M155.505,126.998c8.391-4.837,14.527-13.022,16.445-22.643
		l23.033-2.654l-3.69,24.414c-0.586,3.871-3.455,7.51-6.074,10.26c-6.818,7.155-18.101,6.143-24.811-0.657
		C157.963,133.244,156.312,130.205,155.505,126.998L155.505,126.998z M104.522,104.334c1.607,10.02,8.047,18.487,16.93,23.238
		c-0.849,3.015-2.451,5.858-4.763,8.197c-6.71,6.799-17.992,7.811-24.81,0.656c-2.62-2.749-5.489-6.389-6.075-10.259l-3.69-24.414
		L104.522,104.334L104.522,104.334z M142.686,131.361c1.752-0.235,3.464-0.6,5.124-1.084c1.237,4.104,3.471,7.989,6.702,11.261
		c10.279,10.413,26.901,10.839,36.704,0.552c4.306-4.519,7.453-9.348,8.27-14.736l4.033-26.686c1.186-8.5,0.342-8.678-7.721-7.4
		l-23.246,2.678c-0.271-7.088-2.228-13.459-6.258-18.607l-21.439-27.385c-6.141-8.568-7.07-9.184-13.805-0.383l-20.864,27.914
		c-3.773,5.051-5.436,11.417-5.917,18.481l-22.967-2.647c-8.063-1.277-8.908-1.1-7.722,7.401l4.034,26.686
		c0.716,4.736,3.235,9.041,6.759,13.082l-8.903,0.09v-11.605c0-3.273-1.983-5.95-4.409-5.95H40.922c-2.425,0-4.409,2.677-4.409,5.95
		v75.344c0,3.272,1.984,5.951,4.409,5.951h30.138c2.425,0,4.409-2.679,4.409-5.951v-9.032l44.052,15.65
		c3.764,1.245,7.632,2.371,11.582,2.688c2.169,0.175,4.442-0.313,6.411-1.24l66.39-33.092c11.371-8.464,0.532-26.7-11.227-23.19
		l-36.496,12.638c-0.605-1.461-3.111-5.424-5.845-6.198l-7.651-1.18V131.361L142.686,131.361z"/>

</g>

</svg>
