<?xml version="1.0" encoding="utf-8"?>
<!DOCTYPE svg PUBLIC "-//W3C//DTD SVG 1.1//EN" "http://www.w3.org/Graphics/SVG/1.1/DTD/svg11.dtd">
<svg version="1.1" xmlns="http://www.w3.org/2000/svg" xmlns:xlink="http://www.w3.org/1999/xlink" x="0px" y="0px" width="216px" height="216px" viewBox="0 0 216 216" enable-background="new 0 0 216 216" xml:space="preserve">
    
<g>

	<path display="inline" fill-rule="evenodd" clip-rule="evenodd" d="M131.882,67.339h71.812
		c5.493,0,9.988,4.388,9.988,9.751v45.73c0,5.364-4.495,9.752-9.988,9.752H189.12c-1.553-11.852-5.82-22.874-12.17-32.458h26.035
		V87.319H166.38C156.924,78.05,145.104,71.078,131.882,67.339L131.882,67.339z M12.488,67.339h77.148
		c5.494,0,9.988,4.388,9.988,9.751v45.73c0,5.364-4.494,9.752-9.988,9.752H12.488c-5.493,0-9.988-4.388-9.988-9.752v-22.442V86.887
		V77.09C2.5,71.727,6.995,67.339,12.488,67.339L12.488,67.339z M89.981,100.378H73.52l0.001-0.068c0-5.02-1.667-9.659-4.488-13.423
		h20.948v-9.46H72.838H12.144v9.46h19.242c-2.821,3.764-4.488,8.403-4.488,13.423l0.001,0.068H12.144v23.452h21.622h56.215V100.378
		L89.981,100.378z"/>
</g>

</svg>
