<?xml version="1.0" encoding="utf-8"?>
<!DOCTYPE svg PUBLIC "-//W3C//DTD SVG 1.1//EN" "http://www.w3.org/Graphics/SVG/1.1/DTD/svg11.dtd">
<svg version="1.1" xmlns="http://www.w3.org/2000/svg" xmlns:xlink="http://www.w3.org/1999/xlink" x="0px" y="0px" width="216px" height="216px" viewBox="0 0 216 216" enable-background="new 0 0 216 216" xml:space="preserve">
    
<g id="_x30_5_x5F_terminovy_x5F_perekaz">

	<path display="inline" fill="#61BFB9" d="M109.519,71.411c-0.858,0-1.502,0.02-2.353,0.048c0,22.861,0,45.816,0,68.795
		c-20.752,0-40.282,0-61.041,0H36.58l0.015,2.352c0,39.321,32.648,71.196,72.923,71.196c40.273,0,72.922-31.875,72.922-71.196
		C182.44,103.286,149.792,71.411,109.519,71.411L109.519,71.411z M172.912,140.31L172.912,140.31h-28.211
		c-0.257-10.174-2.109-19.895-5.397-28.789c6.346-2.588,12.217-6.027,17.574-10.092C166.396,111.856,172.352,125.404,172.912,140.31
		L172.912,140.31z M106.917,204.485L106.917,204.485c-7.819-6.356-14.376-14.609-19.177-24.195
		c6.157-1.88,12.685-2.907,19.425-3.118v27.327C107.083,204.494,107,204.489,106.917,204.485L106.917,204.485z M112.115,80.727
		L112.115,80.727c8.87,7.214,16.111,16.87,21.009,28.139c-6.702,2.237-13.836,3.534-21.253,3.768V80.714
		C111.953,80.719,112.031,80.723,112.115,80.727L112.115,80.727z M119.946,81.508L119.946,81.508
		c12.983,2.108,24.641,8.03,33.707,16.601c-4.928,3.688-10.311,6.814-16.122,9.179C133.244,97.377,127.238,88.617,119.946,81.508
		L119.946,81.508z M107.166,144.902L107.166,144.902v27.677c-7.42,0.22-14.592,1.404-21.355,3.53
		c-4.076-9.47-6.477-20.024-6.772-31.207H107.166L107.166,144.902z M99.089,203.704L99.089,203.704
		c-11.635-1.888-22.201-6.835-30.792-14.018c4.636-3.135,9.644-5.79,14.996-7.809C87.396,190.186,92.767,197.555,99.089,203.704
		L99.089,203.704z M111.871,204.499L111.871,204.499v-27.327c6.739,0.211,13.267,1.238,19.425,3.118
		c-4.802,9.586-11.359,17.839-19.177,24.195C112.037,204.489,111.953,204.494,111.871,204.499L111.871,204.499z M135.742,181.878
		L135.742,181.878c5.354,2.019,10.361,4.674,14.996,7.809c-8.59,7.183-19.159,12.13-30.792,14.018
		C126.271,197.555,131.64,190.186,135.742,181.878L135.742,181.878z M133.226,176.109L133.226,176.109
		c-6.764-2.126-13.938-3.311-21.354-3.53v-27.677h28.127C139.703,156.085,137.301,166.64,133.226,176.109L133.226,176.109z
		 M111.871,140.31L111.871,140.31v-23.083c8.044-0.237,15.771-1.669,23.027-4.126c3.101,8.4,4.845,17.592,5.1,27.209H111.871
		L111.871,140.31z M46.125,144.902L46.125,144.902h28.208c0.294,11.735,2.803,22.819,7.071,32.781
		c-5.958,2.27-11.517,5.293-16.645,8.868C53.709,175.821,46.74,161.146,46.125,144.902L46.125,144.902z M154.277,186.552
		L154.277,186.552c-5.13-3.575-10.687-6.599-16.646-8.868c4.27-9.962,6.778-21.046,7.07-32.781h28.211
		C172.296,161.146,165.326,175.821,154.277,186.552L154.277,186.552z"/>
	<path display="inline" fill-rule="evenodd" clip-rule="evenodd" fill="#F68D72" d="M130.634,50.546
		c0.146,1.95-0.127,3.91-0.127,5.864c0.057,4.362-0.26,7.02,7.258,0.349l23.502-20.859c5.569-4.942,5.556-4.533-0.012-9.477
		c-7.722-6.853-15.441-13.705-23.164-20.558c-6.871-6.1-7.546-3.073-7.584-0.432v6.243l9.901,8.786
		c3.101,2.751,6.391,5.934,9.691,9.768c0.927,1.075,0.991,1.801,0.007,2.837c-3.219,3.395-6.528,5.988-9.687,8.793L130.634,50.546
		L130.634,50.546z M75.318,15.276c-16.395,2.407-28.915,15.239-28.915,30.706l0.092,16.362c-0.103,3.083,4.909,2.873,5.201-0.773
		c1.222-15.267,14.26-14.938,25.825-15.132v-0.009c0.294,0.003,0.607,0.005,0.945,0.005h21.131c4.274,0.207,7.197,0.694,7.456,2.268
		c0.373,2.26,0,4.536,0,6.806c0.056,4.289-0.257,6.902,7.136,0.342l23.109-20.511c5.478-4.86,5.464-4.458-0.01-9.319
		c-7.594-6.737-15.186-13.476-22.777-20.214c-6.759-5.999-7.421-3.022-7.458-0.426c0,2.392,0,4.783,0,7.176
		c-1.22,2.147-3.85,2.468-7.456,2.38c-7.177,0-12.744,0-19.92,0C77.671,14.937,76.282,15.06,75.318,15.276L75.318,15.276z
		 M50.209,118.744c-10.426,0-18.882-8.255-18.882-18.435s8.456-18.436,18.882-18.436c10.427,0,18.883,8.256,18.883,18.436
		S60.636,118.744,50.209,118.744L50.209,118.744z M41.418,105.166c0,1.364,0.26,2.564,0.78,3.601
		c0.52,1.028,1.229,1.892,2.122,2.578c0.892,0.692,1.932,1.207,3.125,1.557s2.473,0.521,3.829,0.521c0.92,0,1.777-0.068,2.563-0.22
		c0.787-0.144,1.482-0.322,2.086-0.528c0.605-0.213,1.11-0.425,1.518-0.658c0.4-0.226,0.695-0.425,0.871-0.604
		c0.183-0.171,0.309-0.425,0.379-0.747c0.077-0.329,0.112-0.803,0.112-1.42c0-0.418-0.014-0.761-0.035-1.042
		c-0.028-0.281-0.077-0.515-0.133-0.686c-0.063-0.172-0.147-0.296-0.253-0.371c-0.098-0.075-0.217-0.109-0.358-0.109
		c-0.19,0-0.463,0.109-0.815,0.329c-0.344,0.22-0.794,0.467-1.349,0.733c-0.547,0.268-1.201,0.515-1.959,0.734
		c-0.766,0.22-1.644,0.329-2.648,0.329c-0.661,0-1.25-0.075-1.771-0.227c-0.52-0.157-0.962-0.377-1.328-0.658
		c-0.358-0.281-0.639-0.624-0.829-1.042c-0.197-0.419-0.288-0.878-0.288-1.386c0-0.59,0.162-1.098,0.491-1.516
		c0.331-0.425,0.759-0.803,1.286-1.125c0.347-0.217,0.728-0.425,1.138-0.624h9.181c0.135,0,0.245-0.145,0.245-0.321v-1.28
		c0-0.177-0.11-0.321-0.245-0.321H40.053c-0.135,0-0.245,0.145-0.245,0.321v1.28c0,0.177,0.11,0.321,0.245,0.321h1.798
		C41.56,103.33,41.418,104.188,41.418,105.166L41.418,105.166z M40.053,97.063h8.931l0.253-0.107c0.688-0.28,1.299-0.59,1.84-0.918
		c0.541-0.33,0.977-0.707,1.299-1.125c0.324-0.426,0.485-0.926,0.485-1.502c0-0.384-0.077-0.755-0.218-1.104
		c-0.147-0.35-0.365-0.645-0.661-0.892c-0.295-0.247-0.66-0.445-1.103-0.583c-0.436-0.145-0.948-0.212-1.539-0.212
		c-0.758,0-1.447,0.089-2.079,0.273c-0.632,0.179-1.187,0.378-1.665,0.604c-0.485,0.22-0.885,0.426-1.215,0.61
		c-0.33,0.186-0.569,0.281-0.724,0.281c-0.147,0-0.267-0.041-0.358-0.123c-0.091-0.075-0.161-0.206-0.203-0.377
		c-0.05-0.179-0.085-0.398-0.106-0.665c-0.021-0.268-0.028-0.598-0.028-0.981c0-0.35,0.007-0.645,0.014-0.878
		c0.014-0.232,0.042-0.425,0.077-0.583c0.036-0.15,0.071-0.274,0.12-0.37s0.141-0.205,0.281-0.343
		c0.133-0.13,0.414-0.302,0.843-0.501c0.429-0.199,0.914-0.384,1.461-0.542c0.548-0.164,1.138-0.287,1.77-0.384
		c0.632-0.096,1.265-0.137,1.89-0.137c1.222,0,2.381,0.15,3.47,0.459c1.089,0.309,2.037,0.775,2.838,1.399
		c0.808,0.617,1.447,1.406,1.918,2.346c0.471,0.946,0.709,2.044,0.709,3.285c0,1.091-0.162,2.017-0.492,2.798
		c-0.039,0.092-0.079,0.182-0.121,0.271h1.393c0.135,0,0.245,0.145,0.245,0.32v1.281c0,0.177-0.11,0.321-0.245,0.321H40.053
		c-0.134,0-0.245-0.145-0.245-0.321v-1.281C39.808,97.207,39.918,97.063,40.053,97.063L40.053,97.063z"/>
	<path display="inline" fill-rule="evenodd" clip-rule="evenodd" fill="#9DA0A4" d="M131.882,67.339h71.812
		c5.493,0,9.988,4.388,9.988,9.751v45.73c0,5.364-4.495,9.752-9.988,9.752H189.12c-1.553-11.852-5.82-22.874-12.17-32.458h26.035
		V87.319H166.38C156.924,78.05,145.104,71.078,131.882,67.339L131.882,67.339z M12.488,67.339h77.148
		c5.494,0,9.988,4.388,9.988,9.751v45.73c0,5.364-4.494,9.752-9.988,9.752H12.488c-5.493,0-9.988-4.388-9.988-9.752v-22.442V86.887
		V77.09C2.5,71.727,6.995,67.339,12.488,67.339L12.488,67.339z M89.981,100.378H73.52l0.001-0.068c0-5.02-1.667-9.659-4.488-13.423
		h20.948v-9.46H72.838H12.144v9.46h19.242c-2.821,3.764-4.488,8.403-4.488,13.423l0.001,0.068H12.144v23.452h21.622h56.215V100.378
		L89.981,100.378z"/>
</g>

</svg>
