<?xml version="1.0" encoding="utf-8"?>
<!DOCTYPE svg PUBLIC "-//W3C//DTD SVG 1.1//EN" "http://www.w3.org/Graphics/SVG/1.1/DTD/svg11.dtd">
<svg version="1.1" xmlns="http://www.w3.org/2000/svg" xmlns:xlink="http://www.w3.org/1999/xlink" x="0px" y="0px" width="216px" height="216px" viewBox="0 0 216 216" enable-background="new 0 0 216 216" xml:space="preserve">
    
<g>

	<path display="inline" d="M109.519,71.411c-0.858,0-1.502,0.02-2.353,0.048c0,22.861,0,45.816,0,68.795
		c-20.752,0-40.282,0-61.041,0H36.58l0.015,2.352c0,39.321,32.648,71.196,72.923,71.196c40.273,0,72.922-31.875,72.922-71.196
		C182.44,103.286,149.792,71.411,109.519,71.411L109.519,71.411z M172.912,140.31L172.912,140.31h-28.211
		c-0.257-10.174-2.109-19.895-5.397-28.789c6.346-2.588,12.217-6.027,17.574-10.092C166.396,111.856,172.352,125.404,172.912,140.31
		L172.912,140.31z M106.917,204.485L106.917,204.485c-7.819-6.356-14.376-14.609-19.177-24.195
		c6.157-1.88,12.685-2.907,19.425-3.118v27.327C107.083,204.494,107,204.489,106.917,204.485L106.917,204.485z M112.115,80.727
		L112.115,80.727c8.87,7.214,16.111,16.87,21.009,28.139c-6.702,2.237-13.836,3.534-21.253,3.768V80.714
		C111.953,80.719,112.031,80.723,112.115,80.727L112.115,80.727z M119.946,81.508L119.946,81.508
		c12.983,2.108,24.641,8.03,33.707,16.601c-4.928,3.688-10.311,6.814-16.122,9.179C133.244,97.377,127.238,88.617,119.946,81.508
		L119.946,81.508z M107.166,144.902L107.166,144.902v27.677c-7.42,0.22-14.592,1.404-21.355,3.53
		c-4.076-9.47-6.477-20.024-6.772-31.207H107.166L107.166,144.902z M99.089,203.704L99.089,203.704
		c-11.635-1.888-22.201-6.835-30.792-14.018c4.636-3.135,9.644-5.79,14.996-7.809C87.396,190.186,92.767,197.555,99.089,203.704
		L99.089,203.704z M111.871,204.499L111.871,204.499v-27.327c6.739,0.211,13.267,1.238,19.425,3.118
		c-4.802,9.586-11.359,17.839-19.177,24.195C112.037,204.489,111.953,204.494,111.871,204.499L111.871,204.499z M135.742,181.878
		L135.742,181.878c5.354,2.019,10.361,4.674,14.996,7.809c-8.59,7.183-19.159,12.13-30.792,14.018
		C126.271,197.555,131.64,190.186,135.742,181.878L135.742,181.878z M133.226,176.109L133.226,176.109
		c-6.764-2.126-13.938-3.311-21.354-3.53v-27.677h28.127C139.703,156.085,137.301,166.64,133.226,176.109L133.226,176.109z
		 M111.871,140.31L111.871,140.31v-23.083c8.044-0.237,15.771-1.669,23.027-4.126c3.101,8.4,4.845,17.592,5.1,27.209H111.871
		L111.871,140.31z M46.125,144.902L46.125,144.902h28.208c0.294,11.735,2.803,22.819,7.071,32.781
		c-5.958,2.27-11.517,5.293-16.645,8.868C53.709,175.821,46.74,161.146,46.125,144.902L46.125,144.902z M154.277,186.552
		L154.277,186.552c-5.13-3.575-10.687-6.599-16.646-8.868c4.27-9.962,6.778-21.046,7.07-32.781h28.211
		C172.296,161.146,165.326,175.821,154.277,186.552L154.277,186.552z"/>
</g>

</svg>
