<?xml version="1.0" encoding="utf-8"?>
<!DOCTYPE svg PUBLIC "-//W3C//DTD SVG 1.1//EN" "http://www.w3.org/Graphics/SVG/1.1/DTD/svg11.dtd">
<svg version="1.1" xmlns="http://www.w3.org/2000/svg" xmlns:xlink="http://www.w3.org/1999/xlink" x="0px" y="0px" width="216px" height="216px" viewBox="0 0 216 216" enable-background="new 0 0 216 216" xml:space="preserve">
    
<g id="_x30_4_x5F_rekvizit">
	<path display="inline" fill="#61BFB9" d="M65.575,121.755c-2.285,0-3.616,1.192-3.998,3.572h7.254v4.08h-7.254
		c0.115,1.066,0.526,1.881,1.23,2.455c0.704,0.574,1.662,0.859,2.87,0.859c0.733,0,1.514-0.088,2.332-0.267
		c0.823-0.181,1.891-0.487,3.205-0.912v4.198c-1.009,0.416-1.933,0.711-2.772,0.877c-0.844,0.172-1.828,0.254-2.951,0.254
		c-2.899,0-5.125-0.828-6.677-2.48s-2.327-4.023-2.327-7.113c0-1.907,0.377-3.599,1.136-5.071c0.755-1.473,1.844-2.608,3.26-3.411
		c1.416-0.802,3.069-1.2,4.969-1.2c1.077,0,2.099,0.113,3.065,0.342c0.971,0.228,1.955,0.587,2.959,1.083l-1.679,4.098
		C68.648,122.211,67.109,121.755,65.575,121.755L65.575,121.755z M92.886,142.457h-4.782v-5.844H77.522v5.844H72.74v-10.002h1.505
		c1.085-1.902,1.979-4.099,2.684-6.597c0.704-2.494,1.158-5.169,1.365-8.018h12.108v14.614h2.484V142.457L92.886,142.457z
		 M85.459,132.455v-10.468h-3.227c-0.339,3.665-1.272,7.153-2.794,10.468H85.459L85.459,132.455z M110.193,136.613h-4.944v-14.626
		h-5.007v14.626h-4.931v-18.772h14.882V136.613L110.193,136.613z M127.281,123.812c0,2.1-0.597,3.717-1.793,4.86
		c-1.195,1.144-2.894,1.713-5.099,1.713h-1.379v6.229h-4.905v-18.772h6.284c2.293,0,4.019,0.518,5.166,1.552
		C126.71,120.432,127.281,121.904,127.281,123.812L127.281,123.812z M119.011,126.252h0.896c0.737,0,1.323-0.215,1.758-0.644
		c0.434-0.426,0.649-1.018,0.649-1.771c0-1.266-0.678-1.902-2.036-1.902h-1.267V126.252L119.011,126.252z M147.17,127.204
		c0,3.155-0.749,5.558-2.251,7.2c-1.496,1.644-3.691,2.468-6.58,2.468c-2.848,0-5.032-0.828-6.553-2.48
		c-1.518-1.652-2.278-4.059-2.278-7.215c0-3.125,0.755-5.514,2.265-7.162c1.514-1.647,3.711-2.472,6.594-2.472
		c2.887,0,5.078,0.819,6.566,2.455C146.425,121.633,147.17,124.034,147.17,127.204L147.17,127.204z M134.673,127.204
		c0,3.628,1.225,5.443,3.666,5.443c1.242,0,2.162-0.442,2.766-1.323c0.597-0.881,0.899-2.258,0.899-4.12
		c0-1.877-0.307-3.262-0.913-4.156c-0.61-0.894-1.518-1.341-2.725-1.341C135.901,121.707,134.673,123.539,134.673,127.204
		L134.673,127.204z M152.275,136.872c-1.161,0-2.223-0.131-3.18-0.385v-4.032c0.776,0.315,1.764,0.473,2.954,0.473
		c0.515,0,0.945-0.123,1.298-0.363c0.353-0.246,0.64-0.675,0.865-1.293l-5.928-13.431h5.292l2.237,5.725
		c0.081,0.224,0.183,0.491,0.303,0.798c0.123,0.307,0.24,0.627,0.356,0.955c0.113,0.334,0.223,0.658,0.321,0.982
		c0.102,0.329,0.177,0.609,0.236,0.851h0.176c0.279-1.166,0.699-2.525,1.254-4.086l1.849-5.225h5.291l-5.517,13.177
		c-0.686,1.644-1.359,2.853-2.022,3.624c-0.66,0.775-1.453,1.341-2.378,1.696C154.76,136.693,153.623,136.872,152.275,136.872
		L152.275,136.872z M57.917,103.512V57.89h11.983v45.622H57.917L57.917,103.512z M115.604,103.512h-12.013V67.966H91.423v35.545
		H79.44V57.89h30.326c0.291,0.417,0.618,0.814,0.983,1.183c1.634,1.649,3.253,3.318,4.855,5.007V103.512L115.604,103.512z
		 M137.097,89.587v13.925h-11.981V74.574C129.292,79.419,133.307,84.42,137.097,89.587L137.097,89.587z M68.148,181.781H60.6V166.72
		c0-1.827,0.039-3.5,0.116-5.016c-0.469,0.579-1.047,1.189-1.735,1.827l-3.122,2.663l-3.861-4.901l9.449-7.956h6.7V181.781
		L68.148,181.781z M94.119,181.781H74.154v-5.061l6.719-7.02c1.915-2.079,3.174-3.493,3.765-4.251
		c0.584-0.764,0.995-1.414,1.227-1.959c0.238-0.545,0.354-1.116,0.354-1.713c0-0.738-0.232-1.322-0.701-1.747
		c-0.462-0.433-1.118-0.645-1.953-0.645c-0.868,0-1.741,0.253-2.627,0.771c-0.887,0.512-1.889,1.269-3,2.265l-4.085-4.941
		c1.42-1.308,2.608-2.25,3.572-2.814c0.97-0.559,2.017-0.991,3.154-1.289c1.137-0.299,2.416-0.451,3.828-0.451
		c1.786,0,3.373,0.324,4.773,0.976c1.4,0.644,2.486,1.573,3.257,2.77c0.771,1.202,1.156,2.55,1.156,4.038
		c0,1.116-0.135,2.146-0.405,3.095c-0.27,0.95-0.688,1.88-1.252,2.789c-0.565,0.917-1.311,1.88-2.249,2.889
		c-0.931,1.017-2.922,2.936-5.974,5.765v0.192h10.406V181.781L94.119,181.781z M115.787,159.501c0,1.766-0.521,3.279-1.567,4.549
		c-1.042,1.261-2.544,2.178-4.516,2.748v0.121c4.593,0.597,6.892,2.835,6.892,6.727c0,2.65-1.015,4.729-3.044,6.249
		c-2.024,1.515-4.838,2.278-8.442,2.278c-1.477,0-2.846-0.113-4.111-0.332c-1.259-0.219-2.621-0.624-4.092-1.208v-6.383
		c1.208,0.638,2.428,1.108,3.681,1.414c1.246,0.306,2.396,0.452,3.45,0.452c1.631,0,2.82-0.232,3.571-0.704
		c0.745-0.479,1.119-1.222,1.119-2.231c0-0.777-0.194-1.375-0.585-1.8c-0.385-0.418-1.015-0.737-1.882-0.949
		c-0.868-0.22-1.992-0.326-3.385-0.326h-1.696v-5.777h1.735c3.776,0,5.66-0.996,5.66-2.995c0-0.75-0.277-1.309-0.835-1.673
		c-0.559-0.365-1.304-0.546-2.249-0.546c-1.753,0-3.578,0.611-5.46,1.827l-3.083-5.134c1.458-1.036,2.942-1.78,4.471-2.218
		c1.522-0.445,3.27-0.664,5.242-0.664c2.846,0,5.081,0.584,6.7,1.753C114.977,155.848,115.787,157.455,115.787,159.501
		L115.787,159.501z M140.178,176.275h-3.033v5.506h-7.335v-5.506h-10.973v-5.645l11.441-17.294h6.866v17.201h3.033V176.275
		L140.178,176.275z M129.81,170.538v-3.308c0-0.625,0.02-1.468,0.064-2.523c0.044-1.057,0.076-1.608,0.102-1.661h-0.204
		c-0.432,0.997-0.913,1.934-1.452,2.804l-3.044,4.688H129.81L129.81,170.538z M153.257,163.14c1.579,0,3.013,0.379,4.283,1.142
		c1.272,0.757,2.263,1.833,2.976,3.222c0.706,1.388,1.059,2.988,1.059,4.801c0,3.182-0.924,5.619-2.774,7.318
		c-1.849,1.7-4.651,2.551-8.402,2.551c-3.212,0-5.833-0.518-7.868-1.54v-6.304c1.092,0.518,2.324,0.943,3.699,1.282
		s2.558,0.505,3.545,0.505c1.383,0,2.442-0.299,3.182-0.903c0.745-0.604,1.111-1.494,1.111-2.676c0-1.09-0.374-1.939-1.125-2.544
		c-0.759-0.611-1.895-0.917-3.43-0.917c-1.163,0-2.429,0.227-3.784,0.678l-2.723-1.394l1.034-15.023h15.692v6.402h-9.372
		l-0.341,3.752c0.983-0.192,1.677-0.299,2.095-0.318C152.523,163.152,152.909,163.14,153.257,163.14L153.257,163.14z"/>
	<path display="inline" fill-rule="evenodd" clip-rule="evenodd" fill="#F68D72" d="M211.526,2.849
		c0.699-0.339,1.832,1.303,1.364,1.939c-21.917,29.807-39.876,62.399-56.385,96.015c-0.507,1.031-2.764,0.937-3.356-0.043
		c-10.02-16.557-22.802-32.092-37.468-46.906c-0.952-0.962-0.763-3.033,0.042-4.128c2.528-3.442,5.771-5.13,8.066-6.625
		c2.298-1.495,4.042-0.933,5.019-0.133c7.436,6.094,14.038,12.744,21.369,18.97c0.636,0.541,1.908,0.409,2.463-0.22
		c15.735-17.777,30.314-36.751,48.386-51.168C204.423,7.839,207.643,4.735,211.526,2.849L211.526,2.849z"/>
	<path display="inline" fill-rule="evenodd" clip-rule="evenodd" fill="#9DA0A4" d="M175.116,16.779H44.084
		c-9.87,0-17.867,8.268-17.867,18.472v12.316H20.26c-9.87,0-17.868,8.268-17.868,18.472v123.154
		c0,13.603,10.667,24.632,23.824,24.632h142.942c13.159,0,23.827-11.029,23.827-24.632V50.626
		c-4.102,6.933-8.064,13.957-11.914,21.048v117.519l0,0c0,6.785-5.344,12.316-11.913,12.316H26.217
		c-6.567,0-11.913-5.531-11.913-12.316V66.039c0-3.396,2.669-6.158,5.957-6.158h5.957v123.156c0,3.403,2.664,6.156,5.956,6.156
		c3.29,0,5.955-2.753,5.955-6.156V35.251c0-3.396,2.671-6.156,5.956-6.156h125.53c3.515-3.92,7.094-7.77,10.795-11.492
		C178.736,17.068,176.959,16.779,175.116,16.779L175.116,16.779z"/>
</g>

</svg>
