<?xml version="1.0" encoding="utf-8"?>
<!DOCTYPE svg PUBLIC "-//W3C//DTD SVG 1.1//EN" "http://www.w3.org/Graphics/SVG/1.1/DTD/svg11.dtd">
<svg version="1.1" xmlns="http://www.w3.org/2000/svg" xmlns:xlink="http://www.w3.org/1999/xlink" x="0px" y="0px" width="216px" height="216px" viewBox="0 0 216 216" enable-background="new 0 0 216 216" xml:space="preserve">
    
<g>
	<path d="M128.586,173.742l-4.965-13.51H81.336l-4.964,13.812c-1.962,5.388-3.609,9.021-4.989,10.901
		c-1.356,1.88-3.608,2.833-6.732,2.833c-2.64,0-4.989-1.003-7.023-3.008s-3.051-4.285-3.051-6.843c0-1.453,0.242-2.981,0.702-4.535
		c0.485-1.58,1.26-3.761,2.349-6.541L84.243,96.95c0.751-2.005,1.671-4.412,2.737-7.219c1.065-2.833,2.18-5.164,3.391-7.018
		s2.81-3.358,4.771-4.511c1.961-1.153,4.383-1.729,7.265-1.729c2.93,0,5.376,0.576,7.339,1.729c1.961,1.153,3.56,2.632,4.77,4.437
		c1.187,1.804,2.204,3.759,3.053,5.839c0.823,2.081,1.864,4.862,3.148,8.321l27.173,69.475c2.13,5.289,3.196,9.123,3.196,11.53
		c0,2.48-1.018,4.761-3.027,6.843c-2.01,2.078-4.432,3.132-7.266,3.132c-1.646,0-3.076-0.301-4.263-0.928
		c-1.187-0.602-2.179-1.428-2.979-2.481c-0.797-1.053-1.67-2.682-2.59-4.861C130.039,177.326,129.239,175.422,128.586,173.742
		L128.586,173.742z M86.858,143.867h31.095l-15.692-44.411L86.858,143.867L86.858,143.867z"/>
</g>
    
</svg>
