<?xml version="1.0" encoding="utf-8"?>
<!DOCTYPE svg PUBLIC "-//W3C//DTD SVG 1.1//EN" "http://www.w3.org/Graphics/SVG/1.1/DTD/svg11.dtd">
<svg version="1.1" xmlns="http://www.w3.org/2000/svg" xmlns:xlink="http://www.w3.org/1999/xlink" x="0px" y="0px" width="216px" height="216px" viewBox="0 0 216 216" enable-background="new 0 0 216 216" xml:space="preserve">
    
<g>
    <path fill-rule="evenodd" clip-rule="evenodd" d="M176.433,15.812H44.289c-9.954,0-18.019,8.347-18.019,18.648
		v12.434h-6.007c-9.954,0-18.019,8.347-18.019,18.647v124.325c0,13.732,10.757,24.868,24.026,24.868h144.155
		c13.269,0,24.027-11.136,24.027-24.868V49.981c-4.137,6.999-8.131,14.09-12.013,21.248v118.636l0,0
		c0,6.85-5.392,12.436-12.015,12.436H26.27c-6.624,0-12.014-5.586-12.014-12.436V65.541c0-3.429,2.691-6.216,6.006-6.216h6.007
		v124.328c0,3.435,2.687,6.213,6.006,6.213c3.319,0,6.006-2.778,6.006-6.213V34.459c0-3.43,2.693-6.216,6.007-6.216h126.593
		c3.546-3.956,7.157-7.843,10.889-11.601C180.084,16.103,178.291,15.812,176.433,15.812L176.433,15.812z"/>

</g>
    
</svg>
