<?xml version="1.0" encoding="utf-8"?>
<!DOCTYPE svg PUBLIC "-//W3C//DTD SVG 1.1//EN" "http://www.w3.org/Graphics/SVG/1.1/DTD/svg11.dtd">
<svg version="1.1" id="Layer_1" xmlns="http://www.w3.org/2000/svg" xmlns:xlink="http://www.w3.org/1999/xlink" x="0px" y="0px" width="216px" height="216px" viewBox="0 0 216 216" enable-background="new 0 0 216 216" xml:space="preserve">
    
<path d="M138.514,133.164c-1.158-3.346-4.136-5.795-7.718-6.328l-34.87-5.184L80.766,90.185
	c-1.591-3.304-5.006-5.418-8.761-5.418c-3.75,0-7.164,2.115-8.76,5.418l-15.156,31.468l-34.874,5.184
	c-3.583,0.533-6.56,2.982-7.712,6.328c-1.154,3.354-0.283,7.047,2.25,9.57l25.553,25.516l-5.926,35.393
	c-0.602,3.563,0.944,7.141,3.971,9.227c1.664,1.141,3.62,1.723,5.574,1.723c1.607,0,3.219-0.393,4.683-1.174l30.398-16.367
	l30.404,16.367c1.464,0.781,3.076,1.174,4.679,1.174c1.958,0,3.91-0.582,5.579-1.723c3.025-2.086,4.567-5.664,3.971-9.227
	l-5.931-35.393l25.558-25.516C138.795,140.211,139.662,136.518,138.514,133.164L138.514,133.164z M103.783,161.67L103.783,161.67
	c-2.143,2.139-3.116,5.145-2.621,8.098l5.926,35.396l-30.4-16.363c-1.46-0.785-3.071-1.178-4.683-1.178
	c-1.606,0-3.218,0.393-4.678,1.178l-30.403,16.363l5.931-35.396c0.495-2.953-0.479-5.959-2.621-8.098L14.68,136.158l34.868-5.193
	c3.187-0.475,5.931-2.467,7.301-5.309l15.156-31.463l15.161,31.463c1.371,2.842,4.111,4.834,7.297,5.309l34.874,5.193
	L103.783,161.67L103.783,161.67z"/>

</svg>
