<?xml version="1.0" encoding="utf-8"?>
<!DOCTYPE svg PUBLIC "-//W3C//DTD SVG 1.1//EN" "http://www.w3.org/Graphics/SVG/1.1/DTD/svg11.dtd">
<svg version="1.1" xmlns="http://www.w3.org/2000/svg" xmlns:xlink="http://www.w3.org/1999/xlink" x="0px" y="0px" width="216px" height="216px" viewBox="0 0 216 216" enable-background="new 0 0 216 216" xml:space="preserve">
    
<g>
	<path fill-rule="evenodd" clip-rule="evenodd" d="M55.629,90.973h102.774v34.336H55.629V90.973L55.629,90.973z
		 M139.644,134.064h16.716c0.83,0,1.511,0.657,1.511,1.46v9.614c0,0.803-0.681,1.458-1.511,1.458h-16.716
		c-0.829,0-1.511-0.655-1.511-1.458v-9.614C138.133,134.722,138.814,134.064,139.644,134.064L139.644,134.064z M112.262,134.064
		h16.714c0.831,0,1.513,0.657,1.513,1.46v9.614c0,0.803-0.682,1.458-1.513,1.458h-16.714c-0.831,0-1.512-0.655-1.512-1.458v-9.614
		C110.75,134.722,111.431,134.064,112.262,134.064L112.262,134.064z M112.262,173.207h16.714c0.831,0,1.513,0.657,1.513,1.461v9.615
		c0,0.803-0.682,1.457-1.513,1.457h-16.714c-0.831,0-1.512-0.654-1.512-1.457v-9.615
		C110.75,173.864,111.431,173.207,112.262,173.207L112.262,173.207z M112.262,153.637h16.714c0.831,0,1.513,0.656,1.513,1.458v9.615
		c0,0.802-0.682,1.46-1.513,1.46h-16.714c-0.831,0-1.512-0.658-1.512-1.46v-9.615C110.75,154.293,111.431,153.637,112.262,153.637
		L112.262,153.637z M84.878,153.637h16.715c0.831,0,1.511,0.656,1.511,1.458v9.615c0,0.802-0.681,1.46-1.511,1.46H84.878
		c-0.831,0-1.511-0.658-1.511-1.46v-9.615C83.367,154.293,84.047,153.637,84.878,153.637L84.878,153.637z M84.878,173.207h16.715
		c0.831,0,1.511,0.657,1.511,1.461v9.615c0,0.803-0.681,1.457-1.511,1.457H84.878c-0.831,0-1.511-0.654-1.511-1.457v-9.615
		C83.367,173.864,84.047,173.207,84.878,173.207L84.878,173.207z M57.496,173.207H74.21c0.832,0,1.511,0.657,1.511,1.461v9.615
		c0,0.803-0.679,1.457-1.511,1.457H57.496c-0.831,0-1.512-0.654-1.512-1.457v-9.615C55.984,173.864,56.665,173.207,57.496,173.207
		L57.496,173.207z M57.496,153.637H74.21c0.832,0,1.511,0.656,1.511,1.458v9.615c0,0.802-0.679,1.46-1.511,1.46H57.496
		c-0.831,0-1.512-0.658-1.512-1.46v-9.615C55.984,154.293,56.665,153.637,57.496,153.637L57.496,153.637z M64.447,99.487h85.137
		v17.306H64.447V99.487L64.447,99.487z"/>

</g>
    
</svg>
