<?xml version="1.0" encoding="utf-8"?>
<!DOCTYPE svg PUBLIC "-//W3C//DTD SVG 1.1//EN" "http://www.w3.org/Graphics/SVG/1.1/DTD/svg11.dtd">
<svg version="1.1" xmlns="http://www.w3.org/2000/svg" xmlns:xlink="http://www.w3.org/1999/xlink" x="0px" y="0px" width="216px" height="216px" viewBox="0 0 216 216" enable-background="new 0 0 216 216" xml:space="preserve">
    
<g>
	<path fill-rule="evenodd" clip-rule="evenodd" d="M147.224,115.646l9.956-10.409l7.955,7.608l-9.956,10.41
		L147.224,115.646L147.224,115.646z M133.897,104.754l40.34-42.175c2.872-3.003,7.68-3.11,10.683-0.238l25.606,24.492
		c3.003,2.873,3.109,7.68,0.237,10.683l-40.34,42.174c-2.872,3.004-7.68,3.111-10.683,0.238l-25.606-24.492
		C131.132,112.564,131.025,107.756,133.897,104.754L133.897,104.754z M29.591,73.596l41.02,40.916l5.093-5.106l-9.034-9.011
		L34.685,68.489L29.591,73.596L29.591,73.596z M63.347,121.793l-41.02-40.916L9.701,93.537l11.395,11.366l29.625,29.551
		L63.347,121.793L63.347,121.793z M40.297,63.225l40.657,40.554c2.895,2.887,2.901,7.619,0.013,10.514l-24.622,24.684
		c-2.888,2.896-7.619,2.902-10.514,0.014L5.175,98.436c-2.895-2.888-2.901-7.619-0.013-10.514l12.083-12.114l7.264-7.282
		l5.275-5.288C32.671,60.343,37.402,60.337,40.297,63.225L40.297,63.225z"/>  

</g>
</svg>
