<?xml version="1.0" encoding="utf-8"?>
<!DOCTYPE svg PUBLIC "-//W3C//DTD SVG 1.1//EN" "http://www.w3.org/Graphics/SVG/1.1/DTD/svg11.dtd">
<svg version="1.1" id="Layer_1" xmlns="http://www.w3.org/2000/svg" xmlns:xlink="http://www.w3.org/1999/xlink" x="0px" y="0px" width="272.126px" height="294.803px" viewBox="0 0 272.126 294.803" enable-background="new 0 0 272.126 294.803" xml:space="preserve">
<path fill-rule="evenodd" clip-rule="evenodd" fill="#61BFB9" d="M84.504,130.002h99.944v34.582H84.504V130.002L84.504,130.002z
	 M166.205,173.402h16.254c0.809,0,1.47,0.662,1.47,1.471v9.684c0,0.809-0.661,1.469-1.47,1.469h-16.254
	c-0.808,0-1.47-0.66-1.47-1.469v-9.684C164.735,174.064,165.397,173.402,166.205,173.402L166.205,173.402z M139.577,173.402h16.254
	c0.808,0,1.47,0.662,1.47,1.471v9.684c0,0.809-0.662,1.469-1.47,1.469h-16.254c-0.809,0-1.47-0.66-1.47-1.469v-9.684
	C138.107,174.064,138.769,173.402,139.577,173.402L139.577,173.402z M139.577,212.826h16.254c0.808,0,1.47,0.662,1.47,1.471v9.684
	c0,0.809-0.662,1.469-1.47,1.469h-16.254c-0.809,0-1.47-0.66-1.47-1.469v-9.684C138.107,213.488,138.769,212.826,139.577,212.826
	L139.577,212.826z M139.577,193.115h16.254c0.808,0,1.47,0.66,1.47,1.469v9.684c0,0.809-0.662,1.471-1.47,1.471h-16.254
	c-0.809,0-1.47-0.662-1.47-1.471v-9.684C138.107,193.775,138.769,193.115,139.577,193.115L139.577,193.115z M112.948,193.115h16.254
	c0.808,0,1.47,0.66,1.47,1.469v9.684c0,0.809-0.662,1.471-1.47,1.471h-16.254c-0.809,0-1.47-0.662-1.47-1.471v-9.684
	C111.479,193.775,112.14,193.115,112.948,193.115L112.948,193.115z M112.948,212.826h16.254c0.808,0,1.47,0.662,1.47,1.471v9.684
	c0,0.809-0.662,1.469-1.47,1.469h-16.254c-0.809,0-1.47-0.66-1.47-1.469v-9.684C111.479,213.488,112.14,212.826,112.948,212.826
	L112.948,212.826z M86.319,212.826h16.254c0.809,0,1.47,0.662,1.47,1.471v9.684c0,0.809-0.661,1.469-1.47,1.469H86.319
	c-0.808,0-1.47-0.66-1.47-1.469v-9.684C84.85,213.488,85.511,212.826,86.319,212.826L86.319,212.826z M86.319,193.115h16.254
	c0.809,0,1.47,0.66,1.47,1.469v9.684c0,0.809-0.661,1.471-1.47,1.471H86.319c-0.808,0-1.47-0.662-1.47-1.471v-9.684
	C84.85,193.775,85.511,193.115,86.319,193.115L86.319,193.115z M93.08,138.578h82.792v17.43H93.08V138.578L93.08,138.578z"/>
    
 <path fill-rule="evenodd" clip-rule="evenodd" fill="#F68D72" d="M112.948,173.402h16.254c0.808,0,1.47,0.662,1.47,1.471v9.684
	c0,0.809-0.662,1.469-1.47,1.469h-16.254c-0.809,0-1.47-0.66-1.47-1.469v-9.684C111.479,174.064,112.14,173.402,112.948,173.402
	L112.948,173.402z M166.205,193.115h16.254c0.809,0,1.47,0.66,1.47,1.469v9.078v2.076v18.242c0,0.807-0.661,1.469-1.47,1.469
	h-16.254c-0.808,0-1.47-0.66-1.47-1.469v-18.242v-2.076v-9.078C164.735,193.775,165.397,193.115,166.205,193.115L166.205,193.115z"
	/>
    
<path fill-rule="evenodd" clip-rule="evenodd" fill="#9DA0A4" d="M86.319,173.402h16.254c0.809,0,1.47,0.662,1.47,1.471v9.684
	c0,0.809-0.661,1.469-1.47,1.469H86.319c-0.808,0-1.47-0.66-1.47-1.469v-9.684C84.85,174.064,85.511,173.402,86.319,173.402
	L86.319,173.402z M61.679,54.958h40.116v18.391l33.545-33.545l103.34,103.34h-14.133l-14.653-14.653l0.49,88.661
	c0.113,20.541-16.808,37.35-37.35,37.35H96.954c-20.542,0-37.51-16.809-37.349-37.35l0.691-88.169l-14.163,14.162H32l29.678-29.655
	l0.001-1.469V54.958L61.679,54.958z M101.795,87.481l-24.538,24.538l-6.242,6.242v98.889c0,14.244,11.695,25.939,25.938,25.939
	h76.082c14.244,0,25.939-11.695,25.939-25.939v-99.581L135.34,53.936L101.795,87.481L101.795,87.481z"/>

</svg>
