<?xml version="1.0" encoding="utf-8"?>
<!DOCTYPE svg PUBLIC "-//W3C//DTD SVG 1.1//EN" "http://www.w3.org/Graphics/SVG/1.1/DTD/svg11.dtd">
<svg version="1.1" id="Layer_1" xmlns="http://www.w3.org/2000/svg" xmlns:xlink="http://www.w3.org/1999/xlink" x="0px" y="0px" width="216px" height="216px" viewBox="0 0 216 216" enable-background="new 0 0 216 216" xml:space="preserve">

<path fill-rule="evenodd" clip-rule="evenodd" d="M142.978,94.076h44.078c3.341,0,5.783,2.746,6.074,6.073
	l5.032,57.636c0.29,3.328-2.733,6.074-6.074,6.074h-54.143c-3.34,0-6.364-2.746-6.074-6.074l5.033-57.636
	C137.194,96.822,139.637,94.076,142.978,94.076L142.978,94.076z M183.28,110.381c-0.533,17.717-8.566,31.787-18.394,31.787
	c-9.915,0-18.004-14.324-18.405-32.266c-0.104-4.594,5.097-3.581,5.097,0.494c0,14.477,5.96,26.217,13.309,26.217
	s13.31-11.74,13.31-26.217C178.196,106.168,183.437,105.193,183.28,110.381L183.28,110.381z M180.97,99.825
	c4.024,0,7.288,3.264,7.288,7.288c0,2.719-1.489,5.09-3.696,6.342c0.081-1.018,0.136-2.029,0.165-3.029
	c0.037-1.219-0.214-2.53-0.876-3.509c-0.101-1.503-1.353-2.691-2.881-2.691c-1.459,0-2.665,1.082-2.859,2.487
	c-0.935,0.994-1.362,2.331-1.362,3.683c0,0.855-0.022,1.727-0.067,2.609c-1.817-1.326-2.999-3.471-2.999-5.893
	C173.682,103.088,176.945,99.825,180.97,99.825L180.97,99.825z M148.878,99.825c4.024,0,7.289,3.264,7.289,7.288
	c0,2.454-1.212,4.624-3.07,5.944c-0.048-0.898-0.071-1.787-0.071-2.66c0-1.295-0.413-2.556-1.27-3.514
	c-0.117-1.487-1.36-2.657-2.878-2.657c-1.432,0-2.62,1.042-2.848,2.41c-0.728,0.874-1.023,2.099-0.996,3.3
	c0.025,1.146,0.083,2.307,0.175,3.477c-2.165-1.266-3.619-3.611-3.619-6.299C141.59,103.088,144.854,99.825,148.878,99.825
	L148.878,99.825z M86.885,36.392c0.633-2.225,6.389-9.465,9.591-9.465h1.01c1.699,0,4.039,2.12,4.039,4.259v0.946
	c0,2.905-2.402,4.259-5.553,4.259H86.885L86.885,36.392z M64.169,32.606c-0.976-3.348,1.751-5.679,4.543-5.679
	c3.747,0,9.383,6.595,10.097,9.465h-9.592C66.943,36.392,64.169,34.441,64.169,32.606L64.169,32.606z M59.626,31.66
	c0,6.018,5.315,9.274,11.105,8.84h25.24c4.344,0.652,10.096-2.982,10.096-7.42V30.24c0-3.429-4.944-7.572-8.582-7.572
	c-10.131,0-12.938,8.02-14.363,11.821c-0.783-4.12-8.486-11.821-14.915-11.821c-3.701,0-8.738,3.093-8.582,8.045V31.66L59.626,31.66
	z M110.106,56.268c1.177,0,2.523-1.263,2.523-2.366V47.75c0-1.278-0.241-1.305-0.505-2.366c-1.132-0.248-1.16-0.473-2.523-0.473
	h-24.23v11.357H110.106L110.106,56.268z M54.578,55.795h25.745V45.384H54.578c-0.786,0.493-1.514,0.627-1.514,1.893v6.626
	C53.063,55.167,53.792,55.302,54.578,55.795L54.578,55.795z M108.493,60.886v25.031c0,1.828-1.496,3.323-3.324,3.323H85.464V60.886
	H108.493L108.493,60.886z M80.323,89.241h-20.36c-1.828,0-3.323-1.496-3.323-3.323V60.886h23.683V89.241L80.323,89.241z"/>
 
</svg>
