<?xml version="1.0" encoding="utf-8"?>
<!DOCTYPE svg PUBLIC "-//W3C//DTD SVG 1.1//EN" "http://www.w3.org/Graphics/SVG/1.1/DTD/svg11.dtd">
<svg version="1.1" xmlns="http://www.w3.org/2000/svg" xmlns:xlink="http://www.w3.org/1999/xlink" x="0px" y="0px" width="216px" height="216px" viewBox="0 0 216 216" enable-background="new 0 0 216 216" xml:space="preserve">
    
<g>
	<path fill-rule="evenodd" clip-rule="evenodd" d="M176.525,16.213H43.997c-9.983,0-18.071,8.333-18.071,18.619
		v12.414h-6.024c-9.982,0-18.072,8.334-18.072,18.619V190c0,13.71,10.789,24.827,24.096,24.827h144.575
		c13.31,0,24.099-11.117,24.099-24.827V50.33c-4.147,6.988-8.156,14.069-12.05,21.215V190l0,0c0,6.84-5.405,12.414-12.049,12.414
		H25.926c-6.642,0-12.049-5.574-12.049-12.414V65.865c0-3.423,2.7-6.207,6.025-6.207h6.024v124.137c0,3.429,2.694,6.204,6.024,6.204
		c3.328,0,6.023-2.775,6.023-6.204V34.833c0-3.424,2.701-6.206,6.024-6.206h126.964c3.555-3.951,7.175-7.832,10.918-11.583
		C180.187,16.504,178.39,16.213,176.525,16.213L176.525,16.213z"/>
</g>
    
</svg>
