<?xml version="1.0" encoding="utf-8"?>
<!DOCTYPE svg PUBLIC "-//W3C//DTD SVG 1.1//EN" "http://www.w3.org/Graphics/SVG/1.1/DTD/svg11.dtd">

<svg version="1.1" id="Layer_1" xmlns="http://www.w3.org/2000/svg" xmlns:xlink="http://www.w3.org/1999/xlink" x="0px" y="0px" width="216px" height="216px" viewBox="0 0 216 216" enable-background="new 0 0 216 216" xml:space="preserve">

<path fill-rule="evenodd" clip-rule="evenodd" d="M106.814,136.609c5.494,0,9.945,4.634,9.945,10.345
	c0,5.712-4.451,10.346-9.945,10.346c-5.493,0-9.944-4.634-9.944-10.346C96.87,141.243,101.321,136.609,106.814,136.609
	L106.814,136.609z M106.208,194.077c10.031-15.575,22.36-36.642,22.36-47.123c0-12.187-9.219-23.135-21.754-23.135
	c-12.535,0-21.753,10.948-21.753,23.135C85.061,156.754,96.431,178.943,106.208,194.077L106.208,194.077z M106.814,111.32
	c18.915,0,34.253,15.957,34.253,35.634s-27.492,58.838-34.253,68.782c-8.417-8.84-34.253-49.105-34.253-68.782
	S87.9,111.32,106.814,111.32L106.814,111.32z"/>
    
</svg>
