<?xml version="1.0" encoding="utf-8"?>
<!DOCTYPE svg PUBLIC "-//W3C//DTD SVG 1.1//EN" "http://www.w3.org/Graphics/SVG/1.1/DTD/svg11.dtd">
<svg version="1.1" xmlns="http://www.w3.org/2000/svg" xmlns:xlink="http://www.w3.org/1999/xlink" x="0px" y="0px" width="216px" height="216px" viewBox="0 0 216 216" enable-background="new 0 0 216 216" xml:space="preserve">
    
<g>
    
	<path display="inline" fill-rule="evenodd" clip-rule="evenodd" d="M56.348,100.181v29.755
		c0,2.926,1.928,5.181,4.43,5.181h37.518c2.502,0,4.43-2.255,4.43-5.181v-29.755c0-3.195-2.154-5.18-4.984-5.18h-36.41
		C58.502,95.001,56.348,96.986,56.348,100.181L56.348,100.181z M65.208,104.711h28.658v20.044H65.208V104.711L65.208,104.711z
		 M87.637,38.095h20.26l0.574-0.248c1.562-0.653,2.949-1.37,4.175-2.135s2.215-1.642,2.947-2.614c0.733-0.988,1.1-2.151,1.1-3.49
		c0-0.892-0.175-1.753-0.493-2.565c-0.335-0.813-0.829-1.499-1.498-2.072c-0.67-0.574-1.498-1.036-2.502-1.355
		c-0.988-0.334-2.151-0.493-3.49-0.493c-1.721,0-3.283,0.206-4.717,0.637c-1.434,0.415-2.693,0.876-3.776,1.403
		c-1.1,0.51-2.008,0.988-2.757,1.418c-0.749,0.43-1.291,0.653-1.642,0.653c-0.334,0-0.605-0.096-0.812-0.287
		c-0.208-0.175-0.367-0.478-0.463-0.876c-0.111-0.414-0.19-0.924-0.239-1.545c-0.048-0.622-0.063-1.387-0.063-2.279
		c0-0.813,0.016-1.498,0.032-2.04c0.032-0.542,0.096-0.988,0.175-1.354c0.081-0.351,0.16-0.638,0.271-0.861
		c0.111-0.223,0.319-0.478,0.637-0.796c0.303-0.303,0.94-0.701,1.912-1.164c0.973-0.462,2.072-0.893,3.315-1.259
		c1.243-0.382,2.582-0.669,4.016-0.892c1.434-0.223,2.868-0.319,4.287-0.319c2.773,0,5.402,0.351,7.873,1.067
		c2.47,0.718,4.621,1.801,6.438,3.251c1.833,1.434,3.283,3.267,4.351,5.449c1.067,2.2,1.61,4.75,1.61,7.634
		c0,2.534-0.367,4.686-1.116,6.501c-0.088,0.213-0.181,0.423-0.275,0.63h3.16c0.305,0,0.555,0.336,0.555,0.746v2.977
		c0,0.41-0.25,0.747-0.555,0.747H87.637c-0.305,0-0.555-0.336-0.555-0.747v-2.977C87.082,38.431,87.332,38.095,87.637,38.095
		L87.637,38.095z M90.734,56.922c0,3.171,0.59,5.959,1.769,8.366c1.179,2.391,2.789,4.398,4.813,5.992
		c2.024,1.609,4.382,2.805,7.091,3.618c2.709,0.813,5.609,1.211,8.686,1.211c2.087,0,4.031-0.16,5.816-0.51
		c1.784-0.334,3.362-0.749,4.732-1.227c1.371-0.494,2.518-0.988,3.442-1.53c0.908-0.525,1.577-0.988,1.976-1.401
		c0.415-0.399,0.702-0.989,0.861-1.738c0.175-0.764,0.255-1.864,0.255-3.298c0-0.972-0.032-1.769-0.08-2.422
		c-0.063-0.653-0.175-1.195-0.303-1.594c-0.144-0.398-0.335-0.685-0.574-0.86c-0.223-0.175-0.493-0.255-0.813-0.255
		c-0.43,0-1.051,0.255-1.849,0.765c-0.78,0.51-1.8,1.083-3.06,1.705c-1.243,0.622-2.725,1.196-4.445,1.705
		c-1.738,0.51-3.729,0.765-6.008,0.765c-1.498,0-2.837-0.175-4.017-0.525c-1.179-0.367-2.183-0.876-3.011-1.53
		c-0.813-0.654-1.45-1.45-1.88-2.423c-0.446-0.972-0.653-2.04-0.653-3.219c0-1.371,0.366-2.55,1.115-3.521
		c0.749-0.988,1.721-1.865,2.916-2.614c0.788-0.504,1.651-0.987,2.582-1.45h20.828c0.305,0,0.555-0.336,0.555-0.747v-2.977
		c0-0.41-0.25-0.746-0.555-0.746H87.637c-0.305,0-0.555,0.336-0.555,0.746v2.977c0,0.411,0.25,0.747,0.555,0.747h4.079
		C91.056,52.656,90.734,54.648,90.734,56.922L90.734,56.922z M110.678,88.474c-23.653,0-42.836-19.182-42.836-42.836
		c0-23.653,19.183-42.835,42.836-42.835c23.653,0,42.836,19.182,42.836,42.835C153.514,69.292,134.331,88.474,110.678,88.474
		L110.678,88.474z M112.409,180.347c0,3.721,1.644,6.152,4.155,6.152h66.496c2.513,0,4.156-2.432,4.156-6.152
		c0-4.583-2.098-6.151-5.194-6.151h-64.418C114.506,174.195,112.409,175.764,112.409,180.347L112.409,180.347z"/>

</g>
</svg>
