<?xml version="1.0" encoding="utf-8"?>
<svg version="1.1" id="Layer_1" xmlns="http://www.w3.org/2000/svg" xmlns:xlink="http://www.w3.org/1999/xlink" x="0px" y="0px" width="216px" height="216px" viewBox="0 0 216 216" enable-background="new 0 0 216 216" xml:space="preserve">
    
<path fill-rule="evenodd" clip-rule="evenodd" d="M131.63,179.818c-3.019-5.924-4.842-13.609-4.842-22.008
	c0-7.934,1.627-15.232,4.352-21.01c0.807-1.268,1.545-3.121,2.709-3.01c1.167,0.111,2.335,0.223,3.502,0.334
	c1.168,0.111,2.335,0.223,3.503,0.334c4.621,0.439,3.872-0.57,5.615-4.836c0.705-1.725,1.409-3.447,2.113-5.172
	c0.704-1.723,1.408-3.447,2.112-5.17c2.355-5.764,2.284-5.031-2.558-8.951c-1.557-1.26-3.113-2.521-4.67-3.781
	c-1.557-1.261-3.113-2.521-4.67-3.781c-2.315-2.001-3.62-1.083-4.672-0.161c-12.268,8.958-20.903,30.3-20.903,55.203
	c0,26.027,9.434,48.166,22.588,56.34l0.017-0.039c1.005,0.822,2.277,1.43,4.393-0.398c1.557-1.26,3.113-2.52,4.67-3.781
	c1.557-1.26,3.113-2.52,4.67-3.781c4.842-3.918,4.912-3.186,2.558-8.949c-0.704-1.725-1.408-3.447-2.112-5.172
	c-0.704-1.723-1.409-3.447-2.113-5.17c-1.743-4.266-1.929-5.143-6.549-4.703c-1.169,0.111-2.336,0.223-3.503,0.334
	c-1.168,0.111-2.336,0.223-3.503,0.334C133.173,182.934,132.436,181.084,131.63,179.818L131.63,179.818z M160.023,115.445h33.835
	c6.288,0,11.433,5.004,11.433,11.119v64.715c0,6.115-5.145,11.119-11.433,11.119h-32.404c0.185-2.875-0.957-5.418-2.079-8.164
	c-0.704-1.723-1.409-3.447-2.112-5.17c-0.704-1.725-1.409-3.447-2.112-5.17c-1.237-3.025-2.268-5.682-5.086-7.674
	c-2.904-2.053-6.072-2.193-9.466-1.869c-0.92,0.088-1.839,0.174-2.758,0.262c-2.263-5.197-3.212-11.227-3.212-16.803
	c0-5.252,0.836-10.846,2.797-15.801c0.895,0.084,1.79,0.17,2.684,0.256c3.453,0.328,6.666,0.123,9.461-2.238
	c2.649-2.238,2.973-4.541,4.157-7.439c0.705-1.723,1.409-3.447,2.113-5.17c0.704-1.725,1.408-3.447,2.112-5.172
	C158.895,119.943,159.85,117.781,160.023,115.445L160.023,115.445z M191.928,180.301c2.64,0,4.781,2.141,4.781,4.781
	s-2.142,4.781-4.781,4.781c-2.641,0-4.782-2.141-4.782-4.781S189.287,180.301,191.928,180.301L191.928,180.301z M191.928,166.512
	c2.64,0,4.781,2.141,4.781,4.781c0,2.639-2.142,4.781-4.781,4.781c-2.641,0-4.782-2.143-4.782-4.781
	C187.146,168.652,189.287,166.512,191.928,166.512L191.928,166.512z M166.262,180.301c2.64,0,4.781,2.141,4.781,4.781
	s-2.142,4.781-4.781,4.781s-4.781-2.141-4.781-4.781S163.622,180.301,166.262,180.301L166.262,180.301z M179.095,166.512
	c2.64,0,4.781,2.141,4.781,4.781c0,2.639-2.142,4.781-4.781,4.781s-4.781-2.143-4.781-4.781
	C174.313,168.652,176.455,166.512,179.095,166.512L179.095,166.512z M179.095,180.301c2.64,0,4.781,2.141,4.781,4.781
	s-2.142,4.781-4.781,4.781s-4.781-2.141-4.781-4.781S176.455,180.301,179.095,180.301L179.095,180.301z M166.262,166.512
	c2.64,0,4.781,2.141,4.781,4.781c0,2.639-2.142,4.781-4.781,4.781s-4.781-2.143-4.781-4.781
	C161.48,168.652,163.622,166.512,166.262,166.512L166.262,166.512z M166.262,153.473c2.64,0,4.781,2.143,4.781,4.781
	c0,2.641-2.142,4.783-4.781,4.783s-4.781-2.143-4.781-4.783C161.48,155.615,163.622,153.473,166.262,153.473L166.262,153.473z
	 M191.928,153.473c2.64,0,4.781,2.143,4.781,4.781c0,2.641-2.142,4.783-4.781,4.783c-2.641,0-4.782-2.143-4.782-4.783
	C187.146,155.615,189.287,153.473,191.928,153.473L191.928,153.473z M179.095,153.473c2.64,0,4.781,2.143,4.781,4.781
	c0,2.641-2.142,4.783-4.781,4.783s-4.781-2.143-4.781-4.783C174.313,155.615,176.455,153.473,179.095,153.473L179.095,153.473z
	 M164.816,131.902h28.688c2.079,0,3.78,1.701,3.78,3.779v1.557c0,2.08-1.701,3.781-3.78,3.781h-28.688
	c-2.08,0-3.781-1.701-3.781-3.781v-1.557C161.035,133.604,162.736,131.902,164.816,131.902L164.816,131.902z"/>  



</svg>
