<?xml version="1.0" encoding="utf-8"?>
<svg version="1.1" id="Layer_1" xmlns="http://www.w3.org/2000/svg" xmlns:xlink="http://www.w3.org/1999/xlink" x="0px" y="0px" width="216px" height="216px" viewBox="0 0 216 216" enable-background="new 0 0 216 216" xml:space="preserve">
    

<path fill-rule="evenodd" clip-rule="evenodd" d="M50.625,182.246h59.616c1.192,5.15,2.798,10.264,4.873,15.08
	H50.625c-3.318,0-6.033-2.713-6.033-6.031v-3.018C44.592,184.961,47.307,182.246,50.625,182.246L50.625,182.246z M21.065,58.277
	h65.622c-0.079,0.72-0.119,1.453-0.119,2.194c0,2.864,0.602,5.588,1.684,8.055h-67.79c-1.66,0-3.017,1.357-3.017,3.017v73.899
	c0,1.658,1.357,3.016,3.017,3.016h87.39c-0.28,3.223-0.414,6.361-0.414,9.354c0,5.311,0.429,11.152,1.375,17.109
	c-28.747,1.518-58.793-0.178-87.748-5.947C14.558,167.678,9,163.545,9,156.908V70.341C9,63.706,14.429,58.277,21.065,58.277
	L21.065,58.277z M126.595,58.277h43.173c6.636,0,12.065,5.429,12.065,12.064v37.635h-9.954V71.542c0-1.659-1.357-3.017-3.017-3.017
	h-43.833c1.082-2.466,1.685-5.19,1.685-8.055C126.714,59.73,126.674,58.998,126.595,58.277L126.595,58.277z M93.154,159.926h4.826
	c0.996,0,1.81,0.813,1.81,1.809v3.018c0,0.994-0.813,1.809-1.81,1.809h-4.826c-0.996,0-1.81-0.814-1.81-1.809v-3.018
	C91.344,160.738,92.159,159.926,93.154,159.926L93.154,159.926z M23.022,103.718L58.19,76.949c1.018-0.776,2.665-0.339,3.661,0.968
	l0,0c0.995,1.307,0.976,3.011-0.042,3.786l-35.168,26.769c-1.018,0.774-2.665,0.339-3.66-0.969l0,0
	C21.986,106.196,22.004,104.492,23.022,103.718L23.022,103.718z M22.583,89.162l19.743-15.028c1.018-0.775,2.665-0.339,3.661,0.968
	l0,0c0.995,1.308,0.976,3.012-0.042,3.787L26.201,93.916c-1.018,0.774-2.665,0.339-3.66-0.968l0,0
	C21.545,91.64,21.564,89.937,22.583,89.162L22.583,89.162z"/>

</svg>
