<?xml version="1.0" encoding="utf-8"?>
<svg version="1.1" id="Layer_1" xmlns="http://www.w3.org/2000/svg" xmlns:xlink="http://www.w3.org/1999/xlink" x="0px" y="0px" width="216px" height="216px" viewBox="0 0 216 216" enable-background="new 0 0 216 216" xml:space="preserve">
    
<path fill-rule="evenodd" clip-rule="evenodd" fill="#61BFB9" d="M131.63,179.818c-3.019-5.924-4.842-13.609-4.842-22.008
	c0-7.934,1.627-15.232,4.352-21.01c0.807-1.268,1.545-3.121,2.709-3.01c1.167,0.111,2.335,0.223,3.502,0.334
	c1.168,0.111,2.335,0.223,3.503,0.334c4.621,0.439,3.872-0.57,5.615-4.836c0.705-1.725,1.409-3.447,2.113-5.172
	c0.704-1.723,1.408-3.447,2.112-5.17c2.355-5.764,2.284-5.031-2.558-8.951c-1.557-1.26-3.113-2.521-4.67-3.781
	c-1.557-1.261-3.113-2.521-4.67-3.781c-2.315-2.001-3.62-1.083-4.672-0.161c-12.268,8.958-20.903,30.3-20.903,55.203
	c0,26.027,9.434,48.166,22.588,56.34l0.017-0.039c1.005,0.822,2.277,1.43,4.393-0.398c1.557-1.26,3.113-2.52,4.67-3.781
	c1.557-1.26,3.113-2.52,4.67-3.781c4.842-3.918,4.912-3.186,2.558-8.949c-0.704-1.725-1.408-3.447-2.112-5.172
	c-0.704-1.723-1.409-3.447-2.113-5.17c-1.743-4.266-1.929-5.143-6.549-4.703c-1.169,0.111-2.336,0.223-3.503,0.334
	c-1.168,0.111-2.336,0.223-3.503,0.334C133.173,182.934,132.436,181.084,131.63,179.818L131.63,179.818z M160.023,115.445h33.835
	c6.288,0,11.433,5.004,11.433,11.119v64.715c0,6.115-5.145,11.119-11.433,11.119h-32.404c0.185-2.875-0.957-5.418-2.079-8.164
	c-0.704-1.723-1.409-3.447-2.112-5.17c-0.704-1.725-1.409-3.447-2.112-5.17c-1.237-3.025-2.268-5.682-5.086-7.674
	c-2.904-2.053-6.072-2.193-9.466-1.869c-0.92,0.088-1.839,0.174-2.758,0.262c-2.263-5.197-3.212-11.227-3.212-16.803
	c0-5.252,0.836-10.846,2.797-15.801c0.895,0.084,1.79,0.17,2.684,0.256c3.453,0.328,6.666,0.123,9.461-2.238
	c2.649-2.238,2.973-4.541,4.157-7.439c0.705-1.723,1.409-3.447,2.113-5.17c0.704-1.725,1.408-3.447,2.112-5.172
	C158.895,119.943,159.85,117.781,160.023,115.445L160.023,115.445z M191.928,180.301c2.64,0,4.781,2.141,4.781,4.781
	s-2.142,4.781-4.781,4.781c-2.641,0-4.782-2.141-4.782-4.781S189.287,180.301,191.928,180.301L191.928,180.301z M191.928,166.512
	c2.64,0,4.781,2.141,4.781,4.781c0,2.639-2.142,4.781-4.781,4.781c-2.641,0-4.782-2.143-4.782-4.781
	C187.146,168.652,189.287,166.512,191.928,166.512L191.928,166.512z M166.262,180.301c2.64,0,4.781,2.141,4.781,4.781
	s-2.142,4.781-4.781,4.781s-4.781-2.141-4.781-4.781S163.622,180.301,166.262,180.301L166.262,180.301z M179.095,166.512
	c2.64,0,4.781,2.141,4.781,4.781c0,2.639-2.142,4.781-4.781,4.781s-4.781-2.143-4.781-4.781
	C174.313,168.652,176.455,166.512,179.095,166.512L179.095,166.512z M179.095,180.301c2.64,0,4.781,2.141,4.781,4.781
	s-2.142,4.781-4.781,4.781s-4.781-2.141-4.781-4.781S176.455,180.301,179.095,180.301L179.095,180.301z M166.262,166.512
	c2.64,0,4.781,2.141,4.781,4.781c0,2.639-2.142,4.781-4.781,4.781s-4.781-2.143-4.781-4.781
	C161.48,168.652,163.622,166.512,166.262,166.512L166.262,166.512z M166.262,153.473c2.64,0,4.781,2.143,4.781,4.781
	c0,2.641-2.142,4.783-4.781,4.783s-4.781-2.143-4.781-4.783C161.48,155.615,163.622,153.473,166.262,153.473L166.262,153.473z
	 M191.928,153.473c2.64,0,4.781,2.143,4.781,4.781c0,2.641-2.142,4.783-4.781,4.783c-2.641,0-4.782-2.143-4.782-4.783
	C187.146,155.615,189.287,153.473,191.928,153.473L191.928,153.473z M179.095,153.473c2.64,0,4.781,2.143,4.781,4.781
	c0,2.641-2.142,4.783-4.781,4.783s-4.781-2.143-4.781-4.783C174.313,155.615,176.455,153.473,179.095,153.473L179.095,153.473z
	 M164.816,131.902h28.688c2.079,0,3.78,1.701,3.78,3.779v1.557c0,2.08-1.701,3.781-3.78,3.781h-28.688
	c-2.08,0-3.781-1.701-3.781-3.781v-1.557C161.035,133.604,162.736,131.902,164.816,131.902L164.816,131.902z"/>  


<path fill-rule="evenodd" clip-rule="evenodd" fill="#F68D72" d="M135.436,35.762c-7.223-7.642-17.452-12.412-28.795-12.412
	c-11.85,0-22.485,5.206-29.745,13.453c-3.478,3.949-9.917-1.25-5.623-5.971c8.743-9.616,21.352-15.653,35.368-15.653
	c13.553,0,25.79,5.645,34.488,14.711C146.43,35.414,140.146,40.744,135.436,35.762L135.436,35.762z M146.647,24.517
	C136.55,14.013,122.358,7.475,106.641,7.475c-16.092,0-30.583,6.855-40.72,17.8c-3.864,4.174-9.928-0.623-5.406-5.457
	C72.042,7.501,88.444-0.197,106.641-0.197c17.788,0,33.861,7.358,45.342,19.195C157.262,24.442,151.369,29.431,146.647,24.517
	L146.647,24.517z M82.015,41.993c5.935-6.959,14.765-11.374,24.625-11.374c9.075,0,17.279,3.739,23.154,9.76
	c5.551,5.688,0.236,11.353-5.232,5.591c-4.502-4.744-10.866-7.704-17.922-7.704c-7.566,0-14.339,3.404-18.871,8.762
	C83.978,51.513,78.076,46.616,82.015,41.993L82.015,41.993z M106.641,73.075c-6.96,0-12.604-5.645-12.604-12.604
	c0-6.96,5.644-12.604,12.604-12.604s12.604,5.644,12.604,12.604C119.244,67.431,113.601,73.075,106.641,73.075L106.641,73.075z"/>  
    
<path fill-rule="evenodd" clip-rule="evenodd" fill="#9DA0A4" d="M50.625,182.246h59.616c1.192,5.15,2.798,10.264,4.873,15.08
	H50.625c-3.318,0-6.033-2.713-6.033-6.031v-3.018C44.592,184.961,47.307,182.246,50.625,182.246L50.625,182.246z M21.065,58.277
	h65.622c-0.079,0.72-0.119,1.453-0.119,2.194c0,2.864,0.602,5.588,1.684,8.055h-67.79c-1.66,0-3.017,1.357-3.017,3.017v73.899
	c0,1.658,1.357,3.016,3.017,3.016h87.39c-0.28,3.223-0.414,6.361-0.414,9.354c0,5.311,0.429,11.152,1.375,17.109
	c-28.747,1.518-58.793-0.178-87.748-5.947C14.558,167.678,9,163.545,9,156.908V70.341C9,63.706,14.429,58.277,21.065,58.277
	L21.065,58.277z M126.595,58.277h43.173c6.636,0,12.065,5.429,12.065,12.064v37.635h-9.954V71.542c0-1.659-1.357-3.017-3.017-3.017
	h-43.833c1.082-2.466,1.685-5.19,1.685-8.055C126.714,59.73,126.674,58.998,126.595,58.277L126.595,58.277z M93.154,159.926h4.826
	c0.996,0,1.81,0.813,1.81,1.809v3.018c0,0.994-0.813,1.809-1.81,1.809h-4.826c-0.996,0-1.81-0.814-1.81-1.809v-3.018
	C91.344,160.738,92.159,159.926,93.154,159.926L93.154,159.926z M23.022,103.718L58.19,76.949c1.018-0.776,2.665-0.339,3.661,0.968
	l0,0c0.995,1.307,0.976,3.011-0.042,3.786l-35.168,26.769c-1.018,0.774-2.665,0.339-3.66-0.969l0,0
	C21.986,106.196,22.004,104.492,23.022,103.718L23.022,103.718z M22.583,89.162l19.743-15.028c1.018-0.775,2.665-0.339,3.661,0.968
	l0,0c0.995,1.308,0.976,3.012-0.042,3.787L26.201,93.916c-1.018,0.774-2.665,0.339-3.66-0.968l0,0
	C21.545,91.64,21.564,89.937,22.583,89.162L22.583,89.162z"/>

</svg>
