<?xml version="1.0" encoding="utf-8"?>
<!DOCTYPE svg PUBLIC "-//W3C//DTD SVG 1.1//EN" "http://www.w3.org/Graphics/SVG/1.1/DTD/svg11.dtd">
<svg version="1.1" id="Layer_1" xmlns="http://www.w3.org/2000/svg" xmlns:xlink="http://www.w3.org/1999/xlink" x="0px" y="0px" width="216px" height="216px" viewBox="0 0 216 216" enable-background="new 0 0 216 216" xml:space="preserve">
    
<path d="M174.722,16.326h-22.424V5.978c0-2.86-2.317-5.175-5.175-5.175c-2.856,0-5.174,2.314-5.174,5.175v10.348
	h-31.045V5.978c0-2.86-2.317-5.175-5.175-5.175s-5.175,2.314-5.175,5.175v10.348H69.508V5.978c0-2.86-2.316-5.175-5.173-5.175
	s-5.174,2.314-5.174,5.175v10.348H36.737c-7.62,0-13.797,6.175-13.797,13.794v86.601l10.349-1.539V30.12
	c0-1.899,1.546-3.445,3.448-3.445h22.424v10.349c0,2.859,2.317,5.173,5.174,5.173s5.173-2.314,5.173-5.173V26.675h31.046v10.349
	c0,2.859,2.317,5.173,5.175,5.173s5.175-2.314,5.175-5.173V26.675h31.045v10.349c0,2.859,2.317,5.173,5.174,5.173
	c2.857,0,5.175-2.314,5.175-5.173V26.675h22.424c1.902,0,3.448,1.546,3.448,3.445v84.601l10.348,1.539V30.12
	C188.518,22.5,182.342,16.326,174.722,16.326L174.722,16.326z M59.161,78.418h4.053c2.651-1.438,5.666-2.228,8.791-2.228
	c2.762,0,5.438,0.617,7.853,1.751V62.895H59.161V78.418L59.161,78.418z M97.081,104.29h18.996V88.766H95.38v11.994L97.081,104.29
	L97.081,104.29z M95.38,78.418h20.697V62.895H95.38V78.418L95.38,78.418z M131.601,78.418h2.161
	c2.651-1.438,5.666-2.228,8.791-2.228c3.127,0,6.145,0.791,8.797,2.228h0.948V62.895h-20.697V78.418L131.601,78.418z"/>
</svg>
