<?xml version="1.0" encoding="utf-8"?>
<!DOCTYPE svg PUBLIC "-//W3C//DTD SVG 1.1//EN" "http://www.w3.org/Graphics/SVG/1.1/DTD/svg11.dtd">

<svg version="1.1" id="Layer_1" xmlns="http://www.w3.org/2000/svg" xmlns:xlink="http://www.w3.org/1999/xlink" x="0px" y="0px" width="216px" height="216px" viewBox="0 0 216 216" enable-background="new 0 0 216 216" xml:space="preserve">
    
<path fill-rule="evenodd" clip-rule="evenodd" d="M111.53,75.339h10.674v10.675H111.53V75.339L111.53,75.339z
	 M132.337,95.952h10.676v10.675h-10.676V95.952L132.337,95.952z M70.114,95.952h10.674v10.675H70.114V95.952L70.114,95.952z
	 M69.949,75.339h10.674v10.675H69.949V75.339L69.949,75.339z M90.887,54.402h10.675v10.675H90.887V54.402L90.887,54.402z
	 M90.887,75.339h10.675v10.675H90.887V75.339L90.887,75.339z M111.53,54.402h10.674v10.675H111.53V54.402L111.53,54.402z
	 M132.173,75.339h10.675v10.675h-10.675V75.339L132.173,75.339z"/>  
    
</svg>
