<?xml version="1.0" encoding="utf-8"?>
<!DOCTYPE svg PUBLIC "-//W3C//DTD SVG 1.1//EN" "http://www.w3.org/Graphics/SVG/1.1/DTD/svg11.dtd">
<svg version="1.1" id="Layer_1" xmlns="http://www.w3.org/2000/svg" xmlns:xlink="http://www.w3.org/1999/xlink" x="0px" y="0px" width="216px" height="216px" viewBox="0 0 216 216" enable-background="new 0 0 216 216" xml:space="preserve">
    
<path fill-rule="evenodd" clip-rule="evenodd" d="M33.44,174.115h15.58v11.906H33.44V174.115L33.44,174.115z
	 M68.938,190.047c0,1.768,0.329,3.324,0.987,4.666c0.658,1.334,1.556,2.455,2.685,3.344c1.129,0.898,2.445,1.564,3.956,2.018
	c1.512,0.453,3.13,0.676,4.846,0.676c1.165,0,2.249-0.088,3.245-0.285c0.996-0.186,1.875-0.416,2.641-0.684
	c0.764-0.275,1.405-0.551,1.92-0.854c0.506-0.293,0.88-0.551,1.103-0.783c0.231-0.223,0.391-0.551,0.48-0.969
	c0.098-0.426,0.143-1.041,0.143-1.84c0-0.543-0.018-0.986-0.045-1.352c-0.035-0.363-0.098-0.666-0.169-0.889
	c-0.08-0.223-0.187-0.383-0.32-0.48c-0.124-0.098-0.275-0.143-0.453-0.143c-0.24,0-0.587,0.143-1.032,0.428
	c-0.436,0.283-1.004,0.604-1.707,0.951c-0.694,0.346-1.521,0.666-2.48,0.951c-0.97,0.283-2.081,0.426-3.352,0.426
	c-0.835,0-1.583-0.098-2.241-0.293c-0.658-0.205-1.218-0.488-1.68-0.854c-0.453-0.363-0.809-0.809-1.049-1.352
	c-0.249-0.541-0.365-1.137-0.365-1.795c0-0.766,0.205-1.422,0.623-1.965c0.418-0.551,0.96-1.041,1.627-1.459
	c0.439-0.279,0.921-0.551,1.44-0.809h11.619c0.17,0,0.31-0.188,0.31-0.416v-1.66c0-0.229-0.14-0.416-0.31-0.416H67.21
	c-0.17,0-0.31,0.188-0.31,0.416v1.66c0,0.229,0.14,0.416,0.31,0.416h2.275C69.118,187.666,68.938,188.777,68.938,190.047
	L68.938,190.047z M67.21,179.543h11.303l0.319-0.139c0.871-0.363,1.646-0.764,2.33-1.191c0.685-0.426,1.235-0.916,1.645-1.457
	c0.409-0.551,0.613-1.201,0.613-1.947c0-0.498-0.098-0.979-0.276-1.432c-0.187-0.453-0.461-0.836-0.835-1.156
	c-0.374-0.318-0.835-0.578-1.396-0.756c-0.551-0.186-1.2-0.273-1.947-0.273c-0.959,0-1.831,0.115-2.631,0.354
	c-0.8,0.232-1.502,0.49-2.106,0.783c-0.614,0.285-1.121,0.551-1.538,0.791c-0.418,0.24-0.72,0.365-0.917,0.365
	c-0.187,0-0.337-0.053-0.453-0.16c-0.115-0.098-0.204-0.268-0.258-0.488c-0.062-0.232-0.106-0.518-0.133-0.863
	c-0.027-0.346-0.036-0.773-0.036-1.271c0-0.453,0.009-0.836,0.018-1.139c0.018-0.301,0.053-0.551,0.098-0.754
	c0.044-0.195,0.089-0.357,0.151-0.48c0.063-0.125,0.178-0.268,0.355-0.445c0.168-0.168,0.524-0.391,1.066-0.648
	c0.542-0.258,1.156-0.498,1.85-0.701c0.693-0.215,1.44-0.375,2.24-0.5c0.8-0.123,1.6-0.178,2.392-0.178
	c1.547,0,3.014,0.197,4.392,0.596c1.378,0.4,2.578,1.006,3.592,1.814c1.022,0.801,1.832,1.822,2.427,3.041
	c0.596,1.227,0.898,2.648,0.898,4.258c0,1.414-0.204,2.613-0.622,3.627c-0.049,0.119-0.101,0.236-0.154,0.352h1.763
	c0.17,0,0.31,0.188,0.31,0.416v1.66c0,0.23-0.14,0.416-0.31,0.416H67.21c-0.17,0-0.31-0.186-0.31-0.416v-1.66
	C66.901,179.73,67.041,179.543,67.21,179.543L67.21,179.543z M31.992,155.557h63.122c4.495,0,8.172,3.678,8.172,8.172v38.324
	c0,4.494-3.677,8.172-8.172,8.172H31.992c-4.495,0-8.172-3.678-8.172-8.172v-38.324C23.82,159.234,27.498,155.557,31.992,155.557
	L31.992,155.557z"/>   

</svg>
