<?xml version="1.0" encoding="utf-8"?>
<!DOCTYPE svg PUBLIC "-//W3C//DTD SVG 1.1//EN" "http://www.w3.org/Graphics/SVG/1.1/DTD/svg11.dtd">
<svg version="1.1" id="Layer_1" xmlns="http://www.w3.org/2000/svg" xmlns:xlink="http://www.w3.org/1999/xlink" x="0px" y="0px" width="216px" height="216px" viewBox="0 0 216 216" enable-background="new 0 0 216 216" xml:space="preserve">
    
<path fill="#61BFB9" d="M209.062,133.164c-1.157-3.346-4.135-5.795-7.717-6.328l-34.87-5.184l-15.161-31.468
	c-1.59-3.303-5.006-5.418-8.761-5.418c-3.75,0-7.164,2.115-8.76,5.418l-12.776,26.529l9.975,1.482l11.562-24.002l15.161,31.463
	c1.371,2.842,4.111,4.834,7.297,5.309l34.873,5.193l-25.553,25.512l0,0c-2.143,2.139-3.116,5.145-2.621,8.098l5.926,35.396
	l-30.399-16.363c-1.46-0.785-3.071-1.178-4.684-1.178c-1.605,0-3.218,0.393-4.678,1.178l-13.786,7.42l1.006,6.004
	c0.231,1.379,0.294,2.76,0.202,4.117l17.256-9.291l30.404,16.367c1.465,0.781,3.075,1.174,4.679,1.174
	c1.959,0,3.91-0.582,5.579-1.723c3.026-2.086,4.568-5.664,3.971-9.227l-5.931-35.393l25.558-25.516
	C209.343,140.211,210.211,136.518,209.062,133.164L209.062,133.164z"/>

    
<path fill="#F68D72" d="M138.514,133.164c-1.158-3.346-4.136-5.795-7.718-6.328l-34.87-5.184L80.766,90.185
	c-1.591-3.304-5.006-5.418-8.761-5.418c-3.75,0-7.164,2.115-8.76,5.418l-15.156,31.468l-34.874,5.184
	c-3.583,0.533-6.56,2.982-7.712,6.328c-1.154,3.354-0.283,7.047,2.25,9.57l25.553,25.516l-5.926,35.393
	c-0.602,3.563,0.944,7.141,3.971,9.227c1.664,1.141,3.62,1.723,5.574,1.723c1.607,0,3.219-0.393,4.683-1.174l30.398-16.367
	l30.404,16.367c1.464,0.781,3.076,1.174,4.679,1.174c1.958,0,3.91-0.582,5.579-1.723c3.025-2.086,4.567-5.664,3.971-9.227
	l-5.931-35.393l25.558-25.516C138.795,140.211,139.662,136.518,138.514,133.164L138.514,133.164z M103.783,161.67L103.783,161.67
	c-2.143,2.139-3.116,5.145-2.621,8.098l5.926,35.396l-30.4-16.363c-1.46-0.785-3.071-1.178-4.683-1.178
	c-1.606,0-3.218,0.393-4.678,1.178l-30.403,16.363l5.931-35.396c0.495-2.953-0.479-5.959-2.621-8.098L14.68,136.158l34.868-5.193
	c3.187-0.475,5.931-2.467,7.301-5.309l15.156-31.463l15.161,31.463c1.371,2.842,4.111,4.834,7.297,5.309l34.874,5.193
	L103.783,161.67L103.783,161.67z"/>

    
<path fill="#9DA0A4" d="M174.722,16.326h-22.424V5.978c0-2.86-2.317-5.175-5.175-5.175c-2.856,0-5.174,2.314-5.174,5.175v10.348
	h-31.045V5.978c0-2.86-2.317-5.175-5.175-5.175s-5.175,2.314-5.175,5.175v10.348H69.508V5.978c0-2.86-2.316-5.175-5.173-5.175
	s-5.174,2.314-5.174,5.175v10.348H36.737c-7.62,0-13.797,6.175-13.797,13.794v86.601l10.349-1.539V30.12
	c0-1.899,1.546-3.445,3.448-3.445h22.424v10.349c0,2.859,2.317,5.173,5.174,5.173s5.173-2.314,5.173-5.173V26.675h31.046v10.349
	c0,2.859,2.317,5.173,5.175,5.173s5.175-2.314,5.175-5.173V26.675h31.045v10.349c0,2.859,2.317,5.173,5.174,5.173
	c2.857,0,5.175-2.314,5.175-5.173V26.675h22.424c1.902,0,3.448,1.546,3.448,3.445v84.601l10.348,1.539V30.12
	C188.518,22.5,182.342,16.326,174.722,16.326L174.722,16.326z M59.161,78.418h4.053c2.651-1.438,5.666-2.228,8.791-2.228
	c2.762,0,5.438,0.617,7.853,1.751V62.895H59.161V78.418L59.161,78.418z M97.081,104.29h18.996V88.766H95.38v11.994L97.081,104.29
	L97.081,104.29z M95.38,78.418h20.697V62.895H95.38V78.418L95.38,78.418z M131.601,78.418h2.161
	c2.651-1.438,5.666-2.228,8.791-2.228c3.127,0,6.145,0.791,8.797,2.228h0.948V62.895h-20.697V78.418L131.601,78.418z"/>
</svg>
