<?xml version="1.0" encoding="utf-8"?>
<!DOCTYPE svg PUBLIC "-//W3C//DTD SVG 1.1//EN" "http://www.w3.org/Graphics/SVG/1.1/DTD/svg11.dtd">
<svg version="1.1" id="Layer_1" xmlns="http://www.w3.org/2000/svg" xmlns:xlink="http://www.w3.org/1999/xlink" x="0px" y="0px" width="216px" height="216px" viewBox="0 0 216 216" enable-background="new 0 0 216 216" xml:space="preserve">
  
<path fill-rule="evenodd" clip-rule="evenodd" d="M8.824,19.97c0-3.69,3.259-6.894,6.864-6.894h137.273
	c3.659,0,6.864,3.082,6.864,6.894v29.667h9.314V19.51c0-8.047-7.518-14.708-16.179-14.708H15.198C7.827,4.803,0,11.191,0,17.672
	v88.244c0,4.909,7.893,11.95,13.727,11.95h93.688V98.562H14.708c-3.939,0-5.883-3.477-5.883-7.354V19.97L8.824,19.97z
	 M80.893,107.754c0-1.299,2.045-2.758,3.432-2.758c1.909,0,3.432,1.263,3.432,3.217v0.459c0,1.763-1.415,3.218-2.941,3.218
	c-1.792,0-3.922-1.27-3.922-2.758V107.754L80.893,107.754z M53.438,144.521c0,1.072,1.308,2.299,2.451,2.299h18.536h19.682h13.308
	v-7.813h-5.144c-1.046,0.199-1.637-0.359-1.999-1.375V125.68c-0.56-0.785-1.443-1.84-2.828-1.84h-3.337H74.425h-3.338
	c-1.384,0-2.268,1.055-2.828,1.84v11.953c-0.362,1.016-0.953,1.574-1.999,1.375H55.889c-0.854,0.535-2.451,1.486-2.451,2.756
	V144.521L53.438,144.521z M162.188,185.727h5.735c0.87,0,1.583,0.713,1.583,1.582v0.99c0,0.869-0.713,1.582-1.583,1.582h-5.735
	c-0.87,0-1.582-0.713-1.582-1.582v-0.99C160.605,186.439,161.317,185.727,162.188,185.727L162.188,185.727z M207.42,181.574v10.16
	c0,1.309-1.071,2.379-2.38,2.379h-80.046c-1.31,0-2.381-1.07-2.381-2.379v-10.16H207.42L207.42,181.574z M215.646,165.922v25.813
	c0,5.832-4.772,10.605-10.606,10.605h-80.046c-5.834,0-10.606-4.773-10.606-10.605V66.2c0-5.833,4.772-10.606,10.606-10.606h80.046
	c5.834,0,10.606,4.774,10.606,10.606V165.922L215.646,165.922z M207.42,158.178V82.874h-84.807v93.164h84.807V158.178
	L207.42,158.178z M122.613,77.335h84.807V66.2c0-1.309-1.071-2.38-2.38-2.38h-80.046c-1.31,0-2.381,1.071-2.381,2.38V77.335
	L122.613,77.335z M156.894,67.856h16.02c1.088,0,1.978,0.89,1.978,1.978v0.593c0,1.088-0.89,1.978-1.978,1.978h-16.02
	c-1.088,0-1.978-0.89-1.978-1.978v-0.593C154.916,68.746,155.806,67.856,156.894,67.856L156.894,67.856z"/>

</svg>
