<?xml version="1.0" encoding="utf-8"?>
<!DOCTYPE svg PUBLIC "-//W3C//DTD SVG 1.1//EN" "http://www.w3.org/Graphics/SVG/1.1/DTD/svg11.dtd">
<svg version="1.1" id="Layer_1" xmlns="http://www.w3.org/2000/svg" xmlns:xlink="http://www.w3.org/1999/xlink" x="0px" y="0px" width="216px" height="216px" viewBox="0 0 216 216" enable-background="new 0 0 216 216" xml:space="preserve">
    
<path d="M209.062,133.164c-1.157-3.346-4.135-5.795-7.717-6.328l-34.87-5.184l-15.161-31.468
	c-1.59-3.303-5.006-5.418-8.761-5.418c-3.75,0-7.164,2.115-8.76,5.418l-12.776,26.529l9.975,1.482l11.562-24.002l15.161,31.463
	c1.371,2.842,4.111,4.834,7.297,5.309l34.873,5.193l-25.553,25.512l0,0c-2.143,2.139-3.116,5.145-2.621,8.098l5.926,35.396
	l-30.399-16.363c-1.46-0.785-3.071-1.178-4.684-1.178c-1.605,0-3.218,0.393-4.678,1.178l-13.786,7.42l1.006,6.004
	c0.231,1.379,0.294,2.76,0.202,4.117l17.256-9.291l30.404,16.367c1.465,0.781,3.075,1.174,4.679,1.174
	c1.959,0,3.91-0.582,5.579-1.723c3.026-2.086,4.568-5.664,3.971-9.227l-5.931-35.393l25.558-25.516
	C209.343,140.211,210.211,136.518,209.062,133.164L209.062,133.164z"/>

</svg>
