<?xml version="1.0" encoding="utf-8"?>
<!DOCTYPE svg PUBLIC "-//W3C//DTD SVG 1.1//EN" "http://www.w3.org/Graphics/SVG/1.1/DTD/svg11.dtd">
<svg version="1.1" xmlns="http://www.w3.org/2000/svg" xmlns:xlink="http://www.w3.org/1999/xlink" x="0px" y="0px" width="216px" height="216px" viewBox="0 0 216 216" enable-background="new 0 0 216 216" xml:space="preserve">
    
<g>
    
	<path fill-rule="evenodd" clip-rule="evenodd" d="M57.496,134.064H74.21c0.832,0,1.511,0.657,1.511,1.46v9.614
		c0,0.803-0.679,1.458-1.511,1.458H57.496c-0.831,0-1.512-0.655-1.512-1.458v-9.614C55.984,134.722,56.665,134.064,57.496,134.064
		L57.496,134.064z M32.157,16.462H73.41v18.26l34.495-33.307L214.173,104.02h-14.532l-15.069-14.548l0.505,88.029
		c0.115,20.395-17.284,37.084-38.409,37.084H68.431c-21.123,0-38.573-16.689-38.407-37.084l0.71-87.542L16.17,104.02H1.637
		l30.519-29.443l0.001-1.458V16.462L32.157,16.462z M73.41,48.754L48.176,73.118l-6.418,6.198v98.185
		c0,14.143,12.026,25.755,26.673,25.755h78.236c14.649,0,26.674-11.612,26.674-25.755V78.628l-65.436-63.181L73.41,48.754
		L73.41,48.754z"/>
</g>
    
</svg>
