<?xml version="1.0" encoding="utf-8"?>
<!DOCTYPE svg PUBLIC "-//W3C//DTD SVG 1.1//EN" "http://www.w3.org/Graphics/SVG/1.1/DTD/svg11.dtd">
<svg version="1.1" id="Layer_1" xmlns="http://www.w3.org/2000/svg" xmlns:xlink="http://www.w3.org/1999/xlink" x="0px" y="0px" width="216px" height="216px" viewBox="0 0 216 216" enable-background="new 0 0 216 216" xml:space="preserve">
    
<path fill-rule="evenodd" clip-rule="evenodd" d="M210.941,32.886c0.709-0.333,1.857,1.278,1.383,1.902
	c-22.228,29.243-40.443,61.217-57.188,94.195c-0.514,1.011-2.802,0.919-3.404-0.043c-10.161-16.243-23.127-31.483-38.002-46.017
	c-0.966-0.943-0.772-2.976,0.043-4.05c2.564-3.377,5.854-5.033,8.183-6.5c2.328-1.467,4.098-0.915,5.088-0.13
	c7.541,5.978,14.238,12.501,21.675,18.61c0.646,0.53,1.935,0.401,2.499-0.215c15.958-17.44,30.746-36.055,49.073-50.198
	C203.737,37.782,207.002,34.736,210.941,32.886L210.941,32.886z"/> 

</svg>
