<?xml version="1.0" encoding="utf-8"?>
<!-- Generator: Adobe Illustrator 16.0.0, SVG Export Plug-In . SVG Version: 6.00 Build 0)  -->
<!DOCTYPE svg PUBLIC "-//W3C//DTD SVG 1.1//EN" "http://www.w3.org/Graphics/SVG/1.1/DTD/svg11.dtd">
<svg version="1.1" id="Layer_1" xmlns="http://www.w3.org/2000/svg" xmlns:xlink="http://www.w3.org/1999/xlink" x="0px" y="0px" width="216px" height="216px" viewBox="0 0 216 216" enable-background="new 0 0 216 216" xml:space="preserve">

<path fill="#61BFB9" d="M43.76,102.144h23.291V84.675H43.76V102.144L43.76,102.144z M43.76,131.258h23.291v-17.47H43.76V131.258
	L43.76,131.258z M43.76,160.371h23.291v-17.469H43.76V160.371L43.76,160.371z M84.518,160.371h23.291v-17.469H84.518V160.371
	L84.518,160.371z M84.518,131.258h23.291v-17.47H84.518V131.258L84.518,131.258z M84.518,102.144h23.291V89.127l-0.071-0.07
	c-1.272-1.243-2.159-2.755-2.677-4.383H84.518V102.144L84.518,102.144z M125.278,160.371h23.29v-17.469h-23.29V160.371
	L125.278,160.371z M125.278,131.258h17.766c-3.898-6.037-8.15-11.855-12.667-17.47h-5.099V131.258L125.278,131.258z"/>
    
<path fill-rule="evenodd" clip-rule="evenodd" fill="#F68D72" d="M210.941,32.886c0.709-0.333,1.857,1.278,1.383,1.902
	c-22.228,29.243-40.443,61.217-57.188,94.195c-0.514,1.011-2.802,0.919-3.404-0.043c-10.161-16.243-23.127-31.483-38.002-46.017
	c-0.966-0.943-0.772-2.976,0.043-4.05c2.564-3.377,5.854-5.033,8.183-6.5c2.328-1.467,4.098-0.915,5.088-0.13
	c7.541,5.978,14.238,12.501,21.675,18.61c0.646,0.53,1.935,0.401,2.499-0.215c15.958-17.44,30.746-36.055,49.073-50.198
	C203.737,37.782,207.002,34.736,210.941,32.886L210.941,32.886z"/> 
    
<path fill="#9DA0A4" d="M173.802,32.271h-25.233V20.626c0-3.219-2.607-5.823-5.823-5.823c-3.215,0-5.823,2.604-5.823,5.823v11.645
	h-34.935V20.626c0-3.219-2.608-5.823-5.823-5.823c-3.215,0-5.823,2.604-5.823,5.823v11.645H55.404V20.626
	c0-3.219-2.606-5.823-5.821-5.823c-3.215,0-5.823,2.604-5.823,5.823v11.645H18.526C9.952,32.271,3,39.219,3,47.793V185.6
	c0,8.576,6.952,15.53,15.526,15.53h155.275c8.575,0,15.525-6.954,15.525-15.53v-101.2c-4.003,6.683-7.877,13.445-11.645,20.266
	V185.6l0,0c0,2.145-1.74,3.884-3.881,3.884H18.526c-2.141,0-3.88-1.739-3.88-3.884V47.793c0-2.137,1.74-3.877,3.88-3.877H43.76
	v11.646c0,3.217,2.608,5.822,5.823,5.822c3.215,0,5.821-2.604,5.821-5.822V43.917h34.937v11.646c0,3.217,2.608,5.822,5.823,5.822
	c3.215,0,5.823-2.604,5.823-5.822V43.917h34.935v11.646c0,3.217,2.608,5.822,5.823,5.822c3.216,0,5.823-2.604,5.823-5.822V43.917
	h25.233c2.141,0,3.881,1.74,3.881,3.877v1.235c3.105-3.081,6.29-6.081,9.586-8.965C184.589,35.406,179.562,32.271,173.802,32.271
	L173.802,32.271z"/>


</svg>
