<?xml version="1.0" encoding="utf-8"?>
<!DOCTYPE svg PUBLIC "-//W3C//DTD SVG 1.1//EN" "http://www.w3.org/Graphics/SVG/1.1/DTD/svg11.dtd">
<svg version="1.1" id="Layer_1" xmlns="http://www.w3.org/2000/svg" xmlns:xlink="http://www.w3.org/1999/xlink" x="0px" y="0px" width="216px" height="216px" viewBox="0 0 216 216" enable-background="new 0 0 216 216" xml:space="preserve">

<path d="M43.76,102.144h23.291V84.675H43.76V102.144L43.76,102.144z M43.76,131.258h23.291v-17.47H43.76V131.258
	L43.76,131.258z M43.76,160.371h23.291v-17.469H43.76V160.371L43.76,160.371z M84.518,160.371h23.291v-17.469H84.518V160.371
	L84.518,160.371z M84.518,131.258h23.291v-17.47H84.518V131.258L84.518,131.258z M84.518,102.144h23.291V89.127l-0.071-0.07
	c-1.272-1.243-2.159-2.755-2.677-4.383H84.518V102.144L84.518,102.144z M125.278,160.371h23.29v-17.469h-23.29V160.371
	L125.278,160.371z M125.278,131.258h17.766c-3.898-6.037-8.15-11.855-12.667-17.47h-5.099V131.258L125.278,131.258z"/>

</svg>
