<?xml version="1.0" encoding="utf-8"?>
<!DOCTYPE svg PUBLIC "-//W3C//DTD SVG 1.1//EN" "http://www.w3.org/Graphics/SVG/1.1/DTD/svg11.dtd">
<svg version="1.1" id="Layer_1" xmlns="http://www.w3.org/2000/svg" xmlns:xlink="http://www.w3.org/1999/xlink" x="0px" y="0px" width="216px" height="216px" viewBox="0 0 216 216" enable-background="new 0 0 216 216" xml:space="preserve">

<path d="M173.802,32.271h-25.233V20.626c0-3.219-2.607-5.823-5.823-5.823c-3.215,0-5.823,2.604-5.823,5.823v11.645
	h-34.935V20.626c0-3.219-2.608-5.823-5.823-5.823c-3.215,0-5.823,2.604-5.823,5.823v11.645H55.404V20.626
	c0-3.219-2.606-5.823-5.821-5.823c-3.215,0-5.823,2.604-5.823,5.823v11.645H18.526C9.952,32.271,3,39.219,3,47.793V185.6
	c0,8.576,6.952,15.53,15.526,15.53h155.275c8.575,0,15.525-6.954,15.525-15.53v-101.2c-4.003,6.683-7.877,13.445-11.645,20.266
	V185.6l0,0c0,2.145-1.74,3.884-3.881,3.884H18.526c-2.141,0-3.88-1.739-3.88-3.884V47.793c0-2.137,1.74-3.877,3.88-3.877H43.76
	v11.646c0,3.217,2.608,5.822,5.823,5.822c3.215,0,5.821-2.604,5.821-5.822V43.917h34.937v11.646c0,3.217,2.608,5.822,5.823,5.822
	c3.215,0,5.823-2.604,5.823-5.822V43.917h34.935v11.646c0,3.217,2.608,5.822,5.823,5.822c3.216,0,5.823-2.604,5.823-5.822V43.917
	h25.233c2.141,0,3.881,1.74,3.881,3.877v1.235c3.105-3.081,6.29-6.081,9.586-8.965C184.589,35.406,179.562,32.271,173.802,32.271
	L173.802,32.271z"/>


</svg>
