<?xml version="1.0" encoding="utf-8"?>
<!DOCTYPE svg PUBLIC "-//W3C//DTD SVG 1.1//EN" "http://www.w3.org/Graphics/SVG/1.1/DTD/svg11.dtd">
<svg version="1.1" xmlns="http://www.w3.org/2000/svg" xmlns:xlink="http://www.w3.org/1999/xlink" x="0px" y="0px" width="216px" height="216px" viewBox="0 0 216 216" enable-background="new 0 0 216 216" xml:space="preserve">
    
<g>

	<path display="inline" fill-rule="evenodd" clip-rule="evenodd" d="M36.309,187.791c8.5,0,6.952-8.111,6.952-16.357
		c0-7.635,0-15.269,0-22.903c0-15.268,0,3.855,0-11.413s0-27.77,0-43.038c0-7.634,0-15.268,0-22.902
		c0-7.818-1.441-16.358,6.544-16.358h9.461c-0.529-2.98-0.806-6.048-0.806-9.18c0-1.314,0.05-2.617,0.146-3.907h-7.983
		c-10.996,0-20.448,8.326-20.448,18.813v13.905h-5.726C13.453,74.449,4,82.774,4,93.261v93.712
		c0,15.497,11.171,26.992,26.583,26.992h156.226c15.411,0,26.582-11.495,26.582-26.992V62.18c0-11.932-8.518-20.449-20.448-20.449
		H162.75c0.096,1.29,0.146,2.593,0.146,3.907c0,3.132-0.276,6.2-0.806,9.18h31.671c3.695,0,6.543,2.848,6.543,6.543v127.657
		c0,6.78-6.771,11.859-14.313,11.859H31.4c-7.495,0-14.313-5.091-14.313-11.859V94.079c0-3.696,2.848-6.543,6.543-6.543h6.544
		v93.712C30.174,184.717,32.991,187.791,36.309,187.791L36.309,187.791z"/>
</g>
</svg>
