<?xml version="1.0" encoding="iso-8859-1"?>
<!-- Generator: Adobe Illustrator 12.0.0, SVG Export Plug-In . SVG Version: 6.00 Build 51448)  -->
<!DOCTYPE svg PUBLIC "-//W3C//DTD SVG 1.1//EN" "http://www.w3.org/Graphics/SVG/1.1/DTD/svg11.dtd" [
	<!ENTITY ns_svg "http://www.w3.org/2000/svg">
	<!ENTITY ns_xlink "http://www.w3.org/1999/xlink">
]>
<svg  version="1.1" id="Layer_1" xmlns="&ns_svg;" xmlns:xlink="&ns_xlink;" width="117.437" height="122.733"
	 viewBox="0 0 117.437 122.733" overflow="visible" enable-background="new 0 0 117.437 122.733" xml:space="preserve">
<path fill="#FFFFFF" d="M117.15,75.987c-0.665-1.921-2.374-3.327-4.431-3.633l-20.019-2.977l-8.703-18.065
	c-0.913-1.897-2.874-3.111-5.03-3.111c-2.152,0-4.112,1.214-5.028,3.111l-7.335,15.229l5.726,0.852l6.638-13.779l8.704,18.063
	c0.787,1.632,2.36,2.774,4.189,3.048l20.021,2.981l-14.67,14.646l0,0c-1.23,1.229-1.789,2.954-1.505,4.649l3.402,20.32
	l-17.452-9.394c-0.839-0.45-1.764-0.676-2.689-0.676c-0.922,0-1.848,0.226-2.686,0.676l-7.914,4.26l0.577,3.447
	c0.133,0.791,0.169,1.583,0.116,2.363l9.906-5.334l17.455,9.396c0.841,0.448,1.766,0.674,2.687,0.674
	c1.124,0,2.244-0.334,3.202-0.988c1.737-1.197,2.622-3.252,2.28-5.297l-3.405-20.319l14.672-14.648
	C117.312,80.032,117.81,77.913,117.15,75.987L117.15,75.987z M76.648,75.987c-0.664-1.921-2.373-3.327-4.43-3.633L52.2,69.378
	l-8.704-18.065c-0.914-1.897-2.874-3.111-5.03-3.111c-2.153,0-4.113,1.214-5.029,3.111l-8.701,18.065L4.716,72.354
	C2.66,72.66,0.95,74.066,0.288,75.987c-0.662,1.926-0.162,4.045,1.292,5.493L16.25,96.13l-3.402,20.318
	c-0.345,2.045,0.542,4.1,2.28,5.297c0.956,0.654,2.078,0.988,3.2,0.988c0.923,0,1.848-0.226,2.688-0.674l17.452-9.396l17.455,9.396
	c0.841,0.448,1.766,0.674,2.686,0.674c1.125,0,2.244-0.334,3.203-0.988c1.736-1.197,2.622-3.252,2.279-5.297L60.685,96.13
	L75.357,81.48C76.811,80.032,77.309,77.913,76.648,75.987L76.648,75.987z M56.71,92.352L56.71,92.352
	c-1.23,1.229-1.789,2.954-1.505,4.649l3.402,20.321l-17.452-9.395c-0.838-0.45-1.763-0.676-2.688-0.676
	c-0.922,0-1.848,0.226-2.686,0.676l-17.454,9.395l3.405-20.321c0.284-1.695-0.274-3.421-1.504-4.649L5.557,77.706l20.018-2.981
	c1.829-0.272,3.405-1.417,4.191-3.048l8.701-18.063l8.704,18.063c0.787,1.631,2.36,2.775,4.189,3.048l20.02,2.981L56.71,92.352
	L56.71,92.352z M97.436,8.911H84.563v-5.94c0-1.642-1.33-2.971-2.971-2.971c-1.64,0-2.971,1.329-2.971,2.971v5.94H60.799v-5.94
	c0-1.642-1.33-2.971-2.971-2.971s-2.971,1.329-2.971,2.971v5.94H37.034v-5.94c0-1.642-1.33-2.971-2.97-2.971
	c-1.641,0-2.971,1.329-2.971,2.971v5.94H18.22c-4.375,0-7.921,3.545-7.921,7.919v49.716l5.941-0.884V16.831
	c0-1.09,0.887-1.978,1.979-1.978h12.873v5.941c0,1.641,1.33,2.97,2.971,2.97c1.64,0,2.97-1.329,2.97-2.97v-5.941h17.824v5.941
	c0,1.641,1.33,2.97,2.971,2.97s2.971-1.329,2.971-2.97v-5.941h17.822v5.941c0,1.641,1.331,2.97,2.971,2.97
	c1.641,0,2.971-1.329,2.971-2.97v-5.941h12.873c1.093,0,1.98,0.888,1.98,1.978v48.568l5.94,0.884V16.831
	C105.356,12.456,101.811,8.911,97.436,8.911L97.436,8.911z M31.093,44.558h2.327c1.522-0.825,3.253-1.279,5.047-1.279
	c1.586,0,3.122,0.354,4.508,1.005v-8.638H31.093V44.558L31.093,44.558z M52.863,59.411h10.905v-8.912H51.887v6.886L52.863,59.411
	L52.863,59.411z M51.887,44.558h11.882v-8.912H51.887V44.558L51.887,44.558z M72.681,44.558h1.24
	c1.522-0.825,3.253-1.279,5.047-1.279c1.796,0,3.527,0.454,5.05,1.279h0.545v-8.912H72.681V44.558L72.681,44.558z"/>
</svg>
