<?xml version="1.0" encoding="iso-8859-1"?>
<!-- Generator: Adobe Illustrator 12.0.0, SVG Export Plug-In . SVG Version: 6.00 Build 51448)  -->
<!DOCTYPE svg PUBLIC "-//W3C//DTD SVG 1.1//EN" "http://www.w3.org/Graphics/SVG/1.1/DTD/svg11.dtd" [
	<!ENTITY ns_svg "http://www.w3.org/2000/svg">
	<!ENTITY ns_xlink "http://www.w3.org/1999/xlink">
]>
<svg  version="1.1" id="Layer_1" xmlns="&ns_svg;" xmlns:xlink="&ns_xlink;" width="134.991" height="130.829"
	 viewBox="0 0 134.991 130.829" overflow="visible" enable-background="new 0 0 134.991 130.829" xml:space="preserve">
<path fill-rule="evenodd" clip-rule="evenodd" fill="#FFFFFF" d="M134.046,0.028c0.448-0.21,1.174,0.808,0.874,1.202
	c-14.047,18.48-25.559,38.687-36.141,59.527c-0.324,0.639-1.771,0.581-2.15-0.027c-6.422-10.264-14.615-19.896-24.016-29.08
	c-0.61-0.597-0.488-1.88,0.027-2.56c1.62-2.134,3.698-3.18,5.17-4.107c1.473-0.926,2.591-0.578,3.216-0.082
	c4.766,3.778,8.998,7.9,13.697,11.761c0.408,0.335,1.223,0.253,1.579-0.136c10.086-11.021,19.431-22.785,31.013-31.723
	C129.494,3.123,131.557,1.198,134.046,0.028L134.046,0.028z M110.708,8.665H26.723c-6.326,0-11.452,5.126-11.452,11.452v7.635
	h-3.818C5.126,27.752,0,32.879,0,39.205v76.353c0,8.433,6.837,15.271,15.271,15.271h91.621c8.433,0,15.271-6.838,15.271-15.271
	V29.649c-2.628,4.298-5.168,8.653-7.635,13.049v72.859l0,0c0,4.206-3.427,7.636-7.636,7.636H15.271c-4.209,0-7.636-3.43-7.636-7.636
	V39.205c0-2.106,1.711-3.818,3.818-3.818h3.818v76.354c0,2.11,1.708,3.817,3.817,3.817c2.109,0,3.817-1.707,3.817-3.817V20.117
	c0-2.106,1.712-3.817,3.818-3.817h80.459c2.252-2.43,4.547-4.817,6.919-7.125C113.03,8.844,111.89,8.665,110.708,8.665
	L110.708,8.665z M80.299,105.656l-3.155-8.297H50.269l-3.155,8.481c-1.247,3.31-2.293,5.541-3.171,6.695
	c-0.862,1.154-2.293,1.739-4.279,1.739c-1.678,0-3.17-0.615-4.464-1.847c-1.293-1.231-1.939-2.632-1.939-4.202
	c0-0.893,0.154-1.832,0.446-2.786c0.308-0.97,0.801-2.309,1.493-4.018l16.916-42.928c0.477-1.231,1.062-2.709,1.739-4.433
	c0.677-1.739,1.385-3.171,2.155-4.31c0.77-1.139,1.786-2.063,3.032-2.771c1.247-0.708,2.786-1.062,4.618-1.062
	c1.862,0,3.417,0.354,4.663,1.062c1.247,0.708,2.263,1.616,3.032,2.725c0.755,1.108,1.4,2.309,1.939,3.586
	c0.523,1.277,1.186,2.986,2.001,5.11l17.271,42.667c1.354,3.248,2.031,5.603,2.031,7.08c0,1.524-0.646,2.925-1.924,4.202
	s-2.816,1.924-4.617,1.924c-1.047,0-1.955-0.185-2.709-0.569c-0.755-0.369-1.386-0.877-1.894-1.523s-1.063-1.647-1.647-2.986
	S80.714,106.687,80.299,105.656L80.299,105.656z M53.778,87.308h19.763l-9.974-27.274L53.778,87.308L53.778,87.308z"/>
</svg>
