<?xml version="1.0" encoding="utf-8"?>
<!DOCTYPE svg PUBLIC "-//W3C//DTD SVG 1.1//EN" "http://www.w3.org/Graphics/SVG/1.1/DTD/svg11.dtd">
<svg version="1.1" id="insurace" xmlns="http://www.w3.org/2000/svg" xmlns:xlink="http://www.w3.org/1999/xlink" x="0px" y="0px" width="216px" height="216px" viewBox="0 0 216 216" enable-background="new 0 0 216 216" xml:space="preserve">
<path fill-rule="evenodd" clip-rule="evenodd" d="M115.536,213.58c-1.02,0-1.85-0.832-1.85-1.853v-5.302
	c0-1.019,0.83-1.856,1.85-1.856h9.943c-0.009-0.381-0.009-0.762-0.009-1.146c0-25.576,11.667-47.48,28.214-56.558
	c-16.547-9.076-28.214-30.977-28.214-56.557c0-0.514,0.004-1.025,0.013-1.536h-9.947c-1.02,0-1.85-0.833-1.85-1.854v-5.305
	c0-1.02,0.83-1.854,1.85-1.854c31.626,0,63.251,0,94.876,0c1.02,0,1.853,0.84,1.853,1.854v5.305c0,1.014-0.842,1.854-1.853,1.854
	l-9.882,0.002h-0.049c0,0.449,0,0.959,0,1.534c0,13.045-11.671,47.481-28.214,56.557c16.543,9.077,28.635,36.409,28.214,56.558
	c-0.009,0.4-0.017,0.781-0.024,1.149l0.016-0.004h9.939c1.02,0,1.853,0.842,1.853,1.856v5.302c0,1.017-0.838,1.853-1.853,1.853
	H115.536L115.536,213.58z M133.402,88.773c-0.013,0.51-0.017,1.022-0.017,1.536c0,3.156,0.194,6.246,0.567,9.251h26.13h5.782h26.13
	c0.372-3.005,0.566-7.416,0.566-9.251c0-1.833-0.004-1.025-0.012-1.536H133.402L133.402,88.773z M162.803,151.508
	c-16.811,5.159-29.417,26.446-29.417,51.916c0,0.384,0.004,0.765,0.008,1.146h59.087l0.041,0.012
	c0.012-0.368,0.028-0.757,0.04-1.157c0.623-17.696-12.604-46.514-29.468-51.924L162.803,151.508L162.803,151.508z"/>

</svg>
