<?xml version="1.0" encoding="utf-8"?>
<!DOCTYPE svg PUBLIC "-//W3C//DTD SVG 1.1//EN" "http://www.w3.org/Graphics/SVG/1.1/DTD/svg11.dtd">
<svg version="1.1" id="insurace" xmlns="http://www.w3.org/2000/svg" xmlns:xlink="http://www.w3.org/1999/xlink" x="0px" y="0px" width="216px" height="216px" viewBox="0 0 216 216" enable-background="new 0 0 216 216" xml:space="preserve">
<path fill-rule="evenodd" clip-rule="evenodd" d="M21.382,64.542C30.459,28.803,61.455,2.471,98.294,2.471
	s67.838,26.333,76.911,62.071c1.282,2.74-5.694,4.938-7.135,1.872c-3.185-6.637-9.582-10.651-15.96-9.401
	c-6.249,1.222-10.606,7.122-11.21,14.263c-0.037,3.132-5.164,3.996-5.803,0.672c-1.072-8.611-8.077-15.262-16.559-15.262
	c-9.086,0-16.481,7.636-16.695,17.138c-0.087,2.995-8.284,3.207-8.241-0.012c-0.221-9.498-7.934-17.126-16.695-17.126
	c-8.761,0-15.417,6.588-16.541,15.141c-0.922,2.741-5.364,2.367-5.593-0.668c-0.641-7.088-4.985-12.932-11.197-14.146
	c-6.317-1.239-12.65,2.685-15.867,9.202C26.003,69.766,20.233,68.272,21.382,64.542L21.382,64.542z M159.41,47.084
	c-12.439-21.677-34.988-36.443-61.116-36.443c-26.063,0-48.567,14.696-61.025,36.287c-1.442,2.501-1.837,2.319,0.907,1.906
	c2.248-0.34,4.587-0.308,6.97,0.158c4.626,0.906,8.49,3.272,11.428,6.52c2.086,2.304,1.332,1.843,3.575-0.277
	c4.403-4.165,10.267-6.722,16.757-6.722c7.677,0,14.402,3.547,18.917,9.034c2.333,2.837,1.364,3,3.693,0.132
	c4.515-5.563,11.284-9.166,19.022-9.166c6.555,0,12.468,2.608,16.882,6.839c2.51,2.406,1.559,2.442,3.914-0.087
	c2.909-3.12,6.692-5.391,11.2-6.272c2.4-0.469,4.756-0.498,7.018-0.152C160.688,49.32,161.356,50.483,159.41,47.084L159.41,47.084z
	 M92.807,133.363V83.778c0-2.451,2.005-4.456,4.456-4.456h3.753c2.45,0,4.455,2.007,4.455,4.456v50.16
	c0,10.538-11.019,16.421-20.213,16.421c-8.917,0-20.555-6.146-20.555-16.413V115.14c0-2.733,2.235-4.969,4.969-4.969h3.49
	c2.734,0,4.97,2.235,4.97,4.969v18.798v0.008c0,3.188,3.19,5.774,7.126,5.774c3.934,0,7.549-2.586,7.549-5.774V133.363
	L92.807,133.363z"/>
</svg>
