<?xml version="1.0" encoding="utf-8"?>
<!DOCTYPE svg PUBLIC "-//W3C//DTD SVG 1.1//EN" "http://www.w3.org/Graphics/SVG/1.1/DTD/svg11.dtd">
<svg version="1.1" xmlns="http://www.w3.org/2000/svg" xmlns:xlink="http://www.w3.org/1999/xlink" x="0px" y="0px" width="216px" height="216px" viewBox="0 0 216 216" enable-background="new 0 0 216 216" xml:space="preserve">

<path fill-rule="evenodd" clip-rule="evenodd" d="M105.208,194.077c3.958-6.145,8.272-13.143,12.047-20.01
	c3.304,0.68,6.725,1.036,10.229,1.036c1.138,0,2.272-0.038,3.402-0.114c-8.643,17.073-20.867,34.562-25.072,40.747
	c-8.417-8.84-34.253-49.105-34.253-68.782c0-7.108,2.002-13.73,5.451-19.291c0.53,8.666,3.242,16.741,7.594,23.686
	C86.983,162.39,96.699,180.904,105.208,194.077L105.208,194.077z M110.926,129.778c6.467,0,11.709,5.456,11.709,12.181
	c0,5.549-3.568,10.232-8.448,11.702c-6.294-2.878-11.493-7.735-14.8-13.776C100.333,134.147,105.138,129.778,110.926,129.778
	L110.926,129.778z M133.026,156.067c7.016-1.225,13.245-4.732,17.896-9.729c0.219-1.533,0.333-2.997,0.333-4.379
	c0-23.169-18.06-41.957-40.33-41.957c-1.449,0-2.88,0.081-4.289,0.236c-5.744,4.935-9.718,11.871-10.84,19.729
	c4.166-3.27,9.348-5.248,15.129-5.248c14.759,0,25.613,12.892,25.613,27.24C136.539,145.695,135.209,150.573,133.026,156.067
	L133.026,156.067z"/>

</svg>
