<?xml version="1.0" encoding="iso-8859-1"?>
<!-- Generator: Adobe Illustrator 12.0.0, SVG Export Plug-In . SVG Version: 6.00 Build 51448)  -->
<!DOCTYPE svg PUBLIC "-//W3C//DTD SVG 1.1//EN" "http://www.w3.org/Graphics/SVG/1.1/DTD/svg11.dtd" [
	<!ENTITY ns_svg "http://www.w3.org/2000/svg">
	<!ENTITY ns_xlink "http://www.w3.org/1999/xlink">
]>
<svg  version="1.1" id="Layer_1" xmlns="&ns_svg;" xmlns:xlink="&ns_xlink;" width="109.292" height="124.35"
	 viewBox="0 0 109.292 124.35" overflow="visible" enable-background="new 0 0 109.292 124.35" xml:space="preserve">
<path fill-rule="evenodd" clip-rule="evenodd" fill="#FFFFFF" d="M27.72,4.44C21.389,4.362,15.04,6.987,10.25,12.3
	c-4.901,5.439-7.192,12.616-6.889,19.679c0.116,2.693-3.217,3.149-3.338,0.013C-0.28,24.003,2.331,15.901,7.874,9.75
	c5.419-6.013,12.596-9,19.761-8.947C30.929,0.827,30.681,4.477,27.72,4.44L27.72,4.44z M27.789,11.967
	c-4.568-0.098-9.163,1.774-12.618,5.609c-3.609,4.005-5.237,9.33-4.893,14.525c0.164,2.487-3.409,2.937-3.563-0.084
	c-0.316-6.15,1.654-12.419,5.924-17.156c4.129-4.581,9.606-6.841,15.065-6.769C31.03,8.135,30.767,12.03,27.789,11.967
	L27.789,11.967z M13.445,32.094c-0.349-4.319,0.974-8.77,3.977-12.103c2.765-3.068,6.423-4.598,10.078-4.583
	c3.453,0.014,3.59,3.692,0.139,3.626c-2.842-0.055-5.698,1.113-7.847,3.498c-2.304,2.558-3.313,5.978-3.033,9.29
	C16.993,34.595,13.678,34.962,13.445,32.094L13.445,32.094z M71.841,111.672c-0.086,7.014-6.465,12.678-14.322,12.678
	c-7.856,0-14.235-5.664-14.322-12.678h5.565c0.092,3.954,3.978,7.137,8.756,7.137c4.779,0,8.665-3.183,8.758-7.137H71.841
	L71.841,111.672z M95.574,78.066c0.521,6.235,9.146,14.679,13.719,22.018c-34.318,9.997-68.347,10.05-102.666-0.158
	c4.569-7.332,11.308-14.034,13.417-21.683c0-13.894,0-21.158,0-35.052c0-16.799,14.624-30.759,33.311-32.669
	c-0.92-1.115-1.479-2.569-1.479-4.159C51.876,2.85,54.598,0,57.954,0s6.077,2.85,6.077,6.363c0,1.608-0.57,3.078-1.511,4.199
	c18.494,2.067,32.909,15.95,32.909,32.629C95.429,57.079,95.574,64.179,95.574,78.066L95.574,78.066z M16.628,94.385
	c27.988,8.839,55.591,8.839,82.807,0c-3.094-4.965-8.647-10.089-9.571-17.422c0-14.414,0-19.357,0-33.771
	c0-3.056-0.602-6.051-1.757-8.881C83.244,22.403,70.2,15.837,57.737,15.837s-25.506,6.565-30.37,18.473
	c-1.155,2.83-1.758,5.825-1.758,8.882c0,14.42,0.835,18.813,0.835,33.233C25.958,82.963,19.719,89.426,16.628,94.385L16.628,94.385z
	"/>
</svg>
