<?xml version="1.0" encoding="utf-8"?>
<!DOCTYPE svg PUBLIC "-//W3C//DTD SVG 1.1//EN" "http://www.w3.org/Graphics/SVG/1.1/DTD/svg11.dtd">
<svg version="1.1" id="Layer_2" xmlns="http://www.w3.org/2000/svg" xmlns:xlink="http://www.w3.org/1999/xlink" x="0px" y="0px" width="216px" height="216px" viewBox="0 0 216 216" enable-background="new 0 0 216 216" xml:space="preserve">
<path fill-rule="evenodd" clip-rule="evenodd" d="M96.863,176.983c-0.266,0.846-0.404,1.712-0.404,2.593
	c0,9.394,15.688,17.012,35.029,17.012c19.344,0,35.031-7.618,35.031-17.012c0-1.035-0.191-2.049-0.557-3.033
	c-5.449,6.318-18.955,10.791-34.748,10.791C115.791,187.334,102.551,183.067,96.863,176.983L96.863,176.983z M96.863,163.074
	c-0.266,0.845-0.404,1.711-0.404,2.592c0,9.394,15.688,17.012,35.029,17.012c19.344,0,35.031-7.618,35.031-17.012
	c0-1.035-0.191-2.049-0.557-3.032c-5.449,6.317-18.955,10.79-34.748,10.79C115.791,173.424,102.551,169.157,96.863,163.074
	L96.863,163.074z M131.488,135.058c-19.342,0-35.029,7.618-35.029,17.012s15.688,17.012,35.029,17.012
	c19.344,0,35.031-7.618,35.031-17.012S150.832,135.058,131.488,135.058L131.488,135.058z M38.219,135.99
	c-0.266,0.845-0.404,1.711-0.404,2.592c0,9.394,15.687,17.012,35.03,17.012c6.951,0,13.431-0.983,18.879-2.68
	c-0.017-0.278-0.026-0.561-0.026-0.845c0-3.557,1.369-6.623,3.469-9.201c-6.272,2.178-14.104,3.472-22.597,3.472
	C57.147,146.34,43.907,142.074,38.219,135.99L38.219,135.99z M38.219,149.899c-0.266,0.846-0.404,1.712-0.404,2.593
	c0,9.394,15.687,17.012,35.03,17.012c6.961,0,13.448-0.987,18.901-2.688c-0.032-0.377-0.048-0.761-0.048-1.15
	c0-1.367,0.213-2.719,0.625-4.022l0.992-3.15c-0.167-0.317-0.324-0.642-0.468-0.972c-5.838,1.726-12.8,2.729-20.275,2.729
	C57.147,160.25,43.907,155.983,38.219,149.899L38.219,149.899z M38.219,163.81c-0.266,0.845-0.404,1.711-0.404,2.593
	c0,9.393,15.687,17.011,35.03,17.011c6.961,0,13.449-0.986,18.902-2.688c-0.032-0.377-0.049-0.761-0.049-1.149
	c0-1.368,0.213-2.719,0.625-4.023l1.054-3.346c-0.144-0.267-0.279-0.537-0.406-0.813c-5.864,1.748-12.871,2.766-20.4,2.766
	C57.147,174.16,43.907,169.893,38.219,163.81L38.219,163.81z M59.513,109.251c-12.733,2.548-21.699,8.634-21.699,15.734
	c0,4.933,4.326,9.374,11.234,12.481l3.138-8.803c1.612-4.835,3.137-9.113,4.75-13.948l0.196-0.59l0.268-0.562
	C58.09,112.118,58.794,110.68,59.513,109.251L59.513,109.251z M66.047,141.676c2.199,0.21,4.471,0.321,6.797,0.321
	c19.344,0,35.03-7.618,35.03-17.012c0-4.594-3.754-8.764-9.852-11.824c-0.812-0.046-1.655-0.06-2.538-0.037
	c-3.848,4.794-5.812,9.893-7.001,16.289l-1.14,6.131l-5.996,1.713C76.955,138.513,70.906,140.277,66.047,141.676L66.047,141.676z
	 M61.657,132.407c5.641-1.611,11.283-3.224,16.924-4.836c1.521-8.177,4.393-16.291,12.089-24.177
	c12.179-1.458,19.129,1.927,26.594,4.835c7.338-2.026,14.615-5.482,21.76-12.088c-6.945-1.919-13.457-4.272-16.924-9.671
	c12.092,0.839,22.879,0.792,29.014-2.418c7.631-5.726,12.838-12.076,14.506-19.341c-9.672,2.417-15.313,0.806-21.76,0
	c8.865-3.224,19.342-4.836,29.012-12.089c4.836-12.088,9.672-24.177,12.09-38.684c-27.979,13.344-53.584,28.006-74.949,45.937
	c-18.758,15.741-32.823,35.596-43.52,58.026C64.88,122.736,63.269,127.571,61.657,132.407L61.657,132.407z M44.571,37.937h77.618
	c-5.473,3.807-10.805,7.797-15.957,11.994H46.966v55.144c-0.755,0.318-1.499,0.653-2.229,1.008
	c-3.594,1.746-7.096,4.107-9.765,7.085V47.536C34.972,42.257,39.292,37.937,44.571,37.937L44.571,37.937z M152.568,130.414V97.337
	c4.816-4.454,7.486-7.065,11.994-11.639v50.364c-1.582-1.104-3.264-2.069-4.967-2.896
	C157.361,132.082,155.004,131.17,152.568,130.414L152.568,130.414z"/>

</svg>
