<?xml version="1.0" encoding="utf-8"?>
<!DOCTYPE svg PUBLIC "-//W3C//DTD SVG 1.1//EN" "http://www.w3.org/Graphics/SVG/1.1/DTD/svg11.dtd">
<svg version="1.1" id="Layer_2" xmlns="http://www.w3.org/2000/svg" xmlns:xlink="http://www.w3.org/1999/xlink" x="0px" y="0px" width="216px" height="216px" viewBox="0 0 216 216" enable-background="new 0 0 216 216" xml:space="preserve">
<path fill-rule="evenodd" clip-rule="evenodd" d="M32.09,136.508v20.789h15.379l59.078,19.507c3.068,0.876,6.652,1.285,9.574,0
	l70.053-35.026c1.953-1.154,1.65-4.712,0.701-6.771c-0.76-1.645-3.166-2.838-4.904-2.336l-42.025,15.914
	c-0.609,2.629-2.189,4.283-3.977,5.803c-2.068,1.759-4.531,4.261-7.238,4.479H81.477c-3.337-0.183-4.897-2.9-4.703-5.527
	c0.182-2.466,1.911-4.428,5.17-4.556h45.152c2.207-0.162,4.918-2.001,5.137-4.203c0.221-2.201-2.078-4.522-4.203-5.137
	c-13.637-3.946-27.488-2.708-40.981-7.122c-6.871-2.248-8.963-17.437-18.515-17.194H32.09V136.508L32.09,136.508z M104.801,106.276
	c-0.278,0.882-0.422,1.785-0.422,2.705c0,9.799,16.365,17.747,36.545,17.747s36.545-7.947,36.545-17.747
	c0-1.08-0.199-2.138-0.58-3.164c-5.688,6.59-19.775,11.257-36.252,11.257C124.547,117.074,110.734,112.623,104.801,106.276
	L104.801,106.276z M104.801,91.766c-0.278,0.882-0.422,1.785-0.422,2.705c0,9.799,16.365,17.747,36.545,17.747
	s36.545-7.947,36.545-17.747c0-1.08-0.199-2.138-0.58-3.164c-5.688,6.591-19.775,11.257-36.252,11.257
	C124.547,102.563,110.734,98.112,104.801,91.766L104.801,91.766z M140.924,62.539c-20.18,0-36.545,7.947-36.545,17.747
	c0,9.8,16.365,17.747,36.545,17.747s36.545-7.947,36.545-17.747C177.469,70.486,161.104,62.539,140.924,62.539L140.924,62.539z
	 M43.621,63.511c-0.278,0.882-0.422,1.785-0.422,2.705c0,9.799,16.365,17.747,36.544,17.747c7.251,0,14.011-1.026,19.695-2.796
	c-0.018-0.29-0.027-0.584-0.027-0.881c0-3.71,1.428-6.909,3.619-9.599c-6.543,2.272-14.712,3.623-23.573,3.623
	C63.368,74.309,49.555,69.857,43.621,63.511L43.621,63.511z M43.621,78.022c-0.278,0.882-0.422,1.785-0.422,2.704
	c0,9.799,16.365,17.747,36.544,17.747c7.262,0,14.029-1.03,19.718-2.804c-0.033-0.394-0.05-0.793-0.05-1.199
	c0-1.427,0.223-2.836,0.651-4.197l1.035-3.286c-0.174-0.332-0.338-0.67-0.488-1.014c-6.091,1.8-13.354,2.846-21.151,2.846
	C63.368,88.819,49.555,84.369,43.621,78.022L43.621,78.022z M43.621,92.533c-0.278,0.882-0.422,1.785-0.422,2.704
	c0,3.719,2.358,7.17,6.385,10.022l-20.849,0.048c-5.437,0.173-7.137,2.64-7.137,8.344v44.637c0,6.066,2.93,8.566,8.711,8.621
	l17.16,0.164l49.737,17.67c4.248,1.405,8.617,2.677,13.077,3.035c2.449,0.197,5.016-0.353,7.238-1.4l74.957-37.362
	c12.838-9.555,0.6-30.146-12.676-26.182l-41.205,14.268c-0.684-1.649-5.287-6.856-8.373-7.73l-17.799-2.27l-17.923-2.188
	c-7.102-0.866-7.755-6.859-10.667-9.816c-0.734-0.733-1.374-1.45-1.971-2.143c6.458-0.181,12.466-1.174,17.597-2.774
	c-0.033-0.394-0.051-0.794-0.051-1.2c0-1.427,0.223-2.836,0.651-4.197l1.1-3.491c-0.149-0.278-0.291-0.561-0.423-0.847
	c-6.117,1.824-13.428,2.884-21.281,2.884C63.368,103.33,49.555,98.879,43.621,92.533L43.621,92.533z M79.744,34.284
	c-20.18,0-36.544,7.947-36.544,17.747c0,9.799,16.365,17.747,36.544,17.747s36.543-7.947,36.543-17.747
	C116.287,42.231,99.923,34.284,79.744,34.284L79.744,34.284z"/>

</svg>
