<?xml version="1.0" encoding="utf-8"?>
<!DOCTYPE svg PUBLIC "-//W3C//DTD SVG 1.1//EN" "http://www.w3.org/Graphics/SVG/1.1/DTD/svg11.dtd">
<svg version="1.1" id="Layer_2" xmlns="http://www.w3.org/2000/svg" xmlns:xlink="http://www.w3.org/1999/xlink" x="0px" y="0px" width="216px" height="216px" viewBox="0 0 216 216" enable-background="new 0 0 216 216" xml:space="preserve">
<path fill-rule="evenodd" clip-rule="evenodd" d="M51.193,118.654V96.451h52.956v19.728c-7.492-2.612-15.798-3.702-23.528-3.702
	c-9.658,0-20.214,1.7-28.959,5.947C51.505,118.499,51.349,118.577,51.193,118.654L51.193,118.654z M167.135,96.451v46.487
	c0,0.66-0.127,1.298-0.361,1.896c-8.447-3.753-18.379-5.272-27.508-5.272c-3.365,0-6.84,0.206-10.309,0.655l-4.078,0.873
	l0.365-2.024c-0.008-7.242-4.127-12.918-9.6-16.988V96.451H167.135L167.135,96.451z M46.583,86.996h57.565V67.661H46.583
	c-1.758,0.916-3.386,1.165-3.386,3.515V83.48C43.197,85.831,44.825,86.079,46.583,86.996L46.583,86.996z M170.742,87.874
	c2.633,0,5.645-2.345,5.645-4.394V72.055c0-2.374-0.541-2.424-1.129-4.394c-2.533-0.46-2.596-0.879-5.645-0.879h-54.178v21.092
	H170.742L170.742,87.874z M57.87,42.173c0,11.176,11.885,17.224,24.832,16.418h56.437c9.711,1.21,22.574-5.538,22.574-13.781v-5.273
	c0-6.369-11.057-14.062-19.189-14.062c-22.652,0-28.928,14.893-32.115,21.953c-1.751-7.651-18.976-21.953-33.35-21.953
	c-8.274,0-19.537,5.743-19.188,14.941V42.173L57.87,42.173z M68.028,43.93c-2.181-6.218,3.917-10.546,10.159-10.546
	c8.378,0,20.98,12.248,22.575,17.578H79.315C74.23,50.962,68.028,47.338,68.028,43.93L68.028,43.93z M118.82,50.962
	c1.418-4.132,14.285-17.578,21.445-17.578h2.258c3.801,0,9.031,3.937,9.031,7.91v1.757c0,5.396-5.373,7.911-12.416,7.911H118.82
	L118.82,50.962z M104.639,177.17c-0.267,0.845-0.404,1.711-0.404,2.592c0,9.394,15.687,17.012,35.031,17.012
	c19.342,0,35.029-7.618,35.029-17.012c0-1.035-0.189-2.049-0.555-3.032c-5.451,6.317-18.957,10.79-34.75,10.79
	C123.566,187.52,110.328,183.253,104.639,177.17L104.639,177.17z M139.266,149.153c-19.344,0-35.031,7.618-35.031,17.012
	s15.687,17.012,35.031,17.012c19.342,0,35.029-7.618,35.029-17.012S158.607,149.153,139.266,149.153L139.266,149.153z
	 M45.995,150.086c-0.267,0.845-0.404,1.711-0.404,2.592c0,9.394,15.687,17.012,35.03,17.012c6.951,0,13.431-0.984,18.879-2.68
	c-0.017-0.279-0.026-0.561-0.026-0.845c0-3.557,1.369-6.623,3.469-9.201c-6.272,2.178-14.103,3.472-22.596,3.472
	C64.923,160.436,51.683,156.169,45.995,150.086L45.995,150.086z M45.995,163.995c-0.267,0.846-0.404,1.711-0.404,2.593
	c0,9.393,15.687,17.011,35.03,17.011c6.961,0,13.448-0.986,18.901-2.687c-0.032-0.378-0.049-0.761-0.049-1.15
	c0-1.367,0.214-2.719,0.625-4.022l0.992-3.15c-0.168-0.317-0.324-0.642-0.468-0.972c-5.838,1.726-12.8,2.729-20.275,2.729
	C64.923,174.346,51.683,170.079,45.995,163.995L45.995,163.995z M80.62,122.069c-19.343,0-35.03,7.618-35.03,17.012
	s15.687,17.012,35.03,17.012c19.344,0,35.03-7.618,35.03-17.012S99.964,122.069,80.62,122.069L80.62,122.069z"/>

</svg>
