<?xml version="1.0" encoding="utf-8"?>
<!DOCTYPE svg PUBLIC "-//W3C//DTD SVG 1.1//EN" "http://www.w3.org/Graphics/SVG/1.1/DTD/svg11.dtd">
<svg version="1.1" xmlns="http://www.w3.org/2000/svg" xmlns:xlink="http://www.w3.org/1999/xlink" x="0px" y="0px" width="216px" height="216px" viewBox="0 0 216 216" enable-background="new 0 0 216 216" xml:space="preserve">
<path fill-rule="evenodd" clip-rule="evenodd" d="M57.279,172.965v-0.897c0-2.74-1.572-3.586-3.881-3.586
	l-14.802-0.004c-6.454-0.002-10.291-1.002-12.368-3.728c-1.372-1.799-2.157-4.454-2.157-8.218v-17.354
	c0-2.318-0.834-3.902-3.583-3.902h-0.898c-2.1,0-3.589,1.489-3.589,3.589v19.742c0,3.732,0.959,8.702,4.313,12.172
	c3.57,3.694,9.662,5.775,13.635,5.775h19.742C55.79,176.554,57.279,175.064,57.279,172.965L57.279,172.965z M57.279,12.392v0.897
	c0,2.74-1.572,3.585-3.881,3.585l-14.802,0.004c-6.454,0.001-10.291,1.002-12.368,3.728c-1.372,1.799-2.157,4.454-2.157,8.217
	v17.354c0,2.318-0.834,3.903-3.583,3.903h-0.898c-2.1,0-3.589-1.489-3.589-3.59V26.75c0-3.732,0.959-8.702,4.313-12.171
	c3.57-3.694,9.662-5.776,13.635-5.776h19.742C55.79,8.803,57.279,10.292,57.279,12.392L57.279,12.392z M176.238,157.807
	c0.021-0.409,0.032-0.834,0.032-1.274v-17.354c0-2.318,0.834-3.902,3.584-3.902h0.897c2.1,0,3.589,1.489,3.589,3.589v7.719
	C182.515,150.919,179.724,154.75,176.238,157.807L176.238,157.807z M143.063,12.392v0.897c0,2.74,1.571,3.585,3.881,3.585
	l14.802,0.004c6.453,0.001,10.29,1.002,12.368,3.728c1.372,1.799,2.157,4.454,2.157,8.217v17.354c0,2.318,0.834,3.903,3.584,3.903
	h0.897c2.1,0,3.589-1.489,3.589-3.59V26.75c0-3.732-0.959-8.702-4.313-12.171c-3.569-3.694-9.662-5.776-13.635-5.776h-19.742
	C144.552,8.803,143.063,10.292,143.063,12.392L143.063,12.392z"/>

</svg>
