<?xml version="1.0" encoding="iso-8859-1"?>
<!-- Generator: Adobe Illustrator 12.0.0, SVG Export Plug-In . SVG Version: 6.00 Build 51448)  -->
<!DOCTYPE svg PUBLIC "-//W3C//DTD SVG 1.1//EN" "http://www.w3.org/Graphics/SVG/1.1/DTD/svg11.dtd" [
	<!ENTITY ns_svg "http://www.w3.org/2000/svg">
	<!ENTITY ns_xlink "http://www.w3.org/1999/xlink">
]>
<svg  version="1.1" id="Layer_1" xmlns="&ns_svg;" xmlns:xlink="&ns_xlink;" width="121.685" height="131.718"
	 viewBox="0 0 121.685 131.718" overflow="visible" enable-background="new 0 0 121.685 131.718" xml:space="preserve">
<path fill-rule="evenodd" clip-rule="evenodd" fill="#FFFFFF" d="M27.326,108.674v-0.595c0-1.813-1.041-2.373-2.569-2.373
	l-9.799-0.004c-4.273,0-6.812-0.662-8.188-2.467c-0.908-1.19-1.428-2.948-1.428-5.44V86.308c0-1.535-0.552-2.584-2.373-2.584H2.376
	C0.986,83.724,0,84.709,0,86.1v13.069c0,2.47,0.635,5.76,2.855,8.058c2.363,2.445,6.396,3.823,9.026,3.823H24.95
	C26.341,111.05,27.326,110.063,27.326,108.674L27.326,108.674z M27.326,2.376V2.97c0,1.814-1.041,2.374-2.569,2.374l-9.799,0.003
	C10.686,5.348,8.146,6.01,6.771,7.814c-0.908,1.191-1.428,2.948-1.428,5.44v11.489c0,1.535-0.552,2.583-2.373,2.583H2.376
	C0.986,27.326,0,26.34,0,24.95V11.881c0-2.471,0.635-5.76,2.855-8.058C5.218,1.378,9.251,0,11.881,0H24.95
	C26.341,0,27.326,0.986,27.326,2.376L27.326,2.376z M106.076,98.64c0.014-0.271,0.021-0.553,0.021-0.845V86.308
	c0-1.535,0.552-2.584,2.372-2.584h0.594c1.391,0,2.376,0.985,2.376,2.376v5.109C110.231,94.08,108.384,96.615,106.076,98.64
	L106.076,98.64z M84.114,2.376V2.97c0,1.814,1.04,2.374,2.569,2.374l9.798,0.003c4.272,0.001,6.813,0.663,8.188,2.467
	c0.908,1.191,1.429,2.948,1.429,5.44v11.489c0,1.535,0.552,2.583,2.372,2.583h0.594c1.391,0,2.376-0.986,2.376-2.376V11.881
	c0-2.471-0.634-5.76-2.854-8.058C106.222,1.378,102.189,0,99.56,0H86.49C85.1,0,84.114,0.986,84.114,2.376L84.114,2.376z
	 M22.333,79.602c0-1.368,0.414-1.782,1.782-1.782h9.504v9.505c0,1.369-0.413,1.782-1.782,1.782h-7.723
	c-1.369,0-1.782-0.413-1.782-1.782V79.602L22.333,79.602z M16.987,88.513c0,2.986,2.954,5.94,5.941,5.94h10.099
	c2.986,0,5.94-2.954,5.94-5.94V78.414c0-4.231-3.865-5.94-6.168-5.94h-9.871c-2.987,0-5.941,2.953-5.941,5.94V88.513L16.987,88.513z
	 M22.333,23.762c0-1.369,0.414-1.782,1.782-1.782h7.723c1.369,0,1.782,0.414,1.782,1.782v9.505h-9.504
	c-1.369,0-1.782-0.414-1.782-1.782V23.762L22.333,23.762z M16.987,22.573v10.099c0,2.986,2.954,5.94,5.941,5.94h10.099
	c3.337,0,5.94-2.604,5.94-5.94V22.573c0-2.986-2.954-5.94-5.94-5.94H22.928C19.94,16.633,16.987,19.587,16.987,22.573L16.987,22.573
	z M72.827,22.573v10.099c0,3.337,2.604,5.94,5.94,5.94h10.099c2.987,0,5.94-2.954,5.94-5.94V22.573c0-2.986-2.953-5.94-5.94-5.94
	H78.768C75.781,16.633,72.827,19.587,72.827,22.573L72.827,22.573z M78.174,23.762v9.505h9.505c1.368,0,1.781-0.414,1.781-1.782
	v-7.723c0-1.369-0.413-1.782-1.781-1.782h-7.724C78.587,21.979,78.174,22.393,78.174,23.762L78.174,23.762z M89.46,85.932v3.175
	h-5.939v-2.857c0.043-0.977-0.797-2.412-2.026-2.469L80.55,83.76c-1.391,0-2.376,0.986-2.376,2.376v2.971h-5.096
	c0.567,1.915,1.408,3.712,2.478,5.347h16.875c1.391,0,2.376-1.658,2.376-3.048v-5.27c0-1.39-0.985-2.376-2.376-2.376h-0.594
	C90.248,83.76,89.439,84.617,89.46,85.932L89.46,85.932z M44.87,41.134v1.049c0,1.758,0.622,2.37,3.197,2.37h8.127v2.752h5.346
	v-2.752h1.659c2.213,0,3.715-0.085,3.697-1.928l-0.01-1.042c0-1.391-0.985-2.376-2.376-2.376H47.776
	C45.274,39.207,44.87,40.411,44.87,41.134L44.87,41.134z M56.194,63.279v1.019c0,1.391,0.985,2.235,2.376,2.235h2.97v5.94H47.283
	c-1.391,0-2.376,0.702-2.376,2.094l0.058,1.092c0,1.826,1.683,2.16,3.506,2.16l11.762-0.026c0.929-5.507,3.228-10.549,6.534-14.763
	c-0.253-1.006-0.936-1.844-2.326-1.844h-5.87C57.179,61.187,56.194,61.889,56.194,63.279L56.194,63.279z M44.907,19.009v0.594
	c0,1.39,0.985,2.376,2.376,2.376H61.54v7.723c0,1.637,0.367,3.588,2.39,3.588h0.637c1.74,0,2.32-1.88,2.32-3.725V19.009
	c0-1.391-0.985-2.376-2.376-2.376H47.283C45.893,16.633,44.907,17.619,44.907,19.009L44.907,19.009z M88.866,76.037v-4.158h3.489
	c1.208,0,2.415-0.523,2.415-2.111v-1.229c0-1.184-0.813-2.005-2.336-2.005H86.49c-2.552,0-2.97,1.585-2.97,2.97v2.971h-5.347v-2.971
	c0-0.19-0.013-0.373-0.038-0.548c-2.186,2.209-3.869,4.915-4.867,7.933c0.417,0.58,1.104,0.932,1.935,0.932H86.49
	C88.079,77.819,88.866,77.422,88.866,76.037L88.866,76.037z M58.57,89.106c0.512,0,1.121-0.115,1.654-0.36
	c-0.298-1.771-0.45-3.569-0.454-5.382c-0.389-0.134-0.803-0.198-1.201-0.198H47.877c-1.385,0-2.97,1.585-2.97,2.97v5.941
	c0,1.39,0.985,2.376,2.376,2.376h0.894c1.391,0,2.077-1.109,2.077-2.5v-2.847H58.57L58.57,89.106z M89.46,46.93v1.033l0.267,2.602
	c0.958-0.084,1.929-0.128,2.908-0.128c0.729,0,1.454,0.026,2.172,0.074V46.93c0-1.391-0.985-2.376-2.376-2.376h-0.594
	C90.446,44.553,89.46,45.539,89.46,46.93L89.46,46.93z M28.273,46.93v0.376h10.693V46.93c0-1.391-0.985-2.376-2.376-2.376H30.65
	C29.26,44.553,28.273,45.539,28.273,46.93L28.273,46.93z M16.987,63.563v0.594c0,1.391,0.986,2.377,2.376,2.377h11.881
	c1.243,0,2.308-1.134,2.312-1.974l0.003-0.797c0.008-1.742-0.801-2.576-2.76-2.576H19.363
	C17.973,61.187,16.987,62.172,16.987,63.563L16.987,63.563z M72.883,46.93v0.376h5.288c-0.043-1.699-0.62-2.752-2.374-2.752h-0.594
	C73.813,44.553,72.883,45.539,72.883,46.93L72.883,46.93z M39.561,63.563v0.594c0,1.391,0.986,2.377,2.376,2.377h5.94
	c1.391,0,2.377-0.986,2.377-2.377v-0.594c0-1.391-0.986-2.376-2.377-2.376h-5.94C40.546,61.187,39.561,62.172,39.561,63.563
	L39.561,63.563z M16.987,46.93v0.376h5.347V46.93c0-1.391-0.985-2.376-2.376-2.376h-0.594C17.973,44.553,16.987,45.539,16.987,46.93
	L16.987,46.93z M44.907,30.296v0.595c0,1.826,1.74,2.376,3.564,2.376h4.752c1.391,0,2.376-0.986,2.376-2.376v-0.595
	c0-1.391-0.986-2.376-2.376-2.376h-5.94C45.893,27.919,44.907,28.905,44.907,30.296L44.907,30.296z M92.635,54.249
	c-16.044,0-29.052,13.008-29.052,29.052c0,4.905,1.227,9.52,3.377,13.574l-20.2,20.194l0.016,0.018
	c-1.577,1.551-2.56,3.702-2.56,6.088c0,4.718,3.825,8.543,8.545,8.543c2.385,0,4.537-0.983,6.087-2.561l-0.005-0.005l20.192-20.189
	c4.057,2.156,8.681,3.388,13.599,3.388c16.042,0,29.05-13.007,29.05-29.05C121.685,67.257,108.677,54.249,92.635,54.249
	L92.635,54.249z M55.824,126.132L55.824,126.132c-0.78,0.806-1.858,1.314-3.063,1.314c-2.36,0-4.273-1.912-4.273-4.271
	c0-1.206,0.509-2.284,1.315-3.064l-0.021-0.02l19.528-19.527c1.707,2.302,3.74,4.336,6.038,6.047L55.824,126.132L55.824,126.132z
	 M92.635,107.509L92.635,107.509c-13.37,0-24.209-10.839-24.209-24.208s10.839-24.209,24.209-24.209
	c13.369,0,24.208,10.84,24.208,24.209S106.004,107.509,92.635,107.509L92.635,107.509z M7.031,51.118h78.92
	c-4.01,0.828-7.751,2.387-11.082,4.531H7.031c-0.831,0-1.511-0.637-1.511-1.416v-1.699C5.52,51.755,6.2,51.118,7.031,51.118
	L7.031,51.118z"/>
</svg>
