<?xml version="1.0" encoding="utf-8"?>
<!DOCTYPE svg PUBLIC "-//W3C//DTD SVG 1.1//EN" "http://www.w3.org/Graphics/SVG/1.1/DTD/svg11.dtd">
<svg version="1.1" xmlns="http://www.w3.org/2000/svg" xmlns:xlink="http://www.w3.org/1999/xlink" x="0px" y="0px" width="216px" height="216px" viewBox="0 0 216 216" enable-background="new 0 0 216 216" xml:space="preserve">

<path fill-rule="evenodd" clip-rule="evenodd" d="M49.737,129.049c0-2.067,0.625-2.691,2.692-2.691h14.357v14.357
	c0,2.067-0.625,2.692-2.692,2.692H52.429c-2.068,0-2.692-0.625-2.692-2.692V129.049L49.737,129.049z M41.661,142.51
	c0,4.512,4.462,8.974,8.974,8.974h15.255c4.512,0,8.974-4.462,8.974-8.974v-15.256c0-6.392-5.839-8.974-9.318-8.974H50.634
	c-4.512,0-8.974,4.463-8.974,8.974V142.51L41.661,142.51z M49.737,44.697c0-2.067,0.625-2.692,2.692-2.692h11.666
	c2.067,0,2.692,0.625,2.692,2.692v14.358H52.429c-2.068,0-2.692-0.624-2.692-2.692V44.697L49.737,44.697z M41.661,42.902v15.255
	c0,4.511,4.462,8.974,8.974,8.974h15.255c5.042,0,8.974-3.933,8.974-8.974V42.902c0-4.512-4.462-8.974-8.974-8.974H50.634
	C46.123,33.929,41.661,38.391,41.661,42.902L41.661,42.902z M126.013,42.902v15.255c0,5.041,3.933,8.974,8.974,8.974h15.255
	c4.512,0,8.974-4.462,8.974-8.974V42.902c0-4.512-4.462-8.974-8.974-8.974h-15.255C130.475,33.929,126.013,38.391,126.013,42.902
	L126.013,42.902z M134.089,44.697v14.358h14.357c2.067,0,2.692-0.624,2.692-2.692V44.697c0-2.067-0.625-2.692-2.692-2.692H136.78
	C134.713,42.005,134.089,42.63,134.089,44.697L134.089,44.697z M151.139,138.61v4.797h-8.974v-4.316
	c0.065-1.475-1.203-3.644-3.061-3.729l-1.427-0.031c-2.101,0-3.589,1.489-3.589,3.59v4.487h-7.698
	c0.858,2.893,2.129,5.607,3.744,8.076h25.49c2.101,0,3.59-2.504,3.59-4.604v-7.959c0-2.101-1.489-3.59-3.59-3.59h-0.897
	C152.328,135.33,151.106,136.624,151.139,138.61L151.139,138.61z M83.78,70.939v1.585c0,2.656,0.94,3.58,4.829,3.58h12.277v4.158
	h8.077v-4.158h2.506c3.343,0,5.611-0.128,5.585-2.912l-0.015-1.575c0-2.1-1.489-3.589-3.59-3.589H88.17
	C84.391,68.028,83.78,69.847,83.78,70.939L83.78,70.939z M100.886,104.393v1.538c0,2.101,1.489,3.375,3.59,3.375h4.487v8.974H87.426
	c-2.101,0-3.59,1.062-3.59,3.163l0.087,1.649c0,2.759,2.542,3.265,5.297,3.265l17.767-0.041c1.404-8.318,4.875-15.935,9.87-22.3
	c-0.382-1.521-1.412-2.785-3.515-2.785h-8.867C102.375,101.231,100.886,102.292,100.886,104.393L100.886,104.393z M83.836,37.518
	v0.897c0,2.101,1.489,3.589,3.59,3.589h21.537v11.666c0,2.473,0.554,5.42,3.609,5.42h0.962c2.628,0,3.505-2.84,3.505-5.627V37.518
	c0-2.1-1.489-3.589-3.59-3.589H87.426C85.325,33.929,83.836,35.418,83.836,37.518L83.836,37.518z M150.241,123.665v-6.281h5.271
	c1.824,0,3.648-0.791,3.648-3.191v-1.856c0-1.787-1.229-3.029-3.528-3.029h-8.98c-3.854,0-4.486,2.395-4.486,4.487v4.486h-8.076
	v-4.486c0-0.288-0.02-0.564-0.058-0.827c-3.301,3.337-5.844,7.424-7.353,11.981c0.631,0.877,1.668,1.409,2.923,1.409h17.05
	C149.052,126.357,150.241,125.756,150.241,123.665L150.241,123.665z M104.476,143.407c0.773,0,1.694-0.174,2.499-0.544
	c-0.45-2.675-0.68-5.393-0.685-8.131c-0.587-0.202-1.213-0.299-1.814-0.299H88.323c-2.093,0-4.487,2.394-4.487,4.486v8.974
	c0,2.101,1.489,3.59,3.59,3.59h1.349c2.101,0,3.138-1.675,3.138-3.775v-4.301H104.476L104.476,143.407z M151.139,79.694v1.56
	l0.402,3.931c1.447-0.127,2.912-0.193,4.393-0.193c1.103,0,2.196,0.04,3.281,0.111v-5.409c0-2.101-1.489-3.59-3.59-3.59h-0.897
	C152.628,76.104,151.139,77.594,151.139,79.694L151.139,79.694z M58.71,79.694v0.568h16.152v-0.568c0-2.101-1.489-3.59-3.589-3.59
	H62.3C60.199,76.104,58.71,77.594,58.71,79.694L58.71,79.694z M41.661,104.82v0.897c0,2.101,1.489,3.589,3.589,3.589h17.947
	c1.877,0,3.486-1.71,3.491-2.981l0.005-1.203c0.012-2.632-1.209-3.892-4.169-3.892H45.25
	C43.149,101.231,41.661,102.72,41.661,104.82L41.661,104.82z M126.096,79.694v0.568h7.989c-0.065-2.566-0.937-4.158-3.586-4.158
	h-0.897C127.501,76.104,126.096,77.594,126.096,79.694L126.096,79.694z M75.76,104.82v0.897c0,2.101,1.489,3.589,3.589,3.589h8.974
	c2.101,0,3.59-1.488,3.59-3.589v-0.897c0-2.101-1.489-3.589-3.59-3.589H79.35C77.249,101.231,75.76,102.72,75.76,104.82
	L75.76,104.82z M41.661,79.694v0.568h8.076v-0.568c0-2.101-1.489-3.59-3.589-3.59H45.25C43.149,76.104,41.661,77.594,41.661,79.694
	L41.661,79.694z M83.836,54.568v0.897c0,2.759,2.629,3.589,5.384,3.589h7.179c2.101,0,3.59-1.488,3.59-3.589v-0.897
	c0-2.1-1.489-3.589-3.59-3.589h-8.973C85.325,50.979,83.836,52.468,83.836,54.568L83.836,54.568z M155.934,90.752
	c-24.235,0-43.885,19.649-43.885,43.885c0,7.409,1.854,14.381,5.101,20.505l-30.513,30.506l0.024,0.026
	c-2.382,2.343-3.868,5.592-3.868,9.195c0,7.128,5.778,12.906,12.907,12.906c3.604,0,6.853-1.485,9.196-3.868l-0.007-0.007
	l30.502-30.499c6.129,3.258,13.114,5.118,20.543,5.118c24.233,0,43.883-19.649,43.883-43.883
	C199.816,110.401,180.167,90.752,155.934,90.752L155.934,90.752z M100.328,199.337L100.328,199.337
	c-1.177,1.218-2.807,1.985-4.627,1.985c-3.565,0-6.454-2.889-6.454-6.453c0-1.821,0.768-3.449,1.986-4.628l-0.032-0.029
	l29.498-29.498c2.579,3.478,5.651,6.549,9.121,9.135L100.328,199.337L100.328,199.337z M155.934,171.205L155.934,171.205
	c-20.197,0-36.57-16.373-36.57-36.568c0-20.196,16.373-36.57,36.57-36.57c20.195,0,36.568,16.374,36.568,36.57
	C192.502,154.832,176.129,171.205,155.934,171.205L155.934,171.205z"/>

</svg>
