<?xml version="1.0" encoding="iso-8859-1"?>
<!-- Generator: Adobe Illustrator 12.0.0, SVG Export Plug-In . SVG Version: 6.00 Build 51448)  -->
<!DOCTYPE svg PUBLIC "-//W3C//DTD SVG 1.1//EN" "http://www.w3.org/Graphics/SVG/1.1/DTD/svg11.dtd" [
	<!ENTITY ns_svg "http://www.w3.org/2000/svg">
	<!ENTITY ns_xlink "http://www.w3.org/1999/xlink">
]>
<svg  version="1.1" id="Layer_1" xmlns="&ns_svg;" xmlns:xlink="&ns_xlink;" width="122.377" height="121.536"
	 viewBox="0 0 122.377 121.536" overflow="visible" enable-background="new 0 0 122.377 121.536" xml:space="preserve">
<path fill-rule="evenodd" clip-rule="evenodd" fill="#FFFFFF" d="M113.869,0H54.785h-3.229H8.508C3.828,0,0,4.746,0,10.545v75.663
	c0,5.8,3.919,9.413,8.508,10.546c17.349,4.283,35.253,5.997,52.68,5.603c17.427,0.395,35.331-1.319,52.681-5.603
	c4.588-1.133,8.508-4.746,8.508-10.546V10.545C122.377,4.746,118.549,0,113.869,0L113.869,0z M55.889,8.958h58.406
	c1.17,0,2.127,1.187,2.127,2.637v64.59c0,1.449-0.957,2.637-2.127,2.637H69.711H52.666H8.083c-1.17,0-2.127-1.188-2.127-2.637
	v-64.59c0-1.45,0.957-2.637,2.127-2.637h42.368H55.889L55.889,8.958z M59.627,88.845c-0.702,0-1.276,0.712-1.276,1.582v2.637
	c0,0.87,0.574,1.582,1.276,1.582h3.122c0.702,0,1.276-0.712,1.276-1.582v-2.637c0-0.87-0.574-1.582-1.276-1.582H59.627
	L59.627,88.845z M9.888,39.718l24.801-23.397c0.718-0.678,1.879-0.296,2.582,0.846l0,0c0.702,1.143,0.688,2.632-0.03,3.309
	l-24.8,23.397c-0.718,0.677-1.879,0.296-2.582-0.847l0,0C9.157,41.884,9.17,40.394,9.888,39.718L9.888,39.718z M9.578,26.996
	L23.501,13.86c0.718-0.677,1.879-0.296,2.581,0.847l0,0c0.702,1.143,0.688,2.632-0.029,3.31L12.13,31.151
	c-0.718,0.677-1.879,0.296-2.582-0.847l0,0C8.847,29.161,8.86,27.673,9.578,26.996L9.578,26.996z M29.354,108.354h21.628h20.413
	h21.629c2.34,0,4.254,2.373,4.254,5.273v2.637c0,2.899-1.914,5.272-4.254,5.272H74.832H47.545H29.354
	c-2.34,0-4.254-2.373-4.254-5.272v-2.637C25.1,110.727,27.014,108.354,29.354,108.354L29.354,108.354z"/>
</svg>
