<?xml version="1.0" encoding="iso-8859-1"?>
<!-- Generator: Adobe Illustrator 12.0.0, SVG Export Plug-In . SVG Version: 6.00 Build 51448)  -->
<!DOCTYPE svg PUBLIC "-//W3C//DTD SVG 1.1//EN" "http://www.w3.org/Graphics/SVG/1.1/DTD/svg11.dtd" [
	<!ENTITY ns_svg "http://www.w3.org/2000/svg">
	<!ENTITY ns_xlink "http://www.w3.org/1999/xlink">
]>
<svg  version="1.1" id="Layer_1" xmlns="&ns_svg;" xmlns:xlink="&ns_xlink;" width="111.349" height="121.13"
	 viewBox="0 0 111.349 121.13" overflow="visible" enable-background="new 0 0 111.349 121.13" xml:space="preserve">
<path fill-rule="evenodd" clip-rule="evenodd" fill="#FFFFFF" d="M49.771,0h11.782c20.899,0,37.992,17.092,37.992,37.993V52.11
	c6.574,0.492,11.804,8.502,11.804,18.309c0,10.122-5.572,18.331-12.444,18.331c-0.191,0-0.381-0.007-0.57-0.019
	c-3.605,13.876-14.907,24.729-29.025,27.688c-2.484,2.845-6.65,4.712-11.37,4.712c-7.61,0-13.782-4.854-13.782-10.838
	c0-5.985,6.172-10.839,13.782-10.839c6.5,0,11.95,3.541,13.402,8.304c6.438-2.232,11.895-6.621,15.491-12.29
	c-3.564-1.626-5.027-2.119-5.027-8.056v-35.86c0-6.663,4.241-7.903,7.332-7.903h2.313V37.63c0-1.9-0.091-3.78-0.526-5.564
	c-0.376-1.54-0.333-2.114-1.919-0.861c-1.807,1.425-2.816,1.984-5.459-2.312c-0.19-0.31-0.288-0.669-0.443-0.998
	c-3.815-8.085-12.058-13.716-21.55-13.716H49.771c-9.559,0-17.848,5.708-21.629,13.884c-0.122,0.264-0.226,0.536-0.352,0.799
	c-2.043,4.264-3.291,3.04-5.684,1.881c-2.647-1.282-2.233,4.721-2.233,6.886v6.588h2.339c3.091,0,7.332,2.533,7.332,5.62v39.855
	c0,3.086-4.246,5.619-7.332,5.619H19.21c-2.534-0.308-4.947-2.358-5.721-4.841c-0.179-0.575-0.346-1.156-0.498-1.74
	c-0.182,0.012-0.364,0.018-0.547,0.018C5.573,88.75,0,80.541,0,70.418c0-9.794,5.216-17.796,11.778-18.306v-14.12
	C11.778,17.092,28.871,0,49.771,0L49.771,0z M90.501,87.038c0.619-2.382,0.949-4.878,0.949-7.447V50.457h-2.313
	c-0.603,0-1.094,0.492-1.094,1.094v35.86c0,0.602,0.491,1.094,1.094,1.094C90.374,88.505,90.189,88.238,90.501,87.038L90.501,87.038
	z M19.873,50.457V79.59c0,2.513,0.316,5.004,0.942,7.421c0.318,1.231,0.535,1.515,1.397,1.494c0.602-0.014,1.094-0.492,1.094-1.094
	v-35.86c0-0.603-0.492-1.094-1.094-1.094H19.873L19.873,50.457z"/>
</svg>
