<?xml version="1.0" encoding="utf-8"?>
<!DOCTYPE svg PUBLIC "-//W3C//DTD SVG 1.1//EN" "http://www.w3.org/Graphics/SVG/1.1/DTD/svg11.dtd">
<svg version="1.1" xmlns="http://www.w3.org/2000/svg" xmlns:xlink="http://www.w3.org/1999/xlink" x="0px" y="0px" width="216px" height="216px" viewBox="0 0 216 216" enable-background="new 0 0 216 216" xml:space="preserve">
<g>
	<path fill="#003469" d="M108.462,159.675c55.104,0,100.001-22.818,100.001-51.188c-0.257-28.337-44.865-51.188-100.001-51.188
		c-55.359,0-100,22.819-100,51.188S53.103,159.675,108.462,159.675z M127.106,134.482c-1.571,3.948-4.459,12.067-11.006,15.47
		c-2.086,1.059-4.461,1.571-6.547,1.571h-1.059c-18.357,0-35.687-2.632-49.873-6.834l-0.513-0.258
		c-1.316-0.515-2.085-1.06-2.085-1.828c0-0.802,0.257-1.061,0.802-1.575l0.803-0.802c3.401-2.888,13.382-10.237,32.285-17.33
		c6.547-2.631,14.956-5.776,23.62-7.604C118.187,114.297,137.088,111.408,127.106,134.482z M177.75,83.07
		c0.257-0.513,0.804-1.059,1.572-1.314c0.515,0,1.059,0,2.087,0.802c11.809,7.349,18.646,16.271,18.646,25.995
		c0,17.586-22.563,32.797-55.104,39.376c-2.086,0.515-3.402,0.515-3.947,0c-0.258-0.256-0.513-0.802,0-1.572
		c0.257-0.256,0.515-0.802,0.804-1.316c17.586-20.729,31.225-51.443,34.915-60.365C177.237,84.097,177.492,83.327,177.75,83.07z
		 M89.849,82.268c1.573-3.948,4.461-12.066,11.008-15.469c2.086-0.802,4.717-1.316,6.836-1.316h1.059
		c18.355,0,35.686,2.633,49.872,6.836l0.514,0.257c1.316,0.514,2.087,1.059,2.087,1.829c0,0.771-0.258,1.06-0.803,1.573
		l-0.802,0.802c-3.403,2.889-13.385,9.98-32.03,17.33c-6.547,2.631-14.954,5.777-23.62,7.605
		C98.771,102.486,79.869,105.375,89.849,82.268z M71.716,69.143c2.086-0.514,3.402-0.514,3.948,0c0.256,0.257,0.256,0.802,0,1.572
		c-0.257,0.256-0.515,0.802-0.803,1.316c-17.587,20.731-31.226,51.445-34.917,60.365c-0.257,0.515-0.513,1.317-0.803,1.572
		c-0.256,0.515-0.802,1.062-1.571,1.316c-0.515,0-1.06,0-2.086-0.802c-11.811-7.35-18.646-16.27-18.646-25.995
		C16.613,90.933,39.463,75.721,71.716,69.143z"/>

</g>
</svg>
