<?xml version="1.0" encoding="utf-8"?>
<!DOCTYPE svg PUBLIC "-//W3C//DTD SVG 1.1//EN" "http://www.w3.org/Graphics/SVG/1.1/DTD/svg11.dtd">
<svg version="1.1" id="Layer_1" xmlns="http://www.w3.org/2000/svg" xmlns:xlink="http://www.w3.org/1999/xlink" x="0px" y="0px" width="216px" height="216px" viewBox="0 0 216 216" enable-background="new 0 0 216 216" xml:space="preserve">
<g>
	<path fill="#FFFFFF" fill-opacity="0" d="M0.122,0.122h216v216h-216V0.122z"/>
	<path fill="#FFFFFF" d="M180.929,26.331v3.752l-72.809-12.76l-72.804,12.76v-3.752l72.804-12.844L180.929,26.331z"/>
	<path fill="#33A457" d="M180.929,22.492v3.838L108.12,13.486L35.316,26.331v-3.838L108.12,9.651L180.929,22.492z"/>
	<path fill="#CC2131" d="M180.929,30.083l-72.809-12.76l-72.804,12.76l0.001,12.947l0.631-0.357
		c0.257-0.143,26.091-14.467,72.312-14.467c46.225,0,71.757,14.327,72.016,14.469l0.624,0.358L180.929,30.083z"/>
	<path fill="#FFF22D" d="M108.261,30.708c41.74,0,66.18,11.746,70.142,13.806v37.273c0,20.321-4.786,40.564-14.22,60.179
		c-20.647,42.843-51.717,59.665-56.063,61.86c-4.349-2.195-35.442-19.018-56.084-61.86c-9.433-19.614-14.218-39.858-14.218-60.179
		V44.519C41.816,42.461,66.514,30.708,108.261,30.708L108.261,30.708z"/>
	<path d="M35.949,42.672l-0.631,0.357v38.758c0,20.702,4.867,41.313,14.466,61.258c22.534,46.785,57.469,63.151,57.819,63.312
		l0.518,0.236l0.517-0.236c0.353-0.16,35.259-16.531,57.792-63.312c9.604-19.945,14.472-40.556,14.472-61.258V43.033l-0.625-0.358
		c-0.258-0.143-25.791-14.469-72.015-14.469C62.04,28.205,36.206,42.528,35.949,42.672L35.949,42.672z M108.261,30.708
		c41.74,0,66.18,11.746,70.142,13.806v37.273c0,20.321-4.786,40.564-14.22,60.179c-20.647,42.843-51.717,59.665-56.063,61.86
		c-4.349-2.195-35.442-19.018-56.084-61.86c-9.433-19.614-14.218-39.858-14.218-60.179V44.519
		C41.816,42.461,66.514,30.708,108.261,30.708L108.261,30.708z"/>
	<path d="M119.193,167.707c1.213,0.838,0.333,2.294-0.564,2.521c-0.935,0.254-1.733-0.783-2.187,0.354
		c-0.254,0.61,0.436,5.237,5.169,5.237c4.419,0,6.526-5.673,6.942-6.526c0.418-0.852,0.687-1.938,0.269-1.938
		c-1.938,0-2.503,1.15-2.503,1.15s-0.146-1.107,0.816-1.943c0.795-0.682,1.837-0.517,2.214-0.517c0.79,0,0.665-0.588,1.143-1.752
		c1.088-2.74,1.837-2.863,2.544-4.112c0.586-1.018-0.521-1.417-2.705-1.622c-2.19-0.208-3.364-0.12-4.343,0.022
		c-0.98,0.141-1.956,0.538-2.564,2.037c-0.326,0.813,0.271,1.612,1.419,1.405c1.146-0.214,2.25-1.081,2.25-1.081
		s-0.517,2.053-2.228,2.478c-1.587,0.39-3.461-0.567-3.209-2.173c0.329-2.083,1.769-3.609,4.396-4.124
		c2.631-0.529,5.253-0.124,7.592,0.45c2.331,0.589,4.046,0.232,6.214,0.105c4.673-0.25,7.568-1.353,7.568-1.353
		s-2.105,1.709-5.025,2.499c-2.919,0.797-5.521,0.467-6.364,0.797c-0.681,0.291-1.642,1.642-2.435,3.185
		c-0.728,1.419-1.504,3.054-1.168,3.054c2.714,0.104,3.708-0.491,3.708-0.491s-0.537,1.172-1.83,1.726
		c-0.897,0.362-2.421,0.362-2.421,0.362s-0.685,1.733-1.455,3.298c-0.777,1.563-2.049,4.005-4.338,5.213
		c-2.299,1.206-6.693,2.71-9.461-1.271C113.708,170.521,116.381,165.77,119.193,167.707L119.193,167.707z M85.211,168.252
		c0.541,1.383-0.607,2.104-1.274,2.104c-0.669,0-1.501-0.497-1.675,0.339c-0.159,0.829,1.776,5.106,6.279,5.106
		c4.505,0,6.592-2.606,6.275-4.941c-0.353-2.606-4.494-3.642-7.794-5.378c-1.615-0.847-5.265-1.414-5.265-4.831
		c0-7.295,11.102-2.636,11.102-2.636s0.023-0.912,0.54-0.954c0.25-0.023,0.752-0.122,0.919,0.702
		c0.165,0.832,0.898,5.213,0.898,5.213s-1.631-3.336-6.109-4.792c-0.792-0.278-4.256-0.938-4.236,1.805
		c0.042,1.628,2.026,2.359,5.466,3.694c4.521,1.773,6.838,3.424,5.77,8.178c-1.017,4.563-5.479,5.314-7.648,5.314
		c-2.165,0-7.147-1.519-7.147-6.526C81.313,167.107,84.787,167.19,85.211,168.252L85.211,168.252z M108.934,140.822l1.823,0.863
		c1.051,0.407,1.722,0.228,1.963,0.127c0.255-0.109,1.217-1.143,1.427-2.022c0.099-0.358,0.046-0.67-0.145-0.9
		c-0.709-0.84-1.966-4.7-2.432-6.787c-0.173-0.774,0.037-2.911,0.199-4.631c0.143-1.478,0.229-2.396,0.156-2.632
		c-0.125-0.365-0.671-0.718-1.298-1.116l-0.994-0.677c-0.53-0.434-0.554-1.024-0.583-1.658l-0.105-0.985
		c-0.231-0.916-4.896-5.681-5.619-5.725c-1.048-0.068-1.32,1.081-1.387,1.772c-0.042,0.404,0.426,2.211,0.847,3.813l0.465,1.931
		c0.478,3.036,3.705,8.382,5.081,10.664l0.653,1.109c0.283,0.643,0.172,1.15-0.329,1.435c-0.488,0.28-4.682-0.157-6.686-0.619
		c-0.861-0.197-1.923-0.627-2.959-1.047c-1.187-0.473-2.312-0.933-2.962-0.965c-0.758-0.039-1.118,0.114-1.397,0.243l-0.455,0.127
		l-0.453-0.145c-0.556-0.245-1.595-0.694-4.431-0.95c-4.134-0.388-4.444,0.443-4.612,0.893c-0.205,0.571,2.322,3.259,2.773,3.619
		c0.575,0.464,2.434,1.171,3.569,0.982c1.297-0.209,3.413-0.471,3.675-0.418l0.426,0.26l0.396,0.28
		c0.359,0.146,2.669,0.273,3.368,0.311c0.806,0.043,2.921,0.481,4.468,0.806l1.728,0.349
		C105.781,139.252,107.525,140.112,108.934,140.822L108.934,140.822z"/>
	<path d="M151.697,87.209c-0.092-0.113-0.168-0.12-0.216-0.107c-0.044,0.015-0.104,0.056-0.12,0.19
		c-0.076,0.576-0.799,2.057-1.373,2.275c-1.162,0.449-1.764,1.812-2.199,2.805c-0.224,0.512-0.44,1.001-0.613,1.008
		c-0.074,0.005-0.156-0.074-0.245-0.24c-0.717-1.235-0.315-3.123,0.007-4.645l0.073-0.374c0.263-1.283,1.764-3.08,2.661-4.158
		l0.397-0.478c0.61-0.762,0.764-3.344,0.649-3.538c-0.037-0.011-0.062,0.01-0.076,0.033c-0.014,0.011-0.025,0.025-0.034,0.04
		l-0.014-0.002v0.013c-0.037,0.041-0.068,0.045-0.099,0.175c-0.16,0.807-1.635,2.446-4.154,4.625
		c-0.517,0.447-1.104,1.255-1.587,1.904c-0.31,0.426-0.674,0.917-0.771,0.94c-0.624-3.331,0.505-5.234,1.042-6.154l0.25-0.467
		c1.065-2.9,3.81-5.096,3.839-5.117c0.037-0.084,0.037-0.173-0.03-0.23c-0.105-0.081-0.298-0.046-0.602,0.106l-0.166,0.083
		c-0.957,0.465-3.844,1.872-5.614,5.258c-1.271,2.438-1.764,5.164-1.764,7.219c0,1.049,0.127,1.918,0.342,2.494
		c0.622,1.659,1.711,5.78,2.046,7.398c0.209,1.002,0.241,4.446,0.241,6.604c0,1.055-0.004,1.793-0.004,1.821
		c-0.007,0-0.55,1.75-0.55,1.75c-0.002,0.018-0.265,1.385-2.499,3.67c-2.25,2.299-4.755,3.029-4.777,3.038
		c-1.007,0.078-1.925,0.037-1.957-0.095c0-2.626-4.498-8.737-6.8-10.753c-2.349-2.058-4.226-3.533-7.415-5.474
		c-3.247-1.977-6.859-10.264-6.9-10.344l-0.313-1.12c0,0-0.175-2.235-0.223-2.817c0.117,0.067,0.271,0.163,0.271,0.163l1.107,0.645
		l1.271,0.488c0.012,0.003,1.666,0.328,1.666,0.328c0,0.003,0.925,0.477,0.925,0.477l0.858,0.558l1.335,0.964l1.37,0.72
		c0.028,0.008,1.646,0.091,1.646,0.091l0.037-0.133c0,0-1.874-0.879-1.878-0.879c0-0.027-0.675-1.181-0.675-1.181
		c-0.263-0.376-0.524-0.753-0.785-1.131c-0.026-0.018-0.975-0.583-0.975-0.583c-0.401-0.062-0.803-0.118-1.205-0.17
		c0-0.01-0.236-0.213-0.359-0.323c0.105-0.062,0.304-0.185,0.304-0.185c0,0.015,1.291,0.164,1.296,0.164
		c0,0.014,1.148,0.794,1.148,0.794l1.254,0.966c0.021,0.01,1.187,0.463,1.187,0.463l0.154,0.061l-0.513-1.332
		c-0.32-0.307-0.643-0.611-0.967-0.914l-1.421-1.208c-0.012-0.01-1.116-0.579-1.116-0.579c-0.012-0.002-1.19-0.4-1.19-0.4
		c0-0.002-1.247-0.798-1.247-0.798s0.014-0.085,0.022-0.158c0.158,0.061,1.727,0.69,1.727,0.69c0.01,0.001,1.504,0.408,1.504,0.408
		c-0.002-0.006,1.254,0.479,1.254,0.479c-0.004-0.004,1.804,0.877,1.804,0.877c0.016,0.008,1.513,0.333,1.513,0.333
		c0.025,0.001,1.847-0.325,1.847-0.325c0.023-0.011,1.759-1.219,1.759-1.219c0.021-0.032,0.34-0.75,0.34-0.75l0.068-0.166
		l-0.558,0.231c-0.005,0-1.576,0.798-1.578,0.798l-1.088,0.243c0-0.006-1.229-0.247-1.23-0.247h0.002
		c0-0.015-0.996-0.941-0.996-0.941l-1.414-1.369l-1.278-0.655c-0.019-0.008-1.514-0.25-1.514-0.25c0-0.003-0.909-0.466-0.925-0.474
		c0.004,0,0.007-0.017,0.007-0.041c0-0.11-0.028-0.35-0.04-0.461l1.881,0.158l2.06-0.166c0,0.005,1.16,0.242,1.16,0.242l1.173,0.484
		l1.201,0.162l0.217,0.029l-1.34-1.281c-0.013-0.007-1.35-0.973-1.35-0.973c-0.016-0.008-1.121-0.413-1.121-0.413
		c-0.021-0.004-1.862-0.16-1.899-0.164c0.016-0.001,0.018-0.032,0.018-0.078c0-0.112-0.018-0.271-0.027-0.353l0.87-0.148
		c0,0.005,1.395,0.319,1.395,0.319c0,0.004,1.32,0.797,1.32,0.797l1.426,0.487c0.042,0.001,2.083-0.319,2.083-0.319l0.123-0.017
		l-0.622-0.821c-0.035-0.027-1.062-0.346-1.063-0.346c0-0.005-0.848-0.632-0.848-0.632l-1.263-0.888
		c-0.018-0.01-0.96-0.331-0.96-0.331c-0.016-0.005-1.502-0.243-1.507-0.244c0-0.016-0.73-0.688-0.746-0.699
		c0.022-0.004,0.068-0.239,0.085-0.345l0.786,0.22l1.011,0.482l1.436,0.455l-0.317-0.633l-0.558-0.583l-0.489-0.629l0.212-0.053
		c0,0.019,1.527,0.798,1.527,0.798l1.19,0.405c0,0.007,0.919,0.869,0.919,0.869c0.014,0.011,1.752,0.993,1.752,0.993l0.175,0.099
		l-0.316-0.849c-0.009-0.019-0.953-1.226-0.953-1.226l-0.785-1.358c-0.007-0.016-1.429-1.462-1.429-1.462
		c-0.014-0.014-1.823-0.981-1.828-0.981c0-0.008-0.688-0.789-0.688-0.789c-0.422-0.429-0.843-0.859-1.264-1.29
		c0-0.017-0.128-0.458-0.194-0.682c0.214,0.068,1.226,0.404,1.226,0.404l1.417,0.4c0,0.003,1.011,0.633,1.011,0.633
		c0,0.007,0.843,1.03,0.843,1.03c0.029,0.023,1.372,0.588,1.372,0.588l3.421,0.444l0.2,0.024l-0.939-0.988
		c-0.023-0.018-1.837-0.824-1.837-0.824l-1.088-0.793c0-0.015-0.608-1.106-0.608-1.106l-0.634-1.125
		c-0.012-0.017-1.036-0.981-1.036-0.981c-0.016-0.011-1.276-0.735-1.276-0.735l-1.247-1.038c0-0.01-0.3-0.632-0.492-1.046
		l0.866,0.835l1.655,1.449c0.021,0.012,1.283,0.576,1.283,0.576l1.081,0.874l1.257,1.282c0.044,0.02,2.007,0.297,2.007,0.297
		l0.245,0.036l-1.993-1.727c0-0.031-0.45-1.415-0.45-1.415c-0.346-0.335-0.693-0.668-1.045-0.997L124,62.319
		c0-0.017-0.54-1.663-0.54-1.663c-0.372-0.387-0.746-0.77-1.123-1.151c0-0.009-1.801-1.689-1.806-1.695v-0.003
		c0-0.026-0.063-0.283-0.101-0.452c0.138,0.069,0.326,0.169,0.326,0.169l1.652,0.963c0.017,0.008,1.983,0.57,1.983,0.57l2.054,0.486
		l2.372,0.379l-0.559-1.128c-0.039-0.036-1.219-0.517-1.219-0.517l-1.095-0.639c-0.012-0.003-1.349-0.568-1.349-0.568l-1.178-0.482
		c0-0.011-0.764-0.997-1.189-1.542c0.409,0.274,1.04,0.704,1.04,0.704c0.03,0.01,1.061,0.092,1.061,0.092l3.233,0.001
		c0,0.009,1.309,0.716,1.309,0.718c0,0.004,1.116,1.208,1.116,1.208l0.146,0.158l-0.135-1.358c-0.014-0.039-0.724-0.926-0.724-0.926
		c-0.02-0.016-1.915-1.062-1.915-1.062l-1.506-0.567c-0.011-0.003-2.28-0.405-2.291-0.405v-0.003c0-0.021-0.435-0.538-0.435-0.538
		c-0.009-0.005-1.66-1.533-1.66-1.533c-0.268-0.14-0.535-0.277-0.804-0.414c0-0.004-0.252-0.263-0.409-0.427h0.85
		c0,0.013,1.302,0.795,1.302,0.795c0.012,0.008,1.75,0.568,1.75,0.568l2.218,0.324h-0.003c0,0.023,0.822,0.945,0.822,0.945
		l1.199,0.736c0.455,0.083,0.91,0.165,1.366,0.243l0.19,0.03l-2.806-3.438c-0.019-0.017-1.359-0.74-1.359-0.74
		c-0.012-0.007-1.585-0.49-1.585-0.49c0-0.017-1.385-1.588-1.385-1.588c-0.016-0.017-1.75-1.06-1.75-1.06
		c-0.42-0.106-0.84-0.208-1.261-0.307c0.078-0.126,0.34-0.557,0.34-0.559c0.004,0.012,1.389-0.614,1.389-0.614
		c0,0.003,2.031-0.396,2.031-0.396c0.055-0.047,0.208-0.532,0.208-0.532c-0.025-0.082-0.893-0.645-0.893-0.645
		c-0.347-0.112-0.693-0.223-1.04-0.332c-0.064,0.008-0.613,0.33-0.613,0.332c0-0.01-1.699,0.067-1.699,0.067
		c0-0.001-2.03-0.479-2.03-0.481c0-0.01-2.092-1.753-2.092-1.753c-0.32-0.165-0.642-0.329-0.963-0.491
		c-0.023-0.005-3.479-0.409-3.488-0.409c0-0.044-0.813-1.256-0.813-1.256l-1.111-1.214c-0.005-0.007-1.416-1.28-1.416-1.28
		l-0.043,0.093l-0.473,1.047c0.002-0.01-0.466,0.714-0.466,0.714v0.018c0,0.133,0.066,0.833,0.066,0.833
		c0.02,0.044,0.478,0.512,0.487,0.526c-0.023,0-0.172,0.729-0.172,0.734c-0.004-0.05-1.896,0.027-1.899,0.027
		c0-0.009-1.545-0.718-1.545-0.718c-0.01-0.007-1.194-0.408-1.194-0.408c-0.024-0.008-2.779,0.077-2.779,0.077
		c-0.061,0.031-0.528,0.755-0.528,0.755l-0.063,0.095l1.212,0.175c0,0.004,0.179,0.119,0.279,0.183l-0.31,0.253
		c0-0.016-1.687-0.093-1.687-0.093c-0.028,0.004-1.215,0.485-1.215,0.485l-0.124,0.053l0.588,0.396
		c0.037,0.013,2.557,0.093,2.557,0.093l1.872,0.482v0.002c0,0.025,0.356,0.534,0.356,0.534s0.253,0.357,0.348,0.498l-0.801,0.442
		c0.01-0.001-2.277,0.963-2.277,0.963l-4.728,2.655c-0.004-0.004-3.113,0.459-3.113,0.459c-0.023,0.008-1.217,0.672-1.217,0.672
		c-0.026,0.018-0.984,1.346-0.984,1.346c-0.01,0.017-0.552,1.67-0.552,1.67c-0.043,2.808,0.069,2.873,0.11,2.896
		c0.093,0.058,0.904,0.518,1.532,0.182c0.71-0.387,2.231-0.767,3.021-0.935c0.39-0.08,0.573,0.06,0.605,0.205
		c0.042,0.158-0.075,0.373-0.366,0.453l-0.164,0.048c-1.374,0.374-2.776,0.825-2.73,1.355l0.242,0.404
		c0.613,0.447,2.207,0.235,3.052,0.044l0.883-0.248c0.762-0.232,1.628-0.491,2.368-0.408c0.427,0.049,0.804,0.233,1.249,0.443
		c0.603,0.292,1.292,0.622,2.319,0.689c1.713,0.119,2.883,0.465,2.975,0.566c0.23,0.467,0.082,1.159-0.033,1.715l-0.089,0.503
		c-0.479,4.349-5.335,9.266-7.675,11.625c-0.632,0.639-1.05,1.06-1.14,1.236l-0.269,0.622c-0.228,0.577-0.412,1.075-1.154,1.373
		c-0.429,0.167-1.43,0.92-2.59,1.79c-1.677,1.25-3.755,2.806-4.328,2.738c-0.958-0.113-5.433-3.193-5.621-3.383
		c-4.358-4.217-6.181-3.352-7.272-2.836l-0.173,0.081c-1.3,0.591-2.665,4.274-2.788,5.064l-0.526,2.268l-0.405,1.666
		c-0.12,0.563-0.657,1.949-1.169,3.287l-1.051,2.914c-0.174,0.675-0.595,1.623-0.938,2.389l-0.465,1.135
		c-0.324,1.333-0.329,8.629,0.234,9.275l0.025,0.027l0.111,0.033c0.566-0.058,1.78-1.31,2.363-1.914l0.134-0.14
		c0.493-0.495,1.017-1.817,1.017-2.374c0-0.544-0.254-1.683-0.355-1.993c-0.789-2.409-0.491-4.706-0.347-5.806l0.057-0.491
		c0.042-0.511,0.554-1.077,1.051-1.619l0.628-0.727c0.345-0.459,0.729-0.612,1.07-0.748l0.562-0.32l0.087-0.091
		c0.373-0.374,0.997-1.003,1.27-1.846l0.533-2.307l0.117-0.617c0.027-0.123,0.089-0.191,0.194-0.214
		c0.212-0.047,0.529,0.121,0.665,0.301l3.857,4.476c0.988,0.842,2.003,1.846,2.003,2.066l-0.001,0.019
		c0-0.003-0.023,0.001-0.023,0.001c-0.54,0.056-3.258-0.523-3.709-0.652c-3.692-1.083-5.378-0.892-6.678,0.735
		c-1.481,1.864-1.015,7.571-0.713,8.196c0.278,0.567,1.629,7.52,1.69,8.447c0.061,0.909,0.413,2.534,0.78,2.907l0.101,0.104
		c0.455,0.45,1.654,1.655,1.866,2.842c0.229,1.294,2.975,4.756,4.023,5.066c0.159,0.046,0.331,0.013,0.462-0.09
		c0.799-0.566,1.162-3.338,1.206-4.508c0.051-1.458-0.472-2.163-1.028-2.917l-0.213-0.294c-0.409-0.558-1.129-0.761-1.604-0.895
		c-0.203-0.057-0.481-0.124-0.481-0.187c0-0.021-0.056-2.157-0.737-2.569c-0.53-0.326-1.072-2.387-1.136-3.171
		c-0.062-0.779-0.363-2.659-0.768-3.485c-0.409-0.83-0.753-2.358-0.578-3.537c0.073-0.507,0.434-0.666,0.727-0.711
		c0.507-0.081,1.092,0.138,1.183,0.314c0.202,0.406,4.096,2.754,5.409,3.259c0.816,0.309,1.92,1.242,2.895,2.073
		c0.694,0.582,1.29,1.083,1.662,1.261c0.502,0.242,1.925,0.27,3.068,0.292c0.606,0.01,1.236,0.024,1.321,0.075
		c-0.464,0.186-0.458,1-0.42,1.262c0.474,3.365,12.717,12.609,13.664,13.127c1.096,0.588,5.027,4.693,5.371,5.251
		c0.356,0.552,0.703,1.151,0.637,1.612c-0.094,0.683,0.18,1.463,0.727,2.1c0.523,0.593,1.205,0.95,1.836,0.95
		c0.547,0,0.913-0.491,1.183-0.846l0.058-0.073c0.73-0.968,1.813-2.384,1.954-4.6c0.148-2.271,1.187-3.173,1.525-3.232
		c0.15-0.028,0.262,0.018,0.302,0.117c0.042,0.104-0.009,0.276-0.214,0.412c-0.448,0.304-0.729,1.309-1.035,2.383
		c-0.002,0.009-0.114,1.098-0.114,1.098c-0.026,0.813-0.058,1.733-0.868,2.626c-1.215,1.316-2.609,4.35-2.97,8.18
		c-0.219,2.307,0.82,5.631,3.086,9.866l0.158,0.303l0.612,1.029c0.62,0.996,1.655,2.652,1.607,3.04
		c-0.066,0.547-0.118,0.976-1.062,2.16c-1.037,1.302-4.824,5.708-5.193,5.777c-0.753,0-0.88,0.097-1.486,0.557l-0.639,0.486
		c-0.699,0.496-0.821,0.868-0.939,1.196c-0.086,0.248-0.168,0.464-0.493,0.707l-0.243,0.164c-0.05,0.044-0.187,0.236-1.709,1.759
		c-1.745,1.725-2.523,3.677-2.254,5.616c0.086,0.606,0.608,0.818,2.157,0.889c1.546,0.072,5.092-2.409,5.25-3.217l0.055-0.309
		c0.136-0.728,0.363-1.956,0.765-2.133c0.483-0.212,1.313-1.169,1.921-1.865l0.118-0.131c0.323-0.374,0.402-0.746,0.479-1.101
		c0.066-0.28,0.127-0.563,0.311-0.82c0.145-0.188,0.356-0.291,0.602-0.404c0.471-0.226,1.063-0.512,1.49-1.585
		c0.425-1.051,2.96-2.869,4.811-4.193c0.946-0.672,1.688-1.21,1.865-1.446c0.243-0.317,0.392-0.928,0.392-1.575
		c0-0.769-0.206-1.587-0.688-2.042c-0.703-0.652-1.364-2.593-1.562-3.201v-0.014c0-0.252-0.023-0.714-0.062-1.573
		c-0.004-0.039-0.004-0.081-0.004-0.118c0-2.273,3.379-4.498,4.838-5.456l0.666-0.459c5.29-4.666,6.326-8.214,6.521-9.188
		l0.108-1.167c0.032-0.808,0.059-1.578,0.546-1.679c0.191-0.037,0.508,0.116,0.701,0.347c0.109,0.124,0.271,0.383,0.163,0.682
		c-0.241,0.655-0.321,7.233-0.323,7.508c0.018,0.046,0.568,0.695,0.568,0.695l0.102,0.118l0.03-0.154
		c0.007-0.076,0.311-1.869,0.311-2.503c0-0.709,1.141-3.747,1.416-3.8c0,0.009,0.018,0.034,0.018,0.034
		c0.134,0.421,0.304,1.458,0.304,2.552c0,1.075-0.162,2.204-0.685,2.858c-0.792,0.98-1.423,2.533-1.834,3.557l-0.381,0.871
		c-0.043,0.121-0.062,0.249-0.056,0.377c0,0.833,0.43,2.61,0.712,2.941c0.074,0.078,0.134,0.078,0.175,0.063
		c0.092-0.034,0.175-0.153,0.175-0.852c0-2.659,2.234-4.588,2.262-4.603c1.97-1.563,2.398-4.462,2.398-6.671
		c0-1.672-0.245-2.948-0.252-2.982c-0.312-0.462-0.627-0.922-0.945-1.379c0.046,0.022,0.303-0.188,0.388-0.256
		c0.085,0.109,0.982,1.3,0.982,1.3c0.151,0.212,0.535,0.829,0.535,1.074c0,1.368,0.21,2.306,0.36,2.992l0.037,0.162
		c0.158,0.729,1.143,3.057,1.187,3.156l0.105,0.245l0.032-0.267c0-0.012,0.156-1.229,0-2.27c-0.09-0.584,0.022-1.3,0.136-2.073
		l0.18-1.774c0-1.442-0.207-2.354-0.721-3.183l-0.263-0.397c-0.103-0.163-0.204-0.322-0.192-0.354l0.192-0.083
		c4.161-1.412,6.098-4.476,6.887-6.172c0.826-1.798,0.87-4.565,0.87-5.098c0-0.694-0.03-4.291-0.634-6.139
		c-0.354-1.09-0.241-2.261-0.122-3.525l0.129-2.164c0-1.48,0.778-2.58,1.533-3.642l0.9-1.394
		C152.246,88.516,151.934,87.5,151.697,87.209L151.697,87.209z"/>
	<path d="M105.125,40.877c0.069,0.004,0.954-0.416,0.954-0.416c0.039-0.08-0.166-0.917-0.166-0.917
		c-0.638-0.757-1.279-1.511-1.924-2.263l-0.095-0.111l-0.033,0.139l-0.206,0.906c0.001-0.009-0.611,1.455-0.611,1.455l-0.028,0.062
		l1.289,0.659L105.125,40.877L105.125,40.877z"/>
	<path fill="#FFFFFF" d="M105.508,46.685c0.204,0.076,0.512,0.042,0.803-0.087c0.446-0.209,0.709-0.568,0.596-0.825l-0.205-0.185
		c-0.202-0.078-0.51-0.043-0.796,0.089c-0.382,0.17-0.626,0.454-0.626,0.695c0,0.043,0.012,0.091,0.027,0.128L105.508,46.685
		L105.508,46.685z M113.205,43.508l0.367,0.198c0.061,0.129,0.175,0.224,0.313,0.258c0.159,0.033,0.324-0.008,0.449-0.112
		c0.099-0.078,0.122-0.222,0.059-0.405c-0.099-0.304-0.415-0.635-0.757-0.635c-0.44,0-0.843,0.05-0.843,0.375
		C112.794,43.37,113.003,43.439,113.205,43.508L113.205,43.508z M113.646,44.807c-0.17,0.125-0.245,0.295-0.197,0.466l0.035,0.142
		c0.043,0.168,0.059,0.203,0.214,0.221l0.28,0.05c0.358,0.092,0.925-0.131,1.054-0.418c0.044-0.093,0.079-0.273-0.165-0.443
		C114.445,44.544,113.928,44.605,113.646,44.807L113.646,44.807z M114.792,49.794c-0.104-0.049-0.06-0.213,0.02-0.451
		c0.064-0.194,0.123-0.38,0.022-0.482c-0.087-0.084-0.243-0.077-0.507,0.021c-0.953,0.343-1.099,1.313-1.204,2.022l-0.032,0.219
		c-0.055,0.316,0.107,0.423,0.208,0.459c0.329,0.117,0.922-0.182,1.055-0.409c0.149-0.245,0.972-0.469,1.571-0.633l0.229-0.063
		c0.278-0.076,0.42-0.183,0.44-0.327c0.03-0.189-0.179-0.362-0.365-0.473c-0.173-0.102-0.429-0.029-0.698,0.048
		C115.265,49.8,114.978,49.875,114.792,49.794z M104.725,50.159c0.21-0.021,0.375-0.103,0.479-0.253
		c0.304-0.453,0.319-1.094,0.024-1.675c-0.285-0.555-0.772-0.91-1.27-0.928l0.007,0.002l-0.109-0.014l-0.917,0.071
		c-0.484,0.108-0.934,0.465-1.042,0.817c-0.055,0.178-0.023,0.341,0.099,0.463C102.732,49.42,104.001,50.213,104.725,50.159
		L104.725,50.159z M95.698,49.421c0.11,0.27,0.613,0.3,1.351,0.081l0.163-0.049l1.324-0.518l1.917-1.261
		c0.056-0.044,0.557-0.42,0.454-0.661c-0.073-0.158-0.323-0.13-0.503-0.097c-0.529,0.097-1.048,0.351-1.6,0.62l-0.78,0.362
		l-0.344,0.141C96.493,48.53,95.52,48.971,95.698,49.421L95.698,49.421z M91.666,50.824c-0.399,0-0.578,0.216-0.724,0.408
		l-0.178,0.202c-0.307,0.264-0.401,0.9-0.363,1.384c0.016,0.202,0.073,0.567,0.271,0.684c0.38,0.234,0.562,0.069,0.949-0.299
		l0.3-0.258c0.381-0.319,0.824-0.681,0.878-1.238c0.027-0.235-0.029-0.429-0.16-0.575C92.407,50.878,91.981,50.824,91.666,50.824
		L91.666,50.824z M93.872,51c-0.114-0.024-0.183,0.011-0.219,0.048c-0.115,0.113-0.068,0.355-0.032,0.549l0.022,0.136l-0.023,0.082
		c-0.026,0.069-0.055,0.158,0,0.233c0.049,0.075,0.169,0.107,0.373,0.107c0.259,0.002,0.285-0.024,0.372-0.255l0.069-0.178
		c0.063-0.157,0.064-0.298,0.004-0.41C94.332,51.114,94.068,51.04,93.872,51L93.872,51z M96.004,54.456
		c0.291-0.014,0.515-0.26,0.502-0.55c-0.013-0.272-0.23-0.489-0.502-0.502c-0.287,0.002-0.517,0.235-0.516,0.522
		c0,0.001,0,0.002,0,0.003C95.489,54.22,95.718,54.456,96.004,54.456L96.004,54.456z M105.611,53.174
		c-0.151-0.028-0.305,0.03-0.4,0.15c-0.143,0.166-1.009,0.76-1.642,1.194l-0.817,0.581l-0.066,0.064
		c-0.102,0.096-0.152,0.156-0.086,0.355l0.1,0.14l0.215-0.043l0.318-0.118l0.458-0.072c0.452-0.058,0.946-0.125,1.179-0.364
		l0.304-0.497l0.452-0.725c0.216-0.239,0.228-0.402,0.197-0.496C105.787,53.254,105.707,53.189,105.611,53.174z M106.56,56.104
		c0,0.268,0.133,0.373,0.208,0.41c0.203,0.107,0.494,0.003,0.667-0.239l0.587-0.511c0.318-0.229,0.673-0.486,0.988-0.886
		c0.291-0.375,0.166-0.606,0.062-0.705c-0.199-0.195-0.609-0.24-0.749-0.125l-0.169,0.116c-0.384,0.25-1.294,0.84-1.523,1.559
		C106.587,55.844,106.563,55.973,106.56,56.104L106.56,56.104z M110.386,55.814c-0.12-0.175-0.326-0.248-0.479-0.172l-0.414,0.314
		c-0.291,0.237-0.654,0.539-0.969,0.627c-0.765,0.205-1.801,0.547-1.865,1.071l-0.001,0.068c0,0.145,0.065,0.23,0.127,0.279
		c0.291,0.236,0.995,0.096,1.505-0.096c0.782-0.289,1.258-0.642,1.871-1.2C110.539,56.361,110.522,56.017,110.386,55.814
		L110.386,55.814z M107.414,61.854l-0.249-0.028c-0.643,0.171-1.741,2.063-2.512,3.473l-0.138,0.244l-2.311,4.337l-0.725,1.38
		c-0.081,0.125-0.052,0.31,0.068,0.429c0.112,0.112,0.308,0.174,0.546,0.023c0.386-0.256,1.792-1.652,2.444-2.748l0.869-1.198
		c0.557-0.728,1.191-1.541,1.563-2.51l0.131-0.334C107.982,62.636,108.12,62.287,107.414,61.854L107.414,61.854z M116.103,53.518
		c-0.276-0.006-0.506,0.213-0.512,0.489c0,0,0,0,0,0c0,0.27,0.229,0.49,0.512,0.49s0.508-0.22,0.508-0.49
		c-0.004-0.275-0.23-0.494-0.505-0.49C116.104,53.518,116.104,53.518,116.103,53.518z M115.859,55.561
		c0,0.271,0.23,0.491,0.513,0.491c0.273,0.003,0.498-0.216,0.501-0.49v-0.001c-0.003-0.274-0.228-0.494-0.501-0.491
		C116.096,55.066,115.867,55.285,115.859,55.561z M116.33,56.647c-0.319,0-0.584,0.211-0.584,0.465c0,0.256,0.265,0.466,0.584,0.466
		c0.324,0,0.586-0.208,0.586-0.466C116.918,56.858,116.654,56.647,116.33,56.647z M116.307,58.005c-0.367,0-0.661,0.232-0.661,0.518
		c0,0.284,0.294,0.516,0.661,0.516c0.368,0,0.657-0.233,0.657-0.516C116.964,58.237,116.675,58.005,116.307,58.005z M116.33,59.729
		c-0.404,0-0.739,0.241-0.739,0.544c0,0.299,0.335,0.54,0.739,0.54c0.407,0,0.735-0.241,0.735-0.54
		C117.065,59.969,116.737,59.729,116.33,59.729z M116.08,62.617c0.46-0.041,0.797-0.292,0.771-0.584l-0.145-0.264
		c-0.158-0.133-0.434-0.201-0.714-0.175c-0.443,0.04-0.772,0.28-0.772,0.555l0.003,0.028l0.148,0.264
		C115.533,62.577,115.797,62.644,116.08,62.617L116.08,62.617z M115.076,64.058l-0.002-0.013L115.076,64.058z M116.055,64.432
		c0.515-0.076,0.878-0.359,0.836-0.65l-0.151-0.242c-0.179-0.138-0.501-0.193-0.829-0.145c-0.505,0.07-0.877,0.358-0.836,0.65
		l0.156,0.241C115.411,64.425,115.727,64.478,116.055,64.432z M115.188,65.307c0,0.317,0.386,0.57,0.891,0.57
		c0.503,0,0.885-0.253,0.885-0.57c0-0.317-0.382-0.567-0.885-0.567C115.573,64.741,115.188,64.989,115.188,65.307z M116.764,67.161
		c0-0.336-0.459-0.593-1.046-0.593c-0.581,0-1.04,0.257-1.04,0.593c0,0.334,0.459,0.595,1.04,0.595
		C116.305,67.756,116.764,67.495,116.764,67.161z M116.096,68.727c0-0.328-0.344-0.594-0.76-0.594c-0.422,0-0.766,0.266-0.766,0.594
		c0,0.329,0.344,0.595,0.766,0.595C115.753,69.322,116.096,69.055,116.096,68.727z M115.737,70.685c0-0.369-0.362-0.672-0.814-0.672
		c-0.446,0-0.808,0.303-0.808,0.672c0,0.372,0.36,0.671,0.808,0.671C115.375,71.355,115.737,71.056,115.737,70.685z M115.076,72.589
		c0-0.332-0.298-0.595-0.661-0.595c-0.36,0-0.665,0.262-0.665,0.595c0,0.326,0.304,0.593,0.665,0.593
		C114.778,73.183,115.076,72.916,115.076,72.589z M113.932,73.717c-0.35,0-0.639,0.266-0.639,0.595c0,0.326,0.289,0.592,0.639,0.592
		c0.348,0,0.634-0.267,0.634-0.592C114.566,73.982,114.279,73.717,113.932,73.717z M113.391,76.575c0.359,0,0.664-0.231,0.664-0.517
		s-0.304-0.513-0.664-0.513s-0.656,0.229-0.656,0.513S113.03,76.575,113.391,76.575z M112.782,77.827
		c0.333,0,0.606-0.194,0.606-0.438c0-0.243-0.269-0.436-0.606-0.436c-0.348,0-0.612,0.191-0.612,0.436
		C112.17,77.633,112.443,77.827,112.782,77.827z M112.192,79.03c0.316,0,0.586-0.196,0.586-0.439c0-0.241-0.27-0.437-0.586-0.437
		c-0.326,0-0.584,0.196-0.584,0.437C111.607,78.834,111.866,79.03,112.192,79.03z M94.915,77.965l0.105,0.02l0.798-0.143
		c0.708-0.157,1.775-0.396,3.087-0.431c0.959-0.026,1.999,0.31,2.754,0.556c0.686,0.229,1.027,0.328,1.158,0.187
		c0.082-0.093,0.031-0.229-0.014-0.324c-0.206-0.445-1.109-1.907-4.057-1.975c-1.915-0.043-3.476,1.259-3.81,1.809
		c-0.066,0.112-0.084,0.195-0.05,0.256L94.915,77.965L94.915,77.965z M105.874,83.505c0.188-0.12,0.268-0.332,0.256-0.635
		c-0.063-1.192-0.382-1.328-1.04-1.328c-0.667,0-1.149,0.669-1.149,1.016c0,0.326,0.24,0.612,0.705,0.845
		C104.909,83.542,105.516,83.74,105.874,83.505L105.874,83.505z M114.916,98.081c0.95,0.444,1.284,0.602,1.427,0.646
		c0.005,0,0.009,0.013,0.009,0.013s0.007-0.005,0.007-0.008c0.066,0.021,0.088,0.012,0.104-0.01
		c-0.01-0.006-0.046-0.063-0.066-0.078c0.011-0.009,0.022-0.033,0.022-0.033s-0.06-0.024-0.064-0.03
		c-0.628-0.793-4.413-6.175-5.22-9.718c-0.126-0.583-0.275-1.127-0.656-1.345c-0.214-0.12-0.484-0.128-0.813-0.019h-0.002
		c-0.076,0.022-0.131,0.085-0.166,0.177c-0.032,0.1-0.047,0.205-0.041,0.31c0,1.265,1.348,4.748,1.788,5.464
		C113.681,97.404,114.87,98.054,114.916,98.081L114.916,98.081z M145.857,99.619l-0.145,0.028c0.005,0.022,0.037,1.079,0.037,2.437
		c0,1.979-0.068,4.618-0.411,5.803c-0.277,0.96-1.552,2.799-2.58,4.271c0,0-1.197,1.795-1.197,1.798
		c-0.034,0.06-0.052,0.128-0.051,0.197c0,0.177,0.09,0.344,0.248,0.448c0.12,0.083,0.554,0.296,1.157-0.425l0.765-0.809
		c1.02-1.018,2.287-2.28,3.18-5.068C147.84,105.239,145.875,99.672,145.857,99.619z M113.979,109.59
		c0.092,0.092,0.24,0.118,0.396,0.062c0.245-0.085,0.417-0.306,0.438-0.564c0.036-0.383,0.304-0.897,0.7-1.337
		c0.43-0.488,0.396-1.229-0.076-1.676l-0.508-0.203c-0.326,0.011-0.569,0.272-0.583,0.28c-0.17,0.814-0.336,1.629-0.498,2.445
		v-0.002C113.8,108.729,113.757,109.377,113.979,109.59L113.979,109.59z M130.484,118.615l-0.025-0.011l-0.026,0.011
		c-0.02,0.016-0.445,0.214-0.566,0.63c-0.083,0.28,0.071,0.523,0.192,0.724l0.143,0.267l0.062,0.532l0.097,0.783
		c0.049,0.167,0.207,0.278,0.381,0.268c0.199-0.007,0.432-0.161,0.508-0.471c0.103-0.421,0.153-0.99,0.153-1.747
		C131.399,118.909,130.523,118.624,130.484,118.615L130.484,118.615z M104.866,112.242c-0.057-0.065-6.108-6.632-7.416-8.353
		c-1.333-1.763-1.969-1.896-2.621-1.535c-0.098,0.056-0.162,0.156-0.171,0.268c-0.094,0.716,1.417,2.449,2.741,3.721
		c1.85,1.78,7.315,5.966,7.371,6.007L104.866,112.242L104.866,112.242z M81.148,92.862c-1.226-0.761-3.348-1.183-3.37-1.192
		l-0.056,0.129l2.354,1.775c0.388,0.318,2.101,1.382,2.655,0.947c0.073-0.055,0.114-0.142,0.11-0.233
		C82.824,93.968,82.23,93.541,81.148,92.862L81.148,92.862z M80.574,82.816l0.166-0.071c0.212-0.239-0.275-0.917-0.868-1.464
		c-0.535-0.493-1.078-0.812-1.363-0.796l-0.161,0.07c-0.035,0.042-0.052,0.096-0.049,0.15c0,0.309,0.423,0.856,0.916,1.315
		C79.749,82.513,80.297,82.834,80.574,82.816z M86.865,81.958l-0.241,0.015c-0.457,0.191-1.183,1.354-1.763,2.825
		c-0.408,1.039-0.716,2.171-0.716,2.854c0,0.324,0.069,0.543,0.224,0.608l0.237-0.015c0.458-0.195,1.181-1.359,1.767-2.826
		c0.407-1.041,0.712-2.174,0.712-2.857C87.085,82.241,87.019,82.02,86.865,81.958L86.865,81.958z M75.54,74.782
		c-0.591,0-1.062,0.28-1.062,0.634c0,0.352,0.471,0.629,1.062,0.629c0.599,0,1.065-0.277,1.065-0.629
		C76.605,75.063,76.139,74.782,75.54,74.782z M71.773,82.623l0.184-0.017c0.319-0.157,0.802-1.025,1.167-2.109
		c0.385-1.153,0.596-2.392,0.223-2.524l-0.18,0.019c-0.325,0.161-0.807,1.026-1.168,2.109
		C71.606,81.256,71.408,82.494,71.773,82.623L71.773,82.623z M72.76,88.588c0.313-0.42,0.376-0.893,0.144-1.07l-0.271-0.058
		c-0.226,0.029-0.496,0.22-0.698,0.501c-0.313,0.42-0.376,0.892-0.145,1.066l0.272,0.063C72.287,89.055,72.56,88.867,72.76,88.588
		L72.76,88.588z M72.399,95.121l-0.026-0.016l-0.118-0.013c-0.423,0.099-0.125,1.943,0.093,2.914c0.31,1.355,0.73,2.449,1.022,2.63
		l0.024,0.018l0.116,0.013c0.43-0.099,0.125-1.952-0.092-2.914C73.11,96.391,72.695,95.304,72.399,95.121L72.399,95.121z
		 M68.132,97.598c-0.342,0-0.618,0.253-0.618,0.569c0,0.3,0.276,0.553,0.618,0.553c0.339,0,0.624-0.253,0.624-0.553
		C68.757,97.851,68.472,97.598,68.132,97.598z M78.616,110.986c-0.394-0.002-0.715,0.313-0.72,0.707c0,0.381,0.324,0.696,0.72,0.696
		c0.392,0.007,0.715-0.305,0.724-0.696C79.334,111.299,79.011,110.982,78.616,110.986z M114.059,129.64
		c0.022,0.034,0.088,0.151,0.187,0.14l0.041-0.002l0.076-0.114l0.65-1.981l0.508-1.319l0.434-1.005
		c0.133-0.337,0.133-0.563,0.002-0.693c-0.208-0.19-0.639-0.028-0.691-0.009c-0.034,0.028-1.222,2.009-1.222,2.009
		c-0.231,0.354-0.319,0.832-0.319,1.322C113.724,128.686,113.898,129.384,114.059,129.64L114.059,129.64z M117.024,139.537
		l0.023-0.2c0.016-0.117,0.372-2.873-0.476-3.938c-0.175-0.233-0.44-0.382-0.73-0.409c-0.255-0.023-0.43,0.051-0.525,0.211
		c-0.517,0.845,1.511,4.027,1.6,4.165L117.024,139.537L117.024,139.537z M121.77,144.778c-0.406-0.005-0.739,0.32-0.744,0.727
		c0,0.001,0,0.002,0,0.002c0,0.409,0.333,0.727,0.744,0.727c0.401,0,0.728-0.326,0.728-0.728S122.171,144.778,121.77,144.778
		L121.77,144.778z M110.597,135.903c-0.349,0-0.646,0.271-0.646,0.606c0,0.344,0.298,0.608,0.646,0.608
		c0.356,0,0.643-0.265,0.643-0.608C111.239,136.175,110.953,135.903,110.597,135.903z M118.738,146.65l-0.078-0.019
		c-0.386,0-1.845,1.276-3.089,2.55c-0.109,0.116-2.81,2.887-2.452,3.247l0.02,0.022l0.088,0.019c0.39,0,1.847-1.281,3.084-2.548
		c0.116-0.117,2.821-2.877,2.453-3.252L118.738,146.65z M110.629,154.139c-0.226,0-0.578,0.211-0.894,0.526
		c-0.376,0.376-0.649,0.897-0.448,1.111l0.014,0.014l-0.014-0.014l0.2,0.071c0.229,0,0.583-0.206,0.897-0.527
		c0.367-0.381,0.649-0.891,0.44-1.107L110.629,154.139z M107.071,159.266c-0.277,0-0.667,0.228-1.009,0.574
		c-0.357,0.358-0.563,0.755-0.563,1.03c0,0.105,0.028,0.19,0.094,0.25l0.252,0.097c0.272,0,0.674-0.221,1.009-0.569
		c0.497-0.508,0.696-1.051,0.471-1.286L107.071,159.266z M88.47,133.444c-0.533,0-0.967,0.304-0.967,0.687
		c0,0.381,0.435,0.675,0.967,0.675c0.538,0,0.967-0.294,0.967-0.675C89.438,133.748,89.008,133.444,88.47,133.444z M96.348,133.995
		c-0.379,0-0.673,0.204-0.673,0.473c0,0.253,0.294,0.46,0.673,0.46c0.365,0,0.668-0.209,0.668-0.46
		C97.016,134.205,96.713,133.995,96.348,133.995z M105.963,137.213l0.058-0.09c0.109-0.453-2.159-1.16-3.372-1.467
		c-1.456-0.372-3.186-0.67-3.568-0.44l-0.027,0.018l-0.062,0.095c-0.11,0.457,2.157,1.155,3.372,1.472
		c1.455,0.365,3.185,0.655,3.573,0.428L105.963,137.213L105.963,137.213z"/>
</g>
</svg>
