<?xml version="1.0" encoding="utf-8"?>
<!DOCTYPE svg PUBLIC "-//W3C//DTD SVG 1.1//EN" "http://www.w3.org/Graphics/SVG/1.1/DTD/svg11.dtd">
<svg version="1.1" id="Layer_1" xmlns="http://www.w3.org/2000/svg" xmlns:xlink="http://www.w3.org/1999/xlink" x="0px" y="0px" width="216px" height="216px" viewBox="0 0 216 216" enable-background="new 0 0 216 216" xml:space="preserve">
<rect fill="#FFFFFF" width="216" height="216"/>
<polygon fill-rule="evenodd" clip-rule="evenodd" fill="#D2AB67" points="42.342,64.612 41.793,65.161 41.245,65.709 40.696,66.258 
	40.146,66.807 39.598,67.356 39.05,67.905 38.501,69.002 37.952,69.551 37.403,70.1 36.854,70.648 36.306,71.197 35.756,71.746 
	35.208,72.843 34.659,73.393 34.11,73.941 33.562,74.49 33.014,75.039 32.464,75.587 31.916,76.136 31.367,77.234 30.818,77.783 
	30.269,78.332 29.72,78.88 29.171,79.429 28.623,79.978 28.075,81.075 27.525,81.625 26.977,82.173 26.428,82.722 25.878,83.271 
	25.33,83.819 24.781,84.368 24.233,85.466 23.684,86.015 23.135,86.563 22.586,87.112 22.586,88.758 23.135,89.307 23.684,89.856 
	24.781,90.405 25.33,90.954 25.878,91.502 26.428,92.051 26.977,92.6 27.525,93.148 28.623,93.697 29.171,94.247 29.72,94.247 
	30.269,93.697 30.818,93.148 31.367,92.6 31.916,92.051 32.464,91.502 33.014,90.954 33.562,90.405 34.11,89.856 34.659,89.307 
	35.756,88.758 36.854,88.209 38.501,87.661 41.793,87.661 43.988,88.209 45.086,88.758 46.184,89.307 46.732,89.856 47.281,90.405 
	47.831,90.954 48.379,91.502 48.928,92.6 48.928,97.539 48.379,99.185 47.831,100.283 47.281,101.38 46.732,102.479 46.184,103.576 
	45.636,104.124 45.086,105.222 44.537,106.319 43.988,107.417 43.44,108.515 42.892,109.063 42.342,110.162 41.793,111.258 
	41.245,112.355 40.696,113.454 40.146,114.552 39.598,115.648 39.05,116.197 38.501,117.295 37.952,118.393 37.403,119.49 
	36.854,120.588 36.306,121.686 35.756,122.783 35.208,123.881 34.659,124.979 34.11,126.625 33.562,127.722 33.014,128.82 
	32.464,129.917 31.916,131.563 31.367,132.661 30.818,134.308 30.269,135.953 29.72,137.601 29.171,139.247 28.623,141.441 
	28.075,143.638 27.525,146.38 26.977,150.222 26.977,162.295 27.525,166.137 28.075,168.332 28.623,170.526 29.171,172.174 
	29.72,173.819 30.269,175.467 30.818,176.564 31.367,177.661 31.916,178.759 32.464,179.855 33.014,180.954 33.562,182.052 
	34.11,183.148 34.659,183.697 35.208,184.795 35.756,185.345 36.306,186.441 36.854,186.99 37.403,187.54 37.952,188.637 
	38.501,189.186 39.05,189.734 39.598,190.831 40.146,191.382 40.696,191.93 41.245,193.027 41.793,193.576 42.342,194.124 
	42.892,195.223 43.44,195.771 30.269,196.32 30.269,200.161 180.637,200.161 180.637,195.771 161.429,195.223 161.978,194.672 
	162.526,193.576 163.075,193.027 163.623,192.479 164.172,191.382 164.72,190.831 165.269,190.283 165.818,189.734 166.368,188.637 
	166.917,188.088 167.465,187.54 168.014,186.99 168.562,185.893 169.11,185.345 169.659,184.795 170.208,183.697 170.758,183.148 
	171.308,182.052 171.856,181.503 172.403,180.405 172.953,179.855 173.501,178.759 174.05,177.661 174.599,177.113 175.147,176.014 
	175.697,174.917 176.245,173.819 176.795,172.724 177.343,171.625 177.892,170.526 178.439,168.881 178.989,167.784 
	179.538,166.137 180.086,164.49 180.637,162.295 181.185,160.101 181.733,157.356 182.281,154.064 182.281,140.344 181.733,136.502 
	181.185,134.308 171.856,134.308 171.308,137.051 170.758,139.795 170.208,141.441 169.659,143.089 169.11,144.186 168.562,145.831 
	168.014,146.93 167.465,148.026 166.917,149.125 166.368,150.222 165.818,150.771 165.269,151.868 164.72,152.417 164.172,153.515 
	163.623,154.064 163.075,155.161 162.526,155.709 161.978,156.259 161.429,156.807 160.879,157.906 160.33,158.454 159.78,159.003 
	159.233,159.552 158.685,160.101 158.137,160.648 157.587,161.196 157.038,161.746 155.939,162.295 155.392,162.845 
	154.843,163.393 154.294,163.942 153.197,164.49 152.648,165.038 152.099,165.588 151,166.137 150.452,166.686 149.355,167.234 
	148.806,167.784 147.709,168.332 146.612,168.881 145.514,169.429 144.416,169.978 143.318,170.526 142.222,171.076 
	140.574,171.625 139.477,172.174 137.832,172.724 136.184,173.271 134.537,173.819 132.344,174.368 129.599,174.917 
	125.757,175.467 112.586,175.467 108.745,174.917 106.001,174.368 103.807,173.819 101.611,173.271 99.964,172.724 98.318,172.174 
	96.672,171.625 95.025,171.076 93.929,170.526 92.83,169.978 91.733,169.429 90.635,168.881 89.538,168.332 88.439,167.784 
	87.343,167.234 86.794,166.686 85.696,166.137 84.599,165.588 84.05,165.038 83.5,164.49 82.403,163.942 81.855,163.393 
	81.306,162.845 80.208,162.295 79.659,161.746 79.11,161.196 78.562,160.648 78.013,160.101 77.464,159.552 76.917,159.003 
	76.367,158.454 75.818,157.906 75.269,157.356 74.721,156.807 74.172,156.259 73.623,155.161 73.074,154.612 72.526,154.064 
	71.976,152.966 71.428,152.417 70.879,151.319 70.33,150.771 69.782,149.673 69.232,148.576 68.684,147.479 68.135,146.38 
	67.587,145.283 67.038,143.638 66.488,141.99 65.94,140.344 65.391,138.148 64.843,134.308 64.293,127.173 63.745,101.38 
	63.196,96.99 62.647,93.697 62.099,90.954 61.549,89.307 61,87.112 60.453,86.015 59.903,84.368 59.355,82.722 58.806,81.625 
	58.257,80.526 57.708,79.429 57.159,78.332 56.61,77.783 56.062,76.685 55.513,75.587 54.965,75.039 54.415,73.941 53.867,73.393 
	53.318,72.843 52.769,71.746 52.221,71.197 51.671,70.648 51.123,70.1 50.573,69.551 50.025,69.002 49.477,68.454 48.928,67.905 
	48.379,67.356 47.831,66.807 47.281,66.258 46.732,65.709 46.184,65.161 45.636,64.612 45.086,64.063 43.988,63.515 42.892,63.515 
	"/>
<polygon fill-rule="evenodd" clip-rule="evenodd" fill="#D2AB67" points="161.429,17.417 155.392,17.965 150.452,18.514 
	146.062,19.063 142.222,19.612 138.928,20.161 136.184,20.709 133.44,21.258 130.696,21.807 128.501,22.355 126.305,22.904 
	124.111,23.453 121.916,24.002 119.721,24.551 118.074,25.1 115.879,25.648 114.233,26.197 112.586,26.746 110.939,27.295 
	109.294,27.844 107.647,28.393 106.55,28.941 104.903,29.49 103.257,30.039 102.16,30.587 100.513,31.136 99.416,31.685 
	97.77,32.234 96.672,32.782 95.575,33.332 94.477,33.88 92.83,34.429 91.733,34.978 90.635,35.526 89.538,36.075 88.439,36.624 
	87.343,37.173 86.245,37.722 85.147,38.271 84.05,38.819 82.952,39.368 81.855,39.917 81.306,40.466 80.208,41.014 79.11,41.563 
	78.013,42.112 77.464,42.661 76.367,43.209 75.269,43.758 74.721,44.307 73.623,44.855 72.526,45.405 71.976,45.953 70.879,46.502 
	70.33,47.051 69.232,47.599 68.684,48.148 67.587,48.698 67.038,49.246 66.488,49.795 66.488,50.893 67.038,51.441 67.587,52.539 
	68.135,53.636 68.684,54.185 69.232,55.283 69.782,56.38 70.33,57.478 70.879,58.026 71.428,59.125 71.976,60.222 72.526,61.319 
	73.074,61.868 73.623,62.966 74.172,64.063 74.721,65.161 75.269,66.258 75.818,67.356 76.367,68.454 76.917,69.551 77.464,70.648 
	78.013,71.746 78.562,73.393 79.11,75.039 79.659,76.685 80.208,78.332 80.757,81.075 81.306,84.917 81.306,95.344 80.757,101.929 
	80.208,107.417 79.659,112.355 79.659,118.393 91.185,118.393 91.733,110.162 92.281,106.868 92.83,104.124 93.379,101.38 
	93.929,98.637 94.477,95.344 95.025,92.051 95.575,87.661 96.123,79.978 96.123,73.941 95.575,67.356 95.025,64.063 94.477,61.319 
	93.929,59.125 93.379,57.478 92.83,55.831 92.281,54.185 91.733,52.539 91.733,51.441 92.281,50.893 93.379,50.344 94.477,49.795 
	95.575,49.246 96.672,48.698 97.77,48.148 98.867,47.599 100.513,47.051 101.611,46.502 102.708,45.953 104.354,45.405 
	105.453,44.855 107.099,44.307 108.745,43.758 109.842,43.209 111.488,42.661 113.135,42.112 114.781,41.563 116.977,41.014 
	118.623,40.466 120.27,39.917 122.463,39.368 124.111,38.819 126.305,38.271 128.501,37.722 130.696,37.173 133.44,36.624 
	136.184,36.075 138.928,35.526 142.222,34.978 146.062,34.429 151.551,33.88 160.407,33.346 159.78,34.978 159.233,35.526 
	158.685,36.075 158.137,36.624 157.038,37.173 156.488,37.722 155.939,38.271 155.392,38.819 154.843,39.368 154.294,39.917 
	153.745,40.466 153.197,41.014 152.648,42.112 152.099,42.661 151.551,43.209 151,43.758 150.452,44.307 149.903,44.855 
	149.355,45.405 148.806,45.953 148.258,47.051 147.709,47.599 147.161,48.148 146.612,48.698 146.062,49.795 145.514,50.344 
	144.964,50.893 144.416,51.99 143.867,52.539 143.318,53.636 142.77,54.185 142.222,55.283 141.672,56.38 141.122,57.478 
	140.574,58.026 140.025,59.125 139.477,60.222 138.928,61.868 138.38,62.966 137.832,64.612 137.282,66.258 136.734,67.905 
	136.184,70.1 135.635,72.295 135.086,76.685 134.537,84.368 133.989,95.344 133.989,118.393 137.832,118.393 137.832,109.612 
	137.832,100.283 138.38,95.344 138.928,92.051 139.477,89.856 140.025,87.661 140.574,86.015 141.122,84.368 141.672,82.722 
	142.222,81.075 142.77,79.978 143.318,78.88 143.867,77.234 144.416,76.136 144.964,75.039 145.514,74.49 146.062,73.393 
	146.612,72.295 147.161,71.197 147.709,70.648 148.258,69.551 148.806,68.454 149.355,67.905 149.903,67.356 150.452,66.258 
	151,65.709 151.551,64.612 152.099,64.063 152.648,63.515 153.197,62.966 153.745,61.868 154.294,61.319 154.843,60.771 
	155.392,60.222 155.939,59.672 156.488,59.125 157.038,58.575 157.587,58.026 158.137,57.478 158.685,56.929 159.233,56.38 
	159.78,55.831 160.33,55.283 160.879,54.734 161.429,54.185 161.978,53.636 162.526,53.087 163.075,52.539 164.172,51.99 
	164.72,51.441 165.269,50.893 165.818,50.344 166.917,49.795 167.465,49.246 168.562,48.698 169.11,48.148 169.659,47.599 
	170.758,47.051 171.856,46.502 172.403,45.953 173.501,45.405 174.05,44.855 175.147,44.307 176.245,43.758 177.343,43.209 
	178.439,42.661 179.538,42.112 180.637,41.563 181.733,41.014 182.831,40.466 184.477,39.917 185.575,39.368 187.221,38.819 
	188.867,38.271 189.964,37.722 192.16,37.173 193.806,36.624 196.002,36.075 197.647,35.526 199.842,34.978 201.489,34.429 
	202.586,33.88 202.586,33.332 202.038,32.782 191.612,32.234 180.637,31.685 170.208,31.136 166.368,30.587 166.368,30.039 
	167.465,29.49 168.562,28.941 169.11,28.393 170.208,27.844 170.758,27.295 171.856,26.746 172.953,26.197 173.501,25.648 
	174.599,25.1 175.697,24.551 176.245,24.002 177.343,23.453 178.439,22.904 178.989,22.355 180.086,21.807 181.185,21.258 
	181.733,20.709 182.831,20.161 183.928,19.612 184.477,19.063 185.575,18.514 186.124,17.965 186.673,17.417 186.673,16.868 
	172.953,16.868 "/>
<path d="M93.395,165.448v-9.5h1.259v3.9h4.937v-3.9h1.259v9.5H99.59v-4.478h-4.937v4.478H93.395L93.395,165.448z M105.053,160.821
	c0-1.579,0.422-2.812,1.27-3.703s1.94-1.34,3.279-1.34c0.878,0,1.67,0.211,2.373,0.629c0.703,0.421,1.241,1.005,1.61,1.754
	s0.552,1.599,0.552,2.549c0,0.965-0.192,1.826-0.581,2.585c-0.39,0.761-0.94,1.336-1.653,1.729
	c-0.714,0.392-1.481,0.586-2.307,0.586c-0.895,0-1.693-0.215-2.396-0.648c-0.706-0.431-1.239-1.021-1.603-1.771
	C105.235,162.446,105.053,161.654,105.053,160.821L105.053,160.821z M106.35,160.841c0,1.146,0.307,2.045,0.922,2.705
	c0.618,0.66,1.389,0.988,2.317,0.988c0.948,0,1.726-0.332,2.337-0.998c0.61-0.665,0.919-1.61,0.919-2.833
	c0-0.771-0.133-1.446-0.396-2.023c-0.262-0.578-0.643-1.024-1.145-1.344c-0.506-0.315-1.069-0.475-1.695-0.475
	c-0.891,0-1.657,0.305-2.298,0.919C106.67,158.39,106.35,159.412,106.35,160.841L106.35,160.841z M120.67,165.448v-8.379h-3.129
	v-1.121h7.528v1.121h-3.144v8.379H120.67L120.67,165.448z M128.88,165.448v-9.5h6.868v1.121h-5.612v2.908h5.256v1.114h-5.256v3.234
	h5.834v1.122H128.88L128.88,165.448z M140.146,165.448v-9.5h1.258v8.378h4.68v1.122H140.146L140.146,165.448z M77.717,148.197
	v-21.655h4.407v17.976h10.96v3.68H77.717L77.717,148.197z M99.159,148.197h4.397v-9.161l8.026-12.672h-5.078L101.473,135
	l-5.14-8.636h-5.17l7.997,12.642V148.197L99.159,148.197z M113.785,126.364h8.729c1.729,0,3.02,0.071,3.868,0.218
	c0.849,0.143,1.606,0.442,2.276,0.899c0.673,0.458,1.226,1.063,1.674,1.826c0.446,0.757,0.671,1.611,0.671,2.551
	c0,1.022-0.273,1.962-0.824,2.817c-0.554,0.853-1.301,1.494-2.241,1.921c1.326,0.386,2.354,1.047,3.065,1.977
	c0.718,0.937,1.072,2.034,1.072,3.295c0,0.991-0.229,1.957-0.691,2.897c-0.462,0.937-1.092,1.688-1.892,2.248
	c-0.797,0.559-1.783,0.905-2.958,1.036c-0.733,0.076-2.506,0.127-5.317,0.147h-7.432V126.364L113.785,126.364z M118.197,129.999
	v5.047h2.888c1.719,0,2.786-0.025,3.202-0.076c0.753-0.086,1.347-0.346,1.779-0.778c0.433-0.432,0.646-1.002,0.646-1.707
	c0-0.676-0.183-1.226-0.554-1.647c-0.376-0.423-0.93-0.677-1.662-0.763c-0.438-0.051-1.692-0.075-3.768-0.075H118.197
	L118.197,129.999z M118.197,138.681v5.837h4.078c1.591,0,2.596-0.042,3.024-0.133c0.654-0.117,1.188-0.412,1.601-0.869
	c0.411-0.463,0.62-1.083,0.62-1.855c0-0.656-0.162-1.211-0.478-1.668c-0.319-0.457-0.778-0.793-1.377-1.001
	c-0.601-0.209-1.907-0.311-3.91-0.311H118.197L118.197,138.681z M135.665,148.197v-21.833h4.407v21.833H135.665L135.665,148.197z
	 M144.26,126.364h8.059c1.815,0,3.197,0.137,4.153,0.416c1.281,0.376,2.378,1.047,3.289,2.013c0.914,0.962,1.611,2.141,2.089,3.533
	c0.473,1.398,0.711,3.116,0.711,5.165c0,1.794-0.223,3.345-0.671,4.646c-0.544,1.586-1.32,2.872-2.337,3.853
	c-0.764,0.748-1.795,1.327-3.096,1.744c-0.972,0.31-2.272,0.463-3.905,0.463h-8.292V126.364L144.26,126.364z M148.669,130.059
	v14.459h3.288c1.229,0,2.119-0.067,2.668-0.209c0.713-0.178,1.308-0.478,1.779-0.905c0.474-0.427,0.854-1.134,1.154-2.11
	c0.296-0.975,0.447-2.312,0.447-4.001c0-1.687-0.151-2.978-0.447-3.882c-0.3-0.906-0.716-1.612-1.25-2.115
	c-0.538-0.51-1.219-0.849-2.043-1.027c-0.616-0.143-1.82-0.209-3.62-0.209H148.669z"/>
</svg>
