<?xml version="1.0" encoding="utf-8"?>
<!DOCTYPE svg PUBLIC "-//W3C//DTD SVG 1.1//EN" "http://www.w3.org/Graphics/SVG/1.1/DTD/svg11.dtd">
<svg version="1.1" id="Layer_1" xmlns="http://www.w3.org/2000/svg" xmlns:xlink="http://www.w3.org/1999/xlink" x="0px" y="0px" width="216px" height="216px" viewBox="0 0 216 216" enable-background="new 0 0 216 216" xml:space="preserve">
<g>
	<path fill="#FFFFFF" fill-opacity="0" d="M0.122,0.122h216v216h-216V0.122z"/>
	<path d="M65.608,157.349v-10.324h5.465v1.513h-3.538v2.615h3.318v1.517h-3.318v4.68H65.608L65.608,157.349z M150.604,157.432
		v-10.324h1.929v10.324H150.604z M175.632,147.054h6.428v1.515h-2.243v8.81h-1.928v-8.81h-2.257V147.054L175.632,147.054z
		 M9.651,157.432v-10.324h1.928v10.324H9.651z M125.023,147.015h1.655v10.325h-2.241l-2.688-7.778v7.778h-1.61v-10.325h2.26
		l2.643,7.861h-0.029L125.023,147.015z M204.666,157.432v-10.324h1.927v10.324H204.666z M94.176,157.432v-10.324h1.928v10.324
		H94.176z M40.176,147.015h1.653v10.325h-2.243l-2.685-7.778v7.778h-1.61v-10.325h2.259l2.641,7.861h-0.027L40.176,147.015
		L40.176,147.015z M108.105,58.813c-41.553,0-75.239,16.983-75.239,37.932c0,16.961,22.087,31.323,52.552,36.175l22.687-54.188
		l22.687,54.187c30.467-4.852,52.551-19.213,52.551-36.174C183.343,75.796,149.659,58.813,108.105,58.813z M142.655,115.782
		l-34.55-40.123l-34.42,40.009c-16.95-4.73-28.122-13.013-28.122-23.195c0-16.15,27.789-31.292,62.476-31.292
		c34.69,0,63.143,15.143,63.143,31.292C171.182,102.734,159.832,111.069,142.655,115.782L142.655,115.782z"/>
</g>

</svg>
