<?xml version="1.0" encoding="utf-8"?>
<!DOCTYPE svg PUBLIC "-//W3C//DTD SVG 1.1//EN" "http://www.w3.org/Graphics/SVG/1.1/DTD/svg11.dtd">
<svg version="1.1" xmlns="http://www.w3.org/2000/svg" xmlns:xlink="http://www.w3.org/1999/xlink" x="0px" y="0px" width="216px" height="216px" viewBox="0 0 216 216" enable-background="new 0 0 216 216" xml:space="preserve">
<g>
	<path fill="#21150B" d="M109.833,214.257c-44.103,0-79.982-35.88-79.982-79.981V2.787h159.963v131.486
		C189.814,178.377,153.936,214.257,109.833,214.257z"/>
	<path fill="#FEDB2E" d="M189.072,3.53v130.744c0,43.763-35.479,79.24-79.239,79.24l0,0c-43.762,0-79.239-35.479-79.239-79.24V3.53
		H189.072 M190.559,2.044h-1.486H30.594h-1.486V3.53v130.744c0,44.514,36.212,80.727,80.725,80.727
		c44.513,0,80.726-36.213,80.726-80.727V3.53V2.044L190.559,2.044z"/>
</g>
<path fill="#FEDB2E" d="M37.757,133.588c0,39.807,32.268,72.075,72.074,72.075l0,0c39.806,0,72.073-32.269,72.073-72.075V88.71
	H37.757V133.588z"/>
<path fill="#FFFFFF" d="M158.48,18.849c-4.084-1.054-9.354-1.187-13.897-0.264c-3.951,0.725-10.341,4.348-12.778,7.113
	c-4.281,4.875-6.916,13.965-6.324,21.937c0.264,3.49,1.926,7.532,8.761,7.772h4.28v-6.785c0-3.688,0.328-8.037,0.726-9.683
	c1.45-6.259,6.125-10.21,12.119-10.145c6.981,0.132,11.526,4.742,12.517,12.844c1.252,9.946-3.754,17.587-11.658,17.785
	c-6.061,0.199-9.354,3.295-8.957,8.366l0.197,2.436l4.611,0.198c9.813,0.461,18.641-2.7,23.119-8.103
	c8.365-10.275,7.772-28.193-1.188-37.216C166.781,21.88,163.686,20.167,158.48,18.849z"/>
<path fill="#FFFFFF" d="M122.254,59.36c-7.574,0-9.484-0.198-10.342-1.054c-0.922-0.855-1.055-3.425-1.055-18.048V23.197
	c0,0-0.039-1.286-1.022-2.276c-1.548-1.556-2.144-2.073-6.762-2.073h-5.388v22.131c0,21.869,0,22.131,1.515,24.373
	c0.791,1.251,2.767,2.898,4.414,3.688c2.767,1.45,3.623,1.516,18.904,1.516h16.008v-3.49
	C138.523,60.414,136.352,59.36,122.254,59.36z"/>
<path fill="#FFFFFF" d="M77.462,38.611l8.167-9.618c4.479-5.334,8.103-9.748,8.103-9.881c0-0.133-3.558-0.264-7.97-0.264h-7.969
	l-7.904,9.354c-4.414,5.205-8.102,9.42-8.233,9.42c-0.133,0-0.198-0.394-0.133-0.856c0.065-0.396,0.065-3.688,0-7.247
	c-0.065-6.258,0.23-6.636-1.615-8.481c-1.778-1.779-2.666-1.86-6.947-1.86h-4.679v25.688v25.754l6.652-0.197l6.652-0.198
	l-0.065-9.156c-0.13-10.012,0.527-12.252,3.491-12.252c2.569,0,4.085,1.844,9.551,11.856l5.204,9.55l7.969,0.198
	c4.349,0.065,7.97-0.065,7.97-0.329c-0.065-0.264-4.15-7.51-9.156-16.006L77.462,38.611z"/>
<path fill="#010101" d="M72.663,117.223c-1.644-1.645-2.829-3.093-2.63-3.156c0.131-0.131,1.119-0.658,2.237-1.187
	c2.369-1.249,2.894-3.224,1.25-4.407c-1.514-1.119-3.223-1.119-4.21,0.066c-0.394,0.527-0.658,1.973-0.526,3.156
	c0.198,1.974,0.065,2.172-2.764,2.961c-1.644,0.459-6.514,1.314-10.855,1.906c-4.343,0.592-8.092,1.186-8.356,1.315
	c-0.329,0.196-0.527,1.382-0.527,2.632c0,1.709,0.592,2.893,2.631,5c1.973,2.104,2.5,2.434,2.171,1.314
	c-0.329-1.448-0.198-1.448,5.789-1.448c10.658,0,11.446,0.921,4.802,5.658c-3.816,2.698-4.539,3.026-5.658,2.302
	c-1.579-0.986-2.369-0.46-1.315,0.79c0.593,0.724,0.395,1.25-0.855,2.435c-2.171,2.039-2.105,3.621,0.329,4.606
	c3.552,1.446,8.092,0.459,15.986-3.485c4.079-2.041,8.356-3.949,9.474-4.146c4.538-0.923,7.5,1.776,9.736,8.948
	c3.158,9.998,11.053,17.104,20.396,18.354c11.184,1.514,22.373-3.919,26.576-14.408c3.531-8.806,1.579-17.105-0.459-21.185
	c-3.619-7.302-10.395-12.367-18.486-13.749c-6.906-1.186-13.09,0.593-19.934,5.658C87.398,124.656,79.768,124.656,72.663,117.223z
	 M56.808,121.764c-1.052,1.25-2.565,1.25-3.028,0c-0.394-0.988,0.724-2.961,1.71-2.961c0.264,0,0.855,0.461,1.315,0.988
	C57.466,120.578,57.466,120.975,56.808,121.764z"/>
<path fill="#010101" d="M129.175,160.182c0,0.264,1.054,1.711,2.302,3.158c4.606,5.461,12.105,8.883,21.186,9.736
	c6.645,0.658,7.564-0.395,1.381-1.448c-7.301-1.185-13.223-3.749-17.17-7.435c-1.909-1.777-3.289-3.289-3.094-3.486
	c0.197-0.197,2.564,0.986,5.265,2.564c6.776,4.015,12.038,5.527,18.685,5.461l5.328-0.066l-6.184-1.249
	c-3.355-0.724-7.896-2.038-10.064-2.896c-4.606-1.842-10.396-5.395-10.396-6.379c0-0.726-0.329-0.856,5.263,1.973
	c2.369,1.186,5.922,2.564,7.896,3.093c4.144,1.118,14.473,1.313,14.473,0.328c0-0.394-1.382-0.658-3.027-0.658
	c-1.645,0-5.065-0.526-7.564-1.118c-5.131-1.186-13.881-5.328-14.277-6.645c-0.197-0.657,0.461-0.527,2.236,0.395
	c4.605,2.37,9.475,3.42,15.33,3.355c7.958-0.064,9.604-0.92,2.697-1.448c-5.658-0.394-15.065-2.958-17.369-4.735
	c-2.104-1.645-0.854-1.709,3.289-0.264c5.132,1.775,11.711,2.303,15.986,1.25c1.844-0.395,3.357-0.986,3.357-1.25
	s-1.777-0.33-3.881-0.197c-4.736,0.328-11.844-0.791-15.789-2.566c-3.749-1.645-3.092-2.301,1.314-1.25
	c5.789,1.382,14.936,0.725,17.172-1.248c0.264-0.198-2.828-0.395-6.908-0.395c-8.485,0-11.578-1.053-14.078-4.869
	c-0.922-1.383-1.578-1.842-1.777-1.315c-0.13,0.526-0.592,2.235-1.051,3.88c-1.053,4.145-3.289,7.697-7.171,11.709
	C130.686,158.077,129.175,159.854,129.175,160.182z"/>
<path fill="#010101" d="M100.885,160.577c-2.698-0.854-8.092-5.856-10.592-9.735c-1.381-2.238-2.829-4.475-3.224-4.938
	c-1.184-1.314-3.551-0.92-6.777,1.252c-6.579,4.342-13.617,14.604-14.606,21.314c-0.394,2.434-0.197,2.301,2.302-2.371
	c3.486-6.513,8.158-12.236,12.106-14.935c1.776-1.119,3.486-2.104,3.881-2.104c0.329,0-1.777,2.5-4.737,5.658
	c-5.855,6.051-9.539,12.498-10.329,18.023c-0.395,2.96-0.395,2.96,2.038-1.973c3.027-6.121,7.172-12.039,11.118-15.66
	c4.736-4.34,6.25-3.551,1.644,0.857c-5.329,5.131-9.014,12.172-10.789,20.723c-0.658,3.158,0.459,1.842,1.973-2.303
	c1.644-4.67,6.448-12.302,9.934-15.787c3.421-3.355,5.065-3.949,2.764-0.92c-6.25,8.287-8.356,12.762-8.815,19.012l-0.329,3.619
	l1.973-5.129c1.119-2.83,2.894-6.711,4.079-8.554c2.171-3.62,5.723-7.698,6.71-7.698c0.329,0-0.066,0.987-0.856,2.105
	c-0.79,1.186-2.5,4.343-3.75,6.973c-1.972,4.016-2.434,5.725-2.63,9.868l-0.198,5.063l1.514-5.262
	c0.855-2.896,2.369-6.974,3.421-9.015c1.973-4.078,5.197-8.354,5.855-7.697c0.198,0.197-0.591,2.563-1.842,5.265
	c-2.829,6.117-3.815,10-3.552,13.748l0.198,2.961l0.856-3.486c2.171-9.277,7.105-17.237,10.658-17.237
	C102.596,162.223,102.596,161.104,100.885,160.577z"/>
</svg>
