<?xml version="1.0" encoding="utf-8"?>
<!DOCTYPE svg PUBLIC "-//W3C//DTD SVG 1.1//EN" "http://www.w3.org/Graphics/SVG/1.1/DTD/svg11.dtd">
<svg version="1.1" id="Layer_1" xmlns="http://www.w3.org/2000/svg" xmlns:xlink="http://www.w3.org/1999/xlink" x="0px" y="0px" width="216px" height="216px" viewBox="1142 404.5 216 216" enable-background="new 1142 404.5 216 216" xml:space="preserve">
<g>
	<path fill="#D2091E" d="M1145.012,469.468L1145,555.486l209.986,0.047l0.014-86.021L1145.012,469.468z"/>
	<path fill="#FFD500" d="M1312.89,523.012l3.523-10.97l3.99,10.979L1312.89,523.012z M1323.92,486.723l-15.319-0.005
		c-5.336,19.59-8.27,30.983-13.994,51.575l14.608,0.018c0.497-1.566,0.996-3.541,1.566-5.543h10.902
		c0.641,2.358,0.861,3.419,1.566,5.548l14.537,0.004C1333.16,520.745,1330.167,509.003,1323.92,486.723z M1189.754,522.076
		c-0.181,1.391-1.165,2.431-2.633,2.751c-0.656,0.106-1.319,0.164-1.983,0.172h-7.045l0.008-6.94l7.006,0.002l0.491,0.001
		c0.556,0,1.181-0.007,1.937,0.283c1.403,0.527,2.309,1.896,2.246,3.394v0.006C1189.775,521.854,1189.766,521.966,1189.754,522.076
		L1189.754,522.076z M1183.902,499.467l0.56,0.017l1.77,0.183c1.652,0.406,2.816,1.666,2.832,3.064v0.008
		c0.005,1.78-1.256,3.283-2.933,3.495l-2.024,0.134l-5.99-0.003l-0.009-6.901L1183.902,499.467z M1200.264,512.509
		c2.892-3.849,4.262-8.905,3.25-13.995c-0.9-4.587-4.258-9.439-9.283-10.746c-2.488-0.644-4.947-0.967-8.906-1.057l-23.112-0.014
		l0.038,51.589l21.94,0.006c4.026-0.13,8.028,0.271,11.195-1.153c5.587-2.522,9.668-6.584,9.767-13.05
		c0.076-4.523-1.491-8.706-4.89-11.581H1200.264z M1280.328,524.682c0.014-12.804,0.017-37.974,0.017-37.974
		c-4.919,0-5.207,0.005-14.958-0.007c-0.012,31.835-0.011,34.595-0.016,51.592c11.396-0.005,25.105,0.006,25.105,0.006
		c-0.007-6.221,0.002-8.452,0.005-13.61l-10.155-0.007H1280.328z M1210.183,486.68c0,0-0.016,36.998-0.017,51.588
		c6.761,0.002,9.966,0,15.135,0.005c0-16.724,0.014-51.586,0.014-51.586c-4.746,0.002-8.181-0.007-15.134-0.007H1210.183z
		 M1248.909,486.719c-4.923-0.003-5.207,0.005-14.957,0c-0.014,31.832-0.012,34.599-0.026,51.586
		c11.395,0.005,25.104,0.007,25.104,0.007c0.012-6.225,0.012-8.439,0.017-13.607l-10.152,0.004L1248.909,486.719z"/>
</g>
</svg>
