<?xml version="1.0" encoding="utf-8"?>
<!DOCTYPE svg PUBLIC "-//W3C//DTD SVG 1.1//EN" "http://www.w3.org/Graphics/SVG/1.1/DTD/svg11.dtd">
<svg version="1.1" id="Layer_1" xmlns="http://www.w3.org/2000/svg" xmlns:xlink="http://www.w3.org/1999/xlink" x="0px" y="0px" width="216px" height="216px" viewBox="0 0 216 216" enable-background="new 0 0 216 216" xml:space="preserve">
<g>
	<path fill="#FFFFFF" d="M0.122,0.122h216v216h-216V0.122z"/>
	<path d="M107.879,141.614c31.311,0,60.465-9.707,76.09-25.331c7.741-7.741,11.833-16.63,11.833-25.709
		c0-9.078-4.091-17.969-11.833-25.709c-15.625-15.625-44.779-25.331-76.09-25.331c-23.249,0-45.144,5.169-61.652,14.554
		c-16.941,9.632-26.271,22.59-26.271,36.486c0,9.079,4.092,17.969,11.833,25.709C47.413,131.907,76.568,141.614,107.879,141.614
		L107.879,141.614z"/>
	<path fill="#FFFFFF" d="M24.83,90.573c0-7.757,3.598-15.456,10.406-22.263c14.744-14.743,42.579-23.902,72.643-23.902
		c30.065,0,57.899,9.159,72.644,23.902c6.806,6.808,10.404,14.506,10.404,22.263c0,25.456-37.255,46.165-83.048,46.165
		c-30.064,0-57.899-9.157-72.643-23.902C28.428,106.029,24.83,98.331,24.83,90.573L24.83,90.573z"/>
	<path d="M76.587,51.901c-0.262-0.76-0.699-0.763-0.971-0.005l-7.298,20.322c-0.272,0.756-1.143,1.488-1.936,1.626l-36.441,6.325
		c-0.793,0.138-0.792,0.357,0.001,0.488L66.38,86.68c0.793,0.131,1.67,0.856,1.95,1.611l7.272,19.681
		c0.279,0.753,0.728,0.751,0.998-0.006l6.983-19.668c0.269-0.758,1.138-1.487,1.932-1.621l35.789-6.015
		c0.794-0.134,0.794-0.356,0.002-0.497l-35.792-6.317c-0.792-0.14-1.655-0.876-1.916-1.636L76.587,51.901L76.587,51.901z
		 M124.05,83.303c-0.116-0.338-0.311-0.339-0.431-0.003l-3.248,9.042c-0.12,0.336-0.508,0.663-0.86,0.724l-16.214,2.814
		c-0.353,0.062-0.352,0.159,0,0.217l16.213,2.679c0.352,0.058,0.741,0.381,0.866,0.717l3.235,8.755
		c0.124,0.337,0.323,0.335,0.443-0.002l3.107-8.751c0.117-0.337,0.505-0.661,0.858-0.722l15.925-2.676
		c0.352-0.06,0.352-0.159,0-0.221l-15.925-2.811c-0.352-0.063-0.735-0.39-0.854-0.728L124.05,83.303L124.05,83.303z M167.924,83.303
		c-0.117-0.338-0.311-0.339-0.432-0.003l-3.248,9.042c-0.119,0.336-0.507,0.663-0.86,0.724L147.17,95.88
		c-0.352,0.062-0.352,0.159,0,0.217l16.212,2.679c0.354,0.058,0.744,0.381,0.868,0.717l3.235,8.755
		c0.124,0.337,0.323,0.335,0.443-0.002l3.105-8.751c0.12-0.337,0.508-0.661,0.86-0.722l15.923-2.676
		c0.354-0.06,0.354-0.159,0.002-0.221l-15.925-2.811c-0.352-0.063-0.737-0.39-0.854-0.728L167.924,83.303L167.924,83.303z
		 M155.006,57.467c-0.116-0.338-0.31-0.339-0.431-0.002l-3.248,9.041c-0.119,0.336-0.507,0.662-0.862,0.724l-16.214,2.815
		c-0.352,0.061-0.352,0.159,0.002,0.216l16.212,2.681c0.352,0.058,0.744,0.381,0.866,0.716l3.237,8.756
		c0.124,0.336,0.323,0.334,0.442-0.002l3.107-8.75c0.12-0.337,0.505-0.661,0.86-0.722l15.923-2.676
		c0.352-0.06,0.352-0.159,0.002-0.221l-15.927-2.811c-0.352-0.063-0.735-0.39-0.852-0.729L155.006,57.467L155.006,57.467z
		 M139.285,103.454c-0.116-0.338-0.31-0.339-0.431-0.002l-3.248,9.041c-0.12,0.338-0.507,0.663-0.86,0.724l-16.214,2.815
		c-0.352,0.062-0.352,0.158,0,0.216l16.212,2.68c0.354,0.06,0.744,0.381,0.868,0.719l3.235,8.754
		c0.124,0.337,0.323,0.335,0.443-0.003l3.107-8.75c0.118-0.338,0.506-0.661,0.858-0.723l15.925-2.675
		c0.352-0.06,0.352-0.161,0-0.221l-15.925-2.811c-0.352-0.064-0.737-0.391-0.854-0.729L139.285,103.454L139.285,103.454z
		 M94.06,107.443c-0.116-0.338-0.312-0.339-0.432-0.002l-3.248,9.041c-0.121,0.338-0.509,0.664-0.861,0.724l-16.214,2.813
		c-0.352,0.062-0.352,0.16,0.001,0.218l16.211,2.68c0.353,0.058,0.744,0.381,0.867,0.716l3.236,8.757
		c0.124,0.335,0.324,0.335,0.444-0.003l3.106-8.75c0.12-0.34,0.506-0.664,0.859-0.723l15.923-2.678
		c0.352-0.06,0.354-0.157,0.002-0.221l-15.926-2.811c-0.352-0.062-0.736-0.39-0.853-0.726L94.06,107.443L94.06,107.443z
		 M21.437,170.668h6.708c0.03,2.328,0.967,2.508,2.901,2.508h8.22c1.421,0,2.871-0.149,2.871-1.844c0-1.903-0.785-2.024-9.428-2.024
		c-10.095,0-11.243-1.208-11.243-6.588c0-3.959,0.363-7.013,8.825-7.013h9.369c7.737,0,8.461,2.631,8.461,6.467v0.695h-6.709
		c0-1.602-0.181-2.267-3.264-2.267h-7.434c-1.511,0-2.539,0.515-2.539,1.692c0,1.903,0.817,1.965,8.009,1.935
		c10.427-0.03,12.844,0.604,12.844,6.981c0,5.895-1.995,6.861-10.91,6.861h-8.13c-6.105,0-8.552-1.148-8.552-5.895v-1.51H21.437
		L21.437,170.668z M50.425,155.952h6.709v12.633c0,2.778,0.997,3.867,3.747,3.867h6.65c2.75,0,3.747-1.089,3.747-3.867v-12.633
		h6.709v14.081c0,5.44-2.811,8.042-8.976,8.042h-9.61c-6.166,0-8.976-2.601-8.976-8.042V155.952z M79.286,155.952h19.311
		c5.35,0,7.948,1.449,7.948,5.74c0,3.75-1.359,4.474-3.234,5.018v0.092c2.931,0.363,4.02,1.936,4.02,5.229
		c0,4.804-2.842,5.803-6.68,5.803H79.286V155.952z"/>
	<path fill="#FFFFFF" d="M85.995,172.572h12.028c1.45,0,2.417-0.332,2.417-1.6c0-1.481-0.967-1.814-2.417-1.814H85.995V172.572z
		 M85.995,164.625h11.877c1.239,0,1.964-0.452,1.964-1.694c0-1.267-0.725-1.722-1.964-1.722H85.995V164.625z"/>
	<path d="M118.092,155.952h8.733l12.029,21.88h-7.466l-2.084-3.867h-13.6l-1.966,3.867h-7.494L118.092,155.952L118.092,155.952z"/>
	<path fill="#FFFFFF" d="M118.213,169.248h8.581l-4.351-8.219L118.213,169.248L118.213,169.248z"/>
	<path d="M139.881,155.952h20.246c5.17,0,6.561,2.567,6.561,6.498v1.39c0,2.931-0.666,4.652-3.75,5.38v0.06
		c1.996,0.363,3.658,1.238,3.658,4.837v3.716h-6.708v-2.629c0-2.299-0.666-3.054-2.751-3.054H146.59v5.681h-6.708L139.881,155.952
		L139.881,155.952L139.881,155.952z"/>
	<path fill="#FFFFFF" d="M146.589,166.709h11.091c1.813,0,2.478-0.725,2.478-2.297v-0.724c0-1.935-0.967-2.298-3.081-2.298h-10.487
		V166.709L146.589,166.709z"/>
	<path d="M167.987,155.952h6.71v12.633c0,2.778,0.996,3.867,3.747,3.867h6.649c2.749,0,3.748-1.089,3.748-3.867v-12.633h6.71v14.081
		c0,5.44-2.813,8.042-8.979,8.042h-9.61c-6.165,0-8.976-2.601-8.976-8.042V155.952L167.987,155.952z M204.636,173.728
		c0.009,2.249-1.808,4.078-4.057,4.086c-0.01,0-0.019,0-0.028,0c-2.255,0.015-4.094-1.802-4.108-4.057c0-0.01,0-0.02,0-0.029
		c0.006-2.262,1.846-4.092,4.108-4.085l0,0c2.255-0.002,4.084,1.826,4.085,4.081C204.636,173.725,204.636,173.727,204.636,173.728z"
		/>
	<path fill="#FFFFFF" d="M197.106,173.706c-0.012,1.901,1.521,3.452,3.423,3.464c0.007,0.001,0.014,0.001,0.02,0.001
		c1.897,0,3.422-1.544,3.422-3.465c-0.002-1.889-1.533-3.42-3.422-3.422C198.655,170.281,197.115,171.812,197.106,173.706z"/>
	<path d="M202.588,176.024h-0.719l-1.309-2.005h-0.891v2.005h-0.644v-4.581h1.996c0.824,0,1.63,0.225,1.63,1.212
		c0,0.902-0.612,1.276-1.426,1.298L202.588,176.024L202.588,176.024z"/>
	<path fill="#FFFFFF" d="M199.67,173.469h1.201c0.921,0,1.139-0.374,1.139-0.824c0-0.6-0.635-0.654-1.116-0.654h-1.224V173.469
		L199.67,173.469z"/>
</g>

</svg>
