<?xml version="1.0" encoding="utf-8"?>
<!DOCTYPE svg PUBLIC "-//W3C//DTD SVG 1.1//EN" "http://www.w3.org/Graphics/SVG/1.1/DTD/svg11.dtd">
<svg version="1.1" xmlns="http://www.w3.org/2000/svg" xmlns:xlink="http://www.w3.org/1999/xlink" x="0px" y="0px" width="216px" height="216px" viewBox="0 0 216 216" enable-background="new 0 0 216 216" xml:space="preserve">
<g>
	<path fill-rule="evenodd" clip-rule="evenodd" fill="#FFFFFF" d="M82.789,32.158c-0.268-1.517-0.408-3.077-0.408-4.67
		c0-14.744,11.957-26.701,26.701-26.701c14.743,0,26.7,11.957,26.7,26.701c0,1.543-0.132,3.056-0.384,4.529
		c39.349,11.31,68.146,47.575,68.146,90.557c0,52.024-42.189,94.214-94.214,94.214s-94.214-42.189-94.214-94.214
		C15.117,79.766,43.684,43.623,82.789,32.158z"/>
	<path fill-rule="evenodd" clip-rule="evenodd" fill="#00A651" d="M109.082,46.877c-10.707,0-19.39-8.683-19.39-19.39
		c0-10.707,8.683-19.39,19.39-19.39s19.39,8.683,19.39,19.39C128.472,38.194,119.789,46.877,109.082,46.877L109.082,46.877z
		 M104.757,140.539h11.677v14.659h14.658v11.677h-14.658v14.658h-11.677v-14.658H90.099v-11.677h14.659V140.539L104.757,140.539z
		 M134.095,31.656L134.095,31.656c0.226-1.356,0.343-2.749,0.343-4.168c0-14.001-11.354-25.356-25.355-25.356
		S83.726,13.486,83.726,27.488c0,1.465,0.125,2.901,0.363,4.298l0.001,0c0.081,0.477,0.176,0.949,0.283,1.416l0.007,0.033
		l0.007,0.032l0.008,0.033l0.008,0.032l0.015,0.065l0.008,0.032l0.008,0.033l0.008,0.032l0.008,0.032l0.007,0.028l0.001,0.004
		l0.008,0.032l0.008,0.033l0.009,0.032l0.007,0.033l0.008,0.032l0.007,0.028l0.001,0.005c0.542,2.13,1.354,4.152,2.396,6.028
		c0.201,0.361,0.41,0.717,0.627,1.066l0.019,0.03c0.212,0.34,0.432,0.675,0.66,1.005l0.031,0.044
		c0.228,0.329,0.463,0.651,0.706,0.968l0.021,0.028c0.239,0.311,0.485,0.616,0.739,0.916l0.057,0.067
		c0.254,0.299,0.516,0.592,0.783,0.878l0.032,0.035c0.271,0.289,0.549,0.571,0.833,0.849l0.04,0.038
		c0.087,0.084,0.176,0.168,0.264,0.252l0.097,0.09c0.158,0.146,0.317,0.292,0.478,0.434l0.081,0.072
		c0.083,0.073,0.167,0.146,0.252,0.218l0.138,0.116c0.146,0.123,0.292,0.244,0.441,0.363l0.125,0.102
		c0.083,0.065,0.167,0.131,0.25,0.195l0.16,0.123c0.106,0.081,0.213,0.161,0.32,0.24l0.261,0.19l0.228,0.162l0.214,0.148
		l0.217,0.148l0.007,0.005c0.115,0.078,0.231,0.154,0.348,0.229l0.013,0.008l0.229,0.145l0.22,0.137l0.215,0.132
		c0.132,0.08,0.265,0.158,0.398,0.235l0.205,0.117l0.253,0.141l0.22,0.121c0.113,0.061,0.227,0.121,0.34,0.179l0.27,0.138
		l0.279,0.138l0.208,0.102c0.118,0.056,0.235,0.111,0.354,0.165l0.244,0.11c0.112,0.05,0.225,0.099,0.338,0.148l0.188,0.079
		c0.129,0.055,0.261,0.108,0.391,0.161l0.154,0.061c0.144,0.056,0.289,0.111,0.434,0.165l0.173,0.063
		c0.13,0.047,0.261,0.093,0.391,0.138l0.129,0.045c0.163,0.055,0.326,0.108,0.491,0.159l0.167,0.052
		c0.144,0.044,0.289,0.087,0.435,0.129l0.095,0.028c0.175,0.05,0.352,0.098,0.529,0.143l0.143,0.037
		c0.141,0.036,0.282,0.07,0.424,0.104l0.134,0.032c0.172,0.04,0.347,0.078,0.521,0.114l0.163,0.032c0.14,0.028,0.28,0.055,0.42,0.08
		l0.143,0.026c0.183,0.032,0.366,0.063,0.55,0.091l0.106,0.016c0.154,0.023,0.31,0.045,0.465,0.065l0.141,0.019
		c0.188,0.023,0.378,0.045,0.566,0.065l0.083,0.007c0.161,0.016,0.322,0.031,0.483,0.043l0.163,0.013
		c0.186,0.013,0.371,0.026,0.558,0.035l0.089,0.004c0.166,0.008,0.333,0.015,0.5,0.02l0.155,0.003
		c0.193,0.004,0.386,0.008,0.58,0.008c0.193,0,0.386-0.003,0.578-0.008l0.164-0.004c0.164-0.005,0.328-0.011,0.492-0.019
		l0.089-0.003c0.185-0.01,0.368-0.021,0.552-0.035l0.173-0.013c0.16-0.013,0.318-0.027,0.478-0.043l0.09-0.009
		c0.189-0.019,0.379-0.041,0.566-0.064l0.127-0.017c0.162-0.021,0.323-0.044,0.483-0.068l0.102-0.015
		c0.184-0.028,0.367-0.059,0.549-0.091l0.14-0.025c0.146-0.027,0.291-0.054,0.436-0.083l0.148-0.029
		c0.177-0.037,0.353-0.075,0.528-0.116l0.117-0.028c0.147-0.035,0.296-0.071,0.443-0.108l0.139-0.036
		c0.181-0.046,0.359-0.095,0.538-0.145l0.045-0.013c0.162-0.046,0.323-0.095,0.484-0.144l0.16-0.05
		c0.154-0.049,0.308-0.099,0.462-0.15l0.048-0.016l0.008-0.002l0.013-0.005c0.165-0.056,0.329-0.114,0.492-0.174l0.156-0.057
		c0.133-0.049,0.265-0.1,0.396-0.15l0.132-0.052c0.158-0.063,0.315-0.127,0.472-0.193l0.171-0.073
		c0.113-0.048,0.225-0.098,0.338-0.147l0.174-0.078c0.154-0.069,0.307-0.141,0.457-0.213l0.152-0.074
		c0.113-0.056,0.228-0.112,0.34-0.169l0.164-0.083c0.146-0.075,0.291-0.152,0.435-0.229l0.188-0.103l0.276-0.155l0.203-0.116
		c0.139-0.08,0.276-0.161,0.413-0.244l0.159-0.098l0.281-0.176l0.203-0.13c0.116-0.075,0.23-0.15,0.345-0.227l0.185-0.125
		c0.1-0.069,0.199-0.138,0.299-0.208l0.188-0.135l0.263-0.191l0.273-0.205l0.254-0.194l0.206-0.163l0.212-0.17
		c0.09-0.073,0.181-0.148,0.271-0.223c0.09-0.076,0.181-0.152,0.271-0.229l0.177-0.155l0.223-0.197l0.187-0.168
		c0.108-0.099,0.215-0.198,0.321-0.298l0.198-0.19l0.168-0.165l0.205-0.204l0.01-0.009c0.098-0.099,0.194-0.198,0.291-0.298
		l0.001-0.001l0.188-0.2l0.162-0.174l0.192-0.211c0.075-0.083,0.148-0.166,0.222-0.25l0.233-0.271l0.169-0.199l0.175-0.211
		l0.157-0.195c0.099-0.125,0.198-0.25,0.296-0.377l0.138-0.179l0.171-0.229l0.14-0.191c0.09-0.124,0.178-0.249,0.266-0.375
		l0.147-0.211l0.158-0.236l0.122-0.184c0.086-0.134,0.173-0.267,0.257-0.402l0.134-0.214l0.148-0.245l0.114-0.194l0.149-0.256
		c0.069-0.121,0.138-0.243,0.204-0.366c1.012-1.843,1.8-3.825,2.33-5.909l0.009-0.033l0.009-0.032l0.002-0.008l0.005-0.025
		l0.017-0.064l0.008-0.033C133.858,32.936,133.988,32.3,134.095,31.656L134.095,31.656z M135.398,32.025
		c0.253-1.475,0.384-2.991,0.384-4.538c0-14.744-11.957-26.701-26.7-26.701c-14.744,0-26.701,11.957-26.701,26.701
		c0,1.594,0.14,3.156,0.408,4.673c-39.104,11.465-67.672,47.605-67.672,90.412c0,52.024,42.189,94.214,94.214,94.214
		s94.214-42.189,94.214-94.214C203.545,79.593,174.745,43.336,135.398,32.025L135.398,32.025z M83.248,34.257
		c-38.141,11.251-65.989,46.535-65.989,88.316c0,50.842,41.231,92.073,92.073,92.073s92.073-41.231,92.073-92.073
		c0-41.951-28.075-77.349-66.454-88.449c-0.532,2.077-1.308,4.057-2.294,5.907c36.023,10.164,62.437,43.271,62.437,82.542
		c0,3.692-0.234,7.329-0.688,10.898c-0.514-7.731-5.395-14.271-12.199-17.172c-9.488-31.122-38.423-53.773-72.645-53.773
		c-14.893,0-28.785,4.292-40.509,11.704c-3.923-3.276-8.973-5.248-14.482-5.248c-12.487,0-22.613,10.126-22.613,22.613
		c0,6.8,3.002,12.898,7.754,17.044c-3.917,9.158-6.09,19.239-6.09,29.828c0,15.907,4.896,30.671,13.261,42.874
		c-14.452-15.352-23.313-36.026-23.313-58.769c0-39.114,26.202-72.112,62.005-82.417C84.577,38.31,83.79,36.332,83.248,34.257
		L83.248,34.257z M121.065,150.567v-14.659h-20.939v14.659H85.468v20.939h14.658v14.658h20.939v-14.658h14.659v-20.939H121.065
		L121.065,150.567z M119.703,151.93v-14.658h-18.215v14.658H86.83v18.215h14.659v14.658h18.215v-14.658h14.659V151.93H119.703z"/>
	<path fill-rule="evenodd" clip-rule="evenodd" fill="#F58220" d="M174.323,147.496c-6.997,0-12.672-5.674-12.672-12.67
		c0-6.998,5.675-12.672,12.672-12.672s12.671,5.674,12.671,12.672C186.994,141.822,181.32,147.496,174.323,147.496L174.323,147.496z
		 M126.248,106.999c-18.553,0-34.641,10.57-42.572,26.015c6.95-7.59,16.939-12.35,28.038-12.35c20.99,0,38.013,17.022,38.013,38.013
		c0,20.989-17.022,38.013-38.013,38.013c-4.042,0-7.937-0.634-11.592-1.803c7.511,4.908,16.485,7.766,26.126,7.766
		c26.409,0,47.827-21.418,47.827-47.827l-0.002-0.127c-10.86-0.134-19.626-8.981-19.626-19.872c0-5.376,2.136-10.252,5.604-13.83
		C151.396,112.348,139.445,106.999,126.248,106.999L126.248,106.999z M109.562,71.302c-13.072,0-25.271,3.741-35.592,10.204
		c1.574,3.019,2.464,6.45,2.464,10.089c0,12.073-9.791,21.864-21.863,21.864c-2.412,0-4.733-0.393-6.903-1.113
		c-3.395,8.029-5.271,16.857-5.271,26.122c0,35.72,27.9,64.932,63.092,67.039c-20.364-8.071-34.769-27.946-34.769-51.179
		c0-30.387,24.644-55.031,55.031-55.031c15.876,0,30.181,6.729,40.227,17.486l0.016-0.006c2.046-0.961,4.172-1.533,6.527-1.745
		C163.008,89.497,138.406,71.302,109.562,71.302L109.562,71.302z M54.571,108.241c-9.192,0-16.646-7.454-16.646-16.646
		s7.455-16.646,16.646-16.646c9.191,0,16.646,7.454,16.646,16.646S63.762,108.241,54.571,108.241z"/>
</g>
</svg>
