<?xml version="1.0" encoding="utf-8"?>
<!DOCTYPE svg PUBLIC "-//W3C//DTD SVG 1.1//EN" "http://www.w3.org/Graphics/SVG/1.1/DTD/svg11.dtd">
<svg version="1.1" id="Layer_1" xmlns="http://www.w3.org/2000/svg" xmlns:xlink="http://www.w3.org/1999/xlink" x="0px" y="0px" width="216px" height="216px" viewBox="0 0 216 216" enable-background="new 0 0 216 216" xml:space="preserve">
<g>
	<path fill="#B01842" d="M65.948,113.442c-14.636,4.07-28.743,10.32-42.667,19.058c-0.15,0.098-0.191,0.298-0.094,0.446
		c0,0,0,0.001,0.001,0.001c0.093,0.149,0.307,0.183,0.457,0.086c12.261-6.186,26.833-11.262,42.304-14.737V113.442"/>
	<path fill="#1A3B73" d="M129.99,132.774h6.011l-22.573-50.452h-1.51l-21.689,50.48h3.848l17.192-44.057L129.99,132.774
		 M72.214,104.229v16.84h-5.023v-16.101L53.246,83.36h5.487l11.575,19.699L82.295,83.36h3.731L72.214,104.229 M27.5,121.069v-19
		H5.923v19H0.998V83.332h4.925v16.186H27.5V83.332h4.93v37.737H27.5 M171.381,85.867v-2.539h-30.074v2.539h12.589v35.19h4.962
		v-35.19H171.381 M214.998,85.867v-2.539h-27.625v2.539h11.362v35.19h4.962v-35.19H214.998"/>
	<path fill="#B01842" d="M160.112,119.334c12.965,3.387,25.009,7.965,35.579,13.303c0.143,0.096,0.339,0.059,0.436-0.085
		c0.093-0.139,0.054-0.327-0.087-0.42c-0.002-0.001-0.004-0.003-0.007-0.004c-11.926-7.481-23.683-13.21-35.921-17.261V119.334
		 M128.896,113.854c7.989,0.739,15.924,1.972,23.761,3.69v-4.917c-8.629-2.316-17.451-3.841-26.356-4.555L128.896,113.854
		 M99.576,107.867c-8.939,0.565-17.627,1.776-26.118,3.686v5.186c7.82-1.474,15.716-2.514,23.651-3.118L99.576,107.867
		 M103.036,113.262c2.936-0.134,5.858-0.202,8.77-0.202c2.846,0,5.684,0.068,8.502,0.202l-2.357-5.669
		c-2.061-0.072-4.121-0.107-6.182-0.105c-2.184,0-4.348,0.036-6.5,0.105L103.036,113.262"/>
</g>

</svg>
