<?xml version="1.0" encoding="utf-8"?>
<!DOCTYPE svg PUBLIC "-//W3C//DTD SVG 1.1//EN" "http://www.w3.org/Graphics/SVG/1.1/DTD/svg11.dtd">
<svg version="1.1" xmlns="http://www.w3.org/2000/svg" xmlns:xlink="http://www.w3.org/1999/xlink" x="0px" y="0px" width="216px" height="216px" viewBox="0 0 216 216" enable-background="new 0 0 216 216" xml:space="preserve">
<g>
	<rect x="1.453" y="1.521" fill-rule="evenodd" clip-rule="evenodd" fill="#FCB430" width="213" height="213"/>
	<path fill-rule="evenodd" clip-rule="evenodd" fill="#1F5BAA" d="M109.798,60.336l6.771-11.907c0.57-0.947,1.714-1.99,3.002-2.646
		c3.724-2.149,8.45-0.933,10.6,2.791c2.149,3.722,0.874,8.484-2.849,10.633c-1.37,0.869-2.932,1.064-4.57,0.991L109.798,60.336
		L109.798,60.336z M107.047,58.708l6.358-11.286c0.885-1.382,1.495-2.833,1.428-4.453c0-4.298-3.486-7.784-7.786-7.784
		c-4.298,0-7.716,3.486-7.716,7.784c-0.077,1.444,0.255,2.955,0.791,3.923L107.047,58.708L107.047,58.708z M104.263,60.277
		l-13.696,0.09c-1.106-0.021-2.581-0.489-3.792-1.277c-3.723-2.149-5.033-6.852-2.884-10.575c2.149-3.722,6.912-4.998,10.634-2.849
		c1.437,0.751,2.387,2.006,3.143,3.462L104.263,60.277L104.263,60.277z M109.798,63.771l6.771,11.906
		c0.57,0.948,1.714,1.99,3.002,2.646c3.722,2.149,8.45,0.932,10.6-2.791c2.149-3.723,0.874-8.485-2.849-10.634
		c-1.37-0.869-2.932-1.065-4.57-0.991L109.798,63.771L109.798,63.771z M107.047,65.398l6.358,11.286
		c0.885,1.382,1.495,2.833,1.428,4.453c0,4.299-3.486,7.785-7.786,7.785c-4.298,0-7.716-3.486-7.716-7.785
		c-0.077-1.443,0.255-2.955,0.791-3.922L107.047,65.398L107.047,65.398z M104.263,63.83l-13.696-0.09
		c-1.106,0.021-2.581,0.489-3.792,1.277c-3.723,2.149-5.033,6.853-2.884,10.575c2.149,3.723,6.912,4.999,10.634,2.849
		c1.437-0.751,2.387-2.006,3.143-3.462L104.263,63.83L104.263,63.83z M53.624,104.505c-2.353-2.476-6.76-3.733-10.183-3.728
		c-1.715,0.003-3.32,0.327-4.818,0.953c-1.497,0.635-2.821,1.515-3.964,2.649c-1.143,1.143-2.041,2.486-2.694,4.02
		c-0.645,1.542-0.979,3.23-0.989,5.062c0,7.384,5.279,12.471,13.173,12.301c4.116-0.087,7.536-1.635,9.705-4.133l-3.493-3.451
		c-1.534,1.365-3.925,2.854-6.071,2.842c-4.647-0.024-7.59-2.929-7.607-7.619c-0.017-4.451,2.967-7.589,6.992-7.688
		c2.393-0.059,4.621,1.215,6.327,2.805L53.624,104.505L53.624,104.505z M62.318,125.433h5.651v-24.056h-5.651V125.433
		L62.318,125.433z M81.458,115.435H91.91v10.111h5.587v-24.169H91.91v9.43H81.458v-9.43h-5.625v24.169h5.625V115.435L81.458,115.435
		z M123.524,118.351c-1.808,2.234-4.439,2.866-7.28,2.86c-4.096-0.006-6.729-1.516-6.66-5.741l17.435,0.151
		c0.048-0.826-0.198-2.794-0.287-3.765c-0.577-6.234-3.833-10.75-10.379-10.772c-6.92-0.023-12.5,5.158-12.517,12.292
		c-0.017,7.138,4.855,12.778,12.511,12.847c3.205,0.028,8.313-1.398,10.373-4.059L123.524,118.351L123.524,118.351z M109.65,111.172
		c0.755-3.078,2.621-5.041,5.799-5.041c3.039,0,5.143,2.038,5.626,5.08L109.65,111.172L109.65,111.172z M132.098,101.269v24.316
		h10.787c0.676,0.009,1.446-0.027,2.323-0.093c0.864-0.075,1.748-0.231,2.644-0.483c0.904-0.25,1.732-0.64,2.502-1.167
		c0.762-0.53,1.38-1.242,1.855-2.142c0.466-0.901,0.712-2.032,0.722-3.405c-0.01-1.113-0.256-2.105-0.741-2.959
		c-0.476-0.853-1.133-1.558-1.959-2.095c-0.838-0.538-1.779-0.899-2.835-1.067c0.256-0.093,0.599-0.25,1.036-0.472
		c0.428-0.224,0.875-0.521,1.323-0.899c0.456-0.372,0.836-0.844,1.149-1.41c0.314-0.557,0.477-1.225,0.486-2.003
		c0.009-0.473-0.049-0.983-0.162-1.53c-0.123-0.557-0.353-1.094-0.705-1.632c-0.341-0.538-0.855-1.029-1.521-1.474
		c-0.674-0.445-1.561-0.807-2.664-1.076c-1.094-0.26-2.453-0.398-4.081-0.408H132.098L132.098,101.269z M137.236,110.895v-5.285
		h4.45c0.438-0.01,0.903,0.009,1.389,0.055c0.495,0.046,0.962,0.148,1.398,0.306c0.438,0.157,0.79,0.417,1.065,0.76
		c0.277,0.353,0.42,0.834,0.43,1.437c-0.01,0.789-0.229,1.373-0.657,1.771c-0.418,0.39-0.961,0.649-1.618,0.78
		c-0.656,0.129-1.34,0.185-2.064,0.175H137.236L137.236,110.895z M137.236,121.243v-6.009h5.137c0.437-0.008,0.951,0.01,1.521,0.056
		c0.579,0.039,1.142,0.148,1.692,0.335c0.543,0.176,1,0.473,1.36,0.881c0.361,0.398,0.553,0.965,0.563,1.679
		c-0.01,0.806-0.239,1.438-0.687,1.882c-0.456,0.445-1.074,0.751-1.854,0.929c-0.789,0.175-1.693,0.258-2.712,0.248H137.236
		L137.236,121.243z M157.55,113.297c0,1.107,0.171,2.251,0.514,3.413c0.333,1.159,0.848,2.276,1.525,3.347
		c0.686,1.079,1.535,2.04,2.546,2.902c1.021,0.854,2.204,1.533,3.558,2.032c1.354,0.499,2.872,0.763,4.561,0.771
		c1.784-0.008,3.446-0.325,4.981-0.951s2.881-1.497,4.036-2.631c1.15-1.125,2.05-2.44,2.702-3.946
		c0.642-1.516,0.977-3.157,0.984-4.937c-0.008-1.805-0.343-3.465-0.993-4.989c-0.651-1.515-1.561-2.839-2.718-3.964
		c-1.158-1.125-2.504-1.996-4.037-2.622c-1.527-0.617-3.182-0.935-4.956-0.944c-1.688,0.009-3.206,0.263-4.561,0.771
		c-1.354,0.499-2.536,1.179-3.558,2.032c-1.011,0.862-1.86,1.833-2.546,2.912c-0.678,1.08-1.192,2.204-1.525,3.366
		C157.721,111.03,157.55,112.172,157.55,113.297L157.55,113.297z M163.638,113.295c0.006-1.017,0.177-1.977,0.523-2.87
		c0.339-0.901,0.813-1.688,1.426-2.384c0.612-0.689,1.313-1.23,2.126-1.624c0.805-0.393,1.676-0.59,2.613-0.599
		c0.925,0.008,1.795,0.206,2.601,0.591c0.805,0.393,1.514,0.926,2.126,1.614c0.614,0.689,1.094,1.484,1.44,2.379
		c0.341,0.901,0.519,1.868,0.524,2.893c-0.006,1.017-0.184,1.969-0.524,2.86c-0.347,0.896-0.826,1.681-1.44,2.37
		c-0.612,0.681-1.321,1.212-2.126,1.606c-0.806,0.386-1.676,0.582-2.601,0.59c-0.943-0.008-1.823-0.204-2.635-0.598
		c-0.805-0.395-1.514-0.936-2.12-1.623c-0.604-0.689-1.079-1.476-1.418-2.361C163.814,115.246,163.644,114.295,163.638,113.295
		L163.638,113.295z M50.315,151.453c-2.382-1.381-6.188-2.565-9.081-2.551c-3.714,0.02-9.598,2.19-9.556,7.013
		c0.04,4.582,2.217,5.967,7.334,7.419c2.016,0.572,5.956,1.44,5.971,3.639c0.016,2.024-3.294,2.066-4.694,2.057
		c-2.427-0.018-4.439-1.167-5.671-2.506l-3.785,3.863c2.462,2.433,6.011,3.567,9.389,3.577c4.493,0.012,10.655-1.913,10.653-6.773
		c-0.001-4.34-2.15-6.356-5.237-7.435c-3.731-1.304-7.839-1.553-7.854-3.7c-0.015-2.104,2.268-2.066,3.792-2.144
		c1.815-0.093,4.565,0.973,6.136,1.755L50.315,151.453L50.315,151.453z M52.412,149.643h6.565l6.558,15.601l6.124-15.601h6.153
		l-12.679,30.344c-0.687,1.643-2.614,2.783-4.354,3.126c-2.745,0.539-5.942-0.432-7.107-1.606l2.582-4.202
		c1.649,1.816,3.335,1.165,4.53-0.297c0.692-0.848,1.61-3.08,1.981-4.399L52.412,149.643L52.412,149.643z M81.328,172.906h5.33
		l0.082-12.093c0.023-3.496,1.28-6.43,5.002-6.474c3.468-0.041,4.953,1.837,5.031,4.984l0.341,13.582h5.56l-0.264-14.222
		c-0.105-5.698-3.195-9.444-8.704-9.43c-2.761,0.008-5.153,0.604-6.542,2.957c-1.155,1.958-0.813,2.309-0.813-0.345l-0.139-2.23
		h-5.024L81.328,172.906L81.328,172.906z M144.01,166.529l-5.961-16.875l-6.777,0.151l9.844,23.307l6.09-0.206l9.78-23.172
		l-6.495,0.012L144.01,166.529L144.01,166.529z M126.892,166.09c-1.809,2.236-4.439,2.868-7.28,2.862
		c-4.097-0.006-6.729-1.516-6.66-5.741l17.434,0.152c0.049-0.826-0.198-2.795-0.288-3.766c-0.576-6.234-3.831-10.751-10.378-10.771
		c-6.92-0.023-12.5,5.157-12.516,12.291c-0.017,7.138,4.855,12.777,12.51,12.847c3.205,0.026,8.313-1.4,10.374-4.059L126.892,166.09
		L126.892,166.09z M113.017,158.914c0.755-3.078,2.621-5.04,5.799-5.04c3.04,0,5.143,2.037,5.626,5.076L113.017,158.914
		L113.017,158.914z M157.55,161.345c0,1.107,0.171,2.251,0.514,3.411c0.333,1.161,0.848,2.278,1.525,3.347
		c0.686,1.081,1.535,2.042,2.546,2.905c1.021,0.853,2.204,1.532,3.558,2.031c1.354,0.499,2.872,0.763,4.561,0.771
		c1.784-0.008,3.446-0.325,4.981-0.951s2.881-1.499,4.036-2.631c1.15-1.125,2.05-2.44,2.702-3.946
		c0.642-1.516,0.977-3.157,0.984-4.937c-0.008-1.805-0.343-3.465-0.993-4.988c-0.651-1.516-1.561-2.841-2.718-3.966
		c-1.158-1.125-2.504-1.995-4.037-2.621c-1.527-0.616-3.182-0.935-4.956-0.943c-1.688,0.009-3.206,0.264-4.561,0.77
		c-1.354,0.501-2.536,1.181-3.558,2.034c-1.011,0.861-1.86,1.832-2.546,2.912c-0.678,1.079-1.192,2.203-1.525,3.364
		C157.721,159.078,157.55,160.22,157.55,161.345L157.55,161.345z M163.638,161.343c0.006-1.017,0.177-1.977,0.523-2.87
		c0.339-0.901,0.813-1.687,1.426-2.384c0.612-0.689,1.313-1.231,2.126-1.624c0.805-0.393,1.676-0.591,2.613-0.599
		c0.925,0.008,1.795,0.206,2.601,0.591c0.805,0.394,1.514,0.927,2.126,1.614c0.614,0.689,1.094,1.483,1.44,2.379
		c0.341,0.901,0.519,1.868,0.524,2.893c-0.006,1.017-0.184,1.967-0.524,2.86c-0.347,0.894-0.826,1.681-1.44,2.369
		c-0.612,0.682-1.321,1.213-2.126,1.607c-0.806,0.386-1.676,0.582-2.601,0.59c-0.943-0.008-1.823-0.204-2.635-0.6
		c-0.805-0.393-1.514-0.934-2.12-1.621c-0.604-0.689-1.079-1.478-1.418-2.361C163.814,163.294,163.644,162.342,163.638,161.343
		L163.638,161.343z M30.832,136.79h151.487v2.754H30.832V136.79z"/>
</g>
</svg>
