<?xml version="1.0" encoding="utf-8"?>
<!DOCTYPE svg PUBLIC "-//W3C//DTD SVG 1.1//EN" "http://www.w3.org/Graphics/SVG/1.1/DTD/svg11.dtd">
<svg version="1.1" xmlns="http://www.w3.org/2000/svg" xmlns:xlink="http://www.w3.org/1999/xlink" x="0px" y="0px" width="216px"	 height="216px" viewBox="0 0 216 216" enable-background="new 0 0 216 216" xml:space="preserve">
<g id="Layer_1">
</g>
<g id="_x23_Layer_1">
	<g>
		<rect x="2" y="3.745" fill-rule="evenodd" clip-rule="evenodd" fill="#FFFFFF" width="214" height="208.164"/>
		<path fill-rule="evenodd" clip-rule="evenodd" fill="#C10009" d="M4.27,5.691h209.123v133.912H4.27V5.691L4.27,5.691z
			 M17.172,98.936L17.172,98.936l23.667-0.083l23.528,0.083V84.967H37.811v-6.014h21.947V64.833H37.811v-6.848h26.556V44.019H17.172
			V98.936L17.172,98.936z M94.406,69.96L94.406,69.96l15.001,28.976h25.847l-18.775-29.182l17.16-25.735h-24.24L94.406,69.96
			L94.406,69.96z M73.818,98.936L73.818,98.936h20.441l-0.244-54.917H73.818V98.936L73.818,98.936z M165.869,57.972L165.869,57.972
			c-2.486,0-4.707,0.643-6.658,1.94c-1.939,1.286-3.398,3.074-4.365,5.365c-0.955,2.303-1.369,4.757-1.229,7.387
			c0.129,2.42,0.734,4.628,1.83,6.639c1.094,2.01,2.676,3.576,4.756,4.71c2.07,1.134,4.23,1.695,6.484,1.695
			c2.41,0,4.584-0.631,6.516-1.905c1.941-1.262,3.367-3.039,4.301-5.341c0.932-2.291,1.326-4.687,1.193-7.2
			c-0.131-2.443-0.738-4.699-1.824-6.768c-1.088-2.068-2.594-3.67-4.541-4.815C170.385,58.544,168.234,57.972,165.869,57.972
			L165.869,57.972z M165.848,42.406L165.848,42.406c-6.803,0-12.85,1.29-18.145,3.856c-5.295,2.581-9.184,6.154-11.705,10.748
			c-2.508,4.58-3.594,9.897-3.26,15.966c0.227,4.126,1.088,7.883,2.584,11.258c1.482,3.375,3.867,6.437,7.141,9.202
			c3.26,2.75,7.037,4.75,11.328,5.983c4.291,1.233,8.729,1.843,13.33,1.843c4.654,0,9.096-0.624,13.334-1.886
			c4.223-1.262,7.822-3.247,10.781-5.97c2.945-2.708,5.146-6.012,6.578-9.897c1.43-3.899,2.018-8.167,1.762-12.818
			c-0.244-4.438-1.211-8.351-2.891-11.754c-1.693-3.403-4.117-6.423-7.271-9.032c-3.168-2.623-6.801-4.523-10.895-5.714
			C174.426,43.001,170.197,42.406,165.848,42.406z"/>
		<path fill-rule="evenodd" clip-rule="evenodd" fill="#093481" d="M213.393,139.603v69.708H4.27v-69.708H213.393L213.393,139.603z
			 M15.139,188.624L15.139,188.624h8.605v-17.258l4.44,17.258h7.398l4.156-17.035l0.458,17.201l8.683-0.166V160.56H35.065
			l-3.244,16.593l-3.255-16.593H15.139V188.624L15.139,188.624z M51.402,188.624L51.402,188.624h9.835l2.903-6.506h10.488
			l2.48,6.506h9.875L75.512,160.56H63.816L51.402,188.624L51.402,188.624z M66.404,175.558L66.404,175.558h5.765l-2.568-7.34
			L66.404,175.558L66.404,175.558z M89.388,188.624L89.388,188.624h8.967v-21.465l2.979-0.069c1.866-0.044,2.915,1.173,3.042,3.29
			c0.109,1.813-2.016,2.652-3.359,2.652c-0.661,0-1.303-0.063-1.921-0.182c0.228,0.604,0.532,1.529,0.913,2.778
			c0.379,1.243,0.643,2.183,0.794,2.814c0.997,0.162,1.868,0.246,2.614,0.246c5.756,0,10.101-3.98,9.729-10.13
			c-0.222-3.695-2.418-6.836-6.091-7.775c-0.908-0.233-2.248-0.213-4.108-0.214l-13.559-0.011V188.624L89.388,188.624z
			 M116.764,188.624L116.764,188.624h9.492l-0.211-28.064h-9.281V188.624L116.764,188.624z M126.508,173.815L126.508,173.815
			l9.754,14.809h10.758l-11.137-14.913l9.633-13.151h-10.211L126.508,173.815L126.508,173.815z M149.344,188.624L149.344,188.624
			h23.461l0.039-6.433h-13.076v-3.476h10.709l0.021-7.06l-10.73,0.084v-4.709h12.848l-0.059-6.472h-23.213V188.624L149.344,188.624z
			 M183.076,188.624L183.076,188.624l10.41-0.075v-21.527l8.039,0.074c-0.088-2.097,0.012-4.438,0.02-6.536
			c-8.869,0.068-17.74,0.026-26.609,0l0.025,6.536h8.115V188.624z"/>
	</g>
</g>
</svg>
