<?xml version="1.0" encoding="utf-8"?>
<!DOCTYPE svg PUBLIC "-//W3C//DTD SVG 1.1//EN" "http://www.w3.org/Graphics/SVG/1.1/DTD/svg11.dtd">
<svg version="1.1" id="Layer_1" xmlns:xodm="http://www.corel.com/coreldraw/odm/2003" xmlns="http://www.w3.org/2000/svg" xmlns:xlink="http://www.w3.org/1999/xlink" x="0px" y="0px" width="216px" height="216px" viewBox="454 1110 216 216" enable-background="new 454 1110 216 216" xml:space="preserve">
<rect x="454.54" y="1110" fill="#FFFFFF" width="215.46" height="216"/>
<polygon points="457.5,1322.927 539.568,1322.927 539.568,1240.859 457.5,1240.859 "/>
<path fill="#60B238" d="M624.106,1156.44c0,27.904,0,95.21,0,123.121c-7.795,0-9.169,0-16.737,0
	c-7.234-60.892-45.492-99.139-106.388-106.368c0-7.572,0-8.944,0-16.753C528.889,1156.44,596.197,1156.44,624.106,1156.44z
	 M457.592,1113.052v102.15h21.704c57.107,0,86.066,28.953,86.066,86.042v21.705H667.5v-209.897H457.592z"/>
</svg>
