<?xml version="1.0" encoding="utf-8"?>
<!DOCTYPE svg PUBLIC "-//W3C//DTD SVG 1.1//EN" "http://www.w3.org/Graphics/SVG/1.1/DTD/svg11.dtd">
<svg version="1.1" id="Layer_1" xmlns="http://www.w3.org/2000/svg" xmlns:xlink="http://www.w3.org/1999/xlink" x="0px" y="0px" width="216px" height="216px" viewBox="0 0 216 216" enable-background="new 0 0 216 216" xml:space="preserve">
<g>
	<path fill="#FFFFFF" d="M0.122,0.122h216v216h-216V0.122z"/>
	<path d="M202.447,193.277c0-2.148,1.615-3.762,3.699-3.762c2.056,0,3.684,1.613,3.684,3.762c0,2.195-1.628,3.801-3.684,3.801
		C204.063,197.078,202.447,195.473,202.447,193.277z M206.146,197.854c2.478,0,4.592-1.938,4.592-4.577
		c0-2.608-2.114-4.53-4.592-4.53c-2.503,0-4.625,1.922-4.625,4.53C201.521,195.918,203.642,197.854,206.146,197.854z
		 M205.181,193.647h0.921l1.379,2.27h0.897l-1.502-2.308c0.774-0.099,1.361-0.499,1.361-1.449c0-1.033-0.617-1.492-1.847-1.492
		h-1.998v5.249h0.788V193.647z M205.181,192.977v-1.635h1.09c0.548,0,1.144,0.126,1.144,0.783c0,0.808-0.61,0.852-1.283,0.852
		H205.181z"/>
	<path fill="#3A327C" d="M199.812,187.383c0,5.519-4.523,10.042-10.05,10.042H23.831c-5.517,0-10.034-4.523-10.034-10.042V28.434
		c0-5.519,4.517-10.042,10.034-10.042h165.932c5.526,0,10.051,4.524,10.051,10.042v158.949H199.812L199.812,187.383z"/>
	<path fill="#FFFFFF" d="M63.184,133.075c0,11.322-8.294,19.859-19.287,19.859c-3.449,0-7.551-1.388-10.252-2.299
		c-1.341-0.452-2.401-0.822-2.824-0.822c-0.727,0-1.399,0.469-1.814,1.23l-0.026,0.044h-1.889l-1.994-17.74h2.116l0.014,0.062
		c1.893,9.861,8.111,16.247,15.822,16.247c6.418,0,12.908-4.668,12.908-13.563c0-7.888-6.786-13.148-13.976-18.721
		c-7.979-6.204-16.236-12.614-16.236-23.26c0-9.614,7.235-16.851,16.84-16.851c4.817,0,7.273,1.054,9.25,1.915
		c1.263,0.537,2.265,0.971,3.543,0.971c0.74,0,1.095-0.241,1.63-1.114l0.022-0.046h1.79l1.622,14.86h-1.923l-0.016-0.062
		C55.891,85.539,49.975,80.2,43.426,80.2c-6.152,0-10.452,4.441-10.452,10.781c0,7.638,6.607,12.688,13.604,18.042
		C54.736,115.258,63.184,121.711,63.184,133.075L63.184,133.075z M92.49,130.633l-0.016,0.043
		c-3.073,6.281-4.529,6.834-10.614,6.834c-1.304,0-3.073,0-4.261-0.627c-0.506-0.25-0.521-0.287-0.521-2.374v-26.864
		c0-4.925,0.182-5.059,6.255-5.165h0.088v-1.961H65.077v1.968l0.083-0.007c2.981-0.037,4.361,0.218,5.089,0.95
		c0.84,0.845,0.84,2.412,0.84,5.014v24.458c0,4.108-0.554,5.15-5.703,5.15h-0.087v1.968h25.888l3.095-9.387L92.49,130.633
		L92.49,130.633L92.49,130.633z M154.697,130.33c-1.506,6.664-3.307,6.96-6.912,6.96h-6.237c-1.414,0.007-2.175,0.007-2.571-0.393
		c-0.407-0.415-0.448-1.298-0.448-3.206v-12.582h7.775c3.971,0,4.71,0.158,4.866,4.998l0.006,0.083h1.856v-12.291h-1.856v0.076
		c-0.302,4.568-1.282,4.562-3.892,4.553l-0.418-0.007h-8.338v-15.548h8.292c3.876,0,5.142,0.287,6.019,6.228l0.012,0.068h1.698
		l-0.333-8.754h-27.39v1.968l0.082-0.007c2.218-0.037,3.757,0.105,4.611,0.957c0.717,0.718,1.009,1.938,1.009,4.209v25.341
		c0,1.983-0.162,3.293-1.003,4.124c-0.811,0.792-2.232,1.116-4.618,1.026h-0.083v1.885h28.91l0.735-9.75h-1.759L154.697,130.33
		L154.697,130.33z M122.549,130.33c-1.5,6.664-3.303,6.96-6.91,6.96h-6.239c-1.403,0.007-2.175,0.007-2.572-0.393
		c-0.4-0.415-0.445-1.298-0.445-3.206v-12.582h7.774c3.969,0,4.717,0.158,4.87,4.998v0.083h1.854v-12.291h-1.847l-0.007,0.076
		c-0.303,4.568-1.283,4.562-3.892,4.553l-0.409-0.007h-8.344v-15.548h8.291c3.874,0,5.14,0.287,6.03,6.228l0.018,0.068h1.679
		l-0.33-8.754H94.676v1.968l0.083-0.007c2.217-0.037,3.762,0.105,4.618,0.957c0.714,0.718,1.011,1.938,1.011,4.209v25.341
		c0,1.983-0.17,3.293-1.003,4.124c-0.818,0.792-2.241,1.116-4.625,1.026h-0.083v1.885h28.922l0.723-9.75h-1.76L122.549,130.33
		L122.549,130.33z M170.911,122.947v10.12c0,4.441,0.436,4.765,6.747,4.938l0.073,0.009v2.005h-18.607v-1.968h0.086
		c2.409,0.083,3.832-0.228,4.636-1.011c0.824-0.814,0.987-2.141,0.987-4.139v-25.785c0-1.984,0-4.434-3.461-4.434
		c-0.901,0-2.007,0.091-2.471,0.173l-0.101,0.022v-1.906l0.078-0.009c2.533-0.308,8.887-0.897,14.756-0.897
		c9.867,0,14.868,3.891,14.868,11.575c0,7.004-5.178,12.281-12.06,12.281C174.33,123.923,172.393,123.408,170.911,122.947
		L170.911,122.947z M175.002,121.778c6.778,0,7.312-7.622,7.312-9.966c0-2.301-0.602-9.787-8.286-9.787
		c-1.041,0.001-2.081,0.057-3.116,0.166v18.969C172.15,121.532,173.334,121.778,175.002,121.778L175.002,121.778z M72.363,177.49
		v-19.927c0-4.646,0-4.727,4.554-4.945l0.729-0.016v-2.014H61.299v2.004l0.726,0.024h0.037c3.963,0.293,4.788,0.347,4.788,5.028
		v19.692c0,5.143-0.705,5.171-4.618,5.307l-0.657,0.009h-0.074v2.073h16.42v-2.051l-0.726-0.03
		C73.128,182.362,72.363,182.158,72.363,177.49L72.363,177.49z M106.229,150.589v2.029h0.739c0.387,0,2.395,0.112,2.865,0.194
		c1.945,0.197,1.945,1.945,1.945,3.959v18.049c-0.14-0.164-0.323-0.407-0.323-0.407c-0.958-1.228-3.516-4.478-18.847-23.793
		l-0.023-0.03h-9.559v2.004l0.735,0.024c2.747,0.151,4.42,0.231,4.42,4.388v21.443c0,1.635-0.127,2.714-0.762,3.339
		c-0.662,0.664-1.906,0.972-3.698,0.912l-0.758-0.016v2.042h14.197v-2.027h-0.737c-4.699-0.083-5.291-0.28-5.291-5.159v-19.572
		c0.294,0.361,21.365,26.992,21.365,26.992h2.234v-28.191c0-1.628,0.124-2.69,0.751-3.316c0.632-0.643,1.821-0.904,3.711-0.836
		l0.758,0.007v-2.035L106.229,150.589L106.229,150.589z M160.841,150.589h-13.642v2.029h0.742c0.392,0,2.395,0.112,2.858,0.194
		c1.945,0.197,1.945,1.945,1.945,3.959v18.049c-0.134-0.164-0.304-0.384-0.304-0.384c-0.933-1.199-3.426-4.366-18.859-23.817
		l-0.022-0.03h-9.563v2.004l0.729,0.024c2.756,0.151,4.421,0.23,4.421,4.387v21.444c0,1.635-0.124,2.714-0.758,3.339
		c-0.672,0.663-1.91,0.972-3.705,0.912l-0.756-0.016v2.042h14.198v-2.027h-0.742c-4.687-0.083-5.281-0.28-5.281-5.159v-19.572
		l21.355,26.992h2.248v-28.191c0-1.628,0.116-2.69,0.741-3.316c0.642-0.643,1.821-0.904,3.714-0.836l0.765,0.007v-2.035h-0.085
		V150.589L160.841,150.589z"/>
	<path fill="#EED734" d="M156.577,90.199c-2.355-19.003-8.77-32.971-26.066-47.264c-14.213-11.776-32.241-16.566-50.188-14.05
		c-18.028,2.436-33.784,12.344-44.828,27.45c0,0.082-0.488,1.055-0.488,1.055l1.056,0.65l3.979-4.062l4.304-3.654l4.709-3.249
		l5.035-2.761l5.279-2.193l5.603-1.706l5.767-1.138l5.929-0.487l5.767,0.081l5.685,0.73l5.522,1.3l5.278,1.868l5.116,2.355
		l4.874,2.843l4.548,3.248l4.223,3.816l3.898,4.142l3.493,4.547l3.086,4.953l2.598,5.198l2.03,5.928l1.624,6.903l1.786,8.933h20.951
		L156.577,90.199L156.577,90.199z"/>
	<path fill="#F0C234" d="M99.527,28.99l-41.619,7.338c6.942-3.856,14.544-6.381,22.414-7.443
		C86.695,27.982,93.165,28.017,99.527,28.99L99.527,28.99z"/>
	<path fill="#EEBF34" d="M57.909,36.328l41.619-7.338c5.199,0.798,10.279,2.238,15.124,4.288l-31.94,5.632l-0.278-0.036
		l-5.767-0.081l-5.929,0.488l-5.767,1.137l-5.603,1.706l-3.777,1.569l-10.447,1.843C49.023,41.978,53.308,38.887,57.909,36.328
		L57.909,36.328z"/>
	<path fill="#EDBB34" d="M45.146,45.534l10.447-1.843l-1.501,0.624l-5.035,2.761l-4.71,3.249l-3.545,3.01l-3.489,0.615
		C39.697,50.941,42.316,48.127,45.146,45.534z M82.711,38.91l31.94-5.632c3.453,1.463,6.77,3.229,9.911,5.278l-25.159,4.439
		l-0.485-0.223l-5.278-1.868l-5.522-1.3L82.711,38.91L82.711,38.91z"/>
	<path fill="#ECB733" d="M37.312,53.951l3.488-0.615l-0.76,0.646l-3.979,4.061l-1.056-0.65c0,0,0.488-0.974,0.488-1.056
		C36.083,55.529,36.69,54.733,37.312,53.951L37.312,53.951z M99.404,42.996l25.159-4.438c2.064,1.345,4.051,2.807,5.949,4.379
		c0.508,0.42,1.006,0.84,1.497,1.261l-22.764,4.014l-0.335-0.239l-4.874-2.843L99.404,42.996L99.404,42.996z"/>
	<path fill="#EAB333" d="M109.244,48.21l22.764-4.014c2.171,1.854,4.254,3.807,6.243,5.854l-21.829,3.849l-2.965-2.68L109.244,48.21
		L109.244,48.21z"/>
	<path fill="#E49F31" d="M116.422,53.899l21.829-3.849c1.879,1.934,3.648,3.971,5.3,6.102l-21.398,3.773l-0.576-0.747l-3.898-4.142
		L116.422,53.899L116.422,53.899z"/>
	<path fill="#E39B31" d="M122.152,59.924l21.398-3.773L122.152,59.924z M122.152,59.924l21.398-3.773
		c1.53,1.979,2.938,4.048,4.218,6.198l-21.226,3.742l-1.472-2.367L122.152,59.924L122.152,59.924z"/>
	<path fill="#CF8D3F" d="M126.542,66.091l21.226-3.742c1.234,2.081,2.34,4.235,3.309,6.452l-21.009,3.705l-1.912-3.828
		L126.542,66.091L126.542,66.091z"/>
	<path fill="#B97F4C" d="M130.068,72.506l21.009-3.705c0.93,2.129,1.739,4.308,2.426,6.527l-20.985,3.7l-1.764-5.153L130.068,72.506
		L130.068,72.506z"/>
	<path fill="#A77357" d="M132.518,79.029l20.985-3.7c0.682,2.211,1.26,4.453,1.733,6.718l-21.051,3.714l-1.4-5.957L132.518,79.029
		L132.518,79.029z"/>
	<path fill="#95685F" d="M134.186,85.762l21.051-3.713c0.459,2.181,0.84,4.428,1.157,6.749l-20.834,3.673l-1.15-5.763
		C134.409,86.708,134.319,86.334,134.186,85.762L134.186,85.762z"/>
	<path fill="#4A3878" d="M135.56,92.471l20.834-3.673c0.063,0.465,0.127,0.933,0.184,1.402l0.569,5.44h-20.951L135.56,92.471z"/>
</g>

</svg>
