<?xml version="1.0" encoding="utf-8"?>
<!DOCTYPE svg PUBLIC "-//W3C//DTD SVG 1.1//EN" "http://www.w3.org/Graphics/SVG/1.1/DTD/svg11.dtd">
<svg version="1.1" id="Layer_1" xmlns="http://www.w3.org/2000/svg" xmlns:xlink="http://www.w3.org/1999/xlink" x="0px" y="0px"
	 width="216px" height="216px" viewBox="-50 -94.5 216 216" enable-background="new -50 -94.5 216 216" xml:space="preserve">
<g>
	<g>
		<path id="A_1_" fill="#43B02A" d="M-22.159-11.17l161.462,0.011c5.62-0.01,11.074,1.898,15.463,5.409
			c5.709,4.532,9.271,11.705,9.225,19.018c0.122,6.024-2.155,12.043-6.164,16.532c-4.594,5.271-11.518,8.323-18.493,8.353
			l-156.427,0.004c-4.395-0.029-8.892,0.292-13.156-1.029c-7.986-2.277-14.572-8.865-16.794-16.879
			c-1.717-5.772-1.089-12.119,1.535-17.528c3.385-7.038,10.292-12.235,17.992-13.526c1.766-0.298,3.57-0.365,5.357-0.365H-22.159z"
			/>
	</g>
	<defs>
		<filter id="Adobe_OpacityMaskFilter" filterUnits="userSpaceOnUse" x="-36.263" y="-2.026" width="188.538" height="31.587">
			<feColorMatrix  type="matrix" values="1 0 0 0 0  0 1 0 0 0  0 0 1 0 0  0 0 0 1 0"/>
		</filter>
	</defs>
	<mask maskUnits="userSpaceOnUse" x="-36.263" y="-2.026" width="188.538" height="31.587" id="B">
		<g filter="url(#Adobe_OpacityMaskFilter)">
			<path id="A" fill="#FFFFFF" d="M-22.159-11.17l161.462,0.011c5.62-0.01,11.074,1.898,15.463,5.409
				c5.709,4.532,9.271,11.705,9.225,19.018c0.122,6.024-2.155,12.043-6.164,16.532c-4.594,5.271-11.518,8.323-18.493,8.353
				l-156.427,0.004c-4.395-0.029-8.892,0.292-13.156-1.029c-7.986-2.277-14.572-8.865-16.794-16.879
				c-1.717-5.772-1.089-12.119,1.535-17.528c3.385-7.038,10.292-12.235,17.992-13.526c1.766-0.298,3.57-0.365,5.357-0.365H-22.159z"
				/>
		</g>
	</mask>
	<g mask="url(#B)">
		<path fill="#FF671F" d="M134.966,0.513c6.268-1.828,13.449,1.595,16.058,7.554c1.906,4.039,1.613,8.991-0.737,12.793
			c-2.521,4.258-7.5,6.952-12.458,6.599c-6.423-0.156-12.17-5.495-12.924-11.856c-1.041-6.619,3.563-13.485,10.063-15.085
			L134.966,0.513z"/>
		<path fill="#FFFFFF" d="M-23.012-1.805c6.009-1.046,12.49,1.897,15.694,7.085c1.55,2.528-0.717,6.305-3.713,5.876
			c-1.687,0.218-2.875-1.11-3.78-2.331c-2.204-2.737-6.39-3.448-9.411-1.682c-3.052,1.638-4.778,5.641-3.52,8.933
			c0.95,3.188,4.262,5.551,7.598,5.218c2.692,0.118,4.752-1.826,6.433-3.686c2.235-2.163,6.319-0.321,6.511,2.688
			c0.311,2.652-2.052,4.521-3.864,6.027c-5.939,4.669-15.172,4.066-20.468-1.315c-5.42-5.08-6.322-14.12-1.986-20.162
			c2.397-3.537,6.299-5.976,10.508-6.663L-23.012-1.805z M7.245-1.728c8.041-1.674,16.681,4.192,18.152,12.289
			c2.059,8.371-4.23,17.484-12.699,18.732c-7.913,1.581-16.33-4.021-18.006-11.892C-7.61,8.957-1.346-0.414,7.247-1.726L7.245-1.728
			z M8.757,6.309C5.036,6.853,2.113,10.49,2.45,14.254c0.152,3.85,3.696,7.295,7.587,7.065c4.282,0.215,8-3.979,7.507-8.2
			C17.295,8.88,12.92,5.459,8.757,6.309z M28.262,1.986c-0.136-3.119,3.976-5.189,6.352-3.179l9.681,9.583l9.274-9.243
			c1.142-1.133,3.016-1.521,4.477-0.786c1.549,0.695,2.535,2.43,2.452,4.116l-0.013,22.998c0.029,2.37-2.292,4.429-4.648,4.027
			c-1.967-0.212-3.564-2.04-3.531-4.021V11.972l-5.257,5.193c-1.352,1.313-3.582,1.493-5.08,0.317
			c-2.021-1.659-3.667-3.725-5.61-5.479l-0.045,13.669c0.011,2.375-2.485,4.316-4.778,3.791c-1.864-0.316-3.449-2.109-3.282-4.043
			l0.011-23.449L28.262,1.986z M63.853,2.133c-0.077-2.293,2.039-4.263,4.303-4.124L84.474-1.98c1.491,0,2.943,0.914,3.61,2.267
			c1.304,2.313-0.412,5.731-3.135,5.798L72.002,6.13v4.993l10.929,0.006c2.565-0.097,4.865,2.559,4.131,5.085
			c-0.408,1.886-2.262,3.228-4.16,3.146c-3.632,0.024-7.266-0.011-10.896,0.006l-0.035,6.45c-0.132,2.48-2.902,4.337-5.247,3.52
			c-1.16-0.271-1.896-1.267-2.599-2.142c-0.483-2.267-0.244-4.594-0.289-6.888l0.019-18.191L63.853,2.133z M90.244,2.506
			c-0.415-2.686,2.448-5.168,5.033-4.386c1.787,0.52,2.815,2.187,4.129,3.372l5.886,5.817l8.412-8.347
			c1.586-1.462,4.215-1.232,5.605,0.365c1.462,1.516,1.408,4.121-0.102,5.573l-9.868,9.919l-0.015,10.607
			c0.092,1.896-1.424,3.647-3.261,3.979c-2.386,0.558-4.991-1.54-4.819-4.021l-0.011-10.562L93.178,6.69
			c-1.188-1.224-2.869-2.335-2.93-4.203L90.244,2.506z"/>
	</g>
</g>
</svg>
