<?xml version="1.0" encoding="utf-8"?>
<!DOCTYPE svg PUBLIC "-//W3C//DTD SVG 1.1//EN" "http://www.w3.org/Graphics/SVG/1.1/DTD/svg11.dtd">
<svg version="1.1" id="Слой_1" xmlns="http://www.w3.org/2000/svg" xmlns:xlink="http://www.w3.org/1999/xlink" x="0px" y="0px" width="216px" height="216px" viewBox="0 0 216 216" enable-background="new 0 0 216 216" xml:space="preserve">
<g>
	<rect fill="#63112F" width="216" height="216"/>
	<polygon fill="#FFFFFF" points="96.026,31.002 90.884,36.788 97.742,43.432 97.742,82.664 92.383,82.664 92.383,45.148 
		83.6,36.359 77.807,36.359 69.877,44.719 76.95,51.793 76.95,82.875 71.592,82.875 71.592,126.598 97.957,126.598 97.957,105.798 
		106.963,97.449 115.968,105.798 115.968,126.598 142.333,126.598 142.333,82.875 136.975,82.875 136.975,51.793 144.049,44.719 
		136.118,36.359 130.326,36.359 121.544,45.148 121.544,82.664 116.183,82.664 116.183,43.432 123.042,36.788 117.899,31.002 	"/>
	<g>
		<path fill="#FFFFFF" d="M71.146,183.972h0.087c0.179,0.281,0.372,0.488,0.582,0.626s0.463,0.206,0.765,0.206
			c0.219,0,0.417-0.055,0.594-0.159c0.177-0.105,0.314-0.249,0.416-0.434c0.102-0.181,0.152-0.377,0.152-0.579
			c0-0.325-0.105-0.565-0.315-0.722c-0.211-0.155-0.532-0.315-0.966-0.48c-0.433-0.162-0.763-0.344-0.989-0.542
			c-0.227-0.197-0.339-0.498-0.339-0.908c0-0.492,0.174-0.876,0.524-1.141c0.352-0.271,0.793-0.402,1.328-0.402
			c0.22,0,0.438,0.032,0.651,0.099c0.212,0.063,0.393,0.16,0.535,0.286c-0.033,0.084-0.109,0.304-0.224,0.662h-0.081
			c-0.082-0.219-0.213-0.388-0.395-0.515c-0.181-0.124-0.394-0.187-0.639-0.187c-0.19,0-0.365,0.039-0.526,0.119
			c-0.16,0.076-0.289,0.189-0.384,0.335s-0.142,0.306-0.142,0.485c0,0.326,0.103,0.567,0.313,0.716
			c0.209,0.151,0.535,0.313,0.977,0.481c0.441,0.169,0.773,0.35,0.999,0.541c0.227,0.191,0.339,0.478,0.339,0.858
			c0,0.282-0.052,0.539-0.156,0.762c-0.103,0.223-0.251,0.417-0.444,0.582c-0.192,0.158-0.413,0.281-0.659,0.365
			c-0.123,0.041-0.25,0.071-0.384,0.092c-0.134,0.022-0.274,0.032-0.42,0.032c-0.123,0-0.239-0.008-0.353-0.027
			c-0.113-0.021-0.246-0.052-0.396-0.097c-0.271-0.089-0.477-0.201-0.612-0.341C71.053,184.511,71.105,184.274,71.146,183.972z"/>
		<path fill="#FFFFFF" d="M88.084,185.057v-5.499l0.211,0.011l0.156,0.01l0.142-0.01l0.224-0.011v5.499l-0.152-0.013
			c-0.049,0-0.081-0.005-0.101-0.008l-0.113-0.004l-0.128,0.004l-0.106,0.008L88.084,185.057z"/>
		<path fill="#FFFFFF" d="M107.79,179.558v5.499h-0.251c-0.106-0.135-0.25-0.298-0.431-0.493l-3.604-3.842h-0.084v4.337
			l-0.128-0.015l-0.104-0.008l-0.083,0.003l-0.064,0.005l-0.086,0.015v-5.501h0.325l3.958,4.14h0.086v-4.14l0.129,0.011l0.101,0.01
			l0.097-0.01L107.79,179.558z"/>
		<path fill="#FFFFFF" d="M126.253,184.19l-0.046,0.505c-0.16,0.103-0.346,0.191-0.555,0.261c-0.188,0.063-0.393,0.112-0.612,0.147
			c-0.221,0.032-0.446,0.05-0.672,0.05c-0.458,0-0.868-0.067-1.229-0.197c-0.361-0.133-0.669-0.324-0.922-0.576
			c-0.252-0.253-0.445-0.559-0.58-0.918c-0.138-0.361-0.206-0.758-0.206-1.185c0-0.587,0.138-1.096,0.412-1.525
			c0.273-0.427,0.65-0.754,1.132-0.977c0.479-0.224,1.015-0.336,1.599-0.336c0.206,0,0.408,0.012,0.615,0.037
			c0.205,0.028,0.407,0.071,0.609,0.126c0.2,0.06,0.388,0.127,0.568,0.207c-0.067,0.166-0.126,0.37-0.175,0.613l-0.058,0.014
			c-0.062-0.08-0.168-0.172-0.306-0.273c-0.14-0.101-0.324-0.195-0.552-0.286c-0.227-0.091-0.471-0.134-0.733-0.134
			c-0.487,0-0.903,0.112-1.247,0.34c-0.343,0.229-0.603,0.542-0.78,0.942c-0.177,0.399-0.265,0.825-0.265,1.281
			c0,0.503,0.093,0.945,0.281,1.327c0.186,0.383,0.45,0.679,0.792,0.889c0.341,0.207,0.728,0.314,1.158,0.314
			c0.278,0,0.537-0.039,0.781-0.118c0.244-0.081,0.443-0.168,0.602-0.267C126.021,184.354,126.151,184.269,126.253,184.19z"/>
		<path fill="#FFFFFF" d="M140.657,179.938v2.018h1.296h0.223l0.248-0.022l0.27-0.019l-0.017,0.119l-0.009,0.091l0.009,0.081
			l0.017,0.142l-0.27-0.018l-0.248-0.021h-0.223h-1.296v2.348c0.055,0,0.281-0.004,0.675-0.014c0.395-0.011,0.676-0.015,0.835-0.015
			c0.114,0,0.229-0.006,0.335-0.017c0.107-0.014,0.255-0.03,0.436-0.058l-0.013,0.087l-0.013,0.082l-0.004,0.075
			c0,0.049,0,0.09,0.009,0.117l0.018,0.121h-3.014v-5.479h2.96l-0.017,0.142l-0.009,0.098l0.009,0.101l0.017,0.142
			c-0.148-0.027-0.263-0.049-0.34-0.061c-0.132-0.018-0.269-0.026-0.41-0.026l-0.835-0.015H140.657L140.657,179.938z"/>
		<g>
			<path fill="#FFFFFF" d="M93.697,195.189h-2.534v-1.845h0.189c1.586,0,2.879-0.667,3.103-1.777h1.896v11.685h-2.655V195.189z"/>
			<path fill="#FFFFFF" d="M100.892,200.357c0,0.614,0.327,1.064,0.965,1.064c0.604,0,0.896-0.38,0.896-1.064v-2.028
				c-0.379,0.565-0.983,1.082-1.965,1.082c-1.413,0-2.603-1.049-2.603-3.725v-0.384c0-2.474,1-3.988,3.585-3.988
				c1.948,0,3.604,0.799,3.604,3.441v5.551c0,2.26-1.568,3.19-3.517,3.19c-2.085,0-3.586-0.881-3.586-3.141L100.892,200.357
				L100.892,200.357z M100.805,195.488c0,1.146,0.224,1.88,0.965,1.88c0.776,0,0.983-0.733,0.983-1.88
				c0-1.561-0.207-2.045-0.983-2.045C100.96,193.443,100.805,193.894,100.805,195.488z"/>
			<path fill="#FFFFFF" d="M106.838,194.277c0-1.612,1.172-2.958,3.517-2.958c2.584,0,3.533,1.378,3.533,2.958
				c0,1.443-0.688,2.357-1.568,2.656c1.068,0.516,1.688,1.331,1.688,2.843c0,2.575-1.241,3.723-3.652,3.723
				c-2.414,0-3.654-1.147-3.654-3.688c0-1.545,0.551-2.361,1.585-2.877C107.321,196.604,106.838,195.721,106.838,194.277z
				 M109.319,199.776c0,1.181,0.226,1.727,1.035,1.727c0.827,0,1.036-0.546,1.036-1.727c0-1.263-0.245-1.746-1.036-1.746
				C109.545,198.033,109.319,198.497,109.319,199.776z M109.39,194.723c0,0.949,0.326,1.431,0.965,1.431
				c0.654,0,0.981-0.481,0.981-1.431c0-1.014-0.327-1.396-0.981-1.396C109.733,193.327,109.39,193.71,109.39,194.723z"/>
			<path fill="#FFFFFF" d="M119.023,191.319c3.016,0,3.738,1.61,3.738,3.273v5.617c0,1.662-0.723,3.29-3.738,3.29
				c-2.861,0-3.674-1.611-3.674-3.29v-5.617C115.35,192.913,116.162,191.319,119.023,191.319z M118.092,194.542v5.73
				c0,0.783,0.137,1.215,0.896,1.215c0.793,0,1.033-0.435,1.033-1.215v-5.73c0-0.783-0.24-1.215-1.033-1.215
				C118.229,193.327,118.092,193.761,118.092,194.542z"/>
		</g>
	</g>
	<g>
		<path fill="#FFFFFF" d="M71.892,151.067v-14.42h2.994v5.499h5.606v-5.499h2.996v14.42h-2.996v-6.438h-5.606v6.438H71.892z"/>
		<path fill="#FFFFFF" d="M98.888,149.786c-1.09,1.123-2.666,1.682-4.725,1.682c-2.06,0-3.637-0.559-4.725-1.682
			c-1.461-1.378-2.191-3.359-2.191-5.947c0-2.643,0.73-4.625,2.191-5.95c1.09-1.122,2.665-1.684,4.725-1.684
			c2.06,0,3.637,0.562,4.725,1.684c1.453,1.325,2.183,3.308,2.183,5.95C101.071,146.427,100.341,148.408,98.888,149.786z
			 M97.005,147.597c0.7-0.884,1.052-2.134,1.052-3.758c0-1.621-0.352-2.87-1.052-3.752c-0.7-0.884-1.648-1.325-2.842-1.325
			c-1.194,0-2.146,0.44-2.857,1.321c-0.711,0.882-1.067,2.132-1.067,3.756c0,1.626,0.356,2.878,1.067,3.758
			c0.711,0.884,1.664,1.321,2.857,1.321C95.356,148.918,96.302,148.477,97.005,147.597z"/>
		<path fill="#FFFFFF" d="M115.249,136.647v2.552h-4.315v11.867H107.9v-11.867h-4.335v-2.552H115.249z"/>
		<path fill="#FFFFFF" d="M129.076,139.199h-7.629v3.063h7.002v2.502h-7.002v3.708h7.98v2.593h-10.926v-14.421h10.574V139.199z"/>
		<path fill="#FFFFFF" d="M133.181,136.647h3.017v11.829h7.199v2.59h-10.216V136.647z"/>
		<path fill="#FFFFFF" d="M50.954,157.357c0.442,0.614,0.662,1.347,0.662,2.203c0,0.879-0.222,1.586-0.668,2.12
			c-0.248,0.301-0.616,0.575-1.098,0.82c0.736,0.27,1.29,0.693,1.665,1.271c0.375,0.582,0.562,1.285,0.562,2.115
			c0,0.855-0.213,1.621-0.642,2.3c-0.272,0.449-0.612,0.826-1.021,1.136c-0.461,0.35-1.004,0.591-1.629,0.724
			c-0.625,0.13-1.305,0.195-2.039,0.195h-6.497v-14.421h6.97C48.974,155.849,50.22,156.359,50.954,157.357z M43.123,158.326v3.183
			h3.505c0.627,0,1.135-0.12,1.525-0.357c0.389-0.238,0.586-0.663,0.586-1.268c0-0.673-0.259-1.117-0.775-1.334
			c-0.446-0.149-1.013-0.224-1.704-0.224H43.123z M43.123,163.892v3.847h3.501c0.625,0,1.111-0.084,1.46-0.254
			c0.631-0.313,0.948-0.913,0.948-1.802c0-0.75-0.305-1.264-0.917-1.544c-0.343-0.158-0.823-0.24-1.442-0.247H43.123z"/>
		<path fill="#FFFFFF" d="M65.312,156.193c0.53,0.229,0.98,0.564,1.351,1.01c0.306,0.367,0.547,0.769,0.726,1.213
			c0.178,0.443,0.267,0.95,0.267,1.517c0,0.684-0.173,1.356-0.519,2.021c-0.345,0.662-0.917,1.13-1.712,1.404
			c0.665,0.267,1.135,0.646,1.413,1.14c0.278,0.495,0.416,1.244,0.416,2.257v0.969c0,0.658,0.027,1.104,0.08,1.338
			c0.08,0.375,0.265,0.648,0.555,0.823v0.361h-3.326c-0.09-0.319-0.157-0.578-0.195-0.774c-0.078-0.406-0.122-0.817-0.128-1.243
			l-0.019-1.338c-0.014-0.922-0.17-1.532-0.477-1.841c-0.307-0.306-0.876-0.459-1.717-0.459h-2.943v5.655h-2.944v-14.421h6.898
			C64.022,155.84,64.781,155.966,65.312,156.193z M59.083,158.326v3.874h3.244c0.644,0,1.126-0.077,1.45-0.232
			c0.571-0.273,0.855-0.816,0.855-1.625c0-0.875-0.276-1.463-0.828-1.761c-0.31-0.171-0.773-0.256-1.394-0.256H59.083z"/>
		<path fill="#FFFFFF" d="M76.067,155.821h3.411l5.101,14.421h-3.269l-0.952-2.965h-5.311l-0.979,2.965h-3.151L76.067,155.821z
			 M75.869,164.793h3.694l-1.824-5.675L75.869,164.793z"/>
		<path fill="#FFFFFF" d="M96.817,155.821v2.552h-4.315v11.869h-3.034v-11.869h-4.334v-2.552H96.817z"/>
		<path fill="#FFFFFF" d="M102.73,170.245h-2.993v-14.421h2.993V170.245z"/>
		<path fill="#FFFFFF" d="M109.121,165.79c0.093,0.658,0.275,1.151,0.55,1.479c0.5,0.592,1.356,0.889,2.569,0.889
			c0.727,0,1.316-0.076,1.767-0.233c0.86-0.302,1.29-0.855,1.29-1.674c0-0.474-0.212-0.843-0.632-1.104
			c-0.421-0.255-1.086-0.479-2-0.675l-1.563-0.342c-1.534-0.339-2.589-0.707-3.163-1.106c-0.971-0.665-1.459-1.704-1.459-3.123
			c0-1.289,0.477-2.361,1.427-3.219c0.95-0.854,2.347-1.279,4.19-1.279c1.54,0,2.851,0.401,3.937,1.208
			c1.086,0.805,1.656,1.975,1.709,3.508h-2.896c-0.055-0.87-0.441-1.483-1.163-1.85c-0.484-0.241-1.08-0.362-1.796-0.362
			c-0.794,0-1.43,0.157-1.906,0.471c-0.476,0.313-0.714,0.75-0.714,1.31c0,0.515,0.235,0.899,0.703,1.155
			c0.302,0.17,0.939,0.368,1.915,0.595l2.531,0.598c1.108,0.261,1.942,0.61,2.496,1.049c0.86,0.677,1.29,1.657,1.29,2.944
			c0,1.317-0.51,2.411-1.528,3.282c-1.018,0.871-2.457,1.308-4.315,1.308c-1.896,0-3.39-0.43-4.479-1.287
			c-1.087-0.857-1.631-2.035-1.631-3.537h2.872V165.79z"/>
		<path fill="#FFFFFF" d="M121.716,155.821h3.016v11.829h7.2v2.592h-10.216V155.821z"/>
		<path fill="#FFFFFF" d="M139.483,155.821h3.411l5.101,14.421h-3.27l-0.95-2.965h-5.311l-0.979,2.965h-3.152L139.483,155.821z
			 M139.285,164.793h3.692l-1.821-5.675L139.285,164.793z"/>
		<path fill="#FFFFFF" d="M158.192,155.821h3.131l-4.916,14.421h-2.847l-4.88-14.421h3.221l3.131,10.947L158.192,155.821z"/>
		<path fill="#FFFFFF" d="M167.168,155.821h3.413l5.101,14.421h-3.269l-0.953-2.965h-5.311l-0.977,2.965h-3.152L167.168,155.821z
			 M166.97,164.793h3.691l-1.822-5.675L166.97,164.793z"/>
	</g>
	<g>
		<polygon fill="#FFFFFF" points="85.818,13.5 87.258,16.42 90.481,16.887 88.149,19.16 88.699,22.37 85.818,20.853 82.936,22.37 
			83.485,19.16 81.154,16.887 84.377,16.42 		"/>
		<polygon fill="#FFFFFF" points="99.916,13.5 101.354,16.42 104.578,16.887 102.247,19.16 102.796,22.37 99.916,20.853 
			97.033,22.37 97.582,19.16 95.251,16.887 98.475,16.42 		"/>
		<g>
			<polygon fill="#FFFFFF" points="114.012,13.5 115.45,16.42 118.674,16.887 116.344,19.16 116.894,22.37 114.012,20.853 
				111.129,22.37 111.68,19.16 109.349,16.887 112.572,16.42 			"/>
		</g>
		<g>
			<polygon fill="#FFFFFF" points="128.108,13.5 129.547,16.42 132.771,16.887 130.439,19.16 130.991,22.37 128.108,20.853 
				125.226,22.37 125.777,19.16 123.446,16.887 126.669,16.42 			"/>
		</g>
	</g>
</g>
</svg>
