<?xml version="1.0" encoding="utf-8"?>
<!DOCTYPE svg PUBLIC "-//W3C//DTD SVG 1.1//EN" "http://www.w3.org/Graphics/SVG/1.1/DTD/svg11.dtd">
<svg version="1.1" xmlns="http://www.w3.org/2000/svg" xmlns:xlink="http://www.w3.org/1999/xlink" x="0px" y="0px" width="216px" height="216px" viewBox="0 0 216 216" enable-background="new 0 0 216 216" xml:space="preserve">
<g>
	<rect x="1.766" y="1.5" fill-rule="evenodd" clip-rule="evenodd" fill="#46909C" width="213" height="213"/>
	<path fill-rule="evenodd" clip-rule="evenodd" fill="#FFFFFF" d="M110.349,113.742c5.317,0,9.63,1.693,9.63,3.781
		s-4.313,3.781-9.63,3.781c-0.059,0-0.115,0-0.174,0v-7.563C110.233,113.742,110.29,113.742,110.349,113.742L110.349,113.742z
		 M110.874,121.375c21.346,0,38.656,4.123,38.656,9.208c0,5.086-17.311,9.209-38.656,9.209c-0.233,0-0.466-0.002-0.699-0.002
		v-18.413C110.408,121.377,110.641,121.375,110.874,121.375L110.874,121.375z M112.229,122.774c-0.148,0-0.297,0.002-0.444,0.002
		v15.614c0.147,0,0.296,0.002,0.444,0.002c13.56,0,24.556-3.497,24.556-7.81C136.785,126.271,125.789,122.774,112.229,122.774z"/>
	<path fill-rule="evenodd" clip-rule="evenodd" fill="#FFFFFF" d="M108.438,113.742c-5.317,0-9.629,1.693-9.629,3.781
		s4.312,3.781,9.629,3.781c0.059,0,0.116,0,0.174,0v-7.563C108.553,113.742,108.496,113.742,108.438,113.742L108.438,113.742z
		 M107.912,121.375c-21.346,0-38.655,4.123-38.655,9.208c0,5.086,17.31,9.209,38.655,9.209c0.233,0,0.467-0.002,0.7-0.002v-18.413
		C108.378,121.377,108.145,121.375,107.912,121.375L107.912,121.375z M106.556,122.774c0.149,0,0.298,0.002,0.445,0.002v15.614
		c-0.147,0-0.296,0.002-0.445,0.002c-13.559,0-24.555-3.497-24.555-7.81C82.001,126.271,92.997,122.774,106.556,122.774z"/>
	<path fill="#FFFFFF" d="M14.442,81.887v6.059h1.014c0.659,0,1.205-0.027,1.634-0.081c0.454-0.061,0.897-0.189,1.313-0.38
		c1.183-0.522,1.774-1.451,1.774-2.788c0-1.028-0.331-1.753-0.99-2.176c-0.661-0.422-1.636-0.634-2.925-0.634H14.442L14.442,81.887z
		 M14.442,88.842L14.442,88.842v7.023h2.304c1.136,0,2.065-0.329,2.787-0.989c0.721-0.661,1.082-1.521,1.082-2.58
		c0-1.274-0.446-2.188-1.335-2.74c-0.767-0.475-1.912-0.713-3.431-0.713L14.442,88.842L14.442,88.842L14.442,88.842z M12.415,96.72
		L12.415,96.72V81.034h4.628c1.767,0,3.064,0.238,3.894,0.714c0.829,0.476,1.244,1.298,1.244,2.464c0,1.029-0.343,1.9-1.026,2.613
		c-0.685,0.714-1.556,1.202-2.615,1.463c1.058,0,1.981,0.269,2.763,0.807c0.967,0.659,1.45,1.596,1.45,2.81
		c0,1.642-0.691,2.94-2.073,3.893c-0.598,0.414-1.374,0.682-2.325,0.805c-0.583,0.075-1.427,0.115-2.532,0.115h-3.409V96.72
		L12.415,96.72z M41.855,81.84L41.855,81.84v6.402h1.175c0.336,0,0.651-0.007,0.943-0.023c0.292-0.015,0.577-0.054,0.853-0.116
		c0.859-0.183,1.566-0.564,2.119-1.14c0.553-0.576,0.829-1.293,0.829-2.151c0-1.66-0.846-2.627-2.534-2.903
		c-0.397-0.05-0.797-0.073-1.197-0.068H41.855L41.855,81.84z M39.829,96.787L39.829,96.787V81.034h4.883
		c1.75,0,3.041,0.288,3.87,0.864c0.829,0.575,1.243,1.455,1.243,2.637c0,1.244-0.49,2.256-1.474,3.04
		c-0.813,0.646-1.896,1.09-3.248,1.336l4.734,6.003l1.12,1.292l0.435,0.58l-1.336-0.068l-1.313,0.068l-1.45-2.003l-2.715-3.524
		l-1.846-2.164h-0.875v7.69l-1.013-0.069L39.829,96.787L39.829,96.787z M82.696,88.75L82.696,88.75c0-1.042-0.1-1.969-0.299-2.775
		c-0.216-0.837-0.609-1.618-1.152-2.291c-0.559-0.714-1.282-1.284-2.108-1.66c-0.842-0.384-1.757-0.581-2.682-0.576
		c-2.011,0-3.598,0.702-4.756,2.107c-1.16,1.407-1.738,3.282-1.738,5.63c0,2.256,0.613,4.031,1.842,5.32
		c1.151,1.198,2.631,1.795,4.444,1.795c2.165,0,3.845-0.936,5.043-2.809C82.214,92.083,82.703,90.434,82.696,88.75L82.696,88.75z
		 M76.179,97.066L76.179,97.066c-2.564,0-4.618-0.742-6.161-2.223c-1.542-1.483-2.314-3.459-2.314-5.931
		c0-2.472,0.822-4.475,2.465-6.012c1.582-1.473,3.6-2.21,6.058-2.21c2.394,0,4.391,0.622,5.986,1.865
		c1.828,1.428,2.741,3.432,2.741,6.011c0,2.548-0.814,4.603-2.441,6.162C80.884,96.283,78.773,97.066,76.179,97.066L76.179,97.066z
		 M115.477,94.302L115.477,94.302l-0.115,1.449c-0.714,0.478-1.511,0.817-2.35,1.002c-0.898,0.209-1.817,0.313-2.74,0.313
		c-2.517,0-4.499-0.747-5.941-2.237c-1.444-1.488-2.167-3.492-2.167-6.011c0-2.518,0.836-4.521,2.51-6.011
		c1.596-1.412,3.652-2.118,6.172-2.118c0.813,0,1.646,0.091,2.498,0.276c0.852,0.186,1.668,0.446,2.451,0.783
		c-0.092,0.229-0.185,0.519-0.277,0.862c-0.081,0.3-0.15,0.604-0.207,0.91l-0.16,0.024c-0.168-0.216-0.469-0.477-0.897-0.782
		c-1.12-0.799-2.29-1.198-3.5-1.198c-2.028,0-3.608,0.73-4.745,2.188c-1.058,1.351-1.589,3.071-1.589,5.159
		c0,2.195,0.569,3.953,1.704,5.273c1.136,1.32,2.624,1.982,4.466,1.982c0.829,0,1.684-0.166,2.557-0.496
		C113.997,95.355,114.788,94.891,115.477,94.302L115.477,94.302z M139.873,80.69L139.873,80.69l6.909,16.097l-1.196-0.069
		l-1.222,0.069c-0.443-1.283-0.911-2.559-1.405-3.822c-0.324-0.806-0.664-1.602-1.013-2.396h-5.85
		c-0.889,2.225-1.39,3.491-1.496,3.8c-0.289,0.797-0.55,1.603-0.782,2.417l-0.853-0.068l-0.805,0.068l7.184-16.096h0.53V80.69
		H139.873L139.873,80.69z M141.596,89.602L141.596,89.602l-2.552-5.895l-2.53,5.895H141.596L141.596,89.602z M165.927,82.071
		L165.927,82.071v6.402h1.176c0.337,0,0.651-0.007,0.943-0.023c0.293-0.015,0.576-0.054,0.851-0.115
		c0.859-0.185,1.567-0.564,2.119-1.14c0.556-0.577,0.832-1.293,0.832-2.152c0-1.659-0.846-2.627-2.535-2.902
		c-0.398-0.051-0.798-0.075-1.198-0.069H165.927L165.927,82.071z M163.903,97.02L163.903,97.02V81.265h4.88
		c1.748,0,3.042,0.288,3.869,0.863c0.829,0.575,1.243,1.455,1.243,2.637c0,1.244-0.492,2.258-1.473,3.04
		c-0.816,0.646-1.897,1.091-3.249,1.335l4.731,6.004l1.122,1.294l0.431,0.58l-1.334-0.071l-1.315,0.071l-1.448-2.006l-2.715-3.522
		l-1.845-2.164h-0.876v7.692l-1.013-0.071L163.903,97.02L163.903,97.02z M193.755,81.956L193.755,81.956v13.727
		c0.463,0,1.077,0.012,1.841,0.033l1.176,0.034c0.876,0,1.59-0.038,2.141-0.115c0.557-0.077,1.094-0.248,1.591-0.508
		c1.164-0.583,2.028-1.488,2.578-2.717c0.491-1.089,0.736-2.387,0.736-3.891c0-2.426-0.541-4.142-1.625-5.148
		c-1.079-1.005-2.927-1.509-5.538-1.509c-0.323,0-0.868,0.016-1.634,0.046C194.252,81.938,193.831,81.956,193.755,81.956
		L193.755,81.956z M191.729,96.72L191.729,96.72V81.034h6.793c1.442,0,2.542,0.123,3.294,0.369c0.66,0.215,1.271,0.56,1.796,1.012
		c0.825,0.672,1.464,1.544,1.854,2.535c0.407,1.013,0.61,2.088,0.61,3.224c0,1.52-0.271,2.862-0.804,4.029
		c-0.479,1.029-1.178,1.95-2.096,2.764c-0.662,0.567-1.486,1-2.477,1.3c-0.99,0.299-2.483,0.449-4.481,0.449h-4.489L191.729,96.72
		L191.729,96.72L191.729,96.72z M60.573,100.53L60.573,100.53v1.351l-0.189-0.014l-0.188,0.014v-2.942h0.771
		c0.417,0,0.707,0.053,0.867,0.154c0.161,0.105,0.24,0.287,0.24,0.551c0,0.252-0.078,0.45-0.232,0.587
		c-0.144,0.13-0.373,0.227-0.688,0.289c-0.049,0.01-0.099,0.017-0.151,0.018c-0.094,0.005-0.188,0.005-0.283,0
		C60.669,100.537,60.62,100.532,60.573,100.53L60.573,100.53z M60.573,99.102L60.573,99.102v1.261
		c0.038,0.004,0.078,0.006,0.115,0.004c0.028,0.003,0.055,0.004,0.083,0.004h0.154c0.023-0.005,0.049-0.008,0.073-0.009
		c0.213-0.02,0.379-0.093,0.499-0.22c0.12-0.125,0.181-0.284,0.181-0.477c0.006-0.134-0.033-0.266-0.111-0.375
		c-0.083-0.107-0.176-0.164-0.279-0.175c-0.082-0.009-0.163-0.013-0.244-0.015h-0.316L60.573,99.102L60.573,99.102z M77.12,98.875
		L77.12,98.875l1.289,3.005l-0.223-0.014l-0.228,0.014c-0.083-0.238-0.17-0.478-0.261-0.713c-0.062-0.151-0.125-0.299-0.189-0.448
		h-1.093c-0.165,0.416-0.258,0.651-0.28,0.711c-0.042,0.113-0.09,0.265-0.146,0.452l-0.159-0.013l-0.151,0.013l1.34-3.006H77.12
		L77.12,98.875z M77.439,100.539L77.439,100.539l-0.477-1.102l-0.472,1.102H77.439L77.439,100.539z M92.198,99.09L92.198,99.09
		v1.194h0.218c0.065,0,0.123-0.001,0.178-0.004c0.052-0.003,0.106-0.011,0.157-0.021c0.161-0.035,0.292-0.106,0.395-0.215
		c0.104-0.106,0.155-0.24,0.155-0.401c0-0.311-0.156-0.491-0.472-0.541c-0.075-0.01-0.15-0.014-0.225-0.012h-0.21H92.198
		L92.198,99.09z M91.82,101.88L91.82,101.88v-2.942h0.911c0.328,0,0.569,0.055,0.723,0.163c0.155,0.108,0.232,0.273,0.232,0.492
		c0.004,0.223-0.098,0.434-0.274,0.568c-0.153,0.12-0.355,0.203-0.607,0.249l0.884,1.12l0.209,0.242l0.081,0.108l-0.25-0.013
		l-0.246,0.013l-0.27-0.375l-0.506-0.657l-0.346-0.405h-0.164v1.436l-0.189-0.014L91.82,101.88L91.82,101.88z M108.043,101.88
		L108.043,101.88v-2.942h1.528l-0.016,0.125l0.016,0.125c-0.071-0.016-0.144-0.028-0.214-0.039
		c-0.059-0.006-0.118-0.011-0.174-0.011h-0.761v1.081h0.666c0.055,0,0.127-0.004,0.219-0.012c0.091-0.007,0.145-0.01,0.164-0.01
		l-0.014,0.111l0.014,0.121c-0.051,0-0.122-0.004-0.216-0.012c-0.055-0.004-0.11-0.009-0.167-0.011h-0.666v1.471l-0.189-0.014
		L108.043,101.88L108.043,101.88z M123.764,98.938L123.764,98.938v1.646c0,0.395,0.065,0.679,0.198,0.855
		c0.146,0.196,0.396,0.292,0.751,0.292c0.325,0,0.563-0.111,0.72-0.331c0.139-0.201,0.211-0.487,0.211-0.858v-1.605l0.12,0.015
		l0.119-0.015v1.711c0,0.416-0.111,0.732-0.335,0.953c-0.225,0.218-0.533,0.327-0.919,0.327c-0.402,0-0.713-0.101-0.932-0.302
		c-0.128-0.119-0.217-0.274-0.255-0.446c-0.04-0.171-0.059-0.348-0.055-0.526v-1.719l0.188,0.013L123.764,98.938L123.764,98.938z
		 M143.097,98.938L143.097,98.938h0.088c0.036,0.35,0.073,0.7,0.112,1.05c0.048,0.422,0.084,0.749,0.115,0.981
		c0.027,0.234,0.07,0.537,0.12,0.911l-0.2-0.013l-0.202,0.013l-0.07-0.822c-0.037-0.467-0.087-0.934-0.15-1.4
		c-0.175,0.318-0.324,0.591-0.454,0.828c-0.243,0.439-0.466,0.888-0.669,1.346h-0.049l-0.237-0.486
		c-0.088-0.188-0.182-0.372-0.276-0.559c-0.096-0.189-0.194-0.379-0.293-0.568c-0.103-0.186-0.2-0.372-0.298-0.561
		c-0.048,0.412-0.097,0.826-0.142,1.245c-0.041,0.324-0.064,0.649-0.068,0.975l-0.152-0.015l-0.153,0.015
		c0.062-0.372,0.137-0.902,0.237-1.587c0.096-0.686,0.155-1.139,0.176-1.354h0.112c0.15,0.293,0.272,0.532,0.364,0.718
		c0.272,0.518,0.556,1.032,0.853,1.536L143.097,98.938L143.097,98.938z M157.615,101.3L157.615,101.3h0.045
		c0.072,0.127,0.17,0.237,0.284,0.327c0.123,0.083,0.269,0.125,0.415,0.121c0.174,0,0.318-0.061,0.431-0.183
		c0.112-0.12,0.17-0.271,0.17-0.445c0-0.218-0.116-0.386-0.348-0.508c-0.216-0.095-0.433-0.191-0.649-0.287
		c-0.225-0.125-0.359-0.366-0.349-0.625c0-0.266,0.094-0.47,0.283-0.62c0.194-0.145,0.432-0.216,0.673-0.208
		c0.113,0,0.226,0.019,0.334,0.055c0.103,0.03,0.198,0.081,0.278,0.153c-0.02,0.042-0.037,0.086-0.053,0.129l-0.064,0.223h-0.042
		c-0.075-0.23-0.292-0.382-0.532-0.374c-0.143-0.002-0.28,0.047-0.387,0.141c-0.103,0.092-0.16,0.225-0.156,0.365
		c0,0.219,0.119,0.386,0.348,0.507c0.218,0.098,0.438,0.193,0.654,0.287c0.222,0.114,0.358,0.345,0.354,0.593
		c0.009,0.276-0.105,0.541-0.312,0.723c-0.209,0.178-0.479,0.269-0.753,0.257c-0.117,0-0.245-0.022-0.386-0.069
		c-0.118-0.033-0.225-0.095-0.314-0.18c0.021-0.063,0.035-0.121,0.043-0.174C157.598,101.454,157.606,101.385,157.615,101.3
		L157.615,101.3z M12.415,98.478L12.415,98.478h38.632v0.45H12.415V98.478L12.415,98.478z M167.445,98.478L167.445,98.478h38.632
		v0.45h-38.632V98.478z"/>
</g>
</svg>
