<?xml version="1.0" encoding="utf-8"?>
<!DOCTYPE svg PUBLIC "-//W3C//DTD SVG 1.1//EN" "http://www.w3.org/Graphics/SVG/1.1/DTD/svg11.dtd">
<svg version="1.1" id="Layer_1" xmlns="http://www.w3.org/2000/svg" xmlns:xlink="http://www.w3.org/1999/xlink" x="0px" y="0px" width="216px" height="216px" viewBox="0 0 216 216" enable-background="new 0 0 216 216" xml:space="preserve">
<path fill="#1C4882" d="M0.122,0.122h216v216h-216V0.122z"/>
<path fill="#FFFFFF" d="M72.829,139.341l-0.314,0.314c-4.985,5.076-10.757,7.77-16.696,7.77c-12.408,0-21.412-9.317-21.412-22.163
	c0-12.823,9.004-22.143,21.412-22.143c5.939,0,11.711,2.694,16.696,7.782l0.314,0.313l7.983-9.646l-0.213-0.268
	c-6.636-7.835-14.597-11.654-24.388-11.654c-9.825,0-18.808,3.313-25.274,9.275c-7.04,6.455-10.757,15.562-10.757,26.341
	c0,10.777,3.717,19.919,10.757,26.364c6.467,5.995,15.45,9.274,25.274,9.274c9.791,0,17.752-3.818,24.388-11.656l0.213-0.247
	L72.829,139.341L72.829,139.341z M88.874,159.575h14.103V90.758H88.874V159.575z M158.206,144.617
	c-3.772,2.293-7.264,3.459-10.419,3.459c-4.559,0-6.612-2.423-6.612-7.768v-36.526h14.36V90.825h-14.36V69.401l-13.823,7.401v14.023
	h-11.913v12.957h11.913v38.859c0,10.578,6.277,17.81,15.642,18.01c6.345,0.114,10.184-1.772,12.509-3.166l0.134-0.089l3.391-13.272
	L158.206,144.617L158.206,144.617z M169.873,159.575h14.113V90.758h-14.113V159.575z"/>
<path fill="#CC2131" d="M192.206,78.697c-12.879-18.243-34.269-29.125-56.028-29.125S93.028,60.454,80.172,78.697l-0.663,0.934
	h16.225l0.168-0.192c11.049-11.386,25.455-17.414,40.275-17.414c14.821,0,29.228,6.028,40.286,17.414l0.181,0.192h16.212
	L192.206,78.697L192.206,78.697z"/>
</svg>
