<?xml version="1.0" encoding="utf-8"?>
<!DOCTYPE svg PUBLIC "-//W3C//DTD SVG 1.1//EN" "http://www.w3.org/Graphics/SVG/1.1/DTD/svg11.dtd">
<svg version="1.1" xmlns="http://www.w3.org/2000/svg" xmlns:xlink="http://www.w3.org/1999/xlink" x="0px" y="0px" width="216px" height="216px" viewBox="0 0 216 216" enable-background="new 0 0 216 216" xml:space="preserve">
<g>
	<path fill-rule="evenodd" clip-rule="evenodd" fill="#FAC700" d="M108,216c59.484,0,108-48.516,108-108S167.484,0,108,0
		S0,48.516,0,108S48.516,216,108,216z"/>
	<path fill-rule="evenodd" clip-rule="evenodd" fill="#0099DA" d="M99.959,55.261l10.161,1.694h3.388v-1.271
		c0-3.417-4.214-5.928-8.045-5.928C102.568,49.756,100.191,52.461,99.959,55.261z"/>
	<path fill-rule="evenodd" clip-rule="evenodd" fill="#FAFAFA" d="M168.974,96.331l3.811-10.162v-1.694
		c-0.534-0.283-1.399-0.847-2.117-0.847c-1.407,0-2.632,0.714-4.233,0.847L168.974,96.331L168.974,96.331z M166.01,112.844
		l-1.869,11.902c0.438,0.979,0.992,1.646,2.716,1.646h0.424c5.597,0,2.391-7.294,2.117-10.585l-0.848-1.693l-1.787-1.6
		L166.01,112.844L166.01,112.844z M148.133,128.069c1.286,0.295,2.245,0.864,3.481,0.864c2.247,0,3.811-1.186,3.811-3.388
		c0-3.922-1.632-11.145-4.751-11.372L148.133,128.069L148.133,128.069z M145.263,84.476l4.658,11.855
		c1.491-1.093,2.117-3.369,2.117-5.928v-5.081c0-1.302-1.241-1.694-2.541-1.694h-0.424
		C147.252,83.629,146.778,84.123,145.263,84.476z"/>
	<path fill-rule="evenodd" clip-rule="evenodd" fill="#030200" d="M172.361,130.627c0-2.543-0.048-3.682-2.117-4.234
		c0.271-1.162,0.847-1.721,0.847-2.54c0-2.912-0.293-6.434-1.693-8.045c0.273,3.291,3.479,10.585-2.117,10.585h-0.424
		c-1.724,0-2.277-0.668-2.716-1.646l1.869-11.902l-1.693,8.892c-3.444-2.307-10.585-11.404-10.585-16.936
		c0-4.392,1.696-7.624,4.478-9.495c1.482-0.996,7.618-4.563,8.992-4.891l0.947,6.404l0.825-0.487l-2.54-11.855
		c1.602-0.133,2.826-0.847,4.233-0.847c0.718,0,1.583,0.564,2.117,0.847v1.694l3.811-4.658c2.111-2.429,2.117-6.412,2.117-11.008
		l-0.439,3.016l-1.678-0.475c0.138,1.655-0.256,1.286,1.271,1.693v1.271c0,2.417-1.08,3.226-1.271,5.504
		c-1.181,0.791-1.785,1.271-3.811,1.271c-1.499,0-0.522-3.123-0.847-3.811c-0.774-0.365-1.693,0.488-1.693-1.271v-1.27
		c0-2.314,4.043-10.74,5.081-12.702l-1.271-2.117v-2.541c-1.513,1.013-3.5,4.658-5.081,4.658h-0.424
		c-2.071,0-3.488-4.658-6.773-4.658h-1.271c-2.909,0-2.616,2.541-3.811,2.541c-1.127,0-2.27-1.102-2.541-2.117
		c-1.135,0.272-0.798,0.423-1.693,0.423c-1.695,0-2.104-0.873-3.811-1.27c0.813,3.044,3.227,2.471,5.168,3.724
		c1.505,0.971,1.82,2.77,4.262,4.63c3.046,2.321,9.623,3.617,9.623,8.159v0.847c0,1.975-6.325,4.234-7.621,4.234
		c-1.618,0-0.154,0.13-1.342-0.489l1.151-1.564l-0.232-0.911c-2.152,0.179-1.64,0.531-1.271,2.117h-1.271
		c-1.132,0-1.252,0.611-1.686,1.212l1.706,0.561l-5.876,1.213l0.904-2.946l-0.528-0.26l-1.651,2.987l0.253,0.478l-4.277-1.575
		l0.128-0.474l1.713-0.349c-0.083-0.996-0.383-2.117-1.271-2.117c-1.403,0-1.583,1.215-1.693,2.541h-0.847v-1.27
		c-3.081-0.069-1.331-0.88-3.532-1.549c-1.249-0.379-3.933-0.151-5.361-0.143c-2.517,0.013-8.619-1.755-9.313,0.845l1.877,0.138
		l-1.252,1.795l2.464,2.508l-3.557,2.142l1.314,0.191c-0.732,2.743-2.322,0.456-4.415,3.206c-1.264,1.662-2.254,3.051-4.51,3.824
		l1.833,0.376l-3.916,2.332l2.63,0.099l-2.207,2.441l1.741,0.041l-2.164,2.923h2.116c-0.511,0.764-0.847,0.744-0.847,1.693
		c0,1.171,0.327,1.019,1.271,1.271c-0.044,1.982-1.564,5.261-1.313,7.627l0.889,8.462v0.424c0,1.144-0.202,1.167-0.466,2.03
		l3.059-1.167l-0.459,1.729l1.772-0.457l-0.519,2.099l2.094-0.009l-0.39,1.201l4.149,0.482l-0.35,1.713
		c0.95-0.221,0.974-0.423,2.117-0.423l1.356,0.021l-0.514,2.075l2.521-0.412l-0.4,1.279l4.094,0.065l1.004,2.526l1.677-0.476v1.271
		l3.732,0.03l0.519,1.292l1.677-0.476l0.092,0.993l1.488-0.812l1.29,0.813l0.485-0.512l1.302,1.21v-1.27h1.694v0.847h0.847
		l0.175-1.107l1.519,1.53h0.847l0.132-1.539l2.212,1.074l0.006,0.51l0.191-1.314l0.76,0.021l0.651,2.195l1.976-2.217v2.117
		c0,1.192,0.184,0.783,0.735,1.227l1.583-3.466l1.401,2.229l0.663-3.074l1.545,1.814l0.336-3.21l1.781,2.363l0.146-2.224
		l1.125,1.377l0.152-2.281l1.117,1.011l0.424,1.271c1.213-0.889,1.162-0.098,0.339-1.778l0.932-0.763V130.627L172.361,130.627z
		 M166.01,112.844v-0.847c1.952,0.163,1.154,0.343,2.54,1.271v0.847l-1.787-1.6L166.01,112.844L166.01,112.844z M148.133,128.069
		l2.541-13.896c3.119,0.228,4.751,7.45,4.751,11.372c0,2.202-1.563,3.388-3.811,3.388
		C150.378,128.934,149.419,128.364,148.133,128.069L148.133,128.069z M145.263,84.476c1.516-0.353,1.989-0.847,3.811-0.847h0.424
		c1.3,0,2.541,0.392,2.541,1.694v5.081c0,2.559-0.626,4.835-2.117,5.928L145.263,84.476L145.263,84.476z M94.454,138.672
		l1.343-1.629c1.896-0.064,4.585-0.42,4.585-2.182c0-2.119-0.827-1.782-1.693-2.964l1.343-1.629
		c-0.779-1.029-1.767-1.112-1.767-1.759c0-0.896,0.151-0.558,0.424-1.693l-1.385-0.666l2.66-4.835
		c2.903,1.536,3.563,4.357,5.931,4.646c4.12,0.501,6.59-1.082,9.307,1.279l-6.767-0.512l-0.916,1.308
		c3.027,1.474,9.529-0.818,11.07,3.438c-0.832-0.439-1.249-0.847-2.541-0.847h-1.271c-0.975,0-1.27,0.295-1.27,1.271
		c0,1.731,4.165,2.077,5.928,2.117c-0.435,0.905-0.798,2.116,0.847,2.116h2.117c-0.252,1.08-0.872,2.117,0.847,2.117h2.964
		l-0.853,1.69l1.183,0.999l-0.417,1.946l2.204,0.022c0.817,0,0.753-0.134,1.27-0.424l-1.056,3.754l3.586-1.656l-2.306,5.862
		l2.308-1.199l0.009,2.131c0.832,0.44,1.248,0.847,2.54,0.847c1.078,0,1.952-1.439,2.964-2.117
		c-0.345,1.479-0.847,1.426-0.847,2.964v1.271l2.514-0.906l-0.489,1.729c4.006-0.063,2.279-1.439,4.327-2.939v2.117l2.05-1.755
		c-0.087,1.91-0.78,2.759-0.78,4.719c0,0.057,0.417,0.839,0.424,0.847l0.371,0.321l3.52-4.063l1.167,4.723l0.812,0.034l1.829-3.944
		l1.988,0.924l0.052-3.076l2.267,2.368l0.382-0.269l-0.479-2.955l3.099,3.999l0.404-0.16l0.347-2.973l1.511,0.982l0.283-1.461
		l1.69,1.974l0.235-2.775h1.27c1.509,0,1.125-0.932,1.694-2.117l3.278,1.496l0.108-4.884l1.193,1.327l-0.424-4.28l1.622,1.804
		l0.149-2.237h0.847l0.518-3.797c0.018-0.763-0.739-2.534-0.941-3.401c1.009,0.738,1.271,1.629,1.271,3.387
		c0,4.607-2.117,6.982-2.117,10.162c0,1.565,0.698,2.027,0.847,3.811h-5.504l1.153,3.023c-2.94-0.06-4.54-1.527-4.54,0.364v1.693
		h-1.694c-1.46,0-1.64-0.313-2.964-0.424v2.541h-1.271c-1.534,0-2.363-0.355-3.387-0.847l-2.29,1.943
		c-1.019-0.104-1.979-0.674-3.214-0.674c-1.306,0-0.697,1.547-0.424,2.117l-0.191,0.39l-5.782-2.835l-3.183,1.855l-0.158-1.527
		c0-0.976-0.295-1.27-1.271-1.27c-1.559,0-2.235,1.278-2.964,2.117v-3.812l-3.43,0.685l0.322-2.398l-1.55,0.021v0.847h-1.694
		l2.098,3.401l-3.355-0.51l1.72,2.581c-2.873-0.031-6.611-2.105-8.392-3.47c-2.639-2.022-4.045-4.76-5.619-5.813l0.763,4.254
		l-3.651-2.661l0.191,5.193l-3.565-3.488c-0.945,0.718-1.358,1.062-1.358,2.63c0,1.282,1.909,3.465,2.54,4.657
		c-3.838-0.894-7.197-6.678-7.197-11.008v-1.694l-2.058,0.958c0.913-3.756,5.345-6.1-0.483-5.615l2.955-7.015l-0.414-0.184
		c-1.394,1.604-1.454,4.003-4.234,4.234l-0.838,4.236c-0.882-0.206-2.239-0.282-3.474-0.42c0.053-0.181,0.077-0.388,0.077-0.605
		v-0.847c0-1.209,0.959-1.479,1.694-2.117v-0.423l-4.234,2.117c0.04,0.485,0.174,1.024,0.394,1.481
		c-0.549-0.196-0.879-0.472-0.817-0.883l0.423-3.811L94.454,138.672L94.454,138.672z M118.754,153.946l0.743,0.764l0.28-0.394
		l5.241,3.802l-0.511-1.188l2.839,0.421l-0.714-2.589h2.541l-0.06-2.222l-3.751,1.798l0.054-2.816L118.754,153.946L118.754,153.946z
		 M26.286,62.035l0.034,5.502l0.108,2.493l2.399,6.401c0,4.843,2.117,4.693,2.117,6.351v1.693l0.884,0.007l-0.46,2.957h0.847
		c-0.716,8.603-0.314,8.333-4.587,14.749l2.894,3.034c-1.566,2.338-1.359,0.047-2.481,3.445c-0.638,1.932-2.176,2.767-2.176,4.176
		c0,1.789,2.117,2.568,2.117,3.387c0,2.827-1.21,2.811-1.249,5.592l2.17-0.477l-2.624,6.718l1.279-0.4
		c-0.167,2.006-2.117,5.391-2.117,7.198v0.847c0,0.692,0.253,1.271,0.847,1.271c1.335,0,4.405-2.868,6.351-3.388v-0.847
		l-1.453-0.138l1.453-1.979h-2.964c0.664-2.484,2.572-1.796,3.302-5.166c0.331-1.527,0.382-2.049,0.516-3.718
		c0.117-1.463,1.262-3.344,1.262-3.395c0-2.59-6.351-5.11-6.351-6.352c0-1.149,3.53-5.928,4.234-5.928
		c2.622,0,3.331,2.118,3.387,4.657c2.414-1.616,2.238-2.39,3.717-4.75c2.402-3.832,3.35-1.05,3.057-4.564h0.847v-0.847h-0.847
		l0.117-0.711l1.577-1.829h-0.847c0.18-2.162,2.117-2.692,2.117-4.658c0-0.97-0.144-0.492-0.326-1.596l2.443-2.638
		c-0.221-0.95-0.424-0.974-0.424-2.117c0-1.405,0.847-0.884,0.847-1.693c0-1.381-0.219-1.395-0.847-2.117
		c0.408-0.609,1.694-2.211,1.694-2.964l0.036-1.183l2.468-1.022l0.265-0.349l-2.757-1.621l1.17-0.31L44.896,72.7l5.869,1.5
		l0.155-0.499l-6.004-2.351l0.042-0.97l4.615,1.394c-1.557-2.325-5.166-3.503-5.974-6.691l5.951,2.905l-5.47-5.547l6.038,3.875
		l0.301-0.47c-2.108-1.832-5.634-4.943-5.927-8.468c2.247,2.585,2.576,5.274,7.104,6.403L49.1,58.724l3.631,2.39l0.312-0.428
		l-2.144-2.703l1.297,0.163l-2.191-2.438l-1.233,0.367l-1.74-2.084l-0.134,1.447l-2.696-2.046l-0.388,0.663l-0.998-0.521
		l-0.149,0.563l-5.918-1.223l2.23,1.781l-3.686,0.23l-0.541,2.071l-1.349,0.03l0.411,1.386l-1.602-0.993l-1.736,0.086l2.583,1.607
		l-2.181,0.191l2.278,0.687l-0.564,1.783l-0.495,0.053l1.888,1.128l-0.371,1.014l4.147,2.575l-1.315,0.191l0.021,0.761l2.159,0.7
		l-1.037,0.397l1.82,1.106c-0.739,3.487,1.336,0.123,1.693,3.387l1.417,0.091l-0.994,1.602h1.271c0,2.667,0.847,2.595,0.847,3.811
		c0,0.97-0.144,0.493-0.372,1.755l1.168-0.97l0.462-0.051l0.859,4.165l-1.545,0.087l-0.995-1.176
		c0.374,1.603,1.694,3.054,1.694,3.811l-0.037,2.628l-2.595-0.844l1.06,1.229l0.724,4.608v0.847c0,1.192-0.183,0.784-0.847,1.27
		l0.422-0.34l-2.962-3.471h0.847l0.306-0.433l-6.643-5.097l5.699,2.978l0.465-0.741l-5.785-4.721l-3.963-4.086l0.284-0.322
		l6.829,4.763l0.519-0.635l-2.431-2.058l1.063-0.466l-2.67-1.452l0.384-1.228l-1.4-0.714l-4.511-4.842V71.35l0.363-0.388
		l-1.734-1.621l0.588-0.362l-0.487-1.016c0-3.262-0.847-3.349-0.847-5.081v-3.811c0-6.222,3.208-7.999,3.387-10.162
		C27.815,51.004,26.286,56.743,26.286,62.035L26.286,62.035z M60.582,136.555h-0.424l-0.423,2.117l1.356,0.021l-0.459,2.157
		l1.306-0.887l-0.351,2.228l2.302-2.68l-0.305,5.124l2.924-2.577c1.036,4.445,3.725,1.636,4.005,5.646l2.77-3.529l0.066,5.118
		l5.861-9.775v-0.847l-4.234,3.387c0.512-2.196,0.7-1.465,1.791-2.866c1.173-1.508,0.378-2.201,0.917-4.164
		c1.087-3.96,1.14-4.235,2.911-7.546l-1.385-0.666c0.344-4.127,4.557-3.536,4.658-8.045c-1.74,0.145-0.946,0.424-2.541,0.424
		c-2.377,0-0.653-3.811-3.387-3.811c-3.204,0-7.198,3.318-7.198,6.351v1.694c0,3.132,4.234,9.625,4.234,15.242
		c0,1.541-1.911,3.952-2.964,4.657v-3.811c-1.187-0.569-2.117-0.186-2.117-1.693v-0.847c0-1.854,1.468-0.677,1.693-3.389
		l-9.134,4.593l-0.327-0.449l0.902-1.749l-1.625,1.029L60.582,136.555L60.582,136.555z M79.211,138.672v0.847l-1.281,6.339
		l2.641-2.463l0.412,0.369l-0.47,4.246l2.085-2.141l0.019,2.566l2.201-1.22l-1.862,2.536l-1.628-1.342
		c-0.722,0.483-1.693,0.921-1.693,2.117v2.964c4.456-0.1,7.198-2.896,7.454-7.655l0.228,1.774l2.937-3.741l0.39,0.307l0.1,1.74
		l2.017-3.857l1.693-3.387l-2.964,3.387l0.049-1.642l-3.943,3.697l-0.486-0.453l1.004-1.561l-3.822,0.806
		c2.666-2.317,10.526-8.038,11.371-11.271l-2.62-1.062l2.257-6.722c-3.138,0.731-9.886,4.739-10.161,8.045h1.27
		c-1.482,2.214-4.147,4.563-4.293,8.216l-2.238,0.61l1.718-5.552L79.211,138.672L79.211,138.672z M60.158,136.555
		c-1.012,0.678-1.886,2.117-2.963,2.117c-0.976,0-1.271-0.295-1.271-1.271v-0.847c0-1.321,0.774-2.45,1.271-3.387
		c-2.08,0-5.081,0.671-5.081-1.271v-2.117H50.42l0.483-4.65l0.427,0.818l2.035-1.274l0.019-2.515
		c2.344-1.569,4.549-2.541,8.468-2.541l-2.529,3.819c1.105,0.545-0.36,0.415,1.259,0.415h2.54l-0.958,2.058l3.499,0.06l0.329,0.313
		l-3.524,3.7l3.215,0.983c-1.339,2.057-4.075,1.752-5.1,5.589H60.158L60.158,136.555z M77.998,48.036l-2.597-0.819l-0.066,1.891
		l-5.199-1.404l1.024,3.375l-3.913-0.421l1.352,3.436l-3.753-1.051l-0.308,0.291l1.971,3.208l-3.588-0.347l1.481,3.249l-2.955-0.479
		l-0.322,0.357l3.268,3.985c-1.325-0.11-1.504-0.424-2.964-0.424l-1.506,0.137l1.506,2.827c-1.324-0.11-1.504-0.423-2.964-0.423
		h-1.27l-0.266,0.442l4.5,2.945l-3.058,0.151l2.635,1.966h-2.964v0.847h1.27c1.192,0,0.784,0.184,1.25,0.745l-2.647,0.752
		l2.244,1.043v0.847c-2.119,0.494-3.706,0.139-3.961,1.822l2.199,2.028l-0.289,0.457l1.707-1.373l-0.447-1.107l4.712-2.025
		l-2.223-1.479l2.113-0.438l-0.014-0.783l-2.58-0.595l1.735-1.103l-1.241-0.375l2.955-0.479l0.251-0.458l-3.224-2.127l4.214,0.292
		l0.135-0.439l-2.667-2.348l5.618,1.105l-3.064-3.285l3.369,0.539l0.346-0.45l-4.6-4.647l4.572,1.898l0.272-0.376l-1.829-3.823
		l3.843,0.487l-2.187-3.709l4.458,1.068l-2.279-4.19l4.599,1.785l-0.426-2.491l3.324,1.419l0.344-0.314l-1.588-3.673l0.298-0.481
		l-2.157-0.708L77.998,48.036L77.998,48.036z M140.183,37.478l3.024,3.015l-1.114,1.504l5.216,4.101l-9.778-4.203l4.769,3.204
		c-5.83-0.485-7.512-4.69-11.008-5.504c2.303,3.439,12.707,9.292,19.023,8.861c3.292-0.225,7.174,1.61,10.702,2.483
		c4.064,1.007,7.007,3.706,9.65,4.322c-2.454-3.35-9.507-4.52-14.218-6.105c-6.54-2.201-8.436-4.184-13.303-7.443
		c0.236-0.341,0.847-1.045,0.847-1.271c0-5.673-16.155-10.162-23.711-10.162c-3.069,0-4.54,0.485-7.21,0.445
		c-2.807-0.043-4.124-1.292-6.339-1.292c-5.023,0-20.378,4.613-22.864,6.774c2.136-0.178,7.186-2.727,10.558-3.415
		c3.748-0.765,7.371-2.513,11.883-2.513c1.162,0,2.248,0.393,2.964,0.847h-4.657c3.253,2.064,7.812-0.393,12.814,4.545
		c2.643,2.608,5.165,7.31,10.05,7.31h1.693c-0.056-2.481-5.785-5.968-7.621-7.198c0.898,3.368,3.145,3.398,5.08,5.081
		c-3.129,0-5.142-2.399-6.881-4.127c-3-2.981-2.091-2.595-5.813-5.127l4.65-0.483h2.116
		C126.96,31.126,137.795,33.913,140.183,37.478L140.183,37.478z M96.995,87.439c-0.735,0.639-1.694,0.908-1.694,2.117v0.847
		c0,0.693-0.253,1.271-0.847,1.271c-1.007,0-1.6-1.416-1.693-2.541l4.234-2.117c0.667-0.489,1.27-0.982,1.27-2.117
		c0-4.288-1.311-4.844,1.581-7.734c1.048-1.047,4.569-4.539,5.193-5.392c-4.555,1.062-5.65,4.591-8.786,7.727
		c-4.724,4.724-4.299,3.462-6.009,10.895l0.4,1.279c1.165,0.026,2.964,0.295,2.964,1.27c0,0.949-0.335,0.929-0.787,1.805
		l1.841-0.937l1.486,13.528l0.775-0.012l0.495-3.375c0.785-0.21,2.15-0.841,2.053-1.691l0.064-3.813h-1.271v-2.117
		c0.955-0.255,2.541-1.121,2.541-2.117c0-1.144-0.202-1.167-0.424-2.117c0.44-0.832,0.847-1.249,0.847-2.541v-2.117H96.995
		L96.995,87.439z M132.217,66.663l-0.479-1.249c3.133,0.079,2.376,0.914,3.364,2.973c4.825,0,6.882,1.694,8.045,1.694
		c0.282,0,1.579-1.333,2.116-1.694l3.334,2.195l3.388-1.125c0.22,0.824,0.62,2.014,1.323,1.895l3.375-0.496
		c1.108,2.143,1.136,2.189,4.246,2.189c0.917,0.614,1.41,1.27,2.964,1.27h1.271v1.271l-6.687-1.315l-0.088,0.468
		c-0.483-0.722-0.921-1.693-2.117-1.693c-0.81,0-0.288,0.847-1.693,0.847c-0.949,0-0.93-0.335-1.693-0.847
		c-1.116,0.553,0.348,0.423-1.271,0.423c-0.013,0-2.095-1.068-2.964-1.27c-0.627,1.185-0.682,1.693-2.541,1.693
		c-1.418,0-1.617-1.212-4.233-1.271c-0.553,2.07-2.058,2.541-4.657,2.541v-1.27h-3.811c-4.897,0-8.932,2.085-12.703,2.964
		c1.124-1.534,1.889-0.96,2.817-1.841c1.54-1.46-0.751-2.183,2.229-2.431c2.296-0.191,5.467,0.461,8.502,0.461h1.271
		c1.174,0,3.943-1.33,5.505-1.694v-1.27l-9.727-1.032l-0.972-1.88L132.217,66.663L132.217,66.663z M40.613,116.178l8.775-11.101
		l1.529,10.299l-3.977,4.152l2.611-0.435l-1.471,5.966l1.912-0.789l0.293,0.314l-3.485,3.282l0.861-3.093l-3.167,1.624
		c-0.663-0.447-1.274-0.566-1.274-1.699v-0.424l0.98-7.177c-0.045-0.585-0.762-0.868-1.403-0.868L40.613,116.178L40.613,116.178z
		 M91.914,35.361c0.379-0.764-0.146-1.271,1.27-1.271c3.686,0,4.729,1.271,7.622,1.271c2.153,1.442,2.521,0.703,3.886,1.188
		c1.822,0.649,1.085,1.955,3.312,2.199c0.405,1.74,1.026,3.166,2.541,2.541l0.19,1.315l0.671-2.158l1.348,2.929
		c0.571-0.455,0.755-0.046,0.755-1.239v-2.117h0.847v2.117l1.37-2.926l1.293,3.047l2.001-3.346l0.562,0.288l-0.941,5.063
		l2.168-3.173l0.322,3.587l2.007-2.205l-0.404,3.035l2.148-0.941l0.261,0.349l-2.98,2.521l-0.185-1.488h-0.847v0.847h-0.847v-1.27
		l-2.099,1.295l-0.537-2.124l-1.51,0.952l-0.606-2.65l-1.802,2.675l0.298,1.95c-1.929-1.325-3.337-5.182-5.503-6.091
		c-0.119-0.05-5.862-3.81-6.024-4.052l-0.206,0.422l-3.236-1.579c-3.229-0.041-3.454,0.265-4.179,1.58l-2.953-0.515l-1.639-1.251
		l-2.606,0.072l-0.057-0.501L91.914,35.361L91.914,35.361z M72.437,100.989c0,2.549,2.541,5.54,2.541,7.621v2.541h2.117
		c3.215,0,4.657-4.041,4.657-7.198c0-1.725-3.577-2.198-4.657-3.811c0.373-1.599,0.847-2.648,0.847-4.657v-0.847
		c0-1.192-0.183-0.784-0.847-1.271C76.242,93.992,72.437,99.525,72.437,100.989L72.437,100.989z M53.384,83.206
		c0-1.603,1.944-3.127,2.964-3.811c-0.271,1.163-0.847,1.721-0.847,2.541c0,1.495,3.432,0.423,5.081,0.423l-4.904,2.898l0.258,0.443
		l5.073,1.3l-3.762,1.851l2.442,0.868l-3.298,3.265l0.378,0.368l3.797-0.521c-0.522,2.128-4.353,4.771-6.759,4.771h-2.964
		l-0.368-0.322l2.571-2.938l0.338,0.296V88.71l1.53-1.519l-1.95-1.027l0.905-1.214C53.486,84.229,53.384,84.291,53.384,83.206
		L53.384,83.206z M55.078,104.376v1.27c0,1.509,1.536,1.464,2.541,2.963c-0.237,0.342-0.847,1.046-0.847,1.271
		c0,0.975,0.295,1.27,1.271,1.27c2.329,0,4.234-0.561,4.234-2.964v-1.693c0-0.974-3.694-8.045-3.811-8.045
		C56.729,98.448,55.078,102.258,55.078,104.376L55.078,104.376z M63.969,114.114c0-2.876,1.716-6.774,4.658-6.774h1.27
		c0.198,2.37,1.468,5.461,0.276,7.473c-0.669,1.13-2.846,4.806-4.086,4.806c-0.889,0-2.117-2.556-2.117-3.811V114.114
		L63.969,114.114z M68.626,78.125c0-0.887,1.676-1.492,2.541-1.693l-1.342,1.628l1.032,2.131l-1.807,0.051l1.343,2.49
		c-1.188,0.604,0.276,0.474-1.343,0.474h-2.541c0.416,1.557,1.41,1.649,3.387,1.694v0.847l-4.171,1.432l3.576,2.47
		c-2.434,1.793-5.755,1.136-5.755,2.872c0,0.902,0.959,2.054,1.27,3.387c-1.384-0.926-2.964-2.869-2.964-5.081
		c0-1.878,2.272-1.271,4.234-1.271l-1.621-1.016l0.387-0.655l-2.589-0.398l0.012-1.318l1.677-0.475l-1.326-1.577l-0.067-0.435
		l3.897-1.465l-0.422-1.536l2.957-1.052C68.77,78.617,68.626,79.095,68.626,78.125L68.626,78.125z M69.473,43.829
		c6.638,0,5.663-3.388,11.855-3.388c-1.472,1.28-11.937,5.928-14.819,5.928c-1.161,2.195-5.819,5.081-8.468,5.081
		c-1.033,0-7.103-2.466-8.045-2.964l-0.211-0.847l-1.881,0.516l0.895-0.822c-1.146-0.367-4.797-1.387-5.577-1.387
		c-5.621,0-7.077,1.201-11.008,2.117c1.092-1.491,5.001-2.541,7.621-2.541h2.541c7.019,0,12.501,5.081,15.666,5.081
		c2.776,0,5.172-4.148,7.198-5.504h2.541L69.473,43.829L69.473,43.829z M115.201,84.476c3.336-2.233,0.689-4.257,5.504-4.657
		l-2.925,3.02l0.472,0.224l2.11,1.281c-7.369,0.74-7.664,7.672-10.665,9.871V91.25l3.854-8.874l-0.377-0.273l-4.018,5.247
		c0.117-3.305,2.436-5.838,5.198-5.838C115.477,81.512,115.201,83.322,115.201,84.476L115.201,84.476z M76.236,53.041l3.81-0.43
		l-2.227,2.074l1.742,1.168l0.073,0.678l-1.677,0.475c-0.188,2.003-0.547,1.597-2.557,2.065l0.502,1.24l-0.956,0.974l0.379,0.307
		l-0.441,1.689l-2.032,0.856l0.007,0.862h0.847v1.271l-3.307,2.626l1.246-3.446l-1.327-0.027l2.338-2.344l-0.624-0.26l1.155-0.932
		l-1.7-1.413c1.659-2.461,4.758-1.884,4.758-5.213L76.236,53.041L76.236,53.041z M83.446,72.197l-2.162,1.598l3.553,0.995
		l-0.006,0.543l-1.761,1.169l0.455,1.168l-2.982,1.428l-0.061,0.719h0.847l-3.639,2.802l0.711-1.643l-0.729-0.603l2.846-2.634
		c-1.896-0.194-3.418-0.55-3.847-2.156h2.964l-1.794-1.561L83.446,72.197L83.446,72.197z M101.229,81.936
		c0.521-2.235,4.325-8.045,6.774-8.045c0.594,0,0.848,0.577,0.848,1.27v1.694c0,1.679-4.325,5.081-6.352,5.081H101.229
		L101.229,81.936z M116.472,65.846c1.297-1.937,5.148-4.416,8.044-4.657c-2.625,3.92-5.08,6.722-5.08,13.549
		c-3.742,1.98-2.359,2.806-4.234,5.504c0.108-4.851,5.504-11.817,5.504-15.243C120.705,62.903,117.252,65.638,116.472,65.846
		L116.472,65.846z M86.41,124.275h1.694c0.837,0,4.551-4.29,5.081-5.08c-0.535-0.283-1.4-0.847-2.117-0.847
		C87.823,118.349,83.264,124.275,86.41,124.275L86.41,124.275z M83.022,91.25c0,0.97,0.144,0.492,0.423,1.694
		c2.682-0.06,2.745-0.95,3.691-2.553l0.542-5.068h-1.27C84.511,85.323,83.022,89.239,83.022,91.25L83.022,91.25z M127.48,59.495
		c3.386-5.056,9.363-4.657,16.936-4.657c-1.273,1.738-6.648,1.655-8.991,2.017C130.138,57.67,130.521,58.683,127.48,59.495
		L127.48,59.495z M87.307,76.643l-1.794-0.423c2.13-0.211,5.131-0.883,5.131,1.059v0.423c0,1.878-2.272,1.271-4.234,1.271
		c-1.291,1.927-0.806,3.596-3.387,3.811v-1.693C83.022,78.589,85.21,77.331,87.307,76.643L87.307,76.643z M65.239,73.891
		c1.164-0.271,5.322-1.649,6.725-2.167c3.508-1.292,2.315-1.919,4.284-4.185c0,4.388-3.629,5.943-7.198,6.774l1.794,1.561
		l-0.184,0.456l-5.467-1.417L65.239,73.891L65.239,73.891z M85.986,97.178v1.694c0,0.818,0.755,1.694,1.27,1.694
		c1.282,0,2.56-0.396,2.443-1.692l0.098-4.235C87.696,94.638,85.986,95.298,85.986,97.178L85.986,97.178z M69.896,96.331
		c0.069-3.102,0.246-5.857,3.388-5.928l-0.064,5.083L69.896,96.331L69.896,96.331z M83.446,72.197l-6.318,1.403l-0.15-0.543
		l4.866-1.387c-0.869-0.502-3.916-0.742-4.133-1.251c-0.455-1.068,1.361-1.804,2.348-2.034l-0.516,1.669l1.786,0.024
		c1.946,0,2.982,0.177,3.387,1.693L83.446,72.197L83.446,72.197z M140.183,37.478l2.246,2.861l-14.292-6.258l0.325-0.722
		l10.439,4.567l-1.332-1.653L140.183,37.478L140.183,37.478z M113.084,77.278c0-4.224,1.704-9.684,5.081-10.585
		C118.077,67.021,113.303,77.027,113.084,77.278L113.084,77.278z M83.022,111.574c0,1.426,0.748,2.963,2.117,2.963
		c1.132,0,1.252-0.611,1.531-1.227l-0.684-3.43h-1.271C83.725,109.881,83.022,110.582,83.022,111.574L83.022,111.574z
		 M90.644,81.512c1.047-3.922,4.526-4.695,5.504-8.892h1.271l0.4,1.279l-1.646,0.507l0.451,1.584
		C92.635,77.059,94.775,80.549,90.644,81.512L90.644,81.512z M86.833,102.682v2.117c0,0.818,0.755,1.694,1.271,1.694
		c1.05,0,1.693-1.167,1.693-1.694c0-0.914-0.445-2.964-1.271-2.964C88.122,101.835,88.088,102.311,86.833,102.682L86.833,102.682z
		 M139.335,63.729c0-0.593,0.577-0.847,1.271-0.847h1.271c1.379,0,1.633,1.202,2.117,2.117c-0.535,0.283-1.4,0.847-2.117,0.847
		C140.797,65.846,139.335,64.931,139.335,63.729L139.335,63.729z M150.344,57.378h4.658v-1.16l-8.045-0.111
		C147.695,57.116,148.586,57.378,150.344,57.378L150.344,57.378z M77.518,84.052c-0.635,0.152-1.27,0.093-1.27,0.847
		c0,0.581,0.883,1.011,1.27,1.27v0.847v1.271c0.714-0.496,0.847-0.061,0.847-1.271v-0.847c0-1.619,0.13-0.154-0.39-1.224
		l2.069-1.675l-2.526-0.488V84.052L77.518,84.052z M130.443,47.64c0-0.693,0.254-1.271,0.848-1.271c0.515,0,1.27,0.876,1.27,1.694
		c0,1.011-3.012,3.484-4.233,3.811c0.678-1.012,2.116-1.886,2.116-2.964V47.64L130.443,47.64z M97.842,108.187
		c0-1.376,0.366-0.319,0.847-2.117h0.847l0.461,2.957l-1.585,1.466C98.044,109.354,97.842,109.33,97.842,108.187L97.842,108.187z
		 M149.073,66.27c0.513-0.199,1.45-0.424,2.117-0.424c0.976,0,1.271,0.295,1.271,1.271c0,0.593-0.577,0.847-1.271,0.847
		C149.892,67.963,149.37,67.379,149.073,66.27L149.073,66.27z M134.678,63.729c0.131-1.535,0.524-1.694,2.117-1.694
		c1.132,0,1.252,0.611,1.693,1.271c-1.115,0.553,0.349,0.423-1.27,0.423H134.678L134.678,63.729z M144.416,65.422
		c0.347-0.339,1.007-0.847,1.693-0.847c0.977,0,1.271,0.294,1.271,1.27c0,0.593-0.577,0.847-1.271,0.847h-1.27L144.416,65.422
		L144.416,65.422z M99.111,112.42v0.848c0,1.171,0.327,1.018,1.271,1.27c0.189-2.279,0.847-1.24,0.847-2.117
		c0-0.359-0.91-1.27-1.27-1.27C99.365,111.15,99.111,111.728,99.111,112.42L99.111,112.42z M89.374,109.457l0.023,0.838l0.546,1.467
		l1.533-1.451l-0.832-2.124C89.7,108.438,89.374,108.285,89.374,109.457L89.374,109.457z M91.067,113.691l0.012,0.822l1.681,0.871
		l-0.017-2.912l-1.677-0.476V113.691L91.067,113.691z M174.901,75.584v-0.847h1.693v0.847H174.901L174.901,75.584z M173.208,79.818
		v-1.271h0.847L173.208,79.818L173.208,79.818z M93.607,39.171c0.513-0.199,1.45-0.423,2.117-0.423h4.657
		c2.311,0,6.603,2.29,7.621,3.811l-4.637-1.343l-0.021,0.919h-2.964l0.908,1.219c-1.011-0.17-1.035-0.373-2.179-0.373h-2.964v0.847
		L93.176,44.2l1.304,2.15l-4.271,0.319l0.844,2.247l-1.698,0.342l0.89,1.755c-0.286,0.404-0.87,1.03-0.87,1.283
		c0,1.079,0.916,2.541,2.117,2.541h1.271c2.245,0,8.313-8.468,12.702-8.468h0.847c6.296,0,14.501,7.231,18.206,6.774l18.156-2.528
		l0.897,0.411c1.667,0,2.817,0.216,3.811,0.847c-5.138,0-8.998-0.199-13.129,0.843c-3.822,0.963-7.437,2.757-10.158,3.391v0.847
		h0.847l0.25,0.419l-8.173,4.866c0.499,1.3-1.522,1.376-3,2.846c-1.979,1.969-0.264,1.963-3.325,3.449
		c-5.005,2.428-4.102,1.97-11.156,1.97l1.794-1.561l-3.064-0.133v-0.423l5.095-0.774l-0.878-1.326l5.953-0.328l-0.008-0.959
		l-1.315-0.191l2.59-0.636l-0.869-1.274c2.666-0.017,13.174-6.841,13.99-8.061c-1.907-0.788-6.955,3.811-10.585,3.811h-7.198
		l-5.497-0.49l1.909,1.94l-3.187,0.244l0.958,2.058c-1.227,0.612,0.237,0.482-1.381,0.482h-1.271v1.694h-1.271l0.517,1.669
		l-1.787,0.024l1.035,3.328l1.741,1.517l-2.301-0.724l-1.802-3.906c0.344-1.134,0.631-2.592,2.597-2.755l-1.295-2.098l2.565-0.019
		l-2.481-1.396l1.816-1.88c-1.499-2.063-5.466,2.327-5.686,4.97h1.694c-0.564,2.113-2.117,1.798-2.117,3.387v2.117l-2.148-0.781
		l0.031-3.029l-2.818-1.545l0.725-1.406l-1.203-1.374l-2.611,0.616c2.238-3.474,7.179-1.6,9.295-4.759
		c-1.616-0.855-3.811-2.242-3.811-4.658v-1.27l-1.384-0.666c0.626-0.945,0.961-0.925,0.961-1.875c0-0.225-0.61-0.929-0.847-1.271
		l2.124-0.828l-0.915-1.238l3.021-1.331l-1.173-0.985l-0.093-0.698C91.857,41.035,94.078,41.392,93.607,39.171L93.607,39.171z
		 M99.959,55.261c0.232-2.799,2.609-5.504,5.504-5.504c3.831,0,8.045,2.511,8.045,5.928v1.271h-3.388L99.959,55.261L99.959,55.261z
		 M104.616,55.684c0-1.358-0.115-2.117,1.27-2.117c1.509,0,1.125,0.93,1.694,2.117H104.616z"/>
</g>
</svg>
