<?xml version="1.0" encoding="utf-8"?>
<!DOCTYPE svg PUBLIC "-//W3C//DTD SVG 1.1//EN" "http://www.w3.org/Graphics/SVG/1.1/DTD/svg11.dtd">
<svg version="1.1" id="Layer_1" xmlns="http://www.w3.org/2000/svg" xmlns:xlink="http://www.w3.org/1999/xlink" x="0px" y="0px" width="216px" height="216px" viewBox="0 0 216 216" enable-background="new 0 0 216 216" xml:space="preserve">
<rect fill-rule="evenodd" clip-rule="evenodd" fill="#FFFFFF" width="216" height="216"/>
<path fill-rule="evenodd" clip-rule="evenodd" fill="#00A651" d="M107,148c-36.169,0-65.5-29.332-65.5-65.499
	c0-36.169,29.331-65.5,65.5-65.5c36.168,0,65.5,29.331,65.5,65.5C172.5,118.668,143.168,148,107,148L107,148z M0,0.001V216h216
	V0.001H0z"/>
<path fill-rule="evenodd" clip-rule="evenodd" d="M107.262,26.231c9.65,0,18.738,2.399,26.709,6.627
	c-3.469-1.063-7.102-1.629-10.842-1.629h-0.157h-0.118c-1.943,0-3.895,0.138-5.837,0.407c-3.161-0.594-6.421-0.907-9.755-0.907
	c-17.988,0-33.868,9.037-43.353,22.816c5.25-2.033,12.189-2.703,20.49-2.288c0.523,0.026,1.074,0.065,1.646,0.118
	c-0.666,1.114-1.292,2.269-1.876,3.459c-9.998-1.188-19.196,0.632-24.188,5.433c-3.403,6.962-5.314,14.787-5.314,23.058
	c0,1.771,0.088,3.52,0.259,5.244c0.033,0.036,0.051,0.104,0.051,0.211c0,0.129,0.006,0.269,0.018,0.417
	c0.024,0.213,0.047,0.424,0.073,0.636c0.298,2.044,1.256,5.054,1.677,6.307c2.739,8.141,13.508,11.704,25.792,10.637
	c0.091,0.254,0.184,0.506,0.279,0.759c0.345,0.912,0.701,1.804,1.07,2.676c-10.544,0.48-18.848-0.834-24.232-4.515
	c8.408,17.858,26.566,30.225,47.609,30.225c0.503,0,1.003-0.009,1.503-0.024c3.892,1.601,8.057,2.548,12.438,2.737l0.041-0.011
	l0.233,0.011c-4.545,1.165-9.308,1.785-14.215,1.785c-31.527,0-57.093-25.567-57.093-57.094c0-7.027,1.273-13.758,3.597-19.977
	l0.042-0.115c0.068-0.187,0.14-0.371,0.212-0.552C62.296,41.355,83.015,26.231,107.262,26.231L107.262,26.231z M90.401,52.032
	c-0.65,1.137-1.271,2.311-1.857,3.516c5.309,1.146,12.093,3.871,17.065,11.139c2.479,3.623,3.021,8.278,5.316,14.604
	c1.186,3.265,4.057,5.747,7.145,7.813c0.154,0.104,0.311,0.206,0.469,0.308c-10.263,8.15-22.913,15.282-31.493,16.776
	c-0.255,0.045-0.509,0.086-0.764,0.127c0.499,1.188,1.035,2.336,1.602,3.448c10.241-1.882,23.59-9.453,34.263-18.303
	c5.32,2.678,10.709,4.104,12.242,4.655c1.277,0.457,7.484,2.871,10.654,3.765c-0.844-1.496-1.604-3.099-2.261-4.838l-0.124-0.331
	c-0.482-0.192-0.971-0.363-1.457-0.493c-4.503-1.211-10.703-2.296-16.141-5.266c5.439-4.863,9.951-9.976,12.635-14.653
	c-0.176-2.5-0.189-5.013-0.053-7.512c-0.814,1.583-2.625,4.304-3.254,5.538c-2.216,4.354-6.896,9.501-12.668,14.458
	c-0.9-0.696-1.761-1.467-2.564-2.325c-6.646-7.098-8.121-20.889-15.251-26.392C99.554,54.709,94.693,52.928,90.401,52.032z"/>
<path fill-rule="evenodd" clip-rule="evenodd" fill="#00A651" d="M133.697,32.858c18.07,9.587,30.385,28.591,30.385,50.467
	c0,26.619-18.229,48.989-42.88,55.309c-4.388-0.19-8.56-1.139-12.458-2.744l0.15-0.007c-4.609-1.713-8.855-4.229-12.367-7.398
	c-6.06-5.466-10.429-12.249-13.712-20.949c-1.651-4.376-2.709-8.999-3.427-13.846c-0.332-0.406-0.673-0.817-1.026-1.234
	c-6.398-7.578-14.761-12.907-23.142-16.37c0.2-1.452,0.46-2.887,0.776-4.3c8.117,3.004,16.107,8.154,22.566,14.807l-0.035-0.393
	c-1.253-14.369,2.734-29.29,10.59-39.312c7.101-9.057,17.905-14.198,28.818-15.012c-0.357-0.076-0.716-0.148-1.076-0.217
	c1.994-0.284,3.998-0.43,5.994-0.43C126.596,31.229,130.229,31.796,133.697,32.858L133.697,32.858z M117.671,134.829
	c14.944-3.084,27.573-12.513,34.948-25.343c-3.996-3.967-7.546-8.374-9.837-14.444c-2.483-6.581-4.414-12.467-5.038-20.088
	c-0.852-10.416,1.129-21.123,5.16-30.043c-2.398-2.242-5.006-4.262-7.79-6.028c-1.407-0.481-3.005-0.981-4.68-1.393
	c-4.71-1.155-9.991-1.645-11.173-1.666c-6.662-0.127-12.46,2.251-17.819,5.579c-4.403,2.734-8.548,6.306-10.905,10.389
	c-5.549,9.617-9.016,21.813-7.923,34.343c0.579,6.643,0.825,12.744,2.99,18.481c2.863,7.587,7.326,13.673,11.458,18.77
	C100.772,127.962,109.774,132.844,117.671,134.829L117.671,134.829z M154.811,105.235c3.063-6.67,4.773-14.091,4.773-21.91
	c0-13.478-5.074-25.771-13.414-35.077c-3.189,8.065-5.105,17.261-4.338,26.644c0.545,6.645,1.574,11.494,3.74,17.231
	C147.648,97.625,151.354,101.55,154.811,105.235z"/>
<path fill-rule="evenodd" clip-rule="evenodd" fill="#FFFFFF" d="M141.742,156.91h-12.57c-4.149,0-7.543,3.394-7.543,7.542v9.401
	c0,4.147,3.394,7.793,7.543,7.793h6.996v1.203c0,2.365-0.879,3.46-3.68,3.46h-6.683l-0.033,2.33
	c-0.112,1.336,0.589,2.67,1.915,2.876h5.686c4.396,0,8.37-3.599,8.37-7.995v-17.116h-0.001V156.91L141.742,156.91z M136.171,175.856
	h-6.124c-1.352,0-3.662-1.719-3.662-3.069v-7.269c0-1.351,2.123-3.289,3.475-3.289h6.312V175.856L136.171,175.856z M73.281,156.91
	h5.685v16.288c0,1.989,1.627,3.616,3.616,3.616h1.808c1.989,0,3.616-1.628,3.616-3.616V156.91h5.263v17.114
	c0,4.398-3.597,7.997-7.995,7.997h-3.998c-4.398,0-7.995-3.599-7.995-7.997V156.91L73.281,156.91z M97.642,156.91h12.571
	c4.149,0,7.543,3.394,7.543,7.542v9.401c0,4.148-3.395,7.794-7.543,7.794h-6.931v9.561h-5.626v-9.812h-0.014V156.91L97.642,156.91z
	 M103.214,162.292l-0.091,13.648l6.125,0.051c1.352,0,3.752-1.854,3.752-3.204v-7.269c0-1.351-2.123-3.227-3.475-3.227H103.214z"/>
</svg>
