<?xml version="1.0" encoding="utf-8"?>
<!DOCTYPE svg PUBLIC "-//W3C//DTD SVG 1.1//EN" "http://www.w3.org/Graphics/SVG/1.1/DTD/svg11.dtd">
<svg version="1.1" id="Layer_1" xmlns="http://www.w3.org/2000/svg" xmlns:xlink="http://www.w3.org/1999/xlink" x="0px" y="0px" width="216px" height="216px" viewBox="0 0 216 216" enable-background="new 0 0 216 216" xml:space="preserve">

					<path id="Shape" fill="#6F6F6F" d="M108.512,1.5C49.568,1.5,2.014,49.055,2.014,108c0,58.944,47.554,106.501,106.498,106.501
						c58.948,0,106.501-47.558,106.501-106.501C215.014,49.055,166.966,1.5,108.512,1.5L108.512,1.5z M208.078,108
						c0,54.985-44.581,99.565-99.566,99.565c-54.981,0-99.565-44.58-99.565-99.565c0-54.985,44.584-99.566,99.565-99.566
						C163.497,8.434,208.078,53.014,208.078,108z"/>
					<path id="Shape_1_" fill="#6F6F6F" d="M108.512,45.088v3.468l0,0c32.695,0,59.938,26.749,59.938,59.938h3.469
						C171.424,73.325,143.187,45.088,108.512,45.088L108.512,45.088 M108.512,167.938c-32.691,0-59.934-26.752-59.934-59.938H45.11
						c0,34.674,28.233,62.911,62.908,62.911"/>
					<g id="Group" transform="translate(7.197531, 3.271605)">
						<path id="W_61_" fill="#6F6F6F" d="M152.325,59.513c1.485,1.485,3.469,3.959,4.458,5.448l21.796-13.374
							c-0.99-1.489-2.974-3.468-3.963-4.957l-13.869,8.916l-0.99,0.99l0.495-0.99l5.942-11.886l-3.963-4.458l-11.89,5.943
							l-0.989,0.495l0.989-0.99l8.916-13.374c-1.484-1.488-2.969-2.479-4.952-3.963l-13.869,21.3
							c1.983,1.484,3.963,3.464,5.447,4.458l12.88-6.441l0.993-0.491l-0.499,0.99L152.325,59.513z"/>
						<path id="M_61_" fill="#6F6F6F" d="M103.287,32.761l5.942-13.374l0.495-0.99v0.99l0.495,17.337
							c1.983,0,3.963,0.499,6.441,0.99l-0.993-25.756c-2.97-0.495-5.943-0.495-8.916-0.495l-5.943,14.366v0.99v-0.99l-5.943-14.366
							c-2.973,0-5.946,0.495-8.916,0.495l-0.994,25.756c1.984-0.491,4.458-0.491,6.442-0.99l0.495-17.337v-0.99v0.99l5.943,12.879
							h5.452V32.761z"/>
						<path id="B_x5F_22d_61_" fill="#6F6F6F" d="M55.733,53.071c3.464-3.468,5.448-7.926,1.979-11.391
							c-1.979-1.983-4.953-2.479-7.431-1.489h-0.495l0,0c0.495-0.99,0.495-4.458-1.979-6.438c-1.488-0.994-2.973-1.489-4.953-1.489
							c-2.973,0.495-5.452,2.479-12.384,9.906c-1.983,2.478-4.953,5.946-6.936,7.926L41.86,67.435
							C48.302,60.997,50.777,58.519,55.733,53.071z M31.46,49.108c3.468-4.458,7.431-8.421,9.411-10.404
							c0.495-0.491,0.99-0.99,1.983-0.99c0.99-0.491,2.475,0.499,2.97,1.984c0.495,0.99-0.495,2.475-1.485,3.464
							c-1.979,1.983-8.916,9.91-8.916,9.91L31.46,49.108z M38.891,56.044c0,0,6.933-7.431,9.411-9.906
							c0.99-0.994,1.484-1.489,1.979-1.983c0.994-0.495,1.489-0.495,2.479,0c0.99,0.495,0.99,1.484,0.99,2.475
							c0,0.99-0.99,1.983-1.979,2.973c-0.994,0.994-9.411,9.91-9.411,9.91L38.891,56.044z"/>
					</g>
					<path id="Path" fill="#0066B1" d="M108.512,45.088V108H45.11C45.11,73.325,73.343,45.088,108.512,45.088z"/>
					<path id="Path_1_" fill="#0066B1" d="M171.424,108c0,34.674-28.237,62.911-62.912,62.911V108H171.424z"/>

</svg>
