<?xml version="1.0" encoding="utf-8"?>
<!DOCTYPE svg PUBLIC "-//W3C//DTD SVG 1.1//EN" "http://www.w3.org/Graphics/SVG/1.1/DTD/svg11.dtd">
<svg version="1.1" id="Layer_1" xmlns="http://www.w3.org/2000/svg" xmlns:xlink="http://www.w3.org/1999/xlink" x="0px" y="0px" width="216px" height="216px" viewBox="0 0 216 216" enable-background="new 0 0 216 216" xml:space="preserve">
<g>
	<path fill="#FFFFFF" d="M108.1,215.873c59.521,0,107.773-48.252,107.773-107.773c0-59.522-48.253-107.775-107.773-107.775
		C48.578,0.325,0.325,48.576,0.325,108.098C0.325,167.62,48.578,215.873,108.1,215.873L108.1,215.873z"/>
	<path fill="#0079C1" d="M0.099,108.1c0,59.553,48.449,108,108,108c59.553,0,108-48.447,108-108c0-59.552-48.447-108-108-108
		C48.548,0.099,0.099,48.546,0.099,108.1z M0.552,108.1C0.552,48.798,48.798,0.552,108.1,0.552
		c59.301,0,107.547,48.246,107.547,107.547c0,59.301-48.245,107.547-107.547,107.547S0.552,167.4,0.552,108.1z"/>
	<path fill="#0079C1" d="M108.1,210.335c56.509,0,102.32-45.813,102.32-102.322S164.608,5.693,108.1,5.693
		C51.59,5.693,5.778,51.505,5.778,108.014S51.59,210.335,108.1,210.335L108.1,210.335z"/>
	<g>
		<path fill="#FFFFFF" d="M26.124,137.172l-1.871-6.81c2.571,1.074,8.039,1.487,13.6,0.861c3.459-0.389,7.016-1.505,11.203-3.761
			c3.588-1.931,5.691-5.91,5.798-8.376c0.322-7.406-4.187-9.663-9.985-9.985H34.88l-0.322-9.664l6.444-0.509
			c4.576-0.513,12.883-2.39,11.272-8.509c-0.896-3.405-4.417-7.562-9.984-6.764c-4.511,0.644-8.764,4.006-12.737,7.112l-5.301-6.79
			c3.246-2.634,11.33-8.274,18.948-9.18c14.874-1.772,21.316,4.67,22.604,12.402c0.995,5.969-3.542,12.882-12.562,15.461
			l1.147-0.322c7.137,0.47,13.973,4.874,14.838,12.587c1.147,10.225-10.113,22.387-24.912,24.048
			c-6.919,0.777-13.028,1.008-16.763-0.207c-0.333-0.106-0.483,0-0.905-0.482C26.225,137.8,26.124,137.172,26.124,137.172
			L26.124,137.172z"/>
		<path fill="#FFFFFF" d="M109.988,74.116l2.117,5.744c-1.522,0.034-7.712,2.419-9.074,3.177
			c-10.574,5.874-15.535,14.164-16.506,21.009l0.268-0.021c2.618-3.099,6.58-5.135,11.924-5.568
			c9.711-0.787,18.466,5.451,19.445,17.553c0.937,11.564-7.113,21.78-19.585,22.79c-15.5,1.256-24.01-9.694-25.135-23.587
			c-0.886-10.937,2.383-20.404,8.227-26.834c5.273-5.75,16.865-12.843,25.598-15.171C109.536,72.603,109.839,73.359,109.988,74.116
			L109.988,74.116z M100.774,109.033c-4.937-2.759-13.759,2.55-13.757,2.235c-0.002,1.092-1.382,9.822,1.815,16.544
			c0.599,1.265,2.446,2.658,4.382,3.299c1.955,0.645,4.002,0.53,4.838,0.302c0.977-0.266,6.173-1.775,7.098-8.154
			C106.615,113.125,103.391,110.496,100.774,109.033L100.774,109.033z"/>
		<path fill="#FFFFFF" d="M179.477,73.274l2.118,5.747c-1.522,0.033-7.712,2.418-9.073,3.175
			c-10.575,5.876-15.538,14.164-16.507,21.011l0.268-0.022c2.618-3.1,6.578-5.135,11.922-5.568
			c9.71-0.785,18.466,5.453,19.446,17.553c0.938,11.564-7.114,21.779-19.584,22.79c-15.5,1.256-24.009-9.692-25.135-23.587
			c-0.886-10.937,2.382-20.404,8.228-26.833c5.272-5.751,16.865-12.845,25.598-15.173C179.022,71.762,179.326,72.517,179.477,73.274
			L179.477,73.274z M170.263,108.193c-4.937-2.762-13.759,2.549-13.757,2.234c-0.002,1.091-1.381,9.821,1.813,16.545
			c0.601,1.263,2.448,2.657,4.383,3.297c1.956,0.646,4.004,0.529,4.839,0.301c0.976-0.266,6.174-1.772,7.098-8.154
			C176.104,112.283,172.877,109.655,170.263,108.193L170.263,108.193z"/>
		<path fill="#FFFFFF" d="M133.945,108.089c-1.563,2.086-2.409,2.692-3.695,4.434c-2.119-2.495-2.86-3.092-4.773-5.502
			c-1.365-1.711-3.029-3.923-3.029-6.231c0-2.113,1.64-3.652,3.75-3.652c2.012,0,3.578,1.689,3.999,3.578
			c0.521-1.963,1.938-3.578,4.122-3.578c2.012,0,3.627,1.639,3.627,3.676c0,2.186-1.466,3.948-2.733,5.614L133.945,108.089
			L133.945,108.089z"/>
	</g>
</g>

</svg>
