<?xml version="1.0" encoding="utf-8"?>
<!DOCTYPE svg PUBLIC "-//W3C//DTD SVG 1.1//EN" "http://www.w3.org/Graphics/SVG/1.1/DTD/svg11.dtd">
<svg version="1.1" id="Layer_1" xmlns="http://www.w3.org/2000/svg" xmlns:xlink="http://www.w3.org/1999/xlink" x="0px" y="0px" width="216px" height="216px" viewBox="0 0 216 216" enable-background="new 0 0 216 216" xml:space="preserve">
<g>
	<path fill-rule="evenodd" clip-rule="evenodd" fill="#FFFFFF" d="M14.907,3.778h189.184c1.646,0,3.286,0.396,4.77,1.101
		c3.677,1.745,6.331,5.381,5.987,9.561l-15.56,189.594c-0.475,5.775-4.69,10.844-10.758,10.844H30.059
		c-6.064,0-10.295-5.061-10.757-10.842L4.151,14.441c-0.132-1.654,0.203-3.299,0.952-4.778C6.913,6.094,10.934,3.778,14.907,3.778z"
		/>
	<path fill-rule="evenodd" clip-rule="evenodd" fill="#009036" d="M184.646,168.094L184.646,168.094L184.646,168.094z"/>
	<path fill-rule="evenodd" clip-rule="evenodd" fill="#E2001A" d="M17.364,11.665h41.358v140.455h-32.35
		c-2.027,0-3.548-1.664-3.686-3.686L13.679,15.35C13.542,13.328,15.337,11.665,17.364,11.665L17.364,11.665z M161.505,11.665h41.768
		c2.026,0,3.841,1.665,3.686,3.686l-10.237,133.083c-0.155,2.021-1.659,3.686-3.686,3.686h-31.53V11.665z"/>
	<g>
		<path fill-rule="evenodd" clip-rule="evenodd" d="M14.907,2.656h189.184c6.531,0,12.409,5.366,11.875,11.875l-15.561,189.594
			C199.872,210.633,195.062,216,188.53,216H30.059c-6.531,0-11.355-5.365-11.875-11.875L3.032,14.531
			C2.512,8.021,8.376,2.656,14.907,2.656L14.907,2.656z M14.907,6.021c-4.376,0-8.892,3.587-8.52,8.241l15.151,189.593
			c0.369,4.613,3.645,8.779,8.521,8.779H188.53c4.88,0,8.143-4.176,8.521-8.785l15.561-189.594c0.382-4.654-4.152-8.234-8.521-8.234
			H14.907L14.907,6.021z M145.066,68.603L145.066,68.603c0.221-3.17-0.92-3.854-1.229-3.943c-0.318-0.09-1.502-0.321-2.273,1.049
			c-0.339,0.6,0.164,1.318,0.478,1.763c0.317,0.448,0.479,1.335,0.017,1.909c-0.468,0.572-0.817,0.893-1.282,1.136
			c-0.214,0.114-0.608,0.149-0.657-0.583c-0.048-0.687-0.141-5.144-0.361-5.895c-0.224-0.744-0.548-0.758-0.831-0.731
			c-0.293,0.025-2.422,0.983-2.863,1.248c-0.449,0.265-0.775,0.713-0.92,1.483c-0.147,0.774-1.191,5.455-2.12,6.792
			c-0.927,1.344-1.775,2.398-3.597,3.158c-0.031,0.012-0.059,0.006-0.092,0.019h0.001c-0.873,0.266-2.002,0.495-2.335,0.23
			c-0.476-0.366-1.006-0.875-0.711-1.128c0.145-0.122,0.428-0.222,0.884-0.299c0.618-0.104,1.063-0.265,1.429-0.461
			c-0.016,0.016-0.021,0.034-0.034,0.047c0.027-0.025,0.039-0.059,0.073-0.083c0.201-0.125,2.396-1.375,2.791-3.785
			c0.155-0.899-0.764-0.845-1.277-0.928c-0.373-0.062-1.091-0.104-1.386-0.212c-0.296-0.12-0.591-0.797-0.751-1.095
			c-0.195-0.344-0.792-0.611-1.109-0.646c-0.396-0.042-3.724,0.837-5.754,0.641c-2.034-0.205-3.016-0.506-4.996-1.631
			c-0.157-0.091-0.857-0.173-0.733,0.365c0.07,0.317,0.248,0.642,0.572,1.183c0.215,0.349-0.464,0.998-0.73,1.163
			c-0.264,0.166-0.941,0.626-1.304,0.396c-0.355-0.23-1.413-0.949-2.062-3.791c-0.183-0.819-1.264-1.432-2.272-1.345
			c-1.009,0.083-1.848,0.295-2.188,0.629c-0.347,0.329-1.191,1.798-1.215,2.963c-0.021,1.164-0.069,2.833-0.17,3.7
			c-0.24,1.968-1.616,4.586-1.376,5.795c0.221,1.132,1.771,4.151,6.152,4.817c2.744,0.418,6.031-1.736,6.598-2.179
			c0.577-0.441,0.416-1.347,0.346-1.646c-0.095-0.428-0.912-2.07,0.82-1.673c1.739,0.405,3.263,1.605,4.184,2.724
			c0.916,1.121,1.96,2.902,3.228,4.004c1.421,1.235,2.091,1.143,2.646,1.617c0.563,0.476,0.984,0.716,1.044,2.927
			c0.057,2.218-0.262,3.735-0.463,4.228c-0.195,0.49-0.623,1.748-1.838,2.705c-0.614,0.483-0.955,2.106-1.02,2.49
			c-0.061,0.387-0.362,1.916-0.655,2.535c-0.29,0.622-1.46,2.056-1.817,0.479c-0.354-1.572-0.116-3.658-0.344-4.19
			c-0.226-0.536-1.326-1.109-1.736-1.289c-0.412-0.184-0.722-0.126-1.249,0.007c-2.683,0.685-4.682,1.937-11.313,1.046
			c-0.992-0.141-1.795,0.157-2.604,0.318c-0.599,0.111-1.27,0.548-1.741,0.88c-0.254,0.175-0.069,0.491,0.121,0.66
			c0.387,0.359,1.181,0.534,1.971,0.799c0.592,0.197,0.783,0.901,0.826,1.203c0.063,0.507,0.228,1.453-0.046,2.566
			c-0.114,0.46-0.309,0.929-0.802,0.169c-0.48-0.76-0.92-1.632-1.453-1.964c-0.537-0.333-0.798-0.005-0.655,0.364
			c0.141,0.372,0.684,2.925-0.162,5.462c-1.208,3.576-1.709,5.512,0.313,8.659c0.203,0.318,0.424,0.632,0.655,0.933
			c0.057,0.076,0.115,0.152,0.175,0.229c0.195,0.248,0.402,0.502,0.611,0.74c0.035,0.041,0.069,0.08,0.105,0.121
			c0.535,0.604,1.108,1.176,1.71,1.736l0.004,0.002c0.549,0.504,1.121,1.014,1.683,1.506c0.847,0.713,1.835,1.971,2.924,1.732
			c0.156-0.033,0.168-0.156,0.201-0.32c0.019-1.07,0.442-2.029,1.015-2.916c0.464-0.715,1.02-1.389,1.556-2.029
			c0.854-1.027,1.714-2.344,1.583-3.545c-0.074-0.641-0.265-1.311-0.244-1.482c0.021-0.18,0.202-0.889,0.729-0.422
			c0.512,0.473,0.739,0.811,1.035,0.938c0.292,0.134,1.188,0.309,1.78,0.013c0.458-0.229,4.234-1.766,8.631-6.034
			c1.867-1.812,4.531-5.396,5.616-11.491c0.615-3.422,0.604-6.507,0.604-7.308c0.005-0.415,0.04-0.943,0.318-1.284
			c0.43-0.521,1.166-1.477,1.451-2.197c0.277-0.728,0.56-0.741,0.648-0.626c0.094,0.114,0.211,0.819,0.363,0.986
			c0.154,0.156,0.819,0.408,1.097-0.448c0.278-0.863,0.758-2.679,2.177-5.257C142.097,77.852,144.737,73.295,145.066,68.603
			L145.066,68.603z M117.33,93.356L117.33,93.356c0.791-0.268,0.164-0.551-0.021-0.566c-0.179-0.017-0.536-0.05-1.292-0.108
			c-7.066-0.567-9.119,0.047-10.335,0.068c-0.654,0.012-0.479,0.496-0.317,0.636c0.803,0.698,1.788,1.034,2.52,1.074
			c0.594,0.026,4.138-0.2,5.257-0.261C114.249,94.135,116.538,93.631,117.33,93.356L117.33,93.356z M100.777,89.775L100.777,89.775
			c3.829-0.769,9.573-1.363,21.961-0.065c2.472,0.255,2.673-0.077,2.979-0.247c0.303-0.161,0.74-0.586,0.737-0.725
			c-0.004-0.142-0.209-0.675-0.65-0.761c-0.446-0.082-1.931-0.501-3.02-2.063c-1.09-1.578-1.665-2.697-2.934-3.663
			c-0.693-0.524-1.2-0.36-1.386-0.223c-0.181,0.137-1.928,1.473-3.147,1.775c-0.442,0.114-1.277,0.246-1.696,0.831
			c-0.414,0.583-1.139,1.574-2.672,1.574c-1.537-0.004-3.982-0.395-5.467-1.322c-1.242-0.779-3.09-0.431-3.454-0.205
			c-0.773,0.473-1.943,1.944-2.5,2.336c-0.553,0.4-1.618,0.979-2.389,1.211c-0.339,0.103-0.716,0.362-0.492,0.695
			C96.882,89.267,97.59,90.405,100.777,89.775L100.777,89.775z M98.983,106.254L98.983,106.254c0.938-0.026,1.224-0.673,0.757-1.687
			c-0.485-1.036-1.093-3.556-1.61-5.485c-0.243-0.908-0.97-0.311-1.063-0.098c-0.127,0.296-0.522,1.08-0.76,1.684
			c-0.258,0.651-0.775,0.625-1.339-0.115c-2.263-2.979-3.117-11.208-3.08-12.194c0.042-1.219-1.096-1.227-1.327-1.2
			c-0.224,0.027-0.572,0.101-1.238,0.331c-1.128,0.38-2.688,2.814-1.951,5.544C90.213,103.648,96.484,106.324,98.983,106.254
			L98.983,106.254z M85.33,75.715L85.33,75.715c-0.28-0.191-0.747-0.147-0.57,0.566c0.544,2.234,2.115,4.206,3.366,5.547
			c1.251,1.345,2.87,1.354,4.262,0.258c1.397-1.094,3.143-1.815,3.612-1.954c0.465-0.14,0.88-0.282,1.018-0.764
			c0.136-0.477,0.119-0.934,0.959-2.19c0.148-0.228,0.324-0.427,0.502-0.619c-0.371,0.102-0.805,0.203-1.136,0.26
			c-0.626,0.108-1.271,0.215-2.283,0.304c-0.06,0.007-0.114,0.01-0.169,0.01c-0.861,0-1.339-0.552-1.435-0.816
			c-0.096-0.184-0.186-0.376-0.2-0.56c-0.019-0.384,0.2-0.67,0.57-0.757c0.087-0.02,0.17-0.023,0.242-0.023l0.182,0.004l0.098-0.004
			c0.113-0.004,0.197-0.014,0.26-0.02l0.227-0.01c0.122,0,0.319,0,0.378-0.007c0.148-0.006,1.225-0.09,1.893-0.292
			c0.523-0.155,1.913-0.563,2.71-1.273c0.595-0.532,1.277-1.48,1.46-2.401c0.039-0.2,0.056-0.322,0.056-0.33l0.029-0.232
			c-0.132-0.135-0.306-0.332-0.677-0.832c-0.496-0.673-0.065-0.972,0.545-1.554c0.608-0.589,0.284-1.066-0.701-0.592
			c-0.997,0.485-2.564,0.42-3.011,0.391c-0.44-0.032-1.654-0.308-2.968-0.46c-3.188-0.371-4.726,1.761-5.262,2.333
			c-0.129,0.142-0.233,0.387-0.871,0.36c-0.694-0.028-1.467-0.734-1.827-1.055c-0.365-0.328-0.752-0.395-1.067-0.261
			c-0.312,0.135-0.963,0.421-1.146,0.532c-0.182,0.107-0.475,0.445-0.288,0.912c1.298,3.297,3.491,4.288,4.251,4.704
			c0.763,0.411,0.262,1.14,0.073,1.513c-0.182,0.375-0.558,0.592-1.107,0.408C86.397,76.503,85.604,75.9,85.33,75.715L85.33,75.715z
			 M83.637,63.832L83.637,63.832c-0.314,0.996,0.761,1.443,1.525,0.975c0.627-0.376,1.451-0.951,2.292-1.445
			c0.559-0.328,1.171-0.607,1.566-0.834c0.598-0.338,0.501-0.995-0.379-0.959c-0.327,0.013-0.969,0.063-1.571,0.123
			c-0.517,0.058-1.134,0.167-1.295,0.198C84.531,62.107,83.791,63.347,83.637,63.832L83.637,63.832z M97.354,64.231L97.354,64.231
			c0.789,0.127,0.624-0.603,0.02-1.227c-0.581-0.599-1.668-0.854-2.293-0.863c-0.862-0.007-2.959,0.868-4.031,1.531
			c-0.592,0.364-0.973,0.559-1.486,0.832c-0.724,0.375-1.17,0.462-1.384,0.624c-0.777,0.599,0.196,0.848,0.465,0.865
			c0.277,0.012,1.119-0.075,1.951-0.439c0.813-0.345,1.957-0.957,3.64-1.322C95.74,63.903,96.572,64.103,97.354,64.231
			L97.354,64.231z M103.121,79.981L103.121,79.981c-0.182-0.339-0.47-1.523,0.177-2.781c0.187-0.362-1.104-1.075-1.951-0.095
			c-0.532,0.612-0.952,2.167-0.057,3.433c0.897,1.272,1.977,0.89,2.033,0.599C103.381,80.901,103.316,80.325,103.121,79.981
			L103.121,79.981z M129.464,66.958L129.464,66.958c0.796-0.388-0.004-0.607-0.364-0.814c-0.755-0.435-1.853-1.466-2.544-2.107
			c-0.69-0.637-1.652-1.143-2.455-1.229c-0.273-0.027-0.813-0.044-1.095,0.019c-1.321,0.291-2.424,1.245-2.61,1.446
			c-0.189,0.206-0.141,0.748,0.486,0.603c0.639-0.14,1.205-0.241,1.911-0.348c1.071-0.167,2.228,0.189,2.856,0.69
			c0.948,0.768,1.449,1.032,2.152,1.406C128.153,66.811,129.125,67.119,129.464,66.958L129.464,66.958z M128.907,63.558
			L128.907,63.558c0.429,0.386,1.614,1.206,1.989,1.258c0.373,0.051,0.663,0.254,0.993-0.458c0.283-0.621-0.041-1.408-0.62-1.869
			c-0.796-0.632-1.909-0.773-3.693-0.754c-0.505,0.002-0.691,0.407-0.359,0.572C127.704,62.554,128.472,63.171,128.907,63.558
			L128.907,63.558z M136.489,61.985L136.489,61.985c0.024-0.19-0.096-0.401-0.326-0.401c-0.6-0.01-2.238-0.076-2.415-0.076
			c-0.32-0.007-0.345,0.17-0.341,0.304c-0.004,0.131-0.021,0.655-0.033,0.871c-0.007,0.227,0.214,0.382,0.453,0.397
			c0.247,0.014,1.815,0.076,2.047,0.075c0.233-0.006,0.486-0.16,0.501-0.339C136.396,62.638,136.469,62.173,136.489,61.985
			L136.489,61.985z M83.212,57.432L83.212,57.432c0.027,0.546,0.361,0.82,0.907,0.786c6.02-0.356,7.335-0.266,12.729,0.172
			c5.785,0.465,7.688,3.043,8.905,3.717c0.854,0.47,1.434,0.24,2.225,0.014c0.793-0.229,2.239-0.24,3.05-0.082
			c0.813,0.16,1.232,0.219,1.364,0.202c0.124-0.019,0.738-0.319,1.194-0.671c1.88-1.459,3.728-2.021,7.047-2.261
			c3.314-0.246,12.098,0.051,13.361,0.18c1.255,0.138,4.155,0.718,4.925,0.814c0.773,0.095,0.644-0.39,0.663-0.554
			c0.015-0.156-0.027-0.833-0.22-2.43c-0.185-1.595-0.853-2.589-1.604-3.753c-1.824-2.831-1.345-4.178-1.303-4.748
			c0.042-0.568-0.245-4.735-0.271-5.015c-0.068-0.671,0.423-0.879,0.776-0.191c2.147,4.185,3.952,8.532,5.055,11.815
			c0.338,1.004,0.977,0.246,1.11-0.199c0.129-0.437,0.394-1.44,0.468-3.253c0.611-15.152-5.933-22.159-10.573-26.459
			c-4.926-4.119-11.635-6.943-17.665-7.947c-0.71-0.115-2.208-0.444-4.119-0.577c-2.041-0.144-2.42-0.153-5.555,0.095
			c-2.403,0.197-7.557,1.055-10.464,2.121c-1.331,0.492-2.088,0.916-2.508,1.331c-0.414,0.414-0.139,0.695,0.432,0.683
			c0.57-0.017,1.005-0.081,2.074,0.062c1.02,0.141,0.604,1.112,0.114,1.229c-0.386,0.086-0.541,0.168-1.146,0.335
			c-3.266,0.916-6.781,3.341-7.495,3.811c-0.682,0.453-1.365,1.038-1.647,1.439c-0.278,0.368,0.277,0.636,0.442,0.652
			c0.168,0.019,0.323-0.008,0.625-0.064c1.489-0.288,7.153-1.846,13.735-0.838c6.735,1.025,11.25,5.209,11.713,5.555
			c0.481,0.367,0.674,0.927,0.164,1.288c-0.509,0.353-1.741,1.381-2.202,1.704c-0.461,0.313-1.041-0.044-2.215-0.576
			c-1.473-0.673-4.413-1.454-7.039-1.363c-2.746,0.093-5.372-0.003-8.008,2.835c-5.165,5.567-5.868,11.988-6.279,13.992
			c-0.139,0.694-0.182,1.925-0.847,2.315c-0.36,0.215-0.916,0.527-1.357,0.893c-0.31,0.256-0.445,0.784-0.5,0.998
			C83.155,56.023,83.188,56.907,83.212,57.432L83.212,57.432z M81.671,43.952L81.671,43.952c0.942-0.75,1.48-0.986,2.15-1.983
			c0.663-0.992,1.119-2.324,3.084-4.479c3.204-3.523,5.592-4.006,6.377-4.438c0.785-0.43,0.183-0.731-0.24-0.737
			c-2.415-0.031-3.378,0.337-5.56,1.137c-2.175,0.793-5.56,3.161-7.638,4.34c-2.078,1.184-4.734,1.738-5.513,1.787
			c-0.393,0.028-0.874-0.134-1.141,0c-0.55,0.282-0.766,0.573-0.568,1.066c0.153,0.391,0.59,1.214,1.293,2.408
			c0.692,1.201,0.974,2.528,0.563,4.784c-0.409,2.266-0.699,6.464-0.706,7.885c-0.002,1.41,0.174,3.622,0.642,4.911
			c0.194,0.53,0.54,0.531,0.941,0.419c0.395-0.103,0.825-0.253,1.319-0.418c0.807-0.284,0.62-1.356,0.646-2.139
			c0.233-6.749,2.023-10.998,2.489-12.216C80.271,45.072,81.209,44.313,81.671,43.952L81.671,43.952z M81.844,62.787L81.844,62.787
			c0.354-0.006,0.346-0.265,0.347-0.414c0-0.147-0.031-0.515-0.054-0.853c-0.025-0.346-0.185-0.422-0.356-0.44
			c-0.164-0.016-1.938,0.047-2.406,0.086c-0.179,0.017-0.276,0.148-0.265,0.296c0.017,0.152,0.068,0.688,0.064,1.095
			c-0.009,0.355,0.398,0.27,0.79,0.255C80.583,62.771,81.727,62.793,81.844,62.787L81.844,62.787z M77.374,70.445L77.374,70.445
			c0.335,0.303,1.023,0.04,0.963-0.501c-0.024-0.187-0.042-0.337-0.164-0.813c-0.665-2.675-0.605-3.698-0.57-4.569
			c0.032-0.868-0.605-0.784-0.873-0.706c-0.259,0.082-0.766,0.288-1.146,0.382c-0.464,0.13-0.445,0.782-0.396,1.042
			C75.655,67.771,77.006,70.121,77.374,70.445L77.374,70.445z M147.352,59.999c0,0,5.665-19.761-10.743-35.35
			c-0.011-0.007-0.549-0.461-0.877-0.736c-0.685-0.567-1.559-1.273-2.565-1.967c-2.127-1.464-3.824-2.587-7.323-4.195
			c-0.885-0.401-4.766-2.102-8.344-2.883c-1.275-0.278-3.76-0.85-6.083-1.052c-0.115-0.008-0.246-0.018-0.388-0.027
			c-0.001,0-0.002,0-0.003,0c-0.021,0-0.042-0.001-0.063-0.004c-0.118-0.006-0.254-0.012-0.386-0.019
			c-0.078-0.004-0.158-0.008-0.236-0.009c-0.128-0.007-0.266-0.011-0.406-0.017c-0.102-0.004-0.21-0.004-0.319-0.006
			c-0.332-0.011-0.67-0.02-1.004-0.02c-0.179,0-0.362,0.003-0.538,0.006c-0.225,0-0.453,0.002-0.688,0.006
			c-0.164,0.002-0.326,0.006-0.496,0.008c-0.163,0.002-0.334,0.01-0.501,0.016c-0.186,0.005-0.367,0.01-0.56,0.016
			c-0.578,0.024-1.341,0.104-2.142,0.208c-1.293,0.17-2.68,0.406-3.534,0.589c-0.955,0.212-2.245,0.458-3.856,0.88
			c-0.663,0.178-1.334,0.363-1.988,0.558c-0.187,0.053-0.373,0.107-0.558,0.161c-0.729,0.219-1.452,0.453-2.165,0.687
			c-0.527,0.169-2.769,1.059-3.256,1.265c-0.233,0.1-0.556,0.226-0.903,0.354c-2.256,0.655-1.97,2.087-1.97,2.087
			c-2.646,6.196-10.899,5.793-10.899,5.793c-0.207,2.614,5.85,5.125,5.85,5.125c-1.115,2.143-4.596,3.717-8.563,4.018
			c-4.095,0.311-4.46,3.59-4.46,3.59c1.947,2.948,4.424,3.71,2.196,18.446c-2.229,14.736,10.723,25.588,10.723,25.588
			c-0.975,6.564,3.481,13.799,3.481,13.799c-1.393,5.355,3.81,13.16,3.81,13.16c0.371,0.508,3.799,4.42,9.858,8.023
			c0.941,0.564,1.609,0.914,1.961,1.146c0.021,0.014,0.039,0.027,0.06,0.041c0.036,0.023,0.067,0.049,0.095,0.068
			c0.031,0.027,0.053,0.049,0.073,0.07c0.009,0.01,0.023,0.02,0.03,0.027c0.161,0.215,0.39,0.645-0.204,0.705
			c-0.604,0.053-2.323-0.107-4.219,0.348c-1.894,0.453-1.637,1.113-1.675,2.168c-0.039,0.951,0.038,1.639-0.017,2.914
			c-0.054,1.271-0.287,2.4,0.28,3.018c0.561,0.607,1.387,1.029,3.769,0.893c2.264-0.127,3.021-0.209,3.279-0.184
			c0.255,0.018,5.267-0.248,5.998-0.484c0.679-0.225,0.922,0.262,0.469,1.156c-0.981,1.936-5.159,9.57-13.477,16.76
			c-1.394,1.072,5.761,2.893,6.326,2.684c0.568-0.205,4.575-4.178,6.974-7.84c0.129-0.145,1.28-1.787,2.2-4.061
			c0.146-0.367,0.434-0.604,0.522-0.031c0.063,0.412,0.913,11.172,0.353,15.109c-0.283,1.994,1.513,1.678,6.256,2.783
			c1.172,0.27,0.491-18.227-2.307-25.844c-0.001,0,0-0.002,0-0.002c-0.022-0.063-0.034-0.125-0.035-0.188
			c0-0.26,0.192-0.477,0.444-0.525c0,0,0.119-0.023,0.187-0.033c1.609-0.223,5.326-0.082,5.96-0.057
			c0.624,0.018,2.293,0.307,3.192,0.385c0.889,0.084,2.903,0.287,2.858-2.279c-0.011-0.688-0.012-1.377-0.009-2.016
			c0.001-0.088,0.003-0.176,0.003-0.262c-0.001-0.156,0.003-0.32,0.006-0.475l0.003-0.27c0.001-0.088,0.003-0.174,0.006-0.26
			c0.001-0.078,0.003-0.156,0.005-0.23c0.004-0.139,0.006-0.273,0.013-0.395c0-0.039,0.001-0.074,0.003-0.111
			c0.003-0.092,0.005-0.178,0.011-0.256c0.001-0.041,0.004-0.08,0.005-0.117c0.004-0.072,0.009-0.131,0.013-0.184
			c0.001-0.018,0.002-0.043,0.002-0.059c0.007-0.074,0.015-0.16,0.017-0.25c0.022-0.627-0.1-1.539-1.353-1.848
			c-1.439-0.344-3.919-0.33-6.21,0.123c-0.313,0.063-0.512,0.02-0.569-0.082c-0.055-0.1,0.028-0.256,0.275-0.418
			c0.491-0.33,4.659-2.236,8.427-5.426c4.146-3.514,6.127-6.23,7.398-8.775c0,0,4.144-8.263,3.205-17.302l0.729-0.907
			c0,0,2.821,1.008,4.492-3.113c1.672-4.118,12.325-21.7,4.073-24.216V59.999z M147.352,59.999L147.352,59.999L147.352,59.999
			L147.352,59.999z M90.556,195.93c-1.125-1.072-11.252-14.621-11.252-14.621l14.854-12.311l0.492-0.408
			c0.564-0.494,1.191-0.926,1.859-1.279c1.617-0.84,2.716-0.719,2.716-0.719l0.432-2.455l-17.763,0.029l-0.344,1.945l-0.08,0.48
			c1.396,0.094,3.434,1.293,1.971,2.725c-0.192,0.172-15.392,12.16-15.392,12.16l0.091-0.424l2.375-11.816
			c0.513-2.361,3.109-2.645,3.109-2.645l0.436-2.432l-19.5,0.006l-0.337,1.943l-0.088,0.48c0.953,0.232,3.658,0.732,3.021,4.119
			c-4.59,22.766-4.036,20.514-4.371,21.754c-1.003,5.395-3.125,6.139-4.428,6.275c-0.285,0.027-0.532,0.027-0.711,0.037l-0.182,1.02
			l-0.277,1.613h20.396l0.456-2.672c0,0-3.289-0.621-2.863-2.881c0.218-1.135,0.793-4.016,1.301-6.559
			c0.491-2.469,0.929-4.631,0.929-4.631c4,5.488,4.87,6.166,9.618,11.836c4.37,5.246,5.887,5,16.019,4.934
			c0.825-0.006,1.68-0.014,2.602-0.014l0.453-2.621C93.526,198.816,91.672,197,90.556,195.93L90.556,195.93z M128.248,169.881
			c1.114,0,3.097,2.252,3.76,2.787c0.568,0.457,0.931,0.998,0.968,1.467h1.273l1.662-9.971h-33.502l-0.332,1.949L102,166.588
			c0,0,3.701,0.416,2.876,4.121L98.99,201.41l12.589,0.027h2.494l0.42-2.637c0,0-3.188-0.762-2.606-3.68
			c0.023-0.184,1.01-3.951,1.502-6.572c0.223-1.131,0.38-1.945,0.38-1.945l12.895,0.271l1.325-6.855h-12.907l1.588-8.18l0.366-1.943
			L128.248,169.881L128.248,169.881z M140.484,169.525c-5.044,4.172-7.472,10.727-7.008,16.367
			c0.689,8.357,7.909,16.408,23.152,16.355c3.782-0.025,5.554-0.316,8.546-0.846c0.874-0.148,2.445-0.926,3.255-1.1l1.154-6.553
			c-2.873,1.014-7.769,1.238-10.759,1.252c-8.118,0.027-11.908-5.021-12.436-11.508c-0.288-3.457,0.854-6.494,3.18-8.715
			c2.489-2.379,5.3-6.07,10.238-6.07c3.91,0,6.183,2.338,6.742,6.482c0.331,0.301,2.794-0.393,3.082-0.045l1.374-0.512l1.861-9.693
			c-2.634-0.871-6.697-1.908-10.712-1.955C152.807,162.859,145.433,165.432,140.484,169.525L140.484,169.525z M208.34,201.254
			l-4.37,0.002v0.604h1.817v4.465h0.735v-4.465h1.817V201.254L208.34,201.254z M208.993,201.254l-0.001,5.07h0.697v-2.99
			c0-0.121-0.003-0.309-0.01-0.563c-0.008-0.254-0.011-0.443-0.011-0.568v-0.154l1.553,4.275h0.724l1.539-4.275
			c0,0.273-0.004,0.529-0.007,0.77c-0.005,0.24-0.009,0.412-0.009,0.514v2.992h0.697v-5.068h-1.037l-1.54,4.285l-1.549-4.287
			H208.993z"/>
	</g>
</g>
</svg>
