<?xml version="1.0" encoding="utf-8"?>
<!DOCTYPE svg PUBLIC "-//W3C//DTD SVG 1.1//EN" "http://www.w3.org/Graphics/SVG/1.1/DTD/svg11.dtd">
<svg version="1.1" id="Layer_1" xmlns="http://www.w3.org/2000/svg" xmlns:xlink="http://www.w3.org/1999/xlink" x="0px" y="0px" width="216px" height="216px" viewBox="0 0 216 216" enable-background="new 0 0 216 216" xml:space="preserve">
<g>
	<path fill="#231F20" d="M73.718,185.109c-1.458-0.802-3.626-1.193-6.628-1.193c-4.107,0.002-7.92,0.853-9.363,1.39
		c-0.326,0.106-0.675,0.387-0.68,0.868l0.001,0.106l0.404,2.042l0.01,0.038c0.127,0.416,0.473,0.603,0.788,0.603h0.002
		c0.101-0.004,0.181-0.023,0.254-0.042l0.683-0.16c1.79-0.447,4.494-1.124,7.514-1.124c1.832,0,3.063,0.158,3.889,0.508
		c1.339,0.507,1.348,1.373,1.361,2.807v2.144c-0.153-0.002-0.413-0.006-0.811-0.006c-1.479,0-4.388,0.068-7.248,0.527
		c-4.364,0.672-7.976,1.715-7.953,7.729c0.001,7.634,7.083,7.647,10.485,7.654h0c2.31,0,4.441-0.341,5.833-0.63
		c3.177-0.737,3.987-1.745,3.945-4.902v-12.694C76.209,188.839,76.214,186.43,73.718,185.109 M71.974,204.717
		c-1.69,0.55-3.541,0.828-5.499,0.828v0.178l-0.003-0.178c-3.13-0.024-6.187-0.383-6.191-4.375c0.021-3.177,1.715-3.555,3.859-4.032
		l0.149-0.033c1.908-0.407,6.697-0.484,7.685-0.496V204.717L71.974,204.717z M111.599,190.773v12.694
		c0.042,3.156-0.769,4.165-3.945,4.902c-1.392,0.289-3.523,0.63-5.833,0.63l0,0c-3.403-0.007-10.483-0.021-10.485-7.654
		c-0.022-6.015,3.589-7.06,7.953-7.729c2.86-0.459,5.769-0.527,7.248-0.527c0.399,0,0.658,0.004,0.811,0.006v-2.144
		c-0.013-1.434-0.021-2.3-1.36-2.807c-0.826-0.35-2.057-0.508-3.889-0.508c-3.02,0-5.724,0.677-7.514,1.124l-0.684,0.16
		c-0.073,0.019-0.152,0.038-0.254,0.042h-0.002c-0.315,0-0.662-0.187-0.788-0.603l-0.01-0.038l-0.404-2.042l0-0.106
		c0.005-0.481,0.354-0.762,0.679-0.868c1.443-0.537,5.256-1.388,9.364-1.39c3.002,0,5.169,0.392,6.628,1.191
		C111.609,186.43,111.604,188.839,111.599,190.773 M107.369,196.608c-0.988,0.011-5.777,0.087-7.686,0.496l-0.149,0.033
		c-2.144,0.478-3.838,0.855-3.858,4.032c0.003,3.992,3.06,4.351,6.19,4.373l0.002,0.18v-0.18c1.959,0,3.809-0.276,5.5-0.826
		L107.369,196.608L107.369,196.608z M175.713,183.916c-9.86,0.012-10.696,6.492-10.705,12.563
		c0.009,6.051,0.845,12.507,10.705,12.521h0.001c9.853-0.014,10.693-6.452,10.707-12.521
		C186.41,190.13,185.574,183.928,175.713,183.916 M175.714,205.456c-5.98-0.027-6.281-3.097-6.322-8.975
		c0.041-5.91,0.342-8.996,6.321-9.022c5.982,0.026,6.282,3.112,6.323,9.021C181.995,202.359,181.694,205.429,175.714,205.456
		 M158.018,208.105l-0.258,0.066c-1.379,0.35-3.268,0.828-6.578,0.828h-0.008c-9.126-0.014-10.917-4.617-10.928-12.563
		c0.012-9.116,2.901-12.509,10.662-12.521c2.737,0,4.624,0.353,5.978,0.68l-0.009-7.341c-0.012-0.322,0.135-0.745,0.896-0.89
		l2.425-0.619h0.132c0.557,0.014,0.753,0.512,0.754,0.931v27.588C161.122,206.006,160.916,207.5,158.018,208.105 M156.88,188.129
		c-0.811-0.205-3.069-0.713-5.612-0.713c-4.673,0.042-6.633,1.312-6.682,9.065c0.055,8.514,2.591,8.974,6.723,9.019l0.002,0.179
		V205.5c2.572,0,4.779-0.536,5.566-0.754L156.88,188.129z M135.096,208.424h-2.167c-0.581,0-1.019-0.438-1.021-1.02V191.04
		c-0.039-2.77-0.866-3.539-3.848-3.581c-3.372,0-6.786,0.846-7.912,1.154v18.791c0,0.59-0.411,1.02-0.976,1.021h-2.212
		c-0.581-0.002-1.019-0.44-1.02-1.021V189.05c-0.032-1.7,0.127-2.874,2.543-3.657c2.315-0.799,6.742-1.475,9.668-1.477
		c5.575,0.007,7.955,2.018,7.963,6.726v16.763C136.115,207.985,135.677,208.424,135.096,208.424 M85.995,208.868h0.002
		c1.246-0.024,2.167-0.271,2.528-0.677c0.127-0.143,0.187-0.31,0.171-0.474c-0.008-0.134-0.008-0.134-0.35-1.736l-0.008-0.038
		c-0.074-0.417-0.373-0.608-0.619-0.608c-0.023,0-0.045,0.001-0.033,0.003c0,0-0.313-0.016-0.622-0.016h-0.003
		c-0.888-0.027-1.625-0.156-1.639-1.456v-27.188c-0.001-0.454-0.274-0.919-0.799-0.931h-0.155l-2.428,0.623
		c-0.414,0.041-0.844,0.336-0.826,0.884v26.7c0.004,3.161,1.701,4.906,4.779,4.913H85.995z M51.704,208.424H34.308
		c-0.581,0-1.019-0.438-1.021-1.02v-2.124c-0.012-0.52,0.155-0.751,0.476-1.147l13.846-16.098H34.042
		c-0.581-0.002-1.019-0.44-1.02-1.021v-1.503c0-0.581,0.439-1.02,1.02-1.021h17.573c0.581,0.001,1.019,0.439,1.02,1.021v2.166
		c0.008,0.394-0.127,0.726-0.44,1.073l-13.881,16.131h13.39c0.581,0.001,1.019,0.439,1.02,1.02v1.504
		C52.722,207.985,52.284,208.424,51.704,208.424"/>
	
		<linearGradient id="SVGID_1_" gradientUnits="userSpaceOnUse" x1="-2139.1284" y1="-548.1885" x2="-2138.7104" y2="-548.1885" gradientTransform="matrix(-258.1744 -447.1712 -447.1712 258.1744 -797250.6875 -814847.1875)">
		<stop  offset="0" style="stop-color:#F57D34"/>
		<stop  offset="0.534" style="stop-color:#F47026"/>
		<stop  offset="0.534" style="stop-color:#F47026"/>
		<stop  offset="1" style="stop-color:#F47026"/>
	</linearGradient>
	<path fill="url(#SVGID_1_)" d="M53.021,3.053c-16.354,0-24.76,44.65-23.885,86.572c-0.024-0.005-0.05,0.005-0.074,0
		c0.875,36.796,9.011,72.062,25.139,72.062c61.899,0,132.426-58.373,132.426-79.3c0-5.233-5.332-15.306-12.478-23.257
		c-0.011,0.005-0.029-0.005-0.038,0c-0.488-0.563-1.001-1.125-1.515-1.699C150.546,32.829,104.802,3.053,53.021,3.053L53.021,3.053z
		"/>
</g>

</svg>
