<?xml version="1.0" encoding="utf-8"?>
<!DOCTYPE svg PUBLIC "-//W3C//DTD SVG 1.1//EN" "http://www.w3.org/Graphics/SVG/1.1/DTD/svg11.dtd">
<svg version="1.1" id="Layer_1" xmlns="http://www.w3.org/2000/svg" xmlns:xlink="http://www.w3.org/1999/xlink" x="0px" y="0px" width="216px" height="216px" viewBox="0 0 216 216" enable-background="new 0 0 216 216" xml:space="preserve">
<g>
	<rect y="-1" fill-rule="evenodd" clip-rule="evenodd" fill="#FFFFFF" width="216" height="216"/>
	<g>
		<polygon fill="#59A53F" points="187.086,201.786 190.54,201.786 190.54,197.002 193.771,201.786 198.043,201.786 193.47,195.747 
			197.921,190.067 193.903,190.067 190.54,194.752 190.54,190.067 187.086,190.067 		"/>
		<rect x="169.122" y="190.065" fill="#59A53F" width="3.444" height="11.721"/>
		<polygon fill="#59A53F" points="149.509,201.786 152.954,201.786 152.954,192.883 155.54,192.883 155.54,190.067 146.92,190.067 
			146.92,192.883 149.509,192.883 		"/>
		<path fill="#59A53F" d="M133.407,190.887c-0.008-0.034-0.026-0.034-0.044-0.034c-0.035-0.031-0.035-0.031-0.035-0.031
			c-0.749-0.506-1.403-0.812-2.051-0.899c-0.656-0.15-1.128-0.188-1.434-0.188h-0.164c-1.346,0.019-2.367,0.344-3.073,1.021
			c-0.7,0.689-1.054,1.52-1.054,2.507c0,0.953,0.22,1.674,0.662,2.162c0.442,0.479,0.916,0.839,1.419,1.076
			c0.22,0.097,0.415,0.163,0.618,0.229c0.231,0.084,0.419,0.139,0.583,0.168c0.036,0.034,0.076,0.034,0.096,0.034
			c0.058,0.021,0.072,0.021,0.089,0.021c0.453,0.127,0.824,0.273,1.13,0.449c0.294,0.188,0.45,0.487,0.45,0.916
			c-0.02,0.066-0.02,0.142-0.02,0.209c-0.016,0.096-0.026,0.162-0.071,0.229c-0.065,0.154-0.162,0.271-0.293,0.377
			c-0.17,0.132-0.393,0.177-0.692,0.177c-0.071,0-0.107,0-0.137,0c-0.07-0.033-0.092-0.033-0.132-0.033
			c-0.42-0.062-0.804-0.214-1.188-0.444c-0.402-0.245-0.738-0.498-1.037-0.756c-0.072-0.071-0.121-0.117-0.167-0.157
			c-0.065-0.062-0.119-0.111-0.167-0.165h-0.172l-1.563,2.492c0.526,0.42,0.976,0.764,1.394,1.007
			c0.462,0.272,0.874,0.454,1.279,0.591c0.298,0.097,0.577,0.167,0.836,0.2c0.31,0.067,0.588,0.088,0.889,0.088l0.165-0.021
			c1.172,0,2.189-0.298,3.056-0.902c0.911-0.625,1.359-1.594,1.359-2.938c-0.033-1.02-0.241-1.769-0.677-2.277
			c-0.454-0.533-0.947-0.917-1.478-1.152c-0.295-0.133-0.55-0.235-0.813-0.303c-0.276-0.104-0.507-0.152-0.685-0.185
			c-0.102-0.033-0.18-0.055-0.273-0.063c-0.106-0.038-0.213-0.048-0.311-0.083c-0.216-0.081-0.402-0.173-0.564-0.304
			c-0.157-0.172-0.254-0.349-0.254-0.585c0.026-0.067,0.026-0.137,0.026-0.205c0.02-0.101,0.048-0.165,0.077-0.229
			c0.078-0.167,0.186-0.286,0.328-0.392c0.171-0.128,0.387-0.183,0.697-0.183c0.333,0.034,0.616,0.102,0.885,0.236
			c0.303,0.15,0.568,0.315,0.83,0.521c0.069,0.045,0.125,0.097,0.166,0.147c0.076,0.065,0.125,0.103,0.176,0.124h0.168
			L133.407,190.887z"/>
		<rect x="107.94" y="190.065" fill="#59A53F" width="3.449" height="11.721"/>
		<path fill="#59A53F" d="M88.017,195.34v-2.693h0.647c0.546,0.011,0.933,0.128,1.15,0.364c0.228,0.251,0.352,0.522,0.387,0.805
			c0,0.041,0,0.068,0,0.106c0,0.03,0,0.043,0,0.063c0,0.036,0,0.048,0,0.061c0,0.049,0,0.059,0,0.068
			c-0.035,0.319-0.159,0.593-0.374,0.845c-0.23,0.263-0.617,0.382-1.163,0.382H88.017L88.017,195.34z M84.563,201.786
			L84.563,201.786h3.454v-3.602l2.319,3.602h4.135l-3.282-4.683c0.03-0.025,0.05-0.025,0.063-0.025
			c0.038-0.025,0.049-0.025,0.072-0.025c0.604-0.24,1.12-0.604,1.585-1.117c0.508-0.563,0.732-1.332,0.732-2.35
			c0-0.953-0.212-1.667-0.647-2.133c-0.43-0.497-0.903-0.84-1.4-1.036c-0.458-0.182-0.865-0.283-1.245-0.296
			c-0.397-0.043-0.652-0.054-0.751-0.054h-5.035V201.786z"/>
		<path fill="#59A53F" d="M59.852,190.067h-0.167v6.985c0.018,1.777,0.485,3.042,1.447,3.848c0.96,0.819,2.2,1.229,3.711,1.229
			l0.167-0.021c1.542,0,2.782-0.404,3.722-1.209c0.961-0.831,1.439-2.113,1.439-3.848v-6.985h-3.459v6.919
			c-0.023,0.131-0.023,0.285-0.033,0.47c-0.01,0.183-0.04,0.363-0.085,0.568c-0.104,0.308-0.284,0.597-0.516,0.861
			c-0.249,0.29-0.632,0.422-1.15,0.422c-0.535-0.01-0.909-0.146-1.141-0.422c-0.254-0.279-0.415-0.569-0.521-0.861
			c-0.065-0.219-0.101-0.408-0.114-0.568c-0.018-0.207-0.018-0.353-0.018-0.47v-6.919H59.852z"/>
		<path fill="#59A53F" d="M39.399,199.308c-0.133-0.01-0.247-0.01-0.381-0.033c-0.134-0.036-0.255-0.062-0.364-0.099
			c-0.523-0.172-1.004-0.488-1.434-0.991c-0.431-0.516-0.632-1.269-0.632-2.249c0.015-1.02,0.218-1.746,0.632-2.246
			c0.452-0.526,0.924-0.861,1.434-1.012c0.129-0.045,0.245-0.081,0.379-0.107c0.149-0.025,0.266-0.025,0.387-0.025
			c0.131,0.02,0.238,0.02,0.326,0.025c0.15,0.047,0.255,0.063,0.377,0.087c0.536,0.171,1.022,0.49,1.452,0.992
			c0.46,0.521,0.668,1.267,0.668,2.286c-0.005,1.035-0.233,1.778-0.668,2.282c-0.43,0.524-0.916,0.843-1.452,0.975
			c-0.136,0.046-0.253,0.082-0.377,0.105C39.622,199.308,39.506,199.308,39.399,199.308L39.399,199.308z M39.34,202.13L39.34,202.13
			l0.167-0.021c2.103-0.015,3.666-0.637,4.693-1.865c1.078-1.24,1.598-2.676,1.598-4.309c-0.015-1.647-0.533-3.084-1.598-4.325
			c-1.062-1.26-2.625-1.876-4.693-1.876H39.34c-2.094,0.019-3.672,0.632-4.731,1.876c-1.045,1.241-1.57,2.678-1.57,4.325
			c0,1.652,0.532,3.089,1.603,4.323C35.735,201.503,37.296,202.13,39.34,202.13z"/>
		<polygon fill="#59A53F" points="13.943,201.786 17.4,201.786 17.4,192.883 19.979,192.883 19.979,190.067 11.362,190.067 
			11.362,192.883 13.943,192.883 		"/>
	</g>
	<path fill="#59A53F" d="M144.393,76.048c-1.176-0.587-2.735-1.374-4.099-0.976c-3.313,1.176-3.506,3.318-3.506,6.049H4.163V65.117
		h140.23C143.018,68.627,143.018,72.534,144.393,76.048z"/>
	<path fill="#005D90" d="M159.389,100.449H4.163V84.834h132.625c0.585,3.118,2.721,5.655,5.062,7.406
		c4.098,3.328,7.215,3.719,15.987,5.081L159.389,100.449L159.389,100.449z M145.947,59.067L145.947,59.067
		c-5.653-3.71-10.529-8.193-14.624-13.661H4.163V61.41h141.2L145.947,59.067L145.947,59.067z M128.793,41.501L128.793,41.501H4.227
		V25.689h117.16C123.141,31.348,125.479,36.815,128.793,41.501L128.793,41.501z M183.364,15.735L183.364,15.735
		c-0.587,0-0.193-0.975-0.975-0.975c-1.168,0.387-2.728,0.387-3.314,2.344c-0.194-1.175-1.362-1.563-1.943-1.753
		c-0.199,0.97,0.976,1.753,0.383,3.115c-2.723,0.197-4.282,2.346-5.258,4.292l-0.19-0.191c-0.39,2.351-2.73,3.9-2.73,6.441
		c0.58,0.976,1.358-0.785,2.341-0.193c-1.178,0.583-1.761,1.369-2.341,2.345c-0.393,1.172-0.393,2.146,0,3.117
		c1.163-0.383,2.341-1.945,3.313-2.34c-0.392,1.957-1.558,2.931-2.732,4.492l-0.195,2.928c-1.176-0.785-2.532-1.95-3.514-3.319
		c-1.358-0.786-1.94-2.538-3.109-4.101c-5.261-6.439-13.057-1.559-19.103-2.146c-7.602-1.365-14.815-3.903-20.264-9.762
		c0,1.954,0.578,3.512,1.552,5.469c0.781,2.726,2.925,4.88,5.268,6.439c-1.758,0.395-2.925-0.976-4.293-1.559v0.389
		c0.979,2.539,2.341,4.685,4.293,6.64c1.752,2.34,4.867,1.559,6.822,2.927c-0.785,0.969-2.344,0.587-3.702,0.587
		c1.358,2.724,4.091,4.871,6.817,4.871c0.781,0.198,1.756-0.774,1.95,0.397c-0.194,1.363-1.95,1.165-2.93,1.165
		c0.979,1.953,2.93,3.708,4.684,5.071c4.678,0.203,7.99,5.667,12.667,2.741c2.145,2.144,4.484-0.979,6.822-0.783
		c0,0.393-0.584,0.783-0.584,0.974c-2.919,0.979-5.844,2.345-6.624,5.469c0,2.534-2.534,0.971-3.708,1.361
		c-2.93,0.189-4.29,3.125-5.258,5.856c-1.369,4.686,2.72,8.788-0.975,12.098c-1.171,0.586-2.341,0-3.316-0.775
		c0.2,1.361,0.578,2.336,1.561,2.929c1.17,0.386,2.924-0.192,3.507-0.98c0,0.788-0.583,1.169-0.971,1.954
		c-2.145,0.976-3.896-0.973-5.464-1.76c0,1.76,1.168,2.346,1.764,3.514c0.779,0.974-1.175,0.591-1.175,0.974
		c2.924,2.934,6.817,5.669,10.911,4.494c1.756-0.385,2.932-2.538,3.904-4.102c0.387-3.904,0.387-8.197-1.76-11.512
		c-1.555-1.951-1.555-4.688-2.145-6.832c0.59-1.173,1.563-2.534,2.932-2.732c0.578,1.951,1.359,3.714,2.723,5.069
		c0.973,2.934,4.678,4.103,4.284,7.229c-1.364,3.118-4.284,5.854-3.899,9.171c2.342,2.732,4.293,6.239,4.878,10.155
		c1.75,0,1.171,2.338,1.75,3.123c1.569,0.583,3.319,0,4.678,0c-0.778-3.123-3.307-4.49-4.678-7.039
		c-0.188-0.582-0.579-1.753,0-2.139c1.172,0.581,2.731,1.557,2.731,3.314c1.563-0.192,1.168,2.146,1.563,3.126
		c0.78,0.777,1.756,2.342,2.922,1.755c0.392-0.583,0.199-0.781,0.199-1.17c0.971-3.12-1.755-4.293-2.15-6.445
		c-1.945-1.948-4.29-2.338-5.844-4.873c-0.977-1.171,0.579-1.754,1.554-2.93c4.29-3.317,5.657-9.175,5.657-14.256
		c2.337-3.893,7.599-4.678,10.716-8.576c2.336-2.148,3.702-5.075,5.265-7.416l0.588,0.583c2.918,0.193,5.254-3.517,7.592-5.269
		c0.395,0.582,0.984,1.17,1.568,2.149c0.583,0.968-0.199,2.537,0.583,3.313c0.58,0.979-0.391,1.758-0.583,2.541
		c0.776,1.556,1.756,3.506,3.312,4.098c0.584-2.148,0.188-4.098,0.388-6.25v-0.582c0.388-2.933-2.732-4.492-2.536-7.42
		c2.337-2.344,5.267,0.197,7.603,0.78c0.588,0.395,0.394,1.371,0.394,1.953c2.137,0,3.896-0.978,5.456-2.733
		c-0.592-0.385-1.368-0.782-1.948-1.167c-2.928-2.534-6.628-0.2-9.747-2.534c-1.563-0.395-3.119-0.395-4.488-0.395
		c-1.361,1.361-2.523,2.539-3.698,4.096h-0.78c0-1.957,0.196-3.121,0.393-4.873c-0.588-2.542-2.146-2.542-3.897-4.294
		c-0.58-3.907-5.072-4.889-4.484-9.183c0.386-1.943,2.726-0.189,4.288-1.361c2.143-0.777,3.897,3.122,5.656,0
		c0.186-0.192-0.395-0.777-0.395-1.364l1.168-0.386c1.364-5.863-5.842-3.707-8.574-6.449
		C186.872,16.322,184.536,16.91,183.364,15.735L183.364,15.735z M148.094,50.282L148.094,50.282c-0.586,0.78-1.76,0.78-2.925,0.98
		C146.334,51.062,147.117,49.502,148.094,50.282L148.094,50.282z M176.153,42.081L176.153,42.081c-1.751,0-4.087-0.58-5.063-1.555
		C172.648,40.921,174.402,41.889,176.153,42.081z"/>
	<path fill="#005D90" d="M197.53,121.821v15.373c-2.416-0.955-6.109-1.92-8.731-1.92c-1.484,0-4.171,0.174-4.171,3.585
		c0,3.662,2.897,3.662,7.08,5.839c5.043,2.628,9.014,7.171,9.014,17.479c0,11.358-5.038,22.025-16.668,22.025
		c-4.253,0-9.073-1.311-12.835-3.592v-16.858c2.84,1.659,7.796,4.016,11.139,4.016c3.395,0,4.178-2.096,4.178-3.933
		c0-3.317-2.627-4.36-5.033-5.502c-3.403-1.482-10.992-4.276-10.992-17.637c0-13.378,6.315-21.322,15.6-21.322
		C190.015,119.374,194.336,120.253,197.53,121.821L197.53,121.821z M146.533,158.158L146.533,158.158l2.562-15.547l2.554,15.547
		H146.533L146.533,158.158z M127.664,182.357L127.664,182.357h15.256l1.492-8.914h9.357l1.495,8.914h15.245l-13.191-61.146h-16.379
		L127.664,182.357L127.664,182.357z M103.92,145.669L103.92,145.669v14.06h7.792c0.083,4.106-2.474,7.339-6.02,7.339
		c-5.108,0-8.083-6.729-8.083-14.931c0-7.438,2.19-15.024,8.15-15.024c2.486,0,4.822,1.482,5.677,4.366l12.766-3.936
		c-2.198-9.95-8.583-18.169-18.934-18.169c-15.672,0-21.834,16.515-21.834,32.846c0,18.519,8.217,31.982,21.974,31.982
		c13.404,0,20.498-13.028,20.498-31.2v-7.333H103.92L103.92,145.669z M52.084,182.357L52.084,182.357H78.17V164.62H66.978v-5.848
		h10.069v-14.679H66.978v-5.147H78.17v-17.735H52.084V182.357L52.084,182.357z M26.269,137.112L26.269,137.112h1.63
		c1.346,0,3.545,0.346,3.545,5.152c0,4.799-2.055,5.243-3.545,5.243h-1.63V137.112L26.269,137.112z M11.374,182.357L11.374,182.357
		h14.895v-18.952h3.121c13.128,0,16.239-12.406,16.239-21.141c0-8.649-3.044-21.054-16.239-21.054H11.374V182.357z"/>
</g>
</svg>
