<?xml version="1.0" encoding="utf-8"?>
<!DOCTYPE svg PUBLIC "-//W3C//DTD SVG 1.1//EN" "http://www.w3.org/Graphics/SVG/1.1/DTD/svg11.dtd">
<svg version="1.1" id="Layer_1" xmlns="http://www.w3.org/2000/svg" xmlns:xlink="http://www.w3.org/1999/xlink" x="0px" y="0px" width="216px" height="216px" viewBox="0 0 216 216" enable-background="new 0 0 216 216" xml:space="preserve">
<g>
	<g>
		<path fill-rule="evenodd" clip-rule="evenodd" fill="#E6E7E8" d="M116.605,216h-14.252C46.038,212.328,1.479,165.482,1.479,108.24
			c0-59.637,48.363-108,108-108s108,48.363,108,108C217.479,165.482,172.92,212.328,116.605,216z"/>
		<path fill-rule="evenodd" clip-rule="evenodd" fill="#00A651" d="M68.725,8.206v200.07C29.286,192.186,1.479,153.457,1.479,108.24
			S29.286,24.295,68.725,8.206z"/>
		<path fill-rule="evenodd" clip-rule="evenodd" fill="#ED1C24" d="M149.012,208.771V7.708
			c40.088,15.781,68.468,54.849,68.468,100.532S189.1,192.992,149.012,208.771z"/>
	</g>
	<g>
		<path fill-rule="evenodd" clip-rule="evenodd" fill="#F1F2F2" d="M216.056,125.766H2.903c-0.931-5.705-1.423-11.559-1.423-17.525
			c0-6.824,0.64-13.497,1.851-19.97h212.299c1.21,6.473,1.851,13.146,1.851,19.97C217.479,114.207,216.987,120.061,216.056,125.766z
			"/>
		<path fill-rule="evenodd" clip-rule="evenodd" fill="#2BB673" d="M68.725,88.27v37.496H2.903
			c-0.931-5.705-1.423-11.559-1.423-17.525c0-6.824,0.64-13.497,1.851-19.97H68.725z"/>
		<path fill-rule="evenodd" clip-rule="evenodd" fill="#F15B47" d="M216.056,125.766h-67.044V88.27h66.617
			c1.21,6.473,1.851,13.146,1.851,19.97C217.479,114.207,216.987,120.061,216.056,125.766z"/>
	</g>
	<g>
		<path fill-rule="evenodd" clip-rule="evenodd" fill="#DCDDDE" d="M116.605,216h-14.252c-44.839-2.924-82.218-33.221-95.593-74.342
			h205.439C198.824,182.779,161.445,213.076,116.605,216z"/>
		<path fill-rule="evenodd" clip-rule="evenodd" fill="#329454" d="M68.725,141.658v66.617
			C39.459,196.336,16.606,171.93,6.76,141.658H68.725z"/>
		<path fill-rule="evenodd" clip-rule="evenodd" fill="#D9252C" d="M149.012,208.771v-67.113h63.188
			C202.216,172.354,178.863,197.021,149.012,208.771z"/>
	</g>
	<g>
		<path fill-rule="evenodd" clip-rule="evenodd" fill="#DCDDDE" d="M213.204,78.082H5.754C18.81,33.118,60.311,0.24,109.479,0.24
			S200.148,33.118,213.204,78.082z"/>
		<path fill-rule="evenodd" clip-rule="evenodd" fill="#329454" d="M68.725,8.206v69.876H5.754
			C14.982,46.306,38.416,20.57,68.725,8.206z"/>
		<path fill-rule="evenodd" clip-rule="evenodd" fill="#D9252C" d="M213.204,78.082h-64.192V7.708
			C179.912,19.874,203.854,45.877,213.204,78.082z"/>
	</g>
	<g>
		<path fill-rule="evenodd" clip-rule="evenodd" fill="#D1D3D4" d="M202.902,54.036H16.057C34.763,21.871,69.598,0.24,109.479,0.24
			C149.36,0.24,184.196,21.871,202.902,54.036z"/>
		<path fill-rule="evenodd" clip-rule="evenodd" fill="#147141" d="M68.725,8.206v45.831H16.057
			C28,33.503,46.517,17.265,68.725,8.206z"/>
		<path fill-rule="evenodd" clip-rule="evenodd" fill="#C1272E" d="M202.902,54.036h-53.891V7.708
			C171.762,16.666,190.74,33.125,202.902,54.036z"/>
	</g>
	<g>
		<path fill-rule="evenodd" clip-rule="evenodd" fill="#D1D3D4" d="M116.605,216h-14.252c-35.538-2.316-66.389-21.828-84.32-50.295
			h182.893C182.995,194.172,152.144,213.684,116.605,216z"/>
		<path fill-rule="evenodd" clip-rule="evenodd" fill="#147141" d="M68.725,165.705v42.57c-21.019-8.576-38.729-23.582-50.692-42.57
			H68.725z"/>
		<path fill-rule="evenodd" clip-rule="evenodd" fill="#C1272E" d="M149.012,208.771v-43.066h51.914
			C188.732,185.064,170.567,200.287,149.012,208.771z"/>
	</g>
	<path fill-rule="evenodd" clip-rule="evenodd" fill="#FFFFFF" d="M112.807,116.898v-0.096h1.962v7.502h-3.628l-1.231-2
		c-0.123-0.201-0.294-0.475-0.469-0.688v2.688h-1.961v-1.734c-0.103,0.365-0.291,0.697-0.558,0.994
		c-0.561,0.617-1.508,0.74-2.296,0.74h-2.985v-2.338c-0.195,0.695-0.547,1.324-1.122,1.781c-0.59,0.465-1.288,0.666-2.036,0.666
		c-0.692,0-1.394-0.129-1.983-0.51c-0.549-0.357-0.939-0.867-1.194-1.469c-0.259-0.613-0.381-1.264-0.381-1.93
		c0-0.693,0.125-1.377,0.442-1.996c0.3-0.584,0.737-1.047,1.313-1.361c0.563-0.311,1.175-0.455,1.816-0.455
		c0.705,0,1.377,0.174,1.946,0.6c0.561,0.418,0.918,0.994,1.112,1.664l0.086,0.297v-2.451h1.963v2.727h0.965
		c0.57,0,1.288,0.045,1.803,0.311c0.405,0.209,0.731,0.514,0.934,0.926c0.073,0.148,0.131,0.301,0.175,0.457v-4.42h1.961v2.547
		c0.134-0.229,0.283-0.572,0.343-0.713c0.136-0.32,0.295-0.691,0.488-0.979c0.174-0.26,0.41-0.463,0.684-0.613
		c0.301-0.166,0.629-0.248,0.973-0.248c0.168,0,0.533-0.014,0.689,0.039L112.807,116.898L112.807,116.898z M112.807,118.654h-0.365
		c-0.063,0-0.126-0.002-0.189-0.004c-0.05-0.002-0.101-0.004-0.15-0.004c-0.041,0-0.174,0.006-0.21,0.035
		c-0.107,0.105-0.274,0.506-0.33,0.646c-0.134,0.334-0.336,0.822-0.589,1.123c0.272,0.258,0.501,0.572,0.688,0.875l1.146,1.852
		V118.654L112.807,118.654z M101.64,121.275v-1.736l-1.828,0.432l-0.157-0.492c-0.084-0.264-0.222-0.568-0.45-0.74
		c-0.209-0.158-0.47-0.205-0.727-0.205c-0.32,0-0.641,0.061-0.905,0.248c-0.239,0.172-0.396,0.393-0.49,0.672
		c-0.114,0.34-0.171,0.689-0.171,1.047c0,0.412,0.049,0.836,0.198,1.221c0.104,0.264,0.261,0.486,0.507,0.633
		c0.247,0.148,0.51,0.221,0.798,0.221c0.316,0,0.6-0.076,0.845-0.279c0.27-0.225,0.405-0.57,0.477-0.904l0.122-0.566L101.64,121.275
		L101.64,121.275z M103.603,122.471h0.988c0.146,0,0.693-0.021,0.802-0.139c0.109-0.129,0.15-0.273,0.15-0.441
		c0-0.111-0.02-0.219-0.089-0.309c-0.062-0.08-0.135-0.121-0.232-0.145c-0.3-0.066-0.738-0.064-1.045-0.064h-0.573V122.471
		L103.603,122.471z M93.271,116.803h1.627v7.502h-1.884v-3.777l-2.547,3.777h-1.699v-7.502h1.46c-0.181-0.262-0.28-0.57-0.319-0.896
		l-0.073-0.625h1.619l0.091,0.447c0.005,0.023,0.025,0.104,0.047,0.119c0.022,0.018,0.107,0.021,0.133,0.021
		c0.043,0,0.154-0.004,0.188-0.021c0.019-0.021,0.035-0.088,0.04-0.115l0.089-0.451h1.623l-0.074,0.625
		C93.552,116.232,93.452,116.541,93.271,116.803L93.271,116.803z M92.977,117.121c-0.347,0.291-0.776,0.406-1.225,0.406
		c-0.396,0-0.78-0.088-1.103-0.309v3.367L92.977,117.121L92.977,117.121z M76.398,120.131v-3.328h6.14v7.502H80.57v-5.633h-2.211
		v5.633h-1.961v-3.314c-0.046,0.545-0.182,1.072-0.435,1.564c-0.306,0.598-0.75,1.072-1.339,1.396
		c-0.565,0.309-1.175,0.463-1.819,0.463c-0.68,0-1.325-0.162-1.904-0.518c-0.566-0.348-0.997-0.824-1.287-1.422
		c-0.264-0.543-0.404-1.119-0.421-1.719c-0.053,0.072-0.111,0.143-0.173,0.211c-0.565,0.611-1.494,0.742-2.284,0.742h-1.081v2.596
		h-1.961v-7.502h2.967c0.348,0,0.726,0.008,1.064,0.068c0.362,0.061,0.71,0.18,1.013,0.391c0.305,0.209,0.533,0.498,0.696,0.828
		c0.08,0.164,0.14,0.336,0.181,0.51c0.148-0.301,0.339-0.582,0.583-0.838c0.701-0.736,1.597-1.072,2.61-1.072
		c0.668,0,1.305,0.158,1.88,0.5c0.569,0.342,1.004,0.816,1.297,1.412C76.225,119.084,76.354,119.6,76.398,120.131L76.398,120.131z
		 M65.656,119.838h1.094c0.2,0,0.63-0.02,0.792-0.162c0.127-0.115,0.157-0.277,0.157-0.441c0-0.129-0.023-0.256-0.099-0.363
		c-0.06-0.084-0.126-0.135-0.222-0.16c-0.162-0.043-0.477-0.039-0.645-0.039h-1.076V119.838L65.656,119.838z M73.655,118.768
		c-0.258-0.162-0.537-0.234-0.842-0.234c-0.454,0-0.831,0.148-1.16,0.463c-0.404,0.385-0.474,1.131-0.474,1.654
		c0,0.52,0.105,1.047,0.47,1.436c0.315,0.338,0.69,0.488,1.15,0.488c0.464,0,0.845-0.146,1.159-0.49
		c0.374-0.406,0.47-0.992,0.47-1.527c0-0.385-0.056-0.777-0.215-1.129C74.089,119.15,73.909,118.928,73.655,118.768L73.655,118.768z
		 M57.708,122.279c-0.491,1.375-1.533,2.135-3.083,2.135c-1.063,0-2.038-0.328-2.694-1.195c-0.608-0.797-0.837-1.75-0.806-2.744
		c0.001-0.627,0.118-1.24,0.379-1.814c0.267-0.58,0.675-1.051,1.203-1.408c0.577-0.393,1.24-0.559,1.934-0.559
		c0.719,0,1.409,0.17,1.994,0.602c0.53,0.391,0.881,0.916,1.073,1.537v-2.029h2.955c0.465,0,0.966,0.053,1.397,0.238
		c0.396,0.174,0.716,0.449,0.944,0.816c0.215,0.346,0.335,0.729,0.335,1.137c0,0.381-0.105,0.74-0.305,1.063
		c-0.042,0.068-0.088,0.133-0.137,0.195c0.119,0.098,0.228,0.211,0.325,0.338c0.291,0.381,0.427,0.828,0.427,1.307
		c0,0.377-0.081,0.74-0.248,1.08c-0.152,0.309-0.357,0.586-0.634,0.795c-0.266,0.199-0.576,0.328-0.896,0.41
		c-0.377,0.096-0.781,0.123-1.169,0.123h-2.994V122.279L57.708,122.279z M57.708,121.27v-1.711l-1.723,0.451l-0.145-0.535
		c-0.174-0.645-0.534-0.924-1.203-0.924c-0.396,0-0.776,0.09-1.055,0.387c-0.159,0.168-0.263,0.365-0.331,0.578h2.24v1.871h-2.297
		c0.067,0.281,0.185,0.549,0.379,0.768c0.267,0.303,0.587,0.434,0.99,0.434c0.81,0,1.187-0.43,1.37-1.191l0.132-0.555L57.708,121.27
		L57.708,121.27z M59.67,119.486h0.823c0.174,0,0.479-0.002,0.646-0.051c0.067-0.02,0.151-0.055,0.194-0.113
		c0.046-0.063,0.056-0.152,0.056-0.229c0-0.092-0.016-0.182-0.065-0.26c-0.033-0.053-0.073-0.08-0.131-0.098
		c-0.202-0.064-0.594-0.064-0.805-0.064H59.67V119.486L59.67,119.486z M59.67,122.436h1.031c0.143,0,0.338,0.002,0.476-0.021
		c0.096-0.018,0.208-0.047,0.294-0.102c0.054-0.033,0.095-0.09,0.124-0.143c0.046-0.086,0.06-0.178,0.06-0.273
		c0-0.111-0.021-0.213-0.083-0.305c-0.056-0.08-0.13-0.127-0.222-0.156c-0.217-0.07-0.536-0.078-0.761-0.078H59.67V122.436
		L59.67,122.436z M84.781,118.672v0.84h3.533v1.865h-3.533v1.059h3.921v1.869H82.82v-7.502h5.733v1.869H84.781L84.781,118.672z
		 M154.594,116.805v-0.002h6.178v1.869h-2.113v5.633h-1.961v-5.633h-2.104v-0.018c-0.063,0-0.126-0.002-0.188-0.004
		c-0.051-0.002-0.102-0.004-0.151-0.004c-0.041,0-0.173,0.006-0.209,0.035c-0.108,0.105-0.274,0.506-0.331,0.646
		c-0.133,0.334-0.335,0.822-0.589,1.123c0.272,0.258,0.501,0.572,0.689,0.875l1.843,2.979h-2.363l-1.232-2
		c-0.123-0.201-0.294-0.475-0.469-0.688v2.688h-1.961v-6.543l-2.319,4.809c-0.205,0.426-0.508,1.033-0.843,1.371
		c-0.328,0.326-0.766,0.451-1.219,0.451c-0.326,0-0.663-0.08-0.972-0.18l-0.389-0.123v-2.1l0.838,0.486
		c0.138,0.078,0.28,0.121,0.438,0.121c0.067,0,0.114-0.016,0.165-0.061c0.072-0.066,0.171-0.273,0.247-0.449l-2.699-4.891v5.238
		h0.575v3.359h-1.87v-1.49h-3.105v1.49h-1.87v-2.893c-0.289,0.438-0.667,0.791-1.137,1.049c-0.564,0.309-1.175,0.463-1.819,0.463
		c-0.68,0-1.324-0.162-1.903-0.518c-0.566-0.348-0.997-0.824-1.287-1.422c-0.281-0.578-0.422-1.195-0.422-1.838
		c0-0.109,0.003-0.219,0.009-0.326c-0.106,0.234-0.252,0.455-0.436,0.656c-0.566,0.611-1.494,0.742-2.284,0.742h-1.081v2.596h-1.961
		v-7.502h2.968c0.347,0,0.725,0.008,1.063,0.068c0.362,0.061,0.711,0.18,1.014,0.391c0.305,0.209,0.533,0.498,0.696,0.828
		c0.15,0.309,0.229,0.637,0.246,0.975c0.159-0.477,0.408-0.918,0.772-1.303c0.701-0.736,1.598-1.072,2.61-1.072
		c0.668,0,1.305,0.158,1.88,0.5c0.57,0.342,1.004,0.816,1.298,1.412c0.302,0.613,0.429,1.279,0.429,1.961
		c0,0.65-0.117,1.285-0.394,1.873h0.467c0.497-1.061,0.54-3.133,0.54-4.143v-1.49h6.92l1.713,3.219l1.499-3.219h3.583v2.547
		c0.134-0.229,0.283-0.572,0.344-0.713c0.136-0.32,0.295-0.691,0.487-0.979c0.174-0.26,0.411-0.463,0.684-0.613
		c0.301-0.166,0.629-0.248,0.973-0.248C154.201,116.797,154.42,116.791,154.594,116.805L154.594,116.805z M126.25,119.838h1.094
		c0.2,0,0.631-0.02,0.792-0.162c0.127-0.115,0.156-0.277,0.156-0.441c0-0.129-0.022-0.256-0.099-0.363
		c-0.06-0.084-0.126-0.135-0.222-0.16c-0.162-0.043-0.477-0.039-0.646-0.039h-1.076V119.838L126.25,119.838z M134.506,118.768
		c-0.258-0.162-0.537-0.234-0.842-0.234c-0.454,0-0.831,0.148-1.16,0.463c-0.404,0.385-0.474,1.131-0.474,1.654
		c0,0.52,0.105,1.047,0.47,1.436c0.314,0.338,0.689,0.488,1.15,0.488c0.464,0,0.844-0.146,1.158-0.49
		c0.374-0.406,0.471-0.992,0.471-1.527c0-0.385-0.056-0.777-0.215-1.129C134.939,119.15,134.76,118.928,134.506,118.768
		L134.506,118.768z M140.918,118.672h-1.111c-0.013,0.684-0.076,1.379-0.146,2.055c-0.059,0.564-0.156,1.15-0.323,1.709h1.581
		V118.672L140.918,118.672z M121.802,118.672h-2.211v5.633h-1.962v-7.502h6.14v7.502h-1.967V118.672L121.802,118.672z
		 M162.673,120.586l2.542-3.783h1.707v7.502h-1.884v-3.777l-2.548,3.777h-1.699v-7.502h1.882V120.586z"/>
	<path fill-rule="evenodd" clip-rule="evenodd" fill="#FFFFFF" d="M136.744,101.685c0.055-0.078,0.113-0.154,0.177-0.227
		c0.327-0.379,0.735-0.671,1.188-0.879c0.379-0.174,0.777-0.306,1.184-0.398c0.247-0.058,0.497-0.105,0.747-0.143
		c-0.194-0.215-0.382-0.435-0.565-0.66l-0.009-0.011c-0.146-0.18-0.307-0.347-0.479-0.5l-0.009-0.008
		c-0.115-0.103-0.254-0.179-0.393-0.237c-0.171-0.07-0.394-0.088-0.577-0.09c-0.227,0.002-0.444,0.042-0.634,0.173
		c-0.217,0.15-0.362,0.367-0.467,0.604c-0.174,0.398-0.228,0.861-0.23,1.291C136.68,100.957,136.697,101.323,136.744,101.685
		L136.744,101.685z M181.283,102.485c-0.054,0-0.106,0-0.159,0h-0.541v2.01c0.147-0.062,0.3-0.11,0.457-0.141
		C181.046,103.721,181.123,103.093,181.283,102.485L181.283,102.485z M183.748,98.746c0.321-0.257,0.663-0.488,1.024-0.694
		c0.712-0.406,1.473-0.707,2.264-0.904c0.802-0.205,1.624-0.304,2.455-0.304c0.865,0.004,1.731,0.129,2.556,0.411
		c0.754,0.261,1.463,0.632,2.09,1.123c0.592,0.459,1.107,1,1.534,1.617l0.008,0.012c0.403,0.594,0.721,1.237,0.938,1.923
		c0.212,0.673,0.326,1.371,0.326,2.077v0.017c-0.009,0.896-0.188,1.771-0.565,2.589c-0.353,0.76-0.838,1.445-1.438,2.036
		c-0.578,0.564-1.234,1.041-1.946,1.425c-0.698,0.374-1.441,0.663-2.213,0.862c-0.753,0.19-1.526,0.297-2.305,0.297
		c-0.928,0-1.845-0.131-2.727-0.418c-0.873-0.281-1.675-0.711-2.381-1.292c-0.146-0.118-0.285-0.243-0.418-0.373
		c-0.229,0.254-0.485,0.479-0.766,0.679c-0.422,0.303-0.877,0.553-1.355,0.754c-0.491,0.209-1.004,0.365-1.526,0.477l-0.013,0.003
		c-0.529,0.108-1.069,0.17-1.609,0.171c-0.364,0.005-0.732-0.037-1.091-0.096l-0.019-0.004c-0.469-0.084-0.925-0.227-1.361-0.418
		c-0.538-0.232-1.019-0.562-1.439-0.963c-0.427-0.401-0.755-0.882-1.006-1.408c-0.003,0.006-0.006,0.011-0.009,0.017
		c-0.332,0.621-0.787,1.155-1.346,1.587c-0.543,0.426-1.158,0.741-1.813,0.957c-0.672,0.22-1.373,0.324-2.084,0.328
		c-0.303,0-0.609-0.02-0.911-0.051c-0.292-0.029-0.583-0.066-0.873-0.111c-0.228-0.027-0.455-0.057-0.683-0.084
		c-0.069-0.01-0.143-0.02-0.213-0.025l-0.027,0.003c-0.043,0.005-0.086,0.011-0.129,0.018c-0.076,0.013-0.153,0.024-0.23,0.034
		c-0.142,0.02-0.283,0.027-0.427,0.027c-0.234,0-0.469-0.015-0.7-0.063c-0.311-0.064-0.606-0.186-0.87-0.361
		c-0.231-0.15-0.432-0.338-0.611-0.543c-0.044-0.049-0.085-0.099-0.127-0.149c-0.213,0.144-0.44,0.269-0.676,0.375l-0.021,0.009
		c-0.406,0.178-0.829,0.321-1.262,0.43c-0.411,0.104-0.828,0.188-1.248,0.252c-0.377,0.058-0.758,0.107-1.138,0.137
		c-0.298,0.023-0.597,0.041-0.896,0.041h-0.022c-0.428-0.006-0.858-0.063-1.252-0.234c-0.25-0.109-0.478-0.253-0.673-0.434
		c-0.121,0.065-0.244,0.127-0.368,0.184l-0.013,0.006c-0.323,0.148-0.663,0.26-1.01,0.34c-0.396,0.092-0.8,0.133-1.205,0.139h-0.029
		c-0.749-0.004-1.521-0.09-2.226-0.352c-0.659-0.24-1.253-0.611-1.727-1.132c-0.432-0.472-0.747-1.021-0.95-1.626
		c-0.187-0.542-0.299-1.104-0.354-1.674c-0.023-0.245-0.041-0.491-0.053-0.737c-0.133,0.07-0.27,0.129-0.409,0.178
		c-0.262,0.804-0.646,1.555-1.17,2.223c-0.566,0.727-1.246,1.332-2.029,1.812c-0.764,0.472-1.588,0.815-2.455,1.04
		c-0.857,0.223-1.737,0.33-2.627,0.33c-1.026-0.004-2.047-0.141-3.038-0.423c-0.961-0.278-1.88-0.687-2.726-1.227
		c-0.839-0.54-1.585-1.198-2.221-1.971c-0.645-0.79-1.145-1.673-1.49-2.629c-0.371-1.015-0.539-2.078-0.543-3.157v-0.013
		c0.004-1.044,0.171-2.074,0.528-3.056c0.34-0.94,0.829-1.808,1.461-2.583c0.623-0.765,1.356-1.419,2.184-1.955
		c0.841-0.546,1.749-0.955,2.708-1.232c0.993-0.293,2.017-0.428,3.052-0.433h0.02c0.493,0.004,0.99,0.032,1.48,0.107
		c0.38,0.059,0.759,0.134,1.128,0.233c0.246,0.065,0.493,0.133,0.742,0.204c0.003,0.001,0.007,0.002,0.011,0.003
		c0.125-0.042,0.25-0.082,0.374-0.125l0.022-0.008c0.29-0.094,0.588-0.154,0.893-0.162l0.035-0.001l0.034,0
		c0.596,0.008,1.161,0.191,1.65,0.53c0.397,0.276,0.731,0.624,1.005,1.021c0.24,0.351,0.441,0.727,0.6,1.121
		c0.147,0.366,0.269,0.739,0.351,1.123c0.077,0.36,0.128,0.728,0.128,1.098c0,0.107-0.004,0.213-0.011,0.319
		c0.328-0.213,0.692-0.371,1.063-0.49c0.415-0.134,0.842-0.23,1.27-0.305c0.421-0.074,0.843-0.136,1.268-0.178
		c0.375-0.038,0.75-0.068,1.125-0.092l0.019-0.001c0.277-0.015,0.555-0.027,0.832-0.037l0.028-0.001
		c0.128-0.002,0.258-0.007,0.386-0.007c0.468,0,0.924,0.097,1.323,0.349c0.213,0.134,0.395,0.301,0.542,0.494
		c0.084-0.039,0.169-0.075,0.255-0.109c0.359-0.139,0.73-0.249,1.105-0.334l0.015-0.003c0.364-0.08,0.732-0.146,1.103-0.2
		l0.017-0.002c0.346-0.047,0.692-0.085,1.04-0.117l0.019-0.001c0.291-0.023,0.583-0.047,0.875-0.06
		c0.201-0.009,0.402-0.016,0.604-0.016l0.016,0c0.802,0.007,1.558,0.282,2.084,0.906l0.009,0.01
		c0.271,0.327,0.447,0.699,0.544,1.095c0.212-0.276,0.454-0.529,0.724-0.756c0.524-0.441,1.125-0.767,1.772-0.99l0.011-0.003
		c0.662-0.223,1.355-0.326,2.054-0.326c0.268,0,0.535,0.014,0.802,0.04c0.262,0.026,0.523,0.064,0.781,0.118
		c0.159,0.029,0.318,0.058,0.479,0.091l0.022-0.01l0.076-0.025c0.13-0.044,0.261-0.086,0.395-0.121
		c0.229-0.059,0.466-0.092,0.703-0.092h0.015l0.015,0c0.554,0.01,1.071,0.2,1.521,0.523c0.107,0.077,0.211,0.161,0.31,0.249
		l4.557-2.898c0.139-0.086,0.282-0.168,0.43-0.24c0.355-0.178,0.325-0.158,0.666-0.215l0.049-0.008l0.05-0.005
		c0.272-0.029,0.096-0.02,0.411-0.02h0.032l0.033,0.001c0.097,0.003,0.192,0.005,0.289,0.005c0.194-0.003,0.39-0.005,0.583,0.005
		c0.454,0.018,0.887,0.157,1.243,0.447l0.023,0.019l0.023,0.02c0.39,0.34,0.603,0.803,0.664,1.31
		c0.033,0.253,0.038,0.515,0.034,0.769c0,0.012,0,0.025,0,0.037h0.607c0.386-0.004,0.781,0.013,1.151,0.13
		c0.72,0.226,1.228,0.814,1.372,1.556C183.728,98.601,183.739,98.673,183.748,98.746z"/>
	<path fill-rule="evenodd" clip-rule="evenodd" fill="#FFFFFF" d="M30.069,102.411v0.523c0,0.583,0.005,1.167,0.027,1.75
		c0.012,0.277,0.025,0.572,0.061,0.851c0.057,0.032,0.115,0.062,0.173,0.092l0.014,0.007c0.062,0.032,0.122,0.066,0.181,0.103
		v-3.259C30.37,102.47,30.217,102.448,30.069,102.411L30.069,102.411z M40.075,102.451c-0.217,0.029-0.437,0.037-0.655,0.034H38.88
		v2.01c0.263-0.111,0.542-0.175,0.829-0.186l0.052-0.001l0.051,0.001c0.028,0.001,0.055,0.002,0.083,0.004
		c0.208-0.341,0.461-0.651,0.746-0.931c-0.125-0.136-0.237-0.285-0.335-0.445l-0.01-0.018l-0.01-0.017
		C40.2,102.757,40.13,102.606,40.075,102.451L40.075,102.451z M69.322,99.223c0.228-0.251,0.484-0.476,0.762-0.677l0.01-0.007
		c0.412-0.293,0.856-0.539,1.32-0.747c0.459-0.205,0.934-0.379,1.417-0.518c0.468-0.135,0.945-0.239,1.426-0.315
		c0.446-0.07,0.899-0.114,1.352-0.115c0.319-0.004,0.643,0.023,0.961,0.061c0.397,0.047,0.792,0.129,1.178,0.234
		c0.461,0.121,0.906,0.295,1.326,0.513c0.485,0.248,0.923,0.568,1.31,0.951c0.441,0.435,0.775,0.953,1.014,1.523
		c0.265,0.634,0.374,1.313,0.378,1.998v2.114c0,0.281,0.004,0.583,0.034,0.87c0.302,0.119,0.572,0.313,0.782,0.573
		c0.322,0.396,0.445,0.874,0.445,1.375v0.02c-0.007,0.631-0.2,1.225-0.531,1.759c-0.295,0.477-0.678,0.886-1.116,1.233
		c-0.44,0.349-0.929,0.625-1.453,0.827c-0.555,0.219-1.139,0.332-1.735,0.338H78.18h-0.021c-0.551-0.01-1.112-0.086-1.616-0.309
		c-0.273-0.118-0.532-0.264-0.766-0.443c-0.354,0.211-0.737,0.37-1.128,0.498c-0.55,0.18-1.138,0.246-1.715,0.254h-0.024
		c-0.589,0-1.173-0.08-1.74-0.242c-0.593-0.167-1.147-0.436-1.647-0.802c-0.194,0.153-0.405,0.284-0.63,0.392
		c-0.347,0.167-0.71,0.286-1.083,0.369c-0.336,0.076-0.677,0.129-1.021,0.161c-0.287,0.025-0.576,0.043-0.864,0.052
		c-0.216,0.006-0.43,0.008-0.646,0.008c-0.661,0-1.333-0.021-1.983-0.104c-0.491-0.06-1.001-0.148-1.468-0.316
		c-0.18-0.064-0.356-0.138-0.525-0.225c-0.23,0.135-0.477,0.243-0.735,0.327l-0.019,0.006c-0.394,0.123-0.801,0.202-1.211,0.249
		l-0.021,0.002c-0.348,0.033-0.698,0.056-1.048,0.061c-0.248,0.002-0.496,0.004-0.744,0c-0.201,0-0.401,0-0.602,0
		c-0.305,0-0.609-0.014-0.913-0.031c-0.359-0.021-0.716-0.064-1.068-0.129c-0.395-0.072-0.781-0.182-1.15-0.34
		c-0.339-0.144-0.651-0.336-0.922-0.579c-0.432,0.338-0.911,0.606-1.423,0.804c-0.555,0.219-1.139,0.332-1.735,0.338h-0.021h-0.021
		c-0.551-0.01-1.113-0.086-1.616-0.309c-0.273-0.118-0.532-0.264-0.766-0.443c-0.354,0.211-0.738,0.37-1.128,0.498
		c-0.551,0.18-1.138,0.246-1.715,0.254h-0.024c-0.589,0-1.174-0.08-1.74-0.242c-0.598-0.168-1.156-0.439-1.659-0.811
		c-0.167-0.123-0.323-0.258-0.468-0.402c-0.023,0.018-0.045,0.034-0.068,0.051c-0.421,0.303-0.877,0.553-1.356,0.754
		c-0.491,0.209-1.004,0.365-1.526,0.477l-0.013,0.003c-0.529,0.108-1.069,0.17-1.61,0.171c-0.364,0.005-0.732-0.037-1.091-0.096
		l-0.018-0.004c-0.469-0.084-0.925-0.227-1.361-0.418c-0.539-0.232-1.019-0.562-1.44-0.963c-0.203-0.191-0.384-0.4-0.544-0.624
		c-0.163,0.346-0.407,0.644-0.702,0.894c-0.379,0.322-0.844,0.534-1.313,0.688c-0.556,0.187-1.166,0.279-1.743,0.344
		c-0.808,0.096-1.642,0.113-2.459,0.117c-0.198,0-0.397-0.005-0.595-0.008h-0.026c-0.282-0.01-0.563-0.029-0.841-0.056
		c-0.333-0.03-0.661-0.083-0.985-0.153c-0.364-0.077-0.718-0.192-1.058-0.346l-0.015-0.007l-0.015-0.007
		c-0.418-0.199-0.792-0.471-1.088-0.828c-0.381-0.457-0.577-1.018-0.586-1.611l-0.001-0.031l0.001-0.03
		c0.01-0.47,0.138-0.926,0.403-1.318l0.017-0.025l0.019-0.025c0.186-0.254,0.412-0.476,0.67-0.657
		c0.083-0.059,0.168-0.116,0.254-0.171c0.012-0.069,0.022-0.141,0.03-0.199c0.047-0.333,0.07-0.677,0.086-1.013
		c0.025-0.583,0.034-1.167,0.034-1.751v-2.082c0-0.518-0.008-1.039-0.033-1.556c-0.016-0.278-0.033-0.576-0.079-0.853
		c-0.008-0.053-0.018-0.116-0.03-0.175c-0.137-0.094-0.274-0.185-0.407-0.277c-0.294-0.202-0.55-0.45-0.754-0.743
		c-0.294-0.417-0.433-0.906-0.441-1.413l0-0.029l0-0.029c0.01-0.647,0.263-1.242,0.715-1.704l0.013-0.013
		c0.328-0.328,0.72-0.573,1.144-0.756l0.01-0.004c0.373-0.158,0.762-0.277,1.158-0.361c0.37-0.082,0.742-0.146,1.117-0.191
		c0.335-0.04,0.67-0.072,1.007-0.093c0.266-0.017,0.532-0.03,0.798-0.035c0.137-0.002,0.274-0.003,0.412-0.003
		c0.316-0.004,0.632,0.004,0.948,0.015l0.017,0c0.39,0.017,0.779,0.053,1.166,0.104l0.016,0.002
		c0.437,0.063,0.868,0.164,1.284,0.312c0.506,0.181,0.969,0.453,1.344,0.84c0.493,0.5,0.75,1.151,0.759,1.853l0,0.026l0,0.026
		c-0.004,0.209-0.03,0.415-0.082,0.612l2.658-1.69c0.139-0.086,0.282-0.168,0.43-0.24c0.355-0.178,0.326-0.158,0.666-0.215
		l0.049-0.008l0.049-0.005c0.273-0.029,0.096-0.02,0.411-0.02h0.033l0.033,0.001c0.096,0.003,0.193,0.005,0.289,0.005
		c0.194-0.003,0.39-0.005,0.583,0.005c0.455,0.018,0.887,0.157,1.244,0.447l0.023,0.019l0.023,0.02
		c0.39,0.34,0.603,0.803,0.664,1.31c0.034,0.253,0.038,0.515,0.034,0.769c0,0.012,0,0.025,0,0.037h0.608
		c0.385-0.004,0.781,0.013,1.151,0.13c0.645,0.202,1.12,0.696,1.316,1.33c0.309-0.193,0.633-0.362,0.967-0.512
		c0.459-0.205,0.934-0.379,1.417-0.518c0.468-0.135,0.944-0.239,1.425-0.315c0.446-0.07,0.899-0.114,1.352-0.115
		c0.319-0.004,0.643,0.023,0.961,0.061c0.397,0.047,0.792,0.129,1.178,0.234c0.461,0.121,0.905,0.295,1.326,0.513
		c0.485,0.248,0.923,0.568,1.311,0.951c0.441,0.435,0.775,0.953,1.013,1.523c0.266,0.634,0.374,1.313,0.379,1.998v2.114
		c0,0.281,0.004,0.583,0.034,0.87c0.01,0.003,0.019,0.007,0.028,0.011c0-0.001,0-0.002,0-0.003l0.001-0.018
		c0.02-0.332,0.033-0.665,0.039-0.998c0.006-0.324,0.014-0.648,0.014-0.973v-0.019c0.003-0.254,0.003-0.509,0.003-0.763
		c0-0.245,0.004-0.491,0.004-0.736v-0.021c0.003-0.277,0-0.555-0.007-0.832l0-0.018c-0.003-0.265-0.015-0.529-0.037-0.793
		l-0.001-0.02c-0.014-0.197-0.036-0.395-0.072-0.588c-0.005-0.024-0.012-0.052-0.02-0.077c-0.091-0.059-0.185-0.114-0.279-0.169
		l-0.023-0.013l-0.022-0.014c-0.328-0.204-0.608-0.47-0.824-0.79c-0.296-0.434-0.414-0.935-0.422-1.456l0-0.035l0.001-0.035
		c0.019-0.691,0.291-1.317,0.77-1.814c0.36-0.378,0.798-0.674,1.27-0.902c0.431-0.207,0.881-0.374,1.339-0.507
		c0.443-0.13,0.891-0.24,1.344-0.327c0.404-0.082,0.812-0.152,1.223-0.207c0.306-0.04,0.614-0.08,0.921-0.108l0.028-0.002
		c0.177-0.014,0.365-0.033,0.542-0.033c0.55,0,1.084,0.138,1.534,0.466c0.278,0.203,0.503,0.457,0.668,0.75
		c0.061-0.043,0.123-0.085,0.187-0.125c0.333-0.21,0.694-0.386,1.066-0.527c0.344-0.129,0.698-0.235,1.056-0.318
		c0.326-0.078,0.655-0.14,0.987-0.182c0.29-0.039,0.582-0.063,0.874-0.063c0.321,0,0.641,0.028,0.957,0.084
		c0.38,0.063,0.748,0.179,1.096,0.344l0.022,0.011c0.434,0.214,0.81,0.514,1.101,0.9c0.36,0.477,0.53,1.045,0.538,1.639l0,0.022
		l0,0.021c-0.007,0.586-0.173,1.142-0.499,1.63c-0.017,0.025-0.035,0.051-0.052,0.076c0.323,0.335,0.525,0.754,0.604,1.214
		l0.003,0.018l0.003,0.017C69.301,98.957,69.314,99.089,69.322,99.223z"/>
	<path fill-rule="evenodd" clip-rule="evenodd" fill="#82CA9C" d="M68.725,117.25v3.973c-0.562,0.393-1.324,0.486-1.988,0.486
		h-1.081v2.596h-1.961v-7.502h2.967c0.348,0,0.726,0.008,1.064,0.068C68.082,116.93,68.425,117.047,68.725,117.25L68.725,117.25z
		 M65.656,119.838h1.094c0.2,0,0.63-0.02,0.792-0.162c0.127-0.115,0.157-0.277,0.157-0.441c0-0.129-0.023-0.256-0.099-0.363
		c-0.06-0.084-0.126-0.135-0.222-0.16c-0.162-0.043-0.477-0.039-0.645-0.039h-1.076V119.838L65.656,119.838z M57.708,122.279
		c-0.491,1.375-1.533,2.135-3.083,2.135c-1.063,0-2.038-0.328-2.694-1.195c-0.608-0.797-0.837-1.75-0.806-2.744
		c0.001-0.627,0.118-1.24,0.379-1.814c0.267-0.58,0.675-1.051,1.203-1.408c0.577-0.393,1.24-0.559,1.934-0.559
		c0.719,0,1.409,0.17,1.994,0.602c0.53,0.391,0.881,0.916,1.073,1.537v-2.029h2.955c0.465,0,0.966,0.053,1.397,0.238
		c0.396,0.174,0.716,0.449,0.944,0.816c0.215,0.346,0.335,0.729,0.335,1.137c0,0.381-0.105,0.74-0.305,1.063
		c-0.042,0.068-0.088,0.133-0.137,0.195c0.119,0.098,0.228,0.211,0.325,0.338c0.291,0.381,0.427,0.828,0.427,1.307
		c0,0.377-0.081,0.74-0.248,1.08c-0.152,0.309-0.357,0.586-0.634,0.795c-0.266,0.199-0.576,0.328-0.896,0.41
		c-0.377,0.096-0.781,0.123-1.169,0.123h-2.994V122.279L57.708,122.279z M57.708,121.27v-1.711l-1.723,0.451l-0.145-0.535
		c-0.174-0.645-0.534-0.924-1.203-0.924c-0.396,0-0.776,0.09-1.055,0.387c-0.159,0.168-0.263,0.365-0.331,0.578h2.24v1.871h-2.297
		c0.067,0.281,0.185,0.549,0.379,0.768c0.267,0.303,0.587,0.434,0.99,0.434c0.81,0,1.187-0.43,1.37-1.191l0.132-0.555L57.708,121.27
		L57.708,121.27z M59.67,119.486h0.823c0.174,0,0.479-0.002,0.646-0.051c0.067-0.02,0.151-0.055,0.194-0.113
		c0.046-0.063,0.056-0.152,0.056-0.229c0-0.092-0.016-0.182-0.065-0.26c-0.033-0.053-0.073-0.08-0.131-0.098
		c-0.202-0.064-0.594-0.064-0.805-0.064H59.67V119.486L59.67,119.486z M59.67,122.436h1.031c0.143,0,0.338,0.002,0.476-0.021
		c0.096-0.018,0.208-0.047,0.294-0.102c0.054-0.033,0.095-0.09,0.124-0.143c0.046-0.086,0.06-0.178,0.06-0.273
		c0-0.111-0.021-0.213-0.083-0.305c-0.056-0.08-0.13-0.127-0.222-0.156c-0.217-0.07-0.536-0.078-0.761-0.078H59.67V122.436z"/>
	<path fill-rule="evenodd" clip-rule="evenodd" fill="#82CA9C" d="M30.069,102.411v0.523c0,0.583,0.005,1.167,0.027,1.75
		c0.012,0.277,0.025,0.572,0.061,0.851c0.057,0.032,0.115,0.062,0.173,0.092l0.014,0.007c0.062,0.032,0.122,0.066,0.181,0.103
		v-3.259C30.37,102.47,30.217,102.448,30.069,102.411L30.069,102.411z M68.725,94.242v3.256l-0.001,0.001
		c-0.017,0.025-0.035,0.051-0.052,0.076c0.018,0.019,0.036,0.038,0.053,0.058v13.023c-0.296,0.127-0.603,0.223-0.917,0.293
		c-0.336,0.076-0.677,0.129-1.021,0.161c-0.287,0.025-0.576,0.043-0.864,0.052c-0.216,0.006-0.43,0.008-0.646,0.008
		c-0.661,0-1.333-0.021-1.983-0.104c-0.491-0.06-1.001-0.148-1.468-0.316c-0.18-0.064-0.356-0.138-0.525-0.225
		c-0.23,0.135-0.477,0.243-0.735,0.327l-0.019,0.006c-0.394,0.123-0.801,0.202-1.211,0.249l-0.021,0.002
		c-0.348,0.033-0.698,0.056-1.048,0.061c-0.248,0.002-0.496,0.004-0.744,0c-0.201,0-0.401,0-0.602,0
		c-0.305,0-0.609-0.014-0.913-0.031c-0.359-0.021-0.716-0.064-1.068-0.129c-0.395-0.072-0.781-0.182-1.15-0.34
		c-0.339-0.144-0.651-0.336-0.922-0.579c-0.432,0.338-0.911,0.606-1.423,0.804c-0.555,0.219-1.139,0.332-1.735,0.338h-0.021h-0.021
		c-0.551-0.01-1.113-0.086-1.616-0.309c-0.273-0.118-0.532-0.264-0.766-0.443c-0.354,0.211-0.738,0.37-1.128,0.498
		c-0.551,0.18-1.138,0.246-1.715,0.254h-0.024c-0.589,0-1.174-0.08-1.74-0.242c-0.598-0.168-1.156-0.439-1.659-0.811
		c-0.167-0.123-0.323-0.258-0.468-0.402c-0.023,0.018-0.045,0.034-0.068,0.051c-0.421,0.303-0.877,0.553-1.356,0.754
		c-0.491,0.209-1.004,0.365-1.526,0.477l-0.013,0.003c-0.529,0.108-1.069,0.17-1.61,0.171c-0.364,0.005-0.732-0.037-1.091-0.096
		l-0.018-0.004c-0.469-0.084-0.925-0.227-1.361-0.418c-0.539-0.232-1.019-0.562-1.44-0.963c-0.203-0.191-0.384-0.4-0.544-0.624
		c-0.163,0.346-0.407,0.644-0.702,0.894c-0.379,0.322-0.844,0.534-1.313,0.688c-0.556,0.187-1.166,0.279-1.743,0.344
		c-0.808,0.096-1.642,0.113-2.459,0.117c-0.198,0-0.397-0.005-0.595-0.008h-0.026c-0.282-0.01-0.563-0.029-0.841-0.056
		c-0.333-0.03-0.661-0.083-0.985-0.153c-0.364-0.077-0.718-0.192-1.058-0.346l-0.015-0.007l-0.015-0.007
		c-0.418-0.199-0.792-0.471-1.088-0.828c-0.381-0.457-0.577-1.018-0.586-1.611l-0.001-0.031l0.001-0.03
		c0.01-0.47,0.138-0.926,0.403-1.318l0.017-0.025l0.019-0.025c0.186-0.254,0.412-0.476,0.67-0.657
		c0.083-0.059,0.168-0.116,0.254-0.171c0.012-0.069,0.022-0.141,0.03-0.199c0.047-0.333,0.07-0.677,0.086-1.013
		c0.025-0.583,0.034-1.167,0.034-1.751v-2.082c0-0.518-0.008-1.039-0.033-1.556c-0.016-0.278-0.033-0.576-0.079-0.853
		c-0.008-0.053-0.018-0.116-0.03-0.175c-0.137-0.094-0.274-0.185-0.407-0.277c-0.294-0.202-0.55-0.45-0.754-0.743
		c-0.294-0.417-0.433-0.906-0.441-1.413l0-0.029l0-0.029c0.01-0.647,0.263-1.242,0.715-1.704l0.013-0.013
		c0.328-0.328,0.72-0.573,1.144-0.756l0.01-0.004c0.373-0.158,0.762-0.277,1.158-0.361c0.37-0.082,0.742-0.146,1.117-0.191
		c0.335-0.04,0.67-0.072,1.007-0.093c0.266-0.017,0.532-0.03,0.798-0.035c0.137-0.002,0.274-0.003,0.412-0.003
		c0.316-0.004,0.632,0.004,0.948,0.015l0.017,0c0.39,0.017,0.779,0.053,1.166,0.104l0.016,0.002
		c0.437,0.063,0.868,0.164,1.284,0.312c0.506,0.181,0.969,0.453,1.344,0.84c0.493,0.5,0.75,1.151,0.759,1.853l0,0.026l0,0.026
		c-0.004,0.209-0.03,0.415-0.082,0.612l2.658-1.69c0.139-0.086,0.282-0.168,0.43-0.24c0.355-0.178,0.326-0.158,0.666-0.215
		l0.049-0.008l0.049-0.005c0.273-0.029,0.096-0.02,0.411-0.02h0.033l0.033,0.001c0.096,0.003,0.193,0.005,0.289,0.005
		c0.194-0.003,0.39-0.005,0.583,0.005c0.455,0.018,0.887,0.157,1.244,0.447l0.023,0.019l0.023,0.02
		c0.39,0.34,0.603,0.803,0.664,1.31c0.034,0.253,0.038,0.515,0.034,0.769c0,0.012,0,0.025,0,0.037h0.608
		c0.385-0.004,0.781,0.013,1.151,0.13c0.645,0.202,1.12,0.696,1.316,1.33c0.309-0.193,0.633-0.362,0.967-0.512
		c0.459-0.205,0.934-0.379,1.417-0.518c0.468-0.135,0.944-0.239,1.425-0.315c0.446-0.07,0.899-0.114,1.352-0.115
		c0.319-0.004,0.643,0.023,0.961,0.061c0.397,0.047,0.792,0.129,1.178,0.234c0.461,0.121,0.905,0.295,1.326,0.513
		c0.485,0.248,0.923,0.568,1.311,0.951c0.441,0.435,0.775,0.953,1.013,1.523c0.266,0.634,0.374,1.313,0.379,1.998v2.114
		c0,0.281,0.004,0.583,0.034,0.87c0.01,0.003,0.019,0.007,0.028,0.011c0-0.001,0-0.002,0-0.003l0.001-0.018
		c0.02-0.332,0.033-0.665,0.039-0.998c0.006-0.324,0.014-0.648,0.014-0.973v-0.019c0.003-0.254,0.003-0.509,0.003-0.763
		c0-0.245,0.004-0.491,0.004-0.736v-0.021c0.003-0.277,0-0.555-0.007-0.832l0-0.018c-0.003-0.265-0.015-0.529-0.037-0.793
		l-0.001-0.02c-0.014-0.197-0.036-0.395-0.072-0.588c-0.005-0.024-0.012-0.052-0.02-0.077c-0.091-0.059-0.185-0.114-0.279-0.169
		l-0.023-0.013l-0.022-0.014c-0.328-0.204-0.608-0.47-0.824-0.79c-0.296-0.434-0.414-0.935-0.422-1.456l0-0.035l0.001-0.035
		c0.019-0.691,0.291-1.317,0.77-1.814c0.36-0.378,0.798-0.674,1.27-0.902c0.431-0.207,0.881-0.374,1.339-0.507
		c0.443-0.13,0.891-0.24,1.344-0.327c0.404-0.082,0.812-0.152,1.223-0.207c0.306-0.04,0.614-0.08,0.921-0.108l0.028-0.002
		c0.177-0.014,0.365-0.033,0.542-0.033c0.55,0,1.084,0.138,1.534,0.466c0.278,0.203,0.503,0.457,0.668,0.75
		c0.061-0.043,0.123-0.085,0.187-0.125c0.333-0.21,0.694-0.386,1.066-0.527c0.344-0.129,0.698-0.235,1.056-0.318
		c0.326-0.078,0.655-0.14,0.987-0.182c0.29-0.039,0.582-0.063,0.874-0.063c0.321,0,0.641,0.028,0.957,0.084
		c0.38,0.063,0.748,0.179,1.096,0.344l0.022,0.011c0.434,0.214,0.81,0.514,1.101,0.9L68.725,94.242L68.725,94.242z M40.075,102.451
		c-0.217,0.029-0.437,0.037-0.655,0.034H38.88v2.01c0.263-0.111,0.542-0.175,0.829-0.186l0.052-0.001l0.051,0.001
		c0.028,0.001,0.055,0.002,0.083,0.004c0.208-0.341,0.461-0.651,0.746-0.931c-0.125-0.136-0.237-0.285-0.335-0.445l-0.01-0.018
		l-0.01-0.017C40.2,102.757,40.13,102.606,40.075,102.451z"/>
	<path fill-rule="evenodd" clip-rule="evenodd" fill="#F69679" d="M149.012,119.051v-2.248h2.582v2.547
		c0.134-0.229,0.283-0.572,0.344-0.713c0.136-0.32,0.295-0.691,0.487-0.979c0.174-0.26,0.411-0.463,0.684-0.613
		c0.301-0.166,0.629-0.248,0.973-0.248c0.12,0,0.339-0.006,0.513,0.008v-0.002h6.178v1.869h-2.113v5.633h-1.961v-5.633h-2.104
		v-0.018c-0.063,0-0.126-0.002-0.188-0.004c-0.051-0.002-0.102-0.004-0.151-0.004c-0.041,0-0.173,0.006-0.209,0.035
		c-0.108,0.105-0.274,0.506-0.331,0.646c-0.133,0.334-0.335,0.822-0.589,1.123c0.272,0.258,0.501,0.572,0.689,0.875l1.843,2.979
		h-2.363l-1.232-2c-0.123-0.201-0.294-0.475-0.469-0.688v2.688h-1.961v-6.543L149.012,119.051L149.012,119.051z M162.673,120.586
		l2.542-3.783h1.707v7.502h-1.884v-3.777l-2.548,3.777h-1.699v-7.502h1.882V120.586z"/>
	<path fill-rule="evenodd" clip-rule="evenodd" fill="#F69679" d="M149.012,110.52V97.156c0.287-0.044,0.576-0.083,0.865-0.111
		c0.375-0.038,0.75-0.068,1.125-0.092l0.019-0.001c0.277-0.015,0.555-0.027,0.832-0.037l0.028-0.001
		c0.128-0.002,0.258-0.007,0.386-0.007c0.468,0,0.924,0.097,1.323,0.349c0.213,0.134,0.395,0.301,0.542,0.494
		c0.084-0.039,0.169-0.075,0.255-0.109c0.359-0.139,0.73-0.249,1.105-0.334l0.015-0.003c0.364-0.08,0.732-0.146,1.103-0.2
		l0.017-0.002c0.346-0.047,0.692-0.085,1.04-0.117l0.019-0.001c0.291-0.023,0.583-0.047,0.875-0.06
		c0.201-0.009,0.402-0.016,0.604-0.016l0.016,0c0.802,0.007,1.558,0.282,2.084,0.906l0.009,0.01
		c0.271,0.327,0.447,0.699,0.544,1.095c0.212-0.276,0.454-0.529,0.724-0.756c0.524-0.441,1.125-0.767,1.772-0.99l0.011-0.003
		c0.662-0.223,1.355-0.326,2.054-0.326c0.268,0,0.535,0.014,0.802,0.04c0.262,0.026,0.523,0.064,0.781,0.118
		c0.159,0.029,0.318,0.058,0.479,0.091l0.022-0.01l0.076-0.025c0.13-0.044,0.261-0.086,0.395-0.121
		c0.229-0.059,0.466-0.092,0.703-0.092h0.015l0.015,0c0.554,0.01,1.071,0.2,1.521,0.523c0.107,0.077,0.211,0.161,0.31,0.249
		l4.557-2.898c0.139-0.086,0.282-0.168,0.43-0.24c0.355-0.178,0.325-0.158,0.666-0.215l0.049-0.008l0.05-0.005
		c0.272-0.029,0.096-0.02,0.411-0.02h0.032l0.033,0.001c0.097,0.003,0.192,0.005,0.289,0.005c0.194-0.003,0.39-0.005,0.583,0.005
		c0.454,0.018,0.887,0.157,1.243,0.447l0.023,0.019l0.023,0.02c0.39,0.34,0.603,0.803,0.664,1.31
		c0.033,0.253,0.038,0.515,0.034,0.769c0,0.012,0,0.025,0,0.037h0.607c0.386-0.004,0.781,0.013,1.151,0.13
		c0.72,0.226,1.228,0.814,1.372,1.556c0.014,0.071,0.025,0.144,0.034,0.217c0.321-0.257,0.663-0.488,1.024-0.694
		c0.712-0.406,1.473-0.707,2.264-0.904c0.802-0.205,1.624-0.304,2.455-0.304c0.865,0.004,1.731,0.129,2.556,0.411
		c0.754,0.261,1.463,0.632,2.09,1.123c0.592,0.459,1.107,1,1.534,1.617l0.008,0.012c0.403,0.594,0.721,1.237,0.938,1.923
		c0.212,0.673,0.326,1.371,0.326,2.077v0.017c-0.009,0.896-0.188,1.771-0.565,2.589c-0.353,0.76-0.838,1.445-1.438,2.036
		c-0.578,0.564-1.234,1.041-1.946,1.425c-0.698,0.374-1.441,0.663-2.213,0.862c-0.753,0.19-1.526,0.297-2.305,0.297
		c-0.928,0-1.845-0.131-2.727-0.418c-0.873-0.281-1.675-0.711-2.381-1.292c-0.146-0.118-0.285-0.243-0.418-0.373
		c-0.229,0.254-0.485,0.479-0.766,0.679c-0.422,0.303-0.877,0.553-1.355,0.754c-0.491,0.209-1.004,0.365-1.526,0.477l-0.013,0.003
		c-0.529,0.108-1.069,0.17-1.609,0.171c-0.364,0.005-0.732-0.037-1.091-0.096l-0.019-0.004c-0.469-0.084-0.925-0.227-1.361-0.418
		c-0.538-0.232-1.019-0.562-1.439-0.963c-0.427-0.401-0.755-0.882-1.006-1.408c-0.003,0.006-0.006,0.011-0.009,0.017
		c-0.332,0.621-0.787,1.155-1.346,1.587c-0.543,0.426-1.158,0.741-1.813,0.957c-0.672,0.22-1.373,0.324-2.084,0.328
		c-0.303,0-0.609-0.02-0.911-0.051c-0.292-0.029-0.583-0.066-0.873-0.111c-0.228-0.027-0.455-0.057-0.683-0.084
		c-0.069-0.01-0.143-0.02-0.213-0.025l-0.027,0.003c-0.043,0.005-0.086,0.011-0.129,0.018c-0.076,0.013-0.153,0.024-0.23,0.034
		c-0.142,0.02-0.283,0.027-0.427,0.027c-0.234,0-0.469-0.015-0.7-0.063c-0.311-0.064-0.606-0.186-0.87-0.361
		c-0.231-0.15-0.432-0.338-0.611-0.543c-0.044-0.049-0.085-0.099-0.127-0.149c-0.213,0.144-0.44,0.269-0.676,0.375l-0.021,0.009
		c-0.406,0.178-0.829,0.321-1.262,0.43c-0.411,0.104-0.828,0.188-1.248,0.252c-0.377,0.058-0.758,0.107-1.138,0.137
		c-0.298,0.023-0.597,0.041-0.896,0.041h-0.022c-0.428-0.006-0.858-0.063-1.252-0.234c-0.25-0.109-0.478-0.253-0.673-0.434
		c-0.121,0.065-0.244,0.127-0.368,0.184l-0.013,0.006c-0.323,0.148-0.663,0.26-1.01,0.34c-0.396,0.092-0.8,0.133-1.205,0.139h-0.029
		c-0.749-0.004-1.521-0.09-2.226-0.352C149.444,110.734,149.223,110.635,149.012,110.52L149.012,110.52z M181.283,102.485
		c-0.054,0-0.106,0-0.159,0h-0.541v2.01c0.147-0.062,0.3-0.11,0.457-0.141C181.046,103.721,181.123,103.093,181.283,102.485z"/>
	<path fill-rule="evenodd" clip-rule="evenodd" fill="#FFFFFF" d="M114.182,99.092c0.112,0.126,0.221,0.256,0.322,0.392
		c-0.008-0.049-0.016-0.098-0.024-0.146c-0.006-0.024-0.012-0.052-0.02-0.077C114.368,99.202,114.275,99.146,114.182,99.092
		L114.182,99.092z M113.319,98.285c-0.003-0.003-0.005-0.007-0.008-0.01c-0.296-0.434-0.414-0.935-0.422-1.456v-0.035l0.001-0.035
		c0.018-0.691,0.29-1.317,0.769-1.814c0.36-0.378,0.799-0.674,1.271-0.902c0.432-0.207,0.882-0.374,1.339-0.507
		c0.442-0.13,0.891-0.24,1.344-0.327c0.404-0.082,0.813-0.152,1.223-0.207c0.306-0.04,0.614-0.08,0.922-0.108l0.027-0.002
		c0.177-0.014,0.364-0.033,0.542-0.033c0.551,0,1.084,0.138,1.534,0.466c0.43,0.314,0.731,0.75,0.884,1.261
		c0.102,0.342,0.145,0.699,0.14,1.055c-0.001,0.269-0.025,0.547-0.048,0.813c-0.034,0.414-0.064,0.829-0.093,1.244
		c-0.038,0.566-0.067,1.133-0.092,1.7c-0.029,0.677-0.041,1.356-0.041,2.034v4.079c0,0.153,0,0.306,0,0.459
		c0,0.041,0,0.082,0.001,0.123l0.028,0.016c0.333,0.178,0.617,0.427,0.831,0.738c0.275,0.392,0.392,0.846,0.401,1.321l0.001,0.039
		l-0.001,0.037c-0.018,0.697-0.276,1.342-0.775,1.831l-0.013,0.012c-0.378,0.363-0.832,0.616-1.329,0.777l-0.019,0.006
		c-0.395,0.123-0.801,0.202-1.211,0.249l-0.021,0.002c-0.349,0.033-0.698,0.056-1.049,0.061c-0.247,0.002-0.496,0.004-0.743,0
		c-0.201,0-0.401,0-0.602,0c-0.305,0-0.609-0.014-0.913-0.031c-0.359-0.021-0.717-0.064-1.068-0.129
		c-0.395-0.072-0.781-0.182-1.149-0.34c-0.452-0.191-0.857-0.469-1.18-0.842c-0.055-0.062-0.105-0.125-0.153-0.191
		c-0.096,0.072-0.195,0.142-0.296,0.207c-0.465,0.307-0.963,0.558-1.479,0.757c-0.509,0.198-1.03,0.354-1.56,0.46
		c-0.519,0.108-1.045,0.172-1.578,0.172c-0.869-0.004-1.741-0.117-2.572-0.391c-0.754-0.251-1.469-0.607-2.1-1.094
		c-0.17-0.131-0.334-0.27-0.492-0.414c-0.06,0.075-0.123,0.148-0.191,0.219c-0.336,0.349-0.745,0.611-1.187,0.807
		c-0.386,0.172-0.787,0.303-1.196,0.402c-0.382,0.092-0.77,0.166-1.159,0.223c-0.345,0.05-0.691,0.09-1.039,0.119
		c-0.267,0.023-0.535,0.045-0.801,0.055c-0.133,0.004-0.269,0.012-0.402,0.012h-0.014h-0.014c-0.555-0.01-1.086-0.156-1.514-0.525
		c-0.007-0.007-0.015-0.014-0.022-0.02c-0.093,0.047-0.187,0.092-0.281,0.135c-0.314,0.145-0.642,0.25-0.978,0.33
		c-0.397,0.1-0.808,0.138-1.217,0.143h-0.015h-0.015c-0.767-0.005-1.515-0.156-2.218-0.463c-0.667-0.284-1.273-0.678-1.811-1.165
		c-0.522-0.474-0.973-1.011-1.345-1.608c-0.373-0.589-0.664-1.222-0.869-1.887s-0.315-1.353-0.32-2.049v-0.022
		c0.005-0.732,0.116-1.453,0.339-2.15c0.218-0.683,0.529-1.327,0.926-1.921c0.4-0.602,0.882-1.136,1.44-1.595
		c0.566-0.472,1.199-0.842,1.888-1.11c0.614-0.236,1.255-0.37,1.909-0.407c-0.016-0.114-0.024-0.231-0.026-0.348l0-0.04l0.001-0.041
		c0.021-0.691,0.328-1.307,0.833-1.774l0.012-0.011c0.361-0.328,0.787-0.578,1.234-0.77c0.417-0.178,0.849-0.321,1.288-0.435
		c0.421-0.112,0.847-0.206,1.276-0.281c0.377-0.069,0.756-0.127,1.136-0.177c0.279-0.037,0.56-0.069,0.84-0.094
		c0.156-0.016,0.325-0.036,0.48-0.036c0.551,0,1.083,0.155,1.52,0.5l0.021,0.017c0.401,0.326,0.667,0.771,0.795,1.269
		c0.089,0.337,0.121,0.689,0.117,1.037v3.869c0.447-0.53,0.965-0.99,1.541-1.374c0.635-0.428,1.327-0.754,2.06-0.979
		c0.75-0.229,1.523-0.339,2.307-0.343h0.017c0.831,0.004,1.659,0.118,2.446,0.389l0.012,0.004c0.691,0.244,1.348,0.58,1.926,1.034
		C113.307,98.275,113.313,98.28,113.319,98.285z"/>
	<path d="M108.782,102.408c-0.14,0.003-0.28,0.007-0.427,0.014c-0.147,0.007-0.284,0-0.407-0.024
		c-0.126-0.025-0.228-0.081-0.308-0.168c-0.077-0.087-0.116-0.224-0.12-0.41c0.003-0.228,0.06-0.449,0.172-0.659
		c0.112-0.21,0.267-0.382,0.456-0.519c0.189-0.137,0.399-0.207,0.634-0.21c0.259,0.004,0.484,0.063,0.669,0.179
		c0.183,0.119,0.326,0.28,0.424,0.48c0.099,0.203,0.147,0.431,0.147,0.687c0,0.186-0.038,0.326-0.112,0.417
		c-0.077,0.091-0.172,0.154-0.294,0.182c-0.123,0.028-0.256,0.042-0.399,0.039C109.069,102.416,108.926,102.412,108.782,102.408
		L108.782,102.408z M112.756,104.427c0.172,0.004,0.333-0.014,0.487-0.052c0.154-0.035,0.294-0.109,0.417-0.217
		c0.123-0.105,0.221-0.266,0.291-0.477s0.108-0.487,0.108-0.831c0-0.322-0.063-0.673-0.192-1.055
		c-0.13-0.385-0.326-0.767-0.593-1.153c-0.263-0.382-0.599-0.732-1.009-1.055c-0.406-0.319-0.891-0.575-1.447-0.771
		c-0.561-0.192-1.195-0.294-1.91-0.298c-0.634,0.003-1.241,0.091-1.826,0.27c-0.582,0.179-1.121,0.435-1.615,0.768
		c-0.495,0.33-0.929,0.726-1.297,1.188s-0.655,0.974-0.858,1.542c-0.204,0.568-0.309,1.178-0.312,1.826
		c0,0.547,0.077,1.083,0.235,1.609c0.154,0.525,0.385,1.02,0.697,1.479c0.308,0.463,0.694,0.869,1.153,1.223
		c0.459,0.354,0.996,0.627,1.605,0.831c0.609,0.2,1.293,0.302,2.05,0.305c0.385,0,0.795-0.046,1.234-0.137
		c0.435-0.087,0.869-0.218,1.293-0.382c0.428-0.164,0.816-0.364,1.167-0.596c0.351-0.229,0.631-0.487,0.841-0.771
		c0.211-0.283,0.319-0.585,0.323-0.911c-0.004-0.14-0.039-0.288-0.116-0.449c-0.073-0.161-0.172-0.301-0.294-0.42
		c-0.123-0.116-0.26-0.175-0.41-0.183c-0.108,0.003-0.242,0.053-0.399,0.147c-0.162,0.094-0.351,0.203-0.571,0.326
		c-0.225,0.123-0.484,0.231-0.785,0.326c-0.302,0.094-0.648,0.144-1.041,0.147c-0.252,0-0.512-0.053-0.785-0.154
		c-0.27-0.102-0.525-0.242-0.764-0.417c-0.235-0.179-0.428-0.385-0.579-0.617c-0.147-0.235-0.224-0.483-0.228-0.747
		c0.003-0.115,0.035-0.196,0.095-0.235c0.063-0.042,0.137-0.063,0.224-0.063c0.084,0,0.168,0,0.249,0.003H112.756L112.756,104.427z
		 M101.317,95.659c0.003-0.231-0.018-0.435-0.063-0.603c-0.042-0.168-0.119-0.301-0.231-0.393c-0.116-0.091-0.277-0.14-0.484-0.14
		c-0.014,0-0.119,0.007-0.319,0.028c-0.2,0.018-0.462,0.045-0.785,0.087c-0.322,0.042-0.672,0.095-1.058,0.165
		c-0.382,0.067-0.764,0.151-1.146,0.252c-0.382,0.098-0.732,0.217-1.051,0.354s-0.575,0.294-0.768,0.47
		c-0.193,0.179-0.291,0.378-0.298,0.599c0.003,0.221,0.056,0.386,0.161,0.491c0.102,0.109,0.228,0.186,0.378,0.238
		s0.305,0.108,0.456,0.165c0.151,0.06,0.277,0.151,0.382,0.277c0.102,0.129,0.154,0.319,0.158,0.575c0,0.06,0,0.14-0.007,0.242
		c-0.007,0.102-0.021,0.203-0.042,0.308c-0.021,0.102-0.056,0.193-0.102,0.263c-0.045,0.07-0.109,0.108-0.186,0.112
		c-0.056-0.004-0.15-0.035-0.284-0.099c-0.133-0.063-0.301-0.136-0.508-0.217c-0.21-0.081-0.456-0.154-0.739-0.217
		c-0.284-0.063-0.61-0.095-0.971-0.099c-0.582,0.003-1.132,0.105-1.651,0.305c-0.522,0.203-0.995,0.48-1.423,0.837
		c-0.431,0.354-0.802,0.764-1.114,1.234c-0.312,0.466-0.554,0.967-0.726,1.503s-0.256,1.086-0.259,1.65
		c0.003,0.522,0.084,1.044,0.246,1.566c0.161,0.522,0.389,1.02,0.687,1.49c0.294,0.474,0.645,0.89,1.051,1.259
		c0.407,0.367,0.855,0.658,1.35,0.869c0.491,0.213,1.013,0.322,1.566,0.325c0.309-0.003,0.589-0.032,0.838-0.095
		c0.252-0.06,0.477-0.133,0.68-0.228c0.203-0.091,0.382-0.187,0.543-0.288c0.242-0.164,0.442-0.305,0.606-0.424
		c0.161-0.119,0.287-0.178,0.382-0.186c0.133,0.004,0.225,0.043,0.27,0.119c0.042,0.078,0.07,0.176,0.077,0.287
		c0.007,0.116,0.021,0.229,0.045,0.344c0.021,0.112,0.077,0.211,0.168,0.287c0.087,0.078,0.238,0.116,0.448,0.119
		c0.039,0,0.151-0.003,0.34-0.01c0.189-0.008,0.431-0.025,0.722-0.049c0.288-0.025,0.603-0.061,0.939-0.109s0.673-0.111,1.006-0.192
		c0.333-0.081,0.634-0.183,0.911-0.306c0.277-0.122,0.498-0.27,0.662-0.441c0.165-0.168,0.252-0.367,0.256-0.596
		c-0.003-0.213-0.042-0.378-0.116-0.494c-0.074-0.115-0.168-0.213-0.277-0.287c-0.108-0.073-0.221-0.158-0.33-0.245
		c-0.108-0.091-0.203-0.217-0.277-0.378c-0.073-0.161-0.112-0.386-0.115-0.677V95.659L101.317,95.659z M96.67,103.418
		c0.003,0.189,0,0.431-0.003,0.722c-0.004,0.287-0.021,0.592-0.056,0.915c-0.035,0.319-0.098,0.621-0.189,0.904
		s-0.224,0.515-0.396,0.694c-0.175,0.179-0.399,0.27-0.68,0.277c-0.26-0.003-0.48-0.066-0.663-0.186
		c-0.182-0.123-0.333-0.284-0.449-0.484s-0.207-0.42-0.273-0.662c-0.063-0.238-0.109-0.48-0.137-0.719
		c-0.025-0.242-0.035-0.462-0.035-0.662c0-0.203,0.01-0.449,0.039-0.732c0.024-0.288,0.073-0.585,0.14-0.894
		c0.07-0.308,0.165-0.596,0.287-0.865c0.126-0.27,0.288-0.487,0.48-0.655c0.196-0.168,0.435-0.256,0.715-0.26
		c0.242,0.004,0.441,0.067,0.596,0.193c0.154,0.123,0.273,0.288,0.361,0.487c0.088,0.203,0.147,0.42,0.186,0.655
		s0.06,0.462,0.066,0.687C96.67,103.053,96.674,103.25,96.67,103.418L96.67,103.418z M120.936,101.42
		c0-0.754,0.015-1.458,0.042-2.106c0.028-0.652,0.06-1.23,0.095-1.742c0.035-0.512,0.066-0.932,0.095-1.269
		c0.028-0.333,0.042-0.564,0.042-0.687c0.004-0.214-0.021-0.4-0.07-0.564s-0.136-0.291-0.266-0.385
		c-0.13-0.095-0.313-0.144-0.547-0.144c-0.046,0-0.187,0.011-0.414,0.028c-0.224,0.021-0.512,0.056-0.858,0.102
		c-0.344,0.045-0.719,0.108-1.118,0.189c-0.402,0.078-0.802,0.176-1.195,0.291c-0.396,0.116-0.757,0.252-1.086,0.41
		c-0.326,0.158-0.589,0.343-0.785,0.55c-0.199,0.207-0.298,0.438-0.305,0.701c0.004,0.235,0.046,0.414,0.133,0.54
		c0.084,0.126,0.193,0.228,0.323,0.308c0.133,0.077,0.273,0.161,0.417,0.256c0.143,0.091,0.276,0.224,0.399,0.393
		c0.122,0.168,0.217,0.407,0.284,0.711c0.045,0.238,0.08,0.508,0.102,0.806c0.024,0.298,0.038,0.603,0.041,0.911
		c0.008,0.312,0.011,0.61,0.008,0.89c0,0.28-0.004,0.526-0.004,0.736c0,0.21,0,0.47-0.004,0.782c0,0.312-0.007,0.648-0.014,1.006
		c-0.007,0.357-0.021,0.715-0.042,1.065c-0.018,0.354-0.046,0.673-0.08,0.967c-0.035,0.291-0.078,0.522-0.134,0.701
		c-0.066,0.189-0.161,0.33-0.287,0.417c-0.123,0.091-0.253,0.164-0.386,0.217c-0.133,0.057-0.245,0.127-0.336,0.211
		c-0.095,0.084-0.145,0.217-0.147,0.396c0.003,0.249,0.077,0.456,0.225,0.62c0.144,0.168,0.336,0.302,0.574,0.403
		c0.238,0.103,0.501,0.179,0.792,0.231c0.287,0.053,0.578,0.088,0.869,0.105c0.295,0.018,0.564,0.027,0.813,0.027
		c0.248,0,0.455,0,0.616,0c0.187,0.004,0.424,0.004,0.708,0c0.287-0.003,0.586-0.021,0.904-0.053
		c0.315-0.034,0.617-0.094,0.897-0.182c0.28-0.091,0.508-0.221,0.687-0.393c0.176-0.172,0.267-0.396,0.273-0.676
		c-0.004-0.176-0.035-0.309-0.102-0.4c-0.063-0.094-0.147-0.164-0.245-0.217c-0.102-0.049-0.207-0.098-0.315-0.141
		c-0.112-0.045-0.21-0.108-0.305-0.186c-0.092-0.077-0.161-0.193-0.211-0.34c-0.035-0.116-0.056-0.259-0.069-0.431
		c-0.011-0.171-0.015-0.343-0.015-0.519s0-0.33,0-0.459V101.42z"/>
	<path d="M80.101,102.135c-0.003-0.526-0.087-0.978-0.249-1.363c-0.161-0.386-0.375-0.711-0.645-0.978
		c-0.27-0.266-0.568-0.484-0.897-0.652c-0.326-0.168-0.659-0.298-0.996-0.386c-0.333-0.091-0.648-0.154-0.942-0.189
		c-0.298-0.035-0.547-0.053-0.75-0.049c-0.336,0-0.704,0.032-1.104,0.095s-0.81,0.151-1.223,0.27s-0.813,0.267-1.199,0.438
		c-0.382,0.172-0.726,0.364-1.03,0.582c-0.305,0.221-0.543,0.458-0.722,0.722c-0.179,0.259-0.27,0.54-0.273,0.837
		c0.003,0.225,0.052,0.424,0.154,0.6c0.105,0.171,0.242,0.308,0.42,0.406c0.175,0.098,0.375,0.147,0.603,0.151
		c0.309-0.003,0.579-0.06,0.803-0.168c0.228-0.109,0.424-0.249,0.592-0.421c0.171-0.172,0.326-0.354,0.462-0.547
		c0.141-0.192,0.277-0.375,0.414-0.546c0.133-0.172,0.28-0.312,0.438-0.421c0.158-0.108,0.344-0.165,0.55-0.168
		c0.238,0.007,0.428,0.084,0.564,0.238c0.133,0.151,0.231,0.343,0.294,0.575c0.06,0.228,0.098,0.463,0.112,0.705
		c0.014,0.238,0.021,0.449,0.018,0.627c0,0.249-0.031,0.42-0.102,0.522c-0.066,0.102-0.168,0.158-0.308,0.175
		c-0.141,0.018-0.319,0.021-0.537,0.018c-0.921,0.007-1.71,0.109-2.362,0.312c-0.652,0.204-1.185,0.47-1.591,0.799
		c-0.406,0.33-0.708,0.69-0.897,1.079c-0.189,0.389-0.284,0.775-0.28,1.153c0.003,0.519,0.105,0.967,0.301,1.35
		c0.193,0.378,0.459,0.689,0.789,0.936c0.333,0.245,0.705,0.428,1.118,0.543c0.414,0.119,0.841,0.179,1.283,0.179
		c0.48-0.007,0.887-0.063,1.22-0.171c0.333-0.109,0.613-0.232,0.841-0.376c0.154-0.087,0.288-0.168,0.407-0.249
		c0.116-0.08,0.224-0.143,0.315-0.195c0.095-0.053,0.183-0.081,0.267-0.081c0.126,0.007,0.238,0.06,0.336,0.168
		c0.098,0.105,0.217,0.228,0.354,0.368c0.136,0.141,0.322,0.263,0.564,0.368c0.238,0.104,0.564,0.161,0.974,0.168
		c0.389-0.003,0.771-0.077,1.143-0.224c0.375-0.145,0.715-0.337,1.02-0.579c0.305-0.241,0.55-0.508,0.732-0.802
		c0.182-0.295,0.277-0.593,0.28-0.898c0-0.158-0.024-0.263-0.07-0.319c-0.045-0.056-0.105-0.084-0.179-0.087
		c-0.077-0.003-0.158-0.011-0.249-0.014c-0.087-0.003-0.179-0.035-0.267-0.091c-0.091-0.056-0.171-0.168-0.249-0.33
		c-0.074-0.158-0.133-0.399-0.179-0.715s-0.07-0.736-0.07-1.262V102.135L80.101,102.135z M74.991,104.742
		c0.192,0.003,0.33,0.056,0.41,0.154s0.126,0.221,0.14,0.372c0.018,0.151,0.021,0.305,0.018,0.463
		c0.003,0.161-0.007,0.326-0.021,0.498c-0.018,0.175-0.052,0.336-0.108,0.487c-0.056,0.147-0.144,0.27-0.259,0.365
		c-0.119,0.091-0.273,0.14-0.473,0.144c-0.204-0.003-0.372-0.063-0.505-0.172c-0.133-0.112-0.235-0.256-0.301-0.427
		c-0.066-0.172-0.098-0.351-0.098-0.537c0-0.228,0.053-0.445,0.151-0.648c0.102-0.203,0.242-0.368,0.42-0.498
		C74.542,104.813,74.752,104.746,74.991,104.742L74.991,104.742z M67.547,95.848c-0.003-0.263-0.07-0.48-0.2-0.652
		c-0.129-0.171-0.298-0.305-0.504-0.406c-0.207-0.098-0.428-0.168-0.663-0.207c-0.235-0.042-0.459-0.06-0.673-0.06
		c-0.182,0-0.399,0.014-0.659,0.049c-0.256,0.031-0.526,0.081-0.817,0.151c-0.287,0.066-0.571,0.15-0.852,0.255
		c-0.277,0.105-0.533,0.231-0.761,0.375c-0.231,0.147-0.413,0.312-0.55,0.498c-0.137,0.186-0.207,0.396-0.21,0.627
		c0.003,0.256,0.056,0.477,0.161,0.659c0.105,0.182,0.246,0.329,0.424,0.441c0.175,0.116,0.372,0.196,0.585,0.249
		c0.217,0.056,0.434,0.081,0.659,0.081c0.203,0,0.441-0.014,0.718-0.039c0.273-0.028,0.561-0.07,0.866-0.133
		c0.305-0.06,0.603-0.14,0.894-0.245c0.294-0.102,0.557-0.228,0.796-0.382c0.238-0.15,0.427-0.329,0.567-0.54
		S67.544,96.121,67.547,95.848L67.547,95.848z M67.653,99.507c0.003-0.151-0.007-0.294-0.028-0.435
		c-0.024-0.144-0.081-0.259-0.175-0.35c-0.091-0.091-0.242-0.137-0.448-0.14c-0.035,0-0.162,0.014-0.375,0.039
		c-0.214,0.028-0.487,0.066-0.817,0.123c-0.333,0.053-0.694,0.123-1.083,0.203c-0.385,0.084-0.774,0.182-1.156,0.298
		c-0.386,0.112-0.736,0.242-1.055,0.389c-0.319,0.144-0.575,0.305-0.768,0.483c-0.193,0.179-0.291,0.375-0.298,0.589
		c0.007,0.231,0.063,0.407,0.172,0.522c0.109,0.12,0.238,0.21,0.389,0.281c0.151,0.074,0.291,0.154,0.424,0.245
		c0.133,0.091,0.224,0.225,0.276,0.403c0.039,0.133,0.07,0.319,0.095,0.557c0.021,0.238,0.039,0.508,0.049,0.81
		c0.007,0.298,0.01,0.61,0.003,0.929c-0.003,0.322-0.018,0.631-0.035,0.929c-0.021,0.301-0.045,0.564-0.077,0.799
		c-0.035,0.235-0.074,0.414-0.119,0.54c-0.066,0.158-0.161,0.291-0.28,0.396c-0.119,0.102-0.246,0.2-0.372,0.292
		c-0.126,0.088-0.235,0.192-0.322,0.309c-0.091,0.119-0.137,0.27-0.14,0.455c-0.003,0.102,0.01,0.214,0.045,0.333
		c0.032,0.116,0.112,0.234,0.238,0.351c0.126,0.115,0.323,0.225,0.592,0.318c0.27,0.099,0.642,0.176,1.107,0.231
		c0.47,0.06,1.062,0.091,1.78,0.091c0.161,0,0.361,0,0.596-0.006c0.239-0.008,0.491-0.021,0.764-0.047
		c0.27-0.023,0.54-0.066,0.802-0.125c0.267-0.061,0.508-0.141,0.726-0.246c0.221-0.105,0.396-0.238,0.526-0.402
		c0.133-0.165,0.2-0.365,0.203-0.604c-0.003-0.182-0.031-0.318-0.091-0.413s-0.137-0.172-0.231-0.228
		c-0.095-0.061-0.193-0.123-0.298-0.193c-0.105-0.07-0.204-0.172-0.298-0.305c-0.095-0.133-0.172-0.323-0.231-0.568
		c-0.06-0.249-0.087-0.575-0.091-0.985V99.507L67.653,99.507z M59.746,101.42c0-0.754,0.014-1.458,0.042-2.106
		c0.028-0.652,0.06-1.23,0.094-1.742c0.035-0.512,0.067-0.932,0.095-1.269c0.028-0.333,0.042-0.564,0.042-0.687
		c0.003-0.214-0.021-0.4-0.07-0.564c-0.049-0.165-0.137-0.291-0.267-0.385c-0.129-0.095-0.312-0.144-0.546-0.144
		c-0.046,0-0.186,0.011-0.414,0.028c-0.225,0.021-0.512,0.056-0.858,0.102c-0.344,0.045-0.719,0.108-1.119,0.189
		c-0.403,0.078-0.802,0.176-1.195,0.291c-0.396,0.116-0.757,0.252-1.086,0.41c-0.326,0.158-0.588,0.343-0.785,0.55
		c-0.199,0.207-0.298,0.438-0.305,0.701c0.003,0.235,0.046,0.414,0.133,0.54c0.084,0.126,0.192,0.228,0.322,0.308
		c0.133,0.077,0.273,0.161,0.417,0.256c0.144,0.091,0.277,0.224,0.399,0.393c0.123,0.168,0.217,0.407,0.284,0.711
		c0.045,0.238,0.081,0.508,0.102,0.806c0.024,0.298,0.039,0.603,0.042,0.911c0.007,0.312,0.011,0.61,0.007,0.89
		c0,0.28-0.004,0.526-0.004,0.736c0,0.21,0,0.47-0.003,0.782c0,0.312-0.007,0.648-0.014,1.006c-0.007,0.357-0.021,0.715-0.042,1.065
		c-0.017,0.354-0.045,0.673-0.081,0.967c-0.035,0.291-0.077,0.522-0.133,0.701c-0.066,0.189-0.161,0.33-0.287,0.417
		c-0.123,0.091-0.252,0.164-0.386,0.217c-0.133,0.057-0.245,0.127-0.336,0.211c-0.095,0.084-0.144,0.217-0.147,0.396
		c0.003,0.249,0.077,0.456,0.224,0.62c0.144,0.168,0.336,0.302,0.575,0.403c0.239,0.103,0.501,0.179,0.792,0.231
		c0.287,0.053,0.578,0.088,0.869,0.105c0.294,0.018,0.564,0.027,0.813,0.027c0.249,0,0.456,0,0.617,0
		c0.186,0.004,0.424,0.004,0.708,0c0.288-0.003,0.585-0.021,0.905-0.053c0.315-0.034,0.616-0.094,0.897-0.182
		c0.28-0.091,0.508-0.221,0.687-0.393c0.175-0.172,0.266-0.396,0.273-0.676c-0.003-0.176-0.035-0.309-0.102-0.4
		c-0.063-0.094-0.147-0.164-0.245-0.217c-0.102-0.049-0.207-0.098-0.315-0.141c-0.112-0.045-0.21-0.108-0.305-0.186
		c-0.091-0.077-0.162-0.193-0.21-0.34c-0.035-0.116-0.056-0.259-0.07-0.431c-0.01-0.171-0.014-0.343-0.014-0.519s0-0.33,0-0.459
		V101.42L59.746,101.42z M51.609,102.135c-0.004-0.526-0.088-0.978-0.249-1.363c-0.161-0.386-0.375-0.711-0.645-0.978
		c-0.27-0.266-0.567-0.484-0.897-0.652c-0.326-0.168-0.659-0.298-0.995-0.386c-0.333-0.091-0.648-0.154-0.943-0.189
		c-0.298-0.035-0.547-0.053-0.75-0.049c-0.336,0-0.705,0.032-1.104,0.095s-0.81,0.151-1.223,0.27
		c-0.413,0.119-0.813,0.267-1.198,0.438c-0.382,0.172-0.726,0.364-1.031,0.582c-0.304,0.221-0.543,0.458-0.722,0.722
		c-0.179,0.259-0.27,0.54-0.273,0.837c0.003,0.225,0.053,0.424,0.154,0.6c0.105,0.171,0.242,0.308,0.42,0.406
		c0.175,0.098,0.375,0.147,0.603,0.151c0.308-0.003,0.578-0.06,0.803-0.168c0.228-0.109,0.424-0.249,0.592-0.421
		c0.172-0.172,0.326-0.354,0.463-0.547c0.14-0.192,0.277-0.375,0.414-0.546c0.133-0.172,0.28-0.312,0.438-0.421
		c0.158-0.108,0.343-0.165,0.55-0.168c0.238,0.007,0.427,0.084,0.564,0.238c0.133,0.151,0.231,0.343,0.294,0.575
		c0.06,0.228,0.098,0.463,0.112,0.705c0.014,0.238,0.021,0.449,0.018,0.627c0,0.249-0.032,0.42-0.102,0.522
		c-0.066,0.102-0.168,0.158-0.309,0.175s-0.319,0.021-0.536,0.018c-0.922,0.007-1.71,0.109-2.362,0.312
		c-0.652,0.204-1.185,0.47-1.591,0.799s-0.708,0.69-0.897,1.079c-0.189,0.389-0.284,0.775-0.28,1.153
		c0.004,0.519,0.105,0.967,0.302,1.35c0.192,0.378,0.459,0.689,0.789,0.936c0.333,0.245,0.704,0.428,1.118,0.543
		c0.414,0.119,0.841,0.179,1.283,0.179c0.48-0.007,0.887-0.063,1.22-0.171c0.333-0.109,0.613-0.232,0.841-0.376
		c0.154-0.087,0.288-0.168,0.407-0.249c0.116-0.08,0.224-0.143,0.315-0.195c0.094-0.053,0.182-0.081,0.266-0.081
		c0.126,0.007,0.238,0.06,0.336,0.168c0.098,0.105,0.217,0.228,0.354,0.368s0.322,0.263,0.564,0.368
		c0.239,0.104,0.564,0.161,0.975,0.168c0.389-0.003,0.771-0.077,1.143-0.224c0.375-0.145,0.715-0.337,1.02-0.579
		c0.305-0.241,0.55-0.508,0.733-0.802c0.182-0.295,0.276-0.593,0.28-0.898c0-0.158-0.024-0.263-0.07-0.319
		c-0.045-0.056-0.105-0.084-0.179-0.087c-0.077-0.003-0.158-0.011-0.249-0.014c-0.088-0.003-0.179-0.035-0.267-0.091
		c-0.091-0.056-0.171-0.168-0.249-0.33c-0.073-0.158-0.133-0.399-0.179-0.715c-0.045-0.315-0.07-0.736-0.07-1.262V102.135
		L51.609,102.135z M46.5,104.742c0.192,0.003,0.329,0.056,0.41,0.154s0.126,0.221,0.14,0.372c0.018,0.151,0.021,0.305,0.018,0.463
		c0.003,0.161-0.007,0.326-0.021,0.498c-0.018,0.175-0.053,0.336-0.108,0.487c-0.057,0.147-0.144,0.27-0.26,0.365
		c-0.119,0.091-0.273,0.14-0.473,0.144c-0.204-0.003-0.372-0.063-0.505-0.172c-0.133-0.112-0.235-0.256-0.301-0.427
		c-0.067-0.172-0.099-0.351-0.099-0.537c0-0.228,0.053-0.445,0.151-0.648c0.102-0.203,0.242-0.368,0.42-0.498
		C46.051,104.813,46.261,104.746,46.5,104.742L46.5,104.742z M37.205,101.588c-0.003-0.249,0.007-0.428,0.039-0.54
		c0.028-0.108,0.098-0.178,0.21-0.207c0.112-0.024,0.288-0.035,0.529-0.032h1.451c0.203,0.004,0.368-0.007,0.498-0.031
		c0.126-0.024,0.224-0.077,0.294-0.161c0.066-0.081,0.116-0.21,0.14-0.386c0.024-0.171,0.035-0.406,0.035-0.704
		c0.007-0.312-0.007-0.537-0.035-0.684c-0.028-0.144-0.105-0.235-0.231-0.273c-0.129-0.042-0.343-0.056-0.638-0.053h-1.472
		c-0.179,0-0.323,0-0.424-0.007c-0.105-0.003-0.182-0.018-0.231-0.042c-0.049-0.024-0.084-0.063-0.102-0.119
		c-0.035-0.088-0.056-0.21-0.063-0.372c-0.007-0.161-0.011-0.343-0.007-0.546c0.003-0.207,0.007-0.417,0.007-0.638
		c0.003-0.238-0.003-0.42-0.021-0.546c-0.014-0.126-0.049-0.21-0.105-0.259c-0.056-0.046-0.144-0.07-0.263-0.074
		c-0.123-0.007-0.287-0.007-0.494-0.003c-0.154,0-0.277-0.003-0.368-0.007c-0.091,0-0.168,0.004-0.235,0.011
		c-0.063,0.01-0.133,0.031-0.203,0.066c-0.074,0.035-0.168,0.088-0.288,0.161l-4.794,3.049c-0.081,0.056-0.137,0.119-0.162,0.189
		c-0.024,0.07-0.039,0.147-0.035,0.231c0.004,0.084,0.004,0.175,0.007,0.273c-0.003,0.238-0.007,0.42-0.003,0.546
		c0.003,0.126,0.039,0.224,0.108,0.294c0.049,0.049,0.151,0.077,0.298,0.081c0.147,0.003,0.358,0.007,0.627,0.003
		c0.238-0.003,0.424-0.007,0.554-0.014c0.126-0.007,0.217,0.007,0.266,0.035c0.049,0.028,0.081,0.088,0.091,0.176
		c0.011,0.087,0.018,0.228,0.014,0.414v4.331c0.007,0.666,0.102,1.227,0.287,1.678c0.189,0.457,0.431,0.824,0.729,1.105
		c0.298,0.283,0.617,0.496,0.96,0.645c0.34,0.15,0.669,0.248,0.985,0.305c0.315,0.053,0.582,0.076,0.802,0.073
		c0.428,0,0.859-0.049,1.286-0.137c0.428-0.091,0.837-0.218,1.223-0.382c0.386-0.161,0.729-0.354,1.03-0.571
		c0.305-0.218,0.54-0.456,0.715-0.715c0.175-0.256,0.263-0.522,0.266-0.803c0-0.13-0.031-0.27-0.091-0.42
		c-0.06-0.147-0.144-0.273-0.252-0.378c-0.105-0.109-0.231-0.165-0.372-0.168c-0.095,0.004-0.189,0.028-0.288,0.077
		c-0.098,0.045-0.203,0.102-0.315,0.165c-0.109,0.063-0.231,0.119-0.365,0.165c-0.133,0.049-0.28,0.074-0.441,0.077
		c-0.193,0.003-0.379-0.042-0.554-0.14c-0.175-0.098-0.315-0.273-0.428-0.526c-0.112-0.256-0.172-0.613-0.175-1.08V101.588
		L37.205,101.588z M23.285,102.934c0,0.732-0.014,1.342-0.035,1.829c-0.024,0.487-0.06,0.876-0.102,1.171
		c-0.042,0.298-0.091,0.522-0.147,0.68c-0.056,0.154-0.116,0.267-0.179,0.336c-0.087,0.098-0.189,0.182-0.305,0.259
		c-0.119,0.074-0.235,0.148-0.347,0.228c-0.112,0.077-0.207,0.172-0.284,0.277c-0.074,0.107-0.112,0.248-0.116,0.413
		c0.003,0.224,0.07,0.413,0.2,0.567c0.13,0.158,0.305,0.284,0.519,0.386c0.217,0.099,0.456,0.179,0.719,0.235
		c0.259,0.056,0.522,0.098,0.789,0.122c0.263,0.024,0.511,0.042,0.739,0.05c0.228,0.003,0.417,0.006,0.568,0.006
		c0.915-0.003,1.671-0.035,2.268-0.104c0.596-0.067,1.065-0.154,1.409-0.271c0.343-0.111,0.596-0.238,0.757-0.375
		s0.263-0.276,0.305-0.42c0.042-0.145,0.063-0.281,0.056-0.406c-0.003-0.215-0.052-0.379-0.15-0.498s-0.224-0.221-0.378-0.301
		c-0.158-0.081-0.323-0.172-0.501-0.273c-0.084-0.046-0.161-0.095-0.231-0.144c-0.07-0.053-0.133-0.141-0.186-0.263
		c-0.056-0.126-0.102-0.319-0.14-0.585c-0.039-0.263-0.066-0.631-0.088-1.101c-0.017-0.47-0.028-1.076-0.028-1.819v-2.082
		c0-0.372,0.003-0.757,0.011-1.153c0.007-0.396,0.024-0.778,0.049-1.139c0.028-0.361,0.07-0.68,0.126-0.95
		c0.056-0.27,0.136-0.466,0.234-0.585c0.123-0.133,0.259-0.242,0.403-0.322c0.147-0.081,0.288-0.158,0.42-0.231
		c0.133-0.07,0.242-0.161,0.326-0.27c0.088-0.105,0.13-0.252,0.133-0.438c-0.003-0.284-0.098-0.519-0.28-0.701
		c-0.179-0.186-0.417-0.33-0.711-0.435c-0.294-0.105-0.613-0.183-0.957-0.231c-0.344-0.045-0.684-0.077-1.017-0.091
		c-0.329-0.011-0.624-0.018-0.883-0.015c-0.063,0-0.196,0-0.393,0.004c-0.2,0.003-0.442,0.014-0.726,0.031
		c-0.284,0.018-0.589,0.046-0.911,0.084c-0.326,0.039-0.645,0.094-0.96,0.165c-0.315,0.066-0.603,0.158-0.858,0.266
		c-0.259,0.112-0.466,0.246-0.624,0.403c-0.154,0.158-0.235,0.343-0.238,0.561c0.003,0.196,0.049,0.357,0.137,0.48
		c0.088,0.126,0.2,0.234,0.333,0.326c0.137,0.095,0.28,0.189,0.428,0.291c0.147,0.102,0.284,0.224,0.406,0.375
		c0.06,0.07,0.116,0.171,0.168,0.309c0.052,0.133,0.098,0.329,0.14,0.588c0.042,0.256,0.074,0.599,0.098,1.034
		c0.021,0.431,0.035,0.981,0.035,1.644V102.934z"/>
	<path d="M190.432,105.604c0.003,0.228-0.021,0.445-0.074,0.645c-0.053,0.203-0.147,0.368-0.287,0.49
		c-0.141,0.123-0.344,0.179-0.606,0.168c-0.242-0.018-0.455-0.112-0.638-0.28c-0.186-0.172-0.347-0.393-0.483-0.666
		c-0.137-0.277-0.253-0.578-0.348-0.911c-0.094-0.333-0.175-0.673-0.234-1.016c-0.06-0.344-0.105-0.669-0.141-0.975
		c-0.035-0.308-0.056-0.575-0.069-0.799c-0.015-0.207,0.017-0.407,0.095-0.599c0.076-0.189,0.192-0.347,0.35-0.47
		c0.158-0.126,0.354-0.189,0.586-0.193c0.238,0.003,0.448,0.095,0.634,0.273s0.344,0.417,0.48,0.711
		c0.137,0.291,0.252,0.613,0.347,0.964c0.095,0.347,0.172,0.697,0.228,1.041c0.057,0.347,0.099,0.663,0.123,0.946
		C190.421,105.219,190.432,105.443,190.432,105.604L190.432,105.604z M188.476,109.558c0.624,0,1.255-0.084,1.893-0.245
		c0.638-0.165,1.251-0.403,1.833-0.715c0.585-0.315,1.107-0.697,1.566-1.146c0.459-0.452,0.823-0.967,1.09-1.542
		c0.267-0.579,0.403-1.213,0.41-1.903c0-0.525-0.085-1.051-0.249-1.573c-0.165-0.522-0.406-1.017-0.726-1.486
		c-0.322-0.466-0.715-0.883-1.185-1.248c-0.466-0.364-1.002-0.652-1.608-0.862c-0.606-0.207-1.279-0.316-2.015-0.319
		c-0.698,0-1.378,0.084-2.037,0.252c-0.658,0.165-1.275,0.41-1.847,0.736c-0.571,0.326-1.072,0.725-1.503,1.202
		c-0.432,0.473-0.771,1.02-1.013,1.64c-0.242,0.617-0.368,1.304-0.372,2.057c0.007,0.831,0.161,1.567,0.463,2.208
		c0.301,0.638,0.718,1.177,1.251,1.613c0.533,0.438,1.143,0.771,1.836,0.994C186.955,109.445,187.69,109.558,188.476,109.558
		L188.476,109.558z M178.908,101.588c-0.004-0.249,0.007-0.428,0.038-0.54c0.028-0.108,0.099-0.178,0.211-0.207
		c0.111-0.024,0.287-0.035,0.529-0.032h1.45c0.204,0.004,0.368-0.007,0.498-0.031c0.126-0.024,0.225-0.077,0.294-0.161
		c0.066-0.081,0.116-0.21,0.141-0.386c0.024-0.171,0.035-0.406,0.035-0.704c0.007-0.312-0.007-0.537-0.035-0.684
		c-0.028-0.144-0.105-0.235-0.231-0.273c-0.13-0.042-0.344-0.056-0.638-0.053h-1.472c-0.179,0-0.322,0-0.424-0.007
		c-0.105-0.003-0.183-0.018-0.231-0.042c-0.05-0.024-0.084-0.063-0.102-0.119c-0.035-0.088-0.057-0.21-0.063-0.372
		c-0.007-0.161-0.011-0.343-0.007-0.546c0.003-0.207,0.007-0.417,0.007-0.638c0.004-0.238-0.004-0.42-0.021-0.546
		c-0.014-0.126-0.049-0.21-0.104-0.259c-0.057-0.046-0.145-0.07-0.263-0.074c-0.123-0.007-0.288-0.007-0.494-0.003
		c-0.154,0-0.277-0.003-0.368-0.007c-0.091,0-0.169,0.004-0.235,0.011c-0.063,0.01-0.133,0.031-0.203,0.066
		c-0.073,0.035-0.168,0.088-0.287,0.161l-4.795,3.049c-0.08,0.056-0.136,0.119-0.161,0.189c-0.024,0.07-0.038,0.147-0.034,0.231
		c0.003,0.084,0.003,0.175,0.007,0.273c-0.004,0.238-0.007,0.42-0.004,0.546c0.004,0.126,0.039,0.224,0.109,0.294
		c0.049,0.049,0.15,0.077,0.298,0.081c0.146,0.003,0.356,0.007,0.627,0.003c0.238-0.003,0.424-0.007,0.554-0.014
		c0.126-0.007,0.217,0.007,0.267,0.035c0.049,0.028,0.08,0.088,0.091,0.176c0.011,0.087,0.018,0.228,0.014,0.414v4.331
		c0.007,0.666,0.102,1.227,0.288,1.678c0.188,0.457,0.431,0.824,0.729,1.105c0.298,0.283,0.617,0.496,0.96,0.645
		c0.34,0.15,0.67,0.248,0.985,0.305c0.315,0.053,0.582,0.076,0.803,0.073c0.427,0,0.858-0.049,1.285-0.137
		c0.428-0.091,0.838-0.218,1.224-0.382c0.386-0.161,0.729-0.354,1.03-0.571c0.305-0.218,0.54-0.456,0.715-0.715
		c0.176-0.256,0.263-0.522,0.267-0.803c0-0.13-0.031-0.27-0.091-0.42c-0.06-0.147-0.145-0.273-0.253-0.378
		c-0.105-0.109-0.231-0.165-0.371-0.168c-0.095,0.004-0.189,0.028-0.287,0.077c-0.099,0.045-0.204,0.102-0.315,0.165
		c-0.108,0.063-0.231,0.119-0.365,0.165c-0.133,0.049-0.28,0.074-0.441,0.077c-0.192,0.003-0.378-0.042-0.554-0.14
		c-0.175-0.098-0.315-0.273-0.428-0.526c-0.111-0.256-0.171-0.613-0.175-1.08V101.588L178.908,101.588z M166.376,98.518
		c-0.544,0-1.052,0.081-1.521,0.238c-0.47,0.162-0.884,0.389-1.238,0.687c-0.354,0.298-0.631,0.659-0.826,1.08
		c-0.2,0.42-0.302,0.894-0.305,1.423c0.003,0.494,0.08,0.925,0.228,1.296c0.15,0.372,0.347,0.694,0.588,0.968
		c0.246,0.273,0.516,0.511,0.807,0.715c0.291,0.2,0.585,0.382,0.876,0.54c0.295,0.154,0.561,0.301,0.807,0.441
		c0.245,0.137,0.441,0.277,0.589,0.421c0.146,0.144,0.224,0.301,0.228,0.477c-0.004,0.154-0.043,0.28-0.119,0.378
		c-0.078,0.102-0.179,0.176-0.302,0.225c-0.122,0.045-0.256,0.07-0.399,0.07c-0.234-0.008-0.459-0.078-0.669-0.218
		c-0.211-0.137-0.414-0.309-0.61-0.515c-0.192-0.207-0.382-0.41-0.567-0.617c-0.186-0.204-0.368-0.379-0.547-0.516
		c-0.183-0.14-0.364-0.21-0.551-0.217c-0.199,0.003-0.36,0.046-0.477,0.133c-0.119,0.091-0.199,0.207-0.248,0.357
		c-0.05,0.147-0.074,0.312-0.074,0.498c0,0.203,0.032,0.421,0.092,0.659c0.059,0.235,0.137,0.473,0.238,0.711
		c0.098,0.241,0.21,0.466,0.336,0.677c0.123,0.21,0.253,0.389,0.386,0.539c0.098,0.112,0.189,0.196,0.277,0.252
		c0.087,0.061,0.185,0.099,0.287,0.119c0.102,0.021,0.224,0.028,0.36,0.028c0.074,0,0.144-0.003,0.207-0.014
		c0.066-0.007,0.13-0.018,0.192-0.028c0.074-0.01,0.144-0.021,0.211-0.027c0.066-0.012,0.137-0.015,0.21-0.015
		c0.07,0,0.203,0.015,0.406,0.038c0.203,0.025,0.438,0.057,0.708,0.088c0.271,0.043,0.54,0.078,0.816,0.105
		c0.277,0.027,0.522,0.042,0.739,0.042c0.551-0.003,1.073-0.084,1.563-0.245s0.929-0.389,1.308-0.688
		c0.382-0.294,0.68-0.648,0.896-1.055c0.218-0.406,0.33-0.858,0.333-1.356c-0.003-0.463-0.091-0.873-0.256-1.223
		c-0.168-0.354-0.385-0.663-0.662-0.929c-0.273-0.266-0.574-0.501-0.904-0.705c-0.326-0.203-0.655-0.385-0.981-0.55
		c-0.329-0.165-0.631-0.323-0.903-0.47c-0.277-0.151-0.495-0.302-0.663-0.459c-0.164-0.158-0.252-0.333-0.256-0.522
		c0.004-0.137,0.039-0.256,0.112-0.364c0.073-0.105,0.165-0.193,0.28-0.256c0.116-0.063,0.234-0.095,0.364-0.095
		c0.183,0.003,0.361,0.063,0.533,0.172c0.168,0.112,0.336,0.249,0.505,0.413c0.172,0.162,0.343,0.326,0.521,0.491
		c0.183,0.165,0.372,0.301,0.575,0.414c0.203,0.109,0.424,0.168,0.662,0.172c0.186-0.003,0.354-0.045,0.512-0.13
		c0.154-0.084,0.277-0.203,0.372-0.35c0.095-0.147,0.144-0.319,0.146-0.508c0-0.175-0.038-0.386-0.108-0.624
		c-0.07-0.238-0.168-0.48-0.294-0.733s-0.271-0.487-0.432-0.704c-0.164-0.217-0.34-0.393-0.529-0.529
		c-0.186-0.133-0.375-0.204-0.571-0.207c-0.095,0-0.189,0.014-0.283,0.039c-0.095,0.024-0.189,0.056-0.284,0.087
		c-0.095,0.042-0.186,0.077-0.276,0.105c-0.092,0.028-0.187,0.042-0.292,0.042c-0.076-0.003-0.192-0.018-0.343-0.049
		c-0.154-0.032-0.326-0.063-0.519-0.098c-0.2-0.042-0.41-0.074-0.624-0.095S166.586,98.518,166.376,98.518L166.376,98.518z
		 M152.918,99.38c0.004-0.175-0.011-0.322-0.038-0.441c-0.028-0.119-0.088-0.207-0.183-0.267s-0.238-0.091-0.431-0.091
		c-0.028,0-0.147,0.003-0.357,0.007c-0.207,0.007-0.474,0.018-0.799,0.035c-0.326,0.021-0.684,0.049-1.065,0.087
		c-0.386,0.039-0.768,0.095-1.146,0.162c-0.382,0.066-0.729,0.147-1.044,0.249s-0.571,0.224-0.761,0.368
		c-0.192,0.144-0.287,0.308-0.294,0.501c0.003,0.224,0.038,0.389,0.108,0.494c0.069,0.105,0.157,0.186,0.266,0.235
		c0.112,0.053,0.229,0.116,0.351,0.182c0.123,0.07,0.238,0.182,0.351,0.336c0.109,0.151,0.2,0.382,0.267,0.69
		c0.07,0.309,0.105,0.729,0.108,1.258c-0.003,0.529-0.007,1.048-0.007,1.563c0,0.512,0.021,1.006,0.066,1.476
		c0.046,0.469,0.137,0.9,0.273,1.296c0.133,0.399,0.333,0.743,0.603,1.037c0.267,0.295,0.62,0.525,1.065,0.688
		c0.442,0.164,0.996,0.245,1.658,0.248c0.308-0.003,0.589-0.035,0.844-0.094c0.257-0.061,0.488-0.137,0.694-0.231
		c0.211-0.099,0.396-0.196,0.564-0.306c0.168-0.108,0.318-0.21,0.452-0.305c0.133-0.094,0.249-0.172,0.351-0.23
		c0.105-0.063,0.192-0.096,0.27-0.096c0.137,0,0.231,0.032,0.284,0.096c0.049,0.059,0.081,0.137,0.091,0.23
		c0.007,0.098,0.018,0.196,0.028,0.305c0.011,0.109,0.038,0.207,0.091,0.306c0.053,0.095,0.15,0.171,0.288,0.231
		c0.136,0.059,0.339,0.091,0.605,0.094c0.2,0,0.452-0.01,0.765-0.035c0.312-0.023,0.647-0.066,1.016-0.122
		c0.365-0.056,0.729-0.13,1.094-0.221c0.361-0.091,0.694-0.207,0.999-0.34c0.302-0.137,0.543-0.294,0.726-0.48
		c0.182-0.183,0.276-0.392,0.28-0.631c-0.004-0.196-0.042-0.343-0.119-0.441c-0.077-0.098-0.176-0.172-0.288-0.224
		c-0.115-0.049-0.228-0.109-0.343-0.168c-0.112-0.063-0.211-0.158-0.288-0.284c-0.077-0.13-0.115-0.315-0.119-0.564v-4.227
		c0.004-0.336,0.011-0.669,0.021-0.999c0.015-0.33,0.021-0.663,0.021-0.999c0.004-0.372-0.08-0.659-0.252-0.866
		c-0.172-0.203-0.445-0.308-0.82-0.312c-0.119,0-0.294,0.003-0.529,0.014c-0.234,0.011-0.508,0.032-0.816,0.056
		c-0.309,0.028-0.631,0.063-0.967,0.109c-0.337,0.049-0.666,0.108-0.984,0.179c-0.323,0.074-0.61,0.161-0.873,0.263
		c-0.26,0.102-0.467,0.221-0.617,0.361c-0.154,0.137-0.234,0.294-0.238,0.47c0.004,0.172,0.038,0.308,0.109,0.403
		c0.069,0.094,0.157,0.171,0.266,0.231c0.105,0.06,0.218,0.123,0.329,0.189c0.112,0.063,0.214,0.154,0.306,0.27
		c0.091,0.116,0.154,0.277,0.188,0.484c0.035,0.228,0.057,0.473,0.07,0.732c0.011,0.263,0.018,0.526,0.018,0.792
		c0,0.263-0.003,0.512-0.003,0.747c0.003,0.207,0.007,0.438,0.01,0.697c0.004,0.259-0.007,0.522-0.031,0.789
		c-0.028,0.266-0.084,0.515-0.168,0.739c-0.088,0.228-0.221,0.41-0.396,0.547c-0.179,0.14-0.417,0.21-0.719,0.214
		c-0.279-0.003-0.504-0.077-0.665-0.217c-0.165-0.14-0.284-0.319-0.357-0.54c-0.077-0.221-0.127-0.452-0.147-0.698
		c-0.021-0.245-0.031-0.477-0.028-0.69V99.38L152.918,99.38z M135.003,100.6c0.003-0.747,0.126-1.402,0.371-1.963
		c0.246-0.557,0.597-0.995,1.045-1.307c0.448-0.312,0.978-0.47,1.591-0.473c0.474,0.003,0.876,0.077,1.217,0.217
		c0.336,0.14,0.627,0.319,0.872,0.54c0.249,0.221,0.473,0.456,0.673,0.704c0.203,0.249,0.406,0.484,0.61,0.705
		c0.203,0.221,0.431,0.399,0.68,0.54c0.248,0.14,0.546,0.214,0.89,0.217c0.284-0.003,0.529-0.063,0.739-0.179
		c0.207-0.119,0.382-0.277,0.516-0.477c0.137-0.196,0.238-0.42,0.305-0.666c0.07-0.249,0.102-0.501,0.102-0.76
		c0-0.221-0.031-0.47-0.091-0.747c-0.06-0.28-0.15-0.561-0.267-0.848c-0.116-0.287-0.259-0.554-0.428-0.799
		c-0.168-0.246-0.36-0.441-0.578-0.592c-0.217-0.151-0.459-0.228-0.718-0.231c-0.13,0.003-0.271,0.032-0.421,0.081
		c-0.154,0.053-0.309,0.102-0.463,0.154c-0.15,0.049-0.291,0.077-0.42,0.081c-0.138-0.003-0.306-0.031-0.502-0.087
		c-0.199-0.056-0.438-0.123-0.715-0.196c-0.273-0.074-0.592-0.14-0.953-0.196c-0.364-0.056-0.774-0.084-1.237-0.087
		c-0.903,0.003-1.767,0.123-2.586,0.364c-0.824,0.238-1.577,0.582-2.268,1.03c-0.688,0.445-1.286,0.981-1.798,1.608
		c-0.508,0.624-0.904,1.321-1.185,2.096c-0.28,0.771-0.424,1.602-0.428,2.492c0.004,0.932,0.15,1.794,0.441,2.59
		c0.288,0.795,0.694,1.507,1.213,2.141c0.522,0.634,1.132,1.174,1.829,1.623c0.697,0.445,1.462,0.788,2.285,1.026
		c0.823,0.235,1.683,0.354,2.579,0.357c0.754,0,1.486-0.091,2.201-0.276c0.719-0.186,1.385-0.467,1.998-0.846
		c0.613-0.375,1.142-0.844,1.587-1.415c0.445-0.568,0.774-1.237,0.985-2.005c0.045-0.179,0.091-0.319,0.133-0.413
		c0.046-0.099,0.112-0.168,0.203-0.21c0.088-0.042,0.221-0.074,0.399-0.091c0.172-0.028,0.33-0.087,0.478-0.179
		c0.143-0.087,0.263-0.203,0.35-0.343c0.092-0.14,0.137-0.305,0.141-0.487c0.003-0.123-0.014-0.263-0.057-0.414
		c-0.042-0.151-0.133-0.305-0.276-0.456c-0.147-0.154-0.368-0.294-0.669-0.424c-0.306-0.13-0.712-0.231-1.23-0.309
		c-0.516-0.081-1.167-0.119-1.952-0.123c-0.182,0-0.414,0.003-0.687,0.014c-0.277,0.01-0.571,0.035-0.891,0.07
		s-0.634,0.088-0.949,0.161c-0.313,0.07-0.6,0.168-0.859,0.288c-0.259,0.119-0.466,0.273-0.62,0.452
		c-0.157,0.182-0.238,0.399-0.242,0.655c0.004,0.319,0.06,0.55,0.165,0.697c0.105,0.147,0.242,0.242,0.406,0.287
		c0.169,0.046,0.348,0.07,0.533,0.074c0.186,0.007,0.364,0.028,0.533,0.06c0.164,0.035,0.301,0.116,0.406,0.242
		c0.104,0.126,0.161,0.333,0.164,0.617c-0.003,0.256-0.06,0.48-0.168,0.673c-0.112,0.196-0.263,0.351-0.455,0.462
		c-0.193,0.109-0.41,0.165-0.659,0.168c-0.273,0.003-0.582-0.063-0.918-0.196c-0.34-0.133-0.68-0.344-1.027-0.627
		c-0.344-0.288-0.659-0.659-0.949-1.122c-0.291-0.459-0.522-1.013-0.701-1.668C135.098,102.223,135.006,101.465,135.003,100.6z"/>
	<g>
		<path d="M54.934,120.074v0.754h-2.375c0.033,0.719,0.23,1.283,0.596,1.697c0.368,0.414,0.836,0.621,1.408,0.621
			c1.016,0,1.654-0.541,1.913-1.621l0.815,0.213c-0.369,1.412-1.258,2.117-2.667,2.117c-1.008,0-1.758-0.324-2.25-0.975
			c-0.494-0.646-0.722-1.447-0.691-2.396c0-0.582,0.11-1.111,0.329-1.59c0.22-0.48,0.556-0.873,1.009-1.182
			c0.452-0.309,0.994-0.461,1.62-0.461c0.663,0,1.216,0.164,1.663,0.492c0.446,0.328,0.748,0.783,0.904,1.367l-0.828,0.219
			c-0.241-0.891-0.821-1.338-1.742-1.338c-0.622,0-1.109,0.188-1.461,0.563c-0.354,0.375-0.547,0.881-0.582,1.52H54.934
			L54.934,120.074z M58.266,123.746v-6.385h2.397c0.488,0,0.879,0.064,1.173,0.193c0.296,0.129,0.526,0.328,0.693,0.596
			c0.167,0.27,0.251,0.551,0.251,0.844c0,0.273-0.074,0.529-0.223,0.771c-0.147,0.24-0.372,0.436-0.67,0.584
			c0.386,0.113,0.682,0.307,0.891,0.578c0.208,0.273,0.312,0.596,0.312,0.969c0,0.299-0.064,0.576-0.19,0.834
			c-0.126,0.258-0.282,0.455-0.468,0.594c-0.186,0.141-0.419,0.244-0.699,0.316c-0.279,0.07-0.623,0.105-1.031,0.105H58.266
			L58.266,123.746z M59.112,120.045h1.381c0.374,0,0.643-0.025,0.806-0.074c0.214-0.064,0.376-0.17,0.485-0.318
			c0.108-0.148,0.163-0.336,0.163-0.559c0-0.211-0.05-0.398-0.151-0.559c-0.103-0.162-0.249-0.271-0.436-0.332
			c-0.188-0.059-0.513-0.088-0.972-0.088h-1.276V120.045L59.112,120.045z M59.112,122.992h1.589c0.274,0,0.466-0.01,0.576-0.029
			c0.195-0.035,0.357-0.094,0.488-0.174c0.131-0.082,0.238-0.201,0.323-0.355c0.083-0.156,0.126-0.334,0.126-0.537
			c0-0.238-0.061-0.445-0.183-0.623c-0.122-0.176-0.292-0.299-0.509-0.369c-0.215-0.07-0.528-0.105-0.934-0.105h-1.477V122.992
			L59.112,122.992z M64.253,123.746v-6.385h2.409c0.424,0,0.748,0.02,0.971,0.061c0.314,0.051,0.577,0.15,0.79,0.299
			c0.211,0.145,0.382,0.352,0.512,0.615c0.129,0.266,0.193,0.555,0.193,0.871c0,0.543-0.173,1.004-0.518,1.381
			c-0.347,0.373-0.971,0.563-1.874,0.563h-1.639v2.596H64.253L64.253,123.746z M65.098,120.396h1.652
			c0.546,0,0.934-0.102,1.163-0.305c0.229-0.203,0.344-0.488,0.344-0.857c0-0.268-0.067-0.498-0.202-0.688s-0.313-0.314-0.534-0.375
			c-0.143-0.039-0.405-0.057-0.788-0.057h-1.634V120.396L65.098,120.396z M69.75,120.637c0-1.061,0.284-1.891,0.854-2.49
			c0.569-0.6,1.304-0.898,2.205-0.898c0.589,0,1.121,0.141,1.594,0.422c0.473,0.283,0.834,0.676,1.082,1.18
			c0.249,0.502,0.372,1.074,0.372,1.713c0,0.648-0.129,1.229-0.391,1.738c-0.262,0.512-0.632,0.898-1.111,1.16
			c-0.48,0.264-0.996,0.395-1.551,0.395c-0.603,0-1.139-0.145-1.612-0.436c-0.475-0.289-0.833-0.688-1.077-1.189
			C69.872,121.729,69.75,121.197,69.75,120.637L69.75,120.637z M70.622,120.65c0,0.77,0.207,1.375,0.62,1.818
			c0.415,0.443,0.934,0.664,1.558,0.664c0.637,0,1.16-0.223,1.571-0.67c0.41-0.449,0.617-1.084,0.617-1.906
			c0-0.518-0.089-0.973-0.265-1.359c-0.175-0.389-0.433-0.689-0.77-0.902c-0.339-0.213-0.718-0.32-1.139-0.32
			c-0.599,0-1.114,0.205-1.545,0.617C70.837,119.002,70.622,119.689,70.622,120.65L70.622,120.65z M76.956,117.361h5.023v6.385
			h-0.851v-5.631h-3.328v5.631h-0.845V117.361L76.956,117.361z M83.378,123.746v-6.385h4.617v0.754h-3.772v1.955h3.533v0.75h-3.533
			v2.172h3.921v0.754H83.378L83.378,123.746z M89.325,117.361h0.766v5.057l3.398-5.057h0.851v6.385h-0.768v-5.045l-3.402,5.045
			h-0.844V117.361L89.325,117.361z M92.501,115.84h0.536c-0.043,0.363-0.175,0.643-0.398,0.836
			c-0.222,0.195-0.518,0.293-0.886,0.293c-0.372,0-0.669-0.096-0.891-0.289c-0.223-0.193-0.355-0.473-0.398-0.84h0.535
			c0.04,0.199,0.122,0.346,0.242,0.441c0.121,0.1,0.283,0.146,0.485,0.146c0.236,0,0.414-0.047,0.534-0.141
			C92.379,116.193,92.461,116.045,92.501,115.84L92.501,115.84z M100.281,121.508l0.846,0.215c-0.177,0.691-0.497,1.221-0.957,1.588
			c-0.461,0.363-1.023,0.545-1.689,0.545c-0.688,0-1.248-0.139-1.679-0.42c-0.431-0.279-0.759-0.686-0.984-1.217
			c-0.225-0.533-0.338-1.104-0.338-1.713c0-0.666,0.126-1.246,0.381-1.74s0.616-0.871,1.085-1.129
			c0.468-0.258,0.984-0.385,1.548-0.385c0.64,0,1.176,0.162,1.612,0.488c0.436,0.324,0.739,0.781,0.91,1.371l-0.831,0.197
			c-0.149-0.465-0.363-0.803-0.646-1.016c-0.281-0.213-0.635-0.318-1.063-0.318c-0.491,0-0.899,0.117-1.23,0.352
			c-0.33,0.236-0.562,0.553-0.694,0.949c-0.134,0.396-0.201,0.805-0.201,1.225c0,0.545,0.079,1.018,0.236,1.424
			c0.159,0.404,0.404,0.709,0.739,0.908c0.335,0.201,0.696,0.301,1.086,0.301c0.473,0,0.873-0.137,1.202-0.408
			C99.943,122.451,100.165,122.045,100.281,121.508L100.281,121.508z M102.198,117.361h0.846v2.727h1.524
			c0.712,0,1.227,0.082,1.547,0.248c0.319,0.164,0.549,0.391,0.688,0.676s0.209,0.578,0.209,0.879c0,0.494-0.169,0.928-0.505,1.299
			c-0.338,0.371-0.965,0.557-1.882,0.557h-2.427V117.361L102.198,117.361z M103.044,123.029h1.546c0.627,0,1.037-0.111,1.227-0.336
			c0.188-0.221,0.284-0.488,0.284-0.803c0-0.256-0.069-0.473-0.207-0.65s-0.321-0.295-0.55-0.346c-0.23-0.053-0.619-0.08-1.168-0.08
			h-1.132V123.029L103.044,123.029z M108.037,117.361h0.845v2.797c0.387,0,0.657-0.074,0.814-0.225
			c0.156-0.15,0.357-0.51,0.602-1.078c0.177-0.418,0.322-0.715,0.438-0.887c0.114-0.174,0.277-0.318,0.489-0.436
			c0.213-0.117,0.446-0.178,0.702-0.178c0.325,0,0.496,0.004,0.514,0.01v0.73c-0.029,0-0.086,0-0.171-0.004
			c-0.092-0.002-0.148-0.004-0.169-0.004c-0.271,0-0.471,0.064-0.602,0.195c-0.134,0.131-0.286,0.41-0.457,0.838
			c-0.215,0.539-0.396,0.881-0.545,1.021s-0.325,0.252-0.53,0.338c0.412,0.113,0.817,0.494,1.219,1.141l1.316,2.125h-1.05
			l-1.068-1.732c-0.292-0.479-0.539-0.809-0.735-0.988c-0.198-0.178-0.454-0.268-0.768-0.268v2.988h-0.845V117.361L108.037,117.361z
			 M113.365,123.746v-6.385h0.845v6.385H113.365z"/>
		<path d="M118.188,117.361h5.023v6.385h-0.851v-5.631h-3.328v5.631h-0.845V117.361L118.188,117.361z M124.848,123.746v-6.385h2.409
			c0.424,0,0.747,0.02,0.971,0.061c0.313,0.051,0.577,0.15,0.789,0.299c0.212,0.145,0.383,0.352,0.512,0.615
			c0.13,0.266,0.193,0.555,0.193,0.871c0,0.543-0.172,1.004-0.518,1.381c-0.347,0.373-0.971,0.563-1.873,0.563h-1.639v2.596H124.848
			L124.848,123.746z M125.692,120.396h1.651c0.546,0,0.934-0.102,1.163-0.305s0.344-0.488,0.344-0.857
			c0-0.268-0.067-0.498-0.202-0.688c-0.136-0.189-0.313-0.314-0.534-0.375c-0.143-0.039-0.404-0.057-0.788-0.057h-1.634V120.396
			L125.692,120.396z M130.601,120.637c0-1.061,0.284-1.891,0.854-2.49s1.304-0.898,2.205-0.898c0.589,0,1.121,0.141,1.594,0.422
			c0.473,0.283,0.835,0.676,1.083,1.18c0.248,0.502,0.372,1.074,0.372,1.713c0,0.648-0.13,1.229-0.392,1.738
			c-0.262,0.512-0.632,0.898-1.111,1.16c-0.479,0.264-0.996,0.395-1.551,0.395c-0.602,0-1.139-0.145-1.611-0.436
			c-0.475-0.289-0.833-0.688-1.077-1.189C130.723,121.729,130.601,121.197,130.601,120.637L130.601,120.637z M131.472,120.65
			c0,0.77,0.207,1.375,0.62,1.818c0.415,0.443,0.934,0.664,1.559,0.664c0.637,0,1.16-0.223,1.57-0.67
			c0.41-0.449,0.617-1.084,0.617-1.906c0-0.518-0.09-0.973-0.265-1.359c-0.176-0.389-0.433-0.689-0.771-0.902
			c-0.339-0.213-0.718-0.32-1.139-0.32c-0.6,0-1.114,0.205-1.546,0.617C131.688,119.002,131.472,119.689,131.472,120.65
			L131.472,120.65z M138.437,117.361h3.886v5.631h0.575v2.244h-0.754v-1.49h-4.222v1.49h-0.754v-2.244h0.497
			c0.515-0.773,0.771-2.342,0.771-4.699V117.361L138.437,117.361z M141.477,118.115h-2.227v0.326c0,0.543-0.047,1.285-0.146,2.229
			c-0.097,0.941-0.288,1.717-0.572,2.322h2.944V118.115L141.477,118.115z M143.608,117.361h0.855l2.081,3.912l1.821-3.912h0.841
			l-2.396,4.965c-0.301,0.623-0.546,1.027-0.736,1.221c-0.192,0.191-0.467,0.287-0.823,0.287c-0.219,0-0.485-0.051-0.802-0.152
			v-0.723c0.226,0.131,0.465,0.197,0.718,0.197c0.207,0,0.384-0.068,0.534-0.201c0.149-0.131,0.313-0.432,0.495-0.902
			L143.608,117.361L143.608,117.361z M150.191,117.361h0.844v2.797c0.387,0,0.657-0.074,0.815-0.225
			c0.156-0.15,0.356-0.51,0.601-1.078c0.177-0.418,0.322-0.715,0.438-0.887c0.115-0.174,0.278-0.318,0.489-0.436
			c0.213-0.117,0.446-0.178,0.702-0.178c0.325,0,0.496,0.004,0.515,0.01v0.73c-0.03,0-0.087,0-0.171-0.004
			c-0.093-0.002-0.148-0.004-0.17-0.004c-0.271,0-0.47,0.064-0.601,0.195c-0.134,0.131-0.287,0.41-0.458,0.838
			c-0.215,0.539-0.396,0.881-0.545,1.021c-0.148,0.141-0.325,0.252-0.53,0.338c0.412,0.113,0.817,0.494,1.22,1.141l1.315,2.125
			h-1.05l-1.067-1.732c-0.293-0.479-0.54-0.809-0.736-0.988c-0.197-0.178-0.453-0.268-0.768-0.268v2.988h-0.844V117.361
			L150.191,117.361z M157.256,123.746v-5.631h-2.104v-0.754h5.062v0.754h-2.112v5.631H157.256L157.256,123.746z M161.35,117.361
			h0.765v5.057l3.398-5.057h0.851v6.385h-0.768v-5.045l-3.402,5.045h-0.844V117.361z"/>
	</g>
</g>
</svg>
