<?xml version="1.0" encoding="utf-8"?>
<!DOCTYPE svg PUBLIC "-//W3C//DTD SVG 1.1//EN" "http://www.w3.org/Graphics/SVG/1.1/DTD/svg11.dtd">
<svg version="1.1" id="Layer_2" xmlns="http://www.w3.org/2000/svg" xmlns:xlink="http://www.w3.org/1999/xlink" x="0px" y="0px" width="216px" height="216px" viewBox="454 1110 216 216" enable-background="new 454 1110 216 216" xml:space="preserve">
<g>
	<circle fill="#383A41" cx="562.5" cy="1218" r="107"/>
	<path fill="#FFFFFF" d="M533.701,1232.123v-20.372c0-5.78-3.094-8.523-8.29-8.523c-4.319,0-8.056,2.569-9.689,5.136
		c-1.05-3.21-3.677-5.136-7.823-5.136c-4.319,0-8.056,2.686-9.223,4.376v-3.677h-7.414v28.195h7.414v-18.972
		c1.109-1.577,3.27-3.327,5.836-3.327c3.037,0,4.203,1.867,4.203,4.494v17.803h7.473v-19.03c1.05-1.517,3.21-3.27,5.836-3.27
		c3.037,0,4.203,1.867,4.203,4.494v17.803h7.473V1232.123z M554.074,1232.826c-9.28,0-14.886-6.772-14.886-14.826
		c0-7.997,5.604-14.77,14.886-14.77c9.339,0,14.943,6.773,14.943,14.77C569.017,1226.053,563.413,1232.826,554.074,1232.826z
		 M554.074,1226.23c4.61,0,7.239-3.794,7.239-8.23c0-4.376-2.626-8.173-7.239-8.173s-7.18,3.793-7.18,8.173
		C546.894,1222.433,549.464,1226.23,554.074,1226.23z M600.948,1232.123v-19.905c0-5.487-2.976-8.99-9.163-8.99
		c-4.609,0-8.056,2.216-9.866,4.376v-3.677h-7.413v28.195h7.413v-18.972c1.227-1.693,3.503-3.327,6.42-3.327
		c3.153,0,5.196,1.343,5.196,5.253v17.046L600.948,1232.123L600.948,1232.123z M621.379,1232.826
		c-9.28,0-14.887-6.772-14.887-14.826c0-7.997,5.604-14.77,14.887-14.77c9.339,0,14.942,6.773,14.942,14.77
		C636.324,1226.053,630.718,1232.826,621.379,1232.826L621.379,1232.826z M621.379,1226.23c4.609,0,7.239-3.794,7.239-8.23
		c0-4.376-2.627-8.173-7.239-8.173c-4.613,0-7.181,3.793-7.181,8.173C614.198,1222.433,616.769,1226.23,621.379,1226.23z"/>
</g>
</svg>
