<?xml version="1.0" encoding="utf-8"?>
<!DOCTYPE svg PUBLIC "-//W3C//DTD SVG 1.1//EN" "http://www.w3.org/Graphics/SVG/1.1/DTD/svg11.dtd">
<svg version="1.1" id="Layer_1" xmlns="http://www.w3.org/2000/svg" xmlns:xlink="http://www.w3.org/1999/xlink" x="0px" y="0px" width="216px" height="216px" viewBox="0 0 216 216" enable-background="new 0 0 216 216" xml:space="preserve">
<g>
	<path fill-rule="evenodd" clip-rule="evenodd" fill="#EE3124" d="M5.647,2.555c2.592-0.399,4.779,0.993,7.192,1.699
		C18.396,5.883,24.492,7.1,30.361,8.308c7.847,1.617,16.028,3.24,24.32,4.446c32.469,4.724,75.428,4.781,108.005-0.131
		c7.857-1.184,16.214-2.933,24.19-4.576c5.398-1.111,11.81-2.493,17.392-4.185c2.056-0.623,4.084-1.584,5.752-1.438
		c2.74,0.241,4.89,2.474,4.97,5.361c0.044,1.57-0.996,3.707-1.57,5.622c-1.628,5.449-2.997,11.79-4.182,17.391
		c-1.697,8.007-3.236,16.418-4.448,24.19c-4.996,32.106-4.776,75.186-0.13,107.614c1.813,12.655,4.148,24.525,7.061,36.088
		c0.477,1.892,0.892,3.87,1.439,5.754c0.528,1.818,1.367,3.552,1.7,5.36c0.632,3.451-1.851,6.563-5.492,6.539
		c-1.549-0.013-3.688-0.988-5.622-1.57c-5.466-1.643-11.734-3.008-17.393-4.184c-7.817-1.627-16.146-3.255-24.19-4.446
		c-31.885-4.722-75.231-5.013-107.612-0.132c-12.489,1.884-24.421,4.157-35.959,7.063c-1.859,0.469-3.813,0.873-5.753,1.438
		c-2.976,0.865-7.06,2.977-9.938,0.523c-1.059-0.904-1.759-2.104-1.83-3.923c-0.073-1.881,0.843-3.865,1.439-5.884
		c1.598-5.425,2.973-11.512,4.184-17.392c3.346-16.242,6.264-31.951,7.322-50.21c1.571-27.085,0.955-57.786-2.746-82.116
		C9.336,42.799,7.067,31.3,4.079,19.553c-0.458-1.8-0.86-3.821-1.439-5.753c-0.651-2.179-1.986-4.291-1.569-6.799
		C1.507,4.385,3.494,2.887,5.647,2.555"/>
	<path fill-rule="evenodd" clip-rule="evenodd" fill="#FFFFFF" d="M45.92,62.834h-6.93c-0.153,0.023-0.142,0.208-0.131,0.393
		c0.734,3.408-1.358,9.976,0.915,11.899c1.25,1.055,3.944,0.653,6.146,0.653h6.93c-0.702-3.63,1.318-10.045-0.915-12.16
		C50.747,62.492,48.128,62.834,45.92,62.834"/>
	<path fill-rule="evenodd" clip-rule="evenodd" fill="#FFFFFF" d="M91.293,82.186c-5.72,0.044-10.266,2.752-13.337,5.362
		c-0.072,0.062-0.276,0.693-0.522,0.262V75.256c0-3.185,0.743-10.066-0.916-11.637c-1.216-1.152-3.851-0.785-6.015-0.785h-6.93
		c-0.152,0.023-0.141,0.208-0.131,0.393v63.811c0,2.785-0.501,7.144,0.523,8.63c0.879,1.274,3.254,1.672,4.969,2.091
		c5.704,1.398,12.966,2.131,19.483,1.44c17.379-1.845,24.096-14.508,22.751-33.998C110.252,91.898,105.146,82.082,91.293,82.186
		 M92.209,126.514c-3.476,3.004-9.185,3.177-14.775,1.438v-25.235c0-1.193-0.218-2.626,0-3.531c0.185-0.767,1.476-1.822,2.484-2.614
		c2.45-1.924,7.469-4.249,11.375-1.962c4.04,2.366,5.052,8.905,5.362,15.56C96.949,116.498,95.759,123.445,92.209,126.514"/>
	<path fill-rule="evenodd" clip-rule="evenodd" fill="#FFFFFF" d="M126.076,62.834h-6.801c-0.151,0.023-0.143,0.208-0.13,0.393
		c0.674,3.651-1.421,10.509,1.308,12.16c1.384,0.838,3.93,0.393,6.146,0.393h6.537c-0.732-3.588,1.413-10.364-1.047-12.291
		C130.8,62.477,128.305,62.834,126.076,62.834"/>
	<path fill-rule="evenodd" clip-rule="evenodd" fill="#FFFFFF" d="M161.119,103.5c-2.7-1.232-6.142-2.729-6.277-5.361
		c-0.229-4.389,5.047-4.787,9.545-4.446c4.648,0.353,8.037,1.184,11.114,1.961c-0.448-4.154,0.971-7.688-0.915-9.806
		c-1.236-1.391-4.978-1.856-7.06-2.223c-10.755-1.894-20.513,0.583-24.322,7.061c-2.598,4.419-2.746,12.745,0.785,17.521
		c2.252,3.046,6.474,5.448,10.591,7.321c3.766,1.715,9.89,3.749,10.068,7.978c0.224,5.3-6.152,5.679-11.374,5.23
		c-4.641-0.397-8.185-1.26-11.509-1.961c0.285,3.642-0.758,8.029,1.047,9.936c0.727,0.769,2.158,1.097,3.529,1.44
		c6.938,1.729,16.604,1.787,22.099-0.523c5.25-2.208,9.464-6.576,9.938-13.208C179.331,111.116,169.726,107.425,161.119,103.5"/>
	<path fill-rule="evenodd" clip-rule="evenodd" fill="#FFFFFF" d="M45.92,83.625h-6.93c-0.153,0.022-0.142,0.207-0.131,0.393v47.988
		c0,2.345-0.158,5.107,0.915,6.014c1.23,1.04,4.009,0.655,6.146,0.655h6.93v-48.25c0-2.429,0.108-5.047-0.915-6.016
		C50.778,83.314,48.054,83.625,45.92,83.625"/>
	<path fill-rule="evenodd" clip-rule="evenodd" fill="#FFFFFF" d="M126.337,83.625h-7.062c-0.151,0.022-0.143,0.207-0.13,0.393
		v48.38c0,2.43-0.111,4.837,1.176,5.754c1.285,0.912,4.063,0.523,6.146,0.523h6.669V90.686c0-2.28,0.139-5.174-0.785-6.146
		C131.188,83.314,128.541,83.625,126.337,83.625"/>
	<path fill-rule="evenodd" clip-rule="evenodd" fill="#FFFFFF" d="M98.354,167.57c-0.918-0.429-2.157-0.485-3.531-0.262
		c-1.002,0.165-1.508,0.245-2.091,0.655c-2.183,1.536-2.753,7.431-0.916,9.807c1.208,1.562,4.601,2.005,6.407,1.176
		C102.188,177.132,101.656,169.121,98.354,167.57 M96.786,177.117c-4.105,1.647-4.496-6.843-1.7-7.716
		C99.175,168.127,98.938,176.253,96.786,177.117"/>
	<path fill-rule="evenodd" clip-rule="evenodd" fill="#FFFFFF" d="M137.582,173.716c-0.467-0.688-1.484-1.099-2.484-1.567
		c-0.702-0.329-2.462-0.735-2.092-2.094c0.388-1.428,3.406-0.59,4.446-0.262c-0.023-0.674,0.079-1.476-0.132-1.961
		c-2.319-0.86-5.375-0.688-6.407,0.785c-0.884,1.262-0.582,3.133,0.132,4.054c1.187,1.532,4.595,1.466,4.575,3.268
		c-0.021,2.074-3.38,1.155-5.099,0.917v1.567c2.175,1.317,5.84,1.116,7.061-0.652C138.298,176.732,138.371,174.88,137.582,173.716"
		/>
	<path fill-rule="evenodd" clip-rule="evenodd" fill="#FFFFFF" d="M88.809,167.57c-0.629-0.24-1.655-0.088-2.483-0.13
		c-0.087,1.482,0.174,3.312-0.131,4.576H82.01c-0.07-1.455,0.15-3.201-0.131-4.446c-0.631-0.24-1.655-0.088-2.485-0.13v6.016
		c0,1.922-0.203,3.91,0.262,5.49c0.549,0.278,1.593,0.065,2.354,0.132c0.086-1.657-0.174-3.661,0.131-5.101h4.184
		c0.062,1.639-0.139,3.539,0.131,4.969c0.63,0.243,1.654,0.09,2.483,0.132C88.855,175.283,89.11,171.149,88.809,167.57"/>
	<path fill-rule="evenodd" clip-rule="evenodd" fill="#FFFFFF" d="M110.516,167.44c-2.778,0.155-7.002-0.32-8.892,0.262
		c-0.263,0.392-0.074,1.232-0.13,1.829h3.268v9.285c0.484,0.432,1.623,0.208,2.485,0.262c0.087-3.14-0.174-6.625,0.131-9.547
		c0.992-0.054,2.221,0.13,3.007-0.13C110.651,168.973,110.455,168.077,110.516,167.44"/>
	<path fill-rule="evenodd" clip-rule="evenodd" fill="#FFFFFF" d="M114.567,173.978h4.446c0.366-0.375,0.249-1.233,0.262-1.961
		h-4.708c0.086-0.785-0.171-1.916,0.132-2.485c1.583-0.071,3.469,0.155,4.838-0.13c0.303-0.438,0.278-1.203,0.262-1.961h-7.716
		c0.258,2.477-0.335,6.823,0,9.153c0.479,3.315,4.904,2.933,7.978,2.091c0.2-0.452,0.114-1.19,0.129-1.829
		C117.624,177.392,113.645,177.965,114.567,173.978"/>
	<path fill-rule="evenodd" clip-rule="evenodd" fill="#FFFFFF" d="M124.899,176.855c-1.585-1.371,0.222-7.418-0.655-9.285
		c-0.592-0.234-1.563-0.092-2.353-0.13c0.417,3.273-0.875,9.325,0.785,10.982c1.264,1.265,4.479,0.9,6.407,0.262
		c0.2-0.452,0.114-1.19,0.129-1.829C127.658,176.947,125.919,177.738,124.899,176.855"/>
</g>

</svg>
