<?xml version="1.0" encoding="utf-8"?>
<!DOCTYPE svg PUBLIC "-//W3C//DTD SVG 1.1//EN" "http://www.w3.org/Graphics/SVG/1.1/DTD/svg11.dtd">
<svg version="1.1" id="Layer_1" xmlns="http://www.w3.org/2000/svg" xmlns:xlink="http://www.w3.org/1999/xlink" x="0px" y="0px" width="216px" height="216px" viewBox="0 0 216 216" enable-background="new 0 0 216 216" xml:space="preserve">
<g>
	<path fill="#FFFFFF" d="M0.122,0.122h216v216h-216V0.122z"/>
	<path fill="#303233" d="M183.267,27.388v52.848h-45.849V27.388h-18.759v103.319h18.759V88.956h45.849v41.751h18.761V27.388H183.267
		z M75.983,23.688c-22.197,0-33.559,23.254-33.559,23.254V27.916l-29.596-0.263v5.283h10.833v97.507h18.762V68.875
		c0-11.098,13.213-34.353,29.595-34.353c14.104,0,14.499,18.396,14.337,23.519h-0.067v72.668h19.026V58.041
		C105.314,34.786,93.951,23.688,75.983,23.688z M47.204,153.709v15.748h-18.55v-15.748h-4.898v37.797h4.898v-17.323h18.55v17.323
		h4.899v-37.797H47.204z M146.069,158.609v-4.726h-16.797v-0.175h-4.9v37.797h4.9v-0.087h16.797v-4.726h-16.797v-12.248h15.222
		v-4.727h-15.222v-11.109H146.069L146.069,158.609z M175.29,186.693h-15.746v-32.984h-4.9v37.797h4.9v-0.087h15.746V186.693z
		 M119.297,153.592H92.523v4.726h11.024v33.188h4.899v-33.188h10.85V153.592z M75.025,153.36c-9.181,0-16.623,8.774-16.623,19.597
		s7.442,19.599,16.623,19.599c9.181,0,16.623-8.776,16.623-19.599S84.207,153.36,75.025,153.36z M75.025,188.007
		c-6.476,0-11.724-6.739-11.724-15.05s5.249-15.05,11.724-15.05s11.724,6.739,11.724,15.05S81.501,188.007,75.025,188.007
		L75.025,188.007z M179.635,180.434c0,0,2.184,7.274,10.547,7.274s8.29-6.038,8.29-6.618c0-0.582,0.289-4.075-5.892-6.326
		c0,0-9.165-2.765-12.655-6.618c0,0-5.89-6.838,1.892-13.019c0,0,6.691-4.654,15.563,0.217c0,0,3.929,3.199,4.946,5.456l-4,2.618
		c0,0-2.836-5.819-8.873-5.819c-6.036,0-6.616,4-6.616,4.874c0,0.871,0.437,3.344,5.091,5.091l6.616,2.689
		c0,0,8.873,2.545,8.873,11.13c0,8.581-8.802,10.98-13.091,10.98c-4.292,0-11.564-1.672-14.474-9.599L179.635,180.434
		L179.635,180.434z"/>
</g>

</svg>
