<?xml version="1.0" encoding="utf-8"?>
<!DOCTYPE svg PUBLIC "-//W3C//DTD SVG 1.1//EN" "http://www.w3.org/Graphics/SVG/1.1/DTD/svg11.dtd">
<svg version="1.1" id="Layer_1" xmlns="http://www.w3.org/2000/svg" xmlns:xlink="http://www.w3.org/1999/xlink" x="0px" y="0px" width="216px" height="216px" viewBox="0 0 216 216" enable-background="new 0 0 216 216" xml:space="preserve">
<path fill-rule="evenodd" clip-rule="evenodd" fill="#010202" d="M53.5-0.5h108.003c29.699,0,53.997,24.3,53.997,54v108.003
	c0,29.699-24.298,53.997-53.997,53.997H53.5c-29.7,0-54-24.298-54-53.997V53.5C-0.5,23.8,23.8-0.5,53.5-0.5z"/>
<path fill="#F3D910" d="M160.314,31.424C143.258,14.03,48.102,38.841,39.991,55.288c-4.275,8.67,9.74,31.042,36.62,57.05
	c23.444,22.664,46.176,43.57,60.447,38.972C151.34,146.708,177.413,48.819,160.314,31.424"/>
<g>
	<path fill="#FFFFFF" d="M148.326,163.026c-3.082,0-5.842,1.791-7.434,4.187v-3.775h-5.777v19.99h5.777V173.14
		c0-4.199,2.636-5.563,5.295-5.563c2.84,0,4.92,1.775,4.92,5.341c0,3.734-0.037,10.491-0.037,10.491h5.777l0.03-12.151
		C156.876,166.165,153.378,163.026,148.326,163.026"/>
	<rect x="98.596" y="155.277" fill="#FFFFFF" width="5.779" height="28.129"/>
	<polygon fill="#FFFFFF" points="88.825,163.419 80.498,171.659 80.498,155.277 74.723,155.277 74.723,183.406 80.498,183.406 
		80.41,175.278 88.669,183.358 95.892,183.358 85.785,173.386 95.892,163.419 	"/>
	<path fill="#FFFFFF" d="M119.771,162.971c-6.482,0-11.74,4.688-11.74,10.475c0,5.784,5.257,10.488,11.74,10.488
		c6.484,0,11.735-4.688,11.735-10.474S126.252,162.971,119.771,162.971 M119.771,179.146c-1.232,0.029-2.446-0.281-3.486-0.89
		c-1.04-0.607-1.857-1.485-2.352-2.523c-0.491-1.037-0.638-2.184-0.416-3.297c0.222-1.112,0.801-2.141,1.66-2.95
		c0.861-0.812,1.965-1.367,3.171-1.597c1.208-0.231,2.464-0.128,3.604,0.299s2.119,1.157,2.807,2.096
		c0.688,0.938,1.056,2.044,1.056,3.176c0.016,1.485-0.612,2.917-1.745,3.98c-1.134,1.063-2.679,1.673-4.299,1.691V179.146z"/>
	<path fill="#FFFFFF" d="M63.827,173.702c0,4.2-2.634,5.565-5.294,5.565c-2.836,0-4.927-1.78-4.927-5.346
		c0-3.731,0.033-10.487,0.033-10.487h-5.765l-0.03,12.151c0,5.09,3.498,8.23,8.551,8.23c3.082,0,5.84-1.792,7.433-4.188v3.778h5.762
		v-20.003h-5.762V173.702z"/>
</g>
</svg>
