<?xml version="1.0" encoding="utf-8"?>
<!DOCTYPE svg PUBLIC "-//W3C//DTD SVG 1.1//EN" "http://www.w3.org/Graphics/SVG/1.1/DTD/svg11.dtd">
<svg version="1.1" id="Layer_1" xmlns="http://www.w3.org/2000/svg" xmlns:xlink="http://www.w3.org/1999/xlink" x="0px" y="0px" width="216px" height="216px" viewBox="0 0 216 216" enable-background="new 0 0 216 216" xml:space="preserve">
<g>
	<g>
		<defs>
			<rect id="SVGID_1_" y="27" width="216" height="162"/>
		</defs>
		<clipPath id="SVGID_2_">
			<use xlink:href="#SVGID_1_"  overflow="visible"/>
		</clipPath>
		<path clip-path="url(#SVGID_2_)" fill-rule="evenodd" clip-rule="evenodd" fill="#1D1D1B" d="M46.842,136.865
			c1.503,0.094,2.19,0.857,2.19,1.984c0,0.991-0.544,1.905-1.946,1.981c-1.416,0.074-4.715,0.084-6.19,0
			c-0.055-1.306-0.055-2.628,0-3.966C42.562,136.809,45.446,136.778,46.842,136.865 M47.105,143.857
			c2.081,0.062,3.119,0.941,3.119,2.3c0,1.414-0.922,2.164-3.038,2.266c-1.951,0.092-4.166,0.092-6.273,0
			c-0.079-1.55-0.079-2.979,0-4.565C42.938,143.803,45.272,143.803,47.105,143.857 M37.479,151.369
			c0.119-5.716,0.119-11.497,0-17.349c2.945,0.077,6.314,0.077,9.411,0c3.554,0,5.401,2.161,5.401,4.335
			c0,1.605-0.755,3.074-1.916,3.739c1.993,0.591,3.141,2.322,3.141,4.374c0,3.313-2.412,4.9-5.421,4.9H37.479z"/>
		<path clip-path="url(#SVGID_2_)" fill-rule="evenodd" clip-rule="evenodd" fill="#1D1D1B" d="M134.918,148.342
			c-0.04,0.996-0.04,2.004,0,3.026c-4.774-0.084-9.548-0.084-14.319,0c0.099-5.783,0.097-11.564-0.002-17.348
			c1.104,0.039,2.203,0.039,3.305,0c-0.095,4.773-0.095,9.547,0,14.321C127.571,148.412,131.246,148.412,134.918,148.342"/>
		<path clip-path="url(#SVGID_2_)" fill-rule="evenodd" clip-rule="evenodd" fill="#1D1D1B" d="M81.886,134.014
			c3.249,3.874,6.609,7.752,10.079,11.626c0.083-3.872,0.082-7.744-0.002-11.614c0.972,0.043,1.96,0.043,2.958,0
			c-0.085,5.715-0.085,11.495,0,17.346c-0.843-0.038-1.683-0.038-2.524,0.004c-3.384-4.052-6.914-8.151-10.588-12.296
			c-0.075,4.099-0.077,8.193-0.002,12.292c-0.951-0.038-1.936-0.038-2.957,0c0.075-5.78,0.075-11.563,0-17.344
			C79.863,134.064,80.875,134.06,81.886,134.014"/>
		<path clip-path="url(#SVGID_2_)" fill-rule="evenodd" clip-rule="evenodd" fill="#1D1D1B" d="M73.45,137.047
			c-3.766-0.086-7.572-0.086-11.426,0c-0.086,1.307-0.086,2.614,0,3.925c2.577,0.074,5.184,0.074,7.82,0
			c-0.039,1.005-0.039,2.015,0,3.021c-2.574-0.078-5.182-0.078-7.82,0c-0.077,1.449-0.077,2.897,0,4.346
			c3.874,0.077,7.75,0.077,11.622,0c-0.038,1.011-0.038,2.02,0,3.026c-4.974-0.083-9.949-0.083-14.922,0
			c0.09-5.78,0.09-11.563,0-17.345c4.967,0.081,9.875,0.081,14.727,0C73.408,135.03,73.408,136.037,73.45,137.047"/>
		<path clip-path="url(#SVGID_2_)" fill-rule="evenodd" clip-rule="evenodd" fill="#1D1D1B" d="M167.184,151.361
			c0.081-2.453,0.081-4.94,0-7.456c-2.548-3.291-5.206-6.586-7.974-9.88c1.356,0.041,2.712,0.041,4.069,0
			c1.744,2.24,3.595,4.479,5.553,6.718c1.948-2.239,3.801-4.478,5.553-6.718c1.356,0.041,2.713,0.041,4.066,0
			c-2.754,3.294-5.414,6.589-7.974,9.88c-0.081,2.485-0.081,4.972,0,7.456C169.38,151.324,168.283,151.324,167.184,151.361"/>
		<path clip-path="url(#SVGID_2_)" fill-rule="evenodd" clip-rule="evenodd" fill="#1D1D1B" d="M154.328,137.047
			c-3.764-0.086-7.572-0.086-11.424,0c-0.083,1.307-0.083,2.614,0,3.925c2.576,0.074,5.185,0.074,7.82,0
			c-0.042,1.005-0.042,2.015,0,3.021c-2.574-0.078-5.185-0.078-7.82,0c-0.076,1.449-0.076,2.897,0,4.346
			c3.874,0.077,7.747,0.077,11.622,0c-0.04,1.011-0.04,2.02,0,3.026c-4.974-0.083-9.952-0.083-14.925,0
			c0.09-5.78,0.09-11.563,0-17.345c4.967,0.081,9.876,0.081,14.727,0C154.289,135.03,154.289,136.037,154.328,137.047"/>
		<path clip-path="url(#SVGID_2_)" fill-rule="evenodd" clip-rule="evenodd" fill="#1D1D1B" d="M106.37,151.365
			c0.083-4.716,0.083-9.489,0-14.317c-2.057-0.091-4.137-0.091-6.242,0c0.038-0.999,0.038-2.009,0-3.027
			c5.261,0.086,10.524,0.086,15.788,0c-0.04,0.996-0.04,2.006,0,3.027c-2.081-0.08-4.161-0.08-6.245,0
			c-0.081,4.773-0.081,9.547,0,14.317C108.584,151.326,107.482,151.326,106.37,151.365"/>
		<path clip-path="url(#SVGID_2_)" fill-rule="evenodd" clip-rule="evenodd" fill="#1D1D1B" d="M20.996,69.66
			c0,0,1.291-1.512,1.661-1.934c0.373-0.421,0.646-0.746,0.894-0.992c0.248-0.248,0.533-0.31,0.768-0.285
			c0.237,0.024,2.766,0.296,3.446,0.373c0.683,0.072,3.672,0.21,4.859,0.21c1.192,0,4.324,0.006,4.984,0.006
			s5.636-0.281,6.742-0.364c1.109-0.083,7.463-0.165,8.999-0.188c1.539-0.024,8.654,0.248,10.415,0.347
			c1.76,0.099,6.595,0.347,8.206,0.298c1.611-0.05,9.223-0.373,10.735-0.373s6.272,0.298,7.337,0.47
			c1.066,0.176,2.307,0.571,2.307,0.571s2.032-0.819,3.075-1.164c1.04-0.349,3.768-1.117,5.851-1.438
			c2.081-0.325,4.313-0.573,6.519-0.573c2.208,0,5.355,0.248,7.513,0.722c2.155,0.47,4.636,1.211,5.579,1.584
			c0.942,0.373,2.95,1.289,2.95,1.289s1.464-0.446,2.701-0.718c1.241-0.274,3.147-0.571,4.238-0.643
			c1.094-0.077,1.96-0.176,3.3-0.149c1.339,0.024,4.538,0.347,5.43,0.446c0.891,0.099,3,0.347,5.18,0.322
			c1.464-0.015,6.176-0.224,7.539-0.298s9.543-0.445,11.229-0.47c1.688-0.026,9.075,0.421,10.564,0.494
			c1.487,0.077,4.608,0.224,5.576,0.2c0.968-0.027,4.216-0.176,5.852-0.347c1.635-0.173,5.145-0.463,5.739-0.498
			c0.658-0.035,0.941-0.035,1.054,0.04c0.111,0.075,1.142,1.064,1.563,1.536c0.422,0.472,0.843,1.054,1.003,1.24
			c0.162,0.187,0.234,0.261,0.187,0.358c-0.048,0.101-0.347,0.621-0.458,0.757c-0.112,0.139-0.211,0.2-0.348,0.272
			c-0.136,0.077-1.586,0.805-2.059,1.005c-0.47,0.197-1.71,0.718-1.71,0.718s0.36,0.843,0.494,1.216
			c0.138,0.371,0.336,1.128,0.336,1.365c0,0.234,0.024,0.766-0.037,0.803c-0.062,0.04-0.793,0.46-1.078,0.583
			s-1.363,0.571-1.835,0.696c-0.47,0.121-1.35,0.358-1.35,0.358s0.062,0.667,0.037,1.078c-0.026,0.408-0.026,0.882-0.125,1.304
			c-0.086,0.367-0.371,0.854-0.544,1.078c-0.176,0.224-0.56,0.435-0.832,0.568c-0.228,0.114-1.154,0.397-1.611,0.485
			c-0.458,0.086-1.091,0.187-1.363,0.211c-0.274,0.024-0.498,0.024-0.498,0.024s-0.023,0.808-0.062,1.165
			c-0.035,0.36-0.159,0.992-0.245,1.264c-0.09,0.274-0.336,0.757-0.598,0.979c-0.259,0.224-0.445,0.36-0.891,0.459
			c-0.445,0.101-1.029,0.235-1.589,0.298c-0.556,0.062-1.622,0.184-1.982,0.211c-0.359,0.024-0.732,0.037-0.732,0.037
			s-0.272,1.003-0.382,1.314c-0.112,0.307-0.448,0.979-0.683,1.313c-0.235,0.335-0.646,0.805-0.856,0.992
			c-0.21,0.187-0.544,0.421-0.704,0.47c-0.163,0.05-0.941,0.088-1.315,0.088c-0.373,0-1.499,0-2.059-0.038
			c-0.558-0.037-1.165-0.099-1.547-0.136c-0.325-0.031-0.584-0.099-0.584-0.099s-0.125,0.768-0.162,0.968
			c-0.037,0.197-0.174,0.68-0.32,1.04c-0.149,0.358-0.336,0.632-0.499,0.792c-0.148,0.149-0.303,0.325-0.766,0.421
			c-0.472,0.101-0.92,0.125-1.203,0.136c-0.285,0.013-2.096,0.061-2.578,0.061c-0.485,0-1.414-0.011-1.75-0.024
			c-0.333-0.011-0.854,0-0.854,0s-0.137,0.571-0.237,0.894c-0.096,0.322-0.309,0.856-0.432,1.091
			c-0.123,0.237-0.292,0.538-0.496,0.73c-0.225,0.211-0.312,0.349-0.721,0.397c-0.41,0.048-0.917,0.085-1.411,0.075
			c-0.498-0.013-1.588-0.075-2.096-0.149c-0.509-0.075-1.55-0.274-1.849-0.36c-0.298-0.085-0.607-0.222-0.607-0.222
			s-0.184,0.571-0.333,0.83c-0.15,0.261-0.47,0.773-0.683,0.941c-0.26,0.211-0.545,0.571-1.03,0.632
			c-0.482,0.063-0.965-0.024-1.374-0.085c-0.41-0.062-1.301-0.259-1.686-0.36c-0.386-0.099-1.354-0.384-1.573-0.446
			c-0.226-0.062-0.498-0.176-0.498-0.176s-0.264,0.525-0.446,0.757c-0.173,0.224-0.482,0.584-0.717,0.769
			c-0.237,0.187-0.658,0.46-0.856,0.485c-0.197,0.024-0.521,0-0.943-0.062c-0.422-0.064-0.929-0.213-1.361-0.349
			c-0.435-0.136-0.794-0.298-0.794-0.298s-0.471,1.365-0.595,1.675c-0.126,0.31-0.731,1.576-0.957,1.997
			c-0.187,0.358-1.192,1.993-1.499,2.44c-0.371,0.547-1.857,2.419-2.217,2.777c-0.36,0.36-0.869,0.906-1.192,1.24
			c-0.32,0.334-1.686,1.549-2.416,2.134c-0.733,0.581-2.06,1.549-3.086,2.182c-1.031,0.632-2.901,1.636-3.72,2.008
			c-0.817,0.371-1.761,0.755-1.761,0.755s-0.373,0.707-0.568,1.155c-0.197,0.444-0.56,1.125-0.647,1.248
			c-0.086,0.126-0.248,0.162-0.433,0.101c-0.187-0.061-1.08-0.396-1.413-0.52c-0.334-0.125-1.078-0.435-1.078-0.435
			s-0.496,0.73-0.672,1.004c-0.173,0.273-0.656,1.005-0.741,1.09c-0.088,0.088-0.274,0.053-0.384,0.014
			c-0.11-0.038-1.078-0.569-1.278-0.684c-0.197-0.108-1.028-0.595-1.028-0.595s-0.471,0.571-0.719,0.906
			c-0.199,0.271-0.882,1.055-0.943,1.115c-0.062,0.063-0.16,0.051-0.308-0.011c-0.149-0.062-0.435-0.301-0.757-0.536
			c-0.322-0.234-0.869-0.669-1.043-0.778c-0.173-0.111-0.333-0.261-0.333-0.261s-0.619,0.607-0.843,0.818
			c-0.223,0.211-0.768,0.743-0.843,0.818c-0.074,0.072-0.21,0.198-0.21,0.198s-0.112,0.085-0.261,0.013
			c-0.147-0.075-0.779-0.67-1.053-0.931c-0.224-0.213-0.87-0.854-0.87-0.854s-0.779,0.568-1.04,0.755
			c-0.261,0.185-0.955,0.731-1.078,0.792c-0.123,0.062-0.299,0.038-0.397-0.097c-0.099-0.139-0.843-0.994-0.979-1.168
			c-0.136-0.173-0.608-0.73-0.608-0.73s-0.918,0.496-1.289,0.683c-0.373,0.187-0.931,0.555-1.029,0.595
			c-0.101,0.038-0.323,0.038-0.397-0.088c-0.072-0.125-0.555-0.816-0.744-1.09c-0.21-0.311-0.645-0.979-0.645-0.979
			s-0.843,0.31-1.139,0.435c-0.296,0.123-1.189,0.472-1.35,0.507c-0.162,0.038-0.397-0.004-0.46-0.123
			c-0.086-0.162-0.694-1.327-0.819-1.61c-0.123-0.288-0.32-0.709-0.32-0.709s-0.999-0.396-1.648-0.693
			c-0.707-0.323-2.219-1.065-2.851-1.414c-0.632-0.345-1.686-0.977-2.318-1.413c-0.632-0.435-2.083-1.499-2.653-1.995
			c-0.571-0.494-2.504-2.417-2.963-2.937c-0.459-0.52-1.19-1.402-1.811-2.243c-0.619-0.845-1.066-1.625-1.499-2.443
			c-0.435-0.818-0.768-1.499-1.165-2.48c-0.397-0.979-0.731-1.885-0.83-2.217c-0.101-0.335-0.125-0.474-0.125-0.474
			s-1.128,0.373-1.92,0.56c-0.794,0.184-1.688,0.445-2.493,0.397c-0.803-0.05-0.953-0.175-1.152-0.336
			c-0.197-0.16-0.446-0.447-0.72-0.832c-0.272-0.382-0.531-0.891-0.531-0.891s-1.24,0.31-1.723,0.421
			c-0.482,0.112-1.624,0.336-2.307,0.421c-0.68,0.088-1.475,0.173-1.872,0.125c-0.395-0.053-0.676-0.207-1.029-0.509
			c-0.371-0.322-0.494-0.52-0.681-0.781c-0.145-0.202-0.507-0.906-0.584-1.078c-0.072-0.173-0.123-0.397-0.123-0.397
			s-1.424,0.024-1.797,0.024c-0.374,0-2.331-0.011-2.729-0.024c-0.395-0.011-1.461-0.087-1.896-0.173
			c-0.432-0.088-0.704-0.162-1.115-0.708c-0.408-0.542-0.52-0.803-0.68-1.236c-0.163-0.435-0.288-0.92-0.288-0.92
			s-1.251-0.013-1.92-0.085c-0.669-0.077-2.059-0.235-2.814-0.36c-0.757-0.123-1.907-0.323-2.219-0.435
			c-0.31-0.11-0.483-0.373-0.755-0.669c-0.274-0.298-0.546-0.693-0.795-1.064c-0.248-0.373-0.757-1.13-0.806-1.24
			c-0.048-0.112-0.123-0.235-0.123-0.235s-1.291-0.125-1.859-0.2c-0.573-0.072-1.402-0.21-1.787-0.283
			c-0.384-0.077-1.387-0.263-1.611-0.373c-0.222-0.112-0.408-0.2-0.608-0.595c-0.197-0.397-0.332-1.185-0.496-1.861
			c-0.171-0.705-0.285-1.275-0.285-1.275s-1.041-0.272-1.873-0.496c-0.83-0.224-1.064-0.299-1.637-0.47
			c-0.568-0.175-1.115-0.386-1.436-0.597c-0.322-0.211-0.312-0.608-0.347-0.83c-0.038-0.224-0.125-1.167-0.149-1.439
			c-0.027-0.272-0.014-0.867-0.014-0.867s-2.069-0.955-2.603-1.189c-0.533-0.237-1.797-0.843-2.059-0.966
			c-0.259-0.125-0.222-0.397-0.185-0.608c0.035-0.211,0.211-1.054,0.299-1.464c0.085-0.408,0.222-1.078,0.248-1.166
			c0.024-0.086,0.035-0.171,0.035-0.171s-1.997-1.005-2.491-1.266c-0.496-0.261-1.896-0.966-2.083-1.08
			c-0.187-0.11-0.259-0.333-0.347-0.643C21.033,69.833,20.996,69.66,20.996,69.66"/>
		<path clip-path="url(#SVGID_2_)" fill-rule="evenodd" clip-rule="evenodd" fill="#FFFFFF" d="M86.869,82.142
			c0.2-2.289,3.077-4.851,2.66-7.179c-0.329-1.843-2.607-3.406-4.896-3.764c-1.317-0.206-5.645-0.529-6.589-0.56
			c-1.164-0.037-4.3-0.099-5.281-0.112c-0.979-0.011-3.571-0.026-4.337-0.051c-0.771-0.024-1.723-0.037-2.952-0.248
			c-1.242-0.213-2.123-0.472-3.347-0.843c-1.227-0.371-2.204-0.669-3.171-0.88s-2.195-0.408-3.038-0.483
			c-0.845-0.075-2.504-0.198-3.755-0.222c-1.253-0.024-4.339,0-5.333,0.011c-0.99,0.013-4.064,0.123-4.87,0.123
			c-0.805,0-1.675-0.011-2.057,0.013c-0.384,0.024-0.298,0.211-0.472,0.235c-0.176,0.026-1.115,0-1.648,0s-0.931-0.024-1.117-0.037
			c-0.187-0.011-0.458-0.011-0.458-0.011s-0.035,0.174,0.151,0.222c0.184,0.05,0.656,0.087,0.816,0.101s1.425,0.099,1.87,0.123
			c0.45,0.024,1.216,0.024,1.701,0.063c0.483,0.038,1.35,0.038,1.92,0.048c0.571,0.013,2.875,0,3.718,0.024
			c0.843,0.027,2.432,0.027,3.211,0.051c0.781,0.024,2.629,0.099,4.08,0.274c1.451,0.171,2.627,0.344,4.089,0.693
			c1.396,0.332,3.051,0.854,3.856,1.102s1.923,0.546,2.502,0.669c0.584,0.125,1.106,0.163,1.253,0.288
			c0.149,0.121,0.149,0.259,0.063,0.445c-0.088,0.187-0.162,0.248-0.224,0.421c-0.064,0.173-0.125,0.31-0.125,0.31h-0.521
			c0,0,0.099-0.099,0.112-0.211c0.011-0.112-0.296-0.298-0.621-0.36c-0.321-0.063-1.796-0.198-2.18-0.248
			c-0.386-0.05-1.848-0.187-2.643-0.175c-0.792,0.015-3.891-0.024-4.686,0c-0.792,0.028-3.692-0.036-4.425-0.011
			c-0.73,0.026-3.283,0-3.979-0.013c-0.693-0.011-2.307-0.011-2.95-0.011c-0.646,0-2.827,0-3.595-0.013
			c-0.768-0.013-3.397-0.075-3.905-0.062c-0.509,0.013-1.946-0.038-2.664-0.048c-0.72-0.013-3.187-0.088-3.856-0.088
			c-0.667,0-1.51-0.05-1.773-0.123c-0.259-0.077-1.672-0.808-2.241-1.09c-0.573-0.288-1.65-0.843-1.949-0.993
			c-0.296-0.149-0.582-0.349-0.669-0.386c-0.085-0.035-0.483,0.349-0.592,0.496c-0.112,0.149-0.312,0-0.312,0
			s1.363-1.512,1.637-1.833c0.272-0.323,0.608-0.757,0.755-0.805c0.149-0.051,0.744-0.051,1.104-0.014
			c0.36,0.038,2.651,0.235,3.099,0.272c0.445,0.037,2.392,0.099,2.912,0.125c0.522,0.024,2.987,0.038,3.806,0.062
			c0.818,0.024,3.384,0.085,4.152,0.048c0.769-0.037,2.899-0.235,3.558-0.272c0.659-0.037,2.729-0.186,3.694-0.21
			c0.968-0.024,2.95-0.011,3.582-0.048c0.632-0.04,3.137-0.063,4.006-0.063c0.867,0,3.31,0.101,4.139,0.125
			c0.832,0.024,4.39,0.21,5.318,0.259c0.929,0.051,5.542,0.211,6.558,0.235c1.017,0.024,2.528,0.077,3.334,0.024
			c0.808-0.048,4.673-0.222,5.852-0.259c1.176-0.037,4.264-0.085,5.518-0.048c1.251,0.035,4.263,0.336,5.281,0.459
			c1.016,0.123,2.019,0.384,2.305,0.395c0.285,0.013,0.744,0.037,0.904,0.187c0.162,0.149,0.312,0.483,0.621,0.669
			c0.307,0.187,0.742,0.259,0.891,0.458c0.149,0.198,0.163,0.608,0.248,0.782c0.088,0.173,0.447,0.742,0.496,1.128
			c0.05,0.384,0,1.053-0.246,1.475c-0.25,0.421-0.661,0.931-1.117,1.4c-0.458,0.472-1.152,0.98-1.76,1.501
			c-0.608,0.52-1.637,1.326-2.168,2.057c-0.536,0.731-0.867,1.229-0.981,1.958c-0.11,0.733-0.048,1.168-0.085,1.291
			c-0.04,0.125-0.149,0.433-0.323,0.619s-0.929,1.066-1.203,1.427c-0.272,0.36-0.73,1.029-0.843,1.203
			c-0.112,0.171-0.21,0.357-0.21,0.357L86.3,84.299c0,0,0.38-0.457,0.417-0.568C86.86,83.562,86.792,83.033,86.869,82.142"/>
		<path clip-path="url(#SVGID_2_)" fill-rule="evenodd" clip-rule="evenodd" fill="#FFFFFF" d="M26.7,73.551l0.085-0.459
			c0,0,1.264-0.011,1.648,0.014c0.384,0.024,2.691,0.099,3.497,0.099c0.805,0,3.31,0.075,3.916,0.05
			c0.607-0.026,3.992,0.048,4.725,0.048c0.731,0,4.276,0.013,5.006,0.026c0.733,0.011,4.785,0.035,5.417,0.035
			c0.632,0,3.968,0,4.75,0.013c0.779,0.011,4.126-0.024,4.884-0.024c0.755,0,2.69,0.035,3.112,0.024
			c0.421-0.013,0.755-0.048,0.843-0.075c0.085-0.024,0.358-0.136,0.52-0.062c0.163,0.075,0.235,0.261,0.31,0.358
			c0.075,0.101,0.224,0.213,0.31,0.274c0.085,0.061,0.261,0.149,0.373,0.298c0.11,0.149,0.11,0.149,0.285,0.283
			c0.174,0.138,0.211,0.2,0.149,0.274s-0.325,0.408-0.435,0.582c-0.112,0.173-0.149,0.36-0.21,0.408
			c-0.064,0.053-0.435,0.088-0.435,0.088s0.224-0.16,0.187-0.31c-0.04-0.147-0.298-0.483-0.83-0.52
			c-0.535-0.038-1.861,0.085-2.456,0.147c-0.595,0.063-4.539,0.408-5.232,0.472c-0.694,0.062-6.159,0.448-7.089,0.521
			c-0.931,0.074-5.254,0.335-6.086,0.397c-0.83,0.062-4.066,0.224-5.07,0.283c-1.005,0.063-3.323,0.162-4.203,0.2
			c-0.878,0.04-2.627,0.075-2.95,0.05c-0.323-0.024-0.757-0.21-0.979-0.309c-0.224-0.099-1.624-0.731-2.019-0.907
			c-0.397-0.173-1.093-0.457-1.216-0.619c-0.125-0.162-0.062-0.421-0.062-0.619c0-0.2-0.015-0.458-0.237-0.645
			C26.983,73.762,26.7,73.551,26.7,73.551"/>
		<path clip-path="url(#SVGID_2_)" fill-rule="evenodd" clip-rule="evenodd" fill="#FFFFFF" d="M31.05,78.906V78.56
			c0,0,0.584,0,0.891-0.05c0.312-0.049,1.539-0.049,2.355-0.086c0.819-0.04,4.017-0.176,5.022-0.235
			c1.029-0.063,5.592-0.312,6.446-0.373c0.856-0.062,6.878-0.472,7.722-0.546c0.843-0.073,5.816-0.47,6.597-0.531
			c0.779-0.064,3.385-0.336,4.313-0.411c0.931-0.074,1.067-0.197,1.216-0.21c0.149-0.011,0.259-0.099,0.409,0.074
			c0.147,0.173,0.458,0.522,0.645,0.646c0.187,0.125,0.768,0.496,0.781,0.68c0.011,0.187-0.162,0.421-0.25,0.595
			c-0.086,0.175-0.086,0.522-0.086,0.522l-0.595,0.11c0,0,0.048-0.134,0.064-0.222c0.008-0.085-0.09-0.323-0.336-0.421
			c-0.248-0.099-0.658-0.173-1.067-0.085c-0.408,0.085-2.269,0.408-3.026,0.531c-0.755,0.125-5.143,0.856-6.209,1.029
			c-1.067,0.173-5.281,0.818-6.286,0.955c-1.003,0.136-4.895,0.645-6.257,0.779c-1.365,0.138-3.002,0.298-3.918,0.349
			c-0.917,0.048-1.848,0.136-2.517,0.062c-0.669-0.074-2.145-0.533-2.79-0.693c-0.643-0.163-1.611-0.446-1.773-0.608
			c-0.161-0.163-0.248-0.333-0.296-0.531c-0.048-0.2-0.36-0.621-0.522-0.696C31.423,79.117,31.05,78.906,31.05,78.906"/>
		<path clip-path="url(#SVGID_2_)" fill-rule="evenodd" clip-rule="evenodd" fill="#FFFFFF" d="M36.542,83.283
			c0,0,0.248,0.037,0.521,0c0.274-0.038,0.509-0.163,0.832-0.173c0.321-0.013,1.289-0.051,1.822-0.075
			c0.533-0.024,2.093-0.173,2.64-0.224c0.544-0.05,3.136-0.309,3.979-0.421c0.843-0.112,5.465-0.768,6.235-0.878
			c0.769-0.114,4.636-0.696,5.689-0.882c1.054-0.184,4.587-0.805,5.492-0.979c0.904-0.174,1.995-0.347,2.405-0.433
			c0.408-0.09,0.683-0.274,0.906-0.211c0.222,0.06,0.457,0.235,0.742,0.369c0.285,0.138,0.72,0.274,0.955,0.36
			c0.235,0.088,0.458,0.211,0.483,0.298c0.024,0.088,0,0.435-0.099,0.606c-0.099,0.175-0.16,0.312-0.198,0.509
			c-0.04,0.2-0.05,0.362-0.05,0.362l-0.558,0.198c0,0,0.086-0.25,0-0.373c-0.088-0.125-0.397-0.347-0.558-0.323
			c-0.162,0.024-0.41,0.037-0.669,0.125c-0.259,0.086-3.608,1.091-4.142,1.24l-3.992,1.102c-0.494,0.139-3.644,0.929-4.535,1.115
			c-0.893,0.187-4.189,0.855-5.008,1.005c-0.819,0.149-3.918,0.546-4.71,0.595c-0.795,0.05-0.931,0.074-1.563,0.037
			s-1.822-0.187-2.579-0.296c-0.755-0.112-1.574-0.274-1.859-0.335c-0.285-0.062-0.557-0.112-0.682-0.446
			c-0.123-0.336-0.11-0.584-0.321-0.818c-0.21-0.235-0.472-0.472-0.645-0.547s-0.448-0.073-0.485-0.16
			C36.529,83.48,36.542,83.283,36.542,83.283"/>
		<path clip-path="url(#SVGID_2_)" fill-rule="evenodd" clip-rule="evenodd" fill="#FFFFFF" d="M43.211,87.807
			c0,0,2.256-0.235,2.764-0.31c0.509-0.075,3.979-0.57,4.811-0.744c0.83-0.173,4.411-0.953,5.057-1.102
			c0.646-0.149,4.563-1.168,5.342-1.378c0.781-0.211,3.409-0.953,4.115-1.176c0.707-0.222,2.803-0.854,3.038-0.955
			c0.235-0.099,0.47-0.272,0.707-0.248c0.237,0.024,0.917,0.235,1.166,0.31s0.891,0.187,1.005,0.298
			c0.11,0.11,0.158,0.211,0.134,0.384c-0.024,0.176-0.013,1.091,0,1.189c0.013,0.101,0.25,0.299,0.25,0.299l-0.595,0.234
			c-0.125,0.051-0.397,0.149-0.397,0.149s0.062-0.261,0.024-0.336c-0.037-0.072-0.375-0.274-0.472-0.296
			c-0.112-0.026-0.211,0-0.472,0.085c-0.259,0.088-0.928,0.386-1.262,0.536c-0.336,0.147-2.318,0.928-2.913,1.163
			c-0.597,0.235-3,1.152-3.771,1.427c-0.768,0.272-4.262,1.475-4.907,1.672c-0.645,0.2-2.939,0.843-3.483,0.979
			c-0.547,0.136-0.808,0.25-1.253,0.274c-0.446,0.024-2.182-0.125-2.902-0.224c-0.718-0.099-2.739-0.397-3.011-0.485
			c-0.272-0.085-0.445-0.198-0.608-0.382c-0.16-0.187-0.296-0.323-0.568-0.472c-0.274-0.147-0.595-0.31-0.819-0.397
			c-0.221-0.085-0.322-0.123-0.472-0.184c-0.147-0.063-0.31-0.077-0.397-0.138C43.236,87.921,43.211,87.807,43.211,87.807"/>
		<path clip-path="url(#SVGID_2_)" fill-rule="evenodd" clip-rule="evenodd" fill="#FFFFFF" d="M52.546,91.711
			c0,0,0.729-0.173,0.941-0.272c0.208-0.099,1.387-0.457,1.76-0.557c0.373-0.099,1.699-0.459,2.254-0.646
			c0.56-0.187,3.161-1.078,3.672-1.251c0.507-0.173,3.606-1.338,4.214-1.574c0.608-0.234,4.054-1.648,4.547-1.848
			c0.499-0.198,0.992-0.408,1.166-0.522c0.176-0.109,0.731-0.382,0.995-0.445c0.259-0.062,0.779-0.147,1.014-0.134
			c0.237,0.011,0.411-0.013,0.509,0.096c0.099,0.114,0.138,0.261,0.123,0.448c-0.013,0.184,0.05,0.656,0.261,0.816
			c0.21,0.163,0.533,0.312,0.893,0.397c0.36,0.085,0.705,0.138,0.83,0.149c0.123,0.013,0.211,0,0.211,0s-0.705,0.419-0.88,0.509
			l-0.917,0.457c0,0-0.062-0.185-0.147-0.222c-0.088-0.037-0.421-0.037-0.696-0.013c-0.272,0.024-0.544,0.125-0.792,0.272
			c-0.25,0.149-2.629,1.414-3.099,1.662c-0.472,0.248-4.118,2.146-4.611,2.37c-0.496,0.222-2.838,1.374-3.225,1.547
			c-0.384,0.176-0.607,0.325-0.968,0.36c-0.36,0.038-1.176,0.05-1.907,0.062c-0.731,0.013-2.168-0.024-2.616-0.048
			c-0.445-0.024-1.091-0.04-1.438-0.173c-0.347-0.138-0.397-0.325-0.608-0.57c-0.211-0.249-0.619-0.483-0.806-0.544
			c-0.187-0.064-0.474-0.083-0.595-0.053C52.582,91.996,52.546,91.711,52.546,91.711"/>
		<path clip-path="url(#SVGID_2_)" fill-rule="evenodd" clip-rule="evenodd" fill="#FFFFFF" d="M61.025,94.711
			c0,0,2.838-1.427,3.27-1.611c0.437-0.187,4.675-2.355,5.219-2.654c0.547-0.298,3.646-1.995,4.315-2.366
			c0.669-0.374,1.598-0.869,1.747-0.968c0.149-0.099,0.261-0.248,0.447-0.312c0.185-0.062,0.31-0.085,0.31-0.085
			s0.261,0.349,0.408,0.533c0.149,0.185,0.485,0.521,0.856,0.571c0.371,0.05,0.558,0.062,0.792,0.035
			c0.235-0.024,0.645-0.11,0.645-0.11s-1.027,0.992-1.213,1.139c-0.187,0.149-2.443,1.997-2.888,2.395
			c-0.446,0.397-2.083,1.672-2.456,1.971c-0.371,0.296-1.561,1.179-1.82,1.313c-0.263,0.139-0.919,0.384-1.33,0.499
			c-0.408,0.11-2.293,0.507-2.974,0.643c-0.681,0.136-2.145,0.386-2.428,0.397c-0.288,0.013-0.696,0.013-0.944-0.25
			c-0.248-0.259-0.384-0.643-0.707-0.803c-0.323-0.163-0.544-0.266-0.768-0.237C61.06,94.872,61.025,94.711,61.025,94.711"/>
		<path clip-path="url(#SVGID_2_)" fill-rule="evenodd" clip-rule="evenodd" fill="#FFFFFF" d="M69.266,96.373
			c0,0,1.539-1.128,1.875-1.402c0.332-0.272,1.721-1.36,2.094-1.659c0.373-0.298,2.006-1.624,2.504-2.032
			c0.496-0.411,1.982-1.674,2.368-2.021c0.384-0.347,1.15-1.091,1.15-1.091s0.052,0.299,0.187,0.408
			c0.138,0.114,0.325,0.349,0.645,0.483c0.323,0.138,0.768,0.163,1.093,0.149c0.32-0.011,0.63-0.048,0.755-0.048
			s0.323,0.062,0.335,0.272c0.011,0.211,0.025,0.36,0.025,0.459c0,0.101,0.048,0.187,0.048,0.187l-2.28,2.528
			c-0.446,0.496-1.736,1.883-2.145,2.305c-0.411,0.421-1.451,1.549-1.574,1.65c-0.125,0.099-0.489,0.02-0.709-0.112
			c-0.283-0.173-0.544-0.037-0.891,0.051c-0.349,0.085-0.968,0.272-1.376,0.371c-0.355,0.085-1.352,0.309-1.611,0.309
			s-0.547-0.024-0.707-0.197c-0.16-0.174-0.52-0.56-0.707-0.646c-0.187-0.088-0.411-0.149-0.507-0.088
			C69.738,96.312,69.341,96.546,69.266,96.373"/>
		<path clip-path="url(#SVGID_2_)" fill-rule="evenodd" clip-rule="evenodd" fill="#FFFFFF" d="M76.768,96.869
			c0,0,1.486-1.574,1.822-1.92c0.333-0.349,2.133-2.294,2.518-2.715c0.382-0.421,1.04-1.205,1.2-1.402
			c0.163-0.197,0.286-0.333,0.36-0.333c0.074,0,0.496-0.024,0.83-0.088c0.336-0.062,0.845-0.171,0.966-0.136
			c0.125,0.038,0.125,0.136,0.138,0.237c0.013,0.096,0.024,1.176,0.037,1.523c0.011,0.349,0.011,1.104-0.062,1.378
			c-0.074,0.272-0.893,1.87-1.08,2.305c-0.185,0.435-0.72,1.4-0.792,1.587c-0.074,0.184-0.123,0.235-0.187,0.296
			c-0.062,0.064-0.202-0.158-0.397-0.395c-0.272-0.335-0.556-0.288-0.843-0.21c-0.283,0.072-1.883,0.494-2.168,0.555
			c-0.286,0.063-0.782,0.2-1.043,0.149c-0.259-0.048-0.384-0.221-0.507-0.432c-0.125-0.211-0.281-0.349-0.458-0.349
			C76.904,96.917,76.768,96.869,76.768,96.869"/>
		<path clip-path="url(#SVGID_2_)" fill-rule="evenodd" clip-rule="evenodd" fill="#FFFFFF" d="M84.02,95.754
			c0,0,0.371-0.88,0.456-1.042c0.09-0.163,0.211-0.421,0.211-0.421s0.101,0.459,0.187,0.669c0.088,0.21,0.303,0.439,0.373,0.68
			c0.053,0.182,0.421,1.13,0.483,1.277c0.062,0.149,0.174,0.384,0.136,0.522c-0.035,0.136-0.024,0.248,0.026,0.371
			c0.048,0.123,0.094,0.239,0.011,0.272c-0.125,0.051-0.384,0.237-0.47,0.272c-0.087,0.037-0.298,0.026-0.421-0.158
			c-0.077-0.114-0.387-0.138-0.632-0.336c-0.248-0.2-0.224-0.322-0.21-0.522c0.011-0.195,0.123-0.941,0.061-1.102
			C84.169,96.076,84.02,95.754,84.02,95.754"/>
		<path clip-path="url(#SVGID_2_)" fill-rule="evenodd" clip-rule="evenodd" fill="#FFFFFF" d="M76.483,98.778
			c0,0,0.458,0.582,0.757,0.571c0.296-0.013,0.395-0.088,0.518-0.125c0.125-0.037,0.397-0.048,0.509,0.011
			c0.112,0.062,0.274,0.261,0.261,0.448s0.101,0.58,0.235,0.88c0.163,0.359,0.794,1.648,1.166,2.256
			c0.371,0.607,1.449,2.144,1.907,2.702c0.461,0.56,1.986,2.221,2.381,2.566c0.395,0.349,2.406,2.021,3.125,2.504
			c0.718,0.482,2.428,1.589,3.47,2.107c1.041,0.522,2.331,1.128,2.665,1.253c0.333,0.125,0.557,0.16,0.619,0.259
			c0.063,0.102,0.173,0.2,0.173,0.2l-0.382,0.631l-0.336,0.534l-0.283-0.136c0,0,0.208-0.176,0.133-0.322
			c-0.074-0.15-0.162-0.299-0.397-0.424c-0.235-0.123-1.251-0.557-1.699-0.767c-0.445-0.21-2.403-1.277-3.097-1.723
			c-0.695-0.448-2.405-1.624-3.213-2.282c-0.803-0.657-2.553-2.367-3.134-3.012s-1.797-2.243-2.17-2.816
			c-0.371-0.568-1.425-2.478-1.648-2.987c-0.224-0.507-0.347-0.843-0.558-1.04c-0.21-0.198-0.272-0.235-0.36-0.248
			c-0.086-0.011-0.307-0.038-0.307-0.038s-0.064-0.149-0.176-0.485C76.555,99.035,76.483,98.778,76.483,98.778"/>
		<path clip-path="url(#SVGID_2_)" fill-rule="evenodd" clip-rule="evenodd" fill="#FFFFFF" d="M78.638,99.149
			c0,0,0.421-0.024,0.757-0.16c0.333-0.136,1.253-0.397,1.624-0.496c0.371-0.101,0.806-0.286,0.992-0.336
			c0.187-0.048,0.323-0.11,0.432-0.085c0.114,0.024,0.176,0.085,0.296,0.259c0.125,0.176,0.277,0.542,0.435,0.669
			c0.187,0.149,0.437,0.373,0.781,0.336c0.349-0.037,0.696-0.075,0.981-0.198c0.283-0.125,0.818-0.472,0.941-0.535
			c0.123-0.062,0.298-0.198,0.36-0.134c0.062,0.062,0.149,0.174,0.235,0.198c0.088,0.024,0.21,0.136,0.259,0.224
			c0.051,0.086,0.819,1.227,1.24,1.734s1.029,1.179,1.451,1.587c0.421,0.411,1.648,1.475,2.131,1.822
			c0.485,0.349,1.898,1.291,2.53,1.624c0.632,0.336,1.4,0.744,2.022,1.005c0.619,0.261,1.275,0.52,1.451,0.606
			c0.171,0.088,0.234,0.173,0.357,0.274c0.125,0.099,0.198,0.224,0.149,0.347c-0.05,0.123-0.707,1.152-0.992,1.675
			c-0.285,0.521-0.805,1.351-1.016,1.723c-0.21,0.371-0.768,1.277-0.931,1.574c-0.162,0.298-0.584,0.979-0.608,1.054
			c-0.024,0.072-0.134,0.062-0.173,0c-0.037-0.063,0.149-0.262,0.149-0.507c0-0.249-0.149-0.598-0.286-0.733
			c-0.136-0.137-0.544-0.333-0.768-0.436c-0.224-0.099-1.313-0.618-1.859-0.903c-0.544-0.286-1.648-0.917-2.368-1.39
			c-0.718-0.47-1.686-1.115-2.307-1.622c-0.619-0.509-1.5-1.264-2.043-1.797c-0.547-0.534-1.451-1.537-2.021-2.283
			c-0.571-0.741-1.302-1.747-1.699-2.454c-0.396-0.707-0.806-1.587-0.939-1.736c-0.138-0.147-0.336-0.382-0.621-0.47
			c-0.286-0.085-0.448-0.149-0.571-0.163c-0.125-0.011-0.347-0.011-0.373-0.11C78.614,99.211,78.638,99.149,78.638,99.149"/>
		<path clip-path="url(#SVGID_2_)" fill-rule="evenodd" clip-rule="evenodd" fill="#FFFFFF" d="M66.044,71.927c0,0,2.318-0.011,3,0
			c0.68,0.013,2.653,0.013,2.864,0.013c0.211,0,0.483,0.086,0.595,0.099l0.211,0.026c0,0,0.099,0.222,0.024,0.296
			c-0.074,0.072-0.16,0.323-0.221,0.469c-0.064,0.149-0.014,0.312-0.101,0.336c-0.086,0.024-0.483,0.075-0.483,0.075
			s0.062-0.187-0.048-0.261c-0.114-0.072-0.397-0.173-0.632-0.16c-0.239,0.011-1.416,0.125-1.787,0.16
			c-0.374,0.038-1.427,0.176-1.638,0.211c-0.21,0.037-0.445,0-0.605-0.062c-0.163-0.063-0.733-0.299-0.894-0.421
			c-0.16-0.125-0.237-0.173-0.296-0.187l-0.237-0.048l0.112-0.298C65.946,72.076,66.044,71.927,66.044,71.927"/>
		<path clip-path="url(#SVGID_2_)" fill-rule="evenodd" clip-rule="evenodd" fill="#FFFFFF" d="M66.727,75.212
			c0,0,0.222-0.349,0.296-0.397c0.074-0.048,0.632-0.224,0.856-0.283c0.224-0.063,1.277-0.312,1.749-0.421
			c0.47-0.114,1.374-0.274,1.795-0.386c0.421-0.112,0.818-0.248,0.944-0.248c0.123,0,0.333,0.062,0.47,0.162
			c0.138,0.099,0.411,0.296,0.546,0.409c0.136,0.112,0.272,0.298,0.235,0.395c-0.035,0.101-0.099,0.175-0.173,0.274
			c-0.072,0.099-0.048,0.147-0.072,0.261c-0.029,0.109-0.029,0.296-0.029,0.296s-0.369,0.112-0.432,0.125
			c-0.062,0.011-0.16,0.037-0.16,0.037s0.099-0.261,0.024-0.31c-0.075-0.05-0.347-0.25-0.619-0.274
			c-0.274-0.024-1.053,0.21-1.317,0.298c-0.259,0.085-1.238,0.347-1.608,0.458c-0.373,0.11-0.707,0.272-1.005,0.248
			c-0.296-0.026-0.558-0.149-0.819-0.272c-0.259-0.125-0.32-0.176-0.408-0.224C66.914,75.312,66.727,75.212,66.727,75.212"/>
		<path clip-path="url(#SVGID_2_)" fill-rule="evenodd" clip-rule="evenodd" fill="#FFFFFF" d="M67.73,77.84
			c0,0,0.024-0.21,0.138-0.296c0.11-0.088,0.408-0.16,0.556-0.237c0.149-0.075,0.608-0.224,1.09-0.395
			c0.485-0.173,1.39-0.448,1.774-0.558c0.386-0.114,1.215-0.373,1.426-0.458c0.21-0.088,0.472-0.248,0.683-0.235
			c0.21,0.011,0.606,0.097,0.83,0.184c0.224,0.088,0.459,0.185,0.496,0.333c0.035,0.149-0.05,0.374-0.136,0.496
			c-0.088,0.125-0.112,0.237-0.136,0.336c-0.026,0.099-0.026,0.283-0.026,0.283s-0.136,0.114-0.298,0.151l-0.259,0.059
			c0,0,0.024-0.173-0.085-0.296c-0.112-0.125-0.421-0.246-0.632-0.186c-0.21,0.061-1.018,0.386-1.328,0.522
			c-0.31,0.136-1.19,0.544-1.488,0.669c-0.296,0.123-0.507,0.235-0.819,0.187c-0.309-0.05-0.568-0.077-0.803-0.187
			c-0.235-0.112-0.546-0.274-0.656-0.312C67.941,77.866,67.73,77.84,67.73,77.84"/>
		<path clip-path="url(#SVGID_2_)" fill-rule="evenodd" clip-rule="evenodd" fill="#FFFFFF" d="M69.664,79.984l1.054-0.507
			c0.36-0.173,1.723-0.792,2.145-0.992c0.421-0.197,1.104-0.533,1.253-0.595c0.149-0.061,0.31-0.173,0.483-0.186
			c0.173-0.013,0.57,0.074,0.792,0.125c0.224,0.048,0.536,0.085,0.608,0.222c0.074,0.136,0.114,0.423,0.074,0.509
			c-0.037,0.088-0.123,0.371-0.109,0.483c0.011,0.112,0.048,0.384,0.048,0.384L75.69,79.6c-0.162,0.088-0.373,0.187-0.373,0.187
			s-0.048-0.187-0.187-0.31c-0.136-0.125-0.397-0.187-0.595-0.125c-0.134,0.042-0.942,0.509-1.24,0.693
			c-0.296,0.187-1.054,0.659-1.176,0.733c-0.125,0.075-0.235,0.259-0.608,0.21c-0.373-0.048-0.547-0.087-0.733-0.173
			c-0.187-0.085-0.569-0.36-0.67-0.435c-0.096-0.072-0.47-0.173-0.47-0.272S69.664,79.984,69.664,79.984"/>
		<path clip-path="url(#SVGID_2_)" fill-rule="evenodd" clip-rule="evenodd" fill="#FFFFFF" d="M71.61,82.563
			c0,0,1.067-0.705,1.525-0.979c0.457-0.272,1.574-0.917,2.008-1.152s0.856-0.547,1.078-0.584c0.224-0.037,0.779-0.024,1.066-0.024
			c0.284,0,0.483,0,0.507,0.149c0.024,0.147-0.024,0.272-0.038,0.397c-0.011,0.123,0,0.47,0,0.47l-2.144,1.686
			c-0.347,0.272-1.166,1.005-1.214,1.019c-0.05,0.011-0.323-0.211-0.658-0.336c-0.333-0.123-0.518-0.149-0.656-0.173
			c-0.136-0.026-0.347-0.123-0.558-0.224c-0.21-0.099-0.272-0.136-0.421-0.163c-0.147-0.024-0.459,0.088-0.459,0.088L71.61,82.563z"
			/>
		<path clip-path="url(#SVGID_2_)" fill-rule="evenodd" clip-rule="evenodd" fill="#FFFFFF" d="M74.2,84.422
			c0,0,0.534-0.482,0.907-0.805c0.371-0.32,1.51-1.24,1.811-1.488c0.296-0.246,1.054-0.83,1.164-0.915
			c0.111-0.088,0.234-0.101,0.373-0.101c0.136,0,0.47-0.099,0.619-0.099s0.408-0.011,0.435,0.187c0.024,0.2,0.125,0.584,0.112,0.731
			c-0.014,0.149,0,0.323,0.048,0.408c0.051,0.088,0.099,0.138,0.099,0.138s-0.123,0.163-0.333,0.36
			c-0.21,0.195-0.856,0.804-1.141,1.078c-0.286,0.272-0.867,0.832-1.078,1.054c-0.211,0.224-0.544,0.533-0.544,0.533
			s-0.088-0.323-0.274-0.483c-0.184-0.163-0.645-0.248-0.917-0.261c-0.272-0.011-0.619-0.274-0.757-0.309
			c-0.134-0.038-0.296,0.048-0.296,0.048S74.251,84.547,74.2,84.422"/>
		<path clip-path="url(#SVGID_2_)" fill-rule="evenodd" clip-rule="evenodd" fill="#FFFFFF" d="M76.904,86.009l1.462-1.461
			c0.285-0.286,1.24-1.177,1.464-1.402c0.221-0.222,0.408-0.446,0.656-0.556c0.248-0.114,0.546-0.261,0.68-0.21
			c0.138,0.048,0.237,0.234,0.301,0.432c0.062,0.2,0.246,0.472,0.593,0.584c0.347,0.11,0.557,0.147,0.72,0.136
			c0.163-0.013,0.248-0.026,0.248-0.026s-0.349,0.36-0.533,0.546c-0.185,0.187-0.731,0.718-1.056,1.016
			c-0.321,0.299-1.15,1.128-1.388,1.352c-0.234,0.222-0.57,0.507-0.57,0.507s-0.002-0.232-0.173-0.395
			c-0.235-0.226-0.531-0.187-0.803-0.173c-0.274,0.011-0.448-0.064-0.608-0.2c-0.162-0.136-0.287-0.274-0.373-0.285
			c-0.088-0.013-0.283,0.088-0.336,0.112C77.139,86.009,76.904,86.009,76.904,86.009"/>
		<path clip-path="url(#SVGID_2_)" fill-rule="evenodd" clip-rule="evenodd" fill="#FFFFFF" d="M79.83,87.324
			c0,0,0.806-0.757,1.203-1.152c0.397-0.397,1.163-1.142,1.499-1.475c0.333-0.335,0.942-0.906,0.942-0.906s0.125,0.187,0.408,0.21
			c0.288,0.024,0.56,0.077,0.771,0.088c0.211,0.013,0.571,0.013,0.68-0.101c0.112-0.11,0.261-0.147,0.261-0.147
			s-0.175,0.248-0.384,0.521c-0.213,0.272-0.806,1.104-1.141,1.613c-0.334,0.507-1.091,1.609-1.216,1.82
			c-0.124,0.21-0.409,0.659-0.494,0.781c-0.085,0.125-0.2,0.272-0.2,0.272s0.026-0.235-0.173-0.58
			c-0.198-0.349-0.31-0.359-0.483-0.412c-0.173-0.048-0.235,0.026-0.494-0.11c-0.263-0.136-0.397-0.397-0.56-0.435
			c-0.162-0.035-0.153-0.062-0.285,0C79.955,87.409,79.83,87.324,79.83,87.324"/>
		<path clip-path="url(#SVGID_2_)" fill-rule="evenodd" clip-rule="evenodd" fill="#FFFFFF" d="M85.804,84.435
			c0,0,0.099,0.163,0.197,0.286c0.099,0.123,0.237,0.261,0.211,0.36c-0.024,0.099-0.47,0.992-0.57,1.227
			c-0.097,0.235-0.422,1.289-0.494,1.6c-0.075,0.309-0.187,0.768-0.288,1.003c-0.099,0.235-0.195,0.36-0.208,0.458l-0.04,0.298
			c0,0-0.184,0.123-0.272,0.149l-0.272,0.073v-0.235c0-0.101-0.15-0.286-0.246-0.459c-0.101-0.173-0.187-0.371-0.077-0.707
			c0.112-0.333,0.248-0.731,0.373-1.005c0.123-0.272,0.211-0.568,0.408-1.027c0.2-0.459,0.36-0.819,0.595-1.166
			c0.237-0.347,0.347-0.533,0.448-0.669C85.668,84.483,85.804,84.435,85.804,84.435"/>
		<path clip-path="url(#SVGID_2_)" fill-rule="evenodd" clip-rule="evenodd" fill="#FFFFFF" d="M73.248,72.076
			c0,0,0.966-0.048,1.672-0.062c0.707-0.013,1.6,0,2.07,0.075c0.472,0.073,1.253,0.112,1.55,0.099s0.744-0.051,1.464-0.026
			c0.718,0.026,2.008,0.063,2.864,0.187c0.854,0.125,1.635,0.298,2.329,0.533c0.693,0.235,1.971,0.781,2.381,1.264
			c0.408,0.483,0.705,0.88,0.656,1.501c-0.048,0.619-0.296,1.275-0.496,1.661c-0.197,0.384-0.683,1.214-0.768,1.361
			c-0.085,0.151-0.832,0.845-1.128,1.179c-0.298,0.333-1.264,1.376-1.648,1.837c-0.384,0.457-0.681,0.826-0.808,0.953
			c-0.173,0.173-0.296,0.36-0.296,0.36h-0.125c0,0,0.151-0.197,0.114-0.408c-0.04-0.21-0.21-0.536-0.386-0.632
			c-0.173-0.101-0.222-0.125-0.347-0.09c-0.123,0.04-0.224,0.09-0.309,0.114c-0.088,0.024-0.161,0.037-0.161,0.037
			s0.432-0.482,0.632-0.693c0.197-0.213,0.744-0.709,0.928-0.893c0.187-0.187,0.36-0.298,0.435-0.298s0.395,0.112,0.605,0.024
			c0.211-0.085,0.597-0.483,0.622-0.755c0.024-0.272-0.112-0.546-0.296-0.681c-0.187-0.138-0.459-0.25-0.632-0.237
			c-0.176,0.014-0.411,0.051-0.584,0.149c-0.116,0.066-0.248,0.088-0.248,0.088s0.013-0.138,0.037-0.349
			c0.024-0.21-0.085-0.421-0.2-0.595c-0.11-0.173-0.333-0.31-0.606-0.347c-0.271-0.037-0.397,0.037-0.496-0.037
			c-0.101-0.075-0.024-0.235-0.112-0.435c-0.085-0.197-0.224-0.482-0.482-0.583c-0.261-0.097-0.483-0.158-0.608-0.158
			c-0.123,0-0.123-0.075-0.123-0.235c0-0.21-0.05-0.647-0.173-0.757c-0.125-0.114-0.41-0.325-0.583-0.36
			c-0.173-0.038-0.296-0.062-0.296-0.149s0.11-0.298,0.11-0.496s-0.038-0.496-0.272-0.656c-0.235-0.162-0.497-0.248-0.595-0.411
			c-0.101-0.16-0.272-0.333-0.32-0.347c-0.053-0.013-0.264-0.013-0.41,0c-0.149,0.013-0.509,0.088-0.769,0.125
			c-0.261,0.035-0.397,0.099-0.536,0.062c-0.134-0.038-0.421-0.149-0.619-0.149c-0.2,0-0.681,0.026-1.003,0.061
			c-0.323,0.038-0.656,0.075-0.917,0.062c-0.261-0.011-0.448-0.096-0.658-0.184c-0.211-0.088-0.272-0.123-0.396-0.198
			c-0.123-0.074-0.187-0.136-0.187-0.136s0.013-0.114,0.038-0.187C73.186,72.188,73.248,72.076,73.248,72.076"/>
		<path clip-path="url(#SVGID_2_)" fill-rule="evenodd" clip-rule="evenodd" fill="#FFFFFF" d="M73.88,74.356
			c0,0,0.698-0.294,1.179-0.445c0.507-0.162,1.411-0.384,1.819-0.47c0.411-0.09,0.709-0.21,0.867-0.162
			c0.162,0.048,0.36,0.048,0.474,0.037l0.222-0.024c0,0,0.099,0.121,0.038,0.16c-0.063,0.037-0.073,0.085-0.211,0.235
			c-0.136,0.149-0.248,0.31-0.408,0.373c-0.162,0.062-0.536,0.147-0.957,0.259c-0.422,0.112-1.091,0.323-1.326,0.386
			c-0.235,0.062-0.296,0.123-0.667,0.062c-0.373-0.062-0.485-0.099-0.645-0.138c-0.163-0.037-0.173,0-0.261,0.04
			c-0.088,0.037-0.136,0-0.136,0v-0.173C73.867,74.432,73.88,74.356,73.88,74.356"/>
		<path clip-path="url(#SVGID_2_)" fill-rule="evenodd" clip-rule="evenodd" fill="#FFFFFF" d="M75.093,76.13
			c0,0,0.669-0.36,1.227-0.595c0.56-0.237,1.688-0.646,1.923-0.707c0.235-0.063,0.494-0.136,0.632-0.063
			c0.134,0.077,0.248,0.162,0.211,0.274c-0.038,0.11-0.224,0.384-0.36,0.459c-0.136,0.073-0.928,0.507-1.229,0.632
			c-0.296,0.125-0.952,0.47-1.15,0.482c-0.2,0.013-0.41-0.037-0.608-0.099c-0.2-0.062-0.272-0.099-0.373-0.112
			c-0.099-0.013-0.31,0-0.31,0s0.026-0.062,0.026-0.123C75.083,76.216,75.093,76.13,75.093,76.13"/>
		<path clip-path="url(#SVGID_2_)" fill-rule="evenodd" clip-rule="evenodd" fill="#FFFFFF" d="M76.347,78.002
			c0,0,0.744-0.435,0.992-0.584c0.246-0.147,1.054-0.531,1.398-0.718c0.349-0.187,0.72-0.349,0.92-0.336
			c0.197,0.014,0.371,0.101,0.397,0.198c0.024,0.101,0,0.312-0.088,0.472c-0.087,0.163-0.143,0.294-0.421,0.558
			c-0.307,0.292-0.533,0.435-0.72,0.597c-0.184,0.16-0.47,0.395-0.619,0.421c-0.149,0.024-0.384-0.114-0.509-0.138
			c-0.123-0.024-0.496-0.173-0.582-0.222c-0.088-0.051-0.237-0.112-0.347-0.099c-0.114,0.011-0.435,0.086-0.435,0.086L76.347,78.002
			z"/>
		<path clip-path="url(#SVGID_2_)" fill-rule="evenodd" clip-rule="evenodd" fill="#FFFFFF" d="M78.317,79.613
			c0,0,0.446-0.408,0.758-0.656c0.307-0.248,0.878-0.632,1.15-0.832c0.272-0.198,0.483-0.347,0.571-0.36
			c0.088-0.011,0.175,0.024,0.237,0.088c0.062,0.062,0.235,0.062,0.283,0.21c0.053,0.147,0,0.272,0.053,0.358
			c0.048,0.09,0.171,0.063,0.195,0.138c0.026,0.073,0,0.224,0,0.224s-0.619,0.483-0.843,0.693c-0.224,0.211-0.582,0.558-0.67,0.606
			c-0.085,0.053-0.408-0.134-0.607-0.222c-0.198-0.085-0.657-0.224-0.83-0.235C78.44,79.613,78.317,79.613,78.317,79.613"/>
		<path clip-path="url(#SVGID_2_)" fill-rule="evenodd" clip-rule="evenodd" fill="#FFFFFF" d="M80.065,80.779
			c0,0,0.531-0.496,0.794-0.731c0.259-0.237,0.531-0.485,0.729-0.671c0.2-0.185,0.622-0.483,0.622-0.483s0.186,0.013,0.162,0.125
			c-0.026,0.112,0.11,0.136,0.197,0.136c0.086,0,0.296-0.05,0.36-0.024c0.061,0.024,0.16,0.062,0.16,0.198
			c0,0.136,0.011,0.259,0.063,0.272c0.048,0.013,0.171-0.013,0.185,0.04c0.013,0.048,0.026,0.134,0.026,0.134
			s-0.696,0.694-0.992,0.968c-0.298,0.272-0.757,0.755-0.819,0.832c-0.061,0.073-0.099,0.123-0.099,0.123s-0.101-0.272-0.349-0.496
			c-0.246-0.224-0.347-0.296-0.582-0.36C80.289,80.779,80.065,80.779,80.065,80.779"/>
		<path clip-path="url(#SVGID_2_)" fill-rule="evenodd" clip-rule="evenodd" fill="#FFFFFF" d="M84.129,82.515
			c0,0,0.411-0.509,0.771-0.893l0.867-0.931c0.149-0.16,0.248-0.309,0.248-0.309s-0.235,0.56-0.286,0.808
			c-0.05,0.246-0.112,0.718-0.112,0.928s-0.086,0.445-0.136,0.705c-0.051,0.263-0.051,0.498-0.051,0.498s-0.173,0.099-0.296,0.16
			c-0.125,0.063-0.274,0.161-0.274,0.161s-0.024-0.369-0.171-0.569c-0.149-0.198-0.21-0.25-0.335-0.322
			c-0.125-0.075-0.32-0.099-0.32-0.099L84.129,82.515z"/>
		<path clip-path="url(#SVGID_2_)" fill-rule="evenodd" clip-rule="evenodd" fill="#FFFFFF" d="M93.181,68.022
			c0,0,0.705-0.259,1.15-0.445c0.45-0.187,2.724-0.97,3.424-1.155c0.856-0.222,2.849-0.704,4.054-0.891
			c1.203-0.187,3.619-0.447,5.948-0.447c1.995,0,3.83,0.162,4.798,0.272c0.968,0.114,2.914,0.461,3.709,0.658
			c0.79,0.198,2.116,0.533,2.862,0.781c0.744,0.248,1.907,0.643,2.355,0.843c0.445,0.197,0.73,0.259,0.805,0.335
			c0.072,0.073,0.086,0.187,0.32,0.296c0.237,0.112,0.584,0.235,0.584,0.235s-0.123,0.112-0.31,0.187s-0.421,0.198-0.607,0.274
			c-0.185,0.073-0.371,0.185-0.371,0.185s0-0.261-0.099-0.347c-0.102-0.088-0.67-0.384-1.265-0.608
			c-0.551-0.206-1.402-0.509-2.221-0.744c-0.819-0.235-2.281-0.657-3.26-0.83s-2.032-0.36-2.987-0.458
			c-0.954-0.099-3.146-0.272-4.288-0.261c-1.142,0.013-3.31,0.136-4.401,0.272c-1.08,0.139-2.864,0.411-3.905,0.669
			c-1.042,0.264-2.432,0.608-2.976,0.795c-0.546,0.186-1.203,0.458-1.413,0.469c-0.211,0.013-0.656-0.048-0.806-0.048
			c-0.147,0-0.296,0-0.384,0.024c-0.086,0.024-0.323,0.149-0.421,0.101C93.378,68.132,93.181,68.022,93.181,68.022"/>
		<path clip-path="url(#SVGID_2_)" fill-rule="evenodd" clip-rule="evenodd" fill="#FFFFFF" d="M127.207,82.241
			c0,0-0.259-0.272-0.397-0.421c-0.134-0.149-0.197-0.83-0.359-1.203c-0.161-0.373-0.742-1.152-1.091-1.512
			c-0.345-0.358-0.981-1.008-2.303-1.859c-1.216-0.779-2.48-1.475-3.832-1.982c-1.352-0.511-2.293-0.894-3.918-1.253
			c-1.624-0.36-3.73-0.733-6.024-0.805c-2.294-0.075-4.273,0.11-5.614,0.285c-1.328,0.173-3.224,0.52-4.96,1.104
			c-1.734,0.582-2.168,0.792-2.713,1.054c-0.546,0.259-1.861,0.915-2.344,1.24c-0.482,0.32-1.251,0.854-1.723,1.152
			c-0.47,0.296-0.56,0.54-0.843,0.47c-0.408-0.099-0.522-0.47-0.522-0.47s0.349-0.421,0.685-0.757
			c0.334-0.334,1.126-1.003,1.623-1.414c0.498-0.408,1.463-1.238,1.624-1.387c0.162-0.151,0.595-0.669,0.595-0.669
			s0.136,0.296,0.386,0.222c0.248-0.072,0.643-0.371,0.88-0.742c0.235-0.374,0.644-1.24,0.544-1.96
			c-0.099-0.718-0.197-1.24-0.395-1.376c-0.2-0.136-0.536-0.371-0.781-0.395c-0.248-0.026-0.336,0.011-0.459-0.038
			c-0.125-0.05-0.298-0.199-0.298-0.199s0.595-0.222,0.854-0.333c0.264-0.112,1.427-0.534,2.208-0.744
			c0.781-0.211,1.611-0.422,2.603-0.619c0.992-0.2,2.454-0.435,3.62-0.546c1.165-0.112,2.678-0.224,3.571-0.21
			c0.891,0.011,2.961,0.125,3.804,0.221c0.845,0.101,2.48,0.312,3.461,0.536c0.977,0.222,2.813,0.667,3.619,0.953
			c0.806,0.288,1.771,0.584,1.872,0.68c0.1,0.101,0.211,0.213,0.358,0.274c0.148,0.062,0.299,0.163,0.299,0.163
			s-0.4,0.439-0.67,0.904c-0.795,1.354,0.153,3.064,1.416,4.001c1.635,1.214,4.62,3.066,5.138,5.834
			C127.237,81.084,127.207,82.241,127.207,82.241"/>
		<path clip-path="url(#SVGID_2_)" fill-rule="evenodd" clip-rule="evenodd" fill="#FFFFFF" d="M128.313,80.755
			c-0.102-0.959-0.679-1.932-1.115-2.568c-0.441-0.636-0.718-1.292-1.214-2.129c-0.496-0.838-1.878-1.661-2.768-2.289
			c-0.68-0.479-1.556-1.532-1.556-2.371c0-0.397-0.2-0.999-0.679-0.729c0.084-0.204,0.274-0.404,0.512-0.601
			c0.458-0.384,1.288-0.907,2.067-1.19c0.781-0.285,2.653-0.794,3.422-0.968c0.768-0.171,2.938-0.531,3.832-0.608
			c0.892-0.073,2.454-0.147,3.198-0.147c0.806,0,2.354,0.079,3.507,0.197c1.214,0.123,2.875,0.373,3.966,0.435
			c1.093,0.062,2.963,0.11,3.781,0.086c0.819-0.024,2.318-0.086,3.137-0.099c0.818-0.011,3.807-0.112,4.798-0.173
			c0.99-0.062,3.681-0.222,4.687-0.272c1.005-0.051,4.077-0.112,4.958-0.112c0.88,0,4.686,0.173,5.651,0.224
			c0.968,0.048,3.348,0.184,4.228,0.235c0.882,0.05,2.144,0.099,2.877,0.136c0.729,0.038,2.899-0.024,3.371-0.024
			c0.47,0,2.12-0.013,3.024-0.048c0.907-0.04,3.31-0.224,4.19-0.298c0.88-0.075,3.136-0.31,3.854-0.362
			c0.72-0.048,1.438-0.158,1.75-0.11c0.309,0.051,0.669,0.286,0.768,0.397c0.099,0.11,0.521,0.571,0.83,0.904
			c0.312,0.336,0.621,0.707,0.669,0.832c0.051,0.123,0.25,0.395,0.211,0.494c-0.037,0.101-0.075,0.288-0.187,0.349
			c-0.109,0.062-0.617,0.283-0.617,0.283s-0.025-0.235-0.199-0.31c-0.173-0.075-0.473-0.173-0.696-0.097
			c-0.222,0.072-0.941,0.382-1.362,0.568c-0.422,0.187-1.115,0.509-1.438,0.546c-0.32,0.035-1.585,0.086-2.428,0.097
			c-0.846,0.013-3.312,0.026-4.377,0.064c-1.066,0.037-4.672,0.062-5.43,0.074c-0.757,0.011-4.066,0.048-5.12,0.048
			s-4.004,0.062-4.958,0.051c-0.955-0.013-5.183,0.063-6.112,0.048c-0.929-0.013-3.571,0.015-4.276,0.026
			c-0.707,0.013-1.661,0.048-2.578,0.11c-0.918,0.063-2.208,0.199-2.577,0.223c-0.373,0.025-0.869-0.037-1.043-0.098
			c-0.173-0.062-0.187-0.088-0.298-0.099c-0.109-0.013-0.422-0.061-0.422-0.061l-0.072-0.163c0,0,0.408-0.075,0.742-0.147
			c0.336-0.077,0.619-0.226,1.216-0.349c0.595-0.123,2.094-0.408,2.84-0.533c0.742-0.123,4.103-0.718,5.07-0.843
			c0.965-0.124,3.48-0.409,4.36-0.47c0.883-0.062,3.387-0.261,4.267-0.31c0.879-0.05,2.862-0.138,3.358-0.125
			s2.193,0.048,2.862,0.085c0.669,0.04,1.029,0.04,1.029,0.04l0.125-0.435c0,0-0.706-0.038-1.304-0.075
			c-0.592-0.037-2.131-0.062-2.651-0.062c-0.52,0-2.405,0.011-3.123,0.048c-0.687,0.037-1.699-0.079-2.518-0.11
			c-0.992-0.037-3.235-0.013-4.152,0.062c-0.917,0.072-3.507,0.32-4.326,0.421c-0.818,0.099-3.63,0.507-4.921,0.744
			c-1.29,0.235-3.296,0.63-4.24,0.806c-0.941,0.173-2.144,0.421-3.222,0.533c-1.08,0.109-3.259,0.149-4.054,0.136
			c-0.795-0.013-3.137-0.063-4.315-0.05c-1.177,0.013-3.158,0.013-4.313,0.149c-1.152,0.136-2.134,0.36-2.729,0.56
			c-0.595,0.198-1.202,0.421-1.608,0.718c-0.41,0.296-0.597,0.619-0.584,0.731c0.013,0.112,0.048,0.184,0.048,0.184l0.31,0.101
			c0,0-0.296,0.235-0.469,0.384c-0.174,0.147-0.36,0.496-0.422,0.792c-0.062,0.299-0.162,1.016-0.173,1.315
			c-0.014,0.298-0.052,0.421,0.05,0.659c0.097,0.234,0.568,1.077,0.755,1.438c0.187,0.357,0.681,1.152,0.818,1.387
			c0.137,0.235,0.396,0.571,0.582,0.856c0.187,0.286,0.507,0.968,0.544,1.19c0.04,0.224,0.04,0.544,0.04,0.867v1.613
			c0,0.259-0.024,0.47-0.077,0.531c-0.048,0.062-0.197,0.187-0.211,0.325c-0.011,0.134-0.097,0.445-0.134,0.608
			c-0.037,0.158-0.162,0.494-0.162,0.494s-0.197-0.397-0.211-0.446c-0.011-0.048,0.086-0.373,0.051-0.843
			C129.191,83.766,128.474,82.269,128.313,80.755"/>
		<path clip-path="url(#SVGID_2_)" fill-rule="evenodd" clip-rule="evenodd" fill="#FFFFFF" d="M127.863,74.122
			c0,0,0.191-0.314,0.706-0.656c0.448-0.299,1.18-0.621,1.625-0.757s2.083-0.507,2.827-0.568c0.744-0.064,2.741-0.077,3.396-0.088
			c0.658-0.013,1.911,0.024,2.332,0.011c0.422-0.011,1.015,0,1.463,0c0.445,0,1.301-0.011,1.573-0.011s0.794-0.026,0.943,0.011
			c0.147,0.038,0.422,0.088,0.459,0.2c0.035,0.111,0.072,0.21,0,0.333c-0.076,0.123-0.063,0.285-0.063,0.333v0.114
			c0,0-0.088,0.048-0.176,0.11c-0.085,0.063-0.494,0.298-0.494,0.298s0-0.088-0.074-0.248c-0.072-0.16-0.31-0.299-0.483-0.336
			c-0.173-0.035-0.805-0.072-1.08-0.085c-0.271-0.011-0.928-0.024-1.189-0.051c-0.258-0.024-0.384-0.062-0.509-0.062
			c-0.123,0-0.222,0.014-0.32,0.088c-0.101,0.075-0.136,0.147-0.197,0.16c-0.062,0.011-0.187-0.013-0.237-0.013
			c-0.048,0-0.134,0.073,0.026,0.224c0.235,0.222,0.582,0.261,0.891,0.31c0.312,0.05,0.745,0.123,1.067,0.187
			c0.322,0.062,0.757,0.136,1.04,0.2c0.285,0.062,0.56,0.072,0.656,0.085c0.101,0.011,0.274,0.086,0.264,0.187
			c-0.014,0.097-0.04,0.187-0.077,0.272c-0.037,0.088-0.037,0.248-0.023,0.323c0.013,0.075-0.014,0.147-0.086,0.198
			c-0.077,0.05-0.385,0.16-0.461,0.2c-0.073,0.037-0.209,0.024-0.209,0.024s0.037-0.198,0-0.249c-0.039-0.05-0.149-0.16-0.384-0.235
			c-0.237-0.074-0.855-0.237-1.154-0.298c-0.297-0.062-0.806-0.197-1.14-0.259c-0.336-0.062-0.56-0.163-0.656-0.077
			c-0.101,0.087-0.125,0.162-0.187,0.173c-0.062,0.013-0.162-0.035-0.224,0.024c-0.063,0.063-0.149,0.138-0.088,0.21
			c0.063,0.077,0.288,0.213,0.509,0.288c0.225,0.075,0.956,0.286,1.278,0.384c0.32,0.099,0.88,0.323,1.176,0.384
			c0.299,0.062,0.608,0.161,0.672,0.323c0.062,0.163,0.048,0.32-0.063,0.421c-0.112,0.099-0.137,0.235-0.163,0.296
			c-0.023,0.064-0.062,0.224-0.062,0.224s-0.285,0.184-0.344,0.21l-0.274,0.112c0,0,0.099-0.125,0.011-0.335
			c-0.086-0.211-0.333-0.333-0.656-0.496c-0.32-0.16-0.979-0.395-1.228-0.483c-0.248-0.088-1.051-0.408-1.237-0.472
			c-0.187-0.061-0.397-0.134-0.57-0.099c-0.176,0.038-0.264,0.138-0.211,0.224c0.048,0.085,0.185,0.125,0.185,0.224
			c0,0.099,0,0.185-0.051,0.211c-0.048,0.024-0.062,0.035-0.062,0.035s0.422,0.287,0.709,0.421c0.283,0.138,0.989,0.511,1.177,0.608
			c0.187,0.101,0.768,0.373,0.904,0.472c0.136,0.098,0.421,0.261,0.371,0.397c-0.049,0.136-0.098,0.36-0.123,0.432
			c-0.026,0.077,0.025,0.138-0.099,0.187c-0.126,0.049-0.584,0.174-0.584,0.174s-0.011-0.112-0.037-0.174
			c-0.024-0.062-0.11-0.173-0.358-0.32c-0.248-0.149-1.128-0.671-1.352-0.781c-0.224-0.114-0.781-0.411-0.904-0.522
			c-0.125-0.109-0.435-0.371-0.547-0.435c-0.109-0.061-0.336-0.171-0.482-0.024c-0.119,0.121-0.174,0.359-0.102,0.445
			c0.077,0.088,0.24,0.237,0.24,0.237s-0.15,0.112-0.126,0.173c0.024,0.063,0.421,0.347,0.718,0.558
			c0.299,0.21,1.077,0.746,1.277,0.88c0.198,0.136,0.619,0.397,0.758,0.522c0.136,0.123,0.173,0.235,0.072,0.344
			c-0.1,0.114-0.134,0.224-0.134,0.224s0.011,0.149,0.011,0.21c0,0.064-0.024,0.136-0.024,0.136s-0.063,0.062-0.227,0.088
			c-0.157,0.024-0.393,0.037-0.393,0.037s-0.053-0.074-0.037-0.187c0.011-0.112-0.095-0.187-0.264-0.333
			c-0.21-0.187-0.806-0.597-1.102-0.808c-0.296-0.211-0.88-0.595-1.016-0.742c-0.137-0.149-0.387-0.509-0.521-0.622
			c-0.139-0.112-0.322-0.235-0.483-0.173c-0.162,0.062-0.335,0.187-0.359,0.336c-0.024,0.147-0.051,0.259,0.048,0.334
			c0.099,0.074,0.235,0.162,0.235,0.21s-0.161,0.088-0.123,0.173c0.037,0.086,0.558,0.472,0.792,0.669
			c0.235,0.197,1.043,0.832,1.24,1.005c0.199,0.173,0.571,0.52,0.621,0.669c0.049,0.149,0.024,0.457-0.037,0.544
			c-0.062,0.088-0.234,0.123-0.397,0.149c-0.162,0.026-0.373,0.05-0.373,0.05s0.077-0.187,0.037-0.261
			c-0.037-0.074-0.382-0.298-0.645-0.509c-0.26-0.21-1.039-0.867-1.337-1.115c-0.299-0.246-0.595-0.546-0.693-0.757
			c-0.102-0.21-0.274-0.494-0.522-0.494s-0.496,0.037-0.646,0.235c-0.149,0.197-0.149,0.411-0.035,0.496
			c0.112,0.088,0.307,0.211,0.246,0.246l-0.223,0.138c0,0,0.235,0.141,0.534,0.397c0.347,0.296,0.941,0.781,1.165,0.992
			c0.222,0.21,0.681,0.645,0.769,0.718c0.085,0.074,0.211,0.296,0.197,0.458c-0.011,0.163-0.035,0.374-0.088,0.459
			c-0.048,0.087,0.016,0.149-0.109,0.21c-0.125,0.063-0.36,0.063-0.445,0.063c-0.089,0-0.163-0.026-0.163-0.026
			s0.211-0.161,0.2-0.237c-0.013-0.072-0.272-0.333-0.448-0.483c-0.173-0.149-1.016-0.867-1.328-1.152
			c-0.307-0.285-0.754-0.73-0.854-1.003c-0.099-0.272-0.099-0.621-0.261-0.843c-0.16-0.224-0.518-0.496-0.681-0.733
			c-0.162-0.234-0.693-1.053-0.941-1.56c-0.25-0.507-0.509-0.894-0.57-1.326c-0.062-0.435-0.014-0.693-0.089-0.832
			c-0.074-0.136-0.247-0.347-0.333-0.347C128.148,74.159,127.863,74.122,127.863,74.122"/>
		<path clip-path="url(#SVGID_2_)" fill-rule="evenodd" clip-rule="evenodd" fill="#FFFFFF" d="M129.86,80.296
			c0,0,0.681,0.781,0.854,0.929c0.176,0.149,0.536,0.371,0.646,0.434c0.112,0.062,0.533,0.483,0.646,0.619s0.384,0.397,0.371,0.558
			c-0.011,0.162-0.137,0.597-0.235,0.693c-0.101,0.101-0.248,0.224-0.373,0.239c-0.121,0.009-0.344-0.029-0.344-0.029
			s0.271-0.072,0.271-0.184s-0.049-0.21-0.248-0.408c-0.197-0.198-0.273-0.274-0.484-0.558c-0.211-0.285-0.382-0.584-0.382-0.584
			l-0.149,0.048l-0.149,0.013c0,0-0.051-0.472-0.112-0.73c-0.063-0.259-0.148-0.487-0.184-0.608
			C129.933,80.568,129.86,80.296,129.86,80.296"/>
		<path clip-path="url(#SVGID_2_)" fill-rule="evenodd" clip-rule="evenodd" fill="#FFFFFF" d="M129.786,85.923
			c0,0,0.173-0.41,0.197-0.57s0.112-0.448,0.125-0.521l0.037-0.198c0,0,0.321,0.422,0.422,0.542c0.099,0.125,0.435,0.386,0.558,0.56
			s0.683,0.891,0.917,1.216c0.235,0.321,0.904,1.214,1.027,1.387c0.125,0.173,0.498,0.707,0.472,0.856
			c-0.023,0.147-0.05,0.333-0.122,0.483c-0.075,0.149-0.149,0.31-0.225,0.323c-0.074,0.011-0.435,0.024-0.435,0.024
			s0.099-0.136,0.099-0.224c0-0.086-0.16-0.345-0.382-0.47c-0.224-0.123-0.658-0.36-0.757-0.472
			c-0.099-0.111-0.403-0.917-0.544-1.203c-0.174-0.344-0.473-0.915-0.659-1.176s-0.31-0.533-0.384-0.558
			c-0.074-0.024-0.037,0.037-0.149,0.048C129.871,85.985,129.786,85.923,129.786,85.923"/>
		<path clip-path="url(#SVGID_2_)" fill-rule="evenodd" clip-rule="evenodd" fill="#FFFFFF" d="M130.356,84.064
			c0,0,0.456,0.16,0.718,0.16c0.261,0,0.461,0.013,0.522-0.011c0.062-0.026,0.174-0.224,0.433-0.288
			c0.261-0.062,0.507-0.024,0.757,0.162c0.248,0.187,1.488,1.427,1.673,1.6c0.187,0.174,0.992,0.953,1.24,1.188
			c0.247,0.237,0.645,0.632,0.72,0.794c0.072,0.162,0.109,0.298,0.048,0.384c-0.062,0.085-0.148,0.149-0.187,0.261
			c-0.035,0.112-0.062,0.36-0.125,0.433c-0.062,0.076-0.146,0.162-0.32,0.162s-0.347-0.024-0.347-0.024s0.197-0.112,0.197-0.235
			c0-0.125-0.062-0.287-0.234-0.386c-0.174-0.099-0.357-0.197-0.622-0.335c-0.258-0.134-0.469-0.32-0.655-0.531
			s-0.619-0.795-0.83-1.029c-0.211-0.235-0.72-0.891-0.955-1.115c-0.234-0.222-0.472-0.433-0.768-0.496
			c-0.297-0.062-0.373-0.075-0.435-0.075s-0.187,0.2-0.163,0.249c0.026,0.048-0.12-0.075-0.245-0.235
			C130.653,84.534,130.356,84.064,130.356,84.064"/>
		<path clip-path="url(#SVGID_2_)" fill-rule="evenodd" clip-rule="evenodd" fill="#FFFFFF" d="M132.712,83.494
			c0,0,0.035-0.085,0.048-0.21c0.014-0.125,0.037-0.286,0.102-0.272c0.062,0.011,0.37,0.158,0.581,0.158s0.237-0.035,0.237-0.035
			s0.109-0.187,0.369-0.237c0.263-0.048,0.349-0.06,0.434-0.06c0.089,0,0.211-0.026,0.485,0.086c0.272,0.112,1.029,0.73,1.313,0.955
			c0.286,0.224,1.44,1.128,1.761,1.387c0.322,0.261,0.695,0.509,0.794,0.608c0.099,0.101,0.422,0.408,0.347,0.546
			c-0.074,0.134-0.234,0.296-0.273,0.445c-0.035,0.149-0.049,0.36-0.073,0.446c-0.023,0.088-0.199,0.125-0.285,0.112
			c-0.088-0.011-0.336-0.024-0.336-0.024s0.139-0.099,0.176-0.198c0.035-0.101-0.037-0.213-0.176-0.312
			c-0.136-0.099-0.357-0.248-0.619-0.371c-0.261-0.123-0.656-0.458-0.979-0.72c-0.322-0.259-1.165-1.041-1.352-1.214
			c-0.188-0.175-0.769-0.669-0.918-0.731c-0.149-0.063-0.581-0.138-0.744-0.173c-0.16-0.037-0.396-0.09-0.396-0.09
			s-0.107,0.162-0.159,0.162c-0.101,0-0.087-0.011-0.087-0.011s0.011,0-0.074-0.075C132.797,83.59,132.712,83.494,132.712,83.494"/>
		<path clip-path="url(#SVGID_2_)" fill-rule="evenodd" clip-rule="evenodd" fill="#FFFFFF" d="M134.781,82.241l0.014-0.222
			c0,0,0.16-0.061,0.371-0.061c0.21,0,0.41,0.011,0.645-0.077c0.235-0.085,0.235-0.061,0.397-0.16
			c0.158-0.099,0.234-0.123,0.397-0.224c0.157-0.099,0.123-0.235,0.222-0.248c0.099-0.011,0.397-0.048,0.482,0
			c0.086,0.05,0.718,0.56,1.091,0.781c0.373,0.224,1.499,0.917,1.921,1.179c0.421,0.261,1.053,0.606,1.264,0.792
			s0.35,0.287,0.336,0.461c-0.011,0.171-0.149,0.296-0.222,0.432c-0.077,0.136-0.062,0.261-0.114,0.371
			c-0.048,0.112-0.085,0.224-0.085,0.224l-0.521,0.112c0,0,0.137-0.125,0.112-0.259c-0.024-0.138-0.112-0.274-0.336-0.397
			c-0.225-0.125-0.521-0.138-0.769-0.224c-0.246-0.088-0.683-0.384-0.941-0.584c-0.262-0.197-0.918-0.705-1.229-0.915
			c-0.307-0.211-0.755-0.571-0.977-0.672c-0.224-0.099-0.632-0.184-0.869-0.197c-0.236-0.013-0.52,0.013-0.568,0
			c-0.051-0.013-0.125,0.261-0.224,0.173c-0.102-0.086-0.139-0.099-0.261-0.173C134.795,82.278,134.781,82.241,134.781,82.241"/>
		<path clip-path="url(#SVGID_2_)" fill-rule="evenodd" clip-rule="evenodd" fill="#FFFFFF" d="M137.894,80.531
			c0,0,0.333-0.024,0.408-0.173c0.072-0.149,0.049-0.472,0.072-0.621c0.026-0.149,0.014-0.235,0.077-0.248
			c0.062-0.011,0.224,0.099,0.382,0.114c0.162,0.011,0.362,0,0.621,0.134c0.262,0.138,1.376,0.72,1.96,0.968
			c0.582,0.248,1.747,0.856,2.107,0.992c0.357,0.136,0.952,0.357,1.042,0.52c0.086,0.163,0.134,0.336,0.035,0.496
			s-0.174,0.248-0.136,0.36c0.037,0.112,0.136,0.246,0.049,0.31c-0.087,0.062-0.297,0.074-0.434,0.123
			c-0.136,0.05-0.285,0.05-0.285,0.05s0.126-0.085,0.099-0.224c-0.023-0.134-0.146-0.32-0.408-0.384
			c-0.261-0.062-0.558-0.075-0.794-0.136c-0.235-0.061-0.445-0.16-0.806-0.371c-0.36-0.211-1.091-0.646-1.475-0.843
			c-0.384-0.199-1.092-0.57-1.339-0.73c-0.248-0.163-0.334-0.237-0.459-0.274c-0.123-0.037-0.285-0.048-0.371-0.024
			C138.152,80.592,137.894,80.531,137.894,80.531"/>
		<path clip-path="url(#SVGID_2_)" fill-rule="evenodd" clip-rule="evenodd" fill="#FFFFFF" d="M139.977,78.522
			c0,0,0.062-0.198,0.097-0.421c0.039-0.224-0.011-0.336,0.063-0.36c0.075-0.024,0.2,0.037,0.357,0.024
			c0.163-0.013,0.325-0.024,0.435,0.04c0.112,0.062,0.658,0.272,0.931,0.369c0.272,0.101,1.686,0.607,2.158,0.783
			c0.469,0.173,1.325,0.483,1.696,0.619c0.373,0.138,0.621,0.173,0.757,0.296c0.137,0.125,0.261,0.299,0.248,0.547
			c-0.011,0.248,0.037,0.322-0.062,0.445c-0.101,0.125-0.125,0.149-0.136,0.224c-0.013,0.072,0.086,0.21,0.024,0.285
			s-0.163,0.087-0.385,0.123c-0.224,0.037-0.333,0.062-0.333,0.062s0.185-0.198,0.011-0.358c-0.173-0.16-0.234-0.261-0.632-0.408
			c-0.397-0.149-1.03-0.41-1.315-0.522c-0.285-0.11-1.512-0.669-1.858-0.792c-0.347-0.125-1.054-0.397-1.302-0.533
			c-0.248-0.136-0.347-0.187-0.421-0.285C140.235,78.56,139.977,78.522,139.977,78.522"/>
		<path clip-path="url(#SVGID_2_)" fill-rule="evenodd" clip-rule="evenodd" fill="#FFFFFF" d="M141.513,76.464
			c0,0-0.024-0.606,0.062-0.632c0.088-0.025,0.336,0.05,0.445,0.037c0.112-0.011,0.422-0.011,0.709,0.063
			c0.283,0.075,1.859,0.472,2.479,0.606c0.618,0.136,1.448,0.335,1.971,0.421c0.521,0.088,0.867,0.088,0.979,0.275
			c0.112,0.187,0.1,0.582,0.088,0.794c-0.013,0.209,0.049,0.657,0.012,0.718c-0.035,0.062-0.297,0.174-0.483,0.249
			c-0.185,0.072-0.261,0.11-0.261,0.11s0.088-0.224-0.038-0.382c-0.122-0.162-0.607-0.36-0.928-0.448
			c-0.323-0.088-1.252-0.395-1.761-0.544c-0.509-0.149-1.352-0.435-1.635-0.509c-0.288-0.074-0.621-0.16-0.819-0.285
			c-0.199-0.123-0.41-0.347-0.496-0.397C141.748,76.49,141.513,76.464,141.513,76.464"/>
		<path clip-path="url(#SVGID_2_)" fill-rule="evenodd" clip-rule="evenodd" fill="#FFFFFF" d="M142.652,74.221l-0.012-0.235
			c0,0,0.283-0.272,0.36-0.272c0.072,0,0.272-0.04,0.581-0.013c0.31,0.026,1.636,0.184,2.158,0.272
			c0.521,0.085,1.909,0.272,2.305,0.323c0.399,0.05,1.007,0.011,1.202,0.063c0.336,0.085,0.285,0.384,0.312,0.593
			c0.024,0.212,0.063,0.533,0.035,0.619c-0.024,0.087-0.21,0.263-0.408,0.41c-0.199,0.149-0.396,0.261-0.507,0.323
			c-0.114,0.061,0.035-0.259-0.088-0.384c-0.076-0.077-0.271-0.173-0.583-0.235c-0.31-0.061-0.806-0.176-1.104-0.237
			c-0.296-0.062-1.438-0.284-1.896-0.371c-0.456-0.085-0.979-0.138-1.288-0.286c-0.31-0.149-0.507-0.397-0.681-0.472
			C142.862,74.245,142.652,74.221,142.652,74.221"/>
		<path clip-path="url(#SVGID_2_)" fill-rule="evenodd" clip-rule="evenodd" fill="#FFFFFF" d="M143.559,72.585
			c0,0-0.086-0.248-0.086-0.312c0-0.048,0.024-0.123,0.024-0.123s0.507,0.024,0.854-0.037c0.347-0.063,1.376-0.222,2.032-0.323
			c0.656-0.099,1.896-0.32,2.307-0.397c0.409-0.072,0.907-0.16,1.078-0.085c0.174,0.075,0.299,0.248,0.322,0.421
			c0.026,0.173,0.163,0.558,0.211,0.718c0.051,0.163,0.176,0.411,0.149,0.485c-0.024,0.075-0.237,0.334-0.384,0.472
			c-0.149,0.136-0.51,0.483-0.51,0.483s0.051-0.286-0.062-0.459c-0.109-0.176-0.336-0.386-0.619-0.472
			c-0.285-0.088-1.45-0.173-1.861-0.16c-0.408,0.011-1.41,0.024-1.883,0.011c-0.472-0.011-0.904-0.097-1.104-0.187
			c-0.198-0.085-0.141-0.059-0.222-0.085C143.657,72.487,143.559,72.585,143.559,72.585"/>
		<path clip-path="url(#SVGID_2_)" fill-rule="evenodd" clip-rule="evenodd" fill="#FFFFFF" d="M150.253,73.924
			c0,0,0.482-0.522,0.607-0.669c0.123-0.149,0.246-0.336,0.332-0.36c0.09-0.024,0.407,0.018,0.607-0.05
			c0.264-0.088,1.936-0.073,2.382-0.088c0.447-0.011,3.531-0.011,4.2-0.011c0.672,0,5.033-0.061,5.755-0.05
			c0.718,0.013,3.878,0,4.684-0.024c0.808-0.024,4.699,0,5.63-0.037c0.929-0.035,5.774-0.062,6.582-0.088
			c0.806-0.024,4.548-0.085,5.23-0.099c0.681-0.011,2.032-0.035,2.454-0.059c0.422-0.029,0.806-0.077,0.968-0.053
			c0.16,0.024,0.187,0.187,0.234,0.288c0.049,0.097,0.285,0.854,0.397,1.187c0.11,0.336,0.197,0.782,0.211,0.992
			c0.011,0.211,0.086,0.472,0.037,0.522c-0.051,0.05-0.496,0.309-0.583,0.333c-0.086,0.024-0.198,0.048-0.198,0.048
			s0.088-0.147,0.024-0.272c-0.062-0.121-0.322-0.308-0.483-0.332c-0.162-0.029-0.396,0.024-0.717,0.147
			c-0.325,0.125-1.268,0.395-1.801,0.509c-0.53,0.11-0.766,0.187-1.672,0.21c-0.904,0.024-3,0.011-3.892-0.024
			c-0.893-0.04-3.547-0.114-4.798-0.176c-1.253-0.063-4.35-0.221-5.432-0.274c-1.078-0.048-4.401-0.246-5.191-0.296
			c-0.794-0.048-4.673-0.283-5.48-0.347c-0.806-0.062-4.859-0.31-5.516-0.371c-0.658-0.063-2.069-0.163-2.504-0.187
			c-0.435-0.024-1.04-0.075-1.264-0.136c-0.225-0.062-0.225-0.149-0.397-0.187C150.487,73.935,150.253,73.924,150.253,73.924"/>
		<path clip-path="url(#SVGID_2_)" fill-rule="evenodd" clip-rule="evenodd" fill="#FFFFFF" d="M148.603,77.01
			c0,0,0.572-0.349,0.818-0.546c0.248-0.198,0.533-0.382,0.597-0.558c0.062-0.173,0.062-0.272,0.062-0.272s1.747,0.051,2.145,0.088
			c0.395,0.036,2.317,0.16,2.827,0.198c0.507,0.038,3.593,0.259,4.561,0.32c0.968,0.064,5.305,0.36,6.172,0.411
			c0.869,0.05,4.328,0.261,5.182,0.312c0.856,0.048,4.166,0.21,5.246,0.259c1.077,0.049,4.846,0.149,5.491,0.163
			c0.644,0.011,2.75,0.035,3.123,0.011c0.371-0.024,0.829-0.062,1.077-0.062s0.532,0.024,0.545,0.285
			c0.015,0.259-0.037,1.35-0.147,1.71c-0.112,0.36-0.359,0.955-0.546,1.115c-0.187,0.163-0.47,0.312-0.47,0.312
			s0.109-0.235,0.037-0.373c-0.075-0.136-0.336-0.336-0.52-0.323c-0.188,0.011-1.291,0.286-1.836,0.347
			c-0.546,0.062-1.45,0.162-2.133,0.149c-0.681-0.011-2.257-0.074-3.051-0.136c-0.79-0.062-2.95-0.224-4.027-0.333
			c-1.078-0.112-4.017-0.437-5.38-0.595c-1.365-0.162-4.117-0.509-5.081-0.632c-0.968-0.125-4.117-0.546-4.96-0.669
			c-0.843-0.125-3.1-0.421-3.718-0.522c-0.621-0.099-2.568-0.384-3.124-0.459c-0.56-0.072-0.906-0.149-1.154-0.149
			s-0.434-0.024-0.755,0c-0.322,0.024-0.271,0.024-0.421,0.024c-0.139,0-0.188-0.011-0.336-0.024
			C148.677,77.047,148.603,77.01,148.603,77.01"/>
		<path clip-path="url(#SVGID_2_)" fill-rule="evenodd" clip-rule="evenodd" fill="#FFFFFF" d="M147.116,79.811
			c0,0,0.47-0.149,0.73-0.272c0.262-0.125,0.683-0.235,0.806-0.445c0.125-0.211,0.149-0.261,0.137-0.397
			c-0.012-0.136-0.049-0.261-0.049-0.261s0.818,0.051,1.139,0.075c0.323,0.026,1.873,0.261,2.355,0.323
			c0.485,0.063,2.852,0.433,3.496,0.522c0.646,0.085,5.022,0.693,5.876,0.805c0.856,0.11,4.601,0.595,5.294,0.669
			c0.693,0.072,4.907,0.546,5.565,0.606c0.656,0.061,3.025,0.285,3.841,0.347c0.819,0.063,2.568,0.163,3.323,0.173
			c0.758,0.013,1.302-0.011,1.499,0.051c0.2,0.063,0.35,0.197,0.313,0.336c-0.038,0.136-0.198,1.325-0.272,1.56
			c-0.075,0.237-0.198,0.696-0.313,0.856c-0.109,0.161-0.197,0.347-0.384,0.448c-0.187,0.097-0.259,0.123-0.259,0.123
			s0.136-0.261,0.062-0.41c-0.075-0.147-0.347-0.408-0.509-0.421c-0.161-0.014-0.781,0.101-1.19,0.162
			c-0.408,0.062-1.162,0.149-1.675,0.187c-0.506,0.035-1.149,0.085-1.475,0.073c-0.32-0.014-0.928-0.073-1.462-0.147
			c-0.533-0.077-2.49-0.347-3.187-0.461c-0.693-0.109-2.974-0.507-3.927-0.68c-0.956-0.174-4.341-0.856-4.997-1.005
			c-0.656-0.147-3.174-0.693-3.806-0.843c-0.632-0.147-3.385-0.792-4.017-0.953c-0.632-0.162-2.391-0.57-2.864-0.683
			c-0.47-0.112-1.436-0.347-1.696-0.397c-0.262-0.048-0.558-0.123-0.782-0.063c-0.224,0.063-0.682,0.199-0.829,0.25
			c-0.149,0.05-0.174,0.075-0.397,0.037C147.241,79.936,147.116,79.811,147.116,79.811"/>
		<path clip-path="url(#SVGID_2_)" fill-rule="evenodd" clip-rule="evenodd" fill="#FFFFFF" d="M144.982,82.203
			c0,0,0.459-0.024,0.67-0.072c0.21-0.05,0.744-0.163,0.98-0.235c0.235-0.077,0.321-0.114,0.348-0.237
			c0.023-0.123-0.026-0.459,0.013-0.595c0.035-0.136,0.097-0.299,0.097-0.299s0.51,0.112,0.72,0.125
			c0.211,0.013,0.931,0.163,1.227,0.235c0.299,0.075,3.694,0.928,4.228,1.067c0.533,0.136,4.414,1.078,5.081,1.216
			c0.672,0.134,3.83,0.83,4.539,0.977c0.707,0.149,5.403,1.016,6.185,1.142c0.782,0.123,3.457,0.544,4.092,0.607
			c0.632,0.062,1.549,0.16,1.736,0.211c0.186,0.05,0.357,0.123,0.32,0.347c-0.049,0.31-0.311,0.931-0.459,1.227
			c-0.147,0.296-0.384,0.832-0.644,1.13c-0.261,0.296-0.435,0.531-0.607,0.643c-0.174,0.112-0.235,0.147-0.235,0.147
			s0.149-0.222,0.112-0.371c-0.039-0.147-0.262-0.347-0.485-0.384c-0.224-0.035-0.706-0.011-1.189-0.011
			c-0.48,0-1.896-0.063-3.137-0.25c-1.237-0.185-3.136-0.494-4.411-0.792c-1.277-0.299-3.102-0.731-4.403-1.104
			c-1.299-0.371-3.443-0.979-4.798-1.435c-1.349-0.461-3.083-1.029-3.841-1.304c-0.757-0.272-2.976-1.054-3.322-1.19
			s-0.582-0.187-0.843-0.21c-0.26-0.024-0.582,0.037-0.856,0c-0.272-0.037-0.607-0.125-0.755-0.174
			c-0.149-0.048-0.259-0.085-0.323-0.199C144.959,82.302,144.982,82.203,144.982,82.203"/>
		<path clip-path="url(#SVGID_2_)" fill-rule="evenodd" clip-rule="evenodd" fill="#FFFFFF" d="M142.404,84.385
			c0,0,0.831-0.197,1.253-0.36c0.355-0.134,0.819-0.333,1.216-0.296c0.395,0.037,1.251,0.323,1.734,0.507
			c0.482,0.186,2.206,0.794,2.666,0.968c0.459,0.175,4.398,1.501,5.031,1.699c0.632,0.198,4.056,1.216,4.773,1.414
			c0.718,0.199,4.017,1.042,4.798,1.201c0.778,0.162,2.067,0.397,2.467,0.474c0.396,0.073,0.768,0.171,0.803,0.358
			c0.038,0.187,0.014,0.485-0.061,0.632c-0.072,0.149-0.198,0.632-0.31,0.931c-0.112,0.296-0.262,0.681-0.419,0.856
			c-0.163,0.173-0.522,0.248-0.522,0.248s0.186-0.125,0.162-0.312c-0.026-0.185-0.088-0.272-0.237-0.371
			c-0.149-0.101-0.234-0.186-0.445-0.197c-0.211-0.013-0.758,0.048-1.179,0.072c-0.422,0.024-1.872,0.024-2.44,0.024
			c-0.571,0-1.142,0.037-1.563-0.011c-0.422-0.05-0.942-0.138-1.599-0.322c-0.658-0.185-2.28-0.782-3.002-1.065
			c-0.718-0.288-2.862-1.24-3.433-1.499c-0.571-0.263-2.702-1.317-3.409-1.674c-0.704-0.36-1.709-0.858-2.256-1.155
			c-0.544-0.296-1.723-0.941-2.032-1.091c-0.31-0.149-0.646-0.259-0.906-0.31c-0.26-0.05-0.633-0.197-0.742-0.248
			c-0.112-0.05-0.384-0.123-0.384-0.123L142.404,84.385z"/>
		<path clip-path="url(#SVGID_2_)" fill-rule="evenodd" clip-rule="evenodd" fill="#FFFFFF" d="M139.665,86.257
			c0,0,0.88-0.197,1.104-0.283c0.222-0.087,0.707-0.199,0.894-0.162c0.185,0.037,0.83,0.347,1.214,0.558
			c0.384,0.213,2.083,1.117,2.629,1.4c0.545,0.287,2.788,1.438,3.297,1.685c0.51,0.248,2.157,1.067,2.75,1.328
			c0.597,0.261,2.654,1.176,3.237,1.411c0.538,0.22,1.4,0.536,1.896,0.709c0.496,0.171,1.128,0.358,1.424,0.446
			c0.3,0.085,0.819,0.224,0.856,0.357c0.038,0.139,0.038,0.336-0.062,0.546c-0.099,0.211-0.333,0.867-0.447,1.078
			c-0.11,0.21-0.296,0.621-0.457,0.77c-0.162,0.147-0.237,0.224-0.336,0.248s-0.109,0.011-0.109,0.011s0.185-0.222,0.185-0.31
			c0-0.085-0.112-0.384-0.262-0.483c-0.146-0.099-0.347-0.2-0.507-0.2c-0.162,0-0.669,0-1.151-0.048
			c-0.485-0.048-1.278-0.149-1.859-0.272c-0.584-0.125-0.981-0.187-1.464-0.397c-0.483-0.21-1.55-0.768-2.107-1.091
			c-0.56-0.323-2.331-1.413-2.889-1.787c-0.528-0.351-3.073-2.168-3.459-2.44c-0.384-0.274-1.302-0.942-1.672-1.227
			c-0.373-0.285-0.904-0.709-1.115-0.805c-0.211-0.099-0.832-0.325-1.045-0.411c-0.208-0.085-0.445-0.16-0.507-0.296
			C139.641,86.457,139.665,86.257,139.665,86.257"/>
		<path clip-path="url(#SVGID_2_)" fill-rule="evenodd" clip-rule="evenodd" fill="#FFFFFF" d="M136.963,87.895
			c0,0,0.483,0.024,0.693-0.024c0.211-0.05,0.656-0.175,0.795-0.175c0.136,0,0.396-0.048,0.643,0.061
			c0.248,0.114,0.881,0.474,1.205,0.733c0.32,0.261,1.673,1.301,2.094,1.611c0.422,0.31,2.454,1.75,2.862,2.032
			c0.411,0.286,2.257,1.512,2.753,1.811c0.498,0.298,1.413,0.856,1.858,1.115c0.448,0.261,0.944,0.509,1.08,0.646
			c0.136,0.138,0.31,0.272,0.173,0.583c-0.138,0.308-0.531,0.942-0.632,1.091c-0.099,0.149-0.373,0.421-0.507,0.518
			c-0.139,0.101-0.2,0.125-0.2,0.125s0.211-0.235,0.172-0.397c-0.035-0.16-0.135-0.395-0.382-0.531
			c-0.248-0.136-0.744-0.187-1.115-0.274c-0.371-0.085-1.749-0.421-2.28-0.568c-0.536-0.149-0.981-0.274-1.314-0.522
			c-0.336-0.248-1.214-1.064-1.636-1.451c-0.421-0.382-1.317-1.227-1.823-1.686c-0.508-0.458-1.55-1.438-1.921-1.795
			c-0.373-0.36-1.39-1.253-1.565-1.451c-0.171-0.2-0.592-0.595-0.717-0.72c-0.126-0.123-0.222-0.112-0.297-0.237
			c-0.074-0.121-0.037-0.308-0.013-0.358C136.915,87.98,136.963,87.895,136.963,87.895"/>
		<path clip-path="url(#SVGID_2_)" fill-rule="evenodd" clip-rule="evenodd" fill="#FFFFFF" d="M133.851,89.964l0.112-0.373
			C134,89.468,134,89.394,134,89.394s0.435,0.024,0.781-0.024c0.348-0.05,0.533-0.136,0.83-0.112
			c0.298,0.026,0.435,0.088,0.583,0.384c0.149,0.298,0.595,0.781,0.905,1.08c0.31,0.296,1.811,1.684,2.27,2.12
			c0.456,0.433,1.906,1.809,2.418,2.267c0.505,0.459,1.198,1.065,1.385,1.251c0.187,0.186,0.621,0.608,0.723,0.733
			c0.097,0.123,0.072,0.371-0.04,0.555c-0.109,0.187-0.347,0.571-0.521,0.733c-0.173,0.162-0.546,0.421-0.546,0.421
			s0.138-0.272,0.101-0.397s-0.312-0.371-0.509-0.446c-0.2-0.072-1.051-0.298-1.425-0.408c-0.373-0.115-1.191-0.435-1.413-0.608
			c-0.224-0.173-1.203-1.35-1.427-1.624c-0.224-0.272-1.078-1.387-1.374-1.773c-0.299-0.384-0.957-1.301-1.317-1.758
			c-0.357-0.461-0.915-1.192-1.063-1.341c-0.149-0.147-0.174-0.224-0.31-0.321C133.912,90.025,133.851,89.964,133.851,89.964"/>
		<path clip-path="url(#SVGID_2_)" fill-rule="evenodd" clip-rule="evenodd" fill="#FFFFFF" d="M130.815,90.361
			c0,0,0.544,0.072,0.854,0.072c0.312,0,0.598-0.035,0.733-0.011c0.134,0.024,0.31,0.011,0.445,0.173s0.211,0.446,0.272,0.608
			s1.054,1.561,1.216,1.785c0.16,0.221,0.867,1.165,1.179,1.576c0.31,0.408,1.152,1.486,1.398,1.811
			c0.248,0.321,0.746,0.828,0.868,1.014c0.126,0.187,0.445,0.645,0.494,0.744c0.053,0.099-0.072,0.235-0.146,0.333
			c-0.075,0.101-0.222,0.274-0.373,0.421c-0.149,0.149-0.371,0.312-0.433,0.335c-0.062,0.024,0.023-0.173,0.037-0.285
			c0.011-0.112-0.06-0.252-0.248-0.395c-0.259-0.2-0.633-0.349-0.918-0.458c-0.285-0.112-0.884-0.292-1.288-0.461
			c-0.384-0.16-0.593-0.274-0.744-0.446c-0.199-0.224-0.607-0.979-0.843-1.4c-0.237-0.421-0.931-1.725-1.104-2.069
			c-0.174-0.349-0.262-0.56-0.286-0.771c-0.025-0.21-0.037-0.977-0.111-1.176c-0.074-0.198-0.299-0.546-0.433-0.656
			c-0.138-0.112-0.187-0.125-0.248-0.163c-0.063-0.035-0.273-0.099-0.273-0.099s-0.025-0.272-0.025-0.333
			C130.839,90.447,130.815,90.361,130.815,90.361"/>
		<path clip-path="url(#SVGID_2_)" fill-rule="evenodd" clip-rule="evenodd" fill="#FFFFFF" d="M130.629,94.439
			c0,0,0.347,0.583,0.47,0.781c0.125,0.197,0.447,0.621,0.608,0.941c0.162,0.323,0.658,1.142,0.794,1.414
			c0.134,0.272,0.31,0.52,0.285,0.806c-0.026,0.285-0.262,0.621-0.334,0.755c-0.076,0.138-0.087,0.288-0.263,0.421
			c-0.173,0.138-0.445,0.187-0.445,0.187s0.173-0.173,0.186-0.333c0.012-0.16-0.122-0.397-0.21-0.509
			c-0.086-0.11-0.285-0.31-0.507-0.421c-0.225-0.11-0.672-0.347-0.721-0.483c-0.05-0.136-0.063-0.285,0.049-0.558
			c0.149-0.362,0.125-0.72,0.063-1.003c-0.063-0.288-0.112-0.373-0.162-0.474c-0.049-0.097-0.16-0.16-0.16-0.16
			s0.173-0.632,0.21-0.792L130.629,94.439z"/>
		<path clip-path="url(#SVGID_2_)" fill-rule="evenodd" clip-rule="evenodd" fill="#FFFFFF" d="M117.44,107.628
			c0,0,0.829-0.307,1.214-0.483c0.386-0.173,1.128-0.494,1.61-0.72c0.51-0.235,1.835-0.966,2.406-1.326
			c0.568-0.36,1.301-0.867,1.896-1.363c0.598-0.496,1.55-1.376,1.934-1.749c0.385-0.369,1.291-1.438,1.563-1.833
			c0.271-0.397,0.743-1.141,0.743-1.141l1.041,0.522c0.447,0.222,0.931,0.433,1.253,0.483c0.32,0.048,0.531,0.085,0.854,0.062
			c0.323-0.026,0.448-0.088,0.622-0.285c0.173-0.198,0.37-0.547,0.445-0.733c0.074-0.184,0.187-0.433,0.187-0.433
			s0.396,0.185,0.645,0.274l1.201,0.421c0.322,0.11,0.792,0.198,0.979,0.333c0.187,0.137,0.237,0.235,0.225,0.371
			c-0.014,0.138-0.149,0.472-0.272,0.718c-0.125,0.25-0.595,1.24-0.781,1.576c-0.188,0.336-0.941,1.561-1.326,2.107
			c-0.384,0.544-1.613,2.083-2.071,2.517c-0.457,0.435-1.017,1.003-1.351,1.177c-0.336,0.173-0.867,0.274-1.227,0.496l-1.886,1.177
			c-0.493,0.312-1.202,0.732-1.71,0.993c-0.509,0.259-1.772,0.892-2.156,1.078c-0.385,0.187-0.907,0.408-1.152,0.522
			c-0.248,0.109-0.448,0.211-0.646,0.197c-0.197-0.013-0.334-0.149-0.422-0.312c-0.085-0.16-0.693-1.203-0.918-1.611
			c-0.221-0.41-1.073-1.861-1.237-2.12c-0.175-0.272-0.248-0.408-0.634-0.558c-0.253-0.097-0.336-0.136-0.457-0.136
			c-0.125,0-0.204,0.018-0.386-0.037C117.499,107.777,117.44,107.628,117.44,107.628"/>
		<path clip-path="url(#SVGID_2_)" fill-rule="evenodd" clip-rule="evenodd" fill="#FFFFFF" d="M114.6,108.433
			c0,0,0.681-0.173,1.017-0.283c0.334-0.112,0.707-0.248,0.941-0.299c0.235-0.05,0.336-0.061,0.459,0.064
			c0.125,0.123,0.237,0.357,0.299,0.531s0.757,1.377,0.989,1.787c0.237,0.405,0.896,1.549,1.093,1.906
			c0.2,0.36,0.904,1.501,1.054,1.75c0.149,0.245,0.323,0.581,0.445,0.781c0.124,0.197,0.323,0.656,0.411,0.843
			c0.085,0.185,0.162,0.333,0.099,0.494c-0.062,0.162-0.472,0.894-0.558,1.08c-0.088,0.186-0.472,0.866-0.472,0.866
			s-0.038-0.56-0.137-0.831c-0.101-0.272-0.21-0.446-0.407-0.582c-0.2-0.136-0.584-0.224-0.733-0.334
			c-0.147-0.111-0.285-0.21-0.47-0.583c-0.187-0.372-0.687-1.717-0.856-2.145c-0.187-0.47-0.805-2.033-1.016-2.553
			c-0.211-0.522-0.558-1.413-0.721-1.624c-0.159-0.211-0.581-0.521-0.717-0.533c-0.137-0.011-0.323-0.051-0.371-0.038
			c-0.053,0.011-0.211,0.026-0.211,0.026L114.6,108.433z"/>
		<path clip-path="url(#SVGID_2_)" fill-rule="evenodd" clip-rule="evenodd" fill="#FFFFFF" d="M136.803,99.906
			c0,0,0.308,0.024,0.457-0.05s0.511-0.347,0.746-0.57c0.234-0.222,0.507-0.521,0.595-0.67c0.085-0.149,0.122-0.184,0.122-0.184
			s0.126,0.035,0.126,0.123s-0.248,0.904-0.325,1.115c-0.072,0.213-0.331,0.907-0.507,1.278c-0.174,0.373-0.731,1.45-0.931,1.808
			c-0.197,0.36-1.102,1.787-1.475,2.293c-0.371,0.509-1.499,1.896-1.846,2.283c-0.347,0.384-1.726,1.722-2.059,2.045
			c-0.337,0.32-2.764,1.921-3.233,2.206c-0.475,0.285-2.021,1.189-2.384,1.389c-0.357,0.198-1.448,0.719-1.819,0.904
			c-0.373,0.187-1.341,0.644-1.576,0.694c-0.234,0.051-0.507,0-0.718-0.024c-0.21-0.026-0.312-0.026-0.384-0.026
			c-0.076,0-0.349,0.037-0.349,0.037l-0.11-0.185c0,0,0.904-0.359,1.363-0.581c0.459-0.225,2.43-1.144,2.987-1.464
			c0.558-0.322,1.723-0.979,2.317-1.377s2.021-1.437,2.542-1.896c0.521-0.458,2.008-1.909,2.268-2.231
			c0.261-0.323,1.45-1.424,1.723-1.709c0.274-0.286,0.766-0.735,1.093-1.216c0.364-0.538,1.147-1.813,1.314-2.192
			c0.158-0.373,0.345-0.671,0.308-0.83c-0.035-0.163-0.049-0.312-0.097-0.336c-0.053-0.024-0.325-0.101-0.325-0.101l0.114-0.333
			C136.776,99.992,136.803,99.906,136.803,99.906"/>
		<path clip-path="url(#SVGID_2_)" fill-rule="evenodd" clip-rule="evenodd" fill="#FFFFFF" d="M111.909,108.943
			c0,0,0.288,0.013,0.547-0.075c0.261-0.087,0.855-0.333,1.104-0.359c0.248-0.024,0.619-0.024,0.681,0.074
			c0.062,0.101,0.149,0.347,0.261,0.656c0.112,0.312,0.843,2.172,1.017,2.667c0.173,0.496,0.992,2.467,1.142,2.875
			c0.146,0.411,0.53,1.315,0.582,1.502c0.05,0.186,0.221,0.68,0.186,0.83c-0.037,0.146-0.333,0.607-0.509,0.866
			c-0.174,0.261-0.781,1.08-0.781,1.08s-0.035-0.325,0.026-0.421c0.062-0.102,0.122-0.31,0.087-0.422
			c-0.037-0.114-0.175-0.459-0.359-0.608c-0.187-0.149-0.535-0.272-0.722-0.445c-0.183-0.176-0.272-0.225-0.406-0.771
			c-0.139-0.545-0.485-2.006-0.595-2.44c-0.114-0.435-0.56-2.491-0.669-2.902c-0.112-0.407-0.211-0.952-0.374-1.163
			c-0.16-0.213-0.493-0.509-0.632-0.535c-0.137-0.023-0.296-0.011-0.347-0.011s-0.139,0.011-0.139,0.011L111.909,108.943z"/>
		<path clip-path="url(#SVGID_2_)" fill-rule="evenodd" clip-rule="evenodd" fill="#FFFFFF" d="M109.333,109.178
			c0,0,0.482-0.048,0.669-0.097c0.185-0.053,0.693-0.162,0.992-0.162c0.297,0,0.582,0.074,0.632,0.259
			c0.049,0.186,0.123,0.72,0.16,0.957c0.038,0.234,0.57,2.515,0.633,2.849c0.062,0.336,0.682,2.789,0.743,3.149
			s0.272,1.217,0.26,1.413c-0.012,0.197,0.013,0.371-0.024,0.435c-0.037,0.063-0.408,0.545-0.595,0.729
			c-0.187,0.187-0.843,1.019-0.843,1.019s-0.062-0.235,0.026-0.35c0.085-0.11,0.271-0.271,0.248-0.458
			c-0.026-0.185-0.2-0.532-0.36-0.682c-0.162-0.148-0.521-0.335-0.683-0.509c-0.16-0.172-0.248-0.309-0.285-0.718
			c-0.037-0.41-0.199-2.566-0.248-3.271c-0.051-0.707-0.199-2.679-0.248-2.976c-0.049-0.298-0.099-0.583-0.296-0.78
			c-0.2-0.2-0.397-0.299-0.522-0.337c-0.123-0.036-0.248-0.05-0.248-0.05L109.333,109.178z"/>
		<path clip-path="url(#SVGID_2_)" fill-rule="evenodd" clip-rule="evenodd" fill="#FFFFFF" d="M106.655,109.204
			c0,0,0.494,0.011,0.608-0.026c0.11-0.035,0.595-0.1,0.939-0.086c0.349,0.014,0.723,0.099,0.747,0.285s0.037,0.792,0.048,1.163
			c0.013,0.374,0.162,2.293,0.173,2.605c0.014,0.31,0.176,2.454,0.211,2.975c0.037,0.52,0.111,1.524,0.099,1.722
			c-0.011,0.201-0.011,0.448-0.011,0.448s-0.571,0.595-0.755,0.755c-0.187,0.163-0.856,0.731-0.856,0.731s0.099-0.283,0.198-0.408
			c0.099-0.124,0.187-0.323,0.112-0.445c-0.075-0.125-0.584-0.659-0.745-0.784c-0.16-0.12-0.371-0.396-0.397-0.656
			c-0.024-0.259,0.099-1.981,0.176-2.702c0.072-0.718,0.171-2.344,0.221-2.899c0.051-0.559,0.123-1.227,0.027-1.463
			c-0.101-0.235-0.286-0.521-0.435-0.595c-0.149-0.072-0.373-0.112-0.373-0.112L106.655,109.204z"/>
		<path clip-path="url(#SVGID_2_)" fill-rule="evenodd" clip-rule="evenodd" fill="#FFFFFF" d="M104.001,109.041
			c0,0,0.36,0,0.533-0.011c0.173-0.013,0.333-0.051,0.619-0.037c0.287,0.011,0.509,0,0.72,0.072
			c0.211,0.074,0.373,0.187,0.349,0.535c-0.026,0.345-0.114,1.574-0.149,1.921c-0.037,0.347-0.248,2.851-0.248,3.086
			c0,0.234-0.077,1.328-0.101,1.686c-0.018,0.276-0.123,0.954-0.149,1.216c-0.024,0.259-0.161,0.693-0.161,0.744
			c0,0.049-0.037,0.134-0.037,0.134s-0.459,0.373-0.619,0.447c-0.163,0.075-0.163-0.086-0.261-0.185
			c-0.099-0.101-0.235-0.11-0.472-0.226c-0.235-0.109-0.595-0.459-0.755-0.704c-0.16-0.248-0.213-0.496-0.112-0.904
			c0.099-0.41,0.445-1.824,0.56-2.331c0.11-0.509,0.445-1.921,0.555-2.419c0.112-0.496,0.312-1.277,0.312-1.549
			c0-0.273-0.087-0.531-0.234-0.67c-0.149-0.136-0.176-0.16-0.274-0.198c-0.099-0.036-0.2-0.063-0.2-0.063L104.001,109.041z"/>
		<path clip-path="url(#SVGID_2_)" fill-rule="evenodd" clip-rule="evenodd" fill="#FFFFFF" d="M101.311,108.596
			c0,0,0.362,0.038,0.533,0.038c0.173,0,0.472-0.038,0.806,0.035c0.336,0.077,0.733,0.139,0.781,0.288
			c0.05,0.147,0.125,0.309,0.038,0.632c-0.086,0.32-0.669,2.739-0.766,3.149c-0.101,0.409-0.547,2.328-0.621,2.651
			c-0.075,0.323-0.323,1.427-0.397,1.672c-0.075,0.249-0.222,0.721-0.248,0.771c-0.024,0.048-0.384,0.234-0.472,0.271
			c-0.085,0.038-0.21,0.099-0.21,0.099s0.136-0.197,0.088-0.322s-0.187-0.259-0.373-0.259c-0.185,0-0.395,0.148-0.544,0.099
			c-0.149-0.051-0.384-0.149-0.557-0.56c-0.174-0.407-0.187-0.47-0.125-0.779c0.064-0.312,0.832-2.144,0.992-2.579
			c0.163-0.433,0.856-2.232,1.029-2.664c0.173-0.435,0.411-1.005,0.397-1.177c-0.013-0.176-0.149-0.461-0.235-0.546
			c-0.088-0.088-0.211-0.139-0.264-0.126c-0.048,0.014-0.109-0.037-0.109-0.037L101.311,108.596z"/>
		<path clip-path="url(#SVGID_2_)" fill-rule="evenodd" clip-rule="evenodd" fill="#FFFFFF" d="M98.67,107.876
			c0,0,0.261,0.085,0.522,0.085s0.534-0.011,0.83,0.077c0.299,0.085,0.696,0.32,0.758,0.482c0.061,0.163-0.088,0.47-0.261,0.856
			c-0.174,0.384-0.979,2.528-1.166,2.987c-0.186,0.456-1.005,2.516-1.115,2.803c-0.112,0.283-0.472,1.152-0.584,1.374
			c-0.109,0.224-0.197,0.445-0.197,0.445l-0.458,0.139c0,0,0.125-0.188,0.048-0.298c-0.072-0.112-0.307-0.348-0.445-0.359
			c-0.134-0.013-0.32,0.025-0.483,0.086c-0.198,0.075-0.435,0.075-0.52-0.086c-0.088-0.161-0.336-0.621-0.36-0.731
			c-0.024-0.11-0.112-0.273,0.014-0.508c0.123-0.235,0.928-1.723,1.102-1.997c0.173-0.272,1.115-1.859,1.326-2.243
			s0.733-1.264,0.832-1.462c0.099-0.199,0.16-0.36,0.088-0.509c-0.077-0.15-0.077-0.224-0.162-0.262
			c-0.088-0.038-0.235-0.062-0.235-0.062L98.67,107.876z"/>
		<path clip-path="url(#SVGID_2_)" fill-rule="evenodd" clip-rule="evenodd" fill="#1D1D1B" d="M108.23,102.448h-0.208
			c-2.713,0-5.786-0.76-5.786-5.129c0-4.387,3.02-5.252,5.886-5.278c2.737,0.024,5.643,1.027,5.643,5.278
			C113.766,101.162,111.075,102.448,108.23,102.448"/>
		<path clip-path="url(#SVGID_2_)" fill-rule="evenodd" clip-rule="evenodd" fill="#FFFFFF" d="M107.68,108.701
			c-12.942,0-22.729-7.978-22.729-17.034c0-9.061,9.787-17.037,22.729-17.037s22.729,7.976,22.729,17.037
			C130.409,100.723,120.622,108.701,107.68,108.701"/>
		<path clip-path="url(#SVGID_2_)" fill-rule="evenodd" clip-rule="evenodd" fill="#1D1D1B" d="M107.647,80.748
			c3.129,0.026,5.239,1.295,5.239,4.761c0,3.621-2.206,4.787-5.239,4.806c-2.897-0.018-5.244-1.053-5.244-4.806
			C102.403,82.179,104.783,80.772,107.647,80.748"/>
		<path clip-path="url(#SVGID_2_)" fill-rule="evenodd" clip-rule="evenodd" fill="#1D1D1B" d="M116.501,90.8
			c3.116-1.769,3.758-3.558,3.521-5.656c-0.426-3.789-5.614-6.495-12.484-6.412c-8.272,0.095-13.278,4.241-13.278,5.323
			s1.64,1.358,1.64,1.942L95.9,97.394c0.018,0.709-1.541,1.495-1.541,2.28c0,0.814,5.329,4.743,14.142,4.692
			c7.745-0.044,12.194-3.29,12.235-7.177c0.024-2.103-1.2-4.934-4.235-6.341V90.8z"/>
		<path clip-path="url(#SVGID_2_)" fill-rule="evenodd" clip-rule="evenodd" fill="#1D1D1B" d="M107.687,75.421
			c13.083,0,21.983,8.162,21.983,16.294c0,8.134-8.9,16.296-21.983,16.296S85.708,99.85,85.708,91.715
			C85.708,83.583,94.604,75.421,107.687,75.421"/>
		<path clip-path="url(#SVGID_2_)" fill-rule="evenodd" clip-rule="evenodd" fill="#FFFFFF" d="M107.647,80.748
			c3.129,0.026,5.237,1.295,5.237,4.761c0,3.621-2.204,4.787-5.237,4.806c-2.897-0.018-5.243-1.053-5.243-4.806
			C102.404,82.179,104.783,80.772,107.647,80.748 M116.501,90.8c3.116-1.767,3.758-3.558,3.521-5.656
			c-0.426-3.789-5.616-6.492-12.486-6.414c-8.271,0.099-13.276,4.243-13.276,5.325s1.64,1.361,1.64,1.942L95.9,97.396
			c0.018,0.707-1.541,1.495-1.541,2.278c0,0.816,5.329,4.743,14.142,4.692c7.745-0.042,12.194-3.29,12.235-7.177
			c0.022-2.101-1.2-4.934-4.235-6.341V90.8z M108.23,102.448h-0.208c-2.713,0-5.786-0.76-5.786-5.129
			c0-4.387,3.02-5.252,5.886-5.278c2.737,0.024,5.643,1.027,5.643,5.278C113.766,101.162,111.075,102.448,108.23,102.448"/>
	</g>
</g>

</svg>
