<?xml version="1.0" encoding="utf-8"?>
<!DOCTYPE svg PUBLIC "-//W3C//DTD SVG 1.1//EN" "http://www.w3.org/Graphics/SVG/1.1/DTD/svg11.dtd">
<svg version="1.1" id="Layer_1" xmlns="http://www.w3.org/2000/svg" xmlns:xlink="http://www.w3.org/1999/xlink" x="0px" y="0px" width="216px" height="216px" viewBox="0 0 216 216" enable-background="new 0 0 216 216" xml:space="preserve">
<g>
	<path fill="#A50716" d="M129.342,138.796c-9.906,2.514-16.417,5.028-20.706,7.395c-13.458-6.066-28.099-9.317-42.149-9.317
		c-17.304,0-32.98,4.437-46.291,10.796L1.415,55.532h127.927 M39.571,78.604H28.183v33.72h22.772v-7.986H39.571V78.604
		L39.571,78.604z M70.776,107.144c-5.176,0-6.359-2.218-6.359-8.427h23.222c0-14.937-3.55-21.151-16.86-21.151
		c-14.494,0-18.339,5.028-18.339,18.043c0,12.721,5.324,18.782,17.602,18.782c12.127,0,16.564-4.437,16.857-11.388H76.251
		C76.248,105.815,75.213,107.144,70.776,107.144z M64.417,92.062c0-5.028,1.035-7.835,5.916-7.835c4.735,0,5.916,2.218,5.916,7.835
		H64.417z M100.354,78.604H87.932l12.867,33.72h14.049l13.165-33.72h-12.13l-7.835,22.036L100.354,78.604z"/>
	<path fill="#A50716" d="M129.193,55.532h86.221l-20.261,92.137c-13.311-7.693-25.438-10.943-43.036-10.943
		c-9.613,0-16.121,0.884-22.924,2.07 M131.264,78.456v33.868h11.092V78.456H131.264L131.264,78.456z M150.786,80.674l-0.592,3.399
		c3.549-2.218,5.028-4.141,5.028-6.655c0-2.81-1.923-4.289-4.732-4.289c-2.811,0-4.585,1.629-4.585,3.993
		C145.908,80.23,147.976,80.674,150.786,80.674z M166.61,101.675h-11.979c0.147,8.134,4.437,11.385,17.451,11.385
		c12.127,0,17.008-2.662,17.008-11.092c0-13.311-22.479-6.655-22.479-14.642c0-1.922,2.218-3.549,5.176-3.549
		c3.108,0,4.289,1.328,5.028,4.141h11.388c-0.147-7.099-4.286-10.353-15.677-10.353c-11.831,0-17.303,3.254-17.303,10.651
		c0,14.642,22.479,6.8,22.479,15.085c0,2.514-1.331,3.698-4.585,3.698C169.272,106.999,166.908,105.52,166.61,101.675
		L166.61,101.675z M175.779,147.223c3.55,0,6.508,2.958,6.508,6.507c0,3.55-2.958,6.508-6.508,6.508
		c-3.549,0-6.507-2.81-6.507-6.508C169.305,150.149,172.199,147.256,175.779,147.223L175.779,147.223z M181.252,153.732
		c0-2.958-2.364-5.324-5.473-5.324c-3.105,0-5.472,2.366-5.472,5.324s2.514,5.473,5.472,5.473c3.015,0.007,5.465-2.431,5.473-5.445
		C181.252,153.751,181.252,153.742,181.252,153.732z M173.562,156.986v-6.507h1.771c1.774,0,3.108,0.443,3.108,2.07
		c0,0.742-0.443,1.331-1.479,1.922l1.183,2.515h-1.183l-1.035-1.923h-1.035v1.923H173.562z M176.963,152.55
		c0-0.444-0.595-0.739-2.07-0.739v1.626C175.928,153.437,176.963,153.437,176.963,152.55z"/>
</g>

</svg>
