<?xml version="1.0" encoding="utf-8"?>
<!DOCTYPE svg PUBLIC "-//W3C//DTD SVG 1.1//EN" "http://www.w3.org/Graphics/SVG/1.1/DTD/svg11.dtd">
<svg version="1.1" xmlns="http://www.w3.org/2000/svg" xmlns:xlink="http://www.w3.org/1999/xlink" x="0px" y="0px" width="216px" height="216px" viewBox="0 0 216 216" enable-background="new 0 0 216 216" xml:space="preserve">
<g id="Layer_2">
	<path fill-rule="evenodd" clip-rule="evenodd" fill="#323E8F" d="M54.5,0.5h108.002c29.699,0,53.998,24.3,53.998,54v108.002
		c0,29.7-24.299,53.998-53.998,53.998H54.5c-29.7,0-54-24.298-54-53.998V54.5C0.5,24.8,24.8,0.5,54.5,0.5z"/>
</g>
<g id="Layer_1">
	<g>
		<g>
			<path fill="#FFFFFF" d="M189.317,101.833c-0.402-0.063-0.779,0.211-0.844,0.614c-0.003,0.024-0.006,0.048-0.008,0.073
				c0,0-1.081,2.533-2.989,3.511c-0.87,0.446-1.238,0.681-3.217,0.625h-9.963c-5.387-0.384-5.943-6.019-5.943-6.019
				c0-0.686-0.072-1.599-0.072-1.991V92.25c0.145-5.763,4.616-7.086,4.616-7.086c0.693-0.158,1.404-0.228,2.116-0.205h9.964
				c4.52,0.148,5.711,5.078,5.711,5.078c0.134,0.354,0.463,0.597,0.84,0.622h18.1c0.385-0.003,0.694-0.317,0.694-0.703v-1.937
				c-0.271-13.393-12.44-16.637-14.966-16.575c-0.682,0-1.621-0.052-2.012-0.052h-28.144c-8.569,0.038-13.428,6.356-15.153,10.689
				c-0.552,1.349-0.892,2.773-1.01,4.225c-0.037,0.784-0.101,2.04-0.101,2.431v14.858c0.778,14.173,13.074,16.551,14.921,16.612
				c0.623,0.022,1.662,0.062,2.048,0.062h28.137c12.854-0.687,16.171-11.952,16.223-15.556c0-1.045,0.037-1.45,0.037-1.837v-0.318
				c0.006-0.39-0.305-0.71-0.695-0.716l0,0L189.317,101.833z"/>
			<path fill="#FFFFFF" d="M79.485,72.659c0.197-0.34,0.041-0.605-0.343-0.605H9.103c-0.383-0.001-0.697,0.308-0.7,0.692V86.22
				c-0.001,0.386,0.31,0.701,0.697,0.702c0.001,0,0.002,0,0.003,0h17.175c0.386,0.001,0.698,0.316,0.696,0.703l0,0v31.213
				c0.001,0.387,0.315,0.701,0.703,0.701h27.035c0.387,0,0.701-0.314,0.702-0.701V87.635c-0.002-0.385,0.308-0.7,0.691-0.702
				c0.001,0,0.002,0,0.003,0h14.179c0.427-0.028,0.817-0.251,1.056-0.605L79.485,72.659z"/>
			<path fill="#FFFFFF" d="M90.787,72.065c-0.44,0.021-0.857,0.206-1.169,0.519c0,0-12.426,12.347-12.385,29.512
				c0.013,10.604,4.349,16.892,4.349,16.892c0.289,0.326,0.696,0.527,1.132,0.555h17.712c0.384,0,0.498-0.242,0.254-0.539
				c0,0-5.713-7.28-5.611-17.178c0.083-8.875,5.324-14.451,5.324-14.451c0.279-0.333,0.683-0.535,1.116-0.56h11.132
				c0.385,0,0.697,0.312,0.697,0.697c0,0,0,0.001,0,0.002v31.334c0,0.389,0.313,0.704,0.7,0.704h25.187
				c0.388,0.001,0.706-0.313,0.706-0.704l0,0V72.756c-0.006-0.386-0.321-0.695-0.706-0.691H90.787z"/>
			<path fill="#FFFFFF" d="M8.322,127.252c0-0.384,0.31-0.695,0.694-0.699h198.516c0.386,0.004,0.698,0.314,0.701,0.699v18.593
				c0,0.389-0.312,0.702-0.698,0.703h-0.003H9.016c-0.383,0-0.694-0.31-0.694-0.694c0-0.003,0-0.006,0-0.009V127.252z"/>
		</g>
		<g>
			<path fill="#E42522" d="M95.069,101.833c-0.001,1.866,0.184,3.727,0.554,5.554h36.161l4.752-7.477H95.152
				c-0.051,0.622-0.083,1.264-0.083,1.92"/>
			<path fill="#E42522" d="M96.341,94.394c-0.521,1.484-0.888,3.017-1.097,4.576h41.891l2.91-4.576H96.341z"/>
		</g>
		<g>
			<polygon fill="#323E8F" points="26.799,132.737 23.792,132.737 23.792,143.028 21.807,143.028 21.807,132.737 18.79,132.737 
				18.79,131.082 27.056,131.082 26.799,132.737 			"/>
			<path fill="#323E8F" d="M40.881,138.228c-0.541-1.803-1.021-3.511-1.416-5.172c-0.503,1.791-1.023,3.511-1.513,5.172H40.881z
				 M42.296,143.028l-0.97-3.142h-3.863l-0.962,3.145h-2.059l3.912-11.949h2.291l3.814,11.946H42.296z"/>
			<path fill="#323E8F" d="M58.723,143.201c-1.462,0.045-2.86-0.596-3.782-1.729c-0.897-1.081-1.372-2.541-1.372-4.208
				c-0.034-1.254,0.244-2.495,0.811-3.612c0.831-1.673,2.533-2.734,4.4-2.742c1.165,0,2.264,0.343,2.972,0.934l-0.918,1.292
				c-0.583-0.448-1.302-0.687-2.037-0.676c-1.001-0.008-1.92,0.551-2.377,1.441c-0.417,0.721-0.625,1.724-0.625,3.124
				c0,1.403,0.154,2.259,0.464,2.935c0.453,1.059,1.511,1.728,2.661,1.686c0.781,0.022,1.543-0.245,2.136-0.753l0.935,1.256
				c-0.938,0.714-2.091,1.085-3.269,1.056"/>
			<path fill="#323E8F" d="M80.752,132.288l-0.541,0.14c-0.25,0.03-0.484,0.134-0.675,0.299c-0.181,0.225-0.306,0.489-0.364,0.771
				l-0.308,1.239c-0.117,0.505-0.222,1.002-0.706,1.454c-0.243,0.22-0.53,0.385-0.842,0.482v0.037
				c0.272,0.094,0.526,0.238,0.745,0.426c0.382,0.374,0.645,0.851,0.756,1.376l0.541,1.914c0.054,0.311,0.191,0.601,0.397,0.839
				c0.211,0.177,0.46,0.299,0.727,0.363L81,141.782l-0.365,1.411l-0.653-0.079c-0.57-0.051-1.351-0.157-1.892-0.667
				c-0.448-0.455-0.54-1.053-0.637-1.555l-0.397-1.838c-0.086-0.354-0.221-0.87-0.557-1.167c-0.331-0.265-0.749-0.396-1.172-0.368
				h-1.137v5.512h-1.982v-11.949h1.982v4.817h1.31c0.438,0.038,0.873-0.099,1.21-0.381c0.309-0.31,0.392-0.784,0.479-1.122
				l0.329-1.458c0.076-0.503,0.298-0.972,0.638-1.351c0.408-0.402,0.848-0.453,1.54-0.553l0.705-0.104l0.381,1.351L80.752,132.288z"
				/>
			<path fill="#323E8F" d="M95.152,132.428c-2.058,0-2.82,1.621-2.82,4.476c0,3.069,0.783,4.776,2.869,4.776
				c1.777,0,2.701-1.312,2.701-4.523c0-2.904-0.603-4.729-2.736-4.729 M95.215,143.201c-3.4,0-5.078-2.629-5.078-6.159
				c0-3.922,2.001-6.135,4.992-6.135c3.365,0,4.984,2.673,4.984,6.146c0,3.729-1.8,6.147-4.9,6.147"/>
			<path fill="#323E8F" d="M120.351,143.028l-0.557-7.403c-0.047-0.763-0.084-1.713-0.084-2.07
				c-0.083,0.392-0.239,1.147-0.464,1.909l-2.18,7.564h-1.689l-1.984-7.235c-0.224-0.794-0.455-1.864-0.525-2.261
				c0,0.399-0.063,1.543-0.109,2.275l-0.54,7.221h-1.948l1.08-11.946h2.643l1.829,6.755c0.181,0.67,0.327,1.352,0.439,2.037
				c0.06-0.362,0.214-1.179,0.44-2.004l1.892-6.799h2.642l1.058,11.947L120.351,143.028z"/>
			<path fill="#323E8F" d="M136.683,141.397c0.899,0,1.422-0.271,1.694-0.541c0.361-0.383,0.55-0.897,0.521-1.424
				c0.035-0.527-0.153-1.043-0.521-1.421c-0.474-0.437-1.155-0.52-1.694-0.52h-1.688v3.894L136.683,141.397z M140.194,131.085
				l-0.271,1.621h-4.938v3.164h1.649c0.903,0,2.432,0,3.497,1.036c0.84,0.83,0.963,1.95,0.963,2.628
				c0.049,0.87-0.255,1.724-0.842,2.371c-0.991,1.028-2.545,1.11-3.698,1.11h-3.558v-11.934L140.194,131.085z"/>
			<path fill="#323E8F" d="M156.651,138.228c-0.54-1.803-1.021-3.511-1.414-5.172c-0.504,1.791-1.018,3.511-1.525,5.172H156.651z
				 M158.059,143.028l-0.968-3.145h-3.864l-0.969,3.145h-2.051l3.92-11.946h2.297l3.813,11.946H158.059z"/>
			<polygon fill="#323E8F" points="175.93,143.028 175.93,137.5 171.855,137.5 171.855,143.028 169.872,143.028 169.872,131.082 
				171.855,131.082 171.855,135.882 175.93,135.882 175.93,131.082 177.91,131.082 177.91,143.028 175.93,143.028 			"/>
			<path fill="#323E8F" d="M197.541,132.288l-0.559,0.14c-0.246,0.03-0.479,0.134-0.666,0.299c-0.188,0.22-0.313,0.487-0.364,0.771
				l-0.319,1.239c-0.116,0.505-0.221,1.002-0.71,1.454c-0.238,0.223-0.525,0.388-0.837,0.482v0.037
				c0.274,0.093,0.528,0.236,0.75,0.426c0.384,0.371,0.646,0.851,0.752,1.376l0.539,1.914c0.053,0.312,0.192,0.603,0.401,0.839
				c0.21,0.178,0.457,0.302,0.726,0.363l0.516,0.153l-0.365,1.411l-0.652-0.079c-0.569-0.051-1.364-0.157-1.892-0.667
				c-0.447-0.455-0.538-1.053-0.642-1.555l-0.396-1.838c-0.086-0.354-0.221-0.87-0.539-1.167c-0.332-0.265-0.752-0.396-1.175-0.368
				h-1.142v5.512h-1.985v-11.949h1.985v4.817h1.309c0.438,0.039,0.875-0.099,1.212-0.381c0.259-0.324,0.426-0.712,0.481-1.122
				l0.335-1.458c0.069-0.504,0.291-0.976,0.636-1.351c0.399-0.402,0.845-0.453,1.53-0.553l0.717-0.104l0.381,1.351L197.541,132.288z
				"/>
		</g>
	</g>
	<g>
	</g>
	<g>
	</g>
	<g>
	</g>
	<g>
	</g>
	<g>
	</g>
	<g>
	</g>
</g>
</svg>
