<?xml version="1.0" encoding="utf-8"?>
<!DOCTYPE svg PUBLIC "-//W3C//DTD SVG 1.1//EN" "http://www.w3.org/Graphics/SVG/1.1/DTD/svg11.dtd">
<svg version="1.1" id="Layer_1" xmlns="http://www.w3.org/2000/svg" xmlns:xlink="http://www.w3.org/1999/xlink" x="0px" y="0px" width="216px" height="216px" viewBox="0 0 216 216" enable-background="new 0 0 216 216" xml:space="preserve">
<g>
	<path fill="#FFFFFF" d="M0,0.122h216v216H0V0.122z"/>
	<g>
		<path fill="#93764F" d="M108.558,30.456c-8.409,0.005-15.909,2.125-22.2,5.991c-0.296,0.143-0.359-0.032-0.318-0.181
			c0.139-0.512,0.23-1.035,0.272-1.563c0.002-0.224,0.207-0.373,0.306-0.424c6.949-3.586,14.325-5.411,21.94-5.411
			c7.614,0,14.988,1.825,21.937,5.411c0.097,0.053,0.302,0.2,0.306,0.424c0.036,0.509,0.123,1.014,0.272,1.563
			c0.039,0.148-0.024,0.323-0.322,0.181C124.463,32.582,116.967,30.461,108.558,30.456z"/>
		<path fill="#93764F" d="M84.591,26.58c3.609,1.021,7.902-0.324,11.118-3.287c0.257-0.196,0.599-0.242,0.898-0.117
			c4.477,1.413,9.145,0.047,11.553-1.727c0.118-0.081,0.255-0.125,0.397-0.132c0.141,0.006,0.278,0.051,0.394,0.132
			c2.406,1.774,7.077,3.14,11.551,1.727c0.299-0.125,0.64-0.081,0.896,0.117c3.218,2.965,7.511,4.309,11.122,3.287
			c0.174-0.047,0.347,0.09,0.267,0.219c-0.496,0.77-0.9,1.576-1.209,2.463c-0.114,0.314-0.355,0.358-0.458,0.31
			c-7.162-3.539-14.74-5.334-22.56-5.334c-7.825,0-15.408,1.794-22.57,5.334c-0.101,0.049-0.341,0.004-0.455-0.31
			c-0.304-0.866-0.708-1.693-1.208-2.463C84.24,26.67,84.412,26.533,84.591,26.58L84.591,26.58z"/>
		<path fill="#93764F" d="M108.082,18.933c-1.987,2.02-7.367,3.861-12.01,1.839c-0.229-0.102-0.463-0.123-0.718,0.153
			c-3.217,3.485-8.239,5.081-11.819,3.307c-0.582-0.338-1.504-0.797-0.473-1.946c0.613-0.675,1.949-1.174,2.301-1.225
			c0.357-0.051,0.511-0.397,0.511-0.644c0-0.363-0.314-0.521-0.672-0.511c-0.826,0.026-2.066,0.61-3.203,1.401
			c-0.775,0.537-1.524,0.189-1.763-0.383c-0.136-0.273-0.265-0.55-0.387-0.83c-0.548-1.252-1.738-1.584-2.603-1.824
			c-0.274-0.078-0.676-0.193-0.779-0.284c-0.002-0.022-0.006-0.04-0.006-0.067c0-0.135,0.059-0.353,0.424-0.549
			c0.646-0.344,1.631-0.29,2.07,0.118c0.195,0.18,0.48,0.225,0.72,0.111c0.344-0.159,0.851-0.107,1.355,0.139
			c0.242,0.115,0.624,0.191,0.882,0.596c0.272,0.427,0.069,0.724,0.117,0.927c0.074,0.307,0.236,0.454,0.552,0.436
			c0.319-0.021,0.376-0.354,0.412-0.667c0.044-0.397,0.116-0.732,0.757-0.904c0.662-0.179,1.721,0.149,1.923,0.332
			c0.235,0.214,0.589,0.237,0.849,0.054c0.612-0.461,2.088-0.739,2.896-0.686c0.549,0.057,0.433,0.486,0.409,0.574
			c-0.165,0.592-0.807,1.13-1.309,1.613c-0.256,0.229-0.49,0.479-0.699,0.75c-0.171,0.274-0.271,0.587-0.293,0.91
			c-0.095,0.904-1.319,0.579-1.369,0.556c-0.336-0.125-0.601-0.18-0.734,0.155c-0.077,0.195,0.006,0.498,0.347,0.625
			c1.866,0.695,5.345,0.45,8.979-3.38c0.368-0.397-0.036-0.817-0.25-1.174c-0.181-0.294-0.236-0.283-0.316-0.732
			c-0.083-0.442,0.406-1.221,0.761-1.283c0.42-0.068,1.185,0.534,1.244,0.958c0.081,0.342,0,0.49-0.04,0.798
			c-0.077,0.562-0.042,1.113,0.332,1.251c1.989,0.76,5.096,1.07,6.651,0.553c0.985-0.326,0.89-1.51,0.383-1.939
			c-0.563-0.49-1.219-0.86-1.93-1.092c-0.5-0.144-0.792-0.297-0.99-0.383c-0.347-0.155-0.169-0.457-0.061-0.552
			c0.411-0.361,1.292-0.746,1.824-0.746c0.286,0.001,0.539-0.185,0.622-0.458c0.18-0.635,0.747-1.082,1.406-1.107
			c0.775,0.018,1.297,1.265,1.498,2.146c0.08,0.35,0.425,0.571,0.779,0.491c0.351-0.08,0.519-0.42,0.488-0.783
			c-0.157-2.09-1.58-2.363-1.708-2.776c-0.115-0.227-0.034-0.487,0.031-0.62c0.195-0.443,0.67-0.813,1.205-0.934
			c0.365-0.089,0.59-0.39,0.875-0.771c0.26-0.358,0.662-0.902,1.003-0.902c0.336,0,0.737,0.542,0.999,0.902
			c0.281,0.381,0.507,0.682,0.873,0.771c0.521,0.114,0.965,0.457,1.206,0.934c0.059,0.133,0.14,0.393,0.032,0.62
			c-0.131,0.413-1.557,0.686-1.716,2.776c-0.027,0.362,0.141,0.703,0.493,0.783c0.353,0.078,0.699-0.141,0.781-0.491
			c0.199-0.878,0.722-2.125,1.495-2.146c0.66,0.024,1.229,0.471,1.409,1.107c0.084,0.271,0.334,0.458,0.618,0.458
			c0.537,0,1.419,0.384,1.829,0.746c0.109,0.095,0.288,0.397-0.062,0.552c-0.195,0.085-0.489,0.239-0.989,0.383
			c-0.71,0.231-1.365,0.603-1.931,1.092c-0.505,0.429-0.603,1.613,0.38,1.939c1.561,0.515,4.665,0.207,6.657-0.553
			c0.374-0.138,0.407-0.689,0.33-1.251c-0.039-0.308-0.12-0.456-0.039-0.798c0.058-0.425,0.822-1.026,1.244-0.958
			c0.359,0.062,0.844,0.841,0.763,1.283c-0.078,0.449-0.14,0.436-0.315,0.732c-0.217,0.357-0.62,0.777-0.251,1.174
			c3.638,3.83,7.113,4.074,8.978,3.38c0.338-0.127,0.428-0.431,0.35-0.625c-0.135-0.335-0.395-0.282-0.732-0.155
			c-0.051,0.023-1.274,0.347-1.37-0.556c-0.022-0.323-0.123-0.636-0.294-0.91c-0.15-0.219-0.396-0.456-0.696-0.75
			c-0.508-0.482-1.144-1.021-1.312-1.613c-0.027-0.086-0.139-0.515,0.404-0.574c0.81-0.054,2.289,0.224,2.898,0.686
			c0.262,0.182,0.614,0.16,0.851-0.054c0.202-0.183,1.262-0.51,1.922-0.332c0.64,0.171,0.714,0.506,0.758,0.904
			c0.036,0.314,0.096,0.646,0.415,0.667c0.313,0.018,0.476-0.129,0.548-0.436c0.047-0.203-0.153-0.5,0.12-0.927
			c0.26-0.407,0.64-0.481,0.881-0.596c0.509-0.246,1.016-0.298,1.354-0.139c0.24,0.114,0.526,0.071,0.723-0.111
			c0.435-0.408,1.424-0.461,2.072-0.118c0.365,0.197,0.422,0.414,0.422,0.549c0,0.022-0.003,0.046-0.012,0.067
			c-0.1,0.091-0.5,0.206-0.772,0.284c-0.87,0.242-2.061,0.574-2.607,1.824c-0.119,0.28-0.247,0.557-0.383,0.83
			c-0.241,0.574-0.988,0.92-1.763,0.383c-1.137-0.791-2.378-1.375-3.206-1.401c-0.362-0.01-0.671,0.147-0.671,0.511
			c0,0.246,0.155,0.593,0.509,0.644c0.353,0.051,1.697,0.549,2.301,1.225c1.034,1.146,0.118,1.608-0.472,1.946
			c-3.58,1.774-8.601,0.178-11.817-3.307c-0.254-0.276-0.486-0.253-0.718-0.153c-4.646,2.022-10.021,0.181-12.009-1.839
			c-0.13-0.117-0.296-0.188-0.471-0.196C108.382,18.743,108.212,18.813,108.082,18.933L108.082,18.933z M76.662,29.672
			c0.921-0.533,2.689-0.192,3.778,1.697c1,1.731,1.92,4.765,2.117,7.83c0.008,0.105,0,0.341-0.172,0.471
			c-0.246,0.201-0.484,0.402-0.723,0.606c-0.158,0.139-0.229-0.043-0.236-0.159c-0.261-4.543-2.001-8.352-4.773-10.025
			C76.555,30.02,76.438,29.801,76.662,29.672L76.662,29.672z"/>
		<path fill="#93764F" d="M87.063,129.872c1.522,0.41,3.654,2.355,5.121,3.416c1.018,0.734,1.153,0.896,2.312,1.617
			c0.352,0.221,0.196,0.419-0.227,0.308c-2.615-0.319-5.149-1.64-6.236-2.395c-0.434-0.3-0.56-0.689-0.671-1.075
			c-0.098-0.571-0.299-1.12-0.592-1.62C86.64,129.924,86.703,129.773,87.063,129.872L87.063,129.872z M86.847,129.938l-0.004-0.004
			L86.847,129.938z"/>
		<path fill="#93764F" d="M110.15,26.779c0,0.429-0.712,0.775-1.593,0.775c-0.882,0-1.598-0.346-1.598-0.775
			c0-0.428,0.713-0.775,1.598-0.775C109.438,26.002,110.15,26.35,110.15,26.779z M105.685,26.859
			c0.028,0.429-0.661,0.823-1.541,0.878c-0.876,0.058-1.613-0.238-1.643-0.668c-0.028-0.425,0.663-0.819,1.544-0.876
			C104.919,26.133,105.657,26.429,105.685,26.859z M101.226,27.361c0.053,0.423-0.608,0.862-1.482,0.981
			c-0.87,0.116-1.625-0.135-1.684-0.56c-0.055-0.425,0.606-0.865,1.48-0.978C100.412,26.688,101.166,26.939,101.226,27.361
			L101.226,27.361z M96.784,28.251c0.082,0.419-0.557,0.894-1.422,1.059c-0.867,0.165-1.632-0.04-1.711-0.461
			c-0.08-0.419,0.554-0.891,1.42-1.059C95.939,27.626,96.705,27.832,96.784,28.251L96.784,28.251z"/>
		<path fill="#93764F" d="M92.373,29.643c0.112,0.414-0.491,0.933-1.339,1.16c-0.852,0.23-1.629,0.082-1.745-0.333
			c-0.107-0.411,0.491-0.931,1.344-1.161C91.482,29.08,92.261,29.23,92.373,29.643z"/>
		<path fill="#93764F" d="M111.43,26.859c-0.028,0.429,0.664,0.823,1.54,0.878c0.877,0.058,1.611-0.238,1.641-0.668
			c0.032-0.425-0.66-0.819-1.536-0.876C112.194,26.133,111.456,26.429,111.43,26.859L111.43,26.859z M115.889,27.361
			c-0.058,0.423,0.611,0.862,1.478,0.981c0.877,0.116,1.627-0.135,1.686-0.56c0.054-0.425-0.606-0.865-1.479-0.978
			C116.7,26.688,115.947,26.939,115.889,27.361L115.889,27.361z M120.328,28.251c-0.082,0.419,0.554,0.894,1.42,1.059
			c0.867,0.165,1.634-0.04,1.714-0.461c0.078-0.419-0.554-0.891-1.423-1.059C121.176,27.626,120.409,27.832,120.328,28.251
			L120.328,28.251z"/>
		<path fill="#93764F" d="M124.737,29.643c-0.106,0.414,0.493,0.933,1.344,1.16c0.851,0.23,1.63,0.082,1.739-0.333
			c0.112-0.411-0.491-0.931-1.341-1.161C125.63,29.08,124.851,29.23,124.737,29.643z M71.285,35.449
			c-0.453,0.054-3.104,0.878-4.833,1.409c-0.214,0.067-0.165,0.225,0.049,0.266c0.868,0.171,1.696,0.592,2.334,1.23
			c0.779,0.8,1.252,1.849,1.338,2.963c0.013,0.165,0.079,0.435,0.347,0.135c1.273-1.431,3.063-3.395,3.414-3.957
			C74.763,36.176,73.51,35.182,71.285,35.449L71.285,35.449z M62.466,92.268c-0.434-2.935-2.476-6.222-4.241-8.101
			c-3.372-3.587-6.973-8.154-9.014-14.335c-0.55-1.658-0.999-3.286-1.223-4.8c-0.146-0.994,0.13-1.082,0.39-0.207
			c1.452,4.881,5.464,9.801,7.763,11.957c1.825,1.709,5.343,6.518,6.436,11.794c0.269,1.373,0.497,2.626,0.434,4.022
			C62.999,92.844,62.634,93.387,62.466,92.268L62.466,92.268z M76.139,122.457c1.664-0.129,3.71,0.348,5.394,1.255
			c0.207,0.109,0.111,0.273,0.006,0.323c-0.678,0.335-1.292,0.728-1.811,1.193c-0.205,0.161-0.263,0.26-0.636,0.086
			c-1.262-0.572-2.362-1.447-3.204-2.547C75.788,122.634,75.892,122.477,76.139,122.457L76.139,122.457z M105.025,127.974
			c-1.168,0-2.258,1.069-2.258,2.231c0,1.173,0.755,2.144,1.926,2.144c0.622-0.024,1.187-0.365,1.496-0.906
			c0.26-0.495,0.642-0.308,0.568,0.215c-0.158,1.18-1.341,2.334-3.127,2.334c-2.248,0-4.149-1.816-6.351-3.924
			c-2.4-2.291-5.121-4.892-8.69-5.289c-3.054-0.341-5.908,0.378-7.634,1.924c-1.204,1.078-1.814,2.478-1.814,4.163
			c0,1.804,1.27,3.749,3.318,3.749c1.568,0,2.878-1.24,2.923-2.767c0.024-0.851-0.246-1.64-0.715-2.109
			c-0.333-0.329-1.007-0.549-1.5-0.535c-0.608,0.02-1.44,0.271-1.563,1.124c-0.071,0.509-0.519,0.255-0.57-0.038
			c-0.084-0.45,0.082-1.172,0.367-1.751c1.082-1.915,3.852-1.864,6.031-0.82c1.433,0.683,2.995,1.831,4.645,3.052
			c3.193,2.355,6.812,5.025,10.266,4.795c2.696-0.176,5.414-1.774,5.414-4.937C107.751,129.117,106.855,127.974,105.025,127.974
			L105.025,127.974z"/>
		<path fill="#93764F" d="M61.838,100.622c1.89-0.44,3.038-2.644,3.142-6.045c0.285-7.34-2.487-14.47-7.657-19.69
			c-3.791-3.835-7.994-9.632-7.565-15.601c0.233-3.931,3.036-7.233,6.876-8.103c2.027-0.403,4.378,0.193,5.995,1.515
			c1.464,1.204,2.239,2.929,2.239,4.996c0,0.741-0.165,1.43-0.476,1.995c-0.014,0.028-0.074,0.117-0.141,0.091
			c-0.044-0.014-0.081-0.075-0.064-0.157c0.075-0.325,0.115-0.657,0.117-0.99c0-1.536-0.556-4.26-4.282-5.27
			c-1.861-0.504-3.852-0.089-5.188,1.081c-0.93,0.814-1.896,2.262-2.168,4.465c-0.525,4.219,1.796,6.811,5.699,11.033
			c3.564,3.849,7.922,9.872,7.922,23.188c0,3.224-0.48,5.317-1.608,7.006c-1.446,2.167-3.099,2.875-5.195,2.217
			c-2.214-0.691-2.71-3.12-2.71-3.915c0-0.036,0.04-3.782,3.344-3.782c1.619,0,2.242,0.993,2.435,1.415
			c0.402,0.9,0.462,2.153-0.581,2.977c-0.505,0.402-1.103,0.475-1.449,0.181c-0.153-0.14-0.392-0.129-0.533,0.024
			c-0.002,0.002-0.004,0.005-0.007,0.008c-0.211,0.214-0.252,0.648,0.083,1.023C60.414,100.663,61.252,100.754,61.838,100.622
			L61.838,100.622z M68.623,42.617c0.206-1.235-0.14-2.441-0.929-3.227c-0.89-0.893-2.288-1.192-3.401-0.731
			c-0.467,0.195-1.245,0.69-1.245,1.846c0.003,0.36-0.286,0.655-0.646,0.658c-0.298,0.002-0.56-0.197-0.636-0.484
			c-0.473-1.716-0.014-3.705,1.222-5.328c1.48-1.944,3.802-3.058,6.369-3.058c3.074,0,5.461,0.938,7.088,2.786
			c1.502,1.702,2.292,4.163,2.292,7.056c0,0.105-0.008,0.216-0.019,0.328c-0.012,0.141,0.044,0.353,0.239,0.165l0.419-0.421
			c0.146-0.172,0.229-0.389,0.236-0.615c0.021-0.234,0.021-0.471,0.021-0.702c0-6.458-4.73-10.913-9.472-11.434
			c-4.825-0.525-10.715,1.518-12.247,7.248c-1.243,4.648,1.21,7.289,2.323,8.208c1.778,1.467,4.067,1.985,5.57,1.255
			C67.341,45.424,68.37,44.133,68.623,42.617L68.623,42.617z"/>
		<path fill="#93764F" d="M73.576,27.48c0.682,0.332,1.835,0.275,2.575-0.129c1.121-0.606,2.297-0.601,3.402,0.022
			c2.446,1.379,4.256,5.732,4.523,10.846c-0.03,0.201,0.312,0.201,0.379-0.123c0.173-0.823,0.24-1.667,0.24-2.515
			c0-3.086-0.987-6.161-2.806-8.232c-1.812-2.065-5.378-3.095-7.634-2.198c-0.827,0.328-1.349,1.027-1.238,1.657
			C73.071,27.107,73.252,27.325,73.576,27.48L73.576,27.48z"/>
		<path fill="#93764F" d="M96.518,126.616c1.781,0.77,3.869,1.206,5.078,1.362c0.221,0.042,0.164,0.244,0.091,0.336
			c-0.421,0.541-0.489,1.042-0.489,1.767c0,0.25,0.028,0.487,0.083,0.714c0.047,0.184-0.115,0.337-0.266,0.227
			c-0.767-0.56-1.562-1.316-2.336-2.056c-0.787-0.75-1.409-1.373-2.353-2.116C96.144,126.705,96.005,126.485,96.518,126.616
			L96.518,126.616z"/>
		<path fill="#93764F" d="M75.196,46.08c-0.34-0.758-0.513-1.582-0.505-2.412c0-1.488,0.499-3.13,1.707-4.469
			c0.165-0.19,0.314-0.088,0.35,0.002c0.25,0.671,0.386,1.49,0.386,2.356c0,0.601-0.065,1.221-0.195,1.822
			c-0.252,1.179-0.732,2.125-1.366,2.772C75.364,46.378,75.241,46.182,75.196,46.08L75.196,46.08z M72.37,50.229
			c-0.42-0.718-0.678-1.518-0.755-2.345c-0.177-1.641,0.262-3.288,1.232-4.623c0.142-0.207,0.304-0.121,0.345-0.034
			c0.317,0.645,0.541,1.439,0.632,2.302c0.06,0.597,0.065,1.22-0.001,1.836c-0.126,1.196-0.505,2.186-1.066,2.897
			C72.571,50.508,72.427,50.327,72.37,50.229L72.37,50.229z M70.192,54.609c-0.522-0.647-0.895-1.401-1.093-2.208
			c-0.416-1.596-0.224-3.291,0.539-4.755c0.109-0.224,0.282-0.163,0.337-0.083c0.412,0.589,0.746,1.346,0.96,2.18
			c0.15,0.583,0.243,1.2,0.268,1.821c0.05,1.2-0.179,2.234-0.63,3.021C70.429,54.854,70.262,54.696,70.192,54.609L70.192,54.609z
			 M51.722,51.09c0.685-0.627,1.432-1.181,2.233-1.649c1.463-0.887,5.689-2.188,9.428-0.541c3.684,1.618,5.837,5.771,5.24,10.092
			c-0.412,2.969-1.74,5.157-3.947,6.494c-1.384,0.835-3.959,1.292-6.349,0.315c-1.222-0.5-2.729-2.059-3.11-3.96
			c-0.465-2.311,0-4.108,1.421-5.506c1.401-1.369,3.456-1.039,4.449-0.631c1.11,0.459,1.771,1.527,1.771,2.854
			c0,0.829-0.453,2.202-1.679,2.366c-0.393,0.064-0.796,0.004-1.153-0.172c-0.208-0.107-0.417-0.058-0.528,0.125
			c-0.187,0.296-0.078,0.88,0.344,1.178c1.071,0.766,2.631,0.519,3.463,0.304c1.967-0.511,3.342-2.505,3.342-4.853
			c0-3.225-1.536-5.167-2.823-6.221c-2.067-1.691-4.833-2.446-7.225-1.968c-1.553,0.31-3.273,1.049-4.754,2.003
			C51.543,51.511,51.42,51.374,51.722,51.09L51.722,51.09z"/>
		<path fill="#93764F" d="M68.76,106.511c-0.19-0.627-0.286-1.279-0.283-1.934c0-0.773,0.127-1.542,0.35-2.305
			c0.054-0.18,0.229-0.192,0.325-0.095c0.718,0.727,1.271,1.542,1.667,2.475c0.123,0.302,0.021,0.448-0.096,0.563
			c-0.397,0.392-0.92,0.89-1.542,1.426C68.955,106.836,68.817,106.714,68.76,106.511L68.76,106.511z M65.417,108.965
			c-0.821-1.186-1.268-2.549-1.361-4.13c-0.011-0.189,0.155-0.333,0.373-0.219c1.31,0.668,2.438,1.644,3.292,2.842
			c0.104,0.147,0.077,0.314-0.072,0.428c-0.517,0.385-1.12,0.805-1.705,1.182c-0.172,0.117-0.407,0.074-0.525-0.1
			C65.418,108.967,65.418,108.966,65.417,108.965L65.417,108.965z M66.929,99.864c0.06-0.124,0.235-0.064,0.26,0.09
			c0.1,0.566,0.162,1.119,0.162,1.652c0,0.804-0.123,1.549-0.354,2.198c-0.089,0.253-0.299,0.298-0.453,0.14
			c-0.439-0.469-0.814-0.994-1.115-1.561c-0.069-0.096-0.023-0.276,0.136-0.451c0.266-0.293,0.52-0.614,0.749-0.962
			C66.552,100.624,66.75,100.252,66.929,99.864z M84.146,123.038c-0.149-0.538-0.251-1.087-0.306-1.644
			c-0.034-0.319,0.232-0.252,0.423-0.157c0.781,0.384,1.581,0.94,2.344,1.626c0.136,0.123,0.13,0.348-0.053,0.352
			c-0.647,0.024-1.294,0.087-1.935,0.188C84.39,123.441,84.222,123.313,84.146,123.038z"/>
		<path fill="#93764F" d="M74.095,121.153c-1.352-0.829-2.443-2.022-3.15-3.442c-0.077-0.157,0.04-0.313,0.251-0.291
			c2.15,0.23,4.646,1.562,6.141,3.27c0.229,0.261,0.003,0.32-0.115,0.315c-0.841-0.058-1.686,0.017-2.504,0.226
			C74.51,121.291,74.284,121.266,74.095,121.153L74.095,121.153z M70.311,115.266c0.463-0.316,1.023-0.708,1.515-1.092
			c0.208-0.159,0.357-0.078,0.411,0.048c0.262,0.598,0.422,1.187,0.473,1.753c0.027,0.294-0.096,0.349-0.399,0.291
			c-0.695-0.11-1.37-0.319-2.007-0.615C70.114,115.562,70.192,115.353,70.311,115.266L70.311,115.266z M73.842,112.313l0.654-0.667
			c0.165-0.171,0.286-0.105,0.392,0.022c1.403,1.682,2.36,4.147,2.36,6.165c0,0.102-0.004,0.2-0.014,0.295
			c-0.021,0.251-0.284,0.256-0.37,0.196c-0.505-0.375-1.031-0.722-1.575-1.038c-0.191-0.131-0.351-0.306-0.466-0.506
			c-0.693-1.221-1.08-2.593-1.128-3.995C73.689,112.616,73.741,112.451,73.842,112.313z M79.618,121.085
			c-0.613-1.191-0.935-2.512-0.939-3.852l0.01-0.242c0.012-0.213,0.179-0.233,0.37-0.108c1.222,0.823,2.411,2.229,3.195,3.795
			c0.058,0.121,0.261,1.265,0.33,1.623c0.034,0.168-0.103,0.268-0.247,0.192c-0.702-0.395-1.442-0.719-2.209-0.965
			C79.904,121.457,79.72,121.296,79.618,121.085L79.618,121.085z"/>
		<path fill="#93764F" d="M64.274,116.891c2.734-1.075,5.265-2.609,7.482-4.537c0.038-0.045,0.083-0.083,0.132-0.114
			c0.75-0.657,1.456-1.362,2.117-2.105c0.103-0.12,0.263-0.365,0.075-0.647c-0.12-0.178-0.236-0.354-0.352-0.533
			c-0.155-0.207-0.422-0.052-0.533,0.076c-3.036,3.476-7.993,6.073-11.685,7.106c-0.752,0.214-1.521,0.364-2.299,0.443
			c-0.459,0.02-0.443,0.426-0.269,0.563c3.804,3.03,7.512,5.685,9.052,6.385c0.24,0.111,0.879,0.132,1.041,0.106
			c1.191-0.207,2.237-0.77,3.106-1.282c0.11-0.066,0.25-0.269,0.004-0.459c-0.182-0.157-0.406-0.349-0.572-0.502
			c-0.122-0.123-0.352-0.059-0.459-0.004c-0.388,0.212-0.787,0.402-1.193,0.574c-0.27,0.091-0.565,0.07-0.819-0.061
			c-0.144-0.1-3.507-2.393-5.055-3.939c-0.158-0.155-0.224-0.38-0.176-0.595C63.919,117.149,64.07,116.972,64.274,116.891
			L64.274,116.891z M72.495,106.894l-0.324-0.54c-0.083-0.133-0.293-0.085-0.433,0.049c-2.325,2.32-8.104,7.124-13.479,6.903
			c-1.224-0.049-1.554-0.766-1.644-1.146c-0.458-2.001,3.488-5.08,5.395-6.329c0.147-0.095,0.392-0.223,0.413-0.704
			c-0.003-0.139,0.018-0.315-0.039-0.513c-0.024-0.228-0.294-0.192-0.447-0.113c-3.188,1.711-7.09,5.305-7.047,7.762
			c0.017,0.936,0.333,1.64,0.942,2.093c1.036,0.773,2.87,0.84,5.167,0.201c3.069-0.862,8.419-3.435,11.407-7.144
			C72.479,107.32,72.661,107.117,72.495,106.894L72.495,106.894z M140.447,29.672c-0.919-0.533-2.691-0.192-3.778,1.697
			c-1,1.731-1.915,4.765-2.111,7.83c-0.013,0.105,0,0.341,0.167,0.471c0.243,0.201,0.489,0.402,0.729,0.606
			c0.155,0.139,0.225-0.043,0.233-0.159c0.256-4.543,1.998-8.352,4.771-10.025C140.557,30.02,140.671,29.801,140.447,29.672
			L140.447,29.672z"/>
		<path fill="#93764F" d="M130.047,129.872c-1.522,0.41-3.656,2.355-5.122,3.416c-1.014,0.734-1.148,0.896-2.31,1.617
			c-0.354,0.221-0.199,0.419,0.224,0.308c2.62-0.319,5.15-1.64,6.238-2.395c0.435-0.3,0.56-0.689,0.676-1.075
			c0.086-0.529,0.315-1.189,0.59-1.62C130.47,129.924,130.409,129.773,130.047,129.872L130.047,129.872z M130.263,129.938
			l0.004-0.004L130.263,129.938z"/>
		<path fill="#93764F" d="M145.824,35.449c0.452,0.054,3.102,0.878,4.834,1.409c0.214,0.067,0.162,0.225-0.047,0.266
			c-0.883,0.17-1.695,0.598-2.336,1.23c-0.778,0.779-1.229,1.826-1.339,2.963c-0.013,0.165-0.078,0.435-0.347,0.135
			c-1.274-1.431-3.059-3.395-3.416-3.957C142.347,36.176,143.596,35.182,145.824,35.449L145.824,35.449z M154.646,92.268
			c0.435-2.935,2.477-6.222,4.237-8.101c3.374-3.587,6.976-8.154,9.017-14.335c0.549-1.658,0.999-3.286,1.222-4.8
			c0.147-0.994-0.132-1.082-0.392-0.207c-1.451,4.881-5.463,9.801-7.762,11.957c-1.823,1.709-5.342,6.518-6.434,11.794
			c-0.269,1.373-0.496,2.626-0.434,4.022C154.109,92.844,154.479,93.387,154.646,92.268L154.646,92.268z M140.969,122.457
			c-1.662-0.129-3.706,0.348-5.393,1.255c-0.206,0.109-0.112,0.273-0.007,0.323c0.68,0.335,1.292,0.728,1.812,1.193
			c0.202,0.161,0.265,0.26,0.633,0.086c1.264-0.57,2.364-1.444,3.204-2.547C141.323,122.634,141.221,122.477,140.969,122.457
			L140.969,122.457z M112.088,127.974c1.169,0,2.258,1.069,2.258,2.231c0,1.173-0.758,2.144-1.93,2.144
			c-0.624-0.024-1.188-0.368-1.499-0.906c-0.261-0.495-0.64-0.308-0.566,0.215c0.158,1.18,1.343,2.334,3.127,2.334
			c2.248,0,4.149-1.816,6.354-3.924c2.396-2.291,5.119-4.892,8.69-5.289c3.053-0.341,5.907,0.378,7.634,1.924
			c1.203,1.078,1.813,2.478,1.813,4.163c0,1.804-1.27,3.749-3.314,3.749c-1.566,0-2.883-1.24-2.927-2.767
			c-0.024-0.851,0.248-1.64,0.717-2.109c0.334-0.329,1.006-0.549,1.498-0.535c0.615,0.02,1.444,0.271,1.563,1.124
			c0.075,0.509,0.521,0.255,0.576-0.038c0.08-0.45-0.088-1.172-0.372-1.751c-1.082-1.915-3.853-1.864-6.029-0.82
			c-1.437,0.683-2.998,1.831-4.643,3.052c-3.197,2.355-6.816,5.025-10.269,4.795c-2.697-0.176-5.416-1.774-5.416-4.937
			C109.358,129.117,110.253,127.974,112.088,127.974L112.088,127.974z"/>
		<path fill="#93764F" d="M155.27,100.622c-1.89-0.44-3.038-2.644-3.14-6.045c-0.285-7.34,2.484-14.47,7.655-19.69
			c3.791-3.835,7.998-9.632,7.568-15.601c-0.233-3.931-3.038-7.233-6.878-8.103c-2.026-0.403-4.377,0.193-5.997,1.515
			c-1.465,1.204-2.243,2.929-2.243,4.996c0,0.741,0.167,1.43,0.482,1.995c0.015,0.028,0.071,0.117,0.138,0.091
			c0.045-0.014,0.081-0.075,0.061-0.157c-0.073-0.325-0.112-0.657-0.115-0.99c0-1.536,0.554-4.26,4.287-5.27
			c1.86-0.504,3.848-0.089,5.185,1.081c0.929,0.814,1.894,2.262,2.17,4.465c0.524,4.219-1.792,6.811-5.701,11.033
			c-3.563,3.849-7.925,9.872-7.925,23.188c0,3.224,0.486,5.317,1.607,7.006c1.448,2.167,3.102,2.875,5.197,2.217
			c2.211-0.691,2.712-3.12,2.712-3.915c0-0.036-0.039-3.782-3.342-3.782c-1.618,0-2.239,0.993-2.438,1.415
			c-0.399,0.9-0.46,2.153,0.582,2.977c0.509,0.402,1.104,0.475,1.449,0.181c0.154-0.14,0.393-0.128,0.533,0.026
			c0.002,0.001,0.003,0.004,0.006,0.006c0.211,0.214,0.256,0.648-0.084,1.023C156.702,100.663,155.856,100.754,155.27,100.622
			L155.27,100.622z M148.486,42.617c-0.207-1.235,0.139-2.441,0.932-3.227c0.884-0.893,2.284-1.192,3.399-0.731
			c0.467,0.195,1.242,0.69,1.242,1.846c0.001,0.361,0.295,0.653,0.656,0.652c0.292-0.001,0.549-0.197,0.628-0.479
			c0.468-1.716,0.016-3.705-1.223-5.328c-1.479-1.944-3.799-3.058-6.365-3.058c-3.073,0-5.464,0.938-7.09,2.786
			c-1.502,1.702-2.292,4.163-2.292,7.056c0,0.105,0.008,0.216,0.021,0.328c0.01,0.141-0.044,0.353-0.237,0.165l-0.419-0.421
			c-0.146-0.173-0.229-0.389-0.237-0.615c-0.023-0.234-0.02-0.471-0.02-0.702c0-6.458,4.731-10.913,9.471-11.434
			c4.821-0.525,10.717,1.518,12.244,7.248c1.246,4.648-1.21,7.289-2.321,8.208c-1.778,1.467-4.067,1.985-5.568,1.255
			C149.769,45.424,148.743,44.133,148.486,42.617L148.486,42.617z M143.534,27.48c-0.68,0.332-1.836,0.275-2.578-0.129
			c-1.12-0.606-2.298-0.601-3.4,0.022c-2.443,1.379-4.259,5.732-4.523,10.846c0.031,0.201-0.31,0.201-0.38-0.123
			c-0.164-0.828-0.244-1.67-0.236-2.515c0-3.086,0.984-6.161,2.802-8.232c1.812-2.065,5.379-3.095,7.633-2.198
			c0.828,0.328,1.349,1.027,1.238,1.657C144.038,27.107,143.855,27.325,143.534,27.48L143.534,27.48z"/>
		<path fill="#93764F" d="M120.591,126.616c-1.78,0.77-3.864,1.206-5.075,1.362c-0.218,0.042-0.164,0.244-0.094,0.336
			c0.419,0.541,0.492,1.042,0.492,1.767c0,0.25-0.031,0.487-0.085,0.714c-0.047,0.184,0.118,0.337,0.269,0.227
			c0.765-0.56,1.56-1.316,2.336-2.056c0.785-0.75,1.41-1.373,2.354-2.116C120.966,126.705,121.104,126.485,120.591,126.616
			L120.591,126.616z"/>
		<path fill="#93764F" d="M141.916,46.08c0.313-0.679,0.504-1.51,0.504-2.412c0-1.488-0.504-3.13-1.706-4.469
			c-0.162-0.19-0.314-0.088-0.35,0.002c-0.249,0.671-0.387,1.49-0.387,2.356c0,0.601,0.065,1.221,0.194,1.822
			c0.251,1.179,0.733,2.125,1.366,2.772C141.75,46.378,141.868,46.182,141.916,46.08L141.916,46.08z M144.737,50.229
			c0.389-0.64,0.665-1.449,0.762-2.345c0.173-1.64-0.266-3.286-1.229-4.623c-0.147-0.207-0.31-0.121-0.35-0.034
			c-0.319,0.645-0.538,1.439-0.628,2.302c-0.066,0.597-0.069,1.22,0,1.836c0.125,1.196,0.505,2.186,1.066,2.897
			C144.543,50.508,144.683,50.327,144.737,50.229L144.737,50.229z M146.918,54.609c0.478-0.579,0.87-1.333,1.094-2.208
			c0.416-1.597,0.224-3.291-0.536-4.755c-0.114-0.224-0.286-0.163-0.34-0.083c-0.445,0.665-0.771,1.402-0.961,2.18
			c-0.154,0.596-0.244,1.206-0.272,1.821c-0.046,1.2,0.183,2.234,0.632,3.021C146.682,54.854,146.849,54.696,146.918,54.609
			L146.918,54.609z M165.393,51.09c-0.685-0.628-1.437-1.181-2.239-1.649c-1.459-0.887-5.686-2.188-9.423-0.541
			c-3.686,1.618-5.84,5.771-5.244,10.092c0.41,2.969,1.738,5.157,3.945,6.494c1.386,0.835,3.963,1.292,6.354,0.315
			c1.218-0.5,2.724-2.059,3.108-3.96c0.464-2.311,0-4.108-1.422-5.506c-1.4-1.369-3.453-1.039-4.45-0.631
			c-1.107,0.459-1.766,1.527-1.766,2.854c0,0.829,0.449,2.202,1.675,2.366c0.395,0.064,0.799,0.004,1.157-0.172
			c0.206-0.107,0.413-0.058,0.524,0.125c0.185,0.296,0.073,0.88-0.346,1.178c-1.07,0.766-2.631,0.519-3.466,0.304
			c-1.967-0.511-3.342-2.505-3.342-4.853c0-3.225,1.536-5.167,2.826-6.221c2.063-1.691,4.836-2.446,7.227-1.968
			c1.552,0.31,3.271,1.049,4.755,2.003C165.566,51.511,165.693,51.374,165.393,51.09L165.393,51.09z"/>
		<path fill="#93764F" d="M148.351,106.511c0.184-0.625,0.279-1.195,0.279-1.934c0-0.773-0.123-1.542-0.345-2.305
			c-0.054-0.18-0.229-0.192-0.325-0.095c-0.71,0.709-1.274,1.551-1.662,2.475c-0.126,0.302-0.024,0.448,0.089,0.563
			c0.4,0.392,0.925,0.89,1.544,1.426C148.156,106.836,148.293,106.714,148.351,106.511L148.351,106.511z M151.693,108.965
			c0.823-1.186,1.267-2.549,1.36-4.13c0.015-0.189-0.153-0.333-0.371-0.219c-1.31,0.668-2.438,1.643-3.29,2.842
			c-0.106,0.147-0.078,0.314,0.072,0.428c0.518,0.385,1.117,0.805,1.704,1.182C151.341,109.184,151.575,109.139,151.693,108.965
			C151.692,108.965,151.693,108.965,151.693,108.965L151.693,108.965z M150.179,99.864c-0.058-0.124-0.232-0.064-0.261,0.09
			c-0.104,0.544-0.157,1.098-0.162,1.652c0,0.804,0.126,1.549,0.357,2.198c0.09,0.253,0.297,0.298,0.451,0.14
			c0.419-0.436,0.796-0.962,1.117-1.561c0.069-0.096,0.022-0.276-0.141-0.451c-0.273-0.302-0.523-0.622-0.747-0.962
			C150.562,100.618,150.355,100.249,150.179,99.864z"/>
		<path fill="#93764F" d="M132.961,123.038c0.148-0.538,0.254-1.087,0.311-1.644c0.037-0.319-0.232-0.252-0.422-0.157
			c-0.853,0.433-1.644,0.98-2.346,1.626c-0.139,0.123-0.135,0.348,0.045,0.352c0.665,0.025,1.313,0.088,1.941,0.188
			C132.723,123.441,132.888,123.313,132.961,123.038z M143.013,121.153c1.352-0.829,2.445-2.022,3.151-3.442
			c0.078-0.157-0.04-0.313-0.251-0.291c-2.147,0.23-4.646,1.562-6.144,3.27c-0.229,0.261,0,0.32,0.115,0.315
			c0.844-0.058,1.69,0.02,2.507,0.226C142.614,121.288,142.836,121.263,143.013,121.153L143.013,121.153z"/>
		<path fill="#93764F" d="M146.804,115.266c-0.471-0.316-1.021-0.708-1.519-1.092c-0.208-0.159-0.354-0.078-0.413,0.048
			c-0.249,0.555-0.41,1.146-0.473,1.753c-0.027,0.294,0.099,0.349,0.399,0.291c0.697-0.113,1.373-0.319,2.012-0.615
			C146.996,115.562,146.918,115.353,146.804,115.266L146.804,115.266z"/>
		<path fill="#93764F" d="M143.265,112.313l-0.65-0.667c-0.168-0.171-0.284-0.105-0.388,0.022c-1.41,1.682-2.362,4.147-2.362,6.165
			c0,0.102,0.007,0.2,0.016,0.295c0.02,0.251,0.287,0.256,0.365,0.196c0.419-0.303,1.013-0.722,1.572-1.038
			c0.194-0.129,0.355-0.302,0.468-0.506c0.695-1.221,1.082-2.593,1.13-3.995C143.423,112.616,143.371,112.448,143.265,112.313z
			 M137.494,121.085c0.613-1.191,0.933-2.512,0.936-3.852l-0.011-0.242c-0.012-0.213-0.176-0.233-0.367-0.108
			c-1.225,0.823-2.409,2.229-3.196,3.795c-0.057,0.121-0.259,1.265-0.328,1.623c-0.029,0.168,0.104,0.268,0.243,0.192
			c0.688-0.385,1.434-0.718,2.213-0.965C137.206,121.457,137.391,121.296,137.494,121.085L137.494,121.085z"/>
		<path fill="#93764F" d="M152.838,116.891c-2.736-1.075-5.267-2.609-7.484-4.537c-0.038-0.045-0.083-0.085-0.136-0.114
			c-0.868-0.771-1.571-1.491-2.113-2.105c-0.101-0.12-0.26-0.365-0.073-0.647c0.117-0.178,0.236-0.354,0.351-0.533
			c0.153-0.207,0.423-0.052,0.531,0.076c3.039,3.476,7.99,6.073,11.688,7.106c0.749,0.214,1.519,0.361,2.296,0.443
			c0.466,0.02,0.443,0.426,0.272,0.563c-3.803,3.03-7.513,5.685-9.052,6.385c-0.239,0.111-0.881,0.132-1.039,0.106
			c-1.188-0.207-2.239-0.77-3.107-1.282c-0.108-0.066-0.249-0.269-0.009-0.459c0.185-0.157,0.407-0.349,0.575-0.502
			c0.123-0.123,0.35-0.059,0.458-0.004c0.484,0.271,1.097,0.536,1.19,0.574c0.271,0.091,0.566,0.07,0.819-0.061
			c0.147-0.1,3.505-2.393,5.054-3.939c0.157-0.155,0.227-0.379,0.182-0.595C153.19,117.152,153.041,116.976,152.838,116.891
			L152.838,116.891z M144.613,106.894c0.09-0.147,0.239-0.39,0.324-0.54c0.087-0.133,0.291-0.085,0.432,0.049
			c2.329,2.32,8.1,7.124,13.48,6.903c1.227-0.049,1.552-0.766,1.642-1.146c0.46-2.001-3.49-5.08-5.394-6.329
			c-0.145-0.095-0.391-0.223-0.41-0.704c0.004-0.139-0.021-0.315,0.035-0.513c0.023-0.228,0.3-0.192,0.448-0.113
			c3.188,1.711,7.093,5.305,7.052,7.762c-0.02,0.936-0.337,1.64-0.943,2.093c-1.037,0.773-2.872,0.84-5.166,0.201
			c-3.067-0.862-8.422-3.435-11.406-7.144C144.634,107.32,144.449,107.117,144.613,106.894L144.613,106.894z"/>
		<path fill="#93764F" d="M108.546,115.708c-6.744,0-12.784,1.006-17.877,2.931c-0.297,0.131-0.29,0.399-0.123,0.495
			c5.424,3.028,11.561,4.635,18.011,4.635c6.631,0,12.938-1.698,18.476-4.898C121.894,116.824,115.652,115.708,108.546,115.708
			L108.546,115.708z M92.238,73.288c0-10.083,7.321-18.286,16.32-18.286c8.996,0,16.314,8.203,16.314,18.286
			c0,10.079-7.32,18.282-16.314,18.282C99.559,91.572,92.238,83.369,92.238,73.288z M100.232,100.848l-0.525-0.045l-0.092-0.037
			c-0.023-0.063-0.037-0.129-0.04-0.196c-0.042-0.369-0.042-1.115-0.042-1.982v-1.618l0.042-2.148l0.004-0.133
			c0-0.443-0.327-0.455-0.364-0.455l-0.375,0.161l-1.087,0.723l-0.589,0.394c-0.119,0.092-0.18,0.203-0.18,0.316
			c0,0.171,0.127,0.352,0.326,0.352l0.246-0.07l0.098-0.049c0.125-0.062,0.451-0.219,0.644-0.294l0.005,1.29v1.532l-0.025,1.993
			c-0.012,0.184-0.012,0.184-0.141,0.207l-0.652,0.057c-0.188,0.001-0.343,0.154-0.345,0.342c0,0.057,0.02,0.338,0.413,0.338
			l1.23-0.024l0.112-0.004l0.072,0.006l1.185,0.023c0.4,0,0.423-0.283,0.423-0.337C100.572,101.001,100.419,100.852,100.232,100.848
			L100.232,100.848z M104.293,94.235c-1.369,0-2.367,0.974-2.367,2.313c0,0.954,0.715,1.965,2.041,1.965
			c0.344,0,0.834-0.122,1.172-0.428c-0.283,1.216-1.051,2.266-2.126,2.901c-0.139,0.068-0.228,0.209-0.227,0.364
			c0,0.199,0.155,0.362,0.339,0.362l0.264-0.066c1.467-0.735,3.182-2.417,3.182-4.755C106.575,95.326,105.637,94.235,104.293,94.235
			L104.293,94.235z"/>
		<path fill="#FFFFFF" d="M104.196,97.643c-0.008-0.002-1.039-0.111-1.039-1.471c0-0.531,0.286-1.065,0.928-1.065
			c0.582,0,1.17,0.631,1.17,2.038c0,0.045-0.002,0.09-0.006,0.137C104.968,97.549,104.583,97.68,104.196,97.643z"/>
		<path fill="#93764F" d="M117.207,94.235c-1.367,0-2.361,0.974-2.361,2.313c0,0.954,0.714,1.965,2.04,1.965
			c0.337,0,0.828-0.122,1.169-0.428c-0.284,1.215-1.051,2.263-2.121,2.901c-0.143,0.065-0.234,0.208-0.234,0.364
			c0,0.199,0.156,0.362,0.347,0.362l0.265-0.066c1.462-0.735,3.184-2.417,3.184-4.755C119.486,95.326,118.552,94.235,117.207,94.235
			L117.207,94.235z"/>
		<path fill="#FFFFFF" d="M117.111,97.643c-0.013-0.002-1.04-0.111-1.04-1.471c0-0.531,0.288-1.065,0.929-1.065
			c0.582,0,1.173,0.631,1.173,2.04l-0.006,0.133C117.886,97.548,117.498,97.68,117.111,97.643z"/>
		<path fill="#93764F" d="M110.831,94.235c-1.6,0-2.633,1.532-2.633,3.907c0,1.744,0.771,3.507,2.487,3.507
			c1.579,0,2.64-1.572,2.64-3.909C113.326,95.996,112.555,94.235,110.831,94.235L110.831,94.235z"/>
		<path fill="#FFFFFF" d="M110.863,100.778c-0.905,0-1.381-1.509-1.381-2.992c0-1.604,0.473-2.68,1.173-2.68
			c0.899,0,1.388,1.55,1.388,3.01C112.043,99.709,111.563,100.778,110.863,100.778L110.863,100.778z"/>
		<path fill="#93764F" d="M94.432,110.618l-2.778,0.942l-1.433-2.557c-0.036-0.066-0.111-0.098-0.183-0.078
			c-0.071,0.018-0.121,0.082-0.123,0.154l0.038,2.938l-2.875,0.573c-0.073,0.016-0.126,0.075-0.134,0.149v0.008
			c0,0.073,0.046,0.139,0.118,0.159l2.804,0.865l-0.35,2.916v0.017c0,0.067,0.042,0.127,0.103,0.151
			c0.071,0.029,0.151,0.005,0.195-0.058c0,0,1.548-2.19,1.687-2.394l2.669,1.225c0.067,0.034,0.149,0.018,0.197-0.041
			c0.022-0.033,0.036-0.068,0.036-0.104c0-0.034-0.014-0.069-0.034-0.097l-1.758-2.347l1.995-2.156
			c0.028-0.029,0.043-0.069,0.044-0.109c-0.002-0.03-0.01-0.063-0.026-0.09C94.582,110.622,94.503,110.594,94.432,110.618
			L94.432,110.618z M103.335,109.079c0,0-2.61,0.616-2.851,0.669l-1.185-2.684c-0.032-0.066-0.105-0.105-0.178-0.094
			c-0.074,0.012-0.129,0.073-0.134,0.147l-0.244,2.924l-2.92,0.296c-0.072,0.005-0.132,0.062-0.141,0.136l-0.001,0.025
			c0,0.065,0.04,0.125,0.101,0.15c0,0,2.472,1.034,2.699,1.134l-0.62,2.861c-0.004,0.013-0.004,0.024-0.004,0.039
			c0,0.058,0.035,0.114,0.091,0.142c0.067,0.036,0.149,0.019,0.197-0.042l1.914-2.22l2.534,1.478
			c0.064,0.037,0.148,0.025,0.201-0.028c0.029-0.03,0.045-0.071,0.045-0.115c0-0.032-0.01-0.062-0.026-0.086l-1.521-2.502
			l2.184-1.951c0.038-0.029,0.058-0.076,0.053-0.123c0-0.026-0.005-0.051-0.014-0.074
			C103.481,109.096,103.408,109.063,103.335,109.079L103.335,109.079z M112.373,108.97l-2.931,0.194
			c-0.058-0.24-0.719-2.843-0.719-2.843c-0.022-0.074-0.082-0.125-0.155-0.125c-0.076,0-0.141,0.051-0.161,0.125
			c0,0-0.662,2.603-0.726,2.843l-2.919-0.194c-0.074-0.004-0.141,0.042-0.165,0.113c-0.006,0.02-0.012,0.035-0.012,0.05
			c0,0.055,0.032,0.108,0.077,0.139l2.479,1.561l-1.09,2.725c-0.006,0.02-0.009,0.039-0.009,0.06c0,0.051,0.025,0.1,0.067,0.129
			c0.06,0.048,0.141,0.044,0.201-0.005c0,0,2.065-1.712,2.258-1.875c0.187,0.163,2.25,1.875,2.25,1.875
			c0.058,0.049,0.142,0.053,0.203,0.005c0.059-0.043,0.082-0.119,0.054-0.188c0,0-0.988-2.495-1.086-2.725
			c0.208-0.127,2.48-1.564,2.48-1.564c0.046-0.03,0.074-0.081,0.072-0.137c0-0.02,0-0.035-0.007-0.052
			C112.515,109.008,112.447,108.963,112.373,108.97L112.373,108.97z M122.701,110.618l2.773,0.942l1.436-2.557
			c0.037-0.066,0.115-0.099,0.185-0.078c0.069,0.02,0.12,0.084,0.12,0.154c0,0.004-0.03,2.689-0.039,2.938l2.874,0.573
			c0.073,0.016,0.127,0.075,0.133,0.149v0.008c0,0.073-0.045,0.138-0.113,0.159l-2.806,0.865l0.349,2.916v0.017
			c0.001,0.067-0.042,0.128-0.104,0.151c-0.066,0.029-0.147,0.005-0.192-0.058c0,0-1.547-2.19-1.697-2.394l-2.662,1.225
			c-0.065,0.037-0.147,0.014-0.196-0.041c-0.021-0.033-0.034-0.068-0.034-0.104c0-0.034,0.008-0.069,0.032-0.097
			c0,0,1.605-2.149,1.759-2.347l-1.995-2.156c-0.028-0.029-0.043-0.069-0.043-0.109c0-0.03,0.005-0.063,0.024-0.09
			C122.547,110.622,122.626,110.594,122.701,110.618L122.701,110.618z M113.793,109.079c0,0,2.611,0.616,2.852,0.669l1.185-2.684
			c0.032-0.066,0.103-0.105,0.176-0.094c0.074,0.013,0.131,0.073,0.14,0.147c0,0,0.22,2.68,0.244,2.924l2.915,0.296
			c0.069,0.007,0.135,0.06,0.144,0.136c0.001,0.007,0.003,0.017,0.003,0.025c0,0.064-0.04,0.121-0.101,0.15l-2.704,1.134
			l0.619,2.861c0.004,0.013,0.004,0.024,0.004,0.039c-0.002,0.09-0.076,0.161-0.167,0.16c-0.046,0-0.091-0.023-0.12-0.061
			l-1.914-2.22l-2.533,1.478c-0.065,0.037-0.147,0.025-0.199-0.028c-0.032-0.03-0.049-0.071-0.045-0.115
			c0-0.032,0.003-0.058,0.022-0.086l1.522-2.502l-2.189-1.951c-0.034-0.033-0.054-0.077-0.054-0.123c0-0.029,0.008-0.051,0.02-0.074
			C113.646,109.096,113.72,109.063,113.793,109.079L113.793,109.079z"/>
		<path fill="#FFFFFF" d="M115.856,61.419c-2.316,0-13.383,0.03-14.67,0.03c-0.374,0.441-0.891,1.619-1.195,2.041
			c1.146-0.56,2.389-0.974,2.389-0.974s0.217,12.001,0.217,16.015c0,3.576,0.045,6-0.471,6.799h6.086l0.529-1.534
			c0,0-0.905,0.565-1.749,0.565c0.141-1.271,0.093-4.09,0.093-5.03V63.019h3.532c0,0-0.139,0.706-0.139,1.504
			c0,0,0.045,10.06,0.045,14.01c0,3.577,0.046,6.001-0.474,6.799h6.09l0.528-1.534c0,0-0.905,0.564-1.751,0.564
			c0.144-1.269,0.094-4.089,0.094-5.029c0-0.94-0.094-15.77,0-16.313C115.106,62.477,115.233,62.015,115.856,61.419L115.856,61.419z
			"/>
		<path fill="#93764F" d="M116.279,46.346c0.566-1.015,2.714-4.07,5.381-5.426c0.32-0.167,1.757-1.052,2.239-1.141
			c0.597-0.108,0.903-0.342,1.396-0.834c0.033-0.034,0.164-0.108,0.315-0.034l0.55,0.246c0.167,0.108,0.14,0.21,0.167,0.314
			c-0.081,0.896-0.548,1.54-1.36,1.455c-0.373-0.042-2.385,0.715-3.007,1.228c-0.479,0.396-1.927,2.549-2.53,3.383
			c-0.501,0.689-0.651,0.89-0.866,1.108c-0.128,0.123-0.333,0.664,0,0.984c1.682,1.629,3.038,3.585,3.175,3.801
			c0.135,0.219,0.431,0.455,0.791,0.408c0.757-0.096,1.522-0.109,2.282-0.039c0.298,0.025,0.38-0.158,0.38-0.356
			c0-0.868,0.406-2.119,0.488-2.418c0.078-0.306,0.259-0.576,0.517-0.761c0.349-0.239,0.674-0.404,0.92-0.568
			c0.257-0.169,0.302-0.439-0.021-0.493c-0.329-0.054-1.253,0.082-1.77,0.216c-0.443,0.115-0.684-0.242-0.851-0.427
			c-0.236-0.28-0.078-1.169,0.116-1.938c0.234-0.906-0.17-1.36-0.461-1.768c-0.443-0.623,0.488-1.223,0.844-1.278
			c0.35-0.053,1.168,0.109,1.657-0.46c0.263-0.308,0.598-0.922,0.632-1.254c0.005-0.118,0.028-0.234,0.069-0.344
			c0.04-0.06,0.122-0.167,0.235-0.103c0.548,0.285,1.064,0.571,1.589,0.879c0.12,0.082,0.128,0.232,0.135,0.33
			c0.036,0.379-0.213,1.549-1.034,2.229c-0.813,0.681-2.336,0.896-2.634,1.003c-0.304,0.11-0.461,0.463-0.304,0.709
			c0.168,0.244,0.552,0.402,1.2,0.326c0.925-0.109,2.175-0.708,3.017-1.497c0.882-0.824,1.064-1.439,1.197-1.82
			c0.011-0.018,0.017-0.037,0.021-0.057c0.016-0.06,0.098-0.166,0.287-0.026c0.745,0.514,1.475,1.063,2.18,1.641
			c0.35,0.274,0.488,0.945,0.512,1.238c0.022,0.332,0.007,0.612-0.009,0.732c-0.06,0.37-0.132,0.607-0.438,0.775
			c-0.303,0.161-0.466,0.189-0.567,0.268c-0.104,0.082-0.218,0.165-0.248,0.354c-0.036,0.253-0.135,1.323-0.151,1.469
			c-0.027,0.238-0.303,0.302-0.48,0.238c-0.147-0.051-0.307,0.006-0.451,0.191c-0.144,0.186-0.583,1.021-0.729,1.204
			c-0.141,0.187-0.678,0.368-1.003,0.119c-0.269-0.206-0.342-0.341-0.474-0.513c-0.065-0.087-0.395-0.077-0.456,0.273
			c-0.058,0.343-0.113,0.392-0.136,0.987c-0.032,0.337-0.022,0.677,0.032,1.011c0.062,0.347,0.155,0.732,0.474,0.921
			c0.476,0.29,0.795,0.548,1.12,0.614c0.326,0.058,1.592,0.258,1.938,0.381c0.35,0.121,1.183,0.274,2.04,1.212
			c0.373,0.403,0.931,0.721,1.53,0.665c1.155-0.101,3.281,0.233,3.85,0.392c0.568,0.158,0.693-0.158,0.615-0.755
			c-0.341-2.597-0.295-3.638-1.01-5.084c0,0,0.024-0.237,0.184-0.038c0.198,0.261,0.387,0.529,0.567,0.803
			c0.5,0.751,0.973,1.528,1.423,2.324c0.124,0.226,0.234,0.44,0.318,0.629c0.554,1.214,0.732,2.49,0.766,2.667
			c0.094,0.511,0.073,0.888-0.176,1.132c-0.239,0.249-1.494,0.952-3.64,0.927c-2.147-0.026-3.392-0.304-3.502-0.33
			c-0.109-0.03-0.406-0.109-0.298,0.189c0.109,0.299,0.811,1.319,0.889,2.134c0.085,0.815,0.143,1.703,1.338,2.521
			c0.352,0.241,0.955,0.62,1.095,0.746c0.374,0.352,0.315,0.763,0.074,0.821c-0.243,0.055-0.911-0.162-1.103-0.162
			c-0.384,0-0.555,0.49-0.236,0.603c0.419,0.147,1.214,0.443,1.987,0.788c0.598,0.269,1.901,1.171,2.086,1.346
			c0.794,0.749,1.684,2.108,0.979,2.621c-0.703,0.517,0.786,1.569,1.172,2.062c0.311,0.394,0.578,1.119,0.051,1.532
			c-0.342,0.273-0.167,0.692-0.167,0.692c0.008,0.014,0.008,0.024,0.013,0.036c0.45,1.143,2.366,6.85,1.715,10.97
			c-0.047,0.285-0.082,0.774-0.615,0.859c-0.528,0.08-1.342,0.366-1.592,0.733c-0.243,0.366-0.159,1.06-0.283,1.63
			c-0.122,0.571-0.369,0.979-1.063,1.185c-0.691,0.202-1.501,0.123-1.914,0.202c-0.406,0.083-1.592,0.694-1.711,1.754
			c-0.123,1.06,0.254,1.944,1.185,2.404c0.629,0.308,0.871,0.952,1.034,1.361c0.163,0.408,0.321,1.55,0.284,1.876
			c-0.028,0.204,0.122,0.609,0.531,0.365c0.408-0.244,0.56-1.206,0.244-2.363c-0.492-1.794-0.952-2.132-1.77-2.543
			c-0.361-0.181-0.651-1.263,0.123-1.548c0.775-0.286,1.141-0.286,2.199-0.286c1.223,0,2.244-0.573,2.123-1.876
			c-0.121-1.308-0.085-0.9-0.085-1.103c0-0.205,0.169-0.445,0.735-0.531c0.495-0.071,0.72,0.302,0.767,0.555
			c0.127,0.71,0.074,2.056-0.16,2.979c-0.419,1.665-1.652,4.237-2.735,6.641c-0.904,2.017-1.604,2.257-2.096,2.293
			c-1.142,0.084-2.012-1.25-2.501-1.495c-0.488-0.245-1.016-0.343-1.429-0.245c-0.447,0.109-0.528,0-0.528-0.533
			c0-0.529-0.33-3.301,1.058-6.932c0.142-0.374,0.153-1.274-0.041-1.506c-0.116-0.141-0.542-0.397-0.772,0.04
			c-0.858,1.634-1.754,7.262-1.563,11.939c0.024,0.616,0.306,1.561,0.613,2.189c0.349,0.72,0.975,1.528,1.479,2.007
			c0.194,0.183,0.619,0.443,0.8,0.672c0.178,0.23,0.141,0.45-0.29,0.5c-0.374,0.045-3.294-1.807-4.641-2.082
			c-1.382-0.285-1.36-0.852-1.243-1.257c0.113-0.4,0.478-0.456,0.847-1.097c0.49-0.858,1.196-3.042,0.997-5.244
			c-0.206-2.201-0.869-6.308-0.127-8.521c1.134-3.412,4.691-7.613,5.492-12.071c0.086-0.49,0.24-0.49,0.327,0.037
			c0.082,0.533-0.046,4.577-1.145,7.669c-0.262,0.743-0.505,1.957-0.419,2.203c0.075,0.242,0.268,0.445,0.5,0
			c0.473-0.893,1.109-2.484,1.429-3.512c0.403-1.295,0.859-3.272,1.429-4.28c0.5-0.878,1.056-0.99,1.421-0.99
			c0.381,0,0.28-0.574-0.049-0.849c-0.327-0.271-1.37-0.693-1.985,0.74c-0.094,0.224-0.169,0.269-0.156-0.166
			c0.021-1.087-0.579-3.965-1.173-4.289c-0.519-0.276-0.572,0.212-0.6,0.402c-0.027,0.193-0.524,2.858-1.086,4.269
			c-0.925,2.311-3.521,6.916-4.384,8.501c-0.716,1.313-1.481,3.566-1.428,5.184c0.078,2.288,0.916,6.234,0.538,7.7
			c-0.24,0.919-0.464,1.504-0.947,2.281c-0.187,0.317-0.379,0.021-0.306-0.387c0.12-0.647,0.187-1.357,0.005-1.744
			c-0.304-0.624-0.835-1.195-1.091-1.789l-0.071-0.256c-0.035-0.291,0.024-0.634,0.289-0.779c0.35-0.187,0.869-0.769,1.055-1.232
			c0.195-0.459,0.012-1.18-0.15-1.479c-0.163-0.298-2.089-4.863-4.837-5.218c-0.379-0.05-0.31-0.386-0.066-0.604
			c0.245-0.214,2.555-2.353,3.836-3.982c1.282-1.631,4.165-5.882,4.638-7.774c0.2-0.782-0.419-0.854-0.644-0.519
			c-0.354,0.545-1.173,2.75-4.048,6.119c-0.271,0.314-0.375,0.143-0.216-0.163c1.272-2.47,3.472-6.744,3.418-9.461
			c-0.011-0.574-0.491-0.427-0.569-0.083c-0.127,0.589-0.269,0.795-0.66,1.22c-0.117,0.125-0.391,0.276-0.35-0.127
			c0.123-1.253,0-3.334-0.199-4.137c-0.068-0.266,0.291-0.049,0.425,0.066c0.912,0.789,1.951,0.84,3.286,0.94
			c2.23,0.165,4.319,0.873,5.542,1.772c1.226,0.899,1.495,1.384,1.71,1.571c0.217,0.188,0.654,0.435,0.845,0.217
			c0.189-0.217,0.163-0.414-0.136-0.821c-1.2-1.635-2.013-2.517-5.188-3.579c-2.12-0.706-3.245-0.815-4.487-0.979
			c-0.501-0.066-1.763-0.364-1.792-1.149c-0.021-0.432,1.079-0.654,1.385-0.644c2.771,0.079,7.704,2.746,8.38,3.324
			c0.384,0.331,0.624,0.089,0.68-0.049c0.055-0.133,0.081-0.516-0.38-0.922c-0.462-0.408-4.417-2.939-7.568-3.483
			c-0.385-0.064-0.385-0.217-0.408-0.38c-0.112-0.732-0.863-1.702-2.084-2.684c-0.241-0.19-1.01-1.092-1.148-1.313
			c-0.135-0.215-0.375-0.209-0.3,0.107c0.082,0.329,0.425,1.159,1.058,1.923c0.464,0.564,1.058,1.413,1.085,1.657
			c0.027,0.246,0.027,0.354-0.19,0.354c-1.246-0.004-2.08-1.119-2.63-2.102c-0.664-1.183-1.541-2.407-2.612-3.723
			c-0.012-0.01-0.022-0.022-0.031-0.034c-0.615-0.898-0.527-4.198-0.555-4.703c-0.038-0.642,0.18,0.431,0.004,0.337
			c-0.209-0.111-0.295,0.034-0.313,0.183c-0.019,0.178,0.135,0.84-0.094,1.57c-0.042,0.131-0.091,0.225-0.181,0.406
			c-0.064,0.133-0.287,0.185-0.372,0.07c-0.285-0.429-0.634-0.813-1.034-1.138c-0.41-0.327-1.025-0.921-1.82-1.259
			c-0.993-0.421-2.826-2.265-3.685-3.472c-0.857-1.21-1.603-2.849-1.706-3.11C115.84,47.144,116.116,46.636,116.279,46.346
			L116.279,46.346z M95.864,91.105c-0.473,0.471-1.179,1.143-3.008,1.343c-0.92,0.099-1.459,0.151-1.838,0.127L95.864,91.105
			L95.864,91.105z M75.45,55.159c0.664-1.145,1.39-2.252,2.174-3.318l0.084-0.115c0.071-0.1,0.266-0.174,0.16,0.24
			c-0.429,1.7-0.534,4.188-0.956,5.302c-0.076,0.193-0.018,0.426,0.284,0.287c0.875-0.405,3.962-0.964,5.587-0.968
			c0.29-0.001,0.999-0.471,1.311-0.62c0.485-0.229,1.159-0.579,2.668-0.761c0.545-0.067,1.775-0.552,1.854-1.063
			c0.067-0.434,0.118-0.871,0.153-1.31c0-0.063,0.056-0.201,0.189-0.265c0.167-0.08,1.087-0.605,1.103-1.181
			c0.015-0.5,0.105-0.662,0.147-0.763c0.034-0.08,0.012-0.181-0.113-0.181c-0.133,0-0.217,0.089-0.281,0.185
			c-0.107,0.165-0.258,0.429-0.429,0.622c-0.362,0.414-0.757,0.592-1.038,0.723c-0.144,0.066-0.527,0.124-0.669-0.079
			c-0.145-0.125-0.67-1.04-0.734-1.141c-0.077-0.119-0.18-0.234-0.365-0.213c-0.183,0.021-0.286,0.104-0.449,0
			c-0.165-0.104-0.165-0.489-0.223-0.794c-0.063-0.304-0.206-0.721-0.453-0.847c-0.244-0.121-0.446-0.32-0.446-0.775
			c0-0.735,0.006-1.153,0.049-1.315c0.04-0.166,0.04-0.279-0.123-0.38c-0.161-0.101-0.41-0.189-0.553,0.178
			c-0.115,0.293-0.247,1.027-0.187,1.852c0.014,0.205-0.342,0.326-0.521-0.293c-0.324-1.094-0.277-2.035-0.074-2.4
			c0.124-0.227,0.64-0.691,0.812-0.821c1.386-1.043,2.855-1.973,4.39-2.782c0.205-0.093,0.407-0.188,0.616-0.288
			c0.274-0.163,0.619-0.146,0.876,0.042c0.187,0.136,0.427,0.333,0.753,0.722c0.662,0.779,0.732,2.124,0.732,2.311
			c0,0.19-0.05,0.238-0.146,0.229c-0.252-0.014-0.763,0.014-1.228-0.339c-0.143-0.11-0.248-0.172-0.058-0.284
			c0.193-0.107,0.495-0.028,0.688-0.001c0.19,0.027,0.236,0.04,0.236-0.123c0-0.161-0.126-0.643-0.48-0.722
			c-0.902-0.207-1.442,0.791-2.557,0.845c-0.68,0.033-0.65-0.491-1.415-0.491c-0.517,0-1.276,0.819-1.415,1.007
			c-0.136,0.192-0.124,0.379-0.04,0.461c0.079,0.081,0.387,0.241,0.695-0.054c0.113-0.107,0.34-0.31,0.449-0.383
			c0.111-0.071,0.104-0.081,0.256,0.01c0.153,0.093,0.582,0.684,1.305,0.735c0.724,0.051,1.213-0.469,1.61-0.367
			c0.233,0.059,0.338,0.601,0.328,0.761c-0.01,0.166,0.092,0.239,0.276,0.175c0.529-0.176,1.038-0.01,1.222,0.131
			c0.183,0.145,0.153,0.35,0.101,0.634c-0.051,0.284-0.336,0.447-0.437,0.292c-0.026-0.037,0-0.212-0.04-0.439
			c-0.042-0.222-0.226-0.12-0.247-0.087c-0.022,0.028-0.094,0.314-0.174,0.62c-0.083,0.306-0.375,0.457-0.488,0.529
			c-0.113,0.074-0.222,0.165-0.245,0.276c-0.02,0.111,0.012,0.373,0.131,0.481c0.17,0.148,0.618,0.031,0.776-0.074
			c0.167-0.1,0.262-0.488,0.498-0.533c0.236-0.04,0.429-0.141,0.847-0.528c0.421-0.387,0.453-1.366,0.582-1.803
			c0.129-0.437,0.38-1.937,0.008-3.197c-0.186-0.644-0.642-1.248-0.911-1.689c-0.094-0.147-0.115-0.239,0.052-0.306
			c0.139-0.056,0.627-0.123,0.812-0.016c0.422,0.241,1.208,0.577,1.5,0.729c0.704,0.368,1.866,0.741,2.727,1.319
			c0.412,0.276,0.759,1.126,1.993,2.133c1.471,1.194,2.649,3.453,3.07,4.349c0.14,0.302,0.138,0.651-0.004,0.953
			c-0.09,0.226-0.541,1.437-1.517,2.41c-2.41,2.422-4.512,3.209-6.731,4.109c-2.145,0.866-2.402,3.173-4.251,5.34
			c-2.641,3.094-5.52,4.146-6.247,4.505c-0.789,0.383-2.831,1.566-4.801,1.953c-0.804,0.158-0.616-0.566-0.431-0.983
			c0.298-0.669,1.093-0.969,1.707-1.744c0.537-0.673,0.214-1.655,0.285-2.202c0.069-0.549,0.604-1.308,0.689-1.449
			c0.072-0.112,0.247-0.298,0.439-0.463c-0.628-0.324-0.874-0.729-0.9-1.469c-0.008-0.282,0.051-0.704,0.457-0.848
			c1.629-0.566,2.238-1.228,2.483-1.443c0.179-0.146,0.334-0.318,0.459-0.511c0.08-0.117,0.093-0.224-0.037-0.204
			c-0.346,0.049-1.078,0.25-1.483,0.505c-0.861,0.542-1.454,0.493-1.939,0.689c-0.55,0.22-0.771,0.788-0.895,1.421
			c-0.91,0.136-2.965-0.062-3.783-0.194c-0.577-0.093-1.067-0.124-1.075-0.602C74.462,57.436,75.134,55.709,75.45,55.159
			L75.45,55.159z M82.91,69.745c-3.889,2.103-5.492,3.044-7.142,4.612L82.91,69.745z"/>
		<path fill="#93764F" d="M76.38,99.433c-1.1-1.183-2.152-3.804-2.394-4.399c-0.976-2.399-1.522-5.167-1.715-6.281
			c-0.207-1.217-0.004-2.979,0.402-4.654c0.776-3.223,1.184-4.247,3.224-7.411c2.119-3.291,6.375-5.181,7.736-6.024
			c1.107-0.688,2.984-1.785,4.646-2.996c0.382-0.277,0.404,0.289,0.356,0.513c-0.069,0.362-0.336,0.692-0.745,1.06
			c-0.272,0.246-1.006,0.844-1.31,1.083c-0.453,0.36-0.207,0.654-0.155,0.664c0.491,0.081,0.873,0.049,0.742,0.745
			c-0.629,3.295-0.25,7.271-0.019,9.884c0.247,2.692,1.246,5.45,1.41,5.951c0.161,0.503,0.502,1.211,0.927,1.078
			c0.432-0.132,0.221-0.726,0.175-1.067c-0.045-0.338-0.832-2.15-1.011-3.93c-0.018-0.162,0.187-0.238,0.247-0.108
			c0.624,1.423,2.621,4.797,3.445,5.726c0.153,0.173,0.05,0.305-0.129,0.333c-1.673,0.267-3.12,0.967-5.094,2.627
			c-0.167,0.144-0.202,0.009-0.202-0.083c0-0.979-0.256-1.734-0.688-2.738c-0.5-1.152-0.04-2.836,0.135-3.408
			c0.157-0.505-0.684-2.661-1.23-3.015c-0.262-0.165-0.293,1.143-0.2,1.393c0,0,0.361,1.06,0.123,1.95
			c-0.312,1.192-0.625,2.95,0.232,5.079c0.933,2.311-1.035,4.015-1.269,7.826c-0.147,2.351,0.416,4.318,1.063,4.818
			c0.387,0.302,0.559,0.566,0.608,0.831c0.113,0.575-0.353,1.002-0.777,1.05c-0.656,0.143-1.292,0.366-1.894,0.665
			c-0.803,0.377-1.884,1.003-2.671,1.366c-0.466,0.281-1.026,0.271-1.007-0.098c0.123-0.305,0.291-0.299,0.542-0.533
			c0.761-0.709,1.556-1.582,2.048-2.691c0.653-1.467,0.463-2.803,0.324-4.22c-0.163-1.615-0.589-2.391-1.5-2.426
			c-0.968-0.039-2.213,1.186-2.599,1.444C77.263,100.046,76.638,99.713,76.38,99.433L76.38,99.433z"/>
		<path fill="#FFFFFF" d="M128.239,46.501c-0.299-0.325-0.598-0.653-0.897-0.6c-0.297,0.055-0.687,0.331-0.903,0.548
			c-0.147,0.147-0.288,0.576-0.18,0.851c0.11,0.271,0.27,0.644,0.429,0.835c0.166,0.188,0.329,0.117,0.275-0.101
			c-0.048-0.192-0.084-0.384-0.109-0.579c-0.04-0.352,0.319-0.548,0.5-0.533c0.196-0.018,0.397,0.147,0.447,0.222
			c0.164,0.223,0.335,0.397,0.574,0.444c0.57,0.109,0.979-0.408,1.169-0.623c0.205-0.211,0.518-0.277,0.791-0.167
			c0.213,0.113,0.415,0.359,0.621,0.056c0.119-0.146,0.166-0.336,0.13-0.521c-0.012-0.169-0.29-0.261-0.566-0.325
			c-0.236-0.051-1.004-0.246-1.467,0.245C128.592,46.746,128.536,46.828,128.239,46.501L128.239,46.501z M127.985,56.205
			c-0.016-0.163-0.297-0.533-0.491-0.024c-0.104,0.264-0.339,1.949-0.362,2.442c-0.041,0.767,0.062,0.976,0.595,1.419
			c0.531,0.445,1.792,0.946,2.211,1.027c0.357,0.076,0.632-0.155,0.664-0.375c0.037-0.186,0.021-0.38-0.049-0.557
			c-0.07-0.208-0.521-0.472-0.856-0.55c-0.337-0.08-1.082-0.324-1.347-0.541c-0.15-0.125-0.289-0.574-0.335-0.952
			C127.955,57.53,127.998,56.368,127.985,56.205L127.985,56.205z M89.887,46.819c0.108-0.017,0.332-0.081,0.169-0.273
			c-0.164-0.187-0.603-0.121-0.847,0.012c-0.258,0.144-0.458,0.374-0.566,0.649c-0.085,0.255,0.097,0.354,0.214,0.416
			c0.108,0.057,0.356,0.022,0.453-0.014c0.16-0.064,0.308-0.276,0.249-0.436C89.507,47.034,89.68,46.851,89.887,46.819
			L89.887,46.819z M90.686,55.223c0.116-0.054,0.133-0.204-0.053-0.204c-0.166,0-1.546,0.419-2.444,1.055
			c-0.898,0.642-1.429,1.402-1.306,1.957c0.123,0.561,0.62,1.675,1.954,1.799c1.332,0.121,2.607-0.436,3.558-1.427
			c0.099-0.098,0.072-0.27-0.108-0.193c-0.177,0.085-1.832,0.943-3.019,0.606c-0.968-0.278-1.217-1.178-0.809-1.829
			C88.868,56.336,89.652,55.711,90.686,55.223L90.686,55.223z M85.076,62.098c-0.147,0.207-0.193,0.557-0.38,1.105
			c-0.244,0.714-0.693,0.753-0.898,1.243c-0.102,0.216-0.183,0.441-0.242,0.672c-0.026,0.12,0.004,0.232,0.196,0.216
			c0.273-0.019,1.306-0.386,1.489-0.753c0.185-0.368,0.101-1.284,0.408-1.939c0.306-0.652,0.717-0.983,0.677-1.228
			C86.294,61.26,85.559,61.417,85.076,62.098L85.076,62.098z M84.291,72.688c-1.288,1.407-1.916,1.087-3.563,3.004
			c-1.507,1.755-2.11,3.965-2.058,4.829c0.056,0.868,0.306,1.184,0.703,1.11c0.395-0.078,0.471-0.686,0.482-0.921
			c0.117-2.196,1.14-3.242,1.361-3.518c0.216-0.276,0.631-0.861,0.849-0.878c0.22-0.02,0.101,0.63,0.057,0.926
			c-0.04,0.296-0.701,2.752-0.823,3.302c-0.175,0.781,0.066,1.588,0.321,1.964c0.252,0.379,0.562,0.864,0.669,1.389
			c0.146,0.715-0.402,2.234-0.004,4.034c0.054,0.238,0.316,0.829,0.785,1.424c0.468,0.594,0.878,0.171,0.733-0.204
			c-0.938-2.405-0.201-4.28-0.067-5.375c0.125-0.984-0.155-1.206-0.368-1.747c-0.813-2.053-0.165-3.736,0.247-5.625
			c0.407-1.886,1.497-3.462,1.572-3.565c0.075-0.104,0.24-0.594,0.047-0.733C85.028,71.963,84.712,72.233,84.291,72.688
			L84.291,72.688z M77.597,84.299c0.075-0.539-0.555-0.783-0.865-0.356c-0.342,0.477-1.182,2.946-1.013,4.221
			c0.092,0.709,0.554,2.026,1.589,3.271c1.033,1.245,2.945,3.324,4.751,4.098c0.348,0.148,0.938-0.421,0.419-0.849
			c-1.255-1.035-3.561-2.947-4.616-5.085c-0.683-1.387-0.824-2.086-0.723-2.901C77.235,85.885,77.571,84.489,77.597,84.299
			L77.597,84.299z"/>
	</g>
	<g>
		<path fill="#1A171B" d="M147.146,152.417h21.09l0.504,7.294h-1.203c-0.479-2.3-1.24-3.906-2.279-4.823
			c-1.038-0.914-2.389-1.373-4.055-1.373h-5.222c-0.418,0-0.737,0.09-0.952,0.274c-0.216,0.185-0.326,0.47-0.326,0.848v7.704h2.286
			c1.222,0,2.217-0.354,2.979-1.067c0.762-0.709,1.173-1.801,1.235-3.273h1.24v10.014h-1.24c-0.063-1.656-0.479-2.844-1.253-3.557
			c-0.774-0.719-1.825-1.078-3.157-1.078h-2.09v8.597c0,0.31,0.129,0.549,0.387,0.714c0.259,0.169,0.688,0.248,1.29,0.248h4.117
			c4.479,0,7.058-2.319,7.739-6.954h1.297l-0.449,8.053h-21.938v-1.099h1.813c0.713,0,1.21-0.099,1.499-0.299
			s0.431-0.489,0.431-0.868v-17.134c0-0.378-0.129-0.663-0.381-0.848s-0.646-0.274-1.186-0.274h-2.176V152.417L147.146,152.417z
			 M131.093,152.417h12.275v1.098h-2.107c-0.935,0-1.529,0.095-1.775,0.284s-0.368,0.589-0.368,1.207v16.371
			c0,0.652,0.11,1.062,0.325,1.227c0.289,0.225,0.811,0.334,1.566,0.334h2.359v1.099h-12.275v-1.099h2.323
			c0.81,0,1.338-0.094,1.578-0.289c0.24-0.193,0.362-0.619,0.362-1.271v-16.371c0-0.622-0.11-1.012-0.326-1.156
			c-0.331-0.225-0.951-0.335-1.849-0.335h-2.089V152.417L131.093,152.417z M95.547,152.417h8.872l7.937,17.074l7.324-17.074h9.072
			v1.098h-2.21c-0.781,0-1.31,0.09-1.579,0.274c-0.271,0.185-0.406,0.509-0.406,0.968v17.114c0,0.344,0.166,0.603,0.485,0.793
			c0.325,0.184,0.885,0.273,1.678,0.273h2.032v1.099h-12.17v-1.099h2.274c0.644,0,1.124-0.099,1.437-0.299
			c0.314-0.2,0.468-0.454,0.468-0.768v-18.356l-8.804,20.521h-1.223l-9.467-20.437v15.716c0,0.934,0.147,1.632,0.437,2.096
			c0.283,0.465,0.694,0.818,1.229,1.067c0.535,0.251,1.418,0.404,2.654,0.459v1.099H95.547v-1.099
			c1.641-0.084,2.759-0.374,3.349-0.862c0.583-0.484,0.878-1.348,0.878-2.584v-14.908c0-0.374-0.136-0.644-0.412-0.813
			c-0.276-0.17-0.793-0.255-1.548-0.255h-2.267V152.417L95.547,152.417z M70.729,152.417h21.09l0.503,7.294h-1.204
			c-0.479-2.3-1.24-3.906-2.279-4.823c-1.038-0.914-2.39-1.373-4.054-1.373h-5.222c-0.418,0-0.738,0.09-0.952,0.274
			c-0.215,0.185-0.326,0.47-0.326,0.848v7.704h2.286c1.223,0,2.217-0.354,2.979-1.067c0.762-0.709,1.174-1.801,1.235-3.273h1.24
			v10.014h-1.24c-0.062-1.656-0.479-2.844-1.253-3.557c-0.774-0.719-1.825-1.078-3.158-1.078h-2.089v8.597
			c0,0.31,0.129,0.549,0.387,0.714c0.258,0.169,0.688,0.248,1.29,0.248h4.116c4.479,0,7.059-2.319,7.74-6.954h1.297l-0.45,8.053
			H70.729v-1.099h1.813c0.712,0,1.21-0.099,1.499-0.299c0.289-0.2,0.431-0.489,0.431-0.868v-17.134c0-0.378-0.13-0.663-0.381-0.848
			c-0.253-0.185-0.646-0.274-1.187-0.274h-2.174V152.417L70.729,152.417z M50.75,162.356h3.146c2.113,0,3.766-0.325,4.958-0.974
			c1.198-0.647,1.793-1.796,1.793-3.457c0-1.138-0.228-2.04-0.676-2.704c-0.448-0.659-1.039-1.113-1.769-1.358
			c-0.738-0.243-2.175-0.363-4.325-0.363c-1.413,0-2.292,0.08-2.624,0.239c-0.338,0.159-0.504,0.439-0.504,0.828V162.356
			L50.75,162.356z M42.629,152.417h13.755c2.66,0,4.73,0.494,6.199,1.477c1.468,0.983,2.205,2.275,2.205,3.871
			c0,0.96-0.295,1.807-0.872,2.551c-0.583,0.748-1.425,1.342-2.519,1.786c-1.1,0.443-2.826,0.763-5.179,0.958
			c1.721,0.379,2.899,0.755,3.545,1.117c0.65,0.365,1.706,1.318,2.063,1.921c0.64,1.08,1.261,4.947,1.515,6.984
			c0.164,1.313,0.747,2.144,1.156,2.614c0.31,0.356,0.645,0.539,1.007,0.539c0.369,0,0.713-0.221,1.032-0.665
			c0.319-0.443,0.517-1.226,0.584-2.344h1.229c-0.233,3.313-1.739,4.97-4.521,4.97c-0.874,0-1.636-0.179-2.273-0.54
			c-0.646-0.362-1.124-0.896-1.45-1.596c-0.245-0.527-1.216-5.847-1.527-8.077c-0.18-1.296-0.467-2.215-0.854-2.764
			c-0.393-0.544-1.001-0.982-1.825-1.313c-0.829-0.334-1.819-0.499-2.974-0.499H50.75v8.492c0,0.364,0.111,0.614,0.338,0.764
			c0.289,0.184,0.737,0.273,1.352,0.273h2.555v1.099H42.629v-1.099h2.61c0.578,0,1.002-0.09,1.272-0.273
			c0.271-0.19,0.406-0.439,0.406-0.764v-17.277c0-0.37-0.142-0.649-0.418-0.834s-0.694-0.274-1.26-0.274h-2.61V152.417
			L42.629,152.417z M180.949,162.356h3.146c2.112,0,3.766-0.325,4.957-0.974c1.198-0.647,1.794-1.796,1.794-3.457
			c0-1.138-0.227-2.04-0.676-2.704c-0.448-0.659-1.038-1.113-1.77-1.358c-0.737-0.243-2.175-0.363-4.325-0.363
			c-1.412,0-2.29,0.08-2.622,0.239c-0.338,0.159-0.504,0.439-0.504,0.828V162.356L180.949,162.356z M172.828,152.417h13.754
			c2.66,0,4.73,0.494,6.198,1.477c1.47,0.983,2.206,2.275,2.206,3.871c0,0.96-0.294,1.807-0.872,2.551
			c-0.583,0.748-1.427,1.342-2.52,1.786c-1.099,0.443-2.825,0.763-5.179,0.958c1.721,0.379,2.898,0.755,3.545,1.117
			c0.65,0.365,1.706,1.318,2.063,1.921c0.64,1.08,1.261,4.947,1.515,6.984c0.164,1.313,0.746,2.144,1.155,2.614
			c0.31,0.356,0.646,0.539,1.007,0.539c0.37,0,0.714-0.221,1.032-0.665c0.319-0.443,0.517-1.226,0.584-2.344h1.229
			c-0.234,3.313-1.739,4.97-4.521,4.97c-0.873,0-1.636-0.179-2.273-0.54c-0.646-0.362-1.124-0.896-1.45-1.596
			c-0.245-0.527-1.216-5.847-1.527-8.077c-0.181-1.296-0.466-2.215-0.854-2.764c-0.392-0.544-1.002-0.982-1.825-1.313
			c-0.828-0.334-1.817-0.499-2.972-0.499h-2.175v8.492c0,0.364,0.11,0.614,0.338,0.764c0.288,0.184,0.737,0.273,1.351,0.273h2.557
			v1.099h-12.366v-1.099h2.611c0.576,0,1-0.09,1.27-0.273c0.271-0.19,0.406-0.439,0.406-0.764v-17.277
			c0-0.37-0.142-0.649-0.418-0.834s-0.693-0.274-1.258-0.274h-2.611V152.417L172.828,152.417z M26.558,163.22h3.619
			c2.291,0,3.944-0.391,4.958-1.163c1.013-0.774,1.523-2.056,1.523-3.837c0-1.247-0.227-2.205-0.688-2.875
			c-0.455-0.662-1.125-1.161-2.003-1.481c-0.884-0.318-2.334-0.482-4.349-0.482c-1.333,0-2.175,0.104-2.525,0.309
			c-0.357,0.204-0.535,0.559-0.535,1.067V163.22L26.558,163.22z M18.546,152.417h13.123c2.967,0,5.229,0.544,6.789,1.637
			c1.56,1.094,2.334,2.52,2.334,4.286c0,1.761-0.719,3.108-2.157,4.031c-1.978,1.276-4.423,1.916-7.323,1.916h-4.754v7.379
			c0,0.429,0.129,0.738,0.381,0.922c0.332,0.235,0.786,0.35,1.345,0.35h3.028v1.099H18.546v-1.099h2.667
			c0.528,0,0.915-0.084,1.16-0.254c0.246-0.169,0.369-0.403,0.369-0.693v-17.233c0-0.438-0.154-0.757-0.466-0.952
			c-0.313-0.195-0.903-0.29-1.764-0.29h-1.966V152.417z"/>
		<path fill="#1A171B" d="M66.024,186.663v2.774h-1.623v-7.876h3.071c0.591,0,1.112,0.109,1.56,0.325
			c0.449,0.216,0.794,0.524,1.036,0.921c0.241,0.398,0.361,0.854,0.361,1.36c0,0.772-0.264,1.38-0.792,1.825
			c-0.527,0.446-1.259,0.67-2.192,0.67H66.024L66.024,186.663z M66.024,185.349h1.449c0.428,0,0.757-0.102,0.983-0.304
			c0.224-0.201,0.337-0.491,0.337-0.865c0-0.386-0.115-0.697-0.342-0.937c-0.226-0.237-0.54-0.36-0.94-0.366h-1.487V185.349
			L66.024,185.349z M76.812,187.814h-2.845l-0.54,1.623h-1.724l2.93-7.876h1.504l2.948,7.876h-1.727L76.812,187.814L76.812,187.814z
			 M74.404,186.5h1.97l-0.989-2.948L74.404,186.5L74.404,186.5z M82.262,188.134h3.445v1.304h-5.068v-7.876h1.623V188.134
			L82.262,188.134z M91.903,187.814h-2.845l-0.541,1.623h-1.724l2.93-7.876h1.504l2.948,7.876H92.45L91.903,187.814L91.903,187.814z
			 M89.495,186.5h1.97l-0.989-2.948L89.495,186.5L89.495,186.5z M101.913,186.813c-0.062,0.848-0.375,1.516-0.939,2.001
			c-0.563,0.488-1.308,0.731-2.229,0.731c-1.011,0-1.804-0.34-2.384-1.02c-0.577-0.679-0.868-1.613-0.868-2.798v-0.481
			c0-0.757,0.133-1.426,0.401-2.002c0.266-0.578,0.648-1.021,1.142-1.329c0.497-0.309,1.074-0.462,1.728-0.462
			c0.911,0,1.641,0.245,2.197,0.732c0.556,0.485,0.876,1.168,0.963,2.048h-1.624c-0.039-0.508-0.18-0.877-0.424-1.105
			c-0.242-0.229-0.613-0.342-1.112-0.342c-0.541,0-0.945,0.191-1.213,0.58c-0.27,0.388-0.408,0.987-0.413,1.804v0.595
			c0,0.852,0.127,1.473,0.386,1.866c0.258,0.394,0.665,0.589,1.221,0.589c0.5,0,0.875-0.115,1.122-0.343
			c0.246-0.229,0.388-0.583,0.424-1.064H101.913L101.913,186.813z M108.535,186.023h-3.114v2.11h3.655v1.304h-5.278v-7.876h5.268
			v1.315h-3.645v1.877h3.114V186.023L108.535,186.023z M120.017,189.438h-1.622v-3.375h-3.164v3.375h-1.623v-7.876h1.623v3.192
			h3.164v-3.192h1.622V189.438L120.017,189.438z M128.722,185.679c0,0.774-0.137,1.454-0.411,2.039s-0.667,1.034-1.176,1.353
			c-0.51,0.316-1.095,0.476-1.757,0.476c-0.65,0-1.232-0.157-1.745-0.471c-0.513-0.314-0.909-0.763-1.19-1.344
			c-0.282-0.582-0.424-1.252-0.428-2.009v-0.391c0-0.774,0.141-1.458,0.421-2.046c0.278-0.591,0.673-1.043,1.184-1.358
			c0.509-0.316,1.093-0.474,1.751-0.474c0.654,0,1.238,0.157,1.747,0.474c0.511,0.315,0.907,0.768,1.185,1.358
			c0.28,0.588,0.42,1.27,0.42,2.041V185.679L128.722,185.679z M127.076,185.322c0-0.824-0.146-1.452-0.442-1.881
			c-0.295-0.431-0.718-0.645-1.264-0.645s-0.966,0.212-1.261,0.635c-0.296,0.425-0.445,1.045-0.449,1.862v0.385
			c0,0.805,0.147,1.429,0.443,1.872c0.295,0.442,0.721,0.664,1.274,0.664c0.545,0,0.965-0.214,1.256-0.641
			c0.292-0.429,0.439-1.051,0.442-1.869V185.322L127.076,185.322z M136.65,182.877h-2.413v6.561h-1.624v-6.561h-2.38v-1.315h6.417
			V182.877L136.65,182.877z M143.132,186.023h-3.114v2.11h3.654v1.304h-5.277v-7.876h5.268v1.315h-3.645v1.877h3.114V186.023
			L143.132,186.023z M147.068,188.134h3.445v1.304h-5.067v-7.876h1.622V188.134z"/>
		<path fill="#1A171B" d="M94.033,201.116h-2.377v-0.983h2.377V201.116L94.033,201.116z M99.813,200.791l-0.658,0.709v1.757h-1.267
			v-6.146h1.267v2.786l0.557-0.765l1.566-2.021h1.558l-2.183,2.732l2.246,3.414h-1.508L99.813,200.791L99.813,200.791z
			 M106.137,199.88l1.278-2.77h1.385l-2.018,3.918v2.229h-1.288v-2.229l-2.017-3.918h1.389L106.137,199.88L106.137,199.88z
			 M111.351,203.257h-1.265v-6.146h1.265V203.257L111.351,203.257z M115.438,201.733l1.393-4.623h1.409l-2.139,6.146h-1.322
			l-2.131-6.146h1.406L115.438,201.733L115.438,201.733z M123.907,201.116h-2.378v-0.983h2.378V201.116z"/>
	</g>
</g>

</svg>
