<?xml version="1.0" encoding="utf-8"?>
<!DOCTYPE svg PUBLIC "-//W3C//DTD SVG 1.1//EN" "http://www.w3.org/Graphics/SVG/1.1/DTD/svg11.dtd">
<svg version="1.1" id="_x23_Layer_1" xmlns="http://www.w3.org/2000/svg" xmlns:xlink="http://www.w3.org/1999/xlink" x="0px" y="0px" width="216px" height="216px" viewBox="0 0 216 216" enable-background="new 0 0 216 216" xml:space="preserve">
<g>
	<rect x="0.144" y="41.373" fill="#367764" width="216" height="133.211"/>
	<rect x="30.033" y="68.048" fill="#CA0087" width="156.523" height="79.745"/>
	<path fill="#FFFFFF" d="M54.571,99.026l0.203,1.739c1.739-0.921,4.499-1.739,6.85-1.022c1.84,0.716,2.389,2.172,2.965,3.885
		c0.921-1.532,2.761-1.942,4.395-2.453c2.045-0.408,4.089,0.613,4.397,2.453c1.226,3.886-1.227,6.747-0.716,10.634
		c1.125,0,3.169-0.817,3.681,1.227c0,1.941-1.214,3.425-3.169,4.598c-1.433,1.023-3.156,0.742-4.704-0.204
		c-2.954-1.835-0.371-11.642-0.921-11.04c0,0-0.152,0.037,0,0c-2.76,2.146-3.884,6.441-5.418,9.813
		c-1.956,0.449-3.234-0.129-4.192-1.022c0.104-4.292,1.739-8.485,1.534-13.189h-1.023c-4.703,4.09-6.747,9.305-10.02,13.903
		c-0.749,0.354-3.271-0.65-3.681-1.43c0.818-5.318,3.782-10.43,4.395-16.154c0.205-2.555-1.942-0.205-2.964-1.228
		c-1.15-0.882-2.35-1.534-1.431-3.271c1.534-1.636,4.703-1.022,6.543-0.408C52.73,96.062,54.263,97.596,54.571,99.026L54.571,99.026
		L54.571,99.026z M121.535,105.671L121.535,105.671c0.307,1.674,0.307,2.965-1.229,3.375c-0.959,0.344-2.453,0.612-2.963-0.716
		c-0.717-1.125,0.51-3.271-1.432-3.681c-1.531-0.613-2.555,1.228-2.967,2.25c-0.51,3.477-1.531,8.793,1.945,10.734
		c1.969,0.512,4.014-0.318,4.906-3.17h1.945c0.102,2.276-1.639,3.783-3.172,4.703c-2.861,1.025-4.779,1.086-7.361-0.512
		c-3.679-2.35-4.088-6.748-3.476-10.836c0.882-3.349,4.294-4.908,7.361-5.111C117.494,102.426,120.512,103.423,121.535,105.671
		L121.535,105.671z M107.017,105.16L107.017,105.16c0.102,1.228,0.102,2.557-0.921,3.375c-1.124,0.854-3.067,0.511-3.476-1.229
		c-0.203-0.715,0.408-1.737-0.512-2.146c-1.329-0.205-1.993,1.036-2.146,2.146v9.61l1.572,0.013l0.063,2.187l-8.588,0.05v-2.249
		h1.533v-11.246c-0.409-0.511-1.124-0.205-1.737-0.306l0.075-1.956l6.57,0.012c-0.102,0.308,0.307,0.512,0.512,0.716
		C101.701,102.299,106.199,102.196,107.017,105.16L107.017,105.16z M151.488,119.166L151.488,119.166h-8.586v-2.249h1.43v-11.246
		c-1.123,0.104-1.635-0.205-1.736-1.227v-1.009l6.85-0.014v0.716c1.84-1.228,6.34-2.25,7.361,1.022c0.205,1.432,0,3.271-1.43,3.682
		c-2.457,0.612-3.273-1.739-3.172-3.682l-0.303-0.306c-3.684,2.554-1.945,8.025-2.457,12.115l1.98,0.024L151.488,119.166
		L151.488,119.166z M170.303,104.854c-1.844-1.329-3.887-2.352-6.543-1.945c-2.555,0.308-5.012,2.045-5.93,4.397
		c-1.42,3.616-1.023,7.361,1.225,9.815c2.307,2.509,5.889,3.396,9.1,2.251c2.047-0.718,4.09-2.455,4.396-4.704l-1.838,0.027
		c-2.033,3.449-10.275,5.046-8.873-3.912l0.053-0.205h10.658C172.551,108.33,171.834,106.49,170.303,104.854L170.303,104.854
		L170.303,104.854z M124.5,105.876L124.5,105.876c0.717,4.499-1.637,11.885,3.043,13.623c2.656,0.511,5.033,0.178,6.77-1.866
		l0.205,1.533h6.34v-2.249c-0.408-0.102-1.125,0.205-1.432-0.204v-13.292h-6.85l0.064,2.506l1.752,0.025l-0.027,8.932
		c0,0.576-0.258,1.088-0.768,1.469c-0.717,0.208-2.619,1.278-4.373-0.27l-0.127-12.663l-6.771,0.014l0.088,2.377L124.5,105.876z"/>
	<path fill="#CA0087" d="M167.438,108.266l-0.055,0.123h-5.293c0.199-2.705,0.836-3.152,2.586-3.535
		C166.416,104.649,167.91,106.452,167.438,108.266z"/>
	<path fill="#FFFFFF" d="M102.825,91.155l0.576-0.832c0.444-1.245,1.867-2.026,3.172-1.803c0.067,0.122,0.147,0.236,0.239,0.341
		c-1.026,0.52-2.072,0.952-2.453,2.497c-0.218,0.525-0.282,0.525,0.281,0.383c1.079-0.284,2.554-1.185,2.843-2.374
		c0.065,0.031,0.134,0.059,0.203,0.083c0.572,1.734-1.512,2.889-2.612,3.952c0.473,0.396,1.75,0.396,2.455-0.051l-0.205,0.461
		c-0.102,0.919,0.396,1.571,0.907,2.186c0.64-0.729,0.832-0.985,0.857-2.595c0.389,0.233,1.57,0.652,2.324-0.307
		c-0.975-0.682-2.69-2.105-2.23-3.653c0.117-0.042,0.229-0.095,0.334-0.156c1.164,2.468,2.383,2.465,3.123,2.378
		c-0.09-1.304-1.365-2.417-2.516-2.914c0.088-0.117,0.162-0.243,0.223-0.376c0.58-0.055,1.652,0.293,3.379,2.382l0.129-0.255v-1.177
		l-0.193-0.574l-0.254-0.512l0.895,0.256l0.768-0.064l0.83-0.318l0.512-0.511h0.064l-0.318-0.32l-0.447-0.32l-0.512-0.191
		l-0.957-0.064l-0.77,0.064l0.254-0.511l0.193-0.832v-0.831l-0.129-0.23c-1.201,0.837-1.9,2.753-3.434,2.549
		c-0.051-0.117-0.111-0.228-0.184-0.333c1.221-0.646,2.447-2.11,2.264-3.302c-1.025-0.368-2.395,1.552-2.953,2.682
		c-0.117-0.065-0.242-0.12-0.373-0.163c-0.462-1.728,2.291-3.185,2.676-3.887l-0.42-0.256l-0.576-0.127l-0.768,0.127l-0.803,0.32
		l0.355-1.022l-0.064-0.638l-0.447-0.767l-0.625-0.589c-0.716,0.78-1.547,1.611-0.587,2.953l-1.228-0.307
		c-0.613,0-1.341-0.064-1.546,0.447c1.133,0.664,3.306,2.04,2.555,3.783c-0.053,0.021-0.104,0.042-0.154,0.066
		c-0.473-1.152-1.48-2.391-3.115-2.317l0.256,0.857c0.718,0.992,1.354,1.607,2.21,1.946c-0.091,0.101-0.17,0.211-0.237,0.328
		c-1.726,0.477-2.866-1.076-3.825-2.096l-0.218,0.613v0.576l0.128,0.638l0.205,0.435c-0.921-0.102-2.25,0.422-2.965,1.036
		l1.035,0.638l1.341,0.256l0.64-0.127l-0.32,0.447l-0.128,0.831l0.064,0.895l0.255,0.382L102.825,91.155L102.825,91.155z"/>
	<polygon fill="#FFFFFF" points="119.939,124.012 119.939,124.012 119.939,125.748 115.158,125.699 115.195,128.049 119.73,127.984 
		119.746,129.646 115.223,129.582 115.209,132.29 120.117,132.278 120.18,133.838 112.102,133.838 112.102,133.12 112.514,133.12 
		112.514,124.74 111.922,124.74 111.873,123.961 	"/>
	<polygon fill="#FFFFFF" points="125.611,124.726 125.611,124.726 125.727,133.07 125.215,133.07 125.215,133.889 133.496,133.889 
		133.496,132.151 128,132.1 127.936,124.726 129.098,124.74 129.098,123.769 124.648,123.769 124.713,124.662 	"/>
	<path fill="#FFFFFF" d="M91.458,133.871L91.458,133.871c3.118,0,5.646-2.307,5.646-5.15s-2.528-5.15-5.646-5.15
		s-5.648,2.307-5.648,5.15S88.338,133.871,91.458,133.871z"/>
	<polygon fill="#FFFFFF" points="80.116,127.92 80.116,127.92 74.735,127.92 74.735,124.535 75.701,124.535 75.701,123.639 
		71.369,123.639 71.369,124.535 72.334,124.535 72.334,133.033 71.369,133.033 71.369,133.928 75.701,133.928 75.701,133.033 
		74.735,133.033 74.735,129.902 80.116,129.902 80.116,133.098 79.292,133.098 79.292,133.992 83.624,133.992 83.624,133.098 
		82.735,133.098 82.735,124.535 83.624,124.535 83.624,123.639 79.292,123.639 79.292,124.535 80.116,124.535 	"/>
	<polygon fill="#FFFFFF" points="105.803,133.736 105.803,133.736 105.803,132.839 105.1,132.839 105.1,125.428 107.65,125.428 
		107.65,126.047 108.428,126.047 108.428,124.041 108.372,124.041 108.372,124.02 99.144,124.02 99.144,124.105 99.087,124.105 
		99.087,126.111 99.867,126.111 99.867,125.428 102.417,125.428 102.417,132.839 101.714,132.839 101.714,133.736 	"/>
	<path fill="#FFFFFF" d="M143.617,125.188L143.617,125.188v1.545H142.9c0-1.125-1.227-1.227-2.043-1.432
		c-0.818-0.205-1.893-0.064-1.943,0.92c1.533,1.941,4.703,1.124,5.416,3.988c0.307,1.942-1.225,3.373-2.963,3.68
		c-2.467,0.423-3.105-0.344-4.602-1.227v-1.531c1.688,0.945,4.947,1.838,5.113,0c-1.443-1.548-6.748-2.147-5.113-6.137
		C138.301,122.746,142.67,122.746,143.617,125.188z"/>
	<path fill="#FFFFFF" d="M81.144,110.382c-0.964,9.104,6.812,7.462,8.844,4.013l1.84-0.026c-0.307,2.249-2.352,3.985-4.396,4.703
		c-3.209,1.147-6.794,0.261-9.099-2.251c-2.248-2.453-2.646-6.199-1.226-9.813c0.919-2.352,3.374-4.089,5.929-4.396
		c2.657-0.41,4.702,0.613,6.543,1.942c1.533,1.637,2.248,3.476,2.248,5.728L81.144,110.382z"/>
	<path fill="#CA0087" d="M86.781,107.9l-0.121,0.188l-5.162,0.063c-0.039-2.53,0.854-3.425,2.461-3.597
		C85.694,104.349,87.017,105.685,86.781,107.9z"/>
	<path fill="#CA0087" d="M91.458,131.654L91.458,131.654c1.721,0,3.117-1.313,3.117-2.934c0-1.624-1.396-2.938-3.117-2.938
		c-1.723,0-3.117,1.313-3.117,2.938C88.34,130.341,89.736,131.654,91.458,131.654z"/>
</g>
</svg>
