<?xml version="1.0" encoding="utf-8"?>
<!DOCTYPE svg PUBLIC "-//W3C//DTD SVG 1.1//EN" "http://www.w3.org/Graphics/SVG/1.1/DTD/svg11.dtd">
<svg version="1.1" xmlns="http://www.w3.org/2000/svg" xmlns:xlink="http://www.w3.org/1999/xlink" x="0px" y="0px" width="216px" height="216px" viewBox="0 0 216 216" enable-background="new 0 0 216 216" xml:space="preserve">
<polygon fill="#C32328" points="56.777,69.011 76.297,69.011 76.297,145.495 56.777,145.495 56.777,135.162 21.842,135.162 
	41.447,116.455 56.777,116.455 56.777,96.18 2.545,147.254 2.545,120.28 "/>
<polygon fill="#C32328" points="96.66,89.144 80.629,89.144 80.629,69.122 150.639,69.122 129.583,89.144 117.687,89.144 
	117.687,145.582 96.66,145.582 "/>
<path fill="#C32328" d="M156.523,87.521h39.094L215,69.12h-58.477l-19.408,18.401v58.061h44.514
	c2.793-0.032,5.414-0.703,7.846-1.987c2.459-1.313,4.607-3.069,6.453-5.332c1.873-2.231,3.321-4.773,4.384-7.622
	c1.032-2.878,1.589-5.893,1.589-9.021c0-3.548-0.526-6.786-1.589-9.662c-1.035-2.876-2.485-5.333-4.329-7.372
	c-1.873-2.066-4.021-3.658-6.508-4.748c-2.455-1.117-5.08-1.675-7.954-1.675h-20.778v18.375h16.949
	c1.537,0.027,2.709,0.531,3.548,1.479c0.838,0.952,1.286,2.208,1.286,3.797c0,1.035-0.196,1.956-0.586,2.767
	c-0.366,0.811-0.923,1.423-1.646,1.896c-0.727,0.473-1.592,0.698-2.6,0.698h-21.168L156.523,87.521L156.523,87.521z"/>
</svg>
