<?xml version="1.0" encoding="utf-8"?>
<!DOCTYPE svg PUBLIC "-//W3C//DTD SVG 1.1//EN" "http://www.w3.org/Graphics/SVG/1.1/DTD/svg11.dtd">
<svg version="1.1" id="Layer_1" xmlns="http://www.w3.org/2000/svg" xmlns:xlink="http://www.w3.org/1999/xlink" x="0px" y="0px" width="216px" height="216px" viewBox="0 0 216 216" enable-background="new 0 0 216 216" xml:space="preserve">
<rect x="-0.945" y="1.653" fill-rule="evenodd" clip-rule="evenodd" fill="#FFFFFF" width="216" height="216"/>
<path fill-rule="evenodd" clip-rule="evenodd" fill="#639242" d="M67.972,12.617c16.663,0,31.034,10.557,37.642,25.784
	c6.608-15.227,20.979-25.784,37.642-25.784c22.925,0,42.357,19.993,41.516,44.613c-0.697,20.395-5.127,29.204-16.843,39.781
	l-61.499,55.519L39.654,91.294c-10.05-9.216-13.112-22.844-13.197-34.065C26.271,32.596,45.048,12.617,67.972,12.617z"/>
<path fill-rule="evenodd" clip-rule="evenodd" fill="#FFFFFF" d="M84.297,101.319L84.297,101.319l-1.316-1.006l-2.245-2.903
	l-1.548-2.941l-0.464-3.213l-0.155-3.212h0.387l0.232,1.896l0.658,0.542l0.619-0.813l-0.078-1.664l0.271-0.116l0.349,1.394
	l0.619,0.503l0.658-0.735l0.116-1.742l1.006-0.89l2.245-2.013l-0.735-1.316l2.206,1.587l4.296,1.858l3.019,0.31l5.883-0.426
	l4.876,0.232l4.413,1.123l0.309-0.31l0.426,0.155l-0.077,1.471l-0.425,0.852l-0.117,1.394l0.581,1.393l-0.039,2.168l-0.349,2.012
	l-0.734,1.897l-0.349,0.813l-0.039,1.2l0.155,0.929l0.659,0.078l-0.039,0.58l0.387,1.394l1.51,1.123l4.528-0.077l-0.155-1.084
	l-1.315-1.045l-1.161-1.548l-0.154-2.399l0.309-2.864l0.581-1.897l1.122-2.941l0.271-2.4l0.735-0.077v2.167l0.116,1.316l0.426,1.858
	l-0.311,3.367l-0.154,3.368l0.58,0.735l0.736-0.039l0.387-0.503l0.31,0.193l-0.116,1.471l0.349,1.355l4.876,0.077l-0.193-1.587
	l-1.432-1.432l-2.012-3.909v-3.096l0.967-1.548l0.116-3.522l1.509-0.774l2.748-3.174l2.672-4.916l2.709-2.554l3.328-7.47l0.078-1.2
	l0.541,0.425l1.742,0.697l1.394-0.077l1.122-0.929l0.736,0.271l3.019,0.116l0.356-0.01l-1.147,0.97l-0.146-0.05
	c-0.363,0.065-0.688,0.347-0.787,0.706c-0.135-0.333-0.491-0.572-0.908-0.572c-0.535,0-0.968,0.39-0.968,0.871
	c0,0.136,0.034,0.266,0.097,0.38c-0.474,0.065-0.832,0.364-0.832,0.723c0,0.406,0.459,0.735,1.025,0.735
	c0.028,0,0.057-0.001,0.084-0.002c-0.219,0.34-0.238,0.73-0.018,0.954c0.271,0.273,0.798,0.191,1.178-0.185
	c0.09-0.088,0.162-0.185,0.219-0.284c0.063,0.473,0.381,0.833,0.763,0.833c0.428,0,0.774-0.451,0.774-1.006
	c0-0.071-0.006-0.14-0.017-0.207c0.495-0.063,0.868-0.336,0.868-0.664c0-0.374-0.486-0.677-1.084-0.677
	c-0.191,0-0.371,0.031-0.526,0.085c-0.007-0.031-0.015-0.063-0.024-0.093c0.213,0.013,0.442-0.055,0.64-0.204
	c0.392-0.297,0.47-0.9,0.253-1.14l-0.184-0.063l0.926-0.753l0.343-0.373l0.509-0.014l0.658,0.774l1.703-0.039l2.438-1.819
	l0.697-1.935l-0.311-2.129l-1.703-0.658l-4.76-4.645l-0.078-1.742l-0.696-0.852l-2.36-3.212v-0.387l1.973-0.774l1.277-2.09
	l0.039-2.168l-2.594,2.361l-2.012,0.967l-0.774-0.503l-0.968,0.193l1.2-1.393l0.193-0.774l-1.083-0.194l-1.277,0.968l-2.129,2.399
	l-0.543-0.929l-2.167-0.155l-0.581,0.774l1.395,2.478l-1.158,1.311l-5.267,0.93l-7.126-0.93L97.25,57.385l-25.714-3.408L66.11,56.07
	l-0.933,0.738l-1.239,3.058l-0.31,4.799l-0.387,7.625v5.264l-0.349,3.445l0.271,4.258l0.348,3.6l1.703,5.032l0.735,2.399
	l0.349-0.774l0.077-2.555l-0.464-8.051l-0.387-2.67l-0.31-3.871l-0.039-5.806l0.426-5.109l0.503-3.097l0.465,2.555l0.581,4.064
	l0.503,3.715l0.387,4.064l-0.271,0.619L67.19,81.27l-0.581,1.703l-0.271,2.322l0.387,3.251l0.542,3.329l0.232,2.438l-0.387,1.819
	l0.349,3.058l0.155,1.162l0.89-0.039l-0.193,1.548l0.348,1.045l1.045,1.045l4.567,0.078v-0.31l-0.697-0.774l-1.664-2.632
	l-0.503-2.593l-0.464-6.851l0.232-2.361l0.31-1.161l0.813-1.587l1.665-1.587l-0.155,0.464l-0.813,1.316l0.387,1.935l1.471,3.561
	l1.625,4.219l0.929,3.793l0.774,0.193l-0.077,0.542l1.316,2.361l5.418,0.077L84.297,101.319z"/>
<g>
	<path fill="#639242" d="M47.528,186.766l-0.063-14.816l-5.521,7.652l-5.04-7.273v14.438h-6.822v-24.188h6.698l5.066,7.468
		l5.417-7.468h7.023l0.063,24.188H47.528L47.528,186.766z M106.423,162.578v24.188h-7.289v-18.352h-4.431l-0.063,10.709
		c-0.023,3.984-0.757,8.092-6.958,8.092c-0.984,0-2.682-0.15-3.792-0.449l1.298-6.531c0.272,0.07,0.545,0.104,0.817,0.104
		c3.093,0,2.19-2.012,2.164-8.326l-0.04-9.592L106.423,162.578L106.423,162.578z M150.936,173.676l7.244,13.09h-8.373l-3.672-8.742
		c-0.328-0.426-0.344-1.408-0.984-1.276l-0.002,1.202v8.741l-6.855,0.075v-24.188l6.91-0.074v9.018l0.23,0.075l4.516-9.019h7.607
		L150.936,173.676L150.936,173.676z M170.162,187.318c2.393,0,4.542-0.541,6.447-1.624c1.906-1.083,3.398-2.586,4.479-4.509
		c1.08-1.924,1.62-4.095,1.62-6.514c0-2.418-0.54-4.59-1.62-6.514c-1.08-1.923-2.572-3.426-4.479-4.509
		c-1.905-1.083-4.055-1.624-6.447-1.624s-4.541,0.541-6.447,1.624s-3.398,2.586-4.479,4.509c-1.08,1.924-1.62,4.096-1.62,6.514
		c0,2.419,0.54,4.59,1.62,6.514c1.08,1.923,2.572,3.426,4.479,4.509S167.77,187.318,170.162,187.318L170.162,187.318z
		 M170.162,180.719c-0.932,0-1.773-0.248-2.525-0.743c-0.751-0.495-1.35-1.198-1.794-2.108c-0.444-0.909-0.667-1.975-0.667-3.195
		s0.223-2.286,0.667-3.196c0.444-0.909,1.043-1.612,1.794-2.107c0.752-0.495,1.594-0.743,2.525-0.743s1.773,0.248,2.525,0.743
		s1.35,1.198,1.795,2.107c0.443,0.91,0.666,1.976,0.666,3.196s-0.223,2.286-0.666,3.195c-0.445,0.91-1.043,1.613-1.795,2.108
		S171.094,180.719,170.162,180.719L170.162,180.719z M122.027,187.318c-2.393,0-4.541-0.541-6.447-1.624
		c-1.905-1.083-3.398-2.586-4.479-4.509c-1.079-1.924-1.619-4.095-1.619-6.514c0-2.418,0.54-4.59,1.619-6.514
		c1.08-1.923,2.573-3.426,4.479-4.509c1.906-1.083,4.055-1.624,6.447-1.624c2.394,0,4.543,0.541,6.448,1.624
		s3.398,2.586,4.479,4.509c1.079,1.924,1.62,4.096,1.62,6.514c0,2.419-0.541,4.59-1.62,6.514c-1.08,1.923-2.573,3.426-4.479,4.509
		S124.421,187.318,122.027,187.318L122.027,187.318z M122.027,180.719c0.932,0,1.773-0.248,2.525-0.743s1.35-1.198,1.795-2.108
		c0.444-0.909,0.667-1.975,0.667-3.195s-0.223-2.286-0.667-3.196c-0.445-0.909-1.043-1.612-1.795-2.107s-1.594-0.743-2.525-0.743
		s-1.773,0.248-2.524,0.743s-1.35,1.198-1.794,2.107c-0.445,0.91-0.668,1.976-0.668,3.196s0.223,2.286,0.668,3.195
		c0.444,0.91,1.043,1.613,1.794,2.108S121.096,180.719,122.027,180.719L122.027,180.719z M70.425,187.318
		c-2.393,0-4.542-0.541-6.447-1.624c-1.906-1.083-3.398-2.586-4.479-4.509c-1.08-1.924-1.62-4.095-1.62-6.514
		c0-2.418,0.54-4.59,1.62-6.514c1.08-1.923,2.573-3.426,4.479-4.509c1.905-1.083,4.055-1.624,6.447-1.624s4.542,0.541,6.448,1.624
		s3.398,2.586,4.478,4.509c1.08,1.924,1.62,4.096,1.62,6.514c0,2.419-0.54,4.59-1.62,6.514c-1.08,1.923-2.572,3.426-4.478,4.509
		S72.817,187.318,70.425,187.318L70.425,187.318z M70.425,180.719c0.932,0,1.773-0.248,2.525-0.743
		c0.752-0.495,1.35-1.198,1.794-2.108c0.445-0.909,0.667-1.975,0.667-3.195s-0.222-2.286-0.667-3.196
		c-0.444-0.909-1.042-1.612-1.794-2.107c-0.751-0.495-1.593-0.743-2.525-0.743s-1.773,0.248-2.525,0.743
		c-0.752,0.495-1.35,1.198-1.794,2.107c-0.445,0.91-0.667,1.976-0.667,3.196s0.223,2.286,0.667,3.195
		c0.444,0.91,1.042,1.613,1.794,2.108C68.651,180.471,69.493,180.719,70.425,180.719z"/>
	<path fill="#639242" d="M39.494,197.005c1.217,0.46,1.826,1.319,1.826,2.577c0,1.015-0.399,1.81-1.197,2.385
		s-1.968,0.862-3.511,0.862h-6.555v-11.101h6.23c1.488,0,2.645,0.254,3.47,0.762c0.825,0.507,1.238,1.221,1.238,2.141
		c0,0.514-0.128,0.974-0.385,1.38C40.353,196.417,39.981,196.748,39.494,197.005L39.494,197.005z M34.076,196.112h1.806
		c0.663,0,0.995-0.264,0.995-0.792c0-0.257-0.078-0.446-0.233-0.567c-0.156-0.122-0.409-0.183-0.761-0.183h-1.806V196.112
		L34.076,196.112z M36.207,199.988c0.663,0,0.995-0.277,0.995-0.832c0-0.527-0.332-0.792-0.995-0.792h-2.131v1.624H36.207
		L36.207,199.988z M43.472,191.729h4.586v11.101h-4.586V191.729L43.472,191.729z M64.388,199.237v5.783h-4.241v-2.191h-6.128v2.191
		h-4.241v-5.783h0.324c0.649,0,1.103-0.308,1.36-0.923c0.257-0.616,0.406-1.506,0.446-2.669l0.142-3.917h10.857v7.509H64.388
		L64.388,199.237z M56.027,195.99c-0.027,0.853-0.084,1.525-0.172,2.02c-0.088,0.493-0.26,0.903-0.518,1.228h3.003v-3.937h-2.293
		L56.027,195.99L56.027,195.99z M89.778,197.229c0,1.745-0.579,3.111-1.735,4.099c-1.157,0.988-2.838,1.576-5.043,1.766v3.674
		h-3.978v-3.674c-2.205-0.189-3.886-0.774-5.042-1.755c-1.157-0.981-1.735-2.351-1.735-4.109c0-1.718,0.572-3.055,1.715-4.008
		c1.143-0.954,2.831-1.512,5.063-1.675v-3.774H83v3.774c2.205,0.189,3.886,0.758,5.043,1.705S89.778,195.523,89.778,197.229
		L89.778,197.229z M76.587,197.229c0,0.812,0.183,1.424,0.548,1.836c0.365,0.413,0.995,0.688,1.887,0.822v-5.134
		c-0.893,0.121-1.522,0.375-1.887,0.761S76.587,196.471,76.587,197.229L76.587,197.229z M83,199.887
		c0.893-0.135,1.525-0.409,1.897-0.822c0.372-0.412,0.558-1.024,0.558-1.836c0-0.758-0.186-1.329-0.558-1.715
		s-1.004-0.64-1.897-0.761V199.887L83,199.887z M103.908,197.269c0,0.068-0.021,0.427-0.061,1.076h-7.711
		c0.162,0.419,0.433,0.74,0.812,0.964c0.379,0.223,0.853,0.335,1.421,0.335c0.487,0,0.896-0.062,1.228-0.183
		c0.332-0.122,0.693-0.332,1.085-0.63l2.395,2.415c-1.082,1.19-2.699,1.786-4.85,1.786c-1.339,0-2.517-0.247-3.531-0.741
		c-1.015-0.493-1.799-1.18-2.354-2.06c-0.555-0.879-0.832-1.867-0.832-2.963c0-1.108,0.274-2.1,0.822-2.973s1.299-1.553,2.252-2.039
		c0.954-0.487,2.026-0.73,3.217-0.73c1.123,0,2.147,0.223,3.074,0.669c0.927,0.447,1.664,1.103,2.212,1.969
		C103.633,195.029,103.908,196.064,103.908,197.269L103.908,197.269z M97.84,194.651c-0.474,0-0.866,0.128-1.177,0.386
		c-0.311,0.257-0.514,0.622-0.608,1.096h3.571c-0.095-0.46-0.297-0.822-0.609-1.086C98.706,194.783,98.313,194.651,97.84,194.651
		L97.84,194.651z M113.979,191.526c0.975,0,1.871,0.233,2.689,0.699c0.818,0.467,1.467,1.141,1.947,2.02
		c0.48,0.88,0.721,1.895,0.721,3.044c0,1.15-0.24,2.161-0.721,3.034s-1.129,1.542-1.947,2.009s-1.715,0.7-2.689,0.7
		c-1.23,0-2.171-0.317-2.82-0.954v4.688h-4.586v-15.038h4.363v0.914C111.598,191.898,112.612,191.526,113.979,191.526
		L113.979,191.526z M112.883,199.461c0.527,0,0.961-0.189,1.299-0.568s0.508-0.913,0.508-1.604c0-0.689-0.17-1.228-0.508-1.613
		s-0.771-0.578-1.299-0.578s-0.961,0.192-1.299,0.578s-0.508,0.924-0.508,1.613c0,0.69,0.17,1.225,0.508,1.604
		S112.355,199.461,112.883,199.461L112.883,199.461z M132.533,202.829l-0.021-4.972l-2.354,4.1h-1.928l-2.273-4.201v5.073h-4.119
		v-11.101h4.85l2.639,5.175l2.982-5.175h4.303l0.041,11.101H132.533L132.533,202.829z M151.473,197.269
		c0,0.068-0.021,0.427-0.062,1.076h-7.712c0.162,0.419,0.434,0.74,0.813,0.964c0.379,0.223,0.852,0.335,1.42,0.335
		c0.487,0,0.896-0.062,1.229-0.183c0.33-0.122,0.693-0.332,1.086-0.63l2.395,2.415c-1.083,1.19-2.699,1.786-4.852,1.786
		c-1.338,0-2.516-0.247-3.53-0.741c-1.015-0.493-1.8-1.18-2.354-2.06c-0.555-0.879-0.832-1.867-0.832-2.963
		c0-1.108,0.274-2.1,0.822-2.973s1.299-1.553,2.252-2.039c0.955-0.487,2.027-0.73,3.217-0.73c1.123,0,2.148,0.223,3.074,0.669
		c0.928,0.447,1.664,1.103,2.213,1.969C151.197,195.029,151.473,196.064,151.473,197.269L151.473,197.269z M145.404,194.651
		c-0.474,0-0.865,0.128-1.178,0.386c-0.311,0.257-0.514,0.622-0.607,1.096h3.57c-0.094-0.46-0.297-0.822-0.608-1.086
		S145.877,194.651,145.404,194.651L145.404,194.651z M161.543,191.526c0.975,0,1.871,0.233,2.689,0.699
		c0.818,0.467,1.467,1.141,1.947,2.02c0.48,0.88,0.721,1.895,0.721,3.044c0,1.15-0.24,2.161-0.721,3.034s-1.129,1.542-1.947,2.009
		s-1.715,0.7-2.689,0.7c-1.23,0-2.172-0.317-2.82-0.954v4.688h-4.586v-15.038h4.362v0.914
		C159.162,191.898,160.177,191.526,161.543,191.526L161.543,191.526z M160.447,199.461c0.527,0,0.961-0.189,1.299-0.568
		s0.508-0.913,0.508-1.604c0-0.689-0.17-1.228-0.508-1.613s-0.771-0.578-1.299-0.578s-0.961,0.192-1.299,0.578
		s-0.508,0.924-0.508,1.613c0,0.69,0.17,1.225,0.508,1.604S159.92,199.461,160.447,199.461L160.447,199.461z M174.131,191.526
		c1.948,0,3.436,0.436,4.465,1.309c1.027,0.872,1.542,2.215,1.542,4.028v5.966h-4.262v-1.461c-0.527,1.109-1.576,1.664-3.146,1.664
		c-0.879,0-1.627-0.152-2.242-0.457c-0.615-0.304-1.082-0.717-1.4-1.237c-0.318-0.521-0.477-1.106-0.477-1.756
		c0-1.096,0.419-1.928,1.258-2.496c0.839-0.567,2.111-0.852,3.814-0.852h1.848c-0.148-0.866-0.846-1.299-2.09-1.299
		c-0.501,0-1.008,0.077-1.522,0.233c-0.515,0.155-0.954,0.368-1.319,0.639l-1.461-3.023c0.636-0.393,1.404-0.7,2.303-0.923
		C172.342,191.638,173.238,191.526,174.131,191.526L174.131,191.526z M174.11,200.272c0.325,0,0.616-0.088,0.872-0.264
		c0.258-0.176,0.447-0.439,0.568-0.792v-0.771h-1.136c-0.934,0-1.4,0.311-1.4,0.933c0,0.258,0.099,0.471,0.294,0.64
		C173.506,200.188,173.771,200.272,174.11,200.272z"/>
</g>
</svg>
