<?xml version="1.0" encoding="utf-8"?>
<!DOCTYPE svg PUBLIC "-//W3C//DTD SVG 1.1//EN" "http://www.w3.org/Graphics/SVG/1.1/DTD/svg11.dtd">
<svg version="1.1" id="Layer_1" xmlns="http://www.w3.org/2000/svg" xmlns:xlink="http://www.w3.org/1999/xlink" x="0px" y="0px" width="216px" height="216px" viewBox="0 0 216 216" enable-background="new 0 0 216 216" xml:space="preserve">
<g>
	<path fill="#ED1C24" d="M99.075,143.705H66.681l-3.273-26.175L36.73,98.124c-0.785-3.041-1.18-6.167-1.18-9.306
		c0-5.245,1.106-10.428,3.242-15.216l47.239,47.764L40.106,64.673c1.807-7.354,5.808-13.983,11.47-19.01l41.166,71.053
		L56.266,38.929c4.719-6.28,11.3-10.909,18.803-13.23l25.173,88.195L81.849,22.062c5.596-3.154,11.911-4.815,18.336-4.815
		c1.357,0,2.716,0.075,4.067,0.225L108,112.968l3.747-95.496c1.354-0.149,2.711-0.225,4.071-0.225
		c6.424,0,12.736,1.661,18.332,4.815l-18.392,91.832l25.172-88.195c7.504,2.321,14.085,6.95,18.806,13.23l-36.476,77.787
		l41.164-71.053c5.663,5.027,9.663,11.656,11.47,19.01l-45.927,56.693l47.24-47.764c2.139,4.788,3.243,9.971,3.243,15.216
		c0,3.139-0.396,6.265-1.18,9.306l-26.681,19.407l-3.27,26.175h-32.396l-4.792,3.483c-1.201,0.874-2.647,1.345-4.134,1.345
		c-1.483,0-2.931-0.471-4.132-1.345 M97.681,159.071H53.113l-4.128-33.029l-27.029-19.661c-1.179-5.779-1.775-11.663-1.775-17.563
		C20.182,40.342,59.523,1,107.999,1c48.476,0,87.82,39.342,87.82,87.817c0,5.9-0.596,11.784-1.775,17.563l-27.025,19.661
		l-4.131,33.029H118.32l-2.57,1.87c-2.252,1.64-4.963,2.521-7.75,2.521c-2.784,0-5.496-0.882-7.746-2.521L97.681,159.071z"/>
	<path fill="#FFD400" d="M99.076,143.705H66.681l-3.273-26.175L36.731,98.124c-0.785-3.043-1.181-6.167-1.181-9.306
		c0-5.245,1.105-10.428,3.242-15.216l47.24,47.764L40.107,64.673c1.806-7.353,5.808-13.982,11.469-19.01l41.166,71.053
		L56.265,38.929c4.72-6.279,11.3-10.909,18.804-13.229l25.172,88.194L81.849,22.062c5.596-3.154,11.911-4.815,18.335-4.815
		c1.359,0,2.717,0.075,4.068,0.225l3.749,95.496l3.746-95.496c1.354-0.149,2.711-0.225,4.071-0.225
		c6.424,0,12.736,1.661,18.331,4.815l-18.391,91.832L140.931,25.7c7.504,2.32,14.085,6.95,18.806,13.229l-36.476,77.787
		l41.164-71.053c5.663,5.028,9.663,11.657,11.471,19.01l-45.928,56.693l47.24-47.764c2.139,4.788,3.242,9.971,3.242,15.216
		c0,3.139-0.396,6.263-1.179,9.306l-26.681,19.406l-3.27,26.175h-32.396l-4.792,3.485c-1.201,0.872-2.647,1.343-4.133,1.343
		s-2.932-0.471-4.134-1.343"/>
	<path fill="none" stroke="#ED1C24" stroke-width="0" stroke-miterlimit="10" d="M99.076,143.705H66.681l-3.273-26.175
		L36.731,98.124c-0.785-3.043-1.181-6.167-1.181-9.306c0-5.245,1.105-10.428,3.242-15.216l47.24,47.764L40.107,64.673
		c1.806-7.353,5.808-13.982,11.469-19.01l41.166,71.053L56.265,38.929c4.72-6.279,11.3-10.909,18.804-13.229l25.172,88.194
		L81.849,22.062c5.596-3.154,11.911-4.815,18.335-4.815c1.359,0,2.717,0.075,4.068,0.225l3.749,95.496l3.746-95.496
		c1.354-0.149,2.711-0.225,4.071-0.225c6.424,0,12.736,1.661,18.331,4.815l-18.391,91.832L140.931,25.7
		c7.504,2.32,14.085,6.95,18.806,13.229l-36.476,77.787l41.164-71.053c5.663,5.028,9.663,11.657,11.471,19.01l-45.928,56.693
		l47.24-47.764c2.139,4.788,3.242,9.971,3.242,15.216c0,3.139-0.396,6.263-1.179,9.306l-26.681,19.406l-3.27,26.175h-32.396
		l-4.792,3.485c-1.201,0.872-2.647,1.343-4.133,1.343s-2.932-0.471-4.134-1.343L99.076,143.705z"/>
	<rect x="183.801" y="176.638" fill="#ED1C24" width="12.016" height="37.246"/>
	<rect x="161.125" y="176.638" fill="#ED1C24" width="12.015" height="37.246"/>
	<path fill-rule="evenodd" clip-rule="evenodd" fill="#ED1C24" d="M142.362,196.325h-16.346c0.019-0.118,0.037-0.24,0.058-0.364
		c0.009-0.06,0.021-0.118,0.033-0.179c0.06-0.301,0.141-0.593,0.244-0.88c0.102-0.287,0.229-0.563,0.374-0.831
		c0.184-0.335,0.4-0.657,0.646-0.955c0.264-0.319,0.553-0.615,0.868-0.885c0.418-0.356,0.874-0.669,1.357-0.933
		c0.476-0.255,0.975-0.462,1.49-0.612c0.521-0.15,1.049-0.263,1.586-0.331c0.469-0.058,0.942-0.089,1.417-0.089
		c0.092,0,0.181,0.002,0.27,0.003c0.599,0.015,1.192,0.076,1.782,0.185c0.564,0.101,1.12,0.25,1.661,0.443
		c0.462,0.165,0.904,0.372,1.326,0.621c0.413,0.243,0.8,0.525,1.158,0.843c0.27,0.242,0.522,0.506,0.749,0.789
		c0.22,0.27,0.415,0.561,0.585,0.863c0.16,0.288,0.298,0.59,0.41,0.899c0.111,0.309,0.199,0.627,0.257,0.948
		c0.008,0.054,0.02,0.104,0.027,0.155C142.332,196.119,142.348,196.225,142.362,196.325 M153.773,201.868h-27.92
		c-0.002,0.114-0.002,0.225-0.002,0.339c0,0.056,0,0.112,0.002,0.167c0.008,0.41,0.053,0.815,0.129,1.218
		c0.071,0.378,0.174,0.747,0.311,1.102c0.186,0.484,0.425,0.945,0.716,1.373c0.269,0.398,0.586,0.762,0.945,1.077
		c0.434,0.386,0.91,0.719,1.418,0.994c0.536,0.291,1.099,0.521,1.684,0.693c0.523,0.149,1.057,0.264,1.596,0.341
		c0.555,0.077,1.115,0.12,1.678,0.121h0.046c0.497,0,0.995-0.032,1.486-0.092c0.49-0.063,0.976-0.155,1.455-0.281
		c0.474-0.126,0.933-0.301,1.372-0.521c0.396-0.198,0.762-0.442,1.103-0.725c0.247-0.211,0.467-0.447,0.661-0.708
		c0.196-0.271,0.364-0.564,0.494-0.874c0.028-0.064,0.053-0.131,0.08-0.197c0.033-0.085,0.066-0.172,0.098-0.257h11.861
		c-0.064,0.172-0.13,0.343-0.197,0.513c-0.032,0.084-0.068,0.168-0.104,0.251c-0.203,0.463-0.445,0.906-0.729,1.322
		c-0.339,0.495-0.711,0.963-1.118,1.398c-0.565,0.601-1.173,1.155-1.824,1.663c-0.661,0.518-1.365,0.98-2.1,1.388
		c-0.942,0.526-1.928,0.97-2.946,1.328c-1.12,0.396-2.269,0.701-3.437,0.921c-1.071,0.199-2.157,0.347-3.246,0.442
		c-1.043,0.092-2.092,0.135-3.14,0.135c-0.091,0-0.181,0-0.271-0.002c-1.184-0.008-2.364-0.076-3.541-0.205
		c-1.115-0.122-2.227-0.304-3.322-0.542c-1.45-0.318-2.864-0.789-4.213-1.407c-1.309-0.598-2.546-1.337-3.689-2.207
		c-0.913-0.691-1.736-1.491-2.458-2.381c-0.691-0.854-1.276-1.795-1.734-2.796c-0.38-0.829-0.67-1.695-0.86-2.587
		c-0.199-0.938-0.303-1.893-0.306-2.852c0-1,0.108-1.999,0.317-2.977c0.204-0.935,0.513-1.841,0.922-2.704
		c0.488-1.037,1.113-2.006,1.853-2.883c0.818-0.971,1.748-1.843,2.77-2.597c0.967-0.71,1.994-1.336,3.072-1.862
		c1.102-0.537,2.247-0.978,3.425-1.311c1.17-0.335,2.366-0.575,3.575-0.719c1.242-0.148,2.489-0.222,3.74-0.222
		c0.172,0,0.342,0,0.516,0.004c1.296,0.022,2.591,0.122,3.878,0.303c1.248,0.178,2.483,0.431,3.699,0.764
		c1.356,0.372,2.673,0.88,3.928,1.519c1.156,0.588,2.244,1.3,3.244,2.128c0.989,0.819,1.859,1.777,2.582,2.841
		c0.702,1.036,1.25,2.168,1.624,3.36c0.26,0.822,0.461,1.665,0.598,2.515c0.15,0.919,0.239,1.847,0.267,2.777
		c0.004,0.103,0.005,0.202,0.006,0.303C153.768,201.464,153.771,201.669,153.773,201.868"/>
	<path fill="#ED1C24" d="M81.735,176.638v12.485c0.18-0.147,0.361-0.293,0.543-0.439c0.088-0.071,0.18-0.144,0.273-0.213
		c0.502-0.38,1.028-0.727,1.578-1.034c0.679-0.381,1.383-0.728,2.099-1.032c0.799-0.34,1.616-0.636,2.445-0.886
		c0.77-0.235,1.552-0.423,2.344-0.564c0.741-0.133,1.49-0.224,2.241-0.276c0.483-0.03,0.968-0.047,1.453-0.047
		c0.28,0,0.561,0.006,0.838,0.017c0.843,0.03,1.684,0.123,2.513,0.267c0.76,0.136,1.509,0.325,2.24,0.571
		c0.859,0.285,1.673,0.686,2.425,1.19c0.778,0.522,1.488,1.146,2.109,1.853c0.558,0.634,1.041,1.332,1.437,2.08
		c0.347,0.653,0.607,1.356,0.769,2.08c0.137,0.609,0.239,1.226,0.298,1.845c0.083,0.826,0.127,1.654,0.134,2.485
		c0.003,0.357,0.004,0.715,0.006,1.072c0.003,0.554,0.003,1.11,0.003,1.664v14.129H95.788v-15.407c0-0.592-0.008-1.182-0.021-1.777
		c-0.007-0.261-0.026-0.525-0.055-0.787c-0.054-0.458-0.181-0.906-0.379-1.323c-0.212-0.44-0.49-0.845-0.826-1.2
		c-0.333-0.353-0.708-0.659-1.115-0.915c-0.402-0.253-0.83-0.448-1.278-0.592c-0.439-0.138-0.891-0.237-1.349-0.303
		c-0.422-0.06-0.852-0.088-1.28-0.088h-0.171c-0.494,0.011-0.983,0.055-1.47,0.139c-0.409,0.07-0.811,0.177-1.202,0.318
		c-0.502,0.183-0.981,0.421-1.429,0.716c-0.476,0.313-0.915,0.679-1.313,1.091c-0.468,0.482-0.872,1.025-1.208,1.606
		c-0.292,0.51-0.51,1.056-0.647,1.624c-0.088,0.368-0.155,0.738-0.195,1.113c-0.059,0.502-0.09,1.004-0.098,1.509
		c-0.007,0.31-0.011,0.621-0.013,0.931c-0.004,0.43-0.005,0.859-0.005,1.291v12.055H69.721v-37.246H81.735"/>
	<path fill="#ED1C24" d="M61.525,187.854h-12.35c0-0.121-0.002-0.242-0.004-0.362c-0.004-0.095-0.008-0.19-0.011-0.282
		c-0.018-0.361-0.071-0.716-0.158-1.067c-0.083-0.324-0.2-0.644-0.348-0.942c-0.158-0.321-0.353-0.622-0.58-0.901
		c-0.245-0.294-0.518-0.562-0.819-0.801c-0.352-0.275-0.727-0.523-1.123-0.732c-0.377-0.203-0.773-0.367-1.181-0.494
		c-0.474-0.149-0.954-0.266-1.446-0.345c-0.522-0.087-1.053-0.136-1.583-0.154v0.001c-0.133-0.005-0.264-0.007-0.397-0.007
		c-0.354,0-0.711,0.014-1.062,0.044c-0.473,0.039-0.942,0.105-1.404,0.199c-0.469,0.095-0.932,0.228-1.379,0.394
		c-0.439,0.165-0.862,0.366-1.269,0.599c-0.356,0.209-0.692,0.45-1,0.729c-0.292,0.26-0.552,0.555-0.78,0.875
		c-0.215,0.302-0.384,0.634-0.497,0.984c-0.114,0.34-0.17,0.694-0.171,1.054c0,0.354,0.053,0.71,0.162,1.053
		c0.101,0.314,0.254,0.611,0.457,0.873c0.261,0.345,0.574,0.649,0.922,0.907c0.322,0.232,0.678,0.413,1.054,0.535
		c0.42,0.133,0.846,0.241,1.276,0.322c0.578,0.106,1.16,0.185,1.745,0.238c0.817,0.073,1.636,0.14,2.453,0.203
		c0.81,0.063,1.619,0.121,2.43,0.171h0.001c1.359,0.088,2.719,0.181,4.077,0.272c0.545,0.036,1.09,0.077,1.639,0.12
		c1.195,0.093,2.383,0.266,3.554,0.519c1.019,0.224,2.018,0.523,2.988,0.906c1.052,0.409,2.026,1,2.876,1.744
		c0.827,0.726,1.52,1.593,2.042,2.561c0.341,0.63,0.597,1.302,0.762,1.999c0.189,0.789,0.286,1.594,0.287,2.404
		c0,0.836-0.091,1.673-0.275,2.485c-0.181,0.786-0.454,1.548-0.813,2.269c-0.439,0.881-0.99,1.701-1.636,2.44
		c-0.61,0.698-1.311,1.308-2.085,1.818c-1.136,0.749-2.344,1.378-3.605,1.892c-1.318,0.533-2.683,0.945-4.078,1.226
		c-1.435,0.287-2.882,0.503-4.337,0.65c-1.537,0.154-3.08,0.238-4.625,0.253c-0.153,0.001-0.308,0.001-0.458,0.001
		c-1.303,0-2.601-0.044-3.897-0.137c-1.415-0.099-2.822-0.255-4.225-0.468c-1.281-0.193-2.549-0.481-3.79-0.864
		c-1.093-0.332-2.161-0.763-3.185-1.275c-0.744-0.373-1.439-0.841-2.062-1.392h0.001c-0.639-0.563-1.205-1.208-1.685-1.913
		c-0.304-0.45-0.566-0.927-0.786-1.423c-0.243-0.554-0.44-1.119-0.589-1.702c-0.107-0.424-0.194-0.854-0.251-1.283
		c-0.064-0.441-0.102-0.886-0.114-1.331c-0.001-0.058-0.004-0.115-0.005-0.172c-0.001-0.112-0.001-0.228-0.003-0.342H32.58
		c0.001,0.16,0.006,0.319,0.012,0.478c0.004,0.124,0.009,0.247,0.02,0.369c0.026,0.345,0.089,0.685,0.185,1.017
		c0.085,0.295,0.208,0.576,0.363,0.838c0.205,0.356,0.453,0.683,0.737,0.978c0.29,0.301,0.612,0.567,0.964,0.79
		c0.447,0.287,0.916,0.537,1.405,0.747c0.524,0.226,1.068,0.411,1.622,0.557c0.586,0.151,1.182,0.27,1.783,0.348
		c0.603,0.078,1.208,0.121,1.813,0.124h0.096c0.541,0,1.083-0.028,1.625-0.084c0.594-0.06,1.185-0.154,1.771-0.275
		c0.54-0.112,1.072-0.259,1.592-0.44c0.414-0.144,0.815-0.319,1.198-0.526c0.353-0.191,0.672-0.431,0.955-0.715
		c0.312-0.313,0.58-0.668,0.797-1.053c0.18-0.317,0.317-0.656,0.411-1.007c0.094-0.353,0.142-0.714,0.143-1.079
		c0-0.373-0.049-0.747-0.148-1.11c-0.078-0.278-0.201-0.546-0.373-0.785c-0.238-0.333-0.532-0.62-0.868-0.853
		c-0.366-0.251-0.772-0.439-1.2-0.562c-0.476-0.137-0.958-0.246-1.45-0.324c-0.598-0.099-1.201-0.166-1.804-0.204l-5.626-0.368
		c-1.124-0.072-2.245-0.166-3.368-0.28c-1.118-0.114-2.235-0.248-3.349-0.402c-1.162-0.161-2.311-0.404-3.439-0.726
		c-0.794-0.223-1.563-0.527-2.298-0.904c-0.672-0.344-1.285-0.793-1.818-1.328c-0.614-0.619-1.144-1.322-1.568-2.083
		c-0.411-0.734-0.729-1.517-0.947-2.331c-0.222-0.833-0.34-1.69-0.356-2.552c0-0.979,0.11-1.955,0.323-2.91
		c0.204-0.835,0.529-1.639,0.964-2.38c0.596-1.02,1.343-1.942,2.217-2.738c0.885-0.808,1.885-1.477,2.967-1.992
		c1.069-0.507,2.176-0.931,3.312-1.263c1.261-0.375,2.542-0.66,3.844-0.854c1.167-0.171,2.342-0.299,3.519-0.376
		c1.083-0.07,2.169-0.104,3.255-0.104c0.185,0,0.367,0,0.552,0.003c1.284,0.012,2.563,0.08,3.841,0.203
		c1.234,0.116,2.457,0.286,3.671,0.511c1.195,0.221,2.372,0.537,3.515,0.944c1.04,0.374,2.048,0.836,3.007,1.386
		c0.686,0.392,1.32,0.863,1.895,1.41c0.548,0.52,1.031,1.105,1.433,1.747c0.278,0.441,0.52,0.9,0.729,1.377
		c0.224,0.519,0.414,1.05,0.566,1.595c0.095,0.343,0.177,0.693,0.245,1.042c0.064,0.32,0.11,0.644,0.146,0.969
		c0.008,0.09,0.017,0.184,0.024,0.274C61.499,187.485,61.512,187.668,61.525,187.854"/>
</g>
</svg>
