<?xml version="1.0" encoding="utf-8"?>
<!DOCTYPE svg PUBLIC "-//W3C//DTD SVG 1.1//EN" "http://www.w3.org/Graphics/SVG/1.1/DTD/svg11.dtd">
<svg version="1.1" xmlns="http://www.w3.org/2000/svg" xmlns:xlink="http://www.w3.org/1999/xlink" x="0px" y="0px" width="216px" height="216px" viewBox="0 0 216 216" enable-background="new 0 0 216 216" xml:space="preserve">
<g>
	<g transform="matrix(0.830102,0,0,0.830102,139.999,76.9431)">
		<g transform="matrix(1,0,0,1,0,-0.000216599)">
			<path fill="#1D1D1B" d="M90.954,150.627v-7.04H70.136v-27.402h-7.842v34.441H90.954z M-13.99,150.627h29.625v-6.809H-6.152
				v-7.432h19.607v-6.352H-6.152v-7.035h21.672v-6.814H-13.99V150.627z M-78.558,133.408v-10.689h11.327
				c1.305-0.044,2.613,0.14,3.828,0.598c0.826,0.319,1.515,0.938,1.926,1.743c0.39,0.915,0.573,1.922,0.551,2.912
				c0.159,1.535-0.39,3.074-1.491,4.172c-1.399,0.964-3.095,1.4-4.815,1.265H-78.558z M-86.378,116.185v34.441h7.842v-10.641h11.763
				c4.54,0,7.933-0.92,10.181-2.776c2.247-1.858,3.369-4.856,3.369-9.054c0.115-2.454-0.39-4.93-1.513-7.132
				c-1.009-1.721-2.591-3.047-4.47-3.714c-2.432-0.824-5-1.189-7.567-1.125H-86.378z M-153.81,143.129
				c-1.628-0.689-2.936-1.953-3.692-3.558c-0.802-1.927-1.192-4.01-1.125-6.12c-0.068-2.109,0.299-4.194,1.079-6.147
				c0.735-1.603,2.041-2.863,3.668-3.574c2.226-0.898,4.632-1.307,7.04-1.194c2.43-0.113,4.838,0.279,7.131,1.146
				c1.604,0.689,2.912,1.949,3.622,3.553c0.778,1.953,1.168,4.062,1.077,6.173c0.091,2.109-0.299,4.22-1.077,6.163
				c-0.758,1.587-2.063,2.842-3.692,3.509c-2.247,0.872-4.656,1.26-7.062,1.173C-149.203,144.367-151.587,143.974-153.81,143.129
				 M-135.513,149.275c2.821-1.173,5.159-3.282,6.626-5.941c2.89-6.282,2.89-13.553,0-19.834c-1.467-2.681-3.805-4.769-6.626-5.942
				c-3.6-1.421-7.452-2.105-11.327-1.969c-3.853-0.135-7.681,0.548-11.26,1.969c-2.796,1.195-5.113,3.282-6.58,5.942
				c-2.888,6.281-2.888,13.551,0,19.834c1.466,2.659,3.783,4.768,6.58,5.941c3.6,1.443,7.452,2.109,11.327,1.971
				C-142.919,151.384-139.089,150.696-135.513,149.275"/>
		</g>
		<g transform="matrix(1,0,0,1,0,-0.000216599)">
			<path fill="#1D1D1B" d="M59.403,10.416L40.559,9.224l-2.275-0.138c0.166-2.11,0.279-4.219,0.279-6.351l0,0
				c0-42.762-35.194-77.96-77.959-77.96c-36.228,0-67.916,25.246-75.987,60.58h-17.242c-0.939,0-1.811,0.434-2.384,1.168
				l-4.403,6.076c-0.205,0.275-0.32,0.595-0.32,0.918c0,0.824,0.688,1.513,1.512,1.513l0,0l18.779,1.17l2.362,0.138
				c-0.161,2.11-0.275,4.241-0.275,6.373l0,0c0,42.762,35.195,77.961,77.957,77.961c36.226,0,67.916-25.248,75.99-60.582h17.24
				c0.938,0,1.809-0.434,2.385-1.168l4.402-6.076c0.205-0.275,0.322-0.595,0.322-0.918C60.916,11.081,60.228,10.416,59.403,10.416
				L59.403,10.416L59.403,10.416z M-39.42-66.212c37.809,0.046,68.882,31.137,68.925,68.923c0,1.949-0.092,3.875-0.253,5.778H29.23
				l-57.622-3.668l24.995-17.127c0.34-0.253,0.549-0.643,0.549-1.079c0-0.711-0.596-1.306-1.307-1.306H-106.12
				C-98.187-44.911-70.67-66.19-39.42-66.212z M-39.42,71.636c-37.787-0.048-68.877-31.137-68.923-68.925
				c0-1.97,0.092-3.897,0.253-5.823l57.62,3.6L-75.417,17.73c-0.344,0.253-0.551,0.643-0.551,1.077c0,0.712,0.597,1.308,1.308,1.308
				l0,0H27.282C19.349,50.333-8.166,71.588-39.42,71.636L-39.42,71.636z"/>
		</g>
	</g>

</g>
</svg>
