<?xml version="1.0" encoding="utf-8"?>
<!DOCTYPE svg PUBLIC "-//W3C//DTD SVG 1.1//EN" "http://www.w3.org/Graphics/SVG/1.1/DTD/svg11.dtd">
<svg version="1.1" id="Layer_1" xmlns="http://www.w3.org/2000/svg" xmlns:xlink="http://www.w3.org/1999/xlink" x="0px" y="0px" width="216px" height="216px" viewBox="0 0 216 216" enable-background="new 0 0 216 216" xml:space="preserve">
<g>
	<path fill="#FFFFFF" fill-opacity="0" d="M0.122,0.122h216v216h-216V0.122z"/>
	<path d="M106.476,97.537H76.982V69.239h29.494V97.537z"/>
	<path fill="#CC2132" d="M140.058,97.537h-29.494V69.239h29.494V97.537z"/>
	<path d="M9.651,104.859h33.812v8.828H32.125v27.092H20.989v-27.092H9.651V104.859z M47.689,104.859h11.136v35.919H47.689V104.859z
		 M63.729,128.571h10.634c0.229,1.728,0.691,2.71,1.394,3.612c1.141,1.448,2.771,2.173,4.894,2.173c1.584,0,2.803-0.368,3.664-1.107
		c0.854-0.732,1.286-1.594,1.286-2.581c0-0.935-0.413-1.771-1.233-2.503c-0.822-0.723-2.729-1.412-5.716-2.068
		c-4.895-1.098-8.384-2.557-10.469-4.38c-2.101-1.803-3.15-4.119-3.15-6.944c0-1.841,0.536-3.575,1.611-5.22
		c1.076-1.641,2.689-2.935,4.846-3.879c2.158-0.941,5.119-1.417,8.874-1.417c4.613,0,8.125,0.857,10.546,2.566
		c2.422,1.708,3.862,4.736,4.322,8.469H84.696c-0.28-1.605-0.862-2.472-1.75-3.204c-0.892-0.742-2.118-1.107-3.686-1.107
		c-1.29,0-2.263,0.278-2.917,0.825c-0.651,0.549-0.976,1.217-0.976,2c0,0.559,0.265,1.063,0.806,1.523
		c0.521,0.477,1.766,0.921,3.734,1.328c4.879,1.052,8.372,2.108,10.481,3.172c2.11,1.061,3.646,2.39,4.607,3.977
		c0.96,1.589,1.442,3.357,1.442,5.301c0,2.305-0.639,4.432-1.919,6.369c-1.279,1.94-3.065,3.412-5.359,4.411
		c-2.296,0.996-5.191,1.494-8.683,1.494c-6.132,0-10.377-1.178-12.738-3.524C65.374,135.507,64.038,132.188,63.729,128.571
		L63.729,128.571z M98.855,128.571h10.634c0.229,1.728,0.695,2.71,1.398,3.612c1.141,1.448,2.771,2.173,4.894,2.173
		c1.582,0,2.802-0.368,3.662-1.107c0.856-0.732,1.284-1.594,1.284-2.581c0-0.935-0.409-1.771-1.232-2.503
		c-0.82-0.723-2.729-1.412-5.715-2.068c-4.896-1.098-8.385-2.557-10.471-4.38c-2.101-1.803-3.15-4.119-3.15-6.944
		c0-1.841,0.536-3.575,1.611-5.22c1.076-1.641,2.689-2.935,4.848-3.879c2.157-0.941,5.115-1.417,8.872-1.417
		c4.611,0,8.126,0.857,10.549,2.566c2.418,1.708,3.858,4.736,4.318,8.469h-10.531c-0.279-1.605-0.863-2.472-1.752-3.204
		c-0.891-0.742-2.117-1.107-3.684-1.107c-1.293,0-2.265,0.278-2.918,0.825c-0.652,0.549-0.979,1.217-0.979,2
		c0,0.559,0.267,1.063,0.806,1.523c0.521,0.477,1.767,0.921,3.734,1.328c4.879,1.052,8.371,2.108,10.482,3.172
		c2.11,1.061,3.646,2.39,4.603,3.977c0.96,1.589,1.442,3.357,1.442,5.301c0,2.305-0.639,4.432-1.917,6.369
		c-1.281,1.94-3.064,3.412-5.362,4.411c-2.294,0.996-5.188,1.494-8.681,1.494c-6.133,0-10.378-1.178-12.74-3.524
		C100.503,135.507,99.167,132.188,98.855,128.571L98.855,128.571z M148.917,115.052c1.357-1.58,3.158-2.368,5.401-2.368
		c2.338,0,4.191,0.777,5.557,2.329c1.368,1.55,2.051,4.012,2.051,7.378c0,4.005-0.652,6.783-1.961,8.33
		c-1.311,1.557-3.162,2.331-5.55,2.331c-2.322,0-4.161-0.795-5.512-2.377c-1.353-1.582-2.024-4.182-2.024-7.793
		C146.88,119.237,147.558,116.626,148.917,115.052z M138.224,133.327c1.652,2.795,3.814,4.837,6.476,6.122
		c2.661,1.286,6.023,1.931,10.085,1.931c3.994,0,7.335-0.742,10.014-2.234c2.678-1.495,4.722-3.582,6.14-6.273
		c1.419-2.687,2.125-6.128,2.125-10.328c0-5.767-1.619-10.258-4.863-13.47c-3.244-3.209-7.862-4.818-13.856-4.818
		c-5.851,0-10.411,1.635-13.688,4.896c-3.279,3.258-4.914,7.826-4.914,13.692C135.741,127.037,136.569,130.535,138.224,133.327
		L138.224,133.327z M172.78,104.859h33.813v8.828h-11.337v27.092h-11.137v-27.092H172.78V104.859L172.78,104.859z"/>
	<path fill="#FFFFFF" d="M80.818,71.775h21.762v6.212h-7.007v17.406h-7.746V77.987h-7.009V71.775z M122.17,86.495h-7.522V80.32
		h7.522v-7.466h6.195v7.466h7.492v6.174h-7.492v7.5h-6.195V86.495z"/>
</g>
</svg>
