<?xml version="1.0" encoding="utf-8"?>
<!DOCTYPE svg PUBLIC "-//W3C//DTD SVG 1.1//EN" "http://www.w3.org/Graphics/SVG/1.1/DTD/svg11.dtd">
<svg version="1.1" id="Layer_1" xmlns="http://www.w3.org/2000/svg" xmlns:xlink="http://www.w3.org/1999/xlink" x="0px" y="0px" width="216px" height="216px" viewBox="0 0 216 216" enable-background="new 0 0 216 216" xml:space="preserve">
<rect fill="#FFFFFF" width="216" height="216"/>
<path id="path82" fill="#231F20" d="M18.694,124.278c0.619,1.793,2.314,3.162,4.172,3.162c1.923,0,3.978-1.498,3.978-4.107
	c0-4.529-7.791-2.736-7.791-8.638c0-3.357,2.803-4.987,5.64-4.987c1.141,0,2.934,0.392,3.813,1.24c0,1.008,0,2.28,0,2.28
	c-0.619-1.694-1.956-2.707-3.357-2.707c-1.63,0-3.194,0.979-3.325,3.357c-0.227,4.337,7.824,2.87,7.824,8.411
	c0,3.717-3.553,5.933-6.748,5.933c-1.174,0-3.391-0.554-4.205-1.532C18.662,125.614,18.694,124.278,18.694,124.278"/>
<path id="path84" fill="#231F20" d="M152.567,119.813h7.369v-1.631h-7.369V119.813z"/>
<path id="path88" fill="#231F20" d="M47.313,118.249v8.93c-0.065,0.393-0.75,0.752-0.75,0.752c1.173,0,3.879,0,4.694,0
	c0,0-0.717-0.394-0.75-0.752v-16.298c0.033-0.39,0.75-0.749,0.75-0.749c-0.782,0-3.488,0-4.694,0c0,0,0.685,0.359,0.75,0.749v6.521
	c-1.303-0.033-6.291-0.033-7.562,0v-6.521c0.065-0.422,0.75-0.749,0.75-0.749c-1.174,0-3.88,0-4.662,0c0,0,0.717,0.39,0.75,0.749
	v16.298c-0.033,0.358-0.75,0.752-0.75,0.752c0.782,0,3.521,0,4.662,0c0,0-0.685-0.359-0.75-0.752v-8.93
	C41.577,118.216,45.456,118.216,47.313,118.249"/>
<path id="path92" fill="#231F20" d="M144.647,117.824v-6.943c0.066-0.422,0.75-0.749,0.75-0.749c-1.172,0-3.879,0-4.695,0
	c0,0,0.717,0.39,0.751,0.749v16.298c-0.034,0.358-0.751,0.752-0.751,0.752c0.785,0,3.523,0,4.695,0c0,0-0.684-0.359-0.75-0.752"/>
<path id="path96" fill="#231F20" d="M167.205,127.896c0,0,0.717-0.39,0.75-0.749v-16.299c-0.033-0.39-0.75-0.749-0.75-0.749
	c0.782,0,3.487,0,4.659,0c0,0-0.682,0.359-0.748,0.749v16.234h0.031c1.435,0.064,3.716-0.164,5.119-0.131
	c0.423,0,1.174-0.131,1.434-0.424c0,0.358-0.13,1.009-0.326,1.402C177.374,127.896,167.987,127.931,167.205,127.896"/>
<path id="path100" fill="#231F20" d="M89.853,121.933c-0.457-0.555-9.975-11.833-9.975-11.833s-2.575,0-3.26,0
	c0,0,0.652,0.163,1.108,1.077c0,0,0,15.223,0,15.971c-0.065,0.39-0.75,0.749-0.75,0.749c1.173,0,1.499,0,2.314,0
	c0,0-0.718-0.39-0.75-0.749c0-0.946,0.032-13.627,0.032-13.627s-0.129-0.91,0.555,0c0.848,1.076,12.615,15.029,12.615,15.029
	s0.033-16.723,0.033-17.669c0.032-0.359,0.75-0.749,0.75-0.749c-0.782,0-1.988,0-3.162,0c0,0,0.684,0.359,0.75,0.749
	c0,0.783,0,11.052,0,11.052"/>
<path id="path104" fill="#231F20" d="M60.581,121.378h5.313l-2.672-6.781L60.581,121.378z M64.329,109.545
	c0,0,6.715,16.983,7.074,17.57c0.358,0.588,0.946,0.815,0.946,0.815c-0.652,0-3.945,0-4.564,0c-0.032-0.066,0.587-0.295,0.391-0.815
	c-0.456-1.205-1.467-3.586-1.922-4.858h-5.933c-0.423,1.175-1.532,4.304-1.727,4.891c-0.164,0.588,0.26,0.686,0.456,0.783
	c-0.49,0-2.38,0-2.901,0c0,0,0.685-0.262,0.782-0.783c0.098-0.553,6.878-17.603,6.878-17.603"/>
<path id="path108" fill="#231F20" d="M186.047,121.378h5.312l-2.672-6.781L186.047,121.378z M189.763,109.545
	c0,0,6.715,16.983,7.073,17.57c0.358,0.588,0.944,0.815,0.944,0.815c-0.652,0-3.943,0-4.563,0c-0.033-0.066,0.587-0.295,0.392-0.815
	c-0.457-1.205-1.468-3.586-1.956-4.858h-5.933c-0.424,1.175-1.533,4.304-1.694,4.891c-0.197,0.588,0.26,0.686,0.455,0.783
	c-0.488,0-2.445,0-2.9,0c0,0,0.684-0.262,0.782-0.783c0.099-0.553,6.877-17.603,6.877-17.603"/>
<path id="path112" fill="#231F20" d="M112.018,126.43c-1.204,0.718-2.737,0.882-4.171,0.882c-3.162,0-6.552-3.194-6.552-8.378
	c0-5.28,2.835-8.184,6.292-8.184c2.314,0,5.021,1.339,6.257,3.653c0,0,0-1.99-0.032-2.869c-1.304-0.556-2.997-1.598-6.128-1.598
	c-5.248,0-9.519,3.033-9.519,9.126c0,5.283,3.716,9.03,9.03,9.03c2.477,0,4.66-0.26,6.648-1.01c0,0,0-4.793,0-5.736
	c0.033-0.358,0.751-0.75,0.751-0.75c-0.783,0-2.185,0-3.357,0c0,0,0.685,0.356,0.751,0.75"/>
<path id="path116" fill="#231F20" d="M125.155,118.899c0.521,0.034,1.564,0.163,2.574-0.129c1.858-0.521,2.576-1.956,2.576-4.008
	c0-1.793-0.945-3.556-2.705-3.882c-1.336-0.261-1.564-0.227-2.445-0.032V118.899z M125.155,127.147
	c0.033,0.39,0.749,0.749,0.749,0.749c-0.782,0-2.25-0.032-2.608,0c-0.389-0.032-1.303,0-2.085,0c0,0,0.718-0.39,0.749-0.749v-16.299
	c-0.031-0.39-0.749-0.749-0.749-0.749c0.978,0,4.954,0,4.954,0c3.651,0,6.421,1.728,6.421,4.367c0,3.031-2.867,4.401-3.583,4.729
	c0.748,0.456,1.66,1.564,2.019,2.054c0.979,1.4,1.729,2.834,2.187,3.586c1.596,2.605,2.443,2.868,2.443,2.868
	c-1.076,0.358-2.086,0.456-2.707,0.291c-2.118-0.487-4.17-7.562-5.672-8.081c-0.455-0.166-2.117-0.133-2.117-0.133"/>
<path id="path120" fill="#231F20" d="M42.098,149.802v3.521h0.717v0.229h-2.51v-0.229h0.653v-6.978h-0.653v-0.229h2.51v0.229h-0.717
	v3.228h2.836v-3.228h-0.717v-0.229h2.542v0.229h-0.651v6.978h0.651v0.229h-2.51v-0.229h0.717v-3.521"/>
<path id="path124" fill="#231F20" d="M60.092,153.323h0.814v-6.978h-0.685c-0.488,0-0.619,0.099-1.043,2.12H58.95v-2.379h5.085
	v2.379h-0.228c-0.457-2.021-0.554-2.12-1.043-2.12H62.08v6.978h0.815v0.229h-2.771"/>
<path id="path128" fill="#231F20" d="M67.295,153.552v-0.229h0.652v-6.978h-0.652v-0.229h5.476v2.381h-0.229
	c-0.585-2.021-0.749-2.152-1.303-2.152h-2.119v3.228h0.847c0.555,0,0.815-0.324,1.011-1.497h0.229v3.191h-0.229
	c-0.229-1.138-0.488-1.497-1.011-1.497h-0.847v3.519h1.891c0.749,0,0.978-0.291,1.629-2.509h0.262v2.77"/>
<path id="path132" fill="#231F20" d="M78.411,153.323h1.597c0.717,0,0.913-0.131,1.565-2.736h0.228v2.998h-5.183v-0.229h0.652
	v-6.977h-0.652v-0.228h2.901v0.228h-1.076"/>
<path id="path136" fill="#231F20" d="M85.223,150.78c0.457,1.989,0.848,2.737,1.892,2.737c0.977,0,1.759-0.65,1.759-1.564
	c0-2.119-4.009-1.304-4.009-3.845c0-1.273,0.978-2.121,2.445-2.121c0.815,0,1.467,0.197,2.021,0.426v2.152h-0.229
	c0,0-0.098-0.393-0.391-1.24c-0.261-0.849-0.782-1.109-1.5-1.109c-0.945,0-1.63,0.619-1.63,1.436c0,0.814,0.555,1.01,2.021,1.564
	c1.597,0.586,2.152,1.012,2.152,2.184c0,1.37-1.141,2.379-2.804,2.379c-0.62,0-1.533-0.291-1.989-0.586v-2.347"/>
<path id="path140" fill="#231F20" d="M102.305,149.281h1.173l-0.131,0.588h0.033c0.293-0.359,0.75-0.718,1.336-0.718
	c0.652,0,1.076,0.326,0.88,1.237l-0.651,2.999h0.457l-0.033,0.197h-1.728l0.032-0.197h0.489l0.651-3.097
	c0.131-0.618,0-0.813-0.423-0.813c-0.457,0-0.977,0.392-1.173,1.271l-0.554,2.64h0.488l-0.032,0.197h-1.728l0.032-0.197h0.456
	l0.848-3.91h-0.457"/>
<path id="path144" fill="#231F20" d="M108.889,153.518c0.555,0,1.011-0.65,1.306-2.021c0.324-1.497,0.096-2.118-0.457-2.118
	c-0.489,0-0.914,0.393-1.272,2.118C108.139,153.03,108.368,153.518,108.889,153.518 M109.768,153.552l0.1-0.521h-0.032
	c-0.229,0.39-0.587,0.651-1.174,0.651c-0.782,0-1.402-0.814-1.076-2.282c0.293-1.468,1.206-2.281,2.053-2.281
	c0.423,0,0.718,0.227,0.814,0.652h0.032l0.392-1.86h-0.392l0.033-0.193h1.207l-1.207,5.64h0.392l-0.033,0.195"/>
<path id="path148" fill="#231F20" d="M98.654,151.171c-1.043,0.456-1.76,0.132-2.021,1.338c-0.13,0.65,0.065,0.879,0.49,0.879
	c0.619,0,1.206-0.652,1.401-1.564L98.654,151.171z M96.665,150.813l0.293-1.369c0.489-0.195,0.913-0.326,1.369-0.326
	c1.044,0,1.402,0.555,1.271,1.074l-0.653,3.164h0.392l-0.033,0.195h-1.141l0.164-0.75h-0.033c-0.326,0.521-0.88,0.88-1.467,0.88
	c-0.75,0-1.173-0.423-1.011-1.173c0.326-1.467,1.956-1.043,2.902-1.564l0.195-0.882c0.131-0.521-0.131-0.749-0.587-0.749
	c-0.587,0-0.815,0.293-1.467,1.467"/>
<path id="path152" fill="#231F20" d="M53.051,153.487c1.206,0,1.759-0.849,1.759-3.653c0-2.833-0.586-3.649-1.759-3.649
	c-1.207,0-1.761,0.847-1.761,3.649C51.291,152.671,51.877,153.487,53.051,153.487 M53.051,145.956c1.629,0,3.096,1.532,3.096,3.913
	c0,2.378-1.467,3.877-3.096,3.877c-1.63,0-3.097-1.532-3.097-3.877C49.954,147.488,51.421,145.956,53.051,145.956"/>
<path id="path156" fill="#231F20" d="M119.81,149.606h0.619c1.271,0,1.89-0.619,1.89-1.696c0-0.748-0.39-1.564-1.564-1.564h-0.976
	v3.261H119.81z M118.017,153.552v-0.229h0.652v-6.978h-0.652v-0.229h3.129c1.793,0,2.445,0.884,2.445,1.793
	c0,1.045-0.815,1.763-2.38,1.86l2.575,3.553h0.521v0.229h-1.696l-2.736-3.781h-0.034v3.553h0.817v0.229"/>
<path id="path160" fill="#231F20" d="M136.726,150.78c0.457,1.989,0.848,2.737,1.893,2.737c0.977,0,1.76-0.65,1.76-1.564
	c0-2.119-3.978-1.304-3.978-3.845c0-1.273,0.978-2.121,2.446-2.121c0.813,0,1.465,0.197,2.021,0.426v2.152h-0.229l-0.393-1.24
	c-0.263-0.849-0.781-1.109-1.5-1.109c-0.945,0-1.629,0.619-1.629,1.436c0,0.814,0.555,1.01,2.02,1.564
	c1.598,0.586,2.152,1.012,2.152,2.184c0,1.37-1.139,2.379-2.803,2.379c-0.619,0-1.533-0.291-1.99-0.586v-2.347"/>
<path id="path164" fill="#231F20" d="M147.55,153.518c1.205,0,1.759-0.847,1.759-3.648c0-2.838-0.554-3.653-1.759-3.653
	c-1.209,0-1.76,0.848-1.76,3.653C145.79,152.671,146.341,153.518,147.55,153.518 M147.55,145.956c1.629,0,3.095,1.532,3.095,3.913
	c0,2.378-1.466,3.877-3.095,3.877c-1.631,0-3.099-1.532-3.099-3.877C144.451,147.488,145.919,145.956,147.55,145.956"/>
<path id="path168" fill="#231F20" d="M155.47,149.606h0.621c1.269,0,1.922-0.619,1.922-1.696c0-0.748-0.392-1.564-1.564-1.564
	h-0.979V149.606z M153.677,153.552v-0.229h0.652v-6.978h-0.652v-0.229h3.131c1.793,0,2.443,0.884,2.443,1.793
	c0,1.045-0.816,1.763-2.381,1.86l2.578,3.553h0.52v0.229h-1.727l-2.738-3.781h-0.033v3.553h0.814v0.229"/>
<path id="path172" fill="#231F20" d="M163.652,153.323h0.813v-6.978h-0.684c-0.488,0-0.587,0.099-1.044,2.12h-0.261v-2.379h5.119
	v2.379h-0.229c-0.457-2.021-0.556-2.12-1.044-2.12h-0.684v6.978h0.813v0.229h-2.77"/>
<path id="path176" fill="#231F20" d="M171.246,150.78c0.457,1.989,0.881,2.737,1.923,2.737c0.978,0,1.762-0.65,1.762-1.564
	c0-2.119-3.977-1.304-3.977-3.845c0-1.273,0.978-2.121,2.443-2.121c0.815,0,1.466,0.197,2.021,0.426v2.152h-0.26l-0.393-1.24
	c-0.262-0.849-0.782-1.109-1.499-1.109c-0.946,0-1.63,0.619-1.63,1.436c0,0.814,0.554,1.01,2.02,1.564
	c1.6,0.586,2.152,1.012,2.152,2.184c0,1.37-1.14,2.379-2.803,2.379c-0.618,0-1.532-0.291-1.989-0.586v-2.347"/>
<path id="path180" fill="#231F20" d="M126.981,153.552v-0.229h0.65v-6.978h-0.65v-0.229h5.475v2.381h-0.262
	c-0.586-2.021-0.748-2.152-1.303-2.152h-2.117v3.228h0.848c0.519,0,0.779-0.324,1.008-1.497h0.229v3.191h-0.229
	c-0.229-1.138-0.455-1.497-1.008-1.497h-0.848v3.519h1.889c0.752,0,0.98-0.291,1.631-2.509h0.229v2.77"/>
<path id="path182" fill="#231F20" d="M18.401,137.384h180v-0.653h-180V137.384z"/>
<path id="path186" fill="#CDA62D" d="M118.245,83.338c-2.934,1.108-7.074,2.966-9.486,6.194c-0.294,0.358-0.685,0.391-1.043-0.033
	c-0.685-0.816-4.172-4.434-9.094-4.434c-1.207,0-3.064,0.293-4.271,0.685v12.061c0.75-0.554,2.446-1.141,4.075-1.141
	c2.51,0,7.302,2.152,9.063,3.749c0.651,0.587,1.141,0.554,1.727,0c2.574-2.51,7.172-4.727,13.038-4.727v-14.7h-23.86
	c2.934-1.108,7.074-2.999,9.486-6.194c0.292-0.359,0.684-0.391,1.042,0.033c0.685,0.815,4.173,4.433,9.095,4.433
	c1.236,0,3.063-0.293,4.269-0.685V67.072c-0.749,0.554-2.445,1.141-4.073,1.141c-2.509,0-7.302-2.151-9.063-3.749
	c-0.652-0.586-1.173-0.555-1.728,0c-2.608,2.511-7.204,4.727-13.071,4.727v14.147"/>

</svg>
