<?xml version="1.0" encoding="utf-8"?>
<!DOCTYPE svg PUBLIC "-//W3C//DTD SVG 1.1//EN" "http://www.w3.org/Graphics/SVG/1.1/DTD/svg11.dtd">
<svg version="1.1" id="Layer_1" xmlns="http://www.w3.org/2000/svg" xmlns:xlink="http://www.w3.org/1999/xlink" x="0px" y="0px" width="216px" height="216px" viewBox="0 0 216 216" enable-background="new 0 0 216 216" xml:space="preserve">
<g>
	<path fill="#FFFFFF" fill-opacity="0" d="M0.122,0.122h216v216h-216V0.122z"/>
	<path stroke="#000000" stroke-width="0.216" stroke-miterlimit="2.613" d="M3.339,46.703h209.566v122.838H3.339V46.703z"/>
	<path fill="#FFFFFF" d="M48.016,107.547H28.81c-1.422,0-1.422,0-1.422,1.04v38.712c-0.027-0.026-0.027,0-0.055,0.028v0.026
		c0.028,0.219,0.274,0.848,1.095,0.848h9.302c0.903,0,0.903,0,0.903-0.82v-7.797c0-1.066,0-1.231,1.04-1.231h8.344
		c4.432-0.19,5.527-1.231,5.527-6.266v-19.314C53.542,108.477,52.448,107.547,48.016,107.547z M42.298,131.568
		c-0.055,1.203-0.957,1.805-1.833,1.805c-0.93,0-1.833-0.63-1.833-1.915v-17.646c0-1.204,0.903-1.833,1.833-1.833
		s1.833,0.629,1.833,1.915V131.568z M83.828,108.477c0-0.93-0.191-0.629-1.04-0.93h-9.192c-1.012,0-1.012,0-1.012,0.93
		l-0.027,32.038c0,3.146-3.557,3.063-3.557,0v-32.038c0-0.93,0-0.93-0.93-0.93h-9.602c-1.122,0-1.122,0-1.122,0.93v33.897
		c0,5.007,1.122,5.827,4.185,5.827h17.783c3.475,0,4.624-0.931,4.514-5.527V108.477z M123.881,107.547H92.198
		c-3.775,0-4.896,0.93-4.896,4.624v35.21c0,0.82,0,0.82,1.122,0.82h8.892c1.231,0,1.231,0,1.231-0.82v-33.158
		c0-2.9,3.556-3.2,3.556,0v33.158c0,0.82,0,0.82,1.342,0.82h8.864c1.04,0,1.04,0,1.04-0.82v-33.158c0-2.735,3.557-2.9,3.557,0
		v33.158c0,0.82,0,0.82,1.12,0.82h9.111c1.011,0,1.011,0,1.011-0.82v-35.429C128.146,108.477,127.026,107.547,123.881,107.547z
		 M154.63,107.547h-17.974c-2.982,0-4.213,0.93-4.213,4.432v35.401c0,0.82,0,0.82,1.23,0.82h8.893c1.123,0,1.123,0,1.123-0.82
		v-7.906c0.11-1.232,0.931-1.861,1.777-1.889c0.904-0.027,1.806,0.63,1.806,1.997v7.797c0,0.82,0,0.82,1.122,0.82h9.22
		c0.904,0,0.904,0,0.904-0.82v-35.428C158.518,108.477,157.587,107.547,154.63,107.547z M147.271,131.568
		c0,1.095-0.901,1.642-1.805,1.613c-0.875,0-1.777-0.546-1.777-1.613v-17.346c0-1.204,0.902-1.778,1.777-1.778
		c0.904,0.026,1.805,0.63,1.805,1.778V131.568z M168.366,141.854h-0.083c-2.652,0-4.841,2.188-4.841,4.897
		c0,2.652,2.188,4.842,4.841,4.842h0.083c2.663-0.017,4.813-2.179,4.815-4.842C173.184,144.078,171.039,141.897,168.366,141.854
		L168.366,141.854z M172.196,147.163c-0.303,2.051-1.915,3.42-3.83,3.447c-0.521,0-1.04-0.083-1.562-0.273
		c-1.612-0.793-2.517-2.162-2.379-3.968c0.301-2.188,2.079-3.557,3.94-3.529c1.065,0,2.134,0.438,2.955,1.424
		C171.977,145.192,172.25,145.986,172.196,147.163z"/>
	<path fill="#FFFFFF" d="M169.924,146.834c0.356-0.328,0.547-0.767,0.547-1.284c0-0.466-0.219-0.875-0.657-1.178
		c-0.419-0.316-0.924-0.497-1.448-0.521h-2.108l-0.025,5.827h0.957l-0.026-2.269h0.738l0.466,0.628l1.23,1.614h0.93l-1.805-2.297
		C169.132,147.355,169.541,147.136,169.924,146.834L169.924,146.834z M168.173,146.669h-0.984l-0.026-2.188h1.011
		c0.083,0,0.139,0.027,0.193,0.027c0.3,0.027,0.602,0.137,0.792,0.301c0.248,0.193,0.411,0.492,0.411,0.74
		c0,0.327-0.138,0.573-0.411,0.792c-0.222,0.191-0.5,0.307-0.792,0.328H168.173z M198.923,66.182
		c-0.847-1.368-2.681-0.957-4.896,0.11c-2.873,1.231-8.043,6.977-9.302,10.177c-1.123,4.597-3.75,8.837-8.017,13.406
		c-4.294,3.502-11.929,2.106-16.332-0.684c-0.273,0-18.358-14.089-18.358-14.089c-6.482-5.115-10.997-7.332-16.443-7.988
		c-0.273-0.164-0.519-0.438-0.6-0.629c-0.85-1.888-1.013-1.724-1.614-2.188c-0.712,0.547-1.233,0.848-1.943,1.067
		c-0.328,0-0.384,0-0.574-0.11c-0.438-0.192-0.904-0.575-1.368-0.602c-0.547,0.109-0.984,1.203-1.725,2.298
		c0,0-1.258,1.095-2.404,2.052c-0.44,0.383-0.494,0.985-0.795,1.34c-0.602,0.657-1.313,1.724-1.423,1.724
		c-0.273,0.767-0.383,1.45,0.109,1.805c0,0.848,0.438,1.067,0.603,1.258c0.135,0.273,0.163,0.383,0.354,0.575
		c0.328,0.137,0.602,0.191,0.933,0.273c1.749,1.613,2.46,1.586,4.484,1.313c3.502,0.247,3.201,1.423,3.119,3.201
		c-0.219,0.273-0.273,0.247-0.52,0.383c-1.561,0-3.201-0.355-4.76-0.355c-3.421,0.302-6.375,0.903-6.102,5.034
		c0.218,1.614,3.147,3.857,4.68,0.82c0.218-1.395,1.394-0.767,2.406-0.438c6.129,2.653,11.024,4.021,14.281,1.258
		c0.985-1.231,1.587-0.355,2.6,0.383c4.925,5.855,11.982,9.657,22.843,9.794c3.612,0.903,6.376,2.407,7.744,5.964
		c3.363,8.617,7.632,15.567,13.897,19.206c-0.521,5.443-0.303,9.958,5.198,11.136c1.449-1.178-0.576-2.956,1.095-6.949
		c-0.138-1.779-1.67-3.229-2.188-6.621c-6.402-5.253-3.694-7.414-4.65-10.915c-0.083-5.116-1.204-9.029-3.366-12.913
		c-0.245-0.629,0.163-1.095,0.739-1.423c3.612-2.708,5.581-5.362,6.457-7.934c1.339-4.568,3.611-8.152,6.84-10.724
		c2.735-2.188,5.334-2.872,8.288-4.815C200.046,68.371,199.772,67.55,198.923,66.182L198.923,66.182z"/>
</g>
</svg>
