<?xml version="1.0" encoding="utf-8"?>
<!DOCTYPE svg PUBLIC "-//W3C//DTD SVG 1.1//EN" "http://www.w3.org/Graphics/SVG/1.1/DTD/svg11.dtd">
<svg version="1.1" id="Layer_1" xmlns="http://www.w3.org/2000/svg" xmlns:xlink="http://www.w3.org/1999/xlink" x="0px" y="0px" width="216px" height="216px" viewBox="0 0 216 216" enable-background="new 0 0 216 216" xml:space="preserve">
<path fill="#1C1C1C" d="M97.377,81.42c0-3.881,3.989-5.012,7.654-5.147c6.953-0.297,11.266,4.716,11.266,4.716h0.082v-2.775
	c0,0-5.525-2.561-11.375-2.561c-3.342,0.054-9.595,1.375-9.595,7.142c0,11.806,19.809,3.019,19.809,10.996
	c0,4.313-5.954,4.933-7.733,4.933c-7.952,0-11.24-5.147-11.24-5.147c-0.081,0-0.161,0-0.27,0l0.216,3.584
	c0,0,6.738,2.129,10.942,2.129c8.651,0,10.646-5.713,10.646-7.303C117.78,79.938,97.377,88.59,97.377,81.42z M90.585,72.203
	l-5.741-1.995c-1.213-0.431-2.561,0-3.288,1.079l0,0l7.52,2.641C89.535,73.281,90.073,72.715,90.585,72.203z M83.362,87.728
	l-3.208-1.132l-3.558-1.268c-0.054,0.729,1.779,2.346,1.779,2.346s-1.859,1.644-1.806,2.345l3.558-1.268L83.362,87.728z
	 M96.164,68.133l-6.818-2.372c-1.348-0.485-2.884-0.161-3.935,0.81l0,0l8.382,2.937C94.547,68.996,95.329,68.538,96.164,68.133z
	 M87,76.973l-5.309-1.86c-1.132-0.377-2.345,0.135-2.803,1.213l0,0l7.223,2.507C86.3,78.187,86.65,77.566,87,76.973z M84.817,82.229
	l-5.282-1.806c-1.051-0.35-2.209,0.27-2.426,1.348l0,0l7.277,2.56C84.521,83.576,84.656,82.876,84.817,82.229z M106.244,65.681
	c1.563,0,3.073,0.162,4.5,0.485l10.864-3.772c0,0,0,0-0.055,0c-1.482-0.917-3.289-1.052-4.932-0.486L106.055,65.6l-10.457-3.638
	c-1.644-0.566-3.423-0.377-4.877,0.511l0,0l10.753,3.774C103.038,65.896,104.601,65.681,106.244,65.681z M126.378,78.725
	l7.223-2.506l0,0c-0.484-1.078-1.697-1.591-2.802-1.213l-5.366,1.86C125.785,77.485,126.083,78.079,126.378,78.725z M123.306,73.82
	l7.521-2.641l0,0c-0.729-1.078-2.076-1.483-3.289-1.052l-5.741,1.994C122.309,72.634,122.849,73.2,123.306,73.82z M118.563,69.454
	l8.38-2.938l0,0c-1.05-0.997-2.56-1.293-3.934-0.809l-6.818,2.372C116.998,68.484,117.78,68.915,118.563,69.454z M113.846,59.05
	c-0.353-0.08-0.7-0.162-1.052-0.269c-1.912-0.431-3.854-0.27-5.66,0.376l-1.051,0.351l-0.916-0.296
	c-1.995-0.701-4.098-0.782-6.146-0.27c-0.215,0.054-0.377,0.082-0.592,0.162l7.626,2.695L113.846,59.05z M128.022,84.197
	l7.277-2.561l0,0c-0.217-1.079-1.377-1.726-2.427-1.348l-5.281,1.806C127.779,82.795,127.888,83.496,128.022,84.197z
	 M88.968,101.581l-7.519,2.588l0,0c0.7,1.079,2.074,1.482,3.234,1.079l5.74-1.995C89.966,102.74,89.453,102.174,88.968,101.581z
	 M125.488,98.59l5.311,1.859c1.13,0.377,2.345-0.135,2.802-1.213l0,0l-7.223-2.507C126.135,97.323,125.813,97.969,125.488,98.59z
	 M116.298,107.403l6.793,2.372c1.345,0.485,2.882,0.161,3.879-0.809l0,0l-8.38-2.884
	C117.915,106.541,117.135,107.025,116.298,107.403z M121.876,103.333l5.741,1.995c1.215,0.431,2.56,0,3.289-1.078l0,0l-7.521-2.642
	C122.929,102.255,122.416,102.821,121.876,103.333z M133.653,87.728c0,0,2.237-1.725,2.159-2.453l-3.856,1.349l-3.206,1.131
	l3.206,1.132l3.856,1.348C135.865,89.452,133.653,87.728,133.653,87.728z M127.592,93.306l5.281,1.806
	c1.05,0.351,2.21-0.269,2.427-1.348l0,0l-7.277-2.561C127.939,91.959,127.779,92.66,127.592,93.306z M84.386,91.15l-7.277,2.561l0,0
	c0.216,1.078,1.375,1.725,2.426,1.347l5.282-1.806C84.656,92.525,84.495,91.852,84.386,91.15z M93.657,105.947l-8.354,2.884l0,0
	c1.051,0.997,2.56,1.293,3.88,0.809l6.792-2.372C95.221,106.918,94.439,106.459,93.657,105.947z M86.003,96.595l-7.223,2.506l0,0
	c0.431,1.079,1.698,1.591,2.803,1.213l5.31-1.859C86.569,97.889,86.246,97.242,86.003,96.595z M106.244,109.882
	c-1.697,0-3.342-0.215-4.931-0.566l-10.674,3.721h0.054c1.429,0.915,3.208,1.077,4.798,0.513l10.646-3.721l10.701,3.721
	c1.642,0.564,3.449,0.375,4.931-0.485h0.055l-10.754-3.773C109.425,109.693,107.835,109.882,106.244,109.882z M98.24,116.351
	L98.24,116.351c2.345,0.647,4.744,0.564,7.007-0.215l0.863-0.296l0.781,0.268c2.29,0.808,4.797,0.918,7.142,0.298h0.055
	l-7.951-2.776L98.24,116.351z M214.942,132.227v25.2l-19.19-19.839v19.244h-2.639v-25.2l19.189,19.812v-19.244h2.64V132.227z
	 M172.009,131.741c-7.493,0-13.154,5.499-13.154,12.802c0,7.304,5.634,12.802,13.154,12.802c7.49,0,13.153-5.498,13.153-12.802
	C185.107,137.24,179.474,131.741,172.009,131.741z M172.009,155.136c-6.092,0-10.728-4.584-10.728-10.593
	c0-6.063,4.581-10.592,10.728-10.592c6.091,0,10.672,4.581,10.672,10.592C182.681,150.606,178.044,155.136,172.009,155.136z
	 M135.945,132.227h17.548v2.209H146v22.452h-2.642v-22.452h-7.493v-2.209H135.945z M18.542,150.688c0,4.069-3.288,6.656-8.381,6.656
	c-4.313,0-7.654-2.074-9.218-5.714l2.237-0.942c1.267,2.854,3.773,4.447,7.008,4.447c3.557,0,5.713-1.697,5.713-4.447
	c0-3.019-2.237-4.099-6.172-5.74c-4.15-1.725-7.088-3.234-7.088-7.063c0-3.584,3.153-6.171,7.52-6.171
	c3.153,0,5.579,1.295,7.169,3.802l-2.157,1.13c-1.131-1.912-2.722-2.777-5.012-2.777c-2.722,0-4.852,1.725-4.852,3.937
	c0,2.722,2.668,3.799,5.741,5.014C16.116,144.948,18.542,146.617,18.542,150.688z M46.087,132.227h2.642v24.634h-2.642v-9.891
	H30.429v9.891h-2.642v-24.634h2.642v12.531h15.604L46.087,132.227z M62.313,154.678h12.667v2.21H59.671v-24.634h15.04v2.209H62.313
	v10.322h11.023v2.21H62.313V154.678L62.313,154.678z M96.327,146.485l6.522,10.319h-2.992l-6.091-9.81l-0.082-0.08h-4.366
	l0.728-2.21h3.343c3.234,0,5.66-2.236,5.66-5.283c0-2.884-2.344-5.094-5.499-5.094h-6.387v22.449h-2.642v-24.634h9.164
	c4.501,0,8.005,3.207,8.005,7.278c0,3.127-1.994,5.849-5.095,6.926L96.327,146.485z M120.799,131.632l-12.021,25.256h2.721
	l3.504-7.386h11.51l3.342,7.143l0.135,0.298h2.856L120.799,131.632z M116.056,147.237l4.716-10.107l4.744,10.107H116.056z"/>

</svg>
