<?xml version="1.0" encoding="utf-8"?>
<!DOCTYPE svg PUBLIC "-//W3C//DTD SVG 1.1//EN" "http://www.w3.org/Graphics/SVG/1.1/DTD/svg11.dtd">
<svg version="1.1" xmlns="http://www.w3.org/2000/svg" xmlns:xlink="http://www.w3.org/1999/xlink" x="0px" y="0px" width="216px" height="216px" viewBox="0 0 216 216" enable-background="new 0 0 216 216" xml:space="preserve">
<g>
	<path fill="#00A651" d="M79.528,105.604c-2.573,0-4.884-0.552-6.936-1.654c-2.051-1.102-3.662-2.626-4.833-4.573
		c-1.17-1.946-1.755-4.139-1.755-6.577c0-2.439,0.585-4.632,1.755-6.578c1.17-1.947,2.782-3.471,4.833-4.574
		c2.051-1.102,4.363-1.652,6.936-1.652c2.572,0,4.884,0.55,6.936,1.652c2.051,1.103,3.662,2.627,4.832,4.574
		c1.171,1.946,1.756,4.139,1.756,6.578c0,2.438-0.585,4.631-1.756,6.577c-1.17,1.947-2.781,3.471-4.832,4.573
		S82.101,105.604,79.528,105.604L79.528,105.604z M79.528,99.834c1.229,0,2.341-0.293,3.337-0.879
		c0.997-0.586,1.785-1.413,2.364-2.48c0.58-1.067,0.87-2.292,0.87-3.675c0-1.384-0.29-2.609-0.87-3.677
		c-0.579-1.067-1.367-1.894-2.364-2.479c-0.997-0.586-2.109-0.88-3.337-0.88s-2.341,0.293-3.338,0.88
		c-0.996,0.586-1.784,1.413-2.363,2.479c-0.58,1.067-0.87,2.293-0.87,3.677c0,1.383,0.29,2.608,0.87,3.675
		c0.579,1.067,1.367,1.894,2.363,2.48C77.188,99.541,78.3,99.834,79.528,99.834L79.528,99.834z M105.902,87.282
		c2.04,0,3.68,0.632,4.922,1.896c1.241,1.265,1.863,3.171,1.863,5.721v9.8h-5.756v-8.82c0-2.339-0.898-3.508-2.696-3.508
		c-0.989,0-1.782,0.336-2.378,1.011c-0.596,0.674-0.894,1.686-0.894,3.034v8.283h-5.755V87.566h5.483v1.865
		c0.646-0.695,1.414-1.228,2.302-1.596S104.852,87.282,105.902,87.282L105.902,87.282z M132.678,96.313
		c0,0.042-0.031,0.537-0.092,1.485h-12.03c0.245,0.885,0.718,1.565,1.421,2.04c0.702,0.474,1.581,0.711,2.641,0.711
		c0.794,0,1.48-0.116,2.062-0.347c0.579-0.232,1.164-0.611,1.755-1.139l3.054,3.288c-1.608,1.854-3.96,2.782-7.054,2.782
		c-1.934,0-3.633-0.379-5.099-1.138c-1.466-0.758-2.601-1.812-3.405-3.161c-0.804-1.349-1.205-2.876-1.205-4.583
		c0-1.687,0.392-3.199,1.176-4.537c0.783-1.338,1.867-2.386,3.251-3.146c1.384-0.759,2.942-1.138,4.672-1.138
		c1.648,0,3.146,0.353,4.488,1.059c1.344,0.706,2.407,1.728,3.19,3.066C132.286,92.893,132.678,94.479,132.678,96.313
		L132.678,96.313z M123.854,91.697c-0.896,0-1.645,0.263-2.245,0.791c-0.601,0.526-0.982,1.243-1.145,2.149h6.778
		c-0.163-0.906-0.545-1.623-1.146-2.149C125.498,91.96,124.749,91.697,123.854,91.697L123.854,91.697z M212.359,96.313
		c0,0.042-0.031,0.537-0.092,1.485h-12.03c0.244,0.885,0.718,1.565,1.42,2.04s1.583,0.711,2.641,0.711
		c0.794,0,1.481-0.116,2.062-0.347c0.58-0.232,1.165-0.611,1.755-1.139l3.054,3.288c-1.608,1.854-3.959,2.782-7.053,2.782
		c-1.934,0-3.634-0.379-5.1-1.138c-1.466-0.758-2.601-1.812-3.404-3.161s-1.206-2.876-1.206-4.583c0-1.687,0.393-3.199,1.176-4.537
		c0.784-1.338,1.867-2.386,3.252-3.146c1.384-0.759,2.941-1.138,4.671-1.138c1.649,0,3.146,0.353,4.488,1.059
		c1.344,0.706,2.407,1.728,3.191,3.066C211.967,92.893,212.359,94.479,212.359,96.313L212.359,96.313z M203.534,91.697
		c-0.895,0-1.643,0.263-2.243,0.791c-0.602,0.526-0.982,1.243-1.145,2.149h6.777c-0.163-0.906-0.544-1.623-1.145-2.149
		C205.178,91.96,204.43,91.697,203.534,91.697L203.534,91.697z M145.35,80.487c5.646,0,10.408,2.168,10.408,8.406
		c0,6.223-4.784,8.155-10.408,8.155h-3.553v8.063h-6.964V80.487H145.35L145.35,80.487z M144.928,91.561
		c2.342,0,3.795-0.077,3.795-2.667c0-2.589-1.443-2.919-3.795-2.919h-3.131v5.586H144.928L144.928,91.561z M162.903,89.696
		c0.603-0.768,1.387-1.345,2.351-1.729c0.966-0.384,2.072-0.576,3.317-0.576l-0.443,4.881c-0.54-0.062-0.986-0.093-1.339-0.093
		c-1.267,0-2.259,0.342-2.975,1.027s-1.074,1.734-1.074,3.146v8.197h-5.473V87.671h5.636V89.696L162.903,89.696z M169.722,87.769
		h5.882v16.781h-5.882V87.769L169.722,87.769z M172.662,85.912c-1.072,0-1.939-0.299-2.6-0.898c-0.66-0.599-0.991-1.342-0.991-2.229
		s0.331-1.63,0.991-2.229c0.66-0.599,1.527-0.898,2.6-0.898c1.074,0,1.941,0.284,2.602,0.852s0.99,1.294,0.99,2.183
		c0,0.929-0.33,1.697-0.99,2.307C174.604,85.606,173.736,85.912,172.662,85.912L172.662,85.912z M186.985,104.837
		c2.849,0,4.898-0.481,7.074-3.351l-3.973-3.206c-1.283,1.479-1.662,1.739-3.132,1.739c-1.056,0-1.931-0.367-2.624-1.101
		c-0.692-0.733-1.04-1.75-1.04-3.047c0-1.276,0.348-2.276,1.04-3c0.693-0.724,1.568-1.084,2.624-1.084
		c1.47,0,1.922,0.333,2.91,1.664l4.563-2.91c-2.545-2.648-4.151-3.572-7.443-3.572c-1.862,0-3.528,0.377-4.998,1.132
		c-1.47,0.755-2.613,1.808-3.431,3.159s-1.227,2.888-1.227,4.611s0.409,3.265,1.227,4.626s1.961,2.425,3.431,3.19
		C183.457,104.454,185.123,104.837,186.985,104.837z"/>
	<path fill-rule="evenodd" clip-rule="evenodd" fill="#00A651" d="M15.45,84.47c5.613,0.257,11.227,0.516,16.84,0.773
		c-0.005,0.05-0.009,0.101-0.011,0.152c-0.065,1.506,1.138,2.785,2.688,2.856c1.549,0.071,2.859-1.092,2.925-2.599
		c0.001-0.051,0.002-0.102,0.001-0.152c5.811,0.267,10.587,0.486,16.398,0.753c-0.337,7.729,3.013,8.946,2.822,13.34
		c-0.192,4.396-3.632,4.9-3.828,12.788c-5.809-0.267-10.728-0.245-16.537-0.512c0.065-1.507-1.138-2.785-2.688-2.856
		c-1.549-0.071-2.859,1.093-2.925,2.599c-5.612-0.257-11.224-0.516-16.836-0.772c0.476-5.825-3.938-9.823-3.775-13.973
		C10.688,92.717,15.628,90.552,15.45,84.47L15.45,84.47z M0.724,72.734l1.74,27.59l6.648-0.42c-0.306-1.003-0.489-2.032-0.446-3.115
		c0.027-0.707,0.159-1.397,0.381-2.066c0.638-1.927,1.922-3.419,2.984-5.094c1.031-1.627,1.617-3.126,1.559-5.102l-0.061-2.058
		l2.004,0.093c5.613,0.257,11.227,0.515,16.84,0.773l1.972,0.09l-0.204,2.015c-0.001,0.013-0.002,0.027-0.003,0.041
		c-0.021,0.502,0.459,0.842,0.911,0.863c0.451,0.021,0.96-0.273,0.982-0.777c0-0.013,0.001-0.026,0-0.04l-0.026-2.025l1.971,0.091
		l6.432,0.295l-0.874-13.853l-18.714,1.181c0.006,0.052,0.011,0.104,0.014,0.158c0.1,1.576-1.169,2.939-2.833,3.044
		c-1.663,0.105-3.093-1.088-3.192-2.664c-0.003-0.053-0.005-0.106-0.005-0.159L0.724,72.734z"/>
	<path fill="#00A651" d="M6.224,127.784c0.903,0.273,1.355,0.857,1.355,1.752c0,0.657-0.247,1.163-0.739,1.519
		c-0.493,0.356-1.223,0.534-2.19,0.534H0.927v-7.309h3.572c0.894,0,1.592,0.164,2.094,0.492c0.501,0.328,0.752,0.794,0.752,1.396
		c0,0.373-0.098,0.697-0.294,0.972C6.855,127.414,6.579,127.629,6.224,127.784L6.224,127.784z M2.556,127.332h1.793
		c0.885,0,1.327-0.306,1.327-0.917c0-0.594-0.442-0.89-1.327-0.89H2.556V127.332L2.556,127.332z M4.512,130.343
		c0.94,0,1.41-0.306,1.41-0.917c0-0.318-0.109-0.559-0.328-0.718c-0.219-0.16-0.561-0.24-1.026-0.24H2.556v1.875H4.512
		L4.512,130.343z M16.242,127.976c0,0.119-0.009,0.287-0.027,0.506H10.48c0.1,0.539,0.362,0.966,0.787,1.28
		c0.424,0.314,0.951,0.472,1.581,0.472c0.803,0,1.465-0.264,1.984-0.793l0.917,1.054c-0.328,0.392-0.743,0.688-1.246,0.889
		c-0.501,0.201-1.067,0.302-1.697,0.302c-0.803,0-1.51-0.159-2.122-0.479c-0.611-0.32-1.083-0.765-1.417-1.335
		c-0.333-0.57-0.5-1.216-0.5-1.937c0-0.712,0.162-1.353,0.486-1.923c0.324-0.57,0.773-1.016,1.348-1.335s1.223-0.479,1.944-0.479
		c0.711,0,1.348,0.156,1.909,0.472c0.561,0.314,0.999,0.758,1.314,1.328C16.084,126.567,16.242,127.228,16.242,127.976
		L16.242,127.976z M12.547,125.566c-0.548,0-1.011,0.162-1.39,0.485c-0.379,0.324-0.609,0.756-0.691,1.294h4.147
		c-0.073-0.529-0.296-0.958-0.67-1.286C13.568,125.73,13.103,125.566,12.547,125.566L12.547,125.566z M24.933,131.589l-3.134-7.309
		h-1.766l-3.134,7.309h1.779l2.272-5.42l2.34,5.42H24.933L24.933,131.589z M26.028,124.28h1.711v4.817l4.038-4.817h1.56v7.309h-1.71
		v-4.818l-4.024,4.818h-1.574V124.28L26.028,124.28z M38.674,128.659h-1.328v2.93h-1.711v-7.309h1.711v2.956h1.369l2.162-2.956
		h1.834l-2.655,3.517l2.833,3.792h-2.012L38.674,128.659L38.674,128.659z M44.094,124.28h1.71v4.817l4.038-4.817h1.56v7.309h-1.71
		v-4.818l-4.024,4.818h-1.574V124.28L44.094,124.28z M53.702,124.28h1.71v4.817l4.038-4.817h1.561v7.309H59.3v-4.818l-4.024,4.818
		h-1.574V124.28L53.702,124.28z M57.247,123.418c-0.739,0-1.302-0.171-1.69-0.514c-0.388-0.342-0.586-0.842-0.595-1.498h1.136
		c0.009,0.328,0.112,0.588,0.308,0.779c0.197,0.191,0.473,0.287,0.828,0.287c0.347,0,0.623-0.096,0.829-0.287
		c0.205-0.191,0.313-0.451,0.321-0.779h1.163c-0.009,0.656-0.209,1.156-0.602,1.498C58.551,123.247,57.986,123.418,57.247,123.418
		L57.247,123.418z M72.384,127.784c0.904,0.273,1.355,0.857,1.355,1.752c0,0.657-0.247,1.163-0.739,1.519
		c-0.493,0.356-1.223,0.534-2.19,0.534h-3.723v-7.309h3.572c0.894,0,1.592,0.164,2.094,0.492c0.502,0.328,0.753,0.794,0.753,1.396
		c0,0.373-0.098,0.697-0.294,0.972C73.016,127.414,72.74,127.629,72.384,127.784L72.384,127.784z M68.716,127.332h1.792
		c0.885,0,1.328-0.306,1.328-0.917c0-0.594-0.443-0.89-1.328-0.89h-1.792V127.332L68.716,127.332z M70.673,130.343
		c0.939,0,1.41-0.306,1.41-0.917c0-0.318-0.109-0.559-0.329-0.718c-0.219-0.16-0.561-0.24-1.026-0.24h-2.012v1.875H70.673
		L70.673,130.343z M75.56,124.28h1.71v4.817l4.038-4.817h1.56v7.309h-1.711v-4.818l-4.023,4.818H75.56V124.28L75.56,124.28z
		 M89.123,124.637c0.693,0,1.305,0.147,1.833,0.443c0.529,0.298,0.942,0.711,1.239,1.239c0.297,0.529,0.445,1.136,0.445,1.82
		c0,0.702-0.164,1.325-0.493,1.868s-0.79,0.965-1.382,1.266c-0.594,0.301-1.269,0.452-2.026,0.452c-1.268,0-2.249-0.42-2.942-1.259
		c-0.693-0.84-1.04-2.049-1.04-3.627c0-1.469,0.314-2.633,0.944-3.49c0.63-0.858,1.592-1.423,2.888-1.697l3.395-0.726l0.246,1.533
		l-3.079,0.63c-0.886,0.183-1.547,0.492-1.984,0.931c-0.438,0.437-0.694,1.054-0.767,1.848c0.329-0.393,0.726-0.696,1.191-0.91
		C88.055,124.743,88.566,124.637,89.123,124.637L89.123,124.637z M88.78,130.343c0.63,0,1.139-0.202,1.526-0.608
		s0.582-0.924,0.582-1.554c0-0.629-0.194-1.136-0.582-1.52c-0.388-0.383-0.896-0.574-1.526-0.574c-0.638,0-1.154,0.191-1.546,0.574
		c-0.392,0.384-0.589,0.891-0.589,1.52c0,0.639,0.199,1.159,0.596,1.561C87.638,130.143,88.151,130.343,88.78,130.343L88.78,130.343
		z M94.296,124.28h1.71v7.309h-1.71V124.28L94.296,124.28z M95.158,123.076c-0.31,0-0.57-0.099-0.78-0.295
		c-0.21-0.196-0.315-0.439-0.315-0.732c0-0.292,0.105-0.535,0.315-0.732c0.209-0.196,0.47-0.294,0.78-0.294
		c0.311,0,0.571,0.093,0.78,0.281c0.21,0.187,0.314,0.422,0.314,0.704c0,0.302-0.103,0.555-0.308,0.761
		C95.74,122.974,95.478,123.076,95.158,123.076L95.158,123.076z M102.371,124.198c0.712,0,1.349,0.154,1.91,0.465
		c0.561,0.31,1.001,0.748,1.321,1.314c0.319,0.564,0.479,1.218,0.479,1.957c0,0.738-0.159,1.394-0.479,1.964
		s-0.76,1.011-1.321,1.321c-0.561,0.31-1.198,0.465-1.91,0.465c-0.985,0-1.766-0.329-2.34-0.985v3.545h-1.71v-9.964h1.628v0.958
		c0.283-0.348,0.632-0.606,1.047-0.781C101.411,124.284,101.87,124.198,102.371,124.198L102.371,124.198z M102.18,130.22
		c0.629,0,1.147-0.21,1.553-0.63c0.406-0.419,0.609-0.971,0.609-1.655s-0.203-1.236-0.609-1.656c-0.406-0.42-0.924-0.63-1.553-0.63
		c-0.411,0-0.78,0.094-1.109,0.28c-0.328,0.188-0.588,0.454-0.78,0.802c-0.191,0.346-0.287,0.748-0.287,1.204
		s0.096,0.857,0.287,1.204c0.192,0.347,0.452,0.614,0.78,0.801C101.399,130.126,101.769,130.22,102.18,130.22L102.18,130.22z
		 M108.312,129.412c0.319,0,0.584,0.105,0.794,0.315s0.314,0.483,0.314,0.82c0,0.146-0.021,0.299-0.063,0.459
		c-0.04,0.159-0.124,0.399-0.252,0.719l-0.698,1.93h-1.109l0.548-2.095c-0.201-0.081-0.358-0.212-0.472-0.39
		s-0.171-0.385-0.171-0.623c0-0.337,0.105-0.61,0.315-0.82S107.992,129.412,108.312,129.412L108.312,129.412z M122.08,131.589
		v-4.845l-2.464,4.078h-0.739l-2.423-4.092v4.858h-1.561v-7.309h1.794l2.6,4.57l2.724-4.57h1.603l0.014,7.309H122.08L122.08,131.589
		z M128.649,124.198c1.076,0,1.9,0.257,2.471,0.772c0.57,0.517,0.855,1.294,0.855,2.334v4.284h-1.615v-0.89
		c-0.21,0.319-0.509,0.563-0.896,0.732c-0.388,0.168-0.855,0.253-1.403,0.253c-0.547,0-1.026-0.094-1.437-0.28
		c-0.411-0.188-0.728-0.447-0.951-0.781c-0.224-0.332-0.336-0.709-0.336-1.129c0-0.656,0.244-1.183,0.732-1.581
		c0.488-0.396,1.257-0.595,2.306-0.595h1.889v-0.109c0-0.511-0.151-0.903-0.457-1.178c-0.306-0.273-0.761-0.41-1.362-0.41
		c-0.41,0-0.815,0.064-1.212,0.191c-0.396,0.128-0.732,0.307-1.006,0.534l-0.671-1.246c0.384-0.292,0.845-0.515,1.383-0.67
		S128.047,124.198,128.649,124.198L128.649,124.198z M128.417,130.438c0.429,0,0.81-0.098,1.143-0.294s0.568-0.477,0.704-0.842
		v-0.849h-1.765c-0.985,0-1.479,0.324-1.479,0.972c0,0.311,0.123,0.558,0.37,0.739C127.636,130.348,127.979,130.438,128.417,130.438
		L128.417,130.438z M140.912,131.589l-3.134-7.309h-1.766l-3.135,7.309h1.779l2.272-5.42l2.34,5.42H140.912L140.912,131.589z
		 M148.851,127.976c0,0.119-0.009,0.287-0.027,0.506h-5.734c0.101,0.539,0.362,0.966,0.787,1.28
		c0.424,0.314,0.951,0.472,1.581,0.472c0.802,0,1.464-0.264,1.984-0.793l0.916,1.054c-0.328,0.392-0.743,0.688-1.245,0.889
		c-0.501,0.201-1.067,0.302-1.697,0.302c-0.803,0-1.51-0.159-2.121-0.479c-0.611-0.32-1.083-0.765-1.417-1.335
		c-0.333-0.57-0.499-1.216-0.499-1.937c0-0.712,0.161-1.353,0.485-1.923s0.774-1.016,1.348-1.335
		c0.576-0.319,1.224-0.479,1.944-0.479c0.712,0,1.349,0.156,1.909,0.472c0.562,0.314,0.999,0.758,1.314,1.328
		C148.693,126.567,148.851,127.228,148.851,127.976L148.851,127.976z M145.155,125.566c-0.547,0-1.011,0.162-1.389,0.485
		c-0.379,0.324-0.609,0.756-0.691,1.294h4.146c-0.072-0.529-0.296-0.958-0.671-1.286
		C146.178,125.73,145.712,125.566,145.155,125.566L145.155,125.566z M150.726,124.28h1.711v2.97h3.682v-2.97h1.71v7.309h-1.71
		v-2.888h-3.682v2.888h-1.711V124.28L150.726,124.28z M163.796,126.688c0.931,0,1.646,0.21,2.143,0.63s0.746,1.013,0.746,1.779
		c0,0.803-0.274,1.423-0.821,1.861c-0.548,0.438-1.319,0.652-2.313,0.644l-3.422-0.014v-7.309h1.71v2.395L163.796,126.688
		L163.796,126.688z M163.399,130.343c0.502,0.01,0.886-0.096,1.149-0.314c0.266-0.219,0.396-0.539,0.396-0.958
		c0-0.411-0.127-0.712-0.383-0.903s-0.643-0.292-1.163-0.301l-1.561-0.014v2.477L163.399,130.343L163.399,130.343z M171.229,128.659
		H169.9v2.93h-1.711v-7.309h1.711v2.956h1.369l2.162-2.956h1.834l-2.655,3.517l2.833,3.792h-2.012L171.229,128.659L171.229,128.659z
		 M176.647,124.28h1.712v7.309h-1.712V124.28L176.647,124.28z M177.51,123.076c-0.31,0-0.569-0.099-0.779-0.295
		s-0.314-0.439-0.314-0.732c0-0.292,0.104-0.535,0.314-0.732c0.21-0.196,0.47-0.294,0.779-0.294c0.311,0,0.571,0.093,0.781,0.281
		c0.21,0.187,0.314,0.422,0.314,0.704c0,0.302-0.103,0.555-0.308,0.761C178.093,122.974,177.829,123.076,177.51,123.076
		L177.51,123.076z M192.47,130.138v3.134h-1.602v-1.683h-6.419v-7.309h1.711v5.857h3.49v-5.857h1.711v5.857H192.47L192.47,130.138z
		 M193.988,124.28h1.711v7.309h-1.711V124.28L193.988,124.28z M194.851,123.076c-0.31,0-0.569-0.099-0.779-0.295
		s-0.314-0.439-0.314-0.732c0-0.292,0.104-0.535,0.314-0.732c0.21-0.196,0.47-0.294,0.779-0.294c0.311,0,0.571,0.093,0.781,0.281
		c0.21,0.187,0.314,0.422,0.314,0.704c0,0.302-0.103,0.555-0.308,0.761C195.434,122.974,195.17,123.076,194.851,123.076
		L194.851,123.076z M198.013,124.28h1.711v2.97h3.682v-2.97h1.711v7.309h-1.711v-2.888h-3.682v2.888h-1.711V124.28L198.013,124.28z
		 M207.416,124.28h1.711v4.817l4.037-4.817h1.56v7.309h-1.711v-4.818l-4.023,4.818h-1.573V124.28z"/>
</g>
</svg>
