<?xml version="1.0" encoding="utf-8"?>
<!DOCTYPE svg PUBLIC "-//W3C//DTD SVG 1.1//EN" "http://www.w3.org/Graphics/SVG/1.1/DTD/svg11.dtd">
<svg version="1.1" id="Layer_1" xmlns="http://www.w3.org/2000/svg" xmlns:xlink="http://www.w3.org/1999/xlink" x="0px" y="0px" width="216px" height="216px" viewBox="0 0 216 216" enable-background="new 0 0 216 216" xml:space="preserve">
<g>
	<path fill="#FFFFFF" fill-opacity="0" d="M0.122,0.122h216v216h-216V0.122z"/>
	<path d="M90.131,104.04l-24.104,0.858l22.887,1.272L90.131,104.04z M87.248,109.104l-24.161,0.859l22.972,1.277L87.248,109.104
		L87.248,109.104z M84.364,114.213l-24.13,0.847l22.944,1.275L84.364,114.213z M81.541,119.294l-24.161,0.861l22.917,1.272
		L81.541,119.294z M111.076,78.474l-30.765,1.095l30.852,1.714L111.076,78.474L111.076,78.474z M110.881,73.446l-27.637,0.97
		l27.725,1.59L110.881,73.446L110.881,73.446z M110.684,68.598L86.06,69.408l24.742,1.374L110.684,68.598z M110.519,63.62
		l-21.584,0.722l21.669,1.28L110.519,63.62z M110.378,59.596H91.606l18.8,0.998L110.378,59.596z M78.629,124.374l-24.103,0.872
		h23.61L78.629,124.374z"/>
	<path d="M160.313,59.759h-34.735l-0.985,1.744l17.382,0.922c0.204,0,0.204,0.29-0.087,0.29l-18.308,0.612l-1.767,3.09l17.265,1.02
		c0.231,0.029,0.174,0.348-0.029,0.348l-18.339,0.603l-1.706,2.96l17.236,0.957c0.376,0.029,0.376,0.348,0,0.348l-18.309,0.643
		l-1.737,3.095l17.178,0.985c0.377,0.029,0.349,0.376,0,0.376l-18.308,0.652l-1.769,3.057l17.206,0.957
		c0.261,0.029,0.292,0.348-0.057,0.348L77.691,84.53l50.06,2.781c0.317,0,0.29,0.406-0.059,0.406l-52.839,1.884l50.06,2.78
		c0.231,0,0.289,0.377-0.06,0.377l-52.926,1.912l50.059,2.781c0.204,0.029,0.405,0.405-0.027,0.435l-52.842,1.88l50.059,2.78
		c0.145,0.029,0.289,0.406-0.058,0.406L92.523,103.9l0.087,2.4l23.698,1.317c0.172,0.029,0.259,0.377-0.061,0.377l-23.549,0.836
		l0.115,2.685l20.569,1.144c0.202,0.029,0.29,0.435-0.06,0.435l-20.394,0.717l0.089,2.945l17.527,0.974
		c0.202,0.028,0.26,0.405-0.088,0.405l-17.352,0.619l0.115,3.241l14.485,0.804c0.204,0.029,0.204,0.378-0.086,0.378l-14.34,0.52
		l0.059,1.393h46.757c12.398,0,23.521-9.039,25.607-16.224c2.088-7.184,2.088-13.673-7.879-16.917
		c5.563-1.275,15.238-7.549,17.151-16.224C176.708,67.841,173.813,59.788,160.313,59.759L160.313,59.759z M136.795,110.072h-14.368
		l8.111-14.368h10.661C152.207,95.704,146.875,110.072,136.795,110.072z M155.392,79.247c-0.464,1.738-3.941,6.142-8.343,6.142
		h-10.661l6.836-12.051h5.446C155.621,73.57,155.854,77.51,155.392,79.247L155.392,79.247z M212.946,145.909
		c0-5.568-4.629-10.232-10.197-10.232c-5.713,0-10.377,4.738-10.377,10.559c-0.023,5.727,4.599,10.389,10.325,10.412
		c0.029,0.001,0.059,0.001,0.089,0c4.229,0,8.242-2.892,9.436-6.833h-5.279c-1.049,1.663-2.421,2.422-4.304,2.422
		c-2.385,0-4.517-1.627-5.204-3.941h15.256C212.873,147.176,212.946,146.632,212.946,145.909z M197.29,144.516
		c0.688-2.713,2.857-4.447,5.532-4.447c2.677,0,4.773,1.699,5.423,4.447H197.29z M144.404,136.642v1.624
		c-1.517-1.627-3.716-2.552-6.067-2.552c-5.206,0-9.645,4.446-9.645,10.231c0,5.458,3.927,10.354,9.748,10.354
		c2.567,0,4.52-0.594,6.363-2.69v2.568h4.413v-19.536H144.404L144.404,136.642z M139.016,152.159c-3.349,0-6.063-2.715-6.063-6.063
		s2.715-6.063,6.063-6.063l0,0c3.349,0,6.063,2.714,6.063,6.063S142.364,152.159,139.016,152.159z M12.916,135.676
		c-1.988,0-3.507,0.688-5.17,2.388v-1.916H3.298v20.03h4.809v-9.438c0-2.565,0.217-6.652,3.76-6.652
		c3.326,0,3.688,3.832,3.688,6.291v9.799h4.808v-10.739c0-2.82-0.216-4.157-0.976-5.749
		C18.267,137.304,15.627,135.676,12.916,135.676L12.916,135.676z M42.795,145.909c0-5.568-4.628-10.232-10.196-10.232
		c-5.713,0-10.377,4.738-10.377,10.559c-0.023,5.728,4.6,10.39,10.327,10.412c0.028,0.001,0.057,0.001,0.086,0
		c4.23,0,8.243-2.892,9.436-6.833h-5.278c-1.048,1.663-2.423,2.422-4.303,2.422c-2.385,0-4.52-1.627-5.206-3.941h15.256
		C42.724,147.176,42.795,146.632,42.795,145.909L42.795,145.909z M27.14,144.516c0.687-2.713,2.857-4.447,5.533-4.447
		c2.676,0,4.773,1.699,5.424,4.447H27.14z M121.914,156.16h4.809v-26.719h-4.809V156.16z M161.902,135.676
		c-1.989,0-3.508,0.688-5.171,2.388v-1.916h-4.448v20.03h4.811v-9.438c0-2.565,0.216-6.652,3.76-6.652
		c3.324,0,3.688,3.832,3.688,6.291v9.799h4.809v-10.739c0-2.82-0.218-4.157-0.977-5.749
		C167.254,137.304,164.614,135.676,161.902,135.676L161.902,135.676z M181.354,140.088c2.204,0,3.469,0.724,4.664,2.748h5.422
		c-1.481-4.303-5.277-7.16-9.906-7.16c-5.857,0-10.559,4.664-10.559,10.414c0,5.784,4.737,10.557,10.559,10.557
		c3.002-0.016,5.86-1.287,7.881-3.507c1.013-1.121,1.375-1.771,2.025-3.543h-5.422c-1.123,1.735-2.567,2.639-4.375,2.639
		c-3.364,0-5.856-2.603-5.856-6.074C175.786,142.655,178.171,140.088,181.354,140.088L181.354,140.088z M61.175,148.368
		l-3.406-12.22H53.9l-3.442,12.22l-4.071-12.22h-4.243l6.688,20.029h3.08l3.905-12.979l3.795,12.979h3.233l6.413-20.029h-3.976
		L61.175,148.368L61.175,148.368z M86.938,135.697c-2.35,0-4.548,0.926-6.067,2.552v-8.807h-4.81v26.718h4.411v-2.566
		c1.845,2.098,3.797,2.689,6.364,2.689c5.822,0,9.748-4.896,9.748-10.355C96.585,140.145,92.146,135.697,86.938,135.697
		L86.938,135.697z M86.26,152.159c-3.348,0-6.063-2.715-6.063-6.063s2.715-6.063,6.063-6.063c3.349,0,6.063,2.714,6.063,6.063
		S89.609,152.159,86.26,152.159z M113.893,136.642v1.624c-1.52-1.627-3.717-2.552-6.068-2.552c-5.206,0-9.647,4.446-9.647,10.231
		c0,5.458,3.928,10.354,9.748,10.354c2.567,0,4.52-0.594,6.363-2.69v2.568h4.411v-19.536H113.893L113.893,136.642z M108.504,152.159
		c-3.348,0-6.063-2.715-6.063-6.063s2.715-6.063,6.063-6.063c3.349,0,6.063,2.714,6.063,6.063S111.853,152.159,108.504,152.159z"/>
</g>

</svg>
