<?xml version="1.0" encoding="utf-8"?>
<!DOCTYPE svg PUBLIC "-//W3C//DTD SVG 1.1//EN" "http://www.w3.org/Graphics/SVG/1.1/DTD/svg11.dtd">
<svg version="1.1" xmlns="http://www.w3.org/2000/svg" xmlns:xlink="http://www.w3.org/1999/xlink" x="0px" y="0px" width="216px" height="216px" viewBox="0 0 216 216" enable-background="new 0 0 216 216" xml:space="preserve">
<g>
	<g id="XMLID_1_">
		<g>
			<rect fill="#FFFFFF" width="216" height="216"/>
		</g>
		<g>
		</g>
	</g>
</g>
<g>
	<g>
		<polygon fill-rule="evenodd" clip-rule="evenodd" fill="#00BDF0" points="48.009,152.476 62.807,129.545 85.179,129.545 
			57.416,173.511 57.281,173.886 57.281,209.328 37.875,209.328 37.875,172.357 10.838,129.545 33.21,129.545 		"/>
		<path fill-rule="evenodd" clip-rule="evenodd" fill="#00BDF0" d="M167.39,70.785c-12.204,0-22.103-9.897-22.103-22.103
			c0-12.205,9.898-22.103,22.103-22.103s22.102,9.898,22.102,22.103C189.491,60.887,179.594,70.785,167.39,70.785L167.39,70.785z
			 M167.39,89.652c22.623,0,40.971-18.347,40.971-40.97s-18.348-40.97-40.971-40.97c-22.624,0-40.971,18.347-40.971,40.97
			S144.766,89.652,167.39,89.652z"/>
		<path fill-rule="evenodd" clip-rule="evenodd" fill="#262B4D" d="M167.39,191.42c-12.204,0-22.103-9.897-22.103-22.102
			c0-12.205,9.898-22.103,22.103-22.103s22.102,9.897,22.102,22.103C189.491,181.522,179.594,191.42,167.39,191.42L167.39,191.42z
			 M167.39,210.288c22.623,0,40.971-18.348,40.971-40.97c0-22.624-18.348-40.972-40.971-40.972
			c-22.624,0-40.971,18.348-40.971,40.972C126.419,191.94,144.766,210.288,167.39,210.288L167.39,210.288z M8.36,9.329h2.425h16.981
			h1.75l18.533,28.875L66.581,9.329h1.887h17.521h1.887v79.784H68.467V40.408L54.854,61.62H50.55h-5.205H40.57L27.767,42.07v47.043
			H8.36V9.329z"/>
	</g>
</g>
</svg>
