<?xml version="1.0" encoding="utf-8"?>
<!DOCTYPE svg PUBLIC "-//W3C//DTD SVG 1.1//EN" "http://www.w3.org/Graphics/SVG/1.1/DTD/svg11.dtd">
<svg version="1.1" id="Layer_1" xmlns="http://www.w3.org/2000/svg" xmlns:xlink="http://www.w3.org/1999/xlink" x="0px" y="0px" width="216px" height="216px" viewBox="0 0 216 216" enable-background="new 0 0 216 216" xml:space="preserve">
<g>
	<path fill="#01422D" d="M135.891,149.536c-1.263,5.233-5.209,7.438-11.818,7.438c-4.485,0-8.431-0.901-10.46-2.937
		c-2.201-2.158-2.532-5.136-2.532-8.318v-15.605h5.021v15.339c0,3.465,0.285,5.532,1.639,7.054c1.537,1.784,4.193,2.307,6.433,2.307
		c4.737,0,7.894-1.534,8.75-5.702c0.197-0.961,0.353-2.138,0.353-3.954v-15.043h3.09v13.992
		C136.365,146.72,136.215,148.194,135.891,149.536"/>
	<path fill="none" stroke="#01422D" stroke-width="0.185" d="M135.891,149.536c-1.263,5.233-5.209,7.438-11.818,7.438
		c-4.485,0-8.431-0.901-10.46-2.937c-2.201-2.158-2.532-5.136-2.532-8.318v-15.605h5.021v15.339c0,3.465,0.285,5.532,1.639,7.054
		c1.537,1.784,4.193,2.307,6.433,2.307c4.737,0,7.894-1.534,8.75-5.702c0.197-0.961,0.353-2.138,0.353-3.954v-15.043h3.09v13.992
		C136.365,146.72,136.215,148.194,135.891,149.536"/>
	<path fill="#01422D" d="M161.335,135.097l-5.817,12.128h11.347L161.335,135.097 M171.005,156.392l-3.312-7.38h-13.034l-3.547,7.38
		h-3.187l13.108-26.278h3.122l12.826,26.278H171.005z"/>
	<path fill="none" stroke="#01422D" stroke-width="0.185" d="M161.335,135.097l-5.817,12.128h11.347L161.335,135.097
		 M171.005,156.392l-3.312-7.38h-13.034l-3.547,7.38h-3.187l13.108-26.278h3.122l12.826,26.278H171.005z"/>
	<path fill="#01422D" d="M41.706,135.097l-5.812,12.128h11.349L41.706,135.097 M51.38,156.392l-3.306-7.38H35.038l-3.551,7.38H28.3
		l13.108-26.278h3.121l12.831,26.278H51.38z"/>
	<path fill="none" stroke="#01422D" stroke-width="0.185" d="M41.706,135.097l-5.812,12.128h11.349L41.706,135.097 M51.38,156.392
		l-3.306-7.38H35.038l-3.551,7.38H28.3l13.108-26.278h3.121l12.831,26.278H51.38z"/>
	<path fill="#01422D" d="M84.716,156.972c-8.678,0-16.925-2.985-16.925-13.077c0-3.279,1.456-6.641,3.653-9.046
		c3.446-3.74,8.678-5.231,13.618-5.231c2.987,0,6.448,0.677,9.141,2.046v3.121c-2.44-1.819-5.653-3.074-8.786-3.074
		c-7.138,0-12.061,4.465-12.061,11.854c0,6.687,4.344,11.264,11.026,11.264c1.701,0,4.054-0.302,5.673-0.923v-9.594h5.022v10.713
		C92.131,156.35,87.95,156.972,84.716,156.972"/>
	<path fill="none" stroke="#01422D" stroke-width="0.185" d="M84.716,156.972c-8.678,0-16.925-2.985-16.925-13.077
		c0-3.279,1.456-6.641,3.653-9.046c3.446-3.74,8.678-5.231,13.618-5.231c2.987,0,6.448,0.677,9.141,2.046v3.121
		c-2.44-1.819-5.653-3.074-8.786-3.074c-7.138,0-12.061,4.465-12.061,11.854c0,6.687,4.344,11.264,11.026,11.264
		c1.701,0,4.054-0.302,5.673-0.923v-9.594h5.022v10.713C92.131,156.35,87.95,156.972,84.716,156.972"/>
	<path fill="#01422D" d="M198.483,131.938h-3.693v12.57h3.229c2.708,0,4.328-0.505,5.59-1.521c1.332-1.069,2.129-2.71,2.129-4.928
		C205.738,133.619,202.511,131.938,198.483,131.938 M207.018,156.392l-6.963-10.09h-5.265v10.09h-5.024v-26.277h9.505
		c3.855,0,7.715,0.56,9.863,2.934c1.123,1.239,1.735,2.965,1.735,5.185c0,4.062-3.063,6.521-5.789,7.49l7.722,10.67L207.018,156.392
		L207.018,156.392z"/>
	<path fill="none" stroke="#01422D" stroke-width="0.185" d="M198.483,131.938h-3.693v12.57h3.229c2.708,0,4.328-0.505,5.59-1.521
		c1.332-1.069,2.129-2.71,2.129-4.928C205.738,133.619,202.511,131.938,198.483,131.938 M207.018,156.392l-6.963-10.09h-5.265v10.09
		h-5.024v-26.277h9.505c3.855,0,7.715,0.56,9.863,2.934c1.123,1.239,1.735,2.965,1.735,5.185c0,4.062-3.063,6.521-5.789,7.49
		l7.722,10.67L207.018,156.392L207.018,156.392z"/>
	<path fill="#01422D" d="M7.076,161.794c-1.327,0.623-2.779,1.036-4.274,1.036c3.443-2.489,4.898-5.021,5.396-9.215
		c0.292-2.326,0.292-4.653,0.292-6.978v-16.523h5.025v19.888C13.515,154.857,11.646,159.553,7.076,161.794"/>
	<path fill="none" stroke="#01422D" stroke-width="0.185" d="M7.076,161.794c-1.327,0.623-2.779,1.036-4.274,1.036
		c3.443-2.489,4.898-5.021,5.396-9.215c0.292-2.326,0.292-4.653,0.292-6.978v-16.523h5.025v19.888
		C13.515,154.857,11.646,159.553,7.076,161.794"/>
	<path fill="#241F20" d="M38.664,59.965c1.804,0.055,3.353-0.619,3.358-0.715c0.005-0.096-1.998-0.287-1.998-0.287
		c-1.834,0.077-2.582,0.757-2.591,0.837C37.421,59.876,37.912,59.94,38.664,59.965"/>
	<path fill="#241F20" d="M26.399,63.071c0,0,0.109-0.384,0.156-0.468c0.047-0.087,0.31-0.973,1.577-1.069
		c0,0,0.638-0.057,1.374,0.171c0,0-0.423,1.091-2.155,1.272C27.351,62.977,26.669,63.079,26.399,63.071 M196.026,112.278
		c-0.432,1.063-2.275,2.418-4.44,3.143c-2.287,0.766-7.063,0.784-9.504-0.026c0,0-0.516-0.561-2.233-1.064
		c-3.995-1.175-5.286-1.994-7.314-3.883c-1.433-1.334-3.01-3.007-4.538-4.584c-0.682-0.703-2.338-2.361-5.248-2.866
		c-3.036-0.525-10.489-1.094-13.233-2.065c-1.847-0.655-4.035-1.9-6.782-6.009c-1.316-1.973-2.314-2.547-4.216-3.76
		c0,0,1.451,1.146,2.215,2.537c1.1,2.02,1.628,3.473,2.229,4.547c0.606,1.082,1.308,2.045,2.401,2.923
		c1.355,1.089,2.232,1.33,3.765,1.639c1.465,0.297,6.468,0.518,10.759,0.686c4.221,0.164,6.024,1.47,7.344,2.577
		c1.213,1.024,3.146,3.95,4.503,5.148c1.813,1.595,1.86,1.616,3.968,2.938c1.063,0.669,2.002,1.105,2.866,1.416
		c1.933,1.136,1.134,3.119,1.134,3.119c-0.555,1.579-2.55,2.146-4.879,1.815c-3.521-0.311-6.55-3.247-9.108-5.354
		c-1.408-1.161-1.907-1.74-4.622-3.627c-4.13-2.865-13.837-2.627-13.837-2.627l-7.114-0.045
		c-13.856,0.203-18.925-10.945-20.309-13.284c-0.478-0.813-0.921-1.47-1.342-2.007c-0.646-0.871-4.123-5.41-7.849-7.031
		c0,0,3.576,3.094,3.218,4.787c-0.768-0.01-1.638,0.04-2.679,0.069c-13.959,0.408-16.859-0.364-19.065-0.805
		c-2.208-0.443-5.908-1.542-9.504-3.198c0,0,0.401-3.44-1.027-6.299c0,0,11.522,4.068,20.689,2.916c0,0-14.796-0.723-24.026-8.078
		c0,0,2.278,7.774,0.478,11.039c0,0-2.425,5.928-14.863,1.972c0,0-5.72-2.225-10.168-2.225c0,0-3.349,0.139-3.749,1.884
		c0,0-0.218,0.834,0.656,1.23c0,0,0.97,0.278,0.512,0.998c-0.754,1.19-1.802,2.111-2.841,2.631c-3.47-0.171-3.213-3.02-3.213-3.02
		c0.062-1.01,0.389-1.715,0.698-2.411c2.18-4.878,9.843-5.586,9.843-5.586c8.153-0.814,16.699,1.143,16.699,1.143
		c-6.113-1.458-8.192-2.527-9.94-3.985c-2.354-1.965-4.554-8.569-4.554-8.569c-0.938,3.238,0.223,6.509,1.008,8.19
		c-1.159-1.849-2.81-3.41-4.283-4.591c-3.765-3.018-9.23-3.993-9.23-3.993c-1.579-0.27-2.205-1.906-2.205-1.906
		c-2.025-3.728-4.316-3.903-4.316-3.903c1.128,1.547,1.01,3.664,1.01,3.664c0,3.901-5.017,5.195-5.017,5.195
		c-3.752,3.73-4.403,3.65-5.136,3.705c-0.733,0.052-1.275-0.708-1.275-0.708c-0.238-0.356,0.158-0.675,0.158-0.675
		c0.633-0.396,1.233-0.914,1.233-0.914c3.658-2.938,4.173-4.44,3.876-6.49c-0.597-4.094-3.898-3.792-3.898-3.792
		c-1.552,0-2.319,1.183-2.319,1.183c-0.599,0.713-1.908,2.943-1.908,2.943c-1.153,1.906-2.185,1.626-2.185,1.626
		c-1.272,0.082-2.193-1.047-2.193-1.047c-0.049-0.044-0.086-0.097-0.128-0.141c-0.942-1.013-0.131-2.235-0.131-2.235
		c1.552-2.743,4.23-3.012,4.594-3.035c0.366-0.022,1.602-0.114,1.602-0.114c3.024-0.22,5-3.111,5-3.111
		c-1.274-0.617-3.551-0.29-3.551-0.29c-2.218,0.148-2.802,2.502-2.807,2.502c-1.92,0.282-1.824-1.193-1.413-1.582
		c0.324-0.382,1.467-2.233,8.821-3.337c0,0,3.9-0.772,10.828-0.012c0.255,0.027,0.502,0.25,0.176,0.636
		c-0.871,1.022-3.596,3.289-7.967,2.193c0,0-0.079,1.747,4.688,2.621c0,0,4.299,0.916,11.318,6.554c0,0-3.403-6.294-9.286-8.213
		c0,0-0.436-0.277-0.04-0.675c0,0,2.785-2.495,7.698-2.233c0,0,16.247,0.835,25.38,10.366c0,0-0.317-1.589-1.708-3.893
		c0,0-0.28-0.274-0.119-0.475c0,0,0.119-0.398,1.708-0.08c0,0,5.799,0.953,19.261,5.878c0,0,10.091,3.537,15.594,5.819
		c8.271,3.428,28.995,11.833,42.084,19.078c2.336,1.292,12.071,6.101,12.071,6.101c7.276,4.517,13.972,7.787,13.972,7.787
		c6.594,3.047,11.389,1.651,11.389,1.651c1.531-0.578,4.457-2.166,5.598-1.038C196.332,110.815,196.367,111.567,196.026,112.278
		L196.026,112.278z M197.667,109.722c-0.862-2.007-3.637-1.515-3.637-1.515c-1.27,0.077-2.87,1.405-5.097,1.863
		c-4.786,0.987-8.447-0.641-8.447-0.641c-7.053-3.158-11.828-6.599-14.935-8.376c-3.105-1.777-14.602-7.816-26.102-13.595
		c0,0-13.173-6.752-32.662-14.809c0,0-37.602-17.061-64.647-17.061c0,0-14.009-0.176-18.753,5.215c0,0-0.836,0.693-0.429,1.547
		c0,0,0.057,0.235-0.119,0.386c0,0-2.086,1.371-3.784,3.339c0,0-0.911,0.93-0.179,2.319c0,0,0.906,1.579,1.478,2.258
		c0.577,0.676,1.73,1.858,3.492,1.683c0.779-0.08,0.802-0.274,0.802-0.274c0.809,0.816,2.223,0.866,2.223,0.866
		c-0.141-0.502-0.681-1.497-0.728-2.076c-0.052-0.649,0.2-1.25,0.2-1.25c0.295-0.713,0.847-1.597,1.409-2.037
		c0.5-0.391,1.739-0.797,2.665-0.148c0.743,0.52,1.532,2.186,0.641,4.378c0,0-1.002,1.733-1.928,1.926l-0.257,0.012
		c-0.53-0.01-1.71-0.66-1.71-0.66s-0.05,0.141,0.082,0.737c0.077,0.339,0.186,0.716,0.277,1.005l-0.245,0.198
		c0,0-0.745,0.599-0.416,1.463c0,0,0.725,2.728,2.75,2.728c1.79,0.059,3.279-1.639,3.279-1.639c3.839-4.141,9.25-4.698,9.25-4.698
		c5.997-0.408,14.567,5.732,16.9,7.505c-8.88-0.097-12.464,3.312-12.464,3.312c-5.002,3.893-3.055,8.591-3.055,8.591
		c0.364,1.022,1.389,1.767,2.042,2.054c0.943,0.411,1.718,0.428,2.448,0.347c0.527-0.057,1.105-0.253,1.4-0.456
		c0.681-0.401,1.896-1.195,2.482-2.039c0.392-0.424,0.785-1.46,0.525-2.448c0,0-0.158-0.794,0.557-0.955
		c0,0,2.354-0.597,7.106,1.502c0,0,5.164,3.01,11.861,3.606c0,0,7.616,0.772,9.455-3.352c0,0,4.376,1.79,10.779,2.522
		c0,0,6.24,0.646,16.361-0.116c1.992-0.151,4.332,0.015,4.332,0.015c3.239,0.388,5.299,2.074,6.11,3.394
		c3.317,5.386,7.274,15.952,23.479,15.534l7.333-0.201c4.458,0,8.089,0.037,11.653,1.942c1.557,0.834,5.669,4.915,8.2,6.294
		c7.496,5.052,11.828,2.704,11.828,2.704c2.552-1.488,2.352-4.134,1.729-5.616c-0.768-0.244,9.289,1.475,13.577-4.155
		C197.795,111.593,197.973,110.442,197.667,109.722L197.667,109.722z"/>
</g>
</svg>
