<?xml version="1.0" encoding="utf-8"?>
<!DOCTYPE svg PUBLIC "-//W3C//DTD SVG 1.1//EN" "http://www.w3.org/Graphics/SVG/1.1/DTD/svg11.dtd">
<svg version="1.1" id="Layer_1" xmlns="http://www.w3.org/2000/svg" xmlns:xlink="http://www.w3.org/1999/xlink" x="0px" y="0px" width="216px" height="216px" viewBox="0 0 216 216" enable-background="new 0 0 216 216" xml:space="preserve">
<g>
	<path fill="#FFFFFF" fill-opacity="0" d="M0.122,0.122h216v216h-216V0.122z"/>
	<path fill="#A89A6F" d="M138.955,64.812c-0.448-1.045-1.344-1.793-2.239-2.24c-1.344-0.299-2.687-0.149-3.582,1.045
		c-0.749,0.896-1.194,2.389-0.448,3.583c0.298,1.046,1.344,1.344,1.344,2.539l-9.407,21.5c-0.598,0.748-0.598,1.941-1.344,2.389
		c-0.301-0.149-0.598-0.448-0.598-0.748l1.047-17.768l0.746-12.094c0.149-0.896-0.3-2.24,0.446-2.986
		c1.344-0.299,2.241-0.896,2.838-1.941c0.446-1.195,0.446-2.986-0.448-3.882s-1.94-1.193-3.285-1.045
		c-1.194,0.448-2.539,1.344-2.688,2.986c-0.147,1.643,0.746,2.986,1.941,3.583c0.298,0,0.448,0.299,0.597,0.597l-7.316,31.954
		c-0.148,0.598-0.597,1.045-0.895,0.896c-0.149-0.149-0.448-0.448-0.448-0.747l-3.286-35.087c0.598-1.344,2.239-1.195,2.688-2.688
		c0.448-0.746,0.3-2.091,0.148-2.986c-0.597-0.896-1.492-1.494-2.536-1.792c-0.898-0.149-1.941,0.299-2.688,0.597
		c-0.896,0.746-1.643,1.941-1.345,3.433c0.149,0.896,0.597,1.494,1.193,1.941c0.448,0.598,1.644,0.448,1.644,1.494l-1.492,17.619
		l-1.494,17.767l-0.299,0.597c-0.298,0.299-0.747-0.149-0.747-0.299L98.79,61.526c-0.149-0.447-0.149-1.045,0.149-1.494
		c1.194-0.747,2.09-2.538,1.792-4.181c-0.597-1.493-1.642-2.389-3.284-2.389c-1.344,0.149-2.687,0.747-3.135,2.091
		c-0.598,1.343-0.299,2.986,0.597,3.881c0.748,0.896,2.538,0.298,2.986,1.493l0.597,5.824l2.837,26.577
		c0,0.746,0.299,1.494-0.149,2.09c-0.149,0.149-0.598,0.149-0.747-0.149c-3.732-7.914-7.465-16.275-11.198-24.338
		c-0.15-0.598-0.597-1.344-0.299-2.091c0.447-0.597,1.045-1.194,1.344-1.941c0.149-0.896,0.149-1.792-0.448-2.538
		c-0.299-0.748-1.046-1.194-1.941-1.494c-1.195-0.299-2.837,0.149-3.734,1.045c-0.747,0.896-0.747,2.538-0.298,3.733
		c0.448,0.895,1.195,1.493,2.09,1.643c0.895,0.299,1.792,0,2.24,0.896c3.583,11.795,6.868,23.59,10.154,35.387l1.792,1.344
		c3.732,2.24,8.063,4.181,12.692,3.883c1.938-0.151,3.583-0.748,5.075-1.344c1.493-0.448,2.688-1.046,3.883-1.793
		c1.045-0.298,1.791-1.045,2.688-1.642l7.465-25.98l2.837-10.003c0.597-1.494,2.836-0.747,3.582-2.24
		C138.657,66.901,139.103,65.856,138.955,64.812L138.955,64.812z M123.277,105.723c-2.837,1.344-5.824,2.388-9.408,2.539
		c-4.777,0.747-10.451-0.896-14.184-2.837c-0.298,0-0.149-0.299,0-0.448c2.986-2.09,6.42-3.285,10.453-3.733
		c4.927-0.149,9.556,0.747,13.14,3.583C123.727,105.125,123.727,105.573,123.277,105.723L123.277,105.723z"/>
	<path fill="#526364" d="M104.166,155.293c0,0.598,0.447,1.047,0.895,1.344h1.494c3.734-0.149,5.227,0.301,8.809-0.298
		c1.194-0.598,2.391-1.194,2.839-2.836c0.595-2.391,0.595-5.078,0.895-7.617h3.135v14.185l-30.458,0.151v-3.585
		c1.94-0.149,2.389,0.151,4.629-0.149c0.299-0.298,1.045-0.746,0.896-1.492v-22.099c-0.149-0.896,0-2.239-0.896-2.837
		c-1.344-0.746-3.733-0.298-4.48-0.597v-3.286h18.217v2.987c-1.344,0.446-3.733,0.149-4.928,0.598c-0.447,0-1.045,0.595-1.045,1.192
		V155.293L104.166,155.293z M132.833,130.955c0-0.446-0.148-1.044-0.597-1.192c-1.791-0.151-2.985,0-4.927-0.151v-3.434h32.55
		v13.588h-3.285c0-3.583-0.149-7.913-3.135-9.556c-0.897-0.298-1.793-0.446-2.838-0.598l-9.704,0.151
		c-0.149,0.149-1.344-0.151-1.493,0.446v10.005l0.446,0.448c2.39,0,5.526,0.445,6.719-2.539c0.448-1.195,0.598-4.032,0.598-4.032
		h2.987v17.47h-3.434c-0.151-2.09,0.298-5.227-1.495-6.421c-1.344-1.192-3.434-1.044-5.375-0.746l-0.446,0.3v11.498
		c0.149,0.597,0.896,0.445,1.344,0.445c3.285-0.148,6.271,0.151,10.751-0.148c2.239-0.448,4.032-2.239,4.478-4.927
		c0.301-1.94,0.301-3.883,0.448-5.823h3.434l-0.149,14.484H127.16v-3.585c2.09,0,4.031,0.301,5.074-0.298
		c0.598-0.448,0.747-1.492,0.598-2.239L132.833,130.955L132.833,130.955L132.833,130.955z M206.593,160.222h-19.56v-3.434
		c1.046-0.301,3.433,0.298,4.629-0.448c0.448-0.3,0.597-1.047,0.597-1.644c-1.94-2.688-4.031-5.225-6.121-7.764
		c-0.598,0-1.047,0.448-1.493,1.047l-5.375,6.271c-0.151,0.598-0.301,1.044,0,1.642c0.298,0.448,0.746,0.746,1.344,0.897h3.285
		v3.434l-17.172-0.151v-3.283c1.492-0.151,1.94,0.149,3.582-0.151c1.047-0.298,1.941-0.896,2.839-1.791
		c3.135-3.883,6.567-7.766,10.003-11.648l-0.299-0.445c-2.891-3.954-5.878-7.838-8.958-11.646c-0.746-1.194-2.539-1.344-4.18-1.344
		h-1.644v-3.585h18.365v3.434c-0.598,0.301-1.642,0-2.388,0.151c-0.598,0-0.897,0.298-1.344,0.595
		c-0.301,0.448-0.448,1.195-0.149,1.645l4.627,5.973h0.448c1.793-1.941,3.583-4.18,5.376-6.421c0.298-0.446,0.298-1.194-0.149-1.642
		l-0.598-0.149l-2.984-0.151l-0.151-3.434H205.1v3.434c0,0-4.629-0.298-5.823,1.194c-2.985,3.734-6.122,7.168-9.107,10.9
		l0.598,0.897l9.854,12.541c1.194,1.644,3.585,1.492,5.973,1.492V160.222L206.593,160.222z M44.89,150.963h-2.687
		c-0.149,1.642,0.149,3.286-0.449,4.778c-0.299,0.598-0.895,0.746-1.494,0.598c-0.597-0.149-1.045-0.448-1.343-1.047
		c-0.447-2.688-0.149-5.672-0.747-8.36c-0.746-2.688-3.135-3.286-5.375-3.883c-0.149,0-0.299-0.446,0-0.446
		c2.538-0.598,4.629-0.897,6.42-2.688c1.941-1.644,2.837-5.375,1.941-8.362c-1.344-4.032-5.227-5.225-8.66-5.376H9.951v3.137
		c1.643,0.149,3.434,0,4.778,0.448c0.448,0.149,0.597,0.746,0.748,1.192v20.306l-0.299,4.181c-0.896,2.092-3.882,1.194-5.524,1.494
		v3.286h17.767v-3.434h-3.732l-1.045-0.151c-0.448-0.298-0.598-0.896-0.598-1.492v-10.601l0.448-0.3
		c1.941-0.149,3.136-0.298,5.674,0c1.494,0.3,2.538,1.344,3.284,2.688c1.045,3.136,0.598,6.569,1.195,10.004
		c0.299,1.941,1.494,3.135,2.986,3.731c2.389,0.898,5.824,0.898,7.615-0.597C45.337,157.831,44.739,153.948,44.89,150.963
		L44.89,150.963z M30.107,139.915c-3.882,0.149-4.927,0.149-7.765,0.149l-0.299-0.301v-9.704c0-0.298,0.597-0.448,0.896-0.448
		c2.24,0.448,7.465-0.746,9.555,1.194c1.195,1.195,2.09,3.286,1.643,5.525C33.391,138.271,32.049,139.764,30.107,139.915
		L30.107,139.915z M81.62,131.106c-2.837-3.137-6.272-4.929-10.9-5.526c-1.194-0.149-1.194,0-2.538-0.149
		c-3.882,0.149-7.465,1.492-10.601,3.733c-4.927,3.583-8.063,11.498-6.122,18.663c1.792,6.719,6.271,11.05,11.945,12.841
		c1.643,0.3,4.48,0.597,5.973,0.597c6.868-0.148,12.243-4.031,15.379-10.45C87.592,144.394,85.949,135.584,81.62,131.106
		L81.62,131.106z M75.945,152.756c-1.643,2.537-4.628,4.18-7.465,4.032c-1.494,0-3.284-0.301-4.48-1.194
		c-4.33-2.539-5.524-8.958-5.076-14.634c0.298-4.478,2.388-9.107,5.973-10.602c1.493-0.747,3.135-0.596,5.226-0.596
		c2.539,0.446,4.778,2.09,6.122,4.627C78.932,139.615,78.932,147.679,75.945,152.756L75.945,152.756z"/>
</g>
</svg>
