<?xml version="1.0" encoding="utf-8"?>
<!DOCTYPE svg PUBLIC "-//W3C//DTD SVG 1.1//EN" "http://www.w3.org/Graphics/SVG/1.1/DTD/svg11.dtd">
<svg version="1.1" id="_x23_Layer_1" xmlns="http://www.w3.org/2000/svg" xmlns:xlink="http://www.w3.org/1999/xlink" x="0px" y="0px" width="216px" height="216px" viewBox="0 0 216 216" enable-background="new 0 0 216 216" xml:space="preserve">
<circle fill="#FDA600" cx="108" cy="108" r="108"/>
<g>
	<path fill-rule="evenodd" clip-rule="evenodd" fill="#1A171B" d="M30.398,69.608h75.254c7.347-5.5,16.521-7.924,25.904-7.924
		c3.532-0.004,7.055,0.428,10.481,1.288l2.704,0.679l-0.564,2.731c-0.226,1.094-0.512,2.159-0.815,3.227h52.89l-10.275,47.354
		h-43.962l-17.416,12.289l2.457-11.667c-2.813,0.409-5.648,0.641-8.501,0.641c-3.535,0-7.099-0.388-10.422-1.263H20.124
		L30.398,69.608L30.398,69.608z M144.702,111.505L144.702,111.505l-10.087-12.494l-2.116,9.349c-2.162,1.156-3.73,1.481-5.474,1.82
		c-11.759,2.286-19.597-6.28-19.462-16.79c0.159-12.174,9.931-24.766,25.998-24.766c2.388,0,4.37,0.42,6.794,0.92
		c0.026-0.104,0.611-1.997,0.974-3.751c-3.195-0.802-6.476-1.204-9.77-1.2c-13.515,0-23.452,5.145-29.587,12.485
		c1.319,1.919,2.035,4.205,2.035,6.71c-0.002,1.051-0.116,2.1-0.337,3.128c-0.937,4.416-3.935,8.846-8.898,11.588
		c1.023,15.091,16.813,16.813,23.783,16.813c3.966,0,7.994-0.469,12.233-1.347l-1.817,8.636L144.702,111.505L144.702,111.505z
		 M192.993,72.51L192.993,72.51h-20.656l-7.801,17.572l-0.533-17.572h-21.421l-5.252,24.739l9.987,12.382l5.701-25.273l0.892,24.478
		h12.406c0,0,8.675-18.514,11.304-24.135l-5.119,24.135h13.559l7.715-36.325H192.993L192.993,72.51z M32.921,72.51l-7.706,36.325
		h21.593c13.299,0,16.777-7.031,17.664-11.222c0.636-2.987,0.098-5.733-1.516-7.725c-2.015-2.491-5.506-3.756-10.376-3.756h-7.557
		l0.763-3.593h18.042L66.07,72.51H32.921L32.921,72.51z M46.312,94.304l-3.378,0.007c-0.165,0.773-1.065,5.011-1.304,6.148h3.013
		h0.194c2.197,0,4.015-1.32,4.413-3.208c0.042-0.2,0.062-0.395,0.062-0.582c0-0.521-0.156-0.996-0.458-1.375
		C48.33,94.652,47.555,94.304,46.312,94.304L46.312,94.304z M67.94,72.51c-1.169,5.501-2.436,10.795-3.581,16.196
		c1.461,1.811,2.207,4.052,2.207,6.512c0,0.901-0.097,1.83-0.3,2.777c-0.462,2.19-1.826,6.05-5.774,8.935l-0.403,1.905h14.992
		c0,0,1.953-9.216,2.148-10.119h7.001c10.878,0,17.119-6.463,18.479-12.87c0.195-0.899,0.295-1.816,0.297-2.737
		c0-7.617-6.976-10.599-13.734-10.599C82.164,72.51,75.043,72.51,67.94,72.51L67.94,72.51z M82.894,81.887H80.44l-1.58,7.457h2.234
		c3.889,0,6.046-1.263,6.6-3.861C88.315,82.471,85.382,81.887,82.894,81.887L82.894,81.887L82.894,81.887z M29.95,126.741h-4.541
		l1.243-6.139h-6.798l-3.602,17.757h6.798l1.319-6.545h4.541l-1.318,6.545h6.798l3.603-17.757h-6.799L29.95,126.741L29.95,126.741z
		 M43.648,120.603l-9.817,17.757h6.798l1.953-3.806h5.353l0.431,3.806h7.154l-2.714-17.757H43.648L43.648,120.603z M47.301,124.813
		H47.2l-2.968,5.556h3.779L47.301,124.813L47.301,124.813z M69.75,138.664l0.559-2.841h1.344c1.213-0.005,2.304-0.165,3.268-0.483
		c0.964-0.312,1.81-0.748,2.533-1.302c0.719-0.549,1.319-1.188,1.797-1.902c0.482-0.719,0.837-1.484,1.078-2.296
		c0.237-0.812,0.355-1.632,0.355-2.464c-0.003-0.782-0.105-1.464-0.308-2.03c-0.199-0.57-0.474-1.052-0.82-1.441
		c-0.351-0.39-0.744-0.706-1.184-0.951c-0.444-0.241-0.905-0.427-1.391-0.554c-0.487-0.127-0.968-0.216-1.446-0.263
		c-0.478-0.046-0.926-0.067-1.344-0.063h-1.065l0.533-2.663h-6.799l-0.533,2.663H65.26c-1.238,0.009-2.354,0.174-3.348,0.508
		c-0.994,0.33-1.865,0.777-2.613,1.349c-0.744,0.57-1.37,1.218-1.869,1.945c-0.503,0.727-0.875,1.492-1.128,2.292
		c-0.25,0.798-0.376,1.594-0.376,2.379c-0.004,0.668,0.11,1.311,0.339,1.937c0.228,0.626,0.596,1.188,1.094,1.691
		c0.503,0.503,1.159,0.901,1.97,1.196c0.812,0.297,1.801,0.443,2.964,0.453h1.217l-0.558,2.841H69.75L69.75,138.664z
		 M71.983,126.133l-1.142,5.632h0.406c0.478-0.009,0.901-0.123,1.268-0.352c0.369-0.224,0.677-0.521,0.931-0.885
		c0.253-0.363,0.444-0.751,0.575-1.175c0.131-0.418,0.194-0.823,0.194-1.217c0-0.386-0.072-0.728-0.215-1.027
		c-0.14-0.301-0.351-0.537-0.626-0.711c-0.274-0.173-0.613-0.262-1.01-0.266H71.983L71.983,126.133z M64.652,131.765l1.142-5.632
		h-0.381c-0.452,0.004-0.863,0.113-1.23,0.321c-0.372,0.211-0.689,0.49-0.956,0.837c-0.267,0.351-0.469,0.73-0.613,1.154
		c-0.144,0.418-0.22,0.841-0.22,1.264c0,0.351,0.072,0.685,0.212,0.994c0.139,0.312,0.342,0.566,0.617,0.761
		s0.618,0.296,1.023,0.301H64.652L64.652,131.765z M81.723,120.603l-1.065,5.25h5.987l-2.537,12.507h6.799l2.537-12.507h5.987
		l1.065-5.25H81.723L81.723,120.603z M105.137,120.603l-9.817,17.757h6.798l1.954-3.806h5.353l0.431,3.806h7.153l-2.715-17.757
		H105.137L105.137,120.603z M108.79,124.813h-0.102l-2.968,5.556h3.779L108.79,124.813z"/>
	<path fill="#FDA600" d="M192.993,72.51L192.993,72.51h-20.656l-7.801,17.572l-0.533-17.572h-21.421l-5.252,24.739l9.987,12.382
		l5.701-25.273l0.892,24.478h12.406c0,0,8.675-18.514,11.304-24.135l-5.119,24.135h13.559l7.715-36.325H192.993z"/>
	<path fill="#FDA600" d="M32.921,72.51l-7.706,36.325h21.593c13.299,0,16.777-7.031,17.664-11.222
		c0.636-2.987,0.098-5.733-1.516-7.725c-2.015-2.491-5.506-3.756-10.376-3.756h-7.557l0.763-3.593h18.042L66.07,72.51H32.921
		L32.921,72.51z M46.312,94.304c1.243,0,2.018,0.348,2.542,0.99c0.303,0.379,0.458,0.855,0.458,1.375
		c0,0.187-0.02,0.382-0.062,0.582c-0.398,1.888-2.216,3.208-4.413,3.208h-0.194H41.63c0.238-1.138,1.139-5.375,1.304-6.148
		L46.312,94.304z"/>
	<path fill="#FDA600" d="M67.94,72.51c-1.169,5.501-2.436,10.795-3.581,16.196c1.461,1.811,2.207,4.052,2.207,6.512
		c0,0.901-0.097,1.83-0.3,2.777c-0.462,2.19-1.826,6.05-5.774,8.935l-0.403,1.905h14.992c0,0,1.953-9.216,2.148-10.119h7.001
		c10.878,0,17.119-6.463,18.479-12.87c0.195-0.899,0.295-1.816,0.297-2.737c0-7.617-6.976-10.599-13.734-10.599
		C82.164,72.51,75.043,72.51,67.94,72.51L67.94,72.51z M82.894,81.887L82.894,81.887c2.489,0,5.422,0.584,4.801,3.596
		c-0.554,2.598-2.711,3.861-6.6,3.861H78.86l1.58-7.457H82.894z"/>
	<path fill="#FFFFFF" d="M144.702,111.505L144.702,111.505l-10.087-12.494l-2.116,9.349c-2.162,1.156-3.73,1.481-5.474,1.82
		c-11.759,2.286-19.597-6.28-19.462-16.79c0.159-12.174,9.931-24.766,25.998-24.766c2.388,0,4.37,0.42,6.794,0.92
		c0.026-0.104,0.611-1.997,0.974-3.751c-3.195-0.802-6.476-1.204-9.77-1.2c-13.515,0-23.452,5.145-29.587,12.485
		c1.319,1.919,2.035,4.205,2.035,6.71c-0.002,1.051-0.116,2.1-0.337,3.128c-0.937,4.416-3.935,8.846-8.898,11.588
		c1.023,15.091,16.813,16.813,23.783,16.813c3.966,0,7.994-0.469,12.233-1.347l-1.817,8.636L144.702,111.505z"/>
</g>
</svg>
