<?xml version="1.0" encoding="utf-8"?>
<!DOCTYPE svg PUBLIC "-//W3C//DTD SVG 1.1//EN" "http://www.w3.org/Graphics/SVG/1.1/DTD/svg11.dtd">
<svg version="1.1" id="Layer_1" xmlns="http://www.w3.org/2000/svg" xmlns:xlink="http://www.w3.org/1999/xlink" x="0px" y="0px" width="216px" height="216px" viewBox="1142 470.5 216 216" enable-background="new 1142 470.5 216 216" xml:space="preserve">
<path fill="#034694" d="M1145,529.926h210v97.148h-210V529.926z"/>
<g>
	<path fill="#FFFFFF" d="M1215.922,555.447v29.915c0,8.842-6.238,15.188-15.134,15.188c-4.583,0-9.655-2.007-13.262-4.827
		l5.479-13.724c0.813,2.115,1.763,4.665,4.285,4.665c2.604,0,2.82-2.956,2.82-4.828v-26.389H1215.922z M1236.67,555.447
		l4.936,11.608h0.461c0.461-1.41,0.895-2.82,1.464-4.177l3.173-7.431h18.171l-15.188,25.25v19.147h-15.785v-19.147l-15.486-25.25
		H1236.67z M1266.341,583.952l0.813,0.65c2.875,2.251,6.347,4.068,10.062,4.068c1.601,0,4.123-0.651,4.123-2.658
		s-2.116-2.169-3.58-2.468l-3.228-0.597c-6.292-1.112-11.607-4.828-11.607-11.771c0-10.55,9.601-16.436,19.256-16.436
		c5.071,0,9.709,1.248,14.075,3.878l-4.366,11.364c-2.767-1.872-5.885-3.363-9.356-3.363c-1.41,0-3.472,0.543-3.472,2.36
		c0,1.654,2.007,1.871,3.228,2.169l3.661,0.814c6.835,1.519,11.771,5.18,11.771,12.719c0,10.604-9.655,15.84-19.256,15.84
		c-5.587,0-12.069-1.52-17.087-4.068L1266.341,583.952z M1302.521,555.447h15.73l-0.353,19.256h0.353
		c0.353-1.817,1.355-3.417,2.224-5.018l7.784-14.239h17.602l-13.887,21.616l15.378,22.782h-18.714l-7.647-13.425
		c-0.949-1.709-2.36-3.363-2.713-5.181h-0.353l0.353,18.605h-15.73v-44.397H1302.521z M1160.649,546.144
		c-0.651,0.027-1.22,0.244-1.627,0.678c-0.407,0.407-0.624,1.003-0.597,1.654c0.027,1.003,0.57,2.116,1.465,2.983
		c1.546,1.492,3.58,1.79,4.665,0.678c0.406-0.434,0.596-0.977,0.596-1.6c0-0.977-0.515-2.116-1.464-3.038
		C1162.792,546.606,1161.653,546.117,1160.649,546.144z"/>
	<path fill="#FFFFFF" d="M1166.995,627.048c0.651-2.387,0.841-4.882,0.841-4.882c0.082-0.679,0.136-1.356,0.163-2.062
		c0.407-8.407-2.604-18.85-8.814-27.202c-6.292-8.489-10.279-14.646-10.279-19.799c0-5.153,3.77-7.621,6.428-8.218
		c2.685-0.597,9.709-0.597,12.259-2.767c2.522-2.115,3.96-5.153,3.662-8.896c-0.271-3.77-1.193-11.988-13.914-12.584
		c-4.475-0.19-9.167,1.627-12.34,4.068v-6.645c2.902-1.438,7.269-2.956,12.828-2.956c10.496,0,15.324,6.726,15.324,6.726
		s6.238,2.577,10.577,5.939c4.367,3.363,7.919,7.024,8.218,7.513s1.085,2.387-1.573,3.254c-2.685,0.895-8.001,1.872-13.452,1.872
		c0,0-3.553,6.346-9.194,8.299c-5.641,1.98-12.177,0.082-12.476,5.235c-0.19,3.553,2.956,7.811,4.149,9.492
		s14.727,15.161,13.94,35.827c-0.163,4.448-0.868,7.757-0.868,7.757L1166.995,627.048z M1177.247,555.203
		c0,0,3.064,0.407,5.641,0.488c2.577,0.108,2.17-1.085,2.17-1.085c-1.193-0.976-8.218-4.936-8.218-4.936
		C1175.864,552.219,1177.247,555.203,1177.247,555.203z"/>
</g>
</svg>
