<?xml version="1.0" encoding="utf-8"?>
<!DOCTYPE svg PUBLIC "-//W3C//DTD SVG 1.1//EN" "http://www.w3.org/Graphics/SVG/1.1/DTD/svg11.dtd">
<svg version="1.1" id="Layer_1" xmlns="http://www.w3.org/2000/svg" xmlns:xlink="http://www.w3.org/1999/xlink" x="0px" y="0px" width="216px" height="216px" viewBox="0 0 216 216" enable-background="new 0 0 216 216" xml:space="preserve">
<g>
	<path fill-rule="evenodd" clip-rule="evenodd" fill="#0E4674" d="M54,1h108.003C191.702,1,216,25.3,216,55v108.003
		C216,192.702,191.702,217,162.003,217H54c-29.7,0-54-24.298-54-53.997V55C0,25.3,24.3,1,54,1z"/>
	<path fill="#83C640" d="M83.524,134.883c13.174-1.883,24.323-6.953,37.208-0.869c2.316,1.158,4.344-2.316,2.027-3.473
		c-6.371-3.041-12.597-4.346-19.69-3.622c-6.949,0.728-13.753,3.042-20.558,4.052C79.906,131.406,81.062,135.316,83.524,134.883z"/>
	<path fill="#ED3424" d="M106.254,29.627c-0.58,0.869-1.16,1.739-1.738,2.752c-0.289,0.435-0.579,0.724-0.725,1.159
		c-0.145,0.144-0.145,0.288-0.288,0.288l-0.146,0.146c-2.027-2.171-5.068-3.185-8.108-1.593c-2.895,1.593-4.923,6.081-2.75,8.977
		c3.619,5.21,8.976,8.831,15.347,5.79c4.343-2.027,7.24-6.225,9.701-10.134C122.035,29.482,110.741,22.245,106.254,29.627
		L106.254,29.627z M104.517,35.131L104.517,35.131h0.145C105.384,35.564,104.951,35.564,104.517,35.131z"/>
	<path fill="#FFFFFF" d="M109.729,93.042c-1.013-7.24-0.145-12.451,2.752-18.966c2.605-5.938,4.776-11.583,4.343-18.097
		c-0.289-3.62-6.081-3.909-5.79-0.288c0.434,5.501-1.305,10.424-3.476,15.201c-0.868-0.288-1.882-0.146-2.751,0.579
		c-1.16,1.014-1.881,0.724-2.895-0.434c-0.87-1.014-1.74-1.157-2.752-0.868c-1.592-4.777-2.896-9.554-2.027-14.768
		c0.58-3.765-5.212-3.911-5.791-0.29c-1.882,11.294,6.371,20.994,5.068,31.995c-0.868,6.803-0.434,13.61-1.16,20.415
		c-0.724,6.368-2.17,12.018-2.17,18.387c0,3.764,5.791,4.053,5.791,0.29c0-5.792,1.013-10.86,2.026-16.506
		c0.145-1.159,0.288-2.316,0.434-3.62c1.448-0.144,2.75-0.434,4.053-1.014c0.145,1.16,0.289,2.463,0.434,3.622
		c0.725,5.936,3.474,11.146,3.184,17.228c-0.145,3.764,5.647,4.053,5.791,0.29c0.29-5.214-1.447-10.281-2.605-15.349
		C110.742,105.203,110.453,98.978,109.729,93.042L109.729,93.042z M41.3,148.046l6.715,16.417h2.239v6.714h-3.731v-3.565H32.844
		v3.565h-3.73v-6.714h2.237l6.302-16.417H41.3L41.3,148.046z M35.165,164.463L35.165,164.463h8.954l-4.642-12.021L35.165,164.463
		L35.165,164.463z M60.534,147.715c-2.073,0-3.979,0.498-5.72,1.326c-1.575,0.828-2.902,2.072-3.814,3.646
		c-0.912,1.576-1.41,3.235-1.41,5.059s0.498,3.481,1.41,5.057c0.912,1.576,2.238,2.734,3.896,3.648
		c1.658,0.912,3.565,1.326,5.554,1.326c2.073,0,3.897-0.498,5.555-1.326c1.657-0.829,2.985-2.072,3.897-3.648
		c0.911-1.492,1.409-3.233,1.409-5.057s-0.415-3.565-1.409-5.141c-0.995-1.574-2.239-2.818-3.897-3.647
		C64.348,148.129,62.524,147.715,60.534,147.715L60.534,147.715z M53.652,157.828c0-1.326,0.249-2.486,0.914-3.564
		c0.497-0.996,1.326-1.824,2.403-2.404c1.079-0.581,2.239-0.828,3.565-0.828s2.487,0.247,3.565,0.828
		c1.078,0.58,1.907,1.326,2.487,2.404c0.58,0.994,0.912,2.156,0.912,3.482c0,1.989-0.58,3.646-1.907,4.891
		c-1.327,1.243-2.984,1.908-4.975,1.908c-1.325,0-2.487-0.25-3.564-0.83c-1.078-0.58-1.906-1.326-2.487-2.403
		C53.984,160.315,53.652,159.156,53.652,157.828L53.652,157.828L53.652,157.828z M86.733,148.047v2.984h-9.784v4.643h4.063
		c1.409,0,2.652,0.249,3.813,0.747c1.078,0.496,1.907,1.243,2.57,2.071c0.581,0.912,0.913,1.907,0.913,3.066
		c0,1.825-0.663,3.316-1.907,4.396c-1.327,1.077-2.984,1.657-5.057,1.657h-8.042v-19.564H86.733L86.733,148.047z M80.598,164.628
		L80.598,164.628c1.077,0,1.989-0.249,2.652-0.829c0.664-0.582,0.996-1.328,0.996-2.24c0-0.91-0.332-1.657-0.996-2.154
		c-0.664-0.496-1.575-0.828-2.818-0.828h-3.565v6.052H80.598L80.598,164.628z M97.344,148.046c1.824,0,3.315,0.497,4.476,1.575
		c1.16,1.079,1.741,2.404,1.741,4.063c0,1.659-0.581,3.068-1.741,4.146c-1.161,1.078-2.652,1.574-4.559,1.574h-3.648v8.207h-3.814
		v-19.565H97.344L97.344,148.046z M96.348,156.42L96.348,156.42c0.996,0,1.824-0.249,2.321-0.663
		c0.581-0.497,0.829-1.161,0.829-2.073c0-1.824-1.161-2.736-3.481-2.736h-2.572v5.473H96.348L96.348,156.42z M115.416,147.715
		c1.991,0,3.814,0.414,5.473,1.243s2.902,2.073,3.896,3.647c0.996,1.575,1.408,3.317,1.408,5.141s-0.497,3.564-1.408,5.057
		c-0.912,1.576-2.238,2.819-3.896,3.648c-1.658,0.828-3.482,1.326-5.555,1.326c-1.99,0-3.896-0.414-5.555-1.326
		c-1.659-0.914-2.985-2.072-3.897-3.648c-0.912-1.575-1.408-3.233-1.408-5.057s0.496-3.482,1.408-5.059
		c0.913-1.574,2.24-2.818,3.815-3.646C111.438,148.213,113.262,147.715,115.416,147.715L115.416,147.715z M108.454,157.828
		L108.454,157.828c0,1.328,0.332,2.487,0.912,3.483c0.58,1.077,1.409,1.823,2.487,2.403c1.077,0.58,2.238,0.83,3.563,0.83
		c1.991,0,3.648-0.665,4.975-1.908c1.328-1.244,1.907-2.901,1.907-4.891c0-1.326-0.331-2.488-0.911-3.482
		c-0.58-1.078-1.41-1.824-2.488-2.404c-1.078-0.581-2.236-0.828-3.564-0.828c-1.326,0-2.486,0.247-3.564,0.828
		c-1.078,0.58-1.906,1.408-2.403,2.404C108.785,155.342,108.454,156.502,108.454,157.828L108.454,157.828z M141.035,148.047v2.984
		h-9.783v4.643h4.063c1.408,0,2.652,0.249,3.813,0.747c1.076,0.496,1.906,1.243,2.57,2.071c0.58,0.912,0.912,1.907,0.912,3.066
		c0,1.825-0.664,3.316-1.906,4.396c-1.328,1.077-2.984,1.657-5.059,1.657h-8.041v-19.564H141.035L141.035,148.047z M134.816,164.628
		L134.816,164.628c1.078,0,1.99-0.249,2.653-0.829c0.664-0.582,0.995-1.328,0.995-2.24c0-0.91-0.331-1.657-0.995-2.154
		c-0.664-0.496-1.575-0.828-2.819-0.828h-3.564v6.052H134.816L134.816,164.628z M146.01,148.047L146.01,148.047h-3.896l8.787,15.42
		c-0.165,0.58-0.414,1.078-0.911,1.41c-0.499,0.332-0.995,0.498-1.575,0.498c-0.995,0-1.824-0.332-2.736-0.912v3.314
		c0.83,0.416,1.741,0.664,2.902,0.664c1.409,0,2.652-0.5,3.564-1.327c0.912-0.912,2.404-4.063,2.404-4.063l7.295-15.004h-3.896
		l-5.306,11.274L146.01,148.047L146.01,148.047z M179.752,148.047v2.902h-6.881v16.662h-3.813v-16.662h-6.966v-2.902H179.752
		L179.752,148.047z M30.522,182.536v-1.077h0.995c0.249,0,0.497-0.084,0.747-0.167c0.166-0.083,0.331-0.166,0.415-0.248
		c0.083-0.083,0.166-0.248,0.166-0.497c0-0.25-0.166-0.416-0.415-0.582c-0.249-0.164-0.58-0.164-1.078-0.164
		c-0.414,0-0.828,0.084-1.16,0.164c-0.332,0.086-0.663,0.251-0.912,0.416v-1.16c0.083-0.082,0.249-0.167,0.497-0.248
		c0.165-0.085,0.415-0.166,0.581-0.249c0.249-0.084,0.415-0.084,0.663-0.166c0.248,0,0.415-0.083,0.58-0.083
		c0.332,0,0.747,0,1.077,0.083c0.333,0.083,0.581,0.166,0.83,0.332c0.249,0.164,0.415,0.333,0.579,0.579
		c0.166,0.25,0.25,0.498,0.25,0.748c0,0.415-0.083,0.746-0.332,1.077c-0.249,0.248-0.58,0.497-0.995,0.58
		c0.165,0,0.415,0.083,0.581,0.165c0.165,0.084,0.331,0.248,0.497,0.333c0.165,0.165,0.249,0.331,0.332,0.497
		c0.083,0.165,0.165,0.416,0.165,0.662c0,0.416-0.083,0.746-0.248,0.996c-0.165,0.248-0.415,0.498-0.664,0.662
		c-0.248,0.166-0.581,0.249-0.995,0.333c-0.331,0.083-0.747,0.083-1.077,0.083h-0.497c-0.249,0-0.415-0.083-0.664-0.083
		c-0.249-0.084-0.415-0.084-0.664-0.167c-0.248-0.083-0.331-0.164-0.497-0.33v-1.328c0.166,0.084,0.331,0.25,0.497,0.333
		c0.166,0.082,0.332,0.164,0.581,0.247c0.166,0.084,0.415,0.084,0.581,0.166c0.166,0,0.331,0.084,0.497,0.084
		c0.579,0,0.995-0.084,1.326-0.25c0.332-0.165,0.498-0.415,0.498-0.746c0-0.165-0.083-0.331-0.166-0.414
		c-0.083-0.083-0.249-0.248-0.415-0.332c-0.166-0.083-0.331-0.166-0.497-0.166c-0.166,0-0.415-0.082-0.58-0.082L30.522,182.536
		L30.522,182.536L30.522,182.536z M46.771,187.095h-1.327v-1.576h-4.643v1.576h-1.327v-2.819h0.581l2.819-5.803h0.746l2.57,5.803
		h0.581V187.095L46.771,187.095z M44.782,184.275L44.782,184.275l-1.659-3.647l-1.658,3.647H44.782L44.782,184.275z M54.813,178.472
		c0.581,0,1.078,0.083,1.492,0.249c0.497,0.165,0.829,0.416,1.161,0.746c0.332,0.332,0.581,0.664,0.747,1.079
		c0.166,0.414,0.249,0.911,0.249,1.407c0,0.581-0.083,1.077-0.249,1.493c-0.165,0.415-0.415,0.827-0.747,1.16
		c-0.332,0.332-0.747,0.58-1.161,0.746c-0.498,0.166-0.995,0.249-1.492,0.249s-0.996-0.083-1.493-0.249
		c-0.414-0.164-0.828-0.414-1.16-0.746c-0.332-0.333-0.58-0.747-0.747-1.16c-0.166-0.416-0.248-0.912-0.248-1.493
		c0-0.496,0.083-0.994,0.248-1.407c0.166-0.416,0.415-0.83,0.747-1.163c0.332-0.33,0.747-0.578,1.16-0.744
		C53.819,178.555,54.316,178.472,54.813,178.472L54.813,178.472z M54.813,179.716L54.813,179.716c-0.332,0-0.58,0.083-0.912,0.165
		c-0.249,0.083-0.497,0.249-0.746,0.498c-0.166,0.165-0.331,0.414-0.497,0.746c-0.083,0.248-0.166,0.58-0.166,0.912
		c0,0.333,0.083,0.663,0.166,0.995c0.083,0.332,0.249,0.581,0.497,0.746c0.165,0.249,0.415,0.415,0.746,0.497
		c0.249,0.083,0.581,0.165,0.912,0.165c0.332,0,0.664-0.083,0.995-0.165c0.25-0.082,0.498-0.248,0.747-0.497
		c0.166-0.25,0.333-0.496,0.498-0.746c0.083-0.332,0.166-0.662,0.166-0.995c0-0.332-0.083-0.664-0.166-0.912
		c-0.083-0.249-0.249-0.497-0.498-0.746c-0.248-0.165-0.497-0.332-0.747-0.498C55.477,179.799,55.145,179.716,54.813,179.716
		L54.813,179.716z M65.922,178.639c1.243,0,2.239,0.332,2.902,0.912s0.995,1.491,0.995,2.57c0,0.496-0.083,0.996-0.248,1.407
		c-0.166,0.417-0.416,0.83-0.747,1.162c-0.332,0.332-0.664,0.579-1.078,0.746c-0.414,0.167-0.912,0.25-1.409,0.25
		c-0.248,0-0.415,0-0.664-0.084c-0.248-0.084-0.497-0.166-0.746-0.249v3.732H63.52v-10.447H65.922L65.922,178.639z M64.927,179.883
		L64.927,179.883v4.311c0.415,0.165,0.829,0.332,1.327,0.332c0.332,0,0.58-0.084,0.911-0.166c0.25-0.084,0.498-0.248,0.664-0.497
		c0.165-0.248,0.332-0.414,0.497-0.745c0.083-0.25,0.166-0.581,0.166-0.913s-0.083-0.663-0.166-0.995
		c-0.083-0.248-0.249-0.497-0.497-0.748c-0.166-0.165-0.415-0.33-0.746-0.412c-0.25-0.085-0.581-0.166-0.912-0.166H64.927
		L64.927,179.883z M78.275,178.472c0.58,0,1.078,0.083,1.492,0.249c0.497,0.165,0.83,0.416,1.161,0.746
		c0.331,0.332,0.579,0.664,0.746,1.079c0.166,0.414,0.249,0.911,0.249,1.407c0,0.581-0.083,1.077-0.249,1.493
		c-0.166,0.415-0.415,0.827-0.746,1.16c-0.332,0.332-0.747,0.58-1.161,0.746c-0.497,0.166-0.995,0.249-1.492,0.249
		c-0.498,0-0.995-0.083-1.492-0.249c-0.415-0.164-0.829-0.414-1.16-0.746c-0.332-0.333-0.581-0.747-0.747-1.16
		c-0.165-0.416-0.249-0.912-0.249-1.493c0-0.496,0.083-0.994,0.249-1.407c0.166-0.416,0.415-0.83,0.747-1.163
		c0.331-0.33,0.746-0.578,1.16-0.744C77.281,178.555,77.696,178.472,78.275,178.472L78.275,178.472z M78.192,179.716L78.192,179.716
		c-0.331,0-0.58,0.083-0.911,0.165c-0.249,0.083-0.498,0.249-0.747,0.498c-0.166,0.165-0.332,0.414-0.497,0.746
		c-0.083,0.248-0.166,0.58-0.166,0.912c0,0.333,0.083,0.663,0.166,0.995c0.083,0.332,0.249,0.581,0.497,0.746
		c0.165,0.249,0.415,0.415,0.747,0.497c0.249,0.083,0.58,0.165,0.911,0.165c0.333,0,0.664-0.083,0.995-0.165
		c0.333-0.082,0.498-0.248,0.747-0.497c0.166-0.25,0.331-0.496,0.498-0.746c0.083-0.332,0.166-0.662,0.166-0.995
		c0-0.332-0.083-0.664-0.166-0.912c-0.083-0.249-0.249-0.497-0.498-0.746c-0.166-0.165-0.497-0.332-0.747-0.498
		C78.855,179.799,78.607,179.716,78.192,179.716L78.192,179.716z M87.146,185.519v-6.88h2.652c0.414,0,0.749,0.082,0.997,0.164
		c0.331,0.083,0.579,0.248,0.746,0.416c0.249,0.164,0.332,0.33,0.498,0.58c0.083,0.248,0.166,0.495,0.166,0.747
		c0,0.164,0,0.414-0.084,0.579c-0.083,0.165-0.165,0.333-0.248,0.414c-0.082,0.166-0.166,0.25-0.331,0.332
		c-0.084,0.083-0.25,0.166-0.332,0.249c0.166,0.083,0.332,0.166,0.416,0.25c0.165,0.081,0.247,0.164,0.414,0.33
		c0.083,0.166,0.166,0.248,0.248,0.415c0.084,0.166,0.084,0.332,0.084,0.58c0,0.25-0.084,0.498-0.084,0.746
		c-0.083,0.249-0.248,0.417-0.415,0.581c-0.166,0.166-0.415,0.332-0.746,0.414c-0.333,0.084-0.665,0.166-1.078,0.166h-2.901
		L87.146,185.519L87.146,185.519L87.146,185.519z M88.555,179.883L88.555,179.883v1.74h0.997c0.415,0,0.663-0.084,0.911-0.248
		c0.249-0.166,0.333-0.415,0.333-0.747c0-0.167,0-0.248-0.084-0.332c-0.082-0.082-0.164-0.165-0.331-0.247
		c-0.083-0.085-0.25-0.085-0.415-0.166H89.55H88.555L88.555,179.883z M88.555,182.536L88.555,182.536v1.739H89.8
		c0.165,0,0.33,0,0.497-0.082c0.166,0,0.25-0.084,0.414-0.166c0.084-0.082,0.166-0.166,0.25-0.249
		c0.083-0.083,0.083-0.25,0.083-0.414c0-0.166,0-0.249-0.083-0.416c-0.084-0.082-0.166-0.166-0.332-0.248
		c-0.167-0.083-0.332-0.164-0.499-0.164c-0.164,0-0.413-0.085-0.663-0.085h-0.913V182.536L88.555,182.536z M97.095,178.721v-0.33
		c0.249-0.25,0.415-0.417,0.496-0.663c0.083-0.25,0.167-0.499,0.167-0.913c-0.497-0.165-0.829-0.498-0.829-0.996
		c0-0.247,0.083-0.497,0.248-0.746c0.166-0.166,0.414-0.332,0.663-0.332c0.332,0,0.581,0.166,0.748,0.416
		c0.166,0.248,0.332,0.58,0.332,1.078c0,0.58-0.165,1.076-0.497,1.493C98.092,178.225,97.675,178.555,97.095,178.721L97.095,178.721
		z M103.811,184.027c0.165-0.249,0.415-0.58,0.58-0.746c0.247-0.249,0.414-0.415,0.746-0.499c-0.249-0.082-0.414-0.165-0.663-0.331
		c-0.166-0.081-0.333-0.248-0.497-0.414c-0.166-0.168-0.25-0.332-0.333-0.58c-0.084-0.165-0.084-0.415-0.084-0.747
		c0-0.331,0.084-0.663,0.25-0.911c0.165-0.25,0.331-0.496,0.663-0.663c0.249-0.165,0.58-0.333,0.912-0.415
		c0.332-0.084,0.663-0.166,0.994-0.166h2.57v6.882h-1.408v-2.488h-0.416c-0.165,0-0.331,0-0.497,0.084
		c-0.166,0-0.331,0.083-0.497,0.165c-0.166,0.084-0.332,0.165-0.415,0.331c-0.166,0.165-0.248,0.333-0.415,0.498l-0.912,1.408
		h-1.576L103.811,184.027L103.811,184.027z M107.542,181.954L107.542,181.954v-2.071h-1.244c-0.417,0-0.748,0.082-0.995,0.248
		c-0.249,0.165-0.333,0.415-0.333,0.748c0,0.163,0,0.247,0.084,0.413c0.083,0.167,0.083,0.249,0.249,0.333
		c0.083,0.082,0.247,0.164,0.414,0.247c0.165,0.083,0.416,0.083,0.663,0.083L107.542,181.954L107.542,181.954L107.542,181.954z
		 M125.281,181.457c0.333,0,0.582-0.084,0.748-0.25c0.248-0.165,0.416-0.413,0.58-0.746l0.416-0.746
		c0.082-0.25,0.248-0.414,0.33-0.496c0.084-0.166,0.25-0.248,0.332-0.333c0.166-0.083,0.249-0.165,0.416-0.165
		c0.166,0,0.332-0.082,0.496-0.082h0.332v1.242H128.6c-0.165,0-0.249,0.083-0.415,0.166c-0.083,0.083-0.166,0.166-0.248,0.333
		l-0.331,0.662c-0.084,0.165-0.166,0.248-0.25,0.415c-0.082,0.082-0.164,0.166-0.248,0.248c-0.082,0.084-0.166,0.165-0.248,0.165
		c-0.084,0.083-0.248,0.083-0.332,0.166c0.166,0.084,0.332,0.084,0.498,0.166c0.165,0.082,0.248,0.166,0.414,0.332
		c0.166,0.164,0.248,0.247,0.414,0.496c0.165,0.165,0.25,0.416,0.416,0.663l1.078,1.991h-1.576l-0.912-1.907
		c-0.248-0.415-0.497-0.747-0.745-0.912c-0.25-0.165-0.581-0.249-0.831-0.249h-0.165v3.068h-1.408v-6.882h1.408v2.819h0.165v-0.165
		H125.281L125.281,181.457z M136.559,178.639c1.243,0,2.24,0.332,2.902,0.912s0.995,1.491,0.995,2.57
		c0,0.496-0.084,0.996-0.249,1.407c-0.166,0.417-0.415,0.83-0.746,1.162c-0.332,0.332-0.662,0.579-1.078,0.746
		c-0.414,0.166-0.912,0.25-1.408,0.25c-0.25,0-0.414,0-0.663-0.084s-0.498-0.166-0.747-0.249v3.732h-1.327v-10.447H136.559
		L136.559,178.639z M135.563,179.883L135.563,179.883v4.311c0.414,0.165,0.829,0.332,1.327,0.332c0.332,0,0.579-0.084,0.911-0.166
		c0.249-0.084,0.497-0.248,0.664-0.497c0.165-0.165,0.333-0.414,0.498-0.745c0.083-0.25,0.165-0.581,0.165-0.913
		s-0.082-0.663-0.165-0.995c-0.085-0.248-0.249-0.497-0.498-0.748c-0.166-0.165-0.415-0.33-0.747-0.412
		c-0.249-0.085-0.58-0.166-0.912-0.166H135.563L135.563,179.883z M148.662,181.375v-0.333c0-0.414-0.082-0.746-0.332-0.911
		c-0.166-0.166-0.497-0.248-0.911-0.248c-0.415,0-0.747,0.082-1.16,0.248c-0.331,0.165-0.748,0.497-1.078,0.829v-1.493
		c0.497-0.662,1.327-0.912,2.321-0.912c0.331,0,0.662,0.084,0.996,0.166c0.33,0.082,0.578,0.25,0.828,0.416
		c0.248,0.166,0.414,0.414,0.497,0.746c0.165,0.248,0.165,0.663,0.165,0.996v3.563c0,0.165,0,0.249,0.083,0.249
		c0.083,0.083,0.083,0.083,0.166,0.083c0.082,0,0.167,0,0.332-0.083c0.165-0.084,0.247-0.165,0.413-0.249v0.828
		c-0.164,0.084-0.33,0.167-0.413,0.249c-0.083,0.084-0.25,0.084-0.332,0.166c-0.083,0.084-0.166,0.084-0.249,0.084h-0.332
		c-0.331,0-0.496-0.084-0.664-0.166c-0.164-0.084-0.247-0.249-0.33-0.579c-0.332,0.246-0.58,0.413-0.912,0.495
		c-0.334,0.084-0.664,0.166-0.912,0.166c-0.25,0-0.496-0.083-0.664-0.166c-0.248-0.082-0.414-0.249-0.498-0.33
		c-0.165-0.165-0.247-0.333-0.33-0.498s-0.083-0.415-0.083-0.663c0-0.332,0.083-0.58,0.166-0.829
		c0.082-0.248,0.247-0.416,0.497-0.581c0.164-0.166,0.414-0.331,0.746-0.414c0.248-0.166,0.579-0.248,0.993-0.414L148.662,181.375
		L148.662,181.375z M148.662,182.12L148.662,182.12c-0.332,0.083-0.58,0.164-0.829,0.331c-0.249,0.085-0.497,0.249-0.663,0.331
		c-0.164,0.166-0.332,0.25-0.497,0.416c-0.083,0.166-0.165,0.33-0.165,0.58c0,0.167,0,0.249,0.082,0.415
		c0.084,0.082,0.084,0.248,0.166,0.332c0.084,0.083,0.166,0.165,0.332,0.165c0.084,0.083,0.248,0.083,0.415,0.083
		c0.248,0,0.416-0.083,0.58-0.165c0.167-0.083,0.415-0.249,0.581-0.415v-2.073H148.662L148.662,182.12z M155.543,176.484
		c0.166,0,0.332,0.081,0.498,0.164c0.165,0.166,0.165,0.332,0.165,0.496c0,0.166-0.082,0.333-0.165,0.498
		c-0.166,0.165-0.332,0.249-0.498,0.249c-0.164,0-0.33-0.084-0.495-0.249c-0.167-0.165-0.25-0.332-0.25-0.498
		c0-0.164,0.083-0.33,0.25-0.496C155.129,176.564,155.295,176.484,155.543,176.484L155.543,176.484z M157.284,185.519
		L157.284,185.519h-1.325v-6.88h1.408v6.88H157.284L157.284,185.519z M157.783,176.484L157.783,176.484
		c0.164,0,0.332,0.081,0.496,0.164c0.166,0.166,0.166,0.332,0.166,0.496c0,0.166-0.084,0.333-0.166,0.498
		c-0.164,0.165-0.332,0.249-0.496,0.249c-0.249,0-0.415-0.084-0.499-0.249c-0.165-0.165-0.165-0.332-0.165-0.498
		c0-0.164,0.084-0.33,0.165-0.496C157.368,176.564,157.534,176.484,157.783,176.484L157.783,176.484z M168.809,178.639v6.88h-1.327
		v-2.901h-3.399v2.901h-1.408v-6.88h1.408v2.736h3.399v-2.736H168.809L168.809,178.639z M178.592,181.126l-3.98,4.561h-0.746v-7.048
		h1.41v4.726l3.979-4.726h0.748v6.88h-1.41V181.126z"/>
	<path fill="#FFFFFF" d="M104.227,68.719c0.866-0.146,1.882-1.014,2.171-1.882c0.435-2.605,0.58-5.068,0.29-7.528
		c-0.29-1.737-2.173-2.75-3.619-2.316c-1.448,0.288-2.171,1.592-2.171,2.897c-0.726,0.434-1.449,1.158-1.449,2.315
		c-0.146,2.173,0.146,4.201,1.881,5.647C102.199,68.429,103.068,68.865,104.227,68.719z"/>
</g>
</svg>
