<?xml version="1.0" encoding="utf-8"?>
<!DOCTYPE svg PUBLIC "-//W3C//DTD SVG 1.1//EN" "http://www.w3.org/Graphics/SVG/1.1/DTD/svg11.dtd">
<svg version="1.1" id="Layer_1" xmlns="http://www.w3.org/2000/svg" xmlns:xlink="http://www.w3.org/1999/xlink" x="0px" y="0px" width="216px" height="216px" viewBox="0 0 216 216" enable-background="new 0 0 216 216" xml:space="preserve">
<path fill-rule="evenodd" clip-rule="evenodd" fill="#1B4A96" d="M54.5,0.5h108.003c29.699,0,53.997,24.3,53.997,54v108.003
	c0,29.699-24.298,53.997-53.997,53.997H54.5c-29.7,0-54-24.298-54-53.997V54.5C0.5,24.8,24.8,0.5,54.5,0.5z"/>
<path fill="#FFFFFF" d="M186.468,150.912c-0.026,0.039-0.064,0.066-0.115,0.084c-0.066,0.025-0.163,0.037-0.289,0.037h-0.537v-0.495
	h0.612c0.138,0,0.24,0.024,0.295,0.073c0.051,0.044,0.075,0.098,0.075,0.167C186.509,150.827,186.495,150.87,186.468,150.912
	 M187.276,152.379l-0.408-0.626c-0.078-0.115-0.16-0.211-0.244-0.292c0.113-0.045,0.209-0.104,0.282-0.178
	c0.134-0.137,0.2-0.307,0.2-0.505c0-0.153-0.039-0.292-0.117-0.417c-0.08-0.132-0.194-0.224-0.331-0.276
	c-0.127-0.047-0.302-0.07-0.532-0.07h-1.188v2.571h0.589v-1.023h0.227c0.094,0,0.13,0.008,0.145,0.011
	c0.03,0.006,0.064,0.021,0.099,0.043c0.021,0.014,0.063,0.047,0.124,0.123c0.056,0.069,0.13,0.172,0.22,0.307
	c-0.001,0,0.313,0.479,0.313,0.479l0.039,0.062h0.719L187.276,152.379z"/>
<g>
	<path fill="#FFFFFF" d="M174.455,162.684c-2.425,0-4.399-1.977-4.399-4.406c0-2.425,1.975-4.4,4.399-4.4
		c2.428,0,4.403,1.976,4.403,4.4C178.858,160.707,176.883,162.684,174.455,162.684 M182.962,153.646
		c-0.214-1.014-0.626-1.877-1.242-2.589c-0.615-0.713-1.536-1.258-2.759-1.634c-1.229-0.378-2.967-0.567-5.226-0.567h-8.401v33.972
		h8.308v-13.701h2.252c1.824,0,3.3-0.266,4.434-0.796c1.13-0.53,1.907-1.293,2.327-2.285c0.418-0.992,0.628-2.572,0.628-4.736
		v-2.956C183.281,156.229,183.175,154.66,182.962,153.646"/>
	<path fill="#FFFFFF" d="M175.074,160.474l-0.948-1.83v1.83h-1.396v-4.389h1.396v1.884l0.891-1.884h1.608l-1.193,2.167l1.361,2.222
		H175.074z M174.455,154.934c-1.844,0-3.347,1.504-3.347,3.344c0,1.848,1.503,3.346,3.347,3.346c1.849,0,3.348-1.498,3.348-3.346
		C177.803,156.438,176.304,154.934,174.455,154.934"/>
	<path fill="#FFFFFF" d="M186.029,148.641c-1.46,0-2.647,1.189-2.647,2.649c0,1.461,1.188,2.649,2.647,2.649
		c1.463,0,2.652-1.188,2.652-2.649C188.682,149.83,187.492,148.641,186.029,148.641 M188.142,151.29
		c0,1.164-0.947,2.111-2.112,2.111c-1.163,0-2.109-0.947-2.109-2.111s0.946-2.112,2.109-2.112
		C187.194,149.181,188.142,150.126,188.142,151.29"/>
	<path fill="#FFFFFF" d="M104.576,132.155c-22.54,0-40.876-18.336-40.876-40.877c0-20.079,14.558-36.812,33.668-40.228V60
		c0,2.402,1.131,4.612,3.016,6.011v7.515H83.542c-1.946,0-3.708,0.983-4.729,2.658c-0.991,1.666-1.048,3.745-0.156,5.416
		l21.277,40.619c0.955,1.823,2.834,2.956,4.898,2.956c2.076,0,3.952-1.136,4.893-2.956l21.29-40.611
		c0.897-1.697,0.836-3.779-0.172-5.448c-0.999-1.625-2.803-2.634-4.711-2.634h-16.847v-7.511c1.896-1.403,3.032-3.615,3.032-6.016
		v-8.851c18.849,3.627,33.135,20.239,33.135,40.131C145.453,113.819,127.117,132.155,104.576,132.155 M112.318,41.883v-8.259
		c0-4.118-3.357-7.465-7.486-7.465c-4.117,0-7.466,3.348-7.466,7.465v8.184c-24.165,3.506-42.79,24.351-42.79,49.471
		c0,27.566,22.43,49.998,49.998,49.998c27.57,0,50-22.432,50-49.998C154.574,66.343,136.225,45.615,112.318,41.883"/>
	<polygon fill="#FFFFFF" points="120.398,176.016 114.247,176.016 114.247,168.571 119.482,168.571 119.482,162.081 
		114.247,162.081 114.247,155.665 119.816,155.665 119.816,148.855 105.939,148.855 105.939,182.827 120.398,182.827 	"/>
	<polygon fill="#FFFFFF" points="55.7,155.585 58.278,155.585 58.278,182.827 66.586,182.827 66.586,148.774 47.391,148.774 
		47.391,182.827 55.701,182.827 55.701,155.585 	"/>
	<polygon fill="#FFFFFF" points="44.553,175.385 37.821,175.385 37.821,167.146 43.556,167.146 43.556,160.021 37.821,160.021 
		37.821,152.894 43.972,152.894 43.972,145.451 28.682,145.451 28.682,182.827 44.553,182.827 	"/>
	<polygon fill="#FFFFFF" points="131.545,168.571 134.119,168.571 134.119,182.827 142.43,182.827 142.43,148.855 134.119,148.855 
		134.119,161.051 131.545,161.051 131.545,148.855 123.236,148.855 123.236,182.827 131.545,182.827 	"/>
	<polygon fill="#FFFFFF" points="149.687,182.827 157.997,182.827 157.997,155.665 162.98,155.665 162.98,148.856 144.782,148.856 
		144.782,155.665 149.687,155.665 	"/>
	<rect x="69.423" y="148.855" fill="#FFFFFF" width="8.31" height="33.972"/>
	<polygon fill="#FFFFFF" points="103.587,175.385 101.676,175.385 101.676,145.449 92.535,145.449 92.535,175.385 89.709,175.385 
		89.709,145.449 80.57,145.449 80.57,182.826 97.271,182.826 97.271,186.522 103.587,186.522 	"/>
</g>
</svg>
