<?xml version="1.0" encoding="utf-8"?>
<!DOCTYPE svg PUBLIC "-//W3C//DTD SVG 1.1//EN" "http://www.w3.org/Graphics/SVG/1.1/DTD/svg11.dtd">
<svg version="1.1" id="Layer_1" xmlns="http://www.w3.org/2000/svg" xmlns:xlink="http://www.w3.org/1999/xlink" x="0px" y="0px" width="216px" height="216px" viewBox="0 0 216 216" enable-background="new 0 0 216 216" xml:space="preserve">
<g>
	<path fill-rule="evenodd" clip-rule="evenodd" fill="#FEE241" d="M54,0h108.003C191.702,0,216,24.3,216,54v108.003
		C216,191.702,191.702,216,162.003,216H54c-29.7,0-54-24.298-54-53.997V54C0,24.3,24.3,0,54,0z"/>
	<path fill-rule="evenodd" clip-rule="evenodd" fill="#3F8CC6" d="M128.952,164.7h-2.269c-1.397,0-3.341-0.249-4.656-0.42
		c-0.399-0.053-1.844-0.296-2.183-0.409c-1.188-0.396-0.966,0.052-1.588-1.004c-1.211-2.054-3.009-4.038-4.92-5.448
		c-4.824-3.557-7.82-4.599-16.029-4.599c-4.591,0-8.834,0.107-13.392,0.107c-2.327,0-4.432-0.039-6.363-0.44
		c-1.872-0.388-3.909-0.64-6.165-0.64c-1.365,0-3.78,0.466-3.78,1.62c0,2.406,2.664,3.228,4.461,3.963
		c1.03,0.421,5.521,1.869,6.676,1.854l0.304,0.267l11.887,2.341c-0.541,0.739-5.602,1.513-7.235,1.513h-1.62
		c-8.107,0-17.338-4.576-21.682-8.343c-1.34-1.162-2.792-2.13-4.049-3.402c-1.261-1.275-2.505-2.52-3.78-3.78
		c-1.025-1.014-2.612-2.89-3.494-4.066c-1.054-1.407-1.994-3.305-4.255-3.305h-0.54c-1.071,0-1.944,0.853-1.944,1.944v0.756
		c0,1.786,6.021,10.217,7.262,11.529c1.534,1.624,2.812,3.352,4.428,4.968c1.407,1.406,3.388,3.43,4.941,4.563
		c1.768,1.29,3.413,2.789,5.291,4.105c1.702,1.194,3.96,2.704,5.833,3.671c2.073,1.07,4.134,2.064,6.264,3.133
		c1.053,0.528,2.312,0.871,3.347,1.404c0.853,0.438,2.695,0.784,3.458,1.295c1.017,0,3.885,1.209,5.086,1.394
		c1.813,0.278,3.464,0.799,5.378,1.103c3.519,0.558,7.758,1.176,11.784,1.176h4.752c2.33,0,5.77-0.248,7.768-0.656
		c0.994-0.203,2.589-0.529,3.575-0.637c1.113-0.121,2.694-0.759,3.546-0.812l2.305-0.637l3.326-1.146
		c0.988,0,5.871-2.341,6.911-2.809c2.267-1.021,4.235-2.168,6.338-3.383c3.289-1.901,8.702-5.734,11.24-8.308
		c1.657-1.682,3.356-2.949,4.915-4.806c1.532-1.826,3.054-3.29,4.552-5.276c1.162-1.542,7.516-10.438,7.516-12.031
		c0-0.336-0.342-0.648-0.756-0.648h-0.324c-0.326,0-3.453,3.727-3.969,4.239c-1.412,1.405-2.815,2.706-4.212,4.104
		c-2.44,2.443-6.339,5.383-9.293,7.339c-3.581,2.371-6.724,3.932-10.895,5.737C139.646,163.144,133.246,164.7,128.952,164.7
		L128.952,164.7z M140.616,85.644v43.2c0,0.792,1.044,1.836,1.836,1.836H178.2c0,1.067,0.537,3.871,0.729,4.995
		c0.261,1.53,0.354,3.753,2.079,3.753h5.616c0.954,0,1.728-1.117,1.728-2.16v-16.955c0-0.721-1.02-1.621-1.944-1.621h-4.104V85.644
		c0-0.882-1.086-1.836-1.944-1.836h-11.34c-1.141,0-2.052,1.13-2.052,2.268v32.508h-11.016v-32.4c0-1.193-0.86-2.376-1.944-2.376
		h-11.124C141.758,83.808,140.616,84.64,140.616,85.644L140.616,85.644z M114.804,85.536l-0.107,15.336h-12.852l-0.109-15.444
		c-0.433-0.818-0.738-1.728-2.052-1.728H88.02c-1.249,0-2.16,0.88-2.16,2.16v42.876c0,0.953,1.003,1.943,1.836,1.943h11.772
		c1.564,0,1.761-0.77,2.268-1.728V113.4h13.068v15.552c0.509,0.731,0.642,1.728,2.052,1.728h11.988c0.86,0,1.944-1.101,1.944-1.943
		v-42.66c0-1.223-0.902-2.376-2.053-2.376H117.18C115.61,83.7,115.294,84.514,114.804,85.536L114.804,85.536z M28.944,117.612v0.54
		c-0.209,0.312-3.348,9.953-3.348,10.368v0.539c0,0.834,1.018,1.836,1.944,1.836h10.692c1.479,0,1.786-0.826,2.202-1.901
		c0.347-0.896,0.808-2.116,1.08-3.023c0.337-1.121,0.627-2,0.997-3.107c0.226-0.678,0.97-2.578,1.013-3.092l17.938-0.002
		l0.206,1.082c0.569,0.851,1.295,4.341,1.836,5.616c0.72,1.699,0.532,4.428,3.024,4.428h10.8c1.247,0,2.268-0.888,2.268-2.052
		c0-0.73-2.05-6.91-2.437-8.039c-0.365-1.068-2.531-7.307-2.531-7.945c-0.254-0.378-4.71-13.941-4.945-15.035
		c-0.203-0.944-0.869-2.818-1.211-3.756c-0.451-1.237-0.824-2.528-1.255-3.821c-0.41-1.229-0.892-2.575-1.208-3.76
		c-0.308-1.156-0.917-2.787-2.289-2.787H41.472c-1.818,0-2.139,1.77-2.58,3.144c-0.417,1.301-1.111,3.211-1.411,4.421
		c-0.342,1.379-0.948,3.093-1.424,4.408c-0.481,1.327-0.857,3.175-1.389,4.443c-0.451,1.076-1.109,3.161-1.396,4.328
		c-0.34,1.385-1.014,3.009-1.411,4.421c-0.345,1.23-1.239,3.259-1.415,4.417C30.387,113.672,29.123,117.344,28.944,117.612
		L28.944,117.612z M48.529,103.441l3.903-12.056l5.703,18.333l-11.588,0.01v-0.324C46.548,109.367,48.504,103.607,48.529,103.441
		L48.529,103.441z M44.064,73.224h0.324c0.314,0,3.459-3.729,3.969-4.239c1.404-1.403,2.832-2.71,4.212-4.104
		c2.418-2.443,6.321-5.402,9.271-7.361c1.74-1.156,3.462-2.009,5.206-3.11c1.742-1.099,3.771-1.706,5.694-2.622
		c2.64-1.257,9.804-2.973,13.659-2.973h3.133c0.945,0,3.353,0.286,4.278,0.474c0.691,0.14,1.272,0.294,1.974,0.402
		c1.029,0.158,1.029,0.11,1.45,0.926c0.968,1.872,2.93,3.805,4.475,5.137c1.287,1.11,4.247,3.003,6.028,3.584
		c1.6,0.521,1.773,0.646,3.761,0.991c1.063,0.184,3.411,0.367,4.493,0.367h0.54c4.762,0,9.253-0.108,13.933-0.108
		c2.36,0,4.724-0.013,6.722,0.298c2.214,0.345,3.604,0.782,6.238,0.782h1.296c1.107,0,3.132-0.572,3.132-1.512v-0.648
		c0-2.838-7.871-4.272-10.369-5.182c-1.429-0.521-11.244-2.666-12.851-2.702v-0.216c0.57-0.013,2.583-0.652,3.499-0.821
		c1.141-0.209,2.745-0.475,3.953-0.475h1.296c1.442,0,5.982,0.494,6.695,0.972c1.958,0,7.932,2.826,9.395,3.674
		c2.666,1.544,5.471,3.348,7.698,5.371c2.48,2.252,4.283,4.075,6.584,6.483c1.104,1.154,1.938,2.304,2.974,3.507
		c0.87,1.011,1.878,2.998,3.59,2.998h0.756c1.288,0,2.16-0.931,2.16-2.268c0-2.59-6.243-10.955-7.857-12.663
		c-1.709-1.809-3.111-3.545-4.913-5.347c-1.569-1.569-3.655-3.485-5.438-4.822c-4.104-3.078-7.696-5.639-12.462-8.058
		c-1.113-0.565-2.252-1.111-3.493-1.583c-0.95-0.361-2.811-1.357-3.643-1.542c-1.13-0.251-2.533-0.931-3.797-1.28
		c-0.548-0.151-3.735-1.051-3.974-1.21c-1.085,0-3.027-0.702-4.427-0.865c-1.289-0.15-2.986-0.55-4.512-0.781
		c-2.694-0.407-6.812-0.73-9.854-0.73h-2.268c-8.188,0-16.149,1.819-22.204,4.04c-5.963,2.187-12.673,5.47-17.245,8.999
		c-4.972,3.837-9.92,7.539-13.774,12.469c-2.008,2.568-3.844,4.635-5.723,7.454c-0.903,1.355-1.688,2.666-2.507,4.081
		C44.911,69.41,42.333,73.224,44.064,73.224z"/>
	<polygon fill-rule="evenodd" clip-rule="evenodd" fill="#D2D15D" points="101.735,128.952 101.844,113.508 114.694,113.508 
		114.804,128.952 114.804,113.4 101.735,113.4 	"/>
</g>
</svg>
