<?xml version="1.0" encoding="utf-8"?>
<!DOCTYPE svg PUBLIC "-//W3C//DTD SVG 1.1//EN" "http://www.w3.org/Graphics/SVG/1.1/DTD/svg11.dtd">
<svg version="1.1" xmlns="http://www.w3.org/2000/svg" xmlns:xlink="http://www.w3.org/1999/xlink" x="0px" y="0px" width="216px" height="216px" viewBox="0 0 216 216" enable-background="new 0 0 216 216" xml:space="preserve">
<g>
	<circle fill="#5DB580" cx="108" cy="108" r="108"/>
</g>
<g>
	<path fill="#FFFFFF" d="M157.071,64.426v69.991h-16.607V67.926L157.071,64.426z M109.787,141.048c4.588,0,8.304,3.687,8.304,8.235
		c0,4.547-3.716,8.233-8.304,8.233c-4.584,0-8.303-3.687-8.303-8.233C101.484,144.734,105.203,141.048,109.787,141.048
		 M109.787,84.302c14.14,0,25.625,11.368,25.625,25.41c0,14.045-11.487,25.413-25.625,25.413c-14.161,0-25.624-11.368-25.624-25.413
		C84.164,95.669,95.65,84.302,109.787,84.302 M109.787,117.948c4.592,0,8.304-3.684,8.304-8.234c0-4.551-3.712-8.234-8.304-8.234
		c-4.59,0-8.303,3.683-8.303,8.234C101.484,114.265,105.197,117.948,109.787,117.948 M57.546,117.948
		c2.86,0,5.189-2.312,5.189-5.148c0-2.836-2.329-5.145-5.189-5.145H45.091v10.293H57.546z M45.091,80.895v10.292h9.227
		c2.859,0,5.189-2.311,5.189-5.146c0-2.837-2.33-5.146-5.189-5.146H45.091z M72.839,97.407c4.015,3.934,6.505,9.378,6.481,15.393
		c0,11.939-9.756,21.617-21.796,21.617H28.462V64.426h25.833c12.04,0,21.796,9.675,21.796,21.615
		C76.091,90.203,74.915,94.114,72.839,97.407 M188.44,101.708h-8.282v12.922c0,3.911,1.27,6.793,4.59,6.793
		c2.145,0,3.714-0.479,3.714-0.479v12.124c0,0-3.437,2.058-8.096,2.058h-0.208c-0.208,0-0.392-0.023-0.6-0.023h-0.159
		c-0.094,0-0.208-0.021-0.301-0.021c-9.273-0.481-15.567-6.268-15.567-16.31V76.16l16.604-3.5v12.58h8.305V101.708z"/>
</g>
</svg>
