<?xml version="1.0" encoding="utf-8"?>
<!DOCTYPE svg PUBLIC "-//W3C//DTD SVG 1.1//EN" "http://www.w3.org/Graphics/SVG/1.1/DTD/svg11.dtd">
<svg version="1.1" id="Layer_1" xmlns="http://www.w3.org/2000/svg" xmlns:xlink="http://www.w3.org/1999/xlink" x="0px" y="0px" width="216px" height="216px" viewBox="0 0 216 216" enable-background="new 0 0 216 216" xml:space="preserve">
<rect fill="#2A3D83" width="216" height="216"/>
<g>
	<path fill="#FFFFFF" d="M164.135,60.372v3.902c-3.344,3.812-6.228,7.623-8.731,11.988c-9.479-13.104-24.258-19.886-42.285-19.422
		c-29.175,0.744-49.896,23.509-49.713,51.296c0,27.785,20.164,49.157,49.713,50.743c13.943,0.735,29.46-4.927,40.149-16.453
		c2.695,5.945,5.948,10.684,9.479,14.776c-13.386,10.97-29.181,17.009-49.629,16.729c-32.522-0.279-68.761-26.768-68.204-65.796
		c0.558-40.051,34.846-66.534,68.204-66.534C139.605,41.782,152.893,49.495,164.135,60.372 M166.274,62.414
		c-0.553-0.467-1.023-0.833-1.391-1.298v2.695C165.347,63.345,165.722,62.973,166.274,62.414 M164.044,64.367
		c0.277-0.185,0.467-0.466,0.744-0.559v-2.695c-0.277-0.278-0.467-0.469-0.744-0.744v3.903V64.367z"/>
	<path fill="#E31E24" d="M99.741,108.881L80.41,114.92l19.331-1.022v-5.114V108.881z M99.741,66.595l-0.466-1.024l0.466,1.674v-0.74
		V66.595z M99.741,23.755v3.531c-39.867,7.065-70.163,40.607-70.163,80.479c0,40.051,30.296,73.597,70.163,80.473v3.529
		c-41.726-6.873-73.691-42.097-73.691-84.002C26.05,65.946,58.015,30.91,99.741,23.755 M100.297,27.286
		c4.925-0.833,9.85-1.296,14.96-1.296c24.069,0,46.095,9.57,61.61,25.087l2.508-2.508c-16.355-16.075-39.027-26.11-64.118-26.11
		c-5.112,0-10.035,0.462-14.96,1.296V27.286z M100.297,113.99l14.776-0.744c2.787,0,5.113-2.231,5.113-5.114
		c0-0.558-0.19-1.298-0.467-1.856l-19.423-38.747v1.579l10.127,36.333l-10.127,3.254v5.202V113.99z M100.297,191.957
		c4.925,0.838,9.85,1.297,14.96,1.297c22.863,0,43.676-8.266,59.473-21.836l-2.416-2.511c-15.054,13.01-35.128,20.815-57.057,20.815
		c-5.112,0-10.035-0.462-14.96-1.296V191.957z M99.83,27.379h0.559v-3.528H99.83V27.379z M99.83,67.436v-0.746l0.559,1.026v1.58
		L99.83,67.436z M99.83,114.079v-5.104l0.559-0.191v5.207H99.83V114.079z M99.83,191.864c0.186,0,0.281,0,0.559,0.177v-3.524
		c-0.276-0.187-0.466-0.187-0.559-0.187V191.864z"/>
</g>
</svg>
