<?xml version="1.0" encoding="utf-8"?>
<!DOCTYPE svg PUBLIC "-//W3C//DTD SVG 1.1//EN" "http://www.w3.org/Graphics/SVG/1.1/DTD/svg11.dtd">
<svg version="1.1" id="Layer_1" xmlns="http://www.w3.org/2000/svg" xmlns:xlink="http://www.w3.org/1999/xlink" x="0px" y="0px" width="216px" height="216px" viewBox="0 0 216 216" enable-background="new 0 0 216 216" xml:space="preserve">
<path fill="#231F20" d="M0,0.397h216v216H0V0.397z"/>
<path fill="#FFFFFF" d="M120.729,89.243v-3.688c0.004-0.562,0.427-0.937,0.939-0.937h16.539c0.533,0,0.955,0.385,0.955,0.934v3.169
	c-0.007,0.522-0.454,1.219-1.245,2.32l-8.575,12.233c3.182-0.075,6.549,0.4,9.44,2.027c0.65,0.368,0.828,0.904,0.878,1.438v3.944
	c0,0.546-0.596,1.173-1.216,0.846c-5.096-2.673-11.853-2.963-17.481,0.032c-0.576,0.31-1.177-0.309-1.177-0.854v-3.752
	c0-0.597,0.011-1.623,0.614-2.535l9.925-14.243h-8.64C121.157,90.176,120.734,89.799,120.729,89.243z M60.392,112.306h-5.032
	c-0.479-0.03-0.866-0.389-0.9-0.851l0.004-25.837c0-0.515,0.431-0.931,0.97-0.931l4.687-0.002c0.491,0.027,0.883,0.398,0.916,0.87
	v3.374h0.092c1.218-3.263,3.522-4.788,6.62-4.788c3.15,0,5.118,1.525,6.531,4.788c1.223-3.263,3.991-4.788,6.954-4.788
	c2.115,0,4.414,0.872,5.826,2.83c1.599,2.168,1.268,5.327,1.268,8.094l-0.002,16.308c0,0.521-0.438,0.933-0.972,0.933h-5.025
	c-0.507-0.03-0.904-0.432-0.904-0.926l-0.002-13.702c0-1.087,0.093-3.803-0.143-4.84c-0.378-1.738-1.505-2.227-2.962-2.227
	c-1.215,0-2.487,0.815-3.005,2.121c-0.514,1.306-0.47,3.476-0.47,4.947v13.695c0,0.518-0.434,0.933-0.971,0.933h-5.026
	c-0.506-0.03-0.905-0.432-0.905-0.928l-0.006-13.701c0-2.883,0.472-7.121-3.096-7.121c-3.621,0-3.478,4.136-3.478,7.121
	l-0.002,13.696C61.357,111.894,60.93,112.306,60.392,112.306L60.392,112.306z M153.406,84.142c7.462,0,11.511,6.415,11.511,14.571
	c0,7.877-4.472,14.139-11.511,14.139c-7.331,0-11.328-6.428-11.328-14.415C142.078,90.395,146.12,84.142,153.406,84.142z
	 M153.454,89.413c-3.717,0-3.952,5.063-3.952,8.206c0,3.155-0.047,9.893,3.904,9.893c3.891,0,4.075-5.434,4.075-8.742
	c0-2.177-0.091-4.786-0.752-6.853C156.169,90.119,155.041,89.413,153.454,89.413L153.454,89.413z M174.6,112.306h-5.019
	c-0.507-0.03-0.902-0.432-0.902-0.926l-0.011-25.848c0.043-0.474,0.46-0.844,0.969-0.844l4.672-0.002
	c0.443,0.023,0.805,0.324,0.895,0.726v3.949h0.096c1.408-3.529,3.373-5.218,6.851-5.218c2.258,0,4.47,0.816,5.88,3.048
	c1.307,2.059,1.307,5.542,1.307,8.042v16.256c-0.058,0.464-0.471,0.817-0.954,0.817h-5.054c-0.459-0.028-0.839-0.375-0.897-0.817
	V97.461c0-2.822,0.333-6.961-3.148-6.961c-1.224,0-2.34,0.819-2.906,2.069c-0.703,1.579-0.795,3.15-0.795,4.892v13.912
	C175.567,111.894,175.135,112.306,174.6,112.306z M50.529,107.565c-0.915-1.276-1.895-2.304-1.895-4.664v-7.843
	c0-3.318,0.238-6.367-2.213-8.656c-1.932-1.855-5.133-2.508-7.584-2.508c-4.79,0-10.131,1.787-11.252,7.706
	c-0.12,0.632,0.339,0.961,0.751,1.054l4.879,0.528c0.453-0.022,0.786-0.475,0.874-0.928c0.419-2.041,2.128-3.024,4.047-3.024
	c1.032,0,2.208,0.384,2.823,1.31c0.706,1.033,0.611,2.453,0.611,3.651v0.649c-2.92,0.328-6.735,0.544-9.461,1.745
	c-3.155,1.366-5.366,4.139-5.366,8.229c0,5.233,3.293,7.85,7.527,7.85c3.585,0,5.536-0.846,8.301-3.661
	c0.915,1.323,1.213,1.963,2.883,3.356c0.375,0.199,0.856,0.183,1.189-0.117l0.012,0.012c1.006-0.897,2.835-2.485,3.857-3.345
	C50.922,108.57,50.85,108.021,50.529,107.565L50.529,107.565z M40.627,105.303c-0.802,1.41-2.07,2.283-3.481,2.283
	c-1.931,0-3.061-1.471-3.061-3.646c0-4.284,3.847-5.062,7.487-5.062v1.087C41.571,101.922,41.617,103.558,40.627,105.303z
	 M116.504,107.565c-0.923-1.276-1.9-2.304-1.9-4.664v-7.843c0-3.318,0.235-6.367-2.217-8.656c-1.923-1.855-5.128-2.508-7.573-2.508
	c-4.789,0-10.133,1.787-11.254,7.706c-0.119,0.632,0.338,0.961,0.751,1.054l4.875,0.528c0.46-0.022,0.791-0.475,0.877-0.928
	c0.422-2.041,2.122-3.024,4.045-3.024c1.034,0,2.213,0.384,2.822,1.31c0.705,1.033,0.61,2.453,0.61,3.651v0.649
	c-2.917,0.328-6.729,0.544-9.458,1.745c-3.155,1.366-5.368,4.139-5.368,8.229c0,5.233,3.292,7.85,7.531,7.85
	c3.576,0,5.537-0.846,8.299-3.661c0.912,1.323,1.213,1.963,2.883,3.356c0.379,0.199,0.854,0.183,1.187-0.117l0.011,0.012
	c1.008-0.897,2.837-2.485,3.864-3.345C116.899,108.57,116.829,108.021,116.504,107.565L116.504,107.565z M106.599,105.303
	c-0.795,1.41-2.069,2.283-3.482,2.283c-1.932,0-3.056-1.471-3.056-3.646c0-4.284,3.842-5.062,7.48-5.062v1.087
	C107.541,101.922,107.589,103.558,106.599,105.303z"/>
<path fill="#F9A51B" d="M127.448,122.347c-9.601,6.853-22.973,10.554-34.771,10.554c-16.526,0-31.257-5.982-42.606-16.231
	c-1.049-0.948-0.373-2.062,0.933-1.31c12.347,7.139,27.144,11.317,42.668,11.317c10.469,0,21.591-2.084,32.159-6.581
	C128.142,119.109,129.1,121.166,127.448,122.347L127.448,122.347z"/>
<path fill="#F9A51B" d="M131.551,117.721c-1.215-1.551-7.994-0.733-11.04-0.375c-0.917,0.112-1.066-0.693-0.23-1.276
	c5.408-3.78,14.272-2.68,15.298-1.431c1.036,1.283-0.274,10.176-5.34,14.423c-0.781,0.658-1.515,0.302-1.172-0.561
	C130.204,125.648,132.759,119.267,131.551,117.721L131.551,117.721z"/>
<path fill="#FFFFFF" d="M195.062,108.087c0.566,0,1.048,0.199,1.446,0.597c0.396,0.396,0.597,0.876,0.597,1.438
	c0,0.566-0.2,1.047-0.597,1.444c-0.397,0.4-0.878,0.6-1.446,0.6s-1.05-0.199-1.445-0.6c-0.396-0.397-0.594-0.878-0.594-1.444
	c0-0.563,0.198-1.043,0.598-1.438C194.018,108.286,194.499,108.087,195.062,108.087L195.062,108.087z M197.425,110.118
	c0-0.651-0.232-1.207-0.692-1.666s-1.02-0.686-1.673-0.686c-0.65,0-1.204,0.227-1.666,0.686c-0.46,0.461-0.691,1.016-0.691,1.666
	c0,0.655,0.228,1.213,0.686,1.675c0.458,0.463,1.017,0.695,1.67,0.695s1.214-0.232,1.675-0.695
	C197.192,111.331,197.425,110.773,197.425,110.118z M195.687,109.607c0,0.196-0.09,0.328-0.271,0.398
	c-0.1,0.039-0.246,0.056-0.441,0.056h-0.418v-0.923h0.394c0.259,0,0.443,0.03,0.563,0.094
	C195.628,109.296,195.687,109.42,195.687,109.607z M194.11,108.818v2.583h0.445v-1.019h0.365c0.247,0,0.419,0.03,0.517,0.082
	c0.167,0.101,0.249,0.295,0.249,0.595v0.204l0.01,0.084l0.006,0.028c0.003,0.007,0.006,0.016,0.007,0.025h0.425l-0.018-0.033
	c-0.012-0.021-0.02-0.065-0.023-0.133c-0.006-0.068-0.006-0.132-0.006-0.192v-0.188c0-0.131-0.048-0.265-0.14-0.402
	c-0.096-0.139-0.242-0.223-0.444-0.253c0.159-0.026,0.284-0.066,0.375-0.124c0.171-0.113,0.256-0.281,0.256-0.511
	c0-0.326-0.137-0.544-0.405-0.656c-0.149-0.061-0.386-0.091-0.709-0.091H194.11L194.11,108.818z"/>

</svg>
