<?xml version="1.0" encoding="utf-8"?>
<!DOCTYPE svg PUBLIC "-//W3C//DTD SVG 1.1//EN" "http://www.w3.org/Graphics/SVG/1.1/DTD/svg11.dtd">
<svg version="1.1" id="Layer_1" xmlns="http://www.w3.org/2000/svg" xmlns:xlink="http://www.w3.org/1999/xlink" x="0px" y="0px" width="216px" height="216px" viewBox="0 0 216 216" enable-background="new 0 0 216 216" xml:space="preserve">
<g>
	<path fill="#E32B2B" d="M0.5,108v84.6h216V23.4H0.5V108z M202.772,49.44c1.512,0.816,3.264,2.688,3.983,4.2
		c0.744,1.608,0.72,4.968-0.072,6.528c-2.615,5.136-8.855,6.456-13.128,2.76c-0.575-0.504-1.319-1.536-1.775-2.496
		c-0.744-1.464-0.816-1.824-0.816-3.672c0-1.824,0.096-2.184,0.769-3.48c0.911-1.728,1.079-1.944,2.327-2.904
		c0.841-0.648,1.801-1.176,3-1.632c0.192-0.072,1.272-0.096,2.4-0.072C201.188,48.744,201.692,48.84,202.772,49.44L202.772,49.44z
		 M60.476,56.832c0.192,0.24,0.288,4.368,0.312,13.872L60.86,84.24H85.1l0.12-13.632c0.096-11.76,0.168-13.656,0.48-13.848
		c0.216-0.144,5.472-0.24,13.032-0.24c11.016,0,12.672,0.048,12.792,0.36c0.144,0.336-0.145,2.376-0.624,4.68
		c-0.12,0.6-0.505,2.592-0.864,4.44c-0.336,1.848-0.769,4.056-0.96,4.92c-0.768,3.792-1.08,5.496-1.272,6.72
		c-0.336,2.016-0.912,4.896-1.944,9.72c-0.12,0.528-0.384,1.92-0.6,3.12c-0.336,1.944-0.96,5.064-1.92,9.84
		c-0.192,0.912-0.456,2.328-0.576,3.12c-0.144,0.792-0.648,3.336-1.104,5.64c-0.96,4.608-1.44,7.104-1.776,9.12
		c-0.408,2.424-1.488,7.8-1.944,9.6c-0.12,0.456-0.288,1.272-0.36,1.8c-0.072,0.528-0.24,1.44-0.36,2.04
		c-0.12,0.601-0.36,1.872-0.504,2.832c-0.168,0.96-0.432,1.849-0.576,1.969c-0.192,0.168-2.28,0.216-5.544,0.191l-5.256-0.072
		l-0.072-13.512L85.22,109.56l-12.312,0.049L60.62,109.68l-0.12,13.44l-0.12,13.439H33.26l-0.072-39.696
		c-0.024-29.136,0.024-39.768,0.216-40.008C33.812,56.376,60.068,56.352,60.476,56.832L60.476,56.832z M131.708,57.24
		c0.24,0.456,0.312,3.552,0.312,13.656c-0.023,7.176,0.072,13.152,0.192,13.272c0.096,0.096,5.592,0.168,12.192,0.144l11.976-0.072
		l0.072-13.536c0.023-9.504,0.12-13.632,0.312-13.872c0.217-0.264,2.688-0.312,13.296-0.312c7.177,0,13.2,0.072,13.416,0.144
		c0.36,0.144,0.385,3.888,0.385,39.936c0,26.328-0.072,39.864-0.24,39.959c-0.145,0.072-4.632,0.145-10.032,0.145
		c-5.376-0.024-11.424-0.024-13.416-0.024H156.5l-0.048-13.512l-0.072-13.488l-12.288-0.071l-12.312-0.049v13.416
		c0,8.185-0.097,13.488-0.217,13.584c-0.407,0.24-25.775,0.145-26.016-0.096c-0.144-0.144-0.12-0.672,0.024-1.392
		c0.144-0.624,0.384-1.849,0.528-2.712c0.576-3.12,0.936-4.969,1.32-6.721c0.384-1.823,1.032-5.04,1.248-6.359
		c0.048-0.408,0.384-2.137,0.72-3.84c0.336-1.729,0.744-3.769,0.912-4.561c0.145-0.792,0.336-1.607,0.408-1.8
		c0.096-0.192,0.216-0.84,0.288-1.44c0.12-1.224,0.912-5.496,1.464-8.04c0.36-1.656,0.912-4.488,1.296-6.6
		c0.864-4.704,1.272-6.84,1.608-8.28c0.432-1.992,0.912-4.464,1.296-6.6c0.312-1.896,1.128-6.024,1.607-8.16
		c0.313-1.488,0.841-4.272,1.272-6.84c0.096-0.672,0.36-2.04,0.576-3.048c0.216-1.008,0.384-2.04,0.384-2.256
		c0-0.24,0.192-0.624,0.408-0.864c0.359-0.408,0.792-0.432,5.448-0.384l5.04,0.072L131.708,57.24z M153.548,146.16
		c1.488,0.744,2.4,1.728,2.616,2.88c0.264,1.44,0.096,1.56-2.016,1.56c-1.824,0-1.896-0.023-2.425-0.743
		c-0.479-0.648-0.647-0.721-1.655-0.648c-2.137,0.144-1.345,1.344,1.151,1.752c1.225,0.192,3.216,1.08,4.2,1.848
		c1.344,1.057,1.704,3.313,0.816,5.137c-0.601,1.248-2.232,2.399-3.744,2.64c-1.704,0.24-4.896,0-5.784-0.479
		c-1.416-0.721-2.448-2.017-2.688-3.265c-0.264-1.368,0.12-1.68,2.064-1.68c1.224,0,1.632,0.096,2.016,0.479
		c0.265,0.265,0.48,0.576,0.48,0.721c0,0.312,1.296,0.96,1.92,0.96c0.72,0,1.68-0.696,1.68-1.225c0-0.479-1.104-1.176-1.872-1.176
		c-0.239,0-1.199-0.24-2.088-0.528c-1.296-0.384-1.896-0.743-2.808-1.655c-1.08-1.08-1.152-1.225-1.152-2.4
		c0-1.536,0.528-2.664,1.656-3.552C147.884,145.224,151.1,144.984,153.548,146.16L153.548,146.16z M37.076,145.944
		c0.288,0.264,0.384,0.863,0.384,2.352c0,1.2,0.12,2.088,0.288,2.256c0.384,0.385,3.12,0.385,3.504,0
		c0.168-0.168,0.288-1.032,0.288-2.208c0-2.496,0.24-2.784,2.28-2.784c0.984,0,1.608,0.12,1.776,0.336
		c0.192,0.217,0.264,2.377,0.216,7.368l-0.072,7.057l-1.896,0.071c-1.368,0.049-1.968-0.023-2.088-0.239
		c-0.12-0.168-0.216-1.416-0.216-2.736c0-2.016-0.072-2.472-0.384-2.592c-0.672-0.265-3.12-0.145-3.408,0.144
		c-0.192,0.192-0.288,1.104-0.288,2.496c0,1.224-0.072,2.376-0.144,2.592c-0.216,0.553-3.816,0.553-4.032,0
		c-0.216-0.552-0.168-13.607,0.048-13.92c0.264-0.407,0.768-0.527,2.136-0.552C36.284,145.56,36.836,145.68,37.076,145.944
		L37.076,145.944z M59.252,145.848c0.288,0.288,0.408,2.496,0.144,3.168c-0.12,0.336-0.672,0.385-3.6,0.385H52.34l-0.144,0.575
		c-0.072,0.336-0.072,0.721,0.024,0.841c0.096,0.168,1.32,0.264,3.24,0.264c3.48,0,3.6,0.072,3.6,1.8c0,1.752-0.12,1.8-3.6,1.8
		h-3.12l-0.144,0.601c-0.312,1.271-0.144,1.319,3.576,1.319c2.352,0,3.528,0.097,3.72,0.288c0.312,0.313,0.384,2.784,0.096,3.265
		c-0.168,0.216-1.512,0.288-5.952,0.239L47.9,160.32l-0.072-7.08c-0.048-6.433-0.024-7.104,0.36-7.393
		C48.764,145.44,58.844,145.44,59.252,145.848L59.252,145.848z M65.036,145.896c0.168,0.217,0.264,1.921,0.264,5.16
		c0.024,2.664,0.072,4.992,0.144,5.185c0.12,0.288,0.72,0.359,3.072,0.359c1.584,0,3.048,0.097,3.216,0.217
		c0.216,0.119,0.288,0.672,0.24,1.848L71.9,160.32H61.34l-0.072-7.08c-0.048-6.433-0.024-7.104,0.36-7.393
		C62.18,145.44,64.676,145.464,65.036,145.896L65.036,145.896z M77.324,146.064c0.12,0.168,0.216,2.64,0.216,5.424v5.111h3
		c3.408,0,3.48,0.049,3.48,2.017c0,1.943,0.336,1.824-5.424,1.824c-4.344,0-5.184-0.049-5.28-0.36
		c-0.072-0.192-0.168-3.384-0.192-7.104c-0.024-6.479,0-6.743,0.456-7.104C74.204,145.416,76.988,145.536,77.324,146.064
		L77.324,146.064z M85.268,145.824c0.336,0.144,0.816,0.792,1.152,1.488c0.768,1.68,1.632,3.048,1.92,3.048
		c0.12,0,0.672-0.984,1.248-2.185c1.152-2.447,1.344-2.616,3.552-2.616c1.608,0,2.16,0.169,2.16,0.624
		c0,0.337-1.032,2.353-2.04,3.912c-0.312,0.528-1.104,1.849-1.728,2.952c-1.176,2.088-1.224,2.4-1.272,6.84
		c0,0.528-0.096,0.553-1.92,0.553c-2.352,0-2.4-0.072-2.4-3.24c0-2.28,0-2.304-1.128-4.272c-0.624-1.08-1.464-2.52-1.872-3.168
		c-0.408-0.672-1.008-1.728-1.344-2.352c-0.576-1.128-0.576-1.152-0.12-1.512C82.028,145.488,84.452,145.44,85.268,145.824
		L85.268,145.824z M105.644,145.8c0.384,0.216,0.456,0.528,0.456,2.28c0,2.832-0.048,2.76,2.16,2.76h1.872l0.096-2.399
		c0.049-1.824,0.168-2.473,0.433-2.641c0.479-0.312,2.688-0.312,3.456,0l0.624,0.24v6.576c0,4.128,0.096,6.647,0.24,6.744
		c0.144,0.071,0.239,0,0.239-0.168c0.024-0.168,0.216-0.744,0.48-1.272c0.264-0.528,0.456-1.104,0.479-1.271
		c0-0.168,0.097-0.48,0.216-0.721c0.12-0.216,0.576-1.392,0.984-2.567c0.433-1.2,0.912-2.496,1.08-2.88
		c0.192-0.408,0.552-1.465,0.864-2.353c0.312-1.008,0.768-1.8,1.128-2.088c1.128-0.888,4.368-0.48,4.368,0.552
		c0,0.168,0.144,0.552,0.312,0.888c0.168,0.337,0.552,1.297,0.864,2.16c1.344,3.769,1.8,4.992,2.208,5.904
		c0.768,1.752,1.488,4.152,1.344,4.536c-0.12,0.288-0.552,0.36-2.063,0.36c-2.137,0-2.425-0.192-2.784-1.872l-0.168-0.769h-1.944
		c-1.08,0-2.088,0.096-2.231,0.192c-0.145,0.096-0.408,0.576-0.553,1.056c-0.312,0.912-1.128,1.729-1.512,1.488
		c-0.12-0.072-1.92-0.12-4.008-0.12c-4.464,0-4.104,0.312-4.104-3.408v-2.352l-1.968,0.071l-1.992,0.072l-0.12,2.76l-0.12,2.761
		h-4.08l-0.072-7.152l-0.048-7.152l0.528-0.216C103.076,145.512,105.068,145.512,105.644,145.8z M134.372,145.968
		c0.288,0.24,0.815,1.032,1.2,1.752c0.384,0.721,1.032,1.872,1.416,2.544c0.408,0.673,0.815,1.465,0.912,1.729
		c0.071,0.288,0.312,0.528,0.504,0.528c0.264,0,0.336-0.576,0.336-3.12c0-3.049,0-3.12,0.6-3.505
		c0.744-0.479,3.168-0.359,3.504,0.169c0.24,0.384,0.288,12.983,0.072,13.848c-0.144,0.528-0.24,0.552-2.304,0.479
		c-2.017-0.071-2.16-0.119-2.473-0.672c-0.168-0.336-0.863-1.512-1.487-2.64c-0.648-1.128-1.393-2.448-1.656-2.952l-0.456-0.912
		l-0.12,3.313c-0.072,1.823-0.216,3.456-0.312,3.6c-0.12,0.216-0.792,0.313-1.872,0.313c-1.536,0-1.681-0.049-1.896-0.576
		c-0.336-0.912-0.12-13.513,0.24-13.944C131.036,145.392,133.724,145.416,134.372,145.968L134.372,145.968z M169.46,146.04
		c0.336,0.528,0.288,2.736-0.048,3.072c-0.192,0.191-1.344,0.288-3.6,0.288c-3.24,0-3.337,0.023-3.528,0.527
		c-0.384,1.009,0.048,1.152,3.336,1.152c2.568,0,3.096,0.072,3.216,0.384c0.264,0.696,0.145,2.664-0.168,2.928
		c-0.192,0.168-1.608,0.313-3.312,0.336l-2.977,0.072l-0.072,0.889l-0.071,0.911h3.432c1.896,0,3.576,0.097,3.744,0.217
		c0.36,0.216,0.552,2.304,0.264,3.096l-0.216,0.528l-5.808-0.049l-5.832-0.071l-0.072-7.08c-0.048-6.528-0.024-7.104,0.36-7.393
		C158.78,145.368,169.148,145.536,169.46,146.04L169.46,146.04z M175.34,145.872c0.24,0.192,0.601,0.672,0.816,1.056
		c1.56,2.977,3.048,5.593,3.216,5.593c0.096,0,0.168-1.393,0.168-3.097c0-2.952,0.024-3.144,0.528-3.479
		c0.647-0.456,2.808-0.504,3.384-0.097c0.384,0.288,0.408,0.96,0.36,7.393l-0.072,7.08l-2.064,0.071l-2.088,0.072l-0.479-0.792
		c-0.456-0.744-0.96-1.68-2.832-5.112c-0.504-0.936-0.84-1.319-0.912-1.08c-0.072,0.192-0.168,1.824-0.192,3.601l-0.072,3.24
		l-1.872,0.071c-1.823,0.072-1.848,0.049-2.111-0.575c-0.145-0.433-0.216-3.072-0.168-7.129c0.072-6.071,0.096-6.455,0.528-6.792
		C172.1,145.464,174.74,145.44,175.34,145.872L175.34,145.872z"/>
	<path fill="#E32B2B" d="M198.26,51.216c-0.456,0.096-1.416,0.48-2.111,0.888c-2.185,1.2-3.192,4.104-2.305,6.6
		c1.32,3.744,5.809,4.992,9,2.544c0.96-0.72,1.896-2.424,2.064-3.792C205.388,53.952,201.74,50.544,198.26,51.216L198.26,51.216z
		 M200.444,53.16c1.271,0.36,1.775,1.032,1.775,2.4c0,0.792-0.144,1.296-0.456,1.656c-0.456,0.504-0.456,0.528,0.072,1.608
		c0.696,1.392,0.552,1.824-0.624,1.728c-0.792-0.072-0.96-0.192-1.392-1.104c-0.288-0.6-0.648-1.008-0.889-1.008
		c-0.312,0-0.432,0.24-0.479,1.008c-0.072,1.008-0.097,1.032-0.912,1.032h-0.84L196.628,57c-0.048-3.048-0.023-3.504,0.36-3.768
		C197.468,52.872,199.244,52.824,200.444,53.16L200.444,53.16z"/>
	<path fill="#E32B2B" d="M198.812,55.008c-0.384,0.144-0.407,0.936-0.048,1.152c0.385,0.264,1.416-0.096,1.416-0.48
		c0-0.288-0.744-0.888-1.008-0.816C199.124,54.864,198.956,54.936,198.812,55.008L198.812,55.008z M121.844,152.592
		c-0.552,1.464-0.504,1.776,0.336,1.896c1.104,0.168,1.2-0.048,0.744-1.44c-0.24-0.696-0.479-1.319-0.552-1.368
		C122.3,151.608,122.06,152.016,121.844,152.592z"/>
</g>

</svg>
