<?xml version="1.0" encoding="utf-8"?>
<!DOCTYPE svg PUBLIC "-//W3C//DTD SVG 1.1//EN" "http://www.w3.org/Graphics/SVG/1.1/DTD/svg11.dtd">
<svg version="1.1" xmlns="http://www.w3.org/2000/svg" xmlns:xlink="http://www.w3.org/1999/xlink" x="0px" y="0px" width="216px" height="216px" viewBox="0 0 216 216" enable-background="new 0 0 216 216" xml:space="preserve">
<g>
	<rect fill-rule="evenodd" clip-rule="evenodd" fill="#DA281C" width="216" height="216"/>
</g>
<g>
	<path fill="#FFFFFF" d="M155.191,75.667c0.495-0.154,1.145,0.155,1.792,1.009l29.355,28.604c1.715,1.707,1.715,4.293,0,5.56
		l-29.355,29.047c-0.647,0.851-1.297,1.057-1.792,0.801c-0.495-0.26-0.805-1.011-0.805-2.097V77.528
		C154.387,76.468,154.696,75.822,155.191,75.667"/>
	<path fill="#FFFFFF" d="M104.978,28h2.078l2,0.826l30.212,29.899c1.3,1.707,0.857,3.001-1.298,3.001h-12.521
		c-2.155,0-3.87,1.707-3.87,3.853v22.19c0,2.147-1.741,3.854-4.339,3.854H95.236c-2.155,0-3.896-1.708-3.896-3.854v-22.19
		c0-2.146-1.715-3.853-3.896-3.853H74.066c-2.155,0-2.598-1.294-1.299-3.001l30.238-29.899L104.978,28z"/>
	<path fill="#FFFFFF" d="M57.645,75.02c0.545,0.258,0.885,1.01,0.885,2.095v62.333c0,1.086-0.338,1.734-0.885,1.939
		c-0.52,0.207-1.272,0-2.155-0.65L25.694,110.84c-1.716-1.267-1.716-3.854,0-5.56L55.49,75.821
		C56.375,74.967,57.127,74.76,57.645,75.02"/>
	<path fill="#FFFFFF" d="M95.236,124.084h22.003c2.598,0,4.339,1.707,4.339,3.854v23.483c0,2.558,1.711,4.268,3.87,4.268h11.664
		c2.155,0,3.015,1.269,1.3,2.558l-29.354,29.458c-0.884,0.854-1.949,1.296-3.039,1.296c-1.065,0-2.155-0.44-3.014-1.296
		L73.65,158.246c-1.741-1.295-0.883-2.558,1.274-2.558h12.521c2.183,0,3.896-1.71,3.896-4.268v-23.483
		C91.34,125.791,93.081,124.084,95.236,124.084"/>
</g>
</svg>
