<?xml version="1.0" encoding="utf-8"?>
<!DOCTYPE svg PUBLIC "-//W3C//DTD SVG 1.1//EN" "http://www.w3.org/Graphics/SVG/1.1/DTD/svg11.dtd">
<svg version="1.1" xmlns="http://www.w3.org/2000/svg" xmlns:xlink="http://www.w3.org/1999/xlink" x="0px" y="0px" width="216px" height="216px" viewBox="0 0 216 216" enable-background="new 0 0 216 216" xml:space="preserve">
<g>
	<g>
		<path d="M34.659,35.216c40.805-40.803,106.978-40.803,147.781,0c19.387,19.387,30.395,45.652,30.577,73.054
			c-1.136-1.437-2.514-2.752-4.07-3.769c-5.563-4.068-8.438-17.89-8.975-23.274l0,0c0.417,3.949,0.6,7.839,0.6,11.786
			c-0.063,8.137-0.659,16.274-1.914,24.351c-3.709,26.09-16.218,54.03-23.755,62.644l-0.477,0.48l-1.676,1.795l0,0
			c-18.132,14.837-34.763,20.103-63.661,20.103h-0.18c-28.898,0-45.531-5.266-63.661-20.103l0,0l-1.735-1.857l-0.417-0.418
			c-7.599-8.613-20.225-36.554-23.874-62.703c-1.195-8.077-1.854-16.214-1.914-24.351c0-3.828,0.3-7.418,0.659-10.948v0.538
			c-0.54,5.385-2.154,14.359-8.139,17.83c-2.393,1.436-4.307,3.469-5.624,5.923C4.862,79.551,15.752,54.124,34.659,35.216
			 M184.477,183.84l0.719-0.722c0.357-0.358,0.715-0.778,1.076-1.137l0.655-0.715c0.361-0.361,0.723-0.778,1.08-1.14l0.659-0.719
			l1.017-1.195l0.659-0.719l1.017-1.195l0.596-0.719c0.357-0.42,0.659-0.838,1.017-1.255l0.6-0.719l0.957-1.314l0.54-0.722
			l0.953-1.315l0.48-0.719l0.957-1.374l0.48-0.719c0.298-0.48,0.655-0.957,0.897-1.434c0.298-0.48,0.298-0.48,0.417-0.723
			c0.119-0.238,0.6-0.953,0.897-1.434l0.421-0.719l0.897-1.493c0.119-0.238,0.238-0.421,0.357-0.659l0.838-1.557l0.361-0.659
			l0.834-1.612c0-0.238,0.238-0.421,0.302-0.659c0.238-0.54,0.54-1.08,0.778-1.676l0.298-0.659c0.238-0.596,0.536-1.136,0.778-1.731
			l0.298-0.604c0.238-0.596,0.477-1.136,0.778-1.731l0.238-0.6l0.719-1.795l0.242-0.6c0.238-0.659,0.477-1.255,0.715-1.851
			l0.183-0.54c0.238-0.659,0.417-1.255,0.655-1.914l0.179-0.48l0.6-2.033c0-0.179,0.119-0.361,0.179-0.48
			c0.183-0.659,0.357-1.314,0.6-2.033l0.119-0.421c0.179-0.715,0.361-1.374,0.536-2.033c0-0.119,0-0.298,0-0.417
			c0.183-0.719,0.361-1.438,0.54-2.037v-0.357l0.478-2.216c0-0.119,0-0.175,0-0.294c0.182-0.778,0.301-1.557,0.42-2.335
			c0,0,0-0.119,0-0.183c0.119-0.834,0.238-1.612,0.358-2.391c0-0.06,0-0.06,0-0.119c0.119-0.838,0.241-1.676,0.36-2.514l0,0
			c0.537-4.368,0.838-8.796,0.838-13.164C212.176,50.475,162.397,4.942,103.643,7.634C48.659,10.148,4.623,54.124,2.05,109.108
			c0,0.957,0,1.914,0,2.871l0,0c0,0.6,0,1.199,0,1.795c0,0.302,0,0.6,0,0.897l0.12,2.216c0,0.179,0,0.357,0,0.477
			c0,0.897,0.06,1.795,0.24,2.692v0.659l0.239,2.033l0.121,0.961l0.239,1.672l0.18,1.14l0.239,1.493c0,0.357,0.119,0.778,0.24,1.199
			c0.119,0.417,0.179,0.953,0.239,1.374s0.18,0.838,0.24,1.199l0.298,1.374c0,0.421,0.18,0.838,0.3,1.255
			c0.119,0.421,0.24,0.897,0.299,1.318c0.12,0.417,0.239,0.834,0.359,1.255c0.119,0.421,0.239,0.838,0.358,1.255
			c0.121,0.421,0.24,0.842,0.359,1.259l0.359,1.259c0.119,0.417,0.238,0.834,0.418,1.255c0.179,0.417,0.239,0.834,0.359,1.195
			l0.419,1.259l0.419,1.195c0.179,0.417,0.298,0.838,0.479,1.255c0.179,0.417,0.298,0.778,0.419,1.195l0.479,1.199l0.479,1.136
			c0.179,0.421,0.358,0.838,0.539,1.199l0.479,1.136c0.179,0.417,0.359,0.834,0.598,1.195l0.479,1.14l0.6,1.191l0.538,1.08
			l0.598,1.195l0.599,1.076l0.658,1.199l0.598,1.076c0.24,0.417,0.419,0.778,0.719,1.136l0.778,0.957l0.717,1.136
			c0.24,0.361,0.419,0.723,0.659,1.017l0.717,1.14l0.659,1.017l0.778,1.14l0.657,0.953l0.778,1.08l0.717,0.954l0.838,1.079
			l0.719,0.957c0.238,0.361,0.538,0.719,0.838,1.076c0.298,0.358,0.479,0.659,0.776,0.957l0.838,1.021l0.778,0.897l0.897,1.017
			l0.778,0.897l0.897,1.017l0.838,0.835l0.957,0.96l0.838,0.835l0.957,0.96l0.838,0.835l0.957,0.96l0.897,0.835l1.017,0.897
			l0.897,0.778l1.017,0.897l0.897,0.778c0.359,0.301,0.719,0.599,1.019,0.838l0.957,0.777l1.017,0.838l0.957,0.719l1.076,0.838
			l0.959,0.716l1.076,0.778l1.017,0.719l1.078,0.778l1.017,0.658l1.077,0.719l1.018,0.659l1.136,0.716l1.078,0.658l1.136,0.659
			l1.076,0.597l1.138,0.659l1.076,0.596l1.197,0.603l1.137,0.597l1.196,0.596l1.138,0.54l1.195,0.54l1.138,0.477l1.197,0.54
			l1.195,0.477l1.197,0.48l1.197,0.479l1.195,0.418l1.197,0.417l1.197,0.421l1.255,0.42l1.197,0.358l1.257,0.357l1.197,0.357
			l1.316,0.361l1.195,0.298l1.316,0.302l1.197,0.298l1.316,0.298l1.257,0.238l1.376,0.242l1.255,0.238l1.376,0.241l1.197,0.176
			l1.436,0.183l1.197,0.179l1.436,0.179l1.197,0.119l1.555,0.119h1.138h1.676h1.017h1.914h0.838h5.444h0.838h1.914h1.017h1.676h1.08
			l1.553-0.119l1.14-0.119l1.493-0.179l1.199-0.179l1.434-0.183l1.196-0.176c0.479,0,0.96-0.119,1.437-0.241l1.196-0.238
			l1.377-0.242l1.196-0.238l1.314-0.298l1.198-0.298l1.318-0.302l1.192-0.298l1.318-0.361l1.198-0.357l1.255-0.357l1.196-0.358
			l1.258-0.42l1.196-0.421l1.258-0.417l1.192-0.418l1.199-0.42l1.198-0.478l1.192-0.479l1.199-0.537l1.136-0.479
			c0.421-0.18,0.778-0.361,1.199-0.537l1.136-0.54l1.195-0.599l1.14-0.537l1.195-0.659c0.357-0.182,0.719-0.357,1.076-0.599
			c0.357-0.18,0.778-0.418,1.198-0.656c0.358-0.241,0.716-0.36,1.073-0.603l1.199-0.655l1.017-0.6l1.199-0.716l1.017-0.6
			l1.136-0.778l0.957-0.658l1.136-0.775l0.957-0.659l1.136-0.841l0.897-0.656l1.136-0.838l0.897-0.718l1.14-0.897l0.838-0.656
			l1.136-0.96l0.838-0.716l1.076-0.96l0.778-0.716c0.357-0.357,0.778-0.659,1.08-1.017l0.774-0.719l1.076-1.02
			c0.238-0.238,0.48-0.478,0.778-0.716l1.08-1.079"/>
		<path d="M38.667,168.341c3.828,4.904,7.837,6.223,9.034,5.504c1.196-0.719,1.436-4.487,0.657-9.872
			c-5.563-17.35-9.632-35.18-12.205-53.248c-3.471-23.994-3.35-45.533,1.795-58.695c0.538-1.376,1.197-2.633,2.035-3.83
			c0.298-0.417,0.598-0.836,0.957-1.195c10.71-10.71,39.429-16.035,68.208-16.035c28.779,0,57.498,5.325,68.208,15.976
			c0.357,0.357,0.659,0.776,0.957,1.195c0.838,1.197,1.497,2.514,2.033,3.83c5.146,13.162,5.325,34.702,1.795,58.695
			c-2.569,18.128-6.699,36.018-12.322,53.486c-0.723,5.266-0.302,9.038,0.715,9.634c1.017,0.6,4.789-0.42,8.498-4.785
			c8.494-16.333,14.296-33.865,17.171-52.053c1.136-7.958,1.735-15.976,1.735-23.994c0.298-12.205-1.974-24.292-6.58-35.599
			c-3.292-7.718-8.919-14.3-16.035-18.728c-17.711-11.188-37.995-17.771-58.876-19.087c-2.391-0.119-4.907-0.238-7.358-0.238h-0.18
			c-2.453,0-4.906,0-7.359,0.238c-20.941,1.377-41.164,7.958-58.874,19.146c-7.12,4.428-12.745,11.01-16.035,18.728
			c-4.606,11.308-6.82,23.394-6.582,35.599C20.119,119.222,26.522,145.066,38.667,168.341"/>
		<path d="M143.792,189.162c-2.155,0.658-4.312,1.198-6.523,1.615c-9.273,1.735-18.668,2.633-28.061,2.573h-0.24
			c-9.454,0.06-18.847-0.838-28.12-2.573c-2.035-0.36-3.89-0.838-5.863-1.434c-5.087-1.259-11.729-2.875-12.026-1.857
			c-0.3,1.017,3.35,4.368,6.701,6.282c10.77,4.069,22.975,5.805,39.189,5.805h0.178c16.216,0,28.539-1.675,39.428-5.861
			c3.295-2.037,6.822-5.027,6.524-6.106c-0.298-1.073-6.223,0.42-11.131,1.619"/>
		<path fill="#B20946" d="M177.174,58.371c0.604,23.035-0.238,46.071-2.51,69.048c-0.778,4.066-1.676,7.958-2.573,11.842
			c3.352-28.179,4.606-56.539,3.709-84.898l0.119,0.359C176.399,55.859,176.816,57.114,177.174,58.371 M168.08,80.449h1.14V67.406
			h-1.076c0-7.659-0.183-14.779-0.361-21.121l1.259,0.778c0.897,31.231,0.357,80.892-6.941,124.867
			c-0.421,1.017-1.017,1.974-1.735,2.812C165.809,143.573,167.782,109.168,168.08,80.449 M144.329,80.449h0.479
			c0,1.854-0.182,30.696-0.238,51.934c-0.659,19.685-1.676,38.114-3.232,52.593l-1.255,0.357
			C142.951,158.35,144.15,117.186,144.329,80.449 M135.056,154.819h1.196c-0.418,11.905-0.957,22.738-1.616,31.713l-1.256,0.238
			C134.039,177.677,134.636,166.788,135.056,154.819 M127.575,154.819h1.198c-0.238,12.386-0.6,23.636-1.017,32.729l-1.258,0.176
			C126.979,178.574,127.336,167.265,127.575,154.819 M120.396,116.705h1.198c-0.182,27.523-0.421,53.55-0.838,71.56h-1.195
			c0.417-17.95,0.655-44.036,0.835-71.616 M112.262,154.641h1.192v33.862h-1.192V154.641z M104.541,154.641h1.197v33.925h-1.197
			V154.641z M96.763,154.641h1.197c0.119,12.743,0.298,24.231,0.538,33.563h-1.197c-0.238-9.272-0.357-20.761-0.538-33.444
			 M89.224,154.76h1.197c0.3,12.445,0.657,23.751,1.076,32.908l-1.195-0.182C89.823,178.392,89.464,167.205,89.224,154.76
			 M80.489,80.689h1.197c0.238,38.172,1.017,80.055,3.05,106.082l-1.255-0.238C81.446,160.506,80.668,118.742,80.489,80.689
			 M76.719,184.976c-2.033-18.251-3.05-42.959-3.649-68.39h1.257c0.598,25.609,1.735,50.44,3.709,68.747L76.719,184.976
			 M57.813,67.465h-1.255c0-8.794,0-16.931,0.239-24.232l1.256-0.419C57.872,50.175,57.813,58.49,57.813,67.465 M65.711,67.465
			h-1.257c0-9.632,0-18.726,0.18-26.803l1.255-0.3C65.771,48.439,65.711,57.654,65.711,67.465 M73.669,67.465h-1.257
			c0-10.23,0-19.923,0-28.66l1.257-0.238C73.669,47.302,73.548,57.114,73.669,67.465 M77.976,105.04v9.871h-9.153l0.119,38.233
			H58.77l-2.393-84.002l24.172,0.119v9.872H68.763v25.907H77.976z M72.531,80.689h1.257c0,7.479,0.119,15.138,0.238,22.796h-1.255
			C72.65,95.827,72.591,88.168,72.531,80.689 M63.318,179.051c-1.197-7.656-2.214-15.853-3.052-24.351h1.257
			c0.897,8.736,1.915,17.171,3.171,25.129l-1.376-0.838 M70.079,182.521c-1.138-8.379-2.035-17.83-2.752-27.762h1.255
			c0.778,10.17,1.676,19.744,2.873,28.302L70.079,182.521 M81.625,67.526H80.43c0-10.65,0-20.822,0-30.035l1.195-0.181
			C81.625,46.585,81.625,56.816,81.625,67.526 M89.583,67.406h-1.197c0-10.889,0-21.299,0-30.812l1.197-0.121
			C89.583,45.985,89.583,56.457,89.583,67.406 M97.422,35.994c0,9.813,0,20.463,0,31.471h-1.078c0-11.008,0-21.599,0-31.412h1.197
			 M105.678,67.646h-1.197v-31.83h1.197V67.646z M113.814,67.646h-1.195v-31.89h1.195V67.646z M121.892,67.646h-1.195
			c0-11.069,0-21.72,0-31.592h1.195c0,9.813,0,20.463,0,31.532 M129.85,36.653c0,9.632,0,20.163,0,31.111l-0.119-0.179h-1.139
			c0-10.95,0-21.42,0-31.054L129.85,36.653 M137.748,67.586h-1.198c0-10.71,0-20.941,0-30.156l1.198,0.181
			C137.748,46.823,137.748,56.936,137.748,67.586 M153.482,40.781c0,8.137,0.182,17.111,0.182,26.745h-1.258
			c0-9.753,0-18.968-0.179-27.104L153.482,40.781 M161.56,67.526h-1.255c0-8.975-0.119-17.292-0.302-24.65l1.259,0.479
			C161.5,50.534,161.56,58.73,161.56,67.526 M158.867,123.349c0.659-12.204,1.017-24.351,1.199-36.08
			c0.119-3.828,0.238-6.342,0.238-6.82h1.017c-0.238,23.574-1.199,50.08-3.59,74.311c0-1.017,0.54-15.499,1.076-31.411
			 M153.304,179.829c1.258-7.898,2.275-16.214,3.173-25.01h1.255c-0.838,8.435-1.854,16.575-3.05,24.231L153.304,179.829
			 M146.604,183.062c1.137-8.558,2.034-18.132,2.872-28.302h1.255c-0.719,9.932-1.616,19.327-2.752,27.762L146.604,183.062
			 M156.294,153.144h-10.17l0.36-74.25v-0.06h-8.975v-9.693l30.153-0.12v9.813h-8.855L156.294,153.144z M127.757,115.212
			L127.757,115.212h-12.803v37.991h-9.814l-1.017-83.943h24.588c11.131,21.479,10.412,57.917,9.994,79.753c0,1.497,0,2.935,0,4.313
			h-9.573v-0.123c0-0.298,0-30.573-1.256-37.872 M136.55,80.508h1.198c0,3.89,0,7.898,0,11.907c-0.357-2.035-0.718-3.89-1.198-5.804
			C136.612,84.517,136.612,82.484,136.55,80.508 M97.779,69.081l-0.238,84.122h-10.41l-1.616-84.122H97.779z M145.524,38.867
			c0,8.675,0.119,18.368,0.119,28.598h-1.195c0-10.351,0-20.102-0.119-28.898L145.524,38.867 M55.958,171.931
			c-7.359-43.916-7.897-93.635-6.94-124.867c0.419-0.24,0.838-0.538,1.316-0.778c-0.957,31.831-0.419,83.465,7.418,128.457
			C56.975,173.904,56.377,172.947,55.958,171.931 M43.393,127.355c-2.273-22.914-3.111-46.009-2.512-69.044
			c0.357-1.316,0.776-2.514,1.255-3.649c0-0.119,0-0.24,0.181-0.359c-0.897,28.36,0.298,56.779,3.709,85.021
			C45.069,135.377,44.231,131.426,43.393,127.355 M176.102,54.603c-0.421-1.197-1.017-2.273-1.739-3.352
			c-0.238-0.298-0.477-0.598-0.715-0.897c-9.038-9.034-34.524-14.897-64.62-14.897c-30.095,0-55.582,5.863-64.618,14.897
			c0,0-0.298,0.3-0.717,0.897c-0.719,1.017-1.257,2.154-1.735,3.352c-4.547,11.667-5.145,31.531-1.616,55.883
			c2.873,20.579,7.898,40.804,14.959,60.31c0.838,2.633,2.512,4.845,4.786,6.342c6.582,4.606,14.121,7.776,22.079,9.213
			c8.854,1.676,17.828,2.514,26.862,2.454h0.24c9.034,0.06,18.009-0.778,26.865-2.454c7.898-1.493,15.376-4.666,21.956-9.272
			c2.275-1.497,3.951-3.769,4.789-6.342c7.061-19.565,12.084-39.79,14.955-60.369c3.534-24.352,2.931-44.217-1.612-55.885"/>
		<path fill="#B20946" d="M120.515,81.586c0.42,1.076,0.841,2.273,1.198,3.53c0,6.282,0,12.564,0,18.787h-1.198
			C120.515,96.484,120.515,89.004,120.515,81.586 M125.724,95.287c-0.841-5.742-2.397-11.308-4.67-16.692l0,0h-0.179h-6.104l0,0
			l-0.238,26.924l0,0h12.863l0,0c0,0-0.48-4.666-1.497-10.17"/>
	</g>
</g>
</svg>
