<?xml version="1.0" encoding="utf-8"?>
<!DOCTYPE svg PUBLIC "-//W3C//DTD SVG 1.1//EN" "http://www.w3.org/Graphics/SVG/1.1/DTD/svg11.dtd">
<svg version="1.1" id="Layer_1" xmlns="http://www.w3.org/2000/svg" xmlns:xlink="http://www.w3.org/1999/xlink" x="0px" y="0px" width="216px" height="216px" viewBox="0 0 216 216" enable-background="new 0 0 216 216" xml:space="preserve">
<g>
	<path fill="#FFFAC3" d="M215.122,108.122c0,30.984-47.912,56.104-106.995,56.104c-59.1,0-107.005-25.119-107.005-56.104
		s47.905-56.104,107.005-56.104C167.21,52.019,215.122,77.138,215.122,108.122L215.122,108.122z"/>
	<path fill="#2B6352" d="M210.696,108.082c0,28.456-45.942,51.522-102.608,51.522c-56.668,0-102.609-23.066-102.609-51.522
		c0-28.456,45.94-51.522,102.609-51.522C164.754,56.56,210.696,79.626,210.696,108.082z M108.088,60.615
		c-54.446,0-98.586,21.252-98.586,47.467c0,26.214,44.14,47.465,98.586,47.465c54.443,0,98.581-21.251,98.581-47.465
		C206.67,81.867,162.531,60.615,108.088,60.615L108.088,60.615z"/>
	<path fill="#2B6352" d="M204.121,108.082c0,24.806-42.997,44.914-96.033,44.914c-53.039,0-96.032-20.108-96.032-44.914
		c0-24.804,42.995-44.912,96.032-44.912C161.124,63.169,204.121,83.278,204.121,108.082z M169.634,87.054h-16.469l-2.006,5.735
		h10.661L149.661,97l-0.804,2.326l18.709-6.136L169.634,87.054L169.634,87.054z M64.623,97.121h-6.708
		c0,0,6.217-16.573,6.717-17.827c0.888-2.221,1.416-2.067,1.416-2.067h-9.267c1.147,0.548,0.13,2.713,0.13,2.713
		s-7.421,20.668-7.939,21.701c-0.518,1.034-0.905,1.164-0.905,1.164h16.049l2.244-6.121C66.167,97.266,64.623,97.121,64.623,97.121
		L64.623,97.121z M92.772,102.779h7.559c0,0-0.518-0.767-0.195-1.606c0.447-1.165,4.457-12.078,4.457-12.078l1.744,13.684h6.847
		l8.976-24.342c0,0,0.366-1.142,0.868-1.142l-7.275-0.022c0,0,0.209,0.84-0.053,1.487c-0.254,0.645-4.39,11.69-4.39,11.69
		l-1.614-13.177h-7.815c0,0,0.404,0.645,0.146,1.356l-8.285,22.736C93.742,101.365,93.225,102.779,92.772,102.779L92.772,102.779z
		 M127.329,77.28c0,0,0.645,1.034-0.194,3.423c-0.842,2.391-7.428,20.152-7.428,20.152s-0.519,1.671-1.23,1.996l10.336-0.011
		c0,0,12.528,0.463,16.405-12.706c0,0,4.908-12.983-9.302-12.853L127.329,77.28L127.329,77.28L127.329,77.28z M128.427,96.958
		c0,0,0.032-0.01,1.193-0.01c1.757,0,5.013-0.387,7.203-5.716c3.596-8.756-1.422-8.46-1.422-8.46h-1.938L128.427,96.958z
		 M36.518,123.401h16.469l2.004-5.736h-10.66l12.16-4.21l0.805-2.323l-18.711,6.136L36.518,123.401L36.518,123.401z M65.381,133.979
		c-0.261,0-0.261-0.832-0.261-0.832l3.028-8.039c0,0,3.775,7.405,4.033,7.922c0.258,0.519,0.128,0.948,0.128,0.948h9.028
		c-0.862,0-1.75-1.637-1.75-1.637l-4.493-8.066c6.287,0,8.296-6.229,8.296-6.229c3.1-9.904-7.333-9.646-7.333-9.646H65.38
		c0.774,0.861,0.17,2.67,0.17,2.67s-6.63,18.956-7.146,20.421c-0.518,1.465-1.465,2.485-1.465,2.485L65.381,133.979L65.381,133.979z
		 M71.78,114.283l-1.75,5.143h1.637c0,0,3.188,0.282,4.363-2.253c0,0,1.375-2.904-2.47-2.904
		C72.718,114.269,71.78,114.283,71.78,114.283L71.78,114.283z M158.793,134.074c-0.644,0.015-0.194-1.567-0.194-1.567l2.704-7.306
		c0,0,3.641,7.408,3.898,7.927c0.259,0.516,0.13,0.946,0.13,0.946h9.349c-0.863,0-1.809-1.64-1.809-1.64l-4.495-8.064
		c6.288,0,8.182-6.008,8.182-6.008c3.301-10.369-7.216-9.868-7.216-9.868H158.75c0.775,0.861,0.174,2.67,0.174,2.67
		s-6.909,19.03-7.426,20.493c-0.324,0.899-0.84,1.718-1.51,2.399L158.793,134.074L158.793,134.074z M164.951,119.52
		c0,0,3.163,0.237,4.132-2.241c1.143-2.917-1.708-2.842-1.708-2.842h-2.338l-1.724,5.083H164.951L164.951,119.52z M94.556,134.614
		c9.319,0,14.865-9.142,14.865-15.699c0-6.88-2.828-11.173-9.284-11.173c-8.239,0-13.613,6.253-15,14.024
		C83.861,128.913,87.898,134.614,94.556,134.614z M95.143,128.569c2.325,0.431,4.88-1.244,6.215-6.588
		c2.024-8.089-1.706-8.154-2.387-8.238c-2.063-0.253-4.815,2.123-5.935,7.075C92.524,123.08,91.981,127.981,95.143,128.569
		L95.143,128.569z M111.634,108.497c0,0,0.64,0.345,0.64,1.979v22.135c0,0-0.088,1.21-0.545,1.465h6.924c0,0,0-0.519,0.687-1.38
		c0.689-0.86,15.071-20.15,15.071-20.15s3.279-4.048,4.14-4.048h-9.91c0,0,0.778,0.517,0.174,1.463
		c-0.602,0.948-9.412,14.124-9.412,14.124l0.112-13.289c0,0-0.018-2.131,0.839-2.309L111.634,108.497L111.634,108.497z
		 M153.495,114.53l2.241-6.041l-16.793,0.002c0,0,0.604,0.533-0.172,2.685c-0.775,2.155-7.58,20.493-7.58,20.493
		s-1.203,2.41-1.546,2.41h17.307l2.066-6.112c0,0-0.257,0.342-1.894,0.342h-7.32l1.55-4.134h5.682c0,0,1.205-0.086,1.465,0.259
		l2.323-6.532c0,0-0.17,0.589-1.722,0.589h-5.51l1.636-4.561h6.977C152.206,113.931,153.154,113.8,153.495,114.53L153.495,114.53z
		 M65.956,102.801h8.285c0,0-0.025-0.635,0.19-1.048c0.394-0.747,1.421-2.547,1.421-2.547h8.338l0.016,2.246
		c0,0,0.043,0.774-0.571,1.371h8.268c0,0-0.614-0.345-0.727-1.361l-1.039-22.475c0,0-0.045-1.437,0.64-1.74h-8.203
		c0,0,0.575,0.71-0.523,2.326c-1.097,1.615-15.108,22.39-15.108,22.39S66.665,102.494,65.956,102.801L65.956,102.801z M84.03,85.946
		l-4.604,7.49h4.668L84.03,85.946z"/>
</g>

</svg>
