<?xml version="1.0" encoding="utf-8"?>
<!DOCTYPE svg PUBLIC "-//W3C//DTD SVG 1.1//EN" "http://www.w3.org/Graphics/SVG/1.1/DTD/svg11.dtd">
<svg version="1.1" id="Layer_1" xmlns="http://www.w3.org/2000/svg" xmlns:xlink="http://www.w3.org/1999/xlink" x="0px" y="0px" width="216px" height="216px" viewBox="0 0 216 216" enable-background="new 0 0 216 216" xml:space="preserve">
<circle fill="#FE8422" cx="108" cy="108" r="108"/>
<g>
	<path fill="#FFFFFF" d="M92.433,71.971c-8.229,0.188-13.993,5.787-16.695,9.104c0,0-0.119,0.141-0.212,0.259
		c-0.112-0.034-0.224-0.072-0.332-0.117c-5.645-2.024-12.023-2.399-18.45-1.105c-6.188,1.268-15.059,4.446-21.511,9.598
		c-11.311,9.057-17.263,19.971-16.764,30.747c0.285,6.235,3.177,11.621,8.347,15.572c8.49,6.518,22.505,5.01,28.15,4.068
		c6.308-1.057,105.033-18.607,118.004-21.076c11.785-2.234,23.001-6.212,25.255-20.021c0.142-0.816,0.213-1.642,0.215-2.469v-0.097
		c0-3.386-1.069-6.54-2.918-8.68c-3.461-3.976-9.272-4.446-13.327-4.47c-5.645-0.023-66.211,1.129-73.087,1.271h-0.452
		c-0.021-0.212-0.046-0.424-0.046-0.424c-0.337-2.671-1.469-5.18-3.25-7.198C103.27,74.582,99.333,71.806,92.433,71.971"/>
	<path fill="#FE8422" d="M92.361,92.013c3.438-0.141,6.806-1.67,7.067-5.222c0.189-2.376-1.66-4.822-5.431-5.033
		c-1.904-0.168-3.807,0.33-5.384,1.411c-1.052,0.787-1.792,1.92-2.086,3.199c-0.379,1.53-0.19,2.799,0.545,3.786
		C88.07,91.448,89.967,92.106,92.361,92.013"/>
	<path fill="#FE8422" d="M190.872,97.801c-0.498,1.082-1.518,2.211-2.42,2.352l-0.4,0.095c0,0,0.356-2.399,0.379-3.105
		c0.071-3.294-0.712-6.727-5.879-6.446c-3.179,0.189-7.803,2.917-8.515,8.82v0.024l-0.022,0.023
		c0.002,0.041-0.008,0.082-0.022,0.118c-0.785,2.046-2.231,4.94-3.274,5.058c-0.209,0.025-0.416-0.044-0.568-0.188
		c-0.202-0.225-0.306-0.521-0.286-0.824c0.106-0.965,0.304-1.919,0.593-2.847c0.445-1.619,0.764-3.27,0.949-4.94
		c0.378-4.022-2.112-4.822-4.697-4.632c-1.539,0.148-2.992,0.783-4.149,1.811l-0.927,1.036c0,0,0.428-1.976,0.546-2.517
		c-0.735,0.024-5.313,0.188-5.787,0.188l-2.039,8.163c-0.713,0.941-1.686,1.717-2.515,1.929l-0.401,0.094l-0.047-0.424
		c-0.028-0.421-0.093-0.838-0.192-1.248c-0.117-0.917-0.924-4.046-4.008-3.786c-7.944,0.659-7.705,10.42-2.966,9.033l0.547-0.165
		l-0.095,0.589c-0.64,3.881-2.3,5.928-4.602,6.233c-0.337,0.045-0.679-0.067-0.923-0.305c-0.453-0.528-0.667-1.216-0.595-1.907
		c0.047-1.905,3.865-17.76,3.865-17.76s-6.88,0.258-7.375,0.282c-0.356,1.459-1.871,7.763-1.871,7.763l-0.237,0.823
		c-0.249,0.827-0.455,1.668-0.617,2.518v0.049l-0.021,0.023c-0.024,0.047-0.024,0.094-0.05,0.119
		c-1.162,2.987-3.177,6.233-4.742,6.398c-0.288,0.05-0.581-0.048-0.783-0.258c-0.228-0.242-0.347-0.565-0.332-0.896v-0.023
		l0.143-1.292c0,0,3.912-14.184,4.199-15.126c-0.878,0.025-8.396,0.166-8.396,0.166l-0.733,2.587
		c-0.191-2.117-4.673-4.94-8.04-1.928c-3.559,3.175-4.53,7.951-5.076,12.655l-0.047,0.188c-0.757,5.669-2.087,9.551-6.048,10.044
		c-0.777,0.163-1.585,0.064-2.301-0.28c1.144-0.789,2.119-1.796,2.869-2.964c1.47-2.424,0.807-4.54-0.735-5.552
		c-3.083-2.001-6.451,0.444-7.042,3.551c-0.281,1.542,0.043,3.134,0.901,4.445c-1.069,0.612-1.922,1.271-3.391,1.46
		c-0.746,0.096-1.493-0.167-2.016-0.706c-0.878-1.176,0.308-4.964,0.475-5.458c0,0,5.454-16.065,5.762-17.054
		c-0.948,0.048-10.979,0.377-11.477,0.401c-0.333,1.012-1.612,4.94-2.917,8.563c-2.561,7.081-10.008,16.772-17.692,18.748
		c-4.079,1.059-7.28,0.87-9.295-0.375c-2.75-1.694-4.34-5.718-3.273-11.362c0.426-2.701,1.266-5.319,2.486-7.764
		c6.426-13.55,16.767-10.492,16.126-9.457c-0.682,0.239-1.341,0.538-1.969,0.895c-1.661,0.87-4.316,3.434-4.411,6.609
		c-0.071,2.046,0.498,3.694,1.613,4.775c1.09,1.059,2.702,1.553,4.528,1.389c4.079-0.376,7.399-3.412,7.542-7.929
		c0.071-2.446-0.617-4.446-2.04-5.927c-2.3-2.377-4.98-3.553-10.958-3.386c-9.273,0.259-23.312,6.822-27.344,21.337
		c-1.351,4.891,0.427,10.821,3.392,13.502c4.102,3.741,9.201,5.104,18.141,3.435c7.969-1.482,14.489-6.871,19.304-12.515
		c0.003,0.087-0.004,0.174-0.023,0.258c-1.138,4.141,0.403,8.563,7.398,7.671c2.917-0.377,8.039-2.024,11.621-4.801
		c1.636,1.412,4.482,2.26,7.706,1.788c1.329-0.188,4.721-1.082,7.707-5.34c2.347-3.342,3.534-9.88,4.197-13.407
		c0.309-1.648,0.498-2.729,0.757-3.176c0.186-0.516,0.557-0.945,1.043-1.199c1.258-0.518,1.897,0.682,1.661,1.6
		c-0.237,0.895-1.543,5.386-1.543,5.411l-0.236,0.706c-0.757,2.187-1.637,4.68-1.707,7.315c-0.05,1.929,0.447,3.457,1.468,4.399
		c0.95,0.869,2.301,1.223,3.89,0.988c4.395-0.643,7.522-5.062,8.997-7.626l0.213-0.376l0.285-0.516l0.164,0.965
		c0.688,3.834,3.749,5.386,8.349,4.704c5.953-0.87,9.532-3.929,10.624-9.245l0.047-0.235l0.216-0.07
		c0.575-0.217,1.125-0.501,1.636-0.847l0.449-0.306l-2.11,8.539c0.854-0.117,6.425-1.058,6.877-1.107
		c0.119-0.515,2.561-10.868,2.561-10.868c0.428-1.788,1.59-5.199,2.918-5.293c0.265-0.01,0.524,0.092,0.713,0.282
		c0.314,0.382,0.467,0.872,0.428,1.364c-0.108,1.315-0.378,2.61-0.808,3.858c-0.584,1.974-0.99,3.999-1.208,6.046
		c-0.334,3.598,2.726,3.575,3.628,3.434c2.156-0.305,5.026-1.435,7.471-6.751l0.118,0.565c0.536,2.833,3.222,4.729,6.071,4.28
		c3.438-0.518,5.785-2.376,7.091-5.434l0.094-0.212l0.214-0.024c1.352-0.141,3.2-1.693,3.676-3.505
		C191.157,98.484,191.135,98.131,190.872,97.801 M99.785,109.162c1.233,0.05,1.73,0.802,1.042,2.306
		c-0.332,0.729-1.305,1.834-2.561,2.775C96.725,111.821,98.242,109.092,99.785,109.162 M145.458,102.693
		c-0.236,0.33-0.713,0.542-1.493,0.683c-0.808,0.141-1.02-0.306-1.044-0.494c-0.165-0.706,0.617-1.858,1.281-2.164
		c0.309-0.161,0.682-0.144,0.972,0.047C145.719,101.4,145.458,102.693,145.458,102.693 M183.307,102.34
		c-0.498,1.481-1.162,3.081-2.488,3.246c-0.396,0.074-0.804-0.03-1.115-0.283c-0.45-0.401-0.64-0.776-0.615-2.116
		c0.071-3.153,1.732-11.033,3.983-11.126c0.317-0.01,0.62,0.118,0.831,0.352c0.474,0.518,0.662,1.506,0.545,2.681l-0.023,0.141
		c0,0-2.347,0.095-2.609,3.576c-0.065,1.245,0.553,2.427,1.611,3.081L183.307,102.34z M183.947,100.035
		c-0.759-0.47-0.735-1.858-0.309-2.351c0.161-0.225,0.456-0.312,0.713-0.211C184.311,98.339,184.175,99.198,183.947,100.035"/>
</g>
</svg>
