<?xml version="1.0" encoding="utf-8"?>
<!DOCTYPE svg PUBLIC "-//W3C//DTD SVG 1.1//EN" "http://www.w3.org/Graphics/SVG/1.1/DTD/svg11.dtd">
<svg version="1.1" xmlns="http://www.w3.org/2000/svg" xmlns:xlink="http://www.w3.org/1999/xlink" x="0px" y="0px" width="216px" height="216px" viewBox="0 0 216 216" enable-background="new 0 0 216 216" xml:space="preserve">
<g id="Layer_1">
	<path fill-rule="evenodd" clip-rule="evenodd" fill="#009345" d="M54,0h108.003C191.702,0,216,24.3,216,54v108.003
		C216,191.702,191.702,216,162.003,216H54c-29.7,0-54-24.298-54-53.997V54C0,24.3,24.3,0,54,0z"/>
	<g>
		<path fill="#FFFFFF" d="M86.992,138.275l-3.255,11.896c-0.275,1.048-1.225,5.412-1.545,8.604H81.91
			c-0.318-3.467-1.186-7.208-1.551-8.849l-2.6-11.65h-8.281l-2.6,11.65c-0.364,1.64-1.231,5.382-1.55,8.849h-0.283
			c-0.318-3.191-1.269-7.556-1.543-8.604l-3.255-11.896h-9.522l8.527,27.092c1.049,3.329,2.782,5.062,5.747,5.062
			c2.918,0,4.787-1.823,5.518-5.062l1.276-5.52c0.549-2.326,1.324-5.699,1.688-8.255h0.274c0.364,2.556,1.141,5.929,1.688,8.255
			l1.276,5.52c0.775,3.236,2.6,5.062,5.52,5.062c2.963,0,4.698-1.732,5.744-5.062l8.529-27.092H86.992z"/>
		<path fill="#FFFFFF" d="M112.795,137.594c-9.669,0-17.104,7.16-17.104,16.416c0,9.261,7.435,16.419,17.104,16.419
			s17.103-7.16,17.103-16.419C129.897,144.753,122.464,137.594,112.795,137.594z M112.795,162.447c-4.743,0-8.437-3.693-8.437-8.438
			c0-4.742,3.694-8.437,8.437-8.437s8.437,3.694,8.437,8.437C121.231,158.756,117.537,162.447,112.795,162.447z"/>
		<path fill="#FFFFFF" d="M165.286,151.64h-18.379v6.478h10.075c-0.493,2.38-3.473,4.697-7.568,4.697
			c-5.672,0-8.711-3.83-8.711-8.803c0-4.787,3.648-8.48,8.575-8.48c3.42,0,6.019,1.733,7.435,4.377l7.889-3.237
			c-2.783-5.472-7.936-9.076-15.323-9.076c-9.579,0-17.104,7.114-17.104,16.417c0,9.305,7.205,16.419,17.104,16.419
			C160.133,170.431,167.111,161.9,165.286,151.64z"/>
	</g>
	<path fill="#FFFFFF" d="M99.508,101.949l-12,24.3L54.311,59.021c-3.603-7.3-0.607-16.137,6.691-19.741
		c7.299-3.604,16.137-0.608,19.74,6.69l18.763,38.002C102.306,89.637,102.306,96.284,99.508,101.949z"/>
	<path fill="#FFFFFF" d="M139.033,101.949l-11.998,24.3L93.839,59.021c-3.604-7.3-0.608-16.137,6.689-19.74
		c7.3-3.603,16.135-0.607,19.741,6.691l18.764,38.002C141.83,89.637,141.83,96.284,139.033,101.949z"/>
	<path fill="#8BC53F" d="M146.601,37.752c-8.137,0-14.732,6.596-14.732,14.733c0,2.346,0.551,4.563,1.524,6.531l13.207,26.77
		l13.207-26.77c0.976-1.968,1.527-4.185,1.527-6.531C161.334,44.348,154.736,37.752,146.601,37.752z"/>
</g>
<g id="Layer_2">
</g>
</svg>
