<?xml version="1.0" encoding="utf-8"?>
<!DOCTYPE svg PUBLIC "-//W3C//DTD SVG 1.1//EN" "http://www.w3.org/Graphics/SVG/1.1/DTD/svg11.dtd">
<svg version="1.1" id="Layer_1" xmlns="http://www.w3.org/2000/svg" xmlns:xlink="http://www.w3.org/1999/xlink" x="0px" y="0px" width="216px" height="216px" viewBox="0 0 216 216" enable-background="new 0 0 216 216" xml:space="preserve">
<g transform="translate(170.24 5.0558)">
	<g id="Layer_1_1_" transform="matrix(.52497 0 0 .52497 -170.24 -5.0558)">
		<g id="Nissan_Badge_1_">
			<path d="M239.87,219.668c-0.324,0.08-1.617,0.08-2.184,0.08h-41.734v9.707h42.462c0.324,0,2.831,0,3.317-0.082
				c8.654-0.807,12.618-8.006,12.618-14.314c0-6.472-4.124-13.427-11.971-14.154c-1.537-0.163-2.831-0.163-3.397-0.163H211.24
				c-1.215,0-2.589-0.08-3.075-0.242c-2.183-0.566-2.992-2.508-2.992-4.125c0-1.456,0.809-3.397,3.074-4.044
				c0.647-0.162,1.375-0.243,2.911-0.243h40.036v-9.544h-40.683c-1.698,0-2.992,0.081-4.044,0.243
				c-6.955,0.97-11.808,6.551-11.808,13.669c0,5.823,3.639,12.617,11.647,13.75c1.456,0.162,3.478,0.162,4.367,0.162h27.014
				c0.486,0,1.698,0,1.942,0.08c3.073,0.406,4.124,2.669,4.124,4.691C243.753,217.081,242.54,219.183,239.87,219.668z"/>
			<path d="M160.769,219.668c-0.324,0.08-1.617,0.08-2.103,0.08H116.85v9.707h42.463c0.323,0,2.83,0,3.316-0.082
				c8.654-0.807,12.617-8.006,12.617-14.314c0-6.472-4.124-13.427-11.97-14.154c-1.537-0.163-2.831-0.163-3.398-0.163h-27.742
				c-1.213,0-2.589-0.08-3.073-0.242c-2.184-0.566-2.993-2.508-2.993-4.125c0-1.456,0.809-3.397,3.074-4.044
				c0.647-0.162,1.375-0.243,2.911-0.243h40.037v-9.544h-40.683c-1.698,0-2.993,0.081-4.044,0.243
				c-6.956,0.97-11.809,6.551-11.809,13.669c0,5.823,3.64,12.617,11.647,13.75c1.456,0.162,3.478,0.162,4.368,0.162h27.014
				c0.485,0,1.698,0,1.941,0.08c3.073,0.406,4.125,2.669,4.125,4.691C164.651,217.081,163.518,219.183,160.769,219.668
				L160.769,219.668z"/>
			<rect x="84.579" y="182.22" width="10.514" height="47.479"/>
			<polygon points="61.365,229.699 61.365,182.22 50.851,182.22 50.851,217.646 15.83,182.22 2.322,182.22 2.322,229.699 
				12.836,229.699 12.836,194.11 48.101,229.699 			"/>
			<polygon points="399.532,182.22 399.532,217.646 364.509,182.22 351.002,182.22 351.002,229.699 361.516,229.699 361.516,194.11 
				396.701,229.699 409.964,229.699 409.964,182.22 			"/>
			<path d="M296.245,182.22l-29.602,47.479h12.78l5.257-8.494h34.537l5.257,8.494h12.698l-29.604-47.479H296.245z M313.796,212.228
				h-23.697l11.889-19.089L313.796,212.228z"/>
			<path d="M60.8,155.287C81.99,93.412,140.387,51.84,206.225,51.84c65.837,0,124.315,41.572,145.425,103.447l0.162,0.486h46.344
				v-5.582l-19.25-2.264c-11.889-1.375-14.396-6.633-17.631-13.265l-0.809-1.617c-27.823-59.205-88.403-97.543-154.241-97.543
				c-65.919,0-126.418,38.337-154.242,97.705l-0.808,1.617c-3.236,6.633-5.743,11.89-17.632,13.265l-19.251,2.264v5.582h46.265
				L60.8,155.287z"/>
			<path d="M351.811,256.226l-0.162,0.487c-21.192,61.873-79.588,103.365-145.425,103.365c-65.838,0-124.315-41.572-145.425-103.447
				l-0.162-0.486H14.373v5.581l19.251,2.266c11.889,1.375,14.396,6.632,17.632,13.263l0.808,1.618
				c27.823,59.367,88.403,97.705,154.242,97.705c65.836,0,126.418-38.337,154.24-97.623l0.809-1.618
				c3.235-6.632,5.743-11.891,17.633-13.265l19.25-2.264v-5.583H351.811z"/>
		</g>
	</g>
</g>

</svg>
