<?xml version="1.0" encoding="utf-8"?>
<!DOCTYPE svg PUBLIC "-//W3C//DTD SVG 1.1//EN" "http://www.w3.org/Graphics/SVG/1.1/DTD/svg11.dtd">
<svg version="1.1" xmlns="http://www.w3.org/2000/svg" xmlns:xlink="http://www.w3.org/1999/xlink" x="0px" y="0px" width="216px" height="216px" viewBox="0 0 216 216" enable-background="new 0 0 216 216" xml:space="preserve">
<g>
	<g>
		<rect fill="#B0DFF5" width="216" height="216"/>
		<path fill="#E20021" d="M197.722,124.819c0.169-0.135,0.303-0.308,0.393-0.501c0.097-0.271,0.137-0.554,0.124-0.838V96.082
			c0.013-0.29-0.029-0.578-0.124-0.852c-0.087-0.189-0.224-0.353-0.393-0.473c-0.417-0.316-1.379-0.474-2.887-0.474
			c-1.507,0-2.485,0.158-2.935,0.474c-0.169,0.12-0.306,0.283-0.392,0.473c-0.096,0.274-0.137,0.563-0.122,0.852v27.402
			c-0.046,0.504,0.144,1,0.514,1.346c0.417,0.316,1.396,0.475,2.935,0.475S197.337,125.142,197.722,124.819z M177.281,124.976
			c1.434-0.46,2.751-1.222,3.862-2.239c0.996-0.939,1.757-2.103,2.215-3.394c0.48-1.368,0.718-2.809,0.705-4.259V96.082
			c0.061-0.497-0.113-0.994-0.473-1.344c-0.45-0.315-1.41-0.474-2.888-0.474c-1.535,0-2.514,0.158-2.935,0.474
			c-0.18,0.114-0.318,0.279-0.402,0.473c-0.087,0.275-0.126,0.564-0.113,0.853v18.931c-0.006,0.781-0.139,1.556-0.394,2.295
			c-0.31,0.841-0.919,1.535-1.712,1.95c-1.077,0.561-2.281,0.827-3.493,0.771c-0.868,0.02-1.735-0.103-2.565-0.36
			c-0.649-0.202-1.244-0.55-1.737-1.017c-0.449-0.445-0.787-0.989-0.985-1.59c-0.216-0.662-0.319-1.354-0.313-2.05V96.063
			c0.061-0.497-0.113-0.995-0.472-1.344c-0.449-0.315-1.411-0.474-2.887-0.474c-1.537,0-2.516,0.158-2.935,0.474
			c-0.18,0.113-0.32,0.279-0.402,0.473c-0.087,0.275-0.126,0.563-0.115,0.852v19.007c-0.013,1.45,0.227,2.891,0.706,4.259
			c0.459,1.29,1.218,2.455,2.216,3.394c1.11,1.017,2.429,1.78,3.861,2.24c3.672,1.083,7.575,1.097,11.255,0.042V124.976z
			 M143.81,124.819c0.167-0.133,0.299-0.306,0.38-0.501c0.088-0.271,0.127-0.554,0.113-0.838v-23.372h6.83
			c0.415,0.012,0.829-0.038,1.229-0.146c0.322-0.104,0.588-0.335,0.739-0.639c0.244-0.532,0.402-1.099,0.473-1.68
			c0.099-0.569,0.152-1.145,0.167-1.722c0.009-0.276-0.021-0.552-0.092-0.819c-0.059-0.195-0.187-0.363-0.359-0.473
			c-0.146-0.083-0.308-0.139-0.473-0.166c-0.297-0.043-0.595-0.062-0.896-0.057h-21.298c-0.414-0.011-0.829,0.038-1.23,0.146
			c-0.319,0.11-0.582,0.346-0.728,0.653c-0.235,0.464-0.397,0.962-0.473,1.476c-0.112,0.626-0.169,1.259-0.166,1.893
			c-0.011,0.283,0.019,0.565,0.09,0.838c0.062,0.2,0.198,0.369,0.378,0.474c0.432,0.186,0.9,0.262,1.368,0.222h7.61v23.375
			c-0.058,0.508,0.137,1.007,0.515,1.346c0.417,0.316,1.395,0.475,2.936,0.475C142.386,125.314,143.346,125.154,143.81,124.819z"/>
		<path fill="#E20021" d="M19.148,77.642h23.928c2.367,0,4.113,0.744,4.809,4.075c0.777,3.707,0.474,6.286-3.714,6.579l-7.512,0.554
			c5.529,34.938,37.863,46.324,55.455,8.695c2.915-6.229,3.866-7.36,7.057-6.57c4.326,1.074,4.917,3.313,2.839,9.575
			c-15.197,46.373-66.344,51.025-76.378-10.923l-6.101,0.439c-4.969,0.355-5.164-3.833-5.164-6.162
			C14.368,79.294,16.077,77.642,19.148,77.642z"/>
		<circle fill="#E20021" cx="106.147" cy="64.092" r="8.879"/>
	</g>

</g>
</svg>
