<?xml version="1.0" encoding="utf-8"?>
<!DOCTYPE svg PUBLIC "-//W3C//DTD SVG 1.1//EN" "http://www.w3.org/Graphics/SVG/1.1/DTD/svg11.dtd">
<svg version="1.1" xmlns="http://www.w3.org/2000/svg" xmlns:xlink="http://www.w3.org/1999/xlink" x="0px" y="0px" width="216px" height="216px" viewBox="0 0 216 216" enable-background="new 0 0 216 216" xml:space="preserve">
<g>
	<path fill="#0000FF" d="M18.223,15.869c26.733-4.619,53.582-7.248,80.644-7.77c33.537-0.638,66.823,2.048,99.898,7.75
		c0.058,0.368,0.134,0.657,0.134,0.947c0.406,11.482,0.736,22.945,0.541,34.427c-0.195,11.83-0.928,23.622-2.609,35.354
		c-2.185,15.213-5.837,30.017-11.888,44.188c-11.945,27.933-30.964,49.91-56.306,66.495c-6.09,3.982-12.471,7.423-19.062,10.478
		c-0.735,0.349-1.314,0.368-2.069,0c-40.322-19.291-67.712-49.871-81.088-92.727c-2.958-9.469-4.89-19.176-6.283-29.013
		c-2.086-14.75-2.706-29.596-2.57-44.48c0.077-8.099,0.367-16.179,0.541-24.278C18.125,16.836,18.164,16.392,18.223,15.869z
		 M21.914,19.619c0,0.755,0.019,1.276,0,1.818c-0.096,3.981-0.213,7.944-0.328,11.926c-0.387,13.454-0.251,26.888,0.87,40.303
		c0.772,9.046,2.01,18.035,3.905,26.926c2.918,13.745,7.345,26.967,13.955,39.395c15.252,28.61,37.829,49.504,66.977,63.46
		c0.912,0.426,1.625,0.349,2.495-0.058c7.173-3.364,14.033-7.25,20.551-11.733c21.549-14.865,38.23-33.906,49.327-57.701
		c6.939-14.884,11.037-30.58,13.356-46.796c1.604-11.23,2.437-22.539,2.493-33.886c0.058-9.22-0.152-18.44-0.269-27.68
		c-0.02-1.953-0.153-3.905-0.233-5.974c-28.009-4.871-56.152-7.364-84.51-7.48C80.812,12.004,51.335,14.497,21.914,19.619z"/>
	<path fill="#FFFFFF" d="M21.914,19.619c29.421-5.103,58.898-7.615,88.589-7.5c28.357,0.117,56.501,2.61,84.51,7.48
		c0.08,2.069,0.214,4.021,0.233,5.974c0.116,9.221,0.308,18.44,0.269,27.68c-0.057,11.347-0.889,22.654-2.493,33.886
		c-2.319,16.197-6.417,31.913-13.356,46.797c-11.078,23.813-27.778,42.835-49.327,57.7c-6.518,4.503-13.378,8.37-20.551,11.734
		c-0.851,0.406-1.583,0.482-2.495,0.057c-29.148-13.956-51.744-34.83-66.977-63.46c-6.61-12.428-11.037-25.648-13.955-39.394
		c-1.895-8.891-3.132-17.861-3.905-26.927c-1.14-13.415-1.257-26.85-0.87-40.303c0.115-3.982,0.213-7.944,0.328-11.927
		C21.933,20.895,21.914,20.354,21.914,19.619z M191.786,22.479c-55.573-9.278-110.994-9.278-166.489-0.019
		c-0.038,0.599-0.076,1.083-0.097,1.565c-0.115,4.853-0.271,9.705-0.328,14.575c-0.155,12.217-0.039,24.434,1.121,36.61
		c0.87,9.086,2.185,18.112,4.214,27.005c2.707,11.849,6.553,23.311,12.102,34.155c14.516,28.374,36.397,49.232,64.926,63.246
		c0.947,0.468,1.663,0.426,2.591-0.02c14.577-7.035,27.625-16.256,39.106-27.68c17.455-17.375,29.263-38.061,35.876-61.759
		c4.89-17.493,6.845-35.412,7.286-53.504c0.176-6.959,0.076-13.938,0.038-20.896C192.074,31.41,191.901,27.042,191.786,22.479z"/>
	<path fill="#0000FF" d="M191.786,22.479c0.115,4.562,0.288,8.931,0.326,13.28c0.058,6.959,0.138,13.938-0.038,20.896
		c-0.441,18.092-2.415,36.011-7.285,53.504c-6.614,23.698-18.422,44.384-35.876,61.759c-11.463,11.424-24.511,20.645-39.107,27.68
		c-0.927,0.445-1.644,0.487-2.59,0.02c-28.529-14.014-50.411-34.853-64.926-63.246c-5.549-10.845-9.395-22.307-12.102-34.155
		c-2.029-8.912-3.344-17.919-4.213-27.005c-1.16-12.177-1.295-24.394-1.121-36.61c0.058-4.852,0.212-9.703,0.328-14.575
		c0.019-0.483,0.059-0.966,0.097-1.565C80.773,13.202,136.19,13.202,191.786,22.479z M117.635,173.368
		c1.064-1.874,1.992-3.479,2.862-5.124c0.851-1.583,1.935-2.935,3.323-4.074c7.905-6.518,15.792-13.067,23.735-19.565
		c1.126-0.909,1.859-1.913,2.207-3.322c1.43-5.876,2.357-11.831,2.744-17.862c0.307-4.909,0.211-9.799-0.307-14.692
		c-0.118-1.12-0.506-2.085-1.126-2.975c-4.154-6.032-8.891-11.598-13.915-16.915c-0.579-0.618-1.276-1.023-2.262-1.179
		c0.059,0.464,0.078,0.851,0.154,1.219c0.928,4.309,1.874,8.62,2.763,12.95c0.214,1.065,0.697,1.894,1.472,2.648
		c2.494,2.453,4.791,5.043,6.806,7.925c0.927,1.334,1.464,2.785,1.544,4.388c0.406,7.596,0.35,15.194-0.482,22.771
		c-0.173,1.525-0.813,2.591-1.97,3.579c-7.174,6.105-14.29,12.294-21.383,18.479c-1.817,1.583-3.557,3.246-4.599,5.488
		c-0.039,0.076-0.153,0.096-0.27,0.153c-1.279-3.364-1.995-6.726-0.911-10.34c1.199-4.039,2.261-8.119,3.364-12.178
		c0.157-0.56,0.272-1.123,0.406-1.663c-0.096-0.039-0.192-0.077-0.291-0.115c-0.214,0.405-0.444,0.809-0.617,1.237
		c-1.413,3.246-2.84,6.453-4.196,9.722c-0.965,2.36-1.815,4.756-2.743,7.133c-0.483,1.257-0.483,2.437,0.057,3.69
		c1.023,2.379,1.951,4.815,2.937,7.212C117.113,172.345,117.309,172.712,117.635,173.368z M95.695,91.971
		c-0.172,0.019-0.347,0.019-0.521,0.038c0.058,1.16,0.098,2.301,0.213,3.46c0.155,1.565,0.348,3.112,0.521,4.677
		c0.136,1.159-0.096,2.242-0.734,3.227c-0.734,1.161-1.391,2.36-2.146,3.518c-5.528,8.354-11.579,16.317-18.073,23.951
		c-0.986,1.161-1.663,2.396-1.837,3.924c-0.271,2.726-0.579,5.45-0.889,8.178c-0.135,1.219,0.117,2.338,0.793,3.361
		c0.947,1.434,1.836,2.9,2.861,4.272c5.413,7.347,11.309,14.306,17.59,20.954c1.971,2.088,4.079,3.963,6.765,5.066
		c0.851,0.346,1.663,0.831,2.495,1.233c0.27,0.138,0.56,0.195,0.85,0.272c0.057-0.097,0.115-0.195,0.172-0.272
		c-0.52-0.479-0.964-1.062-1.564-1.429c-2.087-1.238-3.846-2.863-5.432-4.679c-5.991-6.765-11.617-13.8-16.796-21.204
		c-1.102-1.567-2.069-3.207-3.073-4.832c-0.581-0.946-0.87-1.974-0.755-3.093c0.213-1.951,0.406-3.904,0.657-5.84
		c0.136-1.062,0.696-1.893,1.489-2.629c1.759-1.641,3.499-3.284,5.181-5.001c4.871-4.951,3.788-3.154,6.938-9.883
		c2.435-5.178,4.66-10.474,6.978-15.712c0.388-0.87,0.696-1.759,0.464-2.707C97.166,97.848,96.412,94.909,95.695,91.971z
		 M105.613,59.536c0.02,0.134,0.02,0.27,0.039,0.425c0.771,0.019,1.525,0.096,2.299,0.057c4.464-0.155,8.911-0.31,13.377-0.522
		c1.603-0.077,3.112,0.155,4.58,0.813c2.223,1.024,4.449,2.069,6.706,3.016c0.89,0.368,1.859,0.638,2.805,0.753
		c1.855,0.213,3.732,0.193,5.568,0.425c1.101,0.136,2.261,0.387,3.208,0.91c3.924,2.204,7.81,4.522,11.677,6.823
		c0.85,0.502,1.662,0.89,3.013,0.772c-2.86-2.725-5.508-5.257-8.156-7.789c-0.172-0.175-0.406-0.292-0.62-0.407
		c-6.185-3.499-12.39-6.959-18.863-9.917c-1.413-0.636-2.861-0.984-4.388-1.042c-2.999-0.116-5.974-0.291-8.97-0.406
		c-8.389-0.31-16.76-0.058-25.129,0.56c-1.45,0.117-2.397,0.677-3.035,1.914c-0.87,1.701-2.165,2.997-3.614,4.194
		c-2.784,2.32-5.587,4.639-8.68,6.553c-0.638,0.387-1.276,0.813-1.565,1.797c1.41-0.792,2.648-1.487,3.886-2.163
		c5.218-2.823,10.437-5.625,15.656-8.448c1.353-0.734,2.784-1.159,4.349-1.197c2.455-0.059,4.889-0.311,7.345-0.33
		c6.185-0.077,12.351-0.117,18.536-0.136c1.065,0,2.054,0.291,2.924,0.91C120.846,57.815,113.209,58.453,105.613,59.536z
		 M53.402,91.565c-0.096,1.642-0.445,3.073-1.585,4.233c-1.044,1.044-1.991,2.184-2.938,3.305c-0.678,0.793-0.735,1.161-0.117,1.952
		c1.199,1.545,2.455,3.055,3.73,4.545c0.311,0.364,0.851,0.54,1.391,0.87c0.407-1.797,0.793-3.364,1.104-4.951
		c0.211-1.023,0.734-1.604,1.816-1.797c2.842-0.521,5.664-1.14,8.506-1.68c1.7-0.33,3.42-0.619,5.334-0.968
		c-0.444-0.541-0.734-0.927-1.063-1.276c-1.023-1.063-2.106-2.067-3.054-3.188c-1.16-1.374-2.551-2.031-4.369-1.972
		c-1.042,0.019-2.106-0.174-3.169-0.271c-0.039-0.097-0.079-0.193-0.098-0.291c0.368-0.27,0.717-0.579,1.102-0.813
		c0.291-0.172,0.639-0.232,0.968-0.347c4.947-1.875,9.896-3.75,14.845-5.625c1.566-0.58,2.629-1.681,3.401-3.131
		c-0.212,0-0.406,0.057-0.541,0.174c-1.739,1.585-3.847,2.28-6.108,2.687c-0.716,0.136-1.431,0.349-2.146,0.521
		c-0.87,0.213-1.701,0.251-2.571-0.134c-0.445-0.194-1.044-0.194-1.546-0.117c-1.063,0.174-2.106,0.483-3.15,0.715
		c-0.291,0.059-0.58,0.079-1.14,0.136c0.889-0.908,1.584-1.546,2.55-1.875c1.025-0.347,2.01-0.792,3.036-1.14
		c0.773-0.27,1.237-0.657,1.275-1.546c0.039-0.928,0.309-1.835,0.407-2.763c0.077-0.697,0.387-1.18,0.927-1.586
		c1.219-0.909,2.416-1.836,3.616-2.783c0.347-0.272,0.753-0.504,0.849-1.199c-1.816,1.083-3.42,2.127-5.103,3.016
		c-2.977,1.565-5.373,3.711-7.248,6.514c-0.521,0.792-1.314,1.449-2.068,2.029c-3.539,2.725-7.114,5.394-10.651,8.118
		c-1.006,0.774-1.914,1.702-2.765,2.648c-1.004,1.122-0.753,2.417,0.638,3.344c0.677-0.483,1.393-1.004,2.108-1.508
		c1.083-0.772,2.146-1.525,2.706-2.821C52.475,92.165,53.015,91.893,53.402,91.565z M129.544,74.341
		c1.971,0.213,3.614,0.504,5.315-0.096c1.273-0.464,2.687-0.6,3.982-1.006c1.563-0.483,2.862-0.134,4.116,0.87
		c2.938,2.378,5.878,4.756,8.852,7.076c0.908,0.714,1.954,1.294,3.02,1.797c1.95,0.908,3.959,1.721,5.933,2.571
		c1.084,0.464,1.739,1.236,1.953,2.395c0.078,0.388,0.212,0.755,0.27,1.142c0.578,4.078,1.138,8.157,1.758,12.236
		c0.388,2.514-0.057,4.871-1.218,7.113c-1.487,2.86-2.958,5.76-4.483,8.603c-0.349,0.636-0.794,1.312-1.372,1.682
		c-1.854,1.139-2.668,2.706-2.494,4.85c0.058,0.792-0.078,1.585-0.116,2.379c0.56-0.326,0.87-0.697,1.158-1.081
		c4.081-5.491,7.406-11.443,10.4-17.59c0.252-0.524,0.444-1.104,0.486-1.682c0.655-7.308,0.499-14.596-0.832-21.845
		c-0.194-1.023-0.64-1.797-1.51-2.397c-6.357-4.464-13.01-8.408-20.045-11.732c-1.43-0.676-2.782-0.774-4.235-0.136
		c-3.283,1.431-6.568,2.822-9.856,4.232C130.318,73.839,130.044,74.033,129.544,74.341z M111.162,179.304
		c0.076-1.528-0.096-2.959-0.774-4.33c-0.679-1.354-1.237-2.783-1.778-4.196c-1.72-4.426-3.441-8.871-5.085-13.336
		c-0.366-0.985-0.56-2.127-0.463-3.173c0.27-2.975,0.598-5.951,1.161-8.891c1.487-7.848,3.131-15.677,4.695-23.506
		c0.349-1.778-0.345-3.399-0.713-5.082c-0.31,0.406-0.502,0.793-0.656,1.199c-0.912,2.376-1.839,4.753-2.709,7.15
		c-2.687,7.424-5.219,14.903-7.229,22.541c-0.559,2.104-0.406,3.981,0.464,5.975c3.711,8.5,7.984,16.72,12.525,24.816
		C110.771,178.76,110.986,179.031,111.162,179.304z M71.264,76.681c0.039,0.117,0.077,0.232,0.115,0.349
		c1.063,0,2.126,0.057,3.171-0.021c2.378-0.173,4.813,0,7.132-0.714c2.997-0.909,5.993-1.817,8.969-2.804
		c0.6-0.192,1.276-0.636,1.605-1.159c1.604-2.629,3.131-5.315,4.659-7.982c0.057-0.117,0.057-0.272,0.116-0.581
		c-2.126-0.077-4.234-0.368-6.225,0.425c-3.363,1.333-6.688,2.784-9.973,4.292c-0.813,0.366-1.508,1.062-2.127,1.719
		c-0.967,1.044-1.856,2.146-2.687,3.305c-0.87,1.2-1.914,2.07-3.326,2.514C72.172,76.179,71.727,76.468,71.264,76.681z
		 M71.515,99.471c-0.02,0.098-0.039,0.193-0.058,0.309c0.426,0.174,0.87,0.367,1.295,0.522c2.357,0.851,4.716,1.684,7.055,2.55
		c1.816,0.678,2.397,2.165,1.508,3.867c-1.625,3.034-3.518,5.897-5.702,8.564c-0.426,0.502-1.006,0.985-1.605,1.195
		c-2.106,0.774-4.271,1.414-6.417,2.149c-0.734,0.25-1.314,0.115-1.876-0.39c-0.696-0.618-1.411-1.234-2.106-1.836
		c-0.232-0.192-0.523-0.364-0.908-0.636c-0.155,1.873-0.349,3.517,0.385,5.196c0.697,1.547,1.083,3.25,1.548,4.894
		c0.385,1.371,0.637,2.763,0.985,4.157c0.251,0.966,0.542,1.196,1.47,0.984c1.429-0.329,2.86-0.678,4.232-1.218
		c0.714-0.291,1.276-0.97,1.895-1.487c-0.464-0.195-0.774-0.195-1.083-0.118c-1.141,0.252-2.282,0.56-3.441,0.754
		c-1.025,0.192-1.198,0.038-1.411-0.969c-0.291-1.445-0.542-2.897-0.773-4.349c-0.232-1.312-0.155-1.407,1.199-1.875
		c2.957-1.023,5.934-2.047,8.91-3.031c0.773-0.253,1.45-0.602,1.856-1.337c2.185-3.845,4.369-7.673,6.515-11.52
		c0.192-0.345,0.347-0.908,0.213-1.256c-0.485-1.238-1.083-2.415-2.59-2.764c-3.093-0.735-6.187-1.546-9.28-2.281
		C72.733,99.432,72.114,99.49,71.515,99.471z M120.321,93.441c-0.077-0.485-0.115-0.774-0.173-1.044
		c-0.602-2.88-1.196-5.762-1.817-8.622c-0.229-1.102-0.287-2.106,0.541-3.033c0.522-0.581,0.89-1.276,1.314-1.953
		c2.398-3.886,2.38-2.746,1.295-7.771c-0.038-0.193-0.076-0.387-0.153-0.561c-0.118-0.211-0.252-0.464-0.444-0.56
		c-1.199-0.638-2.36-1.314-3.866-0.987c-4.021,0.87-8.063,1.605-12.099,2.416c-1.722,0.349-2.651,1.45-2.902,3.364
		c0.851,0.155,1.719,0.271,2.57,0.483c1.241,0.33,2.379,0.136,3.556-0.368c2.476-1.042,5.027-1.912,7.521-2.957
		c0.947-0.406,1.817-0.289,2.687,0.077c1.472,0.619,2.107,2.746,1.178,4.021c-1.081,1.506-2.201,2.996-3.362,4.465
		c-0.502,0.638-0.636,1.237-0.386,2.029c0.946,2.939,1.835,5.896,2.725,8.835C118.776,92.165,119.259,92.822,120.321,93.441z
		 M73.699,39.49c-4.485,0.309-8.814,0.619-13.164,0.908c0-1.14,0-2.087,0-3.169c3.924-0.31,7.77-0.6,11.675-0.908
		c0-0.676,0-1.238,0-1.972c-3.924,0.289-7.751,0.56-11.656,0.83c0-1.004,0-1.893,0-2.898c4.426-0.328,8.756-0.658,13.106-0.985
		c0.039-0.406,0.077-0.697,0.077-0.987c0-0.27-0.038-0.56-0.096-1.025c-5.162,0.387-10.207,0.774-15.251,1.161
		c0,4.156,0,8.099,0,12.157c5.162-0.385,10.226-0.772,15.29-1.159C73.699,40.766,73.699,40.243,73.699,39.49z M114.66,38.465
		c-3.613,0-7.055,0.019-10.477-0.019c-1.084,0-1.491-0.445-1.51-1.546c-0.038-1.527-0.019-3.035,0-4.563
		c0-1.797,0.232-2.048,2.031-2.067c3.227-0.019,6.476,0,9.703,0.019c0.521,0,1.046,0,1.602,0c0-0.753,0-1.295,0-1.914
		c-0.326-0.038-0.556-0.077-0.789-0.077c-3.541-0.02-7.059-0.039-10.596-0.02c-0.538,0-1.081,0.077-1.603,0.194
		c-1.489,0.308-2.32,1.083-2.397,2.57c-0.117,2.301-0.096,4.621,0,6.92c0.058,1.372,0.87,2.108,2.223,2.339
		c0.619,0.115,1.278,0.155,1.895,0.174c3.575,0.039,7.15,0.039,10.749,0.058c0.422,0,0.851-0.058,1.369-0.098
		c0.057-2.416,0.099-4.735-0.02-7.074c-2.917,0-5.642,0-8.328,0c0,0.676,0,1.237,0,1.952c2.104,0,4.097,0,6.127,0
		C114.66,36.397,114.66,37.363,114.66,38.465z M124.248,30.502c4.484,0.155,8.834,0.329,13.24,0.483c0-0.696,0-1.257,0-1.933
		c-5.142-0.251-10.208-0.541-15.408-0.56c0,4.137-0.019,8.08,0,12.081c5.277,0.193,10.343,0.387,15.504,0.6
		c-0.038-0.774-0.058-1.333-0.096-1.991c-4.502-0.193-8.852-0.367-13.24-0.542c0-1.083,0-2.048,0-3.016c2.047,0,3.979,0,5.934,0
		c1.934,0.021,3.866,0.349,5.778,0.174c0-0.715,0-1.276,0-1.914c-3.963-0.153-7.81-0.309-11.731-0.483
		C124.248,32.435,124.248,31.584,124.248,30.502z M159.466,36.668C159.466,36.668,159.485,36.668,159.466,36.668
		c0-0.928,0-1.855,0-2.784c0-0.096,0-0.192,0-0.29c-0.077-1.604-0.773-2.531-2.322-3.016c-0.46-0.154-0.945-0.251-1.426-0.29
		c-2.98-0.232-5.955-0.464-8.932-0.677c-0.541-0.038-1.085-0.019-1.603,0.039c-1.567,0.155-2.36,0.87-2.418,2.416
		c-0.096,2.242-0.096,4.504,0.019,6.766c0.058,1.527,0.832,2.301,2.319,2.648c0.655,0.155,1.353,0.232,2.03,0.291
		c2.144,0.173,4.292,0.347,6.436,0.483c1.18,0.077,2.359,0.154,3.518,0.096c1.528-0.077,2.321-0.908,2.379-2.435
		C159.505,38.833,159.466,37.75,159.466,36.668z M39.62,40.881c2.784-0.309,5.374-0.598,7.945-0.909
		c1.217-0.153,2.436-0.289,3.614-0.54c1.18-0.251,2.089-1.025,2.242-2.263c0.155-1.255,0.155-2.532,0.019-3.788
		c-0.115-1.141-0.908-1.816-2.048-1.991c-0.521-0.076-1.083-0.115-1.604-0.057c-2.378,0.232-4.775,0.483-7.153,0.753
		c-1.682,0.194-3.363,0.425-5.064,0.657c0,4.099,0,8.042,0,12.102c0.696-0.079,1.314-0.155,2.049-0.252
		C39.62,43.395,39.62,42.236,39.62,40.881z M81.083,28.994c-0.793,0.039-1.412,0.079-2.185,0.117c0,0.638,0,1.179,0,1.7
		c0,2.262-0.019,4.523,0,6.765c0.039,2.495,0.87,3.327,3.401,3.403c0.098,0,0.194,0,0.291,0c3.131-0.117,6.281-0.194,9.414-0.387
		c2.532-0.155,3.344-1.063,3.363-3.654c0.019-2.397,0-4.813,0-7.21c0-0.386-0.039-0.753-0.077-1.198c-0.697,0-1.314,0-2.031,0
		c-0.019,0.542-0.077,1.025-0.077,1.508c0,2.359,0.019,4.716-0.02,7.074c-0.019,1.199-0.251,1.489-1.469,1.546
		c-3.093,0.155-6.166,0.271-9.259,0.368c-1.083,0.039-1.353-0.27-1.372-1.431c-0.02-1.217,0-2.455,0-3.671
		C81.083,32.377,81.083,30.811,81.083,28.994z M179.474,32.705c-5.414-0.6-10.691-1.198-16.083-1.797c0,0.753,0,1.314,0,1.991
		c2.318,0.27,4.582,0.521,6.997,0.793c0,3.42,0,6.726,0,10.071c0.771,0.096,1.392,0.192,2.203,0.29c0-3.422,0-6.689,0-10.109
		c2.398,0.251,4.618,0.482,6.883,0.733C179.474,33.981,179.474,33.46,179.474,32.705z M78.3,108.904
		c-0.117-0.115-0.213-0.215-0.33-0.33c-3.227,2.667-6.475,5.334-9.703,8.001c0.038,0.1,0.097,0.177,0.136,0.272
		c1.739-0.598,3.479-1.199,5.2-1.836c0.251-0.096,0.502-0.31,0.677-0.54C75.632,112.636,76.966,110.78,78.3,108.904z
		 M59.317,104.807c-1.778,0.445-3.093,1.101-3.865,2.61c1.004,1.158,1.893,2.162,2.899,3.326c0.135-0.486,0.232-0.754,0.271-1.026
		C58.854,108.171,59.066,106.643,59.317,104.807z M72.153,78.672c-0.039,1.025-0.077,1.875-0.117,2.746
		c2.92-0.31,3.384-0.832,2.61-2.881C73.912,78.576,73.138,78.614,72.153,78.672z"/>
	<path fill="#FFFFFF" d="M117.635,173.368c-0.326-0.656-0.521-1.042-0.697-1.43c-0.985-2.396-1.913-4.832-2.937-7.211
		c-0.54-1.255-0.54-2.454-0.057-3.691c0.928-2.38,1.759-4.774,2.743-7.132c1.356-3.269,2.783-6.495,4.196-9.722
		c0.192-0.43,0.403-0.832,0.617-1.238c0.099,0.039,0.195,0.077,0.291,0.115c-0.134,0.56-0.249,1.123-0.406,1.663
		c-1.122,4.059-2.165,8.158-3.364,12.175c-1.084,3.599-0.349,6.979,0.911,10.343c0.097-0.058,0.23-0.076,0.27-0.153
		c1.042-2.241,2.781-3.904,4.599-5.488c7.112-6.185,14.228-12.354,21.383-18.481c1.157-0.985,1.797-2.051,1.97-3.576
		c0.832-7.576,0.889-15.175,0.482-22.77c-0.08-1.604-0.636-3.055-1.544-4.389c-1.992-2.881-4.312-5.471-6.806-7.925
		c-0.755-0.755-1.238-1.583-1.472-2.648c-0.889-4.33-1.835-8.622-2.763-12.951c-0.076-0.368-0.096-0.754-0.154-1.218
		c0.966,0.155,1.663,0.561,2.262,1.179c5.024,5.316,9.761,10.883,13.915,16.915c0.62,0.908,1.008,1.855,1.126,2.974
		c0.518,4.893,0.613,9.784,0.307,14.692c-0.367,6.031-1.314,11.986-2.744,17.862c-0.348,1.429-1.081,2.414-2.207,3.322
		c-7.943,6.479-15.83,13.029-23.735,19.563c-1.369,1.142-2.473,2.494-3.323,4.077C119.627,169.889,118.699,171.494,117.635,173.368z
		"/>
	<path fill="#FFFFFF" d="M95.695,91.971c0.736,2.938,1.47,5.876,2.166,8.833c0.232,0.949-0.077,1.837-0.464,2.707
		c-2.318,5.236-4.542,10.535-6.979,15.712c-3.15,6.729-2.067,4.932-6.938,9.88c-1.682,1.72-3.422,3.364-5.181,5.004
		c-0.793,0.736-1.353,1.567-1.489,2.629c-0.251,1.955-0.444,3.89-0.657,5.84c-0.116,1.119,0.174,2.146,0.754,3.093
		c1.004,1.625,1.972,3.266,3.074,4.833c5.179,7.403,10.805,14.458,16.796,21.203c1.605,1.816,3.345,3.441,5.432,4.679
		c0.6,0.349,1.044,0.95,1.564,1.43c-0.058,0.096-0.116,0.194-0.173,0.272c-0.29-0.097-0.579-0.154-0.85-0.272
		c-0.832-0.403-1.644-0.889-2.494-1.234c-2.687-1.122-4.794-2.997-6.766-5.066c-6.281-6.629-12.158-13.588-17.59-20.953
		c-1.025-1.373-1.914-2.84-2.861-4.273c-0.657-1.023-0.927-2.143-0.793-3.36c0.31-2.729,0.619-5.453,0.889-8.179
		c0.155-1.527,0.832-2.763,1.837-3.924c6.456-7.633,12.525-15.597,18.053-23.951c0.755-1.138,1.412-2.357,2.146-3.518
		c0.638-1.004,0.87-2.068,0.734-3.227c-0.173-1.565-0.385-3.112-0.521-4.677c-0.115-1.14-0.136-2.301-0.213-3.46
		C95.349,91.99,95.523,91.971,95.695,91.971z"/>
	<path fill="#FFFFFF" d="M105.613,59.536c7.596-1.083,15.233-1.721,22.906-2.378c-0.87-0.638-1.875-0.928-2.921-0.909
		c-6.185,0.02-12.351,0.039-18.536,0.135c-2.457,0.038-4.89,0.291-7.345,0.329c-1.565,0.039-2.978,0.464-4.349,1.198
		c-5.22,2.822-10.439,5.625-15.658,8.447c-1.236,0.677-2.474,1.372-3.884,2.165c0.29-1.005,0.928-1.412,1.565-1.797
		c3.093-1.914,5.896-4.215,8.68-6.553c1.449-1.199,2.763-2.514,3.614-4.196c0.638-1.236,1.565-1.797,3.035-1.913
		c8.37-0.638,16.741-0.87,25.129-0.561c2.997,0.116,5.972,0.27,8.971,0.406c1.545,0.058,2.994,0.406,4.388,1.044
		c6.474,2.957,12.678,6.417,18.863,9.916c0.214,0.117,0.448,0.232,0.62,0.406c2.648,2.532,5.296,5.064,8.155,7.789
		c-1.33,0.117-2.162-0.271-3.013-0.772c-3.867-2.32-7.733-4.62-11.676-6.823c-0.95-0.523-2.108-0.774-3.208-0.909
		c-1.836-0.231-3.732-0.212-5.568-0.425c-0.949-0.117-1.915-0.368-2.805-0.755c-2.258-0.946-4.483-1.971-6.706-3.016
		c-1.468-0.676-2.978-0.889-4.583-0.811c-4.465,0.212-8.91,0.366-13.375,0.521c-0.755,0.019-1.529-0.039-2.3-0.058
		C105.632,59.806,105.632,59.67,105.613,59.536z"/>
	<path fill="#FFFFFF" d="M53.402,91.565c-0.366,0.328-0.909,0.6-1.102,1.025c-0.56,1.295-1.642,2.048-2.706,2.821
		c-0.715,0.523-1.431,1.025-2.108,1.508c-1.391-0.947-1.642-2.223-0.638-3.344c0.851-0.946,1.759-1.854,2.765-2.648
		c3.518-2.744,7.113-5.394,10.651-8.118c0.772-0.6,1.546-1.257,2.068-2.029c1.875-2.803,4.292-4.93,7.249-6.514
		c1.682-0.889,3.286-1.934,5.102-3.016c-0.076,0.695-0.502,0.946-0.849,1.199c-1.199,0.928-2.397,1.874-3.615,2.783
		c-0.541,0.406-0.87,0.889-0.928,1.586c-0.098,0.928-0.349,1.835-0.406,2.763c-0.039,0.889-0.502,1.295-1.276,1.546
		c-1.025,0.349-2.01,0.793-3.035,1.14c-0.966,0.329-1.681,0.967-2.55,1.875c0.541-0.057,0.851-0.057,1.14-0.136
		c1.044-0.232,2.086-0.541,3.15-0.715c0.504-0.077,1.102-0.096,1.546,0.117c0.87,0.386,1.701,0.347,2.571,0.134
		c0.715-0.172,1.431-0.385,2.146-0.521c2.242-0.426,4.369-1.102,6.108-2.687c0.134-0.117,0.309-0.174,0.54-0.174
		c-0.772,1.429-1.835,2.531-3.401,3.131c-4.949,1.876-9.898,3.75-14.846,5.625c-0.329,0.115-0.676,0.193-0.967,0.347
		c-0.385,0.234-0.734,0.542-1.102,0.813c0.04,0.098,0.079,0.194,0.098,0.291c1.063,0.096,2.107,0.29,3.169,0.271
		c1.818-0.039,3.209,0.598,4.369,1.972c0.948,1.121,2.05,2.125,3.054,3.188c0.329,0.349,0.619,0.735,1.063,1.276
		c-1.914,0.349-3.635,0.638-5.334,0.966c-2.842,0.562-5.664,1.18-8.505,1.682c-1.083,0.194-1.604,0.774-1.817,1.797
		c-0.329,1.586-0.697,3.153-1.102,4.951c-0.542-0.33-1.063-0.505-1.393-0.87c-1.295-1.49-2.531-3-3.731-4.545
		c-0.619-0.792-0.56-1.159,0.117-1.952c0.947-1.121,1.894-2.261,2.938-3.305C52.938,94.638,53.287,93.207,53.402,91.565z"/>
	<path fill="#FFFFFF" d="M129.544,74.341c0.519-0.308,0.774-0.502,1.062-0.619c3.288-1.41,6.593-2.802,9.857-4.232
		c1.452-0.638,2.805-0.541,4.234,0.136c7.036,3.305,13.688,7.268,20.045,11.732c0.871,0.619,1.315,1.374,1.511,2.397
		c1.33,7.249,1.486,14.537,0.831,21.845c-0.061,0.579-0.233,1.158-0.486,1.682c-2.975,6.146-6.3,12.079-10.399,17.59
		c-0.288,0.384-0.599,0.755-1.158,1.081c0.038-0.794,0.173-1.587,0.114-2.379c-0.172-2.163,0.641-3.73,2.495-4.85
		c0.579-0.37,1.043-1.046,1.372-1.682c1.526-2.862,2.996-5.743,4.483-8.603c1.161-2.242,1.605-4.599,1.219-7.113
		c-0.621-4.079-1.161-8.158-1.759-12.236c-0.058-0.387-0.191-0.754-0.269-1.142c-0.215-1.159-0.893-1.931-1.954-2.395
		c-1.993-0.851-3.982-1.644-5.932-2.571c-1.047-0.503-2.093-1.083-3.021-1.797c-2.993-2.32-5.932-4.679-8.852-7.076
		c-1.234-1.004-2.552-1.333-4.119-0.87c-1.312,0.406-2.706,0.542-3.979,1.006C133.158,74.845,131.515,74.554,129.544,74.341z"/>
	<path fill="#FFFFFF" d="M111.162,179.304c-0.195-0.272-0.41-0.544-0.563-0.832c-4.541-8.078-8.833-16.294-12.525-24.816
		c-0.87-1.993-1.023-3.889-0.464-5.975c2.01-7.656,4.543-15.117,7.229-22.541c0.87-2.397,1.797-4.774,2.709-7.15
		c0.154-0.406,0.346-0.793,0.656-1.199c0.387,1.683,1.083,3.304,0.713,5.082c-1.563,7.829-3.188,15.658-4.695,23.506
		c-0.563,2.939-0.871,5.916-1.161,8.891c-0.096,1.046,0.098,2.188,0.463,3.173c1.625,4.465,3.365,8.892,5.085,13.336
		c0.541,1.413,1.119,2.843,1.778,4.196C111.066,176.326,111.258,177.775,111.162,179.304z"/>
	<path fill="#FFFFFF" d="M71.264,76.681c0.463-0.232,0.927-0.521,1.411-0.677c1.412-0.444,2.456-1.314,3.324-2.514
		c0.832-1.159,1.721-2.261,2.688-3.305c0.619-0.658,1.333-1.353,2.125-1.721c3.286-1.506,6.612-2.957,9.975-4.29
		c1.991-0.793,4.098-0.502,6.224-0.426c-0.058,0.309-0.039,0.483-0.115,0.581c-1.546,2.667-3.054,5.373-4.658,7.982
		c-0.329,0.521-0.987,0.965-1.605,1.159c-2.976,0.987-5.972,1.895-8.969,2.803c-2.338,0.715-4.754,0.523-7.132,0.715
		c-1.044,0.078-2.108,0.019-3.171,0.019C71.321,76.913,71.302,76.798,71.264,76.681z"/>
	<path fill="#FFFFFF" d="M71.515,99.471c0.6,0.02,1.219-0.039,1.778,0.098c3.093,0.734,6.185,1.546,9.279,2.28
		c1.506,0.368,2.106,1.525,2.589,2.766c0.136,0.346-0.019,0.89-0.213,1.253c-2.144,3.848-4.329,7.695-6.513,11.521
		c-0.406,0.735-1.102,1.084-1.857,1.336c-2.976,1.005-5.934,2.028-8.911,3.032c-1.353,0.467-1.41,0.563-1.198,1.874
		c0.251,1.452,0.502,2.904,0.774,4.35c0.192,1.008,0.385,1.142,1.411,0.969c1.159-0.214,2.299-0.521,3.44-0.755
		c0.309-0.058,0.639-0.076,1.083,0.118c-0.638,0.499-1.18,1.197-1.895,1.487c-1.353,0.541-2.803,0.89-4.232,1.219
		c-0.929,0.211-1.219-0.02-1.47-0.985c-0.349-1.375-0.619-2.785-0.986-4.157c-0.464-1.644-0.85-3.346-1.546-4.893
		c-0.753-1.68-0.541-3.323-0.386-5.197c0.386,0.271,0.677,0.425,0.908,0.637c0.715,0.601,1.43,1.198,2.106,1.836
		c0.561,0.505,1.142,0.64,1.875,0.39c2.126-0.735,4.291-1.375,6.417-2.149c0.6-0.229,1.199-0.693,1.605-1.195
		c2.185-2.668,4.078-5.53,5.702-8.565c0.889-1.682,0.309-3.188-1.508-3.863c-2.339-0.871-4.698-1.703-7.057-2.554
		c-0.445-0.155-0.87-0.349-1.293-0.522C71.476,99.664,71.495,99.568,71.515,99.471z"/>
	<path fill="#FFFFFF" d="M120.321,93.441c-1.063-0.619-1.545-1.295-1.816-2.185c-0.89-2.958-1.798-5.896-2.725-8.834
		c-0.25-0.792-0.116-1.392,0.386-2.029c1.161-1.47,2.281-2.958,3.362-4.465c0.93-1.276,0.274-3.403-1.178-4.021
		c-0.869-0.366-1.721-0.464-2.687-0.077c-2.494,1.025-5.046,1.914-7.521,2.957c-1.177,0.504-2.315,0.676-3.556,0.368
		c-0.851-0.213-1.719-0.33-2.57-0.483c0.251-1.914,1.18-3.016,2.902-3.364c4.017-0.811,8.078-1.565,12.099-2.416
		c1.506-0.328,2.667,0.348,3.866,0.986c0.192,0.096,0.326,0.347,0.444,0.56c0.096,0.174,0.115,0.368,0.153,0.561
		c1.085,5.025,1.104,3.886-1.295,7.77c-0.406,0.678-0.792,1.374-1.314,1.952c-0.828,0.929-0.771,1.933-0.541,3.035
		c0.621,2.879,1.216,5.742,1.817,8.622C120.206,92.667,120.244,92.956,120.321,93.441z"/>
	<path fill="#FFFFFF" d="M73.699,39.49c0,0.733,0,1.257,0,1.972c-5.084,0.387-10.129,0.774-15.291,1.159c0-4.039,0-7.983,0-12.158
		c5.045-0.387,10.109-0.774,15.252-1.159c0.039,0.464,0.096,0.734,0.096,1.023c0,0.291-0.039,0.58-0.077,0.987
		c-4.35,0.327-8.68,0.657-13.106,0.985c0,1.005,0,1.895,0,2.9c3.905-0.291,7.731-0.562,11.656-0.832c0,0.753,0,1.314,0,1.972
		c-3.905,0.308-7.75,0.598-11.675,0.908c0,1.063,0,2.029,0,3.169C64.885,40.109,69.194,39.799,73.699,39.49z"/>
	<path fill="#FFFFFF" d="M114.66,38.465c0-1.102,0-2.068,0-3.188c-2.05,0-4.023,0-6.127,0c0-0.715,0-1.276,0-1.953
		c2.687,0,5.412,0,8.329,0c0.118,2.34,0.076,4.659,0.019,7.075c-0.518,0.038-0.946,0.097-1.369,0.097
		c-3.575,0-7.153-0.019-10.749-0.059c-0.636,0-1.276-0.057-1.895-0.173c-1.353-0.231-2.165-0.986-2.222-2.339
		c-0.096-2.301-0.096-4.62,0-6.921c0.077-1.487,0.908-2.261,2.397-2.57c0.521-0.116,1.064-0.193,1.602-0.193
		c3.537,0,7.058,0.019,10.595,0.019c0.233,0,0.464,0.039,0.79,0.077c0,0.619,0,1.18,0,1.914c-0.557,0-1.081,0-1.603,0
		c-3.227,0-6.476-0.019-9.703-0.019c-1.799,0-2.031,0.27-2.031,2.067c0,1.527-0.019,3.035,0,4.562
		c0.021,1.102,0.426,1.546,1.51,1.546C107.625,38.484,111.047,38.465,114.66,38.465z"/>
	<path fill="#FFFFFF" d="M124.248,30.502c0,1.083,0,1.933,0,2.899c3.921,0.155,7.769,0.311,11.731,0.483c0,0.657,0,1.199,0,1.914
		c-1.913,0.174-3.845-0.174-5.779-0.174c-1.954-0.019-3.905,0-5.933,0c0,0.968,0,1.914,0,3.016c4.389,0.175,8.737,0.368,13.24,0.542
		c0.038,0.639,0.058,1.198,0.097,1.991c-5.162-0.193-10.228-0.387-15.505-0.6c-0.02-4.001,0-7.944,0-12.081
		c5.199,0.019,10.266,0.309,15.408,0.56c0,0.676,0,1.237,0,1.933C133.082,30.811,128.752,30.657,124.248,30.502z"/>
	<path fill="#FFFFFF" d="M159.466,36.668c0,1.083,0.039,2.165-0.02,3.229c-0.076,1.527-0.869,2.358-2.379,2.435
		c-1.157,0.058-2.356-0.019-3.518-0.096c-2.144-0.136-4.292-0.31-6.436-0.485c-0.678-0.057-1.374-0.134-2.029-0.289
		c-1.487-0.349-2.243-1.121-2.319-2.648c-0.096-2.242-0.096-4.505-0.02-6.766c0.058-1.546,0.87-2.261,2.415-2.416
		c0.54-0.058,1.084-0.077,1.605-0.039c2.977,0.213,5.951,0.426,8.932,0.677c0.48,0.038,0.966,0.155,1.427,0.289
		c1.548,0.483,2.245,1.412,2.321,3.016c0,0.096,0,0.193,0,0.29C159.485,34.813,159.485,35.74,159.466,36.668
		C159.485,36.668,159.466,36.668,159.466,36.668z M157.378,36.493c0-0.889,0.02-1.759,0-2.648c-0.038-1.063-0.349-1.448-1.372-1.527
		c-3.269-0.289-6.534-0.541-9.799-0.772c-0.908-0.059-1.338,0.271-1.356,1.159c-0.058,1.914-0.058,3.809,0,5.722
		c0.019,0.832,0.467,1.199,1.337,1.276c3.266,0.27,6.53,0.502,9.799,0.734c0.985,0.059,1.314-0.289,1.354-1.274
		C157.416,38.252,157.378,37.363,157.378,36.493z"/>
	<path fill="#FFFFFF" d="M39.62,40.881c0,1.335,0,2.495,0,3.73c-0.734,0.098-1.353,0.155-2.049,0.253c0-4.08,0-8.022,0-12.102
		c1.701-0.212,3.382-0.463,5.064-0.657c2.378-0.27,4.775-0.521,7.153-0.753c0.521-0.058,1.083-0.019,1.604,0.058
		c1.14,0.174,1.933,0.851,2.048,1.991c0.117,1.257,0.136,2.533-0.019,3.79c-0.153,1.236-1.062,1.99-2.242,2.261
		c-1.197,0.27-2.416,0.387-3.614,0.541C44.994,40.283,42.404,40.573,39.62,40.881z M39.717,38.852
		c1.102-0.115,2.01-0.232,2.938-0.328c2.474-0.272,4.949-0.542,7.423-0.851c1.083-0.136,1.314-0.445,1.353-1.527
		c0.019-0.483,0.019-0.987,0-1.47c-0.039-1.217-0.347-1.489-1.508-1.372c-1.797,0.175-3.595,0.367-5.393,0.579
		c-1.586,0.193-3.171,0.406-4.813,0.619C39.717,35.972,39.717,37.306,39.717,38.852z"/>
	<path fill="#FFFFFF" d="M81.083,28.994c0,1.817,0,3.384,0,4.95c0,1.216-0.019,2.454,0,3.671c0.019,1.142,0.289,1.45,1.372,1.431
		c3.093-0.096,6.186-0.212,9.259-0.367c1.219-0.058,1.45-0.348,1.47-1.546c0.019-2.357,0-4.716,0.019-7.075
		c0-0.483,0.039-0.947,0.077-1.507c0.717,0,1.314,0,2.031,0c0.02,0.425,0.077,0.812,0.077,1.199c0,2.397,0.019,4.813,0,7.21
		c-0.019,2.57-0.832,3.499-3.363,3.652c-3.132,0.174-6.263,0.251-9.413,0.387c-0.098,0-0.194,0-0.292,0
		c-2.512-0.096-3.363-0.908-3.401-3.403c-0.039-2.261,0-4.522,0-6.764c0-0.523,0-1.063,0-1.701
		C79.671,29.072,80.29,29.032,81.083,28.994z"/>
	<path fill="#FFFFFF" d="M179.474,32.705c0,0.755,0,1.295,0,1.991c-2.265-0.232-4.484-0.483-6.883-0.734c0,3.42,0,6.687,0,10.109
		c-0.812-0.117-1.432-0.194-2.203-0.29c0-3.346,0-6.67,0-10.071c-2.415-0.272-4.679-0.523-6.997-0.793c0-0.677,0-1.238,0-1.991
		C168.763,31.507,174.06,32.105,179.474,32.705z"/>
	<path fill="#FFFFFF" d="M78.3,108.904c-1.334,1.858-2.667,3.732-4.02,5.586c-0.175,0.23-0.426,0.445-0.677,0.541
		c-1.72,0.637-3.479,1.238-5.2,1.839c-0.039-0.099-0.098-0.177-0.136-0.275c3.228-2.667,6.476-5.335,9.703-8.001
		C78.068,108.689,78.183,108.808,78.3,108.904z"/>
	<path fill="#FFFFFF" d="M59.317,104.807c-0.251,1.817-0.464,3.365-0.696,4.909c-0.039,0.272-0.136,0.54-0.271,1.026
		c-1.006-1.164-1.895-2.168-2.899-3.326C56.225,105.907,57.52,105.251,59.317,104.807z"/>
	<path fill="#FFFFFF" d="M72.153,78.672c0.985-0.058,1.759-0.096,2.493-0.136c0.774,2.05,0.31,2.552-2.61,2.881
		C72.076,80.547,72.095,79.697,72.153,78.672z"/>
	<path fill="#0000FF" d="M157.378,36.493c0,0.89,0.02,1.759,0,2.65c-0.038,0.985-0.387,1.333-1.354,1.274
		c-3.269-0.213-6.533-0.464-9.798-0.734c-0.87-0.077-1.318-0.444-1.338-1.276c-0.058-1.915-0.058-3.808,0-5.722
		c0.02-0.87,0.448-1.218,1.356-1.159c3.266,0.231,6.53,0.482,9.799,0.772c1.023,0.098,1.334,0.463,1.372,1.527
		C157.397,34.715,157.378,35.604,157.378,36.493z"/>
	<path fill="#0000FF" d="M39.717,38.852c0-1.546,0-2.88,0-4.35c1.642-0.212,3.227-0.425,4.813-0.619
		c1.798-0.212,3.595-0.404,5.393-0.579c1.161-0.117,1.469,0.175,1.508,1.372c0.019,0.483,0.019,0.987,0,1.47
		c-0.039,1.083-0.271,1.391-1.353,1.527c-2.474,0.309-4.949,0.56-7.423,0.851C41.728,38.62,40.819,38.737,39.717,38.852z"/>

</g>
</svg>
