<?xml version="1.0" encoding="utf-8"?>
<!DOCTYPE svg PUBLIC "-//W3C//DTD SVG 1.1//EN" "http://www.w3.org/Graphics/SVG/1.1/DTD/svg11.dtd">
<svg version="1.1" id="Layer_1" xmlns="http://www.w3.org/2000/svg" xmlns:xlink="http://www.w3.org/1999/xlink" x="0px" y="0px" width="216px" height="216px" viewBox="0 0 216 216" enable-background="new 0 0 216 216" xml:space="preserve">
<g>
	<path fill="#231F20" d="M116.596,178.433c14.388-1.564,28.229-6.969,39.755-15.512c3.958-2.929,10.975-9.708,14.241-13.734
		c8.261-10.208,13.973-22.295,16.764-35.411c1.028-4.831,1.091-5.746,1.098-15.222c0-8.792-0.097-10.674-0.863-14.639
		c-4.579-23.88-18.911-43.909-40.113-56.047c-7.439-4.255-17.025-7.636-26.253-9.258c-6.147-1.078-18.254-1.292-24.125-0.429
		C77.083,21.144,59.443,30.675,46.77,45.348C28.667,66.31,22.603,94.029,30.256,120.699c6.229,21.674,22.184,40.47,42.71,50.288
		c7.452,3.561,17.716,6.503,25.907,7.425C103.231,178.898,112.189,178.916,116.596,178.433 M96.104,168.376
		c-24.504-4.133-45.784-21.137-54.604-43.629c-3.398-8.661-4.703-14.97-5.007-24.17c-0.255-7.539,0.263-12.901,1.865-19.231
		c6.935-27.534,28.2-47.905,55.509-53.175c6.078-1.181,6.506-1.136,7.252,0.629c1.651,3.968,3.17,12.187,4.676,25.441
		c0.643,1.205-0.151,10.374,2.479,9.255c0.519-0.318,0.773-1.254,0.988-3.554c1.608-16.535,4.191-30.244,6.057-32.174
		c0.49-0.508,1.084-0.491,4.606,0.075c14.587,2.356,27.883,9.251,38.685,20.078c5.671,5.674,9.234,10.491,12.632,17.039
		c6.141,11.858,8.695,22.919,8.213,35.663c-0.235,6.471-0.844,10.436-2.473,16.423c-6.858,25.144-27.655,44.862-53.216,50.457
		c-2.479,0.55-5.367,1.108-6.41,1.25l-1.878,0.252l-0.649-1.502c-1.886-4.503-4.275-17.774-5.277-29.205
		c-0.248-2.824-0.524-5.449-0.642-5.836c-0.201-0.693-1.52-0.953-1.879-0.359c-0.104,0.19-0.67,4.368-1.215,9.311
		c-1.665,14.797-3.965,26.272-5.416,27.195C99.765,169.005,99.889,169.012,96.104,168.376"/>
	<path fill="#231F20" d="M109.062,98.864l0.117-20.44l1.464-0.121c1.354-0.114,1.506-0.242,1.609-1.388l0.117-1.253l-4.13-0.125
		c-5.394-0.163-5.477-0.145-5.332,1.385c0.111,1.099,0.291,1.278,1.506,1.458l1.388,0.193l0.104,9.231
		c0.055,5.069-0.049,9.127-0.221,9.013c-0.18-0.108-2.258-4.932-4.613-10.709l-4.29-10.519l-5.18,0.104L86.414,75.8v1.195
		c0,1.081,0.125,1.195,1.499,1.309l1.471,0.121l-0.083,18.662l-0.117,18.671h-1.775H85.64l-4.116-18.986
		c-4.959-22.995-4.669-21.821-5.422-22.115c-1.643-0.629-1.858,0.048-5.442,16.438c-3.613,16.535-4.627,19.816-6.907,22.222
		c-1.609,1.702-3.737,2.639-5.996,2.639h-2.009l0.11-18.693l0.097-18.689l1.381-0.193c1.243-0.179,1.389-0.335,1.389-1.385V75.8
		h-6.126h-6.133l-0.145,1.15c-0.125,1.306,0.421,1.806,2.017,1.816l1.098,0.004v18.596v18.589h-0.953
		c-1.637,0-2.217,0.418-2.217,1.599c0,0.622,0.139,1.202,0.304,1.299c0.152,0.11,5.083,0.069,10.961-0.072l10.643-0.249l1.209-5.946
		l1.215-5.926l3.253-0.114c3.108-0.114,3.268-0.08,3.44,0.791c0.711,3.301,1.409,7.232,1.409,7.846c0,0.528-0.345,0.756-1.278,0.846
		c-1.126,0.11-1.292,0.263-1.292,1.313v1.191l9.51,0.101c8.219,0.093,9.545,0.021,9.932-0.515c0.816-1.108,0.194-2.113-1.388-2.238
		l-1.429-0.121l-0.11-14.618c-0.055-8.036,0.034-14.749,0.213-14.918c0.166-0.176,3.046,6.485,6.389,14.812
		c8.253,20.499,7.335,18.555,8.626,18.409l1.091-0.131L109.062,98.864z M70.791,103.001c-0.021-0.953,2.949-14.338,3.177-14.338
		c0.312,0,3.081,13.889,2.859,14.338c-0.083,0.159-1.478,0.293-3.087,0.293C72.117,103.295,70.791,103.161,70.791,103.001
		 M127.48,119.094c3.398-0.949,5.988-4.586,7.231-10.163c0.767-3.398,0.595-4.051-1.001-4.051c-1.423,0-1.443,0.028-2.403,3.799
		c-1.063,4.123-2.369,6.299-4.179,6.883c-2.604,0.87-4.938-0.297-6.229-3.108c-0.774-1.691-0.856-2.635-0.975-12.121
		c-0.207-14.566,0.656-19.909,3.468-21.356c3.674-1.902,6.789,0.75,7.888,6.724c0.489,2.604,0.8,3.098,1.878,2.897
		c0.656-0.128,0.746-0.718,0.953-6.268c0.131-3.374,0.146-6.347,0.056-6.624c-0.312-0.88-2.045-0.573-2.507,0.46l-0.442,0.932
		l-1.899-1.178c-1.748-1.087-2.169-1.188-4.504-1.036c-2.058,0.135-2.907,0.408-4.24,1.333c-4.627,3.27-7.854,11.782-7.854,20.713
		c0,10.322,4.083,19.573,9.69,22.035C123.869,119.599,125.492,119.646,127.48,119.094 M172.035,118.545
		c0.885-1.074,0.325-1.981-1.354-2.2l-1.547-0.189l-4.468-20.568c-2.452-11.32-4.47-20.617-4.47-20.675
		c0-0.055-0.531-0.097-1.181-0.097c-1.382,0-1.119-0.804-3.743,11.472c-1.008,4.673-2.859,13.22-4.082,18.987l-2.271,10.484
		l-1.894,0.121l-1.878,0.117l0.11-18.706l0.09-18.717l1.388-0.193c1.229-0.179,1.382-0.335,1.382-1.385V75.8h-6.119h-6.133v1.195
		c0,1.05,0.138,1.206,1.388,1.385l1.361,0.193v18.596v18.589l-1.361,0.197c-1.236,0.173-1.408,0.349-1.506,1.488l-0.138,1.295
		l9.441-0.106l9.406-0.101l0.125-1.095c0.096-0.946-0.056-1.126-1.099-1.34c-0.67-0.131-1.194-0.353-1.188-0.483
		c0-0.138,0.429-2.207,0.905-4.607l0.891-4.347l3.239-0.114c3.088-0.114,3.24-0.08,3.434,0.791c0.704,3.339,1.396,7.238,1.396,7.871
		c0,0.531-0.27,0.749-0.961,0.749c-0.573,0-1.167,0.328-1.382,0.767c-0.538,0.988-0.524,1.039,0.2,1.774
		C160.896,119.377,171.317,119.415,172.035,118.545 M154.348,102.404c0.11-0.49,0.773-3.778,1.492-7.32
		c0.719-3.533,1.416-6.42,1.588-6.42c0.166,0,0.863,3.06,1.575,6.82c0.726,3.754,1.374,7.042,1.479,7.322
		c0.138,0.366-0.629,0.49-3.061,0.49C154.251,103.295,154.168,103.268,154.348,102.404"/>
	<path fill="#231F20" d="M106.277-0.633c35.238,0.276,70.89,13.478,106.916,38.501l1.774,1.226l0.18,2.168
		c3.426,42.148-3.453,77.962-20.982,107.229c-17.536,29.298-45.626,51.853-84.621,67.461l-1.691,0.684l-1.692-0.684
		C63.905,199.07,36.278,174.9,19.792,145.201C3.354,115.54-1.888,80.555,0.578,41.895l0.131-2.044l1.609-1.26
		C36.292,11.795,70.963-0.909,106.277-0.633 M206.189,44.15C172.277,20.971,138.945,8.736,106.25,8.494
		C73.595,8.235,41.362,19.914,9.571,44.526c-2.052,36.174,2.962,68.78,18.206,96.235c15.264,27.509,40.887,50.035,80.062,66.027
		c36.205-14.801,62.256-35.856,78.501-62.976C202.543,116.739,209.063,83.452,206.189,44.15"/>
</g>
</svg>
