<?xml version="1.0" encoding="utf-8"?>
<!DOCTYPE svg PUBLIC "-//W3C//DTD SVG 1.1//EN" "http://www.w3.org/Graphics/SVG/1.1/DTD/svg11.dtd">
<svg version="1.1" id="Layer_1" xmlns="http://www.w3.org/2000/svg" xmlns:xlink="http://www.w3.org/1999/xlink" x="0px" y="0px" width="216px" height="216px" viewBox="0 0 216 216" enable-background="new 0 0 216 216" xml:space="preserve">
<g>
	<path fill="#FFFFFF" fill-opacity="0" d="M0.122,0.122h216v216h-216V0.122z"/>
	<path d="M177.855,136.497c-0.154,0.153-0.311,0.314-0.479,0.492c-0.4,0.423-0.902,0.691-1.412,0.896
		c-0.694,0.278-1.39,0.479-2.18,0.714c-1.401,0.415-2.809,0.458-4.214,0.347c-0.817-0.066-1.635-0.284-2.457-0.824
		c-0.347-0.227-0.696-0.49-1.053-0.69c-0.308-0.171-0.595-0.23-0.831-0.167c-0.236,0.065-0.407,0.232-0.491,0.497
		c-0.094,0.3-0.124,0.623-0.155,0.942c-0.039,0.406,0.021,0.756,0.069,1.113c0.197,1.398,0.481,2.817,0.912,4.005
		c0.735,2.024,1.469,4.038,2.232,5.422c0.25,0.454,0.547,0.864,0.858,1.291c0.457,0.631,0.862,1.262,1.449,1.754
		c0.549,0.463,1.184,0.846,1.917,1.155c1.373,0.581,2.583,0.877,3.86,1.006c1.924,0.194,3.832,0.325,5.736-0.105
		c1.746-0.388,3.449-0.949,5.084-1.676c0.854-0.376,1.764-1.024,2.694-1.815c1.265-1.078,2.629-2.398,3.584-3.843
		c0.443-0.669,0.846-1.248,1.206-1.748c0.26-0.361,0.521-0.807,0.868-1.331c0.948-1.422,1.573-2.983,2.093-4.495
		c0.952-2.772,1.497-5.508,1.759-8.262c0.141-1.482-0.016-2.1-0.536-3.481c-0.331-0.878-0.688-1.751-0.861-2.649
		c-0.419-2.189-0.444-4.436-0.076-6.634c0.122-0.646,0.591-2.232,0.806-2.854c0.072-0.204,0.156-0.369,0.28-0.462
		c0.129-0.094,0.319-0.062,0.523,0.156c0.211,0.222,0.331,0.538,0.457,0.919c0.138,0.414,0.322,0.813,0.506,1.193
		c0.199,0.409,0.462,0.678,0.785,0.846c0.27,0.138,0.567,0.127,0.85-0.05c0.267-0.17,0.51-0.449,0.675-0.795
		c0.162-0.341,0.293-0.709,0.342-1.073l0.748-4.798c1.432-9.619,1.427-19.227-0.323-28.835c-0.056-3.038-2.081-4.631-2.712,0.102
		c-1.153,8.678-3.364,17.303-6.12,24.78C191.48,115.068,183.212,131.208,177.855,136.497L177.855,136.497z M88.572,180.041
		c-0.374,0.436-0.576,0.991-0.569,1.564c0,0.6,0.116,1.203,0.312,1.8c0.302,0.919,0.68,1.831,1.174,2.759
		c0.405,0.758,0.934,1.441,1.564,2.024c0.808,0.738,1.694,1.389,2.641,1.938c1.776,1.044,3.715,1.782,5.735,2.185
		c4.913,0.995,9.829,1.131,14.749,0.362c2.608-0.408,5.227-1.047,7.842-2.178c1.351-0.584,2.523-1.429,3.525-2.226
		c0.678-0.54,1.266-1.113,1.601-1.673c0.418-0.699,0.813-1.56,1.254-2.569c0.288-0.646,0.474-1.335,0.549-2.038
		c0.039-0.396-0.016-0.795-0.071-1.2c-0.056-0.362-0.23-0.696-0.497-0.948c-0.259-0.253-0.607-0.393-0.969-0.389
		c-0.388-0.007-0.783,0.007-1.171,0.136c-6.321,2.1-12.646,3.259-18.964,3.108c-5.62-0.134-11.236-1.217-16.854-3.059
		c-0.339-0.111-0.705-0.094-1.053-0.023C89.07,179.68,88.793,179.828,88.572,180.041L88.572,180.041z M66.112,115.655
		c-0.115,0.144-0.342,0.112-0.663-0.119c-0.29-0.221-0.538-0.489-0.735-0.795c-0.247-0.365-0.475-0.771-0.741-1.103
		c-0.216-0.269-0.449-0.42-0.702-0.45c-0.288-0.036-0.521,0.083-0.68,0.358c-0.156,0.269-0.216,0.623-0.146,0.994
		c0.069,0.363,0.208,0.724,0.351,1.08c0.295,0.738,0.677,1.362,1.086,2.017c3.055,4.888,6.402,8.465,9.899,11.715
		c0.975,0.907,1.886,1.982,2.529,3.092c0.476,0.821,0.804,1.678,1.124,2.616c0.176,0.516,0.221,1.047,0.167,1.561
		s-0.262,0.99-0.48,1.263c-0.197,0.248-0.426,0.489-0.708,0.583c-0.352,0.108-0.718,0.168-1.087,0.176
		c-0.446,0.02-0.917-0.177-1.388-0.418c-0.602-0.311-1.159-0.699-1.66-1.154c-1.067-0.955-2.017-2.033-2.831-3.212
		c-1.47-2.153-2.547-4.318-3.458-6.479c-0.183-0.46-0.406-0.901-0.668-1.32c-0.241-0.371-0.514-0.591-0.742-0.664
		c-0.211-0.065-0.418,0.014-0.546,0.257c-0.139,0.266-0.165,0.631-0.117,1.006c0.041,0.321,0.042,0.643,0.105,0.958
		c0.542,2.687,1.299,5.366,2.426,8.039c0.949,2.25,1.845,4.236,3.229,6.354c0.629,0.963,1.425,1.633,2.173,2.303
		c3.063,2.751,5.453,5.922,7.743,9.258c2.386,3.476,4.459,7.078,5.847,10.764c0.987,2.62,1.618,5.181,1.824,7.558
		c0.063,0.718,0.006,1.437,0.171,2.16c0.125,0.538,0.365,0.994,0.735,1.457c0.325,0.405,0.725,0.714,1.198,0.938
		c0.451,0.21,0.921,0.374,1.404,0.491c3.44,0.866,6.87,1.379,10.299,1.318c0.468,0,0.932-0.091,1.366-0.267
		c0.388-0.163,0.69-0.382,0.897-0.719c0.214-0.351,0.385-0.746,0.519-1.172c0.28-0.887,0.527-1.77,0.73-2.638
		c0.67-2.842,1.05-5.679,0.914-8.517c-0.008-0.363-0.061-0.724-0.156-1.074c-0.104-0.349-0.297-0.569-0.545-0.69
		c-0.199-0.098-0.428-0.056-0.68,0.153c-0.27,0.225-0.465,0.544-0.603,0.891c-0.162,0.408-0.321,0.801-0.419,1.199
		c-0.385,1.571-0.761,2.848-1.389,4.009c-0.212,0.392-0.482,0.774-0.837,1.193c-0.364,0.431-0.81,0.729-1.315,0.93
		c-0.484,0.189-1.015,0.229-1.522,0.114c-0.551-0.115-1.106-0.377-1.638-0.788c-0.576-0.458-1.072-1.006-1.47-1.624
		c-0.448-0.677-0.772-1.356-0.953-2.038c-0.313-1.196-0.479-2.402-0.41-3.6c0.298-5.213,2.048-10.415,3.865-15.539
		c0.26-0.736,0.452-1.434,0.408-2.211c-0.042-0.764-0.199-1.517-0.467-2.233c-1.027-2.822-2.489-5.642-4.21-8.325
		c-0.291-0.456-0.613-0.892-0.964-1.303c-0.32-0.372-0.669-0.61-1.047-0.669c-0.397-0.063-0.782,0.042-1.171,0.216
		c-0.396,0.177-0.784,0.287-1.169,0.251c-0.516-0.049-1.02-0.289-1.522-0.611c-0.964-0.617-1.901-1.275-2.808-1.973
		c-1.146-0.884-2.306-1.852-3.342-2.995c-0.765-0.844-1.283-1.645-1.738-2.349c-0.17-0.264-0.374-0.509-0.501-0.771
		c-0.141-0.291-0.131-0.526-0.034-0.604c0.076-0.063,0.28-0.072,0.597,0.011c0.288,0.076,0.544,0.28,0.847,0.396
		c2.269,0.865,4.362,1.448,6.748,2.22c0.761,0.247,1.496,0.658,2.174,1.212c0.693,0.566,1.264,1.235,1.783,1.862
		c0.327,0.396,0.604,0.779,0.964,1.047c0.313,0.23,0.64,0.35,0.891,0.314c0.26-0.036,0.479-0.219,0.607-0.508
		c0.132-0.296,0.147-0.65,0.079-1.023c-0.06-0.367-0.152-0.729-0.273-1.08c-0.685-1.882-1.464-3.756-2.456-5.639
		c-0.687-1.318-1.561-2.53-2.595-3.599c-1.548-1.595-3.232-3.052-5.031-4.356c-1.27-0.93-2.419-2.014-3.42-3.229
		c-0.833-1.018-1.419-2.066-1.761-3.074c-0.158-0.464-0.298-0.932-0.306-1.463c-0.006-0.385,0.037-0.758,0.189-1.033
		c0.17-0.307,0.459-0.483,0.775-0.64c0.291-0.144,0.687-0.165,1.087-0.165c0.453,0,0.927,0.125,1.448,0.332
		c0.82,0.325,1.559,0.785,2.174,1.292c0.614,0.508,1.173,1.121,1.615,1.897c0.241,0.423,0.473,0.801,0.735,1.08
		c0.248,0.262,0.529,0.429,0.819,0.429c0.306,0,0.54-0.163,0.725-0.429c0.171-0.248,0.211-0.579,0.196-0.958
		c-0.017-0.364-0.069-0.727-0.157-1.081c-0.386-1.56-0.83-3.115-1.529-4.678c-1.439-3.217-3.353-6.492-5.832-9.496
		c-3.649-4.42-8.041-8.375-12.313-12.202c-2.2-1.97-4.127-4.271-5.822-6.744c-0.775-1.133-1.357-2.249-1.686-3.359
		c-0.19-0.623-0.289-1.269-0.295-1.919c-0.001-0.444,0.134-0.885,0.396-1.313c0.222-0.363,0.511-0.687,0.875-0.93
		c0.337-0.236,0.743-0.353,1.154-0.331c0.397,0.025,0.792,0.08,1.17,0.229c0.757,0.296,1.499,0.598,2.224,1.047
		c0.364,0.226,0.703,0.371,1.053,0.418c0.351,0.047,0.636-0.026,0.819-0.257c0.15-0.19,0.222-0.465,0.19-0.776
		c-0.033-0.325-0.188-0.64-0.379-0.959c-0.229-0.375-0.48-0.735-0.752-1.08c-1.525-1.997-3.224-3.973-4.796-5.703
		c-2.577-2.834-5.678-5.594-8.77-7.728c-2.28-1.573-4.521-2.783-6.787-3.477c-2.065-0.631-4.133-0.759-6.204-0.74
		c-2.572,0.023-5.116,0.681-7.419,1.344c-1.07,0.307-2.4,0.725-3.708,1.375c-1.82,0.908-3.544,1.996-5.147,3.247
		c-2.645,2.054-4.823,4.402-6.981,6.845c-2.531,2.863-4.743,5.79-6.376,8.764c-0.242,0.424-0.452,0.864-0.63,1.319
		c-0.121,0.303-0.153,0.633-0.094,0.954c0.07,0.345,0.263,0.606,0.552,0.732c0.3,0.131,0.647,0.156,0.98,0.051
		c0.324-0.102,0.629-0.268,0.954-0.456c1.024-0.598,2.198-1.265,3.395-1.751c0.781-0.323,1.614-0.5,2.459-0.524
		c0.642-0.013,1.278,0.126,1.855,0.407c0.52,0.248,1.02,0.578,1.421,1.012c0.435,0.469,0.826,1.034,1.097,1.623
		c0.313,0.681,0.513,1.361,0.562,2.04c0.034,0.48,0.048,0.961-0.024,1.44c-0.061,0.399-0.202,0.756-0.457,1.068
		c-0.239,0.3-0.574,0.51-0.948,0.594c-0.398,0.086-0.791-0.002-1.153-0.24c-0.342-0.224-0.627-0.538-0.875-0.944
		c-0.233-0.38-0.431-0.782-0.59-1.2c-0.15-0.4-0.371-0.77-0.652-1.092c-0.246-0.279-0.52-0.394-0.748-0.359
		c-0.262,0.04-0.489,0.225-0.63,0.525c-0.146,0.312-0.196,0.679-0.189,1.045c0.007,0.407,0.026,0.802,0.061,1.199
		c0.024,0.282,0.055,0.563,0.091,0.844c0.545,4.236,2.351,9.959,4.637,13.245c4.19,6.022,8.661,11.477,12.537,16.21
		c1.359,1.66,2.022,3.542,2.801,5.279c0.519,1.159,0.742,2.325,0.946,3.251c0.093,0.423,0.137,0.858,0.178,1.28
		c0.03,0.309,0.021,0.598-0.146,0.765c-0.11,0.116-0.274,0.164-0.429,0.125c-0.299-0.09-0.569-0.255-0.786-0.479
		c-0.26-0.27-0.533-0.562-0.813-0.886c-0.857-0.992-1.463-1.946-1.978-2.846c-0.512-0.887-1.003-1.783-1.476-2.691
		c-0.17-0.331-0.226-0.652-0.323-0.846c-0.116-0.226-0.32-0.363-0.502-0.33c-0.188,0.031-0.376,0.21-0.602,0.473
		c-0.191,0.224-0.296,0.541-0.307,0.919c-0.012,0.406,0.064,0.799,0.128,1.199c0.345,2.17,0.908,4.362,1.781,6.416
		c0.39,0.918,0.917,1.861,1.505,2.799c2.438,3.882,3.019,5.172,6.174,8.521c0.338,0.359,0.676,0.715,1.004,1.058
		c0.729,0.763,1.574,1.359,2.452,1.836c0.7,0.38,1.404,0.573,2.106,0.578c0.521,0.002,1.028-0.103,1.483-0.308
		c0.476-0.216,0.891-0.545,1.21-0.959c0.343-0.44,0.634-0.924,0.899-1.456c0.537-1.062,0.93-2.191,1.167-3.358
		c0.509-2.613,0.992-5.088,0.75-7.436c-0.679-6.623-2.051-13.213-3.412-19.097c-0.518-2.239-1.114-5.043-1.412-7.803
		c-0.16-1.482-0.033-3.001,0.303-4.529c0.203-0.921,0.534-1.809,0.983-2.638c0.268-0.499,0.638-0.922,0.976-1.312
		c0.331-0.381,0.728-0.563,1.059-0.669c0.366-0.117,0.691-0.156,1.031,0.051c0.373,0.229,0.746,0.511,1.07,0.921
		c0.42,0.529,0.714,1.083,0.891,1.628c0.252,0.778,0.577,1.572,0.551,2.383c-0.158,4.88-1.298,9.726-1.842,14.633
		c-0.198,1.788,0.494,3.597,1.102,5.398c0.368,1.09,0.738,1.795,1.186,2.456c0.31,0.458,0.65,1.157,1.125,1.862
		c1.119,1.658,2.361,3.056,3.543,4.103c0.332,0.295,0.677,0.584,1.025,0.835c0.248,0.177,0.517,0.266,0.802,0.252
		c0.267-0.014,0.468-0.111,0.575-0.309c0.121-0.249,0.139-0.536,0.051-0.799c-0.099-0.327-0.28-0.644-0.48-0.959
		c-0.274-0.419-0.576-0.82-0.902-1.2c-1.135-1.368-1.904-2.722-2.389-4.08c-0.231-0.646-0.454-1.28-0.529-1.92
		c-0.045-0.446,0.01-0.897,0.163-1.32c0.16-0.468,0.435-0.868,0.82-1.175c0.386-0.307,0.689-0.583,1.043-0.736
		c0.344-0.149,0.697-0.182,1.042-0.205c0.361-0.024,0.792,0.091,1.232,0.332c0.471,0.254,0.905,0.573,1.288,0.948
		c0.574,0.579,1.119,1.185,1.632,1.818c0.464,0.559,0.871,1.093,1.192,1.692c0.585,1.092,0.941,2.169,1.18,3.33
		C66.257,115.008,66.302,115.478,66.112,115.655L66.112,115.655z M188.753,46.766c0.337,0.141,0.712,0.301,1.113,0.502
		c0.384,0.191,0.772,0.375,1.172,0.52c0.35,0.127,0.702,0.238,1.046,0.229c0.324-0.008,0.606-0.137,0.774-0.382
		c0.16-0.229,0.248-0.544,0.175-0.92c-0.071-0.37-0.24-0.718-0.457-1.051c-0.438-0.672-0.979-1.358-1.564-2.069
		c-0.921-1.115-1.803-2.089-2.508-2.926c-2.193-2.612-4.583-4.812-7.036-6.567c-0.685-0.491-1.479-1.087-2.34-1.697
		c-3.616-2.565-7.366-4.452-11.256-6.117c-2.506-1.074-5.378-1.9-8.427-2.495c-4.245-0.84-8.604-0.917-12.876-0.224
		c-2.271,0.369-4.52,1.283-6.792,2.344c-0.662,0.307-1.29,0.684-1.873,1.124c-0.368,0.27-0.706,0.578-1.009,0.919
		c-0.269,0.316-0.469,0.639-0.54,0.976c-0.076,0.368-0.014,0.714,0.172,1.018c0.171,0.282,0.446,0.504,0.79,0.612
		c0.353,0.11,0.703,0.146,1.053,0.092l1.64-0.245c0.429-0.049,0.862-0.055,1.276,0.086c0.33,0.112,0.636,0.311,0.863,0.588
		c0.217,0.264,0.285,0.634,0.34,1.012c0.074,0.511,0.016,1.064-0.145,1.638c-0.14,0.494-0.333,0.986-0.576,1.47
		c-1.742,3.508-5.715,6.997-8.833,9.23c-0.632,0.454-1.199,0.816-1.633,1.024c-0.479,0.221-0.975,0.399-1.483,0.533
		c-0.38,0.115-0.777,0.153-1.172,0.114c-0.371-0.042-0.71-0.231-0.94-0.525c-0.246-0.307-0.411-0.67-0.48-1.057
		c-0.092-0.515-0.112-1.04-0.062-1.56c0.136-1.443,0.557-2.884,1.19-4.317c0.687-1.558,1.606-2.831,2.241-3.975
		c0.356-0.64,0.737-1.061,1.178-1.393c0.342-0.258,0.762-0.505,1.21-0.987c0.292-0.313,0.584-0.64,0.804-0.976
		c0.216-0.334,0.252-0.713,0.151-1.028c-0.082-0.3-0.312-0.537-0.608-0.628c-0.347-0.115-0.698-0.149-1.047-0.047
		c-0.473,0.138-0.948,0.347-1.405,0.622c-1.3,0.778-2.567,1.853-3.865,3.077c-2.638,2.491-4.587,4.737-6.469,7.394
		c-2.74,3.874-5.038,8.055-6.768,12.449c-1.208,3.069-2.053,6.186-2.624,8.761c-0.696,3.147-0.957,6.486-0.919,9.829
		c0.032,2.798,0.512,5.605,1.444,8.398c0.659,1.966,1.578,3.734,3.01,5.753c0.891,1.258,1.902,2.307,2.868,3.292
		c0.578,0.589,1.288,1.049,2.057,1.412c0.63,0.298,1.241,0.467,1.872,0.453c0.639-0.016,1.208-0.221,1.768-0.496
		c0.832-0.408,1.738-1.072,2.62-1.741c6.36-4.812,12.404-10.027,18.096-15.613c0.479-0.471,0.954-1.022,1.27-1.619
		c1.098-2.079,0.395-3.056-1.563-2.291c-0.216,0.085-0.349,0.161-0.475,0.19c-0.075,0.019-0.152,0.028-0.23,0.026
		c-2.508-0.074-1.729-3.256-1.6-4.128c0.034-0.236,0.17-0.524,0.26-0.821c0.238-0.778,0.532-1.32,0.811-1.873
		c0.267-0.532,0.615-1.388,1.104-2.199c1.55-2.563,3.257-5.013,5.098-7.143c1.837-2.122,4.073-4.219,6.258-6.107
		c1.921-1.662,3.862-2.67,6.262-3.489c4.039-1.377,8.685-1.831,12.282-1.441c1.065,0.116,2.127,0.294,3.183,0.537
		c0.42,0.096,0.827,0.21,1.217,0.343c0.245,0.083,0.491,0.157,0.742,0.212c0.083,0.018,0.438,0.116,1.192,0.363
		C182.638,44.689,189.922,47.254,188.753,46.766L188.753,46.766z M82.743,29.378c-0.177,0.421-0.111,0.918,0.25,1.382
		c0.263,0.338,0.536,0.635,0.831,0.897c0.877,0.773,1.644,1.664,2.278,2.646c1.008,1.562,1.763,3.122,2.255,4.68
		c0.483,1.525,0.748,3.04,0.995,4.559c0.073,0.446-0.01,0.885-0.185,1.269c-0.158,0.359-0.407,0.67-0.724,0.902
		c-0.325,0.23-0.719,0.324-1.115,0.331c-0.397,0.007-0.785-0.085-1.17-0.229c-0.684-0.261-1.348-0.568-1.989-0.92
		c-1.601-0.866-3.235-2.077-4.759-3.522c-1.442-1.369-2.863-2.971-3.854-4.554c-0.728-1.161-1.244-2.324-1.548-3.479
		c-0.116-0.446-0.194-0.884-0.116-1.319c0.075-0.426,0.266-0.8,0.558-1.102c0.306-0.316,0.665-0.531,1.064-0.633
		c0.382-0.097,0.78-0.116,1.17-0.057c0.586,0.082,1.17,0.219,1.756,0.276c0.355,0.035,0.712,0,1.02-0.148
		c0.299-0.145,0.516-0.368,0.613-0.668c0.101-0.309,0.048-0.652-0.15-1.023c-0.211-0.375-0.48-0.714-0.796-1.005
		c-0.391-0.375-0.816-0.712-1.271-1.006c-0.865-0.56-1.722-0.992-2.574-1.372c-2.737-1.221-5.466-1.914-8.193-2.101
		c-4.976-0.351-9.975,0.209-14.75,1.654c-1.866,0.561-3.731,1.269-5.525,2.057c-3.449,1.514-8.356,4.163-11.291,6.558
		c-0.336,0.275-0.663,0.562-0.98,0.858c-0.768,0.715-1.587,1.322-2.335,1.987c-2.721,2.415-4.878,4.931-7.217,7.816
		c-0.455,0.554-0.846,1.157-1.167,1.799c-0.175,0.354-0.286,0.722-0.273,1.073c0.013,0.337,0.137,0.595,0.374,0.754
		c0.228,0.153,0.531,0.221,0.896,0.149c0.354-0.069,0.706-0.206,1.053-0.381l3.864-1.809c3.785-1.761,7.876-3.122,11.513-3.805
		c2.875-0.539,5.808-0.516,8.74-0.309c2.504,0.177,4.973,1.052,7.491,2.249c1.456,0.683,2.819,1.549,4.056,2.577
		c1.393,1.164,2.727,2.396,3.999,3.691c2.374,2.424,6.534,7.705,7.952,10.823c0.391,0.859,0.723,1.747,1.057,2.538
		c0.312,0.739,0.603,1.497,0.718,2.141c0.124,0.696,0.193,1.204,0.228,1.72c0.022,0.334-0.038,0.696-0.195,1.068
		c-0.14,0.332-0.375,0.616-0.697,0.799c-0.31,0.178-0.693,0.215-1.094,0.125c-0.396-0.088-0.779-0.28-1.17-0.468
		c-0.282-0.142-0.593-0.217-0.909-0.217c-0.311,0.009-0.56,0.156-0.691,0.422c-0.129,0.271-0.151,0.581-0.062,0.867
		c0.09,0.298,0.205,0.589,0.373,0.869c0.292,0.485,0.688,0.937,1.108,1.417c0.694,0.791,1.444,1.494,2.084,2.109
		c4.812,4.63,9.977,8.739,15.451,13.105c1.232,0.983,2.52,1.917,3.822,2.606c0.693,0.368,1.404,0.535,2.106,0.481
		c0.699-0.051,1.379-0.255,1.99-0.599c0.695-0.384,1.401-0.978,2.091-1.666c0.978-0.974,1.751-1.994,2.532-3.061
		c1.024-1.4,1.871-2.84,2.45-4.443c1.053-2.922,1.507-5.842,1.62-8.755c0.206-5.328-0.543-10.658-2.266-15.955
		c-1.256-3.864-3.208-7.69-5.306-11.484c-0.383-0.693-0.867-1.319-1.437-2.074l-2.914-4.08c-1.611-2.195-3.669-4.38-5.872-6.377
		c-1.043-0.957-2.18-1.807-3.393-2.538c-0.391-0.232-0.781-0.41-1.17-0.486C83.39,28.877,82.943,29.026,82.743,29.378L82.743,29.378
		z M14.683,80.363c-0.386,0.073-0.69,0.515-0.87,1.165c-0.155,0.557-0.297,1.107-0.386,1.678c-1.274,8.173-1.55,16.344-0.603,24.521
		c-0.001-0.016,1.137,8.103,1.134,8.088c0.046,0.247,0.097,0.492,0.154,0.739c0.085,0.364,0.164,0.733,0.29,1.062
		c0.136,0.353,0.349,0.672,0.595,0.886c0.28,0.242,0.587,0.26,0.931,0.115c0.318-0.136,0.533-0.443,0.742-0.862
		c0.225-0.452,0.411-0.882,0.558-1.303c0.137-0.388,0.316-0.721,0.491-0.907c0.162-0.172,0.369-0.231,0.58-0.085
		c0.183,0.125,0.401,0.43,0.579,0.793c0.195,0.398,0.312,0.883,0.4,1.383c0.312,1.761,0.483,3.477,0.432,5.396
		c-0.045,1.68-0.615,3.328-1.262,5.038c-0.474,1.25-0.462,2.556-0.364,3.839c0.22,2.878,1.063,5.73,2.247,8.637
		c0.72,1.784,1.578,3.51,2.567,5.159c0.842,1.413,1.914,2.856,3.092,4.028c0.845,0.843,1.701,1.428,2.406,1.967
		c0.652,0.495,1.374,1.049,2.23,1.425c1.866,0.816,3.746,1.517,5.612,1.767c1.567,0.211,3.112,0.387,4.682,0.22
		c0.549-0.06,1.094-0.161,1.628-0.303c2.601-0.686,4.496-1.782,5.881-4.538c1.023-2.038,1.862-4.163,2.508-6.351
		c0.423-1.439,0.761-2.879,0.983-4.318c0.055-0.356,0.088-0.72,0.095-1.079c0.007-0.385-0.093-0.699-0.272-0.886
		c-0.176-0.183-0.424-0.232-0.751-0.138c-0.303,0.088-0.612,0.263-0.932,0.479c-0.933,0.634-1.872,1.025-2.81,1.158
		c-1.322,0.187-2.643,0.121-3.979-0.163c-0.852-0.179-1.715-0.389-2.574-0.823c-0.937-0.476-1.713-0.968-2.347-1.595
		c-1.457-1.442-2.767-2.949-3.738-4.463c-0.316-0.491-0.771-1.026-1.239-1.645c0.347,0.457-3.856-6.396-3.59-5.896
		c-0.079-0.148-0.16-0.3-0.243-0.452c-4.524-8.333-7.931-17.038-10.311-25.778c-1.455-5.343-2.469-10.714-3.136-16.075
		c-0.046-0.367-0.204-0.713-0.378-1.079C15.443,80.602,15.101,80.319,14.683,80.363L14.683,80.363z M164.12,111.11
		c-0.083,0.204-0.166,0.411-0.25,0.631c-0.219,0.603-0.511,1.176-0.868,1.707c-0.442,0.634-1.062,1.438-1.657,2.444
		c-0.666,1.148-1.502,2.189-2.478,3.089c-0.554,0.517-1.098,0.979-1.661,1.381c-0.317,0.228-0.629,0.394-0.97,0.398
		c-0.365,0.008-0.641-0.115-0.814-0.338c-0.182-0.235-0.245-0.542-0.173-0.919c0.064-0.326,0.255-0.636,0.482-0.959
		c0.247-0.354,0.547-0.721,0.858-1.079c0.629-0.725,1.12-1.45,1.444-2.13c0.326-0.681,0.593-1.271,0.771-1.781
		c0.207-0.593,0.435-1.253,0.598-2.084c0.09-0.46,0.046-0.806-0.051-1.147c-0.101-0.362-0.355-0.565-0.566-0.801
		c-0.241-0.267-0.508-0.561-0.909-0.789c-0.323-0.183-0.641-0.358-1.049-0.395c-0.422-0.038-0.665-0.037-0.841,0.039
		c-0.203,0.086-0.42,0.137-0.614,0.274c-0.23,0.165-0.584,0.465-0.977,0.775c-0.663,0.528-1.254,1.143-1.827,1.793
		c-0.955,1.081-1.56,2.164-2.061,3.397c-0.227,0.563-0.45,1.06-0.496,1.605c-0.025,0.332-0.145,0.551-0.094,0.629
		c0.046,0.072,0.212,0.05,0.372-0.091c0.17-0.15,0.422-0.397,0.748-0.629c0.313-0.221,0.596-0.476,0.832-0.828
		c0.25-0.375,0.49-0.677,0.769-0.816c0.291-0.146,0.569-0.127,0.792,0.053c0.224,0.181,0.402,0.505,0.444,0.867
		c0.039,0.329-0.056,0.646-0.173,0.949c-0.141,0.357-0.296,0.673-0.462,1.01c-1.37,2.757-2.887,5.086-4.652,7.052
		c-1.703,1.903-3.465,3.754-5.281,5.549c-0.688,0.676-1.548,1.471-2.338,2.484c-0.62,0.796-1.143,1.607-1.451,2.357
		c-0.284,0.697-0.495,1.421-0.63,2.161c-0.099,0.547-0.124,1.091,0.068,1.599c0.127,0.343,0.241,0.684,0.506,0.949
		c0.247,0.245,0.547,0.368,0.875,0.429c0.317,0.06,0.67,0.047,1.024-0.063c0.433-0.138,0.848-0.325,1.238-0.558
		c0.688-0.399,1.258-0.912,1.805-1.479c1.13-1.167,2.121-2.369,2.918-3.832c0.358-0.658,0.584-1.175,0.861-1.62
		c0.674-1.095,1.358-2.609,2.053-4.134c0.188-0.414,0.415-0.804,0.702-1.144c0.232-0.275,0.492-0.427,0.735-0.456
		c0.227-0.034,0.451,0.075,0.564,0.274c0.145,0.235,0.188,0.584,0.156,0.965c-0.03,0.322-0.114,0.632-0.187,0.958
		c-0.459,2.087-0.855,4.17-1.58,6.237c-0.721,2.058-1.521,4.072-2.355,5.438c-0.82,1.344-1.453,2.404-2.464,3.488
		c-0.442,0.472-1.111,0.92-1.808,1.587c-0.804,0.771-1.596,1.457-2.158,2.146c-2.639,3.248-4.872,6.146-6.898,9.643
		c-1.895,3.266-3.149,6.416-4.386,9.794c-0.337,0.916-0.482,1.629-0.683,2.421c-0.396,1.566-0.663,3.289-0.721,4.786
		c-0.018,0.481-0.129,0.963-0.363,1.484c-0.21,0.471-0.505,0.866-0.937,1.189c-0.429,0.319-0.91,0.501-1.377,0.666
		c-1.181,0.417-2.396,0.729-3.631,0.937c-1.945,0.329-3.867,0.489-5.59,0.681c-0.667,0.074-1.37-0.111-2.252-0.246
		c-0.451-0.061-0.88-0.233-1.247-0.503c-0.34-0.257-0.617-0.612-0.854-1.029c-0.23-0.41-0.409-0.848-0.534-1.302
		c-0.73-2.639-1.196-5.368-1.451-8.096c-0.08-0.884,0.007-1.763,0.118-2.639c0.048-0.374,0.145-0.724,0.313-0.994
		c0.17-0.274,0.381-0.396,0.619-0.358c0.234,0.035,0.467,0.228,0.657,0.548c0.216,0.361,0.356,0.761,0.479,1.166l0.778,2.76
		c0.187,0.678,0.438,1.354,0.829,2.038c0.313,0.547,0.725,1.047,1.23,1.4c0.469,0.326,0.938,0.534,1.405,0.577
		c0.515,0.049,1.018-0.055,1.521-0.256c0.56-0.221,1.069-0.581,1.533-1.078c0.451-0.489,0.853-1.021,1.199-1.588
		c0.46-0.733,0.892-1.549,1.088-2.409c0.193-0.836,0.163-1.678,0.143-2.52c-0.022-0.868,0.005-1.735-0.083-2.342
		c-0.087-0.597-0.136-1.219-0.383-2.097c-1.111-3.919-2.292-7.228-3.445-11.038c-0.258-0.854-0.488-1.681-0.424-2.519
		c0.065-0.842,0.335-1.669,0.615-2.519c0.886-2.686,2.269-5.36,4.134-8.034c0.304-0.438,0.604-0.891,0.96-1.284
		c0.314-0.35,0.661-0.574,1.02-0.605c0.372-0.032,0.765,0.143,1.153,0.326c0.396,0.188,0.785,0.294,1.171,0.247
		c0.365-0.045,0.727-0.251,1.091-0.498c2.344-1.599,6.137-4.615,7.684-7.348c0.094-0.182,0.207-0.354,0.337-0.512
		c0.153-0.165,0.175-0.379,0.224-0.543c0.032-0.111-0.051-0.072-0.206-0.119c-0.193-0.056-0.476-0.05-0.815,0.114
		c-0.406,0.197-0.787,0.35-1.12,0.525c-0.118,0.063-0.236,0.122-0.35,0.181c-1.504,1.402-4.997,0.771-8.51,3.824l-0.418,0.515
		c-0.271,0.32-0.644,0.608-0.977,0.953c-0.26,0.271-0.544,0.434-0.875,0.491c-0.323,0.055-0.576,0.007-0.764-0.195
		c-0.182-0.196-0.285-0.516-0.271-0.868c0.014-0.36,0.112-0.714,0.206-1.08c0.245-0.954,0.561-1.909,0.979-2.878
		c0.967-2.245,2.127-4.472,3.858-6.641c1.207-1.513,3.028-2.934,4.661-4.384c0.76-0.676,1.296-1.338,1.837-1.686
		c0.352-0.226,0.746-0.509,1.247-0.912c0.494-0.396,0.933-0.929,1.373-1.604c0.404-0.62,0.709-1.193,0.976-1.691
		c0.258-0.48,0.358-0.923,0.486-1.38c0.094-0.338,0.151-0.752,0.112-1.19c-0.023-0.3-0.09-0.556-0.317-0.788
		c-0.228-0.234-0.515-0.351-0.873-0.446c-0.36-0.094-0.739-0.157-1.132-0.109c-0.563,0.07-1.088,0.315-1.577,0.65
		c-0.474,0.324-0.902,0.616-1.233,0.867c-0.734,0.559-1.377,1.34-2.121,2.426c-0.209,0.321-0.51,0.572-0.862,0.721
		c-0.299,0.123-0.637,0.099-0.915-0.063c-0.258-0.157-0.466-0.415-0.573-0.737c-0.104-0.325-0.124-0.67-0.062-1.005
		c0.065-0.367,0.197-0.71,0.291-1.085c0.278-1.126,0.606-2.26,1.021-3.385c4.042-9.992,11.478-16.261,18.465-22.973
		c1.597-1.539,3.077-3.195,4.43-4.953c0.847-1.09,3.324-4.992,3.346-6.539c0.002-0.411-0.038-0.82-0.12-1.223
		c-0.085-0.45-0.252-0.832-0.556-1.114c-0.219-0.203-0.469-0.361-0.785-0.372c-0.375-0.012-0.749,0.032-1.171,0.074
		c-0.751,0.075-1.488,0.245-2.226,0.616l-1.405,0.729c-0.356,0.174-0.712,0.242-1.018,0.194c-0.315-0.049-0.563-0.209-0.681-0.486
		c-0.105-0.246-0.112-0.542,0.007-0.874c0.114-0.325,0.229-0.659,0.423-0.948c0.08-0.12,0.163-0.238,0.25-0.356
		c3.353-4.577,9.724-11.137,14.427-14.245c3.687-2.436,7.672-3.868,12.115-3.833c4.955,0.042,10.243,1.68,14.163,4.139
		c5.483,3.44,10.437,8.978,14.209,14.521c0.464,0.681,0.909,1.372,1.329,2.07c0.411,0.681,0.818,1.357,1.16,2.04
		c0.177,0.358,0.275,0.725,0.271,1.062c-0.004,0.35-0.146,0.635-0.374,0.789c-0.243,0.164-0.564,0.205-0.912,0.131
		c-0.352-0.075-0.698-0.24-1.055-0.423l-1.637-0.818c-0.523-0.267-0.996-0.563-1.467-0.76c-0.454-0.185-0.925-0.325-1.405-0.418
		c-0.439-0.107-0.892-0.146-1.342-0.116c-0.605,0.053-1.198,0.209-1.75,0.463c-0.63,0.285-1.162,0.713-1.646,1.142
		c-0.406,0.358-0.754,0.778-1.031,1.244c-0.24,0.402-0.448,0.955-0.529,1.536c-0.092,0.653-0.046,1.293,0.036,1.879
		c0.053,0.375,0.147,0.745,0.34,1.027c0.195,0.286,0.51,0.468,0.843,0.533c0.321,0.063,0.646-0.011,0.958-0.16
		c0.361-0.172,0.615-0.417,0.829-0.663c0.28-0.317,0.478-0.735,0.705-1.21c0.173-0.367,0.352-0.778,0.595-1.148
		c0.226-0.34,0.508-0.56,0.786-0.633c0.269-0.071,0.554,0.031,0.716,0.256c0.195,0.257,0.285,0.581,0.289,0.959
		c0.005,0.36-0.023,0.718-0.041,1.079c-0.088,1.827-0.396,3.647-0.82,5.472c-4.095,11.469-8.711,15.83-13.767,22.512
		c-2.79,3.689-3.706,5.42-5.828,9.68c-0.125,0.283-0.28,0.609-0.479,0.999c-0.799,1.563,0.131,3.257,1.396,1.313l2.173-3.099
		c0.336-0.623,0.635-1.27,1.045-1.864l0.069-0.101c1.171-2.109,2.363-1.842,2.977-0.938c0.702,1.036,0.099,2.52-0.153,3.622
		l-0.049,0.214c-1.619,5.979-6.244,10.747-9.89,14.898c-0.215,0.243-0.432,0.486-0.65,0.73c-0.459,0.513-1.004,0.994-1.711,1.427
		c-0.756,0.463-1.55,0.845-2.482,1.072c-0.558,0.136-1.097,0.2-1.575,0.032c-0.488-0.158-0.939-0.413-1.327-0.748
		c-0.475-0.419-0.91-0.883-1.242-1.434c-0.412-0.688-0.761-1.41-1.043-2.16c-0.291-0.771-0.571-1.523-0.75-2.029
		c-0.178-0.494-0.292-1.057-0.356-1.88c-0.11-1.375-0.173-2.549-0.232-3.358c-0.034-0.493-0.177-1.014-0.105-1.742
		c0.107-1.049,0.204-2.163,0.317-3.283c0.171-1.716,3.204-17.065,3.646-18.593l0.083-0.297c1.074-3.857,1.806-10.103-1.327-13.213
		c-1.577-1.567-3.28,0.605-3.689,2.105c-0.21,0.737-0.371,1.487-0.479,2.246c-0.239,1.765,1.444,13.655,1.632,15.425
		c0.051,0.492,0.088,0.958,0.112,1.394C165.115,107.927,165.069,108.787,164.12,111.11L164.12,111.11z"/>
</g>
<g>
</g>
<g>
</g>
<g>
</g>
<g>
</g>
<g>
</g>
<g>
</g>
</svg>
