<?xml version="1.0" encoding="utf-8"?>
<!DOCTYPE svg PUBLIC "-//W3C//DTD SVG 1.1//EN" "http://www.w3.org/Graphics/SVG/1.1/DTD/svg11.dtd">
<svg version="1.1" id="Layer_1" xmlns="http://www.w3.org/2000/svg" xmlns:xlink="http://www.w3.org/1999/xlink" x="0px" y="0px" width="216px" height="216px" viewBox="0 0 216 216" enable-background="new 0 0 216 216" xml:space="preserve">
<g>
	<path fill-rule="evenodd" clip-rule="evenodd" fill="#71BF49" d="M147.375,67.931H22.339c-11.259,0-20.47,9.212-20.47,20.47v42.538
		l20.47-0.023h104.567c11.258,0,20.469-9.211,20.469-20.471V67.931z"/>
	<path fill-rule="evenodd" clip-rule="evenodd" fill="#EF3E34" d="M151.611,67.931h42.787c11.26,0,20.471,9.211,20.471,20.47v22.044
		c0,11.26-9.211,20.471-20.471,20.471h-22.316c-11.26,0-20.471-9.211-20.471-20.471V67.931z"/>
	<path fill-rule="evenodd" clip-rule="evenodd" fill="#FFFFFF" d="M168.279,93.412h6.928l4.68-7.501
		c0.369-0.593,1.162-0.783,1.75-0.406l0.512,0.326c0.588,0.377,0.764,1.151,0.406,1.752l-3.477,5.83l-2.191,3.621l2.973-3.621h6.729
		l2.902,3.518l-0.396-0.705c-0.021-0.03-0.043-0.061-0.063-0.093l-1.613-2.706l-3.484-5.843c-0.357-0.601-0.182-1.375,0.406-1.752
		l0.512-0.326c0.588-0.376,1.381-0.187,1.75,0.406l4.68,7.501h7.125c0.412,0,0.75,0.338,0.75,0.751v2.596
		c0,0.414-0.338,0.751-0.75,0.751h-0.949l-1.988,11.682c-0.184,1.074-0.777,1.981-1.727,1.981h-20.869
		c-0.947,0-1.553-0.905-1.725-1.981l-1.854-11.682h-1.016c-0.412,0-0.752-0.338-0.752-0.751v-2.596
		C167.527,93.75,167.867,93.412,168.279,93.412L168.279,93.412z M176.084,94.778c-0.387,0-0.699,0.291-0.699,0.649
		s0.313,0.649,0.699,0.649s0.701-0.291,0.701-0.649S176.471,94.778,176.084,94.778L176.084,94.778z M190.566,94.778
		c-0.387,0-0.699,0.291-0.699,0.649s0.313,0.649,0.699,0.649s0.701-0.291,0.701-0.649S190.953,94.778,190.566,94.778L190.566,94.778
		z M191.566,98.433c-0.375,0-0.734,0.311-0.777,0.69l-0.914,8.217c-0.043,0.38,0.213,0.691,0.59,0.691h1.059
		c0.375,0,0.723-0.311,0.777-0.691l1.119-7.858c0.053-0.38-0.213-1.049-0.59-1.049H191.566L191.566,98.433z M185.676,98.433
		c-0.377,0-0.709,0.311-0.717,0.69l-0.199,8.217c-0.01,0.38,0.273,0.691,0.648,0.691h1.059c0.377,0,0.699-0.311,0.719-0.691
		l0.402-8.217c0.02-0.38-0.273-0.69-0.648-0.69H185.676L185.676,98.433z M181.035,98.433h-1.266c-0.375,0-0.666,0.311-0.648,0.69
		l0.404,8.217c0.018,0.38,0.34,0.691,0.717,0.691h1.059c0.375,0,0.658-0.311,0.648-0.691l-0.197-8.217
		C181.742,98.744,181.41,98.433,181.035,98.433L181.035,98.433z M175.143,98.433h-1.264c-0.375,0-0.643,0.669-0.59,1.049
		l1.121,7.858c0.053,0.38,0.4,0.691,0.777,0.691h1.059c0.375,0,0.631-0.311,0.588-0.691l-0.914-8.217
		C175.877,98.744,175.518,98.433,175.143,98.433L175.143,98.433z M69.67,87.024L69.67,87.024c6.03,0,11.076,4.537,11.088,9.515
		l0.012,5.139c0.012,4.978-5.07,9.53-11.101,9.53l0,0c-6.031,0-10.816-4.552-10.828-9.53l-0.013-5.139
		C58.817,91.561,63.639,87.024,69.67,87.024L69.67,87.024z M69.362,93.139c-2.235,0-4.064,1.829-4.064,4.065v3.825
		c0,2.236,1.829,4.065,4.064,4.065h0.82c2.235,0,4.064-1.829,4.064-4.065v-3.825c0-2.236-1.829-4.065-4.064-4.065H69.362
		L69.362,93.139z M124.832,111.105h-0.205c-0.965,0-1.834-0.432-2.424-1.111c-1.574,0.768-3.371,1.214-5.262,1.214l0,0
		c-6.029,0-10.814-4.552-10.827-9.53l-0.013-5.139c-0.012-4.978,4.81-9.515,10.839-9.515l0,0c1.91,0,3.721,0.456,5.305,1.235
		c0.588-0.652,1.439-1.063,2.381-1.063h0.205c1.766,0,3.211,1.445,3.211,3.21v11.272v6.216
		C128.043,109.66,126.598,111.105,124.832,111.105L124.832,111.105z M116.498,93.139c-2.234,0-4.064,1.829-4.064,4.065v3.825
		c0,2.236,1.83,4.065,4.064,4.065h0.82c2.234,0,4.064-1.829,4.064-4.065v-3.825c0-2.236-1.83-4.065-4.064-4.065H116.498
		L116.498,93.139z M85.894,115.204h-0.205c-1.766,0-3.21-1.444-3.21-3.211V90.406c0-1.766,1.445-3.21,3.21-3.21h0.205
		c1.048,0,1.982,0.508,2.569,1.291c1.54-0.835,3.33-1.325,5.246-1.325l0,0c5.83,0,10.708,4.537,10.72,9.515l0.012,5.139
		c0.012,4.978-4.902,9.53-10.731,9.53l0,0c-1.659,0-3.22-0.369-4.604-1.011v1.659C89.105,113.76,87.66,115.204,85.894,115.204
		L85.894,115.204z M89.105,95.658v6.917c0.611,1.475,2.068,2.519,3.757,2.519h0.82c2.236,0,4.065-1.829,4.065-4.065v-3.825
		c0-2.236-1.829-4.065-4.065-4.065h-0.82C91.173,93.139,89.716,94.183,89.105,95.658L89.105,95.658z M39.305,115.204H39.1
		c-1.766,0-3.21-1.444-3.21-3.211v-1.694c-1.384,0.663-2.936,1.046-4.562,1.046l0,0c-5.614,0-10.068-4.552-10.08-9.53l-0.012-5.139
		c-0.011-4.978,4.478-9.515,10.091-9.515l0,0c1.874,0,3.645,0.506,5.174,1.364c0.585-0.804,1.533-1.33,2.598-1.33h0.205
		c1.008,0,1.911,0.471,2.501,1.203c1.446-0.781,3.112-1.238,4.892-1.238l0,0c5.614,0,10.311,4.537,10.322,9.515l0.012,5.139
		c0.011,4.978-4.72,9.53-10.334,9.53l0,0c-1.498,0-2.912-0.324-4.183-0.894v1.542C42.515,113.76,41.07,115.204,39.305,115.204
		L39.305,115.204z M42.515,95.414v7.404c0.652,1.345,2.013,2.275,3.577,2.275h0.804c2.193,0,3.987-1.829,3.987-4.065v-3.825
		c0-2.236-1.794-4.065-3.987-4.065h-0.804C44.528,93.139,43.167,94.069,42.515,95.414L42.515,95.414z M35.889,101.944v-5.655
		c-0.41-1.799-2-3.15-3.885-3.15H31.2c-2.193,0-3.987,1.829-3.987,4.065v3.825c0,2.236,1.794,4.065,3.987,4.065h0.804
		C33.889,105.094,35.479,103.743,35.889,101.944z"/>
</g>
</svg>
