<?xml version="1.0" encoding="utf-8"?>
<!DOCTYPE svg PUBLIC "-//W3C//DTD SVG 1.1//EN" "http://www.w3.org/Graphics/SVG/1.1/DTD/svg11.dtd">
<svg version="1.1" id="Layer_1" xmlns="http://www.w3.org/2000/svg" xmlns:xlink="http://www.w3.org/1999/xlink" x="0px" y="0px" width="216px" height="216px" viewBox="0 0 216 216" enable-background="new 0 0 216 216" xml:space="preserve">
<g>
	<path d="M186.248,114.46h11.049c0.23,0,0.31-0.132,0.23-0.396l-5.494-15.168c-0.155-0.412-0.31-0.618-0.464-0.618
		c-0.114,0-0.249,0.206-0.403,0.619l-5.093,15.167c-0.077,0.264-0.019,0.396,0.173,0.396H186.248z M178.727,132.887l-0.327,0.007
		c-1.518,0.01-3.034-0.002-4.55-0.035c-0.967-0.037-0.563-0.359,0.119-0.851c0.07,0.032,0.173-0.114,0.244-0.087
		c1.584-0.62,2.896-2.303,3.936-5.046l13.132-34.889c0.541-1.461,0.965-2.19,1.273-2.19c0.308,0,0.731,0.675,1.274,2.023
		c3.314,8.464,7.809,19.758,13.476,33.876c1.005,2.471,2.025,4.195,3.065,5.17c0.619,0.562,1.389,0.953,2.313,1.178
		c0.655,0.149,1.294,0.224,1.91,0.224c0.386,0,0.578,0.114,0.578,0.34c0,0.297-0.385,0.447-1.156,0.447
		c-3.779,0-6.807-0.037-9.08-0.111c-1.157-0.039-1.738-0.168-1.738-0.394c0-0.188,0.135-0.317,0.405-0.392
		c0.58-0.152,0.694-0.657,0.348-1.518l-5.382-13.82c-0.114-0.224-0.289-0.338-0.518-0.338h-12.438c-0.271,0-0.463,0.149-0.578,0.447
		l-3.471,9.946c-0.541,1.536-0.811,2.79-0.811,3.765c0,1.086,0.733,1.631,2.198,1.631h0.578c0.387,0,0.578,0.11,0.578,0.336
		c0.004,0.099-0.037,0.194-0.11,0.262c-1.179,0.009-3.135,0.021-5.042,0.023L178.727,132.887z M131.627,116.575v-9.793
		c0-6.784-0.036-10.79-0.109-12.013c-0.111-1.78-0.906-2.836-2.384-3.17c-0.618-0.12-1.25-0.177-1.882-0.167
		c-0.296,0-0.444-0.11-0.444-0.334c0-0.296,0.296-0.444,0.888-0.444c1.032,0,2.363,0.038,3.986,0.112
		c1.627,0.036,2.382,0.056,2.272,0.056c0.109,0,1.053-0.018,2.825-0.056c1.237-0.058,2.475-0.094,3.713-0.11
		c4.505,0,7.885,0.816,10.137,2.447c2.546,1.854,3.823,4.375,3.823,7.564c0,4.413-2.235,8.695-6.704,12.848
		c3.657,4.671,5.743,7.342,6.261,8.009c2.104,2.669,3.858,4.746,5.261,6.229c2.145,2.3,4.396,3.634,6.76,4.006
		c0.702,0.109,1.423,0.166,2.161,0.166c0.333,0,0.499,0.111,0.499,0.335c0,0.294-0.443,0.445-1.329,0.445h-3.933
		c-2.663,0-4.638-0.354-5.93-1.06c-1.071-0.555-2.216-1.556-3.434-3.001c-0.627-0.706-1.976-2.429-4.046-5.174
		c-1.99-2.76-4.003-5.503-6.037-8.23c-0.185-0.206-0.443-0.326-0.72-0.334l-6.813-0.111c-0.259,0-0.388,0.148-0.388,0.445v1.336
		c0,6.412,0.092,10.436,0.275,12.068c0.224,1.852,0.942,2.874,2.161,3.059c1.071,0.147,1.901,0.222,2.493,0.222
		c0.295,0,0.443,0.111,0.443,0.335c0,0.294-0.296,0.445-0.888,0.445c-1.255,0-2.751-0.039-4.485-0.113
		c-1.699-0.038-2.476-0.055-2.328-0.055c-2.548,0.11-4.284,0.168-5.207,0.168c-0.592,0-0.887-0.151-0.887-0.445
		c0-0.224,0.166-0.335,0.5-0.335c0.367,0,0.904-0.074,1.605-0.222c0.851-0.185,1.387-1.207,1.605-3.059
		C131.536,127.197,131.627,123.174,131.627,116.575z M136.061,93.438v18.187c-0.011,0.277,0.14,0.538,0.388,0.666
		c0.999,0.593,2.935,0.891,5.815,0.891c1.734,0,3.121-0.353,4.155-1.056c2.253-1.56,3.378-4.414,3.378-8.566
		c0-3.485-0.867-6.209-2.602-8.175c-1.701-1.966-4.027-2.948-6.98-2.948c-1.736,0-2.973,0.112-3.713,0.333
		C136.208,92.879,136.061,93.103,136.061,93.438z M68.292,107.865c0-6.714,2.225-12.722,6.677-18.028
		c5.258-6.337,12.362-9.507,21.314-9.507c8.147,0,14.799,2.348,19.962,7.042c5.305,4.836,7.96,11.29,7.96,19.365
		c0,8.076-2.581,14.835-7.744,20.281c-5.354,5.68-12.22,8.52-20.604,8.52c-8.999,0-16.033-3.025-21.101-9.082
		C70.447,121.29,68.292,115.094,68.292,107.865z M75.042,105.892c0,8.075,2.202,14.624,6.608,19.649
		c4.214,4.88,9.591,7.32,16.125,7.32c4.69,0,8.762-1.452,12.219-4.366c4.926-4.222,7.392-10.818,7.392-19.785
		c0-8.076-2.203-14.531-6.608-19.366c-4.024-4.414-9.023-6.619-14.991-6.619c-6.158,0-11.106,1.924-14.847,5.774
		C77.008,92.63,75.042,98.428,75.042,105.892z M33.407,127.42v-9.554c0-2.282-0.146-3.744-0.439-4.38
		c-0.256-0.635-0.929-1.104-2.026-1.405c-0.401-0.112-1.02-0.168-1.859-0.168c-0.292,0-0.438-0.112-0.438-0.339
		c0-0.296,0.292-0.447,0.875-0.447c1.022,0,2.337,0.037,3.941,0.112l2.244,0.056l2.135-0.056c1.497-0.075,2.57-0.112,3.229-0.112
		c0.585,0,0.875,0.151,0.875,0.447c0,0.227-0.146,0.339-0.437,0.339c-0.292,0-0.749,0.056-1.37,0.168
		c-1.24,0.224-1.915,1.293-2.024,3.204c-0.072,1.233-0.108,3.183-0.108,5.842v6.293c0,1.273-0.038,2.061-0.11,2.359
		c-0.074,0.261-0.275,0.487-0.603,0.672c-3.028,1.688-6.896,2.53-11.601,2.53c-7.516,0-13.517-2.006-18.005-6.013
		c-1.824-1.609-3.32-3.781-4.487-6.518c-1.34-2.984-2.03-6.222-2.025-9.494c0-4.232,0.912-8.051,2.736-11.46
		c1.606-2.995,3.74-5.337,6.402-7.022c3.685-2.36,8.537-3.541,14.56-3.541c2.809,0,5.6,0.318,8.373,0.956
		c1.167,0.261,2.646,0.449,4.432,0.562c0.438,0.038,0.657,0.207,0.657,0.506c0-0.151-0.072,0.581-0.219,2.192
		c-0.119,1.926-0.174,3.855-0.163,5.786c0,0.787-0.166,1.179-0.494,1.179c-0.218,0-0.346-0.281-0.382-0.844
		c-0.11-1.459-0.491-2.695-1.149-3.707c-0.766-1.198-2.189-2.229-4.268-3.089c-2.444-0.974-5.31-1.463-8.593-1.463
		c-4.78,0-8.684,1.238-11.71,3.71c-3.614,2.921-5.419,7.677-5.419,14.269c0,3.483,0.729,6.835,2.189,10.057
		c1.058,2.324,2.263,4.158,3.612,5.505c4.014,4.01,8.794,6.013,14.337,6.013c2.811,0,4.888-0.393,6.239-1.181
		C33.043,128.973,33.407,128.317,33.407,127.42 M54.09,106.947v10.002c0,7.753,0.425,12.061,1.273,12.921
		c0.887,0.823,3.2,1.235,6.941,1.235c3.7,0,6.036-0.562,7-1.686c0.809-0.935,1.312-2.06,1.504-3.368
		c0.076-0.487,0.25-0.733,0.521-0.733c0.232,0,0.347,0.283,0.347,0.844c0,1.797-0.289,3.671-0.868,5.617
		c-0.192,0.676-0.481,1.086-0.867,1.237c-0.386,0.185-1.313,0.278-2.778,0.278c-3.201,0-6.42-0.055-9.66-0.168
		c-3.201-0.11-5.149-0.168-5.843-0.168l-2.372,0.058c-1.504,0.073-2.604,0.11-3.298,0.11c-0.616,0-0.926-0.149-0.926-0.446
		c0-0.226,0.174-0.337,0.522-0.337c0.386,0,0.944-0.077,1.678-0.227c0.886-0.187,1.445-1.217,1.675-3.089
		c0.193-1.464,0.289-5.524,0.289-12.192v-9.889c0-6.853-0.038-10.897-0.115-12.133c-0.115-1.798-0.946-2.866-2.487-3.203
		c-0.649-0.123-1.308-0.179-1.967-0.169c-0.31,0-0.463-0.112-0.463-0.338c0-0.299,0.31-0.449,0.926-0.449
		c1.079,0,2.468,0.038,4.165,0.112l2.372,0.057l2.545-0.057c1.232-0.059,2.466-0.097,3.7-0.112c0.621,0,0.928,0.149,0.928,0.449
		c0,0.262-0.27,0.414-0.809,0.45c-0.502,0-1.023,0.019-1.563,0.057c-1.389,0.224-2.142,1.291-2.256,3.201
		C54.128,96.049,54.09,100.095,54.09,106.947"/>
	<path d="M167.174,94.814c-0.116-1.798-0.773-2.847-1.969-3.146c-0.586-0.142-1.188-0.218-1.791-0.225
		c-0.312,0-0.464-0.112-0.464-0.338c0-0.299,0.309-0.449,0.926-0.449c0.771,0,1.946,0.038,3.528,0.112l2.313,0.057l2.257-0.057
		c1.137-0.061,2.274-0.099,3.414-0.112c0.616,0,0.924,0.149,0.924,0.449c0,0.224-0.154,0.338-0.462,0.338s-0.79,0.057-1.447,0.169
		c-1.311,0.224-2.023,1.291-2.14,3.201c-0.075,1.237-0.24,33.035-0.173,34.157c0.116,1.799,0.771,2.848,1.966,3.146
		c0.657,0.149,1.254,0.226,1.796,0.226c0.309,0,0.46,0.112,0.46,0.338c0,0.299-0.308,0.448-0.924,0.448
		c-1.177-0.012-2.354-0.049-3.526-0.11l-2.316-0.058l-2.255,0.058c-1.584,0.073-2.72,0.11-3.414,0.11
		c-0.617,0-0.926-0.149-0.926-0.448c0-0.224,0.154-0.338,0.464-0.338c0.308,0,0.79-0.058,1.445-0.168
		c1.311-0.224,2.025-1.291,2.142-3.2c0.077-1.238,0.241-33.037,0.171-34.159 M96.655,63.119l3.275,9.902l4.138-8.103l1.845,8.385
		l4.459-7.091v7.822l6.041-5.008l-4.03,8.149c-4.991-2.045-10.334-3.094-15.728-3.087c-5.567,0-10.877,1.099-15.726,3.087
		l-4.032-8.149l6.041,5.008v-7.822l4.46,7.091l1.846-8.385l4.138,8.103L96.655,63.119"/>
	<path d="M97.039,75.167c5.308,0,10.368,1.06,14.976,2.977l-0.701,1.494c-4.526-1.87-9.376-2.83-14.274-2.823
		c-5.058,0-9.879,1.003-14.276,2.823l-0.703-1.494C86.808,76.171,91.899,75.16,97.039,75.167 M34.76,145.259
		c0-2.524,0-2.979,0.034-3.496c0.031-0.566,0.162-0.842,0.599-0.921c0.195-0.033,0.293-0.049,0.407-0.049
		c0.065,0,0.128-0.035,0.128-0.098c0-0.096-0.081-0.129-0.258-0.129c-0.487,0-1.511,0.047-1.592,0.047s-1.104-0.047-1.833-0.047
		c-0.179,0-0.26,0.033-0.26,0.129c0,0.065,0.065,0.098,0.129,0.098c0.146,0,0.422,0.016,0.55,0.049
		c0.537,0.114,0.668,0.371,0.699,0.921c0.035,0.518,0.035,0.972,0.035,3.496v0.338c0,0.082-0.051,0.099-0.099,0.099h-6.882
		c-0.048,0-0.099-0.017-0.099-0.099v-0.338c0-2.524,0-2.979,0.035-3.496c0.031-0.566,0.162-0.842,0.599-0.921
		c0.197-0.033,0.292-0.049,0.406-0.049c0.066,0,0.131-0.035,0.131-0.098c0-0.096-0.083-0.129-0.26-0.129
		c-0.487,0-1.509,0.047-1.591,0.047c-0.083,0-1.104-0.047-1.834-0.047c-0.179,0-0.26,0.033-0.26,0.129
		c0,0.065,0.065,0.098,0.129,0.098c0.146,0,0.423,0.016,0.552,0.049c0.535,0.114,0.667,0.371,0.697,0.921
		c0.034,0.518,0.034,0.972,0.034,3.496v2.846c0,1.555,0,2.832-0.082,3.511c-0.064,0.471-0.146,0.827-0.47,0.891
		c-0.16,0.037-0.323,0.059-0.488,0.063c-0.097,0-0.13,0.049-0.13,0.098c0,0.098,0.081,0.132,0.259,0.132
		c0.488,0,1.509-0.051,1.592-0.051c0.082,0,1.102,0.051,1.997,0.051c0.177,0,0.258-0.051,0.258-0.132
		c0-0.049-0.033-0.098-0.129-0.098c-0.146,0-0.502-0.031-0.73-0.063c-0.487-0.063-0.585-0.42-0.633-0.891
		c-0.083-0.679-0.083-1.956-0.083-3.511v-1.699c0-0.081,0.051-0.096,0.099-0.096H33.3c0.048,0,0.097,0.031,0.097,0.096v1.699
		c0,1.555,0,2.832-0.082,3.511c-0.064,0.471-0.146,0.827-0.47,0.891c-0.16,0.037-0.323,0.059-0.486,0.063
		c-0.099,0-0.131,0.049-0.131,0.098c0,0.098,0.081,0.132,0.26,0.132c0.487,0,1.51-0.051,1.591-0.051s1.105,0.051,1.996,0.051
		c0.179,0,0.261-0.051,0.261-0.132c0-0.049-0.033-0.098-0.129-0.098c-0.146,0-0.504-0.031-0.731-0.063
		c-0.488-0.063-0.586-0.42-0.632-0.891c-0.082-0.679-0.082-1.956-0.082-3.511V145.259 M39.035,146.891
		c0,2.913,1.85,6.359,6.297,6.359c3.912,0,6.476-2.994,6.476-6.616c0-3.771-2.728-6.067-6.378-6.067
		C40.95,140.566,39.035,144.271,39.035,146.891z M40.577,146.438c0-3.543,2.029-5.321,4.739-5.321c2.565,0,4.935,2.086,4.935,5.969
		c0,4.707-3.02,5.551-4.479,5.551c-2.923,0-5.194-2.427-5.194-6.196V146.438z M60.465,141.489l2.041,0.031
		c1.554,0.034,1.945,0.405,1.991,0.891l0.018,0.177c0.017,0.227,0.049,0.275,0.132,0.275c0.065,0,0.118-0.065,0.118-0.21
		c0-0.178,0.048-1.294,0.048-1.778c0-0.099,0-0.194-0.083-0.194c-0.065,0-0.215,0.047-0.459,0.08
		c-0.258,0.048-0.632,0.081-1.15,0.081H57.04c-0.194,0-0.812-0.033-1.283-0.081c-0.438-0.033-0.602-0.194-0.714-0.194
		c-0.065,0-0.13,0.21-0.163,0.309c-0.031,0.128-0.356,1.52-0.356,1.681c0,0.098,0.033,0.146,0.081,0.146
		c0.065,0,0.114-0.032,0.162-0.163c0.05-0.112,0.099-0.225,0.275-0.501c0.262-0.388,0.651-0.501,1.658-0.518l2.401-0.033v6.844
		c0,1.555,0,2.832-0.082,3.511c-0.063,0.469-0.146,0.827-0.47,0.89c-0.16,0.037-0.323,0.061-0.487,0.063
		c-0.098,0-0.131,0.051-0.131,0.1c0,0.096,0.082,0.129,0.26,0.129c0.487,0,1.509-0.049,1.591-0.049c0.082,0,1.103,0.049,1.994,0.049
		c0.179,0,0.258-0.049,0.258-0.129c0-0.049-0.03-0.1-0.128-0.1c-0.145,0-0.503-0.03-0.728-0.063
		c-0.487-0.064-0.585-0.421-0.632-0.89c-0.081-0.679-0.081-1.956-0.081-3.511V141.489 M67.982,148.235c0,1.551,0,2.832-0.081,3.511
		c-0.063,0.468-0.146,0.823-0.47,0.888c-0.16,0.037-0.323,0.061-0.487,0.065c-0.098,0-0.13,0.049-0.13,0.096
		c0,0.1,0.081,0.131,0.26,0.131c0.245,0,0.618-0.031,0.941-0.031c0.341-0.019,0.618-0.019,0.65-0.019
		c0.243,0,0.632,0.019,1.266,0.05c0.633,0.018,1.526,0.049,2.743,0.049c0.634,0,0.762,0,0.878-0.422
		c0.079-0.339,0.208-1.438,0.208-1.566c0-0.114,0-0.243-0.096-0.243c-0.081,0-0.114,0.063-0.146,0.24
		c-0.113,0.665-0.309,0.988-0.73,1.166c-0.421,0.179-1.136,0.179-1.558,0.179c-1.591,0-1.834-0.211-1.885-1.328
		c-0.015-0.338,0-2.215,0-2.765v-1.426c0-0.063,0.035-0.112,0.116-0.112c0.274,0,1.88,0.032,2.319,0.081
		c0.633,0.063,0.78,0.339,0.844,0.567c0.05,0.172,0.073,0.354,0.065,0.533c0,0.081,0.034,0.145,0.113,0.145
		c0.114,0,0.114-0.177,0.114-0.308c0-0.112,0.033-0.711,0.065-1.035c0.048-0.533,0.128-0.809,0.128-0.904
		c0-0.098-0.03-0.13-0.081-0.13c-0.064,0-0.128,0.081-0.243,0.211c-0.146,0.161-0.374,0.194-0.762,0.225
		c-0.374,0.034-2.37,0.034-2.582,0.034c-0.081,0-0.098-0.051-0.098-0.163v-4.464c0-0.113,0.035-0.163,0.098-0.163
		c0.179,0,1.948,0.019,2.224,0.05c0.878,0.095,1.038,0.293,1.153,0.55c0.082,0.193,0.097,0.469,0.097,0.582
		c0,0.129,0.033,0.21,0.131,0.21c0.063,0,0.096-0.098,0.113-0.179c0.031-0.193,0.064-0.905,0.081-1.065
		c0.048-0.454,0.129-0.648,0.129-0.762c0-0.08-0.018-0.146-0.064-0.146c-0.083,0-0.146,0.065-0.227,0.08
		c-0.231,0.046-0.465,0.074-0.699,0.081c-0.373,0.017-3.602,0.017-3.718,0.017L68,140.711c-0.358-0.016-0.795-0.016-1.171-0.016
		c-0.177,0-0.258,0.032-0.258,0.13c0,0.063,0.065,0.098,0.129,0.098c0.146,0,0.423,0.017,0.552,0.047
		c0.535,0.114,0.666,0.373,0.696,0.924c0.035,0.515,0.035,0.97,0.035,3.493v2.849 M77.952,145.259c0-2.524,0-2.979,0.031-3.496
		c0.034-0.566,0.164-0.842,0.633-0.921c0.194-0.033,0.422-0.049,0.536-0.049c0.065,0,0.131-0.035,0.131-0.098
		c0-0.096-0.082-0.129-0.26-0.129c-0.487,0-1.671,0.047-1.752,0.047c-0.082,0-1.104-0.047-1.834-0.047
		c-0.179,0-0.26,0.033-0.26,0.129c0,0.065,0.066,0.098,0.13,0.098c0.146,0,0.422,0.016,0.552,0.049
		c0.536,0.114,0.667,0.371,0.698,0.921c0.031,0.518,0.031,0.972,0.031,3.496v2.846c0,1.555,0,2.832-0.081,3.511
		c-0.064,0.471-0.146,0.827-0.47,0.891c-0.16,0.037-0.323,0.059-0.487,0.063c-0.098,0-0.13,0.049-0.13,0.098
		c0,0.098,0.083,0.132,0.26,0.132c0.244,0,0.603-0.018,0.926-0.036c0.324,0,0.601-0.015,0.666-0.015
		c0.471,0,0.973,0.017,1.655,0.051c0.683,0.015,1.526,0.047,2.695,0.047c0.861,0,0.909-0.064,1.022-0.438
		c0.129-0.471,0.243-1.44,0.243-1.616c0-0.181-0.015-0.244-0.097-0.244c-0.098,0-0.13,0.082-0.146,0.21
		c-0.061,0.354-0.206,0.686-0.422,0.972c-0.39,0.469-1.103,0.484-1.963,0.484c-1.267,0-1.688-0.113-1.949-0.372
		c-0.292-0.292-0.356-1.326-0.356-3.706V145.259 M87.92,153.25c0.878,0,1.754-0.194,2.451-0.681c1.119-0.789,1.38-2.021,1.38-2.684
		c0-1.294-0.455-2.298-2.37-3.804l-0.454-0.353c-1.56-1.214-1.98-1.797-1.98-2.72c0-1.18,0.876-1.876,1.997-1.876
		c1.493,0,1.93,0.68,2.028,0.857c0.098,0.179,0.194,0.615,0.211,0.809c0.018,0.13,0.033,0.21,0.129,0.21
		c0.081,0,0.113-0.11,0.113-0.371c0-1.102,0.066-1.636,0.066-1.715c0-0.08-0.033-0.112-0.164-0.112
		c-0.128,0-0.258-0.019-0.567-0.081c-0.495-0.115-1.001-0.169-1.509-0.163c-2.061,0-3.359,1.182-3.359,2.913
		c0,1.101,0.391,2.103,2.11,3.51l0.731,0.6c1.395,1.147,1.866,1.795,1.866,2.913c0,1.033-0.762,2.151-2.32,2.151
		c-1.087,0-2.16-0.454-2.402-1.651c-0.048-0.229-0.048-0.453-0.048-0.6c0-0.13-0.017-0.177-0.114-0.177
		c-0.082,0-0.113,0.081-0.131,0.259c-0.017,0.258-0.081,0.906-0.081,1.715c0,0.437,0.017,0.501,0.243,0.615
		c0.666,0.322,1.411,0.437,2.175,0.437 M103.216,153.25c2.401,0,3.683-1.376,4.056-1.749c1.787,1.408,2.176,1.522,3.377,1.522h1.59
		c0.146,0,0.276-0.049,0.276-0.114c0-0.096-0.081-0.114-0.229-0.114c-0.584,0-1.409-0.322-1.929-0.629
		c-0.456-0.259-1.169-0.695-2.24-1.6c0.714-0.876,1.606-2.511,1.606-3.82c0-0.161-0.049-0.292-0.293-0.324
		c-0.646-0.07-1.296-0.109-1.947-0.112c-0.131,0-0.26,0.031-0.26,0.112c0,0.082,0.096,0.114,0.194,0.114
		c0.245,0,0.586,0.049,0.795,0.259c0.245,0.242,0.31,0.551,0.31,0.792c0,0.986-0.375,2.072-0.83,2.687
		c-0.518-0.438-2.514-2.299-3.067-2.896c-1.687-1.83-2.564-2.881-2.564-4.143c0-1.521,1.087-2.118,2.061-2.118
		c0.714,0,1.266,0.34,1.624,0.71c0.404,0.423,0.502,0.956,0.502,1.378c0,0.24,0.017,0.306,0.097,0.306
		c0.066,0,0.114-0.033,0.162-0.275c0.048-0.242,0.114-1.375,0.114-1.859c0-0.194-0.017-0.292-0.21-0.406
		c-0.439-0.242-1.136-0.403-1.966-0.403c-2.173,0-3.488,1.697-3.488,2.978c0,0.727,0.194,1.391,0.795,2.232
		c-1.267,0.743-2.483,2.003-2.483,3.897C99.271,151.081,100.375,153.25,103.216,153.25L103.216,153.25z M103.784,152.394
		c-1.819,0-3.246-1.457-3.246-3.481c0-1.29,0.616-2.166,1.459-2.716c0.455,0.664,1.494,1.813,1.916,2.264
		c0.938,0.957,1.918,1.868,2.938,2.735C106.3,151.762,105.293,152.394,103.784,152.394L103.784,152.394z M119.614,148.104
		c0,1.555,0,2.832-0.08,3.511c-0.064,0.471-0.148,0.827-0.471,0.891c-0.16,0.037-0.323,0.059-0.487,0.063
		c-0.098,0-0.132,0.049-0.132,0.098c0,0.098,0.081,0.132,0.261,0.132c0.487,0,1.51-0.051,1.528-0.051
		c0.08,0,1.103,0.051,1.995,0.051c0.176,0,0.259-0.051,0.259-0.132c0-0.049-0.032-0.098-0.13-0.098
		c-0.146,0-0.503-0.031-0.729-0.063c-0.487-0.063-0.585-0.42-0.634-0.891c-0.08-0.679-0.08-1.956-0.08-3.511v-0.389
		c0-0.081,0.031-0.128,0.112-0.128l1.997,0.03c0.097,0,0.147,0.035,0.21,0.098c0.324,0.42,1.087,1.506,1.77,2.396
		c0.926,1.213,1.492,2.006,2.191,2.378c0.424,0.225,0.827,0.31,1.738,0.31h1.152c0.291,0,0.387-0.036,0.387-0.132
		c0-0.049-0.063-0.098-0.145-0.098c-0.098,0-0.326,0-0.632-0.047c-0.406-0.065-1.105-0.242-1.979-1.166
		c-0.945-1.002-2.048-2.444-3.379-4.14c1.463-1.343,1.965-2.54,1.965-3.739c0-1.116-0.714-1.908-1.117-2.199
		c-0.86-0.614-1.951-0.712-2.974-0.712c-0.502,0-1.736,0.047-1.914,0.047c-0.082,0-1.104-0.047-1.835-0.047
		c-0.179,0-0.259,0.033-0.259,0.129c0,0.065,0.065,0.098,0.129,0.098c0.146,0,0.422,0.016,0.553,0.049
		c0.535,0.114,0.666,0.371,0.699,0.921c0.03,0.518,0.03,0.972,0.03,3.496V148.104L119.614,148.104z M120.914,141.376
		c0-0.098,0.049-0.163,0.129-0.194c0.163-0.049,0.602-0.098,1.088-0.098c1.737,0,2.809,1.213,2.809,3.237
		c0,1.227-0.424,2.101-0.992,2.488c-0.373,0.258-0.827,0.308-1.217,0.308c-0.714,0-1.461-0.112-1.704-0.257
		c-0.07-0.039-0.116-0.112-0.112-0.195V141.376z M131.662,148.235c0,1.551,0,2.832-0.081,3.511
		c-0.063,0.468-0.147,0.823-0.471,0.888c-0.159,0.037-0.322,0.061-0.487,0.065c-0.098,0-0.131,0.049-0.131,0.096
		c0,0.1,0.084,0.131,0.261,0.131c0.243,0,0.616-0.031,0.94-0.031c0.342-0.019,0.619-0.019,0.65-0.019
		c0.242,0,0.633,0.019,1.266,0.05c0.634,0.018,1.526,0.049,2.743,0.049c0.634,0,0.762,0,0.879-0.422
		c0.077-0.339,0.209-1.438,0.209-1.566c0-0.114,0-0.243-0.098-0.243c-0.081,0-0.114,0.063-0.146,0.24
		c-0.112,0.665-0.308,0.988-0.731,1.166c-0.42,0.179-1.134,0.179-1.556,0.179c-1.592,0-1.836-0.211-1.883-1.328
		c-0.017-0.338,0-2.215,0-2.765v-1.426c0-0.063,0.032-0.112,0.114-0.112c0.274,0,1.883,0.032,2.319,0.081
		c0.632,0.063,0.78,0.339,0.844,0.567c0.051,0.172,0.072,0.354,0.064,0.533c0,0.081,0.035,0.145,0.114,0.145
		c0.114,0,0.114-0.177,0.114-0.308c0-0.112,0.033-0.711,0.063-1.035c0.049-0.533,0.13-0.809,0.13-0.904
		c0-0.098-0.03-0.13-0.081-0.13c-0.063,0-0.129,0.081-0.244,0.211c-0.145,0.161-0.373,0.194-0.761,0.225
		c-0.373,0.034-2.37,0.034-2.582,0.034c-0.08,0-0.096-0.051-0.096-0.163v-4.464c0-0.113,0.032-0.163,0.096-0.163
		c0.18,0,1.948,0.019,2.224,0.05c0.878,0.095,1.039,0.293,1.153,0.55c0.081,0.193,0.098,0.469,0.098,0.582
		c0,0.129,0.033,0.21,0.131,0.21c0.063,0,0.094-0.098,0.112-0.179c0.032-0.193,0.065-0.905,0.081-1.065
		c0.049-0.454,0.129-0.648,0.129-0.762c0-0.08-0.017-0.146-0.063-0.146c-0.081,0-0.146,0.065-0.227,0.08
		c-0.23,0.046-0.466,0.074-0.699,0.081c-0.373,0.017-3.602,0.017-3.718,0.017l-0.664-0.033c-0.358-0.016-0.795-0.016-1.17-0.016
		c-0.178,0-0.259,0.032-0.259,0.13c0,0.063,0.065,0.098,0.13,0.098c0.146,0,0.422,0.017,0.553,0.047
		c0.534,0.114,0.665,0.373,0.697,0.924c0.032,0.515,0.032,0.97,0.032,3.493V148.235 M142.993,153.25
		c0.879,0,1.755-0.194,2.452-0.681c1.118-0.789,1.38-2.021,1.38-2.684c0-1.294-0.455-2.298-2.37-3.804l-0.453-0.353
		c-1.56-1.214-1.98-1.797-1.98-2.72c0-1.18,0.878-1.876,1.997-1.876c1.492,0,1.93,0.68,2.026,0.857
		c0.098,0.179,0.195,0.615,0.212,0.809c0.018,0.13,0.034,0.21,0.13,0.21c0.08,0,0.112-0.11,0.112-0.371
		c0-1.102,0.067-1.636,0.067-1.715c0-0.08-0.033-0.112-0.165-0.112c-0.127,0-0.259-0.019-0.567-0.081
		c-0.494-0.115-1.002-0.169-1.51-0.163c-2.061,0-3.358,1.182-3.358,2.913c0,1.101,0.391,2.103,2.109,3.51l0.731,0.6
		c1.396,1.147,1.865,1.795,1.865,2.913c0,1.033-0.763,2.151-2.319,2.151c-1.089,0-2.161-0.454-2.403-1.651
		c-0.047-0.229-0.047-0.453-0.047-0.6c0-0.13-0.017-0.177-0.116-0.177c-0.08,0-0.112,0.081-0.129,0.259
		c-0.017,0.258-0.081,0.906-0.081,1.715c0,0.437,0.017,0.501,0.242,0.615c0.666,0.322,1.412,0.437,2.175,0.437 M147.461,146.891
		c0,2.913,1.85,6.359,6.297,6.359c3.911,0,6.477-2.994,6.477-6.616c0-3.771-2.729-6.067-6.379-6.067
		C149.377,140.566,147.461,144.271,147.461,146.891z M149.004,146.438c0-3.543,2.028-5.321,4.739-5.321
		c2.564,0,4.931,2.086,4.931,5.969c0,4.707-3.019,5.551-4.477,5.551c-2.923,0-5.193-2.427-5.193-6.196V146.438z M164.361,148.104
		c0,1.555,0,2.832-0.08,3.511c-0.064,0.471-0.148,0.827-0.471,0.891c-0.16,0.037-0.322,0.059-0.487,0.063
		c-0.098,0-0.131,0.049-0.131,0.098c0,0.098,0.08,0.132,0.26,0.132c0.487,0,1.51-0.051,1.528-0.051c0.08,0,1.099,0.051,1.995,0.051
		c0.176,0,0.259-0.051,0.259-0.132c0-0.049-0.032-0.098-0.13-0.098c-0.146,0-0.502-0.031-0.729-0.063
		c-0.487-0.063-0.585-0.42-0.634-0.891c-0.08-0.679-0.08-1.956-0.08-3.511v-0.389c0-0.081,0.032-0.128,0.112-0.128l1.997,0.03
		c0.098,0,0.147,0.035,0.21,0.098c0.324,0.42,1.087,1.506,1.77,2.396c0.926,1.213,1.492,2.006,2.191,2.378
		c0.424,0.225,0.827,0.31,1.738,0.31h1.149c0.294,0,0.39-0.036,0.39-0.132c0-0.049-0.063-0.098-0.146-0.098
		c-0.096,0-0.324,0-0.631-0.047c-0.406-0.065-1.105-0.242-1.979-1.166c-0.944-1.002-2.049-2.444-3.378-4.14
		c1.462-1.343,1.965-2.54,1.965-3.739c0-1.116-0.715-1.908-1.121-2.199c-0.861-0.614-1.948-0.712-2.971-0.712
		c-0.502,0-1.735,0.047-1.914,0.047c-0.082,0-1.104-0.047-1.835-0.047c-0.179,0-0.259,0.033-0.259,0.129
		c0,0.065,0.065,0.098,0.129,0.098c0.146,0,0.422,0.016,0.55,0.049c0.538,0.114,0.669,0.371,0.699,0.921
		c0.033,0.518,0.033,0.972,0.033,3.496V148.104L164.361,148.104z M165.661,141.376c0-0.098,0.049-0.163,0.129-0.194
		c0.163-0.049,0.601-0.098,1.088-0.098c1.737,0,2.807,1.213,2.807,3.237c0,1.227-0.422,2.101-0.99,2.488
		c-0.373,0.258-0.826,0.308-1.217,0.308c-0.714,0-1.46-0.112-1.704-0.257c-0.07-0.039-0.116-0.112-0.112-0.195V141.376z
		 M179.218,141.489l2.042,0.031c1.553,0.034,1.942,0.405,1.99,0.891l0.017,0.177c0.017,0.227,0.05,0.275,0.133,0.275
		c0.067,0,0.117-0.065,0.117-0.21c0-0.178,0.049-1.294,0.049-1.778c0-0.099,0-0.194-0.084-0.194c-0.063,0-0.215,0.047-0.457,0.08
		c-0.259,0.048-0.632,0.081-1.149,0.081h-6.083c-0.193,0-0.812-0.033-1.282-0.081c-0.438-0.033-0.6-0.194-0.714-0.194
		c-0.065,0-0.13,0.21-0.161,0.309c-0.036,0.128-0.358,1.52-0.358,1.681c0,0.098,0.033,0.146,0.081,0.146
		c0.065,0,0.114-0.032,0.161-0.163c0.05-0.112,0.099-0.225,0.277-0.501c0.259-0.388,0.65-0.501,1.655-0.518l2.403-0.033v6.844
		c0,1.555,0,2.832-0.084,3.511c-0.063,0.469-0.145,0.827-0.469,0.89c-0.16,0.038-0.323,0.061-0.486,0.063
		c-0.099,0-0.131,0.051-0.131,0.1c0,0.096,0.081,0.129,0.259,0.129c0.487,0,1.511-0.049,1.594-0.049c0.08,0,1.099,0.049,1.991,0.049
		c0.18,0,0.259-0.049,0.259-0.129c0-0.049-0.031-0.1-0.129-0.1c-0.145,0-0.501-0.03-0.728-0.063
		c-0.488-0.064-0.584-0.421-0.633-0.89c-0.08-0.679-0.08-1.956-0.08-3.511V141.489 M187.74,153.25c0.879,0,1.755-0.194,2.452-0.681
		c1.121-0.789,1.38-2.021,1.38-2.684c0-1.294-0.453-2.298-2.369-3.804l-0.454-0.353c-1.559-1.214-1.98-1.797-1.98-2.72
		c0-1.18,0.878-1.876,1.997-1.876c1.492,0,1.93,0.68,2.027,0.857c0.098,0.179,0.194,0.615,0.212,0.809
		c0.017,0.13,0.033,0.21,0.129,0.21c0.081,0,0.112-0.11,0.112-0.371c0-1.102,0.067-1.636,0.067-1.715
		c0-0.08-0.033-0.112-0.161-0.112c-0.131,0-0.262-0.019-0.568-0.081c-0.495-0.115-1.001-0.169-1.509-0.163
		c-2.064,0-3.361,1.182-3.361,2.913c0,1.101,0.39,2.103,2.109,3.51l0.73,0.6c1.396,1.147,1.866,1.795,1.866,2.913
		c0,1.033-0.764,2.151-2.319,2.151c-1.09,0-2.162-0.454-2.404-1.651c-0.047-0.229-0.047-0.453-0.047-0.6
		c0-0.13-0.017-0.177-0.114-0.177c-0.082,0-0.114,0.081-0.131,0.259c-0.017,0.258-0.081,0.906-0.081,1.715
		c0,0.437,0.018,0.501,0.242,0.615c0.666,0.322,1.414,0.437,2.175,0.437"/>
</g>
</svg>
