<?xml version="1.0" encoding="utf-8"?>
<!DOCTYPE svg PUBLIC "-//W3C//DTD SVG 1.1//EN" "http://www.w3.org/Graphics/SVG/1.1/DTD/svg11.dtd">
<svg version="1.1" id="Layer_1" xmlns="http://www.w3.org/2000/svg" xmlns:xlink="http://www.w3.org/1999/xlink" x="0px" y="0px" width="216px" height="216px" viewBox="1142 159 216 216" enable-background="new 1142 159 216 216" xml:space="preserve">
<path fill="#00925C" d="M1143.5,373.805h212.958V160.846H1143.5V373.805z"/>
<path fill="#FFFFFF" d="M1264.36,184.427c5.814,2.43,29.238,15.219,32.187,19.201c-12.43,1.634-36.091,8.685-48.082,14.978
	c13.745-3.028,32.905-4.62,46.049-5.299c-5.138,7.572-7.927,11.434-16.254,20.475c14.263-8.563,18.205-9.16,31.393-16.849
	c4.938,7.329,6.215,24.34,6.413,37.803c4.301-8.565,9.521-40.711,7.328-46.527c7.929-5.179,7.929-7.251,10-10.796
	c-8.007,0.717-12.509,0.838-16.852,2.192C1305.55,192.834,1282.842,185.862,1264.36,184.427L1264.36,184.427z M1233.13,225.18
	c-3.546,0.515-13.625,5.017-20.316,10.316c0,0-4.423-0.559-11.872-0.319c-7.447,0.319-17.168,2.192-20.913,3.747
	c7.251,0.317,17.13,2.15,20.913,5.934c0,0-11.072,9.958-21.87,31.709c0,0,19.879-18.484,28.404-23.105c0,0,4.381,15.06,7.488,22.506
	c0,0,2.79-17.327,7.331-27.325c0,0,1.274-0.797,7.648-1.395c6.294-0.557,15.216-0.956,32.346,2.032c0,0-15.696-9.958-35.135-12.668
	C1227.949,233.943,1230.698,228.206,1233.13,225.18z M1177.241,284.215c-1.235,10.676-1.673,18.482-0.16,27.009
	c-4.86,1.315-8.326,2.428-12.349,4.223c5.617,3.467,10.237,6.174,16.573,9.041c3.306,7.211,6.73,11.991,12.347,17.487
	c-1.313-4.697-1.592-8.483-1.076-13.423c7.052,2.072,12.947,3.187,20.915,3.425c-7.61-2.827-13.066-6.091-19.042-11.712
	c1.794-4.9,3.865-8.841,7.171-13.739c-6.135,0.876-10.637,1.63-15.934,2.666C1181.344,301.662,1179.43,294.334,1177.241,284.215z
	 M1270.613,317.477c-5.377,3.786-10.036,6.731-16.251,9.682c-0.319-2.91-0.518-5.338-0.639-8.607
	c-3.505,4.662-6.452,8.205-10.317,12.511c-6.572,1.791-11.75,2.466-18.125,2.507c3.865,2.032,7.808,3.229,11.872,4.064
	c-4.063,3.703-7.609,6.374-11.552,8.886c6.691-1.595,15.376-4.462,21.87-8.288c3.386,0.118,6.732-0.041,9.042-0.479
	c-0.557-1.991-0.995-3.503-1.554-6.096C1261.172,326.918,1265.553,322.657,1270.613,317.477L1270.613,317.477z"/>
</svg>
