<?xml version="1.0" encoding="utf-8"?>
<!DOCTYPE svg PUBLIC "-//W3C//DTD SVG 1.1//EN" "http://www.w3.org/Graphics/SVG/1.1/DTD/svg11.dtd">
<svg version="1.1" id="Layer_1" xmlns="http://www.w3.org/2000/svg" xmlns:xlink="http://www.w3.org/1999/xlink" x="0px" y="0px" width="216px" height="216px" viewBox="0 0 216 216" enable-background="new 0 0 216 216" xml:space="preserve">
<g>
	<path fill-rule="evenodd" clip-rule="evenodd" fill="#5BC4BF" d="M108.642,0.358L108.642,0.358c59.399,0,108,48.6,108,108l0,0
		c0,59.399-48.601,108-108,108l0,0c-59.4,0-108-48.601-108-108l0,0C0.642,48.958,49.242,0.358,108.642,0.358z"/>
	<polygon fill-rule="evenodd" clip-rule="evenodd" fill="#FFFFFF" points="101.311,79.442 74.411,80.656 50.279,57.997 
		82.718,59.21 	"/>
	<polygon fill-rule="evenodd" clip-rule="evenodd" fill="#FFFFFF" points="104.476,75.8 84.696,57.592 83.114,24.008 
		105.663,48.286 	"/>
	<polygon fill-rule="evenodd" clip-rule="evenodd" fill="#FFFFFF" points="112.783,79.442 139.289,80.656 163.42,57.997 
		130.98,59.21 	"/>
	<polygon fill-rule="evenodd" clip-rule="evenodd" fill="#FFFFFF" points="109.224,75.8 129.398,57.592 130.585,24.008 
		108.036,48.286 	"/>
	<polygon fill-rule="evenodd" clip-rule="evenodd" fill="#FFFFFF" points="101.311,84.297 74.411,83.083 50.279,105.743 
		82.718,104.529 	"/>
	<polygon fill-rule="evenodd" clip-rule="evenodd" fill="#FFFFFF" points="104.476,87.939 84.696,106.147 83.114,139.731 
		105.663,115.454 	"/>
	<polygon fill-rule="evenodd" clip-rule="evenodd" fill="#FFFFFF" points="112.783,84.297 139.289,83.083 163.42,105.743 
		130.98,104.529 	"/>
	<polygon fill-rule="evenodd" clip-rule="evenodd" fill="#FFFFFF" points="109.224,87.939 129.398,106.147 130.585,139.731 
		108.036,115.454 	"/>
	<path fill-rule="evenodd" clip-rule="evenodd" fill="#FFFFFF" d="M90.506,177.461c-0.561,0-0.996,0.212-1.305,0.632
		c-0.307,0.423-0.461,1.011-0.461,1.766c0,1.569,0.59,2.354,1.767,2.354c0.494,0,1.093-0.123,1.796-0.371v1.252
		c-0.577,0.239-1.223,0.361-1.936,0.361c-1.023,0-1.806-0.311-2.348-0.932c-0.542-0.621-0.813-1.514-0.813-2.676
		c0-0.73,0.133-1.372,0.399-1.922c0.267-0.551,0.649-0.973,1.149-1.268c0.498-0.292,1.083-0.439,1.753-0.439
		c0.683,0,1.37,0.165,2.06,0.496l-0.481,1.213c-0.263-0.125-0.527-0.233-0.793-0.327S90.764,177.461,90.506,177.461L90.506,177.461z
		 M118.002,177.461c-0.561,0-0.996,0.212-1.305,0.632c-0.308,0.423-0.462,1.011-0.462,1.766c0,1.569,0.59,2.354,1.767,2.354
		c0.494,0,1.093-0.123,1.796-0.371v1.252c-0.577,0.239-1.223,0.361-1.936,0.361c-1.024,0-1.807-0.311-2.349-0.932
		s-0.813-1.514-0.813-2.676c0-0.73,0.134-1.372,0.399-1.922c0.267-0.551,0.649-0.973,1.148-1.268
		c0.498-0.292,1.083-0.439,1.754-0.439c0.684,0,1.37,0.165,2.061,0.496l-0.481,1.213c-0.263-0.125-0.527-0.233-0.794-0.327
		S118.26,177.461,118.002,177.461L118.002,177.461z M77.941,179.949c0-1.512-0.667-2.268-2.002-2.268h-0.795v4.583h0.641
		C77.223,182.265,77.941,181.492,77.941,179.949L77.941,179.949z M79.492,179.91c0,1.158-0.33,2.046-0.989,2.661
		c-0.66,0.617-1.612,0.926-2.857,0.926h-1.993v-7.038h2.21c1.148,0,2.041,0.303,2.677,0.91
		C79.174,177.976,79.492,178.822,79.492,179.91L79.492,179.91z M56.192,176.553l0.16-0.159h0.479l2.237,4.793l2.237-4.793h0.479
		l1.119,6.871c0.16,0.159,0,0.319-0.16,0.319h-0.959l-0.16-0.16l-0.639-3.835l-1.758,3.835l-0.16,0.16h-0.16l-0.16-0.16
		l-1.758-3.835h-0.16l-0.479,3.835h-1.119c-0.16,0.16-0.16,0-0.16-0.159L56.192,176.553L56.192,176.553z M65.939,176.553l0.16-0.159
		h4.155l0.16,0.159v0.959l-0.32,0.16h-2.876v1.598h2.397l0.319,0.159v0.959l-0.319,0.16h-2.397v1.758h3.036l0.16,0.159v0.8
		l-0.32,0.319h-3.995l-0.16-0.319V176.553L65.939,176.553z M82.398,176.553l0.16-0.159h0.959l0.16,0.159v6.712l-0.16,0.319h-0.959
		l-0.16-0.319V176.553L82.398,176.553z M94.862,183.265l3.036-6.871h0.479l3.196,6.871l-0.16,0.319h-0.959l-0.319-0.319
		l-0.479-1.119H96.62l-0.479,1.119l-0.32,0.159h-0.799C94.862,183.584,94.703,183.424,94.862,183.265L94.862,183.265z
		 M99.177,181.027l-0.959-2.078h-0.16l-0.959,2.078H99.177L99.177,181.027z M103.971,176.553l0.16-0.159h0.959l0.16,0.159v5.753
		h2.557l0.319,0.159v0.8l-0.319,0.159h-3.675l-0.16-0.159V176.553L103.971,176.553z M122.986,176.553l0.159-0.159h4.155l0.159,0.159
		v0.959l-0.159,0.16h-3.036v1.598h2.557l0.16,0.159v0.959l-0.16,0.16h-2.557v1.758h3.036l0.159,0.159v0.8l-0.159,0.319h-4.155
		l-0.159-0.319V176.553L122.986,176.553z M130.496,176.553l0.16-0.159h0.319l4.155,4.474v-4.314l0.16-0.159h0.958l0.16,0.319v6.711
		l-0.16,0.16h-0.319l-4.154-4.635v4.315l-0.16,0.159h-0.959l-0.16-0.159V176.553L130.496,176.553z M140.724,177.672h-1.599
		l-0.159-0.16v-0.959l0.159-0.159h4.475l0.16,0.159v0.959l-0.16,0.16h-1.598v5.593l-0.16,0.319h-0.958l-0.16-0.319V177.672
		L140.724,177.672z M146.316,176.553l0.16-0.159h4.154l0.159,0.159v0.959l-0.159,0.16h-3.036v1.598h2.557l0.16,0.159v0.959
		l-0.16,0.16h-2.557v1.758h3.036l0.159,0.159v0.8l-0.159,0.319h-4.154l-0.16-0.319V176.553L146.316,176.553z M153.826,176.553
		l0.16-0.159h2.876c1.279,0,2.237,0.958,2.237,2.236c0,0.959-0.639,1.599-1.598,2.078l1.438,2.557c0.159,0.159,0,0.319-0.16,0.319
		h-0.959l-0.159-0.16l-1.438-2.716h-1.118v2.557l-0.16,0.159h-0.959l-0.16-0.159V176.553L153.826,176.553z M156.703,179.589
		c0.639,0,1.118-0.319,1.118-0.959c0-0.479-0.479-0.958-1.118-0.958h-1.598v1.917H156.703z"/>
	<path fill-rule="evenodd" clip-rule="evenodd" fill="#FFFFFF" d="M56.352,170.001l1.278-2.237c0.16-0.479,0.799-0.319,0.959-0.159
		c0,0,1.917,1.438,3.835,1.438c0.958,0,1.758-0.64,1.758-1.599c0-1.118-0.959-2.077-2.717-2.716
		c-2.396-0.959-5.273-2.717-5.273-6.072c0-2.558,2.077-5.273,6.232-5.273c2.876,0,4.954,1.438,5.752,1.917
		c0.32,0.32,0.32,0.799,0.16,0.959l-1.278,2.077c-0.32,0.32-0.799,0.479-0.959,0.32c-0.319-0.16-2.237-1.599-3.835-1.599
		c-0.959,0-1.758,0.64-1.758,1.438c0,0.959,0.799,1.758,3.036,2.557c2.077,0.799,5.433,2.396,5.433,6.072
		c0,2.876-2.396,5.593-6.392,5.593c-3.515,0-5.433-1.438-6.072-2.077C56.192,170.48,56.192,170.321,56.352,170.001L56.352,170.001z
		 M77.924,153.702l0.479-0.319h0.479l0.319,0.159l6.232,11.665h0.16l6.232-11.665l0.479-0.159h0.479l0.479,0.319l3.036,18.217
		c0,0.319-0.16,0.479-0.479,0.479h-3.196l-0.639-0.319l-1.119-8.31h-0.16l-4.474,8.629l-0.479,0.319h-0.479l-0.479-0.319
		l-4.474-8.629l-1.278,8.31c0,0.159-0.16,0.319-0.479,0.319h-3.196c-0.319,0-0.479-0.16-0.479-0.479L77.924,153.702L77.924,153.702z
		 M101.894,171.759l8.469-18.057c0-0.16,0.16-0.319,0.479-0.319h0.16c0.159,0,0.479,0,0.479,0.319l8.47,18.057
		c0.159,0.32,0,0.64-0.479,0.64h-3.036c-0.479,0.159-0.639,0-0.959-0.64l-0.959-2.077h-7.35l-0.958,2.237
		c0,0.319-0.32,0.639-0.959,0.639h-2.876C101.894,172.558,101.733,172.079,101.894,171.759L101.894,171.759z M112.919,166.007
		l-2.077-4.475l-1.917,4.475H112.919L112.919,166.007z M126.022,154.182c0-0.32,0.319-0.64,0.639-0.64h7.99
		c3.196,0,5.912,2.717,5.912,5.913c0,2.396-1.758,4.474-3.995,5.433l3.676,6.712c0.16,0.479,0,0.799-0.479,0.799h-3.516l-0.479-0.16
		l-3.675-7.19h-1.758v6.871c0,0.319-0.319,0.479-0.479,0.479h-3.196c-0.319,0-0.639-0.16-0.639-0.479V154.182L126.022,154.182z
		 M134.331,161.691c1.119,0,2.078-1.118,2.078-2.236c0-1.119-0.959-2.078-2.078-2.078h-3.994v4.314H134.331L134.331,161.691z
		 M150.631,157.537h-3.835c-0.319,0-0.479-0.16-0.479-0.479v-2.876c0-0.32,0.16-0.64,0.479-0.64h11.984
		c0.319,0,0.479,0.319,0.479,0.64v2.876c0,0.319-0.16,0.479-0.479,0.479h-3.835v14.382c0,0.319-0.319,0.639-0.64,0.639h-3.195
		c-0.16,0-0.479-0.319-0.479-0.639V157.537z"/>
</g>
</svg>
