<?xml version="1.0" encoding="utf-8"?>
<!DOCTYPE svg PUBLIC "-//W3C//DTD SVG 1.1//EN" "http://www.w3.org/Graphics/SVG/1.1/DTD/svg11.dtd">
<svg version="1.1" id="Layer_1" xmlns="http://www.w3.org/2000/svg" xmlns:xlink="http://www.w3.org/1999/xlink" x="0px" y="0px" width="216px" height="216px" viewBox="0 0 216 216" enable-background="new 0 0 216 216" xml:space="preserve">
<rect fill="#E00028" width="216" height="216"/>
<g>
	<path fill="#FFFFFF" d="M42.49,122.859H25.14c-7.009,0-12.618-5.694-12.618-12.616c0-3.066,1.14-5.958,3.067-8.325
		c2.017-2.277,4.732-3.768,7.799-4.205l19.978-2.979v-1.404c0-1.487-0.613-2.892-1.752-3.856c-1.139-0.962-2.541-1.488-4.031-1.313
		l-18.138,2.19c-2.366,0.264-4.468-1.401-4.73-3.767c-0.264-2.366,1.401-4.556,3.767-4.819l18.05-2.103l0,0
		c3.855-0.438,7.798,0.789,10.69,3.418c2.892,2.628,4.556,6.394,4.556,10.25v20.154C51.866,118.655,47.66,122.859,42.49,122.859
		 M43.278,103.41l-18.663,2.804l0,0c-2.015,0.261-3.505,2.016-3.505,4.03c0,2.191,1.84,4.03,4.03,4.03h17.35
		c0.438,0,0.788-0.351,0.788-0.789V103.41z"/>
	<path fill="#FFFFFF" d="M99.533,122.859c-1.927,0-3.769-1.225-4.382-3.241l-8.763-27.424c-0.35-0.964-0.963-1.842-1.752-2.455
		c-1.84-1.401-4.381-1.401-6.221,0c-0.877,0.613-1.49,1.491-1.753,2.455l-8.762,27.424c-0.789,2.455-3.33,3.769-5.782,2.981
		c-2.455-0.789-3.769-3.332-2.98-5.783l8.762-27.428c0.877-2.804,2.628-5.257,5.082-7.097c2.366-1.752,5.346-2.716,8.5-2.716
		c3.154,0,6.133,0.963,8.587,2.803c2.366,1.753,4.119,4.206,5.082,7.096l8.762,27.429c0.789,2.451-0.525,4.993-2.979,5.785
		C100.498,122.772,99.971,122.859,99.533,122.859"/>
	<path fill="#FFFFFF" d="M151.406,122.859c-1.929,0-3.77-1.225-4.381-3.241l-8.764-27.424c-0.35-0.964-0.965-1.842-1.75-2.455
		c-1.842-1.401-4.384-1.401-6.225,0c-0.874,0.613-1.487,1.491-1.751,2.455l-8.762,27.424c-0.79,2.455-3.332,3.769-5.783,2.981
		c-2.454-0.789-3.769-3.332-2.981-5.783l8.765-27.428c0.874-2.804,2.629-5.257,5.081-7.097c2.54-1.84,5.522-2.804,8.587-2.804
		c3.155,0,6.134,0.964,8.588,2.804c2.364,1.752,4.119,4.205,5.082,7.097l8.762,27.428c0.79,2.451-0.527,4.994-2.978,5.783
		C152.368,122.772,151.933,122.859,151.406,122.859"/>
	<path fill="#FFFFFF" d="M182.948,123.124c-12.089,0-21.904-9.814-21.904-21.905c0-12.093,9.815-21.906,21.904-21.906
		c12.093,0,21.907,9.813,21.907,21.906C204.855,113.31,194.955,123.124,182.948,123.124 M182.948,87.9
		c-7.27,0-13.229,5.958-13.229,13.319s5.96,13.317,13.229,13.317c7.275,0,13.233-5.957,13.233-13.317S190.224,87.9,182.948,87.9"/>
	<path fill="#FFFFFF" d="M182.948,107.788L182.948,107.788c-3.679,0-6.569-2.891-6.569-6.569l0,0c0-3.592,2.891-6.572,6.569-6.572
		l0,0c3.595,0,6.574,2.891,6.574,6.572l0,0C189.434,104.81,186.543,107.788,182.948,107.788"/>
</g>

</svg>
