<?xml version="1.0" encoding="utf-8"?>
<!DOCTYPE svg PUBLIC "-//W3C//DTD SVG 1.1//EN" "http://www.w3.org/Graphics/SVG/1.1/DTD/svg11.dtd">
<svg version="1.1" xmlns="http://www.w3.org/2000/svg" xmlns:xlink="http://www.w3.org/1999/xlink" x="0px" y="0px" width="216px" height="216px" viewBox="0 0 216 216" enable-background="new 0 0 216 216" xml:space="preserve">
<g>
	<path fill-rule="evenodd" clip-rule="evenodd" fill="#84C558" d="M2,1.592h213v213H2V1.592L2,1.592z M109.189,117.322
		c0.342,0.891,0.686,1.782,1.08,2.651c0.611,1.353,1.538,2.888,2.091,4.24c0.216,0.528,0.878,0.912,0.413,1.26
		c-1.335,0.996-2.285,1.498-3.389,2.356c-1.262,0.981-2.055,2.638-3.535,3.24c-1.364,0.556-3.001-0.153-4.419,0.246
		c-1.033,0.291-1.672,0.868-2.259,1.768c-0.265,0.405-0.657,1.025-0.671,1.627c-0.013,0.602,0.039,1.281,0.523,1.27
		c3.46-0.082,6.467,0.11,10.065,0c0.676-0.021,1.43-0.079,1.965-0.491c1.521-1.172,3.094-3.067,4.664-4.173
		c2.012-1.415,3.854-1.991,5.941-3.29c0.387-0.24,0.732-1.16,0.541-1.571c-0.803-1.712-1.426-3.815-1.352-5.99
		c0.068-2.008-0.086-4.386-0.045-6.186c0.014-0.641,0.109-1.104-0.494-1.449c-0.518-0.297-1.389-0.014-1.949,0.095
		c-3.463,0.67-5.398,1.066-8.117,1.869C109.332,115.063,108.832,116.396,109.189,117.322L109.189,117.322z M149.156,77.355
		c-4.482,0.843-8.775,2.091-11.391,5.205c-1.15,1.367-1.736,3.372-1.277,5.205c3.338,3.011,7.352,5.412,10.016,9.034
		c1.244,1.691,2.346,4.899,0.688,6.187c-2.063,1.601-4.607-0.412-7.07-1.276c-1.279-0.449-2.461-1.33-3.516-2.155
		c-0.703-0.55-1.023-0.469-0.742,0.58c0.504,1.867,1.029,3.682,2.441,4.914c1.867,1.628,4.547,2.11,7.021,2.013
		c1.947-0.076,4.229-0.667,5.107-2.406c1.15-2.28,0.693-5.266-0.197-7.66c-0.877-2.353-2.9-3.868-4.787-5.524
		c-1.924-1.69-3.977-2.616-5.771-4.443c-0.65-0.664-0.686-1.536,0.1-2.333c1.463-1.484,4.154-0.505,5.941-1.399
		c1.67-0.834,2.477-1.954,3.289-3.633C149.285,79.091,149.287,77.978,149.156,77.355L149.156,77.355z M71.86,80.126
		c-0.5,0.684-0.716,0.829-0.145,1.448c1.37,1.487,2.765,2.936,4.135,4.422c0.196,0.098,0.785,0.505,1.178,0.147
		c0.949-0.884,1.304-1.661,2.468-2.232c0.764-0.375,1.63-0.463,2.209,0.16c0.624,0.671,0.501,1.298,0.098,2.121
		c-0.429,0.877-0.998,1.269-1.964,1.41c-0.575,0.084-0.701-0.383-1.241-0.611c-1.405-0.594-1.468,0.35-1.116,1.326
		c0.508,1.41,1.244,2.793,2.344,3.571c0.16,0.114,0.446,0.135,0.589,0c1.046-0.986,1.646-2.45,2.848-3.24
		c0.329-0.217,1.042,0.425,0.884,0.786c-2.607,5.922-6.642,11.197-8.838,17.283c-0.605,1.677-0.089,3.698,0.688,5.303
		c1.032,2.134,2.591,4.064,4.481,5.368c1.104,0.762,1.137,0.481,0.209,1.55c-1.294,1.491-2.559,2.993-3.685,4.62
		c-1.667,2.411-2.07,4.37-3.51,6.924c-0.337,0.419-0.981,0.696-1.5,0.693c-1.782-0.012-3.612,0.039-5.128,0.092
		c-1.08,0.229-1.639,0.462-2.26,1.374c-0.737,1.083-0.939,1.516-0.907,2.825c0.088,0.494,0.52,0.399,0.779,0.403
		c4.261,0.061,8.54,0.139,12.8,0.2c0.75,0.011,0.702-0.017,1.122-0.643c1.72-2.565,3.773-5.615,6.142-7.597
		c5.606-4.689,10.44-9.285,17.381-12.079c6.232-2.508,12.689-4.531,19.443-5.303c0.668-0.076,1.34,0.717,1.473,1.375
		c1.02,4.993,4.125,8.314,6.188,12.472c0.588,0.295,1.178,0.589,1.768,0.884c2.258-0.262,4.648-0.555,6.922-0.54
		c2.701,0.018,5.238,0.216,7.906,0.639c0.654,0.104,1.447,0.174,1.865,0.687c0.973,1.191,1.502,2.693,2.063,4.125
		c0.107,0.275,0.186,0.796-0.098,0.884c-0.875,0.271-2.363-0.068-3.24,0.196c-1.248,0.376-2.125,0.657-2.947,1.669
		c-0.721,0.888-0.67,1.425-0.711,2.748c0.07,0.453,0.51,0.586,0.801,0.583l10.32-0.09c1.869-0.017,2.553-1.425,2.355-2.651
		c-1.533-4.174-3.068-8.348-4.602-12.521c-0.313-0.849-0.268-0.827-1.152-1.013c-2.711-0.568-4.785-1.335-7.545-1.659
		c-0.762-0.089-1.025-0.146-1.285-0.861c-2.086-5.753-4.404-11.865-6.725-17.629c-1.082-2.69-4.955-4.146-7.709-5.058
		c-3.234-1.072-6.648-0.167-9.377-0.245c-0.383-0.011-0.742-0.92-0.393-1.081c4.063-1.871,8.443-2.841,12.666-5.205
		c0.754-0.753,1.668-1.374,2.26-2.259c1.697-2.536,3.059-5.114,3.043-7.855c-3.141,1.636-6.152,3.554-9.426,4.91
		c-0.287,0.119-0.547-0.701-0.295-0.884c1.871-1.363,4.059-2.226,6.088-3.339c1.506-1.636,3.846-2.737,4.764-4.763
		c1.352-2.988,1.717-6.808,1.816-9.771c-3.961,1.997-7.809,4.235-11.883,5.991c-0.248,0.106-0.414-0.627-0.195-0.786
		c2.674-1.943,5.629-3.469,8.443-5.205c1.311-2.193,2.619-4.386,3.93-6.579c0.326-3.764,0.654-7.528,0.98-11.293
		c-5.139,3.666-10.277,7.332-15.416,10.999c-0.328-0.328-0.654-0.655-0.982-0.982c3.273-2.946,7.385-4.973,9.82-8.642
		c2.75-4.143,4.818-7.228,5.303-12.177c0.404-4.142-1.453-10.188-2.75-14.141c-0.148-0.453-0.475-1.25-1.375-0.393
		c-13.24,12.612-25.23,27.686-35.646,45.27c-0.602,1.016-0.607,2.429-0.196,3.535c0.595,1.602,2.149,2.669,3.044,4.125
		c2.39,3.886,4.379,8.395,3.044,12.471c-1.276,3.896-4.695,6.792-7.66,9.624c-0.403,0.385-1.466-0.874-1.08-1.276
		c2.235-2.333,4.471-4.672,4.713-7.66c0.296-3.653-0.986-7.292-3.437-10.557c-2.907-3.873-6.348-7.115-9.652-10.634
		c-0.675-0.719-0.675-0.723-1.254,0.111c-0.816,1.176-1.131,2.586-2.399,3.355C78.443,72.426,74.785,76.123,71.86,80.126
		L71.86,80.126z M96.801,66.27c4.709-9.187,10.786-16.838,16.316-25.101c1.711-2.558,1.08-6.652,0.49-9.673
		c-0.527-2.704-2.309-5.002-3.463-7.504c-0.221-0.478-0.174-1.234-0.661-1.432c-0.346-0.141-0.511,0.555-0.688,0.884
		C102.8,34.646,96.231,45.552,91.513,57.519c-0.456,1.157-0.82,2.796,0,3.731l4.528,5.162C96.513,66.951,96.483,66.891,96.801,66.27
		L96.801,66.27z M62.605,150.885c-7.086,0-13.015,3.792-13.015,12.797v2.839c0,9.266,5.798,12.885,12.884,12.885h2.491
		c7.086,0,12.884-3.4,12.884-12.885v-2.839c0-9.004-5.754-12.797-12.841-12.797H62.605L62.605,150.885z M62.605,157.002
		c-4.62,0-6.897,1.942-6.897,6.68v2.839c0,4.844,2.004,6.768,6.767,6.768h2.491c4.864,0,6.767-1.804,6.767-6.768v-2.839
		c0-4.708-2.091-6.68-6.724-6.68H62.605L62.605,157.002z M82.661,151.777v26.762h6.058v-7.365l4.418-4.279l8.091,11.645h7.977
		l-11.3-16.263l10.862-10.521l-7.843,0.035l-12.205,11.761v-11.774H82.661L82.661,151.777z M114.061,151.777v26.762h6.057v-7.365
		l4.42-4.279l8.09,11.645h7.977l-11.301-16.263l10.863-10.521l-7.844,0.035l-12.205,11.761v-11.774H114.061L114.061,151.777z
		 M154.359,150.885c-7.086,0-13.014,3.792-13.014,12.797v2.839c0,9.266,5.797,12.885,12.883,12.885h2.49
		c7.088,0,12.885-3.4,12.885-12.885v-2.839c0-9.004-5.754-12.797-12.84-12.797H154.359L154.359,150.885z M154.359,157.002
		c-4.619,0-6.896,1.942-6.896,6.68v2.839c0,4.844,2.004,6.768,6.766,6.768h2.49c4.865,0,6.768-1.804,6.768-6.768v-2.839
		c0-4.708-2.09-6.68-6.723-6.68H154.359z"/>
	<path fill-rule="evenodd" clip-rule="evenodd" fill="#FFFFFF" d="M109.189,117.322c-0.357-0.926,0.143-2.259,1.055-2.528
		c2.719-0.803,4.654-1.199,8.117-1.869c0.561-0.108,1.432-0.392,1.949-0.095c0.604,0.345,0.508,0.809,0.494,1.449
		c-0.041,1.8,0.113,4.178,0.045,6.186c-0.074,2.175,0.549,4.278,1.352,5.99c0.191,0.411-0.154,1.331-0.541,1.571
		c-2.088,1.299-3.93,1.875-5.941,3.29c-1.57,1.105-3.143,3.001-4.664,4.173c-0.535,0.412-1.289,0.471-1.965,0.491
		c-3.598,0.11-6.605-0.082-10.065,0c-0.484,0.012-0.537-0.668-0.523-1.27c0.014-0.602,0.406-1.222,0.671-1.627
		c0.587-0.899,1.226-1.477,2.259-1.768c1.417-0.399,3.055,0.31,4.419-0.246c1.48-0.603,2.273-2.259,3.535-3.24
		c1.104-0.858,2.054-1.36,3.389-2.356c0.465-0.348-0.197-0.731-0.413-1.26c-0.553-1.353-1.479-2.888-2.091-4.24
		C109.875,119.104,109.531,118.213,109.189,117.322L109.189,117.322z M149.156,77.355c-4.482,0.843-8.775,2.091-11.391,5.205
		c-1.15,1.367-1.736,3.372-1.277,5.205c3.338,3.011,7.352,5.412,10.016,9.034c1.244,1.691,2.346,4.899,0.688,6.187
		c-2.063,1.601-4.607-0.412-7.07-1.276c-1.279-0.449-2.461-1.33-3.516-2.155c-0.703-0.55-1.023-0.469-0.742,0.58
		c0.504,1.867,1.029,3.682,2.441,4.914c1.867,1.628,4.547,2.11,7.021,2.013c1.947-0.076,4.229-0.667,5.107-2.406
		c1.15-2.28,0.693-5.266-0.197-7.66c-0.877-2.353-2.9-3.868-4.787-5.524c-1.924-1.69-3.977-2.616-5.771-4.443
		c-0.65-0.664-0.686-1.536,0.1-2.333c1.463-1.484,4.154-0.505,5.941-1.399c1.67-0.834,2.477-1.954,3.289-3.633
		C149.285,79.091,149.287,77.978,149.156,77.355L149.156,77.355z M71.86,80.126c-0.5,0.684-0.716,0.829-0.145,1.448
		c1.37,1.487,2.765,2.936,4.135,4.422c0.196,0.098,0.785,0.505,1.178,0.147c0.949-0.884,1.304-1.661,2.468-2.232
		c0.764-0.375,1.63-0.463,2.209,0.16c0.624,0.671,0.501,1.298,0.098,2.121c-0.429,0.877-0.998,1.269-1.964,1.41
		c-0.575,0.084-0.701-0.383-1.241-0.611c-1.405-0.594-1.468,0.35-1.116,1.326c0.508,1.41,1.244,2.793,2.344,3.571
		c0.16,0.114,0.446,0.135,0.589,0c1.046-0.986,1.646-2.45,2.848-3.24c0.329-0.217,1.042,0.425,0.884,0.786
		c-2.607,5.922-6.642,11.197-8.838,17.283c-0.605,1.677-0.089,3.698,0.688,5.303c1.032,2.134,2.591,4.064,4.481,5.368
		c1.104,0.762,1.137,0.481,0.209,1.55c-1.294,1.491-2.559,2.993-3.685,4.62c-1.667,2.411-2.07,4.37-3.51,6.924
		c-0.337,0.419-0.981,0.696-1.5,0.693c-1.782-0.012-3.612,0.039-5.128,0.092c-1.08,0.229-1.639,0.462-2.26,1.374
		c-0.737,1.083-0.939,1.516-0.907,2.825c0.088,0.494,0.52,0.399,0.779,0.403c4.261,0.061,8.54,0.139,12.8,0.2
		c0.75,0.011,0.702-0.017,1.122-0.643c1.72-2.565,3.773-5.615,6.142-7.597c5.606-4.689,10.44-9.285,17.381-12.079
		c6.232-2.508,12.689-4.531,19.443-5.303c0.668-0.076,1.34,0.717,1.473,1.375c1.02,4.993,4.125,8.314,6.188,12.472
		c0.588,0.295,1.178,0.589,1.768,0.884c2.258-0.262,4.648-0.555,6.922-0.54c2.701,0.018,5.238,0.216,7.906,0.639
		c0.654,0.104,1.447,0.174,1.865,0.687c0.973,1.191,1.502,2.693,2.063,4.125c0.107,0.275,0.186,0.796-0.098,0.884
		c-0.875,0.271-2.363-0.068-3.24,0.196c-1.248,0.376-2.125,0.657-2.947,1.669c-0.721,0.888-0.67,1.425-0.711,2.748
		c0.07,0.453,0.51,0.586,0.801,0.583l10.32-0.09c1.869-0.017,2.553-1.425,2.355-2.651c-1.533-4.174-3.068-8.348-4.602-12.521
		c-0.313-0.849-0.268-0.827-1.152-1.013c-2.711-0.568-4.785-1.335-7.545-1.659c-0.762-0.089-1.025-0.146-1.285-0.861
		c-2.086-5.753-4.404-11.865-6.725-17.629c-1.082-2.69-4.955-4.146-7.709-5.058c-3.234-1.072-6.648-0.167-9.377-0.245
		c-0.383-0.011-0.742-0.92-0.393-1.081c4.063-1.871,8.443-2.841,12.666-5.205c0.754-0.753,1.668-1.374,2.26-2.259
		c1.697-2.536,3.059-5.114,3.043-7.855c-3.141,1.636-6.152,3.554-9.426,4.91c-0.287,0.119-0.547-0.701-0.295-0.884
		c1.871-1.363,4.059-2.226,6.088-3.339c1.506-1.636,3.846-2.737,4.764-4.763c1.352-2.988,1.717-6.808,1.816-9.771
		c-3.961,1.997-7.809,4.235-11.883,5.991c-0.248,0.106-0.414-0.627-0.195-0.786c2.674-1.943,5.629-3.469,8.443-5.205
		c1.311-2.193,2.619-4.386,3.93-6.579c0.326-3.764,0.654-7.528,0.98-11.293c-5.139,3.666-10.277,7.332-15.416,10.999
		c-0.328-0.328-0.654-0.655-0.982-0.982c3.273-2.946,7.385-4.973,9.82-8.642c2.75-4.143,4.818-7.228,5.303-12.177
		c0.404-4.142-1.453-10.188-2.75-14.141c-0.148-0.453-0.475-1.25-1.375-0.393c-13.24,12.612-25.23,27.686-35.646,45.27
		c-0.602,1.016-0.607,2.429-0.196,3.535c0.595,1.602,2.149,2.669,3.044,4.125c2.39,3.886,4.379,8.395,3.044,12.471
		c-1.276,3.896-4.695,6.792-7.66,9.624c-0.403,0.385-1.466-0.874-1.08-1.276c2.235-2.333,4.471-4.672,4.713-7.66
		c0.296-3.653-0.986-7.292-3.437-10.557c-2.907-3.873-6.348-7.115-9.652-10.634c-0.675-0.719-0.675-0.723-1.254,0.111
		c-0.816,1.176-1.131,2.586-2.399,3.355C78.443,72.426,74.785,76.123,71.86,80.126L71.86,80.126z M96.801,66.27
		c-0.318,0.621-0.288,0.682-0.761,0.143l-4.528-5.162c-0.82-0.935-0.456-2.574,0-3.731c4.718-11.967,11.288-22.874,17.283-34.075
		c0.177-0.329,0.342-1.024,0.688-0.884c0.487,0.198,0.44,0.955,0.661,1.432c1.154,2.501,2.936,4.8,3.463,7.504
		c0.59,3.021,1.221,7.115-0.49,9.673C107.587,49.431,101.511,57.083,96.801,66.27L96.801,66.27z M62.605,150.885h2.403
		c7.086,0,12.841,3.793,12.841,12.797v2.839c0,9.484-5.798,12.885-12.884,12.885h-2.491c-7.086,0-12.884-3.619-12.884-12.885v-2.839
		C49.59,154.677,55.519,150.885,62.605,150.885L62.605,150.885z M62.605,157.002c-4.62,0-6.897,1.942-6.897,6.68v2.839
		c0,4.844,2.004,6.768,6.767,6.768h2.491c4.864,0,6.767-1.804,6.767-6.768v-2.839c0-4.708-2.091-6.68-6.724-6.68H62.605
		L62.605,157.002z M82.661,151.777h6.058v11.774l12.205-11.761l7.843-0.035l-10.862,10.521l11.3,16.263h-7.977l-8.091-11.645
		l-4.418,4.279v7.365h-6.058V151.777L82.661,151.777z M114.061,151.777h6.057v11.774l12.205-11.761l7.844-0.035l-10.863,10.521
		l11.301,16.263h-7.977l-8.09-11.645l-4.42,4.279v7.365h-6.057V151.777L114.061,151.777z M154.359,150.885h2.404
		c7.086,0,12.84,3.793,12.84,12.797v2.839c0,9.484-5.797,12.885-12.885,12.885h-2.49c-7.086,0-12.883-3.619-12.883-12.885v-2.839
		C141.346,154.677,147.273,150.885,154.359,150.885L154.359,150.885z M154.359,157.002c-4.619,0-6.896,1.942-6.896,6.68v2.839
		c0,4.844,2.004,6.768,6.766,6.768h2.49c4.865,0,6.768-1.804,6.768-6.768v-2.839c0-4.708-2.09-6.68-6.723-6.68H154.359z"/>
</g>
</svg>
