<?xml version="1.0" encoding="utf-8"?>
<!DOCTYPE svg PUBLIC "-//W3C//DTD SVG 1.1//EN" "http://www.w3.org/Graphics/SVG/1.1/DTD/svg11.dtd">
<svg version="1.1" xmlns="http://www.w3.org/2000/svg" xmlns:xlink="http://www.w3.org/1999/xlink" x="0px" y="0px" width="216px" height="216px" viewBox="0 0 216 216" enable-background="new 0 0 216 216" xml:space="preserve">
<g>
	<path fill="#FFFFFF" fill-opacity="0" d="M0.122,0.122h216v216h-216V0.122z"/>
	<path fill="#CC2229" d="M71.981,147.543l-12.861-29.62l-11.811,41.701h5.666l7.345-26.051l11.661,26.921l11.693-26.921
		l7.314,26.051h5.667l-11.783-41.701L71.981,147.543z M24.733,117.923h-0.091c-6.145,0.03-11.272,2.188-15.409,6.506
		c-3.958,4.168-5.936,9.084-5.936,14.779c0,5.606,1.918,10.463,5.756,14.6c4.137,4.438,9.323,6.655,15.59,6.687h0.091
		c5.996,0,11.091-2.159,15.259-6.507c4.017-4.167,6.025-9.113,6.025-14.779c0-5.726-2.008-10.672-6.025-14.84
		C35.856,120.082,30.79,117.923,24.733,117.923L24.733,117.923z M35.706,150.75c-2.878,3.059-6.536,4.588-11.033,4.588h-0.03
		c-4.497,0-8.184-1.56-11.063-4.646c-2.848-3.118-4.287-6.926-4.287-11.422c0-4.498,1.439-8.335,4.287-11.482
		c2.879-3.147,6.566-4.706,11.063-4.706h0.03c4.497,0,8.155,1.56,11.033,4.677c2.848,3.148,4.287,6.985,4.287,11.512
		C39.994,143.855,38.554,147.663,35.706,150.75L35.706,150.75z M101.211,108.27v-2.579c-4.047-2.578-7.585-5.816-10.403-10.014
		c-4.646-8.904-5.876-17.778,0.359-26.682c11.632-13.131,19.756-8.035,27.371-0.36c5.008,7.165,5.249,14.33,3.357,21.495
		c-2.097,7.135-5.695,12.353-10.731,15.56v2.547h21.495l3.509-8.033c-0.33-1.829-1.141-1.589-2.76-1.53l-2.638,3.658h-6.297
		c1.867-2.707,3.716-5.425,5.548-8.154c2.547-6.596,3.537-13.491,1.107-21.105c-5.124-16.607-26.049-21.044-39.391-14.479
		c-8.185,3.987-14.12,11.932-13.911,22.635c0.24,8.035,4.137,15.35,9.772,21.105h-4.826l-4.438-3.597
		c-1.26-0.42-2.188,0.15-2.429,1.559l4.587,7.975H101.211L101.211,108.27z M193.428,117.983l-0.028-0.061l-19.487,41.701h6.114
		l5.128-10.973h16.518l5.126,10.973h6.147L193.428,117.983L193.428,117.983z M193.428,143.496h-6.294l6.266-12.503l0.028,0.061
		l6.267,12.443L193.428,143.496L193.428,143.496L193.428,143.496z M101.002,159.624h24.344v-5.156h-18.677v-14.33h18.677v-5.156
		h-18.677v-11.123h18.677v-5.066h-24.344V159.624z M151.188,143.195h14.6c-0.33,3.509-1.798,6.417-4.408,8.724
		c-2.578,2.278-5.756,3.419-9.531,3.419c-4.528,0-8.217-1.56-11.063-4.646c-2.878-3.118-4.316-6.926-4.316-11.422
		c0-4.498,1.438-8.335,4.316-11.482c2.847-3.147,6.535-4.706,11.063-4.706c2.367,0,4.406,0.391,6.146,1.199
		c1.737,0.778,3.385,1.979,4.946,3.567l4.287-3.418c-2.191-2.128-4.498-3.748-6.956-4.857c-2.488-1.108-5.248-1.648-8.365-1.648
		c-6.176,0-11.361,2.159-15.5,6.506c-3.956,4.168-5.936,9.084-5.936,14.779c0,5.036,1.559,9.563,4.708,13.611
		c3.957,5.126,9.562,7.676,16.728,7.676c7.046,0,12.351-2.608,15.918-7.855c2.788-4.046,4.168-8.903,4.168-14.6h-18.766
		L151.188,143.195z"/>
</g>

</svg>
