<?xml version="1.0" encoding="utf-8"?>
<!DOCTYPE svg PUBLIC "-//W3C//DTD SVG 1.1//EN" "http://www.w3.org/Graphics/SVG/1.1/DTD/svg11.dtd">
<svg version="1.1" id="Layer_1" xmlns="http://www.w3.org/2000/svg" xmlns:xlink="http://www.w3.org/1999/xlink" x="0px" y="0px" width="216px" height="216px" viewBox="0 0 216 216" enable-background="new 0 0 216 216" xml:space="preserve">
<g>
	<path fill="#E31937" d="M33.365,0.5h149.411v216H33.365V0.5z"/>
	<g>
		<path fill="#FFFFFF" d="M148.536,174.717v9.467h3.036v-6.303h11.048v6.303h3.034v-9.45L148.536,174.717 M151.233,171.655h11.673
			c1.621-0.322,2.827-1.754,3.167-3.138h-18.006C148.403,169.902,149.627,171.333,151.233,171.655"/>
	</g>
	<path fill="#FFFFFF" d="M139.343,184.189c1.53-0.649,2.354-1.771,2.67-3.085h-13.616l0.009-12.579l-3.052,0.009v15.655H139.343
		 M102.657,171.613h10.78c1.625-0.473,2.99-1.711,3.323-3.083H99.634v9.251h14.016v3.247l-10.994,0.009
		c-1.723,0.48-3.184,1.637-3.913,3.165l0.891-0.017h17.028v-9.479h-14.006L102.657,171.613"/>
	<g>
		<path fill="#FFFFFF" d="M76.044,171.643h11.668c1.624-0.323,2.83-1.754,3.168-3.139H72.876
			C73.212,169.889,74.437,171.319,76.044,171.643 M76.044,177.83h11.668c1.624-0.32,2.83-1.752,3.168-3.138H72.876
			C73.212,176.079,74.437,177.51,76.044,177.83 M76.044,184.188h11.668c1.624-0.322,2.83-1.754,3.168-3.138H72.876
			C73.212,182.436,74.437,183.865,76.044,184.188"/>
	</g>
	<path fill="#FFFFFF" d="M45.687,168.542c0.351,1.368,1.536,2.767,3.161,3.117h4.912l0.251,0.099v12.395h3.067v-12.395l0.279-0.099
		h4.916c1.644-0.424,2.802-1.749,3.146-3.117v-0.03H45.687V168.542"/>
	<g>
		<path fill="#FFFFFF" d="M108.164,137.573l15.326-86.192c14.607,0,19.215,1.602,19.881,8.14c0,0,9.8-3.654,14.742-11.075
			c-19.287-8.938-38.666-9.34-38.666-9.34l-11.309,13.773l0.025-0.002L96.856,39.104c0,0-19.38,0.404-38.664,9.341
			C63.13,55.866,72.934,59.52,72.934,59.52c0.669-6.539,5.271-8.141,19.781-8.151L108.164,137.573"/>
		<path fill="#FFFFFF" d="M108.158,35.128c15.591-0.119,33.436,2.412,51.705,10.374c2.442-4.395,3.069-6.337,3.069-6.337
			c-19.97-7.901-38.672-10.604-54.776-10.672c-16.104,0.068-34.805,2.772-54.772,10.672c0,0,0.891,2.393,3.067,6.337
			c18.265-7.962,36.114-10.493,51.706-10.374H108.158"/>
	</g>
</g>

</svg>
