<?xml version="1.0" encoding="utf-8"?>
<!DOCTYPE svg PUBLIC "-//W3C//DTD SVG 1.1//EN" "http://www.w3.org/Graphics/SVG/1.1/DTD/svg11.dtd">
<svg version="1.1" id="Layer_1" xmlns="http://www.w3.org/2000/svg" xmlns:xlink="http://www.w3.org/1999/xlink" x="0px" y="0px" width="216px" height="216px" viewBox="0 0 216 216" enable-background="new 0 0 216 216" xml:space="preserve">
<g>
	<rect x="1" y="1.497" fill-rule="evenodd" clip-rule="evenodd" fill="#00A651" width="214" height="213.505"/>
	<path fill-rule="evenodd" clip-rule="evenodd" fill="#F58220" d="M215,42.788v107.619c-0.444,0.009-0.889,0.016-1.336,0.016
		c-29.723,0-53.826-24.104-53.826-53.826c0-29.723,24.104-53.827,53.826-53.827C214.111,42.771,214.556,42.777,215,42.788z"/>
	<path fill-rule="evenodd" clip-rule="evenodd" fill="#FFFFFF" d="M56.828,49.053h41.364c18.201,0,33.091,14.891,33.091,33.091
		v26.453c0,18.2-14.89,33.09-33.091,33.09H56.828c-4.549,0-8.271-3.723-8.271-8.273V57.326
		C48.556,52.776,52.279,49.053,56.828,49.053L56.828,49.053z M66.564,59.231c-2.591,0-4.711,2.121-4.711,4.711v60.915
		c0,2.592,2.121,4.712,4.711,4.712h26.047c13.819,0,25.125-11.308,25.125-25.126V84.357c0-13.819-11.307-25.126-25.125-25.126
		H66.564z"/>
	<path fill-rule="evenodd" clip-rule="evenodd" fill="#F58220" d="M90.761,171.735c0.908,0,1.648-0.741,1.648-1.649
		c0-0.907-0.74-1.648-1.648-1.648c-0.908,0-1.649,0.741-1.649,1.648C89.112,170.994,89.853,171.735,90.761,171.735z"/>
	<path fill-rule="evenodd" clip-rule="evenodd" fill="#FFFFFF" d="M54.672,168.639h5.291c2.808,0,5.104,2.297,5.104,5.104v4.08
		c0,2.808-2.296,5.104-5.104,5.104h-5.291c-0.527,0-0.957-0.431-0.957-0.957v-12.373C53.715,169.069,54.145,168.639,54.672,168.639
		L54.672,168.639z M52.694,166.571c-0.924,0-1.68,0.757-1.68,1.681v15.456c0,0.924,0.756,1.681,1.68,1.681h8.402
		c3.697,0,6.722-3.025,6.722-6.723v-5.373c0-3.696-3.025-6.722-6.722-6.722H52.694L52.694,166.571z M78.866,172.955L78.866,172.955
		c1.373,0,2.473,0.4,3.303,1.202c0.829,0.803,1.244,1.991,1.244,3.568v7.278h-2.549v-6.953c0-0.951-0.224-1.667-0.673-2.149
		c-0.448-0.483-1.086-0.725-1.916-0.725c-0.938,0-1.679,0.283-2.222,0.846c-0.543,0.564-0.816,1.376-0.816,2.436v6.546h-2.548
		v-11.927h2.426v1.407c0.421-0.503,0.952-0.884,1.591-1.143C77.345,173.084,78.065,172.955,78.866,172.955L78.866,172.955z
		 M89.661,173.13L89.661,173.13h2.19v12.087h-2.19V173.13L89.661,173.13z M103.76,173.084L103.76,173.084
		c2.705,0,5.181,1.351,5.181,4.329c0,1.7-0.86,2.823-2.426,3.519c-0.783,0.348-1.701,0.521-2.755,0.521h-3.382v3.801h-2.26v-12.17
		H103.76L103.76,173.084z M103.656,179.541L103.656,179.541c1.578,0,3.008-0.353,3.008-2.128c0-1.776-1.43-2.417-3.008-2.417h-3.278
		v4.545H103.656L103.656,179.541z M122.182,185.254L122.182,185.254l-2.625-4.143c-0.11,0.013-0.275,0.019-0.495,0.019h-2.9v4.124
		h-2.388v-12.17h5.288c2.856,0,5.472,1.148,5.472,4.127c0,1.771-0.982,2.82-2.736,3.466l2.956,4.577H122.182L122.182,185.254z
		 M122.128,177.211L122.128,177.211c0-1.776-1.51-2.215-3.178-2.215h-2.789v4.272h2.789
		C120.623,179.269,122.128,178.985,122.128,177.211L122.128,177.211z M135.848,185.428L135.848,185.428
		c-1.114,0-2.118-0.27-3.015-0.808c-0.895-0.539-1.597-1.287-2.107-2.243c-0.51-0.956-0.765-2.025-0.765-3.208
		c0-1.182,0.255-2.252,0.765-3.207c0.511-0.957,1.213-1.704,2.107-2.244c0.896-0.538,1.9-0.808,3.015-0.808s2.118,0.27,3.014,0.808
		c0.896,0.54,1.599,1.284,2.109,2.235c0.509,0.95,0.764,2.022,0.764,3.216c0,1.194-0.255,2.267-0.764,3.218
		c-0.511,0.949-1.214,1.694-2.109,2.233C137.966,185.158,136.962,185.428,135.848,185.428L135.848,185.428z M135.848,183.446
		L135.848,183.446c0.729,0,1.384-0.183,1.968-0.548s1.042-0.874,1.375-1.53c0.332-0.655,0.499-1.388,0.499-2.199
		s-0.167-1.545-0.499-2.199c-0.333-0.654-0.791-1.165-1.375-1.53s-1.239-0.548-1.968-0.548s-1.384,0.183-1.969,0.548
		c-0.582,0.365-1.04,0.876-1.373,1.53s-0.5,1.388-0.5,2.199s0.167,1.544,0.5,2.199c0.333,0.656,0.791,1.165,1.373,1.53
		C134.464,183.264,135.119,183.446,135.848,183.446L135.848,183.446z M145.779,173.084L145.779,173.084h2.261v10.258h7.695v1.912
		h-9.956V173.084L145.779,173.084z M167.839,182.265L167.839,182.265h-5.159l-0.9,2.735l-2.629,0.081l4.551-12.171h2.227
		l5.493,12.171h-2.364L167.839,182.265L167.839,182.265z M167.092,180.491L167.092,180.491l-2.038-4.359l-1.609,4.359H167.092
		L167.092,180.491z M182.654,178.752L182.654,178.752c0.652,0.22,1.17,0.589,1.554,1.104c0.383,0.516,0.574,1.156,0.574,1.92
		c0,1.056-0.394,1.87-1.183,2.443s-1.938,0.861-3.447,0.861h-5.883V172.91h5.545c1.396,0,2.473,0.281,3.228,0.843
		c0.755,0.563,1.133,1.336,1.133,2.322c0,0.602-0.136,1.135-0.406,1.599S183.127,178.497,182.654,178.752L182.654,178.752z
		 M176.468,174.684L176.468,174.684v3.355h3.108c0.768,0,1.356-0.143,1.767-0.426c0.412-0.284,0.617-0.698,0.617-1.243
		c0-0.557-0.205-0.978-0.617-1.261c-0.41-0.284-0.999-0.426-1.767-0.426H176.468L176.468,174.684z M180.018,183.308L180.018,183.308
		c1.7,0,2.551-0.586,2.551-1.757c0-1.17-0.851-1.756-2.551-1.756h-3.55v3.513H180.018z"/>
</g>
</svg>
