<?xml version="1.0" encoding="utf-8"?>
<!DOCTYPE svg PUBLIC "-//W3C//DTD SVG 1.1//EN" "http://www.w3.org/Graphics/SVG/1.1/DTD/svg11.dtd">
<svg version="1.1" id="Layer_1" xmlns="http://www.w3.org/2000/svg" xmlns:xlink="http://www.w3.org/1999/xlink" x="0px" y="0px" width="216px" height="216px" viewBox="0 0 216 216" enable-background="new 0 0 216 216" xml:space="preserve">
<g>
	<g>
		<defs>
			<rect id="SVGID_1_" x="1.504" y="84.518" width="212.996" height="39.236"/>
		</defs>
		<clipPath id="SVGID_2_">
			<use xlink:href="#SVGID_1_"  overflow="visible"/>
		</clipPath>
		<g clip-path="url(#SVGID_2_)">
			
				<radialGradient id="SVGID_3_" cx="4.1323" cy="207.3203" r="0.9332" gradientTransform="matrix(45.3718 0 0 -45.7049 -133.9688 9556.9287)" gradientUnits="userSpaceOnUse">
				<stop  offset="0" style="stop-color:#FF6633"/>
				<stop  offset="0.3155" style="stop-color:#FF8325"/>
				<stop  offset="0.9963" style="stop-color:#FFCC00"/>
				<stop  offset="1" style="stop-color:#FFCC00"/>
			</radialGradient>
			<path fill="url(#SVGID_3_)" d="M34.031,123.754c-5.229,0-11.757-2.031-17.355-4.806c-7.468-3.712-15.373-9.837-15.171-15.907
				c0.179-5.03,4.871-9.634,13.235-12.951c10.379-4.117,25.159-5.459,29.772-0.812c2.475,2.493,3.728,7.514,3.437,13.763
				c-0.313,6.713-2.564,15.084-6.886,18.682C39.35,123.145,36.886,123.754,34.031,123.754z M33.918,89.583
				c-5.33,0-12.149,1.229-17.982,3.542C8.95,95.9,4.874,99.556,4.751,103.154c-0.124,3.667,5.239,8.833,13.369,12.861
				c8.834,4.378,17.814,5.754,20.893,3.192c3.034-2.527,5.385-9.238,5.71-16.323c0.247-5.178-0.716-9.511-2.496-11.304
				C40.871,90.238,37.793,89.583,33.918,89.583z"/>
			
				<radialGradient id="SVGID_4_" cx="4.1348" cy="207.3232" r="0.9366" gradientTransform="matrix(45.3673 0 0 -45.7048 -134.9063 9557.8447)" gradientUnits="userSpaceOnUse">
				<stop  offset="0" style="stop-color:#FF6633"/>
				<stop  offset="0.3155" style="stop-color:#FF8325"/>
				<stop  offset="0.9963" style="stop-color:#FFCC00"/>
				<stop  offset="1" style="stop-color:#FFCC00"/>
			</radialGradient>
			<path fill="url(#SVGID_4_)" d="M33.146,94.434c4.937,0.586,7.076,1.794,7.568,2.414c0.023,0.034,0.045,0.067,0.067,0.102
				c-0.639-2.504-1.007-3.949-7.748-3.949c-3.214,0-6.897,0.485-10.458,1.32C26.249,94.039,29.921,94.05,33.146,94.434z"/>
			<path fill="#663333" d="M196.249,119.241h-8.274v-4.083h6.807c0.951,0,1.725-0.779,1.725-1.738s-0.773-1.738-1.725-1.738h-6.807
				V107.6h8.274c0.95,0,1.724-0.779,1.724-1.738s-0.773-1.737-1.724-1.737h-9.988c-0.952,0-1.725,0.779-1.725,1.737v15.095
				c0,0.958,0.772,1.737,1.725,1.737h9.988c0.95,0,1.724-0.779,1.724-1.737C197.973,120.021,197.199,119.241,196.249,119.241z"/>
			<path fill="#663333" d="M89.083,105.095c0-0.011-0.011-0.011-0.011-0.023c-0.012-0.033-0.034-0.056-0.056-0.089
				c-0.01-0.024-0.022-0.046-0.033-0.057c-0.023-0.022-0.034-0.057-0.056-0.08c-0.012-0.023-0.034-0.044-0.045-0.056
				c-0.022-0.023-0.044-0.045-0.056-0.068c-0.022-0.022-0.034-0.044-0.056-0.056c-0.023-0.023-0.046-0.034-0.057-0.056
				c-0.021-0.023-0.044-0.034-0.067-0.056c-0.022-0.012-0.044-0.035-0.066-0.046c-0.023-0.021-0.045-0.034-0.079-0.057
				c-0.022-0.011-0.044-0.022-0.066-0.034c-0.022-0.023-0.056-0.033-0.09-0.044c-0.011,0-0.023-0.011-0.023-0.011
				c-0.011-0.012-0.033-0.012-0.043-0.024c-0.023-0.011-0.057-0.022-0.079-0.033c-0.022-0.012-0.056-0.022-0.078-0.034
				c-0.023-0.011-0.045-0.022-0.079-0.022c-0.034-0.011-0.057-0.023-0.089-0.023c-0.023-0.012-0.046-0.012-0.068-0.012
				c-0.033-0.011-0.067-0.011-0.1-0.011c-0.022,0-0.045-0.011-0.067-0.011c-0.034,0-0.056,0-0.089-0.01c-0.023,0-0.057,0-0.078,0
				c-0.022,0-0.057,0-0.079,0c-0.033,0-0.056,0-0.089,0.01c-0.023,0-0.056,0-0.078,0.011c-0.034,0-0.057,0.011-0.089,0.011
				c-0.023,0-0.046,0.012-0.079,0.012c-0.034,0.012-0.057,0.012-0.09,0.023c-0.022,0.011-0.056,0.011-0.078,0.022
				c-0.023,0.012-0.056,0.022-0.078,0.034c-0.034,0.011-0.057,0.022-0.089,0.033c-0.012,0.012-0.035,0.012-0.046,0.024
				c-0.011,0-0.022,0.011-0.022,0.011c-0.034,0.011-0.057,0.034-0.089,0.044c-0.022,0.012-0.045,0.023-0.067,0.034
				c-0.022,0.023-0.057,0.035-0.079,0.057c-0.022,0.011-0.045,0.034-0.068,0.046c-0.021,0.022-0.043,0.033-0.066,0.056
				c-0.023,0.022-0.045,0.033-0.055,0.056c-0.023,0.023-0.035,0.034-0.057,0.056c-0.022,0.023-0.044,0.045-0.056,0.068
				c-0.012,0.022-0.034,0.033-0.045,0.056c-0.023,0.023-0.034,0.057-0.056,0.08c-0.011,0.022-0.022,0.045-0.033,0.057
				c-0.023,0.033-0.035,0.056-0.057,0.089c0,0.012-0.011,0.012-0.011,0.023l-7.614,15.094c-0.425,0.858-0.089,1.896,0.75,2.336
				c0.246,0.124,0.516,0.191,0.785,0.191c0.626,0,1.231-0.35,1.533-0.947l1.209-2.392h9.742l1.209,2.392
				c0.302,0.598,0.907,0.947,1.533,0.947c0.258,0,0.527-0.057,0.784-0.191c0.85-0.429,1.187-1.478,0.75-2.336L89.083,105.095z
				 M84.426,115.902l3.124-6.183l3.124,6.183H84.426z"/>
			<path fill="#663333" d="M150.465,105.095c0-0.011-0.012-0.011-0.012-0.011c-0.022-0.034-0.033-0.068-0.056-0.101
				c-0.012-0.024-0.023-0.046-0.034-0.057c-0.021-0.022-0.032-0.057-0.054-0.08c-0.012-0.023-0.034-0.044-0.046-0.056
				c-0.022-0.023-0.044-0.045-0.056-0.068c-0.023-0.022-0.034-0.044-0.057-0.056c-0.021-0.023-0.045-0.034-0.056-0.056
				c-0.022-0.023-0.044-0.034-0.068-0.056c-0.021-0.012-0.044-0.035-0.066-0.046c-0.022-0.021-0.045-0.034-0.078-0.057
				c-0.022-0.011-0.045-0.022-0.067-0.034c-0.023-0.023-0.056-0.033-0.09-0.044c-0.012,0-0.022-0.011-0.022-0.011
				c-0.011-0.012-0.032-0.012-0.045-0.024c-0.022-0.011-0.056-0.022-0.078-0.033c-0.021-0.012-0.056-0.022-0.078-0.034
				c-0.021-0.011-0.044-0.022-0.078-0.022c-0.033-0.011-0.057-0.023-0.09-0.023c-0.021-0.012-0.045-0.012-0.066-0.012
				c-0.033-0.011-0.068-0.011-0.102-0.011c-0.022,0-0.045-0.011-0.067-0.011c-0.033,0-0.056,0-0.089-0.01c-0.022,0-0.057,0-0.079,0
				s-0.056,0-0.077,0c-0.035,0-0.058,0-0.09,0.01c-0.022,0-0.057,0-0.079,0.011c-0.032,0-0.056,0.011-0.089,0.011
				c-0.022,0-0.046,0.012-0.079,0.012c-0.034,0.012-0.056,0.012-0.089,0.023c-0.022,0.011-0.057,0.011-0.078,0.022
				c-0.023,0.012-0.058,0.022-0.079,0.034c-0.034,0.011-0.056,0.022-0.09,0.033c-0.011,0.012-0.034,0.012-0.045,0.024
				c-0.011,0-0.022,0.011-0.022,0.011c-0.034,0.011-0.057,0.034-0.09,0.044c-0.021,0.012-0.044,0.023-0.066,0.034
				c-0.022,0.023-0.056,0.035-0.079,0.057c-0.021,0.011-0.043,0.034-0.066,0.046c-0.022,0.022-0.044,0.033-0.067,0.056
				c-0.022,0.022-0.045,0.033-0.056,0.056c-0.022,0.023-0.035,0.034-0.057,0.056c-0.021,0.023-0.044,0.045-0.056,0.068
				c-0.012,0.022-0.033,0.033-0.044,0.056c-0.023,0.023-0.035,0.057-0.058,0.08c-0.011,0.022-0.021,0.045-0.033,0.057
				c-0.022,0.033-0.033,0.056-0.056,0.089c0,0.012-0.011,0.012-0.011,0.023l-7.614,15.094c-0.426,0.858-0.089,1.896,0.75,2.336
				c0.247,0.124,0.516,0.191,0.784,0.191c0.626,0,1.231-0.35,1.533-0.947l1.211-2.392h9.74l1.209,2.392
				c0.303,0.598,0.907,0.947,1.533,0.947c0.259,0,0.527-0.057,0.784-0.191c0.851-0.429,1.188-1.478,0.751-2.336L150.465,105.095z
				 M145.818,115.902l3.124-6.183l3.123,6.183H145.818z"/>
			<path fill="#663333" d="M74.898,117.967c-0.649-0.699-1.746-0.734-2.429-0.079c-1.131,1.061-2.597,1.646-4.143,1.646
				c-3.348,0-6.057-2.741-6.057-6.103c0-3.362,2.72-6.104,6.057-6.104c1.579,0,3.067,0.609,4.199,1.703
				c0.336,0.328,0.762,0.484,1.199,0.484c0.447,0,0.907-0.18,1.243-0.529c0.66-0.688,0.638-1.793-0.045-2.459
				c-1.78-1.726-4.121-2.673-6.595-2.673c-5.24,0-9.506,4.297-9.506,9.578c0,5.279,4.266,9.577,9.506,9.577
				c2.43,0,4.737-0.924,6.505-2.594C75.515,119.76,75.548,118.654,74.898,117.967z"/>
			<path fill="#663333" d="M179.935,105.759c0-0.021,0-0.055-0.011-0.078c0-0.022-0.012-0.056-0.012-0.079
				c0-0.035-0.011-0.057-0.011-0.091c0-0.022-0.011-0.045-0.021-0.068c-0.011-0.033-0.011-0.067-0.022-0.089
				c-0.012-0.023-0.012-0.045-0.022-0.068c-0.011-0.034-0.022-0.056-0.033-0.09c-0.011-0.022-0.022-0.045-0.035-0.078
				c-0.011-0.023-0.021-0.046-0.032-0.079c-0.012-0.023-0.034-0.056-0.046-0.08c-0.012-0.022-0.022-0.044-0.043-0.055
				c-0.023-0.023-0.035-0.057-0.058-0.08c-0.011-0.021-0.033-0.033-0.045-0.056c-0.022-0.022-0.045-0.045-0.056-0.067
				c-0.022-0.022-0.034-0.045-0.056-0.057c-0.022-0.022-0.045-0.033-0.057-0.057c-0.022-0.022-0.044-0.045-0.067-0.056
				c-0.012-0.012-0.012-0.012-0.022-0.023c-0.012-0.011-0.022-0.011-0.033-0.021c-0.021-0.024-0.056-0.035-0.078-0.057
				c-0.021-0.012-0.044-0.022-0.067-0.035c-0.022-0.01-0.056-0.032-0.078-0.044c-0.021-0.012-0.044-0.023-0.066-0.034
				c-0.023-0.011-0.057-0.023-0.079-0.034c-0.023-0.012-0.055-0.023-0.078-0.034c-0.022-0.011-0.056-0.023-0.079-0.023
				c-0.033-0.012-0.056-0.012-0.091-0.023c-0.021-0.011-0.055-0.011-0.077-0.011c-0.033-0.01-0.067-0.01-0.09-0.01
				s-0.045-0.012-0.078-0.012s-0.066,0-0.101,0c-0.011,0-0.033,0-0.044,0s-0.023,0-0.034,0c-0.033,0-0.066,0-0.101,0
				c-0.022,0-0.057,0-0.079,0.012c-0.021,0-0.056,0.01-0.078,0.01c-0.033,0-0.057,0.011-0.09,0.011
				c-0.022,0-0.045,0.011-0.077,0.023c-0.034,0.012-0.057,0.012-0.09,0.023c-0.023,0.011-0.046,0.022-0.068,0.022
				c-0.022,0.012-0.054,0.022-0.076,0.034c-0.023,0.011-0.057,0.022-0.08,0.033c-0.022,0.012-0.044,0.024-0.067,0.035
				c-0.022,0.011-0.055,0.034-0.077,0.044c-0.023,0.012-0.045,0.023-0.057,0.034c-0.022,0.023-0.057,0.035-0.078,0.057
				c-0.022,0.011-0.034,0.034-0.057,0.046c-0.021,0.022-0.045,0.045-0.067,0.056c-0.022,0.022-0.045,0.033-0.056,0.056
				c-0.023,0.023-0.034,0.044-0.055,0.056c-0.023,0.023-0.046,0.045-0.058,0.068c-0.011,0.012-0.011,0.012-0.021,0.022l-6.126,8.1
				l-5.9-8.078c-0.011-0.011-0.021-0.022-0.021-0.033c-0.022-0.023-0.034-0.046-0.057-0.08c-0.022-0.022-0.033-0.044-0.057-0.056
				c-0.022-0.023-0.032-0.034-0.055-0.056c-0.022-0.023-0.046-0.045-0.067-0.056c-0.022-0.012-0.034-0.035-0.057-0.046
				c-0.022-0.021-0.045-0.034-0.076-0.057c-0.023-0.011-0.046-0.022-0.068-0.044c-0.022-0.012-0.057-0.034-0.078-0.044
				c-0.023-0.012-0.045-0.024-0.067-0.035c-0.021-0.011-0.045-0.022-0.079-0.034c-0.021-0.011-0.057-0.022-0.078-0.034
				c-0.022-0.011-0.044-0.022-0.067-0.022c-0.033-0.012-0.056-0.024-0.09-0.024c-0.021-0.011-0.045-0.011-0.067-0.022
				c-0.032-0.01-0.055-0.01-0.089-0.022c-0.022,0-0.057-0.012-0.078-0.012c-0.022,0-0.055-0.011-0.078-0.011
				c-0.033,0-0.067,0-0.091,0c-0.011,0-0.032,0-0.044,0s-0.022,0-0.034,0c-0.032,0-0.066,0-0.101,0c-0.021,0-0.045,0-0.067,0.011
				c-0.033,0-0.067,0.012-0.089,0.012c-0.022,0-0.057,0.012-0.079,0.012c-0.033,0.01-0.057,0.01-0.09,0.021
				c-0.021,0.011-0.056,0.011-0.077,0.023c-0.022,0.012-0.057,0.023-0.079,0.023c-0.033,0.011-0.055,0.022-0.078,0.034
				c-0.021,0.011-0.044,0.022-0.066,0.034c-0.034,0.011-0.057,0.034-0.091,0.046c-0.022,0.011-0.043,0.022-0.056,0.032
				c-0.033,0.023-0.056,0.035-0.078,0.057c-0.012,0.011-0.023,0.011-0.023,0.023c-0.011,0.012-0.021,0.023-0.033,0.023
				c-0.022,0.021-0.045,0.034-0.077,0.057c-0.023,0.022-0.046,0.033-0.057,0.056c-0.022,0.022-0.033,0.033-0.057,0.056
				c-0.022,0.023-0.045,0.044-0.056,0.068c-0.011,0.022-0.032,0.033-0.044,0.056c-0.022,0.022-0.034,0.044-0.056,0.079
				c-0.011,0.022-0.023,0.045-0.046,0.067c-0.011,0.022-0.033,0.057-0.044,0.079c-0.012,0.023-0.023,0.045-0.034,0.068
				s-0.021,0.044-0.033,0.08c-0.011,0.022-0.022,0.056-0.033,0.078c-0.013,0.022-0.023,0.045-0.023,0.068
				c-0.011,0.033-0.021,0.056-0.021,0.09c-0.012,0.023-0.012,0.044-0.023,0.067c-0.011,0.034-0.011,0.057-0.022,0.09
				c0,0.023-0.012,0.057-0.012,0.079c0,0.023-0.011,0.056-0.011,0.079c0,0.034,0,0.068,0,0.09c0,0.011,0,0.034,0,0.045v15.094
				c0,0.96,0.773,1.737,1.725,1.737c0.953,0,1.725-0.777,1.725-1.737v-9.815l4.132,5.664c0,0,0,0.011,0.011,0.011l0.012,0.012
				c0.022,0.034,0.057,0.069,0.078,0.102c0.011,0.013,0.022,0.022,0.022,0.034c0.067,0.079,0.157,0.158,0.235,0.226
				c0.033,0.034,0.078,0.056,0.112,0.08c0.034,0.021,0.066,0.045,0.11,0.067c0.012,0,0.012,0.011,0.023,0.011
				c0.033,0.021,0.067,0.033,0.112,0.057c0.01,0,0.01,0.011,0.021,0.011c0.035,0.011,0.068,0.022,0.091,0.034
				c0.012,0.012,0.034,0.012,0.045,0.012c0.023,0.011,0.046,0.011,0.067,0.021c0.011,0,0.033,0.012,0.044,0.012
				c0.034,0.012,0.068,0.012,0.113,0.023c0.011,0,0.034,0,0.044,0.011c0.022,0,0.056,0.011,0.079,0.011c0.012,0,0.033,0,0.045,0
				c0.032,0,0.078,0,0.11,0h0.011h0.012c0.034,0,0.067,0,0.113,0c0.011,0,0.033,0,0.043,0c0.024,0,0.046,0,0.08-0.011
				c0.011,0,0.034,0,0.045-0.011c0.033-0.012,0.067-0.012,0.1-0.023c0.012,0,0.035-0.012,0.046-0.012
				c0.021-0.011,0.045-0.011,0.067-0.021c0.012,0,0.033-0.012,0.044-0.012c0.034-0.012,0.057-0.023,0.09-0.034
				c0.012,0,0.012-0.011,0.023-0.011c0.032-0.012,0.077-0.035,0.111-0.057c0,0,0.012-0.011,0.021-0.011
				c0.033-0.022,0.067-0.035,0.101-0.057h0.011c0.091-0.057,0.169-0.113,0.248-0.191c0.033-0.035,0.066-0.068,0.111-0.114
				c0.011-0.011,0.022-0.022,0.022-0.032c0.022-0.034,0.057-0.069,0.078-0.102l0.013-0.013c0,0,0-0.012,0.011-0.012l4.399-5.831
				v9.96c0,0.961,0.773,1.738,1.725,1.738c0.952,0,1.724-0.777,1.724-1.738v-15.049c0-0.011,0-0.022,0-0.033
				C179.935,105.816,179.935,105.783,179.935,105.759z"/>
			<path fill="#663333" d="M212.775,119.241h-7.143v-13.369c0-0.958-0.772-1.737-1.725-1.737s-1.725,0.778-1.725,1.737v15.095
				c0,0.958,0.772,1.737,1.725,1.737h8.867c0.952,0,1.725-0.779,1.725-1.737C214.5,120.021,213.728,119.241,212.775,119.241z"/>
			<path fill="#663333" d="M115.374,110.296c0-3.396-2.743-6.149-6.103-6.149h-7.21c-0.952,0-1.724,0.779-1.724,1.737v15.095
				c0,0.959,0.772,1.737,1.724,1.737s1.725-0.778,1.725-1.737v-4.535h4.198l4.3,5.596c0.337,0.439,0.851,0.677,1.367,0.677
				c0.369,0,0.738-0.113,1.052-0.362c0.749-0.585,0.895-1.68,0.313-2.436l-3.124-4.072
				C113.94,114.854,115.374,112.743,115.374,110.296z M109.261,112.969h-0.425h-5.062v-5.359h5.487c1.466,0,2.653,1.209,2.653,2.674
				C111.926,111.773,110.727,112.969,109.261,112.969z"/>
			<path fill="#663333" d="M135.765,110.296c0-3.396-2.744-6.149-6.103-6.149h-7.211c-0.952,0-1.725,0.779-1.725,1.737v15.095
				c0,0.959,0.772,1.737,1.725,1.737s1.724-0.778,1.724-1.737v-4.535h4.21l4.3,5.596c0.336,0.439,0.852,0.677,1.366,0.677
				c0.369,0,0.738-0.113,1.052-0.362c0.75-0.585,0.896-1.68,0.313-2.436l-3.124-4.072
				C134.342,114.854,135.765,112.743,135.765,110.296z M129.662,112.969h-0.426h-5.062v-5.359h5.487
				c1.467,0,2.652,1.209,2.652,2.674C132.326,111.773,131.129,112.969,129.662,112.969z"/>
			<path fill="#663333" d="M61.921,92.673c-0.481-0.259-0.852-0.609-1.12-1.071c-0.269-0.452-0.403-0.971-0.403-1.545
				c0-0.576,0.134-1.095,0.403-1.545c0.268-0.451,0.639-0.813,1.12-1.061c0.469-0.26,1.019-0.384,1.624-0.384
				c0.57,0,1.075,0.113,1.512,0.351c0.437,0.237,0.761,0.575,0.974,1.003l-1.042,0.609c-0.168-0.27-0.381-0.473-0.627-0.609
				c-0.247-0.135-0.525-0.203-0.817-0.203c-0.504,0-0.93,0.169-1.265,0.496c-0.336,0.327-0.504,0.78-0.504,1.331
				c0,0.553,0.168,1.005,0.493,1.332c0.325,0.328,0.75,0.496,1.264,0.496c0.303,0,0.571-0.067,0.817-0.203
				c0.246-0.135,0.46-0.338,0.628-0.609l1.041,0.609c-0.224,0.44-0.548,0.778-0.986,1.016c-0.437,0.236-0.929,0.36-1.5,0.36
				C62.939,93.058,62.402,92.922,61.921,92.673z"/>
			<path fill="#663333" d="M71.762,88.285h-2.038v4.693H68.37v-4.693h-2.049v-1.162h5.441V88.285z"/>
			<path fill="#663333" d="M78.278,87.124l-2.721,6.318c-0.258,0.631-0.56,1.082-0.929,1.342c-0.358,0.259-0.807,0.384-1.321,0.384
				c-0.291,0-0.571-0.045-0.862-0.148c-0.28-0.089-0.515-0.225-0.694-0.395l0.549-1.004c0.133,0.124,0.279,0.225,0.458,0.292
				c0.18,0.069,0.359,0.113,0.539,0.113c0.235,0,0.436-0.067,0.593-0.191c0.157-0.124,0.303-0.327,0.425-0.621l0.101-0.226
				l-2.531-5.877h1.412l1.824,4.332l1.847-4.32H78.278z"/>
			<path fill="#663333" d="M85.063,91.816v2.471h-1.276v-1.309h-4.479v1.309h-1.265v-2.471h0.268
				c0.371-0.011,0.628-0.248,0.762-0.722c0.134-0.462,0.224-1.117,0.269-1.962l0.079-2.008h4.78v4.692H85.063z M80.417,90.869
				c-0.078,0.429-0.225,0.733-0.437,0.947h2.855v-3.531h-2.229l-0.032,0.948C80.552,89.898,80.496,90.452,80.417,90.869z"/>
			<path fill="#663333" d="M86.34,85.928c-0.167-0.159-0.246-0.351-0.246-0.587c0-0.236,0.078-0.428,0.246-0.586
				c0.168-0.159,0.37-0.237,0.616-0.237s0.448,0.078,0.616,0.226c0.168,0.146,0.246,0.338,0.246,0.564
				c0,0.237-0.078,0.44-0.246,0.609c-0.168,0.169-0.37,0.249-0.628,0.249C86.722,86.166,86.508,86.086,86.34,85.928z M86.284,87.124
				h1.356v5.854h-1.356V87.124z"/>
			<path fill="#663333" d="M94.381,87.124v5.854h-1.221v-1.771h-1.535l-1.175,1.771h-1.456l1.367-1.951
				c-0.426-0.147-0.739-0.372-0.963-0.677c-0.225-0.305-0.336-0.677-0.336-1.129c0-0.677,0.235-1.195,0.705-1.556
				c0.47-0.361,1.12-0.553,1.948-0.553L94.381,87.124z M90.451,89.267c0,0.654,0.425,0.982,1.275,0.982h1.446v-1.975h-1.4
				C90.887,88.274,90.451,88.613,90.451,89.267z"/>
			<path fill="#663333" d="M103.527,90.43c0.202,0.225,0.303,0.507,0.303,0.823c0,0.361-0.124,0.677-0.358,0.948
				c-0.235,0.271-0.572,0.485-0.986,0.643c-0.425,0.158-0.895,0.225-1.434,0.225c-0.447,0-0.885-0.055-1.322-0.158
				c-0.424-0.101-0.817-0.259-1.164-0.451l0.392-1.016c0.28,0.159,0.604,0.283,0.952,0.372c0.358,0.092,0.705,0.136,1.063,0.136
				c0.459,0,0.817-0.067,1.076-0.215c0.258-0.146,0.38-0.338,0.38-0.586c0-0.225-0.1-0.406-0.303-0.53
				c-0.201-0.125-0.482-0.191-0.839-0.191h-1.132v-0.925h1.021c0.335,0,0.604-0.057,0.794-0.181c0.19-0.113,0.291-0.283,0.291-0.496
				c0-0.214-0.111-0.384-0.346-0.508c-0.235-0.125-0.549-0.192-0.952-0.192c-0.583,0-1.197,0.147-1.836,0.429l-0.347-1.005
				c0.761-0.361,1.533-0.541,2.307-0.541c0.492,0,0.939,0.067,1.333,0.203c0.392,0.135,0.693,0.327,0.917,0.564
				c0.225,0.248,0.336,0.518,0.336,0.834c0,0.282-0.091,0.541-0.258,0.755c-0.179,0.226-0.414,0.395-0.716,0.519
				C103.047,90.035,103.326,90.203,103.527,90.43z"/>
			<path fill="#663333" d="M109.361,87.676c0.449,0.418,0.684,1.038,0.684,1.873v3.429h-1.288v-0.71
				c-0.168,0.26-0.403,0.452-0.717,0.586c-0.313,0.135-0.683,0.204-1.119,0.204c-0.437,0-0.817-0.08-1.142-0.225
				c-0.325-0.147-0.582-0.361-0.762-0.62c-0.179-0.272-0.269-0.565-0.269-0.904c0-0.53,0.189-0.947,0.583-1.264
				c0.392-0.315,0.997-0.473,1.835-0.473h1.501v-0.09c0-0.406-0.123-0.722-0.37-0.948c-0.246-0.214-0.604-0.327-1.085-0.327
				c-0.325,0-0.649,0.057-0.962,0.157c-0.314,0.102-0.583,0.249-0.795,0.429l-0.537-0.993c0.302-0.237,0.67-0.417,1.097-0.542
				c0.425-0.124,0.884-0.192,1.354-0.192C108.254,87.056,108.914,87.27,109.361,87.676z M108.119,91.816
				c0.269-0.157,0.449-0.383,0.56-0.677v-0.676h-1.398c-0.786,0-1.176,0.259-1.176,0.778c0,0.249,0.101,0.451,0.291,0.586
				c0.19,0.147,0.471,0.214,0.818,0.214C107.559,92.053,107.861,91.975,108.119,91.816z"/>
			<path fill="#663333" d="M112.754,92.673c-0.481-0.259-0.852-0.609-1.119-1.071c-0.269-0.452-0.404-0.971-0.404-1.545
				c0-0.576,0.136-1.095,0.404-1.545c0.268-0.451,0.638-0.813,1.119-1.061c0.47-0.26,1.019-0.384,1.624-0.384
				c0.57,0,1.075,0.113,1.512,0.351c0.436,0.237,0.761,0.575,0.974,1.003l-1.042,0.609c-0.167-0.27-0.38-0.473-0.626-0.609
				c-0.247-0.135-0.526-0.203-0.817-0.203c-0.503,0-0.93,0.169-1.266,0.496s-0.503,0.78-0.503,1.331
				c0,0.553,0.167,1.005,0.492,1.332c0.325,0.328,0.75,0.496,1.264,0.496c0.304,0,0.572-0.067,0.817-0.203
				c0.248-0.135,0.46-0.338,0.628-0.609l1.042,0.609c-0.224,0.44-0.549,0.778-0.986,1.016c-0.436,0.236-0.929,0.36-1.501,0.36
				C113.772,93.058,113.224,92.922,112.754,92.673z"/>
			<path fill="#663333" d="M123.76,92.978v-3.88l-1.958,3.26h-0.583l-1.926-3.271v3.892h-1.243v-5.854h1.422l2.071,3.655
				l2.162-3.655h1.275l0.012,5.854H123.76z"/>
			<path fill="#663333" d="M130.938,87.676c0.449,0.418,0.683,1.038,0.683,1.873v3.429h-1.287v-0.71
				c-0.168,0.26-0.402,0.452-0.717,0.586c-0.313,0.135-0.683,0.204-1.121,0.204c-0.436,0-0.815-0.08-1.141-0.225
				c-0.324-0.147-0.582-0.361-0.762-0.62c-0.18-0.272-0.269-0.565-0.269-0.904c0-0.53,0.19-0.947,0.582-1.264
				c0.393-0.315,0.996-0.473,1.836-0.473h1.501v-0.09c0-0.406-0.123-0.722-0.369-0.948c-0.247-0.214-0.604-0.327-1.087-0.327
				c-0.324,0-0.649,0.057-0.963,0.157c-0.313,0.102-0.582,0.249-0.794,0.429l-0.538-0.993c0.304-0.237,0.672-0.417,1.098-0.542
				c0.426-0.124,0.885-0.192,1.354-0.192C129.829,87.056,130.49,87.27,130.938,87.676z M129.694,91.816
				c0.269-0.157,0.448-0.383,0.561-0.677v-0.676h-1.399c-0.784,0-1.176,0.259-1.176,0.778c0,0.249,0.1,0.451,0.291,0.586
				c0.19,0.147,0.471,0.214,0.816,0.214C129.135,92.053,129.438,91.975,129.694,91.816z"/>
			<path fill="#663333" d="M137.767,88.285h-3.101v4.693h-1.355v-5.854h4.456V88.285z"/>
			<path fill="#663333" d="M138.754,87.124h1.354v3.858l3.214-3.858h1.242v5.854h-1.354V89.12l-3.203,3.858h-1.253V87.124z"/>
		</g>
	</g>
</g>

</svg>
