<?xml version="1.0" encoding="utf-8"?>
<!DOCTYPE svg PUBLIC "-//W3C//DTD SVG 1.1//EN" "http://www.w3.org/Graphics/SVG/1.1/DTD/svg11.dtd">
<svg version="1.1" xmlns="http://www.w3.org/2000/svg" xmlns:xlink="http://www.w3.org/1999/xlink" x="0px" y="0px" width="216px" height="216px" viewBox="0 0 216 216" enable-background="new 0 0 216 216" xml:space="preserve">
<g>
	<path fill-rule="evenodd" clip-rule="evenodd" fill="#010202" d="M54.5,0.5h108.003c29.699,0,53.997,24.3,53.997,54v108.003
		c0,29.699-24.298,53.997-53.997,53.997H54.5c-29.7,0-54-24.298-54-53.997V54.5C0.5,24.8,24.8,0.5,54.5,0.5z"/>
	<g>
		<path fill="#FFFFFF" d="M28.357,126.712c0.761,2.017,1.814,3.744,3.16,5.178c1.346,1.433,2.94,2.529,4.783,3.291
			c1.843,0.761,3.847,1.14,6.011,1.14c2.106,0,4.082-0.394,5.924-1.185c1.842-0.789,3.453-1.901,4.827-3.334
			c1.375-1.433,2.442-3.146,3.203-5.134c0.761-1.989,1.141-4.213,1.141-6.671V82.083h9.215v61.435h-9.126v-5.705
			c-2.048,2.164-4.461,3.833-7.241,5.003c-2.779,1.17-5.777,1.755-8.995,1.755c-3.277,0-6.334-0.57-9.172-1.711
			c-2.838-1.142-5.296-2.766-7.372-4.871c-2.077-2.106-3.716-4.636-4.915-7.591s-1.8-6.246-1.8-9.873V82.083h9.215v37.913
			C27.217,122.454,27.596,124.692,28.357,126.712"/>
		<path fill="#FFFFFF" d="M82.506,82.083v22.379c2.048-2.048,4.418-3.671,7.109-4.87c2.691-1.2,5.617-1.799,8.776-1.799
			c3.277,0,6.348,0.613,9.215,1.842c2.866,1.228,5.353,2.896,7.459,5.002c2.106,2.106,3.774,4.593,5.003,7.459
			c1.229,2.867,1.843,5.909,1.843,9.128c0,3.218-0.613,6.245-1.843,9.082c-1.229,2.837-2.896,5.311-5.003,7.416
			c-2.106,2.106-4.593,3.773-7.459,5.004c-2.868,1.229-5.938,1.842-9.215,1.842c-3.159,0-6.099-0.6-8.82-1.8
			c-2.722-1.199-5.105-2.823-7.153-4.87v5.617h-8.775V82.083H82.506z M83.515,127.281c0.79,1.872,1.887,3.512,3.292,4.914
			c1.404,1.406,3.042,2.516,4.915,3.335s3.891,1.23,6.056,1.23c2.106,0,4.096-0.41,5.968-1.23c1.873-0.819,3.496-1.931,4.871-3.335
			c1.375-1.403,2.471-3.042,3.291-4.914c0.819-1.873,1.229-3.891,1.229-6.056c0-2.164-0.409-4.197-1.229-6.099
			c-0.819-1.902-1.916-3.554-3.291-4.96c-1.375-1.403-2.999-2.5-4.871-3.292c-1.873-0.789-3.862-1.184-5.968-1.184
			s-4.096,0.395-5.968,1.184c-1.873,0.791-3.511,1.888-4.915,3.292c-1.404,1.406-2.515,3.058-3.334,4.96
			c-0.819,1.901-1.229,3.935-1.229,6.099C82.331,123.391,82.726,125.408,83.515,127.281"/>
		<path fill="#FFFFFF" d="M126.913,112.187c1.17-2.809,2.779-5.281,4.828-7.417c2.048-2.135,4.475-3.817,7.284-5.046
			c2.808-1.228,5.85-1.842,9.126-1.842c3.219,0,6.202,0.585,8.952,1.755c2.75,1.17,5.119,2.794,7.109,4.871
			c1.989,2.076,3.541,4.535,4.651,7.372c1.112,2.838,1.667,5.924,1.667,9.259v2.896H134.11c0.292,1.814,0.877,3.496,1.755,5.047
			c0.878,1.55,1.976,2.896,3.291,4.036c1.316,1.141,2.809,2.033,4.477,2.677c1.666,0.644,3.437,0.967,5.309,0.967
			c5.325,0,9.624-2.195,12.901-6.583l6.405,4.739c-2.223,2.983-4.974,5.325-8.248,7.021c-3.276,1.695-6.964,2.544-11.06,2.544
			c-3.334,0-6.45-0.585-9.347-1.755s-5.412-2.808-7.546-4.914c-2.137-2.106-3.818-4.579-5.047-7.416
			c-1.229-2.838-1.843-5.924-1.843-9.259C125.158,117.979,125.743,114.995,126.913,112.187 M139.243,108.719
			c-2.485,2.078-4.14,4.841-4.958,8.292h27.294c-0.761-3.451-2.384-6.216-4.87-8.292s-5.397-3.116-8.732-3.116
			C144.641,105.604,141.729,106.643,139.243,108.719"/>
		<path fill="#FFFFFF" d="M187.116,109.729c-1.872,2.049-2.808,4.828-2.808,8.337v25.451h-8.863V98.758h8.775v5.529
			c1.111-1.814,2.561-3.248,4.345-4.3c1.785-1.054,3.905-1.58,6.363-1.58H198v8.25h-3.686
			C191.388,106.657,188.989,107.681,187.116,109.729"/>
	</g>
</g>
</svg>
