<?xml version="1.0" encoding="utf-8"?>
<!DOCTYPE svg PUBLIC "-//W3C//DTD SVG 1.1//EN" "http://www.w3.org/Graphics/SVG/1.1/DTD/svg11.dtd">
<svg version="1.1" id="Layer_1" xmlns="http://www.w3.org/2000/svg" xmlns:xlink="http://www.w3.org/1999/xlink" x="0px" y="0px" width="216px" height="216px" viewBox="0 0 216 216" enable-background="new 0 0 216 216" xml:space="preserve">
<circle fill-rule="evenodd" clip-rule="evenodd" fill="#EF4973" cx="108" cy="108" r="108"/>
<path fill="#FFFFFF" d="M26.42,90.575v28.744h5.602v-10.642h4.997c1.659,0,3.086-0.235,4.288-0.677
	c1.205-0.443,2.206-1.062,2.995-1.867c0.548-0.56,0.98-1.148,1.3-1.774c0.319-0.625,0.556-1.235,0.711-1.839
	c0.154-0.603,0.255-1.149,0.302-1.645c0.046-0.487,0.057-0.875,0.057-1.164c0-0.697-0.074-1.45-0.244-2.262
	c-0.167-0.803-0.462-1.611-0.89-2.42c-0.427-0.807-1.022-1.565-1.795-2.255c-0.691-0.617-1.429-1.079-2.184-1.394
	c-0.761-0.318-1.58-0.532-2.463-0.646c-0.891-0.115-1.868-0.159-2.938-0.159H26.42L26.42,90.575z M32.022,95.402h3.316
	c0.445,0,0.906,0.01,1.364,0.049c0.46,0.04,0.911,0.127,1.35,0.26c0.444,0.133,0.863,0.321,1.25,0.596
	c0.281,0.199,0.536,0.454,0.775,0.761c0.242,0.311,0.438,0.668,0.589,1.091c0.15,0.417,0.23,0.891,0.23,1.422
	c0,0.632-0.132,1.249-0.389,1.839c-0.259,0.595-0.636,1.11-1.164,1.522c-0.392,0.307-0.817,0.511-1.242,0.639
	c-0.431,0.131-0.848,0.202-1.256,0.23c-0.417,0.029-0.805,0.037-1.164,0.037h-3.661V95.402L32.022,95.402z M86.416,89.832
	c-2.262,0.008-4.333,0.379-6.194,1.117c-1.87,0.731-3.48,1.769-4.834,3.108c-1.36,1.339-2.406,2.922-3.143,4.748
	s-1.118,3.831-1.125,6.022c0.007,2.191,0.388,4.197,1.125,6.017c0.737,1.817,1.783,3.394,3.143,4.731
	c1.354,1.333,2.965,2.364,4.834,3.095c1.861,0.729,3.932,1.103,6.194,1.109c2.263-0.007,4.333-0.38,6.195-1.109
	c1.869-0.73,3.48-1.762,4.84-3.095c1.354-1.338,2.399-2.914,3.144-4.731c0.737-1.82,1.11-3.826,1.117-6.017
	c-0.007-2.191-0.38-4.196-1.117-6.022c-0.745-1.826-1.791-3.409-3.144-4.748c-1.36-1.339-2.972-2.377-4.84-3.108
	C90.749,90.211,88.678,89.839,86.416,89.832L86.416,89.832z M86.416,114.709c-1.403-0.007-2.685-0.249-3.845-0.73
	c-1.16-0.479-2.17-1.152-3.021-2.034c-0.846-0.881-1.504-1.919-1.97-3.129c-0.458-1.202-0.694-2.534-0.702-3.988
	c0.007-1.454,0.244-2.792,0.702-3.996c0.466-1.21,1.125-2.256,1.97-3.143c0.851-0.882,1.861-1.569,3.021-2.056
	c1.16-0.48,2.442-0.723,3.845-0.729c1.403,0.006,2.685,0.25,3.846,0.729c1.167,0.487,2.17,1.174,3.022,2.056
	c0.845,0.887,1.504,1.933,1.97,3.143c0.465,1.204,0.694,2.542,0.701,3.996c-0.007,1.455-0.236,2.786-0.701,3.988
	c-0.466,1.21-1.125,2.249-1.97,3.129c-0.852,0.882-1.855,1.555-3.022,2.034C89.101,114.46,87.819,114.702,86.416,114.709
	L86.416,114.709z M160.209,89.832c-2.264,0.008-4.333,0.379-6.195,1.117c-1.87,0.731-3.479,1.769-4.833,3.108
	c-1.36,1.339-2.407,2.922-3.145,4.748s-1.118,3.831-1.124,6.022c0.006,2.191,0.387,4.197,1.124,6.017
	c0.737,1.817,1.784,3.394,3.145,4.731c1.354,1.333,2.963,2.364,4.833,3.095c1.862,0.729,3.932,1.103,6.195,1.109
	c2.261-0.007,4.332-0.38,6.193-1.109c1.869-0.73,3.479-1.762,4.841-3.095c1.354-1.338,2.398-2.914,3.144-4.731
	c0.738-1.82,1.11-3.826,1.116-6.017c-0.006-2.191-0.378-4.196-1.116-6.022c-0.745-1.826-1.79-3.409-3.144-4.748
	c-1.362-1.339-2.972-2.377-4.841-3.108C164.541,90.211,162.47,89.839,160.209,89.832L160.209,89.832z M160.209,114.709
	c-1.405-0.007-2.687-0.249-3.847-0.73c-1.159-0.479-2.168-1.152-3.022-2.034c-0.844-0.881-1.504-1.919-1.97-3.129
	c-0.458-1.202-0.694-2.534-0.701-3.988c0.007-1.454,0.243-2.792,0.701-3.996c0.466-1.21,1.126-2.256,1.97-3.143
	c0.854-0.882,1.863-1.569,3.022-2.056c1.16-0.48,2.441-0.723,3.847-0.729c1.402,0.006,2.685,0.25,3.845,0.729
	c1.167,0.487,2.169,1.174,3.021,2.056c0.845,0.887,1.504,1.933,1.97,3.143c0.465,1.204,0.694,2.542,0.701,3.996
	c-0.007,1.455-0.236,2.786-0.701,3.988c-0.466,1.21-1.125,2.249-1.97,3.129c-0.853,0.882-1.854,1.555-3.021,2.034
	C162.894,114.46,161.611,114.702,160.209,114.709L160.209,114.709z M122.547,95.841c-2.462-4.877-7.053-6.335-10.045-6.309
	c-4.903,0.042-9.029,3.57-8.995,8.721c0.029,4.358,4.23,7.048,7.984,8.317c2.24,0.757,6.175,2.017,6.164,4.909
	c-0.012,2.449-2.175,3.401-4.481,3.423c-2.519,0.023-5.137-1.996-5.604-5.033l-5.345,2.065c1.316,4.129,5.32,8.066,10.142,8.134
	c5.461,0.074,10.647-3.01,10.643-8.307c-0.004-5.295-3.446-8.036-7.896-9.539c-1.621-0.547-6.753-1.71-6.43-4.603
	c0.243-2.183,2.138-3.027,4.139-3.077c1.85-0.046,3.639,1.854,4.73,3.278L122.547,95.841L122.547,95.841z M145.227,95.407h-7.957
	v23.675h-5.545V95.407h-7.716v-4.778h21.218V95.407L145.227,95.407z M49.169,90.575v28.744h5.603l0.06-14.116l9.882,14.249h6.37
	l-7.925-11.812c3.624-1.33,6.263-4.226,6.263-7.929c0-0.697-0.075-1.45-0.245-2.262c-0.167-0.803-0.462-1.611-0.89-2.42
	c-0.426-0.807-1.022-1.565-1.796-2.255c-0.691-0.617-1.429-1.079-2.183-1.394c-0.761-0.318-1.581-0.532-2.464-0.646
	c-0.891-0.115-1.868-0.159-2.938-0.159H49.169L49.169,90.575z M54.771,95.402l3.609-0.079c0.446-0.009,0.906,0.01,1.365,0.05
	c0.46,0.04,0.911,0.126,1.35,0.258c0.444,0.135,0.863,0.322,1.25,0.597c0.281,0.199,0.537,0.454,0.776,0.761
	c0.242,0.311,0.437,0.668,0.589,1.091c0.149,0.417,0.229,0.891,0.229,1.422c0,0.632-0.131,1.249-0.388,1.839
	c-0.26,0.595-0.637,1.111-1.164,1.522c-0.392,0.308-0.818,0.512-1.243,0.64c-0.431,0.13-0.847,0.202-1.257,0.229
	c-0.417,0.029-0.804,0.029-1.164,0.037l-3.955,0.079V95.402L54.771,95.402z M177.587,90.575v28.744h5.602l0.06-14.116l9.883,14.249
	h6.369l-7.925-11.812c3.625-1.33,6.263-4.226,6.263-7.929c0-0.697-0.074-1.45-0.243-2.262c-0.168-0.803-0.463-1.611-0.891-2.42
	c-0.428-0.807-1.021-1.565-1.796-2.255c-0.692-0.617-1.429-1.079-2.184-1.394c-0.761-0.318-1.58-0.532-2.463-0.646
	c-0.891-0.115-1.868-0.159-2.938-0.159H177.587L177.587,90.575z M183.188,95.402l3.611-0.079c0.444-0.009,0.904,0.01,1.363,0.05
	c0.461,0.04,0.911,0.126,1.352,0.258c0.444,0.135,0.863,0.322,1.248,0.597c0.282,0.199,0.537,0.454,0.776,0.761
	c0.241,0.311,0.438,0.668,0.59,1.091c0.148,0.417,0.229,0.891,0.229,1.422c0,0.632-0.131,1.249-0.389,1.839
	c-0.259,0.595-0.636,1.111-1.163,1.522c-0.393,0.308-0.817,0.512-1.242,0.64c-0.432,0.13-0.848,0.202-1.258,0.229
	c-0.416,0.029-0.804,0.029-1.163,0.037l-3.955,0.079V95.402L183.188,95.402z M18.633,111.352c2.282,0,4.133,1.852,4.133,4.134
	s-1.852,4.134-4.133,4.134c-2.282,0-4.133-1.852-4.133-4.134S16.351,111.352,18.633,111.352z"/>
</svg>
