<?xml version="1.0" encoding="utf-8"?>
<!DOCTYPE svg PUBLIC "-//W3C//DTD SVG 1.1//EN" "http://www.w3.org/Graphics/SVG/1.1/DTD/svg11.dtd">
<svg version="1.1" id="Layer_1" xmlns="http://www.w3.org/2000/svg" xmlns:xlink="http://www.w3.org/1999/xlink" x="0px" y="0px" width="216px" height="216px" viewBox="0 0 216 216" enable-background="new 0 0 216 216" xml:space="preserve">
<g>
	<path fill="#E20513" d="M134.129,108.79c2.813,0.927,5.756,1.392,8.718,1.374c2.971,0.01,5.928-0.454,8.755-1.374
		c2.073-0.665,4.054-1.586,5.9-2.742c4.313-2.605,7.838-6.331,10.196-10.784l1.051-1.983l-9.825-5.557l-1.131,2.14
		c-1.41,2.729-3.544,5.016-6.172,6.609c-5.028,2.99-11.236,3.223-16.474,0.615l24.352-21.444l8.234-7.268l-1.047-1.686
		c-2.508-3.883-5.949-7.074-10.01-9.285c-2.924-1.683-6.139-2.804-9.476-3.304c-1.43-0.241-2.874-0.359-4.322-0.35
		c-0.748,0-1.473,0-2.194,0.079c-14.654,1.209-25.95,13.427-26.009,28.13c-0.037,4.313,0.957,8.571,2.9,12.424
		c1.426,2.742,3.264,5.25,5.451,7.434c3.1,3.184,6.919,5.577,11.134,6.979L134.129,108.79L134.129,108.79z M126.127,79.311
		L126.127,79.311c0.457-3.563,2.104-6.87,4.671-9.382c0.463-0.457,0.938-0.892,1.422-1.29c2.985-2.418,6.732-3.696,10.573-3.602
		c3.138-0.042,6.222,0.816,8.888,2.472l-24.239,21.529c-1.007-2.224-1.52-4.642-1.5-7.083
		C125.935,81.07,125.997,80.186,126.127,79.311z"/>
	<path fill="#E20513" d="M31.241,53.763c-6.854-0.074-13.484,2.436-18.569,7.032c-0.431,0.375-0.859,0.779-1.29,1.183
		C5.934,67.189,2.897,74.43,3.003,81.969c0,7.757,2.901,14.378,8.352,19.855c3.539,3.653,8.016,6.256,12.94,7.521
		c2.274,0.547,4.606,0.824,6.946,0.825c2.348,0.019,4.69-0.259,6.971-0.825c0.66-0.139,1.236-0.324,1.838-0.516
		c0.231-0.086,0.474-0.165,0.718-0.263c3.382-1.231,6.493-3.109,9.152-5.532l8.697,6.311l0.792,0.587V53.731L49.894,60.9
		c-5.091-4.67-11.772-7.223-18.679-7.135L31.241,53.763L31.241,53.763z M43.232,93.994L43.232,93.994
		c-2.418,2.479-5.567,4.12-8.986,4.687c-0.993,0.171-1.999,0.256-3.005,0.25c-9.409-0.055-16.991-7.729-16.933-17.138
		c0.022-4.02,1.468-7.903,4.079-10.96c0.244-0.304,0.507-0.586,0.806-0.891c6.642-6.64,17.409-6.637,24.047,0.006
		C49.878,76.59,49.877,87.356,43.232,93.994z"/>
	<path fill="#E20513" d="M98.182,110.08h11.285V76.953c0.166-11.909-9.352-21.695-21.26-21.862
		c-0.206-0.001-0.413-0.001-0.619,0.002c-5.141-0.095-10.133,1.724-14.01,5.1l-7.849-6.362v56.25h11.287V76.953
		c-0.027-5.815,4.667-10.548,10.478-10.575c0.031,0,0.063,0,0.094,0c2.814-0.067,5.535,1.012,7.54,2.989
		c2.047,1.984,3.157,4.748,3.054,7.599V110.08z"/>
	<polygon fill="#E20513" points="215.939,110.139 197.664,77.963 211.384,53.757 198.03,53.757 190.931,66.268 183.827,53.757 
		170.455,53.757 184.303,77.977 165.896,110.139 179.271,110.139 190.931,89.668 202.571,110.139 	"/>
	<path fill="#162983" d="M109.475,129.355v-11.043l-7.97,3.477v7.586h-5.946v7.481h5.946v10.699v4.208
		c-0.088,3.965,1.467,7.793,4.295,10.573c0.179,0.172,0.372,0.33,0.549,0.502l1.408,1.27l5.063-6.345l-1.25-1.117l-0.047-0.046
		c-1.348-1.24-2.095-3.004-2.047-4.837v-14.907h5.849v-7.481h-5.849V129.355z"/>
	<path fill="#E20513" d="M137.93,124.636c-0.125-0.151-0.198,0-0.252,0.194C138.141,125.072,137.541,124.75,137.93,124.636z"/>
	<path fill="#E20513" d="M139.865,124.993c0-0.031,0.06-0.031,0.093-0.059S139.879,124.935,139.865,124.993z"/>
	<path d="M141.319,161.921c-0.053,0.032-0.1,0.074-0.146,0.117c0.065,0,0.093-0.045,0.159-0.117H141.319z"/>
	<path fill="#E20513" d="M156.563,140.504l0.385-0.146c-0.259-0.728-0.465-1.471-0.615-2.228c-0.167-0.751-0.545-1.439-1.093-1.981
		c0.063-0.494-0.012-0.993-0.217-1.448c-0.526-0.337-0.581-0.528-1.229-0.587c-0.116-0.147,0.101-0.403,0.188-0.538
		c-0.227-0.621-0.105-1.485-0.952-1.551l0.271-0.226c-0.596-0.237-1.368-0.548-1.447-1.242c-0.336,0.079-0.812-0.271-0.925,0.187
		c-0.212-0.107,0.316-0.489-0.106-0.412l0.509-0.185c-0.775-0.953-1.783-1.69-2.927-2.14c0.052-0.693-0.998-0.662-1.434-1.275
		c-0.517,0.059-0.946-0.66-1.54-0.158l0.126-0.325c-0.483-0.277-1.163-0.576-1.798-0.971c-0.385-0.226-0.535,0.259-0.906,0.336
		l0.081-0.336c-0.39,0.106-0.609,0.548-0.808,0.853c0-0.033-0.059-0.033-0.099-0.033c-0.146-0.147-0.239,0-0.416-0.271
		c0.357-0.2,0.659-0.484,0.878-0.833c-0.402-0.257-1.018,0.503-1.177-0.072c-0.2-0.163-0.494-0.135-0.658,0.065
		c-0.067,0.08-0.104,0.182-0.108,0.284c0.105-0.138-0.198-0.303,0.041-0.476c-0.218-0.042-0.445,0.016-0.614,0.159
		c0.047,0.03,0.097,0.05,0.151,0.06c-0.157,0.284-0.362,0.303-0.417,0.659c-0.104-0.027-0.216-0.037-0.324-0.031
		c0-0.298,0.33-0.475,0.167-0.693c-0.231,0.223-0.443,0.448-0.662,0.66c-0.399-0.049-0.801-0.07-1.201-0.059
		c-1.749-0.012-3.487,0.253-5.156,0.779c0.528-0.32,1.13-0.498,1.746-0.516c0.774,0.013,1.518-0.292,2.062-0.846
		c0.991-0.396,1.322-1.81,1.322-1.81c-1.286,0.234-2.588,0.381-3.893,0.44c-1.371,0.046-2.735,0.168-4.091,0.365
		c-0.838,0.582-1.72,1.093-2.645,1.525c-0.752,0.528-1.507,1.017-2.245,1.562l-0.563,0.395l-0.567,0.423l-0.231,0.166l-0.062,0.054
		l-0.131,0.104l-0.535,0.444c-1.497,1.203-2.658,2.77-3.377,4.551c0.265-0.098,0.396,0.226,0.383,0.424h-0.159l0.187,0.417
		c-0.087,0.27-0.442-0.035-0.392-0.271c-0.564,1.336-1.026,2.716-1.373,4.123c0.489,0.204-0.126,0.748,0.396,0.898
		c-0.109,0.04-0.123,0-0.219-0.086c0.096,1.037,0.122,1.078-0.66,1.93c-0.048,0.238-0.088,0.476-0.119,0.714
		s-0.064,0.536-0.085,0.754v0.304v0.39v0.773c0.017,0.979,0.122,1.953,0.316,2.914c0.413,1.938,1.078,3.814,1.984,5.578
		c0.983,1.702,2.248,3.229,3.739,4.514c1.45,1.28,3.045,2.389,4.752,3.303c0.38-0.157,0.805-0.176,1.196-0.047
		c0.396,0.119,0.819,0.105,1.208-0.039l-0.144,0.219c0.659-0.113,0.659,0.35,1.255,0.897c0.097-0.277,0.29,0,0.35-0.475
		c0.357-0.324,0.218,0.792,0.661,0.692c-0.045,0.173,0.06-0.282,0.099-0.11c0.542-0.166,0.47-0.107,0.41,0.078
		c-0.061,0.186-0.127,0.521,0.435,0.885c1.786,0.212,3.584-0.177,5.184,0.054c-0.107,0-0.159-0.358,0-0.376
		c0.19,0.786,0.526-0.24,0.83,0.053c0,0.159-0.132,0.225-0.204,0.297c0.787,0.279,1.322-0.283,2.102-0.06
		c0.283-0.172,0.615-0.248,0.945-0.218c0.389,0,0.76,0,0.938-0.277c0,0.345,0.37,0.146,0.563,0.245
		c0.092-0.523,0.436-0.548,0.812-0.557c0.377-0.005,0.793,0,0.953-0.43l0.045,0.158c0.892-0.405,1.758-0.867,2.592-1.387
		c0.846-0.521,1.591-1.194,2.198-1.981c0.433-0.387,0.912-0.713,1.427-0.974c0.548-0.289,0.982-0.754,1.237-1.319
		c0.046-0.253-0.226-0.244-0.179-0.443c0.192-0.219,0.225,0.19,0.377,0.164c0.072-0.659,0.905-1.03,1.322-1.685
		c-0.08-0.152,0-0.351-0.232-0.409c0.442-0.219,0.763-0.627,0.867-1.11c0.094-0.472,0.325-0.904,0.659-1.25
		c-0.859-0.059-0.204-0.66-0.27-0.971c0.092-0.145,0.304-0.086,0.429,0c0.093-0.58,0.32-1.13,0.66-1.605
		c0-0.364-0.403-0.562-0.19-0.932c0.621-0.133,0.198-0.846,0.468-1.202c-0.33,0.012-0.609-0.247-0.623-0.579
		c-0.005-0.109,0.023-0.218,0.074-0.313l0.661,0.196c-0.277-1.32,0.544-3.145-0.469-4.572L156.563,140.504L156.563,140.504z
		 M121.033,145.584L121.033,145.584c0,0,0,0,0-0.039c-0.01,0.076-0.01,0.151,0,0.226c-0.065-0.037-0.087-0.118-0.051-0.18
		c0-0.003,0.001-0.005,0.001-0.007H121.033L121.033,145.584z M140.097,125.642L140.097,125.642c0,0,0,0,0,0.046
		c-0.052-0.018-0.107-0.018-0.158,0c0.059-0.036,0.134-0.036,0.19,0L140.097,125.642L140.097,125.642z M138.106,131.002
		L138.106,131.002c2.821,0.091,5.527,1.14,7.673,2.973l0.073,0.073c2.748,2.366,4.329,5.813,4.327,9.442
		c-0.002,0.592-0.048,1.185-0.138,1.771c0,0.033,0,0.061,0,0.1c-0.066,0.418-0.146,0.826-0.252,1.23c0,0.065,0,0.139-0.051,0.204
		c-0.01,0.044-0.022,0.09-0.034,0.132v0.072c-0.209,0.706-0.479,1.395-0.808,2.056c-0.038,0.064-0.064,0.131-0.097,0.199
		c-0.022,0.038-0.045,0.076-0.061,0.119c-0.212,0.389-0.437,0.766-0.66,1.128c-0.226,0.363-0.438,0.608-0.661,0.9l-0.193,0.217
		l-0.19,0.211c-0.26,0.292-0.536,0.569-0.82,0.833l-0.244,0.218l-0.146,0.14l-0.124,0.105c-5.211,4.538-13.112,3.996-17.65-1.216
		c-4.399-5.051-4.042-12.674,0.818-17.287l0.06-0.06c1.009-0.989,2.177-1.803,3.456-2.405c0.271-0.132,0.543-0.251,0.819-0.357
		c0.277-0.104,0.568-0.218,0.852-0.31l0.581-0.146l0.199-0.052c0.947-0.225,1.921-0.342,2.896-0.344c0.15,0,0.296,0,0.442,0
		L138.106,131.002L138.106,131.002z M131.744,126.204L131.744,126.204c0.205-0.19,0.291,0.111,0.37,0.289
		c-0.291,0.081-0.596,0.192-0.867,0.29h-0.04c0.209-0.177,0.396-0.378,0.557-0.6L131.744,126.204L131.744,126.204z M124.236,131.543
		L124.236,131.543c0.12,0,0.133,0.125,0.199,0.225c0-0.463,0.383-0.661,0.659-0.838c0.363-0.159,0.528-0.579,0.369-0.941
		c-0.006-0.014-0.011-0.025-0.017-0.037l-0.172-0.458c0.243,0,0.462,0.245,0.659,0.265c-0.093-0.317,0.442-0.509,0.251-0.872
		c0.178,0.092,0.133,0.212,0.219,0.305c0.312-0.146,0.192-0.906,0.556-0.998l0.046,0.231c0.82-0.212,1.691-0.43,2.478-0.715
		c0,0,0,0.035-0.053,0.035c0,0,0,0-0.06,0c0,0,0,0.037-0.06,0.037c-1.302,0.72-2.491,1.626-3.529,2.69
		c-0.694,0.677-1.327,1.41-1.896,2.194c0.172-0.365,0.301-0.748,0.383-1.144L124.236,131.543L124.236,131.543z M122.485,134.959
		L122.485,134.959c-0.043,0.015-0.068,0.061-0.06,0.106c-0.049-0.082-0.115-0.15-0.192-0.206
		C122.324,134.873,122.411,134.907,122.485,134.959L122.485,134.959z M121.058,139.194L121.058,139.194
		c-0.045,0.081-0.063,0.172-0.051,0.265c0-0.087,0-0.173,0-0.258h0.077L121.058,139.194L121.058,139.194z M120.894,144.547
		L120.894,144.547c-0.014,0.121,0.008,0.241,0.059,0.352c0,0,0,0,0,0.039c-0.044-0.125-0.099-0.243-0.165-0.355
		c0.035-0.017,0.069-0.035,0.099-0.062L120.894,144.547L120.894,144.547z M120.938,146.107L120.938,146.107
		c0.059-0.022,0.122-0.035,0.186-0.04c-0.013,0.051-0.013,0.103,0,0.151c-0.065-0.054-0.136-0.098-0.213-0.131L120.938,146.107
		L120.938,146.107z M121.277,146.906L121.277,146.906l0.156,0.872h0.126c0.014,0.092,0.052,0.176,0.113,0.245
		c-0.173,0-0.33,0.039-0.237-0.264l-0.002,0.019L121.277,146.906L121.277,146.906z M121.673,148.229v-0.047l0.078,0.047h-0.032
		H121.673L121.673,148.229L121.673,148.229z M123.1,151.222L123.1,151.222c-0.117-0.118-0.111-0.212-0.059-0.291
		c0.04,0.088,0.088,0.173,0.146,0.251l-0.093,0.034L123.1,151.222L123.1,151.222z M124.35,153.62L124.35,153.62
		c0-0.184-0.534-0.429-0.661-0.548c0.198-0.27,0.071,0.124,0.305,0l0.132-0.443c0.035,0.016,0.076,0.016,0.111,0v0.033
		c0.227,0.305,0.471,0.595,0.734,0.866c-0.219,0.038-0.438,0.061-0.661,0.066L124.35,153.62L124.35,153.62z M125.353,154.162
		L125.353,154.162c0.048,0,0.087,0,0.132-0.071c-0.002,0.013-0.002,0.025,0,0.039L125.353,154.162z"/>
	<path fill="#162983" d="M156.048,149.563c-0.017-0.02-0.038-0.037-0.059-0.051c0,0.077,0,0.144-0.048,0.23L156.048,149.563z"/>
	<path fill="#E20513" d="M138.43,124.591c0.014,0.271,0.053,0.54,0.113,0.806C138.773,125.041,138.512,124.868,138.43,124.591z"/>
	<path fill="#EE7F00" d="M134.77,131.305l-0.196,0.051l-0.584,0.148c-0.282,0.092-0.567,0.196-0.852,0.31
		c-0.283,0.112-0.549,0.226-0.819,0.357c-1.281,0.603-2.449,1.417-3.455,2.411l-0.059,0.054c-4.931,4.846-4.996,12.77-0.15,17.699
		c4.583,4.659,11.979,5.009,16.979,0.803l0.126-0.118l0.146-0.132c0.086-0.066,0.165-0.146,0.245-0.218
		c0.286-0.267,0.562-0.547,0.819-0.841l0.191-0.204l0.19-0.219c0.239-0.29,0.463-0.588,0.662-0.898c0.198-0.31,0.47-0.741,0.66-1.13
		l0.054-0.119c0-0.065,0.065-0.132,0.092-0.198c0.333-0.658,0.604-1.346,0.813-2.054v-0.073c0.015-0.044,0.024-0.089,0.034-0.131
		c0-0.067,0.039-0.141,0.051-0.207c0.105-0.406,0.189-0.82,0.253-1.235c0,0,0-0.059,0-0.092c0.086-0.588,0.132-1.179,0.138-1.772
		c0.002-3.627-1.579-7.076-4.328-9.442l-0.072-0.073c-2.145-1.833-4.847-2.884-7.667-2.979h-0.448
		c-0.975,0.002-1.944,0.116-2.896,0.342L134.77,131.305z"/>
	<path fill="#162983" d="M209.717,123.685c-3.618-0.064-7.134,1.216-9.863,3.596l-5.536-4.479v39.648h7.929v-23.366
		c0-4.1,3.321-7.423,7.418-7.423c0.023,0,0.038,0,0.053,0c0.902-0.003,1.796,0.15,2.646,0.451l3.638-7.137
		C214.014,124.117,211.881,123.679,209.717,123.685z"/>
	<path fill="#162983" d="M167.601,123.533h-7.931v23.328c-0.105,8.392,6.609,15.284,15.005,15.39c0.135,0.001,0.271,0.001,0.405,0
		c3.62,0.066,7.137-1.212,9.866-3.588l5.528,4.479v-39.609h-7.927v23.328c0.019,4.095-3.287,7.429-7.383,7.445
		c-0.021,0-0.043,0-0.064,0c-1.975,0.043-3.881-0.715-5.287-2.102c-1.438-1.398-2.218-3.34-2.148-5.344L167.601,123.533z"/>
</g>
</svg>
