<?xml version="1.0" encoding="utf-8"?>
<!DOCTYPE svg PUBLIC "-//W3C//DTD SVG 1.1//EN" "http://www.w3.org/Graphics/SVG/1.1/DTD/svg11.dtd">
<svg version="1.1" id="Layer_1" xmlns="http://www.w3.org/2000/svg" xmlns:xlink="http://www.w3.org/1999/xlink" x="0px" y="0px" width="216px" height="216px" viewBox="0 0 216 216" enable-background="new 0 0 216 216" xml:space="preserve">
<g>
	<path fill="#FFFFFF" d="M0.122,0.122h216v216h-216V0.122z"/>
	<path fill="#383E93" d="M116.821,152.952c-2.698-0.511-5.454-0.042-7.868,2.049c-1.693,1.538-2.292,3.152-2.599,4.354
		c-0.282,1.181-0.317,2.408-0.104,3.604c0.104,0.632,0.328,1.374,0.651,2.129c0.18,0.417,0.393,0.82,0.633,1.206
		c1.535,2.453,4.069,4.108,6.932,4.527c1.609,0.22,3.174,0.096,4.88-0.601c0.898-0.374,1.728-0.896,2.453-1.543
		c0.692-0.619,1.278-1.348,1.733-2.157c0.648-1.152,1.021-2.439,1.089-3.76c0.089-2.554-0.657-5.081-3.107-7.417
		C119.9,153.906,118.42,153.298,116.821,152.952L116.821,152.952z M62.009,152.952c-2.7-0.511-5.455-0.042-7.869,2.049
		c-1.693,1.538-2.292,3.152-2.598,4.354c-0.282,1.181-0.317,2.408-0.104,3.604c0.104,0.632,0.327,1.374,0.651,2.129
		c0.181,0.417,0.393,0.82,0.633,1.206c1.099,1.75,2.717,3.113,4.629,3.897c0.739,0.302,1.513,0.514,2.303,0.63
		c1.61,0.22,3.175,0.096,4.882-0.601c0.898-0.374,1.727-0.896,2.452-1.543c0.693-0.618,1.279-1.347,1.732-2.157
		c0.648-1.152,1.021-2.439,1.09-3.76c0.089-2.554-0.657-5.081-3.11-7.417C65.089,153.906,63.609,153.298,62.009,152.952z"/>
	<path fill="#383E93" d="M212.021,10.791c-1.233-2.973-3.596-5.335-6.568-6.569c-1.474-0.607-3.052-0.921-4.646-0.923H15.436
		c-1.588,0-3.177,0.317-4.645,0.923c-1.472,0.611-2.81,1.505-3.938,2.631c-1.126,1.127-2.021,2.465-2.631,3.938
		c-0.609,1.473-0.923,3.051-0.924,4.645v185.372c0,1.59,0.317,3.179,0.924,4.646s1.507,2.813,2.631,3.938
		c1.127,1.127,2.465,2.021,3.938,2.632c1.473,0.608,3.051,0.923,4.645,0.924h185.372c4.908-0.005,9.332-2.961,11.214-7.493
		c0.608-1.468,0.924-3.057,0.924-4.646V15.436C212.943,13.842,212.63,12.264,212.021,10.791L212.021,10.791z M39.32,173.216
		c-0.414-1.035-1.014-1.986-1.77-2.806l-15.982-17.832v17.086c-0.004,1.264,0.369,2.5,1.07,3.551l-6.642-0.001
		c0.646-0.903,0.974-1.994,0.933-3.104l0.001-21.427c-0.009-0.284-0.048-0.567-0.117-0.845c-0.168-0.88-0.915-1.716-1.569-2.612
		h7.743c-0.221,0.581-0.148,1.151,0.304,1.666l15.162,16.952v-15.492c0.015-1.145-0.389-2.254-1.134-3.122h6.919
		c-0.653,0.909-1,2.003-0.987,3.122v21.672c-0.01,1.172,0.41,2.306,1.179,3.189L39.32,173.216z M71.234,169.627
		c-1.298,1.267-2.383,1.979-3.786,2.683c-0.376,0.183-0.812,0.375-1.254,0.546c-0.93,0.352-1.728,0.603-2.854,0.807
		c-0.586,0.104-1.299,0.2-2.015,0.246c-1.402,0.103-2.975-0.05-4.147-0.275c-0.571-0.107-1.004-0.219-1.431-0.348
		c-1.887-0.585-3.598-1.375-5.427-2.958c-2.489-2.248-3.429-4.547-3.792-6.792c-0.413-3.261,0.388-6.407,3.361-9.48
		c1.296-1.266,2.386-1.98,3.783-2.682c1.243-0.604,2.559-1.048,3.915-1.316c0.81-0.157,1.437-0.25,2.434-0.297
		c0.478-0.021,1.046-0.023,1.613,0.003c0.567,0.027,1.133,0.087,1.694,0.177c0.562,0.089,1.117,0.21,1.559,0.322
		c0.443,0.113,0.772,0.214,1.098,0.327c1.575,0.537,3.304,1.423,4.821,2.765c2.49,2.248,3.429,4.545,3.792,6.792
		C75.008,163.406,74.21,166.552,71.234,169.627L71.234,169.627z M90.184,173.217h-3.971l-9.599-20.101
		c-0.527-1.077-1.267-2.037-2.175-2.821l7.421-0.001c-0.334,0.708-0.35,1.524-0.043,2.245l6.603,14.468l6.558-14.026
		c0.389-0.846,0.428-1.811,0.108-2.686l6.496-0.003c-0.92,1.039-1.688,2.204-2.281,3.459L90.184,173.217L90.184,173.217z
		 M126.048,169.627c-1.3,1.267-2.386,1.979-3.788,2.683c-0.41,0.199-0.829,0.381-1.254,0.546c-0.931,0.352-1.728,0.603-2.854,0.807
		c-0.586,0.104-1.298,0.2-2.014,0.246c-1.403,0.103-2.977-0.05-4.149-0.275c-0.571-0.107-1.003-0.219-1.429-0.348
		c-1.887-0.585-3.599-1.375-5.427-2.958c-2.489-2.248-3.429-4.547-3.792-6.792c-0.411-3.261,0.389-6.407,3.359-9.48
		c1.296-1.266,2.387-1.98,3.783-2.682c1.243-0.605,2.559-1.048,3.916-1.316c0.802-0.164,1.615-0.264,2.434-0.297
		c0.478-0.021,1.047-0.023,1.612,0.003c0.569,0.027,1.135,0.087,1.694,0.177c0.563,0.089,1.116,0.21,1.562,0.322
		c0.442,0.113,0.771,0.214,1.097,0.327c1.576,0.537,3.305,1.423,4.822,2.765c2.488,2.248,3.428,4.545,3.791,6.792
		C129.821,163.406,129.022,166.552,126.048,169.627L126.048,169.627z M150.43,154.073c-1.076-0.459-2.235-0.693-3.405-0.688h-3.729
		v16.133c-0.012,1.306,0.347,2.588,1.033,3.698l-7.222-0.002c0.643-0.918,1.032-1.99,1.13-3.106
		c0.053-5.578,0.022-11.148,0.03-16.724c-2.985,0.057-6-0.257-8.94,0.729l1.407-3.817h21.672L150.43,154.073L150.43,154.073z
		 M173.019,173.215l-17.988-0.001c0.686-1.041,1.055-2.258,1.063-3.504l0.002-16.646c0.004-1.023-0.375-2.011-1.062-2.77h19.68
		l-2.337,4.395c-1.4-0.841-3.004-1.281-4.637-1.276h-6.606v6.574l12.482-0.01l-2.078,4.22c-1.46-0.804-3.1-1.228-4.767-1.232
		l-5.638,0.001v7.157h7.463c2.229-0.001,4.444-0.345,6.568-1.021L173.019,173.215z M198.448,173.215h-20.104
		c0.627-0.95,0.95-2.067,0.928-3.205v-21.048c0.007-1.349-0.437-2.661-1.261-3.729l7.7-0.002c-0.849,1.036-1.317,2.331-1.329,3.67
		v21.036l6.399,0.01c2.652,0.023,5.325-0.107,7.905-1.014c0.817-0.277,1.614-0.613,2.384-1.004L198.448,173.215L198.448,173.215z"/>
	<path fill="#DD983C" d="M141.066,85.14c-2.415,1.994-4.915,3.882-7.495,5.658c-2.549,1.766-5.168,3.429-7.851,4.984
		c-2.805,1.625-5.682,3.123-8.62,4.49c-2.903,1.34-5.859,2.56-8.863,3.656c-5.681,2.066-10.874,3.544-16.314,4.813
		c-2.693,0.621-5.407,1.143-8.138,1.568c-2.782,0.429-5.58,0.748-8.388,0.957c-5.88,0.444-12.295,0.49-18.472,0.066
		c-3.104-0.211-6.2-0.532-9.281-0.964c7.686-1.286,15.322-2.848,22.896-4.682c7.57-1.836,15.075-3.951,20.648-5.658
		c5.573-1.707,9.217-3.004,12.815-4.417c3.598-1.413,7.149-2.941,10.649-4.581c3.499-1.642,6.946-3.395,11.783-6.134
		c5.816-3.303,11.536-6.771,17.153-10.402c6.086-3.944,12.032-8.1,17.826-12.461c-3.672,5.869-7.977,11.316-12.836,16.246
		C146.19,80.69,143.684,82.98,141.066,85.14L141.066,85.14z"/>
</g>
</svg>
