<?xml version="1.0" encoding="utf-8"?>
<!DOCTYPE svg PUBLIC "-//W3C//DTD SVG 1.1//EN" "http://www.w3.org/Graphics/SVG/1.1/DTD/svg11.dtd">
<svg version="1.1" xmlns="http://www.w3.org/2000/svg" xmlns:xlink="http://www.w3.org/1999/xlink" x="0px" y="0px" width="216px" height="216px" viewBox="0 0 216 216" enable-background="new 0 0 216 216" xml:space="preserve">
<g>
	<g>
		<g>
			<path fill="#1D1D1B" d="M39.563,99.387v2.465h4.069l7.917,14.864h9.747l7.917-14.901l4.071-0.037V99.35H61.147v2.428h3.212
				l-5.602,10.566l-6.049-10.53l4.406-0.037v-2.465H39.563V99.387z M117.801,99.387v2.465h4.069l7.914,14.864h9.75l7.914-14.901
				l4.072-0.037V99.35h-12.134v2.428h3.209l-5.604,10.566l-6.046-10.53l4.402-0.037v-2.465h-17.548V99.387z M97.819,99.387v2.465
				h4.071v12.136h-4.257v2.728l4.257,0.038h20.242v-8.068h-2.653c-0.151,4.255-3.849,5.34-5.415,5.34c-1.418,0-4.22,0-4.22,0
				v-12.136l3.995-0.039v-2.465H97.819L97.819,99.387z M84.188,98.866c-6.871,0-12.473,4.108-12.473,9.148
				c0,5.044,5.602,9.151,12.473,9.151c6.873,0,12.475-4.107,12.475-9.151C96.663,102.974,91.098,98.866,84.188,98.866z
				 M84.002,114.515c-2.428,0-4.407-2.914-4.407-6.501c0-3.584,1.979-6.497,4.407-6.497s4.406,2.913,4.406,6.497
				C88.408,111.601,86.43,114.515,84.002,114.515z M162.426,98.565c-6.871,0-12.475,4.184-12.475,9.299
				c0,5.154,5.604,9.3,12.475,9.3s12.475-4.185,12.475-9.3S169.336,98.565,162.426,98.565z M162.236,114.438
				c-2.426,0-4.403-2.949-4.403-6.61c0-3.66,1.978-6.609,4.403-6.609c2.43,0,4.41,2.949,4.41,6.609
				C166.646,111.488,164.666,114.438,162.236,114.438z"/>
		</g>
		<path fill="#1D1D1B" d="M153.61,23.056v1.868c5.603,2.913,10.905,6.422,15.726,10.456l-12.851,12.847
			c4.82,3.81,9.153,8.177,12.924,12.996l12.809-12.81c3.96,4.893,7.395,10.233,10.231,15.872h2.394V23.056H153.61z"/>
		<path fill="#1D1D1B" d="M182.93,57.897l-9.602,8.851c7.805,12.062,12.362,26.44,12.362,41.901
			c0,42.573-34.507,77.079-77.078,77.079c-42.573,0-77.079-34.506-77.079-77.079s34.506-77.08,77.079-77.08
			c15.498,0,29.952,4.594,42.052,12.473l9.673-9.111C145.619,24.549,127.769,18.5,108.5,18.5c-49.706,0-90,40.294-90,90
			c0,49.706,40.294,90.002,90,90.002c49.706,0,90.002-40.296,90.002-90.002C198.502,89.716,192.751,72.313,182.93,57.897z"/>
	</g>
</g>
</svg>
