<?xml version="1.0" encoding="utf-8"?>
<!DOCTYPE svg PUBLIC "-//W3C//DTD SVG 1.1//EN" "http://www.w3.org/Graphics/SVG/1.1/DTD/svg11.dtd">
<svg version="1.1" xmlns="http://www.w3.org/2000/svg" xmlns:xlink="http://www.w3.org/1999/xlink" x="0px" y="0px" width="216px" height="216px" viewBox="0 0 216 216" enable-background="new 0 0 216 216" xml:space="preserve">
<g>
	<g>
		<path fill="#1E407C" d="M164.432,144.095c-2.879,0-3.801,2.089-4.031,4.703l7.283-1.109
			C167.684,145.752,166.651,144.095,164.432,144.095z M171.673,156.681c0.077-0.054,0.188-0.054,0.284-0.016
			c0.035,0.034,0.073,0.092,0.093,0.169c0.015,0.185,0.015,0.392,0.015,0.584c0,3.324-3.213,4.023-5.847,4.023
			c-6.209,0-10.878-4.085-10.878-10.479c0-5.85,3.671-9.933,9.541-9.933c4.665,0,7.883,2.896,7.883,7.562
			c0,0.509-0.038,0.96-0.115,1.469l-12.187,1.693c0.431,3.594,2.856,6.018,6.919,6.018
			C168.813,157.794,170.506,157.548,171.673,156.681L171.673,156.681z"/>
		<path fill="#1E407C" d="M33.076,144.095c-2.841,0-3.763,2.069-3.989,4.703l7.281-1.109
			C36.368,145.732,35.333,144.095,33.076,144.095L33.076,144.095z M40.319,156.681c0.075-0.054,0.227-0.077,0.319-0.016
			c0.058,0.034,0.077,0.092,0.077,0.169c0.019,0.185,0.019,0.392,0.019,0.584c0,3.324-3.236,4.023-5.851,4.023
			c-6.247,0-10.875-4.085-10.875-10.479c0-5.85,3.632-9.933,9.5-9.933c4.667,0,7.921,2.896,7.921,7.562
			c0,0.509-0.039,0.96-0.113,1.469l-12.19,1.693c0.432,3.594,2.822,6.018,6.922,6.018C37.478,157.794,39.152,157.548,40.319,156.681
			L40.319,156.681z"/>
		<path fill="#1E407C" d="M155.682,157.321c0.035,0.169,0.058,0.488,0.058,0.715c0,2.537-2.729,3.405-4.799,3.405
			c-4.047,0-6.604-2.407-6.604-6.565v-9.728h-2.22v-3.555h2.22v-3.802h5.344v3.802h5.268v3.555h-5.229v9.539
			c0,2.012,1.183,3.198,3.271,3.198c0.845,0,1.751-0.227,2.373-0.698c0.073-0.054,0.169-0.073,0.223-0.035
			C155.644,157.21,155.682,157.264,155.682,157.321z"/>
		<path fill="#1E407C" d="M70.946,157.321c0.039,0.169,0.058,0.488,0.058,0.715c0,2.537-2.764,3.405-4.814,3.405
			c-4.085,0-6.604-2.407-6.604-6.565v-9.728h-2.259v-3.555h2.259v-3.802h5.341v3.802h5.268v3.555h-5.229v9.539
			c0,2.012,1.186,3.198,3.236,3.198c0.845,0,1.789-0.227,2.407-0.698c0.073-0.054,0.169-0.073,0.227-0.035
			C70.912,157.21,70.946,157.264,70.946,157.321L70.946,157.321z"/>
		<path fill="#1E407C" d="M173.29,144.188c0.245-1.881,1.881-2.858,3.65-2.858c2.104,0,3.594,1.298,3.594,3.518v0.716h0.111
			c1.602-2.296,3.145-4.516,6.04-4.516c0.284,0,0.622,0.037,0.94,0.113l-0.28,5.172c-0.545-0.188-1.113-0.263-1.697-0.263
			c-1.896,0-3.401,1.58-4.814,2.974v11.833h-5.321v-14.995c0-0.789-0.265-1.693-1.225-1.693c-0.266,0-0.511,0.058-0.753,0.171
			c-0.058,0.037-0.134,0.018-0.188-0.019C173.309,144.302,173.29,144.246,173.29,144.188z"/>
		<path fill="#1E407C" d="M208.171,158.074c0.054-0.038,0.131-0.038,0.188,0.034c0.035,0.039,0.058,0.077,0.035,0.154
			c-0.169,1.581-1.467,2.879-3.609,2.879c-2.503,0-3.878-1.62-3.878-4.308v-8.977c0-1.392-0.863-2.089-1.896-2.089
			c-1.938,0-3.616,1.9-4.745,3.049v12.021h-5.375v-19.227h5.268v3.669h0.107c2.149-2.334,4.48-4.233,7.563-4.233
			c1.036,0,2.165,0.357,2.972,1.035c1.336,1.109,1.471,2.803,1.471,4.438v10.048c0,0.94,0.28,1.731,1.147,1.731
			C207.737,158.301,207.964,158.243,208.171,158.074L208.171,158.074z"/>
		<path fill="#1E407C" d="M127.728,156.872c1.274,0.753,2.875,1.145,4.492,1.145c1.77,0,3.201-0.599,3.201-2.105
			c0-1.298-1.263-1.901-3.125-2.804c-2.519-1.299-4.63-2.616-4.63-5.89c0-2.935,2.487-6.095,8.147-6.095
			c1.543,0,2.937,0.149,4.215,0.357l-0.637,3.649c-1.018-0.319-2.335-0.546-3.556-0.546c-1.958,0-3.01,0.791-3.01,1.901
			c0,1.184,1.428,1.9,3.213,2.803c2.408,1.184,4.742,2.539,4.742,5.851c0,2.617-2.012,6.322-7.994,6.322
			c-3.443,0-5.459-1.298-5.459-3.836c0-0.192,0-0.399,0.022-0.584c0-0.076,0.054-0.153,0.131-0.191
			C127.573,156.811,127.65,156.834,127.728,156.872L127.728,156.872z"/>
		<path fill="#1E407C" d="M42.991,156.872c1.24,0.753,2.839,1.145,4.496,1.145c1.749,0,3.16-0.599,3.16-2.105
			c0-1.298-1.259-1.901-3.085-2.804c-2.54-1.299-4.628-2.616-4.628-5.89c0-2.935,2.446-6.095,8.109-6.095
			c1.58,0,2.972,0.149,4.233,0.357l-0.603,3.649c-0.996-0.319-2.332-0.546-3.591-0.546c-1.939,0-2.974,0.791-2.974,1.901
			c0,1.184,1.392,1.9,3.198,2.803c2.445,1.184,4.741,2.539,4.741,5.851c0,2.617-1.975,6.322-7.959,6.322
			c-3.48,0-5.456-1.298-5.456-3.836c0-0.192,0-0.399,0.019-0.584c0.019-0.076,0.056-0.153,0.132-0.191
			C42.82,156.811,42.915,156.834,42.991,156.872L42.991,156.872z"/>
		<path fill="#1E407C" d="M117.849,144.095c-2.88,0-3.802,2.089-4.027,4.703l7.279-1.109
			C121.101,145.752,120.067,144.095,117.849,144.095z M125.094,156.681c0.072-0.054,0.184-0.054,0.28-0.016
			c0.034,0.034,0.072,0.092,0.072,0.169c0.023,0.185,0.023,0.392,0.023,0.584c0,3.324-3.218,4.023-5.852,4.023
			c-6.212,0-10.873-4.085-10.873-10.479c0-5.85,3.647-9.933,9.537-9.933c4.665,0,7.879,2.896,7.879,7.562
			c0,0.509-0.035,0.96-0.108,1.469l-12.193,1.693c0.434,3.594,2.86,6.018,6.926,6.018
			C122.229,157.794,123.926,157.548,125.094,156.681L125.094,156.681z"/>
		<path fill="#1E407C" d="M7.885,138.603v7.714c2.747-0.227,4.101-0.772,5.229-1.506c1.167-0.752,1.845-1.825,1.9-3.01
			c0.037-0.678-0.169-1.336-0.603-1.825c-0.49-0.604-1.279-1.035-2.352-1.26c-0.601-0.133-1.392-0.207-2.2-0.207
			C9.22,138.47,8.544,138.527,7.885,138.603L7.885,138.603z M7.885,157.472c0.582,0.115,1.43,0.188,2.164,0.188
			c2.031,0,3.047-0.414,3.818-0.863c0.752-0.435,1.373-1.111,1.768-1.939c0.396-0.827,0.564-1.768,0.47-2.747
			c-0.169-1.749-1.317-3.01-3.215-3.555c-0.622-0.169-1.355-0.264-2.166-0.264c-0.921,0-1.898,0.131-2.858,0.377v8.804H7.885z
			 M9.521,161.234c-2.407,0-4.985-0.223-7.354-0.661l-0.151-0.015v-24.609l0.151-0.019c3.348-0.546,6.057-0.809,8.278-0.809h0.017
			c3.068,0,4.966,0.338,6.848,1.204c1.073,0.509,1.901,1.203,2.446,2.088c0.472,0.733,0.716,1.58,0.716,2.482
			c0,0.528-0.094,1.6-0.866,2.767c-0.659,0.996-1.636,1.843-2.953,2.482c0.883,0.207,1.729,0.564,2.426,0.94
			c1.279,0.696,2.2,1.618,2.745,2.747c0.528,1.073,0.716,2.315,0.564,3.745c-0.28,2.614-2.031,4.969-4.665,6.228
			c-1.619,0.753-3.442,1.202-5.625,1.352C11.272,161.215,10.406,161.234,9.521,161.234L9.521,161.234z"/>
		<path fill="#1E407C" d="M100.053,138.979c0.415-0.188,0.752-0.171,0.994-0.132c1.302,0.188,1.993,2.521,1.847,6.415
			c-0.076,1.882-0.453,4.723-1.336,7.205c-0.434,1.203-0.922,2.145-1.467,2.805c-0.606,0.733-1.263,1.09-1.942,1.109h-0.093
			c-0.149,0-0.337,0-0.506-0.038l-3.049-20.75h-6.04l2.277,13.751c-0.15,0.959-0.492,2.747-1.221,4.346
			c-0.714,1.524-1.601,2.392-2.657,2.561c-0.13,0.016-0.411,0.039-0.657,0.039c-0.111,0-0.207,0-0.303-0.023l-3.025-20.673h-6.078
			l4.177,25.342l0.111,0.016c0.791,0.191,1.601,0.284,2.411,0.284c0.676,0,1.313-0.077,1.92-0.208
			c1.505-0.338,2.948-1.221,4.116-2.576c0.921-1.094,1.635-2.407,2.073-3.781l1.033,6.228l0.111,0.019
			c1.113,0.242,1.866,0.28,2.691,0.28c0.227,0,0.472,0,0.714-0.015c1.524-0.023,2.991-0.453,4.289-1.244
			c1.205-0.753,2.28-1.828,3.179-3.218c1.282-1.9,2.258-4.27,2.918-7.074c0.584-2.427,0.884-5.079,0.884-7.6
			c0-2.125-0.338-3.782-0.976-4.967c-0.737-1.355-1.882-2.033-3.333-2.033c-0.791,0-1.582,0.34-2.199,0.904
			c-0.473,0.451-1.11,1.279-1.168,2.767c0,0.075,0.02,0.149,0.073,0.188C99.884,138.996,99.976,139.016,100.053,138.979
			L100.053,138.979z"/>
		<path fill="#1E407C" d="M37.912,185.238v-6.374h-6.04v6.374H28.71V171.34h3.162v5.359h6.04v-5.359h3.179v13.898H37.912z"/>
		<path fill="#1E407C" d="M48.71,176.304c-1.787,0-2.164,1.862-2.164,3.275c0,1.409,0.299,4.139,2.258,4.139
			c1.749,0,2.144-2.296,2.144-3.786C50.948,178.488,50.591,176.304,48.71,176.304L48.71,176.304z M48.597,185.614
			c-3.386,0-5.118-2.557-5.118-5.755c0-3.349,2.127-5.476,5.456-5.476c3.179,0,5.043,1.978,5.043,5.172
			C53.978,182.889,52.077,185.614,48.597,185.614z"/>
		<path fill="#1E407C" d="M149.662,176.304c-1.786,0-2.162,1.862-2.162,3.275c0,1.409,0.3,4.139,2.258,4.139
			c1.747,0,2.143-2.296,2.143-3.786C151.9,178.488,151.563,176.304,149.662,176.304L149.662,176.304z M149.565,185.614
			c-3.386,0-5.113-2.557-5.113-5.755c0-3.349,2.123-5.476,5.451-5.476c3.202,0,5.045,1.978,5.045,5.172
			C154.93,182.889,153.029,185.614,149.565,185.614L149.565,185.614z"/>
		<path fill="#1E407C" d="M68.163,176.077c-1.559,0-2.07,1.148-2.181,2.558l3.97-0.6C69.952,176.983,69.383,176.077,68.163,176.077
			L68.163,176.077z M72.113,182.942c0.038-0.035,0.111-0.035,0.149,0c0.02,0.022,0.039,0.062,0.039,0.096
			c0.019,0.111,0.019,0.207,0.019,0.318c0,1.809-1.75,2.185-3.198,2.185c-3.386,0-5.928-2.223-5.928-5.701
			c0-3.198,1.997-5.437,5.195-5.437c2.538,0,4.308,1.597,4.308,4.139c0,0.284-0.019,0.53-0.058,0.811l-6.658,0.921
			c0.246,1.954,1.559,3.291,3.778,3.291C70.55,183.564,71.472,183.434,72.113,182.942L72.113,182.942z"/>
		<path fill="#1E407C" d="M129.869,176.077c-1.559,0-2.069,1.148-2.181,2.558l3.971-0.6
			C131.659,176.983,131.091,176.077,129.869,176.077z M133.84,182.942c0.038-0.035,0.115-0.035,0.149,0
			c0.02,0.022,0.038,0.062,0.038,0.096c0.02,0.111,0.02,0.207,0.02,0.318c0,1.809-1.751,2.185-3.198,2.185
			c-3.387,0-5.924-2.223-5.924-5.701c0-3.198,1.988-5.437,5.19-5.437c2.538,0,4.308,1.597,4.308,4.139
			c0,0.284-0.019,0.53-0.058,0.811l-6.661,0.921c0.23,1.954,1.563,3.291,3.786,3.291
			C132.258,183.564,133.179,183.434,133.84,182.942L133.84,182.942z"/>
		<path fill="#1E407C" d="M62.668,183.303c0.02,0.093,0.039,0.284,0.039,0.392c0,1.375-1.505,1.847-2.615,1.847
			c-2.221,0-3.594-1.316-3.594-3.574v-5.306h-1.223v-1.958h1.223v-2.066h2.918v2.066h2.876v1.958h-2.86v5.19
			c0,1.091,0.66,1.751,1.77,1.751c0.472,0,0.96-0.131,1.297-0.392c0.039-0.038,0.096-0.038,0.135-0.023
			C62.649,183.227,62.668,183.265,62.668,183.303L62.668,183.303z"/>
		<path fill="#1E407C" d="M172.537,183.303c0.02,0.093,0.038,0.284,0.038,0.392c0,1.375-1.505,1.847-2.614,1.847
			c-2.22,0-3.594-1.316-3.594-3.574v-5.306h-1.221v-1.958h1.221v-2.066h2.918v2.066h2.876v1.958h-2.86v5.19
			c0,1.091,0.66,1.751,1.77,1.751c0.473,0,0.96-0.131,1.298-0.392c0.038-0.038,0.096-0.038,0.135-0.023
			C172.518,183.227,172.537,183.265,172.537,183.303L172.537,183.303z"/>
		<path fill="#1E407C" d="M156.246,176.135c0.131-1.033,1.014-1.563,1.974-1.563c1.167,0,1.978,0.714,1.978,1.938v0.396h0.058
			c0.863-1.259,1.712-2.483,3.29-2.483c0.15,0,0.338,0.019,0.511,0.058l-0.153,2.841c-0.3-0.096-0.584-0.131-0.902-0.131
			c-1.056,0-1.862,0.845-2.634,1.612v6.458h-2.914v-8.186c0-0.434-0.135-0.921-0.66-0.921c-0.131,0-0.284,0.038-0.415,0.092
			c-0.038,0.02-0.077,0.02-0.115-0.016C156.246,176.192,156.246,176.169,156.246,176.135L156.246,176.135z"/>
		<path fill="#1E407C" d="M79.903,183.058c0.676,0.414,1.559,0.622,2.442,0.622c0.96,0,1.735-0.338,1.735-1.168
			c0-0.714-0.68-1.036-1.697-1.523c-1.375-0.695-2.519-1.409-2.519-3.218c0-1.602,1.336-3.329,4.423-3.329
			c0.845,0,1.612,0.077,2.292,0.188l-0.338,2.012c-0.545-0.169-1.278-0.3-1.954-0.3c-1.075,0-1.64,0.435-1.64,1.018
			c0,0.657,0.772,1.052,1.747,1.54c1.321,0.641,2.58,1.394,2.58,3.183c0,1.429-1.075,3.44-4.346,3.44
			c-1.881,0-2.972-0.715-2.972-2.089c0-0.115,0-0.223,0.019-0.318c0-0.039,0.019-0.077,0.073-0.097
			C79.807,183.019,79.865,183.019,79.903,183.058z"/>
		<path fill="#1E407C" d="M135.87,183.058c0.68,0.414,1.563,0.622,2.446,0.622c0.96,0,1.731-0.338,1.731-1.168
			c0-0.714-0.695-1.036-1.693-1.523c-1.374-0.695-2.519-1.409-2.519-3.218c0-1.602,1.332-3.329,4.419-3.329
			c0.849,0,1.617,0.077,2.292,0.188l-0.337,2.012c-0.546-0.169-1.279-0.3-1.955-0.3c-1.071,0-1.639,0.435-1.639,1.018
			c0,0.657,0.775,1.052,1.75,1.54c1.317,0.641,2.58,1.394,2.58,3.183c0,1.429-1.074,3.44-4.346,3.44
			c-1.904,0-2.972-0.715-2.972-2.089c0-0.115,0-0.223,0.016-0.318c0-0.039,0.019-0.077,0.076-0.097
			C135.774,183.019,135.836,183.019,135.87,183.058z"/>
		<path fill="#1E407C" d="M173.424,183.058c0.676,0.414,1.559,0.622,2.442,0.622c0.96,0,1.735-0.338,1.735-1.168
			c0-0.714-0.699-1.036-1.697-1.523c-1.375-0.695-2.519-1.409-2.519-3.218c0-1.602,1.336-3.329,4.419-3.329
			c0.849,0,1.616,0.077,2.296,0.188l-0.338,2.012c-0.549-0.169-1.278-0.3-1.958-0.3c-1.071,0-1.636,0.435-1.636,1.018
			c0,0.657,0.771,1.052,1.747,1.54c1.321,0.641,2.58,1.394,2.58,3.183c0,1.429-1.075,3.44-4.346,3.44
			c-1.901,0-2.972-0.715-2.972-2.089c0-0.115,0-0.223,0.015-0.318c0-0.039,0.023-0.077,0.077-0.097
			C173.328,183.019,173.386,183.019,173.424,183.058L173.424,183.058z"/>
		<path fill="#1E407C" d="M116.815,173.052c-0.36,0-0.718,0.034-1.056,0.092v4.347c0.376,0.038,0.733,0.054,1.109,0.054
			c1.486,0,2.673-0.695,2.673-2.234C119.522,173.67,118.32,173.052,116.815,173.052L116.815,173.052z M124.583,183.641
			c0.038-0.019,0.096-0.019,0.111,0.02c0.022,0.02,0.038,0.058,0.022,0.096c-0.096,1.163-1.129,1.636-2.242,1.636
			c-2.856,0-4.457-2.956-5.475-6.136c-0.415,0.039-0.864,0.039-1.26,0.039v5.943h-3.159v-13.826
			c1.539-0.072,3.044-0.149,4.588-0.149c2.542,0,5.571,0.638,5.605,3.763c0,1.823-1.352,3.141-2.914,3.743
			c1.018,1.9,2.898,4.949,4.273,4.949C124.303,183.718,124.433,183.68,124.583,183.641L124.583,183.641z"/>
		<path fill="#1E407C" d="M96.328,179.049c-0.438,0.453-0.66,1.018-0.66,1.659c0,1.635,1.544,2.986,3.256,2.986
			c0.561,0,1.167-0.13,1.636-0.43C99.069,181.947,97.604,180.577,96.328,179.049z M101.5,177.602c-0.058,0.02-0.096,0.02-0.111,0
			c-0.022-0.02-0.038-0.034-0.062-0.073c-0.016-0.115-0.034-0.23-0.034-0.338c0-0.887,0.771-1.413,1.578-1.413
			c1.674,0,2.691,1.521,2.691,3.18c0,1.413-0.58,2.749-1.486,3.781c0.96,0.826,1.974,1.675,2.956,2.484h-4.215
			c-0.169-0.131-0.791-0.622-0.96-0.775c-1.148,0.68-2.504,1.113-3.894,1.113c-2.426,0-4.891-1.582-4.891-4.196
			c0-1.655,0.845-2.914,2.273-3.667c-0.599-0.775-1.071-1.77-1.071-2.656c0-2.688,2.522-3.909,4.834-3.909
			c0.906,0,1.809,0.073,2.71,0.185l-0.299,2.242c-0.622-0.192-1.298-0.304-1.958-0.304c-1.206,0-2.181,0.622-2.181,1.901
			c0,1.658,3.497,4.722,5.248,6.266c0.3-0.53,0.449-1.113,0.449-1.805c0-1.113-0.526-2.111-1.336-2.111
			C101.703,177.544,101.596,177.567,101.5,177.602L101.5,177.602z"/>
		<path fill="#1E407C" d="M78.529,183.733c0.039-0.016,0.092-0.016,0.13,0c0.02,0.022,0.058,0.058,0.039,0.115
			c-0.115,0.845-0.806,1.543-1.974,1.543c-1.359,0-2.111-0.883-2.111-2.334v-12.586h2.918v12.417c0,0.507,0.153,0.921,0.66,0.921
			C78.302,183.81,78.414,183.791,78.529,183.733z"/>
		<path fill="#1E407C" d="M160.024,37.528c0.845-0.238,1.889-0.361,2.733-0.2c4.631,0.805,6.354,8.57,5.951,19.631
			c-0.438,12.707-5.425,33.507-14.686,33.589c-0.672,0-1.559,0-2.25-0.246l-9.126-61.742h-16.894l6.715,40.463
			c-1.248,8.128-4.745,19.833-11.944,21.081c-0.684,0.115-2.453,0.238-3.425,0.033l-9.088-61.577H91.08l12.394,74.571
			c4.139,1.042,8.72,1.125,12.586,0.288c9.291-2.052,16.375-11.107,18.655-20.76l3.425,20.512c4.023,0.919,6.435,0.887,9.975,0.847
			c9.292-0.165,16.736-5.27,21.843-13.035c7.921-12.027,11.188-29.282,11.188-43.478c0-11.627-3.548-20.353-12.313-20.353
			c-4.35,0-9.096,3.619-9.491,9.894c0,0.242,0.035,0.403,0.157,0.48C159.702,37.61,159.901,37.61,160.024,37.528L160.024,37.528z
			 M47.032,60.697c8.775-0.685,12.872-2.371,16.377-4.665c3.939-2.574,5.751-6.076,5.917-9.453c0.196-3.941-2.185-8.082-9.218-9.69
			c-3.701-0.847-8.643-0.804-13.108-0.206v24.014H47.032z M54.041,94.407c5.828,0,8.923-1.133,11.626-2.693
			c4.826-2.774,7.552-8.487,6.991-14.398c-0.557-5.8-4.423-9.497-10.013-11.105c-4.104-1.166-9.777-1.166-15.613,0.401v27.106
			C48.969,94.209,51.826,94.407,54.041,94.407z M72.175,59.65c2.783,0.566,5.917,1.609,8.446,3.018
			c7.683,4.223,10.54,10.904,9.695,18.867c-0.845,7.766-6.074,14.513-13.718,18.174c-4.703,2.258-10.128,3.546-16.563,4.022
			c-9.095,0.689-19.635,0.083-29.372-1.724v-72.4c7.931-1.288,16.813-2.413,24.659-2.413c8.487,0,14.315,0.845,20.071,3.538
			c6.803,3.177,9.168,8.57,9.218,13.071C84.645,48.271,81.992,55.351,72.175,59.65z"/>
		<path fill="#1E407C" d="M136.992,121.254c-12.528,1.035-22.127,1.467-30.213,1.467c-8.09,0-17.688-0.471-30.216-1.467
			c-0.242-0.019-0.434-0.227-0.434-0.47c0-0.244,0.192-0.451,0.434-0.471c12.551-1.035,22.142-1.467,30.216-1.467
			c8.07,0,17.661,0.451,30.213,1.467c0.241,0.02,0.434,0.227,0.434,0.471C137.426,121.027,137.233,121.235,136.992,121.254z"/>
		<path fill="#1E407C" d="M213.285,157.172c-0.093,0-0.185,0-0.262,0.016v1.151c0.093,0,0.208,0.016,0.3,0.016
			c0.399,0,0.753-0.169,0.753-0.599C214.076,157.341,213.699,157.172,213.285,157.172L213.285,157.172z M213.4,158.716
			c-0.131,0.015-0.262,0-0.396,0v1.481h-0.546v-3.325c0.304-0.022,0.604-0.038,0.888-0.038c0.561,0,1.236,0.146,1.236,0.864
			c0,0.449-0.338,0.787-0.715,0.921c0.399,0.715,0.715,1.225,0.983,1.225c0.034,0,0.072,0,0.092-0.022l0.038,0.022v0.039
			c0,0.146-0.13,0.314-0.36,0.314C214.061,160.197,213.723,159.483,213.4,158.716z M213.53,156.323c-1.167,0-2.088,0.94-2.088,2.238
			s0.905,2.258,2.088,2.258c1.168,0,2.051-0.96,2.051-2.258C215.604,157.303,214.679,156.323,213.53,156.323z M213.53,161.157
			c-1.428,0-2.503-1.091-2.503-2.596c0-1.467,1.075-2.576,2.503-2.576c1.429,0,2.484,1.148,2.484,2.576
			C216.034,160.052,214.959,161.157,213.53,161.157z"/>
	</g>
</g>
</svg>
