<?xml version="1.0" encoding="utf-8"?>
<!DOCTYPE svg PUBLIC "-//W3C//DTD SVG 1.1//EN" "http://www.w3.org/Graphics/SVG/1.1/DTD/svg11.dtd">
<svg version="1.1" id="Layer_1" xmlns="http://www.w3.org/2000/svg" xmlns:xlink="http://www.w3.org/1999/xlink" x="0px" y="0px" width="216px" height="216px" viewBox="0 0 216 216" enable-background="new 0 0 216 216" xml:space="preserve">
<path d="M169.486,114.031c-0.097-17.698,7.908-31.056,24.112-40.894c-9.066-12.972-22.763-20.109-40.846-21.507
	c-17.119-1.351-35.83,9.982-42.678,9.982c-7.233,0-23.822-9.5-36.842-9.5c-26.909,0.434-55.505,21.459-55.505,64.233
	c0,12.635,2.314,25.687,6.944,39.157c6.172,17.697,28.452,61.099,51.695,60.375c12.152-0.289,20.736-8.632,36.553-8.632
	c15.335,0,23.292,8.632,36.842,8.632c23.437-0.338,43.594-39.784,49.478-57.53C167.798,143.543,169.486,114.947,169.486,114.031
	L169.486,114.031z M142.192,34.849c13.164-15.624,11.959-29.85,11.573-34.961c-11.622,0.675-25.076,7.908-32.743,16.83
	c-8.439,9.548-13.406,21.363-12.345,34.672C121.264,52.354,132.74,45.892,142.192,34.849z"/>
</svg>
