<?xml version="1.0" encoding="utf-8"?>
<!DOCTYPE svg PUBLIC "-//W3C//DTD SVG 1.1//EN" "http://www.w3.org/Graphics/SVG/1.1/DTD/svg11.dtd">
<svg version="1.1" id="Layer_1" xmlns="http://www.w3.org/2000/svg" xmlns:xlink="http://www.w3.org/1999/xlink" x="0px" y="0px" width="216px" height="216px" viewBox="0 0 216 216" enable-background="new 0 0 216 216" xml:space="preserve">
<g>
	<rect x="1" fill-rule="evenodd" clip-rule="evenodd" fill="#FDB913" width="216" height="215.59"/>
	<path fill-rule="evenodd" clip-rule="evenodd" d="M96.789,53.527l-5.166,0.47l-7.094,1.141l-9.812,1.676l-8.922,3.287
		c-2.338,0.847-4.803,2.09-6.755,3.576c-1.542,1.173-1.488,0.765-3.373,1.792c-1.885,1.027-6.766,6.396-7.569,7.927
		c-0.804,1.532-2.423,7.637-2.31,8.411l0.959,6.571l1.204,2.656c2.503,5.524,4.191,6.531,9.408,9.699
		c3.484,2.116,4.2,2.341,7.497,3.04l0.47-0.47c-4.79-3.208-14.822-7.877-14.822-15.394v-4.226c0-6.98,10.578-17.101,16.23-18.417
		l11.74-4.226l1.417-0.435l5.627-0.974l4.752-0.872l1.354-1l9.861-0.947l3.216-0.023l1.01,0.023l17.845-0.47l26.767,5.166
		c-0.269-2.455-5.622-3.496-7.514-4.696c-3.673-0.082-9.341-2.665-14.542-2.833c-5.734-0.187-10.348-0.923-16.451-0.923
		l-6.113-0.111L96.789,53.527L96.789,53.527z M86.458,60.571c0.593-0.314,1.553-0.939,2.348-0.939c5.171,0,13.96,2.723,16.905,4.696
		c3.185,2.133,11.213,8.478,12.209,12.209c-0.229-0.019-12.314-6.361-13.943-7.188c-3.854-1.958-12.793-3.898-15.171-5.491
		c-3.537,0-4.26,0.176-5.635-1.878L86.458,60.571L86.458,60.571z M134.826,65.736l7.491,9.031l-0.446,0.361
		c-2.496-0.056-4.426-2.928-7.353-4.388c-2.601-1.297-5.711-2.333-7.226-3.172c-3.002-1.664-12.676-5.187-16.416-6.058
		c0.153-1.84,2.406-3.757,4.227-3.757c2.668,0,5.292,0.308,7.514,1.409c1.777,0.88,4.502,1.949,6.506,2.886
		C131.061,62.955,133.602,65.409,134.826,65.736L134.826,65.736z M67.674,67.615c1.351-0.715,2.624-1.409,4.696-1.409h4.696
		c1.053,0,1.031,0.372,1.911,0.699l3.254,0.24l2.818,2.348c3.585,0.08,11.173,5.052,11.27,9.392
		c-2.542-1.346-4.185-2.563-6.885-3.916c-1.153-0.578-7.118-3.655-7.3-2.528l-15.473-2.494l0.073-1.393L67.674,67.615L67.674,67.615
		z M64.856,57.753l-3.164,1.648l-0.915-3.111c2.864-2.153,4.048-4.391,8.298-6.527c2.67-1.342,7.42-3.75,11.277-3.75h1.878
		c0.907,0,0.836,0.148,1.409,0.47l-10.332,5.635L64.856,57.753L64.856,57.753z M90.685,51.648l3.287-0.939l14.557-5.635
		l-0.008-0.883l-4.218-0.525c-2.352-0.353-4.062,0.469-6.574,0.469c-3.436,2.301-9.727,2.39-9.794,8.633L90.685,51.648
		L90.685,51.648z M138.113,63.388l-3.225-2.803l0.407-0.484c8.614-0.192,8.871,1.57,14.088,6.105
		c0.749,2.804,3.868,3.205,4.227,7.513L138.113,63.388L138.113,63.388z M116.981,51.179l22.541-3.287v-0.939
		c-5.127-1.195-6.757-2.559-12.305-1.54C123.046,46.179,117.957,47.524,116.981,51.179L116.981,51.179z M142.81,54.936h-2.348
		c0.163-1.959,2.198-3.287,4.226-3.287h3.758c3.443,0,11.066,4.055,11.74,6.575h-0.939L142.81,54.936L142.81,54.936z
		 M155.488,64.797l1.174,0.464l10.098,4.701c-1.013-4.343-5.545-5.924-8.453-8.453c-1.053-0.246-1.08-0.47-2.348-0.47
		c-1.326,0-1.813,1.078-2.459,2.025L155.488,64.797z"/>
	<path fill-rule="evenodd" clip-rule="evenodd" d="M158.775,160.125h23.48v-0.939h-23.48V160.125L158.775,160.125z M27.289,160.125
		h23.48v-0.939h-23.48V160.125L27.289,160.125z M61.531,154.346v10.848h1.204v-9.709h5.562v9.709H69.5v-10.848H61.531
		L61.531,154.346z M81.75,154.346h-5.627v10.848h5.627v-1.139h-4.423v-4.213h4.293v-1.139h-4.293v-3.219h4.423V154.346
		L81.75,154.346z M89.196,154.346h-1.204v10.848h1.204v-4.668l0.309-0.309l4.439,4.977h1.659l-5.236-5.791l5.074-5.057h-1.626
		l-4.619,4.65V154.346L89.196,154.346z M108.976,165.193h1.334l-4.863-11.369l-4.993,11.369h1.333l1.301-3.059h4.619
		L108.976,165.193L108.976,165.193z M103.561,160.996l1.854-4.342l1.822,4.342H103.561L103.561,160.996z M116.33,154.346v10.848
		h1.203v-4.717h2.16c0.618,0,1.145-0.092,1.58-0.26c0.438-0.17,0.789-0.4,1.063-0.689c0.273-0.287,0.474-0.613,0.6-0.973
		c0.126-0.361,0.189-0.734,0.189-1.119c0-0.23-0.025-0.482-0.081-0.756c-0.056-0.271-0.153-0.543-0.298-0.816
		c-0.145-0.271-0.349-0.525-0.613-0.754c-0.242-0.209-0.507-0.369-0.791-0.479c-0.285-0.111-0.588-0.188-0.91-0.229
		c-0.323-0.041-0.668-0.057-1.031-0.057H116.33L116.33,154.346z M117.533,155.484h1.998c0.16,0,0.342,0.008,0.547,0.029
		c0.207,0.021,0.418,0.068,0.632,0.139c0.214,0.068,0.413,0.17,0.597,0.309c0.182,0.137,0.33,0.322,0.441,0.551
		c0.113,0.23,0.174,0.514,0.174,0.859c0,0.416-0.094,0.775-0.277,1.066c-0.18,0.291-0.444,0.514-0.785,0.668
		c-0.342,0.152-0.751,0.232-1.23,0.232h-2.096V155.484L117.533,155.484z M130.314,154.346h-1.203v10.848h1.203v-5.303h5.563v5.303
		h1.203v-10.848h-1.203v4.406h-5.563V154.346L130.314,154.346z M143.408,165.193h1.463l3.09-4.75h0.651v4.75h1.203v-10.848h-3.409
		c-0.165,0-0.357,0.004-0.577,0.02c-0.22,0.014-0.453,0.053-0.699,0.113c-0.247,0.061-0.491,0.158-0.737,0.293
		c-0.244,0.131-0.472,0.316-0.686,0.549c-0.223,0.242-0.404,0.543-0.539,0.898c-0.137,0.357-0.205,0.777-0.209,1.266
		c-0.002,0.246,0.021,0.498,0.07,0.756c0.051,0.26,0.145,0.514,0.281,0.762c0.138,0.248,0.332,0.482,0.592,0.693
		c0.305,0.25,1.248,0.682,2.077,0.666c0.238-0.004,0.45,0.002,0.616,0.018L143.408,165.193L143.408,165.193z M148.612,155.484v3.887
		h-2.142c-0.176,0-0.362-0.012-0.561-0.039c-0.197-0.027-0.39-0.074-0.58-0.141c-0.191-0.066-0.363-0.156-0.518-0.275
		c-0.176-0.137-0.32-0.322-0.436-0.563c-0.117-0.238-0.181-0.539-0.182-0.902c-0.002-0.303,0.053-0.572,0.148-0.811
		c0.096-0.236,0.221-0.436,0.371-0.588c0.175-0.178,0.371-0.307,0.586-0.387c0.214-0.082,0.431-0.133,0.65-0.154
		c0.219-0.021,0.426-0.027,0.618-0.027H148.612z"/>
	<path d="M46.992,108.356c-0.01-0.313-0.248-0.653-0.703-1.031s-1.033-0.757-1.747-1.125c-0.703-0.378-1.447-0.729-2.222-1.041
		c-0.786-0.322-1.499-0.567-2.16-0.766c-0.662-0.189-1.178-0.284-1.54-0.293c-1.922,0.009-3.741,0.341-5.457,0.993
		c-1.715,0.653-3.317,1.542-4.805,2.677c-1.499,1.135-2.883,2.44-4.144,3.917c-1.271,1.465-2.418,3.035-3.452,4.682
		c-1.034,1.656-1.943,3.33-2.729,5.023c-0.785,1.684-1.447,3.311-1.984,4.881c-0.527,1.57-0.93,2.998-1.199,4.303
		c-0.279,1.297-0.414,2.385-0.414,3.264c0,1.297,0.155,2.516,0.455,3.66c0.29,1.135,0.703,2.148,1.24,3.018
		c0.527,0.871,1.147,1.551,1.86,2.043c0.713,0.492,1.498,0.748,2.335,0.758c0.279,0,0.816-0.096,1.633-0.285
		c0.806-0.188,1.809-0.463,2.986-0.803c1.178-0.342,2.47-0.748,3.865-1.211c1.385-0.473,2.801-0.984,4.248-1.543
		c1.436-0.557,2.821-1.145,4.144-1.758c1.323-0.615,2.512-1.25,3.565-1.893c1.044-0.643,1.881-1.287,2.491-1.93
		s0.93-1.268,0.94-1.873c0.01-0.406-0.01-0.822-0.052-1.268c-0.031-0.436-0.124-0.842-0.279-1.229
		c-0.155-0.389-0.403-0.691-0.744-0.938c-0.341-0.236-0.806-0.359-1.406-0.369c-0.31,0.01-0.857,0.143-1.643,0.408
		c-0.775,0.254-1.705,0.596-2.77,1.002c-1.075,0.416-2.211,0.852-3.4,1.314s-2.356,0.898-3.503,1.314
		c-1.137,0.408-2.17,0.748-3.08,1.004c-0.919,0.264-1.643,0.396-2.16,0.406c-0.269-0.01-0.506-0.123-0.703-0.342
		c-0.196-0.217-0.361-0.48-0.496-0.803s-0.238-0.652-0.32-0.975c-0.073-0.33-0.135-0.605-0.166-0.842
		c-0.031-0.227-0.052-0.359-0.052-0.389c0-0.121,0.052-0.482,0.166-1.068s0.3-1.334,0.537-2.242c0.248-0.906,0.569-1.91,0.951-3.016
		c0.393-1.098,0.857-2.225,1.405-3.377c0.537-1.154,1.167-2.271,1.891-3.34c0.713-1.068,1.519-2.033,2.429-2.885
		c0.899-0.852,1.901-1.533,3.007-2.033c1.105-0.502,2.315-0.758,3.627-0.767c0.538,0.009,1.044,0.095,1.488,0.255
		c0.455,0.17,0.868,0.359,1.25,0.578c0.372,0.227,0.713,0.424,1.023,0.604c0.3,0.182,0.579,0.285,0.827,0.322
		c0.538,0.039,1.096-0.084,1.664-0.359c0.579-0.273,1.105-0.652,1.612-1.135c0.496-0.492,0.899-1.031,1.209-1.646
		C46.827,109.604,46.981,108.99,46.992,108.356z"/>
	<path d="M60.836,110.232c-0.008-0.492-0.146-0.971-0.423-1.447c-0.269-0.47-0.615-0.9-1.039-1.293
		c-0.423-0.385-0.862-0.692-1.323-0.923c-0.462-0.231-0.885-0.346-1.277-0.354c-0.346,0.008-0.692,0.146-1.039,0.4
		c-0.338,0.262-0.669,0.585-0.984,0.969c-0.308,0.385-0.585,0.785-0.831,1.185c-0.247,0.4-0.439,0.746-0.577,1.046
		c-0.139,0.293-0.216,0.477-0.216,0.555c0.008,0.33,0.146,0.669,0.408,1.03c0.262,0.354,0.592,0.708,0.992,1.046
		c0.393,0.348,0.8,0.654,1.224,0.932c0.416,0.277,0.785,0.5,1.108,0.662c0.323,0.168,0.546,0.246,0.654,0.254
		c0.215-0.008,0.469-0.115,0.754-0.332c0.285-0.207,0.577-0.484,0.877-0.822c0.292-0.332,0.569-0.686,0.831-1.063
		c0.254-0.369,0.462-0.723,0.616-1.054C60.751,110.701,60.828,110.432,60.836,110.232L60.836,110.232z M56.681,121.219
		c0-0.5-0.062-0.953-0.177-1.377c-0.123-0.416-0.308-0.746-0.569-1c-0.254-0.254-0.592-0.385-1.008-0.393
		c-0.516,0.008-1.023,0.254-1.531,0.738c-0.516,0.484-1.008,1.146-1.493,1.971c-0.485,0.83-0.954,1.77-1.393,2.824
		c-0.446,1.045-0.87,2.139-1.254,3.277c-0.392,1.139-0.746,2.262-1.062,3.369c-0.315,1.102-0.593,2.133-0.816,3.07
		c-0.23,0.939-0.408,1.74-0.531,2.393c-0.123,0.654-0.185,1.094-0.185,1.332c-0.008,0.438,0.016,0.885,0.054,1.354
		c0.046,0.471,0.139,0.908,0.292,1.316s0.385,0.746,0.708,1c0.315,0.254,0.754,0.385,1.3,0.393c0.608-0.008,1.162-0.146,1.662-0.416
		c0.5-0.27,0.954-0.623,1.346-1.053c0.4-0.439,0.747-0.908,1.039-1.416c0.292-0.508,0.539-1.008,0.731-1.494
		c0.192-0.484,0.338-0.914,0.431-1.285c0.1-0.369,0.146-0.637,0.146-0.799c-0.007-0.301-0.054-0.6-0.154-0.908
		s-0.2-0.631-0.315-0.963c-0.123-0.33-0.208-0.684-0.27-1.061s-0.062-0.785,0-1.225c0.008-0.021,0.077-0.215,0.224-0.584
		c0.146-0.361,0.338-0.838,0.569-1.432c0.23-0.6,0.469-1.246,0.73-1.961c0.262-0.709,0.5-1.424,0.731-2.146
		c0.23-0.717,0.423-1.385,0.569-2.002C56.604,122.127,56.673,121.619,56.681,121.219z"/>
	<path d="M75.853,119.502c-0.315-0.008-0.6-0.031-0.854-0.086c-0.254-0.045-0.531-0.068-0.831-0.076
		c-0.3-0.008-0.677,0.047-1.131,0.162c-0.354,0.1-0.739,0.354-1.154,0.754c-0.423,0.4-0.854,0.9-1.3,1.5
		c-0.438,0.607-0.885,1.254-1.324,1.955c-0.438,0.699-0.854,1.408-1.246,2.107c-0.4,0.701-0.754,1.348-1.07,1.947
		c-0.115,0.238-0.308,0.584-0.562,1.039c-0.262,0.453-0.562,0.969-0.916,1.547c-0.354,0.576-0.739,1.16-1.146,1.762
		c-0.4,0.6-0.815,1.162-1.239,1.684c-0.416,0.523-0.823,0.971-1.216,1.324c-0.385,0.361-0.746,0.584-1.062,0.678
		c-0.361,0.1-0.777,0.123-1.246,0.068c-0.462-0.045-0.908-0.115-1.339-0.199c-0.438-0.094-0.792-0.139-1.062-0.146
		c-0.331,0.008-0.615,0.139-0.846,0.385s-0.423,0.561-0.569,0.945c-0.154,0.385-0.27,0.793-0.346,1.225
		c-0.084,0.422-0.146,0.822-0.177,1.191s-0.046,0.662-0.046,0.871c0.008,0.406,0.162,0.762,0.461,1.068
		c0.3,0.309,0.677,0.57,1.139,0.785c0.454,0.207,0.931,0.369,1.416,0.477c0.493,0.107,0.931,0.162,1.323,0.162
		c0.646,0.008,1.292-0.092,1.931-0.293c0.639-0.207,1.27-0.547,1.893-1.031c0.616-0.477,1.224-1.131,1.808-1.953
		c0.362-0.492,0.785-1.109,1.247-1.863c0.469-0.746,0.962-1.561,1.47-2.445s1.008-1.77,1.5-2.664
		c0.492-0.891,0.946-1.73,1.354-2.508c0.416-0.777,0.762-1.432,1.031-1.969c-0.092,0.254-0.177,0.584-0.269,1
		c-0.084,0.416-0.177,0.869-0.277,1.354c-0.1,0.484-0.208,0.963-0.331,1.432c-0.115,0.678-0.231,1.393-0.354,2.154
		s-0.238,1.516-0.354,2.254c-0.123,0.738-0.223,1.416-0.315,2.023c-0.1,0.609-0.177,1.094-0.231,1.455
		c-0.054,0.369-0.084,0.555-0.084,0.563c0,0.168,0.031,0.398,0.108,0.691c0.069,0.293,0.192,0.584,0.377,0.885
		c0.185,0.309,0.438,0.563,0.762,0.77c0.323,0.215,0.739,0.324,1.247,0.33c0.569-0.006,1.177-0.215,1.839-0.607
		s1.339-0.916,2.039-1.563c0.7-0.645,1.385-1.354,2.07-2.115c0.677-0.77,1.315-1.531,1.916-2.285c0.6-0.762,1.131-1.445,1.601-2.063
		c0.461-0.607,0.831-1.092,1.108-1.43c-0.008,0.723,0,1.508,0.023,2.369c0.023,0.861,0.1,1.723,0.231,2.586
		c0.131,0.854,0.354,1.631,0.669,2.338c0.315,0.654,0.739,1.225,1.277,1.709c0.539,0.492,1.154,0.877,1.847,1.154
		c0.7,0.27,1.438,0.406,2.231,0.414c0.308-0.008,0.6-0.123,0.885-0.338c0.285-0.223,0.554-0.5,0.8-0.846
		c0.238-0.348,0.454-0.717,0.638-1.102c0.185-0.385,0.323-0.746,0.431-1.092c0.1-0.338,0.154-0.615,0.154-0.824
		c-0.008-0.314-0.115-0.592-0.315-0.822c-0.2-0.238-0.446-0.469-0.731-0.701c-0.292-0.23-0.585-0.5-0.862-0.799
		c-0.285-0.309-0.508-0.686-0.677-1.139c-0.13-0.332-0.223-0.762-0.292-1.285c-0.062-0.531-0.108-1.1-0.131-1.725
		c-0.015-0.615-0.023-1.23-0.015-1.83c0.015-0.607,0.031-1.154,0.054-1.646c0.023-0.484,0.039-0.863,0.062-1.131
		c0.107-1.225,0.223-2.379,0.346-3.447c0.13-1.07,0.2-2.047,0.208-2.924c-0.008-0.508-0.1-0.924-0.292-1.238
		c-0.192-0.324-0.446-0.555-0.769-0.709c-0.316-0.146-0.669-0.223-1.062-0.223c-0.331,0.008-0.747,0.246-1.254,0.699
		c-0.508,0.455-1.069,1.07-1.692,1.832c-0.616,0.77-1.27,1.631-1.939,2.578c-0.677,0.945-1.346,1.916-2.016,2.908
		c-0.662,0.992-1.292,1.945-1.885,2.854c-0.592,0.908-1.123,1.709-1.577,2.4c-0.461,0.693-0.823,1.209-1.085,1.547
		c0.123-0.654,0.262-1.408,0.423-2.262s0.323-1.738,0.484-2.67c0.169-0.932,0.323-1.832,0.462-2.717
		c0.139-0.893,0.254-1.691,0.346-2.416c0.084-0.723,0.131-1.307,0.131-1.754c-0.008-0.545-0.108-1.047-0.308-1.492
		c-0.192-0.453-0.431-0.816-0.708-1.092C76.399,119.648,76.122,119.51,75.853,119.502z"/>
	<path d="M112.93,121.563c-0.007-0.775-0.176-1.453-0.522-2.047c-0.339-0.584-0.815-1.037-1.431-1.369
		c-0.616-0.33-1.332-0.5-2.155-0.508c-1.093,0.008-2.193,0.246-3.293,0.717c-1.108,0.469-2.185,1.123-3.231,1.969
		c-1.046,0.838-2.023,1.824-2.924,2.939c-0.908,1.123-1.708,2.34-2.401,3.646c-0.692,1.316-1.239,2.67-1.631,4.078
		c-0.4,1.408-0.616,2.824-0.646,4.24c-0.008,0.516,0.046,1.076,0.177,1.678c0.123,0.607,0.315,1.207,0.569,1.809
		c0.261,0.6,0.584,1.145,0.961,1.646c0.385,0.492,0.831,0.891,1.339,1.191c0.516,0.301,1.077,0.455,1.708,0.463
		c0.916-0.008,1.932-0.131,3.04-0.371c1.1-0.246,2.231-0.568,3.393-0.977c1.154-0.408,2.27-0.861,3.347-1.361
		c1.069-0.5,2.031-1.008,2.886-1.531c0.854-0.523,1.531-1.023,2.031-1.492c0.5-0.479,0.762-0.885,0.77-1.24
		c0.007-0.445-0.07-0.822-0.224-1.115c-0.161-0.293-0.454-0.445-0.885-0.453c-0.085,0.008-0.339,0.068-0.754,0.199
		c-0.416,0.131-0.954,0.301-1.608,0.508c-0.654,0.209-1.377,0.424-2.178,0.654c-0.8,0.23-1.623,0.445-2.47,0.654
		c-0.846,0.207-1.669,0.377-2.478,0.508c-0.8,0.131-1.531,0.191-2.193,0.199c-0.169-0.008-0.308-0.068-0.416-0.176
		c-0.107-0.115-0.185-0.246-0.238-0.4c-0.054-0.154-0.085-0.285-0.108-0.4c-0.015-0.107-0.023-0.17-0.023-0.178
		c0.454-0.33,1.039-0.668,1.77-1.023c0.731-0.354,1.531-0.77,2.401-1.246c0.869-0.469,1.739-1.053,2.601-1.738s1.654-1.516,2.37-2.5
		c0.616-0.816,1.093-1.539,1.431-2.178c0.347-0.639,0.586-1.225,0.731-1.762c0.139-0.531,0.224-1.039,0.254-1.525
		C112.93,122.578,112.938,122.078,112.93,121.563L112.93,121.563z M107.021,122.994c0.185,0.008,0.346,0.092,0.485,0.246
		s0.246,0.309,0.323,0.477c0.077,0.17,0.115,0.285,0.115,0.34c0,0.408-0.062,0.754-0.192,1.047
		c-0.123,0.291-0.323,0.584-0.585,0.877c-0.269,0.299-0.607,0.652-1.023,1.076c-0.27,0.285-0.662,0.67-1.185,1.131
		c-0.523,0.471-1.139,0.955-1.831,1.463s-1.424,0.969-2.201,1.377c0.162-0.424,0.369-0.932,0.616-1.523
		c0.238-0.592,0.515-1.209,0.823-1.848c0.3-0.639,0.623-1.238,0.969-1.807c0.346-0.57,0.692-1.047,1.054-1.424
		c0.408-0.393,0.754-0.701,1.039-0.908s0.554-0.346,0.8-0.416C106.467,123.025,106.736,122.986,107.021,122.994z"/>
	<path d="M139.928,138.531c0-0.176-0.131-0.416-0.377-0.715c-0.254-0.301-0.563-0.67-0.932-1.094
		c-0.361-0.43-0.723-0.93-1.084-1.484c-0.354-0.563-0.639-1.186-0.847-1.869c-0.216-0.693-0.284-1.447-0.224-2.27
		c0.093-0.947,0.262-1.879,0.523-2.793c0.254-0.908,0.539-1.785,0.847-2.625c0.308-0.846,0.577-1.639,0.815-2.377
		c0.246-0.746,0.393-1.424,0.446-2.039c0.03-0.408-0.016-0.77-0.139-1.092c-0.115-0.332-0.308-0.594-0.569-0.785
		c-0.27-0.193-0.6-0.285-1-0.293c-0.408-0.008-0.877,0.092-1.408,0.301c-0.531,0.215-1.085,0.592-1.678,1.139
		c-0.592,0.553-1.185,1.33-1.777,2.338c-0.592,1.008-1.154,2.301-1.692,3.887c-0.823,0.83-1.64,1.67-2.439,2.516
		s-1.562,1.623-2.3,2.34c-0.731,0.707-1.408,1.285-2.031,1.723c-0.623,0.432-1.17,0.654-1.632,0.67
		c-0.361,0-0.601-0.078-0.731-0.217c-0.123-0.139-0.184-0.33-0.184-0.568c0-0.246,0.015-0.523,0.038-0.832
		c0.054-0.354,0.161-0.814,0.331-1.377c0.169-0.561,0.369-1.168,0.607-1.822c0.23-0.654,0.477-1.293,0.724-1.924
		c0.246-0.623,0.478-1.178,0.692-1.662c0.238-0.607,0.516-1.254,0.831-1.932c0.308-0.686,0.593-1.369,0.847-2.063
		c0.254-0.684,0.423-1.338,0.492-1.961c-0.008-0.178-0.085-0.385-0.23-0.623c-0.154-0.232-0.354-0.439-0.601-0.617
		c-0.239-0.184-0.501-0.275-0.785-0.283c-0.831,0.008-1.601,0.307-2.315,0.885c-0.716,0.584-1.385,1.385-2.001,2.408
		c-0.615,1.023-1.192,2.207-1.724,3.539c-0.531,1.338-1.023,2.77-1.484,4.293c-0.246,0.854-0.516,1.762-0.809,2.725
		c-0.292,0.969-0.569,1.932-0.838,2.885c-0.27,0.955-0.493,1.848-0.67,2.678c-0.185,0.824-0.285,1.523-0.315,2.1
		c-0.038,0.455,0.062,0.871,0.3,1.24c0.238,0.377,0.563,0.676,0.97,0.908c0.407,0.223,0.847,0.338,1.315,0.346
		c1.101-0.008,2.139-0.186,3.132-0.539c0.985-0.354,1.931-0.83,2.831-1.439c0.9-0.6,1.77-1.285,2.602-2.053
		c0.83-0.762,1.639-1.555,2.424-2.387c0.784-0.83,1.554-1.646,2.308-2.445c0.077,0.9,0.177,1.676,0.3,2.346
		c0.123,0.662,0.285,1.262,0.478,1.801s0.423,1.063,0.7,1.578c0.322,0.576,0.7,1.1,1.131,1.568c0.432,0.477,0.916,0.855,1.462,1.139
		c0.554,0.277,1.162,0.424,1.839,0.432c0.377-0.008,0.777-0.139,1.208-0.393s0.839-0.576,1.231-0.961
		c0.385-0.379,0.707-0.777,0.961-1.178C139.751,139.201,139.896,138.84,139.928,138.531L139.928,138.531z M144.268,107.832
		c-0.008-0.4-0.101-0.693-0.285-0.885c-0.177-0.192-0.408-0.285-0.678-0.277c-0.276,0-0.553,0.1-0.838,0.285
		c-1.262,0.8-2.47,1.362-3.632,1.693c-1.161,0.331-2.192,0.485-3.108,0.477c-0.3-0.008-0.554-0.139-0.77-0.393
		c-0.215-0.246-0.424-0.554-0.631-0.923c-0.2-0.377-0.424-0.746-0.686-1.116c-0.254-0.377-0.576-0.685-0.953-0.946
		c-0.385-0.254-0.861-0.392-1.439-0.408c-0.691-0.008-1.254,0.108-1.692,0.346c-0.438,0.239-0.777,0.554-1,0.939
		c-0.224,0.377-0.354,0.785-0.4,1.208c-0.038,0.646,0.046,1.307,0.246,1.985c0.2,0.685,0.538,1.316,1.009,1.9
		c0.469,0.592,1.076,1.07,1.838,1.439s1.686,0.561,2.771,0.584c0.962,0.008,1.923-0.115,2.886-0.385
		c0.969-0.27,1.885-0.631,2.762-1.084c0.877-0.447,1.654-0.939,2.347-1.479c0.685-0.53,1.224-1.061,1.624-1.576
		C144.044,108.701,144.252,108.239,144.268,107.832z"/>
	<path d="M144.488,128.949c-0.808,0.277-1.523,0.594-2.162,0.947c-0.631,0.354-1.131,0.738-1.508,1.154s-0.585,0.854-0.623,1.314
		c-0.023,0.447,0.084,0.809,0.314,1.094c0.239,0.277,0.563,0.492,0.985,0.631c0.415,0.146,0.893,0.23,1.424,0.262
		c-0.254,1-0.462,1.953-0.624,2.846c-0.161,0.9-0.276,1.693-0.346,2.371c-0.016,0.338,0.023,0.684,0.123,1.053
		c0.1,0.371,0.27,0.678,0.508,0.939c0.246,0.262,0.569,0.393,0.984,0.408c0.393,0,0.816-0.063,1.277-0.178
		c0.462-0.123,0.916-0.307,1.355-0.553c0.438-0.254,0.822-0.57,1.146-0.963s0.538-0.861,0.654-1.4
		c0.101-0.6,0.192-1.207,0.262-1.822c0.069-0.617,0.153-1.248,0.246-1.895c0.1-0.645,0.238-1.314,0.415-2.008
		c0.809-0.168,1.594-0.322,2.355-0.469c0.769-0.139,1.469-0.254,2.107-0.338c0.631-0.094,1.162-0.146,1.585-0.162
		c0.423-0.023,0.854,0,1.293,0.053c0.446,0.055,0.877,0.131,1.292,0.225c-0.169,0.945-0.292,1.838-0.377,2.686
		c-0.092,0.846-0.1,1.652-0.038,2.438c0.069,0.432,0.192,0.885,0.362,1.348c0.168,0.469,0.385,0.908,0.646,1.314
		c0.262,0.408,0.569,0.74,0.923,1.008c0.347,0.262,0.731,0.408,1.162,0.439c0.4,0,0.839-0.139,1.324-0.408
		c0.477-0.277,0.938-0.607,1.377-1s0.808-0.77,1.1-1.139c0.301-0.361,0.463-0.639,0.493-0.822c0.062-0.232,0.046-0.486-0.054-0.762
		c-0.093-0.285-0.224-0.609-0.385-0.963c-0.162-0.361-0.315-0.77-0.454-1.23c-0.146-0.463-0.231-0.984-0.262-1.57
		c-0.015-0.484,0.038-1.115,0.169-1.877s0.301-1.594,0.523-2.5c0.223-0.908,0.462-1.824,0.716-2.748
		c0.254-0.916,0.5-1.785,0.731-2.592c0.23-0.809,0.423-1.502,0.568-2.063c0.154-0.57,0.231-0.955,0.246-1.146
		c0.055-0.615,0.085-1.146,0.078-1.586c-0.008-0.438-0.116-0.777-0.324-1.016c-0.199-0.23-0.561-0.354-1.092-0.354
		c-0.238,0-0.531,0.055-0.877,0.162c-0.347,0.107-0.709,0.27-1.086,0.477c-0.377,0.215-0.723,0.477-1.046,0.785
		c-0.331,0.307-0.585,0.662-0.777,1.068c-0.415,0.885-0.815,1.816-1.2,2.801c-0.385,0.994-0.738,1.994-1.062,3.018
		c-0.624,0.029-1.354,0.084-2.2,0.168c-0.848,0.086-1.763,0.193-2.74,0.324c-0.977,0.131-1.977,0.293-3,0.477
		c0.393-1.092,0.77-2.107,1.139-3.055c0.369-0.945,0.685-1.746,0.938-2.4c0.254-0.662,0.407-1.1,0.462-1.332
		c0.046-0.361-0.055-0.691-0.309-0.992c-0.254-0.299-0.576-0.561-0.977-0.777c-0.4-0.223-0.809-0.385-1.216-0.492
		c-0.407-0.115-0.739-0.16-1.008-0.139c-0.27,0.047-0.577,0.277-0.915,0.701c-0.34,0.424-0.693,0.961-1.063,1.623
		s-0.738,1.377-1.093,2.139c-0.361,0.762-0.692,1.508-0.992,2.232c-0.231,0.553-0.47,1.184-0.724,1.9
		C144.996,127.311,144.742,128.096,144.488,128.949z"/>
	<path d="M193.947,137.926c0.416-0.207,0.831-0.484,1.263-0.83c0.431-0.338,0.792-0.699,1.092-1.078
		c0.293-0.385,0.446-0.73,0.462-1.045c0.008-0.34-0.038-0.631-0.139-0.871c-0.1-0.238-0.276-0.422-0.538-0.553
		c-0.262-0.123-0.639-0.193-1.123-0.193c-0.216,0.008-0.577,0.102-1.093,0.285c-0.508,0.178-1.093,0.408-1.755,0.678
		c-0.661,0.27-1.331,0.531-1.992,0.801c-0.662,0.268-1.263,0.5-1.785,0.676c-0.516,0.186-0.9,0.277-1.132,0.285
		c-0.191-0.016-0.3-0.201-0.33-0.563c-0.031-0.361,0-0.822,0.076-1.385c0.077-0.561,0.186-1.154,0.316-1.77
		c0.139-0.623,0.269-1.199,0.399-1.73c0.377-1.393,0.762-2.725,1.139-4.002s0.7-2.461,0.954-3.555c0.254-1.1,0.393-2.068,0.4-2.924
		c-0.008-0.354-0.092-0.631-0.27-0.83c-0.169-0.209-0.385-0.355-0.646-0.447c-0.262-0.092-0.539-0.146-0.816-0.168
		c-0.284-0.023-0.538-0.031-0.762-0.031c-0.415,0.008-0.784,0.154-1.107,0.424c-0.331,0.268-0.631,0.607-0.908,1
		s-0.539,0.785-0.8,1.162c-0.008-0.471-0.139-0.871-0.393-1.201c-0.246-0.33-0.555-0.6-0.916-0.801
		c-0.369-0.207-0.73-0.354-1.085-0.445c-0.361-0.094-0.653-0.139-0.885-0.139c-0.792,0.008-1.623,0.238-2.485,0.684
		c-0.869,0.439-1.738,1.055-2.631,1.824c-0.885,0.77-1.755,1.654-2.616,2.646c-0.854,0.992-1.678,2.039-2.462,3.141
		c-0.785,1.1-1.508,2.199-2.17,3.301c-0.662,1.107-1.239,2.154-1.731,3.146c-0.493,0.992-0.87,1.885-1.139,2.662
		c-0.277,0.777-0.408,1.393-0.415,1.846c0.007,0.447,0.123,0.893,0.346,1.34c0.23,0.445,0.547,0.861,0.946,1.23
		c0.4,0.377,0.87,0.686,1.393,0.908c0.531,0.23,1.093,0.346,1.7,0.354c0.754-0.016,1.539-0.215,2.355-0.6
		c0.814-0.385,1.638-0.893,2.469-1.523c0.824-0.623,1.632-1.293,2.416-2.016c0.785-0.723,1.517-1.416,2.201-2.094
		c0.685-0.676,1.292-1.262,1.823-1.754c-0.139,0.809-0.27,1.563-0.385,2.246c-0.123,0.686-0.215,1.332-0.292,1.939
		c-0.069,0.615-0.108,1.225-0.108,1.816c0.008,0.5,0.146,0.953,0.432,1.377c0.276,0.416,0.653,0.746,1.139,1
		c0.484,0.254,1.038,0.385,1.662,0.393c0.369-0.008,0.9-0.162,1.593-0.445c0.692-0.293,1.492-0.67,2.4-1.139
		c0.908-0.463,1.869-0.963,2.885-1.494S192.932,138.42,193.947,137.926L193.947,137.926z M180.79,123.893
		c0.316,0.008,0.539,0.076,0.67,0.215c0.123,0.131,0.2,0.309,0.208,0.516c0.008,0.215,0,0.432-0.031,0.654
		c-0.038,0.223-0.054,0.424-0.062,0.6c-0.008,0.5-0.192,1.07-0.546,1.709c-0.354,0.639-0.847,1.314-1.478,2.031
		c-0.623,0.715-1.339,1.445-2.154,2.193c-0.815,0.746-1.678,1.484-2.593,2.207c-0.916,0.723-1.847,1.408-2.785,2.063
		c0.007-0.492,0.161-1.123,0.469-1.9c0.301-0.77,0.708-1.615,1.224-2.531c0.508-0.916,1.077-1.824,1.708-2.74
		c0.623-0.906,1.27-1.738,1.924-2.492c0.661-0.754,1.285-1.361,1.885-1.824C179.821,124.139,180.344,123.908,180.79,123.893z"/>
	<path d="M199.715,117.287c0.59,0,1.165,0.15,1.728,0.453c0.562,0.303,1,0.734,1.313,1.299c0.313,0.563,0.471,1.152,0.471,1.764
		c0,0.605-0.154,1.188-0.465,1.746c-0.308,0.559-0.742,0.992-1.299,1.301c-0.558,0.311-1.14,0.465-1.748,0.465
		c-0.609,0-1.192-0.154-1.749-0.465c-0.559-0.309-0.992-0.742-1.302-1.301c-0.313-0.559-0.467-1.141-0.467-1.746
		c0-0.611,0.158-1.201,0.473-1.764c0.314-0.564,0.754-0.996,1.316-1.299C198.548,117.438,199.125,117.287,199.715,117.287
		L199.715,117.287z M199.715,117.867c-0.495,0-0.975,0.129-1.442,0.381s-0.833,0.615-1.097,1.084
		c-0.264,0.471-0.396,0.961-0.396,1.471c0,0.506,0.131,0.99,0.39,1.455c0.26,0.465,0.622,0.826,1.088,1.086
		c0.466,0.258,0.95,0.389,1.458,0.389c0.505,0,0.991-0.131,1.457-0.389c0.466-0.26,0.827-0.621,1.085-1.086
		c0.257-0.465,0.386-0.949,0.386-1.455c0-0.51-0.13-1-0.393-1.471c-0.262-0.469-0.628-0.832-1.097-1.084
		S200.204,117.867,199.715,117.867L199.715,117.867z M198.172,122.744v-3.781h1.299c0.445,0,0.767,0.033,0.966,0.104
		c0.198,0.07,0.355,0.193,0.475,0.365c0.118,0.176,0.177,0.359,0.177,0.557c0,0.275-0.099,0.516-0.296,0.721
		s-0.459,0.32-0.785,0.346c0.134,0.055,0.242,0.121,0.321,0.199c0.152,0.15,0.339,0.4,0.56,0.75l0.461,0.74h-0.745l-0.336-0.596
		c-0.264-0.469-0.476-0.762-0.638-0.879c-0.111-0.088-0.274-0.131-0.489-0.131h-0.357v1.605H198.172L198.172,122.744z
		 M198.783,120.617h0.74c0.354,0,0.595-0.055,0.724-0.16c0.129-0.104,0.194-0.244,0.194-0.418c0-0.111-0.032-0.213-0.095-0.301
		c-0.062-0.088-0.147-0.154-0.257-0.197c-0.111-0.045-0.315-0.066-0.614-0.066h-0.692V120.617z"/>
</g>
</svg>
