<?xml version="1.0" encoding="utf-8"?>
<!DOCTYPE svg PUBLIC "-//W3C//DTD SVG 1.1//EN" "http://www.w3.org/Graphics/SVG/1.1/DTD/svg11.dtd">
<svg version="1.1" id="Layer_1" xmlns="http://www.w3.org/2000/svg" xmlns:xlink="http://www.w3.org/1999/xlink" x="0px" y="0px" width="216px" height="216px" viewBox="0 0 216 216" enable-background="new 0 0 216 216" xml:space="preserve">
<g>
	<path fill="#FFFFFF" d="M0.122,0.122h216v216h-216V0.122z"/>
	<path d="M190.6,193.306h2.285v19.314l-13.966-14.618v13.9h-2.35v-19.512l14.03,14.684V193.306L190.6,193.306z M124.958,193.306
		v11.81c0,2.088-0.589,3.785-1.764,5.091c-1.238,1.436-2.936,2.088-5.089,2.088c-2.022,0-3.718-0.652-4.96-2.088
		c-1.238-1.306-1.827-3.003-1.827-5.091v-11.81h2.351v11.026c0,3.851,1.436,5.81,4.437,5.81c3.065,0,4.567-1.959,4.567-5.81v-11.026
		H124.958z M132.135,193.306h11.158v2.154h-4.437v16.443h-2.219V195.46h-4.503V193.306z M128.09,193.306h2.349v18.598h-2.349
		V193.306L128.09,193.306z M107.535,193.306h2.545l-8.092,19.641l-8.09-19.641h2.545l5.547,13.769L107.535,193.306L107.535,193.306z
		 M172.264,202.636c0,2.088-0.719,3.851-2.218,5.351c-1.371,1.436-3.132,2.154-5.157,2.154c-2.022,0-3.784-0.719-5.283-2.154
		c-1.502-1.501-2.219-3.263-2.219-5.351s0.652-3.851,2.088-5.286c1.435-1.499,3.263-2.217,5.414-2.217
		c2.154,0,3.915,0.718,5.286,2.217C171.546,198.785,172.264,200.547,172.264,202.636z M171.742,195.784
		c-1.956-1.893-4.241-2.87-6.853-2.87c-2.675,0-4.957,0.978-6.916,2.87c-1.892,1.892-2.871,4.177-2.871,6.851
		c0,2.74,0.98,5.024,2.871,6.916c1.893,1.828,4.177,2.742,6.916,2.742c2.678,0,5.025-0.914,6.853-2.742
		c1.893-1.892,2.871-4.176,2.871-6.916C174.614,199.961,173.636,197.676,171.742,195.784z M154.582,193.306v2.154h-4.373v16.443
		h-2.349V195.46h-4.437v-2.154H154.582L154.582,193.306z M46.654,197.35c1.371,1.436,2.023,3.198,2.023,5.286
		s-0.718,3.851-2.153,5.351c-1.436,1.436-3.198,2.154-5.221,2.154s-3.784-0.719-5.285-2.154c-1.371-1.501-2.153-3.263-2.153-5.351
		s0.717-3.851,2.088-5.286c1.436-1.499,3.198-2.217,5.351-2.217C43.458,195.133,45.285,195.851,46.654,197.35z M48.156,195.784
		c-1.958-1.893-4.242-2.871-6.852-2.871c-2.676,0-5.023,0.979-6.851,2.871c-1.958,1.892-2.936,4.177-2.936,6.851
		c0,2.74,0.979,5.024,2.936,6.916c1.828,1.828,4.111,2.742,6.851,2.742c2.741,0,5.025-0.914,6.852-2.742
		c1.958-1.892,2.871-4.177,2.871-6.916C51.027,199.961,50.114,197.676,48.156,195.784L48.156,195.784z M55.269,204.331
		c0,3.851,1.5,5.81,4.502,5.81c2.937,0,4.502-1.959,4.502-5.81v-11.026h2.284v11.81c0,2.088-0.587,3.784-1.828,5.091
		c-1.239,1.436-2.936,2.088-4.958,2.088c-2.088,0-3.719-0.652-4.958-2.088c-1.306-1.307-1.892-3.003-1.892-5.091v-11.81h2.349
		L55.269,204.331L55.269,204.331L55.269,204.331z M25.644,193.306v16.509h5.677v2.088h-7.96v-18.598L25.644,193.306L25.644,193.306z
		 M81.564,200.939c3.132,1.238,4.634,3.065,4.634,5.546c0,1.696-0.587,3.065-1.762,4.176c-1.109,1.109-2.479,1.633-4.111,1.633
		c-1.5,0-2.806-0.457-3.914-1.501c-1.044-0.979-1.697-2.219-1.893-3.719l2.349-0.523c0,1.045,0.326,1.893,1.044,2.611
		c0.718,0.652,1.5,0.979,2.545,0.979c0.979,0,1.761-0.393,2.479-1.109c0.587-0.652,0.914-1.502,0.914-2.545
		c0-1.436-1.044-2.609-3.197-3.524l-1.305-0.455c-2.61-1.24-3.98-2.806-3.98-4.765c0-1.436,0.587-2.675,1.631-3.524
		c1.109-0.912,2.349-1.305,3.851-1.305c2.153,0,3.719,0.979,4.762,2.871l-1.826,1.045c-0.718-1.109-1.697-1.696-3.002-1.696
		c-0.783,0-1.566,0.194-2.153,0.651c-0.652,0.521-0.979,1.176-0.979,1.957c0,1.109,0.848,1.959,2.675,2.61L81.564,200.939
		L81.564,200.939z M69.689,193.306h2.35v18.598h-2.35V193.306z M161.318,25.197l-45.005,106.222l-12.416-27.245l22.934-62.422
		c1.725-4.828,7.759-7.07,17.935-7.07l3.619-9.485H94.931l-3.449,9.485c7.587,0,10.691,2.241,9.483,7.07L89.585,73.48L67.169,25.197
		c-4.138-5.172-2.07-7.76,6.036-7.76V6.23H21.473v11.208c9.657,0,15.691,2.587,18.279,7.76L77.688,105.9l-17.761,47.419
		c-0.346,6.38-10.346,9.486-29.66,9.486l-3.621,9.483h147.604l20.521-43.627H184.08c-10,22.589-21.554,34.144-34.486,34.144H81.825
		l10.001-26.729l8.622,17.242h19.313L174.25,25.2c2.588-7.76,9.313-11.897,19.831-11.897V3.298h-44.488V13.3
		C163.043,13.3,166.838,17.438,161.318,25.197L161.318,25.197z"/>
</g>

</svg>
