<?xml version="1.0" encoding="utf-8"?>
<!DOCTYPE svg PUBLIC "-//W3C//DTD SVG 1.1//EN" "http://www.w3.org/Graphics/SVG/1.1/DTD/svg11.dtd">
<svg version="1.1" id="Layer_1" xmlns="http://www.w3.org/2000/svg" xmlns:xlink="http://www.w3.org/1999/xlink" x="0px" y="0px" width="216px" height="216px" viewBox="0 0 216 216" enable-background="new 0 0 216 216" xml:space="preserve">
<g>
	<path fill-rule="evenodd" clip-rule="evenodd" fill="#ED1C24" d="M22.8,1.5h170.399c11.717,0,21.301,9.585,21.301,21.3v170.399
		c0,11.717-9.584,21.301-21.301,21.301H22.8c-11.715,0-21.3-9.584-21.3-21.301V22.8C1.5,11.085,11.084,1.5,22.8,1.5z"/>
	<path fill-rule="evenodd" clip-rule="evenodd" fill="#FFFFFF" d="M106.604,26.491c23.627,0,42.788,19.16,42.788,42.787
		c0,23.627-19.16,42.787-42.788,42.787c-23.626,0-42.787-19.159-42.787-42.787C63.817,45.651,82.978,26.491,106.604,26.491
		L106.604,26.491z M30.524,108.783c-3.998,0-7.268,3.27-7.268,7.269v68.693c0,3.999,3.27,7.269,7.268,7.269h154.037
		c3.997,0,7.268-3.27,7.268-7.269v-68.693c0-3.999-3.271-7.269-7.268-7.269h-55.661c-6.586,3.725-14.192,5.854-22.295,5.854
		s-15.709-2.129-22.294-5.854H30.524z"/>
	<path fill-rule="evenodd" clip-rule="evenodd" fill="#ED1C24" d="M95.233,85.573h6.799V56.905l-4.331,2.038
		c-3.044,1.433-6.707,0.114-8.139-2.931l0,0c-1.433-3.044-0.114-6.707,2.93-8.139l15.814-7.441c2.151-1.013,4.611-0.65,6.375,0.724
		c1.154,0.115,2.121,1.623,2.121,2.917v0.252c0.302,1.086,0.287,2.21,0,3.256v37.99h3.752c3.095,0,5.627,2.532,5.627,5.626l0,0
		c0,3.095-2.532,5.627-5.627,5.627H95.233c-3.095,0-5.627-2.532-5.627-5.627l0,0C89.606,88.104,92.139,85.573,95.233,85.573
		L95.233,85.573z M51.547,138.255v4.29l-0.285,1.572l-1.287,2.431l-1.002,0.715l-1.286,0.716l-3.146,0.715l-1.858-0.283
		l-1.573-0.288l-1-0.715l-1.287-0.716l-1.286-2.574l-0.428-1.572v-14.158l0.285-1.285l1.286-1.858l1.002-1.001l1.285-0.714
		l1.573-0.287l1.859-0.284l3.146,0.714l1.286,0.715l1.001,1.001l0.715,1.002l0.715,1.286l0.287,1.285v2.859H46.4v-2.288
		l-0.286-0.715l-0.717-0.716l-1.286-0.713l-1.286,0.713l-0.287,0.286v14.156l0.287,1.001l1.286,0.714l1-0.284l0.715-0.286
		l0.286-0.715l0.286-1.287v-3.287h5.148V138.255L51.547,138.255z M68.133,129.961v12.582l-0.286,1.572l-0.716,1.287l-1.858,1.858
		l-1.287,0.716l-1.286,0.285l-1.86,0.286l-3.145-0.716l-1.286-0.715l-1-0.857l-0.714-1.001l-0.717-1.287l-0.714-3.146v-10.867
		l0.285-1.574l0.285-1.285l1.287-1.858l1.001-1.001l1.286-0.716l3.146-0.713l1.859,0.283l1.572,0.286l1.002,0.716l1.286,0.999
		l1.285,1.86l0.286,1.285L68.133,129.961L68.133,129.961z M58.839,129.676L58.839,129.676v12.153l0.285,1.002l0.286,0.713
		l1.286,0.716l1.287-0.716l0.714-0.713v-14.015l-0.714-0.714l-1.287-0.715l-1.286,0.715l-0.286,0.714L58.839,129.676L58.839,129.676
		z M75.854,143.114h3.575v-19.445h5.436v19.445h1v9.58h-5.15v-4.716H70.419v-24.31h5.434V143.114L75.854,143.114z M87.293,123.671
		h5.434v24.308h-5.434V123.671L87.293,123.671z M105.167,123.669l4.86,24.31h-5.145l-1.001-4.864h-4.146l-0.716,4.864h-5.148
		l4.862-24.31H105.167L105.167,123.669z M103.308,138.684L103.308,138.684l-1.287-10.583h-0.286l-1.285,10.583H103.308
		L103.308,138.684z M127.618,123.669v24.31h-5.435v-19.878h-3.573v8.295l-0.286,5.72l-0.284,2.288l-1.288,2.574l-1.003,0.713
		l-2.572,0.718l-1.287-0.288l-1.573-0.713v-4.005h1.859l0.286-0.286l0.715-1.001v-18.589h14.441V123.669L127.618,123.669z
		 M135.194,132.821h2.574l1.286,0.285h1.003l1.284,0.716l0.999,0.715l0.715,1l0.718,1.286l0.716,1.575v4.146l-1.288,3.146
		l-0.717,1.001l-0.999,0.716l-1.286,0.283l-2.288,0.288h-8.006v-24.308h5.432L135.194,132.821L135.194,132.821z M135.194,143.402
		L135.194,143.402h2.288l1.287-1.285v-3.147l-0.717-0.999l-1-0.718h-1.858V143.402L135.194,143.402z M151.925,132.821h3.573v-9.295
		h5.434v24.31h-5.434v-10.153h-3.573v10.296h-5.434v-24.308h5.434V132.821L151.925,132.821z M173.373,123.669l4.862,24.31h-5.433
		l-0.716-4.864h-4.147l-0.714,4.864h-5.434l4.862-24.31H173.373L173.373,123.669z M171.369,138.684L171.369,138.684l-1.573-10.583
		l-1.285,10.583H171.369L171.369,138.684z M72.565,156.271l4.861,24.02h-5.147l-1-4.861h-4.291l-0.715,4.861H60.84l5.148-24.02
		H72.565L72.565,156.271z M70.708,171.285L70.708,171.285l-1.574-10.869l-1.287,10.869H70.708L70.708,171.285z M92.727,156.271
		v24.02h-5.434v-19.589h-3.573v19.447h-5.436v-23.878H92.727L92.727,156.271z M103.308,180.149h-4.861v-19.445h-4.148v-4.433h13.154
		v4.433h-4.146L103.308,180.149L103.308,180.149L103.308,180.149z M108.741,156.271h12.442v4.431h-7.009v4.718h6.436v4.578h-6.436
		v5.719h7.009v4.433h-12.442V156.271L108.741,156.271z M128.188,165.85l3.575-9.578h6.147l-5.148,10.579l5.148,13.299h-5.72
		l-2.575-8.291l-1.286,2.857v5.434h-5.147v-23.878h5.147L128.188,165.85L128.188,165.85z M149.063,156.271l4.863,24.02h-5.147
		l-1.002-4.861h-3.86l-1.001,4.861h-5.004l4.861-24.02H149.063L149.063,156.271z M147.063,171.285L147.063,171.285l-1.285-10.869
		l-1.575,10.869H147.063z"/>
</g>
</svg>
