<?xml version="1.0" encoding="utf-8"?>
<!DOCTYPE svg PUBLIC "-//W3C//DTD SVG 1.1//EN" "http://www.w3.org/Graphics/SVG/1.1/DTD/svg11.dtd">
<svg version="1.1" id="Layer_1" xmlns="http://www.w3.org/2000/svg" xmlns:xlink="http://www.w3.org/1999/xlink" x="0px" y="0px" width="216px" height="216px" viewBox="0 0 216 216" enable-background="new 0 0 216 216" xml:space="preserve">
<path fill-rule="evenodd" clip-rule="evenodd" fill="#E95F29" d="M54.5,0.5h108.003c29.699,0,53.997,24.3,53.997,54v108.003
	c0,29.699-24.298,53.997-53.997,53.997H54.5c-29.7,0-54-24.298-54-53.997V54.5C0.5,24.8,24.8,0.5,54.5,0.5z"/>
<path fill="#FFFFFF" d="M29.517,95.12h-1.125v-2.875h-6.876v2.875h-1.249c-7.501,0-12.25,3.75-12.25,10.5v1.25
	c0,6.626,4.624,10.376,12.374,10.376h1.125v2.873h6.875v-2.873h1.125c7.624,0,12.374-3.75,12.374-10.5v-1.25
	c0-6.875-4.75-10.5-12.374-10.5V95.12z M20.016,112.369c-3.375,0-5.125-2.123-5.125-5.875v-0.5c0-3.75,1.75-5.875,5.125-5.875h1.499
	v12.126h-1.499V112.369z M35.015,106.496c0,3.75-1.874,5.874-5.25,5.874H28.39v-12.25h1.374c3.375,0,5.25,2,5.25,5.876V106.496z
	 M55.889,100.246c-6.623,0-11.123,4.126-11.123,10c0,6,4.5,10,11.123,10c6.626,0,11.126-4,11.126-10
	C67.015,104.371,62.516,100.246,55.889,100.246 M55.889,115.246c-2.875,0-4.75-2.002-4.75-5c0-3.001,1.875-5.001,4.75-5.001
	c2.751,0,4.751,2,4.751,5.001C60.641,113.244,58.64,115.246,55.889,115.246 M92.142,100.622h-7.25l-7.5,8.999v-8.999h-6.25v19.25
	h6.25v-9l7.5,9h7.75l-8.75-10L92.142,100.622z M104.016,105.245c2.127,0,3.625,1.25,4.125,3h6.25c-0.498-4.749-4.374-8-10.249-8
	c-6.624,0-11.124,4.127-11.124,10c0,6,4.5,10,11.249,10c5.75,0,9.625-3.251,10-7.878h-6.127c-0.517,1.833-2.222,3.075-4.125,3.004
	c-2.75,0-4.625-2.127-4.625-5.001C99.393,107.245,101.266,105.245,104.016,105.245 M116.018,100.622v5.124h7v14.125h6.25v-14.125
	h6.874v-5.001h-20L116.018,100.622z M151.393,100.495c-2.5,0-4.75,1-6.25,2.875v-2.749h-5.875v25h6.251v-8.001
	c1.499,1.5,3.499,2.5,5.875,2.5c5.749,0,9.626-4.124,9.626-9.874C161.019,104.496,157.143,100.495,151.393,100.495 M149.893,115.371
	c-2.75,0-4.75-2.127-4.75-5.001c0-3.126,2-5.125,4.75-5.125c2.875,0,4.748,2,4.748,5.001c0,2.998-1.873,5-4.748,5V115.371z
	 M175.144,100.246c-6.626,0-11.126,4.126-11.126,10c0,6,4.5,10,11.126,10c6.625,0,11.123-4,11.123-10c0-5.875-4.498-10-11.249-10
	H175.144z M175.144,115.246c-2.875,0-4.751-2.002-4.751-5c0-3.001,1.876-5.001,4.751-5.001c2.749,0,4.749,2,4.749,5.001
	C179.893,113.244,177.893,115.246,175.144,115.246 M188.018,100.622v5.124h6.874v14.125h6.253v-14.125h6.872v-5.001h-19.999V100.622
	z"/>
</svg>
