<?xml version="1.0" encoding="utf-8"?>
<!DOCTYPE svg PUBLIC "-//W3C//DTD SVG 1.1//EN" "http://www.w3.org/Graphics/SVG/1.1/DTD/svg11.dtd">
<svg version="1.1" id="Layer_1" xmlns="http://www.w3.org/2000/svg" xmlns:xlink="http://www.w3.org/1999/xlink" x="0px" y="0px" width="216px" height="216px" viewBox="0 0 216 216" enable-background="new 0 0 216 216" xml:space="preserve">
<g>
	<path fill="#CC2229" d="M109.01,137.412c-2.304,0-4.623,0.123-6.449,0.369c-8.674,1.166-11.929,3.422-14.983,9.18
		c-1.981,3.715-5.957,14.969-9.135,29.307c-6.221-0.217-12.44-0.525-18.653-0.922c-2.165-20.141-7.155-103.979-7.292-132.75
		c3.516-0.229,7.245-0.535,11.359-0.705c2.488,13.295,10.777,59.627,17.564,74.196c3.008,6.494,8.259,8.705,14.691,9.197
		c8.597,0.443,17.21,0.443,25.807,0c6.416-0.492,11.668-2.703,14.676-9.197c6.771-14.569,15.061-60.887,17.563-74.196
		c4.113,0.184,7.861,0.476,11.361,0.705c-0.139,28.787-5.112,112.609-7.31,132.75c-5.558,0.369-11.974,0.676-18.652,0.922
		c-3.178-14.354-7.153-25.592-9.134-29.307c-3.04-5.758-6.295-8.014-14.983-9.18C113.308,137.521,111.157,137.396,109.01,137.412"/>
	<path fill="#CC2229" d="M109.01,198.053c-17.303,0-56.851-1.059-69.868-3.5c-13.833-2.596-23.167-10.533-27.741-23.58
		c-3.916-11.131-6.801-31.795-8.582-61.425c-1.106-18.561-1.09-35.233,0.045-49.51c1.966-24.303,13.188-33.99,36.662-36.646
		c15.69-1.75,50.754-2.595,69.484-2.595c18.728,0,53.792,0.845,69.452,2.61c23.474,2.656,34.712,12.343,36.66,36.646
		c1.152,14.277,1.168,30.951,0.062,49.51c-1.765,29.629-4.651,50.293-8.567,61.424c-4.59,13.051-13.909,20.971-27.771,23.582
		C165.872,196.994,126.311,198.053,109.01,198.053 M176.878,183.99c9-1.693,16.442-7.99,19.606-16.58
		c2.458-7.018,5.849-22.844,7.983-58.522c1.091-18.07,1.074-34.22-0.045-48.007c-1.322-16.488-9.642-24.84-27.157-26.82
		c-15.261-1.719-49.759-2.518-68.256-2.518c-18.5,0-52.996,0.798-68.273,2.534C23.236,36.058,14.915,44.409,13.58,60.896
		c-1.105,13.787-1.105,29.938-0.031,48.007c2.134,35.677,5.527,51.49,7.983,58.523c2.363,6.723,8.966,14.568,19.588,16.58
		c10.947,2.041,46.917,3.316,67.889,3.316C129.979,187.322,165.934,186.047,176.878,183.99"/>
</g>
</svg>
