<?xml version="1.0" encoding="utf-8"?>
<!DOCTYPE svg PUBLIC "-//W3C//DTD SVG 1.1//EN" "http://www.w3.org/Graphics/SVG/1.1/DTD/svg11.dtd">
<svg version="1.1" xmlns="http://www.w3.org/2000/svg" xmlns:xlink="http://www.w3.org/1999/xlink" x="0px" y="0px" width="216px" height="216px" viewBox="0 0 216 216" enable-background="new 0 0 216 216" xml:space="preserve">
<g>
	<g>
		<path fill="#AD1A2D" d="M27.5,102.208l-0.911,1.911c-1.547,3.278-3.005,6.6-4.643,9.833c-1.184,2.411-2.731,4.599-4.644,6.508
			c-2.503,2.551-6.055,3.78-9.651,3.415c-2.003-0.182-3.961-0.635-5.874-1.366c-0.272-0.091-0.317-0.182-0.227-0.499
			c1.457-3.097,2.913-6.236,4.371-9.469c0.136-0.274,0.272-0.317,0.545-0.227c1.958,0.683,4.052,0.773,6.1,0.362
			c2.277-0.501,4.28-1.867,5.554-3.778c1.411-2.002,2.641-4.188,3.642-6.463c0.911-1.913,1.913-3.961,2.777-5.919
			c0.137-0.227,0.137-0.5,0-0.728c-2.049-4.371-4.097-8.741-6.1-13.11c-0.5-1.047-0.957-2.096-1.457-3.143
			c-0.136-0.272,0-0.409,0.228-0.545l9.287-4.325c0.318-0.181,0.455-0.09,0.592,0.228l12.746,27.45c0,0.137,0.136,0.273,0.228,0.456
			l0.773-1.685l2.14-4.644c0.09-0.181,0.09-0.409,0-0.592c-2.549-5.326-5.054-10.652-7.602-16.024c-0.319-0.683-0.319-0.683,0.364-1
			l8.968-4.189c0.319-0.136,0.456-0.09,0.547,0.228l12.974,27.861l7.921,17.071c0.183,0.317,0.09,0.411-0.228,0.411H54.54
			c-0.273,0-0.5-0.139-0.592-0.411l-7.966-17.071c-0.045-0.137-0.09-0.319-0.183-0.456c-0.136,0-0.181,0.091-0.227,0.183
			l-2.824,6.146c-0.136,0.136-0.136,0.364,0,0.545l4.963,10.653c0.228,0.454,0.228,0.454-0.273,0.454h-11.38
			c-0.273,0.048-0.501-0.137-0.592-0.363c-2.641-5.734-5.325-11.427-7.966-17.071V102.208z"/>
		<path fill="#AD1A2D" d="M92.232,95.38c-0.364-2.686-2.094-4.962-4.552-6.1c-1.958-0.864-4.097-1.32-6.236-1.32
			c-2.186-0.045-4.325,0.137-6.464,0.638c-1.685,0.364-3.324,0.956-4.871,1.639c-0.138,0-0.319,0.09-0.319,0.364v6.282
			c1.092-0.728,2.275-1.32,3.505-1.775c2.23-0.911,4.689-1.138,7.057-0.638c2.002,0.228,3.414,2.048,3.231,4.006
			c0,0.228,0,0.319-0.319,0.319c-0.773,0.091-1.547,0.181-2.322,0.319c-2.777,0.455-5.508,1.366-7.966,2.731
			c-2.003,1.047-3.642,2.641-4.78,4.597c-1.229,2.276-1.639,4.871-1.183,7.375c0.272,1.957,1.274,3.779,2.822,5.097
			c1.775,1.457,4.052,2.14,6.327,1.913c2.231-0.137,4.37-0.955,6.146-2.366c0.547-0.456,1.047-0.955,1.548-1.505v0.275
			c0.091,0.773,0.273,1.912,0.364,2.365c0.09,0.457,0,0.547,0.683,0.547h7.01c0.411,0,0.501-0.136,0.501-0.498V97.929
			C92.37,97.064,92.324,96.199,92.232,95.38z M83.265,111.086c-0.409,1.547-1.639,2.686-3.186,3.006h-0.456
			c-1.911,0.182-3.596-1.232-3.778-3.097c-0.364-2.049,0.729-4.097,2.595-4.963c1.275-0.638,2.641-1.001,4.052-1.092
			c0.364,0,0.911-0.228,1.047,0c0.182,0.228,0,0.683,0,1.092v1.229C83.72,108.49,83.629,109.811,83.265,111.086z"/>
		<path fill="#AD1A2D" d="M178.728,101.48c0-1.73-0.229-3.505-0.774-5.144c-0.954-3.733-3.87-6.692-7.602-7.739
			c-2.688-0.819-5.602-0.864-8.285-0.136c-2.87,0.683-5.329,2.503-6.828,5.052c-1.185,2.186-1.867,4.644-1.915,7.147v7.192
			c0,1.958,0.365,3.87,1.048,5.689c1.14,3.281,3.78,5.783,7.104,6.738c2.457,0.73,5.052,0.864,7.602,0.365
			c2.185-0.365,4.233-1.366,5.826-2.958c2.277-2.323,3.644-5.42,3.779-8.65v-4.188C178.728,103.438,178.728,102.437,178.728,101.48z
			 M169.805,109.355c0,1.047-0.227,2.139-0.592,3.096c-0.046,0.182-0.137,0.408-0.275,0.547c-0.909,1.593-3.003,2.185-4.596,1.227
			h-0.045c-0.731-0.407-1.275-1.091-1.547-1.909c-0.366-1.229-0.55-2.505-0.55-3.78v-8.24c0-1.273,0.184-2.548,0.55-3.778
			c0.317-1.047,1.136-1.866,2.139-2.185c1.729-0.637,3.687,0.273,4.278,2.049v0.045c0.363,1.001,0.593,2.003,0.593,3.05v4.961
			c-0.048,1.685-0.048,3.324-0.048,4.917H169.805z"/>
		<path fill="#AD1A2D" d="M211.048,78.264v9.878c0,0.364,0,0.5,0.456,0.5h3.55c0.317,0,0.456,0,0.456,0.409v4.734
			c0,0.319,0,0.364-0.365,0.364h-3.55c-0.411,0-0.547,0-0.547,0.547v25.081c0,0.365-0.091,0.502-0.499,0.502h-7.877
			c-0.365,0-0.456-0.091-0.456-0.454V94.743c0-0.592,0-0.547-0.544-0.547h-1.915c-0.272,0-0.317,0-0.317-0.317v-4.827
			c0-0.319,0.093-0.364,0.41-0.364h2.049c0.317,0,0.408,0,0.408-0.409v-5.554c-0.043-0.183,0.048-0.409,0.229-0.455l8.33-3.871
			L211.048,78.264z"/>
		<path fill="#AD1A2D" d="M192.384,78.264v9.924c0,0.364,0.091,0.455,0.454,0.455h3.644c0.319,0,0.41,0,0.362,0.409v4.734
			c0,0.273,0,0.364-0.362,0.364h-3.644c-0.408,0-0.454,0.137-0.454,0.456v25.172c0,0.365,0,0.502-0.456,0.502H184.1
			c-0.411,0-0.502-0.091-0.502-0.502V94.743c0-0.592,0-0.547-0.547-0.547h-1.912c-0.227,0-0.317,0-0.317-0.317v-4.917
			c0-0.273,0.091-0.318,0.317-0.318h2.048c0.684,0,0.502-0.136,0.502-0.546v-5.462c-0.045-0.228,0.091-0.411,0.272-0.501
			l8.378-3.869H192.384z"/>
		<path fill="#AD1A2D" d="M127.284,91.92c0.32-0.501,0.683-0.956,1.049-1.366c1.957-2.276,5.145-3.141,8.013-2.139
			c0.181,0,0.317,0.182,0.271,0.364c0,0,0,0,0,0.045l0,0v6.874c0,0.364-0.182,0.319-0.365,0.228
			c-1.182-0.637-2.547-0.911-3.867-0.911c-1.913,0-3.734,1.001-4.78,2.594c-0.091,0.183-0.136,0.366-0.091,0.592v21.576
			c0,0.55,0,0.55-0.592,0.55h-7.741c-0.362,0-0.453-0.091-0.453-0.456V89.189c0-0.364,0-0.501,0.453-0.456h7.194
			c0.317,0,0.456,0,0.456,0.411C126.922,89.963,127.103,90.874,127.284,91.92z"/>
		<path fill="#AD1A2D" d="M106.346,91.783c0.5-0.591,1.001-1.183,1.547-1.73c1.32-1.32,3.188-2.094,5.052-2.048
			c0.821,0,1.641,0.092,2.46,0.364c0.181,0,0.362,0.183,0.319,0.411c0,0,0,0,0,0.045l0,0v6.828c0,0.319,0,0.364-0.365,0.227
			c-1.229-0.636-2.641-0.955-4.052-0.91c-1.865,0.091-3.55,1.047-4.597,2.594c-0.091,0.183-0.137,0.41-0.091,0.638v21.534
			c0,0.592,0,0.592-0.592,0.592h-7.785c-0.319,0-0.455,0-0.455-0.456V89.144c0-0.364,0.091-0.457,0.455-0.457h7.147
			c0.319,0,0.455,0,0.5,0.41C106.072,89.963,106.208,90.874,106.346,91.783z"/>
		<path fill="#AD1A2D" d="M148.772,104.438v15.524c0,0.317,0,0.317-0.32,0.317h-8.193c-0.272,0-0.317-0.137-0.317-0.363V89.234
			c0-0.547,0-0.547,0.546-0.547h7.603c0.592,0,0.592,0,0.592,0.592L148.772,104.438z"/>
		<path fill="#AD1A2D" d="M104.479,138.034v-6.372c0-0.318,0-0.457,0.364-0.408c0.364,0,1.139,0,1.73,0c0.228,0,0.319,0,0.319,0.317
			v10.469c0,0.229,0,0.272-0.319,0.272h-1.457c-0.228,0-0.319-0.091-0.409-0.272l-4.78-6.281c-0.136-0.182-0.318-0.317-0.501-0.456
			v6.557c0,0.319,0,0.453-0.455,0.41c-0.545-0.048-1.092-0.048-1.639,0c-0.364,0-0.364-0.181-0.364-0.456v-10.427
			c0-0.317,0-0.317,0.273-0.317h1.73c0.228,0,0.319,0.136,0.455,0.317l4.735,6.239L104.479,138.034z"/>
		<path fill="#AD1A2D" d="M54.04,137.943v-6.146c0-0.317,0-0.454,0.41-0.454c0.545,0.043,1.047,0.043,1.592,0
			c0.319,0,0.456,0,0.411,0.408v10.288c0,0.272,0,0.411-0.364,0.366c-0.547,0.09-1.094,0.09-1.639,0
			c-0.456-0.228-0.683-0.819-1.047-1.23l-4.234-5.553l0,0c-0.091,0.09,0,0.271,0,0.362v6.146c0,0.32,0,0.411-0.364,0.411h-1.73
			c-0.228,0-0.318,0-0.318-0.32v-10.696c0-0.229,0-0.32,0.318-0.32l0,0c0.638-0.136,1.275-0.136,1.913,0
			c0.5,0.229,0.773,0.913,1.138,1.414l3.778,4.871C53.902,137.671,53.948,137.808,54.04,137.943z"/>
		<path fill="#AD1A2D" d="M163.75,137.943c0.045-0.136,0.045-0.317,0-0.453v-5.692c0-0.317,0-0.454,0.408-0.411
			c0.501,0.048,1.048,0.048,1.55,0c0.317,0,0.408,0,0.408,0.411v10.291c0,0.271,0,0.407-0.363,0.362
			c-0.547,0.091-1.094,0.091-1.595,0c-0.499-0.182-0.726-0.773-1.046-1.229l-4.326-5.689c-0.134,0.136,0,0.271,0,0.41v6.098
			c0,0.366-0.091,0.456-0.454,0.456h-1.595c-0.272,0-0.362,0-0.362-0.317v-10.427c0-0.271,0-0.317,0.319-0.317h1.502
			c0.272-0.048,0.547,0.091,0.683,0.363l4.645,6.01C163.614,137.808,163.659,137.898,163.75,137.943z"/>
		<path fill="#AD1A2D" d="M152.323,135.85c-0.456-2.777-2.868-4.825-5.689-4.78c-0.363,0-0.684,0.046-1.046,0.094
			c-2.097,0.271-3.873,1.773-4.556,3.776c-0.773,2.049-0.225,4.324,1.365,5.826c1.366,1.365,3.372,2.006,5.281,1.595l0,0
			C150.775,141.859,152.87,138.946,152.323,135.85z M146.634,140.083c-1.822,0-3.324-1.502-3.324-3.324v-0.227
			c0-1.773,1.457-3.23,3.278-3.23l0,0h0.136c1.867,0.043,3.324,1.593,3.233,3.457l0,0
			C149.957,138.581,148.501,140.083,146.634,140.083c-0.046,0-0.091,0-0.182,0H146.634z"/>
		<path fill="#AD1A2D" d="M93.234,141.949l-2.275-3.323c-0.092-0.136-0.319-0.271,0-0.41c0.728-0.317,1.32-0.864,1.684-1.59
			c0.955-1.776,0.319-4.007-1.458-5.01c-0.591-0.272-1.229-0.411-1.911-0.453h-5.008c-0.364,0-0.364,0-0.364,0.362v10.334
			c0,0.41,0,0.41,0.409,0.41h1.685c0.319,0,0.41,0,0.41-0.41v-2.777c0-0.365,0-0.365,0.364-0.365H88
			c0.228,0,0.455,0.091,0.546,0.274c0.591,1.049,1.229,2.004,1.912,2.958c0,0.14,0.183,0.272,0.364,0.272h2.595
			C93.326,142.179,93.279,142.089,93.234,141.949z M90.595,135.121c0,0.091,0,0.182,0,0.272c-0.137,0.73-0.775,1.274-1.503,1.232
			h-2.503c-0.183,0-0.228,0-0.228-0.139c0-0.091,0-0.137,0-0.228v-2.504c0-0.137,0-0.272,0.228-0.272c0.911,0,1.775,0,2.641,0h0.227
			c0.547,0.091,1.047,0.502,1.185,1.046c0,0.091,0,0.182,0,0.271C90.595,134.939,90.595,135.03,90.595,135.121z"/>
		<path fill="#AD1A2D" d="M71.475,136.807v-5.1c0-0.32,0-0.453,0.455-0.453h7.466c0.319,0,0.455,0,0.455,0.453
			c-0.045,0.411-0.045,0.864,0,1.275c0,0.41-0.136,0.453-0.455,0.453h-4.962c-0.319,0-0.455,0-0.455,0.459c0,0.453,0,0.906,0,1.365
			c0,0.453,0,0.363,0.364,0.363h4.325c0.364,0,0.455,0.09,0.455,0.453c0,0.32,0,0.912,0,1.365c0,0.457,0,0.366-0.364,0.366h-4.461
			c-0.409,0-0.455,0.091-0.455,0.456c0.045,0.453,0.045,0.955,0,1.411c0,0.365,0,0.456,0.455,0.456h5.099
			c0.319,0,0.455,0,0.41,0.408c-0.045,0.456-0.045,0.957,0,1.41c0,0.229,0,0.32-0.319,0.32h-7.785c-0.319,0-0.319-0.139-0.319-0.365
			C71.475,140.222,71.475,138.535,71.475,136.807z"/>
		<path fill="#AD1A2D" d="M121.368,141.949c-1.505-3.505-3.004-7.01-4.46-10.515c-0.048-0.181-0.229-0.319-0.459-0.271
			c-0.499,0.042-1,0.042-1.456,0c-0.363,0-0.499,0.091-0.635,0.453c-1.229,2.961-2.46,5.692-3.689,8.647l-0.864,2.097h2.275
			c0.139,0,0.32-0.091,0.32-0.229l0,0c0.227-0.635,0.502-1.227,0.773-1.909c0.091-0.182,0.272-0.32,0.502-0.32h3.958
			c0.229-0.046,0.456,0.139,0.501,0.32c0.229,0.635,0.502,1.274,0.774,1.909c0,0.182,0.09,0.275,0.319,0.275h2.23
			C121.459,142.179,121.459,142.089,121.368,141.949z M116.814,137.671h-2.365c-0.182,0-0.272,0-0.182-0.229l1.365-3.366
			l1.366,3.276C117.09,137.671,117.042,137.671,116.814,137.671z"/>
		<path fill="#AD1A2D" d="M180.595,141.995c-0.32-0.773-0.684-1.547-1.003-2.366c-1.137-2.686-2.275-5.372-3.415-8.104
			c-0.045-0.229-0.271-0.362-0.501-0.32h-1.502c-0.227-0.042-0.456,0.091-0.499,0.32l-1.915,4.689
			c-0.816,1.91-1.59,3.777-2.411,5.689c-0.227,0.456-0.182,0.456,0.32,0.456h1.638c0.229,0.046,0.411-0.091,0.453-0.32
			c0.229-0.635,0.55-1.274,0.776-1.909c0.046-0.185,0.227-0.32,0.408-0.32h4.055c0.181-0.046,0.362,0.091,0.453,0.272
			c0.136,0.365,0.272,0.73,0.453,1.093c0.185,0.363,0.185,0.864,0.459,1.046c0.272,0.185,0.773,0,1.137,0h1.003
			C180.775,142.406,180.775,142.27,180.595,141.995z M176.132,137.671h-2.457c-0.139,0-0.139-0.091-0.139-0.271
			c0.456-1.049,0.864-2.14,1.366-3.281c0.456,1.185,0.912,2.278,1.365,3.372C176.358,137.671,176.358,137.671,176.132,137.671
			L176.132,137.671z"/>
		<path fill="#AD1A2D" d="M126.692,131.296h4.145c0.317,0,0.411,0,0.411,0.411s0,1.003,0,1.456c0,0.502,0,0.411-0.411,0.411h-2.55
			c-0.32,0-0.453,0-0.453,0.411v7.964c0,0.363,0,0.457-0.459,0.457c-0.544-0.046-1.046-0.046-1.59,0
			c-0.32,0-0.411-0.094-0.411-0.457v-7.783c0-0.365,0-0.547-0.501-0.501h-2.502c-0.274,0-0.365,0-0.365-0.32
			c0-0.317,0-1.046,0-1.547c0-0.502,0.091-0.363,0.365-0.363L126.692,131.296z"/>
		<path fill="#AD1A2D" d="M63.964,131.296h4.188c0.273,0,0.364,0,0.364,0.366c0,0.365,0,1,0,1.456c0,0.501,0,0.456-0.41,0.411
			h-2.504c-0.319,0-0.455,0-0.455,0.456v7.919c0,0.365,0,0.502-0.455,0.456c-0.547-0.048-1.047-0.048-1.594,0
			c-0.319,0-0.41-0.091-0.41-0.411v-7.831c0-0.362,0-0.499-0.455-0.499h-2.505c-0.273,0-0.409,0-0.364-0.365
			c0-0.362,0-1.046,0-1.547c0-0.502,0-0.363,0.364-0.363L63.964,131.296z"/>
		<path fill="#AD1A2D" d="M183.553,136.759v-5.097c0-0.318,0-0.408,0.408-0.408c0.549,0.042,1.139,0.042,1.686,0
			c0.32,0,0.362,0.133,0.362,0.453v7.874c0,0.411,0,0.55,0.55,0.55h4.596c0.317,0,0.408,0,0.408,0.408c0,0.407,0,1,0,1.501
			c0,0.502,0,0.32-0.317,0.32h-7.284c-0.272,0-0.317,0-0.317-0.365C183.553,140.264,183.553,138.49,183.553,136.759z"/>
		<path fill="#AD1A2D" d="M136.893,136.807v5.098c0,0.317,0,0.456-0.457,0.408h-1.683c-0.229,0-0.32,0-0.32-0.317V131.48
			c0-0.227,0-0.317,0.32-0.317h1.773c0.317,0,0.366,0,0.366,0.362V136.807z"/>
		<path fill="#AD1A2D" d="M39.563,136.759v-5.097c0-0.318,0-0.408,0.41-0.408c0.547,0.042,1.093,0.042,1.684,0
			c0.364,0,0.364,0.133,0.364,0.453v10.288c0,0.227,0,0.317-0.319,0.317h-1.684c-0.317,0-0.41,0-0.41-0.408
			C39.608,140.222,39.563,138.49,39.563,136.759z"/>
		<path fill="#AD1A2D" d="M90.595,134.62c-0.137-0.545-0.592-0.955-1.185-1.046h-0.228c-0.864,0-1.729,0-2.639,0
			c-0.228,0-0.228,0.091-0.228,0.272l0,0c0-0.137,0-0.272,0.228-0.272c0.91,0,1.775,0,2.639,0
			C89.82,133.529,90.412,133.985,90.595,134.62z"/>
	</g>

</g>
</svg>
