<?xml version="1.0" encoding="utf-8"?>
<!DOCTYPE svg PUBLIC "-//W3C//DTD SVG 1.1//EN" "http://www.w3.org/Graphics/SVG/1.1/DTD/svg11.dtd">
<svg version="1.1" xmlns="http://www.w3.org/2000/svg" xmlns:xlink="http://www.w3.org/1999/xlink" x="0px" y="0px" width="216px" height="216px" viewBox="0 0 216 216" enable-background="new 0 0 216 216" xml:space="preserve">
<g>
	<path d="M0.5,108.5V0.5h216v216H0.5V108.5z M65.63,134.3c2.58-0.72,4.47-3.029,4.47-5.52c0-2.551-1.62-4.561-6.63-8.16
		c-2.91-2.07-3.75-3.36-3.42-5.16c0.24-1.32,1.65-2.67,3.03-2.94c2.58-0.479,5.28,0.75,5.67,2.58c0.3,1.381,0.75,0.75,0.75-1.05
		v-1.59l-1.53-0.36c-2.04-0.51-4.98-0.449-6.3,0.12c-1.26,0.51-2.88,2.25-3.15,3.36c-0.33,1.35,0.06,3.39,0.96,4.65
		c0.48,0.689,2.13,2.13,3.72,3.27c4.38,3.12,5.37,4.47,5.01,6.81c-0.33,2.011-2.31,3.391-4.83,3.391c-2.49,0-4.5-1.32-4.86-3.21
		c-0.33-1.74-0.75-1.08-0.66,1.05l0.09,2.01l1.5,0.51C61.13,134.63,64.01,134.75,65.63,134.3L65.63,134.3z M105.14,134.15
		c1.71-0.511,3.15-1.591,3.81-2.88c0.81-1.561,0.33-1.65-0.72-0.12c-1.02,1.499-2.88,2.31-5.37,2.31c-4.29,0.03-6.99-2.58-7.86-7.62
		c-0.81-4.56,1.26-9.03,4.68-10.14c1.47-0.51,5.1-0.271,6.51,0.42c1.23,0.6,2.01,1.77,2.01,3.029c0,0.421,0.15,0.751,0.3,0.751
		c0.18,0,0.33-0.811,0.36-1.801c0-0.989,0.03-1.949,0.06-2.13c0.03-0.479-1.92-1.14-4.38-1.47c-6.72-0.96-11.94,3.42-11.94,10.05
		C92.6,131.54,98.54,136.1,105.14,134.15L105.14,134.15z M88.4,132.65c0-1.891-0.24-2.07-0.9-0.66c-0.54,1.14-1.17,1.35-4.35,1.38
		c-4.02,0.03-3.75,0.36-3.75-4.65V124.4h2.34c2.52,0,3.66,0.479,3.66,1.529c0,0.301,0.15,0.57,0.3,0.57c0.18,0,0.3-0.899,0.3-2.1
		c0-2.19-0.12-2.46-0.78-1.561c-0.3,0.391-0.93,0.54-3.09,0.601l-2.73,0.119V115.7h2.49c3.39,0,4.56,0.359,5.04,1.59l0.39,0.96
		l0.12-1.62c0.06-0.87,0.03-1.65-0.03-1.71c-0.06-0.09-2.94-0.09-6.39-0.06c-3.66,0.06-6.03,0.18-5.67,0.329
		c1.59,0.66,1.5,0.15,1.59,9.211c0.06,8.819,0,9.3-1.17,9.3c-0.33,0-0.57,0.149-0.57,0.3c0,0.18,2.4,0.3,6.6,0.3h6.6V132.65
		L88.4,132.65z M120.35,134.03c-0.18-0.15-0.63-0.33-1.05-0.391c-1.17-0.149-1.5-1.229-1.5-4.95v-3.39h1.021
		c1.319,0,2.37,1.021,4.35,4.29c1.5,2.46,2.61,3.75,3.84,4.38c0.811,0.42,4.11,0.45,3.84,0.03c-0.09-0.15-0.51-0.3-0.93-0.3
		c-1.08,0-2.939-1.86-4.56-4.59c-0.78-1.32-1.771-2.79-2.221-3.271c-0.96-1.05-0.989-1.14-0.39-1.14c0.24,0,1.05-0.57,1.77-1.261
		c2.881-2.789,2.49-6.569-0.84-8.069c-1.02-0.45-1.979-0.57-5.729-0.54c-4.47,0-4.5,0-3.45,0.51l1.05,0.51l0.09,8.34
		c0.061,8.641-0.03,9.511-1.14,9.511c-0.33,0-0.6,0.149-0.6,0.3c0,0.18,1.319,0.3,3.359,0.3S120.5,134.18,120.35,134.03
		L120.35,134.03z M146.9,132.47c0-1.859-0.391-2.189-0.69-0.6c-0.24,1.14-1.47,1.53-4.8,1.53c-3.601,0-3.51,0.149-3.51-4.801V124.4
		h2.22c2.64,0,3.78,0.359,3.78,1.17c0,0.33,0.149,0.689,0.3,0.779c0.18,0.12,0.3-0.6,0.3-1.92c0-1.17-0.06-2.13-0.15-2.13
		c-0.09,0-0.42,0.271-0.75,0.601c-0.54,0.54-0.93,0.6-3.09,0.54l-2.46-0.091l-0.09-3.81l-0.09-3.84l2.79,0.03
		c3.569,0.029,4.17,0.21,4.77,1.409c0.63,1.2,0.87,0.931,0.87-0.899v-1.44h-6.51c-4.351,0-6.39,0.12-6.09,0.3
		c0.239,0.15,0.689,0.301,0.96,0.301c1.02,0,1.14,1.02,1.14,9.06c0,6.66-0.06,8.01-0.479,8.58c-0.24,0.36-0.631,0.66-0.87,0.66
		c-0.24,0-0.511,0.15-0.601,0.3c-0.12,0.21,2.101,0.3,6.42,0.3h6.631V132.47L146.9,132.47z M162.35,134
		c-0.09-0.149-0.51-0.3-0.869-0.3c-1.44,0-1.53-0.42-1.62-9.36l-0.09-8.34h5.729l0.57,0.93l0.569,0.96l0.211-1.409
		c0.119-0.78,0.18-1.471,0.09-1.53c-0.061-0.061-3.75-0.15-8.221-0.15l-8.069-0.029l-0.09,1.26c-0.12,1.439,0.359,2.22,0.689,1.14
		c0.33-1.05,0.66-1.17,3.69-1.17h2.76v7.92c0,8.25-0.18,9.78-1.2,9.78c-0.33,0-0.66,0.149-0.75,0.3c-0.12,0.18,1.05,0.3,3.3,0.3
		S162.47,134.18,162.35,134L162.35,134z M38.6,94.55c2.34-5.61,4.56-10.5,4.89-10.86C43.82,83.3,44.42,83,44.81,83
		s0.69-0.12,0.69-0.3c0-0.18-1.14-0.3-2.91-0.27c-2.46,0.03-2.79,0.09-2.1,0.36c0.57,0.24,0.81,0.54,0.81,1.02
		c0,0.99-6.63,17.61-6.9,17.28c-0.27-0.3-6.6-17.041-6.6-17.46c0-0.18,0.36-0.51,0.84-0.75c0.75-0.42,0.6-0.45-2.55-0.48
		c-2.07,0-3.39,0.12-3.39,0.3c0,0.18,0.33,0.3,0.75,0.3c0.42,0,0.99,0.24,1.29,0.54c0.3,0.3,2.37,5.07,4.56,10.59
		c4.53,11.34,4.47,11.22,4.8,10.89C34.25,104.87,36.26,100.16,38.6,94.55L38.6,94.55z M72.14,104.75c1.71-0.51,3.15-1.59,3.81-2.88
		c0.81-1.56,0.33-1.68-0.66-0.15c-0.93,1.47-2.85,2.28-5.28,2.28c-3.3,0-5.49-1.32-6.96-4.2c-0.87-1.74-1.11-2.85-1.11-5.4
		c0-3.72,1.56-6.69,4.08-7.83c1.77-0.81,5.28-0.78,6.99,0.06c1.32,0.63,2.19,1.8,2.19,2.94c0,0.33,0.15,0.69,0.3,0.78
		c0.18,0.12,0.33-0.45,0.36-1.47c0.03-0.93,0.06-1.89,0.06-2.19c0.06-0.84-2.85-1.65-5.97-1.68c-2.37-0.03-2.94,0.09-4.56,0.81
		c-2.19,0.99-4.05,2.85-4.98,4.92c-0.84,1.92-1.02,5.43-0.39,7.65C61.49,103.4,66.95,106.28,72.14,104.75L72.14,104.75z
		 M114.65,104.15c2.069-0.99,4.14-3.3,4.949-5.49c0.811-2.16,0.9-5.34,0.181-7.47c-1.05-3.15-4.11-5.55-7.681-6.03
		c-5.129-0.72-9.12,1.38-11.16,5.82c-0.54,1.17-0.69,2.01-0.69,4.17c0,2.46,0.09,2.91,0.99,4.71c1.08,2.22,2.7,3.78,4.71,4.56
		c1.89,0.69,2.25,0.75,4.74,0.63C112.46,104.99,113.42,104.75,114.65,104.15L114.65,104.15z M191.39,104.45
		c2.16-1.02,3.24-3.27,2.79-5.7c-0.27-1.44-2.01-3.3-5.189-5.58c-2.88-2.1-3.391-2.7-3.391-4.2c0-2.1,2.04-3.54,4.41-3.09
		c1.681,0.3,2.19,0.66,2.67,1.8c0.24,0.57,0.48,1.02,0.57,1.02s0.15-0.69,0.15-1.5c0-1.38-0.091-1.56-0.811-1.83
		c-0.479-0.18-1.77-0.36-2.939-0.36c-2.551-0.06-4.41,0.84-5.311,2.49c-1.439,2.76-0.33,5.04,3.96,8.1
		c1.62,1.17,3.24,2.58,3.601,3.12c0.84,1.38,0.779,2.91-0.181,4.05c-1.979,2.37-6.87,1.62-7.47-1.17c-0.33-1.47-0.75-1.02-0.75,0.75
		c0,1.74,0.18,1.95,2.07,2.58C186.771,105.32,190.16,105.05,191.39,104.45L191.39,104.45z M55.4,104.6c0-0.15-0.33-0.3-0.72-0.3
		c-1.65,0-1.68-0.21-1.68-9.42c0-8.79,0.06-9.18,1.26-9.18c0.3,0,0.54-0.12,0.54-0.3s-1.2-0.3-3-0.3c-1.65,0-3,0.12-3,0.24
		s0.42,0.39,0.9,0.57l0.9,0.33v8.67c0,9-0.06,9.39-1.26,9.39c-0.3,0-0.54,0.15-0.54,0.3c0,0.18,1.29,0.3,3.3,0.3
		C54.11,104.9,55.4,104.78,55.4,104.6L55.4,104.6z M92.3,104.6c0-0.15-0.33-0.3-0.72-0.3c-1.65,0-1.68-0.21-1.68-9.33V86.6h2.79
		c2.88,0,3.51,0.24,3.51,1.26c0,0.3,0.15,0.54,0.3,0.54c0.18,0,0.3-0.66,0.3-1.5v-1.5h-7.41c-4.11,0-7.74-0.09-8.1-0.18
		c-0.66-0.18-0.69-0.12-0.69,1.5c0,0.93,0.15,1.68,0.3,1.68c0.18,0,0.3-0.24,0.3-0.54c0-1.02,0.63-1.26,3.51-1.26h2.79v8.28
		c0,5.13-0.12,8.49-0.3,8.85c-0.18,0.3-0.6,0.57-0.9,0.57c-0.33,0-0.6,0.15-0.6,0.3c0,0.18,1.29,0.3,3.3,0.3
		C91.01,104.9,92.3,104.78,92.3,104.6z M131.6,104.6c0-0.15-0.329-0.3-0.72-0.3c-1.47,0-1.68-0.63-1.68-4.68V95.9h0.87
		c1.29,0,2.46,1.14,4.5,4.5c2.25,3.6,3.09,4.29,5.64,4.44c1.26,0.09,1.89,0.03,1.89-0.21c0-0.18-0.33-0.33-0.75-0.33
		c-1.08,0-3.149-2.01-4.649-4.53c-0.69-1.14-1.681-2.58-2.19-3.18c-0.689-0.81-0.84-1.14-0.54-1.23c0.69-0.24,2.73-2.22,3.21-3.09
		c0.601-1.2,0.54-3.54-0.149-4.65c-0.33-0.51-1.17-1.23-1.891-1.59c-1.2-0.57-1.83-0.63-5.97-0.6c-4.05,0-4.5,0.06-3.6,0.39
		c0.569,0.21,1.14,0.63,1.26,0.96c0.359,0.9,0.3,15.12-0.061,16.41c-0.21,0.78-0.479,1.11-0.869,1.11c-0.301,0-0.66,0.15-0.75,0.3
		c-0.12,0.18,0.989,0.3,3.119,0.3C130.28,104.9,131.6,104.78,131.6,104.6L131.6,104.6z M152.9,104.6c0-0.15-0.33-0.3-0.721-0.3
		c-1.649,0-1.68-0.21-1.68-9.42c0-8.79,0.06-9.18,1.26-9.18c0.301,0,0.54-0.12,0.54-0.3s-1.2-0.3-3-0.3s-3,0.12-3,0.3
		s0.24,0.3,0.54,0.3c1.2,0,1.26,0.39,1.26,9.3s-0.06,9.3-1.26,9.3c-0.3,0-0.54,0.15-0.54,0.3c0,0.18,1.29,0.3,3.3,0.3
		C151.61,104.9,152.9,104.78,152.9,104.6z M162.5,104.63c0-0.15-0.3-0.33-0.66-0.39c-1.02-0.15-1.02-1.08,0.061-4.32l0.96-2.85
		l3,0.09l3.029,0.09l1.17,3.12c1.17,3.12,1.261,3.93,0.391,3.93c-0.24,0-0.45,0.15-0.45,0.3c0,0.18,1.2,0.3,3,0.3
		c2.91,0,3.93-0.33,2.1-0.69c-0.479-0.12-1.109-0.54-1.38-0.96c-0.27-0.39-1.979-4.62-3.84-9.36c-1.83-4.71-3.479-8.64-3.63-8.7
		c-0.18-0.06-1.59,3.39-3.15,7.62c-3.869,10.62-3.96,10.83-5.25,11.34c-0.569,0.27-1.05,0.51-1.05,0.6s1.29,0.15,2.851,0.15
		C161.21,104.9,162.5,104.78,162.5,104.63L162.5,104.63z M178.4,87.29c1.319-1.68,0.39-4.44-1.44-4.23
		c-1.2,0.15-1.26,1.23-0.09,1.92c1.26,0.75,1.439,1.5,0.6,2.4c-0.359,0.39-0.84,0.72-1.08,0.72c-0.21,0-0.39,0.12-0.39,0.27
		C176,88.88,177.77,88.07,178.4,87.29L178.4,87.29z"/>
	<path d="M118.94,124.49l-1.141-0.12v-8.58l1.021-0.18c1.649-0.271,3.24,0.239,4.319,1.409c0.87,0.96,0.96,1.261,0.96,2.94
		C124.1,123.44,122.48,124.85,118.94,124.49z M109.01,103.97c-2.88-0.69-4.98-2.85-5.97-6.06c-1.62-5.4,0.63-10.95,4.83-11.82
		c5.58-1.17,9.54,2.31,9.87,8.64c0.21,4.32-1.08,7.26-3.811,8.67C112.55,104.09,110.48,104.33,109.01,103.97L109.01,103.97z
		 M130.34,95.09l-1.14-0.12v-8.61l0.84-0.21c1.14-0.24,3.24,0.27,4.02,0.96c1.471,1.29,1.86,4.08,0.87,6.06
		C134.15,94.67,132.59,95.3,130.34,95.09L130.34,95.09z M163.4,95.99c0-0.54,2.159-6.99,2.34-6.99c0.12,0,0.779,1.62,1.47,3.6
		l1.26,3.6h-2.55C164.54,96.2,163.4,96.11,163.4,95.99z"/>
</g>
</svg>
