<?xml version="1.0" encoding="utf-8"?>
<!DOCTYPE svg PUBLIC "-//W3C//DTD SVG 1.1//EN" "http://www.w3.org/Graphics/SVG/1.1/DTD/svg11.dtd">
<svg version="1.1" id="Layer_1" xmlns="http://www.w3.org/2000/svg" xmlns:xlink="http://www.w3.org/1999/xlink" x="0px" y="0px" width="216px" height="216px" viewBox="0 0 216 216" enable-background="new 0 0 216 216" xml:space="preserve">
<g>
	<path d="M0.122,0.122h216v216h-216V0.122z"/>
	<path fill="#FFFFFF" d="M73.599,143.911h-11.21c1.207,0.604,1.933,2.051,1.933,3.616c0,1.444-0.428,3.432-1.267,5.667
		l-5.603,15.482l-10.062-24.766h-9.04c2.534,1.927,3.735,5.847,1.868,10.187l-6.626,15.305l-10.004-25.491H13.042
		c1.688,1.146,2.95,3.8,4.46,7.475l10.3,25.85c1.386,3.495,2.955,5.299,6.269,6.868l10.725-24.164l7.35,17.297
		c1.505,3.431,3.016,5.3,6.328,6.868L73.599,143.911z M97.492,176.63c-2.592,1.927-5.304,2.771-9.1,2.771
		c-2.046,0-3.854-0.179-5.182-0.481v-9.879h2.772c3.373,0,4.521,0.238,5.425,1.267v-5.786h-8.196v-8.131
		c0,0,1.263-0.185,3.855-0.185c3.011,0,5.121,0.482,6.328,1.808v-5.966H73.75c1.564,0.845,1.809,2.11,1.809,7.353v16.813
		c0,5.239-0.243,6.507-1.809,7.345h21.512L97.492,176.63L97.492,176.63z M122.923,173.798c0-9.642-14.642-8.977-14.642-14.881
		c0-1.749,1.564-3.254,4.276-3.254c2.891,0,5.364,1.024,8.071,3.616v-6.869c-2.767-0.725-4.999-1.148-7.771-1.148
		c-6.024,0-12.174,3.618-12.174,9.582c0,10.85,14.643,9.277,14.643,15.368c0,2.165-1.926,3.734-5.239,3.734
		c-3.735,0-7.353-1.509-11.091-4.763l1.991,7.536c3.01,1.083,5.543,1.624,8.313,1.624
		C117.018,184.342,122.923,180.125,122.923,173.798z M150.905,152.047h-25.728l-1.75,5.966c1.929-1.326,3.675-1.808,6.868-1.808
		h3.075v20.007c0,5.24-0.243,6.508-1.867,7.346h11.264c-1.563-0.838-1.808-2.105-1.808-7.346v-20.007h2.714
		c2.829,0,4.763,0.421,5.725,1.808L150.905,152.047z M165.671,183.557c-1.564-0.838-1.808-2.105-1.808-7.346v-16.813
		c0-5.241,0.243-6.507,1.808-7.352h-11.266c1.564,0.845,1.808,2.11,1.808,7.352v16.813c0,5.24-0.243,6.508-1.808,7.346H165.671z
		 M203.086,152.047h-10.304c2.051,1.084,2.29,3.373,2.29,6.87v12.774l-13.197-15.665c-1.061-1.298-2.084-2.625-3.07-3.979h-9.101
		c1.869,1.084,2.773,3.134,2.773,7.41v17.236c0,3.49-0.239,5.779-2.289,6.863h10.306c-2.053-1.084-2.289-3.373-2.289-6.863v-13.019
		l13.612,16.148c1.929,2.289,4.402,3.252,8.98,3.979v-24.885C200.797,155.42,201.095,153.131,203.086,152.047z M30.329,201.421
		v2.781c0,0.688,0.105,1.808-0.676,2.097v0.046h2.927v-0.046c-0.785-0.289-0.688-1.409-0.688-2.097v-5.8
		c0-0.689-0.097-1.808,0.688-2.104v-0.044h-2.927v0.044c0.78,0.296,0.676,1.414,0.676,2.117v1.903H24.79v-1.903
		c0-0.703-0.093-1.821,0.673-2.117v-0.044h-2.914v0.044c0.785,0.296,0.676,1.414,0.676,2.104v5.8c0,0.688,0.091,1.808-0.676,2.097
		v0.046h2.914v-0.046c-0.766-0.289-0.673-1.409-0.673-2.097v-2.781H30.329L30.329,201.421z M42.616,195.993
		c-3.22-0.072-5.755,2.363-5.755,5.276c0,3.146,2.565,5.323,5.599,5.323c3.051,0,5.645-2.271,5.645-5.399
		C48.104,198.436,45.837,195.979,42.616,195.993L42.616,195.993z M42.511,197.098c2.424,0,3.845,2.163,3.845,4.401
		c0,2.285-1.487,3.988-3.818,3.988c-2.408,0-3.928-2.208-3.928-4.355C38.61,198.815,40.129,197.098,42.511,197.098L42.511,197.098z
		 M55.657,197.361h1.382c0.504,0,1.119,0.074,1.321,0.61h0.046l0.492-1.823h-0.05c-0.197,0.095-0.441,0.107-0.703,0.107h-6.106
		c-0.199-0.032-0.396-0.032-0.584-0.107h-0.047l-0.536,1.823h0.044c0.478-0.445,1.166-0.61,1.827-0.61h1.349v6.841
		c0,0.688,0.092,1.808-0.674,2.097v0.046h3.037v-0.046c-0.811-0.473-0.799-1.074-0.799-1.945L55.657,197.361L55.657,197.361z
		 M65.253,201.421h1.133c0.478,0,1.12-0.014,1.363,0.432h0.046v-1.624h-0.046c-0.184,0.092-0.427,0.092-0.676,0.092h-1.821v-2.854
		c0.491-0.092,1.027-0.105,1.56-0.105c0.706,0,1.336,0.06,1.813,0.61h0.046v-1.795h-0.046c-0.203,0.109-0.458,0.078-0.72,0.078
		h-4.911v0.044c0.785,0.296,0.688,1.414,0.688,2.117v5.786c0,0.688,0.097,1.821-0.688,2.097v0.046h6.396l0.688-2.009h-0.042
		c-0.785,0.674-1.811,1-2.841,0.904l-1.944-0.184L65.253,201.421L65.253,201.421L65.253,201.421z M76.48,205.106v-6.69
		c0-0.688-0.105-1.821,0.676-2.117v-0.044h-2.928v0.044c0.781,0.296,0.688,1.414,0.688,2.117v5.786c0,0.688,0.093,1.821-0.688,2.097
		v0.046h6.301l0.798-2.037h-0.046c-0.767,0.644-1.67,0.996-2.716,0.933L76.48,205.106L76.48,205.106z M91.348,196.347
		c-0.741-0.227-1.512-0.34-2.286-0.337c-1.872,0-3.849,0.735-3.849,2.668c0,3.252,5.276,2.822,5.276,5.211
		c0,1.074-1.321,1.598-2.193,1.598c-1.198,0-2.454-0.49-3.358-1.271l0.445,1.915c0.872,0.324,1.808,0.462,2.745,0.462
		c2.39,0,4.111-1.537,4.111-3.176c0-2.834-5.277-2.809-5.277-4.909c0-1.055,1.105-1.395,1.978-1.395
		c0.858,0,1.813,0.352,2.408,0.967v-1.732H91.348z M114.181,206.345v-0.046c-2.899-1.334-5.152-3.711-7.438-5.905
		c0.706-0.629,1.334-1.256,1.334-2.267c0-1.276-0.981-2.117-2.211-2.117c-1.192,0-2.39,0.86-2.39,2.129
		c0,0.861,0.66,1.58,1.225,2.163c-1.12,0.891-2.114,1.795-2.114,3.313c0,1.904,1.733,2.931,3.464,2.931
		c1.477,0,2.408-0.537,3.194-1.793c0.473,0.457,1.271,1.054,1.827,1.348c0.411,0.217,0.904,0.243,1.44,0.243L114.181,206.345
		L114.181,206.345L114.181,206.345z M105.866,199.49c-0.412-0.367-1.073-0.982-1.073-1.594c0-0.582,0.462-0.875,1.013-0.875
		c0.569,0,1.06,0.352,1.06,0.938C106.867,198.586,106.362,199.139,105.866,199.49z M108.63,204.216
		c-0.537,0.702-1.318,1.317-2.254,1.317c-1.184,0-2.147-0.748-2.147-2.009c0-0.95,0.629-1.731,1.379-2.267L108.63,204.216z
		 M122.984,196.255v0.044c0.783,0.296,0.673,1.414,0.673,2.117v5.786c0,0.688,0.111,1.821-0.673,2.097v0.046h2.926v-0.046
		c-0.778-0.275-0.689-1.394-0.689-2.097v-6.875c0.354-0.063,0.689-0.109,1.043-0.124c1.028-0.044,1.979,0.598,1.979,1.703
		c0,1.442-1.427,2.012-2.652,2.193l1.414,2.163l1.867,2.316c0.464,0.569,0.969,0.767,1.781,0.767h1.41
		c-0.873-0.551-1.839-1.348-2.484-2.143l-2.207-2.781c1.257-0.289,2.441-1.348,2.441-2.696c0-1.396-1.123-2.468-3.181-2.468h-3.647
		V196.255L122.984,196.255z M138.046,201.421h1.135c0.477,0,1.118-0.014,1.368,0.432h0.046v-1.624h-0.046
		c-0.188,0.092-0.432,0.092-0.679,0.092h-1.823v-2.854c0.492-0.092,1.029-0.105,1.564-0.105c0.703,0,1.332,0.06,1.808,0.61h0.049
		v-1.795h-0.049c-0.201,0.109-0.459,0.078-0.721,0.078h-4.909v0.044c0.783,0.296,0.691,1.414,0.691,2.117v5.786
		c0,0.688,0.092,1.821-0.691,2.097v0.046h6.396l0.693-2.009h-0.046c-0.785,0.674-1.81,1-2.841,0.904l-1.945-0.184V201.421
		L138.046,201.421z M153.235,196.347c-0.74-0.227-1.51-0.34-2.284-0.337c-1.874,0-3.851,0.735-3.851,2.668
		c0,3.252,5.276,2.822,5.276,5.211c0,1.074-1.317,1.598-2.192,1.598c-1.197,0-2.455-0.49-3.359-1.271l0.443,1.915
		c0.88,0.314,1.81,0.472,2.744,0.462c2.393,0,4.113-1.537,4.113-3.176c0-2.834-5.277-2.809-5.277-4.909
		c0-1.055,1.104-1.395,1.977-1.395c0.863,0,1.814,0.352,2.409,0.967L153.235,196.347L153.235,196.347z M163.99,195.993
		c-3.22-0.072-5.75,2.363-5.75,5.276c0,3.146,2.563,5.323,5.599,5.323c3.054,0,5.645-2.271,5.645-5.399
		C169.484,198.436,167.212,195.979,163.99,195.993L163.99,195.993z M163.886,197.098c2.423,0,3.851,2.163,3.851,4.401
		c0,2.285-1.49,3.988-3.821,3.988c-2.409,0-3.925-2.208-3.925-4.355C159.989,198.815,161.505,197.098,163.886,197.098z
		 M173.719,196.255v0.044c0.79,0.296,0.678,1.414,0.678,2.117v5.786c0,0.688,0.112,1.821-0.678,2.097v0.046h2.938v-0.046
		c-0.781-0.275-0.693-1.394-0.693-2.097v-6.875c0.354-0.063,0.693-0.109,1.042-0.124c1.028-0.044,1.983,0.598,1.983,1.703
		c0,1.442-1.427,2.012-2.657,2.193l1.414,2.163l1.871,2.316c0.46,0.569,0.963,0.767,1.777,0.767h1.41
		c-0.873-0.551-1.841-1.348-2.484-2.143l-2.209-2.781c1.266-0.289,2.438-1.348,2.438-2.696c0-1.396-1.116-2.468-3.171-2.468h-3.659
		V196.255L173.719,196.255z M189.674,197.361h1.377c0.51,0,1.125,0.074,1.322,0.61h0.047l0.49-1.823h-0.047
		c-0.202,0.095-0.443,0.107-0.707,0.107h-6.106c-0.197-0.032-0.396-0.032-0.584-0.107h-0.039l-0.538,1.823h0.046
		c0.478-0.445,1.167-0.61,1.828-0.61h1.348v6.841c0,0.688,0.093,1.808-0.674,2.097v0.046h3.033v-0.046
		c-0.808-0.473-0.795-1.074-0.795-1.945L189.674,197.361L189.674,197.361L189.674,197.361z M202.312,196.347
		c-0.74-0.227-1.51-0.34-2.284-0.337c-1.872,0-3.851,0.735-3.851,2.668c0,3.252,5.276,2.822,5.276,5.211
		c0,1.074-1.317,1.598-2.192,1.598c-1.192,0-2.452-0.49-3.359-1.271l0.445,1.915c0.88,0.314,1.809,0.472,2.742,0.462
		c2.397,0,4.113-1.537,4.113-3.176c0-2.834-5.272-2.809-5.272-4.909c0-1.055,1.1-1.395,1.972-1.395c0.863,0,1.813,0.352,2.409,0.967
		L202.312,196.347L202.312,196.347z"/>
	<path fill="#AE3C59" d="M65.555,99.117c-4.682,5.722-6.823,13.046-5.145,19.386c0.917,3.369,3.524,6.428,7.351,7.346
		c0.611-0.151,1.685,0.309,1.991-0.457c-0.766-1.068-1.379-2.294-1.991-3.52c-3.06-7.043-1.683-13.78,3.828-21.284
		c9.645,12.404,25.26,21.433,44.093,21.433c18.612,0,35.085-9.008,45.303-22.906h-4.891c-9.594,11.737-24.2,19.232-40.569,19.232
		c-16.101,0-31.509-7.838-40.458-19.237L65.555,99.117L65.555,99.117z M109.545,99.117c3.636,4.245,5.888,9.386,5.213,15.712
		c0.158,0.155,0.309,0,0.464-0.153c2.671-4.579,3.084-10.347,1.753-15.564L109.545,99.117L109.545,99.117z M122.856,99.117
		c0.239,2.121,0.195,4.264-0.131,6.374h0.151c1.598-1.841,2.303-4.176,2.996-6.369L122.856,99.117L122.856,99.117z"/>
	<path fill="#AE3C59" d="M75.068,99.117c-0.404-0.523-0.799-1.052-1.186-1.588c6.586-7.502,9.803-9.645,15.005-12.555
		c1.226,0.151,2.144,1.226,3.217,1.684c5.919,3.088,12.803,7.044,17.44,12.459h7.431c-0.803-3.163-2.243-6.113-4.204-8.475
		c-3.983-4.901-8.112-8.421-13.012-11.944c-0.459-0.307,0.15-0.459,0.301-0.61l5.208-3.06l0.768,0.307
		c4.897,3.671,10.563,7.957,13.625,13.624c1.642,3.093,2.797,6.557,3.195,10.155l3.016,0.005c0.171-0.537,0.34-1.069,0.523-1.588
		c2.301-9.031-0.917-18.373-7.043-24.494l-4.285-4.286l0.156-0.308l4.59-3.519h0.457c8.427,6.731,14.088,17.911,11.178,29.697v0.156
		l1.226-1.379c6.586-9.646,12.555-20.517,17.916-31.232c1.835-3.827,5.817-7.346,10.104-8.726l0.46-0.152
		c-4.134-1.991-7.353-6.429-12.708-5.511c-3.983,0.615-7.043,3.52-9.801,6.126l-6.887,6.428h-0.615
		c-0.919-1.38-2.143-2.298-3.52-3.524l0.151-0.304c5.666-6.277,9.951-15.312,6.277-23.883c-3.211-7.654-11.022-12.248-19.593-11.94
		c-7.503,0.304-14.087,4.896-17.148,11.633c-1.992,4.593-2.3,11.329,0.917,15.615c2.603,3.368,6.736,6.125,10.104,8.576
		c3.065,2.295,6.429,3.979,9.338,6.277l-0.151,0.459c-1.377,1.377-3.218,2.446-4.593,3.52l-0.766-0.152
		c-7.197-5.818-16.075-8.878-21.431-16.996c-3.217-4.896-2.454-12.398-0.157-17.607c-0.459-0.302-0.61,0.308-0.918,0.308
		c-4.286,3.983-6.583,9.645-6.734,15.922c-0.157,7.044,3.06,13.321,8.42,17.147c3.827,2.602,7.654,5.354,11.481,7.655
		c0.089,0.077,0.145,0.186,0.156,0.303c-1.744,1.314-3.586,2.493-5.511,3.524l-0.767-0.307c-7.962-5.511-18.066-9.948-19.902-20.512
		c-0.464-2.756-0.308-5.974-0.156-8.727c-0.152-0.156-0.308,0-0.459,0.151c-4.745,6.584-5.361,17.148-1.38,24.034
		c2.606,4.594,6.74,8.421,11.025,11.332l0.152,0.307c-1.835,1.528-4.135,2.601-6.277,3.978h0.151
		c-3.056,1.992-5.663,3.368-8.723,6.433c-3.827-5.208-7.962-15.619-7.962-28.017c0.151-28.936,23.42-52.206,52.514-52.055
		c28.932,0,52.357,23.425,52.204,52.513c0,12.568-4.419,24.1-11.792,33.117l4.892,0.009c6.841-9.311,10.88-20.813,10.88-33.278
		c0-31.077-25.108-56.188-56.184-56.188c-31.08,0-56.189,25.109-56.189,56.188c0,12.092,3.525,21.736,8.88,30.314
		c-1.013,0.917-1.955,1.909-2.817,2.969L75.068,99.117L75.068,99.117z M128.999,31.7c3.674,7.497,1.224,17.298-3.521,23.269
		l-0.615-0.152c-5.511-4.29-11.938-7.194-17.603-11.636c-3.216-2.451-5.208-6.736-4.134-11.178c0.767-3.368,3.52-6.579,6.887-7.805
		c5.511-1.991,12.248-0.615,16.23,3.67C127.472,29.097,128.388,30.32,128.999,31.7L128.999,31.7z"/>
</g>

</svg>
