<?xml version="1.0" encoding="utf-8"?>
<!DOCTYPE svg PUBLIC "-//W3C//DTD SVG 1.1//EN" "http://www.w3.org/Graphics/SVG/1.1/DTD/svg11.dtd">
<svg version="1.1" id="Layer_1" xmlns="http://www.w3.org/2000/svg" xmlns:xlink="http://www.w3.org/1999/xlink" x="0px" y="0px" width="216px" height="216px" viewBox="0 0 216 216" enable-background="new 0 0 216 216" xml:space="preserve">
<circle fill="#51AF30" cx="108" cy="108" r="108"/>
<path fill="#FFFFFF" d="M202.301,129.025 M18.974,100.102c0.098,8.349,0.199,16.704,0.287,25.052c0.026,2.65,0.006,2.65-2.689,2.65
	c-2.116,0-4.233-0.039-6.345,0.019c-0.948,0.033-1.182-0.305-1.178-1.205c0.023-13.186,0.018-26.366,0.02-39.551
	c0-0.53-0.118-1.098,0.735-1.151c6.928-0.413,12.93,1.327,16.981,7.418c1.742,2.618,2.914,5.554,4.331,8.355
	c2.024,4.013,3.996,8.045,6.082,12.253c0.385-0.644,0.241-1.181,0.237-1.674c-0.043-8.239-0.079-16.483-0.179-24.728
	c-0.017-1.246,0.278-1.712,1.609-1.654c2.436,0.106,4.882,0.066,7.324,0.014c0.955-0.02,1.319,0.232,1.317,1.268
	c-0.034,13.129-0.019,26.261-0.022,39.386c0,0.568,0.172,1.277-0.792,1.251c-2.382-0.073-4.772,0.207-7.144-0.22
	c-4.57-0.828-7.738-3.597-9.857-7.538c-3.052-5.67-5.903-11.456-8.849-17.184c-0.494-0.958-1.026-1.896-1.542-2.845
	c-0.068-0.12-0.164-0.353-0.206-0.347C18.825,99.734,18.927,99.933,18.974,100.102 M52.698,106.938
	c-0.094-2.953,0.281-5.847,1.147-8.663c2.325-7.558,8.506-12.152,17.229-12.787c3.094-0.224,6.188-0.099,9.208,0.68
	c7.176,1.844,11.655,6.429,13.358,13.604c1.183,4.973,1.167,10.006-0.138,14.973c-2.036,7.759-7.816,12.701-15.79,13.644
	c-3.531,0.417-7.044,0.393-10.51-0.412c-7.888-1.833-12.929-7.414-14.149-15.525C52.786,110.621,52.645,108.785,52.698,106.938
	 M82.983,107.214c-0.115-2.48-0.256-5.135-1.278-7.638c-1.433-3.511-3.894-5.699-7.831-5.833c-3.759-0.128-6.598,1.55-8.058,4.954
	c-2.38,5.528-2.39,11.204,0.041,16.727c1.472,3.336,4.242,4.975,7.931,4.885c3.629-0.087,6.087-1.951,7.625-5.158
	C82.587,112.689,82.794,110.051,82.983,107.214 M174.234,101.016c0,4.062,0.12,8.131-0.025,12.194
	c-0.32,8.6-5.229,13.938-13.798,15.124c-4.283,0.587-8.556,0.473-12.689-0.945c-6.108-2.097-9.81-7.112-9.926-13.829
	c-0.15-8.781-0.055-17.565-0.109-26.35c0-0.961,0.339-1.164,1.215-1.151c2.873,0.05,5.751,0.073,8.617-0.005
	c1.148-0.032,1.455,0.314,1.45,1.444c-0.051,7.592-0.033,15.182-0.025,22.774c0.004,1.845,0.127,3.681,0.721,5.452
	c1.023,3.04,3.282,4.637,6.514,4.58c3.12-0.054,5.345-1.702,6.25-4.713c0.474-1.563,0.685-3.167,0.682-4.808
	c-0.015-7.756,0.017-15.511-0.033-23.26c-0.006-1.088,0.204-1.513,1.397-1.472c2.871,0.091,5.753,0.075,8.619,0.003
	c1.035-0.025,1.275,0.331,1.266,1.297c-0.048,4.554-0.021,9.109-0.021,13.667C174.305,101.015,174.269,101.015,174.234,101.016
	 M93.896,86.13c3.58,0,7.048,0.043,10.513-0.021c1.04-0.021,1.217,0.523,1.439,1.319c2.694,9.751,5.419,19.495,8.15,29.235
	c0.151,0.537,0.129,1.188,0.793,1.704c1.251-4.43,2.477-8.769,3.697-13.115c1.662-5.937,3.309-11.881,4.977-17.818
	c0.182-0.636,0.223-1.345,1.274-1.326c3.409,0.066,6.827,0.022,10.466,0.022c-1.139,3.368-2.225,6.577-3.299,9.792
	c-3.39,10.105-6.798,20.203-10.136,30.326c-0.429,1.304-1.032,1.739-2.401,1.703c-3.521-0.104-7.047-0.045-10.573-0.03
	c-0.739,0.009-1.303-0.006-1.609-0.933c-4.406-13.464-8.856-26.922-13.29-40.385C93.87,86.51,93.896,86.393,93.896,86.13
	 M205.597,97.272c-3.639-2.914-7.667-3.989-12.122-3.355c-1.472,0.208-2.874,0.688-3.695,2.085
	c-0.898,1.538-0.361,3.341,1.326,4.305c1.754,1,3.716,1.495,5.645,2.024c1.831,0.502,3.602,1.173,5.369,1.848
	c9.531,3.622,8.052,16.463,2.623,20.706c-5.541,4.332-16.382,5.09-22.345,1.315c-3.877-2.447-4.999-6.346-3.065-10.962
	c1.582,1.437,3.212,2.751,5.145,3.633c3.059,1.396,6.213,1.838,9.511,1.081c1.752-0.403,3.112-1.285,3.478-3.202
	c0.299-1.614-0.498-3.013-2.36-4.061c-2.243-1.264-4.77-1.749-7.187-2.528c-1.754-0.568-3.436-1.277-5.03-2.227
	c-6.783-3.997-6.628-14.914-0.462-19.019c5.947-3.956,12.497-4.509,19.156-2.454C206.276,87.911,207.865,92.639,205.597,97.272"/>
</svg>
