<?xml version="1.0" encoding="utf-8"?>
<!DOCTYPE svg PUBLIC "-//W3C//DTD SVG 1.1//EN" "http://www.w3.org/Graphics/SVG/1.1/DTD/svg11.dtd">
<svg version="1.1" id="Layer_1" xmlns="http://www.w3.org/2000/svg" xmlns:xlink="http://www.w3.org/1999/xlink" x="0px" y="0px" width="216px" height="216px" viewBox="0 0 216 216" enable-background="new 0 0 216 216" xml:space="preserve">
<path fill-rule="evenodd" clip-rule="evenodd" fill="#FFFFFF" d="M130.023,191.881H0.668v-85.976
	c0-47.298,38.678-85.977,85.977-85.977H216l0.665,83.638c0.187,23.385-8.681,45.16-24.685,61.813
	C175.229,181.49,153.569,191.881,130.023,191.881z"/>
<path fill-rule="evenodd" clip-rule="evenodd" fill="#00A6A6" d="M175.523,171.12c20.33-14.593,33.641-38.424,33.641-65.215V25.671
	H86.977c-44.129,0-80.234,36.105-80.234,80.234v65.215H175.523z"/>
<path fill-rule="evenodd" clip-rule="evenodd" fill="#EC3424" d="M6.742,186.139H128.93c17.338,0,33.436-5.574,46.594-15.019H6.742
	V186.139z"/>
<path fill-rule="evenodd" clip-rule="evenodd" fill="#FFFFFF" d="M78.879,142.502c-6.222-0.105-13.627-7.355-14.839-11.204
	L47.935,80.162c-1.45-4.602-2.395-13.247,5.217-13.247c5.074,0,9.132,3.092,10.232,6.652c4.993,16.152,9.985,32.304,14.979,48.456
	c1.239,4.938,2.742,4.872,4.509-0.197L97.369,83.54c1.231-3.252,5.879-5.958,10.264-5.958c4.432,0,9.029,3.923,10.281,7.144
	l15.342,39.465c0.508,2.206,2.497,1.942,3.301-0.198l15.501-49.635c0.753-2.412,4.241-9.98,10.825-7.343
	c6.957,2.787,6.164,7.93,5.336,10.608l-16.604,53.676c-0.872,2.821-5.581,10.841-16.533,11.401
	c-10.971,0.563-15.553-7.643-17.211-11.697l-9.517-23.281c-1.255-2.896-1.522-2.88-2.728,0.198l-8.155,23.379
	C96.45,134.229,90.571,142.699,78.879,142.502z"/>
</svg>
