<?xml version="1.0" encoding="utf-8"?>
<!DOCTYPE svg PUBLIC "-//W3C//DTD SVG 1.1//EN" "http://www.w3.org/Graphics/SVG/1.1/DTD/svg11.dtd">
<svg version="1.1" id="Layer_1" xmlns="http://www.w3.org/2000/svg" xmlns:xlink="http://www.w3.org/1999/xlink" x="0px" y="0px" width="216px" height="216px" viewBox="0 0 216 216" enable-background="new 0 0 216 216" xml:space="preserve">
<g>
	<path fill="#003671" d="M207.364,168.242v17.73c-9.847,4.932-19.207,7.396-28.564,7.396c-25.853,0-41.37-15.273-41.37-34.485
		c0-20.697,17.731-37.935,40.385-37.935c5.661,0,9.848,0.979,14.282,2.466c3.203,0.98,5.171,2.212,7.14,2.212
		c1.728,0,2.22-2.957,2.466-4.678h2.466l2.216,23.891h-2.958c-1.235-4.679-3.443-8.622-6.407-11.33
		c-4.675-4.677-11.08-7.143-18.465-7.143c-15.515,0-24.627,12.318-24.627,30.792c0,18.227,11.082,30.795,25.856,30.795
		c4.438,0,8.374-0.989,13.301-3.204v-18.236c0-5.911-0.987-8.126-9.358-8.126v-2.704H215v2.704
		C207.125,158.388,207.364,160.849,207.364,168.242 M121.423,139.176v52.961h-4.187l-52.952-54.688
		c0.246,1.478,0.246,2.713,0.246,4.188v33.256c0,10.34,0,14.04,9.362,14.04v2.704h-24.87v-2.704c9.353,0,9.353-4.43,9.353-14.04
		V136.96c0-5.667,0-11.825-9.847-11.825v-2.707h23.396l43.588,44.825c-0.247-1.226-0.247-1.968-0.247-3.689v-24.388
		c0-9.854,0.247-14.041-9.114-14.041v-2.707h24.876v2.707C121.915,125.135,121.423,129.076,121.423,139.176 M1,191.637v-2.704
		c5.914,0,10.095-0.492,10.095-9.114V134.25c0-8.87-3.201-9.115-10.095-9.115v-2.707h34.972v2.707
		c-7.142,0-10.099,0.245-10.099,9.115v45.568c0,8.622,3.694,9.114,10.099,9.114v2.704H1z"/>
	<path fill="#EB6606" d="M86.028,54.292v-1.38H83.5l-0.225,0.458L86.028,54.292z M73.178,52.911c-0.686-0.687-1.6,0-2.749-0.23
		c0,0.231-0.229,0.92,0.458,1.375c0.92-0.687,2.057-1.143,2.292-1.143 M89.005,39.833c0,0,0.458,0,0-0.231l-5.277-0.458
		c-0.688,0.458-1.605,0.458-1.833,1.15l-0.459,0.229c0.459,1.838,0.459,3.9,0.459,5.961c0.917,0.231,2.062,0.921,2.062,2.297
		c0.92,0.459,2.071,0.685,2.754,1.375c0.459-0.228,0.919-0.916,1.147-1.604c-1.147-1.148-3.213-0.459-3.213-2.522l-1.369-0.688
		c0-1.385,0-2.757-0.463-3.675l0.463-0.458c0,0.458,0.225,0.687,0.682,1.151c0.92,0,2.071,0.226,2.754-0.464
		c0.459-0.229,0.459-1.374,1.147-1.374C88.088,40.524,88.775,40.524,89.005,39.833 M75.015,40.294c0-0.461-0.459-0.919-1.148-1.15
		h-5.733c0,0.689,0.689,1.38,1.377,1.38c0,0.687,0.69,1.145,1.147,1.374c0.458,0.464,0.921,0.464,1.607,0
		c0.679,0.464,0.914-0.687,1.146,0c0,1.377,0,2.062-0.231,3.213c-0.235,1.605-1.833,1.375-2.749,2.296
		c-0.229,0.454-0.919,1.835-0.229,2.522c0.686-0.461,1.377-0.687,2.292-1.146c0-0.687,0.917-1.376,1.83-2.066
		C74.322,44.652,75.015,42.587,75.015,40.294 M77.08,34.789c-0.686-0.463-2.065,0.227-2.757,0.688
		c-0.913,0.228-1.83,0.914-1.83,1.605h2.751C75.699,36.39,76.394,35.477,77.08,34.789 M85.105,37.082
		c0-0.692-0.228-0.692-0.461-0.915c-1.144,0-1.144-1.842-2.06-1.378c-0.69,0-1.149-0.463-1.602,0c-0.235,0.227,0,0.227,0.228,0.227
		c1.374,0,0.684,1.835,1.602,2.066H85.105z M93.132,35.705c0.464-1.379,0.696-3.441-0.229-4.815
		c-0.686-0.687-1.835-1.377-2.982-2.066l-1.833,0.689c-0.917,0.69-1.377,1.377-1.377,2.752c1.608,0.69,3.443,2.525,4.129,4.126
		h0.687C92.217,35.705,92.903,36.39,93.132,35.705 M71.807,32.264c-0.229-2.295-2.984-2.752-4.356-3.441h-0.689
		c-2.065,0.458-2.526,2.52-2.755,4.13c0.69,2.063,2.063,0.686,3.208,2.063C68.133,34.325,70.657,32.722,71.807,32.264
		 M43.595,102.469c-0.229,0-0.921-0.689-1.602-0.689c-0.696,1.374,0,2.526,0,4.125c0,0.464-0.231,1.389-0.231,1.389
		c-0.464,0-1.38-1.158-1.836-1.842v-3.898l2.292-2.756C43.595,99.711,44.053,101.092,43.595,102.469 M50.016,99.711
		c0,1.144-0.229,2.068-0.917,2.757c-0.229-0.916-0.916-2.066-2.065-2.066c-0.914,1.83-1.147,2.518-0.229,5.502
		c-0.685,0.464-1.377,0.697-2.066,1.389c-0.455-1.158-0.686-2.763-0.686-3.678c0-1.606,0.455-3.213,0.914-4.59
		c0.461-0.911,1.154-2.063,1.839-2.757l2.526-0.223c-0.917,0.223-0.917,1.378-0.917,2.069C48.87,98.337,50.016,98.563,50.016,99.711
		 M58.272,101.092c0,2.062-2.982,4.813-2.982,4.813c0-1.374,0.46-2.751,0.689-4.125c0,0-0.917-0.924-2.063-0.924
		c-0.688,0.237-0.688,0.924-0.917,1.614c-0.689,1.377-2.066,2.744-2.52,4.133c-0.226,0-0.226-0.233-0.226-0.233
		c0-2.063,0.226-6.429,1.828-8.031c1.38-1.375,2.062-1.375,3.438-1.608l1.381,0.233l-0.921,1.375
		C56.9,98.795,58.272,99.711,58.272,101.092 M97.035,101.779l-0.685,0.689c-0.689-0.689-0.237-2.757-1.38-2.987
		c-1.143,0-2.067-1.144-2.523-1.367l0.685-0.464c0,0,0.696-0.227,1.149,0c0.461,0.464,0.917,0.688,0.917,1.375
		c0.463,0.456,1.152,0,1.607,0.456C97.035,100.171,97.263,101.092,97.035,101.779 M105.294,98.337
		c-0.233,0.688-0.461,1.833-0.691,2.754c-0.685-1.38-1.147-3.442-2.752-3.442c-0.229-0.921-0.457-1.605-1.377-2.07l-2.062-0.228
		c0.229,0.693,1.605,0.916,0.921,2.298c0.684,0.688,1.6,0.688,2.061,1.832c0.457,0.689,0,1.61,0.228,2.298l-1.605,0.689
		c0-1.377,0.457-3.443-1.377-4.131c-1.377,0.458-1.605-1.375-2.526-2.069c-0.453-0.223-0.453-1.374-1.144-0.688
		c-1.143,0.688-2.754,0-3.902,0.688l1.147-2.062c0.916-0.688,2.065-0.231,2.982-0.688l1.837-0.23c2.066,0,3.67,0.917,5.508,1.605
		c0.914,0.686,1.375,1.374,1.375,2.529C104.603,97.65,105.525,97.65,105.294,98.337 M142.439,98.114
		c-0.459,0.681-0.669,0.911-0.907,1.367c0-1.144-1.38-1.832-2.288-3.902l0.908-1.605c0.926,0.231,1.618,0.919,1.618,2.07
		c0,0.223-0.238,0.917,0,1.38C141.771,97.65,142.439,97.65,142.439,98.114 M64.924,98.795l-0.69,2.296l-1.602-4.129
		c-2.064-2.068-4.126-2.298-5.507-2.988c-0.686-0.456-0.686,0.231-1.374,0c0-0.686,0.229-1.374,0.918-2.062h1.375l1.374,0.688
		c0.919,0.688,2.524,0.688,2.524,2.063c0,0.463-0.226,0.688,0.233,1.381l2.521,0.917L64.924,98.795z M135.108,96.268
		c0,0.233-0.457,0.694-0.457,0.694c-1.14-0.694-2.059-1.146-3.441-1.146c0-0.689-0.456-1.842-0.915-1.842
		c-1.605,0-1.379,0.691-2.521,0.691l2.068-2.065c0.22-0.457,0.453-0.457,0.912-0.457c0.685,0.457,0.912,0.686,1.605,0.686
		c0,0.458,0,0.688-0.224,1.375c0.457,0.458,1.141,0,1.599,0.458C134.424,94.894,135.108,95.352,135.108,96.268 M108.043,97.65
		h-0.225c-0.461-0.688-0.685-1.382-1.148-1.382c0.688-2.75-0.688-4.816-1.145-7.11l-0.231-0.683c0.911,1.145,2.749,2.29,2.524,3.67
		C108.043,94.206,108.278,96.045,108.043,97.65 M68.592,95.352l-1.604,1.61c-0.455-0.694,0-2.068-0.919-2.756
		c0-0.231,0.689-0.688,0.464-0.917c-0.464-0.458-3.213-1.375-3.213-1.375c-1.146-0.689-2.066-1.38-2.984-2.522
		c-1.145-0.233-1.832,0.461-2.982,0.686c-0.228-0.225-0.228-0.686-0.228-0.686c0.691-0.693,0.691-2.063,2.066-2.063
		c0.688,0,1.606,0,2.29,0.683c0.921,0,1.382,0.924,2.062,1.147c1.153,1.376,2.07,1.606,2.991,2.294
		c-0.236,0.692,0.225,1.149,0.68,1.378c1.38,0,0.917,1.375,1.38,2.521 M144.059,91.684c0,1.378,0,1.835-0.688,2.98l-1.601-2.063
		c0.669-0.688,0.669-1.837,1.37-2.749c0.23,0,0.918,1.6,0.918,1.83 M103.231,93.289c-1.147-0.688-2.526-0.688-3.214-1.836
		c-0.684-0.228-1.605-0.228-2.754-0.228c-0.912,0.228-2.064,0.228-2.982,0.228c-0.229,0,0-0.228-0.453-0.688
		c-1.38,0.688-2.989,0.688-4.366,2.066l1.149-2.754c0.916,0,1.605-0.686,2.292-0.686c0.693-0.233,1.609-0.233,2.295-0.233v0.233
		c2.757,0,5.735-0.233,7.801,2.062L103.231,93.289z M137.64,91.224c0,0.92-0.229,1.144-0.456,2.294
		c-1.844-0.23-1.606-2.066-2.075-2.294c-0.917-1.372-2.749-0.46-4.126-0.46c-0.229-1.374,0.456-1.374,0.456-2.066
		c0.697,0,1.382-0.688,2.073-0.223c1.14-0.464,1.828,0.683,2.979,0.683C136.946,89.852,137.411,90.764,137.64,91.224 M69.74,87.786
		c0,0.689-0.231,3.667-0.231,3.667c-0.458-1.833-1.605-3.442-2.974-3.442c-0.92-0.683-1.61-1.374-1.838-2.062
		c-0.691-0.688-1.375-0.231-2.293-0.688c-0.921,0-2.066,0-3.211,0.456v-0.456l1.606-2.07c1.833,0.459,3.898,0,4.587,1.377
		c0.913,0.693,2.065,1.149,2.518,1.832v0.695C68.366,87.329,69.283,87.558,69.74,87.786 M79.832,87.329
		c-0.919,0.681-1.838,0.681-2.754,0.457l-1.379-2.068c0.916,0.231,2.295,0.231,3.447,0L79.832,87.329z M119.98,88.475
		c0,1.145-1.615,2.75-2.063,3.67c0.448-1.38,0.682-3.67,0-3.67c-0.465-0.233-1.391,0.223-1.391-0.464
		c0-0.683,0.234-1.61,0.234-2.293c0-0.685-0.688-1.149-0.688-1.83c0-1.382,1.605-1.61,2.068-2.53
		c0.458,0.919,0.225,2.065,0.225,2.982c0.233,0.693,0.688,2.06,0.233,3.218C118.599,88.242,119.98,87.786,119.98,88.475
		 M102.543,88.475c-1.149,0-2.07,0-2.754-1.147c-0.233,0-0.688-0.691-1.149-0.233c-0.916,0.916-2.29-0.695-3.67-0.458
		c-0.689,0.691-1.61,1.149-2.523,1.374l-0.231-0.225c0-0.691,0.688-1.386,1.38-2.067c1.602,0.681,2.754-2.527,4.359-0.686
		c0.456,0.229,1.377,0.229,1.833,0.229C101.394,85.717,101.851,87.328,102.543,88.475 M86.254,87.095h-0.226
		c-0.463,0-2.071-0.695-2.528-1.377c-0.227-0.456-0.227-1.149-0.227-1.149c0.683,0,1.147-0.229,1.832-0.229L86.254,87.095z
		 M138.323,88.475c-1.606,0-0.684-3.213-4.132-3.213c-0.915,0-1.371,1.139-2.289,1.375c0-0.236,0.233-1.604,0.233-1.604
		c0-0.693,0.224-1.382,1.141-2.066c1.832,0,1.375,0.685,2.753,1.145c0.917,0.229,1.382,0.922,2.294,0.922V88.475z M114.237,85.949
		c0,1.38-0.686,2.749-0.921,4.128c0-1.602-0.451-2.749-1.372-3.677c0-0.451,0.688-0.683,0.232-1.139c0,0-1.38-0.693-1.38-1.61
		c0-1.146,0.92-1.838,1.38-2.528c0-0.223,0.912,0.468,0.912,1.843c0,0.457,0,0.921-0.224,1.604
		C112.632,85.261,114.237,85.261,114.237,85.949 M125.479,81.358c0,0.919-0.461,1.608-0.225,2.53
		c-0.693-1.382-1.39-2.765-2.069-4.135c-0.231,0-0.455,0-0.455-0.229l0.675-0.458c0.46,0,1.156,0,1.156,0.458
		C125.018,79.986,125.479,80.669,125.479,81.358 M139.471,83.191c-0.697-0.225-2.287-0.461-2.287-1.142
		c0-0.926-0.467-1.149-1.606-1.149c-1.153,0-1.843,0.223-3.218,0.69c0,0-0.693-0.922-0.921-1.838
		c0.464-0.229,2.296-0.923,3.213-0.923c1.616,0,3.439,0,3.439,0.923C138.091,80.44,139.471,80.9,139.471,83.191 M79.369,78.379
		c-0.223,1.374-0.914,1.83-2.061,3.433c-0.915,0.465-2.293,0.693-3.67,1.379c0.229-0.686,0.918-0.914,1.377-1.601
		c0.685-0.69,1.379-1.838,1.601-2.761C77.772,78.379,78.457,78.379,79.369,78.379 M122.042,81.591c0,1.375-0.234,3.214-0.234,4.809
		c-0.685,0-0.685-0.683-0.685-1.367c-0.459-1.382-0.688-2.755-1.143-4.132c-0.694-2.07-1.84-3.668-2.756-5.74
		c-0.231-1.145-1.386-1.606-2.296-2.293c1.144,0,2.296,0.229,3.212,0.921c0,0.688,0.225,0.917,0.912,1.608
		c1.611,0,1.383,2.059,2.755,3.21c0,0.223-0.451,0.223-0.685,0.693c-0.459,0-0.688,0.909-0.688,0.909
		C121.123,80.669,121.808,80.9,122.042,81.591 M75.015,76.313c-0.692,1.379-1.377,2.754-2.752,3.44c-0.917,0-2.062,0.456-3.44,0
		c0.686-0.686,1.378-0.923,2.292-1.374l2.064-2.067H75.015z M88.775,79.753c-0.688,0.456-2.064,0.688-2.747,0.688
		c-1.842-0.916-1.842-2.749-3.443-3.438c-0.233-0.233-0.461-0.691-0.461-0.917l3.905,0.685c-0.233,0.686,0.226,0.922,0.683,0.922
		C87.4,78.379,88.088,79.067,88.775,79.753 M115.839,79.753c-0.223,0.456-0.688,0.688-0.91,0.688c0,0-1.151-1.141-1.377-2.061
		c-0.235-1.147,0.458-2.754,0.458-2.754c0.228,0,0.456,0.459,0.919,0.459c0.223,0.228,0,0.917,0.223,1.607
		C115.616,78.379,116.304,79.067,115.839,79.753 M68.592,75.625l-1.142,3.442c-1.152,1.142-2.754,0.686-4.129,0.686
		c2.064-0.686,3.438-2.751,4.129-4.128C67.903,75.396,68.131,75.625,68.592,75.625 M97.035,78.379h-0.685
		c-2.754,0.688-4.824-0.924-6.889-2.295c1.377-0.459,2.526-0.459,3.441-0.688h0.693l0.916,1.373
		C95.198,77.002,96.351,77.691,97.035,78.379 M141.532,78.148c-1.595,0-3.209-0.693-3.441-1.379
		c-0.451-0.458-0.224-1.373-1.145-1.373c-0.679,0-1.144,0.688-1.144,0.688c-0.694,0.228-2.068-0.688-2.068,0
		c0,1.147-1.142,1.607-2.068,1.607c-0.684,0-0.912,0-1.604-0.236v-2.294c3.215,0,2.985-1.145,4.362-1.145
		c0.916,0,1.605,0.691,2.522,0.691c1.145,0,0.465-0.456,1.609-0.456c1.153,0,1.597,0.909,2.522,1.145
		C141.078,76.084,141.532,77.002,141.532,78.148 M65.385,72.64c0,0.915-0.689,2.296-1.842,3.445
		c-0.223,0.228-0.912,0.685-0.912,0.685c0-1.373,0.689-2.753,0.689-3.902C64.006,72.64,64.696,72.178,65.385,72.64 M101.168,75.625
		c-1.151,0-2.756,0-3.668-0.691c-1.386-0.917-1.838-1.379-2.528-2.066c0.922-0.689,2.063-0.689,2.752-0.914
		C98.412,72.867,99.556,74.706,101.168,75.625 M112.632,74.476c0,0.685-0.455,0.92-0.915,1.377c0,0-0.92-1.146-0.92-1.837
		c0-0.689,0-1.376,0.23-2.063C111.717,72.64,112.632,73.555,112.632,74.476 M123.185,74.936c-2.062-1.381-3.438-3.445-5.268-5.503
		c1.83,0,2.519,1.829,3.891,2.058c0.464,0.463,0.922,0.688,1.377,1.377V74.936z M80.519,69.199c0,1.608-0.231,3.668-1.829,4.355
		l-0.696-2.294C78.913,70.81,79.604,70.118,80.519,69.199 M75.475,72.867c-1.379-1.377-2.531-2.749-2.531-4.123
		c0.694,0,1.379,0,2.071,0.688C75.015,70.578,75.699,71.49,75.475,72.867 M141.078,72.64c-2.066-0.918-5.049-1.83-6.654-1.83
		c-0.914,0-3.67,1.144-4.813,2.286l-0.457-2.286c1.601-0.231,1.601-1.377,2.513-1.377c0.693,0,1.61-0.234,2.307-0.234
		c0.679,0,1.136-0.686,1.604-0.686c0.914,0,0.452,1.374,1.369,1.374c0.693,0,0.921-0.453,1.609-0.453
		C139.709,69.432,140.849,71.261,141.078,72.64 M85.795,72.867c-1.151-0.689-3.21-0.914-2.983-2.289
		c0.688-1.146,1.374-1.38,1.832-2.066C84.877,70.118,85.105,71.49,85.795,72.867 M106.9,71.49l-1.147,0.463
		c-2.522,0-3.902-0.692-5.048-1.835c0.917,0,2.294-0.919,2.294-0.919C104.148,70.118,105.753,71.261,106.9,71.49 M62.175,69.199
		c-0.92,0.919-2.069,1.608-2.757,2.979c0-0.688-0.225-1.371-0.457-2.06c0.231-0.686,0.919-1.374,1.376-1.606
		C60.798,68.745,61.482,68.745,62.175,69.199 M91.527,71.953c-0.916,0.225-2.521,0.687-3.209-0.463
		c-1.379-2.058-0.461-4.127,0.23-5.726c0.458,1.372,0.689,2.748,0.914,4.121c0.235,0.924,1.606,1.375,2.065,2.066 M109.647,68.052
		c-0.917,0.46-2.747,0.693-4.122-0.23l1.832-1.144C108.043,67.363,108.965,67.822,109.647,68.052 M135.577,67.363
		c-1.386,0-1.843-0.227-2.984-0.227c-0.927,0-2.298,0.686-3.216,1.609c-0.461-0.693-0.224-1.382,0-2.066
		c0.685-0.693,1.833-1.605,2.982-1.605C133.973,65.073,135.577,66.447,135.577,67.363 M67.903,69.885
		c-1.605-0.453-3.207-1.833-3.898-3.207c-0.461-0.914-0.684-2.068-0.684-2.987c0.914,0.23,1.603,0.919,2.064,1.382v0.223
		C66.298,66.678,67.675,68.052,67.903,69.885 M70.885,65.985l-0.456,3.212c-0.921-1.376-1.607-2.751-1.837-4.588L70.885,65.985z
		 M94.512,68.745c-1.38,0.455-2.296-0.693-3.214-1.382c-0.688-1.377-0.688-2.753-1.144-3.672c1.144,0.919,2.978,0.919,2.749,2.987
		C92.903,67.363,93.828,68.052,94.512,68.745 M100.017,65.985c-1.377,0-2.982,0.693-3.667-0.689
		c0.455-0.223,0.912-0.912,1.605-1.375L100.017,65.985z M135.803,63.691c-1.611-0.455-2.756-0.916-4.137-0.916
		c-0.684,0-2.75,0.461-2.977,0.916c-0.695-0.689,0.464-2.745,1.372-3.207c0.921-0.458,1.604-0.228,2.074,0
		c0,1.377,1.599,0.69,2.516,1.144C135.108,62.313,135.577,63.001,135.803,63.691 M104.38,62.546c-0.461,0.69-1.149,0-1.61,0h-2.064
		c-0.231-0.684-0.46-0.917-0.688-1.372c1.151-0.229,1.833-0.69,2.526-0.229C103.231,61.628,103.456,62.546,104.38,62.546
		 M84.645,58.879c-0.223,1.377-0.688,3.667-2.06,4.357c0-0.69-0.69-1.375-1.149-2.062c-0.225,0,0,0.688-0.225,0.688
		c0,0.684-0.229,1.375-0.229,2.522c-0.694,0.226-1.612,0.689-2.524,0.226v-0.689c-0.463-0.685-0.463-1.375-0.463-2.059l-0.223-0.233
		c-0.463,0.233-0.463,0.917-0.463,1.373c-0.23,0.235-0.915,0.919-0.915,1.608c-0.694,0-1.379-0.226-2.071-0.689v-2.292
		c0-0.454,0-0.454-0.227-0.454l-1.152,1.372c-0.905-0.917-1.137-2.751-1.137-4.131c3.893-2.062,8.48-1.375,11.467-0.221
		C83.729,58.415,84.188,58.415,84.645,58.879 M102.543,57.041c-1.375,0-2.07-0.687-2.754-2.064c0-0.685-0.233-1.607,0-2.751
		c0.228,0.688,0.456,1.377,0.916,1.831c0.917-0.454,0.917,0.688,1.146,0.92C102.085,55.666,102.543,56.354,102.543,57.041
		 M97.5,45.795c0,0.237-0.464,2.065-0.464,2.065l-1.837,0.694l1.152-5.28C96.805,44.19,97.5,45.111,97.5,45.795 M61.027,41.898
		l-0.922,1.376c0.231,2.521-0.913,4.132-0.913,6.193l-1.148-3.672c0.228-1.143,0.461-2.062,1.148-3.208L61.027,41.898z
		 M97.035,56.354c-2.754-1.61-5.967-2.752-9.405-2.985c0,0.687,0,1.375-0.23,1.607c2.754,1.377,5.503,2.752,7.799,4.818v2.067
		c-2.296-2.296-5.045-4.821-8.261-5.508c-0.228,0.458-0.911,1.146-1.374,1.841c-1.608-1.154-3.442-2.07-5.501-2.529
		c-0.695,0-0.918-0.924-0.918-1.61l-0.233-1.143c1.151-0.231,2.07-1.149,2.298-2.293c0.225,0.229,0.684,0.229,1.141,0.229
		c0.461-0.229,0.461-0.69,0.461-1.38c0-1.372-2.979-1.372-4.355-1.372c-1.605,0-2.758-0.235-3.901,0.687
		c-0.458,0-0.233,0.685-0.233,1.147c0,0.228,0.692,0.689,0.692,0.689c0.685,0,0.917-0.461,1.38-0.461
		c-0.236,1.376,0.457,2.292,1.599,2.754l-0.222,2.063c-0.693,0.69-1.84,0.229-2.758,0.69c-1.377,0.688-2.75,1.375-4.128,2.062
		c-0.686-0.688-1.147-1.375-1.604-2.062c-2.294,0.688-3.669,2.062-5.962,3.441c-0.689,0.458-1.839,1.377-1.839,1.377
		c-0.228-0.228,0-0.918,0-1.605c2.062-2.066,4.818-2.754,7.112-4.137v-1.83c-0.919-0.231-1.833,0-2.98,0
		c-2.07,0.456-4.132,1.379-5.733,2.52c0-0.69-0.463-1.376,0.225-1.831c2.526-1.377,5.508-2.295,8.717-2.066v-0.916
		c-0.228-0.461-0.228-1.151-0.691-1.151c-1.37-1.607-2.746-3.436-2.746-5.044l0.685-0.464c-0.456-1.372-0.685-4.815,0-6.418
		c-1.374-0.459-2.749-1.837-3.206-2.752c-0.461-1.151-0.922-1.837-1.148-3.213c0.459-1.374,1.148-2.064,1.828-3.441
		c0.463,0,1.153-0.229,1.38-0.691c1.146-0.228,2.065-1.376,3.442-0.687c0.917,0,1.834,0.459,2.521,0.687
		c0,0.462,0,0.691,0.691,1.149c1.365,0.229,1.365,1.608,2.06,2.749c0.685,0.233,1.377,0.233,2.062,0.233
		c1.38,0.457,2.296,0.457,2.991,1.147c1.829-1.147,3.895-1.381,5.955-1.147c0.233-0.917,0.694-1.608,0.921-2.753
		c0.463,0.458,0.23-0.229,0.689-0.229c1.146-0.687,2.293-1.836,3.9-1.377c1.144,0.69,2.749,0.228,3.442,1.606
		c0.916,0.689,1.375,2.066,2.065,3.441c-0.689,1.375,0,3.441-1.38,4.126l-1.377,1.382c-0.456,0-0.686,0.454-1.376,0.454
		c0.69,1.608,0.231,4.136-0.458,5.734c0.458-0.226,1.149-0.226,1.379-0.913c0.229,0.229,0,0.688,0,0.913
		c-0.23,0.464-0.23,0.693-0.23,0.693c0.23,1.38-0.69,2.521-1.605,3.443c-0.458,1.372-1.607,3.21-3.212,3.438v0.69
		c3.44,0,6.427,0.688,9.635,2.519V56.354z M148.638,41.21c-0.689-0.687-1.374-1.377-2.291-1.377
		c-0.683-0.918-1.594-2.062-2.526-2.062c0.694-0.23,1.61-0.69,2.756-0.69c0.688,1.144,1.372,2.062,1.605,2.751L148.638,41.21z
		 M60.568,38.459l-1.607,0.685l0.231-1.372c0.457-0.69,0.688-1.382,1.376-2.066V38.459z M141.309,36.167c-0.917,0-1.6,0.223-2.535,0
		c-0.45-0.462-1.134,0-1.59,0.223c-0.467,0-0.916-0.223-1.606-0.686c1.371,0,2.063-0.915,3.196-1.379
		C139.709,35.016,140.615,35.477,141.309,36.167 M90.612,102.469c0-0.916-0.691-1.377-1.607-1.377c-0.686,0-1.605,0.917-1.605,1.377
		c0,0.92-0.689,6.193-0.689,6.193h1.837C89.237,106.368,90.612,103.615,90.612,102.469 M85.339,102.232h-0.233l-1.83-1.83h-0.234
		c-0.456,0.453-0.689,1.151-1.146,1.83c0,2.073,0.69,4.371,1.146,6.43h2.064C85.105,106.368,85.339,104.306,85.339,102.232
		 M122.271,99.481l-2.289,0.23c0.685,0.691,0.685,1.608,0.685,2.068c0,0.689-0.231,1.374-0.685,1.836
		c-0.696-0.462-0.696-1.146-1.157-1.836c-0.46,0-0.685,1.141-0.685,1.609c0,2.292,0.912,3.904,1.606,5.273h2.297
		c-0.236-2.061-0.688-3.672-0.688-5.742C121.356,101.779,122.044,100.402,122.271,99.481 M174.104,77.455
		c0-9.633-3.206-19.956-11.929-28.672c-1.389-1.376-3.204-2.987-5.048-4.13c-3.441-2.291-6.643-5.508-8.489-8.948
		c-1.146-1.379-2.062-2.066-3.443-2.752c0.236,0.686,0.688,1.373,0.919,2.063h-0.231c-1.367,0-2.511-0.69-3.442-1.377l0.932-0.916
		c-0.231-0.458-0.932-0.458-1.391-0.458c-4.113-0.688-7.557,1.375-11.227,2.062v0.464c2.293,0.915,2.758,3.669,4.125,5.044h1.389
		c0.679,0,1.372,0.69,1.823,0.461c0-0.461-0.451-1.15-0.451-1.379c0.451-0.456,0.916-0.456,1.372,0
		c1.141,0.688,2.969-0.456,3.885,1.38c-1.364,0-2.744,0.229-3.885,0.685c0,0.23,0.697,0.918,0.459,1.382
		c-1.147-0.463-2.524,0-3.203-1.151l-0.238,0.458c1.61,1.606,3.68,2.983,5.741,3.675c3.204,0.688,5.954-0.92,8.94-0.233
		c3.443,1.605,6.189,3.672,8.485,5.967c7.57,8.029,10.329,16.512,10.329,24.083c0,9.409-2.759,16.063-6.886,20.191
		c-2.53,2.531-5.739,4.819-9.639,4.819c-0.913,0-2.755-0.231-3.898-1.146c0.684-2.757,1.144-5.737,1.144-10.091
		c0-2.535,0-9.182-3.206-16.983c-0.693-1.605-3.22-6.656-6.425-10.09c-2.524-2.526-5.507-4.821-8.479-4.821
		c-1.382,0-2.759,0.231-3.909,1.154c-1.142,1.141-1.832,2.979-1.599,4.351c-2.067,1.145-5.05,2.064-7.575,2.064
		c-2.979,0-6.188-1.606-8.946-3.435v-3.447c-1.604-0.688-2.062-1.375-2.288-2.752l0.227-0.233c0.686,0.233,1.152,0.69,1.605,0.923
		c-0.229-1.61-0.453-3.441-1.372-4.818c-0.691,0-1.378-0.229-2.071-0.69c-0.911-0.689-1.372-1.603-1.372-2.75
		c0.69,1.148,1.835,0.689,2.522,1.376c-1.15-2.75-0.688-4.13-2.754-8.488c-0.685-2.069-2.751-3.212-4.129-4.59
		c-0.685-0.689-0.917-1.379-2.062-1.379c-0.686-0.231-0.686-1.373-0.912-2.062c0.456,0,0.912,0.458,1.372,0.69
		c-1.147-3.442-2.293-6.886-5.512-8.95l-0.457,0.461c-1.376,0.223-2.749,0.223-3.898,0.223c0.458-0.685,1.375-0.912,2.293-1.37
		c-0.917-0.689-1.602-0.92-2.979-0.92c-0.461,0.23-1.608,0.92-2.524,0.92h-0.23c0-0.689-0.227-1.613,1.146-2.066
		c-1.372-0.234-2.522-0.234-4.126,0c-0.233,1.146-1.149,1.836-1.149,2.751c-0.688,0.685-0.917,1.375-1.602,2.064
		c0-1.603,0.685-2.979,0.914-4.362c-0.914,0.231-2.058,0.923-2.754,0.923c-1.835-0.923-4.128-2.067-5.051-2.067
		c1.379,1.144,0.694,2.756,0.923,4.126l-0.923-0.685c-0.451-0.915-1.365-1.605-1.828-2.751c-1.375,0-2.293,0.453-3.44,1.146
		l-0.225,0.23c0.916,0,1.833,0.69,2.29,1.375c-1.607,0-2.751-0.684-4.354-0.684c0,0,0-0.23-0.461-0.23
		c-0.689,0.23-1.38,0.915-1.838,1.376c-1.604,1.372-2.749,2.752-3.668,4.816c0.463,0,1.151,0,1.381,0.23
		c-0.693,0.457-1.381,1.377-2.293,1.831v3.447c-0.688,0.915-1.605,1.601-2.066,2.752c-1.148,4.127-1.377,8.491-1.377,13.306
		c-0.46,0.687-0.917,0.916-1.371,1.149v4.128c0,0,1.599-1.607,2.288-2.069c0,0.92-0.229,2.298-0.229,3.216
		c-0.689,0-1.606,0.923-1.606,1.835c0,0.918,0.229,1.839,0.229,2.754c0,0.451,0,0.684,0.229,1.142
		c0.231-0.458,0.688-1.142,1.149-1.375c0.229,0,0.688-0.454,1.376-0.454c-0.457,0.688-0.688,1.829-1.147,2.747L55.29,64.61
		c0,0-0.229,0.463-0.229,0.686c0.689,4.822,2.293,9.412,4.131,14.229c-1.608,3.206-3.213,6.653-3.902,9.173
		c-0.688,1.836-1.599,5.508-1.599,5.508c-1.147-1.144-2.759-1.375-4.136-1.375c-1.602,0.231-2.979,0.688-4.128,2.063
		c-1.374-0.688-3.21-0.459-4.128,0.686c-2.063,1.846-2.063,2.758-2.063,4.132c-0.69,0.691-1.607,1.842-1.607,3.442
		c0,2.298,0.461,3.666,1.607,5.509h36.463c-0.456-0.688-0.917-1.605-1.377-2.294c-0.685-1.378-0.225-3.215-0.225-4.589
		c0.684-1.377,1.602-2.754,2.296-4.129c0.222-0.688,0-0.688,0.458-0.921l1.605-0.684c0.912,0,1.607-0.465,2.754-0.465
		c0.913,1.149,0.913-0.916,2.064-1.374c2.753-0.231,5.044,0,6.421,2.062c0,0.461,0.458,0.461,0.458,0.694h-1.149
		c-1.375-0.694-3.21-1.383-4.817-0.694c0,0.694-0.231,0.694-0.231,1.382v1.147c0.92,0.228,1.608,0.914,2.526,1.605
		c0.456-0.921,1.836-1.605,2.98-1.605c1.149,0,2.984,0.684,2.984,2.756c0,0.916-0.231,1.835-0.231,2.752
		c0.916,0.685,2.296,0.907,3.445,1.599c-0.461,0.697-1.149,0.697-1.833,0.697h-2.069c-0.231-0.233-0.69-0.233-0.69-0.697
		c-0.688,0.697-1.147,1.84-1.605,2.758h27.989c-0.459-0.918-0.926-1.605-1.148-2.294c-0.688-1.378-0.465-3.215-0.688-4.589
		l2.749-3.665c1.382,0,2.758-0.464,5.278-0.689c0.453-0.696,0-1.157,2.059-1.38c1.833,0,2.987,0.684,3.451,0.917
		c0.224,0.463,0.224,0.463,0,0.92c-0.464,0.455-1.378-0.458-2.068-0.233c-0.457,0.464,0.23,0.688,0.23,1.147
		c0.46,0.456-2.062-0.46-2.062-0.46s-0.693,1.374-0.921,2.065c0,0,1.146,0.689,1.369,1.377c0.465,0.689-0.448,1.374-0.448,2.066
		c-0.693-0.23-1.39-0.926-1.61-0.692c-0.459,1.837,0,3.448-0.238,5.509h2.53l0.459-4.132c0.233-2.298,2.982-6.647,4.588-6.647
		c1.153,0,1.61,0.455,2.529,1.143c0.68,0.686,1.597,1.377,1.597,1.83c0,0.237-0.685,0.698-1.83,0.698
		c-0.458,0-0.686-0.698-1.143-1.151l-1.382,1.377c0,0,1.605,1.374,1.605,2.526c0,0.907-0.224,1.599-1.149,2.063l-1.368-2.753
		c-0.688,0-1.848,1.375-1.848,2.289c0,0.915-0.457,1.389-0.457,2.758h14.902c1.619,0,2.991-0.466,4.601-1.369h2.979
		c4.136,0,9.41-0.691,14.906-5.974C173.644,93.062,174.104,81.813,174.104,77.455 M81.211,108.662
		c-1.147-2.294-1.377-5.509-1.377-6.193c0-1.377,0-2.987,0.685-4.131l-2.746,0.688c-0.464,0.686-0.693,1.377-0.693,1.83l0.915-0.453
		c0.463,0,0.696,0.453,0.919,0.689c-0.223,1.377-1.605,1.377-2.298,1.828c-0.683,2.293,1.38,3.682,1.842,5.742H81.211z"/>
</g>

</svg>
