<?xml version="1.0" encoding="utf-8"?>
<!DOCTYPE svg PUBLIC "-//W3C//DTD SVG 1.1//EN" "http://www.w3.org/Graphics/SVG/1.1/DTD/svg11.dtd">
<svg version="1.1" id="Layer_1" xmlns="http://www.w3.org/2000/svg" xmlns:xlink="http://www.w3.org/1999/xlink" x="0px" y="0px" width="216px" height="216px" viewBox="0 0 216 216" enable-background="new 0 0 216 216" xml:space="preserve">
<rect x="0.333" fill="#889840" width="215.667" height="216"/>
<path fill="#FFFFFF" d="M98.476,131.483c-16.715-4.777-28.956-20.173-28.956-38.42c0-2.999,0.33-5.919,0.956-8.728l0.157,0.017
	c15.62,1.473,27.84,14.118,27.84,30.765L98.476,131.483z M126.268,70.829c0.834,13.826-7.088,24.729-19.227,30.663
	c7.054,11.445,18.283,17.957,31.948,18.51c-8.346,9.164-20.479,13.923-32.829,12.879l0.01-31.885
	c0-12.979,7.13-25.304,20.096-30.167 M72.842,77.031c6.168-14.06,20.282-23.923,36.637-23.923
	c8.222-0.013,16.245,2.522,22.968,7.256c10.658,7.476,16.997,19.681,16.987,32.699c0.012,6.785-1.713,13.46-5.009,19.39
	c-10.765,1.021-21.128-3.117-26.385-8.948c13.747-9.351,17.504-26.405,14.831-42.835c-16.304,4.284-30.955,14.967-33.437,32.651
	C93.326,84.319,83.636,78.384,72.842,77.031 M53.733,93.063c-0.003-30.789,24.953-55.745,55.741-55.745s55.745,24.957,55.745,55.745
	c0,30.785-24.957,55.745-55.745,55.745S53.73,123.848,53.73,93.063 M109.475,45.624c-26.198,0-47.435,21.237-47.435,47.439
	c0,26.198,21.237,47.435,47.435,47.435c26.202,0,47.442-21.237,47.442-47.435C156.917,66.861,135.677,45.624,109.475,45.624"/>
<path fill="#FFFFFF" d="M183.781,176.637l-0.384,0.002h-2.703l-2.653-5.373h-3.21v5.373h-2.754v-13.498h7.358
	c2.238,0,4.053,1.814,4.054,4.054c0,0.003,0,0.007-0.001,0.011c0.001,1.691-1.047,3.206-2.632,3.802L183.781,176.637z
	 M174.831,165.502v3.598h4.085c0.995,0,1.802-0.805,1.802-1.799s-0.8-1.799-1.79-1.799H174.831z M65.507,168.944h5.073v2.321h-5.073
	v2.952h7.111v2.421h-9.863v-13.498h9.863v2.421h-7.111V168.944z M107.772,176.637l-0.382,0.002h-2.707l-2.652-5.373h-3.21v5.373
	h-2.752v-13.498h7.359c2.239,0.001,4.054,1.816,4.053,4.056c0,0.004,0,0.006,0,0.009c0,1.692-1.049,3.207-2.634,3.802
	L107.772,176.637z M98.821,165.502v3.6h4.087c0.993,0,1.799-0.807,1.799-1.801c0-0.996-0.796-1.799-1.788-1.799H98.821z
	 M112.594,169.882c0,2.52,1.982,4.56,4.42,4.56c2.416,0,4.4-2.04,4.4-4.56c0-2.501-1.964-4.542-4.4-4.542
	C114.576,165.34,112.594,167.381,112.594,169.882 M124.218,169.882c0,3.966-3.18,7.063-7.204,7.063
	c-4.084,0-7.223-3.058-7.223-7.024s3.178-7.081,7.223-7.081C121.06,162.84,124.218,165.933,124.218,169.882 M161.53,168.944h5.075
	v2.321h-5.077v2.952h7.113v2.421h-9.864v-13.498h9.864v2.421h-7.113L161.53,168.944z M151.728,171.266h-5.491v5.373h-2.755v-13.498
	h2.755v5.707h5.491v-5.707h2.751v13.498h-2.751V171.266z M78.287,166.711c0,0.841,0.171,1.068,3.125,1.75
	c1.744,0.41,2.564,0.693,3.287,1.167c1.058,0.726,1.608,1.737,1.608,2.992c0,2.722-2.137,4.321-5.456,4.321
	c-3.35,0-5.469-1.643-5.677-4.491h2.734c0.239,1.481,1.244,2.205,3.119,2.205c1.683,0,2.564-0.738,2.564-1.821
	c0-0.591-0.236-0.951-0.963-1.313c-0.367-0.152-0.745-0.278-1.129-0.377l-0.503-0.117l-0.276-0.058
	c-1.771-0.448-3.091-0.888-3.68-1.307c-0.93-0.616-1.411-1.57-1.411-2.755c0-2.504,2.037-4.067,5.066-4.067
	c2.968,0,4.832,1.42,5.081,3.989h-2.695c-0.288-1.199-1.074-1.724-2.522-1.724C79.049,165.105,78.287,165.748,78.287,166.711
	 M50.398,163.141l3.342,9.985l3.38-9.985h2.939l-4.884,13.498h-2.93l-4.824-13.498H50.398z M38.87,176.639v-5.201l-5.088-8.297
	h3.189l3.324,5.829l3.283-5.829h3.11l-5.065,8.315v5.183H38.87z M126.656,169.921c0-3.967,3.171-7.081,7.216-7.081
	c3.122,0,5.719,1.842,6.739,4.502l0.12,0.318h-3.021c-0.837-1.436-2.234-2.32-3.839-2.32c-2.438,0-4.421,2.041-4.421,4.542
	c0,2.499,1.984,4.56,4.421,4.56c1.604,0,3.002-0.884,3.839-2.319h3.021l-0.12,0.316c-1.021,2.662-3.618,4.504-6.739,4.504
	c-4.045,0-7.217-3.055-7.217-7.021"/>

</svg>
