<?xml version="1.0" encoding="utf-8"?>
<!DOCTYPE svg PUBLIC "-//W3C//DTD SVG 1.1//EN" "http://www.w3.org/Graphics/SVG/1.1/DTD/svg11.dtd">
<svg version="1.1" id="Layer_1" xmlns="http://www.w3.org/2000/svg" xmlns:xlink="http://www.w3.org/1999/xlink" x="0px" y="0px" width="216px" height="216px" viewBox="0 0 216 216" enable-background="new 0 0 216 216" xml:space="preserve">
<g>
	<circle fill="#EA5F00" cx="108" cy="108" r="108"/>
</g>
<g>
	<g>
		<path fill="#92D316" d="M62.453,71.353c0.893,16.59,11.418,30.864,26.229,37.111c1.608-10.349,6.245-19.626,13.024-26.946
			c-8.207-6.958-18.733-11.062-30.154-11.062C68.521,70.457,65.484,70.814,62.453,71.353"/>
		<path fill="#92D316" d="M93.321,122.559l2.854,1.427c1.606-4.104,3.567-8.208,5.709-12.133c1.428,0.179,2.676,0.179,4.104,0.179
			c23.376,0,42.465-18.021,43.537-40.678c-2.855-0.539-5.89-0.896-9.1-0.896c-23.553,0-43.002,17.486-46.035,40.148h0.177
			c9.101-13.205,21.592-23.197,35.866-28.548c0.356-0.181,0.534-0.181,0.892-0.36c-14.096,8.21-24.089,18.381-31.76,29.799
			C97.424,115.065,95.282,118.812,93.321,122.559"/>
	</g>
	<path fill="#FFFFFF" d="M105.989,16.394c-0.895,0.713-6.604,6.781-11.063,14.451c-3.035,5.354-4.996,10.349-6.423,15.702
		c-3.748-2.675-7.851-4.995-12.667-6.957c-8.207-3.389-16.593-4.639-17.664-4.639c-0.181,1.07-0.893,9.457,0.357,18.199
		c0.535,4.462,1.606,8.388,3.034,12.133c3.212-0.713,6.604-0.891,9.993-0.891c13.205,0,25.338,4.816,34.438,13.023
		c9.277-8.029,21.233-13.023,34.438-13.023c3.388,0,6.783,0.358,9.991,0.891c1.428-3.747,2.32-7.673,3.033-12.133
		c1.25-8.742,0.534-17.129,0.181-18.199c-1.071,0-9.456,1.25-17.665,4.639c-4.818,1.962-8.923,4.282-12.667,6.957
		c-1.247-5.172-3.212-10.347-6.424-15.702C112.59,23.175,106.881,17.107,105.989,16.394"/>
</g>
<g>
	<path fill="#FFFFFF" d="M111.127,143.973h-9.57v-7.2h9.063c3.979,0,5.08,1.525,5.08,3.643
		C115.787,142.785,114.008,143.973,111.127,143.973 M125.103,158.54l-8.3-9.062c4.149-1.61,7.453-4.236,7.453-9.063
		c0-6.097-4.402-9.315-11.009-9.315H91.649v0.171c0.678,0.082,1.439,2.03,1.439,4.487v20.412c0,2.458,3.135,4.488,5.082,4.488h5.083
		v-0.167c-0.932-0.086-1.78-1.018-1.78-2.626v-8.215h6.437c1.188,1.438,6.943,8.638,7.623,9.398c0,0,1.354,1.694,4.487,1.694h7.875
		v-0.252C127.136,160.487,126.033,159.387,125.103,158.54"/>
	<path fill="#FFFFFF" d="M147.632,131.099v0.17c0.424,0.084,1.101,1.948,1.101,4.489v14.058c0,3.39-2.793,4.744-6.69,4.744
		c-3.896,0-6.691-1.354-6.691-4.744v-14.058c0-2.54,0.765-4.405,1.103-4.489v-0.17h-12.025v0.17
		c1.101,0.084,1.946,1.524,1.946,4.489v12.449c0,7.114,3.897,13.129,15.67,13.129c11.771,0,15.668-6.015,15.668-13.129v-12.449
		c0-2.965,0.847-4.405,1.949-4.489v-0.17H147.632z"/>
	<path fill="#FFFFFF" d="M51.079,131.099v0.17c0.254,0,0.848,0.931,0.592,1.862c-0.168,0.679-1.27,2.711-1.693,3.896l-3.134,6.607
		l-4.743,9.909l-4.742-9.909l-3.134-6.607c-0.508-1.185-1.525-3.217-1.694-3.896c-0.254-0.93,0.339-1.862,0.593-1.862v-0.17H21.945
		v0.17c0.678,0,1.101,0.761,1.356,1.27c3.302,7.028,11.856,25.238,12.11,26.002c0.339,1.016,0.084,1.947-0.593,1.947v0.17h7.284
		h7.285v-0.17c-0.677-0.085-0.931-0.932-0.592-1.947c0.254-0.764,8.809-18.887,12.111-26.002c0.254-0.509,0.678-1.27,1.355-1.27
		v-0.17H51.079z"/>
	<path fill="#FFFFFF" d="M190.91,151.342c-0.422-11.688-22.273-6.776-22.36-11.604c-0.083-2.965,5.931-2.965,7.625-2.965
		c4.404,0,8.299,0.931,10.333,3.473l3.473-7.877l-0.254-0.085c-0.339,0.085-0.762,0.255-1.694,0.169
		c-1.438-0.084-7.029-1.778-13.467-1.778c-11.012,0-14.735,5.843-14.652,9.994c0.34,11.349,22.19,6.184,22.358,11.433
		c0.086,2.628-4.319,2.88-6.012,2.88c-4.489,0-10.759-1.27-12.958-2.711c-0.087,0-0.087-0.084-0.17-0.084l-0.17-0.169
		c-0.68-0.508-1.101-1.016-1.101-1.016l-2.118,7.624l0.255,0.083c0.507-0.253,1.101-0.253,1.863-0.168
		c0.508,0.085,8.13,2.456,14.65,2.456C186.762,161.166,191.081,156.592,190.91,151.342"/>
	<path fill="#FFFFFF" d="M72.422,148.123L72.422,148.123l-4.827-0.085l4.744-9.907l4.743,9.907L72.422,148.123z M93.003,160.487
		c-0.507,0-1.525-0.677-2.202-2.032c-3.387-7.199-10.842-23.207-11.518-24.901c-0.679-1.44-0.254-2.285,0.423-2.37v-0.169H65.055
		v0.169c0.677,0.085,1.101,0.93,0.423,2.37c-0.762,1.694-8.214,17.702-11.519,24.901c-0.592,1.355-1.609,2.032-2.203,2.032v0.17
		h9.91c0.847-1.949,2.371-5.167,2.795-6.014h0.168h7.708h0.084h7.707h0.169c0.422,0.845,1.95,4.064,2.794,6.014h9.909
		L93.003,160.487L93.003,160.487z"/>
</g>
</svg>
