<?xml version="1.0" encoding="utf-8"?>
<!DOCTYPE svg PUBLIC "-//W3C//DTD SVG 1.1//EN" "http://www.w3.org/Graphics/SVG/1.1/DTD/svg11.dtd">
<svg version="1.1" id="Layer_1" xmlns="http://www.w3.org/2000/svg" xmlns:xlink="http://www.w3.org/1999/xlink" x="0px" y="0px" width="216px" height="216px" viewBox="0 0 216 216" enable-background="new 0 0 216 216" xml:space="preserve">
<g>
	<path fill-rule="evenodd" clip-rule="evenodd" fill="#00AEEF" d="M100.75,113.658l6.341-16.978
		c-3.675,0.444-5.629,4.056-7.275,8.465C98.466,108.759,97.464,112.963,100.75,113.658L100.75,113.658z M120.896,63.04
		c7.095-0.614,13.872-0.852,20.313-0.781c-0.899,0.113-1.463,0.183-1.547,0.188c-1.017,0.067-1.76,0.252-2.228,0.555
		c-0.469,0.303-17.353,3.555-24.516,19.639l-4.371,9.816c-5.244,0.563-9.683,2.169-13.744,5.821
		c-1.796,1.615-2.786,3.845-3.753,6.435c-3.091,8.275,1.202,13.33,8.229,13.549l-5.567,11.674
		c-8.456,14.463-26.412,17.506-25.682,17.322c0.054-0.014-0.904,0.121-2.183,0.316c-14.286-0.924-27.101-3.209-37.459-6.234
		c-8.847-2.584-14.988-5.896-19.743-9.857c-6.113-5.092-9.196-11.605-6.983-18.678c2.075-6.633,7.763-13.059,16.161-18.985
		c-0.098,0.214-0.39,0.364-0.504,0.679l-5.472,15.166c-2.336,6.852,2.5,8.309,3.579,8.275c1.08-0.033,1.744-0.109,1.991-0.227
		c0.247-0.117,0.444-0.342,0.56-0.682l2.727-8.018l6.071-0.173l-3.52,9.15c2.745,0,5.351-0.018,6.432-0.051
		c1.08-0.033,1.743-0.109,1.99-0.227c0.248-0.117,0.437-0.344,0.56-0.682l8.724-24.011c-2.592,0-5.017,0.537-6.148,0.57
		c-1.13,0.034-2.439,0.803-2.712,0.921s-0.484,0.341-0.597,0.681l-2.699,8.088l-6.071,0.043l6.007-16.144
		C51.342,75.196,85.177,66.131,120.896,63.04L120.896,63.04z M49.388,114.316c-3.996,0-3.841-2.738-2.805-5.225l14.685-0.1
		c1.63-2.023,1.691-3.807,2.594-6.224c1.067-2.858,0.137-6.496-1.057-7.791c-1.194-1.294-3.081-2.549-6.182-2.549
		c-5.549,0-11.657,3.153-14.96,7.492c-1.447,1.9-1.852,2.345-3.08,5.41c-2.847,7.112,0.598,13.067,5.505,12.981
		c4.162-0.074,4.662-0.141,8.127-2.945c0.522-0.424,0.58-0.945,0.12-1.258C51.958,113.854,52.361,114.316,49.388,114.316
		L49.388,114.316z M47.814,103.849l7.495-0.114c0.636-0.769,0.634-1.689,0.922-2.637c0.479-1.574,0.359-3.584-1.735-3.623
		c-1.082-0.02-2.457,0.088-4.612,2.898C49.455,100.932,48.114,103.092,47.814,103.849L47.814,103.849z M73.953,113.398
		c0.648,0,1.295-0.184,1.941-0.551c0.646-0.367,1.349-1.135,2.107-2.297c0.758-1.164,1.578-2.924,2.458-5.282
		c0.857-2.296,1.394-4.01,1.608-5.143c0.215-1.133,0.148-1.883-0.201-2.25c-0.348-0.368-0.939-0.552-1.772-0.552
		c-0.694,0-1.382,0.2-2.063,0.598c-0.681,0.397-1.386,1.171-2.116,2.319c-0.729,1.148-1.512,2.839-2.346,5.075
		c-0.675,1.807-1.148,3.261-1.421,4.363c-0.273,1.104-0.368,1.914-0.285,2.434c0.083,0.521,0.313,0.865,0.69,1.033
		C72.932,113.314,73.398,113.398,73.953,113.398L73.953,113.398z M72.04,118.225c4.117,0,7.611-1.189,10.479-3.225
		c2.869-2.035,5.115-5.023,6.911-9.832c2.97-7.951-1.269-13.346-7.07-13.086c-9.205,0.412-13.871,4.445-17.449,12.804
		C62.479,110.566,62.271,118.225,72.04,118.225z"/>
	<path fill-rule="evenodd" clip-rule="evenodd" fill="#72BF44" d="M158.412,63.23c10.021,1.039,18.971,2.834,26.735,5.06
		c20.498,5.875,33.136,16.713,29.029,29.841c-1.852,5.918-6.341,11.629-12.944,16.943l6.521-22.228l-7.277,1.214
		c-0.4,0.066-0.704,0.05-0.896,0.151c-0.189,0.101-0.428,0.248-0.645,0.504c-1.773,2.08-10.091,13.136-10.111,12.918
		c-0.399-4.384,0.067-10.407-0.39-14.788l-6.549,1.214c-0.601,0.111-1.007,0.109-1.19,0.328c-0.183,0.218-0.274,0.328-0.274,0.328
		l-6.399,14.938c-0.691,3.887,0.102,7.869,2.724,7.93c1.004,0.021,1.648-0.006,1.934-0.09c0.286-0.084,0.465-0.229,0.541-0.43
		c2.239-5.852,2.436-6.514,4.631-12.364c-0.419,5.678-0.724,6.465-0.278,10.465l5.381-0.262c0.305-0.014,0.584-0.066,0.838-0.201
		c3.555-5.063,2.851-4.297,6.522-9.186c-2.373,5.262-3.953,11.271-5.854,16.832c-21.447,12.369-54.805,21.66-91.699,24.854
		c-6.3,0.543-12.479,0.803-18.479,0.816c3.566-1.244,13.12-5.57,19.547-13.977c0.343-0.447,4.848-7.279,5.192-8.107l3.241-7.775
		c8.641-0.508,14.857-4.543,17.449-13.425c2.126-7.281-0.361-11.39-7.835-12.378c6.63-24.95,27.396-28.564,35.673-28.883
		C155.399,63.549,157.027,63.443,158.412,63.23L158.412,63.23z M109.285,113.746c4.165-0.857,5.234-3.555,7.043-8.398
		c1.574-4.215,2.586-8.296-0.763-8.335L109.285,113.746L109.285,113.746z M133.121,118.051c3.291,0,8.088-0.1,11.234-1.16
		c0.617-1.246,1.568-3.244,2.271-4.994c0.704-1.748,1.593-3.667,2.081-5.728c0.859-3.623,5.991-14-5.38-14.043
		c-2.404-0.009-7.175,0.104-9.813,1.068c-0.505,0.186-0.751,0.749-0.947,1.271c-0.138,0.37-0.2,2.731-0.274,3.27
		c-0.073,0.538,0.036,0.295,0.241,0.834c1.637-0.26,0.837-0.304,2.325-0.739c1.774-0.519,3.003-0.718,4.629-0.718
		c3.393,0,3.018,2.222,2.801,2.725c-0.295,0.684-0.305,0.962-0.564,1.66c-1.859-0.057-3.027,0.03-4.542,0.03
		c-3.868,0-7.064,1.433-9.633,4.495c-0.916,1.093-1.694,2.497-2.334,4.211c-0.654,1.75-0.883,3.145-0.688,4.188
		c0.194,1.043,0.704,1.824,1.525,2.346c0.822,0.521,1.85,0.865,3.083,1.033C130.369,117.967,131.698,118.051,133.121,118.051
		L133.121,118.051z M135.021,113.746c0.961,0,1.589,0.084,2.468-0.385c0.706-1.439,1.263-2.975,1.823-4.475
		c0.343-0.917,0.657-1.758,0.943-2.526c-0.602-0.418-1.639-0.385-2.346-0.4c-2.032-0.043-3.789,1.61-4.646,3.658
		C132.395,111.697,132.421,113.746,135.021,113.746L135.021,113.746z M147.253,115.117c-1.636,4.408-2.2,11.514,4.931,10.402
		l2.658-8.23c1.473,0.672,2.744,0.936,4.316,0.936c6.239,0,10.626-3.703,13.292-9.054c2.59-5.197,6.731-16.916-6.453-16.916
		c-4.035,0-7.075,0.388-10.892,1.708L147.253,115.117L147.253,115.117z M164.813,107.749c2.152-3.934,4.085-12.14-2.51-10.521
		l-5.746,15.384c0.256,0.404,0.577,0.699,0.967,0.883C160.692,115.004,163.581,110,164.813,107.749z"/>
</g>
</svg>
