<?xml version="1.0" encoding="utf-8"?>
<!DOCTYPE svg PUBLIC "-//W3C//DTD SVG 1.1//EN" "http://www.w3.org/Graphics/SVG/1.1/DTD/svg11.dtd">
<svg version="1.1" id="Layer_1" xmlns="http://www.w3.org/2000/svg" xmlns:xlink="http://www.w3.org/1999/xlink" x="0px" y="0px" width="216px" height="216px" viewBox="0 0 216 216" enable-background="new 0 0 216 216" xml:space="preserve">
<g>
	<rect x="0.134" y="0.451" fill-rule="evenodd" clip-rule="evenodd" fill="#FFFFFF" width="216" height="216"/>
	<g>
		<polygon points="112.229,43.294 103.303,43.294 103.303,69.305 71.059,69.305 71.059,43.294 62.206,43.294 62.206,102.422 
			71.059,102.422 71.059,75.407 103.303,75.407 103.303,102.422 112.229,102.422 		"/>
		<rect x="27.134" y="43.294" width="8.837" height="59.128"/>
		<path d="M163.38,42.306c-20.091,0-32.336,14.66-32.336,30.73c0,17.59,13.222,30.367,32.517,30.367
			c9.551,0,16.965-3.658,20.986-4.816V73.971h-8.938v22.911c-2.498,1.704-6.687,3.043-11.42,3.043
			c-13.851,0-23.316-12.243-23.316-27.685c0-14.563,8.307-26.541,22.158-26.541c9.549,0,14.994,4.467,19.016,9.479h0.446V44.902
			C179.631,44.19,171.688,42.306,163.38,42.306z"/>
		<path d="M190.324,47.266c0.398,0,0.607-0.175,0.607-0.511v-0.015c0-0.368-0.225-0.497-0.607-0.497h-0.447v1.023H190.324
			L190.324,47.266z M189.109,45.651L189.109,45.651h1.23c0.815,0,1.342,0.336,1.342,1.055v0.017c0,0.527-0.303,0.814-0.719,0.943
			l0.927,1.486h-0.798l-0.848-1.359h-0.367v1.359h-0.768V45.651L189.109,45.651z M193.233,47.441c0,1.743-1.263,2.958-2.909,2.958
			c-1.631,0-2.91-1.184-2.91-2.941c0-1.742,1.215-2.973,2.91-2.973C192.018,44.485,193.233,45.699,193.233,47.441L193.233,47.441
			L193.233,47.441z M186.774,47.458L186.774,47.458c0-1.966,1.567-3.549,3.55-3.549c2.014,0,3.548,1.566,3.548,3.532
			c0,1.999-1.565,3.534-3.548,3.534C188.357,50.975,186.774,49.457,186.774,47.458z"/>
	</g>
	<g>
		<polygon points="26.87,125.297 29.33,125.297 29.33,133.844 43.833,133.844 43.833,125.297 46.295,125.297 46.295,144.219 
			43.833,144.219 43.833,135.829 29.33,135.829 29.33,144.219 26.87,144.219 		"/>
		<path d="M73.844,134.797v-0.212c0-4.208-3.626-7.648-9.871-7.648c-6.298,0-9.872,3.229-9.872,7.702v0.212
			c0,4.552,4.075,7.675,9.951,7.675C70.086,142.525,73.844,139.349,73.844,134.797L73.844,134.797z M51.534,134.877L51.534,134.877
			v-0.213c0-5.371,4.897-9.605,12.439-9.605c7.543,0,12.438,4.234,12.438,9.553v0.212c0,5.347-4.895,9.634-12.359,9.634
			C56.431,144.457,51.534,140.17,51.534,134.877z"/>
		<polygon points="86.255,127.201 78.475,127.201 78.475,125.297 96.498,125.297 96.498,127.201 88.717,127.201 88.717,144.219 
			86.255,144.219 		"/>
		<polygon points="101.156,125.297 117.088,125.297 117.088,127.201 103.616,127.201 103.616,133.58 114.969,133.58 
			114.969,135.485 103.616,135.485 103.616,142.313 117.723,142.313 117.723,144.219 101.156,144.219 		"/>
		<polygon points="122.59,125.297 125.053,125.297 125.053,142.313 137.253,142.313 137.253,144.219 122.59,144.219 		"/>
		<path d="M140.242,138.449h2.408c0.397,2.328,2.171,4.129,7.225,4.129c4.049,0,6.325-1.376,6.325-3.678
			c0-2.225-1.667-2.939-6.853-3.548c-5.216-0.608-8.126-1.852-8.126-5.239c0-2.912,3.043-5.055,8.019-5.055
			c4.924,0,8.073,1.746,8.574,5.213h-2.249c-0.583-2.461-2.646-3.335-6.325-3.335c-3.996,0-5.717,1.218-5.717,3.123
			c0,1.694,1.244,2.673,6.537,3.282c5.559,0.635,8.521,1.746,8.521,5.479c0,3.281-3.229,5.637-8.707,5.637
			C143.523,144.457,140.719,141.783,140.242,138.449z"/>
		<path d="M36.027,166.43c3.149,0,5.134-1.296,5.134-3.705v-0.105c0-2.699-2.145-3.704-5.134-3.704H29.33v7.515H36.027
			L36.027,166.43z M26.87,157.034L26.87,157.034h8.999c4.207,0,7.753,1.562,7.753,5.559v0.106c0,3.282-2.778,4.922-5.425,5.397
			l6.934,7.862h-2.962l-6.776-7.676H29.33v7.676h-2.46V157.034z"/>
		<polygon points="50.528,157.034 66.46,157.034 66.46,158.941 52.99,158.941 52.99,165.318 64.343,165.318 64.343,167.225 
			52.99,167.225 52.99,174.052 67.096,174.052 67.096,175.959 50.528,175.959 		"/>
		<path d="M71.277,170.188h2.409c0.396,2.329,2.169,4.128,7.225,4.128c4.048,0,6.325-1.375,6.325-3.678
			c0-2.223-1.668-2.938-6.856-3.547c-5.212-0.608-8.125-1.852-8.125-5.241c0-2.909,3.044-5.053,8.02-5.053
			c4.922,0,8.072,1.745,8.576,5.212H86.6c-0.582-2.461-2.646-3.335-6.326-3.335c-3.996,0-5.716,1.218-5.716,3.124
			c0,1.693,1.244,2.673,6.537,3.282c5.558,0.635,8.521,1.745,8.521,5.478c0,3.282-3.229,5.637-8.707,5.637
			C74.559,176.195,71.753,173.522,71.277,170.188z"/>
		<path d="M116.69,166.535v-0.211c0-4.208-3.626-7.649-9.873-7.649c-6.298,0-9.87,3.229-9.87,7.702v0.212
			c0,4.552,4.075,7.675,9.951,7.675C112.932,174.264,116.69,171.088,116.69,166.535L116.69,166.535z M94.38,166.615L94.38,166.615
			v-0.211c0-5.372,4.895-9.606,12.437-9.606s12.44,4.234,12.44,9.552v0.213c0,5.346-4.898,9.633-12.36,9.633
			C99.275,176.195,94.38,171.908,94.38,166.615z"/>
		<path d="M134.553,166.43c3.15,0,5.135-1.296,5.135-3.705v-0.105c0-2.699-2.144-3.704-5.135-3.704h-6.695v7.515H134.553
			L134.553,166.43z M125.396,157.034L125.396,157.034h8.998c4.208,0,7.753,1.562,7.753,5.559v0.106c0,3.282-2.778,4.922-5.426,5.397
			l6.935,7.862h-2.964l-6.775-7.676h-6.06v7.676h-2.461V157.034z"/>
		<polygon points="154.453,158.941 146.674,158.941 146.674,157.034 164.695,157.034 164.695,158.941 156.915,158.941 
			156.915,175.959 154.453,175.959 		"/>
		<path d="M168.136,170.188h2.408c0.397,2.329,2.169,4.128,7.226,4.128c4.049,0,6.324-1.375,6.324-3.678
			c0-2.223-1.667-2.938-6.854-3.547c-5.214-0.608-8.125-1.852-8.125-5.241c0-2.909,3.044-5.053,8.02-5.053
			c4.92,0,8.07,1.745,8.573,5.212h-2.249c-0.582-2.461-2.646-3.335-6.324-3.335c-3.998,0-5.717,1.218-5.717,3.124
			c0,1.693,1.243,2.673,6.535,3.282c5.559,0.635,8.523,1.745,8.523,5.478c0,3.282-3.23,5.637-8.707,5.637
			C171.418,176.195,168.611,173.522,168.136,170.188z"/>
		<path d="M176.012,142.582c-2.793,0-4.326-1.307-4.326-3.367c0-2.253,1.642-3.5,3.895-4.326l5.453,5.597
			C179.895,141.708,178.229,142.582,176.012,142.582L176.012,142.582z M176.407,133.174L176.407,133.174
			c-1.271-1.03-2.241-2.145-2.241-3.583c0-1.868,1.342-2.828,3.032-2.828c1.821,0,2.864,1.138,2.864,2.601
			C180.063,130.873,179.068,132.035,176.407,133.174L176.407,133.174z M177.246,125.013L177.246,125.013
			c-2.686,0-5.07,1.642-5.07,4.554c0,1.773,0.84,3.104,2.086,4.219c-2.408,0.898-4.746,2.541-4.746,5.562
			c0,3.176,2.565,5.058,6.448,5.058c2.757,0,4.794-1.223,6.173-2.78l2.527,2.6h2.793l-3.979-4.063l3.8-5.716h-2.038l-2.984,4.47
			l-4.602-4.661c2.887-1.14,4.374-2.961,4.374-4.843C182.028,126.871,180.109,125.013,177.246,125.013z"/>
	</g>
</g>
</svg>
