<?xml version="1.0" encoding="utf-8"?>
<!DOCTYPE svg PUBLIC "-//W3C//DTD SVG 1.1//EN" "http://www.w3.org/Graphics/SVG/1.1/DTD/svg11.dtd">
<svg version="1.1" id="Layer_1" xmlns="http://www.w3.org/2000/svg" xmlns:xlink="http://www.w3.org/1999/xlink" x="0px" y="0px" width="216px" height="216px" viewBox="0 0 216 216" enable-background="new 0 0 216 216" xml:space="preserve">
<g>
	<path d="M58.35,121.887c-11.223-16.049-12.835-42.027-3.156-59.291c11.698-21.699,34.452-33.803,59.059-30.975
		c19.683,2.338,39.122,16.617,46.696,35.494c7.754,17.503,4.608,41.137-6.208,56.306c-14.76,19.931-38.799,28.963-63.154,22.671
		C78.752,142.301,66.328,134.149,58.35,121.887 M116.746,84.859l36.226,30.654c7.983-13.388,8.96-33.476,2.174-47.676
		c-7.984-18.23-27.104-30.897-46.711-30.734l7.292,46.491l-8.013,4.413l-0.242-51.548h-0.398l-5.232,49.275l-3.487-2.566
		l7.989-46.307C88.681,37.023,73.19,45.736,62.94,60.502c-10.402,14.682-11.375,38.638-2.345,54.208l36.798-29.604l3.305,1.933
		L59.637,116.24v0.407h0.406l45.892-25.975v9.675c-14.758,5.327-29.432,11.135-43.959,16.701
		c8.388,14.203,23.075,23.15,38.561,25.172c21.134,2.096,40.02-7.027,51.311-24.77l-43.969-17.104v-9.675
		c0.161,0,41.629,24.442,41.629,24.442l3.704,1.691v-0.321L113.284,87.04L116.746,84.859z"/>
	<path fill="#FFFFFF" d="M54.068,68.405c7.337-19.122,27.102-34.126,47.437-35.579c23.308-2.016,44.776,9.358,55.896,30.011
		c3.07,5.97,5.408,12.908,6.058,19.363c-3.626-20.008-21.049-39.855-40.903-45.501c-22.347-6.531-45.175,1.128-59.614,19.526
		c-12.259,15.086-13.475,38.557-7.178,56.713c1.612,4.11,3.713,7.985,6.213,11.611C50.036,109.71,46.731,86.474,54.068,68.405"/>
	<path fill="#FFFFFF" d="M53.827,99.219c1.126,5.813,3.066,11.299,5.65,16.46l-0.568,0.562
		C56.089,111.239,54.478,105.35,53.827,99.219"/>
	<polygon points="111.614,88.398 141.356,109.061 108.999,89.541 	"/>
	<polygon points="104.813,89.541 94.327,95.914 103.198,88.735 	"/>
	<polygon points="106.744,49.444 106.104,88.007 104.167,87.039 	"/>
	<path fill="#FFFFFF" d="M59.476,117.775l0.967-0.325c12.347,19.606,33.884,29.77,56.951,25.496
		c14.197-2.505,27.514-11.861,35.578-24.771c1.376-0.238,1.136-1.291,1.376-2.34c8.619-14.838,9.03-37.509,0.153-52.432
		c10.161,13.791,10.82,37.512,1.778,52.837c-11.372,20.735-32.986,32.029-56.547,29.285
		C83.273,143.668,67.299,133.104,59.476,117.775"/>
	<path d="M13.356,165.13l-0.828,18.446v0.285c0,1.452,0.478,1.799,2.835,1.973v0.694c-1.872-0.136-2.526-0.205-3.397-0.205
		c-0.86,0-1.56,0.069-3.398,0.205v-0.694c2.326-0.174,2.748-0.521,2.851-2.258l0.86-17.438v-0.279c0-1.458-0.513-1.8-2.844-1.974
		v-0.662c1.187,0.074,1.701,0.104,2.465,0.104c1.142,0,1.8-0.029,2.981-0.165l6.517,18.411l6.627-18.411
		c1.6,0.136,2.183,0.165,3.013,0.165c0.733,0,1.255-0.029,2.428-0.104v0.662c-2.284,0.174-2.847,0.552-2.847,1.943v0.31
		l0.387,17.438c0.033,1.775,0.457,2.084,2.845,2.258v0.694c-2.109-0.205-2.878-0.276-3.989-0.276c-1.103,0-1.874,0.071-3.986,0.276
		v-0.694c2.185-0.104,2.848-0.551,2.848-1.904v-0.354L28.41,165.13l-7.356,20.637h-0.456L13.356,165.13"/>
	<path d="M37.359,176.437c0.443-3.816,1.935-5.889,4.257-5.889c2.429,0,3.783,1.969,3.995,5.889H37.359 M42.004,185.696
		c-3.23,0-4.722-2.564-4.722-8.011h10.444v-0.277c0-4.922-2.188-7.729-6.072-7.729c-4.062,0-6.553,3.291-6.553,8.695
		c0,5.416,2.459,8.399,6.83,8.399c3.328,0,5.52-2.114,5.827-5.723h-1.357C45.987,184.104,44.501,185.696,42.004,185.696"/>
	<path d="M49.703,170.75v-0.483c1.701-0.176,2.8-0.414,4.157-0.803l0.075,0.524c0.104,1.109,0.133,1.421,0.175,2.498l0.03,0.383
		c0.596-1.982,2.111-3.19,3.959-3.19c1.656,0,2.872,1.071,2.872,2.597c0,0.972-0.523,1.633-1.348,1.633
		c-0.729,0-1.281-0.523-1.281-1.18c0-0.108,0.03-0.174,0.03-0.279l0.098-0.351v-0.206c0-0.483-0.448-0.864-1.102-0.864
		c-1.875,0-3.09,2.46-3.09,6.175v6.965c0,1.392,0.412,1.666,2.498,1.77v0.591c-1.8-0.174-2.498-0.205-3.577-0.205
		c-1.069,0-1.765,0.031-3.568,0.205v-0.591c2.083-0.104,2.499-0.378,2.499-1.77v-11.235v-0.516
		c-0.042-1.463-0.207-1.596-1.982-1.667H49.703"/>
	<path d="M73.936,169.358v5.413h-0.694c-0.625-2.846-1.933-4.224-3.953-4.224c-2.668,0-4.263,2.904-4.263,7.826
		c0,4.858,1.389,7.322,4.162,7.322c2.152,0,3.326-1.455,3.783-4.611h1.394c-0.428,3.643-2.295,5.688-5.279,5.688
		c-3.917,0-6.521-3.365-6.521-8.399c0-5.198,2.667-8.695,6.588-8.695c1.422,0,2.29,0.373,3.332,1.419l0.868-1.739H73.936"/>
	<path d="M79.178,176.437c0.459-3.816,1.938-5.889,4.264-5.889c2.428,0,3.782,1.969,3.994,5.889H79.178 M83.824,185.696
		c-3.227,0-4.718-2.564-4.718-8.011h10.441v-0.277c0-4.922-2.187-7.729-6.064-7.729c-4.068,0-6.558,3.291-6.558,8.695
		c0,5.416,2.463,8.399,6.837,8.399c3.32,0,5.509-2.114,5.823-5.723H88.23C87.809,184.104,86.314,185.696,83.824,185.696"/>
	<path d="M99.117,185.767c-2.605,0-4.091-2.706-4.091-7.492c0-4.957,1.353-7.559,3.987-7.559c2.676,0,4.127,2.772,4.127,7.807
		C103.14,183.202,101.716,185.767,99.117,185.767 M107.477,185.423l-0.49-0.037c-1.489-0.034-1.728-0.388-1.728-2.36v-20.011
		c-1.497,0.385-2.773,0.624-4.621,0.798v0.488c2.225,0.034,2.46,0.205,2.46,1.873v6.695c-1.099-2.219-2.314-3.119-4.304-3.119
		c-3.588,0-6.088,3.462-6.088,8.524c0,4.99,2.525,8.422,6.173,8.422c1.969,0,3.392-0.966,4.363-3.009
		c0.072,1.242,0.175,1.906,0.382,3.009c1.174-0.373,1.699-0.478,3.53-0.724l0.604-0.068v-0.481H107.477z"/>
	<path d="M111.576,176.437c0.442-3.816,1.929-5.889,4.252-5.889c2.438,0,3.788,1.969,3.992,5.889H111.576 M116.216,185.696
		c-3.221,0-4.721-2.564-4.721-8.011h10.433v-0.277c0-4.922-2.176-7.729-6.054-7.729c-4.059,0-6.561,3.291-6.561,8.695
		c0,5.416,2.455,8.399,6.83,8.399c3.329,0,5.516-2.114,5.823-5.723h-1.344C120.197,184.104,118.704,185.696,116.216,185.696"/>
	<path d="M125.095,186.773l-0.044-5.617h0.705c0.687,3.186,2.074,4.61,4.611,4.61c2.181,0,3.81-1.462,3.81-3.333
		c0-1.526-0.48-1.97-3.741-3.329l-1.658-0.689c-2.603-1.074-3.373-2.013-3.373-4.062c0-2.699,2.046-4.604,4.993-4.604
		c1.245,0,2.219,0.302,3.432,1l0.448-1.251h0.592v5.239h-0.654c-0.315-2.771-1.496-4.127-3.677-4.127
		c-1.907,0-3.397,1.356-3.397,3.086c0,1.49,0.621,2.046,3.742,3.294l1.557,0.624c2.673,1.078,3.546,2.119,3.546,4.197
		c0,2.847-2.289,4.884-5.447,4.884c-1.525,0-2.849-0.409-4.096-1.311l-0.799,1.388H125.095"/>
	
		<line fill="none" stroke="#000000" stroke-width="0.727" stroke-miterlimit="10" x1="138.093" y1="177.165" x2="144.596" y2="177.165"/>
	<path d="M149.787,164.266h3.229c3.048,0,4.437,1.457,4.437,4.715c0,1.567-0.418,2.776-1.254,3.674
		c-0.83,0.903-1.767,1.179-3.851,1.179h-2.561V164.266 M159.94,168.911c0-1.737-0.687-3.289-1.897-4.298
		c-1.154-0.94-2.501-1.316-4.68-1.316h-8.754v0.693c2.502,0.207,2.855,0.483,2.855,2.254v17.229c0,1.81-0.354,2.053-2.855,2.293
		v0.659h8.508c2.677,0,3.99-0.351,5.375-1.351c1.557-1.181,2.561-3.232,2.561-5.275c0-1.835-0.789-3.535-2.15-4.575
		c-0.755-0.586-1.285-0.801-2.623-1.109C158.664,173.146,159.94,171.34,159.94,168.911 M153.396,174.807
		c1.869,0,2.981,0.345,3.82,1.179c0.826,0.835,1.335,2.324,1.335,3.954c0,3.469-1.929,5.515-5.155,5.515h-1.287
		c-2.018,0-2.322-0.246-2.322-1.905v-8.742H153.396z"/>
	<path d="M165.844,176.437c0.446-3.816,1.934-5.889,4.267-5.889c2.426,0,3.773,1.969,3.986,5.889H165.844 M170.495,185.696
		c-3.229,0-4.721-2.564-4.721-8.011h10.447v-0.277c0-4.922-2.189-7.729-6.078-7.729c-4.061,0-6.551,3.291-6.551,8.695
		c0,5.416,2.461,8.399,6.818,8.399c3.341,0,5.517-2.114,5.836-5.723h-1.351C174.48,184.104,172.995,185.696,170.495,185.696"/>
	<path d="M178.017,170.887v-0.49c1.727-0.271,2.801-0.513,4.158-1.038c0.146,0.842,0.178,1.253,0.243,2.608v0.45
		c1.222-1.806,2.633-2.667,4.548-2.667c2.006,0,3.809,1.137,4.507,2.805c0.351,0.83,0.486,1.835,0.486,3.155v8.458
		c0,1.392,0.417,1.666,2.501,1.77v0.591c-1.807-0.174-2.501-0.205-3.611-0.205c-1.109,0-1.805,0.031-3.578,0.205v-0.591
		c2.118-0.069,2.528-0.378,2.528-1.77v-8.425c0-3.227-0.932-4.51-3.287-4.51c-2.531,0-3.914,1.636-3.914,4.684v8.251
		c0,1.392,0.409,1.666,2.495,1.77v0.591c-1.807-0.174-2.495-0.205-3.573-0.205s-1.776,0.031-3.578,0.205v-0.591
		c2.086-0.104,2.5-0.378,2.5-1.77v-11.235v-0.483c-0.03-0.795-0.093-1.109-0.275-1.255c-0.243-0.205-0.525-0.268-1.701-0.308
		H178.017"/>
	<path d="M195.839,186.426l9.75-15.573h-4.478c-2.013,0-2.667,0.524-3.602,2.882l-0.246,0.587h-0.584l0.717-4.27h11.171
		l-9.784,15.576h4.686c2.248,0,3.224-0.866,4.202-3.921h0.585l-0.838,4.719H195.839"/>
</g>

</svg>
