<?xml version="1.0" encoding="utf-8"?>
<!DOCTYPE svg PUBLIC "-//W3C//DTD SVG 1.1//EN" "http://www.w3.org/Graphics/SVG/1.1/DTD/svg11.dtd">
<svg version="1.1" id="Layer_1" xmlns="http://www.w3.org/2000/svg" xmlns:xlink="http://www.w3.org/1999/xlink" x="0px" y="0px" width="216px" height="216px" viewBox="0 0 216 216" enable-background="new 0 0 216 216" xml:space="preserve">
<g>
	<path fill="none" stroke="#FFF22D" stroke-width="0.101" stroke-miterlimit="2.613" d="M78.888,146.566"/>
	<path fill="#32428B" d="M8.686,163.527c0-0.26,0.261-1.303-0.26-1.303H4.249c-1.827,0-1.827,0.52-2.349,1.826
		c0,0.262,0,0.783-0.522,0.783c0,0-0.261-0.262-0.261-0.521l0.521-2.611c0-0.262,0-1.045,0.261-1.045
		c2.088,0,4.176,0.262,7.83,0.262c4.697,0,7.308-0.262,7.828-0.262c0.522,0,0.784,0.262,0.784,0.783v2.348
		c0,0.264,0,0.523-0.261,0.523c-1.044,0,0.521-2.088-2.349-2.088h-3.653c-1.305,0-1.044,0-1.044,1.305v13.832
		c0,2.086,2.088,1.305,2.088,2.086c0,0,0,0.262-0.261,0.262H7.117c-0.261,0-0.522,0-0.522-0.262c0-0.52,2.088-0.26,2.088-2.086
		v-13.832H8.686L8.686,163.527z"/>
	<path fill="#32428B" d="M18.864,167.443c0-1.305-1.566-1.043-1.566-1.566h4.698c0,0.523-1.566,0-1.566,1.566v4.176
		c0,0.26,0,0.52,0.522,0.52h7.046c0.261,0,0.261-0.52,0.261-0.52v-4.176c0-1.305-1.566-1.043-1.566-1.566h3.916
		c0.522,0,0.522,0,0.522,0.264c0,0.262-1.304,0-1.304,1.305v10.438c0,1.566,1.827,1.045,1.827,1.566c0,0.26-0.262,0.26-0.262,0.26
		h-4.175c0,0-0.261,0-0.261-0.26c0-0.521,1.305-0.262,1.305-1.305v-4.697c0-0.521,0-0.521-0.261-0.521h-7.307
		c-0.262,0-0.262,0-0.262,0.262v4.957c0,1.305,2.088,0.783,2.088,1.564h-4.958c0,0-0.261,0-0.261-0.26c0-0.521,1.566,0,1.566-1.826
		v-10.18H18.864L18.864,167.443z M35.305,171.619c0,0.52,0,0.52,0.783,0.52h2.088c2.088,0,1.566-1.563,2.088-1.563
		c0,0,0.261,0.26,0.261,0.52v3.393c0,0.262-0.261,0.262-0.261,0.262c-0.522,0,0-1.564-1.566-1.564h-2.87
		c-0.522,0-0.522,0.26-0.522,0.52v3.654c0,1.045,0,1.566,1.566,1.566c4.437,0,5.22-2.088,5.48-2.088c0.261,0,0.261,0.26,0.261,0.26
		c0,0.783-0.521,1.566-1.043,2.09c-0.783,0.52-1.044,0.52-2.088,0.52h-6.785c-0.261,0-0.261,0-0.261-0.262c0,0,0.261,0,0.783-0.52
		c0.522,0,0.522-0.785,0.522-1.566v-9.131c0-0.785,0-1.828-1.044-1.828c-0.281-0.02-0.504-0.242-0.522-0.523h9.135
		c0,0,0.261,0,0.261,0.264c0,2.348-0.522,2.348-0.522,2.348c-0.521,0-0.261-0.785-0.521-1.305c-0.522-0.781-2.609-0.521-3.392-0.521
		c-1.827,0-1.827-0.26-1.827,1.043v3.914H35.305L35.305,171.619z M63.752,176.84c1.826,2.869,3.131,2.088,3.131,2.609
		c0,0.26-1.305,0.26-1.566,0.26c-2.088,0-3.131-1.305-4.175-2.869l-2.871-4.701c-1.044-1.563-0.521-1.303-3.655-1.303
		c-0.782,0-0.782,0.52-0.782,0.781v5.48c0,2.348,2.87,1.566,2.87,2.609c0,0.262-0.26,0-0.521,0h-6.002c-0.261,0-0.261,0-0.261-0.262
		c0-0.52,1.827-0.26,1.827-2.348v-13.57c0-2.609-2.349-1.566-2.349-2.348c0-0.262,0.261-0.523,0.783-0.523
		c0.261,0,0.261,0.264,1.566,0.264c1.565,0,3.132-0.264,4.437-0.264c0.521,0,6.524-0.521,6.524,4.699
		c0,2.09-1.565,3.916-3.392,4.699L63.752,176.84z M53.835,169.529c0,0.521,1.827,0.262,3.131,0.262c1.043,0,3.653-0.52,3.653-3.652
		c0-3.393-2.609-4.438-5.22-4.438c-0.783,0-1.564,0-1.564,1.045V169.529z M68.971,167.443c0-1.305-1.566-1.043-1.566-1.566h4.697
		c0,0.523-1.564,0-1.564,1.566v10.699c0,1.307,1.826,0.785,1.826,1.307c0,0.26,0,0.26-0.522,0.26h-3.914
		c-0.522,0-0.522,0-0.522-0.26c0-0.521,1.566,0,1.566-1.828V167.443L68.971,167.443z M78.888,167.703c0,0,0-0.781-0.261-0.781
		h-3.131c-1.305,0-1.305,0.262-1.566,1.307c0,0.26-0.261,0.52-0.261,0.52c-0.262,0-0.262-0.262-0.262-0.262l0.262-2.088
		c0,0,0-0.523,0.261-0.523h11.484c0.261,0,0.521,0,0.521,0.523v1.564c0,0.264,0,0.264-0.261,0.264c-0.521,0,0.522-1.307-1.566-1.307
		h-2.871c-0.784,0-0.784-0.26-0.784,0.783v10.178c0,1.564,1.566,1.045,1.566,1.564v0.262h-4.438c-0.261,0-0.261,0-0.261-0.262
		c0-0.52,1.566-0.26,1.566-1.303V167.703L78.888,167.703z M89.588,177.881c-0.261,0.523-0.261,0.785-0.261,0.785
		c0,0.262,0.261,0.262,0.784,0.262h3.654c2.348,0,2.348-1.305,3.131-1.305c0,0,0.261,0,0,0.26l-0.522,1.305
		c-0.261,0.521-0.521,0.521-1.043,0.521h-8.09c-0.261,0-0.261,0-0.261-0.26v-0.521l7.046-11.484
		c0.261-0.262,0.261-0.521,0.261-0.781h-4.175c-2.87,0-2.088,2.088-2.609,2.088c-0.261,0-0.522-0.262-0.522-0.262l0.522-2.088
		c0-0.523,0-0.523,0.522-0.523h7.829c0.521,0,0.521,0,0.521,0.264c0,0.262,0,0.521-0.261,0.521L89.588,177.881L89.588,177.881z
		 M102.376,172.139c0.521,0,0.783-0.262,1.044-0.262c0.261,0,0.261,0.525,0.261,0.785c0,0.783,0,0.783-0.784,1.043l-4.175,1.566
		c-0.261,0-0.783,0.262-0.783,0.262c-0.261,0-0.261-0.521-0.261-0.521c0-1.045,0-1.045,0.783-1.305L102.376,172.139L102.376,172.139
		z M115.425,160.656c4.96,0,6.526,1.83,7.31,1.83c0.261,0,0.261-0.262,0.521-0.262s0.261,0.521,0.521,2.348
		c0,1.305,0.262,2.348-0.262,2.348c-0.262,0-0.521-0.781-0.521-1.045c-1.827-2.869-3.654-4.436-7.048-4.436
		c-5.219,0-7.829,3.395-7.829,8.352c0,4.699,2.61,9.395,7.829,9.395c4.175,0,6.786-2.609,7.309-3.914
		c0-0.26,0.261-0.521,0.261-0.521c0.262,0,0.262,0.262,0.262,0.521l-0.521,2.609c0,0-2.088,2.088-8.091,2.088
		c-5.481,0-9.396-3.654-9.396-9.393C105.769,165.094,109.683,160.656,115.425,160.656L115.425,160.656z M133.692,175.012
		c-0.262-0.521-0.262-0.783-0.782-0.783h-4.437c-0.261,0-0.784,0-0.784,0.521l-1.306,2.609c-0.258,0.262-0.258,0.521-0.258,0.781
		c0,1.305,1.563,0.785,1.563,1.305c0,0.262-0.261,0.262-0.521,0.262h-3.393c0,0-0.262,0-0.262-0.262c0-0.26,1.045,0,1.566-1.041
		l4.696-10.178c1.306-2.352,1.306-2.873,1.567-2.873c0.26,0,0.26,0.785,0.26,0.785l4.176,10.174
		c0.261,0.785,0.523,1.566,1.045,2.352c0.521,0.781,1.827,0.521,1.827,1.043h-4.437c0,0-0.522,0-0.522-0.262
		c0-0.26,1.305-0.26,1.305-0.781c0-0.523-0.521-1.566-0.521-2.088L133.692,175.012L133.692,175.012z M128.474,173.186
		c-0.261,0.26,0,0.26,0.262,0.26h3.914c0.261,0,0.261-0.26,0.261-0.521l-2.089-4.695c0-0.264,0-0.264-0.26,0L128.474,173.186
		L128.474,173.186z"/>
	<path fill="#32428B" d="M148.83,177.621c1.566,2.088,2.609,1.305,2.609,1.828c0,0.26-1.306,0.26-1.306,0.26
		c-1.563,0-2.348-1.043-3.13-2.088l-2.088-3.393c-0.781-1.043-0.521-1.043-2.608-1.043c-0.784,0-0.524,0.26-0.524,0.52v4.176
		c0,1.564,2.089,1.045,2.089,1.826h-0.519h-4.438c0,0-0.262,0-0.262-0.262c0-0.52,1.566,0,1.566-1.564v-10.178
		c0-1.828-1.827-1.043-1.827-1.828h4.959c0.519,0,4.694-0.52,4.694,3.395c0,1.566-1.043,2.869-2.348,3.393L148.83,177.621
		L148.83,177.621z M141.782,172.139c0,0.523,1.306,0.264,2.089,0.264c0.784,0,2.873-0.264,2.873-2.873
		c0-2.348-1.828-3.129-3.915-3.129c-0.784,0-1.046,0-1.046,0.781L141.782,172.139L141.782,172.139L141.782,172.139z
		 M155.093,177.359c0,1.045-0.262,1.566,1.305,1.566c4.698,0,5.479-2.088,5.741-2.088v0.26c0,0.783-0.522,1.566-1.046,2.09
		c-0.521,0.521-1.042,0.52-1.826,0.52h-7.048c0,0-0.259,0-0.259-0.262c0,0,0.259,0,1.043-0.52c0.521,0,0.521-0.785,0.521-1.566
		v-10.178c0-0.781-1.827-0.781-1.827-1.043c0-0.264,0.264-0.264,0.521-0.264h3.917c0.262,0,0.262,0,0.262,0.264
		c0,0.262-1.305-0.264-1.305,1.564L155.093,177.359L155.093,177.359L155.093,177.359z M165.533,167.703c0,0,0.259-0.781,0-0.781
		h-3.394c-1.044,0-1.305,0.262-1.565,1.307c0,0.26,0,0.52-0.264,0.52c-0.259,0-0.259-0.262-0.259-0.262l0.259-2.088
		c0,0,0-0.523,0.264-0.523h11.479c0.523,0,0.523,0,0.523,0.523v1.564c0.262,0.264,0.262,0.264,0,0.264
		c-0.784,0,0.262-1.307-1.827-1.307h-2.872c-0.782,0-0.782-0.26-0.782,0.783v10.178c0,1.564,1.565,1.045,1.565,1.564
		c0,0.262,0.262,0.262,0,0.262h-4.435c0,0-0.264,0-0.264-0.262c0-0.52,1.567-0.26,1.567-1.303v-10.439H165.533L165.533,167.703z
		 M173.101,172.664c0-4.176,3.133-7.049,7.309-7.049c3.914,0,7.045,2.873,7.045,7.049c0,4.436-2.869,7.307-7.306,7.307
		C175.709,179.969,173.101,176.84,173.101,172.664z M174.667,172.139c0,3.654,2.348,7.049,6.263,7.049
		c2.871,0,5.221-2.09,5.221-5.742s-2.611-7.307-6.266-7.307C176.493,166.139,174.667,169.01,174.667,172.139z M189.802,169.529
		c0-3.914-2.349-2.869-2.349-3.654h2.089c0.261,0,0.522,0.264,0.522,0.264l9.657,10.701h0.261v-8.352
		c0-2.611-2.348-1.826-2.348-2.611h4.177c0,0.523-1.046,0.264-1.046,1.566v11.484c0,0.521,0,1.043-0.261,1.043l-0.782-0.783
		l-8.353-9.395c0,0-0.262-0.521-0.521-0.521v8.611c0,1.826,1.565,1.045,1.565,1.566v0.26H188.5c-0.261,0-0.261,0-0.261-0.26
		c0-0.521,1.563,0.26,1.563-2.609L189.802,169.529L189.802,169.529L189.802,169.529z M213.552,169.271
		c-1.044,1.043-2.089,1.564-3.652,1.564c-1.305,0-2.349-0.521-3.394-1.564c-1.046-0.783-1.566-2.09-1.566-3.395
		c0-1.564,0.521-2.609,1.566-3.652c1.045-1.045,2.089-1.568,3.394-1.568c1.563,0,2.608,0.523,3.652,1.568
		c1.044,1.043,1.565,2.088,1.565,3.652C215.117,167.182,214.595,168.488,213.552,169.271z M207.026,162.746
		c-1.046,0.781-1.305,1.826-1.305,3.129c0,1.045,0.262,2.09,1.305,3.133c0.782,0.783,1.827,1.305,2.873,1.305
		c1.178,0.01,2.308-0.461,3.129-1.305c1.046-1.045,1.306-2.088,1.306-3.133c0-1.303-0.261-2.348-1.306-3.129
		c-0.821-0.844-1.951-1.316-3.129-1.305C208.854,161.441,207.809,161.961,207.026,162.746z M209.899,163.008
		c0.781,0,1.304,0,1.563,0.26c0.522,0.262,0.784,0.521,0.784,1.305c0,0.521,0,0.783-0.521,1.043
		c-0.264,0.262-0.523,0.262-0.784,0.262c0.521,0.264,0.784,0.264,1.045,0.523c0.261,0.52,0.261,0.781,0.261,1.043v1.045h-0.784
		v-0.785c0-0.52-0.261-1.041-0.521-1.041c-0.262-0.262-0.782-0.262-1.306-0.262h-0.782v2.088h-0.781v-5.48H209.899L209.899,163.008z
		 M210.942,163.789h-2.089v1.826h1.827c0.521-0.26,0.782-0.521,0.782-1.043C211.463,164.313,211.201,164.053,210.942,163.789z
		 M108.9,141.867c-0.784,0-1.305,0.785-1.305,1.566s0.521,1.307,1.305,1.307c1.043,0,1.566-0.525,1.566-1.307
		S109.943,141.867,108.9,141.867z M88.283,139.779h-7.307c-1.305,0-2.088,1.045-2.088,2.088V145c0,1.043,0.783,2.088,2.088,2.088
		h7.307c1.305,0,2.088-1.045,2.088-2.088v-3.133C90.371,140.824,89.588,139.779,88.283,139.779z M84.629,145.521
		c-1.044,0-2.087-1.045-2.087-2.09s1.043-2.088,2.087-2.088c1.044,0,2.088,1.043,2.088,2.088S85.673,145.521,84.629,145.521z
		 M104.724,139.779h-7.309c-1.304,0-2.087,1.045-2.087,2.088V145c0,1.043,0.783,2.088,2.087,2.088h7.309
		c1.044,0,2.088-1.045,2.088-2.088v-3.133C106.813,140.824,105.769,139.779,104.724,139.779z M101.071,145.262
		c-1.044,0-2.088-0.785-2.088-1.828c0-1.045,1.043-2.088,2.088-2.088c1.044,0,1.827,1.043,1.827,2.088
		C102.898,144.477,102.115,145.262,101.071,145.262z M120.645,140.041h-7.309c-1.306,0-2.089,0.783-2.089,2.088V145
		c0,1.307,0.782,2.09,2.089,2.09h7.309c1.043,0,2.088-0.783,2.088-2.09v-2.871C122.732,140.824,121.688,140.041,120.645,140.041z
		 M116.991,145.521c-1.045,0-1.827-1.045-1.827-2.09s0.782-2.088,1.827-2.088c1.043,0,2.088,1.043,2.088,2.088
		C119.078,144.477,118.034,145.521,116.991,145.521z M92.719,142.127c-0.783,0-1.305,0.523-1.305,1.305
		c0,0.783,0.522,1.566,1.305,1.566c0.784,0,1.565-0.783,1.565-1.566C94.285,142.65,93.503,142.127,92.719,142.127z M77.062,141.867
		c-0.783,0-1.566,0.785-1.566,1.566s0.783,1.307,1.566,1.307c0.784,0,1.305-0.525,1.305-1.307S77.843,141.867,77.062,141.867z"/>
	<path fill="#32428B" d="M141.521,114.465c-1.566,0.783-2.608,2.35-4.175,2.869c-0.781,1.045-2.089,1.305-3.131,1.828
		c-0.522,1.305,1.044,1.827,0.782,3.133c-0.261,0.783-1.046,1.564-1.827,1.303c-1.042-0.26-2.348-2.349-2.87-2.349
		c-0.523-0.261-2.872,1.827-3.132,2.608c0,0.521,1.045,3.395,1.566,3.395c0.781,0.262,1.565-0.783,2.869-0.521
		c0.784,0.521,1.306,2.348,1.306,3.131c-0.261,0.783-1.306,3.654-4.697,3.393c-3.916,0-5.221-4.176-4.96-5.482
		c0-1.041,1.828-3.652,2.089-4.174c0.261-0.783-1.827-4.697-2.348-4.96c-0.521-0.261-3.915,2.61-4.176,3.394
		c-0.261,1.043,1.045,4.174,1.045,4.959c0,0.781-1.305,4.697-7.568,4.697c-6.264-0.262-6.525-3.654-6.525-4.957
		c0-1.305,1.827-2.873,3.132-2.873c1.566,0,3.655,1.828,4.436,1.828c0.521,0,3.132-3.131,3.132-3.654
		c0-0.521-2.35-3.913-3.393-3.913c-0.521,0-3.132,2.61-4.699,2.61c-1.827,0-3.132-0.522-3.132-1.828
		c0-2.088,3.393-3.132,3.393-3.914c0-0.521-2.088-1.825-3.654-3.131c-1.827-1.566-3.131-3.132-3.394-3.132
		c-0.521,0-2.349,1.827-4.176,3.394c-1.565,1.304-3.131,2.088-3.131,2.609c0,1.043,3.394,2.089,3.394,3.653
		c0,1.306-0.784,2.089-2.871,2.089c-1.827,0-3.914-2.35-4.437-2.35c-0.783,0-3.392,3.131-3.392,3.914
		c0,0.785,2.348,3.914,3.392,3.914c1.043,0,2.349-2.348,4.437-2.348c2.348,0.26,3.131,1.566,3.131,3.914
		c0,2.611-4.175,3.914-7.046,3.914c-5.219,0-7.047-2.348-7.569-3.133c-1.305-2.348,0.522-5.479,0.26-6.262
		c-0.26-0.783-2.609-3.131-3.653-2.871c-1.044,0.262-2.61,3.393-2.61,4.176c0.261,0.783,2.088,3.133,2.088,5.742
		c0,2.348-2.088,3.654-4.958,3.654c-3.132,0-4.958-2.352-4.698-3.393c0-3.133,2.872-1.568,3.653-1.828
		c0.783,0,2.349-3.393,2.088-3.914c0-0.262-2.87-2.35-3.653-2.088c-0.783,0.261-1.827,2.869-3.393,2.348
		c-2.609-1.564,1.566-2.87,0.261-4.697c-0.783-0.522-2.087-0.522-2.87-1.044c-1.566-0.784-3.132-1.827-4.438-3.392
		c-0.26,0.26-0.522-0.522-0.783,0c0,0-0.261,0.52,0,0.782c1.826,4.698,7.308,16.702,8.091,17.747c-0.261,2.348-1.044,4.174,0,6.264
		c1.044,1.826,1.566,3.652,1.827,5.74c1.042,2.609-1.566,5.221,0.782,7.309c0.522,0.262,58.198,0.262,59.243,0
		c0.521-0.26,0.781-0.785,1.043-1.566c-0.262-1.045-0.782-3.131,1.045-9.396c0.521-1.826,2.089-3.393,1.044-6.783
		C136.041,130.646,140.219,119.424,141.521,114.465L141.521,114.465z M128.214,150.219H73.931c-0.522,0-0.783-0.262-0.783-0.521
		s0.261-0.521,0.783-0.521h54.283c0.261,0,0.521,0.262,0.521,0.521S128.474,150.219,128.214,150.219z M126.908,147.609H75.496
		c-3.653,0-0.522-0.262-0.522-2.088v-4.438c0-1.564-3.13-2.088,0.522-2.088h51.413c3.393,0,0,0.521,0,2.088v4.438
		C126.908,147.348,130.039,147.609,126.908,147.609z M129.256,137.17H72.364c-0.262,0-0.521-0.26-0.521-0.781
		c0-0.264,0.259-0.523,0.521-0.523h56.893c0.262,0,0.521,0.262,0.521,0.523C129.777,136.91,129.517,137.17,129.256,137.17z"/>
	<path fill="#32428B" d="M124.82,142.127c-0.782,0-1.305,0.523-1.305,1.305c0,0.783,0.522,1.566,1.305,1.566
		s1.563-0.783,1.563-1.566C126.384,142.65,125.603,142.127,124.82,142.127z M92.458,53.919c-1.305-2.608-5.219-5.741-6.524-4.436
		c-1.044,1.044,2.348,1.566,3.653,6.002c0.522,0.261,1.044,0.522,1.305,0.522c0.261,0.261,1.827,1.305,3.914,4.437
		c0.522,0.783,2.088,1.043,2.348,0.783C97.678,60.966,95.33,55.745,92.458,53.919L92.458,53.919z M80.193,48.96
		c-1.044-0.521-3.131,1.043-3.131,1.566c0,0.783,0.784,1.566,1.305,1.566C79.148,52.092,80.976,49.222,80.193,48.96z"/>
	<path fill="#32428B" d="M140.479,103.766c-0.523,0-0.784,0.261-1.045,0.521c-0.521,1.566-2.609,2.609-4.697,2.088
		c-1.045-0.521-4.7-2.088-4.7-7.83s6.525-8.874,5.482-16.702c1.826-3.914,3.914-6.786,3.914-10.699c0-2.61-1.306-6.263-1.306-7.83
		c0.264,0,1.045,0,1.306-0.522c0.784-3.131-2.089-4.958-3.655-7.307c-0.521-1.043,0.784-0.783,1.046-1.304
		c0-0.783-0.784-1.566-1.305-2.088c-2.609-2.088-1.567-9.655-4.176-12.788c-2.608-2.872-6.523-2.088-7.569-2.61
		c-1.565-0.783-4.435-5.741-6.263-6.002c-0.781,0-1.043,0-1.827,0.522c-3.914,2.349-5.481,2.609-11.482,1.828
		c-1.826-0.262-3.915,2.088-5.48,3.653c-0.52,0.782-2.348,0.26-4.174,0.522c-2.088,0.26-4.176,0.783-7.046,1.565
		c-1.827,0.522-1.827,2.088-2.609,3.393c-0.783,1.305-4.436,2.609-6.002,3.394c-1.566,1.044-4.175,2.609-6.524,4.437
		c-0.783,0.783-1.826,2.349-0.521,3.653c3.13,2.871,1.564,6.002,3.392,7.309c2.348,1.826,4.698,2.87,4.175,3.915
		c-0.521,1.305-3.131-1.044-6.263-0.522c-1.827,0.261-3.131,1.305-3.131,3.914c0.261,0.785,0,1.827,1.304,1.827
		c1.565,0,1.044-2.349,5.219-0.522c3.131,1.305,2.871,3.393,3.654,5.219c0.522,1.305,2.088,1.828,2.61,2.871
		c-1.828,3.655-4.96,6.786-5.221,10.962c-0.261,4.436,0.784,16.181-5.74,18.008c-8.613,2.87-7.83-4.959-10.44-3.393
		c-1.044,0.522-4.436,7.83,4.176,13.049c5.22,3.393,14.093,0.521,18.007-1.826c6.003,0,12.526-2.088,18.008-7.308
		c4.959,5.479,11.744,7.308,18.792,7.308c2.87,1.304,9.654,5.48,17.483,1.566C143.088,113.421,142.306,107.158,140.479,103.766
		L140.479,103.766z M125.864,43.74c1.305-0.522,2.609,0.522,3.392,1.828c1.045,1.304,2.348,5.741,0.782,4.958
		C128.735,49.743,124.297,44.263,125.864,43.74L125.864,43.74z M105.247,35.65c0.522,0,0.784,0,0.784,0.261
		c0,0.521-0.522,1.044-1.305,1.044c-0.522,0-0.522,0-0.522-0.522C104.203,35.911,104.724,35.65,105.247,35.65L105.247,35.65z
		 M79.148,61.227c0-1.044,0-1.566,0.522-1.566c0.522,0,0.522,0.261,0.522,1.044c0.261,0.783,0.261,1.305-0.261,1.305
		C79.41,62.01,79.148,61.486,79.148,61.227z M80.715,68.012c-1.044,0.521-1.827,0.26-2.872,0.26c-1.043,0-1.827-1.043-2.87-0.783
		v-0.26c-0.783,0.261-1.827-0.261-2.609-0.261c0.261-1.304,2.088-0.784,2.609-1.304c2.088,0,3.654,1.826,5.48,1.566
		C80.715,67.489,80.454,67.751,80.715,68.012z M95.852,98.285c-0.261,3.131-2.088,4.958-3.131,7.307
		c0.522,0.783,1.044,0.262,1.826,0c0.522,1.305-4.176,3.132-4.697,2.61c-0.783-0.783,1.304-1.305,1.827-5.219
		c0.261-2.872-0.261-9.135,0.261-11.744c0.522-1.827,1.827-3.654,3.131-4.698c0,0,0.261,1.827,0.261,4.177
		C95.33,92.283,96.635,92.803,95.852,98.285z M114.119,106.896c-1.305-0.26-6.524,1.566-11.743-5.48
		c-1.566-2.088-2.609-5.48-3.132-10.96c-0.521-5.741,4.438-12.788,3.393-13.831c-1.566,0.783-9.134,4.697-12.267,8.874
		c-1.565,2.087-3.131,9.916-3.392,12.266c-0.783,0-1.566-7.831,0.783-14.877c1.827-6.002,17.746-10.96,21.922-13.047
		c4.175-2.35,13.312-7.568,11.743-14.615c-0.26-3.393-2.869-6.002-5.48-7.568c-2.348-1.566-8.874-2.609-9.134-1.566
		c-0.261,1.305,3.131,2.871,2.87,4.959c3.132,1.304,6.786,3.394,6.786,7.567c0,3.915-6.002,9.917-12.789,12.005
		c-7.83,2.088-15.659,5.219-18.79,9.396c-4.437,5.481-0.522,21.66-3.655,27.924c-0.521,1.044-2.348,2.609-3.131,3.653
		c-0.522,0.522,0,0.522,0,1.306c-0.783,0.782-4.175,2.088-7.046,1.565c-1.827-0.261-2.609,0-3.653-0.783
		c-1.305-0.782-2.871-2.349-3.132-3.131c0.261-0.261,3.655,1.565,7.569,1.043c2.609-0.521,6.524-2.349,7.567-6.002
		c1.827-4.697-2.088-15.659,4.958-25.836c3.915-5.48,16.181-10.7,24.011-13.048c3.916-1.567,2.611-6.264,4.698-9.657
		c0.262-0.261,0-1.044-0.52-1.044c-1.306,0.261-7.048,1.566-7.571,2.088c-0.521,0.784-2.088,3.131-2.088,3.915
		c1.304,1.304,5.742-0.783,4.437,2.609c-0.783,1.566-10.178,0.261-12.266,1.307c-2.088,1.304-4.437,3.392-5.22,5.218
		c-0.522,1.826-1.827,3.393-3.132,3.653c-1.826,0-3.653,0.522-4.697-1.304c-0.261-0.783-0.261-1.826-0.261-2.609
		c4.958-2.088,7.308-5.219,8.352-6.002c1.305-0.522,4.958-0.784,5.481-1.044c0.261-0.261,0.521-1.565,0.261-2.088
		c-0.261-0.262-3.394-2.349-4.175-3.393c-1.044-0.783-2.871-3.393-3.916-3.393c-1.044-0.261-2.348,1.566-4.958,1.827
		c-5.742,0.783-4.699,2.609-5.481,2.609c-1.043,0-1.305-1.827-1.826-3.654c-0.261-2.088,2.348-3.131,1.044-4.437
		c-0.261-0.261-1.826,1.828-2.609,0.784c-0.783-0.784,0-1.828,2.087-3.132c0.783-0.521,9.396-4.435,9.657-4.697
		c0,0,0.522-0.522,0.783,1.304c0,1.566,2.609,0.521,2.87,2.609c0.261,0.783,4.699-1.305,4.699-2.349
		c-0.261-0.783-2.088,0-2.088-0.522c-0.261-0.261,0.783-1.044,0.783-1.305c-0.261-0.261-1.566-0.261-1.827-0.261
		c-0.261-0.261-0.261-1.304,0-1.566c0.26-0.521,2.609,0.523,2.609-0.26c0.261-0.782-1.566-1.565-2.871-1.565
		c-1.044,0-2.349,0.783-2.871,0.783c-0.261-0.783,0.783-1.044,1.305-1.305c4.958-1.566,13.049-1.044,15.398,0
		c4.698,1.826,5.219,4.175,6.785,4.175c1.306,0,1.306-1.827,1.306-1.827c1.563,1.305,4.956,0.262,6.522-1.305
		c0.784-0.783,0.784-3.393,0.262-4.175c-1.566-0.522-1.306,1.305-1.828,1.828c-0.261,0.521-0.781,2.088-2.348,1.043
		c-1.565-1.305,0-4.175-0.521-4.697c-0.784-0.522-4.438,1.304-4.699,4.175c0,0,0,0.784,0.523,1.566
		c-1.566-0.261-2.089-3.914,1.827-5.48c2.87-1.305,2.609-1.826,3.652-1.826c1.565,0,3.653,2.87,4.438,4.698
		c0.782,2.609-2.091,4.437-0.785,6.524c2.352,2.609,4.698,3.131,7.83,6.786c3.394,3.653,5.221,12.787,4.438,16.441
		c-1.045,3.393-10.701,9.133-11.746,9.655l-0.781,0.261c2.869-4.697,7.046-7.828,9.916-12.787c1.046-2.609,1.306-6.264-0.262-8.874
		c-1.044-1.826-2.611-3.914-3.913-5.219c-1.043-1.305-4.437-4.175-7.048-4.175c-0.521,0-0.521,0.783-0.261,1.043
		c2.611,3.132,5.741,6.787,6.523,9.917c0.522,3.132,0,6.002-1.044,8.612c-0.521-0.521-0.261-1.305-0.521-2.088
		c0.262-0.522-0.261-0.783-0.523-1.042c-0.258,0.261-0.782,0-1.042,0.521c0,0.783-6.264,9.657-9.136,13.571
		c-1.304,1.566-2.869,6.785-3.914,6.523c-0.261-4.175,1.566-7.567,2.087-8.351c0.522-1.044,2.872-4.175,3.132-5.219
		c-0.261-0.522-0.781-0.522-1.306-0.522c-1.304,1.305-6,4.959-7.828,8.09c-2.087,2.871-4.175,9.396-2.348,14.354
		c0,0,0.261,0.522,0.783,0.261c0.521-0.522,0.262-1.305,0.521-2.088c1.827,3.914,2.088,7.83,4.437,10.438
		c2.087,2.349,6.523,4.958,7.046,5.221C115.164,106.374,114.642,106.896,114.119,106.896L114.119,106.896z M82.803,66.446
		c0.782,0,1.044,0.262,1.304,1.043c0.261,0.522,0,0.783-0.262,0.783c-0.783,0-1.043,0-1.043-0.521
		C82.542,66.967,82.281,66.446,82.803,66.446L82.803,66.446z M84.368,64.358c0-0.261,1.044-1.304,1.827-1.304
		s0.522,0.782-0.261,1.304c-0.261,0.261-0.522,0.783-1.044,0.783C84.629,65.141,84.368,64.879,84.368,64.358L84.368,64.358z
		 M134.216,111.594c-1.827,0.783-6.002,1.827-11.222-3.653c-5.742-6.002-6.003-13.311-4.176-19.573
		c0.521-1.565-1.305-0.783-2.088,1.304c-1.046,1.828-1.566,6.264-2.089,6.524c-1.305,0.522-3.394-8.089,1.563-10.699
		c3.657-1.567,14.616-7.831,15.662-8.874c0,2.609-6.003,7.568-7.048,8.35c-3.132,2.609-5.48,7.046-4.436,10.701
		c0.521,1.827,0.782,2.87,1.824,3.393c0.784,0,0.784-0.783,1.045-1.044c0.784,0.783,0.521,2.348,0.784,3.131
		c1.044,2.609,2.609,5.219,4.437,7.307c1.827,1.305,4.697,2.349,6.784,1.826C135.78,111.072,134.737,111.072,134.216,111.594
		L134.216,111.594z"/>
</g>
</svg>
