<?xml version="1.0" encoding="utf-8"?>
<!DOCTYPE svg PUBLIC "-//W3C//DTD SVG 1.1//EN" "http://www.w3.org/Graphics/SVG/1.1/DTD/svg11.dtd">
<svg version="1.1" xmlns="http://www.w3.org/2000/svg" xmlns:xlink="http://www.w3.org/1999/xlink" x="0px" y="0px" width="216px" height="216px" viewBox="0 0 216 216" enable-background="new 0 0 216 216" xml:space="preserve">
<rect x="1.5" y="1.5" fill="#FEFBE7" width="213.095" height="213.094"/>
<path fill-rule="evenodd" clip-rule="evenodd" fill="#653C16" d="M117.256,49.9h-8.192c-0.189,0.468-3.389,0.526-4.038,0.55
	c-1.032,0.038-1.198,0.148-2.08,0.213c-0.566,0.042-1.283,0.438-1.965,0.438c-0.428,0.287-0.917,0.319-1.487,0.698
	c-0.561,0.373-0.763,0.623-1.217,1.076c-0.385,0.385-0.753,0.891-1.091,1.203c-0.237,0.219-0.367,0.424-0.538,0.555
	c-0.321,0.246-0.558,0.175-0.692,0.509h-0.765c-0.169,0-1.091,0.437-1.748,0.437v0.218h-0.655v0.218H92.46
	c-0.622,0-5.512,2.927-6.322,3.399c-1.057,0.616-5.244,3.372-6.458,3.372c-0.24,0.453-2.957,1.653-3.625,2.054
	c-1.364,0.818-2.205,1.4-3.43,2.359c-1.078,0.844-4.524,5.401-4.524,6.943v0.546h-0.218v0.328c0,0.588-0.013,1.685-0.437,1.856
	c0,1.821-0.835,2.975-1.422,4.147c-0.259,0.519-1.915,3.177-2.292,3.278c-0.014,0.614-2.378,3.255-2.403,4.368l-0.267,0.02
	l-0.803,2.384l-0.132,1.746c-0.058,0.654,0.109,0.952,0.109,1.638c0.132,0.197,0.218,0.191,0.218,0.437v0.437h0.219v0.328
	c0,0.346,0.978,1.593,1.266,1.792c0.688,0.477,1.416,0.648,2.015,1.021l1.744,0.244h1.857v-0.218h0.655
	c0.859,0,1.89-0.43,2.535-0.633c0.398-0.125,0.821-0.22,1.179-0.35c0.175-0.063,1.03-0.546,1.092-0.546
	c0.409,0,0.636,0.168,0.882,0.276l2.504,0.379h0.655c0.245,0,0.24-0.086,0.449-0.168l2.81-0.641l2.371-0.954l0.05,0.125v-0.218
	h0.328c0.1,0,1.637-0.581,1.748-0.655h0.655c0.197-0.132,0.192-0.218,0.437-0.218l0.879-0.042l3.271,0.37l0.99,0.056l3.27-0.384
	c0.197-0.132,0.192-0.218,0.437-0.218h0.656l0.006-0.189l3.8-0.851l1.528-0.441l2.325-0.578l0.314-0.234h0.437
	c0.197-0.132,0.192-0.218,0.437-0.218h0.437v-0.218h0.655c0.245,0,0.24-0.086,0.437-0.219h0.546
	c0.197-0.132,0.192-0.218,0.437-0.218h0.437v-0.218h0.874c0.245,0,0.24-0.086,0.437-0.219h0.764
	c0.197-0.132,0.192-0.218,0.438-0.218h0.982v-0.218l0.438,0.005l4.15-0.442h1.529v-0.219h0.983c3.979,0,7.44-0.421,10.911-0.885
	c3.348-0.448,5.82-3.264,8.532-3.264c3.169,0,4.098,0.57,6.48-0.729c0.909-0.496,4.171-2.329,5.22-2.313l0.315-0.234l0.413-0.076
	l1.443-0.361l0.021-0.134l3.147-0.74c0.167-0.414,0.958-0.374,1.367-0.598c0.476-0.261,0.873-0.505,1.247-0.828
	c0.367-0.317,0.611-0.612,0.924-1.042c0.455-0.625,0.41-0.889,0.708-1.355l0.123-1.527v-0.765c0-2.937-1.749-4.648-3.305-6.087
	c-0.861-0.797-1.665-1.38-2.511-2.186c-1.131-1.079-1.251-1.21-2.218-2.478c-1.276-1.673-2.056-4.453-3.654-5.738
	c-0.688-0.553-5.366-3.275-6.227-3.275h-0.437c-0.107-0.264-0.638-0.437-0.983-0.437h-0.328l-0.021-0.146l-1.509-0.51
	c-0.708,0-1.43-0.294-2.036-0.476c-0.651-0.194-0.399-0.279-0.915-0.396c-0.443-0.101-0.627-0.11-1.057-0.254
	c-0.557-0.186-3.622-1.167-3.966-1.167h-0.327v-0.218h-0.983v-0.219l-0.549,0.018l-3.178-0.438l-0.315-0.234
	c-1.496,0-2.413-0.287-3.607-0.324C119.937,50.539,117.43,50.33,117.256,49.9L117.256,49.9z M151.336,77.199
	c0-0.407,0.53-3.058,0.631-3.737c0.144-0.968,0.352-2.982,0.352-3.907c0.566,0.151,2.033,1.733,2.455,2.241
	c0.577,0.693,1.478,2.038,1.478,3.219v0.218c0,1.441-0.195,2.125-0.954,2.869c-0.39,0.382-1.907,1.172-2.541,1.172h-0.546v0.218
	h-0.328c-0.511,0-0.607,0.328-1.42,0.328l0.746-2.333l0.128,0.04V77.199L151.336,77.199z M140.194,70.211
	c0-4.59-1.112-9.815-2.949-12.558l1.965,0.125c0.122,0.316,1.435,0.478,1.881,0.616c0.57,0.177,1.214,0.441,1.709,0.694
	c1.163,0.593,1.921,1.326,2.941,1.973c1.105,0.701,3.737,4.186,3.737,5.982h0.219v0.546l0.514,3.375l-0.077,1.648h-0.218v0.874
	c0,0.585-0.655,2.255-0.655,2.621v0.328c-0.247,0.1-0.862,1.793-1.125,2.152c-0.592,0.81-0.815,1.097-1.497,1.779
	c-0.764,0.765-2.818,2.293-4.26,2.293v0.219h-0.983c-0.379,0-0.167,0.218-0.546,0.218h-2.513c-0.037-0.449-0.109-0.244-0.109-0.655
	c0-0.394,0.733-2.53,0.983-2.621v-0.328c0-0.043,0.615-3.759,0.64-3.837c0.247-0.778,0.344-3.068,0.344-4.134V70.211L140.194,70.211
	z M109.172,53.176c0.09-0.087,0.261-0.218,0.438-0.218h6.117l3.166,0.081l-0.205,0.623l-0.121-0.048
	c0,1.809-3.714,4.167-3.714,6.989c-0.681,0.247-0.048,1.27-0.765,1.529v0.328c0,1.689-0.72,4.101-0.874,6.006
	c-0.04,0.495-0.125,1.048-0.242,1.505c-0.147,0.574-0.015,1.02-0.091,1.657c-0.07,0.601-0.301,2.193-0.451,2.934
	c-0.354,1.753-0.839,3.875-1.856,5.023c-0.754,0.851-0.716,1.048-1.72,1.774c-0.352,0.254-0.551,0.458-1.012,0.736
	c-0.371,0.224-0.722,0.333-1.072,0.566c-0.631,0-1.151,0.17-1.639,0.109l-1.198-0.134c-1.135-0.733-1.326-0.519-2.256-1.764
	c-0.35-0.468-0.889-2.546-1.243-2.689v-0.546c0-0.42-0.061-0.449-0.328-0.546l-0.517-4.372l-0.029-1.525h-0.219v-2.075
	c0-1.233-0.208-2.217-0.223-3.272c-0.015-1.066,0.082-2.358,0.005-3.39c-0.084-1.123-0.196-1.954-0.215-3.279
	c-0.011-0.761-0.441-2.438-0.441-2.944v-0.328c0.468-0.051,1.542-1.004,2.148-1.238c0.747-0.289,0.567-0.147,1.236-0.511
	c0.085-0.046,1.064-0.346,1.247-0.391C104.79,53.347,107.112,53.176,109.172,53.176L109.172,53.176z M62.859,90.521
	c0.358-0.535,0.457-1.077,0.763-1.64c0.277-0.508,0.561-0.941,0.841-1.452c0.416-0.757,1.545-2.284,1.563-3.132h0.218
	c0.283,1.214,0.747,2.265,0.96,3.736c0.103,0.708,0.493,3.527,0.896,3.689v0.546c0,0.625,1.639,2.456,1.639,2.621
	c0,0.37-1.146,0.577-1.311,0.982c-0.753,0-1.608,0.407-2.513,0.328l-1.745-0.137c-0.704-0.442-1.532-0.902-1.532-2.047v-2.402
	C62.64,91.104,62.859,91.271,62.859,90.521L62.859,90.521z M70.396,75.016c0-0.308,1.226-2.762,1.435-3.152
	c0.298-0.557,1.404-2.191,1.861-2.616c0.283-0.264,0.757-0.883,1.071-1.223c0.175-0.189,0.941-0.849,1.179-1.006
	c0.515-0.339,2.326-1.503,2.974-1.503h0.109c0.255,0,0.437,0.181,0.437,0.437v0.327c0,0.845-0.684,2.565-1.202,2.839
	c-0.009,0.414-0.543,2.224-0.703,2.901c-0.116,0.489-0.28,2.765-0.28,3.323v2.184l0.253,2.836l-0.035,0.768h0.218
	c0,1.249,0.28,2.094,0.522,3.082c0.204,0.83,0.662,2.153,0.679,2.925l0.32,0.129l0.008,0.525c0.288,0.116,0.618,1.04,0.811,1.374
	c0.318,0.551,0.516,0.811,0.838,1.346c0.192,0.318,1.531,2.447,1.738,2.521v0.546l-1.528,0.123l-0.001,0.205h-0.546
	c-0.383,0-2.353,0.579-2.955,0.65c-1.229,0.145-2.124,0.005-3.271,0.005h-1.093v-0.218h-0.546c-0.066-0.184-1.212-1.593-1.465-1.92
	c-0.348-0.448-1.023-1.913-1.265-2.011v-0.546c-0.422-0.153-0.437-0.749-0.437-1.311h-0.219v-0.765c0-0.245-0.086-0.24-0.218-0.437
	c0-1.063-0.438-2.598-0.328-3.822l0.294-3.716l0.033-0.543h0.218v-0.655c0-0.347,0.499-1.841,0.656-2.075l0.129-1.089l0.3-0.132
	L70.396,75.016L70.396,75.016z M116.6,62.13c0-0.032,0.902-2.34,0.984-2.511c0.484-1.01,0.693-1.313,1.333-2.162
	c0.896-1.189,2.163-2.823,3.363-3.626c1.621,0.377,3.448,0.31,5.221,0.568c0.593,0.087,1.766,0.292,2.351,0.49
	c0.643,0.216,1.638,0.679,2.049,0.791c0.938,0.255,2.661,1.734,3.228,2.452c0.512,0.648,0.646,1.07,1.078,1.761
	c0.056,0.089,0.711,2.123,0.711,2.128v0.328h0.219v0.874h0.219v0.874h0.218v0.328l0.652,6.433l-0.105,1.757l-0.473,5.904
	l-0.309,0.307c0.017,0.763-0.202,0.596-0.202,1.105v0.328c-0.202,0.082-0.437,0.526-0.437,0.765v0.328
	c-0.08,0.029-1.313,1.693-1.666,2.047c-0.416,0.417-1.563,1.322-2.267,1.337l0.053,0.136l-1.001,0.392
	c-0.135-0.024-1.032,0.346-1.127,0.346h-0.438v0.218c-1.262,0-2.801,0.603-4.373,0.651c-1.233,0.039-3.122,0.44-4.475,0.44h-1.529
	v0.219h-0.873c-2.344,0-5.617,0.348-7.6,0.812c-1.216,0.285-2.471,0.299-3.652,0.607c-0.603,0.158-2.941,0.655-3.495,0.655h-0.328
	v0.218h-0.546c-0.35,0-1.398,0.437-1.748,0.437h-0.328v0.218h-0.874v0.218h-0.546c-0.451,0-3.416,1.311-4.26,1.311H95.3v0.218
	l-5.223,0.885l-0.02-0.121h-1.42c-2.321,0-4.436-1.26-5.53-2.553c-0.756-0.894-1.012-1.411-1.551-2.49
	c-0.271-0.541-0.457-0.781-0.695-1.38c-0.169-0.427-0.118-1.276-0.525-1.44v-0.328l-0.905-4.78l0.14-0.024v-0.873h-0.218v-3.604
	l0.52-4.372l0.26-0.311c-0.016-1.145,0.858-2.432,0.858-2.634v-0.327c0.237-0.086,1.499-2.16,1.745-2.514
	c0.428-0.615,1.497-1.487,2.124-2.027c0.498-0.428,4.792-2.994,5.307-2.994h0.328c0.088-0.218,1.05-0.655,1.311-0.655h0.328
	c0.141-0.349,3.563-1.42,4.26-1.42v0.765c0,0.591,0.092,0.85,0.328,1.201l0.137,3.711l-0.028,1.858h0.218v3.712l0.338,4.695
	l0.208,0.001l0.324,4.041l0.238,0.314l-0.016,0.56c0.132,0.197,0.219,0.191,0.219,0.437v0.437h0.218v0.437
	c0,0.313,0.814,1.812,0.984,2.074c0.336,0.52,0.012,0.363,0.594,0.936c0.271,0.267,0.47,0.51,0.743,0.786
	c0.918,0.927,2.667,1.556,4.452,1.556h1.311c0.482,0,0.391-0.219,1.202-0.219c0.076-0.114,2.168-1.209,2.595-1.555
	c0.828-0.672,1.443-1.059,1.958-2.083c0.249-0.496,0.642-0.664,0.844-1.231c0.207-0.584,0.313-0.91,0.516-1.45
	c0.13-0.35,0.859-2.84,0.859-3.181v-0.874h0.219v-0.982c0-1.501,0.661-3.891,0.653-5.571c-0.004-0.931,0.17-1.962,0.396-2.771
	c0.058-0.209,0.479-2.572,0.479-2.578v-0.328h0.218V62.13L116.6,62.13z M3,137.259v0.546c0.352,0.404,0.275,0.982,1.093,0.982
	h211.033c0.423,0,0.457-0.504,0.874-0.654v-1.093c-0.318-0.366-0.498-0.655-1.201-0.655H4.202C3.08,136.385,3.491,136.899,3,137.259
	L3,137.259z M91.805,161.938h34.845c0.574-0.784,1.967-0.161,1.967-2.948h1.528c1.274,0,3.496-1.112,3.496-2.184v-0.983
	c0-0.578-0.759-1.369-1.112-1.618c-0.594-0.418-1.186-0.565-2.165-0.565h-0.219l-1.418,0.126l-0.002-0.891
	c-0.511-0.206-0.499-2.074-2.949-2.074v-0.219h-3.167l-3.165,0.254l-19.337-0.035l-3.493-0.254l-1.969,0.035l-1.849,0.271
	c-0.587,0.334-2.302,0.914-2.302,1.912v0.983h-2.075c-0.985,0-3.277,1.103-3.277,1.965v1.093c0,1.004,2.511,2.284,3.714,2.184
	l1.855-0.135l0.002,1.336C90.712,161.112,91.328,161.485,91.805,161.938L91.805,161.938z M93.01,152.027l2.066-0.283l2.408,0.038
	v0.219h24.359v-0.219h2.512l2.069,0.266c0.146,0.301,1.099,0.434,1.099,1.372v0.983h-0.219l-0.132,1.745l0.158,2.512l0.192,0.002
	v0.654c0,0.902-0.87,1.529-1.639,1.529h-3.495l-2.837-0.254l-19.446,0.035c-1.238,0-8.192,0.899-8.192-0.327v-2.402l-0.087-4.265
	l-0.131,0.006v-0.437c0-0.497,0.677-0.983,0.983-0.983h0.328L93.01,152.027L93.01,152.027z M128.397,156.041
	c0-1.324,0.491-1.201,1.856-1.201h0.219c1.101,0,1.966,0.327,1.966,1.42v0.327c0,0.577-1.247,1.201-2.075,1.201h-0.874l-0.98-0.122
	l-0.136-0.967L128.397,156.041L128.397,156.041z M88.091,155.167v-0.218h2.294c0.414,0,0.437,0.663,0.437,1.092v0.982
	c0,0.333-0.105,0.441-0.218,0.655l-1.966,0.117l0-0.227H88.2c-0.849,0-1.857-0.426-1.857-1.201v-0.218
	C86.343,155.588,87.457,155.167,88.091,155.167L88.091,155.167z M115.182,100.479c-0.195,0.348-0.758,0.473-1.256,0.801
	c-0.577,0.381-0.604,0.611-1.033,1.041c-0.305,0.303-1.316,2.153-1.316,2.833h-0.219l-0.053,0.319l-0.604,4.049h-0.218v7.098h0.218
	l-0.02,1.859l0.66,5.798l0.234,0.314c0,3.816,2.815,3.824,3.278,4.678l1.418,0.127h1.529c0.694,0,2.48-0.785,2.87-1.172
	c0.533-0.529,1.172-1.86,1.152-2.886l0.343-0.42l0.769-8.626l0.064-2.737l-0.704-6.667l-0.175-0.327l-0.387-2.062
	c-0.571-0.852-0.729-1.546-1.484-2.556c-0.463-0.619-1.709-1.375-2.775-1.375v-0.218l-0.439-0.025L115.182,100.479L115.182,100.479z
	 M112.777,109.304c0-0.895,0.691-3.691,0.999-4.352c0.546-1.171,1.302-2.31,3.042-2.31h0.109c1.629,0,1.65,0.75,2.249,1.683
	c0.335,0.523,0.919,2.138,0.919,2.903v0.328h0.219v0.546l0.462,3.929l-0.025,5.681l-0.82,7.433l-0.288,0.308
	c0.017,1.284-0.614,0.871-0.857,1.542h-0.656v0.219h-1.856c-1.002,0-1.984-0.795-2.403-1.42c0-0.647,0.152-1.137-0.327-1.311
	l-0.214-2.949l-0.223,0.001v-0.765l-0.396-4.362l0.067-1.425h-0.219v-4.149h0.219V109.304L112.777,109.304z M97.703,101.005
	l0.035,0.768l-0.253,2.508v8.081l0.136,0.002l-0.136,6.659v6.661c0,0.495,0.663,0.874,1.202,0.874c0.749,0,0.605-0.37,1.092-0.546
	v-8.955h0.218v-0.546h4.916c0.473,0,1.311,1.942,1.311,2.293v0.438h0.219v1.419h0.218v5.023c0,0.2,0.527,0.765,0.765,0.765h0.874
	c0.127-0.477,0.546-0.592,0.546-1.201l0.048-2.298l-0.375-4.582h-0.218v-0.655c-0.417-0.168-0.335-0.886-0.584-1.272
	c-0.146-0.226-0.727-0.804-0.727-1.13c0-0.25,0.493-0.702,0.675-1.072c0.276-0.563,0.262-0.542,0.481-1.267
	c0.279-0.923,0.81-1.702,0.81-2.793l0.04-0.55l-0.258-3.6c-0.378-0.564-0.552-1.327-0.948-2.001
	c-0.479-0.815-0.707-1.121-1.237-1.82c-0.483-0.636-2.92-2.075-4.041-2.075h-1.748C99.483,100.131,98.739,100.763,97.703,101.005
	L97.703,101.005z M142.27,89.976c0.705-0.284-0.271-0.916,2.298-0.877c0.858,0.012,1.891,0.113,2.945,0.113
	c2.211,0,3.898,0.218,6.008,0.218h4.587v0.218h14.2c7.455,0,15.119-0.109,22.393-0.109c3.75,0,7.501,0,11.251,0
	c1.856,0,3.715,0.009,5.571,0c1.415-0.007,4.368-0.281,4.368,1.202c0,1.824-2.499,1.304-4.369,1.311
	c-1.692,0.006-3.688-0.109-5.57-0.109h-10.813v0.218h-35.609c-3.068,0-6.313-0.089-9.508-0.214c-1.511-0.059-2.891-0.23-4.693-0.221
	C143.662,91.732,142.27,91.658,142.27,89.976L142.27,89.976z M3,90.194v1.31l0.765,0.52l28.4,0.136h13.654v-0.218h5.461v-0.219
	h3.495v-0.218h1.093c0.502,0,0.516-0.511,0.874-0.655v-0.874c0-1.528-5.606-0.655-7.113-0.671l-0.315,0.209l-9.175,0.134
	l-4.042,0.011l-32.66-0.124l0.04,0.146L3,90.194L3,90.194z M180.609,105.264l0.09,4.369l-0.178,12.776l-0.131-0.002h-0.327v-0.654
	c0-0.172-0.879-2.407-1.005-2.708c-0.201-0.483-0.853-2.349-0.85-2.867l-0.33-0.104c-0.009-0.387-1.821-4.977-2.092-5.553
	c-0.478-1.019-0.669-1.542-1.097-2.726c-0.299-0.824-0.876-1.877-2.055-1.877c-1.353,0-1.424,0.808-1.857,0.982v0.546
	c0,0.597-0.218,0.605-0.218,1.202v1.31h-0.219v15.725c0,0.498,0.613,0.565,0.765,0.982h0.655c0.41,0,0.329-0.4,0.861-0.548
	l0.122-0.98v-2.948c0-2.174-0.109-4.321-0.109-6.334c0-2.234,0.174-4.222,0.219-6.224h0.327c0.014,0.605,0.328,1.036,0.328,1.201
	v0.327c0.504,0.183,0.508,0.834,0.68,1.396c0.111,0.368,0.631,0.927,0.631,1.443v0.328l0.105-0.044l1.57,3.782l0.85,2.688
	l0.314,0.234c0,0.381,0.554,2.502,0.708,2.787c0.35,0.646,1.214,1.472,2.132,1.472c2.454,0,1.281-3.021,2.154-3.387l0.14-3.493
	c0.115-2.567-0.109-5.092-0.109-7.534c0-1.53,0.532-6.771-0.655-6.771h-0.655C180.954,104.063,180.609,104.862,180.609,105.264
	L180.609,105.264z M157.999,113.563v0.765h-0.219v0.655c0,0.244-0.087,0.239-0.165,0.442l-0.271,2.615v0.764h-0.219v0.546
	c0,0.351-0.438,1.397-0.438,1.748v0.437h-0.218v0.327c0,1.491-0.983,3.527-0.983,3.932v0.327c0,0.461,0.478,0.655,0.983,0.655
	c0.701,0,0.525-0.798,0.945-0.99l0.356-1.388l0.555-2.645l0.191-0.004l0.138-1.116l3.495,0.161l2.838-0.133l0.656,3.166
	c0.133,0.197,0.219,0.192,0.219,0.437v0.765h0.219v1.529c0,0.31,0.312,0.42,0.437,0.764h0.655c1.238,0,0.328-3.387,0.328-4.259
	h-0.219v-0.327c0-0.321-0.755-2.867-0.919-3.449c-0.167-0.588-0.61-3.253-0.61-3.867v-0.873h-0.218v-0.547
	c0-0.025-0.423-2.145-0.483-2.356c-0.193-0.682-0.5-1.549-0.484-2.352l-0.234-0.315l0.019-0.445l-1.984-4.36
	c-0.819,0.068-2.617,3.157-2.832,4.049c-0.149,0.623-0.646,1.743-0.882,2.503C158.539,111.095,157.999,113.225,157.999,113.563
	L157.999,113.563z M9.247,99.828L9.227,127.54c0,1.595,0.484,1.216,0.655,1.856l3.279,0.035l4.804-0.254l0.114-0.051l4.692,0.488
	h1.092c0.504,0,0.874-0.589,0.874-1.201l0.024-0.113l-0.185-0.916l-0.54-0.444l0.049-0.109l-5.465-0.273l-2.95-0.026l-3.822,0.135
	v-26.535c0-0.422-0.658-0.829-0.765-1.092l-0.953,0.035L9.247,99.828L9.247,99.828z M64.06,104.499v0.437h-0.218v0.655h-0.218
	c0,1.193-1.375,4.498-1.734,5.692c-0.226,0.752-2.089,5.294-2.089,5.337l-0.068,0.408l-2.008,4.833l-0.229,0.002l-0.536-2.841
	h-0.218v-0.437c0-0.527-0.66-2.738-0.874-3.058c0-1.032-2.48-5.641-3.037-6.574c-0.435-0.729-3.779-5.438-4.282-5.438h-0.874
	c-0.158,0.438-0.546,0.493-0.546,1.092c0,0.594,1.131,2.014,1.498,2.434c0.688,0.787,1.047,1.414,1.627,2.304
	c0.986,1.513,2.14,3.254,2.852,5.012c0.891,2.199,1.197,3.635,1.754,6.108c0.309,1.371,1.309,5.218,2.645,5.218
	c1.032,0,1.166-0.798,1.565-1.603c0.337-0.681,0.659-1.536,1.055-2.222c0.145-0.251,1.968-4.458,1.968-4.475v-0.438h0.219
	c0-1.03,1.214-3.515,1.507-4.608c0.203-0.759,1.661-4.102,1.661-4.563v-0.437h0.218v-0.655h0.218c0-0.86,1.191-3.385-0.218-3.385
	h-0.874C64.715,103.602,64.06,104.011,64.06,104.499L64.06,104.499z M145.874,101.114c-0.303,0.572-0.975,0.501-1.56,1.171
	c-0.291,0.333-1.05,1.437-1.28,1.559c0,1.198-0.765,2.593-0.765,4.259v0.437c0,1.277,0.743,2.762,0.765,3.712
	c0.443,0.119,0.665,1.144,1.117,1.613c0.56,0.583,0.834,0.845,1.57,1.269c0.396,0.229,3.568,1.923,3.757,1.923h0.328
	c0.216,0.599,2.621,0.98,2.621,4.368v0.437c0,2.504-2.081,5.352-4.369,5.352h-0.655c-1.058,0-2.021-0.977-2.559-1.592
	c-0.584-0.669-0.724-2.776-1.374-2.776h-0.873c-0.058,0.682-0.328,0.303-0.328,0.765v0.437c0,0.244,0.086,0.239,0.219,0.437v0.546
	c0.766,1.144,0.485,1.432,1.666,2.593c0.395,0.389,2.188,1.448,2.813,1.448l0.767,0.025l1.636-0.135v-0.219h0.438
	c0.727,0,2.427-1.806,2.889-2.354c0.488-0.58,1.59-2.865,1.59-3.762v-2.402c0-0.701-1.112-2.488-1.465-3.013
	c-0.41-0.607-0.477-0.687-1.092-1.094c-0.39-0.257-1.296-0.616-1.376-0.917c-0.125-0.003-2.211-0.794-2.304-0.863
	c-0.626-0.464-1.4-0.728-1.966-1.201c-1.015-0.851-1.956-2.635-1.956-4.487v-1.092c0-1.078,0.359-2.314,0.809-3.014
	c0.316-0.493,0.367-0.667,0.808-1.048c0.274-0.237,1.12-0.489,1.228-0.715l0.87-0.137c0.401-0.064,1.063,0.109,1.638,0.109
	c0.768,0.514,1.051,0.17,1.813,1.137c0.827,1.052,0.591,0.861,0.591,2.248c0,0.617,0.277,0.379,0.328,0.983
	c0.434,0.036,0.263,0.109,0.546,0.109c0.411,0,0.206-0.072,0.655-0.109c0.062-0.263,0.437-1.189,0.437-1.201v-0.437
	c0-0.775-0.681-2.196-0.98-2.732c-0.444-0.798-1.974-1.245-2.078-1.636c-0.995,0-1.274-0.328-1.966-0.328h-1.42
	C146.893,100.786,146.785,101.114,145.874,101.114L145.874,101.114z M133.863,101.03c-0.201,0.106-0.196,0.193-0.441,0.193h-0.437
	v0.218c-0.994,0-2.572,1.024-3.053,1.535c-0.744,0.79-1.208,1.843-1.208,3.379l-0.025,0.331l0.135,1.417h0.219v0.328
	c0,0.607,1.75,3.353,2.098,3.909c0.603,0.959,1.872,2.713,2.624,3.492c0.722,0.746,5.437,6.018,5.437,6.686v0.874
	c0,0.46-0.875,1.903-1.094,2.292c-0.325,0.577-1.166,1.421-2.074,1.421h-0.982c-2.087,0-4.151-1.346-4.151-3.386
	c-0.388-0.14-0.212-0.327-0.765-0.327c-0.376,0-0.423,0.081-0.765,0.109c-0.049,0.209-0.218,0.623-0.218,0.764
	c0,1.385,0.93,2.439,1.663,3.143c0.597,0.572,2.322,1.554,3.361,1.554h2.185c0.571,0,1.202-0.531,1.856-0.546
	c0.128-0.478,0.576-0.731,0.903-1.063c0.492-0.501,0.45-0.563,0.8-1.166c0.242-0.418,1.138-2.321,1.138-2.794v-0.765
	c0-1.75-1.724-3.083-2.515-4.147c-0.428-0.577-1.063-1.169-1.526-1.75c-0.458-0.574-1.048-1.245-1.56-1.826
	c-1.304-1.479-4.995-5.954-4.995-8.329v-0.437c0-1.724,2.163-3.167,3.823-3.167l0.002-0.193l1.637-0.135
	c1.121-0.105,2.84,2.652,2.84,3.931c0.193,0.29,0.388,0.546,0.874,0.546c0.358,0,0.873-0.333,0.873-0.546
	c0-2.485-2.179-5.788-4.587-5.788l-0.334-0.038L133.863,101.03L133.863,101.03z M85.142,103.735v0.328
	c-0.885,0.357-1.857,7.982-1.857,9.937v2.402c0,1.786,0.257,3.159,0.434,4.699c0.152,1.328,0.987,3.324,0.987,4.256
	c0.49,0.731,0.692,1.421,1.277,2.217c0.876,1.194,0.902,0.87,2,1.604c2.642,0,2.962,0.231,5.002-0.896
	c0.95-0.525,2.535-2.22,2.535-3.69v-1.42c-0.33-0.119-0.415-0.437-0.874-0.437c-0.589,0-0.604,0.3-0.983,0.437
	c0,2.152-1.43,4.041-3.495,4.041h-1.639c-1.652,0-3.277-7.182-3.277-9.501l-0.007-5.133l0.444-3.493v-0.546l0.162-0.013l0.494-2.499
	h0.218V105.7c0-0.394,0.502-1.272,0.698-1.595c0.179-0.293,1.044-1.339,1.05-1.389l2.622,0.036c0.934,0.625,1.245,0.835,1.915,1.799
	c0.421,0.605,1.028,2.132,1.69,2.132c0.606,0,0.983-0.358,0.983-0.983c0-0.762-0.86-2.074-1.245-2.577
	c-0.372-0.486-0.472-0.636-0.904-1.061c-0.363-0.357-0.913-0.552-1.018-0.948c-0.701-0.015-0.821-0.328-1.311-0.328h-0.328v-0.218
	h-1.529c-0.784,0-2.175,0.603-2.598,1.007C86.333,101.817,85.142,103.431,85.142,103.735L85.142,103.735z M35.988,115.746
	c0-1.894,0.551-4.068,0.771-6.108c0.077-0.712,0.539-1.997,0.716-2.778c0.205-0.901,0.331-2.033,1.353-2.033
	c1.902,0,0.874,1.413,0.874,2.621c-0.487,0.727-1.529,6.977-1.529,8.408l-0.234,0.314l-0.207,2.088l0.004,0.328h-0.219l-0.607,2.715
	c-0.242,0.218-0.933,2.21-1.316,2.787c-0.358,0.54-1.323,2.142-2.009,2.142H32.82l-0.513-0.581l-0.677-1.656l-1.411-3.34
	c-0.021-0.602,0-1.027-0.458-1.193v-0.327c0-0.408-0.339-1.742-0.655-1.856v-0.437c0-1.047-1.461-4.445-1.918-5.29
	c-0.429-0.793-0.643-1.678-1.169-2.435c-0.142-0.204-1.391-2.185-1.391-2.213v-0.328c0-0.698,0.306-1.092,0.983-1.092h0.218
	c0.859,0,1.966,2.177,2.331,2.911c0.31,0.624,0.592,1.083,0.909,1.711c0.21,0.417,0.397,1.548,0.801,1.711v0.655l0.131-0.047
	l1.366,3.88c0.032,0.738,0.25,0.571,0.25,1.081v0.327h0.219v0.437c0,0.38,0.218,0.167,0.218,0.547v0.327h0.218
	c0,0.673,0.03,1.038,0.437,1.311l-0.121,0.042l0.866,2.477c0.543-0.146,1.658-2.975,1.658-3.829l0.234-0.314l0.48-2.622
	L35.988,115.746L35.988,115.746z M203.33,101.005h-0.547c-1.154,0-3.094,1.66-3.606,2.4c-0.656,0.947-1.746,2.712-1.746,4.261v1.31
	c0,2.614,2.203,5.151,3.996,6.052c1.135,0.569,2.151,1.175,3.246,1.777c0.275,0.152,1.187,0.867,1.415,1.098
	c0.307,0.31,1.006,1.225,1.174,1.338c0,0.745,0.438,1.081,0.438,1.856v2.293c0,1.839-2.247,3.713-4.261,3.713h-0.218
	c-2.266,0-3.496-1.321-3.496-3.604c-0.155-0.232-0.236-0.546-0.546-0.546h-0.219c-0.376,0-0.423,0.08-0.765,0.108
	c-0.028,0.342-0.109,0.389-0.109,0.765v0.765c0,0.245,0.087,0.239,0.162,0.453l0.385,1.513c0.316,0.084,0.849,0.995,1.228,1.284
	c0.446,0.341,1.196,0.548,1.722,0.899h0.655c0.197,0.132,0.192,0.219,0.437,0.219l0.549,0.025l1.854-0.135
	c0.162-0.448,3.877-1.683,3.93-4.155l0.311-0.105l0.129-1.854v-1.528c0-1.447-0.804-2.827-1.398-3.734
	c-0.435-0.663-2.707-2.32-2.752-2.49c-0.719-0.017-3.507-1.762-4.012-2.214c-1.034-0.925-2.215-2.216-2.215-4.12v-0.546
	c0-2.153,2.446-5.46,4.479-5.46h0.328c1.223,0,2.096,0.574,2.692,1.24c0.801,0.894,0.349,2.691,1.349,2.691h0.109
	c0.612,0,0.765-0.377,0.765-0.983v-0.327c0-2.754-1.786-2.766-2.436-3.852l-0.952-0.5l-1.418-0.126h-0.655V101.005L203.33,101.005z
	 M185.962,100.459c0,0.717,0.482,0.724,0.655,1.201l0.66-0.044l2.289,0.262v23.15c0,2.261,2.403,1.653,2.403,0.437l-0.002-23.603
	l3.293-0.418l-0.015-0.111c0.028-0.342,0.109-0.388,0.109-0.765v-0.546c0-0.264-0.5-0.764-0.765-0.764l-0.874,0.035l-6.116-0.035
	h-0.765C186.404,99.258,185.962,99.974,185.962,100.459L185.962,100.459z M99.892,102.559l1.737-0.282l0.225,0.038
	c1.145,0,2.453,0.847,3.028,1.45c0.288,0.302,0.69,0.949,0.891,1.293c0.309,0.531,0.42,1.145,0.669,1.515
	c0,0.713,0.218,0.694,0.218,1.311v1.638c0,1.54-0.172,1.574-0.547,2.619c-0.167,0.466-0.721,1.857-1.2,1.857h-4.916l-0.262-2.288
	l0.044-7.758L99.892,102.559L99.892,102.559z M42.105,104.39l-0.045,8.959l0.482,4.691v0.764h0.218v0.874h0.218v0.765
	c0,0.852,0.686,3.091,1.641,2.961l0.981-0.122c0.136-0.509,0.437-0.355,0.437-0.982v-0.546c0-0.026-0.28-1.619-0.347-1.947
	c-0.076-0.368-0.482-1.629-0.52-1.883c-0.184-1.246-0.338-2.989-0.335-4.36c0.006-3.166,0-6.333,0-9.5
	c-0.255-0.381-0.698-0.983-1.311-0.983h-0.109C43.037,103.08,42.105,103.823,42.105,104.39L42.105,104.39z M124.793,104.717v20.748
	c0,0.619,0.607,1.093,1.201,1.093c0.75,0,1.201-0.538,1.201-1.311v-19.983c0-0.654-0.477-1.311-0.982-1.311h-0.328
	C125.103,103.953,125.255,104.531,124.793,104.717L124.793,104.717z M159.746,115.2c0-0.955,0.501-3.188,0.768-3.929
	c0.201-0.562,0.3-1.188,0.542-1.751c0.198-0.463,0.54-1.135,0.657-1.636c0.365,0.097,0.765,1.188,0.765,1.638v0.327h0.218v0.328
	c0,0.492,0.656,2.163,0.656,3.058l0.233,0.314l0.674,4.703l-2.107,0.135l-2.734-0.213l0.13-2.646L159.746,115.2L159.746,115.2z
	 M123.919,148.615c0,0.252,0.075,0.328,0.327,0.328h0.219c0.295,0,0.301-0.053,0.546-0.109v-2.184
	c0.245,0.088,0.662,0.437,0.874,0.437h0.765c1.153,0,1.756-1.118,1.857-2.075v-1.201c-0.009-0.795-1.067-1.966-1.639-1.966
	l-1.056,0.058l-0.885,0.593l-0.135-0.65h-0.874V148.615L123.919,148.615z M125.011,143.483c0.269-0.289,0.39-0.655,0.874-0.655
	h0.546c0.438,0,0.983,0.676,0.983,1.201v0.873c0,0.674-0.387,1.201-0.765,1.201h-0.765c-0.367,0-0.874-0.488-0.874-0.982V143.483
	L125.011,143.483z M54.448,142.282v4.368c0,0.251,0.076,0.327,0.328,0.327h1.42c1.125,0,2.185-0.451,2.185-1.529v-0.108
	c0-0.308-0.303-0.836-0.765-0.874v-0.327c0.292-0.118,0.546-0.584,0.546-0.983v-0.109c0-0.255-0.225-0.324-0.328-0.764
	c-0.505-0.042-0.603-0.328-1.42-0.328h-1.639C54.524,141.954,54.448,142.03,54.448,142.282L54.448,142.282z M55.431,146.213v-1.528
	h0.655c0.476,0,1.202,0.209,1.202,0.655v0.218c0,0.434-0.277,0.215-0.437,0.655H55.431L55.431,146.213z M55.431,144.029v-1.201
	h0.983c0.335,0,0.655,0.101,0.655,0.437v0.219c0,0.293-0.611,0.546-0.765,0.546H55.431L55.431,144.029z M141.588,142.287
	l0.138,0.663l0.98-0.122h0.765c0.256,0,0.438,0.181,0.438,0.437v0.437l-1.078,0.134l-0.416,0.145
	c-0.76,0.063-1.128,0.662-1.128,1.469v0.109c0,0.644,0.601,1.529,1.202,1.529h0.655c0.286,0,0.743-0.42,0.983-0.546
	c0.025,0.308-0.003,0.437,0.327,0.437h0.655v-3.713c-0.033-0.5-0.401-1.42-1.311-1.42h-1.42
	C142.129,141.939,141.719,142.15,141.588,142.287L141.588,142.287z M142.379,145.34c0-0.773,0.818-0.765,1.639-0.765l-0.131,1.091
	c-0.104,0.188-0.217,0.438-0.525,0.438h-0.546c-0.256,0-0.437-0.181-0.437-0.437V145.34L142.379,145.34z M160.224,142.287
	l0.138,0.663l0.98-0.122h0.765c0.256,0,0.437,0.181,0.437,0.437v0.437l-1.077,0.134l-0.416,0.145
	c-0.76,0.063-1.128,0.662-1.128,1.469v0.109c0,0.644,0.601,1.529,1.202,1.529h0.655c0.286,0,0.743-0.42,0.982-0.546
	c0.026,0.308-0.002,0.437,0.328,0.437h0.655v-3.713c-0.033-0.5-0.402-1.42-1.311-1.42h-1.42
	C160.765,141.939,160.354,142.15,160.224,142.287L160.224,142.287z M161.015,145.34c0-0.773,0.818-0.765,1.638-0.765l-0.13,1.091
	c-0.104,0.188-0.217,0.438-0.525,0.438h-0.546c-0.256,0-0.437-0.181-0.437-0.437V145.34L161.015,145.34z M86.125,142.282v4.368
	c0,0.251,0.076,0.327,0.328,0.327h1.311c1.249,0,2.294-0.528,2.294-1.747c0-0.696-0.473-1.368-1.092-1.42v-0.327h-1.748v-1.529
	h-0.765C86.201,141.954,86.125,142.03,86.125,142.282L86.125,142.282z M87.217,146.104v-1.747h0.437l0.981,0.122
	c0.094,0.16,0.33,0.48,0.33,0.643v0.546l-0.485,0.389L87.217,146.104L87.217,146.104z M112.559,156.26
	c0-1.107,0.525-2.185,1.639-2.185h0.219c0.498,0,1.051,0.269,1.092,0.765h0.328l0.134,1.198l-0.024,1.531h-0.219v0.328
	c0,0.506-0.951,0.982-1.529,0.982c-1.307,0-1.094-0.895-1.639-1.092V156.26L112.559,156.26z M113.323,155.932
	c0-0.414,0.378-1.092,0.765-1.092h0.109c0.4,0,0.527,0.169,0.765,0.327c0,0.558,0.167,0.666,0.109,1.201l-0.126,1.418
	c-0.472,0.179-0.067,0.329-0.529,0.329h-0.656c-0.116-0.438-0.437-0.569-0.437-1.092V155.932L113.323,155.932z M177.988,142.282
	v4.149c0,0.295,0.052,0.301,0.109,0.546h0.764c0.332,0,1.919-2.917,1.967-3.494h0.219v2.948c0,0.295,0.052,0.301,0.108,0.546h0.547
	c0.251,0,0.327-0.076,0.327-0.327v-4.696h-0.765c-0.68,0-0.901,0.925-1.237,1.492c-0.212,0.356-0.89,1.593-1.057,1.784v-3.276
	h-0.655C178.063,141.954,177.988,142.03,177.988,142.282L177.988,142.282z M45.819,142.282v4.259c0,0.389,0.829,0.477,1.204,0.462
	l1.417-0.135c0.543-0.364,1.201-0.632,1.201-1.528c0-1.277-0.71-1.748-1.966-1.748h-0.874v-1.31c0-0.252-0.076-0.328-0.328-0.328
	h-0.328C45.895,141.954,45.819,142.03,45.819,142.282L45.819,142.282z M48.112,145.995h-1.092v-1.529l1.201,0.109
	c0.265,0.177,0.437,0.319,0.437,0.765v0.108C48.659,145.805,48.349,145.87,48.112,145.995L48.112,145.995z M36.425,146.432v0.109
	c0,0.211,0.195,0.437,0.328,0.437c1.216,0,0.909-0.867,1.509-1.094l0.129-2.073v-0.982h1.202v4.04
	c0.245,0.057,0.251,0.109,0.546,0.109h0.328c0.251,0,0.328-0.076,0.328-0.327v-4.478c0-0.252-0.076-0.328-0.328-0.328h-3.059
	c-0.168,0.723-0.112,1.729-0.109,2.621C37.307,146.58,36.425,145.711,36.425,146.432L36.425,146.432z M94.754,142.173v4.695
	c0.245,0.057,0.251,0.109,0.546,0.109h0.328c0.251,0,0.328-0.076,0.328-0.327v-1.639h0.546c0.828,0,0.819,1.966,1.529,1.966h0.656
	v-0.327c0-0.781-0.908-2.333-1.802-2.451l1.91-2.148l-0.108-0.097h-0.874c-0.514,0-1.367,1.806-1.966,1.966
	c0.167-0.35,0.331-2.075-0.219-2.075h-0.546C94.83,141.845,94.754,141.921,94.754,142.173L94.754,142.173z M132.657,142.282
	c0,0.236,1.639,3.447,1.639,4.259v0.218c0,0.703-0.813,1.181-1.33,1.423l0.128,0.871h0.765c0.101-0.278,0.852-0.765,1.063-1.23
	c0.24-0.528,0.612-1.186,0.729-1.675c0.128-0.541,1.071-3.306,1.376-3.429v-0.765h-0.655c-0.532,0-1.364,2.624-1.377,3.229
	l-0.145,0.265c-0.063-0.584-0.81-3.603-1.318-3.603h-0.874V142.282L132.657,142.282z M168.922,146.978h0.655
	c0.252,0,0.328-0.076,0.328-0.327v-1.857h1.856v1.857c0,0.251,0.076,0.327,0.328,0.327h0.437c0.252,0,0.328-0.076,0.328-0.327
	v-4.696h-0.765c-0.252,0-0.328,0.076-0.328,0.328v1.638h-1.966v-1.966h-0.874V146.978L168.922,146.978z M115.398,146.65
	c0,0.251,0.076,0.327,0.328,0.327h0.437c0.252,0,0.328-0.076,0.328-0.327v-1.748h0.546c0.528,0,1.207,1.522,1.311,1.966h0.983
	c-0.028-0.336-0.405-1.251-0.544-1.641c-0.169-0.474-0.67-0.855-1.256-1.025l1.895-2.165l-0.095-0.083h-0.874
	c-0.484,0-1.399,1.814-1.966,1.966v-1.638c0-0.252-0.076-0.328-0.328-0.328h-0.765V146.65L115.398,146.65z M41.668,95.327
	l-0.109,1.201v0.219c0,0.741,0.437,1.256,1.092,1.311c-0.151,0.386,0.399,0.218,0.983,0.218c0.123-0.304,1.202-0.625,1.202-1.311
	v-1.092c0-0.498-0.813-1.201-1.529-1.201h-0.109C42.048,94.671,42.332,94.976,41.668,95.327L41.668,95.327z M124.137,96.527
	c0-0.578,0.765-1.31,1.202-1.31h0.874c0.574,0,1.201,0.931,1.201,1.529v0.437c0,0.715-0.703,1.529-1.201,1.529h-0.547
	c-0.67,0-1.529-0.554-1.529-1.092V96.527L124.137,96.527z M149.807,144.466c0,1.267,0.894,2.621,2.075,2.621
	c0.853-0.017,1.748-0.206,1.748-0.546c0-0.253-0.122-0.655-0.328-0.655c-0.38,0-0.167,0.218-0.546,0.218c-0.219,0-0.438,0-0.655,0
	c-0.583,0-0.706-0.396-1.072-0.657c-0.043-0.363-0.087-0.727-0.13-1.09c-0.097-0.705,0.603-1.528,1.093-1.528
	c0.364,0,0.776-0.208,1.092,0.218c0.546-0.045,0.547-0.374,0.547-0.982c-0.483-0.166-0.78-0.335-1.857-0.219
	c-0.277,0-1.211,0.661-1.379,0.915C150.089,143.22,149.807,143.768,149.807,144.466L149.807,144.466z M77.714,144.029v1.092
	c0,0.761,1.224,1.966,1.857,1.966h1.092c0.424,0,0.02-0.202,0.765-0.219l-0.001-0.891l-1.418,0.126h-0.109
	c-0.494,0-1.202-0.846-1.202-1.419v-0.438c0-0.581,0.546-1.419,1.202-1.419l0.44-0.024l0.979,0.134
	c0.057-0.245,0.109-0.252,0.109-0.547v-0.327c-0.463-0.124-0.191-0.219-0.546-0.219h-0.983
	C78.894,141.845,77.714,143.02,77.714,144.029L77.714,144.029z M119.112,154.73v-0.546h2.622v0.655
	c-0.342,0.028-0.389,0.109-0.765,0.109h-1.202v0.655c0.245-0.058,0.252-0.109,0.547-0.109h0.655c0.321,0,0.659,0.538,0.982,0.655
	v1.856l-0.812,0.833l-0.936,0.04c-0.736,0-1.311-0.132-1.311-0.873c0-0.153,0.148-0.219,0.327-0.219h0.109
	c0.294,0,0.462,0.205,0.546,0.437c1.174,0,0.749-0.452,1.311-0.655v-0.873c0-0.336-0.319-0.437-0.655-0.437h-0.218
	c-0.279,0-0.698,0.404-0.765,0.654h-0.546c-0.048-0.203-0.128-0.325-0.109-0.437L119.112,154.73L119.112,154.73z M116.491,155.058
	c0-0.466,0.669-0.884,1.093-0.982l0.196,0.24l0.021,3.582c0.164,0.244,0.437,0.384,0.437,0.655c0,0.256-0.181,0.437-0.437,0.437
	h-0.765c-0.295,0-0.301-0.052-0.546-0.109v-0.327c0-0.525,0.655-0.24,0.655-0.765v-2.402h-0.655V155.058L116.491,155.058z
	 M109.391,154.949c0-0.44,0.783-0.874,1.311-0.874h0.109c0.559,0,1.311,0.39,1.311,0.874v0.764c0,1.099-1.864,1.189-1.965,2.402
	h1.201c0.377,0,0.423,0.081,0.764,0.109v0.546h-0.327v0.219h-2.075c-0.256,0-0.438-0.181-0.438-0.437v-0.109
	c0-1.737,2.076-2.249,2.076-2.948v-0.219c0-0.256-0.182-0.437-0.438-0.437h-0.109c-0.464,0-0.666,0.177-0.764,0.546h-0.328
	c-0.252,0-0.328-0.076-0.328-0.328V154.949L109.391,154.949z M106.114,158.443c0-0.133,0.226-0.328,0.437-0.328
	c0.255,0,0.437,0.182,0.437,0.438s-0.181,0.437-0.437,0.437h-0.328C106.166,158.744,106.114,158.738,106.114,158.443
	L106.114,158.443z M104.156,153.986l0.322-0.123c0.238,0.121,0.435,0.089,0.435,0.431v1.201h0.765v0.765h-0.874v2.074
	c0,0.295-0.052,0.301-0.109,0.546c-0.396-0.009-0.656-0.048-0.656-0.437v-2.184h-0.437c-0.358,0-0.41-0.221-0.437-0.547h0.218
	v-0.218h0.765L104.156,153.986L104.156,153.986z M100.543,156.587c0-0.594,0.504-1.092,1.092-1.092h0.655
	c0.203,0,0.655,0.271,0.655,0.546v0.437h-0.437c-0.38,0-0.167-0.218-0.546-0.218h-0.546l0.113,0.545
	c0.817,0.001,1.307,0.291,1.307,1.093c0,0.828-0.582,1.092-1.42,1.092h-0.109c-0.234,0-0.983-0.404-0.983-0.765
	c0-0.251,0.076-0.327,0.327-0.327h0.109c0.38,0,0.167,0.218,0.546,0.218h0.765l-0.202-0.554l-0.672,0.008
	c-0.233-0.155-0.655-0.395-0.655-0.764V156.587L100.543,156.587z M97.048,154.294c0.885-0.206,2.507-0.317,3.168,0v0.437
	c-0.464,0.124-0.191,0.219-0.546,0.219h-1.857v0.873h1.42c0.295,0,0.301,0.053,0.546,0.109v0.328c0,0.836-1.966-0.182-1.966,0.654
	v1.201h1.857c0.252,0,0.328,0.076,0.328,0.328v0.109c0,0.251-0.076,0.327-0.328,0.327h-2.075c-0.355,0-0.083-0.095-0.546-0.218
	V154.294L97.048,154.294z M63.187,142.282v4.149c0,0.295,0.052,0.301,0.109,0.546h0.874v-4.695c0-0.252-0.076-0.328-0.328-0.328
	h-0.328C63.263,141.954,63.187,142.03,63.187,142.282L63.187,142.282z M63.077,140.753c0,0.355,0.095,0.083,0.219,0.546h0.655
	c0.251,0,0.328-0.076,0.328-0.327v-0.437c0-0.256-0.181-0.438-0.437-0.438h-0.546C63.226,140.397,63.077,140.542,63.077,140.753
	L63.077,140.753z M70.286,146.213h1.42c0.135-0.372,0.437-0.338,0.437-0.873c0-0.481-0.702-0.547-1.202-0.547h-0.656V146.213
	L70.286,146.213z M70.396,143.92h0.765c0.368,0,0.765-0.193,0.765-0.546v-0.437c-0.342-0.029-0.388-0.109-0.765-0.109h-0.765V143.92
	L70.396,143.92z M69.303,142.173c0-0.252,0.076-0.328,0.328-0.328h1.748c0.726,0,1.638,0.645,1.638,1.42
	c0,0.389-0.24,0.763-0.546,0.874v0.218c0.372,0.135,0.656,0.486,0.656,0.983v0.108c0,0.958-0.418,1.042-0.983,1.42l-1.746,0.138
	l-1.095-0.028V142.173L69.303,142.173z M103.274,140.644v0.328c0,0.251,0.076,0.327,0.328,0.327h0.328
	c0.355,0,0.082-0.095,0.546-0.219v-0.437c0-0.254-0.292-0.546-0.546-0.546h-0.546C103.326,140.343,103.274,140.349,103.274,140.644
	L103.274,140.644z M103.274,142.282v4.586h0.765c0.252,0,0.328-0.076,0.328-0.327v-4.259c0-0.252-0.076-0.328-0.328-0.328h-0.437
	C103.35,141.954,103.274,142.03,103.274,142.282L103.274,142.282z M48.112,145.995l-1.31,0.119l0-1.758h0.655
	c0.404,0,0.53,0.056,0.765,0.219l-1.201-0.109v1.529H48.112z"/>
</svg>
