<?xml version="1.0" encoding="utf-8"?>
<!DOCTYPE svg PUBLIC "-//W3C//DTD SVG 1.1//EN" "http://www.w3.org/Graphics/SVG/1.1/DTD/svg11.dtd">
<svg version="1.1" id="Layer_1" xmlns="http://www.w3.org/2000/svg" xmlns:xlink="http://www.w3.org/1999/xlink" x="0px" y="0px" width="216px" height="216px" viewBox="0 0 216 216" enable-background="new 0 0 216 216" xml:space="preserve">
<g>
	<path fill="#C7A26E" d="M0.531,179.138h216V36.937h-216V179.138z"/>
	<path d="M174.878,110.146V93.85c0-2.217-0.104-2.714-2.04-3.397h10.304c4.906,0,8.357,1.588,10.393,4.837
		c1.175,1.863,2.202,4.12,2.202,6.4c0,4.808-2.831,9.355-6.961,10.767c-1.907,0.653-4.292,1.002-6.779,1.002h-9.158
		C174.376,112.948,174.878,112.354,174.878,110.146z M178.477,108.622c0,1.622,0.481,2.173,1.897,2.173h2.04
		c5.216,0,8.883-3.766,8.883-9.119c0-5.457-3.495-8.81-9.192-8.81h-3.623v15.756H178.477L178.477,108.622z M163.207,111.292
		c0.517,1.175,0.925,1.553,2.345,2.173h-7.732c1.445-0.561,1.745-1.063,1.106-2.621l-5.703-14.03l-5.658,14.512
		c-0.319,0.938-0.271,1.627,0.865,2.144h-6.661c1.637-0.551,1.868-1.22,2.591-2.945l9.144-21.104L163.207,111.292z M38.537,112.481
		c-3.564,1.066-5.187,1.376-7.704,1.376c-4.562,0-8.018-1.69-10.333-5.112c-1.355-2.048-2.077-4.451-2.075-6.907
		c0-6.912,5.187-11.921,12.369-11.921c1.381,0,3.141,0.133,4.596,0.378c0,0,0.998,0.133,1.485,0.172
		c0.585,0,0.904-0.172,1.317-0.762v5.531c-0.899-1.278-1.386-1.691-2.694-2.242c-1.261-0.523-2.612-0.793-3.977-0.796
		c-5.388,0-8.987,3.766-8.987,9.463c0,5.776,3.456,9.434,8.913,9.434c1.76,0,3.323-0.373,4.872-1.165
		c1.381-0.728,1.76-1.042,2.625-2.222L38.537,112.481L38.537,112.481z M48.054,101.558c0-6.976,4.695-11.779,11.543-11.779
		c6.804,0,11.503,4.803,11.503,11.779c0,6.912-4.975,12.162-11.503,12.162C53.064,113.715,48.054,108.47,48.054,101.558z
		 M59.73,92.365c-4.493,0-7.807,3.938-7.807,9.292c0,5.427,3.279,9.61,7.526,9.61c4.562,0,7.812-3.942,7.812-9.502
		C67.261,96.062,64.292,92.365,59.73,92.365L59.73,92.365z M80.731,89.538l17.373,16.528V93.869c0-2.482-0.241-2.9-2.006-3.485
		h6.892c-1.593,0.762-1.706,1.047-1.706,3.54v20.116L83.626,97.271v12.777c0,2.246,0.275,2.659,2.173,3.357h-7.05
		c1.406-0.516,1.952-1.111,1.952-3.323V89.528L80.731,89.538z M122.552,90.698c4.626,0,7.147,2.419,7.147,5.56
		c0,2.999-1.45,4.98-3.756,5.511c0,0,6.559,7.807,9.906,11.666h-4.778c-0.364-0.377-0.705-0.776-1.022-1.194l-2.793-3.746
		l-5.987-7.015c2.144-0.364,4.543-2.045,4.602-4.675c0.044-1.991-1.784-3.908-4.1-3.8c-0.797,0.029-1.598-0.024-2.395,0.113v15.476
		c0,1.593,0.015,4.223,2.139,4.847h-7.738c2.232-0.624,2.075-3.288,2.075-4.847V95.57c0-1.593,0.271-4.272-1.716-4.862l0.196-0.015
		h8.22V90.698L122.552,90.698z M75.186,133.659c0,0.899,0.108,1.067,0.885,1.337H72.93c0.742-0.274,0.85-0.442,0.85-1.327v-6.519
		c0-0.88-0.108-1.057-0.87-1.332h3.161c-0.772,0.275-0.885,0.452-0.885,1.332v2.385h4.488v-2.385c0-0.88-0.108-1.057-0.88-1.332
		h3.151c-0.752,0.275-0.865,0.452-0.865,1.332v6.504c0,0.899,0.113,1.067,0.865,1.337h-3.141c0.762-0.274,0.87-0.442,0.87-1.327
		v-2.979h-4.488V133.659L75.186,133.659z M86.375,130.36c0-2.782,1.873-4.699,4.602-4.699c2.719,0,4.592,1.917,4.592,4.699
		c0,2.759-1.986,4.843-4.592,4.843S86.375,133.113,86.375,130.36z M91.03,126.693c-1.79,0-3.117,1.568-3.117,3.712
		c0,2.153,1.313,3.824,3.003,3.824c1.819,0,3.117-1.568,3.117-3.79C94.039,128.173,92.849,126.693,91.03,126.693z M107.204,127.878
		c-0.305-0.747-0.816-1.076-1.696-1.076h-1.519v6.857c0,0.899,0.113,1.067,0.875,1.337h-3.126c0.757-0.274,0.865-0.442,0.865-1.327
		v-6.867h-1.431c-1.032,0-1.475,0.29-1.765,1.086v-2.434c0.418,0.315,0.58,0.369,1.244,0.369h5.319c0.644,0,0.934-0.099,1.234-0.369
		V127.878L107.204,127.878z M117.744,131.433c-0.261-0.649-0.438-0.742-1.445-0.742h-1.667v2.256
		c-0.015,0.758,0.162,0.964,0.742,0.964h1.239c1.057,0,1.593-0.403,1.986-1.465c-0.145,0.845-0.23,1.699-0.256,2.557h-5.924
		c0.742-0.275,0.855-0.443,0.855-1.328v-6.519c0-0.88-0.108-1.057-0.865-1.332h4.856c0.443,0,0.575-0.089,0.875-0.472v2.512
		c-0.344-0.87-0.732-1.131-1.656-1.131h-1.854v2.832h1.643c0.85,0.024,1.209-0.167,1.47-0.767V131.433L117.744,131.433z
		 M130.963,135.026h-5.938c0.742-0.275,0.855-0.442,0.855-1.327v-6.51c0-0.88-0.108-1.062-0.875-1.337h3.137
		c-0.763,0.28-0.875,0.462-0.875,1.337v5.757c0,0.816,0.122,0.979,0.786,0.979h1.209c1.018,0,1.461-0.275,1.878-1.146
		C131.047,133.846,131.032,134.092,130.963,135.026L130.963,135.026z M141.002,127.888c-0.517-0.895-1.181-1.313-2.09-1.313
		c-0.728,0-1.313,0.512-1.313,1.175c0,0.468,0.182,0.703,0.924,1.195l1.141,0.757c1.027,0.693,1.568,1.598,1.568,2.63
		c0,1.612-1.337,2.837-3.082,2.837c-0.592-0.012-1.178-0.118-1.735-0.314l-0.29-0.099v-1.883c0.673,0.776,1.44,1.204,2.173,1.204
		c0.855,0,1.593-0.703,1.593-1.499c0-0.649-0.398-1.22-1.234-1.75l-0.938-0.605c-0.944-0.604-1.431-1.391-1.431-2.285
		c0-1.367,1.071-2.315,2.615-2.315c0.347-0.008,0.691,0.049,1.018,0.167l0.329,0.078c0.108,0.045,0.197,0.06,0.236,0.06
		c0.147,0,0.246-0.06,0.413-0.227L141.002,127.888L141.002,127.888z M195.058,88.84h-1.243v-0.501h3.053v0.501h-1.234v3.486h-0.575
		V88.84z M197.679,88.338h0.938l1.259,3.313l1.229-3.313h0.939v3.987h-0.57v-3.451h-0.015l-1.313,3.451h-0.565l-1.317-3.451h-0.015
		v3.451h-0.57V88.338L197.679,88.338z"/>
</g>
<g>
</g>
<g>
</g>
<g>
</g>
<g>
</g>
<g>
</g>
<g>
</g>
</svg>
