<?xml version="1.0" encoding="utf-8"?>
<!DOCTYPE svg PUBLIC "-//W3C//DTD SVG 1.1//EN" "http://www.w3.org/Graphics/SVG/1.1/DTD/svg11.dtd">
<svg version="1.1" xmlns="http://www.w3.org/2000/svg" xmlns:xlink="http://www.w3.org/1999/xlink" x="0px" y="0px" width="216px" height="216px" viewBox="0 0 216 216" enable-background="new 0 0 216 216" xml:space="preserve">
<g>
	<path fill-rule="evenodd" clip-rule="evenodd" fill="#785133" d="M106.367,103.665c23.325,0,43.915,3.253,56.219,8.212h9.219
		c1.238,0,2.252,1.014,2.252,2.252v2.252h2.517c0.801,0,1.457,0.656,1.457,1.457v0.539c0.613-0.196,1.36-0.332,2.272-0.389
		c5.622-0.342,13.598-2.178,17.861-2.469c7.071-0.48,5.159-0.053,8.014,0.423c3.854,0.642,6.822,3.123,6.822,6.267
		c0,3.145-2.969,5.625-6.822,6.268c-2.854,0.476-1.03,1.682-8.079,0.952c-4.683-0.484-11.977-2.122-17.258-2.824
		c-1.132-0.149-2.06-0.378-2.811-0.659v0.105c0,0.802-0.656,1.457-1.457,1.457h-2.517v2.781c0,1.239-1.014,2.252-2.252,2.252h-7.352
		c-12.016,5.404-33.537,9.008-58.086,9.008c-24.548,0-46.069-3.604-58.085-9.008h-7.085c-1.239,0-2.252-1.013-2.252-2.252v-2.781
		h-2.517c-0.801,0-1.457-0.655-1.457-1.457v-0.105c-0.751,0.281-1.679,0.51-2.811,0.659c-5.281,0.702-12.575,2.34-17.257,2.824
		c-7.049,0.729-5.225-0.477-8.079-0.952C2.97,127.834,0,125.354,0,122.209c0-3.144,2.97-5.625,6.823-6.267
		c2.854-0.476,0.942-0.903,8.013-0.423c4.264,0.291,12.24,2.127,17.861,2.469c0.912,0.057,1.66,0.192,2.273,0.389v-0.539
		c0-0.801,0.656-1.457,1.457-1.457h2.517v-2.252c0-1.238,1.013-2.252,2.252-2.252h8.954
		C62.453,106.917,83.043,103.665,106.367,103.665L106.367,103.665z M47.766,126.341v1.636c0,0.096,0.04,0.17,0.119,0.226
		c0.08,0.054,0.199,0.085,0.357,0.093c0.024,0,0.077,0,0.156,0c0.082,0,0.193,0,0.336,0c0.667,0,1.213-0.143,1.634-0.426
		c0.423-0.287,0.726-0.71,0.908-1.274c0.095-0.31,0.169-0.63,0.225-0.961c0.053-0.331,0.084-0.667,0.092-1.009
		c0.04-0.882,0.072-1.766,0.101-2.656c0.027-0.887,0.051-1.776,0.074-2.666l0.08-0.079h1.557l0.111,0.079v8.674l0.286,0.238h1.716
		l0.254-0.238v-10.549c0-0.158-0.111-0.238-0.334-0.238H49.8c-0.104,0-0.183,0.02-0.236,0.059c-0.056,0.04-0.082,0.101-0.082,0.18
		l-0.175,7.039c0,0.079-0.008,0.18-0.021,0.299c-0.016,0.121-0.035,0.265-0.058,0.432c-0.048,0.31-0.18,0.548-0.395,0.712
		c-0.217,0.167-0.519,0.257-0.909,0.272L47.766,126.341L47.766,126.341z M57.155,117.428v10.549c0,0.08,0.026,0.139,0.082,0.178
		c0.053,0.04,0.132,0.061,0.236,0.061h3.686c0.755,0,1.375-0.169,1.864-0.51c0.487-0.34,0.844-0.848,1.075-1.523
		c0.056-0.166,0.098-0.367,0.13-0.604c0.029-0.235,0.045-0.5,0.045-0.794c0-0.247-0.008-0.458-0.024-0.634
		c-0.016-0.177-0.04-0.32-0.071-0.431c-0.167-0.636-0.429-1.151-0.784-1.546c-0.357-0.398-0.805-0.67-1.345-0.821
		c-0.159-0.048-0.304-0.085-0.439-0.108c-0.135-0.027-0.259-0.043-0.371-0.051c-0.286-0.023-0.572-0.039-0.858-0.053
		c-0.286-0.011-0.572-0.019-0.858-0.026l-0.127-0.079v-3.607l-0.286-0.238h-1.716L57.155,117.428L57.155,117.428z M60.746,123.242
		h-1.303v2.781h1.461c0.12,0,0.239-0.057,0.363-0.167c0.122-0.111,0.249-0.278,0.384-0.501c0.056-0.095,0.095-0.203,0.122-0.322
		c0.024-0.122,0.037-0.258,0.037-0.408c0-0.119-0.008-0.228-0.021-0.323c-0.016-0.095-0.035-0.177-0.059-0.249
		c-0.119-0.27-0.259-0.474-0.421-0.609C61.148,123.309,60.96,123.242,60.746,123.242L60.746,123.242z M72.613,125.117
		c0-0.461-0.063-0.868-0.188-1.226c-0.127-0.354-0.313-0.657-0.559-0.903c-0.023-0.023-0.071-0.063-0.138-0.119
		c-0.068-0.055-0.156-0.127-0.259-0.215c-0.047-0.031-0.093-0.061-0.132-0.084c-0.042-0.026-0.082-0.051-0.122-0.074
		c-0.135-0.071-0.235-0.127-0.302-0.166c-0.066-0.041-0.103-0.064-0.111-0.072c0.016-0.016,0.032-0.031,0.047-0.045
		c0.016-0.016,0.032-0.026,0.048-0.034c0.405-0.31,0.709-0.651,0.916-1.022c0.204-0.368,0.307-0.766,0.307-1.186
		c0-0.636-0.122-1.16-0.368-1.57c-0.246-0.414-0.617-0.71-1.109-0.893c-0.302-0.111-0.572-0.191-0.81-0.238
		c-0.135-0.023-0.246-0.043-0.328-0.059c-0.085-0.014-0.141-0.021-0.165-0.021h-3.765c-0.159,0-0.238,0.08-0.238,0.238v10.47
		c0,0.104,0.021,0.183,0.061,0.235c0.04,0.057,0.098,0.082,0.177,0.082h4.083c0.675,0,1.236-0.143,1.684-0.428
		c0.447-0.287,0.786-0.716,1.017-1.287c0.087-0.207,0.151-0.427,0.193-0.657C72.592,125.613,72.613,125.371,72.613,125.117
		L72.613,125.117z M67.704,119.224l-0.08,0.079v1.971l0.08,0.079c0.024,0.008,0.071,0.013,0.143,0.013
		c0.071,0.003,0.167,0.003,0.286,0.003c0.445,0,0.763-0.032,0.954-0.095c0.445-0.144,0.667-0.493,0.667-1.049
		c0-0.619-0.302-0.953-0.905-1.001c-0.048-0.008-0.127-0.013-0.241-0.013c-0.111-0.004-0.259-0.004-0.442-0.004
		c-0.127,0-0.23,0-0.308,0.004C67.778,119.211,67.728,119.216,67.704,119.224L67.704,119.224z M67.704,123.48l-0.08,0.08v2.542
		l0.08,0.079c0.024,0.008,0.08,0.014,0.164,0.014c0.082,0.002,0.193,0.002,0.329,0.002c0.19,0,0.347,0,0.466-0.002
		c0.122,0,0.209-0.006,0.265-0.014c0.413-0.023,0.723-0.148,0.93-0.371c0.207-0.225,0.31-0.55,0.31-0.979
		c0-0.311-0.074-0.57-0.225-0.779s-0.378-0.373-0.68-0.492c-0.087-0.031-0.22-0.056-0.395-0.071c-0.178-0.017-0.4-0.024-0.67-0.024
		c-0.135,0-0.247,0-0.329,0.003C67.784,123.468,67.728,123.473,67.704,123.48L67.704,123.48z M73.757,117.428v10.47
		c0,0.104,0.021,0.183,0.061,0.235c0.04,0.057,0.098,0.082,0.177,0.082h1.716c0.08,0,0.141-0.025,0.18-0.082
		c0.04-0.053,0.058-0.132,0.058-0.235v-10.47l-0.238-0.238h-1.716L73.757,117.428L73.757,117.428z M84.544,125.117
		c0-0.461-0.063-0.868-0.188-1.226c-0.127-0.354-0.313-0.657-0.559-0.903c-0.024-0.023-0.071-0.063-0.138-0.119
		c-0.069-0.055-0.156-0.127-0.259-0.215c-0.048-0.031-0.093-0.061-0.132-0.084c-0.042-0.026-0.083-0.051-0.122-0.074
		c-0.135-0.071-0.236-0.127-0.302-0.166c-0.066-0.041-0.103-0.064-0.111-0.072c0.016-0.016,0.032-0.031,0.048-0.045
		c0.016-0.016,0.032-0.026,0.047-0.034c0.405-0.31,0.71-0.651,0.917-1.022c0.204-0.368,0.307-0.766,0.307-1.186
		c0-0.636-0.122-1.16-0.368-1.57c-0.246-0.414-0.617-0.71-1.109-0.893c-0.302-0.111-0.572-0.191-0.811-0.238
		c-0.135-0.023-0.246-0.043-0.328-0.059c-0.085-0.014-0.14-0.021-0.164-0.021h-3.765c-0.159,0-0.238,0.08-0.238,0.238v10.47
		c0,0.104,0.021,0.183,0.061,0.235c0.04,0.057,0.098,0.082,0.177,0.082h4.083c0.675,0,1.236-0.143,1.684-0.428
		c0.448-0.287,0.787-0.716,1.017-1.287c0.087-0.207,0.151-0.427,0.193-0.657C84.523,125.613,84.544,125.371,84.544,125.117
		L84.544,125.117z M79.635,119.224l-0.079,0.079v1.971l0.079,0.079c0.024,0.008,0.072,0.013,0.144,0.013
		c0.071,0.003,0.167,0.003,0.286,0.003c0.445,0,0.763-0.032,0.953-0.095c0.445-0.144,0.667-0.493,0.667-1.049
		c0-0.619-0.302-0.953-0.906-1.001c-0.047-0.008-0.127-0.013-0.241-0.013c-0.111-0.004-0.26-0.004-0.442-0.004
		c-0.127,0-0.23,0-0.307,0.004C79.709,119.211,79.659,119.216,79.635,119.224L79.635,119.224z M79.635,123.48l-0.079,0.08v2.542
		l0.079,0.079c0.024,0.008,0.08,0.014,0.165,0.014c0.082,0.002,0.193,0.002,0.328,0.002c0.191,0,0.347,0,0.466-0.002
		c0.122,0,0.209-0.006,0.265-0.014c0.413-0.023,0.723-0.148,0.929-0.371c0.207-0.225,0.31-0.55,0.31-0.979
		c0-0.311-0.074-0.57-0.225-0.779s-0.379-0.373-0.681-0.492c-0.087-0.031-0.22-0.056-0.395-0.071c-0.177-0.017-0.4-0.024-0.67-0.024
		c-0.135,0-0.246,0-0.328,0.003C79.714,123.468,79.659,123.473,79.635,123.48L79.635,123.48z M89.438,128.375
		c0.214,0,0.381,0,0.503,0c0.119,0,0.196,0,0.228,0c0.071-0.009,0.156-0.017,0.251-0.029c0.095-0.012,0.201-0.027,0.32-0.051
		c0.151-0.023,0.275-0.063,0.371-0.117c0.096-0.055,0.162-0.121,0.202-0.201c0.047-0.095,0.079-0.206,0.095-0.333
		c0-0.095,0-0.35,0-0.763c0-0.143,0-0.26,0-0.347c0-0.091,0-0.153,0-0.193l-0.095-0.238c-0.008-0.008-0.035-0.013-0.083-0.013
		c-0.047-0.004-0.116-0.004-0.204-0.004c-0.119,0-0.214,0-0.289,0.004c-0.071,0-0.125,0.005-0.156,0.013
		c-0.024,0-0.056,0.008-0.095,0.021c-0.04,0.017-0.087,0.035-0.143,0.059c-0.048,0-0.238,0-0.572,0
		c-0.214,0-0.397-0.008-0.548-0.021c-0.151-0.016-0.27-0.033-0.357-0.058c-0.246-0.087-0.429-0.238-0.551-0.458
		c-0.119-0.217-0.18-0.503-0.18-0.86v-4.496c0-0.437,0.13-0.766,0.392-0.987c0.259-0.221,0.648-0.332,1.165-0.332
		c0.135,0,0.244,0,0.323,0.004c0.079,0,0.129,0.004,0.153,0.013c0.095,0.008,0.212,0.024,0.347,0.05
		c0.138,0.024,0.297,0.061,0.479,0.109c0.016,0,0.032,0,0.048,0c0.063,0,0.111-0.014,0.143-0.037
		c0.032-0.027,0.048-0.066,0.048-0.122v-1.558c0-0.079-0.034-0.148-0.106-0.203c-0.069-0.056-0.172-0.098-0.307-0.13
		c-0.135-0.024-0.307-0.042-0.514-0.058c-0.209-0.014-0.456-0.021-0.741-0.021c-0.23,0-0.411,0-0.538,0c-0.13,0-0.209,0-0.241,0
		c-0.214,0.008-0.437,0.039-0.669,0.095c-0.23,0.056-0.474,0.136-0.729,0.238c-0.516,0.207-0.903,0.501-1.157,0.882
		c-0.257,0.381-0.384,0.85-0.384,1.406v5.895c0,0.706,0.164,1.286,0.49,1.733c0.326,0.45,0.813,0.769,1.464,0.95
		c0.199,0.057,0.437,0.096,0.712,0.122C88.786,128.361,89.096,128.375,89.438,128.375L89.438,128.375z M92.71,117.428v10.549
		c0,0.08,0.026,0.139,0.082,0.178c0.053,0.04,0.132,0.061,0.235,0.061h3.686c0.754,0,1.374-0.169,1.864-0.51
		c0.487-0.34,0.845-0.848,1.075-1.523c0.056-0.166,0.098-0.367,0.13-0.604c0.029-0.235,0.045-0.5,0.045-0.794
		c0-0.247-0.008-0.458-0.024-0.634c-0.016-0.177-0.04-0.32-0.071-0.431c-0.167-0.636-0.429-1.151-0.784-1.546
		c-0.357-0.398-0.805-0.67-1.345-0.821c-0.159-0.048-0.305-0.085-0.439-0.108c-0.135-0.027-0.26-0.043-0.371-0.051
		c-0.286-0.023-0.572-0.039-0.858-0.053c-0.286-0.011-0.572-0.019-0.858-0.026l-0.127-0.079v-3.607l-0.286-0.238h-1.716
		L92.71,117.428L92.71,117.428z M96.3,123.242h-1.303v2.781h1.461c0.119,0,0.238-0.057,0.363-0.167
		c0.122-0.111,0.249-0.278,0.384-0.501c0.056-0.095,0.095-0.203,0.122-0.322c0.024-0.122,0.037-0.258,0.037-0.408
		c0-0.119-0.008-0.228-0.021-0.323c-0.016-0.095-0.035-0.177-0.059-0.249c-0.119-0.27-0.259-0.474-0.421-0.609
		C96.703,123.309,96.515,123.242,96.3,123.242L96.3,123.242z M103.259,123.561c0.024-0.008,0.074-0.014,0.153-0.014
		c0.077-0.002,0.18-0.002,0.307-0.002c0.23,0,0.421,0.008,0.575,0.023c0.151,0.016,0.268,0.04,0.347,0.072
		c0.23,0.095,0.405,0.225,0.522,0.391c0.119,0.165,0.177,0.363,0.177,0.594v3.352l0.286,0.238h1.716l0.254-0.238v-4.082
		c0-0.151-0.021-0.289-0.061-0.416c-0.043-0.125-0.106-0.236-0.193-0.331c-0.072-0.079-0.141-0.151-0.207-0.217
		c-0.066-0.063-0.135-0.124-0.206-0.181c-0.096-0.079-0.255-0.19-0.477-0.333c-0.032-0.024-0.056-0.045-0.071-0.063
		c-0.016-0.02-0.024-0.04-0.024-0.064c0-0.008,0-0.013,0-0.016c0-0.002,0-0.008,0-0.016c0.087-0.088,0.175-0.18,0.26-0.275
		c0.082-0.096,0.161-0.193,0.233-0.297c0.07-0.095,0.124-0.177,0.156-0.248c0.033-0.069,0.05-0.125,0.05-0.164v-1.971
		c0-0.055,0.017-0.104,0.05-0.143c0.032-0.04,0.085-0.072,0.156-0.096c0.057-0.016,0.125-0.031,0.204-0.045
		c0.082-0.016,0.178-0.026,0.288-0.034c0.08-0.024,0.141-0.056,0.181-0.099c0.04-0.039,0.059-0.092,0.059-0.156v-1.303
		c0-0.047-0.026-0.092-0.082-0.132c-0.054-0.04-0.133-0.074-0.235-0.106c-0.119-0.008-0.236-0.013-0.35-0.013
		c-0.114-0.003-0.23-0.003-0.35-0.003c-0.263,0-0.477,0.008-0.646,0.023c-0.167,0.017-0.291,0.041-0.371,0.072
		c-0.341,0.127-0.599,0.299-0.773,0.514c-0.172,0.217-0.26,0.479-0.26,0.789v2.049c0,0.04-0.016,0.094-0.05,0.159
		c-0.032,0.066-0.084,0.151-0.156,0.255c-0.071,0.103-0.143,0.182-0.209,0.234c-0.069,0.057-0.132,0.083-0.188,0.083h-1.064
		l-0.127-0.079v-3.846c0-0.079-0.032-0.14-0.093-0.18c-0.063-0.039-0.154-0.059-0.273-0.059h-1.557c-0.104,0-0.183,0.02-0.236,0.059
		c-0.056,0.04-0.082,0.101-0.082,0.18v10.47c0,0.104,0.021,0.183,0.061,0.235c0.04,0.057,0.098,0.082,0.178,0.082h1.716
		c0.095,0,0.167-0.025,0.214-0.082c0.048-0.053,0.072-0.132,0.072-0.235v-4.257L103.259,123.561L103.259,123.561z M108.898,117.428
		v10.47c0,0.104,0.021,0.183,0.061,0.235c0.04,0.057,0.099,0.082,0.178,0.082h1.716c0.079,0,0.141-0.025,0.18-0.082
		c0.04-0.053,0.059-0.132,0.059-0.235v-10.47l-0.238-0.238h-1.716L108.898,117.428L108.898,117.428z M121.497,119.224l0.127,0.079
		v8.674l0.286,0.238h1.716l0.254-0.238v-10.549c0-0.158-0.111-0.238-0.334-0.238h-6.053c-0.104,0-0.183,0.02-0.235,0.059
		c-0.056,0.04-0.082,0.101-0.082,0.18v10.47c0,0.104,0.021,0.183,0.061,0.235c0.04,0.057,0.098,0.082,0.178,0.082h1.716
		c0.095,0,0.167-0.025,0.214-0.082c0.048-0.053,0.072-0.132,0.072-0.235v-8.674H121.497L121.497,119.224z M124.61,126.341v1.636
		c0,0.096,0.04,0.17,0.119,0.226c0.079,0.054,0.198,0.085,0.357,0.093c0.024,0,0.077,0,0.156,0c0.082,0,0.193,0,0.337,0
		c0.667,0,1.212-0.143,1.633-0.426c0.424-0.287,0.726-0.71,0.908-1.274c0.096-0.31,0.17-0.63,0.226-0.961
		c0.053-0.331,0.085-0.667,0.093-1.009c0.039-0.882,0.071-1.766,0.101-2.656c0.026-0.887,0.05-1.776,0.074-2.666l0.079-0.079h1.557
		l0.111,0.079v8.674l0.286,0.238h1.716l0.254-0.238v-10.549c0-0.158-0.111-0.238-0.333-0.238h-5.64c-0.104,0-0.184,0.02-0.236,0.059
		c-0.056,0.04-0.082,0.101-0.082,0.18l-0.175,7.039c0,0.079-0.008,0.18-0.021,0.299c-0.017,0.121-0.035,0.265-0.059,0.432
		c-0.048,0.31-0.18,0.548-0.395,0.712c-0.217,0.167-0.52,0.257-0.908,0.272L124.61,126.341L124.61,126.341z M133.904,120.24
		c0,0.659,0.135,1.227,0.408,1.699c0.27,0.475,0.68,0.851,1.229,1.129v0.334l-1.954,4.336c0,0.017,0,0.064,0,0.144
		c0,0.223,0.079,0.333,0.238,0.333h1.874c0.056,0,0.106-0.013,0.151-0.037c0.045-0.025,0.079-0.065,0.104-0.121l2.033-4.416h0.699
		v4.336l0.286,0.238h1.715c0.088,0,0.151-0.025,0.193-0.082c0.04-0.053,0.062-0.132,0.062-0.235v-10.47
		c0-0.158-0.111-0.238-0.334-0.238h-3.59c-0.509,0-1.112,0.191-1.812,0.572c-0.437,0.238-0.763,0.564-0.979,0.977
		C134.013,119.152,133.904,119.652,133.904,120.24L133.904,120.24z M136.351,120.415c0,0.286,0.063,0.519,0.188,0.702
		c0.127,0.182,0.313,0.314,0.559,0.395c0.095,0.031,0.228,0.055,0.395,0.071c0.169,0.016,0.376,0.023,0.622,0.023
		c0.127,0,0.228,0,0.299,0c0.074,0,0.122,0,0.146,0l0.095-0.095v-2.288h-1.318c-0.326,0-0.572,0.098-0.736,0.296
		C136.433,119.719,136.351,120.018,136.351,120.415L136.351,120.415z M142.182,117.428v10.47c0,0.119,0.021,0.207,0.061,0.265
		c0.04,0.056,0.098,0.085,0.178,0.085h5.227l0.127,0.128v1.636c0,0.159,0.096,0.238,0.286,0.238h1.636
		c0.08,0,0.141-0.026,0.181-0.082c0.04-0.054,0.058-0.133,0.058-0.235v-3.337c0-0.254-0.079-0.381-0.238-0.381h-0.778v-8.786
		l-0.286-0.238h-1.715l-0.286,0.238v8.754h-2.081l-0.127-0.079v-8.675l-0.286-0.238h-1.716L142.182,117.428L142.182,117.428z
		 M152.969,123.561c0.023-0.008,0.074-0.014,0.153-0.014c0.077-0.002,0.18-0.002,0.307-0.002c0.23,0,0.421,0.008,0.575,0.023
		c0.15,0.016,0.268,0.04,0.347,0.072c0.23,0.095,0.405,0.225,0.521,0.391c0.119,0.165,0.178,0.363,0.178,0.594v3.352l0.286,0.238
		h1.715l0.255-0.238v-4.082c0-0.151-0.021-0.289-0.062-0.416c-0.042-0.125-0.105-0.236-0.193-0.331
		c-0.071-0.079-0.14-0.151-0.206-0.217c-0.066-0.063-0.135-0.124-0.206-0.181c-0.096-0.079-0.255-0.19-0.477-0.333
		c-0.032-0.024-0.056-0.045-0.072-0.063c-0.016-0.02-0.023-0.04-0.023-0.064c0-0.008,0-0.013,0-0.016c0-0.002,0-0.008,0-0.016
		c0.087-0.088,0.175-0.18,0.26-0.275c0.082-0.096,0.161-0.193,0.232-0.297c0.071-0.095,0.125-0.177,0.156-0.248
		c0.034-0.069,0.051-0.125,0.051-0.164v-1.971c0-0.055,0.016-0.104,0.05-0.143c0.032-0.04,0.085-0.072,0.156-0.096
		c0.056-0.016,0.125-0.031,0.204-0.045c0.082-0.016,0.178-0.026,0.289-0.034c0.079-0.024,0.14-0.056,0.18-0.099
		c0.04-0.039,0.059-0.092,0.059-0.156v-1.303c0-0.047-0.027-0.092-0.083-0.132c-0.053-0.04-0.132-0.074-0.235-0.106
		c-0.119-0.008-0.235-0.013-0.35-0.013c-0.113-0.003-0.23-0.003-0.35-0.003c-0.262,0-0.477,0.008-0.646,0.023
		c-0.167,0.017-0.291,0.041-0.371,0.072c-0.342,0.127-0.599,0.299-0.773,0.514c-0.172,0.217-0.259,0.479-0.259,0.789v2.049
		c0,0.04-0.016,0.094-0.051,0.159c-0.031,0.066-0.084,0.151-0.156,0.255c-0.071,0.103-0.143,0.182-0.209,0.234
		c-0.068,0.057-0.133,0.083-0.188,0.083h-1.064l-0.128-0.079v-3.846c0-0.079-0.031-0.14-0.092-0.18
		c-0.063-0.039-0.154-0.059-0.273-0.059h-1.557c-0.104,0-0.183,0.02-0.235,0.059c-0.056,0.04-0.082,0.101-0.082,0.18v10.47
		c0,0.104,0.021,0.183,0.061,0.235c0.04,0.057,0.098,0.082,0.178,0.082h1.716c0.095,0,0.166-0.025,0.214-0.082
		c0.048-0.053,0.071-0.132,0.071-0.235v-4.257L152.969,123.561L152.969,123.561z M158.608,117.428v10.47
		c0,0.104,0.021,0.183,0.061,0.235c0.04,0.057,0.099,0.082,0.178,0.082h1.636c0.096,0,0.178-0.025,0.249-0.082
		c0.069-0.053,0.125-0.132,0.165-0.235l2.033-5.401l0.127-0.158v5.639l0.286,0.238h1.716l0.254-0.238v-10.549l-0.254-0.238h-1.637
		c-0.088,0-0.172,0.049-0.252,0.144c-0.082,0.095-0.161,0.238-0.24,0.429l-1.954,4.893l-0.127,0.176v-5.402l-0.286-0.238h-1.716
		L158.608,117.428L158.608,117.428z M78.167,158.217l1.248-2.51l0.447,2.332l1.205-0.155l-1.254-5.133l-1.645,3.219l-1.531-3.219
		l-1.369,5.133l1.255,0.149l0.404-2.276L78.167,158.217L78.167,158.217z M82.529,153.091v4.921l1.248-0.113v-4.921L82.529,153.091
		L82.529,153.091z M88.934,153.105c-0.142-0.043-0.287-0.074-0.438-0.096c-0.151-0.021-0.31-0.032-0.477-0.032
		c-0.291,0.001-0.555,0.039-0.794,0.112s-0.453,0.175-0.64,0.305c-0.189,0.129-0.354,0.279-0.492,0.448
		c-0.14,0.169-0.255,0.35-0.348,0.542c-0.091,0.193-0.16,0.389-0.205,0.588c-0.044,0.2-0.067,0.396-0.067,0.586
		c0.001,0.272,0.043,0.535,0.126,0.783c0.084,0.249,0.201,0.479,0.352,0.688c0.152,0.211,0.331,0.393,0.536,0.547
		c0.207,0.155,0.433,0.275,0.68,0.361s0.507,0.129,0.78,0.131c0.105,0,0.214-0.008,0.326-0.021s0.225-0.03,0.335-0.054
		c0.111-0.024,0.216-0.051,0.317-0.082l0.198-1.297c-0.107,0.082-0.22,0.148-0.336,0.2c-0.117,0.051-0.234,0.089-0.35,0.111
		c-0.116,0.023-0.224,0.035-0.327,0.035c-0.195-0.001-0.376-0.038-0.543-0.11c-0.168-0.071-0.314-0.172-0.441-0.302
		c-0.126-0.129-0.226-0.28-0.296-0.452s-0.107-0.359-0.109-0.561c0.001-0.203,0.037-0.393,0.106-0.568
		c0.07-0.175,0.168-0.33,0.294-0.462c0.127-0.132,0.274-0.235,0.443-0.31s0.354-0.112,0.553-0.113
		c0.158,0.001,0.302,0.023,0.434,0.064c0.13,0.041,0.245,0.092,0.342,0.148c0.1,0.06,0.181,0.115,0.245,0.17L88.934,153.105
		L88.934,153.105z M92.098,152.978l-1.248,0.113v4.864h1.667c0.301-0.003,0.558-0.037,0.771-0.105s0.39-0.16,0.529-0.273
		s0.25-0.238,0.329-0.377c0.079-0.137,0.135-0.276,0.167-0.417c0.033-0.141,0.048-0.272,0.047-0.395
		c0-0.165-0.024-0.327-0.071-0.485c-0.047-0.16-0.12-0.308-0.215-0.447c-0.096-0.138-0.216-0.26-0.361-0.366
		c-0.146-0.104-0.316-0.188-0.512-0.248c-0.195-0.06-0.416-0.09-0.663-0.091h-0.439V152.978L92.098,152.978z M92.098,155.778h0.34
		c0.142,0,0.264,0.024,0.364,0.071c0.101,0.047,0.177,0.113,0.229,0.197c0.053,0.084,0.08,0.184,0.08,0.299
		c-0.001,0.108-0.019,0.198-0.055,0.27c-0.036,0.071-0.083,0.129-0.14,0.171c-0.058,0.041-0.119,0.073-0.185,0.093
		c-0.066,0.021-0.128,0.033-0.189,0.039c-0.062,0.006-0.112,0.01-0.155,0.009h-0.291V155.778L92.098,155.778z M97.304,152.978
		l-1.248,0.113v4.921l1.248-0.113v-2.248h0.036l1.595,2.418l1.304-0.326l-1.652-2.333l1.595-2.105l-1.219-0.326l-1.624,2.198h-0.036
		V152.978L97.304,152.978z M102.787,157.097h1.85l0.475,1.042l1.255-0.297l-2.623-5.091l-2.673,5.091l1.241,0.297L102.787,157.097
		L102.787,157.097z M103.716,154.97l0.51,1.134h-1.028L103.716,154.97L103.716,154.97z M110.017,153.091v4.921l1.247-0.113v-3.701
		h1.482v3.814l1.248-0.113v-4.808H110.017L110.017,153.091z M115.903,153.091v4.864h2.857l0.298-1.028h-1.907v-0.937h1.255v-1.027
		h-1.255v-0.844h1.758l-0.263-1.028H115.903L115.903,153.091z M122.003,152.978l-1.248,0.113v4.921l1.248-0.113v-2.248h0.035
		l1.596,2.418l1.304-0.326l-1.651-2.333l1.595-2.105l-1.219-0.326l-1.624,2.198h-0.035V152.978L122.003,152.978z M127.485,157.097
		h1.851l0.475,1.042l1.255-0.297l-2.623-5.091l-2.673,5.091l1.241,0.297L127.485,157.097L127.485,157.097z M128.414,154.97
		l0.511,1.134h-1.028L128.414,154.97L128.414,154.97z M132.422,158.012l1.248-0.113v-1.759h0.524
		c0.233-0.001,0.441-0.03,0.626-0.087c0.185-0.055,0.346-0.133,0.482-0.23c0.139-0.1,0.252-0.213,0.343-0.344
		c0.091-0.129,0.159-0.267,0.204-0.413c0.045-0.147,0.067-0.298,0.067-0.45c0.002-0.064-0.005-0.148-0.017-0.249
		c-0.013-0.101-0.04-0.21-0.08-0.327c-0.041-0.117-0.105-0.234-0.189-0.352c-0.085-0.115-0.198-0.222-0.342-0.317
		c-0.144-0.097-0.323-0.174-0.539-0.231c-0.217-0.06-0.478-0.089-0.782-0.09c-0.114,0-0.24,0.001-0.375,0.004
		c-0.135,0.002-0.271,0.006-0.411,0.01c-0.141,0.005-0.275,0.01-0.405,0.016s-0.248,0.013-0.354,0.02V158.012L132.422,158.012z
		 M133.67,154.076h0.376c0.126,0.002,0.234,0.025,0.328,0.071s0.165,0.108,0.218,0.187c0.051,0.078,0.078,0.164,0.078,0.26
		c0,0.06-0.01,0.122-0.031,0.186c-0.02,0.064-0.053,0.123-0.101,0.179c-0.046,0.056-0.108,0.101-0.186,0.136
		c-0.078,0.035-0.172,0.053-0.286,0.053h-0.396V154.076L133.67,154.076z M137.593,153.091v4.921l1.248-0.113v-1.908h1.609v2.021
		l1.247-0.113v-4.921l-1.247,0.113v1.794h-1.609v-1.907L137.593,153.091L137.593,153.091z M147.159,153.091
		c-0.09-0.006-0.198-0.011-0.324-0.015c-0.126-0.006-0.259-0.01-0.396-0.015c-0.14-0.003-0.274-0.007-0.405-0.009
		c-0.131-0.003-0.247-0.004-0.349-0.004c-0.337,0.001-0.623,0.035-0.856,0.103c-0.234,0.067-0.426,0.155-0.574,0.269
		c-0.148,0.111-0.263,0.236-0.345,0.373c-0.08,0.136-0.136,0.275-0.166,0.416c-0.031,0.141-0.045,0.273-0.044,0.399
		c0.001,0.183,0.037,0.351,0.105,0.505c0.069,0.154,0.164,0.289,0.286,0.404c0.12,0.116,0.26,0.207,0.417,0.274l-1.205,1.837
		l1.24,0.439l1.368-2.354v2.297l1.248-0.113V153.091L147.159,153.091z M145.911,155.438h-0.205c-0.168-0.002-0.309-0.035-0.421-0.1
		s-0.196-0.148-0.253-0.252c-0.057-0.104-0.085-0.215-0.085-0.336c0.001-0.124,0.032-0.229,0.092-0.318
		c0.061-0.09,0.145-0.156,0.253-0.205c0.11-0.047,0.237-0.072,0.386-0.072h0.233V155.438L145.911,155.438z M61.958,161.584
		c-0.142-0.042-0.287-0.074-0.438-0.096c-0.151-0.021-0.31-0.031-0.476-0.031c-0.291,0.001-0.555,0.039-0.794,0.112
		s-0.453,0.175-0.641,0.305c-0.189,0.129-0.353,0.278-0.491,0.448c-0.14,0.168-0.255,0.35-0.348,0.542
		c-0.091,0.192-0.16,0.389-0.204,0.589c-0.045,0.199-0.068,0.395-0.068,0.584c0.001,0.273,0.044,0.536,0.126,0.784
		c0.084,0.249,0.201,0.479,0.353,0.688c0.152,0.21,0.331,0.393,0.536,0.547c0.207,0.155,0.433,0.275,0.68,0.362
		c0.247,0.084,0.507,0.129,0.78,0.129c0.105,0,0.214-0.006,0.326-0.02c0.112-0.013,0.225-0.031,0.335-0.055
		c0.111-0.023,0.216-0.051,0.317-0.081l0.198-1.298c-0.107,0.083-0.22,0.149-0.336,0.201c-0.117,0.051-0.234,0.089-0.35,0.111
		c-0.116,0.023-0.224,0.035-0.327,0.035c-0.195-0.001-0.376-0.037-0.543-0.109c-0.168-0.072-0.314-0.173-0.441-0.303
		c-0.126-0.129-0.226-0.28-0.296-0.453c-0.071-0.171-0.108-0.359-0.109-0.56c0.001-0.204,0.037-0.393,0.106-0.568
		c0.07-0.175,0.167-0.33,0.294-0.462c0.126-0.133,0.274-0.235,0.443-0.311c0.169-0.074,0.353-0.111,0.553-0.113
		c0.159,0.002,0.303,0.023,0.434,0.065c0.13,0.04,0.245,0.091,0.342,0.149c0.1,0.059,0.181,0.114,0.245,0.168L61.958,161.584
		L61.958,161.584z M63.875,161.57v5.147l3.049-2.857v2.63l1.248-0.113v-5.146l-3.048,2.878v-2.651L63.875,161.57L63.875,161.57z
		 M70.081,166.49l1.248-0.113v-1.758h0.525c0.232-0.002,0.441-0.029,0.626-0.086c0.185-0.057,0.345-0.134,0.482-0.232
		c0.138-0.099,0.251-0.213,0.343-0.342c0.091-0.129,0.159-0.268,0.204-0.414c0.045-0.147,0.067-0.298,0.067-0.45
		c0.001-0.065-0.005-0.149-0.017-0.249c-0.013-0.101-0.04-0.209-0.08-0.328c-0.042-0.116-0.105-0.233-0.189-0.351
		c-0.085-0.116-0.198-0.222-0.342-0.317c-0.143-0.098-0.323-0.174-0.539-0.232s-0.477-0.088-0.782-0.09
		c-0.115,0-0.24,0.002-0.375,0.004s-0.271,0.006-0.411,0.011c-0.141,0.005-0.275,0.009-0.405,0.016
		c-0.13,0.006-0.248,0.013-0.354,0.021V166.49L70.081,166.49z M71.329,162.556h0.376c0.126,0.001,0.235,0.024,0.329,0.071
		c0.093,0.046,0.165,0.108,0.217,0.187c0.051,0.078,0.078,0.164,0.078,0.26c0,0.06-0.01,0.122-0.031,0.186
		c-0.02,0.063-0.053,0.123-0.101,0.179c-0.046,0.056-0.109,0.101-0.186,0.136c-0.078,0.034-0.172,0.052-0.286,0.054h-0.397V162.556
		L71.329,162.556z M75.252,161.57v4.92l1.248-0.113v-1.906h1.609v2.02l1.248-0.113v-4.92l-1.248,0.113v1.794H76.5v-1.907
		L75.252,161.57L75.252,161.57z M81.266,161.57v5.147l3.048-2.857v2.63l1.248-0.113v-5.146l-3.048,2.878v-2.651L81.266,161.57
		L81.266,161.57z M88.72,161.457l-1.248,0.113v4.92l1.248-0.113v-2.247h0.036l1.595,2.417l1.304-0.326l-1.652-2.332l1.595-2.105
		l-1.219-0.326l-1.624,2.197H88.72V161.457L88.72,161.457z M93.04,161.57v4.92l1.248-0.113v-4.92L93.04,161.57L93.04,161.57z
		 M96.197,166.434h1.971c0.231-0.001,0.443-0.033,0.636-0.098c0.192-0.064,0.359-0.157,0.501-0.277
		c0.141-0.122,0.25-0.268,0.327-0.438c0.077-0.172,0.116-0.363,0.117-0.576c0-0.177-0.03-0.338-0.087-0.488
		c-0.057-0.15-0.143-0.28-0.258-0.393c-0.115-0.111-0.257-0.198-0.428-0.262v-0.027c0.131-0.055,0.244-0.132,0.339-0.229
		c0.094-0.098,0.167-0.214,0.22-0.348c0.052-0.133,0.078-0.282,0.079-0.445c0-0.136-0.021-0.27-0.066-0.399
		c-0.045-0.131-0.113-0.253-0.208-0.367c-0.093-0.113-0.215-0.214-0.362-0.299c-0.148-0.085-0.326-0.151-0.533-0.196
		c-0.142-0.027-0.285-0.045-0.429-0.053c-0.145-0.009-0.287-0.012-0.429-0.012c-0.107,0-0.225,0.003-0.352,0.006
		c-0.126,0.004-0.254,0.009-0.383,0.014c-0.129,0.006-0.25,0.012-0.363,0.017c-0.113,0.006-0.21,0.011-0.292,0.015V166.434
		L96.197,166.434z M97.445,163.492v-0.972h0.354c0.112,0.001,0.21,0.021,0.295,0.06c0.085,0.041,0.151,0.096,0.198,0.162
		c0.049,0.068,0.072,0.146,0.073,0.232c0.001,0.082-0.018,0.162-0.055,0.24c-0.038,0.08-0.099,0.145-0.185,0.196
		c-0.084,0.052-0.195,0.078-0.334,0.081H97.445L97.445,163.492z M97.445,165.441v-1.021h0.404c0.129,0.002,0.237,0.018,0.322,0.051
		c0.085,0.031,0.152,0.074,0.202,0.125c0.049,0.052,0.085,0.107,0.106,0.166c0.021,0.059,0.031,0.115,0.03,0.169
		c0.001,0.052-0.008,0.108-0.028,0.167c-0.019,0.058-0.053,0.113-0.101,0.166c-0.048,0.051-0.115,0.094-0.2,0.127
		s-0.194,0.05-0.324,0.051H97.445L97.445,165.441z M103.767,161.57l-0.319,1.105h1.297v3.814l1.248-0.113v-3.701h1.199v-1.105
		H103.767L103.767,161.57z M109.618,165.576h1.851l0.475,1.042l1.255-0.298l-2.623-5.09l-2.673,5.09l1.24,0.298L109.618,165.576
		L109.618,165.576z M110.547,163.449l0.511,1.135h-1.028L110.547,163.449L110.547,163.449z M119.293,161.57v3.758h-1.198v-3.871
		l-1.247,0.113v4.863h6.14v-4.977l-1.248,0.113v3.758h-1.198v-3.871L119.293,161.57L119.293,161.57z M124.805,161.57l-0.319,1.105
		h1.298v3.814l1.247-0.113v-3.701h1.198v-1.105H124.805L124.805,161.57z M129.819,166.49l1.247-0.113v-1.758h0.525
		c0.232-0.002,0.44-0.029,0.626-0.086c0.185-0.057,0.345-0.134,0.482-0.232s0.251-0.213,0.343-0.342
		c0.091-0.129,0.159-0.268,0.204-0.414c0.045-0.147,0.067-0.298,0.067-0.45c0.001-0.065-0.005-0.149-0.017-0.249
		c-0.013-0.101-0.04-0.209-0.08-0.328c-0.042-0.116-0.105-0.233-0.189-0.351c-0.085-0.116-0.198-0.222-0.343-0.317
		c-0.143-0.098-0.322-0.174-0.538-0.232c-0.217-0.059-0.478-0.088-0.782-0.09c-0.115,0-0.24,0.002-0.375,0.004
		s-0.271,0.006-0.411,0.011c-0.141,0.005-0.275,0.009-0.405,0.016c-0.13,0.006-0.248,0.013-0.354,0.021V166.49L129.819,166.49z
		 M131.066,162.556h0.376c0.127,0.001,0.235,0.024,0.329,0.071c0.093,0.046,0.165,0.108,0.217,0.187
		c0.051,0.078,0.078,0.164,0.078,0.26c0,0.06-0.01,0.122-0.03,0.186s-0.054,0.123-0.101,0.179c-0.046,0.056-0.108,0.101-0.186,0.136
		c-0.078,0.034-0.173,0.052-0.286,0.054h-0.397V162.556L131.066,162.556z M134.508,161.812l1.9,2.928l-0.844,1.638l1.347,0.17
		l2.162-4.735l-1.177-0.397l-0.872,2.078l-1.269-2.078L134.508,161.812L134.508,161.812z M142.628,161.23l-1.929,4.098h-0.518v2.184
		l1.191-0.113v-0.965h2.51v1.078l1.191-0.113v-2.07h-0.518L142.628,161.23L142.628,161.23z M142.593,163.754l0.737,1.688h-1.461
		L142.593,163.754L142.593,163.754z M146.679,161.57v4.863h2.857l0.297-1.027h-1.907v-0.936h1.255v-1.028h-1.255v-0.844h1.759
		l-0.263-1.028H146.679L146.679,161.57z M153.558,163.591l1.305,3.027l1.255-0.298l-2.531-5.09l-2.538,5.09l1.241,0.298
		L153.558,163.591L153.558,163.591z M157.545,161.57v4.92l1.247-0.113v-4.92L157.545,161.57L157.545,161.57z M160.702,166.434h1.971
		c0.231-0.001,0.443-0.033,0.636-0.098s0.359-0.157,0.501-0.277c0.141-0.122,0.249-0.268,0.327-0.438
		c0.077-0.172,0.116-0.363,0.117-0.576c0-0.177-0.029-0.338-0.088-0.488c-0.057-0.15-0.143-0.28-0.257-0.393
		c-0.115-0.111-0.258-0.198-0.428-0.262v-0.027c0.131-0.055,0.243-0.132,0.339-0.229c0.095-0.098,0.168-0.214,0.22-0.348
		c0.052-0.133,0.078-0.282,0.079-0.445c0-0.136-0.021-0.27-0.066-0.399c-0.045-0.131-0.113-0.253-0.208-0.367
		c-0.093-0.113-0.215-0.214-0.362-0.299c-0.148-0.085-0.326-0.151-0.533-0.196c-0.142-0.027-0.285-0.045-0.429-0.053
		c-0.145-0.009-0.287-0.012-0.429-0.012c-0.108,0-0.225,0.003-0.353,0.006c-0.126,0.004-0.254,0.009-0.383,0.014
		c-0.129,0.006-0.249,0.012-0.363,0.017c-0.113,0.006-0.21,0.011-0.291,0.015V166.434L160.702,166.434z M161.949,163.492v-0.972
		h0.354c0.112,0.001,0.211,0.021,0.296,0.06c0.085,0.041,0.151,0.096,0.198,0.162c0.049,0.068,0.072,0.146,0.073,0.232
		c0.001,0.082-0.018,0.162-0.056,0.24c-0.037,0.08-0.099,0.145-0.185,0.196c-0.083,0.052-0.194,0.078-0.334,0.081H161.949
		L161.949,163.492z M161.949,165.441v-1.021h0.404c0.129,0.002,0.236,0.018,0.321,0.051c0.085,0.031,0.152,0.074,0.202,0.125
		c0.05,0.052,0.085,0.107,0.106,0.166c0.021,0.059,0.031,0.115,0.029,0.169c0.002,0.052-0.008,0.108-0.028,0.167
		c-0.019,0.058-0.053,0.113-0.1,0.166c-0.049,0.051-0.115,0.094-0.2,0.127s-0.193,0.05-0.324,0.051H161.949L161.949,165.441z
		 M123.721,82.669h-14.24l6.491-6.491l0.529-0.041v-0.413c-0.617-0.657-1.258-1.079-1.258-1.832
		c0.269-0.649,0.618-0.833,1.258-1.304v-1.122c-0.342-0.164-0.645-0.546-0.963-0.638c-0.888-0.255-0.529-0.06-1.22-1.167
		c-0.359-0.579-0.904-0.125-0.065-1.474c0.399-0.642,0.271-0.923,1.352-1.233c0.59-0.169,2.445-0.846,2.854-0.729
		s0.842,0.088,1.15,0.298c0.309,0.21-0.435,1.52-0.263,1.797c0.173,0.277,0.335,0.317,0.335,0.637s-1.421,0.89-1.593,1.167
		c-0.173,0.277,0.765,1.025,0.039,1.234c-0.282,0.081-0.583,0.137-0.897,0.164v0.957c0.422,0.447,0.97,0.799,1.523,1.413
		c0,0.809-0.841,1.037-1.523,1.905v0.283l0.464-0.036L123.721,82.669L123.721,82.669z M117.031,79.292
		c-0.842,0-1.523,0.49-1.523,1.093c0,0.604,0.682,1.093,1.523,1.093c0.841,0,1.523-0.489,1.523-1.093
		C118.555,79.781,117.872,79.292,117.031,79.292L117.031,79.292z M134.185,48.56h2.252v-6.755h1.06v0.47l3.577,0.656v0.993
		l-3.577,0.954v3.682h1.921v1.59h3.18v1.457h-11.26V50.15h2.848V48.56L134.185,48.56z M130.277,51.938h13.113v1.06h-13.113V51.938
		L130.277,51.938z M131.337,53.461h11.193v14.504h-11.193V53.461L131.337,53.461z M137.132,57.17c-0.046,0-0.092,0.001-0.137,0.003
		l0.287,2.067l2.108-0.775C138.937,57.69,138.095,57.17,137.132,57.17L137.132,57.17z M139.407,58.494l-1.724,1.343l1.645,1.372
		c0.266-0.409,0.42-0.897,0.42-1.421C139.748,59.316,139.624,58.875,139.407,58.494L139.407,58.494z M139.292,61.263l-1.925-0.781
		l-0.332,1.918c0.032,0.001,0.064,0.002,0.097,0.002C138.029,62.402,138.82,61.951,139.292,61.263L139.292,61.263z M136.91,62.393
		l-0.26-1.862l-1.738,0.64C135.337,61.851,136.066,62.322,136.91,62.393L136.91,62.393z M134.834,61.038l1.416-1.103l-1.493-1.245
		c-0.154,0.333-0.241,0.705-0.241,1.097C134.516,60.24,134.632,60.666,134.834,61.038L134.834,61.038z M134.812,58.578l1.754,0.711
		l0.365-2.112C136.008,57.248,135.219,57.798,134.812,58.578L134.812,58.578z M136.931,57.178l0.064-0.004
		C136.974,57.175,136.952,57.176,136.931,57.178L136.931,57.178z M129.682,68.628h14.57v2.053h-0.993v16.028h0.729v1.192h1.06v1.259
		h-16.16v-1.259h0.927v-1.192h0.662V70.682h-0.794V68.628L129.682,68.628z M146.637,88.696h17.617l-9.537-8.478L146.637,88.696
		L146.637,88.696z M45.038,105.983h1.192v-3.246h-1.192V105.983L45.038,105.983z M48.349,109.957h1.921
		c0.679-0.264,1.363-0.516,2.053-0.758v-0.633h1.888c1.479-0.477,2.973-0.908,4.47-1.307v-1.211h-0.199v-3.312h0.596v-0.861H58.35
		v-0.729h-1.126v0.729h-1.126v-0.927h-3.046v-0.53h-0.97l-2.133-2.253c0.441-0.07,0.815-0.422,0.815-0.882v-1.059
		c0-0.51-0.417-0.927-0.927-0.927h-2.482c-0.51,0-0.927,0.417-0.927,0.927v1.059c0,0.51,0.417,0.927,0.927,0.927h1.117l2.056,2.209
		h-0.854v0.53h-3.312v0.927h-1.457v-0.729h-1.126v0.729h-0.464v0.861h0.861v3.246v0.066h-0.994v2.518h0.994v1.391h1.589v0.178h2.583
		V109.957L48.349,109.957z M53.052,106.049h1.523v-3.312h-1.523V106.049L53.052,106.049z M56.363,106.049h1.258v-3.312h-1.258
		V106.049L56.363,106.049z M48.018,105.983h1.656v-3.246h-1.656V105.983L48.018,105.983z M50.733,105.983h1.258v-3.246h-1.258
		V105.983L50.733,105.983z M47.517,96.387h2.158v0.735h-2.158V96.387L47.517,96.387z M66.894,81.014v-2.451h1.457v2.451h0.994v2.517
		h0.132c1.275,0,4.274,2.025,4.511,3.278l0.257,1.358h-6.093v-2.186h-1.523v2.186h-5.762v-1.126c0-1.275,3.56-3.51,4.835-3.51H65.9
		v-2.517H66.894L66.894,81.014z M59.344,88.961h44.838v0.927H59.344V88.961L59.344,88.961z M60.271,90.551v16.161h0.558
		c0.167-0.041,0.335-0.082,0.502-0.122V90.551H60.271L60.271,90.551z M88.419,101.214h2.583v-0.861h-2.583V101.214L88.419,101.214z
		 M92.724,101.214h2.517v-0.861h-2.517V101.214L92.724,101.214z M96.963,101.214h2.053v-0.861h-2.053V101.214L96.963,101.214z
		 M100.738,101.214h2.053v-0.861h-2.053V101.214L100.738,101.214z M99.016,102.028c1.834-0.053,3.667-0.085,5.497-0.098V90.352
		h-1.722v1.06h-2.053v-1.06h-1.722v1.06h-2.053v-1.06h-1.722v1.06h-2.517v-1.06h-1.722v1.06h-2.583v-0.729H73.252v13.598
		c0.206-0.031,0.411-0.063,0.617-0.093c4.811-0.719,9.673-1.249,14.55-1.614v-0.565h2.583v0.387c0.574-0.037,1.148-0.07,1.722-0.103
		v-0.284h2.517v0.158c0.574-0.026,1.148-0.049,1.722-0.071v-0.087h2.053V102.028L99.016,102.028z M88.419,99.559V98.83h2.583v0.729
		H88.419L88.419,99.559z M92.724,99.559V98.83h2.517v0.729H92.724L92.724,99.559z M96.963,99.559V98.83h2.053v0.729H96.963
		L96.963,99.559z M100.738,99.559V98.83h2.053v0.729H100.738L100.738,99.559z M88.419,98.035v-0.861h2.583v0.861H88.419
		L88.419,98.035z M92.724,98.035v-0.861h2.517v0.861H92.724L92.724,98.035z M96.963,98.035v-0.861h2.053v0.861H96.963L96.963,98.035
		z M100.738,98.035v-0.861h2.053v0.861H100.738L100.738,98.035z M88.419,96.379v-0.861h2.583v0.861H88.419L88.419,96.379z
		 M92.724,96.379v-0.861h2.517v0.861H92.724L92.724,96.379z M96.963,96.379v-0.861h2.053v0.861H96.963L96.963,96.379z
		 M100.738,96.379v-0.861h2.053v0.861H100.738L100.738,96.379z M88.419,94.724v-0.861h2.583v0.861H88.419L88.419,94.724z
		 M92.724,94.724v-0.861h2.517v0.861H92.724L92.724,94.724z M96.963,94.724v-0.861h2.053v0.861H96.963L96.963,94.724z
		 M100.738,94.724v-0.861h2.053v0.861H100.738L100.738,94.724z M88.419,93.068v-0.861h2.583v0.861H88.419L88.419,93.068z
		 M92.724,93.068v-0.861h2.517v0.861H92.724L92.724,93.068z M96.963,93.068v-0.861h2.053v0.861H96.963L96.963,93.068z
		 M100.738,93.068v-0.861h2.053v0.861H100.738L100.738,93.068z M105.904,101.923c0.154,0,0.309,0,0.463,0
		c10.826,0,21.788,0.667,32.5,2.266c4.513,0.673,9.017,1.52,13.445,2.623c3.583,0.892,7.172,1.96,10.608,3.323h4.645v-5.808
		l-3.974-6.333v-8.105H124.25v-6.623h-14.57v6.623h-3.775V101.923L105.904,101.923z M69.013,102.936H65.9v-5.222
		c0-0.771,0.63-1.401,1.401-1.401h0.311c0.771,0,1.401,0.63,1.401,1.401V102.936L69.013,102.936z M62.854,90.617v15.233h1.739
		c2.367-0.504,4.749-0.943,7.136-1.33V90.617H62.854L62.854,90.617z M61.523,104.989v1.052h1.126v-1.052H61.523L61.523,104.989z
		 M61.523,102.624v1.052h1.126v-1.052H61.523L61.523,102.624z M61.523,100.258h1.126v1.052h-1.126V100.258L61.523,100.258z
		 M61.523,97.893h1.126v1.052h-1.126V97.893L61.523,97.893z M61.523,95.527h1.126v1.052h-1.126V95.527L61.523,95.527z
		 M61.523,90.665h1.126v1.052h-1.126V90.665L61.523,90.665z M61.523,93.067h1.126v1.052h-1.126V93.067L61.523,93.067z
		 M71.922,102.624v1.052h1.126v-1.052H71.922L71.922,102.624z M71.922,100.258h1.126v1.052h-1.126V100.258L71.922,100.258z
		 M71.922,97.893h1.126v1.052h-1.126V97.893L71.922,97.893z M71.922,95.527h1.126v1.052h-1.126V95.527L71.922,95.527z
		 M71.922,90.665h1.126v1.052h-1.126V90.665L71.922,90.665z M71.922,93.067h1.126v1.052h-1.126V93.067L71.922,93.067z
		 M104.712,99.656h1.06v1.293h-1.06V99.656L104.712,99.656z M104.712,96.775h1.06v1.293h-1.06V96.775L104.712,96.775z
		 M104.712,93.895h1.06v1.293h-1.06V93.895L104.712,93.895z M104.712,91.015h1.06v1.293h-1.06V91.015L104.712,91.015z
		 M126.833,100.347h1.325v1.199h-1.325V100.347L126.833,100.347z M126.833,97.678h1.325v1.198h-1.325V97.678L126.833,97.678z
		 M126.833,95.008h1.325v1.199h-1.325V95.008L126.833,95.008z M126.833,92.339h1.325v1.199h-1.325V92.339L126.833,92.339z
		 M125.376,98.764h-3.112v-3.76c0-0.555,0.63-1.008,1.4-1.008h0.312c0.771,0,1.4,0.454,1.4,1.008V98.764L125.376,98.764z
		 M120.475,98.764h-3.112v-3.76c0-0.555,0.63-1.008,1.4-1.008h0.312c0.771,0,1.4,0.454,1.4,1.008V98.764L120.475,98.764z
		 M110.673,98.764h-3.112v-3.76c0-0.555,0.63-1.008,1.4-1.008h0.312c0.771,0,1.4,0.454,1.4,1.008V98.764L110.673,98.764z
		 M115.441,98.764h-3.113v-3.76c0-0.555,0.631-1.008,1.401-1.008h0.312c0.771,0,1.4,0.454,1.4,1.008V98.764L115.441,98.764z
		 M118.896,87.971h-3.402v-3.841h3.402V87.971L118.896,87.971z M118.31,86.417v0.893h-0.772v-0.893H118.31L118.31,86.417z
		 M116.851,87.31h-0.772v-0.893h0.772V87.31L116.851,87.31z M116.078,85.683V84.79h0.772v0.893H116.078L116.078,85.683z
		 M117.537,84.79h0.772v0.893h-0.772V84.79L117.537,84.79z M123.347,87.971h-3.402v-3.841h3.402V87.971L123.347,87.971z
		 M122.762,86.417v0.893h-0.773v-0.893H122.762L122.762,86.417z M121.303,87.31h-0.772v-0.893h0.772V87.31L121.303,87.31z
		 M120.53,85.683V84.79h0.772v0.893H120.53L120.53,85.683z M121.988,84.79h0.773v0.893h-0.773V84.79L121.988,84.79z M123.347,92.869
		h-3.402v-3.841h3.402V92.869L123.347,92.869z M122.762,91.315v0.893h-0.773v-0.893H122.762L122.762,91.315z M121.303,92.208h-0.772
		v-0.893h0.772V92.208L121.303,92.208z M120.53,90.581v-0.893h0.772v0.893H120.53L120.53,90.581z M121.988,89.688h0.773v0.893
		h-0.773V89.688L121.988,89.688z M118.896,92.869h-3.402v-3.841h3.402V92.869L118.896,92.869z M118.31,91.315v0.893h-0.772v-0.893
		H118.31L118.31,91.315z M116.851,92.208h-0.772v-0.893h0.772V92.208L116.851,92.208z M116.078,90.581v-0.893h0.772v0.893H116.078
		L116.078,90.581z M117.537,89.688h0.772v0.893h-0.772V89.688L117.537,89.688z M114.443,92.869h-3.402v-3.841h3.402V92.869
		L114.443,92.869z M113.858,91.315v0.893h-0.773v-0.893H113.858L113.858,91.315z M112.399,92.208h-0.773v-0.893h0.773V92.208
		L112.399,92.208z M111.626,90.581v-0.893h0.773v0.893H111.626L111.626,90.581z M113.085,89.688h0.773v0.893h-0.773V89.688
		L113.085,89.688z M114.443,87.971h-3.402v-3.841h3.402V87.971L114.443,87.971z M113.858,86.417v0.893h-0.773v-0.893H113.858
		L113.858,86.417z M112.399,87.31h-0.773v-0.893h0.773V87.31L112.399,87.31z M111.626,85.683V84.79h0.773v0.893H111.626
		L111.626,85.683z M113.085,84.79h0.773v0.893h-0.773V84.79L113.085,84.79z M157.122,94.726h-4.193v-3.841h4.193V94.726
		L157.122,94.726z M156.4,93.173v0.893h-0.952v-0.893H156.4L156.4,93.173z M155.448,91.546h0.952v0.893h-0.952V91.546
		L155.448,91.546z M153.65,92.438v-0.893h0.952v0.893H153.65L153.65,92.438z M154.603,94.065h-0.952v-0.893h0.952V94.065
		L154.603,94.065z M156.4,99.398v0.893h-0.952v-0.893H156.4L156.4,99.398z M154.603,100.291h-0.952v-0.893h0.952V100.291
		L154.603,100.291z M157.122,100.952h-4.193V97.11h4.193V100.952L157.122,100.952z M155.448,97.771h0.952v0.893h-0.952V97.771
		L155.448,97.771z M153.65,98.664v-0.893h0.952v0.893H153.65L153.65,98.664z M145.047,100.952h-4.193V97.11h4.193V100.952
		L145.047,100.952z M144.325,99.398v0.893h-0.952v-0.893H144.325L144.325,99.398z M142.527,100.291h-0.952v-0.893h0.952V100.291
		L142.527,100.291z M141.575,98.664v-0.893h0.952v0.893H141.575L141.575,98.664z M143.373,97.771h0.952v0.893h-0.952V97.771
		L143.373,97.771z M139.561,100.952h-4.194V97.11h4.194V100.952L139.561,100.952z M138.839,99.398v0.893h-0.953v-0.893H138.839
		L138.839,99.398z M137.041,100.291h-0.953v-0.893h0.953V100.291L137.041,100.291z M136.088,98.664v-0.893h0.953v0.893H136.088
		L136.088,98.664z M137.886,97.771h0.953v0.893h-0.953V97.771L137.886,97.771z M134.073,100.952h-4.193V97.11h4.193V100.952
		L134.073,100.952z M133.352,99.398v0.893h-0.952v-0.893H133.352L133.352,99.398z M131.554,100.291h-0.952v-0.893h0.952V100.291
		L131.554,100.291z M130.602,98.664v-0.893h0.952v0.893H130.602L130.602,98.664z M132.399,97.771h0.952v0.893h-0.952V97.771
		L132.399,97.771z M145.047,94.726h-4.193v-3.841h4.193V94.726L145.047,94.726z M144.325,93.173v0.893h-0.952v-0.893H144.325
		L144.325,93.173z M142.527,94.065h-0.952v-0.893h0.952V94.065L142.527,94.065z M141.575,92.438v-0.893h0.952v0.893H141.575
		L141.575,92.438z M143.373,91.546h0.952v0.893h-0.952V91.546L143.373,91.546z M139.561,94.726h-4.194v-3.841h4.194V94.726
		L139.561,94.726z M138.839,93.173v0.893h-0.953v-0.893H138.839L138.839,93.173z M137.041,94.065h-0.953v-0.893h0.953V94.065
		L137.041,94.065z M136.088,92.438v-0.893h0.953v0.893H136.088L136.088,92.438z M137.886,91.546h0.953v0.893h-0.953V91.546
		L137.886,91.546z M134.073,94.726h-4.193v-3.841h4.193V94.726L134.073,94.726z M133.352,93.173v0.893h-0.952v-0.893H133.352
		L133.352,93.173z M131.554,94.065h-0.952v-0.893h0.952V94.065L131.554,94.065z M130.602,92.438v-0.893h0.952v0.893H130.602
		L130.602,92.438z M132.399,91.546h0.952v0.893h-0.952V91.546L132.399,91.546z M104.05,88.233l-2.451-3.047H87.757v-9.669h0.861
		v-2.053H73.915v2.053h0.794v12.65h3.312V76.42c0-0.606,0.497-1.103,1.103-1.103h0.245c0.606,0,1.103,0.496,1.103,1.103v11.746h1.59
		V76.42c0-0.606,0.496-1.103,1.103-1.103h0.245c0.606,0,1.103,0.496,1.103,1.103v11.746h0.133v0.066H104.05L104.05,88.233z
		 M74.91,63.933h12.696v0.944h-1.154v7.659h-1.889v-4.407h-2.308v4.407h-2.204v-4.407h-2.098v4.407h-1.994v-7.659H74.91V63.933
		L74.91,63.933z M76.903,55.644h1.154v1.889h2.413c0-0.909,0.01-1.091-0.517-1.832c-0.212-0.299-0.542-0.542-0.637-0.896
		c-0.127-0.473,0-0.979,0-1.469c0-0.385,0.458-0.174,0.641-0.513c0.171-0.316,0.46-0.593,0.513-0.948l0.463-3.114h0.553
		c0.221,1.016,0.441,2.032,0.662,3.047c0.108,0.498,0.32,0.531,0.48,1.015c0.088,0.268,0.674,0.231,0.674,0.513
		c0,0.49,0,0.979,0,1.469c0,0.385-0.535,0.523-0.639,0.893l-0.516,1.835h2.413c0-0.665-0.665-1.993,0-1.993h1.049v7.134h-1.049
		V60.05h-2.413v2.833h-1.784V60.05h-2.308v3.148h-1.154V55.644z"/>
</g>
</svg>
