<?xml version="1.0" encoding="utf-8"?>
<!DOCTYPE svg PUBLIC "-//W3C//DTD SVG 1.1//EN" "http://www.w3.org/Graphics/SVG/1.1/DTD/svg11.dtd">
<svg version="1.1" id="Layer_1" xmlns="http://www.w3.org/2000/svg" xmlns:xlink="http://www.w3.org/1999/xlink" x="0px" y="0px" width="216px" height="216px" viewBox="0 0 216 216" enable-background="new 0 0 216 216" xml:space="preserve">
<g>
	<path fill="#FFFFFF" d="M0.122,0.122h216v216h-216V0.122z"/>
	<path fill="#FFFFFF" d="M11.145,75.382H204.85v65.481H11.145V75.382z"/>
	<path fill="#B8A265" d="M9.651,73.888h196.941v68.468H9.651V73.888z M11.145,140.863H204.85V75.382H11.145V140.863z"/>
	<path fill="#777C78" d="M14.133,78.121h187.729v60.004H14.133V78.121z"/>
	<path fill="#FFFFFF" d="M131.901,129.906c1.492,0,2.488,0,3.234-0.496c0,0.746-0.247,1.492-0.996,1.492h-5.975l-0.25-0.496
		c0.499,0,0.749-0.499,0.749-0.996v-7.967c0-0.498-0.25-0.996-0.749-0.996l0.25-0.498c0.25,0.249,0.746,0.249,1.245,0.249
		c0.25,0,0.746,0,1.245-0.249v0.498c-0.499,0-0.749,0.497-0.749,0.996v8.464L131.901,129.906L131.901,129.906z M106.753,119.949
		h-6.723c-0.748,0-0.995,0.746-0.995,1.244l0.249,0.25c0.249-0.498,0.499-0.498,0.996-0.498h2.49v8.466
		c0,0.496-0.249,0.996-0.748,0.996v0.496c0.499,0,0.997-0.247,1.245-0.247c0.498,0,0.996,0.247,1.245,0.247l0.249-0.496
		c-0.498,0-0.747-0.499-0.747-0.996v-8.466h2.241c0.747,0,0.996,0,1.245,0.498l0.249-0.25
		C107.5,120.695,107.5,119.949,106.753,119.949z M120.695,129.41c-0.497,0.496-1.493,0.496-3.237,0.496h-1.989v-4.48h1.989
		c0.498,0,1.744,0,2.241,0.25v-0.996h-4.23v-3.735h2.737c0.746,0,1.245,0,1.245,0.498h0.248c0.25-0.25,0.25-0.996,0.25-1.495h-6.226
		l-0.25,0.499c0.499,0,0.749,0.496,0.749,0.996v7.967c0,0.496-0.25,0.996-0.749,0.996l0.25,0.496h6.226
		C120.447,130.902,120.695,130.156,120.695,129.41z M75.63,124.182c0,0.498-0.25,0.498-0.996,0.498h-2.241
		c-0.747,0-1.494,0.248-1.991,0.497v-3.734c0-0.498,0.249-0.996,0.747-0.996l-0.249-0.499c-0.25,0.25-0.748,0.25-1.245,0.25
		c-0.249,0-0.747,0-1.245-0.25v0.499c0.499,0,0.748,0.496,0.748,0.996v7.967c0,0.496-0.249,0.996-0.748,0.996v0.496
		c0.499,0,0.996-0.248,1.245-0.248c0.497,0,0.996,0.248,1.245,0.248l0.249-0.496c-0.498,0-0.747-0.499-0.747-0.996v-3.237
		c0-0.497,0.249-0.497,0.996-0.497h2.241c0.748,0,1.494-0.25,1.993-0.498v4.232c0,0.496-0.25,0.996-0.748,0.996l0.249,0.496
		c0.249,0,0.996-0.248,1.245-0.248c0.25,0,0.997,0.248,1.245,0.248l0.249-0.496c-0.497,0-0.996-0.499-0.996-0.996v-7.967
		c0-0.498,0.498-0.996,0.996-0.996l-0.249-0.499c-0.249,0.25-0.995,0.25-1.245,0.25c-0.249,0-0.996,0-1.245-0.25l-0.249,0.499
		c0.498,0,0.748,0.496,0.748,0.996v2.739H75.63z M140.863,128.664v0.996c0,0.996,1.245,1.242,2.489,1.242
		c1.744,0,2.989-0.996,2.989-2.737c0-2.987-4.232-3.734-4.232-5.976c0-0.996,0.746-1.494,1.742-1.494
		c0.747,0,1.245,0.25,1.743,1.245l0.25-0.25c0.25-0.248,0.25-0.996,0-1.243c-0.497-0.25-1.245-0.498-1.991-0.498
		c-1.495,0-2.738,0.996-2.738,2.737c0,2.739,4.232,3.486,4.232,5.728c0,1.244-0.996,1.742-1.744,1.742
		c-1.245,0-2.241-0.746-2.489-1.492H140.863z M83.847,125.426c0-2.987,2.24-5.479,5.229-5.479c2.739,0,4.98,2.491,4.98,5.479
		c0,2.988-2.241,5.477-4.98,5.477C86.087,130.902,83.847,128.414,83.847,125.426z M85.34,125.178c0,1.991,1.245,4.979,3.984,4.979
		c1.743,0,3.485-1.742,3.485-4.48c0-1.991-1.245-4.98-3.983-4.98C86.834,120.695,85.34,122.438,85.34,125.178z M152.565,106.504
		c-1.495,0-5.229-0.25-6.474-0.25l-0.25-0.498c0.747-0.249,1.245-0.747,1.245-1.744V90.819c0-0.747-0.498-1.245-1.245-1.494
		l0.25-0.748c1.743,0,5.229-0.249,6.226-0.249c5.476,0,8.962,2.739,8.962,9.212C161.278,103.267,157.296,106.504,152.565,106.504z
		 M152.315,105.259c4.48,0,6.722-3.236,6.722-7.718c0-5.229-2.489-7.966-6.722-7.966c-0.996,0-2.241,0-3.237,0.249v15.188
		C150.324,105.259,151.07,105.259,152.315,105.259L152.315,105.259z M89.574,107.001V90.819c0-0.747,0.498-1.245,1.244-1.494
		l-0.249-0.748c-0.499,0-0.997,0.249-1.494,0.249s-1.494-0.249-1.992-0.249l-0.249,0.748c0.747,0.25,1.245,0.748,1.245,1.494v11.453
		c-1.742-1.991-8.963-10.706-9.958-12.449c-0.25-0.249-0.499-0.748-0.25-1.245c-0.746,0-0.996,0.249-1.494,0.249
		s-1.245-0.249-1.991-0.249v0.748c0.747,0.25,1.245,0.748,1.245,1.494v13.195c0,0.996-0.499,1.494-1.245,1.744v0.498h3.735
		l0.249-0.498c-0.747-0.249-1.245-0.748-1.245-1.744V92.063l12.2,14.938H89.574z M176.218,104.014
		c-0.996,0.747-2.491,0.996-5.229,0.996h-3.237v-7.47h3.237c0.746,0,2.489,0,3.484,0.25v-1.494h-6.722v-6.474h4.232
		c1.492,0,2.241,0.249,2.241,0.996h0.248c0.249-0.499,0.498-1.744,0.748-2.241h-10.457l-0.25,0.748
		c0.746,0.25,1.245,0.748,1.245,1.494v13.195c0,0.996-0.499,1.494-1.245,1.744l0.25,0.498h9.958c0.997,0,1.495-1.245,1.495-1.992
		V104.014L176.218,104.014z M54.966,97.541c0-5.229,3.735-9.212,8.465-9.212s8.465,3.983,8.465,9.212
		c0,4.979-3.735,8.963-8.465,8.963C58.7,106.504,54.966,102.52,54.966,97.541z M57.206,97.043c0,3.486,2.241,8.216,6.722,8.216
		c2.989,0,5.727-2.739,5.727-7.469c0-3.237-2.242-8.216-6.723-8.216C59.945,89.574,57.206,92.562,57.206,97.043z M109.99,97.541
		c0-5.229,3.733-9.212,8.216-9.212c4.73,0,8.466,3.983,8.466,9.212c0,4.979-3.735,8.963-8.466,8.963
		C113.724,106.504,109.99,102.52,109.99,97.541z M111.981,97.043c0,3.486,2.488,8.216,6.722,8.216c2.987,0,5.977-2.739,5.977-7.469
		c0-3.237-2.491-8.216-6.724-8.216C114.72,89.574,111.981,92.562,111.981,97.043z M53.721,102.271v0.996
		c0,1.991-1.991,3.237-5.726,3.237c-5.726,0-9.212-3.486-9.212-8.963s4.232-8.964,8.964-8.964c1.992,0,3.983,0.249,5.229,0.997
		c0.249,0.498,0,1.991,0,2.49l-0.499,0.249c-0.748-1.993-2.988-2.739-4.98-2.739c-3.984,0-6.723,2.739-6.723,7.22
		c0,4.482,2.739,8.465,7.22,8.465C50.733,105.259,52.725,103.765,53.721,102.271z M108.247,102.271
		c0.249,0.498,0.249,0.748,0.249,0.996c0,1.991-2.241,3.237-5.976,3.237c-5.726,0-9.212-3.486-9.212-8.963s4.232-8.964,8.964-8.964
		c1.991,0,3.983,0.249,5.477,0.997c0,0.498,0,1.991-0.249,2.49l-0.498,0.249c-0.748-1.993-2.739-2.739-4.98-2.739
		c-3.735,0-6.722,2.739-6.722,7.22c0,4.482,2.739,8.465,7.47,8.465C105.259,105.259,107.5,103.765,108.247,102.271z M136.88,97.79
		c2.488-0.747,3.733-2.738,3.733-4.979c0-3.236-2.737-4.481-5.975-4.481c-1.245,0-3.736,0.249-4.979,0.249l-0.25,0.748
		c0.996,0.25,1.245,0.748,1.245,1.494v13.195c0,0.996-0.25,1.494-1.245,1.744l0.25,0.498h4.232l0.247-0.498
		c-0.746-0.249-1.242-0.748-1.242-1.744v-5.976h1.242c3.736,0,4.482,8.466,8.965,8.466c0.496,0,1.245-0.25,1.493-0.498
		C140.863,105.259,139.867,98.537,136.88,97.79L136.88,97.79z M134.639,96.794h-1.742v-6.971c0.247,0,0.746-0.249,1.492-0.249
		c2.491,0,3.983,0.746,3.983,3.485S137.376,96.794,134.639,96.794z"/>
	<path fill="#B8A265" d="M188.418,112.728H121.94v-0.25c0-1.492-2.489-1.991-4.73-1.991c-7.72,0-15.437,4.482-19.669,4.482
		c-1.494,0-2.49-0.499-2.49-0.996c0-0.499,0.748-0.746,1.494-0.746c0.747,0,1.743,0.247,1.992,0.496v-0.25
		c0-0.496-0.997-0.996-1.992-0.996c-0.497,0-0.996,0-1.494,0.25H24.839v0.499h69.714v0.496c0,1.245,1.743,1.745,3.237,1.745
		c6.473,0,13.942-4.482,19.668-4.482c2.241,0,3.486,0.746,3.486,1.492c0,0,0,0.25-0.25,0.25h-0.747
		c-2.241,0-3.983,0.499-3.983,1.245s0.499,0.996,1.493,0.996c1.744,0,3.485-0.746,4.232-1.742h66.728L188.418,112.728
		L188.418,112.728z M117.21,114.72c-0.25,0-0.996-0.25-0.996-0.496c0-0.499,1.243-0.996,4.232-0.996
		C119.699,113.974,118.456,114.72,117.21,114.72z"/>
</g>
<g>
</g>
<g>
</g>
<g>
</g>
<g>
</g>
<g>
</g>
<g>
</g>
</svg>
