<?xml version="1.0" encoding="utf-8"?>
<!DOCTYPE svg PUBLIC "-//W3C//DTD SVG 1.1//EN" "http://www.w3.org/Graphics/SVG/1.1/DTD/svg11.dtd">
<svg version="1.1" id="Layer_1" xmlns="http://www.w3.org/2000/svg" xmlns:xlink="http://www.w3.org/1999/xlink" x="0px" y="0px" width="216px" height="216px" viewBox="0 0 216 216" enable-background="new 0 0 216 216" xml:space="preserve">
<g>
	<path fill-rule="evenodd" clip-rule="evenodd" fill="#F15A40" d="M15.992,41.258h185.015c7.696,0,13.993,6.296,13.993,13.993
		v103.39c0,7.697-6.297,13.993-13.993,13.993H15.992C8.296,172.634,2,166.338,2,158.641V55.25C2,47.554,8.296,41.258,15.992,41.258
		L15.992,41.258z M15.992,45.335c-5.454,0-9.916,4.462-9.916,9.916v103.39c0,5.454,4.462,9.916,9.916,9.916h185.015
		c5.454,0,9.916-4.462,9.916-9.916V55.25c0-5.454-4.462-9.916-9.916-9.916H15.992z"/>
	<g>
		<rect x="20.223" y="91.997" fill="#F15A40" width="9.298" height="29.744"/>
		<path fill="#F15A40" d="M29.627,83.914c-0.009-0.942-0.212-1.77-0.608-2.475c-0.405-0.713-0.959-1.268-1.673-1.673
			c-0.704-0.396-1.532-0.599-2.474-0.607c-0.925,0.009-1.743,0.211-2.457,0.607c-0.705,0.405-1.268,0.96-1.673,1.673
			c-0.405,0.705-0.616,1.532-0.625,2.475c0.009,0.907,0.211,1.708,0.607,2.413c0.405,0.705,0.96,1.259,1.673,1.664
			c0.704,0.405,1.532,0.617,2.474,0.625c0.907-0.009,1.717-0.203,2.43-0.599c0.713-0.387,1.277-0.942,1.69-1.638
			C29.407,85.675,29.618,84.856,29.627,83.914z"/>
		<path fill="#7B9AA9" d="M36.442,121.741h9.245V107.16c0.317,0.026,0.669,0.053,1.065,0.07c0.388,0.026,0.81,0.035,1.259,0.035
			c1.074,0,2.202-0.079,3.381-0.247c1.171-0.176,2.351-0.457,3.513-0.862c1.171-0.396,2.281-0.942,3.32-1.629
			c1.048-0.696,1.981-1.55,2.792-2.589c0.81-1.03,1.453-2.263,1.919-3.689c0.467-1.436,0.704-3.1,0.713-4.984
			c0-1.277-0.167-2.492-0.493-3.663c-0.326-1.162-0.792-2.236-1.409-3.213c-0.617-0.978-1.356-1.814-2.219-2.527
			c-1.365-1.154-3.056-1.981-5.054-2.483c-2.007-0.502-4.35-0.748-7.044-0.739c-2.325,0.009-4.411,0.088-6.243,0.247
			c-1.84,0.158-3.426,0.352-4.746,0.599V121.741L36.442,121.741z M45.688,88.193c0.264-0.088,0.643-0.159,1.127-0.22
			c0.476-0.062,1.039-0.097,1.673-0.097c1.242,0,2.298,0.229,3.197,0.669c0.889,0.449,1.566,1.101,2.051,1.964
			c0.476,0.863,0.722,1.928,0.722,3.179c0,1.242-0.255,2.333-0.766,3.275c-0.502,0.942-1.25,1.673-2.237,2.202
			c-0.986,0.528-2.21,0.801-3.654,0.81c-0.466,0-0.863-0.009-1.197-0.035c-0.326-0.018-0.634-0.044-0.916-0.071V88.193z"/>
		<path fill="#7B9AA9" d="M91.81,104.254c0.009-1.329-0.105-2.624-0.335-3.874c-0.22-1.25-0.607-2.413-1.153-3.496
			c-0.538-1.083-1.277-2.034-2.21-2.853s-2.104-1.453-3.513-1.911c-1.4-0.466-3.082-0.695-5.046-0.704
			c-1.708,0.009-3.267,0.15-4.675,0.423c-1.409,0.273-2.633,0.599-3.681,0.986c-1.048,0.388-1.884,0.766-2.527,1.127l1.691,6.022
			c0.959-0.59,2.078-1.074,3.337-1.444c1.259-0.361,2.598-0.554,4.007-0.563c1.241,0.009,2.21,0.176,2.897,0.511
			c0.695,0.326,1.18,0.792,1.461,1.374c0.273,0.59,0.405,1.259,0.396,2.025c-2.201,0.009-4.261,0.238-6.164,0.678
			c-1.911,0.449-3.583,1.126-5.019,2.042c-1.445,0.916-2.571,2.087-3.382,3.504c-0.81,1.417-1.215,3.118-1.232,5.081
			c0.009,1.259,0.22,2.448,0.634,3.549c0.423,1.101,1.03,2.069,1.814,2.905c0.784,0.837,1.717,1.488,2.809,1.964
			c1.101,0.476,2.315,0.714,3.672,0.722c1.03,0,2.007-0.123,2.949-0.36c0.942-0.247,1.805-0.616,2.607-1.127
			c0.801-0.511,1.505-1.153,2.104-1.946h0.159l0.528,2.853h8.347c-0.123-0.607-0.22-1.285-0.29-2.034
			c-0.071-0.748-0.115-1.549-0.141-2.395c-0.035-0.846-0.044-1.717-0.044-2.598V104.254L91.81,104.254z M82.776,111.545
			c-0.018,0.934-0.22,1.708-0.617,2.324c-0.396,0.617-0.907,1.084-1.514,1.392c-0.607,0.309-1.233,0.458-1.884,0.458
			c-0.555,0-1.065-0.123-1.532-0.361c-0.476-0.246-0.854-0.625-1.145-1.145c-0.282-0.511-0.432-1.171-0.44-1.98
			c0.008-0.854,0.193-1.576,0.572-2.158c0.37-0.59,0.889-1.057,1.55-1.399c0.651-0.353,1.409-0.608,2.272-0.758
			c0.854-0.158,1.77-0.229,2.738-0.229V111.545z"/>
		<path fill="#7B9AA9" d="M113.999,91.997l-2.853,14.635c-0.158,0.828-0.316,1.69-0.476,2.579c-0.158,0.891-0.317,1.744-0.476,2.545
			h-0.158c-0.133-0.801-0.3-1.654-0.493-2.553c-0.194-0.89-0.405-1.771-0.616-2.624l-3.487-14.582H95.244l9.721,27.314
			c0.132,0.29,0.229,0.546,0.282,0.757c0.061,0.221,0.088,0.405,0.088,0.564c-0.009,0.449-0.22,0.985-0.634,1.619
			c-0.423,0.635-0.986,1.277-1.699,1.929c-0.714,0.661-1.515,1.241-2.413,1.752c-0.898,0.521-1.832,0.88-2.809,1.093l2.271,7.924
			c0.66-0.097,1.444-0.308,2.351-0.633c0.907-0.318,1.867-0.784,2.888-1.393c1.021-0.607,2.043-1.399,3.056-2.359
			c1.065-1.074,2.078-2.395,3.028-3.944c0.951-1.55,1.894-3.435,2.818-5.636c0.934-2.201,1.91-4.825,2.924-7.854l6.498-21.133
			H113.999z"/>
		<path fill="#F15A40" d="M130.959,122.322c1.082-0.008,2.024-0.255,2.826-0.73c0.811-0.476,1.435-1.145,1.885-2.008
			c0.439-0.863,0.668-1.866,0.678-3.02c-0.01-1.172-0.247-2.184-0.705-3.047c-0.457-0.854-1.092-1.523-1.902-1.99
			c-0.81-0.476-1.734-0.713-2.781-0.722c-1.014,0.009-1.929,0.264-2.738,0.757c-0.803,0.493-1.445,1.162-1.92,2.025
			c-0.477,0.863-0.723,1.857-0.73,2.977c0.008,1.118,0.236,2.113,0.678,2.976c0.449,0.854,1.074,1.532,1.884,2.025
			C128.934,122.059,129.875,122.314,130.959,122.322z"/>
		<path fill="#7B9AA9" d="M167.254,91.997h-9.299v18.228c-0.008,1.004-0.193,1.84-0.545,2.5c-0.361,0.67-0.819,1.162-1.383,1.498
			c-0.572,0.325-1.18,0.492-1.822,0.492c-1.286-0.009-2.229-0.563-2.818-1.664c-0.599-1.092-0.89-2.65-0.881-4.675V91.997h-9.298
			v17.698c0.009,2.854,0.37,5.213,1.101,7.08s1.787,3.258,3.188,4.174s3.1,1.373,5.115,1.373c1.084-0.008,2.061-0.141,2.95-0.404
			c0.88-0.256,1.665-0.6,2.351-1.021c0.688-0.423,1.277-0.881,1.771-1.383c0.502-0.493,0.907-0.986,1.224-1.471h0.158l0.424,3.698
			h8.029c-0.053-1.329-0.113-2.791-0.167-4.402c-0.062-1.611-0.088-3.328-0.097-5.159V91.997z"/>
		<path fill="#7B9AA9" d="M197.051,104.254c0.01-1.329-0.105-2.624-0.334-3.874c-0.221-1.25-0.607-2.413-1.154-3.496
			c-0.537-1.083-1.276-2.034-2.21-2.853c-0.933-0.819-2.104-1.453-3.513-1.911c-1.4-0.466-3.082-0.695-5.046-0.704
			c-1.708,0.009-3.267,0.15-4.675,0.423c-1.409,0.273-2.634,0.599-3.682,0.986c-1.047,0.388-1.884,0.766-2.527,1.127l1.691,6.022
			c0.959-0.59,2.078-1.074,3.337-1.444c1.259-0.361,2.598-0.554,4.007-0.563c1.241,0.009,2.209,0.176,2.896,0.511
			c0.695,0.326,1.18,0.792,1.462,1.374c0.272,0.59,0.405,1.259,0.396,2.025c-2.201,0.009-4.262,0.238-6.163,0.678
			c-1.911,0.449-3.584,1.126-5.019,2.042c-1.445,0.916-2.572,2.087-3.382,3.504s-1.216,3.118-1.232,5.081
			c0.009,1.259,0.22,2.448,0.634,3.549c0.422,1.101,1.03,2.069,1.814,2.905c0.783,0.837,1.717,1.488,2.809,1.964
			c1.101,0.476,2.315,0.714,3.672,0.722c1.029,0,2.008-0.123,2.949-0.36c0.942-0.247,1.805-0.616,2.606-1.127
			s1.506-1.153,2.104-1.946h0.158l0.529,2.853h8.347c-0.123-0.607-0.22-1.285-0.29-2.034c-0.07-0.748-0.115-1.549-0.141-2.395
			c-0.035-0.846-0.045-1.717-0.045-2.598V104.254L197.051,104.254z M188.017,111.545c-0.018,0.934-0.22,1.708-0.616,2.324
			c-0.396,0.617-0.907,1.084-1.515,1.392c-0.607,0.309-1.232,0.458-1.884,0.458c-0.555,0-1.066-0.123-1.532-0.361
			c-0.476-0.246-0.854-0.625-1.146-1.145c-0.281-0.511-0.431-1.171-0.439-1.98c0.009-0.854,0.193-1.576,0.572-2.158
			c0.369-0.59,0.889-1.057,1.55-1.399c0.651-0.353,1.409-0.608,2.271-0.758c0.854-0.158,1.771-0.229,2.738-0.229V111.545z"/>
	</g>
</g>
</svg>
