<?xml version="1.0" encoding="utf-8"?>
<!DOCTYPE svg PUBLIC "-//W3C//DTD SVG 1.1//EN" "http://www.w3.org/Graphics/SVG/1.1/DTD/svg11.dtd">
<svg version="1.1" id="Layer_1" xmlns="http://www.w3.org/2000/svg" xmlns:xlink="http://www.w3.org/1999/xlink" x="0px" y="0px" width="216px" height="216px" viewBox="0 0 216 216" enable-background="new 0 0 216 216" xml:space="preserve">
<circle fill="#E42527" cx="108" cy="108" r="108"/>
<g>
	<g>
		<path fill="#FFFFFF" d="M54.169,76.553l1.122,3.72h5.871L54.601,58.65h-8.75l-6.476,21.623h5.987l1.064-3.72H54.169z
			 M52.989,72.373h-5.324l2.619-9.398h0.058L52.989,72.373z"/>
		<path fill="#FFFFFF" d="M63.166,58.65v21.623h5.757V63.666h7.511v16.607h5.757V58.65H63.166z"/>
		<path fill="#FFFFFF" d="M96.208,63.666h5.814V58.65H84.638v5.016h5.814v16.607h5.756V63.666z"/>
		<path fill="#FFFFFF" d="M110.213,63.378h9.813V58.65h-15.569v21.623h15.771v-4.729h-10.015v-4.209h9.209v-4.007h-9.209V63.378z"/>
		<path fill="#FFFFFF" d="M129.745,58.65h-5.756v21.623h5.756v-8.476h1.728l6.016,8.476h7.138l-8.23-11.013l7.597-10.61h-6.964
			l-5.556,8.13h-1.728V58.65z"/>
		<path fill="#FFFFFF" d="M159.569,76.553l1.124,3.72h5.871l-6.562-21.623h-8.75l-6.477,21.623h5.986l1.065-3.72H159.569z
			 M158.39,72.373h-5.324l2.619-9.398h0.058L158.39,72.373z"/>
	</g>
	<path fill="#FFFFFF" d="M35.185,91.928H19.441v21.622H30.55c4.346,0,6.649-1.787,6.649-6.629c0-4.844-2.246-6.631-6.649-6.631
		h-5.353v-3.863h9.987V91.928z M25.197,104.786h4.001c1.641,0,2.244,0.403,2.244,2.191c0,1.673-0.604,2.076-2.244,2.076h-4.001
		V104.786z"/>
	<path fill="#FFFFFF" d="M53.419,109.831l1.123,3.719h5.871l-6.563-21.622h-8.749l-6.476,21.622h5.986l1.064-3.719H53.419z
		 M52.24,105.651h-5.326l2.619-9.398h0.058L52.24,105.651z"/>
	<path fill="#FFFFFF" d="M80.203,100.059v-8.131h-5.439v8.131h-1.728l-4.777-8.131h-6.562l6.505,10.465l-7.484,11.157h7.138
		l5.18-8.475h1.728v8.475h5.439v-8.475h1.728l5.18,8.475h7.138l-7.483-11.157l6.504-10.465h-6.563l-4.776,8.131H80.203z"/>
	<path fill="#FFFFFF" d="M109.184,109.831l1.122,3.719h5.871l-6.562-21.622h-8.75L94.39,113.55h5.986l1.065-3.719H109.184z
		 M108.004,105.651h-5.325l2.62-9.398h0.057L108.004,105.651z"/>
	<path fill="#FFFFFF" d="M130.643,105.795v0.635c0,2.537-1.123,2.681-3.511,2.681c-3.453,0-3.598-1.413-3.598-4.527h5.238v-4.006
		h-5.238c0-3.287,0.633-4.123,3.598-4.123c2.245,0,3.511,0.402,3.511,2.104v0.548h5.93v-0.288c0-5.537-3.339-7.093-9.066-7.093
		c-6.332,0-9.9,1.413-9.9,8.216v5.594c0,7.899,4.289,8.303,10.159,8.303c4.635,0,8.808-0.691,8.808-6.66v-1.383H130.643z"/>
	<path fill="#FFFFFF" d="M139.458,91.928v21.622h5.756l-0.574-16.576l0.258-0.057l5.439,16.633h4.98l5.41-16.633l0.26,0.057
		l-0.576,16.576h5.756V91.928h-9.354l-3.914,13.579h-0.202l-4.115-13.579H139.458z"/>
	<path fill="#FFFFFF" d="M179.31,113.839c5.842,0,9.987-1.383,9.987-8.043v-6.112c0-6.66-4.146-7.957-9.987-7.957
		s-9.987,1.297-9.987,7.957v6.112C169.322,112.456,173.468,113.839,179.31,113.839z M179.31,108.822
		c-2.993,0-4.058-0.433-4.058-3.661v-4.872c0-3.229,1.064-3.546,4.058-3.546s4.059,0.346,4.059,3.546v4.872
		C183.368,108.39,182.303,108.822,179.31,108.822z"/>
	<g>
		<path fill="#FFFFFF" d="M35.056,138.052h3.05c1.871,0,2.533,0.664,2.533,2.221c0,1.815-0.892,2.306-3.598,2.306
			c-2.819,0-3.626-0.229-3.626-2.479h-5.525c0,6.169,3.079,7.207,9.151,7.207c7.858,0,9.354-1.586,9.354-6.603
			c0-2.652-0.949-4.296-3.742-4.555v-0.231c2.85-0.461,3.396-2.247,3.396-4.987c0-4.526-3.453-5.736-9.066-5.736
			c-5.641,0-8.836,1.269-8.836,6.054v0.894h5.499c0-1.815,0.95-2.22,3.252-2.22c2.964,0,3.396,0.749,3.396,2.047
			c0,1.73-0.719,2.075-2.503,2.075h-2.734V138.052z"/>
		<path fill="#FFFFFF" d="M52.163,125.396v7.583c0,4.729-0.633,7.033-2.129,9.081h-1.699v9.947h5.469v-4.989h11.311v4.989h5.469
			v-9.947h-1.814v-16.664H52.163z M63.013,130.354v11.705h-7.167c1.209-2.134,1.785-4.468,1.785-8.736v-2.969H63.013z"/>
		<path fill="#FFFFFF" d="M82.51,147.307c5.842,0,9.987-1.384,9.987-8.044v-6.111c0-6.66-4.145-7.957-9.987-7.957
			c-5.843,0-9.987,1.297-9.987,7.957v6.111C72.522,145.923,76.667,147.307,82.51,147.307z M82.51,142.29
			c-2.994,0-4.058-0.433-4.058-3.661v-4.871c0-3.23,1.064-3.548,4.058-3.548c2.993,0,4.058,0.346,4.058,3.548v4.871
			C86.567,141.857,85.502,142.29,82.51,142.29z"/>
		<path fill="#FFFFFF" d="M101.424,141.021h5.094c6.016,0,7.369-1.903,7.369-7.986c0-5.651-2.015-7.64-7.369-7.64H95.667v21.622
			h5.757V141.021z M101.424,130.124h3.943c2.245,0,2.59,0.749,2.59,2.969c0,2.797-0.402,3.201-2.59,3.201h-3.943V130.124z"/>
		<path fill="#FFFFFF" d="M126.469,147.307c5.842,0,9.987-1.384,9.987-8.044v-6.111c0-6.66-4.146-7.957-9.987-7.957
			s-9.987,1.297-9.987,7.957v6.111C116.481,145.923,120.627,147.307,126.469,147.307z M126.469,142.29
			c-2.993,0-4.06-0.433-4.06-3.661v-4.871c0-3.23,1.066-3.548,4.06-3.548s4.058,0.346,4.058,3.548v4.871
			C130.526,141.857,129.462,142.29,126.469,142.29z"/>
		<path fill="#FFFFFF" d="M139.627,147.018h11.455c4.576,0,7.051-0.72,7.051-6.025c0-2.71-0.547-4.641-3.741-4.843v-0.231
			c2.851-0.461,3.396-2.247,3.396-4.987c0-4.729-2.53-5.535-6.82-5.535h-11.34V147.018z M145.383,130.124h4.837
			c1.524,0,1.813,0.547,1.813,1.845c0,1.73-0.49,2.075-2.504,2.075h-4.146V130.124z M145.383,138.052h4.461
			c1.872,0,2.533,0.26,2.533,2.048c0,1.758-0.776,2.19-2.647,2.19h-4.347V138.052z"/>
		<path fill="#FFFFFF" d="M161.039,125.396v4.729h1.783c0,1.441-0.401,1.96-2.071,1.96v2.134c3.942,0,4.95-1.125,4.95-4.094v-4.729
			H161.039z"/>
		<path fill="#FFFFFF" d="M180.571,147.018h5.757v-21.622h-11.053c-5.123,0-6.965,2.19-6.965,6.834c0,3.486,1.064,5.304,3.856,6.486
			l-4.691,8.302h6.592l3.798-7.61h2.706V147.018z M180.571,134.679h-3.885c-1.642,0-2.619-0.576-2.619-2.248
			c0-1.845,0.547-2.307,2.188-2.307h4.316V134.679z"/>
		<path fill="#FFFFFF" d="M194.445,135.17c2.754,0,4.996-2.226,4.996-4.987c0-2.764-2.242-4.988-4.996-4.988
			c-2.767,0-4.996,2.225-4.996,4.988C189.449,132.944,191.679,135.17,194.445,135.17z M194.445,134.031
			c-2.15,0-3.868-1.729-3.868-3.862c0-2.135,1.718-3.835,3.868-3.835c2.112,0,3.867,1.727,3.867,3.861
			C198.313,132.329,196.558,134.031,194.445,134.031z M195.625,130.64c0.958-0.063,1.469-0.471,1.469-1.466
			c0-1.427-0.852-1.649-2.098-1.649h-2.701v5.395h1.128v-2.213h1.022l1.206,2.213h1.285L195.625,130.64z M193.423,129.842v-1.452
			h1.363c0.682,0,1.18,0.104,1.18,0.642c0,0.679-0.327,0.811-0.943,0.811H193.423z"/>
	</g>
</g>
<g>
</g>
<g>
</g>
<g>
</g>
<g>
</g>
<g>
</g>
<g>
</g>
</svg>
