<?xml version="1.0" encoding="utf-8"?>
<!DOCTYPE svg PUBLIC "-//W3C//DTD SVG 1.1//EN" "http://www.w3.org/Graphics/SVG/1.1/DTD/svg11.dtd">
<svg version="1.1" id="Layer_1" xmlns="http://www.w3.org/2000/svg" xmlns:xlink="http://www.w3.org/1999/xlink" x="0px" y="0px" width="216px" height="216px" viewBox="0 0 216 216" enable-background="new 0 0 216 216" xml:space="preserve">
<g>
	<path fill-rule="evenodd" clip-rule="evenodd" fill="#FEE800" d="M54,0h108.003C191.702,0,216,24.3,216,54v108.003
		C216,191.702,191.702,216,162.003,216H54c-29.7,0-54-24.298-54-53.997V54C0,24.3,24.3,0,54,0z"/>
	<path fill-rule="evenodd" clip-rule="evenodd" fill="#1D1D1D" d="M67.985,96.256l5.875-5.316V75.833l6.016,5.316v18.884
		l8.979,8.913l-46.507,46.063l18.745,19.024l46.671-46.32l46.671,46.32l18.745-19.024l-46.507-46.063l8.979-8.913V81.148
		l6.016-5.316V90.94l5.875,5.316l22.941-22.102l4.896,4.823c0.711,0.516,1.282,0.4,1.294-0.137
		c-1.018-5.594-2.098-10.6-3.813-15.459c-2.621-7.43-10.185-14.405-17.206-17.485c-4.453-1.953-10.447-1.495-14.548,1.119
		c-0.817,0.521-1.718,0.946-2.401,1.627l-24.88,24.785l5.634,5.203l-11.697,11.586L96.068,78.63l5.633-5.203L76.821,48.643
		c-0.684-0.681-1.584-1.106-2.401-1.627c-4.101-2.614-10.094-3.072-14.548-1.119c-7.021,3.08-14.585,10.055-17.206,17.485
		c-1.715,4.86-2.795,9.865-3.812,15.459c0.012,0.537,0.583,0.653,1.294,0.137l4.896-4.823L67.985,96.256z"/>
</g>
</svg>
