<?xml version="1.0" encoding="utf-8"?>
<!DOCTYPE svg PUBLIC "-//W3C//DTD SVG 1.1//EN" "http://www.w3.org/Graphics/SVG/1.1/DTD/svg11.dtd">
<svg version="1.1" id="Layer_1" xmlns="http://www.w3.org/2000/svg" xmlns:xlink="http://www.w3.org/1999/xlink" x="0px" y="0px" width="216px" height="216px" viewBox="0 0 216 216" enable-background="new 0 0 216 216" xml:space="preserve">
<g>
	<path fill="#FFFFFF" d="M0,0h216v216H0V0z"/>
	<path fill="#CC2229" d="M26.936,123.725c-2.817-1.766-4.894-7.855-4.894-15.094c0-0.266,0.001-0.527,0.008-0.789l0.002,0.004
		c-7.837-1.231-13.499-4.606-13.646-8.598l-0.022,0.047c-1.917,2.384-3.012,5.14-3.012,8.075c0,8.64,9.483,15.719,21.513,16.345
		L26.936,123.725z M1.748,108c0-9.666,12.03-17.505,26.871-17.505S55.49,98.334,55.49,108c0,9.667-12.03,17.506-26.871,17.506
		S1.748,117.667,1.748,108L1.748,108z M28.62,93.021c2.865,0,5.303,4.347,6.205,10.411l0.003-0.01
		c5.574-0.868,9.477-2.869,9.477-5.199c0-3.125-7.022-5.656-15.685-5.656c-8.661,0-15.684,2.531-15.684,5.656
		c0,2.33,3.901,4.33,9.476,5.199l0.003,0.01C23.318,97.368,25.756,93.021,28.62,93.021L28.62,93.021z M30.354,123.714
		c12.029-0.626,21.515-7.705,21.515-16.345c0-2.936-1.097-5.691-3.013-8.075l-0.023-0.047c-0.145,3.991-5.807,7.365-13.646,8.597
		l0.004-0.003c0.005,0.261,0.008,0.523,0.008,0.789c0,7.237-2.078,13.328-4.895,15.093L30.354,123.714z M28.62,103.882
		c1.243,0.002,2.486-0.052,3.726-0.159l-0.001,0.001c-0.594-3.886-2.037-6.63-3.724-6.63s-3.129,2.744-3.724,6.63l-0.001-0.001
		C26.135,103.83,27.377,103.883,28.62,103.882L28.62,103.882z M28.62,118.277c2.157,0,3.917-4.489,4.011-10.118l0.011,0.003
		c-2.675,0.247-5.367,0.247-8.043,0l0.012-0.003C24.703,113.788,26.463,118.277,28.62,118.277z M138.865,108
		c0-7.388,5.991-13.379,13.379-13.379c7.392,0,13.381,5.991,13.381,13.379c0,7.391-5.99,13.379-13.381,13.379
		C144.856,121.379,138.865,115.391,138.865,108z M152.244,116.473c4.126,0,7.472-3.794,7.472-8.474c0-4.679-3.346-8.473-7.472-8.473
		s-7.47,3.794-7.47,8.473C144.774,112.68,148.119,116.473,152.244,116.473z M180.807,100.195v20.576h-5.639v-20.576h0.021h-7.884
		v-4.651h21.365v4.651H180.807z M195.49,115.096l-0.005,0.006l-2.163,5.671h-6.585l10.409-25.229h7.017l10.407,25.229h-6.584
		l-2.162-5.671l-0.007-0.006H195.49z M200.654,110.837h3.548l-0.002,0.002l-3.522-9.234h-0.048l-3.521,9.234l-0.003-0.002H200.654z
		 M76.892,100.195v20.576h-5.638v-20.576h0.02H63.39v-4.651h21.366v4.651H76.892L76.892,100.195z M86.198,108
		c0-7.388,5.99-13.379,13.381-13.379c7.389,0,13.38,5.991,13.38,13.379c0,7.391-5.991,13.379-13.38,13.379
		C92.188,121.379,86.198,115.391,86.198,108z M99.579,116.473c4.125,0,7.471-3.794,7.471-8.474c0-4.679-3.346-8.473-7.471-8.473
		c-4.126,0-7.472,3.794-7.472,8.473C92.107,112.68,95.453,116.473,99.579,116.473z M125.91,120.771h2.858v-9.579l9.836-15.648
		h-6.584l-6.11,10.604l-6.108-10.604h-6.583l9.834,15.648v9.579H125.91L125.91,120.771z"/>
</g>

</svg>
