<?xml version="1.0" encoding="utf-8"?>
<!DOCTYPE svg PUBLIC "-//W3C//DTD SVG 1.1//EN" "http://www.w3.org/Graphics/SVG/1.1/DTD/svg11.dtd">
<svg version="1.1" id="Layer_1" xmlns="http://www.w3.org/2000/svg" xmlns:xlink="http://www.w3.org/1999/xlink" x="0px" y="0px" width="216px" height="216px" viewBox="0 0 216 216" enable-background="new 0 0 216 216" xml:space="preserve">
<g>
	<path fill-rule="evenodd" clip-rule="evenodd" fill="#E4002B" d="M72.626,162.295l-16.045-0.025
		c-30.209-0.049-54.98-24.771-54.98-54.98V106c0-30.209,24.717-54.87,54.926-54.926l16.003-0.03c6.416,0,11.619,5.203,11.619,11.619
		s-5.203,11.619-11.619,11.619H56.328c-17.313,0-31.478,14.354-31.478,31.898v0.749c0,17.543,14.165,31.899,31.478,31.899
		l16.103-0.018c-6.208-0.018-11.519,5.293-11.519,11.709S66.21,162.295,72.626,162.295z"/>
	<path fill-rule="evenodd" clip-rule="evenodd" fill="#0077C7" d="M159.729,162.27c30.209,0,54.872-24.771,54.872-54.98V106
		c0-30.209-24.717-54.916-54.926-54.926l-87.145-0.03c6.416,0,11.619,5.203,11.619,11.619s-5.203,11.619-11.518,11.619h86.646
		c17.313,0,31.478,14.354,31.478,31.898v0.749c0,17.543-14.165,31.899-31.478,31.899l-86.848-0.018
		c-6.208-0.018-11.519,5.293-11.519,11.709s5.23,11.75,11.646,11.75H159.729L159.729,162.27z M62.719,107.362h-9.841v3.08
		c0,0.599,0.222,1.047,0.647,1.347s1.494,0.452,2.24,0.449c0.746-0.003,1.333-0.158,1.757-0.47c0.426-0.313,0.911-0.682,0.911-1.256
		v-0.928l4.286-0.07v0.448c-0.006,0.918-0.179,1.706-0.518,2.365c-0.345,0.653-0.826,1.188-1.449,1.606
		c-0.623,0.414-1.356,0.719-2.201,0.918c-0.844,0.194-1.775,0.289-2.786,0.289c-1.011,0-1.942-0.095-2.787-0.289
		c-0.845-0.189-1.578-0.494-2.201-0.908s-1.104-0.947-1.449-1.606c-0.339-0.659-0.512-1.446-0.518-2.375v-6.885
		c0.006-0.928,0.179-1.716,0.518-2.375c0.345-0.659,0.826-1.192,1.449-1.606s1.356-0.718,2.201-0.908
		c0.845-0.194,1.775-0.289,2.787-0.289c1.011,0,1.942,0.095,2.786,0.289c0.845,0.2,1.578,0.504,2.201,0.918
		c0.623,0.415,1.107,0.951,1.449,1.607c0.342,0.657,0.518,1.447,0.518,2.365V107.362L62.719,107.362z M52.877,104.667l5.556,0.071
		v-2.07c0-0.574-0.221-1.015-0.647-1.327c-0.424-0.311-1.275-0.537-2.021-0.54c-0.746-0.003-1.815,0.149-2.24,0.449
		s-0.647,0.749-0.647,1.347V104.667L52.877,104.667z M80.408,104.244h-4.431v-1.856c0-1.047-1.401-1.467-2.327-1.467
		c-1.075,0-2.646,0.474-2.646,1.676v7.844c0,0.692,0.931,1.248,1.585,1.502c0.309,0.119,0.665,0.174,1.06,0.174
		c1.005,0,2.187-0.217,2.327-1.467l0.182-1.627h4.431l-0.182,1.807c-0.073,0.721-0.216,1.357-0.613,1.9
		c-0.394,0.54-0.922,0.988-1.581,1.343c-0.659,0.359-1.383,0.624-2.173,0.804c-0.791,0.174-1.587,0.264-2.391,0.264
		c-1.416-0.005-2.661-0.199-3.721-0.584c-1.067-0.384-1.896-0.918-2.489-1.605c-0.593-0.689-0.889-1.497-0.902-2.42v-8.023
		c0.013-0.923,0.309-1.731,0.902-2.42c0.593-0.688,1.422-1.222,2.489-1.606c1.061-0.384,2.306-0.579,3.721-0.583
		c0.804,0,1.601,0.089,2.391,0.264c0.791,0.18,1.515,0.444,2.173,0.803c0.659,0.354,1.186,0.803,1.581,1.342
		c0.396,0.544,0.6,1.172,0.613,1.901V104.244L80.408,104.244z M88.51,98.317v6.345l1.886-0.019l3.305-6.326h4.884l-4.992,7.821
		l6.173,8.524H94.58l-4.542-6.776l-1.571,0.009l0.044,6.767h-4.657V98.317H88.51L88.51,98.317z M101.039,98.317l4.646,0.145
		l3.305,12.397l0.452-0.912l3.401-11.63h4.187l-6.296,19.324c-0.536,1.645-1.448,3.158-3.112,3.157l-2.498-0.002v-0.958l0.657-0.725
		c0.274-0.304,0.984-1.998,1.077-2.4l0.416-1.798L101.039,98.317L101.039,98.317z M127.395,98.317h4.433v16.345H127.6v-13.441
		l-1.515,0.112c-3.692,0.274-3.631,10.763-5.146,12.514c-0.531,0.614-1.063,0.989-1.757,0.954l-2.688-0.139
		c1.396-2.708,0.705-1.636,1.596-4.422c0.549-1.716,1.135-4.273,1.734-6.534c0.724-2.729,1.873-5.146,5.101-5.284L127.395,98.317
		L127.395,98.317z M145.405,107.67l0.027,2.451c0.016,1.495-1.389,1.813-3.525,1.807c-1.365-0.005-2.313-0.677-2.313-1.977
		c0-1.038,1.212-2.248,2.208-2.255L145.405,107.67L145.405,107.67z M140.238,103.024h-4.248v-0.808c0-2.536,3.317-4.121,6.069-4.13
		c1.01-0.003,2.213,0.026,3.083,0.186c2.139,0.394,4.314,1.875,4.314,4.435v9.562l0.016,2.395h-3.838
		c-0.333-0.412-0.144-0.61-0.186-1.048c-0.094-0.97-0.388-0.022-1.182,0.605c-0.877,0.692-2.189,0.868-3.274,0.868
		c-3.1,0-5.552-1.377-5.569-5.004c-0.016-3.304,1.884-5.249,4.94-5.285l5.077-0.06l0.018-1.925c0.006-0.607-1.26-1.895-2.69-1.732
		s-2.53,0.251-2.53,1.612V103.024L140.238,103.024z M156.98,100.712h0.109c0.264-0.33,0.582-0.649,0.942-0.968
		c0.361-0.319,0.795-0.583,1.297-0.798c0.508-0.209,1.107-0.319,1.799-0.329c1.432,0.005,2.605,0.22,3.523,0.644
		c0.924,0.424,1.608,1.033,2.056,1.826c0.44,0.793,0.66,1.746,0.66,2.859v5.868c0.007,0.719-0.116,1.392-0.366,2.03
		c-0.251,0.639-0.655,1.208-1.206,1.702c-0.557,0.493-1.284,0.883-2.189,1.162c-0.905,0.284-2.013,0.429-3.322,0.434
		c-1.333-0.005-2.459-0.149-3.37-0.434c-0.918-0.279-1.646-0.669-2.196-1.162c-0.551-0.494-0.948-1.063-1.193-1.702
		c-0.244-0.639-0.367-1.312-0.36-2.03v-7.574c0-5.771,0.728-6.244,2.021-7.207c0.911-0.678,2.119-1.204,3.411-1.46
		c0.843-0.167,1.986-0.101,2.579-0.12c0.896-0.029,1.145,0.241,1.586-0.564h3.516c-0.147,0.549,0.147,2.374-0.221,2.811
		c-1.031,1.223-3.776,0.875-5.346,0.839c-2.663-0.059-2.879,0.751-3.341,1.771C157.136,98.823,157.078,99.983,156.98,100.712
		L156.98,100.712z M160.283,112.237c-1.313,0-2.905-0.488-2.905-1.946v-6.825c0-1.482,1.62-1.946,2.942-1.946
		c1.36,0,2.563,0.445,2.563,1.946v6.825C162.884,111.799,161.638,112.237,160.283,112.237z"/>
</g>
</svg>
