<?xml version="1.0" encoding="utf-8"?>
<!DOCTYPE svg PUBLIC "-//W3C//DTD SVG 1.1//EN" "http://www.w3.org/Graphics/SVG/1.1/DTD/svg11.dtd">
<svg version="1.1" id="Layer_1" xmlns="http://www.w3.org/2000/svg" xmlns:xlink="http://www.w3.org/1999/xlink" x="0px" y="0px" width="216px" height="216px" viewBox="0 0 216 216" enable-background="new 0 0 216 216" xml:space="preserve">
<path fill-rule="evenodd" clip-rule="evenodd" fill="#0D4BA2" d="M53-1h108.003C190.702-1,215,23.3,215,53v108.003
	C215,190.702,190.702,215,161.003,215H53c-29.7,0-54-24.298-54-53.997V53C-1,23.3,23.3-1,53-1z"/>
<path fill="#FFFFFF" d="M161.43,149.207h5.719c0.24,0,0.436,0.196,0.436,0.436v32.452c0,0.239-0.195,0.435-0.436,0.435h-2.186
	c-1.813,0-3.969-2.207-3.969-4.434v-28.453C160.994,149.403,161.189,149.207,161.43,149.207L161.43,149.207z M151.8,149.207h5.719
	c0.238,0,0.436,0.196,0.436,0.436v32.452c0,0.239-0.197,0.435-0.436,0.435h-2.187c-1.813,0-3.968-2.207-3.968-4.434v-28.453
	C151.364,149.403,151.56,149.207,151.8,149.207L151.8,149.207z M138.119,182.444c-3.198,0-6.07-0.66-8.079-2.75
	s-3.052-4.76-3.052-8.242v-0.679c0-2.332-0.059-3.266,0.412-5.291c0.469-2.025,2.011-4.232,3.558-5.223
	c1.556-0.996,4.645-1.769,6.632-1.769c2.986,0,5.995,0.926,7.705,2.929c1.714,2.008,2.611,3.993,2.611,8.488v2.043
	c0,0.494,0.055,0.455-0.44,0.456c-4.556,0.013-9.112,0.025-13.668,0.038c-0.449,0-0.417-0.038-0.341,0.413
	c0.466,2.742,1.986,4.268,5.087,4.268c2.104,0,3.23-0.521,4.785-1.667c0.366-0.27,0.256-0.28,0.651,0.003
	c1.199,0.857,2.4,1.715,3.599,2.572c0.265,0.188,0.275,0.151,0.078,0.419c-0.87,1.186-2.13,1.995-3.529,2.689
	C142.637,181.883,139.937,182.444,138.119,182.444L138.119,182.444z M137.492,163.443c-1.156,0-2.44,0.575-3.156,1.402
	c-0.664,0.766-0.879,1.651-0.883,2.937c0,0.414,0.02,0.336,0.423,0.334c2.479-0.005,4.958-0.012,7.438-0.018
	c0.422,0,0.365,0.021,0.365-0.4v-0.246c0-0.996-0.515-2.269-1.17-3.034C139.854,163.651,138.73,163.443,137.492,163.443
	L137.492,163.443z M117.285,176.905c1.153,0,2.089-0.316,2.809-0.945c0.404-0.356,0.755-0.583,0.987-0.899
	c0.181-0.247,0.428-0.471,0.849-0.25l3.922,2.603c0.277,0.333,0.54,0.399,0.1,0.974c-0.959,1.246-2.133,2.324-3.611,3.05
	c-1.478,0.726-3,1.085-4.786,1.085c-3.347,0-5.984-1.056-7.918-3.167c-1.936-2.111-2.904-5.029-2.904-8.755v-0.41
	c0-3.586,0.845-6.555,2.765-8.688s4.666-3.088,8.012-3.088c2.931,0,5.018,0.819,6.929,2.439c1.78,1.51,2.008,2.419,1.453,2.672
	l-3.922,2.582c-0.445,0.278-0.756,0.18-1.048-0.248c-0.172-0.257-0.396-0.5-0.664-0.782c-0.721-0.751-1.67-1.129-2.853-1.129
	c-1.462,0-2.119,0.41-2.863,1.46c-0.748,1.055-1.115,2.259-1.115,4.62v0.646c0,2.389,0.21,3.501,0.945,4.545
	C115.106,176.265,115.779,176.905,117.285,176.905L117.285,176.905z M94.448,182.444c-3.199,0-6.071-0.66-8.08-2.75
	c-2.009-2.09-3.051-4.76-3.051-8.242v-0.679c0-2.332-0.059-3.266,0.411-5.291c0.47-2.025,2.012-4.232,3.559-5.223
	c1.556-0.996,4.643-1.769,6.632-1.769c2.985,0,5.993,0.926,7.705,2.929c1.714,2.008,2.611,3.993,2.611,8.488v2.043
	c0,0.494,0.055,0.455-0.441,0.456c-4.556,0.013-9.111,0.025-13.667,0.038c-0.451,0-0.419-0.038-0.341,0.413
	c0.465,2.742,1.984,4.268,5.087,4.268c2.103,0,3.229-0.521,4.783-1.667c0.368-0.27,0.257-0.28,0.654,0.003
	c1.199,0.857,2.397,1.715,3.598,2.572c0.263,0.188,0.275,0.151,0.078,0.419c-0.872,1.186-2.129,1.995-3.529,2.689
	C98.965,181.883,96.265,182.444,94.448,182.444L94.448,182.444z M93.819,163.443c-1.154,0-2.438,0.575-3.156,1.402
	c-0.664,0.766-0.877,1.651-0.881,2.937c-0.002,0.414,0.018,0.336,0.423,0.334c2.478-0.005,4.957-0.012,7.435-0.018
	c0.425,0,0.366,0.021,0.366-0.4v-0.246c0-0.996-0.514-2.269-1.169-3.034C96.184,163.651,95.059,163.443,93.819,163.443
	L93.819,163.443z M71.404,182.438c-0.371-0.01-0.444-0.356-0.451-0.767l0.03-17.305c-0.034-0.335-0.073-0.518-0.348-0.518
	c-0.458,0-0.694,0-1.153,0c-0.481,0-0.603-0.113-0.608-0.593l-0.083-3.558c-0.007-0.574,0.11-0.762,0.648-0.762h1.131
	c0.261-0.028,0.437-0.225,0.436-0.608l-0.011-2.164c-0.013-2.911,0.766-3.882,2.172-5.322c1.407-1.441,3.481-1.746,6.012-1.756
	l3.23-0.011c0.773-0.004,0.744,0.3,0.737,0.513l0.016,4.053c0.005,0.468-0.131,0.71-0.746,0.708l-0.856-0.007l-1.565,0.004
	c-2.193,0.006-2.43,0.697-2.407,2.89l0.013,1.265c0.012,0.211,0.103,0.447,0.35,0.437c1.209,0,1.721,0,2.933,0
	c0.332,0.003,0.597,0.151,0.588,0.417v4.113c0.005,0.305-0.3,0.382-0.769,0.382h-2.744c-0.311-0.013-0.352,0.259-0.352,0.466
	l-0.016,17.356c0.028,0.303-0.02,0.749-0.339,0.754L71.404,182.438L71.404,182.438z M58.982,159.03h5.98
	c0.17,0,0.311,0.141,0.311,0.312v22.901c0,0.171-0.14,0.311-0.311,0.311h-5.98c-0.171,0-0.311-0.14-0.311-0.311v-22.901
	C58.672,159.17,58.812,159.03,58.982,159.03L58.982,159.03z M58.982,149.232h5.98c0.17,0,0.311,0.141,0.311,0.311v4.428
	c0,0.171-0.14,0.311-0.311,0.311h-5.98c-0.171,0-0.311-0.14-0.311-0.311v-4.428C58.672,149.373,58.812,149.232,58.982,149.232
	L58.982,149.232z M48.02,149.207h5.719c0.239,0,0.435,0.196,0.435,0.436v32.452c0,0.239-0.196,0.435-0.435,0.435h-2.187
	c-1.812,0-3.968-2.207-3.968-4.434v-28.453C47.584,149.403,47.78,149.207,48.02,149.207z"/>
<path fill-rule="evenodd" clip-rule="evenodd" fill="#FFC40C" d="M150.642,53.175c-4.006-6.41-9.014-11.617-14.622-15.623
	c-5.809-4.006-12.219-7.011-19.628-8.613c-12.019-3.005-23.635-1.603-34.851,3.404c-6.21,2.804-11.817,6.61-16.425,11.617
	c-6.009,6.209-10.214,13.02-12.819,20.831v0.2c0,0.201-0.2,0.601-0.2,0.801c-2.604,9.014-0.2,13.821,3.806,9.815
	c0.2-0.201,0.4-0.4,0.4-0.602l0.201-0.199c4.606-5.809,12.018-10.615,12.018-10.615c1.803-1.202,3.805-2.605,5.809-3.607
	c2.403-1.402,4.808-2.603,7.01-3.404c0,0,2.002-1.002,2.604-3.805v-0.2c0.4-2.404,3.004-9.013,10.214-9.414
	c2.203-0.401,4.607,0,6.609,1.001c3.605,1.604,6.21,5.008,6.81,9.013c0.401,3.205-0.4,6.21-2.002,8.613c0,0.2-0.202,0.2-0.202,0.4
	c0,0,0,0,0,0.201c-1.401,1.802-3.204,3.204-5.607,4.005c-1.402,0.401-2.804,0.801-4.005,0.801c-0.801,0.2-1.803,0-2.604-0.2
	c-1.001-0.2-2.003-0.601-2.803-1.002c-1.403-0.601-2.604-1.401-3.005-1.803c-0.4-0.4-0.601-0.4-1.001-0.6
	c-0.801-0.202-1.402,0-1.803,0.2c-0.2,0.2-0.4,0.2-0.6,0.4c-1.803,1.402-3.405,3.005-5.008,4.606
	c-4.206,4.407-7.61,9.415-9.213,11.818c-0.802,1.402-1.602,2.804-2.404,4.207c-0.802,1.402-1.401,2.803-2.003,4.207
	c-1.602,1.802-2.604,4.207-3.405,6.61c0,0.199,0,0.199-0.2,0.399c0,0.201-0.2,0.4-0.2,0.4c0,0.201,0,0.401-0.201,0.401
	c-5.007,17.225,4.006,27.241,11.618,16.824c0.4-0.601,0.801-1.401,1.202-2.004c8.011-13.818,24.235-23.833,24.235-23.833
	c1.002-0.601,2.003-1.202,3.004-1.803c0,0,0,0,0.201-0.201c2.803-1.603,5.608-3.004,8.612-4.206c2.604-1.202,5.41-2.203,7.813-2.805
	c0,0,2.804-0.8,3.404-4.005c0.601-2.403,2.203-6.009,6.21-7.811c1-0.401,1.802-0.801,2.802-1.002c1.002-0.199,2.204-0.4,3.206-0.199
	c0.602,0,1.201,0,1.803,0.199c5.007,1.002,9.014,5.007,9.614,10.415c0.8,6.609-3.806,12.419-10.415,13.219
	c-3.206,0.401-6.21-0.4-8.614-2.203c-2.803-1.201-5.006-0.4-5.807,0c-2.404,1.403-4.808,2.805-7.012,4.407
	c-4.205,3.204-7.61,6.41-8.813,7.611c-2.803,3.004-5.407,6.209-7.61,9.614c-0.201,0.201-0.201,0.4-0.401,0.602c0,0,0,0,0,0.2
	c-2.203,3.605-4.807,8.412-6.81,14.021c-0.2,0.401-0.4,0.803-0.4,1.403c-2.203,7.21,2.604,10.213,7.811,11.215
	c0,0,4.207,0.803,10.215,0.401c0.4,0,0.601,0,1.001,0c1.602-0.202,3.006-0.401,4.607-0.601c10.415-1.802,19.628-6.211,27.64-13.219
	c10.015-9.015,16.023-20.031,17.827-33.25C160.456,76.809,157.852,64.391,150.642,53.175z"/>
</svg>
