<?xml version="1.0" encoding="utf-8"?>
<!DOCTYPE svg PUBLIC "-//W3C//DTD SVG 1.1//EN" "http://www.w3.org/Graphics/SVG/1.1/DTD/svg11.dtd">
<svg version="1.1" xmlns="http://www.w3.org/2000/svg" xmlns:xlink="http://www.w3.org/1999/xlink" x="0px" y="0px" width="216px" height="216px" viewBox="0 0 216 216" enable-background="new 0 0 216 216" xml:space="preserve">
<g>
	<path d="M137.923,117.402h-2.717l-7.611,21.209h2.987l2.447-6.525h7.615l2.721,6.525h2.991L137.923,117.402z M134.932,130.186
		h-1.356l1.904-6.529l1.087-3.263l1.087,3.263l2.176,6.529H134.932z M56.077,131.816v3.263l-1.631-3.263L45.2,117.402h-3.262v21.209
		h2.719V121.21l1.903,3.262l9.244,14.14h2.992v-21.209h-2.72V131.816z M13.929,132.357c-0.543-1.356-1.088-2.718-1.904-3.533
		c1.36-0.271,2.176-1.086,2.992-1.901c1.088-1.091,1.631-2.451,1.631-3.809c0-1.36-0.543-2.721-1.631-3.807
		c-1.088-1.09-2.719-1.632-4.623-1.632H1.15v21.21h2.719v-9.517h4.894c0.815,0,1.36,0.816,1.903,1.632
		c0.543,1.085,0.816,2.172,1.359,4.078c0.545,1.631,1.904,3.807,4.623,4.894l0.815-2.447
		C15.017,136.164,14.474,134.264,13.929,132.357 M9.851,127.192l-5.982,0.271v-8.156l6.525,0.271c1.088,0,1.903,0.271,2.447,1.091
		c0.544,0.541,0.817,1.356,0.817,2.445c0,1.087-0.273,1.902-1.088,2.718C12.025,126.648,10.939,126.923,9.851,127.192
		 M70.76,117.402l-7.613,21.209h2.991l2.447-6.525h7.613l2.719,6.525h2.992l-7.886-21.209H70.76z M70.489,130.186h-1.36l1.904-6.529
		l1.088-3.263l1.088,3.263l2.174,6.529H70.489z M25.622,128.554l8.431,0.271v-2.176l-8.431,0.274v-7.615l10.877,0.271v-2.176H22.903
		v21.209H36.5v-2.172l-10.877,0.541V128.554z M195.029,136.98v-8.427l8.428,0.271v-2.176l-8.428,0.274v-7.615l10.878,0.271v-2.176
		h-13.599v21.209h13.87v-2.172L195.029,136.98z M164.029,131.816v3.263l-1.631-3.263l-9.246-14.414h-2.991v21.209h2.721V121.21
		l1.902,3.262l9.245,14.414h2.992v-21.21h-2.721L164.029,131.816z M121.611,127.738c-1.902-1.09-3.537-1.09-5.168-1.635
		c-1.905-0.542-2.718-1.632-2.718-2.989c0-2.445,1.361-3.807,4.349-3.807c0.274,0,1.087,0,2.176,0.271
		c1.091,0.271,1.902,1.091,2.447,1.906l1.906-0.546c-0.545-1.905-2.181-2.991-3.538-3.263c-1.356-0.544-2.446-0.544-2.991-0.544
		c-3.808,0-6.799,1.901-6.799,5.709c0,2.176,0.818,3.536,2.721,4.623c1.902,1.09,3.533,1.09,5.165,1.631
		c1.904,0.545,2.721,1.906,2.721,3.537c0,1.36-0.541,2.447-1.632,2.992c-0.541,0.271-1.36,0.815-2.721,0.815
		c-2.718,0-4.349-1.632-4.623-2.447l-2.173,0.815c0.815,2.447,4.078,3.804,6.796,3.804c1.632,0,3.536-0.27,4.894-1.356
		c1.636-1.091,2.181-2.722,2.181-4.623C124.328,130.455,123.513,128.824,121.611,127.738 M103.935,127.738
		c-1.904-1.09-3.535-1.09-5.166-1.635c-1.904-0.542-2.72-1.632-2.72-2.989c0-2.445,1.361-3.807,4.351-3.807
		c0.272,0,1.088,0,2.176,0.271c1.088,0.271,1.903,1.091,2.447,1.906l1.903-0.546c-0.544-1.905-2.176-2.991-3.535-3.263
		c-1.361-0.544-2.447-0.544-2.992-0.544c-3.808,0-6.797,1.901-6.797,5.709c0,2.176,0.815,3.536,2.719,4.623
		c1.904,1.09,3.535,1.09,5.167,1.631c1.903,0.545,2.719,1.906,2.719,3.537c0,1.36-0.543,2.447-1.631,2.992
		c-0.545,0.271-1.361,0.815-2.719,0.815c-2.719,0-4.351-1.632-4.624-2.447l-2.176,0.815c0.817,2.447,4.08,3.804,6.799,3.804
		c1.631,0,3.535-0.27,4.894-1.356c1.631-1.091,2.176-2.722,2.176-4.623C106.654,130.455,105.838,128.824,103.935,127.738
		 M85.172,138.611h2.719v-21.209h-2.719V138.611z M180.891,136.98c-0.818,0-3.812-0.541-4.896-2.173
		c-0.546-1.36-0.816-3.537-0.816-6.8c0-3.262,0.271-5.438,1.09-6.798c0.812-1.36,2.173-2.177,4.623-2.177
		c1.631,0,3.533,0.816,4.622,1.636l1.084-1.636c-0.271-0.271-2.718-2.173-5.98-2.173c-2.988,0-5.168,0.815-6.528,2.447
		c-1.356,1.631-1.902,4.624-1.902,8.431c0,3.804,0.546,6.525,1.902,8.156c1.635,2.447,4.082,2.717,6.803,2.717
		c3.262,0,5.436-1.901,5.979-2.172l-1.086-1.632C184.424,136.164,183.063,136.98,180.891,136.98 M211.888,123.932
		c-1.906,0-3.263-1.361-3.263-3.263c0-1.906,1.356-3.267,3.263-3.267c1.905,0,3.263,1.36,3.263,3.267
		C215.15,122.57,213.793,123.932,211.888,123.932 M211.888,117.947c-1.631,0-2.718,1.36-2.718,2.722c0,1.631,1.36,2.717,2.718,2.717
		c1.631,0,2.717-1.36,2.717-2.717C214.604,119.033,213.519,117.947,211.888,117.947 M212.703,122.57l-0.815-1.36h-0.546v1.36h-0.541
		v-3.537h1.36c0.542,0,1.087,0.545,1.087,1.09c0,0.546-0.274,0.815-0.815,1.087l0.815,1.631h-0.545V122.57z M212.161,119.308h-0.548
		v1.361h0.548c0.271,0,0.542-0.275,0.542-0.546C212.703,119.578,212.433,119.308,212.161,119.308 M98.226,77.43h-4.351
		c-1.088,0-1.904-0.541-1.904-1.631c-0.272-3.263,0-3.808,0-9.246V56.495c0-1.09,0.815-1.36,1.904-1.635h3.263
		c1.358,0,3.262,0.274,5.166,0.816c1.36,0.544,2.447,1.36,2.992,2.176c1.359,1.631,2.447,4.078,2.447,8.16
		c0,1.902,0,2.447-0.543,4.078c-0.544,1.631-1.36,2.447-2.176,3.533c-0.816,1.089-1.904,1.635-2.992,2.45
		C100.945,76.889,99.857,77.43,98.226,77.43 M132.488,98.369c0,0-0.545,0-0.819,0.271c-5.165,1.631-7.61,1.631-10.058,0.545
		c-4.624-2.176-5.984-5.167-7.615-7.885c-1.36-2.718-2.447-5.984-5.981-8.972c-1.904-1.635-4.351-2.451-5.711-2.992
		c2.719-0.274,4.623-1.361,5.981-1.906c1.361-0.815,2.177-1.357,3.264-2.447c1.087-1.086,2.177-2.992,2.718-4.623
		c0.82-3.808,0.545-5.165,0.271-6.796c-0.542-2.721-1.357-4.082-2.444-5.438c-2.178-2.992-6.528-4.353-8.702-4.623
		c-3.807-0.815-4.623-0.815-8.431-0.815h-9.789c-1.631,0-4.078,0.271-5.709,0.542c-0.545,0.274-0.545,1.09,0,1.36
		c2.719,1.086,3.806-1.36,4.078,1.631c0.816,4.623,0.545,4.894,0.545,10.333s0,5.438,0.271,10.606v10.877
		c0,0.816,0.272,8.156-0.543,10.332c-0.272,0.545-0.272,0.816-0.545,1.087c-0.271,0.274-0.543,0.815-1.631,0.815h-1.631
		c-0.543,0-0.816,0.274-1.088,0.819c-0.271,0.816,0,1.087,1.088,1.087H97.41c0.543,0,0.543-0.545,0.543-0.816v-0.545
		c0-0.271-0.273-0.545-1.904-0.545c-0.543,0-0.543,0-1.088-0.271c-1.086,0-1.631-0.544-1.903-0.544c0,0-0.543-0.542-1.086-0.816
		c-1.36-1.357-1.088-3.804-1.088-8.701c0-4.894-0.272-4.349,0-9.246c0-2.173,4.894-1.631,5.709-1.631
		c2.449,0,4.353,1.631,6.254,5.984c1.088,2.447,2.449,6.254,4.896,9.791c1.904,2.717,3.807,5.435,7.614,6.795
		c2.447,0.815,7.066,1.09,11.147,0c3.533-1.086,5.165-2.176,5.439-2.447C132.759,98.64,132.759,98.369,132.488,98.369
		 M73.752,164.718h-2.447v-6.527h-5.981v6.527h-2.448v-14.413h2.448v5.983h5.981v-5.983h2.447V164.718z M90.883,157.374
		c0,2.177-0.272,3.808-0.816,4.897c-1.088,1.901-2.719,2.718-5.438,2.718s-4.35-0.816-5.438-2.718
		c-0.543-1.09-0.815-2.721-0.815-4.897c0-2.173,0.272-3.804,0.815-4.894c1.088-1.902,2.719-2.718,5.438-2.718
		s4.351,0.815,5.438,2.718C90.611,153.841,90.883,155.473,90.883,157.374z M88.436,157.374c0-1.631-0.272-2.988-0.544-3.804
		c-0.543-1.09-1.631-1.635-3.263-1.635c-1.631,0-2.719,0.545-3.262,1.635c-0.545,0.815-0.545,2.173-0.545,3.804
		c0,1.905,0.272,2.992,0.545,3.808c0.543,1.09,1.631,1.631,3.262,1.631c1.631,0,2.719-0.541,3.263-1.631
		C88.164,160.366,88.436,159.279,88.436,157.374z M104.75,152.21l-4.078-0.274v12.782h-2.447v-12.782l-4.08,0.274v-1.905h10.877
		L104.75,152.21L104.75,152.21z M118.074,164.718h-9.244v-14.413h9.244v1.905l-6.799-0.274v4.353l5.168-0.271v2.174l-5.168-0.271
		v4.894l6.799-0.271V164.718z M131.397,164.718h-9.245v-14.413h2.451v12.782l6.794-0.274V164.718z M142.547,157.104
		c-0.813-0.545-1.632-0.545-2.444-0.815c-0.273,0-0.818-0.271-1.089-0.271c-1.091-0.273-1.632-1.089-1.632-1.904
		c0-1.632,0.815-2.177,2.721-2.177c0,0,0.813,0,1.357,0.274c0.815,0.271,1.36,0.545,1.36,1.086v0.274l1.632-0.545v-0.271
		c-0.274-1.09-1.36-1.905-2.447-2.45c-0.545-0.271-1.09-0.271-1.902-0.271c-2.991,0-4.896,1.631-4.896,4.078
		c0,1.631,0.545,2.446,2.176,3.262c0.815,0.545,1.632,0.545,2.447,0.816c0.273,0,0.815,0.273,1.086,0.273
		c1.09,0.542,1.632,1.087,1.632,2.176c0,0.815-0.271,1.357-0.813,1.902c-0.549,0.271-1.09,0.545-1.905,0.545
		c-1.632,0-2.718-1.09-2.992-1.632v-0.273l-1.905,0.815v0.274c0.548,1.901,2.991,2.718,4.622,2.718c1.091,0,2.451-0.271,3.267-0.816
		c1.087-0.815,1.632-1.901,1.632-3.262C144.452,159.006,143.907,157.648,142.547,157.104z"/>

</g>
</svg>
