<?xml version="1.0" encoding="utf-8"?>
<!DOCTYPE svg PUBLIC "-//W3C//DTD SVG 1.1//EN" "http://www.w3.org/Graphics/SVG/1.1/DTD/svg11.dtd">
<svg version="1.1" id="Layer_1" xmlns="http://www.w3.org/2000/svg" xmlns:xlink="http://www.w3.org/1999/xlink" x="0px" y="0px" width="216px" height="216px" viewBox="0 0 216 216" enable-background="new 0 0 216 216" xml:space="preserve">
<g>
	<path fill="#FFFFFF" fill-opacity="0" d="M0,0.122h216v216H0V0.122z"/>
	<path fill="#CA3432" d="M184.362,98.114l-0.022,29.439h29.729l0.007-29.443L184.362,98.114L184.362,98.114z M186.296,108.959v7.876
		h9.113v9h7.755v-9h8.958v-7.876h-8.958l0.018-9.128l-7.772,0.011v9.117H186.296L186.296,108.959z"/>
	<path d="M1.618,127.589l20.768-0.015c3.358,0.169,6.541-1.509,8.298-4.375c2.65-4.334,1.284-9.995-3.05-12.645
		c-0.558-0.342-1.151-0.622-1.77-0.838c-1.033-0.357-2.131-0.506-3.225-0.506l-12.834,0.004c-1.956,0.034-3.569-1.523-3.604-3.479
		c-0.004-0.232,0.015-0.465,0.057-0.694c0.305-1.713,1.81-2.952,3.55-2.922l20.999,0.017v-4.975l-21.15,0.022
		c-0.982,0.001-1.966,0.175-2.889,0.513c-0.924,0.338-1.786,0.841-2.537,1.475c-3.549,3.005-3.99,8.318-0.986,11.867
		c0.329,0.388,0.691,0.745,1.085,1.068c0.763,0.624,1.629,1.11,2.56,1.436c0.933,0.315,1.912,0.474,2.896,0.468l12.589,0.004
		c0.505,0,1.014,0.065,1.492,0.229c0.969,0.33,1.786,0.997,2.306,1.879c0.785,1.343,0.785,3.004,0,4.347
		c-0.257,0.438-0.592,0.827-0.984,1.146c-0.815,0.672-1.838,0.976-2.813,0.963H1.618V127.589z M38.724,97.136l-4.803,0.009
		l-0.002,20.153c-0.039,1.223,0.142,2.442,0.532,3.603c0.791,2.337,2.401,4.309,4.533,5.55c2.133,1.238,4.641,1.664,7.063,1.198
		c2.422-0.469,4.592-1.8,6.107-3.746c0.761,0.967,1.687,1.792,2.735,2.436c2.119,1.291,4.631,1.776,7.078,1.369
		c1.213-0.205,2.38-0.626,3.445-1.241c1.065-0.616,2.012-1.418,2.795-2.367c0.782-0.951,1.388-2.034,1.789-3.198
		c0.399-1.161,0.558-2.395,0.559-3.621l0.018-20.133h-4.94l-0.013,20.443c0.157,2.057-0.851,4.028-2.609,5.105
		c-1.156,0.705-2.532,0.96-3.865,0.716c-0.66-0.123-1.293-0.365-1.867-0.716c-0.572-0.352-1.076-0.805-1.485-1.337
		c-0.825-1.075-1.225-2.417-1.123-3.769l-0.002-20.443h-4.891l0.007,20.443c0.108,2.055-0.924,4.002-2.685,5.065
		c-1.16,0.695-2.534,0.944-3.865,0.7c-1.331-0.245-2.526-0.968-3.36-2.034c-0.834-1.065-1.252-2.397-1.177-3.748
		C38.705,110.759,38.688,103.948,38.724,97.136z M100.407,127.52V97.126l-12.105,0.009c-1.889,0.001-3.783,0.28-5.557,0.93
		c-7.44,2.727-11.563,10.688-9.494,18.338c0.495,1.829,1.324,3.551,2.445,5.077c1.124,1.525,2.521,2.829,4.119,3.846
		c2.457,1.57,5.393,2.363,8.221,2.479c2.019,0.061,4.029-0.28,5.915-1.002l-0.047-4.908c-0.795,0.436-1.622,0.75-2.452,0.987
		c-0.426,0.12-0.858,0.225-1.746,0.277c-0.886,0.054-2.228,0.055-3.518-0.213c-1.299-0.277-2.532-0.804-3.632-1.55
		c-1.104-0.746-2.062-1.689-2.825-2.781c-1.536-2.207-2.199-4.904-1.863-7.571c0.52-4.06,3.28-7.479,7.139-8.843
		c1.253-0.441,2.588-0.613,3.916-0.612l6.744,0.005v25.926H100.407L100.407,127.52z M105.458,117.825
		c-0.184,5.182,3.867,9.532,9.049,9.717c0.21,0.007,0.42,0.008,0.63,0.001l6.63,0.005v-4.338l-4.992-0.01
		c-2.083,0.063-4.063-0.902-5.295-2.582c-0.81-1.109-1.24-2.45-1.229-3.823l0.012-15.043l10.566-0.017l0.014-4.61h-10.579v-7.983
		h-4.797L105.458,117.825L105.458,117.825z M147.869,103.13c-1.107-1.563-2.491-2.909-4.084-3.973
		c-3.16-2.14-7.167-2.948-10.894-2.436c-1.827,0.229-3.602,0.767-5.249,1.59c-3.285,1.662-5.874,4.436-7.306,7.828
		c-0.69,1.666-1.104,3.433-1.222,5.232c-0.244,3.412,0.645,6.81,2.528,9.665c0.93,1.406,2.082,2.652,3.412,3.689
		c1.33,1.036,2.821,1.849,4.412,2.405c1.59,0.554,3.268,0.846,4.951,0.866c1.439,0.127,2.889,0.03,4.299-0.286
		c4.297-0.977,7.874-3.938,9.636-7.979l-3.281-3.141c-0.422,1.123-1.033,2.167-1.808,3.084c-0.774,0.915-1.703,1.689-2.744,2.286
		c-2.092,1.188-4.565,1.655-6.914,1.391c-1.185-0.136-2.344-0.468-3.423-0.975c-2.177-1.023-3.963-2.726-5.091-4.85
		c-1.133-2.137-1.52-4.591-1.101-6.973c0.417-2.393,1.593-4.589,3.354-6.263c1.764-1.67,4.019-2.727,6.43-3.012
		c3.959-0.364,7.83,1.317,10.266,4.459L147.869,103.13L147.869,103.13z M177.896,110.084c0.01-1.71-0.303-3.406-0.924-5
		c-0.63-1.59-1.564-3.042-2.751-4.274c-1.188-1.23-2.604-2.218-4.169-2.908c-4.822-2.118-10.443-1.149-14.277,2.462l-0.01-11.169
		h-4.98l-0.014,38.341l4.994-0.008l-0.009-17.23c-0.09-2.091,0.581-4.144,1.89-5.778c0.647-0.811,1.436-1.499,2.326-2.031
		c1.799-1.069,3.923-1.453,5.981-1.079c1.021,0.187,2.001,0.556,2.892,1.088c1.793,1.077,3.138,2.766,3.786,4.755
		c0.317,0.988,0.457,2.025,0.414,3.062l-0.007,17.191l4.841,0.038L177.896,110.084L177.896,110.084z M175.404,90.453
		c0.234,0.023,0.492-0.086,0.733,0.147c0.177,0.281,0.055,0.467,0.179,0.817h0.506c-0.158-0.336,0.013-0.653-0.241-1.023
		c-0.069-0.068-0.157-0.114-0.252-0.134c0.107-0.034,0.186-0.027,0.34-0.199c0.188-0.262,0.155-0.623-0.076-0.848
		c-0.226-0.223-0.523-0.203-0.793-0.206l-0.902,0.001l0.003,2.408l0.503,0.002L175.404,90.453L175.404,90.453z M175.86,88.242
		c0.523,0,1.025,0.208,1.395,0.579c0.576,0.598,0.73,1.378,0.429,2.152c-0.101,0.237-0.247,0.457-0.429,0.64
		c-0.598,0.577-1.379,0.732-2.149,0.428c-0.239-0.1-0.458-0.245-0.642-0.428c-0.575-0.597-0.729-1.379-0.427-2.151
		C174.344,88.724,175.063,88.243,175.86,88.242z M177.368,91.725c0.221-0.169,0.354-0.434,0.461-0.691
		c0.328-0.797,0.146-1.714-0.461-2.325c-0.646-0.624-1.491-0.791-2.324-0.464c-0.258,0.107-0.494,0.266-0.691,0.463
		c-0.625,0.645-0.788,1.491-0.464,2.326c0.107,0.258,0.264,0.494,0.464,0.691c0.646,0.623,1.488,0.792,2.324,0.463
		C176.936,92.081,177.197,91.946,177.368,91.725z M175.864,90.062l-0.46-0.002v-0.64c0.258,0.026,0.515-0.087,0.799,0.094
		c0.151,0.139,0.11,0.463-0.142,0.528C175.996,90.056,175.931,90.063,175.864,90.062z"/>
	<rect x="195.409" y="99.842" fill="#FFFFFF" width="7.755" height="25.993"/>
	<rect x="186.296" y="108.959" fill="#FFFFFF" width="25.826" height="7.876"/>
</g>

</svg>
