<?xml version="1.0" encoding="utf-8"?>
<!DOCTYPE svg PUBLIC "-//W3C//DTD SVG 1.1//EN" "http://www.w3.org/Graphics/SVG/1.1/DTD/svg11.dtd">
<svg version="1.1" xmlns="http://www.w3.org/2000/svg" xmlns:xlink="http://www.w3.org/1999/xlink" x="0px" y="0px" width="216px" height="216px" viewBox="0 0 216 216" enable-background="new 0 0 216 216" xml:space="preserve">

	<rect x="-0.333" y="0.333" fill="#0049FF" width="216" height="216"/>
	<g>
		<g>
			<polygon fill="#FFFFFF" points="43.07,177.688 46.794,177.688 46.794,188.201 50.956,188.201 50.956,177.688 54.679,177.688 
				54.679,174.513 43.07,174.513 			"/>
			<polygon fill="#FFFFFF" points="59.881,182.836 65.083,182.836 65.083,179.66 59.881,179.66 59.881,177.688 66.014,177.688 
				66.014,174.512 55.72,174.512 55.72,188.201 66.288,188.201 66.288,185.026 59.881,185.026 			"/>
			<polygon fill="#FFFFFF" points="80.361,174.513 75.707,174.513 73.899,178.018 72.093,174.513 67.438,174.513 71.49,181.084 
				67,188.201 71.655,188.201 73.681,184.369 75.707,188.201 80.361,188.201 76.09,181.084 			"/>
			<polygon fill="#FFFFFF" points="89.067,179.276 85.18,179.276 85.18,174.513 81.018,174.513 81.018,188.201 85.18,188.201 
				85.18,182.507 89.067,182.507 89.067,188.201 93.229,188.201 93.229,174.513 89.067,174.513 			"/>
			<polygon fill="#FFFFFF" points="135.112,174.513 130.237,174.513 126.569,178.948 126.569,174.513 122.463,174.513 
				122.463,188.201 126.569,188.201 126.569,183.876 127.556,182.727 130.621,188.201 134.51,188.201 135.004,188.201 
				130.457,179.66 			"/>
			<path fill="#FFFFFF" d="M115.289,185.19c-2.081,0-2.519-1.808-2.519-3.724c0-2.628,0.876-3.997,2.354-3.997
				c1.314,0,2.135,0.821,2.245,2.245h3.942c-0.328-3.506-2.519-5.585-6.353-5.585c-3.504,0-6.296,2.737-6.296,7.173
				c0,4.435,2.519,7.228,6.735,7.228c3.341,0,5.695-2.136,6.023-5.64h-3.998C117.26,184.205,116.657,185.19,115.289,185.19"/>
			<path fill="#FFFFFF" d="M154.88,180.755h-1.697v-3.066h1.15c0.876,0,2.189,0.165,2.189,1.424
				C156.522,180.317,155.812,180.755,154.88,180.755 M155.1,174.513h-6.079v13.688h4.162v-4.271h2.081
				c3.613,0,5.256-1.861,5.256-4.818C160.465,176.319,158.713,174.513,155.1,174.513"/>
			<path fill="#FFFFFF" d="M166.816,185.026h-1.533v-2.52h1.041c1.313,0,2.301,0.055,2.301,1.26
				C168.625,184.752,167.858,185.026,166.816,185.026 M167.31,179.551h-2.026v-2.026h6.024v-3.012h-10.131v13.688h6.079
				c3.229,0,5.201-1.368,5.201-4.435C172.512,180.919,170.596,179.551,167.31,179.551"/>
			<path fill="#FFFFFF" d="M143.764,174.513h-4.216l-4.053,13.688h0.603h2.958l0.492-1.807h4.106l0.493,1.807h4.106L143.764,174.513
				z M140.314,183.548l1.26-4.873l1.313,4.873H140.314z"/>
			<g>
				<path fill="#FFFFFF" d="M94.301,181.312c0-2.258,0.589-4.017,1.767-5.274c1.18-1.259,2.821-1.888,4.925-1.888
					c2.157,0,3.819,0.618,4.986,1.854c1.167,1.236,1.75,2.968,1.75,5.193c0,1.616-0.254,2.942-0.764,3.976
					c-0.509,1.036-1.247,1.841-2.21,2.417c-0.963,0.574-2.165,0.862-3.602,0.862c-1.462,0-2.671-0.247-3.629-0.744
					c-0.958-0.497-1.734-1.284-2.33-2.36C94.598,184.273,94.301,182.928,94.301,181.312z M98.301,181.328
					c0,1.396,0.244,2.399,0.731,3.01c0.486,0.611,1.149,0.917,1.987,0.917c0.861,0,1.528-0.301,2-0.897
					c0.473-0.598,0.708-1.671,0.708-3.219c0-1.303-0.246-2.255-0.738-2.855c-0.493-0.602-1.162-0.901-2.005-0.901
					c-0.809,0-1.458,0.306-1.948,0.916C98.546,178.908,98.301,179.918,98.301,181.328z"/>
			</g>
		</g>
		<g>
			<path fill="#E95A0C" d="M58.703,32.058h96.9c8.831,0,16.243,7.411,16.243,16.527v99.749c0,9.12-7.125,16.529-16.243,16.529h-96.9
				c-8.833,0-16.245-7.409-16.245-16.529V48.585C42.746,39.468,49.87,32.058,58.703,32.058"/>
			<path fill="#FFFFFF" d="M98.032,125.25L98.032,125.25c2.85,1.142,5.983,1.71,9.406,1.71c3.419,0,6.552-0.568,9.405-1.71
				c0.569-0.286,0.854-0.854,1.141-1.424V61.981c1.996,0.572,4.272,1.423,5.984,2.564c0.286,0,0.569,0.286,0.854,0.286
				c0.855,0,1.709-0.855,1.709-1.711V44.599c0-0.572-0.285-1.428-1.141-1.428c-5.697-1.993-11.681-3.133-17.952-3.133
				c-6.273,0-12.253,1.14-17.955,3.133c-0.573,0.286-1.14,0.855-1.14,1.428v18.236c0,0.855,0.854,1.711,1.708,1.711
				c0.287,0,0.569,0,0.855-0.283c1.996-1.142,3.993-1.996,6.27-2.564v61.842C96.89,124.396,97.176,124.964,98.032,125.25"/>
			<path fill="#FFFFFF" d="M107.438,156.886c31.347,0,56.994-26.219,56.994-58.426c0-20.233-9.971-37.902-25.075-48.447
				c-0.286-0.286-0.571-0.286-0.855-0.286c-0.855,0-1.707,0.569-1.707,1.425v23.369c0,0.286,0,0.855,0.285,1.142
				c4.841,6.27,7.407,14.25,7.407,23.083c0,21.089-16.529,38.192-37.048,38.192c-20.52,0-37.052-17.103-37.052-38.192
				c0-8.547,2.85-16.527,7.411-23.083c0.286-0.286,0.286-0.569,0.286-0.855V51.152c0-0.856-0.854-1.425-1.709-1.425
				c-0.287,0-0.569,0-0.855,0.286c-15.105,10.544-25.08,28.213-25.08,48.447C50.439,130.667,75.805,156.886,107.438,156.886"/>
		</g>
	</g>

</svg>
