<?xml version="1.0" encoding="utf-8"?>
<!DOCTYPE svg PUBLIC "-//W3C//DTD SVG 1.1//EN" "http://www.w3.org/Graphics/SVG/1.1/DTD/svg11.dtd">
<svg version="1.1" xmlns="http://www.w3.org/2000/svg" xmlns:xlink="http://www.w3.org/1999/xlink" x="0px" y="0px" width="216px" height="216px" viewBox="0 0 216 216" enable-background="new 0 0 216 216" xml:space="preserve">
<rect x="2.521" y="2.93" fill-rule="evenodd" clip-rule="evenodd" fill="#FFFFFF" width="212" height="212"/>
<path fill-rule="evenodd" clip-rule="evenodd" fill="#E3AF38" d="M114.255,34.103l6.371-6.37l6.37,6.37l-6.37,6.371L114.255,34.103
	L114.255,34.103z M89.826,33.945l6.37-6.37l6.371,6.37l-6.371,6.37L89.826,33.945L89.826,33.945z M114.334,53.232l6.37-6.371
	l6.37,6.371l-6.37,6.371L114.334,53.232L114.334,53.232z M89.813,53.045l6.37-6.37l6.37,6.37l-6.37,6.37L89.813,53.045
	L89.813,53.045z M80.279,62.54l5.313,5.312l5.313-5.312l-5.313-5.313L80.279,62.54L80.279,62.54z M125.972,62.787l5.313,5.313
	l5.313-5.313l-5.313-5.313L125.972,62.787L125.972,62.787z M136.946,53.177l4.563-4.562l4.562,4.562l-4.562,4.563L136.946,53.177
	L136.946,53.177z M70.751,53.02l4.562-4.561l4.563,4.561l-4.563,4.563L70.751,53.02L70.751,53.02z M80.282,43.49l5.313,5.312
	l5.313-5.312l-5.313-5.313L80.282,43.49L80.282,43.49z M125.932,43.663l5.313,5.313l5.313-5.313l-5.313-5.313L125.932,43.663
	L125.932,43.663z M99.296,81.579l9.168-9.168l9.168,9.168l-9.168,9.169L99.296,81.579L99.296,81.579z M99.296,62.527l9.168,9.168
	l9.168-9.168l-9.168-9.168L99.296,62.527L99.296,62.527z M99.296,43.475l9.168,9.168l9.168-9.168l-9.168-9.168L99.296,43.475
	L99.296,43.475z M99.296,24.423l9.168,9.168l9.168-9.168l-9.168-9.168L99.296,24.423L99.296,24.423z M114.496,72.025l6.37-6.371
	l6.37,6.37l-6.371,6.371L114.496,72.025L114.496,72.025z M89.771,72.007l6.37-6.37l6.37,6.371l-6.37,6.37L89.771,72.007z"/>
<path fill-rule="evenodd" clip-rule="evenodd" fill="#007C4B" d="M4.466,4.876v208.108h208.109V4.876H4.466L4.466,4.876z
	 M2.521,2.93h212v212h-212V2.93L2.521,2.93z M30.459,202.934v-17.666c-0.255-0.044-0.576-0.077-0.959-0.1s-0.798-0.011-1.242,0.039
	s-0.881,0.16-1.32,0.332c-0.438,0.172-0.837,0.428-1.198,0.776c-0.36,0.344-0.648,0.804-0.871,1.375
	c-0.216,0.571-0.327,1.287-0.333,2.135c-0.006,0.633,0.061,1.23,0.205,1.808c0.145,0.577,0.394,1.075,0.754,1.503
	c0.354,0.427,0.848,0.737,1.48,0.926c0.638,0.193,1.442,0.222,2.417,0.088v5.157c-0.754,0.122-1.569,0.177-2.439,0.167
	c-0.871-0.012-1.747-0.117-2.634-0.311c-0.887-0.2-1.741-0.516-2.551-0.954c-0.81-0.438-1.535-1.026-2.173-1.764
	s-1.143-1.652-1.514-2.738c-0.366-1.093-0.561-2.385-0.565-3.882c0.005-1.508,0.188-2.811,0.543-3.897
	c0.35-1.093,0.832-2.013,1.442-2.75c0.604-0.743,1.292-1.343,2.063-1.797c0.765-0.46,1.569-0.804,2.406-1.043
	c0.843-0.231,1.669-0.393,2.484-0.476c0.815-0.084,1.575-0.122,2.273-0.116h1.73v-2.596h7.02v2.596h1.73
	c0.694-0.006,1.442,0.032,2.251,0.116c0.81,0.083,1.636,0.244,2.473,0.476c0.843,0.239,1.647,0.583,2.417,1.043
	c0.771,0.454,1.464,1.054,2.074,1.797c0.61,0.737,1.092,1.657,1.453,2.75c0.355,1.087,0.538,2.39,0.543,3.897
	c-0.006,1.646-0.25,3.072-0.737,4.286c-0.482,1.215-1.164,2.212-2.041,3.005c-0.875,0.793-1.907,1.387-3.088,1.774
	c-1.181,0.389-2.479,0.583-3.881,0.583c-0.349,0-0.704-0.018-1.064-0.045c-0.36-0.034-0.715-0.072-1.065-0.122v-5.157
	c0.15,0.018,0.305,0.034,0.466,0.045c0.161,0.017,0.316,0.022,0.465,0.022c0.377,0.012,0.788-0.027,1.231-0.117
	c0.449-0.082,0.876-0.271,1.281-0.554c0.41-0.288,0.743-0.727,1.009-1.319c0.261-0.594,0.399-1.396,0.405-2.401
	c0.005-0.237-0.011-0.548-0.061-0.932c-0.044-0.383-0.144-0.782-0.305-1.214c-0.16-0.427-0.415-0.826-0.753-1.209
	s-0.804-0.693-1.386-0.932c-0.588-0.238-1.325-0.365-2.218-0.371c-0.399,0-0.799,0.033-1.198,0.1v17.666H30.459L30.459,202.934z
	 M54.911,187.63v-4.99c0.815-0.1,1.563-0.178,2.24-0.239c0.676-0.055,1.308-0.1,1.907-0.121c0.599-0.028,1.192-0.039,1.774-0.039
	c0.604-0.006,1.275,0.028,2.013,0.105c0.732,0.072,1.485,0.216,2.256,0.433c0.771,0.211,1.519,0.527,2.234,0.938
	c0.716,0.415,1.364,0.953,1.936,1.624c0.571,0.671,1.025,1.497,1.358,2.49c0.338,0.986,0.51,2.162,0.516,3.525v10.479H60.333
	c-0.232,0.006-0.577,0-1.037-0.022c-0.466-0.016-0.987-0.077-1.575-0.171c-0.582-0.1-1.176-0.267-1.78-0.505
	c-0.604-0.239-1.159-0.571-1.669-1.004c-0.516-0.433-0.926-0.987-1.242-1.669c-0.311-0.688-0.471-1.524-0.482-2.518
	c-0.005-0.765,0.128-1.519,0.399-2.257c0.272-0.736,0.71-1.403,1.315-2.007c0.604-0.599,1.408-1.081,2.412-1.441
	c1.004-0.354,2.234-0.538,3.693-0.548h2.595c0.205,0.349,0.355,0.697,0.443,1.036c0.095,0.338,0.145,0.692,0.167,1.053
	c0.017,0.36,0.028,0.75,0.022,1.171v0.765h-1.83c-0.266-0.006-0.549,0.011-0.859,0.045c-0.311,0.032-0.61,0.11-0.893,0.222
	c-0.283,0.11-0.516,0.288-0.693,0.521c-0.183,0.233-0.277,0.549-0.283,0.942c0,0.322,0.089,0.604,0.261,0.843
	c0.172,0.239,0.404,0.422,0.709,0.555c0.305,0.134,0.66,0.2,1.059,0.2h3.792v-4.425c0.006-0.549-0.022-1.093-0.078-1.63
	c-0.056-0.538-0.183-1.042-0.371-1.514c-0.188-0.478-0.482-0.899-0.871-1.265c-0.394-0.366-0.92-0.654-1.58-0.865
	c-0.66-0.205-1.491-0.311-2.489-0.316c-0.516,0-1.004,0.018-1.47,0.05c-0.465,0.039-0.948,0.101-1.441,0.189
	C56.064,187.353,55.515,187.475,54.911,187.63L54.911,187.63z M75.004,182.673h9.182c0.222-0.006,0.555,0.006,1.004,0.027
	c0.449,0.028,0.97,0.09,1.558,0.189c0.588,0.104,1.209,0.271,1.852,0.504c0.644,0.233,1.275,0.555,1.891,0.965
	c0.609,0.41,1.169,0.938,1.668,1.58c0.493,0.644,0.893,1.426,1.186,2.352c0.294,0.92,0.45,2.013,0.455,3.266
	c-0.005,1.192-0.161,2.268-0.466,3.221c-0.305,0.96-0.726,1.803-1.264,2.523c-0.539,0.727-1.165,1.33-1.869,1.813
	c-0.71,0.481-1.464,0.848-2.273,1.092c-0.81,0.244-1.636,0.365-2.479,0.365c-0.344,0-0.693-0.005-1.048-0.021
	c-0.35-0.017-0.682-0.038-0.999-0.067c-0.321-0.026-0.598-0.066-0.848-0.11v-4.79c0.305,0.094,0.577,0.155,0.821,0.177
	c0.238,0.017,0.421,0.028,0.543,0.022c0.183,0.006,0.416-0.022,0.699-0.072c0.277-0.05,0.577-0.149,0.887-0.299
	c0.306-0.149,0.599-0.372,0.871-0.665c0.277-0.295,0.499-0.677,0.671-1.16c0.171-0.481,0.26-1.081,0.266-1.796
	c-0.005-0.809-0.116-1.474-0.327-2.007c-0.21-0.533-0.494-0.954-0.837-1.271c-0.35-0.311-0.727-0.543-1.137-0.692
	c-0.405-0.155-0.81-0.249-1.214-0.293c-0.399-0.045-0.754-0.067-1.076-0.062h-1.431v15.47h-6.288V182.673L75.004,182.673z
	 M103.149,201.835h-6.288v-19.162h6.288c0.709,0.582,1.402,1.253,2.068,2.013c0.671,0.76,1.303,1.574,1.891,2.434
	c0.588,0.866,1.12,1.742,1.591,2.629c0.472,0.886,0.859,1.741,1.17,2.572h0.067c0.492-1.291,1.092-2.533,1.796-3.72
	c0.698-1.187,1.47-2.285,2.312-3.294c0.838-1.009,1.708-1.885,2.612-2.634h6.287v19.162h-6.287v-10.612
	c-0.561,0.494-1.076,1.087-1.559,1.78c-0.482,0.692-0.914,1.436-1.309,2.223c-0.388,0.793-0.727,1.569-1.009,2.346
	c-0.289,0.776-0.516,1.486-0.682,2.135h-4.392c-0.183-0.754-0.432-1.542-0.743-2.351c-0.311-0.81-0.671-1.604-1.076-2.379
	c-0.405-0.771-0.837-1.486-1.303-2.135c-0.465-0.649-0.942-1.187-1.436-1.619V201.835L103.149,201.835z M128.366,187.63v-4.99
	c0.814-0.1,1.563-0.178,2.24-0.239c0.676-0.055,1.308-0.1,1.907-0.121c0.599-0.028,1.191-0.039,1.773-0.039
	c0.605-0.006,1.275,0.028,2.013,0.105c0.732,0.072,1.487,0.216,2.257,0.433c0.771,0.211,1.52,0.527,2.234,0.938
	c0.716,0.415,1.364,0.953,1.936,1.624s1.025,1.497,1.358,2.49c0.338,0.986,0.51,2.162,0.516,3.525v10.479h-10.812
	c-0.233,0.006-0.577,0-1.037-0.022c-0.466-0.016-0.987-0.077-1.575-0.171c-0.581-0.1-1.176-0.267-1.779-0.505
	c-0.604-0.239-1.158-0.571-1.669-1.004c-0.516-0.433-0.926-0.987-1.241-1.669c-0.311-0.688-0.472-1.524-0.483-2.518
	c-0.006-0.765,0.128-1.519,0.398-2.257c0.272-0.736,0.711-1.403,1.315-2.007c0.604-0.599,1.407-1.081,2.411-1.441
	c1.004-0.354,2.234-0.538,3.692-0.548h2.596c0.205,0.349,0.354,0.697,0.443,1.036c0.095,0.338,0.145,0.692,0.166,1.053
	c0.018,0.36,0.028,0.75,0.023,1.171v0.765h-1.831c-0.267-0.006-0.548,0.011-0.858,0.045c-0.311,0.032-0.61,0.11-0.894,0.222
	c-0.283,0.11-0.516,0.288-0.692,0.521c-0.184,0.233-0.277,0.549-0.283,0.942c0,0.322,0.089,0.604,0.261,0.843
	c0.172,0.239,0.404,0.422,0.709,0.555c0.305,0.134,0.66,0.2,1.06,0.2h3.792v-4.425c0.006-0.549-0.021-1.093-0.076-1.63
	c-0.057-0.538-0.185-1.042-0.372-1.514c-0.188-0.478-0.483-0.899-0.87-1.265c-0.395-0.366-0.92-0.654-1.582-0.865
	c-0.659-0.205-1.491-0.311-2.488-0.316c-0.516,0-1.004,0.018-1.47,0.05c-0.466,0.039-0.947,0.101-1.441,0.189
	C129.52,187.353,128.97,187.475,128.366,187.63L128.366,187.63z M149.158,182.673h6.255c-0.217,0.992-0.434,2.007-0.644,3.044
	c-0.211,1.037-0.389,2.073-0.532,3.104c-0.144,1.032-0.217,2.029-0.222,2.999c0.005,1.033,0.133,1.869,0.383,2.519
	c0.249,0.643,0.576,1.143,0.986,1.492c0.411,0.349,0.865,0.598,1.353,0.742c0.494,0.139,0.987,0.222,1.476,0.25
	c0.493,0.021,0.948,0.027,1.358,0.021h8.384v4.99h-10.014c-0.71,0.006-1.459-0.022-2.241-0.082c-0.78-0.062-1.558-0.195-2.339-0.4
	c-0.776-0.2-1.514-0.51-2.213-0.926c-0.698-0.41-1.313-0.971-1.857-1.674c-0.543-0.699-0.97-1.581-1.286-2.64
	c-0.311-1.06-0.471-2.335-0.477-3.827c0.006-1.081,0.077-2.127,0.222-3.148c0.144-1.021,0.343-2.063,0.588-3.116
	C148.582,184.968,148.854,183.854,149.158,182.673L149.158,182.673z M165.759,182.673v13.074h-6.287v-13.074H165.759
	L165.759,182.673z M176.638,182.673v19.162h-6.288v-19.162H176.638L176.638,182.673z M170.084,177.15h6.82
	c-0.111,0.609-0.272,1.181-0.483,1.714c-0.216,0.532-0.466,1.002-0.765,1.408c-0.3,0.404-0.627,0.726-0.987,0.953
	c-0.365,0.228-0.748,0.344-1.159,0.349c-0.415-0.005-0.81-0.121-1.175-0.349c-0.366-0.228-0.698-0.549-0.999-0.953
	c-0.299-0.406-0.554-0.876-0.771-1.408C170.354,178.331,170.194,177.76,170.084,177.15L170.084,177.15z M191.841,187.496h-2.229
	c-0.144-0.005-0.349,0-0.615,0.023c-0.261,0.016-0.548,0.061-0.858,0.138c-0.306,0.078-0.6,0.205-0.882,0.384
	c-0.283,0.182-0.511,0.432-0.694,0.747c-0.177,0.322-0.271,0.732-0.276,1.236c0.011,0.621,0.154,1.116,0.432,1.491
	c0.278,0.372,0.639,0.645,1.076,0.816c0.433,0.171,0.898,0.271,1.381,0.288c0.487,0.022,0.943-0.012,1.369-0.1v3.958
	c-0.721,0.189-1.348,0.472-1.879,0.849c-0.532,0.371-0.981,0.81-1.337,1.309c-0.36,0.493-0.648,1.015-0.854,1.569
	c-0.205,0.549-0.349,1.092-0.422,1.63h-6.62c0.238-0.992,0.621-1.936,1.137-2.816c0.516-0.882,1.137-1.658,1.852-2.329
	c0.721-0.677,1.497-1.203,2.334-1.574v-0.134c-0.415-0.1-0.853-0.237-1.309-0.416c-0.454-0.177-0.896-0.404-1.324-0.687
	c-0.433-0.277-0.82-0.621-1.17-1.025c-0.35-0.406-0.626-0.878-0.838-1.432c-0.204-0.548-0.31-1.181-0.315-1.896
	c0-0.659,0.077-1.314,0.232-1.963c0.155-0.654,0.41-1.275,0.76-1.857c0.355-0.589,0.815-1.104,1.393-1.559
	c0.576-0.454,1.286-0.815,2.123-1.075c0.832-0.261,1.819-0.394,2.944-0.399h10.879v19.162h-6.288V187.496L191.841,187.496z
	 M112.779,92.275l27.186-27.186c5.516-5.517,14.543-5.517,20.059,0l27.187,27.186l-27.187,27.186
	c-5.516,5.517-14.543,5.517-20.059,0L112.779,92.275L112.779,92.275z M124.718,91.874l8.41-8.409c3.083-3.084,8.13-3.084,11.214,0
	l8.409,8.409l-8.409,8.41c-3.084,3.084-8.131,3.084-11.214,0L124.718,91.874L124.718,91.874z M128.542,91.874l5.834-6.115
	c2.141-2.243,5.641-2.243,7.78,0l5.834,6.115l-5.834,6.116c-2.14,2.242-5.64,2.242-7.78,0L128.542,91.874L128.542,91.874z
	 M121.288,91.874l15.73-15.729c3.708-3.708,9.774-3.708,13.482,0l15.729,15.729l-15.729,15.73c-3.708,3.708-9.774,3.708-13.482,0
	L121.288,91.874L121.288,91.874z M117.974,91.874l18.79-18.79c4.43-4.429,11.678-4.429,16.106,0l18.791,18.79l-18.791,18.791
	c-4.429,4.429-11.677,4.429-16.106,0L117.974,91.874L117.974,91.874z M109.244,96.34l27.187,27.186
	c5.516,5.516,5.516,14.542,0,20.059l-27.187,27.187l-27.186-27.187c-5.516-5.517-5.516-14.543,0-20.059L109.244,96.34L109.244,96.34
	z M108.843,108.278l8.41,8.41c3.084,3.084,3.084,8.13,0,11.214l-8.41,8.41l-8.41-8.41c-3.083-3.084-3.083-8.13,0-11.214
	L108.843,108.278L108.843,108.278z M108.843,112.103l6.116,5.835c2.242,2.14,2.242,5.64,0,7.779l-6.116,5.835l-6.115-5.835
	c-2.243-2.14-2.243-5.64,0-7.779L108.843,112.103L108.843,112.103z M108.843,104.849l15.729,15.73c3.708,3.707,3.708,9.774,0,13.481
	l-15.729,15.73l-15.73-15.73c-3.708-3.707-3.708-9.774,0-13.481L108.843,104.849L108.843,104.849z M108.843,101.534l18.791,18.79
	c4.429,4.43,4.429,11.677,0,16.106l-18.791,18.79l-18.79-18.79c-4.429-4.43-4.429-11.677,0-16.106L108.843,101.534L108.843,101.534z
	 M104.387,92.275l-27.186,27.186c-5.517,5.517-14.543,5.517-20.059,0L29.956,92.275L57.142,65.09c5.516-5.517,14.542-5.517,20.059,0
	L104.387,92.275L104.387,92.275z M92.448,91.874l-8.41,8.41c-3.083,3.084-8.13,3.084-11.213,0l-8.41-8.41l8.41-8.409
	c3.083-3.084,8.129-3.084,11.213,0L92.448,91.874L92.448,91.874z M88.625,91.874L82.79,97.99c-2.139,2.242-5.641,2.242-7.779,0
	l-5.835-6.116l5.835-6.115c2.139-2.243,5.64-2.243,7.779,0L88.625,91.874L88.625,91.874z M95.878,91.874l-15.73,15.73
	c-3.707,3.708-9.774,3.708-13.482,0l-15.73-15.73l15.73-15.729c3.708-3.708,9.775-3.708,13.482,0L95.878,91.874L95.878,91.874z
	 M99.192,91.874l-18.791,18.791c-4.429,4.429-11.676,4.429-16.105,0L45.505,91.874l18.791-18.79c4.429-4.429,11.677-4.429,16.105,0
	L99.192,91.874z"/>
</svg>
