<?xml version="1.0" encoding="utf-8"?>
<!DOCTYPE svg PUBLIC "-//W3C//DTD SVG 1.1//EN" "http://www.w3.org/Graphics/SVG/1.1/DTD/svg11.dtd">
<svg version="1.1" id="Layer_1" xmlns="http://www.w3.org/2000/svg" xmlns:xlink="http://www.w3.org/1999/xlink" x="0px" y="0px" width="216px" height="216px" viewBox="0 0 216 216" enable-background="new 0 0 216 216" xml:space="preserve">
<rect fill="#FFFFFF" width="216" height="216"/>
<path fill-rule="evenodd" clip-rule="evenodd" fill="#F58345" d="M65.255,16.727c1.028,9.341,4.504,18.424,10.798,24.939
	c6.657,6.891,16.883,11.012,25.71,12.855c-1.415-9.599-4.035-20.246-10.928-27.381C84.3,20.372,72.282,16.769,65.255,16.727z"/>
<path fill-rule="evenodd" clip-rule="evenodd" fill="#A6CE39" d="M83.492,123.97l22.625-20.894V79.938l-22.625,20.894V123.97
	L83.492,123.97z M156.525,75.849l-27.767,24.88v23.139l27.767-24.878V75.849L156.525,75.849z M133.899,78.435v-23.14l0.001-0.001
	v22.94l0.11,0.103L133.899,78.435L133.899,78.435z M146.813,67.02l9.711-8.583v-23.14l-22.514,19.9L146.813,67.02L146.813,67.02z
	 M106.134,54.521l22.625-20.893v-23.14l-22.625,20.894V54.521z"/>
<path fill-rule="evenodd" clip-rule="evenodd" fill="#00A651" d="M156.525,58.505l-0.04-0.036l0.039-0.034v-23.07l0.001,0.002
	V58.505L156.525,58.505z M143.486,46.823l12.999-11.492l-27.727-24.844v23.14L143.486,46.823L143.486,46.823z M156.525,99.128
	l-0.077-0.072l0.077-0.067V99.128L156.525,99.128z M143.731,87.313l-9.831-9.079V55.095l22.548,20.823L143.731,87.313
	L143.731,87.313z M128.759,123.938l-22.625-20.894v-23.14l22.625,20.894V123.938L128.759,123.938z M83.509,123.971L55.742,99.093
	V75.954l27.767,24.879V123.971z"/>
<path fill="#00A651" d="M77.931,178.073H60.627v-2.248c0.782-0.109,1.324-0.234,1.625-0.368c0.624-0.251,1.074-0.599,1.343-1.041
	c0.268-0.44,0.432-0.995,0.407-1.67l-0.829-21.555c0.021-2.893-1.435-1.959-1.993-0.114l-9.567,25.644
	c-0.679,1.158-1.874,1.93-3.196,0c-2.553-9.216-6.155-17.629-9.085-26.742c-1.415-3.914-1.761-2.121-2.043,0.175L35.17,167.34
	c-0.256,2.08-0.371,3.689-0.09,4.783c0.28,1.089,0.729,1.885,1.351,2.398c0.427,0.354,1.188,0.693,2.279,1.012
	c0.27,0.081,0.554,0.154,0.834,0.216v2.324H26.04v-1.984c0.416-0.043,0.598-0.298,1.55-0.475c0.961-0.178,1.738-0.49,2.347-0.927
	c0.672-0.48,1.14-1.273,1.377-2.398c0.238-1.126,0.557-2.616,0.867-4.671l2.7-17.847c0.162-1.071,0.765-1.985,0.493-2.703
	c-0.273-0.72-0.679-1.287-1.221-1.706c-0.679-0.525-1.369-0.871-2.08-1.022c-0.303-0.064-0.774-0.12-1.269-0.166v-2.111h13.628
	l8.108,21.851l7.241-17.117c0.293-0.694,0.489-1.552,0.728-2.537c0.237-0.979,0.364-1.62,0.38-1.923l12.593-0.239v2.17
	c-0.544,0.098-1.072,0.224-1.57,0.385c-0.667,0.216-1.095,0.564-1.308,1.04c-0.212,0.47-0.378,0.999-0.321,1.567l2.572,25.514
	c0.061,0.602,0.107,1.115,0.32,1.533c0.211,0.414,0.642,0.771,1.309,1.072c0.338,0.155,0.892,0.305,1.663,0.435
	c0.762,0.138,1.361,0.233,1.785,0.276V178.073L77.931,178.073z M101.634,178.073H83.903v-1.984c0.401-0.025,1-0.078,1.785-0.148
	c0.792-0.067,1.338-0.172,1.639-0.302c0.553-0.261,0.931-0.588,1.139-1.004c0.199-0.417,0.299-0.944,0.299-1.586v-25.528
	c0-0.582-0.092-1.085-0.292-1.525c-0.192-0.442-0.577-0.798-1.146-1.065c-0.362-0.174-0.892-0.347-1.6-0.521
	c-0.708-0.182-1.315-0.301-1.824-0.371v-1.975h17.731v1.975c-0.446,0.05-1.015,0.12-1.685,0.216
	c-0.676,0.096-1.254,0.225-1.715,0.398c-0.584,0.217-0.977,0.563-1.169,1.023c-0.199,0.467-0.299,0.996-0.299,1.584v25.514
	c0,0.605,0.108,1.125,0.308,1.559c0.198,0.434,0.592,0.78,1.161,1.047c0.315,0.155,0.838,0.305,1.562,0.45
	c0.73,0.142,1.346,0.235,1.838,0.261V178.073L101.634,178.073z M147.962,178.073H135.95c-3.421-5.233-4.972-11.063-8.687-16.028
	c-0.314-0.421-1.412-0.834-1.75-1.243h-4.09v11.971c0,0.604,0.113,1.124,0.336,1.541c0.229,0.424,0.668,0.781,1.31,1.064
	c0.32,0.143,0.823,0.282,1.508,0.427c0.683,0.141,1.073,0.127,1.565,0.169l0.072,2.1h-16.866v-2.082l1.003-0.109
	c0.808-0.097,1.379-0.208,1.717-0.349c0.641-0.268,1.074-0.611,1.291-1.029c0.224-0.408,0.337-0.944,0.337-1.585v-25.398
	c0-0.618-0.097-1.119-0.286-1.525c-0.183-0.408-0.633-0.763-1.342-1.065c-0.538-0.227-1.18-0.408-1.916-0.564l-0.804-0.159v-2.144
	h19.265c5.702,0,11.182,1.17,11.182,8.523c0,4.866-3.438,7.572-7.568,8.768c1.087,0.607,2.854,1.616,3.483,2.633
	c1.891,3.053,2.607,6.564,4.939,9.458c0.529,0.66,1.235,1.477,2.139,2.429c0.908,0.954,1.705,1.548,2.4,1.766
	c0.388,0.121,0.885,0.216,1.489,0.302c0.599,0.088,1.024,0.141,1.284,0.148V178.073L147.962,178.073z M130.175,151.022
	c0-2.398,0.347-3.888-0.997-4.994c-1.349-1.109-2.242-1.663-5.752-1.663h-2.002v14.054l3.204-0.063
	c2.486-0.051,3.138-0.595,4.506-1.895S130.175,153.847,130.175,151.022L130.175,151.022z M185.836,178.073v-2.262
	c-0.58-0.132-1.087-0.327-1.531-0.579c-0.624-0.374-1.107-0.771-1.446-1.178c-0.338-0.417-0.616-0.875-0.842-1.388
	c-1.316-3.109-2.909-7.042-4.79-11.772c-1.88-4.738-4.479-11.184-7.797-19.344h-5.075c-2.384,5.752-4.558,11.019-6.533,15.784
	c-1.975,4.773-3.94,9.538-5.898,14.292c-0.32,0.816-0.729,1.518-1.205,2.105c-0.484,0.59-1.074,1.093-1.767,1.5
	c-0.407,0.252-0.961,0.45-1.663,0.596l-0.019,0.004v2.241h11.313v-2.163c-1.102-0.163-1.936-0.378-2.51-0.645
	c-0.822-0.381-1.231-0.839-1.231-1.376c0-0.175,0.028-0.469,0.086-0.892c0.062-0.425,0.252-1.109,0.575-2.053
	c0.25-0.729,0.553-1.561,0.899-2.487c0.347-0.937,0.666-1.75,0.953-2.442h13.33l2.806,7.298c0.111,0.289,0.191,0.511,0.218,0.685
	c0.024,0.164,0.033,0.32,0.033,0.458c0,0.382-1.244,0.877-2.483,1.141c-0.478,0.101-0.931,0.191-1.362,0.265v2.212H185.836
	L185.836,178.073z M169.708,163.501h-11.341l5.86-15.098L169.708,163.501L169.708,163.501z M34.213,206.835h-1.872l-0.745-2.361
	h-3.404l-0.702,2.361h-1.83l3.318-10.397h1.823L34.213,206.835L34.213,206.835z M31.045,202.724l-1.172-3.86l-1.154,3.86H31.045
	L31.045,202.724z M59.599,206.835h-1.716v-10.397h6.809v10.397h-1.709v-8.644h-3.384V206.835L59.599,206.835z M91.119,206.835
	v-8.637h-2.533v-1.761h6.772v1.761h-2.524v8.637H91.119L91.119,206.835z M119.221,206.835v-10.397h6.327v1.761h-4.61v2.305h4.282
	v1.751h-4.282v2.829h4.765v1.752H119.221L119.221,206.835z M149.932,206.835v-10.397h1.716v4.426
	c0.382-0.046,0.649-0.177,0.794-0.386c0.147-0.209,0.342-0.717,0.581-1.522c0.242-0.803,0.495-1.389,0.753-1.755
	c0.259-0.364,0.537-0.589,0.831-0.669c0.293-0.079,0.796-0.136,1.511-0.17v1.56h-0.242c-0.487,0-0.815,0.113-0.991,0.338
	c-0.172,0.222-0.348,0.657-0.53,1.3c-0.182,0.645-0.337,1.072-0.47,1.283c-0.128,0.213-0.338,0.424-0.627,0.632
	c0.377,0.157,0.688,0.409,0.925,0.76c0.241,0.349,0.528,0.934,0.863,1.758l1.164,2.844h-2.022l-1.028-2.686
	c-0.259-0.689-0.484-1.166-0.67-1.439c-0.188-0.27-0.468-0.41-0.841-0.42v4.545H149.932L149.932,206.835z M187.6,206.835h-1.871
	l-0.746-2.361h-3.404l-0.7,2.361h-1.831l3.32-10.397h1.822L187.6,206.835L187.6,206.835z M184.432,202.724l-1.172-3.86l-1.155,3.86
	H184.432z"/>
</svg>
