<?xml version="1.0" encoding="utf-8"?>
<!DOCTYPE svg PUBLIC "-//W3C//DTD SVG 1.1//EN" "http://www.w3.org/Graphics/SVG/1.1/DTD/svg11.dtd">
<svg version="1.1" id="Layer_1" xmlns="http://www.w3.org/2000/svg" xmlns:xlink="http://www.w3.org/1999/xlink" x="0px" y="0px" width="216px" height="216px" viewBox="0 0 216 216" enable-background="new 0 0 216 216" xml:space="preserve">
<rect x="0.333" fill="#FFFFFF" width="215.667" height="216"/>
<g>
	<path fill="#014FA1" d="M40.214,191.979c0.158,0.198,0.247,0.442,0.252,0.696c0,0.252-0.189,0.569-0.695,0.569h-4.425
		c-1.012,0-0.948-0.191-1.391-0.823l-8.471-13.212v13.149c0,0.694-0.379,0.821-0.759,0.821H20.87c-0.632,0-0.695-0.253-0.695-0.821
		v-26.804c0-0.759,0.252-0.821,0.885-0.821h3.667c0.695,0,0.821,0.252,0.821,0.821v11.378l8.408-11.378
		c0.569-0.821,0.695-0.821,1.454-0.821h2.844c0.316,0,0.695,0.063,0.695,0.505c-0.043,0.323-0.175,0.631-0.379,0.884l-8.218,11
		L40.214,191.979z"/>
	<path fill="#014FA1" d="M48.369,192.359c0,0.694-0.189,0.821-0.822,0.821H44.26c-0.696,0-0.822-0.189-0.822-0.821V175.48
		c0-1.075,0.126-1.518,0.506-1.896c1.012-0.948,4.489-1.834,8.092-1.834c1.176-0.03,2.343,0.207,3.413,0.694
		c0.823,0.453,1.315,1.337,1.265,2.276c0.035,1.188-0.898,2.177-2.085,2.212c-0.021,0-0.043,0-0.064,0
		c-0.438-0.011-0.86-0.166-1.202-0.442c-0.505-0.379-0.758-1.075-1.2-1.516c-0.419-0.502-1.058-0.763-1.707-0.696
		c-0.849-0.086-1.652,0.405-1.959,1.201c-0.125,0.409-0.189,0.836-0.19,1.264v15.615H48.369z"/>
	<path fill="#014FA1" d="M69.23,178.895c-0.126-1.771-1.138-4.11-3.478-4.11c-0.69,0.02-1.365,0.216-1.959,0.569
		c-2.275,1.391-2.275,4.615-2.275,4.742L69.23,178.895z M61.645,182.624c0.19,2.719,1.833,6.638,5.563,6.638
		c1.074,0,2.908-0.189,5.057-3.035c0.379-0.505,0.633-0.821,1.201-0.821c1.012,0,1.075,1.138,1.075,1.265
		c-0.094,0.833-0.329,1.647-0.695,2.402c-1.265,2.899-4.173,4.729-7.333,4.614c-4.173,0-8.978-2.782-8.978-11
		c0-7.965,4.679-11,8.978-11c3.16,0,6.068,1.391,7.396,5.185c0.285,0.771,0.455,1.58,0.506,2.401
		c0.094,0.773-0.456,1.477-1.229,1.571c-0.055,0.006-0.108,0.009-0.163,0.011L61.645,182.624z"/>
	<path fill="#014FA1" d="M89.714,175.48c-0.747-0.627-1.683-0.981-2.656-1.013c-3.034,0-4.994,3.352-4.994,8.029
		c0,3.54,1.012,6.068,2.846,7.334c0.663,0.413,1.43,0.633,2.212,0.633c2.276,0,2.528-1.645,2.528-2.53V175.48H89.714z
		 M89.714,163.217c-0.076-0.409,0.193-0.802,0.602-0.877c0.072-0.014,0.146-0.016,0.219-0.009h3.225
		c0.759,0,0.948,0.189,0.948,0.696v26.107c0.009,0.756-0.188,1.498-0.569,2.15c-1.453,1.96-5.941,2.401-7.648,2.401
		c-6.639,0-9.42-4.678-9.42-10.431c0-4.615,2.34-11.569,8.977-11.569c1.303-0.018,2.581,0.357,3.668,1.075V163.217z"/>
	<path fill="#014FA1" d="M107.224,190.399c2.846,0,4.174-3.666,4.174-7.648c0-2.972-1.074-7.967-4.553-7.967
		c-2.719,0-4.236,3.289-4.236,7.396C102.673,186.48,104.506,190.399,107.224,190.399 M107.034,193.75
		c-6.764,0-9.609-5.752-9.609-11.315c0-5.312,3.414-10.684,9.736-10.684s9.546,5.626,9.546,10.746
		C116.707,189.514,112.533,193.75,107.034,193.75"/>
	<path fill="#014FA1" d="M125.999,190.021c1.074,0.127,2.214,0.189,2.719,0.189c1.201,0,6.195-0.127,6.195-4.994
		c0.034-1.257-0.37-2.484-1.138-3.478c-1.264-1.58-3.035-2.085-6.07-2.085c-0.632,0-1.074,0.063-1.706,0.063V190.021z
		 M125.999,176.934h1.203c1.707,0,4.234-0.063,5.624-2.274c0.496-0.752,0.761-1.63,0.761-2.53c0-2.085-1.013-4.614-5.312-4.614
		c-0.761-0.031-1.523,0.012-2.276,0.126V176.934z M120.626,166.377c0-1.326,0.695-1.518,2.466-1.707
		c0.757-0.063,2.655-0.253,4.805-0.253c3.477,0,11.125,0.38,11.125,7.018c0,4.425-4.108,6.195-5.184,6.574
		c5.944,1.264,6.765,5.31,6.765,7.523c0.058,1.71-0.528,3.38-1.644,4.678c-2.148,2.528-5.626,3.287-11,3.287
		c-1.944-0.017-3.885-0.143-5.816-0.379c-1.075-0.19-1.454-0.38-1.454-1.645v-25.097H120.626z"/>
	<path fill="#014FA1" d="M152.615,183.002c-2.214,0.696-4.488,1.771-4.488,4.427c0,2.022,1.199,3.476,3.349,3.476
		c2.528,0,2.528-1.832,2.528-2.654v-5.688L152.615,183.002z M154.004,178.198c0-2.148-0.378-3.666-2.528-3.666
		c-3.413,0-1.96,4.235-5.056,4.235c-1.179,0.011-2.139-0.934-2.149-2.11c0-0.015,0-0.027,0-0.039
		c0.035-0.736,0.302-1.443,0.757-2.023c1.707-2.401,5.31-2.844,7.145-2.844c5.688,0,6.574,3.098,6.574,6.006v11.189
		c0.067,0.893-0.107,1.789-0.507,2.592c-1.39,1.959-5.563,2.212-7.396,2.212c-5.185,0-7.586-2.339-7.586-5.752
		c0-5.121,6.322-6.576,9.482-7.335l1.264-0.315V178.198z"/>
	<path fill="#014FA1" d="M175.688,193.181c-0.694,0-0.884-0.253-0.884-0.948v-14.224c0-1.202-0.253-3.477-3.413-3.477
		c-1.645,0-2.657,0.759-3.1,1.77c-0.163,0.532-0.227,1.089-0.189,1.645v14.349c0,0.633-0.063,0.95-0.886,0.95h-3.285
		c-0.696,0-0.823-0.254-0.823-0.823v-16.437c-0.071-0.811,0.206-1.615,0.759-2.212c1.075-1.074,4.489-1.96,7.967-1.96
		c2.528,0,6.699,0.254,7.773,4.109c0.155,0.728,0.218,1.47,0.191,2.213v14.286c0,0.569-0.127,0.823-0.823,0.823h-3.287V193.181z"/>
	<path fill="#014FA1" d="M202.491,191.979c0.254,0.253,0.379,0.442,0.379,0.632c0,0.316-0.189,0.569-0.694,0.569h-4.426
		c-0.511,0.08-1.02-0.173-1.265-0.632l-7.206-9.672v9.545c0,0.443-0.063,0.759-0.821,0.759h-3.351c-0.759,0-0.823-0.253-0.823-0.759
		V163.09c0-0.696,0.254-0.759,0.634-0.759h3.54c0.379,0,0.821,0,0.821,0.632v18.208l7.206-8.029c0.696-0.823,0.95-0.823,1.645-0.823
		h2.719c0.314,0,0.821,0,0.821,0.508c-0.046,0.285-0.178,0.55-0.378,0.759l-7.146,7.648L202.491,191.979z"/>
	<g>
		<path fill="#A3A3A3" d="M67.338,201.715c-0.567,0-0.821,0.189-0.821,0.886v2.466c0.127,0,0.316,0.063,0.633,0.063
			c0.893,0.084,1.685-0.571,1.771-1.464c0.009-0.103,0.009-0.204,0-0.306c0.11-0.793-0.439-1.524-1.231-1.638
			C67.573,201.706,67.456,201.704,67.338,201.715 M69.741,203.295c0.05,1.246-0.918,2.298-2.164,2.348
			c-0.1,0.004-0.199,0.002-0.302-0.007c-0.276,0.018-0.552-0.004-0.823-0.064v2.655h-0.883v-5.563c0-1.2,0.693-1.391,1.706-1.391
			C69.045,201.21,69.741,202.096,69.741,203.295"/>
		<path fill="#A3A3A3" d="M71.891,204.813v3.352h-0.821v-6.827h0.821v3.224l2.212-2.592c0.286-0.414,0.763-0.652,1.264-0.632h0.316
			l-2.339,2.59c-0.253,0.306-0.58,0.545-0.948,0.696v0.189c0.355,0.143,0.681,0.359,0.948,0.632l2.466,2.72h-0.381
			c-0.49-0.023-0.949-0.252-1.264-0.632L71.891,204.813z"/>
		<path fill="#A3A3A3" d="M79.414,201.715c-1.203,0-2.024,1.265-2.024,2.846c0,1.896,0.821,3.098,2.086,3.098
			c1.266,0,2.023-1.266,2.023-2.908C81.499,202.979,80.679,201.715,79.414,201.715 M79.414,208.291
			c-1.706,0-2.973-1.392-2.973-3.605c0-2.022,1.267-3.538,2.973-3.538c1.707,0,2.972,1.516,2.972,3.538
			C82.386,206.899,81.121,208.291,79.414,208.291"/>
		<path fill="#A3A3A3" d="M88.138,204.813h-0.761v2.149c0,0.506,0.254,0.759,1.013,0.759c0.793,0.109,1.522-0.446,1.63-1.238
			c0.011-0.072,0.015-0.144,0.015-0.215C90.099,205.382,89.464,204.813,88.138,204.813 M88.263,201.715
			c-0.568,0-0.821,0.189-0.821,0.823v1.77c0.127,0,0.378,0.063,0.696,0.063c0.946,0,1.58-0.506,1.58-1.391
			c0.008-0.698-0.552-1.27-1.252-1.278C88.398,201.701,88.331,201.704,88.263,201.715 M88.39,208.227
			c-1.264,0-1.834-0.379-1.834-1.202v-4.613c0-1.012,0.761-1.264,1.707-1.264c1.645,0,2.214,0.757,2.214,1.643
			c-0.002,0.737-0.493,1.382-1.202,1.58v0.064c0.885,0.188,1.707,0.694,1.707,1.769C90.981,207.278,90.224,208.227,88.39,208.227"/>
		<path fill="#A3A3A3" d="M95.027,204.181c0-0.442-0.315-0.632-0.821-0.632c-0.822,0-1.455,0.696-1.455,2.212
			c0,1.264,0.508,1.96,1.201,1.96c0.428-0.018,0.822-0.227,1.075-0.569V204.181z M95.851,208.164h-0.254
			c-0.227,0.014-0.423-0.153-0.442-0.381v-0.188H95.09c-0.304,0.432-0.798,0.688-1.326,0.696c-1.075,0-1.77-0.948-1.77-2.403
			c0-1.77,1.075-2.782,2.339-2.782c0.393,0.002,0.78,0.09,1.137,0.254c0.288,0.107,0.467,0.391,0.443,0.694v4.11H95.851z"/>
		<path fill="#A3A3A3" d="M100.339,208.164v-3.604c0-0.696-0.443-1.074-1.203-1.074c-0.758,0-1.011,0.189-1.011,0.694v3.983h-0.821
			v-4.237c-0.006-0.264,0.143-0.511,0.379-0.632c0.457-0.203,0.957-0.291,1.453-0.252c1.266,0,1.961,0.506,1.961,1.454v3.667
			H100.339z"/>
		<path fill="#A3A3A3" d="M103.372,208.164h-0.822v-7.271h0.822v4.551l1.516-1.833c0.236-0.282,0.582-0.444,0.95-0.441h0.315
			l-1.455,1.707c-0.213,0.278-0.496,0.496-0.82,0.632v0.127c0.189,0,0.507,0.189,0.885,0.632l1.643,1.896h-0.314
			c-0.424,0.035-0.833-0.157-1.074-0.506l-1.582-1.96v2.466H103.372z"/>
		<path fill="#A3A3A3" d="M111.779,201.715c-0.567,0-0.821,0.189-0.821,0.886v2.466c0.125,0,0.316,0.063,0.633,0.063
			c0.893,0.084,1.686-0.571,1.771-1.464c0.009-0.103,0.009-0.204,0-0.306c0.111-0.793-0.438-1.524-1.231-1.638
			C112.016,201.706,111.897,201.704,111.779,201.715 M114.245,203.295c0.052,1.246-0.917,2.298-2.162,2.348
			c-0.102,0.004-0.203,0.002-0.304-0.007c-0.274,0.018-0.551-0.004-0.821-0.064v2.655h-0.885v-5.563c0-1.2,0.696-1.391,1.706-1.391
			C113.486,201.21,114.245,202.096,114.245,203.295"/>
		<path fill="#A3A3A3" d="M117.153,203.486c-0.947,0-1.328,1.011-1.328,2.022c0,1.011,0.381,2.274,1.393,2.274
			c1.011,0,1.327-1.074,1.327-2.085C118.545,204.686,118.164,203.486,117.153,203.486 M117.218,208.291
			c-1.455,0-2.214-1.267-2.214-2.655c0-1.391,0.759-2.593,2.214-2.593c1.453,0,2.211,1.202,2.211,2.593
			C119.429,207.024,118.671,208.291,117.218,208.291"/>
		<rect x="120.632" y="200.894" fill="#A3A3A3" width="0.821" height="7.333"/>
		<path fill="#A3A3A3" d="M124.678,205.382c0.757,0.316,1.578,0.633,1.578,1.518c0,0.884-0.757,1.454-1.832,1.454
			c-0.907,0.085-1.742-0.506-1.96-1.392c0.386-0.169,0.835-0.001,1.01,0.381c0.189,0.348,0.554,0.565,0.95,0.567
			c0.493,0.063,0.941-0.284,1.003-0.776c0.006-0.036,0.008-0.071,0.008-0.109c0-0.567-0.506-0.757-1.2-1.072
			c-0.886-0.316-1.518-0.696-1.518-1.518c0-0.823,0.821-1.329,1.707-1.329c0.807-0.071,1.539,0.472,1.707,1.265
			c-0.116,0.071-0.246,0.114-0.379,0.127c-0.293-0.031-0.539-0.229-0.632-0.506c-0.136-0.293-0.439-0.47-0.761-0.442
			c-0.408-0.041-0.774,0.257-0.817,0.666c-0.004,0.03-0.004,0.063-0.004,0.093C123.538,204.877,123.981,205.066,124.678,205.382"/>
		<path fill="#A3A3A3" d="M128.216,208.164h-0.821v-7.271h0.821v4.551l1.518-1.833c0.234-0.282,0.582-0.444,0.948-0.441h0.316
			l-1.454,1.707c-0.214,0.278-0.496,0.496-0.821,0.632v0.127c0.189,0,0.506,0.189,0.886,0.632l1.643,1.896h-0.315
			c-0.424,0.035-0.834-0.157-1.075-0.506l-1.58-1.96v2.466H128.216z"/>
		<path fill="#A3A3A3" d="M132.01,203.17h0.821v5.057h-0.821V203.17z M132.451,202.221c-0.278,0-0.504-0.226-0.504-0.506
			c0-0.278,0.226-0.505,0.504-0.505c0.28,0,0.507,0.227,0.507,0.505c0.021,0.257-0.17,0.484-0.427,0.506
			C132.505,202.224,132.479,202.224,132.451,202.221"/>
		<path fill="#A3A3A3" d="M142.124,204.686v1.961c0,0.821-0.821,1.645-2.274,1.645c-2.149,0-3.1-1.707-3.1-3.605
			c0-1.896,1.075-3.476,2.971-3.476c1.08-0.036,2.045,0.668,2.339,1.707c-0.114,0.069-0.242,0.112-0.378,0.126
			c-0.316,0-0.568-0.126-0.821-0.569c-0.218-0.429-0.657-0.698-1.14-0.694c-1.137,0-2.021,1.011-2.021,2.844
			c0,1.834,0.884,3.16,2.149,3.16c1.075,0,1.453-0.505,1.453-1.137v-1.328h-0.507c-0.442,0-0.757-0.189-0.757-0.568h2.085V204.686z"
			/>
		<path fill="#A3A3A3" d="M145.603,203.927c-0.2,0-0.388-0.093-0.508-0.251c-0.112-0.125-0.274-0.195-0.442-0.189
			c-0.254,0-0.442,0.189-0.442,0.567v4.11h-0.821v-4.237c-0.021-0.27,0.13-0.522,0.378-0.632c0.357-0.164,0.746-0.25,1.14-0.252
			c0.464-0.041,0.925,0.12,1.264,0.443C146.104,203.745,145.87,203.927,145.603,203.927"/>
		<path fill="#A3A3A3" d="M148.826,203.486c-0.949,0-1.328,1.011-1.328,2.022c0,1.011,0.379,2.274,1.39,2.274
			c1.012,0,1.328-1.074,1.328-2.085C150.216,204.686,149.837,203.486,148.826,203.486 M148.888,208.291
			c-1.454,0-2.211-1.267-2.211-2.655c0-1.391,0.757-2.593,2.211-2.593c1.455,0,2.214,1.202,2.214,2.593
			C151.102,207.024,150.343,208.291,148.888,208.291"/>
		<path fill="#A3A3A3" d="M153.062,203.17v3.604c0,0.694,0.379,1.074,1.137,1.074c0.76,0,0.948-0.189,0.948-0.696v-3.981h0.821
			v4.235c0.006,0.266-0.143,0.511-0.378,0.632c-0.454,0.211-0.955,0.298-1.454,0.254c-1.264,0-1.96-0.508-1.96-1.518v-3.604H153.062
			z"/>
		<path fill="#A3A3A3" d="M159.13,203.549c-0.634,0-0.886,0.253-0.886,0.632v3.225c0.263,0.227,0.602,0.341,0.948,0.315
			c0.886,0,1.453-0.885,1.453-2.149C160.583,204.118,159.889,203.549,159.13,203.549 M158.244,210.44h-0.821v-6.387
			c-0.022-0.285,0.127-0.559,0.381-0.694c0.401-0.232,0.862-0.341,1.326-0.316c1.516,0,2.276,0.948,2.276,2.401
			c0,1.455-0.761,2.782-2.214,2.782c-0.343,0.013-0.68-0.099-0.948-0.316V210.44L158.244,210.44z"/>
	</g>
	<path fill-rule="evenodd" clip-rule="evenodd" fill="#F18C00" d="M70.788,8.028h22.986c1.193,0,1.455,1.214,2.17,2.168
		l54.184,72.431l-54.184,71.996c-0.717,0.953-0.977,2.169-2.17,2.169H70.788c-1.192,0-2.859-1.197-2.168-2.169l51.041-71.671
		L68.62,10.196C67.935,9.22,69.596,8.028,70.788,8.028z"/>
</g>

</svg>
