<?xml version="1.0" encoding="utf-8"?>
<!DOCTYPE svg PUBLIC "-//W3C//DTD SVG 1.1//EN" "http://www.w3.org/Graphics/SVG/1.1/DTD/svg11.dtd">
<svg version="1.1" id="Layer_1" xmlns="http://www.w3.org/2000/svg" xmlns:xlink="http://www.w3.org/1999/xlink" x="0px" y="0px" width="216px" height="216px" viewBox="0 0 216 216" enable-background="new 0 0 216 216" xml:space="preserve">
<path fill="#FFFFFF" d="M0.122,0.122h216v216h-216V0.122z"/>
<path d="M19.55,165.326c0.697-1.279,1.509-2.438,2.322-3.599l-2.207,0.349c-2.786,4.41-7.313,9.055-12.886,9.055
	c-1.973,0-3.25-0.931-3.25-2.207c0-0.813,0.581-1.511,1.276-1.511c0.697,0,1.277,0.35,1.277,1.162s-0.581,1.16-1.044,1.16
	c-0.233,0-0.465,0-0.465,0.232c0,0.58,1.277,0.814,2.205,0.814c4.992,0,8.242-5.341,10.681-8.474c-2.67,0.58-4.992,1.74-6.617,3.249
	l-0.232-0.116c1.161-1.395,4.644-3.25,7.081-3.481c1.973-2.902,6.269-7.895,9.751-10.102v-0.116
	c-1.509,0.928-2.67,1.511-4.062,1.511c-2.322,0-3.134-2.322-6.037-2.322c-2.901,0-6.152,2.671-6.152,5.573
	c0,1.74,1.393,2.554,2.554,2.554c2.438,0,5.805-2.786,6.385-4.992h0.233c-0.581,2.67-3.25,5.341-6.269,5.341
	c-1.973,0-3.25-1.047-3.25-3.135c0-3.134,4.76-6.384,7.661-6.384c2.554,0,4.062,2.552,6.384,2.552c1.509,0,3.019-1.16,4.295-2.088
	l0.117,0.349c-4.062,2.902-6.732,6.964-9.403,11.028l2.205-0.35c1.161-1.623,2.669-3.366,3.366-3.945l0.117,0.116
	c-1.044,0.931-2.089,2.438-2.902,3.83l2.206-0.348c1.741-2.32,9.055-10.795,12.073-10.795c0.58,0,0.929,0.349,0.929,0.813
	c0,3.598-7.43,9.402-11.028,9.982c-1.277,1.742-4.644,5.92-4.644,8.126c0,1.162,1.044,1.626,1.973,1.626
	c4.295,0,8.591-5.224,8.591-7.313c0-0.929-0.464-1.509-1.278-1.509c-1.856,0-4.062,2.204-5.107,3.481h-0.349
	c1.277-1.511,3.366-3.83,5.456-3.83c1.161,0,1.625,0.813,1.625,1.973c0,3.481-5.456,7.546-8.59,7.546
	c-2.206,0-3.018-1.162-3.018-3.018c0-2.207,1.973-4.992,3.134-6.735l-2.09,0.35c-0.696,0.928-1.509,2.204-2.09,3.599L19.55,165.326
	L19.55,165.326L19.55,165.326z M36.962,150.583c-1.973,0-8.822,8.823-9.868,10.099c3.831-0.812,10.447-6.964,10.447-9.75
	C37.543,150.699,37.311,150.583,36.962,150.583L36.962,150.583z M45.437,165.79c-0.465,0.349-1.393,0.928-2.206,0.928
	c-0.696,0-1.161-0.232-1.509-0.581c-2.786,3.482-5.108,4.992-7.43,4.992c-0.813,0-1.741-0.695-1.741-1.742
	c0-2.786,5.339-7.895,8.474-7.895c0.581,0,1.044,0.234,1.161,0.698c0.117-0.116,0.233-0.116,0.35-0.116
	c0.464,0,0.581,0.348,0.581,0.813c0,1.044-0.697,2.438-1.277,3.018c0.465,0.349,0.929,0.464,1.393,0.464s1.393-0.349,2.09-0.928
	L45.437,165.79L45.437,165.79z M41.838,162.424c0-0.232-0.232-0.581-0.697-0.581c-1.276,0-3.598,2.786-6.732,6.384
	c-0.696,0.813-0.813,1.276-0.813,1.741c0,0.35,0.233,0.814,1.044,0.814c1.975,0,4.76-2.207,6.733-4.877
	c-0.238-0.467-0.357-0.984-0.348-1.509C41.026,163.583,41.374,162.771,41.838,162.424L41.838,162.424z"/>
<path d="M54.26,156.04h1.857l-3.715,3.945h1.858l-0.233,0.349H52.17l-7.197,7.777c-1.276,1.392-1.857,1.973-1.857,2.322
	c0,0.231,0.349,0.349,0.697,0.349c0.813,0,2.554-0.814,7.313-4.992l0.232,0.231c-4.062,3.599-6.385,5.109-7.661,5.109
	c-0.697,0-1.046-0.464-1.046-1.162c0-0.813,0.465-1.856,2.09-3.714l5.456-5.92H48.34l0.232-0.349h1.973L54.26,156.04L54.26,156.04z"
	/>
<path d="M60.295,166.254c-2.669,2.321-6.153,4.877-9.288,4.877c-0.928,0-1.857-0.349-1.857-1.395c0-3.134,5.688-8.008,8.823-8.008
	c0.697,0,1.277,0.581,1.277,1.276c0,2.671-5.109,4.179-7.198,4.179c-1.741,1.858-1.973,2.554-1.973,2.902
	c0,0.583,0.581,0.698,1.161,0.698c2.554,0,5.571-2.09,9.054-4.877V166.254L60.295,166.254z M57.974,162.075
	c-1.161,0-2.67,1.392-5.688,4.758c3.135,0,6.269-2.67,6.269-4.179C58.554,162.307,58.322,162.075,57.974,162.075z"/>
<path d="M68.19,166.601c-4.412,3.946-6.617,4.528-7.894,4.528c-1.161,0-1.625-0.695-1.625-1.742
	c0-3.481,14.625-19.036,17.645-19.036c0.581,0,1.045,0.349,1.045,1.044c0,3.366-8.474,8.822-12.886,11.725
	c0,0-5.107,6.269-5.107,6.965c0,0.464,0.349,0.698,0.696,0.698c1.626,0,3.832-0.931,7.198-3.833L68.19,166.601z M76.432,150.699
	c-1.161,0-5.224,3.83-11.376,11.607h0.117c5.571-3.947,11.84-8.01,11.84-10.912C77.012,150.931,76.779,150.699,76.432,150.699
	L76.432,150.699z M96.049,162.075c-1.858,1.74-4.527,4.758-6.617,6.964c-0.464,0.581-0.697,0.929-0.697,1.16
	c0,0.466,0.349,0.583,0.697,0.583c1.742,0,6.152-3.484,7.545-4.992l0.349,0.231c-1.509,1.511-5.804,5.109-8.009,5.109
	c-0.813,0-1.277-0.583-1.277-1.162c0-0.464,0.116-0.813,0.348-1.16h-0.116c-1.625,1.511-3.134,2.322-4.295,2.322
	c-1.161,0-1.858-0.696-1.858-1.858c0-3.598,6.385-7.544,8.707-7.544c0.929,0,1.741,0.464,1.741,1.16c0,0.231,0,0.349-0.116,0.695
	h0.116l1.51-1.508L96.049,162.075L96.049,162.075L96.049,162.075z M91.174,162.075c-1.277,0-2.322,0.58-7.198,5.688
	c-1.161,1.276-1.161,1.856-1.161,2.205c0,0.466,0.349,0.814,1.161,0.814c2.669,0,8.242-6.152,8.242-7.663
	C92.219,162.424,91.638,162.075,91.174,162.075L91.174,162.075z"/>
<path d="M100.577,162.075h1.741l-2.554,2.67l0.117,0.117c1.393-1.279,3.598-3.019,4.875-3.019c1.044,0,1.742,0.696,1.742,1.74
	c0,2.322-4.876,5.805-4.876,6.851c0,0.232,0.117,0.349,0.465,0.349c0.929,0,2.786-1.395,6.849-4.992v0.349
	c-3.134,2.902-5.689,4.992-6.849,4.992c-0.697,0-1.161-0.349-1.161-1.279c0-2.204,4.875-5.688,4.875-6.848
	c0-0.464-0.348-0.813-0.929-0.813c-1.74,0-6.384,3.946-10.331,8.475h-1.974L100.577,162.075L100.577,162.075z"/>
<path d="M126.928,153.484h2.09l-14.627,15.207c-0.93,0.928-1.162,1.392-1.162,1.626c0,0.348,0.232,0.464,0.814,0.464
	c1.624,0,3.714-1.395,7.66-4.992l0.117,0.231c-4.179,3.83-5.92,5.108-8.008,5.108c-0.466,0-1.278-0.231-1.278-1.046
	c0-0.464,0-0.813,0.231-1.16c-1.276,1.276-2.785,2.206-4.062,2.206c-1.393,0-1.741-0.93-1.741-1.857
	c0-3.135,5.339-7.429,8.474-7.429c1.044,0,1.857,0.349,1.857,1.16c0,0.349-0.116,0.58-0.231,0.928L126.928,153.484L126.928,153.484z
	 M115.898,162.191c-1.392,0-5.688,3.599-7.313,5.805c-0.813,1.16-0.929,1.509-0.929,1.855c0,0.583,0.465,0.931,1.161,0.931
	c2.323,0,8.126-6.269,8.126-7.663C116.945,162.539,116.479,162.191,115.898,162.191z M143.993,152.905
	c0,3.945-3.832,8.588-7.778,8.588c-1.626,0-2.554-1.159-2.554-2.668c0-4.413,7.431-8.938,14.278-8.938
	c1.858,0,3.599,0.349,4.526,0.813c0.625-0.317,1.289-0.551,1.975-0.696l0.116,0.232c-0.58,0.231-1.159,0.464-1.623,0.58
	c1.508,0.813,2.668,2.09,2.668,3.83c0,3.018-3.599,4.877-6.15,5.341c0.232,0.464,0.349,0.813,0.349,1.278
	c0,1.973-4.413,5.106-4.413,7.776c0,1.278,1.16,1.742,2.207,1.742c2.554,0,7.196-4.297,7.196-6.851c0-0.813-0.696-1.392-1.508-1.392
	c-1.162,0-2.555,1.392-3.25,2.207l-0.349-0.117c0.813-0.93,2.204-2.438,3.599-2.438c0.928,0,1.855,0.581,1.855,1.856
	c0,3.018-4.063,7.082-7.544,7.082c-1.858,0-3.25-1.279-3.25-3.25c0-3.018,4.526-5.688,4.526-7.895
	c-0.526,0.16-1.074,0.238-1.624,0.231c-1.047,0-1.857-0.695-1.857-1.508h-0.117c-3.481,4.874-7.895,12.421-14.858,12.421
	c-2.09,0-3.482-0.931-3.482-2.322c0-0.928,0.813-1.511,1.393-1.511c0.814,0,1.394,0.583,1.394,1.395
	c0,1.044-1.511,0.928-1.511,1.159c0,0.467,1.047,0.931,2.322,0.931c7.546,0,13.235-16.949,21.475-19.852
	c-1.159-0.58-3.018-0.695-3.83-0.695c-7.895,0-14.163,5.106-14.163,8.358c0,1.392,0.698,2.551,2.207,2.551
	c2.67,0,7.428-4.643,7.428-8.24L143.993,152.905L143.993,152.905L143.993,152.905z M152.465,151.047
	c-1.855,1.16-3.83,2.786-6.965,7.197l0.117,0.116c0.231-0.232,0.695-0.232,1.162-0.232c0.695,0,1.972,0.35,2.551,1.511
	c2.322-0.58,4.877-3.134,4.877-5.456C154.207,152.557,153.395,151.627,152.465,151.047L152.465,151.047z M148.866,159.753
	c-0.231-0.928-1.276-1.276-2.204-1.276c-0.582,0-0.93,0.117-0.93,0.464c0,0.348,0.58,0.928,1.626,0.928
	C147.938,159.87,148.52,159.87,148.866,159.753z M166.396,166.254c-2.671,2.321-6.616,4.877-9.636,4.877
	c-0.928,0-1.857-0.349-1.857-1.395c0-3.134,5.688-8.008,8.822-8.008c0.703,0.006,1.271,0.573,1.278,1.276
	c0,2.671-5.108,4.179-7.198,4.179c-1.74,1.858-1.973,2.554-1.973,2.902c0,0.583,0.581,0.698,1.16,0.698
	c2.554,0,6.036-2.09,9.403-4.877V166.254L166.396,166.254z M163.726,162.075c-1.16,0-2.67,1.392-5.688,4.758
	c3.135,0,6.269-2.67,6.269-4.179C164.306,162.307,164.074,162.075,163.726,162.075L163.726,162.075z M186.362,165.79
	c-0.58,0.349-1.394,0.928-2.321,0.928c-0.696,0-1.045-0.232-1.511-0.581c-2.783,3.482-5.106,4.992-7.312,4.992
	c-0.928,0-1.858-0.695-1.858-1.742c0-2.786,5.456-7.895,8.474-7.895c0.583,0,1.047,0.234,1.279,0.698
	c0.116-0.116,0.231-0.116,0.349-0.116c0.348,0,0.58,0.348,0.58,0.813c0,1.044-0.813,2.438-1.276,3.018
	c0.349,0.349,0.813,0.464,1.276,0.464c0.58,0,1.511-0.349,2.09-0.928L186.362,165.79z M182.765,162.424
	c-0.117-0.232-0.349-0.581-0.698-0.581c-1.276,0-3.599,2.786-6.732,6.384c-0.696,0.813-0.928,1.276-0.928,1.741
	c0,0.35,0.349,0.814,1.159,0.814c1.975,0,4.761-2.207,6.735-4.877c-0.239-0.467-0.359-0.984-0.35-1.509
	C181.951,163.583,182.301,162.771,182.765,162.424z"/>
<path d="M189.265,162.075h1.973l-3.714,4.062c0.928-0.695,2.09-1.159,3.599-1.623c0.234-1.279,1.742-2.671,2.438-2.671
	c0.464,0,0.698,0.117,0.698,0.581c0,1.044-1.858,2.09-2.786,2.321c0,0.813,0.349,1.509,1.044,1.509c0.581,0,4.992-2.09,5.225-2.322
	l0.116,0.232c-0.231,0.234-4.877,2.438-5.341,2.438c-0.813,0-1.394-0.696-1.394-1.74c-2.437,0.58-4.179,1.855-5.805,3.713
	l-1.74,2.09h-1.858L189.265,162.075L189.265,162.075z"/>
<path d="M203.66,156.04h1.972l-3.713,3.945h1.742l-0.231,0.349h-1.858l-7.198,7.777c-1.16,1.392-1.74,1.973-1.74,2.322
	c0,0.231,0.348,0.349,0.58,0.349c0.928,0,3.945-0.583,8.707-4.761l-0.117,0.232c-3.713,3.714-7.312,4.877-8.706,4.877
	c-0.696,0-1.045-0.464-1.045-1.162c0-0.813,0.581-1.856,2.207-3.714l5.453-5.92h-1.972l0.349-0.349h1.855L203.66,156.04z
	 M6.897,115.409H3.298v-0.928h19.967l0.233,7.312h-0.929c-0.58-2.321-1.044-4.874-3.481-5.92c-0.813-0.349-2.207-0.464-3.715-0.464
	h-3.831v10.331c3.366,0,5.223-0.581,5.456-4.411h0.929v10.099h-0.929c-0.349-4.062-1.625-4.874-5.456-4.758v10.91h3.481v0.93H3.298
	v-0.93h3.599V115.409z M23.961,129.107c0-4.413,3.832-8.822,8.358-8.822c4.411,0,8.357,4.41,8.357,8.822
	c0,4.874-3.018,9.867-8.357,9.867C26.979,138.975,23.961,133.981,23.961,129.107L23.961,129.107z M36.73,126.321
	c0-1.046-0.115-1.857-0.465-2.67c-0.464-1.626-1.625-2.786-3.946-2.786c-2.438,0-3.599,1.16-4.063,2.786
	c-0.232,0.813-0.349,1.624-0.349,2.67v5.805c0,1.045,0,2.088,0.232,3.018c0.581,1.856,1.625,3.135,4.179,3.135
	s3.598-1.278,4.062-3.135c0.233-0.93,0.349-1.974,0.349-3.018L36.73,126.321L36.73,126.321z M61.34,120.634v0.695H58.67v11.261
	c0,2.671-0.581,3.946-1.625,4.99c-1.161,0.93-2.786,1.395-5.225,1.395c-1.856,0-3.598-0.581-4.759-1.509
	c-1.161-0.814-1.625-2.554-1.625-5.572v-10.565h-2.67v-0.696h8.707v0.696h-2.669v9.75c0,3.716-0.348,6.967,4.527,6.967
	c3.134,0,4.412-1.975,4.412-4.877v-11.84h-2.556v-0.696h6.152V120.634L61.34,120.634z M69.35,137.814h2.67v0.695h-8.707v-0.695
	h2.669v-16.485h-2.669v-0.695h8.939c2.902,0,6.385,0.348,6.385,4.062c0,3.018-3.134,4.064-5.688,4.413
	c4.179,0.696,5.107,2.902,5.107,7.312c0,0.928,0.117,1.975,2.669,1.511v0.581c-0.713,0.229-1.457,0.346-2.206,0.348
	c-2.786,0-4.179-1.392-4.179-4.062c0-2.207-0.348-3.948-1.045-4.528c-0.813-0.581-1.625-0.928-2.437-0.928h-1.51V137.814
	L69.35,137.814z M69.35,128.642h2.206c2.437,0,3.366-1.16,3.366-3.599c0-2.902-0.813-3.714-3.251-3.714h-2.322L69.35,128.642
	L69.35,128.642z M91.987,138.742h-0.582v-7.196h1.045c0.697,3.481,2.786,6.616,6.617,6.616c2.786,0,5.339-2.09,5.339-4.992
	c0-3.366-3.018-4.063-5.688-4.992c-0.697-0.232-1.394-0.465-2.205-0.696c-3.25-1.045-4.993-3.481-4.993-6.965
	c0-3.713,2.786-6.5,6.617-6.5c2.089,0,3.598,0.464,5.224,1.74l1.393-1.392h0.581v6.732h-1.161c-0.349-3.366-2.554-6.269-6.152-6.269
	c-2.322,0-4.528,1.74-4.528,4.179c0,2.785,1.973,3.018,4.179,3.598c0.929,0.234,1.626,0.583,2.205,0.698
	c0.697,0.232,1.625,0.464,2.438,0.813c3.018,1.508,4.062,3.83,4.062,7.08c0,4.528-2.902,7.895-7.546,7.895
	c-1.741,0-3.946-0.696-5.107-1.858L91.987,138.742L91.987,138.742z M115.898,121.329v7.663c2.555,0,3.946-0.35,4.064-3.252h0.696
	v7.431h-0.696c-0.233-2.902-1.162-3.599-4.064-3.482v8.127h3.714c3.484,0,4.297-1.975,4.877-4.992h0.696l-0.232,5.688h-15.206
	v-0.696h2.67V121.33h-2.67v-0.695h14.858l0.117,4.874h-0.696c-0.58-2.554-1.626-3.598-3.018-3.945
	c-0.696-0.231-1.394-0.231-2.322-0.231h-2.788V121.329L115.898,121.329z M127.16,138.51v-0.695h2.206l6.384-17.529h0.928
	l6.037,17.529h2.206v0.695h-8.474v-0.695h2.786l-1.626-4.645h-5.805l-1.624,4.645h2.67v0.695H127.16L127.16,138.51z
	 M132.036,132.474h5.223l-2.437-7.546L132.036,132.474z M147.707,138.742h-0.464v-5.341h0.695c0.581,2.554,2.09,4.877,4.992,4.877
	c2.088,0,3.946-1.626,3.946-3.716c0-2.552-2.207-3.016-4.179-3.714c-0.583-0.231-1.162-0.349-1.626-0.58
	c-2.554-0.696-3.714-2.554-3.714-5.109c0-2.785,2.09-4.874,4.874-4.874c1.511,0,2.671,0.349,3.833,1.276l1.044-1.045h0.464v5.106
	h-0.813c-0.348-2.551-1.974-4.758-4.645-4.758c-1.74,0-3.366,1.276-3.366,3.135c0,1.975,1.511,2.206,3.135,2.67
	c0.697,0.232,1.162,0.349,1.626,0.58c0.58,0.117,1.276,0.349,1.855,0.581c2.206,1.047,3.018,2.786,3.018,5.224
	c0,3.366-2.204,5.921-5.686,5.921c-1.279,0-2.902-0.581-3.833-1.395L147.707,138.742z M161.985,129.107
	c0-4.413,3.83-8.822,8.356-8.822c4.413,0,8.241,4.41,8.241,8.822c0,4.874-3.018,9.867-8.241,9.867
	C165.004,138.975,161.985,133.981,161.985,129.107z M174.638,126.321c0-1.046-0.116-1.857-0.349-2.67
	c-0.58-1.626-1.626-2.786-3.947-2.786c-2.437,0-3.599,1.16-4.063,2.786c-0.231,0.813-0.349,1.624-0.349,2.67v5.805
	c0,1.045,0,2.088,0.232,3.018c0.464,1.856,1.626,3.135,4.179,3.135c2.554,0,3.601-1.278,4.064-3.135
	c0.231-0.93,0.231-1.974,0.231-3.018V126.321z M196.345,138.858h-0.812l-11.261-16.948v15.904h2.554v0.695h-6.035v-0.695h2.554
	v-16.485h-2.554v-0.695h6.848l7.895,11.725v-11.029h-2.554v-0.695h6.036v0.695h-2.671V138.858L196.345,138.858z M202.266,138.742
	h-0.464v-5.341h0.813c0.581,2.554,2.09,4.877,4.877,4.877c2.09,0,4.063-1.626,4.063-3.716c0-2.552-2.32-3.016-4.294-3.714
	c-0.464-0.231-1.045-0.349-1.626-0.58c-2.438-0.696-3.714-2.554-3.714-5.109c0-2.785,2.09-4.874,4.877-4.874
	c1.623,0,2.67,0.349,3.945,1.276l1.044-1.045h0.464v5.106h-0.928c-0.231-2.551-1.855-4.758-4.525-4.758
	c-1.743,0-3.366,1.276-3.366,3.135c0,1.975,1.392,2.206,3.018,2.67c0.695,0.232,1.276,0.349,1.74,0.58
	c0.592,0.159,1.174,0.354,1.742,0.581c2.206,1.047,3.018,2.786,3.018,5.224c0,3.366-2.206,5.921-5.572,5.921
	c-1.276,0-2.902-0.581-3.83-1.395L202.266,138.742L202.266,138.742z M125.534,81.513c0.466,0,0.814-0.465,0.814-0.813
	c0-0.464-0.349-0.929-0.814-0.929c-0.465,0-0.813,0.465-0.813,0.929C124.722,81.047,125.069,81.513,125.534,81.513z"/>
<path d="M124.489,79.656l0.696,0.232l0.349-0.697l0.231,0.697l0.814-0.232l-0.349,0.696l0.696,0.349l-0.696,0.232l0.349,0.813
	l-0.814-0.348l-0.231,0.696l-0.349-0.696l-0.696,0.348l0.232-0.813l-0.696-0.232l0.696-0.349L124.489,79.656z M104.641,44.598
	c1.276,0.117,2.322,0.697,2.437,2.322C105.568,46.804,104.871,45.875,104.641,44.598z M104.641,42.16
	c1.276,0.117,2.322,0.697,2.554,2.207C105.568,44.366,104.871,43.437,104.641,42.16z M104.756,39.606
	c1.276,0.117,2.205,0.697,2.437,2.322C105.685,41.813,104.988,40.883,104.756,39.606z M104.756,37.168
	c1.276,0.117,2.322,0.696,2.437,2.206C105.685,39.374,104.988,38.446,104.756,37.168z M104.756,34.615
	c1.276,0.117,2.322,0.813,2.554,2.322C105.685,36.82,104.988,35.891,104.756,34.615z M104.871,32.176
	c1.278,0.117,2.207,0.697,2.438,2.206C105.8,34.383,105.104,33.454,104.871,32.176z"/>
<path d="M104.059,101.363h6.851v-0.232l-2.207-1.046l-1.161-67.909c0-0.116,0-0.116-0.117-0.116v0.116l-1.161,67.909l-2.206,1.046
	V101.363z M123.329,53.884c-0.231,1.393-0.93,2.322-2.438,2.322C121.008,54.698,122.052,54.001,123.329,53.884z M123.446,56.207
	c-0.232,1.277-0.931,2.205-2.438,2.205C121.123,56.902,122.168,56.323,123.446,56.207z M115.552,53.769
	c-1.509,0-2.207-0.929-2.438-2.205C114.392,51.679,115.435,52.26,115.552,53.769z"/>
<path d="M111.373,61.082c-1.626,0-2.322-0.929-2.555-2.206C110.211,58.992,111.141,59.573,111.373,61.082z M127.972,68.046
	c-1.276,0.117-2.319,0.697-2.554,2.206C127.044,70.252,127.74,69.324,127.972,68.046z M125.885,76.985
	c1.392,0.117,2.436,0.696,2.552,2.206C126.813,79.191,126.116,78.262,125.885,76.985z M128.668,73.734
	c-1.392-0.116-2.437-0.697-2.437-2.322C127.855,71.529,128.552,72.458,128.668,73.734z M86.763,81.397
	c-0.232-0.233-0.232-0.465-0.232-0.465l-0.464-13.233c0-0.233-0.117-0.349-0.117-0.349c-0.115,0-0.115,0.117-0.115,0.349
	l-0.582,14.045c0,0,0,0.349,0.233,0.464l21.94,12.886V91.96L86.763,81.397L86.763,81.397z"/>
<path d="M128.088,81.397c0.349-0.233,0.349-0.465,0.349-0.465l0.466-13.233c0-0.233,0-0.349,0.116-0.349
	c0,0,0.117,0.117,0.117,0.349l0.464,14.046c0,0,0.116,0.349-0.117,0.464l-22.058,12.885V91.96L128.088,81.397z M90.594,71.878
	c-0.233-0.117-0.233-0.232-0.233-0.232l-0.349-11.145c0-0.115,0-0.232-0.117-0.232c0,0-0.116,0.117-0.116,0.232l-0.346,11.725
	c0,0-0.117,0.232,0.116,0.349l17.877,10.563v-2.554L90.594,71.878L90.594,71.878z"/>
<path d="M124.258,71.878c0.231-0.117,0.231-0.232,0.231-0.232l0.464-11.145V60.27c0.116,0,0.116,0.117,0.116,0.232l0.465,11.725
	c0,0,0,0.232-0.117,0.349l-17.992,10.563v-2.554L124.258,71.878L124.258,71.878z M94.772,62.475
	c-0.232-0.117-0.232-0.232-0.232-0.232l-0.232-8.359l-0.117-0.116l-0.116,0.116l-0.232,9.055c0,0,0,0.232,0.116,0.349l13.466,8.01
	v-2.207L94.772,62.475L94.772,62.475z M120.195,62.475c0.116-0.117,0.116-0.232,0.116-0.232l0.349-8.359v-0.116
	c0.117,0,0.117,0.116,0.117,0.116l0.348,9.055c0,0,0,0.232-0.116,0.349l-13.583,8.01v-2.207L120.195,62.475L120.195,62.475z
	 M98.603,53.42c-0.116,0-0.116-0.116-0.116-0.116l-0.232-5.92c0-0.116-0.117-0.116-0.117-0.116v0.116l-0.349,6.384
	c0,0,0,0.232,0.117,0.232l9.518,5.688v-1.625L98.603,53.42L98.603,53.42z M101.737,45.875v-0.115l-0.232-3.715
	c0-0.117,0-0.117-0.116-0.117v0.117l-0.232,4.179c0,0,0,0.116,0.117,0.116l6.152,3.599v-1.044L101.737,45.875L101.737,45.875z
	 M113.113,45.875c0.116,0,0.116-0.115,0.116-0.115l0.232-3.715v-0.117v0.117l0.234,4.179v0.116l-6.27,3.599v-1.044L113.113,45.875
	L113.113,45.875z M116.363,53.42c0.116,0,0.116-0.116,0.116-0.116l0.231-5.92v-0.116c0.118,0,0.118,0,0.118,0.116l0.231,6.384
	c0,0,0,0.232-0.116,0.232l-9.521,5.688v-1.625L116.363,53.42L116.363,53.42z"/>
<path d="M113.577,44.134c1.626,0,2.321-0.929,2.554-2.207C114.855,41.928,113.812,42.625,113.577,44.134z M113.462,41.928
	c1.626,0,2.321-0.929,2.554-2.205C114.739,39.839,113.696,40.418,113.462,41.928z M113.345,43.205c-1.508,0-2.204-1.045-2.436-2.322
	C112.186,41,113.229,41.696,113.345,43.205z M113.229,45.411c-1.508-0.117-2.204-1.044-2.438-2.322
	C112.068,43.205,113.113,43.785,113.229,45.411z M119.382,47.384c-0.232,1.393-0.928,2.321-2.437,2.321
	C117.061,48.196,118.105,47.5,119.382,47.384z M119.266,45.062c-1.276,0.117-2.32,0.813-2.437,2.322
	C118.337,47.384,119.033,46.455,119.266,45.062z M91.638,51.679c1.276,0.115,2.322,0.696,2.554,2.321
	C92.567,53.884,91.87,52.956,91.638,51.679z M91.638,53.884c0.232,1.393,0.929,2.322,2.438,2.322
	C93.96,54.698,92.915,54.001,91.638,53.884z M91.521,56.207c0.233,1.277,0.929,2.205,2.438,2.205
	C93.844,56.902,92.799,56.323,91.521,56.207z M91.405,58.412c0.233,1.393,0.929,2.322,2.554,2.322
	C93.728,59.225,92.799,58.528,91.405,58.412z M93.844,62.939c-1.51,0-2.206-0.928-2.438-2.206
	C92.683,60.85,93.728,61.431,93.844,62.939z M97.907,53.769c-1.626,0-2.322-0.929-2.554-2.205
	C96.746,51.679,97.675,52.26,97.907,53.769z M96.978,57.833c-1.278,0.116-2.322,0.812-2.438,2.322
	C96.049,60.153,96.746,59.225,96.978,57.833z M94.656,62.359c1.51-0.116,2.206-1.045,2.438-2.322
	C95.817,60.153,94.772,60.733,94.656,62.359z M98.834,61.082c-0.232,1.277-0.928,2.206-2.437,2.206
	C96.514,61.778,97.558,61.197,98.834,61.082z M100.692,62.011c-0.233,1.276-0.929,2.205-2.437,2.205
	C98.371,62.707,99.415,62.126,100.692,62.011z M102.55,62.939c-0.232,1.277-0.929,2.207-2.554,2.207
	C100.228,63.636,101.273,63.055,102.55,62.939z M104.407,63.868c-0.232,1.278-1.044,2.206-2.554,2.322
	C102.085,64.565,103.015,63.984,104.407,63.868z M103.71,67.119c1.509-0.117,2.205-1.045,2.437-2.322
	C104.871,64.912,103.827,65.493,103.71,67.119z M98.487,53.304c1.625,0,2.322-0.929,2.554-2.206
	C99.648,51.214,98.719,51.794,98.487,53.304z M102.783,52.028c-0.232,1.277-0.929,2.205-2.438,2.322
	C100.46,52.724,101.505,52.143,102.783,52.028z M104.641,52.956c-0.233,1.277-0.929,2.205-2.438,2.322
	C102.318,53.652,103.363,53.072,104.641,52.956z M106.497,53.884c-0.232,1.278-0.929,2.322-2.554,2.322
	C104.175,54.698,105.221,54.001,106.497,53.884z M95.121,63.984c-0.232,1.277-1.045,2.205-2.554,2.205
	C92.799,64.68,93.728,64.1,95.121,63.984z M94.309,67.234c0.232-1.509,1.161-2.205,2.554-2.322
	C96.63,66.306,95.817,67.234,94.309,67.234z M96.049,68.28c0.232-1.51,1.161-2.207,2.554-2.322
	C98.371,67.351,97.558,68.28,96.049,68.28z M97.79,69.324c0.233-1.625,1.161-2.206,2.554-2.322
	C100.112,68.28,99.3,69.208,97.79,69.324z M101.273,71.297c0.232-1.509,1.161-2.09,2.554-2.207
	C103.595,70.368,102.783,71.297,101.273,71.297z M99.068,54.698c-0.233,1.276-0.929,2.205-2.554,2.32
	C96.746,55.394,97.675,54.813,99.068,54.698z M98.255,57.948c0.232-1.509,1.277-2.09,2.554-2.206
	C100.577,57.019,99.88,57.948,98.255,57.948z M100.112,58.992c0.116-1.509,1.161-2.09,2.438-2.206
	C102.318,58.064,101.622,58.992,100.112,58.992z M101.854,60.037c0.117-1.509,1.161-2.089,2.437-2.206
	C104.059,59.109,103.363,60.037,101.854,60.037z M103.595,61.082c1.508,0,2.206-0.929,2.438-2.206
	C104.756,58.992,103.71,59.573,103.595,61.082z M102.318,46.92c-0.233,1.276-1.045,2.206-2.554,2.322
	C99.996,47.616,100.926,47.036,102.318,46.92z M101.622,50.17c0.117-1.51,1.161-2.09,2.438-2.206
	C103.827,49.241,103.131,50.17,101.622,50.17z M103.363,51.214c0.117-1.51,1.161-2.089,2.438-2.206
	C105.568,50.286,104.871,51.214,103.363,51.214z M101.158,46.223c-1.509,0-2.206-0.929-2.438-2.206
	C99.996,44.134,101.041,44.713,101.158,46.223z M101.273,44.134c-1.509,0-2.205-0.929-2.438-2.207
	C100.112,41.928,101.158,42.625,101.273,44.134z M101.39,41.928c-1.509,0-2.206-0.929-2.438-2.205
	C100.228,39.839,101.273,40.418,101.39,41.928z M101.505,43.089c1.626,0,2.322-0.929,2.554-2.322
	C102.783,40.883,101.737,41.581,101.505,43.089z M101.737,45.411c1.51-0.117,2.207-1.044,2.438-2.322
	C102.898,43.205,101.854,43.785,101.737,45.411z M95.468,49.357c0.232,1.277,0.929,2.205,2.438,2.322
	C97.79,50.054,96.746,49.474,95.468,49.357z M95.585,47.269c0.232,1.276,0.929,2.205,2.438,2.205
	C97.907,47.964,96.862,47.384,95.585,47.269z M95.585,45.062c1.393,0.117,2.322,0.813,2.554,2.322
	C96.514,47.384,95.817,46.455,95.585,45.062z M86.995,68.046c1.277,0.117,2.322,0.697,2.438,2.206
	C87.923,70.252,87.227,69.324,86.995,68.046z M87.227,61.314c1.277,0.117,2.322,0.813,2.437,2.322
	C88.155,63.636,87.459,62.707,87.227,61.314z M87.111,63.636c1.278,0.117,2.322,0.696,2.554,2.321
	C88.04,65.841,87.343,64.912,87.111,63.636z M114.739,70.252c0.438,0.01,0.802-0.336,0.813-0.774c0-0.013,0-0.026,0-0.039
	c0-0.465-0.349-0.813-0.813-0.813s-0.928,0.348-0.928,0.813C113.812,69.904,114.275,70.252,114.739,70.252z"/>
<path d="M113.696,68.395l0.695,0.232l0.348-0.696l0.231,0.696l0.813-0.232l-0.349,0.696l0.696,0.35l-0.696,0.231l0.349,0.813
	l-0.813-0.349l-0.231,0.697l-0.348-0.697l-0.695,0.349l0.229-0.813l-0.696-0.231l0.696-0.35L113.696,68.395z M111.953,76.637
	c0.464,0,0.813-0.465,0.813-0.929c0-0.465-0.349-0.813-0.813-0.813s-0.813,0.349-0.813,0.813
	C111.141,76.173,111.489,76.637,111.953,76.637z"/>
<path d="M110.909,74.664l0.813,0.349l0.231-0.697l0.348,0.697l0.697-0.349l-0.233,0.813l0.697,0.232l-0.697,0.348l0.233,0.697
	l-0.697-0.232l-0.348,0.696l-0.231-0.696l-0.813,0.232l0.349-0.697l-0.698-0.348l0.698-0.232L110.909,74.664z M117.293,83.371
	c0.464,0,0.813-0.464,0.813-0.929c0-0.465-0.349-0.812-0.813-0.812s-0.814,0.348-0.814,0.812S116.829,83.371,117.293,83.371z"/>
<path d="M116.247,81.397l0.698,0.348l0.348-0.697l0.349,0.697l0.695-0.348l-0.347,0.812l0.811,0.233l-0.811,0.348l0.347,0.697
	l-0.695-0.232l-0.349,0.697l-0.348-0.697l-0.698,0.232l0.232-0.697l-0.696-0.348l0.696-0.233L116.247,81.397z M119.033,91.961
	c0.464,0,0.813-0.465,0.813-0.929c0-0.349-0.349-0.813-0.813-0.813s-0.813,0.465-0.813,0.813
	C118.222,91.496,118.569,91.961,119.033,91.961z"/>
<path d="M117.99,89.986l0.695,0.349l0.348-0.697l0.349,0.697l0.698-0.349l-0.234,0.813l0.698,0.232l-0.698,0.349l0.234,0.697
	l-0.698-0.232l-0.349,0.696l-0.348-0.696l-0.695,0.232l0.231-0.697l-0.695-0.349l0.695-0.232L117.99,89.986z M116.829,91.844
	c0.231,1.278-0.118,2.438-1.511,3.019C114.855,93.354,115.552,92.425,116.829,91.844z M126.695,88.245
	c-1.394-0.117-2.438-0.813-2.438-2.322C125.885,85.923,126.58,86.968,126.695,88.245z M114.043,83.022
	c-1.394-0.117-2.438-0.697-2.554-2.207C113.113,80.815,113.812,81.745,114.043,83.022z M124.605,68.744
	c-1.508-0.117-2.206-1.044-2.438-2.322C123.446,66.538,124.489,67.119,124.605,68.744z M116.247,75.941
	c-1.508,0-2.321-0.929-2.551-2.205C115.088,73.851,116.016,74.432,116.247,75.941z M120.427,60.153
	c-1.626,0-2.321-0.929-2.554-2.322C119.266,57.948,120.195,58.645,120.427,60.153z M132.964,78.727
	c-1.392-0.117-2.438-0.697-2.554-2.322C132.036,76.521,132.732,77.449,132.964,78.727z M118.105,68.512
	c0.231,1.277-0.116,2.437-1.511,3.018C116.131,70.02,116.945,69.091,118.105,68.512z M119.963,76.985
	c0.232,1.276-0.117,2.438-1.51,3.018C117.99,78.495,118.801,77.566,119.963,76.985z M113.696,88.594
	c-1.511,0-2.207-0.929-2.438-2.322C112.532,86.388,113.577,87.084,113.696,88.594z M123.793,98.113c0-1.741,1.509-3.25,3.25-3.25
	s3.135,1.509,3.135,3.25s-1.392,3.25-3.135,3.25C125.301,101.363,123.793,99.854,123.793,98.113z M129.598,98.113
	c-0.013-1.405-1.148-2.541-2.554-2.554c-1.51,0-2.67,1.161-2.67,2.554c0,1.51,1.16,2.554,2.67,2.554
	C128.437,100.667,129.598,99.621,129.598,98.113z M128.668,99.854h-0.813l-0.813-1.51h-0.695v1.51h-0.696v-3.482h1.74
	c0.232,0,0.696,0,0.928,0.232c0.349,0.117,0.349,0.464,0.349,0.813c0,0.697-0.231,0.929-0.928,0.929L128.668,99.854z M127.392,97.88
	c0.349,0,0.696-0.117,0.696-0.464c0-0.465-0.581-0.465-0.813-0.465h-0.928v0.929H127.392z M210.508,166.485
	c-0.349,0.349-2.785,2.09-5.108,3.018c0.231-0.348,0.464-0.58,0.698-0.812c0.695-0.813,1.044-1.627,1.044-2.786
	c-0.116-1.276-1.162-2.09-1.857-3.135c0.464-0.464,1.394-1.394,1.394-2.206c-0.017-0.249-0.215-0.447-0.464-0.464
	c-1.047,0-1.511,1.162-1.511,1.975c0,0.231,0.232,0.695,0.232,0.695c-1.393,2.09-4.179,3.946-4.877,4.643
	c-0.232,0.234-1.045,1.162-1.045,2.09c-0.116,1.045,0.117,1.975,1.626,1.975c1.045,0,2.671-0.464,4.063-1.394
	c3.018-0.928,6.036-3.366,6.036-3.366L210.508,166.485L210.508,166.485z M200.292,171.129c-0.929,0-1.045-0.812-1.045-1.51
	c0.116-0.813,0.464-1.393,0.93-1.74c0.581-0.698,3.366-2.555,4.875-4.877c0,0,0.813,1.394,0.813,2.09
	C206.099,167.88,202.034,170.897,200.292,171.129z M175.219,166.369c-0.349,0.231-2.786,1.975-5.109,2.902
	c0.232-0.232,0.464-0.58,0.698-0.813c0.696-0.813,1.045-1.626,1.045-2.786c-0.117-1.276-1.16-2.09-1.858-3.018
	c0.466-0.58,1.395-1.511,1.395-2.206c0-0.232-0.232-0.581-0.465-0.581c-1.046,0-1.51,1.16-1.51,1.975
	c0,0.349,0.231,0.696,0.231,0.696c-1.392,2.09-4.179,4.062-4.874,4.643c-0.232,0.35-1.047,1.278-1.047,2.09
	c-0.117,1.047,0.116,1.975,1.626,1.975c1.044,0,2.67-0.464,4.062-1.395c3.019-0.928,6.037-3.366,6.037-3.366L175.219,166.369
	L175.219,166.369z M165.004,170.897c-0.93,0.116-1.046-0.698-1.046-1.511c0.116-0.695,0.466-1.276,0.93-1.74
	c0.58-0.698,3.366-2.554,4.875-4.877c0,0,0.812,1.392,0.812,2.09C170.808,167.647,166.743,170.782,165.004,170.897L165.004,170.897z
	 M77.476,166.369c-0.464,0.349-2.786,2.09-5.224,2.902c0.232-0.232,0.581-0.464,0.697-0.813c0.697-0.813,1.161-1.511,1.044-2.786
	c-0.116-1.276-1.161-2.09-1.857-3.018c0.465-0.464,1.393-1.392,1.393-2.206c-0.017-0.249-0.215-0.447-0.464-0.464
	c-0.929,0-1.393,1.159-1.393,1.975c0,0.231,0.116,0.695,0.116,0.695c-1.394,2.09-4.063,3.945-4.76,4.643
	c-0.348,0.234-1.045,1.162-1.161,2.09c-0.117,1.047,0.116,1.858,1.625,1.858c1.046,0,2.67-0.349,4.063-1.395
	c3.018-0.813,6.037-3.249,6.037-3.249L77.476,166.369L77.476,166.369z M67.145,170.897c-0.929,0.116-1.044-0.698-0.929-1.511
	c0-0.695,0.465-1.276,0.813-1.74c0.581-0.698,3.366-2.554,4.992-4.76c0,0,0.697,1.276,0.697,2.09
	C72.949,167.765,69.002,170.782,67.145,170.897z"/>
<g>

</svg>
