<?xml version="1.0" encoding="utf-8"?>
<!DOCTYPE svg PUBLIC "-//W3C//DTD SVG 1.1//EN" "http://www.w3.org/Graphics/SVG/1.1/DTD/svg11.dtd">
<svg version="1.1" id="Layer_1" xmlns="http://www.w3.org/2000/svg" xmlns:xlink="http://www.w3.org/1999/xlink" x="0px" y="0px" width="216px" height="216px" viewBox="0 0 216 216" enable-background="new 0 0 216 216" xml:space="preserve">
<rect x="1.148" y="0.87" fill-rule="evenodd" clip-rule="evenodd" fill="#181242" width="214" height="214"/>
<path fill-rule="evenodd" clip-rule="evenodd" fill="#C6985A" d="M108.8,28.266l31.817,41.203l31.818,41.202l-31.818,41.202
	L108.8,193.074l-31.819-41.202L45.163,110.67l31.818-41.202L108.8,28.266L108.8,28.266z M108.8,72.057L95.306,89.53h26.987
	L108.8,72.057L108.8,72.057z M108.8,123.397L95.306,140.87h26.987L108.8,123.397L108.8,123.397z M89.816,97.727L76.322,115.2h26.988
	L89.816,97.727L89.816,97.727z M128.43,97.727L114.936,115.2h26.988L128.43,97.727L128.43,97.727z M108.8,50.505L62.337,110.67
	l46.462,60.164l46.462-60.164L108.8,50.505z"/>
</svg>
