<?xml version="1.0" encoding="utf-8"?>
<!DOCTYPE svg PUBLIC "-//W3C//DTD SVG 1.1//EN" "http://www.w3.org/Graphics/SVG/1.1/DTD/svg11.dtd">
<svg version="1.1" id="Layer_1" xmlns="http://www.w3.org/2000/svg" xmlns:xlink="http://www.w3.org/1999/xlink" x="0px" y="0px" width="216px" height="216px" viewBox="0 0 216 216" enable-background="new 0 0 216 216" xml:space="preserve">
<g>
	<path fill="#DB933A" d="M5.394,170.495c-1.149,0.018-1.585,0.057-1.908,0.104s-0.532,0.104-0.702,0.163
		c-0.354,0.141-0.585,0.22-0.881,0.652c-0.24,0.438-0.241,0.742-0.229,1.185c0.01,0.2,0.04,0.432,0.097,0.722
		c0.058,0.289,0.144,0.636,0.289,1.088c0.171,0.526,0.362,1.045,0.571,1.558c1.329,2.825,3.007,5.488,4.945,7.82
		c1.938,2.332,4.136,4.333,6.5,6.163c2.365,1.83,4.898,3.489,7.621,4.997c2.722,1.507,5.635,2.864,8.75,4.095
		c3.203,1.263,6.473,2.347,9.794,3.25c10.722,2.834,21.707,4.563,37.947,5.448c16.239,0.885,37.734,0.925,55.531-0.092
		c17.796-1.015,31.894-3.085,45.724-6.372c4.172-1.1,8.258-2.537,11.841-4.133c3.582-1.598,6.664-3.354,9.412-5.302
		c2.749-1.946,5.168-4.085,7.356-6.682c2.189-2.596,4.146-5.649,5.696-8.894c0.657-1.492,1.234-3.041,0.138-4.479
		c-0.116-0.136-0.245-0.258-0.385-0.367c-0.177-0.137-0.367-0.255-0.567-0.354c-0.233-0.119-0.514-0.238-0.945-0.337
		c-0.432-0.1-1.013-0.177-1.596-0.206H10.261C8.402,170.485,6.542,170.479,5.394,170.495z M208.077,53.11
		c1.199-0.058,2.398-0.171,3.159-0.286c0.76-0.114,1.083-0.228,1.343-0.338c0.265-0.109,0.469-0.214,0.64-0.327
		c0.924-0.662,1.021-1.264,1.157-1.914c0.04-0.241,0.063-0.514,0.067-0.839c0-0.391-0.025-0.781-0.075-1.168
		c-0.057-0.468-0.15-1.027-0.313-1.732c-0.188-0.809-0.406-1.609-0.653-2.401c-0.522-1.676-1.264-3.279-2.492-5.245
		c-1.23-1.965-2.95-4.293-5.355-6.889c-2.406-2.594-5.497-5.455-8.847-8.068c-3.383-2.634-6.974-4.988-10.737-7.04
		c-6.672-3.557-13.748-6.32-23.011-8.762c-9.264-2.442-20.716-4.565-33.571-5.645c-12.854-1.08-27.112-1.119-40.113-0.088
		C76.275,3.4,64.534,5.5,55.007,7.946c-9.525,2.447-16.835,5.238-23.74,8.842c-3.515,1.823-6.938,3.826-9.944,5.797
		c-3.006,1.971-5.595,3.911-7.871,5.818c-2.275,1.907-4.237,3.78-5.977,6.041c-1.739,2.259-3.257,4.904-4.426,7.692
		c-0.354,0.79-0.664,1.6-0.929,2.424c-0.238,0.746-0.389,1.388-0.484,1.956c-0.086,0.496-0.131,0.998-0.135,1.501
		c-0.002,0.396,0.032,0.792,0.104,1.182c0.184,0.875,0.472,1.629,1.351,2.43c0.24,0.211,0.517,0.407,0.843,0.587
		c0.326,0.18,0.703,0.345,1.154,0.488c0.45,0.144,0.974,0.267,1.613,0.353c0.639,0.085,1.393,0.131,2.145,0.131L208.077,53.11
		L208.077,53.11z"/>
	<path fill="#CA3132" d="M71.468,97.233c2.657-2.325,3.298-4.65,3.341-7.034l0.018-23.602c-0.016-0.947-0.249-1.899-1.295-2.847
		c-0.203-0.177-0.421-0.337-0.652-0.477c-0.269-0.165-0.552-0.306-0.844-0.423c-1.058-0.426-2.261-0.596-3.487-0.508
		c-0.402,0.03-0.801,0.09-1.194,0.179c-0.376,0.086-0.724,0.197-1.04,0.324c-0.315,0.126-0.598,0.27-0.847,0.422
		c-0.25,0.151-0.465,0.312-0.655,0.477c-1.041,0.937-1.288,1.878-1.307,2.847l0.042,22.001c-0.036,0.84-0.153,1.712-1.352,2.584
		c-1.326,0.807-2.934,1.03-4.683-0.01c-1.149-0.835-1.32-1.696-1.352-2.594l-0.022-21.885c-0.018-0.966-0.256-1.934-1.325-2.899
		c-0.208-0.18-0.43-0.342-0.664-0.485c-0.275-0.166-0.562-0.31-0.859-0.429c-1.071-0.43-2.292-0.602-3.533-0.51
		c-0.405,0.03-0.808,0.092-1.204,0.183c-0.378,0.088-0.728,0.2-1.043,0.329c-0.294,0.119-0.578,0.262-0.849,0.428
		c-0.232,0.142-0.451,0.303-0.655,0.483c-1.042,0.951-1.283,1.904-1.293,2.888l-0.029,23.519c0,0.518,0.043,1.036,0.129,1.546
		c0.329,1.842,1.108,3.679,3.218,5.505c0.538,0.454,1.113,0.861,1.719,1.219c0.716,0.421,1.466,0.785,2.241,1.086
		c0.905,0.351,1.835,0.633,2.782,0.843c2.022,0.458,4.394,0.642,6.658,0.474c1.093-0.078,2.179-0.236,3.249-0.473
		c0.954-0.211,1.891-0.494,2.801-0.847c0.781-0.302,1.536-0.667,2.258-1.092C70.349,98.098,70.927,97.688,71.468,97.233
		L71.468,97.233z M83.879,109.171c-0.309-0.27-0.64-0.512-0.99-0.724c-0.377-0.231-0.804-0.449-1.281-0.642
		c-0.478-0.193-1.005-0.361-1.574-0.493c-1.135-0.265-2.454-0.369-3.715-0.272c-0.609,0.045-1.214,0.136-1.81,0.272
		c-0.569,0.132-1.096,0.3-1.574,0.493c-0.444,0.178-0.873,0.393-1.282,0.642c-0.377,0.229-0.704,0.473-0.99,0.724
		c-1.574,1.424-1.946,2.854-1.972,4.325v44.505c0,0.326,0.024,0.654,0.074,0.97c0.197,1.144,0.641,2.263,1.91,3.404
		c0.287,0.252,0.614,0.497,0.991,0.728c0.409,0.25,0.838,0.466,1.282,0.646c1.601,0.646,3.42,0.903,5.272,0.768
		c0.627-0.047,1.236-0.142,1.804-0.273c0.567-0.131,1.093-0.301,1.571-0.494c0.477-0.194,0.904-0.413,1.282-0.646
		c0.377-0.23,0.705-0.476,0.991-0.728c1.583-1.438,1.957-2.884,1.983-4.374v-44.505C85.826,112.057,85.472,110.61,83.879,109.171
		L83.879,109.171z M60.917,151.433l-14.789-16.18l14.923-16.126c2.083-2.836,2.411-5.668,0.309-8.589
		c-0.381-0.497-0.817-0.949-1.3-1.347c-1.073-0.893-2.395-1.539-3.676-1.871c-0.656-0.172-1.33-0.273-2.008-0.302
		c-0.63-0.026-1.261,0.016-1.882,0.125c-0.577,0.101-1.142,0.263-1.684,0.484c-0.519,0.212-1.015,0.476-1.48,0.789
		c-0.461,0.311-0.89,0.665-1.282,1.059c-6.447,6.97-12.895,13.938-19.343,20.907l0.046-16.952c-0.022-1.414-0.365-2.837-1.943-4.25
		c-0.306-0.264-0.634-0.501-0.981-0.709c-0.374-0.226-0.798-0.438-1.271-0.625c-0.474-0.187-0.998-0.351-1.564-0.477
		c-1.132-0.255-2.446-0.349-3.704-0.243c-0.609,0.05-1.215,0.146-1.81,0.286c-0.538,0.127-1.065,0.296-1.577,0.505
		c-0.478,0.198-0.907,0.419-1.285,0.653c-0.379,0.232-0.707,0.479-0.994,0.732c-1.577,1.433-1.96,2.873-1.992,4.354l0.041,44.501
		c0.022,1.396,0.355,2.822,1.875,4.212c0.293,0.258,0.608,0.491,0.94,0.695c0.357,0.221,0.762,0.428,1.214,0.612
		c0.453,0.184,0.956,0.347,1.503,0.474c1.667,0.388,3.594,0.433,5.527,0.004c0.56-0.124,1.109-0.292,1.644-0.501
		c0.5-0.197,0.951-0.419,1.345-0.654c0.365-0.215,0.712-0.461,1.036-0.733c1.604-1.396,2.014-2.807,2.046-4.239l-0.122-17.451
		l19.234,21.18c2.278,2.315,4.652,2.852,7.004,2.604c1.11-0.13,2.332-0.503,3.506-1.168c0.577-0.326,1.12-0.709,1.621-1.142
		c2.83-2.534,3.604-5.563,2.445-8.331C62.167,152.968,61.658,152.185,60.917,151.433L60.917,151.433z M13.09,99.641
		c0.166,0.14,0.351,0.271,0.572,0.397c0.221,0.126,0.478,0.246,0.793,0.361c0.315,0.115,0.688,0.225,1.289,0.307
		c0.6,0.083,1.43,0.137,2.256,0.137h11.485c0.779,0,1.559-0.051,2.287-0.149c1.512-0.226,2.702-0.514,4.017-1.24
		c0.682-0.385,1.418-0.918,2.089-1.522c1.64-1.51,2.522-3.025,3.062-4.537c0.161-0.46,0.296-0.947,0.398-1.466
		c0.108-0.551,0.174-1.109,0.197-1.671c0.026-0.6,0.008-1.246-0.078-1.933c-0.086-0.688-0.24-1.418-0.441-2.057
		c-0.183-0.594-0.439-1.164-0.761-1.695c-0.619-0.909-1.306-1.774-1.864-2.37c-0.558-0.597-0.986-0.923-1.441-1.219
		c-0.457-0.298-0.935-0.561-1.431-0.785c0.701-0.471,1.369-0.994,1.88-1.463c0.953-0.886,1.452-1.633,1.867-2.397
		c0.34-0.644,0.582-1.335,0.715-2.051c0.238-1.4,0.19-3.434-0.419-5.225c-0.289-0.854-0.695-1.647-1.307-2.456
		c-0.354-0.479-0.768-0.911-1.23-1.286c-0.565-0.465-1.338-0.979-2.148-1.417c-0.464-0.244-0.949-0.448-1.447-0.612
		c-0.65-0.215-1.315-0.382-1.989-0.501c-0.886-0.157-1.78-0.265-2.677-0.323H17.958c-0.704,0-1.407,0.058-2.016,0.168
		c-0.608,0.109-1.121,0.269-1.564,0.464s-0.816,0.424-1.139,0.689c-0.318,0.26-0.594,0.567-0.82,0.911
		c-0.501,0.744-0.731,1.728-0.732,2.711v28.579c0,0.279,0.01,0.559,0.037,0.819C11.843,97.76,12.052,98.727,13.09,99.641
		L13.09,99.641z M22.731,70.11l2.802,0.034c1.004,0.035,1.946,0.235,2.859,1.246c0.184,0.215,0.34,0.452,0.468,0.706
		c0.724,1.582,0.521,3.055-0.483,4.28c-0.964,1.023-1.919,1.141-2.841,1.155l-2.807-0.036L22.731,70.11L22.731,70.11L22.731,70.11z
		 M22.731,84.61l3.36-0.005c1.118,0.089,2.16,0.318,3.158,1.537c0.185,0.241,0.347,0.514,0.478,0.816
		c0.132,0.303,0.232,0.636,0.293,0.989c0.183,1.109-0.032,2.221-0.594,3.15c-0.169,0.279-0.371,0.537-0.602,0.767
		c-1.149,1.087-2.288,1.207-3.388,1.146l-2.705-0.023V84.61L22.731,84.61z M156.713,100.843h15.14
		c0.828-0.02,1.658-0.202,2.494-1.194c1.118-1.518,1.316-3.288,0.737-5.236c-0.096-0.283-0.208-0.54-0.333-0.768
		c-0.114-0.213-0.247-0.416-0.398-0.605c-0.82-0.985-1.646-1.195-2.502-1.221l-8.54-0.055l0.027-5.97l6.767,0.035
		c0.973-0.023,1.972-0.192,2.967-1.416c1.097-1.555,1.322-3.417,0.439-5.414c-0.12-0.246-0.265-0.479-0.43-0.698
		c-0.968-1.2-1.941-1.405-2.967-1.434l-6.864,0.001v-5.302l7.823,0.019c0.873-0.034,1.771-0.24,2.661-1.107
		c0.185-0.187,0.361-0.4,0.521-0.646c0.89-1.433,1.113-3.141,0.422-4.958c-0.115-0.276-0.257-0.542-0.424-0.789
		c-1.012-1.387-2.052-1.585-3.138-1.623h-14.405c-0.787,0-1.607,0.151-2.384,0.539c-0.367,0.184-0.711,0.414-1.019,0.686
		c-1.056,0.948-1.523,2.146-1.527,3.283l0.017,29.081c0,0.361,0.045,0.722,0.145,1.09c0.097,0.368,0.245,0.743,0.434,1.093
		c0.19,0.351,0.42,0.678,0.674,0.966C154.219,100.474,155.463,100.825,156.713,100.843L156.713,100.843z M209.445,93.864
		l-7.484-9.578c0.016,0.005,0.033,0.004,0.139-0.034c0.367-0.112,1.364-0.666,2.142-1.404c2.831-2.806,3.284-5.618,3.516-8.423
		c0.183-2.396-0.323-4.735-2.189-7.246c-0.552-0.724-1.182-1.386-1.874-1.976c-2.025-1.729-4.559-2.744-6.765-2.731h-14.232
		c-1.017,0.03-2.047,0.163-3.036,1.353c-0.141,0.177-0.274,0.384-0.406,0.636c-0.135,0.253-0.265,0.55-0.372,0.957
		c-0.104,0.407-0.187,0.925-0.222,1.444v30.003c0,0.206,0.014,0.412,0.045,0.611c0.121,0.708,0.395,1.411,1.174,2.112
		c0.176,0.156,0.38,0.307,0.613,0.45c0.23,0.144,0.495,0.277,0.789,0.397c1.022,0.411,2.167,0.563,3.346,0.48
		c0.402-0.029,0.803-0.088,1.195-0.177c0.355-0.081,0.708-0.189,1.05-0.324c0.297-0.117,0.583-0.258,0.857-0.421
		c0.233-0.139,0.455-0.297,0.661-0.473c1.024-0.901,1.28-1.812,1.298-2.739l0.018-10.711l9.892,13.157
		c0.307,0.431,0.855,0.93,1.358,1.188c1.901,0.923,3.768,0.59,5.898-0.593c0.342-0.203,0.669-0.428,0.979-0.675
		C209.831,97.481,210.653,95.608,209.445,93.864L209.445,93.864z M195.524,77.664c-0.956,1.046-1.901,1.274-2.826,1.361
		c-0.19,0.011-0.147,0.01-0.822,0.039c-0.482,0.019-1.318,0.052-2.156,0.084v-8.927c0.846,0.007,1.693,0.014,2.184,0.019
		c0.491,0.005,0.624,0.008,0.707,0.01c0.084,0.002,0.117,0.003,0.15,0.004c0.968,0.058,1.878,0.285,2.777,1.225
		c0.188,0.208,0.356,0.435,0.496,0.677C197.078,74.189,196.784,76.091,195.524,77.664L195.524,77.664z M207.587,132.786
		c-0.103-0.357-0.239-0.705-0.404-1.04c-0.128-0.259-0.285-0.504-0.463-0.732c-0.398-0.495-0.77-0.764-1.207-0.999
		c-0.275-0.146-0.565-0.263-0.865-0.353c-0.338-0.102-0.727-0.189-1.23-0.251c-0.577-0.066-1.158-0.097-1.739-0.092l-13.273,0.081
		c-1.554-0.077-3.163,0.151-4.744,1.427c-0.344,0.283-0.655,0.604-0.931,0.953c-0.306,0.385-0.565,0.8-0.783,1.24
		c-0.733,1.479-1.012,3.212-0.757,4.956c0.078,0.535,0.212,1.06,0.398,1.566c0.167,0.454,0.383,0.89,0.644,1.298
		c1.24,1.833,2.555,2.299,3.901,2.548c0.438,0.07,0.875,0.127,1.228,0.161c0.67,0.063,1.096,0.064,1.609,0.055
		c0.314-0.036,0.634-0.065,0.952-0.084c0.455-0.02,0.521,0,0.743,0.119c0.511,0.491,0.436,0.838,0.528,1.47
		c0.012,0.152,0.01,0.284-0.008,0.454c-0.053,0.565-0.389,1.663-0.972,2.593c-0.265,0.284-0.567,0.529-0.9,0.73
		c-0.777,0.477-1.73,0.808-2.655,1.009c-1.017,0.223-2.119,0.323-3.214,0.317c-0.933,0.003-1.866-0.069-2.787-0.215
		c-0.818-0.129-1.623-0.336-2.403-0.62c-1.478-0.558-2.748-1.287-4.086-2.63c-0.669-0.679-1.354-1.531-1.95-2.439
		c-1.062-1.656-1.786-3.524-2.132-5.591c-0.347-2.065-0.31-4.329,0.124-6.54c0.434-2.21,1.266-4.368,2.432-6.321
		c0.412-0.695,0.945-1.351,1.727-2.02c0.428-0.359,0.885-0.686,1.364-0.971c0.609-0.362,1.242-0.676,1.899-0.938
		c0.745-0.3,1.61-0.585,2.635-0.822c2.088-0.494,4.667-0.724,7.063-0.49c0.445,0.052,0.888,0.128,1.407,0.24
		c0.519,0.114,1.118,0.265,2.469,0.747c1.35,0.481,3.45,1.294,5.532,2.153c2.058,0.737,4.103,0.58,6.238-0.883
		c0.447-0.317,0.861-0.678,1.237-1.076c1.849-2.015,2.692-4.528,2.049-6.918c-0.202-0.712-0.559-1.371-1.042-1.931
		c-0.239-0.279-0.508-0.534-0.797-0.761c-1.816-1.44-3.779-2.703-5.529-3.571c-1.745-0.868-3.277-1.341-4.862-1.729
		c-1.635-0.4-3.293-0.698-4.965-0.89c-1.806-0.206-3.623-0.304-5.441-0.293c-2.469-0.018-4.934,0.229-7.348,0.736
		c-2.38,0.501-4.65,1.254-6.825,2.279c-2.176,1.024-4.256,2.322-6.206,3.949c-1.949,1.625-3.771,3.581-5.173,5.513
		c-1.403,1.933-2.387,3.843-3.18,6.025c-0.792,2.183-1.391,4.639-1.709,7.102c-0.319,2.463-0.357,4.934-0.165,7.256
		c0.194,2.323,0.622,4.501,1.221,6.52c0.601,2.018,1.374,3.878,2.196,5.483c0.82,1.605,1.693,2.957,2.638,4.192
		c0.926,1.213,1.96,2.34,3.088,3.367c1.143,1.037,2.383,1.963,3.703,2.763c1.36,0.826,2.859,1.561,4.574,2.195
		c1.717,0.634,3.646,1.17,5.948,1.54s4.975,0.576,7.646,0.569c1.29-0.003,2.579-0.059,3.866-0.168
		c1.254-0.106,2.455-0.263,3.606-0.468c1.15-0.204,2.255-0.458,3.313-0.761s2.068-0.655,3.036-1.057
		c0.955-0.395,1.882-0.852,2.776-1.368c0.888-0.514,1.737-1.092,2.539-1.732c1.594-1.256,3.091-2.981,3.965-4.602
		c0.43-0.795,0.679-1.515,0.812-2.258l0.171-15.696c-0.023-0.953-0.096-1.906-0.19-2.638
		C207.832,133.717,207.714,133.207,207.587,132.786L207.587,132.786z M147.119,79.857c-0.068-0.235-0.157-0.463-0.267-0.683
		c-0.22-0.471-0.68-0.936-1.094-1.137c-0.184-0.095-0.374-0.172-0.57-0.231c-0.489-0.158-1.215-0.224-1.949-0.226l-8.712-0.051
		c-1.209-0.035-2.467,0.092-3.715,1.573c-0.933,1.239-1.215,2.615-1.021,4.133c0.057,0.372,0.148,0.724,0.267,1.044
		c0.116,0.32,0.261,0.608,0.424,0.862c0.813,1.21,1.674,1.518,2.555,1.681c0.287,0.045,0.575,0.082,0.807,0.105
		c0.439,0.042,0.719,0.043,1.056,0.037c0.235-0.027,0.472-0.047,0.624-0.056c0.338-0.014,0.4,0.001,0.562,0.14
		c0.233,0.298,0.228,0.516,0.274,0.904c0.014,0.286-0.016,0.432-0.092,0.734c-0.101,0.358-0.289,0.853-0.552,1.267
		c-1.254,1.175-2.898,1.322-4.444,1.351c-0.612,0.001-1.223-0.045-1.827-0.142c-1.563-0.269-2.916-0.799-4.262-2.134
		c-0.437-0.445-0.888-1.005-1.278-1.602c-0.698-1.087-1.175-2.315-1.4-3.672c-0.226-1.356-0.202-2.844,0.082-4.295
		c0.289-1.465,0.83-2.87,1.596-4.152c0.272-0.457,0.62-0.887,1.136-1.326c0.279-0.237,0.579-0.451,0.894-0.638
		c0.353-0.21,0.761-0.419,1.248-0.616c0.488-0.197,1.056-0.383,1.727-0.54c1.371-0.325,3.063-0.476,4.637-0.321
		c0.291,0.034,0.581,0.083,0.923,0.158c0.343,0.075,0.733,0.174,1.62,0.49c0.886,0.316,2.267,0.849,3.631,1.414
		c1.607,0.54,3.167,0.425,4.905-1.285c1.364-1.521,1.969-3.409,1.068-5.225c-0.206-0.374-0.485-0.737-0.929-1.087
		c-1.191-0.946-2.48-1.775-3.628-2.345c-1.146-0.57-2.153-0.882-3.193-1.136c-2.141-0.53-4.474-0.79-6.829-0.777
		c-1.62-0.011-3.237,0.151-4.821,0.483c-1.563,0.329-3.053,0.823-4.479,1.496c-1.429,0.673-2.793,1.525-4.074,2.593
		c-1.279,1.068-2.475,2.353-3.396,3.623c-0.919,1.269-1.566,2.522-2.086,3.957c-0.519,1.434-0.911,3.047-1.121,4.665
		s-0.235,3.24-0.108,4.766c0.128,1.525,0.407,2.956,0.802,4.281c0.393,1.326,0.9,2.547,1.44,3.602
		c0.492,0.969,1.071,1.891,1.732,2.753c0.608,0.797,1.287,1.538,2.027,2.212c0.749,0.681,1.563,1.289,2.429,1.814
		c0.894,0.542,1.878,1.025,3.003,1.442c1.126,0.417,2.396,0.768,3.905,1.011c2.232,0.355,4.919,0.488,7.553,0.264
		c0.795-0.067,1.584-0.169,2.368-0.307c0.732-0.129,1.458-0.296,2.173-0.5c0.679-0.193,1.344-0.424,1.993-0.693
		c0.628-0.259,1.236-0.559,1.823-0.898c0.583-0.336,1.141-0.717,1.666-1.138c1.048-0.825,2.029-1.958,2.604-3.022
		c0.282-0.522,0.445-0.996,0.533-1.484l0.112-10.309c-0.014-0.579-0.056-1.158-0.126-1.732
		C147.278,80.469,147.203,80.133,147.119,79.857L147.119,79.857z M145.129,109.096c-0.312-0.273-0.644-0.517-0.996-0.731
		c-0.41-0.251-0.84-0.468-1.286-0.648c-1.606-0.649-3.432-0.907-5.29-0.77c-0.608,0.046-1.213,0.139-1.806,0.277
		c-0.537,0.125-1.062,0.291-1.571,0.498c-0.443,0.18-0.871,0.398-1.277,0.649c-0.35,0.214-0.682,0.458-0.989,0.73
		c-1.576,1.446-1.942,2.897-1.958,4.396v19.169c-5.416-6.479-10.831-12.955-13.963-16.702c-3.13-3.746-3.974-4.761-4.575-5.453
		c-0.604-0.69-0.967-1.057-1.372-1.393c-0.406-0.335-0.853-0.643-1.344-0.913c-0.517-0.283-1.057-0.517-1.616-0.698
		c-1.868-0.601-3.956-0.688-6.098-0.145c-0.666,0.171-1.314,0.407-1.935,0.703c-0.552,0.265-1.074,0.584-1.559,0.956
		c-1.828,1.447-2.378,2.978-2.393,4.477l0.13,44.499c0.001,0.33,0.026,0.661,0.077,0.979c0.2,1.149,0.641,2.272,1.915,3.422
		c0.286,0.251,0.611,0.493,0.985,0.724c0.375,0.229,0.798,0.446,1.27,0.638c1.581,0.638,3.374,0.888,5.198,0.747
		c0.6-0.046,1.195-0.14,1.781-0.276c0.531-0.125,1.051-0.292,1.557-0.498c0.441-0.182,0.867-0.398,1.272-0.648
		c0.349-0.216,0.68-0.462,0.986-0.733c1.586-1.454,1.962-2.916,1.987-4.423v-20.434l18.674,23.575
		c2.62,2.979,5.247,3.588,7.93,3.434c1.104-0.087,2.324-0.385,3.505-0.931c0.575-0.266,1.127-0.583,1.646-0.949
		c1.95-1.385,2.977-3.114,3.101-4.619l-0.006-44.505C147.088,112.032,146.738,110.562,145.129,109.096L145.129,109.096z
		 M101.898,100.403c1.902,0.922,3.768,0.589,5.898-0.593c0.341-0.202,0.67-0.428,0.98-0.675c1.997-1.667,2.82-3.54,1.611-5.284
		l-7.485-9.578c0.017,0.005,0.033,0.004,0.139-0.035c0.367-0.111,1.365-0.666,2.142-1.404c2.831-2.807,3.285-5.618,3.515-8.423
		c0.184-2.396-0.324-4.736-2.188-7.246c-0.553-0.724-1.182-1.386-1.875-1.976c-2.025-1.729-4.558-2.745-6.763-2.731H83.638
		c-1.016,0.029-2.046,0.163-3.037,1.353c-0.138,0.177-0.273,0.384-0.406,0.636c-0.161,0.303-0.285,0.625-0.37,0.957
		c-0.106,0.407-0.188,0.925-0.223,1.444v30.004c0,0.206,0.015,0.412,0.046,0.61c0.119,0.708,0.395,1.411,1.173,2.113
		c0.177,0.155,0.379,0.307,0.612,0.45c0.233,0.143,0.496,0.277,0.791,0.396c1.021,0.411,2.167,0.564,3.346,0.481
		c0.402-0.03,0.801-0.089,1.193-0.178c0.358-0.08,0.709-0.188,1.051-0.323c0.296-0.117,0.583-0.259,0.858-0.421
		c0.232-0.139,0.453-0.296,0.659-0.473c1.025-0.901,1.281-1.812,1.298-2.738l0.019-10.712l9.891,13.157
		C100.849,99.646,101.396,100.144,101.898,100.403L101.898,100.403z M96.443,77.596c-0.958,1.046-1.903,1.274-2.827,1.361
		c-0.189,0.011-0.148,0.01-0.823,0.038c-0.48,0.02-1.317,0.053-2.154,0.084v-8.928c0.847,0.007,1.693,0.014,2.183,0.02
		c0.489,0.005,0.624,0.008,0.707,0.01c0.083,0.001,0.117,0.002,0.151,0.004c0.967,0.058,1.877,0.284,2.777,1.225
		c0.181,0.198,0.349,0.424,0.496,0.677C97.995,74.12,97.702,76.021,96.443,77.596z"/>
	<path d="M200.212,208.246c0.268-0.56,0.299-1.069,0.077-1.782c-0.104-0.297-0.385-0.602-0.634-0.734
		c-0.283-0.16-0.544-0.231-0.882-0.281c-0.228-0.03-0.457-0.046-0.687-0.045h-2.523v6.654h1.003v-2.884h1.155l1.749,2.884h1.124
		l-1.884-2.931C199.193,209.065,199.867,208.881,200.212,208.246L200.212,208.246z M197.769,208.318h-1.204v-2.061
		c0.83,0.034,1.799-0.123,2.386,0.195c0.626,0.398,0.48,1.076,0.239,1.468c-0.235,0.268-0.393,0.308-0.771,0.365
		C198.25,208.307,198.009,208.318,197.769,208.318L197.769,208.318z"/>
	<path d="M203.33,206.982c-0.361-1.163-1.087-2.178-2.072-2.894c-1.589-1.136-3.463-1.413-5.315-0.842
		c-0.593,0.191-1.156,0.477-1.66,0.842c-0.501,0.365-0.937,0.808-1.287,1.298c-1.076,1.547-1.306,3.314-0.789,5.078
		c0.175,0.566,0.439,1.108,0.789,1.602c0.349,0.493,0.786,0.938,1.285,1.302c1.575,1.128,3.479,1.422,5.327,0.844
		c0.593-0.191,1.148-0.477,1.652-0.844c0.493-0.363,0.927-0.804,1.283-1.305C203.605,210.529,203.847,208.736,203.33,206.982
		L203.33,206.982z M201.563,211.588c-0.565,0.815-1.386,1.423-2.331,1.725c-1.475,0.453-2.979,0.23-4.224-0.667
		c-0.4-0.293-0.747-0.649-1.032-1.056c-0.286-0.407-0.506-0.863-0.653-1.351c-0.147-0.489-0.222-1.007-0.222-1.521
		c0-0.987,0.278-2.004,0.879-2.854c0.287-0.405,0.638-0.762,1.036-1.055c0.4-0.291,0.842-0.516,1.312-0.665
		c1.47-0.443,2.939-0.24,4.197,0.665c0.4,0.294,0.749,0.65,1.032,1.057c0.29,0.411,0.512,0.865,0.655,1.346
		C202.657,208.744,202.438,210.308,201.563,211.588L201.563,211.588z"/>
</g>

</svg>
