<?xml version="1.0" encoding="utf-8"?>
<!DOCTYPE svg PUBLIC "-//W3C//DTD SVG 1.1//EN" "http://www.w3.org/Graphics/SVG/1.1/DTD/svg11.dtd">
<svg version="1.1" xmlns="http://www.w3.org/2000/svg" xmlns:xlink="http://www.w3.org/1999/xlink" x="0px" y="0px" width="216px" height="216px" viewBox="0 0 216 216" enable-background="new 0 0 216 216" xml:space="preserve">
<g>
	<g>
		<path fill="#0C4DA2" d="M158.965,59.13c0,0,30.099,10.68,31.25,46.856c1.151,36.176-28.589,52.214-30.495,51.854
			c0,0,22.332-16.398,23.483-49.516C183.203,77.973,158.965,59.13,158.965,59.13z"/>
		<polygon fill="#0C4DA2" points="148.679,102.21 215.207,108.144 148.14,115.155 173.276,108.539 		"/>
		<path fill="#ED1C24" d="M103.551,73.765c0,0-17.083,1.08-23.916,10.5c0,0-9.457-8.163-17.835-8.917
			C53.421,74.592,1.207,75.06,1.207,75.06v15.319h17.836v51.351h14.779V90.667h27.51c0,0,8.02,0.396,7.912,10.357
			c0,10.14-9.818,10.428-9.818,10.428v-10.428H44.646v40.634h14.779v-14.85c0,0,5.934,0.609,13.414-3.347
			c0,0,7.228,19.672,31.106,19.526c22.727-0.143,34.305-18.374,34.234-33.838c0,0,0-6.005-0.828-8.019h-34.307v14.851h18.917
			c0,0-4.424,12.515-17.37,12.515c-16.073,0-20.424-14.851-20.424-19.742c0-4.963,1.005-16.901,19.525-20.209L103.551,73.765z"/>
	</g>

</g>
</svg>
