<?xml version="1.0" encoding="utf-8"?>
<!DOCTYPE svg PUBLIC "-//W3C//DTD SVG 1.1//EN" "http://www.w3.org/Graphics/SVG/1.1/DTD/svg11.dtd">
<svg version="1.1" id="Layer_1" xmlns="http://www.w3.org/2000/svg" xmlns:xlink="http://www.w3.org/1999/xlink" x="0px" y="0px" width="216px" height="216px" viewBox="0 0 216 216" enable-background="new 0 0 216 216" xml:space="preserve">
<g>
	<path fill="#0C3A83" d="M201.988,127.366c5.005-0.732,8.205-3.878,8.205-7.759c0-4.103-3.146-7.473-9.445-7.473h-21.469v25.685
		h5.735v-20.981h14.331c2.701,0,4.555,1.191,4.555,3.721c0,2.304-1.854,3.941-5.286,3.941h-8.542v4.328h3.037
		c3.595,0,5.675,0.954,7.531,3.146l4.941,5.846H213v-0.006l-6.404-7.638C205.361,128.716,203.9,127.705,201.988,127.366"/>
	<path fill="#0C3A83" d="M102.383,117.813c-3.596-3.377-9.722-6.241-16.693-6.241c-10.959,0-18.492,5.509-18.492,13.321
		c0,7.812,7.475,13.433,18.379,13.433c7.084,0,13.153-2.415,16.806-6.183l-4.214-3.595c-2.701,2.697-7.026,4.888-12.479,4.888
		c-6.97,0-12.03-3.201-12.03-8.543c0-5.171,5.06-8.43,11.917-8.43c5.566,0,9.78,2.134,12.592,4.945L102.383,117.813z"/>
	<path fill="#0C3A83" d="M138.191,117.813c-3.598-3.377-9.726-6.241-16.694-6.241c-10.962,0-18.492,5.509-18.492,13.321
		c0,7.812,7.475,13.433,18.376,13.433c7.084,0,13.152-2.415,16.81-6.183l-4.219-3.595c-2.694,2.697-7.022,4.888-12.476,4.888
		c-6.97,0-12.029-3.201-12.029-8.543c0-5.171,5.06-8.43,11.914-8.43c5.568,0,9.782,2.134,12.591,4.945L138.191,117.813z"/>
	<path fill="#0C3A83" d="M50.727,133.045l3.034-4.611H44.6c-1.969,0-3.258,0.224-4.553,1.459l8.995-12.87l14.839,20.797h6.857
		l-18.436-25.685h-6.016l-18.55,25.685h6.633l1.968-2.864c1.012-1.461,1.856-1.91,3.541-1.91H50.727z"/>
	<path fill="#0C3A83" d="M157.527,133.436c-6.633,0-12.2-3.091-12.2-8.543c0-5.229,5.51-8.43,12.256-8.43
		c7.474,0,12.925,3.201,12.925,8.317C170.508,130.456,164.944,133.436,157.527,133.436 M157.583,111.571
		c-10.624,0-18.719,5.282-18.719,13.321c0,8.096,8.095,13.433,18.719,13.433c11.352,0,19.394-5.337,19.394-13.545
		C176.977,116.91,168.935,111.571,157.583,111.571"/>
	<path fill="#BBA598" d="M20.368,97.879c-5.747,1.79-10.356,4.864-17.07,6.974c-0.191,0.062-0.315,0.123-0.296,0.245
		c0.026,0.146,0.19,0.146,0.351,0.142c8.666-0.17,18.379,1.754,25.762,0.481c12.459-2.155,10.524-7.856,28.821-11.233l4.086-0.707
		c0.196-0.036,0.388-0.065,0.36-0.233c0,0-0.021-0.108-0.297-0.169l-4.222-0.985c-0.443-1.358-2.009-2.081-4.253-1.67
		c-4.585,0.849-8.087,5.205-13.719,4.635c-1.181-6.814-8.154-11.197-16.848-12.323c-11.019-1.402-14.679-2.765-17.396-4.295
		c-0.316-0.172-0.518-0.365-0.793-0.316c-0.224,0.036-0.344,0.342-0.265,0.786C5.562,84.854,18.83,89.005,20.368,97.879"/>
	<path fill="#BBA598" d="M51.81,100.976c-0.108,0.027-0.197,0.085-0.183,0.162c0.02,0.099,0.09,0.133,0.206,0.138
		c3.834,0.135,9.356-0.272,14.576-1.174c17.819-3.079,13.084-8.73,30.346-11.71l3.607-0.621c0.197-0.036,0.397-0.069,0.379-0.181
		c-0.02-0.11-0.23-0.133-0.37-0.165l-2.706-0.697c-0.332-1.151-1.665-1.615-3.398-1.315c-3.492,0.602-5.596,3.122-10.725,2.468
		c-1.904-3.778-7.557-6.283-13.671-6.996c-7.1-0.826-11.242-1.536-15.681-3.11c-0.098-0.027-0.204-0.089-0.327-0.1h-0.072
		l-0.036,0.005c-0.229,0.041-0.309,0.279-0.271,0.503c0.933,5.401,11.724,7.54,12.786,13.687c3.187-0.427,5.441-2.873,8.463-3.392
		c1.768-0.306,3.016,0.095,3.493,1.382l3.318,0.758c0.138,0.035,0.343,0.056,0.359,0.168c0.017,0.11-0.037,0.176-0.293,0.223
		l-4.106,0.709c-4.882,0.84-9.144,2.499-14.298,5.158C59.875,98.592,55.59,100.103,51.81,100.976"/>
</g>
</svg>
