<?xml version="1.0" encoding="utf-8"?>
<!DOCTYPE svg PUBLIC "-//W3C//DTD SVG 1.1//EN" "http://www.w3.org/Graphics/SVG/1.1/DTD/svg11.dtd">
<svg version="1.1" id="Layer_1" xmlns="http://www.w3.org/2000/svg" xmlns:xlink="http://www.w3.org/1999/xlink" x="0px" y="0px" width="216px" height="216px" viewBox="0 0 216 216" enable-background="new 0 0 216 216" xml:space="preserve">
<g>
	<path fill="#FFFFFF" fill-opacity="0" d="M0.122,0.122h216v216h-216V0.122z"/>
	<path d="M201.664,111.604c-2.481-1.242-7.761-4.66-11.176-6.524c-3.414-1.863-6.517-5.281-6.517-5.281l-6.52-8.077l-6.52-9.32
		c0,0-3.104-2.485-2.793-5.281c0.311-2.796,0.622-5.592-0.622-7.766c-1.24-2.175-4.654-1.243-4.654-1.243s-2.484,1.243-7.14,2.796
		c-4.657,1.553-4.657-1.553-4.657-1.553l-5.587-10.251l-4.657-7.456c0,0-0.62-3.728-0.931-5.903
		c-0.311-2.174,1.553-4.971,1.553-4.971l-4.655-2.486c0,0-1.862-2.795-2.795-5.591s-1.552-3.106-4.657-3.729
		c-3.104-0.622-9.313,0.933-9.313,0.933c-4.033,0-10.863,3.417-10.863,10.562c0,7.145,4.347,11.183,4.347,11.183l-2.173,3.417
		l-1.241,7.766l-4.657,5.903l-4.346-8.698c-2.173-4.35-4.035-4.971-4.346-6.835c-0.31-1.864-1.862-4.039-1.862-4.039V38.287
		c0-9.941-9.623-12.116-13.659-12.116c0,0-4.346,0.622-7.45,1.243c-3.104,0.622-8.382,6.834-8.382,6.834l1.553,2.485l0.311,5.281
		l-4.035,4.039l2.793,1.554l0.621,3.727l-1.552,3.418c0,0-1.862,4.971-2.483,6.212c-0.621,1.243-0.932,3.106-5.898,3.729
		c-4.967,0.622-3.104-1.243-7.45-0.933c-4.346,0.311-7.45,4.039-7.45,6.213c0,2.175,0.621,4.349,0.621,4.349
		s0.621,1.242,0.311,3.727c-0.311,2.486-13.356,19.576-13.356,19.576s-1.241,1.865-5.587,5.281
		c-4.346,3.417-8.072,4.66-15.521,8.388c-7.45,3.727-4.656,4.659-3.415,7.766c1.242,3.107,6.209,4.038,9.934,4.038
		c3.726,0,7.141-1.552,7.141-1.552s9.313,0.311,13.348,0.311c4.036,0,4.967-0.933,4.967-4.972v-6.835c0,0,5.898-5.282,9.624-9.32
		c3.725-4.039,7.45-5.902,7.45-5.902s11.796,19.26,13.038,20.814c1.241,1.554,3.414,5.903,6.209,5.903h14.9
		c4.656,0,7.45-4.04,10.554-9.321c3.105-5.28,6.519-9.318,6.519-9.318s1.553,7.456,3.105,13.048s6.829,5.903,6.829,5.903h12.107
		c10.554,0,19.248-14.291,21.729-18.951c2.484-4.66,5.279-10.251,5.279-8.387c0,1.863,8.691,8.698,10.864,9.94
		s8.071,6.836,8.071,6.836s0.309,0.622,0.309,4.349c0,3.728,3.104,4.971,6.209,4.971h18.006c4.966,0,7.139-1.554,7.139-4.349
		C208.184,113.467,204.147,112.847,201.664,111.604C201.664,111.604,204.147,112.847,201.664,111.604L201.664,111.604z
		 M83.08,96.383L70.975,78.986l9.934-5.902c0,0,0,3.728,1.242,7.766C83.391,84.889,83.08,96.383,83.08,96.383L83.08,96.383z
		 M132.129,55.377l6.828,10.873l-9.001-4.349L132.129,55.377L132.129,55.377z M129.334,96.072l-0.62-8.077
		c0,0,6.209-1.863,5.898-4.039c-0.31-2.175-1.862-7.145-1.862-7.145s11.486,3.727,12.416,4.039
		C146.099,81.161,129.334,96.072,129.334,96.072z"/>
	<path stroke="#CC2229" stroke-width="1.664" stroke-miterlimit="2.613" d="M91.758,166.676v-13.644
		c0-13.391-9.015-17.223-16.615-17.223c-4.172,0-7.041,0.104-13.56,3.832c-3.619,2.069-6.594,8.368-6.52,13.661h14.044
		c-0.074-2.236,1.043-6.523,4.47-6.673c2.939-0.116,5.441,1.467,5.466,3.264c0.037,2.688-0.261,2.982-5.019,3.261
		c-11.977,0.698-19.511,4.882-19.66,13.979c-0.149,7.68,4.349,14.68,13.215,14.68c7.004,0,10.682-1.978,12.396-4.66l0.233,3.539
		h13.299C92.987,176.22,91.152,176.687,91.758,166.676C91.758,166.676,91.152,176.687,91.758,166.676L91.758,166.676z
		 M72.415,170.646c-2.683,0-4.843-1.76-4.843-4.445c0-2.608,2.064-3.438,5.188-3.959c2.793-0.467,3.306-0.234,6.285-0.234
		C79.045,167.005,78.524,170.646,72.415,170.646z M211.195,166.676v-13.644c0-13.391-9.016-17.223-16.614-17.223
		c-4.174,0-7.041,0.104-13.562,3.832c-3.618,2.069-6.593,8.368-6.518,13.661h14.043c-0.074-2.236,1.044-6.523,4.471-6.673
		c2.938-0.116,5.44,1.467,5.465,3.264c0.039,2.688-0.26,2.982-5.019,3.261c-11.978,0.698-19.51,4.882-19.661,13.979
		c-0.149,7.68,4.349,14.68,13.215,14.68c7.004,0,10.683-1.978,12.396-4.66l0.231,3.539h13.301
		C212.423,176.22,210.589,176.687,211.195,166.676C211.195,166.676,210.589,176.687,211.195,166.676L211.195,166.676z
		 M191.853,170.646c-2.684,0-4.844-1.76-4.844-4.445c0-2.608,2.064-3.438,5.188-3.959c2.795-0.467,3.307-0.234,6.285-0.234
		C198.481,167.005,197.961,170.646,191.853,170.646L191.853,170.646z"/>
	<path stroke="#CC2229" stroke-width="1.664" stroke-miterlimit="2.613" d="M117.926,134.98c-5.513,0-11.076,4.428-11.076,4.428
		v-3.728H92.694v54.388h15.162v-12.265c2.388,2.377,5.433,3.543,9.604,3.543c11.996,0,16.694-12.937,16.694-23.896
		C134.154,147.608,127.239,134.98,117.926,134.98z M113.704,169.602c-4.859,0-6.854-6.858-6.854-11.63s2.229-10.698,6.854-10.698
		c4.92,0,6.854,5.927,6.854,10.698S118.16,169.602,113.704,169.602z"/>
	<path stroke="#CC2229" stroke-width="1.664" stroke-miterlimit="2.613" d="M158.611,134.98c-5.514,0-11.075,4.428-11.075,4.428
		v-3.728H133.38v54.388h15.161v-12.265c2.388,2.377,5.432,3.543,9.605,3.543c11.993,0,16.694-12.937,16.694-23.896
		C174.842,147.608,167.924,134.98,158.611,134.98z M154.389,169.602c-4.856,0-6.853-6.858-6.853-11.63s2.229-10.698,6.853-10.698
		c4.921,0,6.854,5.927,6.854,10.698S158.846,169.602,154.389,169.602z M5.008,131.487v48.927h16.531v-15.146l2.095-2.097
		l16.298,17.242h20.954L34.81,153.386l22.816-21.898H37.137l-15.832,15.377v-15.377H5.008L5.008,131.487z"/>
</g>
</svg>
