<?xml version="1.0" encoding="utf-8"?>
<!DOCTYPE svg PUBLIC "-//W3C//DTD SVG 1.1//EN" "http://www.w3.org/Graphics/SVG/1.1/DTD/svg11.dtd">
<svg version="1.1" id="Layer_1" xmlns="http://www.w3.org/2000/svg" xmlns:xlink="http://www.w3.org/1999/xlink" x="0px" y="0px" width="216px" height="216px" viewBox="0 0 216 216" enable-background="new 0 0 216 216" xml:space="preserve">
<g>
	<rect fill-rule="evenodd" clip-rule="evenodd" fill="#FFD530" width="216" height="216"/>
	<path fill="#717073" d="M121.211,139.031l-0.826,7.609h-4.6l-0.87,7.459h4.6l-1.673,13.611c-0.138,1.212-0.234,2.311-0.288,3.305
		c-0.055,0.984-0.048,1.854,0.021,2.601c0.113,1.356,0.49,2.413,1.13,3.18c0.65,0.767,1.645,1.326,3.002,1.668
		s3.17,0.56,5.414,0.643c2.256,0.083,5.046,0.113,8.37,0.104l1.14-9.261h-2.051c-0.86,0-1.561-0.073-2.082-0.218
		c-0.521-0.146-0.914-0.363-1.158-0.663c-0.246-0.311-0.396-0.694-0.429-1.171c-0.018-0.187-0.018-0.414-0.012-0.693
		c0.016-0.28,0.047-0.611,0.106-0.984l1.437-12.12h6.216l0.87-7.459h-6.216l0.826-7.609H121.211L121.211,139.031z M147.266,139.031
		l-0.826,7.609h-4.6l-0.87,7.459h4.6l-1.674,13.611c-0.137,1.212-0.233,2.311-0.287,3.305c-0.055,0.984-0.048,1.854,0.021,2.601
		c0.114,1.356,0.491,2.413,1.131,3.18c0.65,0.767,1.645,1.326,3.002,1.668s3.169,0.56,5.414,0.643
		c2.256,0.083,5.045,0.113,8.369,0.104l1.141-9.261h-2.052c-0.859,0-1.561-0.073-2.081-0.218c-0.521-0.146-0.914-0.363-1.159-0.663
		c-0.246-0.311-0.395-0.694-0.429-1.171c-0.017-0.187-0.017-0.414-0.012-0.693c0.017-0.28,0.048-0.611,0.107-0.984l1.437-12.12
		h6.216l0.87-7.459h-6.216l0.826-7.609H147.266L147.266,139.031z M97.198,145.709c-2.982,0.01-5.638,0.424-7.978,1.232
		c-2.329,0.808-4.34,1.927-6.033,3.346c-1.693,1.419-3.066,3.056-4.119,4.9c-1.054,1.844-1.795,3.812-2.214,5.904
		c-0.43,2.093-0.546,4.216-0.348,6.371c0.203,2.103,0.744,3.937,1.635,5.521s2.068,2.9,3.544,3.967
		c1.464,1.057,3.164,1.854,5.088,2.394c1.923,0.528,4.03,0.798,6.309,0.798c2.589-0.011,4.923-0.312,6.992-0.912
		c2.079-0.601,3.899-1.43,5.491-2.486c1.581-1.057,2.929-2.289,4.043-3.688c1.105-1.398,2.003-2.9,2.673-4.517
		c0.66-1.616,1.119-3.273,1.368-4.973c0.248-1.699,0.29-3.388,0.137-5.055c-0.25-2.621-1.06-4.89-2.426-6.807
		c-1.366-1.905-3.242-3.377-5.627-4.423C103.349,146.247,100.504,145.719,97.198,145.709L97.198,145.709z M96.318,154.41
		c0.871,0.011,1.627,0.238,2.269,0.684s1.155,1.077,1.541,1.886c0.385,0.808,0.626,1.751,0.726,2.838
		c0.034,0.373,0.042,0.912,0.024,1.616c-0.029,0.704-0.112,1.492-0.25,2.362c-0.137,0.88-0.356,1.761-0.648,2.651
		c-0.301,0.891-0.693,1.709-1.204,2.466c-0.501,0.745-1.129,1.356-1.894,1.823c-0.756,0.455-1.667,0.693-2.732,0.704
		c-1.284,0.011-2.338-0.414-3.15-1.253c-0.813-0.84-1.315-2.145-1.487-3.906c-0.081-0.88-0.077-1.854,0.013-2.91
		c0.091-1.047,0.284-2.104,0.582-3.149c0.298-1.047,0.717-2.01,1.258-2.891c0.542-0.87,1.223-1.574,2.034-2.103
		C94.221,154.7,95.189,154.421,96.318,154.41L96.318,154.41z M185.027,145.709c3.305,0.01,6.15,0.538,8.535,1.574
		c2.385,1.046,4.26,2.518,5.626,4.423c1.367,1.917,2.176,4.186,2.427,6.807c0.152,1.667,0.11,3.355-0.138,5.055
		s-0.707,3.356-1.367,4.973c-0.67,1.616-1.568,3.118-2.673,4.517c-1.115,1.398-2.462,2.631-4.044,3.688
		c-1.591,1.057-3.411,1.886-5.49,2.486c-2.068,0.601-4.402,0.901-6.991,0.912c-2.279,0-4.386-0.27-6.31-0.798
		c-1.924-0.539-3.624-1.337-5.088-2.394c-1.476-1.066-2.653-2.382-3.544-3.967c-0.892-1.585-1.433-3.419-1.636-5.521
		c-0.197-2.155-0.081-4.278,0.349-6.371c0.419-2.093,1.16-4.061,2.214-5.904c1.054-1.845,2.426-3.481,4.119-4.9
		s3.704-2.538,6.033-3.346C179.389,146.133,182.045,145.719,185.027,145.709L185.027,145.709z M184.146,154.41
		c-1.128,0.011-2.097,0.29-2.919,0.818c-0.811,0.528-1.492,1.232-2.034,2.103c-0.541,0.881-0.96,1.844-1.258,2.891
		c-0.298,1.046-0.491,2.103-0.581,3.149c-0.09,1.057-0.094,2.03-0.013,2.91c0.172,1.762,0.674,3.066,1.486,3.906
		c0.813,0.839,1.867,1.264,3.15,1.253c1.066-0.011,1.977-0.249,2.732-0.704c0.766-0.467,1.394-1.078,1.895-1.823
		c0.511-0.757,0.902-1.575,1.203-2.466c0.292-0.891,0.512-1.771,0.648-2.651c0.138-0.87,0.221-1.658,0.249-2.362
		c0.019-0.704,0.011-1.243-0.023-1.616c-0.1-1.087-0.342-2.03-0.727-2.838c-0.385-0.809-0.898-1.44-1.54-1.886
		S185.018,154.421,184.146,154.41L184.146,154.41z M31.592,146.641H19.721l-3.976,32.569h12.928l2.005-16.099
		c0.137-1.325,0.39-2.527,0.767-3.615c0.367-1.077,0.93-1.947,1.667-2.6c0.749-0.643,1.744-0.984,2.996-0.994
		c1.201-0.011,2.084,0.248,2.661,0.776c0.576,0.519,0.899,1.336,0.992,2.455c0.043,0.466,0.059,0.984,0.039,1.554
		c-0.01,0.57-0.065,1.212-0.155,1.927l-2.083,16.596H50.49l2.004-16.099c0.158-1.325,0.421-2.527,0.798-3.615
		c0.367-1.077,0.919-1.947,1.657-2.6c0.729-0.643,1.723-0.984,2.975-0.994c1.201-0.011,2.084,0.248,2.661,0.776
		c0.576,0.519,0.899,1.336,0.992,2.455c0.042,0.466,0.059,0.984,0.039,1.554c-0.01,0.57-0.065,1.212-0.155,1.927l-2.083,16.596
		h12.928l2.398-19.269c0.126-0.994,0.194-1.947,0.215-2.849c0.011-0.901-0.016-1.75-0.09-2.559c-0.161-1.875-0.628-3.46-1.422-4.775
		c-0.783-1.315-1.952-2.31-3.507-3.004s-3.556-1.046-6.011-1.046c-2.382,0-4.573,0.507-6.553,1.512
		c-1.969,1.005-3.77,2.497-5.393,4.455c-0.366-1.171-0.958-2.207-1.776-3.098c-0.817-0.891-1.896-1.585-3.237-2.093
		c-1.331-0.508-2.981-0.767-4.919-0.776c-1.17,0.01-2.313,0.196-3.41,0.549c-1.106,0.362-2.151,0.828-3.113,1.408
		c-0.972,0.58-1.827,1.202-2.595,1.865c-0.757,0.673-1.371,1.326-1.851,1.958L31.592,146.641L31.592,146.641z M79.921,36.002
		c10.731,0,20.596,3.746,28.385,10.01c0.02,0.019,0.041,0.036,0.064,0.052c0.579,0.467,1.147,0.948,1.702,1.442l0.002-0.001
		c9.172,8.168,15.063,20.001,15.423,33.227c-0.035,0.424-0.055,0.853-0.055,1.286c0,8.238,6.619,14.918,14.782,14.918
		c8.162,0,14.781-6.681,14.781-14.918s-6.619-14.918-14.781-14.918c-5.214,0-9.797,2.726-12.429,6.841
		c-1.84-11.182-7.435-21.085-15.431-28.345c7.705-6.013,17.368-9.593,27.859-9.593c25.177,0,45.595,20.606,45.595,46.016
		s-20.418,46.016-45.595,46.016c-11.561,0-22.114-4.346-30.152-11.504l-0.002,0.002c-8.987-8.005-14.826-19.528-15.396-32.431
		c-0.004-0.099-0.033-0.194-0.079-0.284c0.07-0.589,0.107-1.189,0.107-1.798c0-8.238-6.619-14.918-14.782-14.918
		c-8.163,0-14.782,6.681-14.782,14.918s6.619,14.918,14.782,14.918c5.213,0,9.797-2.726,12.429-6.841
		c1.839,11.182,7.433,21.086,15.43,28.347c-7.705,6.012-17.368,9.592-27.858,9.592c-25.178,0-45.596-20.606-45.596-46.016
		S54.743,36.002,79.921,36.002L79.921,36.002z M108.478,85.749c1.833,15.994,15.407,28.417,31.747,28.417
		c17.589,0,31.854-14.396,31.854-32.148S157.813,49.87,140.225,49.87c-10.799,0-17.503,3.632,0,3.737
		c15.545,0,28.151,12.722,28.151,28.411c0,15.688-12.606,28.41-28.151,28.41c-14.629,0-26.76-11.266-28.127-25.668
		c-0.143-1.498-0.343-2.876-0.533-4.396C110.712,63.38,96.792,49.87,79.752,49.87c-17.59,0-31.854,14.396-31.854,32.148
		s14.265,32.148,31.854,32.148c10.799,0,17.503-3.633,0-3.738c-15.545,0-28.151-12.722-28.151-28.41
		c0-15.688,12.606-28.411,28.151-28.411c15.059,0,27.36,11.94,28.115,26.949C108.133,82.289,108.278,84.008,108.478,85.749z"/>
</g>
</svg>
