<?xml version="1.0" encoding="utf-8"?>
<!DOCTYPE svg PUBLIC "-//W3C//DTD SVG 1.1//EN" "http://www.w3.org/Graphics/SVG/1.1/DTD/svg11.dtd">
<svg version="1.1" id="Layer_1" xmlns="http://www.w3.org/2000/svg" xmlns:xlink="http://www.w3.org/1999/xlink" x="0px" y="0px" width="216px" height="216px" viewBox="0 0 216 216" enable-background="new 0 0 216 216" xml:space="preserve">
<path d="M183.275,18.919l-0.338-2.167l-1.98-0.928c-10.027-4.675-37.221-15.562-73.04-15.562c-33.804,0-59.752,9.751-72.211,15.562
	l-1.984,0.928l-0.338,2.167c-2.226,14.309-6.201,52.216,4.903,95.026c11.245,43.349,34.025,77.229,67.708,100.688l2.336,1.628
	l2.336-1.628c33.681-23.46,56.46-57.337,67.709-100.688C189.479,71.135,185.505,33.228,183.275,18.919L183.275,18.919z"/>
<path fill="#FFFFFF" d="M170.45,111.882c-10.479,40.385-31.372,72.104-62.119,94.343c-30.747-22.238-51.64-53.962-62.115-94.343
	c-10.2-39.318-7.222-74.316-5.059-89.509C53.648,16.8,77.394,8.488,107.917,8.488c32.023,0,56.757,9.082,67.588,13.888
	C177.668,37.569,180.646,72.567,170.45,111.882z"/>
<path d="M50.777,39.725l4.858-1.804l0.656,1.773l-6.901,2.567l-3.62-9.803l2.039-0.755L50.777,39.725z M60.777,38.311l-2.208,0.621
	l0.755-11.069l2.416-0.684l6.356,9.065l-2.274,0.642l-1.225-1.891l-3.702,1.042L60.777,38.311L60.777,38.311z M80.931,33.649
	l-1.994,0.387l-1.649-8.575l-0.031,0.003l-0.259,8.947l-2.095,0.404L71.39,26.6l-0.031,0.007l1.649,8.575l-1.995,0.386l-1.97-10.262
	l3.119-0.604l3.406,7.729l0.028-0.003l0.269-8.44l3.095-0.601L80.931,33.649z M83.529,22.739l5.03-0.569
	c2.537-0.287,3.364,1.228,3.485,2.301c0.166,1.487-0.625,2.005-1.032,2.271c1.322,0.334,1.77,1.308,1.884,2.336
	c0.089,0.804-0.146,1.609-0.653,2.239c-0.528,0.646-1.049,1.073-3.167,1.311l-4.382,0.497L83.529,22.739z M100.958,20.986
	c1.376-0.055,5.027,0.396,5.221,5.3c0.193,4.903-3.406,5.642-4.786,5.697c-1.377,0.055-5.028-0.397-5.221-5.3
	C95.979,21.783,99.581,21.041,100.958,20.986z M110.185,21.069l5.265,0.162c2.771,0.083,3.216,2.149,3.188,3.053
	c-0.034,1.149-0.648,2.122-1.684,2.439c0.842,0.404,1.301,0.739,1.238,2.688c-0.048,1.525-0.062,1.905,0.396,2.095l-0.006,0.276
	l-2.405-0.072c-0.135-0.5-0.204-1.039-0.169-2.115c0.041-1.428-0.028-1.98-1.64-2.029l-2.249-0.073l-0.125,4.089l-2.132-0.065
	L110.185,21.069L110.185,21.069z M127.506,26.907l4.333,0.445l-0.572,5.607l-1.442-0.148l-0.086-1.325
	c-0.614,0.58-1.505,1.439-3.396,1.246c-2.495-0.259-4.575-2.288-4.206-5.935c0.29-2.84,2.136-5.355,5.628-4.982
	c3.181,0.328,4.227,2.526,4.192,3.972l-2.164-0.221c0.041-0.407-0.565-1.787-2.095-1.942c-1.542-0.159-3.081,0.766-3.356,3.43
	c-0.29,2.836,1.18,3.737,2.656,3.885c0.473,0.048,2.084,0.024,2.743-2.029l-2.412-0.249L127.506,26.907L127.506,26.907z
	 M137.878,29.253l-0.821,4.613l-2.143-0.386l1.839-10.286l2.143,0.386l-0.7,3.896l4.002,0.718l0.694-3.896l2.146,0.386
	l-1.843,10.286l-2.143-0.387l0.828-4.61L137.878,29.253L137.878,29.253z M148.984,36.33l-2.122-0.507l2.426-10.162l2.115,0.507
	L148.984,36.33L148.984,36.33z M161.811,29.091l1.945,0.594l-3.032,10l-2.081-0.639l-1.908-8.367l-0.027-0.011l-2.163,7.132
	l-1.939-0.593l3.025-10l2.198,0.669l1.847,8.167l0.027,0.011L161.811,29.091L161.811,29.091z M166.23,41.73l-2.036-0.77l3.668-9.782
	l2.043,0.77L166.23,41.73L166.23,41.73z M122.695,62.057c-1.657-0.729-3.444-1.118-5.255-1.142
	c-1.839-0.021-3.671,0.345-5.214,1.201c-1.542,0.855-5.348,2.681-9.244,5.548c-3.896,2.867-7.877,6.776-9.772,11.797
	c-1.891,5.021-2.826,8.181-3.388,10.372c-0.563,2.191-0.752,3.416-1.149,4.565c-0.397,1.149-1.08,2.329-1.653,3.641
	c-0.576,1.308-1.045,2.743-1.021,4.41c0.024,1.663-0.1,3.612-0.304,5.49c-0.203,1.874-0.486,3.671-0.776,5.031
	c-0.29,1.359-0.679,2.923-0.99,4.668c-0.354,1.896-0.524,3.823-0.507,5.752c0.031,2.081-0.093,4.161-0.373,6.114
	c-0.242,1.825-0.683,3.619-1.314,5.349c-0.597,1.57-0.783,2.923-0.997,4.199c-0.214,1.28-0.456,2.478-1.16,3.737
	c-0.707,1.256-1.667,2.832-2.629,4.33c-0.963,1.497-1.925,2.916-2.636,3.861s-1.06,2.042-0.838,2.95
	c0.221,0.907,1.011,1.621,2.57,1.801c1.556,0.187,2.898-0.148,3.899-0.787c1-0.642,1.66-1.587,1.853-2.629
	c0.193-1.046,0.169-2.502,0.225-3.981c0.055-1.484,0.186-2.992,0.687-4.145l0.5-1.252l0.5-1.256
	c0.504-0.839,0.862-1.156,1.222-1.422c0.359-0.266,0.717-0.479,1.225-1.111s1.311-2.36,1.984-4.292
	c0.67-1.937,1.208-4.075,1.184-5.531c-0.04-1.2,0.081-2.4,0.359-3.568c0.242-0.966,0.594-1.749,0.998-2.484
	c0.403-0.734,0.648-1.569,1.028-2.197c0.379-0.632,0.89-1.057,1.825-0.963c0.935,0.086,1.201,0.552,1.312,1.148
	c0.11,0.598,0.072,1.325,0.393,1.943c0.321,0.617,0.646,1.287,1.091,1.877c0.452,0.59,1.028,1.104,1.863,1.4
	s1.518,0.911,1.867,1.636c0.379,0.731,0.324,1.613-0.145,2.291c-0.507,0.735-1.215,1.994-1.791,3.278
	c-0.576,1.283-1.021,2.588-1.011,3.423c0.014,0.831,0.134,2.077,0,3.378c-0.135,1.301-0.528,2.66-1.549,3.713
	c-0.905,0.918-1.707,1.933-2.391,3.025c-0.556,0.922-0.856,1.705-0.846,2.226c0.007,0.518,0.224,1.194,0.776,1.729
	c0.552,0.538,1.439,0.938,2.788,0.921c1.349-0.018,2.377-0.3,3.15-0.804s1.277-1.239,1.573-2.181
	c0.297-0.942,0.235-1.615,0.097-2.212c-0.142-0.598-0.355-1.111-0.362-1.736c-0.007-0.624,0.186-1.355,0.407-2.111
	c0.221-0.756,0.469-1.539,0.563-2.271c0.209-2.108,0.964-4.127,2.191-5.855c0.811-1.155,1.263-2.149,1.639-3.04
	c0.376-0.89,0.673-1.673,1.18-2.408c0.507-0.734,0.711-1.104,0.915-1.211c0.207-0.106,0.417,0.045,0.938,0.349
	s0.632,0.614,0.532,0.979c-0.101,0.366-0.404,0.787-0.704,1.312c-0.304,0.524-0.911,1.418-1.546,2.363
	c-0.635,0.946-1.294,1.943-1.694,2.678c-0.403,0.735-0.648,1.674-0.507,2.45c0.142,0.779,0.669,1.394,1.812,1.48
	c1.142,0.086,2.021,0.072,2.643-0.118c0.618-0.192,0.976-0.562,1.07-1.187c0.093-0.624,0.286-1.615,0.555-2.608
	c0.27-0.99,0.618-1.984,1.021-2.615c0.404-0.632,0.656-1.205,0.805-1.701c0.123-0.396,0.188-0.81,0.189-1.226
	c0.632,0.614,1.156,1.336,1.607,2.081c0.459,0.745,0.828,1.519,1.152,2.243c0.325,0.721,1.06,1.594,2.367,2.249
	c1.308,0.656,3.182,1.094,5.77,0.949s3.882-0.27,4.603-0.514c0.722-0.245,0.877-0.611,1.181-1.239
	c0.297-0.628,1.004-1.888,1.349-3.164c0.346-1.276,0.324-2.581-0.828-3.288c0.19-1.042,0.479-2.45,0.925-3.81
	s1.053-2.667,1.867-3.513c0.814-0.842,1.938-1.694,2.946-2.464c0.997-0.769,1.867-1.459,2.17-1.983
	c1.363,0.707,2.616,1.598,3.565,2.881c0.955,1.283,1.604,2.964,1.745,5.248c0.021,1.246,0.19,2.412,0.39,3.427
	c0.197,1.007,0.411,1.866,0.525,2.487c0.113,0.621,0.127,1.298,0.134,2.002c0.014,0.7,0.021,1.428,0.142,2.156
	c0.149,0.746,0.575,1.409,1.194,1.853c0.601,0.459,1.335,0.708,1.953,0.594c0.617-0.114,1.18-0.693,1.583-1.429
	c0.404-0.734,0.649-1.621,0.636-2.35c0.009-0.593-0.17-1.172-0.511-1.656c-0.297-0.411-0.659-0.718-0.977-1.024
	c-0.317-0.308-0.524-0.563-0.587-0.953c-0.056-0.39,0.041-0.91,0.338-1.745s0.234-1.563,0.021-2.157
	c-0.214-0.597-0.587-1.059-0.904-1.366s-0.693-1.184-0.97-2.325c-0.276-1.139-0.452-2.54-0.369-3.893s-0.069-2.909-0.452-4.254
	c-0.383-1.346-0.997-2.481-1.839-2.988c2.384-0.142,5.103-0.338,7.528-1.053c2.426-0.714,4.555-1.942,5.77-4.144
	c-1.349-0.083-2.905,0.045-4.778-0.5c-1.874-0.542-4.072-1.756-6.705-4.523c0.19-1.249,0.228-2.084,0.142-2.784
	c-0.086-0.701-0.304-1.27-0.628-1.991c-0.324-0.725-0.749-1.394-1.024-2.481c-0.276-1.087-0.404-2.591-0.128-4.989
	s0.162-6.242-0.862-10.438c-1.025-4.192-2.957-8.74-6.335-12.535c0.89-2.819,1.38-4.751,1.483-6.314
	c0.116-1.415-0.166-2.833-0.814-4.096c-0.642-1.342-2.318-2.457-4.766-3.23c-2.446-0.766-5.669-1.183-9.402-1.128
	c-3.727,0.059-9.064,0.297-13.471,0.235c-4.406-0.062-7.884-0.424-7.905-1.566c-0.014-1.146,0.597-1.673,1.421-1.946
	c0.825-0.272,1.864-0.286,2.688-0.403c1.252,0.5,3.02,0.787,4.862,0.938c1.843,0.151,3.761,0.176,5.321,0.151
	c1.549-0.024,2.991-0.462,4.516-0.904c1.525-0.441,3.127-0.88,4.993-0.907c-1.563-0.497-3.544-1.246-5.572-1.788
	c-2.036-0.542-4.109-0.873-5.869-0.531c-0.632-0.614-1.104-1.077-1.832-1.273c-0.729-0.197-1.715-0.131-3.365,0.311
	c-1.653,0.442-2.688,0.614-3.568,0.731c-0.879,0.118-1.604,0.183-2.636,0.407s-2.481,0.404-3.665,0.966
	c-1.184,0.566-2.102,1.515-2.077,3.281c0.027,1.767,0.621,3.319,2.401,4.406c1.781,1.09,4.745,1.722,9.51,1.646
	c4.768-0.072,9.944-0.207,14.233,0.014c4.271,0.221,7.657,0.79,8.816,2.125s1.483,2.215,1.314,2.943
	c-0.169,0.731-0.835,1.312-1.652,2.053c-0.729,0.01-2.022,0.083-3.523-0.024C125.977,63.047,124.259,62.761,122.695,62.057
	L122.695,62.057z"/>
<path fill="#FFFFFF" d="M118.255,131.794c0.248-0.862,0.673-1.945,0.956-3.615c0.282-1.667,0.431-3.917,0.127-7.112
	c-0.595,0.208-1.163,0.487-1.69,0.832c-0.645,0.411-1.188,0.962-1.591,1.611c-0.12-1.574-0.132-3.155-0.034-4.73
	c0.086-1.69,0.269-3.278,0.518-4.116c0.241-0.835,0.345-1.253,0.479-1.566c0.142-0.314,0.317-0.525,0.729-0.946
	c0.445-0.506,0.691-1.157,0.693-1.832c0.024-0.795-0.289-1.563-0.863-2.115c-0.55-0.506-1.011-1.101-1.362-1.76
	c-0.28-0.577-0.401-1.217-0.353-1.856c0.042-0.676,0.673-1.622,2.063-2.516c1.381-0.89,3.523-1.729,6.569-2.194
	c0.418-0.059,0.629,0.097,0.652,0.317c0.028,0.217-0.12,0.507-0.431,0.721c-0.304,0.214-0.942,0.69-1.584,1.208
	c-0.642,0.518-1.28,1.073-1.584,1.442c-0.311,0.366-0.814,1.208-0.783,2.233c0.027,1.028,0.587,2.239,2.419,3.354
	s2.946,1.708,3.896,2.032c0.949,0.321,1.739,0.373,2.933,0.407c-0.362-0.41-1.4-1.263-2.397-2.095
	c-0.998-0.828-1.96-1.632-2.171-1.939c-0.214-0.307-0.524-0.669-0.601-1.121c-0.075-0.452,0.101-1.004,0.87-1.691
	c0.763-0.687,1.429-1.294,1.939-1.812c0.51-0.514,0.862-0.935,1.018-1.249c0.728,0.352,1.929,0.908,3.126,1.422
	c1.208,0.514,2.398,0.99,3.133,1.187c0.729,0.197,1.512,0.528,2.229,0.963c0.714,0.435,1.373,0.97,1.846,1.573
	c0.877,1.104,2.716,2.036,4.852,2.498c2.143,0.463,4.575,0.449,6.639-0.338c-1.295-0.417-2.555-0.936-3.768-1.553
	c-1.619-0.818-3.364-1.925-4.496-3.257c-0.849-0.997-1.388-1.456-1.888-1.715c-0.493-0.259-0.942-0.321-1.625-0.518
	c-0.673-0.197-2.001-0.514-3.382-1.146c-1.38-0.628-2.822-1.566-3.727-3.009c-0.904-1.439-1.611-3.533-2.197-5.448
	c-0.587-1.915-1.053-3.65-1.484-4.372c-0.424-0.722-1.053-1.387-1.652-2.236c-0.721-0.989-1.212-2.126-1.436-3.33
	c-0.265-1.419-0.581-2.828-0.949-4.223c-0.358-1.294-0.763-2.405-1.238-3.126c-0.477-0.721-0.884-1.96-1.28-3.136
	c-0.39-1.177-0.77-2.291-1.194-2.75c-0.72-0.789-1.513-1.508-2.366-2.15c-1.077-0.79-2.36-1.47-3.6-1.504
	c-1.245-0.035-2.87,0.539-4.526,1.459c-1.657,0.921-3.351,2.198-4.728,3.571c-1.376,1.374-2.939,2.567-4.278,3.885
	c-1.343,1.322-2.46,2.768-2.947,4.648c-0.487,1.88-1.204,4.334-1.908,6.58s-1.397,4.286-1.85,5.331
	c-0.449,1.049-1.377,3.219-2.132,5.531c-0.755,2.312-1.339,4.766-1.104,6.373c-0.035,1.301,0.089,2.467,0.411,3.254
	c0.324,0.79,0.849,1.197,1.622,0.976c0.776-0.217,1.049-0.928,1.349-1.594c0.3-0.666,0.628-1.297,1.508-1.363
	c0.88-0.065,1.322,0.031,1.649,0.197c0.324,0.162,0.535,0.393,0.952,0.597c0.417,0.2,0.942,0.556,1.463,0.718
	c0.521,0.159,1.039,0.128,1.446-0.452c0.404-0.576,0.97-0.849,1.567-0.959c0.597-0.11,1.218-0.073,1.735-0.028
	c0.521,0.045,1.039,0.035,1.515-0.166c0.476-0.2,0.911-0.597,1.263-1.332c0.352-0.731,0.863-1,1.329-1.073
	c0.349-0.045,0.704-0.011,1.038,0.1c0.687,0.821,1.325,1.98,1.784,3.078s0.734,2.136,0.69,2.705
	c-0.108,0.871-0.322,1.725-0.639,2.543c-0.384,1.098-0.906,2.142-1.557,3.105c-0.659,0.942-1.442,2.281-1.435,3.699
	c0.007,1.415,0.807,2.912,3.316,4.172c0.014,0.935-0.059,1.456,0.266,2.129c0.321,0.669,1.035,1.49,2.612,3.025
	c0.58,0.511,1.173,1.491,1.684,2.533c0.504,1.045,0.925,2.156,1.146,2.933c0.08,0.259,0.248,0.425,0.41,0.455
	C118.058,132.191,118.206,132.084,118.255,131.794L118.255,131.794z M60.966,34.149l2.557-0.721l-2.36-3.626l-0.024,0.007
	L60.966,34.149L60.966,34.149z M86.572,31.079l2.654-0.297c1.052-0.121,1.604-0.649,1.487-1.708
	c-0.104-0.911-0.921-1.17-1.701-1.083l-2.753,0.314L86.572,31.079L86.572,31.079z M86.062,26.579l2.537-0.287
	c0.852-0.097,1.49-0.503,1.397-1.332c-0.096-0.853-0.731-1.046-1.711-0.936l-2.48,0.28L86.062,26.579L86.062,26.579z M101.32,30.133
	c1.173-0.045,2.798-0.838,2.681-3.761c-0.114-2.926-1.798-3.585-2.971-3.537c-1.173,0.048-2.798,0.839-2.681,3.761
	C98.463,29.519,100.143,30.178,101.32,30.133z M114.729,25.823c1.132,0.035,1.69-0.341,1.725-1.376
	c0.021-0.552-0.203-1.374-1.483-1.415l-2.712-0.083l-0.083,2.794L114.729,25.823L114.729,25.823z"/>

</svg>
