<?xml version="1.0" encoding="utf-8"?>
<!DOCTYPE svg PUBLIC "-//W3C//DTD SVG 1.1//EN" "http://www.w3.org/Graphics/SVG/1.1/DTD/svg11.dtd">
<svg version="1.1" id="Layer_1" xmlns="http://www.w3.org/2000/svg" xmlns:xlink="http://www.w3.org/1999/xlink" x="0px" y="0px" width="216px" height="216px" viewBox="0 0 216 216" enable-background="new 0 0 216 216" xml:space="preserve">
<g>
	<path fill="#FFFFFF" fill-opacity="0" d="M0.122,0.122h216v216h-216V0.122z"/>
	<path fill="#CC2229" d="M107.658,114.624H44.826l-31.145,54.684h63.014L107.658,114.624L107.658,114.624z M139.583,58.526
		L108.167,3.299L76.661,58.526l31.506,55.318L139.583,58.526z M139.55,169.308h63.014l-31.145-54.684h-62.833L139.55,169.308
		L139.55,169.308z"/>
	<path d="M136.755,212.155h4.706v-25.137h-4.706V212.155z M189.527,212.155h4.706v-25.137h-4.706V212.155z M48.316,212.155h4.705
		v-25.137h-4.705V212.155z M71.007,187.019H56.454v4.263h4.851v20.874h4.851v-20.874h4.851V187.019L71.007,187.019z
		 M180.105,196.573H169.51v-9.555h-4.705v25.137h4.705v-11.319h10.596v11.319h4.703v-25.137h-4.703V196.573z M33.128,198.264
		l-4.411-11.245h-5.439v25.137h4.704v-15.582l5.146,12.495l4.998-12.642v15.729h4.703v-25.137h-5.291L33.128,198.264L33.128,198.264
		z M110.872,187.021h-4.662v17.934c0,1.952-2.187,3.533-4.138,3.533c-1.951,0-4.138-1.581-4.138-3.533v-17.934h-4.748l0.069,17.714
		c0,4.535,4.279,8.212,8.814,8.212c4.536,0,8.816-3.677,8.816-8.212L110.872,187.021L110.872,187.021z M129.016,198.558
		c0.661-0.441,3.16-1.911,3.16-5.07c0-4.412-3.528-6.396-5.881-6.468h-10.898v25.137h9.647c3.823,0,7.938-1.838,7.938-6.688
		C132.983,201.277,131.001,199.659,129.016,198.558L129.016,198.558z M125.267,207.893h-5.162v-16.611h4.941
		c1.325,0,2.354,1.103,2.354,2.426s-0.515,2.866-2.278,2.866h-2.055v4.264h2.202c1.324,0,3.16,1.25,3.088,3.821
		C128.291,206.862,126.517,207.893,125.267,207.893L125.267,207.893z M72.891,203.997c-0.037,0.257,0,0.552,0.017,1.029
		c0,4.334,3.513,7.628,7.847,7.628c4.334,0,7.848-2.925,7.848-7.261c0-2.28-0.893-4.042-2.445-5.477
		c-1.267-1.17-4.878-2.925-6.284-3.785c-1.323-0.809-1.947-1.432-1.979-2.608c0-1.723,1.139-2.936,2.861-2.936
		c1.723,0,3.119,1.396,3.119,3.119l0,0c0.032,0.441,0.042,0.882,0.042,1.176h4.167v-1.176c0-4.047-2.55-7.255-7.329-7.255
		c-4.046,0-7.329,2.771-7.329,7.255c0.015,1.984,0.934,3.896,3.213,5.402c2.448,1.618,5.512,2.828,6.541,3.858
		c0.621,0.62,1.005,1.478,1.005,2.425c0,1.894-1.536,3.246-3.431,3.246s-3.418-1.666-3.651-3.246
		c-0.049-0.403-0.171-1.102-0.134-1.396L72.891,203.997L72.891,203.997L72.891,203.997z M152.345,196.132
		c-1.324-0.809-1.947-1.432-1.981-2.608c0-1.723,1.142-2.936,2.863-2.936c1.722,0.002,3.116,1.397,3.116,3.119
		c0.033,0.441,0.044,0.882,0.044,1.176h4.168v-1.176c0-4.047-2.552-7.255-7.328-7.255c-4.049,0-7.329,2.771-7.329,7.255
		c0.016,1.984,0.935,3.896,3.212,5.402c2.45,1.618,5.514,2.828,6.542,3.858c0.62,0.62,1.005,1.478,1.005,2.425
		c0,1.894-1.537,3.246-3.431,3.246c-1.895,0-3.419-1.666-3.653-3.246c-0.048-0.403-0.17-1.102-0.133-1.396h-4.08
		c-0.037,0.257,0,0.552,0.018,1.029c0,4.334,3.513,7.627,7.849,7.627c4.333,0,7.847-2.925,7.847-7.26
		c0-2.28-0.894-4.042-2.445-5.477C157.36,198.747,153.75,196.992,152.345,196.132L152.345,196.132z"/>
</g>

</svg>
