<?xml version="1.0" encoding="utf-8"?>
<!DOCTYPE svg PUBLIC "-//W3C//DTD SVG 1.1//EN" "http://www.w3.org/Graphics/SVG/1.1/DTD/svg11.dtd">
<svg version="1.1" xmlns="http://www.w3.org/2000/svg" xmlns:xlink="http://www.w3.org/1999/xlink" x="0px" y="0px" width="216px" height="216px" viewBox="0 0 216 216" enable-background="new 0 0 216 216" xml:space="preserve">
<g>
	<rect x="2" y="1.313" fill-rule="evenodd" clip-rule="evenodd" fill="#F68A24" width="213" height="213"/>
	<g>
		<path fill="#5E2915" d="M26.126,108.006c-0.244-0.009-0.513-0.025-0.815-0.06c-0.294-0.025-0.58-0.042-0.857-0.042
			c-0.269,0-0.496,0.051-0.672,0.144c-0.177,0.092-0.269,0.269-0.277,0.513c0.008,0.134,0.059,0.227,0.16,0.302
			c0.101,0.067,0.218,0.151,0.361,0.244c0.135,0.101,0.261,0.252,0.37,0.471c0.118,0.21,0.185,0.529,0.218,0.95
			c0.025,0.345,0.034,0.655,0.025,0.949c0,0.295-0.017,0.614-0.034,0.976c-0.025,0.361-0.042,0.823-0.059,1.378
			c-0.025,0.555-0.034,1.27-0.034,2.144c0,0.908,0,1.815,0,2.724c0,1.033-0.009,2.067-0.025,3.102
			c-0.017,1.033-0.025,2.067-0.025,3.102c0,2.109,0.008,3.917,0.017,5.43c0.017,1.513,0.025,2.79,0.042,3.824
			c0.017,1.034,0.034,1.892,0.05,2.563c0.017,0.664,0.025,1.219,0.034,1.64c0.008,0.42,0.008,0.781,0,1.075
			c0,0.286-0.017,0.572-0.042,0.85c-0.05,0.471-0.135,0.807-0.252,0.991c-0.118,0.186-0.244,0.312-0.386,0.37
			c-0.143,0.067-0.286,0.151-0.42,0.252c-0.168,0.151-0.277,0.354-0.328,0.614c-0.042,0.26,0.009,0.495,0.152,0.705
			c0.143,0.219,0.403,0.328,0.781,0.345c0.227,0,0.429-0.025,0.605-0.066c0.176-0.042,0.378-0.076,0.605-0.118
			s0.53-0.067,0.908-0.067h4.892c0.277,0,0.487,0.009,0.622,0.025c0.134,0.017,0.244,0.034,0.336,0.051
			c0.093,0.017,0.219,0.033,0.378,0.05c0.151,0.018,0.403,0.025,0.731,0.025c0.479-0.017,0.798-0.126,0.958-0.345
			c0.151-0.218,0.193-0.454,0.118-0.723c-0.067-0.269-0.21-0.479-0.42-0.647c-0.151-0.101-0.277-0.185-0.386-0.235
			c-0.101-0.042-0.185-0.151-0.236-0.302c-0.059-0.16-0.084-0.454-0.084-0.875v-15.533c0-0.302,0-0.613-0.017-0.933
			s-0.059-0.63-0.135-0.933c-0.059-0.177-0.109-0.354-0.168-0.538c-0.05-0.177-0.084-0.37-0.084-0.571
			c0.008-0.32,0.118-0.598,0.345-0.833c0.227-0.243,0.529-0.369,0.916-0.378c0.42,0.009,0.756,0.118,1.025,0.328
			c0.269,0.201,0.479,0.471,0.639,0.79c0.151,0.319,0.27,0.655,0.353,1c0.151,0.571,0.294,1.312,0.438,2.211
			c0.134,0.899,0.26,1.899,0.387,3c0.118,1.102,0.227,2.253,0.319,3.438c0.101,1.185,0.185,2.354,0.252,3.505
			c0.067,1.144,0.126,2.219,0.16,3.202c0.042,0.992,0.059,1.841,0.059,2.547c0,0.378-0.034,0.631-0.093,0.781
			c-0.059,0.144-0.143,0.244-0.252,0.303c-0.109,0.067-0.227,0.151-0.361,0.277c-0.168,0.193-0.244,0.412-0.235,0.656
			c0.008,0.235,0.101,0.445,0.286,0.622c0.185,0.185,0.454,0.277,0.807,0.285c0.227,0,0.446-0.025,0.656-0.059
			c0.21-0.033,0.429-0.067,0.656-0.093c0.227-0.024,0.454-0.05,0.681-0.066c0.227-0.025,0.454-0.034,0.681-0.034h4.388
			c0.328,0.009,0.664,0.034,1.009,0.076c0.345,0.05,0.664,0.075,0.958,0.084c0.294,0,0.53-0.051,0.706-0.16
			c0.151-0.109,0.252-0.252,0.303-0.437c0.051-0.177,0.051-0.361,0-0.538c-0.05-0.185-0.151-0.328-0.303-0.438
			c-0.117-0.075-0.244-0.126-0.361-0.168c-0.118-0.033-0.235-0.117-0.336-0.252c-0.109-0.135-0.193-0.378-0.261-0.739
			c-0.059-0.396-0.109-0.808-0.135-1.22c-0.025-0.42-0.05-0.882-0.067-1.395s-0.042-1.118-0.067-1.808
			c-0.025-0.681-0.076-1.496-0.134-2.438c-0.168-2.219-0.395-4.144-0.681-5.766c-0.286-1.631-0.613-3.034-0.975-4.22
			c-0.37-1.186-0.757-2.228-1.16-3.118c-0.403-0.899-0.815-1.724-1.219-2.479c-0.546-1.043-0.874-1.942-0.983-2.69
			c-0.118-0.748-0.092-1.353,0.076-1.832c0.16-0.471,0.387-0.824,0.681-1.042c0.286-0.228,0.563-0.337,0.833-0.337
			c0.185,0.009,0.37,0.06,0.554,0.16c0.177,0.093,0.378,0.193,0.589,0.285c0.218,0.102,0.454,0.152,0.723,0.16
			c0.395,0,0.79-0.093,1.185-0.285c0.387-0.202,0.714-0.496,0.975-0.892c0.269-0.395,0.403-0.891,0.412-1.496
			c-0.009-0.739-0.16-1.328-0.454-1.773s-0.664-0.765-1.109-0.958c-0.446-0.202-0.899-0.303-1.362-0.294
			c-0.849,0.008-1.563,0.201-2.144,0.571c-0.571,0.37-1.042,0.841-1.404,1.42c-0.353,0.58-0.639,1.194-0.849,1.841
			c-0.21,0.64-0.378,1.253-0.496,1.815c-0.176,0.808-0.387,1.556-0.639,2.236c-0.252,0.689-0.597,1.312-1.025,1.883
			c-0.429,0.563-1,1.076-1.715,1.529c-0.227,0.151-0.479,0.286-0.748,0.387c-0.26,0.109-0.538,0.16-0.815,0.169
			c-0.218,0.008-0.454-0.042-0.714-0.16c-0.26-0.109-0.454-0.328-0.597-0.647c-0.076-0.227-0.109-0.479-0.101-0.756
			c0.017-0.286,0.042-0.563,0.084-0.841c0.042-0.277,0.059-0.513,0.067-0.723v-4.438c-0.008-0.303-0.025-0.597-0.05-0.883
			c-0.025-0.285-0.017-0.546,0.034-0.79c0.05-0.243,0.193-0.462,0.42-0.647c0.109-0.066,0.227-0.159,0.354-0.269
			c0.126-0.117,0.193-0.294,0.202-0.538c-0.008-0.218-0.084-0.369-0.219-0.462c-0.134-0.093-0.286-0.151-0.454-0.168
			c-0.168-0.025-0.294-0.034-0.387-0.025c-0.177,0-0.345,0.009-0.496,0.034c-0.16,0.016-0.311,0.041-0.462,0.066
			c-0.176,0.025-0.344,0.051-0.504,0.067c-0.16,0.025-0.328,0.034-0.504,0.034H26.126L26.126,108.006z M69.347,143.308
			c0.378,0,0.655,0.009,0.832,0.034c0.168,0.017,0.294,0.042,0.387,0.066c0.084,0.025,0.193,0.051,0.319,0.067
			c0.126,0.025,0.336,0.034,0.63,0.034c0.328,0,0.588-0.059,0.773-0.177c0.185-0.126,0.286-0.336,0.286-0.63
			c0-0.244-0.05-0.438-0.135-0.563c-0.084-0.135-0.193-0.252-0.319-0.345c-0.134-0.093-0.252-0.193-0.353-0.303
			c-0.101-0.101-0.176-0.244-0.235-0.42c-0.059-0.177-0.101-0.429-0.118-0.74c-0.025-0.58-0.017-1.588,0.034-3.043
			c0.05-1.453,0.109-3.312,0.168-5.581c0.059-2.261,0.093-4.899,0.101-7.917c0-1.816,0-3.379,0-4.674
			c0.008-1.303,0.008-2.412,0.008-3.312c-0.008-0.908-0.008-1.673-0.017-2.304c-0.008-0.63-0.025-1.176-0.05-1.639
			c-0.025-0.471-0.05-0.916-0.093-1.336c-0.034-0.345-0.025-0.589,0.008-0.74c0.034-0.151,0.101-0.252,0.185-0.303
			c0.092-0.05,0.193-0.109,0.311-0.168c0.177-0.075,0.303-0.176,0.387-0.311c0.076-0.126,0.118-0.294,0.118-0.496
			c-0.008-0.336-0.135-0.538-0.378-0.605c-0.244-0.059-0.538-0.059-0.891-0.008c-0.353,0.059-0.706,0.092-1.051,0.109h-4.892
			c-0.176,0-0.344-0.009-0.504-0.034c-0.16-0.017-0.328-0.042-0.504-0.067c-0.151-0.025-0.303-0.051-0.462-0.066
			c-0.151-0.025-0.319-0.034-0.496-0.034c-0.395,0.009-0.664,0.101-0.807,0.261c-0.143,0.168-0.21,0.328-0.202,0.496
			c0.009,0.243,0.067,0.42,0.185,0.537c0.109,0.109,0.235,0.202,0.37,0.27c0.244,0.201,0.386,0.412,0.445,0.639
			c0.05,0.227,0.067,0.471,0.059,0.723c0,0.396-0.017,0.74-0.059,1.051c-0.042,0.312-0.118,0.647-0.235,1
			c-0.109,0.354-0.277,0.808-0.504,1.337c-0.219,0.538-0.504,1.235-0.857,2.076c-0.361,0.849-0.798,1.916-1.319,3.211
			c-0.311,0.807-0.572,1.487-0.773,2.042s-0.387,0.976-0.555,1.261c-0.16,0.286-0.345,0.429-0.538,0.429
			c-0.244-0.008-0.387-0.075-0.445-0.21c-0.05-0.126-0.067-0.261-0.059-0.395c0-0.471,0.017-0.883,0.042-1.236
			c0.025-0.353,0.05-0.697,0.084-1.025c0.034-0.319,0.059-0.681,0.084-1.075c0.025-0.387,0.042-0.857,0.042-1.404v-7.061
			c0-0.269,0.025-0.471,0.067-0.613s0.101-0.261,0.185-0.336c0.084-0.076,0.185-0.151,0.303-0.211
			c0.134-0.101,0.277-0.227,0.42-0.386c0.143-0.151,0.227-0.345,0.235-0.572c0-0.075-0.017-0.168-0.067-0.285
			c-0.05-0.118-0.151-0.228-0.303-0.319c-0.143-0.093-0.353-0.144-0.639-0.152c-0.277,0-0.479,0.009-0.605,0.025
			c-0.126,0.018-0.227,0.034-0.302,0.051s-0.193,0.033-0.345,0.051c-0.143,0.017-0.387,0.025-0.714,0.025h-5.194
			c-0.235-0.009-0.488-0.025-0.773-0.067c-0.286-0.034-0.563-0.051-0.824-0.06c-0.269-0.008-0.487,0.034-0.655,0.127
			c-0.177,0.092-0.261,0.26-0.269,0.504c0.017,0.244,0.101,0.412,0.261,0.513c0.16,0.109,0.302,0.202,0.445,0.294
			c0.193,0.16,0.311,0.354,0.345,0.589c0.042,0.235,0.042,0.462,0.008,0.672c-0.025,0.312-0.05,0.85-0.067,1.622
			c-0.025,0.782-0.042,1.715-0.067,2.8c-0.017,1.084-0.033,2.244-0.05,3.479c-0.008,1.244-0.025,2.471-0.033,3.698
			c-0.009,1.228-0.017,2.37-0.025,3.421c-0.008,1.06-0.008,1.95-0.008,2.682c0,1.009,0.008,1.967,0.025,2.866
			c0.017,0.907,0.042,1.815,0.067,2.723c0.025,0.917,0.05,1.9,0.076,2.942c0.034,1.051,0.059,2.219,0.084,3.521
			c0.008,0.471-0.025,0.815-0.092,1.025c-0.067,0.202-0.151,0.337-0.261,0.403c-0.101,0.06-0.21,0.109-0.319,0.144
			c-0.109,0.033-0.193,0.117-0.269,0.244c-0.076,0.125-0.118,0.361-0.118,0.705c0.008,0.295,0.092,0.496,0.269,0.605
			c0.168,0.109,0.378,0.16,0.639,0.151c0.303,0,0.538-0.017,0.706-0.051c0.16-0.025,0.328-0.059,0.488-0.101
			s0.387-0.075,0.689-0.101c0.294-0.034,0.723-0.051,1.294-0.051h3.278c0.479,0.009,0.925,0.042,1.32,0.109
			c0.403,0.059,0.749,0.101,1.034,0.117c0.294,0.018,0.521-0.05,0.681-0.185s0.244-0.403,0.244-0.798
			c-0.008-0.27-0.076-0.471-0.21-0.614c-0.126-0.134-0.261-0.252-0.395-0.345c-0.185-0.108-0.311-0.201-0.387-0.294
			c-0.084-0.092-0.135-0.227-0.151-0.42c-0.017-0.186-0.017-0.488-0.017-0.899v-5.497c-0.009-0.647-0.034-1.193-0.076-1.656
			c-0.042-0.454-0.076-0.891-0.084-1.312c-0.008-0.42,0.042-0.891,0.135-1.42c0.101-0.529,0.294-1.186,0.58-1.967
			c0.353-0.983,0.723-1.899,1.093-2.749c0.378-0.849,0.748-1.697,1.109-2.538s0.706-1.731,1.025-2.682
			c0.017-0.084,0.076-0.235,0.176-0.453c0.101-0.228,0.227-0.438,0.387-0.64c0.16-0.201,0.345-0.302,0.546-0.319
			c0.21,0.009,0.353,0.084,0.429,0.235c0.084,0.151,0.118,0.328,0.109,0.547s-0.034,0.42-0.076,0.622
			c-0.042,0.201-0.076,0.353-0.109,0.462c-0.084,0.336-0.168,0.766-0.235,1.277c-0.067,0.521-0.126,1.068-0.176,1.656
			c-0.042,0.597-0.084,1.168-0.101,1.715c-0.025,0.555-0.042,1.042-0.042,1.454v10.591c0.008,0.58,0.034,1.143,0.067,1.697
			c0.042,0.563,0.042,1.06,0.017,1.496c-0.034,0.438-0.143,0.766-0.336,0.992c-0.143,0.118-0.286,0.261-0.446,0.42
			c-0.16,0.169-0.244,0.396-0.26,0.689c0.008,0.261,0.076,0.454,0.202,0.58s0.286,0.202,0.471,0.235
			c0.185,0.034,0.361,0.042,0.538,0.042c0.429,0,0.731-0.008,0.917-0.025c0.185-0.017,0.328-0.033,0.429-0.05
			c0.101-0.017,0.244-0.034,0.437-0.051c0.185-0.017,0.504-0.025,0.941-0.025H69.347L69.347,143.308z M77.618,108.006
			c-0.362-0.009-0.698-0.034-0.992-0.076s-0.639-0.067-1.025-0.076c-0.109,0-0.227,0.009-0.353,0.034
			c-0.135,0.025-0.252,0.093-0.345,0.185c-0.101,0.093-0.151,0.235-0.16,0.438c0.009,0.227,0.093,0.403,0.244,0.521
			c0.143,0.126,0.302,0.243,0.462,0.369c0.16,0.118,0.261,0.295,0.303,0.521c0.025,0.101,0.025,0.21,0.017,0.328
			c-0.008,0.117-0.017,0.227-0.017,0.327c0,0.051-0.008,0.202-0.017,0.454c-0.008,0.244-0.017,0.681-0.034,1.295
			c-0.008,0.621-0.025,1.504-0.033,2.647c-0.009,1.143-0.017,2.639-0.017,4.479v11.297c0.008,1.379,0.025,2.85,0.05,4.413
			c0.034,1.563,0.051,3.286,0.051,5.169c0,0.361-0.025,0.631-0.067,0.824c-0.05,0.185-0.109,0.319-0.193,0.403
			c-0.076,0.084-0.168,0.159-0.269,0.21c-0.101,0.059-0.21,0.135-0.328,0.227c-0.202,0.193-0.311,0.404-0.328,0.622
			c-0.025,0.228,0.051,0.421,0.227,0.589c0.168,0.16,0.438,0.244,0.807,0.252c0.294,0,0.504-0.008,0.639-0.025
			c0.143-0.017,0.261-0.033,0.378-0.05c0.109-0.017,0.277-0.034,0.496-0.051c0.219-0.017,0.555-0.025,1.009-0.025h3.934
			c0.396,0,0.731,0.017,1.009,0.042c0.269,0.018,0.513,0.042,0.723,0.067c0.21,0.025,0.429,0.042,0.639,0.042
			c0.37-0.008,0.622-0.101,0.773-0.277c0.151-0.177,0.219-0.378,0.202-0.605c-0.025-0.227-0.118-0.42-0.269-0.58
			c-0.126-0.126-0.252-0.235-0.362-0.302c-0.118-0.076-0.218-0.168-0.311-0.278c-0.084-0.108-0.16-0.294-0.21-0.537
			c-0.05-0.252-0.076-0.613-0.076-1.102c0-1.025,0.009-1.899,0.017-2.613c0.008-0.715,0.025-1.337,0.034-1.85
			c0.017-0.513,0.033-0.983,0.05-1.412c0.008-0.429,0.025-0.865,0.034-1.319c0.008-0.463,0.017-0.983,0.017-1.581v-11.75
			c0-0.597-0.008-1.286-0.025-2.076c-0.017-0.799-0.033-1.614-0.05-2.454c-0.017-0.833-0.034-1.623-0.05-2.346
			c-0.017-0.731-0.025-1.336-0.025-1.799c0-0.108-0.008-0.243-0.017-0.42c0-0.177,0.008-0.345,0.05-0.521
			c0.034-0.176,0.101-0.311,0.219-0.42c0.143-0.093,0.286-0.185,0.445-0.294c0.16-0.102,0.244-0.27,0.261-0.513
			c-0.009-0.228-0.084-0.396-0.219-0.488c-0.143-0.092-0.294-0.143-0.471-0.159c-0.168-0.009-0.311-0.017-0.42-0.009
			c-0.647,0.009-1.235,0.051-1.765,0.126c-0.529,0.076-1.067,0.118-1.613,0.127H77.618L77.618,108.006z M77.164,100.138
			c-0.891,0.017-1.656,0.202-2.286,0.572c-0.631,0.369-1.11,0.823-1.446,1.378c-0.336,0.555-0.504,1.109-0.504,1.682
			c0,0.311,0.084,0.613,0.244,0.907c0.168,0.303,0.42,0.555,0.773,0.748c0.353,0.202,0.798,0.303,1.353,0.312
			c0.782-0.009,1.505-0.16,2.169-0.454c0.664-0.303,1.193-0.706,1.597-1.228c0.403-0.521,0.614-1.117,0.622-1.799
			c-0.008-0.471-0.118-0.865-0.336-1.177c-0.227-0.311-0.529-0.546-0.908-0.706C78.063,100.214,77.643,100.138,77.164,100.138
			L77.164,100.138z M85.031,100.138c-0.798,0.009-1.513,0.168-2.152,0.479c-0.639,0.319-1.143,0.731-1.513,1.235
			c-0.37,0.513-0.563,1.067-0.572,1.664c0,0.362,0.076,0.706,0.235,1.043c0.16,0.336,0.412,0.613,0.756,0.832
			c0.353,0.219,0.807,0.336,1.379,0.345c0.782-0.009,1.504-0.16,2.168-0.454c0.664-0.303,1.193-0.706,1.597-1.228
			c0.403-0.521,0.613-1.117,0.622-1.799c-0.009-0.471-0.118-0.865-0.336-1.177c-0.227-0.311-0.53-0.546-0.908-0.706
			C85.93,100.214,85.51,100.138,85.031,100.138L85.031,100.138z M90.78,108.006c-0.311,0-0.571-0.025-0.781-0.067
			s-0.412-0.076-0.605-0.118c-0.193-0.042-0.42-0.067-0.681-0.067c-0.445,0.009-0.765,0.101-0.941,0.261
			c-0.185,0.168-0.277,0.328-0.269,0.496c0.008,0.311,0.092,0.529,0.244,0.647c0.143,0.117,0.303,0.227,0.462,0.311
			c0.185,0.118,0.303,0.252,0.361,0.396c0.067,0.143,0.101,0.285,0.101,0.437s0,0.295-0.008,0.429v28.848
			c0,0.033,0,0.126-0.008,0.277c0,0.151-0.009,0.328-0.017,0.521c-0.008,0.202-0.008,0.387-0.017,0.555
			c-0.008,0.177-0.008,0.295-0.008,0.362c-0.034,0.218-0.109,0.361-0.236,0.445c-0.126,0.075-0.26,0.143-0.42,0.21
			c-0.193,0.126-0.328,0.277-0.403,0.445c-0.067,0.16-0.101,0.336-0.101,0.513c0.008,0.202,0.084,0.345,0.227,0.438
			c0.134,0.092,0.294,0.159,0.479,0.185c0.177,0.025,0.328,0.033,0.454,0.033s0.252,0,0.378-0.008c0.126,0,0.252-0.018,0.378-0.042
			c0.277-0.034,0.546-0.067,0.807-0.118c0.261-0.05,0.529-0.075,0.807-0.084h4.892c0.715,0.009,1.354,0.042,1.934,0.101
			c0.571,0.067,1.135,0.118,1.681,0.16c0.538,0.051,1.118,0.042,1.724-0.009c0.613-0.05,1.303-0.185,2.076-0.403
			c1.757-0.529,3.144-1.303,4.16-2.319c1.017-1.018,1.74-2.253,2.169-3.698c0.436-1.446,0.639-3.068,0.629-4.875
			c0.01-0.833-0.066-1.689-0.217-2.572c-0.145-0.892-0.412-1.74-0.783-2.556c-0.377-0.815-0.898-1.529-1.571-2.144
			c-0.673-0.613-1.53-1.067-2.572-1.353c-0.16-0.034-0.328-0.084-0.505-0.151c-0.176-0.067-0.327-0.16-0.453-0.295
			c-0.127-0.126-0.193-0.294-0.202-0.512c0.017-0.312,0.16-0.563,0.445-0.748c0.277-0.186,0.622-0.354,1.009-0.505
			c0.396-0.143,0.773-0.319,1.118-0.513c0.529-0.312,1.033-0.74,1.504-1.294c0.471-0.556,0.857-1.211,1.16-1.95
			c0.303-0.74,0.453-1.538,0.463-2.404c0-0.908-0.186-1.799-0.557-2.682c-0.377-0.891-0.965-1.688-1.755-2.42
			c-0.799-0.724-1.816-1.304-3.068-1.74c-1.252-0.438-2.757-0.664-4.505-0.673c-0.673,0-1.194,0.009-1.563,0.025
			c-0.37,0.017-0.639,0.042-0.824,0.06c-0.176,0.024-0.327,0.05-0.454,0.075c-0.117,0.025-0.269,0.05-0.453,0.067
			c-0.186,0.017-0.471,0.025-0.841,0.025H90.78L90.78,108.006z M97.336,114.058c0-0.354-0.017-0.706-0.051-1.051
			c-0.033-0.354-0.101-0.689-0.201-1.018c-0.06-0.227-0.118-0.445-0.193-0.655c-0.067-0.21-0.102-0.429-0.109-0.655
			c0.008-0.354,0.075-0.622,0.201-0.824c0.126-0.201,0.286-0.336,0.471-0.42c0.186-0.084,0.361-0.118,0.538-0.118
			c0.664,0.009,1.193,0.177,1.598,0.521c0.395,0.336,0.697,0.807,0.891,1.403c0.201,0.605,0.336,1.295,0.403,2.076
			c0.059,0.782,0.093,1.614,0.084,2.505c0,1.244-0.059,2.253-0.185,3.043c-0.118,0.79-0.303,1.403-0.53,1.832
			c-0.234,0.429-0.521,0.723-0.856,0.892c-0.337,0.168-0.724,0.243-1.152,0.235c-0.378,0.008-0.681-0.076-0.891-0.253
			c-0.21-0.176-0.319-0.513-0.319-1.009c0-0.302,0.025-0.579,0.059-0.849c0.042-0.269,0.093-0.538,0.143-0.815
			c0.025-0.227,0.051-0.453,0.068-0.681c0.024-0.227,0.033-0.454,0.033-0.681V114.058L97.336,114.058z M100.967,133.423
			c0,0.664-0.008,1.379-0.042,2.127c-0.033,0.757-0.101,1.504-0.201,2.235c-0.102,0.731-0.253,1.404-0.463,2.009
			c-0.21,0.605-0.487,1.085-0.841,1.446c-0.353,0.361-0.798,0.546-1.327,0.555c-0.396-0.009-0.689-0.084-0.875-0.244
			c-0.193-0.159-0.311-0.353-0.369-0.588c-0.051-0.227-0.076-0.454-0.067-0.681c0-0.312,0.008-0.631,0.033-0.958
			c0.025-0.328,0.059-0.715,0.101-1.16c0.043-0.445,0.102-1,0.169-1.665c0.075-0.705,0.134-1.42,0.185-2.143
			c0.042-0.723,0.067-1.438,0.067-2.144c0-0.21,0-0.538,0-0.975c-0.009-0.446-0.017-0.934-0.033-1.479
			c-0.018-0.538-0.043-1.076-0.076-1.598c-0.033-0.521-0.084-0.967-0.143-1.345c-0.16-0.849-0.253-1.521-0.277-2.018
			c-0.025-0.495,0.075-0.849,0.302-1.059c0.228-0.21,0.64-0.311,1.236-0.303c0.37-0.017,0.714,0.051,1.025,0.202
			c0.319,0.151,0.597,0.462,0.832,0.941c0.243,0.471,0.429,1.193,0.563,2.151c0.134,0.967,0.201,2.253,0.201,3.866V133.423z"/>
		<path fill="#5E2915" d="M115.24,108.006c-0.361,0-0.648-0.018-0.857-0.043c-0.211-0.024-0.404-0.05-0.572-0.066
			c-0.168-0.025-0.361-0.043-0.588-0.043c-0.127,0-0.252,0.025-0.395,0.067c-0.135,0.042-0.254,0.102-0.354,0.186
			c-0.102,0.084-0.152,0.185-0.16,0.303c0,0.243,0.033,0.437,0.109,0.58c0.068,0.143,0.16,0.261,0.27,0.353
			c0.117,0.084,0.244,0.177,0.377,0.277c0.203,0.16,0.396,0.412,0.572,0.731c0.186,0.328,0.336,0.672,0.471,1.017
			c0.127,0.354,0.219,0.647,0.27,0.875l2.018,7.615c0.285,1.05,0.512,1.891,0.689,2.521c0.184,0.639,0.301,1.143,0.377,1.513
			c0.068,0.378,0.076,0.689,0.025,0.941c-0.051,0.261-0.16,0.529-0.328,0.815c-0.176,0.285-0.412,0.655-0.715,1.117
			c-0.588,0.892-1.158,1.833-1.713,2.824c-0.557,0.984-1.053,2.018-1.498,3.11c-0.453,1.084-0.807,2.228-1.074,3.421
			c-0.262,1.193-0.396,2.446-0.404,3.758c0.018,1.437,0.244,2.613,0.689,3.513c0.445,0.892,1.033,1.556,1.748,1.967
			c0.715,0.421,1.479,0.631,2.303,0.622c0.799-0.008,1.438-0.143,1.908-0.387c0.471-0.243,0.816-0.555,1.043-0.916
			c0.227-0.369,0.369-0.731,0.438-1.101c0.066-0.37,0.1-0.673,0.092-0.925c-0.008-0.555-0.102-1.093-0.277-1.614
			c-0.186-0.521-0.404-1.017-0.672-1.496c-0.27-0.471-0.539-0.925-0.816-1.354c-0.277-0.42-0.512-0.814-0.705-1.185
			c-0.262-0.487-0.506-1.042-0.715-1.664c-0.219-0.614-0.328-1.219-0.346-1.815c0-0.379,0.061-0.815,0.178-1.304
			c0.109-0.487,0.26-0.982,0.453-1.487c0.186-0.513,0.395-0.975,0.623-1.403c0.227-0.438,0.453-0.782,0.68-1.043
			c0.236-0.269,0.445-0.403,0.639-0.411c0.346,0.017,0.555,0.168,0.639,0.462c0.094,0.294,0.127,0.647,0.102,1.059
			c-0.025,0.421-0.043,0.815-0.033,1.202c0.025,0.412,0.109,0.976,0.26,1.673c0.143,0.706,0.336,1.488,0.564,2.354
			c0.234,0.874,0.486,1.757,0.764,2.664c0.27,0.908,0.547,1.774,0.824,2.598c0.277,0.824,0.529,1.547,0.766,2.16
			c0.227,0.571,0.453,0.958,0.68,1.177c0.236,0.21,0.479,0.319,0.748,0.319c0.26,0.009,0.547-0.033,0.865-0.109
			c0.32-0.075,0.682-0.117,1.086-0.126h2.824c0.563,0,0.982,0.009,1.252,0.025c0.268,0.017,0.461,0.034,0.596,0.051
			c0.127,0.017,0.27,0.033,0.412,0.05c0.152,0.018,0.387,0.025,0.715,0.025c0.521-0.008,0.883-0.126,1.092-0.336
			c0.219-0.21,0.303-0.445,0.254-0.706c-0.051-0.269-0.219-0.496-0.488-0.673c-0.168-0.109-0.336-0.185-0.496-0.227
			c-0.168-0.051-0.318-0.126-0.471-0.235c-0.143-0.101-0.277-0.303-0.395-0.597c-0.068-0.16-0.127-0.354-0.186-0.58
			s-0.143-0.521-0.234-0.891c-0.094-0.37-0.219-0.857-0.387-1.455c-0.303-1.075-0.539-1.941-0.723-2.605
			c-0.178-0.664-0.32-1.193-0.422-1.597c-0.109-0.396-0.193-0.731-0.26-1c-0.076-0.277-0.143-0.563-0.227-0.85
			c-0.076-0.294-0.186-0.663-0.311-1.117c-0.127-0.454-0.303-1.051-0.531-1.808c-0.285-0.916-0.496-1.647-0.639-2.193
			c-0.15-0.547-0.252-0.976-0.303-1.278c-0.049-0.302-0.066-0.537-0.066-0.714c0.018-0.538,0.201-1.135,0.555-1.791
			c0.354-0.655,0.799-1.387,1.328-2.185c0.529-0.799,1.059-1.673,1.598-2.631c0.352-0.673,0.664-1.337,0.924-1.992
			c0.27-0.664,0.471-1.345,0.623-2.051c0.143-0.706,0.217-1.463,0.217-2.262c-0.008-1.008-0.158-1.823-0.453-2.454
			c-0.295-0.63-0.689-1.101-1.193-1.395c-0.514-0.295-1.084-0.438-1.732-0.438c-0.529,0-1.033,0.101-1.521,0.303
			c-0.479,0.201-0.873,0.513-1.176,0.925c-0.311,0.411-0.471,0.924-0.479,1.546c0,0.673,0.1,1.277,0.285,1.815
			s0.445,1.043,0.773,1.513c0.252,0.362,0.486,0.732,0.705,1.094c0.211,0.361,0.379,0.756,0.506,1.177
			c0.133,0.428,0.201,0.916,0.201,1.462c-0.008,0.647-0.152,1.244-0.42,1.79c-0.277,0.547-0.615,0.992-1.025,1.328
			c-0.404,0.328-0.816,0.505-1.229,0.513c-0.311-0.008-0.512-0.108-0.613-0.311c-0.1-0.202-0.15-0.454-0.15-0.757
			c-0.01-0.311-0.018-0.622-0.043-0.949c-0.033-0.412-0.109-0.941-0.234-1.598c-0.119-0.647-0.277-1.353-0.455-2.118
			c-0.184-0.765-0.387-1.538-0.596-2.303c-0.211-0.765-0.43-1.471-0.639-2.127c-0.211-0.646-0.412-1.177-0.598-1.588
			c-0.084-0.193-0.186-0.379-0.303-0.572c-0.125-0.193-0.293-0.353-0.504-0.487c-0.201-0.126-0.471-0.193-0.807-0.202
			c-0.152,0-0.303,0.009-0.455,0.034c-0.15,0.017-0.301,0.042-0.453,0.067c-0.201,0.025-0.402,0.042-0.605,0.042
			c-0.201,0.009-0.402,0.009-0.605,0.009H115.24L115.24,108.006z M153.266,143.308c0.303,0,0.605,0,0.898,0.009
			c0.303,0.017,0.59,0.042,0.867,0.092c0.277,0.051,0.555,0.109,0.848,0.16c0.287,0.059,0.59,0.084,0.916,0.093
			c0.127,0,0.27-0.018,0.445-0.059c0.17-0.051,0.32-0.151,0.455-0.303s0.201-0.387,0.209-0.698
			c-0.008-0.227-0.059-0.403-0.168-0.521c-0.109-0.118-0.242-0.202-0.402-0.27c-0.152-0.067-0.295-0.143-0.438-0.219
			c-0.234-0.159-0.42-0.369-0.563-0.639c-0.145-0.269-0.262-0.563-0.336-0.874c-0.076-0.311-0.127-0.613-0.16-0.907
			c-0.068-0.446-0.127-0.941-0.186-1.488c-0.059-0.546-0.127-1.202-0.201-1.967c-0.084-0.765-0.186-1.698-0.32-2.799
			c-0.227-1.908-0.438-3.623-0.639-5.152c-0.201-1.521-0.395-2.9-0.57-4.127c-0.32-2.102-0.615-3.926-0.883-5.464
			c-0.27-1.547-0.514-2.857-0.732-3.934c-0.219-1.084-0.412-1.967-0.58-2.673c-0.176-0.697-0.326-1.253-0.453-1.664
			c-0.127-0.412-0.236-0.731-0.328-0.941c-0.135-0.336-0.277-0.614-0.438-0.832c-0.168-0.211-0.387-0.361-0.672-0.454
			s-0.672-0.135-1.16-0.118c-0.488,0.018-1.125,0.076-1.916,0.193c-0.277,0.025-0.555,0.06-0.832,0.109
			c-0.277,0.042-0.555,0.093-0.832,0.144c-0.201,0.024-0.404,0.05-0.605,0.066c-0.201,0.025-0.404,0.034-0.605,0.034
			c-0.428-0.009-0.848-0.042-1.26-0.101c-0.412-0.06-0.832-0.093-1.262-0.102c-0.547,0.009-0.941,0.118-1.168,0.312
			c-0.236,0.193-0.354,0.412-0.346,0.646c0.01,0.354,0.102,0.631,0.287,0.841c0.176,0.219,0.387,0.37,0.621,0.471
			c0.219,0.093,0.43,0.21,0.631,0.345s0.369,0.345,0.496,0.622c0.125,0.277,0.193,0.673,0.186,1.193
			c-0.01,0.521-0.109,1.211-0.303,2.076c-0.303,1.235-0.689,2.715-1.186,4.455c-0.488,1.731-1,3.773-1.529,6.136
			c-0.531,2.362-1,5.103-1.422,8.221c-0.074,0.504-0.143,1-0.201,1.479c-0.059,0.487-0.127,0.966-0.201,1.445
			c-0.025,0.252-0.059,0.504-0.102,0.757c-0.041,0.252-0.076,0.504-0.102,0.756c-0.074,0.597-0.125,1.067-0.168,1.421
			c-0.041,0.345-0.084,0.63-0.135,0.849c-0.074,0.445-0.184,0.773-0.311,0.983c-0.135,0.219-0.285,0.361-0.453,0.445
			c-0.168,0.076-0.346,0.144-0.529,0.186c-0.193,0.05-0.379,0.134-0.572,0.252c-0.143,0.093-0.252,0.235-0.328,0.42
			c-0.084,0.177-0.117,0.37-0.092,0.572c0.018,0.193,0.102,0.361,0.26,0.504c0.152,0.143,0.387,0.21,0.715,0.219
			c0.186,0,0.328-0.009,0.438-0.034c0.109-0.017,0.227-0.042,0.344-0.067c0.119-0.024,0.287-0.05,0.496-0.066
			c0.211-0.025,0.506-0.034,0.891-0.034c0.59,0,1.061,0.025,1.389,0.067c0.336,0.042,0.621,0.076,0.857,0.118
			c0.227,0.041,0.494,0.066,0.781,0.066c0.16,0,0.328-0.008,0.512-0.025c0.186-0.017,0.354-0.075,0.488-0.167
			c0.135-0.093,0.201-0.253,0.209-0.463c-0.008-0.37-0.1-0.631-0.268-0.773c-0.168-0.151-0.354-0.243-0.539-0.285
			c-0.428-0.135-0.748-0.328-0.957-0.563c-0.211-0.244-0.354-0.513-0.42-0.807c-0.061-0.294-0.094-0.597-0.084-0.899
			c0-0.58,0.041-1.295,0.125-2.144c0.084-0.857,0.193-1.782,0.328-2.782s0.277-2.018,0.438-3.051
			c0.168-1.034,0.328-2.018,0.486-2.968c0.168-0.949,0.32-1.799,0.455-2.538c0.135-0.748,0.252-1.328,0.336-1.748
			c0.076-0.421,0.168-0.899,0.277-1.454c0.117-0.555,0.26-1.093,0.445-1.622c0.176-0.53,0.404-0.967,0.682-1.32
			c0.277-0.353,0.613-0.529,1.016-0.546c0.328,0.008,0.572,0.101,0.74,0.277c0.176,0.168,0.295,0.395,0.361,0.664
			c0.059,0.269,0.102,0.538,0.102,0.823c0.008,0.286,0.008,0.538,0.008,0.757c-0.018,0.689,0.018,1.462,0.109,2.303
			c0.084,0.841,0.219,1.841,0.387,2.992c0.176,1.16,0.377,2.556,0.613,4.187c0.201,1.387,0.379,2.529,0.521,3.429
			s0.27,1.631,0.361,2.186c0.092,0.563,0.168,1.025,0.211,1.387c0.041,0.361,0.066,0.706,0.066,1.018
			c0,0.513-0.043,0.907-0.109,1.202c-0.076,0.285-0.168,0.504-0.285,0.646c-0.119,0.143-0.252,0.244-0.396,0.312
			c-0.133,0.075-0.277,0.143-0.42,0.21c-0.402,0.227-0.631,0.496-0.697,0.79s0.018,0.555,0.236,0.773
			c0.217,0.227,0.563,0.345,1.016,0.353c0.328-0.008,0.648-0.033,0.951-0.092c0.311-0.051,0.613-0.109,0.916-0.16
			c0.252-0.051,0.496-0.092,0.73-0.117c0.236-0.025,0.479-0.034,0.73-0.034H153.266L153.266,143.308z M162.697,108.006
			c-0.363-0.009-0.699-0.034-0.992-0.076c-0.295-0.042-0.639-0.067-1.025-0.076c-0.109,0-0.229,0.009-0.354,0.034
			c-0.135,0.025-0.252,0.093-0.346,0.185c-0.1,0.093-0.15,0.235-0.158,0.438c0.008,0.227,0.092,0.403,0.242,0.521
			c0.145,0.126,0.303,0.243,0.463,0.369c0.16,0.118,0.262,0.295,0.303,0.521c0.025,0.101,0.025,0.21,0.018,0.328
			c-0.01,0.117-0.018,0.227-0.018,0.327c0,0.051-0.008,0.202-0.018,0.454c-0.008,0.244-0.016,0.681-0.033,1.295
			c-0.008,0.621-0.025,1.504-0.033,2.647c-0.008,1.143-0.016,2.639-0.016,4.479v11.297c0,1.018,0.008,2.009,0.023,2.992
			c0.018,0.976,0.035,2.001,0.051,3.06c0.018,1.067,0.025,2.244,0.025,3.53c0,0.37-0.025,0.656-0.066,0.85
			c-0.051,0.193-0.109,0.336-0.193,0.429c-0.076,0.092-0.168,0.168-0.27,0.235c-0.102,0.059-0.211,0.143-0.328,0.252
			c-0.135,0.159-0.219,0.345-0.244,0.555s0.043,0.395,0.186,0.555s0.402,0.244,0.766,0.252c0.201,0,0.395-0.008,0.57-0.033
			c0.186-0.018,0.361-0.042,0.539-0.067c0.227-0.025,0.461-0.042,0.705-0.042c0.244-0.009,0.479-0.009,0.707-0.009h4.033
			c0.396,0,0.732,0.017,1.01,0.042c0.268,0.018,0.512,0.042,0.723,0.067c0.209,0.025,0.428,0.042,0.639,0.042
			c0.369-0.008,0.621-0.101,0.773-0.277c0.15-0.177,0.219-0.378,0.201-0.605c-0.025-0.227-0.117-0.42-0.27-0.58
			c-0.125-0.126-0.252-0.235-0.361-0.302c-0.117-0.076-0.217-0.168-0.311-0.278c-0.084-0.108-0.16-0.294-0.209-0.537
			c-0.051-0.252-0.076-0.613-0.076-1.102c0-1.025,0.008-1.899,0.016-2.613c0.01-0.715,0.025-1.337,0.035-1.85
			c0.016-0.513,0.033-0.983,0.049-1.412c0.01-0.429,0.025-0.865,0.035-1.319c0.008-0.463,0.016-0.983,0.016-1.581v-11.75
			c0-0.597-0.008-1.286-0.025-2.076c-0.016-0.799-0.033-1.614-0.049-2.454c-0.018-0.833-0.035-1.623-0.051-2.346
			c-0.018-0.731-0.025-1.336-0.025-1.799c0-0.108-0.008-0.243-0.018-0.42c0-0.177,0.01-0.345,0.051-0.521
			c0.033-0.176,0.102-0.311,0.219-0.42c0.143-0.093,0.285-0.185,0.445-0.294c0.16-0.102,0.244-0.27,0.26-0.513
			c-0.008-0.228-0.084-0.396-0.217-0.488c-0.145-0.092-0.295-0.143-0.473-0.159c-0.168-0.009-0.311-0.017-0.42-0.009
			c-0.646,0.009-1.234,0.051-1.764,0.126c-0.531,0.076-1.068,0.118-1.615,0.127H162.697L162.697,108.006z M181.457,143.308
			c0.404,0,0.807,0.025,1.211,0.06c0.402,0.033,0.807,0.066,1.209,0.092c0.328,0.025,0.656,0.051,0.984,0.067
			c0.328,0.025,0.656,0.033,0.982,0.033c1.229-0.008,2.279-0.134,3.152-0.386c0.875-0.253,1.605-0.598,2.203-1.043
			c0.596-0.437,1.092-0.941,1.488-1.504c0.402-0.572,0.738-1.169,1.023-1.808c0.555-1.21,0.977-2.505,1.254-3.883
			c0.277-1.379,0.412-2.825,0.412-4.338c0-0.781-0.051-1.555-0.16-2.312c-0.117-0.756-0.295-1.496-0.547-2.227
			c-0.387-1.135-0.891-2.094-1.496-2.875c-0.605-0.773-1.303-1.421-2.084-1.941c-0.791-0.513-1.648-0.941-2.572-1.286
			s-1.689-0.547-2.295-0.622c-0.605-0.084-1.127-0.093-1.563-0.051c-0.43,0.051-0.867,0.093-1.287,0.118
			c-0.201,0.024-0.402,0.008-0.58-0.042c-0.184-0.059-0.336-0.193-0.453-0.421c-0.109-0.218-0.178-0.571-0.178-1.051
			c0.01-0.513,0.025-1.025,0.068-1.521c0.041-0.496,0.066-1.034,0.084-1.598c0.008-0.571-0.025-1.21-0.102-1.925
			c-0.074-0.79,0-1.412,0.227-1.866c0.219-0.445,0.514-0.781,0.883-0.991c0.371-0.21,0.723-0.345,1.076-0.396
			c0.354-0.059,0.613-0.084,0.791-0.075c0.293-0.009,0.639,0.05,1.025,0.185s0.748,0.396,1.092,0.782
			c0.346,0.387,0.598,0.958,0.758,1.706c0.066,0.411,0.133,0.849,0.193,1.303c0.059,0.454,0.143,0.891,0.268,1.295
			c0.117,0.403,0.32,0.73,0.58,0.991c0.27,0.252,0.639,0.387,1.127,0.395c0.412-0.008,0.723-0.092,0.916-0.26
			s0.318-0.37,0.369-0.605c0.059-0.244,0.084-0.471,0.076-0.697c0-0.429-0.018-0.782-0.059-1.051
			c-0.033-0.277-0.084-0.538-0.135-0.79c-0.059-0.252-0.109-0.572-0.168-0.941c-0.059-0.37-0.102-0.874-0.143-1.505
			c-0.025-0.781-0.051-1.37-0.084-1.773s-0.152-0.673-0.336-0.807c-0.186-0.144-0.514-0.202-0.992-0.193
			c-0.295,0-0.529,0.017-0.715,0.059c-0.176,0.034-0.336,0.084-0.471,0.135c-0.143,0.05-0.303,0.108-0.479,0.159
			c-0.152,0.051-0.313,0.076-0.48,0.084c-0.168,0.018-0.326,0.018-0.479,0.018h-8.926c-0.648,0-1.219-0.025-1.715-0.067
			s-0.941-0.076-1.346-0.118c-0.402-0.042-0.799-0.067-1.176-0.067c-0.346,0.009-0.605,0.06-0.773,0.151
			c-0.168,0.093-0.27,0.202-0.32,0.319c-0.049,0.118-0.074,0.211-0.066,0.286c0.018,0.235,0.092,0.387,0.227,0.462
			c0.143,0.067,0.27,0.126,0.379,0.193c0.15,0.109,0.244,0.277,0.293,0.496c0.051,0.227,0.068,0.454,0.068,0.681
			c0,0.235,0,0.412-0.01,0.538c0,0.235-0.008,0.631-0.016,1.169c-0.008,0.537-0.018,1.143-0.033,1.823
			c-0.01,0.681-0.025,1.345-0.035,2.009c-0.008,0.656-0.016,1.228-0.016,1.707v10.641c0,0.513,0,1.177,0.008,1.976
			c0,0.798,0.008,1.673,0.018,2.622c0.008,0.941,0.016,1.892,0.033,2.841c0.008,0.95,0.025,1.833,0.041,2.64
			c0.018,0.815,0.035,1.487,0.051,2.025c0.018,0.277,0.018,0.505-0.008,0.664c-0.018,0.168-0.066,0.303-0.135,0.403
			c-0.076,0.102-0.176,0.202-0.311,0.295c-0.143,0.101-0.285,0.227-0.445,0.387c-0.16,0.15-0.244,0.344-0.262,0.571
			c0.01,0.361,0.135,0.597,0.379,0.723c0.244,0.118,0.547,0.168,0.924,0.151c0.379-0.017,0.773-0.059,1.186-0.118
			c0.412-0.059,0.799-0.092,1.145-0.101H181.457L181.457,143.308z M182.264,127.271c0-0.546-0.008-0.992-0.033-1.328
			c-0.018-0.345-0.051-0.631-0.084-0.874c-0.043-0.235-0.084-0.479-0.135-0.723c-0.025-0.277-0.059-0.547-0.092-0.824
			c-0.035-0.269-0.059-0.571-0.059-0.891c-0.01-0.312,0.033-0.622,0.133-0.925c0.094-0.311,0.303-0.555,0.623-0.739
			c0.125-0.076,0.26-0.127,0.412-0.16c0.143-0.033,0.293-0.042,0.445-0.042c0.16-0.008,0.354,0.025,0.588,0.084
			c0.234,0.067,0.479,0.219,0.73,0.438c0.244,0.227,0.471,0.571,0.664,1.033c0.186,0.463,0.32,1.085,0.387,1.875
			c0.025,0.479,0.043,0.958,0.043,1.445c0.008,0.479,0.008,0.976,0.008,1.479v10.894c0.01,0.411-0.008,0.849-0.059,1.312
			c-0.041,0.462-0.16,0.898-0.336,1.311s-0.471,0.748-0.865,1.009c-0.152,0.101-0.313,0.168-0.488,0.202
			c-0.168,0.033-0.344,0.05-0.521,0.05c-0.402-0.008-0.723-0.109-0.967-0.303c-0.242-0.201-0.428-0.445-0.537-0.739
			c-0.109-0.286-0.16-0.58-0.16-0.874c0-0.235,0.01-0.403,0.025-0.521c0.018-0.117,0.033-0.227,0.059-0.311
			c0.018-0.084,0.043-0.202,0.068-0.345c0.016-0.144,0.033-0.354,0.049-0.639c0.018-0.21,0.035-0.505,0.051-0.883
			c0.018-0.37,0.025-0.748,0.033-1.126c0.01-0.379,0.018-0.682,0.018-0.917V127.271z"/>
	</g>
	<g>
		<path fill="#5E2915" d="M32.422,78.528c0.125,0.161,0.25,0.324,0.372,0.494c0.124,0.169,0.234,0.338,0.334,0.508
			c0.098,0.167,0.175,0.328,0.229,0.481c0.055,0.153,0.076,0.292,0.063,0.415s-0.07,0.226-0.172,0.308L33.037,80.9l0.222,0.283
			l0.385-0.3c0.129-0.102,0.232-0.189,0.309-0.261c0.076-0.073,0.14-0.137,0.191-0.193c0.053-0.058,0.108-0.112,0.163-0.168
			c0.057-0.056,0.128-0.117,0.218-0.184c0.088-0.068,0.206-0.147,0.354-0.242c0.157-0.101,0.302-0.187,0.43-0.26
			c0.13-0.074,0.254-0.147,0.375-0.222c0.12-0.072,0.245-0.159,0.375-0.261c0.362-0.288,0.631-0.59,0.81-0.91
			c0.178-0.318,0.28-0.637,0.305-0.958c0.026-0.321-0.01-0.628-0.104-0.923c-0.095-0.292-0.238-0.559-0.424-0.796
			c-0.219-0.277-0.456-0.483-0.709-0.616c-0.255-0.135-0.512-0.214-0.776-0.239c-0.264-0.024-0.521-0.009-0.768,0.046
			c-0.25,0.056-0.481,0.134-0.694,0.238c-0.213,0.104-0.394,0.215-0.546,0.334l-0.203,0.158l-0.071-0.091
			c0.243-0.263,0.423-0.526,0.541-0.795c0.117-0.268,0.183-0.528,0.194-0.784c0.01-0.255-0.02-0.495-0.094-0.722
			c-0.075-0.224-0.181-0.426-0.32-0.605c-0.135-0.172-0.301-0.319-0.501-0.437c-0.201-0.117-0.426-0.194-0.677-0.226
			s-0.519-0.007-0.806,0.078c-0.287,0.085-0.581,0.245-0.885,0.48c-0.181,0.141-0.33,0.266-0.451,0.372
			c-0.12,0.107-0.222,0.203-0.304,0.286c-0.082,0.083-0.155,0.159-0.219,0.231c-0.065,0.07-0.133,0.139-0.204,0.205
			c-0.068,0.066-0.15,0.139-0.246,0.214c-0.098,0.076-0.184,0.136-0.256,0.176c-0.072,0.04-0.141,0.077-0.207,0.11
			c-0.068,0.034-0.144,0.08-0.23,0.139c-0.086,0.057-0.193,0.143-0.323,0.255l0.222,0.283l0.273-0.213
			c0.116-0.088,0.232-0.127,0.35-0.116c0.118,0.012,0.235,0.058,0.352,0.141c0.118,0.082,0.232,0.186,0.346,0.311
			c0.113,0.124,0.223,0.258,0.33,0.397s0.209,0.271,0.305,0.397L32.422,78.528L32.422,78.528z M31.11,75.284
			c-0.13-0.167-0.263-0.34-0.396-0.521c-0.135-0.18-0.265-0.36-0.394-0.535c-0.126-0.175-0.242-0.338-0.347-0.486
			c-0.106-0.15-0.193-0.275-0.265-0.377l0.688-0.538c0.178-0.137,0.373-0.218,0.582-0.246c0.209-0.027,0.417-0.013,0.625,0.042
			c0.207,0.056,0.397,0.14,0.571,0.251c0.175,0.11,0.318,0.237,0.429,0.379c0.171,0.219,0.281,0.457,0.332,0.71
			c0.051,0.253,0.042,0.51-0.025,0.771c-0.068,0.26-0.196,0.51-0.386,0.75c-0.188,0.239-0.439,0.457-0.75,0.649L31.11,75.284
			L31.11,75.284z M32.019,76.448c0.083-0.082,0.166-0.16,0.25-0.233c0.083-0.074,0.171-0.145,0.263-0.216
			c0.345-0.267,0.679-0.452,1.001-0.554c0.324-0.101,0.631-0.131,0.923-0.091c0.291,0.039,0.562,0.139,0.814,0.301
			c0.25,0.16,0.476,0.37,0.676,0.626c0.22,0.285,0.362,0.554,0.429,0.803c0.067,0.249,0.081,0.479,0.042,0.687
			c-0.038,0.208-0.105,0.394-0.199,0.555c-0.096,0.162-0.198,0.296-0.303,0.405c-0.106,0.11-0.194,0.189-0.263,0.24
			c-0.229,0.18-0.429,0.3-0.6,0.366c-0.173,0.064-0.329,0.08-0.468,0.045c-0.138-0.034-0.272-0.108-0.401-0.225
			c-0.127-0.118-0.262-0.266-0.404-0.448c-0.143-0.182-0.302-0.389-0.48-0.622L32.019,76.448L32.019,76.448z M40.223,76.202
			l-0.168-0.317l0.238-0.126c0.124-0.068,0.2-0.167,0.232-0.293c0.031-0.128,0.029-0.273-0.002-0.438
			c-0.035-0.166-0.089-0.336-0.163-0.515c-0.073-0.179-0.153-0.352-0.24-0.524c-0.088-0.171-0.169-0.327-0.246-0.466l-1.845-3.47
			c-0.115-0.222-0.229-0.431-0.341-0.628c-0.112-0.197-0.227-0.364-0.345-0.502c-0.119-0.141-0.244-0.231-0.375-0.278
			c-0.132-0.048-0.275-0.03-0.432,0.05l-0.238,0.127l-0.168-0.317l0.374-0.199c0.08-0.042,0.158-0.082,0.236-0.116
			c0.079-0.035,0.161-0.066,0.247-0.097c0.074-0.025,0.148-0.05,0.22-0.078c0.073-0.027,0.144-0.058,0.212-0.094
			c0.115-0.062,0.204-0.113,0.266-0.151c0.059-0.039,0.106-0.073,0.138-0.1s0.063-0.053,0.094-0.079
			c0.03-0.025,0.069-0.056,0.123-0.092c0.053-0.033,0.13-0.079,0.232-0.133l0.374-0.199l0.169,0.318l-0.238,0.126
			c-0.129,0.071-0.213,0.164-0.252,0.282c-0.04,0.116-0.046,0.245-0.02,0.391c0.026,0.144,0.072,0.294,0.138,0.45
			c0.064,0.157,0.138,0.31,0.219,0.461c0.08,0.151,0.154,0.291,0.225,0.418l1.881,3.538c0.115,0.22,0.231,0.435,0.351,0.646
			c0.12,0.213,0.247,0.4,0.373,0.561c0.13,0.162,0.264,0.272,0.404,0.335c0.139,0.065,0.286,0.059,0.438-0.02l0.238-0.126
			l0.169,0.317l-0.408,0.217c-0.063,0.033-0.13,0.062-0.201,0.087c-0.07,0.027-0.141,0.05-0.209,0.072
			c-0.171,0.062-0.335,0.135-0.495,0.219c-0.147,0.078-0.289,0.168-0.424,0.269c-0.056,0.044-0.115,0.09-0.177,0.133
			c-0.061,0.044-0.122,0.084-0.185,0.118L40.223,76.202L40.223,76.202z M47.732,72.517l-0.146-0.329l-0.375,0.167
			c-0.17,0.071-0.326,0.068-0.466-0.01c-0.142-0.077-0.275-0.208-0.397-0.388c-0.121-0.183-0.237-0.391-0.348-0.627
			c-0.11-0.237-0.219-0.477-0.326-0.722l-2.324-5.221c0.068-0.052,0.138-0.102,0.209-0.145c0.072-0.044,0.146-0.083,0.222-0.118
			c0.297-0.132,0.597-0.212,0.891-0.24c0.297-0.027,0.582,0.001,0.851,0.085c0.272,0.085,0.518,0.227,0.738,0.426
			c0.22,0.199,0.402,0.462,0.548,0.784c0.119,0.272,0.192,0.542,0.217,0.81c0.025,0.268,0.009,0.519-0.051,0.754
			c-0.062,0.236-0.159,0.443-0.297,0.622c-0.137,0.178-0.309,0.313-0.515,0.407c-0.082,0.036-0.163,0.072-0.242,0.103
			c-0.08,0.031-0.165,0.057-0.254,0.076l0.13,0.293c0.072-0.011,0.157-0.032,0.254-0.062c0.096-0.031,0.2-0.071,0.312-0.12
			c0.229-0.102,0.443-0.237,0.637-0.406c0.195-0.167,0.365-0.357,0.509-0.576s0.252-0.455,0.324-0.709
			c0.074-0.255,0.101-0.521,0.083-0.798c-0.016-0.278-0.088-0.561-0.214-0.849c-0.136-0.305-0.313-0.573-0.531-0.804
			c-0.22-0.23-0.478-0.406-0.774-0.529c-0.296-0.124-0.625-0.179-0.99-0.161c-0.366,0.015-0.761,0.116-1.187,0.303
			c-0.211,0.094-0.384,0.173-0.52,0.238c-0.135,0.064-0.244,0.12-0.327,0.165c-0.085,0.045-0.155,0.083-0.21,0.117
			c-0.059,0.033-0.113,0.067-0.167,0.098c-0.052,0.03-0.118,0.066-0.193,0.104c-0.074,0.038-0.173,0.084-0.294,0.138
			c-0.084,0.037-0.178,0.074-0.281,0.111c-0.103,0.039-0.218,0.079-0.35,0.121c-0.13,0.044-0.279,0.094-0.45,0.151l0.146,0.329
			c0.229-0.118,0.421-0.169,0.576-0.149c0.156,0.02,0.293,0.097,0.408,0.233c0.118,0.138,0.23,0.322,0.339,0.557
			c0.108,0.233,0.231,0.504,0.365,0.814l1.583,3.555c0.075,0.164,0.149,0.334,0.224,0.512c0.074,0.178,0.14,0.352,0.195,0.527
			c0.056,0.174,0.092,0.339,0.108,0.491c0.016,0.152,0.001,0.288-0.042,0.4c-0.045,0.114-0.131,0.201-0.255,0.259l-0.246,0.11
			l0.146,0.329l0.434-0.193c0.065-0.029,0.127-0.063,0.187-0.102c0.061-0.036,0.12-0.077,0.18-0.117
			c0.077-0.048,0.156-0.096,0.24-0.14c0.083-0.044,0.167-0.083,0.249-0.12c0.076-0.034,0.155-0.067,0.238-0.097
			c0.083-0.03,0.165-0.055,0.247-0.077c0.076-0.02,0.149-0.039,0.219-0.06c0.071-0.02,0.142-0.044,0.212-0.076L47.732,72.517
			L47.732,72.517z M49.942,62.724l0.258-0.079c0.175-0.051,0.321-0.042,0.441,0.03c0.12,0.071,0.224,0.185,0.31,0.346
			c0.087,0.16,0.164,0.346,0.232,0.563c0.07,0.216,0.14,0.443,0.211,0.683L52.6,68.21c0.042,0.132,0.086,0.282,0.134,0.447
			c0.049,0.167,0.089,0.335,0.125,0.51c0.033,0.173,0.048,0.339,0.046,0.494c-0.003,0.158-0.034,0.292-0.093,0.405
			c-0.059,0.114-0.158,0.194-0.296,0.238l-0.258,0.079l0.105,0.344l0.454-0.139c0.074-0.022,0.146-0.051,0.216-0.084
			c0.071-0.031,0.141-0.065,0.211-0.1c0.076-0.037,0.155-0.072,0.237-0.104s0.163-0.059,0.243-0.083
			c0.16-0.049,0.323-0.085,0.49-0.11c0.078-0.01,0.155-0.021,0.231-0.035c0.077-0.012,0.152-0.029,0.226-0.051l0.442-0.135
			l-0.105-0.344L54.75,69.62c-0.165,0.048-0.308,0.032-0.43-0.045c-0.125-0.078-0.232-0.202-0.326-0.371
			c-0.092-0.169-0.176-0.362-0.253-0.585c-0.077-0.221-0.149-0.452-0.22-0.691l-0.578-1.892c0.178-0.041,0.375-0.088,0.597-0.142
			c0.219-0.051,0.448-0.108,0.687-0.169c0.236-0.061,0.473-0.122,0.704-0.186c0.231-0.064,0.449-0.126,0.65-0.188
			c0.203-0.062,0.417-0.132,0.644-0.208c0.228-0.076,0.458-0.158,0.688-0.239c0.232-0.083,0.454-0.164,0.666-0.244
			c0.211-0.078,0.402-0.15,0.572-0.215l0.578,1.891c0.075,0.239,0.144,0.471,0.204,0.696c0.061,0.228,0.1,0.436,0.118,0.627
			c0.016,0.192-0.003,0.354-0.061,0.488c-0.06,0.133-0.17,0.227-0.333,0.279l-0.258,0.079l0.105,0.344l0.442-0.135
			c0.074-0.022,0.146-0.051,0.216-0.084c0.071-0.031,0.141-0.065,0.211-0.1c0.152-0.074,0.308-0.135,0.468-0.183
			c0.08-0.024,0.163-0.048,0.248-0.067c0.086-0.02,0.171-0.034,0.254-0.046c0.078-0.01,0.155-0.021,0.231-0.035
			c0.077-0.012,0.152-0.029,0.226-0.051l0.454-0.139l-0.105-0.344l-0.258,0.079c-0.14,0.041-0.266,0.03-0.379-0.032
			c-0.112-0.06-0.212-0.154-0.304-0.283c-0.088-0.127-0.168-0.273-0.236-0.436c-0.07-0.164-0.131-0.327-0.184-0.492
			c-0.052-0.163-0.098-0.313-0.139-0.445l-1.205-3.942c-0.075-0.239-0.145-0.466-0.207-0.684c-0.064-0.218-0.104-0.416-0.122-0.596
			c-0.02-0.182,0.002-0.334,0.063-0.46c0.059-0.128,0.177-0.218,0.349-0.272l0.258-0.079l-0.105-0.344l-0.405,0.124
			c-0.08,0.024-0.156,0.054-0.229,0.085c-0.073,0.034-0.147,0.07-0.223,0.106c-0.083,0.039-0.164,0.072-0.244,0.104
			c-0.08,0.031-0.163,0.061-0.249,0.087c-0.147,0.045-0.299,0.078-0.454,0.098c-0.09,0.014-0.182,0.029-0.275,0.046
			c-0.092,0.02-0.182,0.04-0.268,0.066l-0.405,0.124l0.105,0.344l0.258-0.079c0.168-0.049,0.313-0.04,0.438,0.032
			c0.124,0.069,0.23,0.183,0.324,0.342c0.093,0.157,0.176,0.342,0.251,0.557c0.074,0.214,0.148,0.44,0.219,0.681l0.473,1.547
			c-0.184,0.087-0.406,0.189-0.661,0.3c-0.257,0.11-0.544,0.225-0.859,0.343c-0.317,0.12-0.657,0.237-1.023,0.349
			c-0.367,0.112-0.714,0.205-1.042,0.283c-0.33,0.078-0.632,0.144-0.907,0.196c-0.273,0.05-0.512,0.089-0.715,0.12l-0.473-1.547
			c-0.076-0.239-0.141-0.467-0.199-0.687c-0.058-0.22-0.092-0.419-0.103-0.602c-0.012-0.184,0.015-0.338,0.077-0.464
			c0.063-0.129,0.177-0.218,0.345-0.271l0.258-0.079l-0.105-0.344l-0.405,0.124c-0.086,0.026-0.172,0.06-0.26,0.095
			c-0.087,0.038-0.171,0.077-0.253,0.115c-0.14,0.07-0.284,0.127-0.431,0.172c-0.086,0.026-0.171,0.048-0.255,0.067
			c-0.083,0.019-0.17,0.037-0.26,0.05c-0.083,0.012-0.165,0.024-0.244,0.037c-0.078,0.015-0.158,0.033-0.237,0.057l-0.405,0.124
			L49.942,62.724L49.942,62.724z M63.794,67.411l0.461-0.115c0.069-0.017,0.138-0.041,0.208-0.07
			c0.07-0.026,0.138-0.056,0.203-0.086c0.156-0.065,0.315-0.118,0.477-0.158c0.174-0.043,0.352-0.075,0.533-0.093
			c0.071-0.004,0.145-0.01,0.22-0.02c0.075-0.008,0.147-0.019,0.216-0.036l0.449-0.112l-0.087-0.349l-0.262,0.065
			c-0.167,0.039-0.311,0.009-0.43-0.087c-0.121-0.096-0.224-0.235-0.311-0.423c-0.084-0.187-0.161-0.399-0.227-0.634
			c-0.065-0.235-0.126-0.472-0.185-0.713l-0.969-3.888c-0.037-0.141-0.075-0.295-0.117-0.461s-0.076-0.332-0.101-0.5
			c-0.026-0.167-0.035-0.324-0.025-0.47c0.01-0.148,0.047-0.272,0.114-0.375c0.066-0.105,0.17-0.175,0.313-0.213l0.262-0.065
			l-0.087-0.349l-0.411,0.103c-0.112,0.028-0.198,0.054-0.257,0.073c-0.061,0.021-0.106,0.042-0.142,0.06
			c-0.035,0.018-0.073,0.036-0.11,0.054c-0.038,0.018-0.091,0.041-0.159,0.064c-0.069,0.021-0.168,0.051-0.295,0.082
			c-0.075,0.019-0.151,0.031-0.228,0.04c-0.077,0.01-0.155,0.017-0.233,0.022c-0.09,0.009-0.178,0.021-0.263,0.035
			c-0.084,0.015-0.17,0.034-0.257,0.055l-0.411,0.103l0.087,0.349l0.262-0.065c0.171-0.041,0.314-0.023,0.431,0.056
			c0.116,0.077,0.216,0.195,0.297,0.36c0.081,0.163,0.152,0.353,0.213,0.571c0.061,0.218,0.121,0.449,0.179,0.692l0.951,3.813
			c0.041,0.153,0.081,0.324,0.125,0.511c0.042,0.188,0.078,0.375,0.106,0.567c0.028,0.192,0.039,0.37,0.033,0.539
			c-0.009,0.168-0.042,0.309-0.104,0.425c-0.062,0.115-0.159,0.192-0.296,0.228l-0.262,0.065L63.794,67.411L63.794,67.411z
			 M75.186,58.475c-0.007-0.038-0.016-0.078-0.028-0.119c-0.012-0.041-0.021-0.081-0.027-0.119
			c-0.023-0.133-0.048-0.287-0.073-0.465s-0.051-0.363-0.074-0.554s-0.044-0.375-0.064-0.547c-0.018-0.175-0.031-0.325-0.04-0.449
			c-0.046,0.025-0.108,0.054-0.19,0.083c-0.08,0.029-0.192,0.056-0.333,0.081c-0.144,0.023-0.33,0.041-0.56,0.053
			c-0.127,0.003-0.273,0.003-0.435-0.001c-0.161-0.004-0.345,0-0.555,0.009c-0.209,0.011-0.447,0.04-0.715,0.085
			c-0.31,0.052-0.618,0.12-0.918,0.203c-0.301,0.083-0.589,0.195-0.865,0.333c-0.299,0.153-0.583,0.342-0.855,0.57
			c-0.271,0.23-0.518,0.493-0.737,0.791c-0.219,0.295-0.403,0.623-0.548,0.981c-0.144,0.357-0.239,0.742-0.284,1.149
			c-0.045,0.41-0.03,0.842,0.048,1.296c0.094,0.522,0.263,0.997,0.507,1.423c0.243,0.427,0.547,0.799,0.912,1.117
			c0.367,0.316,0.777,0.572,1.235,0.765c0.456,0.194,0.945,0.318,1.468,0.374c0.521,0.056,1.058,0.035,1.615-0.061
			c0.158-0.028,0.314-0.068,0.466-0.117c0.154-0.049,0.303-0.104,0.45-0.162c0.288-0.118,0.524-0.229,0.712-0.339
			c0.187-0.109,0.339-0.223,0.455-0.343c0.113-0.12,0.207-0.254,0.279-0.403c0.069-0.149,0.132-0.323,0.187-0.52
			c0.054-0.199,0.113-0.431,0.179-0.697l-0.417,0.074c-0.07,0.23-0.172,0.454-0.303,0.671c-0.131,0.219-0.295,0.421-0.489,0.607
			c-0.193,0.184-0.419,0.344-0.676,0.478c-0.259,0.133-0.549,0.227-0.871,0.286c-0.369,0.065-0.748,0.073-1.135,0.022
			c-0.389-0.049-0.767-0.16-1.137-0.334c-0.369-0.172-0.713-0.411-1.03-0.714c-0.318-0.303-0.591-0.676-0.82-1.116
			c-0.23-0.442-0.399-0.956-0.504-1.541c-0.075-0.45-0.088-0.856-0.038-1.223c0.048-0.367,0.143-0.695,0.276-0.983
			c0.134-0.289,0.29-0.54,0.465-0.754c0.178-0.211,0.355-0.391,0.533-0.53c0.287-0.231,0.604-0.416,0.95-0.552
			c0.345-0.137,0.701-0.237,1.064-0.299c0.384-0.065,0.712-0.076,0.99-0.029c0.277,0.044,0.511,0.127,0.7,0.246
			c0.188,0.119,0.341,0.259,0.458,0.417c0.117,0.16,0.207,0.32,0.268,0.483c0.061,0.163,0.104,0.31,0.128,0.442L75.186,58.475
			L75.186,58.475z M77.709,57.889c0.022-0.309,0.068-0.566,0.14-0.776c0.074-0.209,0.167-0.38,0.283-0.511
			c0.115-0.131,0.25-0.231,0.402-0.306c0.153-0.073,0.321-0.13,0.506-0.167c0.183-0.038,0.382-0.069,0.59-0.092l0.765-0.094
			l0.742,6.042c0.029,0.216,0.053,0.433,0.072,0.651c0.018,0.22,0.019,0.422,0.003,0.61c-0.018,0.188-0.066,0.342-0.148,0.464
			c-0.08,0.122-0.205,0.196-0.374,0.219l-0.268,0.033l0.043,0.357l0.472-0.058c0.083-0.01,0.163-0.026,0.24-0.046
			c0.078-0.019,0.157-0.041,0.238-0.064c0.175-0.047,0.353-0.082,0.531-0.104c0.077-0.009,0.155-0.017,0.237-0.021
			c0.082-0.003,0.162-0.002,0.24,0.001c0.097,0.001,0.194,0.002,0.291-0.001c0.097-0.001,0.193-0.007,0.289-0.019l0.396-0.048
			l-0.044-0.357l-0.268,0.033c-0.147,0.016-0.273-0.014-0.38-0.089c-0.106-0.075-0.195-0.181-0.268-0.316
			c-0.073-0.135-0.132-0.286-0.176-0.451c-0.046-0.167-0.084-0.333-0.111-0.497c-0.027-0.167-0.047-0.316-0.064-0.452l-0.737-6.003
			l0.943-0.116c0.38-0.047,0.684-0.065,0.917-0.052c0.23,0.01,0.407,0.051,0.528,0.121c0.123,0.069,0.208,0.164,0.26,0.289
			c0.05,0.126,0.086,0.276,0.104,0.456c0.014,0.095,0.025,0.191,0.037,0.287s0.015,0.192,0.008,0.29l0.395-0.049
			c0.016-0.431,0.023-0.796,0.025-1.092s-0.001-0.537-0.006-0.72c-0.005-0.185-0.014-0.322-0.021-0.414
			c-0.18,0.048-0.374,0.096-0.588,0.144c-0.212,0.045-0.46,0.095-0.743,0.145c-0.285,0.052-0.621,0.106-1.01,0.167
			c-0.39,0.059-0.85,0.124-1.382,0.195c-0.202,0.025-0.472,0.056-0.807,0.088c-0.336,0.035-0.719,0.063-1.153,0.09
			c-0.433,0.025-0.895,0.037-1.391,0.039c0,0.102,0,0.192-0.003,0.272c-0.001,0.08-0.005,0.167-0.011,0.26
			c-0.006,0.091-0.014,0.209-0.022,0.348c-0.009,0.139-0.021,0.317-0.035,0.537c-0.014,0.217-0.032,0.494-0.054,0.824L77.709,57.889
			L77.709,57.889z M86.677,55.078l0.269-0.023c0.192-0.015,0.345,0.034,0.454,0.147c0.109,0.113,0.191,0.269,0.243,0.471
			c0.054,0.199,0.091,0.426,0.115,0.675c0.024,0.251,0.044,0.507,0.065,0.77l0.326,3.723c0.024,0.249,0.037,0.5,0.042,0.75
			c0.002,0.249-0.012,0.48-0.047,0.691c-0.033,0.211-0.095,0.387-0.187,0.519c-0.094,0.135-0.223,0.211-0.391,0.229l-0.205,0.018
			l0.031,0.358l0.538-0.047c0.134-0.012,0.249-0.026,0.34-0.045c0.091-0.017,0.175-0.035,0.251-0.052
			c0.076-0.02,0.16-0.036,0.251-0.052c0.091-0.019,0.206-0.033,0.34-0.045c0.096-0.008,0.195-0.008,0.296-0.004
			c0.102,0.006,0.2,0.01,0.298,0.017c0.169,0.011,0.337,0.02,0.507,0.027c0.168,0.004,0.34,0,0.513-0.013
			c0.186-0.014,0.37-0.041,0.552-0.076c0.18-0.035,0.355-0.089,0.523-0.16c0.205-0.084,0.407-0.206,0.604-0.36
			c0.197-0.154,0.374-0.344,0.53-0.566c0.156-0.224,0.276-0.479,0.358-0.77c0.08-0.291,0.107-0.613,0.078-0.967
			c-0.033-0.362-0.134-0.676-0.306-0.942c-0.169-0.267-0.396-0.483-0.68-0.651c-0.286-0.168-0.614-0.286-0.989-0.352
			c-0.376-0.068-0.785-0.082-1.229-0.043c-0.422,0.037-0.841,0.112-1.256,0.226l-0.153-1.753c-0.024-0.253-0.043-0.495-0.054-0.719
			c-0.013-0.224-0.005-0.425,0.02-0.601c0.028-0.176,0.088-0.317,0.18-0.424c0.094-0.107,0.234-0.169,0.42-0.188l0.269-0.023
			l-0.031-0.358l-0.422,0.037c-0.089,0.008-0.181,0.022-0.274,0.039c-0.093,0.019-0.183,0.04-0.271,0.061
			c-0.07,0.012-0.142,0.027-0.216,0.042c-0.074,0.015-0.146,0.028-0.216,0.034c-0.167,0.015-0.334,0.017-0.502,0.005
			c-0.091-0.005-0.181-0.01-0.272-0.013c-0.09,0-0.18,0.001-0.27,0.009l-0.474,0.041L86.677,55.078L86.677,55.078z M88.941,58.85
			c0.121-0.023,0.244-0.041,0.369-0.056c0.125-0.013,0.249-0.024,0.371-0.034c0.386-0.032,0.718-0.016,1.001,0.047
			c0.282,0.063,0.521,0.165,0.714,0.301c0.194,0.136,0.353,0.298,0.472,0.483c0.121,0.185,0.212,0.381,0.273,0.593
			c0.061,0.209,0.101,0.421,0.117,0.632c0.019,0.237,0.01,0.448-0.03,0.63c-0.04,0.182-0.098,0.341-0.174,0.475
			c-0.074,0.133-0.156,0.246-0.245,0.337c-0.089,0.091-0.173,0.166-0.252,0.219c-0.079,0.055-0.14,0.094-0.188,0.118
			c-0.123,0.067-0.254,0.115-0.394,0.142c-0.139,0.03-0.285,0.049-0.439,0.06c-0.315,0.025-0.564,0.002-0.745-0.07
			c-0.181-0.072-0.313-0.179-0.397-0.319c-0.085-0.141-0.141-0.304-0.169-0.486s-0.051-0.37-0.064-0.564L88.941,58.85L88.941,58.85z
			 M101.128,55.644c0.055-0.305,0.128-0.557,0.221-0.757c0.095-0.201,0.205-0.361,0.334-0.479c0.128-0.118,0.272-0.204,0.432-0.263
			c0.16-0.056,0.332-0.096,0.521-0.114c0.186-0.019,0.387-0.028,0.597-0.03l0.771-0.013l0.106,6.086
			c0.006,0.218,0.008,0.437,0.003,0.655c-0.005,0.22-0.025,0.422-0.061,0.606c-0.037,0.185-0.101,0.334-0.195,0.447
			c-0.092,0.113-0.224,0.173-0.396,0.178l-0.27,0.004l0.007,0.36l0.475-0.009c0.084-0.001,0.165-0.009,0.244-0.021
			c0.079-0.01,0.16-0.024,0.243-0.039c0.18-0.029,0.358-0.045,0.538-0.048c0.077-0.001,0.157,0,0.238,0.004s0.16,0.014,0.238,0.026
			c0.096,0.011,0.193,0.022,0.289,0.029c0.097,0.009,0.193,0.014,0.289,0.012l0.398-0.007l-0.006-0.359l-0.271,0.005
			c-0.147,0-0.271-0.042-0.368-0.129c-0.098-0.086-0.175-0.2-0.232-0.342c-0.059-0.143-0.102-0.298-0.128-0.467
			c-0.029-0.171-0.049-0.339-0.059-0.506c-0.009-0.169-0.014-0.319-0.017-0.456l-0.105-6.048l0.95-0.017
			c0.383-0.007,0.688,0.007,0.917,0.044c0.228,0.035,0.4,0.094,0.513,0.175c0.115,0.082,0.189,0.185,0.228,0.315
			c0.037,0.13,0.057,0.284,0.056,0.463c0.004,0.097,0.006,0.193,0.007,0.289c0.002,0.096-0.005,0.192-0.022,0.289l0.399-0.007
			c0.061-0.427,0.105-0.79,0.139-1.083c0.033-0.293,0.055-0.534,0.068-0.716c0.014-0.185,0.02-0.322,0.023-0.414
			c-0.184,0.029-0.382,0.056-0.6,0.081c-0.216,0.023-0.468,0.046-0.755,0.066c-0.288,0.022-0.629,0.041-1.021,0.061
			c-0.394,0.018-0.858,0.034-1.396,0.05c-0.203,0.003-0.475,0.006-0.812,0.003c-0.338,0-0.721-0.013-1.156-0.031
			c-0.433-0.02-0.894-0.057-1.387-0.106c-0.011,0.101-0.021,0.191-0.031,0.271c-0.01,0.079-0.023,0.165-0.039,0.257
			c-0.016,0.09-0.034,0.207-0.058,0.344s-0.055,0.313-0.092,0.53c-0.037,0.215-0.083,0.487-0.14,0.814L101.128,55.644z"/>
		<path fill="#5E2915" d="M113.334,62.237v-0.36h-0.412c-0.184-0.004-0.324-0.07-0.422-0.199s-0.166-0.302-0.205-0.516
			c-0.037-0.216-0.059-0.454-0.063-0.715s-0.006-0.524-0.004-0.792v-5.714c0.084-0.02,0.168-0.037,0.25-0.047
			c0.084-0.011,0.168-0.017,0.252-0.017c0.324,0,0.631,0.049,0.91,0.144c0.283,0.096,0.531,0.237,0.744,0.424
			c0.213,0.188,0.381,0.417,0.5,0.689s0.18,0.586,0.182,0.94c-0.002,0.297-0.045,0.573-0.131,0.828
			c-0.086,0.254-0.203,0.477-0.352,0.667c-0.152,0.191-0.326,0.34-0.525,0.448c-0.197,0.107-0.408,0.16-0.635,0.163
			c-0.09,0-0.178,0-0.264-0.004s-0.174-0.015-0.264-0.034v0.321c0.07,0.02,0.156,0.035,0.256,0.047
			c0.102,0.011,0.213,0.017,0.334,0.017c0.252,0,0.502-0.037,0.748-0.111c0.246-0.073,0.479-0.178,0.699-0.319
			c0.221-0.142,0.416-0.313,0.584-0.516c0.172-0.203,0.305-0.435,0.4-0.695c0.1-0.261,0.148-0.548,0.15-0.863
			c0-0.334-0.053-0.65-0.158-0.95c-0.107-0.3-0.271-0.565-0.492-0.798s-0.498-0.417-0.84-0.55c-0.34-0.135-0.742-0.203-1.207-0.205
			c-0.23,0-0.422,0.002-0.57,0.006c-0.15,0.004-0.273,0.011-0.367,0.017c-0.096,0.006-0.176,0.013-0.24,0.021
			c-0.066,0.006-0.129,0.015-0.191,0.021c-0.061,0.006-0.135,0.013-0.219,0.017c-0.084,0.004-0.193,0.007-0.324,0.007
			c-0.094,0-0.193-0.004-0.303-0.013c-0.109-0.007-0.23-0.018-0.367-0.032c-0.139-0.013-0.295-0.028-0.475-0.045v0.359
			c0.258-0.015,0.455,0.017,0.588,0.099c0.135,0.081,0.229,0.208,0.277,0.379c0.051,0.173,0.08,0.387,0.084,0.646
			c0.004,0.257,0.006,0.554,0.002,0.893v3.891c0.002,0.18,0,0.366-0.004,0.559c-0.006,0.193-0.016,0.379-0.037,0.561
			c-0.02,0.182-0.053,0.347-0.1,0.492s-0.117,0.263-0.201,0.349c-0.088,0.085-0.201,0.13-0.34,0.132h-0.27v0.36h0.477
			c0.07,0,0.141-0.007,0.211-0.017c0.07-0.009,0.141-0.021,0.213-0.035c0.09-0.013,0.182-0.023,0.275-0.03s0.186-0.008,0.275-0.008
			c0.084,0,0.17,0.002,0.258,0.008s0.174,0.017,0.256,0.03c0.078,0.013,0.152,0.026,0.225,0.035c0.074,0.01,0.148,0.017,0.227,0.017
			H113.334L113.334,62.237z M122.068,53.637c-0.178,0.557-0.348,1.065-0.514,1.526c-0.164,0.461-0.322,0.893-0.479,1.29
			c-0.154,0.397-0.307,0.777-0.457,1.143c-0.258,0.638-0.494,1.227-0.709,1.768c-0.213,0.543-0.416,1.015-0.605,1.418
			c-0.189,0.402-0.377,0.715-0.563,0.938c-0.186,0.221-0.377,0.33-0.578,0.327l-0.283-0.01l-0.012,0.359l0.461,0.016
			c0.064,0.002,0.131-0.002,0.199-0.01c0.07-0.006,0.137-0.017,0.201-0.027c0.193-0.019,0.387-0.025,0.578-0.018
			c0.18,0.006,0.359,0.025,0.539,0.057c0.076,0.016,0.15,0.031,0.223,0.042c0.072,0.014,0.146,0.022,0.225,0.025l0.396,0.014
			l0.014-0.359l-0.373-0.013c-0.18-0.009-0.309-0.058-0.381-0.15c-0.074-0.093-0.109-0.214-0.104-0.364
			c0.002-0.152,0.031-0.322,0.088-0.509c0.053-0.187,0.119-0.379,0.195-0.578l0.396-1.04c0.305,0.041,0.625,0.071,0.961,0.089
			s0.695,0.035,1.078,0.046c0.141,0.002,0.281,0.001,0.424-0.009c0.143-0.008,0.283-0.018,0.426-0.026
			c0.09,0.25,0.176,0.518,0.26,0.808c0.084,0.288,0.158,0.585,0.219,0.892c0.047,0.233,0.055,0.417,0.029,0.56
			c-0.027,0.141-0.078,0.242-0.152,0.303c-0.076,0.064-0.16,0.093-0.256,0.087l-0.309-0.011l-0.012,0.359l0.32,0.011
			c0.09,0.003,0.182,0,0.277-0.007c0.094-0.005,0.186-0.015,0.275-0.025c0.232-0.018,0.465-0.022,0.695-0.014
			c0.09,0.003,0.178,0.008,0.264,0.018c0.084,0.009,0.172,0.023,0.262,0.039c0.076,0.015,0.15,0.031,0.223,0.042
			c0.072,0.013,0.146,0.022,0.225,0.025l0.475,0.017l0.012-0.359l-0.32-0.011c-0.143-0.007-0.27-0.052-0.381-0.133
			c-0.107-0.079-0.201-0.178-0.281-0.294c-0.076-0.116-0.143-0.234-0.195-0.35c-0.051-0.118-0.09-0.217-0.119-0.298
			c-0.041-0.104-0.09-0.249-0.152-0.436c-0.064-0.185-0.135-0.393-0.209-0.622c-0.076-0.228-0.152-0.459-0.229-0.695
			c-0.076-0.234-0.148-0.453-0.213-0.654c-0.066-0.204-0.121-0.373-0.162-0.505c-0.27-0.838-0.496-1.574-0.682-2.202
			c-0.184-0.629-0.334-1.16-0.449-1.592c-0.117-0.433-0.207-0.774-0.27-1.022L122.068,53.637L122.068,53.637z M122.104,55.206
			c0.072,0.337,0.15,0.652,0.236,0.946c0.084,0.294,0.176,0.589,0.273,0.883c0.098,0.295,0.197,0.609,0.301,0.942
			c0.105,0.333,0.213,0.708,0.326,1.123c-0.137,0.008-0.273,0.017-0.412,0.022c-0.141,0.003-0.277,0.005-0.412,0
			c-0.189-0.007-0.387-0.016-0.592-0.025c-0.203-0.012-0.404-0.023-0.6-0.038c-0.195-0.014-0.375-0.03-0.539-0.049
			c0.146-0.408,0.277-0.764,0.391-1.068c0.113-0.302,0.215-0.571,0.303-0.806c0.088-0.234,0.168-0.452,0.238-0.653
			c0.074-0.201,0.141-0.404,0.203-0.61c0.064-0.203,0.129-0.428,0.193-0.672L122.104,55.206L122.104,55.206z M127.906,64.882
			c0.041-0.128,0.094-0.266,0.154-0.416c0.064-0.15,0.133-0.297,0.207-0.443c0.076-0.146,0.154-0.281,0.232-0.4
			c0.082-0.119,0.158-0.212,0.234-0.28c0.127-0.109,0.27-0.181,0.422-0.217c0.156-0.037,0.322-0.053,0.498-0.047
			s0.359,0.017,0.551,0.032l4.369,0.305c0.15,0.009,0.293,0.029,0.424,0.06c0.131,0.03,0.244,0.083,0.342,0.159
			c0.096,0.076,0.166,0.184,0.215,0.322c0.049,0.141,0.066,0.322,0.051,0.548c-0.004,0.041-0.01,0.098-0.021,0.174
			c-0.012,0.074-0.025,0.159-0.043,0.25c-0.018,0.089-0.035,0.178-0.055,0.262c-0.02,0.085-0.039,0.156-0.061,0.215l0.463,0.02
			c0.105-0.332,0.199-0.621,0.277-0.869c0.076-0.248,0.146-0.468,0.199-0.662c0.057-0.193,0.104-0.373,0.145-0.542
			c0.039-0.167,0.072-0.334,0.1-0.504c-0.111,0.018-0.234,0.029-0.373,0.034c-0.135,0.008-0.271,0.009-0.406,0.006
			c-0.139-0.003-0.26-0.009-0.369-0.017c-0.063,0-0.117-0.015-0.162-0.039c-0.043-0.024-0.088-0.082-0.133-0.168
			c-0.045-0.089-0.098-0.23-0.156-0.423c-0.061-0.191-0.139-0.456-0.23-0.793s-0.211-0.766-0.352-1.289
			c-0.072-0.271-0.15-0.547-0.229-0.831c-0.082-0.285-0.164-0.588-0.248-0.914c-0.084-0.328-0.17-0.688-0.26-1.083
			c-0.09-0.397-0.18-0.841-0.273-1.334c-0.092-0.493-0.186-1.049-0.281-1.669l-0.656,0.005c-0.074,0.244-0.17,0.531-0.289,0.866
			c-0.121,0.333-0.256,0.692-0.406,1.077c-0.15,0.386-0.307,0.774-0.467,1.171c-0.164,0.394-0.32,0.773-0.475,1.14
			c-0.152,0.365-0.293,0.694-0.422,0.99c-0.127,0.293-0.232,0.533-0.316,0.718c-0.203,0.456-0.367,0.826-0.492,1.109
			c-0.125,0.285-0.225,0.501-0.305,0.652c-0.078,0.149-0.154,0.251-0.223,0.302s-0.146,0.073-0.236,0.063
			c-0.043-0.003-0.102-0.012-0.174-0.023c-0.072-0.012-0.15-0.028-0.232-0.044c-0.084-0.017-0.162-0.035-0.232-0.053
			c-0.072-0.02-0.131-0.037-0.174-0.053c-0.041,0.295-0.088,0.586-0.141,0.868c-0.053,0.284-0.115,0.567-0.189,0.85
			c-0.072,0.282-0.16,0.572-0.262,0.868L127.906,64.882L127.906,64.882z M132.576,55.721c-0.006,0.118-0.004,0.242,0.004,0.375
			c0.006,0.134,0.021,0.29,0.045,0.467c0.023,0.178,0.055,0.39,0.098,0.636c0.043,0.248,0.098,0.543,0.164,0.887
			c0.059,0.302,0.131,0.644,0.223,1.024c0.09,0.379,0.191,0.782,0.305,1.204s0.232,0.847,0.357,1.276s0.254,0.844,0.379,1.245
			c-0.199,0.001-0.385,0.001-0.559-0.005c-0.172-0.003-0.346-0.011-0.516-0.021c-0.174-0.01-0.359-0.021-0.561-0.035
			c-0.201-0.016-0.432-0.032-0.688-0.05c-0.215-0.015-0.41-0.029-0.582-0.043c-0.174-0.014-0.338-0.028-0.488-0.043
			c-0.154-0.015-0.309-0.032-0.467-0.05c-0.156-0.017-0.326-0.035-0.508-0.059c0.1-0.229,0.219-0.503,0.357-0.827
			c0.139-0.32,0.289-0.67,0.449-1.05c0.162-0.377,0.324-0.767,0.49-1.167c0.166-0.4,0.326-0.795,0.482-1.183
			s0.297-0.751,0.424-1.092s0.234-0.638,0.316-0.898c0.082-0.258,0.135-0.456,0.158-0.599L132.576,55.721L132.576,55.721z
			 M147.818,65.094l0.045-0.357l-0.268-0.033c-0.201-0.027-0.344-0.103-0.43-0.227c-0.084-0.123-0.131-0.279-0.139-0.466
			c-0.008-0.188,0.002-0.395,0.035-0.617c0.029-0.223,0.061-0.448,0.09-0.672l0.6-4.882c0.006-0.049,0.014-0.111,0.023-0.187
			c0.012-0.074,0.025-0.174,0.043-0.297c0.02-0.123,0.043-0.284,0.074-0.478s0.07-0.438,0.119-0.728l-0.445,0.036
			c-0.209,0.218-0.449,0.465-0.721,0.742c-0.268,0.275-0.555,0.565-0.854,0.867c-0.299,0.302-0.598,0.602-0.896,0.899
			c-0.299,0.295-0.58,0.573-0.848,0.832s-0.502,0.48-0.705,0.668c-0.225,0.208-0.445,0.409-0.66,0.6
			c-0.217,0.194-0.443,0.396-0.682,0.609c-0.234,0.215-0.498,0.456-0.783,0.728c-0.285,0.271-0.609,0.591-0.973,0.957l-0.09-0.011
			c0.021-0.105,0.045-0.231,0.074-0.381c0.027-0.15,0.059-0.31,0.09-0.481s0.061-0.342,0.09-0.511
			c0.031-0.171,0.059-0.332,0.082-0.479s0.041-0.273,0.055-0.377l0.4-3.263c0.023-0.204,0.049-0.406,0.08-0.604
			c0.031-0.201,0.078-0.381,0.137-0.542s0.143-0.287,0.248-0.375s0.246-0.123,0.42-0.104l0.268,0.033l0.045-0.357l-0.422-0.052
			c-0.088-0.011-0.18-0.013-0.27-0.012c-0.092,0.004-0.182,0.006-0.273,0.01c-0.078,0.003-0.156,0-0.238-0.008
			c-0.082-0.005-0.16-0.015-0.236-0.024c-0.082-0.01-0.164-0.02-0.242-0.034c-0.078-0.012-0.158-0.028-0.238-0.051
			c-0.088-0.026-0.174-0.049-0.256-0.075c-0.084-0.023-0.17-0.042-0.26-0.053l-0.383-0.047l-0.043,0.357l0.268,0.033
			c0.18,0.024,0.311,0.092,0.389,0.201c0.082,0.111,0.129,0.25,0.141,0.42c0.014,0.169,0.008,0.354-0.014,0.554
			c-0.023,0.202-0.049,0.406-0.076,0.612l-0.566,4.614c-0.031,0.261-0.064,0.505-0.094,0.735c-0.031,0.227-0.064,0.456-0.102,0.682
			c-0.033,0.229-0.074,0.472-0.119,0.731l0.52-0.014c0.404-0.328,0.764-0.625,1.076-0.89c0.316-0.265,0.6-0.513,0.857-0.74
			c0.256-0.228,0.502-0.45,0.734-0.667c0.234-0.217,0.475-0.44,0.721-0.668c0.246-0.23,0.514-0.48,0.807-0.75
			c0.264-0.239,0.514-0.467,0.75-0.685c0.238-0.214,0.469-0.434,0.695-0.656c0.227-0.222,0.457-0.463,0.691-0.724
			c0.238-0.26,0.484-0.553,0.748-0.881l0.059,0.046c-0.066,0.208-0.123,0.399-0.166,0.579c-0.043,0.178-0.08,0.351-0.109,0.52
			c-0.029,0.167-0.055,0.338-0.078,0.515c-0.021,0.174-0.045,0.361-0.068,0.561l-0.338,2.753c-0.027,0.242-0.063,0.479-0.102,0.71
			c-0.037,0.233-0.09,0.439-0.156,0.625c-0.063,0.184-0.152,0.329-0.26,0.43c-0.109,0.101-0.246,0.145-0.414,0.126l-0.254-0.031
			l-0.045,0.357l0.459,0.056c0.064,0.008,0.131,0.01,0.199,0.009c0.068,0,0.137,0,0.201,0.001c0.096-0.001,0.195-0.002,0.297,0
			c0.102,0.003,0.199,0.009,0.295,0.021c0.1,0.012,0.186,0.027,0.25,0.046c0.066,0.017,0.129,0.033,0.189,0.053
			c0.057,0.018,0.125,0.037,0.201,0.055c0.076,0.02,0.174,0.036,0.293,0.051L147.818,65.094L147.818,65.094z M154.814,58.148
			l0.074-0.352l-0.414-0.088c-0.08-0.017-0.152-0.028-0.215-0.033c-0.063-0.002-0.125-0.007-0.193-0.008
			c-0.064-0.003-0.143-0.008-0.232-0.019c-0.09-0.008-0.199-0.027-0.334-0.056c-0.125-0.027-0.217-0.05-0.275-0.067
			c-0.061-0.02-0.102-0.037-0.133-0.052c-0.029-0.015-0.061-0.031-0.094-0.046c-0.035-0.016-0.092-0.037-0.166-0.059
			c-0.076-0.021-0.189-0.049-0.344-0.082l-0.414-0.088L152,57.55l0.264,0.056c0.145,0.033,0.25,0.099,0.32,0.2
			c0.07,0.103,0.111,0.225,0.127,0.371c0.016,0.147,0.014,0.302-0.008,0.471c-0.018,0.167-0.047,0.333-0.082,0.499
			s-0.068,0.318-0.1,0.458l-0.852,4.007c-0.029,0.143-0.066,0.301-0.107,0.472c-0.041,0.173-0.09,0.344-0.146,0.514
			c-0.057,0.169-0.123,0.322-0.197,0.457c-0.074,0.137-0.16,0.241-0.256,0.313c-0.098,0.071-0.205,0.097-0.324,0.073l-0.264-0.056
			l-0.076,0.352c0.311,0.044,0.559,0.08,0.746,0.104c0.186,0.024,0.328,0.043,0.426,0.054c0.1,0.012,0.17,0.018,0.217,0.021
			c0.045,0.005,0.084,0.009,0.113,0.013c0.031,0.002,0.07,0.011,0.121,0.021c0.115,0.024,0.223,0.051,0.324,0.078
			c0.102,0.028,0.213,0.061,0.332,0.097c0.119,0.034,0.264,0.076,0.432,0.122c0.168,0.047,0.377,0.102,0.623,0.164
			c0.246,0.063,0.547,0.136,0.904,0.216c0.354,0.082,0.781,0.177,1.277,0.282c0.215,0.046,0.451,0.091,0.703,0.141
			c0.252,0.047,0.508,0.093,0.762,0.138c0.258,0.043,0.5,0.086,0.727,0.124c0.229,0.04,0.424,0.073,0.59,0.099
			c0.164,0.028,0.283,0.047,0.355,0.06l-0.002,0.065c-0.273,0.066-0.521,0.143-0.746,0.231c-0.225,0.088-0.445,0.203-0.66,0.341
			c-0.213,0.138-0.438,0.315-0.68,0.534c-0.105,0.098-0.221,0.207-0.35,0.326c-0.125,0.12-0.264,0.23-0.41,0.333
			c-0.146,0.102-0.303,0.181-0.469,0.233c-0.166,0.05-0.344,0.058-0.527,0.021c-0.086-0.016-0.18-0.044-0.277-0.085
			c-0.102-0.043-0.193-0.109-0.283-0.198c-0.084-0.09-0.154-0.217-0.205-0.379c-0.164,0.097-0.352,0.175-0.563,0.235
			c0.115,0.151,0.279,0.293,0.492,0.422c0.215,0.128,0.502,0.233,0.861,0.312c0.289,0.066,0.586,0.068,0.898,0.009
			c0.311-0.059,0.641-0.196,0.994-0.415c0.354-0.216,0.736-0.531,1.152-0.943c0.16-0.161,0.299-0.299,0.418-0.418
			c0.123-0.121,0.232-0.215,0.332-0.289c0.1-0.073,0.201-0.117,0.305-0.137c0.102-0.018,0.213-0.005,0.338,0.037l0.135-0.641
			c-0.117,0.03-0.23,0.049-0.342,0.058c-0.111,0.012-0.223,0.005-0.336-0.019c-0.109-0.019-0.213-0.043-0.318-0.072
			c-0.104-0.028-0.191-0.08-0.266-0.157c-0.074-0.077-0.119-0.194-0.141-0.356c-0.02-0.162,0.002-0.387,0.061-0.672l1.014-4.773
			c0.051-0.248,0.105-0.483,0.158-0.704c0.057-0.222,0.125-0.416,0.201-0.583c0.076-0.166,0.176-0.289,0.293-0.369
			c0.117-0.082,0.264-0.104,0.438-0.069l0.264,0.056l0.074-0.352l-0.414-0.088c-0.088-0.019-0.176-0.031-0.262-0.04
			c-0.086-0.007-0.174-0.013-0.264-0.019c-0.078-0.003-0.158-0.012-0.238-0.022c-0.082-0.011-0.16-0.023-0.234-0.039
			c-0.076-0.016-0.152-0.037-0.23-0.06s-0.154-0.048-0.227-0.077c-0.086-0.031-0.174-0.063-0.264-0.093
			c-0.09-0.028-0.178-0.054-0.266-0.072l-0.416-0.088l-0.074,0.352l0.264,0.056c0.18,0.04,0.305,0.119,0.377,0.242
			c0.072,0.12,0.107,0.27,0.104,0.453c-0.004,0.181-0.027,0.381-0.074,0.604c-0.045,0.223-0.094,0.455-0.148,0.7l-1.236,5.816
			c-0.26-0.038-0.555-0.085-0.881-0.146c-0.324-0.06-0.666-0.131-1.023-0.209c-0.359-0.076-0.719-0.161-1.08-0.251
			c-0.361-0.088-0.709-0.182-1.045-0.277c-0.336-0.096-0.641-0.191-0.92-0.288l1.211-5.703c0.031-0.151,0.064-0.31,0.1-0.478
			c0.035-0.17,0.078-0.334,0.127-0.494c0.049-0.158,0.113-0.3,0.188-0.424c0.074-0.122,0.168-0.213,0.277-0.273
			c0.107-0.06,0.24-0.074,0.396-0.043L154.814,58.148L154.814,58.148z M161.609,68.517l0.459,0.123
			c0.068,0.019,0.141,0.031,0.217,0.04c0.074,0.011,0.148,0.018,0.219,0.023c0.168,0.019,0.332,0.049,0.494,0.092
			c0.174,0.046,0.344,0.105,0.512,0.177c0.064,0.031,0.131,0.062,0.201,0.09c0.07,0.03,0.139,0.055,0.207,0.073l0.445,0.12
			l0.094-0.347l-0.26-0.07c-0.166-0.046-0.277-0.143-0.334-0.284c-0.061-0.142-0.082-0.314-0.066-0.521
			c0.016-0.204,0.053-0.427,0.109-0.664s0.117-0.474,0.184-0.713l1.037-3.87c0.035-0.141,0.076-0.294,0.121-0.46
			c0.045-0.165,0.094-0.327,0.154-0.486c0.059-0.159,0.127-0.3,0.207-0.423c0.08-0.125,0.172-0.215,0.281-0.272
			c0.109-0.059,0.234-0.07,0.377-0.034l0.26,0.07l0.094-0.347l-0.41-0.11c-0.111-0.03-0.199-0.049-0.26-0.061
			c-0.064-0.01-0.113-0.015-0.152-0.017c-0.041-0.001-0.082-0.004-0.123-0.006c-0.041-0.002-0.1-0.009-0.17-0.021
			c-0.07-0.015-0.172-0.038-0.297-0.071c-0.074-0.02-0.148-0.046-0.219-0.076c-0.072-0.028-0.145-0.061-0.215-0.093
			c-0.084-0.036-0.166-0.069-0.246-0.097c-0.082-0.028-0.166-0.053-0.252-0.077l-0.41-0.109l-0.094,0.347l0.262,0.07
			c0.168,0.047,0.285,0.132,0.35,0.258c0.064,0.124,0.094,0.276,0.084,0.459c-0.008,0.181-0.037,0.382-0.09,0.603
			s-0.111,0.451-0.18,0.692l-1.016,3.795c-0.039,0.154-0.088,0.323-0.139,0.508c-0.055,0.185-0.113,0.366-0.182,0.547
			c-0.07,0.181-0.146,0.342-0.232,0.487c-0.09,0.143-0.188,0.25-0.297,0.322c-0.111,0.07-0.232,0.09-0.369,0.056l-0.262-0.07
			L161.609,68.517L161.609,68.517z M174.467,65.972l-1.336,3.668c-0.09,0.241-0.174,0.481-0.25,0.72
			c-0.078,0.238-0.131,0.46-0.164,0.669c-0.033,0.207-0.027,0.385,0.02,0.534s0.146,0.253,0.305,0.313l0.289,0.105l-0.121,0.338
			l-0.545-0.198c-0.113-0.042-0.201-0.078-0.264-0.105c-0.063-0.029-0.111-0.056-0.145-0.078c-0.035-0.022-0.068-0.043-0.1-0.064
			c-0.031-0.02-0.072-0.044-0.123-0.069c-0.051-0.023-0.123-0.054-0.219-0.089c-0.156-0.057-0.318-0.102-0.484-0.135
			c-0.07-0.012-0.143-0.025-0.217-0.042c-0.072-0.016-0.145-0.035-0.211-0.059l-0.445-0.163l0.123-0.338l0.252,0.092
			c0.127,0.043,0.246,0.041,0.354-0.006c0.111-0.048,0.215-0.129,0.309-0.243c0.098-0.113,0.186-0.245,0.268-0.4
			c0.08-0.153,0.156-0.314,0.225-0.48c0.068-0.169,0.131-0.331,0.188-0.488l2.029-5.575c-0.223-0.154-0.465-0.273-0.723-0.363
			c-0.258-0.087-0.52-0.137-0.785-0.146s-0.52,0.027-0.764,0.111c-0.246,0.084-0.465,0.223-0.66,0.416
			c-0.197,0.195-0.354,0.45-0.471,0.767c-0.107,0.303-0.148,0.591-0.123,0.862c0.023,0.273,0.098,0.521,0.223,0.746
			c0.123,0.225,0.281,0.418,0.471,0.579c0.189,0.163,0.396,0.283,0.619,0.365l0.568,0.206l-0.084,0.229
			c-0.191-0.015-0.359-0.01-0.506,0.012c-0.146,0.024-0.279,0.065-0.4,0.123c-0.123,0.058-0.242,0.13-0.359,0.22
			c-0.119,0.087-0.246,0.188-0.381,0.303c-0.371,0.31-0.73,0.594-1.078,0.856c-0.346,0.262-0.686,0.479-1.02,0.654
			c-0.332,0.175-0.66,0.288-0.988,0.337c-0.324,0.048-0.652,0.016-0.98-0.102c-0.17-0.062-0.33-0.147-0.48-0.257l0.123-0.338
			c0.045,0.023,0.09,0.044,0.135,0.061c0.043,0.018,0.09,0.035,0.139,0.052c0.172,0.063,0.332,0.089,0.479,0.081
			c0.148-0.01,0.295-0.05,0.443-0.124c0.145-0.074,0.305-0.176,0.473-0.306c0.17-0.129,0.363-0.285,0.58-0.464
			c0.217-0.178,0.467-0.378,0.754-0.6c0.209-0.167,0.414-0.314,0.621-0.441c0.205-0.125,0.426-0.219,0.662-0.276
			c0.234-0.058,0.5-0.068,0.791-0.03l0.041-0.109c-0.566-0.242-0.996-0.52-1.293-0.832c-0.293-0.314-0.471-0.65-0.529-1.008
			c-0.061-0.359-0.02-0.728,0.119-1.103c0.131-0.355,0.313-0.649,0.547-0.88c0.234-0.231,0.508-0.398,0.818-0.506
			c0.311-0.106,0.646-0.149,1.01-0.132c0.363,0.016,0.736,0.096,1.125,0.237c0.162,0.059,0.314,0.124,0.459,0.192
			c0.143,0.068,0.295,0.138,0.455,0.211c0.162,0.075,0.35,0.15,0.564,0.23c0.27,0.098,0.514,0.183,0.736,0.25
			c0.223,0.07,0.441,0.122,0.656,0.162l-0.121,0.338c-0.248-0.108-0.451-0.15-0.607-0.128c-0.158,0.022-0.291,0.102-0.395,0.239
			c-0.107,0.137-0.205,0.324-0.293,0.561C174.682,65.372,174.578,65.65,174.467,65.972z"/>
		<path fill="#5E2915" d="M180.768,66.088c-0.146,0.243-0.281,0.464-0.406,0.667s-0.25,0.402-0.375,0.602
			c-0.125,0.198-0.262,0.414-0.408,0.644s-0.316,0.494-0.506,0.791c-0.188,0.298-0.408,0.647-0.662,1.046
			c-0.139,0.218-0.283,0.451-0.439,0.697c-0.154,0.245-0.314,0.489-0.484,0.731c-0.168,0.243-0.34,0.467-0.514,0.676
			c-0.174,0.207-0.348,0.382-0.523,0.524c-0.176,0.141-0.348,0.236-0.518,0.282c-0.17,0.046-0.334,0.028-0.494-0.054l-0.238-0.127
			l-0.168,0.318l0.406,0.217c0.063,0.033,0.127,0.06,0.189,0.082c0.064,0.023,0.131,0.044,0.199,0.066
			c0.09,0.034,0.178,0.069,0.264,0.106c0.084,0.038,0.168,0.08,0.252,0.125c0.148,0.078,0.289,0.168,0.424,0.269
			c0.063,0.047,0.125,0.095,0.189,0.139c0.063,0.046,0.127,0.087,0.195,0.124l0.42,0.224l0.168-0.318l-0.248-0.132
			c-0.129-0.07-0.211-0.161-0.252-0.267c-0.041-0.106-0.053-0.219-0.033-0.337c0.018-0.122,0.049-0.233,0.092-0.344
			c0.047-0.109,0.09-0.203,0.131-0.277c0.057-0.105,0.129-0.237,0.219-0.396c0.086-0.158,0.186-0.331,0.293-0.52
			c0.107-0.188,0.221-0.382,0.336-0.581s0.227-0.391,0.338-0.577c0.109-0.187,0.211-0.356,0.305-0.509
			c0.104-0.168,0.205-0.33,0.303-0.487c0.096-0.157,0.195-0.318,0.295-0.482c0.1-0.166,0.205-0.345,0.314-0.538
			c0.113-0.192,0.232-0.41,0.365-0.65l0.092,0.048c-0.039,0.297-0.072,0.581-0.098,0.853c-0.029,0.273-0.051,0.552-0.072,0.839
			c-0.02,0.286-0.035,0.599-0.053,0.939c-0.016,0.341-0.029,0.726-0.041,1.159c-0.014,0.433-0.027,0.931-0.043,1.495
			c-0.014,0.563-0.029,1.211-0.047,1.945l0.26,0.139c0.131-0.103,0.248-0.198,0.357-0.28c0.109-0.085,0.221-0.169,0.336-0.253
			c0.113-0.085,0.242-0.179,0.387-0.281c0.143-0.104,0.313-0.224,0.512-0.366c0.199-0.139,0.438-0.306,0.715-0.503
			c0.416-0.292,0.789-0.562,1.123-0.806c0.332-0.246,0.635-0.474,0.904-0.685c0.273-0.211,0.525-0.415,0.758-0.608
			c0.23-0.192,0.455-0.383,0.67-0.572l0.102,0.054c-0.168,0.245-0.32,0.489-0.449,0.734c-0.133,0.248-0.26,0.508-0.383,0.783
			c-0.123,0.275-0.256,0.577-0.402,0.906c-0.145,0.331-0.313,0.7-0.508,1.11c-0.193,0.411-0.43,0.875-0.701,1.392
			c-0.037,0.075-0.088,0.16-0.15,0.257c-0.064,0.097-0.139,0.188-0.227,0.268c-0.084,0.083-0.184,0.137-0.291,0.165
			c-0.105,0.028-0.227,0.011-0.354-0.055l-0.227-0.121l-0.168,0.317l0.408,0.217c0.066,0.036,0.137,0.065,0.205,0.09
			c0.068,0.026,0.141,0.05,0.215,0.075c0.086,0.031,0.172,0.064,0.258,0.103s0.168,0.08,0.248,0.122
			c0.146,0.079,0.289,0.168,0.424,0.269c0.057,0.044,0.115,0.09,0.178,0.133c0.061,0.045,0.121,0.084,0.184,0.118l0.42,0.223
			l0.168-0.317l-0.236-0.126c-0.127-0.069-0.209-0.169-0.252-0.298c-0.041-0.128-0.053-0.278-0.031-0.448
			c0.02-0.169,0.061-0.351,0.123-0.541c0.063-0.192,0.137-0.383,0.219-0.577c0.086-0.192,0.17-0.375,0.256-0.55
			c0.086-0.175,0.162-0.331,0.229-0.468c0.063-0.132,0.113-0.241,0.154-0.33c0.043-0.087,0.08-0.167,0.111-0.24
			c0.035-0.073,0.068-0.152,0.107-0.238c0.039-0.083,0.086-0.189,0.143-0.314c0.057-0.128,0.127-0.286,0.217-0.481
			c0.088-0.193,0.197-0.436,0.33-0.726c0.145-0.319,0.27-0.598,0.379-0.839c0.107-0.24,0.207-0.453,0.291-0.638
			s0.162-0.355,0.232-0.509c0.07-0.153,0.141-0.303,0.207-0.451c0.068-0.146,0.141-0.301,0.217-0.465l-0.51-0.11
			c-0.262,0.214-0.551,0.45-0.873,0.706s-0.66,0.517-1.014,0.79s-0.711,0.543-1.07,0.813c-0.359,0.27-0.705,0.527-1.041,0.772
			c-0.336,0.245-0.646,0.468-0.932,0.668c-0.162,0.113-0.303,0.212-0.424,0.3c-0.125,0.089-0.234,0.171-0.334,0.252
			c-0.1,0.078-0.193,0.161-0.283,0.247s-0.184,0.181-0.279,0.288l-0.08-0.042c0.051-0.221,0.088-0.438,0.117-0.653
			c0.027-0.214,0.049-0.439,0.064-0.676c0.014-0.237,0.027-0.5,0.039-0.784c0.008-0.286,0.021-0.611,0.039-0.976
			c0.014-0.363,0.033-0.779,0.059-1.248c0.027-0.471,0.064-1.006,0.111-1.609c0.047-0.601,0.107-1.283,0.184-2.047L180.768,66.088z"
			/>
	</g>
</g>
</svg>
