<?xml version="1.0" encoding="utf-8"?>
<!DOCTYPE svg PUBLIC "-//W3C//DTD SVG 1.1//EN" "http://www.w3.org/Graphics/SVG/1.1/DTD/svg11.dtd">
<svg version="1.1" id="Layer_1" xmlns="http://www.w3.org/2000/svg" xmlns:xlink="http://www.w3.org/1999/xlink" x="0px" y="0px" width="216px" height="216px" viewBox="0 0 216 216" enable-background="new 0 0 216 216" xml:space="preserve">
<g>
	<path fill="#FFFFFF" d="M1.122,1.122h214v214h-214V1.122z"/>
	<path d="M34.115,128.211c7.159-3.116,18.242-20.55,20.436-25.284c-1.27,0-7.274,0.116-7.274,5.658c-0.924,0-1.847-1.04-1.847-2.426
		c0-2.194,2.309-4.503,9.928-4.503c3.118-5.196,8.198-12.123,11.545-14.547c1.385-0.923,1.501-0.692,0.577,0.231
		c-1.039,1.501-2.656,3.811-4.272,6.581c-2.771,4.503-5.658,10.623-9.236,16.626c-3.349,5.542-7.159,10.044-11.083,13.392
		c-3.694,3.001-7.39,4.848-9.582,5.31C32.385,129.481,32.5,128.787,34.115,128.211L34.115,128.211z M86.994,76.719
		c-4.388,0-8.659,1.616-12.238,4.503c-4.502-1.848-13.393-7.389-22.975-7.389c-11.545,0-18.819,7.273-18.819,15.125
		c0,6.351,5.427,10.737,11.545,10.737c9.122,0,10.392-6.581,10.392-7.273c0-0.462-0.115-1.385-0.577-1.616
		c-0.231-0.116-0.462-0.116-0.462,0.115c0,2.425-4.734,7.505-10.507,7.505c-13.277,0-7.851-23.438,6.812-23.438
		c8.083,0,16.626,5.311,22.745,8.083c-3.926,4.155-8.083,9.928-14.085,21.936c-8.312,16.396-19.166,26.554-31.288,26.554
		c-6.581,0-13.393-4.271-13.393-14.778c0-17.78,23.552-22.628,23.552-4.386c0,7.387-5.196,11.313-9.467,11.43
		c-4.849,0-5.889-3.001-5.889-5.89c0-6.002,3.002-7.158,1.501-7.158c-5.311,0-6.466,13.972,5.08,13.972
		c7.389,0,11.891-6.466,12.007-12.933c0.115-6.002-3.811-11.89-13.046-11.89c-11.429,0-17.434,8.313-17.318,16.51
		c0,8.081,5.773,16.166,17.896,16.166c9.698,0,15.933-4.157,21.359-9.237c6.003-5.542,9.698-12.815,12.815-19.974
		c1.155,0.231,3.349,0.462,4.157,0.231c-0.347,0.923-0.579,3.348,0.231,3.348c0.346,0,0.115-0.693,0.693-1.963
		c0.808-1.616,2.309-2.425,5.196-4.387c1.27-0.924,0.692-2.194-0.578-2.194c-2.54,0-3.695,4.041-6.696,4.041
		c-0.809-0.116-1.847-0.231-2.424-0.346c1.847-4.734,6.697-14.432,11.083-18.357c1.848,0.808,8.197,3.926,12.7,3.926
		C97.847,87.688,99.348,76.719,86.994,76.719z M86.878,77.642c9.121,0,9.468,8.082,0.809,8.082c-4.388,0-8.89-2.54-11.545-3.695
		C79.027,79.49,82.954,77.642,86.878,77.642L86.878,77.642z M205.681,99.81v0.692l-10.276,0.347c0,0-3.462,5.08-6.581,9.813
		c-0.462,0.577-2.539,3.811-3.692,5.772c-1.848,3.348-6.466,10.737-1.848,12.47c0.577,0.229,1.731,0.807,1.386,1.269
		c-0.578,0.462-1.503,0.81-2.425,0.81c-8.775,0-2.771-11.43,0.691-15.934c-1.039,1.155-4.966,6.236-9.005,6.236
		c-2.077,0-3.232-1.271-3.232-2.89c0-4.616,8.891-11.89,5.31-11.89c-0.577,0-1.385,0.461-2.539,1.154
		c-3.118,2.078-4.966,4.272-6.351,6.119c-2.655,3.579-5.194,7.273-5.194,7.273l-3.927,0.115c0,0,7.158-10.735,7.275-10.968
		c-1.848,1.615-5.428,2.771-7.275,0.577c-0.347,4.157-6.119,10.853-10.737,10.853c-3.925,0-4.849-3.925-3.811-7.043
		c-3.001,3.811-6.002,6.581-9.005,6.581c-1.501,0-3.001-1.153-3.001-3.232c0-3.349,5.888-8.427,5.888-10.622
		c0-0.347-0.116-0.808-0.692-0.808c-1.039,0-2.309,0.692-3.81,1.847c-3.004,2.542-4.157,4.504-6.466,8.082
		c-1.039,1.501-0.924,1.501-3.117,4.618h-3.927c0,0,7.158-10.738,7.852-11.776c0.577-0.809,1.963-2.886,0.347-2.886
		c-2.541,0-6.813,3.81-10.276,8.543c-1.376,2.046-2.761,4.086-4.156,6.119h-3.925l7.273-10.853
		c-0.462,0.232-2.193,0.924-3.579,0.924c-1.155,0-2.194-0.577-2.194-2.195c0-1.731,1.386-2.539,2.077-2.77
		c-3.463,0.115-8.312,4.735-13.045,11.775c-1.27,1.847-2.079,3.118-2.079,3.118h-3.925c0,0,1.731-2.539,3.81-5.657
		c-0.347,0.231-5.196,5.771-8.198,5.771c-2.656,0-3.349-2.771-2.887-5.078c0,0-3.579,5.078-7.043,5.078
		c-2.541,0-3.58-2.539-3.349-4.734c0,0,0,0.117-0.115,0.117c-0.462,0.807-3.349,4.733-6.927,4.616
		c-7.967,0-2.078-15.586,7.274-15.586c2.425,0,3.694,0.924,3.694,3.003c0.579-0.924,1.964-2.887,1.964-2.887h3.925
		c0,0-4.042,6.003-6.003,9.121c-1.501,2.195-2.425,5.311-0.462,5.311c3.348,0,6.582-5.08,9.236-9.12
		c1.963-2.888,3.58-5.312,3.58-5.312h3.925c0,0-3.695,5.541-6.35,9.583c-2.079,2.887-1.848,4.849-0.462,4.849
		c2.771,0,9.12-6.35,12.353-11.314c1.271-1.847,2.079-3.117,2.079-3.117h3.926l-2.771,4.041v0.115
		c2.886-2.885,6.002-4.502,7.621-4.502c3.58,0,3.232,3.696,1.501,4.85c0.809-0.229,2.771-0.577,3.81-2.194l1.618-2.309h4.04
		l-2.657,3.812c3.119-3.119,5.658-3.927,7.275-3.927c4.04,0,2.195,3.927,2.195,3.927c0.577-0.694,3.463-3.927,6.811-3.927
		c2.077,0,2.887,0.924,2.887,2.541c0.115,2.193-1.848,4.735-4.387,8.892c-0.693,1.153-1.963,3.001-0.462,3.001
		c3.695,0,10.276-9.582,10.391-9.814c2.31-3.118,5.196-5.081,8.773-5.081c2.079,0,3.232,1.617,3.694,3.348
		c1.963,5.428,7.619,1.042,9.467-1.615c0.232-0.347,0.577-0.809,0.81-1.155h3.925l-2.654,4.041c0.461-0.462,3.924-4.157,7.387-4.157
		c2.195,0,2.657,1.617,2.657,2.886c0,2.771-3.349,6.465-4.619,9.123c-1.385,2.539-0.229,3.232,2.539,1.386
		c3.465-2.31,6.698-6.466,10.509-11.893c1.436-2.032,2.859-4.072,4.271-6.119c-3.81,0-35.559,0.692-35.559,0.692l-1.733-1.731
		l37.984-0.116c0,0,3.465-5.773,6.352-5.773h0.229c0.462,0,0.232,0.231,0,0.577c-1.271,1.963-3.463,5.196-3.463,5.196h9.582V99.81
		L205.681,99.81z M69.215,120.015c4.387,0,12.815-13.277,7.85-13.277C73.139,106.736,64.481,120.015,69.215,120.015z M97.154,98.655
		c-1.27,0-2.194,0.924-2.194,2.194c0,1.155,0.924,2.078,2.194,2.078c1.155,0,2.078-0.923,2.078-2.078
		C99.232,99.579,98.309,98.655,97.154,98.655z M148.301,111.815c-2.427,3.581-3.581,7.505-2.31,8.313
		c1.27,0.924,4.502-1.501,6.926-5.195c2.425-3.579,3.58-7.504,2.194-8.313C153.842,105.697,150.726,108.122,148.301,111.815
		L148.301,111.815z"/>
	<path fill="none" stroke="#000000" stroke-width="0.65" stroke-linecap="round" stroke-miterlimit="2.613" d="M59.747,128.211
		H165.04"/>
	<path d="M59.054,138.372c0.115,0,0.115,0,0.115-0.116v-0.116v-1.963c-0.115-0.346-0.115-0.462-0.462-0.462
		c-0.115,0-0.231-0.115-0.346-0.115H58.13c0-0.115,0.115-0.115,0.231-0.115h2.656c0.115,0,0.23,0,0.23,0.115h-0.23
		c-0.116,0-0.116,0.115-0.231,0.115c-0.347,0-0.347,0.116-0.347,0.462c-0.115,0.347-0.115,0.578-0.115,1.963v1.618
		c0,0.807,0,1.501,0.115,1.847c0,0.346,0.116,0.46,0.347,0.578h0.461c0.116,0,0.231,0,0.231,0.115h-3.118
		c0-0.115,0-0.115,0.115-0.115h0.347c0.231-0.117,0.231-0.232,0.231-0.578c0.115-0.346,0.115-1.041,0.115-1.847v-0.81
		c0-0.115,0-0.115-0.115-0.115h-3.695c0,0-0.116,0-0.116,0.115v0.81c0,0.807,0,1.501,0.116,1.847c0,0.346,0.115,0.46,0.346,0.578
		h0.462c0.115,0,0.231,0,0.231,0.115h-3.118c0-0.115,0-0.115,0.116-0.115h0.346c0.231-0.117,0.231-0.232,0.231-0.578
		c0.116-0.346,0.116-1.041,0.116-1.847v-1.618v-1.963c0-0.347-0.116-0.462-0.462-0.462c-0.116,0-0.231-0.115-0.347-0.115H53.05
		c0-0.115,0.116-0.115,0.231-0.115h2.657c0.116,0,0.231,0,0.231,0.115h-0.231c0,0-0.115,0.115-0.231,0.115
		c-0.346,0-0.346,0.116-0.346,0.462c-0.115,0.347-0.115,0.578-0.115,1.963v0.116c0,0.116,0.115,0.116,0.115,0.116H59.054
		L59.054,138.372z M63.21,138.949c0-1.615,1.155-3.58,4.042-3.58c2.54,0,4.041,1.271,4.041,3.349c0,2.079-1.616,3.694-4.041,3.694
		C64.365,142.412,63.21,140.564,63.21,138.949z M69.907,139.063c0-1.963-1.27-3.232-2.886-3.232c-1.155,0-2.425,0.578-2.425,2.771
		c0,1.963,1.155,3.349,3.002,3.349C68.29,141.95,69.907,141.721,69.907,139.063z M75.564,135.947l-1.501,0.115
		c-0.577,0-0.808,0-0.924,0.23c-0.115,0.116-0.231,0.231-0.231,0.346c0,0,0,0.116-0.115,0.116v-0.23
		c0-0.114,0.115-0.924,0.115-1.039l0.116-0.116c0.115,0,0.231,0.116,0.462,0.116h4.849c0.578,0,0.808-0.116,0.924-0.116
		c0.115,0,0.115,0.116,0.115,0.231v1.039c0,0.116-0.115,0.116-0.115,0.116c-0.116,0-0.116,0-0.116-0.116v-0.115
		c0-0.231-0.346-0.462-1.154-0.462l-1.27-0.115v3.811c0,0.807,0,1.501,0.115,1.847c0,0.346,0,0.46,0.347,0.578h0.461
		c0.116,0,0.231,0,0.231,0.115H74.64c0-0.115,0.116-0.115,0.231-0.115h0.347c0.115-0.117,0.231-0.232,0.231-0.578
		c0.115-0.346,0.115-1.041,0.115-1.847V135.947L75.564,135.947z M82.029,138.14v-1.963c0-0.347-0.115-0.462-0.346-0.462
		c-0.116,0-0.347-0.115-0.462-0.115h-0.116c0-0.115,0-0.115,0.231-0.115h4.273l0.115-0.116c0.115,0,0.115,0.116,0.115,0.116
		c0,0.115-0.115,0.229-0.115,0.577c0,0.115,0,0.462-0.115,0.577v0.116c-0.116,0-0.116,0-0.116-0.116c0,0,0-0.229-0.115-0.346
		c0-0.116-0.116-0.23-0.578-0.23c-0.231-0.115-1.27-0.115-1.385-0.115c-0.116,0-0.116,0-0.116,0.115v2.31c0,0,0,0.115,0.116,0.115
		h1.501c0.231-0.115,0.463-0.115,0.463-0.231c0.115,0,0.115-0.116,0.231-0.116v0.81c-0.116,0.115-0.116,0.462-0.116,0.577
		c0,0.116,0,0.116-0.115,0.116c0-0.116,0-0.23-0.115-0.346c0-0.232-0.116-0.347-0.462-0.347h-1.501v2.193
		c0,0.578,0.231,0.693,1.154,0.693c0.231,0,0.693,0,0.924-0.115s0.346-0.232,0.462-0.578c0-0.116,0-0.23,0.115-0.23
		c0.116,0,0.116,0.115,0.116,0.23c0,0.231-0.116,0.809-0.116,1.041c-0.115,0.229-0.231,0.229-0.577,0.229
		c-1.501,0-2.194-0.115-2.771-0.115h-1.386c0-0.115,0-0.115,0.116-0.115H81.8c0.115-0.117,0.23-0.232,0.23-0.577v-3.467H82.029
		L82.029,138.14z M90.573,139.758c0,1.153,0,1.73,0.231,1.847c0.116,0.23,0.347,0.23,1.155,0.23c0.462,0,0.924,0,1.155-0.23
		c0.145-0.158,0.227-0.363,0.231-0.578c0,0,0-0.115,0.115-0.115c0,0,0.115,0,0.115,0.115s-0.115,0.81-0.23,1.039
		c0,0.232-0.116,0.347-0.578,0.347c-1.385,0-2.078-0.115-2.886-0.115h-1.386c0-0.115,0-0.115,0.116-0.115h0.346
		c0.231-0.117,0.231-0.232,0.346-0.578v-3.465v-1.963c0-0.348-0.115-0.462-0.462-0.462c0,0-0.115-0.115-0.23-0.115h-0.231
		c0-0.115,0.116-0.115,0.231-0.115h2.655c0.116,0,0.231,0,0.231,0.115h-0.231c-0.115,0-0.231,0.115-0.346,0.115
		c-0.231,0-0.347,0.116-0.347,0.462V139.758L90.573,139.758z M95.884,142.183c-0.116,0-0.231-0.117-0.231-0.232
		c0-0.577,0.115-1.039,0.115-1.269c0-0.117,0-0.232,0.116-0.232c0.115,0,0.115,0.115,0.115,0.232c0,0.115,0,0.229,0.116,0.459
		c0.115,0.694,0.693,0.924,1.385,0.924c0.809,0,1.271-0.577,1.271-1.039s-0.116-0.924-0.924-1.501l-0.462-0.347
		c-1.155-0.691-1.501-1.385-1.501-2.077c0-1.039,0.924-1.732,2.309-1.732c0.578,0,1.039,0.116,1.27,0.116
		c0.116,0,0.116,0.115,0.116,0.115v1.153c0,0.117,0,0.232-0.116,0.232c-0.115,0-0.115,0-0.115-0.115c0-0.117,0-0.462-0.231-0.694
		c-0.116-0.115-0.462-0.346-1.039-0.346c-0.809,0-1.155,0.346-1.155,0.923c0,0.347,0.231,0.694,1.039,1.271l0.231,0.229
		c1.155,0.81,1.617,1.386,1.617,2.31c0,0.462-0.231,1.156-0.924,1.501c-0.462,0.347-1.039,0.347-1.617,0.347
		C96.808,142.412,96.346,142.412,95.884,142.183L95.884,142.183z M107.429,138.372c-0.463-0.578-0.578-0.924-0.578-1.386
		c0-0.693,0.692-1.617,2.424-1.617c0.462,0,0.924,0.116,1.153,0.231c0.232,0,0.232,0.116,0.232,0.23
		c0,0.231-0.115,0.924-0.115,1.155l-0.117,0.115c-0.115,0-0.115,0-0.115-0.115c0-0.347-0.115-0.577-0.229-0.81
		c-0.232-0.229-0.578-0.462-1.156-0.462c-0.347,0-1.039,0.347-1.039,1.04c0,0.923,0.808,1.617,1.615,2.424
		c0.347,0.347,1.504,1.386,1.733,1.504c0.232-0.232,0.462-0.81,0.462-1.386c0-0.116,0-0.347-0.115-0.462
		c-0.232-0.116-0.347-0.116-0.577-0.116h-0.117c0-0.116,0.117-0.116,0.232-0.116h1.153c0.232,0,0.347,0.116,0.347,0.232
		c0,0.691-0.462,1.501-1.039,2.077c0.691,0.577,1.153,0.81,1.385,0.924c0.347,0.229,0.924,0.347,1.04,0.347
		c0.115,0,0.115,0,0.115,0.115h-1.039c-1.039,0-1.386-0.115-2.31-0.691c-0.229,0.345-0.924,0.807-2.309,0.807
		c-2.079,0-2.656-1.153-2.656-1.963C105.813,139.411,106.852,138.602,107.429,138.372L107.429,138.372z M110.43,141.373
		c-0.577-0.462-1.5-1.386-1.73-1.615c-0.231-0.232-0.923-0.924-1.039-1.156c-0.346,0.232-0.694,0.694-0.694,1.386
		c0,1.153,0.808,1.848,1.848,1.848C109.623,141.835,110.2,141.488,110.43,141.373z M119.205,138.14v-1.963
		c0-0.347-0.115-0.462-0.346-0.462c-0.116,0-0.346-0.115-0.462-0.115h-0.116c0-0.115,0-0.115,0.232-0.115h2.654
		c0.694,0,1.271,0.115,1.848,0.346c0.232,0.231,0.693,0.693,0.693,1.271c0,0.692-0.346,1.271-1.385,2.077
		c0.924,0.924,1.615,1.733,2.192,2.31c0.462,0.577,0.924,0.577,1.039,0.694h0.347c0,0,0.115,0,0.115,0.115h-1.153
		c-0.577,0-0.81,0-1.039-0.115c-0.462-0.232-0.81-0.694-1.386-1.386c-0.347-0.462-0.81-1.039-0.924-1.271h-1.154v0.115
		c0,0.924,0,1.618,0.115,1.965c0,0.346,0.115,0.46,0.346,0.578h0.461c0.117,0,0.117,0,0.117,0.115h-3.003
		c0-0.115,0-0.115,0.116-0.115h0.346c0.231-0.117,0.346-0.232,0.346-0.578V138.14L119.205,138.14z M120.361,138.834
		c0,0.115,0,0.115,0.115,0.115c0.229,0.115,0.462,0.115,0.807,0.115c0.347,0,0.462,0,0.694-0.115
		c0.229-0.231,0.577-0.577,0.577-1.386c0-1.271-0.924-1.615-1.501-1.615h-0.577c-0.115,0-0.115,0.115-0.115,0.115V138.834
		L120.361,138.834z M127.75,138.14v-1.963c0-0.347-0.116-0.462-0.462-0.462c0,0-0.23-0.115-0.347-0.115h-0.115
		c0-0.115,0-0.115,0.115-0.115h4.273c0.116,0,0.116-0.116,0.231-0.116v0.693c0,0.115-0.115,0.462-0.115,0.577
		c0,0.116,0,0.116-0.116,0.116v-0.116c0,0-0.116-0.229-0.116-0.346c-0.115-0.116-0.115-0.23-0.691-0.23
		c-0.115-0.115-1.155-0.115-1.386-0.115v2.54h1.615c0.232-0.115,0.347-0.115,0.462-0.231c0.116,0,0.116-0.116,0.116-0.116
		c0.116,0,0.116,0,0.116,0.116c0,0-0.116,0.231-0.116,0.693v0.577c0,0.116,0,0.116-0.116,0.116h-0.115v-0.346
		c0-0.232-0.231-0.347-0.577-0.347h-1.386v2.193c0,0.578,0.115,0.693,1.153,0.693c0.232,0,0.694,0,0.924-0.115
		c0.232-0.115,0.347-0.232,0.462-0.578c0-0.116,0-0.23,0.115-0.23v0.23c0,0.231,0,0.809-0.115,1.041
		c0,0.229-0.115,0.229-0.462,0.229c-1.501,0-2.192-0.115-2.771-0.115h-1.386c0-0.115,0-0.115,0.116-0.115h0.346
		c0.231-0.117,0.231-0.232,0.347-0.577V138.14L127.75,138.14z M134.907,142.183c-0.115,0-0.23-0.117-0.23-0.232
		c0-0.577,0.116-1.039,0.116-1.269c0-0.117,0-0.232,0.115-0.232s0.115,0.115,0.115,0.232v0.459c0.232,0.694,0.81,0.924,1.503,0.924
		c0.808,0,1.27-0.577,1.27-1.039s-0.115-0.924-0.924-1.501l-0.46-0.347c-1.155-0.691-1.503-1.385-1.503-2.077
		c0-1.039,0.924-1.732,2.31-1.732c0.577,0,1.039,0.116,1.271,0.116c0.116,0,0.116,0.115,0.116,0.115v1.153
		c0,0.117,0,0.232-0.116,0.232c-0.115,0-0.115,0-0.115-0.115c0-0.117,0-0.462-0.231-0.694c-0.116-0.115-0.462-0.346-1.039-0.346
		c-0.81,0-1.156,0.346-1.156,0.923c0,0.347,0.232,0.694,1.041,1.271l0.23,0.229c1.155,0.81,1.617,1.386,1.617,2.31
		c0,0.462-0.231,1.156-0.924,1.501c-0.462,0.347-1.041,0.347-1.617,0.347S135.369,142.412,134.907,142.183L134.907,142.183z
		 M141.604,138.949c0-1.615,1.04-3.58,4.04-3.58c2.425,0,3.925,1.271,3.925,3.349c0,2.079-1.615,3.694-4.04,3.694
		C142.645,142.412,141.604,140.564,141.604,138.949L141.604,138.949z M148.184,139.063c0-1.963-1.269-3.232-2.886-3.232
		c-1.154,0-2.425,0.578-2.425,2.771c0,1.963,1.155,3.349,3.001,3.349C146.568,141.95,148.184,141.721,148.184,139.063
		L148.184,139.063z M152.341,138.14v-1.963c0-0.347-0.115-0.462-0.462-0.462c0,0-0.229-0.115-0.347-0.115h-0.115
		c0-0.115,0-0.115,0.115-0.115h2.771c0.578,0,1.271,0.115,1.848,0.346c0.231,0.231,0.578,0.693,0.578,1.271
		c0,0.692-0.232,1.271-1.271,2.077c0.924,0.924,1.615,1.733,2.192,2.31c0.462,0.577,0.924,0.577,1.042,0.694h0.229
		c0.115,0,0.115,0,0.115,0.115h-1.039c-0.577,0-0.809,0-1.039-0.115c-0.462-0.232-0.81-0.694-1.386-1.386
		c-0.346-0.462-0.809-1.039-0.923-1.271h-1.155v0.115c0,0.924,0,1.618,0.115,1.965c0,0.346,0,0.46,0.347,0.578h0.462
		c0.115,0,0.115,0,0.115,0.115h-3.003c0-0.115,0-0.115,0.116-0.115h0.346c0.232-0.117,0.232-0.232,0.347-0.578L152.341,138.14
		L152.341,138.14z M153.496,138.834c0,0.115,0,0.115,0.116,0.115c0.229,0.115,0.462,0.115,0.691,0.115c0.462,0,0.578,0,0.693-0.115
		c0.346-0.231,0.578-0.577,0.578-1.386c0-1.271-0.924-1.615-1.501-1.615h-0.462c-0.116,0-0.116,0.115-0.116,0.115V138.834
		L153.496,138.834z M161.578,135.947l-1.386,0.115c-0.577,0-0.81,0-0.924,0.23c-0.115,0.116-0.232,0.231-0.232,0.346
		c0,0,0,0.116-0.115,0.116c0,0-0.115-0.116-0.115-0.23s0.229-0.924,0.229-1.039c0-0.116,0.117-0.116,0.117-0.116
		c0.115,0,0.229,0.116,0.461,0.116h4.849c0.577,0,0.81-0.116,0.924-0.116s0.115,0.116,0.115,0.231c0,0.23-0.115,0.81-0.115,1.039
		v0.116c-0.115,0-0.115,0-0.115-0.116v-0.115c-0.117-0.231-0.347-0.462-1.156-0.462l-1.271-0.115v5.657
		c0.116,0.346,0.116,0.46,0.461,0.578h0.462c0.117,0,0.117,0,0.117,0.115h-3.118c0-0.115,0-0.115,0.116-0.115h0.346
		c0.23-0.117,0.347-0.232,0.347-0.578v-5.657H161.578L161.578,135.947z M167.465,142.183c-0.229,0-0.229-0.117-0.229-0.232
		c0-0.577,0.115-1.039,0.115-1.269c0-0.117,0-0.232,0.115-0.232c0,0,0.116,0.115,0.116,0.232v0.459
		c0.231,0.694,0.809,0.924,1.385,0.924c0.924,0,1.386-0.577,1.386-1.039s-0.229-0.924-1.039-1.501l-0.347-0.347
		c-1.153-0.691-1.501-1.385-1.501-2.077c0-1.039,0.924-1.732,2.31-1.732c0.577,0,1.039,0.116,1.271,0.116
		c0.115,0,0.115,0.115,0.115,0.115v1.153c0,0.117-0.115,0.232-0.115,0.232c-0.115,0-0.115,0-0.115-0.115
		c0-0.117-0.117-0.462-0.232-0.694c-0.229-0.115-0.462-0.346-1.153-0.346c-0.694,0-1.156,0.346-1.156,0.923
		c0,0.347,0.232,0.694,1.039,1.271l0.347,0.229c1.156,0.81,1.615,1.386,1.615,2.31c0,0.462-0.229,1.156-0.921,1.501
		c-0.579,0.347-1.042,0.347-1.618,0.347S167.813,142.412,167.465,142.183L167.465,142.183z"/>
</g>
<g>
</g>
<g>
</g>
<g>
</g>
<g>
</g>
<g>
</g>
<g>
</g>
</svg>
