<?xml version="1.0" encoding="utf-8"?>
<!DOCTYPE svg PUBLIC "-//W3C//DTD SVG 1.1//EN" "http://www.w3.org/Graphics/SVG/1.1/DTD/svg11.dtd">
<svg version="1.1" id="Слой_1" xmlns="http://www.w3.org/2000/svg" xmlns:xlink="http://www.w3.org/1999/xlink" x="0px" y="0px" width="216px" height="216px" viewBox="454.5 1110 216 216" enable-background="new 454.5 1110 216 216" xml:space="preserve">
<g>
	<path fill="#005092" d="M653.215,1192.322h-9.807c-1.681,0-4.203,0-5.884,0h-5.884c-1.682,0-2.942,0-3.082,0c0,0-0.141,0-0.28,0
		c-0.141,0-0.28,0-0.28,0c-0.141,0-0.28,0-0.42,0c-0.141,0-0.28,0-0.421,0c-0.14,0-0.28,0-0.28,0c-0.14,0-0.28,0-0.42,0
		c-0.141,0-0.28,0-0.421,0c-0.14,0-0.279,0-0.279,0c-0.141,0-0.561,0-0.981,0c-0.42,0-1.261,0-1.681,0.14
		c-0.42,0-1.261,0.14-1.682,0.14c-0.42,0-1.261,0.14-1.681,0.28s-1.121,0.28-1.541,0.42s-1.121,0.28-1.541,0.42
		s-1.121,0.28-1.541,0.42s-1.121,0.42-1.541,0.561c-0.42,0.14-0.98,0.42-1.401,0.56c-0.42,0.14-0.98,0.42-1.4,0.701
		c-0.421,0.14-0.98,0.56-1.401,0.7c-0.42,0.14-0.98,0.561-1.4,0.841c-0.421,0.28-0.98,0.7-1.261,0.84
		c-0.28,0.28-0.841,0.701-1.261,0.981c-0.421,0.28-0.981,0.7-1.262,0.98c-0.279,0.28-0.84,0.701-1.12,1.121
		c-0.28,0.28-0.701,0.841-0.98,1.121c-0.28,0.28-0.701,0.84-1.121,1.121c-0.28,0.28-0.7,0.84-0.98,1.261
		c-0.28,0.28-0.701,0.841-0.98,1.261c-0.28,0.42-0.561,0.981-0.841,1.401c-0.141,0.42-0.561,0.981-0.841,1.401
		c-0.28,0.42-0.561,0.981-0.7,1.401c-0.141,0.42-0.421,0.98-0.7,1.401c-0.141,0.42-0.561,1.121-0.701,1.541
		c-0.14,0.42-0.42,1.121-0.561,1.541c-0.14,0.42-0.279,1.121-0.42,1.541c-0.14,0.42-0.28,1.121-0.42,1.401
		c-0.141,0.42-0.561-0.561-0.981-2.102l-5.604-19.753c-0.42-1.541-1.681-2.802-2.661-2.802c-0.981,0-3.223,0-4.764,0h-4.343
		c-1.681,0-3.782,0-4.903,0s-2.382,1.261-2.802,2.802l-10.227,35.863c-0.42,1.542-0.84,1.542-0.84-0.14v-35.864
		c0-1.541-1.261-2.942-2.942-2.942h-15.69c-1.681,0-2.942,0.7-2.942,1.401c0,0.84,0,1.261-0.14,1.121s-0.42-0.7-0.561-1.261
		c-0.28-0.561-0.701-1.401-0.98-1.821c-0.28-0.561-0.701-1.261-1.121-1.821c-0.28-0.42-0.7-1.261-1.121-1.681
		c-0.28-0.42-0.84-1.261-1.121-1.681c-0.28-0.42-0.841-1.261-1.261-1.681c-0.42-0.42-0.981-1.121-1.401-1.541
		c-0.42-0.42-0.98-1.121-1.401-1.401c-0.42-0.42-1.121-0.98-1.401-1.401c-0.42-0.42-0.98-0.98-1.541-1.401
		c-0.42-0.28-1.121-0.84-1.541-1.261c-0.42-0.28-1.121-0.841-1.541-1.261c-0.42-0.28-1.261-0.841-1.681-1.121
		c-0.56-0.28-1.261-0.7-1.821-0.98c-0.56-0.28-1.261-0.701-1.821-0.841c-0.561-0.28-1.261-0.56-1.821-0.84
		c-0.561-0.14-1.401-0.561-1.821-0.701c-0.561-0.14-1.401-0.56-1.961-0.7s-1.401-0.42-1.961-0.561c-0.56-0.14-1.401-0.28-1.961-0.42
		c-0.561-0.14-1.401-0.28-1.961-0.42c-0.561-0.14-1.541-0.14-2.102-0.28c-0.561,0-6.024-0.14-6.164-0.14s-1.541,0-3.222,0h-9.106
		c-1.681,0-4.203,0-5.884,0h-14.99c-1.681,0-3.082,1.541-3.082,3.082v81.114c0,1.541,1.261,2.941,2.942,2.941h15.13
		c1.541,0,4.203,0,5.884,0h9.386c1.541,0,8.545,0,9.106-0.14c0.561,0,1.541-0.14,2.102-0.28c0.56-0.14,1.541-0.28,1.961-0.28
		c0.56-0.14,1.401-0.28,1.961-0.42c0.561-0.14,1.401-0.421,1.961-0.561s1.401-0.42,1.961-0.561c0.56-0.14,1.401-0.561,1.821-0.7
		c0.56-0.28,1.261-0.561,1.821-0.841c0.56-0.14,1.261-0.561,1.821-0.84c0.42-0.28,1.261-0.701,1.821-0.981
		c0.561-0.28,1.261-0.7,1.681-1.12c0.42-0.28,1.121-0.841,1.541-1.121s1.121-0.841,1.541-1.261c0.42-0.421,1.121-0.98,1.541-1.401
		c0.42-0.42,0.981-0.98,1.401-1.4c0.42-0.421,0.981-1.121,1.401-1.541c0.42-0.42,0.981-1.121,1.401-1.541
		c0.42-0.42,0.98-1.121,1.261-1.541c0.28-0.421,0.84-1.121,1.121-1.682c0.28-0.56,0.701-1.261,1.121-1.821
		c0.28-0.56,0.701-1.261,1.121-1.82c0.28-0.561,0.7-1.262,0.98-1.821c0.28-0.561,0.561-1.121,0.561-1.261
		c0.14-0.141,0.14,0.98,0.14,2.661v19.613c0,1.681,1.261,2.942,2.942,2.942h15.69c1.681,0,14.85,0,14.85,0
		c1.681,0,3.082-1.401,3.362-3.083l5.183-28.578c0.28-1.541,0.701-1.541,0.98,0l5.044,28.578c0.28,1.542,1.821,2.942,3.502,2.942
		l15.551,0.141c1.681,0,2.521-1.262,2.102-2.803l-1.261-4.623c-0.421-1.541-0.701-2.661-0.561-2.521
		c0.14,0.14,0.561,0.561,0.84,0.841c0.28,0.28,0.841,0.84,1.121,1.12s0.841,0.701,1.261,0.981c0.421,0.279,0.98,0.7,1.261,0.84
		c0.28,0.28,0.841,0.701,1.262,0.841c0.42,0.28,0.98,0.561,1.4,0.841c0.421,0.14,0.98,0.561,1.401,0.7c0.42,0.14,1.12,0.561,1.4,0.7
		c0.421,0.141,0.98,0.421,1.401,0.561c0.42,0.141,1.12,0.42,1.541,0.561c0.42,0.14,1.12,0.42,1.541,0.561
		c0.42,0.14,1.121,0.28,1.541,0.42c0.42,0.141,1.12,0.28,1.541,0.28c0.42,0.141,1.261,0.141,1.681,0.28
		c0.421,0,1.261,0.14,1.682,0.14c0.42,0,1.261,0.141,1.821,0.141c0.56,0,0.98,0,1.12,0c0.141,0,0.141,0,0.28,0
		c0.141,0,0.28,0,0.28,0c0.14,0,0.28,0,0.28,0c0.14,0,0.28,0,0.28,0c0.14,0,0.28,0,0.28,0c0.14,0,0.28,0,0.28,0
		c0.14,0,0.28,0,0.42,0c0.141,0,1.541,0,3.223,0h5.884c1.681,0,4.202,0,5.884,0h9.807c1.541,0,2.941-1.261,2.941-2.942v-59.259
		C656.156,1193.583,654.896,1192.322,653.215,1192.322z M516.344,1220.761c0,1.541-1.261,2.661-2.662,2.661h-7.985
		c-1.541,0-2.662,1.261-2.662,2.662v7.985c0,1.541-1.261,2.662-2.662,2.662h-13.309c-1.541,0-2.662-1.261-2.662-2.662v-7.985
		c0-1.541-1.261-2.662-2.662-2.662h-8.125c-1.542,0-2.662-1.261-2.662-2.661v-13.449c0-1.541,1.261-2.662,2.662-2.662h8.125
		c1.541,0,2.662-1.261,2.662-2.662v-7.985c0-1.541,1.261-2.662,2.662-2.662h13.309c1.541,0,2.662,1.261,2.662,2.662v7.985
		c0,1.541,1.261,2.662,2.662,2.662h7.985c1.401,0,2.662,1.261,2.662,2.662V1220.761z M636.684,1237.011
		c0,1.401-1.121,2.522-2.662,2.522h-3.782c-1.4,0-2.802,0-2.941,0c-0.141,0-0.421-0.141-0.561-0.141c-0.141,0-0.421-0.14-0.421-0.14
		s-0.14,0-0.28,0c-0.14,0-0.42-0.141-0.56-0.141c-0.141-0.14-0.421-0.14-0.561-0.28c-0.141-0.14-0.421-0.14-0.561-0.279
		c-0.14-0.141-0.42-0.28-0.561-0.28c-0.14-0.141-0.42-0.28-0.561-0.28c-0.14,0-0.42-0.141-0.56-0.28
		c-0.141-0.141-0.421-0.28-0.561-0.421c-0.141-0.14-0.421-0.28-0.561-0.42c-0.141-0.14-0.421-0.28-0.421-0.42
		c-0.14-0.141-0.279-0.28-0.42-0.421c-0.14-0.14-0.42-0.28-0.42-0.42c-0.141-0.14-0.28-0.28-0.421-0.42
		c-0.14-0.141-0.28-0.28-0.42-0.421c-0.141-0.14-0.28-0.28-0.42-0.42c-0.141-0.141-0.28-0.42-0.28-0.561
		c-0.141-0.14-0.28-0.42-0.28-0.561c-0.141-0.14-0.28-0.42-0.28-0.561c-0.141-0.14-0.28-0.42-0.28-0.561
		c-0.141-0.14-0.28-0.42-0.28-0.56c0-0.141-0.141-0.421-0.28-0.561c0-0.141-0.14-0.421-0.14-0.561c0-0.141-0.141-0.42-0.141-0.561
		c-0.14-0.14-0.14-0.42-0.14-0.561c0-0.14-0.141-0.42-0.141-0.561c0-0.14-0.14-0.42-0.14-0.7c0-0.14-0.141-0.42-0.141-0.561
		c0-0.14,0-0.42,0-0.56c0-0.141,0-0.421,0-0.561c0-0.141-0.14-0.421-0.14-0.701c0-0.14,0-0.42,0-0.7s0-0.561,0.14-0.561
		c0-0.14,0-0.42,0-0.56c0-0.141,0-0.421,0-0.561c0-0.141,0.141-0.421,0.141-0.561c0-0.141,0.14-0.42,0.14-0.561
		c0-0.14,0.141-0.42,0.141-0.561c0-0.14,0.14-0.42,0.14-0.561c0.141-0.14,0.141-0.42,0.141-0.56c0-0.141,0.14-0.421,0.14-0.561
		c0.14-0.141,0.14-0.421,0.28-0.561c0.14-0.141,0.28-0.42,0.28-0.561c0.14-0.14,0.28-0.42,0.28-0.56c0.14-0.14,0.28-0.42,0.28-0.561
		c0.14-0.14,0.28-0.42,0.28-0.42c0.14-0.14,0.28-0.28,0.28-0.42c0.14-0.14,0.279-0.28,0.42-0.42c0.14-0.14,0.28-0.42,0.42-0.561
		c0.141-0.14,0.28-0.28,0.421-0.42c0.14-0.14,0.28-0.28,0.42-0.42s0.42-0.28,0.42-0.42c0.141-0.14,0.28-0.28,0.421-0.42
		c0.14-0.14,0.42-0.28,0.561-0.42c0.14-0.14,0.42-0.28,0.561-0.42c0.14-0.14,0.42-0.28,0.56-0.28c0.141,0,0.421-0.14,0.561-0.28
		c0.141-0.14,0.421-0.14,0.561-0.28s0.42-0.28,0.561-0.28c0.14,0,0.42-0.14,0.561-0.14c0.14-0.14,0.42-0.14,0.56-0.28
		c0.141,0,0.28-0.14,0.28-0.14s0.28,0,0.421-0.14c0.14,0,0.42-0.14,0.561-0.14c0.14,0,1.4,0,2.941,0h3.782
		c1.401,0,2.662,1.121,2.662,2.381V1237.011z"/>
	<g>
		<path fill="#B30931" d="M458.906,1263.489c0,0.981,0.84,1.822,1.821,1.822h195.15c0.98,0,1.82-0.841,1.82-1.822
			c0-0.98-0.84-1.82-1.82-1.82h-195.15C459.746,1261.669,458.906,1262.509,458.906,1263.489
			C458.906,1263.489,458.906,1262.509,458.906,1263.489z"/>
	</g>
	<g>
		<path fill="#005092" d="M658.959,1186.858c0-0.84,0.279-1.681,0.7-2.381c0.42-0.701,0.98-1.261,1.821-1.681
			c0.7-0.42,1.541-0.7,2.382-0.7c0.7,0,1.26,0.14,1.82,0.42s1.121,0.561,1.541,0.981c0.421,0.42,0.841,0.98,0.981,1.541
			c0.28,0.56,0.42,1.261,0.42,1.821c0,0.701-0.14,1.261-0.42,1.821c-0.28,0.561-0.561,1.121-0.981,1.541
			c-0.42,0.42-0.98,0.841-1.541,0.981c-0.56,0.28-1.261,0.42-1.82,0.42c-0.841,0-1.682-0.28-2.382-0.7
			c-0.701-0.42-1.261-0.98-1.821-1.681S658.959,1187.699,658.959,1186.858z M659.659,1186.858c0,0.701,0.14,1.401,0.56,1.961
			c0.421,0.701,0.841,1.121,1.542,1.541c0.56,0.42,1.261,0.561,2.102,0.561c0.7,0,1.4-0.14,1.961-0.561
			c0.561-0.42,1.121-0.84,1.541-1.541c0.42-0.56,0.561-1.261,0.561-2.101c0-0.701-0.141-1.401-0.561-2.102
			c-0.42-0.561-0.841-1.121-1.541-1.541c-0.561-0.42-1.261-0.561-1.961-0.561c-0.701,0-1.401,0.14-2.102,0.561
			c-0.561,0.42-1.121,0.84-1.542,1.541C659.799,1185.457,659.659,1186.158,659.659,1186.858z M661.901,1189.66v-5.604h2.102
			c0.14,0,0.42,0,0.7,0.14s0.421,0.28,0.701,0.42c0.14,0.28,0.279,0.561,0.279,0.98c0,0.28-0.14,0.561-0.279,0.841
			c-0.141,0.28-0.28,0.42-0.561,0.56s-0.421,0.14-0.701,0.14h-0.14l1.821,2.662h-1.121l-1.681-2.522h-0.141v2.522h-0.98V1189.66z
			 M662.881,1184.757v1.541h0.841c0.42,0,0.7-0.14,0.841-0.28c0.14-0.14,0.28-0.28,0.28-0.561c0-0.28,0-0.42-0.141-0.56
			c-0.14-0.14-0.42-0.14-0.7-0.14H662.881z"/>
	</g>
	<g>
		<path fill="#005092" d="M466.19,1275.958h-2.521l-1.261-4.203l-0.42,4.203h-2.942l1.121-7.985h3.502l1.261,4.483l1.261-4.623
			h3.502l1.121,7.985h-3.082l-0.42-4.203L466.19,1275.958z"/>
		<path fill="#005092" d="M473.755,1275.958v-7.985h5.604v2.382h-2.382v0.7h2.102v1.962h-2.102v0.7h2.382v2.381h-5.604V1275.958z"/>
		<path fill="#005092" d="M483.422,1267.972h7.005v5.744h0.98v3.923h-2.802v-1.541h-4.203v1.541H481.6v-3.923
			c0.42,0,0.841-0.141,1.121-0.421c0.28-0.279,0.42-0.56,0.42-0.98c0-0.42,0.14-0.7,0.14-1.12v-3.223H483.422z M486.224,1270.215
			v1.12c0,0.561,0,1.121-0.14,1.401s-0.28,0.561-0.561,0.84h1.681v-3.361H486.224z"/>
		<path fill="#005092" d="M494.209,1267.972h3.083v4.063l2.241-4.063h2.942v7.985h-3.082v-3.923l-2.241,3.923h-2.942V1267.972z"/>
		<path fill="#005092" d="M510.039,1275.958v-2.802c-0.42,0-0.7,0.14-0.84,0.14s-0.42,0-0.701,0c-0.7,0-1.261-0.14-1.681-0.279
			c-0.42-0.141-0.7-0.421-0.84-0.561c-0.14-0.28-0.28-0.561-0.28-0.841s0-0.561,0-0.98v-2.662h3.082v1.821
			c0,0.28,0,0.561,0.14,0.841c0,0.28,0.28,0.28,0.42,0.42h0.28c0.14,0,0.14,0,0.28,0c0.14,0,0.14,0,0.28,0v-2.941h3.222v7.985
			h-3.362V1275.958z"/>
		<path fill="#005092" d="M516.624,1275.958v-7.985h3.222v2.802h1.541v-2.802h3.222v7.985h-3.222v-2.941h-1.541v2.941H516.624z"/>
		<path fill="#005092" d="M527.271,1275.958l2.802-7.985h3.502l2.802,7.985h-3.362l-0.28-1.121h-1.961l-0.28,1.121H527.271z
			 M531.334,1272.736h1.121l-0.56-2.102L531.334,1272.736z"/>
		<path fill="#005092" d="M545.904,1267.972h7.425v7.985h-3.222v-5.743h-1.261v2.941c0,0.42,0,0.7-0.14,0.98
			c0,0.28-0.14,0.561-0.42,0.841c-0.14,0.28-0.561,0.561-0.98,0.7c-0.42,0.141-1.121,0.28-1.821,0.28c-0.42,0-0.701,0-1.261-0.14
			v-2.242c0.14,0,0.281,0.141,0.561,0.141c0.28,0,0.561-0.141,0.701-0.28c0.14-0.141,0.28-0.421,0.28-0.561c0-0.28,0-0.561,0-0.841
			v-4.063H545.904z"/>
		<path fill="#005092" d="M555.99,1275.958l2.802-7.985h3.502l2.802,7.985h-3.362l-0.28-1.121h-1.961l-0.28,1.121H555.99z
			 M560.053,1272.736h1.121l-0.561-1.962L560.053,1272.736z"/>
		<path fill="#005092" d="M567.758,1275.958v-7.985h6.725v2.382h-3.503v0.7h1.121c0.841,0,1.541,0.141,2.102,0.421
			c0.7,0.279,0.98,0.98,0.98,1.961c0,0.42-0.14,0.841-0.28,1.121c-0.14,0.42-0.42,0.7-0.98,0.98c-0.42,0.28-1.121,0.42-1.961,0.42
			H567.758L567.758,1275.958z M570.98,1273.997h0.28c0.561,0,0.841-0.141,0.841-0.561c0-0.421-0.28-0.561-0.841-0.561h-0.28
			V1273.997z"/>
		<path fill="#005092" d="M582.608,1276.238c-0.7,0-1.4-0.141-1.961-0.28s-1.121-0.561-1.541-0.841c-0.421-0.42-0.7-0.84-0.98-1.4
			s-0.28-1.121-0.28-1.682c0-0.56,0.14-1.12,0.28-1.681c0.28-0.561,0.56-0.98,0.98-1.401c0.42-0.42,0.84-0.7,1.541-0.84
			c0.561-0.141,1.261-0.28,1.961-0.28c0.701,0,1.401,0.14,1.962,0.28c0.56,0.28,1.12,0.561,1.541,0.84
			c0.42,0.421,0.7,0.841,0.98,1.401s0.28,1.121,0.28,1.681c0,0.561-0.141,1.121-0.28,1.682c-0.28,0.561-0.561,0.98-0.98,1.4
			c-0.421,0.421-0.841,0.701-1.541,0.841C583.868,1276.097,583.309,1276.238,582.608,1276.238z M582.608,1273.717
			c0.421,0,0.841-0.141,1.121-0.421c0.28-0.279,0.42-0.7,0.42-1.261s-0.14-0.98-0.42-1.261s-0.7-0.42-1.121-0.42
			c-0.28,0-0.561,0.14-0.84,0.28c-0.28,0.14-0.421,0.28-0.561,0.561c-0.141,0.279-0.141,0.56-0.141,0.84s0.141,0.561,0.141,0.841
			c0.14,0.28,0.279,0.42,0.561,0.561C581.907,1273.576,582.188,1273.717,582.608,1273.717z"/>
		<path fill="#005092" d="M590.313,1275.958v-7.985h4.203c0.7,0,1.401,0.141,1.821,0.421s0.841,0.56,0.98,0.98
			c0.28,0.42,0.28,0.841,0.28,1.4c0,0.561-0.141,0.98-0.28,1.401c-0.28,0.42-0.561,0.7-0.98,0.98s-1.121,0.42-1.821,0.42h-0.98
			v2.522h-3.223V1275.958z M593.395,1270.074v1.401h0.421c0.561,0,0.7-0.28,0.7-0.701c0-0.42-0.28-0.7-0.7-0.7H593.395z"/>
		<path fill="#005092" d="M599.839,1275.958l2.802-7.985h3.503l2.802,7.985h-3.223l-0.279-1.121h-1.962l-0.28,1.121H599.839z
			 M603.903,1272.736h1.12l-0.561-2.102L603.903,1272.736z"/>
		<path fill="#005092" d="M612.728,1275.958v-5.743h-1.681v-2.382h6.584v2.382h-1.681v5.743H612.728z"/>
		<path fill="#005092" d="M624.636,1276.238c-0.7,0-1.401-0.141-1.961-0.28c-0.561-0.14-1.121-0.561-1.541-0.841
			c-0.421-0.42-0.701-0.84-0.981-1.4s-0.28-1.121-0.28-1.682c0-0.56,0.141-1.12,0.28-1.681c0.28-0.561,0.561-0.98,0.981-1.401
			c0.42-0.42,0.84-0.7,1.541-0.84c0.56-0.141,1.261-0.28,1.961-0.28s1.4,0.14,1.961,0.28c0.561,0.28,1.121,0.561,1.541,0.84
			c0.421,0.421,0.701,0.841,0.981,1.401c0.279,0.561,0.279,1.121,0.279,1.681c0,0.561-0.14,1.121-0.279,1.682
			c-0.28,0.561-0.561,0.98-0.981,1.4c-0.42,0.421-0.84,0.701-1.541,0.841C626.036,1276.097,625.336,1276.238,624.636,1276.238z
			 M624.636,1273.717c0.42,0,0.841-0.141,1.121-0.421c0.279-0.279,0.42-0.7,0.42-1.261s-0.141-0.98-0.42-1.261
			c-0.28-0.28-0.701-0.42-1.121-0.42c-0.28,0-0.561,0.14-0.841,0.28c-0.28,0.14-0.42,0.28-0.561,0.561
			c-0.14,0.279-0.14,0.56-0.14,0.84s0,0.561,0.14,0.841c0.141,0.28,0.28,0.42,0.561,0.561
			C624.075,1273.576,624.356,1273.717,624.636,1273.717z"/>
		<path fill="#005092" d="M632.341,1275.958v-7.985h4.203c0.7,0,1.4,0.141,1.821,0.421c0.42,0.28,0.84,0.56,0.98,0.98
			c0.14,0.42,0.28,0.841,0.28,1.4c0,0.561-0.141,0.98-0.28,1.401c-0.28,0.42-0.561,0.7-0.98,0.98c-0.421,0.28-1.121,0.42-1.821,0.42
			h-0.981v2.522h-3.222V1275.958z M635.563,1270.074v1.401h0.421c0.561,0,0.7-0.28,0.7-0.701c0-0.42-0.28-0.7-0.7-0.7H635.563z"/>
		<path fill="#005092" d="M642.708,1275.958v-7.985h3.222v7.985H642.708z"/>
		<path fill="#005092" d="M648.872,1275.958l1.821-2.941c-0.28-0.141-0.561-0.28-0.841-0.421c-0.28-0.14-0.42-0.42-0.561-0.7
			c-0.14-0.28-0.28-0.7-0.28-1.121c0-0.841,0.28-1.4,0.841-1.961s1.401-0.841,2.662-0.841h4.063v7.985h-3.223v-2.241l-0.98,2.241
			H648.872L648.872,1275.958z M653.355,1271.615v-1.541h-0.28c-0.56,0-0.98,0.28-0.98,0.7c0,0.561,0.28,0.701,0.98,0.701h0.28
			V1271.615z"/>
	</g>
	<path fill="#B30931" d="M558.792,1175.651c0,7.845-6.444,14.29-14.29,14.29s-14.29-6.444-14.29-14.29s6.444-14.29,14.29-14.29
		C552.488,1161.362,558.792,1167.806,558.792,1175.651z"/>
</g>
</svg>
