<?xml version="1.0" encoding="utf-8"?>
<!DOCTYPE svg PUBLIC "-//W3C//DTD SVG 1.1//EN" "http://www.w3.org/Graphics/SVG/1.1/DTD/svg11.dtd">
<svg version="1.1" id="Layer_1" xmlns="http://www.w3.org/2000/svg" xmlns:xlink="http://www.w3.org/1999/xlink" x="0px" y="0px" width="216px" height="216px" viewBox="0 0 216 216" enable-background="new 0 0 216 216" xml:space="preserve">
<rect y="-0.356" fill-rule="evenodd" clip-rule="evenodd" fill="#56C5D0" width="216" height="216"/>
<path fill-rule="evenodd" clip-rule="evenodd" d="M176.794,196.943v-18.671h3.107v15.498h7.754v3.173H176.794L176.794,196.943z
	 M163.995,187.521c0,2.165,0.412,3.786,1.231,4.869c0.824,1.082,1.841,1.626,3.059,1.626c1.224,0,2.235-0.539,3.042-1.613
	c0.807-1.073,1.206-2.722,1.206-4.948c0-2.183-0.391-3.795-1.176-4.843c-0.779-1.043-1.805-1.564-3.072-1.564
	c-1.266,0-2.301,0.525-3.094,1.577C164.395,183.681,163.995,185.312,163.995,187.521L163.995,187.521z M160.787,187.647
	c0-2.244,0.328-4.089,0.994-5.54c0.662-1.45,1.53-2.533,2.6-3.243s2.366-1.065,3.892-1.065c2.209,0,4.006,0.842,5.4,2.529
	c1.389,1.688,2.085,4.089,2.085,7.205c0,3.146-0.736,5.609-2.208,7.381c-1.293,1.569-3.046,2.35-5.265,2.35
	c-2.234,0-3.997-0.776-5.289-2.323C161.523,193.17,160.787,190.737,160.787,187.647L160.787,187.647z M150.555,186.078h2.313
	c1.411,0,2.31-0.062,2.695-0.184c0.386-0.123,0.696-0.373,0.938-0.75c0.236-0.377,0.359-0.881,0.359-1.503
	c0-0.601-0.123-1.083-0.359-1.446c-0.242-0.364-0.565-0.614-0.979-0.75c-0.289-0.096-1.135-0.14-2.528-0.14h-2.44V186.078
	L150.555,186.078z M147.446,196.943h3.108v-7.858h0.644c0.719,0,1.24,0.07,1.564,0.21c0.324,0.145,0.636,0.398,0.925,0.771
	c0.294,0.373,0.847,1.302,1.657,2.779l2.262,4.098h3.707l-1.871-3.673c-0.754-1.473-1.351-2.494-1.788-3.063
	c-0.434-0.57-0.986-1.092-1.652-1.573c1.297-0.229,2.301-0.794,3.011-1.692c0.706-0.898,1.057-2.086,1.057-3.559
	c0-1.162-0.229-2.161-0.693-2.998c-0.46-0.833-1.052-1.42-1.77-1.758c-0.719-0.337-1.92-0.508-3.599-0.508h-6.562V196.943
	L147.446,196.943z M138.137,196.943v-15.638h-4.584v-3.187h12.264v3.187h-4.572v15.638H138.137L138.137,196.943z M120.723,196.943
	v-18.824h11.457v3.187h-8.35v4.172h7.758v3.169h-7.758v5.124h8.63v3.173H120.723L120.723,196.943z M110.301,181.306v5.338h1.723
	c1.157,0,1.941-0.079,2.357-0.241c0.412-0.162,0.754-0.456,1.018-0.881c0.268-0.425,0.398-0.942,0.398-1.561
	c0-0.622-0.136-1.152-0.407-1.577c-0.276-0.43-0.613-0.715-1.017-0.863c-0.403-0.145-1.254-0.215-2.556-0.215H110.301
	L110.301,181.306z M107.194,196.943v-18.824h5.009c1.867,0,3.086,0.092,3.66,0.271c0.916,0.289,1.67,0.912,2.266,1.858
	c0.596,0.951,0.895,2.174,0.895,3.673c0,1.363-0.26,2.503-0.771,3.423c-0.514,0.92-1.157,1.564-1.929,1.938
	c-0.767,0.372-2.095,0.561-3.979,0.561h-2.043v7.101H107.194L107.194,196.943z M90.067,181.533v12.464h2.34
	c0.999,0,1.727-0.091,2.174-0.279c0.451-0.188,0.819-0.474,1.104-0.854c0.289-0.382,0.526-0.982,0.714-1.807
	c0.188-0.819,0.28-1.901,0.28-3.247c0-1.394-0.096-2.494-0.289-3.301c-0.193-0.802-0.491-1.438-0.898-1.897
	c-0.408-0.465-0.899-0.767-1.481-0.912c-0.438-0.113-1.28-0.166-2.529-0.166H90.067L90.067,181.533z M86.963,178.347h5.685
	c1.438,0,2.525,0.162,3.257,0.482c0.731,0.319,1.407,0.863,2.02,1.626c0.618,0.758,1.1,1.749,1.455,2.963
	c0.351,1.218,0.526,2.726,0.526,4.531c0,1.631-0.184,3.042-0.552,4.247c-0.368,1.201-0.837,2.152-1.402,2.857
	c-0.565,0.701-1.245,1.228-2.046,1.582c-0.802,0.355-1.828,0.535-3.09,0.535h-5.852V178.347L86.963,178.347z M71.377,197.171
	v-18.824h3.033l6.315,12.57v-12.57h2.901v18.824h-3.133l-6.215-12.276v12.276H71.377L71.377,197.171z M64.539,189.725l-2.122-6.986
	l-2.09,6.986H64.539L64.539,189.725z M70.275,197.171h-3.388l-1.35-4.277h-6.162l-1.271,4.277h-3.313l6.009-18.824h3.3
	L70.275,197.171L70.275,197.171z M42.981,186.306h2.314c1.411,0,2.31-0.061,2.695-0.184s0.697-0.373,0.938-0.75
	c0.237-0.377,0.36-0.881,0.36-1.503c0-0.601-0.123-1.083-0.36-1.446c-0.241-0.363-0.565-0.613-0.977-0.75
	c-0.29-0.096-1.135-0.14-2.529-0.14h-2.441V186.306L42.981,186.306z M39.874,197.171v-18.824h6.561c1.679,0,2.88,0.171,3.598,0.509
	c0.719,0.337,1.311,0.925,1.771,1.758c0.464,0.837,0.692,1.836,0.692,2.997c0,1.473-0.351,2.661-1.057,3.559
	c-0.709,0.898-1.713,1.464-3.011,1.692c0.667,0.482,1.219,1.004,1.652,1.573c0.438,0.57,1.034,1.591,1.788,3.063l1.872,3.673h-3.708
	l-2.261-4.098c-0.811-1.478-1.363-2.406-1.657-2.779c-0.29-0.372-0.601-0.627-0.925-0.771c-0.324-0.14-0.846-0.21-1.565-0.21h-0.644
	v7.858H39.874L39.874,197.171z M30.271,190.25v-3.173h6.714v7.499c-0.675,0.798-1.635,1.481-2.875,2.056
	c-1.241,0.574-2.485,0.858-3.739,0.858c-1.521,0-2.866-0.372-4.028-1.121c-1.166-0.75-2.09-1.872-2.77-3.366
	c-0.679-1.494-1.021-3.248-1.021-5.269c0-2.073,0.346-3.843,1.034-5.315s1.583-2.573,2.683-3.301c1.1-0.728,2.419-1.092,3.949-1.092
	c1.841,0,3.318,0.47,4.427,1.407c1.109,0.938,1.819,2.31,2.134,4.129l-3.081,0.705c-0.228-0.968-0.653-1.709-1.271-2.222
	c-0.614-0.513-1.35-0.771-2.209-0.771c-1.324,0-2.402,0.518-3.221,1.548c-0.824,1.029-1.232,2.603-1.232,4.72
	c0,2.266,0.443,3.992,1.333,5.171c0.763,1.021,1.797,1.53,3.094,1.53c0.609,0,1.24-0.145,1.898-0.43
	c0.653-0.289,1.236-0.679,1.753-1.175v-2.389H30.271z"/>
<path fill-rule="evenodd" clip-rule="evenodd" d="M85.569,93.388l1.093-7.691c1.051-7.391,7.673-22.984,12.785-28.424
	c5.535-5.891,12.127-9.494,19.571-12.643c5.298-2.241,11.853-2.256,17.571-2.571c2.42-1.716,3.178-5.285,6.143-7.286
	c2.086-1.408,3.446-3.358,6.766-3.805c0.781-0.105,1.253-0.349,0.896,0.5c-1.047,2.488-1.98,5.861-1.766,8.194
	c0.031,0.336-0.039,0.664,0.175,0.897c0.72,0.783,3.234-1.716,5.078-2.314c1.277-0.414,0.907-0.085,0.831,0.845
	c-0.146,1.763-1.549,5.772-2.123,9.326c1.222,1.815,3.321,3.97,5,6c8.321,10.065,15.965,19.94,24.679,30.035
	c0.72,1.179,1.12,1.396,1.64,1.974c0.643,0.713,0.835,1.152,0.931,2.075c0.474,4.583,0.117,7.429-2.248,9.772
	c-3.929,1-4.287,1.356-12.998,0.215c-3.811-1.238-3.629-1.58-6.36-3.286c-2.528-3.391-4.918-5.256-8.071-6.929
	c-1.937-1.027-4.095-0.666-6.286-0.571c-3.047-0.19-6.095,0.048-9.143-0.143c-0.82-0.107-2.07-0.071-3.213-0.929l1.222,3.076
	l-1.08,8.139c-0.618,4.664,1.155,9.928,2.857,13.856c0.147,0.275,0.347,0.873-0.077,1.453c-0.219,0.313-0.668,0.556-1.137,0.403
	c-1.807-1.137-3.185-2.709-4.779-3.643c-6.678-3.917-12.203-8.347-26.965-12.083c-5.339-1.351-11.949-2.178-20.171-3.468
	C85.682,94.252,85.467,94.103,85.569,93.388L85.569,93.388z M21.876,76.723c-1.192-1.896-1.82-1.328-1.112,0.678
	c1.642,4.651,3.909,7.813,6.401,11.932c5.25,3.906,10.079,8.33,16.32,10.291c7.314,2.299,9.273,3.906,11.579,5.039
	c2.613,1.284,15.735,3.463,24.55,3.956c21.732,1.216,39.651,7.112,51.706,13.548c4.145,2.213,14.168,12.706,13.404,13.619
	c-0.775,0.927-7.635-9.56-25.758-15.434c-14.507-4.702-32.353-5.158-47.256-7.316c-15.176-2.199-25.47-3.942-32.759-9.131
	c-0.361,0.059-0.544,0.156-0.534,0.296c0.161,2.138,9.957,9.842,25.65,13.752c15.063,3.753,34.913,7.078,49.751,10.769
	c5.396,1.343,12.991,4.885,18.862,8.857s10.02,8.377,10.808,9.157c0.733,0.728,0.269,0.971-0.69,0.438
	c-2.881-1.6-4.514-3.484-6.487-4.598c-6.724-3.794-10.726-6.124-31.896-11.206c-5.655-1.357-11.604-1.996-17.254-2.956
	c-7.838-1.33-14.243-2.864-20.694-4.307c-1.745,0.121-0.674,1.181,0.967,2.607c3.237,2.815,10.131,6.354,14.533,7.845
	c9.078,3.074,19.172,4.27,28.119,7.189c22.352,7.296,33.729,16.324,48.107,28.725c0.739,0.638,1.34,0.864,1.516-0.059
	c-0.687-18.025-3.176-18.37-10.338-29.421c-1.427-10.7-6.652-18.454-13.25-24.302c-5.467-4.847-11.721-8.309-17.779-10.593
	c-10.57-3.984-20.91-6.368-31.79-7.675c-7.688-0.924-15.291-1.169-22.574-2.18C45.83,93.726,29.701,89.159,21.876,76.723z"/>
</svg>
