<?xml version="1.0" encoding="utf-8"?>
<!DOCTYPE svg PUBLIC "-//W3C//DTD SVG 1.1//EN" "http://www.w3.org/Graphics/SVG/1.1/DTD/svg11.dtd">
<svg version="1.1" id="Layer_1" xmlns="http://www.w3.org/2000/svg" xmlns:xlink="http://www.w3.org/1999/xlink" x="0px" y="0px" width="216px" height="216px" viewBox="0 0 216 216" enable-background="new 0 0 216 216" xml:space="preserve">
<g>
	<path fill="#FFFFFF" fill-opacity="0" d="M0.122,0.122h216v216h-216V0.122z"/>
	<path d="M114.753,188.103h-9.409l-3.565,6.683l-3.485-6.683h-9.25l1.284,2.174l7.6,12.946v8.963h8.097v-9.094l7.783-13.417
		L114.753,188.103z M86.869,201.888l0.943-0.446l0.681-0.445l0.629-0.577l0.524-0.733l0.419-0.813l0.262-0.838l0.026-0.105
		l0.158-0.97l0.051-0.995l-0.078-1.049l-0.157-0.838l-0.053-0.184l-0.315-1.022l-0.419-0.97l-0.55-0.917l-0.654-0.813l-0.787-0.707
		l-0.891-0.577l-0.997-0.419l-1.126-0.262l-1.233-0.105H68.499v24.083h8.49v-17.584h2.28l0.734,0.025l0.708,0.184l0.653,0.316
		l0.604,0.443l0.393,0.577l0.21,0.655l-0.027,0.681l-0.209,0.682l-0.393,0.629l-0.602,0.524l-0.761,0.42L79.688,200l-0.97,0.053
		l-0.996-0.078l4.849,12.211h9.015l-1.259-2.777L86.869,201.888L86.869,201.888z M57.02,196.751h-5.502v-8.648h-8.728v24.083h8.464
		v-8.728h5.609v8.728h8.203v-24.083H57.02V196.751L57.02,196.751z M24.97,198.14l0.393-1.337l0.603-1.232l0.865-0.943l0.865-0.575
		l0.864-0.263l0.865-0.079l0.891,0.21l0.787,0.499l0.628,0.708l0.446,0.732l0.288,0.839l0.184,1.1h8.779l-0.209-1.152l-0.21-0.97
		l-0.236-0.891l-0.288-0.786l-0.34-0.786l-0.394-0.734l-0.419-0.708l-0.472-0.68l-0.498-0.604l-0.524-0.524l-0.55-0.444l-0.55-0.419
		l-0.629-0.343l-0.629-0.313l-0.682-0.314l-0.76-0.263l-0.787-0.261l-0.838-0.236l-0.865-0.133l-0.864-0.103l-0.865-0.08h-0.865
		l-0.891,0.027l-0.864,0.105l-0.892,0.13l-0.865,0.209l-0.838,0.235l-0.812,0.289l-0.839,0.367l-0.787,0.419l-0.759,0.472
		l-0.683,0.497l-0.603,0.524l-0.55,0.577l-0.523,0.577l-0.472,0.629l-0.42,0.682l-0.445,0.733l-0.367,0.76l-0.314,0.813l-0.262,0.76
		l-0.237,0.812l-0.157,0.813l-0.104,0.813l-0.053,0.838L16.191,200l0.053,0.891l0.105,0.917l0.157,0.865l0.209,0.839l0.262,0.813
		l0.315,0.812l0.366,0.761l0.394,0.812l0.498,0.76l0.524,0.708l0.55,0.682l0.603,0.603l0.603,0.551l0.654,0.55l0.682,0.472
		l0.708,0.42l0.733,0.367l0.734,0.313l0.761,0.264l0.786,0.208l0.787,0.131l0.838,0.133l0.838,0.052l0.865,0.026l0.813-0.078
		l0.839-0.105l0.813-0.131l0.864-0.235l0.865-0.289l0.917-0.367l0.813-0.393l0.786-0.445l0.708-0.472l0.706-0.524l0.656-0.603
		l0.603-0.63l0.499-0.629l0.445-0.654l0.368-0.655l0.315-0.682l0.287-0.734l0.236-0.733l0.184-0.786l0.131-0.733l0.157-1.048h-8.569
		l-0.131,0.576l-0.34,1.047l-0.498,0.918l-0.682,0.787l-0.839,0.576l-0.865,0.288h-0.838l-0.865-0.209l-0.785-0.42l-0.656-0.604
		l-0.498-0.76l-0.366-0.969l-0.316-1.18l-0.157-1.258v-1.31L24.97,198.14L24.97,198.14z M195.309,201.888l0.63-0.264l0.575-0.34
		l0.552-0.394l0.443-0.444l0.395-0.499l0.418-0.681l0.315-0.733l0.21-0.788l0.105-0.785l0.052-0.995l-0.078-1.049l-0.184-1.021
		l-0.315-1.022l-0.418-0.97l-0.551-0.917l-0.682-0.813l-0.76-0.707l-0.917-0.577l-0.996-0.419l-1.126-0.262l-1.207-0.105h-14.832
		v24.083h8.489v-17.584h2.675l0.55,0.052l0.525,0.132l0.496,0.236l0.42,0.261l0.34,0.315l0.289,0.419l0.184,0.419l0.105,0.472v0.472
		l-0.105,0.472l-0.184,0.446l-0.263,0.419l-0.419,0.394l-0.445,0.341l-0.496,0.261l-0.553,0.158L187.972,200l-0.604,0.053h-0.603
		l-0.603-0.078l4.849,12.211h9.041L195.309,201.888L195.309,201.888z M156.21,212.186h17.715v-6.315h-9.485v-2.753h9.485v-6.077
		h-9.485v-2.544h9.485v-6.394H156.21V212.186z M145.597,188.103h-8.518v24.083h17.349v-6.761h-8.831V188.103L145.597,188.103z
		 M135.061,203.197l-0.131-0.577l-0.158-0.576l-0.26-0.55l-0.263-0.551l-0.368-0.524l-0.391-0.497l-0.421-0.446l-0.497-0.419
		l-0.524-0.367l-0.603-0.314l-0.63-0.314l-0.655-0.263l-0.707-0.235l-0.732-0.184l-0.684-0.208l-0.732-0.158l-3.643-0.655
		l-0.473-0.105l-0.443-0.13l-0.368-0.157l-0.368-0.211l-0.313-0.261l-0.237-0.366l-0.078-0.395l0.026-0.419l0.157-0.394l0.313-0.341
		l0.342-0.288l0.421-0.209l0.443-0.157l0.5-0.053l0.549,0.025l0.499,0.105l0.497,0.157l0.394,0.184l0.264,0.235l0.234,0.263
		l0.156,0.287l0.105,0.29l0.131,0.419h8.229l-0.157-0.813l-0.157-0.761l-0.211-0.706l-0.262-0.656l-0.287-0.629l-0.367-0.629
		l-0.393-0.551l-0.446-0.472l-0.447-0.42l-0.496-0.366l-0.523-0.314l-0.551-0.313l-0.654-0.263l-0.735-0.237l-0.76-0.235
		l-0.76-0.184l-0.786-0.13l-0.787-0.078l-0.839-0.053l-0.916,0.025l-0.971,0.053l-0.995,0.105l-0.996,0.104l-1.021,0.209
		l-0.97,0.263l-0.943,0.341l-0.839,0.341l-0.812,0.419l-0.708,0.445l-0.576,0.445l-0.471,0.497l-0.395,0.524l-0.341,0.551
		l-0.262,0.498l-0.025,0.079l-0.236,0.654l-0.211,0.682l-0.131,0.708l-0.105,0.654v0.655l0.027,0.63l0.105,0.628l0.131,0.631
		l0.184,0.627l0.262,0.577v0.026l0.287,0.524l0.342,0.524l0.394,0.472l0.445,0.472l0.473,0.419l0.522,0.366l0.525,0.315l0.549,0.235
		l0.525,0.21l0.523,0.157l0.525,0.104l5.87,1.388l0.785,0.237l0.365,0.235l0.316,0.289l0.209,0.366l0.105,0.394l-0.026,0.419
		l-0.104,0.42l-0.236,0.393l-0.289,0.314l-0.418,0.236l-0.474,0.156l-0.47,0.078l-0.604-0.024l-0.549-0.08l-0.576-0.183
		l-0.552-0.236l-0.314-0.262l-0.261-0.263l-0.185-0.366l-0.131-0.419v-0.419l0.053-0.419h-8.544l0.104,0.916l0.104,0.602l0.132,0.63
		l0.185,0.576l0.235,0.603l0.157,0.368l0.105,0.209l0.34,0.551l0.394,0.523l0.418,0.498l0.473,0.446l0.496,0.419l0.553,0.341
		l0.575,0.34l0.631,0.289l0.68,0.288l0.707,0.209l0.735,0.184l0.734,0.157l0.785,0.105l0.812,0.025l0.865,0.027l0.863-0.027
		l0.918-0.052l0.946-0.104l0.939-0.158l0.946-0.183l0.891-0.235l0.865-0.315l0.838-0.34l0.786-0.393l0.709-0.473l0.681-0.472
		l0.575-0.524l0.499-0.55l0.418-0.551l0.342-0.576l0.288-0.577l0.234-0.576l0.158-0.577l0.131-0.602l0.053-0.577v-0.576
		l-0.026-0.551L135.061,203.197L135.061,203.197z"/>
	<path fill="#4284B5" d="M99.894,87.734l6.525-84.278L17.371,64.725L99.894,87.734z M198.584,68.683L112.393,3.299l3.304,85.038
		L198.584,68.683z M120.019,103.799l44.263,72.746l35.771-102.438L120.019,103.799L120.019,103.799z M106.628,112.473
		l-54.456,65.829h106.841L106.628,112.473z M93.447,103.484L16.191,69.783L48.084,174.79L93.447,103.484L93.447,103.484z"/>
</g>
</svg>
