<?xml version="1.0" encoding="utf-8"?>
<!DOCTYPE svg PUBLIC "-//W3C//DTD SVG 1.1//EN" "http://www.w3.org/Graphics/SVG/1.1/DTD/svg11.dtd">
<svg version="1.1" xmlns="http://www.w3.org/2000/svg" xmlns:xlink="http://www.w3.org/1999/xlink" x="0px" y="0px" width="216px" height="216px" viewBox="0 0 216 216" enable-background="new 0 0 216 216" xml:space="preserve">
<rect x="0.025" fill-rule="evenodd" clip-rule="evenodd" fill="#114EFF" width="216" height="215.563"/>
<path fill="#FFFFFF" d="M154.152,68.824l-12.469,4.795v6.69l8.451-3.25c2.42-0.931,4.018-3.256,4.018-5.849V68.824L154.152,68.824z
	 M142.073,115.602h9.941c0.23,0,0.417-0.186,0.417-0.416V81.781c0-0.23-0.187-0.417-0.417-0.417h-9.941
	c-0.23,0-0.417,0.187-0.417,0.417v33.405C141.655,115.415,141.843,115.602,142.073,115.602L142.073,115.602z M128.649,101.866
	c0-0.878,0.003-6.648-0.013-11.632h7.608c0.229,0,0.417-0.186,0.417-0.417v-8.037c0-0.23-0.188-0.417-0.417-0.417h-7.594
	c0,0,0.001-5.389-0.002-6.345c-0.001-0.229-0.187-0.411-0.416-0.411h-10.104c-0.229,0-0.417,0.182-0.416,0.414
	c0.007,2.57,0,16.719,0,28.098c0,12.398,11.357,12.48,15.366,12.481h3.284c0.23,0,0.416-0.187,0.416-0.416v-7.447
	c0-0.228-0.182-0.411-0.41-0.415C132.813,107.26,128.649,106.344,128.649,101.866L128.649,101.866z M33.715,111.039
	c0,2.191-1.184,5.382-7.774,5.442c-0.229,0.003-0.419,0.186-0.419,0.415v7.443c0,0.23,0.186,0.416,0.417,0.416h3.284
	c4.008-0.002,15.366-0.146,15.366-12.543c0-11.459-0.007-27.659,0-30.437c0-0.23-0.187-0.414-0.417-0.414H34.137
	c-0.229,0-0.417,0.185-0.417,0.414C33.711,85.213,33.715,108.957,33.715,111.039L33.715,111.039z M69.272,103.124
	c0.015,2.858-1.706,4.49-4.712,4.49c-3.007,0-4.704-1.633-4.704-4.496c0-2.051,0.014-18.515,0-21.342
	c-0.001-0.229-0.188-0.413-0.417-0.413h-9.941c-0.23,0-0.418,0.184-0.417,0.416c0.008,2.046,0,12.507,0,22.477
	c0,12.571,11.679,12.615,15.484,12.615c3.805,0,15.484,0,15.484-12.615c0-9.97,0-22.474,0-22.474c0-0.23-0.187-0.417-0.417-0.417
	H69.69c-0.23,0-0.417,0.187-0.417,0.417v21.343H69.272L69.272,103.124z M168.998,93.847c-0.016-2.858,1.705-4.49,4.713-4.49
	c3.006,0,4.703,1.633,4.703,4.496c0,2.051-0.014,18.514,0,21.342c0.002,0.229,0.188,0.412,0.416,0.412h9.942
	c0.23,0,0.418-0.184,0.417-0.415c-0.008-2.047,0-12.506,0-22.477c0-12.57-11.68-12.615-15.484-12.615
	c-3.803,0-15.484,0-15.484,12.615c0,9.97,0,22.474,0,22.474c0,0.23,0.187,0.417,0.417,0.417h9.942c0.23,0,0.416-0.187,0.416-0.417
	V93.847H168.998L168.998,93.847z M106.196,95.709c-0.265-0.061-6.584-1.192-6.879-1.247c-2.835-0.522-4.684-1.421-4.684-3.238
	c0-1.208,0.924-3.211,4.66-3.211c4.061,0,4.566,2.446,4.603,3.62c0.008,0.224,0.192,0.397,0.416,0.397h8.696
	c0.232,0,0.425-0.19,0.416-0.423c-0.133-4.06-2.262-11.506-14.943-11.506c-9.625,0-14.436,4.803-14.436,11.624
	c0,5.188,3.408,7.953,7.958,9.049c3.197,0.771,11.856,0.856,11.856,4.787c0,1.203-0.917,3.207-4.654,3.207
	c-4.188,0-5.104-2.593-5.232-3.722c-0.024-0.209-0.201-0.362-0.412-0.362h-9.371c-0.237,0-0.429,0.194-0.418,0.432
	c0.14,3.294,2.479,11.861,15.242,11.861c10.109,0,15.141-4.609,15.141-11.619C114.154,100.168,110.762,96.761,106.196,95.709
	L106.196,95.709z M157.797,58.909L157.797,58.909l-0.001,2.364c0,2.604-1.61,4.937-4.045,5.86l-12.067,4.573v-6.69L157.797,58.909
	L157.797,58.909z M73.75,128.52h0.761v3.324h-2.026v-1.357h-3.04v1.357h-2.026v-3.324h0.75c0.284-0.513,0.425-1.229,0.425-2.147
	v-2.98h5.158V128.52L73.75,128.52z M70.264,128.52L70.264,128.52h1.46v-3.264h-1.105v1.135
	C70.619,127.271,70.501,127.979,70.264,128.52L70.264,128.52z M81.902,129.578c-0.726,0.712-1.616,1.068-2.67,1.068
	s-1.943-0.356-2.671-1.068c-0.727-0.713-1.088-1.593-1.088-2.641c0-1.047,0.363-1.927,1.088-2.64
	c0.726-0.712,1.617-1.068,2.671-1.068s1.943,0.356,2.67,1.068c0.728,0.713,1.09,1.593,1.09,2.64
	C82.993,127.985,82.63,128.865,81.902,129.578L81.902,129.578z M77.991,128.17L77.991,128.17c0.329,0.328,0.741,0.491,1.242,0.491
	c0.5,0,0.913-0.163,1.241-0.491s0.492-0.738,0.492-1.23c0-0.493-0.165-0.904-0.492-1.23c-0.328-0.328-0.741-0.492-1.241-0.492
	c-0.501,0-0.914,0.164-1.242,0.492c-0.328,0.328-0.491,0.737-0.491,1.23C77.5,127.432,77.664,127.842,77.991,128.17L77.991,128.17z
	 M87.917,130.648c-1.067,0-1.951-0.355-2.654-1.064c-0.703-0.71-1.054-1.591-1.054-2.645c0-1.055,0.351-1.936,1.054-2.646
	s1.587-1.063,2.654-1.063c0.655,0,1.261,0.156,1.813,0.467c0.555,0.311,0.987,0.729,1.298,1.256l-1.763,1.014
	c-0.115-0.229-0.293-0.412-0.537-0.548c-0.244-0.135-0.514-0.202-0.812-0.202c-0.499,0-0.905,0.162-1.216,0.486
	s-0.466,0.736-0.466,1.236s0.155,0.912,0.466,1.236s0.715,0.485,1.216,0.485c0.304,0,0.576-0.066,0.816-0.201
	c0.24-0.136,0.417-0.32,0.532-0.558l1.763,1.014c-0.311,0.534-0.744,0.956-1.298,1.268
	C89.178,130.493,88.572,130.648,87.917,130.648L87.917,130.648z M97.312,123.392v1.967h-1.673v5.128h-2.026v-5.128h-1.671v-1.967
	H97.312L97.312,123.392z M102.582,123.392h2.128l-2.048,4.803c-0.337,0.79-0.782,1.378-1.333,1.765
	c-0.55,0.384-1.268,0.561-2.153,0.525v-1.884c0.615,0.047,1.081-0.071,1.399-0.355l-2.352-4.854h2.128l1.226,2.696L102.582,123.392
	L102.582,123.392z M111.498,123.392v7.095h-2.026v-5.128h-1.52v5.128h-2.026v-7.095H111.498L111.498,123.392z M116.971,123.392
	h2.026v7.095h-2.026v-2.614h-1.724v2.614h-2.026v-7.095h2.026v2.513h1.724V123.392L116.971,123.392z M124.824,130.486l-0.243-0.912
	h-2.048l-0.242,0.912h-2.18l2.26-7.095h2.371l2.262,7.095H124.824L124.824,130.486z M122.97,127.952L122.97,127.952h1.176
	l-0.588-2.179L122.97,127.952L122.97,127.952z M136.73,128.52h0.762v3.324h-2.027v-1.357h-3.039v1.357h-2.027v-3.324h0.75
	c0.284-0.513,0.425-1.229,0.425-2.147v-2.98h5.157V128.52L136.73,128.52z M133.245,128.52L133.245,128.52h1.46v-3.264H133.6v1.135
	C133.6,127.271,133.481,127.979,133.245,128.52L133.245,128.52z M144.883,129.578c-0.726,0.712-1.616,1.068-2.67,1.068
	c-1.055,0-1.943-0.356-2.671-1.068c-0.728-0.713-1.089-1.593-1.089-2.641c0-1.047,0.363-1.927,1.089-2.64
	c0.726-0.712,1.616-1.068,2.671-1.068c1.054,0,1.943,0.356,2.67,1.068c0.729,0.713,1.091,1.593,1.091,2.64
	C145.974,127.985,145.611,128.865,144.883,129.578L144.883,129.578z M140.973,128.17L140.973,128.17
	c0.328,0.328,0.74,0.491,1.242,0.491c0.5,0,0.913-0.163,1.241-0.491c0.327-0.328,0.491-0.738,0.491-1.23
	c0-0.493-0.165-0.904-0.491-1.23c-0.328-0.328-0.741-0.492-1.241-0.492c-0.502,0-0.914,0.164-1.242,0.492s-0.492,0.737-0.492,1.23
	C140.48,127.432,140.645,127.842,140.973,128.17L140.973,128.17z M150.898,130.648c-1.067,0-1.951-0.355-2.654-1.064
	c-0.703-0.71-1.055-1.591-1.055-2.645c0-1.055,0.352-1.936,1.055-2.646s1.587-1.063,2.654-1.063c0.654,0,1.26,0.156,1.813,0.467
	s0.987,0.729,1.298,1.256l-1.763,1.014c-0.115-0.229-0.294-0.412-0.537-0.548c-0.243-0.135-0.515-0.202-0.812-0.202
	c-0.5,0-0.905,0.162-1.217,0.486c-0.311,0.324-0.465,0.736-0.465,1.236s0.154,0.912,0.465,1.236
	c0.312,0.324,0.716,0.485,1.217,0.485c0.305,0,0.576-0.066,0.815-0.201c0.239-0.136,0.417-0.32,0.532-0.558l1.762,1.014
	c-0.311,0.534-0.742,0.956-1.297,1.268C152.158,130.493,151.553,130.648,150.898,130.648L150.898,130.648z M160.293,123.392v1.967
	h-1.674v5.128h-2.026v-5.128h-1.673v-1.967H160.293L160.293,123.392z M165.207,130.486l-0.244-0.912h-2.047l-0.242,0.912h-2.18
	l2.26-7.095h2.371l2.262,7.095H165.207L165.207,130.486z M163.354,127.952L163.354,127.952h1.176l-0.588-2.179L163.354,127.952
	L163.354,127.952z M173.061,126.827c0.608,0.344,0.912,0.867,0.912,1.571c0,0.647-0.21,1.157-0.633,1.528
	c-0.422,0.373-1.035,0.558-1.84,0.558h-3v-7.095h2.818c0.797,0,1.405,0.174,1.824,0.518c0.42,0.344,0.629,0.837,0.629,1.479
	C173.77,126.003,173.533,126.482,173.061,126.827L173.061,126.827z M171.196,125.135L171.196,125.135h-0.669v0.952l0.781-0.011
	c0.29-0.039,0.436-0.195,0.436-0.465c0-0.156-0.055-0.274-0.163-0.355C171.475,125.176,171.346,125.135,171.196,125.135
	L171.196,125.135z M171.379,128.742L171.379,128.742c0.162,0,0.296-0.047,0.404-0.142c0.108-0.096,0.162-0.216,0.162-0.365
	c0-0.283-0.151-0.448-0.455-0.496l-0.963-0.011v1.014H171.379L171.379,128.742z M181.379,130.486h-2.248l-1.764-3.041v3.041h-2.027
	v-7.095h2.027v2.838l1.662-2.838h2.25l-2.108,3.446L181.379,130.486L181.379,130.486z M186.902,130.486l-0.243-0.912h-2.048
	l-0.242,0.912h-2.18l2.26-7.095h2.371l2.262,7.095H186.902L186.902,130.486z M185.048,127.952L185.048,127.952h1.176l-0.588-2.179
	L185.048,127.952z"/>
</svg>
