<?xml version="1.0" encoding="utf-8"?>
<!DOCTYPE svg PUBLIC "-//W3C//DTD SVG 1.1//EN" "http://www.w3.org/Graphics/SVG/1.1/DTD/svg11.dtd">
<svg version="1.1" id="Layer_2" xmlns="http://www.w3.org/2000/svg" xmlns:xlink="http://www.w3.org/1999/xlink" x="0px" y="0px" width="216px" height="216px" viewBox="7 -75 216 216" enable-background="new 7 -75 216 216" xml:space="preserve">
<g id="Layer_1">
	<path fill-rule="evenodd" clip-rule="evenodd" fill="#EF4136" d="M61-75h108.003C198.702-75,223-50.7,223-21V87.003
		C223,116.702,198.702,141,169.003,141H61c-29.7,0-54-24.298-54-53.997V-21C7-50.7,31.3-75,61-75z"/>
	<g id="_x23_ffffffff">
		<path fill="#FFFFFF" d="M112.016-4.396c2.417-1.626,5.434,1.364,4.025,3.851c-1.374,1.609-3.338,2.565-4.756,4.139
			c-4.017,4.243-5.538,10.337-4.921,16.058c0.705,2.661-2.564,4.852-4.782,3.208c-1.739-1.826-1.191-4.495-1.27-6.773
			C100.705,7.967,104.669-0.389,112.016-4.396z"/>
		<path fill="#FFFFFF" d="M123.24,1.542c1.782-0.8,4.313,0.278,4.165,2.452c0.33,2.921-3.392,3.217-5.26,4.417
			c-4.73,2.087-7.33,6.999-7.834,11.963c-0.078,2.652-3.26,2.504-5.026,1.687C107.061,12.853,114.737,3.976,123.24,1.542z"/>
		<path fill="#FFFFFF" d="M127.718,10.636c1.556-0.243,3.33-0.696,4.722,0.339c1.834,1.191,1.382,4.747-0.992,4.965
			c-2.773,0.513-6.156,0.904-7.668,3.651c-1.018,1.452-1.304,3.86-3.451,4.008c-1.853,0.347-3.392-1.365-3.235-3.147
			C118.076,15.348,122.701,11.462,127.718,10.636z"/>
		<path fill="#FFFFFF" d="M17.5,18.547c6.391-3.834,14.65-4.051,21.397-0.982c0.948,0.452,2.017,0.904,2.582,1.852
			c1.791,1.938-1.112,5.304-3.338,4.122c-3.904-1.661-8.164-2.87-12.424-1.921c-2.956,0.478-5.721,2.843-8.764,1.46
			C16.76,21.634,15.943,19.513,17.5,18.547z"/>
		<path fill="#FFFFFF" d="M202.472,15.617c2.278-0.843,4.947,1.548,4.242,3.948c-0.147,2.965-4.59,3.721-6.086,1.4
			C199.455,19.052,200.168,16.226,202.472,15.617z"/>
		<path fill="#FFFFFF" d="M211.209,17.469c2.608-0.956,5.383,2.069,4.096,4.591c-0.713,2.287-3.896,2.574-5.564,1.182
			C208.123,21.469,208.628,18.008,211.209,17.469z"/>
		<path fill="#FFFFFF" d="M192.004,18.051c2.747-2.242,7.181,1.375,5.138,4.374c-1.261,2.956-6.251,1.938-6.407-1.165
			C190.525,20.025,191.143,18.887,192.004,18.051z"/>
		<path fill="#FFFFFF" d="M24.977,26.765c6.807-2.374,15.006,1.756,16.78,8.814c0.869,4.425,0.469,9.034,0.382,13.521
			c-0.156,3.347-5.251,4.252-6.877,1.513c-1.765-4.843,1.104-10.746-2.104-15.119c-3.095-3.913-10.094-0.801-9.346,4.095
			c-0.104,3.634,3.721,5.017,6.694,5.443c3.539,0.8,3.043,6.947-0.634,7.085c-6.051,0.757-11.963-3.808-13.381-9.624
			C14.466,36.084,18.734,28.824,24.977,26.765z"/>
		<path fill="#FFFFFF" d="M48.425,26.659c2.035-1.061,4.826-0.373,5.695,1.869c0.313,2.199,0.147,4.443,0.252,6.669
			c2.748,0.069,5.495,0.087,8.233-0.044c0.018-2.226-0.182-4.485,0.305-6.677c0.939-3.391,7.008-2.93,7.112,0.748
			c0.235,6.624,0.217,13.275,0.018,19.9c-0.043,3.723-6.233,4.218-7.147,0.757c-0.504-2.19-0.261-4.452-0.278-6.677
			c-2.747-0.131-5.495-0.113-8.242-0.044c-0.408,2.747,0.853,6.156-1.399,8.304c-2.278,1.738-6.034,0.408-6.226-2.592
			c-0.313-5.113-0.008-10.25-0.13-15.38C46.651,31.162,46.26,28.225,48.425,26.659z"/>
		<path fill="#FFFFFF" d="M73.108,32.023c-1.729-2.156,0-5.947,2.869-5.791c6.364-0.14,12.746-0.199,19.102,0.062
			c2.756,0.156,3.712,3.87,2.278,5.868c-1.982,2.514-5.546,1.174-8.286,1.497c-0.417,5.285,0.314,10.658-0.417,15.901
			c-0.8,3.799-7.007,3.338-7.364-0.469c-0.235-5.131,0.026-10.277-0.13-15.408C78.49,33.346,74.882,34.685,73.108,32.023z"/>
		<path fill="#FFFFFF" d="M106.764,26.902c7.034-2.687,15.824,1.758,17.215,9.287c1.93,7.085-3.295,15.014-10.599,15.893
			c-7.155,1.459-14.693-4.27-15.058-11.582C97.557,34.71,101.252,28.799,106.764,26.902 M109.495,34.058
			c-3.634,1.165-5.017,6.295-2.087,8.921c2.417,2.799,7.294,1.896,8.747-1.434C118.571,37.597,113.676,32.162,109.495,34.058z"/>
		<path fill="#FFFFFF" d="M128.744,27.155c2.198-2.277,6.799-0.418,6.416,2.878c0.634,4.843-1.184,10.188,1.13,14.658
			c1.052-0.113,2.227-0.095,2.99-0.956c0.819-4.938-0.251-10.016,0.574-14.928c0.888-3.444,6.025-3.427,7.296-0.262
			c0.469,4.8-0.132,9.642,0.286,14.45c0.357,1.904,2.903,2.113,3.999,0.73c0.73-4.982-0.435-10.137,0.6-15.059
			c1-3.67,6.852-3.06,7.348,0.636c0.234,4.023,0.025,8.067,0.104,12.102c0.27,4.052-1.999,8.198-5.738,9.901
			c-3.269,1.627-7.008,0.791-10.129-0.729c-2.234,0.582-4.373,1.8-6.763,1.583c-4.191,0-8.035-3.217-8.904-7.295
			c-0.86-3.721-0.321-7.581-0.478-11.363C127.553,31.38,127.136,28.842,128.744,27.155z"/>
		<path fill="#FFFFFF" d="M163.791,29.198c0.147-3.556,5.981-4.139,7.076-0.887c0.758,2.678,0.209,5.503,0.609,8.242
			c4.017-2.844,6.756-7.147,10.771-9.99c3.104-1.808,6.887,1.948,5.104,5.053c-1.896,2.781-4.73,4.746-6.912,7.293
			c1.416,3.557,6.478,5.243,7.294,9.355c0.417,3.2-3.721,5.173-6.095,3.165c-3.601-2.974-6.397-6.816-10.172-9.59
			c-0.313,2.729,0.121,5.538-0.583,8.215c-1.068,3.297-6.99,2.705-7.104-0.894C163.625,42.51,163.625,35.849,163.791,29.198z"/>
		<path fill="#FFFFFF" d="M192.168,31.407c4.557-6.782,15.529-6.922,20.571-0.652c3.67,4.208,3.069,10.138,3.243,15.327v2.861
			c-0.773,3.294-5.547,4.643-7.304,1.443c-1.538-4.339,0.471-9.313-1.147-13.651c-1.625-3.556-6.981-4.085-9.189-0.8
			c-2.496,2.948-0.583,7.947,3.242,8.478c2.383,0.4,5.548,1.627,4.878,4.651c-0.73,4.139-6.164,3.452-9.042,2.131
			C189.856,48.238,187.188,37.744,192.168,31.407z"/>
	</g>
</g>
</svg>
