<?xml version="1.0" encoding="utf-8"?>
<!DOCTYPE svg PUBLIC "-//W3C//DTD SVG 1.1//EN" "http://www.w3.org/Graphics/SVG/1.1/DTD/svg11.dtd">
<svg version="1.1" id="Layer_1" xmlns="http://www.w3.org/2000/svg" xmlns:xlink="http://www.w3.org/1999/xlink" x="0px" y="0px" width="216px" height="216px" viewBox="0 0 216 216" enable-background="new 0 0 216 216" xml:space="preserve">
<g>
	<path fill="#2C81C4" d="M206.697,156.997c-1.799-0.385-3.614-0.653-5.43-0.833c-1.814-0.166-3.523-0.243-5.094-0.243
		c-3.371,0.013-6.406,0.371-9.137,1.076c-2.715,0.704-5.094,1.69-7.153,2.958c-2.059,1.269-3.782,2.741-5.171,4.432
		c-1.372,1.69-2.409,3.522-3.111,5.494c-0.701,1.985-1.052,4.035-1.052,6.174c0,2.113,0.32,4.188,0.945,6.212
		c0.625,2.023,1.586,3.932,2.883,5.699c1.281,1.768,2.913,3.317,4.865,4.662c1.968,1.345,4.286,2.407,6.94,3.163
		c2.669,0.769,5.688,1.152,9.075,1.165c1.8-0.013,3.492-0.089,5.048-0.269c1.557-0.166,2.944-0.358,4.148-0.602
		c1.205-0.23,2.197-0.448,2.975-0.666l-0.457-7.608c-1.617,0.577-3.249,0.986-4.896,1.243c-1.647,0.256-3.188,0.371-4.621,0.371
		c-2.182-0.013-4.118-0.346-5.842-0.986c-1.724-0.653-3.173-1.563-4.378-2.715c-1.189-1.166-2.104-2.523-2.745-4.086
		c-0.625-1.55-0.945-3.228-0.945-5.046c0.015-2.011,0.381-3.817,1.128-5.431c0.748-1.614,1.785-2.984,3.112-4.137
		c1.342-1.153,2.897-2.036,4.682-2.651c1.785-0.602,3.722-0.922,5.812-0.922c1.464,0,2.821,0.076,4.088,0.243
		c1.266,0.18,2.456,0.448,3.6,0.832L206.697,156.997L206.697,156.997z M102.419,156.536v39.806h12.81v-39.806H102.419
		L102.419,156.536z M67.219,178.975h7.741c0.735-0.013,1.575,0.025,2.49,0.128c0.93,0.09,1.831,0.308,2.686,0.641
		c0.87,0.333,1.575,0.858,2.145,1.563c0.555,0.718,0.855,1.678,0.87,2.895c-0.03,1.307-0.345,2.331-0.945,3.048
		c-0.615,0.73-1.365,1.243-2.266,1.55c-0.885,0.308-1.785,0.5-2.67,0.563c-0.9,0.052-1.635,0.077-2.221,0.064h-7.831V178.975
		L67.219,178.975z M67.219,163.452h7.561c0.6-0.013,1.29,0.025,2.07,0.103c0.78,0.076,1.53,0.243,2.28,0.524
		c0.735,0.27,1.351,0.705,1.831,1.281c0.48,0.589,0.735,1.383,0.75,2.395c-0.015,1.051-0.255,1.87-0.735,2.46
		c-0.48,0.589-1.081,1.012-1.815,1.28c-0.735,0.256-1.485,0.423-2.266,0.486c-0.78,0.064-1.485,0.09-2.115,0.077h-7.561V163.452
		L67.219,163.452z M54.978,156.536v39.806h23.583c3.525,0,6.586-0.436,9.181-1.307c2.596-0.857,4.606-2.113,6.031-3.766
		c1.425-1.665,2.146-3.688,2.161-6.07c-0.015-1.652-0.33-3.074-0.93-4.265c-0.6-1.204-1.41-2.19-2.431-2.984
		c-1.02-0.781-2.175-1.37-3.435-1.78c-1.26-0.41-2.565-0.653-3.916-0.73v-0.23c1.635-0.281,3.105-0.807,4.396-1.575
		c1.305-0.769,2.325-1.768,3.09-2.997c0.75-1.229,1.14-2.677,1.155-4.342c0.015-1.075-0.18-2.177-0.615-3.304
		c-0.435-1.141-1.23-2.19-2.37-3.164c-1.141-0.974-2.761-1.755-4.876-2.356s-4.831-0.922-8.161-0.935H54.978L54.978,156.536z
		 M33.451,178.283v0.999c-0.015,2.139-0.369,3.906-1.061,5.289c-0.692,1.384-1.599,2.459-2.721,3.24
		c-1.122,0.781-2.352,1.319-3.689,1.627c-1.338,0.308-2.66,0.461-3.967,0.448c-1.83-0.013-3.32-0.243-4.443-0.704
		c-1.122-0.461-1.953-1.076-2.46-1.845c-0.507-0.781-0.769-1.64-0.753-2.6c0.015-1.269,0.384-2.306,1.106-3.125
		c0.708-0.807,1.676-1.447,2.875-1.908c1.199-0.448,2.552-0.781,4.028-0.986c1.476-0.205,2.998-0.333,4.535-0.372
		c1.553-0.051,3.028-0.076,4.427-0.063H33.451L33.451,178.283z M7.796,166.756c2.75-1.293,5.362-2.202,7.808-2.753
		c2.446-0.538,4.891-0.794,7.322-0.781c0.334-0.013,0.881,0.013,1.656,0.076c0.774,0.064,1.656,0.205,2.628,0.423
		c0.972,0.23,1.929,0.589,2.855,1.076c0.927,0.486,1.717,1.165,2.339,2.011c0.638,0.858,1.002,1.934,1.094,3.253l0.091,1.69h-1.094
		c-1.139,0-2.293-0.013-3.463-0.038s-2.324-0.039-3.463-0.039c-3.995,0.014-7.367,0.295-10.132,0.846s-5.028,1.281-6.775,2.203
		c-1.747,0.935-3.099,1.959-4.041,3.112c-0.957,1.14-1.61,2.318-1.959,3.521c-0.365,1.204-0.532,2.357-0.517,3.459
		c0,1.575,0.304,3.073,0.941,4.521c0.638,1.447,1.625,2.741,2.962,3.881c1.352,1.14,3.083,2.049,5.21,2.715
		c2.126,0.666,4.678,1.012,7.656,1.024c2.567-0.025,4.739-0.281,6.517-0.768c1.777-0.5,3.22-1.102,4.359-1.832
		c1.124-0.717,1.99-1.435,2.613-2.139c0.608-0.704,1.033-1.269,1.276-1.716h0.182v5.84h12.122v-25.129
		c0.015-1.216-0.091-2.51-0.334-3.894c-0.243-1.383-0.745-2.74-1.504-4.085c-0.76-1.332-1.899-2.562-3.418-3.663
		s-3.554-1.973-6.091-2.639c-2.537-0.653-5.711-0.999-9.524-1.012c-2.112,0-4.132,0.077-6.061,0.257
		c-1.929,0.166-3.828,0.435-5.666,0.819c-1.853,0.384-3.707,0.896-5.59,1.537V166.756L7.796,166.756z M152.482,178.283v0.999
		c-0.016,2.139-0.369,3.906-1.061,5.289c-0.692,1.384-1.6,2.459-2.722,3.24s-2.353,1.319-3.689,1.627
		c-1.338,0.308-2.66,0.461-3.967,0.448c-1.829-0.013-3.32-0.243-4.442-0.704c-1.123-0.461-1.953-1.076-2.46-1.845
		c-0.508-0.781-0.769-1.64-0.754-2.6c0.016-1.269,0.385-2.306,1.107-3.125c0.707-0.807,1.676-1.447,2.875-1.908
		c1.199-0.448,2.552-0.781,4.027-0.986c1.477-0.205,2.998-0.333,4.535-0.372c1.554-0.051,3.029-0.076,4.428-0.063H152.482
		L152.482,178.283z M126.827,166.756c2.749-1.293,5.362-2.202,7.808-2.753c2.445-0.538,4.892-0.794,7.321-0.781
		c0.335-0.013,0.882,0.013,1.656,0.076c0.774,0.064,1.655,0.205,2.628,0.423c0.972,0.23,1.929,0.589,2.855,1.076
		c0.927,0.486,1.717,1.165,2.34,2.011c0.638,0.858,1.002,1.934,1.093,3.253l0.092,1.69h-1.094c-1.14,0-2.294-0.013-3.463-0.038
		c-1.17-0.025-2.324-0.039-3.464-0.039c-3.995,0.014-7.367,0.295-10.132,0.846s-5.028,1.281-6.774,2.203
		c-1.747,0.935-3.1,1.959-4.041,3.112c-0.957,1.14-1.61,2.318-1.96,3.521c-0.364,1.204-0.531,2.357-0.517,3.459
		c0,1.575,0.305,3.073,0.942,4.521s1.625,2.741,2.962,3.881c1.352,1.14,3.084,2.049,5.21,2.715c2.127,0.666,4.679,1.012,7.656,1.024
		c2.567-0.025,4.739-0.281,6.517-0.768c1.777-0.5,3.221-1.102,4.359-1.832c1.124-0.717,1.99-1.435,2.613-2.139
		c0.607-0.704,1.032-1.269,1.275-1.716h0.183v5.84h12.122v-25.129c0.015-1.216-0.092-2.51-0.334-3.894
		c-0.243-1.383-0.745-2.74-1.504-4.085c-0.76-1.332-1.899-2.562-3.418-3.663c-1.52-1.102-3.555-1.973-6.092-2.639
		c-2.537-0.653-5.711-0.999-9.524-1.012c-2.111,0-4.132,0.077-6.061,0.257c-1.93,0.166-3.828,0.435-5.666,0.819
		c-1.854,0.384-3.706,0.896-5.59,1.537V166.756L126.827,166.756z M109,14.489c46.084,0,85.372,17.992,100.43,41.087
		c-0.075,0.022-0.151,0.045-0.228,0.07c-12.736,4.031-23.474,10.277-33.167,15.126c-28.071,14.044-41.251,35.178-51.591,49.396
		c-8.386,11.532-11.185,20.08-15.808,20.619c-4.623-0.539-7.422-9.087-15.808-20.619C82.49,105.95,69.31,84.817,41.239,70.772
		c-9.694-4.85-20.431-11.095-33.167-15.126c-0.012-0.004-0.024-0.007-0.037-0.011C22.677,31.673,62.354,14.489,109,14.489
		L109,14.489z M211.371,58.834c-0.096,0.031-0.193,0.062-0.294,0.092c-13.084,3.953-25.208,9.9-34.77,15.006
		c-27.216,14.533-40.78,34.688-51.073,48.94c-8.328,11.533-12.285,20.247-16.598,20.603c-4.313-0.355-8.269-9.069-16.598-20.603
		c-10.292-14.251-23.857-34.407-51.073-48.94C31.406,68.827,19.283,62.88,6.201,58.927c-1.575,3.133-2.727,6.37-3.421,9.687
		c0.04,0.01,0.08,0.021,0.12,0.032c14.017,3.932,28.788,10.05,38.828,15.074c28.07,14.044,38.076,28.948,49.88,43.044
		c9.155,10.932,12.162,18.553,16.991,19.092c4.829-0.539,7.837-8.16,16.991-19.092c11.805-14.097,21.81-29,49.88-43.044
		c10.04-5.023,24.812-11.142,38.828-15.074c0.288-0.081,0.56-0.131,0.812-0.155C214.339,65.211,213.078,61.982,211.371,58.834
		L211.371,58.834z M215.752,72.124c-0.228,0.097-0.479,0.183-0.756,0.252c-14.637,3.71-27.446,7.873-38.032,13.525
		c-27.216,14.532-39.976,28.448-50.584,42.467c-8.45,11.166-13.263,20.368-17.781,20.725c-4.519-0.356-9.331-9.559-17.781-20.725
		c-10.608-14.019-23.369-27.935-50.584-42.467c-10.586-5.653-23.396-9.815-38.032-13.525l-0.006-0.001C2.07,73.591,2,74.816,2,76.05
		c0,2.253,0.214,4.478,0.624,6.668c14.246,4.311,27.487,8.69,38.187,13.581c28.783,13.153,37.056,23.731,49.88,37.059
		c10.087,10.482,13.75,17.516,17.907,17.933c4.157-0.417,7.819-7.45,17.907-17.933c12.824-13.327,21.098-23.905,49.881-37.059
		c10.717-4.898,23.983-9.284,38.256-13.602c0.334-0.101,0.605-0.104,0.813-0.036C215.815,80.504,216,78.3,216,76.05
		C216,74.737,215.912,73.427,215.752,72.124L215.752,72.124z M210.13,96.853l4.835-11.727c-0.282,0.196-0.624,0.357-1.025,0.457
		c-14.004,3.479-20.488,4.958-31.174,9.967c-29.055,13.618-43.107,27.308-55.226,39.29c-10.476,10.358-14.605,18.66-18.941,19.016
		c-4.336-0.355-8.466-8.657-18.941-19.016c-12.118-11.982-26.17-25.672-55.225-39.29c-10.681-5.006-17.164-6.486-31.154-9.962
		c1.083,4.001,2.834,7.875,5.189,11.583l0.045,0.012c12.988,3.428,27.701,7.557,36.695,12.185
		c26.06,13.41,30.913,16.57,42.515,27.131c0.113,0.103,0.229,0.199,0.347,0.296c10.964,9.015,16.193,18.293,20.529,18.649
		c3.088,0.273,6.169-4.037,11.54-9.979c2.354-2.604,5.296-5.274,8.622-8.426c21.778-20.624,51.384-32.323,79.925-39.856
		c0.113-0.03,0.224-0.059,0.331-0.085h0.001l0.003-0.001l0.005-0.001c0.101-0.025,0.199-0.049,0.295-0.071l0.036-0.009
		c0.081-0.019,0.161-0.037,0.239-0.054l0.088-0.019c0.06-0.013,0.119-0.025,0.177-0.037c0.04-0.008,0.08-0.016,0.119-0.024
		c0.044-0.008,0.087-0.017,0.129-0.024L210.13,96.853L210.13,96.853z M83.594,135.861c-10.615-9.632-23.539-18.254-48.063-28.341
		c-8.745-3.597-16.646-5.315-24.597-6.813C24.162,118.092,50.947,131.285,83.594,135.861L83.594,135.861z M208.088,100.196
		c-0.044,0.016-0.087,0.032-0.13,0.047l-0.091,0.032c-0.039,0.014-0.078,0.027-0.117,0.04c-0.036,0.012-0.072,0.024-0.107,0.036
		l-0.092,0.029c-0.048,0.015-0.096,0.03-0.144,0.044l-0.063,0.019c-0.057,0.017-0.112,0.033-0.168,0.049l-0.039,0.011
		c-0.063,0.017-0.124,0.034-0.187,0.05l-0.026,0.007c-0.066,0.017-0.134,0.034-0.2,0.049l-0.011,0.002
		c-0.07,0.017-0.141,0.032-0.211,0.047l-0.006,0.001c-0.072,0.015-0.144,0.029-0.216,0.043c-7.956,1.499-15.863,3.217-24.615,6.817
		c-24.566,10.105-37.492,18.74-48.118,28.392c-0.025,0.023-0.052,0.046-0.078,0.069
		C167.428,131.496,195.139,118.611,208.088,100.196z"/>
</g>
</svg>
