<?xml version="1.0" encoding="utf-8"?>
<!DOCTYPE svg PUBLIC "-//W3C//DTD SVG 1.1//EN" "http://www.w3.org/Graphics/SVG/1.1/DTD/svg11.dtd">
<svg version="1.1" id="Layer_1" xmlns="http://www.w3.org/2000/svg" xmlns:xlink="http://www.w3.org/1999/xlink" x="0px" y="0px" width="216px" height="216px" viewBox="0 0 216 216" enable-background="new 0 0 216 216" xml:space="preserve">
<g>
	<path d="M156.601,184.635c-12.885,11.755-23.978,18.092-47.345,30.365c-21.75-9.906-35.947-19.672-48.258-29.289
		c-17.014-13.264-29.235-34.802-30.295-48.011L22.214,11.978C79.716-2.99,140.879-2.649,193.786,12.983l-8.612,124.449
		C184.077,148.703,174.008,170.617,156.601,184.635z M175.322,133.31l7.771-111.131C137.561,7.659,83.021,7.443,32.769,20.652
		l7.932,112.586c0.826,11.7,9.243,29.595,25.377,43.308c9.71,8.256,28.734,22.112,42.785,27.424
		c16.189-8.201,30.904-18.396,42.571-28.463C165.899,162.313,174.442,145.909,175.322,133.31z M149.566,172.571
		c-11.182,9.657-26.237,20.479-40.703,27.39c-12.921-4.003-32.017-18.757-41.206-26.688c-16.027-13.856-22.542-28.356-23.529-42.07
		l-7.79-107.47c47.847-12.581,100.074-12.581,143.467,1.255l-7.698,106.035C170.996,145.129,164.444,158.607,149.566,172.571z
		 M39.916,25.821l1.543,18.522c45.675-11.432,93.523-10.283,133.239,1.741l1.705-18.845C135.25,14.604,85.287,13.922,39.916,25.821
		 M153.499,32.695l-10.302-1.705l-0.396,4.846l-3.355-0.503l0.788-12.85l3.43,0.503l-0.359,4.935l10.446,1.687l0.34-4.935
		l3.499,0.664l-1.058,12.886l-3.41-0.627L153.499,32.695z M103.782,28.335c-1.257,0-2.262-0.34-2.926-1.453
		c-0.573-0.916-0.573-3.895,0-4.881c0.628-1.148,1.759-1.471,2.693-1.471l14.608,0.018l0.034,3.159l-13.817-0.019
		c-0.683,0-0.7,1.526,0.054,1.526h10.893c1.276,0,2.405,0.771,2.764,1.776c0.396,1.077,0.324,3.518,0,4.523
		c-0.305,1.005-1.453,1.561-2.89,1.561h-14.41l-0.019-3.231h12.831c0.417-0.033,0.728-0.397,0.694-0.813
		c-0.029-0.371-0.323-0.665-0.694-0.694H103.782z M95.33,29.619c-0.012-0.667-0.563-1.198-1.23-1.186c-0.009,0-0.017,0-0.026,0.001
		l-9.692,0.7l0.197,4.81l-3.141,0.323l-0.665-12.688l14.431-1.078c1.867-0.143,2.961,1.257,3.05,2.423
		c0.107,1.382,0.162,3.159-0.917,3.895c0.899,0.664,1.132,1.651,1.149,3.034l0.036,3.249l-3.141,0.125L95.33,29.619z M93.271,25.5
		c1.238-0.071,1.13-1.993,0-1.884l-9.226,0.7l0.108,1.759L93.271,25.5z M63.05,23.815c2.961-0.7,9.027-1.669,12.204-1.903
		c1.453-0.106,2.584,0.647,2.782,1.777c0.467,2.603,0.754,5.294,0.432,8.903c-0.09,1.04-0.988,1.866-2.172,2.118
		c-4.072,0.898-8.65,1.382-12.043,1.706c-0.861,0.09-2.225-0.592-2.459-1.669c-0.592-2.622-0.807-6.282-0.628-8.795
		C61.237,25.017,62.099,24.031,63.05,23.815z M74.577,31.544c0.412-0.089,0.592-0.538,0.628-0.861
		c0.144-0.988,0.018-3.572-0.216-4.434c-0.071-0.341-0.358-0.556-1.004-0.502c-1.759,0.107-6.409,0.772-8.705,1.274
		c-0.61,0.144-0.844,0.502-0.879,0.825c-0.108,0.844,0.143,3.159,0.359,4.452c0.054,0.305,0.45,0.52,0.754,0.503
		C68.618,32.549,72.28,32.047,74.577,31.544 M125.472,24.35c-0.684-0.019-1.149,0.395-1.202,0.754
		c-0.162,1.059-0.217,2.422-0.217,4.2c0,0.233,0.395,0.879,0.735,0.933c3.089,0.431,9.081,0.97,12.348,1.186l-0.196,3.32
		c-4.29-0.196-8.777-0.879-13.424-1.203c-1.525-0.107-2.639-0.933-2.693-2.403c-0.089-2.424,0.055-6.086,0.484-8.22
		c0.288-1.311,1.543-1.992,2.962-1.957c4.288,0.161,7.698,0.538,13.316,1.292l-0.215,3.304
		C134.643,25.319,129.475,24.512,125.472,24.35 M55.241,25.313c4.343-1.023,5.006,6.694,1.381,7.591L46.5,35.437l0.484,4.989
		l-3.176,0.845l-1.13-12.996L55.241,25.313z M55.188,30.368c1.041-0.233,0.898-2.098-0.216-1.865l-9.135,2.208l0.216,1.921
		L55.188,30.368z M162.591,34.619l-0.216,2.082l10.032,2.53l-0.27,2.908l-13.46-3.176l1.168-13.085l13.549,3.285l-0.304,3.051
		l-10.087-2.441l-0.196,2.208l10.014,2.44l-0.251,2.584L162.591,34.619z M65.506,71.859c-1.399,1.867-2.691,4.739-3.301,7.179
		c-0.216,0.826-0.216,1.13-0.071,1.668c1.327-0.592,3.051-1.167,4.055-1.489c0.396-0.878,0.61-1.884,0.952-2.692
		c0.537-1.255,0.879-1.795,1.436-2.674c1.597-2.476,4.971-4.917,7.465-4.863c-0.827,0.717-2.549,2.513-3.23,3.589
		c-0.556,0.898-1.077,1.867-1.473,2.872c-0.34,0.899-0.448,1.562-0.538,2.297c1.292-0.377,2.566-0.646,3.392-0.7
		c0.557-0.306,0.736-0.899,1.042-1.455c0.95-1.777,2.817-3.77,4.002-4.415c0.95-0.521,2.351-1.023,3.355-0.7
		c-1.077,0.808-2.207,2.099-2.709,2.872c-0.521,0.825-1.365,2.424-1.329,3.176c0.88,0.073,2.136,0,2.639-0.125l-0.055-2.478
		l25.79-0.019l-0.018-35.285c-20.065,0-42.05,1.903-65.364,8.418l4.81,66.279h34.763V100.36c-1.399-1.041-7.897-1.795-11.898-0.234
		c-0.969,0.377-4.127,1.742-5.563,2.871l-4.037,3.196c-0.396,0.323-0.431,1.023-0.431,1.56c0,1.184-1.382,2.082-2.153,1.83
		c-0.629-0.215-1.49-0.341-2.28-0.16c-0.844,0.178-1.596-0.882-1.669-1.49c-0.108-0.755,0.486-1.74,0.521-2.064
		c0.036-0.305-0.162-1.508,0.95-2.244c0.502-0.322,1.202-0.305,1.705-0.035c0.146,0.085,0.32,0.111,0.484,0.073
		c0.18-0.073,0.665-0.502,0.79-0.61c0.054-0.717-0.054-1.849,0.019-2.476c0.162-1.221,0.233-1.92,0.61-3.106
		c0.323-1.023,1.023-2.511,1.542-3.356c0.934-1.524,2.782-2.997,4.165-2.872c-0.54,0.718-0.719,1.095-1.113,1.831
		c-0.736,1.346-1.418,3.572-1.74,5.08c-0.217,0.969-0.323,1.724-0.27,2.745c1.059-0.789,2.171-1.436,2.907-1.848
		c0.34-1.778,1.042-3.697,1.794-5.114c0.897-1.707,3.32-3.555,4.901-3.411c-1.489,1.615-2.55,3.858-2.944,5.294
		c-0.161,0.574-0.359,1.24-0.268,1.598c0.591-0.323,1.813-0.646,2.404-0.7c0.395-0.986,0.934-2.172,1.383-2.872
		c1.399-2.155,3.606-3.464,4.863-3.41c-0.988,1.328-1.832,2.53-2.441,4.308c-0.18,0.52-0.269,1.077-0.269,1.346
		c0.771-0.125,1.974-0.125,2.459-0.125c0.897-0.808,1.542-1.778,2.62-2.603c0.897-0.701,2.566-1.651,2.961-1.724V80.743
		c0-0.234-2.853-0.448-4.271-0.269c-3.769,0.449-13.19,3.41-17.175,6.157c-0.09,0.234-0.071,1.543-0.341,2.153
		c-0.233,0.556-0.825,1.13-1.399,1.382c-1.022,0.45-2.208-0.915-2.729-0.717c-0.539,0.198-1.687,0.664-2.926-0.215
		c-0.556-0.395-0.842-1.509-0.646-2.333c0.18-0.593,0.682-1.059,1.077-1.436c0.359-0.359,0.108-1.742,1.398-2.566
		c0.899-0.575,2.136-0.107,3.088,0.394c0.194-0.062,0.371-0.166,0.52-0.304c0.125-0.378,0.323-1.526,0.503-2.423
		c0.215-0.97,0.288-1.598,0.575-2.494c0.718-2.171,2.44-5.294,4.236-6.928c1.417-1.257,3.625-2.261,5.258-2.153
		C68.126,69.238,66.1,71.052,65.506,71.859z M69.655,50.614c1.364-1.902,4.954-4.773,7.718-4.611
		c-1.508,1.31-2.836,2.763-3.77,4.307c-1.219,1.993-2.207,4.487-2.422,6.408c0.915-0.341,3.068-0.951,4.307-1.221
		c1.095-2.387,2.531-5.025,4.309-6.443c1.273-1.023,3.104-1.901,4.81-1.705c-0.396,0.557-1.042,0.988-1.526,1.436
		c-0.879,0.771-1.489,1.813-1.974,2.872c-0.359,0.789-0.969,3.159-0.988,3.267c1.238-0.018,3.428,0.125,3.895,0.269
		c1.455-1.903,4.632-4.667,8.436-4.039c-1.651,0.896-4.666,3.516-4.486,4.953c2.477,1.599,6.173,4.954,6.335,8.06
		c-1.687-1.759-4.468-3.5-5.869-3.985c-3.356-1.184-7.358-1.346-10.696-0.736c-6.963,1.311-13.119,4.325-19.023,7.862
		c-0.143,0.95-0.665,2.386-1.095,2.872c-0.431,0.484-1.077,0.95-1.777,1.058c-0.878,0.144-1.777-0.215-2.53-0.609
		c-0.486-0.27-1.759,0.072-2.566-0.359c-0.556-0.288-1.419-1.096-1.185-2.369c0.196-1.13,1.327-1.813,1.489-2.889
		c0.233-1.58,1.382-2.263,1.974-2.369c0.646-0.125,1.311,0.09,1.901,0.359c0.252,0.125,0.52,0.341,0.755,0.413
		c0.232-0.072,0.573-0.359,0.771-0.448c0.054-0.18,0.647-3.464,0.969-4.9c0.323-1.436,0.879-2.658,1.346-4.002
		c1.401-3.983,5.725-8.005,9.19-7.79c-0.18,0.252-1.293,1.059-2.837,2.854c-2.494,2.925-3.123,6.031-4.057,11.361
		c1.921-0.898,3.589-1.544,5.331-2.172c0.415-1.652,0.967-3.267,1.651-4.827C68.49,52.48,69.028,51.494,69.655,50.614z
		 M174.25,55.027l-64.141,0.055l0.055,18.88l62.651-0.036L174.25,55.027z M117.474,152.782c-0.735,0.377-1.649,0.144-2.026-0.02
		c-0.647-0.269-1.077-0.935-1.132-1.704c-0.053-0.61,0.539-1.347,0.665-2.013c0.053-0.269-0.233-1.595,0.896-2.278
		c0.218-0.125,0.861-0.359,1.309-0.285c0.451,0.089,0.81,0.377,1.258,0.448c0.609-0.217,1.193-0.499,1.741-0.844
		c0.359-1.384,0.628-2.979,0.807-4.398c-3.212,1.598-7.413,2.675-10.983,2.818l0.019,51.637
		c14.985-7.612,31.425-20.066,38.423-26.905c11.326-11.038,18.953-22.219,20.118-38.336l1.058-14.682l-34.043-0.036
		c0,8.327-2.782,17.015-10.734,23.296c-0.448,1.813-0.662,4.863-0.628,4.938c1.096-0.451,2.119-0.844,3.017-1.113
		c0.071-0.107,1.346-2.89,1.921-3.643c1.346-2.082,3.158-3.861,5.364-5.045c1.384-0.7,3.07-1.347,4.56-0.789
		c-1.957,0.933-3.484,2.619-4.397,3.588c-0.844,0.898-1.831,2.226-2.279,3.591c-0.061,0.236-0.109,0.476-0.144,0.717
		c0.916-0.288,3.84-0.717,5.06-0.88c0.145-0.019,0.521-0.825,0.81-1.221c0.356-0.484,0.573-0.789,1.146-1.436
		c1.473-1.598,3.966-3.303,6.389-2.926c-1.326,0.844-2.782,2.189-3.947,4.307c-0.163,0.324-0.377,0.772-0.288,0.969
		c0.359,0.072,2.137,0.036,3.214,0.163c1.237-0.771,2.549-1.454,3.966-1.758c1.598-0.359,3.681-0.073,4.506,0.681
		c-0.969-0.055-1.886,0.125-2.763,0.466c-0.504,0.199-1.509,0.665-1.886,1.31c0.95,0.27,2.514,1.293,3.499,2.119
		c0.684,0.574,1.509,1.401,2.029,2.153c1.31,1.779,1.58,4.972,0.878,5.924c-0.196-0.558-0.412-1.112-0.718-1.634
		c-0.628-1.058-1.616-2.208-2.46-2.836c-4.072-3.104-9.94-3.267-14.733-2.298c-4.11,0.844-11.522,2.389-16.368,5.833
		c0.125,0.609-0.251,1.634-0.806,2.027C119.053,153.229,118.014,152.494,117.474,152.782z M125.472,158.585
		c0.537-0.825,1.185-2.026,1.507-2.549c1.131-1.813,2.765-3.158,3.875-3.681c1.527-0.736,3.984-1.165,5.079-0.628
		c-1.202,0.288-2.116,0.844-2.959,1.436c-0.861,0.595-2.552,2.138-2.981,2.784c-0.484,0.718-0.806,1.362-0.933,1.705
		c1.362-0.307,2.997-0.558,3.84-0.558c0.61-0.772,2.226-2.619,3.429-3.481c0.969-0.684,3.033-1.365,4.324-0.81
		c-1.236,0.396-3.427,2.12-4.234,3.358c-0.179,0.285-0.341,0.592-0.377,0.752c0.664,0.056,1.92,0.181,2.604,0.27
		c0.071,0,1.938-1.147,2.781-1.381c1.096-0.307,2.89-0.7,4.021,0.503c-0.825,0.017-1.598,0.089-2.208,0.359
		c-0.88,0.393-1.257,0.681-1.65,1.236c1.722,0.917,3.518,1.868,4.575,3.555c0.377,0.592,0.951,1.993,0.629,2.907
		c-0.539-0.682-1.275-1.346-1.867-1.687c-0.844-0.484-1.454-0.95-2.479-1.346c-3.211-1.202-7.41-1.525-10.767-1.077
		c-4.344,0.556-9.674,2.711-12.401,4.576c0.179,0.844-0.232,1.83-0.717,2.064c-1.023,0.521-2.01-0.359-2.189-0.305
		c-0.27,0.089-1.096,0.377-1.687,0.125c-0.595-0.232-0.969-1.275-0.736-1.938c0.178-0.503,0.899-1.221,0.899-1.221
		c-0.11-1.096,0.608-1.758,1.595-1.886c0.559-0.052,0.95,0.377,1.4,0.469c0.412-0.199,0.7-0.341,0.914-0.451
		c0.252-0.896,0.629-1.813,0.88-2.566c0.412-1.272,1.021-2.404,1.794-3.588c1.113-1.705,3.089-3.321,5.438-3.354
		c-0.718,0.556-1.132,0.86-1.58,1.417c-0.77,0.969-1.364,1.849-1.901,2.89c-0.484,0.916-0.936,2.278-1.005,3.481
		C123.399,159.477,124.429,159.016,125.472,158.585L125.472,158.585z M125.124,168.293c0.609-0.252,1.255-0.43,1.901-0.357
		c-1.508,0.967-2.889,2.384-3.266,4.073c-0.036,0.178-0.036,0.537,0.125,0.645c0.43-0.107,1.525-0.341,1.813-0.484
		c0.179-0.377,0.627-0.969,0.933-1.364c1.077-1.434,2.622-2.869,4.757-2.332c-1.401,0.629-2.209,1.507-2.818,2.619
		c-0.107,0.199-0.178,0.576-0.036,0.576c0.359,0,1.724-0.055,1.92-0.055c0.629-0.557,2.46-1.616,3.718-1.221
		c-0.629,0.293-1.205,0.688-1.706,1.168c-0.125,0.142-0.288,0.321-0.321,0.537c1.11,0.556,2.098,1.184,3.015,1.976
		c0.484,0.411,1.185,1.184,1.613,2.511c-1.076-0.933-4.595-2.604-6.514-2.692c-1.257-0.053-2.815,0.18-3.606,0.359
		c-3.033,0.683-6.156,2.048-8.83,3.572c0.019,0.521-0.072,1.147-0.662,1.633c-0.396,0.324-1.257,0.484-1.582,0.019
		c-0.178-0.251-1.346,0.019-1.596-0.304c0,0-0.307-0.466-0.343-1.024c-0.034-0.592,0.359-0.95,0.684-1.257
		c0.089-0.107,0.071-1.11,0.825-1.453c0.466-0.216,0.933-0.142,1.328,0.109c0.162-0.091,0.288-0.18,0.396-0.251
		c0.089-1.168,0.305-2.245,0.736-3.41c0.592-1.652,2.53-3.662,4.198-3.591c-1.131,1.221-2.045,2.907-2.352,4.31
		c-0.089,0.447-0.123,1.327-0.123,1.738c0.399-0.244,0.819-0.454,1.255-0.626c0.18-0.432,0.699-1.509,0.969-1.993
		C122.232,170.464,123.76,168.85,125.124,168.293z M48.073,132.802c0.215,6.244,2.764,13.784,6.264,19.005h52.208l-0.108-7.285
		c-6.711,0-16.96-4.434-21.016-11.684L48.073,132.802z M83.964,116.514c0,33.202,48.563,33.202,48.563,0.341l0.019-39.952
		l-48.582-0.018V116.514z M99.609,100.601c0.575-0.628,1.078-1.453,1.185-2.153c0.09-0.575-1.525-0.538-2.117-0.179
		c-0.323,0.197-0.629,0.592-0.88,0.952c-0.179,0.269-0.825,0.485-1.148,0.18c-0.342-0.323,0.269-0.88,0.25-1.22
		c0-0.575-1.096,0.287-1.598,0.052c-0.34-0.161-0.359-0.681-0.125-0.986c0.125-0.162,0.484-0.09,0.646-0.268
		c0.162-0.18,0.162-0.449,0.215-0.682c0.072-0.27,0.359-0.396,0.538-0.592c0.683-0.664,1.975-1.795,2.226-1.776
		c0.591,0.054,1.436,0.359,1.956,0.089c0.107-0.054,0.306-0.233,0.125-0.341l-1.399-0.917c-0.013-0.292,0.105-0.576,0.323-0.772
		c0.646-0.574,1.651-0.179,2.495-0.305c0.592-0.09,1.148-0.323,1.579-0.735c0.107,0.431-0.162,0.861-0.162,1.31
		c0.538,0.503,1.095,0.933,1.616,1.418c1.543,1.543,2.207,3.787,2.314,5.762c0.09,0.915,0.09,1.848,0.09,3.374
		c0.251-0.646,0.413-1.598,0.467-2.424c0.233-2.441-0.144-4.612-1.525-6.461c-0.561-0.78-1.199-1.501-1.903-2.155
		c0.073-0.717,0.682-1.938,1.257-1.488c0.377,0.287-0.179,0.717,0.215,0.969c0.432,0.268,1.059,0.233,1.328,0.178
		c0.628-0.16,1.238-0.322,1.812-0.375c0.27-0.018,0.718-0.144,0.809,0.125c0.072,0.179-0.125,0.306-0.324,0.377
		c-0.232,0.073-0.592,0.019-0.788,0.215c-0.163,0.162-0.322,0.342-0.27,0.575c0.071,0.269,0.359,0.413,0.647,0.323
		c1.082-0.3,2.196-0.469,3.318-0.503c0.595,0,0.466,0.432,0.181,0.592c-0.196,0.107-0.503,0.198-0.7,0.216
		c-1.058,0.124-1.849,0.197-1.724,0.806c0.089,0.413,0.755,0.018,0.896,0.323c0.163,0.323-0.285,0.502-0.249,0.718
		c0.107,0.683,1.417,0.539,2.027,0.395c0.447-0.108,1.165-0.466,1.381-0.179c0.198,0.251,0.036,0.646-0.216,0.719
		c-0.647,0.179-1.758,0.502-2.064,0.86c-0.288,0.342,0.055,1.042,0.396,1.078c0.772,0.089,1.616,0.089,2.227,0.268
		c0.229,0.072,0.429,0.234,0.429,0.484c0,0.269-0.269,0.359-0.484,0.431c-0.414,0.125-1.113,0.125-1.489,0.288
		c-0.126,0.054-0.377,0.144-0.341,0.287c0.107,0.269,0.647,0.197,1.095,0.25c0.252,0.019,0.736,0.216,0.736,0.485
		c0,0.288-0.251,0.377-0.699,0.342c-0.7-0.054-1.346,0.035-1.65,0.162c-0.092,0.035-0.629,0.106-0.612,0.359
		c0.036,0.304,0.612,0.108,0.755,0.413c0.125,0.288-0.268,0.448-0.304,0.808c0,0.144,0.071,0.215,0.215,0.269
		c0.466,0.197,1.003,0.178,1.473,0.09c0.484-0.09,0.662,0.557,0.536,0.629c-0.625,0.34-2.026-0.018-2.35,0.179
		c-0.448,0.287,0.753,0.933,0.718,1.077c-0.036,0.162-0.181,0.323-0.288,0.359c-0.609,0.233-1.398-0.216-1.847,0.036
		c-0.377,0.233-0.218,0.825-0.45,1.13c-0.288,0.377-0.933,0.216-1.221,0.431c-0.375,0.268-0.394,0.915,0.019,1.311
		c0.324,0.304,0.628,0.519,1.04,0.717c1.868,0.933,3.806,1.865,5.619,1.739c0.933-0.053,2.46-0.105,3.303,0.109
		c1.095,0.269,2.208,1.111,2.781,1.473c0.466,0.286,1.221,0.359,1.813,0.142c0.43-0.142,0.718-0.645,0.629-1.076
		c-0.27-1.437-2.641-1.884-2.674-3.319c-0.037-1.651-0.181-2.549-0.718-3.59c-0.199-0.395-0.233-1.31,0.232-1.435
		c0.377-0.09,0.504,0.431,0.807,0.306c1.384-0.539,1.438-2.728,2.873-3.143c0.842-0.232,3.679-0.268,3.444-0.627
		c-0.592-0.845-0.322-1.813,0-2.262c0.215-0.287,0.807-0.575,1.043-0.287c0.321,0.377-0.487,0.825-0.433,1.382
		c0.053,0.521,0.809,1.526,0.233,2.064c-0.341,0.323-2.907,0.432-3.662,1.58c-0.466,0.699-0.519,1.256,0.036,1.202
		c0.448-0.054,0.825-0.592,1.239-0.897c0.736-0.537,1.328-0.753,1.742-0.359c0.215,0.197-0.073,0.575-0.469,0.682
		c-0.321,0.108-1.11,0.952-0.896,1.167c0.322,0.341,2.117-1.219,2.566-0.897c0.233,0.179-0.88,1.328-0.684,1.632
		c0.233,0.377,0.988-0.215,1.221,0.073c0.341,0.431-0.592,1.274-1.131,1.651c-0.412,0.268-0.252,1.274-0.844,1.58
		c-0.663,0.323-0.97,0.896-0.896,0.987c0.071,0.142,0.232,0.251,0.484,0.089c0.736-0.466,1.649-1.023,2.026-0.879
		c0.216,0.09-0.089,1.112-0.359,1.596c-0.271,0.485,1.096,0.216,0.897,0.629c-0.143,0.307-0.233,0.772-0.143,1.202
		c0.108,0.558-1.472,0.681-1.616,1.058c-0.16,0.432,0.163,0.539,0.322,0.559c0.952,0.144,0.827,1.021,0.45,1.398
		c-0.503,0.503-1.364,0.699-2.119,0.573c-0.646-0.107-2.098-0.374-2.96-1.021c-0.269-0.196-0.664-0.056-0.717,0.215
		c-0.056,0.307,0.268,0.861,0.412,1.329c0.198,0.699,0.089,1.579-0.145,2.263c-0.501,1.417-1.847,2.602-2.224,4.307
		c-0.091,0.448,0.037,1.006,0.216,1.437c0.396,0.935,0.969,1.813,1.613,2.604c0.092,0.252,0.218,0.537,0.11,0.77
		c-0.144,0.359-1.257,1.132-1.58,1.438c-1.023,0.95-1.904,2.189-2.101,3.535c-0.072,0.485-1.112,0.97-1.813,1.166
		c-0.519,0.144-1.058,0.288-1.487,0.629c-0.056,0.393,0.178,0.735,0.23,1.129c0.091,0.684-0.771,1.024-1.437,1.239
		c-0.304,0.107-0.628,0.199-0.987,0.199c-0.125,0-0.16-0.218-0.142-0.324c0.196-0.933,0.374-1.687,0.733-2.458
		c0.145-0.288,0.377-0.521,0.612-0.72l2.564-2.153l2.012-2.889c0.178-0.27,0.251-0.504,0.251-0.7c0-0.559-0.232-1.077-0.628-1.436
		c-0.503-0.451-1.239-0.521-1.794-0.809c-0.718-0.359-1.76-1.363-1.904-1.437c-0.394-0.196-0.626,0.521-0.681,0.933
		c-0.089,0.629,0.107,1.221,0.089,1.849c0,0.288-0.034,0.448-0.178,0.629c-1.688,0.969-3.787,1.328-5.027,2.871
		c-0.215,0.269-0.411,0.558-0.699,0.755c-0.7,0.484-1.866-0.072-2.388,0.681c-0.232,0.343,0.037,0.791-0.053,1.168
		c-0.054,0.215-0.467,0.503-0.79,0.662c-0.432,0.199-0.896,0.307-1.364,0.343c-0.521-0.251-0.198-0.987-0.019-1.508
		c0.179-0.54,0.432-1.077,0.844-1.437c0.609-0.539,1.381-1.221,1.867-1.453c0.412-0.199,1.039-0.199,1.542-0.396
		c0.529-0.162,1.032-0.404,1.489-0.718c0.734-0.466,1.418-1.04,1.83-1.83c0.466-0.898,0.412-2.099-0.18-2.871
		c-0.539-0.699-1.166-1.383-1.524-2.17c-0.199-0.433-0.056-1.024,0.251-1.42c-0.019-0.017-0.235-0.163-0.359-0.126
		c-2.567,0.11-5.169-0.178-7.556-1.129c-0.628-0.252-1.275-1.061-1.724-1.113c-0.412-0.055-0.663,0.467-1.077,0.574
		c-0.664,0.18-1.526,0.072-2.297,0c-0.898-0.089-2.765-0.484-4.11-0.914c-0.215,0.034-0.448,0.071-0.646,0.196
		c-0.288,0.196-0.342,0.629-0.359,0.988c-0.036,0.484,0.108,0.933,0.053,1.436c-0.018,0.251-0.162,0.521-0.089,0.755
		c0.073,0.285,0.359,0.412,0.556,0.592c0.323,0.305,0.376,0.933,0.376,1.437c0,0.556-0.197,1.293,0.27,1.671
		c0.288,0.23,0.682-0.072,1.042,0c0.394,0.071,0.52,0.556,0.538,0.933c0.019,0.43-0.34,1.344-0.575,1.58
		c-0.161,0.16-0.431,0.034-0.628-0.056c-0.52-0.232-1.005-0.609-1.292-1.112c-0.125-0.216-0.125-0.484-0.251-0.718
		c-0.198-0.396-0.557-0.626-0.915-0.896c-0.431-0.323-0.52-0.916-0.592-1.436c-0.054-0.487,0.036-0.952,0.073-1.438
		c0.093-0.96,0.032-1.93-0.181-2.87c-0.161-0.718-0.557-1.437-0.376-2.154c0.09-0.34,0.323-0.664,0.647-0.809
		c1.736-0.08,3.454-0.382,5.114-0.896l-1.077-1.06c-0.269,0-0.484,0.269-0.753,0.269c-0.288,0-0.683-0.412-0.79-0.556
		c-0.557-0.825-0.915-1.778-1.167-2.748c-0.233-0.376-0.52-0.752-0.952-0.933c-0.299-0.13-0.624-0.191-0.95-0.18
		c-0.897,0.396-1.723,1.168-1.795,2.155c-0.018,0.252,0.125,0.466,0.09,0.718c-0.052,0.43-0.376,0.717-0.682,1.024
		c-0.305,0.304-0.592,0.609-0.717,1.04c-0.109,0.359,0.018,0.735,0.178,1.076c0.108,0.233,0.234,0.466,0.144,0.718
		c-0.215,0.592-1.632,1.201-2.045,1.201c-0.144,0-0.27-0.196-0.323-0.358c-0.162-0.54-0.125-1.113-0.018-1.65
		c0.379-0.411,0.661-0.901,0.825-1.436c0.216-0.718,0.107-1.49,0.449-2.156c0.896-1.524,3.194-4.576,3.642-5.024
		c0.198-0.197,0.682-0.306,0.88-0.179c0.969,0.628,1.544,1.4,2.477,1.884c0.503,0.251,1.13,0.629,1.58,0.271
		c0.448-0.359,0.52-2.764,0.808-3.375C97.151,103.132,98.604,101.732,99.609,100.601z M117.474,85.651l-0.396,1.507h-1.436
		l1.868-7.071h1.632l1.797,7.017h-1.438l-0.359-1.454H117.474z M118.945,84.367l-0.647-2.836l-0.609,2.836H118.945z M113.702,82.12
		c0.019-0.467-0.125-1.077-0.501-1.221c-0.396-0.144-0.809-0.018-0.987,0.251c-0.307,0.502-0.307,1.185-0.288,2.225
		c0,0.628,0.019,1.507,0.144,1.921c0.305,0.951,1.113,1.005,1.507,0.412c0.198-0.287,0.198-0.844,0.18-1.346h-0.827v-1.041h2.137
		v3.804h-1.021v-0.52c-0.019,0.036-0.468,0.377-0.684,0.486c-0.359,0.16-1.04,0.16-1.595-0.073
		c-0.469-0.198-0.916-0.825-1.113-1.634c-0.199-0.844-0.109-1.939-0.109-2.872c0.019-0.988,0.539-2.082,1.256-2.495
		c0.504-0.287,1.437-0.287,2.027-0.071c0.72,0.251,1.275,1.292,1.168,2.172H113.702z M89.66,80.194
		c0.574,0.359,0.879,1.024,0.773,1.795h-1.132c0-0.718-0.304-1.059-0.915-1.077c-0.377-0.018-0.844,0.413-0.844,0.736
		c-0.019,0.95,0.825,1.148,1.399,1.327c0.431,0.126,0.952,0.396,1.203,0.772c0.466,0.682,0.521,1.399,0.144,2.333
		c-0.179,0.448-0.861,0.987-1.436,1.113c-0.646,0.144-1.436,0.073-2.082-0.413c-0.521-0.395-0.755-1.167-0.647-1.866h1.274
		c0,0.341,0.054,0.592,0.198,0.807c0.108,0.144,0.306,0.377,0.646,0.395c0.509,0.037,0.952-0.345,0.99-0.854
		c0.004-0.056,0.003-0.113-0.003-0.168c-0.071-1.095-1.902-1.167-2.53-1.867c-0.755-0.861-0.521-2.243,0.089-2.8
		C87.633,79.638,88.782,79.638,89.66,80.194z M125.899,84.875c0.019,0.269,0.036,1.221,0.071,1.83
		c0.019,0.179,0.198,0.413,0.198,0.431h-1.346c-0.18,0-0.198-0.323-0.215-0.591c-0.036-0.717,0.034-2.422-0.665-2.422h-0.861v2.997
		h-1.346v-7h2.422c1.221,0,1.831,0.701,1.831,1.651c0,0.628-0.019,1.364-0.736,1.669C125.629,83.798,125.844,84.336,125.899,84.875
		 M124.055,81.13h-1.005v1.885h0.735C125.005,83.015,124.987,81.13,124.055,81.13 M93.752,87.149h-1.346v-5.905h-1.544v-1.185h4.451
		v1.185h-1.561V87.149z M102.417,87.149v-5.905h-1.543v-1.185h4.468v1.185h-1.58v5.905H102.417z M105.948,80.061h4.468v1.202h-1.58
		v5.887h-1.345v-5.887h-1.544V80.061z M129.295,81.264v5.904h-1.346v-5.904h-1.542v-1.202h4.45v1.202H129.295z M98.834,85.115
		v-5.042h1.31v4.917c0,2.943-4.272,2.943-4.272,0.09v-5.007h1.31v5.062C97.183,86.229,98.834,86.229,98.834,85.115z M101.855,90.41
		c0.396-0.34,0.95-0.806,1.596-1.219c0.575-0.377-0.071,0.486-0.108,0.844c-0.107,0.969-0.844,1.077-1.651,0.897
		C101.551,90.896,101.605,90.626,101.855,90.41 M135.606,113.038l34.279-0.019l1.524-18.953l-35.804,0.019V113.038z
		 M106.697,172.063l-35.355-0.071c7.286,6.551,24.157,18.809,35.248,23.78L106.697,172.063z M81.103,93.566
		c-0.682,0.61-2.045,2.119-2.315,2.8c0.593,0.215,1.759,0.736,2.315,1.113V93.566z"/>
</g>
</svg>
