<?xml version="1.0" encoding="utf-8"?>
<!DOCTYPE svg PUBLIC "-//W3C//DTD SVG 1.1//EN" "http://www.w3.org/Graphics/SVG/1.1/DTD/svg11.dtd">
<svg version="1.1" id="Layer_1" xmlns="http://www.w3.org/2000/svg" xmlns:xlink="http://www.w3.org/1999/xlink" x="0px" y="0px" width="216px" height="216px" viewBox="0 0 216 216" enable-background="new 0 0 216 216" xml:space="preserve">
<rect x="1.618" y="62.782" fill-rule="evenodd" clip-rule="evenodd" fill="#00A5A3" width="213" height="90"/>
<g>
	<path fill="#FFFFFF" d="M58.45,123.563h2.03c0.353,0,0.69,0.032,1.016,0.098c0.323,0.066,0.612,0.173,0.867,0.323
		c0.254,0.148,0.457,0.349,0.609,0.598c0.151,0.251,0.228,0.559,0.228,0.927c0,0.499-0.135,0.904-0.406,1.215
		c-0.271,0.311-0.656,0.519-1.157,0.628c0.591,0.107,1.044,0.333,1.36,0.678c0.315,0.346,0.474,0.789,0.474,1.326
		c0,0.299-0.057,0.584-0.172,0.852c-0.115,0.269-0.274,0.498-0.479,0.689c-0.181,0.17-0.381,0.301-0.603,0.394
		c-0.222,0.091-0.451,0.16-0.689,0.207c-0.238,0.046-0.482,0.074-0.732,0.085c-0.25,0.011-0.494,0.018-0.731,0.018H58.45V123.563
		L58.45,123.563z M59.249,127.062h0.984c0.295,0,0.57-0.023,0.825-0.073c0.253-0.05,0.476-0.135,0.665-0.254
		c0.188-0.118,0.338-0.277,0.448-0.477c0.111-0.2,0.167-0.45,0.167-0.75c0-0.245-0.054-0.451-0.16-0.615
		c-0.107-0.165-0.248-0.296-0.424-0.393c-0.178-0.095-0.377-0.162-0.604-0.2c-0.225-0.038-0.461-0.059-0.707-0.059H59.25
		L59.249,127.062L59.249,127.062L59.249,127.062z M60.172,130.896c0.279,0,0.561-0.016,0.843-0.049
		c0.283-0.036,0.539-0.109,0.77-0.226c0.229-0.114,0.416-0.278,0.56-0.489c0.143-0.211,0.214-0.492,0.214-0.846
		c0-0.354-0.082-0.635-0.245-0.841c-0.165-0.208-0.376-0.362-0.634-0.467c-0.258-0.104-0.547-0.169-0.867-0.196
		c-0.32-0.027-0.632-0.039-0.936-0.039c-0.049,0-0.083,0-0.104,0s-0.047,0-0.08,0c-0.034,0-0.083,0-0.148,0
		s-0.164,0.002-0.295,0.011v3.142H60.172L60.172,130.896z M65.586,130.551c0.253,0.153,0.565,0.271,0.935,0.345
		c0.369,0.078,0.71,0.116,1.021,0.116c0.263,0,0.527-0.029,0.793-0.091c0.267-0.062,0.506-0.157,0.72-0.288
		c0.214-0.13,0.388-0.304,0.523-0.52c0.136-0.214,0.205-0.479,0.205-0.794c0-0.352-0.083-0.631-0.247-0.834
		c-0.164-0.203-0.365-0.359-0.603-0.467s-0.498-0.176-0.781-0.207c-0.284-0.031-0.539-0.047-0.77-0.047h-0.467v-0.703h0.394
		c0.246,0,0.502-0.021,0.769-0.067s0.515-0.132,0.744-0.252c0.23-0.125,0.419-0.291,0.566-0.503
		c0.147-0.211,0.222-0.477,0.222-0.799c0-0.23-0.052-0.428-0.153-0.594c-0.103-0.166-0.241-0.302-0.413-0.408
		c-0.171-0.107-0.372-0.188-0.597-0.242c-0.226-0.054-0.461-0.081-0.708-0.081c-0.286,0-0.567,0.03-0.842,0.092
		c-0.275,0.063-0.515,0.134-0.719,0.22l-0.136-0.728c0.148-0.053,0.304-0.098,0.468-0.131c0.164-0.035,0.326-0.064,0.487-0.088
		c0.159-0.021,0.312-0.036,0.454-0.045c0.144-0.008,0.269-0.011,0.375-0.011c0.354,0,0.691,0.036,1.016,0.108
		c0.324,0.073,0.609,0.191,0.855,0.353c0.247,0.16,0.443,0.37,0.591,0.628c0.148,0.257,0.221,0.564,0.221,0.927
		c0,0.497-0.154,0.911-0.461,1.237c-0.309,0.326-0.729,0.554-1.262,0.684v0.022c0.279,0.023,0.535,0.093,0.769,0.202
		c0.234,0.112,0.435,0.256,0.603,0.432c0.168,0.176,0.297,0.383,0.388,0.618c0.09,0.231,0.135,0.485,0.135,0.752
		c0,0.369-0.08,0.7-0.239,0.991c-0.161,0.292-0.382,0.537-0.665,0.73c-0.283,0.196-0.619,0.347-1.009,0.449
		c-0.39,0.104-0.815,0.156-1.274,0.156c-0.418,0-0.797-0.035-1.138-0.104c-0.341-0.069-0.625-0.148-0.855-0.242L65.586,130.551
		L65.586,130.551z M72.34,123.563h0.91l2.769,5.021h0.037l2.646-5.021h0.911l-3.778,6.908c-0.074,0.14-0.164,0.281-0.271,0.425
		c-0.106,0.148-0.229,0.277-0.368,0.395c-0.14,0.113-0.294,0.207-0.461,0.281c-0.169,0.074-0.355,0.108-0.561,0.108
		c-0.304,0-0.595-0.034-0.874-0.104l0.086-0.681c0.081,0.025,0.178,0.049,0.288,0.071c0.111,0.022,0.244,0.033,0.4,0.033
		c0.181,0,0.332-0.028,0.456-0.084c0.122-0.06,0.233-0.143,0.333-0.254c0.098-0.111,0.189-0.248,0.276-0.409
		c0.086-0.162,0.182-0.345,0.289-0.552l0.147-0.29L72.34,123.563L72.34,123.563z M86.602,124.254h-2.559v7.345h-0.836v-7.345h-2.561
		v-0.691h5.956L86.602,124.254L86.602,124.254L86.602,124.254z M93.615,124.254h-2.559v7.345H90.22v-7.345h-2.561v-0.691h5.956
		V124.254L93.615,124.254L93.615,124.254z M99.595,131.599v-3.512h-0.923c-0.205,0-0.379,0.008-0.522,0.023
		c-0.145,0.015-0.278,0.056-0.401,0.122c-0.123,0.064-0.241,0.167-0.356,0.304c-0.115,0.139-0.246,0.334-0.394,0.589l-1.415,2.474
		h-0.935l1.636-2.867c0.147-0.268,0.303-0.476,0.468-0.627c0.163-0.148,0.364-0.252,0.603-0.306v-0.022
		c-0.263-0.031-0.515-0.099-0.757-0.202c-0.242-0.103-0.453-0.239-0.633-0.407c-0.18-0.17-0.325-0.368-0.431-0.592
		c-0.107-0.229-0.16-0.482-0.16-0.768c0-0.368,0.063-0.691,0.191-0.974c0.126-0.279,0.305-0.514,0.534-0.702
		c0.23-0.187,0.502-0.329,0.819-0.426c0.315-0.096,0.666-0.144,1.052-0.144h2.474v8.036H99.595L99.595,131.599L99.595,131.599z
		 M99.595,124.254h-1.132c-0.295,0-0.576,0.019-0.843,0.058c-0.266,0.038-0.5,0.115-0.701,0.229
		c-0.201,0.116-0.363,0.275-0.486,0.479c-0.123,0.202-0.185,0.47-0.185,0.799c0,0.278,0.062,0.519,0.185,0.721
		c0.123,0.204,0.283,0.367,0.48,0.495c0.197,0.127,0.418,0.221,0.665,0.282c0.247,0.061,0.492,0.091,0.738,0.091h1.28
		L99.595,124.254L99.595,124.254L99.595,124.254z M111.05,128.135v0.701h-4.897v-0.701H111.05L111.05,128.135z M116.87,131.599
		v-8.036h0.85v7.348h4.344v-7.348h0.849v7.348h1.021v2.878h-0.848v-2.189H116.87L116.87,131.599z M126.147,123.563h4.209v0.691
		h-3.383v2.844h3.211v0.701h-3.211v3.111h3.531v0.688h-4.355v-8.036H126.147L126.147,123.563z M138.687,123.563l3.137,7.07
		l3.225-7.07h1.219v8.036h-0.824V124.3l-3.299,7.299h-0.727l-3.223-7.299v7.299h-0.775v-8.036H138.687L138.687,123.563z
		 M149.245,123.563h0.848v6.897h0.037l4.355-6.897h0.971v8.036h-0.848v-6.896h-0.037l-4.355,6.896h-0.971V123.563z"/>
	<g>
		<path fill="#FFFFFF" d="M58.45,123.563h2.03c0.353,0,0.69,0.032,1.016,0.098c0.323,0.066,0.612,0.173,0.867,0.323
			c0.254,0.148,0.457,0.349,0.609,0.598c0.151,0.251,0.228,0.559,0.228,0.927c0,0.499-0.135,0.904-0.406,1.215
			c-0.271,0.311-0.656,0.519-1.157,0.628c0.591,0.107,1.044,0.333,1.36,0.678c0.315,0.346,0.474,0.789,0.474,1.326
			c0,0.299-0.057,0.584-0.172,0.852c-0.115,0.269-0.274,0.498-0.479,0.689c-0.181,0.17-0.381,0.301-0.603,0.394
			c-0.222,0.091-0.451,0.16-0.689,0.207c-0.238,0.046-0.482,0.074-0.732,0.085c-0.25,0.011-0.494,0.018-0.731,0.018H58.45V123.563
			L58.45,123.563z M59.249,127.062h0.984c0.295,0,0.57-0.023,0.825-0.073c0.253-0.05,0.476-0.135,0.665-0.254
			c0.188-0.118,0.338-0.277,0.448-0.477c0.111-0.2,0.167-0.45,0.167-0.75c0-0.245-0.054-0.451-0.16-0.615
			c-0.107-0.165-0.248-0.296-0.424-0.393c-0.178-0.095-0.377-0.162-0.604-0.2c-0.225-0.038-0.461-0.059-0.707-0.059H59.25
			L59.249,127.062L59.249,127.062L59.249,127.062z M60.172,130.896c0.279,0,0.561-0.016,0.843-0.049
			c0.283-0.036,0.539-0.109,0.77-0.226c0.229-0.114,0.416-0.278,0.56-0.489c0.143-0.211,0.214-0.492,0.214-0.846
			c0-0.354-0.082-0.635-0.245-0.841c-0.165-0.208-0.376-0.362-0.634-0.467c-0.258-0.104-0.547-0.169-0.867-0.196
			c-0.32-0.027-0.632-0.039-0.936-0.039c-0.049,0-0.083,0-0.104,0s-0.047,0-0.08,0c-0.034,0-0.083,0-0.148,0
			s-0.164,0.002-0.295,0.011v3.142H60.172L60.172,130.896z M65.586,130.551c0.253,0.153,0.565,0.271,0.935,0.345
			c0.369,0.078,0.71,0.116,1.021,0.116c0.263,0,0.527-0.029,0.793-0.091c0.267-0.062,0.506-0.157,0.72-0.288
			c0.214-0.13,0.388-0.304,0.523-0.52c0.136-0.214,0.205-0.479,0.205-0.794c0-0.352-0.083-0.631-0.247-0.834
			c-0.164-0.203-0.365-0.359-0.603-0.467s-0.498-0.176-0.781-0.207c-0.284-0.031-0.539-0.047-0.77-0.047h-0.467v-0.703h0.394
			c0.246,0,0.502-0.021,0.769-0.067s0.515-0.132,0.744-0.252c0.23-0.125,0.419-0.291,0.566-0.503
			c0.147-0.211,0.222-0.477,0.222-0.799c0-0.23-0.052-0.428-0.153-0.594c-0.103-0.166-0.241-0.302-0.413-0.408
			c-0.171-0.107-0.372-0.188-0.597-0.242c-0.226-0.054-0.461-0.081-0.708-0.081c-0.286,0-0.567,0.03-0.842,0.092
			c-0.275,0.063-0.515,0.134-0.719,0.22l-0.136-0.728c0.148-0.053,0.304-0.098,0.468-0.131c0.164-0.035,0.326-0.064,0.487-0.088
			c0.159-0.021,0.312-0.036,0.454-0.045c0.144-0.008,0.269-0.011,0.375-0.011c0.354,0,0.691,0.036,1.016,0.108
			c0.324,0.073,0.609,0.191,0.855,0.353c0.247,0.16,0.443,0.37,0.591,0.628c0.148,0.257,0.221,0.564,0.221,0.927
			c0,0.497-0.154,0.911-0.461,1.237c-0.309,0.326-0.729,0.554-1.262,0.684v0.022c0.279,0.023,0.535,0.093,0.769,0.202
			c0.234,0.112,0.435,0.256,0.603,0.432c0.168,0.176,0.297,0.383,0.388,0.618c0.09,0.231,0.135,0.485,0.135,0.752
			c0,0.369-0.08,0.7-0.239,0.991c-0.161,0.292-0.382,0.537-0.665,0.73c-0.283,0.196-0.619,0.347-1.009,0.449
			c-0.39,0.104-0.815,0.156-1.274,0.156c-0.418,0-0.797-0.035-1.138-0.104c-0.341-0.069-0.625-0.148-0.855-0.242L65.586,130.551
			L65.586,130.551z M72.34,123.563h0.91l2.769,5.021h0.037l2.646-5.021h0.911l-3.778,6.908c-0.074,0.14-0.164,0.281-0.271,0.425
			c-0.106,0.148-0.229,0.277-0.368,0.395c-0.14,0.113-0.294,0.207-0.461,0.281c-0.169,0.074-0.355,0.108-0.561,0.108
			c-0.304,0-0.595-0.034-0.874-0.104l0.086-0.681c0.081,0.025,0.178,0.049,0.288,0.071c0.111,0.022,0.244,0.033,0.4,0.033
			c0.181,0,0.332-0.028,0.456-0.084c0.122-0.06,0.233-0.143,0.333-0.254c0.098-0.111,0.189-0.248,0.276-0.409
			c0.086-0.162,0.182-0.345,0.289-0.552l0.147-0.29L72.34,123.563L72.34,123.563z M86.602,124.254h-2.559v7.345h-0.836v-7.345
			h-2.561v-0.691h5.956L86.602,124.254L86.602,124.254L86.602,124.254z M93.615,124.254h-2.559v7.345H90.22v-7.345h-2.561v-0.691
			h5.956V124.254L93.615,124.254L93.615,124.254z M99.595,131.599v-3.512h-0.923c-0.205,0-0.379,0.008-0.522,0.023
			c-0.145,0.015-0.278,0.056-0.401,0.122c-0.123,0.064-0.241,0.167-0.356,0.304c-0.115,0.139-0.246,0.334-0.394,0.589l-1.415,2.474
			h-0.935l1.636-2.867c0.147-0.268,0.303-0.476,0.468-0.627c0.163-0.148,0.364-0.252,0.603-0.306v-0.022
			c-0.263-0.031-0.515-0.099-0.757-0.202c-0.242-0.103-0.453-0.239-0.633-0.407c-0.18-0.17-0.325-0.368-0.431-0.592
			c-0.107-0.229-0.16-0.482-0.16-0.768c0-0.368,0.063-0.691,0.191-0.974c0.126-0.279,0.305-0.514,0.534-0.702
			c0.23-0.187,0.502-0.329,0.819-0.426c0.315-0.096,0.666-0.144,1.052-0.144h2.474v8.036H99.595L99.595,131.599L99.595,131.599z
			 M99.595,124.254h-1.132c-0.295,0-0.576,0.019-0.843,0.058c-0.266,0.038-0.5,0.115-0.701,0.229
			c-0.201,0.116-0.363,0.275-0.486,0.479c-0.123,0.202-0.185,0.47-0.185,0.799c0,0.278,0.062,0.519,0.185,0.721
			c0.123,0.204,0.283,0.367,0.48,0.495c0.197,0.127,0.418,0.221,0.665,0.282c0.247,0.061,0.492,0.091,0.738,0.091h1.28
			L99.595,124.254L99.595,124.254L99.595,124.254z M116.87,131.599v-8.036h0.85v7.348h4.344v-7.348h0.849v7.348h1.021v2.878h-0.848
			v-2.189H116.87L116.87,131.599z M126.147,123.563h4.209v0.691h-3.383v2.844h3.211v0.701h-3.211v3.111h3.531v0.688h-4.355v-8.036
			H126.147L126.147,123.563z M138.687,123.563l3.137,7.07l3.225-7.07h1.219v8.036h-0.824V124.3l-3.299,7.299h-0.727l-3.223-7.299
			v7.299h-0.775v-8.036H138.687L138.687,123.563z M149.245,123.563h0.848v6.897h0.037l4.355-6.897h0.971v8.036h-0.848v-6.896h-0.037
			l-4.355,6.896h-0.971V123.563L149.245,123.563z M19.252,87.126H17.6c-0.31,0-0.565,0.246-0.565,0.545v22.743
			c0,0.304,0.255,0.546,0.565,0.546h1.652c0.312,0,0.565-0.242,0.565-0.546V87.671C19.817,87.372,19.563,87.126,19.252,87.126
			L19.252,87.126L19.252,87.126z M49.145,87.126h-1.582c-0.312,0-0.565,0.246-0.565,0.545v18.011c0,0.301-0.156,0.354-0.349,0.117
			L31.822,87.555c-0.193-0.236-0.603-0.429-0.913-0.429h-1.477c-0.31,0-0.565,0.246-0.565,0.545v22.743
			c0,0.304,0.255,0.546,0.565,0.546h1.582c0.312,0,0.568-0.242,0.568-0.546V91.962c0-0.299,0.154-0.352,0.346-0.117l15.215,18.687
			c0.19,0.235,0.601,0.429,0.912,0.429h1.089c0.313,0,0.566-0.242,0.566-0.546V87.671C49.711,87.372,49.457,87.126,49.145,87.126
			L49.145,87.126L49.145,87.126z M73.717,87.126h-18.23c-0.312,0-0.567,0.246-0.567,0.545v1.394c0,0.301,0.255,0.545,0.567,0.545
			h7.141c0.312,0,0.565,0.248,0.565,0.548v20.256c0,0.304,0.253,0.546,0.566,0.546h1.688c0.308,0,0.565-0.242,0.565-0.546V90.158
			c0-0.301,0.253-0.549,0.562-0.549h7.143c0.313,0,0.567-0.245,0.567-0.545v-1.394C74.284,87.372,74.03,87.126,73.717,87.126
			L73.717,87.126L73.717,87.126z M96.919,108.508H82.842c-0.312,0-0.565-0.247-0.565-0.545v-7.251c0-0.301,0.253-0.545,0.565-0.545
			h10.615c0.312,0,0.564-0.245,0.564-0.547v-1.359c0-0.302-0.253-0.545-0.564-0.545H82.842c-0.312,0-0.565-0.246-0.565-0.546v-7.045
			c0-0.3,0.253-0.546,0.565-0.546h13.903c0.31,0,0.565-0.245,0.565-0.547v-1.359c0-0.3-0.255-0.546-0.565-0.546H80.062
			c-0.312,0-0.565,0.246-0.565,0.546v22.742c0,0.302,0.254,0.546,0.565,0.546h16.857c0.312,0,0.565-0.245,0.565-0.546v-1.358
			C97.485,108.756,97.231,108.508,96.919,108.508L96.919,108.508L96.919,108.508z M145.327,87.126h-18.234
			c-0.313,0-0.566,0.246-0.566,0.545v1.394c0,0.301,0.254,0.545,0.566,0.545h7.145c0.311,0,0.564,0.248,0.564,0.548v20.256
			c0,0.304,0.254,0.546,0.564,0.546h1.688c0.309,0,0.566-0.242,0.566-0.546V90.158c0-0.301,0.254-0.549,0.561-0.549h7.146
			c0.309,0,0.563-0.245,0.563-0.545v-1.394C145.89,87.372,145.636,87.126,145.327,87.126L145.327,87.126L145.327,87.126z
			 M160.921,86.716c-7.492,0-12.602,5.753-12.602,12.36c0,6.607,5.031,12.293,12.531,12.293c7.498,0,12.604-5.754,12.604-12.36
			C173.454,92.403,168.421,86.716,160.921,86.716L160.921,86.716L160.921,86.716z M160.921,108.885
			c-5.633,0-9.715-4.428-9.715-9.876c0-5.448,4.012-9.806,9.645-9.806c5.635,0,9.717,4.426,9.717,9.874
			C170.567,104.525,166.556,108.885,160.921,108.885L160.921,108.885L160.921,108.885z M118.645,104.757L118.645,104.757
			l-2.745-3.534c3.872-0.683,6.686-2.997,6.686-6.98c0-4.292-3.482-7.117-8.906-7.117h-10.029c-0.31,0-0.567,0.246-0.567,0.545
			v22.743c0,0.304,0.257,0.546,0.567,0.546h1.651c0.312,0,0.563-0.242,0.563-0.546V90.158c0-0.301,0.255-0.549,0.566-0.549h7.037
			c3.98,0,6.304,1.773,6.304,4.734c0,2.993-2.21,4.495-5.807,4.994c-0.406,0.056-1.527,0.074-1.484,1.313
			c0.015,0.427,0.36,0.912,0.36,0.912c0.152,0.243,0.314,0.461,0.401,0.575l1.437,1.856l0.586,0.763l4.451,5.768
			c0.186,0.24,0.591,0.435,0.9,0.435h2.286c0.31,0,0.413-0.195,0.224-0.436L118.645,104.757L118.645,104.757z M188.56,87.126h-8.658
			c-0.314,0-0.566,0.246-0.566,0.545v22.743c0,0.304,0.252,0.546,0.566,0.546h1.65c0.313,0,0.564-0.242,0.564-0.546V90.158
			c0-0.301,0.254-0.549,0.564-0.549h5.668c3.977,0,6.617,1.773,6.617,5.212c0,2.955-2.332,4.99-5.965,5.248h-0.775
			c-0.313,0-0.564,0.244-0.564,0.545v1.353c0,0.302,0.252,0.546,0.564,0.546h0.852c4.887-0.185,8.705-2.942,8.705-7.795
			C197.782,89.985,194.122,87.126,188.56,87.126z"/>
	</g>
</g>
</svg>
