<?xml version="1.0" encoding="utf-8"?>
<!DOCTYPE svg PUBLIC "-//W3C//DTD SVG 1.1//EN" "http://www.w3.org/Graphics/SVG/1.1/DTD/svg11.dtd">
<svg version="1.1" xmlns="http://www.w3.org/2000/svg" xmlns:xlink="http://www.w3.org/1999/xlink" x="0px" y="0px" width="216px" height="216px" viewBox="0 0 216 216" enable-background="new 0 0 216 216" xml:space="preserve">
<g>
	<rect fill-rule="evenodd" clip-rule="evenodd" width="216" height="216"/>
	<g>
		<path fill-rule="evenodd" clip-rule="evenodd" fill="#F2EB3E" d="M155.707,128.92c0.611,0,1.105,0.495,1.105,1.105
			s-0.494,1.105-1.105,1.105c-0.61,0-1.105-0.495-1.105-1.105S155.097,128.92,155.707,128.92L155.707,128.92z M52.554,127.049
			v16.497h112.252v-16.497H95.005c0.045,0.192,0.069,0.392,0.069,0.595c0,1.551-1.371,2.807-3.062,2.807s-3.062-1.256-3.062-2.807
			c0-0.203,0.024-0.402,0.069-0.595h-5.054c0.143,0.255,0.223,0.544,0.223,0.851c0,1.033-0.914,1.871-2.041,1.871
			c-1.127,0-2.041-0.838-2.041-1.871c0-0.307,0.08-0.596,0.223-0.851h-2.783c-0.073,0.671-0.574,1.19-1.182,1.19
			c-0.607,0-1.108-0.52-1.181-1.19h-3.409c-0.48,1.182-1.937,2.041-3.658,2.041c-1.722,0-3.178-0.859-3.659-2.041H52.554z"/>
		<rect x="52.554" y="73.304" fill-rule="evenodd" clip-rule="evenodd" fill="#F2EB3E" width="112.252" height="2.381"/>
	</g>
	<g>
		<path d="M66.231,134.948c-0.183-0.139-0.382-0.258-0.598-0.359s-0.453-0.179-0.71-0.235c-0.256-0.056-0.54-0.083-0.846-0.085
			c-0.334,0.002-0.63,0.045-0.89,0.129c-0.261,0.084-0.488,0.197-0.682,0.342c-0.194,0.145-0.359,0.309-0.493,0.494
			c-0.135,0.184-0.245,0.379-0.327,0.584c-0.082,0.203-0.142,0.407-0.18,0.611c-0.037,0.203-0.055,0.396-0.055,0.578
			c0,0.283,0.037,0.559,0.109,0.825c0.072,0.266,0.179,0.515,0.322,0.745c0.142,0.231,0.318,0.434,0.529,0.609
			c0.209,0.174,0.452,0.311,0.729,0.408c0.276,0.1,0.583,0.149,0.923,0.15c0.301,0,0.58-0.026,0.834-0.078
			c0.255-0.051,0.492-0.125,0.713-0.226c0.22-0.101,0.427-0.222,0.623-0.366l-0.655-0.853c-0.205,0.172-0.421,0.297-0.646,0.374
			c-0.227,0.078-0.463,0.116-0.711,0.115c-0.254-0.003-0.475-0.051-0.662-0.145c-0.187-0.097-0.341-0.225-0.461-0.386
			c-0.123-0.162-0.213-0.343-0.272-0.546c-0.059-0.201-0.088-0.412-0.088-0.629c0.001-0.25,0.039-0.479,0.111-0.686
			c0.074-0.207,0.179-0.387,0.317-0.54c0.137-0.151,0.302-0.27,0.495-0.353c0.193-0.082,0.409-0.125,0.648-0.126
			c0.167,0,0.322,0.017,0.464,0.052s0.279,0.086,0.41,0.153c0.13,0.068,0.263,0.153,0.396,0.253L66.231,134.948z"/>
		<polygon points="76.453,136.85 76.453,139.635 77.731,139.635 77.731,134.269 77.573,134.269 74.503,137.134 74.503,134.38 
			73.225,134.38 73.225,139.745 73.391,139.745 		"/>
		<path d="M86.114,138.112h0.426c0.347-0.003,0.647-0.056,0.9-0.16c0.252-0.104,0.46-0.248,0.623-0.428
			c0.163-0.181,0.284-0.387,0.363-0.617c0.079-0.231,0.119-0.474,0.119-0.729c0.001-0.171-0.021-0.341-0.066-0.512
			c-0.043-0.171-0.114-0.332-0.21-0.486c-0.096-0.154-0.222-0.291-0.378-0.41c-0.155-0.121-0.345-0.216-0.568-0.284
			c-0.224-0.069-0.484-0.105-0.781-0.106h-1.704v5.255h1.278V138.112L86.114,138.112z M86.114,137.078v-1.665h0.331
			c0.091-0.001,0.183,0.007,0.278,0.026c0.093,0.019,0.181,0.056,0.262,0.112c0.082,0.055,0.147,0.138,0.197,0.248
			c0.048,0.109,0.075,0.254,0.076,0.434c-0.001,0.168-0.02,0.306-0.058,0.412c-0.038,0.107-0.086,0.19-0.148,0.25
			c-0.062,0.061-0.129,0.103-0.201,0.129s-0.144,0.042-0.214,0.047c-0.071,0.006-0.134,0.008-0.191,0.007H86.114z"/>
		<path d="M111.046,139.635h2.202c0.256-0.001,0.482-0.042,0.678-0.122s0.359-0.189,0.492-0.33c0.131-0.14,0.231-0.299,0.299-0.48
			c0.066-0.18,0.101-0.372,0.101-0.574c-0.001-0.22-0.044-0.418-0.13-0.596c-0.086-0.18-0.205-0.33-0.36-0.455
			c-0.155-0.124-0.339-0.216-0.552-0.275c0.146-0.047,0.281-0.119,0.4-0.214c0.119-0.097,0.216-0.214,0.287-0.355
			c0.072-0.141,0.109-0.304,0.109-0.487c0-0.12-0.016-0.244-0.049-0.37c-0.035-0.126-0.087-0.248-0.16-0.366
			c-0.074-0.119-0.17-0.225-0.287-0.318c-0.119-0.096-0.262-0.17-0.43-0.225c-0.169-0.057-0.365-0.085-0.588-0.086h-2.013V139.635
			L111.046,139.635z M112.324,136.36v-0.947h0.323c0.058-0.001,0.121,0,0.194,0.006c0.072,0.005,0.142,0.021,0.209,0.047
			c0.068,0.026,0.123,0.071,0.168,0.135c0.043,0.062,0.066,0.149,0.068,0.263c-0.002,0.122-0.023,0.218-0.067,0.286
			c-0.045,0.07-0.101,0.119-0.167,0.148s-0.137,0.048-0.209,0.055c-0.072,0.006-0.137,0.009-0.196,0.008H112.324L112.324,136.36z
			 M112.324,138.601v-1.207h0.489c0.163,0.002,0.298,0.027,0.406,0.079c0.106,0.052,0.187,0.122,0.241,0.213
			c0.053,0.091,0.078,0.196,0.078,0.315c-0.001,0.123-0.021,0.223-0.061,0.299c-0.039,0.078-0.089,0.137-0.15,0.179
			c-0.063,0.042-0.125,0.071-0.192,0.089c-0.067,0.017-0.129,0.027-0.186,0.031c-0.057,0.002-0.099,0.004-0.129,0.002H112.324z"/>
		<polygon points="125.039,136.85 125.039,139.635 126.317,139.635 126.317,134.269 126.16,134.269 123.09,137.134 123.09,134.38 
			121.813,134.38 121.813,139.745 121.978,139.745 		"/>
		<polygon points="134.7,137.401 136.641,137.401 136.641,139.635 137.92,139.635 137.92,134.38 136.641,134.38 136.641,136.368 
			134.7,136.368 134.7,134.38 133.422,134.38 133.422,139.635 134.7,139.635 		"/>
		<path d="M144.914,137.007c0.001,0.272,0.043,0.539,0.127,0.803c0.086,0.264,0.209,0.512,0.369,0.744
			c0.162,0.232,0.359,0.438,0.591,0.617c0.231,0.178,0.495,0.318,0.788,0.419c0.295,0.102,0.615,0.153,0.965,0.155
			c0.333-0.001,0.643-0.051,0.93-0.146c0.287-0.098,0.547-0.233,0.777-0.406c0.231-0.173,0.43-0.374,0.596-0.604
			c0.166-0.229,0.292-0.479,0.381-0.747c0.088-0.268,0.133-0.547,0.134-0.834c-0.001-0.286-0.046-0.564-0.134-0.834
			c-0.09-0.268-0.218-0.516-0.383-0.746c-0.166-0.23-0.365-0.432-0.596-0.605c-0.232-0.174-0.492-0.308-0.779-0.404
			s-0.594-0.146-0.926-0.148c-0.336,0.002-0.65,0.052-0.939,0.149c-0.291,0.099-0.553,0.233-0.785,0.407
			c-0.234,0.176-0.434,0.378-0.6,0.607c-0.166,0.23-0.294,0.48-0.382,0.748C144.959,136.447,144.915,136.724,144.914,137.007
			L144.914,137.007z M146.199,137.015c0.002-0.233,0.039-0.455,0.112-0.66c0.073-0.206,0.179-0.387,0.315-0.545
			c0.137-0.157,0.299-0.28,0.488-0.37c0.189-0.089,0.399-0.136,0.631-0.137c0.23,0.001,0.439,0.046,0.627,0.136
			c0.188,0.088,0.351,0.211,0.486,0.368c0.137,0.156,0.24,0.338,0.314,0.544c0.073,0.207,0.111,0.428,0.111,0.664
			c0,0.242-0.038,0.466-0.111,0.671c-0.074,0.207-0.178,0.386-0.314,0.54c-0.136,0.152-0.298,0.271-0.486,0.355
			c-0.188,0.086-0.396,0.129-0.627,0.131c-0.231-0.002-0.441-0.045-0.631-0.131s-0.352-0.206-0.488-0.36
			c-0.137-0.153-0.242-0.333-0.315-0.538S146.201,137.256,146.199,137.015z"/>
		<path d="M101.353,136.55c-0.073,0.109-0.139,0.203-0.193,0.283c-0.056,0.081-0.105,0.152-0.149,0.215
			c-0.044,0.063-0.088,0.123-0.13,0.184c-0.042,0.057-0.086,0.12-0.135,0.186c-0.065-0.094-0.141-0.203-0.225-0.326
			c-0.083-0.126-0.168-0.255-0.254-0.389c-0.085-0.136-0.166-0.266-0.238-0.392c-0.074-0.126-0.131-0.241-0.176-0.341
			c-0.046-0.1-0.068-0.178-0.069-0.232c-0.001-0.032,0.004-0.07,0.016-0.117c0.011-0.047,0.036-0.094,0.072-0.141
			c0.037-0.048,0.094-0.088,0.168-0.119c0.075-0.032,0.176-0.049,0.304-0.05c0.036,0,0.076,0.003,0.124,0.007
			c0.047,0.006,0.096,0.012,0.145,0.02c0.049,0.01,0.094,0.019,0.134,0.029l0.071-1.002c-0.085-0.019-0.175-0.036-0.272-0.049
			c-0.096-0.015-0.194-0.026-0.294-0.034s-0.197-0.013-0.293-0.013c-0.191,0-0.37,0.028-0.538,0.081
			c-0.167,0.054-0.316,0.13-0.445,0.229c-0.129,0.101-0.229,0.218-0.302,0.356s-0.11,0.292-0.112,0.463
			c0.001,0.107,0.013,0.213,0.038,0.317c0.023,0.104,0.057,0.198,0.096,0.282c-0.217,0.037-0.408,0.107-0.572,0.213
			s-0.301,0.234-0.412,0.39c-0.112,0.155-0.194,0.326-0.25,0.513c-0.056,0.188-0.084,0.38-0.084,0.582
			c0.002,0.273,0.046,0.52,0.133,0.737c0.087,0.218,0.204,0.41,0.35,0.574c0.146,0.163,0.31,0.3,0.49,0.411
			c0.18,0.108,0.366,0.191,0.556,0.245c0.189,0.056,0.373,0.083,0.546,0.083c0.115,0,0.235-0.016,0.363-0.049
			c0.129-0.031,0.257-0.081,0.384-0.146c0.126-0.067,0.246-0.152,0.357-0.254l0.261,0.339h1.31l-0.773-1.191
			c0.06-0.065,0.129-0.149,0.21-0.253c0.083-0.102,0.172-0.225,0.269-0.365s0.193-0.3,0.294-0.479L101.353,136.55L101.353,136.55z
			 M99.949,138.372c-0.038,0.102-0.088,0.175-0.15,0.223c-0.063,0.047-0.126,0.078-0.192,0.092
			c-0.064,0.014-0.123,0.019-0.171,0.018c-0.092-0.002-0.178-0.029-0.256-0.082c-0.08-0.053-0.153-0.123-0.216-0.212
			c-0.064-0.088-0.12-0.188-0.166-0.296c-0.046-0.109-0.082-0.221-0.106-0.334c-0.023-0.113-0.037-0.221-0.037-0.323
			c-0.001-0.069,0.009-0.144,0.03-0.223s0.058-0.156,0.113-0.231c0.056-0.074,0.134-0.142,0.236-0.201L99.949,138.372z"/>
	</g>
	<g>
		<path fill-rule="evenodd" clip-rule="evenodd" fill="#FFFFFF" d="M88.958,80.61c5.631,0,10.198,9.356,10.198,20.894
			c0,11.538-4.567,20.894-10.198,20.894s-10.198-9.356-10.198-20.894C78.76,89.966,83.327,80.61,88.958,80.61L88.958,80.61z
			 M88.958,82.004c-4.74,0-8.583,8.664-8.583,19.347c0,10.684,3.844,19.347,8.583,19.347c4.739,0,8.583-8.663,8.583-19.347
			C97.541,90.667,93.697,82.004,88.958,82.004z"/>
		<path fill-rule="evenodd" clip-rule="evenodd" fill="#FFFFFF" d="M133.008,80.61c5.632,0,10.199,9.356,10.199,20.894
			c0,11.538-4.567,20.894-10.199,20.894c-5.631,0-10.197-9.356-10.197-20.894C122.811,89.966,127.377,80.61,133.008,80.61
			L133.008,80.61z M133.008,82.004c-4.739,0-8.582,8.664-8.582,19.347c0,10.684,3.843,19.347,8.582,19.347
			c4.74,0,8.584-8.663,8.584-19.347C141.592,90.667,137.748,82.004,133.008,82.004z"/>
		<path fill-rule="evenodd" clip-rule="evenodd" fill="#FFFFFF" d="M90.625,83.578c3.47,1.793,6.068,9.07,6.068,17.773
			c0,8.67-2.579,15.925-6.029,17.752c-0.561,0.316-0.866-0.898-0.151-1.475c2.532-1.938,4.396-8.491,4.396-16.277
			c0-7.825-1.882-14.407-4.434-16.307C89.993,84.491,89.895,83.277,90.625,83.578L90.625,83.578z M87.421,85.061
			c-2.54,1.921-4.412,8.487-4.412,16.29c0,7.764,1.853,14.301,4.373,16.26c0.629,0.536,0.45,1.666-0.153,1.48
			c-3.438-1.85-6.004-9.092-6.004-17.74c0-8.682,2.586-15.945,6.044-17.76C87.936,83.249,88.072,84.57,87.421,85.061z"/>
		<path fill-rule="evenodd" clip-rule="evenodd" fill="#FFFFFF" d="M134.676,83.578c3.47,1.793,6.068,9.07,6.068,17.773
			c0,8.67-2.579,15.925-6.029,17.752c-0.561,0.316-0.866-0.898-0.151-1.475c2.532-1.938,4.396-8.491,4.396-16.277
			c0-7.825-1.883-14.407-4.434-16.307C134.044,84.491,133.945,83.277,134.676,83.578L134.676,83.578z M131.472,85.061
			c-2.54,1.921-4.411,8.487-4.411,16.29c0,7.764,1.852,14.301,4.373,16.26c0.628,0.536,0.449,1.666-0.154,1.48
			c-3.438-1.85-6.004-9.092-6.004-17.74c0-8.682,2.586-15.945,6.043-17.76C131.986,83.249,132.123,84.57,131.472,85.061z"/>
		<path fill-rule="evenodd" clip-rule="evenodd" fill="#FFFFFF" d="M151.825,121.038l0.003-2.04h-2.314l0.031-14.613
			c-0.04-0.942,0.055-0.9,0.29,0.057l4.757,14.557h-1.719v2.04h3.891l-7.164-23.65l0.04-13.99l1.321-0.098
			c3.262,0,5.907,3.721,5.907,8.308c0,4.193-2.067,7.449-4.493,7.945c-0.758,0.155-0.811,0.628-0.743,1l-0.011,0.833
			c0.09,0-0.055,0.724,0.219,1.204c0.274,0.48,5.706,17.82,6.025,18.447h3.484l-0.07-2.04h-1.99l-5.676-17.961
			c3.131-1.151,5.338-4.891,5.338-9.429c0-5.479-3.388-9.762-7.564-9.762h-3.551v39.191H151.825z"/>
		<path fill-rule="evenodd" clip-rule="evenodd" fill="#FFFFFF" d="M69.539,103.728c0.114-0.114,0.3,0.129,0.444,0.713l4.757,14.557
			h-1.805l0.001,2.04h3.976l-7.062-22.354l-0.312-0.729V83.471l2.403-0.04v-1.575h-4.103v39.352h3.995v-2.146l-2.295-0.021V103.728
			L69.539,103.728z M71.86,95.858l7.577,23.14h2.883l0.07,2.04h-4.377l-8.048-25.16l0.045-0.029l-0.004-0.007l6.321-12.372h-2.241
			v-1.658h6.119v0.042v1.585v0.03h-2.171h-0.007L71.86,95.858z"/>
		<path fill-rule="evenodd" clip-rule="evenodd" fill="#FFFFFF" d="M152.039,84.536c2.322,0.697,4.064,3.599,4.064,7.072
			c0,3.414-1.383,6.265-3.666,6.959c-0.434,0.133-0.838,0.182-0.838-0.748c0-1.131,0.185-1.026,0.709-1.321
			c1.317-0.741,2.138-2.623,2.138-4.89c0-2.486-1.095-4.578-2.581-5.192c-0.398-0.165-0.643-0.489-0.653-0.991
			C151.203,84.982,151.354,84.33,152.039,84.536z"/>
		<polygon fill-rule="evenodd" clip-rule="evenodd" fill="#FFFFFF" points="146.754,121.207 142.08,121.207 142.08,119.062 
			145.055,119.04 145.055,101.255 145.055,83.471 142.142,83.431 142.142,81.855 146.754,81.855 		"/>
		<path fill-rule="evenodd" clip-rule="evenodd" fill="#FFFFFF" d="M105.551,121.207h-7.862v-2.155h2.975v-17.796V83.471
			l-2.913-0.04v-1.575h4.637h0.018v0.075c3.194,13.061,5.965,25.32,9.161,38.385c0.085,1.161-1.445,0.835-2.167-0.213
			c-2.372-9.581-4.356-18.507-6.602-27.874c-0.414-1.73-0.392-2.016-0.392-0.046v8.33l0.243,18.54h2.885L105.551,121.207z"/>
		<path fill-rule="evenodd" clip-rule="evenodd" fill="#FFFFFF" d="M169.342,121.207h-6.799v-2.155l2.139-0.043l5.17-35.538
			c0.154-2.12,1.453-3.039,1.697-1.679l0.045,0.139l6.6,36.94h0.008l0.147,0.87l0.026,0.149l0.001,0.013l0.205,1.215l-5.054,0.048
			v-2.295h2.596l-1.781-10.189h-5.936l-1.4,10.371h2.319L169.342,121.207L169.342,121.207z M173.984,106.64l-2.545-14.558
			c-0.253-1.446-0.771-2.117-0.771-0.148l-1.987,14.706H173.984z"/>
		<polygon fill-rule="evenodd" clip-rule="evenodd" fill="#FFFFFF" points="66.647,121.207 62.525,121.207 62.525,119.062 
			64.947,119.04 64.947,101.255 64.947,83.471 62.374,83.431 62.374,81.855 66.647,81.855 		"/>
		<polygon fill-rule="evenodd" clip-rule="evenodd" fill="#FFFFFF" points="37.75,121.207 33.075,121.207 33.075,119.062 
			36.05,119.04 36.05,101.255 36.05,83.471 33.137,83.431 33.137,81.855 37.75,81.855 		"/>
		<polygon fill-rule="evenodd" clip-rule="evenodd" fill="#FFFFFF" points="120.155,121.207 124.83,121.207 124.83,119.062 
			121.855,119.04 121.855,101.255 121.855,83.471 124.768,83.431 124.768,81.855 120.155,81.855 		"/>
		<path fill-rule="evenodd" clip-rule="evenodd" fill="#FFFFFF" d="M179.173,121.207h4.675l-0.369-2.146l-2.701-0.182l-3.34-17.625
			l-3.063-17.785c-0.699-2.969-2.549-3.018-1.979-0.978L179.173,121.207z"/>
		<path fill-rule="evenodd" clip-rule="evenodd" fill="#FFFFFF" d="M118.966,121.207h-4.675v-2.146l2.975-0.021
			c0-8.315,0-16.63,0-24.945c0-4.068,0.049-3.525-0.711,0.097l-4.586,20.228c-0.395,1.371-0.715,0.562-1.068-0.277l-7.067-30.771
			c-0.55-2.061,1.251-2.02,1.566-0.946c1.419,4.834,3.949,20.468,5.487,24.385c0.205,0.522,0.41,1.045,0.615,1.567
			c0.121-0.501,0.242-1.002,0.364-1.503l5.462-24.084c0.673-1.271,1.155-0.987,1.638-0.595V121.207z"/>
		<path fill-rule="evenodd" clip-rule="evenodd" fill="#FFFFFF" d="M42.128,98.82l1.445,0.005V83.46l-2.932,0.011v17.785v17.785
			l4.547,0.012l0.765-5.77c0.567-1.155,2.026-0.907,2.422,0.105l-1.043,6.318c-0.276,0.84-0.679,1.511-1.592,1.501h-6.799V81.855
			h9.986l1.852,4.675l-2.04,0.045l-1.256-3.13l-1.7,0.006v6.563h1.105V88.74h1.955v4.25h-1.955V91.8h-1.105v7.033l1.7,0.006
			l1.256-3.13l2.04,0.045l-1.852,4.674h-6.799V98.82z"/>
		<path fill="#FFFFFF" d="M180.823,81.336c0.488,0,0.964,0.125,1.43,0.375c0.464,0.251,0.827,0.609,1.086,1.076
			c0.259,0.465,0.39,0.952,0.39,1.458c0,0.501-0.128,0.982-0.385,1.444c-0.254,0.463-0.613,0.822-1.074,1.077
			c-0.461,0.256-0.942,0.384-1.446,0.384c-0.503,0-0.986-0.128-1.446-0.384c-0.462-0.255-0.82-0.614-1.077-1.077
			c-0.258-0.461-0.386-0.943-0.386-1.444c0-0.506,0.131-0.993,0.391-1.458c0.261-0.467,0.623-0.825,1.09-1.076
			C179.857,81.461,180.336,81.336,180.823,81.336L180.823,81.336z M180.823,81.817c-0.409,0-0.806,0.105-1.192,0.314
			s-0.689,0.509-0.908,0.897c-0.218,0.389-0.327,0.794-0.327,1.216c0,0.418,0.108,0.819,0.322,1.203
			c0.214,0.384,0.515,0.684,0.899,0.898c0.386,0.214,0.787,0.322,1.206,0.322c0.418,0,0.821-0.108,1.206-0.322
			s0.684-0.514,0.896-0.898c0.213-0.384,0.32-0.785,0.32-1.203c0-0.422-0.107-0.827-0.325-1.216
			c-0.217-0.388-0.52-0.688-0.907-0.897C181.625,81.923,181.229,81.817,180.823,81.817L180.823,81.817z M179.548,85.851v-3.127
			h1.074c0.368,0,0.634,0.027,0.798,0.085c0.165,0.058,0.295,0.159,0.394,0.302c0.097,0.145,0.146,0.297,0.146,0.459
			c0,0.229-0.081,0.428-0.244,0.597s-0.38,0.264-0.649,0.286c0.11,0.046,0.2,0.101,0.266,0.166c0.126,0.124,0.28,0.33,0.463,0.621
			l0.382,0.611h-0.617l-0.277-0.493c-0.219-0.386-0.394-0.63-0.527-0.727c-0.092-0.072-0.228-0.108-0.405-0.108h-0.296v1.328
			H179.548L179.548,85.851z M180.053,84.091h0.613c0.291,0,0.491-0.045,0.598-0.131c0.106-0.087,0.16-0.203,0.16-0.348
			c0-0.092-0.025-0.175-0.077-0.248c-0.052-0.072-0.122-0.128-0.213-0.163c-0.093-0.037-0.261-0.054-0.508-0.054h-0.573V84.091z"/>
	</g>
</g>
</svg>
