<?xml version="1.0" encoding="utf-8"?>
<!DOCTYPE svg PUBLIC "-//W3C//DTD SVG 1.1//EN" "http://www.w3.org/Graphics/SVG/1.1/DTD/svg11.dtd">
<svg version="1.1" id="Layer_1" xmlns="http://www.w3.org/2000/svg" xmlns:xlink="http://www.w3.org/1999/xlink" x="0px" y="0px" width="216px" height="216px" viewBox="0 0 216 216" enable-background="new 0 0 216 216" xml:space="preserve">
<g>
	<path fill="#FFFFFF" fill-opacity="0" d="M0.122,0.122h216v216h-216V0.122z"/>
	<path d="M109.992,63.482c-4.013,4.948-15.458,20.925-16.763,22.993c-2.511,3.963-2.733,5.884-2.807,7.164
		c-0.073,1.256-0.073,3.521,1.97,5.368c3.422,3.052,8.222,2.559,12.481,2.559h35.08c1.502,0,1.945-0.443,2.758-1.526
		c2.807-4.284,4.063-8.937,4.063-13.098c0-8.912-5.784-20.137-20.433-25.208l-1.651,2.363c11.62,5.513,16.422,12.727,16.422,22.819
		c0.073,2.708-0.642,5.638-2.414,8.346h-34.121c-2.043,0-2.339-2.314-1.601-3.62c2.925-5.206,6.19-10.213,9.773-14.991
		c3.447-4.603,6.844-8.912,10.413-13.417c0.961-1.255,0.32-2.462-1.6-2.855c-3.988-0.837-8.147-1.427-13.195-1.427
		c-27.989,0-38.231,16.075-38.231,27.99c0,12.925,10.315,27.917,38.305,27.917c15.533,0,25.702-4.999,31.585-11.423h-5.934
		c-5.146,4.751-13.983,8.125-25.651,8.125c-23.707,0-32.445-13.319-32.445-24.792c0.171-10.241,9.551-24.372,33.037-24.839
		C109.92,61.907,110.609,62.719,109.992,63.482L109.992,63.482z M194.186,137.261c1.403,0.197,2.486,1.305,2.486,2.611
		c0,1.475-1.329,2.656-2.955,2.656h-30.081v-19.669h-8.863v19.72h-16.297c-4.406,0-5.316-2.684-5.316-5.146v-14.697h-14.696
		c-1.453,0.985-2.856,2.069-4.358,2.979l-8.714,5.367l-11.324-8.271H76.439v4.948h6.375v-2.709l14.992,10.76l-10.241,6.423H76.438
		v4.949h12.875c1.378-0.935,2.684-1.92,4.111-2.781l8.96-5.44l11.373,8.124h12.95l-17.111-12.876l8.79-5.733
		c1.871-1.233,3.842-2.266,5.761-3.396v12.948c0,5.465,1.403,9.256,12.407,9.256l62.16-0.146c4.8,0.071,7.877-3.25,7.877-7.262
		c0-3.99-3.546-7.264-7.877-7.264h-22.451c0.296-2.732,2.657-5.021,5.045-5.021h22.723l-0.072-4.751h-24.102
		c-7.632,0-13.736,6.327-13.908,13.688c-0.023,0.517,0.319,0.836,0.886,0.836L194.186,137.261L194.186,137.261z M76.439,137.188
		v-5.047h4.382v5.047H76.439z M76.439,122.811H59.798c-4.505,0-7.977,1.183-10.536,3.199c-4.604,3.645-6.081,7.483-6.031,9.208
		h6.006c-2.634,1.97-4.407,4.331-5.342,7.065H24.2c-3.544,0-5.835-2.51-5.835-4.948v-14.696H9.651v15.263
		c0,5.489,5.22,9.28,13.588,9.28h53.2v-4.949H55.318c0.099-2.51,2.781-5.045,5.218-5.045h15.903v-5.047H55.071
		c-0.295-1.477,2.462-4.382,4.579-4.382h16.79V122.811L76.439,122.811z"/>
</g>
</svg>
