<?xml version="1.0" encoding="utf-8"?>
<!DOCTYPE svg PUBLIC "-//W3C//DTD SVG 1.1//EN" "http://www.w3.org/Graphics/SVG/1.1/DTD/svg11.dtd">
<svg version="1.1" xmlns="http://www.w3.org/2000/svg" xmlns:xlink="http://www.w3.org/1999/xlink" x="0px" y="0px" width="216px" height="216px" viewBox="0 0 216 216" enable-background="new 0 0 216 216" xml:space="preserve">
<g>
	<path fill-rule="evenodd" clip-rule="evenodd" fill="#014F3B" d="M210.163,186.344H5.837C2.107,179.02,0,170.745,0,162.003V54
		C0,24.3,24.3,0,54,0h108.003C191.702,0,216,24.3,216,54v108.003C216,170.745,213.893,179.02,210.163,186.344z"/>
	<path fill-rule="evenodd" clip-rule="evenodd" fill="#DDDF22" d="M210.163,186.344H5.837C14.776,203.9,33.043,216,54,216h108.003
		C182.959,216,201.225,203.9,210.163,186.344z"/>
	<path fill-rule="evenodd" clip-rule="evenodd" fill="#FFFFFF" d="M22.71,84.452c5.669,0,10.267,4.821,10.267,10.766
		s-4.598,10.766-10.267,10.766s-10.266-4.821-10.266-10.766S17.041,84.452,22.71,84.452L22.71,84.452z M22.71,86.06
		c-2.856,0-5.173,4.101-5.173,9.158s2.316,9.158,5.173,9.158s5.173-4.101,5.173-9.158S25.566,86.06,22.71,86.06L22.71,86.06z
		 M203.613,105.687h-4.439c-1.019,0-2.389-0.835-3.14-1.853l-5.628-7.625l0.042-0.036h-0.733v9.228l-4.288,0.093V88.909
		l-0.007-0.369l-0.023-0.243c-0.097-1.015-0.56-1.572-1.578-1.572h-0.385v-1.329h4.439c1.019,0,1.866,0.834,1.852,1.853
		l-0.012,0.806l0.002,0.761v5.726h0.558l8.133-9.274h2.983l-8.123,9.262l7.1,7.958c0.892,1,1.708,1.659,2.726,1.659h0.385
		L203.613,105.687L203.613,105.687z M88.828,105.5h-3.996c-1.019,0-1.498-0.897-1.853-1.852l-0.197-0.53h-0.032l-1.01-2.656h-8.168
		l-2.208,5.033h-2.517l8.801-20.063h0.428h2.089h0.054l6.599,17.352c0.415,0.868,0.639,1.388,1.625,1.388h0.384V105.5L88.828,105.5z
		 M80.961,98.41l-3.013-7.923l-3.476,7.923H80.961L80.961,98.41z M156.497,105.5h-3.996c-1.019,0-1.498-0.897-1.853-1.852
		l-0.197-0.53h-0.032l-1.01-2.656h-8.168l-2.208,5.033h-2.517l8.801-20.063h0.428h2.089h0.054l6.599,17.352
		c0.415,0.868,0.64,1.388,1.626,1.388h0.385V105.5L156.497,105.5z M148.629,98.41l-3.013-7.923l-3.476,7.923H148.629L148.629,98.41z
		 M101.017,90.487l-3.896,8.901l-1.908,4.334h10.864l-0.028-0.076l-0.197-0.53h-0.032L101.017,90.487L101.017,90.487z
		 M92.325,103.723c0.417-0.077,0.487-0.379,0.684-0.717l7.71-17.575h0.427h2.089h0.053l6.599,17.352
		c0.306,0.639,0.315,0.865,0.693,0.94h0.563h0.339v0.034h0.061l-0.061,0.506v1.254c0.166,1.813-0.312,3.33-0.84,4.777h-1.957v-4.777
		h-14.17v4.777h-1.958c-0.529-1.447-1.006-2.964-0.841-4.777v-1.794h0.339H92.325L92.325,103.723z M43.332,88.367L43.332,88.367
		l0.001,15.356h5.662V85.431h4.194v18.292h5.592V85.431h4.194v18.292h2.463v1.794c0.188,2.055-0.451,3.73-1.054,5.352l-1.744,0.076
		v-5.428H39.301v-0.023h-0.164V88.909h0v-0.524c0-1.019-0.589-1.659-1.608-1.659h-0.384v-1.329h4.334
		c1.019,0,1.853,0.834,1.853,1.853V88.367L43.332,88.367z M173.239,85.431h4.195v20.063h-4.195v-9.32h-7.479v9.228l-4.287,0.093
		V88.909l-0.007-0.369l-0.023-0.243c-0.097-1.015-0.561-1.572-1.578-1.572h-0.385v-1.329h4.439c1.019,0,1.866,0.834,1.852,1.853
		l-0.012,0.806l0.001,0.761v5.726h7.479V85.431L173.239,85.431z M121.684,87.203h7.414l0.023,4.68
		c0.776,0.122,1.692,0.081,1.84-0.405c0.51-1.623,0.796-2.29,0.935-4.275v-1.794h-11.853c-0.069-0.008-0.14-0.013-0.212-0.013
		h-4.438v1.329h0.384c1.02,0,1.482,0.557,1.579,1.572l0.023,0.243l0.007,0.369v16.585l4.287-0.034v-0.023h5.891
		c0.117,0.007,0.235,0.011,0.354,0.011c2.998,0,5.429-2.432,5.429-5.429c0-2.998-2.431-5.429-5.429-5.429
		c-0.211,0-0.418,0.012-0.622,0.035h-5.623v-5.808l-0.001-0.761l0.012-0.806V87.203L121.684,87.203z M121.673,103.805v-7.549h3.484
		c1.992,0.107,3.576,1.758,3.576,3.777c0,1.99-1.537,3.622-3.489,3.772H121.673z"/>
</g>
</svg>
