<?xml version="1.0" encoding="utf-8"?>
<!DOCTYPE svg PUBLIC "-//W3C//DTD SVG 1.1//EN" "http://www.w3.org/Graphics/SVG/1.1/DTD/svg11.dtd">
<svg version="1.1" id="Layer_1" xmlns="http://www.w3.org/2000/svg" xmlns:xlink="http://www.w3.org/1999/xlink" x="0px" y="0px" width="216px" height="216px" viewBox="404 404 216 216" enable-background="new 404 404 216 216" xml:space="preserve">
<g>
	<path fill-rule="evenodd" clip-rule="evenodd" fill="#007D8F" d="M458,404h108.003C595.702,404,620,428.3,620,458v108.003
		C620,595.702,595.702,620,566.003,620H458c-29.7,0-54-24.298-54-53.997V458C404,428.3,428.3,404,458,404z"/>
	<path fill="#FFFFFF" d="M583.547,558.454H429.313v13.894h154.234V558.454z"/>
	<path fill="#FFFFFF" d="M588.146,455.484l-25.858,14.325c-5.213,2.585-6.644,3.339-8.279,3.124l3.373,8.186
		c1.022,3.446,4.701,4.523,7.563,3.015l29.334-16.586v-15.511L588.146,455.484z"/>
	<path fill="#FFFFFF" d="M588.146,455.484l-21.872,12.064c0,0-7.564,4.308-12.368,5.385l3.476,8.186
		c1.022,3.446,4.701,4.523,7.563,3.015l29.334-16.586v-15.511L588.146,455.484z"/>
	<path fill="#FFFFFF" d="M565.046,484.026c-2.656,1.4-5.928,0.754-7.153-1.615c-1.228-2.262-2.658-5.063-3.885-9.371"/>
	<path fill="#FFFFFF" d="M544.707,525.064c-15.843,8.509-31.992,16.909-50.389,21.219c-17.171,4.092-36.08,4.63-49.265-3.34
		c-11.856-7.108-15.74-21.11-15.536-31.344c0.102-6.678,3.271-16.156,9.505-23.911c11.55-14.541,33.32-27.25,50.594-27.789
		c6.133-0.215,10.119,1.938,12.47,17.772c-6.439,0-12.061,0.862-18.807,3.339c-4.293,1.615-12.47,5.277-21.771,12.171
		c-12.163,8.939-19.215,17.879-19.931,26.281c-0.614,7.432,6.03,11.849,17.068,12.817c26.166,2.261,56.42-10.663,79.623-23.912
		l18.499-10.771l37.92-21.326l-0.102,20.034l-30.664,18.203L544.707,525.064z"/>
	<path fill="#FFFFFF" d="M484.097,466.577c5.826,0.323,15.638-3.985,17.887,11.417c-2.759-0.862-7.972-0.107-11.039,0.539"/>
	<path fill="#FFFFFF" d="M544.707,525.171l-6.746-17.018l-10.221-27.25l-13.39,30.159c-4.497,9.478-19.215,12.278-29.538,13.787
		l1.839-3.985l29.845-59.348h23.304l16.763,35.759l7.358,17.234L544.707,525.171z"/>
	<path fill="#FFFFFF" d="M565.251,517.74l13.595,31.02h-10.427h-8.073c-3.373,0-6.746-0.216-8.178-3.985l-2.861-7.324l-3.476-8.833
		L565.251,517.74z"/>
</g>
</svg>
