<?xml version="1.0" encoding="utf-8"?>
<!DOCTYPE svg PUBLIC "-//W3C//DTD SVG 1.1//EN" "http://www.w3.org/Graphics/SVG/1.1/DTD/svg11.dtd">
<svg version="1.1" id="Layer_1" xmlns="http://www.w3.org/2000/svg" xmlns:xlink="http://www.w3.org/1999/xlink" x="0px" y="0px" width="216px" height="216px" viewBox="0 0 216 216" enable-background="new 0 0 216 216" xml:space="preserve">
<rect fill="#FAE60D" width="216" height="216"/>
<rect x="28" y="80.762" fill="#003B7D" width="160" height="48.302"/>
<path fill="#FAE60D" d="M169.189,111.236c-0.035,0.284-0.143,1.033-1.119,1.13h-8.563c-0.976-0.097-1.153-0.846-1.19-1.13V98.013
	c0.035-0.285,0.172-0.892,1.146-0.988h8.613c0.976,0.096,1.079,0.702,1.114,0.988V111.236z M172.155,92.042h-16.805
	c-2.525,0.204-4.657,1.484-4.942,4.35v16.371c0.285,2.864,2.417,4.383,4.942,4.586h16.805c2.525-0.203,4.658-1.722,4.943-4.586
	V96.392C176.813,93.526,174.681,92.246,172.155,92.042 M104.144,97.025h-7.513v-4.983h22.934v4.983h-7.514v20.323h-7.908V97.025z
	 M94.26,97.025v-4.983H73.697v25.306l20.835-0.004l0.008-4.978H81.625l0.001-5.42h12.632v-4.969H81.627v-4.952L94.26,97.025
	L94.26,97.025z M140.126,100.946c0,0.548-0.134,1.028-1.119,1.028h-9.16v-4.966h9.173c1.116,0,1.106,0.729,1.106,1.186V100.946z
	 M142.317,107.511c2.468-0.198,4.927-1.877,4.927-4.635V96.63c-0.285-2.853-2.427-4.391-4.962-4.595h-20.344v25.313h7.908v-9.837
	h3.147l5.139,9.837h9.095l-6.119-9.837H142.317z M57.327,117.349l5.299-15.895v15.895h7.907V92.042H59.859l-5.141,12.654
	l-5.141-12.654H38.902v25.306h7.909v-15.895l5.337,15.895H57.327"/>
<path display="none" fill="#FFE500" d="M-3.289-23.982l11.68-35.165v35.165h17.434v-55.983H2.29L-9.042-51.975l-11.331-27.991
	h-23.535v55.983h17.434v-35.165l11.767,35.165H-3.289z M184.063-45.746c5.438-0.436,10.861-4.15,10.861-10.251v-12.597v-1.225
	c-0.632-6.309-5.349-9.715-10.939-10.164h-44.846v56h17.432v-21.764h6.939l11.33,21.764h20.049l-13.494-21.764H184.063z
	 M179.234-60.267c0,1.211-0.301,2.274-2.468,2.274H156.57v-10.988h20.223c2.459,0,2.441,1.615,2.441,2.623V-60.267z M78.123-68.943
	v-11.022H32.797v55.983l45.928-0.012l0.018-11.01H50.273l0.004-11.99h27.846v-10.994H50.277v-10.956H78.123z M99.914-68.943H83.353
	v-11.022h50.556v11.022h-16.563v44.961H99.914V-68.943z M249.837-79.966h-37.044c-5.568,0.451-10.269,3.284-10.896,9.623v36.214
	c0.628,6.338,5.328,9.695,10.896,10.146h37.044c5.566-0.451,10.267-3.809,10.896-10.146v-36.214
	C260.104-76.682,255.403-79.515,249.837-79.966L249.837-79.966z M243.299-37.506c-0.08,0.629-0.316,2.285-2.466,2.5h-18.88
	c-2.15-0.215-2.543-1.871-2.624-2.5v-29.25c0.079-0.631,0.378-1.973,2.528-2.187h18.983c2.151,0.214,2.378,1.556,2.458,2.187
	V-37.506z"/>
<g>
	<path fill="#003B7D" d="M39.473,144.898c0-2.039,0.547-3.635,1.643-4.789c1.095-1.153,2.508-1.73,4.24-1.73
		c1.134,0,2.156,0.271,3.067,0.813c0.911,0.541,1.605,1.297,2.083,2.267c0.478,0.969,0.716,2.068,0.716,3.297
		c0,1.246-0.251,2.36-0.754,3.344c-0.503,0.983-1.215,1.728-2.137,2.233s-1.916,0.759-2.983,0.759c-1.157,0-2.19-0.279-3.101-0.839
		c-0.911-0.559-1.601-1.32-2.07-2.287S39.473,145.977,39.473,144.898z M41.148,144.924c0,1.48,0.398,2.646,1.194,3.498
		c0.796,0.853,1.794,1.278,2.996,1.278c1.224,0,2.23-0.43,3.021-1.29s1.186-2.081,1.186-3.662c0-1-0.169-1.873-0.507-2.619
		c-0.338-0.746-0.833-1.324-1.483-1.734c-0.651-0.411-1.381-0.616-2.191-0.616c-1.151,0-2.141,0.396-2.971,1.186
		C41.563,141.755,41.148,143.074,41.148,144.924z"/>
	<path fill="#003B7D" d="M55.049,138.597h9.662v12.285h-1.634v-10.835h-6.402v10.835h-1.625V138.597z"/>
	<path fill="#003B7D" d="M72.209,150.882v-10.835h-4.047v-1.45h9.737v1.45h-4.064v10.835H72.209z"/>
	<path fill="#003B7D" d="M88.882,138.597h7.475v10.835h1.106v4.316h-1.45v-2.866h-8.12v2.866h-1.45v-4.316h0.955
		c0.989-1.491,1.483-4.505,1.483-9.041V138.597z M94.731,140.047h-4.282v0.628c0,1.045-0.093,2.474-0.281,4.287
		c-0.187,1.813-0.554,3.303-1.102,4.47h5.665V140.047z"/>
	<path fill="#003B7D" d="M102.003,138.597h7.693v12.285h-1.626v-10.835h-4.441v6.326c0,1.285-0.06,2.227-0.18,2.824
		s-0.373,1.063-0.758,1.396c-0.385,0.332-0.875,0.499-1.466,0.499c-0.357,0-0.788-0.067-1.291-0.201l0.276-1.441
		c0.268,0.111,0.497,0.167,0.688,0.167c0.369,0,0.645-0.138,0.83-0.414c0.184-0.277,0.276-0.93,0.276-1.957V138.597z"/>
	<path fill="#003B7D" d="M122.181,150.882v-5.455h-1.886c-0.419,0-0.721,0.02-0.904,0.059c-0.252,0.062-0.499,0.17-0.742,0.327
		c-0.243,0.156-0.519,0.43-0.825,0.82c-0.308,0.392-0.698,0.956-1.173,1.693l-1.626,2.556h-2.045l2.137-3.344
		c0.425-0.653,0.874-1.198,1.35-1.634c0.224-0.201,0.55-0.405,0.98-0.612c-1.179-0.161-2.051-0.541-2.614-1.14
		c-0.564-0.598-0.847-1.332-0.847-2.203c0-0.676,0.17-1.294,0.511-1.853s0.796-0.948,1.366-1.169
		c0.569-0.221,1.402-0.331,2.497-0.331h5.447v12.285H122.181z M122.181,139.954h-3.889c-0.91,0-1.576,0.188-1.998,0.562
		c-0.422,0.375-0.633,0.853-0.633,1.434c0,0.396,0.109,0.764,0.327,1.102s0.536,0.584,0.955,0.737c0.419,0.154,1,0.23,1.743,0.23
		h3.494V139.954z"/>
	<path fill="#003B7D" d="M134.613,150.882v-12.285h4.609c0.938,0,1.691,0.125,2.258,0.373c0.567,0.249,1.012,0.632,1.333,1.148
		s0.481,1.057,0.481,1.621c0,0.525-0.143,1.02-0.428,1.483c-0.284,0.464-0.715,0.838-1.29,1.123
		c0.743,0.218,1.314,0.589,1.714,1.114s0.599,1.146,0.599,1.86c0,0.575-0.121,1.11-0.364,1.604c-0.243,0.495-0.543,0.876-0.9,1.145
		c-0.358,0.268-0.807,0.471-1.346,0.607s-1.199,0.205-1.981,0.205H134.613z M136.239,143.759h2.656c0.721,0,1.237-0.047,1.551-0.143
		c0.413-0.122,0.725-0.326,0.934-0.611c0.21-0.285,0.314-0.643,0.314-1.072c0-0.408-0.098-0.768-0.293-1.077
		c-0.196-0.311-0.476-0.522-0.838-0.637c-0.363-0.114-0.986-0.172-1.869-0.172h-2.455V143.759z M136.239,149.432h3.059
		c0.525,0,0.894-0.019,1.106-0.059c0.374-0.066,0.687-0.179,0.938-0.335c0.251-0.156,0.458-0.384,0.62-0.683
		s0.243-0.644,0.243-1.035c0-0.458-0.118-0.856-0.353-1.194s-0.56-0.575-0.977-0.712c-0.416-0.137-1.015-0.205-1.797-0.205h-2.841
		V149.432z"/>
	<path fill="#003B7D" d="M156.039,146.574l1.625,0.411c-0.341,1.335-0.954,2.354-1.839,3.055c-0.886,0.701-1.968,1.052-3.247,1.052
		c-1.324,0-2.401-0.27-3.23-0.81c-0.83-0.539-1.461-1.319-1.895-2.342c-0.433-1.022-0.649-2.12-0.649-3.293
		c0-1.279,0.244-2.396,0.733-3.348c0.489-0.953,1.185-1.677,2.087-2.171s1.895-0.741,2.979-0.741c1.229,0,2.263,0.313,3.101,0.938
		s1.422,1.506,1.752,2.64l-1.601,0.377c-0.285-0.894-0.698-1.545-1.24-1.952c-0.542-0.408-1.224-0.612-2.045-0.612
		c-0.944,0-1.733,0.227-2.367,0.679c-0.634,0.453-1.08,1.061-1.337,1.823c-0.257,0.762-0.386,1.549-0.386,2.358
		c0,1.045,0.152,1.957,0.457,2.736s0.778,1.361,1.421,1.747c0.642,0.386,1.338,0.578,2.086,0.578c0.911,0,1.682-0.263,2.313-0.788
		C155.388,148.388,155.815,147.608,156.039,146.574z"/>
	<path fill="#003B7D" d="M161.661,150.882v-12.285h1.626v12.285H161.661z"/>
	<path fill="#003B7D" d="M166.619,150.882l4.752-6.402l-4.19-5.883h1.936l2.229,3.151c0.464,0.653,0.793,1.156,0.988,1.508
		c0.274-0.446,0.599-0.913,0.973-1.399l2.472-3.26h1.769l-4.315,5.791l4.65,6.494h-2.011l-3.093-4.383
		c-0.173-0.251-0.352-0.525-0.536-0.821c-0.273,0.447-0.469,0.754-0.587,0.922l-3.083,4.282H166.619z"/>
</g>
</svg>
