<?xml version="1.0" encoding="utf-8"?>
<!DOCTYPE svg PUBLIC "-//W3C//DTD SVG 1.1//EN" "http://www.w3.org/Graphics/SVG/1.1/DTD/svg11.dtd">
<svg version="1.1" id="Layer_1" xmlns="http://www.w3.org/2000/svg" xmlns:xlink="http://www.w3.org/1999/xlink" x="0px" y="0px" width="216px" height="216px" viewBox="0 0 216 216" enable-background="new 0 0 216 216" xml:space="preserve">
<g>
	<path fill="#001421" d="M0.625,144.277h216V72.86h-216V144.277z"/>
	<path fill="#FCB814" d="M44.423,94.06c3.88,2.515,9.471,10.359,10.973,14.69c-1.501,4.343-7.092,12.168-10.973,14.688V94.06z"/>
	<path fill="#A0A0A0" d="M36.119,99.63c2.027,0,4.617,0.806,6.647,2.258v-8.841c-2.022-1.258-4.487-1.997-7.372-1.997
		c-9.784,0-17.694,7.925-17.694,17.7c0,9.784,7.911,17.678,17.694,17.678c2.885,0,5.35-0.71,7.372-1.975v-8.865
		c-2.031,1.452-4.62,2.282-6.647,2.282c-5.504,0-9.551-4.022-9.551-9.12C26.568,103.627,30.615,99.63,36.119,99.63L36.119,99.63z
		 M167.718,106.382v18.071h6.188v-17.717c0-2.484,2.028-4.473,4.47-4.473h2.858v-5.905l-3.168-0.009
		C172.477,96.408,167.944,100.803,167.718,106.382L167.718,106.382z M195.108,118.528c-2.454,0-4.457-2.025-4.459-4.474v-11.821
		h6.84v-5.909h-6.84v-5.56h-6.218v23.63c0.226,5.587,4.798,9.975,10.361,10.041l3.172-0.008v-5.9H195.108z M120.756,95.799
		c-3.076,0-5.997,1.408-7.917,3.759c-1.911-2.351-4.86-3.759-7.944-3.759c-5.397,0-9.869,4.219-10.16,9.61l-0.002,19.044h6.232
		v-18.271c0-2.555,1.917-4.528,4.368-4.528c2.022,0,4.404,1.37,4.404,5.253v17.545h6.203v-17.563c0-3.601,2.267-5.236,4.376-5.236
		c2.608,0,4.393,1.85,4.393,4.528v18.271h6.204v-19.028C130.598,100.018,126.152,95.799,120.756,95.799L120.756,95.799z
		 M149.146,95.866c-8.032,0-14.334,6.353-14.334,14.504c0,8.509,6.077,14.669,14.447,14.669c3.251,0,6.163-1.206,8.003-3.23v2.642
		h6.201v-13.966C163.464,101.998,157.422,95.866,149.146,95.866L149.146,95.866z M149.229,119.078c-4.652,0-8.417-3.892-8.417-8.619
		c0-4.732,3.765-8.613,8.417-8.613c4.62,0,8.381,3.881,8.381,8.613C157.61,115.519,154.17,119.078,149.229,119.078L149.229,119.078z
		 M80.272,107.644c-6.011-0.697-7.209-1.773-7.209-3.413c0-2.592,3.928-2.93,5.663-2.93c2.97,0,5.908,1.165,8.004,2.962l3.953-3.947
		c-1.58-1.305-5.367-4.459-12.882-4.459c-7.416,0-11.41,4.498-11.41,8.747c0,5.025,3.9,7.892,11.938,8.763
		c3.38,0.371,5.931,0.841,5.931,3.192c0,4.332-10.865,3.897-15.228-0.924l-4.306,4.337c0.406,0.462,5.465,5.12,13.053,5.12
		c9.056,0,13.161-4.437,13.161-8.583C90.94,111.303,87.558,108.484,80.272,107.644L80.272,107.644z M198.443,90.897
		c-0.154-0.31-0.409-0.86-0.663-1.028c0.305-0.081,0.636-0.421,0.636-0.894c0-0.116-0.066-0.935-1.023-0.935h-1.855v0.5h0.47v2.357
		h-0.47v0.505h1.532v-0.505h-0.513v-0.924h0.493c0.429,0.16,0.694,0.674,1.026,1.429h0.788v-0.505L198.443,90.897z M196.558,88.541
		h0.813c0.437,0,0.486,0.296,0.486,0.445c0,0.308-0.274,0.49-0.68,0.49h-0.62V88.541z M197.119,86.536
		c-1.76,0-3.189,1.427-3.189,3.189c0,1.76,1.43,3.187,3.189,3.187c1.759,0,3.187-1.427,3.187-3.187
		C200.306,87.963,198.878,86.536,197.119,86.536z M197.119,92.308c-1.428,0-2.587-1.157-2.587-2.583c0-1.43,1.159-2.589,2.587-2.589
		c1.43,0,2.586,1.159,2.586,2.589C199.705,91.151,198.549,92.308,197.119,92.308z"/>
</g>

</svg>
