<?xml version="1.0" encoding="utf-8"?>
<!DOCTYPE svg PUBLIC "-//W3C//DTD SVG 1.1//EN" "http://www.w3.org/Graphics/SVG/1.1/DTD/svg11.dtd">
<svg version="1.1" id="Layer_1" xmlns="http://www.w3.org/2000/svg" xmlns:xlink="http://www.w3.org/1999/xlink" x="0px" y="0px" width="216px" height="216px" viewBox="0 0 216 216" enable-background="new 0 0 216 216" xml:space="preserve">
<g>
	<path fill="#6E6E6E" d="M136.447,180.746h-0.018c-0.422,0.011-1.902,0.05-3.355,0c-3.699,0-7.691-2.808-7.691-7.344
		c0-4.5,3.911-7.188,7.674-7.187c0.045-0.009,1.881-0.087,3.391-0.002c3.779,0,7.694,2.688,7.694,7.188
		C144.142,177.938,140.148,180.746,136.447,180.746 M140.056,163.38c-5.262-0.118-10.604-0.003-10.65,0
		c-6.426,0-11.65,4.481-11.65,9.991c0,5.592,5.227,10.141,11.655,10.141c0.043,0.002,5.387,0.108,10.649,0
		c6.438,0,11.676-4.549,11.676-10.141C151.732,167.915,146.602,163.526,140.056,163.38 M208.437,183.257
		c0,0,6.301-0.003,6.551-0.003c0-0.256-0.003-9.594-0.003-9.594c0-5.602-4.988-9.995-11.354-9.995l-16.574-0.003
		c-0.271,0-0.9,0.07-0.9,0.731l0.002,18.118c0,0.486,0.351,0.742,0.694,0.742c0,0,6.678,0.003,6.927,0.003
		c0-0.259-0.002-15.157-0.002-15.157c0-0.666,0.5-1.018,0.991-1.018l7.635-0.004c2.112,0,5.235,1.938,5.235,6.091l-0.002,9.322
		C207.637,182.498,207.657,183.257,208.437,183.257 M70.167,167.549c0,0,9.969,0.003,10.225,0.003v-3.122
		c0-0.437-0.314-0.768-0.733-0.768H51.162c-0.464,0-0.743,0.385-0.743,0.757v3.13c0.251,0,6.811,0.003,6.811,0.003
		c2.556,0,4.271,2.204,4.271,4.262v10.698c0,0.353,0.31,0.745,0.751,0.745c0,0,6.66,0.001,6.911,0.001v-14.704
		C69.167,168,69.614,167.549,70.167,167.549 M38.667,182.512c0,0.438,0.396,0.746,0.751,0.746h0.39c0,0-0.029,0.025-0.054,0.048
		c0.197-0.048,0.864-0.048,3.185-0.048c0,0,3.142-0.001,3.382-0.001v-18.85c0-0.402-0.334-0.747-0.733-0.747h-6.17
		c-0.405,0-0.749,0.345-0.749,0.747V182.512z M92.115,172.834v-3.911c0-1.07,0.754-1.817,1.838-1.817h10.168
		c1.541,0,2.845,1.304,2.845,2.843c0,1.59-1.291,2.884-2.877,2.884H92.115V172.834z M106.986,183.26h7.602
		c-0.12-4.707-4.991-6.659-5.553-6.867l-0.097-0.035l0.007-0.268l0.099-0.023c3.258-0.731,5.53-3.239,5.53-6.095
		c0-3.036-2.952-6.313-7.724-6.313l-18.385,0.004c-2.228,0-3.975,1.757-3.975,4v14.848c0,0.43,0.308,0.74,0.733,0.74
		c0,0,6.646,0.007,6.899,0.007c0-0.252-0.004-6.95-0.004-6.95h6.517C104.426,176.307,106.81,180.518,106.986,183.26L106.986,183.26z
		 M27.055,170.235h7.44c-1.611-4.097-6.076-6.908-11.205-7.008l-2.286-0.045c-3.583-0.077-5.22-0.113-8.357,0.045
		c-3.667,0.186-5.974,1.027-8.235,3.008c-2.207,1.937-3.422,4.489-3.424,7.201c0,5.604,4.955,10.001,11.523,10.232
		c4.502,0.16,4.985,0.164,10.891-0.012c5.471-0.166,9.394-2.66,11.087-7.004H27.05c-0.28,0-0.495,0.125-0.638,0.373
		c-1.347,2.334-3.925,3.785-6.725,3.785c-1.53,0.063-3.375,0-3.375,0c-3.781,0-7.694-2.746-7.694-7.341l0.002-0.043
		c0.024-4.568,3.927-7.296,7.709-7.299c0.433-0.017,1.956-0.067,3.353,0.003c2.757,0,5.406,1.471,6.741,3.749
		C26.471,169.96,26.661,170.235,27.055,170.235 M182.057,179.736h-18.014c-0.607,0-1.033-0.405-1.033-0.984v-3.735h15.612v-3.438
		H163.01l-0.007-3.409c0-0.016-0.01-0.382,0.266-0.67c0.206-0.213,0.507-0.321,0.898-0.321h17.887v-2.748
		c0-0.235-0.065-0.418-0.199-0.545c-0.247-0.238-0.654-0.225-0.679-0.223h-25.054c-0.079,0-0.763,0.021-0.763,0.771l0.003,14.838
		c0,1.962,1.498,3.987,4.008,3.987l21.941-0.001c0.182,0,0.369-0.08,0.514-0.216c0.149-0.143,0.233-0.325,0.233-0.514
		C182.059,182.525,182.059,179.977,182.057,179.736 M176.456,156.575c-0.733-0.458-1.614-0.682-2.65-0.682
		c-1.032,0-1.951,0.24-2.653,0.682c-0.699,0.438-1.258,1.027-2.087,1.027c-0.826,0-1.324-0.588-2.069-1.027
		c-0.747-0.441-1.615-0.682-2.649-0.682c-1.035,0-1.916,0.227-2.653,0.682c-0.731,0.446-1.1,0.993-1.1,1.625
		c0,0.639,0.368,1.182,1.1,1.63c0.737,0.452,1.616,0.675,2.653,0.675c1.029,0,1.928-0.218,2.594-0.623
		c0.662-0.407,1.379-1.07,2.125-1.07c0.749,0,1.427,0.596,2.089,1.021c0.666,0.421,1.621,0.672,2.651,0.672
		c1.063,0,1.96-0.223,2.676-0.675c0.718-0.448,1.074-0.991,1.074-1.63C177.554,157.566,177.189,157.021,176.456,156.575
		 M166.762,138.224c-10.922-9.364-43.37-36.011-58.774-36.011c-15.411,0-47.834,26.628-58.763,36
		c-0.065-2.214-0.127-3.559-0.127-5.529c0,0-0.267-3.256,2.612-6.513c23.691-21.466,48.529-31.969,49.292-32.291
		c7.406-3.13,6.99-2.542,6.983-15.105c0,0,0.331-0.021,0.541,0.002c10.43,0.944,38.474,28.161,55.071,46.562
		c0.03,0.031,3.275,3.79,3.275,7.751C166.876,134.946,166.822,136.777,166.762,138.224 M166.315,122.863
		c-1.763-1.956-43.294-47.798-58.328-47.798c-15.03,0-56.563,45.842-58.324,47.796l-0.002,0.002
		c-0.172,0.193-4.226,4.826-4.226,10.229c0,4.205,0.278,8.438,0.283,8.479c0.009,0.195,0.106,1.983,1.1,2.471
		c0.161,0.079,0.335,0.12,0.514,0.12c0.369,0,0.781-0.166,1.227-0.492c0.448-0.396,42.757-37.765,59.429-37.765
		c16.673,0,58.985,37.37,59.407,37.748c0.462,0.339,0.879,0.51,1.252,0.51c0.182,0,0.351-0.041,0.515-0.118
		c0.991-0.484,1.088-2.274,1.098-2.477c0.002-0.031,0.28-4.265,0.28-8.47C170.539,127.689,166.485,123.057,166.315,122.863
		 M166.702,94.623c-10.91-9.354-43.327-35.973-58.713-35.973c-15.395,0-47.787,26.604-58.704,35.964
		c-0.066-2.209-0.127-3.556-0.127-5.523c0,0-0.267-3.252,2.61-6.505c23.668-21.445,48.481-31.937,49.242-32.258
		c7.4-3.128,6.983-2.54,6.977-15.089c0,0,0.328-0.02,0.541,0.002c10.419,0.944,38.436,28.134,55.014,46.515
		c0.03,0.031,3.273,3.784,3.273,7.744C166.818,91.35,166.762,93.179,166.702,94.623 M166.256,79.278
		c-1.763-1.953-43.25-47.75-58.269-47.75c-15.015,0-56.506,45.797-58.265,47.748l-0.002,0.002c-0.171,0.193-4.224,4.822-4.224,10.22
		c0,4.201,0.281,8.43,0.283,8.47c0.009,0.195,0.106,1.981,1.098,2.467c0.161,0.08,0.335,0.118,0.514,0.118
		c0.369,0,0.779-0.165,1.225-0.491c0.451-0.396,42.716-37.727,59.372-37.727c16.658,0,58.926,37.331,59.349,37.709
		c0.46,0.339,0.877,0.507,1.25,0.507c0.181,0,0.351-0.039,0.514-0.118c0.989-0.484,1.089-2.272,1.096-2.474
		c0.003-0.032,0.28-4.26,0.28-8.461C170.479,84.1,166.429,79.471,166.256,79.278"/>
</g>

</svg>
