<?xml version="1.0" encoding="utf-8"?>
<!DOCTYPE svg PUBLIC "-//W3C//DTD SVG 1.1//EN" "http://www.w3.org/Graphics/SVG/1.1/DTD/svg11.dtd">
<svg version="1.1" id="SvgjsSvg1015" xmlns:svgjs="http://svgjs.com/svgjs"
	 xmlns="http://www.w3.org/2000/svg" xmlns:xlink="http://www.w3.org/1999/xlink" x="0px" y="0px" width="216px" height="216px"	 viewBox="-95 -95 216 216" enable-background="new -95 -95 216 216" xml:space="preserve">
<title>Fill 1</title>
<desc>Created with Avocode.</desc>
<g>
	<path id="SvgjsPath1017" fill="#CA1B24" d="M13.165-94C71.934-94,120-45.769,120,12.916C120,72.175,71.934,120,13.165,120
		C-45.769,120-94,72.175-94,12.916C-94-45.769-45.769-94,13.165-94"/>
	<path id="SvgjsPath1018" fill="#FFFFFF" d="M45.345-9.47h10.288v1.318h-1.069c-1.31,0-2.708,1.479-2.708,3.126v31.85
		c0,1.647,1.398,3.055,2.708,3.055h1.069v1.061H41.566V29.88h0.98c1.318,0,2.798-1.407,2.798-3.055V-2.557L30.121,31.278h-0.82
		L14.483-3.297v30.122c0,1.647,1.398,3.055,2.712,3.055h1.077v1.061H7.896V29.88h0.989c1.483,0,2.797-1.407,2.797-3.055v-31.85
		c0-1.563-0.904-3.126-3.126-3.046c-1.644,0-3.702,1.729-4.774,4.116l-14.32,31.52c-1.238,2.637-3.126,3.457-5.434,3.457
		l-3.291-0.081c0,0-0.744-4.276-0.659-4.276c1.483,1.158,2.552,1.729,3.046,1.897c1.809,0.98,2.962-0.169,3.537-1.398l1.813-4.035
		L-24.368-3.546c-1.483-2.797-2.552-4.276-4.609-4.605V-9.47h12.84v1.318h-1.069c-1.069,0-1.483,1.563-0.744,3.126l9.798,20.742
		L0.983-4.366c0.989-1.977,0.245-3.541-1.318-3.706V-9.47h18.607l13.576,30.042L44.195-7.002L45.345-9.47z M-69.308-9.47h39.012
		v1.318h-0.984c-1.483,0-2.801,1.479-2.801,3.126v31.85c0,1.647,1.318,3.055,2.801,3.055h0.984v1.061h-14.235V29.88h1.149
		c1.318,0,2.717-1.407,2.717-3.055V-6.588h-18.354l0.084,1.563v31.85c0,1.647,1.398,3.055,2.712,3.055h1.073v1.061h-14.159V29.88
		h0.989c1.479,0,2.797-1.407,2.797-3.055v-31.85c0-1.647-1.318-3.126-2.797-3.126h-0.989V-9.47z M68.478,6.333h1.64
		c0-3.786,0.659-7.572,2.146-9.549c2.058-2.797,4.444-3.786,7.161-3.786c9.051,0,11.688,11.357,11.688,18.604
		c0,4.115-0.989,11.446-4.774,14.404c-4.445,3.874-9.959,1.479-13.424-2.299c-4.115-4.952-6.575-12.105-7.571-18.692
		c-1.479-10.698,1.318-25.267,15.151-24.443h3.866c4.115,0,6.752-0.824,9.22-2.138c2.138-1.318,3.456-3.46,3.785-6.587h-0.988
		c-0.33,1.069-1.398,1.813-2.468,2.142c-1.318,0.33-3.786,0.655-7.242,0.33h-5.522c-6.494,0-11.349,2.468-14.806,7.572
		c-3.456,5.185-5.111,11.768-5.111,22.795c0,8.974,1.655,15.887,5.111,20.002c3.457,4.444,8.312,6.591,14.155,6.591
		c11.438,0,18.27-10.377,18.27-21.405c0-11.112-6.832-20.002-17.94-20.002C71.436-9.799,67.32-2.557,68.478,6.333z"/>
</g>
</svg>
