<?xml version="1.0" encoding="utf-8"?>
<!DOCTYPE svg PUBLIC "-//W3C//DTD SVG 1.1//EN" "http://www.w3.org/Graphics/SVG/1.1/DTD/svg11.dtd">
<svg version="1.1" id="Layer_1" xmlns="http://www.w3.org/2000/svg" xmlns:xlink="http://www.w3.org/1999/xlink" x="0px" y="0px" width="216px" height="216px" viewBox="0 0 216 216" enable-background="new 0 0 216 216" xml:space="preserve">
<g id="XMLID_1_">
	<g>
		<rect fill="#FFFFFF" width="216" height="216"/>
	</g>
	<g>
	</g>
</g>
<g>
	<g>
		<polygon fill="#005A9C" points="119.991,140.594 87.633,140.594 87.633,147.785 103.254,147.785 87.085,162.893 87.085,168.919 
			119.938,168.919 119.938,161.697 103.591,161.697 119.991,146.629 		"/>
		<path fill="#005A9C" d="M68.581,169.642c12.941,0,16.271-3.303,16.271-10.589v-18.459H74.585v17.354
			c0,2.916-2.496,4.652-6.005,4.652c-3.639,0-5.98-1.743-5.98-4.697v-17.31H52.336v18.459
			C52.336,166.339,55.66,169.642,68.581,169.642"/>
		<path fill="#005A9C" d="M138.759,169.642c12.941,0,16.271-3.303,16.271-10.589v-18.459h-10.267v17.354
			c0,2.916-2.496,4.652-6.004,4.652c-3.64,0-5.98-1.743-5.98-4.697v-17.31h-10.264v18.459
			C122.515,166.339,125.839,169.642,138.759,169.642"/>
		<rect x="195.5" y="140.593" fill="#005A9C" width="10.682" height="28.325"/>
		<polygon fill="#005A9C" points="193.888,140.594 179.798,140.594 168.442,150.366 168.442,140.594 157.733,140.594 
			157.733,168.919 168.442,168.919 168.442,158.874 178.994,168.919 193.368,168.919 177.719,154.386 		"/>
		<path fill="#005A9C" d="M27.07,148.424c0-2.189,3.249-2.263,4.34-2.263c1.121,0,3.589,0.439,5.25,3.194h12.086
			c0-5.33-5.042-9.577-17.285-9.577c-13.619,0-15.93,5.968-15.93,9.395c0,6.32,4.91,8.171,15.54,9.304
			c0.913,0.096,6.449-0.163,6.449,2.498c0,1.976-3.122,2.105-4.236,2.105c-1.146,0-3.276-0.188-5.044-3.317H14.932
			c0,6.215,4.184,9.813,18.327,9.813c12.996,0,16.45-5.31,16.45-9.352c0-3.92-2.674-7.907-13.775-9.326
			C31.309,150.298,27.07,150.044,27.07,148.424"/>
	</g>
	<path fill="#ED1C2E" d="M152.897,100.52c0,0-7.927,2.298-23.288,11.738c-13.801,8.484-19.208,14.182-19.208,14.182L67.903,97.065
		c0,0,17.884-13.152,32.828-3.077l20.042,13.749l2.442-1.611L67.903,67.382c0,0,7.954-2.297,23.318-11.74
		c13.799-8.483,19.181-14.185,19.181-14.185l42.521,29.377c0,0-17.882,13.154-32.827,3.078l-20.04-13.748l-2.442,1.603
		L152.897,100.52"/>
</g>
</svg>
