<?xml version="1.0" encoding="utf-8"?>
<!DOCTYPE svg PUBLIC "-//W3C//DTD SVG 1.1//EN" "http://www.w3.org/Graphics/SVG/1.1/DTD/svg11.dtd">
<svg version="1.1" xmlns="http://www.w3.org/2000/svg" xmlns:xlink="http://www.w3.org/1999/xlink" x="0px" y="0px" width="216px" height="216px" viewBox="0 0 216 216" enable-background="new 0 0 216 216" xml:space="preserve">
<g>
	<path fill="#D11242" d="M40.228,128.162h4.782c0.994-0.094,2.035,0.284,2.84,0.994c0.474,0.477,0.757,1.09,0.663,1.753
		c0,1.09-0.568,1.941-1.563,2.319c1.279,0.189,2.131,1.375,2.131,2.605c0,1.938-1.563,2.934-3.977,2.934h-4.971L40.228,128.162z
		 M46.62,131.193c0-0.852-0.663-1.374-1.846-1.374h-2.605v2.843h2.51C45.862,132.662,46.62,132.139,46.62,131.193z M44.962,134.177
		h-2.935v2.934h3.22c1.278,0,2.035-0.472,2.035-1.466C47.236,134.79,46.525,134.272,44.962,134.177z M73.181,128.162h2.035
		l2.51,7.86l2.604-7.86h1.563l2.604,7.86l2.51-7.86h1.94l-3.693,10.701h-1.562l-2.604-7.67l-2.604,7.67h-1.563L73.181,128.162z
		 M97.137,134.697l-4.262-6.535h2.226l3.03,4.784l3.03-4.784h2.131l-4.261,6.441v4.26h-1.942v-4.166H97.137z M56.562,134.697
		l-4.261-6.535h2.226l3.029,4.784l3.031-4.784h2.129l-4.26,6.441v4.26h-1.941v-4.166H56.562z M108.026,128.162h1.751l5.729,7.387
		v-7.387h1.849v10.701h-1.564l-5.823-7.574v7.574h-1.847L108.026,128.162z M123.367,128.162h3.977
		c2.937-0.187,5.443,2.037,5.635,4.971v0.381c0,2.934-2.416,5.35-5.35,5.35h-0.381h-3.977v-10.701H123.367z M125.213,129.819v7.291
		h2.131c1.942,0.096,3.6-1.276,3.692-3.219v-0.378c0.094-1.942-1.468-3.599-3.407-3.599h-0.381L125.213,129.819z M137.758,128.162
		h1.849v4.5h5.16v-4.5h1.847v10.701h-1.942v-4.498h-5.064v4.498h-1.941L137.758,128.162z M155.468,128.162h1.844l4.689,10.701
		h-1.942l-1.09-2.603h-5.064l-1.088,2.603h-1.941L155.468,128.162z M158.213,134.604l-1.847-4.168l-1.846,4.262L158.213,134.604z
		 M166.26,128.162h2.038l3.218,5.066l3.222-5.066h2.035v10.701h-1.847v-7.67l-3.41,5.067l-3.313-5.067v7.574h-1.847L166.26,128.162z
		 M213.086,86.547c1.374,0,2.415,1.089,2.415,2.415s-1.09,2.414-2.415,2.414c-1.373,0-2.416-1.088-2.416-2.414
		S211.713,86.547,213.086,86.547z M213.086,86.925c-1.184,0-2.035,0.853-2.131,1.942c-0.094,1.089,0.854,2.035,1.941,2.131
		c1.184,0,2.035-0.853,2.131-1.942v-0.094C215.027,87.778,214.223,86.925,213.086,86.925z M212.472,90.335h-0.38v-2.842h1.09
		c0.662,0,0.994,0.285,0.994,0.757c0,0.379-0.285,0.759-0.663,0.759l0.756,1.278h-0.471l-0.759-1.184h-0.381L212.472,90.335z
		 M212.472,88.678h0.472c0.474,0,0.663-0.096,0.663-0.474c0-0.379-0.094-0.379-0.567-0.379h-0.567V88.678z M50.502,86.547
		l12.546,30.728h-5.16l-3.692-9.139H43.021l-3.788,9.139h-4.972l12.831-30.728H50.502z M48.656,94.122l-3.977,9.848h7.859
		L48.656,94.122z M103.149,87.115l3.504,30.159h-4.971l-2.037-19.933l-9.137,19.933h-3.03l-9.043-19.459l-2.131,19.459h-4.687
		l3.692-30.159h3.41l10.605,22.771l10.415-22.771H103.149z M127.96,86.547l-12.738,30.728h5.067l3.787-9.233h11.176l3.691,9.233
		h5.257l-12.644-30.728H127.96z M133.403,103.923h-7.858l3.977-9.848L133.403,103.923z M161.905,87.021
		c-1.088,0-3.219,0-5.539,0.189l-2.319,0.095v29.781h0.474c2.509,0.189,4.166,0.285,6.437,0.285
		c3.506,0.093,7.009-0.381,10.419-1.471c5.158-1.939,8.664-7.384,8.664-13.633c0.093-4.167-1.564-8.191-4.5-11.08
		C172.321,88.487,167.73,87.021,161.905,87.021z M158.969,112.776V91.375h1.941c2.748-0.094,5.445,0.474,7.954,1.563
		c3.692,1.94,5.919,5.729,5.73,9.942c0.096,2.604-0.853,5.16-2.509,7.103c-1.942,2.224-4.782,3.218-9.519,3.218
		C161.434,113.201,160.248,113.108,158.969,112.776L158.969,112.776z M199.451,86.547l-12.736,30.728h5.064l3.694-9.233h11.173
		l3.692,9.233h5.162L202.86,86.547H199.451z M204.896,103.923h-7.765l3.978-9.848L204.896,103.923z M18.307,98.809l11.173,16.904
		l-5.065,2.32l-12.641-19.65l0.994-2.131h0.189c4.687-0.568,7.669-3.503,7.669-7.48c0-4.356-2.32-6.439-7.858-6.439
		c-1.185,0-4.688,0.094-5.73,0.094v34.705H1.5V78.404h0.284c0.094,0,9.137-0.285,10.984-0.285c3.598,0,13.303,0,13.303,10.131
		C26.12,95.4,20.295,97.91,18.307,98.809z"/>
</g>
</svg>
