<?xml version="1.0" encoding="utf-8"?>
<!DOCTYPE svg PUBLIC "-//W3C//DTD SVG 1.1//EN" "http://www.w3.org/Graphics/SVG/1.1/DTD/svg11.dtd">
<svg version="1.1" id="Layer_1" xmlns="http://www.w3.org/2000/svg" xmlns:xlink="http://www.w3.org/1999/xlink" x="0px" y="0px" width="216px" height="216px" viewBox="0 0 216 216" enable-background="new 0 0 216 216" xml:space="preserve">
<g>
	<path fill="#FFFFFF" d="M0.122,0.122h216v216h-216V0.122z"/>
	<path fill="#0C0E0F" d="M82.491,79.983c0,0-2.858-3.572-2.381,0.715c0,0,0.476,9.051-0.954,20.247l-0.715-1.429
		c0,0-2.62-3.335-5.717-2.381c0,0-3.572,1.19-5.717,6.669c0,0-1.667,4.049-1.19,6.908c0,0,0,7.623,9.29,2.145
		c0,0,0.952-0.478,2.144-1.667c-0.238,0.952-0.715,1.667-0.715,2.619c0,0-0.239,1.906,0.715,2.382c0.237,0.238,0.715,0,1.429-1.904
		c0,0,6.67-17.15,6.907-24.059C85.587,90.225,87.969,86.653,82.491,79.983L82.491,79.983z M71.058,110.711
		c0,0-0.715-0.476-0.715-2.381c0,0,0.237-3.574,2.62-6.432c0,0,0.715-0.953,1.19-0.953c0.238-0.238,0.476,0,0.715,1.191
		c0,0.238-0.715,0.238-0.477,1.19c0,0,1.429,3.334,4.049,1.906c-0.238,0.477-0.238,1.191-0.476,1.906
		C76.536,109.042,73.677,112.617,71.058,110.711L71.058,110.711z"/>
	<path fill="#3459A1" d="M31.754,129.527c0.478-0.238,0.715-0.714,1.906-1.189c0,0,45.02-15.245,104.809-12.149
		c0,0,3.334-0.237,2.381,1.429c-0.477,0.716-1.667,0.954-3.573,0.954h-3.098c0,0,6.194,2.382-18.102,1.904
		c0,0,2.145,2.145-6.669,1.667c0,0-24.772-1.189-74.794,7.862C34.613,130.005,30.801,130.957,31.754,129.527L31.754,129.527z"/>
	<path fill="#0C0E0F" d="M105.596,96.895c-1.667-3.096-2.62-0.477-2.62-0.477c-0.953,2.859-7.146,9.766-8.337,10.958
		c-5.24,4.524-3.335,1.666-3.811-0.238c0,0,0.237-3.811,1.19-4.526c0,0,0.476,0.238,0.954-1.905c0,0,1.19-3.097-2.144-3.572
		c0,0-2.144-1.429-3.097,2.858c0,0-2.144,8.337,0.476,12.147c0,0,1.43,2.62,8.575-4.288h-0.238c2.62-2.381,6.192-6.669,6.192-6.669
		c4.05,7.146-1.905,9.053-1.905,9.053c-2.382,1.429,0,1.665,0,1.665c9.053,0.239,9.766-5.239,9.766-5.239
		C110.837,102.611,105.596,96.895,105.596,96.895L105.596,96.895z M97.498,88.32c0.237-1.19-0.715-2.381-1.906-2.62
		c-1.191-0.237-2.144,0.715-2.382,2.145c0,0.476,0,0.952-0.238,1.666c0,0.478-0.476,2.382,0,2.621c0.715,0,2.382-1.191,3.335-1.667
		C97.021,89.988,97.498,89.272,97.498,88.32L97.498,88.32z M135.61,95.942c0,0-6.433,9.29-6.433,12.625c0,0-0.238,2.859,3.098,2.621
		c0,0,3.336-0.239,5.717-2.146c0,0,1.429-1.429,2.382-1.666c0,0,2.145,0.237,1.429-2.62c0,0-0.714-3.335-1.429-4.526
		c0,0-0.953-1.429-1.668-0.953c0,0-0.952,0.477-0.714,1.905c0,0,0,0.238,0.478,1.429c0,0,0.952,3.097,0.476,3.097
		c0,0-0.476,0.237-0.714,0.476l-0.955,0.954c0,0-2.858,1.905-2.381-0.954c0,0,0.477-1.667,0.952-2.62c0,0,1.667-4.526,3.336-6.909
		c0,0,1.667-2.144-0.478-1.906h-0.475C138.23,94.751,137.04,93.799,135.61,95.942L135.61,95.942z M122.271,99.992
		c-1.19-0.715-2.384-3.335-1.429-4.526c0.476-0.715,1.19-1.19,1.19-1.905c-0.239-1.667-3.336,0-3.811,2.144
		c-1.189,3.096-4.525,5.002-4.525,5.002c-0.478,0.477-0.478,1.667-0.478,1.667c-0.239,2.381,1.189,0.715,1.189,0.715
		c2.146-1.667,3.574-2.858,3.574-2.858c3.81,7.383-2.146,9.29-2.146,9.29c-0.714,0.239-0.952,0.478-0.952,0.952
		c0,0.717,1.19,0.717,1.19,0.717c9.052,0.238,9.766-5.241,9.766-5.241C126.319,103.326,123.699,100.945,122.271,99.992
		L122.271,99.992z M63.197,110.948c-0.238-0.238-1.429,0.238-2.62,0.952c-0.238,0.239-0.476,0.239-0.715,0.478
		c-0.238,0.239-0.715,0.478-0.953,0.478c0,0-0.715,0.714-0.715-0.716c0-0.239,0-0.714,0.239-1.19c0,0,0.954-4.05,1.429-5.24
		c0,0,0.239-1.191,0.715-2.62c0,0,1.667-1.667-1.667-2.381c0,0-1.429-3.812-3.335,2.144c0-0.477-0.476-1.429-1.429-1.906
		c-0.239,0-0.476-0.237-0.715-0.237h-0.715c0,0-1.429-0.477-3.096,1.667c-1.906,1.906-7.146,8.336-5.955,13.579
		c0,0,0.715,2.858,3.098,2.858c0,0,3.096,0,5.717-2.384c0,0,0.715-0.714,1.429-1.667c0,0.478,0,0.716,0.238,1.192
		c0,0,0,0.714,0.477,1.189c0.476,0.239,0.953,0.714,1.906,0.476h0.476c0,0,3.335-0.952,3.335-2.381
		c-0.238-0.714,0.237-0.714,0.237-0.714v-0.478C60.577,114.046,63.435,112.14,63.197,110.948L63.197,110.948z M53.431,113.093
		c-0.238,0.476-0.476,0.953-1.191,1.429c0,0-3.811,2.382-3.811-0.954c0,0,0.239-1.904,0.954-3.573c0,0,1.667-4.288,4.288-6.908
		c0.237-0.237,0.476-0.237,0.476,0c0.476,0.477,0.476,1.191,0.715,1.667c0.239,0,0.239,0.239,0.239,0.239
		c-0.239,1.667-0.954,4.764-1.191,7.145C53.907,112.378,53.669,112.855,53.431,113.093L53.431,113.093z M27.467,95.228
		c-0.238-0.238-0.953,0-2.144,2.144c0,0-11.433,19.056-13.577,28.107c0,0-2.62,6.193,0.714,8.575c0,0,0.715,1.19,1.667,1.429
		c0.237,1.19,0.715,2.381,1.667,2.145c0.477-0.238,0.477-1.431,0.477-2.383c0-0.953,0-1.668,0.237-2.382v-0.716
		c0,0,0.238-0.239,0.238-0.714c1.191-4.287,6.193-24.297,10.481-32.634C27.228,98.801,28.182,96.656,27.467,95.228L27.467,95.228z"
		/>
	<path fill="#0C0E0F" d="M44.617,127.385c0,0-9.766-14.53-10.719-17.865c0,0-0.477-1.19-1.19-1.667c0.715,0,1.429,0,2.144-0.238
		c0,0,5.241,0,7.384-4.048c0.715-0.954,1.667-4.764-2.621-9.528c0,0-5.717-6.67-18.34-7.623c0,0-3.573-1.667-10.005,3.811
		c0,0-2.62,2.144-1.191,2.62h1.667c0,0,10.718-3.572,23.819,4.049c0,0,5.241,3.335,2.144,6.431c0,0-1.429,1.429-4.764,2.144
		c0,0-0.714,0-2.144,0.239h-1.906c0,0-1.429,0-1.429,0.476c0,0.239,0.239,0.239,0.954,0.715c-1.429,0.239-1.906,0.239-2.381,0.715
		c0,0-0.239,0.238,0,0.715c0.953,2.381,5.001,12.385,14.529,20.485c0,0,5.479,4.288,6.67,3.096
		C47.713,131.674,46.285,130.005,44.617,127.385z M164.194,109.042c-1.668-0.953-5.718-9.527-5.718-9.527
		c-0.954-1.429-2.622,0.477-2.622,0.477c-1.189,0.715-2.858,3.572-3.572,5.24c-1.19,1.906-0.952-0.476-0.952-0.476
		c0.236-0.715,0.475-1.905,1.189-2.381c0,0,0.476,0.476,1.19-1.667c0,0,1.19-2.859-1.906-3.572c0,0-2.143-1.667-3.572,2.62
		c0,0-1.906,6.193-1.19,10.004c0,0,0.476,4.526,4.287,0.953c0.476-0.239,0.714-0.953,1.19-1.429c0.714-1.19,0.952-1.668,1.668-2.858
		c0.952-2.382,2.381-4.287,2.858-4.526c-0.239,2.382,2.62,9.291,2.62,9.291c1.189,3.572,2.858,3.336,2.858,3.336
		C171.102,114.759,164.194,109.042,164.194,109.042L164.194,109.042z"/>
	<path fill="#3459A1" d="M144.898,116.427c1.906,0.238,3.811,0.238,6.669,0.478c1.429,0.238,3.813,0.238,4.051,1.189
		c0.476,0.953-0.716,1.668-2.622,2.146c-1.19,0.236-1.665,0.475-2.62,0.236c-1.19,0-3.334,0.238-3.572-1.19
		c0-0.714-1.429-0.714-2.384-0.714c-2.143,0-1.903-0.716-1.429-1.429C143.231,116.904,143.709,116.427,144.898,116.427
		L144.898,116.427z"/>
	<path fill="#0C0E0F" d="M108.692,129.767h-0.953v3.097h-4.049v-3.097h-0.953v7.146h0.953v-3.096h4.049v3.096h0.953V129.767z
		 M110.837,133.341c0,1.904,1.668,3.572,3.811,3.572c2.62,0,4.049-1.667,4.049-3.572c0-2.145-1.666-3.813-3.811-3.813
		C112.505,129.527,110.837,131.435,110.837,133.341z M112.027,133.341c0-1.667,1.19-2.86,2.858-2.86c1.429,0,2.62,1.191,2.62,2.86
		c0,1.665-1.19,2.62-2.62,2.62C113.219,135.961,112.027,135.006,112.027,133.341z M125.604,129.767h-6.192v0.952h2.62v6.193h0.952
		v-6.193h2.62V129.767L125.604,129.767z M131.56,129.767h-4.049v7.146h4.049v-0.951h-3.096v-2.145h2.858v-0.953h-2.858v-2.145h3.096
		V129.767z M134.656,129.767h-0.952v7.146h4.287v-0.951h-3.335V129.767z M143.231,130.243c-0.476-0.477-1.19-0.716-1.668-0.716
		c-1.429,0-2.143,0.953-2.143,1.906c0,2.143,3.098,2.143,3.098,3.811c0,0.238-0.478,0.952-1.19,0.952
		c-0.716,0-1.429-0.476-1.906-1.19v1.429c0.478,0.478,1.19,0.478,1.906,0.478c1.19,0,2.143-0.716,2.143-1.906
		c0-2.143-3.097-2.143-3.097-3.572c0-0.478,0.477-0.955,1.189-0.955c0.478,0,0.955,0.239,1.668,0.717V130.243L143.231,130.243z
		 M153.712,133.341c-0.238,0.476-0.478,0.952-0.952,1.19l-0.955-1.19c0.955-0.716,1.429-1.192,1.429-1.906
		c0-0.954-0.714-1.667-1.903-1.667c-0.955,0-1.668,0.714-1.668,1.667c0,0.714,0.238,1.19,0.714,1.668
		c-0.952,0.714-1.667,1.429-1.667,2.143c0,0.952,0.716,1.667,1.905,1.667c0.478,0,1.19-0.238,2.146-0.952l0.952,0.952h1.19
		l-1.429-1.667c0.478-0.714,0.952-1.429,1.189-1.904H153.712L153.712,133.341z M152.045,135.245
		c-0.478,0.477-0.953,0.716-1.429,0.716c-0.477,0-0.953-0.239-0.953-0.716c0-0.478,0.476-0.953,1.429-1.429L152.045,135.245z
		 M150.616,131.435c0-0.478,0.238-0.716,0.716-0.716c0.475,0,0.952,0.238,0.952,0.716c0,0.476-0.238,0.714-0.952,1.19
		C150.886,132.397,150.607,131.936,150.616,131.435z M160.382,129.767v7.146h1.19v-3.098h0.238c0.716,0,0.955,0.239,1.906,1.668
		l0.952,1.429h1.429c-0.714-0.716-0.714-0.952-1.189-1.429c-0.478-0.952-0.953-1.429-1.429-1.906
		c0.716-0.475,1.189-0.952,1.189-1.904c0-1.191-0.952-1.905-2.381-1.905H160.382L160.382,129.767z M161.572,130.719h0.477
		c1.19,0,1.429,0.238,1.429,0.955c0,0.714-0.238,1.189-1.429,1.189h-0.477V130.719L161.572,130.719z M171.815,129.767h-4.049v7.146
		h4.049v-0.951h-3.098v-2.145h3.098v-0.953h-3.098v-2.145h3.098V129.767L171.815,129.767z M177.295,130.243
		c-0.478-0.477-0.955-0.716-1.668-0.716c-1.191,0-2.145,0.953-2.145,1.906c0,2.143,3.098,2.143,3.098,3.811
		c0,0.238-0.239,0.952-1.19,0.952c-0.716,0-1.189-0.476-1.906-1.19v1.429c0.717,0.478,1.429,0.478,2.146,0.478
		c1.189,0,1.903-0.716,1.903-1.906c0-2.143-3.097-2.143-3.097-3.572c0-0.478,0.477-0.955,1.191-0.955
		c0.476,0,1.19,0.239,1.668,0.717V130.243L177.295,130.243z M179.438,133.341c0,1.904,1.429,3.572,3.81,3.572
		c2.384,0,3.813-1.667,3.813-3.572c0-2.145-1.429-3.813-3.813-3.813C180.867,129.527,179.438,131.435,179.438,133.341z
		 M180.39,133.341c0-1.667,1.192-2.86,2.858-2.86c1.668,0,2.859,1.191,2.859,2.86c0,1.665-1.19,2.62-2.859,2.62
		C181.583,135.961,180.39,135.006,180.39,133.341z M189.203,129.767v7.146h1.19v-3.098h0.478c0.477,0,0.952,0.239,1.906,1.668
		l0.952,1.429h1.189c-0.475-0.716-0.713-0.952-0.952-1.429c-0.716-0.952-0.955-1.429-1.667-1.906
		c0.714-0.475,1.189-0.952,1.189-1.904c0-1.191-0.952-1.905-2.381-1.905H189.203L189.203,129.767z M190.395,130.719h0.716
		c0.953,0,1.19,0.238,1.19,0.955c0,0.714-0.239,1.189-1.19,1.189h-0.716V130.719L190.395,130.719z M201.114,129.767h-6.193v0.952
		h2.619v6.193h0.954v-6.193h2.62V129.767z M206.354,130.243c-0.475-0.477-0.952-0.716-1.667-0.716c-1.19,0-2.143,0.953-2.143,1.906
		c0,2.143,3.098,2.143,3.098,3.811c0,0.238-0.239,0.952-1.19,0.952c-0.716,0-1.429-0.476-1.906-1.19v1.429
		c0.714,0.478,1.19,0.478,2.143,0.478c1.192,0,1.906-0.716,1.906-1.906c0-2.143-3.098-2.143-3.098-3.572
		c0-0.478,0.478-0.955,1.19-0.955c0.478,0,0.955,0.239,1.667,0.717V130.243L206.354,130.243z"/>
	<path fill="#3459A1" d="M171.34,119.285c0,0.478,0.476,0.955,1.19,0.955h33.109c0.476,0,0.953-0.478,0.953-0.955V85.938
		c0-0.477-0.478-0.953-0.953-0.953H172.53c-0.716,0-1.19,0.476-1.19,1.19V119.285z"/>
	<path fill="#FFFFFF" d="M193.492,101.421h-3.098l-8.336,10.243v0.236h1.429l1.667-2.381h3.098l-0.478,2.145
		c0,0,0,0.236,0.239,0.236h3.573L193.492,101.421C193.492,101.421,193.729,101.421,193.492,101.421L193.492,101.421z
		 M188.49,108.328h-2.383l3.097-3.811L188.49,108.328L188.49,108.328z M174.198,110.472c0,0.239,0,0.239,0.237,0.478
		c0.477,0.239,1.667,1.19,3.573,1.19c3.573,0,4.765-2.382,4.287-4.288c0-0.476-0.714-3.335-0.714-3.572
		c-0.238-1.191,0.236-1.906,1.19-1.906c0.952,0,1.429,0.237,1.903,0.715h0.239c0-0.238,0.238-0.953,0.238-0.953s0-0.238-0.238-0.238
		c-0.239-0.238-1.19-0.715-2.858-0.715c-3.098,0-4.526,2.144-3.811,4.288c0,0.715,0.714,3.336,0.714,3.812
		c0,0.238,0.239,1.667-1.429,1.667c-1.429,0-2.62-1.19-2.858-1.429c0-0.238-0.239,0-0.239,0L174.198,110.472L174.198,110.472z
		 M192.778,110.711c0,0,0,0.238,0.236,0.238c0.478,0.478,1.667,1.19,3.573,1.19c3.573,0,4.765-2.382,4.287-4.288
		c0-0.476-0.714-3.335-0.714-3.572c-0.238-1.191,0.237-1.906,1.19-1.906c0.952,0,1.429,0.237,1.904,0.715h0.238
		c0-0.238,0.238-0.953,0.238-0.953s0-0.238-0.238-0.238c-0.238-0.238-1.19-0.715-2.858-0.715c-3.098,0-4.526,2.144-3.811,4.288
		c0,0.715,0.714,3.336,0.714,3.812c0,0.238,0.239,1.667-1.429,1.667c-1.429,0-2.381-1.19-2.858-1.429h-0.238L192.778,110.711
		L192.778,110.711z"/>
</g>

</svg>
