<?xml version="1.0" encoding="utf-8"?>
<!DOCTYPE svg PUBLIC "-//W3C//DTD SVG 1.1//EN" "http://www.w3.org/Graphics/SVG/1.1/DTD/svg11.dtd">
<svg version="1.1" id="Layer_1" xmlns="http://www.w3.org/2000/svg" xmlns:xlink="http://www.w3.org/1999/xlink" x="0px" y="0px" width="216px" height="216px" viewBox="0 0 216 216" enable-background="new 0 0 216 216" xml:space="preserve">
<g>
	<path fill="#FFFFFF" fill-opacity="0" d="M0.122,0.122h216v216h-216V0.122z"/>
	<path d="M44.028,107.909h-1.285c-2.287,0-4.145,1.713-4.145,4c0,1.858,0.571,4.001,3.002,4.001c2.144,0,2.572-1.713,2.572-3.43
		v-4.288C44.17,108.193,44.313,107.909,44.028,107.909L44.028,107.909z M109.149,128.773h-4.501
		c-3.231-0.386-6.029-1.619-6.029-4.574c0-2.143,2.428-3.714,4.431-4.001c0,0,0.572-0.142,0-0.142
		c-0.715-0.145-4.573-0.43-5.859-0.145c0,0-0.286,0-0.429-0.285c-0.143-0.287-0.857-2.287-1.001-2.43
		c-0.142-0.286,0.143-0.429,0.143-0.429c2.858-0.43,5.43-1.858,6.573-2.287c0.715-0.143,0-0.284,0-0.284
		c-4-0.717-8.003-3.431-8.003-8.147c0-6.717,5.574-9.718,10.861-9.718c2.43,0,3.858,0.429,5.145,0.571c0,0,0.143,0.144,0.287-0.142
		c0-0.429,0.427-1.572,0.427-1.572c0.574-1.714,1.429-2.43,4.003-2.43c0.571,0,1.143,0,1.571,0.144c0,0,0.286-0.144,0.286,0.286
		c-0.145,0.143-1.003,3.573-1.003,3.715c-0.142,0.429-0.284,0.144-0.284,0.144c-0.43-0.286-0.571-0.429-1.571-0.286
		c-0.573,0-0.858,0.428-0.858,1c0,1,4.572,2.43,4.572,7.86c0,7.288-6.717,8.859-12.575,10.289c0,0-0.572,0.143,0,0.143
		c3.858,0.429,11.861,1.429,11.861,6.432C117.197,126.698,112.498,128.322,109.149,128.773L109.149,128.773z M53.174,117.197h1.143
		c0.286,0,0.286,0.285,0.286,0.285v2.287c0,0.429-0.428,0.287-0.428,0.287h-9.146c0,0-0.143,0-0.143-0.287
		c-0.143-0.571-0.428-1.143-0.428-1.571c-0.143-0.571-0.429,0-0.429,0c-1.858,1.429-4.001,2.572-6.573,2.572
		c-4.288,0-7.574-2.715-7.574-7.146c0-5.43,3.43-8.43,7.717-8.43l6.574-0.286v-0.285v-0.715c0-1.858-1.001-2.715-3.145-2.715
		c-2.715,0-4,1.001-5.287,2.572c0,0,0,0.143-0.286,0.143c-0.286-0.143-2.572-1.001-2.572-1.001s-0.286,0-0.142-0.286
		s3.001-7.145,3.001-7.145s0-0.286,0.142-0.142c0.428,0.142,2.144,0.715,2.572,0.715c0.286,0.143,0.143,0.428,0.143,0.428
		l-0.286,0.571c-0.142,0.572,0.143,0.286,0.143,0.286c1.858-0.715,3.716-1,5.574-1c5.43,0,9.004,2.287,9.004,7.86v12.576
		C53.031,116.769,53.031,117.197,53.174,117.197L53.174,117.197z M53.746,98.047c3.715-1,6.859-3.43,8.431-6.86
		c0,0,0-0.142,0.286-0.142c0.286,0,2.144,0.429,2.43,0.429c0.286,0.142,0.142,0.286,0.142,0.286
		c-0.142,1.144-0.286,2.429-0.286,3.43v1.714c0,0.286,0.286,0.144,0.286,0.144h3.858c0.286,0,0.142,0.286,0.142,0.286
		s-0.571,2.859-0.571,3.145c-0.143,0.286-0.286,0.286-0.286,0.286h-3.145c-0.287,0-0.286,0.144-0.286,0.144v13.292
		c0,1.57,1.286,1.855,2.001,1.855c0.714,0,0.857,0,1.429-0.285c0,0,0.286-0.286,0.286,0c0.142,0.285,0.857,2.143,1,2.43
		c0.143,0.143-0.143,0.285-0.143,0.285c-3.001,2.145-3.287,2.287-7.289,2.287c-4.43,0-6.002-2.143-6.002-6.144v-13.722
		c0,0,0-0.143-0.286-0.143h-2c0,0-0.144,0-0.144-0.286v-2.144C53.602,98.19,53.746,98.047,53.746,98.047L53.746,98.047z
		 M118.911,108.479c0-7.432,5.859-12.147,13.578-12.147c7.715,0,13.718,4.715,13.718,12.147c0,7.718-6.003,12.289-13.718,12.289
		C124.77,120.769,118.911,116.197,118.911,108.479z M127.772,105.193c0,3.43,1.429,12.004,6.288,12.004
		c2.571,0,3.285-2.716,3.285-5.288c0-3.43-1.427-12.003-6.43-12.003C127.772,99.905,127.772,103.477,127.772,105.193z
		 M173.36,120.056h-12.005c0,0-0.143,0-0.143-0.145v-2.43c0-0.285,0.285-0.285,0.285-0.285h1.429c0.145,0,0.145-0.142,0.145-0.142
		V104.05c0-1.429-1.286-2.001-2.574-2.001c-1.571,0-2.714,0.715-3.858,1.715c0,0-0.142,0.142-0.142,0.286v13.006
		c0,0,0,0.142,0.142,0.142h1.573c0,0,0.143,0,0.143,0.285v2.429c0,0.146-0.143,0.146-0.143,0.146h-12.005
		c0,0-0.142,0.142-0.142-0.287v-2.287c0-0.285,0.142-0.285,0.142-0.285h1.285c0.286,0,0.145-0.142,0.145-0.142v-15.292
		c0,0,0.142-0.286-0.145-0.286l-1.285,0.429c0,0-0.142,0.142-0.142-0.143v-2.429c0-0.286,0.142-0.142,0.142-0.142l10.147-2.715
		c0,0,0.284-0.143,0.284,0.142v3.288c0,0.428,0.145,0.142,0.145,0.142c2.43-1.858,4.859-3.716,8.145-3.716
		c6.146,0,7.004,4.144,7.004,6.717v14.006c0,0-0.143,0.143,0.143,0.143h1.286c0,0,0.143,0,0.143,0.284v2.287
		C173.503,120.197,173.36,120.056,173.36,120.056L173.36,120.056z M185.508,96.475L175.36,99.19c0,0-0.142,0-0.142,0.286v2.287
		c0,0.286,0.284,0.143,0.284,0.143s0.716-0.143,1.286-0.286c0.287,0,0.143,0.286,0.143,0.428v15.007c0,0,0.145,0.142-0.143,0.142
		h-1.429c0,0-0.286,0-0.286,0.285v2.43c0,0.286,0.286,0.145,0.286,0.145h11.863c0.284,0,0.142-0.287,0.142-0.287v-2.287
		c0-0.285-0.286-0.285-0.286-0.285h-1.144c-0.287,0-0.143-0.142-0.143-0.142V96.617C185.793,96.331,185.508,96.475,185.508,96.475
		L185.508,96.475z M181.936,89.33c2,0,4.285,0.572,4.285,3.001c0,2.859-3.856,4.002-6.286,4.002c-2.002,0-3.287-1.001-3.287-3.001
		C176.647,91.044,179.79,89.33,181.936,89.33z M83.756,107.909h-1.144c-2.429,0-4.144,1.713-4.144,4
		c0,1.858,0.572,4.001,2.859,4.001s2.715-1.713,2.715-3.43v-4.288C84.042,108.193,84.042,107.909,83.756,107.909L83.756,107.909z
		 M93.046,117.197h1c0.428,0,0.428,0.285,0.428,0.285v2.287c0,0.429-0.428,0.287-0.428,0.287H84.9c0,0-0.143,0-0.286-0.287
		c-0.142-0.571-0.286-1.143-0.286-1.571c-0.142-0.571-0.428,0-0.428,0c-2.001,1.429-4.001,2.572-6.574,2.572
		c-4.43,0-7.716-2.715-7.716-7.146c0-5.43,3.572-8.573,7.859-8.573l6.431-0.144c0,0,0.143,0,0.143-0.285v-0.715
		c0-1.858-1.001-2.715-3.145-2.715c-2.715,0-4.001,1-5.288,2.572c0,0-0.142,0.142-0.286,0c-0.286,0-2.715-0.857-2.715-0.857
		s-0.142,0,0-0.286c0.143-0.286,2.859-7.145,2.859-7.145s0-0.286,0.286-0.142c0.286,0.142,2.144,0.715,2.429,0.715
		c0.286,0.143,0.143,0.428,0.143,0.428s0,0.286-0.143,0.571c-0.286,0.572,0.143,0.286,0.143,0.286c1.858-0.715,3.716-1,5.574-1
		c5.43,0,9.004,2.287,9.004,7.86v12.576C92.902,116.769,92.759,117.197,93.046,117.197L93.046,117.197z M102.477,102.478
		c0,2.572,1.429,9.574,5.002,9.574c1.859,0,2.572-0.858,2.572-3.143c0-2.573-1.572-9.575-5.145-9.575
		C103.191,99.333,102.477,100.19,102.477,102.478L102.477,102.478z M106.192,121.198c-0.428,0.429-0.714,2-0.714,3.001
		c0,1.145,0.572,2.43,2,2.43c1.144,0,1.859-0.572,1.859-1.714c0-2.145-1.288-2.858-2.858-3.858
		C106.479,121.056,106.336,121.056,106.192,121.198z M201.513,107.909h-1.143c-2.43,0-4.146,1.713-4.146,4
		c0,1.858,0.572,4.001,2.859,4.001s2.716-1.713,2.716-3.43v-4.288C201.8,108.193,201.8,107.909,201.513,107.909L201.513,107.909z
		 M210.802,117.197h1.144c0.285,0,0.285,0.285,0.285,0.285v2.287c0,0.429-0.43,0.287-0.43,0.287h-9.146c0,0-0.143,0-0.285-0.287
		c-0.143-0.571-0.287-1.143-0.287-1.571c-0.142-0.571-0.429,0-0.429,0c-2,1.429-4.001,2.572-6.572,2.572
		c-4.43,0-7.718-2.715-7.718-7.146c0-5.43,3.572-8.573,7.86-8.573l6.43-0.144c0,0,0.145,0,0.145-0.285v-0.715
		c0-1.858-1.001-2.715-3.146-2.715c-2.714,0-4.001,1-5.288,2.572c0,0-0.143,0.142-0.285,0c-0.286,0-2.573-0.857-2.573-0.857
		s-0.285,0-0.143-0.286s2.858-7.145,2.858-7.145s0-0.286,0.287-0.142c0.284,0.142,2.143,0.715,2.43,0.715
		c0.285,0.14,0.285,0.426,0.285,0.426l-0.284,0.572c-0.287,0.571,0.143,0.286,0.143,0.286c1.857-0.715,3.716-1.001,5.572-1.001
		c5.433,0,9.004,2.287,9.004,7.86v12.577C210.659,116.769,210.659,117.197,210.802,117.197L210.802,117.197z M13.874,101.906v11.575
		c0,2.001,0.715,3.716,3.001,3.716c2.858,0,4.145-1.715,4.145-7.003c0-8.431-4.288-8.86-5.716-8.86l-1.144,0.143
		C14.16,101.477,13.874,101.621,13.874,101.906L13.874,101.906z M14.016,98.476c2.144-1.287,3.716-2.144,5.86-2.144
		c5.574,0,10.003,4.573,10.003,11.29c0,6.574-4.144,13.146-11.29,13.146c-1.429,0-3.287-0.142-4.573-0.857c0,0-0.142,0-0.142,0.145
		v4.143c0,0,0,0.287,0.286,0.287h2.572c0,0,0.286,0,0.286,0.286v2.285c0,0.145-0.286,0.287-0.286,0.287H3.727
		c0,0-0.429,0-0.429-0.287v-0.022v-0.022v-0.023v-0.023v-0.026v-0.027v-0.028v-0.028v-0.03v-0.032v-0.032v-0.035v-0.034v-0.035
		v-0.037v-0.034v-0.039v-0.04v-0.039v-0.039v-0.041v-0.04v-0.043v-0.039v-0.044v-0.042v-0.043v-0.042v-0.044v-0.043v-0.044v-0.042
		v-0.043v-0.044v-0.046v-0.042v-0.043v-0.044v-0.042v-0.041v-0.041v-0.042v-0.041v-0.042v-0.039v-0.039v-0.039v-0.035v-0.039v-0.035
		v-0.037v-0.034v-0.032v-0.033v-0.032v-0.03v-0.03v-0.028v-0.025v-0.025v-0.026v-0.022v-0.022v-0.02
		c0-0.287,0.286-0.287,0.286-0.287h1.143c0.286,0,0.286-0.287,0.286-0.287v-22.435c0-0.286-0.286-0.142-0.286-0.142l-1.143,0.286
		c0,0-0.286,0-0.286-0.286v-0.016v-0.017v-0.019v-0.02v-0.022v-0.023v-0.026v-0.027v-0.03v-0.029v-0.033v-0.032v-0.035v-0.036
		v-0.037v-0.037v-0.039v-0.04v-0.042v-0.042v-0.043v-0.042v-0.044v-0.044v-0.045v-0.046v-0.046v-0.046v-0.047v-0.046v-0.047v-0.046
		v-0.047v-0.047v-0.047V100.3v-0.047v-0.046v-0.046v-0.044v-0.045v-0.044v-0.043v-0.042v-0.043v-0.04v-0.041V99.78v-0.039v-0.037
		v-0.036v-0.034v-0.034V99.57v-0.03v-0.028v-0.028v-0.024v-0.024v-0.022v-0.021v-0.018v-0.016v-0.015
		c0-0.286,0.286-0.286,0.286-0.286l10.003-2.572c0,0,0.286-0.142,0.286,0.142v1.715C13.874,98.618,14.016,98.476,14.016,98.476
		L14.016,98.476z M206.659,90.616c0-1.716,1.429-3.145,3.143-3.145c1.716,0,3.146,1.429,3.146,3.145
		c0,1.858-1.429,3.287-3.146,3.287C208.088,93.903,206.659,92.474,206.659,90.616z M212.518,90.616c0-1.429-1.145-2.715-2.717-2.715
		s-2.858,1.287-2.858,2.715c0,1.572,1.286,2.857,2.858,2.857S212.518,92.188,212.518,90.616z M211.373,92.474h-0.571l-1.001-1.714
		h-0.714v1.714h-0.429v-3.572h1.429c0.284,0,0.714,0,0.858,0.143c0.284,0.143,0.427,0.572,0.427,0.857
		c0,0.573-0.427,0.858-1.144,0.858L211.373,92.474L211.373,92.474z M209.658,90.473c0.572,0,1.287,0.143,1.287-0.572
		c0-0.572-0.43-0.714-0.858-0.714h-1.001v1.286H209.658L209.658,90.473z"/>
</g>

</svg>
