<?xml version="1.0" encoding="utf-8"?>
<!DOCTYPE svg PUBLIC "-//W3C//DTD SVG 1.1//EN" "http://www.w3.org/Graphics/SVG/1.1/DTD/svg11.dtd">
<svg version="1.1" xmlns="http://www.w3.org/2000/svg" xmlns:xlink="http://www.w3.org/1999/xlink" x="0px" y="0px" width="216px" height="216px" viewBox="0 0 216 216" enable-background="new 0 0 216 216" xml:space="preserve">
<g id="Layer_1">
	<path fill-rule="evenodd" clip-rule="evenodd" fill="#0C0C0C" d="M53,0h108.002C190.701,0,215,24.3,215,54v108.002
		c0,29.7-24.299,53.998-53.998,53.998H53c-29.7,0-54-24.298-54-53.998V54C-1,24.3,23.3,0,53,0z"/>
</g>
<g id="_x23_Layer_1">
	<g>
		<path fill="#FF2F2A" d="M101.987,37.208c0,39.308-32.932,46.665-32.932,84.449c0,14.748,9.297,27.522,20.271,29.048
			c-0.804-2.688-1.065-4.766-1.065-7.664c0-27.278,43.838-35.735,43.838-82.249c0-22.245-15.688-41.049-33.994-45.515
			c0,0,3.867,12.074,3.867,21.922L101.987,37.208z"/>
		<path fill="#6EC148" d="M99.209,144.691c0,7.716,5.469,15.938,12.598,18.612c-0.38-1.138-0.55-2.137-0.55-3.813
			c0-15.2,44.962-20.043,44.962-59.765c0-10.98-4.594-22.906-13.687-30.726C136.379,114.147,99.209,120.367,99.209,144.691z"/>
		<path fill="#33ACE1" d="M75.648,27.885c0,0,2.165,3.891,2.165,8.232c0,13.949-13.172,19.269-13.172,33.441
			c0,6.695,3.64,12.187,8.78,15.375c0.137-1.211,0.262-2.353,0.573-3.302c3.077-9.846,17.515-20.743,17.515-36.193
			C91.513,36.181,83.833,28.562,75.648,27.885z"/>
	</g>
	<path fill="#FFFFFF" d="M52.413,185.357c2.063,1.861,4.02,2.953,6.843,2.953c1.565,0,4.418-0.66,4.418-2.72
		c0-1.189-0.896-1.794-2.649-2.089l-4.922-0.801c-4.38-0.692-6.775-3.02-6.775-6.506c0-5.707,4.618-8.069,9.667-8.069
		c3.919,0,7.775,1.594,10.428,4.55l-4.486,3.22c-1.563-1.894-3.855-2.992-6.344-2.992c-1.354,0-3.353,0.862-3.353,2.393
		c0,1.26,1.032,1.892,3.285,2.26l2.266,0.363c4.714,0.763,8.602,2.222,8.602,6.735c0,7.109-6.415,8.442-10.828,8.442
		c-4.016,0-7.787-1.3-11.013-4.817L52.413,185.357L52.413,185.357z M83.934,193.1L83.934,193.1c-7.544,0-11.96-5.848-11.96-12.493
		c0-6.633,4.416-12.479,11.96-12.479c7.535,0,11.949,5.847,11.949,12.479C95.882,187.249,91.467,193.1,83.934,193.1L83.934,193.1z
		 M83.934,173.104L83.934,173.104c-3.459,0-6.046,2.195-6.046,7.502c0,3.459,1.396,7.511,6.046,7.511
		c4.38,0,6.043-3.854,6.043-7.511C89.977,176.89,88.314,173.104,83.934,173.104L83.934,173.104z M115.215,176.662L115.215,176.662
		c-0.832-2.195-2.857-3.563-4.925-3.563c-3.246,0-5.833,2.203-5.833,7.509c0,3.457,1.394,7.509,6.046,7.509
		c1.593,0,3.919-1.193,4.847-3.323l4.683,2.261c-2.026,3.687-5.547,6.044-9.529,6.044c-7.544,0-11.963-5.847-11.963-12.489
		c0-6.633,4.122-12.479,11.494-12.479c4.646,0,7.699,2.256,9.896,6.171L115.215,176.662L115.215,176.662z M129.233,168.796
		L129.233,168.796h6.11l8.935,23.635h-6.35l-1.193-3.717h-8.729l-1.198,3.717h-6.303L129.233,168.796L129.233,168.796z
		 M135.306,184.329L135.306,184.329l-2.917-9.76h-0.063l-2.926,9.76H135.306L135.306,184.329z M146.622,168.793L146.622,168.793
		h11.82c5.316,0,8.575,2.46,8.575,7.767c0,3.06-1.93,5.51-4.889,6.376l5.422,9.495h-6.615l-4.649-8.498h-3.749v8.498h-5.915V168.793
		L146.622,168.793z M152.537,179.54L152.537,179.54h5.412c1.894-0.027,3.155-0.984,3.155-3.181s-1.262-3.156-3.155-3.189h-5.412
		V179.54z"/>
</g>
</svg>
