<?xml version="1.0" encoding="utf-8"?>
<!DOCTYPE svg PUBLIC "-//W3C//DTD SVG 1.1//EN" "http://www.w3.org/Graphics/SVG/1.1/DTD/svg11.dtd">
<svg version="1.1" id="Layer_1" xmlns="http://www.w3.org/2000/svg" xmlns:xlink="http://www.w3.org/1999/xlink" x="0px" y="0px" width="216px" height="216px" viewBox="0 0 216 216" enable-background="new 0 0 216 216" xml:space="preserve">
<path d="M-0.25,0.75h216v216h-216V0.75z"/>
<path fill="#FFFFFF" d="M129.162,46.903c-3.261,0-5.939,1.98-7.338,4.775c1.165-2.329,3.611-3.843,6.522-3.843
	c4.076,0,7.338,3.145,7.338,7.104c0,3.377-2.33,6.406-5.707,6.988c-6.289,0.932-12.812-4.077-18.984-8.619
	c1.281-0.35,2.563-0.699,3.844-0.932c0.466-0.116,0.466-0.116,0.932-0.116c1.281-0.233,2.563-0.35,3.843-0.35
	c-0.932-0.116-1.979-0.233-2.911-0.233h-1.98h-0.698c-1.515,0.117-2.912,0.466-4.193,0.815c-4.192-3.028-8.385-5.59-12.229-5.707
	c3.377,0.932,6.639,3.494,9.899,6.522c-0.932,0.349-1.747,0.815-2.446,1.281c-5.125-4.542-10.832-8.968-18.052-8.735
	c-5.474,0.116-8.735,4.426-8.735,9.084c0,4.892,3.727,8.852,8.27,8.852c3.261,0,5.939-1.98,7.337-4.775
	c-1.165,2.33-3.611,3.844-6.522,3.844c-4.076,0-7.337-3.145-7.337-7.104c0-3.378,2.33-6.406,5.707-6.988
	c5.707-0.932,11.647,3.261,17.354,7.337c-0.815,0.699-1.514,1.398-2.096,2.213c-0.233,0.233-0.233,0.233-0.35,0.466
	c-0.699,1.048-1.281,2.097-1.747,3.261c0.583-1.048,1.398-1.98,2.33-2.912c0.233-0.233,0.116-0.233,0.349-0.35
	c0.699-0.699,1.631-1.397,2.446-2.096c4.892,3.494,9.667,6.872,14.093,6.988c-4.076-1.048-7.92-4.659-11.996-8.27
	c0.815-0.466,1.63-0.932,2.562-1.281c5.708,5.125,11.879,10.715,20.149,10.599c5.474-0.116,8.735-4.426,8.735-9.084
	C137.314,50.979,133.704,46.903,129.162,46.903L129.162,46.903z"/>
<path fill="#FFFFFF" d="M30.631,128.896c2.329-0.932,3.61-1.747,3.959-2.213c0.35-0.582,0.35-4.192,0.35-10.831
	c0-6.405,0-9.9-0.35-10.599c-0.349-0.466-1.63-1.281-3.959-2.213v-0.815c3.028,0.233,5.474,0.349,7.57,0.349
	c2.096,0,4.542-0.116,7.454-0.349v0.815c-2.329,0.932-3.61,1.747-3.96,2.213c-0.349,0.583-0.349,3.377-0.349,8.502h11.996
	c0-5.125,0-7.919-0.35-8.502c-0.349-0.466-1.63-1.281-3.96-2.213v-0.815c3.028,0.233,5.474,0.349,7.571,0.349
	c1.979,0,4.542-0.116,7.454-0.349v0.815c-2.329,0.932-3.61,1.747-3.96,2.213c-0.349,0.466-0.349,3.028-0.349,7.337v6.406
	c0,4.542,0,7.104,0.349,7.57c0.35,0.466,1.631,1.281,3.96,2.213v0.815c-3.028-0.233-5.474-0.35-7.454-0.35
	c-1.98,0-4.542,0.116-7.571,0.35v-0.699c2.33-0.932,3.611-1.747,3.96-2.213c0.35-0.582,0.35-3.96,0.35-10.016H41.346v3.028
	c0,4.192,0,6.521,0.349,6.987c0.233,0.466,1.514,1.281,3.96,2.213v0.815c-2.912-0.232-5.357-0.35-7.454-0.35
	c-1.98,0-4.542,0.117-7.57,0.35V128.896L30.631,128.896z M94.105,125.053c-2.679,3.494-6.988,5.474-12.229,5.474
	c-3.727,0-6.872-1.048-9.434-3.261c-3.261-2.796-5.008-6.756-5.008-11.298c0-3.261,1.048-6.289,3.028-8.851
	c2.795-3.494,7.104-5.591,12.229-5.591c3.727,0,6.872,1.048,9.434,3.261c3.261,2.795,5.008,6.755,5.008,11.414
	C97.017,119.462,96.085,122.49,94.105,125.053z M82.109,103.506c-4.542,0-7.337,4.077-7.337,11.53
	c0,8.502,3.028,13.044,7.687,13.044c4.426,0,7.337-4.076,7.337-11.413C89.68,108.165,86.768,103.506,82.109,103.506L82.109,103.506z
	 M104.937,128.896c2.912-0.815,4.542-1.747,4.659-2.329c0.232-0.932,0.35-3.844,0.35-8.735v-4.076v-8.502
	c-1.165,0-2.097-0.116-2.912-0.116c-2.562,0-3.96,0.116-4.193,0.349c-0.466,0.35-1.048,1.864-2.096,4.542h-0.815v-7.687
	c1.98,0.233,6.289,0.35,13.161,0.35c6.639,0,10.947-0.117,12.928-0.35v7.687h-0.466c-1.049-2.679-1.515-4.193-2.097-4.542
	c-0.35-0.233-1.747-0.349-4.192-0.349c-0.815,0-1.747,0-2.912,0.116v10.599c0,6.639,0,10.249,0.35,10.948
	c0.35,0.582,1.863,1.514,4.658,2.213v0.814c-2.795-0.232-5.474-0.349-8.152-0.349c-2.563,0-5.241,0.116-8.153,0.349v-0.932H104.937z
	 M129.628,128.896c2.329-0.932,3.61-1.747,3.96-2.213c0.35-0.582,0.35-4.192,0.35-10.831c0-6.522,0-10.016-0.35-10.715
	c-0.35-0.466-1.631-1.165-3.96-2.213v-0.699c3.028,0.233,7.804,0.233,14.442,0.233c3.727,0,6.987,0,9.666-0.233v7.221h-0.582
	c-1.048-2.446-1.747-3.844-2.097-4.077c-0.349-0.233-2.096-0.35-5.241-0.35c-1.746,0-3.493,0-5.24,0.117
	c-0.117,3.494-0.233,6.289-0.233,8.618h3.262c3.261,0,5.124-0.116,5.474-0.349c0.466-0.233,1.048-1.515,1.863-3.728h0.582
	c-0.116,1.863-0.349,3.61-0.349,5.474c0,1.049,0,2.912,0.232,5.475h-0.582c-0.699-2.33-1.281-3.728-1.747-4.076
	c-0.35-0.233-1.747-0.233-4.193-0.233h-4.542v2.213c0,3.494,0.116,6.057,0.233,7.92c1.747,0.116,3.261,0.116,4.774,0.116
	c3.378,0,5.358-0.116,5.824-0.466c0.582-0.35,1.397-1.863,2.562-4.658h0.466v7.803c-4.658-0.116-9.55-0.232-14.907-0.232H136.5
	c-2.68,0-5.009,0-6.988,0.232v-0.35H129.628z M184.601,121.093l-0.35,8.734c-5.241-0.232-10.133-0.349-14.908-0.349
	c-4.076,0-7.569,0.116-10.249,0.349v-0.932c2.33-0.932,3.611-1.747,3.96-2.213c0.35-0.582,0.35-4.192,0.35-10.831
	c0-6.522,0-10.016-0.35-10.599c-0.349-0.466-1.63-1.281-3.96-2.213v-0.699c2.563,0.233,5.009,0.35,7.571,0.35
	c2.562,0,4.892-0.117,7.337-0.35v0.699c-2.329,0.932-3.61,1.747-3.844,2.213c-0.349,0.583-0.349,4.076-0.349,10.599
	c0,3.727,0,7.454,0.232,10.948c1.747,0.116,3.378,0.116,4.659,0.116c3.96,0,6.173-0.116,6.639-0.466
	c0.698-0.466,1.514-2.213,2.445-5.475h0.815V121.093z"/>
<g>
	<path fill="#FFFFFF" d="M43.792,152.771c-1.281,0.699-2.795,0.932-4.659,0.932c-5.008,0-8.269-3.028-8.269-7.57
		c0-1.979,0.699-3.727,1.98-5.124c1.747-1.864,4.192-2.679,7.337-2.679c1.048,0,2.329,0.116,3.61,0.349l-0.233,3.96h-0.35
		c-0.583-1.397-0.815-2.213-1.048-2.445c-0.233-0.233-1.048-0.466-2.212-0.466c-3.145,0-5.125,2.329-5.125,6.405
		c0,3.844,2.096,6.289,5.008,6.289c1.165,0,1.98-0.349,2.446-0.814c0.349-0.35,0.699-1.398,1.281-2.912h0.35L43.792,152.771z
		 M60.795,150.908c-1.397,1.863-3.727,2.912-6.522,2.912c-1.98,0-3.61-0.583-5.008-1.747c-1.747-1.515-2.679-3.61-2.679-6.057
		c0-1.747,0.583-3.378,1.631-4.659c1.514-1.863,3.727-2.911,6.522-2.911c1.98,0,3.61,0.582,5.008,1.747
		c1.747,1.514,2.679,3.61,2.679,6.057C62.31,147.88,61.844,149.511,60.795,150.908z M54.39,139.378c-2.446,0-3.96,2.097-3.96,6.173
		c0,4.542,1.63,6.988,4.076,6.988c2.33,0,3.843-2.213,3.843-6.057C58.466,141.824,56.836,139.378,54.39,139.378z M77.684,148.695
		l-0.233,4.659c-2.795-0.117-5.357-0.233-7.92-0.233c-2.213,0-3.96,0-5.474,0.116v-0.466c1.281-0.466,1.98-0.932,2.097-1.164
		c0.233-0.35,0.233-2.213,0.233-5.824c0-3.493,0-5.357-0.233-5.706c-0.117-0.233-0.815-0.699-2.097-1.165v-0.35
		c1.397,0.116,2.679,0.116,3.96,0.116s2.679,0,3.96-0.116v0.35c-1.281,0.466-1.864,0.932-2.096,1.165
		c-0.117,0.349-0.233,2.213-0.233,5.706c0,1.98,0,3.96,0.117,5.824c0.932,0,1.747,0.116,2.446,0.116c2.096,0,3.261,0,3.61-0.233
		c0.35-0.232,0.815-1.164,1.281-2.911h0.583V148.695z M92.708,148.695l-0.233,4.659c-2.795-0.117-5.357-0.233-7.919-0.233
		c-2.213,0-3.96,0-5.474,0.116v-0.466c1.281-0.466,1.98-0.932,2.096-1.164c0.233-0.35,0.233-2.213,0.233-5.824
		c0-3.493,0-5.357-0.233-5.706c-0.116-0.233-0.815-0.699-2.096-1.165v-0.35c1.397,0.116,2.679,0.116,3.96,0.116s2.679,0,3.96-0.116
		v0.35c-1.281,0.466-1.864,0.932-2.097,1.165c-0.116,0.349-0.233,2.213-0.233,5.706c0,1.98,0,3.96,0.117,5.824
		c0.932,0,1.747,0.116,2.446,0.116c2.096,0,3.261,0,3.61-0.233c0.35-0.232,0.815-1.164,1.281-2.911h0.583V148.695z M94.105,152.888
		c1.281-0.466,1.98-0.932,2.096-1.164c0.233-0.35,0.233-2.213,0.233-5.823c0-3.494,0-5.357-0.233-5.707
		c-0.116-0.233-0.815-0.583-2.096-1.165v-0.35c1.63,0.117,4.193,0.117,7.687,0.117c1.98,0,3.727,0,5.125-0.117v3.844h-0.35
		c-0.582-1.281-0.932-1.979-1.165-2.213c-0.233-0.116-1.048-0.232-2.795-0.232c-0.932,0-1.863,0-2.795,0.116
		c-0.117,1.863-0.117,3.377-0.117,4.542h1.747c1.747,0,2.679,0,2.912-0.116s0.583-0.815,1.048-1.98h0.349
		c-0.116,0.932-0.116,1.98-0.116,2.912c0,0.582,0,1.514,0.116,2.912h-0.349c-0.35-1.281-0.699-1.98-0.932-2.097
		s-0.932-0.116-2.212-0.116h-2.446v1.164c0,1.863,0,3.261,0.116,4.193c0.932,0.116,1.747,0.116,2.563,0.116
		c1.863,0,2.912-0.116,3.145-0.233c0.35-0.232,0.699-1.048,1.397-2.445h0.233v4.192c-2.446-0.116-5.125-0.116-7.92-0.116h-1.514
		c-1.398,0-2.679,0-3.727,0.116V152.888L94.105,152.888z M122.64,152.771c-1.281,0.699-2.795,0.932-4.658,0.932
		c-5.009,0-8.27-3.028-8.27-7.57c0-1.979,0.699-3.727,1.98-5.124c1.746-1.864,4.192-2.679,7.337-2.679
		c1.048,0,2.329,0.116,3.61,0.349l-0.232,3.96h-0.35c-0.582-1.397-0.815-2.213-1.048-2.445c-0.233-0.233-1.049-0.466-2.214-0.466
		c-3.145,0-5.124,2.329-5.124,6.405c0,3.844,2.097,6.289,5.008,6.289c1.165,0,1.98-0.349,2.446-0.814
		c0.35-0.35,0.698-1.398,1.281-2.912h0.466L122.64,152.771L122.64,152.771z M127.531,152.888c1.515-0.466,2.446-0.932,2.446-1.28
		c0.116-0.466,0.116-2.097,0.116-4.659v-2.213v-4.542h-1.514c-1.398,0-2.097,0.116-2.213,0.232
		c-0.233,0.233-0.583,1.049-1.165,2.446h-0.35v-4.076c1.049,0.116,3.378,0.232,6.988,0.232s5.823-0.116,6.872-0.232v4.076h-0.35
		c-0.583-1.397-0.815-2.213-1.165-2.446c-0.116-0.116-0.932-0.232-2.213-0.232h-1.514v5.59c0,3.494,0,5.475,0.232,5.824
		c0.233,0.349,1.048,0.814,2.446,1.164v0.466c-1.515-0.116-2.912-0.232-4.426-0.232c-1.397,0-2.796,0.116-4.31,0.232v-0.35H127.531z
		 M139.993,152.888c1.281-0.466,1.98-0.932,2.097-1.164c0.116-0.233,0.233-1.631,0.233-4.076V145.9v-1.747
		c0-2.329,0-3.61-0.233-3.96c-0.116-0.233-0.815-0.699-2.097-1.165v-0.466c1.515,0.116,2.912,0.233,3.96,0.233
		c1.049,0,2.446-0.117,3.96-0.233v0.466c-1.281,0.466-1.979,0.932-2.097,1.165c-0.232,0.35-0.232,2.213-0.232,5.59
		c0,3.494,0,5.475,0.232,5.824c0.117,0.232,0.815,0.698,2.097,1.164v0.466c-1.514-0.116-2.911-0.232-3.96-0.232
		c-1.048,0-2.445,0.116-3.96,0.232V152.888z M163.986,150.908c-1.398,1.863-3.728,2.912-6.522,2.912c-1.98,0-3.61-0.583-5.008-1.747
		c-1.747-1.515-2.679-3.61-2.679-6.057c0-1.747,0.582-3.378,1.63-4.659c1.515-1.863,3.728-2.911,6.522-2.911
		c1.979,0,3.61,0.582,5.008,1.747c1.747,1.514,2.679,3.61,2.679,6.057C165.5,147.88,165.034,149.511,163.986,150.908z
		 M157.58,139.378c-2.445,0-3.96,2.097-3.96,6.173c0,4.542,1.631,6.988,4.076,6.988c2.33,0,3.844-2.213,3.844-6.057
		C161.656,141.824,160.026,139.378,157.58,139.378L157.58,139.378z M167.247,152.888c1.281-0.466,1.979-0.932,2.097-1.164
		c0.116-0.233,0.232-1.631,0.232-4.076V145.9v-1.747c0-2.329,0-3.728-0.232-3.96c-0.117-0.233-0.815-0.583-2.097-1.165v-0.35
		c1.281,0.117,2.097,0.117,2.795,0.117c1.049,0,1.863,0,2.679-0.117c2.795,3.728,5.474,6.872,7.92,9.667v-2.563
		c0-3.027,0-4.892-0.116-5.357c-0.117-0.349-0.815-0.698-2.097-1.281v-0.466c1.281,0.117,2.329,0.233,3.261,0.233
		c0.583,0,1.515-0.116,3.028-0.233v0.466c-1.397,0.583-2.097,0.933-2.097,1.281c-0.116,0.583-0.232,3.728-0.232,9.435v3.843h-1.514
		c-3.262-4.076-6.406-7.803-9.435-11.297v4.426c0,2.795,0,4.426,0.117,4.892c0.116,0.35,0.814,0.698,2.096,1.281v0.466
		c-1.281-0.116-2.213-0.233-3.027-0.233c-0.815,0-1.98,0.117-3.262,0.233v-0.583H167.247z"/>
</g>
<g>
	<path fill="#FFFFFF" d="M48.45,92.558c-1.747,0.932-3.844,1.281-6.173,1.281c-6.755,0-11.181-4.077-11.181-10.133
		c0-2.679,0.932-5.008,2.679-6.872c2.329-2.446,5.59-3.61,9.783-3.61c1.397,0,3.028,0.116,4.892,0.466l-0.233,5.241h-0.583
		c-0.699-1.863-1.165-3.028-1.514-3.261c-0.349-0.35-1.397-0.699-2.912-0.699c-4.309,0-6.872,3.028-6.872,8.618
		c0,5.241,2.912,8.502,6.755,8.502c1.514,0,2.679-0.35,3.261-1.048c0.466-0.466,0.932-1.863,1.747-3.96h0.583L48.45,92.558
		L48.45,92.558z M50.313,92.791c1.514-0.466,2.446-0.815,3.028-1.747c0.815-1.281,3.843-7.221,8.502-17.936h2.795
		c4.076,10.832,6.988,16.888,7.687,18.286c0.466,0.815,1.281,1.048,2.563,1.397v0.583c-2.213-0.233-3.96-0.233-5.241-0.233
		c-1.63,0-3.61,0.117-5.939,0.233v-0.583c1.98-0.583,2.912-0.932,2.912-1.514c0-0.233-0.466-1.63-1.397-4.076h-7.687
		c-1.048,2.329-1.631,3.727-1.631,4.193c0,0.466,0.932,0.932,2.795,1.397v0.583c-1.747-0.117-3.261-0.233-4.659-0.233
		c-0.932,0-2.213,0.117-3.96,0.233v-0.583H50.313z M64.522,85.221c-0.932-2.33-1.863-4.542-2.795-6.872
		c-1.165,2.562-2.213,4.892-3.145,6.872H64.522z M76.169,92.791c1.63-0.699,2.679-1.281,2.795-1.63
		c0.232-0.466,0.232-3.028,0.232-7.804c0-4.659,0-7.221-0.232-7.687c-0.233-0.35-1.165-0.932-2.795-1.631v-0.466
		c1.98,0.117,3.494,0.233,4.775,0.233c2.097,0,4.193-0.233,6.406-0.233c5.474,0,8.27,1.631,8.27,5.008
		c0,2.213-1.514,4.076-4.193,5.008c3.377,5.94,5.125,9.084,6.872,9.084h0.116v0.699c-1.048-0.117-1.863-0.117-2.679-0.117
		c-1.048,0-2.446,0.117-3.96,0.117c-1.863-3.261-3.61-6.173-5.357-8.968h-2.562v2.213c0,2.679,0.116,4.193,0.233,4.542
		c0.233,0.349,1.165,0.932,2.795,1.63v0.583c-1.863-0.117-3.61-0.233-5.357-0.233s-3.61,0.117-5.357,0.233V92.791L76.169,92.791z
		 M83.856,80.329v2.446h0.699c3.727,0,5.707-1.514,5.707-4.077c0-2.329-1.747-3.494-5.241-3.494h-1.048
		C83.856,76.952,83.856,78.582,83.856,80.329z M118.33,87.084l-0.232,6.29c-3.727-0.117-7.338-0.233-10.715-0.233
		c-2.912,0-5.357,0.117-7.337,0.233v-0.583c1.63-0.699,2.679-1.281,2.795-1.63c0.233-0.466,0.233-3.028,0.233-7.804
		c0-4.659,0-7.221-0.233-7.687c-0.233-0.35-1.165-0.932-2.795-1.631v-0.466c1.863,0.117,3.61,0.233,5.357,0.233
		s3.494-0.116,5.357-0.233v0.466c-1.63,0.699-2.562,1.165-2.795,1.631c-0.233,0.349-0.233,2.912-0.233,7.687
		c0,2.679,0,5.358,0.233,7.804c1.281,0.116,2.446,0.116,3.378,0.116c2.795,0,4.426-0.116,4.775-0.35
		c0.466-0.349,1.164-1.63,1.747-3.959h0.466L118.33,87.084z M122.058,92.791c2.097-0.583,3.261-1.281,3.378-1.747
		c0.232-0.699,0.232-2.795,0.232-6.289v-2.912v-6.057c-0.815,0-1.514-0.116-2.097-0.116c-1.863,0-2.795,0.116-3.028,0.233
		c-0.349,0.233-0.698,1.397-1.514,3.261h-0.466V73.69c1.397,0.116,4.542,0.233,9.551,0.233c4.774,0,7.919-0.117,9.317-0.233v5.474
		h-0.466c-0.815-1.863-1.165-3.028-1.515-3.261c-0.232-0.117-1.165-0.233-3.028-0.233c-0.582,0-1.281,0-2.096,0.116v7.57
		c0,4.775,0,7.338,0.232,7.804c0.233,0.466,1.397,1.048,3.378,1.63v0.583c-1.98-0.117-3.96-0.233-5.94-0.233
		c-1.863,0-3.727,0.117-5.823,0.233v-0.583H122.058z M158.162,89.996c-1.979,2.446-5.008,3.96-8.734,3.96
		c-2.679,0-4.892-0.815-6.756-2.329c-2.329-1.98-3.61-4.892-3.61-8.153c0-2.33,0.699-4.542,2.097-6.406
		c1.979-2.563,5.125-3.96,8.735-3.96c2.679,0,4.892,0.815,6.755,2.33c2.329,1.98,3.61,4.892,3.61,8.152
		C160.259,85.919,159.561,88.132,158.162,89.996z M149.544,74.505c-3.261,0-5.241,2.912-5.241,8.27c0,6.056,2.213,9.434,5.475,9.434
		c3.261,0,5.24-2.912,5.24-8.269C155.018,77.883,152.922,74.505,149.544,74.505z M161.307,92.791c1.631-0.699,2.68-1.281,2.796-1.63
		c0.232-0.35,0.232-2.213,0.232-5.474v-2.33v-2.329c0-3.261,0-5.008-0.232-5.357c-0.233-0.35-1.165-0.815-2.796-1.514V73.69
		c1.631,0.116,2.912,0.233,3.728,0.233c1.397,0,2.563-0.117,3.61-0.233c3.727,5.008,7.338,9.201,10.599,13.044v-3.494
		c0-4.193,0-6.639-0.233-7.221c-0.116-0.466-1.048-0.932-2.911-1.747V73.69c1.63,0.116,3.145,0.233,4.426,0.233
		c0.698,0,2.096-0.117,4.192-0.233v0.582c-1.863,0.699-2.795,1.281-2.911,1.747c-0.233,0.815-0.233,5.008-0.233,12.695
		c0,1.863,0,3.494,0.117,5.241h-2.097c-4.426-5.474-8.735-10.482-12.812-15.257v5.94c0,3.727,0,5.94,0.232,6.522
		c0.117,0.466,1.049,0.932,2.912,1.747v0.582c-1.631-0.116-3.028-0.233-4.076-0.233c-1.165,0-2.679,0.117-4.426,0.233v-0.699
		H161.307z"/>
</g>
</svg>
