<?xml version="1.0" encoding="utf-8"?>
<!DOCTYPE svg PUBLIC "-//W3C//DTD SVG 1.1//EN" "http://www.w3.org/Graphics/SVG/1.1/DTD/svg11.dtd">
<svg version="1.1" id="Layer_1" xmlns="http://www.w3.org/2000/svg" xmlns:xlink="http://www.w3.org/1999/xlink" x="0px" y="0px" width="216px" height="216px" viewBox="0 0 216 216" enable-background="new 0 0 216 216" xml:space="preserve">
<path fill-rule="evenodd" clip-rule="evenodd" fill="#43B64B" d="M54,0h108.003C191.702,0,216,24.3,216,54v108.003
	C216,191.702,191.702,216,162.003,216H54c-29.7,0-54-24.298-54-53.997V54C0,24.3,24.3,0,54,0z"/>
<g>
	<path fill="#FFFFFF" d="M288.425,103.347l-0.229,3.068h-33.433c0,2.415,0.946,4.474,2.872,6.202
		c1.86,1.765,4.539,2.647,8.067,2.647c1.989,0,3.787-0.33,5.352-1.014c1.503-0.688,2.48-1.37,2.94-2.056l0.75-0.952h12.699
		c-0.078,0.468-0.199,0.929-0.356,1.374c-0.198,0.654-0.788,1.698-1.732,3.101c-0.984,1.518-2.194,2.873-3.593,4.018
		c-1.533,1.173-3.655,2.222-6.398,3.104c-2.871,0.944-6.104,1.401-9.661,1.401c-6.856,0-12.442-1.862-16.717-5.554
		c-4.279-3.653-6.399-8.778-6.399-15.341c0-6.531,2.12-11.653,6.365-15.343c4.246-3.688,9.764-5.552,16.587-5.552
		c6.758,0,12.274,1.863,16.517,5.555c4.246,3.687,6.37,8.811,6.37,15.343V103.347z M265.536,91.43c-3.359,0-5.938,0.848-7.77,2.512
		c-1.894,1.702-2.838,3.496-2.838,5.386h21.155c0-1.924-0.916-3.752-2.712-5.416C271.514,92.277,268.9,91.43,265.536,91.43
		 M321.172,118.657c-3.756-3.753-5.619-8.848-5.619-15.277c0-6.467,1.863-11.56,5.619-15.28c3.752-3.787,8.355-5.649,13.875-5.649
		c3.005,0,5.678,0.455,8.096,1.403c2.448,1.014,4.08,1.96,4.964,2.908l1.305,1.368h0.46V67.105h11.588v56.382h-11.588v-6.591h-0.561
		c-0.227,0.52-0.912,1.37-1.991,2.544c-0.811,0.864-1.722,1.63-2.708,2.287c-1.108,0.716-2.516,1.306-4.212,1.793
		c-1.73,0.498-3.521,0.748-5.32,0.754C329.527,124.274,324.924,122.413,321.172,118.657 M330.507,95.705
		c-2.021,2.024-3.031,4.571-3.031,7.675c0,3.133,1.01,5.647,3.031,7.641c1.992,1.986,4.7,3.004,8.129,3.004
		c3.46,0,6.173-1.018,8.197-3.004c2.023-1.959,3.038-4.506,3.038-7.643c0-3.166-1.015-5.745-3.071-7.706
		c-2.058-1.926-4.801-2.906-8.127-2.906C335.24,92.732,332.533,93.713,330.507,95.705 M389.635,124.274
		c-6.826,0-12.343-1.861-16.587-5.55c-4.241-3.69-6.365-8.817-6.365-15.38c0-6.562,2.124-11.688,6.365-15.377
		c4.244-3.688,9.761-5.546,16.587-5.546c6.824,0,12.342,1.857,16.587,5.546c4.24,3.689,6.364,8.816,6.364,15.379
		c0,6.562-2.124,11.688-6.364,15.378c-4.245,3.719-9.796,5.55-16.589,5.55H389.635z M397.731,111.25
		c1.959-2.059,2.938-4.675,2.938-7.905c0-3.231-0.979-5.844-2.938-7.9c-1.962-2.056-4.668-3.066-8.097-3.066
		c-3.461,0-6.139,1.011-8.064,3.066c-1.961,2.057-2.94,4.669-2.94,7.902c0,3.231,0.979,5.845,2.94,7.903
		c1.926,2.055,4.604,3.065,8.064,3.065C393.063,114.315,395.77,113.305,397.731,111.25"/>
	<path fill="#FFFFFF" d="M313.398,114.247c-0.618,0.266-1.501,0.396-2.677,0.396c-2.057,0-3.526-0.523-4.407-1.566
		c-0.881-1.046-1.334-3.005-1.334-5.845V67.106h-11.594v41.399c0,5.252,1.273,9.176,3.787,11.818
		c2.514,2.646,6.104,3.951,10.805,3.951c2.188,0.028,3.986-0.198,5.42-0.654v-9.369V114.247z"/>
</g>
<path fill="#259646" d="M146.996,31.5H69.003C55.471,31.5,44.5,42.471,44.5,56.003v77.993c0,13.533,10.971,24.504,24.503,24.504
	h77.993c13.533,0,24.504-10.971,24.504-24.504V56.003C171.5,42.471,160.529,31.5,146.996,31.5z"/>
<path fill="#397F48" d="M85.251,129.105c18.525,0,33.543-15.018,33.543-33.543c0-18.525-15.018-33.542-33.543-33.542
	S51.708,77.037,51.708,95.562C51.708,114.088,66.726,129.105,85.251,129.105z"/>
<path fill="#FFFFFF" stroke="#6D6F72" stroke-width="0.25" stroke-miterlimit="10" d="M85.251,126.787
	c18.525,0,33.543-15.018,33.543-33.543c0-18.525-15.018-33.543-33.543-33.543S51.708,74.718,51.708,93.244
	C51.708,111.77,66.726,126.787,85.251,126.787z"/>
<path fill="none" stroke="#6D6F72" stroke-width="0.5" stroke-miterlimit="10" d="M58.621,72.888l53.303,40.64"/>
<path fill="#397F48" d="M130.748,130.336c18.525,0,33.543-15.018,33.543-33.542c0-18.525-15.018-33.543-33.543-33.543
	S97.205,78.268,97.205,96.793C97.205,115.318,112.223,130.336,130.748,130.336z"/>
<path fill="#FFFFFF" stroke="#6D6F72" stroke-width="0.25" stroke-miterlimit="10" d="M130.748,128.543
	c18.525,0,33.543-15.018,33.543-33.542c0-18.525-15.018-33.543-33.543-33.543S97.205,76.475,97.205,95
	C97.205,113.525,112.223,128.543,130.748,128.543z"/>
<path fill="none" stroke="#6D6F72" stroke-width="0.5" stroke-miterlimit="10" d="M130.747,61.496v67.012"/>
<path fill="#FFFFFF" d="M48.306,177.743H44.5V175.5h10.364v2.243h-3.806v9.651h-2.752V177.743z"/>
<path fill="#FFFFFF" d="M64.601,184.846h-5.522l-1.054,2.549h-2.82l5.301-11.895h2.718l5.318,11.895h-2.889L64.601,184.846z
	 M63.734,182.755l-1.886-4.553l-1.886,4.553H63.734z"/>
<path fill="#FFFFFF" d="M79.529,181.209c0.68,0.215,1.212,0.578,1.597,1.087c0.385,0.499,0.578,1.116,0.578,1.853
	c0,1.043-0.408,1.847-1.224,2.412c-0.804,0.556-1.982,0.834-3.534,0.834h-6.151V175.5h5.811c1.45,0,2.56,0.277,3.33,0.833
	c0.782,0.556,1.172,1.308,1.172,2.259c0,0.578-0.142,1.094-0.425,1.547C80.413,180.592,80.028,180.948,79.529,181.209z
	 M73.531,177.573v2.803h2.736c0.68,0,1.195-0.119,1.546-0.356s0.527-0.588,0.527-1.054c0-0.464-0.176-0.81-0.527-1.036
	c-0.351-0.238-0.866-0.356-1.546-0.356H73.531z M76.743,185.32c0.725,0,1.269-0.118,1.631-0.356
	c0.374-0.237,0.561-0.606,0.561-1.104c0-0.985-0.73-1.479-2.192-1.479h-3.211v2.939H76.743z"/>
<path fill="#FFFFFF" d="M84.808,175.5h2.752v9.65h5.964v2.244h-8.716V175.5z"/>
<path fill="#FFFFFF" d="M105.291,185.186v2.209h-9.209V175.5h8.988v2.209h-6.252v2.582h5.522v2.141h-5.522v2.754H105.291z"/>
<path fill="#FFFFFF" d="M110.964,177.743h-3.806V175.5h10.364v2.243h-3.805v9.651h-2.753V177.743z"/>
<path fill="#FFFFFF" d="M124.355,182.721l-1.598,1.665v3.009h-2.735V175.5h2.735v5.557l5.268-5.557h3.059l-4.928,5.301l5.217,6.594
	h-3.211L124.355,182.721z"/>
<path fill="#FFFFFF" d="M133.619,175.5h2.753v11.895h-2.753V175.5z"/>
<path fill="#FFFFFF" d="M141.029,187.529c-0.464,0-0.855-0.158-1.172-0.475c-0.317-0.318-0.477-0.715-0.477-1.189
	c0-0.488,0.159-0.879,0.477-1.174c0.316-0.306,0.708-0.459,1.172-0.459c0.465,0,0.855,0.153,1.173,0.459
	c0.317,0.295,0.476,0.686,0.476,1.174c0,0.475-0.158,0.871-0.476,1.189C141.885,187.371,141.494,187.529,141.029,187.529z"/>
<path fill="#FFFFFF" d="M150.848,187.598c-1.699,0-3.023-0.47-3.975-1.41c-0.941-0.94-1.411-2.283-1.411-4.027v-6.66h2.753v6.559
	c0,2.129,0.883,3.194,2.65,3.194c0.861,0,1.518-0.255,1.971-0.765c0.454-0.521,0.68-1.331,0.68-2.43V175.5h2.719v6.66
	c0,1.744-0.476,3.087-1.428,4.027C153.867,187.128,152.548,187.598,150.848,187.598z"/>
<path fill="#FFFFFF" d="M167.559,184.846h-5.522l-1.054,2.549h-2.82l5.301-11.895h2.719l5.318,11.895h-2.889L167.559,184.846z
	 M166.691,182.755l-1.885-4.553l-1.887,4.553H166.691z"/>
</svg>
