<?xml version="1.0" encoding="utf-8"?>
<!DOCTYPE svg PUBLIC "-//W3C//DTD SVG 1.1//EN" "http://www.w3.org/Graphics/SVG/1.1/DTD/svg11.dtd">
<svg version="1.1" xmlns="http://www.w3.org/2000/svg" xmlns:xlink="http://www.w3.org/1999/xlink" x="0px" y="0px" width="216px"
	 height="216px" viewBox="0 0 216 216" enable-background="new 0 0 216 216" xml:space="preserve">
<g>
	<g>
		<g>
			<polygon id="path-1_00000065076939905435381250000012110445805232613782_" fill="#FFFFFF" points="1.561,21.045 215.528,21.045 
				215.528,196.047 1.561,196.047 			"/>
		</g>
		<g id="IHG-BB-Holiday-Inn">
			<g id="Logo" transform="translate(25.000000, 4.000000)">
				<path id="Fill-1" fill="#4F9E34" d="M102.157,61.231c-1.39,4.986-2.779,10.438-4.35,16.699
					c-2.663,10.497-7.594,37.633-9.102,55.549c-0.813,0.35-3.13,0.699-4.233,0.699c-3.595,0-7.886-2.205-8.175-8.004
					c-0.348-7.132,3.826-33.458,10.087-57.928c0.177-0.754,0.408-1.507,0.581-2.261c-8.118,2.783-15.598,5.683-22.439,8.64
					c-2.552,11.074-5.916,28.064-7.133,44.882c-0.291,0.289-2.609,0.636-3.77,0.636c-4.29,0-7.305-2.898-7.305-7.771
					c0.058-9.566,2.146-22.149,4.001-31.195c-9.104,4.464-15.947,8.292-19.774,10.611c-0.695-1.276-0.87-3.421-0.753-4.407
					c0.231-1.449,1.043-4.64,4.58-7.016c5.625-3.885,11.829-7.712,18.671-11.307c3.537-14.265,8.234-28.703,12.235-37.285
					c2.552-5.508,5.8-7.653,11.424-7.653c1.449,0,3.537,0.347,4.58,0.695c-5.045,11.019-9.858,24.123-13.511,37.112
					c6.958-3.015,14.496-5.915,22.672-8.582c3.944-13.859,7.597-23.833,10.903-30.152c2.086-3.944,5.564-5.509,8.697-5.915
					c2.726-0.348,5.158,0,7.363,0.579c-5.219,12.41-8.583,21.514-11.539,30.964c5.623-1.507,11.539-2.898,17.742-4.232
					c3.364-0.696,15.599-2.9,17.861,8.929C127.73,54.969,114.449,57.81,102.157,61.231L102.157,61.231z M48.465,150.066
					c-2.146,0-4.233,1.971-4.233,4.172c0,1.624,1.16,2.726,2.725,2.726c2.146,0,4.291-1.971,4.291-4.173
					C51.247,151.167,50.087,150.066,48.465,150.066L48.465,150.066z M33.852,151.979c-1.218,5.854-5.045,24.354-5.045,24.354
					c-0.231,1.043-1.623,6.319,3.943,6.319h0.812l7.307-35.427C40.925,147.226,35.012,146.18,33.852,151.979L33.852,151.979z
					 M42.549,164.329c-1.218,5.742-2.494,12.004-2.494,12.004c-0.231,1.043-1.623,6.319,3.943,6.319h0.812l4.755-23.019
					C49.334,159.634,43.709,158.648,42.549,164.329L42.549,164.329z M26.372,167.462c0,4.927-2.03,9.567-5.451,12.351
					c-2.204,1.797-5.044,2.897-8.35,2.897c-5.161,0-8.871-2.782-8.871-8.235c0-4.869,2.028-9.507,5.45-12.293
					c2.203-1.794,5.103-2.897,8.35-2.897C22.602,159.227,26.372,162.013,26.372,167.462L26.372,167.462z M20.108,167.462
					c0-2.436-0.928-4.176-3.362-4.176c-1.508,0-2.899,0.87-3.943,2.205c-1.915,2.433-2.9,6.259-2.9,8.868
					c0,2.439,0.985,4.179,3.421,4.179c1.507,0,2.841-0.87,3.885-2.205C19.123,173.955,20.108,170.071,20.108,167.462L20.108,167.462
					z M136.659,150.471c-0.927,4.291-5.334,25.862-5.334,25.862c-0.289,1.217-1.505,6.319,3.944,6.319h0.809l7.54-36.762
					C142.229,145.656,137.648,145.656,136.659,150.471L136.659,150.471z M158.404,159.227c-2.956,0-5.45,1.331-7.074,3.132
					c0,0-0.23-4.464-6.146-2.67c1.043,3.133,0.462,4.233-0.697,10.556l-1.273,6.089c-0.231,1.043-1.624,6.319,3.94,6.319h0.813
					l2.205-10.61c0.639-2.841,1.739-8.235,6.027-8.235c2.147,0,3.248,1.335,2.555,4.579l-1.624,7.947
					c-0.23,1.043-1.624,6.319,3.941,6.319h0.813l3.014-14.497C166.29,161.951,163.104,159.227,158.404,159.227L158.404,159.227z
					 M-1.868,150.705c-0.29,1.332-0.87,4.288-1.914,9.103l-10.263,2.028l3.015-14.61c-0.927-0.177-6.03-0.584-7.074,4.754
					c-0.348,1.682-5.045,24.354-5.045,24.354c-0.232,1.158-1.624,6.319,3.943,6.319h0.87l2.958-14.382l10.262-2.028
					c-1.043,4.93-2.086,10.091-2.086,10.091c-0.233,1.043-1.624,6.319,3.943,6.319h0.812l7.595-36.762
					C5.207,145.891-0.649,144.848-1.868,150.705L-1.868,150.705z M183.628,159.227c-2.956,0-5.45,1.331-7.074,3.132
					c0,0-0.23-4.464-6.146-2.67c1.043,3.133,0.462,4.233-0.697,10.556l-1.273,6.089c-0.231,1.043-1.624,6.319,3.941,6.319h0.812
					l2.205-10.61c0.639-2.841,1.739-8.235,6.027-8.235c2.147,0,3.248,1.335,2.555,4.579l-1.624,7.947
					c-0.23,1.043-1.624,6.319,3.941,6.319h0.813l3.014-14.497C191.514,161.951,188.327,159.227,183.628,159.227L183.628,159.227z
					 M67.425,163.518c-0.348-0.174-1.101-0.351-1.797-0.351c-4.755,0-8.582,5.804-8.582,11.253c0,2.664,1.218,4.118,3.306,4.118
					c1.507,0,2.494-0.584,3.364-1.509c0.812-0.985,1.391-2.436,1.739-4.117L67.425,163.518z M76.877,147.226l-7.307,35.427h-0.812
					c-1.855,0-3.479-0.696-4.058-2.375c-1.276,1.332-3.479,2.375-6.262,2.375c-4.64,0-7.713-3.129-7.713-8.116
					c0-8.121,6.32-15.31,15.192-15.31c0.87,0,1.797,0.058,2.319,0.23c-0.058,0.292,0.985-4.58,1.509-7.362
					C70.904,146.356,76.355,147.165,76.877,147.226L76.877,147.226z M98.446,161.373l-4.406,21.279h-0.813
					c-1.854,0-3.479-0.635-4.057-2.375c-1.277,1.332-3.479,2.375-6.263,2.375c-4.639,0-7.48-3.074-7.48-8.059
					c0-8.524,6.726-15.367,15.191-15.367C93.574,159.227,96.13,160.096,98.446,161.373L98.446,161.373z M91.954,163.518
					c-0.404-0.174-0.813-0.351-1.394-0.351c-5.392,0-8.813,6.497-8.813,11.253c0,2.664,1.045,4.057,3.13,4.057
					c1.507,0,2.554-0.577,3.424-1.508c0.809-0.985,1.332-2.433,1.739-4.115L91.954,163.518z M116.828,164.561
					c1.277-5.857,7.188-4.872,7.188-4.872l-4.172,19.601c-0.812,3.944-1.971,6.728-3.771,8.816
					c-2.201,2.491-5.738,3.999-10.145,3.999c-5.161,0-9.045-2.32-9.045-6.204c0-2.667,1.679-4.521,5.273-5.392
					c-0.925-1.047-1.506-2.378-1.506-4.061c0-1.158,0.289-2.551,0.581-3.944c0,0,0.231-1.101,1.624-7.536
					c1.39-6.496,7.244-5.279,7.244-5.279l-2.725,12.992c-0.231,1.101-1.447,5.392,2.439,5.392c4.349,0,5.334-5.392,5.97-8.232
					C115.727,169.84,115.611,170.418,116.828,164.561L116.828,164.561z M113.41,180.447c-1.22,1.047-3.31,1.624-5.685,1.917
					c-3.363,0.346-5.623,0.927-5.623,3.248c0,1.794,1.739,2.84,3.884,2.84c1.739,0,3.306-0.581,4.464-1.682
					c1.22-1.158,2.028-2.782,2.494-4.638L113.41,180.447z"/>
			</g>
		</g>
	</g>
</g>
</svg>
