<?xml version="1.0" encoding="utf-8"?>
<!DOCTYPE svg PUBLIC "-//W3C//DTD SVG 1.1//EN" "http://www.w3.org/Graphics/SVG/1.1/DTD/svg11.dtd">
<svg version="1.1" id="Layer_1" xmlns="http://www.w3.org/2000/svg" xmlns:xlink="http://www.w3.org/1999/xlink" x="0px" y="0px" width="500px" height="190px" viewBox="0 0 500 190" enable-background="new 0 0 500 190" xml:space="preserve">
<g>
	<path fill="#1DB7ED" d="M248.641,56.029h-20.276c-0.629,0-1.166,0.222-1.61,0.672c-0.45,0.436-0.669,0.978-0.669,1.61v28.758
		c0,1.077,0.917,2.286,2.331,2.286c1.431,0,2.331-1.209,2.331-2.286V74.604h15.764c0.888,0,2.169-0.704,2.169-2.173
		c0-1.434-1.247-2.164-2.169-2.164h-15.764v-9.857h17.893c0.987,0,2.187-0.794,2.187-2.19
		C250.827,56.768,249.604,56.029,248.641,56.029z"/>
	<path fill="#1DB7ED" d="M279.39,87.569c2.446-1.5,4.356-3.557,5.741-6.163c1.385-2.605,2.066-5.51,2.066-8.71
		c0-3.208-0.682-6.113-2.066-8.722c-1.385-2.6-3.295-4.651-5.741-6.162c-2.446-1.509-5.204-2.253-8.286-2.253
		c-3.081,0-5.845,0.744-8.274,2.253c-2.458,1.512-4.368,3.563-5.747,6.162c-1.379,2.608-2.066,5.513-2.066,8.722
		c0,3.2,0.688,6.105,2.066,8.71c1.379,2.605,3.289,4.663,5.747,6.163c2.43,1.515,5.193,2.265,8.274,2.265
		C274.186,89.833,276.943,89.084,279.39,87.569z M261.347,79.142c-0.952-1.919-1.432-4.065-1.432-6.445
		c0-2.417,0.479-4.578,1.432-6.5c0.952-1.924,2.273-3.424,3.976-4.504c1.696-1.076,3.629-1.613,5.781-1.613
		c2.158,0,4.092,0.542,5.794,1.639c1.685,1.093,3.017,2.605,3.97,4.521c0.952,1.919,1.425,4.074,1.425,6.457
		c0,2.38-0.474,4.527-1.425,6.445c-0.953,1.93-2.285,3.431-3.97,4.527c-1.702,1.091-3.636,1.639-5.794,1.639
		c-2.152,0-4.085-0.548-5.781-1.639C263.62,82.572,262.299,81.072,261.347,79.142z"/>
	<path fill="#1DB7ED" d="M355.308,64.289c-1.079-2.519-2.683-4.529-4.806-6.018c-2.123-1.492-4.674-2.242-7.663-2.242H330.52
		c-0.641,0-1.166,0.222-1.621,0.672c-0.444,0.436-0.664,0.978-0.664,1.61V87.07c0,0.632,0.22,1.18,0.664,1.619
		c0.455,0.45,0.98,0.667,1.621,0.667h12.319c2.989,0,5.54-0.733,7.663-2.21c2.123-1.475,3.728-3.477,4.806-6.007
		c1.073-2.516,1.622-5.334,1.622-8.441C356.93,69.621,356.381,66.811,355.308,64.289z M349.647,81.527
		c-1.621,2.299-4.057,3.451-7.282,3.451h-9.429V60.409h9.429c3.202,0,5.62,1.154,7.259,3.476c1.628,2.317,2.44,5.254,2.44,8.811
		C352.064,76.277,351.264,79.222,349.647,81.527z"/>
	<path fill="#6BD333" d="M241.208,99.98c-2.123-1.494-4.685-2.245-7.663-2.245h-12.319c-0.635,0-1.177,0.231-1.621,0.676
		c-0.444,0.438-0.664,0.975-0.664,1.615v28.765c0,0.623,0.219,1.166,0.664,1.609c0.444,0.451,0.987,0.664,1.621,0.664h12.319
		c2.978,0,5.54-0.727,7.663-2.216c2.129-1.465,3.722-3.468,4.813-5.989c1.073-2.527,1.622-5.343,1.622-8.447
		c0-3.087-0.548-5.885-1.622-8.401C244.93,103.483,243.338,101.475,241.208,99.98z M240.354,123.24
		c-1.61,2.297-4.045,3.45-7.282,3.45h-9.422v-24.563h9.422c3.209,0,5.626,1.16,7.259,3.474c1.622,2.314,2.447,5.257,2.447,8.812
		C242.778,117.995,241.976,120.938,240.354,123.24z"/>
	<path fill="#6BD333" d="M209.432,102.196c1.143,0,2.181-0.935,2.181-2.141c0-1.431-1.137-2.238-2.181-2.238h-19.78
		c-0.624,0-1.154,0.23-1.61,0.669c-0.439,0.45-0.669,0.993-0.669,1.627v28.747c0,0.646,0.231,1.177,0.669,1.621
		c0.456,0.444,0.986,0.67,1.61,0.67h19.78c1.495,0,2.181-1.321,2.181-2.141c0-1.113-0.86-2.233-2.181-2.233h-17.351v-10.53h15.239
		c1.097,0,2.158-0.865,2.158-2.141c0-1.194-0.94-2.187-2.158-2.187h-15.239v-9.723L209.432,102.196L209.432,102.196z"/>
	<path fill="#1DB7ED" d="M299.251,87.069V76.357l5.055-0.012l12.181,12.175c0.636,0.637,2.136,1.096,3.267-0.032
		c1.016-1.019,0.79-2.501,0.028-3.271l-8.892-8.889c9.631-0.292,10.271-8.84,10.271-10.591c0-6.09-4.818-9.708-9.429-9.708h-14.904
		c-0.635,0-1.172,0.222-1.615,0.672c-0.444,0.436-0.664,0.978-0.664,1.61v28.758c0,1.077,0.911,2.286,2.349,2.286
		C298.334,89.355,299.251,88.146,299.251,87.069z M299.251,60.409h11.633c4.08,0,5.413,3.199,5.413,5.328
		c0,4.558-2.856,6.63-6.498,6.63h-10.548V60.409z"/>
	<path fill="#6BD333" d="M352.516,126.726H337.98v-26.612c0-0.635-0.225-1.177-0.692-1.627c-0.462-0.438-1.011-0.67-1.639-0.67
		c-0.704,0-1.27,0.231-1.708,0.67c-0.444,0.45-0.67,0.992-0.67,1.627v28.747c0,0.646,0.202,1.177,0.641,1.621
		c0.427,0.444,0.976,0.67,1.645,0.67h16.959c0.675,0,1.217-0.214,1.65-0.618c0.433-0.416,0.64-0.935,0.64-1.568
		c0-0.671-0.207-1.212-0.64-1.628C353.732,126.933,353.19,126.726,352.516,126.726z"/>
	<path fill="#6BD333" d="M257.757,97.816c-0.709,0-1.269,0.231-1.713,0.67c-0.444,0.45-0.675,0.992-0.675,1.627v28.747
		c0,0.635,0.23,1.177,0.697,1.627c0.456,0.438,0.999,0.664,1.64,0.664c0.703,0,1.258-0.226,1.702-0.664
		c0.449-0.45,0.675-0.992,0.675-1.627v-28.747c0-0.635-0.226-1.177-0.692-1.627C258.94,98.048,258.386,97.816,257.757,97.816z"/>
	<path fill="#1DB7ED" d="M204.989,72.696l12.533-12.536c0.635-0.638,1.091-2.138-0.04-3.263c-1.004-1.019-2.487-0.796-3.26-0.035
		l-12.527,12.53l-12.527-12.53c-0.646-0.638-2.146-1.096-3.271,0.032c-1.016,1.021-0.797,2.504-0.041,3.266l12.539,12.536
		l-12.539,12.522c-0.629,0.644-1.085,2.143,0.041,3.271c1.021,1.016,2.504,0.797,3.271,0.032l12.527-12.53l12.527,12.53
		c0.641,0.637,2.146,1.096,3.26-0.032c1.021-1.019,0.802-2.501,0.041-3.271L204.989,72.696z"/>
	<path fill="#6BD333" d="M177.119,97.984c-0.052-0.018-0.098-0.035-0.15-0.053c-0.087-0.022-0.173-0.052-0.259-0.068
		c-0.104-0.012-0.208-0.023-0.306-0.029c-0.046-0.006-0.086-0.017-0.133-0.017c-0.018,0-0.023,0.006-0.04,0.006
		c-0.11,0.005-0.219,0.017-0.323,0.04c-0.121,0.018-0.225,0.046-0.329,0.08c-0.087,0.023-0.167,0.047-0.249,0.087
		c-0.046,0.018-0.081,0.041-0.121,0.063c-0.104,0.059-0.202,0.115-0.294,0.179c-0.023,0.018-0.046,0.034-0.069,0.053
		c-0.058,0.051-0.116,0.092-0.179,0.149l-11.823,11.823l-11.817-11.823c-0.052-0.046-0.109-0.093-0.173-0.138
		c-0.023-0.024-0.046-0.047-0.081-0.069c-0.046-0.029-0.092-0.059-0.144-0.087c-0.34-0.214-0.739-0.363-1.2-0.363
		c-1.448,0-2.36,1.223-2.36,2.319v28.701c0,1.096,0.935,2.313,2.36,2.313c1.448,0,2.36-1.218,2.36-2.313v-12.592v-10.409l7.98,7.98
		c1.518,1.604,2.245,1.944,3.076,1.944c0.802,0,1.396-0.219,3.082-1.944l7.992-7.992v10.421v12.592c0,1.096,0.9,2.313,2.354,2.313
		c1.425,0,2.36-1.218,2.36-2.313v-28.701C178.631,99.276,178.06,98.348,177.119,97.984z"/>
	<path fill="#6BD333" d="M278.34,103.414c1.823-1.045,3.929-1.569,6.313-1.569c2.285,0,4.414,0.577,6.382,1.685
		c0.409,0.22,0.744,0.341,1.194,0.341c0.824,0,2.272-0.687,2.272-2.279c0-0.854-0.433-1.569-1.193-1.979
		c-2.694-1.529-5.58-2.291-8.655-2.291c-3.208,0-6.105,0.739-8.69,2.216c-2.585,1.478-4.61,3.509-6.094,6.094
		c-1.472,2.585-2.21,5.481-2.21,8.69c0,3.484,0.768,6.531,2.308,9.134c1.541,2.603,3.607,4.588,6.187,5.949
		c2.59,1.367,5.418,2.043,8.499,2.043c1.488,0,3.006-0.208,4.541-0.617c1.54-0.41,2.926-0.964,4.166-1.662
		c0.346-0.19,1.142-0.797,1.142-1.968c0-1.65-1.523-2.273-2.221-2.273c-0.646,0-0.877,0.15-1.258,0.341
		c-1.898,1.137-4.028,1.713-6.371,1.713c-2.29,0-4.344-0.501-6.186-1.5c-1.846-1.004-3.288-2.458-4.327-4.356
		c-1.056-1.904-1.575-4.172-1.575-6.803c0-2.446,0.502-4.61,1.518-6.497C275.104,105.93,276.516,104.464,278.34,103.414z"/>
	<path fill="#6BD333" d="M315.534,99.028c-0.3-0.716-1.212-1.425-2.4-1.425c-1.183,0-2.101,0.709-2.4,1.425l-12.625,29.036
		c-0.438,1.004-0.093,2.492,1.24,3.069c1.477,0.636,2.724-0.352,3.087-1.188l3.007-6.924h15.377v-0.006l3.013,6.93
		c0.363,0.837,1.61,1.823,3.087,1.188c1.339-0.577,1.68-2.065,1.246-3.069L315.534,99.028z M307.294,118.774l5.84-13.451
		l5.845,13.451H307.294z"/>
	<path fill="#1DB7ED" d="M165.128,54.708c-0.687-0.646-1.5-0.94-2.273-0.94c-0.802,0-1.616,0.294-2.314,0.98l-15.417,15.421
		c-0.052,0.049-1.194,0.975-1.194,2.527c0,1.425,0.906,2.23,0.981,2.302l15.412,15.418c0.052,0.049,0.958,1.203,2.516,1.203
		c1.35,0,2.25-0.903,2.326-0.981c0,0,15.631-15.608,15.695-15.694c0.623-0.667,0.929-1.475,0.929-2.248
		c0-1.154-0.548-1.806-1.032-2.363C180.697,70.253,165.128,54.708,165.128,54.708z M162.855,86.155l-13.457-13.458l13.456-13.468
		l13.468,13.468L162.855,86.155z"/>
</g>
</svg>
