<?xml version="1.0" encoding="utf-8"?>
<!DOCTYPE svg PUBLIC "-//W3C//DTD SVG 1.1//EN" "http://www.w3.org/Graphics/SVG/1.1/DTD/svg11.dtd">
<svg version="1.1" id="Layer_1" xmlns="http://www.w3.org/2000/svg" xmlns:xlink="http://www.w3.org/1999/xlink" x="0px" y="0px" width="216px" height="216px" viewBox="0 0 216 216" enable-background="new 0 0 216 216" xml:space="preserve">
<path d="M181.314,173.25v-28.411H169.59v28.411H181.314z M119.243,161.452V145.27h-11.365v12.371c0,3.595-0.143,4.603-0.358,5.539
	c-0.792,2.589-3.525,3.737-6.33,3.737c-3.883,0-5.681-1.509-6.401-3.882c-0.215-0.789-0.288-1.653-0.359-2.517
	c-0.071-0.935,0-1.942,0-3.021V145.27H82.922v16.257c0,3.669,1.224,6.402,3.237,8.271c3.451,3.383,9.277,4.389,14.672,4.389
	c6.544,0,11.579-0.936,15.176-4.459C117.877,167.927,119.243,165.555,119.243,161.452L119.243,161.452z M63.43,159.438
	c-0.57-0.098-1.147-0.146-1.725-0.142H48.758c-0.648,0-1.368,0.072-1.728,0.142c0.215-0.216,0.648-0.645,1.079-1.222l5.826-9.638
	c0.792-1.295,1.15-2.156,1.294-2.517c0.144,0.36,0.503,1.222,1.294,2.591l5.97,9.71C62.783,158.793,63.214,159.222,63.43,159.438
	L63.43,159.438z M85.15,173.25l-25.893-38.838H44.73l3.811,4.531c0.072,0.069,0.217,0.142,0.36,0.216
	c-0.145,0.072-0.288,0.143-0.36,0.215L25.958,173.25h13.089l3.525-5.828c0.145-0.286,0.216-0.575,0.216-0.717
	c0.144,0,0.505,0.142,0.864,0.142h23.375c0.36,0,0.647-0.072,0.791-0.142c-0.014,0.201,0.037,0.402,0.144,0.574l3.669,5.971H85.15
	L85.15,173.25z M166.427,158.65c0-3.166-1.296-6.836-5.323-11.942l-9.71-12.298h-13.522l7.695,8.631
	c1.296,1.439,2.949,2.731,2.949,2.731c-1.869-1.08-4.242-1.509-6.112-1.509c-4.459,0-8.992,0.936-13.018,3.166
	c-4.317,2.371-7.194,6.327-7.194,11.579c0,4.026,1.799,7.121,4.1,9.493c5.181,5.179,14.601,5.682,18.054,5.682
	c5.104,0,13.089-1.15,17.622-5.251C164.629,166.488,166.427,163.109,166.427,158.65L166.427,158.65z M155.205,159.009
	c0,2.948-1.943,5.177-4.388,6.399c-2.015,1.08-4.388,1.368-6.473,1.368c-2.086,0-4.531-0.433-6.546-1.438
	c-2.444-1.223-4.315-3.598-4.315-6.187c0-3.092,2.373-5.539,5.18-6.762c1.727-0.789,3.813-1.078,5.465-1.078
	c1.584,0,3.885,0.215,5.684,0.937C153.049,153.612,155.205,156.201,155.205,159.009L155.205,159.009z M177.59,41.815
	c-8.421-0.014-16.599,2.827-23.197,8.059c-6.599-5.232-14.775-8.074-23.198-8.059c-8.42-0.014-16.597,2.828-23.195,8.059
	c-6.598-5.232-14.775-8.074-23.197-8.059c-8.42-0.014-16.597,2.828-23.195,8.059c-6.6-5.231-14.775-8.073-23.197-8.059
	C17.746,41.815,1,58.56,1,79.226c0,20.664,16.745,37.41,37.411,37.41c8.421,0.013,16.597-2.827,23.197-8.059
	c6.598,5.231,14.775,8.073,23.195,8.059c8.421,0.015,16.599-2.827,23.197-8.059c6.599,5.231,14.775,8.071,23.195,8.059
	c8.423,0.015,16.6-2.827,23.198-8.059c6.598,5.231,14.776,8.073,23.197,8.059c20.665,0,37.41-16.746,37.41-37.41
	C215,58.561,198.255,41.815,177.59,41.815z M55.485,102.465c-4.767,3.478-10.722,5.601-17.075,5.601
	c-15.941,0-28.841-12.899-28.841-28.84c0-15.942,12.899-28.841,28.841-28.841c6.353,0,12.304,2.123,17.075,5.602
	c-5.256,6.604-8.109,14.799-8.092,23.239C47.397,87.663,50.249,95.851,55.485,102.465z M61.608,96.361
	c-3.677-4.956-5.656-10.965-5.644-17.135c-0.015-6.172,1.964-12.182,5.644-17.137c3.679,4.955,5.658,10.965,5.643,17.137
	C67.263,85.396,65.284,91.405,61.608,96.361z M101.879,102.465c-4.954,3.646-10.946,5.607-17.096,5.592
	c-6.138,0.013-12.116-1.949-17.056-5.592c5.238-6.614,8.089-14.803,8.092-23.239c0.018-8.44-2.835-16.636-8.092-23.239
	c4.938-3.644,10.918-5.605,17.056-5.592c6.399,0,12.311,2.07,17.096,5.592c-5.257,6.604-8.11,14.799-8.093,23.239
	C93.79,87.663,96.642,95.852,101.879,102.465z M107.999,96.361c-3.677-4.956-5.656-10.965-5.644-17.135
	c-0.015-6.172,1.965-12.182,5.644-17.137c3.68,4.955,5.66,10.965,5.646,17.137C113.656,85.396,111.676,91.405,107.999,96.361z
	 M148.271,102.465c-4.786,3.523-10.697,5.592-17.095,5.592s-12.271-2.072-17.057-5.592c5.238-6.614,8.09-14.803,8.092-23.239
	c0.019-8.44-2.835-16.636-8.092-23.239c4.785-3.521,10.659-5.592,17.057-5.592s12.309,2.07,17.095,5.592
	c-5.256,6.604-8.109,14.799-8.092,23.239C140.184,87.663,143.034,95.852,148.271,102.465z M154.394,96.361
	c-3.677-4.956-5.656-10.965-5.644-17.135c-0.016-6.172,1.963-12.182,5.644-17.137c3.679,4.955,5.659,10.965,5.644,17.137
	C160.048,85.396,158.069,91.405,154.394,96.361z M177.59,108.066c-6.355,0-12.31-2.123-17.075-5.601
	c5.237-6.614,8.089-14.803,8.093-23.239c0.017-8.44-2.838-16.635-8.093-23.239c4.771-3.477,10.721-5.602,17.075-5.602
	c15.938,0,28.841,12.899,28.841,28.841C206.431,95.165,193.528,108.066,177.59,108.066z"/>

</svg>
