<?xml version="1.0" encoding="utf-8"?>
<!DOCTYPE svg PUBLIC "-//W3C//DTD SVG 1.1//EN" "http://www.w3.org/Graphics/SVG/1.1/DTD/svg11.dtd">
<svg version="1.1" id="Layer_1" xmlns="http://www.w3.org/2000/svg" xmlns:xlink="http://www.w3.org/1999/xlink" x="0px" y="0px" width="216px" height="216px" viewBox="0 0 216 216" enable-background="new 0 0 216 216" xml:space="preserve">
<g>
	<path fill="#526075" d="M1,1h214v214H1V1z"/>
	<path fill="#FFFFFF" d="M61.102,138.335c0-1.922-0.825-2.883-2.47-2.883c-1.373,0-2.059,0.823-1.92,2.608
		c-0.139,2.06,0.686,3.019,2.47,3.019C60.416,140.943,61.102,140.12,61.102,138.335z M58.769,141.491
		c-2.058-0.136-3.157-1.235-3.157-3.294c-0.138-2.059,0.959-3.157,3.157-3.157c2.333,0,3.431,0.961,3.431,3.021
		C62.2,140.393,61.102,141.491,58.769,141.491L58.769,141.491z M53.003,135.316l-0.274,0.547v4.803l0.411,0.549h0.412v0.14h-2.607
		l0.137-0.14h0.274l0.275-0.549v-2.47h-3.156v2.47l0.411,0.549h0.413v0.14h-2.608l0.138-0.14h0.274l0.275-0.549v-4.803l-0.412-0.547
		h-0.274v-0.138h2.334l0.137,0.138h-0.412l-0.274,0.547v1.784h3.156v-1.784c0-0.274-0.137-0.411-0.274-0.547h-0.412l0.137-0.138
		h2.196l0.276,0.138H53.003L53.003,135.316z M87.726,136.276l0.823,1.098l0.137,0.275c0.824,0.686,1.234,1.372,1.372,2.059
		c0,0.685-0.273,1.097-0.686,1.508L88,141.491l-1.236-0.275l-0.137-0.272v-1.1l0.137-0.136l0.138,0.136l0.136,0.412
		c0.139,0.549,0.412,0.823,1.098,0.823s1.098-0.274,1.098-0.959l-0.823-1.373l-0.412-0.273c-0.686-0.55-1.098-1.099-1.098-1.784
		c-0.138-1.099,0.548-1.647,1.783-1.647l1.234,0.14v1.096l-0.136,0.274l-0.139-0.137l-0.137-0.549l-0.823-0.412
		C88,135.452,87.726,135.729,87.726,136.276L87.726,136.276z M68.238,135.59H67.14v5.078l0.274,0.548h0.549v0.14h-2.607l0.138-0.14
		h0.274l0.275-0.548v-5.078h-1.098l-0.823,0.275l-0.138,0.273l-0.138,0.138l-0.137-0.274l0.274-0.821l0.138-0.14h0.275l4.117,0.14
		l0.823-0.14v1.372l-0.275-0.274v-0.137C69.06,135.865,68.787,135.729,68.238,135.59L68.238,135.59z M73.863,135.729v2.058h1.374
		l0.411-0.137h0.139v1.097l-0.139,0.275l-0.137-0.14v-0.272l-0.412-0.412h-1.236v2.059l0.962,0.688h0.822l0.275-0.688l0.137-0.136
		l0.137,0.136l-0.274,0.96l-0.412,0.14h-3.431l0.136-0.14h0.276l0.273-0.548v-4.803c0-0.275-0.137-0.412-0.273-0.548h-0.549
		l0.274-0.137h3.294l0.276-0.14h0.137v1.235l-0.137,0.137v-0.274l-0.139-0.273l-0.549-0.275h-1.236V135.729L73.863,135.729z
		 M79.491,135.179h2.333l0.137,0.138h-0.412l-0.412,0.547v3.158l0.276,1.645l0.96,0.276l0.96-0.276l0.138-0.411l0.138-0.136
		l0.136,0.136l-0.274,0.96l-0.412,0.14h-3.568v-0.14h0.412l0.274-0.549v-4.803l-0.413-0.547H79.49L79.491,135.179L79.491,135.179
		L79.491,135.179z M101.449,140.943l1.236-0.551l-2.334-2.332l-0.549,1.234C99.802,140.393,100.351,140.943,101.449,140.943z
		 M102.685,135.452v1.235l-0.138-0.275l-0.138-0.685l-0.962-0.275c-0.686,0-0.959,0.275-0.959,0.96l1.509,2.06l1.373,1.37
		l0.411-1.233l-0.138-0.412l-0.412-0.137h-0.136h1.098l0.275,0.137c0,0.685-0.275,1.233-0.687,1.921l1.098,0.824l0.824,0.272
		l0.137,0.14h-0.823c-0.687,0-1.372-0.276-1.922-0.688c-0.633,0.393-1.33,0.671-2.058,0.825c-1.51-0.137-2.196-0.688-2.196-1.784
		c0-0.961,0.412-1.646,1.236-2.06l-0.411-1.099c0-0.96,0.686-1.509,2.058-1.509l0.961,0.139L102.685,135.452L102.685,135.452z
		 M68.101,102.378c0.959,0,2.058-0.824,3.568-2.334c1.509-1.646,2.195-3.019,2.195-3.979c0-0.412-0.273-0.687-0.685-0.687
		c-0.823,0-1.921,0.96-3.157,2.745C68.923,99.771,68.238,101.143,68.101,102.378L68.101,102.378z M53.965,82.34
		c-2.47,0.412-4.53,1.374-6.038,2.746c-1.92,1.646-2.882,3.706-2.882,6.038c-0.137,0.686,0,1.373,0.412,2.059l0.55,1.098
		l-0.139,0.273l-1.098-0.822c-0.686-0.824-0.959-1.922-0.822-3.294c0.136-2.746,1.372-5.078,3.705-6.862
		c2.059-1.646,4.53-2.745,7.411-3.157l9.332-1.921c0.549-0.274,0.824-0.137,0.824,0.549l-0.55,0.962
		c-2.196,2.606-3.98,5.214-5.215,7.546l-3.431,5.901l10.019-7.548c11.939-8.92,20.862-13.449,26.9-13.312l3.293,0.686
		c1.235,0.55,1.92,1.372,1.784,2.334c0,0.686-0.137,1.234-0.549,1.784c-0.413,0.412-0.962,0.686-1.51,0.686l-0.274-0.412
		l0.549-1.098l0.412-1.098c0-1.098-1.098-1.646-3.293-1.646c-4.255-0.137-11.392,3.294-21.41,10.155l-11.391,8.234
		c-2.058,1.51-3.019,2.745-3.019,3.568v0.686c2.333,7.411,3.979,12.214,5.215,14.273c2.882,4.803,6.587,7.272,11.115,7.272
		c3.707,0,7.549-1.784,11.254-5.487c0.412-0.275,0.549-0.275,0.549,0l-0.274,0.548c-1.372,1.646-3.156,3.019-5.215,4.255
		c-2.333,1.233-4.528,1.784-6.586,1.784c-6.999-0.139-12.214-4.529-15.509-13.04l-3.568-10.018l-2.196,3.843
		c-4.804,7.548-8.921,12.901-12.214,16.193c-4.254,4.118-8.647,6.175-13.175,6.039c-2.334-0.137-4.667-0.688-6.727-1.784
		c-2.196-1.233-3.292-2.608-3.292-3.979c0-0.824,0.274-1.236,0.96-1.236l0.962,0.275c0.137,1.233,0.412,2.195,0.823,2.743
		c1.509,1.921,3.843,2.882,6.999,3.021c3.294,0.137,6.588-1.373,9.743-4.394c2.882-2.606,6.314-6.86,10.293-12.488l5.626-9.058
		l8.371-14.135L53.965,82.34L53.965,82.34z M179.263,84.126c0.687-0.55,1.097-0.823,1.372-0.823
		c0.412-0.138,0.685,0.136,0.685,0.548l-0.96,1.372l-1.509,0.687c-0.412,0-0.549-0.276-0.549-0.687L179.263,84.126L179.263,84.126z
		 M126.29,86.87l-0.685,1.372l-1.236,0.687c-0.412,0.137-0.688-0.137-0.688-0.548c-0.137-0.413,0.14-0.825,0.824-1.235l1.235-0.824
		L126.29,86.87z M109.547,92.085l-2.883,5.901c2.058-1.509,3.703-2.196,4.94-2.059c1.645,0,2.47,0.824,2.47,2.47
		c0,1.374-1.233,3.294-3.567,5.902c2.606-1.373,5.352-3.293,7.958-5.764l1.647-2.745l1.372-0.412
		c0.824-0.138,1.097,0.137,0.961,0.548c-2.883,4.804-4.255,7.685-4.255,8.647c0,0.686,0.273,0.961,0.686,0.961l2.472-1.646
		l2.332-2.059l4.666-4.94l1.372-1.508c0.824,0,1.235,0.273,1.235,0.822l-1.235,3.294c2.609-2.608,4.667-3.843,6.175-3.843
		c0.824,0,1.235,0.412,1.235,1.098l-0.96,3.568c-0.685,1.783-1.097,2.882-1.097,3.568c0,0.96,0.412,1.372,1.097,1.372
		c1.098,0,2.746-1.372,4.803-3.979l2.334-3.431c-0.137-1.234,0.412-2.333,1.509-3.019c0.824-0.412,1.784-0.686,2.882-0.824
		c0.412-1.235,0.961-2.334,1.921-3.156l11.803-10.705l3.843-4.392l2.334-1.784l0.274,0.411c0.137,0.687-0.274,1.373-0.96,2.334
		l-1.92,2.471l-9.194,18.938l5.076-3.293l2.196-1.372l0.824,0.275v0.412l-5.217,3.293c-0.41,0.276-0.685,0.687-0.685,1.236
		c0,1.235,0.412,2.47,1.097,3.568c1.1,2.058,2.881,3.019,5.214,3.019c1.373,0,3.021-0.687,4.942-2.059l3.157-2.746l3.705-5.489
		l1.37-0.823l1.1-0.275l0.412,0.412l-2.334,3.705c-1.647,2.47-2.472,4.393-2.472,5.627c0,1.098,0.548,1.646,1.647,1.509
		c1.096,0,2.194-0.411,3.293-1.372c2.883-2.058,5.079-4.117,6.588-6.45l0.412-0.55l0.137,0.276c0,0.686-0.96,1.92-2.882,3.979
		l-4.255,3.843c-1.647,1.235-3.293,1.783-4.94,1.783c-0.686,0-1.234-0.136-1.782-0.548c-0.549-0.549-0.823-1.098-0.823-1.783
		l0.411-2.334c-3.431,3.431-6.727,5.079-9.607,5.216c-1.782-0.138-3.432-0.962-4.803-2.47c-1.234-1.647-1.921-3.432-1.921-5.216
		l0.139-1.098l-2.334,5.216c-1.1,2.882-2.197,4.254-3.157,4.254h-0.961c3.019-7.685,6.862-16.193,11.391-25.527l-8.92,7.822
		c-1.509,1.236-2.197,2.196-2.197,3.02c0,0.549,0.412,0.96,1.1,1.373l1.645,0.411l1.236-0.273l0.136,0.412
		c-0.685,0.823-1.645,1.234-3.156,1.234c-0.961,0-1.782-0.275-2.334-0.961l-1.233-0.275c-1.098,0-1.648,0.687-1.648,1.922
		c0,0.274,0.551,1.098,1.784,2.606c0.961,1.235,1.51,2.333,1.51,3.294c-0.012,0.979-0.405,1.915-1.098,2.607
		c-0.823,0.686-1.784,0.961-3.019,0.961l-3.433-0.687l-0.41-0.823c0-0.549,0.273-0.823,0.961-0.685l1.37,0.548
		c0.551,0.412,1.235,0.686,1.92,0.686c1.236,0,1.923-0.549,2.061-1.51l-0.961-1.782l-1.647-1.51l-0.96-1.784l-1.782,2.745
		c-2.746,3.431-5.079,5.215-7,5.215c-1.509,0-2.197-0.823-2.06-2.47c0-0.96,0.551-2.882,1.647-5.763c0.138-0.688,0-0.96-0.688-0.96
		c-1.369,0-2.882,1.372-4.526,4.117l-2.334,4.254c-0.412,0.686-1.235,1.098-2.334,1.098c-0.688,0-0.824-0.138-0.548-0.55
		l4.117-8.234l-3.294,3.568c-3.433,3.294-5.902,4.94-7.411,4.94c-1.098,0-1.648-0.548-1.648-1.646c0-0.686,0.688-2.196,1.921-4.804
		c-4.254,3.156-7.272,5.078-9.057,5.764l-2.196,0.962c-0.687-0.138-1.098-0.276-1.098-0.55c-0.138-0.412,0-0.686,0.412-0.822
		c2.058-1.236,3.433-2.608,4.39-3.843c1.236-1.509,1.784-2.744,1.784-3.43c0-1.098-0.412-1.646-1.233-1.646
		c-0.96,0-1.921,0.549-2.607,1.508l-1.51,2.609l-4.117,9.195c-1.646,3.431-3.156,6.176-4.666,7.959
		c-1.921,2.333-4.255,4.254-7.136,5.626l-1.784,0.549l-0.138-0.137l0.138-0.137c2.881-1.236,5.214-3.158,7.137-5.764
		c1.096-1.647,2.47-4.394,4.254-8.097l2.882-6.863l-0.686,0.823c-2.059,2.334-3.843,3.567-5.353,3.567
		c-1.373,0-1.921-0.686-1.784-2.195l1.236-4.528l0.822-3.02c0-0.549-0.136-0.825-0.549-0.686c-0.549-0.139-1.372,0.411-2.333,1.372
		l-2.058,2.334l-1.92,3.979c-0.412,0.824-1.097,1.236-2.059,1.236l-0.549-0.55l1.235-3.706l1.373-3.979
		c0-0.686-0.275-0.961-0.686-0.961c-1.784,0-3.98,2.059-6.314,6.313l-1.235,3.157c-0.412,0.412-0.823,0.686-1.373,0.686
		c-0.686,0-0.96-0.275-0.96-0.961l1.784-4.941c-1.234,1.784-3.019,3.568-5.352,5.216c-2.606,1.783-4.803,2.606-6.587,2.606
		c-2.882,0-4.254-1.372-4.254-4.254c0-2.333,0.96-4.804,2.744-7.274c1.92-2.607,3.98-3.842,6.176-3.842
		c1.234-0.138,1.92,0.411,1.92,1.508c0,1.51-0.823,3.02-2.607,4.803l-2.607,1.921c-1.235,0.688-2.333,1.098-3.019,0.961v1.509
		c0,1.784,0.824,2.746,2.334,2.882c2.058-0.136,4.254-0.96,6.588-2.47c2.196-1.509,3.979-3.431,5.215-5.764
		c0.275-0.55,0.412-1.097,0.275-1.784l-2.334,1.373l-0.686-0.549c0-0.686,0.825-1.373,2.47-2.059c1.236-0.686,2.333-0.96,3.157-0.96
		l0.411,0.549c0,0.96-0.411,2.607-1.372,4.803c2.196-3.157,4.53-4.803,6.999-4.803c1.509,0,2.058,1.097,1.647,3.43l2.333-2.058
		c0.959-0.824,2.195-1.235,3.43-1.098c0.961,0,1.51,0.549,1.51,1.51l-2.059,6.998c0,0.961,0.274,1.51,0.96,1.51
		c0.55,0,1.372-0.686,2.607-2.059l2.609-4.255l2.196-5.353c0.548-1.508,1.509-2.333,2.745-2.333L109.547,92.085L109.547,92.085z
		 M121.622,135.179h3.294l0.412-0.139v1.235l-0.137,0.137l-0.136-0.274v-0.274l-0.551-0.274h-1.097v2.197h1.235l0.412-0.137h0.272
		l-0.137,0.548v0.549l-0.136,0.275v-0.412l-0.551-0.412h-1.097v2.059c0,0.412,0.272,0.688,0.959,0.688h0.688l0.409-0.688l0.14-0.136
		v0.136l-0.14,0.96l-0.409,0.14h-3.569l0.272-0.14h0.275l0.275-0.548v-4.803l-0.412-0.548h-0.411L121.622,135.179L121.622,135.179z
		 M134.935,138.197c0-2.059,1.235-3.157,3.569-3.157c2.059,0,3.158,0.961,3.158,3.021c0,2.332-1.1,3.431-3.295,3.431
		C136.034,141.355,134.935,140.256,134.935,138.197L134.935,138.197z M140.562,138.335c-0.137-1.922-0.96-2.883-2.471-2.883
		c-1.235,0-1.921,0.823-1.921,2.608c0,2.06,0.825,3.019,2.471,3.019C139.877,140.943,140.425,140.12,140.562,138.335z
		 M131.779,135.865c-0.275-0.275-0.55-0.412-0.96-0.412c-0.688,0-1.1,0.275-0.96,0.823c-0.14,0.274,0.137,0.686,0.821,1.098
		l0.275,0.275c0.823,0.686,1.235,1.372,1.235,2.059c0,0.548-0.275,1.097-0.688,1.508l-1.235,0.275l-1.233-0.275l-0.137-0.272v-1.1
		l0.137-0.136v0.136l0.136,0.412c0.138,0.549,0.412,0.823,1.098,0.823c0.688,0,1.099-0.274,1.235-0.959l-0.96-1.373l-0.275-0.273
		c-0.821-0.55-1.233-1.099-1.233-1.784c-0.137-1.099,0.548-1.647,1.921-1.647l0.96,0.14l0.275,0.137l-0.139,0.959l-0.137,0.274
		v-0.137L131.779,135.865L131.779,135.865z M114.898,135.59l-0.137,0.139v2.471l0.137,0.137h0.549l0.548-0.137l0.549-1.236
		c0-0.96-0.409-1.372-1.372-1.372L114.898,135.59L114.898,135.59L114.898,135.59z M117.505,136.688l-1.097,1.784l1.783,2.195
		l0.961,0.548h0.137l0.139,0.14h-0.963l-0.96-0.14l-1.921-2.334l-0.137-0.136h-0.549l-0.137,0.136l0.137,1.784l0.273,0.549h0.275
		l0.137,0.14h-2.471l0.137-0.14h0.275l0.275-0.549v-4.803l-0.412-0.547h-0.412l0.137-0.138h2.334l1.509,0.273L117.505,136.688
		L117.505,136.688z M145.64,135.59v2.746h0.685l0.688-0.137l0.275-1.236c0-0.96-0.412-1.372-1.099-1.372L145.64,135.59
		L145.64,135.59z M148.246,136.688c0,0.686-0.273,1.234-0.958,1.784l1.782,2.195l0.823,0.548h0.412v0.14h-0.961l-0.823-0.14
		l-1.233-1.232l-0.687-1.1l-0.137-0.137h-0.824v1.921l0.412,0.548h0.272l0.14,0.14h-2.47v-0.14h0.409l0.275-0.548v-4.803
		l-0.275-0.548h-0.686l0.276-0.137h2.33l1.512,0.272L148.246,136.688L148.246,136.688z M159.363,140.943v-1.1l0.137-0.136
		l0.14,0.136v0.412c0.136,0.549,0.549,0.823,1.233,0.823c0.687,0,1.096-0.274,1.096-0.959c0-0.412-0.272-0.961-0.821-1.373
		l-0.411-0.273c-0.685-0.55-1.097-1.099-1.097-1.784c-0.14-1.099,0.549-1.647,1.782-1.647l1.099,0.14l0.137,0.137v0.959
		l-0.137,0.274l-0.139-0.137l-0.137-0.549l-0.823-0.412c-0.686,0-1.098,0.276-0.961,0.823c-0.137,0.274,0.139,0.686,0.687,1.098
		l0.274,0.275c0.96,0.686,1.372,1.372,1.372,2.059l-0.686,1.509l-1.372,0.274l-1.236-0.274L159.363,140.943L159.363,140.943z
		 M157.166,135.04v1.235l-0.136,0.137l-0.137-0.274v-0.136c0-0.137-0.274-0.273-0.96-0.412h-0.961l0.137,5.078l0.137,0.548h0.551
		v0.14h-2.608l0.136-0.14h0.412l0.137-0.548v-5.078h-1.233l-0.823,0.275v0.273l-0.138,0.138l-0.139-0.274l0.276-0.821v-0.14h0.411
		l4.117,0.14L157.166,135.04z"/>
</g>
</svg>
