<?xml version="1.0" encoding="utf-8"?>
<!DOCTYPE svg PUBLIC "-//W3C//DTD SVG 1.1//EN" "http://www.w3.org/Graphics/SVG/1.1/DTD/svg11.dtd">
<svg version="1.1" id="katman_1" xmlns="http://www.w3.org/2000/svg" xmlns:xlink="http://www.w3.org/1999/xlink" x="0px" y="0px" width="216px" height="216px" viewBox="0 0 216 216" enable-background="new 0 0 216 216" xml:space="preserve">
<rect fill="#FFFFFF" width="216" height="216"/>
<path d="M108.298,183.327c-41.025,0-74.825-34.134-74.825-75.158c0-8.53,1.639-16.736,4.268-24.613l43.649,85.003
	c0.653,1.31,1.31,1.967,2.624,1.967c1.639,0,1.967-0.985,2.625-1.967l20.35-45.292c0.329-0.657,0.653-0.986,0.981-0.986
	c0.657,0,0.657,0.657,0.986,0.986l20.674,45.292c0.657,1.31,1.314,1.967,2.628,1.967c1.639,0,1.968-0.985,2.625-1.967l43.648-85.003
	c2.625,7.549,4.268,15.755,4.268,24.613C183.127,149.193,149.323,183.327,108.298,183.327z M108.298,88.809
	c-0.657,0-0.657-0.657-0.981-0.985L84.013,37.283c15.755-5.582,32.82-5.582,48.574,0l-23.304,50.541
	C108.956,88.152,108.956,88.809,108.298,88.809z M83.685,143.616c-0.657,0-0.657-0.657-0.986-0.985L44.631,69.116
	c6.563-10.83,16.408-20.022,27.566-26.584l26.913,58.417c0.657,1.314,1.31,1.643,1.967,1.643h14.112
	c0.986,0,1.644-0.329,1.972-1.643l26.909-58.417c11.158,6.239,21.007,15.426,27.57,26.584l-37.744,73.515
	c-0.328,0.656-0.657,0.985-0.985,0.985c-0.653,0-0.653-0.657-0.981-0.985l-14.44-32.162c-0.656-1.314-1.313-1.643-1.972-1.643
	h-14.111c-0.985,0-1.638,0.328-1.967,1.643L84.67,142.631C84.342,142.959,84.342,143.616,83.685,143.616z M108.298,193.5
	c47.259,0,85.002-38.072,85.002-85.002c0-46.931-37.743-85.327-85.002-85.327S23.3,61.238,23.3,108.169S61.367,193.5,108.298,193.5z
	"/>
</svg>
