<?xml version="1.0" encoding="utf-8"?>
<!DOCTYPE svg PUBLIC "-//W3C//DTD SVG 1.1//EN" "http://www.w3.org/Graphics/SVG/1.1/DTD/svg11.dtd">
<svg version="1.1" xmlns="http://www.w3.org/2000/svg" xmlns:xlink="http://www.w3.org/1999/xlink" x="0px" y="0px" width="216px" height="216px" viewBox="0 0 216 216" enable-background="new 0 0 216 216" xml:space="preserve">
<g id="Layer_1">
	<rect fill="#4881D0" width="216" height="216"/>
</g>
<g id="svg11640">
	<g id="layer1" transform="translate(-37.355797,-514.16027)">
		<g id="g11619" transform="matrix(2.6666523,0,0,2.6666523,964.44741,-1527.2062)">
			<path id="path8783" fill="#FFFFFF" d="M-291.241,816.97c0-1.152-1.99-1.033-1.99-1.714c0-0.315,0.268-0.473,0.616-0.473
				c0.615,0,0.908,0.103,1.106,0.695c0.015,0.039,0.031,0.072,0.063,0.072c0.047,0,0.047-0.063,0.047-0.094l-0.016-0.783
				c0-0.039-0.031-0.07-0.078-0.079c0,0-0.655-0.094-1.074-0.094c-0.805,0-1.098,0.394-1.098,0.931c0,1.139,1.967,0.9,1.967,1.729
				c0,0.34-0.379,0.514-0.671,0.514c-0.647,0-1.01-0.15-1.24-0.806c-0.008-0.048-0.04-0.087-0.086-0.087
				c-0.056,0-0.064,0.048-0.056,0.095c0.016,0.111,0.031,0.283,0.04,0.419c0.016,0.141,0.023,0.299,0.031,0.418
				c0.008,0.055,0.048,0.086,0.103,0.103c0.205,0.055,0.679,0.157,1.113,0.157C-291.794,817.972-291.241,817.767-291.241,816.97
				 M-294.044,817.696l-0.04-0.103c-0.016-0.031-0.055-0.031-0.078-0.008c-0.086,0.056-0.292,0.119-0.458,0.119
				c-0.418,0-0.489-0.277-0.489-0.632v-2.116l0.907,0.016c0.04,0,0.071-0.016,0.071-0.063v-0.268c0-0.048-0.024-0.063-0.079-0.063
				h-0.9v-1.042c0-0.071-0.04-0.094-0.071-0.094c-0.04,0-0.063,0.03-0.078,0.07l-0.372,0.885c-0.046,0.117-0.134,0.181-0.214,0.181
				h-0.457c-0.048,0-0.079,0.032-0.079,0.08v0.228c0,0.04,0.04,0.071,0.079,0.071h0.625v2.265c0,0.521,0.331,0.72,0.97,0.72
				c0.229,0,0.512-0.08,0.647-0.183C-294.036,817.743-294.028,817.728-294.044,817.696 M-296.46,814.665
				c0.007-0.063-0.079-0.104-0.126-0.118c-0.071-0.025-0.189-0.047-0.268-0.047c-0.442,0-0.782,0.181-1.034,0.56
				c-0.016,0.016-0.024,0.024-0.04,0.024c-0.023,0-0.048-0.016-0.055-0.041l-0.118-0.371c-0.016-0.055-0.055-0.094-0.126-0.094
				h-0.79c-0.071,0-0.126,0.015-0.126,0.063c0,0.039,0.055,0.071,0.126,0.086l0.245,0.047c0.142,0.025,0.26,0.151,0.26,0.348v2.219
				c0,0.197-0.11,0.316-0.253,0.355l-0.166,0.047c-0.071,0.024-0.126,0.047-0.126,0.096c0,0.039,0.056,0.055,0.126,0.055h1.413
				c0.071,0,0.127-0.016,0.127-0.063c0-0.041-0.056-0.063-0.127-0.088l-0.166-0.047c-0.142-0.04-0.261-0.158-0.261-0.355v-1.681
				c0-0.111,0.04-0.252,0.095-0.34c0.134-0.214,0.372-0.379,0.647-0.379c0.245,0,0.387,0.055,0.466,0.245
				c0.032,0.07,0.04,0.229,0.119,0.229c0.055,0,0.071-0.056,0.079-0.126L-296.46,814.665L-296.46,814.665z M-299.966,816.338
				c0,0.569-0.157,1.349-0.884,1.349c-0.773,0-0.932-0.97-0.932-1.563s0.166-1.295,0.892-1.295
				C-300.107,814.829-299.966,815.73-299.966,816.338 M-299.35,816.227c0-0.907-0.545-1.728-1.524-1.728
				c-0.971,0-1.523,0.821-1.523,1.728c0,0.909,0.545,1.745,1.523,1.745C-299.895,817.972-299.35,817.135-299.35,816.227
				 M-302.965,816.97c0-1.152-1.99-1.033-1.99-1.714c0-0.315,0.269-0.473,0.617-0.473c0.615,0,0.908,0.103,1.105,0.695
				c0.016,0.039,0.032,0.072,0.063,0.072c0.047,0,0.047-0.063,0.047-0.094l-0.015-0.783c0-0.039-0.032-0.07-0.079-0.079
				c0,0-0.656-0.094-1.074-0.094c-0.805,0-1.098,0.394-1.098,0.931c0,1.139,1.967,0.9,1.967,1.729c0,0.34-0.379,0.514-0.672,0.514
				c-0.647,0-1.01-0.15-1.239-0.806c-0.009-0.048-0.04-0.087-0.087-0.087c-0.056,0-0.064,0.048-0.056,0.095
				c0.016,0.111,0.031,0.283,0.04,0.419c0.016,0.141,0.023,0.299,0.031,0.418c0.008,0.055,0.048,0.086,0.103,0.103
				c0.205,0.055,0.678,0.157,1.113,0.157C-303.517,817.972-302.965,817.767-302.965,816.97 M-306.605,815.652
				c0,0.127-0.047,0.222-0.197,0.26c-0.088,0.031-0.269,0.039-0.418,0.039h-0.237c-0.173,0-0.56-0.008-0.56-0.008
				c-0.088,0-0.127-0.056-0.119-0.142c0.079-0.623,0.395-1.034,0.845-1.034C-306.937,814.767-306.605,815.051-306.605,815.652
				 M-305.988,815.983c0-1.058-0.687-1.484-1.303-1.484c-0.798,0-1.484,0.686-1.484,1.72c0,1.263,0.742,1.753,1.461,1.753
				c0.537,0,0.987-0.291,1.2-0.695c0.008-0.023,0.008-0.04-0.016-0.063l-0.127-0.103c-0.023-0.015-0.048-0.008-0.063,0.024
				c-0.142,0.23-0.514,0.474-0.838,0.474c-0.442,0-0.962-0.308-1.002-1.232c-0.008-0.086,0.079-0.158,0.166-0.158h1.823
				C-306.076,816.22-305.988,816.094-305.988,815.983 M-310.189,814.333c0,0.757-0.443,1.033-1.145,1.033h-0.576
				c-0.072,0-0.142-0.07-0.142-0.142l0.008-1.571c0-0.103,0.103-0.182,0.205-0.182h0.829
				C-310.521,813.472-310.189,813.834-310.189,814.333 M-308.626,817.743c0-0.056-0.048-0.078-0.095-0.07
				c-0.11,0.022-0.142,0.031-0.237,0.031c-0.157,0-0.324-0.087-0.402-0.205l-0.964-1.484c-0.15-0.23-0.229-0.324-0.292-0.371
				c-0.032-0.025-0.032-0.055,0.016-0.063c0.656-0.15,1.122-0.648,1.122-1.302c0-0.648-0.545-1.121-1.334-1.121h-2.472
				c-0.071,0-0.134,0.015-0.134,0.063c0,0.039,0.055,0.078,0.127,0.086l0.323,0.047c0.142,0.025,0.261,0.15,0.261,0.348l0.007,1.792
				l-0.007,1.895c0,0.196-0.103,0.324-0.245,0.354c-0.071,0.016-0.127,0.047-0.127,0.096c0,0.039,0.056,0.055,0.127,0.055h1.343
				c0.071,0,0.126-0.016,0.126-0.055c0-0.049-0.063-0.088-0.126-0.103l-0.166-0.041c-0.142-0.031-0.268-0.166-0.268-0.355
				l-0.008-1.539c0-0.071,0.063-0.127,0.134-0.127h0.703c0.15,0,0.206,0.111,0.269,0.23l0.987,1.903
				c0.023,0.047,0.055,0.088,0.126,0.088h0.688c0.181,0,0.339-0.024,0.466-0.072C-308.649,817.806-308.626,817.776-308.626,817.743"
				/>
			<path id="path8787" fill="#FFFFFF" d="M-284.68,810.699c0,0.055-0.021,0.104-0.049,0.146c-0.162,0.253-0.443,0.4-0.653,0.4
				c-0.415,0-0.793-0.294-0.793-1.207c0-0.786,0.301-1.269,0.779-1.269c0.548,0,0.716,0.239,0.716,0.723L-284.68,810.699
				L-284.68,810.699z M-283.621,811.477c0-0.034-0.049-0.063-0.112-0.077l-0.218-0.042c-0.126-0.021-0.224-0.14-0.224-0.316v-3.524
				l0.028-0.463c0-0.056-0.042-0.085-0.098-0.085h-0.955c-0.063,0-0.112,0.015-0.112,0.057c0,0.041,0.056,0.07,0.112,0.076
				l0.288,0.042c0.134,0.021,0.231,0.133,0.231,0.309v1.115c0,0.036-0.021,0.063-0.063,0.049c-0.189-0.062-0.408-0.104-0.681-0.104
				c-0.68,0-1.284,0.596-1.284,1.522c0,1.131,0.562,1.566,1.2,1.566c0.246,0,0.533-0.106,0.751-0.344
				c0.022-0.021,0.042-0.036,0.057-0.036c0.021,0,0.035,0.014,0.049,0.036l0.091,0.189c0.028,0.049,0.056,0.085,0.113,0.085h0.716
				C-283.67,811.534-283.621,811.518-283.621,811.477 M-286.743,811.477c0-0.034-0.049-0.056-0.113-0.077l-0.148-0.042
				c-0.126-0.034-0.231-0.14-0.231-0.316v-1.411c0-0.723-0.408-1.115-0.99-1.115c-0.267,0-0.639,0.084-0.877,0.4
				c-0.021,0.034-0.056,0.02-0.07-0.007l-0.112-0.246c-0.021-0.049-0.049-0.076-0.112-0.076h-0.793
				c-0.063,0-0.112,0.014-0.112,0.055c0,0.036,0.049,0.07,0.112,0.078l0.287,0.043c0.127,0.021,0.238,0.133,0.238,0.308v1.972
				c0,0.176-0.099,0.282-0.224,0.316l-0.148,0.042c-0.062,0.021-0.112,0.042-0.112,0.084c0,0.034,0.05,0.049,0.112,0.049h1.256
				c0.063,0,0.112-0.015,0.112-0.056c0-0.034-0.049-0.056-0.112-0.077l-0.147-0.042c-0.127-0.034-0.232-0.14-0.232-0.316v-1.607
				c0-0.33,0.498-0.549,0.765-0.549c0.406,0,0.653,0.225,0.653,0.632v1.453c0,0.28-0.035,0.365-0.085,0.413
				c-0.042,0.043-0.09,0.057-0.09,0.099c0,0.034,0.027,0.049,0.09,0.049h0.969C-286.792,811.534-286.743,811.518-286.743,811.477
				 M-291.059,810.803c0,0.309-0.358,0.534-0.794,0.534c-0.379,0-0.547-0.246-0.547-0.611c0-0.197,0.127-0.343,0.344-0.406
				l0.919-0.267c0.049-0.021,0.077,0,0.077,0.057V810.803L-291.059,810.803z M-290.007,811.477c0-0.041-0.049-0.063-0.112-0.077
				l-0.21-0.042c-0.126-0.027-0.225-0.14-0.225-0.316v-1.481c0-0.807-0.428-1.045-1.13-1.045c-0.301,0-0.589,0.063-0.884,0.084
				c-0.042,0-0.07,0.028-0.07,0.07l0.007,0.842c0,0.027,0.021,0.042,0.042,0.042c0.021,0,0.042-0.015,0.049-0.036
				c0.112-0.511,0.309-0.736,0.842-0.736c0.253,0,0.639,0.119,0.639,0.456v0.273c0,0.21-0.168,0.295-0.372,0.359
				c-0.33,0.098-0.716,0.148-0.976,0.258c-0.35,0.155-0.484,0.457-0.484,0.717c0,0.498,0.38,0.759,0.864,0.759
				c0.336,0,0.631-0.091,0.877-0.261c0.029-0.019,0.049-0.034,0.092-0.034c0.027,0,0.048,0.015,0.07,0.049l0.056,0.097
				c0.021,0.036,0.055,0.078,0.119,0.078h0.695C-290.056,811.534-290.007,811.518-290.007,811.477 M-294.682,810.609
				c0-1.152-1.99-1.034-1.99-1.712c0-0.316,0.269-0.474,0.617-0.474c0.615,0,0.907,0.103,1.105,0.694
				c0.016,0.039,0.032,0.07,0.063,0.07c0.048,0,0.048-0.063,0.048-0.094l-0.017-0.781c0-0.041-0.031-0.071-0.078-0.079
				c0,0-0.654-0.094-1.074-0.094c-0.805,0-1.098,0.395-1.098,0.931c0,1.137,1.967,0.9,1.967,1.73c0,0.338-0.379,0.512-0.672,0.512
				c-0.647,0-1.01-0.149-1.239-0.805c-0.008-0.047-0.04-0.086-0.086-0.086c-0.056,0-0.064,0.048-0.056,0.094
				c0.016,0.111,0.032,0.285,0.04,0.419c0.016,0.144,0.023,0.302,0.031,0.419c0.008,0.055,0.047,0.088,0.104,0.103
				c0.205,0.055,0.678,0.158,1.113,0.158C-295.234,811.612-294.682,811.406-294.682,810.609 M-297.618,811.47
				c0-0.039-0.056-0.064-0.119-0.087l-0.173-0.047c-0.142-0.041-0.26-0.158-0.26-0.357v-3.963l0.031-0.521
				c0-0.063-0.048-0.094-0.11-0.094h-1.018c-0.072,0-0.127,0.015-0.127,0.063c0,0.048,0.064,0.078,0.127,0.086l0.267,0.048
				c0.151,0.024,0.261,0.15,0.261,0.347v4.02c0,0.236-0.039,0.346-0.094,0.402c-0.048,0.047-0.103,0.063-0.103,0.111
				c0,0.038,0.03,0.055,0.103,0.055h1.089C-297.674,811.534-297.618,811.517-297.618,811.47 M-300.209,809.291
				c0,0.127-0.047,0.221-0.198,0.26c-0.086,0.032-0.268,0.041-0.418,0.041h-0.237c-0.174,0-0.561-0.008-0.561-0.008
				c-0.086,0-0.126-0.055-0.118-0.143c0.079-0.623,0.396-1.033,0.844-1.033C-300.541,808.407-300.209,808.692-300.209,809.291
				 M-299.594,809.623c0-1.058-0.686-1.484-1.303-1.484c-0.797,0-1.484,0.687-1.484,1.72c0,1.265,0.742,1.753,1.46,1.753
				c0.538,0,0.988-0.291,1.201-0.693c0.007-0.025,0.007-0.041-0.016-0.063l-0.127-0.103c-0.024-0.016-0.048-0.008-0.063,0.023
				c-0.142,0.229-0.513,0.474-0.837,0.474c-0.443,0-0.964-0.308-1.003-1.23c-0.008-0.088,0.079-0.16,0.167-0.16h1.823
				C-299.68,809.858-299.594,809.734-299.594,809.623 M-302.609,811.337l-0.04-0.103c-0.016-0.033-0.055-0.033-0.078-0.008
				c-0.088,0.055-0.293,0.117-0.458,0.117c-0.418,0-0.489-0.275-0.489-0.631v-2.116l0.907,0.016c0.04,0,0.071-0.016,0.071-0.063
				v-0.268c0-0.048-0.023-0.063-0.078-0.063h-0.9v-1.043c0-0.07-0.04-0.094-0.071-0.094c-0.04,0-0.064,0.031-0.079,0.072
				l-0.371,0.884c-0.049,0.118-0.135,0.181-0.214,0.181h-0.458c-0.048,0-0.079,0.033-0.079,0.079v0.23c0,0.038,0.04,0.07,0.079,0.07
				h0.623v2.267c0,0.52,0.332,0.718,0.972,0.718c0.229,0,0.513-0.08,0.647-0.182C-302.602,811.383-302.593,811.368-302.609,811.337
				 M-305.815,809.978c0,0.569-0.157,1.351-0.884,1.351c-0.774,0-0.931-0.972-0.931-1.564c0-0.592,0.166-1.294,0.893-1.294
				C-305.957,808.47-305.815,809.37-305.815,809.978 M-305.199,809.867c0-0.908-0.544-1.728-1.523-1.728
				c-0.972,0-1.524,0.82-1.524,1.728s0.545,1.745,1.524,1.745C-305.743,811.612-305.199,810.775-305.199,809.867 M-308.452,811.47
				c0-0.039-0.055-0.078-0.127-0.087l-0.323-0.047c-0.142-0.025-0.261-0.167-0.261-0.357l-0.007-1.823l0.007-1.808
				c0-0.19,0.118-0.331,0.261-0.354l0.323-0.049c0.072-0.007,0.127-0.048,0.127-0.094c0-0.039-0.055-0.056-0.127-0.056h-1.832
				c-0.071,0-0.126,0.017-0.126,0.064c0,0.038,0.055,0.079,0.126,0.086l0.324,0.049c0.142,0.023,0.26,0.158,0.26,0.354l0.008,1.516
				c0,0.032-0.023,0.055-0.056,0.055h-2.124c-0.031,0-0.056-0.023-0.056-0.055l0.008-1.516c0-0.19,0.118-0.331,0.261-0.354
				l0.324-0.049c0.071-0.007,0.126-0.048,0.126-0.094c0-0.039-0.056-0.056-0.126-0.056h-1.832c-0.071,0-0.126,0.017-0.126,0.064
				c0,0.038,0.055,0.079,0.126,0.086l0.324,0.049c0.142,0.023,0.26,0.158,0.26,0.354l0.008,1.808l-0.008,1.823
				c0,0.198-0.118,0.331-0.26,0.357l-0.324,0.047c-0.071,0.008-0.126,0.048-0.126,0.095c0,0.038,0.055,0.055,0.126,0.055h1.832
				c0.071,0,0.126-0.017,0.126-0.063c0-0.039-0.056-0.078-0.126-0.086l-0.324-0.047c-0.142-0.025-0.261-0.167-0.261-0.357
				l-0.008-1.673c0-0.031,0.024-0.055,0.056-0.055h2.116c0.032,0,0.063,0.024,0.063,0.055l-0.008,1.673
				c0,0.198-0.118,0.316-0.26,0.357l-0.166,0.047c-0.063,0.015-0.127,0.047-0.127,0.095c0,0.038,0.056,0.055,0.127,0.055h1.673
				C-308.507,811.534-308.452,811.517-308.452,811.47"/>
			<path id="path8791" fill="#FFFFFF" d="M-272.67,800.879c0,0.178-0.067,0.335-0.156,0.47c-0.514,0.805-1.41,1.275-2.08,1.275
				c-1.32,0-2.528-0.94-2.528-3.847c0-2.506,0.962-4.049,2.483-4.049c1.745,0,2.282,0.76,2.282,2.304V800.879L-272.67,800.879z
				 M-269.291,803.361c0-0.111-0.156-0.201-0.359-0.246l-0.693-0.134c-0.402-0.067-0.716-0.448-0.716-1.007v-9.489
				c0-0.887,0.089-1.477,0.089-1.477c0-0.179-0.134-0.268-0.313-0.268h-3.042c-0.201,0-0.358,0.045-0.358,0.179
				c0,0.134,0.179,0.223,0.358,0.246l0.917,0.134c0.425,0.068,0.738,0.425,0.738,0.985v1.816c0,0.112-0.067,0.201-0.201,0.157
				c-0.604-0.201-1.298-0.336-2.169-0.336c-2.17,0-4.094,1.902-4.094,4.855c0,3.601,1.79,4.988,3.825,4.988
				c0.783,0,1.701-0.336,2.394-1.097c0.067-0.066,0.134-0.111,0.179-0.111c0.067,0,0.112,0.045,0.156,0.111l0.291,0.604
				c0.09,0.157,0.179,0.268,0.359,0.268h2.281C-269.448,803.54-269.291,803.496-269.291,803.361 M-281.977,799.133
				c0,1.611-0.447,3.825-2.505,3.825c-2.193,0-2.639-2.752-2.639-4.429c0-1.677,0.469-3.668,2.528-3.668
				C-282.379,794.861-281.977,797.411-281.977,799.133 M-280.231,798.82c0-2.573-1.544-4.899-4.318-4.899
				c-2.751,0-4.317,2.327-4.317,4.899c0,2.572,1.543,4.944,4.317,4.944C-281.775,803.764-280.231,801.393-280.231,798.82
				 M-291.668,799.133c0,1.611-0.448,3.825-2.506,3.825c-2.192,0-2.639-2.752-2.639-4.429c0-1.677,0.469-3.668,2.528-3.668
				C-292.07,794.861-291.668,797.411-291.668,799.133 M-289.923,798.82c0-2.573-1.544-4.899-4.318-4.899
				c-2.751,0-4.317,2.327-4.317,4.899c0,2.572,1.543,4.944,4.317,4.944C-291.467,803.764-289.923,801.393-289.923,798.82
				 M-297.93,794.302c0-0.112-0.179-0.157-0.381-0.157h-2.617c-0.201,0-0.335,0.044-0.335,0.134c0,0.089,0.067,0.157,0.178,0.201
				l0.559,0.246c0.269,0.134,0.314,0.425,0.224,0.783l-1.544,5.951c-0.022,0.112-0.223,0.112-0.268,0l-2.348-6.958
				c-0.023-0.089-0.224-0.134-0.426-0.134c-0.201,0-0.402,0.045-0.424,0.134l-2.462,6.801c-0.044,0.111-0.245,0.111-0.268,0
				l-1.41-5.794c-0.067-0.268-0.023-0.626,0.247-0.783l0.448-0.246c0.089-0.044,0.156-0.112,0.156-0.201
				c0-0.09-0.134-0.134-0.335-0.134h-3.177c-0.202,0-0.358,0.044-0.358,0.179c0,0.112,0.134,0.179,0.313,0.246l0.426,0.157
				c0.245,0.089,0.402,0.201,0.492,0.47l2.483,8.343c0.044,0.157,0.335,0.224,0.626,0.224c0.291,0,0.582-0.067,0.627-0.224
				l2.259-6.107c0.045-0.112,0.291-0.134,0.335,0l2.058,6.107c0.045,0.134,0.336,0.224,0.627,0.224c0.313,0,0.604-0.067,0.649-0.224
				l2.773-8.366c0.111-0.313,0.38-0.493,0.582-0.582C-298.041,794.525-297.93,794.436-297.93,794.302 M-312.758,794.391
				c0.023-0.178-0.223-0.291-0.358-0.335c-0.201-0.068-0.537-0.135-0.76-0.135c-1.253,0-2.215,0.515-2.931,1.588
				c-0.045,0.045-0.067,0.067-0.112,0.067c-0.067,0-0.134-0.045-0.157-0.112l-0.336-1.051c-0.045-0.157-0.157-0.268-0.358-0.268
				h-2.237c-0.201,0-0.358,0.044-0.358,0.179c0,0.112,0.157,0.201,0.358,0.246l0.694,0.134c0.402,0.066,0.737,0.425,0.737,0.984
				v6.286c0,0.56-0.312,0.895-0.716,1.007l-0.469,0.134c-0.202,0.067-0.358,0.134-0.358,0.268c0,0.113,0.157,0.157,0.358,0.157
				h4.004c0.202,0,0.357-0.044,0.357-0.179c0-0.112-0.156-0.178-0.357-0.246l-0.47-0.134c-0.403-0.112-0.738-0.448-0.738-1.007
				v-4.765c0-0.313,0.112-0.716,0.268-0.962c0.38-0.604,1.052-1.073,1.835-1.073c0.693,0,1.096,0.156,1.32,0.693
				c0.089,0.202,0.111,0.648,0.335,0.648c0.157,0,0.202-0.157,0.224-0.357L-312.758,794.391L-312.758,794.391z M-323.563,801.213
				c0,0.984-1.14,1.7-2.527,1.7c-1.208,0-1.745-0.783-1.745-1.946c0-0.627,0.402-1.096,1.097-1.297l2.93-0.85
				c0.157-0.067,0.246,0,0.246,0.179V801.213L-323.563,801.213z M-320.207,803.361c0-0.134-0.157-0.201-0.358-0.246l-0.671-0.134
				c-0.402-0.089-0.716-0.448-0.716-1.007v-4.72c0-2.573-1.364-3.333-3.602-3.333c-0.962,0-1.879,0.202-2.818,0.268
				c-0.134,0-0.223,0.09-0.223,0.224l0.022,2.684c0,0.089,0.067,0.134,0.134,0.134c0.068,0,0.134-0.045,0.157-0.112
				c0.359-1.633,0.984-2.349,2.684-2.349c0.806,0,2.036,0.381,2.036,1.454v0.873c0,0.672-0.537,0.94-1.185,1.141
				c-1.052,0.313-2.282,0.47-3.11,0.827c-1.118,0.492-1.543,1.454-1.543,2.282c0,1.588,1.208,2.416,2.752,2.416
				c1.073,0,2.013-0.291,2.797-0.827c0.089-0.068,0.156-0.112,0.29-0.112c0.09,0,0.157,0.044,0.224,0.156l0.179,0.313
				c0.067,0.111,0.179,0.246,0.38,0.246h2.214C-320.364,803.54-320.207,803.496-320.207,803.361 M-330.018,802.981l-0.112-0.291
				c-0.044-0.089-0.157-0.089-0.223-0.023c-0.247,0.158-0.827,0.336-1.297,0.336c-1.186,0-1.387-0.783-1.387-1.79v-5.994
				l2.572,0.044c0.112,0,0.201-0.044,0.201-0.179v-0.761c0-0.134-0.067-0.179-0.223-0.179h-2.55v-2.953
				c0-0.201-0.112-0.268-0.202-0.268c-0.112,0-0.179,0.09-0.224,0.202l-1.051,2.505c-0.134,0.336-0.38,0.515-0.604,0.515h-1.298
				c-0.134,0-0.224,0.089-0.224,0.223v0.649c0,0.112,0.112,0.202,0.224,0.202h1.768v6.42c0,1.476,0.939,2.035,2.751,2.035
				c0.649,0,1.454-0.223,1.835-0.514C-329.996,803.115-329.974,803.07-330.018,802.981 M-337.171,800.923
				c0-3.267-5.637-2.931-5.637-4.854c0-0.895,0.761-1.343,1.745-1.343c1.745,0,2.573,0.291,3.132,1.969
				c0.045,0.112,0.089,0.202,0.179,0.202c0.134,0,0.134-0.179,0.134-0.269l-0.045-2.214c0-0.112-0.089-0.201-0.223-0.224
				c0,0-1.857-0.268-3.043-0.268c-2.281,0-3.109,1.119-3.109,2.64c0,3.221,5.57,2.55,5.57,4.899c0,0.962-1.074,1.453-1.902,1.453
				c-1.834,0-2.863-0.424-3.513-2.281c-0.021-0.134-0.111-0.247-0.246-0.247c-0.157,0-0.178,0.134-0.157,0.269
				c0.045,0.312,0.09,0.805,0.112,1.185c0.044,0.402,0.067,0.85,0.089,1.186c0.023,0.157,0.134,0.246,0.291,0.291
				c0.582,0.157,1.923,0.447,3.154,0.447C-338.736,803.764-337.171,803.182-337.171,800.923"/>
			<path id="path8795" fill="#FFFFFF" d="M-310.506,803.593l-1.293-0.182l0.787-1.042l-0.117-0.116l-1.043,0.786l-0.181-1.293
				h-0.165l-0.181,1.293l-1.043-0.786l-0.117,0.116l0.787,1.042l-1.293,0.182v0.164l1.293,0.182l-0.787,1.042l0.117,0.116
				l1.043-0.786l0.181,1.292h0.165l0.181-1.292l1.043,0.786l0.117-0.116l-0.787-1.042l1.293-0.182V803.593z"/>
		</g>
	</g>

</g>
</svg>
