<?xml version="1.0" encoding="utf-8"?>
<!DOCTYPE svg PUBLIC "-//W3C//DTD SVG 1.1//EN" "http://www.w3.org/Graphics/SVG/1.1/DTD/svg11.dtd">
<svg version="1.1" id="Layer_1" xmlns="http://www.w3.org/2000/svg" xmlns:xlink="http://www.w3.org/1999/xlink" x="0px" y="0px" width="216px" height="216px" viewBox="0 0 216 216" enable-background="new 0 0 216 216" xml:space="preserve">
<g>
	<path fill="#FFFFFF" d="M0.122,0.122h216v216h-216V0.122z"/>
	<path fill="#CC2229" d="M164.222,94.963c-0.658,0-2.442,0.188-3.476,0.375c-0.19,0.565-2.914,1.786-2.257,5.17
		c0.468,2.068,1.504,3.572,1.033,3.948c-1.315,0.752-3.193-0.563-4.887-1.221c-1.69-0.846-4.32-1.975-6.015,0.188
		c-1.504,2.067,3.666,1.785,8.083,4.135c3.29,1.693,5.546,1.316,10.808,1.881c5.264,0.375,5.544-1.881,6.389-1.786
		c0.756,0.188,0.473,2.254,2.916,3.007c1.127,0.282,3.664-1.129,4.134-0.941c0.753,0.095,0.753,1.601,2.537,2.352
		c1.975,0.564,2.539-0.563,3.196-0.845c0.564-0.283,0.658,1.127,1.786,1.409c1.127,0.188,2.819,0.094,3.665,0.188
		c0.656,0.282,0,1.127,1.881,1.409c1.689,0.283,2.254-0.658,3.099-0.376c0.659,0.282,1.507,2.162,5.075,1.88
		c2.257-0.188,1.694-1.598,1.128-2.631c-0.659-1.035-5.544-1.88-13.438-4.701c-13.344-4.606-16.916-3.478-19.734-8.93
		c-1.128-2.256-1.784-3.479-1.973-4.229C167.418,95.057,166.008,95.152,164.222,94.963L164.222,94.963z"/>
	<path fill="none" stroke="#FFFFFF" stroke-width="0.216" stroke-miterlimit="2.613" d="M209.145,110.098
		c-0.567-0.377-2.445,1.412-3.196,1.13c-0.847-0.282-1.504-1.412-2.163-1.694c-0.845-0.28-1.315,0.188-2.16,0
		c-0.659-0.092-0.188-1.127-0.753-1.41c-0.753-0.28-1.13,0.471-1.975,0.188c-0.659-0.188-1.127-1.409-1.692-1.691
		c-0.656-0.188-0.845,0.657-1.596,0.375c-1.035-0.375-1.317-1.128-1.974-1.41c-0.565-0.376-1.787,0.751-2.632,0.281
		c-0.847-0.375-0.847-3.29-1.412-3.572c-0.656-0.281-2.725,2.069-3.57,1.505c-0.753-0.375-0.47-2.539-1.129-2.915
		c-0.563-0.376-3.1,1.786-3.759,1.504c-0.563-0.282-0.659-1.41-1.504-1.504c-0.753-0.094-2.068,0.94-2.913,0.658
		c-1.692-0.658-3.76-0.375-6.297-6.392c-0.282-0.752-0.845-1.223-1.409-0.94c-1.504,0.564-0.939,1.127,1.127,5.265
		c2.819,5.453,6.391,4.324,19.734,8.93c7.895,2.822,12.779,3.666,13.438,4.701c0.566,1.033,1.13,2.443-1.127,2.631
		c-3.57,0.282-4.417-1.598-5.075-1.88c-0.846-0.282-1.41,0.658-3.1,0.376c-1.881-0.282-1.224-1.127-1.881-1.409
		c-0.847-0.095-2.539,0-3.665-0.188c-1.128-0.282-1.222-1.692-1.786-1.41c-0.657,0.283-1.222,1.41-3.196,0.846
		c-1.784-0.751-1.784-2.257-2.537-2.352c-0.471-0.188-3.008,1.224-4.134,0.941c-2.442-0.753-2.16-2.819-2.916-3.007
		c-0.845-0.094-1.125,2.161-6.388,1.786c-5.262-0.564-7.519-0.188-10.809-1.881c-4.416-2.35-9.587-2.068-8.083-4.135
		c1.694-2.163,4.324-1.034,6.015-0.188c1.694,0.658,3.572,1.973,4.887,1.221c0.471-0.375-0.564-1.879-1.033-3.948
		c-0.656-3.666,2.539-4.794,2.257-5.357c-0.471-0.659-2.257-1.598-6.579-0.94c-2.913,0.47-8.553,4.888-9.963,5.547
		c-1.41,0.845-7.233,3.948-10.432-0.659c-3.193-4.7-0.28-9.494,1.035-10.998c1.222-1.504,3.29-2.632,4.04-1.504
		c1.035,1.786-1.41,2.256-2.443,3.479c-0.94,1.223-2.442,5.358-0.753,7.239c1.786,1.879,5.075,2.068,8.834-0.752
		c3.102-2.35,8.177-5.641,13.155-5.263c5.075,0.28,7.709,2.631,8.46,2.82c0.753,0.093,1.409-1.598,2.442-1.974
		c0.753-0.283,1.786,0.658,2.443,0.375c0.564-0.375,1.224-1.88,1.975-2.163c0.847-0.282,2.915,1.127,3.572,0.658
		c0.564-0.282,0.471-2.067,1.409-2.162c0.939-0.188,2.537,1.504,3.196,1.222c0.845-0.47,0.845-1.411,1.689-1.411
		c0.659,0,2.163,2.257,2.916,2.069c0.563-0.093,0.377-2.349,1.222-2.631c0.845-0.282,3.008,1.504,3.76,1.222
		c0.563-0.281,0.656-3.009,1.689-3.572c0.941-0.375,1.88,1.128,2.445,0.846c0.753-0.282,1.222-3.385,2.068-3.478
		c0.751-0.094,2.255,0.845,2.911,0.658c0.565-0.094,0.282-2.914,1.41-3.479c1.129-0.375,2.539,1.411,2.916,1.318
		c0.563-0.188,0.845-1.693,1.409-1.787c0.656-0.188,2.349,1.221,3.196,1.034c0.656-0.282,0.376-2.35,1.127-2.445
		c0.564-0.188,2.913,0.283,2.726-2.35c-0.095-2.632-3.477-5.17-6.671-5.17c-5.828,0-11.654,2.538-16.637,3.478
		c-4.979,0.846-15.222,3.854-17.761,4.326c-2.537,0.375-4.981-1.034-2.726-2.822c1.786-1.692,2.726-0.375,2.726-0.939
		c0-0.565-1.128-1.128-2.726-1.411c-1.692-0.281-3.664,1.411-5.826,1.128c-2.16-0.283-4.322-1.974-6.671-1.504
		c-5.731,0.658-6.579,3.197-9.492,4.229c-2.914,1.129-5.075,0.284-6.673,0.471c-3.946,0.563-5.355,2.915-8.27,2.631
		c-3.478-0.282-5.169-2.255-8.928-3.291c-3.572-1.127-10.432-2.162-12.03-2.725c-1.689-0.659-9.114-2.445-10.9-2.632
		c-1.973-0.282-2.914,0.281-3.758,0.281c-0.941,0-2.163-0.563-3.479-0.658c-1.223-0.188-3.196-0.281-4.04,0
		c-0.749,0.379-1.03,0.379-2.064,0.096c-0.845-0.094-3.946-0.658-5.262-0.469c-1.88,0.094-2.632,1.315-4.041,1.503
		c-1.316,0.094-2.631-0.564-4.134-0.282c-1.503,0.282-2.726,0.846-4.041,1.222c-1.222,0.471-3.477,0.188-4.51,0.281
		c-2.82,0.659-3.196,2.068-4.229,2.068c-0.94,0-4.322-0.563-5.357,0c-1.128,0.471-2.067,1.315-2.913,1.41
		c-1.033,0.093-4.793,0.659-7.143,0.376c-1.315-0.094-3.571,1.035-4.51,1.316c-1.127,0.282-3.759,0.282-4.511-1.033
		c-0.752-1.598,1.315-3.948,4.794-6.769c2.349-1.787,15.6-11.094,37.119-14.571c16.822-2.819,36.461-9.87,40.598-14.195
		c1.786-1.786,9.021-7.896,10.806-11.656c1.786-3.761,2.349-5.922,1.409-5.828c-0.938,0.282-2.066,2.256-3.853,2.914
		c-1.691,0.563-3.195-0.375-4.51,0.188c-1.222,0.375-2.632,2.35-3.945,2.444c-1.41,0.187-1.975-1.035-3.011-0.565
		c-1.033,0.752-2.723,1.976-3.853,2.256c-2.349,0.376-2.442-2.349-4.604-1.222c-2.256,1.127-3.853,3.009-6.107,3.479
		c-2.068,0.282-1.787-1.315-3.196-1.315c-2.257,0-4.417,3.103-5.451,3.103c-1.033,0-1.88-1.693-3.195-1.504
		c-1.223,0.093-5.075,3.007-6.579,3.478c-1.598,0.283-1.879-2.162-3.196-1.973c-1.597,0.094-4.51,2.915-6.108,3.291
		c-1.691,0.281-2.631-0.846-3.758-0.846s-4.604,2.915-6.296,3.384c-2.443,0.564-2.631-2.537-5.262-2.35
		c-1.879,0.094-3.854,2.633-5.355,2.726c-1.599,0.188-2.257-1.034-4.042-0.658c-1.973,0.563-5.826,3.195-7.143,3.479
		c-1.222,0.282-2.162-0.47-3.666,0c-2.819,0.846-5.449,4.606-7.237,5.547c-1.972,1.127-3.382,0.563-4.416,1.221
		c-1.879,1.316-2.162,3.948-3.948,4.701c-1.596,0.846-1.503-0.376-3.008,0.563c-2.536,1.879-1.596,3.949-2.348,4.889
		c-0.752,0.939-2.82,1.691-4.042,3.196c-1.223,1.41-1.223,2.257-1.692,3.197c-0.563,0.94-2.724,3.76-3.195,4.982
		c-0.28,1.218,0.282,2.534-0.28,3.474c-0.375,0.846-1.222,2.257-1.691,3.29c-0.752,2.445,0.282,4.889,0.188,5.83
		c-0.188,0.845-1.128,2.255-1.128,3.384s1.128,3.29,0.846,4.981c-0.281,1.693-3.758,12.879-1.785,17.955
		c2.162,5.264,5.356,8.085,6.484,7.614c1.221-0.376,0.469-2.633,1.691-4.698c1.222-1.977,2.631-4.418,3.76-2.728
		c0.939,1.598-2.256,1.598-2.538,6.205c-0.375,4.416,0.187,2.537,0,3.854c-0.094,1.409-2.914,4.042-2.914,5.264
		c0,1.315,0.282,4.606,4.416,8.085c2.538,2.255,3.102,3.76,3.758,3.854c0.564,0.188,1.128-2.634,2.35-3.198
		c1.692-0.753,5.356,2.539,6.014,2.445c0.846-0.282,1.127-4.795,2.631-5.64c1.505-0.659,5.17,2.257,5.922,1.88
		c0.751-0.564-0.095-3.385,0.281-4.513c0.47-1.033,2.537-1.315,1.879-3.195c-0.563-1.881-0.846-5.546-7.517-6.017
		c-1.975-0.188-4.699-0.469-2.914-2.537c2.067-2.068,4.322-9.684-0.565-15.604c-2.066-2.539-6.766-1.129-8.082-0.565
		c-2.349,0.846-4.699,3.949-5.638,3.103c-0.846-0.846,1.879-4.324,6.107-5.547c4.135-1.316,9.398-1.033,11.466,4.136
		c3.665,9.023,0,13.254,0.471,14.195c0.563,0.938,2.63-0.095,5.543,1.691c4.135,2.726,3.571,5.075,4.604,5.923
		c0.939,0.751,5.92,1.127,10.526,1.409c4.699,0.282,9.867,1.504,12.028,0.282c3.477-1.786,3.758-8.461,11.84-13.351
		c4.041-2.442,9.397-4.887,15.411-3.853c6.673,0.939,6.768,1.881,6.203,2.726c-0.094,0.471-0.28,1.127-0.375,1.035
		c-3.196-1.691-7.799-1.88-10.62-1.317c-4.135,0.753-11.184,1.883-16.352,10.905c-5.075,9.024,3.101,9.118,3.947,9.4
		c0.94,0.377,2.444,0.846,2.35,3.479c-0.188,2.634,0.658,4.136,1.598,5.828c1.127,1.504,2.914,2.726,2.914,2.726
		s1.314-3.008,2.819-3.666c1.504-0.845,3.289,0.659,4.135,1.601c2.631,3.384,1.505-2.916,3.383-3.572
		c2.726-0.848,3.758,3.196,5.263,2.442c2.725-1.221,1.222-3.102,3.196-3.854c2.066-0.564,3.289,1.13,4.134,0.565
		c0.939-0.659,0.846-6.485-0.94-8.836c-1.974-2.445-4.886-6.582-11.089-6.582c-6.108,0-8.082-0.845-7.8-2.068
		c0.282-1.222,1.504-2.068,3.007-1.504c2.351,0.845,2.631,0.657,6.39,0.845c5.451,0.097,4.229,2.445,8.741,4.419
		c3.384,1.41,7.801-0.941,13.251,0c5.544,0.941,10.149,1.975,15.222,1.692c9.589-0.282,20.208-4.511,22.274-4.793
		c2.163-0.377,3.29-0.094,3.29-0.753c0-0.565-9.305-1.975-8.742-4.23c0.753-2.16,5.17-0.374,11.278,1.035
		c6.108,1.316,19.17,2.443,24.246,2.163c5.451-0.094,14.753,2.351,22.365,0.564c3.854-0.941,7.519-3.292,7.895-5.922
		C213.373,112.636,209.895,110.662,209.145,110.098L209.145,110.098z M156.704,77.855c1.504-0.282,4.136,0.375,3.479,2.067
		c-0.565,1.693-0.845,1.41-2.069,1.693c-1.221,0.28-3.758,0.563-4.416-0.566C153.133,79.922,155.013,78.23,156.704,77.855
		L156.704,77.855z M118.458,34.519c0.939,0.471,1.033,1.787,0.939,2.633c-0.282,0.752-0.751,1.504-1.222,1.504
		c-0.753,0-0.753-1.034-1.033-2.069C116.858,35.741,117.423,33.955,118.458,34.519L118.458,34.519z M109.813,37.151
		c1.972,0.469,1.221,2.257,0.845,4.324c-0.282,1.41-1.504,1.786-1.692,2.067c-0.658,1.223-0.845-4.135-0.845-4.135
		S108.685,36.868,109.813,37.151L109.813,37.151z M100.227,38.656c0.752-0.094,2.068,2.82,1.315,5.358
		c-0.845,2.444-1.879,2.444-1.879,2.444s-0.281-2.727-0.564-3.009C98.817,42.979,98.253,39.125,100.227,38.656L100.227,38.656z
		 M91.58,40.065c1.787-0.658,2.258,3.384,1.411,5.453c-0.752,2.162-0.752,3.479-2.068,2.631c-1.598-0.752-0.281-3.383-0.752-4.135
		C89.606,42.696,90.077,40.817,91.58,40.065L91.58,40.065z M81.995,42.322c2.255-0.282,1.973,3.289,1.41,5.265
		c-0.658,1.785-1.127,2.631-2.066,2.35c-1.035-0.376,0.281-2.728-0.283-3.761C80.303,45.236,80.773,42.415,81.995,42.322
		L81.995,42.322z M72.128,44.107c1.315,0.281,2.255,2.256,1.598,4.982c-0.563,2.821-1.41,3.479-2.162,3.479s0.281-4.418-0.376-4.418
		C70.624,48.149,70.531,43.825,72.128,44.107z M62.448,47.397c0.846,0,2.725,1.598,1.785,4.513
		c-0.939,3.007-0.939,2.726-1.785,3.007c-0.94,0.188-0.281-1.786-0.846-2.913C60.944,51.063,60.098,47.303,62.448,47.397
		L62.448,47.397z M53.708,50.5c1.692-0.094,2.35,3.478,1.974,4.981c-0.281,1.504-0.846,3.385-1.879,3.103
		c-0.94-0.188,0.187-2.914-0.658-2.914C52.487,55.669,51.171,50.594,53.708,50.5L53.708,50.5z M48.164,60.746
		c-1.127,2.068-1.035,2.068-1.785,2.068c-0.752,0-0.283-3.008-1.127-3.008c-0.752,0-1.41-4.418,0.939-4.606
		C48.728,55.106,48.822,59.242,48.164,60.746L48.164,60.746z M44.405,46.646c0.564,0,1.974,0.94,0.658,2.35
		c-1.221,1.41-1.315,2.35-2.442,1.787C41.492,50.406,42.619,46.74,44.405,46.646z M12.453,76.351c0.75,0,1.692,1.879,1.598,2.632
		c-0.188,0.563-0.281,1.504-1.41,1.786c-1.033,0.28-1.409-1.41-1.409-1.692C11.139,78.702,10.856,76.163,12.453,76.351
		L12.453,76.351z M13.582,88.664c-0.564,0-1.223,0-1.692-0.374c-0.282-0.471-2.162-2.35-0.751-4.231
		c0.094-0.281,2.444,1.316,2.913,2.351C14.333,87.16,14.333,88.664,13.582,88.664L13.582,88.664z M15.554,72.966
		c-0.282,0.47-1.033,0.752-1.503,0.47c-0.751-0.47-0.751-1.974-0.469-2.255c0.187-0.094,0.281-2.351,1.784-2.07
		c0.752,0.094-0.094,1.975,0,2.163C15.554,71.557,15.93,72.59,15.554,72.966L15.554,72.966z M78.142,82.555
		c0.094-0.658,1.127-1.221,2.161-0.939c1.316,0.093,2.82,1.221,2.539,2.067c-0.094,0.846-1.504,1.504-2.914,0.846
		C78.706,83.964,77.861,83.401,78.142,82.555z M80.021,88.664c0.846-0.093,3.102-0.28,2.914,0.941
		c-0.093,1.127-0.658,1.41-2.443,1.692c-1.786,0.28-2.914-0.846-2.914-1.41C77.672,88.948,79.082,88.854,80.021,88.664
		L80.021,88.664z M75.322,75.788c1.033,0,1.974,0.845,1.691,1.502c-0.281,0.659-0.375,1.504-2.255,1.128
		c-0.658-0.282-1.504-1.222-1.504-1.786C73.256,75.505,74.383,75.599,75.322,75.788z M65.173,78.136
		c0.187-0.94,1.973-1.127,2.819-0.752c0.94,0.471,1.504,1.693,0.94,2.257c-0.658,0.471-1.316,0.283-2.444,0
		C65.361,79.359,65.08,79.077,65.173,78.136z M63.952,82.462c1.41,0,3.101,1.033,2.349,1.785c-0.564,0.564-1.127,0.94-2.631,0.94
		s-2.067-0.563-2.067-1.41C61.602,83.025,62.542,82.273,63.952,82.462L63.952,82.462z M61.508,88.664
		c1.598-0.28,2.725,0.659,2.632,1.505c0,0.846-1.41,1.598-2.35,1.598c-1.127,0-2.725-0.282-2.913-1.598
		C58.689,89.042,60.663,88.854,61.508,88.664z M57.186,96.186c-0.281-0.846,1.691-1.223,2.631-1.411
		c0.846-0.094,2.631,0.282,2.35,1.128c-0.282,0.658-0.846,1.504-2.35,1.504C58.313,97.314,57.467,96.843,57.186,96.186z
		 M59.535,101.449c-0.281,1.223-1.409,1.41-2.255,1.504c-0.94,0.188-2.444,0-2.444-0.939c0-1.034,1.316-1.786,2.068-2.068
		C58.408,99.665,59.817,100.509,59.535,101.449L59.535,101.449z M55.401,78.418c0.563,0.094,2.349,0.564,2.443,1.41
		c0,0.658,0.469,1.598-1.504,1.598c-1.785,0-2.537-0.282-2.914-1.223C52.862,79.077,54.836,78.23,55.401,78.418L55.401,78.418z
		 M55.118,85.093c1.879,0.376,2.162,0.376,2.349,1.222c0.094,0.846-1.314,1.41-2.913,1.692c-1.692,0.282-2.631-0.47-3.102-1.315
		C51.171,85.94,53.239,84.811,55.118,85.093L55.118,85.093z M51.923,92.801c0.939-0.094,2.066,0.281,2.066,1.317
		c-0.187,0.845-0.75,1.221-1.691,1.598c-0.846,0.469-2.725-0.283-3.008-0.94C49.009,94.118,50.889,92.99,51.923,92.801
		L51.923,92.801z M50.23,100.603c0,0.846-1.691,1.504-2.537,1.692c-0.658,0.094-1.222,0.658-1.785,0.094
		c-0.658-0.563-0.563-1.128-0.094-1.504c0.281-0.376,2.067-1.221,2.444-1.41C49.009,99.193,50.326,99.945,50.23,100.603
		L50.23,100.603z M46.379,80.58c1.504,0,2.162,0.846,2.444,1.598c0.187,0.658,0,1.033-0.376,1.315
		c-0.281,0.283-1.973,0.188-2.914-0.375C44.217,82.462,44.687,80.58,46.379,80.58L46.379,80.58z M38.861,59.807
		c2.067-0.188,2.443,2.632,1.973,5.17c-0.752,2.443-1.034,2.443-1.973,2.163c-0.846-0.283,0-1.693-0.565-2.351
		C37.638,64.225,36.511,59.9,38.861,59.807z M37.356,49.278c1.88-0.281,1.223,2.068,0.846,2.727
		c-0.563,0.846,0.094,2.067-1.127,1.973c-1.316-0.187-1.127-1.786-1.316-2.632C35.665,50.406,36.229,49.371,37.356,49.278z
		 M30.685,57.738c0.375-0.563,0.658-1.974,1.879-2.067c0.845-0.188,0.564,2.162,0.47,3.29c0,1.127,0.282,2.538-1.221,1.974
		C30.214,60.371,30.214,58.396,30.685,57.738z M24.858,58.02c0.281,0,0.281-0.188,0.281-0.188s1.315-2.162,2.631-1.504
		c0.563,0.094-0.846,2.82-1.033,3.292c-0.281,0.752-1.222,1.315-2.067,0.563C23.825,59.336,24.577,58.02,24.858,58.02L24.858,58.02z
		 M20.911,63.001c0.752,0.283,0,2.727-0.282,3.854c-0.093,1.128-0.939,1.692-1.785,1.41c-0.846-0.093-0.375-2.069-0.659-2.069
		C17.998,66.01,19.125,62.72,20.911,63.001L20.911,63.001z M18.185,81.71c0.565,0.187,0.659,1.315,0.659,1.502
		c0,0.471,0.563,0.752,0.846,1.598c0.187,0.659-0.283,1.316-0.939,1.504c-0.751,0-1.41-1.41-1.41-1.41
		C17.341,85.093,16.776,81.616,18.185,81.71L18.185,81.71z M20.536,93.271c-0.564,0.376-1.221,0.658-2.067,0.563
		c-0.846-0.281-1.785-1.691-1.033-2.537c0.75-0.658,1.879-0.094,2.442,0.28C20.442,92.051,21.1,92.801,20.536,93.271z
		 M20.817,77.384c-1.127-0.188-0.658-2.35-0.846-2.35c0,0,1.128-3.853,2.255-3.195c0.846,0.563,0.377,3.102,0.283,4.323
		C22.321,77.29,21.757,77.668,20.817,77.384L20.817,77.384z M22.883,84.529c-0.374-0.188-0.846-2.633,0.846-2.821
		c0.658,0,1.786,1.316,1.786,2.068c-0.094,0.846,0.187,1.974-1.41,1.879C22.604,85.469,23.166,84.624,22.883,84.529L22.883,84.529z
		 M26.925,96.562c-0.563,0-1.692-0.093-2.349-1.128c-0.563-0.752-0.752-2.067,0-2.444c0.563-0.283,2.066,0.658,2.725,1.973
		C28.053,96.186,27.302,96.562,26.925,96.562L26.925,96.562z M28.899,91.861c-0.752-0.093-1.597-0.376-2.256-1.222
		c-0.657-0.752-0.657-2.35,0.376-2.538c1.597-0.282,2.536,1.128,3.102,2.35C30.497,91.767,29.37,91.861,28.899,91.861L28.899,91.861
		z M30.401,85.187c-0.752,0-1.126-0.282-1.502-0.846c-0.564-0.376-0.752-2.067,0.75-2.067c0.752,0,1.88,0.563,1.974,1.41
		C31.813,84.624,31.061,85.093,30.401,85.187L30.401,85.187z M31.813,66.197c1.033,0,2.915,1.128,2.349,4.419
		c-0.752,3.196-1.127,2.068-1.785,2.255c-0.563,0.283-0.187-1.785-0.563-2.255C31.061,69.77,29.275,66.197,31.813,66.197z
		 M33.691,97.126c-0.658-0.283-1.502-0.658-1.598-1.692c-0.281-0.94,0.752-1.221,1.598-1.033c1.035,0.093,1.786,0.939,1.786,1.598
		C35.478,96.843,34.255,97.314,33.691,97.126z M35.478,90.64c-0.471,0.093-0.751,0.375-1.786,0.093
		c-0.939-0.375-2.914-2.443-1.127-3.573c0.564-0.469,2.726,0.094,3.196,1.692C36.511,90.169,36.04,90.357,35.478,90.64L35.478,90.64
		z M35.665,84.247c-0.283-0.282,0.281-1.785,1.785-1.41c1.411,0.283,1.786,1.222,1.692,2.068c-0.281,0.846-1.222,0.846-1.975,0.752
		C36.511,85.469,36.04,84.529,35.665,84.247L35.665,84.247z M41.304,100.603c-0.47,0.282-1.504,0.564-2.914,0.376
		c-1.223-0.094-1.504-0.471-1.034-1.222c0.564-0.659,0.94-0.846,2.068-1.222c1.127-0.47,2.444,0.093,2.727,0.563
		C42.431,99.476,41.867,100.509,41.304,100.603z M43.183,94.492c-0.752,0.471-2.349,0-2.82-1.127
		c-0.375-1.222,0.283-1.505,0.846-1.788c0.658-0.094,2.255,0.659,2.538,1.693C43.842,93.929,43.842,94.118,43.183,94.492z
		 M44.687,89.042c-0.658,0-3.102-0.378-2.631-1.599c0.281-1.316,1.692-1.316,2.444-1.128c0.47,0,2.443,0.658,1.974,1.786
		C46.19,89.323,45.345,88.948,44.687,89.042z M66.301,111.226c0,0.657-0.375,1.128-0.939,1.128c-0.658,0-2.537-0.471-3.477,0.282
		c-0.94,0.657-1.504,1.88-1.41,2.728c0.188,0.656,0.188,1.692-0.281,1.973c-0.375,0.376-2.162-0.28-2.914-0.188
		c-0.658,0-3.007,0.564-3.571,1.788c-0.658,1.128-0.187,1.973-0.563,2.257c-0.375,0.469-0.94,0.657-1.504,0.657
		c-0.563,0.188-3.102-0.188-3.477,0.188c-0.564,0.377-1.974,2.069-2.35,1.504c-0.469-0.563-1.127-0.282,0.094-2.349
		c0.563-0.941,2.067-1.975,2.256-1.975c0.094,0,1.973,0.187,2.35-0.094c0.375-0.377,1.504-2.634,1.975-3.104
		c1.879-1.504,1.785-0.938,2.349-1.224c0.565-0.092,2.444,0.285,2.631-0.092c0.282-0.564,1.41-2.633,2.35-3.479
		c1.222-1.129,3.196-1.317,3.478-1.506c0.093-0.28,0.563-1.033,0.846-1.598c0.375-0.563,2.067-1.973,3.195-1.691
		c0.563,0.187-1.41,2.821-1.41,3.383C65.737,110.38,66.301,110.475,66.301,111.226L66.301,111.226z M67.71,103.236
		c-1.41,0.282-2.914,0.188-3.008-0.563c-0.188-0.565,0.282-1.411,1.222-1.787c0.846-0.376,1.691-0.094,2.349-0.094
		c0.563,0,1.974,0,1.786,0.469C69.966,101.731,69.12,102.954,67.71,103.236z M69.685,96.843c-1.598,0.188-3.101-0.281-2.914-0.939
		c0.282-0.752,1.222-1.411,2.631-1.411c1.41-0.093,2.35,0.282,2.35,0.94C71.752,95.999,71.188,96.75,69.685,96.843z M72.879,89.23
		c-0.281,1.127-0.846,1.41-1.879,1.503c-1.034,0-3.102-0.281-3.102-1.879c0-0.752,2.162-1.128,2.631-1.128
		C71,87.537,72.974,88.102,72.879,89.23L72.879,89.23z M74.383,83.212c-0.187,0.846-1.41,1.598-2.35,1.317
		c-1.033-0.283-2.349-0.471-2.255-1.41c0-0.565,0.845-1.41,2.349-1.223C73.726,81.897,74.478,82.555,74.383,83.212z M79.363,101.449
		c-0.375,0.377-0.846,1.41-1.973,1.692c-1.033,0.094-2.35,0.563-2.914-0.752c-0.281-0.658,0.188-1.222,1.033-1.786
		c0.658-0.375,2.914-0.375,2.914-0.375s0.281-0.752,0.845-0.282C79.833,100.322,79.833,100.979,79.363,101.449L79.363,101.449z
		 M81.995,96.468c-0.94,0-3.196,0.093-3.29-1.034c-0.281-0.469,1.222-1.033,2.162-1.315c1.127-0.282,1.879-0.282,2.255-0.188
		c0.375,0.188,1.41,0.564,1.41,1.035C84.533,95.434,82.842,96.28,81.995,96.468L81.995,96.468z M83.217,77.668
		c-0.375-0.941-0.469-1.788-0.094-2.163c0.658-0.471,2.914,0.375,3.289,1.41c0.565,0.94,0.565,2.068-0.375,2.351
		C85.096,79.359,83.499,78.514,83.217,77.668z M86.599,83.12c-0.188-0.846,1.503-1.504,2.632-1.41
		c0.939,0.187,2.632,1.127,2.349,2.067c-0.375,1.033-0.563,1.315-1.41,1.315C89.324,85.093,86.693,84.529,86.599,83.12z
		 M87.445,89.792c-0.188-0.75,1.505-1.128,2.162-1.128c0.564,0,3.103,0.378,2.351,1.411c-0.471,0.94-1.505,1.41-2.351,1.41
		C88.95,91.485,87.728,90.452,87.445,89.792z M92.52,97.689c-0.94,0.658-1.598,0.658-2.725,0.658c-1.033,0-1.223-0.658-1.223-1.504
		c0-0.658,1.034-1.127,1.505-1.221c0.564-0.188,1.222,0,1.786-0.188c0.375-0.094,0.375-0.094,0.939-0.281
		c0.47-0.094,0.751-0.188,0.846,0.563C93.837,96.468,93.553,97.126,92.52,97.689z M94.399,78.702
		c-0.471,0.281-0.471,0.563-1.41,0.375c-1.127-0.094-1.692-1.786-1.974-1.881c-0.376-0.188-1.222-1.127-0.847-1.597
		c0.471-0.376,2.54-0.376,3.479,0.47C94.776,77.009,94.776,78.418,94.399,78.702L94.399,78.702z M96.467,82.555
		c0.282-0.281,0.94-0.658,1.786-0.658c0.845,0,1.974,0.565,2.35,1.128c0.282,0.658,0.282,1.221-0.282,1.785
		c-0.377,0.376-2.914-0.281-3.291-0.752C96.467,83.495,96.28,83.025,96.467,82.555L96.467,82.555z M97.125,91.015
		c-0.28,0.282-0.375-0.658,0-1.127c0.565-0.376,1.786-1.034,2.538-1.034c0.658,0,1.785,0.188,1.599,0.752
		c-0.095,0.563-0.283,1.973-1.786,1.973C97.971,91.767,97.407,90.921,97.125,91.015L97.125,91.015z M100.038,97.972
		c-1.221,0.094-2.067-0.094-2.254-1.128c-0.094-0.939,0.846-1.221,1.033-1.221c0.094,0,1.127-0.188,1.41-0.283
		c0.659,0,1.785-0.846,2.35,0C102.856,95.904,101.261,97.689,100.038,97.972L100.038,97.972z M104.079,78.983
		c-0.188,0.376-0.564,1.504-1.975,1.128c-1.409-0.471-2.067-1.128-2.443-1.692c-0.281-0.564-1.317-1.41-0.469-2.256
		c0.469-0.375,2.631,0.47,3.664,1.221C103.704,78.23,104.173,78.418,104.079,78.983z M105.019,83.025
		c0.283-0.563,1.41-0.846,2.257-0.846c0.845,0.094,1.972,0.375,2.159,1.316c0.19,0.846,0,1.128-0.28,1.598
		c-0.469,0.376-2.162-0.188-2.819-0.469C105.583,84.341,104.737,83.401,105.019,83.025L105.019,83.025z M105.208,89.511
		c0-0.658,0.94-0.563,1.41-0.658c0.188-0.188,0.469-0.469,1.221-0.563c0.564-0.188,1.787-0.188,1.787,0.374
		c0.188,0.378,0,1.224-1.504,1.693C106.429,90.921,105.302,90.169,105.208,89.511L105.208,89.511z M110.658,95.716
		c0,0-1.224,1.127-1.504,1.598c-0.469,0.281-1.222,1.033-2.349,0.094c-0.658-0.658,0-1.786,0.471-2.069
		c0.375-0.375,3.194-2.067,3.758-1.221C111.503,94.963,110.658,95.716,110.658,95.716L110.658,95.716z M112.347,79.077
		c-0.563,0.846-1.41,0.751-2.44,0.563c-0.941-0.094-2.631-1.221-2.538-2.35c0.188-0.939,1.879-0.658,2.818-0.281
		C111.223,77.384,113.006,78.23,112.347,79.077z M123.531,92.051c-0.563,0-1.973-1.411,0.282-1.693
		c0.848-0.188,0.941,0.375,0.941,1.221C124.755,92.238,124.002,92.051,123.531,92.051L123.531,92.051z M124.755,85.469
		c-0.941-0.282-1.317-0.659-0.753-1.411c0.659-0.563,0.939-0.375,1.784-0.094c0.658,0.282,0.847,0.846,0.658,1.411
		C126.351,86.034,125.786,85.752,124.755,85.469z M130.11,105.774c-1.318-0.282-2.537-1.88-3.196-2.82
		c-0.564-1.127-0.751-3.196-0.282-4.135c0.377-1.128,0.941-1.223,1.504-0.846c0.656,0.375,0.282,3.197,0.656,3.29
		c0.471,0.282,0.754,2.258,1.975,2.539c0.377,0,0.848,0.94,0.848,0.94S131.144,106.056,130.11,105.774L130.11,105.774z"/>
	<path fill="#33A457" d="M209.145,110.098c-0.567-0.377-2.445,1.412-3.196,1.13c-0.847-0.282-1.504-1.412-2.163-1.694
		c-0.845-0.28-1.315,0.188-2.16,0c-0.659-0.092-0.188-1.127-0.753-1.41c-0.753-0.28-1.13,0.471-1.975,0.188
		c-0.659-0.188-1.127-1.409-1.692-1.691c-0.656-0.188-0.845,0.657-1.596,0.375c-1.035-0.375-1.317-1.128-1.974-1.41
		c-0.565-0.376-1.787,0.751-2.632,0.281c-0.847-0.375-0.847-3.29-1.412-3.572c-0.656-0.281-2.725,2.069-3.57,1.505
		c-0.753-0.375-0.47-2.539-1.129-2.915c-0.563-0.376-3.1,1.786-3.759,1.504c-0.563-0.282-0.659-1.41-1.504-1.504
		c-0.753-0.094-2.068,0.94-2.913,0.658c-1.692-0.658-3.76-0.375-6.297-6.392c-0.282-0.752-0.845-1.223-1.409-0.94
		c-1.504,0.564-0.939,1.127,1.127,5.265c2.819,5.453,6.391,4.324,19.734,8.93c7.895,2.822,12.779,3.666,13.438,4.701
		c0.566,1.033,1.13,2.443-1.127,2.631c-3.57,0.282-4.417-1.598-5.075-1.88c-0.846-0.282-1.41,0.658-3.1,0.376
		c-1.881-0.282-1.224-1.127-1.881-1.409c-0.847-0.095-2.539,0-3.665-0.188c-1.128-0.282-1.222-1.692-1.786-1.41
		c-0.657,0.283-1.222,1.41-3.196,0.846c-1.784-0.751-1.784-2.257-2.537-2.352c-0.471-0.188-3.008,1.224-4.134,0.941
		c-2.442-0.753-2.16-2.819-2.916-3.007c-0.845-0.094-1.125,2.161-6.388,1.786c-5.262-0.564-7.519-0.188-10.809-1.881
		c-4.416-2.35-9.587-2.068-8.083-4.135c1.694-2.163,4.324-1.034,6.015-0.188c1.694,0.658,3.572,1.973,4.887,1.221
		c0.471-0.375-0.564-1.879-1.033-3.948c-0.656-3.666,2.539-4.794,2.257-5.357c-0.471-0.659-2.257-1.598-6.579-0.94
		c-2.913,0.47-8.553,4.888-9.963,5.547c-1.41,0.845-7.233,3.948-10.432-0.659c-3.193-4.7-0.28-9.494,1.035-10.998
		c1.222-1.504,3.29-2.632,4.04-1.504c1.035,1.786-1.41,2.256-2.443,3.479c-0.94,1.223-2.442,5.358-0.753,7.239
		c1.786,1.879,5.075,2.068,8.834-0.752c3.102-2.35,8.177-5.641,13.155-5.263c5.075,0.28,7.709,2.631,8.46,2.82
		c0.753,0.093,1.409-1.598,2.442-1.974c0.753-0.283,1.786,0.658,2.443,0.375c0.564-0.375,1.224-1.88,1.975-2.163
		c0.847-0.282,2.915,1.127,3.572,0.658c0.564-0.282,0.471-2.067,1.409-2.162c0.939-0.188,2.537,1.504,3.196,1.222
		c0.845-0.47,0.845-1.411,1.689-1.411c0.659,0,2.163,2.257,2.916,2.069c0.563-0.093,0.377-2.349,1.222-2.631
		c0.845-0.282,3.008,1.504,3.76,1.222c0.563-0.281,0.656-3.009,1.689-3.572c0.941-0.375,1.88,1.128,2.445,0.846
		c0.753-0.282,1.222-3.385,2.068-3.478c0.751-0.094,2.255,0.845,2.911,0.658c0.565-0.094,0.282-2.914,1.41-3.479
		c1.129-0.375,2.539,1.411,2.916,1.318c0.563-0.188,0.845-1.693,1.409-1.787c0.656-0.188,2.349,1.221,3.196,1.034
		c0.656-0.282,0.376-2.35,1.127-2.445c0.564-0.188,2.913,0.283,2.726-2.35c-0.095-2.632-3.477-5.17-6.671-5.17
		c-5.828,0-11.654,2.538-16.637,3.478c-4.979,0.846-15.222,3.854-17.761,4.326c-2.537,0.375-4.981-1.034-2.726-2.822
		c1.786-1.692,2.726-0.375,2.726-0.939c0-0.565-1.128-1.128-2.726-1.411c-1.692-0.281-3.664,1.411-5.826,1.128
		c-2.16-0.283-4.322-1.974-6.671-1.504c-5.731,0.658-6.579,3.197-9.492,4.229c-2.914,1.129-5.075,0.284-6.673,0.471
		c-3.946,0.563-5.355,2.915-8.27,2.631c-3.478-0.282-5.169-2.255-8.928-3.291c-3.572-1.127-10.432-2.162-12.03-2.725
		c-1.689-0.659-9.114-2.445-10.9-2.632c-1.973-0.282-2.914,0.281-3.758,0.281c-0.941,0-2.163-0.563-3.479-0.658
		c-1.223-0.188-3.196-0.281-4.04,0c-0.749,0.379-1.03,0.379-2.064,0.096c-0.845-0.094-3.946-0.658-5.262-0.469
		c-1.88,0.094-2.632,1.315-4.041,1.503c-1.316,0.094-2.631-0.564-4.134-0.282c-1.503,0.282-2.726,0.846-4.041,1.222
		c-1.222,0.471-3.477,0.188-4.51,0.281c-2.82,0.659-3.196,2.068-4.229,2.068c-0.94,0-4.322-0.563-5.357,0
		c-1.128,0.471-2.067,1.315-2.913,1.41c-1.033,0.093-4.793,0.659-7.143,0.376c-1.315-0.094-3.571,1.035-4.51,1.316
		c-1.127,0.282-3.759,0.282-4.511-1.033c-0.752-1.598,1.315-3.948,4.794-6.769c2.349-1.787,15.6-11.094,37.119-14.571
		c16.822-2.819,36.461-9.87,40.598-14.195c1.786-1.786,9.021-7.896,10.806-11.656c1.786-3.761,2.349-5.922,1.409-5.828
		c-0.938,0.282-2.066,2.256-3.853,2.914c-1.691,0.563-3.195-0.375-4.51,0.188c-1.222,0.375-2.632,2.35-3.945,2.444
		c-1.41,0.187-1.975-1.035-3.011-0.565c-1.033,0.752-2.723,1.976-3.853,2.256c-2.349,0.376-2.442-2.349-4.604-1.222
		c-2.256,1.127-3.853,3.009-6.107,3.479c-2.068,0.282-1.787-1.315-3.196-1.315c-2.257,0-4.417,3.103-5.451,3.103
		c-1.033,0-1.88-1.693-3.195-1.504c-1.223,0.093-5.075,3.007-6.579,3.478c-1.598,0.283-1.879-2.162-3.196-1.973
		c-1.597,0.094-4.51,2.915-6.108,3.291c-1.691,0.281-2.631-0.846-3.758-0.846s-4.604,2.915-6.296,3.384
		c-2.443,0.564-2.631-2.537-5.262-2.35c-1.879,0.094-3.854,2.633-5.355,2.726c-1.599,0.188-2.257-1.034-4.042-0.658
		c-1.973,0.563-5.826,3.195-7.143,3.479c-1.222,0.282-2.162-0.47-3.666,0c-2.819,0.846-5.449,4.606-7.237,5.547
		c-1.972,1.127-3.382,0.563-4.416,1.221c-1.879,1.316-2.162,3.948-3.948,4.701c-1.596,0.846-1.503-0.376-3.008,0.563
		c-2.536,1.879-1.596,3.949-2.348,4.889c-0.752,0.939-2.82,1.691-4.042,3.196c-1.223,1.41-1.223,2.257-1.692,3.197
		c-0.563,0.94-2.724,3.76-3.195,4.982c-0.28,1.218,0.282,2.534-0.28,3.474c-0.375,0.846-1.222,2.257-1.691,3.29
		c-0.752,2.445,0.282,4.889,0.188,5.83c-0.188,0.845-1.128,2.255-1.128,3.384s1.128,3.29,0.846,4.981
		c-0.281,1.693-3.758,12.879-1.785,17.955c2.162,5.264,5.356,8.085,6.484,7.614c1.221-0.376,0.469-2.633,1.691-4.698
		c1.222-1.977,2.631-4.418,3.76-2.728c0.939,1.598-2.256,1.598-2.538,6.205c-0.375,4.416,0.187,2.537,0,3.854
		c-0.094,1.409-2.914,4.042-2.914,5.264c0,1.315,0.282,4.606,4.416,8.085c2.538,2.255,3.102,3.76,3.758,3.854
		c0.564,0.188,1.128-2.634,2.35-3.198c1.692-0.753,5.356,2.539,6.014,2.445c0.846-0.282,1.127-4.795,2.631-5.64
		c1.505-0.659,5.17,2.257,5.922,1.88c0.751-0.564-0.095-3.385,0.281-4.513c0.47-1.033,2.537-1.315,1.879-3.195
		c-0.563-1.881-0.846-5.546-7.517-6.017c-1.975-0.188-4.699-0.469-2.914-2.537c2.067-2.068,4.322-9.684-0.565-15.604
		c-2.066-2.539-6.766-1.129-8.082-0.565c-2.349,0.846-4.699,3.949-5.638,3.103c-0.846-0.846,1.879-4.324,6.107-5.547
		c4.135-1.316,9.398-1.033,11.466,4.136c3.665,9.023,0,13.254,0.471,14.195c0.563,0.938,2.63-0.095,5.543,1.691
		c4.135,2.726,3.571,5.075,4.604,5.923c0.939,0.751,5.92,1.127,10.526,1.409c4.699,0.282,9.867,1.504,12.028,0.282
		c3.477-1.786,3.758-8.461,11.84-13.351c4.041-2.442,9.397-4.887,15.411-3.853c6.673,0.939,6.768,1.881,6.203,2.726
		c-0.094,0.471-0.28,1.127-0.375,1.035c-3.196-1.691-7.799-1.88-10.62-1.317c-4.135,0.753-11.184,1.883-16.352,10.905
		c-5.075,9.024,3.101,9.118,3.947,9.4c0.94,0.377,2.444,0.846,2.35,3.479c-0.188,2.634,0.658,4.136,1.598,5.828
		c1.127,1.504,2.914,2.726,2.914,2.726s1.314-3.008,2.819-3.666c1.504-0.845,3.289,0.659,4.135,1.601
		c2.631,3.384,1.505-2.916,3.383-3.572c2.726-0.848,3.758,3.196,5.263,2.442c2.725-1.221,1.222-3.102,3.196-3.854
		c2.066-0.564,3.289,1.13,4.134,0.565c0.939-0.659,0.846-6.485-0.94-8.836c-1.974-2.445-4.886-6.582-11.089-6.582
		c-6.108,0-8.082-0.845-7.8-2.068c0.282-1.222,1.504-2.068,3.007-1.504c2.351,0.845,2.631,0.657,6.39,0.845
		c5.451,0.097,4.229,2.445,8.741,4.419c3.384,1.41,7.801-0.941,13.251,0c5.544,0.941,10.149,1.975,15.222,1.692
		c9.589-0.282,20.208-4.511,22.274-4.793c2.163-0.377,3.29-0.094,3.29-0.753c0-0.565-9.305-1.975-8.742-4.23
		c0.753-2.16,5.17-0.374,11.278,1.035c6.108,1.316,19.17,2.443,24.246,2.163c5.451-0.094,14.753,2.351,22.365,0.564
		c3.854-0.941,7.519-3.292,7.895-5.922C213.373,112.636,209.895,110.662,209.145,110.098L209.145,110.098z M156.704,77.855
		c1.504-0.282,4.136,0.375,3.479,2.067c-0.565,1.693-0.845,1.41-2.069,1.693c-1.221,0.28-3.758,0.563-4.416-0.566
		C153.133,79.922,155.013,78.23,156.704,77.855L156.704,77.855z M118.458,34.519c0.939,0.471,1.033,1.787,0.939,2.633
		c-0.282,0.752-0.751,1.504-1.222,1.504c-0.753,0-0.753-1.034-1.033-2.069C116.858,35.741,117.423,33.955,118.458,34.519
		L118.458,34.519z M109.813,37.151c1.972,0.469,1.221,2.257,0.845,4.324c-0.282,1.41-1.504,1.786-1.692,2.067
		c-0.658,1.223-0.845-4.135-0.845-4.135S108.685,36.868,109.813,37.151L109.813,37.151z M100.227,38.656
		c0.752-0.094,2.068,2.82,1.315,5.358c-0.845,2.444-1.879,2.444-1.879,2.444s-0.281-2.727-0.564-3.009
		C98.817,42.979,98.253,39.125,100.227,38.656L100.227,38.656z M91.58,40.065c1.787-0.658,2.258,3.384,1.411,5.453
		c-0.752,2.162-0.752,3.479-2.068,2.631c-1.598-0.752-0.281-3.383-0.752-4.135C89.606,42.696,90.077,40.817,91.58,40.065
		L91.58,40.065z M81.995,42.322c2.255-0.282,1.973,3.289,1.41,5.265c-0.658,1.785-1.127,2.631-2.066,2.35
		c-1.035-0.376,0.281-2.728-0.283-3.761C80.303,45.236,80.773,42.415,81.995,42.322L81.995,42.322z M72.128,44.107
		c1.315,0.281,2.255,2.256,1.598,4.982c-0.563,2.821-1.41,3.479-2.162,3.479s0.281-4.418-0.376-4.418
		C70.624,48.149,70.531,43.825,72.128,44.107z M62.448,47.397c0.846,0,2.725,1.598,1.785,4.513
		c-0.939,3.007-0.939,2.726-1.785,3.007c-0.94,0.188-0.281-1.786-0.846-2.913C60.944,51.063,60.098,47.303,62.448,47.397
		L62.448,47.397z M53.708,50.5c1.692-0.094,2.35,3.478,1.974,4.981c-0.281,1.504-0.846,3.385-1.879,3.103
		c-0.94-0.188,0.187-2.914-0.658-2.914C52.487,55.669,51.171,50.594,53.708,50.5L53.708,50.5z M48.164,60.746
		c-1.127,2.068-1.035,2.068-1.785,2.068c-0.752,0-0.283-3.008-1.127-3.008c-0.752,0-1.41-4.418,0.939-4.606
		C48.728,55.106,48.822,59.242,48.164,60.746L48.164,60.746z M44.405,46.646c0.564,0,1.974,0.94,0.658,2.35
		c-1.221,1.41-1.315,2.35-2.442,1.787C41.492,50.406,42.619,46.74,44.405,46.646z M12.453,76.351c0.75,0,1.692,1.879,1.598,2.632
		c-0.188,0.563-0.281,1.504-1.41,1.786c-1.033,0.28-1.409-1.41-1.409-1.692C11.139,78.702,10.856,76.163,12.453,76.351
		L12.453,76.351z M13.582,88.664c-0.564,0-1.223,0-1.692-0.374c-0.282-0.471-2.162-2.35-0.751-4.231
		c0.094-0.281,2.444,1.316,2.913,2.351C14.333,87.16,14.333,88.664,13.582,88.664L13.582,88.664z M15.554,72.966
		c-0.282,0.47-1.033,0.752-1.503,0.47c-0.751-0.47-0.751-1.974-0.469-2.255c0.187-0.094,0.281-2.351,1.784-2.07
		c0.752,0.094-0.094,1.975,0,2.163C15.554,71.557,15.93,72.59,15.554,72.966L15.554,72.966z M78.142,82.555
		c0.094-0.658,1.127-1.221,2.161-0.939c1.316,0.093,2.82,1.221,2.539,2.067c-0.094,0.846-1.504,1.504-2.914,0.846
		C78.706,83.964,77.861,83.401,78.142,82.555z M80.021,88.664c0.846-0.093,3.102-0.28,2.914,0.941
		c-0.093,1.127-0.658,1.41-2.443,1.692c-1.786,0.28-2.914-0.846-2.914-1.41C77.672,88.948,79.082,88.854,80.021,88.664
		L80.021,88.664z M75.322,75.788c1.033,0,1.974,0.845,1.691,1.502c-0.281,0.659-0.375,1.504-2.255,1.128
		c-0.658-0.282-1.504-1.222-1.504-1.786C73.256,75.505,74.383,75.599,75.322,75.788z M65.173,78.136
		c0.187-0.94,1.973-1.127,2.819-0.752c0.94,0.471,1.504,1.693,0.94,2.257c-0.658,0.471-1.316,0.283-2.444,0
		C65.361,79.359,65.08,79.077,65.173,78.136z M63.952,82.462c1.41,0,3.101,1.033,2.349,1.785c-0.564,0.564-1.127,0.94-2.631,0.94
		s-2.067-0.563-2.067-1.41C61.602,83.025,62.542,82.273,63.952,82.462L63.952,82.462z M61.508,88.664
		c1.598-0.28,2.725,0.659,2.632,1.505c0,0.846-1.41,1.598-2.35,1.598c-1.127,0-2.725-0.282-2.913-1.598
		C58.689,89.042,60.663,88.854,61.508,88.664z M57.186,96.186c-0.281-0.846,1.691-1.223,2.631-1.411
		c0.846-0.094,2.631,0.282,2.35,1.128c-0.282,0.658-0.846,1.504-2.35,1.504C58.313,97.314,57.467,96.843,57.186,96.186z
		 M59.535,101.449c-0.281,1.223-1.409,1.41-2.255,1.504c-0.94,0.188-2.444,0-2.444-0.939c0-1.034,1.316-1.786,2.068-2.068
		C58.408,99.665,59.817,100.509,59.535,101.449L59.535,101.449z M55.401,78.418c0.563,0.094,2.349,0.564,2.443,1.41
		c0,0.658,0.469,1.598-1.504,1.598c-1.785,0-2.537-0.282-2.914-1.223C52.862,79.077,54.836,78.23,55.401,78.418L55.401,78.418z
		 M55.118,85.093c1.879,0.376,2.162,0.376,2.349,1.222c0.094,0.846-1.314,1.41-2.913,1.692c-1.692,0.282-2.631-0.47-3.102-1.315
		C51.171,85.94,53.239,84.811,55.118,85.093L55.118,85.093z M51.923,92.801c0.939-0.094,2.066,0.281,2.066,1.317
		c-0.187,0.845-0.75,1.221-1.691,1.598c-0.846,0.469-2.725-0.283-3.008-0.94C49.009,94.118,50.889,92.99,51.923,92.801
		L51.923,92.801z M50.23,100.603c0,0.846-1.691,1.504-2.537,1.692c-0.658,0.094-1.222,0.658-1.785,0.094
		c-0.658-0.563-0.563-1.128-0.094-1.504c0.281-0.376,2.067-1.221,2.444-1.41C49.009,99.193,50.326,99.945,50.23,100.603
		L50.23,100.603z M46.379,80.58c1.504,0,2.162,0.846,2.444,1.598c0.187,0.658,0,1.033-0.376,1.315
		c-0.281,0.283-1.973,0.188-2.914-0.375C44.217,82.462,44.687,80.58,46.379,80.58L46.379,80.58z M38.861,59.807
		c2.067-0.188,2.443,2.632,1.973,5.17c-0.752,2.443-1.034,2.443-1.973,2.163c-0.846-0.283,0-1.693-0.565-2.351
		C37.638,64.225,36.511,59.9,38.861,59.807z M37.356,49.278c1.88-0.281,1.223,2.068,0.846,2.727
		c-0.563,0.846,0.094,2.067-1.127,1.973c-1.316-0.187-1.127-1.786-1.316-2.632C35.665,50.406,36.229,49.371,37.356,49.278z
		 M30.685,57.738c0.375-0.563,0.658-1.974,1.879-2.067c0.845-0.188,0.564,2.162,0.47,3.29c0,1.127,0.282,2.538-1.221,1.974
		C30.214,60.371,30.214,58.396,30.685,57.738z M24.858,58.02c0.281,0,0.281-0.188,0.281-0.188s1.315-2.162,2.631-1.504
		c0.563,0.094-0.846,2.82-1.033,3.292c-0.281,0.752-1.222,1.315-2.067,0.563C23.825,59.336,24.577,58.02,24.858,58.02L24.858,58.02z
		 M20.911,63.001c0.752,0.283,0,2.727-0.282,3.854c-0.093,1.128-0.939,1.692-1.785,1.41c-0.846-0.093-0.375-2.069-0.659-2.069
		C17.998,66.01,19.125,62.72,20.911,63.001L20.911,63.001z M18.185,81.71c0.565,0.187,0.659,1.315,0.659,1.502
		c0,0.471,0.563,0.752,0.846,1.598c0.187,0.659-0.283,1.316-0.939,1.504c-0.751,0-1.41-1.41-1.41-1.41
		C17.341,85.093,16.776,81.616,18.185,81.71L18.185,81.71z M20.536,93.271c-0.564,0.376-1.221,0.658-2.067,0.563
		c-0.846-0.281-1.785-1.691-1.033-2.537c0.75-0.658,1.879-0.094,2.442,0.28C20.442,92.051,21.1,92.801,20.536,93.271z
		 M20.817,77.384c-1.127-0.188-0.658-2.35-0.846-2.35c0,0,1.128-3.853,2.255-3.195c0.846,0.563,0.377,3.102,0.283,4.323
		C22.321,77.29,21.757,77.668,20.817,77.384L20.817,77.384z M22.883,84.529c-0.374-0.188-0.846-2.633,0.846-2.821
		c0.658,0,1.786,1.316,1.786,2.068c-0.094,0.846,0.187,1.974-1.41,1.879C22.604,85.469,23.166,84.624,22.883,84.529L22.883,84.529z
		 M26.925,96.562c-0.563,0-1.692-0.093-2.349-1.128c-0.563-0.752-0.752-2.067,0-2.444c0.563-0.283,2.066,0.658,2.725,1.973
		C28.053,96.186,27.302,96.562,26.925,96.562L26.925,96.562z M28.899,91.861c-0.752-0.093-1.597-0.376-2.256-1.222
		c-0.657-0.752-0.657-2.35,0.376-2.538c1.597-0.282,2.536,1.128,3.102,2.35C30.497,91.767,29.37,91.861,28.899,91.861L28.899,91.861
		z M30.401,85.187c-0.752,0-1.126-0.282-1.502-0.846c-0.564-0.376-0.752-2.067,0.75-2.067c0.752,0,1.88,0.563,1.974,1.41
		C31.813,84.624,31.061,85.093,30.401,85.187L30.401,85.187z M31.813,66.197c1.033,0,2.915,1.128,2.349,4.419
		c-0.752,3.196-1.127,2.068-1.785,2.255c-0.563,0.283-0.187-1.785-0.563-2.255C31.061,69.77,29.275,66.197,31.813,66.197z
		 M33.691,97.126c-0.658-0.283-1.502-0.658-1.598-1.692c-0.281-0.94,0.752-1.221,1.598-1.033c1.035,0.093,1.786,0.939,1.786,1.598
		C35.478,96.843,34.255,97.314,33.691,97.126z M35.478,90.64c-0.471,0.093-0.751,0.375-1.786,0.093
		c-0.939-0.375-2.914-2.443-1.127-3.573c0.564-0.469,2.726,0.094,3.196,1.692C36.511,90.169,36.04,90.357,35.478,90.64L35.478,90.64
		z M35.665,84.247c-0.283-0.282,0.281-1.785,1.785-1.41c1.411,0.283,1.786,1.222,1.692,2.068c-0.281,0.846-1.222,0.846-1.975,0.752
		C36.511,85.469,36.04,84.529,35.665,84.247L35.665,84.247z M41.304,100.603c-0.47,0.282-1.504,0.564-2.914,0.376
		c-1.223-0.094-1.504-0.471-1.034-1.222c0.564-0.659,0.94-0.846,2.068-1.222c1.127-0.47,2.444,0.093,2.727,0.563
		C42.431,99.476,41.867,100.509,41.304,100.603z M43.183,94.492c-0.752,0.471-2.349,0-2.82-1.127
		c-0.375-1.222,0.283-1.505,0.846-1.788c0.658-0.094,2.255,0.659,2.538,1.693C43.842,93.929,43.842,94.118,43.183,94.492z
		 M44.687,89.042c-0.658,0-3.102-0.378-2.631-1.599c0.281-1.316,1.692-1.316,2.444-1.128c0.47,0,2.443,0.658,1.974,1.786
		C46.19,89.323,45.345,88.948,44.687,89.042z M66.301,111.226c0,0.657-0.375,1.128-0.939,1.128c-0.658,0-2.537-0.471-3.477,0.282
		c-0.94,0.657-1.504,1.88-1.41,2.728c0.188,0.656,0.188,1.692-0.281,1.973c-0.375,0.376-2.162-0.28-2.914-0.188
		c-0.658,0-3.007,0.564-3.571,1.788c-0.658,1.128-0.187,1.973-0.563,2.257c-0.375,0.469-0.94,0.657-1.504,0.657
		c-0.563,0.188-3.102-0.188-3.477,0.188c-0.564,0.377-1.974,2.069-2.35,1.504c-0.469-0.563-1.127-0.282,0.094-2.349
		c0.563-0.941,2.067-1.975,2.256-1.975c0.094,0,1.973,0.187,2.35-0.094c0.375-0.377,1.504-2.634,1.975-3.104
		c1.879-1.504,1.785-0.938,2.349-1.224c0.565-0.092,2.444,0.285,2.631-0.092c0.282-0.564,1.41-2.633,2.35-3.479
		c1.222-1.129,3.196-1.317,3.478-1.506c0.093-0.28,0.563-1.033,0.846-1.598c0.375-0.563,2.067-1.973,3.195-1.691
		c0.563,0.187-1.41,2.821-1.41,3.383C65.737,110.38,66.301,110.475,66.301,111.226L66.301,111.226z M67.71,103.236
		c-1.41,0.282-2.914,0.188-3.008-0.563c-0.188-0.565,0.282-1.411,1.222-1.787c0.846-0.376,1.691-0.094,2.349-0.094
		c0.563,0,1.974,0,1.786,0.469C69.966,101.731,69.12,102.954,67.71,103.236z M69.685,96.843c-1.598,0.188-3.101-0.281-2.914-0.939
		c0.282-0.752,1.222-1.411,2.631-1.411c1.41-0.093,2.35,0.282,2.35,0.94C71.752,95.999,71.188,96.75,69.685,96.843z M72.879,89.23
		c-0.281,1.127-0.846,1.41-1.879,1.503c-1.034,0-3.102-0.281-3.102-1.879c0-0.752,2.162-1.128,2.631-1.128
		C71,87.537,72.974,88.102,72.879,89.23L72.879,89.23z M74.383,83.212c-0.187,0.846-1.41,1.598-2.35,1.317
		c-1.033-0.283-2.349-0.471-2.255-1.41c0-0.565,0.845-1.41,2.349-1.223C73.726,81.897,74.478,82.555,74.383,83.212z M79.363,101.449
		c-0.375,0.377-0.846,1.41-1.973,1.692c-1.033,0.094-2.35,0.563-2.914-0.752c-0.281-0.658,0.188-1.222,1.033-1.786
		c0.658-0.375,2.914-0.375,2.914-0.375s0.281-0.752,0.845-0.282C79.833,100.322,79.833,100.979,79.363,101.449L79.363,101.449z
		 M81.995,96.468c-0.94,0-3.196,0.093-3.29-1.034c-0.281-0.469,1.222-1.033,2.162-1.315c1.127-0.282,1.879-0.282,2.255-0.188
		c0.375,0.188,1.41,0.564,1.41,1.035C84.533,95.434,82.842,96.28,81.995,96.468L81.995,96.468z M83.217,77.668
		c-0.375-0.941-0.469-1.788-0.094-2.163c0.658-0.471,2.914,0.375,3.289,1.41c0.565,0.94,0.565,2.068-0.375,2.351
		C85.096,79.359,83.499,78.514,83.217,77.668z M86.599,83.12c-0.188-0.846,1.503-1.504,2.632-1.41
		c0.939,0.187,2.632,1.127,2.349,2.067c-0.375,1.033-0.563,1.315-1.41,1.315C89.324,85.093,86.693,84.529,86.599,83.12z
		 M87.445,89.792c-0.188-0.75,1.505-1.128,2.162-1.128c0.564,0,3.103,0.378,2.351,1.411c-0.471,0.94-1.505,1.41-2.351,1.41
		C88.95,91.485,87.728,90.452,87.445,89.792z M92.52,97.689c-0.94,0.658-1.598,0.658-2.725,0.658c-1.033,0-1.223-0.658-1.223-1.504
		c0-0.658,1.034-1.127,1.505-1.221c0.564-0.188,1.222,0,1.786-0.188c0.375-0.094,0.375-0.094,0.939-0.281
		c0.47-0.094,0.751-0.188,0.846,0.563C93.837,96.468,93.553,97.126,92.52,97.689z M94.399,78.702
		c-0.471,0.281-0.471,0.563-1.41,0.375c-1.127-0.094-1.692-1.786-1.974-1.881c-0.376-0.188-1.222-1.127-0.847-1.597
		c0.471-0.376,2.54-0.376,3.479,0.47C94.776,77.009,94.776,78.418,94.399,78.702L94.399,78.702z M96.467,82.555
		c0.282-0.281,0.94-0.658,1.786-0.658c0.845,0,1.974,0.565,2.35,1.128c0.282,0.658,0.282,1.221-0.282,1.785
		c-0.377,0.376-2.914-0.281-3.291-0.752C96.467,83.495,96.28,83.025,96.467,82.555L96.467,82.555z M97.125,91.015
		c-0.28,0.282-0.375-0.658,0-1.127c0.565-0.376,1.786-1.034,2.538-1.034c0.658,0,1.785,0.188,1.599,0.752
		c-0.095,0.563-0.283,1.973-1.786,1.973C97.971,91.767,97.407,90.921,97.125,91.015L97.125,91.015z M100.038,97.972
		c-1.221,0.094-2.067-0.094-2.254-1.128c-0.094-0.939,0.846-1.221,1.033-1.221c0.094,0,1.127-0.188,1.41-0.283
		c0.659,0,1.785-0.846,2.35,0C102.856,95.904,101.261,97.689,100.038,97.972L100.038,97.972z M104.079,78.983
		c-0.188,0.376-0.564,1.504-1.975,1.128c-1.409-0.471-2.067-1.128-2.443-1.692c-0.281-0.564-1.317-1.41-0.469-2.256
		c0.469-0.375,2.631,0.47,3.664,1.221C103.704,78.23,104.173,78.418,104.079,78.983z M105.019,83.025
		c0.283-0.563,1.41-0.846,2.257-0.846c0.845,0.094,1.972,0.375,2.159,1.316c0.19,0.846,0,1.128-0.28,1.598
		c-0.469,0.376-2.162-0.188-2.819-0.469C105.583,84.341,104.737,83.401,105.019,83.025L105.019,83.025z M105.208,89.511
		c0-0.658,0.94-0.563,1.41-0.658c0.188-0.188,0.469-0.469,1.221-0.563c0.564-0.188,1.787-0.188,1.787,0.374
		c0.188,0.378,0,1.224-1.504,1.693C106.429,90.921,105.302,90.169,105.208,89.511L105.208,89.511z M110.658,95.716
		c0,0-1.224,1.127-1.504,1.598c-0.469,0.281-1.222,1.033-2.349,0.094c-0.658-0.658,0-1.786,0.471-2.069
		c0.375-0.375,3.194-2.067,3.758-1.221C111.503,94.963,110.658,95.716,110.658,95.716L110.658,95.716z M112.347,79.077
		c-0.563,0.846-1.41,0.751-2.44,0.563c-0.941-0.094-2.631-1.221-2.538-2.35c0.188-0.939,1.879-0.658,2.818-0.281
		C111.223,77.384,113.006,78.23,112.347,79.077z M123.531,92.051c-0.563,0-1.973-1.411,0.282-1.693
		c0.848-0.188,0.941,0.375,0.941,1.221C124.755,92.238,124.002,92.051,123.531,92.051L123.531,92.051z M124.755,85.469
		c-0.941-0.282-1.317-0.659-0.753-1.411c0.659-0.563,0.939-0.375,1.784-0.094c0.658,0.282,0.847,0.846,0.658,1.411
		C126.351,86.034,125.786,85.752,124.755,85.469z M130.11,105.774c-1.318-0.282-2.537-1.88-3.196-2.82
		c-0.564-1.127-0.751-3.196-0.282-4.135c0.377-1.128,0.941-1.223,1.504-0.846c0.656,0.375,0.282,3.197,0.656,3.29
		c0.471,0.282,0.754,2.258,1.975,2.539c0.377,0,0.848,0.94,0.848,0.94S131.144,106.056,130.11,105.774L130.11,105.774z"/>
	<path fill="none" stroke="#FFFFFF" stroke-width="0.216" stroke-miterlimit="2.613" d="M30.873,190.42h4.528
		c1.241,0.013,2.326-0.833,2.618-2.039l0.975-3.851c0.153-0.61,0.68-1.02,1.309-1.02h8.484c0.628,0,1.155,0.409,1.309,1.02
		l0.974,3.851c0.292,1.206,1.377,2.052,2.618,2.039h4.528c1.491,0,2.7-1.209,2.7-2.701c0-0.262-0.038-0.523-0.114-0.774
		l-9.507-31.781c-0.331-1.15-1.389-1.938-2.586-1.926h-8.327c-1.215,0-2.239,0.762-2.586,1.926l-9.507,31.781
		c-0.429,1.428,0.381,2.933,1.809,3.361C30.349,190.382,30.61,190.42,30.873,190.42L30.873,190.42z M47.11,175.953h-5.132
		c-0.355-0.005-0.639-0.297-0.633-0.652c0-0.047,0.006-0.094,0.017-0.14l2.898-11.463c0.067-0.262,0.501-0.262,0.567,0l2.899,11.463
		c0.083,0.346-0.131,0.692-0.477,0.774C47.204,175.947,47.157,175.953,47.11,175.953L47.11,175.953z M108.73,191.315
		c9.784,0,17.713-8.669,17.713-19.364c0-10.694-7.929-19.363-17.713-19.363c-9.783,0-17.714,8.669-17.714,19.363
		C91.018,182.646,98.948,191.315,108.73,191.315L108.73,191.315z M108.73,182.682c-4.724,0-7.252-4.804-7.252-10.73
		s2.252-10.731,7.252-10.731c4.999,0,7.254,4.805,7.254,10.731S113.455,182.682,108.73,182.682z M146.145,179.795
		c0,2.224-1.747,3.436-4.121,3.436c-2.997,0-4.936-1.791-6.73-3.628c-0.95-0.972-2.541-0.939-3.546-0.024l-2.226,2.027
		c-0.868,0.793-1.522,2.121-0.783,3.033c2.404,2.975,5.991,6.352,14.642,6.352c7.679,0,12.476-5.353,12.476-11.122
		c0-4.708-1.988-7.822-7.612-10.696l-5.821-2.765c-2.476-0.659-3.529-1.555-3.529-3.171c0-1.719,1.203-2.77,3.176-2.77
		c2.319,0,4.275,1.44,6.038,2.854c1.033,0.829,2.555,0.634,3.454-0.34l2.326-2.519c0.808-0.876,1.107-2.331,0.252-3.163
		c-2.804-2.723-6.994-4.767-12.729-4.767c-8.113,0-12.896,5.031-12.896,11.146c0,5.154,2.506,7.833,7.949,10.315l6.688,2.86
		C145.271,177.513,146.145,178.328,146.145,179.795L146.145,179.795z M60.797,171.953c0,10.693,7.932,19.362,17.714,19.362
		c4.669,0,8.917-1.975,12.08-5.203c0.557-0.566,0.543-1.485,0.006-2.072l-3.558-3.886c-0.712-0.774-1.805-0.551-2.564,0.178
		c-1.731,1.667-3.102,2.351-5.966,2.351c-5,0-7.252-4.804-7.252-10.73v-0.003c0-5.927,2.252-10.73,7.252-10.73
		c2.865,0,4.235,0.683,5.966,2.352c0.759,0.728,1.852,0.952,2.564,0.177l3.558-3.885c0.537-0.584,0.55-1.507-0.006-2.073
		c-3.164-3.229-7.412-5.203-12.08-5.203c-9.783,0-17.714,8.669-17.714,19.362V171.953z M206.847,167.434h-6.599
		c-0.745,0.001-1.35-0.603-1.351-1.348c0-0.001,0-0.002,0-0.003v-2.705c0-0.746,0.604-1.35,1.351-1.35h9.725
		c1.49,0,2.699-1.208,2.7-2.698c0-0.001,0-0.002,0-0.003v-3.388c0.001-1.49-1.207-2.699-2.698-2.7c-0.001,0-0.002,0-0.002,0H191.34
		c-1.49,0-2.698,1.208-2.698,2.698v0.002v31.781c0,1.49,1.208,2.699,2.698,2.7h18.633c1.491,0,2.7-1.209,2.7-2.7l0,0v-3.39
		c0-1.491-1.209-2.701-2.7-2.701l0,0h-9.725c-0.745,0.001-1.35-0.603-1.351-1.348c0-0.001,0-0.001,0-0.002v-2.705
		c0-0.744,0.604-1.351,1.351-1.351h6.599c1.491,0.001,2.7-1.207,2.701-2.698c0-0.001,0-0.002,0-0.002v-3.388
		c0.001-1.492-1.207-2.702-2.698-2.703C206.849,167.434,206.848,167.434,206.847,167.434L206.847,167.434z M168.901,190.42h4.856
		c1.491,0,2.701-1.21,2.701-2.7v-24.343c0-0.746,0.602-1.351,1.348-1.351h5.454c1.491,0,2.701-1.209,2.701-2.7l0,0v-3.388
		c0-1.491-1.21-2.7-2.701-2.7l0,0h-23.863c-1.49-0.001-2.699,1.207-2.7,2.698c0,0.001,0,0.001,0,0.001v3.389
		c-0.001,1.491,1.207,2.7,2.698,2.7h0.002h5.452c0.746,0,1.351,0.604,1.351,1.351v24.343
		C166.202,189.211,167.41,190.419,168.901,190.42L168.901,190.42z M23.616,181.606h-7.253c-0.746,0-1.351-0.604-1.351-1.35l0,0
		v-24.318c0-1.491-1.208-2.7-2.699-2.7H7.457c-1.491,0-2.7,1.209-2.7,2.7v31.779c0,1.492,1.21,2.7,2.703,2.698l14.024-0.014
		l2.136-0.005c1.489-0.001,2.696-1.209,2.696-2.698v-3.392C26.316,182.816,25.108,181.607,23.616,181.606
		C23.617,181.606,23.617,181.606,23.616,181.606L23.616,181.606z"/>
	<path fill="#33A457" d="M108.73,191.315c9.784,0,17.713-8.669,17.713-19.364c0-10.694-7.929-19.363-17.713-19.363
		c-9.783,0-17.714,8.669-17.714,19.363C91.018,182.646,98.948,191.315,108.73,191.315L108.73,191.315z M108.73,182.682
		c-4.724,0-7.252-4.804-7.252-10.73s2.252-10.731,7.252-10.731c4.999,0,7.254,4.805,7.254,10.731S113.455,182.682,108.73,182.682z
		 M30.873,190.42h4.528c1.241,0.013,2.326-0.833,2.618-2.039l0.975-3.851c0.153-0.61,0.68-1.02,1.309-1.02h8.484
		c0.628,0,1.155,0.409,1.309,1.02l0.974,3.851c0.292,1.206,1.377,2.052,2.618,2.039h4.528c1.491,0,2.7-1.209,2.7-2.701
		c0-0.262-0.038-0.523-0.114-0.774l-9.507-31.781c-0.331-1.15-1.389-1.938-2.586-1.926h-8.327c-1.215,0-2.239,0.762-2.586,1.926
		l-9.507,31.781c-0.429,1.428,0.381,2.933,1.809,3.361C30.349,190.382,30.61,190.42,30.873,190.42L30.873,190.42z M47.11,175.953
		h-5.132c-0.355-0.005-0.639-0.297-0.633-0.652c0-0.047,0.006-0.094,0.017-0.14l2.898-11.463c0.067-0.262,0.501-0.262,0.567,0
		l2.899,11.463c0.083,0.346-0.131,0.692-0.477,0.774C47.204,175.947,47.157,175.953,47.11,175.953L47.11,175.953z M60.797,171.953
		c0,10.693,7.932,19.362,17.714,19.362c4.669,0,8.917-1.975,12.08-5.203c0.557-0.566,0.543-1.485,0.006-2.072l-3.558-3.886
		c-0.712-0.774-1.805-0.551-2.564,0.178c-1.731,1.667-3.102,2.351-5.966,2.351c-5,0-7.252-4.804-7.252-10.73v-0.003
		c0-5.927,2.252-10.73,7.252-10.73c2.865,0,4.235,0.683,5.966,2.352c0.759,0.728,1.852,0.952,2.564,0.177l3.558-3.885
		c0.537-0.584,0.55-1.507-0.006-2.073c-3.164-3.229-7.412-5.203-12.08-5.203c-9.783,0-17.714,8.669-17.714,19.362V171.953
		L60.797,171.953z M146.145,179.795c0,2.224-1.747,3.436-4.121,3.436c-2.997,0-4.936-1.791-6.73-3.628
		c-0.95-0.972-2.541-0.939-3.546-0.024l-2.226,2.027c-0.868,0.793-1.522,2.121-0.783,3.033c2.404,2.975,5.991,6.352,14.642,6.352
		c7.679,0,12.476-5.353,12.476-11.122c0-4.708-1.988-7.822-7.612-10.696l-5.821-2.765c-2.475-0.659-3.529-1.555-3.529-3.171
		c0-1.719,1.203-2.77,3.176-2.77c2.319,0,4.275,1.44,6.038,2.854c1.033,0.829,2.555,0.634,3.454-0.34l2.326-2.519
		c0.808-0.876,1.107-2.331,0.252-3.163c-2.804-2.723-6.994-4.767-12.729-4.767c-8.113,0-12.896,5.031-12.896,11.146
		c0,5.154,2.506,7.833,7.949,10.315l6.688,2.86C145.271,177.513,146.145,178.328,146.145,179.795L146.145,179.795z M206.847,167.434
		h-6.599c-0.745,0.001-1.35-0.603-1.351-1.348c0-0.001,0-0.002,0-0.003v-2.705c0-0.746,0.604-1.35,1.351-1.35h9.725
		c1.49,0,2.699-1.208,2.7-2.698c0-0.001,0-0.002,0-0.003v-3.388c0.001-1.49-1.207-2.699-2.698-2.7c-0.001,0-0.002,0-0.002,0H191.34
		c-1.49,0-2.698,1.208-2.698,2.698v0.002v31.781c0,1.49,1.208,2.699,2.698,2.7h18.633c1.491,0,2.7-1.209,2.7-2.7l0,0v-3.39
		c0-1.491-1.209-2.701-2.7-2.701l0,0h-9.725c-0.745,0.001-1.35-0.603-1.351-1.348c0-0.001,0-0.001,0-0.002v-2.705
		c0-0.744,0.604-1.351,1.351-1.351h6.599c1.491,0.001,2.7-1.207,2.701-2.698c0-0.001,0-0.002,0-0.002v-3.388
		c0.001-1.492-1.207-2.702-2.698-2.703C206.849,167.434,206.848,167.434,206.847,167.434L206.847,167.434z M168.901,190.42h4.856
		c1.491,0,2.701-1.21,2.701-2.7v-24.343c0-0.746,0.602-1.351,1.348-1.351h5.454c1.491,0,2.701-1.209,2.701-2.7l0,0v-3.388
		c0-1.491-1.21-2.7-2.701-2.7l0,0h-23.863c-1.49-0.001-2.699,1.207-2.7,2.698c0,0.001,0,0.001,0,0.001v3.389
		c-0.001,1.491,1.208,2.7,2.698,2.7h0.002h5.452c0.746,0,1.351,0.604,1.351,1.351v24.343
		C166.202,189.211,167.41,190.419,168.901,190.42L168.901,190.42z M23.616,181.606h-7.253c-0.746,0-1.35-0.604-1.35-1.35l0,0
		v-24.318c0-1.491-1.208-2.7-2.7-2.7H7.457c-1.491,0-2.7,1.209-2.7,2.7v31.779c0,1.492,1.21,2.7,2.703,2.698l14.024-0.014
		l2.136-0.005c1.489-0.001,2.696-1.209,2.696-2.698v-3.392C26.316,182.816,25.108,181.607,23.616,181.606
		C23.617,181.606,23.617,181.606,23.616,181.606L23.616,181.606z"/>
</g>
</svg>
