<?xml version="1.0" encoding="utf-8"?>
<!DOCTYPE svg PUBLIC "-//W3C//DTD SVG 1.1//EN" "http://www.w3.org/Graphics/SVG/1.1/DTD/svg11.dtd">
<svg version="1.1" id="svg1016" xmlns="http://www.w3.org/2000/svg" xmlns:xlink="http://www.w3.org/1999/xlink" x="0px" y="0px" width="216px" height="216px" viewBox="0 0 216 216" enable-background="new 0 0 216 216" xml:space="preserve">
<g>
	<path fill-rule="evenodd" clip-rule="evenodd" fill="#FFFFFF" d="M209.609,109.159v8.29c0,11.393-11.593,20.714-25.763,20.714
		H31.991c-14.169,0-25.762-9.321-25.762-20.714v-8.29h20.45c-0.216-0.56-0.341-1.155-0.37-1.757
		c-0.036-1.874,0.343-3.729,1.109-5.434v-0.096v-0.095l0.144-0.268l5.957-8.954c0.431-0.861,1.575-1.423,2.518-1.423h7.414v-0.6
		c-0.042-2.399,0.931-4.701,2.677-6.34c0.819-0.847,1.8-1.521,2.884-1.979c1.097-0.444,2.271-0.668,3.453-0.665
		c2.25-0.029,4.422,0.81,6.068,2.343l0.396,0.396c0.833,0.829,1.487,1.823,1.916,2.915c0.445,1.114,0.666,2.303,0.651,3.501
		c0.033,1.936-0.574,3.832-1.727,5.386l2.455,3.168h5.196c0.683,0.015,1.345,0.246,1.886,0.667c2.174,1.599,3.475,4.128,3.517,6.827
		c0.017,0.805-0.117,1.604-0.403,2.405H209.609L209.609,109.159z M27.833,109.159h43.143c0.304-0.747,0.501-1.54,0.579-2.358v-0.285
		c-0.152-2.248-1.319-4.309-3.168-5.592c-0.317-0.243-0.698-0.378-1.094-0.396h-5.734l-3.501-4.561
		c1.395-1.456,2.154-3.406,2.108-5.419c0.033-2.045-0.761-4.018-2.202-5.467c-1.441-1.445-3.41-2.241-5.45-2.204
		c-2.032-0.033-3.984,0.785-5.386,2.251c-2.212,2.001-2.739,4.797-2.028,7.414h-9.062c-0.632-0.002-1.31,0.209-1.584,0.667
		l-5.956,8.983c-0.174,0.14-0.174,0.219-0.174,0.315c-0.601,1.412-0.944,2.919-1.015,4.452
		C27.263,107.739,27.452,108.502,27.833,109.159z"/>
	<path fill-rule="evenodd" clip-rule="evenodd" fill="#E2001A" d="M6.229,109.159h20.45c-0.216-0.56-0.341-1.155-0.37-1.757
		c-0.036-1.874,0.343-3.729,1.109-5.434v-0.096v-0.095l0.144-0.268l5.957-8.954c0.431-0.861,1.575-1.423,2.518-1.423h7.414v-0.6
		c-0.042-2.399,0.931-4.701,2.677-6.34c0.819-0.847,1.8-1.521,2.884-1.979c1.097-0.444,2.271-0.668,3.453-0.665
		c2.25-0.029,4.422,0.81,6.068,2.343l0.396,0.396c0.833,0.829,1.487,1.823,1.916,2.915c0.445,1.114,0.666,2.303,0.651,3.501
		c0.033,1.936-0.574,3.832-1.727,5.386l2.455,3.168h5.196c0.683,0.015,1.345,0.246,1.886,0.667c2.174,1.599,3.475,4.128,3.517,6.827
		c0.017,0.805-0.117,1.604-0.403,2.405h137.191v-12.75c0-11.393-11.593-20.714-25.763-20.714H31.991
		c-14.169,0-25.762,9.321-25.762,20.714V109.159L6.229,109.159z M27.833,109.159c-0.381-0.657-0.569-1.42-0.525-2.2
		c0.071-1.532,0.414-3.04,1.015-4.452c0-0.096,0-0.175,0.174-0.315l5.956-8.983c0.274-0.458,0.952-0.669,1.584-0.667h9.062
		c-0.711-2.617-0.184-5.413,2.028-7.414c1.402-1.466,3.354-2.284,5.386-2.251c2.04-0.037,4.009,0.759,5.45,2.204
		c1.441,1.449,2.235,3.421,2.202,5.467c0.046,2.014-0.713,3.963-2.108,5.419l3.501,4.561h5.734c0.396,0.018,0.777,0.153,1.094,0.396
		c1.85,1.283,3.016,3.344,3.168,5.592v0.285c-0.078,0.818-0.275,1.611-0.579,2.358H27.833z"/>
	<path fill-rule="evenodd" clip-rule="evenodd" fill="#008BD0" d="M31.991,75.695h151.856c14.17,0,25.763,9.321,25.763,20.714v21.04
		c0,11.393-11.593,20.714-25.763,20.714H31.991c-14.169,0-25.762-9.321-25.762-20.714v-21.04
		C6.229,85.017,17.821,75.695,31.991,75.695L31.991,75.695z M31.991,143.473h151.856c17.09,0,31.072-11.711,31.072-26.023v-21.04
		c0-14.313-13.982-26.023-31.072-26.023H31.991c-17.089,0-31.072,11.711-31.072,26.023v21.04
		C0.919,131.762,14.901,143.473,31.991,143.473z"/>
	<g>
		<path fill="#008BD0" d="M161.42,120.51v4.295h-6.335c-0.563-0.018-1.121,0.132-1.598,0.432c-0.414,0.244-0.654,0.699-0.629,1.176
			c0,1.189,0.98,1.766,3.059,1.766h5.503v6.965h-6.562c-3.119,0-5.482-0.617-7.092-1.875c-1.607-1.253-2.42-3.188-2.42-5.784
			c-0.008-0.844,0.094-1.685,0.305-2.501c0.295-0.863,0.776-1.653,1.4-2.315c-0.538-0.577-0.971-1.239-1.285-1.962
			c-0.261-0.621-0.404-1.287-0.42-1.961c-0.035-1.221,0.227-2.434,0.763-3.531c0.475-0.932,1.171-1.729,2.032-2.324
			c0.91-0.613,1.934-1.04,3.012-1.256c1.217-0.27,2.461-0.402,3.705-0.393h6.562v6.866h-6.237c-0.615-0.043-1.229,0.048-1.805,0.266
			c-0.34,0.18-0.545,0.545-0.52,0.931c-0.041,0.408,0.18,0.802,0.549,0.98c0.574,0.24,1.193,0.346,1.814,0.305L161.42,120.51z"/>
		<path fill="#008BD0" d="M129.636,135.143h-7.357v-13.651c-0.014-1.448,0.223-2.89,0.697-4.259
			c0.422-1.262,1.089-2.433,1.961-3.441c0.881-0.991,1.961-1.785,3.169-2.332c1.33-0.598,2.778-0.893,4.235-0.865
			c1.443-0.025,2.879,0.252,4.209,0.814c1.182,0.516,2.232,1.289,3.077,2.266c0.862,1.005,1.508,2.177,1.893,3.441
			c0.437,1.418,0.649,2.892,0.638,4.376v0.254h-7.393v-0.254c0.055-0.867-0.129-1.732-0.531-2.502
			c-0.432-0.61-1.157-0.939-1.901-0.862c-0.74-0.027-1.458,0.271-1.962,0.813c-0.549,0.706-0.814,1.589-0.744,2.483v2.089h7.844
			v6.344h-7.844v5.287H129.636z"/>
		<rect x="110.411" y="111.143" fill="#008BD0" width="7.503" height="24"/>
		<path fill="#008BD0" d="M106.909,128.267v6.866h-2.029c-1.426,0.031-2.851-0.127-4.236-0.473c-1.042-0.25-1.998-0.773-2.765-1.521
			c-0.738-0.804-1.253-1.788-1.494-2.853c-0.327-1.433-0.479-2.904-0.449-4.375v-14.77h7.502v14.025
			c-0.009,0.541,0.03,1.083,0.118,1.616c0.039,0.346,0.187,0.669,0.422,0.924c0.225,0.243,0.524,0.397,0.851,0.44
			c0.467,0.089,0.939,0.13,1.414,0.118H106.909z"/>
		<path fill="#008BD0" d="M161.42,120.51v4.295h-6.335c-0.563-0.018-1.121,0.132-1.598,0.432c-0.414,0.244-0.654,0.699-0.629,1.176
			c0,1.189,0.98,1.766,3.059,1.766h5.503v6.965h-6.562c-3.119,0-5.482-0.617-7.092-1.875c-1.607-1.253-2.42-3.188-2.42-5.784
			c-0.008-0.844,0.094-1.685,0.305-2.501c0.295-0.863,0.776-1.653,1.4-2.315c-0.538-0.577-0.971-1.239-1.285-1.962
			c-0.261-0.621-0.404-1.287-0.42-1.961c-0.035-1.221,0.227-2.434,0.763-3.531c0.475-0.932,1.171-1.729,2.032-2.324
			c0.91-0.613,1.934-1.04,3.012-1.256c1.217-0.27,2.461-0.402,3.705-0.393h6.562v6.866h-6.237c-0.615-0.043-1.229,0.048-1.805,0.266
			c-0.34,0.18-0.545,0.545-0.52,0.931c-0.041,0.408,0.18,0.802,0.549,0.98c0.574,0.24,1.193,0.346,1.814,0.305L161.42,120.51z"/>
		<path fill="#008BD0" d="M129.636,135.143h-7.357v-13.651c-0.014-1.448,0.223-2.89,0.697-4.259
			c0.422-1.262,1.089-2.433,1.961-3.441c0.881-0.991,1.961-1.785,3.169-2.332c1.33-0.598,2.778-0.893,4.235-0.865
			c1.443-0.025,2.879,0.252,4.209,0.814c1.182,0.516,2.232,1.289,3.077,2.266c0.862,1.005,1.508,2.177,1.893,3.441
			c0.437,1.418,0.649,2.892,0.638,4.376v0.254h-7.393v-0.254c0.055-0.867-0.129-1.732-0.531-2.502
			c-0.432-0.61-1.157-0.939-1.901-0.862c-0.74-0.027-1.458,0.271-1.962,0.813c-0.549,0.706-0.814,1.589-0.744,2.483v2.089h7.844
			v6.344h-7.844v5.287H129.636z"/>
		<rect x="110.411" y="111.143" fill="#008BD0" width="7.503" height="24"/>
		<path fill="#008BD0" d="M106.909,128.267v6.866h-2.029c-1.426,0.031-2.851-0.127-4.236-0.473c-1.042-0.25-1.998-0.773-2.765-1.521
			c-0.738-0.804-1.253-1.788-1.494-2.853c-0.327-1.433-0.479-2.904-0.449-4.375v-14.77h7.502v14.025
			c-0.009,0.541,0.03,1.083,0.118,1.616c0.039,0.346,0.187,0.669,0.422,0.924c0.225,0.243,0.524,0.397,0.851,0.44
			c0.467,0.089,0.939,0.13,1.414,0.118H106.909z"/>
	</g>
	<polygon fill="#FFFFFF" points="185.095,82.074 185.095,89.047 179.896,89.047 179.896,106.074 172.383,106.074 172.383,89.047 
		167.194,89.047 167.194,82.074 	"/>
	<polygon fill="#FFFFFF" points="185.095,82.074 185.095,89.047 179.896,89.047 179.896,106.074 172.383,106.074 172.383,89.047 
		167.194,89.047 167.194,82.074 	"/>
	<polygon fill="#FFFFFF" points="185.095,82.074 185.095,89.047 179.896,89.047 179.896,106.074 172.383,106.074 172.383,89.047 
		167.194,89.047 167.194,82.074 	"/>
	<path fill="#FFFFFF" d="M152.329,106.074h-7.436v-24h8.689c1.318-0.002,2.634,0.136,3.924,0.411
		c1.157,0.254,2.26,0.713,3.254,1.355c0.926,0.616,1.681,1.451,2.198,2.432c0.571,1.119,0.849,2.364,0.803,3.62
		c-0.002,0.978-0.167,1.95-0.49,2.874c-0.297,0.947-0.896,1.769-1.706,2.345c0.876,0.608,1.541,1.476,1.902,2.479
		c0.313,1.126,0.457,2.287,0.43,3.454v5.031h-7.607v-5.031c0.076-0.758-0.092-1.516-0.481-2.169c-0.44-0.44-1.058-0.656-1.677-0.586
		h-1.854v-5.375h1.854c0.561,0.059,1.123-0.114,1.55-0.481c0.329-0.41,0.489-0.929,0.452-1.453c0.047-0.531-0.135-1.06-0.502-1.451
		c-0.617-0.379-1.349-0.538-2.069-0.452h-1.294v16.998H152.329z"/>
	<path fill="#FFFFFF" d="M152.329,106.074h-7.436v-24h8.689c1.318-0.002,2.634,0.136,3.924,0.411
		c1.157,0.254,2.26,0.713,3.254,1.355c0.926,0.616,1.681,1.451,2.198,2.432c0.571,1.119,0.849,2.364,0.803,3.62
		c-0.002,0.978-0.167,1.95-0.49,2.874c-0.297,0.947-0.896,1.769-1.706,2.345c0.876,0.608,1.541,1.476,1.902,2.479
		c0.313,1.126,0.457,2.287,0.43,3.454v5.031h-7.607v-5.031c0.076-0.758-0.092-1.516-0.481-2.169c-0.44-0.44-1.058-0.656-1.677-0.586
		h-1.854v-5.375h1.854c0.561,0.059,1.123-0.114,1.55-0.481c0.329-0.41,0.489-0.929,0.452-1.453c0.047-0.531-0.135-1.06-0.502-1.451
		c-0.617-0.379-1.349-0.538-2.069-0.452h-1.294v16.998H152.329z"/>
	<path fill="#FFFFFF" d="M152.329,106.074h-7.436v-24h8.689c1.318-0.002,2.634,0.136,3.924,0.411
		c1.157,0.254,2.26,0.713,3.254,1.355c0.926,0.616,1.681,1.451,2.198,2.432c0.571,1.119,0.849,2.364,0.803,3.62
		c-0.002,0.978-0.167,1.95-0.49,2.874c-0.297,0.947-0.896,1.769-1.706,2.345c0.876,0.608,1.541,1.476,1.902,2.479
		c0.313,1.126,0.457,2.287,0.43,3.454v5.031h-7.607v-5.031c0.076-0.758-0.092-1.516-0.481-2.169c-0.44-0.44-1.058-0.656-1.677-0.586
		h-1.854v-5.375h1.854c0.561,0.059,1.123-0.114,1.55-0.481c0.329-0.41,0.489-0.929,0.452-1.453c0.047-0.531-0.135-1.06-0.502-1.451
		c-0.617-0.379-1.349-0.538-2.069-0.452h-1.294v16.998H152.329z"/>
	<path fill="#FFFFFF" d="M128.458,106.652c-1.646-0.002-3.273-0.336-4.787-0.98c-1.491-0.633-2.848-1.541-4.002-2.678
		c-1.152-1.147-2.082-2.497-2.746-3.981c-1.371-3.126-1.371-6.683,0-9.809c0.66-1.489,1.592-2.841,2.746-3.99
		c1.15-1.144,2.51-2.054,4.002-2.688c1.509-0.658,3.139-0.992,4.787-0.981c1.684-0.018,3.354,0.313,4.902,0.981
		c1.504,0.631,2.867,1.555,4.012,2.717c2.354,2.408,3.669,5.646,3.667,9.014c0.013,1.654-0.321,3.295-0.981,4.814
		c-2.002,4.605-6.549,7.583-11.571,7.581H128.458z"/>
	<path fill="#FFFFFF" d="M128.458,106.652c-1.646-0.002-3.273-0.336-4.787-0.98c-1.491-0.633-2.848-1.541-4.002-2.678
		c-1.152-1.147-2.082-2.497-2.746-3.981c-1.371-3.126-1.371-6.683,0-9.809c0.66-1.489,1.592-2.841,2.746-3.99
		c1.15-1.144,2.51-2.054,4.002-2.688c1.509-0.658,3.139-0.992,4.787-0.981c1.684-0.018,3.354,0.313,4.902,0.981
		c1.504,0.631,2.867,1.555,4.012,2.717c2.354,2.408,3.669,5.646,3.667,9.014c0.013,1.654-0.321,3.295-0.981,4.814
		c-2.002,4.605-6.549,7.583-11.571,7.581H128.458z"/>
	<path fill="#FFFFFF" d="M128.458,106.652c-1.646-0.002-3.273-0.336-4.787-0.98c-1.491-0.633-2.848-1.541-4.002-2.678
		c-1.152-1.147-2.082-2.497-2.746-3.981c-1.371-3.126-1.371-6.683,0-9.809c0.66-1.489,1.592-2.841,2.746-3.99
		c1.15-1.144,2.51-2.054,4.002-2.688c1.509-0.658,3.139-0.992,4.787-0.981c1.684-0.018,3.354,0.313,4.902,0.981
		c1.504,0.631,2.867,1.555,4.012,2.717c2.354,2.408,3.669,5.646,3.667,9.014c0.013,1.654-0.321,3.295-0.981,4.814
		c-2.002,4.605-6.549,7.583-11.571,7.581H128.458z"/>
	<path fill="#FFFFFF" d="M128.458,106.652c-1.646-0.002-3.273-0.336-4.787-0.98c-1.491-0.633-2.848-1.541-4.002-2.678
		c-1.152-1.147-2.082-2.497-2.746-3.981c-1.371-3.126-1.371-6.683,0-9.809c0.66-1.489,1.592-2.841,2.746-3.99
		c1.15-1.144,2.51-2.054,4.002-2.688c1.509-0.658,3.139-0.992,4.787-0.981c1.684-0.018,3.354,0.313,4.902,0.981
		c1.504,0.631,2.867,1.555,4.012,2.717c2.354,2.408,3.669,5.646,3.667,9.014c0.013,1.654-0.321,3.295-0.981,4.814
		c-2.002,4.605-6.549,7.583-11.571,7.581H128.458z"/>
	<path fill="#FFFFFF" d="M128.458,106.652c-1.646-0.002-3.273-0.336-4.787-0.98c-1.491-0.633-2.848-1.541-4.002-2.678
		c-1.152-1.147-2.082-2.497-2.746-3.981c-1.371-3.126-1.371-6.683,0-9.809c0.66-1.489,1.592-2.841,2.746-3.99
		c1.15-1.144,2.51-2.054,4.002-2.688c1.509-0.658,3.139-0.992,4.787-0.981c1.684-0.018,3.354,0.313,4.902,0.981
		c1.504,0.631,2.867,1.555,4.012,2.717c2.354,2.408,3.669,5.646,3.667,9.014c0.013,1.654-0.321,3.295-0.981,4.814
		c-2.002,4.605-6.549,7.583-11.571,7.581H128.458z"/>
	<path fill="#FFFFFF" d="M128.458,106.652c-1.646-0.002-3.273-0.336-4.787-0.98c-1.491-0.633-2.848-1.541-4.002-2.678
		c-1.152-1.147-2.082-2.497-2.746-3.981c-1.371-3.126-1.371-6.683,0-9.809c0.66-1.489,1.592-2.841,2.746-3.99
		c1.15-1.144,2.51-2.054,4.002-2.688c1.509-0.658,3.139-0.992,4.787-0.981c1.684-0.018,3.354,0.313,4.902,0.981
		c1.504,0.631,2.867,1.555,4.012,2.717c2.354,2.408,3.669,5.646,3.667,9.014c0.013,1.654-0.321,3.295-0.981,4.814
		c-2.002,4.605-6.549,7.583-11.571,7.581H128.458z"/>
	<path fill="#FFFFFF" d="M128.458,106.652c-1.646-0.002-3.273-0.336-4.787-0.98c-1.491-0.633-2.848-1.541-4.002-2.678
		c-1.152-1.147-2.082-2.497-2.746-3.981c-1.371-3.126-1.371-6.683,0-9.809c0.66-1.489,1.592-2.841,2.746-3.99
		c1.15-1.144,2.51-2.054,4.002-2.688c1.509-0.658,3.139-0.992,4.787-0.981c1.684-0.018,3.354,0.313,4.902,0.981
		c1.504,0.631,2.867,1.555,4.012,2.717c2.354,2.408,3.669,5.646,3.667,9.014c0.013,1.654-0.321,3.295-0.981,4.814
		c-2.002,4.605-6.549,7.583-11.571,7.581H128.458z"/>
	<path fill="#FFFFFF" d="M101.388,99.305v-6.962c0.95,0.019,1.898-0.098,2.816-0.343c0.545-0.19,0.927-0.681,0.98-1.257
		c-0.003-0.484-0.24-0.938-0.639-1.215c-0.54-0.36-1.186-0.533-1.833-0.481h-1.295v17.027h-7.502v-24h8.935
		c1.37-0.014,2.735,0.175,4.051,0.561c1.156,0.327,2.238,0.875,3.186,1.616c0.902,0.712,1.631,1.623,2.129,2.66
		c0.534,1.132,0.795,2.375,0.766,3.627c0,3.019-0.906,5.234-2.717,6.639C108.47,98.589,104.614,99.305,101.388,99.305z"/>
	<path fill="#FFFFFF" d="M101.388,99.305v-6.962c0.95,0.019,1.898-0.098,2.816-0.343c0.545-0.19,0.927-0.681,0.98-1.257
		c-0.003-0.484-0.24-0.938-0.639-1.215c-0.54-0.36-1.186-0.533-1.833-0.481h-1.295v17.027h-7.502v-24h8.935
		c1.37-0.014,2.735,0.175,4.051,0.561c1.156,0.327,2.238,0.875,3.186,1.616c0.902,0.712,1.631,1.623,2.129,2.66
		c0.534,1.132,0.795,2.375,0.766,3.627c0,3.019-0.906,5.234-2.717,6.639C108.47,98.589,104.614,99.305,101.388,99.305z"/>
	<path fill="#FFFFFF" d="M101.388,99.305v-6.962c0.95,0.019,1.898-0.098,2.816-0.343c0.545-0.19,0.927-0.681,0.98-1.257
		c-0.003-0.484-0.24-0.938-0.639-1.215c-0.54-0.36-1.186-0.533-1.833-0.481h-1.295v17.027h-7.502v-24h8.935
		c1.37-0.014,2.735,0.175,4.051,0.561c1.156,0.327,2.238,0.875,3.186,1.616c0.902,0.712,1.631,1.623,2.129,2.66
		c0.534,1.132,0.795,2.375,0.766,3.627c0,3.019-0.906,5.234-2.717,6.639C108.47,98.589,104.614,99.305,101.388,99.305z"/>
	<path fill="#FFFFFF" d="M90.081,81.829v7.15c-0.37-0.121-0.746-0.216-1.128-0.284c-0.32-0.088-0.649-0.136-0.98-0.147
		c-0.385-0.011-0.757,0.13-1.04,0.393c-0.267,0.228-0.419,0.561-0.421,0.913c0.01,0.613,0.14,1.219,0.382,1.784
		c0.293,0.694,0.646,1.421,0.981,2.167c0.368,0.738,0.695,1.499,0.98,2.274c0.288,0.677,0.445,1.403,0.46,2.138
		c0,2.712-0.732,4.776-2.197,6.19c-1.452,1.421-3.618,2.116-6.512,2.116c-0.329,0-0.656-0.032-0.981-0.087
		c-0.354,0-0.902-0.147-1.627-0.313v-7.111c0.394,0.149,0.801,0.261,1.215,0.333c0.378,0.077,0.763,0.118,1.147,0.127
		c0.385,0.023,0.762-0.115,1.04-0.381c0.236-0.233,0.368-0.554,0.363-0.885c-0.044-0.55-0.197-1.085-0.45-1.577l-0.982-2.147
		c-0.353-0.755-0.686-1.56-0.981-2.395c-0.242-0.779-0.344-1.596-0.304-2.411c-0.154-2.238,0.595-4.447,2.079-6.128
		c1.394-1.403,3.433-2.111,6.15-2.111C88.224,81.446,89.167,81.577,90.081,81.829z"/>
	<path fill="#FFFFFF" d="M90.081,81.829v7.15c-0.37-0.121-0.746-0.216-1.128-0.284c-0.32-0.088-0.649-0.136-0.98-0.147
		c-0.385-0.011-0.757,0.13-1.04,0.393c-0.267,0.228-0.419,0.561-0.421,0.913c0.01,0.613,0.14,1.219,0.382,1.784
		c0.293,0.694,0.646,1.421,0.981,2.167c0.368,0.738,0.695,1.499,0.98,2.274c0.288,0.677,0.445,1.403,0.46,2.138
		c0,2.712-0.732,4.776-2.197,6.19c-1.452,1.421-3.618,2.116-6.512,2.116c-0.329,0-0.656-0.032-0.981-0.087
		c-0.354,0-0.902-0.147-1.627-0.313v-7.111c0.394,0.149,0.801,0.261,1.215,0.333c0.378,0.077,0.763,0.118,1.147,0.127
		c0.385,0.023,0.762-0.115,1.04-0.381c0.236-0.233,0.368-0.554,0.363-0.885c-0.044-0.55-0.197-1.085-0.45-1.577l-0.982-2.147
		c-0.353-0.755-0.686-1.56-0.981-2.395c-0.242-0.779-0.344-1.596-0.304-2.411c-0.154-2.238,0.595-4.447,2.079-6.128
		c1.394-1.403,3.433-2.111,6.15-2.111C88.224,81.446,89.167,81.577,90.081,81.829z"/>
	<path fill="#FFFFFF" d="M90.081,81.829v7.15c-0.37-0.121-0.746-0.216-1.128-0.284c-0.32-0.088-0.649-0.136-0.98-0.147
		c-0.385-0.011-0.757,0.13-1.04,0.393c-0.267,0.228-0.419,0.561-0.421,0.913c0.01,0.613,0.14,1.219,0.382,1.784
		c0.293,0.694,0.646,1.421,0.981,2.167c0.368,0.738,0.695,1.499,0.98,2.274c0.288,0.677,0.445,1.403,0.46,2.138
		c0,2.712-0.732,4.776-2.197,6.19c-1.452,1.421-3.618,2.116-6.512,2.116c-0.329,0-0.656-0.032-0.981-0.087
		c-0.354,0-0.902-0.147-1.627-0.313v-7.111c0.394,0.149,0.801,0.261,1.215,0.333c0.378,0.077,0.763,0.118,1.147,0.127
		c0.385,0.023,0.762-0.115,1.04-0.381c0.236-0.233,0.368-0.554,0.363-0.885c-0.044-0.55-0.197-1.085-0.45-1.577l-0.982-2.147
		c-0.353-0.755-0.686-1.56-0.981-2.395c-0.242-0.779-0.344-1.596-0.304-2.411c-0.154-2.238,0.595-4.447,2.079-6.128
		c1.394-1.403,3.433-2.111,6.15-2.111C88.224,81.446,89.167,81.577,90.081,81.829z"/>
	<polygon fill="#FFFFFF" points="185.095,82.074 185.095,89.047 179.896,89.047 179.896,106.074 172.383,106.074 172.383,89.047 
		167.194,89.047 167.194,82.074 	"/>
	<polygon fill="#FFFFFF" points="185.095,82.074 185.095,89.047 179.896,89.047 179.896,106.074 172.383,106.074 172.383,89.047 
		167.194,89.047 167.194,82.074 	"/>
	<path fill="#FFFFFF" d="M152.329,106.074h-7.436v-24h8.689c1.318-0.002,2.634,0.136,3.924,0.411
		c1.157,0.254,2.26,0.713,3.254,1.355c0.926,0.616,1.681,1.451,2.198,2.432c0.571,1.119,0.849,2.364,0.803,3.62
		c-0.002,0.978-0.167,1.95-0.49,2.874c-0.297,0.947-0.896,1.769-1.706,2.345c0.876,0.608,1.541,1.476,1.902,2.479
		c0.313,1.126,0.457,2.287,0.43,3.454v5.031h-7.607v-5.031c0.076-0.758-0.092-1.516-0.481-2.169c-0.44-0.44-1.058-0.656-1.677-0.586
		h-1.854v-5.375h1.854c0.561,0.059,1.123-0.114,1.55-0.481c0.329-0.41,0.489-0.929,0.452-1.453c0.047-0.531-0.135-1.06-0.502-1.451
		c-0.617-0.379-1.349-0.538-2.069-0.452h-1.294v16.998H152.329z"/>
	<path fill="#FFFFFF" d="M152.329,106.074h-7.436v-24h8.689c1.318-0.002,2.634,0.136,3.924,0.411
		c1.157,0.254,2.26,0.713,3.254,1.355c0.926,0.616,1.681,1.451,2.198,2.432c0.571,1.119,0.849,2.364,0.803,3.62
		c-0.002,0.978-0.167,1.95-0.49,2.874c-0.297,0.947-0.896,1.769-1.706,2.345c0.876,0.608,1.541,1.476,1.902,2.479
		c0.313,1.126,0.457,2.287,0.43,3.454v5.031h-7.607v-5.031c0.076-0.758-0.092-1.516-0.481-2.169c-0.44-0.44-1.058-0.656-1.677-0.586
		h-1.854v-5.375h1.854c0.561,0.059,1.123-0.114,1.55-0.481c0.329-0.41,0.489-0.929,0.452-1.453c0.047-0.531-0.135-1.06-0.502-1.451
		c-0.617-0.379-1.349-0.538-2.069-0.452h-1.294v16.998H152.329z"/>
	<path fill="#FFFFFF" d="M101.388,99.305v-6.962c0.95,0.019,1.898-0.098,2.816-0.343c0.545-0.19,0.927-0.681,0.98-1.257
		c-0.003-0.484-0.24-0.938-0.639-1.215c-0.54-0.36-1.186-0.533-1.833-0.481h-1.295v17.027h-7.502v-24h8.935
		c1.37-0.014,2.735,0.175,4.051,0.561c1.156,0.327,2.238,0.875,3.186,1.616c0.902,0.712,1.631,1.623,2.129,2.66
		c0.534,1.132,0.795,2.375,0.766,3.627c0,3.019-0.906,5.234-2.717,6.639C108.47,98.589,104.614,99.305,101.388,99.305z"/>
	<path fill="#FFFFFF" d="M101.388,99.305v-6.962c0.95,0.019,1.898-0.098,2.816-0.343c0.545-0.19,0.927-0.681,0.98-1.257
		c-0.003-0.484-0.24-0.938-0.639-1.215c-0.54-0.36-1.186-0.533-1.833-0.481h-1.295v17.027h-7.502v-24h8.935
		c1.37-0.014,2.735,0.175,4.051,0.561c1.156,0.327,2.238,0.875,3.186,1.616c0.902,0.712,1.631,1.623,2.129,2.66
		c0.534,1.132,0.795,2.375,0.766,3.627c0,3.019-0.906,5.234-2.717,6.639C108.47,98.589,104.614,99.305,101.388,99.305z"/>
	<path fill="#FFFFFF" d="M90.081,81.829v7.15c-0.37-0.121-0.746-0.216-1.128-0.284c-0.32-0.088-0.649-0.136-0.98-0.147
		c-0.385-0.011-0.757,0.13-1.04,0.393c-0.267,0.228-0.419,0.561-0.421,0.913c0.01,0.613,0.14,1.219,0.382,1.784
		c0.293,0.694,0.646,1.421,0.981,2.167c0.368,0.738,0.695,1.499,0.98,2.274c0.288,0.677,0.445,1.403,0.46,2.138
		c0,2.712-0.732,4.776-2.197,6.19c-1.452,1.421-3.618,2.116-6.512,2.116c-0.329,0-0.656-0.032-0.981-0.087
		c-0.354,0-0.902-0.147-1.627-0.313v-7.111c0.394,0.149,0.801,0.261,1.215,0.333c0.378,0.077,0.763,0.118,1.147,0.127
		c0.385,0.023,0.762-0.115,1.04-0.381c0.236-0.233,0.368-0.554,0.363-0.885c-0.044-0.55-0.197-1.085-0.45-1.577l-0.982-2.147
		c-0.353-0.755-0.686-1.56-0.981-2.395c-0.242-0.779-0.344-1.596-0.304-2.411c-0.154-2.238,0.595-4.447,2.079-6.128
		c1.394-1.403,3.433-2.111,6.15-2.111C88.224,81.446,89.167,81.577,90.081,81.829z"/>
	<path fill="#FFFFFF" d="M90.081,81.829v7.15c-0.37-0.121-0.746-0.216-1.128-0.284c-0.32-0.088-0.649-0.136-0.98-0.147
		c-0.385-0.011-0.757,0.13-1.04,0.393c-0.267,0.228-0.419,0.561-0.421,0.913c0.01,0.613,0.14,1.219,0.382,1.784
		c0.293,0.694,0.646,1.421,0.981,2.167c0.368,0.738,0.695,1.499,0.98,2.274c0.288,0.677,0.445,1.403,0.46,2.138
		c0,2.712-0.732,4.776-2.197,6.19c-1.452,1.421-3.618,2.116-6.512,2.116c-0.329,0-0.656-0.032-0.981-0.087
		c-0.354,0-0.902-0.147-1.627-0.313v-7.111c0.394,0.149,0.801,0.261,1.215,0.333c0.378,0.077,0.763,0.118,1.147,0.127
		c0.385,0.023,0.762-0.115,1.04-0.381c0.236-0.233,0.368-0.554,0.363-0.885c-0.044-0.55-0.197-1.085-0.45-1.577l-0.982-2.147
		c-0.353-0.755-0.686-1.56-0.981-2.395c-0.242-0.779-0.344-1.596-0.304-2.411c-0.154-2.238,0.595-4.447,2.079-6.128
		c1.394-1.403,3.433-2.111,6.15-2.111C88.224,81.446,89.167,81.577,90.081,81.829z"/>
	<polygon fill="#FFFFFF" points="185.095,82.074 185.095,89.047 179.896,89.047 179.896,106.074 172.383,106.074 172.383,89.047 
		167.194,89.047 167.194,82.074 	"/>
	<polygon fill="#FFFFFF" points="185.095,82.074 185.095,89.047 179.896,89.047 179.896,106.074 172.383,106.074 172.383,89.047 
		167.194,89.047 167.194,82.074 	"/>
	<path fill="#FFFFFF" d="M152.329,106.074h-7.436v-24h8.689c1.318-0.002,2.634,0.136,3.924,0.411
		c1.157,0.254,2.26,0.713,3.254,1.355c0.926,0.616,1.681,1.451,2.198,2.432c0.571,1.119,0.849,2.364,0.803,3.62
		c-0.002,0.978-0.167,1.95-0.49,2.874c-0.297,0.947-0.896,1.769-1.706,2.345c0.876,0.608,1.541,1.476,1.902,2.479
		c0.313,1.126,0.457,2.287,0.43,3.454v5.031h-7.607v-5.031c0.076-0.758-0.092-1.516-0.481-2.169c-0.44-0.44-1.058-0.656-1.677-0.586
		h-1.854v-5.375h1.854c0.561,0.059,1.123-0.114,1.55-0.481c0.329-0.41,0.489-0.929,0.452-1.453c0.047-0.531-0.135-1.06-0.502-1.451
		c-0.617-0.379-1.349-0.538-2.069-0.452h-1.294v16.998H152.329z"/>
	<path fill="#FFFFFF" d="M152.329,106.074h-7.436v-24h8.689c1.318-0.002,2.634,0.136,3.924,0.411
		c1.157,0.254,2.26,0.713,3.254,1.355c0.926,0.616,1.681,1.451,2.198,2.432c0.571,1.119,0.849,2.364,0.803,3.62
		c-0.002,0.978-0.167,1.95-0.49,2.874c-0.297,0.947-0.896,1.769-1.706,2.345c0.876,0.608,1.541,1.476,1.902,2.479
		c0.313,1.126,0.457,2.287,0.43,3.454v5.031h-7.607v-5.031c0.076-0.758-0.092-1.516-0.481-2.169c-0.44-0.44-1.058-0.656-1.677-0.586
		h-1.854v-5.375h1.854c0.561,0.059,1.123-0.114,1.55-0.481c0.329-0.41,0.489-0.929,0.452-1.453c0.047-0.531-0.135-1.06-0.502-1.451
		c-0.617-0.379-1.349-0.538-2.069-0.452h-1.294v16.998H152.329z"/>
	<path fill="#FFFFFF" d="M101.388,99.305v-6.962c0.95,0.019,1.898-0.098,2.816-0.343c0.545-0.19,0.927-0.681,0.98-1.257
		c-0.003-0.484-0.24-0.938-0.639-1.215c-0.54-0.36-1.186-0.533-1.833-0.481h-1.295v17.027h-7.502v-24h8.935
		c1.37-0.014,2.735,0.175,4.051,0.561c1.156,0.327,2.238,0.875,3.186,1.616c0.902,0.712,1.631,1.623,2.129,2.66
		c0.534,1.132,0.795,2.375,0.766,3.627c0,3.019-0.906,5.234-2.717,6.639C108.47,98.589,104.614,99.305,101.388,99.305z"/>
	<path fill="#FFFFFF" d="M101.388,99.305v-6.962c0.95,0.019,1.898-0.098,2.816-0.343c0.545-0.19,0.927-0.681,0.98-1.257
		c-0.003-0.484-0.24-0.938-0.639-1.215c-0.54-0.36-1.186-0.533-1.833-0.481h-1.295v17.027h-7.502v-24h8.935
		c1.37-0.014,2.735,0.175,4.051,0.561c1.156,0.327,2.238,0.875,3.186,1.616c0.902,0.712,1.631,1.623,2.129,2.66
		c0.534,1.132,0.795,2.375,0.766,3.627c0,3.019-0.906,5.234-2.717,6.639C108.47,98.589,104.614,99.305,101.388,99.305z"/>
	<path fill="#FFFFFF" d="M90.081,81.829v7.15c-0.37-0.121-0.746-0.216-1.128-0.284c-0.32-0.088-0.649-0.136-0.98-0.147
		c-0.385-0.011-0.757,0.13-1.04,0.393c-0.267,0.228-0.419,0.561-0.421,0.913c0.01,0.613,0.14,1.219,0.382,1.784
		c0.293,0.694,0.646,1.421,0.981,2.167c0.368,0.738,0.695,1.499,0.98,2.274c0.288,0.677,0.445,1.403,0.46,2.138
		c0,2.712-0.732,4.776-2.197,6.19c-1.452,1.421-3.618,2.116-6.512,2.116c-0.329,0-0.656-0.032-0.981-0.087
		c-0.354,0-0.902-0.147-1.627-0.313v-7.111c0.394,0.149,0.801,0.261,1.215,0.333c0.378,0.077,0.763,0.118,1.147,0.127
		c0.385,0.023,0.762-0.115,1.04-0.381c0.236-0.233,0.368-0.554,0.363-0.885c-0.044-0.55-0.197-1.085-0.45-1.577l-0.982-2.147
		c-0.353-0.755-0.686-1.56-0.981-2.395c-0.242-0.779-0.344-1.596-0.304-2.411c-0.154-2.238,0.595-4.447,2.079-6.128
		c1.394-1.403,3.433-2.111,6.15-2.111C88.224,81.446,89.167,81.577,90.081,81.829z"/>
	<path fill="#FFFFFF" d="M90.081,81.829v7.15c-0.37-0.121-0.746-0.216-1.128-0.284c-0.32-0.088-0.649-0.136-0.98-0.147
		c-0.385-0.011-0.757,0.13-1.04,0.393c-0.267,0.228-0.419,0.561-0.421,0.913c0.01,0.613,0.14,1.219,0.382,1.784
		c0.293,0.694,0.646,1.421,0.981,2.167c0.368,0.738,0.695,1.499,0.98,2.274c0.288,0.677,0.445,1.403,0.46,2.138
		c0,2.712-0.732,4.776-2.197,6.19c-1.452,1.421-3.618,2.116-6.512,2.116c-0.329,0-0.656-0.032-0.981-0.087
		c-0.354,0-0.902-0.147-1.627-0.313v-7.111c0.394,0.149,0.801,0.261,1.215,0.333c0.378,0.077,0.763,0.118,1.147,0.127
		c0.385,0.023,0.762-0.115,1.04-0.381c0.236-0.233,0.368-0.554,0.363-0.885c-0.044-0.55-0.197-1.085-0.45-1.577l-0.982-2.147
		c-0.353-0.755-0.686-1.56-0.981-2.395c-0.242-0.779-0.344-1.596-0.304-2.411c-0.154-2.238,0.595-4.447,2.079-6.128
		c1.394-1.403,3.433-2.111,6.15-2.111C88.224,81.446,89.167,81.577,90.081,81.829z"/>
	<g>
		<path fill="#008BD0" d="M36.037,92.542h9.062c-0.711-2.617-0.184-5.413,2.028-7.414c1.402-1.466,3.354-2.284,5.386-2.251
			c2.04-0.037,4.009,0.759,5.45,2.204c1.441,1.449,2.235,3.421,2.202,5.467c0.046,2.014-0.713,3.963-2.108,5.419l3.501,4.561h5.734
			c0.396,0.018,0.777,0.153,1.094,0.396c1.85,1.283,3.016,3.344,3.168,5.592v0.285c-0.216,2.28-1.362,4.374-3.168,5.782
			c-0.319,0.282-0.731,0.44-1.157,0.444H57.09c-0.256,0.01-0.513-0.041-0.745-0.158c-0.237-0.109-0.44-0.286-0.586-0.507
			l-2.075-2.853l-0.601,1.108v0.109l0.666,1.203l9.728,17.618l0.157,0.267c0.352,0.741,0.551,1.548,0.586,2.361
			c-0.004,0.393-0.079,0.776-0.222,1.144c-0.339,1.195-1.316,2.096-2.535,2.342c-0.746,0.209-1.521,0.305-2.297,0.287
			c-2.305-0.074-4.59-0.426-6.812-1.046c-0.221-0.051-0.429-0.144-0.619-0.271c-0.192-0.132-0.355-0.304-0.475-0.505l-6.684-12.15
			l-2.456,5.829c-0.134,0.284-0.349,0.522-0.618,0.683c-0.259,0.209-0.586,0.314-0.919,0.301H18.025
			c-0.365,0.014-0.72-0.11-0.999-0.349c-1.114-0.833-1.791-2.126-1.837-3.517c0.035-0.883,0.273-1.744,0.697-2.521
			c1.517-2.383,3.567-4.385,5.989-5.845c0.262-0.198,0.588-0.301,0.917-0.286h9.506l1.457-3.168v-0.158l0.555-1.221h-1.189
			c-1.538,0.133-3.065-0.362-4.229-1.378c-1.065-0.792-1.661-2.064-1.585-3.388c0.071-1.532,0.414-3.04,1.015-4.452
			c0-0.096,0-0.175,0.174-0.315l5.956-8.983C34.727,92.75,35.404,92.54,36.037,92.542L36.037,92.542z M52.63,85.939h0.002H52.63
			L52.63,85.939L52.63,85.939z M52.659,85.939h0.002l0,0H52.659L52.659,85.939z M52.669,85.939h0.001H52.669L52.669,85.939
			L52.669,85.939z M52.693,85.94h0.001H52.693L52.693,85.94L52.693,85.94z M52.712,85.94l4.373,4.044l0-0.006l-0.012-0.105v0
			l-0.008-0.056l-0.008-0.063l0-0.001l-0.017-0.101v-0.001l-0.012-0.062l0-0.003l-0.009-0.05l-0.001-0.002l-0.005-0.025
			l-0.016-0.073l-0.002-0.009l-0.001-0.004l-0.023-0.093l-0.001-0.004l-0.021-0.079l-0.006-0.023l-0.001-0.003l-0.021-0.07
			l-0.001-0.003l-0.011-0.035l-0.019-0.06l-0.012-0.037l-0.002-0.007l-0.023-0.067l-0.01-0.028l-0.002-0.006l-0.02-0.052
			l-0.022-0.058l0-0.001l-0.016-0.038l-0.006-0.016l-0.016-0.039l0-0.001l-0.026-0.061l-0.002-0.004l-0.015-0.035l-0.028-0.06
			l-0.013-0.029l-0.004-0.009l-0.032-0.065l-0.015-0.029l-0.03-0.058l-0.003-0.005l-0.02-0.038l0,0l-0.027-0.049l0-0.001
			l-0.023-0.042l-0.029-0.049l-0.001-0.002l-0.026-0.043l0-0.001l-0.028-0.045l-0.003-0.004l-0.024-0.04l-0.033-0.05l-0.001-0.001
			l-0.025-0.039l-0.035-0.051l-0.002-0.003l-0.023-0.033l-0.04-0.055l-0.021-0.029l0-0.001l-0.043-0.057l-0.022-0.028l-0.044-0.057
			l-0.023-0.028l0,0l-0.038-0.045l-0.035-0.041l-0.042-0.047l-0.022-0.025l-0.052-0.058l-0.02-0.021l-0.055-0.057l-0.01-0.01
			l-0.008-0.008l-0.057-0.057l-0.01-0.01l-0.009-0.008l-0.062-0.059l-0.007-0.006l-0.006-0.006l-0.06-0.054l-0.028-0.025l0,0
			l-0.046-0.04l-0.003-0.003l-0.034-0.028l-0.051-0.042l-0.013-0.011l-0.012-0.009l-0.066-0.052l-0.006-0.005l-0.007-0.006
			l-0.066-0.049L55.27,86.81l-0.023-0.017l-0.063-0.044l-0.009-0.007l-0.011-0.007l-0.071-0.048l-0.006-0.004l-0.009-0.006
			l-0.073-0.047l-0.008-0.005l-0.013-0.008l-0.067-0.041L54.89,86.56l-0.002-0.001l-0.07-0.041l-0.007-0.004l-0.01-0.006
			l-0.077-0.042l-0.006-0.004l-0.011-0.005l-0.079-0.041l-0.006-0.003l-0.01-0.005l-0.084-0.041l-0.003-0.001l-0.005-0.002
			l-0.092-0.042l-0.001,0l-0.002,0l-0.09-0.039l-0.007-0.003l-0.022-0.009l-0.066-0.026l0,0l-0.035-0.014l-0.002,0l-0.071-0.027
			l-0.005-0.002l-0.013-0.004l-0.087-0.03l-0.002-0.001l-0.007-0.002l-0.091-0.029l-0.005-0.002l-0.012-0.003l-0.003-0.001
			l-0.003-0.001l-0.066-0.019l-0.003-0.001l-0.003-0.001l-0.003,0l-0.003-0.001l-0.003,0l-0.003-0.001l-0.002,0l-0.001,0l-0.003,0
			l-0.003-0.001L53.804,86.1l-0.003-0.001l-0.003,0l-0.08-0.021l-0.003-0.001l-0.003,0l-0.004-0.001L53.69,86.07l-0.081-0.02
			l-0.033-0.007l0,0l-0.079-0.017l-0.004,0l-0.012-0.002l-0.007-0.001l-0.007-0.001l-0.006-0.001l-0.046-0.008l-0.006-0.001
			l-0.006-0.001l-0.007-0.001l-0.007-0.001l-0.004,0l-0.002,0l-0.006-0.001l-0.007-0.001l-0.007-0.001l-0.086-0.014h-0.001
			c-0.073-0.011-0.146-0.02-0.22-0.027h-0.001l-0.012-0.001l-0.097-0.008H52.94l-0.026-0.001l-0.084-0.005h-0.003l-0.023-0.001
			h-0.001c-0.029-0.003-0.057-0.003-0.085-0.003h-0.001h-0.001H52.712L52.712,85.94z M57.102,90.675l-0.006,0.094
			C57.099,90.738,57.101,90.707,57.102,90.675L57.102,90.675z M57.085,90.892l-4.373,4.044l0.091-0.003l0.023-0.001h0.003
			l0.084-0.005l0.026-0.001l0.003,0h0.001h0.001h0.001h0.001l0.002,0h0.002h0.002l0.001,0l0.068-0.006h0.002h0.001l0.006,0h0.001
			l0.001,0h0.001h0.001l0.012-0.001l0.001,0l0.108-0.012h0.002c0.035-0.004,0.07-0.009,0.105-0.014l0.005,0l0.001,0l0.007-0.001
			l0.08-0.013l0.007-0.001l0.007-0.001l0.006-0.001l0.002,0l0.004,0l0.007-0.001l0.007-0.001l0.006-0.001l0.006-0.001l0.046-0.009
			l0.006-0.001l0.007-0.001l0.007-0.001l0.012-0.002l0.004-0.001l0.079-0.017l0,0l0.033-0.007l0.081-0.019l0.018-0.005l0.004-0.001
			l0.003,0l0.003,0c0.03-0.008,0.06-0.016,0.089-0.024l0.003,0l0.003-0.001l0.001,0l0.002,0l0.003-0.001l0.003-0.001l0.006-0.001
			l0.003-0.001l0.07-0.02l0.003-0.001l0.003-0.001l0.012-0.004l0.005-0.001l0.091-0.029l0.007-0.002l0.002-0.001l0.087-0.03
			l0.013-0.004l0.005-0.002l0.071-0.026l0.002,0l0.035-0.014v0l0.066-0.026l0.022-0.008l0.007-0.003l0.001-0.001l0.002,0l0.001,0
			l0.073-0.031l0.001,0l0.003-0.001l0.001,0l0.001-0.001h0.001l0.001-0.001l0.001,0l0.001-0.001l0.002,0l0.001-0.001l0.092-0.042
			l0.005-0.002l0.003-0.001l0.084-0.041l0.01-0.004l0.006-0.003l0.079-0.041l0.011-0.005l0.006-0.004l0.077-0.042l0.01-0.006
			l0.007-0.004l0.07-0.04l0.002-0.001l0.026-0.016l0.067-0.041l0.013-0.008l0.008-0.005l0.073-0.048l0.009-0.005l0.006-0.004
			l0.071-0.048l0.011-0.007l0.009-0.006l0.063-0.045l0.023-0.018l0.003-0.002l0.066-0.05l0.007-0.005l0.006-0.005l0.066-0.052
			l0.012-0.009l0.013-0.011l0.051-0.042l0.034-0.028l0.003-0.003l0.046-0.04v0l0.028-0.025l0.06-0.054l0.006-0.005l0.007-0.006
			l0.062-0.059l0.009-0.008l0.01-0.01l0.057-0.057l0.008-0.008l0.01-0.011l0.055-0.057l0.02-0.021l0.052-0.058l0.022-0.025
			l0.042-0.047l0.035-0.041l0.038-0.045l0,0l0.023-0.029l0.044-0.057l0.022-0.028l0.043-0.057l0-0.001l0.021-0.029l0.04-0.055
			l0.023-0.033l0.002-0.003l0.035-0.051l0.025-0.038l0.001-0.001l0.033-0.05l0.024-0.04l0.003-0.004l0.028-0.045l0-0.001
			l0.026-0.043l0.001-0.002l0.029-0.049l0.023-0.042l0-0.001l0.027-0.049l0,0l0.02-0.039l0.003-0.005l0.03-0.058l0.015-0.029
			l0.032-0.065l0.004-0.01l0.013-0.029l0.028-0.06l0.015-0.035l0.002-0.004l0.026-0.061l0,0l0.016-0.039l0.006-0.016l0.016-0.038
			l0-0.001l0.022-0.058l0.02-0.053l0.002-0.006l0.01-0.028l0.023-0.067l0.002-0.008l0.012-0.037l0.019-0.06l0.011-0.035l0.001-0.003
			l0.021-0.071l0.001-0.003l0.006-0.023l0.021-0.079l0.001-0.004l0.023-0.093l0.001-0.004v-0.001l0-0.001v-0.001l0-0.001l0-0.001
			l0-0.001V91.44l0,0l0-0.001v-0.001v0v-0.001l0-0.001l0-0.001v-0.001l0-0.001V91.43l0-0.001l0-0.002l0-0.001l0-0.001v-0.001
			l0.001-0.004v-0.001l0-0.001l0.001-0.005V91.41l0-0.001l0.001-0.004v-0.001l0-0.001l0-0.004l0-0.001l0-0.001v-0.001l0-0.001
			l0-0.001v-0.001l0-0.001v-0.001l0-0.001v-0.001l0-0.001v-0.001l0,0v0V91.38l0-0.001v-0.001l0-0.001l0,0v0v-0.001l0-0.001l0-0.001
			v0V91.37v-0.001l0-0.001l0.005-0.026l0.001-0.002l0.009-0.05l0-0.004l0.012-0.061v-0.001l0.017-0.101l0-0.001l0.008-0.063
			l0.008-0.056v0l0.012-0.105L57.085,90.892L57.085,90.892z M52.709,94.936h-0.001H52.709L52.709,94.936L52.709,94.936z
			 M52.688,94.937h-0.001H52.688L52.688,94.937L52.688,94.937z M52.661,94.937l-0.002,0L52.661,94.937L52.661,94.937L52.661,94.937z
			 M52.632,94.938H52.63h0H52.632L52.632,94.938z M36.86,95.871l-5.401,8.154l-0.174,0.463c-0.183,0.721-0.292,1.458-0.333,2.199
			c-0.02,0.414,0.073,0.825,0.269,1.188c0.158,0.338,0.888,0.491,0.997,0.491c0.523,0.104,1.054,0.144,1.584,0.114
			c0.751-0.041,1.5-0.143,2.235-0.305l3.374-7.414c0.206-0.516,0.668-0.891,1.221-0.982c0.577-0.074,1.159,0.11,1.583,0.51
			c0.427,0.505,0.538,1.206,0.287,1.822l-0.556,1.203l-2.614,5.652l-4.435,9.682c-0.344,0.557-0.936,0.901-1.584,0.938h-9.95
			c-1.136,0.802-2.195,1.708-3.167,2.705c-0.602,0.579-1.085,1.269-1.427,2.032c-0.127,0.318-0.127,0.674,0,0.996
			c-0.005,0.045-0.005,0.096,0,0.139h20.736l3.311-7.919c0.273-0.642,0.888-1.071,1.586-1.106c0.618,0.029,1.169,0.396,1.441,0.949
			l4.451,8.076l3.533,6.34c1.65,0.422,3.337,0.682,5.037,0.773c0.64,0.059,1.284-0.029,1.885-0.248c0,0,0.081,0,0-0.243
			c-0.062-0.612-0.28-1.202-0.632-1.708c-0.619-1.045-10.107-18.252-10.107-18.252s-0.967-1.327-0.459-2.266
			c0.253-0.301,0.586-0.889,0.586-0.889l1.743-3.243c0.274-0.628,0.899-1.027,1.583-1.016c0.654,0.033,1.25,0.388,1.585,0.953
			l2.93,4.055h8.649c0,0,0.364-0.396,0.777-0.935c0.333-0.484,0.586-1.02,0.744-1.584c0.16-0.495,0.109-1.034-0.143-1.493
			c-0.328-0.696-0.785-1.323-1.345-1.852h-6.052c-0.482-0.039-0.925-0.282-1.221-0.663l-1.68-2.203L53.7,95.871H36.86z"/>
	</g>
	<path d="M42.833,117.54l0.095-0.22L42.833,117.54z"/>
	<polygon points="23.173,119.725 23.348,119.587 23.729,119.587 23.729,125.459 22.904,125.459 	"/>
	<path fill="#E2001A" d="M50.136,108.967H39.332l-4.435,9.682c-0.344,0.557-0.936,0.901-1.584,0.938h-9.95
		c-1.136,0.802-2.195,1.708-3.167,2.705c-0.602,0.579-1.085,1.269-1.427,2.032c-0.127,0.318-0.127,0.674,0,0.996
		c-0.005,0.045-0.005,0.096,0,0.139h20.736l3.311-7.919c0.273-0.642,0.888-1.071,1.586-1.106c0.618,0.029,1.169,0.396,1.441,0.949
		l4.451,8.076l3.533,6.34c1.65,0.422,3.337,0.682,5.037,0.773c0.64,0.059,1.284-0.029,1.885-0.248c0,0,0.081,0,0-0.243
		c-0.062-0.612-0.28-1.202-0.632-1.708c-0.619-1.045-10.107-18.252-10.107-18.252s-0.967-1.327-0.459-2.266
		C49.803,109.555,50.136,108.967,50.136,108.967z"/>
	<path fill="#FFFFFF" d="M36.86,95.871H53.7l4.007,5.116l1.68,2.203c0.296,0.381,0.739,0.624,1.221,0.663h6.052
		c0.561,0.529,1.018,1.156,1.345,1.852c0.251,0.458,0.302,0.998,0.143,1.493c-0.158,0.564-0.411,1.1-0.744,1.584
		c-0.413,0.539-0.777,0.935-0.777,0.935h-8.649l-2.93-4.055c-0.335-0.565-0.931-0.92-1.585-0.953
		c-0.685-0.011-1.309,0.388-1.583,1.016l-1.743,3.243H39.332l2.614-5.652l0.556-1.203c0.251-0.616,0.14-1.316-0.287-1.822
		c-0.424-0.4-1.006-0.583-1.583-0.51c-0.552,0.092-1.015,0.466-1.221,0.982l-3.374,7.414c-0.734,0.162-1.483,0.264-2.235,0.305
		c-0.53,0.029-1.061-0.011-1.584-0.114c-0.109,0-0.839-0.153-0.997-0.491c-0.196-0.362-0.289-0.773-0.269-1.188
		c0.041-0.741,0.15-1.478,0.333-2.199l0.174-0.463L36.86,95.871z"/>
	<g>
		<path fill-rule="evenodd" clip-rule="evenodd" fill="#FFFFFF" d="M52.609,94.938c-2.484,0-4.5-2.015-4.5-4.5
			c0-2.484,2.015-4.499,4.5-4.499c0.035,0,0.069,0,0.104,0.001v8.996C52.678,94.937,52.644,94.938,52.609,94.938z"/>
		<path fill-rule="evenodd" clip-rule="evenodd" fill="#E2001A" d="M52.712,85.94c2.437,0.055,4.396,2.048,4.396,4.498
			s-1.959,4.443-4.396,4.498V85.94z"/>
	</g>
	<path fill="#E2001A" d="M128.458,99.582L128.458,99.582c0.656,0,1.306-0.143,1.9-0.423c0.602-0.265,1.145-0.644,1.6-1.117
		c0.451-0.504,0.801-1.092,1.029-1.728c0.279-0.699,0.415-1.445,0.402-2.197c0.008-0.749-0.121-1.494-0.383-2.197
		c-0.223-0.643-0.561-1.237-1-1.755c-0.447-0.481-0.983-0.876-1.58-1.157c-0.611-0.287-1.283-0.431-1.961-0.422
		c-0.676-0.007-1.346,0.136-1.961,0.422c-0.592,0.277-1.123,0.671-1.559,1.157c-0.453,0.518-0.809,1.112-1.051,1.755
		c-0.51,1.421-0.51,2.974,0,4.394c0.24,0.641,0.604,1.229,1.069,1.728c0.447,0.473,0.984,0.854,1.58,1.117
		c0.589,0.277,1.231,0.42,1.883,0.423H128.458z"/>
	<path fill="#E2001A" d="M128.458,99.582L128.458,99.582c0.656,0,1.306-0.143,1.9-0.423c0.602-0.265,1.145-0.644,1.6-1.117
		c0.451-0.504,0.801-1.092,1.029-1.728c0.279-0.699,0.415-1.445,0.402-2.197c0.008-0.749-0.121-1.494-0.383-2.197
		c-0.223-0.643-0.561-1.237-1-1.755c-0.447-0.481-0.983-0.876-1.58-1.157c-0.611-0.287-1.283-0.431-1.961-0.422
		c-0.676-0.007-1.346,0.136-1.961,0.422c-0.592,0.277-1.123,0.671-1.559,1.157c-0.453,0.518-0.809,1.112-1.051,1.755
		c-0.51,1.421-0.51,2.974,0,4.394c0.24,0.641,0.604,1.229,1.069,1.728c0.447,0.473,0.984,0.854,1.58,1.117
		c0.589,0.277,1.231,0.42,1.883,0.423H128.458z"/>
	<path fill="#E2001A" d="M128.458,99.582L128.458,99.582c0.656,0,1.306-0.143,1.9-0.423c0.602-0.265,1.145-0.644,1.6-1.117
		c0.451-0.504,0.801-1.092,1.029-1.728c0.279-0.699,0.415-1.445,0.402-2.197c0.008-0.749-0.121-1.494-0.383-2.197
		c-0.223-0.643-0.561-1.237-1-1.755c-0.447-0.481-0.983-0.876-1.58-1.157c-0.611-0.287-1.283-0.431-1.961-0.422
		c-0.676-0.007-1.346,0.136-1.961,0.422c-0.592,0.277-1.123,0.671-1.559,1.157c-0.453,0.518-0.809,1.112-1.051,1.755
		c-0.51,1.421-0.51,2.974,0,4.394c0.24,0.641,0.604,1.229,1.069,1.728c0.447,0.473,0.984,0.854,1.58,1.117
		c0.589,0.277,1.231,0.42,1.883,0.423H128.458z"/>
	<path fill="#E2001A" d="M128.458,99.582L128.458,99.582c0.656,0,1.306-0.143,1.9-0.423c0.602-0.265,1.145-0.644,1.6-1.117
		c0.451-0.504,0.801-1.092,1.029-1.728c0.279-0.699,0.415-1.445,0.402-2.197c0.008-0.749-0.121-1.494-0.383-2.197
		c-0.223-0.643-0.561-1.237-1-1.755c-0.447-0.481-0.983-0.876-1.58-1.157c-0.611-0.287-1.283-0.431-1.961-0.422
		c-0.676-0.007-1.346,0.136-1.961,0.422c-0.592,0.277-1.123,0.671-1.559,1.157c-0.453,0.518-0.809,1.112-1.051,1.755
		c-0.51,1.421-0.51,2.974,0,4.394c0.24,0.641,0.604,1.229,1.069,1.728c0.447,0.473,0.984,0.854,1.58,1.117
		c0.589,0.277,1.231,0.42,1.883,0.423H128.458z"/>
	<path fill="#E2001A" d="M128.458,99.582L128.458,99.582c0.656,0,1.306-0.143,1.9-0.423c0.602-0.265,1.145-0.644,1.6-1.117
		c0.451-0.504,0.801-1.092,1.029-1.728c0.279-0.699,0.415-1.445,0.402-2.197c0.008-0.749-0.121-1.494-0.383-2.197
		c-0.223-0.643-0.561-1.237-1-1.755c-0.447-0.481-0.983-0.876-1.58-1.157c-0.611-0.287-1.283-0.431-1.961-0.422
		c-0.676-0.007-1.346,0.136-1.961,0.422c-0.592,0.277-1.123,0.671-1.559,1.157c-0.453,0.518-0.809,1.112-1.051,1.755
		c-0.51,1.421-0.51,2.974,0,4.394c0.24,0.641,0.604,1.229,1.069,1.728c0.447,0.473,0.984,0.854,1.58,1.117
		c0.589,0.277,1.231,0.42,1.883,0.423H128.458z"/>
	<path fill="#E2001A" d="M128.458,99.582L128.458,99.582c0.656,0,1.306-0.143,1.9-0.423c0.602-0.265,1.145-0.644,1.6-1.117
		c0.451-0.504,0.801-1.092,1.029-1.728c0.279-0.699,0.415-1.445,0.402-2.197c0.008-0.749-0.121-1.494-0.383-2.197
		c-0.223-0.643-0.561-1.237-1-1.755c-0.447-0.481-0.983-0.876-1.58-1.157c-0.611-0.287-1.283-0.431-1.961-0.422
		c-0.676-0.007-1.346,0.136-1.961,0.422c-0.592,0.277-1.123,0.671-1.559,1.157c-0.453,0.518-0.809,1.112-1.051,1.755
		c-0.51,1.421-0.51,2.974,0,4.394c0.24,0.641,0.604,1.229,1.069,1.728c0.447,0.473,0.984,0.854,1.58,1.117
		c0.589,0.277,1.231,0.42,1.883,0.423H128.458z"/>
	<path fill="#E2001A" d="M128.458,99.582L128.458,99.582c0.656,0,1.306-0.143,1.9-0.423c0.602-0.265,1.145-0.644,1.6-1.117
		c0.451-0.504,0.801-1.092,1.029-1.728c0.279-0.699,0.415-1.445,0.402-2.197c0.008-0.749-0.121-1.494-0.383-2.197
		c-0.223-0.643-0.561-1.237-1-1.755c-0.447-0.481-0.983-0.876-1.58-1.157c-0.611-0.287-1.283-0.431-1.961-0.422
		c-0.676-0.007-1.346,0.136-1.961,0.422c-0.592,0.277-1.123,0.671-1.559,1.157c-0.453,0.518-0.809,1.112-1.051,1.755
		c-0.51,1.421-0.51,2.974,0,4.394c0.24,0.641,0.604,1.229,1.069,1.728c0.447,0.473,0.984,0.854,1.58,1.117
		c0.589,0.277,1.231,0.42,1.883,0.423H128.458z"/>
</g>
</svg>
