<?xml version="1.0" encoding="utf-8"?>
<!DOCTYPE svg PUBLIC "-//W3C//DTD SVG 1.1//EN" "http://www.w3.org/Graphics/SVG/1.1/DTD/svg11.dtd">
<svg version="1.1" id="Layer_1" xmlns="http://www.w3.org/2000/svg" xmlns:xlink="http://www.w3.org/1999/xlink" x="0px" y="0px" width="216px" height="216px" viewBox="0 0 216 216" enable-background="new 0 0 216 216" xml:space="preserve">
<g>
	<path fill="#663333" d="M182.812,197.422H172.51v-5.189h8.476c1.185,0,2.147-0.992,2.147-2.211s-0.963-2.209-2.147-2.209h-8.476
		v-5.188h10.302c1.185,0,2.147-0.992,2.147-2.211c0-1.217-0.963-2.207-2.147-2.207h-12.438c-1.186,0-2.148,0.99-2.148,2.207v19.188
		c0,1.219,0.963,2.209,2.148,2.209h12.438c1.185,0,2.147-0.99,2.147-2.209C184.959,198.412,183.996,197.422,182.812,197.422z"/>
	<path fill="#663333" d="M49.358,179.439c0-0.012-0.014-0.012-0.014-0.027c-0.015-0.043-0.042-0.072-0.07-0.113
		c-0.013-0.031-0.028-0.059-0.041-0.074c-0.029-0.027-0.043-0.07-0.07-0.102c-0.015-0.027-0.042-0.055-0.057-0.07
		c-0.027-0.027-0.055-0.057-0.069-0.086c-0.028-0.029-0.042-0.057-0.07-0.07c-0.029-0.031-0.057-0.045-0.07-0.074
		c-0.027-0.029-0.056-0.041-0.084-0.07c-0.027-0.016-0.055-0.045-0.083-0.059c-0.029-0.027-0.056-0.041-0.099-0.07
		c-0.027-0.016-0.055-0.027-0.083-0.043c-0.028-0.029-0.07-0.043-0.112-0.057c-0.014,0-0.029-0.014-0.029-0.014
		c-0.014-0.016-0.041-0.016-0.054-0.031c-0.029-0.014-0.071-0.027-0.099-0.041c-0.028-0.016-0.07-0.029-0.097-0.043
		c-0.029-0.016-0.057-0.029-0.099-0.029c-0.042-0.014-0.07-0.027-0.111-0.027c-0.029-0.018-0.057-0.018-0.085-0.018
		c-0.041-0.014-0.083-0.014-0.125-0.014c-0.028,0-0.056-0.014-0.083-0.014c-0.042,0-0.07,0-0.111-0.014c-0.029,0-0.071,0-0.098,0
		s-0.071,0-0.098,0c-0.042,0-0.07,0-0.111,0.014c-0.028,0-0.07,0-0.098,0.014c-0.042,0-0.07,0.014-0.111,0.014
		c-0.029,0-0.058,0.018-0.098,0.018c-0.042,0.014-0.07,0.014-0.112,0.027c-0.028,0.014-0.07,0.014-0.097,0.029
		c-0.029,0.014-0.07,0.027-0.097,0.043c-0.043,0.014-0.071,0.027-0.112,0.041c-0.015,0.016-0.044,0.016-0.057,0.031
		c-0.014,0-0.027,0.014-0.027,0.014c-0.042,0.014-0.071,0.043-0.111,0.057c-0.028,0.016-0.057,0.027-0.084,0.043
		c-0.028,0.029-0.071,0.043-0.098,0.07c-0.028,0.014-0.056,0.043-0.085,0.059c-0.027,0.029-0.054,0.041-0.083,0.07
		s-0.056,0.043-0.069,0.074c-0.028,0.029-0.043,0.041-0.07,0.07c-0.028,0.029-0.056,0.059-0.07,0.086
		c-0.015,0.029-0.042,0.043-0.056,0.07c-0.028,0.031-0.042,0.074-0.07,0.102c-0.014,0.027-0.028,0.059-0.042,0.074
		c-0.029,0.041-0.043,0.07-0.07,0.113c0,0.016-0.014,0.016-0.014,0.027l-9.482,19.186c-0.529,1.092-0.112,2.41,0.934,2.969
		c0.306,0.158,0.642,0.244,0.977,0.244c0.78,0,1.534-0.445,1.91-1.205l1.506-3.039h12.131l1.506,3.039
		c0.376,0.76,1.13,1.205,1.909,1.205c0.321,0,0.657-0.072,0.977-0.244c1.059-0.545,1.478-1.877,0.934-2.969L49.358,179.439z
		 M43.558,193.178l3.89-7.859l3.89,7.859H43.558z"/>
	<path fill="#663333" d="M125.798,179.439c0-0.012-0.016-0.012-0.016-0.012c-0.029-0.045-0.041-0.088-0.07-0.129
		c-0.014-0.031-0.029-0.059-0.041-0.074c-0.026-0.027-0.042-0.07-0.067-0.102c-0.016-0.027-0.042-0.055-0.057-0.07
		c-0.029-0.027-0.056-0.057-0.071-0.086c-0.029-0.029-0.041-0.057-0.07-0.07c-0.026-0.031-0.056-0.045-0.067-0.074
		c-0.029-0.029-0.057-0.041-0.086-0.07c-0.026-0.016-0.056-0.045-0.083-0.059c-0.028-0.027-0.055-0.041-0.097-0.07
		c-0.029-0.016-0.055-0.027-0.085-0.043c-0.029-0.029-0.068-0.043-0.111-0.057c-0.016,0-0.027-0.014-0.027-0.014
		c-0.015-0.016-0.041-0.016-0.056-0.031c-0.029-0.014-0.07-0.027-0.098-0.041c-0.026-0.016-0.07-0.029-0.097-0.043
		c-0.027-0.016-0.057-0.029-0.098-0.029c-0.042-0.014-0.071-0.027-0.112-0.027c-0.026-0.018-0.056-0.018-0.083-0.018
		c-0.041-0.014-0.084-0.014-0.126-0.014c-0.029,0-0.056-0.014-0.085-0.014c-0.041,0-0.068,0-0.109-0.014c-0.029,0-0.07,0-0.1,0
		c-0.026,0-0.068,0-0.095,0c-0.044,0-0.073,0-0.112,0.014c-0.029,0-0.07,0-0.099,0.014c-0.039,0-0.069,0.014-0.11,0.014
		c-0.029,0-0.059,0.018-0.1,0.018c-0.042,0.014-0.067,0.014-0.11,0.027c-0.028,0.014-0.069,0.014-0.097,0.029
		c-0.029,0.014-0.072,0.027-0.1,0.043c-0.042,0.014-0.067,0.027-0.112,0.041c-0.012,0.016-0.041,0.016-0.056,0.031
		c-0.012,0-0.027,0.014-0.027,0.014c-0.043,0.014-0.07,0.043-0.111,0.057c-0.026,0.016-0.056,0.027-0.083,0.043
		c-0.028,0.029-0.069,0.043-0.099,0.07c-0.027,0.014-0.055,0.043-0.083,0.059c-0.027,0.029-0.054,0.041-0.082,0.07
		c-0.03,0.029-0.057,0.043-0.071,0.074c-0.027,0.029-0.044,0.041-0.07,0.07c-0.027,0.029-0.054,0.059-0.068,0.086
		c-0.015,0.029-0.042,0.043-0.056,0.07c-0.029,0.031-0.045,0.074-0.071,0.102c-0.015,0.027-0.026,0.059-0.041,0.074
		c-0.029,0.041-0.041,0.07-0.07,0.113c0,0.016-0.012,0.016-0.012,0.027l-9.484,19.186c-0.53,1.092-0.109,2.41,0.935,2.969
		c0.309,0.158,0.643,0.244,0.978,0.244c0.778,0,1.533-0.445,1.909-1.205l1.508-3.039h12.131l1.505,3.039
		c0.377,0.76,1.128,1.205,1.909,1.205c0.32,0,0.656-0.072,0.975-0.244c1.062-0.545,1.479-1.877,0.937-2.969L125.798,179.439z
		 M120.011,193.178l3.89-7.859l3.89,7.859H120.011z"/>
	<path fill="#663333" d="M31.692,195.801c-0.809-0.889-2.174-0.934-3.025-0.1c-1.408,1.348-3.234,2.092-5.159,2.092
		c-4.169,0-7.543-3.484-7.543-7.756c0-4.273,3.388-7.758,7.543-7.758c1.966,0,3.82,0.775,5.229,2.164
		c0.418,0.418,0.948,0.617,1.493,0.617c0.556,0,1.129-0.23,1.547-0.674c0.822-0.873,0.795-2.279-0.056-3.125
		c-2.216-2.193-5.131-3.398-8.213-3.398c-6.525,0-11.838,5.461-11.838,12.174c0,6.709,5.313,12.172,11.838,12.172
		c3.026,0,5.898-1.174,8.101-3.297C32.46,198.08,32.501,196.676,31.692,195.801z"/>
	<path fill="#663333" d="M162.495,180.285c0-0.027,0-0.07-0.012-0.098c0-0.029-0.015-0.074-0.015-0.102
		c0-0.043-0.015-0.072-0.015-0.115c0-0.027-0.013-0.057-0.026-0.086c-0.013-0.043-0.013-0.086-0.027-0.115
		c-0.014-0.029-0.014-0.057-0.029-0.086c-0.012-0.043-0.027-0.07-0.041-0.115c-0.013-0.027-0.027-0.057-0.044-0.1
		c-0.012-0.029-0.027-0.057-0.039-0.1c-0.014-0.029-0.043-0.07-0.059-0.102c-0.014-0.027-0.026-0.057-0.054-0.07
		c-0.029-0.027-0.043-0.074-0.07-0.102c-0.014-0.027-0.041-0.043-0.056-0.07c-0.029-0.029-0.057-0.059-0.07-0.088
		c-0.027-0.027-0.041-0.057-0.068-0.072c-0.029-0.027-0.056-0.043-0.071-0.072c-0.029-0.027-0.055-0.057-0.084-0.068
		c-0.015-0.018-0.015-0.018-0.027-0.031c-0.015-0.012-0.028-0.012-0.042-0.027c-0.025-0.029-0.069-0.043-0.097-0.07
		c-0.026-0.016-0.057-0.029-0.085-0.045c-0.026-0.014-0.068-0.041-0.098-0.057c-0.026-0.016-0.053-0.029-0.082-0.043
		s-0.071-0.029-0.098-0.043c-0.029-0.014-0.068-0.029-0.098-0.043s-0.07-0.027-0.1-0.027c-0.04-0.018-0.067-0.018-0.111-0.031
		c-0.027-0.014-0.068-0.014-0.098-0.014c-0.041-0.014-0.082-0.014-0.112-0.014c-0.025,0-0.055-0.014-0.097-0.014
		c-0.041,0-0.082,0-0.124,0c-0.015,0-0.041,0-0.056,0c-0.013,0-0.03,0-0.042,0c-0.041,0-0.082,0-0.126,0
		c-0.027,0-0.07,0-0.098,0.014c-0.026,0-0.069,0.014-0.097,0.014c-0.042,0-0.071,0.014-0.112,0.014
		c-0.029,0-0.056,0.014-0.097,0.031c-0.041,0.014-0.07,0.014-0.112,0.027c-0.029,0.014-0.057,0.029-0.086,0.029
		c-0.025,0.014-0.065,0.027-0.095,0.043c-0.029,0.014-0.07,0.027-0.1,0.041c-0.026,0.016-0.054,0.031-0.083,0.045
		s-0.067,0.043-0.097,0.057c-0.029,0.016-0.057,0.027-0.07,0.043c-0.027,0.029-0.07,0.043-0.097,0.07
		c-0.027,0.014-0.043,0.043-0.071,0.059c-0.026,0.029-0.056,0.059-0.082,0.07c-0.029,0.029-0.057,0.043-0.071,0.074
		c-0.029,0.029-0.041,0.055-0.068,0.07c-0.029,0.029-0.056,0.059-0.07,0.086c-0.015,0.016-0.015,0.016-0.026,0.029l-7.631,10.295
		l-7.347-10.268c-0.012-0.014-0.027-0.027-0.027-0.041c-0.027-0.029-0.041-0.059-0.07-0.102c-0.026-0.029-0.042-0.057-0.071-0.07
		c-0.025-0.031-0.038-0.045-0.067-0.074c-0.027-0.029-0.057-0.057-0.082-0.07c-0.029-0.016-0.045-0.045-0.071-0.059
		c-0.029-0.027-0.057-0.041-0.096-0.07c-0.028-0.016-0.058-0.027-0.085-0.057c-0.029-0.016-0.07-0.043-0.097-0.057
		c-0.029-0.016-0.057-0.031-0.086-0.045c-0.025-0.014-0.055-0.027-0.097-0.043c-0.027-0.014-0.07-0.027-0.097-0.043
		c-0.029-0.014-0.057-0.027-0.086-0.027c-0.041-0.014-0.067-0.031-0.111-0.031c-0.026-0.014-0.056-0.014-0.083-0.027
		c-0.041-0.014-0.067-0.014-0.112-0.027c-0.026,0-0.069-0.016-0.097-0.016s-0.068-0.016-0.098-0.016c-0.041,0-0.083,0-0.112,0
		c-0.014,0-0.041,0-0.056,0c-0.014,0-0.025,0-0.041,0c-0.041,0-0.082,0-0.126,0c-0.027,0-0.057,0-0.083,0.016
		c-0.041,0-0.086,0.016-0.111,0.016c-0.027,0-0.071,0.014-0.098,0.014c-0.042,0.014-0.071,0.014-0.112,0.027
		c-0.026,0.014-0.071,0.014-0.097,0.031c-0.027,0.014-0.071,0.027-0.097,0.027c-0.043,0.014-0.069,0.029-0.099,0.043
		c-0.026,0.014-0.055,0.029-0.082,0.043c-0.044,0.014-0.071,0.043-0.114,0.059c-0.027,0.014-0.054,0.027-0.068,0.041
		c-0.042,0.029-0.071,0.045-0.097,0.072c-0.016,0.014-0.029,0.014-0.029,0.029c-0.016,0.014-0.027,0.029-0.042,0.029
		c-0.029,0.025-0.057,0.043-0.098,0.07c-0.029,0.029-0.056,0.041-0.07,0.07c-0.026,0.029-0.042,0.043-0.07,0.074
		c-0.026,0.029-0.056,0.055-0.068,0.086c-0.014,0.027-0.041,0.043-0.057,0.07c-0.025,0.029-0.041,0.057-0.067,0.102
		c-0.015,0.027-0.029,0.057-0.059,0.086c-0.012,0.027-0.041,0.072-0.053,0.1c-0.015,0.029-0.029,0.057-0.044,0.088
		c-0.012,0.027-0.027,0.055-0.041,0.1c-0.014,0.029-0.027,0.07-0.042,0.1c-0.015,0.027-0.029,0.057-0.029,0.086
		c-0.012,0.041-0.026,0.07-0.026,0.115c-0.015,0.027-0.015,0.057-0.029,0.086c-0.013,0.041-0.013,0.07-0.026,0.113
		c0,0.029-0.016,0.072-0.016,0.102s-0.014,0.07-0.014,0.1c0,0.043,0,0.088,0,0.115c0,0.014,0,0.043,0,0.057v19.186
		c0,1.221,0.963,2.209,2.147,2.209c1.188,0,2.147-0.988,2.147-2.209v-12.477l5.147,7.199c0,0,0,0.014,0.012,0.014l0.014,0.016
		c0.03,0.043,0.071,0.088,0.099,0.129c0.014,0.018,0.029,0.029,0.029,0.043c0.082,0.102,0.194,0.201,0.291,0.287
		c0.041,0.043,0.097,0.07,0.142,0.102c0.041,0.027,0.082,0.057,0.136,0.086c0.015,0,0.015,0.014,0.029,0.014
		c0.041,0.027,0.085,0.043,0.142,0.072c0.012,0,0.012,0.014,0.023,0.014c0.044,0.014,0.085,0.029,0.114,0.043
		c0.016,0.016,0.042,0.016,0.056,0.016c0.029,0.014,0.057,0.014,0.084,0.027c0.014,0,0.041,0.014,0.056,0.014
		c0.041,0.016,0.084,0.016,0.141,0.029c0.013,0,0.042,0,0.054,0.016c0.029,0,0.07,0.014,0.1,0.014c0.015,0,0.042,0,0.056,0
		c0.039,0,0.098,0,0.136,0h0.016h0.014c0.042,0,0.083,0,0.142,0c0.012,0,0.041,0,0.054,0c0.029,0,0.056,0,0.1-0.014
		c0.012,0,0.041,0,0.056-0.016c0.041-0.014,0.082-0.014,0.124-0.029c0.015,0,0.044-0.014,0.057-0.014
		c0.025-0.014,0.055-0.014,0.085-0.027c0.015,0,0.041-0.016,0.053-0.016c0.045-0.014,0.07-0.029,0.112-0.043
		c0.015,0,0.015-0.014,0.029-0.014c0.041-0.016,0.098-0.045,0.139-0.072c0,0,0.015-0.014,0.026-0.014
		c0.041-0.029,0.086-0.045,0.127-0.072h0.013c0.113-0.072,0.211-0.143,0.309-0.242c0.041-0.045,0.082-0.088,0.138-0.146
		c0.016-0.014,0.029-0.027,0.029-0.039c0.027-0.045,0.071-0.09,0.098-0.131l0.015-0.016c0,0,0-0.016,0.014-0.016l5.479-7.41v12.66
		c0,1.219,0.963,2.207,2.147,2.207c1.188,0,2.147-0.988,2.147-2.207v-19.129c0-0.014,0-0.029,0-0.043
		C162.495,180.357,162.495,180.316,162.495,180.285z"/>
	<path fill="#663333" d="M203.394,197.422h-8.896V180.43c0-1.219-0.962-2.207-2.147-2.207s-2.147,0.988-2.147,2.207v19.186
		c0,1.219,0.962,2.209,2.147,2.209h11.043c1.185,0,2.147-0.99,2.147-2.209C205.541,198.412,204.578,197.422,203.394,197.422z"/>
	<path fill="#663333" d="M82.098,186.051c0-4.314-3.416-7.816-7.599-7.816h-8.98c-1.185,0-2.147,0.99-2.147,2.209v19.186
		c0,1.219,0.962,2.209,2.147,2.209s2.148-0.99,2.148-2.209v-5.764h5.228l5.354,7.111c0.42,0.559,1.06,0.861,1.703,0.861
		c0.459,0,0.919-0.145,1.31-0.461c0.933-0.744,1.114-2.135,0.391-3.096l-3.891-5.176C80.313,191.844,82.098,189.162,82.098,186.051z
		 M74.485,189.449h-0.529h-6.304v-6.813h6.833c1.826,0,3.304,1.537,3.304,3.398C77.803,187.93,76.311,189.449,74.485,189.449z"/>
	<path fill="#663333" d="M107.491,186.051c0-4.314-3.418-7.816-7.6-7.816h-8.979c-1.186,0-2.147,0.99-2.147,2.209v19.186
		c0,1.219,0.961,2.209,2.147,2.209c1.186,0,2.146-0.99,2.146-2.209v-5.764H98.3l5.355,7.111c0.417,0.559,1.06,0.861,1.701,0.861
		c0.46,0,0.919-0.145,1.31-0.461c0.934-0.744,1.115-2.135,0.391-3.096l-3.891-5.176
		C105.719,191.844,107.491,189.162,107.491,186.051z M99.891,189.449h-0.53h-6.304v-6.813h6.833c1.827,0,3.304,1.537,3.304,3.398
		C103.208,187.93,101.718,189.449,99.891,189.449z"/>
</g>
<g>
	<path fill="#663333" d="M55.358,166.898c-0.599-0.328-1.061-0.775-1.395-1.361c-0.334-0.572-0.502-1.234-0.502-1.963
		c0-0.732,0.167-1.393,0.502-1.965c0.334-0.574,0.795-1.033,1.395-1.35c0.584-0.33,1.269-0.486,2.022-0.486
		c0.71,0,1.338,0.143,1.882,0.443c0.543,0.301,0.948,0.73,1.213,1.275l-1.297,0.775c-0.209-0.342-0.475-0.6-0.781-0.775
		c-0.307-0.17-0.654-0.258-1.017-0.258c-0.628,0-1.158,0.217-1.576,0.631c-0.418,0.416-0.628,0.992-0.628,1.693
		c0,0.703,0.209,1.277,0.614,1.691c0.405,0.416,0.934,0.631,1.575,0.631c0.377,0,0.711-0.086,1.018-0.258
		c0.307-0.17,0.573-0.43,0.782-0.773l1.297,0.773c-0.278,0.559-0.683,0.988-1.228,1.291c-0.544,0.301-1.158,0.457-1.869,0.457
		C56.626,167.387,55.957,167.215,55.358,166.898z"/>
	<path fill="#663333" d="M67.613,161.322h-2.538v5.963h-1.688v-5.963h-2.551v-1.477h6.776V161.322z"/>
	<path fill="#663333" d="M75.728,159.846l-3.388,8.029c-0.322,0.803-0.698,1.377-1.158,1.707c-0.445,0.328-1.004,0.488-1.645,0.488
		c-0.362,0-0.711-0.059-1.074-0.189c-0.349-0.113-0.642-0.285-0.864-0.5l0.684-1.277c0.166,0.158,0.347,0.285,0.57,0.373
		c0.224,0.088,0.448,0.143,0.67,0.143c0.292,0,0.543-0.086,0.738-0.242c0.195-0.158,0.377-0.416,0.53-0.789l0.126-0.287
		l-3.151-7.471h1.757l2.272,5.506l2.3-5.49H75.728z"/>
	<path fill="#663333" d="M84.178,165.809v3.141h-1.589v-1.664h-5.577v1.664h-1.576v-3.141h0.333
		c0.462-0.014,0.782-0.314,0.949-0.918c0.167-0.588,0.278-1.42,0.335-2.494l0.098-2.551h5.953v5.963H84.178z M78.392,164.605
		c-0.098,0.545-0.28,0.932-0.544,1.203h3.556v-4.486h-2.776l-0.041,1.203C78.559,163.373,78.489,164.074,78.392,164.605z"/>
	<path fill="#663333" d="M85.767,158.324c-0.208-0.199-0.306-0.443-0.306-0.746c0-0.301,0.098-0.545,0.306-0.744
		c0.21-0.201,0.46-0.301,0.767-0.301s0.558,0.1,0.767,0.285c0.209,0.186,0.307,0.43,0.307,0.719c0,0.303-0.097,0.559-0.307,0.773
		c-0.208,0.217-0.46,0.316-0.782,0.316C86.242,158.627,85.977,158.527,85.767,158.324z M85.697,159.846h1.688v7.439h-1.688V159.846z
		"/>
	<path fill="#663333" d="M95.781,159.846v7.439h-1.52v-2.25H92.35l-1.463,2.25h-1.813l1.702-2.479
		c-0.531-0.189-0.92-0.475-1.199-0.861c-0.28-0.387-0.418-0.861-0.418-1.434c0-0.861,0.293-1.52,0.878-1.979
		c0.585-0.461,1.395-0.703,2.426-0.703L95.781,159.846z M90.887,162.568c0,0.832,0.53,1.248,1.588,1.248h1.8v-2.51h-1.744
		C91.43,161.307,90.887,161.738,90.887,162.568z"/>
	<path fill="#663333" d="M107.17,164.047c0.251,0.285,0.378,0.645,0.378,1.047c0,0.459-0.154,0.859-0.447,1.203
		c-0.293,0.344-0.712,0.617-1.228,0.818c-0.529,0.199-1.114,0.287-1.785,0.287c-0.557,0-1.102-0.07-1.646-0.203
		c-0.529-0.129-1.018-0.328-1.449-0.572l0.489-1.291c0.349,0.201,0.752,0.361,1.185,0.473c0.447,0.117,0.878,0.174,1.324,0.174
		c0.572,0,1.018-0.086,1.339-0.273c0.32-0.184,0.474-0.43,0.474-0.744c0-0.287-0.125-0.518-0.377-0.674
		c-0.25-0.158-0.6-0.244-1.045-0.244h-1.41v-1.176h1.271c0.417,0,0.752-0.072,0.99-0.23c0.237-0.143,0.361-0.359,0.361-0.631
		s-0.138-0.486-0.431-0.646c-0.292-0.156-0.683-0.242-1.186-0.242c-0.725,0-1.49,0.186-2.286,0.547l-0.433-1.279
		c0.947-0.459,1.909-0.688,2.873-0.688c0.612,0,1.17,0.086,1.659,0.258c0.488,0.172,0.864,0.418,1.143,0.719
		c0.279,0.314,0.419,0.658,0.419,1.061c0,0.357-0.113,0.688-0.321,0.959c-0.223,0.289-0.516,0.502-0.893,0.66
		C106.573,163.545,106.92,163.76,107.17,164.047z"/>
	<path fill="#663333" d="M114.436,160.547c0.56,0.531,0.852,1.318,0.852,2.381v4.357h-1.603v-0.902
		c-0.21,0.332-0.504,0.574-0.895,0.746c-0.39,0.172-0.85,0.258-1.394,0.258s-1.018-0.102-1.422-0.285
		c-0.404-0.188-0.725-0.461-0.949-0.789c-0.222-0.346-0.334-0.719-0.334-1.148c0-0.676,0.236-1.203,0.727-1.605
		c0.486-0.402,1.24-0.602,2.284-0.602h1.869v-0.115c0-0.516-0.152-0.916-0.461-1.205c-0.306-0.273-0.752-0.414-1.351-0.414
		c-0.405,0-0.809,0.072-1.199,0.199c-0.391,0.129-0.727,0.316-0.99,0.547l-0.669-1.264c0.377-0.301,0.835-0.531,1.366-0.689
		c0.529-0.156,1.102-0.242,1.687-0.242C113.057,159.758,113.879,160.031,114.436,160.547z M112.89,165.809
		c0.334-0.199,0.559-0.488,0.694-0.859v-0.859h-1.74c-0.978,0-1.465,0.328-1.465,0.988c0,0.316,0.126,0.572,0.361,0.746
		c0.236,0.188,0.588,0.271,1.02,0.271C112.191,166.111,112.567,166.012,112.89,165.809z"/>
	<path fill="#663333" d="M118.661,166.898c-0.601-0.328-1.061-0.775-1.395-1.361c-0.333-0.572-0.503-1.234-0.503-1.963
		c0-0.732,0.17-1.393,0.503-1.965c0.334-0.574,0.794-1.033,1.395-1.35c0.585-0.33,1.268-0.486,2.022-0.486
		c0.71,0,1.338,0.143,1.882,0.443c0.543,0.301,0.947,0.73,1.213,1.275l-1.298,0.775c-0.207-0.342-0.473-0.6-0.779-0.775
		c-0.308-0.17-0.655-0.258-1.018-0.258c-0.627,0-1.158,0.217-1.577,0.631c-0.417,0.416-0.626,0.992-0.626,1.693
		c0,0.703,0.209,1.277,0.613,1.691c0.404,0.416,0.934,0.631,1.573,0.631c0.379,0,0.713-0.086,1.018-0.258
		c0.311-0.17,0.573-0.43,0.783-0.773l1.297,0.773c-0.278,0.559-0.684,0.988-1.229,1.291c-0.541,0.301-1.156,0.457-1.869,0.457
		C119.929,167.387,119.246,167.215,118.661,166.898z"/>
	<path fill="#663333" d="M132.366,167.285v-4.932l-2.438,4.145h-0.726l-2.398-4.158v4.945h-1.548v-7.439h1.771l2.58,4.643
		l2.691-4.643h1.589l0.015,7.439H132.366z"/>
	<path fill="#663333" d="M141.306,160.547c0.559,0.531,0.85,1.318,0.85,2.381v4.357h-1.604v-0.902
		c-0.208,0.332-0.501,0.574-0.893,0.746c-0.39,0.172-0.85,0.258-1.396,0.258c-0.543,0-1.016-0.102-1.421-0.285
		c-0.403-0.188-0.725-0.461-0.947-0.789c-0.225-0.346-0.335-0.719-0.335-1.148c0-0.676,0.236-1.203,0.725-1.605
		s1.24-0.602,2.286-0.602h1.869v-0.115c0-0.516-0.153-0.916-0.459-1.205c-0.308-0.273-0.754-0.414-1.354-0.414
		c-0.405,0-0.81,0.072-1.2,0.199c-0.39,0.129-0.725,0.316-0.988,0.547l-0.671-1.264c0.379-0.301,0.838-0.531,1.367-0.689
		c0.53-0.156,1.103-0.242,1.688-0.242C139.925,159.758,140.748,160.031,141.306,160.547z M139.757,165.809
		c0.334-0.199,0.559-0.488,0.698-0.859v-0.859h-1.743c-0.976,0-1.464,0.328-1.464,0.988c0,0.316,0.124,0.572,0.363,0.746
		c0.236,0.188,0.586,0.271,1.017,0.271C139.061,166.111,139.438,166.012,139.757,165.809z"/>
	<path fill="#663333" d="M149.81,161.322h-3.861v5.963h-1.688v-7.439h5.55V161.322z"/>
	<path fill="#663333" d="M151.039,159.846h1.687v4.904l4.003-4.904h1.546v7.439h-1.687v-4.902l-3.988,4.902h-1.561V159.846z"/>
</g>
<g>
	
		<radialGradient id="SVGID_1_" cx="180.0088" cy="166.7178" r="125.8834" gradientTransform="matrix(1.1051 0 0 1.128 -1.4004 -26.1479)" gradientUnits="userSpaceOnUse">
		<stop  offset="0" style="stop-color:#FF6633"/>
		<stop  offset="0.3155" style="stop-color:#FF8325"/>
		<stop  offset="0.9963" style="stop-color:#FFCC00"/>
		<stop  offset="1" style="stop-color:#FFCC00"/>
	</radialGradient>
	<path fill="url(#SVGID_1_)" d="M133.531,145.242c-17.138,0-38.529-6.791-56.878-16.072c-24.475-12.418-50.381-32.905-49.72-53.209
		c0.586-16.826,15.962-32.225,43.374-43.321c34.015-13.771,82.451-18.26,97.569-2.714c8.111,8.34,12.223,25.132,11.268,46.036
		c-1.03,22.455-8.404,50.456-22.57,62.491C150.963,143.205,142.888,145.242,133.531,145.242z M133.166,30.943
		c-17.469,0-39.817,4.113-58.936,11.85c-22.896,9.283-36.254,21.511-36.654,33.544c-0.407,12.265,17.17,29.548,43.813,43.018
		c28.951,14.645,58.383,19.246,68.469,10.678c9.943-8.453,17.648-30.9,18.714-54.597c0.81-17.321-2.348-31.814-8.18-37.812
		C155.948,33.134,145.862,30.943,133.166,30.943z"/>
	
		<radialGradient id="SVGID_2_" cx="6.8745" cy="208.4912" r="2.7731" gradientTransform="matrix(50.1364 0 0 -51.5528 -150.125 10754.6328)" gradientUnits="userSpaceOnUse">
		<stop  offset="0" style="stop-color:#FF6633"/>
		<stop  offset="0.3155" style="stop-color:#FF8325"/>
		<stop  offset="0.9963" style="stop-color:#FFCC00"/>
		<stop  offset="1" style="stop-color:#FFCC00"/>
	</radialGradient>
	<path fill="url(#SVGID_2_)" d="M130.631,47.17c16.18,1.96,23.189,6.001,24.802,8.075c0.078,0.114,0.151,0.226,0.225,0.339
		c-2.093-8.376-3.301-13.209-25.391-13.209c-10.534,0-22.605,1.625-34.276,4.418C108.03,45.848,120.063,45.887,130.631,47.17z"/>
</g>

</svg>
