<?xml version="1.0" encoding="utf-8"?>
<!DOCTYPE svg PUBLIC "-//W3C//DTD SVG 1.1//EN" "http://www.w3.org/Graphics/SVG/1.1/DTD/svg11.dtd">
<svg version="1.1" id="Layer_4" xmlns="http://www.w3.org/2000/svg" xmlns:xlink="http://www.w3.org/1999/xlink" x="0px" y="0px" width="216px" height="216px" viewBox="454 1110 216 216" enable-background="new 454 1110 216 216" xml:space="preserve">
<g>
	<circle fill="#65B32E" cx="562.5" cy="1218" r="107"/>
	<g>
		<path fill="#FFFFFF" d="M559.748,1187.007c1.113-9.833,4.508-18.113,12.959-24.366c4.229-3.127,10.046,0.854,3.984,4.468
			c-7.322,4.357-14.325,14.545-15.424,19.841C560.767,1187.081,560.26,1187.101,559.748,1187.007L559.748,1187.007z
			 M556.959,1179.158c-27.364,2.465-32.641-12.421-36.312-36.9c30.017-0.213,43.773,1.337,43.039,22.128
			c-0.427,0.546-0.831,1.099-1.215,1.665c-4.041-7.527-12.905-14.123-31.218-17.663c13.327,4.564,23.364,13.805,26.736,26.232
			C557.552,1176.099,557.216,1177.607,556.959,1179.158L556.959,1179.158z"/>
		<path fill="#FFFFFF" d="M555.816,1188.939c1.855,0.279,3.4,0.398,4.9,0.321c1.528-0.085,3.079-0.375,4.943-0.911
			c10.898-3.136,25.298-1.161,34.578,5.487c11.89,8.512,15.074,23.014,12.942,37.444c-2.562,17.348-19.362,51.349-40.979,42.886
			c-2.67-1.042-5.282-1.898-8.193-1.799c-3.044,0.103-4.254,1.093-8.699,2.18c-24.385,5.947-41.966-27.205-44-46.79
			c-1.309-12.635,1.775-24.837,11.477-32.364C531.219,1188.843,545.514,1186.418,555.816,1188.939L555.816,1188.939z"/>
	</g>
</g>
</svg>
