<?xml version="1.0" encoding="utf-8"?>
<!DOCTYPE svg PUBLIC "-//W3C//DTD SVG 1.1//EN" "http://www.w3.org/Graphics/SVG/1.1/DTD/svg11.dtd">
<svg version="1.1" id="Layer_1" xmlns="http://www.w3.org/2000/svg" xmlns:xlink="http://www.w3.org/1999/xlink" x="0px" y="0px" width="216px" height="216px" viewBox="0 0 216 216" enable-background="new 0 0 216 216" xml:space="preserve">
<path fill-rule="evenodd" clip-rule="evenodd" fill="#EDD3D6" d="M54,0h108.003C191.702,0,216,24.3,216,54v108.003
	C216,191.702,191.702,216,162.003,216H54c-29.7,0-54-24.298-54-53.997V54C0,24.3,24.3,0,54,0z"/>
<g>
	<path fill="#EE3341" d="M72.415,107.148l-0.229,3.068H38.753c0,2.415,0.947,4.474,2.873,6.202c1.86,1.765,4.539,2.647,8.067,2.647
		c1.99,0,3.787-0.33,5.352-1.014c1.503-0.688,2.48-1.37,2.941-2.056l0.75-0.952h12.699c-0.079,0.468-0.199,0.929-0.357,1.374
		c-0.198,0.654-0.788,1.698-1.732,3.101c-0.984,1.518-2.194,2.873-3.593,4.018c-1.533,1.173-3.655,2.222-6.398,3.104
		c-2.872,0.944-6.104,1.401-9.662,1.401c-6.856,0-12.443-1.862-16.717-5.554c-4.279-3.653-6.399-8.778-6.399-15.341
		c0-6.531,2.12-11.653,6.365-15.343c4.247-3.688,9.764-5.552,16.587-5.552c6.758,0,12.275,1.863,16.517,5.555
		c4.247,3.687,6.37,8.811,6.37,15.343V107.148z M49.526,95.231c-3.359,0-5.939,0.848-7.77,2.512
		c-1.893,1.702-2.838,3.496-2.838,5.386h21.155c0-1.924-0.916-3.752-2.712-5.416C55.504,96.079,52.891,95.231,49.526,95.231
		 M105.162,122.459c-3.755-3.753-5.619-8.848-5.619-15.277c0-6.467,1.863-11.56,5.619-15.28c3.753-3.787,8.356-5.649,13.875-5.649
		c3.005,0,5.678,0.455,8.096,1.403c2.448,1.014,4.08,1.96,4.964,2.908l1.305,1.368h0.46V70.907h11.588v56.382h-11.588v-6.591h-0.561
		c-0.227,0.52-0.912,1.37-1.991,2.544c-0.811,0.864-1.722,1.63-2.708,2.287c-1.108,0.716-2.516,1.306-4.212,1.793
		c-1.73,0.498-3.521,0.748-5.32,0.754C113.518,128.076,108.915,126.215,105.162,122.459 M114.497,99.507
		c-2.021,2.024-3.031,4.571-3.031,7.675c0,3.133,1.01,5.647,3.031,7.641c1.992,1.986,4.7,3.004,8.129,3.004
		c3.46,0,6.173-1.018,8.197-3.004c2.023-1.959,3.038-4.506,3.038-7.643c0-3.166-1.015-5.745-3.071-7.706
		c-2.058-1.926-4.801-2.906-8.127-2.906C119.23,96.534,116.523,97.515,114.497,99.507 M173.625,128.076
		c-6.826,0-12.343-1.861-16.587-5.55c-4.241-3.69-6.365-8.817-6.365-15.38c0-6.562,2.124-11.688,6.365-15.377
		c4.244-3.688,9.761-5.546,16.587-5.546c6.824,0,12.342,1.857,16.587,5.546c4.24,3.689,6.364,8.816,6.364,15.379
		c0,6.562-2.124,11.688-6.364,15.378c-4.245,3.719-9.796,5.55-16.589,5.55H173.625z M181.722,115.052
		c1.959-2.059,2.938-4.675,2.938-7.905c0-3.231-0.979-5.844-2.938-7.9c-1.962-2.056-4.668-3.066-8.097-3.066
		c-3.461,0-6.139,1.011-8.064,3.066c-1.961,2.057-2.94,4.669-2.94,7.902c0,3.231,0.979,5.845,2.94,7.903
		c1.926,2.055,4.604,3.065,8.064,3.065C177.054,118.117,179.76,117.106,181.722,115.052"/>
	<path fill="#EE3341" d="M97.389,118.049c-0.618,0.266-1.501,0.396-2.677,0.396c-2.057,0-3.526-0.523-4.407-1.566
		c-0.881-1.046-1.333-3.005-1.333-5.845V70.908H77.377v41.399c0,5.252,1.273,9.176,3.787,11.818
		c2.514,2.646,6.104,3.951,10.804,3.951c2.188,0.028,3.986-0.198,5.42-0.654v-9.369V118.049z"/>
</g>
</svg>
