<?xml version="1.0" encoding="utf-8"?>
<!DOCTYPE svg PUBLIC "-//W3C//DTD SVG 1.1//EN" "http://www.w3.org/Graphics/SVG/1.1/DTD/svg11.dtd">
<svg version="1.1" id="Layer_1" xmlns="http://www.w3.org/2000/svg" xmlns:xlink="http://www.w3.org/1999/xlink" x="0px" y="0px" width="216px" height="216px" viewBox="0 0 216 216" enable-background="new 0 0 216 216" xml:space="preserve">
<path d="M23.107,122.715c-3.963,0-5.865-3.047-4.875-6.574c2.055-7.307,15.255-18.137,24.25-18.137
	c6.566,0,6.063,5.869,2.217,10.878l-2.125,2.35C34.949,118.717,27.878,122.715,23.107,122.715z M55.26,73.437
	c-11.48,0.005-24.127,7.028-32.063,13.682l0.626,0.908c12.32-8.638,29.421-14.257,34.137-5.831
	c2.488,4.448-1.739,13.423-7.689,20.521c1.427-3.135,0.485-9.152-7.81-9.152c-13.798-0.001-40.948,18.273-40.948,36.972
	c0,7.493,5.195,12.383,13.752,12.383c22.913,0,53.989-37.561,53.989-56.424C69.254,79.833,65.421,73.437,55.26,73.437z
	 M84.757,122.715c-1.331,0-2.441-0.47-3.135-1.314c-0.725-0.892-0.939-2.151-0.595-3.457c0.759-2.832,3.809-5.049,6.942-5.049h7.372
	l-2.631,9.822L84.757,122.715L84.757,122.715z M105.956,93.265c-2.112-2.593-5.522-3.752-7.969-3.752H84.585l-2.274,8.484h12.637
	l1.209,0.127c0.013,0,1.165,0.134,1.799,0.997c0.521,0.719,0.594,1.791,0.224,3.192l-0.599,2.231h-7.96
	c-6.855,0-16.407,4.915-18.535,12.857c-1.059,3.961-0.132,7.391,1.927,9.912c2.042,2.501,5.893,3.878,10.055,3.878h7.374
	l-0.004,0.004h9.375l4.394-16.417l3.236-12.068C108.714,97.971,107.337,94.957,105.956,93.265L105.956,93.265z M198.002,89.513
	c-3.625,0-6.991,1.073-9.733,3.105c-2.766,2.049-4.292,4.513-5.2,7.906c-1.972,7.356,3.807,10.907,8.457,13.422
	c3.33,1.808,6.208,3.365,5.589,5.673c-0.443,1.656-1.165,3.104-5.265,3.104h-12.513l-2.271,8.485h13.848
	c3.714,0,7.143-0.775,9.904-2.896c2.767-2.125,4.324-5.092,5.294-8.708c0.926-3.444,0.297-6.731-1.915-9.188
	c-1.845-2.057-4.505-3.489-6.844-4.754c-2.999-1.616-5.825-3.139-5.33-4.985c0.298-1.114,1.412-2.674,3.831-2.674h12.169
	l2.274-8.483h-12.298v-0.007H198.002z M125.383,89.513c-3.624,0-6.992,1.073-9.732,3.105c-2.767,2.049-4.291,4.513-5.206,7.906
	c-1.97,7.356,3.813,10.907,8.459,13.422c3.332,1.808,6.212,3.365,5.592,5.673c-0.445,1.656-1.166,3.104-5.268,3.104H106.72
	l-2.275,8.485h13.85c3.717,0,7.146-0.775,9.904-2.896c2.769-2.125,4.327-5.092,5.295-8.708c0.926-3.444,0.295-6.731-1.913-9.188
	c-1.843-2.057-4.506-3.489-6.85-4.754c-2.995-1.616-5.822-3.139-5.325-4.985c0.297-1.114,1.411-2.674,3.827-2.674h12.165
	l2.276-8.483h-12.292L125.383,89.513L125.383,89.513z M144.281,89.513L133.419,131.2h9.176l10.856-41.687H144.281z M177.868,89.513
	c-16.155,0.059-24.608,10.82-27.296,20.843c-3.183,11.886,3.145,20.846,14.716,20.846h7.756l2.272-8.485h-7.752
	c-4.332,0-10.288-3.41-7.887-12.36c1.906-7.117,8.84-12.359,16.455-12.359h4.922l2.274-8.484H177.868L177.868,89.513z
	 M209.655,129.294h0.802v-1.803h0.639c0.429,0,0.729,0.047,0.894,0.145c0.289,0.171,0.438,0.523,0.438,1.053v0.364l0.013,0.146
	c0.007,0.021,0.008,0.036,0.015,0.054l0.011,0.041h0.755l-0.027-0.056c-0.026-0.076-0.039-0.156-0.04-0.237
	c-0.008-0.114-0.013-0.228-0.012-0.342v-0.336c-0.009-0.255-0.096-0.503-0.248-0.709c-0.166-0.243-0.431-0.392-0.79-0.451
	c0.28-0.042,0.504-0.112,0.663-0.223c0.3-0.194,0.448-0.49,0.446-0.902c0.002-0.574-0.233-0.961-0.705-1.159
	c-0.268-0.107-0.683-0.159-1.251-0.159h-1.601V129.294 M211.954,126.829c-0.166,0.065-0.423,0.102-0.765,0.102h-0.731v-1.658h0.687
	c0.448,0,0.773,0.055,0.977,0.169c0.205,0.113,0.307,0.337,0.307,0.67C212.428,126.464,212.27,126.702,211.954,126.829
	L211.954,126.829z M214.293,124.078c-0.78-0.793-1.851-1.231-2.962-1.214c-1.143,0-2.126,0.406-2.938,1.214
	c-0.794,0.77-1.234,1.833-1.217,2.939c0,1.16,0.403,2.147,1.209,2.959c0.809,0.816,1.794,1.226,2.949,1.226s2.142-0.409,2.955-1.226
	c0.815-0.816,1.225-1.802,1.225-2.959C215.514,125.869,215.106,124.887,214.293,124.078z M213.874,124.482
	c0.701,0.7,1.051,1.546,1.051,2.534c0,0.999-0.35,1.85-1.051,2.555c-0.694,0.705-1.542,1.059-2.537,1.059s-1.839-0.353-2.541-1.059
	c-0.681-0.674-1.057-1.597-1.04-2.555c0-0.991,0.351-1.834,1.045-2.534c0.662-0.687,1.579-1.07,2.533-1.057
	C212.29,123.411,213.21,123.795,213.874,124.482L213.874,124.482z"/>

</svg>
