<?xml version="1.0" encoding="utf-8"?>
<!DOCTYPE svg PUBLIC "-//W3C//DTD SVG 1.1//EN" "http://www.w3.org/Graphics/SVG/1.1/DTD/svg11.dtd">
<svg version="1.1" id="Layer_1" xmlns="http://www.w3.org/2000/svg" xmlns:xlink="http://www.w3.org/1999/xlink" x="0px" y="0px" width="216px" height="216px" viewBox="0 0 216 216" enable-background="new 0 0 216 216" xml:space="preserve">
<path fill="#DF565B" d="M173.689,133.729c-1.145,8.518-6.877,15.883-14.9,19.158c-3.93,1.635-8.189,2.131-12.449,1.635
	c-4.092-0.488-8.191-1.803-12.442-4.252c-5.894-3.283-11.792-8.352-18.671-15.887c10.809-13.266,17.359-25.379,19.816-36.188
	c1.145-5.074,1.313-9.662,0.816-13.921c-0.656-4.091-2.13-7.862-4.419-11.137c-5.075-7.367-13.594-11.625-23.091-11.625
	c-9.496,0-18.014,4.419-23.09,11.625c-2.29,3.274-3.763,7.045-4.419,11.137c-0.657,4.259-0.488,9.008,0.817,13.921
	c2.458,10.81,9.167,23.091,19.815,36.351c-6.717,7.535-12.77,12.609-18.67,15.885c-4.259,2.457-8.351,3.771-12.442,4.26
	c-4.221,0.473-8.488-0.094-12.442-1.633c-8.022-3.275-13.755-10.65-14.9-19.16c-0.488-4.092-0.161-8.184,1.473-12.77
	c0.489-1.643,1.313-3.275,2.13-5.237c1.146-2.618,2.458-5.405,3.763-8.191l0.168-0.328C61.848,82.967,73.97,58.076,86.58,33.84
	l0.489-0.984c1.313-2.451,2.617-5.077,3.931-7.534c1.313-2.619,2.786-5.077,4.587-7.206c3.443-3.931,8.022-6.061,13.099-6.061
	c5.076,0,9.662,2.13,13.097,6.061c1.802,2.129,3.274,4.587,4.588,7.206c1.313,2.458,2.619,5.076,3.932,7.526l0.497,0.985
	c12.442,24.395,24.562,49.287,35.86,73.691v0.16c1.313,2.616,2.457,5.572,3.764,8.188c0.814,1.971,1.641,3.605,2.127,5.238
	C173.857,125.377,174.348,129.469,173.689,133.729z M108.35,126.027c-8.839-11.138-14.572-21.618-16.541-30.458
	c-0.817-3.772-0.985-7.045-0.489-9.993c0.328-2.617,1.313-4.914,2.618-6.876c3.115-4.42,8.351-7.206,14.412-7.206
	s11.465,2.626,14.41,7.206c1.314,1.969,2.291,4.259,2.619,6.876c0.488,2.948,0.327,6.39-0.486,9.993
	C122.93,104.25,117.196,114.73,108.35,126.027z M182.207,117.516c-0.814-1.962-1.639-4.093-2.457-5.893
	c-1.313-2.948-2.617-5.734-3.77-8.351l-0.16-0.16c-11.299-24.564-23.42-49.457-36.189-74.02l-0.488-0.985
	c-1.313-2.458-2.619-5.076-3.932-7.694c-1.641-2.946-3.273-6.061-5.894-9.007c-5.243-6.558-12.777-10.16-20.8-10.16
	c-8.19,0-15.556,3.603-20.968,9.824c-2.458,2.947-4.259,6.061-5.893,9.007c-1.313,2.619-2.619,5.237-3.932,7.694l-0.488,0.978
	c-12.61,24.563-24.892,49.455-36.188,74.017l-0.161,0.33c-1.145,2.619-2.458,5.405-3.771,8.351
	c-0.877,1.938-1.694,3.909-2.458,5.893c-2.129,6.063-2.786,11.795-1.969,17.686c1.801,12.283,9.992,22.604,21.289,27.182
	c4.259,1.803,8.679,2.619,13.266,2.619c1.313,0,2.947-0.162,4.259-0.328c5.405-0.658,10.969-2.451,16.374-5.566
	c6.717-3.762,13.098-9.166,20.304-17.027c7.206,7.861,13.755,13.266,20.305,17.027c5.403,3.115,10.969,4.908,16.373,5.566
	c1.313,0.166,2.945,0.328,4.258,0.328c4.59,0,9.168-0.816,13.268-2.619c11.465-4.588,19.486-15.068,21.289-27.182
	C184.986,129.299,184.33,123.576,182.207,117.516z"/>
<path fill="#E75A61" d="M77.568,180.835c0,2.445-1.971,4.414-4.416,4.414c-2.446,0-4.415-1.969-4.415-4.414
	c0-2.444,1.902-4.414,4.415-4.414C75.666,176.489,77.568,178.458,77.568,180.835z M59.364,189.733v1.087
	c0,0-2.105-2.718-6.588-2.718c-7.403,0-13.177,5.638-13.177,13.448c0,7.744,5.707,13.449,13.177,13.449
	c4.551,0,6.588-2.785,6.588-2.785v1.153c0,0.544,0.408,0.951,0.951,0.951h5.501V188.78h-5.501
	C59.772,188.781,59.364,189.258,59.364,189.733L59.364,189.733z M59.364,206.102c-1.018,1.495-3.056,2.785-5.501,2.785
	c-4.347,0-7.676-2.716-7.676-7.336c0-4.618,3.329-7.336,7.676-7.336c2.378,0,4.551,1.359,5.501,2.785V206.102z M69.892,188.781h6.52
	v25.54h-6.52V188.781L69.892,188.781z M167.292,188.103c-4.482,0-6.589,2.717-6.589,2.717v-14.33h-6.521v37.832h5.504
	c0.543,0,0.949-0.476,0.949-0.952v-1.154c0,0,2.106,2.785,6.588,2.785c7.404,0,13.178-5.704,13.178-13.447
	S174.628,188.103,167.292,188.103L167.292,188.103z M166.205,208.819c-2.513,0-4.482-1.29-5.502-2.785v-9.102
	c1.02-1.358,3.192-2.785,5.502-2.785c4.347,0,7.675,2.717,7.675,7.336C173.88,206.102,170.553,208.819,166.205,208.819z
	 M150.788,199.174v15.216h-6.521v-14.468c0-4.211-1.359-5.909-5.023-5.909c-1.97,0-4.008,1.018-5.301,2.513v17.796h-6.52v-25.539
	h5.161c0.544,0,0.951,0.476,0.951,0.951v1.087c1.902-1.971,4.415-2.718,6.928-2.718c2.854,0,5.23,0.815,7.133,2.446
	C149.904,192.45,150.788,194.896,150.788,199.174L150.788,199.174z M111.595,188.103c-4.481,0-6.587,2.717-6.587,2.717v-14.33h-6.52
	v37.832h5.5c0.543,0,0.952-0.476,0.952-0.952v-1.154c0,0,2.106,2.785,6.588,2.785c7.403,0,13.177-5.704,13.177-13.447
	C124.772,193.81,119,188.103,111.595,188.103L111.595,188.103z M110.509,208.819c-2.513,0-4.482-1.29-5.501-2.785v-9.102
	c1.019-1.358,3.193-2.785,5.501-2.785c4.349,0,7.676,2.717,7.676,7.336C118.185,206.102,114.857,208.819,110.509,208.819z
	 M92.85,188.103c1.969,0,2.988,0.34,2.988,0.34v6.045c0,0-5.434-1.835-8.829,2.037v17.863h-6.521v-25.606h5.502
	c0.543,0,0.95,0.476,0.95,0.951v1.087C88.164,189.393,90.813,188.103,92.85,188.103L92.85,188.103z"/>
</svg>
