<?xml version="1.0" encoding="utf-8"?>
<!DOCTYPE svg PUBLIC "-//W3C//DTD SVG 1.1//EN" "http://www.w3.org/Graphics/SVG/1.1/DTD/svg11.dtd">
<svg version="1.1" xmlns="http://www.w3.org/2000/svg" xmlns:xlink="http://www.w3.org/1999/xlink" x="0px" y="0px" width="216px" height="216px" viewBox="0 0 216 216" enable-background="new 0 0 216 216" xml:space="preserve">
<g>
	<g>
		<rect x="4.858" y="5.319" fill-rule="evenodd" clip-rule="evenodd" fill="#FFFFFF" width="208.999" height="208.998"/>
		<g>
			<path fill="#E2001A" d="M107.51,9.562c12.957,0,25.685,3.933,36.561,11.105c10.875,7.176,19.205,17.588,24.295,29.621
				c5.091,12.032,6.249,25.221,3.702,38.177c-2.545,12.732-8.792,24.531-18.047,33.786c-9.258,9.255-20.826,15.501-33.784,18.045
				c-12.727,2.549-25.915,1.161-37.948-3.7c-12.033-5.09-22.213-13.654-29.385-24.527c-7.174-10.871-11.108-23.603-11.108-36.559
				C41.794,57.922,48.737,41.265,61,29C73.496,16.501,90.157,9.562,107.51,9.562z"/>
			<path fill="#FFFFFF" d="M136.896,34.555c-0.465,2.544-1.852,4.855-3.702,6.477c-0.23,0.233-0.695,0.461-0.926,0.461h-1.157
				c-2.545-0.461-4.859-1.851-6.479-3.704c-0.23-0.229-0.464-0.69-0.464-0.923V35.71c0.464-2.544,1.853-4.86,3.702-6.478
				c0.233-0.232,0.695-0.466,0.927-0.466h1.157c2.544,0.466,4.859,1.854,6.477,3.7c0.233,0.233,0.465,0.699,0.465,0.933V34.555
				L136.896,34.555z M153.326,54.455L153.326,54.455c-1.619,1.849-3.934,3.238-6.479,3.933h-1.157c-0.463,0-0.693-0.233-0.927-0.465
				c-1.851-1.618-3.239-3.934-3.933-6.478v-1.156c0-0.466,0.232-0.696,0.463-0.924c1.619-1.855,3.934-3.244,6.478-3.937h1.159
				c0.463,0,0.693,0.233,0.924,0.462c1.854,1.62,3.24,3.933,3.934,6.481v1.155C153.787,53.755,153.557,53.988,153.326,54.455
				L153.326,54.455z M87.379,29.232L87.379,29.232c1.85,1.851,3.239,4.167,3.703,6.478v1.156c0,0.467-0.23,0.694-0.464,0.923
				c-1.85,1.853-3.933,3.243-6.478,3.704h-1.159c-0.46,0-0.693-0.228-0.925-0.461c-1.849-1.854-3.238-4.166-3.702-6.477v-1.156
				c0-0.467,0.23-0.699,0.464-0.933c1.849-1.846,3.933-3.234,6.477-3.7h1.158C86.685,29,87.148,29,87.379,29.232L87.379,29.232z
				 M67.247,45.428L67.247,45.428c2.546,0.693,4.63,2.082,6.48,3.937c0.23,0.228,0.464,0.69,0.464,0.924v1.156
				c-0.695,2.544-1.852,4.859-3.936,6.478c-0.231,0-0.692,0.232-0.926,0.232h-1.156c-2.546-0.695-4.627-1.851-6.479-3.933
				c-0.23-0.233-0.461-0.695-0.461-0.924v-1.16c0.691-2.545,1.85-4.861,3.933-6.477c0.231-0.233,0.694-0.463,0.925-0.463
				C66.321,45.198,66.786,45.198,67.247,45.428L67.247,45.428z M112.832,25.3L112.832,25.3c0.694,2.544,0.694,5.088,0,7.4
				c0,0.466-0.232,0.699-0.463,0.927c-0.23,0.23-0.463,0.462-0.924,0.462c-2.548,0.695-5.092,0.695-7.406,0
				c-0.464,0-0.695-0.232-0.926-0.462c-0.232-0.228-0.463-0.461-0.463-0.927c-0.694-2.544-0.694-5.089,0-7.633
				c0-0.466,0.23-0.694,0.463-0.927c0.231-0.229,0.462-0.462,0.926-0.462c2.544-0.694,5.091-0.694,7.406,0
				c0.461,0,0.693,0.233,0.924,0.462C112.369,24.601,112.6,25.067,112.832,25.3L112.832,25.3z M110.287,88.465L110.287,88.465
				c4.396-6.711,7.405-14.345,8.33-22.211c0-0.233,0-0.233,0.23-0.466c0-0.228,0.232-0.228,0.463-0.228h0.465
				c0.229,0,0.229,0,0.461,0.228c3.009,2.317,6.479,4.167,10.182,5.324c0.231,0,0.461,0.232,0.461,0.464
				c0.232,0.234,0.232,0.461,0,0.694c-1.849,9.255-5.551,17.816-11.104,25.449c0,0.233-0.234,0.233-0.234,0.233
				c-0.23,0-0.23,0.233-0.461,0.233h-0.463c-0.232,0-0.232,0-0.465-0.233c-2.775-2.312-5.553-4.855-7.865-7.634
				c-0.23-0.232-0.23-0.465-0.23-0.693C110.057,88.93,110.287,88.698,110.287,88.465L110.287,88.465z M106.816,109.986
				c0.231,0,0.463,0.232,0.926,0.232c0.23,0,0.46,0,0.694-0.232c2.776-2.313,5.551-4.857,7.866-7.635
				c0.23-0.233,0.23-0.233,0.23-0.465v-0.462c-0.23-0.228-0.23-0.228-0.23-0.461l-0.23-0.233
				c-10.645-8.562-17.818-20.822-19.668-34.477c0-0.233-0.23-0.233-0.23-0.466c-0.233,0-0.233-0.228-0.463-0.228h-0.464
				c-0.231,0-0.231,0.228-0.461,0.228c-3.007,2.317-6.479,4.167-10.183,5.324c-0.23,0-0.23,0.232-0.461,0.464v0.694
				C87.148,87.076,95.246,100.498,106.816,109.986L106.816,109.986L106.816,109.986z M154.482,77.13L154.482,77.13
				c1.619-0.927,2.777-2.315,3.701-3.933c0.694-1.621,0.926-3.475,0.694-5.322c0-0.233,0-0.233-0.229-0.465l-0.232-0.233h-0.463
				c-0.232,0-0.232,0-0.463,0.233c-6.478,4.166-14.346,6.017-21.982,4.86c-0.23,0-0.463,0-0.693,0.229
				c-0.23,0.232-0.23,0.464-0.463,0.697c-1.157,5.551-3.008,11.105-5.554,16.429v0.926c0,0.23,0.232,0.23,0.232,0.458
				c0,0.232,0.229,0.232,0.229,0.232c6.248,2.777,13.189,4.399,19.9,4.399c0.23,0,0.463,0,0.693-0.232
				c0.232-0.234,0.465-0.234,0.465-0.463C153.094,88.93,154.251,82.915,154.482,77.13z"/>
			<path fill="#FFFFFF" d="M117.229,63.244c2.313-0.462,24.526-4.396,16.659-10.645c-6.71-5.322-14.577-9.488-22.675-11.8
				c-2.546-0.693-5.09-0.693-7.637,0c-8.33,2.312-15.967,6.479-22.677,12.033c-7.866,6.479,14.347,10.412,16.661,10.645
				c1.619,4.86,5.321,11.338,9.72,11.338C111.676,74.814,115.609,68.104,117.229,63.244L117.229,63.244z M64.473,94.485
				L64.473,94.485c-2.315-5.555-3.705-11.571-3.935-17.588c-1.619-0.922-2.777-2.312-3.702-3.933
				c-0.695-1.621-0.925-3.471-0.695-5.322c0-0.232,0-0.232,0.231-0.465l0.232-0.229h0.464c0.229,0,0.229,0,0.463,0.229
				c6.478,4.167,14.346,6.02,21.982,4.86c0.23,0,0.462,0,0.695,0.233c0.231,0.229,0.231,0.462,0.46,0.694
				c1.158,5.556,3.009,11.106,5.554,16.428v0.926c0,0.233-0.23,0.233-0.23,0.463c0,0-0.232,0.228-0.462,0.228
				c-6.249,2.777-12.959,4.399-19.902,4.399c-0.23,0-0.461,0-0.693-0.234C64.702,94.946,64.473,94.713,64.473,94.485L64.473,94.485z
				 M129.725,122.713L129.725,122.713c-6.941,3.239-14.58,5.094-22.215,5.094c-1.387,0-2.545,0-3.934-0.234h-0.462
				c-0.232,0-0.232-0.232-0.232-0.232s-0.23-0.232-0.23-0.461v-0.462c1.619-6.481,5.552-12.265,10.875-16.431
				c5.321-4.167,11.802-6.246,18.512-6.246c6.017,0,8.792,2.777,8.792,6.478C141.063,115.074,137.36,119.008,129.725,122.713
				L129.725,122.713z M85.295,122.713L85.295,122.713c4.167,1.85,8.33,3.239,12.729,4.166c0.23,0,0.463,0,0.694-0.232
				c0.23-0.229,0.461-0.462,0.461-0.694c0.927-4.167,2.778-8.1,5.322-11.566c0.233-0.233,0.233-0.467,0.233-0.699
				c0-0.229-0.233-0.457-0.463-0.69c-2.775-2.777-6.246-5.09-9.949-6.712c-3.704-1.62-7.636-2.314-11.8-2.314
				c-6.017,0-8.794,2.777-8.794,6.48C73.957,115.074,77.659,119.008,85.295,122.713z"/>
		</g>
		<path d="M78.799,184.348L78.799,184.348h8.483c0.235,0,0.471,0.119,0.707,0.235c0.235,0.116,0.353,0.354,0.471,0.589l6.008,19.559
			v0.352c0,0.118-0.118,0.236-0.118,0.355c-0.117,0.117-0.236,0.233-0.354,0.233c-0.118,0.118-0.236,0.118-0.354,0.118h-4.595
			c-0.235,0-0.471-0.118-0.707-0.234c-0.235-0.117-0.353-0.354-0.472-0.589l-0.824-2.71h-8.012l-0.825,2.71
			c-0.117,0.234-0.235,0.472-0.472,0.589c-0.236,0.116-0.47,0.234-0.706,0.234h-4.596c-0.117,0-0.234,0-0.353-0.118
			c-0.118,0-0.236,0-0.236-0.116c-0.117-0.117-0.117-0.236-0.117-0.354v-0.354l6.008-19.557c0.119-0.235,0.237-0.473,0.472-0.591
			C78.329,184.348,78.563,184.348,78.799,184.348L78.799,184.348z M59.594,184.937L59.594,184.937l-4.123,8.718l-4.241-8.837
			c-0.119-0.234-0.235-0.351-0.354-0.47c-0.118-0.119-0.353-0.119-0.589-0.119h-5.42c-0.235,0-0.471,0.119-0.707,0.238
			c-0.236,0.116-0.354,0.47-0.354,0.705l-2.003,19.675v0.354c0,0.118,0.119,0.237,0.236,0.354l0.235,0.234
			c0.118,0,0.236,0.119,0.353,0.119h4.832c0.235,0,0.471-0.119,0.707-0.237c0.235-0.233,0.353-0.471,0.353-0.705l1.06-10.135
			l3.535,7.66c0.118,0.119,0.236,0.354,0.354,0.47c0.119,0.119,0.353,0.119,0.589,0.119h2.946c0.235,0,0.352,0,0.588-0.119
			c0.117-0.116,0.354-0.232,0.354-0.47l3.535-7.541l1.061,10.132c0,0.236,0.118,0.473,0.354,0.707
			c0.234,0.237,0.47,0.237,0.707,0.237h4.83c0.117,0,0.236,0,0.353-0.118c0.118,0,0.236-0.119,0.236-0.237
			c0.118-0.116,0.118-0.233,0.235-0.353v-0.353l-2.003-19.56c0-0.234-0.117-0.47-0.354-0.707c-0.236-0.232-0.471-0.232-0.707-0.232
			h-5.538c-0.236,0-0.353,0-0.589,0.116C59.831,184.699,59.713,184.699,59.594,184.937L59.594,184.937z M172.584,199.193
			L172.584,199.193l2.002,5.653c0,0.119,0.119,0.235,0,0.354c0,0.118-0.116,0.237-0.116,0.354c-0.118,0.116-0.118,0.234-0.236,0.234
			c-0.119,0.119-0.235,0.119-0.354,0.119h-4.594c-0.234,0-0.472-0.119-0.707-0.237c-0.234-0.116-0.354-0.353-0.473-0.589
			l-1.648-4.594h-4.006v4.478c0,0.116,0,0.234-0.117,0.353c0,0.119-0.117,0.236-0.236,0.236l-0.236,0.234
			c-0.117,0-0.234,0.119-0.353,0.119h-4.829c-0.238,0-0.473-0.119-0.591-0.237c-0.117-0.116-0.235-0.353-0.235-0.589v-18.613
			c0-0.237,0-0.591,0.118-0.825c0.118-0.237,0.235-0.472,0.47-0.707c0.238-0.237,0.474-0.354,0.708-0.47
			c0.235-0.119,0.591-0.119,0.825-0.119h10.369C176.354,184.348,177.769,195.306,172.584,199.193L172.584,199.193z M111.553,184.699
			L111.553,184.699c0.236,0.118,0.473,0.237,0.59,0.473c0.117,0.234,0.236,0.472,0.236,0.706v3.534c0,0.118,0,0.236-0.119,0.355
			c-0.117,0.118-0.117,0.234-0.234,0.352c-0.119,0.119-0.236,0.119-0.354,0.119c-0.119,0-0.236,0-0.354-0.119
			c-1.649-0.824-9.427-2.002-9.308,0.591c0,1.53,1.885,1.411,2.944,1.411c4.477,0.119,9.189,1.18,9.189,6.835
			c0,3.3-1.648,5.419-4.004,6.244c-3.182,1.178-9.779,1.062-12.961,0c-0.235-0.118-0.471-0.234-0.589-0.47
			c-0.119-0.236-0.236-0.471-0.236-0.707v-3.535c0-0.118,0-0.237,0.118-0.47c0.119-0.118,0.119-0.237,0.236-0.356
			c0.118-0.115,0.236-0.115,0.354-0.115c0.117,0,0.236,0,0.47,0.115c1.65,0.708,9.898,1.887,9.898-0.588
			c0-1.533-1.649-1.414-2.829-1.414c-4.593,0-9.307-1.296-9.307-6.834c0-3.299,1.65-5.42,4.006-6.243
			C102.364,183.641,108.372,183.641,111.553,184.699L111.553,184.699z M115.914,189.648L115.914,189.648h5.301v15.317
			c0,0.116,0,0.234,0.118,0.353c0,0.119,0.117,0.236,0.235,0.236l0.236,0.234c0.117,0,0.235,0.119,0.354,0.119h4.829
			c0.119,0,0.237,0,0.354-0.119c0.118,0,0.236-0.118,0.236-0.234c0-0.117,0.117-0.117,0.235-0.236c0-0.118,0.118-0.236,0.118-0.353
			v-15.317h5.301c0.119,0,0.237,0,0.354-0.118c0.118,0,0.236-0.118,0.236-0.235l0.235-0.234c0-0.119,0.117-0.237,0.117-0.354v-3.652
			c0-0.118,0-0.237-0.117-0.355c0-0.116-0.118-0.232-0.235-0.232l-0.236-0.238c-0.117,0-0.235-0.118-0.354-0.118h-17.2
			c-0.117,0-0.236,0-0.354,0.118c-0.118,0.119-0.235,0.119-0.235,0.238l-0.235,0.232c0,0.118-0.118,0.237-0.118,0.355v3.652
			c0,0.116,0,0.234,0.118,0.354c0,0.119,0.118,0.234,0.235,0.234l0.235,0.235C115.677,189.648,115.795,189.648,115.914,189.648
			L115.914,189.648z M162.451,189.648L162.451,189.648v5.42h4.479c2.944,0,2.944-5.42,0-5.42H162.451L162.451,189.648z
			 M143.012,189.648L143.012,189.648h9.189c0.119,0,0.236,0,0.354-0.118c0.118,0,0.236-0.118,0.236-0.235l0.236-0.234
			c0-0.119,0.117-0.237,0.117-0.354v-3.652c0-0.118,0-0.237-0.117-0.355c0-0.116-0.119-0.232-0.236-0.232l-0.236-0.238
			c-0.117,0-0.234-0.118-0.354-0.118h-13.667c-0.589,0-1.061,0.237-1.532,0.589c-0.354,0.355-0.588,0.944-0.588,1.532v17.204
			c0,0.588,0.234,1.059,0.588,1.53c0.354,0.353,0.943,0.589,1.532,0.589h13.667c0.119,0,0.236,0,0.354-0.117
			c0.118,0,0.236-0.119,0.236-0.237l0.236-0.234c0-0.119,0.117-0.235,0.117-0.354v-3.653c0-0.117,0-0.232-0.117-0.352
			c0-0.119-0.119-0.237-0.236-0.237l-0.236-0.235c-0.117,0-0.234-0.116-0.354-0.116h-9.189v-2.71h8.012
			c0.235,0,0.471-0.119,0.59-0.237c0.117-0.118,0.235-0.354,0.235-0.589v-3.654c0-0.231-0.118-0.469-0.235-0.588
			c-0.119-0.119-0.354-0.235-0.59-0.235h-8.012V189.648L143.012,189.648z M85.28,196.953L85.28,196.953l-2.239-7.305l-2.239,7.305
			H85.28z"/>
		<path d="M137.512,165.26L137.512,165.26h-6.598v-7.188c0-0.234-0.118-0.472-0.235-0.588c-0.118-0.117-0.354-0.235-0.589-0.235
			h-4.83c-0.119,0-0.236,0-0.354,0.118c-0.118,0-0.234,0.117-0.234,0.233l-0.236,0.237c0,0.118-0.118,0.234-0.118,0.354v19.793
			c0,0.117,0,0.236,0.118,0.355c0,0.116,0.116,0.232,0.236,0.232l0.234,0.237c0.118,0,0.235,0.118,0.354,0.118h4.83
			c0.235,0,0.471-0.118,0.589-0.237c0.117-0.118,0.235-0.351,0.235-0.589v-7.185h6.598v7.185c0,0.238,0.118,0.471,0.236,0.589
			c0.118,0.119,0.353,0.237,0.59,0.237h4.829c0.236,0,0.472-0.118,0.589-0.237c0.119-0.118,0.236-0.351,0.236-0.589v-20.029
			c0-0.234-0.117-0.472-0.236-0.588c-0.117-0.117-0.353-0.235-0.589-0.235h-4.829c-0.237,0-0.472,0.118-0.59,0.235
			c-0.118,0.116-0.236,0.354-0.236,0.588V165.26L137.512,165.26z M75.185,157.601L75.185,157.601
			c0.235,0.118,0.472,0.237,0.589,0.472c0.118,0.235,0.236,0.472,0.236,0.708v3.532c0,0.119,0,0.238-0.118,0.475
			c-0.118,0.116-0.118,0.232-0.236,0.352c-0.118,0-0.237,0.119-0.354,0.119c-0.118,0-0.236,0-0.354-0.119
			c-1.649-0.707-9.425-1.885-9.308,0.589c0.117,1.532,1.886,1.413,2.946,1.413c4.595,0.119,9.189,1.18,9.189,6.835
			c0,3.298-1.649,5.42-4.005,6.245c-3.181,1.178-9.779,1.059-12.96,0c-0.236-0.119-0.472-0.236-0.59-0.473
			c-0.117-0.234-0.235-0.472-0.235-0.707v-3.532c0-0.118,0-0.237,0.119-0.355c0.117-0.117,0.117-0.233,0.235-0.353
			c0.118-0.118,0.236-0.118,0.353-0.118c0.119,0,0.236,0,0.354,0.118c1.651,0.708,9.897,2.003,9.897-0.588
			c-0.117-1.533-1.649-1.414-2.827-1.414c-4.595,0-9.309-1.297-9.309-6.834c0-3.299,1.649-5.421,4.006-6.246
			C65.995,156.424,72.005,156.424,75.185,157.601L75.185,157.601z M119.368,157.601L119.368,157.601
			c0.235,0.118,0.471,0.237,0.588,0.472c0.118,0.235,0.237,0.472,0.237,0.708v3.532c0,0.119,0,0.238-0.119,0.356
			c-0.118,0.118-0.118,0.234-0.235,0.351c-0.117,0.119-0.235,0.119-0.353,0.119c-0.118,0-0.236,0-0.472-0.119
			c-1.649-0.707-9.426-1.883-9.308,0.592c0,1.529,1.885,1.411,2.945,1.411c4.477,0.118,9.189,1.181,9.189,6.835
			c0,3.3-1.648,5.419-4.006,6.244c-3.181,1.178-9.778,1.062-12.96,0c-0.235-0.117-0.471-0.234-0.589-0.469
			c-0.117-0.237-0.236-0.473-0.236-0.707v-3.535c0-0.119,0-0.237,0.119-0.354c0.117-0.116,0.117-0.235,0.235-0.354
			c0.118-0.119,0.236-0.119,0.354-0.119c0.118,0,0.236,0,0.354,0.119c1.649,0.708,9.897,2.003,9.897-0.589
			c-0.118-1.533-1.649-1.414-2.827-1.414c-4.597,0-9.309-1.296-9.309-6.834c0-3.299,1.65-5.42,4.006-6.245
			C110.061,156.424,116.188,156.424,119.368,157.601L119.368,157.601z M147.527,177.867L147.527,177.867
			c0,0.117,0,0.234,0.117,0.354c0,0.119,0.117,0.235,0.236,0.235l0.234,0.234c0.119,0,0.236,0.119,0.354,0.119h4.831
			c0.117,0,0.234,0,0.354-0.119c0.117,0,0.234-0.118,0.234-0.234l0.236-0.235c0-0.119,0.118-0.236,0.118-0.354v-19.795
			c0-0.116,0-0.234-0.118-0.354c0-0.118-0.119-0.234-0.236-0.234l-0.234-0.235c-0.119,0-0.236-0.118-0.354-0.118h-4.831
			c-0.118,0-0.235,0-0.354,0.118c-0.117,0-0.234,0.118-0.234,0.235l-0.236,0.234c0,0.119-0.117,0.237-0.117,0.354V177.867
			L147.527,177.867z M86.85,158.072L86.85,158.072c0-0.116,0-0.234-0.117-0.354c0-0.118-0.119-0.234-0.236-0.234l-0.236-0.235
			c-0.118,0-0.235-0.118-0.354-0.118h-4.83c-0.236,0-0.471,0.118-0.589,0.236c-0.118,0.117-0.235,0.352-0.235,0.589v14.372
			c0,8.955,19.677,8.955,19.677,0v-14.256c0-0.116,0-0.234-0.119-0.354c0-0.118-0.117-0.234-0.234-0.234l-0.237-0.235
			c-0.117,0-0.235-0.118-0.354-0.118h-4.83c-0.236,0-0.471,0.118-0.589,0.236c-0.118,0.117-0.235,0.352-0.235,0.589v13.55
			c0,2.709-6.48,2.709-6.48,0V158.072z"/>
	</g>
</g>
</svg>
