<?xml version="1.0" encoding="utf-8"?>
<!DOCTYPE svg PUBLIC "-//W3C//DTD SVG 1.1//EN" "http://www.w3.org/Graphics/SVG/1.1/DTD/svg11.dtd">
<svg version="1.1" xmlns="http://www.w3.org/2000/svg" xmlns:xlink="http://www.w3.org/1999/xlink" x="0px" y="0px" width="216px"	 height="216px" viewBox="0 0 216 216" enable-background="new 0 0 216 216" xml:space="preserve">
<g id="Layer_2">
	<path fill-rule="evenodd" clip-rule="evenodd" fill="#005BAA" d="M54,0h108.003C191.702,0,216,24.3,216,54v108.003
		C216,191.702,191.702,216,162.003,216H54c-29.7,0-54-24.298-54-53.997V54C0,24.3,24.3,0,54,0z"/>
</g>
<g id="Layer_1">
	<g>
		<path fill="#FFFFFF" d="M50.803,74.806c4.514,0,8.173,3.621,8.173,8.086c0,4.467-3.659,8.087-8.173,8.087
			c-4.513,0-8.173-3.62-8.173-8.087C42.63,78.426,46.29,74.806,50.803,74.806"/>
		<path fill="#FFFFFF" d="M82.535,135.322c3.877,0,7.02,3.104,7.02,6.934c0,3.828-3.142,6.934-7.02,6.934
			c-3.877,0-7.02-3.105-7.02-6.934C75.516,138.427,78.658,135.322,82.535,135.322"/>
		<path fill="#FFFFFF" d="M96.98,140.72c3.434,0,6.217,2.752,6.217,6.147c0,3.395-2.783,6.146-6.217,6.146
			c-3.434,0-6.217-2.752-6.217-6.146C90.763,143.472,93.546,140.72,96.98,140.72"/>
		<path fill="#FFFFFF" d="M110.078,143.983c2.914,0,5.274,2.339,5.274,5.223s-2.36,5.223-5.274,5.223
			c-2.914,0-5.275-2.339-5.275-5.223S107.165,143.983,110.078,143.983"/>
		<path fill="#FFFFFF" d="M123.84,143.075c2.536,0,4.593,2.033,4.593,4.542s-2.057,4.541-4.593,4.541s-4.593-2.032-4.593-4.541
			S121.304,143.075,123.84,143.075"/>
		<path fill="#FFFFFF" d="M135.768,139.755c2.537,0,4.593,2.035,4.593,4.542c0,2.509-2.056,4.543-4.593,4.543
			c-2.535,0-4.591-2.034-4.591-4.543C131.177,141.79,133.232,139.755,135.768,139.755"/>
		<path fill="#FFFFFF" d="M145.408,134.535c2.121,0,3.842,1.697,3.842,3.79s-1.721,3.789-3.842,3.789
			c-2.123,0-3.843-1.696-3.843-3.789S143.285,134.535,145.408,134.535"/>
		<path fill="#FFFFFF" d="M153.722,127.933c1.553,0,2.812,1.243,2.812,2.777c0,1.535-1.259,2.778-2.812,2.778
			s-2.812-1.243-2.812-2.778C150.91,129.176,152.169,127.933,153.722,127.933"/>
		<path fill="#FFFFFF" d="M57.998,110.382c4.514,0,8.173,3.621,8.173,8.087s-3.659,8.087-8.173,8.087
			c-4.513,0-8.172-3.621-8.172-8.087S53.484,110.382,57.998,110.382"/>
		<path fill="#FFFFFF" d="M69.734,124.705c4.052,0,7.336,3.244,7.336,7.246c0,4.004-3.285,7.248-7.336,7.248
			s-7.336-3.244-7.336-7.248C62.398,127.949,65.683,124.705,69.734,124.705"/>
		<path fill="#FFFFFF" d="M81.138,117.701c3.146,0,5.694,2.518,5.694,5.623s-2.549,5.622-5.694,5.622
			c-3.145,0-5.694-2.517-5.694-5.622S77.993,117.701,81.138,117.701"/>
		<path fill="#FFFFFF" d="M92.316,112.354c2.333,0,4.225,1.869,4.225,4.175s-1.892,4.176-4.225,4.176
			c-2.334,0-4.226-1.87-4.226-4.176S89.982,112.354,92.316,112.354"/>
		<path fill="#FFFFFF" d="M104.787,108.932c1.967,0,3.563,1.58,3.563,3.528s-1.596,3.528-3.563,3.528
			c-1.968,0-3.564-1.58-3.564-3.528S102.818,108.932,104.787,108.932"/>
		<path fill="#FFFFFF" d="M114.724,106.051c1.505,0,2.725,1.205,2.725,2.688c0,1.486-1.22,2.689-2.725,2.689
			c-1.506,0-2.726-1.203-2.726-2.689C111.998,107.256,113.218,106.051,114.724,106.051"/>
		<path fill="#FFFFFF" d="M124.031,105.721c1.505,0,2.725,1.204,2.725,2.688c0,1.485-1.22,2.688-2.725,2.688
			c-1.504,0-2.725-1.203-2.725-2.688C121.307,106.924,122.527,105.721,124.031,105.721"/>
		<path fill="#FFFFFF" d="M132.415,106.593c1.505,0,2.726,1.203,2.726,2.689c0,1.485-1.221,2.688-2.726,2.688
			c-1.506,0-2.726-1.203-2.726-2.688C129.689,107.796,130.909,106.593,132.415,106.593"/>
		<path fill="#FFFFFF" d="M140.641,106.82c1.379,0,2.498,1.103,2.498,2.462c0,1.358-1.119,2.461-2.498,2.461
			s-2.498-1.103-2.498-2.461C138.143,107.923,139.262,106.82,140.641,106.82"/>
		<path fill="#FFFFFF" d="M55.396,58.546c4.108,0,7.438,3.284,7.438,7.336c0,4.052-3.33,7.336-7.438,7.336
			c-4.109,0-7.44-3.284-7.44-7.336C47.956,61.831,51.287,58.546,55.396,58.546"/>
		<path fill="#FFFFFF" d="M71.638,64.344c3.01,0,5.45,2.44,5.45,5.45c0,3.01-2.44,5.45-5.45,5.45c-3.01,0-5.45-2.44-5.45-5.45
			C66.188,66.784,68.627,64.344,71.638,64.344"/>
		<path fill="#FFFFFF" d="M85.085,64.764c2.585,0,4.68,2.307,4.68,5.152c0,2.846-2.095,5.153-4.68,5.153s-4.681-2.307-4.681-5.153
			C80.404,67.07,82.5,64.764,85.085,64.764"/>
		<path fill="#FFFFFF" d="M96.542,65.011c2.585,0,4.681,2.095,4.681,4.68c0,2.585-2.095,4.682-4.681,4.682s-4.681-2.096-4.681-4.682
			C91.861,67.106,93.956,65.011,96.542,65.011"/>
		<path fill="#FFFFFF" d="M107.248,66.355c1.91,0,3.458,1.665,3.458,3.719c0,2.055-1.548,3.72-3.458,3.72s-3.458-1.665-3.458-3.72
			C103.789,68.02,105.338,66.355,107.248,66.355"/>
		<path fill="#FFFFFF" d="M116.242,64.275c1.91,0,3.459,1.602,3.459,3.581c0,1.978-1.549,3.58-3.459,3.58s-3.458-1.603-3.458-3.58
			C112.784,65.877,114.332,64.275,116.242,64.275"/>
		<path fill="#FFFFFF" d="M125.552,61.377c1.601,0,2.899,1.298,2.899,2.9c0,1.601-1.299,2.9-2.899,2.9c-1.603,0-2.9-1.299-2.9-2.9
			C122.651,62.675,123.949,61.377,125.552,61.377"/>
		<path fill="#FFFFFF" d="M132.415,57.763c1.418,0,2.567,1.102,2.567,2.461s-1.149,2.461-2.567,2.461s-2.566-1.102-2.566-2.461
			S130.997,57.763,132.415,57.763"/>
		<path fill="#FFFFFF" d="M140.36,54.182c1.235,0,2.236,0.961,2.236,2.147c0,1.186-1.001,2.147-2.236,2.147
			s-2.236-0.962-2.236-2.147C138.124,55.144,139.125,54.182,140.36,54.182"/>
		<path fill="#FFFFFF" d="M64.862,45.206c4.032,0,7.3,3.144,7.3,7.021s-3.268,7.02-7.3,7.02c-4.032,0-7.3-3.143-7.3-7.02
			S60.83,45.206,64.862,45.206"/>
		<path fill="#FFFFFF" d="M74.485,34.917c3.308,0,5.989,2.807,5.989,6.269c0,3.463-2.682,6.271-5.989,6.271s-5.99-2.807-5.99-6.271
			C68.495,37.724,71.177,34.917,74.485,34.917"/>
		<path fill="#FFFFFF" d="M86.728,29.8c3.086,0,5.589,2.377,5.589,5.309c0,2.932-2.502,5.309-5.589,5.309
			c-3.087,0-5.59-2.377-5.59-5.309C81.138,32.177,83.64,29.8,86.728,29.8"/>
		<path fill="#FFFFFF" d="M99.703,26.414c3.087,0,5.589,2.377,5.589,5.309s-2.502,5.309-5.589,5.309s-5.589-2.377-5.589-5.309
			S96.616,26.414,99.703,26.414"/>
		<path fill="#FFFFFF" d="M112.941,25.8c2.536,0,4.593,1.933,4.593,4.314c0,2.382-2.057,4.314-4.593,4.314
			c-2.535,0-4.591-1.932-4.591-4.314C108.35,27.732,110.406,25.8,112.941,25.8"/>
		<path fill="#FFFFFF" d="M124.015,27.409c2.535,0,4.593,1.932,4.593,4.314s-2.058,4.313-4.593,4.313s-4.592-1.931-4.592-4.313
			S121.479,27.409,124.015,27.409"/>
		<path fill="#FFFFFF" d="M135.752,31.721c1.938,0,3.511,1.548,3.511,3.458c0,1.911-1.572,3.459-3.511,3.459
			c-1.939,0-3.512-1.548-3.512-3.459C132.24,33.269,133.813,31.721,135.752,31.721"/>
		<path fill="#FFFFFF" d="M144.116,37.676c1.562,0,2.827,1.298,2.827,2.9s-1.266,2.899-2.827,2.899s-2.828-1.298-2.828-2.899
			S142.555,37.676,144.116,37.676"/>
		<path fill="#FFFFFF" d="M151.591,44.471c1.409,0,2.55,1.118,2.55,2.498c0,1.379-1.141,2.497-2.55,2.497
			c-1.408,0-2.55-1.118-2.55-2.497C149.041,45.588,150.183,44.471,151.591,44.471"/>
		<path fill="#FFFFFF" d="M156.079,52.173c1.409,0,2.551,1.118,2.551,2.498c0,1.379-1.142,2.498-2.551,2.498
			c-1.407,0-2.55-1.118-2.55-2.498C153.529,53.291,154.672,52.173,156.079,52.173"/>
		<path fill="#FFFFFF" d="M52.845,93.389c4.774,0,8.645,3.778,8.645,8.437c0,4.659-3.871,8.436-8.645,8.436
			c-4.775,0-8.645-3.777-8.645-8.436C44.2,97.167,48.07,93.389,52.845,93.389"/>
		<path fill="#FFFFFF" d="M69.734,91.064c3.81,0,6.898,3.175,6.898,7.092s-3.088,7.092-6.898,7.092s-6.897-3.175-6.897-7.092
			S65.925,91.064,69.734,91.064"/>
		<path fill="#FFFFFF" d="M85.085,89.564c3.058,0,5.536,2.393,5.536,5.344c0,2.952-2.479,5.345-5.536,5.345
			c-3.058,0-5.537-2.393-5.537-5.345C79.549,91.958,82.027,89.564,85.085,89.564"/>
		<path fill="#FFFFFF" d="M98.708,88.411c2.324,0,4.208,1.979,4.208,4.419c0,2.441-1.884,4.42-4.208,4.42s-4.209-1.979-4.209-4.42
			C94.499,90.39,96.384,88.411,98.708,88.411"/>
		<path fill="#FFFFFF" d="M112.784,85.706c2.324,0,4.208,1.799,4.208,4.017c0,2.219-1.884,4.017-4.208,4.017
			s-4.209-1.798-4.209-4.017C108.575,87.504,110.46,85.706,112.784,85.706"/>
		<path fill="#FFFFFF" d="M124.695,83.084c1.861,0,3.369,1.603,3.369,3.58s-1.508,3.581-3.369,3.581s-3.369-1.604-3.369-3.581
			S122.834,83.084,124.695,83.084"/>
		<path fill="#FFFFFF" d="M135.141,80.589c1.648,0,2.985,1.415,2.985,3.161s-1.337,3.161-2.985,3.161
			c-1.649,0-2.986-1.415-2.986-3.161S133.491,80.589,135.141,80.589"/>
		<path fill="#FFFFFF" d="M145.408,78.964c1.08,0,1.955,0.922,1.955,2.061c0,1.139-0.875,2.062-1.955,2.062
			c-1.081,0-1.956-0.923-1.956-2.062C143.452,79.886,144.327,78.964,145.408,78.964"/>
	</g>
	<g>
		<path fill="#FFFFFF" d="M123.15,169.024c3.709,0,7.424,0,11.142,0v2.423c-2.512,0-5.028,0-7.544,0c0.044,1.838,0.049,3.68,0,5.515
			c2.241,0.054,4.753-0.119,6.621,1.35c1.802,1.482,2.078,4.04,1.936,6.212c-0.101,1.957-1.06,4.069-2.996,4.8
			c-2.913,1.109-6.146,0.711-9.13,0.126C123.167,182.641,123.203,175.831,123.15,169.024z M126.76,179.366
			c0.015,2.786,0.015,5.571,0,8.351c1.564,0,3.635,0.205,4.47-1.469c0.759-1.805,0.702-3.846-0.152-5.606
			C130.141,179.196,128.25,179.395,126.76,179.366z"/>
		<path fill="#FFFFFF" d="M138.745,175.179c2.422-0.61,5.043-0.864,7.429,0c1.479,0.568,2.222,2.18,2.229,3.691
			c0.046,3.606,0,7.211,0.024,10.813h-2.543l-0.437-0.854c-1.689,1.265-3.923,1.543-5.872,0.729
			c-1.574-0.727-2.159-2.584-2.119-4.203c-0.049-1.614,0.403-3.493,1.942-4.282c1.729-0.847,3.729-0.49,5.568-0.325
			c-0.214-1.212,0.097-2.912-1.212-3.577c-1.559-0.712-3.324-0.336-4.976-0.404C138.765,176.236,138.756,175.69,138.745,175.179z
			 M141.661,183.318c-0.95,1.244-0.868,3.434,0.541,4.311c0.854,0.56,1.836,0.059,2.702-0.199c0-1.614,0-3.23,0-4.825
			C143.813,182.713,142.435,182.346,141.661,183.318z"/>
		<path fill="#FFFFFF" d="M152.221,174.935h3.635v6.195h3.924c-0.028-2.063,0-4.126-0.02-6.189h3.612
			c-0.022,4.915-0.022,9.83,0,14.746c-1.212,0-2.422,0-3.608,0c0-2.1,0-4.2,0-6.3c-1.312,0-2.623,0-3.934,0
			c0.021,2.098,0,4.196,0,6.296h-3.614C152.247,184.769,152.25,179.852,152.221,174.935L152.221,174.935z"/>
		<path fill="#FFFFFF" d="M167.116,174.935h3.586c-0.02,2.021-0.042,4.039,0,6.059c2.484-0.944,1.89-4.442,3.949-5.874
			c1.143-0.809,2.596-0.434,3.876-0.316c0,0.477,0,0.958,0.029,1.434c-1.87,0.304-2.019,2.363-2.715,3.731
			c-0.313,0.808-1.032,1.36-1.711,1.869c2.104,0.785,2.422,3.082,2.898,4.975c0.117,0.923,1.07,1.187,1.777,1.546
			c-0.024,0.482-0.049,0.966-0.068,1.451c-1.647,0.275-3.784,0.403-4.781-1.211c-1.211-1.823-0.493-5.251-3.263-5.695
			c-0.028,2.262,0,4.522,0,6.789h-3.578C167.143,184.771,167.143,179.852,167.116,174.935z"/>
		<path fill="#FFFFFF" d="M108.758,175.453c2.181-1.313,4.846-0.807,7.209-0.312l0.06,1.616c-1.502,0.081-3.093-0.271-4.526,0.262
			c-1.672,1.051-1.616,3.323-1.688,5.068c0.057,1.824-0.064,4.127,1.551,5.362c1.525,0.764,3.317,0.347,4.961,0.436
			c0,0.521-0.027,1.046-0.039,1.572c-2.54,0.58-5.492,1.037-7.782-0.518c-2.074-1.579-2.305-4.441-2.289-6.834
			C106.23,179.718,106.598,176.902,108.758,175.453L108.758,175.453z"/>
		<path fill="#FFFFFF" d="M91.584,174.94h3.477c0.808,3.537,1.647,7.074,2.422,10.615c0.167,0.719,0.439,1.409,0.808,2.048
			c0.936-4.202,1.616-8.479,2.463-12.675h3.457c-0.989,5.07-1.89,10.155-2.863,15.23c-0.38,1.883-1.021,3.962-2.73,5.058
			c-1.699,0.995-3.804,0.66-5.588,0.087l0.048-1.551c1.09-0.081,2.297,0.194,3.303-0.348c0.99-0.806,1.187-2.135,1.615-3.262
			c-1.73-0.27-3.139-1.537-3.589-3.229C93.393,182.96,92.57,178.922,91.584,174.94z"/>
		<path fill="#FFFFFF" d="M80.654,170.353c2.604-1.853,5.98-1.323,8.984-1.614c0.041,0.54,0.077,1.077,0.113,1.614
			c-1.962,0.744-4.114,0.744-6.057,1.471c-1.66,0.738-1.772,2.737-1.987,4.291c2.129-0.911,4.871-0.902,6.614,0.784
			c1.656,1.672,1.769,4.203,1.749,6.418c-0.036,2.276-0.658,4.981-2.912,6.057c-2.676,1.21-6.674,0.835-8.109-2.061
			c-1.267-2.762-0.718-5.883-0.847-8.823C78.231,175.69,78.231,172.267,80.654,170.353z M81.816,177.993
			c0.129,2.826-0.404,5.782,0.533,8.517c0.287,0.997,1.417,1.902,2.459,1.369c1.393-0.856,1.51-2.71,1.647-4.172
			c0-1.825,0.165-3.974-1.163-5.42c-0.941-0.98-2.363-0.657-3.494-0.294H81.816z"/>
		<path fill="#FFFFFF" d="M67.077,175.051c1.803-0.637,3.777-0.581,5.54,0.154c1.842,0.895,2.638,2.981,2.856,4.896
			c0.246,2.245,0.227,4.607-0.578,6.743c-0.575,1.543-1.913,2.673-3.53,2.979c-2.188,0.435-4.901,0.143-6.278-1.825
			c-1.499-2.195-1.382-5.011-1.245-7.551C63.965,178.301,64.905,175.873,67.077,175.051z M69.148,176.665
			c-1.615,0.686-1.615,2.762-1.78,4.247c-0.061,2.108-0.207,4.442,0.86,6.332c0.808,1.345,2.863,0.808,3.23-0.627
			c0.783-2.49,0.699-5.213,0.263-7.764c-0.198-1.192-1.163-2.67-2.573-2.185V176.665z"/>
		<path fill="#FFFFFF" d="M50.598,174.932c3.375,0,6.75,0,10.124,0c-0.022,4.919-0.022,9.839,0,14.76c-1.204,0-2.407,0-3.61,0
			c0-4.168,0-8.334,0-12.519h-3.021c-0.267,2.863-0.267,5.747-0.573,8.61c-0.125,1.578-0.914,3.23-2.423,3.925
			c-1.034,0.487-2.196,0.177-3.274,0.072v-1.423c1.045-0.509,2.047-1.335,2.095-2.592C50.255,182.176,50.368,178.546,50.598,174.932
			z"/>
		<path fill="#FFFFFF" d="M38.807,189.683c0.028-6.892,0-13.78,0-20.674c3.42,0.028,6.864,0,10.269,0v2.422
			c-2.227,0-4.452,0-6.674,0c0.06,6.087,0,12.166,0.023,18.252C41.209,189.679,40.006,189.679,38.807,189.683z"/>
	</g>
</g>
</svg>
