<?xml version="1.0" encoding="utf-8"?>
<!DOCTYPE svg PUBLIC "-//W3C//DTD SVG 1.1//EN" "http://www.w3.org/Graphics/SVG/1.1/DTD/svg11.dtd">
<svg version="1.1" id="Layer_1" xmlns="http://www.w3.org/2000/svg" xmlns:xlink="http://www.w3.org/1999/xlink" x="0px" y="0px" width="216px" height="216px" viewBox="0 0 216 216" enable-background="new 0 0 216 216" xml:space="preserve">
<path fill-rule="evenodd" clip-rule="evenodd" fill="#EDEDEE" d="M205.199,216H10.8C4.86,216,0,211.14,0,205.199V10.8
	C0,4.86,4.86,0,10.8,0h194.399C211.141,0,216,4.86,216,10.8v194.399C216,211.14,211.141,216,205.199,216z"/>
<path fill-rule="evenodd" clip-rule="evenodd" fill="#FFFFFF" d="M22.982,191.509c0.588-0.005,1.175-0.012,1.762-0.019
	c0.911-0.01,1.943,0.016,2.847-0.057c0.329-0.049,0.66-0.159,0.963-0.29c0.33-0.143,0.625-0.376,0.875-0.63
	c0.325-0.326,0.553-0.809,0.709-1.236c0.28-0.766,0.351-1.703,0.351-2.51c0-0.959-0.111-2.092-0.546-2.963
	c-0.258-0.518-0.598-0.951-1.087-1.251c-0.82-0.226-2.467-0.305-3.287-0.361c-0.846-0.058-1.72-0.114-2.587-0.147V191.509z"/>
<path fill-rule="evenodd" clip-rule="evenodd" fill="#FFFFFF" d="M162.066,193.25c0.27-0.006,0.633-0.041,0.869-0.174
	c0.202-0.115,0.373-0.254,0.506-0.446c0.162-0.246,0.28-0.509,0.355-0.792c0.065-0.268,0.13-0.58,0.125-0.855l-0.001-0.045
	l0.001-0.047c0.005-0.258-0.062-0.566-0.123-0.817c-0.076-0.276-0.193-0.529-0.35-0.769c-0.137-0.189-0.309-0.332-0.514-0.447
	c-0.236-0.133-0.6-0.168-0.869-0.174c-0.271,0.006-0.635,0.041-0.872,0.174c-0.202,0.115-0.376,0.258-0.513,0.447
	c-0.155,0.239-0.273,0.492-0.349,0.77c-0.067,0.277-0.122,0.578-0.122,0.863c0,0.301,0.053,0.607,0.123,0.898
	c0.076,0.285,0.194,0.548,0.355,0.794c0.134,0.192,0.304,0.331,0.506,0.446C161.432,193.209,161.796,193.244,162.066,193.25z"/>
<path fill-rule="evenodd" clip-rule="evenodd" fill="#FFFFFF" d="M56.316,193.25c0.27-0.006,0.633-0.041,0.868-0.174
	c0.203-0.115,0.374-0.254,0.507-0.446c0.161-0.246,0.279-0.509,0.355-0.792c0.065-0.268,0.13-0.58,0.125-0.855l-0.001-0.045
	l0.001-0.047c0.005-0.258-0.062-0.566-0.124-0.817c-0.075-0.276-0.193-0.529-0.35-0.769c-0.136-0.189-0.309-0.332-0.513-0.447
	c-0.236-0.133-0.6-0.168-0.869-0.174c-0.271,0.006-0.635,0.041-0.872,0.174c-0.204,0.115-0.376,0.258-0.513,0.447
	c-0.156,0.239-0.273,0.492-0.349,0.77c-0.068,0.277-0.123,0.578-0.123,0.863c0,0.301,0.053,0.607,0.124,0.898
	c0.076,0.285,0.193,0.548,0.355,0.794c0.134,0.192,0.304,0.331,0.506,0.446C55.681,193.209,56.046,193.244,56.316,193.25z"/>
<path fill-rule="evenodd" clip-rule="evenodd" fill="#FFFFFF" d="M197.757,179.348c0.756-1.073,2.011-1.764,3.44-1.778
	c2.343-0.026,4.26,1.767,4.289,4.138c0.027,2.368-1.843,4.217-4.19,4.248c-0.681,0.008-1.324-0.139-1.896-0.407l-1.576,2.495
	c2.702,1.735,4.375,4.521,3.866,8.574c-0.834,6.658-7.318,9.01-13.2,9.023c-3.896,0.01-7.962-0.815-11.349-2.796l-1.881-1.099
	l3.984-8.414c-1.814-1.469-3.027-3.518-3.033-6.318c-0.004-1.567,0.231-2.898,0.664-4.027c-0.536,0.322-1.1,0.606-1.686,0.853
	l-0.707,0.296c0.431,0.88,0.768,1.801,1.009,2.755c0.345,1.356,0.505,2.749,0.505,4.147c0,1.41-0.16,2.81-0.512,4.169
	c-0.343,1.365-0.885,2.663-1.62,3.865c-0.758,1.235-1.724,2.313-2.864,3.216c-1.221,0.957-2.603,1.652-4.072,2.119
	c-1.649,0.535-3.396,0.738-5.135,0.746c-1.729-0.008-3.477-0.211-5.119-0.744c-1.473-0.471-2.859-1.164-4.071-2.121
	c-1.146-0.899-2.108-1.975-2.872-3.218c-0.137-0.223-0.266-0.448-0.389-0.678v6.437H136.43v-14.895c0-0.736-0.273-1.1-1.028-1.016
	c-0.195,0.021-0.714,0.108-0.987,0.257l-0.063,15.653h-12.904v-0.109h-11.329v0.061H97.123v-15.103c0-0.101-0.003-0.282-0.018-0.468
	c-0.295-0.055-0.613-0.092-0.783-0.093c-0.148-0.001-0.36-0.005-0.557,0.005c-0.031,0.071-0.056,0.14-0.071,0.182
	c-0.164,0.463-0.206,1.023-0.206,1.51v13.748l-12.794,0.27v-15.153c0-0.11-0.004-0.319-0.022-0.524
	c-0.081-0.013-0.159-0.023-0.228-0.029c-0.333,0.257-0.755,0.459-1.074,0.684c-0.086,0.383-0.112,0.801-0.112,1.176v13.797H67.831
	v-5.268c-0.71,1.053-1.578,1.98-2.581,2.775c-1.221,0.957-2.603,1.652-4.072,2.119c-1.649,0.535-3.395,0.738-5.135,0.746
	c-1.729-0.008-3.476-0.211-5.119-0.744c-1.473-0.471-2.859-1.164-4.071-2.121c-1.145-0.899-2.11-1.975-2.873-3.218
	c-0.734-1.202-1.276-2.499-1.618-3.856c-0.082-0.319-0.154-0.641-0.215-0.963c-0.39,0.994-0.873,1.949-1.452,2.852
	c-0.97,1.522-2.206,2.828-3.649,3.918c-1.55,1.16-3.308,1.991-5.159,2.551c-2.11,0.637-4.333,0.883-6.536,0.89H9.317v-34.833h16.039
	c2.051,0.008,4.143,0.197,6.132,0.724c1.688,0.448,3.33,1.106,4.803,2.053c1.32,0.85,2.503,1.88,3.48,3.105
	c0.913,1.136,1.656,2.387,2.208,3.733c0.523,1.27,0.903,2.592,1.13,3.941c0.065,0.378,0.121,0.758,0.167,1.139
	c0.208-0.44,0.441-0.87,0.698-1.289c0.754-1.232,1.717-2.299,2.847-3.191c1.218-0.973,2.61-1.66,4.084-2.129
	c1.652-0.537,3.406-0.739,5.149-0.747c1.735,0.008,3.488,0.212,5.139,0.745c1.478,0.471,2.867,1.159,4.074,2.123
	c0.996,0.781,1.852,1.695,2.565,2.74v-5.063h13.427v0.672c1.933-0.73,4.063-1.104,5.702-1.119c2.474-0.021,4.497,1,6.065,2.623
	c1.974-1.609,4.397-2.504,7.086-2.494c4.483,0.016,7.676,1.873,9.104,5.83v-5.155h0.715c-0.893-1.198-1.42-2.684-1.42-4.292
	c0-3.974,3.224-7.197,7.198-7.197s7.197,3.224,7.197,7.197c0,1.608-0.527,3.094-1.42,4.292h0.662v0.061h12.215v0.256
	c1.632-0.806,3.425-1.3,5.253-1.272c4.689,0.07,8.095,3.521,9.239,7.787c0.251-0.572,0.541-1.129,0.869-1.666
	c0.756-1.232,1.719-2.299,2.848-3.191c1.218-0.973,2.609-1.66,4.084-2.129c1.652-0.537,3.406-0.739,5.148-0.747
	c1.735,0.008,3.488,0.212,5.14,0.745c1.384,0.442,2.691,1.074,3.844,1.945l0.466-0.447c-1.665-1.328-2.717-3.372-2.717-5.633
	c0-3.974,3.225-7.197,7.197-7.197c3.975,0,7.199,3.224,7.199,7.197c0,0.329-0.023,0.657-0.068,0.982l-0.003,0.168l-0.063,0.255
	c-0.306,1.247-0.786,2.419-1.419,3.489c2.228-0.955,4.979-1.266,7.852-1.232C191.86,177.269,195.145,178.034,197.757,179.348z"/>
<path fill="#0A77A8" d="M178.34,200.793c2.979,1.742,6.627,2.48,10.145,2.472c5.124-0.011,10.213-1.884,10.848-6.943
	c0.637-5.075-3.229-7.552-8.586-8.089c-3.053-0.307-4.209-0.605-4.274-1.831c-0.067-1.247,1.826-1.243,2.862-1.249
	c1.67-0.006,4.596,1.613,6,2.383l3.133-4.96c-2.182-1.717-6.186-2.925-9.265-2.961c-7.106-0.082-10.628,1.905-10.615,7.394
	c0.011,4.302,4.14,6.394,9.122,7.043c1.115,0.145,4.816-0.256,4.77,1.666c-0.039,1.628-3.423,1.428-4.07,1.43
	c-2.059,0.006-5.592-1.242-7.324-2.146L178.34,200.793L178.34,200.793z M123.824,202.451h8.16l0.057-13.877
	c0-0.092,0.332-1.715,3.102-2.02c2.053-0.225,3.662,1.102,3.662,3.379v12.518h8.16v-12.93c0-0.749-0.027-1.568-0.103-2.469
	c-0.372-4.414-3.429-7.707-7.284-7.766c-3.936-0.059-7.319,3.083-7.594,3.586v-2.568h-8.16V202.451L123.824,202.451z
	 M111.59,180.244v22.1h8.18v-22.1H111.59L111.59,180.244z M78.882,182.498v-2.611h-8.675v22.517h8.675v-11.421
	c0-0.901,0.119-1.669,0.341-2.301c0.224-0.635,1.386-1.115,1.775-1.444c0.39-0.331,0.834-0.501,1.341-0.497
	c0.696,0.004,2.05,0.279,2.328,0.801c0.282,0.527,0.402,1.235,0.402,2.136v12.727l8.042-0.169v-11.422
	c0-0.9,0.119-1.668,0.341-2.299c0.225-0.636,0.52-1.116,0.909-1.445c0.39-0.33,1.475-0.331,1.974-0.328
	c0.697,0.004,2.484,0.279,2.762,0.801c0.281,0.527,0.401,1.235,0.401,2.136v12.727h8.243v-13.146
	c0.007-0.576-0.022-1.229-0.076-1.951c-0.053-0.722-0.16-1.469-0.333-2.244c-0.853-3.83-3.227-5.479-7.231-5.494
	c-2.997-0.01-5.534,1.381-7.311,3.797c-1.276-2.291-3.164-3.947-5.811-3.924C84.65,179.461,80.27,180.535,78.882,182.498
	L78.882,182.498L78.882,182.498z M56.048,202.777c1.653-0.008,3.117-0.217,4.4-0.633c1.288-0.408,2.395-0.99,3.333-1.727
	c0.931-0.736,1.7-1.6,2.307-2.589c0.601-0.981,1.053-2.053,1.343-3.206c0.297-1.153,0.438-2.352,0.438-3.586
	c0-1.229-0.142-2.418-0.432-3.563c-0.29-1.146-0.735-2.21-1.335-3.199c-0.607-0.981-1.37-1.838-2.308-2.574
	c-0.931-0.743-2.044-1.317-3.327-1.726c-1.289-0.417-2.76-0.625-4.419-0.633c-1.661,0.008-3.131,0.216-4.413,0.633
	c-1.289,0.408-2.403,0.982-3.334,1.726c-0.932,0.736-1.701,1.593-2.301,2.574c-0.607,0.989-1.052,2.054-1.343,3.199
	c-0.29,1.146-0.432,2.335-0.432,3.563c0,1.234,0.142,2.433,0.438,3.586c0.291,1.153,0.742,2.225,1.343,3.206
	c0.607,0.989,1.376,1.853,2.314,2.589c0.932,0.736,2.044,1.318,3.327,1.727C52.931,202.561,54.395,202.77,56.048,202.777
	L56.048,202.777z M56.316,195.625c-0.819-0.01-1.496-0.173-2.041-0.481c-0.546-0.31-0.978-0.704-1.307-1.187
	c-0.32-0.482-0.546-0.994-0.687-1.535c-0.131-0.529-0.197-1.021-0.197-1.484c0-0.443,0.066-0.926,0.197-1.457
	c0.141-0.529,0.367-1.031,0.687-1.514c0.329-0.473,0.761-0.869,1.307-1.178c0.545-0.309,1.222-0.472,2.041-0.481
	c0.818,0.01,1.495,0.173,2.04,0.481c0.545,0.309,0.979,0.705,1.307,1.178c0.32,0.482,0.546,0.984,0.687,1.514
	c0.131,0.531,0.207,1.014,0.198,1.457c0.009,0.463-0.066,0.955-0.198,1.484c-0.141,0.541-0.367,1.053-0.687,1.535
	c-0.329,0.482-0.762,0.877-1.307,1.187C57.811,195.452,57.134,195.615,56.316,195.625L56.316,195.625z M161.799,202.777
	c1.652-0.008,3.117-0.217,4.399-0.633c1.288-0.408,2.395-0.99,3.333-1.727c0.932-0.736,1.7-1.6,2.308-2.589
	c0.601-0.981,1.052-2.053,1.343-3.206c0.297-1.153,0.438-2.352,0.438-3.586c0-1.229-0.142-2.418-0.433-3.563
	c-0.289-1.146-0.734-2.21-1.336-3.199c-0.607-0.981-1.369-1.838-2.307-2.574c-0.932-0.743-2.045-1.317-3.327-1.726
	c-1.289-0.417-2.76-0.625-4.419-0.633c-1.661,0.008-3.133,0.216-4.414,0.633c-1.289,0.408-2.402,0.982-3.334,1.726
	c-0.931,0.736-1.7,1.593-2.301,2.574c-0.607,0.989-1.053,2.054-1.343,3.199s-0.432,2.335-0.432,3.563
	c0,1.234,0.142,2.433,0.438,3.586c0.291,1.153,0.742,2.225,1.343,3.206c0.607,0.989,1.376,1.853,2.315,2.589
	c0.931,0.736,2.043,1.318,3.326,1.727C158.68,202.561,160.145,202.77,161.799,202.777L161.799,202.777z M162.066,195.625
	c-0.818-0.01-1.496-0.173-2.041-0.481c-0.546-0.31-0.979-0.704-1.307-1.187c-0.32-0.482-0.546-0.994-0.688-1.535
	c-0.131-0.529-0.197-1.021-0.197-1.484c0-0.443,0.066-0.926,0.197-1.457c0.142-0.529,0.367-1.031,0.688-1.514
	c0.328-0.473,0.761-0.869,1.307-1.178c0.545-0.309,1.223-0.472,2.041-0.481c0.818,0.01,1.494,0.173,2.039,0.481
	c0.546,0.309,0.979,0.705,1.308,1.178c0.32,0.482,0.546,0.984,0.687,1.514c0.131,0.531,0.207,1.014,0.197,1.457
	c0.01,0.463-0.066,0.955-0.197,1.484c-0.141,0.541-0.366,1.053-0.687,1.535c-0.329,0.482-0.762,0.877-1.308,1.187
	C163.561,195.452,162.885,195.615,162.066,195.625L162.066,195.625z M20.606,193.891v-14.248h1.039c1.237,0,7.306,0.252,8.236,0.76
	c0.936,0.51,1.665,1.291,2.189,2.342c0.523,1.049,0.795,2.391,0.795,4.023c0,1.34-0.173,2.447-0.496,3.326
	c-0.323,0.881-0.741,1.576-1.252,2.093c-0.504,0.509-1.047,0.891-1.622,1.139c-0.566,0.244-1.111,0.399-1.622,0.468
	c-0.505,0.068-5.906,0.098-6.229,0.098H20.606L20.606,193.891z M11.693,202.084H25.35c2.193-0.008,4.141-0.271,5.852-0.789
	c1.703-0.515,3.176-1.245,4.418-2.176c1.244-0.938,2.27-2.034,3.073-3.295c0.803-1.254,1.396-2.629,1.787-4.111
	c0.392-1.49,0.58-3.043,0.58-4.67c0.007-1.131-0.091-2.285-0.293-3.459c-0.196-1.167-0.524-2.32-0.985-3.438
	c-0.46-1.125-1.082-2.178-1.865-3.151c-0.782-0.981-1.752-1.848-2.91-2.593c-1.16-0.745-2.535-1.332-4.126-1.755
	c-1.599-0.423-3.442-0.638-5.53-0.645H11.693V202.084L11.693,202.084z M115.707,168.755c2.662,0,4.821,2.159,4.821,4.821
	s-2.159,4.822-4.821,4.822s-4.821-2.16-4.821-4.822S113.045,168.755,115.707,168.755L115.707,168.755z M175.732,168.755
	c2.663,0,4.822,2.159,4.822,4.821c0,0.267-0.021,0.527-0.063,0.783l-0.001,0.057c-0.668,2.725-2.598,5.713-6.221,7.231
	c-0.324-0.36-0.703-0.694-1.029-1.057c0.656-0.63,1.359-1.331,1.865-2.233c-2.366-0.309-4.193-2.331-4.193-4.781
	C170.912,170.914,173.07,168.755,175.732,168.755L175.732,168.755z M201.223,179.945c0.986-0.012,1.875,0.684,1.889,1.789
	c0.012,1.105-0.857,1.832-1.844,1.844s-1.873-0.691-1.887-1.799C199.366,180.676,200.236,179.955,201.223,179.945L201.223,179.945z
	 M201.264,183.19c-0.764,0.008-1.378-0.587-1.389-1.417c-0.01-0.826,0.59-1.432,1.352-1.441c0.754-0.008,1.379,0.582,1.389,1.407
	C202.625,182.57,202.016,183.182,201.264,183.19L201.264,183.19L201.264,183.19z M200.508,180.746l0.025,2.033l0.403-0.004
	l-0.01-0.871l0.253-0.002l0.506,0.863l0.423-0.006l-0.556-0.881c0.301-0.027,0.532-0.176,0.527-0.551
	c-0.006-0.441-0.293-0.6-0.803-0.592L200.508,180.746L200.508,180.746L200.508,180.746z M200.924,181.59L200.924,181.59l0.359-0.004
	c0.227-0.004,0.397-0.039,0.394-0.287c-0.003-0.219-0.235-0.25-0.421-0.246l-0.34,0.004L200.924,181.59z"/>
<g>
	<path fill="#FFFFFF" d="M173.1,67.042c2.977-2.978,2.977-7.808,0-10.787L133.41,16.567c-2.977-2.978-7.805-2.978-10.785,0
		l-86.11,86.11c-2.979,2.977-2.978,7.804,0,10.785l39.688,39.688c2.978,2.978,7.807,2.978,10.784,0L173.1,67.042z"/>
	<path fill="#0A77A8" d="M126.865,107.359L84.923,149.3c-2.232,2.233-5.854,2.233-8.088,0l-36.818-36.817
		c-2.234-2.233-2.234-5.854,0-8.088l41.94-41.942L126.865,107.359z"/>
	<path fill="#E13B3F" d="M84.662,59.751l39.123-39.124c2.234-2.234,5.854-2.234,8.086-0.001l36.822,36.817
		c2.23,2.234,2.23,5.856,0,8.09l-39.127,39.125L84.662,59.751z"/>
	<path fill="#FFFFFF" d="M136.137,68.423c4.178-4.178,4.178-10.953,0-15.133c-4.179-4.18-10.953-4.18-15.133,0
		c-4.179,4.179-4.179,10.953,0,15.133C125.182,72.603,131.958,72.603,136.137,68.423L136.137,68.423z M105.009,117.394
		c4.18-4.179,4.18-10.953,0-15.133c-4.178-4.179-10.954-4.179-15.132,0c-4.179,4.18-4.179,10.954,0,15.133
		C94.056,121.574,100.831,121.574,105.009,117.394L105.009,117.394z M72.869,117.394c4.18-4.179,4.18-10.953,0-15.133
		c-4.179-4.179-10.953-4.179-15.132,0c-4.179,4.18-4.179,10.954,0,15.133C61.916,121.574,68.689,121.574,72.869,117.394z"/>
</g>
<path fill="#0A77A8" d="M105.104,152.936v-4.861h-1.735v-0.989h4.649v0.989h-1.732v4.861H105.104L105.104,152.936z M108.765,152.936
	v-5.851h1.769l1.061,3.991l1.049-3.991h1.773v5.851h-1.098v-4.605l-1.162,4.605h-1.137l-1.158-4.605v4.605H108.765z"/>
</svg>
