<?xml version="1.0" encoding="utf-8"?>
<!DOCTYPE svg PUBLIC "-//W3C//DTD SVG 1.1//EN" "http://www.w3.org/Graphics/SVG/1.1/DTD/svg11.dtd">
<svg version="1.1" id="Layer_1" xmlns="http://www.w3.org/2000/svg" xmlns:xlink="http://www.w3.org/1999/xlink" x="0px" y="0px" width="216px" height="216px" viewBox="0 0 216 216" enable-background="new 0 0 216 216" xml:space="preserve">
<g>
	<path fill="#003960" d="M0.322,0.483h216v214.564h-216V0.483"/>
	<path fill="#FFFFFF" d="M125.774,90.444c0,2.264-0.586,4.912-2.264,7.256h4.729V61.158h-15.118v14.936
		C121.288,78.621,125.774,83.875,125.774,90.444"/>
	<path fill="#FFFFFF" d="M99.621,74.781c3.396,0,6.589,0.808,9.015,1.435c-5.154-0.889-13.138,0.404-17.261,3.659V97.7h15.138
		V77.428c3.275,0.586,5.76,1.92,7.256,2.951V97.7h3.294c-3.092,3.497-8.873,5.619-13.865,4.851v0.728
		c14.39,1.132,20.474-5.7,20.474-13.38c0-9.035-8.469-14.33-17.16-15.401V61.158H91.375v13.501
		c-9.782,1.96-19.383,7.781-19.383,17.422c0,14.835,20.737,24.032,38.806,24.032c27.428,0,48.548-13.239,48.548-31.854
		c0-22.536-30.499-38.604-54.429-38.604c-27.427,0-47.618,17.422-47.618,36.037c0,9.641,5.417,17.705,12.248,23.344l0.505-0.344
		c-5.396-4.487-10.288-11.48-10.288-21.101c1.435-20.373,26.538-31.854,48.892-31.854c15.786,0,44.182,3.659,44.182,30.075
		c0,13.784-14.734,31.712-45.658,31.712c-15.846,0-28.134-8.489-28.134-20.677C79.046,82.279,87.313,74.781,99.621,74.781"/>
	<path fill="#FFFFFF" d="M41.028,169.147v-2.102h5.295v-17.988H32.155v17.988h5.437v2.102H18.068v-2.102h4.952v-36.644h-4.952
		v-2.082h19.524v2.082h-5.437v16.25h14.168v-16.25h-5.295v-2.082h19.322v2.082h-4.952v36.644h4.952v2.102H41.028"/>
	<path fill="#FFFFFF" d="M67.849,133.151v-4.831h8.853v4.831H67.849z M63.483,169.147v-2.102h4.77v-25.103h-4.77v-2.082h13.562
		v27.185h4.426v2.102H63.483"/>
	<path fill="#FFFFFF" d="M83.392,169.147v-2.102h4.891v-42.02h-4.891v-2.082h13.764v44.102h4.628v2.102H83.392"/>
	<path fill="#FFFFFF" d="M115.588,169.147c-4.851,0-7.458-2.485-7.458-6.326v-20.878h-4.77v-2.082h4.77V128.26
		c2.688,0,5.498,0.061,8.266,0v11.602h6.832v2.082h-6.832v25.103h6.974v2.102H115.588"/>
	<path fill="#FFFFFF" d="M156.598,160.336c-1.011,2.769-5.175,9.54-15.301,9.54c-11.277,0-17.058-7.722-17.058-15.584
		c0-10.873,9.661-15.36,16.855-15.36c6.367,0,15.624,3.82,16.372,14.896C157.608,155.99,157.406,158.335,156.598,160.336z
		 M146.997,144.57c-1.152-2.546-3.234-3.698-5.982-3.698c-6.913,0-7.034,7.114-7.034,13.299c0,8.327,0.728,9.803,1.273,10.813
		c0.869,1.678,2.749,3.214,5.841,3.214c6.913,0,6.913-7.458,6.832-14.31C147.866,146.45,147.401,145.5,146.997,144.57"/>
	<path fill="#FFFFFF" d="M181.134,169.147v-2.102h3.881v-17.24c0-3.901,0-7.721-4.285-7.721c-2.425,0-6.387,2.405-7.316,6.387
		c-0.344,1.192-0.282,2.466-0.282,5.699v12.875h4.446v2.102h-18.009v-2.102h4.77v-25.103h-4.77v-2.082h13.563v4.446
		c1.475-1.879,2.688-3.233,5.578-4.365c2.081-0.89,3.961-1.092,5.295-1.092c0.546,0,2.163,0,4.043,0.546
		c5.639,1.678,5.901,5.982,5.901,9.075v18.574h4.628v2.102H181.134"/>
	<path fill="#FFFFFF" d="M150.413,110.898h-1.436v-0.525h3.577v0.525h-1.435v5.194h-0.707V110.898z M156.577,115.042h0.021
		l1.778-4.669h0.89v5.72h-0.688v-4.305h-0.021l-1.678,4.305h-0.626l-1.738-4.305h-0.021v4.305h-0.687v-5.72h0.97L156.577,115.042"/>
</g>

</svg>
