<?xml version="1.0" encoding="utf-8"?>
<!DOCTYPE svg PUBLIC "-//W3C//DTD SVG 1.1//EN" "http://www.w3.org/Graphics/SVG/1.1/DTD/svg11.dtd">
<svg version="1.1" id="Layer_1" xmlns="http://www.w3.org/2000/svg" xmlns:xlink="http://www.w3.org/1999/xlink" x="0px" y="0px" width="216px" height="216px" viewBox="0 0 216 216" enable-background="new 0 0 216 216" xml:space="preserve">
<path fill="#FFFFFF" d="M0.122,0.122h216v216h-216V0.122z"/>
<path fill="#255398" d="M187.067,195.779c0.06,0,0.118,0,0.118,0.176l1.228,4.149c0.058,0.292-0.06,0.409-0.117,0.467
	c-0.175,0-0.234,0.06-0.234,0.177c0,0.175,0.175,0.175,0.409,0.175c0.915,0.043,1.832,0.063,2.749,0.059
	c0.583,0,0.7-0.059,0.7-0.233c0-0.117-0.06-0.177-0.175-0.177c-0.234,0-0.409,0-0.644-0.058c-0.35-0.059-0.7-0.409-1.286-2.163
	c-0.875-2.981-3.215-11.165-3.566-12.218c-0.175-0.467-0.231-0.642-0.35-0.642c-0.175,0-0.293,0.232-0.408,0.817v3.273
	c0.059,0,0.059,0.116,0.059,0.175l1.344,4.91c0,0.06,0,0.117-0.06,0.117h-1.343v0.993h1.576V195.779L187.067,195.779z
	 M185.489,186.31l-3.623,12.51c-0.351,0.936-0.584,1.637-1.287,1.752h-0.466c-0.118,0-0.175,0.06-0.175,0.177
	c0,0.175,0.116,0.233,0.35,0.233c0.76,0,1.519-0.059,1.694-0.059c0.468,0,1.052,0.059,1.521,0.059c0.116,0,0.291-0.059,0.291-0.233
	c0-0.117-0.057-0.177-0.291-0.177h-0.175c-0.469,0-0.584-0.232-0.584-0.583c0-0.233,0.058-0.76,0.175-1.169l0.818-2.864
	c0.057-0.176,0.057-0.176,0.116-0.176h1.638v-0.994h-1.344c-0.06,0-0.06-0.059-0.06-0.116l1.344-4.911
	c0-0.058,0.06-0.175,0.06-0.175v-3.273H185.489L185.489,186.31z M98.389,189.934h0.058c0.233,0.35,1.812,2.806,3.449,4.969
	c1.461,2.047,3.273,4.678,4.208,5.847c0.176,0.234,0.351,0.467,0.468,0.467s0.233-0.175,0.233-0.643l0.117-12.567
	c0.058-1.053,0.175-1.52,0.585-1.638c0.175-0.059,0.233-0.059,0.408-0.059c0.117,0,0.176-0.059,0.176-0.176
	c0-0.175-0.059-0.175-0.233-0.175c-0.76,0-1.285,0.06-1.461,0.06c-0.233,0-0.935-0.06-1.696-0.06c-0.292,0-0.409,0-0.409,0.175
	c0,0.117,0.058,0.176,0.176,0.176c0.292,0,0.584,0,0.876,0.117c0.292,0.232,0.409,0.584,0.409,1.812l0.176,8.886h-0.117
	c-0.176-0.293-2.163-3.157-3.098-4.502c-2.104-2.923-4.326-6.139-4.501-6.373c-0.233-0.408-0.35-0.642-0.527-0.642
	c-0.117,0-0.233,0.233-0.233,0.642l-0.117,11.81c0,1.695-0.058,2.279-0.409,2.454c-0.234,0.058-0.467,0.058-0.643,0.058
	c-0.117,0-0.292,0.06-0.292,0.176c0,0.234,0.175,0.234,0.351,0.234c0.76,0,1.461-0.06,1.578-0.06c0.234,0,0.818,0.06,1.812,0.06
	c0.176,0,0.292-0.06,0.292-0.234c0-0.116-0.059-0.176-0.175-0.176c-0.292,0-0.526,0-0.759-0.116
	c-0.351-0.116-0.527-0.644-0.527-2.164L98.389,189.934L98.389,189.934z M114.231,195.253c0,1.753,0,3.332-0.06,4.15
	c-0.06,0.583-0.117,1.052-0.468,1.11c-0.117,0.058-0.292,0.058-0.467,0.058c-0.234,0-0.293,0.06-0.293,0.177
	c0,0.175,0.117,0.233,0.35,0.233c0.527,0,1.462-0.059,1.812-0.059c0.409,0,1.286,0.059,2.221,0.059c0.234,0,0.35-0.059,0.35-0.233
	c0-0.117-0.057-0.177-0.291-0.177c-0.175,0-0.469,0-0.76-0.058c-0.352-0.059-0.469-0.527-0.469-1.11
	c-0.116-0.818-0.116-2.397-0.116-4.15v-8.185l1.81,0.059c1.287,0,1.755,0.584,1.755,1.111v0.175c0,0.293,0.058,0.468,0.175,0.468
	c0.06,0,0.117-0.175,0.117-0.351v-2.279c0-0.293,0-0.468-0.058-0.468c-0.117,0-0.527,0.234-1.403,0.234h-5.729
	c-0.525,0-1.109-0.06-1.46-0.06c-0.411-0.116-0.527-0.292-0.643-0.292c-0.06,0-0.118,0.116-0.176,0.408
	c0,0.117-0.293,1.93-0.293,2.279c0,0.175,0,0.293,0.116,0.293c0.118,0,0.177-0.116,0.177-0.233c0.058-0.175,0.117-0.409,0.232-0.702
	c0.175-0.468,0.586-0.525,1.403-0.584l2.165-0.059v8.185H114.231L114.231,195.253z M124.228,195.253c0,1.871,0,3.391-0.06,4.326
	c0,0.525-0.117,0.876-0.409,0.935c-0.116,0.058-0.291,0.058-0.525,0.058c-0.175,0-0.234,0.06-0.234,0.177
	c0,0.175,0.06,0.233,0.291,0.233c0.586,0,1.521-0.059,1.813-0.059c0.409,0,1.286,0.059,2.34,0.059c0.116,0,0.234-0.059,0.234-0.233
	c0-0.117-0.06-0.177-0.234-0.177c-0.234,0-0.528,0-0.703-0.058c-0.466-0.059-0.584-0.468-0.641-0.935v-7.833v-4.269
	c0-0.644,0.116-1.051,0.466-1.11c0.234-0.059,0.35-0.059,0.469-0.059c0.175,0,0.234-0.06,0.234-0.176s-0.118-0.175-0.294-0.175
	c-0.584,0-1.403,0.06-1.812,0.06c-0.35,0-1.284-0.06-1.813-0.06c-0.291,0-0.409,0.06-0.409,0.175c0,0.116,0.118,0.176,0.294,0.176
	s0.35,0,0.466,0.059c0.353,0.116,0.469,0.467,0.528,1.11L124.228,195.253L124.228,195.253L124.228,195.253z M132.526,189.934h0.06
	c0.233,0.35,1.812,2.806,3.449,4.969c1.521,2.047,3.333,4.678,4.268,5.847c0.175,0.234,0.35,0.467,0.469,0.467
	c0.116,0,0.232-0.175,0.232-0.643l0.175-12.567c0-1.053,0.117-1.52,0.527-1.638c0.175-0.059,0.291-0.059,0.409-0.059
	c0.175,0,0.291-0.059,0.291-0.176c0-0.175-0.175-0.175-0.35-0.175c-0.76,0-1.284,0.06-1.462,0.06c-0.232,0-0.935-0.06-1.694-0.06
	c-0.294,0-0.409,0-0.409,0.175c0,0.117,0.06,0.176,0.234,0.176c0.234,0,0.525,0,0.76,0.117c0.35,0.232,0.468,0.584,0.468,1.812
	l0.175,8.886h-0.117c-0.175-0.293-2.163-3.157-3.155-4.502c-2.104-2.923-4.269-6.139-4.503-6.373
	c-0.232-0.408-0.35-0.642-0.525-0.642s-0.234,0.233-0.234,0.642l-0.116,11.81c0,1.695-0.06,2.279-0.409,2.454
	c-0.234,0.058-0.469,0.058-0.644,0.058c-0.116,0-0.293,0.06-0.293,0.176c0,0.234,0.177,0.234,0.352,0.234
	c0.76,0,1.46-0.06,1.578-0.06c0.233,0,0.817,0.06,1.812,0.06c0.175,0,0.291-0.06,0.291-0.234c0-0.116-0.057-0.176-0.175-0.176
	c-0.291,0-0.525,0-0.76-0.116c-0.35-0.116-0.525-0.644-0.525-2.164L132.526,189.934L132.526,189.934z M146.559,195.253
	c0,1.753,0,3.332-0.06,4.15c-0.06,0.583-0.117,1.052-0.409,1.11c-0.116,0.058-0.35,0.058-0.525,0.058
	c-0.178,0-0.234,0.06-0.234,0.177c0,0.175,0.116,0.233,0.291,0.233c0.586,0,1.463-0.059,1.872-0.059
	c0.817,0,2.571,0.116,4.736,0.116c0.584,0,0.7,0,0.875-0.526c0.06-0.409,0.175-1.813,0.175-2.222c0-0.175,0-0.35-0.116-0.35
	c-0.175,0-0.175,0.117-0.234,0.293c-0.06,0.817-0.234,1.285-0.644,1.461c-0.35,0.234-1.752,0.234-2.162,0.234
	c-1.463,0-1.697-0.293-1.697-1.638c-0.057-0.583,0-2.454,0-3.039v-1.637c0-0.116,0-0.175,0.06-0.175c0.35,0,2.632,0,2.865,0.059
	c0.526,0.058,0.76,0.408,0.818,0.761c0,0.291,0,0.525,0.06,0.7c0,0.116,0,0.176,0.175,0.176c0.116,0,0.116-0.234,0.116-0.351
	s0-0.935,0.06-1.344c0-0.994,0.058-1.345,0.058-1.462c0-0.118,0-0.117-0.058-0.117c-0.06,0-0.117,0.06-0.294,0.234
	c-0.116,0.175-0.291,0.293-0.7,0.351h-3.1c-0.06,0-0.06-0.06-0.06-0.234v-5.026c0-0.116,0-0.175,0.06-0.175
	c0.35,0,2.632,0,2.865,0.059c0.76,0.116,0.878,0.408,0.935,0.701c0.175,0.234,0.175,0.584,0.175,0.701c0,0.175,0,0.351,0.118,0.351
	c0.057,0,0.116-0.176,0.116-0.293c0.06-0.175,0.06-1.052,0.06-1.285c0.06-0.935,0.116-1.111,0.116-1.286
	c0-0.116,0-0.175-0.057-0.175c-0.06,0-0.177,0.059-0.234,0.059c-0.117,0.116-0.35,0.116-0.644,0.176h-4.384
	c-0.468,0-1.343-0.06-2.105-0.06c-0.175,0-0.35,0.06-0.35,0.175c0,0.117,0.06,0.177,0.292,0.177c0.177,0,0.408,0,0.586,0.058
	c0.409,0.117,0.525,0.468,0.525,1.11c0.06,0.643,0.06,1.169,0.06,4.269L146.559,195.253L146.559,195.253L146.559,195.253z
	 M158.541,189.934h0.059c0.292,0.35,1.869,2.806,3.449,4.969c1.519,2.047,3.391,4.678,4.267,5.847
	c0.177,0.234,0.352,0.467,0.527,0.467c0.117,0,0.175-0.175,0.175-0.643l0.117-12.567c0.059-1.053,0.117-1.52,0.586-1.638
	c0.116-0.059,0.231-0.059,0.466-0.059c0.116,0,0.234-0.059,0.234-0.176c0-0.175-0.175-0.175-0.35-0.175
	c-0.702,0-1.229,0.06-1.403,0.06c-0.352,0-1.052-0.06-1.755-0.06c-0.231,0-0.35,0-0.35,0.175c0,0.117,0.06,0.176,0.175,0.176
	c0.175,0,0.587,0,0.76,0.117c0.353,0.232,0.528,0.584,0.528,1.812l0.116,8.886h-0.057c-0.294-0.293-2.165-3.157-3.215-4.502
	c-2.106-2.923-4.327-6.139-4.443-6.373c-0.234-0.408-0.409-0.642-0.584-0.642c-0.118,0-0.177,0.233-0.177,0.642l-0.117,11.81
	c0,1.695-0.06,2.279-0.468,2.454c-0.175,0.058-0.409,0.058-0.642,0.058c-0.117,0-0.233,0.06-0.233,0.176
	c0,0.234,0.116,0.234,0.291,0.234c0.762,0,1.462-0.06,1.637-0.06c0.234,0,0.818,0.06,1.753,0.06c0.177,0,0.352-0.06,0.352-0.234
	c0-0.116-0.117-0.176-0.293-0.176c-0.177,0-0.526,0-0.701-0.116c-0.293-0.116-0.527-0.644-0.527-2.164L158.541,189.934
	L158.541,189.934z M174.383,195.253c0,1.753,0,3.332-0.117,4.15c0,0.583-0.117,1.052-0.35,1.11
	c-0.117,0.058-0.352,0.058-0.527,0.058s-0.234,0.06-0.234,0.177c0,0.175,0.117,0.233,0.294,0.233c0.583,0,1.462-0.059,1.812-0.059
	c0.409,0,1.286,0.059,2.28,0.059c0.117,0,0.232-0.059,0.232-0.233c0-0.117-0.058-0.177-0.175-0.177c-0.232,0-0.584,0-0.76-0.058
	c-0.467-0.059-0.525-0.527-0.584-1.11c-0.06-0.818-0.06-2.397-0.06-4.15v-8.185l1.871,0.059c1.229,0,1.638,0.584,1.697,1.111v0.175
	c0,0.293,0.057,0.468,0.116,0.468c0.116,0,0.116-0.175,0.116-0.351c0-0.526,0.06-1.871,0.06-2.279c0-0.293,0-0.468-0.116-0.468
	c-0.118,0-0.409,0.234-1.403,0.234h-5.73c-0.409,0-0.994-0.06-1.46-0.06c-0.294-0.116-0.528-0.292-0.586-0.292
	c-0.117,0-0.117,0.116-0.175,0.408c-0.058,0.117-0.292,1.93-0.292,2.279c0,0.175,0.058,0.293,0.117,0.293
	c0.117,0,0.117-0.116,0.175-0.233c0-0.175,0.059-0.409,0.233-0.702c0.234-0.468,0.528-0.525,1.403-0.584l2.163-0.059
	L174.383,195.253L174.383,195.253L174.383,195.253z M196.714,191.746c0-3.1,0-3.625,0.059-4.269c0-0.644,0.117-1.051,0.526-1.11
	c0.175-0.059,0.352-0.059,0.527-0.059c0.232,0,0.291-0.06,0.291-0.176s-0.116-0.175-0.35-0.175c-0.583,0-1.577,0.06-1.986,0.06
	c-0.35,0-1.229-0.06-1.931-0.06c-0.232,0-0.35,0.06-0.35,0.175c0,0.116,0.06,0.176,0.293,0.176c0.175,0,0.35,0,0.467,0.059
	c0.468,0.116,0.586,0.467,0.586,1.11c0.057,0.643,0.057,1.169,0.057,4.269v3.507c0,1.753,0,3.332-0.057,4.15
	c-0.06,0.583-0.118,1.052-0.411,1.11c-0.175,0.058-0.35,0.058-0.525,0.058c-0.177,0-0.292,0.06-0.292,0.177
	c0,0.175,0.175,0.233,0.35,0.233c0.584,0,1.463-0.059,1.753-0.059c1.229,0,2.163,0.116,4.269,0.116c0.76,0,0.877-0.116,0.935-0.584
	c0.117-0.584,0.175-2.046,0.175-2.221c0-0.293,0-0.409-0.058-0.409c-0.117,0-0.175,0.116-0.175,0.35c0,0.351-0.234,0.936-0.409,1.17
	c-0.409,0.526-0.877,0.526-1.637,0.526c-1.169,0-1.521-0.116-1.813-0.351c-0.293-0.409-0.293-1.812-0.293-4.268L196.714,191.746
	L196.714,191.746L196.714,191.746z M87.866,200.281c0.994,0,3.391-0.701,3.391-6.43c0-4.269-1.696-6.957-3.917-7.19v-0.994h0.058
	c3.624,0,5.904,2.864,5.904,7.424s-2.279,8.125-5.962,8.125v-0.994C87.516,200.222,87.691,200.281,87.866,200.281z M87.341,186.659
	H86.99c-1.696,0-3.566,1.229-3.566,6.139c0,3.858,1.461,7.016,3.917,7.424v0.994h-0.059c-4.208,0-5.846-4.267-5.846-7.774
	c0-3.333,1.637-7.718,5.904-7.774V186.659L87.341,186.659z M11.113,194.376c0,2.28,0,4.034-0.058,4.97
	c-0.059,0.643-0.175,1.051-0.527,1.11c-0.164,0.079-0.344,0.119-0.525,0.117c-0.234,0-0.292,0.059-0.292,0.176
	c0,0.175,0.058,0.234,0.351,0.234c0.643,0,1.695-0.06,2.104-0.06s1.461,0.06,2.514,0.06c0.233,0,0.351-0.06,0.351-0.234
	c0-0.117-0.058-0.176-0.292-0.176s-0.643-0.059-0.818-0.117c-0.527-0.06-0.644-0.526-0.702-1.11
	c-0.059-0.936-0.059-2.688-0.059-4.97v-3.916c0-3.448,0-4.092,0.059-4.852c0-0.761,0.117-1.17,0.583-1.286
	c0.176-0.059,0.293-0.059,0.527-0.059c0.176,0,0.234-0.059,0.234-0.234c0-0.116-0.117-0.116-0.292-0.116
	c-0.643,0-1.636,0.06-2.046,0.06c-0.467,0-1.52-0.06-2.163-0.06c-0.292,0-0.409,0-0.409,0.116c0,0.176,0.117,0.234,0.292,0.234
	c0.176,0,0.409,0,0.584,0.059c0.351,0.116,0.527,0.526,0.527,1.286c0.058,0.76,0.058,1.403,0.058,4.852V194.376L11.113,194.376z
	 M19.999,189.934h0.058c0.234,0.35,1.812,2.806,3.449,4.969c1.52,2.047,3.333,4.678,4.268,5.847
	c0.176,0.234,0.292,0.467,0.467,0.467c0.117,0,0.233-0.175,0.233-0.643l0.117-12.567c0-1.053,0.116-1.52,0.583-1.638
	c0.117-0.059,0.234-0.059,0.409-0.059c0.117,0,0.292-0.059,0.292-0.176c0-0.175-0.233-0.175-0.409-0.175
	c-0.701,0-1.228,0.06-1.403,0.06c-0.292,0-0.994-0.06-1.695-0.06c-0.292,0-0.409,0-0.409,0.175c0,0.117,0,0.176,0.176,0.176
	c0.233,0,0.584,0,0.76,0.117c0.409,0.232,0.526,0.584,0.526,1.812l0.116,8.886h-0.058c-0.233-0.293-2.163-3.157-3.157-4.502
	c-2.104-2.923-4.324-6.139-4.442-6.373c-0.292-0.408-0.409-0.642-0.584-0.642c-0.117,0-0.233,0.233-0.233,0.642l-0.117,11.81
	c0,1.695-0.058,2.279-0.409,2.454c-0.233,0.058-0.467,0.058-0.643,0.058c-0.233,0-0.292,0.06-0.292,0.176
	c0,0.234,0.175,0.234,0.351,0.234c0.76,0,1.461-0.06,1.578-0.06c0.234,0,0.818,0.06,1.812,0.06c0.176,0,0.292-0.06,0.292-0.234
	c0-0.116-0.059-0.176-0.233-0.176c-0.233,0-0.525,0-0.76-0.116c-0.292-0.116-0.467-0.644-0.467-2.164L19.999,189.934L19.999,189.934
	z M35.781,195.253c0,1.753,0,3.332-0.058,4.15c0,0.583-0.117,1.052-0.409,1.11c-0.116,0.058-0.292,0.058-0.526,0.058
	c-0.175,0-0.233,0.06-0.233,0.177c0,0.175,0.117,0.233,0.233,0.233c0.643,0,1.579-0.059,1.87-0.059c0.467,0,1.345,0.059,2.28,0.059
	c0.117,0,0.292-0.059,0.292-0.233c0-0.117-0.058-0.177-0.233-0.177c-0.234,0-0.527,0-0.76-0.058
	c-0.409-0.059-0.467-0.527-0.527-1.11c-0.116-0.818-0.116-2.397-0.116-4.15v-8.185l1.87,0.059c1.285,0,1.636,0.584,1.695,1.111
	v0.175c0,0.293,0,0.468,0.175,0.468c0.117,0,0.117-0.175,0.117-0.351c0-0.526,0.058-1.871,0.058-2.279c0-0.293,0-0.468-0.116-0.468
	c-0.117,0-0.468,0.234-1.403,0.234h-5.729c-0.467,0-1.052-0.06-1.461-0.06c-0.351-0.116-0.527-0.292-0.584-0.292
	c-0.117,0-0.117,0.116-0.175,0.408c-0.117,0.117-0.351,1.93-0.351,2.279c0,0.175,0.059,0.293,0.116,0.293
	c0.059,0,0.117-0.116,0.234-0.233c0-0.175,0.058-0.409,0.175-0.702c0.233-0.468,0.584-0.525,1.461-0.584l2.104-0.059v8.185H35.781
	L35.781,195.253z M45.134,195.253c0,1.753,0,3.332-0.058,4.15c-0.059,0.583-0.117,1.052-0.467,1.11
	c-0.118,0.058-0.292,0.058-0.468,0.058c-0.233,0-0.293,0.06-0.293,0.177c0,0.175,0.117,0.233,0.351,0.233
	c0.525,0,1.461-0.059,1.812-0.059c0.818,0,2.631,0.116,4.794,0.116c0.583,0,0.701,0,0.818-0.526
	c0.058-0.409,0.175-1.813,0.175-2.222c0-0.175,0-0.35-0.117-0.35c-0.116,0-0.116,0.117-0.176,0.293
	c-0.058,0.817-0.234,1.285-0.643,1.461c-0.409,0.234-1.754,0.234-2.163,0.234c-1.462,0-1.695-0.293-1.695-1.638
	c-0.117-0.583,0-2.454,0-3.039v-1.637c0-0.116,0-0.175,0.058-0.175c0.351,0,2.572,0,2.864,0.059
	c0.412,0.044,0.745,0.354,0.818,0.761c0,0.291,0,0.525,0.058,0.7c0,0.116,0,0.176,0.117,0.176c0.116,0,0.116-0.234,0.116-0.351
	s0-0.935,0.059-1.344c0-0.994,0.175-1.345,0.175-1.462c0-0.118-0.117-0.117-0.175-0.117c-0.059,0-0.117,0.06-0.234,0.234
	c-0.117,0.175-0.292,0.293-0.7,0.351H47.06c-0.058,0-0.058-0.06-0.058-0.234v-5.026c0-0.116,0-0.175,0.058-0.175
	c0.292,0,2.572,0,2.864,0.059c0.76,0.116,0.877,0.408,0.994,0.701c0.058,0.234,0.058,0.584,0.058,0.701c0,0.175,0,0.351,0.117,0.351
	c0.175,0,0.175-0.176,0.175-0.293c0.059-0.175,0.059-1.052,0.059-1.285c0.059-0.935,0.117-1.111,0.117-1.286
	c0-0.116,0-0.175-0.058-0.175c-0.059,0-0.234,0.059-0.292,0.059c-0.117,0.116-0.292,0.116-0.644,0.176h-4.385
	c-0.409,0-1.345-0.06-2.104-0.06c-0.175,0-0.292,0.06-0.292,0.175c0,0.117,0.06,0.177,0.234,0.177c0.233,0,0.467,0,0.584,0.058
	c0.467,0.117,0.585,0.468,0.643,1.11v7.773H45.134L45.134,195.253z M59.514,194.845l0.059,0.058
	c0.233,0.351,0.818,1.638,1.403,2.748c0.818,1.52,1.403,2.454,1.987,2.921c0.409,0.234,0.76,0.41,1.578,0.41h1.345
	c0.176,0,0.351-0.059,0.351-0.233c0-0.117-0.117-0.177-0.234-0.177s-0.233,0-0.351-0.058c-0.292-0.059-0.818-0.175-1.696-1.344
	c-0.818-1.229-1.812-2.982-3.098-5.204c1.461-1.578,1.928-2.98,1.928-4.443c0-1.344-0.583-2.337-1.052-2.688
	c-0.643-0.642-1.403-0.876-2.221-0.876v1.11c0.701,0.35,1.52,1.345,1.52,3.449c0,1.578-0.409,2.572-0.877,2.98
	c-0.175,0.176-0.351,0.293-0.643,0.293v1.054H59.514L59.514,194.845z M56.241,195.253c0,1.753,0,3.332-0.117,4.15
	c-0.058,0.583-0.117,1.052-0.409,1.11c-0.116,0.058-0.292,0.058-0.526,0.058c-0.175,0-0.233,0.06-0.233,0.177
	c0,0.175,0.117,0.233,0.292,0.233c0.584,0,1.461-0.059,1.812-0.059c0.175,0,1.227,0.059,2.104,0.059
	c0.175,0,0.292-0.059,0.292-0.233c0-0.117-0.058-0.177-0.176-0.177c-0.176,0-0.525,0-0.702-0.058
	c-0.467-0.059-0.526-0.527-0.585-1.11c-0.058-0.818-0.058-2.397-0.058-4.268v-0.234c0-0.116,0.058-0.175,0.117-0.175l1.286,0.059
	c0.059,0,0.059,0,0.175,0.06v-1.053c-0.116,0.06-0.233,0.06-0.35,0.06c-0.351,0-0.76-0.06-1.111-0.234
	c-0.117-0.06-0.117-0.116-0.117-0.351v-6.079c0-0.116,0-0.175,0.117-0.234c0.116-0.059,0.409-0.059,0.76-0.059
	c0.234,0,0.467,0.059,0.701,0.175v-1.11h-0.409c-0.467,0-1.578,0.06-2.045,0.06c-0.351,0-1.228-0.06-1.988-0.06
	c-0.176,0-0.351,0.06-0.351,0.175c0,0.117,0.117,0.176,0.292,0.176c0.175,0,0.409,0,0.583,0.059c0.409,0.116,0.527,0.468,0.644,1.11
	V195.253z M74.948,201.158c0.994,0,2.279-0.117,2.922-0.527c0.292-0.116,0.351-0.234,0.467-0.643c0.175-0.76,0.35-2.631,0.35-2.923
	c0-0.175-0.058-0.293-0.116-0.293c-0.176,0-0.176,0.06-0.233,0.409c-0.117,0.409-0.292,1.053-0.584,1.463
	c-0.643,1.051-1.519,1.228-2.981,1.228c-2.279,0-5.26-2.631-5.26-7.833c0-2.163,0.351-4.268,1.52-5.729
	c0.702-0.877,1.695-1.403,3.157-1.403c1.52,0,2.806,0.643,3.274,1.403c0.467,0.584,0.642,1.344,0.7,2.046
	c0,0.292,0,0.468,0.176,0.468c0.117,0,0.175-0.176,0.175-0.468c0.059-0.468,0.059-1.638,0.059-2.397
	c0.058-0.817,0.058-1.052,0.058-1.228c0-0.117-0.058-0.293-0.234-0.293c-0.467-0.059-1.051-0.233-1.696-0.351
	c-0.76-0.116-1.345-0.233-2.337-0.233c-2.455,0-4.092,0.877-5.204,2.339c-1.636,1.987-1.987,4.559-1.987,6.021
	c0,2.163,0.467,4.677,2.046,6.606C70.739,200.515,72.668,201.158,74.948,201.158L74.948,201.158z M204.78,199.813l0.234,0.526h0.525
	l-0.525-0.818c0.291-0.116,0.525-0.232,0.525-0.584c0-0.467-0.291-0.583-0.76-0.583v0.292c0.117,0,0.35,0.059,0.35,0.293
	c0,0.175-0.175,0.233-0.35,0.233V199.813L204.78,199.813z M204.78,201.216v-0.467c0.644,0,1.287-0.584,1.287-1.403
	c0.023-0.75-0.539-1.391-1.287-1.462v-0.35c0.935,0,1.813,0.642,1.813,1.812C206.593,200.515,205.715,201.216,204.78,201.216
	L204.78,201.216z M204.43,199.521h0.175l0.175,0.293v-0.643h-0.35v-0.526h0.351v-0.293h-0.818v1.987h0.468V199.521L204.43,199.521z
	 M204.78,197.534v0.35h-0.059c-0.76,0-1.344,0.585-1.344,1.462s0.584,1.403,1.344,1.403h0.059v0.467h-0.059
	c-0.994,0-1.929-0.701-1.929-1.87c0-1.17,0.935-1.812,1.929-1.812H204.78z"/>
<g>
	<path fill="#947C53" d="M59.624,87.458c0-41.389,36.373-59.729,45.937-68.04c9.56,8.31,45.624,26.651,45.624,68.04
		c0,41.701-36.063,60.047-45.624,68.04C95.997,147.505,59.624,129.159,59.624,87.458L59.624,87.458z"/>
	<g>
		<path fill="#FFFFFF" d="M112.304,84.793V68.957c0-8.309,5.173-13.168,10.972-13.168v-1.253H88.003v1.253
			c5.644,0,10.818,4.86,10.975,13.168v37.471c-0.157,8.152-5.331,13.17-10.975,13.17v1.253h35.272v-1.253
			c-5.482,0-10.972-5.018-10.972-13.17V84.793L112.304,84.793z"/>
		<path fill="#FFFFFF" d="M105.56,22.866v3.447c8.465,7.368,39.508,23.985,39.508,61.142c0,37.471-31.043,53.774-39.508,61.298
			v3.296c-0.157,0-0.157-0.157-0.313-0.157v-7.213c0.16,0,0.16,0.157,0.313,0.157c7.994-6.741,36.373-22.264,36.373-57.381
			c0-34.96-28.379-50.327-36.373-57.224l-0.313,0.313v-7.369C105.407,23.022,105.407,23.022,105.56,22.866z M105.247,151.892
			c-9.406-7.838-42.642-25.241-42.642-64.434c0-38.882,33.236-56.283,42.642-64.276v7.369c-8.309,6.897-36.529,22.263-36.529,56.91
			s28.22,50.327,36.529,57.225V151.892z"/>
	</g>
</g>
<path fill="#255398" d="M93.42,168.596c0.233,0,0.525,0.06,0.818,0.06c0.35,0.06,0.702,0.234,0.994,0.468
	c0.233,0.059,0.35,0.233,0.525,0.584c0.175,0.234,0.234,0.643,0.234,0.994c0.058,0.409-0.06,0.818-0.292,1.285
	c-0.175,0.409-0.643,0.818-1.227,1.345c0.525,0.643,1.052,1.228,1.402,1.695c0.468,0.584,0.818,0.994,1.17,1.344
	c0.292,0.351,0.642,0.585,0.818,0.644c0.233,0.116,0.35,0.116,0.526,0.175h0.292c0.058,0,0.116,0.06,0.116,0.116
	c0,0.117-0.058,0.175-0.233,0.117h-1.87c-0.144-0.101-0.301-0.18-0.467-0.234c-0.233-0.117-0.467-0.293-0.702-0.643
	c-0.292-0.234-0.584-0.584-0.936-1.052c-0.117-0.175-0.292-0.468-0.409-0.644c-0.161-0.21-0.317-0.424-0.467-0.642
	c-0.117-0.175-0.176-0.234-0.234-0.293l-0.059-0.06v-0.642h0.233c0.117-0.059,0.175-0.059,0.351-0.234
	c0.176-0.116,0.292-0.293,0.409-0.526c0.175-0.35,0.233-0.702,0.233-1.169c0-0.584-0.117-0.936-0.292-1.285
	c-0.175-0.293-0.467-0.584-0.702-0.702c-0.058-0.06-0.176-0.06-0.233-0.116L93.42,168.596L93.42,168.596L93.42,168.596z
	 M90.79,174.034v-2.047v-1.345v-0.7c0-0.176-0.058-0.293-0.058-0.468s0-0.293-0.059-0.409c-0.117-0.117-0.233-0.175-0.467-0.175
	c0-0.06-0.058-0.06-0.175-0.06h-0.233c-0.176,0-0.234,0-0.234-0.175c0-0.06,0.176-0.06,0.292-0.06h3.566v0.585
	c-0.176-0.059-0.351-0.059-0.527-0.059c-0.292,0-0.525,0.059-0.643,0.059c-0.059,0-0.117,0.059-0.117,0.175v3.508
	c0,0.116,0.058,0.176,0.117,0.293c0.118,0,0.234,0.059,0.468,0.059c0.117,0,0.292,0.059,0.409,0.059c0.116,0,0.233,0,0.292-0.059
	v0.643l-0.117-0.117h-1.052c-0.058,0-0.117,0-0.117,0.117v1.637c0.059,0.469,0.059,0.76,0.059,0.994s0.058,0.351,0.116,0.469
	c0.059,0.116,0.175,0.175,0.351,0.175c0.09,0.047,0.191,0.067,0.292,0.058h0.233c0.176,0,0.234,0.06,0.234,0.116v0.06
	c0,0.059-0.176,0.059-0.292,0.059h-3.099c-0.176,0-0.233,0-0.233-0.116c0-0.059,0.058-0.117,0.175-0.117
	c0.175,0,0.292,0,0.351-0.058c0.176,0,0.292-0.06,0.292-0.175c0.058-0.117,0.058-0.234,0.117-0.469c0-0.234,0.058-0.525,0.058-0.994
	L90.79,174.034L90.79,174.034z M100.143,174.034v-2.047v-1.345v-0.7v-0.468c-0.003-0.145-0.044-0.285-0.117-0.409
	c-0.058-0.117-0.175-0.175-0.409-0.175c-0.058,0-0.116-0.06-0.175-0.06h-0.234c-0.117,0-0.175,0-0.175-0.175
	c0-0.06,0.058-0.06,0.233-0.06h4.5c0.292,0,0.41-0.059,0.526-0.059c0.059,0,0.117,0,0.176-0.058c0.059,0,0.059,0.058,0.059,0.116
	v0.234c-0.059,0.116-0.059,0.294-0.059,0.526c0,0.06,0,0.117-0.059,0.234v0.526c0,0.059-0.059,0.175-0.117,0.175
	s-0.116-0.116-0.116-0.175v-0.175c0-0.117,0-0.176-0.059-0.233c0.002-0.123-0.066-0.237-0.176-0.293
	c-0.192-0.066-0.387-0.125-0.584-0.176h-1.636c-0.058,0-0.058,0-0.058,0.06v2.98c-0.058,0.116,0,0.175,0.058,0.175h1.286
	c0.292,0,0.467,0,0.525-0.059c0.233,0,0.467-0.116,0.585-0.176c0.059-0.116,0.117-0.175,0.175-0.175c0.059,0,0.059,0.06,0.059,0.117
	v0.233c-0.059,0.117-0.059,0.35-0.059,0.584c0,0.176-0.058,0.351-0.058,0.469v0.524c0,0.06-0.058,0.06-0.117,0.06
	c-0.058,0-0.058-0.06-0.058-0.117c0-0.175-0.059-0.292-0.059-0.408c0-0.117-0.058-0.234-0.234-0.293
	c-0.117-0.059-0.233-0.175-0.409-0.175c-0.117-0.06-0.292-0.06-0.527-0.06h-1.109c-0.058,0-0.116,0.06-0.058,0.176v0.877
	c0,0.175,0,0.35-0.058,0.584v0.701c0,0.234,0,0.409,0.058,0.526c0,0.293,0,0.468,0.058,0.584c0.059,0.175,0.233,0.293,0.467,0.351
	c0.176,0.059,0.468,0.059,0.818,0.059h0.525c0.175,0,0.409-0.059,0.585-0.116c0.117-0.117,0.233-0.234,0.292-0.352
	c0.117-0.116,0.117-0.292,0.234-0.583c0-0.059,0.059-0.117,0.117-0.117c0.059,0,0.117,0.06,0.117,0.176
	c0,0.175-0.06,0.293-0.06,0.408c0,0.176,0,0.351-0.058,0.528c0,0.175-0.059,0.291-0.059,0.35c0,0.174-0.058,0.292-0.233,0.35h-1.812
	c-0.409,0-0.702-0.059-1.052-0.059h-1.403c-0.292,0-0.585,0.059-0.818,0.059c-0.117,0-0.176-0.059-0.176-0.176
	c0-0.058,0-0.116,0.176-0.116h0.409c0.104-0.045,0.188-0.129,0.233-0.232c0.058-0.117,0.058-0.234,0.058-0.469
	c0.058-0.175,0.058-0.525,0.058-0.994L100.143,174.034L100.143,174.034z M111.132,174.326h-1.344v-0.584h1.052
	c0.06,0,0.06,0,0.06-0.059l-0.994-2.866c0-0.058-0.06-0.116-0.06-0.116h-0.058v-1.986c0.045-0.105,0.104-0.204,0.175-0.294
	c0.06-0.059,0.06-0.059,0.117-0.059c0.117-0.058,0.175,0.059,0.352,0.293c0.058,0.234,0.175,0.468,0.291,0.818
	c0.175,0.468,0.409,0.993,0.584,1.577c0.234,0.469,0.528,1.11,0.76,1.695c0.234,0.644,0.469,1.229,0.703,1.813
	c0.175,0.468,0.35,0.995,0.525,1.286c0.175,0.408,0.293,0.643,0.409,0.876c0.117,0.117,0.293,0.234,0.35,0.293
	c0.117,0.059,0.177,0.116,0.293,0.116c0.117,0.059,0.35,0.059,0.469,0.059c0.116,0,0.175,0,0.175,0.116c0,0-0.06,0.117-0.116,0.117
	h-2.633c-0.231,0-0.35,0-0.35-0.117c0-0.058,0.06-0.116,0.175-0.116c0,0,0.06-0.059,0.06-0.116c0.06,0,0.06-0.059,0-0.117
	l-0.875-2.515C111.191,174.384,111.191,174.326,111.132,174.326z M109.788,174.326h-1.287c-0.063,0.005-0.112,0.055-0.117,0.117
	l-0.584,1.696c-0.058,0.175-0.058,0.292-0.116,0.409v0.292c-0.059,0.116,0,0.175,0.058,0.233c0.058,0.06,0.175,0.116,0.35,0.116
	h0.176c0.117,0,0.175,0,0.117,0.116c0,0.117-0.058,0.117-0.176,0.117h-2.572c-0.117,0-0.175,0-0.175-0.117
	c0-0.116,0-0.116,0.116-0.116h0.352c0.292-0.059,0.467-0.175,0.584-0.35c0.116-0.116,0.292-0.409,0.409-0.701l2.865-7.308v-0.116
	v2.104l-1.111,2.865c0,0.06,0,0.06,0.058,0.06h1.053V174.326L109.788,174.326z M118.266,171.987v2.047c0,0.76,0,1.344,0.057,1.752
	c0,0.409,0.06,0.644,0.176,0.762c0.059,0.058,0.233,0.175,0.468,0.233c0.175,0,0.469,0.059,0.935,0.059c0.294,0,0.586,0,0.818-0.059
	c0.175-0.059,0.409-0.176,0.584-0.293c0.06-0.117,0.117-0.175,0.175-0.35c0.059-0.117,0.059-0.293,0.059-0.351
	c0-0.117,0.06-0.176,0.118-0.176c0.175,0,0.175,0.059,0.175,0.176c0,0.059,0,0.176-0.06,0.351c0,0.175,0,0.35-0.116,0.584
	c0,0.175,0,0.292-0.06,0.408c0,0.117-0.06,0.175-0.175,0.293c-0.06,0.059-0.234,0.059-0.527,0.059h-1.461
	c-0.352,0-0.702-0.059-0.993-0.059h-2.396c-0.177,0-0.293,0-0.293-0.117c0-0.058,0.059-0.116,0.175-0.116
	c0.233,0,0.35,0,0.468-0.058c0.117,0,0.175-0.06,0.234-0.175c0-0.117,0.116-0.234,0.116-0.469c0.06-0.234,0.06-0.525,0.06-0.994
	v-3.508v-1.345v-0.7v-0.468c0.004-0.155-0.06-0.305-0.175-0.409c-0.06-0.117-0.175-0.175-0.352-0.175
	c-0.116-0.06-0.232-0.06-0.409-0.06c-0.116,0-0.175,0-0.175-0.175c0-0.06,0.06-0.06,0.234-0.06h3.214c0.117,0,0.234,0,0.234,0.06
	c0,0.175-0.06,0.175-0.234,0.175h-0.175c-0.059,0-0.234,0-0.291,0.06c-0.124-0.002-0.237,0.065-0.294,0.175
	c-0.06,0.06-0.06,0.234-0.116,0.409v1.168C118.266,170.994,118.266,171.402,118.266,171.987L118.266,171.987z"/>

</svg>
