<?xml version="1.0" encoding="utf-8"?>
<!DOCTYPE svg PUBLIC "-//W3C//DTD SVG 1.1//EN" "http://www.w3.org/Graphics/SVG/1.1/DTD/svg11.dtd">
<svg version="1.1" id="Layer_1" xmlns="http://www.w3.org/2000/svg" xmlns:xlink="http://www.w3.org/1999/xlink" x="0px" y="0px" width="216px" height="216px" viewBox="0 0 216 216" enable-background="new 0 0 216 216" xml:space="preserve">
<g>
	<path fill-rule="evenodd" clip-rule="evenodd" d="M198.453,87.305v-6.82H215v8.475h-3.324v40.478h-9.898V88.959H198.5v19.393
		l-9.133-0.093v1.657h9.133v11.496c0,0.516-0.105,1.146-0.047,1.645c0.172,1.482-0.148,2.914-1.078,4.1
		c-1.613,2.057-4.584,2.783-7.092,2.783h-3.086c-3.867,0-7.234-2.125-7.715-6.174c-0.09-0.756-0.152-1.523-0.139-2.285V88.656
		c0-5.582,2.73-8.527,8.268-8.527h2.256c1.861,0,3.834,0.16,5.459,1.156C197.492,82.613,198.27,84.927,198.453,87.305
		L198.453,87.305z M3.626,72.042v55.63h7.419l0.186-25.77l3.197,25.77h4.273l3.639-25.819v25.633l7.52,0.186v-55.63h-8.666
		l-4.688,26.832l-4.214-26.832H3.626L3.626,72.042z M88.617,72.042v55.63h7.419l0.186-25.77l3.197,25.77h4.273l3.639-25.819v25.633
		l7.519,0.186v-55.63h-8.665l-4.688,26.832l-4.214-26.832H88.617L88.617,72.042z M41.136,101.46V88.078
		c0-0.624,0.449-1.089,1.069-1.098c0.656-0.01,1.307,0.39,1.307,1.098v13.383H41.136L41.136,101.46z M43.378,111.543v10.369
		c0,0.912-0.38,1.426-1.207,1.414c-0.798-0.014-1.029-0.703-1.029-1.508v-15.202l9.134,0.093V88.573
		c0-6.115-3.267-6.818-7.007-6.818h-2.255c-3.854,0-6.642,1.471-6.642,6.901v32.84c-0.013,0.623,0.037,1.314,0.127,2.078
		c0.375,3.17,3.008,4.74,6.099,4.74h3.086c3.105,0,6.995-1.285,6.555-5.07c-0.075-0.646,0.037-1.186,0.037-1.832v-9.869H43.378
		L43.378,111.543z M187.734,101.46h2.377V88.078c0-0.708-0.652-1.107-1.309-1.098c-0.619,0.009-1.068,0.474-1.068,1.098V101.46
		L187.734,101.46z M189.977,111.543v10.369c0,0.912-0.379,1.426-1.207,1.414c-0.799-0.014-1.029-0.703-1.029-1.508v-15.202
		l9.135,0.093V88.573c0-6.115-3.268-6.818-7.008-6.818h-2.256c-3.854,0-6.641,1.471-6.641,6.901v32.84
		c-0.014,0.623,0.037,1.314,0.127,2.078c0.377,3.17,3.008,4.74,6.1,4.74h3.086c3.104,0,6.994-1.285,6.555-5.07
		c-0.076-0.646,0.037-1.186,0.037-1.832v-9.869H189.977L189.977,111.543z M68.239,98.019h6.895V88.29
		c0-0.776,0.54-1.366,1.327-1.366c0.877,0,1.173,0.487,1.167,1.366l-0.072,11.284c-2.506,1.047-4.248,1.959-6.695,3.123
		c-2.417,1.149-2.622,4.747-2.622,7.133v12.646c-0.013,1.068,0.073,2.092,0.252,3.041c0.383,2.025,1.521,2.902,3.625,2.926
		c1.148,0.014,2.244,0.09,3.189-0.414c0.468-0.248,0.89-0.246,1.28-0.572c0.4-0.336,0.923-0.283,1.042,0.176v0.414h6.598V87.469
		c0-3.976-3.027-5.621-6.401-5.621h-2.892c-3.783,0-6.694,1.879-6.694,5.681V98.019L68.239,98.019z M77.562,121.457
		c-0.002,0.965-0.414,1.656-1.152,1.658c-0.755,0.002-1.152-0.449-1.157-1.773l-0.057-13.502c-0.003-0.743,0.499-1.753,1.18-1.755
		c0.568-0.002,1.224,0.528,1.221,1.868L77.562,121.457L77.562,121.457z M119.52,98.019h6.893V88.29c0-0.776,0.541-1.366,1.328-1.366
		c0.877,0,1.172,0.487,1.166,1.366l-0.072,11.284c-2.506,1.047-4.246,1.959-6.693,3.123c-2.416,1.149-2.621,4.747-2.621,7.133
		v12.646c0,1.068,0.072,2.092,0.252,3.041c0.383,2.025,1.521,2.902,3.625,2.926c1.148,0.014,2.244,0.09,3.189-0.414
		c0.467-0.248,0.889-0.246,1.279-0.572c0.4-0.336,0.924-0.283,1.041,0.176v0.414h6.598V87.469c0-3.976-3.027-5.621-6.4-5.621h-2.891
		c-3.783,0-6.693,1.879-6.693,5.681V98.019L119.52,98.019z M128.842,121.457c-0.004,0.965-0.414,1.656-1.152,1.658
		c-0.756,0.002-1.152-0.449-1.158-1.773l-0.057-13.502c-0.004-0.743,0.5-1.753,1.18-1.755c0.568-0.002,1.225,0.528,1.221,1.868
		L128.842,121.457L128.842,121.457z M140.057,137.785h6.805v-10.211c0-0.994,0.518-0.117,1.238,0.029
		c1.131,0.227,1.932,0.564,3.316,0.543c3.982-0.059,4.305-1.975,4.314-5.162l0.119-34.51c0.006-1.654,0.146-3.097-0.186-4.185
		c-0.486-1.589-1.748-2.454-3.982-2.394c-1.076,0.028-2.684,0.372-3.615,0.878c-0.867,0.473-0.986,0.538-1.143,0.07l-0.002-0.581
		h-6.865V137.785L140.057,137.785z M146.922,88.666c-0.002-0.841,0.375-1.553,1.254-1.54c0.883,0.012,1.225,0.951,1.225,1.866v31.94
		c0,0.834-0.201,2.193-1.256,2.164c-1.031-0.029-1.193-1.309-1.193-2.074L146.922,88.666L146.922,88.666z M160.598,128.018h6.811
		l-0.102-16.42c0-1.328,0.266-1.959,0.559-0.199l2.447,16.619h7.135l-4.893-26.218l3.967-19.654h-6.971l-1.547,10.859
		c-0.287,2.213-0.68,1.962-0.596,0.027V82.145h-6.811V128.018L160.598,128.018z M61.434,127.813h-6.647V82.111h3.917h2.73h3.799
		v5.223h-3.799V127.813L61.434,127.813z M210.051,127.813V87.333h3.322v-5.223h-3.322h-3.205h-0.238h-3.205h-3.322v5.223h3.322
		v40.479H210.051L210.051,127.813z M66.613,88.959h-3.552v40.478h-9.899V80.485h13.698v5.021c0.91-3.514,4.231-5.283,8.074-5.283
		h2.892c4.457,0,8.027,2.494,8.027,7.247v42.203h-9.85V129.5c-1.266,0.648-2.526,0.586-3.902,0.57
		c-2.842-0.031-4.67-1.424-5.206-4.252c-0.208-1.102-0.293-2.23-0.281-3.352V109.83c0-3.08,0.389-7.098,3.549-8.602
		c1.103-0.524,2.193-1.06,3.29-1.583h-6.838V88.959L66.613,88.959z M16.591,88.938l3.237-18.522h11.658v58.922l-10.771-0.266v-4.027
		l-0.6,4.252h-7.123l-0.313-2.527l-0.019,2.527H2V70.416h11.682L16.591,88.938L16.591,88.938z M101.582,88.938l3.237-18.522h11.658
		v58.922l-10.771-0.266v-4.027l-0.6,4.252h-7.123l-0.313-2.527l-0.019,2.527H86.991V70.416h11.682L101.582,88.938L101.582,88.938z
		 M32.746,121.48c-0.014,0.762,0.049,1.529,0.139,2.285c0.48,4.049,3.847,6.174,7.713,6.174h3.086c2.508,0,5.479-0.727,7.092-2.783
		c0.93-1.186,1.25-2.617,1.078-4.1c-0.058-0.498,0.047-1.129,0.047-1.645v-11.496h-9.134v-1.657l9.134,0.093V88.573
		c0-2.792-0.623-5.725-3.174-7.288c-1.626-0.996-3.597-1.156-5.459-1.156h-2.255c-5.538,0-8.268,2.945-8.268,8.527V121.48
		L32.746,121.48z M127.281,129.5c-1.266,0.648-2.525,0.586-3.902,0.57c-2.842-0.031-4.672-1.424-5.205-4.252
		c-0.209-1.098-0.281-2.225-0.281-3.342V109.83c0-3.08,0.389-7.098,3.549-8.602c1.102-0.524,2.193-1.06,3.289-1.583h-6.838V87.529
		c0-4.857,3.799-7.307,8.32-7.307h2.891c4.457,0,8.027,2.494,8.027,7.247v42.203h-9.85V129.5L127.281,129.5z M148.541,80.824
		c1.016-0.33,2.176-0.528,3.098-0.554c2.594-0.069,4.789,0.952,5.58,3.544c0.438,1.432,0.262,3.176,0.256,4.666l-0.117,34.508
		c-0.006,1.652-0.063,3.51-1.104,4.883c-1.148,1.51-3.023,1.875-4.814,1.902c-1.168,0.018-1.977-0.197-2.951-0.422v10.061h-10.057
		V80.637h10.107L148.541,80.824L148.541,80.824z M168.139,80.518h-9.166v49.125h20.432l-5.193-27.832l4.299-21.293H168.139z"/>
	<path fill="#FFF200" d="M3.626,72.042v55.63h7.419l0.186-25.77l3.197,25.77h4.273l3.639-25.819v25.633l7.52,0.186v-55.63h-8.666
		l-4.688,26.832l-4.214-26.832H3.626L3.626,72.042z M88.617,72.042v55.63h7.419l0.186-25.77l3.197,25.77h4.273l3.639-25.819v25.633
		l7.519,0.186v-55.63h-8.665l-4.688,26.832l-4.214-26.832H88.617L88.617,72.042z M41.136,101.46V88.078
		c0-0.624,0.449-1.089,1.069-1.098c0.656-0.01,1.307,0.39,1.307,1.098v13.383H41.136L41.136,101.46z M43.378,111.543v10.369
		c0,0.912-0.38,1.426-1.207,1.414c-0.798-0.014-1.029-0.703-1.029-1.508v-15.202l9.134,0.093V88.573
		c0-6.115-3.267-6.818-7.007-6.818h-2.255c-3.854,0-6.642,1.471-6.642,6.901v32.84c-0.013,0.623,0.037,1.314,0.127,2.078
		c0.375,3.17,3.008,4.74,6.099,4.74h3.086c3.105,0,6.995-1.285,6.555-5.07c-0.075-0.646,0.037-1.186,0.037-1.832v-9.869H43.378
		L43.378,111.543z M187.734,101.46V88.078c0-0.624,0.449-1.089,1.068-1.098c0.656-0.01,1.309,0.39,1.309,1.098v13.383H187.734
		L187.734,101.46z M189.977,111.543v10.369c0,0.912-0.379,1.426-1.207,1.414c-0.799-0.014-1.029-0.703-1.029-1.508v-15.202
		l9.135,0.093V88.573c0-6.115-3.268-6.818-7.008-6.818h-2.256c-3.854,0-6.641,1.471-6.641,6.901v32.84
		c-0.014,0.623,0.037,1.314,0.127,2.078c0.377,3.17,3.008,4.74,6.1,4.74h3.086c3.104,0,6.994-1.285,6.555-5.07
		c-0.076-0.646,0.037-1.186,0.037-1.832v-9.869H189.977L189.977,111.543z M68.239,98.019h6.895V88.29
		c0-0.776,0.54-1.366,1.327-1.366c0.877,0,1.173,0.487,1.167,1.366l-0.072,11.284c-2.506,1.047-4.248,1.959-6.695,3.123
		c-2.417,1.149-2.622,4.747-2.622,7.133v12.646c-0.013,1.068,0.073,2.092,0.252,3.041c0.383,2.025,1.521,2.902,3.625,2.926
		c1.148,0.014,2.244,0.09,3.189-0.414c0.468-0.248,0.89-0.246,1.28-0.572c0.4-0.336,0.923-0.283,1.042,0.176v0.414h6.598V87.469
		c0-3.976-3.027-5.621-6.401-5.621h-2.892c-3.783,0-6.694,1.879-6.694,5.681V98.019L68.239,98.019z M77.562,121.457
		c-0.002,0.965-0.414,1.656-1.152,1.658c-0.755,0.002-1.152-0.449-1.157-1.773l-0.057-13.502c-0.003-0.743,0.499-1.753,1.18-1.755
		c0.568-0.002,1.224,0.528,1.221,1.868L77.562,121.457L77.562,121.457z M119.52,98.019h6.893V88.29c0-0.776,0.541-1.366,1.328-1.366
		c0.877,0,1.172,0.487,1.166,1.366l-0.072,11.284c-2.506,1.047-4.246,1.959-6.693,3.123c-2.416,1.149-2.621,4.747-2.621,7.133
		v12.646c0,1.068,0.072,2.092,0.252,3.041c0.383,2.025,1.521,2.902,3.625,2.926c1.148,0.014,2.244,0.09,3.189-0.414
		c0.467-0.248,0.889-0.246,1.279-0.572c0.4-0.336,0.924-0.283,1.041,0.176v0.414h6.598V87.469c0-3.976-3.027-5.621-6.4-5.621h-2.891
		c-3.783,0-6.693,1.879-6.693,5.681V98.019L119.52,98.019z M128.842,121.457c-0.004,0.965-0.414,1.656-1.152,1.658
		c-0.756,0.002-1.152-0.449-1.158-1.773l-0.057-13.502c-0.004-0.743,0.5-1.753,1.18-1.755c0.568-0.002,1.225,0.528,1.221,1.868
		L128.842,121.457L128.842,121.457z M140.057,137.785h6.805v-10.211c0-0.994,0.518-0.117,1.238,0.029
		c1.131,0.227,1.932,0.564,3.316,0.543c3.982-0.059,4.305-1.975,4.314-5.162l0.119-34.51c0.006-1.654,0.146-3.097-0.186-4.185
		c-0.486-1.589-1.748-2.454-3.982-2.394c-1.076,0.028-2.684,0.372-3.615,0.878c-0.867,0.473-0.986,0.538-1.143,0.07l-0.002-0.581
		h-6.865V137.785L140.057,137.785z M146.922,88.666c-0.002-0.841,0.375-1.553,1.254-1.54c0.883,0.012,1.225,0.951,1.225,1.866v31.94
		c0,0.834-0.201,2.193-1.256,2.164c-1.031-0.029-1.193-1.309-1.193-2.074L146.922,88.666L146.922,88.666z M160.598,128.018h6.811
		l-0.102-16.42c0-1.328,0.266-1.959,0.559-0.199l2.447,16.619h7.135l-4.893-26.218l3.967-19.654h-6.971l-1.547,10.859
		c-0.287,2.213-0.68,1.962-0.596,0.027V82.145h-6.811V128.018L160.598,128.018z M61.434,127.813h-6.647V82.111h3.917h2.73h3.799
		v5.223h-3.799V127.813L61.434,127.813z M210.051,127.813h-6.648V87.333h-3.322v-5.223h3.322h3.205h0.238h3.205h3.322v5.223h-3.322
		V127.813z"/>
</g>
</svg>
