<?xml version="1.0" encoding="utf-8"?>
<!DOCTYPE svg PUBLIC "-//W3C//DTD SVG 1.1//EN" "http://www.w3.org/Graphics/SVG/1.1/DTD/svg11.dtd">
<svg version="1.1" id="Layer_1" xmlns="http://www.w3.org/2000/svg" xmlns:xlink="http://www.w3.org/1999/xlink" x="0px" y="0px" width="216px" height="216px" viewBox="0 0 216 216" enable-background="new 0 0 216 216" xml:space="preserve">
<path fill-rule="evenodd" clip-rule="evenodd" fill="#0BB363" d="M54,0h108.003C191.702,0,216,24.3,216,54v108.003
	C216,191.702,191.702,216,162.003,216H54c-29.7,0-54-24.298-54-53.997V54C0,24.3,24.3,0,54,0z"/>
<path fill-rule="evenodd" clip-rule="evenodd" fill="#18874B" d="M129.831,28.193c9.505,6.202,15.814,16.882,15.814,28.957v15.518
	h-3.703V54.373C141.942,43.945,137.237,34.555,129.831,28.193L129.831,28.193z M182.641,81.006
	c9.563,6.223,15.925,17.053,15.925,29.308l0,0c0,19.178-15.581,34.868-34.625,34.868h-18.295v18.295
	c0,19.044-15.69,34.625-34.868,34.625l0,0c-8.677,0-16.639-3.189-22.757-8.445c5.486,3.579,12.036,5.668,19.054,5.668l0,0
	c19.178,0,34.869-15.581,34.869-34.625v-18.295h18.295c19.044,0,34.625-15.69,34.625-34.869l0,0
	C194.862,96.943,190.107,87.415,182.641,81.006L182.641,81.006z M72.205,145.183H57.613c-8.524,0-16.353-3.146-22.403-8.339
	c5.402,3.516,11.826,5.562,18.701,5.562h18.294V145.183L72.205,145.183z M145.646,95.172h18.295c2.469,0,4.803,0.619,6.859,1.712
	c-2.704-2.769-6.444-4.489-10.563-4.489h-18.295v30.284h3.703V95.172L145.646,95.172z M72.205,95.172H57.613
	c-8.194,0-14.898,6.814-14.898,15.143l0,0c0,4.143,1.66,7.911,4.337,10.652c-4.767-2.533-8.04-7.611-8.04-13.43l0,0
	c0-8.328,6.704-15.142,14.898-15.142h18.294V95.172L72.205,95.172z M117.965,44.05c-2.142-1.146-4.592-1.798-7.188-1.798l0,0
	c-8.329,0-15.143,6.704-15.143,14.898v15.518h-3.703V54.373c0-8.194,6.813-14.898,15.142-14.898l0,0
	C111.339,39.475,115.206,41.233,117.965,44.05L117.965,44.05z M122.216,145.183v-2.777H91.932V160.7
	c0,5.64,3.227,10.572,7.954,13.101c-2.628-2.683-4.251-6.326-4.251-10.323v-18.295H122.216L122.216,145.183z M95.635,95.172h26.581
	v-2.777H91.932v30.284h3.703V95.172z"/>
<path fill-rule="evenodd" clip-rule="evenodd" fill="#FFFFFF" d="M107.074,19.748L107.074,19.748
	c19.178,0,34.869,15.581,34.869,34.625v18.295h18.295c19.044,0,34.625,15.691,34.625,34.869l0,0
	c0,19.178-15.581,34.869-34.625,34.869h-18.295V160.7c0,19.044-15.69,34.625-34.869,34.625l0,0
	c-19.177,0-34.869-15.581-34.869-34.625v-18.295H53.911c-19.044,0-34.625-15.69-34.625-34.869l0,0
	c0-19.178,15.581-34.869,34.625-34.869h18.294V54.373C72.205,35.329,87.896,19.748,107.074,19.748L107.074,19.748z M141.942,92.395
	v30.284h18.295c8.194,0,14.898-6.813,14.898-15.142l0,0c0-8.328-6.704-15.142-14.898-15.142H141.942L141.942,92.395z
	 M72.205,122.679V92.395H53.911c-8.194,0-14.898,6.814-14.898,15.142l0,0c0,8.329,6.704,15.142,14.898,15.142H72.205L72.205,122.679
	z M91.932,72.668h30.284V54.373c0-8.194-6.813-14.898-15.142-14.898l0,0c-8.328,0-15.142,6.705-15.142,14.898V72.668L91.932,72.668z
	 M122.216,142.405H91.932V160.7c0,8.194,6.813,14.898,15.142,14.898l0,0c8.329,0,15.142-6.704,15.142-14.898V142.405
	L122.216,142.405z M91.932,92.395v30.284h30.284V92.395H91.932z"/>
</svg>
