<?xml version="1.0" encoding="utf-8"?>
<!DOCTYPE svg PUBLIC "-//W3C//DTD SVG 1.1//EN" "http://www.w3.org/Graphics/SVG/1.1/DTD/svg11.dtd">
<svg version="1.1" xmlns="http://www.w3.org/2000/svg" xmlns:xlink="http://www.w3.org/1999/xlink" x="0px" y="0px" width="216px" height="216px" viewBox="0 0 216 216" enable-background="new 0 0 216 216" xml:space="preserve">
<g>
	<g>
		<rect fill-rule="evenodd" clip-rule="evenodd" fill="#BDD600" width="216" height="216"/>
		<rect x="186.183" y="86.747" fill="#E42A0E" width="12.156" height="12.155"/>
		<path fill="#FFFFFF" d="M167.524,102.365l-2.615,8.084h5.106L167.524,102.365L167.524,102.365z M160.38,86.395L160.38,86.395
			h14.139l12.02,37.963h-12.02l-1.859-5.471h-10.365l-1.859,5.471h-12.129L160.38,86.395L160.38,86.395z M124.979,86.369v13.719
			l8.395-13.719h12.493l-10.7,17.6l11.133,20.364H133.86l-8.881-16.308v16.308h-12.182V86.369H124.979L124.979,86.369z
			 M97.231,86.369L97.231,86.369v28.448h11.792v9.516H85.049V86.369H97.231L97.231,86.369z M34.93,86.422L34.93,86.422
			c2.841-0.152,5.627,0.814,7.763,2.696c1.964,1.888,3.028,4.526,2.923,7.249c0.101,1.846-0.325,3.681-1.224,5.297
			c-0.737,1.253-1.946,2.158-3.355,2.506c2.017,0.37,3.864,1.377,5.269,2.871c1.551,1.727,2.368,3.988,2.277,6.307
			c0.167,3.02-0.972,5.967-3.125,8.086c-2.488,2.084-5.684,3.131-8.921,2.924H16.32V86.396L34.93,86.422L34.93,86.422z
			 M28.542,94.509L28.542,94.509v5.524h2.021c1.526,0.002,2.764-1.235,2.766-2.759c0.001-1.528-1.236-2.764-2.76-2.765h-0.006
			H28.542L28.542,94.509z M28.542,109.021L28.542,109.021v5.393h3.14c2.021,0,3.02-0.918,3.02-2.697
			c0.056-0.764-0.254-1.51-0.836-2.01c-0.62-0.486-1.396-0.734-2.184-0.699L28.542,109.021L28.542,109.021z M62.784,86.396v24.784
			c-0.059,0.83,0.252,1.645,0.85,2.223c0.633,0.535,1.45,0.807,2.278,0.756c0.853,0.035,1.685-0.254,2.33-0.811
			c0.603-0.553,0.921-1.352,0.864-2.168V86.396h12.127v25.794c0.137,3.744-1.646,7.301-4.729,9.434
			c-3.122,2.143-6.85,3.225-10.634,3.086c-3.781,0.145-7.505-0.939-10.619-3.086c-3.064-2.145-4.831-5.697-4.69-9.434V86.396H62.784
			z"/>
		<path fill="#FFFFFF" d="M98.985,145.746L98.985,145.746c-0.035,0.943,0.275,1.863,0.869,2.594
			c0.549,0.668,1.378,1.049,2.243,1.023c1.033,0.055,2.018-0.438,2.593-1.297c0.674-1.074,0.995-2.336,0.922-3.604
			c0-2.736-1.078-4.109-3.204-4.109c-0.947-0.025-1.85,0.396-2.437,1.139c-0.649,0.832-0.98,1.865-0.934,2.92L98.985,145.746
			L98.985,145.746z M98.985,150.557L98.985,150.557v8.688h-4.37v-21.836h4.37v2.283c1.782-2.711,5.423-3.465,8.135-1.684
			c0.441,0.291,0.841,0.639,1.188,1.035c1.15,1.564,1.719,3.482,1.608,5.42c0.112,2.16-0.549,4.289-1.866,6.004
			c-1.191,1.477-3.005,2.313-4.902,2.256C101.471,152.803,99.88,151.977,98.985,150.557L98.985,150.557z M83.309,145.592
			L83.309,145.592c-1.583,0.205-2.373,0.906-2.373,2.125c0,0.496,0.214,0.967,0.583,1.299c0.433,0.355,0.983,0.535,1.543,0.504
			c0.839,0.027,1.646-0.318,2.204-0.945c0.586-0.639,0.898-1.48,0.869-2.35v-1.074L83.309,145.592L83.309,145.592z M78.381,138.316
			L78.381,138.316c0.846-0.443,1.755-0.756,2.697-0.92c0.955-0.213,1.928-0.328,2.904-0.352c4.189,0,6.276,2.088,6.276,6.291v9.076
			h-4.149v-2.18c-0.879,1.645-2.611,2.648-4.472,2.594c-1.252,0.064-2.477-0.369-3.41-1.205c-0.882-0.863-1.354-2.063-1.296-3.293
			c0-2.871,1.728-4.539,5.187-5.006l4.111-0.559c0-1.736-0.909-2.594-2.712-2.594c-1.807,0.008-3.57,0.574-5.043,1.621v-3.357
			L78.381,138.316L78.381,138.316z M73.364,152.359L73.364,152.359h-4.086v-11.67c-0.209,0.936-0.476,1.857-0.791,2.764
			l-3.008,8.959h-3.89l-3.008-8.959c-0.325-0.896-0.598-1.811-0.817-2.738v11.67h-3.437v-14.977h5.731l2.957,8.662
			c0.32,0.881,0.574,1.781,0.765,2.697c0.221-0.877,0.49-1.744,0.804-2.594l2.906-8.701h5.875V152.359L73.364,152.359z
			 M127.94,152.359h-5.303l-4.967-7.391h-0.067v7.391h-4.354v-14.951h4.354v6.912h0.067l4.654-6.912h5.201l-5.537,7.055
			L127.94,152.359L127.94,152.359z M144.044,146.109h-9.841c0.153,2.32,1.555,3.475,4.188,3.475
			c1.543,0.029,3.061-0.389,4.371-1.205v3.189c-1.656,0.842-3.502,1.24-5.357,1.154c-2.049,0.127-4.057-0.6-5.549-2.01
			c-1.391-1.527-2.105-3.553-1.984-5.615c-0.085-2.143,0.673-4.232,2.115-5.82c1.363-1.473,3.295-2.283,5.302-2.23
			c1.854-0.102,3.663,0.598,4.967,1.918c1.257,1.463,1.899,3.363,1.788,5.291V146.109L144.044,146.109z M139.974,143.387
			L139.974,143.387c0-2.244-0.906-3.357-2.711-3.357c-0.768,0.01-1.491,0.342-1.996,0.92c-0.604,0.682-0.98,1.533-1.076,2.438
			H139.974L139.974,143.387z M158.179,140.754h-4.059v11.605h-4.383v-11.605h-4.098v-3.346h12.539V140.754z"/>
	</g>
</g>
</svg>
