<?xml version="1.0" encoding="utf-8"?>
<!DOCTYPE svg PUBLIC "-//W3C//DTD SVG 1.1//EN" "http://www.w3.org/Graphics/SVG/1.1/DTD/svg11.dtd">
<svg version="1.1" id="Layer_1" xmlns="http://www.w3.org/2000/svg" xmlns:xlink="http://www.w3.org/1999/xlink" x="0px" y="0px" width="216px" height="216px" viewBox="0 0 216 216" enable-background="new 0 0 216 216" xml:space="preserve">
<g>
	<rect x="1.491" y="1.437" fill-rule="evenodd" clip-rule="evenodd" fill="#FFFFFF" width="213" height="213"/>
	<rect x="1.49" y="1.437" fill-rule="evenodd" clip-rule="evenodd" fill="#FFFFFF" width="213" height="213"/>
	<rect x="1.491" y="37.669" fill-rule="evenodd" clip-rule="evenodd" fill="#284298" width="213" height="124.8"/>
	<path d="M48.422,109.309h12.824l0.085-10.732c-0.012-0.849-0.596-0.966-1.614,0.061L48.422,109.309L48.422,109.309z M59.486,81.807
		h14.045l0.113,45.259H60.781l-0.11-6.537H32.56l-7.259,6.537H5.941L59.486,81.807L59.486,81.807z M80.053,81.807h14.519
		l34.566,29.822V81.927l13.489-0.12v45.259h-13.503l-30.288-23.485l-5.166-4.236l-0.051,27.62l-13.567,0.102V81.807L80.053,81.807z
		 M160.174,119.111v7.955h-13.271V81.807h45.804c8.945,0,15.744,10.74,15.744,18.489c0,8.065-8.014,18.815-18.224,18.815H160.174
		L160.174,119.111z M160.174,106.329h28.422c6.187,0,8.415-1.155,8.415-6.285c0-5.455-1.467-6.663-7.843-6.663h-28.994V106.329z"/>
	<path fill="#FFFFFF" d="M48.422,109.309h12.249V98.577c-0.012-0.849,0.064-0.966-0.954,0.061L48.422,109.309L48.422,109.309z
		 M59.486,81.807h14.158v45.259H60.671v-6.537H32.56l-7.259,6.537H5.941L59.486,81.807L59.486,81.807z M80.053,81.807h14.519
		l34.566,29.822V81.927l13.489-0.12v45.259h-13.503l-30.288-23.485l-5.166-4.236l-0.051,27.62l-13.567,0.102V81.807L80.053,81.807z
		 M160.174,119.111v7.955h-13.271V81.807h44.888c10.776,0,16.295,10.74,16.295,18.489c0,8.065-4.721,18.815-18.225,18.815H160.174
		L160.174,119.111z M160.174,106.329H186.4c6.187,0,8.414-1.155,8.414-6.285c0-5.455-1.467-6.663-7.842-6.663h-26.799V106.329z"/>
</g>
</svg>
