<?xml version="1.0" encoding="utf-8"?>
<!DOCTYPE svg PUBLIC "-//W3C//DTD SVG 1.1//EN" "http://www.w3.org/Graphics/SVG/1.1/DTD/svg11.dtd">
<svg version="1.1" id="Слой_1" xmlns="http://www.w3.org/2000/svg" xmlns:xlink="http://www.w3.org/1999/xlink" x="0px" y="0px" width="216px" height="216px" viewBox="0 0 216 216" enable-background="new 0 0 216 216" xml:space="preserve">
<rect y="0.254" fill="#3B3940" width="216" height="215.746"/>
<g>
	<path fill="#FEB600" d="M145.56,103.09c-1.002-3.33-3.901-2.972-3.901-2.972v19.157c0,0,0.035,4.044,2.899,5.083
		c0.179,2.506,0.466,5.907,0.466,5.907h1.073c0,0,0.285-3.437,0.466-5.907c2.864-1.001,2.899-5.083,2.899-5.083v-19.192
		C149.462,100.083,146.599,99.76,145.56,103.09 M145.201,122.064c-1.933-0.035-2.937-3.22-2.756-5.191
		C145.453,117.627,145.201,122.064,145.201,122.064 M145.201,117.054c-1.933-0.035-2.937-3.224-2.756-5.191
		C145.453,112.613,145.201,117.054,145.201,117.054 M145.201,112.185c-1.933-0.035-2.937-3.223-2.756-5.192
		C145.453,107.745,145.201,112.185,145.201,112.185 M145.201,107.172c-1.933-0.037-2.937-3.223-2.756-5.192
		C145.453,102.731,145.201,107.172,145.201,107.172 M145.953,122.064c0,0-0.286-4.438,2.757-5.191
		C148.89,118.845,147.886,122.029,145.953,122.064 M145.953,117.054c0,0-0.286-4.44,2.757-5.191
		C148.89,113.83,147.886,117.019,145.953,117.054 M145.953,112.185c0,0-0.286-4.44,2.757-5.192
		C148.89,108.997,147.886,112.149,145.953,112.185 M145.953,107.172c0,0-0.286-4.44,2.757-5.192
		C148.89,103.985,147.886,107.135,145.953,107.172"/>
	<path fill="#B4262E" d="M149.462,92.742c0,2.148-1.754,3.903-3.902,3.903c-2.149,0-3.901-1.754-3.901-3.903
		s1.752-3.902,3.901-3.902C147.708,88.84,149.462,90.594,149.462,92.742"/>
	<path fill="#FEB600" d="M11.546,123.568l-0.896-0.894V98.937l0.896-0.896h4.941l0.895,0.896v23.773l-0.895,0.896h-4.941V123.568z
		 M14.016,95.858c-1.29,0-2.435-0.466-3.366-1.361c-0.931-0.931-1.432-2.041-1.432-3.365c0-1.289,0.465-2.399,1.432-3.33
		c0.931-0.931,2.076-1.396,3.366-1.396c1.289,0,2.399,0.464,3.33,1.396c0.931,0.931,1.396,2.041,1.396,3.33s-0.466,2.435-1.396,3.33
		C16.415,95.392,15.305,95.858,14.016,95.858"/>
	<polygon fill="#FEB600" points="24.792,123.568 23.898,122.675 23.898,85.295 24.792,84.4 29.806,84.4 30.701,85.295 
		30.701,122.675 29.806,123.568 	"/>
	<polygon fill="#FEB600" points="72.089,124.429 62.638,101.908 57.124,122.925 56.265,123.568 51.396,123.568 50.501,122.458 
		60.561,84.221 62.244,84.114 72.913,109.499 83.512,84.114 85.195,84.221 95.219,122.458 94.36,123.568 89.455,123.568 
		88.596,122.925 83.189,102.124 73.737,124.429 	"/>
	<path fill="#FEB600" d="M110.83,124.25c-3.724,0-7.018-1.36-9.775-4.047c-2.756-2.685-4.153-5.871-4.153-9.523
		c0-3.473,1.396-6.624,4.117-9.308c2.721-2.686,5.908-4.046,9.452-4.046c3.652,0,6.876,1.324,9.596,3.975
		c2.72,2.649,4.117,5.8,4.117,9.345c0,3.579-1.361,6.768-4.011,9.452C117.489,122.853,114.375,124.25,110.83,124.25 M110.65,104.093
		c-1.933,0-3.58,0.645-4.976,2.004c-1.396,1.361-2.076,2.9-2.076,4.761c0,1.755,0.68,3.259,2.112,4.621
		c1.432,1.358,3.043,2.004,4.94,2.004c1.862,0,3.438-0.682,4.798-2.041c1.396-1.36,2.076-2.935,2.076-4.726
		c0-1.792-0.681-3.295-2.04-4.62C114.124,104.772,112.549,104.093,110.65,104.093"/>
	<polygon fill="#FEB600" points="129.448,123.568 128.553,122.675 128.553,85.295 129.448,84.4 134.461,84.4 135.356,85.295 
		135.356,122.675 134.461,123.568 	"/>
	<path fill="#FEB600" d="M172.807,123.568l-0.896-0.894v-15.682c0-1.038-0.321-1.898-1.002-2.578
		c-0.681-0.68-1.504-1.003-2.543-1.003c-1.397,0-2.613,0.574-3.653,1.791c-1.072,1.253-1.609,2.721-1.609,4.511v12.926l-0.896,0.894
		h-4.94l-0.896-0.894V98.937l0.896-0.896h4.905l0.896,0.896v1.718c0.894-0.859,1.753-1.539,2.543-2.041
		c1.322-0.824,2.79-1.253,4.402-1.253c2.363,0,4.438,0.788,6.123,2.363c1.718,1.576,2.578,3.545,2.578,5.8v17.15l-0.896,0.894
		H172.807z"/>
	<path fill="#FEB600" d="M195.865,124.25c-3.724,0-7.019-1.36-9.775-4.047c-2.758-2.685-4.153-5.871-4.153-9.523
		c0-3.473,1.396-6.624,4.118-9.308c2.722-2.686,5.906-4.046,9.452-4.046c3.651,0,6.873,1.324,9.594,3.975
		c2.722,2.649,4.117,5.8,4.117,9.345c0,3.579-1.358,6.768-4.01,9.452C202.486,122.853,199.373,124.25,195.865,124.25
		 M195.685,104.093c-1.933,0-3.58,0.645-4.976,2.004c-1.397,1.361-2.078,2.9-2.078,4.761c0,1.755,0.681,3.259,2.113,4.621
		c1.433,1.358,3.043,2.004,4.94,2.004c1.861,0,3.437-0.682,4.798-2.041c1.397-1.36,2.077-2.935,2.077-4.726
		c0-1.792-0.68-3.295-2.041-4.62C199.158,104.772,197.546,104.093,195.685,104.093"/>
</g>

</svg>
