<?xml version="1.0" encoding="utf-8"?>
<!DOCTYPE svg PUBLIC "-//W3C//DTD SVG 1.1//EN" "http://www.w3.org/Graphics/SVG/1.1/DTD/svg11.dtd">
<svg version="1.1" id="Layer_1" xmlns="http://www.w3.org/2000/svg" xmlns:xlink="http://www.w3.org/1999/xlink" x="0px" y="0px" width="216px" height="216px" viewBox="0 0 216 216" enable-background="new 0 0 216 216" xml:space="preserve">
<g>
	<path fill-rule="evenodd" clip-rule="evenodd" fill="#AF2933" d="M15.898,1.501h184.202c7.919,0,14.399,6.479,14.399,14.398
		v184.202c0,7.919-6.48,14.398-14.399,14.398H15.898c-7.919,0-14.398-6.479-14.398-14.398V15.899C1.5,7.98,7.979,1.501,15.898,1.501
		z"/>
	<path fill="#FFFFFF" d="M52.024,102.035c6.875-0.05,9.758,6.332,9.773,10.593c0.006,1.641-0.13,2.713-0.862,4.182
		c-1.221,2.447-4.75,3.469-9.01,3.479c-6.768,0.018-8.805-4.712-8.843-9.026C43.118,107.045,45.394,102.084,52.024,102.035
		L52.024,102.035z M60.432,126.534l-0.281,1.008c-1.636,5.885-13.834,14.661-19.598,14.474c-1.012-0.033-1.587,0.836-1.28,1.829
		l1.914,6.189c0.213,0.688,0.328,1.04,1.461,1.05c20.371,0.178,30.019-19.747,30.055-37.138
		c0.026-12.387-7.998-20.815-20.712-20.858c-10.351-0.035-20.339,6.478-20.339,17.815c0,10.618,7.515,18.22,17.412,18.682
		c4.195,0.194,8.287-0.153,10.964-3.374C60.473,125.789,60.53,126.131,60.432,126.534L60.432,126.534z M83.299,118.924
		c3.358,0,6.082,2.723,6.082,6.081c0,3.359-2.724,6.083-6.082,6.083s-6.083-2.724-6.083-6.083
		C77.216,121.646,79.94,118.924,83.299,118.924L83.299,118.924z M127.966,141.793c-0.012-0.942-0.703-1.122-1.804-1.114
		l-9.767,0.069l0.149-45.526c0.005-1.255,0.094-1.45-1.869-1.45h-5.271l-17.071,13.533c-0.299,0.237-0.61,0.403-0.81,0.602
		c-0.206,0.206-0.312,0.448-0.312,0.742c0,0.251,0.051,0.461,0.124,0.645c0.067,0.166,0.165,0.315,0.25,0.448l2.429,3.778
		c0.191,0.297,0.343,0.561,0.514,0.771s0.436,0.322,0.794,0.322c0.234,0,0.449-0.062,0.639-0.154
		c0.184-0.09,0.346-0.176,0.482-0.266l9.038-6l0.05,32.533l-10.382,0.022c-0.895,0.002-1.319,0.021-1.309,0.896l0.087,7.059
		c0.005,0.406,0.089,0.704,0.233,0.868c0.151,0.172,0.327,0.252,0.53,0.28c0.202,0.028,0.389,0.028,0.545,0.028h31.295
		c0.483,0,0.82-0.064,0.996-0.183c0.182-0.121,0.506-0.309,0.522-0.49c0.016-0.167,0.003-0.363,0-0.56L127.966,141.793
		L127.966,141.793z M185.064,141.793c-0.012-0.942-0.703-1.122-1.805-1.114l-9.767,0.069l0.149-45.526
		c0.004-1.255,0.095-1.45-1.869-1.45h-5.27l-17.071,13.533c-0.3,0.237-0.611,0.403-0.811,0.602
		c-0.206,0.206-0.312,0.448-0.312,0.742c0,0.251,0.052,0.461,0.125,0.645c0.065,0.166,0.165,0.315,0.249,0.448l2.43,3.778
		c0.191,0.297,0.343,0.561,0.514,0.771s0.436,0.322,0.794,0.322c0.234,0,0.449-0.062,0.639-0.154
		c0.186-0.09,0.348-0.176,0.483-0.266l9.038-6l0.049,32.533l-10.383,0.022c-0.893,0.002-1.318,0.021-1.307,0.896l0.086,7.059
		c0.005,0.406,0.09,0.704,0.234,0.868c0.151,0.172,0.326,0.252,0.529,0.28s0.389,0.028,0.546,0.028h31.295
		c0.482,0,0.819-0.064,0.997-0.183c0.182-0.121,0.505-0.309,0.521-0.49c0.015-0.167,0.003-0.363,0-0.56L185.064,141.793
		L185.064,141.793z M136.921,118.924c3.359,0,6.082,2.723,6.082,6.081c0,3.359-2.723,6.083-6.082,6.083s-6.083-2.724-6.083-6.083
		C130.838,121.646,133.562,118.924,136.921,118.924L136.921,118.924z M49.044,77.964H40.7l-1.148,3.913h-7.484l8.907-23.705h7.987
		l8.913,23.705h-7.666L49.044,77.964L49.044,77.964z M47.511,72.836l-2.622-8.521l-2.605,8.521H47.511L47.511,72.836z
		 M82.921,81.876h-7.308V63.995h-8.052v17.882h-7.313V58.171h22.672V81.876L82.921,81.876z M86.139,58.171h22.264v5.856h-7.473
		v17.849h-7.324V64.028h-7.467V58.171L86.139,58.171z M111.703,58.171h19.627v5.062h-12.286v3.769h11.396v4.836h-11.396v4.669
		h12.644v5.37h-19.984V58.171L111.703,58.171z M157.186,81.876h-8.245l-2.847-6.126c-0.68-1.446-1.21-2.351-1.584-2.71
		c-0.382-0.364-0.9-0.541-1.568-0.541v9.377h-7.313V58.171h7.313v9.102c0.635-0.027,1.132-0.254,1.485-0.679
		c0.357-0.419,0.909-1.622,1.667-3.62c0.551-1.474,1.104-2.533,1.666-3.174c0.557-0.646,1.469-1.104,2.731-1.385
		c1.259-0.282,3.24-0.419,5.933-0.419v5.011h-0.369c-1.252,0-2.18,0.237-2.781,0.712c-0.608,0.475-1.099,1.242-1.49,2.301
		c-0.387,1.065-0.806,1.855-1.254,2.379c-0.446,0.524-1.059,0.944-1.831,1.253c1.053,0.347,1.977,0.943,2.765,1.788
		c0.784,0.844,1.622,2.164,2.506,3.952L157.186,81.876L157.186,81.876z M174.39,77.964h-8.345l-1.148,3.913h-7.484l8.908-23.705
		h7.985l8.914,23.705h-7.666L174.39,77.964L174.39,77.964z M172.854,72.836l-2.621-8.521l-2.604,8.521H172.854z"/>
</g>
</svg>
