<?xml version="1.0" encoding="utf-8"?>
<!DOCTYPE svg PUBLIC "-//W3C//DTD SVG 1.1//EN" "http://www.w3.org/Graphics/SVG/1.1/DTD/svg11.dtd">
<svg version="1.1" xmlns="http://www.w3.org/2000/svg" xmlns:xlink="http://www.w3.org/1999/xlink" x="0px" y="0px" width="216px" height="216px" viewBox="0 0 216 216" enable-background="new 0 0 216 216" xml:space="preserve">
<g>
	<g>
		<polygon fill="#AFAFAF" points="216,144.486 216,144.486 0,144.486 0,128.631 216,128.631 		"/>
		<rect y="64.68" fill="#1A3B72" width="216" height="63.951"/>
		<path fill-rule="evenodd" clip-rule="evenodd" fill="#FFFFFF" d="M119.704,137.863v2.809h-1.054v-8.248h1.561
			c0.682-0.051,1.373,0.061,2.005,0.322l0.003,0.001l0.002,0.001c0.925,0.438,1.509,1.374,1.494,2.396
			c0,0.659-0.265,1.277-0.709,1.759c-0.315,0.342-0.754,0.641-1.219,0.751l2.275,3.034h-1.321l-2.092-2.824H119.704L119.704,137.863
			z M160.871,137.863v2.84h-1.054v-8.248h1.575c0.681-0.053,1.37,0.053,2.004,0.306l0.004,0.001l0.003,0.002
			c0.925,0.438,1.509,1.374,1.494,2.396c0,0.659-0.265,1.277-0.709,1.759c-0.315,0.342-0.753,0.641-1.218,0.751l2.275,3.019h-1.322
			l-2.106-2.824H160.871L160.871,137.863z M141.669,138.373c-0.009-0.406-0.19-0.791-0.5-1.055c-0.374-0.303-0.938-0.445-1.394-0.58
			c-0.46-0.137-0.951-0.293-1.328-0.604c-0.486-0.4-0.648-0.955-0.648-1.568c0-1.348,1.071-2.283,2.39-2.283
			c0.017,0,0.033,0,0.049,0c1.27,0,2.298,1.029,2.298,2.299v0.129h-1.076l-0.009-0.12c-0.055-0.737-0.56-1.315-1.322-1.315
			c-0.711,0-1.26,0.567-1.26,1.275c0,0.272,0.067,0.521,0.25,0.729c0.317,0.361,0.93,0.522,1.377,0.65
			c0.461,0.132,1.018,0.28,1.387,0.598c0.534,0.458,0.841,1.127,0.841,1.83c0,0.003,0,0.006,0,0.008
			c-0.03,1.386-1.177,2.488-2.563,2.463c-0.032,0.001-0.064,0.002-0.097,0.002c-1.39-0.002-2.516-1.129-2.515-2.52v-0.129h1.104
			l0.012,0.117c0.087,0.863,0.59,1.537,1.511,1.537C140.988,139.836,141.651,139.186,141.669,138.373L141.669,138.373z
			 M170.851,133.399h-1.842v-0.976h4.737v0.991h-1.842v7.272h-1.054V133.399L170.851,133.399z M151.207,132.283
			c2.386-0.018,4.339,1.893,4.374,4.278v0.002v0.002c-0.044,2.38-1.994,4.28-4.373,4.263c-2.367,0.009-4.306-1.88-4.358-4.246
			v-0.002v-0.002C146.876,134.191,148.822,132.274,151.207,132.283L151.207,132.283z M181.681,137.318
			c-0.375-0.303-0.938-0.445-1.394-0.58c-0.461-0.137-0.951-0.293-1.328-0.604c-0.486-0.4-0.648-0.955-0.648-1.569
			c0-1.345,1.053-2.282,2.374-2.282c0.017,0,0.032,0,0.049,0c1.27,0,2.298,1.029,2.298,2.299v0.129h-1.076l-0.009-0.12
			c-0.055-0.737-0.561-1.315-1.322-1.315c-0.711,0-1.26,0.567-1.26,1.275c0,0.272,0.067,0.521,0.25,0.729
			c0.317,0.361,0.93,0.522,1.377,0.65c0.461,0.132,1.018,0.279,1.387,0.598c0.534,0.458,0.841,1.128,0.841,1.834
			c-0.028,1.387-1.176,2.492-2.563,2.467c-0.032,0.001-0.064,0.002-0.097,0.002c-1.39-0.002-2.516-1.129-2.515-2.52v-0.129h1.102
			l0.014,0.114c0.102,0.87,0.594,1.54,1.526,1.54c0.813,0,1.477-0.649,1.493-1.463C182.171,137.967,181.989,137.582,181.681,137.318
			L181.681,137.318z M129.754,133.415v2.598h3.48v0.991h-3.48v2.707h3.59v0.961H128.7v-8.248h4.644v0.991H129.754L129.754,133.415z
			 M102.425,135.619c-0.321-0.332-0.636-0.714-0.747-1.166c-0.038-0.152-0.053-0.308-0.053-0.465c0-1.094,0.975-1.908,2.032-1.908
			c1.116-0.009,2.031,0.885,2.049,2.002c0,0.92-0.668,1.535-1.457,1.873l1.247,1.221l1.127-2.162h1.164l-1.521,2.943l2.057,1.994
			l-0.749,0.707l-1.819-1.758c-0.518,0.999-1.261,1.709-2.455,1.709c-1.438,0.01-2.615-1.141-2.642-2.578
			C100.658,136.859,101.442,136.105,102.425,135.619L102.425,135.619z M88.08,137.318c-0.375-0.303-0.938-0.445-1.394-0.58
			c-0.46-0.137-0.952-0.293-1.328-0.604c-0.487-0.4-0.649-0.955-0.649-1.569c0-1.347,1.072-2.282,2.391-2.282
			c0.016,0,0.032,0,0.048,0c1.27,0,2.298,1.029,2.298,2.299v0.129H88.37l-0.009-0.12c-0.054-0.737-0.56-1.315-1.323-1.315
			c-0.71,0-1.26,0.567-1.26,1.275c0,0.272,0.068,0.521,0.25,0.729c0.317,0.361,0.93,0.522,1.377,0.65
			c0.461,0.132,1.017,0.28,1.386,0.598c0.534,0.458,0.842,1.128,0.841,1.834c-0.027,1.387-1.175,2.492-2.562,2.467
			c-0.032,0.001-0.064,0.002-0.097,0.002c-1.39-0.002-2.516-1.129-2.515-2.52v-0.129h1.086l0.013,0.114
			c0.102,0.87,0.594,1.54,1.526,1.54c0.813,0,1.477-0.649,1.494-1.463C88.57,137.967,88.388,137.582,88.08,137.318L88.08,137.318z
			 M78.022,139.711h3.34v0.961h-4.378v-8.248h1.038V139.711L78.022,139.711z M68.332,133.415v2.598h3.48v0.991h-3.48v2.707h3.589
			v0.961h-4.643v-8.248h4.643v0.991H68.332L68.332,133.415z M59.881,133.399H58.04v-0.976h4.737v0.991h-1.842v7.272h-1.054V133.399
			L59.881,133.399z M49.756,132.283c2.385-0.018,4.339,1.893,4.375,4.278v0.002v0.002c-0.044,2.38-1.995,4.28-4.374,4.263
			c-2.367,0.009-4.306-1.88-4.358-4.246v-0.002v-0.002C45.426,134.191,47.372,132.274,49.756,132.283L49.756,132.283z
			 M35.981,135.935h3.909v-3.511h1.054v8.248H39.89v-3.746h-3.909v3.746h-1.038v-8.248h1.038V135.935L35.981,135.935z
			 M119.688,133.415v3.394h0.4c0.313-0.004,0.638-0.008,0.95-0.041c0.187-0.02,0.366-0.053,0.542-0.119
			c0.089-0.035,0.175-0.076,0.258-0.121c1.067-0.583,1.109-2.219,0.045-2.817c-0.472-0.272-0.948-0.295-1.481-0.295H119.688
			L119.688,133.415z M160.871,133.415v3.394h0.4c0.312-0.004,0.633-0.007,0.943-0.036c0.185-0.018,0.364-0.047,0.538-0.114
			c0.093-0.035,0.181-0.08,0.267-0.129c0.242-0.139,0.446-0.338,0.59-0.578c0.462-0.771,0.21-1.78-0.562-2.242
			c-0.455-0.273-0.96-0.294-1.479-0.294H160.871L160.871,133.415z M151.208,139.836c1.795,0,3.319-1.465,3.319-3.272
			c-0.008-1.829-1.498-3.305-3.327-3.296c-1.829,0.008-3.305,1.496-3.297,3.325C147.937,138.395,149.406,139.836,151.208,139.836
			L151.208,139.836z M104.969,138.15l-1.781-1.752c-0.715,0.434-1.476,0.7-1.476,1.693c0.007,0.842,0.684,1.525,1.525,1.541
			C104.124,139.633,104.618,138.863,104.969,138.15L104.969,138.15z M103.457,135.18c0.52-0.201,1.227-0.563,1.227-1.191
			c0-0.53-0.519-0.932-1.025-0.932c-0.513,0-0.979,0.388-0.979,0.916C102.679,134.465,103.128,134.849,103.457,135.18
			L103.457,135.18z M49.757,139.836c1.797,0,3.304-1.467,3.304-3.272c-0.009-1.825-1.495-3.297-3.319-3.288
			c-1.825,0.008-3.298,1.493-3.29,3.316C46.494,138.391,47.959,139.828,49.757,139.836z"/>
		<path fill-rule="evenodd" clip-rule="evenodd" fill="#E00974" d="M170.887,116.338c0.002,0.001,0.004,0.002,0.006,0.004
			c0.274,0.182,2.42,1.748,2.238,2.023l-0.003,0.004c-0.182,0.268-2.611-0.851-2.886-1.016c-7.869-3.973-16.274-7.043-24.799-9.271
			l-0.289-0.075v-3.959l0.509,0.168c8.92,2.952,17.267,7.129,25.216,12.115l0.005,0.004L170.887,116.338L170.887,116.338z
			 M123.44,104.24l-2.177-4.847l0.651,0.052c6.252,0.501,12.452,1.572,18.51,3.198l0.286,0.077v4.218l-0.47-0.103
			c-5.466-1.198-11.005-2.059-16.576-2.574L123.44,104.24L123.44,104.24z M103.791,99.26l-2.066,4.819l-0.233,0.018
			c-5.537,0.421-11.049,1.147-16.505,2.175l-0.458,0.086v-4.403l0.302-0.068c6.033-1.357,12.164-2.197,18.334-2.587L103.791,99.26
			L103.791,99.26z M105.029,103.874l1.874-4.758l0.255-0.008c1.52-0.048,3.039-0.074,4.56-0.074
			c1.446-0.001,2.893,0.023,4.339,0.074l0.248,0.009l1.979,4.759l-0.61-0.029c-1.976-0.093-3.953-0.141-5.931-0.141
			c-2.04,0-4.079,0.048-6.117,0.141L105.029,103.874L105.029,103.874z M50.251,117.631c-0.281,0.166-2.653,1.243-2.83,0.963
			c-0.182-0.283,1.894-1.813,2.176-1.998l0.003-0.002l0.003-0.002c4.742-2.975,9.674-5.637,14.788-7.916
			c4.916-2.191,9.981-4.02,15.167-5.461l0.49-0.136v4.214l-0.302,0.068c-5.273,1.185-10.494,2.653-15.599,4.433
			C59.405,113.443,54.735,115.37,50.251,117.631z"/>
		<path fill-rule="evenodd" clip-rule="evenodd" fill="#FFFFFF" d="M111.389,87.675l-11.696,29.974h-3.827l15.617-36.35h1.731
			l16.254,36.33h-5.343L111.389,87.675L111.389,87.675z M84.56,97.296v12.143h-4.546V97.81L69.827,82.024h5.081l7.811,13.292
			l8.089-13.292h3.86L84.56,97.296L84.56,97.296z M52.244,96.146H38.181v13.293h-4.478V82.004h4.478v11.324h14.063V82.004h4.481
			v27.435h-4.481V96.146L52.244,96.146z M145.179,84.81v24.621h-4.503V84.81h-8.808v-2.809h22.073v2.809H145.179L145.179,84.81z
			 M176.551,84.81v24.621h-4.504V84.81h-7.948v-2.809h20.358v2.809H176.551z"/>
	</g>
</g>
</svg>
