<?xml version="1.0" encoding="utf-8"?>
<!DOCTYPE svg PUBLIC "-//W3C//DTD SVG 1.1//EN" "http://www.w3.org/Graphics/SVG/1.1/DTD/svg11.dtd">
<svg version="1.1" id="Layer_1" xmlns="http://www.w3.org/2000/svg" xmlns:xlink="http://www.w3.org/1999/xlink" x="0px" y="0px" width="216px" height="216px" viewBox="0 0 216 216" enable-background="new 0 0 216 216" xml:space="preserve">
<rect fill-rule="evenodd" clip-rule="evenodd" fill="#FFFFFF" width="216" height="216"/>
<rect x="50.162" y="26.616" fill-rule="evenodd" clip-rule="evenodd" fill="#FFFFFF" width="115.217" height="120.358"/>
<path fill-rule="evenodd" clip-rule="evenodd" fill="#E04628" d="M68.402,134.96h82.023l-32.424-30.015
	c-2.293,0.882-5.047,1.346-8.584,1.346c-3.298,0-6.153-0.451-8.66-1.283L68.402,134.96z"/>
<path fill-rule="evenodd" clip-rule="evenodd" fill="#2D378D" d="M61.555,38.519h41.434v10.436H71.544v74.25l-9.989,9.247V38.519
	L61.555,38.519z M115.467,38.519h38.41v91.132l-9.99-9.247V48.954h-28.42V38.519L115.467,38.519z M150.426,134.96l-32.424-30.015
	c-2.293,0.882-5.047,1.346-8.584,1.346c-3.298,0-6.153-0.451-8.66-1.283L68.402,134.96H150.426L150.426,134.96z M102.989,89.307
	V59.389H81.534v54.567l2.2-2.036l10.926-10.114c-4.015-3.04-6.892-7.42-9.442-12.499H102.989L102.989,89.307z M133.898,111.156
	V59.389h-18.432v29.918h17.393c-3.832,5.108-6.363,9.243-9.436,12.153L133.898,111.156L133.898,111.156z M51.566,28.084v117.311
	h112.299V28.084H51.566z"/>
<path fill="#2D378D" d="M21.28,191.389l0.041-1.875c0.25-0.063,0.691-0.151,1.327-0.257c1.016-0.168,1.637-0.322,1.855-0.461
	c0.215-0.136,0.547-0.435,0.806-0.991l4.002-8.647l4.706-10.63c0.434,0.012,0.854,0.018,1.246,0.018h0.894l0.176,0.309l3.454,7.043
	c0.779,1.493,1.483,2.94,2.106,4.353c0.623,1.405,1.158,2.555,1.604,3.441c0.264,0.537,0.637,1.334,1.09,2.41
	c0.244,0.58,0.604,0.916,1.09,1.792c0.265,0.478,0.473,0.749,0.596,0.834c0.243,0.167,0.63,0.286,1.165,0.344
	c0.535,0.059,1.111,0.187,1.733,0.392l-0.019,1.959l0.101-0.032c-4.338,0-8.676,0-13.015,0c0-0.402,0.021-1.507,0.061-1.875
	l1.455-0.304c0.655-0.137,1.509-0.45,1.167-1.196l-0.713-1.556l-1.208-3.071l-7.188-0.122c-0.278,0.543-0.852,1.489-1.727,3.618
	c-0.249,0.607-0.379,1.015-0.379,1.23c0,0.298,0.098,0.504,0.277,0.631c0.308,0.217,0.888,0.369,1.747,0.467
	c0.116,0.013,0.589,0.081,1.409,0.187l0.02,1.991h-0.041c-3.16,0-6.32,0-9.48,0H21.28L21.28,191.389z M30.604,181.468
	c3.095,0.035,4.527,0.177,5.082,0.157l0.501-0.018l-2.705-6.738L30.604,181.468L30.604,181.468z M82.373,176.121l-0.018-2.104
	l5.268-0.048c0.454-0.005,1.65,0.215,1.938,0.779l8.549,8.753c1.449,1.696,1.153,1.028,1.153-0.5v-5.097
	c0-0.571-0.132-0.919-0.246-1.044c-0.489-0.536-1.615-0.383-2.264-0.737l0.013-1.888h0.33h5.829h0.535l0.013,1.713
	c-0.515,0.272-1.378,0.47-1.728,0.976c-0.072,0.105-0.123,0.266-0.113,0.486l0.026,0.553v12.588
	c-0.087,0.301-0.008,0.862-0.317,0.917c-0.621-0.008-1.12,0.057-1.719-0.104c-0.501-0.135-0.964-0.448-1.319-0.827l-8.984-9.584
	c-0.402-0.566-1.201-0.934-1.207-0.27v7.223c0,1.312,1.583,1.563,2.445,1.621c0.08,0.005,0.693,0.065,0.836,0.105l0.052,1.982
	h-0.496c-2.532,0-5.064,0-7.596,0h-0.422c-0.028-0.336-0.026-1.523-0.013-1.86c0.583-0.189,2.009-0.358,2.351-0.643
	c0.13-0.107,0.316-0.452,0.316-0.938v-10.449C85.588,176.454,83.4,176.286,82.373,176.121L82.373,176.121z M105.507,174.236h15.042
	c0.553-0.012,1.389,0.264,1.484,0.902l0.01,3.031c0.002,0.214-0.014,0.637-0.053,0.793c-0.383,0.104-1.16,0.37-1.449,0.396
	c-0.244-0.319-0.074-1.221-0.359-1.827c-0.383-0.814-0.492-1.162-1.42-1.35c-0.221-0.044-0.906,0.009-2.672,0.009
	c-0.711,0-0.74,0.154-0.734,0.853c0.031,3.592,0.086,7.188,0.053,10.78c-0.004,0.567,0.059,0.992,0.174,1.278
	c0.457,0.181,1.219,0.301,1.709,0.399c0.283,0.057,0.533,0.126,0.744,0.197c0.092,0.564,0.021,1.084,0,1.655h-0.475
	c-3.217,0-6.434,0-9.648,0c-0.01-0.122-0.026-0.986-0.029-1.05l-0.015-0.286v-0.097c0.206-0.239,0.597-0.412,1.167-0.529
	c0.98-0.202,0.857-0.391,1.232-0.555c0.096-0.156,0.174-0.361,0.174-0.614l-0.059-11.692c0-0.073-0.055-0.125-0.102-0.164
	c-0.043-0.037-0.109-0.058-0.195-0.067c-0.289-0.032-0.445-0.051-2.049-0.051c-2.32,0-2.298,2.402-2.447,4.114
	c-0.432-0.197-1.219-0.402-1.344-0.524l0.051-4.917C104.302,174.368,104.41,174.273,105.507,174.236L105.507,174.236z
	 M119.074,191.354L119.074,191.354c2.117,0,4.477,0,6.594,0h0.027l-0.014-1.739c-0.549-0.076-0.865-0.125-0.943-0.135
	c-0.35-0.043-0.645-0.421-0.645-0.79c0-0.156,0.088-0.45,0.256-0.887c0.293-0.768,0.445-1.14,0.547-1.368
	c0.213-0.477,0.184-0.511,0.695-0.512l4.029-0.008c0.279,0.031,0.361,0.119,0.543,0.393l0.891,2.234
	c0.242,0.57-0.299,0.909-0.82,0.988l-1.094,0.168c-0.027,0.265-0.041,1.365-0.041,1.655c2.908,0,5.729,0,8.637,0l0,0v-1.725
	c-0.418-0.147-0.803-0.113-1.162-0.155c-0.357-0.042-0.586-0.223-0.748-0.343c-0.082-0.061-0.248-0.245-0.4-0.602l-6.262-14.706
	l-0.119,0.065l-1.434-0.012l-5.836,14.59c-0.215,0.378-0.396,0.618-0.541,0.715c-0.145,0.101-0.563,0.21-1.244,0.332
	c-0.426,0.075-0.748,0.139-0.916,0.185V191.354L119.074,191.354z M126.156,183.614l1.521-3.995l1.648,3.995h-0.336H126.156
	L126.156,183.614z M62.75,191.616l0.027-1.918c0.167-0.046,0.463-0.109,0.889-0.185c0.681-0.122,1.099-0.231,1.244-0.332
	c0.146-0.097,0.327-0.337,0.54-0.715l5.836-14.178c0.478,0.014,0.956,0.013,1.434,0.013l0.118,0.223l6.263,14.005
	c0.158,0.354,0.313,0.547,0.399,0.602c0.159,0.126,0.422,0.206,0.781,0.248c0.358,0.042,0.744,0.135,1.162,0.281l0.068,1.956h-0.013
	h-2.169c-1.968,0-3.937,0-5.905,0h-0.649c0-0.29,0.014-1.653,0.041-1.918l1.078-0.294c0.437-0.119,0.701-0.187,0.771-0.248
	c0.088-0.077,0.132-0.177,0.132-0.282c0-0.104-0.02-0.22-0.068-0.332l-0.89-2.234c-0.181-0.131-0.263-0.361-0.544-0.393
	l-4.476,0.008c-0.186,0.392-0.209,0.345-0.795,1.88c-0.167,0.437-0.254,0.73-0.254,0.887c0,0.215,0.066,0.362,0.186,0.454
	c0.207,0.156-0.119,0.266,0.458,0.336c0.078,0.01,0.395,0.059,0.944,0.135l0.014,2.002h-0.027c-2.118,0-4.236,0-6.354,0H62.75
	L62.75,191.616z M69.832,183.614c2.074,0.025,2.462,0.052,2.834,0.038l0.336-0.013c-0.268-0.731-0.613-1.585-1.04-2.557
	c-0.426-0.971-0.347-0.638-0.61-1.146L69.832,183.614L69.832,183.614z M61.886,177.974c-1.009,2.642-2.218,5.182-3.328,7.865
	c-0.263-0.509-0.184-0.176-0.61-1.146c-0.427-0.972-1.609-4.493-1.877-5.225l-0.412-1.119l-0.478-1.115
	c-0.283-0.663,0.336-0.726,0.835-0.862l1.078-0.294c0.027-0.265,0.041-1.551,0.041-1.841h-0.649c-2.691,0-5.382,0-8.074,0
	l0.054,1.879c0.418,0.146,0.647,0.222,1.162,0.281c0.515,0.061,0.88,0.27,1.18,0.85c0.326,0.631,0.572,1.156,0.73,1.576
	c0.309,0.774,0.554,1.35,0.731,1.737c0.299,0.639,0.658,1.467,1.076,2.48c0.417,1.018,0.889,2.06,1.411,3.136l2.315,5.075
	l0.118,0.223h0.599c0.263,0,0.545,0.005,0.835,0.013l3.154-7.66l2.683-6.518c0.469-0.832,0.849-0.879,1.783-1.047
	c0.427-0.075,0.722-0.139,0.89-0.185l0.027-1.841H66.92c-2.118,0-4.236,0-6.354,0h-0.027l0.013,1.925
	c0.55,0.076,0.867,0.125,0.944,0.135c0.351,0.043,0.644,0.421,0.644,0.79C62.14,177.242,62.053,177.536,61.886,177.974
	L61.886,177.974z M155.053,175.463c0.066,0.247,0.141,1.455,0.225,2.192c0.084,0.736,0.125,1.275,0.125,1.61
	c0,0.128-0.035,0.286-0.096,0.477c-0.402-0.009-0.748-0.044-1.025-0.102c-0.713-1.011-1.211-1.642-1.504-1.902
	c-1.158-1.03-2.703-1.602-4.246-1.602c-4.186,0-5.908,3.397-5.908,6.991c0,3.629,2.092,6.395,6.047,6.395
	c0.607,0,1.252-0.077,1.934-0.22c0.348-0.073,0.627-0.204,0.844-0.41c0.146-0.142,0.254-0.344,0.297-0.623
	c0.076-0.497,0.109-0.495,0.109-1.417c0-0.9,0.172-0.818,0.143-1.153c-0.061-0.133-0.129-0.217-0.186-0.252
	c-0.063-0.039-0.246-0.147-0.57-0.19l-2.6-0.341c-0.271-0.035-0.436-0.137-0.502-0.221c-0.02-0.11-0.029-0.194-0.029-0.247
	c0-0.119-0.031-1.465,0.035-1.682c0.168-0.053,0.283-0.079,0.35-0.079c1.02,0,3.129,0.041,3.877,0.106
	c0.262,0.022,0.551,0.04,0.857,0.026l1.975-0.092l0.938-0.026c0.115-0.003,0.625-0.119,0.943,0.344
	c0.01,0.225,0.08,1.341,0.08,1.495c0,0.413-0.5,0.513-0.793,0.612c-0.385,0.13-0.6,0.216-0.646,0.26
	c-0.072,0.066-0.125,0.177-0.154,0.322c-0.027,0.146-0.229-0.033-0.229,0.845c0,1.015,0.078,1.688,0.068,1.887
	c-0.031,0.636-0.094,1.113-0.094,1.201c0,0.318-0.051,0.513-0.145,0.596c-0.262,0.235-0.871,0.398-2.23,0.705
	s-2.945,0.459-4.75,0.459c-1.26,0-2.355-0.093-3.289-0.278c-0.93-0.185-1.719-0.458-2.375-0.82c-0.881-0.485-1.633-1.067-2.26-1.761
	c-0.629-0.688-1.092-1.434-1.404-2.237c-0.43-1.134-0.646-2.268-0.646-3.397c0-1.267,0.322-2.551,0.959-3.853
	c0.463-0.939,1.119-1.787,1.967-2.541c0.848-0.755,1.906-1.354,3.18-1.805c1.27-0.446,2.656-0.671,4.15-0.671
	c0.188,0,0.494,0.021,0.91,0.066c1.145,0,2.207,0.132,3.199,0.393C153.572,174.788,154.396,175.102,155.053,175.463L155.053,175.463
	z M157.707,174.223c0.502,0.027,0.941,0.068,1.313,0.122c0.699,0.096,1.51,0.146,2.43,0.146c0.322,0,1.137-0.029,2.455-0.082
	c1.975-0.078,1.18-0.1,2.773-0.117l2.402-0.027c0.539-0.006,1.336,0.067,2.393,0.199c0.158,0.177,0.234,0.417,0.234,0.716v2.736
	l0.027,0.544c0.004,0.054-0.004,0.131-0.014,0.24l-0.543,0.027c-0.072,0.003-0.223-0.01-0.449-0.027
	c-0.082-0.177,0.047-0.79-0.32-0.784l-0.531,0.009c-0.447,0.008-0.484-0.806-0.848-1.223c-0.221-0.059-0.508-0.091-0.852-0.104
	c-0.09-0.004-0.357-0.031-0.811-0.068c-0.82-0.066-0.637-0.104-1.584-0.104c-1.078,0-0.537,0.018-1.385,0.054
	c-0.027,0.218-0.059,0.142-0.041,1.663l0.027,2.229v1.672c0.223,0.027,0.412,0.041,0.57,0.041c1.582,0,1.203-0.034,1.879-0.096
	c0.67-0.061,1.086-0.146,1.246-0.259c0.156-0.109,0.307-0.302,0.426-0.575c0.084-0.193,0.234-0.847,0.461-1.952l0.178-0.014
	l0.766,0.014c0.035,0.788,0.055,1.386,0.055,1.794c0,0.929-0.006,1.527-0.02,1.79c-0.012,0.267-0.021,0.476-0.021,0.625
	c0,0.24,0.014,0.621,0.041,1.146s0.041,0.92,0.041,1.178v0.29h-0.943c-0.035-0.141-0.104-0.435-0.199-0.875
	c-0.18-0.823-0.336-1.336-0.477-1.54c-0.107-0.158-0.285-0.276-0.533-0.358c-0.18-0.059-0.83-0.095-1.963-0.095
	c-1.336,0-0.836,0.036-1.506,0.109c-0.01,0.226-0.014,0.38-0.014,0.448c0,1.056,0.063,1.929,0.055,2.628l-0.027,2.074
	c-0.004,0.336,0.117,0.566,0.357,0.689c0.363,0.185-0.033,0.28,1.824,0.28c1.232,0,1.244-0.093,2.105-0.28
	c0.588-0.129,1.107-0.432,1.563-0.889c0.596-0.599,1.102-0.629,1.5-1.703c0.275-0.022,0.502-0.036,0.68-0.036
	c0.094,0,0.24,0.005,0.434,0.009c-0.021,0.222-0.031,0.41-0.063,0.562l-0.082,0.395l-0.488,2.51l-0.24,1.514h-1.369h-2.938h-3.963
	h-3.914h-0.559h-1.607v-1.985c0.172-0.046,0.508-0.09,1.01-0.146c0.92-0.103,1.559-0.249,1.912-0.426
	c0.096-0.258,0.145-0.58,0.145-0.97c0-0.149-0.025-0.408-0.014-0.771l0.014-0.412l-0.039-3.932l0.012-1.499l-0.063-2.125l0.014-1.5
	l-0.123-0.693c-0.008-0.044-0.008-0.136-0.027-0.268c-0.086-0.095-0.217-0.156-0.393-0.186c-0.102-0.017-0.232-0.042-0.4-0.077
	c-0.508-0.105-0.992-0.169-1.463-0.186c-0.168-0.006-0.361-0.027-0.584-0.054L157.707,174.223L157.707,174.223z M177.545,169.466
	h11.643c1.105-0.056,1.373,0.17,1.373,1.076c0,0.326-0.047,1.903-0.686,3.062l-8.582,15.528c-0.242,0.436-0.232,0.794,0.193,1.1
	c0.24,0.172,0.396,0.348,0.361,0.51c-0.066,0.305-0.055,0.736-0.723,0.726h-4.598c-1.225,0-0.488-1.081,0.016-1.883l9.129-14.51
	c0.621-0.668,0.053-0.979-1.705-0.934l-6.098,0.019c-0.723,0.002-1.457,0.933-1.588,1.588c-0.121,0.607-0.637,0.906-1.213,0.906
	c-0.193,0-0.338-0.058-0.439-0.172c-0.439-0.49-0.018-2.406,0.051-2.949c0.072-0.563,0.465-2.109,0.592-2.629
	C175.703,169.124,175.736,169.466,177.545,169.466z"/>
</svg>
