<?xml version="1.0" encoding="utf-8"?>
<!DOCTYPE svg PUBLIC "-//W3C//DTD SVG 1.1//EN" "http://www.w3.org/Graphics/SVG/1.1/DTD/svg11.dtd">
<svg version="1.1" xmlns:xodm="http://www.corel.com/coreldraw/odm/2003" xmlns="http://www.w3.org/2000/svg" xmlns:xlink="http://www.w3.org/1999/xlink" x="0px" y="0px" width="216px" height="216px"	 viewBox="-38 -38 216 216" enable-background="new -38 -38 216 216" xml:space="preserve">
<g id="Слой_x0020_1">
	<path fill-rule="evenodd" clip-rule="evenodd" fill="#0096DB" d="M17-38h108.003C154.702-38,179-13.7,179,16v108.003
		C179,153.702,154.702,178,125.003,178H17c-29.7,0-54-24.298-54-53.997V16C-37-13.7-12.7-38,17-38z"/>
	<polygon fill="#FEFEFE" points="-2.071,143.118 -2.071,123.135 3.809,123.135 3.808,129.407 8.171,123.135 15.022,123.135 
		8.097,132.104 16.599,143.118 9.319,143.118 3.809,134.954 3.809,143.118 	"/>
	<polygon fill="#FEFEFE" points="18.01,123.135 23.405,123.135 23.405,134.697 30.856,123.135 36.622,123.135 36.622,143.118 
		30.942,143.118 30.942,131.586 23.605,143.118 17.724,143.118 17.724,123.135 	"/>
	<polygon fill="#FEFEFE" points="41.24,143.118 41.24,123.135 47.122,123.135 47.122,143.118 	"/>
	<path fill="#FEFEFE" d="M51.751,123.135h9.678c1.808,0,3.129,0.323,3.968,0.971c0.837,0.647,1.389,1.36,1.654,2.141
		c0.134,0.362,0.225,0.71,0.271,1.043c0.049,0.332,0.073,0.642,0.073,0.927c0,1.028-0.309,1.903-0.93,2.627
		c-0.617,0.724-1.345,1.236-2.184,1.541v0.058c0.229,0.058,0.505,0.143,0.828,0.256c0.325,0.115,0.657,0.276,1,0.485
		c0.59,0.361,1.138,0.886,1.641,1.57c0.505,0.686,0.757,1.618,0.757,2.798c0,0.114-0.004,0.225-0.014,0.328
		c-0.009,0.104-0.014,0.215-0.014,0.329c-0.133,1.218-0.705,2.34-1.714,3.368c-1.008,1.028-2.607,1.541-4.795,1.541H51.466v-19.982
		H51.751z M57.345,139.122h2.284c0.152,0,0.352-0.005,0.599-0.014c0.247-0.01,0.495-0.044,0.743-0.101
		c0.418-0.096,0.798-0.289,1.141-0.585s0.514-0.767,0.514-1.414c0-0.628-0.176-1.08-0.528-1.355
		c-0.352-0.276-0.728-0.461-1.127-0.556c-0.229-0.039-0.454-0.063-0.672-0.072c-0.218-0.01-0.405-0.014-0.557-0.014h-2.398V139.122z
		 M57.345,131.015h2.055c0.819,0,1.409-0.129,1.77-0.386c0.362-0.258,0.599-0.548,0.714-0.87c0.038-0.115,0.062-0.225,0.071-0.328
		c0.009-0.106,0.014-0.205,0.014-0.3c0-0.515-0.185-0.978-0.557-1.385c-0.37-0.41-1.042-0.614-2.013-0.614h-2.055V131.015
		L57.345,131.015z"/>
	<polygon fill="#FEFEFE" points="94.452,143.118 94.452,128.62 88.896,128.62 88.896,123.135 105.889,123.135 105.889,128.62 
		100.332,128.62 100.332,143.118 	"/>
	<path fill="#FEFEFE" d="M103.191,143.118l7.106-19.982h7.08l7.078,19.982h-6.279l-1.085-3.454h-6.507l-1.113,3.454H103.191z
		 M113.838,128.217l-2.142,7.051h4.283L113.838,128.217L113.838,128.217z"/>
	<path fill="#FEFEFE" d="M125.486,143.118v-19.982h8.707c2.129,0,3.723,0.457,4.78,1.37c1.056,0.914,1.766,1.923,2.125,3.027
		c0.133,0.398,0.229,0.795,0.286,1.185s0.087,1.229,0.087,1.571s-0.029,0.708-0.087,1.098s-0.159,0.784-0.286,1.185
		c-0.348,1.103-1.045,2.118-2.111,3.041c-1.066,0.924-2.665,1.385-4.794,1.385h-2.827v6.121H125.486z M131.366,127.533v5.066h1.313
		c0.818,0,1.416-0.133,1.797-0.398c0.381-0.267,0.646-0.549,0.771-0.857c0.083-0.206,0.124-0.407,0.145-0.599
		c0.018-0.189,0.028-0.343,0.028-0.456c0-0.115-0.006-0.701-0.015-0.814c-0.011-0.115-0.024-0.229-0.043-0.343
		c-0.096-0.4-0.335-0.767-0.713-1.1c-0.381-0.333-1.037-0.499-1.97-0.499H131.366z"/>
	<path fill="#FEFEFE" d="M80.427,143.691l-0.164-0.002h-0.001l-0.161-0.001h-0.005l-0.155-0.003h-0.008
		c-3.26-0.098-5.759-1.151-7.5-3.164c-1.512-1.749-2.398-3.738-2.659-5.971l-0.001-0.01l-0.012-0.118l-0.001-0.007l-0.011-0.119
		l-0.001-0.009l-0.011-0.12c-0.011-0.129-0.02-0.256-0.026-0.385l-0.001-0.005l-0.004-0.126v-0.003l-0.004-0.127v-0.002
		l-0.005-0.129v-0.001l-0.001-0.131l0,0l-0.001-0.132l0.001-0.131l0,0l0.001-0.13v-0.002l0.005-0.129v-0.001l0.004-0.128v-0.003
		l0.004-0.126l0.001-0.004c0.006-0.129,0.015-0.258,0.026-0.386l0.011-0.12l0.001-0.007l0.011-0.12l0.001-0.008l0.012-0.118
		l0.001-0.008c0.261-2.232,1.146-4.224,2.659-5.974c1.739-2.012,4.24-3.065,7.5-3.161h0.008l0.155-0.004h0.005l0.161-0.003h0.001
		h0.164l0.285,0.028c0.789,0.003,1.533,0.06,2.237,0.165c2.307,0.431,3.938,1.558,5.326,3.195c0.099,0.117,0.194,0.234,0.287,0.353
		l-4.044,3.252c-0.079-0.116-0.162-0.225-0.253-0.328c-0.74-0.853-1.558-1.404-2.456-1.657l0,0l-0.042-0.013
		c-0.209-0.075-0.417-0.129-0.628-0.157c-0.118-0.017-0.235-0.027-0.349-0.033h-0.011l-0.013-0.002h-0.001l-0.016-0.002h-0.003l0,0
		h-0.018l-0.01-0.001l0,0h-0.018h-0.013l-0.012-0.002l-0.029-0.001h-0.001h-0.03h-0.011l-0.029-0.002h-0.003H80.57h-0.011h-0.011
		l0,0h-0.008h-0.01h-0.002l-0.038,0.002l0,0c-0.194,0.003-0.39,0.021-0.593,0.056c-0.159,0.027-0.318,0.067-0.474,0.115
		l-0.009,0.003l-0.011,0.004l-0.009,0.003l0,0l-0.011,0.003l0,0l-0.009,0.003l0,0l-0.011,0.005l0,0l-0.011,0.002l0,0l-0.009,0.004
		l0,0l-0.011,0.003l0,0l-0.01,0.003l0,0l-0.009,0.003l-0.011,0.003l-0.011,0.003l-0.009,0.005l-0.011,0.003l-0.009,0.005
		l-0.011,0.003c-0.875,0.265-1.679,0.832-2.413,1.698c-0.73,0.864-1.1,2.146-1.1,3.839c0,1.694,0.369,2.974,1.1,3.84
		c0.734,0.866,1.538,1.432,2.413,1.699l0.011,0.003l0.009,0.004l0.011,0.004l0.009,0.003l0.011,0.003l0.011,0.004l0.009,0.004l0,0
		l0.01,0.003l0,0l0.011,0.003l0,0l0.009,0.004l0,0l0.011,0.004l0,0l0.011,0.003l0,0l0.009,0.003l0,0l0.011,0.003l0,0l0.009,0.005
		h0.002l0.009,0.002l0,0l0.009,0.004h0.002c0.154,0.048,0.313,0.085,0.472,0.113c0.191,0.033,0.378,0.052,0.562,0.057h0.003h0.038
		h0.048h0.085h0.013l0.03-0.002l0,0h0.018h0.01v-0.002h0.003h0.012h0.003h0.003h0.013h0.006l0.014-0.001h0.005l0.033-0.003h0.001
		c0.111-0.006,0.227-0.019,0.345-0.035c0.211-0.028,0.419-0.08,0.628-0.156l0.042-0.012l0,0c0.898-0.254,1.716-0.807,2.456-1.659
		c0.091-0.104,0.174-0.213,0.253-0.328l4.044,3.252c-0.093,0.118-0.188,0.236-0.287,0.354c-1.383,1.634-3.012,2.76-5.312,3.194
		c-0.708,0.107-1.457,0.162-2.252,0.166L80.427,143.691L80.427,143.691z"/>
	<path fill="#FECC00" d="M37.634,110.308c2.888,0,5.231,2.343,5.231,5.23s-2.343,5.229-5.231,5.229
		c-2.886,0-5.229-2.342-5.229-5.229S34.747,110.308,37.634,110.308z M50.728,110.308c2.888,0,5.229,2.343,5.229,5.23
		s-2.342,5.229-5.229,5.229s-5.229-2.342-5.229-5.229S47.841,110.308,50.728,110.308z"/>
	<path fill="#FEFEFE" d="M70.084-4.519L70.084-4.519c3.976,0,7.226,3.252,7.226,7.226v26.857c0,3.975-3.25,7.225-7.226,7.225l0,0
		c-3.974,0-7.224-3.25-7.224-7.225V2.706C62.86-1.267,66.11-4.519,70.084-4.519z"/>
	<path fill="#FEFEFE" d="M15.531,35.118L15.531,35.118c1.229-3.779,5.323-5.866,9.103-4.639l25.543,8.301
		c3.779,1.227,5.866,5.323,4.638,9.103l0,0c-1.227,3.78-5.323,5.866-9.103,4.638L20.17,44.223
		C16.39,42.993,14.303,38.898,15.531,35.118z"/>
	<path fill="#FEFEFE" d="M36.37,99.25L36.37,99.25c-3.215-2.335-3.934-6.876-1.599-10.092l15.787-21.727
		c2.334-3.215,6.877-3.934,10.09-1.599l0,0c3.215,2.335,3.935,6.876,1.599,10.091L46.461,97.652
		C44.127,100.867,39.584,101.586,36.37,99.25z"/>
	<path fill="#FEFEFE" d="M103.803,99.25L103.803,99.25c-3.215,2.336-7.756,1.615-10.093-1.598L77.926,75.923
		c-2.338-3.216-1.617-7.756,1.597-10.092l0,0c3.215-2.336,7.756-1.615,10.092,1.599l15.787,21.729
		C107.736,92.372,107.017,96.913,103.803,99.25z"/>
	<path fill="#FEFEFE" d="M124.639,35.117L124.639,35.117c1.229,3.779-0.858,7.876-4.64,9.103l-25.542,8.299
		c-3.779,1.229-7.876-0.858-9.104-4.638l0,0c-1.227-3.779,0.858-7.876,4.64-9.103l25.542-8.301
		C119.314,29.251,123.411,31.338,124.639,35.117z"/>
</g>
</svg>
