<?xml version="1.0" encoding="utf-8"?>
<!DOCTYPE svg PUBLIC "-//W3C//DTD SVG 1.1//EN" "http://www.w3.org/Graphics/SVG/1.1/DTD/svg11.dtd">
<svg version="1.1" xmlns="http://www.w3.org/2000/svg" xmlns:xlink="http://www.w3.org/1999/xlink" x="0px" y="0px" width="216px" height="216px" viewBox="0 0 216 216" enable-background="new 0 0 216 216" xml:space="preserve">
<g>
	<path fill-rule="evenodd" clip-rule="evenodd" d="M54.089,94.198v0.991c0,17.883,5.952,34.649,13.083,45.391
		c3.671,5.532,8.923,11.18,14.505,14.831c4.898,3.203,14.029,7.37,21.966,7.37h6.343c9.269,0,18.771-4.521,24.421-8.286
		c6.329-4.219,11.953-10.195,16.174-16.53c8.027-12.052,15.104-30.299,15.104-50.308c0-34.582-18.807-69.376-52.329-69.376h-1.784
		c-9.648,0-19.572,3.978-25.412,7.889c-6.583,4.409-12.257,10.06-16.65,16.65C61.185,55.313,54.089,73.448,54.089,94.198
		L54.089,94.198z M61.225,99.352c0-31.732,26.301-74.926,56.294-74.926h0.792c13.288,0,23.991,7.755,29.653,15.54
		c5.566,7.654,10.585,21.504,10.585,34.608v6.938c0,18.48-8.598,37.459-16.252,48.368c-4.592,6.544-9.243,11.867-15.499,16.81
		c-4.842,3.825-14.309,9.352-22.759,9.352h-4.757c-6.098,0-12.802-3.117-16.784-5.416c-4.667-2.695-8.135-6.485-11.244-10.758
		c-5.391-7.411-10.03-21.234-10.03-33.975V99.352L61.225,99.352z M81.245,56.14c-2.665,0-8.092,3.627-4.211-0.841
		c1.467-1.689,3.583-4.114,6.59-4.114h1.784c4.641,0,9.221,3.594,11.646,5.996c1.58,1.565,6.59,8.462,6.789,10.853
		c1.377-0.368,9.216-15.461,19.029-15.461h0.99c3.144,0,5.154,4.221,5.154,7.73v0.793c0,3.596-1.441,7.597-2.576,10.11
		c-0.721,1.597-4.445,7.631-4.561,8.125c3.973,0.331,9.067,4.034,11.151,6.49c2.305,2.713,5.104,7.467,5.104,12.341v1.388
		c0,19.671-20.737,36.67-40.635,36.67H96.31c-2.155,0-3.964-1.997-3.964-4.162v-0.991l0.222-1.781
		c2.764,0.646,5.906,1.781,9.292,1.781h5.55c6.612,0,13.799-4.186,17.196-7.582c3.594-3.594,7.58-9.96,7.58-16.997v-4.757
		c0-3.798-1.893-8.444-3.484-10.787c-2.133-3.14-4.469-4.643-8.011-6.26c-2.961-1.353-3.981,0.101-2.184-2.976
		c0.829-1.419,1.575-3.236,2.244-4.892c1.271-3.147,2.516-7.254,2.516-11.557v-0.991c0-3.358-1.541-6.542-4.955-6.542h-0.396
		c-4.403,0-11.435,8.582-13.083,11.695c0.387,1.659,1.014,2.943,1.514,4.631c0.47,1.592,0.815,3.225,1.225,4.721
		c0.571,2.083,1.424,8.009,1.424,10.469c0,12.363-3.018,33.3-14.073,33.3c-4.952,0-6.739-6.531-6.739-11.695
		c0-6.956,2.378-14.743,4.132-20.05c0.864-2.617,2.262-6.258,3.467-8.624c0.726-1.424,1.269-2.732,1.982-4.163
		c0.227-0.455,2.114-3.829,2.114-3.833c0-2.521-4.904-9.805-6.394-11.445c-2.455-2.704-6.299-6.592-11.248-6.592H81.245
		L81.245,56.14z M93.336,104.505c0-4.815,1.274-11.667,2.299-15.738c0.693-2.757,3.535-11.904,5.034-13.003
		c0.809,3.471,1.788,6.638,2.503,10.58c0.599,3.305,0.867,8.517,0.867,12.215v2.18c0,5.819-1.174,19.624-6.145,19.624
		c-3.183,0-4.559-8.863-4.559-12.686V104.505z"/>
	<path fill-rule="evenodd" clip-rule="evenodd" d="M8.5,160.951l2.775-0.397c2.023-0.334,4.933,1.502,5.903,2.423
		c1.66,1.573,2.153,3.104,3.215,5.11c-2.111,3.989-5.55,11.317-5.55,17.244v1.189c0,2.333,1.279,4.955,3.568,4.955
		c4.883,0,6.938-9.267,6.938-14.668c0-1.905-0.183-3.924-0.438-5.706c-0.173-1.203-1.345-4.295-1.345-4.998
		c0-1.012,4.016-5.55,5.946-5.55c1.287,0,1.982,1.272,1.982,2.576v1.389c0,3.591-2.653,7.053-2.775,8.523
		c4.238,0.094,7.136,4.87,7.136,9.514c0,7.056-5.127,12.487-12.091,12.487h-3.171c-1.122,0-2.333-0.689-3.567-0.792v1.189
		c0,1.304,0.694,2.576,1.982,2.576h1.189c8.619,0,19.029-8.433,19.029-16.848v-1.982c0-2.078-1.503-4.386-2.457-5.67
		c-1.279-1.722-3.183-2.144-5.075-3.052c0.19-0.71,1.557-2.556,2.046-3.702c0.541-1.27,1.125-2.914,1.125-4.623v-1.388
		c0-1.473-1.407-2.973-2.973-2.973h-0.595c-1.934,0-3.875,1.591-4.906,2.626c-0.735,0.737-3.33,3.921-3.617,4.113
		c-1.502-2.839-4.62-7.533-8.722-7.533h-0.595C10.98,156.985,8.987,159.123,8.5,160.951L8.5,160.951z M18.015,181.169
		c0-2.655,1.714-10.377,2.973-11.299l1.523,8.502l-0.135,2.598c0,2.714-0.43,8.92-2.775,8.92c-0.835,0-1.585-3.263-1.585-4.36
		V181.169L18.015,181.169z M92.939,183.547v0.396c0,3.356,1.974,6.74,4.956,6.74h1.784c4.044,0,7.532-5.347,7.532-9.316v-2.379
		c0-2.479-2.653-5.353-5.153-5.353h-1.189C96.304,173.636,92.939,179.033,92.939,183.547L92.939,183.547z M96.31,182.754
		c0-3.511,1.167-7.73,4.559-7.73c2.321,0,3.171,3.34,3.171,5.748c0,3.201-1.117,8.523-3.965,8.523h-0.991
		c-1.714,0-2.775-2.53-2.775-4.36V182.754L96.31,182.754z M42.196,183.547v0.396c0,3.362,1.943,6.74,4.956,6.74h1.784
		c4.279,0,7.532-5.5,7.532-9.912v-1.783c0-2.689-2.687-5.353-5.55-5.353h-0.793C45.555,173.636,42.196,179.065,42.196,183.547
		L42.196,183.547z M45.566,182.358c0-3.02,1.384-7.335,4.163-7.335h0.198c2.103,0,3.37,2.64,3.37,4.559v1.189
		c0,3.251-1.125,8.523-3.965,8.523h-0.594c-2.21,0-3.171-2.382-3.171-4.559V182.358L45.566,182.358z M145.27,174.429
		c0.237,0.89,0.792,1.013,0.792,2.379l0.103,0.61l-1.292,8.508v1.586c0,1.955,1.542,3.172,3.568,3.172h1.188
		c3.397,0,7.532-3.436,7.532-6.74v-1.585c0-1.608-1.971-2.776-3.567-2.776c-2.108,0-3.545,0.513-4.932,1.194l0.77-5.158v-0.198
		c0-0.803-0.214-1.784-0.991-1.784h-0.794C147.267,173.636,145.591,174.274,145.27,174.429L145.27,174.429z M147.846,186.124
		c0-2.734,0.089-4.56,2.973-4.56h0.793c1.612,0,2.775,1.008,2.775,2.577c0,2.362-1.48,4.757-3.766,4.757h-0.992
		c-1.067,0-1.783-0.979-1.783-1.982V186.124L147.846,186.124z M194.427,174.429c0.09,1.081,0.991,1.369,0.991,2.974l0.075,0.605
		l-1.066,8.116v0.991c0,2.118,1.084,3.568,3.171,3.568h0.198c3.696,0,4.743-4.922,6.146-6.938c0,2.51-0.354,6.938,1.982,6.938
		c0.497,0,2.192-0.609,2.576-0.794c-0.476-1.78-1.388-1.796-1.388-4.955l-0.187-2.604l1.376-8.691l-2.974,0.593
		c-0.727,3.122-3.54,14.271-6.343,14.271h-0.396c-0.642,0-0.991-0.72-0.991-1.388l-0.038-1.987l1.029-9.113
		c0.113-0.886-0.607-2.379-1.388-2.379C196.004,173.636,195.399,174.202,194.427,174.429L194.427,174.429z M176.389,174.429
		c0.089,1.068,0.991,1.489,0.991,3.767l0.055,0.206l-1.046,7.325v2.181c0,1.478,1.522,2.776,2.973,2.776h0.198
		c4.218,0,4.764-5.122,6.344-6.938c0,2.348-0.35,6.938,1.783,6.938c0.917,0,2.136-0.487,2.775-0.794
		c-0.396-1.485-1.388-1.63-1.388-4.36l-0.171-2.797l1.149-8.977l-2.762,0.476c-0.707,3.034-3.709,14.271-6.343,14.271h-0.397
		c-0.684,0-1.25-1.328-1.293-1.799l1.096-8.707v-2.774C180.354,172.614,177.684,174.127,176.389,174.429L176.389,174.429z
		 M110.978,174.627c0.468,0.699,0.99,1.203,0.99,2.379l0.101,1.599l-1.289,10.294v1.189h3.171l-0.079-2.387l0.476-4.551h6.541v5.551
		c0,0.958,0.563,1.783,1.587,1.783h0.99c0.456,0,1.436-0.428,1.784-0.595c-0.458-0.685-1.388-1.809-1.388-2.974l-0.194-1.608
		l1.375-11.527l-2.982,0.448l-0.974,7.534l-0.795,0.048l-5.688-0.237l0.536-4.766v-0.991c0-0.893-0.375-1.982-1.189-1.982h-0.792
		C112.623,173.834,111.371,174.419,110.978,174.627L110.978,174.627z M160.135,174.429c0.077,0.923,1.167,1.586,1.028,3.176
		l-1.227,12.483h3.172l-0.251-0.02l0.647-7.71c2.681,0.223,4.105,8.126,6.938,8.126h0.792c0.948,0,1.944-0.29,2.578-0.595
		c-0.342-0.466-1.396-0.894-2.132-1.635c-0.89-0.896-1.073-1.068-1.699-2.264c-0.9-1.718-1.888-3.299-2.909-4.822
		c0.542-0.81,3.218-4.56,4.162-4.56c0.629,0,0.976,0.595,1.189,0.595c0.58,0,1.389-0.988,1.389-1.586
		c0-1.134-0.685-1.784-1.784-1.784c-3.571,0-4.554,7.136-8.202,7.127l0.471-4.153v-1.189c0-0.681-0.514-1.784-1.188-1.784h-0.396
		C161.377,173.834,161.089,174.207,160.135,174.429L160.135,174.429z M77.479,174.429c0.264,1.133,0.991,1.215,0.991,2.775
		l0.088,0.604l-1.278,12.279h3.171v-3.567c0-10.855,4.459,3.964,7.334,3.964h0.991c1.066,0,2.146-0.121,2.378-0.99
		c-2.613-0.219-5.316-6.2-6.739-8.325c0.544-0.813,3.37-4.56,4.361-4.56c0.612,0,0.657,0.595,1.388,0.595
		c0.416,0,0.991-1.197,0.991-1.784c0-0.938-0.806-1.586-1.585-1.586c-3.875,0-4.59,7.136-8.362,7.132l0.434-4.158l0.045-0.203
		l-0.243-2.176c-0.409-0.272-0.515-0.595-0.991-0.595h-0.793C78.854,173.834,78.531,174.342,77.479,174.429L77.479,174.429z
		 M62.613,174.627c0.519,0.98,0.793,1.662,0.793,3.172v0.396c0,3.264-1.306,9.316-4.163,9.316h-1.586v1.189
		c0,0.803,0.214,1.783,0.991,1.783h0.991c2.247,0,4.297-3.861,4.716-5.79c0.433-1.996,1.429-7.296,1.428-9.283l4.128-0.392
		l-1.353,11.698v0.596c0,1.202,0.334,3.171,1.388,3.171h0.991c0.735,0,1.678-0.354,2.181-0.595
		c-0.858-1.281-1.387-1.761-1.387-3.964l-0.173-0.221l1.561-11.871h-6.145C65.305,173.834,63.733,174.089,62.613,174.627
		L62.613,174.627z M128.618,182.754v2.379c0,2.943,2.383,5.551,5.353,5.551h1.189c1.904,0,3.879-1.507,5.153-2.181v-1.189
		c-1.419,0.751-2.332,1.783-4.56,1.783c-2.302,0-3.765-2.165-3.765-4.36v-1.784c0-3.415,1.169-7.929,4.359-7.929
		c0.96,0,1.586,0.627,1.586,1.586v0.595c0,0.683-0.146,0.768-0.198,1.387h1.586c0.842,0,1.586-0.737,1.586-1.387v-0.793
		c0-1.585-1.995-2.775-3.568-2.775h-0.396C132.236,173.636,128.618,178.303,128.618,182.754L128.618,182.754z M197.003,167.888
		c0,1.487,0.967,2.775,2.379,2.775h1.388c2.073,0,6.739-1.68,6.739-3.172c0-0.757,0.061-0.072-0.198-0.594
		c-1.419,0.378-2.179,1.783-4.757,1.783c-1.618,0-2.344-1.194-2.379-2.774C198.566,165.906,197.003,166.324,197.003,167.888z"/>
</g>
</svg>
