<?xml version="1.0" encoding="utf-8"?>
<!DOCTYPE svg PUBLIC "-//W3C//DTD SVG 1.1//EN" "http://www.w3.org/Graphics/SVG/1.1/DTD/svg11.dtd">
<svg version="1.1" id="Слой_1" xmlns="http://www.w3.org/2000/svg" xmlns:xlink="http://www.w3.org/1999/xlink" x="0px" y="0px" width="216px" height="216px" viewBox="0 0 216 216" enable-background="new 0 0 216 216" xml:space="preserve">
<rect fill="#FFFFFF" width="216" height="216"/>
<g>
	<path fill="#42B649" d="M131.673,114.729c-6.515-0.545-12.278,5.816-12.838,14.182c-0.559,8.386,4.241,15.662,10.775,16.212
		c6.516,0.559,12.269-5.803,12.838-14.217S138.188,115.277,131.673,114.729z M127.249,128.294c-1.436,0.077-2.641-1.523-2.708-3.547
		c-0.067-2.024,1.041-3.701,2.468-3.749c1.426-0.049,2.641,1.522,2.698,3.537c0.058,2.023-0.983,3.691-2.458,3.749V128.294z"/>
	<path fill="#42B649" d="M90.538,129.122c-0.66-8.404-6.308-14.799-12.611-14.351c-6.303,0.453-10.886,7.682-10.211,16.086
		c0.67,8.385,6.284,14.804,12.587,14.351C86.606,144.756,91.203,137.518,90.538,129.122z M75.589,129.45
		c-1.431,0.366-2.911-0.964-3.33-2.987c-0.419-2.024,0.419-3.933,1.85-4.318c1.432-0.386,2.916,0.983,3.325,2.988
		C77.84,127.137,77.016,129.084,75.589,129.45z"/>
	<path fill="#42B649" d="M103.434,160.87c-6.9-0.54-13.449-3.258-18.707-7.749c0,0,7.604,12.915,18.789,13.416
		c11.6,0.501,20.891-12.163,20.891-12.163S114.186,161.535,103.434,160.87z"/>
	<path fill="#42B649" d="M204.469,90.098l-1.06-0.39c-3.624-1.354-12.115-4.491-15.903-10.077c-0.414-0.617-0.953-1.465-1.57-2.467
		c-7.055-11.205-28.51-45.342-76.333-45.342c-49.612,0-74.42,32.49-82.569,43.178c-0.82,1.061-1.658,2.165-1.957,2.467
		c-2.665,2.583-5.947,4.438-9.527,5.393c-3.297,0.892-7.104,2.323-7.335,5.552c-0.236,3.224,3.46,4.935,4.154,5.243
		c0.429,0.188,10.164,4.858,11.431,21.859c2.053,29.512,19.469,39.015,23.397,40.798c3.262,5.985,8.505,11.46,15.507,16.038
		c11.72,7.652,27.396,12.047,43.043,12.047c16.963,0,32.981-4.27,45.105-12.039c6.486-4.143,11.47-9.059,14.805-14.475
		c1.851-1.022,11.142-6.207,16.654-12.386c6.516-7.247,8.529-17.203,10.332-25.993c1.984-9.734,3.701-18.12,10.659-20.119
		c3.913-1.138,4.819-3.133,4.896-4.607C208.296,92.797,206.908,91.038,204.469,90.098z M181.646,79.867
		c0.655,1.022,1.232,1.923,1.687,2.608c1.108,1.594,2.419,3.03,3.902,4.274c-0.221,7.744-6.042,13.999-10.369,19.463
		c-3.855,4.848-6.487,10.385-8.954,16.201c-1.494,3.537-3.479,6.419-6.746,7.065c-2.295-5.108-5.397-9.812-9.176-13.941
		l-0.337-0.348c4.212-3.181,7.912-7.802,9.59-13.165c2.14-6.872,1.079-14.361,2.891-21.334c1.494-5.72,4.396-11.026,5.975-16.727
		C174.398,68.933,178.264,74.249,181.646,79.867z M140.405,58.278c0.212-2.752,0.241-5.639,0.78-8.347
		c0.357-2.154,0.955-4.26,1.773-6.284c8.713,3.918,16.626,9.417,23.324,16.221c-1.696,6.786-5.416,14.385-6.226,16.14
		c-1.389,3.04-2.42,6.235-3.085,9.518c-0.713,3.445-1.079,7.011-1.994,10.409c-0.675,2.669-2.044,5.113-3.972,7.084
		c-2.313,2.4-4.982,3.701-7.884,4.935c-3.739-2.487-7.749-4.511-11.971-6.034c0.425-0.458,0.858-0.93,1.234-1.417
		c-0.202,0.25-0.328,0.405,0.038-0.063c0.617-0.767,0.328-0.396,0.058-0.053c7.46-9.311,6.593-22.206,7.402-34.065
		c0.154-2.708,0.318-5.378,0.521-8.057V58.278z M112.488,45.146c0.555-2.622,1.34-5.364,1.683-8.168
		c6.36,0.279,12.654,1.287,18.774,3.012c-1.002,3.239-1.503,6.612-1.513,10.005c0,2.337,0.222,4.679,0.395,7.021
		c0.425,6.25,0.983,12.505,1.041,18.794c0.067,7.084-1.436,15.421-5.397,21.247c-0.713,1.051-1.522,2.029-2.429,2.911
		c-4.356-1.113-8.79-1.865-13.262-2.241c-0.299-0.53-0.568-1.075-0.795-1.638c-4.381-10.708-3.933-22.414-2.063-33.805
		C109.867,56.495,111.304,50.857,112.488,45.146z M108.937,36.863c-0.674,2.795-1.499,5.552-2.467,8.259
		c-2.039,5.846-3.701,11.624-5.325,17.652c-3.046,11.281-3.971,23.112-1.518,34.605c-2.925,0.097-5.851,0.342-8.751,0.737
		c-0.227-0.231-0.443-0.468-0.617-0.651c-3.214-3.604-4.824-8.717-5.807-13.57c-1.195-5.884-1.658-11.941-2.207-17.937
		c-0.549-5.898-1.079-11.917-2.853-17.55c-0.645-2.053-1.455-4.053-2.424-5.976C87.223,38.751,98.037,36.867,108.937,36.863z
		 M71.175,44.775c2.467,4.356,5.277,11.898,5.628,23.228c0.333,10.727-0.25,22.524,4.506,32.152c-2.8,0.8-5.527,1.832-8.159,3.084
		l-0.448-0.246c-1.171-0.631-2.284-1.373-3.311-2.217c-1.957-1.614-3.677-3.494-5.108-5.59c-2.949-4.222-4.843-9.214-6.063-14.366
		c-1.851-7.831-4.226-16.037-8.448-22.755C56.265,52.678,63.465,48.207,71.175,44.775z M46.247,149.96
		c-4.318-2.814-11.527-9.253-15.228-22.109c0.945,1.58,2,3.104,3.156,4.539c1.503,1.88,3.302,3.518,5.32,4.839
		c2.227,1.455,4.805,2.284,7.469,2.399h0.208C46.608,143.05,46.299,146.5,46.247,149.96z M46.815,130.529
		c-1.406,0.154-2.829,0.02-4.183-0.395c-1.465-0.54-2.81-1.359-3.966-2.4c-1.354-1.224-2.612-2.563-3.749-3.99
		c-1.233-1.475-2.38-3.084-3.494-4.703c-0.901-1.33-1.764-2.693-2.603-4.082c-1.546-20.071-13.859-25.743-14.423-25.984
		c-0.135-0.067-0.308-0.154-0.477-0.25c0.945-0.434,1.928-0.781,2.94-1.032c4.313-1.152,8.265-3.364,11.498-6.438
		c1.619,2.362,2.983,4.886,4.067,7.537c0.718,1.778,1.431,3.566,2.255,5.272c1.345,2.887,3.339,5.421,5.831,7.402
		c1.258,0.983,2.699,1.697,4.236,2.106c0.954,0.168,1.938,0.14,2.881-0.082c0.554-0.208,0.617-0.651,0.068-0.935l0,0
		c-5.084-2.742-7.181-8.327-8.723-13.985c-1.257-4.713-3.186-9.219-5.725-13.377c3.87-4.968,8.144-9.604,12.78-13.859
		c1.638,2.415,2.636,5.927,3.494,9.349C50.613,75,51.181,79.4,51.991,83.775c1.701,9.532,5.826,18.602,12.621,24.77
		c-1.658,1.287-3.224,2.684-4.684,4.193c-4.631,4.953-8.144,10.843-10.298,17.271c-0.926,0.231-1.865,0.405-2.815,0.502V130.529z
		 M105.747,179.298c-24.9,0-46.711-11.142-54.417-26.177c-0.265-7.45,0.569-24.673,12.245-36.89
		c8.775-9.199,21.984-13.864,39.27-13.864c0.959,0,1.957,0,2.94,0.063c18.553,0.54,32.836,6.096,42.446,16.496
		c12.414,13.436,13.358,31.188,13.396,35.642C153.146,169.005,131.307,179.298,105.747,179.298z M187.709,118.443
		c-1.754,8.568-3.547,17.426-9.137,23.633c-3.383,3.778-8.54,7.248-11.971,9.368c-0.27-4.105-0.925-8.173-1.966-12.163
		c4.684-2.005,8.26-6.246,9.927-11.604c1.619-5.166,2.824-10.486,5.34-15.209c3.893-7.329,10.38-14.298,10.948-23.102
		c3.412,2.063,7.036,3.769,10.794,5.084l0.175,0.053C191.998,97.389,189.916,107.62,187.709,118.443z"/>
	<path fill="#42B649" d="M199.043,74.961h-1.542v-6.747c0.849-0.13,1.687-0.192,2.525-0.197c1.233,0,1.812,0.197,2.236,0.52
		c0.462,0.333,0.723,0.873,0.702,1.441c-0.047,0.781-0.606,1.436-1.358,1.605v0.083c0.617,0.207,0.964,0.732,1.157,1.638
		c0.077,0.569,0.231,1.119,0.472,1.639h-1.6c-0.26-0.516-0.434-1.07-0.53-1.639c-0.115-0.689-0.521-1.017-1.349-1.017h-0.714V74.961
		z M199.043,71.188h0.732c0.829,0,1.514-0.285,1.514-0.983c0-0.694-0.434-1.021-1.407-1.021c-0.279,0-0.56,0.024-0.839,0.067V71.188
		z M193.309,71.473c-0.01,3.778,3.036,6.853,6.814,6.862c3.777,0.014,6.853-3.036,6.862-6.814c0.019-3.778-3.036-6.853-6.814-6.867
		c-0.03,0-0.048,0-0.077,0c-3.739,0.029-6.756,3.079-6.737,6.819H193.309z M195.004,71.521c0-3.041,2.188-5.484,5.157-5.484
		c3.007,0.198,5.281,2.795,5.088,5.802c-0.182,2.761-2.408,4.95-5.165,5.084c-2.843,0.034-5.031-2.414-5.031-5.402H195.004z"/>
</g>

</svg>
