<?xml version="1.0" encoding="utf-8"?>
<!DOCTYPE svg PUBLIC "-//W3C//DTD SVG 1.1//EN" "http://www.w3.org/Graphics/SVG/1.1/DTD/svg11.dtd">
<svg version="1.1" id="Layer_1" xmlns="http://www.w3.org/2000/svg" xmlns:xlink="http://www.w3.org/1999/xlink" x="0px" y="0px" width="216px" height="216px" viewBox="0 0 216 216" enable-background="new 0 0 216 216" xml:space="preserve">
<g>
	<path fill-rule="evenodd" clip-rule="evenodd" fill="#FFB530" d="M99.325,56.431c11.629,0,21.06,8.53,21.06,19.048
		s-9.431,19.048-21.06,19.048s-21.06-8.53-21.06-19.048S87.696,56.431,99.325,56.431L99.325,56.431z M110.037,79.624
		c-2.825,2.433-7.026,3.976-11.718,3.976c-3.771,0-7.225-0.997-9.902-2.651c1.377,4.661,5.628,8.058,10.657,8.058
		C104.568,89.006,109.133,84.952,110.037,79.624L110.037,79.624z M108.063,65.232c-3.264,0-5.909,2.646-5.909,5.909
		c0,3.263,2.646,5.909,5.909,5.909c3.263,0,5.909-2.646,5.909-5.909C113.973,67.879,111.326,65.232,108.063,65.232L108.063,65.232z
		 M88.952,65.232c-3.263,0-5.909,2.646-5.909,5.909c0,3.263,2.646,5.909,5.909,5.909c3.264,0,5.909-2.646,5.909-5.909
		C94.861,67.879,92.216,65.232,88.952,65.232L88.952,65.232z M127.563,76.528c-0.505,10.382-6.532,22.295-15.851,27.343
		c2.784,1.253,5.967,1.972,9.302,1.972c2.105,0,4.155-0.104,6.164-0.29c7.059-6.817,8.689-15.27,8.957-23.345
		C134.063,79.681,131.079,77.685,127.563,76.528L127.563,76.528z M111.709,103.869c-0.1-0.045-0.199-0.091-0.299-0.137
		C111.51,103.778,111.609,103.825,111.709,103.869L111.709,103.869z M56.458,160.28v11.03h2.647v-6.783l2.947,4.459
		c0.604,1.131,1.774,1.005,2.189,0l2.947-4.271v6.595h2.648v-11.03h-2.649l-4.041,6.022l-3.412-6.022H56.458L56.458,160.28z
		 M89.894,160.28h-2.429v1.554h-0.04c-0.398-0.628-0.903-1.105-1.51-1.428c-0.607-0.321-1.305-0.484-2.095-0.484
		c-0.766,0.004-1.479,0.153-2.14,0.445c-0.66,0.295-1.241,0.706-1.739,1.24c-0.501,0.535-0.889,1.165-1.168,1.893
		c-0.282,0.727-0.425,1.525-0.428,2.396c0.003,0.713,0.1,1.37,0.292,1.968c0.192,0.601,0.458,1.135,0.8,1.603
		c0.342,0.472,0.736,0.869,1.191,1.198c0.454,0.325,0.945,0.577,1.473,0.746c0.528,0.173,1.075,0.259,1.64,0.259
		c0.149,0.004,0.361-0.01,0.641-0.043c0.278-0.033,0.591-0.109,0.938-0.226c0.353-0.119,0.707-0.302,1.072-0.554
		c0.365-0.253,0.71-0.595,1.032-1.029h0.04v1.493h2.429V160.28L89.894,160.28z M84.239,162.431c0.48,0.004,0.912,0.087,1.301,0.252
		c0.388,0.17,0.72,0.402,0.999,0.704c0.278,0.302,0.49,0.653,0.64,1.059c0.149,0.408,0.226,0.85,0.226,1.33
		c-0.003,0.674-0.136,1.265-0.401,1.772c-0.262,0.505-0.63,0.899-1.102,1.182c-0.475,0.282-1.028,0.428-1.662,0.431
		c-0.484-0.003-0.926-0.083-1.321-0.245c-0.397-0.163-0.74-0.392-1.025-0.684c-0.289-0.295-0.508-0.641-0.663-1.035
		c-0.156-0.398-0.232-0.83-0.236-1.301c0.004-0.501,0.083-0.963,0.239-1.381c0.156-0.421,0.379-0.786,0.667-1.099
		c0.289-0.312,0.631-0.554,1.025-0.723C83.319,162.521,83.758,162.435,84.239,162.431L84.239,162.431z M98.079,174.994h2.647v-4.878
		h0.04c0.352,0.432,0.724,0.764,1.122,0.985c0.397,0.226,0.789,0.379,1.175,0.458c0.381,0.076,0.723,0.113,1.028,0.109
		c0.703-0.003,1.344-0.109,1.921-0.321c0.581-0.209,1.092-0.501,1.54-0.873c0.448-0.375,0.826-0.81,1.135-1.304
		c0.309-0.495,0.541-1.029,0.7-1.604c0.159-0.57,0.239-1.164,0.239-1.771c-0.007-0.893-0.152-1.702-0.441-2.423
		c-0.289-0.72-0.69-1.337-1.198-1.852c-0.511-0.514-1.099-0.909-1.762-1.185c-0.667-0.272-1.377-0.411-2.134-0.415
		c-0.219-0.003-0.478,0.021-0.783,0.063c-0.306,0.046-0.624,0.133-0.959,0.259s-0.66,0.305-0.973,0.544
		c-0.314,0.235-0.59,0.545-0.829,0.926h-0.04v-1.434h-2.429V174.994L98.079,174.994z M103.813,162.431
		c0.444,0.004,0.839,0.073,1.185,0.206c0.345,0.136,0.644,0.318,0.893,0.547c0.252,0.229,0.454,0.488,0.617,0.777
		c0.159,0.289,0.278,0.591,0.354,0.902c0.08,0.309,0.116,0.614,0.116,0.912c-0.003,0.491-0.083,0.943-0.242,1.351
		c-0.162,0.412-0.389,0.771-0.68,1.075c-0.292,0.303-0.638,0.538-1.036,0.704c-0.395,0.169-0.832,0.252-1.308,0.255
		c-0.451,0-0.865-0.076-1.247-0.229s-0.714-0.372-0.999-0.66c-0.282-0.292-0.501-0.644-0.66-1.059
		c-0.156-0.415-0.235-0.89-0.239-1.417c0.004-0.484,0.08-0.933,0.236-1.341c0.155-0.408,0.374-0.763,0.663-1.065
		c0.285-0.302,0.627-0.537,1.025-0.707C102.887,162.518,103.328,162.435,103.813,162.431L103.813,162.431z M117.38,171.311h2.648
		v-5.296l3.982,5.296h3.345l-4.639-5.854l4.399-5.177h-3.146l-3.942,5.058v-5.058h-2.648V171.311L117.38,171.311z M145.597,166.971
		c0.03-0.199,0.046-0.395,0.053-0.588c0.007-0.192,0.007-0.388,0.007-0.587c-0.003-0.826-0.14-1.593-0.414-2.303
		c-0.272-0.71-0.658-1.331-1.162-1.865c-0.501-0.534-1.099-0.952-1.792-1.251s-1.46-0.451-2.306-0.455
		c-0.664,0.004-1.268,0.093-1.819,0.266c-0.547,0.173-1.038,0.412-1.473,0.717c-0.435,0.302-0.816,0.65-1.139,1.045
		c-0.322,0.396-0.591,0.813-0.807,1.258c-0.212,0.445-0.371,0.893-0.478,1.348s-0.159,0.896-0.159,1.32
		c0,0.512,0.076,1.036,0.226,1.573c0.152,0.538,0.382,1.059,0.687,1.56c0.306,0.501,0.69,0.949,1.155,1.351
		c0.465,0.398,1.012,0.717,1.64,0.952c0.627,0.232,1.333,0.353,2.127,0.358c0.09,0.004,0.249-0.003,0.474-0.02
		c0.227-0.014,0.498-0.057,0.817-0.119c0.318-0.066,0.66-0.173,1.028-0.318c0.368-0.146,0.736-0.353,1.108-0.611
		s0.724-0.591,1.056-0.995c0.331-0.405,0.623-0.899,0.872-1.48h-2.986c-0.223,0.263-0.468,0.472-0.74,0.624
		c-0.275,0.149-0.558,0.259-0.853,0.318c-0.296,0.063-0.588,0.097-0.876,0.093c-0.475-0.003-0.909-0.089-1.301-0.266
		c-0.396-0.176-0.727-0.428-1.003-0.756c-0.271-0.325-0.468-0.714-0.584-1.168H145.597L145.597,166.971z M136.916,164.621
		c0.149-0.441,0.371-0.826,0.667-1.151c0.295-0.329,0.646-0.581,1.055-0.764s0.856-0.271,1.345-0.275
		c0.454,0,0.879,0.087,1.271,0.259c0.392,0.17,0.73,0.418,1.016,0.743s0.491,0.724,0.62,1.188H136.916L136.916,164.621z
		 M151.703,160.28v2.35h4.062v8.681h2.647v-8.681h3.905v-2.35H151.703z"/>
	<path fill-rule="evenodd" clip-rule="evenodd" fill="#FFFFFF" d="M110.037,79.624c-0.904,5.328-5.469,9.382-10.963,9.382
		c-5.029,0-9.28-3.397-10.657-8.058c2.678,1.654,6.132,2.651,9.902,2.651C103.011,83.6,107.212,82.057,110.037,79.624
		L110.037,79.624z M108.263,67.37c0.163,0,0.323,0.01,0.48,0.03c-0.429,0.373-0.699,0.923-0.699,1.536
		c0,1.124,0.912,2.036,2.036,2.036c0.753,0,1.411-0.409,1.764-1.018c0.123,0.374,0.19,0.772,0.19,1.188
		c0,2.083-1.688,3.772-3.771,3.772s-3.772-1.689-3.772-3.772C104.49,69.059,106.18,67.37,108.263,67.37L108.263,67.37z M88.9,67.37
		c0.163,0,0.323,0.01,0.48,0.03c-0.429,0.373-0.699,0.923-0.699,1.536c0,1.124,0.912,2.036,2.036,2.036
		c0.753,0,1.411-0.409,1.763-1.018c0.124,0.374,0.191,0.772,0.191,1.188c0,2.083-1.689,3.772-3.771,3.772
		c-2.083,0-3.772-1.689-3.772-3.772C85.128,69.059,86.817,67.37,88.9,67.37L88.9,67.37z M108.063,65.232
		c-3.264,0-5.909,2.646-5.909,5.909c0,3.263,2.646,5.909,5.909,5.909c3.263,0,5.909-2.646,5.909-5.909
		C113.973,67.879,111.326,65.232,108.063,65.232L108.063,65.232z M88.952,65.232c-3.263,0-5.909,2.646-5.909,5.909
		c0,3.263,2.646,5.909,5.909,5.909c3.264,0,5.909-2.646,5.909-5.909C94.861,67.879,92.216,65.232,88.952,65.232z"/>
	<path fill-rule="evenodd" clip-rule="evenodd" fill="#345B02" d="M108.263,67.37c0.163,0,0.323,0.01,0.48,0.03
		c-0.429,0.373-0.699,0.923-0.699,1.536c0,1.124,0.912,2.036,2.036,2.036c0.753,0,1.411-0.409,1.764-1.018
		c0.123,0.374,0.19,0.772,0.19,1.188c0,2.083-1.688,3.772-3.771,3.772s-3.772-1.689-3.772-3.772
		C104.49,69.059,106.18,67.37,108.263,67.37L108.263,67.37z M88.9,67.37c0.163,0,0.323,0.01,0.48,0.03
		c-0.429,0.373-0.699,0.923-0.699,1.536c0,1.124,0.912,2.036,2.036,2.036c0.753,0,1.411-0.409,1.763-1.018
		c0.124,0.374,0.191,0.772,0.191,1.188c0,2.083-1.689,3.772-3.771,3.772c-2.083,0-3.772-1.689-3.772-3.772
		C85.128,69.059,86.817,67.37,88.9,67.37z"/>
	<path fill-rule="evenodd" clip-rule="evenodd" fill="#62A61D" d="M102.22,56.022l-0.631,0.008c-0.346,0.005-0.271-1.44-0.214-1.78
		c1.229-7.303,4.064-11.517,8.443-14.061c0.887-0.514,2.132-0.684,2.455-0.559c0.789,0.306,1.39,1.052,1.519,1.61
		c0.078,0.337-0.335,1.57-0.666,1.668c-4.296,1.283-7.761,1.596-10.298,11.611C102.744,54.855,102.565,56.018,102.22,56.022
		L102.22,56.022z M93.671,56.022l0.632,0.008c0.345,0.005,0.271-1.44,0.213-1.78c-1.229-7.303-4.064-11.517-8.443-14.061
		c-0.886-0.514-2.132-0.684-2.454-0.559c-0.789,0.306-1.39,1.052-1.52,1.61c-0.078,0.337,0.335,1.57,0.666,1.668
		c4.296,1.283,7.761,1.596,10.298,11.611C93.147,54.855,93.325,56.018,93.671,56.022L93.671,56.022z M125.249,56.064
		c3.815-4.764,9.742-6.42,13.234-3.697c1.381,1.076,2.175,2.676,2.395,4.511c-1.585,0.06-3.205,0.294-4.731,0.734l-0.215,0.053
		c-5.41,1.659-8.806,6.265-8.428,10.362c1.068-3.891,4.662-6.713,8.406-7.792c0.35-0.1,2.537-0.729,2.907-0.8
		c2.082-0.403,4.124-0.195,6.187,0.606c2.209,0.858,3.869,2.395,4.484,4.433c1.281,4.239-2.436,9.047-8.301,10.737
		c-2.141,0.617-4.186,0.645-6.116,0.677c-3.177,0.053-7.612-0.442-10.231-1.945c-1.181-0.814-1.547-1.919-2.185-3.627
		C122.017,68.606,121.435,60.829,125.249,56.064L125.249,56.064z M136.135,82.208c1.965,2.396,3.109,5.27,3.109,8.359
		c0,3.006,0.426,8.198,0.443,12.818c-4.074,0.979-8.196,1.766-12.51,2.168C134.236,98.735,135.867,90.283,136.135,82.208
		L136.135,82.208z M120.511,75.417c-0.042,0-0.085,0.001-0.127,0.001c0,0.021,0.001,0.041,0.001,0.062
		c0,9.577-7.818,17.504-17.996,18.847c1.346,4.07,4.809,7.512,9.323,9.545c9.442-5.115,15.38-16.901,15.743-27.378
		C125.307,75.799,122.964,75.417,120.511,75.417L120.511,75.417z M35.59,113.181c0,11.278,0,22.423,0,33.701
		c-2.396,0.024-4.539,0.928-6.934,0.952c-2.113,0.021-4.479-0.839-6.592-0.817v-22.475h-5.915c0,7.491,0,14.983,0,22.475
		c-2.191,0-4.383,0.88-6.575,0.88c-2.191,0-4.383-0.88-6.574-0.88v-33.836H35.59L35.59,113.181z M72.396,113.306l-0.188,20.753
		c0.344,5.85,0.688,11.447,4.806,14.153l1.166,0.942l-7.995,0.251c-7.627-0.696-11.357-5.793-11.315-12.021
		c-2.543,1.314-5.846,1.72-9.152,1.72c-4.833,0-5.816-0.955-8.233-3.117c-2.416-2.161-1.864-7.209-1.864-11.872
		c0-3.561,0-7.122,0-10.683c2.014,0,4.027-0.754,6.041-0.754s4.646,0.589,6.659,0.589l0.029,7.604
		c0.014,3.488,0.807,6.097,2.951,6.097c2.204,0,1.663-0.564,3.443-1.497c0-4.599,0-7.313,0-11.912
		c2.275-0.042,4.552-0.713,6.827-0.755C67.846,112.762,70.121,113.348,72.396,113.306L72.396,113.306z M80.913,113.181
		c2.014,0,4.027-0.629,6.041-0.629s4.027,0.629,6.041,0.629c0,11.488-0.099,22.608-0.099,34.097c-1.94,0-4.03,0.56-5.971,0.56
		c-2.087,0-4.024-0.56-6.111-0.56C80.814,135.789,80.913,124.669,80.913,113.181L80.913,113.181z M87.146,109.365
		c-1.811,0-3.273-0.568-4.388-1.704c-1.115-1.136-1.672-2.545-1.672-4.229c0-1.685,0.557-3.094,1.672-4.229
		c1.114-1.136,2.577-1.704,4.388-1.704c1.812,0,3.273,0.539,4.388,1.616c1.115,1.076,1.672,2.457,1.672,4.141
		c0,1.763-0.557,3.221-1.672,4.376C90.419,108.787,88.957,109.365,87.146,109.365L87.146,109.365z M137.114,113.181
		c0,11.11,0,22.222,0,33.333c-2.265,0-4.23,1.118-6.495,1.118c-2.266,0-4.83-1.118-7.096-1.118v-22.852h-4.185l-0.255,4.397
		c-0.26,4.489-0.614,6.946-1.335,9.871c-1.762,7.151-6.024,9.923-13.217,9.923c-1.483,0-5.171-0.789-7.587-1.969
		c0.18-2.01-0.129-3.724,0.541-6.029c0.529-1.827,1.654-2.719,2.481-4.078c0.764,0.085,1.209,0.127,1.464,0.127
		c4.766,0,3.85-4.393,4.33-8.667l1.621-14.439L137.114,113.181L137.114,113.181z M158.318,133.969l-3.497,3.415
		c0,4.091,0,5.165,0,9.255c-2.244,0-4.488,1.132-6.732,1.132s-4.488-1.132-6.732-1.132c0-11.488,0-21.97,0-33.458
		c2.104,0,4.208-0.881,6.312-0.881c2.384,0,4.769,0.881,7.153,0.881v10.831h1.306c1.771-3.61,3.543-7.221,5.314-10.831
		c2.331,0,5.039-0.755,7.37-0.755c2.642,0,4.907,0.755,7.549,0.755c-2.392,5.028-5.201,9.743-8.933,13.767
		c3.976,6.61,6.798,13.22,9.098,19.83c-2.496,0.007-4.992,0.769-7.488,0.775c-2.202,0.006-4.405-0.742-6.607-0.735L158.318,133.969
		L158.318,133.969z M192.428,137.46c2.155,0.031,2.033-1.8,2.066-3.707v-2.988h-1.257c-3.519,0-4.146,1.166-4.146,3.497
		C189.091,136.771,190.248,137.428,192.428,137.46L192.428,137.46z M193.045,112.23c5.724,0,7.766,0.99,10.775,3.597
		c1.48,1.283,2.035,5.704,2.025,10.146l-0.024,10.386c-0.012,5.014,5.01,5.631,9.966,5.148l0.213,0.671
		c-4.694,3.645-10.25,5.144-15.591,5.592c-5.719,0.479-6.107,0.446-11.367-0.307c-3.027-0.435-7.754-3.153-9.34-5.686
		c-0.997-1.59-1.872-3.904-1.872-5.939c0-3.265,0.289-6.212,2.621-8.228c2.375-2.053,3.596-3.05,7.175-3.016l6.742,0.063
		c-0.212-3.646-0.64-4.338-3.292-3.961c-2.493,0.354-3.387,0.181-5.463,0.794c-0.793,0.234-1.879,0.184-2.188-0.633l-1.359-4.711
		c-0.108-0.641,0.099-1.406,0.808-1.921C186.693,112.539,187.922,112.23,193.045,112.23z"/>
</g>
</svg>
