<?xml version="1.0" encoding="utf-8"?>
<!DOCTYPE svg PUBLIC "-//W3C//DTD SVG 1.1//EN" "http://www.w3.org/Graphics/SVG/1.1/DTD/svg11.dtd">
<svg version="1.1" id="Layer_1" xmlns="http://www.w3.org/2000/svg" xmlns:xlink="http://www.w3.org/1999/xlink" x="0px" y="0px" width="216px" height="216px" viewBox="0 0 216 216" enable-background="new 0 0 216 216" xml:space="preserve">
<g>
	<path fill="#FFFFFF" fill-opacity="0" d="M0.122,0.122h216v216h-216V0.122z"/>
	<path fill="#D76F2C" d="M3.298,107.799h12.603v4.583h-3.896v7.675H26.21v-7.675h-4.009v-4.583h12.831v4.583h-4.124v22.568h4.124
		v4.468H22.201v-4.468h4.009v-10.426H12.005v10.426h3.896v4.468H3.298v-4.468h4.011v-22.568H3.298V107.799z M154.061,107.799h25.893
		v8.823H175.6v-4.239h-12.603v7.562h10.768v4.467h-10.768v10.54h12.488v-6.071h4.581v10.539h-26.006v-4.468h4.239v-22.568h-4.239
		V107.799z M40.875,107.799H66.88v8.823h-4.468v-4.239H49.81v7.562h10.769v4.467H49.81v10.54h12.488v-6.071h4.582v10.539H40.875
		v-4.468h4.239v-22.568h-4.239V107.799z M161.622,103.561h9.28l2.291,2.749h-9.05L161.622,103.561z M205.385,121.318
		c-3.208-0.804-5.385-0.688-8.707-1.718c-2.865-1.031-3.436-2.751-3.436-3.896c0-1.261,1.258-4.354,5.842-4.354
		c4.583,0,7.676,3.093,7.791,5.728h4.467v-9.279h-4.354v2.064l0.229,0.571v0.117v-0.117c-0.116,0-0.229-0.344-0.689-0.687v-0.114
		c-1.258-1.146-3.894-2.521-7.789-2.521c-4.696,0-10.194,2.979-10.194,8.592c0,5.5,3.894,7.332,7.331,8.248
		c3.323,0.917,5.041,0.917,7.904,1.719c2.748,0.687,4.583,2.404,4.583,4.926c0,2.291-1.488,5.385-7.446,5.385
		c-5.844,0-8.249-3.209-8.937-7.677h-4.239v11.112h4.354v-2.063l-0.114-0.573c0,0,0.114,0.344,0.687,0.687v0.117
		c2.175,1.718,5.154,2.862,8.82,2.862c4.239,0,11.458-2.175,11.458-9.736C212.946,125.215,210.081,122.693,205.385,121.318
		L205.385,121.318z M143.865,134.951v-22.568h4.238v-4.583h-11.456l-7.676,18.559l-0.113,0.918l-0.229-0.918l-7.562-18.559h-11.57
		v4.583h4.238v22.568h-4.238v4.468h12.944v-4.468h-4.01V112.84l0.346,1.033l8.82,21.078h2.521l8.82-21.078l0.229-1.147l0.114,1.261
		v20.965h-4.011v4.468h12.831v-4.468H143.865L143.865,134.951z M51.529,95.657h-4.354v-1.146h3.208
		C50.498,94.74,51.185,95.313,51.529,95.657z M160.936,95.657c0-0.458,0.457-0.917,1.031-1.146h2.291v1.146H160.936z M88.99,96.458
		c-1.948,0.917-4.354,0.802-6.301,0H59.892c-2.2,0.917-4.674,0.917-6.874,0h-5.842v2.176h117.082v-2.176H88.99z M61.267,95.657
		c0.344-0.23,1.145-1.031,1.259-1.146h17.643c0.229,0.344,0.802,0.917,1.146,1.146H61.267L61.267,95.657z M85.897,94.969
		c2.979,0,5.499-2.521,5.499-5.499c0-3.093-2.52-5.614-5.499-5.614c-3.098,0.005-5.608,2.516-5.613,5.614
		C80.284,92.448,82.805,94.969,85.897,94.969v1.145c-3.781,0-6.759-2.979-6.759-6.644c0-3.781,2.979-6.759,6.759-6.759
		c3.666,0,6.644,2.979,6.644,6.759c-0.002,3.668-2.976,6.642-6.644,6.644V94.969z M64.016,88.554c0-4.125-3.437-7.562-7.561-7.562
		c-4.239,0-7.562,3.437-7.562,7.562c0,4.239,3.322,7.561,7.562,7.561C60.579,96.115,64.016,92.792,64.016,88.554h-1.261
		c0,3.551-2.864,6.416-6.301,6.416c-3.538,0.006-6.41-2.857-6.416-6.395c0-0.007,0-0.014,0-0.021c0-3.551,2.864-6.301,6.416-6.301
		c3.47-0.01,6.291,2.795,6.301,6.265c0,0.012,0,0.024,0,0.036H64.016z"/>
	<path fill="#D76F2C" d="M89.449,93.25l-2.291-2.635v-0.114c0.115-0.114,0.115-0.23,0.229-0.344l3.437,0.917
		c0.114,0,0.344,0.115,0.344,0.229c0-0.114,0.116-0.573,0.229-0.801c-0.114,0.114-0.344,0.114-0.572,0.114L87.616,89.7
		c-0.115,0-0.115-0.116-0.115-0.116V89.01l3.323-1.26c0,0,0.344,0,0.344,0.114c0-0.114-0.229-0.687-0.229-0.801
		c0,0.114-0.23,0.344-0.344,0.344l0.23-0.115l-3.437,1.261c0,0.114,0,0-0.114,0c-0.008-0.124-0.106-0.222-0.23-0.23
		c0-0.115-0.114-0.229,0-0.229l1.833-2.864c0.115-0.114,0.344-0.23,0.458-0.23c-0.116,0-0.573-0.344-0.803-0.458
		c0.116,0,0.116,0.344,0,0.458l-1.833,2.864H86.47c0,0-0.23-0.114-0.344-0.114c0,0-0.115,0-0.115-0.115l-0.114-3.321
		c0-0.23,0-0.458,0.229-0.458h-0.917c0.115,0,0.229,0.344,0.229,0.458l0.116,3.321c0,0.115-0.116,0.115-0.116,0.115
		s-0.229,0.114-0.344,0.23c0,0-0.114,0-0.114-0.116l-2.176-2.634c-0.115-0.114-0.115-0.344-0.115-0.458
		c-0.115,0.116-0.573,0.458-0.687,0.573c0.114,0,0.344,0.115,0.458,0.229l2.176,2.635v0.115c-0.115,0-0.229,0.23-0.229,0.344
		c0,0-0.114,0.114-0.23,0.114l-3.207-0.917c-0.229-0.114-0.344-0.23-0.344-0.344c0,0.114-0.229,0.687-0.229,0.802
		c0,0,0.344-0.115,0.458,0l3.207,0.803c0.115,0,0.115,0.114,0.115,0.114v0.572l-3.207,1.375c-0.115,0-0.344,0.114-0.344,0
		c0,0.114,0.115,0.573,0.229,0.802c0-0.115,0.229-0.344,0.344-0.344l3.094-1.375c0.114,0,0.114,0.115,0.114,0.115
		c0.114,0,0.229,0.115,0.229,0.229c0.114,0,0.114,0.116,0.114,0.116l-1.947,2.864c-0.116,0.115-0.23,0.229-0.344,0.229
		c0.114,0.115,0.573,0.458,0.687,0.458c-0.116,0,0-0.344,0-0.458l1.948-2.749c0-0.116,0.114-0.116,0.114-0.116
		c0.115,0.116,0.229,0.116,0.344,0.116s0.114,0,0.114,0.114l0.23,3.437c0,0.116-0.116,0.344-0.23,0.344h0.917
		c-0.229,0-0.229-0.229-0.229-0.458l-0.229-3.322c0-0.114,0.114-0.114,0.114-0.114c0.114,0,0.344-0.116,0.458-0.23
		c0,0,0.115,0,0.115,0.114l2.291,2.521c0,0.114,0.114,0.343,0.114,0.458l0.573-0.572C89.677,93.48,89.449,93.251,89.449,93.25
		L89.449,93.25z M56.226,84.2c3.207,0,6.415,0.344,8.249,0.917c0.229,0,0.229,0.229,0,0.344c-1.948,0.458-5.156,0.801-8.134,0.801
		c-2.979,0.115-6.187,0-8.249-0.458c-0.229,0-0.229-0.229,0-0.229C49.925,84.888,53.018,84.315,56.226,84.2v-0.573
		c-3.437,0.116-6.874,0.917-9.738,1.948c-0.344,0.114-0.344,0.344,0,0.344c3.208,0.802,6.531,0.917,9.853,0.802
		c3.208-0.116,6.645-0.344,9.738-1.261c0.458-0.115,0.344-0.344,0.114-0.344c-3.23-0.984-6.589-1.487-9.966-1.49V84.2z"/>
	<path fill="#D76F2C" d="M90.251,82.138c-0.802,0.23-2.177,0.687-2.864,0.687c-0.573,0-3.436-0.114-5.384,0
		c-2.636,0.114-2.864,0.458-2.979,0.23c-0.573-0.917-1.031-2.292-1.948-3.094c-5.384,0.917-10.654,0.116-15.465-1.604v-0.688
		c0.344,0.115,0.573,0.115,0.801,0.115c-0.801-1.145-2.176-1.49-2.979-2.75c-0.458-0.344-0.573-1.031-1.031-1.375
		c0.114,1.26-0.917,2.177-1.031,3.207c0.687,0.229,1.604,0.229,1.948,0.115c0.458-0.115,1.031,0,1.261,0.344
		c0.344,0.114,0.573,0.344,1.031,0.344v0.688c-0.574-0.115-0.687-0.229-1.145-0.458c-0.573,0.229-1.031,0.114-1.261-0.114
		c-0.115-0.116-1.261-0.116-1.719-0.116c-1.49,0-3.093,0.573-3.896,1.833c-0.344,0.687-0.229,1.489,0.114,2.062
		c0.23,0.344,1.261,1.833,1.948,2.291l-0.917,0.229c-1.375-1.261-2.406-2.406-2.176-3.895c0.688-3.207,3.666-2.75,4.468-4.124
		c0.573-1.261,0.801-4.926,0.114-5.957c-1.948-0.802-4.353-1.833-4.812-4.125c-0.114-0.572,0.116-1.26,0.688-1.375
		c1.03-0.229,1.718,0.344,2.521,0.688c0.344-0.23-0.344-1.031,0.458-1.031c1.031,0,1.718,2.062,2.062,2.177l-0.114,0.801
		c-0.687-0.229-3.208-1.604-3.437-1.718c-0.458-0.229-1.031-0.574-1.375-0.115c-0.458,0.572,0.115,1.261,0.458,1.833
		c5.384,5.613,14.32-0.344,20.163,3.666c0.114-0.344,0-0.458-0.23-0.573c-4.009-3.779-10.425-1.832-15.58-3.093l0.114-0.801
		c6.416,1.604,14.894-1.031,18.215,6.301c2.176,3.094,4.468,8.019,9.164,8.134c3.781,0.114,6.301-1.375,8.134-4.125
		c2.521-4.582,4.01-9.852,8.478-12.945c0.458-0.229,0.687,0,0.458,0.114c-2.176,2.176-4.125,5.042-5.156,7.447
		c1.718,6.53,5.499,5.155,6.416,5.041c-0.23-2.406,0-9.508,5.156-11.227c3.049-2.349,7.141-2.833,10.655-1.261
		c-4.01,3.781-6.416,9.166-7.218,12.945l-4.468,1.26c0.344-0.688,0.344-1.833,0.229-3.093c-0.458,0.229-0.917,0.573-1.948,1.146
		c-0.458,0.114-0.115-0.573-0.115-0.573c0-0.229,1.145-0.687,2.062-1.26c-0.344-2.635-0.573-6.072,1.604-8.249
		c-4.467,1.489-3.207,10.883-2.749,12.03c-1.261,0.572-2.979,0.572-2.979,0.572l-0.229-1.604c-1.948,0.688-5.27,0.229-6.759-4.926
		C95.406,75.494,94.031,80.763,90.251,82.138L90.251,82.138z M160.134,68.162c-0.229-0.23-0.346-0.344-0.573-0.344
		c-0.117-0.114,0-0.229,0.114-0.229c0.114-0.114,0.344,0,0.459,0.229C160.248,67.932,160.248,68.162,160.134,68.162L160.134,68.162z
		"/>
	<path fill="#D76F2C" d="M57.601,90.272l2.404,2.75c0.23,0.23,0.23,0.573,0.116,0.688c0.344-0.116,0.802-0.688,1.031-0.917
		c-0.115,0.114-0.572,0.114-0.687-0.115l-2.521-2.75V89.7l0.114-0.116c0-0.114,0.114-0.114,0.114-0.114l3.551,1.261
		c0.344,0.229,0.458,0.458,0.458,0.573c0.115-0.229,0.344-0.916,0.458-1.145c-0.115,0.115-0.458,0.229-0.687,0.115l-3.551-1.261
		c-0.114,0-0.114,0-0.114-0.114v-0.23c0-0.114,0.114-0.114,0.114-0.114l3.666-0.572c0.458-0.116,0.687,0.114,0.687,0.229
		c0-0.229-0.114-1.031-0.114-1.261c0,0.115-0.229,0.458-0.687,0.573l-3.551,0.572c-0.114,0-0.114-0.114-0.114-0.114
		c-0.116-0.115-0.116-0.229-0.23-0.344v-0.114l2.864-2.405c0.344-0.23,0.687-0.23,0.801-0.116c-0.229-0.229-0.687-0.802-0.916-1.031
		c0.115,0.114,0,0.458-0.229,0.801l-2.75,2.292c-0.116,0.114-0.116,0.114-0.116,0c-0.114,0-0.229,0-0.343-0.115
		c0,0-0.114-0.114,0-0.114l1.261-3.551c0.087-0.25,0.31-0.428,0.573-0.458c-0.23-0.114-1.031-0.458-1.261-0.458
		c0.114,0,0.344,0.458,0.229,0.801l-1.261,3.437c0,0.116-0.114,0.116-0.114,0.116h-0.344l-0.116-0.116l-0.687-3.666
		c0-0.458,0.23-0.687,0.23-0.687c-0.23,0-0.917,0.116-1.261,0.23c0.114,0,0.458,0.23,0.573,0.573l0.688,3.551
		c0,0.116,0,0.116-0.116,0.23c-0.114,0-0.229,0.114-0.344,0.114h-0.114L52.79,84.2c-0.229-0.344-0.229-0.687-0.114-0.687
		c-0.229,0.114-0.802,0.573-0.917,0.802c0.115,0,0.458,0,0.688,0.229l2.52,2.75v0.116l-0.229,0.229h-0.114l-3.437-1.259
		c-0.344-0.116-0.573-0.458-0.458-0.573c-0.23,0.344-0.344,1.031-0.458,1.261c0.114-0.116,0.458-0.23,0.801-0.116l3.437,1.146v0.572
		l-3.666,0.687c-0.344,0-0.687-0.229-0.687-0.344c0,0.344,0.115,1.145,0.229,1.375c0-0.116,0.114-0.458,0.573-0.573l3.551-0.687
		c0,0,0.115,0,0.115,0.114s0,0.114,0.114,0.23v0.114l-2.864,2.291c-0.344,0.344-0.688,0.229-0.688,0.115
		c0,0.344,0.573,0.917,0.688,1.031c0-0.114,0-0.458,0.23-0.687l2.979-2.291c0-0.116,0-0.116,0.114,0l0.229,0.229
		c0.116,0,0.116,0,0.116,0.115l-1.261,3.436c-0.115,0.344-0.458,0.574-0.573,0.458c0.23,0.116,0.917,0.458,1.261,0.458
		c-0.229,0-0.344-0.344-0.229-0.687L56,90.503c0,0,0-0.114,0.116-0.114c0.114,0.114,0.229,0.114,0.344,0.114
		c0,0,0.114,0,0.114,0.114l0.688,3.551c0,0.458-0.23,0.687-0.344,0.801c0.344,0,1.031-0.229,1.261-0.344
		c-0.114,0.116-0.458-0.229-0.458-0.458l-0.687-3.666v-0.114c0.114,0,0.23-0.116,0.344-0.116
		C57.486,90.157,57.486,90.157,57.601,90.272L57.601,90.272z M158.529,68.619c-0.116-0.114,0-0.229,0-0.344
		c0.114-0.344,0.228-0.344,0.228-0.687c-0.571-0.458-0.687-1.375-0.344-1.604c0.344-0.344,1.49,0.115,1.49,0.115
		c1.031-0.801,1.375-1.375,1.947-1.718c0.802,0,2.405,1.489,2.405,2.406c-0.229,0.344-0.804,0.917-1.718,2.062
		c0.344,0.801,0.344,1.375-0.23,1.833c-0.114,0-0.344,0-0.573-0.229c0.116,1.145,1.375,1.832,1.834,2.75
		c0,1.833,1.948,4.124-0.229,5.613c-0.457,0.229-0.917,0.573-1.144,1.031c0.344,1.833,1.03,3.781,1.375,5.729l-2.178,0.114
		c-0.228,0.688-0.914,1.948-0.687,2.636c0,0-0.114-0.116,0.116,0c0.344,0.458,0.457,4.239,0.344,4.582
		c0,0.458,0.345,0.458,0.114,1.261c-0.229,0.114-1.144,0.687-1.261,1.031c-0.573,0.573-2.175,0.688-2.175,0.458
		c0-0.573,1.145-1.261,1.375-1.948c0.228-2.75,0-5.5-1.49-7.676c-0.571-0.344-1.031,0.572-1.375,1.031
		c0.573,1.718,1.604,3.551,1.49,5.499c0,0.573,0.687,1.375,0.344,2.176l-1.834,0.917h-6.646c-0.228-0.344-0.687-0.688-0.571-1.145
		h5.955c0-0.23,0.573-0.114,1.146-1.031c0-2.75-2.865-6.76-2.405-8.135c0.571-1.719,1.375-3.093,2.29-5.384l0.459-0.114
		c-1.031,3.437-2.521,5.156-2.292,6.187c0.114,0.572,0.345,1.031,0.688,1.718l0.229,0.687c0.114,0.344,0.457,1.145,0.687,1.375
		c0.345,0,0.574-0.23,0.802-0.344c0-0.458-0.344-1.031-0.574-1.375l-0.914,0.344l-0.229-0.687c0.687,0,1.144-0.458,0.573-0.802
		c1.605-0.801-0.344-0.573,0.228-0.916c0.917-0.458,1.378-2.177,1.49-3.208c0-0.229,0.115-0.344,0.345-0.344
		c0.687,1.833,0.687,4.239,1.832,5.957v0.572c-0.114,0.458,0,1.031,0.229,1.375c1.031,0.114,0.917-0.115,0.688-1.375
		c-0.228,0-0.688-0.114-0.917,0v-0.572c0.116-0.115,0.573,0,0.689-0.115c-0.347-0.572-0.347-1.031-0.347-1.604
		c0-0.344,0.229-1.031,0.459,0.458c0.345,0.114,0.917-2.636,1.031-3.551c-2.177,0.458,0-2.062-1.604-2.176l0.804-1.375
		c0-0.458-0.345-0.803-0.917-0.573l-0.459-0.574c-0.345-0.114-0.688-0.687-1.145-1.031c-0.344,0.344-0.917,1.031-1.031,1.489
		c-0.114,0.116,0.23,0.229,0.345,0.116c0.344-0.344,0.573,0.343,1.144,0.229c0.229-0.229,0.917-0.344,0.688-0.802l0.459,0.574
		c-0.459,0.229-0.459,1.03-0.459,1.604c-0.802,1.489-0.458-0.801-1.375-0.801c-0.571,0.344-0.802-0.573-1.145-0.458l-0.459,0.114
		c0-0.801,0.116-1.718,0-2.634c0.688-3.895,1.49-3.781,1.604-4.926c0-0.458,1.718-1.375,1.604-1.833
		c0.114,0,0.344,0.344,0.344,0.458c-0.114,0.573-1.261,0.573-1.144,1.833c0.687-1.261,2.636-1.146,2.749-2.635
		c-0.345-0.917,0.457-0.344,0.457-1.261c-0.228-0.229-0.915-0.917-1.031-1.26c-0.114-0.116,0.344-0.802-1.261-0.802
		c-0.114,0.115-0.228,0.802-0.457,1.145c-0.114,0.115-0.344,0.344-0.229,0.458c0,0.114,0.229,0.229,0.229,0.687
		c-0.114,0.458,0,0.688,0.229,0.917c0.917,0.458,1.604,0,0.571,0.574c0,0.114,0,0.229-0.114,0.344c0-0.115-0.344-0.573-0.457-0.688
		c-0.116,0-0.687-0.344-0.573-0.801C158.757,69.079,158.757,68.85,158.529,68.619L158.529,68.619z M127.711,64.267
		c0.116,0.802-0.344,1.375-0.344,2.177c0.804,1.948,0,3.437,0.229,5.271c-0.917-0.573-1.145-2.062-1.488-3.666
		c-0.229-1.375,0.114-1.833,0.228-3.323L127.711,64.267z M125.307,64.839c-0.114,2.405-0.458,3.551,1.261,7.332
		c-4.354,1.832-7.906,3.093-13.06,4.582c0.571-3.666,4.124-10.654,7.103-12.602C123.13,64.839,125.307,64.839,125.307,64.839
		L125.307,64.839z"/>
	<path fill="#D76F2C" d="M114.078,91.762c-1.145,0.344-1.145,1.031-0.457,1.719c0.457,0.343,0.916,0.917,0.916,1.031h-7.332
		c0,0.344,0.344,0.573,0.572,1.146h40.554c0.229-0.573-0.457-1.261-0.687-1.948c-2.865-1.031-2.865-3.666-2.979-6.645
		c0-0.115-0.23-0.458-0.23-1.031c-0.344-0.458-2.289-5.156-1.374-8.937l0.687-1.259c0.573-0.802-0.114-1.261,0.344-2.177
		l8.479-1.604c0.114-0.116,0.114-0.458-0.114-0.573c0-0.114,0.114,0,0,0l-8.249,1.489c0.458-2.062-1.375-2.75-0.573-4.468
		c1.144,1.259,4.239,3.436,5.844,3.78l0.803-0.113c-2.063-0.917-5.728-3.094-7.79-5.957c-0.229,0-0.459-0.23-0.687-0.344
		c0,0.229,0.571,0.917,0.457,1.031c0,0-1.375,0.917-3.896-0.23c-0.801,1.604-9.736,5.613-9.736,5.613
		c0.344,2.521,1.49,4.125,2.749,5.5c0.116,0.229-0.345-0.229,0,0c1.834,1.489,4.009,2.176,6.417,2.635
		c0.457,1.375,2.176,5.843,2.29,6.53c0.229,0.687,0.573,0.687,0.573,0.687c0.229,0.23,1.031,1.719,1.031,2.292l0.229,2.406
		c0.114,0.573,0.801,0.114,0.917,0.687l-0.345,1.489h1.719c-0.917-0.801-0.345-2.176-1.491-2.75
		c-0.114-1.375-0.228-2.406-0.801-2.979c-0.457-1.375-1.947-5.041-2.865-8.363l0.573-0.803c-2.521,0.688-4.467-0.229-6.758-1.489
		c-1.718-0.802-0.688-0.115-0.116-0.458c2.751,1.261,4.126,0.917,6.187,0.688c0.229,0.344,0.687,0.687,0.687,1.259l-0.573,0.803
		c0.573-0.573,1.03-0.23,1.375,1.375c0.459,1.375,0.916,2.405,1.261,3.551c0.459,1.146,0.803,2.636,1.146,3.437
		c0,0,0.345,0,0.572,0.458c0.803,2.52,1.03,2.864,0.916,4.009c0.23,0.917,1.49,0.115,1.375,1.261h-30.129
		c0.457-1.833-0.574-3.437,0-5.156c-1.146-1.833-4.01-3.207-3.553-5.729c1.375-1.948,5.844-3.896,4.813-6.187
		c4.124-2.062,6.186,1.375,9.968,1.031c1.375,0,2.862-0.23,4.123-0.573c-1.604-1.261-2.979-3.207-3.779-4.926
		c-8.019,3.322-15.811,5.957-24.403,7.676l-0.687-0.23c-0.801,0.114-13.862,3.093-13.403,3.666
		c-4.926,0.344-10.655,2.406-11.914,3.093c-0.573,0.344-0.688,0.573,0,0.802c5.27,1.375,9.622,0.344,17.756-2.75l-0.572-0.458
		c-0.458,0.344-7.103,2.636-9.738,2.979c-2.75,0.344-5.156,0.229-6.301-0.115c-0.344-0.114-0.344-0.114-0.115-0.229
		c5.156-2.062,15.122-3.895,16.497-2.176c0.801,0.229,1.375,0.687,1.833,1.26c0.458,0.574,1.375,0.344,2.062,0.23
		c0.916-0.23,1.031-1.031,1.031-1.833l-1.031-0.115c-0.458,0-2.292,0.229-2.52,0.458c-0.687-0.573-1.375-1.146-2.292-1.375
		c1.833-0.801,4.812-1.489,6.415-1.604c-1.489,1.031-0.801,2.291-1.604,2.52l1.031,0.115c0-0.458,0-0.802,0.229-1.031
		c1.031-2.52,5.384-2.864,7.561-3.437c0,0-1.145,1.489-1.947,1.833c-0.229,3.551-1.489,6.645-1.719,10.196
		c1.031,0,1.031,1.145,1.261,1.833c-0.344,0.573-0.802,0-1.261,0.116c-1.604-0.802,0.344-2.176-0.917-3.323
		c0.688-2.864,1.719-5.729,1.719-8.707c-0.458,0-0.572,0.458-0.802,0.801c-0.344,2.864-1.145,5.499-1.832,8.133
		c0.229,0.23,0.802,0.458,0.802,0.917c-0.917,0.573,0,1.604-0.344,2.291H91.51l-1.031,1.146h15.809l0.115-0.573
		c-2.291-2.52-1.49-6.187-0.344-8.936l2.75-3.666c2.292-0.917,3.667-3.666,6.071-4.582c0,1.261-1.49,1.718-2.291,2.406
		c-0.917,1.948-3.553,2.176-3.895,4.354c1.03,1.146,2.521,1.948,3.782,2.979c1.259,0.802,0.914,2.521,1.832,3.323
		C114.539,91.189,114.308,91.647,114.078,91.762L114.078,91.762z"/>
	<path fill="#D76F2C" d="M131.607,50.405c-0.457,0.687-1.375,1.145-0.802,2.406c-1.146,0.688-0.803,1.719-0.459,2.292
		c-0.573,0.573-0.917,1.719-0.114,2.406c-0.917,1.031,0.229,1.948,0.573,2.291c-0.459,1.031,0,1.833,0,1.833
		c-0.116,0.687-1.377,1.833-1.834,2.176c-0.687,1.719-0.457,5.27-0.344,7.676c3.208-1.604,6.415-3.093,8.937-5.27
		c-2.178-1.489-3.896-5.041-6.301-4.812c-0.23-2.52-1.261-6.988,2.291-11.57c0.457-0.23,1.145-0.344,1.488-0.574
		c-1.488-0.229-3.436,0.687-4.811-0.114C130.232,49.146,130.921,50.291,131.607,50.405z"/>
	<path fill="#D76F2C" d="M139.283,49.259c0,0.115,0.457,0.344,0.457,0.344s0.46-0.114,0.46-0.229s0.114-0.458,0-0.572
		c-0.117,0-0.46-0.115-0.688-0.115C139.513,48.686,139.283,49.146,139.283,49.259l-0.229,0.229l-1.604-1.145l0.229-0.23
		c0,0,0.687-0.688,1.031-0.688c0.344-0.114,2.177,0,2.636,0.344c0.344,0.344,0.573,0.572,1.03,1.375
		c1.261,0.916,3.323,0.916,4.583,1.946c-0.229,0.344,0.345,0.917-0.114,1.146c-0.344,0.115-1.146-0.115-1.261,0.115l-0.114,0.687
		l-0.459-0.116c0,0,0.229-0.801,0-0.801c-0.229-0.114-0.687-0.344-0.917-0.229c-0.114,0.115,0,0.229,0.117,0.458
		c0,0.229,0.571,0.344,0.916,0.229l0.457,0.115l0.574,0.114c-0.229,0.573-0.344,0.801-1.146,0.573
		c-0.229,0.573,1.031,1.031,1.146,1.261c-0.116,0.229-0.344,0.458-1.146,0c0,0-3.322,3.208-5.271,4.125
		c-2.062,0.917-0.114-0.458-0.114-0.458c0.917-0.344,4.927-3.781,4.927-4.124c-0.117-0.23-0.345-0.687-0.345-1.031
		c-0.573-0.229-1.718,0.114-2.177,0.458c0.229,1.031,2.062,6.187,0.687,13.977l-0.228-0.229c1.259-7.562-0.803-13.633-0.803-13.633
		c-1.145,0.458-1.948,0.115-2.52,0.229c-0.229,4.696,3.55,5.385,2.175,11.571c-4.009-0.687-6.872-5.614-9.164-5.156
		c-0.116-0.802-0.916-2.176-0.116-2.636c-0.228-0.687-0.457-1.604,0.573-2.176c-0.344-0.917-0.457-1.718,0.574-2.405
		c-0.229-0.574-0.116-1.833,1.145-2.063c0.116-1.031,0.573-1.833,1.49-2.176c-1.031-0.458-1.261-1.489-1.261-1.489
		c0.916,0.574,1.718,0.917,3.093,0.688L139.283,49.259L139.283,49.259z M100.332,134.951l-0.115-6.415
		c0-1.948-1.26-4.012-2.979-5.157c-0.344-0.114-0.917-0.344-1.375-0.344c0.458,0,1.031,0,1.605-0.23
		c1.718-0.801,3.781-2.979,3.781-6.758c0-2.865-1.146-5.04-3.208-6.531c-1.947-1.375-4.124-1.717-6.415-1.717H73.983v4.583h4.009
		v22.569h-4.009v4.467h12.602v-4.467h-4.011v-9.968h8.707c2.979,0.114,4.124,2.063,4.124,3.666l0.344,10.768h8.592v-4.467
		L100.332,134.951L100.332,134.951L100.332,134.951z M92.197,120.631h-9.623v-8.248h9.051c1.031,0,2.176,0,3.093,0.344
		c1.145,0.574,2.177,1.834,2.177,3.779C96.895,118.913,94.719,120.631,92.197,120.631z M72.379,150.646
		c4.125,0,5.957,2.291,5.957,5.154c0,2.865-1.948,5.04-6.301,5.04h-2.979v7.906h-2.634v-18.1L72.379,150.646L72.379,150.646
		L72.379,150.646z M69.056,158.552h3.208c1.948,0,3.322-1.033,3.322-2.865c0-1.375-0.801-2.749-3.208-2.749h-3.322L69.056,158.552
		L69.056,158.552L69.056,158.552z M98.842,168.747h-2.864l-2.29-5.385h-7.905l-2.176,5.385h-2.864l8.019-18.217h1.833
		L98.842,168.747z M86.814,160.957h5.843l-3.093-7.104L86.814,160.957L86.814,160.957z M128.972,168.747h-2.635v-18.101h2.635
		V168.747z M147.876,154.54c-1.718-1.375-3.322-1.832-4.696-1.832c-1.718,0-3.095,0.801-3.095,2.062c0,3.553,8.478,3.437,8.478,9.28
		c0,2.748-2.291,4.811-5.499,4.811c-2.063,0-3.895-0.457-5.498-1.603v-3.322c1.488,1.718,3.322,2.636,5.271,2.636
		c2.175,0,3.206-1.261,3.206-2.292c0-3.665-8.593-4.126-8.593-9.05c0-2.979,2.407-4.813,5.957-4.813
		c1.604,0,2.979,0.345,4.469,1.261L147.876,154.54L147.876,154.54L147.876,154.54z M117.86,166.571
		c-0.345-0.46-0.688-0.917-1.031-1.491c-1.375-2.291-2.521-3.896-4.239-4.926c2.062-0.801,3.208-2.405,3.208-4.467
		c0-3.093-2.407-5.04-6.301-5.04h-4.698v18.1h2.749v-7.906h1.146c1.374,0,2.521,0.46,4.926,4.126l2.521,3.78h3.093L117.86,166.571
		L117.86,166.571z M109.268,158.552h-1.719v-5.729h1.719c2.636,0,3.665,1.031,3.665,2.751
		C113.047,157.062,112.247,158.552,109.268,158.552L109.268,158.552z"/>
</g>

</svg>
