<?xml version="1.0" encoding="utf-8"?>
<!DOCTYPE svg PUBLIC "-//W3C//DTD SVG 1.1//EN" "http://www.w3.org/Graphics/SVG/1.1/DTD/svg11.dtd">
<svg version="1.1" id="Layer_3" xmlns="http://www.w3.org/2000/svg" xmlns:xlink="http://www.w3.org/1999/xlink" x="0px" y="0px" width="216px" height="216px" viewBox="454 1110 216 216" enable-background="new 454 1110 216 216" xml:space="preserve">
<circle fill="#EF002F" cx="563.278" cy="1218" r="107"/>
<g id="AlfaBank_Logo_Red" transform="translate(11.000000, 16.000000)">
	<g id="AlfaBank_Logo">
		<path id="logo_shape" fill="#FFFFFF" d="M552.135,1157.92l-10.813,32.156h21.628L552.135,1157.92L552.135,1157.92z
			 M552.135,1138.852c8.253,0,10.814,5.977,13.091,11.668l23.05,62.606c0.285,0.569,0,1.423-0.568,1.707l-12.807,4.838
			c-0.568,0.285-1.422,0-1.422-0.854l-5.407-14.514h-31.872l-5.407,14.798c-0.284,0.569-0.854,0.854-1.423,0.854l-12.521-4.838
			c-0.569-0.285-0.854-0.854-0.569-1.707l23.05-62.607C541.322,1144.829,543.883,1138.852,552.135,1138.852z M514.572,1243.292
			c-0.569,0-1.139,0.568-1.139,1.138v13.945c0,0.568,0.569,1.138,1.139,1.138h75.412c0.569,0,1.138-0.569,1.138-1.138v-13.66
			c0-0.569-0.568-1.139-1.138-1.139h-75.412V1243.292z"/>
	</g>
</g>
</svg>
