<?xml version="1.0" encoding="utf-8"?>
<!DOCTYPE svg PUBLIC "-//W3C//DTD SVG 1.1//EN" "http://www.w3.org/Graphics/SVG/1.1/DTD/svg11.dtd">
<svg version="1.1" id="Layer_1" xmlns="http://www.w3.org/2000/svg" xmlns:xlink="http://www.w3.org/1999/xlink" x="0px" y="0px" width="216px" height="216px" viewBox="0 0 216 216" enable-background="new 0 0 216 216" xml:space="preserve">
<g>
	<rect fill="#FFFFFF" width="216" height="216"/>
	<path d="M188.904,165.871h0.376v-0.85h0.289l0.425,0.063l0.193,0.505v0.161l0.016,0.08v0.023l0.008,0.017h0.353l-0.007-0.032
		l-0.025-0.112v-0.321l-0.136-0.328l-0.36-0.208l0.313-0.098l0.209-0.425l-0.321-0.545l-0.594-0.072h-0.737V165.871z
		 M189.979,164.708l-0.369,0.057h-0.329v-0.786h0.313l0.449,0.08l0.145,0.32L189.979,164.708z M191.053,163.425l-1.363-0.569
		l-1.388,0.569l-0.568,1.38l0.562,1.371l1.395,0.577l1.363-0.577l0.586-1.371L191.053,163.425z M190.861,163.609l0.496,1.195
		l-0.496,1.194l-1.172,0.497l-1.194-0.497l-0.489-1.194l0.497-1.195l1.187-0.497L190.861,163.609z"/>
	<path d="M35.686,154.17l3.93-3.561l-3.93-3.553V154.17z M35.686,157.643v7.033l-6.801,2.534v-26.168h10.875l7.178,6.784v5.438
		l-8.084,7.475L35.686,157.643z"/>
	<polygon points="105.281,160.089 93.941,160.089 93.941,141.042 87.044,141.042 87.044,165.967 93.941,165.967 93.941,165.936 
		105.281,165.936 	"/>
	<path d="M62.849,157.361l2.39-6.278l2.454,6.278H62.849z M71.558,167.17l6.215-2.485l-9.134-23.643h-6.801l-9.143,23.643
		l6.424,2.485l1.66-4.362h9.055L71.558,167.17z"/>
	<g>
		<path d="M96.965,29.807h0.329v0.128c-0.69,0.489-0.569,1.195-0.834,2.125l-0.321,0.762l0.906,0.064l1.853,0.45l1.034,0.192h-0.144
			l-0.89,0.321l-2.054,0.586l-1.989-0.265l-1.476,0.128l-0.064-0.184c0.866-0.673,0.698-2.053,1.283-2.959l1.604-1.155
			L96.965,29.807"/>
		<path d="M118.835,30.008c1.315,0.048,2.462,0.794,2.822,1.788l0.386,1.541l0.649,1.09l-1.291-0.129l-1.869,0.329
			c-0.785-0.177-1.516-0.344-2.173-0.585l-1.211-0.505c1.459,0.016,2.526-0.521,3.777-0.449l0.128-0.192l-0.642-1.934
			L118.835,30.008"/>
		<path d="M97.229,32.245V32.06l1.09-0.97c0.995-0.689,2.366-1.162,3.858-0.818l0.633,1.139l-0.128,0.193
			c-0.497,0.465-1.283,0.28-2.109,0.457h-1.925L97.229,32.245"/>
		<path d="M114.552,30.191c1.62-0.015,3.842,1.067,4.228,2.198h-0.137l-2.422-0.201c-1.059,0-1.9-0.192-2.695-0.393l-0.265-0.578
			l0.128-0.393l0.706-0.562L114.552,30.191"/>
		<path d="M93.179,30.97h0.393v0.12l-0.778,2.117l-1.082,1.741l0.256,0.12l1.027-0.192c1.195,0.144,2.029,0.192,3.272,0.192v0.128
			h-0.072c-0.882,0.834-2.205,1.275-3.577,1.604c-0.882,0.232-1.483-0.145-2.117-0.256l-1.284,0.32V36.8
			c0.826-0.891,0.562-2.84,1.211-3.914l1.732-1.54L93.179,30.97"/>
		<path d="M119.797,35.196l2.374,0.064l1.468-0.192l0.578,0.128v-0.249c-1.212-0.858-0.883-2.847-1.797-3.729l0.072-0.063l0.2-0.065
			l1.908,0.898c1.228,0.915,1.131,2.471,1.669,4.106l0.449,0.963h-0.192c-0.858-0.642-1.645,0.256-2.695,0
			c-1.259-0.297-2.213-0.642-3.136-1.22L119.797,35.196"/>
		<path d="M87.991,38.075l1.155-0.505l0.649,0.064c0.922,0.032,2.029-0.145,2.879-0.257v0.136c-0.858,0.538-1.451,1.484-2.318,2.045
			l-2.237,0.65l-1.147,0.055l-1.347,0.578c0.328-3.224-0.24-5.38,2.117-7.057l1.276-0.762v0.249
			c-0.578,0.834-0.121,2.149-0.45,3.144L87.991,38.075"/>
		<path d="M128.01,38.276l-0.643-1.604l-0.136-1.997l-0.313-1.467h0.185l0.906,0.521l1.604,1.66
			c0.441,0.706,0.466,1.804,0.505,2.759l-0.063,1.868l0.192,1.083h-0.064c-0.802-0.73-2.117-0.481-3.344-0.841
			c-1.564-0.442-1.772-1.14-2.815-1.981l-0.706-0.706l1.669,0.257h1.997L128.01,38.276"/>
		<path d="M84.719,36.864c0.024,1.195,0.048,2.398,0.072,3.593l-0.384,1.997l0.056,0.057l0.136-0.057l1.146-0.841l0.963-0.185
			c0.802-0.241,1.676-0.537,2.638-0.585v0.128l-0.906,1.17c-0.714,0.818-1.468,1.581-2.43,2.166
			c-1.219,0.738-2.615,0.032-3.408,1.355l-0.064-0.064l-0.056-1.797c-0.185-0.794-0.313-1.724-0.457-2.374l0.072-0.521v-0.705
			c0.289-1.059,0.834-1.74,1.468-2.447L84.719,36.864"/>
		<path d="M131.153,37.049h0.248l0.771,0.657c0.617,0.585,1.187,1.404,1.54,2.238c0.369,0.802,0.056,2.149-0.129,2.831
			c-0.248,0.875-0.257,1.934-0.257,3.08h-0.2c-0.754-1.187-2.31-0.714-3.456-1.412l-1.604-1.347l-1.412-1.86v-0.185l1.796,0.433
			l1.483,0.32l1.524,0.898v-0.128l-0.057-0.44C130.833,40.465,131.153,39.013,131.153,37.049"/>
		<path d="M81.703,47.194h0.321c0.544-1.002,2.004-0.931,3.079-1.42l1.612-0.954v0.128l-0.457,0.706l-1.339,2.117l-2.053,1.411
			l-1.034,0.265l-1.146,1.155v-0.081l-0.466-1.596c-0.689-1.436-1.973-3.369-1.139-5.518l0.505-0.898l0.898-1.283v0.136l0.33,1.523
			l0.568,1.155C81.679,44.9,81.703,46.319,81.703,47.194"/>
		<path d="M134.097,47.458c-0.016-1.139-0.057-2.293,0.321-3.216l0.705-1.476l0.248-1.283l0.209,0.063
			c0.257,0.763,0.979,1.46,1.275,2.382c0.665,1.989-0.497,3.416-1.019,4.619l-0.586,1.468l-0.128,0.833l-1.026-1.09l-1.797-0.577
			c-1.131-0.666-1.596-1.725-2.31-2.823l-0.834-1.348h0.128l2.125,1.292l1.34,0.313L134.097,47.458"/>
		<path d="M84.526,49.183l-0.45,1.154c-0.568,1.387-0.882,2.775-1.988,3.593c-1.115,0.835-1.508,0.578-2.117,2.062h-0.193
			l-0.698-1.283l-0.265-0.586c-0.93-1.395-2.59-2.646-1.861-5.325l0.714-1.861l0.12,0.072l0.449,1.211l1.275,1.86l0.658,2.246
			l0.048-0.056l0.979-1.091l2.044-1.034L84.526,49.183"/>
		<path d="M138.074,47.13h0.185c0.192,0.682,0.593,1.355,0.777,2.117v0.771c0.458,2.157-1.307,3.119-2.052,4.298l-1.027,1.925
			h-0.185c-0.2-1.275-1.371-1.588-2.254-2.182c-0.81-0.544-2.124-3.44-2.237-4.675h0.12l2.182,1.732l1.035,0.377l1.09,1.026v-0.128
			l0.498-1.98C136.719,49.247,137.93,48.605,138.074,47.13"/>
		<path d="M79.586,57.651h0.257l0.641-1.283l1.292-0.898l1.66-1.916l0.073,0.063l-0.322,2.118c-0.296,1.179-0.296,2.197-0.97,2.943
			c-0.938,1.042-1.547,1.035-1.925,2.759h-0.128v-0.064l-0.705-0.955c-1.147-0.979-2.647-1.925-3.272-3.4l-0.313-1.604
			c-0.104-0.545-0.112-1.66,0.313-2.702l0.128,0.063C77.1,54.484,79.465,55.479,79.586,57.651"/>
		<path d="M139.742,52.968l0.321,1.604c0.249,1.155-0.441,2.919-0.834,3.537l-1.477,1.211c-0.713,0.578-1.756,1.516-2.174,2.366
			l-0.135-0.064l-0.498-1.403l-1.74-1.732c-0.593-0.882-0.938-3.256-0.971-4.62h0.129l1.403,1.725
			c0.986,0.745,1.572,1.042,2.117,2.253h0.2c0.241-1.781,1.765-2.663,2.767-3.721L139.742,52.968"/>
		<path d="M83.379,58.614h0.128c0.024,1.371,0.104,3.071-0.273,4.17v0.377c-0.289,0.874-1.018,1.372-1.412,2.117l-0.368,1.66
			c-0.73-1.083-2.213-1.548-3.352-2.237c-1.516-0.947-2.896-3.063-2.374-5.767h0.144V59l0.762,0.962
			c0.882,0.65,1.853,0.898,2.63,1.66l1.163,1.412C80.781,61.052,82.529,60.227,83.379,58.614"/>
		<path d="M140.128,59.127v1.604l-0.064,0.834c-0.289,1.083-0.866,2.414-1.732,2.943l-2.053,1.082l-1.66,1.228l-0.457,0.313
			l-0.185-1.339l-1.412-2.045c-0.634-1.259-0.329-3.144-0.329-4.876h0.129c0.706,1.163,1.532,2.069,2.438,3.016l0.514,1.339
			l0.192,0.08c0.232-0.987,1.283-1.925,2.054-2.374l1.29-0.514L140.128,59.127"/>
		<path d="M84.013,63.033l0.128,0.137l0.458,1.267c0.28,0.794,0.898,2.077,0.633,3.152c-0.248,0.986-0.785,1.66-1.026,2.623
			l0.128,1.339H84.27c-0.602-0.609-1.477-1.034-2.438-1.275c-0.834-0.208-1.732-0.041-2.438-0.33
			c-1.283-0.512-1.909-1.323-2.446-2.622l-0.313-1.339l1.476,0.954c0.778,0.257,1.789,0.145,2.51,0.457l1.725,1.075V68.35
			l0.136-1.412C82.93,65.64,83.868,64.725,84.013,63.033"/>
		<path d="M131.338,71.742l0.128-1.275c-0.217-0.979-0.77-1.66-1.019-2.695c-0.288-1.163,0.802-3.785,1.155-4.546h0.12v0.135
			l0.249,1.396c0.376,0.85,0.938,1.597,1.234,2.495l0.056,1.218l0.321,0.272c0.586-0.874,1.645-1.211,2.823-1.491l1.155-0.057
			l1.604-0.963l0.064,0.064l-0.321,1.34c-0.514,1.218-1.523,2.197-2.823,2.639l-2.053,0.192l-0.449,0.056L131.338,71.742"/>
		<path d="M79.073,71.414l1.604,0.858c0.866,0.232,1.668-0.313,2.566-0.081l1.283,0.394l0.834,0.441l0.072-0.193
			c-0.689-0.922,0.305-3.192,0.505-4.034l0.073-1.669l0.056,0.065l0.834,1.467c0.433,0.729,0.922,1.332,1.155,2.317
			c0.256,1.068-0.241,2.094-0.449,2.952l0.32,1.725h-0.12l-2.647-0.77c-0.562,0.056-1.259,0.321-2.053,0.136
			C81.174,74.558,79.161,73.715,79.073,71.414"/>
		<path d="M136.591,71.687c-0.072,2.237-2.085,3.112-3.978,3.585c-1.051,0.272-1.669-0.337-2.623-0.121l-1.347,0.313l-0.946,0.45
			v-0.121c0.994-1.155-0.466-2.999-0.073-4.563c0.249-1.034,0.771-1.949,1.268-2.758l0.722-1.075h0.12v1.725l0.193,1.09
			c0.48,1.035,0.585,1.709,0.256,3.016h0.129l0.2,0.064c0.385-0.481,2.053-1.139,3.128-0.906l1.162,0.128L136.591,71.687"/>
		<path d="M88.761,70.716l1.026,1.219c0.713,0.81,1.484,1.612,1.74,2.887l-0.192,2.253l0.192,0.954l0.449,0.842H91.72l-0.843-0.2
			l-2.181-0.064c-0.562,0.193-1.596,0.562-2.502,0.329c-1.645-0.401-3.096-1.011-3.858-2.31l0.337-0.073
			c0.778,0.514,2.55-0.16,3.136-0.321l1.218-0.063l1.917,0.458l0.073-0.185c-0.706-0.786-0.265-2.767-0.128-3.609
			C89.018,72.039,88.688,71.253,88.761,70.716"/>
		<path d="M126.983,71.037l-0.257,1.548c0.112,0.857,0.417,2.293,0.313,2.822l-0.385,1.476l1.099-0.385l0.826-0.137
			c0.906-0.192,1.717,0.289,2.317,0.457c0.81,0.232,1.572,0.016,2.365,0v0.193l-0.697,0.834c-0.609,0.449-1.403,0.833-2.189,1.091
			c-1.331,0.441-2.799,0.096-3.978-0.193c-1.066-0.257-1.917,0.281-2.694,0.393V79c0.465-0.504,0.714-1.588,0.521-2.566
			l-0.071-1.162c0.36-1.548,1.074-2.438,1.98-3.385L126.983,71.037"/>
		<path d="M93.508,79.77l-0.714-1.419c-0.272-0.794,0.073-1.508-0.12-2.374l-0.642-2.237l0.064-0.064l1.283,1.146
			c1.058,0.866,1.949,1.596,2.502,2.96l0.385,2.686l0.778,1.219h-0.137l-0.45-0.055c-1.347-0.313-2.654,0.208-3.785,0.569
			c-2.021,0.666-5.518-0.369-6.16-1.66h0.842l1.276-0.192c0.842-0.273,1.5-0.641,2.501-0.841L93.508,79.77"/>
		<path d="M122.235,79.963c0.842-0.056,1.813-0.458,2.814-0.192l1.549,0.633c0.713,0.281,1.523,0.313,2.502,0.329v0.112
			l-0.586,0.584c-0.577,0.434-1.411,0.754-2.189,0.971c-2.102,0.593-3.505-0.313-5.181-0.714c-0.882-0.2-1.788,0.145-2.502,0.185
			v-0.112l0.97-1.476l0.185-2.053c0.586-1.628,1.556-2.469,2.815-3.408l1.026-0.826v0.192l-0.641,2.117v1.604L122.235,79.963"/>
		<path d="M96.396,76.362l0.962,0.713c1.195,0.834,2.59,1.492,3.216,2.888c0.393,0.906,0.377,2.158,0.77,3.08l0.962,1.21h-1.548
			l-1.083,0.064l-1.292,0.649c-1.908,0.986-6.103,0.746-7.186-0.897l2.053-0.321c0.874-0.321,1.564-0.891,2.51-1.164l1.909-0.12
			l0.778,0.12l0.136-0.12c-1.3-0.545-1.051-2.895-1.476-4.235L96.396,76.362"/>
		<path d="M124.48,84.189v0.185l-1.026,0.721c-0.602,0.336-2.903,0.882-3.978,0.642l-1.54-0.385l-1.86-0.898
			c-0.786-0.256-1.82-0.08-2.679-0.08l-0.072-0.113c1.443-0.97,0.938-2.077,1.604-3.657c0.633-1.483,1.748-2.181,3.007-3.015
			l1.476-0.962v0.12c-0.729,0.625-1.083,2.734-1.083,3.857l-1.026,2.118h0.12l2.751,0.056
			C121.642,83.227,122.483,84.165,124.48,84.189"/>
		<path d="M101.344,78.937l1.146,0.633c1.46,0.802,2.807,1.492,3.593,2.959c0.577,1.051,0.401,3.24,1.934,3.4l1.082-1.476
			c0.337-0.97,0.377-1.789,0.907-2.518c0.713-0.979,1.731-1.396,2.806-2.037l1.604-0.834v0.12c-0.722,0.586-1.074,2.005-1.348,3.023
			l-0.184,1.075l-1.092,1.684l0.249,0.057h1.483c0.786,0.216,1.452,0.256,2.046,0.657l1.283,0.891l1.98,0.642h-0.056l-1.733,0.761
			c-1.442,0.433-3.568,0.322-4.812-0.32l-1.676-1.019l-1.909-0.457l-0.578,0.072c-0.842-0.144-2.542,0.024-3.144,0.385l-1.412,0.955
			l-1.732,0.513c-1.436,0.37-4.435-0.409-4.94-1.147h0.064l1.853-0.449c0.777-0.329,1.355-0.955,2.125-1.291
			c0.906-0.369,2.157-0.265,3.071-0.313v-0.201l-1.275-1.853l-0.257-1.612C102.162,80.452,101.504,79.73,101.344,78.937"/>
		<path d="M103.782,38.5l1.379,1.428l0.457-0.273c1.251,0.713,2.391-0.152,3.633-0.257c0.834-0.064,2.318,0.128,2.727,0.313
			c-0.232-0.016-1.347-0.216-2.277-0.144c-0.786,0.007-1.611,0.152-2.117,0.77l0.064,0.538l0.369,0.2l0.658-0.834
			c1.275-0.529,2.671,0.113,4.026-0.12c2.028-0.224,3.841,0.377,5.309,1.716c-0.649-0.265-1.396-0.553-2.174-0.633l-0.176,0.112
			l0.449,0.297c2.149,0.449,4.379,2.27,4.996,4.459c0.177,0.713,0.433,1.443,0.28,2.213c-0.625-1.276-0.32-2.992-1.676-3.938
			l0.145,0.489c0.762,1.043,0.553,2.462,1.308,3.505l0.601,0.931c0.329,1.668-0.152,3.352-1.508,4.346l-0.369,0.193l0.321,0.28
			l1.091-0.641c0.049,0.73,0.032,1.853-0.297,2.623l0.794-0.209h0.057c-0.714,0.746,0,2.11-1.123,2.583l-0.729-0.2
			c-0.923-1.323,0.705-2.791-0.409-4.066l-0.337,0.914l-0.361,0.538l-0.192-0.089c0.489-1.427,0.225-2.935-0.602-4.114l-0.24-0.818
			c-0.665,0.594-0.746,1.46-0.786,2.342L116.846,53c-0.128-1.059-0.385-2.086-1.219-2.864c-0.61-0.561-1.556-1.018-1.556-1.94
			l-0.049-0.658l-0.625,0.721l-0.008,1.692c-0.706-0.617-0.914-1.651-0.955-2.654c-0.193-0.85-0.642-1.66-1.395-2.245l-0.321,0.754
			c-0.28,0.753-0.088,1.636,0.345,2.261l-0.023,0.128h-0.089c-0.642-0.722-0.85-1.692-0.737-2.638l-0.987-0.794
			c0.121-1.419-0.954-2.462-2.044-3.288l-0.753-1.139l-0.345,0.345l-0.297,0.721c-0.225-1.035-1.444-1.219-1.925-2.117l-0.289,0.345
			c-0.272,0.858,0.096,1.652,0.498,2.35h-0.265l-0.337-0.257c-0.192,0.778,0.297,1.5,0.947,1.925
			c0.866,0.53,2.109,0.641,2.518,1.757l-0.089,0.048c-0.553-0.674-1.299-1.051-2.133-1.107l-0.072,0.072l1.066,2.062
			c0.979,0.778,2.206,0.946,3.473,0.874l0.048,0.216l-0.088,0.104l-1.492,0.057c0.77,1.154,1.941,1.82,3.329,1.587h0.85l-0.24,0.233
			c-0.898-0.016-1.772,0.104-2.358,0.778l0.073,0.152c1.098-0.185,1.933,0.336,2.702,0.914c1.019,0.658,2.445-0.104,3.313,0.859
			l-2.109-0.097l-0.032,0.136c0.562,0.722,0.954,1.805,1.989,2.005c1.139,0.048,2.534,0.12,2.959,1.371v0.081l-0.481-0.393
			l-1.692-0.514l-0.08,0.088c0.738,0.336,1.38,1.106,1.324,1.925c0,0.866,0.568,1.764,1.395,2.125l1.195,0.096l-0.249-0.305
			l1.652-0.305l-0.946,0.97l-0.585,1.869l-0.434,0.273l0.393-1.259l-1.059-0.81c-1.146-0.225-1.748,1.026-2.871,0.995l-0.497,0.12
			c1.428,0.778,2.431-1.548,3.802-0.265l0.152,0.787l-0.152,0.417l0.145,0.056l-0.329,0.064c-0.377,0.449-1.355,0.112-1.332,0.882
			l0.33,0.104l-1.332,1.147l0.225,0.24l0.586-0.192l-0.971,0.762c-0.361,2.983,2.045,3.778,2.374,6.472l-0.401,0.658l-2.037-0.017
			c-3.376,0.161-6.11,0.939-8.862,2.688c-1.436,0.849-2.967,1.267-4.691,1.403l-0.393-0.241c0.217-1.186,0.69-2.149,0.393-3.44
			c-0.433-1.508-0.393-1.82-0.489-3.448c-0.104-0.77-0.77-1.516-1.492-1.796c-1.002-0.385-2.125-0.449-3.264-0.57l-0.979-0.809
			c-0.216-0.811-0.048-1.701,0.168-2.454l-0.393-0.77l0.321-1.188l-0.698-0.706l0.208-1.186l-2.454-0.449l0.37-1.516
			c1.219-1.027,0.946-2.663,1.86-3.81c0.73-0.826,1.115-1.805,0.97-3c0.169-0.898,1.003-1.523,1.068-2.494
			c0.08-1.315,0.681-2.43,1.331-3.537l0.385-1.724l0.666-0.521l-0.024,1.139l0.305-0.12c0.16,1.364,1.78,1.572,2.334,2.742
			l0.072,0.073l0.112-0.104c-0.056-0.922-0.842-1.756-1.668-2.037l-0.562-1.379l0.593-1.139l0.257,0.907l0.794,0.256l-0.265-0.577
			l0.136-1.348l0.554-0.185l0.801-1.901H103.782z M110.053,40.321l-0.897,0.585l0.376,1.187l-0.978-0.803l-0.064,0.321
			c0.328,1.219,1.603,1.316,2.574,1.54c2.174,0.16,4.531,0.16,5.862,2.141l0.088,0.024v-0.136c-0.777-2.166-3.15-2.615-5.188-2.775
			l-1.691-1.091l0.2-0.866L110.053,40.321 M113.333,40.417l-1.54,0.458l-0.128,0.529l0.617,0.53
			c1.813,0.425,3.857,0.336,5.414,1.395l1.002,0.722v-0.096c-0.762-1.235-2.093-1.757-3.344-2.118l-2.278-0.561l0.097-0.417
			l0.609-0.176l-0.265,0.224l0.048,0.393l0.778,0.176l-0.104-0.337l0.281-0.208l0.529-0.192L113.333,40.417 M101.672,43.039
			l1.668,1.38l0.176,2.278c-0.352,1.523,1.396,1.74,2.166,2.574l0.217,1.131h0.104l0.249-1.067l-1.5-1.419
			c-0.97-0.537-0.754-1.764-0.682-2.679C104.03,43.954,102.587,43.464,101.672,43.039 M109.813,43.376v0.136
			c1.147,0.385,2.229,1.171,2.936,2.261l0.617,1.563l-0.217-2.237C112.347,43.994,111.096,43.561,109.813,43.376 M113.316,43.633
			l-0.168,0.265c1.011,1.371,2.767,1.852,3.697,3.376l0.898,2.446l0.137-0.112c-0.521-1.412,0.264-3.192-0.554-4.468l0.144,0.794
			l-0.144,1.011c-0.706-1.572-2.414-1.981-3.625-2.903L113.316,43.633 M117.279,43.898l0.224,0.392
			c0.738,0.963,0.883,2.222,0.907,3.465c0.24,0.93,1.195,1.74,2.141,1.884l0.706-0.232l-0.851-1.34l-0.408-1.532l0.16,2.013
			l0.313,0.594c-0.882-0.072-1.122-1.059-1.411-1.716C118.866,46.086,118.65,44.587,117.279,43.898 M114.688,45.983l0.2,0.962
			c0.032,0.97,1.22,1.492,1.42,2.39l-0.032,0.056l-1.203-0.793c0.762,0.85,1.26,1.813,1.829,2.718l0.048-0.063l0.063-1.532
			c-0.031-0.962-0.777-1.637-1.499-2.246L114.688,45.983 M105.618,47.226c-0.056,1.17,1.468,1.419,1.797,2.438l-0.185,1.588
			l-1.467,0.281l1.62,0.385l0.85-0.858c0.498-1.708-1.315-2.622-2.39-3.489L105.618,47.226 M118.386,49.062v0.915
			c0.209,1.082,0.754,2.47,2.021,2.679l0.723-0.281l0.305-0.946l-1.492,0.666c-0.802-0.305-1.188-1.203-1.291-1.957l1.869,0.747
			l1.09-0.882l-0.111-0.281l-0.738,0.449C119.773,50.41,118.923,49.849,118.386,49.062 M109.348,51.268l-0.441,0.305l1.989,0.233
			l1.94,1.412l-0.192-0.401C111.994,51.588,110.687,50.883,109.348,51.268 M109.3,52.094c-1.051,0.674-2.631,1.283-3.826,0.457
			l-0.024,0.105l1.139,1.154c1.13,0.28,1.86-0.705,2.759-1.154l1.459-0.266L109.3,52.094 M110.005,53.497
			c-1.195-0.28-1.708,1.436-2.943,1.251l-0.633,0.016l0.288,0.281c1.46,0.786,2.166-0.986,3.289-1.468V53.497z M111.473,53.923
			c-1.146,0.024-1.941,0.986-2.839,1.595c1.563,0.369,2.479-1.362,4.066-1.203l0.24-0.096L111.473,53.923 M114.039,54.636
			c-1.307-0.256-2.446,0.369-3.433,1.115v0.081c1.243-0.177,2.197-0.987,3.433-1.139V54.636z M113.494,55.334l-0.457,0.225
			l1.387,0.777l0.674,1.773l0.649,0.168l-0.28-0.281l-0.489-1.901L113.494,55.334z M112.571,56.353l0.345,0.666
			c0.417,0.746,0.241,1.741-0.072,2.494l0.041,0.601c0.328-0.833,1.21-1.531,0.874-2.629L112.571,56.353 M115.683,56.89l0.265,0.842
			l0.818,0.289l0.329-0.152l-0.938-0.706L115.683,56.89 M114.368,58.646l0.265,0.754l1.419,0.16l0.481-0.505l-0.129,0.056
			l-1.516-0.16L114.368,58.646z M113.782,60.587l0.137,0.673l1.468,0.867c1.082,0.08,1.652-1.204,2.734-1.026l0.465,0.16
			l-0.12-0.328c-0.85-0.738-1.62,0.296-2.382,0.561c-0.882,0.28-1.692-0.177-2.221-0.906H113.782z M112.804,61.621l1.083,1.339
			l2.117,0.057l0.425-0.393l-0.562,0.16C114.673,63.065,113.59,62.592,112.804,61.621"/>
		<polygon points="108.938,115.908 113.342,111.497 108.754,106.885 104.319,111.297 99.467,116.156 108.176,124.865 
			102.41,130.632 107.142,135.363 117.769,124.745 		"/>
		<polygon points="205.039,124.593 196.362,115.908 200.765,111.497 196.17,106.885 191.751,111.297 186.883,116.156 
			195.593,124.865 189.842,130.632 194.558,135.363 205.2,124.745 		"/>
		<polygon points="29.438,130.68 19.911,121.152 29.398,111.665 24.851,107.117 10.8,121.177 15.348,125.724 15.363,125.7 
			24.891,135.228 		"/>
		<polygon points="88.953,130.68 81.976,123.703 88.512,123.703 88.512,118.602 81.992,118.602 88.921,111.665 84.374,107.117 
			70.315,121.177 74.863,125.724 74.878,125.7 84.405,135.228 		"/>
		<path d="M49.351,125.219l2.382-6.256l2.462,6.256H49.351z M58.053,135.034l6.224-2.485l-9.143-23.635h-6.792l-9.135,23.635
			l6.408,2.485l1.66-4.37h9.063L58.053,135.034z"/>
		<path d="M134.697,125.219l2.383-6.256l2.47,6.256H134.697z M143.399,135.034l6.231-2.485l-9.15-23.635h-6.794l-9.142,23.635
			l6.416,2.485l1.668-4.37h9.046L143.399,135.034z"/>
		<path d="M165.791,122.051l3.921-3.545l-3.921-3.553V122.051z M177.652,130.319l-5.462,4.804l-6.432-6.769v4.074l-6.77,2.694
			v-26.201h10.242l7.201,6.688v5.35l-3.833,3.85L177.652,130.319z"/>
		<polygon points="186.915,162.815 179.93,155.83 186.458,155.83 186.458,150.722 179.938,150.722 186.866,143.801 182.319,139.253 
			168.276,153.304 172.816,157.851 172.84,157.827 182.368,167.354 		"/>
		<polygon points="161.805,162.815 152.27,153.288 161.757,143.801 157.209,139.253 143.167,153.304 147.714,157.859 
			147.73,157.844 157.258,167.354 		"/>
		<path d="M35.686,154.178l3.93-3.568l-3.93-3.553V154.178z M35.686,157.643v7.033l-6.801,2.534v-26.168h10.883l7.169,6.784v5.445
			l-8.091,7.475L35.686,157.643z"/>
		<path d="M122.677,157.418l2.39-6.264l2.462,6.264H122.677z M131.378,167.17l6.223-2.485l-9.134-23.643h-6.81l-9.134,23.643
			l6.415,2.485l1.669-4.362h9.063L131.378,167.17z"/>
		<path d="M62.76,185.969v-0.354l0.489-0.248l0.185-0.145l0.024-0.08l0.064-1.187c0.016-0.682,0.024-1.5,0.024-2.455
			c0-1.411-0.008-2.276-0.008-2.606c-0.008-0.842-0.041-1.313-0.081-1.436l-0.097-0.12l-1.034-0.145v-0.568l1.941,0.048
			c0.802,0,1.58-0.024,2.302-0.048v0.568l-0.915,0.137l-0.112,0.12l-0.064,0.826l-0.032,1.854c0,0.088,0,0.729,0.008,1.933
			l0.016,1.893l0.016,1.138l1.259,0.041l1.749-0.12l0.329-0.08l0.112-0.249l0.257-1.154h0.561l-0.016,0.216l-0.161,1.347
			l-0.064,0.755l-0.392,0.071l-1.268,0.049c-0.072,0-0.601-0.017-1.563-0.04l-1.54-0.024C64.316,185.904,63.65,185.92,62.76,185.969
			"/>
		<path d="M72.023,185.969v-0.57l0.649-0.063l0.177-0.089l0.153-0.208l0.449-1.011c0.12-0.288,0.337-0.826,0.666-1.644l1.749-4.299
			l0.584-1.508h0.946l2.992,6.97l0.409,0.914l0.273,0.602l0.12,0.184l0.144,0.073l0.385,0.048l0.305,0.031v0.57l-1.861-0.057
			l-2.35,0.057v-0.57l0.914-0.096l0.104-0.177l-0.161-0.545l-0.561-1.476h-3.44l-0.289,0.802l-0.337,1.155l0.104,0.225l0.955,0.111
			v0.57l-1.541-0.057L72.023,185.969z M74.982,182.327l1.412,0.041l1.372-0.041l-1.42-3.424L74.982,182.327z"/>
		<path d="M90.733,179.063h-0.562l-0.064-1.099l-0.713-0.529l-1.155-0.232l-1.412,0.465l-0.489,1.083l0.153,0.714l0.401,0.433
			l0.762,0.297l1.083,0.2l0.897,0.161l0.875,0.336l0.529,0.457l0.329,0.643l0.128,0.874l-0.361,1.516l-0.738,0.891l-0.978,0.601
			l-1.925,0.321l-1.467-0.145l-1.404-0.537c0.128-0.506,0.209-1.283,0.217-2.326h0.544l0.081,1.211l0.874,0.729l1.332,0.329
			l1.147-0.24l0.714-0.609l0.224-0.891l-0.16-0.729l-0.489-0.489l-1.171-0.369c-0.81-0.168-1.339-0.288-1.596-0.376l-0.93-0.49
			l-0.514-0.794l-0.184-0.994l0.32-1.388l0.834-0.97l1.154-0.498l1.332-0.152l1.371,0.12l1.163,0.369l0.04,0.161l-0.136,0.85
			L90.733,179.063z"/>
		<path d="M103.581,186.017c-0.376-0.946-0.729-1.828-1.083-2.663l-0.955-2.277c-0.738-1.772-1.203-2.839-1.372-3.167l-0.384-0.578
			l-0.843-0.137v-0.577c1.075,0.024,1.717,0.057,1.949,0.057l2.414-0.057v0.577l-0.826,0.073l-0.192,0.096l-0.064,0.16l0.441,1.275
			l0.273,0.674l0.04,0.112l1.692,4.13l1.492-3.681c0.032-0.097,0.184-0.506,0.465-1.26l0.369-1.074l0.016-0.16l-0.04-0.177
			l-0.096-0.08l-0.249-0.04l-0.737-0.049v-0.577l1.7,0.057l1.452-0.057v0.577l-0.762,0.153c-0.121,0.08-0.369,0.594-0.754,1.507
			l-0.473,1.1l-0.891,2.165c-0.778,1.837-1.299,3.127-1.572,3.897H103.581z"/>
		<path d="M111.585,185.969V185.6l0.649-0.393l0.072-0.898c0.04-0.762,0.064-1.323,0.064-1.668v-3.016l-0.032-1.291l-0.104-0.923
			l-0.096-0.096l-0.946-0.129v-0.513h2.43l2.037-0.024l1.354-0.032l0.979,0.024l0.217,0.032l0.057,0.08l-0.152,0.979l-0.057,0.962
			h-0.505l-0.072-0.97l-0.08-0.144l-0.538-0.098l-1.29-0.08l-1.22,0.056c-0.057,0.498-0.088,1.14-0.088,1.918v1.362l0.946,0.057
			l1.106-0.024l0.425-0.048l0.104-0.145l0.097-0.85h0.528l-0.031,1.476l0.031,1.459h-0.528l-0.112-0.954l-0.281-0.168l-1.202-0.072
			l-1.083,0.048v2.799l0.031,0.81l1.276,0.049l1.339-0.049l0.738-0.144l0.079-0.112l0.265-1.219h0.538
			c-0.097,0.874-0.145,1.604-0.145,2.173l-0.089,0.08l-1.21,0.064l-1.083-0.04c-1.059-0.009-1.78-0.024-2.173-0.024
			C113.71,185.904,112.973,185.92,111.585,185.969"/>
		<path d="M130.399,179.32h-0.521l-0.032-0.626l-0.071-0.505l-0.346-0.329l-1.01-0.457l-1.275-0.168
			c-1.115,0-2.013,0.345-2.671,1.042c-0.665,0.682-1.011,1.62-1.011,2.84c0,1.314,0.361,2.365,1.06,3.151
			c0.713,0.77,1.571,1.146,2.59,1.146l0.874-0.08l0.834-0.28l0.016-0.698l0.009-0.625l-0.041-0.763l-0.191-0.104l-1.26-0.129v-0.528
			l2.005,0.023l2.013-0.023v0.424l-0.505,0.226l-0.088,0.368l-0.017,1.107l0.049,1.042c-0.826,0.297-1.548,0.506-2.165,0.634
			l-1.854,0.185c-0.994,0-1.876-0.169-2.654-0.506l-1.38-0.929l-0.874-1.221c-0.313-0.673-0.465-1.436-0.465-2.262l0.305-1.82
			l0.858-1.362l1.268-0.963l1.475-0.505l1.685-0.161c0.77,0,1.468,0.064,2.117,0.209l1.523,0.441l0.049,0.136
			C130.592,177.644,130.504,178.334,130.399,179.32"/>
		<path d="M133.848,185.969v-0.57l0.642-0.063l0.185-0.089l0.145-0.208l0.449-1.011c0.12-0.288,0.337-0.826,0.674-1.644l1.74-4.299
			l0.585-1.508h0.954l2.976,6.97l0.417,0.914l0.266,0.602l0.136,0.184l0.137,0.073l0.385,0.048l0.296,0.031v0.57l-1.853-0.057
			l-2.341,0.057v-0.57l0.897-0.096l0.104-0.177l-0.145-0.545l-0.577-1.476h-3.433l-0.289,0.802l-0.337,1.155l0.104,0.225
			l0.955,0.111v0.57l-1.549-0.057L133.848,185.969z M136.799,182.327l1.42,0.041l1.363-0.041l-1.419-3.424L136.799,182.327z"/>
		<path d="M152.55,179.063h-0.553l-0.073-1.099l-0.713-0.529l-1.154-0.232l-1.404,0.465l-0.497,1.083l0.152,0.714l0.401,0.433
			l0.77,0.297l1.074,0.2l0.898,0.161l0.882,0.336l0.521,0.457l0.329,0.643l0.12,0.874l-0.345,1.516l-0.746,0.891l-0.978,0.601
			l-1.926,0.321l-1.459-0.145l-1.42-0.537c0.145-0.506,0.217-1.283,0.217-2.326h0.562l0.064,1.211l0.874,0.729l1.347,0.329
			l1.131-0.24l0.722-0.609l0.225-0.891l-0.16-0.729l-0.481-0.489l-1.187-0.369c-0.802-0.168-1.323-0.288-1.588-0.376l-0.931-0.49
			l-0.521-0.794l-0.168-0.994l0.305-1.388l0.842-0.97l1.163-0.498l1.323-0.152l1.38,0.12l1.154,0.369l0.04,0.161l-0.128,0.85
			L152.55,179.063z"/>
	</g>
</g>
</svg>
