<?xml version="1.0" encoding="utf-8"?>
<!DOCTYPE svg PUBLIC "-//W3C//DTD SVG 1.1//EN" "http://www.w3.org/Graphics/SVG/1.1/DTD/svg11.dtd">
<svg version="1.1" id="Layer_1" xmlns="http://www.w3.org/2000/svg" xmlns:xlink="http://www.w3.org/1999/xlink" x="0px" y="0px" width="216px" height="216px" viewBox="0 0 216 216" enable-background="new 0 0 216 216" xml:space="preserve">
<path fill-rule="evenodd" clip-rule="evenodd" fill="#E60000" d="M53,0h108.003C190.702,0,215,24.3,215,54v108.003
	C215,191.702,190.702,216,161.003,216H53c-29.7,0-54-24.298-54-53.997V54C-1,24.3,23.3,0,53,0z"/>
<path fill="#FFFFFF" d="M166.486,90.854c0-32.341-26.227-58.568-58.568-58.568c-32.34,0-58.568,26.228-58.568,58.568
	s26.228,58.567,58.568,58.567C140.26,149.422,166.486,123.195,166.486,90.854L166.486,90.854z M108.377,123.311
	c-15.992,0.053-32.633-13.594-32.705-35.514C75.627,73.3,83.445,59.333,93.441,51.069c9.767-8.073,23.107-13.253,35.221-13.294
	c1.559,0,3.189,0.124,4.188,0.462c-10.593,2.197-19.022,12.055-18.985,23.238c0,0.005,0,0.012,0,0.018
	c0,0.311,0.023,0.622,0.071,0.929c17.724,4.316,25.77,15.025,25.818,29.808C139.805,107.012,128.121,123.242,108.377,123.311z"/>
<path fill="#FFFFFF" d="M58.507,167.576L51.668,184.1h-3.945l-7.002-16.523h4.75l4.22,10.949l4.25-10.949H58.507L58.507,167.576z
	 M66.746,184.594c-1.525,0-2.9-0.373-4.124-1.117c-1.224-0.746-2.18-1.783-2.867-3.113c-0.687-1.33-1.031-2.836-1.031-4.516
	c0-1.682,0.344-3.182,1.031-4.502c0.688-1.318,1.643-2.35,2.867-3.096c1.224-0.744,2.599-1.117,4.124-1.117
	c1.544,0,2.928,0.373,4.152,1.117c1.225,0.746,2.18,1.777,2.868,3.096c0.687,1.32,1.031,2.82,1.031,4.502
	c0,1.68-0.344,3.186-1.031,4.516c-0.688,1.33-1.643,2.367-2.868,3.113C69.674,184.221,68.29,184.594,66.746,184.594L66.746,184.594z
	 M66.667,181.006c1.077,0,1.967-0.475,2.67-1.424s1.054-2.197,1.054-3.744s-0.351-2.795-1.054-3.744s-1.593-1.424-2.67-1.424
	c-1.078,0-1.964,0.475-2.658,1.424c-0.695,0.949-1.042,2.197-1.042,3.744s0.347,2.795,1.042,3.744
	C64.703,180.531,65.589,181.006,66.667,181.006L66.667,181.006z M129.443,184.594c-1.525,0-2.899-0.373-4.123-1.117
	c-1.225-0.746-2.18-1.783-2.867-3.113s-1.031-2.836-1.031-4.516c0-1.682,0.344-3.182,1.031-4.502
	c0.688-1.318,1.643-2.35,2.867-3.096c1.224-0.744,2.598-1.117,4.123-1.117c1.545,0,2.928,0.373,4.152,1.117
	c1.225,0.746,2.18,1.777,2.867,3.096c0.688,1.32,1.031,2.82,1.031,4.502c0,1.68-0.344,3.186-1.031,4.516s-1.643,2.367-2.867,3.113
	C132.371,184.221,130.988,184.594,129.443,184.594L129.443,184.594z M129.364,181.006c1.077,0,1.968-0.475,2.671-1.424
	c0.702-0.949,1.054-2.197,1.054-3.744s-0.352-2.795-1.054-3.744c-0.703-0.949-1.594-1.424-2.671-1.424s-1.964,0.475-2.657,1.424
	c-0.695,0.949-1.043,2.197-1.043,3.744s0.348,2.795,1.043,3.744C127.4,180.531,128.287,181.006,129.364,181.006L129.364,181.006z
	 M87.613,179.637v-8.209c-0.435-0.668-1.71-0.838-2.476-0.838c-0.766,0-1.455,0.211-2.068,0.633
	c-0.613,0.424-1.098,1.027-1.455,1.811c-0.358,0.783-0.536,1.691-0.536,2.723s0.178,1.939,0.536,2.725
	c0.357,0.783,0.842,1.387,1.455,1.809C85.073,181.672,85.774,180.84,87.613,179.637L87.613,179.637z M91.949,161.264v23.109h-4.241
	l0.119-1.26c-0.924,0.777-2.041,1.48-3.125,1.48c-4.886,0-7.921-3.809-7.921-8.699c0-4.639,3.25-8.732,7.921-8.732
	c1.343,0,1.821,0.172,2.976,0.752v-6.691L91.949,161.264L91.949,161.264z M101.708,167.094c2.405-0.074,3.389,0.604,4.663,1.811
	c1.274,1.209,1.911,3.031,1.911,5.469v10.037h-4.139l0.082-1.432c-0.983,0.803-2.664,1.656-3.832,1.656
	c-1.223,0-2.293-0.221-3.211-0.658c-0.917-0.439-1.625-1.047-2.125-1.828s-0.749-1.662-0.749-2.645c0-1.541,0.545-2.775,1.636-3.705
	c1.537-1.311,4.338-2.182,7.986-2.414v-0.297c0-1.918-1.541-2.656-2.762-2.537c-2.074,0.201-2.665,0.336-4.179,1.658l-1.376-2.959
	C97.649,167.623,99.023,167.174,101.708,167.094L101.708,167.094z M101.188,180.98c0.958-0.162,2.054-0.719,2.798-1.178l-0.016-3.43
	c-2.021,0-5.33,0.234-5.452,2.766C98.434,180.873,99.714,181.232,101.188,180.98L101.188,180.98z M118.929,164.375
	c0.755,0,1.661,0.105,2.313,0.559l0.582-3.439c-0.836-0.598-1.906-0.693-3.375-0.693c-1.855,0-3.455,0.553-4.475,1.574
	c-1.02,1.02-1.284,2.5-1.284,4.273v1.053h-2.405v3.42h2.405V184.1h4.149v-12.979h3.638v-3.42h-3.761v-0.99
	C116.717,165.67,117.318,164.375,118.929,164.375L118.929,164.375z M149.293,167.146c4.369,0,5.785,4.242,5.758,7.484l-0.081,9.592
	h-4.353v-8.973c0-1.445,0.033-2.35-0.641-3.082c-0.672-0.732-1.266-1.404-2.509-1.404c-1.257,0-2.443,0.594-3.169,1.756v11.621
	h-4.436v-16.564l4.172,0.033l-0.084,1.369C145.342,167.297,147.189,167.146,149.293,167.146L149.293,167.146z M172.658,175.984
	c0,0.275-0.018,0.588-0.056,1.1l-10.914-0.041c0.442,2.695,1.818,3.971,4.14,3.971c1.648,0,3.768-0.299,4.834-1.533l1.066,3.438
	c-0.793,1.076-4.922,1.717-6.121,1.717c-1.648,0-3.1-0.373-4.354-1.119c-1.256-0.744-2.225-1.781-2.908-3.111
	s-1.025-2.836-1.025-4.516c0-1.66,0.332-3.154,0.998-4.484c0.664-1.33,1.586-2.369,2.767-3.113c1.18-0.744,2.509-1.117,3.989-1.117
	c1.461,0,2.767,0.367,3.918,1.102c1.152,0.734,2.051,1.768,2.697,3.096C172.336,172.701,172.658,174.238,172.658,175.984
	L172.658,175.984z M165.064,170.648c-1.698,0-2.912,1.051-3.175,3.258h6.241C167.899,171.766,166.72,170.648,165.064,170.648z"/>
</svg>
