<?xml version="1.0" encoding="utf-8"?>
<!DOCTYPE svg PUBLIC "-//W3C//DTD SVG 1.1//EN" "http://www.w3.org/Graphics/SVG/1.1/DTD/svg11.dtd">
<svg version="1.1" id="Layer_1" xmlns="http://www.w3.org/2000/svg" xmlns:xlink="http://www.w3.org/1999/xlink" x="0px" y="0px" width="216px" height="216px" viewBox="0 0 216 216" enable-background="new 0 0 216 216" xml:space="preserve">
<g>
	<path fill-rule="evenodd" clip-rule="evenodd" stroke="#000000" stroke-width="0.5669" stroke-miterlimit="22.9256" d="
		M13.439-0.138h191.396c6.767,0,12.303,5.536,12.303,12.302V203.56c0,6.767-5.536,12.303-12.303,12.303H13.439
		c-6.766,0-12.302-5.536-12.302-12.303V12.164C1.138,5.398,6.673-0.138,13.439-0.138z"/>
	<path fill-rule="evenodd" clip-rule="evenodd" fill="#FFFFFF" d="M98.874,193.454h2.996v-9.559c0-0.233,0.085-0.428,0.285-0.428
		c0.1-0.015,0.288,0.109,0.457,0.395l5.678,9.592h3.709v-14.979h-2.996v9.558c0,0.234-0.085,0.429-0.286,0.429
		c-0.172,0-0.516-0.335-0.827-0.885l-2.218-3.917c-0.51-0.925-2.648-4.514-2.804-5.185h-3.995V193.454L98.874,193.454z
		 M49.084,191.313c0,0.357,1.783,2.141,2.14,2.141h8.417c0.357,0,2.14-1.783,2.14-2.141v-12.839H58.5v10.984
		c0,0.386-0.068,0.394-0.143,0.714c-0.32,0.074-0.328,0.143-0.713,0.143h-4.565c-0.333,0-0.713-0.381-0.713-0.713v-11.128h-3.281
		V191.313L49.084,191.313z M66.489,193.454h3.281v-5.422c0-0.333,0.237-0.57,0.571-0.57h1.855c0.18,0,0.424,0.191,0.62,0.553
		l2.946,5.439l3.449-0.045l-3.877-7.517l3.709-7.418h-3.424l-2.984,5.686c-0.208,0.397-0.467,0.591-0.582,0.591h-1.712
		c-0.334,0-0.571-0.236-0.571-0.57v-5.706h-3.281V193.454L66.489,193.454z M150.232,181.613c0.223,0.148,0.428,0.188,0.428,0.57
		v11.271h3.281v-11.271c0-0.334,0.237-0.57,0.571-0.57h4.137v-3.139h-12.554l0.009,3.125L150.232,181.613L150.232,181.613z
		 M164.214,182.326v2.425c0,0.333,0.381,0.714,0.713,0.714h4.708c0.438,0,0.856-0.133,0.856-0.57v-2.854
		c0-0.334-0.237-0.571-0.571-0.571h-5.136C164.346,181.47,164.214,181.888,164.214,182.326L164.214,182.326z M173.63,180.472
		l-0.054,13.008h-3.085v-5.161c-0.258-0.173-0.251-0.286-0.571-0.286h-5.136c-0.334,0-0.57,0.237-0.57,0.571v4.876h-3.139v-12.723
		c0-0.358,1.924-2.282,2.282-2.282h8.132C171.924,178.475,173.388,180.11,173.63,180.472L173.63,180.472z M119.636,182.326v2.425
		c0,0.333,0.381,0.714,0.714,0.714h4.708c0.438,0,0.855-0.133,0.855-0.57v-2.854c0-0.334-0.237-0.571-0.57-0.571h-5.136
		C119.768,181.47,119.636,181.888,119.636,182.326L119.636,182.326z M129.052,180.472l-0.054,13.008h-3.085v-5.161
		c-0.258-0.173-0.251-0.286-0.57-0.286h-5.136c-0.334,0-0.571,0.237-0.571,0.571v4.876h-3.139v-12.723
		c0-0.358,1.925-2.282,2.283-2.282h8.131C127.346,178.475,128.81,180.11,129.052,180.472L129.052,180.472z M85.606,182.041v2.71
		c0,0.333,0.381,0.714,0.713,0.714h3.995c0.438,0,0.856-0.133,0.856-0.57v-2.854c0-0.333-0.381-0.714-0.713-0.714h-4.137
		C85.987,181.327,85.606,181.708,85.606,182.041L85.606,182.041z M82.467,178.902c0-0.329,0.099-0.428,0.428-0.428h9.13
		c0.358,0,2.283,1.924,2.283,2.282v4.851c0,0.361-1.826,1.955-2.14,2.425l2.78,5.428h-3.617l-2.303-4.841
		c-0.205-0.433-0.323-0.587-0.855-0.587h-1.997c-0.334,0-0.571,0.237-0.571,0.571v4.851h-3.139V178.902L82.467,178.902z
		 M137.678,188.032h5.564v-2.71l-5.18-0.051c-0.587-0.006-0.955-0.324-0.955-0.662v-2.141c0-0.438,0.133-0.855,0.57-0.855h6.135
		v-3.139h-9.416c-0.328,0-0.428,0.099-0.428,0.428v14.552h3.139v-4.565C137.107,188.311,137.24,188.15,137.678,188.032z"/>
	<g>
		
			<rect x="48.725" y="37.129" fill-rule="evenodd" clip-rule="evenodd" fill="#FFFFFF" stroke="#000000" stroke-width="0.5669" stroke-miterlimit="22.9256" width="121.773" height="122.05"/>
		<polygon fill-rule="evenodd" clip-rule="evenodd" stroke="#000000" stroke-width="0.5669" stroke-miterlimit="22.9256" points="
			136.735,130.945 82.768,130.945 110.443,60.373 		"/>
	</g>
</g>
</svg>
