<?xml version="1.0" encoding="utf-8"?>
<!DOCTYPE svg PUBLIC "-//W3C//DTD SVG 1.1//EN" "http://www.w3.org/Graphics/SVG/1.1/DTD/svg11.dtd">
<svg version="1.1" id="Layer_1" xmlns="http://www.w3.org/2000/svg" xmlns:xlink="http://www.w3.org/1999/xlink" x="0px" y="0px" width="216px" height="216px" viewBox="0 0 216 216" enable-background="new 0 0 216 216" xml:space="preserve">
<g>
	<path fill="#FFFFFF" fill-opacity="0" d="M0.122,0.122h216v216h-216V0.122z"/>
	<path fill="#C7232F" d="M146.273,49.78c6.781-3.391,10.261-2.87,10.348,0.521c0.085,4.434-0.61,10.347-1.047,14.607
		c-2.606,23.129-6.78,41.996-7.128,65.82c11.217-29.041,20.521-49.039,32.607-73.818c3.825-7.913,6.347-6.435,9.477-7.913
		c12.26-5.479,12.693-2.088,11.042,4.694c-5.911,24.607-21.041,102.426-23.388,114.339c-0.696,3.479-4.521,2.087-5.392,0.696
		c-4.521-6-9.392-6.088-8.87-10.174c2.783-19.823,12.696-69.993,15.218-81.818c-13.13,26.779-26.695,60.429-33.648,79.383
		c-1.479,4-4.174,3.74-5.825,0.783c-2.437-4.262-6.958-6.348-7.651-11.217c-2.437-15.564,2.693-45.3,3.39-64.168
		c-7.043,20.519-19.041,60.517-24.259,78.513c-2.173,7.479-9.39,6.175-7.477-0.955c7.998-30.346,25.128-83.819,32.518-103.035
		C137.926,51.432,142.533,51.693,146.273,49.78L146.273,49.78z M102.973,46.042c-2.349-0.521-9.131,3.13-13.304,3.739
		c-1.303,0.349-2.521,1.652-2.955,2.694C80.104,67.69,74.193,82.125,69.15,95.166c-7.615,1.396-15.21,2.904-22.782,4.521
		c6.173-15.65,12.348-31.213,18.346-46.083c2.956-7.477-4.868-8.172-7.914-0.695c-3.912,9.651-11.303,27.822-19.476,48.953
		c-6,1.478-12.521,3.13-19.128,5.13c-4.869,1.303-5.044,2.606-2.958,5.565c1.217,1.564,3.479,1.391,4.609,2.608
		c2.87,2.955,4.609,6.521,9.737,7.042c-4.694,12.173-9.217,24.606-13.215,36.519c-2.609,7.564,4.782,9.13,7.564,1.131
		c4.521-12.781,9.303-25.736,14.261-38.867c4.086-0.869,13.912-2.955,23.042-5.043c-7.217,19.998-11.912,35.041-13.826,42.431
		c-0.346,1.391,0.349,2.087,0.609,2.781c2.349,3.479,4.783,3.652,7.912,8.088c0.783,1.218,3.652,1.825,4.697-1.131
		c6.232-18.921,12.871-37.706,19.91-56.342c2.696-0.696,7.566-1.827,10.521-6.174c5.217-7.826,6.697-6.259,8.087-8.608
		c1.564-3.042,0.434-5.738-5.13-5.13c0,0-2.087,0.175-6.087,0.61c6.26-15.913,11.827-29.389,15.651-39.736
		C104.885,49.171,105.061,46.563,102.973,46.042L102.973,46.042z"/>
	<path fill="#C7232F" d="M96.857,144.85c0.904-1.147,1.725-2.332,2.464-3.426c3.295-4.875,0.087-7.74-3.303-4.87
		c-0.484,0.444-0.987,0.93-1.487,1.435c-0.556-1.739-1.107-3.48-1.655-5.223c1.554-1.904,3.067-3.86,4.358-5.863
		c5.449-8.452-5.215-13.303-9.825-7.824c-2.433,2.87-1.825,5.738-1.13,8.26c0.202,0.758,0.516,1.84,0.904,3.153
		c-1.691,1.767-3.326,3.585-4.903,5.453c-5.304,6.088-3.829,13.927,1.739,15.651c3.357,1.041,6.525-0.477,9.27-2.897
		c0.132,0.346,0.259,0.674,0.382,0.985c1.478,3.652,6.087,2.521,4.26-1.913C97.637,147.025,97.269,146.022,96.857,144.85
		L96.857,144.85z M89.309,137.188c0.45,1.42,0.936,2.912,1.42,4.339c-0.606,0.506-1.222,1.017-1.841,1.375
		c-2.156,1.248-3.739-0.087-0.957-3.825C88.385,138.431,88.852,137.806,89.309,137.188L89.309,137.188z M91.049,126.541
		c-0.16-0.404-0.252-0.801-0.336-1.116c-1.56-5.827,5.119-4.271,1.74-0.435C91.973,125.534,91.538,126.071,91.049,126.541z"/>
</g>
</svg>
