<?xml version="1.0" encoding="utf-8"?>
<!DOCTYPE svg PUBLIC "-//W3C//DTD SVG 1.1//EN" "http://www.w3.org/Graphics/SVG/1.1/DTD/svg11.dtd">
<svg version="1.1" id="Layer_1" xmlns="http://www.w3.org/2000/svg" xmlns:xlink="http://www.w3.org/1999/xlink" x="0px" y="0px" width="216px" height="216px" viewBox="0 0 216 216" enable-background="new 0 0 216 216" xml:space="preserve">
<path fill-rule="evenodd" clip-rule="evenodd" fill="#F1552C" d="M157.366,21.512h1.882c4.656,0,8.467,3.666,8.467,8.146v20.063
	h20.244c4.483,0,8.146,3.809,8.146,8.466v1.882c0,4.657-3.663,8.466-8.146,8.466h-20.244v0.186H148.9v-0.186h-0.002V49.721h0.002
	V29.658C148.9,25.178,152.711,21.512,157.366,21.512L157.366,21.512z M185.907,31.527v-1.869c0-14.638-12.078-26.339-26.659-26.339
	h-1.882c-14.581,0-26.659,11.701-26.659,26.338l-0.002,20.062l0.002,18.816v18.377h55.2v-0.186h2.052
	c14.639,0,26.34-12.078,26.34-26.659v-1.882c0-14.582-11.701-26.66-26.34-26.66H185.907z"/>
<path fill-rule="evenodd" clip-rule="evenodd" fill="#34A15F" d="M78.576,36.472h-2.54c-6.289,0-11.432,4.95-11.432,11V74.56H37.266
	c-6.049,0-10.999,5.145-10.999,11.433v2.541c0,6.287,4.949,11.431,10.999,11.431h27.338v0.25h25.404v-0.25h0.001V74.56h-0.001
	V47.472C90.008,41.422,84.863,36.472,78.576,36.472L78.576,36.472z M125.872,188.755h2.54c6.29,0,11.432-4.949,11.432-11v-27.089
	h27.338c6.05,0,11-5.145,11-11.432v-2.54c0-6.288-4.95-11.433-11-11.433h-27.338v-0.25h-25.271v0.248l0.002,25.407l-0.002,27.089
	c0,0.488-0.012,0.974-0.031,1.459C115.29,184.581,120.098,188.755,125.872,188.755L125.872,188.755z M164.409,175.232v2.522
	c0,19.765-16.309,35.564-35.997,35.564h-2.54c-9.001,0-17.296-3.304-23.647-8.777c-6.353,5.474-14.647,8.777-23.649,8.777h-2.54
	c-19.689,0-35.998-15.8-35.998-35.564v-2.522h-2.771c-19.765,0-35.565-16.31-35.565-35.998v-2.54c0-9.207,3.455-17.675,9.155-24.081
	c-5.7-6.407-9.155-14.874-9.155-24.08v-2.541c0-19.688,15.8-35.997,35.564-35.997h2.772v-2.523
	c0-19.765,16.309-35.565,35.998-35.565h2.54c19.689,0,35.997,15.8,35.997,35.565l0.002,27.088l-0.002,25.406v0.48h49.837v0.251
	h2.772c19.764,0,35.565,16.308,35.565,35.998v2.54c0,19.688-15.802,35.998-35.565,35.998H164.409L164.409,175.232z M89.874,125.012
	H64.604v0.25H37.266c-6.05,0-10.999,5.145-10.999,11.433v2.54c0,6.287,4.949,11.432,10.999,11.432h27.337v27.089
	c0,6.051,5.144,11,11.432,11h2.54c5.774,0,10.583-4.174,11.331-9.54c-0.02-0.485-0.032-0.971-0.032-1.459l-0.001-27.089
	l0.001-25.407V125.012z"/>
</svg>
