<?xml version="1.0" encoding="utf-8"?>
<!DOCTYPE svg PUBLIC "-//W3C//DTD SVG 1.1//EN" "http://www.w3.org/Graphics/SVG/1.1/DTD/svg11.dtd">
<svg version="1.1" id="Layer_1" xmlns="http://www.w3.org/2000/svg" xmlns:xlink="http://www.w3.org/1999/xlink" x="0px" y="0px" width="216px" height="216px" viewBox="0 0 216 216" enable-background="new 0 0 216 216" xml:space="preserve">
<g>
	<rect x="84.766" y="138.12" width="9.021" height="36.213"/>
	<polygon points="60.115,82.08 60.115,82.08 91.986,64.054 127.053,125.322 93.804,125.322 93.804,134.343 84.703,134.343 
		84.703,125.322 	"/>
	<path d="M60.563,175.254L60.563,175.254c-10.478,0-18.668-8.411-18.668-18.857s8.19-18.652,18.668-18.652
		c4.088,0,7.737,1.034,10.932,3.273v-15.365h9.099v48.771h-9.1v-2.256C68.3,174.221,64.651,175.254,60.563,175.254L60.563,175.254
		L60.563,175.254z M50.541,156.396L50.541,156.396c0,5.732,4.558,10.446,10.478,10.446c5.45,0,10.478-4.714,10.478-10.446
		c0-5.528-5.027-10.446-10.478-10.446C55.098,145.95,50.541,150.868,50.541,156.396z"/>
	<polygon points="140.255,125.324 140.255,125.324 96.543,49.083 127.959,30.634 182.603,125.324 	"/>
	<path d="M18.653,175.254L18.653,175.254C8.646,175.254,0,166.843,0,156.396s8.646-18.652,18.653-18.652
		c4.104,0,7.752,1.034,10.932,3.273v-2.866H38.7v36.272h-9.115v-2.256C26.861,174.221,22.758,175.254,18.653,175.254L18.653,175.254
		L18.653,175.254z M8.646,156.396c0,5.732,5.011,10.446,10.461,10.446c5.936,0,10.478-4.714,10.478-10.446
		c0-5.528-4.542-10.446-10.478-10.446C13.657,145.95,8.646,150.868,8.646,156.396z"/>
	<polygon points="23.228,114.667 23.228,114.667 54.645,96.421 71.497,125.332 29.147,125.332 	"/>
	<path d="M197.604,175.19c-10.009,0-15.943-5.122-16.397-12.497h9.568c0,2.459,1.362,5.731,7.283,5.935
		c4.103,0,6.374-2.458,6.374-4.306c-0.454-2.867-4.104-3.07-7.738-3.696c-4.102-0.595-7.281-1.425-9.568-2.443
		c-3.18-1.645-5.012-5.138-5.012-8.817c0-6.563,5.481-11.684,15.035-11.684c9.116,0,15.035,4.714,15.473,11.887h-9.099
		c0-1.833-0.455-4.917-5.921-4.917c-3.647,0-5.92,0.61-6.372,3.271c0,3.697,7.736,3.493,13.655,4.919
		c5.467,1.441,9.116,4.917,9.116,9.852C214.001,171.715,206.718,175.19,197.604,175.19z"/>
	<path d="M127.047,125.652L127.047,125.652h9.1v48.771h-9.1v-2.256c-2.741,2.053-6.39,3.086-10.478,3.086
		c-10.477,0-19.123-8.411-19.123-18.857s8.646-18.652,19.123-18.652c4.087,0,7.736,1.034,10.478,3.273V125.652L127.047,125.652z
		 M106.092,156.396L106.092,156.396c0,5.732,5.011,10.446,10.477,10.446c5.922,0,10.478-4.714,10.478-10.446
		c0-5.528-4.558-10.446-10.478-10.446C111.104,145.95,106.092,150.868,106.092,156.396z"/>
	<path d="M157.964,175.254L157.964,175.254c-10.463,0-18.653-8.411-18.653-18.857s8.19-18.652,18.651-18.652
		c4.104,0,7.754,1.034,10.934,3.273v-2.866h8.661v36.272h-8.661v-2.256c-3.18,2.053-6.829,3.086-10.934,3.086H157.964
		L157.964,175.254z M147.956,156.396L147.956,156.396c0,5.732,4.557,10.446,10.477,10.446c5.466,0,10.463-4.714,10.463-10.446
		c0-5.528-4.997-10.446-10.463-10.446C152.513,145.95,147.956,150.868,147.956,156.396z"/>
	<path fill="#1A171B" d="M208.408,125.607c0.726,0,1.437,0.186,2.129,0.558c0.69,0.374,1.232,0.907,1.617,1.603
		c0.388,0.693,0.581,1.418,0.581,2.173c0,0.747-0.189,1.464-0.573,2.15c-0.379,0.689-0.913,1.225-1.6,1.605
		c-0.688,0.382-1.405,0.571-2.154,0.571c-0.751,0-1.471-0.189-2.155-0.571c-0.688-0.381-1.223-0.916-1.604-1.605
		c-0.385-0.687-0.574-1.403-0.574-2.15c0-0.755,0.193-1.479,0.582-2.173c0.388-0.695,0.929-1.229,1.622-1.603
		C206.971,125.793,207.681,125.607,208.408,125.607L208.408,125.607z M208.408,126.324c-0.609,0-1.201,0.156-1.778,0.468
		c-0.574,0.312-1.025,0.759-1.351,1.337c-0.325,0.579-0.487,1.183-0.487,1.812c0,0.622,0.16,1.221,0.479,1.792
		c0.319,0.572,0.767,1.02,1.339,1.339c0.575,0.319,1.173,0.479,1.798,0.479c0.623,0,1.222-0.16,1.796-0.479
		c0.575-0.319,1.018-0.767,1.335-1.339c0.317-0.571,0.477-1.17,0.477-1.792c0-0.629-0.161-1.232-0.484-1.812
		c-0.323-0.578-0.771-1.025-1.351-1.337C209.603,126.48,209.011,126.324,208.408,126.324L208.408,126.324z M206.509,132.333v-4.659
		h1.6c0.548,0,0.944,0.041,1.188,0.127c0.245,0.087,0.438,0.237,0.586,0.451c0.146,0.215,0.217,0.442,0.217,0.684
		c0,0.341-0.12,0.637-0.364,0.889c-0.243,0.254-0.566,0.395-0.967,0.426c0.164,0.068,0.298,0.15,0.395,0.247
		c0.189,0.184,0.418,0.491,0.69,0.925l0.567,0.911h-0.917l-0.414-0.735c-0.325-0.576-0.587-0.938-0.786-1.084
		c-0.137-0.107-0.338-0.16-0.604-0.16h-0.441v1.979H206.509L206.509,132.333z M207.259,129.711h0.914
		c0.435,0,0.732-0.066,0.892-0.195c0.159-0.13,0.238-0.303,0.238-0.518c0-0.137-0.039-0.261-0.114-0.371
		c-0.078-0.107-0.184-0.189-0.317-0.242c-0.138-0.055-0.39-0.08-0.757-0.08h-0.855V129.711z"/>
</g>
</svg>
