<?xml version="1.0" encoding="utf-8"?>
<!DOCTYPE svg PUBLIC "-//W3C//DTD SVG 1.1//EN" "http://www.w3.org/Graphics/SVG/1.1/DTD/svg11.dtd">
<svg version="1.1" id="Layer_1" xmlns="http://www.w3.org/2000/svg" xmlns:xlink="http://www.w3.org/1999/xlink" x="0px" y="0px" width="216px" height="216px" viewBox="0 0 216 216" enable-background="new 0 0 216 216" xml:space="preserve">
<path fill-rule="evenodd" clip-rule="evenodd" fill="#21409A" d="M53.549,0.111h108.003c29.699,0,53.996,24.3,53.996,54v108.003
	c0,29.699-24.297,53.997-53.996,53.997H53.549c-29.7,0-54-24.298-54-53.997V54.111C-0.451,24.411,23.849,0.111,53.549,0.111z"/>
<path fill="#FFFFFF" d="M202.5,135.796h-87.265c4.847-4.741,7.489-11.15,7.489-19.558c0-3.082-0.904-6.412-2.149-9.437h68.061
	L202.5,135.796L202.5,135.796z M120.338,97.3c1.357-3.074,2.028-6.379,2.028-9.811c0-6.521-2.207-13.838-6.837-18.566
	c-0.206-0.211-0.415-0.417-0.625-0.619h35.339c21.423-0.036,23.843,9.591,28.393,17.583l5.456,11.414H120.338L120.338,97.3z
	 M104.448,100.9c4.127,1.695,8.718,10.887,8.718,15.338c0,9.821-4.682,15.019-14.523,18.216c-4.808,1.561-9.085,1.505-14.964,1.505
	H60.964l7.812-16.624l13.066-0.085c5.915-0.001,13.395,0.408,13.395-4.804c0-2.571-2.686-5.005-8.057-5.005H73.67l6.673-14.305h7.25
	c2.522,0,6.462-1.714,6.462-4.798c0-4.296-5.134-5.064-9.103-5.023H72.904l-15.316,32.463l-8.824,18.181H29.92l7.265-15.053
	L12.5,68.299h19.121l15.19,32.563l15.582-32.563h18.346l2.322-0.005c9.24,0,18.908,0.443,25.638,7.317
	c2.846,2.909,4.106,7.961,4.106,11.879c0,2.877-0.735,5.48-2.203,7.807C109.131,97.624,107.08,99.492,104.448,100.9z"/>
</svg>
