<?xml version="1.0" encoding="utf-8"?>
<!DOCTYPE svg PUBLIC "-//W3C//DTD SVG 1.1//EN" "http://www.w3.org/Graphics/SVG/1.1/DTD/svg11.dtd">
<svg version="1.1" xmlns="http://www.w3.org/2000/svg" xmlns:xlink="http://www.w3.org/1999/xlink" x="0px" y="0px" width="216px" height="216px" viewBox="0 0 216 216" enable-background="new 0 0 216 216" xml:space="preserve">
<g>
	<circle fill="#D52B1E" cx="108" cy="108" r="108"/>
</g>
<g>
	<g>
		<defs>
			<rect id="SVGID_1_" x="35" y="32.891" width="144.219" height="144.219"/>
		</defs>
		<clipPath id="SVGID_2_">
			<use xlink:href="#SVGID_1_"  overflow="visible"/>
		</clipPath>
		<path clip-path="url(#SVGID_2_)" fill="#FFCC00" d="M137.082,55.21c11.66,0,21.118,49.189,21.118,109.939h17.013
			c0-65.403-17.165-118.346-38.182-118.346c-12.01,0-22.618,15.863-29.625,40.783c-7.005-24.92-17.614-40.783-29.523-40.783
			c-21.017,0-38.13,52.893-38.13,118.295h17.013c0-60.749,9.359-109.889,21.017-109.889c11.66,0,21.117,45.437,21.117,101.481
			h16.913c0-56.045,9.509-101.481,21.168-101.481"/>
	</g>
</g>
</svg>
