<?xml version="1.0" encoding="utf-8"?>
<!DOCTYPE svg PUBLIC "-//W3C//DTD SVG 1.1//EN" "http://www.w3.org/Graphics/SVG/1.1/DTD/svg11.dtd">
<svg version="1.1" id="Layer_1" xmlns="http://www.w3.org/2000/svg" xmlns:xlink="http://www.w3.org/1999/xlink" x="0px" y="0px" width="216px" height="216px" viewBox="0 0 216 216" enable-background="new 0 0 216 216" xml:space="preserve">
<g>
	<path fill="#D86932" d="M152.52,150.906c0.017-0.165-0.104-0.184-0.217-0.165c-0.797,0.121-1.56-0.251-2.354-0.165
		c-1.265-0.363-2.614-0.319-3.854-0.813c-0.865,0.026-1.626-0.383-2.458-0.546c-0.728-0.146-1.427-0.441-2.127-0.702
		c-1.135-0.422-2.262-0.874-3.378-1.342c-1.047-0.438-2.05-0.978-3.071-1.463c-0.744-0.38-1.455-0.803-2.146-1.271
		c-0.763-0.477-1.507-0.979-2.218-1.523c-0.438-0.337-0.89-0.675-1.339-1.005c-1.714-1.263-3.133-2.847-4.64-4.335
		c-0.763-0.763-1.369-1.655-2.025-2.503c-0.493-0.623-0.961-1.271-1.402-1.938c-0.468-0.692-0.9-1.402-1.324-2.121
		c-0.475-0.805-0.901-1.626-1.281-2.483c-0.527-1.17-1.064-2.346-1.497-3.566c-0.294-0.822-0.622-1.636-0.873-2.483
		c-0.209-0.719-0.418-1.446-0.606-2.174c-0.129-0.475-0.209-0.968-0.347-1.444c-0.121-0.45-0.217-0.909-0.286-1.376
		c-0.077-0.468-0.259-0.943-0.198-1.429c0.041-0.347-0.226-0.589-0.201-0.935c0.019-0.303,0.167-0.666-0.138-0.943
		c-0.025-0.025-0.017-0.104-0.009-0.156c0.122-0.986-0.215-1.947-0.18-2.941c0.042-1.195,0.059-2.398,0-3.593
		c-0.07-1.385,0.146-2.744,0.205-4.111c0.046-0.935,0.159-1.869,0.339-2.787c0.209-1.022,0.407-2.052,0.614-3.082
		c0.217-1.022,0.545-2.008,0.798-3.021c0.155-0.606,0.354-1.186,0.561-1.774c0.251-0.788,0.548-1.558,0.876-2.319
		c0.554-1.194,1.115-2.38,1.713-3.557c0.606-1.186,1.307-2.32,2.078-3.402c0.735-1.047,1.515-2.068,2.345-3.055
		c1.247-1.506,2.656-2.821,4.061-4.153c0.84-0.797,1.705-1.619,2.777-2.156c1.071-1.039,2.484-1.576,3.652-2.484
		c1.169-0.416,2.188-1.143,3.367-1.566c0.664-0.242,1.35-0.519,1.998-0.822c1.005-0.477,2.085-0.779,3.135-1.109
		c1.141-0.372,2.311-0.666,3.487-0.891c0.821-0.147,1.662-0.277,2.466-0.501c0.433-0.113,0.901,0,1.265-0.165
		c0.414-0.199,0.805-0.12,1.204-0.12c0.31,0,0.526-0.26,0.856-0.2c0.276,0.026,0.552,0.018,0.821-0.018
		c0.027,0,0.044-0.085,0.061-0.138h6.692c-0.02,0.069,0.024,0.147,0.094,0.164h0.035c0.477,0.078,0.951-0.077,1.455,0.121
		c0.457,0.182,1.003,0,1.504,0.19c0.339,0.13,0.728,0.018,1.108,0.165c0.33,0.121,0.727,0.121,1.091,0.164
		c0.953,0.113,1.859,0.407,2.796,0.563c0.813,0.164,1.609,0.389,2.387,0.666c1.862,0.615,3.716,1.265,5.471,2.138
		c1.179,0.589,2.381,1.151,3.499,1.861c0.865,0.545,1.714,1.143,2.543,1.758c1.307,0.952,2.552,1.982,3.722,3.098
		c0.519,0.501,1.021,1.03,1.541,1.532c0.433,0.381,0.787,0.84,1.038,1.359c-0.468,0.441-0.944,0.874-1.438,1.298
		c-0.935,0.805-1.747,1.748-2.717,2.536c-0.815,0.658-1.479,1.463-2.286,2.138c-1.072,0.9-2.023,1.948-3.072,2.89
		c-0.891,0.814-1.739,1.671-2.7,2.451c-0.268-0.156-0.526-0.33-0.769-0.529c-0.736-0.727-1.516-1.401-2.355-2.007
		c-0.623-0.485-1.281-0.935-1.946-1.35c-0.52-0.303-1.005-0.658-1.525-0.961c-0.89-0.528-1.818-0.986-2.777-1.376
		c-0.598-0.243-1.221-0.415-1.799-0.693c-0.642-0.293-1.317-0.493-2.011-0.597c-0.7-0.121-1.367-0.477-2.11-0.364
		c-0.331-0.321-0.736-0.095-1.1-0.164c-0.363-0.07-0.719-0.191-1.1-0.173c-0.865,0.035-1.73,0-2.587,0.017
		c-0.865,0.018-1.672,0.036-2.528,0.122c-0.857,0.086-1.67,0.399-2.535,0.381c-1.62,0.527-3.254,1.004-4.796,1.748
		c-0.467,0.226-0.899,0.511-1.358,0.762c-1.446,0.796-2.742,1.817-3.979,2.908c-0.988,0.865-1.793,1.904-2.598,2.942
		c-0.667,0.848-1.239,1.757-1.724,2.718c-0.31,0.624-0.579,1.264-0.891,1.887c-0.33,0.649-0.416,1.384-0.823,2.008
		c0.019,0.752-0.414,1.393-0.561,2.12c-0.121,0.641-0.27,1.272-0.451,1.896c-0.19,0.667-0.295,1.35-0.312,2.034
		c-0.052,1.064-0.312,2.112-0.207,3.193c0.034,0.416,0.034,0.84,0,1.255c-0.104,1.238,0.18,2.459,0.163,3.695
		c0,0.079-0.017,0.2,0.025,0.234c0.242,0.199,0.167,0.476,0.121,0.691c-0.05,0.277,0.209,0.425,0.192,0.686
		c-0.044,0.727,0.284,1.375,0.44,2.067c0.199,0.806,0.433,1.602,0.709,2.381c0.355,1.056,0.84,2.051,1.247,3.081
		c0.278,0.614,0.596,1.202,0.97,1.766c0.839,1.332,1.8,2.588,2.874,3.747c0.84,0.893,1.774,1.697,2.777,2.405
		c0.658,0.513,1.369,0.962,2.112,1.342c0.883,0.427,1.73,0.928,2.648,1.275c1.014,0.38,2.061,0.689,3.091,1.027
		c0.44-0.104,0.84,0.234,1.271,0.166c0.355,0.38,0.928-0.036,1.283,0.336c0.769-0.112,1.505,0.251,2.273,0.165
		c0.477-0.035,0.945-0.035,1.421,0c1.186,0.069,2.354-0.103,3.523-0.165c0.051,0,0.139,0.027,0.163,0
		c0.183-0.18,0.452-0.242,0.686-0.154c0.301,0.077,0.485-0.182,0.77-0.192c0.656-0.025,1.271-0.26,1.896-0.447
		c1.212-0.374,2.431-0.719,3.529-1.369c0.556-0.019,1.006-0.336,1.413-0.614c0.433-0.312,0.934-0.468,1.358-0.788
		c0.805-0.605,1.672-1.099,2.449-1.766c0.779-0.667,2.008-1.825,2.57-2.7c0.744-1.16,1.56-2.268,2.035-3.593
		c0.397-1.038,0.736-2.102,1.004-3.175c0.085-0.398,0-0.841,0.182-1.17c0.207-0.397,0.068-0.726,0.103-1.115h-23.732v-16.498h42.307
		c0,0.251-0.086,0.528,0.017,0.685c0.286,0.433,0.104,0.934,0.297,1.384c0.138,0.346,0.05,0.779,0.163,1.177
		c0.112,0.398-0.079,0.866,0.19,1.264c-0.069,0.796,0.129,1.566,0.156,2.354c0.042,1.445,0.025,2.899,0,4.353
		c-0.008,0.624,0.094,1.238-0.138,1.86c-0.121,0.32-0.063,0.72-0.011,1.074c0.044,0.355-0.215,0.658-0.19,1.021
		c0.025,0.399,0.13,0.822-0.154,1.187c-0.044,0.987-0.322,1.93-0.484,2.891c-0.165,0.96-0.469,1.93-0.686,2.899
		c-0.207,0.961-0.502,1.904-0.874,2.813c-0.656,1.566-1.271,3.158-2.127,4.638c-0.606,1.064-1.221,2.122-1.854,3.16
		c-0.95,1.549-2.121,2.935-3.262,4.337c-0.268,0.319-0.59,0.598-0.882,0.89c-0.297,0.295-0.702,0.548-0.849,0.909
		c-0.184,0.441-0.598,0.521-0.867,0.796c-1.185,1.188-2.477,2.26-3.852,3.213c-1.195,0.882-2.449,1.687-3.756,2.396
		c-1.28,0.667-2.554,1.358-3.896,1.904c-1.021,0.424-2.05,0.84-3.091,1.22c-0.752,0.278-1.538,0.45-2.301,0.684
		c-0.286,0.088-0.587,0.26-0.917,0.209c-0.242,0.364-0.719-0.044-0.97,0.293c-0.573,0.096-1.133,0.209-1.697,0.347
		c-0.301,0.079-0.623,0.035-0.942,0.154c-0.319,0.122-0.7-0.033-1.005,0.192c-0.744-0.121-1.444,0.251-2.19,0.163
		c-0.121-0.017-0.293-0.066-0.301,0.165L152.52,150.906z M1.46,67.755h17.648c0.13,0.762,0.191,78.198,0.061,81.472H1.46V67.755z
		 M86.108,100.186V67.781h17.7v81.428H86.143v-32.336c-0.744-0.138-32.284-0.198-35.166-0.068v32.38H33.268V67.799h17.709v32.387
		H86.108z M215.424,77.795c0.054,0.813-0.059,1.627-0.337,2.397c-0.328,0.996-0.84,1.914-1.498,2.727
		c-0.907,1.125-2.033,1.887-3.323,2.458c-0.554,0.243-1.133,0.398-1.73,0.459c-0.537,0.051-1.057,0.242-1.601,0.164
		c-0.735-0.104-1.479-0.164-2.173-0.407c-0.824-0.294-1.653-0.632-2.354-1.168c-1.221-0.936-2.182-2.172-2.763-3.601
		c-0.207-0.502-0.363-1.03-0.477-1.566c-0.163-0.684-0.094-1.35-0.138-2.026c-0.059-0.926,0.286-1.765,0.581-2.605
		c0.501-1.402,1.479-2.492,2.604-3.419c0.849-0.692,1.835-1.185,2.9-1.454c0.339-0.087,0.667-0.208,1.021-0.156
		c0.355,0.051,0.605-0.165,0.936-0.191c0.45-0.025,0.849,0.234,1.263,0.173c0.46-0.061,0.856,0.121,1.265,0.216
		c0.382,0.069,0.746,0.226,1.063,0.45c0.321,0.243,0.781,0.295,1.107,0.536c0.895,0.65,1.751,1.342,2.33,2.329
		c0.304,0.484,0.579,0.986,0.813,1.506c0.2,0.527,0.363,1.082,0.484,1.635C215.52,76.688,215.424,77.181,215.424,77.795
		L215.424,77.795z M207.574,70.915c-0.926,0.051-1.551-0.044-2.165,0.182c-0.726,0.259-1.425,0.588-2.094,0.995
		c-0.268,0.165-0.441,0.459-0.761,0.598c-0.322,0.138-0.416,0.545-0.64,0.813c-0.807,0.944-1.283,2.112-1.369,3.35
		c-0.068,0.839-0.11,1.696,0.157,2.518c0.163,0.493,0.268,1.004,0.51,1.455c0.44,0.839,1.047,1.584,1.782,2.181
		c0.469,0.372,0.97,0.762,1.523,0.961c0.918,0.337,1.86,0.58,2.874,0.545c0.942-0.044,1.879-0.278,2.735-0.667
		c1.298-0.572,2.224-1.55,2.951-2.744c0.581-0.917,0.873-1.99,0.84-3.073c-0.017-0.302-0.009-0.615,0-0.917
		c0-0.528-0.104-1.056-0.303-1.549c-0.278-0.762-0.642-1.48-1.1-2.138c-0.407-0.598-0.951-1.1-1.584-1.445
		C209.825,71.33,208.648,70.724,207.574,70.915z"/>
	<path fill="#D86932" d="M210.387,75.363c0.163,1.308-0.259,2.303-1.567,2.882c0.573,1.16,1.358,2.173,2,3.358h-1.843l-1.921-3.106
		h-0.814v3.106h-1.764c-0.122-0.657-0.168-5.565-0.055-7.997c1.274,0,2.554-0.061,3.818,0.017c0.787,0.026,1.498,0.495,1.843,1.204
		C210.17,75.017,210.205,75.251,210.387,75.363z M207.998,77.155l0.546-0.424v-1.212l-0.546-0.544h-1.74v2.328
		C206.907,77.268,207.532,77.388,207.998,77.155z"/>

</svg>
