<?xml version="1.0" encoding="utf-8"?>
<!DOCTYPE svg PUBLIC "-//W3C//DTD SVG 1.1//EN" "http://www.w3.org/Graphics/SVG/1.1/DTD/svg11.dtd">
<svg version="1.1" id="Layer_1" xmlns="http://www.w3.org/2000/svg" xmlns:xlink="http://www.w3.org/1999/xlink" x="0px" y="0px" width="216px" height="216px" viewBox="0 0 216 216" enable-background="new 0 0 216 216" xml:space="preserve">
<path fill="#FFFFFF" d="M0.353,0.353h216v216h-216V0.353z"/>
<path fill="#3C5599" d="M3.528,10.236v196.299h209.647V10.236H3.528z M156.374,193.584c-0.668-4.538-1.268-6.674-2.136-9.275
	l-6.607-21.092h-29.367l-5.271,6.941l4.738,14.283c0.935,3.003,1.936,5.34,3.67,9.143h-16.686l-2.735-9.143l-6.675,9.143H81.888
	l-2.871-9.076l-7.074,9.076H58.526c0.334-0.266,0.601-0.534,0.868-0.8c3.404-3.004,5.54-5.739,7.408-8.209l8.544-11.214
	l-3.338-10.146h-29.3l-22.895,30.369H5.598c5.407-4.671,6.809-6.14,8.811-8.81l43.385-57.334c0.595-0.781,1.13-1.606,1.602-2.469
	c0.801-1.334,1.535-2.869,1.936-4.739h14.083c0,3.139,0.467,4.873,1.135,7.276l9.877,30.97l5.073-6.674l-8.076-24.63
	c-0.601-1.802-1.335-4.138-2.804-6.942h17.087c0.467,2.737,0.935,4.94,1.668,7.343l3.137,9.679l7.341-9.744
	c1.67-2.269,3.94-4.806,4.939-7.275h14.951c-2.935,2.336-4.806,4.806-6.607,7.142l-16.552,21.96l2.869,9.078l23.695-30.972
	c0.6-0.933,1.268-1.734,1.936-2.602c0.866-1.335,1.603-2.735,2.07-4.605h13.948c0.202,2.47,0.534,4.605,1.201,6.875l17.955,57.268
	c0.866,3.069,1.47,4.938,3.736,9.21h-17.619V193.584L156.374,193.584z"/>
<path fill="#3C5599" d="M49.383,154.139h20.023l-6.073-18.488L49.383,154.139z M90.097,169.758l3.204,10.146l5.141-6.741
	l-3.539-9.945L90.097,169.758z M125.405,154.139h19.356l-6.074-18.488L125.405,154.139L125.405,154.139z"/>
<path fill="#CF4144" d="M118.264,116.495h12.281L210.773,10.17h-12.281L118.264,116.495z"/>

</svg>
