<?xml version="1.0" encoding="utf-8"?>
<!DOCTYPE svg PUBLIC "-//W3C//DTD SVG 1.1//EN" "http://www.w3.org/Graphics/SVG/1.1/DTD/svg11.dtd">
<svg version="1.1" id="Layer_1" xmlns="http://www.w3.org/2000/svg" xmlns:xlink="http://www.w3.org/1999/xlink" x="0px" y="0px" width="216px" height="216px" viewBox="0 0 216 216" enable-background="new 0 0 216 216" xml:space="preserve">
<g id="surface1">
	<path fill="#FFFFFF" d="M215.5,108.496c0,59.398-47.908,107.55-107,107.55c-59.096,0-107-48.151-107-107.55
		C1.5,49.102,49.404,0.95,108.5,0.95C167.592,0.95,215.5,49.102,215.5,108.496"/>
	<path fill="#097143" d="M103.766,94.647c0.154,0.644-0.396,1.604,0.474,1.928c0.853-0.188,1.937-0.098,3.058-0.008
		c2.239,0.179,4.619,0.358,5.575-1.672c-0.998-1.118-2.632-1.625-4.338-1.625C106.824,93.27,105.05,93.769,103.766,94.647
		 M99.441,101.126l0.23,1.45c3.126,2.081,4.09,5.613,8.419,5.293c3.838,0.226,6.717-3.37,8.632-6.249
		c-2.482-0.345-5.225-0.269-8.039-0.196C105.613,101.51,102.452,101.591,99.441,101.126 M184.907,89.845
		c8.159,2.162,16.339,11.046,24.976,5.284c-7.519-12.483-18.715-24.012-15.602-40.334c0.324-1.117-0.396-2.243-1.429-2.401
		c-4.883,1.992-8.662,6.803-10.59,11.528c-0.797,2.794-1.267,5.767-2.384,8.398c-5.848-3.041-12.083-5.988-19.21-5.276
		c-2.563,0.32-6.248,0.491-6.722,3.126c8.083,4.32,14.728,11.528,19.684,19.201C177.081,88.813,181.308,89.291,184.907,89.845
		 M157.552,43.745c-5.929-0.312-10.889,3.049-16.326,4.572c-0.478-4.632,3.041-9.523,3.843-14.172
		c-8.799,0.563-15.768,5.864-23.049,10.095c-1.685-4.073-3.377-8.163-5.049-12.249l9.604-9.127l0.243-1.203l-12.97-0.721
		c-2.235-3.915-3.114-8.632-5.754-12.232c-2.162,4.082-3.612,8.402-5.775,12.475l-12.957,0.725v0.955l9.835,8.88
		c-1.203,4.563-2.32,9.524-5.276,12.97c-5.762-3.45-11.443-7.204-17.759-9.601c-1.519-0.49-3.685-1.288-5.046-0.247
		c1.996,4.401,4.794,9.14,4.325,13.942c-2.644-0.482-4.721-2.18-7.204-2.892c-2.968-0.81-6.491-2.393-9.374-1.429
		c4.807,6.717,8.726,13.75,10.082,21.833c15.93-7.689,34.513-11.916,53.799-8.632c9.042,1.442,17.354,5.123,25.437,8.159
		C148.501,57.363,153.862,50.552,157.552,43.745 M122.707,77.583c-0.316,0.004-0.627,0.021-0.938,0.034
		c-1.677,1.118-6.564,0.312-4.798,4.078c3.04-2.41,7.284-0.721,10.325,0.473c1.122-0.559,0.879-1.676,0.955-2.644
		C127.271,77.707,124.941,77.536,122.707,77.583 M127.526,69.689c-2.235-4.96-7.357-6.969-12.006-8.167
		c-2.278-0.282-4.645-0.474-6.991-0.495c-0.439-0.004-0.878-0.008-1.313,0c-6.56,0.132-12.829,1.817-16.659,7.217
		c-0.55,1.522-2.964,3.664-0.721,5.033c5.041-0.324,10.794-0.956,14.155,3.369c0,3.847,2.482,8.961-1.676,10.803
		c-1.796-1.664-3.766-1.224-5.771-0.785c-1.843,0.405-3.711,0.806-5.506-0.418c-1.766-1.041-2.879,0.175-3.604,1.693
		c-1.041,9.92,4.154,20.869,13.435,26.392c3.762,1.356,8.819,2.648,12.743,0.721c9.443-4.396,13.354-14.475,15.111-23.76
		c-0.234-1.766-0.149-5.208-2.632-5.293c-2.798,1.774-6.879,0.725-9.844,0c-1.757,0.567-1.838,3.135-3.834,3.621l-1.215-0.973
		c-1.041-4.393-1.686-10.637,2.4-13.678c4.568-1.842,9.93-2.648,14.65-1.203C129.13,72.248,127.77,71.049,127.526,69.689
		 M88.391,80.001c-0.158,1.037,0.081,2.883,1.676,2.167c2.486-3.442,6.883-0.716,9.604-0.473v-0.968
		c-1.493-2.346-4.559-3.523-7.677-3.403c-0.721,0.025-1.45,0.128-2.154,0.294C88.796,77.848,88.071,78.803,88.391,80.001
		 M62.937,69.198c-8.321-5.446-18.876-0.32-26.635,2.645c-0.721-7.285-3.676-13.921-9.848-18.724
		c-0.597-0.298-1.425-0.925-2.171-0.972c-0.444-0.03-0.87,0.153-1.199,0.725c2.794,17.201-8.389,29.207-16.313,42.253
		c2.64,2.158,6.879,1.834,10.078,1.203c8.402-3.361,16.403-9.208,26.409-7.204c2.956-5.042,7.929-9.925,12.002-13.925
		C57.751,73.041,61.171,71.676,62.937,69.198 M213.73,113.737c0.081,2.709,0.337,5.037-0.722,7.81
		c-5.749,1.634-10.466-0.78-15.183-3.194c-4.278-2.188-8.564-4.376-13.623-3.545l1.203,6.019c9.839,0.324,15.989,9.763,26.157,9.353
		c-1.446,2.888,0.644,10.492-5.754,7.451c-6.645-1.595-11.447-7.451-18.728-7.451c-0.878,1.617-0.324,3.848-0.478,5.758
		c7.682,1.203,13.205,7.694,20.882,8.893c-0.721,2.641-1.438,5.592-3.6,7.204c-6.244-1.522-11.123-7.132-17.772-6.97l-1.19,5.523
		c6.321,0.162,10.407,5.754,16.088,7.434c0.153,2.329-1.928,4.415-3.131,6.496c-5.041-1.519-8.884-5.848-14.646-5.527
		c-0.081-2.171,1.207-4.636,0.721-6.956c-6.47,1.923-10.808-4.086-15.605-7.694c-0.137-11.801-12.561-19.547-13.217-30.602
		c-0.124-2.205,0.209-4.555,1.215-7.084c4.082-9.442,2.803-21.7-1.676-30.503c-1.36-2.312-3.771-4.146-6.018-5.506
		c3.283,6.969,7.288,15.196,5.292,23.76c-0.234,6.611-4.133,12.961-4.175,19.333c-0.018,2.273,0.465,4.547,1.774,6.842
		c5.203,9.374,14.568,18.249,11.05,30.008c-0.972,3.612-3.851,6.402-4.571,10.078c6.09,5.046,11.848,10.727,19.926,11.047
		c2.879-1.834,1.279-9.993,7.203-6.231l8.649,4.324c-0.631,2.316-2.571,4.394-4.324,5.984c-3.284-1.596-6.483-3.511-10.573-3.356
		c-1.207,1.283-2.243,2.721-2.153,4.555c2.879,0.474,5.519,1.689,7.924,3.374c-1.117,2.405-3.288,3.91-5.293,5.753l-6.709-2.396
		c-1.117,1.599-3.445,3.284-2.627,5.045c1.515,0.648,3.194,1.522,4.308,2.645c-2.964,3.203-6.717,5.263-10.325,7.434
		c-3.113-10.167-13.362-17.299-12.479-29.053l-0.478-0.478c-2.41,2.712-1.604,7.041-1.45,10.556
		c2.883,7.365,9.763,13.055,10.808,21.129c-1.207,2.077-3.92,2.49-6.005,3.373c0.238-14.561-21.842-25.603-7.682-40.334
		c4.722-7.207,12.637-14.091,9.831-24.024c-2.879-9.583-13.06-15.524-12.97-26.272l0.017-0.836
		c2.316-11.208,9.361-23.133,3.6-35.054c-1.607-4.798-5.194-10.245-10.078-12.253c7.28,8.334,10.168,21.926,6.001,33.135
		c-2.099,4.461-4.985,9.771-5.275,15.013h-0.018c-0.158,2.737,0.405,5.459,2.171,8.039c5.527,8.97,15.124,18.817,9.601,30.503
		c-6.239,9.357-17.124,18.877-11.046,31.203c4.401,7.365,11.208,14.71,9.374,23.76l-7.203,2.401
		c4.802-16.881-18.729-26.801-8.88-43.687c6.082-9.041,16.962-17.528,10.803-29.53c-3.681-7.438-11.285-11.84-11.046-21.133
		l0.26-1.557c2.479-13.179,12.496-25.654,5.493-39.742c-1.842-4.158-5.519-8.397-9.604-10.799l-0.243,0.243
		c8.163,7.924,10.649,20.958,6.244,31.437c-2.052,6.15-6.56,12.275-7.477,18.86c-0.439,3.104-0.072,6.329,1.728,9.72
		c5.199,8.235,14.317,16.971,8.628,27.62c-5.992,8.794-15.998,17.35-12.006,28.788c4.405,10.006,13.597,19.543,8.632,31.949
		l-7.43,1.681c5.92-12.096-2.955-24.093-8.154-34.581c-6.329-15.047,13.588-22.25,13.908-36.009
		c-0.077-8.876-9.516-13.917-11.512-22.08c-2.413-2.038-4.883-1.186-7.506-0.332c-1.813,0.588-3.702,1.177-5.694,0.81
		c-1.267,0.256-2.772-0.281-4.282-0.818c-2.798-0.989-5.621-1.983-7.016,2.021c-2.563,9.037-14.241,15.683-9.11,26.404
		c4.883,9.523,16.638,16.488,12.709,28.818C95.68,189.254,84.07,200.215,91.27,213.5c-2.956-0.96-8.483,0.874-8.402-3.852
		c-4.559-16.083,14.885-25.453,8.88-41.532c-2.798-9.844-15.529-15.286-12.727-27.13c2.073-9.749,13.012-16.565,11.477-27.244
		c-0.124-0.896-0.341-1.809-0.657-2.764c-4.086-11.52-12.416-23.048-7.451-36.5c1.365-3.843,4.09-7.123,6.479-10.556
		c-7.92,4.244-11.917,13.209-11.754,22.327c-0.345,9.92,6.982,18.417,8.022,27.493c0.414,3.663-0.188,7.416-2.747,11.392
		c-5.195,7.054-11.993,14.492-8.875,23.777c2.96,9.37,14.646,15.042,13.925,25.931c-0.081,12.876-15.047,20.895-10.803,35.302
		l-7.451-2.414c-2.956-12.804,10.645-19.351,10.803-31.194c1.923-13.618-15.444-18.672-14.403-31.944
		c-0.073-10.091,8.803-16.476,12.727-24.963c0.674-2.064,0.896-4.014,0.806-5.886c-0.482-9.379-8.935-16.715-7.532-27.262
		c0.474-7.762,3.114-14.565,8.155-20.404c-6.956,2.798-9.831,10.808-11.754,17.529c-3.335,10.782,4.627,20.476,5.425,30.141
		c0.354,4.265-0.687,8.505-4.7,12.838c-5.766,6.794-11.614,15.366-7.451,24.502c4.41,10.069,18.258,17.913,12.249,30.478
		c-3.276,7.929-11.124,13.926-10.799,23.287c-2.081-0.883-4.235-1.762-6.005-3.356c0-11.921,16.962-19.367,8.88-31.933
		c-0.717,2.479-0.87,5.848-1.429,8.649c-2.806,7.285-8.803,13.115-11.05,20.651c-3.753-1.45-7.681-4.495-10.803-7.694l4.329-2.648
		c-0.482-1.604-1.762-2.964-2.879-4.32c-2.811-0.396-4.653,1.446-6.969,2.167c-2-1.762-3.932-3.365-5.527-5.523
		c1.438-4.09,12.654-0.712,6.973-7.434c-3.838-2.397-7.689,1.027-11.05,2.627l-4.555-5.753c3.924-2.397,7.835-5.767,12.709-4.803
		c1.203,2.167,1.284,5.353,3.6,6.479c8.249-0.162,14.087-6.394,20.408-11.276c-4.406-6.556-7.993-15.605-4.077-23.53
		c3.135-7.941,11.302-14.633,11.673-23.415c0.085-1.996-0.226-4.099-1.1-6.363c-4.32-11.123-5.843-26.161,2.401-36.009
		c-4.482,1.207-7.126,6.794-8.649,11.034c-4.956,10.863,1.309,20.928,1.527,31.339c0.03,1.873-0.124,3.749-0.576,5.643
		c-4.244,8.561-11.119,16.07-12.232,25.927c-4.883,3.114-8.893,8.561-15.853,6.722c-0.243,1.839,0.316,4.641,0.956,6.727
		c-5.519-0.235-9.281,3.834-13.925,5.753c-2.474-0.793-3.122-3.992-4.077-6.231c5.438-1.838,9.361-7.288,15.605-7.203
		c0.721-2.009-0.409-3.852-0.725-5.767c-2.99-1.33-6.653,0.892-10.086,3.109c-5.489,3.544-10.39,7.093-11.025-3.834
		c7.758-0.482,12.718-7.686,20.404-8.402l0.23-5.753c-4.363-0.439-7.946,1.578-11.528,3.6s-7.165,4.043-11.524,3.604l-1.923-7.681
		c10.086,0.631,16.096-8.411,25.701-8.897c1.275-1.676,1.429-4.158,1.676-6.474c-4.841-0.632-8.978,1.505-13.128,3.638
		c-4.836,2.495-9.69,4.985-15.682,3.084c0,0-0.38-4.837-0.589-7.563h0.017c-0.077-1.066-0.149-1.808-0.149-1.808
		c9.92,3.851,18.642-3.276,27.129-6.957c2.158-0.644,5.523,0.473,6.496-1.924c-0.085-1.842,3.271-3.992,0.478-5.275
		c-5.378-0.734-9.976,1.663-14.492,4.06c-5.907,3.139-11.678,6.274-18.89,2.414l-0.956-1.923
		c2.648-36.167,23.048-71.136,56.895-88.341C73.049,6.149,90.08,2.157,107.254,2.016c20.732-0.175,41.673,5.263,57.257,16.292
		c15.128,9.28,29.6,24.575,37.455,40.104c7.511,13.605,10.97,28.866,12.002,45.119c-7.263,5.485-13.2,2.043-19.32-1.399
		c-4.947-2.781-10.01-5.562-15.98-3.633c0.721,2.081,1.117,4.239,2.644,6c4.969-0.034,9.289,2.124,13.542,4.287
		c5.894,2.994,11.664,5.983,18.868,3.144L213.73,113.737 M107.604,39.186c3.771,2.171,7.762,4.964,10.803,7.924l-1.194,1.203
		c-6-0.64-12.321,0.158-18.011,0.248c-0.635-0.644-1.915-1.604-0.721-2.41L107.604,39.186"/>
	<path fill="#FFFFFF" d="M116.991,99.083H99.445v-7.212h17.546V99.083 M105.455,96.469c0.576,0,1.203,0.047,1.843,0.098
		c0.635,0.051,1.284,0.102,1.907,0.102c1.569,0,2.985-0.32,3.668-1.774c-0.998-1.118-2.632-1.625-4.338-1.625
		c-1.71,0-3.484,0.499-4.769,1.377c0.154,0.644-0.396,1.604,0.474,1.928C104.606,96.494,105.016,96.469,105.455,96.469"/>
	<path fill="#FDFEFF" d="M109.204,96.669c-0.623,0-1.271-0.051-1.907-0.102c-0.64-0.051-1.267-0.098-1.843-0.098
		c-0.439,0-0.849,0.025-1.215,0.106c-0.87-0.324-0.32-1.284-0.474-1.928c1.284-0.878,3.058-1.377,4.769-1.377
		c1.706,0,3.34,0.507,4.338,1.625C112.189,96.349,110.773,96.669,109.204,96.669"/>
	<path fill="#097143" d="M102.687,95.727c2.269,0.538,2.832,1.343,4.623,1.565c1.902-0.034,1.629-0.418,4.952-1.565
		c0.218-0.077,0.521-0.559,0.145-0.93c-2.06-2.047-3.488-0.584-4.781-0.546c-1.714,0.021-3.327-1.467-5.002,0.465
		C102.337,95.108,102.188,95.496,102.687,95.727"/>
	<path fill="#097143" d="M185.59,214.012v-10.271h-3.668v-2.09h9.818v2.09h-3.655v10.271H185.59"/>
	<path fill="#097143" d="M193.326,214.012v-12.36h3.736l2.239,8.433l2.218-8.433h3.744v12.36h-2.315v-9.729l-2.457,9.729h-2.401
		l-2.443-9.729v9.729H193.326"/>
</g>

</svg>
