<?xml version="1.0" encoding="utf-8"?>
<!DOCTYPE svg PUBLIC "-//W3C//DTD SVG 1.1//EN" "http://www.w3.org/Graphics/SVG/1.1/DTD/svg11.dtd">
<svg version="1.1" id="Layer_1" xmlns="http://www.w3.org/2000/svg" xmlns:xlink="http://www.w3.org/1999/xlink" x="0px" y="0px" width="216px" height="216px" viewBox="0 0 216 216" enable-background="new 0 0 216 216" xml:space="preserve">
<g>
	<polygon fill-rule="evenodd" clip-rule="evenodd" fill="#C0B249" points="149.832,216.767 150.354,216.767 150.354,209.469 
		149.832,209.469 149.832,209.089 151.818,209.089 151.879,209.089 155.159,214.608 155.159,209.469 154.563,209.469 
		154.563,209.089 156.178,209.089 156.178,209.469 155.658,209.469 155.658,217.146 155.159,217.146 150.852,209.898 
		150.852,216.767 151.448,216.767 151.448,217.146 149.832,217.146 	"/>
	<path fill-rule="evenodd" clip-rule="evenodd" fill="#C0B249" d="M59.712,216.767h0.586v-7.298h-0.586v-0.38h3.394
		c0.247,0,0.512,0.05,0.773,0.142c0.26,0.091,0.517,0.224,0.744,0.388c0.243,0.202,0.441,0.441,0.576,0.705
		c0.132,0.262,0.199,0.564,0.199,0.867s-0.066,0.605-0.199,0.866c-0.135,0.265-0.333,0.503-0.576,0.705
		c-0.227,0.165-0.484,0.298-0.744,0.389c-0.212,0.074-0.427,0.122-0.634,0.136l0.003,0.006l2.408,3.475h0.61v0.38H64.35l-2.67-3.854
		h-0.063v3.475h0.587v0.38h-2.491V216.767z M61.616,209.469v3.443h0.67c0.253-0.008,0.474-0.029,0.666-0.071
		s0.352-0.104,0.484-0.193s0.237-0.203,0.314-0.349c0.133-0.249,0.199-0.679,0.199-1.108s-0.066-0.859-0.199-1.108
		c-0.078-0.146-0.182-0.262-0.314-0.349c-0.132-0.089-0.293-0.151-0.484-0.193s-0.413-0.063-0.666-0.071H61.616z"/>
	<path fill-rule="evenodd" clip-rule="evenodd" fill="#C0B249" d="M132.864,216.767h0.587v-7.298h-0.587v-0.38h3.394
		c0.247,0,0.513,0.05,0.773,0.142c0.261,0.091,0.517,0.224,0.744,0.388c0.243,0.202,0.441,0.441,0.575,0.705
		c0.133,0.262,0.199,0.564,0.199,0.867s-0.066,0.605-0.199,0.866c-0.134,0.265-0.332,0.503-0.575,0.705
		c-0.228,0.165-0.483,0.298-0.744,0.389c-0.213,0.074-0.428,0.122-0.634,0.136l0.004,0.006l2.408,3.475h0.609v0.38h-1.916
		l-2.672-3.854h-0.063v3.475h0.587v0.38h-2.491V216.767z M134.769,209.469v3.443h0.67c0.254-0.008,0.476-0.029,0.666-0.071
		c0.191-0.042,0.353-0.104,0.485-0.193c0.132-0.089,0.236-0.203,0.313-0.349c0.133-0.249,0.199-0.679,0.199-1.108
		s-0.066-0.859-0.199-1.108c-0.077-0.146-0.182-0.262-0.313-0.349c-0.133-0.089-0.294-0.151-0.485-0.193
		c-0.19-0.042-0.412-0.063-0.666-0.071H134.769z"/>
	<path fill-rule="evenodd" clip-rule="evenodd" fill="#C0B249" d="M85.548,216.767h0.587v-7.298h-0.587v-0.38h3.394
		c0.247,0,0.513,0.05,0.773,0.142c0.26,0.091,0.517,0.224,0.745,0.388c0.242,0.202,0.44,0.441,0.575,0.705
		c0.133,0.262,0.199,0.564,0.199,0.867s-0.066,0.605-0.199,0.866c-0.134,0.265-0.333,0.503-0.575,0.705
		c-0.228,0.165-0.484,0.298-0.745,0.389c-0.261,0.092-0.527,0.142-0.773,0.142h-1.489v3.475h0.587v0.38h-2.492V216.767z
		 M87.453,209.469v3.443h0.67c0.253-0.008,0.475-0.029,0.666-0.071s0.352-0.104,0.484-0.193s0.237-0.203,0.314-0.349
		c0.133-0.249,0.199-0.679,0.199-1.108s-0.066-0.859-0.199-1.108c-0.077-0.146-0.182-0.262-0.314-0.349
		c-0.133-0.089-0.293-0.151-0.484-0.193s-0.413-0.063-0.666-0.071H87.453z"/>
	<path fill-rule="evenodd" clip-rule="evenodd" fill="#C0B249" d="M108.986,209.089h2.492v0.38h-0.587v7.298h1.379
		c0.372,0,0.655-0.129,0.871-0.336c0.215-0.206,0.363-0.489,0.465-0.798c0.103-0.308,0.16-0.641,0.192-0.944
		c0.033-0.306,0.043-0.582,0.051-0.778h0.547v2.856v0.38h-0.497h-4.913v-0.38h0.586v-7.298h-0.586V209.089z"/>
	<path fill-rule="evenodd" clip-rule="evenodd" fill="#C0B249" d="M77.837,209.089h2.492v0.38h-0.587v7.298h1.379
		c0.373,0,0.655-0.129,0.871-0.336c0.215-0.206,0.364-0.489,0.466-0.798c0.103-0.308,0.159-0.641,0.192-0.944
		c0.033-0.306,0.042-0.582,0.05-0.778h0.549v2.856v0.38h-0.499h-4.912v-0.38h0.587v-7.298h-0.587V209.089z"/>
	<path fill-rule="evenodd" clip-rule="evenodd" fill="#C0B249" d="M130.174,215.095v-5.626h0.486v-0.38h-1.472v0.38h0.486v5.526
		c0,0.537-0.188,0.958-0.472,1.253c-0.283,0.296-0.66,0.467-1.038,0.505s-0.756-0.059-1.038-0.297
		c-0.284-0.236-0.473-0.616-0.473-1.147v-5.84h0.659v-0.38h-2.564v0.38h0.587v5.626c0,0.31,0.064,0.605,0.179,0.875
		s0.28,0.513,0.484,0.717s0.446,0.369,0.716,0.484c0.297,0.126,0.669,0.188,1.041,0.188c0.37,0,0.742-0.063,1.039-0.188
		c0.27-0.115,0.513-0.28,0.717-0.484s0.369-0.447,0.484-0.717C130.11,215.7,130.174,215.404,130.174,215.095"/>
	<path fill-rule="evenodd" clip-rule="evenodd" fill="#C0B249" d="M147.467,209.089v2.687h-0.451
		c-0.018-0.234-0.048-0.494-0.103-0.755c-0.054-0.261-0.131-0.519-0.245-0.749c-0.113-0.23-0.263-0.431-0.459-0.574
		c-0.195-0.143-0.44-0.229-0.743-0.229h-1.74v3.342h0.515c0.304,0,0.528-0.057,0.696-0.149c0.169-0.094,0.28-0.225,0.357-0.374
		c0.075-0.151,0.116-0.319,0.143-0.489c0.025-0.17,0.037-0.34,0.056-0.492h0.382v3.471h-0.382c-0.019-0.152-0.03-0.322-0.056-0.492
		c-0.026-0.169-0.067-0.339-0.143-0.488c-0.077-0.15-0.188-0.281-0.357-0.375c-0.168-0.094-0.393-0.148-0.696-0.148h-0.515v3.494
		h1.74c0.337,0,0.6-0.105,0.807-0.279c0.207-0.172,0.357-0.411,0.466-0.68c0.108-0.268,0.178-0.564,0.221-0.85
		c0.044-0.287,0.063-0.563,0.075-0.789h0.559v2.978h-5.844v-0.38h0.433h0.226v-7.298h-0.658v-0.38H147.467z"/>
	<polygon fill-rule="evenodd" clip-rule="evenodd" fill="#C0B249" points="94.942,209.469 94.942,212.668 97.928,212.668 
		97.928,209.469 97.341,209.469 97.341,209.089 99.904,209.089 99.904,209.469 99.246,209.469 99.246,216.767 99.904,216.767 
		99.904,217.146 97.341,217.146 97.341,216.767 97.928,216.767 97.928,213.048 94.942,213.048 94.942,216.767 95.529,216.767 
		95.529,217.146 92.966,217.146 92.966,216.767 93.625,216.767 93.625,209.469 92.966,209.469 92.966,209.089 95.529,209.089 
		95.529,209.469 	"/>
	<path fill-rule="evenodd" clip-rule="evenodd" fill="#C0B249" d="M119.835,209.089l-2.498,7.678h-0.625v0.38h1.767v-0.38h-0.691
		l0.889-2.733h2.336l0.889,2.733h-0.713v0.38h2.492v-0.38h-0.461l-2.499-7.678H119.835z M118.8,213.653l1.043-3.207l1.045,3.207
		H118.8z"/>
	<path fill-rule="evenodd" clip-rule="evenodd" fill="#C0B249" d="M71.671,209.089l-2.499,7.678h-0.625v0.38h1.768v-0.38h-0.693
		l0.89-2.733h2.335l0.89,2.733h-0.713v0.38h2.492v-0.38h-0.461l-2.498-7.678H71.671z M70.636,213.653l1.043-3.207l1.043,3.207
		H70.636z"/>
	<path fill-rule="evenodd" clip-rule="evenodd" fill="#C0B249" d="M98.051,30.328c-0.379-0.005-0.598-0.143-0.739-0.52
		c-0.155-0.409-0.068-0.617,0.258-0.884c0.813-0.666,1.716-1.218,2.589-1.814c2.54-1.736,5.128-3.4,7.702-5.085
		c2.63-1.723,5.219-3.506,7.776-5.335c2.276-1.63,4.569-3.274,6.798-4.991c1.088-0.838,2.161-1.693,3.211-2.572
		c0.609-0.51,1.164-1.063,1.532-1.67c0.21-0.346,0.236-0.69-0.068-1.39c-0.408-0.933-0.97-2.196-1.248-2.874
		c-0.072-0.176-0.109-0.366-0.129-0.553c-0.044-0.417,0.213-0.815,0.552-1.049c0.651-0.452,1.112-0.198,1.458,0.373
		c1.471,2.428,3.423,7.324,4.441,10.075c0.36,0.973-1.104,1.697-1.713,1.009c-0.573-0.647-1.063-2.16-1.546-3.056
		c-0.392-0.723-0.974-0.411-1.515-0.033c-1.437,1.003-2.844,2.049-4.242,3.107c-2.181,1.651-4.341,3.334-6.56,4.932
		c-2.54,1.83-5.112,3.612-7.725,5.365c-2.499,1.679-5.012,3.34-7.517,5.007C100.521,28.932,99.086,30.34,98.051,30.328
		 M109.652,139.179c-0.089-0.007-0.174-0.054-0.249-0.099c-0.467-0.279-0.813-0.623-1.147-1.07
		c-0.271-0.363-0.547-0.733-0.894-1.034c-0.306-0.266-0.681-0.441-0.992-0.699c-0.07-0.06-0.117-0.15-0.137-0.237
		c-0.033-0.146-0.043-0.299-0.024-0.445c0.052-0.377-0.048-0.589-0.351-0.785c-0.458-0.296-0.984-0.413-1.258-0.904
		c-0.08-0.145-0.089-0.143-0.114-0.274c-0.06-0.308-0.117-0.547,0.127-0.761c0.214-0.188,0.496-0.13,0.411-0.409
		c-0.118-0.387-0.432-0.667-0.636-1.01c-0.493-0.831-1.027-1.562-1.231-2.513c-0.126-0.589-0.17-1.206-0.095-1.803
		c0.048-0.378,0.335-0.717,0.543-1.047c0.642-1.018,0.599-1.046,0.731-1.361c0.211-0.505,0.45-0.996,0.56-1.53
		c0.056-0.271,0.086-0.556,0.136-0.827c0.035-0.186-0.042-0.378-0.009-0.561c0.05-0.27,0.114-0.513,0.119-0.786
		c0.018-1.228-0.162-2.449-0.173-3.673c-0.003-0.308,0.167-0.565,0.194-0.871c0.047-0.516-0.035-1.189,0.091-1.706
		c0.044-0.187,0.023-0.391-0.031-0.572c-0.186-0.623-0.417-1.168-0.335-1.81c0.083-0.651,0.554-1.196,0.684-1.837
		c0.021-0.107-0.002-0.218,0.023-0.321c0.058-0.239,0.148-0.834,0.086-1.296c-0.072-0.54-0.334-0.779-0.671-0.373
		c-0.111,0.134-0.171,0.307-0.219,0.476c-0.079,0.277-0.218,0.508-0.238,0.794c-0.06,0.822,0.108,1.648,0.11,2.476
		c0,0.106-0.014,0.104-0.062,0.343c-0.027,0.135-0.126,0.251-0.14,0.389c-0.034,0.344,0.083,0.754-0.106,1.049
		c-0.28,0.436-0.706,0.383-1.125,0.066c-0.289-0.218-0.584-0.424-0.929-0.516c-0.799-0.213-1.438-0.599-2.136-1.048
		c-0.719-0.464-1.524-0.801-2.307-1.162c-0.141-0.063-0.28-0.136-0.393-0.238c-0.479-0.438-0.822-1.136-1.203-1.672
		c-0.323-0.455-0.46-0.557-0.542-0.679c-0.201-0.302-0.31-0.511-0.627-1.191c-0.317-0.681-0.721-1.053-1.203-1.634
		c-0.594-0.716-0.592-1.752-0.905-2.622c-0.03-0.084-0.113-0.145-0.13-0.229c-0.059-0.294-0.039-0.58-0.165-0.852
		c-0.157-0.341-0.137-0.352-0.227-0.473c-0.178-0.238-0.683-0.596-0.766-0.706c-0.109-0.145-0.225-0.289-0.294-0.455
		c-0.174-0.421-0.218-0.663-0.241-0.768c-0.049-0.223-0.013-0.459-0.076-0.676c-0.192-0.658-0.097-1.384-0.249-2.067
		c-0.071-0.323-0.03-0.659,0.008-0.987c0.048-0.417,0.022-0.419,0.013-0.501c-0.038-0.35-0.106-0.684-0.194-1.024
		c-0.052-0.203-0.24-0.361-0.27-0.566c-0.539-3.683-3.105-6.851-3.611-10.436c-0.076-0.534,0.033-0.906,0.186-1.397
		c0.071-0.227,0.143-0.453,0.164-0.689c0.061-0.682-0.012-0.688,0.047-1.003c0.072-0.385,0.266-0.731,0.659-0.473
		c0.168,0.11,0.313,0.268,0.424,0.438c0.555,0.851,0.488,0.892,0.704,1.204c0.129,0.186,0.362,0.457,0.591,0.65
		c0.137,0.116,0.297,0.244,0.439,0.184c0.237-0.1,0.148-0.436-0.026-0.756c-0.291-0.534-0.891-1.138-0.992-1.275
		c-0.054-0.074-0.075-0.17-0.135-0.237c-0.217-0.246-0.331-0.492-0.456-0.789c-1.015-2.411-1.073-5.087-1.404-7.668
		c-0.26-2.03-0.534-4.05-0.877-5.923c-0.1-0.543-0.268-1.103-0.642-1.511c-0.258-0.282-0.44-0.088-0.762,0.05
		c-0.925,0.399-1.789,0.954-2.216,1.872c-0.094,0.202-0.154,0.426-0.166,0.649c-0.022,0.401,0.095,0.887,0.127,1.288
		c0.075,0.917,0.438,3.385,1.053,6.185c0.505,2.302,1.219,4.812,2.018,6.897c0.197,0.515,0.27,0.964,0.418,1.463
		c0.155,0.521,0.228,0.5,0.284,0.845c0.091,0.553,0.103,0.556,0.126,2.021c0.015,0.851-1.105,0.879-1.391,0.173
		c-0.158-0.39-0.091-0.598-0.173-1.011c-1-4.967-2.328-10.277-3.645-15.237c-0.081-0.302-0.019-0.68-0.295-0.855
		c-0.182-0.115-0.334-0.146-0.541-0.096c-0.295,0.073-0.522,0.116-0.806,0.022c-0.203-0.067-0.377-0.196-0.525-0.329
		c-0.19-0.171-0.381-0.39-0.336-0.678c0.034-0.22,0.195-0.369,0.405-0.45c0.434-0.167,0.723-0.422,1.058-0.732
		c0.115-0.106,0.224-0.197,0.345-0.298c0.139-0.116,0.288-0.223,0.448-0.308c0.207-0.11,0.444-0.158,0.648-0.276
		c0.391-0.229,0.669-0.562,0.737-1.01c0.062-0.407-0.011-0.944-0.065-1.231c-0.053-0.288-0.061-0.34-0.105-0.495
		s-0.141-0.123-0.182-0.41c-0.042-0.288-0.056-1.042-0.009-1.327c0.046-0.285,0.008-0.293-0.023-0.433
		c-0.033-0.139-0.088-0.021-0.161-0.392s-0.503-1.197-0.682-1.509c-0.179-0.312-0.141-0.142-0.189-0.226
		c-0.257-0.449-0.575-0.872-0.904-1.269c-0.137-0.167-0.341-0.288-0.506-0.423c-0.214-0.173-0.423-0.398-0.234-0.713
		c0.116-0.194,0.349-0.211,0.536-0.2c0.813,0.048,1.731,1.391,2.05,1.869c0.416,0.625,0.467,0.759,0.625,1.228
		c0.157,0.469,0.232,0.714,0.313,1.004c0.081,0.29,0.047,0.714,0.107,1.275c0.06,0.562,0.04-0.123,0.069,0.176
		c0.029,0.3,0.037,1.103,0.099,1.496c0.062,0.393,0.238,0.625,0.365,0.784s-0.039,0.175,0.261,0.196
		c0.112,0.007,0.275-0.067,0.454-0.179c0.298-0.186,0.655-0.457,0.858-0.653c0.107-0.104,0.306-0.291,0.138-0.386
		c-0.114-0.065-0.233-0.021-0.338-0.003c-0.174,0.03-0.351,0.096-0.651,0.115c-0.48,0.032-0.514-0.495-0.502-0.906
		c0.011-0.411,0.035-0.236-0.035-0.653c-0.037-0.221-0.058-0.618-0.074-0.989c-0.044-0.989-0.167-1.345-0.873-2.258
		c-0.322-0.415-0.628-0.834-0.947-1.251c-0.25-0.327-0.463-0.687-0.814-0.906c-0.349-0.217-0.827-0.315-1.084-0.575
		c-0.477-0.48-0.186-1.15,0.051-1.678c0.248-0.552,0.254-0.553,0.583-1.027c0.349-0.503,0.732-0.936,1.173-1.367
		c0.213-0.208,0.42-0.43,0.668-0.595c1.108-0.74,1.108-0.74,1.22-0.785c0.477-0.192,0.998-0.339,1.413-0.641
		c0.469-0.341,0.977-0.77,1.063-1.353c0.03-0.205-0.128-0.451-0.351-0.384c-0.301,0.091-0.472,0.418-0.75,0.56
		c-0.378,0.193-0.917,0.225-1.278-0.022c-0.167-0.114-0.327-0.245-0.45-0.403c-0.368-0.471-0.855-0.842-1.26-1.288
		c-0.237-0.26-0.549-0.447-0.776-0.715c-0.138-0.162-0.274-0.342-0.388-0.52c-0.127-0.199-0.134-0.511-0.079-0.742
		c0.088-0.37,0.313-0.436,0.673-0.404c0.22,0.02,0.41,0.188,0.631,0.207c0.362,0.031,0.695-0.273,0.774-0.613
		c0.063-0.267-0.003-0.451,0.154-0.678c0.089-0.128,0.171-0.07,0.31-0.344c0.168-0.333-0.333-0.703-0.451-1.013
		c-0.079-0.206-0.091-0.334-0.105-0.475c-0.026-0.254-0.027-0.5,0.041-0.749c0.061-0.226,0.162-0.443,0.29-0.64
		c0.3-0.461,0.681-0.897,1.08-1.284c0.43-0.417,0.837-0.772,1.363-1.05c0.262-0.139,0.54-0.254,0.822-0.344
		c0.097-0.031,0.206-0.041,0.305-0.017c0.344,0.086,0.598,0.403,0.945,0.471c0.335,0.065,0.496-0.143,0.682-0.426
		c0.32-0.486,0.663-0.115,0.999,0.115c0.227,0.155,0.452,0.059,0.561-0.18c0.042-0.093-0.029-0.103,0.011-0.541
		c0.024-0.251,0.05-0.252,0.139-0.407c0.286-0.5,0.878-0.739,1.35-1.036c0.198-0.125,0.222-0.082,0.375-0.184
		c0.071-0.047,0.337-0.306,0.608-0.429c0.689-0.313,0.15-0.703-0.209-0.452c-0.098,0.068-0.197,0.143-0.311,0.176
		c-0.144,0.042-0.354-0.038-0.439,0.087c-0.115,0.167-0.039,0.212-0.106,0.266c-0.257,0.207-0.521,0.404-0.829,0.52
		c-0.445,0.167-0.86,0.38-1.229,0.669c-0.356,0.278-0.667,0.632-1.051,0.872c-0.333,0.208-1.063,0.143-0.744-0.563
		c0.083-0.184,0.19-0.381,0.278-0.509c0.395-0.572,0.212-1.449,0.007-2.051c-0.224-0.656,0-1.409,0.403-1.913
		c0.993-1.238,2.423-2.262,4-2.618c0.574-0.13,1.165-0.11,1.734-0.049c0.521,0.055,1.132,0.169,1.586,0.42
		c0.289,0.159,0.697,0.264,0.774,0.604c0.069,0.302,0.013,0.376-0.229,0.598c-0.069,0.064-0.238,0.284-0.24,0.374
		c-0.009,0.453,0.516,0.612,0.897,0.539c0.215-0.042,0.479-0.171,0.716-0.166c0.306,0.006,0.596,0.167,0.438,0.579
		c-0.079,0.206-0.289,0.247-0.5,0.212c-0.215-0.035-0.271,0.194-0.462,0.245c-0.245,0.065-0.511,0.006-0.757,0.06
		c-0.284,0.063-0.259,0.142-0.707,0.278c-0.357,0.109-0.84,0.209-1.198,0.443c-0.723,0.471-0.229,0.976,0.373,0.701
		c0.392-0.179,0.382-0.208,0.646-0.274c0.442-0.11,0.927-0.281,1.358-0.432c0.211-0.074,0.311-0.044,0.572-0.15
		c0.308-0.125,0.711-0.363,1.001-0.168c0.462,0.31,0.233,0.833-0.106,1.166c-0.215,0.211-0.551,0.281-0.813,0.439
		c-0.115,0.07-0.248,0.126-0.326,0.233c-0.179,0.248-0.238,0.29-0.287,0.554c-0.056,0.301-0.023,0.612,0.047,0.912
		c0.034,0.141,0.173,0.214,0.236,0.344c0.247,0.502,0.604,0.881,1.063,1.185c0.33,0.218,0.588,0.223,0.972,0.285
		c0.326,0.052,0.535,0.042,0.87-0.086c0.335-0.128,0.759-0.367,1.028-0.354c0.269,0.013,0.225,0.067,0.368,0.141
		c0.143,0.074,0.3,0.24,0.42,0.396c0.213,0.278,0.249,0.413,0.273,0.751c0.015,0.208-0.027,0.429,0.046,0.624
		c0.128,0.344,0.433,0.53,0.733,0.284c0.184-0.15,0.288-0.352,0.231-0.588c-0.111-0.466-0.159-0.761,0.21-1.106
		c0.196-0.183,0.536-0.188,0.922-0.106c0.565,0.119,1.208,0.484,1.693,0.629c1.146,0.343,1.828,0.902,2.768,1.559
		c0.277,0.194,0.506,0.448,0.789,0.635c0.694,0.458,1.433,0.806,2.162,1.205c0.23,0.126,0.444,0.287,0.651,0.452
		c0.159,0.126,0.319,0.258,0.444,0.42c0.102,0.131,0.203,0.282,0.224,0.448c0.098,0.773-0.412,0.738-1.063,0.809
		c-0.241,0.027-0.488,0.049-0.714,0.138c-0.349,0.137-0.562,0.249-0.69,0.366c-0.188,0.171-0.321,0.388-0.475,0.593
		c-0.357,0.479-0.665,0.833-0.778,0.903c-0.453,0.282-0.771,0.069-1.232-0.134c-0.58-0.256-1.225-0.627-1.514-1.228
		c-0.105-0.217-0.164-0.253-0.263-0.445c-0.176-0.341-0.568-0.459-0.445,0.084c0.064,0.285,0.334,0.613,0.39,0.792
		c0.042,0.134,0.001,0.284,0.042,0.418c0.047,0.154,0.062,0.285,0.124,0.434c0.105,0.253-0.026,0.628,0.214,0.761
		c0.161,0.09,0.188-0.023,0.442,0.037c0.396,0.095,0.633,0.19,0.738,0.589c0.116,0.441,0.056,0.499-0.326,0.77
		c-0.366,0.26-0.386,0.247-0.605,0.292c-0.741,0.155-1.19,0.744-1.891,0.94c-0.096,0.027-0.158,0.125-0.252,0.154
		c-0.147,0.045-0.314,0.013-0.457,0.063c-0.244,0.087-0.506,0.125-0.761,0.101c-0.278-0.028-0.5-0.15-0.732,0.015
		c-0.093,0.065-0.099,0.211-0.099,0.323c-0.001,0.583,0.048,1.155,0.171,1.727c0.063,0.294,0.04,0.617,0.147,0.893
		c0.194,0.499,0.606,0.926,0.756,1.44c0.144,0.492,0.256,1.106,0.627,1.458c0.17,0.161,0.34,0.006,0.472-0.165
		c0.523-0.683,1.22-1.263,2.082-1.468c0.642-0.153,1.214-0.284,1.873-0.259c0.441,0.017,0.658,0.474,1.022,0.69
		c0.444,0.265,0.85,0.258,1.007-0.289c0.104-0.359,0.133-0.758,0.261-1.115c0.128-0.353,0.334-0.586,0.692-0.705
		c0.216-0.072,0.456-0.07,0.684-0.036c0.173,0.025,0.176,0.051,0.294,0.168c0.336,0.338,0.239,0.607-0.009,0.976
		c-0.128,0.188-0.325,0.323-0.447,0.515c-0.121,0.189-0.205,0.404-0.271,0.619c-0.027,0.086-0.017,0.183-0.006,0.274
		c0.052,0.445,0.485,0.789,0.738,1.138c0.143,0.197,0.146,0.438,0.058,0.667c-0.239,0.625-0.416,1.158-0.244,1.828
		c0.132,0.517,0.487,0.944,0.616,1.448c0.08,0.31,0.17,0.677-0.1,0.878c-0.121,0.09-0.284,0.112-0.434,0.123
		c-1.462,0.108-2.935,0.072-4.388,0.271c-0.291,0.04-0.546,0.104-0.832,0.164c-0.366,0.077-0.756,0.018-1.115,0.119
		c-0.567,0.159-1.224,0.43-1.699,0.79c-0.421,0.318-0.755,0.458-1.248,0.626c-0.256,0.088-0.396,0.191-0.645,0.294
		c-0.389,0.162-0.723,0.449-1.063,0.696c-0.521,0.379-0.515,0.418-0.834,0.505c-0.343,0.092-0.801,0.028-0.913-0.359
		c-0.114-0.393-0.113-0.818-0.064-1.223c0.027-0.225,0.158-0.43,0.288-0.616c0.256-0.37,0.585-0.675,1.026-0.803
		c0.134-0.039,0.283-0.006,0.417-0.042c0.332-0.087,0.96-0.272,1.081-0.609c0.044-0.124,0.03-0.273-0.021-0.393
		c-0.15-0.356-0.516-0.298-0.852-0.369c-0.459-0.097-0.925-0.065-1.37-0.168c-0.092-0.021-0.195,0.03-0.281-0.005
		c-0.253-0.104-0.459-0.237-0.641-0.443c-0.395-0.446-0.438-0.538-0.536-0.671c-0.334-0.458-0.762-0.915-0.545-1.493
		c0.048-0.128,0.157-0.209,0.292-0.239c0.254-0.056,0.525,0.001,0.777-0.061c0.219-0.054,0.382-0.146,0.513-0.337
		c0.286-0.419,0.436-0.839,0.915-1.06c0.11-0.05,0.247-0.047,0.365-0.019c0.437,0.104,0.816,0.335,1.143,0.34
		c0.183,0.002,0.25-0.197,0.164-0.354c-0.279-0.51-0.735-0.911-1.127-1.338c-0.101-0.11-0.168-0.251-0.205-0.393
		c-0.041-0.157-0.05-0.325-0.025-0.485c0.052-0.353,0.052-0.777,0.12-1.127c0.042-0.22,0.1-0.33,0.151-0.548
		c0.079-0.34,0.047-0.75,0.003-1.094c-0.01-0.073-0.038-0.166-0.104-0.193c-0.298-0.121-0.514,0.179-0.765,0.354
		c-0.282,0.197-0.293,0.193-0.418,0.212c-0.299,0.044-0.603,0.07-0.904,0.047c-0.317-0.025-0.785-0.151-1.058,0.02
		c-0.049,0.031-0.072,0.072-0.019,0.127c0.196,0.205,0.472,0.195,0.743,0.251c0.458,0.093,0.461,0.096,0.609,0.168
		c0.313,0.152,0.484,0.28,0.655,0.569c0.301,0.513,0.323,0.507,0.379,0.705c0.104,0.364,0.199,0.725,0.138,1.1
		c-0.063,0.388-0.098,0.393-0.287,0.659c-0.313,0.439-0.613,0.961-1.15,1.043c-2.041,0.313-2.064,0.183-2.661,0.121
		c-0.76-0.08-0.801-0.517-1.012-1.194c-0.07-0.223,0.002-0.473-0.057-0.697c-0.1-0.377-0.181-0.747-0.338-1.103
		c-0.117-0.264-0.381-0.499-0.709-1c-0.117-0.178-0.104-0.415-0.077-0.626c0.039-0.298,0.182-0.752-0.176-0.76
		c-0.396-0.008-0.414,0.629-0.354,0.948c0.061,0.319,0.225,0.619,0.329,0.923c0.044,0.127,0.05,0.209,0.098,0.335
		c0.063,0.167,0.214,0.295,0.265,0.466c0.1,0.34,0.237,0.583,0.329,0.923c0.099,0.367,0.042,0.868,0.145,1.233
		c0.098,0.346,0.078,0.688,0.174,1.031c0.149,0.531,0.092,1.083,0.246,1.628c0.08,0.281,0.14,0.459,0.22,0.749
		c0.039,0.141-0.016,0.302,0.043,0.438c0.158,0.368,0.109,0.857,0.207,1.27c0.076,0.318,0.115,0.846,0.247,0.195
		c0.056-0.275,0.049-0.581,0.035-0.869c-0.038-0.798,0.36-0.534,0.583,0.008c0.043,0.104,0.006,0.229,0.038,0.338
		c0.116,0.4,0.256,0.831,0.326,1.244c0.067,0.4,0.181,0.757,0.3,1.145c0.071,0.232,0.087,0.228,0.122,0.414
		c0.077,0.423,0.095,0.973,0.253,1.387c0.062,0.161,0.097,0.304,0.125,0.474c0.08,0.481,0.059,0.961,0.195,1.431
		c0.168,0.582,0.124,1.291,0.279,1.866c0.07,0.263,0.113,0.572,0.207,0.824c0.119,0.326,0.321,0.557,0.77,0.477
		c0.39-0.069,0.456-0.283,0.637-0.644c0.265-0.531,0.485-1.09,0.715-1.641c0.174-0.414,0.18-0.413,0.245-0.673
		c0.145-0.575,0.754-1.076,1.305-1.218c0.334-0.086,0.475-0.566,0.606-0.864c0.082-0.185,0.212-0.347,0.359-0.483
		c0.283-0.265,0.562-0.496,0.932-0.613c0.275-0.087,0.576-0.069,0.864-0.046c0.211,0.017,0.268,0.03,0.473-0.025
		c0.33-0.088,0.474-0.044,0.732-0.158c0.847-0.377,1.657-0.25,2.56-0.395c0.153-0.025,0.277-0.15,0.431-0.183
		c0.294-0.063,0.293-0.061,0.496-0.086c0.615-0.078,0.615-0.137,2.2-0.136c0.348,0,0.58,0.194,0.792,0.487
		c0.109,0.15,0.202,0.324,0.247,0.507c0.053,0.215,0.059,0.443,0.035,0.665c-0.022,0.215-0.074,0.431-0.166,0.628
		c-0.138,0.291-0.539,0.423-0.623,0.733c-0.104,0.382,0.507,0.422,0.801,0.504c0.434,0.12,0.597,0.153,0.774,0.239
		c0.13,0.064,0.26,0.138,0.368,0.238c0.067,0.063,0.118,0.151,0.143,0.243c0.032,0.118,0.06,0.25,0.02,0.365
		c-0.205,0.588-0.923,0.561-1.47,0.704c-0.578,0.151-1.158,0.312-1.735,0.492c-0.21,0.065-0.446,0.006-0.656,0.074
		c-0.493,0.16-1.09,0.8-0.727,1.287c0.526,0.705,1.121-0.666,1.521-0.909c0.652-0.396,1.778-0.894,2.406-0.138
		c0.062,0.072,0.121,0.157,0.134,0.253c0.051,0.366,0.049,0.739-0.002,1.107c-0.038,0.279-0.093,0.508-0.139,0.788
		c-0.025,0.158,0.02,0.32,0.006,0.479c-0.013,0.148-0.331,1.604,0.213,1.193c0.302-0.228,0.233-0.433,0.288-0.805
		c0.041-0.284,0.081-0.557,0.115-0.847c0.027-0.232-0.061-0.472-0.018-0.699c0.042-0.224,0.164-0.669,0.389-0.749
		c0.164-0.059,0.371-0.112,0.525-0.027c0.44,0.24,0.54,0.51,0.68,1.012c0.09,0.322,0.078,0.669,0.053,1.004
		c-0.019,0.251-0.117,0.46-0.162,0.708c-0.031,0.169-0.219,0.376-0.117,0.519c0.039,0.055,0.13-0.042,0.188-0.076
		c0.329-0.197,0.543-0.297,0.842-0.007c0.048,0.046,0.106,0.096,0.118,0.164c0.045,0.25,0.067,0.51,0.041,0.765
		c-0.027,0.27-0.041,0.268-0.095,0.485c-0.048,0.195-0.167,0.293-0.565,1.411c-0.113,0.316-0.407,0.93-0.089,1.169
		c0.251,0.188,0.381-0.023,0.455-0.294c0.065-0.242,0.137-0.413,0.206-0.651c0.099-0.34-0.022-0.607,0.372-0.688
		c0.441-0.091,0.719,0.333,0.811,0.725c0.098,0.423,0.103,0.869,0.067,1.303c-0.023,0.303-0.139,0.605-0.191,0.911
		c-0.046,0.266,0.213,0.877-0.231,1.313c-0.21,0.207-0.291,0.469-0.358,0.706c-0.199,0.71-0.013,1.426-0.215,2.066
		c-0.193,0.607-0.607,1.135-0.85,1.726c-0.229,0.557-0.33,1.145-0.408,1.742c-0.017,0.121-0.1,0.226-0.122,0.347
		c-0.283,1.453-0.47,1.854-1.254,3.083c-0.214,0.335-0.395,0.703-0.487,1.09c-0.021,0.088-0.041,0.201,0.015,0.273
		c0.282,0.373,0.729-0.027,1.077,0.245c0.326,0.256,0.219,0.54,0.039,0.867c-0.137,0.249-0.601,0.411-0.583,0.695
		c0.014,0.225,0.309,0.053,0.49-0.008c0.071-0.023,0.166-0.053,0.229-0.007c0.236,0.171,0.139,0.51,0.123,0.783
		c-0.02,0.33-0.004,0.665,0.053,0.992c0.057,0.33,0.286,1.07,0.715,0.704c0.038-0.032,0.039-0.096,0.034-0.144
		c-0.043-0.424-0.364-1.097-0.006-1.409c0.071-0.062,0.194-0.043,0.285-0.015c0.463,0.147,0.76,0.533,0.919,0.98
		c0.069,0.194,0.095,0.372,0.13,0.574c0.079,0.46,0.141,0.938,0.074,1.403c-0.076,0.528-0.329,0.854-0.758,1.225
		c-0.101,0.087-0.212,0.166-0.333,0.219c-0.118,0.054-0.247,0.083-0.375,0.1c-0.372,0.051-0.544,0.066-0.867,0.246
		c-0.089,0.05-0.21,0.053-0.306,0.016c-0.308-0.117-0.588-0.242-0.791-0.5c-0.183-0.233-0.241-0.545-0.407-0.787
		c-0.087-0.126-0.21-0.223-0.337-0.303c-0.397-0.25-0.568-0.54-0.69-1c-0.06-0.228-0.191-0.394-0.333-0.587
		c-0.284-0.387-0.592-0.804-0.803-1.234c-0.037-0.073-0.022-0.163-0.053-0.238c-0.217-0.536-0.503-1.079-0.466-1.688
		c0.016-0.259-0.229-0.317-0.393-0.527c-0.326-0.422-0.79-0.754-0.986-1.249c-0.123-0.311-0.209-0.675-0.253-1.007
		c-0.142-1.084-0.11-2.184-0.192-3.272c-0.005-0.077-0.063-0.143-0.072-0.216c-0.072-0.66-0.289-1.315-0.694-1.86
		c-0.148-0.2-0.288-0.375-0.335-0.606c-0.116-0.566-0.189-1.03-0.569-1.481c-0.1-0.12-0.201-0.209-0.289-0.339
		c-0.553-0.802-1.362-1.429-2.015-2.155c-0.422-0.47-0.728-1.244-0.914-1.809c-0.035-0.104-0.045-0.221-0.018-0.325
		c0.076-0.286,0.307-0.464,0.442-0.724c0.097-0.186,0.015-0.447-0.205-0.357c-0.317,0.13-0.645,0.249-0.842,0.535
		c-0.187,0.27-0.246,0.28-0.221,0.484c0.039,0.312,0.289,0.415,0.438,0.683c0.181,0.326,0.832,0.972,0.319,1.236
		c-0.67,0.346-1.284-0.084-1.803-0.531c-0.236-0.203-0.426-0.459-0.579-0.73c-0.115-0.204-0.141-0.194-0.247-0.507
		c-0.077-0.228-0.115-0.464-0.097-0.701c0.019-0.245,0.088-0.522,0-0.755c-0.163-0.435-0.534-0.757-0.664-1.205
		c-0.119-0.414-0.221-0.908-0.33-1.324c-0.076-0.288-0.034-0.499-0.182-0.755c-0.06-0.103-0.283-0.297-0.507-0.455
		c-0.289-0.203-0.672-0.342-0.755,0.006c-0.051,0.215,0.079,0.432,0.164,0.641c0.141,0.349,0.294,0.7,0.387,1.065
		c0.057,0.227,0.212,0.42,0.274,0.646c0.073,0.269,0.083,0.551,0.183,0.811c0.145,0.378,0.233,0.669,0.316,1.064
		c0.019,0.087,0.211,0.68,0.332,0.905c0.096,0.179,0.098,0.291,0.181,0.469c0.154,0.329,0.383,0.619,0.606,0.905
		c0.126,0.162,0.278,0.304,0.439,0.433c0.284,0.229,0.605,0.393,0.965,0.469c0.478,0.102,0.696,0.111,1.031,0.455
		c0.193,0.198,0.354,0.358,0.53,0.572c0.227,0.276,0.479,0.544,0.714,0.813c0.284,0.327,0.649,0.483,0.914,0.822
		c0.159,0.204,0.296,0.406,0.335,0.663c0.071,0.477,0.143,0.966,0.076,1.443c-0.091,0.658-0.318,1.349-0.056,1.978
		c0.258,0.619,0.612,1.201,0.876,1.814c0.136,0.317,0.335,0.603,0.409,0.939c0.106,0.48,0.047,0.985,0.098,1.476
		c0.006,0.056,0.062,0.1,0.068,0.157c0.055,0.497-0.001,1.01,0.118,1.495c0.104,0.421-0.029,0.825-0.035,1.232
		c-0.004,0.295,0.186,0.577,0.342,0.829c0.412,0.664,0.855,1.323,1.31,1.958c0.15,0.212,0.302,0.444,0.455,0.656
		c0.087,0.119,0.302,0.369,0.466,0.61c0.305,0.446,0.627,0.787,1.014,1.161c0.065,0.063,0.1,0.158,0.166,0.224
		c0.563,0.549,1.004,1.09,1.429,1.744c0.118,0.181,0.313,0.735,0.324,0.823c0.056,0.418,0.103,0.843,0.066,1.264
		c-0.016,0.191-0.119,0.367-0.214,0.535c-0.143,0.255-0.695,0.653-0.498,0.889c0.219,0.26,0.613,0.073,0.823-0.177
		c0.244-0.291,0.317-0.679,0.358-1.058c0.048-0.431-0.092-0.869-0.048-1.298c0.059-0.575,0.741-0.804,1.149-0.437
		c0.16,0.145,0.146,0.343,0.218,0.545c0.055,0.158,0.193,0.284,0.243,0.447c0.049,0.165,0.009,0.348,0.047,0.518
		c0.041,0.183,0.107,0.361,0.188,0.531c0.11,0.234,0.073,0.427,0.155,0.672c0.169,0.501,0.312,1.12,0.207,1.636
		c-0.058,0.278-0.152,0.536-0.323,0.762c-0.301,0.403-0.604,0.809-0.911,1.201c-0.098,0.125-0.187,0.275-0.2,0.435
		c-0.043,0.472,0.024,0.962-0.146,1.409c-0.143,0.374-0.393,0.67-0.406,1.07c-0.012,0.379,0.213,0.727,0.3,1.091
		c0.014,0.055,0.062,0.1,0.068,0.157c0.068,0.537,0.232,1.107,0.107,1.661c-0.068,0.305-0.145,0.56-0.292,0.832
		c-0.445,0.822-0.526,0.944-0.794,1.37c-0.505,0.803-1.085,1.66-1.488,2.521c-0.063,0.132-0.099,0.209-0.16,0.344
		c-0.444,0.969-0.886,1.906-1.577,2.726c-0.132,0.155-0.229,0.316-0.345,0.487c-0.125,0.186-0.27,0.371-0.318,0.588
		c-0.08,0.345-0.071,0.68-0.188,1.01c-0.225,0.645-0.74,1.213-0.922,1.87c-0.037,0.136,0.018,0.284-0.018,0.421
		c-0.101,0.397-0.167,0.663-0.203,1.071c-0.015,0.168-0.12,0.32-0.134,0.487c-0.027,0.313-0.073,0.54-0.136,0.848
		c-0.048,0.238-0.055,0.236-0.062,0.344c-0.019,0.325-0.037,0.657,0.051,0.972c0.112,0.399,0.374,0.725,0.558,1.091
		c0.073,0.145,0.158,0.158,0.104,1.602c-0.021,0.533-0.657,0.971-0.863,1.466c-0.156,0.379-0.179,0.546,0.229,0.676
		c0.14,0.043,0.294-0.022,0.44-0.004c0.203,0.026,0.367,0.135,0.482,0.303c0.415,0.609-0.565,1.118-0.963,1.477
		c-0.107,0.099-0.271,0.273-0.237,0.428c0.015,0.07,0.064,0.134,0.12,0.184c0.02,0.018,0.057,0.014,0.078-0.002
		c0.136-0.1,0.258-0.205,0.376-0.297c0.281-0.219,0.544-0.36,0.949-0.169c0.38,0.178,0.625,0.559,0.925,0.852
		c0.358,0.35,0.846,0.668,1.141,1.084c0.077,0.109,0.132,0.239,0.16,0.372c0.036,0.178,0.064,0.367,0.028,0.545
		c-0.052,0.25-0.205,0.471-0.283,0.716c-0.143,0.449-0.229,1.059-0.68,1.262C110.041,139.214,109.838,139.192,109.652,139.179
		 M127.653,112.035c-0.113-0.003-0.245-0.028-0.369-0.047c-0.206-0.032-0.462-0.107-0.401-0.333
		c0.074-0.277,0.298-0.387,0.484-0.448c0.188-0.063,0.406-0.031,0.682-0.003c0.126,0.012,0.261,0.025,0.38-0.021
		c0.271-0.104,0.978-0.892,0.979-0.183c0.002,0.127-0.041,0.255-0.1,0.366c-0.091,0.172-0.2,0.309-0.369,0.41
		c-0.217,0.129-0.228,0.123-0.649,0.214C128.082,112.035,127.865,112.038,127.653,112.035 M88.918,60.895
		c0.106-0.108,0.242-0.2,0.292-0.269c0.088-0.12,0.473-0.565,0.617-0.791c0.426-0.667,0.809-1.353,1.22-2.031
		c0.106-0.175,0.276-0.415,0.434-0.585c0.202-0.218,0.474-0.314,0.642,0.172c0.068,0.198-0.173,0.445-0.291,0.605
		c-0.532,0.729-0.754,0.972-1.454,1.91c-0.302,0.404-0.606,1.007-1.064,1.247C89.059,61.286,88.439,61.384,88.918,60.895
		 M96.855,52.824c-0.29-0.052-0.374-0.112-0.433-0.396c-0.053-0.257,0.105-0.54,0.276-0.728c0.118-0.129,0.28-0.278,0.468-0.226
		c0.186,0.052,0.26,0.235,0.311,0.366c0.112,0.289-0.007,0.625-0.326,0.856C97.063,52.759,96.961,52.843,96.855,52.824
		 M83.914,129.97c-0.115-0.001-0.203-0.107-0.311-0.136c-0.519-0.134-1.021-0.456-1.516-0.66c-0.216-0.09-0.238-0.047-0.378-0.15
		c-0.266-0.197-0.149-0.605-0.004-0.841c0.46-0.742,0.284-1.426,0.124-2.243c-0.063-0.325,0.081-0.618,0.09-0.951
		c0.013-0.468-0.089-0.931-0.094-1.396c-0.005-0.579,0.087-1.156,0.189-1.73c0.217-1.227,0.853-2.178,1.307-3.312
		c0.218-0.543,0.466-1.087,0.715-1.618c0.305-0.649,0.462-1.354,0.612-2.053c0.05-0.236,0.172-0.451,0.29-0.66
		c0.595-1.062,0.656-2.758,0.911-3.906c0.165-0.746,0.797-1.251,0.894-2.028c0.076-0.611,0.102-1.181,0.185-1.791
		c0.017-0.118-0.022-0.242,0.001-0.36c0.05-0.253,0.281-0.286,0.453-0.108c0.206,0.213,0.189,0.228,0.387,0.464
		c0.129,0.154,0.367,0.508,0.613,0.696c0.246,0.188,0.621,0.23,0.596-0.246c-0.024-0.439-0.391-0.827-0.604-1.212
		c-0.396-0.715-0.743-1.461-1.12-2.187c-0.143-0.275-0.071-0.307-0.187-0.511c-1.247-2.178-2.158-5.468-1.919-7.929
		c0.062-0.636,0.449-1.229,0.827-1.742c0.145-0.196,0.493-0.379,0.509-0.629c0.028-0.413,0.004-0.417-0.056-0.671
		c-0.07-0.302-0.215-0.583-0.287-0.885c-0.125-0.53-0.419-1.25-0.148-1.743c0.28-0.507,0.534-0.733,0.647-1.311
		c0.047-0.238,0.28-0.524,0.523-0.292c0.305,0.291,0.354,0.721,0.54,1.096c0.764,1.55,1.636,3.136,1.88,4.923
		c0.086,0.628-0.08,1.276,0.06,1.898c0.177,0.785,0.198,1.57,0.404,2.34c0.109,0.407,0.455,1.062-0.123,1.199
		c-0.201,0.048-0.216,0.011-0.272-0.028c-0.588-0.41-0.82-1.22-1.182-1.807c-0.114-0.185-0.174-0.344-0.267-0.542
		c-0.088-0.188-0.2-0.316-0.167-0.518c0.076-0.465,0.256-0.978,0.005-1.398c-0.162-0.27-0.503-0.478-0.563-0.086
		c-0.065,0.426,0.166,0.869,0.089,1.295c-0.063,0.351-0.434,0.382-0.758,0.287c-0.184-0.054-0.271-0.292-0.44-0.317
		c-0.087-0.013-0.162,0.095-0.155,0.182c0.023,0.288,0.111,0.576,0.263,0.821c0.398,0.638,1.077,1.076,1.47,1.719
		c0.21,0.343,0.358,0.738,0.54,1.096c0.123,0.243,0.071,0.268,0.188,0.453c0.177,0.28,0.344,0.771,0.738,0.631
		c0.149-0.052,0.315-0.332,0.377-0.356c0.487-0.188,0.747-0.02,1.045,0.359c0.39,0.495,0.366,0.521,0.428,0.708
		c0.223,0.678,0.321,1.388,0.509,2.074c0.144,0.524,0.225,0.735,0.329,0.923c0.104,0.187,0.159,0.35,0.229,0.549
		c0.073,0.206,0.152,0.324,0.532,0.992c0.159,0.279,0.336,0.551,0.546,0.794c0.645,0.748,1.266,1.527,1.743,2.388
		c0.175,0.315,0.169,0.317,0.248,0.527c0.039,0.103,0.075,0.237,0.016,0.329c-0.116,0.182-0.302,0.123-0.487,0.031
		c-0.642-0.314-1.437-0.614-1.97-1.106c-0.317-0.292-0.375-0.777-0.622-1.132c-0.229-0.33-0.493-0.634-0.808-0.257
		c-0.185,0.222-0.116,0.58-0.02,0.839c0.27,0.729,0.903,1.123,1.587,1.369c0.714,0.257,1.704,0.349,2.197,0.953
		c0.149,0.182,0.08,0.497-0.176,0.562c-0.222,0.055-0.462-0.012-0.678,0.056c-0.223,0.068-0.371,0.168-0.292,0.403
		c0.093,0.278,0.227,0.361,0.502,0.267c0.501-0.174,0.966-0.618,1.514-0.621c0.05,0,0.108,0.035,0.13,0.081
		c0.159,0.331-0.126,0.828-0.359,1.063c-1.9,1.901-4.129,3.813-6.29,5.468c-1.514,1.159-2.978,2.422-3.338,4.429
		c-0.211,1.18-0.056,2.32-0.092,3.503c-0.017,0.525-0.068,1.057-0.385,1.529c-0.146,0.219-0.377,0.357-0.483,0.598
		c-0.121,0.275,0.02,0.608-0.118,0.87C84.99,129.709,84.412,129.972,83.914,129.97 M124.069,145.022
		c-0.141,0.006-0.284,0.019-0.421-0.009c-0.752-0.145-1.396-0.751-1.532-1.508c-0.081-0.45,0.246-0.785,0.417-1.188
		c0.056-0.13,0.1-0.268,0.119-0.406c0.02-0.137,0.025-0.278-0.002-0.414c-0.104-0.52-0.332-0.864-0.294-1.412
		c0.018-0.259-0.021-0.521-0.001-0.78c0.032-0.438,0.039-0.871,0.11-1.306c0.125-0.758,0.763-1.407,1.15-2.06
		c0.249-0.419,0.324-0.861,0.452-1.327c0.105-0.379,0.157-0.365,0.173-0.51c0.086-0.724,0.313-1.429,0.327-2.157
		c0.011-0.574-0.111-0.871-0.089-1.316c0.013-0.292,0.223-0.764,0.397-0.991c0.072-0.096,0.081-0.104,0.19-0.129
		c0.396-0.087,0.907-0.17,1.307-0.397c0.239-0.137,0.463-0.306,0.557-0.553c0.172-0.45-0.116-0.609-0.475-0.676
		c-0.358-0.065-0.837-0.005-1.031-0.164c-0.291-0.236-0.231-0.718-0.215-1.071c0.021-0.466,0.12-0.563,0.119-0.767
		c-0.002-0.453-0.104-0.903-0.091-1.355c0.025-0.986,0.034-2.106,0.4-3.023c0.224-0.562,0.506-1.057,0.554-1.649
		c0.043-0.547-0.569-1.1-0.054-1.546c0.086-0.075,0.232-0.059,0.314-0.14c0.274-0.271,0.313-0.515,0.383-0.89
		c0.065-0.341,0.18-0.625,0.189-0.972c0.011-0.337-0.007-0.677-0.053-1.011c-0.04-0.283-0.117-0.56-0.204-0.83
		c-0.071-0.223-0.196-0.365-0.273-0.626c-0.16-0.546-0.49-1.104-0.726-1.624c-0.032-0.067-0.043-0.157-0.013-0.225
		c0.068-0.146,0.248-0.221,0.282-0.355c0.159-0.624-0.944-1.181-1.293-1.556c-0.151-0.163-0.316-0.326-0.397-0.529
		c-0.282-0.704-0.253-1.529-0.201-2.277c0.018-0.252,0.088-0.505,0.202-0.731c0.192-0.378,0.412-0.736,0.643-1.095
		c0.036-0.057,0.031-0.137,0.074-0.188c0.303-0.351,0.651-0.631,0.861-1.042c0.124-0.242,0.085-0.262,0.094-0.505
		c0.011-0.348-0.079-0.713,0.086-1.026c0.161-0.305,0.507-0.506,0.657-0.815c0.092-0.188,0.161-0.389,0.21-0.591
		c0.051-0.217,0.004-0.23,0.062-0.344c0.162-0.321,0.228-0.49,0.235-0.852c0.017-0.885,0.112-1.875-0.025-2.769
		c-0.094-0.612-0.305-1.179-0.75-1.637c-0.189-0.195-0.403-0.384-0.512-0.644c-0.128-0.303-0.217-0.505-0.238-0.708
		c-0.06-0.58,0.01-1.078-0.109-1.596c-0.103-0.441-0.377-0.998-0.753-0.339c-0.063,0.11-0.097,0.239-0.101,0.365
		c-0.013,0.492,0.066,0.984,0.058,1.478c-0.006,0.369-0.028,0.742-0.102,1.106c-0.087,0.431-0.569,0.791-0.495,1.22
		c0.043,0.249-0.004,0.272,0.24,0.768c0.317,0.648,0.547,1.178,0.52,1.879c-0.014,0.338-0.072,0.677-0.147,1.009
		c-0.034,0.151-0.148,0.277-0.178,0.43c-0.097,0.521-0.451,1.025-0.64,1.515c-0.091,0.229-0.132,0.435-0.205,0.67
		c-0.125,0.398-0.381,1.758-1.065,1.361c-0.264-0.153-0.421-0.421-0.502-0.718c-0.161-0.587-0.28-1.176-0.453-1.757
		c-0.093-0.317-0.184-0.592-0.287-0.905c-0.063-0.191-0.134-0.157-0.22-0.369c-0.168-0.416-0.369-0.837-0.585-1.229
		c-0.278-0.506-0.619-1.015-0.882-1.534c-0.082-0.163-0.112-0.347-0.187-0.511c-0.154-0.337-0.293-0.444-0.222-0.794
		c0.059-0.297,0.115-0.292,0.242-0.397c0.252-0.209,0.635-0.345,0.764-0.446c0.242-0.191,0.379-0.443,0.452-0.735
		c0.038-0.156,0.011-0.879,0.009-0.961c-0.024-0.789-0.02-1.583-0.105-2.37c-0.021-0.197-0.284-0.309-0.347-0.502
		c-0.055-0.171,0.041-0.373-0.028-0.539c-0.197-0.472-0.173-0.613,0.24-0.907c0.224-0.159,0.524-0.242,0.707-0.447
		c0.294-0.332,0.213-0.389,0.344-0.577c0.062-0.088,0.187-0.112,0.256-0.195c0.124-0.15,0.23-0.319,0.313-0.497
		c0.213-0.452,0.354-0.989,0.485-1.468c0.086-0.308,0.309-0.609,0.251-0.928c-0.067-0.377-0.266-0.726-0.318-1.104
		c-0.087-0.627,0.044-1.306-0.161-1.913c-0.113-0.337-0.239-0.643-0.468-0.916c-0.14-0.167-0.223-0.37-0.349-0.542
		c-0.14-0.19-0.282-0.39-0.39-0.608c-0.085-0.171-0.18-0.341-0.211-0.521c-0.035-0.21-0.043-0.318,0.12-0.456
		c0.059-0.049,0.157-0.047,0.229-0.017c0.297,0.125,0.551,0.308,0.861,0.395c0.132,0.037,0.235,0.151,0.37,0.181
		c0.547,0.122,1.087,0.3,1.641,0.394c0.338,0.058,0.349-0.001,0.504,0.054c0.245,0.087,0.408,0.13,0.651,0.206
		c1.642,0.511,2.897,1.642,4.096,2.83c0.421,0.418,0.818,0.861,1.196,1.324c0.084,0.103,0.112,0.077,0.865,0.969
		c1.541,1.825,2.837,3.564,3.771,5.479c0.822,1.689,1.352,3.523,1.473,5.704c0.18,3.222-1.415,7.049-2.81,9.916
		c-0.714,1.466-1.379,3.017-1.757,4.611c-0.091,0.385-0.121,0.585-0.188,0.971c-0.238,1.37-0.334,2.36-0.929,3.631
		c-0.148,0.315-0.219,0.644-0.229,0.992c-0.025,0.875-0.301,1.021-0.604,1.813c-0.067,0.172,0.004,0.186-0.037,0.442
		c-0.026,0.164-0.152,0.304-0.175,0.47c-0.1,0.715-0.184,1.437-0.451,2.108c-0.105,0.265-0.127,0.276-0.357,0.439
		c-0.281,0.2-0.584,0.079-0.67-0.229c-0.111-0.396-0.032-0.801-0.163-1.192c-0.039-0.114-0.142-0.199-0.177-0.312
		c-0.129-0.408,0.07-0.69,0.122-1.093c0.055-0.41-0.043-0.826-0.065-1.238c-0.007-0.138,0.004-0.277-0.021-0.411
		c-0.042-0.222-0.201-0.418-0.382-0.211c-0.124,0.145-0.103,0.369-0.143,0.558s-0.097,0.376-0.107,0.566
		c-0.052,0.924-0.384,1.784-0.297,2.711c0.034,0.376,0.229,0.7,0.335,1.063c0.046,0.154,0.17,0.275,0.223,0.429
		c0.059,0.164,0.035,0.355,0.108,0.515c0.403,0.886,0.27,0.931,1.023,0.272c0.258-0.226,0.582-0.364,0.741,0.175
		c0.085,0.29,0.063,0.604,0.047,0.904c-0.023,0.446-0.008,0.46-0.122,0.728c-0.298,0.701-0.898,1.201-1.262,1.867
		c-0.112,0.205-0.04,0.229-0.097,0.445c-0.127,0.488-0.274,0.981-0.362,1.479c-0.027,0.159-0.146,0.291-0.177,0.449
		c-0.098,0.504-0.278,1.042-0.398,1.542c-0.352,1.46-0.949,2.95-1.047,4.438c-0.104,1.588-0.396,2.027-0.673,2.67
		c-0.093,0.215-0.185,0.451-0.267,0.761c-0.292,1.092,0.202,0.672-0.563,1.751c-0.42,0.59-0.564,1.126-0.163,1.943
		c0.216,0.439,0.634,0.767,0.825,1.218c0.247,0.581-0.006,0.793-0.579,0.903C124.727,145.021,124.395,145.01,124.069,145.022
		 M119.821,118.351c-0.347,0.007-0.582-0.078-0.824-0.333c-0.144-0.149-0.201-0.199-0.222-0.31c-0.138-0.694-0.115-1.39-0.211-2.091
		c-0.067-0.496-0.107-0.996-0.179-1.491c-0.018-0.125-0.061-0.115-0.075-0.292c-0.065-0.769-0.143-1.527-0.301-2.29
		c-0.119-0.573-0.288-1.155-0.191-1.735c0.079-0.484,0.703-0.699,1.119-0.929c0.268-0.147,0.242-0.194,0.427-0.262
		c0.363-0.136,0.64-0.342,1.019-0.154c0.096,0.047,0.189,0.107,0.266,0.184c0.452,0.458,0.664,1.238,1.212,1.583
		c0.257,0.162,0.475,0.145,0.533-0.164c0.063-0.319-0.17-0.541-0.357-0.792c-0.267-0.356-0.721-0.89-0.516-1.363
		c0.051-0.12,0.142-0.224,0.248-0.297c0.135-0.094,0.318-0.099,0.456-0.19c0.165-0.107,0.27-0.294,0.438-0.401
		c0.057-0.037,0.144-0.044,0.206-0.011c0.147,0.079,0.309,0.184,0.344,0.35c0.154,0.728,0.079,0.74,0.159,1.112
		c0.103,0.475,0.169,0.935,0.274,1.406c0.046,0.211,0.218,0.379,0.271,0.587c0.062,0.246,0.092,0.468,0.117,0.714
		c0.043,0.425,0.119,0.857,0.067,1.282c-0.043,0.356-0.205,0.69-0.347,1.02c-0.604,1.414-1.342,2.833-2.367,3.983
		C120.916,117.995,120.529,118.337,119.821,118.351 M120.849,112.794c-0.054,0-0.521-0.146-0.697-0.236
		c-0.346-0.176-0.47-0.453-0.53-0.818c-0.077-0.461-0.161-1.625,0.415-1.757c0.355-0.08,0.673,0.273,0.911,0.531
		c0.392,0.425,0.902,0.973,0.833,1.573c-0.048,0.405-0.232,0.448-0.594,0.617C121.081,112.753,120.965,112.794,120.849,112.794
		 M120.275,114.445c-0.258-0.008-0.516-0.218-0.333-0.471c0.203-0.28,0.735-0.405,0.92-0.02c0.024,0.052-0.018,0.123-0.064,0.162
		C120.642,114.25,120.48,114.451,120.275,114.445 M123.24,106.144c-0.418-0.009-0.708-0.446-0.432-0.826
		c0.144-0.199,0.408-0.278,0.59-0.445c0.145-0.132,0.268-0.288,0.384-0.447c0.728-1.003,1.307-1.986,1.465-3.255
		c0.02-0.155,0.121-0.292,0.136-0.447c0.024-0.247-0.047-0.495-0.019-0.74c0.079-0.696-0.027-1.477-0.194-2.165
		c-0.116-0.482-0.152-0.986-0.138-1.479c0.016-0.532,0.58-1.167,1.023-0.659c0.309,0.354,0.104,0.881,0.212,1.334
		c0.113,0.473,0.241,0.438,0.28,0.745c0.099,0.768,0.166,1.547,0.122,2.321c-0.028,0.5-0.236,0.956-0.404,1.422
		c-0.146,0.401-0.479,0.755-0.579,1.171c-0.154,0.64-0.301,1.358-0.619,1.934c-0.025,0.047-0.003,0.114-0.031,0.162
		C124.66,105.417,124.025,106.159,123.24,106.144 M120.396,107.594c-0.59-0.077-1.188,0.133-1.762,0.002
		c-0.422-0.096-0.532-0.697-0.687-1.054c-0.114-0.266-0.067-0.557-0.163-0.832c-0.263-0.755-0.438-1.535-0.721-2.284
		c-0.181-0.478-0.343-0.948-0.556-1.411c-0.189-0.418-0.366-0.842-0.586-1.25c-0.506-0.942-1.446-1.62-1.8-2.647
		c-0.035-0.102-0.048-0.218-0.017-0.319c0.146-0.485,0.707-0.561,1.144-0.511c0.549,0.062,0.991,0.449,1.299,0.922
		c0.328,0.502,0.484,1.074,0.627,1.648c0.142,0.566,0.208,1.117,0.349,1.682c0.107,0.427,0.385,0.848,0.725,1.126
		c0.13,0.107,0.248,0.133,0.329-0.017c0.309-0.565,0.066-1.336-0.135-1.918c-0.135-0.388-0.396-0.743-0.618-1.088
		c-0.19-0.297-0.361-0.612-0.548-0.911c-0.065-0.105-0.041-0.247-0.1-0.355c-0.312-0.582-0.521-1.239-0.298-1.865
		c0.145-0.404,0.218-0.377,0.301-0.442c0.17-0.134,0.35-0.263,0.548-0.354c0.341-0.155,0.767-0.218,0.92,0.182
		c0.04,0.105,0.012,0.232,0.058,0.337c0.177,0.401,0.217,0.386,0.248,0.527c0.038,0.176,0.019,0.363,0.068,0.537
		c0.116,0.407,0.223,0.798,0.344,1.202c0.173,0.578,0.416,1.085,0.646,1.647c0.278,0.675,0.522,1.362,0.71,2.063
		c0.055,0.208,0.241,0.383,0.267,0.507c0.086,0.419,0.229,0.784,0.383,1.18c0.133,0.342,0.185,0.541,0.287,0.886
		c0.237,0.8,0.424,1.915-0.214,2.536c-0.147,0.146-0.368,0.19-0.571,0.237C120.717,107.594,120.553,107.615,120.396,107.594
		 M115.394,107.238c-0.394-0.027-0.56-0.161-0.501-0.538c0.044-0.291,0.337-0.453,0.483-0.706c0.173-0.301,0.204-0.671,0.471-0.904
		c0.182-0.159,0.527-0.156,0.7-0.002c0.413,0.366,0.812,0.851,0.574,1.404c-0.117,0.273-0.169,0.243-0.212,0.285
		c-0.105,0.106-0.228,0.2-0.363,0.268C116.173,107.231,115.806,107.267,115.394,107.238 M115.104,108.974
		c-0.273-0.013-0.538-0.148-0.692-0.382c-0.089-0.133-0.091-0.283-0.063-0.442c0.034-0.205,0.174-0.346,0.355-0.437
		c0.376-0.189,1.012-0.252,1.396-0.08c0.435,0.196,0.508,0.277,0.462,0.767C116.503,109.052,115.6,108.996,115.104,108.974
		 M140.571,87.58c-0.903-0.181-1.579-1.109-2.346-1.565c-0.911-0.543-1.991-0.925-2.831-1.578c-0.144-0.112-0.238-0.235-0.302-0.348
		c-0.133-0.236-0.269-0.47-0.358-0.722c-0.13-0.366-0.127-0.367-0.145-0.473c-0.041-0.238-0.091-0.488-0.039-0.725
		c0.066-0.305,0.259-0.481,0.561-0.537c0.455-0.085,0.93-0.042,1.396-0.035c0.777,0.01,1.564,0.039,2.304,0.279
		c0.422,0.138,0.743,0.337,1.022,0.675c0.323,0.391,0.529,0.946,0.968,1.212c0.389,0.234,0.853,0.328,1.241,0.565
		c0.448,0.273,0.695,0.903,0.681,1.419c-0.008,0.284-0.106,0.558-0.196,0.831c-0.049,0.149-0.117,0.296-0.22,0.416
		c-0.202,0.238-0.378,0.438-0.677,0.519C141.289,87.604,140.918,87.649,140.571,87.58 M140.492,86.083
		c-0.121,0.017-0.227-0.088-0.34-0.129c-0.341-0.123-0.689-0.228-0.961-0.477c-0.37-0.339-0.673-0.723-1.108-0.98
		c-0.292-0.173-0.523-0.231-0.858-0.355c-0.46-0.17-1.045-0.222-0.599-0.75c0.069-0.081,0.131-0.174,0.156-0.278
		c0.024-0.104,0.005-0.212-0.017-0.314c-0.018-0.079-0.104-0.13-0.038-0.18c0.171-0.13,0.438-0.062,0.659,0.01
		c0.286,0.093,0.592,0.265,0.678,0.516c0.076,0.22,0.003,0.342,0.189,0.473c0.241,0.168,0.571,0.198,0.794,0.392
		c0.161,0.14,0.095,0.387,0.192,0.575c0.049,0.091,0.138,0.157,0.223,0.218c0.094,0.068,0.752,0.358,1.111,0.668
		C140.853,85.711,140.97,86.015,140.492,86.083 M134.311,84.968c-0.469-0.001-0.641-0.381-0.872-0.752
		c-0.215-0.343-0.529-0.623-0.713-0.983c-0.07-0.139-0.083-0.323-0.023-0.465c0.255-0.622,1.15-0.732,1.454-0.116
		c0.176,0.356,0.197,0.718,0.414,1.055c0.118,0.185,0.055,0.213,0.188,0.514C135.007,84.775,134.877,84.969,134.311,84.968
		 M107.606,85.556c-0.477-0.116-0.686-0.636-0.928-1.049c-0.124-0.212-0.212-0.449-0.256-0.688
		c-0.057-0.306-0.043-0.593,0.023-0.875c0.029-0.128,0.037-0.291,0.155-0.386c0.255-0.205,0.484-0.093,0.649,0.172
		c0.264,0.426,0.589,0.848,0.822,1.292c0.19,0.36,0.127,0.984-0.029,1.356C107.964,85.569,107.807,85.604,107.606,85.556
		 M111.956,96.692c-0.19-0.03-0.204-0.028-0.397-0.173c-0.751-0.56-1.452-1.275-1.938-2.087c-0.246-0.411-0.633-0.781-0.783-1.236
		c-0.09-0.271,0.086-0.499-0.095-0.731c-0.192-0.245-0.459-0.39-0.541-0.696c-0.029-0.106-0.037-0.219-0.017-0.326
		c0.043-0.229,0.175-0.363,0.174-0.489c-0.004-0.319-0.215-0.57-0.267-0.881c-0.035-0.207-0.103-0.429-0.033-0.625
		c0.194-0.543,0.64-0.35,0.975-0.056c0.223,0.196,0.292,0.319,0.323,0.407c0.066,0.185,0.074,0.39,0.15,0.573
		c0.063,0.148,0.133,0.121,0.179,0.351c0.106,0.53,0.121,1.091,0.285,1.606c0.148,0.466,0.341,0.935,0.634,1.329
		c0.165,0.221,0.158,0.227,0.278,0.346c0.538,0.53,1.262,0.873,1.7,1.491c0.289,0.41,0.287,0.955-0.249,1.164
		C112.217,96.708,112.08,96.712,111.956,96.692 M117.832,94.682c-0.129-0.038-0.161-0.056-0.18-0.169
		c-0.128-0.729-0.263-1.444-0.416-2.179c-0.089-0.43-0.354-0.777-0.542-1.173c-0.218-0.458-0.38-0.967-0.673-1.385
		c-0.263-0.373-0.67-0.667-0.818-1.098c-0.104-0.3,0.033-0.616,0.091-0.931c0.071-0.392,0.043-0.824,0.436-0.992
		c0.168-0.071,0.346-0.055,0.512,0.017c0.135,0.058,0.235,0.177,0.347,0.276c0.038,0.034,0.071,0.078,0.097,0.125
		c0.289,0.53,0.45,1.096,0.648,1.667c0.057,0.166,0.178,0.262,0.284,0.387c0.382,0.447,0.707,1.01,0.86,1.574
		c0.087,0.327,0.105,0.641,0.171,0.971c0.104,0.524,0.161,1.082,0.064,1.604c-0.082,0.442-0.194,0.893-0.502,1.233
		C118.12,94.711,117.964,94.721,117.832,94.682 M119.247,92.266c-0.123-0.079-0.212-0.187-0.278-0.313
		c-0.199-0.381-0.186-0.925-0.181-1.307c0.002-0.091,0.047-0.187,0.111-0.25c0.303-0.292,0.63-0.214,0.726,0.166
		c0.102,0.407,0.174,0.826,0.146,1.239c-0.014,0.202-0.108,0.332-0.283,0.441C119.418,92.285,119.313,92.31,119.247,92.266
		 M119.47,94.595c-0.499-0.12-0.484-0.851-0.461-1.3c0.013-0.262,0.056-0.579,0.335-0.626c0.371-0.063,0.61,0.302,0.707,0.711
		c0.076,0.318,0.066,0.662-0.034,0.852C119.879,94.494,119.744,94.663,119.47,94.595 M119.873,88.571
		c-0.048-0.006-0.089-0.041-0.119-0.076c-0.273-0.315-0.388-0.45-0.104-0.835c0.186-0.251,0.325-0.536,0.439-0.826
		c0.091-0.23,0.19-0.46,0.143-0.702c-0.028-0.142-0.153-0.251-0.181-0.39c-0.046-0.246-0.059-0.498-0.039-0.745
		c0.012-0.148,0.127-0.278,0.138-0.427c0.078-1.019-0.029-2.077-0.163-3.087c-0.051-0.385-0.252-0.723-0.339-1.103
		c-0.021-0.09-0.055-0.174-0.092-0.255c-0.046-0.096-0.143-0.208-0.222-0.331c-0.132-0.206-0.276-0.468-0.105-0.623
		c0.061-0.056,0.168-0.039,0.249-0.018c0.149,0.04,0.273,0.151,0.399,0.256c0.45,0.372,0.765,0.97,0.958,1.462
		c0.152,0.389,0.243,0.653,0.336,1.062c0.12,0.529,0.224,1.037,0.363,1.562c0.123,0.471,0.205,0.445,0.231,0.608
		c0.136,0.823,0.21,1.666,0.172,2.498c-0.013,0.275-0.158,0.531-0.28,0.779c-0.229,0.461-0.666,0.748-1.157,0.924
		c-0.173,0.062-0.241,0.193-0.367,0.239C120.05,88.576,119.957,88.583,119.873,88.571 M117.852,87.457
		c-0.369-0.026-0.386-0.306-0.544-0.61c-0.046-0.088-0.148-0.141-0.192-0.23c-0.284-0.578-0.934-0.801-0.74-1.508
		c0.108-0.392,0.375-0.704,0.442-1.104c0.052-0.303-0.044-0.616-0.008-0.92c0.05-0.417,0.105-0.801,0.196-1.211
		c0.093-0.422,0.56-0.693,0.641-1.114c0.059-0.297-0.183-0.521-0.302-0.799c-0.062-0.145-0.099-0.359-0.13-0.563
		c-0.03-0.204-0.075-0.444,0.06-0.548c0.188-0.146,0.362-0.095,0.478,0.103c0.181,0.312,0.205,0.685,0.373,1
		c0.157,0.295,0.42,0.479,0.522,0.793c0.087,0.267,0.068,0.548,0.162,0.813c0.103,0.287,0.22,0.57,0.365,0.841
		c0.152,0.284,0.197,0.263,0.219,0.369c0.164,0.784,0.167,1.596,0.188,2.397c0.007,0.318-0.098,0.505-0.158,0.809
		c-0.121,0.606-0.545,1.18-1.091,1.425C118.184,87.466,118.012,87.468,117.852,87.457 M132.353,85.412
		c-0.423-0.084-0.424-0.105-0.573-0.198c-0.219-0.136-0.491-0.321-0.71-0.538c-0.321-0.318-0.531-0.706-0.303-1.109
		c0.235-0.419,0.45-0.428,0.933-0.333c0.63,0.124,1.338,0.659,1.496,1.31c0.116,0.478,0.155,0.638-0.303,0.828
		C132.725,85.44,132.528,85.447,132.353,85.412 M110.889,134.91c-0.443-0.028-0.742-0.196-0.787-0.676
		c-0.102-1.04-0.063-2.032,0.058-3.071c0.022-0.192-0.027-0.392,0.009-0.581c0.076-0.391,0.148-0.77,0.26-1.153
		c0.257-0.896-0.202-1.863-0.541-2.667c-0.155-0.371-0.309-0.721-0.458-1.097c-0.175-0.44-0.419-0.868-0.51-1.334
		c-0.093-0.47-0.222-1.026-0.079-1.482c0.234-0.748,0.679-1.399,1.309-1.879c0.389-0.295,0.896-0.419,0.983,0.197
		c0.077,0.546-0.145,1.111,0.047,1.638c0.121,0.336,0.411,0.675,0.799,1.499c0.106,0.227,0.099,0.475,0.058,0.724
		c-0.09,0.556-0.184,0.541-0.206,1.011c-0.025,0.53,0.518,0.758,0.82,1.152c0.315,0.407,0.224,1.072,0.224,1.574
		c0,0.264,0.017,0.271-0.152,0.909c-0.052,0.195-0.247,0.461-0.295,0.723c-0.038,0.202-0.046,0.465,0.153,0.512
		c0.277,0.063,0.324-0.438,0.414-0.635c0.166-0.364,0.444-0.666,0.605-1.032c0.125-0.285,0.229-0.584,0.233-0.894
		c0.003-0.219-0.025-0.441-0.095-0.649c-0.148-0.447-0.488-0.671-0.774-1.039c-0.125-0.159-0.194-0.356-0.25-0.547
		c-0.034-0.118-0.044-0.246-0.019-0.365c0.053-0.259,0.116-0.449,0.162-0.71c0.033-0.186,0.147-0.316,0.094-0.499
		c-0.252-0.87-0.093-1.771-0.396-2.6c-0.146-0.396-0.389-0.751-0.502-1.155c-0.063-0.225,0.004-0.474-0.057-0.697
		c-0.164-0.604-0.51,0.098-0.836,0.191c-0.343,0.098-0.479,0.068-0.588-0.257c-0.057-0.166-0.038-0.351-0.028-0.523
		c0.036-0.584,0.312-0.966,0.782-1.293c0.329-0.227,0.809-0.482,0.863-0.896c0.078-0.577-0.101-1.041,0.332-1.466
		c0.224-0.222,0.541,0.029,0.667,0.293c0.045,0.092,0.25,3.129,0.301,3.426c0.038,0.22,0.106,0.796,0.243,1.567
		c0.052,0.292,0.152,0.576,0.206,0.87c0.219,1.193,0.403,2.372,0.588,3.57c0.062,0.404,0.169,0.378,0.268,0.907
		c0.155,0.826,0.303,1.656,0.232,2.495c-0.043,0.502-0.572,0.84-0.834,1.265c-0.186,0.301-0.111,0.601-0.15,0.949
		c-0.039,0.352-0.127,0.688-0.266,1.014c-0.119,0.275-0.1,0.296-0.37,0.624c-0.567,0.688-1.157,1.365-1.822,1.959
		C111.392,134.954,111.148,134.929,110.889,134.91 M114.021,137.367c-0.674-0.172-0.51-0.563-0.637-1.204
		c-0.068-0.349-0.42-0.53-0.525-0.854c-0.233-0.727-0.129-1.32,0.602-1.647c0.081-0.035,0.181-0.04,0.266-0.013
		c0.431,0.131,0.749,0.496,0.954,0.897c0.05,0.098,0.048,0.215,0.097,0.314c0.212,0.437,0.424,0.839,0.41,1.326
		c-0.005,0.188-0.057,0.378-0.133,0.552c-0.115,0.261-0.364,0.527-0.653,0.596C114.276,137.364,114.143,137.398,114.021,137.367
		 M111.126,140.542c-0.446-0.121-0.701-0.37-0.478-0.84c0.152-0.318,0.413-0.551,0.594-0.85c0.039-0.062,0.062-0.135,0.071-0.205
		c0.081-0.526,0.109-0.923,0.326-1.419c0.113-0.26,0.068-0.433,0.022-0.715c-0.05-0.298-0.134-0.495,0.136-0.603
		c0.318-0.125,0.635-0.007,0.933,0.163c0.075,0.043,0.148,0.121,0.16,0.208c0.071,0.527-0.139,1.104,0.248,1.478
		c0.238,0.232,0.633,0.156,0.716,0.513c0.068,0.286-0.117,0.51-0.304,0.727c-0.215,0.251-0.614,0.717-1.197,1.184
		c-0.186,0.148-0.397,0.265-0.628,0.315C111.529,140.541,111.318,140.594,111.126,140.542 M88.365,145.268
		c-0.873-0.351-1.644-0.995-2.321-1.621c-0.249-0.229-0.183-0.431-0.14-0.759c0.019-0.144,0.017-0.295-0.023-0.433
		c-0.064-0.223-0.171-0.419-0.321-0.594c-0.048-0.054-0.058-0.082-0.327-0.086c-0.347-0.007-0.71,0.133-1.052,0.145
		s-0.702-0.027-0.908-0.348c-0.093-0.145-0.101-0.327-0.126-0.493c-0.023-0.148-0.032-0.298-0.023-0.446
		c0.105-1.734-0.085-3.368-0.408-5.075c-0.121-0.638-0.147-1.289-0.261-1.928c-0.151-0.852-0.382-1.668-0.573-2.511
		c-0.146-0.646-0.177-0.662-0.109-0.94c0.058-0.235,0.261-0.256,0.484-0.198c0.222,0.058,0.463,0.194,0.594,0.273
		c0.414,0.249,0.835,0.357,1.288,0.513c0.359,0.123,0.724,0.404,0.768,0.788c0.133,1.151,0.189,2.312,0.283,3.467
		c0.034,0.419,0.039,0.846,0.146,1.253c0.096,0.362,0.247,0.671,0.375,1.021c0.238,0.653,0.86,1.021,1.225,1.597
		c0.242,0.383,0.095,0.818,0.186,1.25c0.022,0.106,0.075,0.206,0.14,0.296c0.097,0.135,0.366,0.313,0.569,0.551
		c0.091,0.105,0.06,0.125,0.261,0.464c0.098,0.166,0.215,0.327,0.362,0.458c0.187,0.164,0.362,0.279,0.611,0.283
		c0.454,0.006,0.682-0.466,1.081-0.638c0.265-0.114,0.669-0.146,1.002-0.088c0.259,0.046,0.517,0.158,0.589,0.433
		c0.046,0.176,0.086,0.391-0.011,0.547c-0.36,0.583-0.857,1.069-1.255,1.627c-0.322,0.451-0.219,0.519-0.516,0.892
		C89.496,145.541,89.017,145.528,88.365,145.268 M91.718,147.464c-0.643-0.194-1.324-0.444-1.751-0.952
		c-0.45-0.535-0.216-0.85,0.188-1.377c0.359-0.469,0.468-0.612,0.676-0.835c0.249-0.268,0.55-0.588,0.876-0.806
		c0.515-0.343,0.904-0.307,1.278,0.102c0.27,0.294,0.379,0.725,0.439,1.118c0.044,0.289,0.066,0.588,0.046,0.883
		c-0.019,0.268-0.13,0.523-0.159,0.789c-0.035,0.329-0.056,0.631-0.201,0.858C92.782,147.759,92.207,147.61,91.718,147.464
		 M102.222,153.681c-0.427-0.808,0.128-1.771,0.283-2.604c0.052-0.282,0.146-0.373,0.401-0.509c0.21-0.112,0.564-0.144,0.77-0.016
		c0.558,0.346,0.706,0.904,1.402,0.602c0.208-0.09,0.616-0.437,0.309-0.616c-0.386-0.224-0.9-0.176-1.273-0.424
		c-0.399-0.264-0.884-0.626-0.599-1.109c0.255-0.431,0.707-0.65,1.068-0.996c0.341-0.327,0.5-0.913,0.389-1.377
		c-0.12-0.508-0.4-1.32-0.096-1.801c0.115-0.181,0.206-0.384,0.25-0.596c0.086-0.403,0.063-0.794,0.381-1.078
		c0.593-0.528,0.754-1.067,1.048-1.799c0.201-0.496,0.631-0.904,0.827-1.404c0.136-0.345,0.12-0.719,0.357-1.009
		c0.343-0.42,0.749-0.119,1.056,0.212c0.184,0.198,0.339,0.442,0.506,0.566c0.331,0.249,0.775,0.418,0.875,0.844
		c0.027,0.119,0.052,0.248,0.02,0.365c-0.061,0.214-0.177,0.409-0.291,0.6c-0.352,0.592-0.823,1.131-1.024,1.791
		c-0.175,0.575-0.244,0.806-0.261,1.135c-0.026,0.539,0.072,1.077,0.066,1.618c-0.006,0.477-0.208,0.657-0.639,0.899
		c-0.507,0.285-0.907,0.571-1.198,1.103c-0.118,0.215-0.325,0.469-0.241,0.702c0.284,0.795,0.996,1.722,0.654,2.577
		c-0.198,0.495-0.934,0.727-1.375,0.955c-0.313,0.162-0.645,0.364-0.952,0.53c-0.496,0.268-0.987,0.554-1.488,0.816
		C103.011,153.888,102.513,154.231,102.222,153.681 M106.515,145.164c-0.124-0.091-0.227-0.201-0.257-0.321
		c-0.083-0.33,0.101-0.414,0.422-0.497c0.208-0.053,0.438-0.095,0.623-0.063c0.185,0.03,0.324,0.133,0.35,0.367
		c0.015,0.146-0.057,0.286-0.167,0.406C107.151,145.426,106.907,145.453,106.515,145.164 M121.697,147.869
		c-0.251-0.017-0.419-0.095-0.529-0.331c-0.049-0.104-0.048-0.235-0.019-0.345c0.083-0.312,0.255-0.594,0.353-0.898
		c0.155-0.482,0.039-0.516,0.262-1.115c0.118-0.317,0.578-0.274,0.868-0.134c0.354,0.173,0.633,0.438,1.026,0.486
		c0.52,0.064,1.105-0.183,1.267,0.382c0.146,0.511-0.065,0.976-0.521,1.26c-0.423,0.266-0.91,0.382-1.394,0.514
		c-0.292,0.079-0.292,0.079-0.435,0.104C122.286,147.84,121.991,147.888,121.697,147.869 M90.322,103.502
		c-0.069-0.161-0.102-0.348-0.139-0.537c-0.093-0.469,0.278-1.032,0.663-0.535c0.195,0.252,0.186,0.64,0.097,0.986
		C90.824,103.875,90.598,104.139,90.322,103.502 M90.894,114.486c0.234-0.517,0.47-1.033,0.694-1.555
		c0.039-0.092,0.082-0.187,0.085-0.285c0.009-0.313-0.083-0.559-0.126-0.867c-0.069-0.487,0.354-0.657,0.753-0.471
		c0.451,0.213,0.416,0.381,0.429,0.888c0.002,0.055-0.006,0.113-0.031,0.162c-0.434,0.839-0.777,1.73-1.38,2.455
		C90.775,115.463,90.556,115.233,90.894,114.486 M83.673,128.441c-0.081,0.011-0.227-0.069-0.361-0.14
		c-0.223-0.116-0.431-0.336-0.154-0.445c0.314-0.125,0.565-0.047,0.738-0.335c0.171-0.284,0.3-0.568,0.321-0.674
		c0.074-0.36,0.095-0.355,0.162-0.729c0.07-0.394-0.002-0.767,0.055-1.13c0.121-0.776,0.595-0.58,0.514,0.166
		c-0.083,0.752,0.176,1.506-0.224,2.214C84.452,127.851,84.262,128.362,83.673,128.441 M84.843,121.396
		c-0.299-0.013-0.629-0.113-0.844-0.331c-0.054-0.055-0.1-0.124-0.115-0.198c-0.033-0.168,0.057-0.318,0.16-0.445
		c0.375-0.466,0.484-0.252,0.785,0.172c0.18,0.253,0.212,0.232,0.334,0.298c0.086,0.047,0.422,0.067,0.392,0.189
		C85.487,121.355,85.096,121.407,84.843,121.396 M77.304,67.368c-0.006-0.103,0.007-0.221,0.082-0.338
		c0.617-0.972,1.124-1.628,1.257-1.883c0.08-0.153,0.153-0.308,0.193-0.439c0.052-0.167,0.04-0.363-0.23-0.407
		c-0.26-0.044-0.359,0.088-0.498,0.262c-0.438,0.546-0.684,1.241-1.104,1.801c-0.171,0.23-0.193,0.221-0.31,0.279
		c-0.296,0.147-0.654,0.208-0.948,0.048c-0.49-0.267-1.338-0.995-1.004-1.582c0.321-0.565,0.771,0.162,1.202,0.213
		c0.385,0.044,0.643-0.35,0.833-0.657c0.114-0.185,0.339-0.585,0.411-0.928c0.049-0.235,0.045-0.516-0.181-0.553
		c-0.335-0.056-0.474,0.261-0.771,0.441c-0.326,0.197-0.702,0.055-1.074,0.117c-0.494,0.082-0.515,0.457-0.828,0.814
		c-0.201,0.23-0.491,0.29-0.785,0.211c-0.143-0.038-0.256-0.136-0.322-0.269c-0.243-0.49,0.307-1.18,0.535-1.594
		c0.173-0.315,0.169-0.323,0.212-0.553c0.08-0.429,0.127-0.819,0.296-1.216c0.219-0.514,0.756-0.68,1.239-0.954
		c0.434-0.246,0.705-0.712,1.054-1.066c0.451-0.456,1.008-0.784,1.456-1.237c0.209-0.211,0.335-0.511,0.563-0.71
		c0.144-0.126,0.369-0.157,0.537-0.054c0.225,0.136,0.226,0.138,0.333,0.242c0.734,0.711,1.393,2.054,1.547,2.724
		c0.153,0.669,0.277,0.502,0.33,0.943c0.053,0.44,0.125,1.19,0.087,1.662c-0.038,0.472,0,0.507-0.299,1.156
		c-0.299,0.65-1.035,1.893-1.899,2.512c-0.106,0.077-0.08,0.105-0.736,0.673c-0.139,0.119-0.347,0.281-0.509,0.416
		C77.747,67.627,77.334,67.884,77.304,67.368 M95.26,46.084c-0.162-0.01-0.33-0.074-0.404-0.217
		c-0.246-0.475-0.153-1.119-0.106-1.641c0.017-0.204,0.073-0.409,0.168-0.589c0.132-0.248,0.371-0.199,0.538-0.012
		c0.086,0.098,0.098,0.248,0.153,0.374c0.24,0.547,0.61,1.071,0.969,1.513c0.063,0.079,0.063,0.218,0.014,0.309
		c-0.076,0.141-0.115,0.125-0.178,0.131C96.027,45.989,95.651,46.108,95.26,46.084 M81.919,42.045
		c-0.375-0.083-0.671-0.396-0.753-0.778c-0.108-0.502,0.034-0.608,0.546-0.523c0.345,0.057,0.503,0.285,0.58,0.618
		C82.396,41.821,82.404,42.151,81.919,42.045 M81.596,43.502c-0.442-0.058-0.962-0.268-0.734-0.786
		c0.154-0.35,0.736-0.293,1.032-0.118c0.098,0.059,0.194,0.157,0.217,0.272C82.188,43.282,82.046,43.562,81.596,43.502
		 M88.989,48.215c-0.237-0.035-0.374-0.174-0.503-0.313c-0.356-0.387-0.275-0.604-0.016-1.008c0.226-0.348,0.529-0.634,0.82-0.923
		c0.218-0.217,0.435-0.445,0.705-0.602c0.278-0.16,0.602-0.246,0.837,0.006c0.107,0.115,0.101,0.13,0.107,0.212
		c0.061,0.805-0.14,1.391-0.649,2.038c-0.188,0.239-0.397,0.476-0.701,0.547C89.392,48.218,89.186,48.246,88.989,48.215
		 M104.31,53.771c-1.09-0.185-1.26-1.443-1.594-2.315c-0.032-0.084-0.056-0.191-0.01-0.269c0.149-0.257,0.322-0.537,0.698-0.797
		c0.866-0.601,1.845-1,2.768-1.513c0.04-0.022,0.07-0.066,0.114-0.084c0.63-0.267,1.251-0.594,1.898-0.82
		c0.401-0.14,1.499-0.062,1.335-0.696c-0.109-0.43-0.707-0.483-0.408-0.989c0.102-0.173,0.239-0.325,0.391-0.455
		c0.166-0.144,0.349-0.275,0.552-0.359c0.698-0.29,1.458-0.365,2.167-0.635c0.429-0.163,0.854-0.521,1.279-0.223
		c0.159,0.111,0.279,0.273,0.404,0.423c0.068,0.081,0.133,0.171,0.175,0.271c0.53,1.296,0.919,2.645,0.593,4.037
		c-0.066,0.283-0.089,0.34-0.253,0.558c-0.403,0.535-1.019,0.514-1.647,0.689c-0.4,0.112-0.761,0.181-1.144,0.34
		c-0.37,0.154-0.625,0.496-0.963,0.711c-0.082,0.052-0.19,0.048-0.275,0.094c-0.537,0.297-1.132,0.575-1.698,0.811
		c-0.624,0.259-1.24,0.615-1.9,0.761c-0.41,0.09-0.843,0.026-1.255,0.106c-0.267,0.051-0.604,0.283-0.685,0.296
		C104.669,53.741,104.487,53.802,104.31,53.771 M93.54,32.067c-0.179-0.006-0.295-0.032-0.341-0.203
		c-0.039-0.145,0.152-0.253,0.296-0.332c0.144-0.078,0.324-0.099,0.444-0.16c0.315-0.157,0.46-0.389,0.777-0.256
		c0.073,0.03,0.124,0.117,0.132,0.197c0.01,0.088-0.03,0.186-0.089,0.254c-0.178,0.21-0.391,0.364-0.661,0.438
		C93.917,32.055,93.727,32.073,93.54,32.067 M90.94,49.934c-0.191,0-0.362-0.122-0.521-0.227c-0.728-0.483-1.372-1.102-2.091-1.598
		c-0.362-0.25-0.818-0.541-1.062-0.897c-0.236-0.344-0.2-0.369-0.276-0.61c-0.067-0.213-0.033-0.23-0.098-0.299
		c-0.548-0.583-1.176-1.144-1.672-1.769c-0.193-0.242-0.197-0.302-0.299-0.42c-0.305-0.354-0.488-0.897-0.575-1.354
		c-0.073-0.383-0.066-0.535-0.049-0.923c0.039-0.864,0.21-1.414,0.673-2.122c0.397-0.606,1.08-1.167,1.819-1.26
		c0.263-0.033,0.432,0.056,0.999-0.033c0.207-0.032,0.313-0.306,0.444-0.119c0.085,0.121-0.056,0.319,0.025,0.443
		c0.238,0.363,0.783,0.003,1.122-0.127c0.142-0.054,0.268-0.004,0.357,0.109c0.211,0.264,0.312,0.686,0.597,0.879
		c0.65,0.44,1.194,0.388,1.552,1.149c0.196,0.418,0.271,0.808,0.59,1.14c0.062,0.064,0.158,0.104,0.25,0.108
		c0.31,0.017,0.629,0.024,0.932-0.049c0.515-0.124,0.956-0.518,1.226-0.981c0.115-0.199,0.381-0.574,0.667-0.778
		c0.172-0.123,0.377-0.21,0.542-0.086c0.115,0.087,0.071,0.237,0.012,0.359c-0.075,0.156-0.229,0.303-0.291,0.43
		c-0.107,0.219-0.209,0.465-0.221,0.708c-0.021,0.423-0.009,0.853,0.067,1.271c0.038,0.212,0.065,0.211,0.529,0.933
		c0.183,0.284,0.44,0.528,0.641,0.803c0.192,0.264,0.255,0.374,0.396,0.644c0.212,0.407,0.085,0.888,0.249,1.308
		c0.077,0.196,0.309,0.199,0.45,0.149c0.141-0.049,0.266-0.189,0.296-0.41c0.052-0.363,0.168-0.724,0.396-1.009
		c0.192-0.243,0.235-0.217,0.237-0.264c0.009-0.182-0.058-0.311-0.098-0.404c-0.131-0.303-0.12-0.377,0.397-0.26
		c0.386,0.087,0.745,0.013,1.078-0.116c0.871-0.338,1.417-0.868,1.617-1.792c0.063-0.291,0.104-0.602,0.061-0.965
		c-0.02-0.174-0.073-0.377-0.051-0.566c0.047-0.4,0.315-0.607,0.624-0.278c0.093,0.099,0.177,0.221,0.223,0.355
		c0.048,0.146,0.101,0.298,0.104,0.455c0.013,0.676-0.063,1.28-0.185,1.892c-0.146,0.737-0.365,1.259-0.849,1.84
		c-0.097,0.116-0.21,0.214-0.436,0.119c-0.456-0.193-1.167-0.666-1.568-0.193c-0.314,0.369-0.38,0.792-0.464,1.275
		c-0.026,0.156-0.021,0.308-0.055,0.463c-0.043,0.197-0.172,0.371-0.21,0.571c-0.099,0.519-0.384,1.021-0.938,1.016
		c-0.108-0.001-0.332-0.043-0.528-0.132c-0.278-0.127-0.277-0.127-0.429-0.214c-0.318-0.181-0.489-0.48-0.721-0.762
		c-0.222-0.271-0.28-0.387-0.61-0.252c-0.426,0.173-0.7,0.573-0.84,1.019c-0.054,0.172-0.039,0.368-0.084,0.547
		c-0.027,0.107-0.046,0.222-0.113,0.308c-0.016,0.021-0.059,0.023-0.074,0.004c-0.118-0.16-0.068-0.354-0.132-0.538
		c-0.097-0.275-0.212-0.42-0.48-0.529c-0.098-0.04-0.215-0.018-0.313,0.017c-0.348,0.124-0.655,0.296-0.937,0.534
		c-0.488,0.411-0.432,0.468-1.059,1.092C91.493,49.826,91.332,49.934,90.94,49.934 M92.085,36.726
		c-0.144-0.009-0.31-0.039-0.476-0.027c-0.23,0.015-0.34,0.082-0.404-0.157c-0.019-0.072,0.046-0.14,0.08-0.204
		c0.448-0.868,0.441-0.88,0.505-0.923c0.221-0.149,0.427-0.04,0.506,0.179c0.115,0.32,0.126,0.645,0.051,0.978
		C92.32,36.694,92.201,36.733,92.085,36.726 M99.157,76.356c-0.217-0.045-0.174-0.286-0.257-0.485
		c-0.292-0.684-0.53-1.382-0.791-2.08c-0.157-0.418-0.08-0.443-0.2-0.75c-0.109-0.278-0.326-0.644-0.36-0.994
		c-0.016-0.158-0.052-0.358,0.072-0.446c0.164-0.115,0.337,0.106,0.443,0.309c0.105,0.201,0.192,0.441,0.216,0.565
		c0.044,0.236,0.028,0.481,0.078,0.716c0.05,0.238,0.188,0.419,0.274,0.646c0.062,0.163,0.045,0.35,0.107,0.515
		c0.207,0.554,0.53,1.086,0.727,1.643C99.547,76.224,99.395,76.404,99.157,76.356 M95.736,65.972
		c-0.194-0.358-0.195-0.876-0.163-1.311c0.007-0.1-0.001-0.204,0.038-0.29c0.097-0.212,0.251-0.101,0.37,0.048
		c0.071,0.089,0.169,0.18,0.187,0.263c0.069,0.317,0.131,0.758,0.088,1.126C96.205,66.24,95.946,66.36,95.736,65.972
		 M113.744,79.369c-0.05-0.01-0.116-0.024-0.137-0.071c-0.036-0.087,0.081-0.255,0.188-0.419c0.136-0.21,0.316-0.421,0.362-0.516
		c0.173-0.354,0.343-0.717,0.616-1.001c0.067-0.07,0.14-0.096,0.222-0.04c0.101,0.067,0.105,0.145,0.063,0.259
		c-0.104,0.269-0.254,0.617-0.412,0.947c-0.124,0.257-0.27,0.496-0.457,0.654c-0.091,0.077-0.19,0.14-0.305,0.167
		C113.838,79.361,113.788,79.377,113.744,79.369 M90.167,64.103c-0.404-0.225-0.258-0.527,0.013-0.855
		c0.742-0.9,1.446-1.735,2.006-2.758c0.248-0.453,0.487-0.913,0.748-1.36c0.283-0.483,0.359-0.814,0.534-1.313
		c0.155-0.444,0.384-0.399,0.519-0.058c0.03,0.078-0.032,0.405-0.106,0.706c-0.069,0.275-0.215,0.468-0.302,0.736
		c-0.248,0.769-0.695,1.542-1.12,2.216c-0.368,0.583-0.737,1.181-1.132,1.745c-0.269,0.381-0.47,0.707-0.899,0.914
		C90.348,64.115,90.242,64.145,90.167,64.103 M87.619,65.498c-0.418-0.083-0.128-0.418,0.091-0.667
		c0.174-0.199,0.368-0.408,0.626-0.463c0.457-0.099,0.764-0.043,0.717,0.477c-0.034,0.384-0.293,0.522-0.539,0.588
		S87.957,65.565,87.619,65.498 M86.254,63.908c-0.105-0.002-0.239-0.002-0.305-0.084c-0.162-0.201,0.035-0.422,0.189-0.58
		c0.436-0.442,0.837-0.923,1.35-1.273c0.549-0.375,0.627,0.195,0.406,0.581c-0.31,0.54-0.828,1.058-1.362,1.29
		C86.445,63.88,86.35,63.912,86.254,63.908 M85.894,61.482c0.423-0.795,1.234-1.25,1.978-1.733c0.497-0.322,0.685-0.248,0.344,0.314
		c-0.332,0.546-0.847,1.063-1.281,1.454c-0.127,0.114-0.363,0.295-0.447,0.326C86.148,61.969,85.613,62.011,85.894,61.482
		 M84.665,59.094c0.139-0.4,0.252-0.833,0.541-1.136c0.285-0.299,0.498-0.456,0.882-0.276c0.202,0.094,0.407,0.216,0.545,0.395
		c0.278,0.361-0.408,0.349-0.682,0.433c-0.458,0.141-0.694,0.462-0.966,0.809c-0.063,0.08-0.106,0.184-0.194,0.25
		C84.366,59.889,84.603,59.274,84.665,59.094 M87.698,56.369c-0.248-0.01-0.483-0.109-0.662-0.282
		c-0.456-0.441-0.425-0.475-0.758-0.982c-0.091-0.139-0.094-0.276-0.022-0.425c0.165-0.343,0.62-0.654,0.99-0.741
		c0.105-0.024,0.218-0.039,0.325-0.018c0.261,0.053,0.463,0.2,0.715,0.283c0.215,0.071,0.622,0.014,0.581,0.284
		c-0.06,0.398-0.102,0.752-0.16,1.149c-0.025,0.176-0.021,0.204-0.221,0.395C88.245,56.264,88.034,56.381,87.698,56.369
		 M89.125,58.415c-0.356-0.016-0.064-0.519,0.074-0.732c0.173-0.271,0.774-1.026,0.935-0.406
		C90.279,57.836,89.653,58.438,89.125,58.415 M90.793,55.172c0.085-0.207,0.281-0.417,0.462-0.563
		c0.263-0.214,0.524-0.093,0.447,0.282c-0.047,0.221-0.236,0.46-0.422,0.619C90.98,55.765,90.603,55.629,90.793,55.172
		 M92.583,53.77c-0.316-0.027-0.72-0.301-0.567-0.655c0.092-0.211,0.323-0.463,0.552-0.417c0.343,0.069,0.512,0.222,0.516,0.567
		C93.089,53.601,92.897,53.796,92.583,53.77 M92.464,56.818c-0.185,0.021-0.309-0.203-0.372-0.379
		c-0.087-0.241,0.188-0.777,0.472-1.106c0.563-0.652,0.43-0.093,0.445,0.206C93.039,56.061,93.033,56.75,92.464,56.818
		 M92.067,51.576c-0.297-0.063-0.373-0.28-0.15-0.527c0.187-0.207,0.544,0.086,0.487,0.311
		C92.359,51.532,92.25,51.614,92.067,51.576 M90.534,51.716c-0.312-0.063-0.297-0.121-0.419-0.212
		c-0.528-0.392-1.071-0.773-1.726-0.927c-0.157-0.037-0.276-0.176-0.431-0.218c-0.693-0.188-1.417-0.416-2.032-0.783
		c-0.077-0.045-0.122-0.143-0.13-0.229c-0.075-0.764,1.202-0.019,1.396,0.091c0.639,0.36,1.324,0.646,1.955,1.018
		c0.396,0.233,0.917,0.405,1.276,0.713c0.12,0.103,0.222,0.22,0.295,0.361C90.761,51.615,90.628,51.735,90.534,51.716
		 M82.294,45.367c-0.729-0.104,0.165-0.836,0.484-0.738c0.154,0.048,0.147,0.091,0.153,0.14
		C82.968,45.097,82.581,45.408,82.294,45.367 M108.863,58.915c-0.486-0.115-0.882-0.563-1.377-0.62
		c-0.899-0.104-1.833-0.004-2.727,0.144c-0.538,0.09-0.939,0.526-1.465,0.678c-0.167,0.048-0.289-0.035-0.245-0.199
		c0.096-0.354,0.643-0.486,0.956-0.619c0.165-0.07,0.383-0.164,0.502-0.263c0.255-0.212,0.259-0.213,0.443-0.45
		c0.351-0.455,0.417-0.613,0.979-0.47c0.3,0.077,0.58,0.178,0.89,0.173c0.638-0.007,1.275-0.033,1.91-0.1
		c0.146-0.016,0.286-0.074,0.415-0.144c0.283-0.153,1.858-0.896,1.411,0.001c-0.286,0.571-0.745,1.043-1.141,1.545
		C109.216,58.84,109.148,58.982,108.863,58.915 M99.354,41.533c-0.079-0.235-0.139-0.491-0.082-0.704
		c0.093-0.346,0.385-0.411,0.653-0.195c0.108,0.087,0.26,0.194,0.26,0.344c-0.001,0.212-0.138,0.434-0.255,0.622
		C99.609,42.108,99.487,41.928,99.354,41.533 M99.706,39.173c0.01-0.09,0.037-0.187,0.075-0.277c0.046-0.108,0.11-0.192,0.179-0.249
		c0.207-0.17,0.455-0.095,0.368,0.284c-0.023,0.099-0.054,0.216-0.117,0.331C100.042,39.565,99.659,39.63,99.706,39.173
		 M90.541,87.246c-0.01-0.142,0.015-0.292-0.029-0.426c-0.058-0.172-0.161-0.326-0.267-0.47c-0.333-0.449-0.735-0.914-0.817-1.447
		c-0.037-0.242-0.06-0.523,0.106-0.763c0.248-0.356,0.645,0.113,0.91,0.551c0.159,0.263,0.316,0.513,0.349,0.627
		c0.088,0.308,0.24,0.555,0.326,0.864c0.072,0.26,0.092,0.54,0.042,0.804c-0.043,0.228-0.131,0.452-0.246,0.654
		C90.502,88.366,90.587,87.911,90.541,87.246 M109.394,117.94c-0.122-0.006-0.16-0.107-0.125-0.258
		c0.059-0.258,0.26-0.456,0.362-0.7c0.096-0.226,0.185-0.455,0.244-0.692c0.034-0.138-0.092-0.146-0.008-0.92
		c0.052-0.489,0.453-0.848,0.61-1.313c0.105-0.313,0.193-0.627,0.23-0.954c0.035-0.317,0.078-0.57,0.133-0.888
		c0.021-0.117-0.022-0.242,0.001-0.359c0.047-0.229,0.178-0.439,0.205-0.671c0.029-0.257,0.019-0.521-0.041-0.772
		c-0.053-0.226-0.324-0.465-0.277-0.691c0.093-0.442,0.266-0.712,0.102-1.14c-0.122-0.318-0.135-0.315-0.531-0.953
		c-0.299-0.481-0.329-0.573,0.095-0.936c0.206-0.176,0.434-0.323,0.648-0.488c0.59-0.453,1.199-0.916,1.644-1.51
		c0.355-0.475,0.332-0.49,0.369-0.557c0.192-0.349,0.385-1,0.806-0.953c0.416,0.046,0.166,0.536-0.011,0.859
		c-0.024,0.046-0.076,0.212-0.306,0.422c-0.434,0.398-0.486,0.339-0.677,0.562c-0.276,0.325-0.211,0.732-0.264,1.139
		c-0.05,0.373-0.415,0.242-0.729,0.344c-0.57,0.188-0.533,0.368-0.444,0.953c0.035,0.231,0.141,0.19,0.267,0.506
		c0.159,0.397,0.273,0.808,0.385,1.221c0.061,0.223,0.203,0.421,0.254,0.647c0.098,0.43,0.045,0.608,0.175,1.031
		c0.166,0.54-0.201,0.932-0.345,1.425c-0.068,0.233,0.033,0.247-0.029,0.602c-0.06,0.341-0.144,0.614-0.229,0.953
		c-0.095,0.373-0.266,0.715-0.51,1.011c-0.31,0.379-0.777,0.659-1.02,1.091c-0.031,0.056,0.043,0.064-0.014,0.501
		c-0.048,0.362-0.306,0.554-0.519,0.852C109.723,117.475,109.604,117.95,109.394,117.94 M107.593,107.689
		c-0.487-0.058-0.474-0.316-0.36-0.595c0.034-0.085,0.066-0.199,0.143-0.322c0.318-0.513,0.572-1.063,0.897-1.568
		c0.081-0.125,0.219-0.207,0.299-0.332c0.276-0.428,0.239-0.881,0.347-1.378c0.126-0.58,0.684-0.828,0.933-0.15
		c0.091,0.246,0.087,0.527,0.042,0.785c-0.064,0.36-0.126,0.694-0.289,1.02c-0.257,0.516-0.274,0.512-0.462,0.725
		c-0.248,0.283-0.591,0.49-0.798,0.803C108.125,107.009,108.028,107.741,107.593,107.689 M101.399,111.74
		c-0.183-0.146-0.35-0.324-0.524-0.483c-0.021-0.02-0.027-0.049-0.047-0.064c-0.009-0.009-0.027,0.004-0.034-0.004
		c-0.642-0.641-1.391-1.174-1.949-1.892c-0.228-0.294-0.41-0.616-0.609-0.928c-0.136-0.213-0.246-0.382-0.357-0.605
		c-0.125-0.255-0.403-0.438-0.458-0.717c-0.155-0.798,0.019-1.7-0.27-2.467c-0.141-0.372-0.291-0.67-0.396-1.06
		c-0.044-0.166-0.4-0.956-0.052-0.872c0.417,0.1,0.662,0.533,0.795,0.927c0.077,0.227,0.003,0.483,0.057,0.717
		c0.114,0.481,0.213,0.859,0.351,1.322c0.098,0.331,0.385,0.577,0.527,0.893c0.117,0.26,0.106,0.58,0.205,0.849
		c0.264,0.718,0.776,1.347,1.318,1.888c0.827,0.825,0.778,0.881,0.906,0.949c0.379,0.201,0.677-0.146,0.58-0.497
		c-0.125-0.458-0.454-0.637-0.277-1.092c0.116-0.3,0.098-0.322,0.301-0.546c0.263-0.291,0.526-0.373,0.893-0.485
		c0.211-0.065,0.395-0.201,0.606-0.272c0.212-0.072,0.209-0.078,0.315-0.097c0.715-0.129,1.423-0.463,1.691-1.162
		c0.072-0.185,0.037-0.397,0.09-0.585c0.136-0.48,0.131-0.699,0.535-1.059c0.268-0.239,0.583-0.504,0.583-0.881
		c0.002-0.747-0.229-1.599,0.079-2.306c0.08-0.183,0.175-0.361,0.297-0.52c0.294-0.382,0.579-0.852,1.061-0.942
		c0.241-0.045,0.231,0.354,0.164,0.644c-0.068,0.29-0.177,0.604-0.241,0.733c-0.309,0.625-0.77,1.337-0.837,2.049
		c-0.013,0.142-0.124,0.265-0.138,0.408c-0.046,0.449-0.104,0.845-0.192,1.291c-0.132,0.665-0.271,1.274-0.819,1.65
		c-0.288,0.197-0.353,0.04-0.632,0.154c-0.435,0.176-0.687,0.636-1.006,0.971c-0.102,0.107-0.232,0.193-0.371,0.242
		c-0.159,0.055-0.342,0.005-0.497,0.066c-0.372,0.147-0.386,0.14-0.646,0.358c-0.201,0.169-0.363,0.349-0.378,0.61
		c-0.047,0.828,0.108,1.653,0.179,2.478C102.26,112.085,101.987,112.206,101.399,111.74 M98.99,102.799
		c-0.531-0.09-0.453-0.675-0.413-1.163c0.025-0.317,0.167-0.614,0.271-0.915c0.144-0.411,0.304-0.793,0.652-1.063
		c0.316-0.244,0.692-0.321,0.798,0.106c0.145,0.582-0.617,0.921-0.744,1.465c-0.092,0.399-0.044,0.839-0.215,1.212
		C99.227,102.689,99.241,102.842,98.99,102.799 M93.006,100.514c-0.256-0.052-0.458-0.269-0.587-0.497
		c-0.078-0.137-0.173-0.294-0.135-0.45c0.081-0.324,0.332-0.38,0.537-0.317c0.205,0.062,0.455,0.239,0.533,0.481
		c0.07,0.219,0.126,0.58-0.108,0.718C93.173,100.492,93.087,100.53,93.006,100.514 M100.773,98.283
		c-0.172-0.039-0.226-0.143-0.239-0.22c-0.013-0.077-0.005-0.195,0.108-0.328c0.119-0.14,0.303-0.087,0.403,0.003
		c0.101,0.089,0.193,0.274,0.081,0.406C101.041,98.244,100.901,98.312,100.773,98.283 M102.243,97.305
		c-0.181-0.063-0.427-0.229-0.415-0.442c0.003-0.063,0.036-0.121,0.075-0.168c0.378-0.465,0.432-0.423,1.05-1.272
		c0.337-0.463,0.594-0.836,1.013-1.232c0.125-0.118,0.133-0.278,0.2-0.433c0.204-0.479,0.209-0.981,0.178-1.53
		c-0.034-0.571,0.242-1.104,0.374-1.661c0.042-0.172,0.131-0.431,0.312-0.427c0.262,0.007,0.249,0.184,0.209,0.445
		c-0.035,0.238-0.183,0.395-0.107,0.62c0.175,0.518,0.147,0.687,0.044,1.225c-0.069,0.362-0.092,0.691-0.165,1.049
		c-0.071,0.351-0.374,0.595-0.451,0.944c-0.025,0.118,0.04,0.247-0.001,0.36c-0.214,0.595-0.672,0.943-1.224,1.275
		c-0.458,0.276-0.527,0.9-0.973,1.208C102.327,97.292,102.282,97.318,102.243,97.305 M92.799,95.822
		c-0.28-0.054-0.358-0.196-0.34-0.374c0.018-0.178,0.134-0.392,0.242-0.59c0.196-0.36,0.441-0.381,0.652-0.035
		c0.13,0.213,0.083,0.53-0.064,0.751C93.173,95.747,92.999,95.86,92.799,95.822 M92.468,97.9c-0.065,0-0.129-0.054-0.158-0.11
		c-0.099-0.196-0.188-0.46-0.192-0.691c-0.004-0.232,0.078-0.43,0.324-0.492c0.313-0.079,0.429,0.108,0.469,0.406
		c0.037,0.286-0.103,0.527-0.248,0.777C92.625,97.855,92.543,97.9,92.468,97.9 M94.052,93.774c-0.554-0.084-0.472-0.431-0.229-0.77
		c0.109-0.154,0.252-0.306,0.382-0.431c0.208-0.198,0.473-0.33,0.683-0.526c0.244-0.228,0.37-0.55,0.609-0.783
		c0.205-0.198,0.279-0.143,0.372-0.349c0.232-0.517,0.284-1.025,0.733-1.385c0.51-0.409,1.155-0.649,1.659-1.063
		c0.192-0.157,0.335-0.365,0.498-0.553c0.485-0.558,0.971-0.973,1.657-1.292c0.371-0.172,0.712-0.368,1.07-0.577
		c0.109-0.063,0.223-0.128,0.311-0.218c0.202-0.207,0.224-0.202,0.362-0.507c0.154-0.341,0.218-0.648,0.451-0.944
		c0.187-0.238,0.434-0.421,0.626-0.653c0.097-0.118,0.121-0.102,0.28-0.375c0.335-0.574,0.339-0.692,0.471-0.967
		c0.129-0.27,0.242-0.534,0.376-0.798c0.042-0.083,0.087-0.188,0.174-0.215c0.205-0.062,0.306,0.223,0.298,0.395
		c-0.006,0.121-0.056,0.23-0.086,0.341c-0.051,0.186-0.064,0.372-0.106,0.569c-0.084,0.393-0.274,0.756-0.464,1.109
		c-0.03,0.058-0.701,0.575-0.729,0.693c-0.004,0.018-0.041,0.009-0.051,0.024c-0.851,1.25-0.808,1.285-1.092,1.595
		c-0.389,0.422-0.848,0.794-1.355,1.062c-1.694,0.892-2.07,0.917-3.249,2.597c-0.419,0.597-1.156,0.884-1.68,1.384
		c-0.448,0.427-0.631,1.029-0.937,1.566C94.837,93.135,94.579,93.854,94.052,93.774 M100.664,84.061
		c-0.26,0.019-0.393-0.243-0.339-0.506c0.203-0.991,0.255-0.98,0.407-1.403c0.093-0.259,0.257-0.491,0.32-0.757
		c0.118-0.5-0.216-1.062-0.323-1.557c-0.035-0.165,0.021-0.347-0.046-0.499c-0.217-0.49-0.242-0.478-0.358-0.685
		c-0.099-0.178-0.25-0.301-0.345-0.442c-0.123-0.181-0.245-0.397-0.097-0.633c0.055-0.089,0.19-0.117,0.295-0.107
		c0.142,0.013,0.252,0.129,0.365,0.215c0.405,0.308,0.644,0.799,0.801,1.272c0.122,0.368,0.224,0.666,0.315,1.044
		c0.059,0.251,0.03,0.449-0.003,0.707c-0.022,0.171-0.1,0.333-0.113,0.507c-0.019,0.25,0.064,0.509,0.021,0.759
		c-0.085,0.479-0.161,0.463-0.2,0.771C101.3,83.239,101.209,84.022,100.664,84.061 M105.97,126.626
		c-0.424-0.048-1.147,0.29-1.313-0.128c-0.229-0.573,0.593-0.365,0.998-0.546c0.589-0.263,0.638-0.957,0.768-1.571
		c0.046-0.222,0.191-0.693,0.469-0.471c0.048,0.037,0.096,0.097,0.095,0.161c-0.006,0.354-0.119,0.698-0.205,1.05
		c-0.081,0.329-0.02,0.658-0.129,0.968C106.557,126.358,106.27,126.659,105.97,126.626"/>
	<path fill-rule="evenodd" clip-rule="evenodd" fill="#C0B249" d="M93.338,165.135c1.826,0,3.573,0.478,5.166,1.341
		c1.593,0.864,3.032,2.115,4.242,3.66c1.211,1.545,2.193,3.385,2.873,5.427c0.68,2.043,1.057,4.289,1.057,6.646
		s-0.377,4.604-1.057,6.646c-0.679,2.043-1.662,3.883-2.873,5.428c-1.21,1.544-2.649,2.795-4.242,3.659
		c-1.592,0.864-3.339,1.343-5.166,1.343c-1.848,0-3.611-0.479-5.216-1.343c-1.604-0.863-3.051-2.114-4.267-3.659
		s-2.2-3.385-2.881-5.427c-0.681-2.043-1.058-4.289-1.058-6.646s0.376-4.604,1.058-6.646c0.681-2.042,1.666-3.883,2.881-5.427
		c1.216-1.546,2.663-2.796,4.267-3.66C89.727,165.611,91.49,165.135,93.338,165.135 M96.629,168.054
		c0.849,0.86,1.38,2.051,1.38,3.366v21.492c0,1.316-0.531,2.527-1.38,3.408c-0.922,0.957-2.123,1.432-3.325,1.43
		c-1.203-0.002-2.407-0.48-3.333-1.43c-0.859-0.881-1.391-2.092-1.391-3.408V171.42c0-1.316,0.531-2.506,1.391-3.366
		c0.922-0.921,2.128-1.386,3.333-1.387C94.508,166.665,95.712,167.125,96.629,168.054"/>
	<path fill-rule="evenodd" clip-rule="evenodd" fill="#C0B249" d="M149.584,165.135c1.826,0,3.573,0.478,5.165,1.341
		c1.593,0.864,3.032,2.115,4.242,3.66c1.211,1.545,2.193,3.385,2.873,5.427c0.68,2.043,1.056,4.289,1.056,6.646
		s-0.376,4.604-1.056,6.646c-0.68,2.043-1.662,3.883-2.873,5.428c-1.21,1.544-2.649,2.795-4.242,3.659
		c-1.592,0.864-3.339,1.343-5.165,1.343c-1.848,0-3.61-0.479-5.216-1.343c-1.604-0.863-3.052-2.114-4.267-3.659
		c-1.217-1.545-2.201-3.385-2.883-5.427c-0.68-2.043-1.057-4.289-1.057-6.646s0.377-4.604,1.057-6.646
		c0.682-2.042,1.666-3.883,2.883-5.427c1.215-1.546,2.663-2.796,4.267-3.66C145.974,165.611,147.736,165.135,149.584,165.135
		 M152.875,168.054c0.85,0.86,1.381,2.051,1.381,3.366v21.492c0,1.316-0.531,2.527-1.381,3.408c-0.921,0.957-2.123,1.432-3.325,1.43
		c-1.203-0.002-2.406-0.48-3.332-1.43c-0.86-0.881-1.392-2.092-1.392-3.408V171.42c0-1.316,0.531-2.506,1.392-3.366
		c0.921-0.921,2.127-1.386,3.332-1.387C150.755,166.665,151.958,167.125,152.875,168.054"/>
	<path fill-rule="evenodd" clip-rule="evenodd" fill="#C0B249" d="M109.579,165.56h13.219v1.792h-3.297v29.715h6.049
		c2.481,0,3.96-1.899,4.833-4.201c0.932-2.454,1.175-5.364,1.211-6.919h1.499v12.912h-23.514v-1.792h3.296v-29.715h-3.296V165.56z"
		/>
	<path fill-rule="evenodd" clip-rule="evenodd" fill="#C0B249" d="M52.969,197.066h3.297v-29.715h-3.297v-1.792h15.493
		c1.329,0,2.673,0.264,3.908,0.782c1.094,0.46,2.082,1.106,2.911,1.898c0.416,0.396,0.792,0.828,1.123,1.291
		c0.331,0.463,0.615,0.957,0.848,1.478c0.96,2.141,0.97,4.583,0,6.722c-0.466,1.027-1.14,1.956-1.971,2.742
		c-0.83,0.786-1.817,1.431-2.911,1.888c-1.236,0.519-2.582,0.782-3.908,0.782h-5.57v13.924h3.296v1.792H52.969V197.066z
		 M70.373,171.984c-0.168-0.812-0.438-1.597-0.83-2.283c-0.392-0.687-0.906-1.274-1.562-1.689c-0.657-0.416-1.456-0.66-2.417-0.66
		h-2.671v13.999h2.671c0.913,0,1.68-0.246,2.319-0.661c0.638-0.414,1.148-0.999,1.545-1.678c0.396-0.678,0.681-1.45,0.87-2.239
		c0.186-0.777,0.286-1.583,0.299-2.39C70.609,173.576,70.535,172.769,70.373,171.984"/>
</g>

</svg>
