<?xml version="1.0" encoding="utf-8"?>
<!DOCTYPE svg PUBLIC "-//W3C//DTD SVG 1.1//EN" "http://www.w3.org/Graphics/SVG/1.1/DTD/svg11.dtd">
<svg version="1.1" id="Layer_1" xmlns="http://www.w3.org/2000/svg" xmlns:xlink="http://www.w3.org/1999/xlink" x="0px" y="0px"	 width="216px" height="216px" viewBox="0 0 216 216" enable-background="new 0 0 216 216" xml:space="preserve">
<g>
	<path stroke="#000000" stroke-width="0.089" stroke-miterlimit="2.613" d="M108.065,216.546L3.742,159.827V0.55l208.589-0.004
		v159.313L108.065,216.546z"/>
	<path fill="#FFFFFF" stroke="#FFFFFF" stroke-width="0.089" stroke-miterlimit="2.613" d="M108.1,209.329l-97.91-53.736L10.2,7.18
		L205.86,7.242v148.39L108.1,209.329z"/>
	<path fill="#CC2132" d="M19.754,150.061l88.337,48.438l88.187-48.411v-42.934l-176.551,0.004L19.754,150.061z"/>
	<path fill="#278B5F" d="M196.278,102.518V16.761L19.736,16.766l-0.004,85.752H196.278z"/>
	<path fill="#FFFFFF" d="M83.583,168.94v6.18l-17.64-9.678v-50.277h17.645v5.513H71.166l0.013,13.415l12.417,2.735l-0.004,5.452
		l-12.413-2.687l0.004,22.973L83.583,168.94L83.583,168.94z M160.61,115.16l21.856-0.005c1.619-0.11,2.533,0.724,2.749,1.911v12.84
		c0.017,1.963-0.233,2.7-2.052,3.163l-5.765,1.278l11.146,10.42l-4.86,2.616l-12.656-11.725l-5.051,1.093v20.173l-5.377,2.907
		V115.16H160.61L160.61,115.16z M36.141,131.967v17.468l-5.275-2.858l-0.004-31.411h5.28v11.305l14.138,3.03v-14.335h5.254
		l0.004,44.64l-5.258-2.836v-21.924L36.141,131.967z M132.586,175.112v-59.947h17.686v5.509h-12.404v16.384l12.43-2.568v5.487
		l-12.43,2.758v23.454l12.421-6.088v5.351L132.586,175.112L132.586,175.112z M94.046,180.568v-65.403h6.348v61.2l7.702,3.885
		l7.68-3.665l-0.009-61.42h6.353v65.407l-14.028,7.592L94.046,180.568L94.046,180.568z"/>
	<path fill="#CC2132" d="M165.971,131.19v-10.45h13.369c0.415-0.04,0.64,0.313,0.64,0.67l-0.009,6.405
		c0,0.445-0.242,0.543-0.596,0.565L165.971,131.19L165.971,131.19z"/>
	<path fill="none" stroke="#000000" stroke-width="0.847" stroke-miterlimit="2.613" d="M89.723,73.108l13.6-0.009l0.697-1.146
		c1.826,6.841,6.131,13.868,13.317,19.074l0.009,3.542h-14.022V85.27h-21.95l-6.427,9.179H57.394l2.012-3.198V42.213H46.569V29.099
		h42.316v13.115H74.739v27.212l28.006-40.327h14.601v4.173l-0.652,0.984c-5.961,4.547-10.339,10.856-12.51,18.033L89.723,73.108
		L89.723,73.108z"/>
	<path fill="#FFFFFF" d="M89.723,73.108l13.6-0.009l0.697-1.146c1.826,6.841,6.131,13.868,13.317,19.074l0.009,3.542h-14.022V85.27
		h-21.95l-6.427,9.179H57.394l2.012-3.198V42.213H46.569V29.099h42.316v13.115H74.739v27.212l28.006-40.327h14.601v4.173
		l-0.652,0.984c-5.961,4.547-10.339,10.856-12.51,18.033L89.723,73.108L89.723,73.108z"/>
	<path fill="none" stroke="#000000" stroke-width="0.847" stroke-miterlimit="2.613" d="M136.402,53.797v5.677h35.144
		c0.07,0.917,0.109,1.994,0.109,2.934c-0.368,18.582-15.73,33.347-34.313,32.979c-18.063-0.359-32.619-14.916-32.978-32.979
		c0-18.589,14.755-33.631,33.34-33.631v-6.515L155.6,34.97l-17.896,14.354v-6.877c-11.147,0-19.877,8.809-19.877,19.956
		c0,11.147,9.038,20.19,20.176,20.19c7.875,0,14.698-4.799,18.024-11.381l-19.625-0.026v5.787l-14.085-11.583L136.402,53.797
		L136.402,53.797z"/>
	<path fill="#FFFFFF" d="M136.402,53.797v5.677h35.144c0.07,0.917,0.109,1.994,0.109,2.934
		c-0.368,18.582-15.73,33.347-34.313,32.979c-18.063-0.359-32.619-14.916-32.978-32.979c0-18.589,14.755-33.631,33.34-33.631v-6.515
		L155.6,34.97l-17.896,14.354v-6.877c-11.147,0-19.877,8.809-19.877,19.956c0,11.147,9.038,20.19,20.176,20.19
		c7.875,0,14.698-4.799,18.024-11.381l-19.625-0.026v5.787l-14.085-11.583L136.402,53.797L136.402,53.797z"/>
</g>

</svg>
