<?xml version="1.0" encoding="utf-8"?>
<!DOCTYPE svg PUBLIC "-//W3C//DTD SVG 1.1//EN" "http://www.w3.org/Graphics/SVG/1.1/DTD/svg11.dtd">
<svg version="1.1" id="Layer_1" xmlns="http://www.w3.org/2000/svg" xmlns:xlink="http://www.w3.org/1999/xlink" x="0px" y="0px" width="216px" height="216px" viewBox="0 0 216 216" enable-background="new 0 0 216 216" xml:space="preserve">
<g>
	<path fill-rule="evenodd" clip-rule="evenodd" fill="#FFFFFF" d="M35.689,75.852h150.539c17.025,0,28.772,15.559,28.772,31.696
		c0,13.984-15.025,27.799-28.772,27.799H2l0.112-32.136C2.185,82.509,17.219,75.722,35.689,75.852z"/>
	<path fill-rule="evenodd" clip-rule="evenodd" fill="#FE680A" d="M3.489,133.862h182.738c12.801,0,27.289-13.036,27.289-26.314
		c0-15.046-10.868-30.212-27.289-30.212H35.684c-17.23-0.123-32.017,5.771-32.087,25.88L3.489,133.862L3.489,133.862z
		 M115.568,97.802c0-2.701,0.679-4.385,3.412-4.385h9.746c5.747,0,10.232,3.1,10.232,8.771c0,4.979-4.997,8.284-10.232,8.284h-7.797
		v6.335c0,1.123-0.34,1.462-1.463,1.462h-2.436c-1.123,0-1.463-0.339-1.463-1.462V97.802L115.568,97.802z M58.067,116.319V93.417
		h4.873v16.567l14.003-14.357c1.444-1.481,2.975-2.21,4.027-2.21c0.697,0,2.436,1.17,2.436,2.437v22.415h-2.829
		c-1.433,0-2.189-3.019-2.152-6.484l0.108-10.084l-15.307,15.159c-1.188,1.176-2.031,1.896-2.236,1.896
		C59.749,118.756,58.067,117.702,58.067,116.319L58.067,116.319z M25.418,115.832V93.417h4.873v20.466h14.132V94.878
		c0-1.122,0.339-1.461,1.462-1.461h2.437c1.123,0,1.462,0.339,1.462,1.461v19.005h1.949c1.575,0,2.437,1.77,2.437,3.411v2.924
		c0,1.123-0.829,1.462-1.952,1.462h-2.921v-3.411H28.829C27.187,118.269,25.418,117.407,25.418,115.832L25.418,115.832z
		 M164.786,104.137c0-5.951,5.892-11.208,12.183-11.208h0.975c4.211,0,6.279,1.743,8.771,3.411l-3.404,3.419
		c-1.711-1.146-3.559-1.829-5.324-2.027c-0.746-0.084-1.478-0.081-2.178,0.009c-3.448,0.441-6.149,3.005-6.149,7.858v0.487
		c0,3.782,2.775,7.797,6.335,7.797h2.924c2.671,0,4.27-2.269,5.36-3.898l3.858,2.975c-1.91,2.862-4.928,5.797-9.706,5.797h-1.949
		c-5.786,0-11.695-5.485-11.695-11.208V104.137L164.786,104.137z M151.093,111.476l-10.554-17.841l5.729-0.218l7.09,12.512
		l0.707,0.157l6.823-12.669h4.878l-8.818,17.014c-1.393,2.79-2.877,5.426-5.341,6.934c-1.619,0.992-8.75,2.588-8.75-0.558v-3.411
		c0.695,0.285,1.121,0.487,2.437,0.487h1.949C149.408,113.883,150.278,112.736,151.093,111.476L151.093,111.476z M87.305,97.802
		v-4.385h23.39c1.123,0,1.463,0.339,1.463,1.461v2.924h-10.234v20.467h-3.411c-1.123,0-1.461-0.339-1.461-1.462V97.802H87.305
		L87.305,97.802z M120.93,106.086v-8.284h5.962c4.151,0,6.882,0.897,6.889,3.898c0.009,3.731-1.954,4.386-7.496,4.386H120.93z"/>
</g>
</svg>
