<?xml version="1.0" encoding="utf-8"?>
<!DOCTYPE svg PUBLIC "-//W3C//DTD SVG 1.1//EN" "http://www.w3.org/Graphics/SVG/1.1/DTD/svg11.dtd">
<svg version="1.1" id="Layer_1" xmlns="http://www.w3.org/2000/svg" xmlns:xlink="http://www.w3.org/1999/xlink" x="0px" y="0px" width="216px" height="216px" viewBox="0 0 216 216" enable-background="new 0 0 216 216" xml:space="preserve">
<g>
	<path fill="#FFFFFF" d="M166.481,58.973c-1.796,1.797-1.796,4.493,0,5.842c1.797,1.797,4.492,1.797,5.839,0
		c1.8-1.8,1.8-4.494,0-5.842C170.523,57.18,167.829,57.18,166.481,58.973"/>
	<path fill="#069860" d="M207.812,56.278h-17.973l-4.489,5.392c-0.899,0.902-0.45,1.352,0.447,1.797l5.844,2.696l16.621-7.636
		C209.608,58.078,209.158,56.278,207.812,56.278 M140.875,144.327h-22.014c-5.839,3.598-7.635,4.497-15.273,7.645
		c-0.45,0-0.898,0.895-0.45,1.35l19.765,55.258h11.231l-17.969-50.769c11.682,0,39.982-3.141,55.26-27.856
		C166.481,137.145,155.248,144.327,140.875,144.327 M172.32,64.814c-1.797,1.795-4.491,1.795-5.839,0
		c-1.796-1.8-1.796-4.496,0-5.842c1.798-1.797,4.492-1.797,5.839,0c-3.597-3.592-9.436-3.592-12.579,0
		c-3.141,3.596-3.593,8.985,0,12.579c3.597,3.597,9.438,3.597,12.579,0c3.144-3.596,3.597-8.982,0-12.579
		C173.668,60.77,173.668,63.015,172.32,64.814 M128.742,165.448l15.273,43.127h11.232l-16.173-45.379
		C136.381,164.099,132.784,164.546,128.742,165.448 M144.02,111.536c1.348-1.794,2.245-3.599,3.596-5.842
		c-0.449-0.449-0.898,0-1.348,0.45c-22.912,24.259-44.925,27.404-61.999,27.404H58.214c-0.899,0-1.349-0.895-0.899-1.794
		c20.217-27.854,42.23-49.868,58.851-63.797l-43.578,36.389c-3.596,2.694-7.637,4.494-13.027,4.494H4.747
		c-1.346,0-0.897,1.349-0.897,2.245c3.597,11.68,14.377,22.463,32.346,22.463l-13.027,13.029c-0.45,0.449-0.45,1.791,0.898,1.791
		h48.967C108.08,148.377,130.09,133.102,144.02,111.536"/>
	<path fill="#DB1F26" d="M159.74,71.556c-3.594-3.597-3.594-8.987,0-12.58c3.597-3.6,9.434-3.6,12.574,0
		c3.145,3.593,3.597,8.983,0,12.58C168.72,75.152,162.887,75.149,159.74,71.556 M170.974,129.954
		c15.277-24.707,20.67-63.797,20.67-63.797l-5.846-2.694c-0.895-0.45-0.895-0.899-0.445-1.794l4.491-5.396
		c-2.69-5.386-12.575-14.375-26.953-14.375c-8.538,0-16.173,2.249-22.912,6.742c0,0-9.885,6.734-23.811,18.868
		c-16.621,14.375-38.636,35.933-58.853,63.793c-0.448,0.899,0,1.795,0.902,1.795h26.055c17.071,0,39.085-3.147,61.997-27.404
		c0.452-0.449,0.899-0.449,1.352-0.449c0.447,0.449,0.447,0.896,0.447,1.349c-3.596,8.985-12.578,26.511-29.202,37.289h22.015
		C155.694,143.88,166.482,137.145,170.974,129.954 M148.511,159.607l17.067,48.52h48.525c-9.883-30.101-20.666-57.956-31-83.564
		C175.02,142.089,167.382,150.621,148.511,159.607 M1.158,208.579h48.969l16.621-51.663H19.127
		C13.286,172.184,7.446,189.258,1.158,208.579 M67.196,97.611l24.706-20.22c5.395-14.378,10.789-28.748,16.178-40.883
		c2.692,6.291,5.39,13.028,8.084,19.765c13.48-11.225,22.014-17.965,33.246-21.11c-6.741-14.827-11.682-25.609-13.933-30.098H80.673
		c-4.493,9.886-22.016,46.274-42.679,95.238h19.768C61.8,100.303,64.951,99.854,67.196,97.611"/>
</g>
</svg>
