<?xml version="1.0" encoding="utf-8"?>
<!DOCTYPE svg PUBLIC "-//W3C//DTD SVG 1.1//EN" "http://www.w3.org/Graphics/SVG/1.1/DTD/svg11.dtd">
<svg version="1.1" id="Слой_1" xmlns="http://www.w3.org/2000/svg" xmlns:xlink="http://www.w3.org/1999/xlink" x="0px" y="0px" width="216px" height="216px" viewBox="0 0 216 216" enable-background="new 0 0 216 216" xml:space="preserve">
<rect fill="#FFFFFF" width="216" height="214.5"/>
<g>
	<path d="M16.86,129.054h5.035v0.779h-4.116v5.634H16.86V129.054z"/>
	<path d="M24.664,135.467v-6.413h2.754c2.364,0,2.899,1.039,2.899,2.017c0,0.977-0.748,2.031-2.91,2.031h-1.824v2.365H24.664z
		 M25.583,129.833v2.499h1.804c1.387,0,1.979-0.52,1.979-1.273c0-0.753-0.52-1.226-1.907-1.226H25.583z"/>
	<path d="M34.567,134.594c0.094,0.07,0.21,0.107,0.327,0.104c0.302,0,0.566-0.313,0.837-0.826l-3.429-4.817h1.102l2.805,3.964
		l2.079-3.964h0.956L36.594,134c-0.493,0.941-0.966,1.467-1.735,1.467c-0.271,0-0.535-0.092-0.748-0.26L34.567,134.594z"/>
	<path d="M41.358,134.234l0.686-0.457c0.626,0.693,1.536,1.063,2.468,0.998c1.102,0,1.881-0.494,1.881-1.201
		c0-0.604-0.696-0.998-1.808-0.998h-1.248v-0.773h1.185c0.889,0,1.616-0.422,1.616-1.038c0-0.734-0.848-1.041-1.788-1.041
		c-0.811-0.027-1.589,0.318-2.115,0.936l-0.696-0.445c0.718-0.846,1.793-1.305,2.9-1.238c1.465,0,2.597,0.645,2.597,1.799
		c-0.052,0.634-0.483,1.171-1.09,1.36c0.738,0.102,1.302,0.711,1.345,1.455c0,1.248-1.242,1.98-2.8,1.98
		C42.933,135.57,41.894,135.023,41.358,134.234z"/>
	<path d="M50.529,135.467v-6.413h0.92v4.962l4.286-4.962h0.79v6.413h-0.92v-4.968l-4.302,4.968H50.529z"/>
	<path d="M65.187,132.613h-4.214v2.869h-0.945v-6.429h0.925v2.765h4.214v-2.765h0.92v6.413h-0.92L65.187,132.613z"/>
	<path d="M75.641,134.422c-0.709,0.756-1.713,1.166-2.749,1.121c-2.235,0-3.637-1.287-3.637-3.283c0-1.839,1.386-3.288,3.58-3.288
		c1.014-0.061,2.006,0.318,2.723,1.039l-0.598,0.52c-0.568-0.533-1.326-0.818-2.105-0.791c-1.646,0-2.639,1.041-2.639,2.495
		c0,1.455,1.101,2.488,2.749,2.488c0.811,0.027,1.596-0.285,2.167-0.863L75.641,134.422z"/>
	<path d="M79.522,131.434h1.849c1.913,0,2.853,0.717,2.853,1.959c0,1.367-1.092,2.078-2.941,2.078h-2.681v-6.417h0.92V131.434z
		 M79.522,132.213v2.479h1.808c1.257,0,1.954-0.42,1.954-1.293c0-0.785-0.686-1.18-1.922-1.18L79.522,132.213z"/>
	<path d="M87.253,129.054h0.925v3.118l3.574-3.118h1.206l-3.315,2.905l3.58,3.508h-1.216l-3.055-2.963l-0.752,0.66v2.303h-0.946
		V129.054z"/>
	<path d="M98.154,129.034h0.728l3.118,6.433h-0.961l-0.79-1.623h-3.471l-0.774,1.623h-0.94L98.154,129.034z M97.115,133.111h2.78
		l-1.419-2.913L97.115,133.111z"/>
	<path d="M109.819,129.054h5.039v0.779h-4.12v5.634h-0.919V129.054z"/>
	<path d="M120.455,128.976c1.996,0,3.589,1.373,3.589,3.29c0,1.916-1.593,3.283-3.589,3.283s-3.597-1.371-3.597-3.283
		C116.858,130.353,118.434,128.976,120.455,128.976z M120.455,134.754c1.375,0.074,2.551-0.98,2.625-2.355
		c0.004-0.045,0.004-0.09,0.004-0.133c0.084-1.456-1.027-2.702-2.484-2.786s-2.703,1.029-2.785,2.483
		c-0.084,1.457,1.027,2.703,2.484,2.787C120.35,134.752,120.402,134.754,120.455,134.754z"/>
	<path d="M133.195,134.422c-0.709,0.756-1.713,1.166-2.75,1.121c-2.233,0-3.636-1.287-3.636-3.283c0-1.839,1.387-3.288,3.579-3.288
		c1.016-0.061,2.006,0.318,2.725,1.039l-0.598,0.52c-0.57-0.533-1.328-0.818-2.105-0.791c-1.647,0-2.64,1.041-2.64,2.495
		c0,1.455,1.102,2.488,2.749,2.488c0.811,0.029,1.598-0.285,2.168-0.863L133.195,134.422z"/>
	<path d="M135.441,129.054h5.843v0.779h-2.467v5.634h-0.92v-5.634h-2.456V129.054z"/>
	<path d="M144.07,135.467v-6.413h0.924v4.962l4.288-4.962h0.789v6.413h-0.926v-4.968l-4.296,4.968H144.07z"/>
	<path d="M158.75,132.613h-4.221v2.869h-0.92v-6.429h0.92v2.765h4.221v-2.765h0.917v6.413h-0.917V132.613z"/>
	<path d="M168.309,132.613h-4.22v2.869h-0.918v-6.429h0.918v2.765h4.22v-2.765h0.92v6.413h-0.92V132.613z"/>
	<path d="M172.747,129.054h0.918v6.413h-0.918V129.054z"/>
	<path d="M183.199,134.422c-0.711,0.756-1.715,1.166-2.754,1.121c-2.234,0-3.636-1.287-3.636-3.283c0-1.839,1.382-3.288,3.579-3.288
		c1.014-0.063,2.006,0.316,2.719,1.039l-0.598,0.52c-0.561-0.527-1.309-0.813-2.08-0.791c-1.652,0-2.639,1.041-2.639,2.495
		c0,1.455,1.102,2.488,2.748,2.488c0.813,0.027,1.598-0.285,2.168-0.863L183.199,134.422z"/>
	<path d="M185.44,129.054h5.843v0.779h-2.466v5.634h-0.92v-5.634h-2.457V129.054z"/>
	<path d="M194.994,131.434h1.851c1.912,0,2.852,0.717,2.852,1.959c0,1.367-1.09,2.078-2.941,2.078h-2.675v-6.417H195
		L194.994,131.434z M194.994,132.213v2.479h1.792c1.254,0,1.949-0.42,1.949-1.293c0-0.785-0.686-1.18-1.922-1.18L194.994,132.213z"
		/>
	<path d="M28.717,86.203h-6.1v18.187c0.068,0.849-0.211,1.691-0.774,2.333c-0.537,0.514-1.259,0.787-2.001,0.758
		c-0.751,0.029-1.483-0.248-2.026-0.77c-0.566-0.635-0.848-1.475-0.78-2.322V86.203h-6.12c-0.754,0.059-1.506-0.143-2.13-0.57
		c-0.465-0.363-0.731-0.924-0.717-1.514c-0.032-0.605,0.238-1.189,0.722-1.558c0.613-0.41,1.343-0.609,2.079-0.566H28.67
		c0.765-0.057,1.524,0.148,2.156,0.582c0.463,0.367,0.725,0.932,0.707,1.523c0.017,0.59-0.25,1.152-0.716,1.512
		C30.2,86.033,29.463,86.242,28.717,86.203z"/>
	<path d="M54.426,107.055h-8.427c-1.222,0-2.079-0.25-2.598-0.744c-0.574-0.648-0.856-1.505-0.779-2.369V85.129
		c0-1.105,0.267-1.9,0.801-2.386c0.533-0.484,1.399-0.727,2.597-0.727h8.917c1.147-0.01,2.292,0.064,3.429,0.223
		c0.91,0.131,1.79,0.422,2.598,0.857c0.65,0.346,1.237,0.799,1.735,1.341c0.49,0.521,0.88,1.129,1.148,1.793
		c0.266,0.66,0.399,1.365,0.396,2.078c0,2.503-1.386,4.337-4.158,5.497c3.634,1.039,5.451,3.078,5.451,6.116
		c0.014,1.355-0.402,2.679-1.19,3.783c-0.799,1.127-1.915,1.992-3.206,2.482c-0.938,0.342-1.913,0.568-2.905,0.676
		C56.97,107,55.698,107.065,54.426,107.055z M48.186,85.85v6.476h5.129c1.089,0.037,2.178-0.084,3.232-0.359
		c0.732-0.221,1.356-0.707,1.746-1.367c0.311-0.477,0.473-1.035,0.466-1.605c0-1.264-0.495-2.103-1.486-2.519
		c-0.99-0.416-2.497-0.625-4.52-0.625H48.186z M54.011,95.961h-5.825v7.311h6.012c3.783,0,5.674-1.236,5.674-3.705
		c0.078-1.125-0.493-2.193-1.47-2.753c-0.977-0.582-2.44-0.875-4.39-0.878V95.961z"/>
	<path d="M78.343,104.39V84.645c-0.065-0.841,0.214-1.673,0.774-2.306c0.533-0.52,1.256-0.797,2-0.77
		c0.757-0.033,1.494,0.242,2.042,0.764c0.569,0.637,0.848,1.482,0.769,2.333v19.745c0.067,0.847-0.217,1.687-0.784,2.322
		c-0.546,0.523-1.285,0.803-2.042,0.77c-0.743,0.025-1.462-0.258-1.991-0.779C78.547,106.083,78.269,105.239,78.343,104.39z"/>
	<path d="M103.413,84.666v18.222h11.352c0.742-0.049,1.477,0.162,2.08,0.598c0.825,0.67,0.954,1.882,0.287,2.71
		c-0.086,0.105-0.182,0.201-0.287,0.287c-0.611,0.416-1.342,0.617-2.08,0.572h-13.509c-1.218,0-2.095-0.246-2.628-0.738
		c-0.534-0.492-0.803-1.283-0.806-2.375V84.666c-0.063-0.839,0.211-1.671,0.764-2.308c0.536-0.521,1.264-0.799,2.011-0.768
		c0.754-0.029,1.488,0.246,2.037,0.764C103.196,82.987,103.478,83.821,103.413,84.666z"/>
	<path d="M129.2,104.39V84.645c-0.066-0.841,0.214-1.673,0.772-2.306c0.533-0.52,1.254-0.797,1.996-0.77
		c0.758-0.033,1.496,0.242,2.047,0.764c0.57,0.629,0.855,1.467,0.785,2.312v19.745c0.066,0.849-0.217,1.687-0.785,2.322
		c-0.547,0.525-1.289,0.803-2.047,0.77c-0.74,0.025-1.459-0.258-1.984-0.779C129.418,106.069,129.138,105.235,129.2,104.39z"/>
	<path d="M169.783,99.541c0.016,1.463-0.434,2.892-1.287,4.08c-0.967,1.285-2.279,2.269-3.782,2.837
		c-1.883,0.727-3.887,1.08-5.901,1.039c-2.727,0-4.98-0.467-6.757-1.402c-1.219-0.639-2.27-1.56-3.061-2.687
		c-0.725-0.941-1.135-2.085-1.178-3.273c0-0.598,0.258-1.166,0.705-1.558c0.49-0.445,1.137-0.68,1.799-0.656
		c0.547-0.012,1.078,0.174,1.5,0.52c0.461,0.422,0.816,0.941,1.041,1.523c0.303,0.707,0.685,1.377,1.142,1.996
		c0.459,0.574,1.051,1.029,1.727,1.324c0.924,0.383,1.92,0.559,2.92,0.52c1.423,0.068,2.833-0.293,4.048-1.039
		c0.934-0.539,1.523-1.521,1.559-2.597c0.027-0.766-0.277-1.503-0.836-2.027c-0.627-0.553-1.369-0.959-2.174-1.186
		c-0.883-0.277-2.067-0.568-3.552-0.873c-1.707-0.338-3.375-0.83-4.989-1.475c-1.238-0.492-2.334-1.285-3.186-2.308
		c-0.809-1.035-1.227-2.324-1.18-3.636c-0.016-1.332,0.424-2.626,1.246-3.673c0.941-1.15,2.191-2.005,3.602-2.468
		c1.784-0.633,3.667-0.947,5.562-0.93c1.485-0.027,2.968,0.164,4.399,0.57c1.111,0.32,2.154,0.836,3.081,1.523
		c0.73,0.531,1.342,1.208,1.791,1.99c0.359,0.619,0.555,1.318,0.568,2.031c-0.006,0.617-0.26,1.207-0.707,1.633
		c-0.459,0.477-1.1,0.738-1.762,0.723c-0.525,0.037-1.044-0.115-1.466-0.432c-0.43-0.42-0.793-0.902-1.08-1.43
		c-0.432-0.861-1.053-1.617-1.814-2.208c-0.691-0.529-1.824-0.795-3.392-0.795c-1.225-0.057-2.439,0.242-3.498,0.863
		c-0.781,0.406-1.289,1.197-1.328,2.078c-0.012,0.475,0.148,0.936,0.451,1.299c0.346,0.398,0.771,0.718,1.248,0.941
		c0.512,0.256,1.047,0.461,1.6,0.613c0.541,0.145,1.436,0.361,2.682,0.648c1.558,0.328,2.966,0.697,4.229,1.092
		c1.133,0.342,2.218,0.832,3.226,1.455c0.857,0.539,1.57,1.279,2.078,2.156C169.572,97.326,169.822,98.43,169.783,99.541z"/>
	<path d="M194.424,81.59c2.546-0.074,5.077,0.459,7.377,1.559c1.984,0.98,3.619,2.548,4.676,4.493
		c1.102,2.109,1.644,4.462,1.585,6.839c0.023,1.796-0.269,3.583-0.866,5.278c-0.555,1.545-1.443,2.949-2.598,4.115
		c-1.207,1.191-2.664,2.099-4.261,2.662c-3.766,1.25-7.833,1.25-11.598,0c-1.607-0.566-3.068-1.476-4.283-2.671
		c-1.159-1.176-2.048-2.595-2.597-4.156c-0.594-1.683-0.893-3.458-0.879-5.243c-0.02-1.804,0.291-3.597,0.916-5.29
		c0.572-1.543,1.479-2.943,2.649-4.099c1.203-1.16,2.645-2.046,4.225-2.597C190.588,81.858,192.502,81.557,194.424,81.59z
		 M202.395,94.465c0.039-1.642-0.297-3.273-0.983-4.765c-0.594-1.281-1.572-2.346-2.801-3.044c-2.246-1.195-4.896-1.363-7.272-0.463
		c-0.932,0.365-1.769,0.934-2.452,1.662c-0.73,0.809-1.285,1.762-1.621,2.796c-0.41,1.229-0.611,2.519-0.594,3.814
		c-0.018,1.311,0.184,2.615,0.594,3.861c0.344,1.064,0.916,2.042,1.676,2.863c0.701,0.736,1.55,1.316,2.489,1.699
		c2.291,0.867,4.841,0.717,7.015-0.41c1.24-0.689,2.24-1.738,2.869-3.009C202.074,97.914,202.445,96.195,202.395,94.465z"/>
</g>

</svg>
