<?xml version="1.0" encoding="utf-8"?>
<!DOCTYPE svg PUBLIC "-//W3C//DTD SVG 1.1//EN" "http://www.w3.org/Graphics/SVG/1.1/DTD/svg11.dtd">
<svg version="1.1" id="Layer_1" xmlns="http://www.w3.org/2000/svg" xmlns:xlink="http://www.w3.org/1999/xlink" x="0px" y="0px" width="216px" height="216px" viewBox="0 0 216 216" enable-background="new 0 0 216 216" xml:space="preserve">
<g>
	<path fill="#20225A" d="M108.252,153.051h-4.424v-5.421h4.424c-0.663-9.95,1.769-14.152,12.497-12.273l-0.22,5.528
		c-6.084-1.549-5.531,1.993-5.42,6.638h4.976v5.417h-4.976v16.477h-6.746v-16.365 M66.893,147.63h6.525v2.988h0.111
		c2.543-4.756,11.058-4.756,13.16,0.442c1.879-3.983,6.967-4.756,10.726-3.208c6.525,3.208,3.317,16.035,4.091,21.675h-6.855V156.7
		c0-1.99-0.663-3.761-2.987-3.761c-2.874-0.22-4.201,2.323-4.091,4.867v11.609h-6.856v-11.609c0.11-1.99-0.221-5.087-2.986-4.867
		c-3.206-0.22-4.201,2.877-4.091,5.64v10.948h-6.746V147.63 M63.022,153.823c-6.746-13.381-28.42-5.417-22.449,9.512
		C47.21,176.715,68.995,168.752,63.022,153.823 M55.725,162.56c-5.751,4.866-12.497-2.21-7.963-8.072
		C53.513,149.623,60.258,156.7,55.725,162.56L55.725,162.56z"/>
	<path fill="#20225A" d="M30.178,162.893c-8.404,4.092-15.259-5.751-12.163-13.491c1.658-5.64,9.51-8.295,13.934-4.314l5.972-3.869
		c-4.093-5.086-11.944-5.42-17.583-3.43c-6.525,2.324-10.506,8.628-10.395,15.593c-0.111,6.969,3.759,13.272,10.395,15.594
		c6.082,2.323,14.376,1.437,18.357-4.314l-6.193-3.979C31.949,161.675,31.175,162.451,30.178,162.893 M182.677,152.939h-5.974
		c0,1.218-0.108,7.852,0.111,8.958c0.111,2.763,3.983,2.874,5.862,1.768v5.64c-3.98,1.218-9.954,1.329-12.166-2.874
		c-1.215-1.879-0.439-11.279-0.661-13.491h-4.314v-5.417h4.314v-6.526h6.745v6.526h5.974L182.677,152.939 M148.728,147.63h6.746
		v3.542h0.111c1.325-3.097,4.753-4.756,8.071-3.872v5.97c-11.279-2.32-7.521,9.512-8.183,16.258h-6.746V147.63 M144.525,153.823
		c-6.746-13.381-28.421-5.417-22.45,9.512C128.713,176.715,150.498,168.752,144.525,153.823 M137.226,162.56
		c-5.75,4.866-12.604-2.21-7.963-8.072C135.125,149.623,141.87,156.7,137.226,162.56L137.226,162.56z"/>
	<path fill="#FAC914" d="M130.149,59.717c-0.111,0.108-0.331,0.108-0.442,0.219c-0.11,0-0.333,0-0.444,0s-0.331,0-0.439-0.111
		c-0.11-0.108-0.222-0.108-0.444-0.219c-0.884-0.775-1.879-1.548-2.985-2.212c-0.995-0.665-2.102-1.326-3.208-1.879
		c-1.105-0.553-2.212-1.106-3.427-1.548c-1.106-0.445-2.32-0.775-3.538-1.106c-12.055-3.319-25.768,3.869-28.532,16.366
		c2.543-0.111,4.975,0.111,7.409,0.776c4.866,0.995,9.4,3.869,13.713,7.188c0.221,0,0.332,0,0.553,0
		c0.221,0,0.333-0.111,0.553-0.222L130.149,59.717"/>
	<path fill="#F17B23" d="M107.699,125.072c-21.675,10.395-47.994-12.828-45.451-35.386c0.332-4.979,2.212-9.842,5.198-13.826
		c3.208-4.533,20.791-17.361,24.993-21.232c-25.546,22.669,6.303,66.905,36.273,53.303L107.699,125.072"/>
	<path fill="#F5A127" d="M130.038,57.394c-25.324-21.452-57.283,1.437-43.57,31.958c6.856,15.371,26.099,25.989,42.022,18.801
		c1.548-0.775,0.111-3.43-1.438-2.654c-19.684,8.958-43.129-11.833-40.917-32.181c0.884-14.707,15.15-24.329,29.196-20.568
		c1.214,0.331,2.429,0.664,3.535,1.106c1.218,0.442,2.324,0.884,3.43,1.548c1.106,0.553,2.213,1.217,3.319,1.879
		c0.995,0.664,1.99,1.437,2.985,2.212c0.55,0.553,1.437,0.553,1.879,0c0.553-0.553,0.553-1.437,0-1.879
		C130.258,57.504,130.149,57.394,130.038,57.394"/>
	<g enable-background="new    ">
		<path fill="#20225A" d="M189.713,149.992v-7.794h-2.784v-1.587h7.455v1.587h-2.777v7.794H189.713z"/>
	</g>
	<g enable-background="new    ">
		<path fill="#20225A" d="M195.58,149.992v-9.381h2.835l1.702,6.399l1.683-6.399h2.841v9.381h-1.76v-7.384l-1.862,7.384h-1.823
			l-1.855-7.384v7.384H195.58z"/>
	</g>
	<rect x="1.095" y="41.689" fill="none" width="213.432" height="136.021"/>
</g>
</svg>
