<?xml version="1.0" encoding="utf-8"?>
<!DOCTYPE svg PUBLIC "-//W3C//DTD SVG 1.1//EN" "http://www.w3.org/Graphics/SVG/1.1/DTD/svg11.dtd">
<svg version="1.1" id="_x23_Layer_1" xmlns="http://www.w3.org/2000/svg" xmlns:xlink="http://www.w3.org/1999/xlink" x="0px" y="0px" width="216px" height="216px" viewBox="0 0 216 216" enable-background="new 0 0 216 216" xml:space="preserve">
<rect width="216" height="216"/>
<path fill="#FFFFFF" d="M122.121,103.128l0.658,0.219l0.329-0.659l0.22,0.659l0.77-0.219l-0.329,0.658l0.658,0.329l-0.658,0.22
	l0.329,0.768l-0.77-0.329l-0.22,0.659l-0.329-0.659l-0.658,0.329l0.22-0.768l-0.658-0.22l0.658-0.329L122.121,103.128
	L122.121,103.128z M103.356,69.985L103.356,69.985c1.208,0.111,2.195,0.66,2.304,2.195
	C104.233,72.071,103.575,71.193,103.356,69.985L103.356,69.985z M103.356,67.681L103.356,67.681
	c1.208,0.109,2.195,0.659,2.415,2.085C104.233,69.766,103.575,68.888,103.356,67.681L103.356,67.681z M103.465,65.266
	L103.465,65.266c1.207,0.11,2.084,0.659,2.304,2.195C104.343,67.352,103.685,66.474,103.465,65.266L103.465,65.266z M103.465,62.961
	L103.465,62.961c1.207,0.11,2.195,0.659,2.304,2.085C104.343,65.047,103.685,64.17,103.465,62.961L103.465,62.961z M103.465,60.547
	L103.465,60.547c1.207,0.11,2.195,0.769,2.415,2.195C104.343,62.632,103.685,61.754,103.465,60.547L103.465,60.547z M103.575,58.242
	L103.575,58.242c1.208,0.11,2.085,0.659,2.305,2.084C104.453,60.327,103.795,59.45,103.575,58.242L103.575,58.242z M113.672,78.656
	L113.672,78.656c-1.427,0-2.087-0.878-2.306-2.085C112.574,76.68,113.562,77.229,113.672,78.656L113.672,78.656z M121.136,80.96
	L121.136,80.96c-0.22,1.208-0.88,2.084-2.306,2.084C118.938,81.618,119.926,81.069,121.136,80.96L121.136,80.96z M121.023,78.765
	c-1.207,0.11-2.193,0.77-2.304,2.195C120.145,80.96,120.805,80.081,121.023,78.765L121.023,78.765L121.023,78.765z M126.072,97.53
	L126.072,97.53c-1.316-0.11-2.304-0.658-2.304-2.195C125.304,95.446,125.961,96.324,126.072,97.53L126.072,97.53z M123.44,100.604
	c0.218,1.207,0.877,2.085,2.413,2.085C125.742,101.262,124.756,100.714,123.44,100.604L123.44,100.604L123.44,100.604z
	 M125.413,92.153L125.413,92.153c-1.207,0.111-2.192,0.66-2.414,2.085C124.536,94.238,125.193,93.361,125.413,92.153L125.413,92.153
	z M109.722,85.569c-1.539,0-2.196-0.878-2.417-2.085C108.623,83.594,109.502,84.142,109.722,85.569L109.722,85.569z M86.784,87.983
	L86.784,87.983c1.208,0.11,2.195,0.658,2.415,2.194C87.663,90.068,87.004,89.19,86.784,87.983L86.784,87.983z M86.894,85.789
	c0.22,1.317,0.878,2.195,2.305,2.195C89.088,86.557,88.101,85.898,86.894,85.789L86.894,85.789L86.894,85.789z M86.674,92.153
	L86.674,92.153c1.208,0.111,2.195,0.66,2.306,2.085C87.552,94.238,86.894,93.361,86.674,92.153L86.674,92.153z M94.796,70.424
	L94.796,70.424c1.316,0.11,2.195,0.769,2.414,2.195C95.674,72.619,95.015,71.741,94.796,70.424L94.796,70.424z M94.796,72.511
	L94.796,72.511c0.219,1.206,0.878,2.084,2.305,2.084C96.991,73.168,96.003,72.619,94.796,72.511L94.796,72.511z M94.686,74.485
	c1.208,0.11,2.195,0.659,2.305,2.195C95.564,76.57,94.905,75.692,94.686,74.485L94.686,74.485L94.686,74.485z M100.611,70.753
	L100.611,70.753c1.427-0.11,2.086-0.987,2.305-2.194C101.709,68.668,100.721,69.216,100.611,70.753L100.611,70.753z M100.392,68.559
	c0.219-1.426,1.208-2.085,2.415-2.195C102.587,67.681,101.93,68.559,100.392,68.559L100.392,68.559L100.392,68.559z M100.283,67.46
	L100.283,67.46c-1.427,0-2.085-0.878-2.304-2.084C99.185,65.486,100.173,66.034,100.283,67.46L100.283,67.46z M100.173,69.547
	c-0.109-1.426-1.098-2.086-2.306-2.086C98.088,68.668,98.746,69.547,100.173,69.547L100.173,69.547L100.173,69.547z M100.064,71.522
	L100.064,71.522c-1.427,0-2.085-0.878-2.305-2.085C98.965,69.547,99.954,70.094,100.064,71.522L100.064,71.522z M102.148,76.241
	L102.148,76.241c0.11-1.428,1.099-1.975,2.304-2.085C104.233,75.362,103.575,76.241,102.148,76.241L102.148,76.241z M100.503,75.252
	c1.427,0,2.084-0.878,2.305-2.084C101.6,73.277,100.613,73.826,100.503,75.252L100.503,75.252L100.503,75.252z M101.161,72.18
	L101.161,72.18c-0.22,1.207-0.988,2.085-2.414,2.195C98.965,72.838,99.844,72.29,101.161,72.18L101.161,72.18z M102.368,85.569
	L102.368,85.569c1.425,0,2.084-0.878,2.304-2.085C103.465,83.594,102.478,84.142,102.368,85.569L102.368,85.569z M100.721,84.581
	L100.721,84.581c0.111-1.426,1.098-1.974,2.304-2.085C102.807,83.704,102.148,84.581,100.721,84.581L100.721,84.581z M99.076,83.594
	c1.427,0,2.085-0.877,2.305-2.086C100.173,81.618,99.185,82.167,99.076,83.594L99.076,83.594L99.076,83.594z M97.32,82.606
	L97.32,82.606c0.22-1.427,1.208-1.977,2.415-2.085C99.515,81.728,98.856,82.606,97.32,82.606L97.32,82.606z M98.088,79.534
	c-1.317,0.109-2.195,0.657-2.414,2.194C97.209,81.619,97.868,80.741,98.088,79.534L98.088,79.534L98.088,79.534z M100.173,95.226
	L100.173,95.226c0.219-1.426,1.097-1.975,2.414-2.085C102.368,94.348,101.6,95.226,100.173,95.226L100.173,95.226z M96.88,93.361
	L96.88,93.361c0.221-1.536,1.098-2.085,2.415-2.195C99.076,92.374,98.308,93.251,96.88,93.361L96.88,93.361z M95.234,92.374
	c1.427,0,2.195-0.878,2.414-2.195C96.332,90.287,95.453,90.946,95.234,92.374L95.234,92.374L95.234,92.374z M93.589,91.385
	L93.589,91.385c0.218-1.428,1.097-2.084,2.414-2.195C95.784,90.508,95.015,91.385,93.589,91.385L93.589,91.385z M94.357,88.313
	c-1.316,0.109-2.195,0.658-2.415,2.084C93.369,90.397,94.138,89.521,94.357,88.313L94.357,88.313L94.357,88.313z M105.112,78.765
	L105.112,78.765c-0.22,1.208-0.878,2.195-2.415,2.195C102.917,79.534,103.905,78.875,105.112,78.765L105.112,78.765z
	 M103.356,77.887c-1.208,0.11-2.195,0.659-2.305,2.194C102.478,79.971,103.136,79.094,103.356,77.887L103.356,77.887L103.356,77.887
	z M101.6,77.009L101.6,77.009c-0.219,1.208-0.878,2.085-2.303,2.195C99.404,77.667,100.392,77.118,101.6,77.009L101.6,77.009z
	 M97.54,78.216L97.54,78.216c1.536,0,2.195-0.878,2.414-2.085C98.637,76.241,97.759,76.789,97.54,78.216L97.54,78.216z
	 M102.478,91.276L102.478,91.276c1.426-0.11,2.085-0.989,2.304-2.195C103.575,89.19,102.587,89.739,102.478,91.276L102.478,91.276z
	 M103.136,88.203L103.136,88.203c-0.22,1.208-0.988,2.084-2.415,2.195C100.941,88.862,101.819,88.313,103.136,88.203L103.136,88.203
	z M101.38,87.324c-1.207,0.11-2.196,0.659-2.415,2.086C100.503,89.41,101.161,88.532,101.38,87.324L101.38,87.324L101.38,87.324z
	 M99.624,86.447L99.624,86.447c-0.221,1.207-0.878,2.084-2.304,2.084C97.429,87.105,98.417,86.557,99.624,86.447L99.624,86.447z
	 M97.868,85.569c-1.207,0.109-2.193,0.659-2.304,2.085C96.991,87.654,97.648,86.776,97.868,85.569L97.868,85.569L97.868,85.569z
	 M93.917,86.776c0.111-1.537,1.098-2.085,2.305-2.195C96.002,85.789,95.345,86.667,93.917,86.776L93.917,86.776L93.917,86.776z
	 M96.112,82.497L96.112,82.497c-1.208,0.11-2.195,0.767-2.305,2.195C95.234,84.691,95.893,83.813,96.112,82.497L96.112,82.497z
	 M96.991,78.656c-0.22-1.427-1.098-1.976-2.415-2.085C94.796,77.777,95.453,78.656,96.991,78.656L96.991,78.656L96.991,78.656z
	 M93.15,87.324L93.15,87.324c-1.428,0-2.086-0.877-2.306-2.084C92.052,85.35,93.041,85.898,93.15,87.324L93.15,87.324z
	 M90.844,83.044L90.844,83.044c0.22,1.317,0.878,2.195,2.414,2.195C93.041,83.813,92.162,83.155,90.844,83.044L90.844,83.044z
	 M90.954,80.96c1.208,0.109,2.196,0.658,2.304,2.084C91.833,83.044,91.175,82.167,90.954,80.96L90.954,80.96L90.954,80.96z
	 M91.064,78.765L91.064,78.765c0.22,1.316,0.878,2.195,2.305,2.195C93.259,79.534,92.271,78.875,91.064,78.765L91.064,78.765z
	 M91.064,76.68L91.064,76.68c1.208,0.109,2.195,0.658,2.415,2.194C91.942,78.765,91.284,77.887,91.064,76.68L91.064,76.68z
	 M117.183,70.424L117.183,70.424c-1.206,0.11-2.192,0.769-2.304,2.195C116.305,72.619,116.962,71.741,117.183,70.424L117.183,70.424
	z M117.291,72.619L117.291,72.619c-0.218,1.317-0.877,2.194-2.301,2.194C115.099,73.387,116.086,72.729,117.291,72.619
	L117.291,72.619z M111.477,70.753L111.477,70.753c-1.425-0.11-2.084-0.987-2.305-2.194
	C110.379,68.668,111.366,69.216,111.477,70.753L111.477,70.753z M111.585,68.668c-0.108-1.427-1.096-2.084-2.303-2.195
	C109.502,67.681,110.16,68.668,111.585,68.668L111.585,68.668L111.585,68.668z M111.695,67.46L111.695,67.46
	c1.538,0,2.196-0.878,2.416-2.084C112.902,65.486,111.918,66.034,111.695,67.46L111.695,67.46z M111.805,69.547
	c0.221-1.426,1.209-2.086,2.415-2.086C113.999,68.668,113.342,69.547,111.805,69.547L111.805,69.547z M111.918,92.482l0.656,0.219
	l0.328-0.658l0.22,0.658l0.77-0.219l-0.33,0.658l0.658,0.33l-0.658,0.219l0.33,0.769l-0.77-0.33l-0.22,0.658l-0.328-0.658
	l-0.656,0.33l0.217-0.769l-0.658-0.219l0.658-0.33L111.918,92.482L111.918,92.482z M109.282,98.409l0.77,0.329l0.217-0.659
	l0.33,0.659l0.659-0.329l-0.222,0.769l0.659,0.22l-0.659,0.328l0.222,0.659l-0.659-0.22l-0.33,0.658l-0.217-0.658l-0.77,0.22
	l0.33-0.659l-0.661-0.328l0.661-0.22L109.282,98.409L109.282,98.409z M114.329,104.775l0.661,0.329l0.328-0.66l0.329,0.66
	l0.657-0.329l-0.327,0.768l0.767,0.219l-0.767,0.329l0.327,0.658l-0.657-0.219l-0.329,0.659l-0.328-0.659l-0.661,0.219l0.22-0.658
	l-0.657-0.329l0.657-0.219L114.329,104.775L114.329,104.775z M111.918,111.578L111.918,111.578c-1.429,0-2.086-0.878-2.306-2.194
	C110.816,109.494,111.805,110.15,111.918,111.578L111.918,111.578z M117.841,100.604L117.841,100.604
	c0.221,1.207-0.11,2.305-1.428,2.854C115.978,102.031,116.744,101.153,117.841,100.604L117.841,100.604z M116.086,92.593
	c-1.096,0.548-1.866,1.427-1.429,2.853C115.977,94.897,116.305,93.8,116.086,92.593L116.086,92.593L116.086,92.593z M130.132,102.25
	L130.132,102.25c-1.314-0.11-2.304-0.659-2.414-2.196C129.256,100.165,129.915,101.042,130.132,102.25L130.132,102.25z
	 M118.28,84.691L118.28,84.691c-1.536,0-2.194-0.878-2.413-2.195C117.183,82.606,118.062,83.264,118.28,84.691L118.28,84.691z
	 M114.329,99.616L114.329,99.616c-1.427,0-2.194-0.878-2.411-2.084C113.233,97.641,114.111,98.189,114.329,99.616L114.329,99.616z
	 M122.23,92.813L122.23,92.813c-1.426-0.111-2.086-0.987-2.306-2.195C121.136,90.727,122.121,91.276,122.23,92.813L122.23,92.813z
	 M112.245,106.311L112.245,106.311c-1.316-0.109-2.306-0.657-2.413-2.086C111.366,104.225,112.025,105.104,112.245,106.311
	L112.245,106.311z M124.206,111.248L124.206,111.248c-1.316-0.11-2.305-0.768-2.305-2.194
	C123.44,109.054,124.098,110.042,124.206,111.248L124.206,111.248z M114.879,114.652L114.879,114.652
	c0.22,1.208-0.111,2.303-1.429,2.853C113.014,116.078,113.672,115.199,114.879,114.652L114.879,114.652z M115.978,112.896
	l0.656,0.329l0.328-0.659l0.329,0.659l0.662-0.329l-0.223,0.768l0.66,0.22l-0.66,0.329l0.223,0.659l-0.662-0.219l-0.329,0.656
	l-0.328-0.656l-0.656,0.219l0.219-0.659l-0.658-0.329l0.658-0.22L115.978,112.896L115.978,112.896z M102.807,123.649h6.476v-0.218
	l-2.086-0.99l-0.093-5.37l19.737-11.529c0.222-0.109,0.11-0.438,0.11-0.438l-0.438-13.279c0-0.22-0.109-0.33-0.109-0.33
	c-0.111,0-0.111,0.108-0.111,0.33l-0.439,12.51c0,0,0,0.219-0.33,0.439l-18.467,9.44l-0.143-8.337l16.084-9.443
	c0.11-0.11,0.11-0.33,0.11-0.33L122.67,85.02c0-0.108,0-0.219-0.11-0.219v0.219l-0.438,10.536c0,0,0,0.109-0.22,0.22l-15.028,7.772
	l-0.148-8.754l12.106-7.14c0.109-0.109,0.109-0.33,0.109-0.33l-0.329-8.56c0,0,0-0.109-0.109-0.109v0.109l-0.332,7.902
	c0,0,0,0.108-0.108,0.219l0,0l-11.372,5.892l-0.152-8.855l8.451-5.05c0.109,0,0.109-0.218,0.109-0.218l-0.22-6.037
	c0-0.109,0-0.109-0.111-0.109v0.109l-0.219,5.598c0,0,0,0.11-0.109,0.11l0,0l-7.926,4.117l-0.131-7.634l5.536-3.176v-0.11
	l-0.223-3.951V67.46v0.111l-0.219,3.512c0,0,0,0.11-0.11,0.11l0,0l-5,2.654l-0.267-15.604c0-0.11,0-0.11-0.109-0.11v0.11
	l-0.268,15.662l-5.11-2.711l0,0v-0.11l-0.219-3.512c0-0.111,0-0.111-0.11-0.111v0.111l-0.219,3.951c0,0,0,0.11,0.11,0.11
	l5.532,3.236l-0.131,7.629l-7.926-4.171l0,0c-0.109,0-0.109-0.11-0.109-0.11l-0.219-5.598c0-0.109-0.111-0.109-0.111-0.109v0.109
	l-0.329,6.037c0,0,0,0.218,0.11,0.218l8.559,5.115l-0.151,8.842l-11.37-5.944l0,0c-0.22-0.111-0.22-0.219-0.22-0.219l-0.218-7.902
	l-0.11-0.109l-0.11,0.109l-0.219,8.56c0,0,0,0.22,0.109,0.33l12.104,7.199l-0.15,8.751l-15.136-7.829l0,0
	c-0.22-0.11-0.22-0.22-0.22-0.22L89.528,85.02c0-0.108,0-0.219-0.111-0.219c0,0-0.11,0.111-0.11,0.219l-0.327,11.084
	c0,0-0.11,0.22,0.11,0.33l16.083,9.503l-0.143,8.333l-18.576-9.495v0l0,0c-0.22-0.22-0.22-0.439-0.22-0.439l-0.438-12.51
	c0-0.221-0.111-0.33-0.111-0.33c-0.108,0-0.108,0.11-0.108,0.33l-0.55,13.278c0,0,0,0.33,0.221,0.439l19.733,11.588l-0.09,5.311
	l-2.085,0.99V123.649L102.807,123.649z M23.138,140.648v6.37h0.926c0.972,0,1.732-0.318,2.281-0.957
	c0.545-0.635,0.937-1.669,1.176-3.09h0.366v8.421H27.5c-0.111-0.729-0.251-1.31-0.409-1.737c-0.161-0.426-0.383-0.811-0.663-1.144
	c-0.596-0.735-1.45-1.105-2.565-1.105h-0.725v4.46c0,0.904,0.219,1.574,0.657,2.012c0.438,0.438,1.104,0.657,2.001,0.657h0.936
	v0.408H17v-0.408h0.37c0.904,0,1.575-0.219,2.013-0.657c0.438-0.438,0.656-1.107,0.656-2.012v-8.549
	c0-0.911-0.218-1.582-0.652-2.017s-1.105-0.652-2.016-0.652H17v-0.388h16.061v6.35h-0.348c-0.104-0.549-0.222-1.047-0.348-1.504
	c-0.125-0.455-0.248-0.807-0.366-1.051c-0.352-0.777-0.778-1.421-1.277-1.92c-0.502-0.501-1.095-0.875-1.776-1.118
	c-0.685-0.248-1.46-0.369-2.328-0.369H23.138L23.138,140.648z M42.15,142.889c1.103,0,2.114,0.176,3.032,0.528
	c0.916,0.353,1.712,0.866,2.388,1.542c0.57,0.577,1.008,1.219,1.32,1.926c0.31,0.707,0.465,1.432,0.465,2.172
	c0,1.109-0.315,2.134-0.944,3.068c-0.626,0.937-1.481,1.679-2.562,2.228c-1.08,0.546-2.263,0.819-3.548,0.819
	c-0.982,0-1.903-0.155-2.769-0.464c-0.867-0.313-1.629-0.749-2.291-1.317c-0.658-0.566-1.172-1.228-1.542-1.982
	s-0.554-1.547-0.554-2.369c0-1.095,0.317-2.116,0.956-3.064c0.637-0.945,1.493-1.697,2.564-2.251
	C39.736,143.165,40.896,142.889,42.15,142.889L42.15,142.889z M42.369,143.191c-0.514,0-0.996,0.091-1.452,0.267
	c-0.454,0.179-0.835,0.43-1.144,0.759c-0.341,0.354-0.629,0.776-0.869,1.265s-0.419,1.03-0.541,1.631
	c-0.121,0.601-0.182,1.248-0.182,1.944c0,0.868,0.095,1.659,0.289,2.373c0.191,0.713,0.467,1.329,0.828,1.846
	c0.361,0.514,0.792,0.909,1.294,1.177c0.5,0.273,1.06,0.408,1.675,0.408c0.831,0,1.559-0.24,2.177-0.717
	c0.615-0.476,1.088-1.157,1.421-2.04c0.329-0.887,0.493-1.938,0.493-3.156c0-0.792-0.089-1.531-0.271-2.219
	c-0.179-0.688-0.439-1.288-0.776-1.799c-0.338-0.511-0.749-0.914-1.227-1.213c-0.237-0.158-0.511-0.285-0.821-0.382
	C42.956,143.241,42.655,143.191,42.369,143.191L42.369,143.191z M51.208,143.126h8.194v0.312h-0.938
	c-0.723,0-1.259,0.176-1.614,0.528s-0.534,0.893-0.534,1.62v5.999c0,0.683,0.159,1.271,0.473,1.762
	c0.315,0.491,0.771,0.868,1.363,1.132c0.592,0.266,1.296,0.399,2.113,0.399c0.717,0,1.386-0.105,2.007-0.31
	c0.618-0.205,1.111-0.488,1.479-0.85c0.672-0.69,1.008-1.653,1.008-2.895v-4.23c0-1.354-0.396-2.272-1.184-2.757
	c-0.225-0.143-0.462-0.24-0.71-0.299c-0.248-0.054-0.606-0.089-1.074-0.101v-0.312h5.735v0.312
	c-0.355,0.029-0.636,0.074-0.846,0.145c-0.208,0.066-0.421,0.179-0.641,0.338c-0.323,0.243-0.568,0.566-0.737,0.971
	c-0.17,0.399-0.253,0.877-0.253,1.422v4.717c0,1.25-0.341,2.208-1.025,2.874c-0.378,0.361-0.779,0.622-1.21,0.781
	c-0.901,0.338-1.976,0.505-3.223,0.505c-0.918,0-1.752-0.09-2.503-0.271c-0.751-0.179-1.372-0.437-1.863-0.769
	c-0.924-0.638-1.386-1.549-1.386-2.741v-5.822c0-1.432-0.716-2.148-2.148-2.148h-0.482V143.126L51.208,143.126z M76.366,149.156
	H73.71v3.31c0,0.723,0.179,1.26,0.534,1.614c0.355,0.354,0.892,0.534,1.614,0.534h0.349v0.329h-7.461v-0.329h0.321
	c0.727,0,1.268-0.176,1.619-0.528c0.353-0.353,0.529-0.893,0.529-1.62v-6.88c0-0.733-0.176-1.273-0.526-1.622
	c-0.349-0.351-0.889-0.526-1.622-0.526h-0.321v-0.312h9.159c1.242,0,2.224,0.089,2.946,0.271c0.721,0.179,1.293,0.485,1.717,0.913
	c0.242,0.241,0.436,0.531,0.577,0.863c0.145,0.332,0.217,0.66,0.217,0.989c0,0.893-0.462,1.609-1.386,2.149
	c-0.343,0.188-0.812,0.352-1.403,0.499c-0.593,0.147-1.185,0.246-1.771,0.296c-0.445,0.033-1.123,0.05-2.039,0.05v0.036
	c0.45,0.291,0.86,0.534,1.227,0.728c0.367,0.19,0.736,0.352,1.108,0.484c0.373,0.133,0.794,0.255,1.271,0.361l0.277,0.423
	c0.188,0.27,0.324,0.473,0.416,0.607c0.089,0.136,0.194,0.293,0.312,0.466c0.314,0.479,0.615,0.898,0.901,1.25
	c0.283,0.353,0.519,0.598,0.704,0.738c0.367,0.244,0.893,0.364,1.574,0.364h0.33v0.329h-4.43L76.366,149.156L76.366,149.156z
	 M73.71,148.846h3.367c0.796,0,1.449-0.098,1.96-0.291c0.511-0.196,0.893-0.491,1.144-0.89s0.376-0.909,0.376-1.536
	c0-1.793-1.144-2.691-3.428-2.691H73.71V148.846L73.71,148.846z M105.31,140.543h0.37v5.034h-0.37
	c-0.441-1.212-0.939-2.156-1.503-2.837c-0.405-0.478-0.914-0.895-1.527-1.257c-0.614-0.358-1.299-0.642-2.06-0.85
	c-0.761-0.205-1.528-0.308-2.307-0.308c-0.581,0-1.101,0.078-1.557,0.238c-0.456,0.162-0.838,0.402-1.155,0.715
	c-0.222,0.226-0.401,0.477-0.535,0.758c-0.136,0.278-0.201,0.549-0.201,0.81c0,0.487,0.189,0.911,0.566,1.271
	c0.176,0.176,0.427,0.344,0.754,0.502c0.322,0.161,0.745,0.318,1.258,0.473c0.517,0.156,1.234,0.345,2.16,0.567
	c0.251,0.08,0.423,0.125,0.517,0.14l0.513,0.127l0.822,0.207c1.385,0.358,2.399,0.675,3.034,0.947
	c0.64,0.273,1.182,0.635,1.629,1.084c0.352,0.329,0.624,0.714,0.814,1.154c0.194,0.442,0.291,0.919,0.291,1.431
	c0,0.506-0.109,1.012-0.327,1.52c-0.216,0.509-0.523,0.957-0.926,1.341c-0.517,0.531-1.155,0.934-1.916,1.198
	c-0.76,0.266-1.628,0.398-2.601,0.398c-0.682,0-1.32-0.068-1.919-0.205c-0.6-0.136-1.331-0.388-2.192-0.75
	c-0.559-0.225-0.986-0.377-1.28-0.459c-0.294-0.079-0.57-0.117-0.833-0.117c-0.494,0-0.917,0.129-1.266,0.39
	c-0.344,0.267-0.574,0.636-0.688,1.12h-0.366v-6.791h0.366c0.147,1.205,0.635,2.3,1.463,3.282c0.495,0.574,1.134,1.108,1.905,1.604
	c0.775,0.495,1.585,0.879,2.437,1.15c0.846,0.274,1.65,0.41,2.414,0.41c0.682,0,1.302-0.11,1.866-0.338
	c0.567-0.222,1.005-0.534,1.32-0.936c0.315-0.399,0.474-0.851,0.474-1.356c0-0.53-0.216-1.011-0.642-1.438
	c-0.198-0.19-0.449-0.366-0.76-0.527c-0.313-0.161-0.714-0.326-1.21-0.491c-0.494-0.168-1.172-0.37-2.034-0.603l-1.051-0.284
	c-1.639-0.441-2.773-0.786-3.405-1.028c-0.706-0.26-1.262-0.517-1.665-0.78c-0.405-0.257-0.753-0.587-1.047-0.985
	c-0.434-0.56-0.65-1.176-0.65-1.853c0-0.81,0.241-1.541,0.725-2.187c0.481-0.649,1.159-1.156,2.027-1.522
	c0.868-0.361,1.833-0.544,2.892-0.544c1.596,0,3.254,0.444,4.969,1.334c0.603,0.301,1.015,0.451,1.23,0.451
	C104.683,141.752,105.074,141.351,105.31,140.543L105.31,140.543z M108.131,143.126h12.568v4.577h-0.254
	c-0.23-0.801-0.439-1.4-0.621-1.799c-0.185-0.396-0.422-0.774-0.716-1.131c-0.355-0.42-0.742-0.725-1.157-0.907
	c-0.696-0.284-1.54-0.429-2.53-0.429h-2.327v5.619h0.627c0.929,0,1.669-0.401,2.214-1.201c0.284-0.413,0.49-0.903,0.628-1.474
	c0.068-0.242,0.13-0.599,0.188-1.073h0.295v7.749h-0.295c-0.069-0.416-0.151-0.811-0.243-1.18c-0.094-0.37-0.196-0.67-0.312-0.901
	c-0.116-0.231-0.266-0.461-0.445-0.693c-0.508-0.627-1.229-0.938-2.164-0.938h-0.492v5.287h1.945c0.576,0,1.093-0.041,1.551-0.12
	c0.463-0.085,0.875-0.212,1.241-0.382c0.367-0.173,0.711-0.399,1.032-0.673c0.551-0.469,0.982-1.051,1.285-1.752
	c0.176-0.399,0.357-0.942,0.551-1.624h0.312v4.862h-12.866l-0.014-0.312h0.32c1.433,0,2.149-0.723,2.149-2.166v-6.88
	c0-0.733-0.178-1.273-0.526-1.622c-0.35-0.351-0.89-0.526-1.623-0.526h-0.32V143.126L108.131,143.126z M128.311,145.654
	l-2.315,5.272h4.691L128.311,145.654L128.311,145.654z M129.21,142.889h0.311l4.753,10.34c0.153,0.32,0.323,0.587,0.511,0.795
	c0.19,0.207,0.402,0.357,0.638,0.452c0.238,0.093,0.517,0.139,0.839,0.139h0.314v0.329h-6.86v-0.329h0.897
	c0.444,0,0.77-0.06,0.976-0.182c0.205-0.121,0.309-0.31,0.309-0.563c0-0.159-0.039-0.35-0.121-0.573
	c-0.083-0.227-0.262-0.637-0.537-1.228c-0.018-0.035-0.043-0.09-0.076-0.167c-0.035-0.082-0.071-0.156-0.111-0.232l-0.193-0.431
	h-5.007l-0.381,0.881c-0.124,0.299-0.188,0.602-0.188,0.904c0,0.261,0.073,0.517,0.217,0.771c0.144,0.253,0.332,0.443,0.563,0.574
	c0.152,0.089,0.287,0.15,0.408,0.183c0.123,0.031,0.296,0.051,0.521,0.063v0.329h-4.813v-0.329c0.349-0.041,0.628-0.101,0.834-0.185
	c0.205-0.086,0.436-0.227,0.689-0.423c0.599-0.464,1.181-1.336,1.75-2.614L129.21,142.889L129.21,142.889z M148.696,143.354h0.297
	v4.051h-0.297c-0.355-0.976-0.757-1.735-1.209-2.284c-0.326-0.385-0.736-0.719-1.23-1.01c-0.494-0.288-1.045-0.518-1.658-0.684
	c-0.611-0.165-1.23-0.25-1.856-0.25c-0.468,0-0.886,0.064-1.253,0.194c-0.367,0.129-0.676,0.323-0.93,0.574
	c-0.18,0.183-0.323,0.385-0.43,0.608c-0.111,0.226-0.163,0.443-0.163,0.654c0,0.393,0.154,0.733,0.457,1.021
	c0.142,0.142,0.344,0.276,0.605,0.405c0.261,0.129,0.602,0.256,1.015,0.379c0.415,0.126,0.993,0.279,1.738,0.457
	c0.202,0.064,0.341,0.102,0.415,0.113l0.413,0.102l0.661,0.167c1.115,0.288,1.931,0.543,2.442,0.762
	c0.514,0.219,0.95,0.511,1.312,0.871c0.282,0.267,0.502,0.576,0.654,0.931c0.156,0.355,0.235,0.739,0.235,1.152
	c0,0.406-0.087,0.814-0.264,1.223c-0.174,0.408-0.421,0.77-0.744,1.078c-0.416,0.428-0.931,0.751-1.543,0.965
	c-0.611,0.215-1.311,0.32-2.093,0.32c-0.549,0-1.063-0.055-1.545-0.164s-1.071-0.313-1.765-0.603
	c-0.449-0.183-0.793-0.305-1.03-0.37c-0.237-0.064-0.459-0.096-0.669-0.096c-0.399,0-0.74,0.104-1.02,0.314
	c-0.278,0.214-0.462,0.512-0.555,0.901h-0.296v-5.467h0.296c0.118,0.971,0.511,1.852,1.178,2.642
	c0.398,0.464,0.913,0.893,1.533,1.292c0.624,0.398,1.276,0.707,1.961,0.927c0.681,0.218,1.329,0.329,1.942,0.329
	c0.549,0,1.048-0.09,1.503-0.272c0.456-0.179,0.808-0.429,1.062-0.752c0.254-0.32,0.381-0.685,0.381-1.093
	c0-0.428-0.173-0.813-0.517-1.158c-0.159-0.153-0.361-0.294-0.612-0.424c-0.251-0.129-0.574-0.264-0.973-0.396
	c-0.397-0.136-0.944-0.297-1.637-0.484l-0.847-0.229c-1.319-0.354-2.232-0.632-2.74-0.828c-0.569-0.208-1.016-0.416-1.339-0.628
	c-0.328-0.206-0.607-0.473-0.845-0.792c-0.349-0.45-0.522-0.948-0.522-1.491c0-0.652,0.194-1.24,0.584-1.762
	c0.387-0.522,0.934-0.928,1.632-1.224c0.699-0.291,1.475-0.438,2.328-0.438c1.283,0,2.618,0.358,3.998,1.075
	c0.485,0.241,0.816,0.363,0.99,0.363C148.191,144.327,148.506,144.004,148.696,143.354L148.696,143.354z M158.751,142.889
	c1.102,0,2.113,0.176,3.03,0.528c0.916,0.353,1.713,0.866,2.389,1.542c0.569,0.577,1.008,1.219,1.318,1.926s0.467,1.432,0.467,2.172
	c0,1.109-0.316,2.134-0.944,3.068c-0.626,0.937-1.483,1.679-2.561,2.228c-1.081,0.546-2.266,0.819-3.549,0.819
	c-0.983,0-1.903-0.155-2.771-0.464c-0.866-0.313-1.628-0.749-2.288-1.317c-0.659-0.566-1.174-1.228-1.543-1.982
	c-0.37-0.755-0.556-1.547-0.556-2.369c0-1.095,0.319-2.116,0.956-3.064c0.638-0.945,1.494-1.697,2.564-2.251
	C156.336,143.165,157.497,142.889,158.751,142.889L158.751,142.889z M158.969,143.191c-0.514,0-0.995,0.091-1.451,0.267
	c-0.454,0.179-0.835,0.43-1.144,0.759c-0.341,0.354-0.629,0.776-0.869,1.265s-0.42,1.03-0.541,1.631
	c-0.12,0.601-0.182,1.248-0.182,1.944c0,0.868,0.097,1.659,0.289,2.373c0.189,0.713,0.469,1.329,0.829,1.846
	c0.361,0.514,0.79,0.909,1.293,1.177c0.5,0.273,1.06,0.408,1.676,0.408c0.83,0,1.559-0.24,2.177-0.717
	c0.614-0.476,1.088-1.157,1.42-2.04c0.331-0.887,0.495-1.938,0.495-3.156c0-0.792-0.091-1.531-0.272-2.219
	c-0.18-0.688-0.438-1.288-0.776-1.799c-0.337-0.511-0.748-0.914-1.227-1.213c-0.237-0.158-0.512-0.285-0.821-0.382
	C159.556,143.241,159.256,143.191,158.969,143.191L158.969,143.191z M167.808,143.126h4.745l8.217,8.508v-5.093
	c0-0.62-0.106-1.163-0.317-1.629c-0.211-0.464-0.517-0.816-0.919-1.06c-0.213-0.136-0.429-0.233-0.646-0.288
	c-0.217-0.059-0.52-0.098-0.909-0.127v-0.312h5.853v0.312h-0.117c-0.854,0-1.499,0.271-1.946,0.811
	c-0.445,0.543-0.668,1.329-0.668,2.363v8.451h-0.277l-10.204-10.482v7.022c0,0.681,0.082,1.228,0.246,1.638
	c0.162,0.408,0.426,0.728,0.794,0.959c0.297,0.182,0.663,0.297,1.092,0.347c0.237,0.039,0.574,0.068,1.013,0.086v0.312h-6.164
	v-0.312c0.63-0.035,1.146-0.147,1.541-0.335c0.398-0.191,0.691-0.471,0.882-0.843c0.187-0.373,0.282-0.834,0.282-1.386v-6.685
	c0-0.413-0.093-0.763-0.275-1.048c-0.184-0.29-0.449-0.512-0.798-0.664c-0.351-0.157-0.772-0.234-1.269-0.234h-0.153V143.126
	L167.808,143.126z M195.782,143.354h0.297v4.051h-0.297c-0.356-0.976-0.757-1.735-1.21-2.284c-0.326-0.385-0.736-0.719-1.229-1.01
	c-0.494-0.288-1.046-0.518-1.658-0.684c-0.612-0.165-1.23-0.25-1.856-0.25c-0.469,0-0.887,0.064-1.253,0.194
	c-0.367,0.129-0.676,0.323-0.931,0.574c-0.179,0.183-0.323,0.385-0.43,0.608c-0.11,0.226-0.161,0.443-0.161,0.654
	c0,0.393,0.153,0.733,0.456,1.021c0.141,0.142,0.343,0.276,0.606,0.405c0.259,0.129,0.6,0.256,1.014,0.379
	c0.414,0.126,0.992,0.279,1.737,0.457c0.203,0.064,0.341,0.102,0.417,0.113l0.412,0.102l0.66,0.167
	c1.115,0.288,1.932,0.543,2.443,0.762c0.515,0.219,0.95,0.511,1.311,0.871c0.282,0.267,0.503,0.576,0.655,0.931
	c0.155,0.355,0.234,0.739,0.234,1.152c0,0.406-0.086,0.814-0.262,1.223c-0.175,0.408-0.422,0.77-0.746,1.078
	c-0.416,0.428-0.93,0.751-1.543,0.965c-0.61,0.215-1.31,0.32-2.093,0.32c-0.547,0-1.063-0.055-1.544-0.164
	c-0.482-0.109-1.071-0.313-1.765-0.603c-0.449-0.183-0.794-0.305-1.031-0.37c-0.237-0.064-0.458-0.096-0.669-0.096
	c-0.398,0-0.739,0.104-1.019,0.314c-0.278,0.214-0.463,0.512-0.555,0.901h-0.295v-5.467h0.295c0.117,0.971,0.511,1.852,1.177,2.642
	c0.399,0.464,0.913,0.893,1.533,1.292c0.625,0.398,1.276,0.707,1.961,0.927c0.681,0.218,1.329,0.329,1.943,0.329
	c0.549,0,1.048-0.09,1.502-0.272c0.456-0.179,0.808-0.429,1.063-0.752c0.253-0.32,0.38-0.685,0.38-1.093
	c0-0.428-0.173-0.813-0.518-1.158c-0.159-0.153-0.36-0.294-0.611-0.424c-0.252-0.129-0.575-0.264-0.974-0.396
	c-0.397-0.136-0.943-0.297-1.636-0.484l-0.846-0.229c-1.321-0.354-2.234-0.632-2.741-0.828c-0.569-0.208-1.017-0.416-1.339-0.628
	c-0.327-0.206-0.608-0.473-0.844-0.792c-0.349-0.45-0.522-0.948-0.522-1.491c0-0.652,0.191-1.24,0.582-1.762
	c0.388-0.522,0.933-0.928,1.632-1.224c0.699-0.291,1.477-0.438,2.328-0.438c1.284,0,2.619,0.358,3.998,1.075
	c0.485,0.241,0.817,0.363,0.99,0.363C195.276,144.327,195.591,144.004,195.782,143.354z"/>
</svg>
