<?xml version="1.0" encoding="utf-8"?>
<!DOCTYPE svg PUBLIC "-//W3C//DTD SVG 1.1//EN" "http://www.w3.org/Graphics/SVG/1.1/DTD/svg11.dtd">
<svg version="1.1" id="Layer_2" xmlns="http://www.w3.org/2000/svg" xmlns:xlink="http://www.w3.org/1999/xlink" x="0px" y="0px" width="216px" height="216px" viewBox="0 0 216 216" enable-background="new 0 0 216 216" xml:space="preserve">
<circle cx="108" cy="108" r="108"/>
<path fill="#FFFFFF" d="M152.726,131.213l-0.32-0.096c0.134-0.032,0.265-0.076,0.393-0.131c0.547-0.264,0.868-0.847,0.798-1.453
	c0-1.024-0.726-1.561-2.107-1.561h-1.832v6.524h1.772c0.583,0,2.381-0.178,2.381-1.904
	C153.815,131.938,153.364,131.364,152.726,131.213 M150.595,128.832h0.12c0.254-0.013,0.509-0.013,0.762,0
	c0.737,0,1.189,0.371,1.189,0.965c0.03,0.553-0.394,1.023-0.943,1.053c-0.083,0.006-0.166,0-0.247-0.017h-0.94L150.595,128.832z
	 M151.512,133.773c-0.265,0.02-0.53,0.02-0.797,0h-0.12v-2.144h0.978c0.834,0,1.309,0.358,1.309,0.989
	C152.881,133.249,152.393,133.773,151.512,133.773"/>
<path fill="#FFFFFF" d="M93.572,127.988h-1.81v6.534h0.941v-2.439h0.143h0.869c1.161,0.144,2.22-0.681,2.364-1.843
	c0.009-0.075,0.015-0.153,0.016-0.229C96.072,129.273,95.75,127.988,93.572,127.988 M93.678,131.262h-0.856h-0.12v-2.382h0.25h0.727
	c1.19,0,1.381,0.655,1.381,1.19c0.008,0.656-0.518,1.197-1.175,1.206C93.815,131.278,93.746,131.273,93.678,131.262"/>
<path fill="#FFFFFF" d="M102.357,127.904c-1.868,0.019-3.365,1.549-3.345,3.416c0.02,1.867,1.549,3.365,3.417,3.345
	c1.857-0.02,3.352-1.536,3.346-3.393c0.055-1.81-1.368-3.317-3.174-3.37C102.519,127.9,102.438,127.9,102.357,127.904
	 M102.357,133.855c-1.315,0.004-2.383-1.062-2.385-2.377c0-0.049,0.002-0.097,0.005-0.146c-0.072-1.312,0.934-2.436,2.246-2.509
	c0.044-0.003,0.09-0.004,0.135-0.004c1.315-0.002,2.382,1.063,2.384,2.378c0,0.044-0.001,0.09-0.004,0.135
	c0.033,1.314-1.006,2.406-2.32,2.44c-0.021,0.001-0.041,0.001-0.061,0.001V133.855z"/>
<path fill="#FFFFFF" d="M113.131,132.499c0.016-1.051-0.824-1.917-1.877-1.932c-0.094-0.002-0.186,0.003-0.277,0.017
	c-0.297-0.019-0.596-0.019-0.893,0h-0.143v-1.786h2.773v-0.857H109v6.535h0.441h1.19
	C112.238,134.583,113.131,133.845,113.131,132.499 M110.821,133.689c-0.229,0.013-0.462,0.013-0.69,0h-0.189v-2.178h0.107
	c0.274-0.035,0.555-0.057,0.832-0.061c0.82,0,1.322,0.429,1.322,1.191c0,0.369-0.179,1.131-1.382,1.131V133.689z"/>
<polygon fill="#FFFFFF" points="117.382,128.012 116.44,128.012 116.44,134.547 117.299,134.547 121.048,129.463 121.048,134.547 
	121.988,134.547 121.988,128.012 121.131,128.012 117.382,133.108 "/>
<polygon fill="#FFFFFF" points="126.667,128.012 125.655,128.012 125.655,134.547 126.595,134.547 126.595,129.404 128.951,132.653 
	128.988,132.653 131.334,129.368 131.334,134.547 132.263,134.547 132.263,128.012 131.32,128.012 129.048,131.274 "/>
<path fill="#FFFFFF" d="M138.882,127.904c-1.868,0.019-3.364,1.549-3.347,3.416c0.021,1.867,1.55,3.365,3.418,3.345
	c1.857-0.02,3.352-1.536,3.345-3.393c0.075-1.787-1.312-3.296-3.1-3.37C139.093,127.898,138.986,127.898,138.882,127.904
	 M138.882,133.855c-1.315,0.004-2.384-1.062-2.386-2.377c0-0.049,0.001-0.097,0.004-0.146c-0.072-1.312,0.935-2.436,2.247-2.509
	c0.045-0.003,0.091-0.004,0.135-0.004c1.315-0.002,2.382,1.063,2.384,2.378c0,0.044,0,0.09-0.003,0.135
	c0.033,1.314-1.007,2.406-2.32,2.44c-0.021,0.001-0.04,0.001-0.06,0.001L138.882,133.855L138.882,133.855z"/>
<path fill="#FFFFFF" d="M159.202,127.988l-2.762,6.559h0.915l0.716-1.738h3.071l0.714,1.738h0.987l-2.761-6.559H159.202z
	 M158.418,131.951l1.188-2.88l1.191,2.88H158.418z"/>
<polygon fill="#FFFFFF" points="167.059,128.012 166.013,128.012 168.463,131.131 165.904,134.547 166.953,134.547 169.439,131.142 
	"/>
<rect x="169.439" y="128.012" fill="#FFFFFF" width="0.931" height="6.535"/>
<polygon fill="#FFFFFF" points="173.797,128.012 172.737,128.012 170.368,131.142 172.847,134.547 173.904,134.547 171.346,131.117 
	"/>
<path fill="#FFFFFF" d="M177.478,133.452c-0.132,0.116-0.301,0.18-0.478,0.178v0.93c0.384,0.076,0.783-0.015,1.096-0.25
	c0.631-0.489,1.036-1.774,1.263-4.05l0.155-1.393h2.213v5.68h0.93v-6.535h-4.048l-0.096,1.189
	C178.275,132.451,177.81,133.189,177.478,133.452"/>
<polygon fill="#FFFFFF" points="187.238,128.012 186.298,128.012 186.298,134.547 187.155,134.547 190.905,129.463 190.905,134.547 
	191.845,134.547 191.845,128.012 190.987,128.012 187.238,133.108 "/>
<path fill="#FFFFFF" d="M198.571,131.213l-0.31-0.096c0.132-0.034,0.258-0.078,0.381-0.131c0.555-0.261,0.878-0.845,0.81-1.453
	c0-1.024-0.726-1.561-2.106-1.561h-1.834v6.524h1.762c0.725,0,2.381-0.178,2.381-1.904
	C199.662,131.938,199.212,131.364,198.571,131.213 M196.452,128.832h0.12c0.25-0.013,0.5-0.013,0.75,0
	c0.738,0,1.189,0.371,1.189,0.965c0.021,0.559-0.411,1.028-0.971,1.051c-0.073,0.004-0.147-0.002-0.219-0.015h-0.929
	L196.452,128.832z M197.369,133.678c-0.27,0.018-0.54,0.018-0.81,0h-0.107v-2.048h0.977c0.835,0,1.309,0.358,1.309,0.989
	s-0.487,1.154-1.368,1.154V133.678z"/>
<polygon fill="#FFFFFF" points="203.978,131.678 206.417,131.678 206.417,130.81 203.978,130.81 203.978,128.869 206.714,128.869 
	206.714,128.012 203.036,128.012 203.036,134.547 206.809,134.547 206.809,133.689 203.978,133.689 "/>
<path fill="#FFFFFF" d="M154.381,81.261c2.092,0,3.786,1.695,3.786,3.787c0,2.09-1.694,3.785-3.786,3.785
	c-2.09,0-3.785-1.695-3.785-3.785C150.596,82.957,152.291,81.261,154.381,81.261"/>
<path fill="#FFFFFF" d="M27.119,93.142c-1.901-1.715-4.423-2.576-6.977-2.381c-6.822-0.047-11.226,4.643-11.226,11.905
	c0,7.261,4.309,11.737,10.988,11.737c2.639,0.127,5.216-0.823,7.143-2.63c-0.028,1.202-0.33,2.384-0.881,3.452
	c-1.012,1.727-3.214,2.714-6.059,2.714c-2.278,0.191-4.477-0.883-5.727-2.798l-0.286-0.415l-4.988,3.392l0.429,0.487
	c2.797,3.167,5.629,4.347,10.452,4.347c4.19,0,7.666-0.953,9.786-2.691c2.465-2.082,3.571-5.237,3.571-10.262V96.63
	c-0.02-1.643,0.072-3.286,0.273-4.917l0.071-0.643h-6.571V93.142z M20.822,109.512c-1.43-0.021-2.797-0.599-3.809-1.607
	c-1.215-1.406-1.834-3.229-1.727-5.084c0-4.429,2.262-7.142,5.952-7.142c1.254-0.009,2.471,0.411,3.453,1.19
	c1.521,1.401,2.326,3.414,2.19,5.477c0.056,1.488-0.303,2.964-1.036,4.261C24.771,108.363,22.88,109.457,20.822,109.512"/>
<path fill="#FFFFFF" d="M47.905,90.392c-7.572,0-12.464,5-12.464,12.75c0,7.751,4.904,12.773,12.5,12.773
	c7.404,0,12.346-5.19,12.346-12.857C60.286,95.391,55.429,90.392,47.905,90.392 M47.905,95.689c3.928,0,6.094,2.666,6.094,7.524
	c0,4.571-2.297,7.298-6.13,7.298s-6.144-2.75-6.144-7.369s2.311-7.465,6.18-7.465V95.689z"/>
<path fill="#FFFFFF" d="M74.392,90.392c-7.57,0-12.464,5-12.464,12.75c0,7.75,4.881,12.773,12.464,12.773
	c7.381,0,12.346-5.154,12.346-12.821C86.738,95.428,81.881,90.392,74.392,90.392 M74.392,95.678c3.93,0,6.095,2.666,6.095,7.524
	c0,4.571-2.286,7.297-6.131,7.297c-3.844,0-6.13-2.751-6.13-7.37S70.5,95.678,74.392,95.678"/>
<path fill="#FFFFFF" d="M113.381,109.166V88.131c-0.001-1.768,0.097-3.532,0.297-5.287v-0.63h-6.905l0.071,0.63
	c0.206,1.767,0.296,3.542,0.274,5.322v3.999v1.299c-0.318-0.347-0.665-0.663-1.036-0.954c-1.857-1.364-4.125-2.053-6.429-1.952
	c-6.893,0-11.346,4.906-11.346,12.5c0,4.5,1.595,8.335,4.369,10.463c2.009,1.527,4.493,2.295,7.012,2.167
	c3.393,0,5.56-0.798,7.453-2.855v2.296h6.534v-0.642C113.467,112.722,113.368,110.942,113.381,109.166 M100.679,110.274
	c-3.69,0-5.953-2.75-5.953-7.144c0-4.394,2.214-7.202,5.774-7.202c1.797,0.011,3.516,0.75,4.762,2.048
	c1.123,1.364,1.742,3.075,1.75,4.845c0.065,1.783-0.444,3.54-1.452,5.011C104.408,109.371,102.6,110.274,100.679,110.274"/>
<path fill="#FFFFFF" d="M142.346,91.606c-0.141,1.567-0.429,3.117-0.857,4.631l-2.238,7.988c0,0.119-0.106,0.428-0.189,0.774
	c-0.071-0.285-0.143-0.523-0.19-0.679l-2.952-9.06c-0.393-1.189-0.87-3.024-0.989-3.702l-0.07-0.487h-5.249l-0.073,0.487
	c-0.241,1.253-0.568,2.492-0.976,3.702l-2.87,8.75c0,0.178-0.177,0.559-0.309,1.011c-0.096-0.404-0.178-0.726-0.238-0.939
	l-2.201-7.785c-0.42-1.517-0.706-3.066-0.857-4.631V91.13h-7.262l0.285,0.773c0.572,1.513,1.191,3.167,1.666,4.917l4.395,14.18
	c0.409,1.219,0.739,2.465,0.987,3.727l0.097,0.464h5.571l0.144-0.464c0.276-1.26,0.617-2.504,1.022-3.727l3.014-9.37
	c0-0.143,0.131-0.44,0.236-0.797c0.133,0.442,0.191,0.655,0.239,0.761l3.059,9.382c0.405,1.221,0.734,2.465,0.988,3.726l0.072,0.477
	h5.655l0.083-0.477c0.242-1.261,0.572-2.501,0.987-3.715l4.846-15.477c0.655-2.108,0.774-2.477,1.189-3.572l0.311-0.786h-7.237
	L142.346,91.606z"/>
<path fill="#FFFFFF" d="M157.87,91.725l0.082-0.655h-7.143l0.096,0.655c0.248,1.692,0.354,3.399,0.323,5.107v12.537
	c0.021,1.708-0.088,3.414-0.323,5.107l-0.083,0.654h7.144l-0.072-0.644c-0.203-1.71-0.295-3.433-0.275-5.154V96.867
	C157.577,95.15,157.66,93.431,157.87,91.725"/>
<path fill="#FFFFFF" d="M183.369,109.369v-9.525c0-2.772-0.416-4.487-1.464-5.952c-1.561-2.143-3.94-3.214-7.251-3.214
	c-2.852-0.178-5.622,0.989-7.486,3.155V91.07h-6.656l0.096,0.655c0.235,1.692,0.337,3.399,0.31,5.107v12.535
	c0.023,1.709-0.078,3.415-0.31,5.107l-0.096,0.654h7.061l-0.096-0.654c-0.224-1.693-0.327-3.398-0.309-5.107v-7.94
	c1.642-3.653,3.809-5.5,6.416-5.5c1.131-0.087,2.224,0.435,2.868,1.369c0.485,0.995,0.69,2.101,0.596,3.203v8.87
	c0.009,1.711-0.088,3.42-0.287,5.117l-0.071,0.645h7.143l-0.105-0.668C183.464,112.777,183.344,111.074,183.369,109.369"/>
<path fill="#FFFFFF" d="M202.56,107.511L202.56,107.511c-0.192,0.461-0.457,0.887-0.785,1.263c-1.139,1.191-2.726,1.841-4.37,1.797
	c-1.739,0.063-3.413-0.68-4.534-2.01c-0.796-1.028-1.248-2.276-1.299-3.572h17.346v-0.621c-0.071-0.892-0.071-1.011-0.071-1.095
	c0.002-2.14-0.402-4.26-1.19-6.249c-1.716-4.222-5.914-6.896-10.465-6.667c-7.143,0-11.833,5.012-11.833,12.786
	c0,7.774,4.762,12.737,12.106,12.737c3.199,0.135,6.313-1.034,8.631-3.238c0.739-0.716,1.363-1.544,1.847-2.452L202.56,107.511z
	 M197.035,95.606c1.446-0.1,2.866,0.419,3.905,1.429c0.78,0.773,1.297,1.773,1.478,2.856h-10.656
	c0.485-2.51,2.694-4.314,5.251-4.286H197.035z"/>
</svg>
