<?xml version="1.0" encoding="utf-8"?>
<!DOCTYPE svg PUBLIC "-//W3C//DTD SVG 1.1//EN" "http://www.w3.org/Graphics/SVG/1.1/DTD/svg11.dtd">
<svg version="1.1" id="Layer_1" xmlns="http://www.w3.org/2000/svg" xmlns:xlink="http://www.w3.org/1999/xlink" x="0px" y="0px" width="216px" height="216px" viewBox="0 0 216 216" enable-background="new 0 0 216 216" xml:space="preserve">
<path fill-rule="evenodd" clip-rule="evenodd" fill="#E32528" d="M54.5,0.5h108.003c29.699,0,53.997,24.3,53.997,54v108.003
	c0,29.699-24.298,53.997-53.997,53.997H54.5c-29.7,0-54-24.298-54-53.997V54.5C0.5,24.8,24.8,0.5,54.5,0.5z"/>
<g>
	<path fill="#FFFFFF" d="M61.976,118.103c-1.684,0-3.272-0.301-4.772-0.893c-1.438-0.567-2.701-1.375-3.786-2.427
		c-1.065-1.042-1.886-2.244-2.458-3.608c-0.588-1.401-0.882-3.449-0.882-6.146s0.294-4.746,0.882-6.146
		c0.572-1.363,1.393-2.566,2.458-3.61c2.293-2.21,5.148-3.318,8.558-3.318c1.685,0,3.273,0.3,4.771,0.896
		c1.446,0.566,2.686,1.355,3.722,2.367c1.109,1.081,1.951,2.302,2.526,3.666c0.587,1.4,0.881,3.448,0.881,6.146
		c0,2.695-0.294,4.745-0.881,6.146c-0.575,1.364-1.417,2.584-2.526,3.665C68.226,117.013,65.398,118.103,61.976,118.103
		 M55.184,105.028c0,3.15,0.725,5.326,2.18,6.524c1.281,1.051,2.819,1.576,4.615,1.576c1.952,0,3.557-0.585,4.816-1.756
		c1.327-1.221,1.99-3.336,1.99-6.347c0-3.011-0.663-5.121-1.99-6.337c-1.257-1.176-2.865-1.767-4.816-1.767
		c-1.796,0-3.333,0.525-4.615,1.576C55.909,99.703,55.184,101.877,55.184,105.028"/>
	<polygon fill="#FFFFFF" points="100.26,92.477 90.202,118.173 85.051,118.173 74.994,92.477 81.018,92.477 87.634,110.208 
		94.235,92.477 	"/>
	<polygon fill="#FFFFFF" points="203,92.736 186.442,133.019 180.754,133.019 187.479,116.805 177.736,92.736 183.425,92.736 
		190.363,109.877 197.325,92.736 	"/>
	<path fill="#FFFFFF" d="M122.416,99.083c-0.337-1.29-0.879-2.402-1.631-3.343c-1.981-2.517-5.043-3.775-9.184-3.775
		c-2.929,0-5.583,0.294-7.969,0.882v5.129c2.391-0.752,5.047-1.128,7.969-1.128c1.385,0,2.582,0.242,3.585,0.726
		c0.917,0.447,1.561,1.16,1.934,2.134h-4.315c-3.216,0-5.901,0.799-8.054,2.401c-1.011,0.769-1.791,1.65-2.335,2.649
		c-0.552,1.005-0.827,2.387-0.827,4.146c0,1.759,0.275,3.143,0.827,4.157c0.542,1.007,1.321,1.887,2.335,2.638
		c2.152,1.615,4.838,2.423,8.054,2.423c1.882,0,3.595-0.232,5.157-0.681v0.524h4.854v-3.016v-8.587v-4.106
		C122.818,101.125,122.683,100.066,122.416,99.083 M117.498,112.191c-1.683,0.694-3.246,1.037-4.693,1.037
		c-1.772,0-3.16-0.285-4.166-0.86c-1.155-0.662-1.732-1.876-1.732-3.643s0.574-2.934,1.721-3.509
		c0.843-0.411,2.235-0.614,4.178-0.614h4.693V112.191z"/>
	<path fill="#FFFFFF" d="M147.301,95.307c-1.036-1.056-2.238-1.869-3.609-2.436c-1.423-0.597-2.943-0.896-4.558-0.896
		c-2.228,0-4.332,0.342-6.313,1.028c-0.066,0.024-0.13,0.052-0.196,0.077v-0.583h-4.858v3.332v7.578v29.486h5.321v-16.437
		c1.668,1.096,3.684,1.643,6.046,1.643c1.614,0,3.135-0.294,4.558-0.883c1.371-0.574,2.573-1.385,3.609-2.436
		c1.019-1.052,1.797-2.242,2.335-3.575c0.573-1.438,0.86-3.903,0.86-7.396C150.496,100.317,149.432,97.481,147.301,95.307
		 M143.469,111.275c-1.171,1.207-2.613,1.811-4.335,1.811c-1.311,0-2.421-0.198-3.332-0.593c-0.698-0.297-1.604-0.887-2.714-1.766
		V98.625c1.573-1.088,3.588-1.631,6.046-1.631c1.722,0,3.167,0.604,4.335,1.808c1.138,1.177,1.711,3.255,1.711,6.238
		C145.18,108.021,144.609,110.097,143.469,111.275"/>
	<path fill="#FFFFFF" d="M175.851,99.083c-0.338-1.29-0.88-2.402-1.633-3.343c-1.98-2.517-5.04-3.775-9.184-3.775
		c-2.929,0-5.582,0.294-7.968,0.882v5.129c2.392-0.752,5.047-1.128,7.968-1.128c1.385,0,2.582,0.242,3.586,0.726
		c0.916,0.447,1.561,1.16,1.934,2.134h-4.314c-3.218,0-5.902,0.799-8.055,2.401c-1.012,0.769-1.79,1.65-2.336,2.649
		c-0.552,1.005-0.826,2.387-0.826,4.146c0,1.759,0.274,3.143,0.826,4.157c0.543,1.007,1.321,1.887,2.336,2.638
		c2.152,1.615,4.837,2.423,8.055,2.423c1.88,0,3.593-0.232,5.156-0.681v0.524h4.854v-3.016v-8.587v-4.106
		C176.251,101.125,176.117,100.066,175.851,99.083 M170.932,112.191c-1.684,0.694-3.249,1.037-4.692,1.037
		c-1.774,0-3.162-0.285-4.168-0.86c-1.155-0.662-1.731-1.876-1.731-3.643s0.574-2.934,1.721-3.509
		c0.842-0.411,2.235-0.614,4.179-0.614h4.692V112.191z"/>
	<path fill="#FFFFFF" d="M110.398,131.188H18.401c-1.141,0-2.173-0.466-2.929-1.218c-0.754-0.755-1.218-1.79-1.218-2.93V82.348
		c0-1.142,0.466-2.174,1.218-2.929c0.756-0.754,1.791-1.218,2.929-1.218h105.771c1.141,0,2.173,0.466,2.928,1.218
		c0.755,0.755,1.218,1.79,1.218,2.929v3.458h1.253v-3.458c0-1.486-0.608-2.839-1.586-3.816c-0.975-0.977-2.327-1.586-3.813-1.586
		H18.401c-1.485,0-2.838,0.609-3.815,1.586C13.608,79.508,13,80.861,13,82.348v44.691c0,1.485,0.607,2.839,1.586,3.815
		c0.977,0.979,2.33,1.587,3.815,1.587h91.997V131.188z"/>
	<path fill="#FFFFFF" d="M45.783,102.701c-0.207-2.987-1.253-5.455-3.151-7.394c-1.035-1.056-2.239-1.87-3.609-2.436
		c-1.422-0.596-2.942-0.896-4.56-0.896c-2.228,0-4.333,0.342-6.313,1.027c-0.066,0.025-0.13,0.053-0.197,0.078v-0.583h-4.857v3.331
		v7.579v14.713h5.32v-1.666v-5.732v-6.953v-5.143c1.573-1.088,3.588-1.631,6.046-1.631c1.721,0,3.167,0.604,4.334,1.811
		c0.969,1.001,1.523,2.662,1.669,4.968h0.042v12.673v1.677h5.32v-15.422H45.783z"/>
</g>
</svg>
