<?xml version="1.0" encoding="utf-8"?>
<!DOCTYPE svg PUBLIC "-//W3C//DTD SVG 1.1//EN" "http://www.w3.org/Graphics/SVG/1.1/DTD/svg11.dtd">
<svg version="1.1" xmlns="http://www.w3.org/2000/svg" xmlns:xlink="http://www.w3.org/1999/xlink" x="0px" y="0px" width="216px" height="216px" viewBox="0 0 216 216" enable-background="new 0 0 216 216" xml:space="preserve">
<g>
	<path d="M122.871,124.92c0,0.301,0.15,0.451,0.302,0.451c0.152,0,0.306,0,0.456-0.15l56.092-36.384
		c0.911-0.607,2.122-1.061,3.337-1.061h12.28c1.666-0.151,3.03,1.213,3.184,2.88v23.802c0,2.882-0.607,4.547-3.184,6.063
		l-15.01,8.944c-0.15,0.153-0.304,0.153-0.454,0.153c-0.153,0-0.304-0.153-0.304-0.604v-27.441c0-0.304-0.15-0.456-0.303-0.456
		c-0.153,0-0.304,0-0.454,0.152l-41.088,26.682c-0.907,0.607-2.122,0.91-3.181,0.91h-27.29c-1.668,0.15-3.033-1.211-3.183-2.882
		V91.717c0-0.15-0.152-0.454-0.303-0.454c-0.152,0-0.304,0-0.456,0.152L76.48,107.788c-0.152,0-0.304,0.303-0.304,0.454
		c0,0.152,0.152,0.304,0.304,0.456l19.405,19.403c0.151,0.153,0.303,0.457,0.455,0.607c0,0.303-0.304,0.303-0.607,0.303H77.997
		c-1.214,0.153-2.275-0.15-3.185-0.91l-11.674-11.672c-0.15-0.303-0.15-0.303-0.302-0.303s-0.303,0-0.303,0.15l-19.708,11.824
		c-0.909,0.607-2.122,0.91-3.185,0.91H21.751c-1.668,0.153-3.033-1.211-3.185-2.879v-23.499c-0.302-2.426,0.911-4.852,3.185-6.064
		l15.009-8.945c0-0.304,0.152-0.304,0.302-0.304c0.152,0,0.304,0.304,0.304,0.757v31.078c0,0.306,0.151,0.456,0.303,0.456
		s0.304-0.15,0.456-0.15l50.938-30.776c1.061-0.607,2.122-1.061,3.335-0.91h27.287c1.671-0.151,3.035,1.213,3.186,2.88V124.92
		L122.871,124.92z"/>
</g>
</svg>
