<?xml version="1.0" encoding="utf-8"?>
<!DOCTYPE svg PUBLIC "-//W3C//DTD SVG 1.1//EN" "http://www.w3.org/Graphics/SVG/1.1/DTD/svg11.dtd">
<svg version="1.1" id="Layer_1" xmlns="http://www.w3.org/2000/svg" xmlns:xlink="http://www.w3.org/1999/xlink" x="0px" y="0px" width="216px" height="216px" viewBox="0 0 216 216" enable-background="new 0 0 216 216" xml:space="preserve">
<path fill="#397FC2" d="M0.122,0.122h216v216h-216V0.122z"/>
<path fill="#FFFFFF" d="M52.918,55.694c3.943,4.823,10.858,8.526,11.152,8.682c0.297,0.157,0.667,0.043,0.824-0.254
	c0.006-0.011,0.011-0.023,0.017-0.035c0.074-0.165,7.934-16.614,42.788-16.614c34.86,0,42.929,16.534,43.005,16.701
	c0.143,0.307,0.507,0.439,0.813,0.297c0.009-0.004,0.018-0.008,0.026-0.013c0.356-0.188,8.815-4.667,11.789-8.965
	c0.012-0.016,0.016-0.035,0.023-0.051c0.038-0.066,0.063-0.14,0.072-0.215l0.009-0.056c0.002-0.072-0.007-0.144-0.028-0.213
	c-0.002-0.004,0-0.008-0.002-0.012c-0.005-0.012-0.016-0.02-0.021-0.031c-0.016-0.037-0.027-0.074-0.05-0.109
	c-0.467-0.693-11.957-16.999-55.637-16.999c-43.695,0-54.393,16.48-54.826,17.182C52.874,54.989,52.618,55.328,52.918,55.694
	L52.918,55.694z"/>
<path fill="#397FC2" d="M107.699,46.253c-32.386,0-41.872,13.669-43.597,16.747c-1.429-0.812-5.432-3.206-8.55-6.246l3.802,1.401
	c0.246,0.09,0.522,0.014,0.686-0.191c13.458-16.782,47.291-15.382,47.631-15.366c0.01,0,0.019-0.005,0.028-0.005
	c0.01,0,0.019,0.005,0.029,0.005c0.341-0.016,34.18-1.409,47.631,15.366c0.162,0.202,0.434,0.279,0.677,0.194l4.875-1.697
	c-2.931,2.929-7.794,5.737-9.398,6.626C149.769,60.025,140.134,46.253,107.699,46.253L107.699,46.253z"/>
<path fill="#FFFFFF" d="M51.43,56.423c-3.923,5.605-10.505,17.853-10.505,36.897c0,16.294,7.797,36.145,25.218,43.766
	c17.79,7.782,37.675,6.978,41.979,6.978c4.305,0,24.19,0.806,41.979-6.978c17.422-7.621,25.218-27.473,25.218-43.766
	c0-19.044-6.581-31.292-10.506-36.897c-0.135-0.191-0.367-0.287-0.597-0.247c-0.197-0.034-0.398,0.031-0.537,0.175
	c-0.018,0.018-0.443,0.456-1.252,1.183c-0.082,0.044-0.152,0.108-0.206,0.185c-2.696,2.397-9.061,7.483-18.482,11.487l-3.233,1.355
	c-6.5,2.705-13.454,5.603-19.541,10.062l-0.011,0.009c-5.231,3.833-9.821,8.823-12.932,15.842
	c-6.73-15.192-20.389-20.88-32.479-25.913l-3.232-1.355c-12.732-5.411-19.866-12.786-19.94-12.855
	C51.794,55.819,51.43,56.423,51.43,56.423z"/>
<path fill="#397FC2" d="M107.46,98.259c0,0.002,0.002,0.003,0.003,0.005c0.022,0.054,0.059,0.102,0.096,0.148
	c0.012,0.016,0.02,0.036,0.034,0.049c0.015,0.014,0.035,0.021,0.049,0.034c0.044,0.04,0.095,0.073,0.149,0.098l0.004,0.003
	c0.027,0.011,0.054,0.008,0.082,0.014c0.048,0.013,0.095,0.027,0.146,0.027s0.098-0.014,0.146-0.027
	c0.027-0.005,0.055-0.003,0.082-0.014c0.001-0.001,0.002-0.003,0.004-0.003c0.054-0.025,0.104-0.058,0.148-0.098
	c0.016-0.012,0.037-0.02,0.049-0.034c0.015-0.013,0.021-0.035,0.034-0.049c0.04-0.044,0.073-0.094,0.098-0.148l0.003-0.005
	c1.869-4.654,4.404-8.43,7.355-11.579c-0.935,3.162-0.95,5.389-0.95,5.504c0.005,0.337,0.282,0.607,0.619,0.602
	c0.226-0.003,0.431-0.13,0.534-0.33c0.188-0.375,1.077-1.258,1.648-1.766c0.116-0.104,0.188-0.249,0.201-0.405
	c0.283-3.384,3.206-7.918,3.716-8.686c2.548-1.866,5.252-3.455,8.013-4.87c-3.403,2.709-7.665,6.611-10.101,10.761
	c-0.167,0.293-0.064,0.666,0.229,0.833c0.239,0.136,0.54,0.095,0.734-0.1c0.053-0.054,5.438-5.457,18.568-9.096
	c3.04-0.843,10.809-3.59,20.139-9.033c0.135-0.079,0.234-0.206,0.277-0.356l3.664-11.292l0.221-0.201
	c-0.206,4.019-0.996,7.914-1.938,11.275c-1.182,0.768-9.238,5.921-16.128,8.447c-1.432,0.524-3.064,1.025-4.795,1.554
	c-10.151,3.109-23.973,7.353-32.572,25.667c-8.597-18.315-22.417-22.559-32.57-25.668c-1.73-0.53-3.364-1.03-4.794-1.555
	c-6.889-2.525-14.946-7.68-16.129-8.447c-1.522-3.408-2.071-7.185-2.314-10.413c3.289,13.097,17.491,17.73,24.057,19.848
	c9.897,3.192,15.585,6.414,15.641,6.447c0.29,0.168,0.662,0.07,0.831-0.22c0.1-0.172,0.109-0.383,0.024-0.563
	c-1.433-3.104-4.104-5.872-6.526-7.93C94.908,81.117,103.032,87.242,107.46,98.259z"/>
<path fill="#397FC2" d="M107.467,106.886c0.012,0.029,0.035,0.047,0.051,0.073c0.023,0.039,0.045,0.077,0.077,0.11
	c0.033,0.032,0.072,0.054,0.11,0.077c0.025,0.016,0.045,0.039,0.073,0.052c0.005,0.001,0.009,0,0.015,0.002
	c0.042,0.018,0.09,0.022,0.136,0.029c0.033,0.005,0.064,0.018,0.096,0.018c0.033,0,0.064-0.013,0.097-0.018
	c0.047-0.007,0.093-0.011,0.135-0.029c0.005-0.002,0.01-0.001,0.015-0.002c0.028-0.013,0.047-0.036,0.072-0.052
	c0.038-0.023,0.077-0.045,0.11-0.077c0.033-0.033,0.054-0.071,0.077-0.109c0.016-0.026,0.04-0.045,0.052-0.073
	c8.325-18.835,22.223-23.091,32.372-26.199c1.747-0.535,3.396-1.04,4.858-1.576c5.808-2.129,12.405-6.077,15.184-7.814
	c-1.454,4.669-3.054,7.993-3.369,8.633c-3.351,2.705-8.236,4.077-13.887,5.66c-6.4,1.792-13.656,3.825-20.407,8.362
	c-8.63,5.798-13.692,15.704-15.309,19.271c-1.617-3.568-6.679-13.473-15.308-19.271c-6.753-4.538-14.006-6.569-20.406-8.362
	c-5.651-1.583-10.537-2.955-13.886-5.66c-0.316-0.639-1.915-3.964-3.37-8.633c2.779,1.736,9.376,5.685,15.184,7.814
	c1.462,0.537,3.112,1.041,4.858,1.576C85.243,83.794,99.142,88.051,107.467,106.886L107.467,106.886z"/>
<path fill="#397FC2" d="M108.59,114.984c0.052-0.131,5.308-13.227,15.422-20.021c6.591-4.427,13.743-6.432,20.055-8.2
	c5.48-1.535,10.258-2.874,13.76-5.448c0.622,4.865,2.897,28.511-9.453,40.646c-11.959,11.753-32.27,12.655-40.253,12.497
	c-0.197-0.004,0.102,0,0,0c-0.002,0,0.002,0,0,0c-0.002,0,0.002,0,0,0c-0.101,0,0.197-0.004,0,0
	c-7.983,0.158-28.294-0.744-40.253-12.497C55.626,109.929,57.758,86.583,58.4,81.44c3.485,2.49,8.193,3.812,13.58,5.321
	c6.312,1.769,13.466,3.773,20.056,8.201c10.121,6.8,15.369,19.891,15.421,20.021C107.458,114.984,107.919,116.335,108.59,114.984
	L108.59,114.984z"/>
<path fill="#397FC2" d="M53.291,69.608c1.57,5.688,3.575,9.914,4.018,10.814c-0.395,2.555-3.566,25.568,7.217,39.591
	c-2.44-0.974-7.054-3.419-10.835-8.928C53.606,110.94,43.314,92.77,53.291,69.608L53.291,69.608z M158.906,80.226
	c-0.007-0.029-0.022-0.054-0.03-0.082c0.494-1.035,1.738-3.767,2.955-7.473c6.213,18.525,0.45,34.569,0.39,34.732l-0.021,0.064
	c-2.289,7.036-7.233,10.36-9.84,11.673C162.738,104.543,159.082,81.295,158.906,80.226L158.906,80.226z"/>
<path fill="#397FC2" d="M174.103,93.319c0,15.898-7.681,35.012-24.489,42.65c-15.165,6.894-38.223,7.045-41.491,7.045
	s-24.355,0.335-41.492-7.045c-16.128-6.944-23.718-24.885-24.427-40.291c3.65,10.906,9.096,15.576,10.105,16.371
	c4.298,12.762,15.309,21.651,31.862,25.709c6.85,1.679,16.499,2.193,21.941,2.327c-0.481,0.022,0.344,0.05,2.012,0.034
	c1.669,0.016,2.494-0.014,2.013-0.034c5.44-0.134,15.089-0.648,21.938-2.327c16.634-4.077,27.673-13.031,31.926-25.893
	c0.071-0.211,7.063-21.646-0.963-42.802c-0.022-0.057-0.057-0.102-0.092-0.148c0.843-3.194,1.527-6.804,1.725-10.526
	C168.541,64.349,174.103,75.937,174.103,93.319L174.103,93.319z"/>
<path fill="#FFFFFF" d="M164.356,163.999v14.437h-15.594c0,0-5.045-0.055-5.761-5.191c-1.257,3.733-3.794,5.132-6.545,5.132h-14.375
	v-14.682l-18.274,14.74H85.229c0,0-3.21-0.035-4.874-2.655v2.655h-6.654v-11.451c0,0,0.4-2.62-2.767-2.62h-2.152v14.071h-6.458
	v-14.071h-4.812v14.071h-6.762v-19.978h22.415c0,0,7.188-0.489,7.188,7.431v2.287c1.64-2.476,4.878-2.35,5.908-2.35h8.467
	c0,0,0.426-2.009-2.62-2.009H81.513v-5.359h13.339c0,0,5.971-0.246,5.971,5.541v8.896l18.212-14.437h17.911
	c0,0,6.883-0.246,6.883,8.831c0,0.349-0.009,0.68-0.021,1.009c1.612-2.604,4.941-2.472,5.99-2.472h8.469c0,0,0.424-2.009-2.62-2.009
	h-10.6v-5.359h13.339C158.385,158.458,164.356,158.212,164.356,163.999L164.356,163.999z"/>
<path fill="#FFFFFF" d="M105.878,178.436l7.189-5.906h7.918v5.906H105.878z M116.966,158.458l-7.188,5.906h-7.919v-5.906H116.966z"
	/>
<path fill="#397FC2" d="M151.137,170.305h6.976v2.62h-7.096c0,0-1.462,0.119-1.462-1.312
	C149.555,170.396,150.74,170.305,151.137,170.305L151.137,170.305z M87.651,170.305h6.974v2.62h-7.097c0,0-1.461,0.119-1.461-1.312
	C86.068,170.396,87.254,170.305,87.651,170.305z M134.63,172.529h-6.061v-8.469h6.122c0,0,2.924,0.243,2.924,3.99
	C137.615,171.767,136.243,172.529,134.63,172.529z"/>
<path fill="#FFFFFF" d="M168.801,164.074c1.536,0,2.786-1.247,2.786-2.783c0-1.537-1.25-2.786-2.786-2.786
	c-1.534,0-2.783,1.249-2.783,2.786C166.018,162.827,167.267,164.074,168.801,164.074L168.801,164.074z"/>
<path fill="#397FC2" d="M166.506,161.289c0-1.267,1.031-2.298,2.296-2.298c1.268,0,2.299,1.031,2.299,2.298
	c0,1.268-1.031,2.299-2.299,2.299C167.536,163.588,166.506,162.557,166.506,161.289z"/>
<path fill="#FFFFFF" d="M168.028,161.432h1.049c0.515,0,0.569,0.309,0.569,0.571c0,0.12,0.014,0.606,0.074,0.802h0.53v-0.069
	c-0.131-0.074-0.156-0.143-0.16-0.319l-0.026-0.581c-0.018-0.445-0.201-0.525-0.383-0.6c0.204-0.117,0.443-0.293,0.443-0.767
	c0-0.674-0.523-0.855-1.049-0.855h-1.479v3.191h0.431V161.432L168.028,161.432z"/>
<path fill="#397FC2" d="M168.028,159.979h1.079c0.215,0,0.576,0.039,0.576,0.537c0,0.473-0.335,0.553-0.652,0.553h-1.003V159.979z"
	/>

</svg>
