<?xml version="1.0" encoding="utf-8"?>
<!DOCTYPE svg PUBLIC "-//W3C//DTD SVG 1.1//EN" "http://www.w3.org/Graphics/SVG/1.1/DTD/svg11.dtd">
<svg version="1.1" id="Layer_1" xmlns="http://www.w3.org/2000/svg" xmlns:xlink="http://www.w3.org/1999/xlink" x="0px" y="0px" width="216px" height="216px" viewBox="0 0 216 216" enable-background="new 0 0 216 216" xml:space="preserve">
<rect fill="#FFFFFF" width="216" height="216"/>
<g>
	<path d="M27.764,194.695h1.167v-5.505h6.072v5.505h1.176v-11.73h-1.176v5.166h-6.072v-5.166h-1.167"/>
	<path d="M40.817,188.9c0-2.924,2.379-5.073,5.031-5.073c2.767,0,5.031,2.276,5.031,5.02c0,2.787-2.321,4.986-5.031,4.986
		C43.119,193.833,40.817,191.569,40.817,188.9 M39.648,188.9c0,3.288,2.868,6.005,6.2,6.005c3.272,0,6.208-2.615,6.208-6.075
		c0-3.456-2.917-6.072-6.208-6.072C42.717,182.758,39.648,185.203,39.648,188.9"/>
	<path d="M56.633,194.695h1.176v-10.667h2.673v-1.063h-6.541v1.063h2.692"/>
	<path d="M63.291,194.695h6.422v-1.061h-5.255v-4.331h5.073v-1.063h-5.073v-4.213h5.255v-1.063h-6.422"/>
	<path d="M73.555,194.695h6.019v-1.061h-4.847v-10.67h-1.171"/>
	<path d="M81.511,191.415c0.046,2.584,2.093,3.49,3.617,3.49c2.076,0,3.528-1.639,3.528-3.442c0-0.348,0.013-2.616-2.863-3.398
		c-1.541-0.44-2.791-0.769-2.791-2.193c0-1.021,0.773-2.044,2.125-2.044c1.101,0,2.076,0.932,2.076,2.118h1.169
		c0-1.71-1.328-3.188-3.245-3.188c-1.861,0-3.302,1.333-3.302,3.162c0,2.321,1.983,2.773,3.044,3.086
		c0.792,0.235,2.616,0.689,2.616,2.501c0,1.376-1.125,2.326-2.358,2.326c-1.447,0-2.383-0.95-2.445-2.418"/>
	<path d="M103.343,185.391c0.033,1.249-1.38,1.725-1.95,1.948c-0.65-0.571-1.314-1.209-1.332-1.996c0-0.73,0.653-1.446,1.635-1.478
		C102.672,183.865,103.375,184.626,103.343,185.391 M103.87,191.432c-0.442,0.872-1.198,2.349-2.773,2.349
		c-1.174,0-2.427-0.984-2.427-2.414c0-0.649,0.221-1.381,1.214-2.11l1.159-0.599L103.87,191.432z M106.16,187.053l-1.704,3.298
		l-2.226-2.181c0.614-0.207,2.289-0.997,2.289-2.668c0-1.571-1.371-2.744-2.806-2.744c-1.49,0-2.823,1.107-2.823,2.603
		c0,1.14,0.73,1.868,1.316,2.458c-1.362,0.611-2.707,1.648-2.707,3.49c0,1.765,1.455,3.584,3.687,3.584
		c2.189,0,3.156-1.847,3.57-2.62l2.68,2.62l0.837-0.823l-2.967-2.878l2.172-4.139"/>
	<path d="M117.269,194.695h1.177v-10.667h2.04c0.989,0,1.59,0.079,2.286,0.44c0.761,0.382,1.283,1.332,1.283,2.25
		c0,1.043-0.647,2.128-1.937,2.484c-0.519,0.163-1.026,0.176-2.516,0.176l3.976,5.316h1.471l-3.31-4.38
		c2.27-0.136,3.49-1.864,3.49-3.565c0-1.434-0.778-2.722-2.088-3.341c-0.545-0.255-1.319-0.444-2.892-0.444h-2.981"/>
	<path d="M128.474,194.695h6.421v-1.061h-5.244v-4.331h5.073v-1.063h-5.073v-4.213h5.244v-1.063h-6.421"/>
	<path d="M137.793,191.415c0.046,2.584,2.093,3.49,3.616,3.49c2.074,0,3.533-1.639,3.533-3.442c0-0.348,0.013-2.616-2.872-3.398
		c-1.536-0.44-2.787-0.769-2.787-2.193c0-1.021,0.778-2.044,2.126-2.044c1.105,0,2.074,0.932,2.074,2.118h1.171
		c0-1.71-1.333-3.188-3.245-3.188c-1.855,0-3.296,1.333-3.296,3.162c0,2.321,1.981,2.773,3.039,3.086
		c0.792,0.235,2.615,0.689,2.615,2.501c0,1.376-1.12,2.326-2.358,2.326c-1.446,0-2.383-0.95-2.44-2.418"/>
	<path d="M148.771,188.9c0-2.924,2.381-5.073,5.021-5.073c2.778,0,5.044,2.276,5.044,5.02c0,2.787-2.328,4.986-5.044,4.986
		C151.068,193.833,148.771,191.569,148.771,188.9 M147.602,188.9c0,3.288,2.863,6.005,6.19,6.005c3.287,0,6.218-2.615,6.218-6.075
		c0-3.456-2.918-6.072-6.218-6.072C150.673,182.758,147.602,185.203,147.602,188.9"/>
	<path d="M163.378,194.695h1.172v-10.667h2.054c0.976,0,1.581,0.079,2.279,0.44c0.764,0.382,1.283,1.332,1.283,2.25
		c0,1.043-0.653,2.128-1.934,2.484c-0.528,0.163-1.026,0.176-2.521,0.176l3.977,5.316h1.475l-3.313-4.38
		c2.264-0.136,3.488-1.864,3.488-3.565c0-1.434-0.772-2.722-2.091-3.341c-0.533-0.255-1.311-0.444-2.883-0.444h-2.987"/>
	<path d="M176.363,194.695h1.172v-10.667h2.681v-1.063h-6.548v1.063h2.695"/>
	<path d="M182.256,191.415c0.051,2.584,2.095,3.49,3.612,3.49c2.075,0,3.539-1.639,3.539-3.442c0-0.348,0.009-2.616-2.867-3.398
		c-1.54-0.44-2.793-0.769-2.793-2.193c0-1.021,0.771-2.044,2.121-2.044c1.113,0,2.075,0.932,2.075,2.118h1.177
		c0-1.71-1.33-3.188-3.252-3.188c-1.852,0-3.296,1.333-3.296,3.162c0,2.321,1.981,2.773,3.043,3.086
		c0.794,0.235,2.616,0.689,2.616,2.501c0,1.376-1.126,2.326-2.363,2.326c-1.44,0-2.376-0.95-2.44-2.418"/>
	<path d="M29.063,165.043c-3.21,4.278-7.051,4.445-8.224,4.445c-5.085,0-9.901-4.48-9.901-9.967c0-5.24,4.377-10.063,9.865-10.063
		c1.432,0,5.592,0.442,8.16,4.281h2.635c-0.917-2.19-4.731-6.41-10.759-6.41c-6.696,0-12.255,5.207-12.255,12.153
		c0,6.954,5.717,12.135,12.285,12.135c3.781,0,8.321-1.975,10.823-6.574"/>
	<path d="M39.292,159.588c0-5.849,4.764-10.165,10.063-10.165c5.557,0,10.095,4.573,10.095,10.06
		c0,5.592-4.665,10.006-10.095,10.006C43.894,169.488,39.292,164.942,39.292,159.588 M36.946,159.588
		c0,6.599,5.745,12.029,12.409,12.029c6.575,0,12.449-5.236,12.449-12.157c0-6.924-5.844-12.17-12.449-12.17
		C43.102,147.29,36.946,152.185,36.946,159.588"/>
	<path d="M67.044,171.194h2.354v-20.667h0.063l13.931,20.667h2.351v-23.482h-2.351v19.486h-0.059l-13.11-19.486h-3.178"/>
	<path d="M111.464,165.043c-3.202,4.278-7.046,4.445-8.222,4.445c-5.074,0-9.895-4.48-9.895-9.967c0-5.24,4.375-10.063,9.869-10.063
		c1.426,0,5.584,0.442,8.154,4.281h2.638c-0.923-2.19-4.73-6.41-10.765-6.41c-6.693,0-12.249,5.207-12.249,12.153
		c0,6.954,5.713,12.135,12.282,12.135c3.78,0,8.317-1.975,10.822-6.574"/>
	<path d="M121.698,159.588c0-5.849,4.761-10.165,10.065-10.165c5.555,0,10.092,4.573,10.092,10.06
		c0,5.592-4.669,10.006-10.092,10.006C126.295,169.488,121.698,164.942,121.698,159.588 M119.345,159.588
		c0,6.599,5.751,12.029,12.419,12.029c6.568,0,12.443-5.236,12.443-12.157c0-6.924-5.84-12.17-12.443-12.17
		C125.508,147.29,119.345,152.185,119.345,159.588"/>
	<path d="M149.451,171.194h2.349v-21.354h4.099c1.967,0,3.17,0.153,4.57,0.883c1.526,0.757,2.574,2.669,2.574,4.503
		c0,2.104-1.306,4.256-3.876,4.99c-1.048,0.32-2.062,0.352-5.047,0.352l7.965,10.626h2.955l-6.634-8.753
		c4.538-0.286,6.978-3.747,6.978-7.144c0-2.887-1.552-5.457-4.188-6.702c-1.075-0.51-2.634-0.884-5.775-0.884h-5.97"/>
	<path d="M172.986,149.841h3.396c3.451,0,5.649,0.435,7.746,1.802c2.44,1.785,3.999,4.664,3.999,7.786
		c0,4.085-2.255,6.534-3.683,7.742c-2.696,1.9-5.935,1.9-8.063,1.9h-3.396V149.841z M170.632,171.194h6.861
		c2.889,0,5.749-0.685,7.649-1.934c4.473-2.855,5.33-7.55,5.33-9.739c0-2.832-1.201-7.307-5.33-9.871
		c-1.9-1.244-4.761-1.938-7.649-1.938h-6.861"/>
	<path d="M195.721,171.194h12.863v-2.124h-10.513v-8.661h10.157v-2.124h-10.157v-8.444h10.513v-2.129h-12.863"/>
</g>
<g>
	<path fill="#ABA297" d="M64.736,96.103h21.922v21.933"/>
	<path fill="#ABA297" d="M86.658,96.103h21.919v21.933"/>
	<path fill="#ABA297" d="M108.577,96.103h21.935v21.933"/>
	<path fill="#ABA297" d="M130.51,96.103h21.924v21.933"/>
	<path fill="#ABA297" d="M64.736,74.195h21.922v21.908"/>
	<path fill="#ABA297" d="M86.658,74.195h21.919v21.908"/>
	<path fill="#ABA297" d="M108.577,74.195h21.935v21.908"/>
	<path fill="#ABA297" d="M130.51,74.195h21.924v21.908"/>
	<path fill="#ABA297" d="M64.736,52.254h21.922v21.941"/>
	<path fill="#ABA297" d="M86.658,52.254h21.919v21.941"/>
	<path fill="#ABA297" d="M108.577,52.254h21.935v21.941"/>
	<path fill="#ABA297" d="M130.51,52.254h21.924v21.941"/>
	<path fill="#ABA297" d="M64.736,30.335h21.922v21.919"/>
	<path fill="#ABA297" d="M86.658,30.335h21.919v21.919"/>
	<path fill="#ABA297" d="M108.577,30.335h21.935v21.919"/>
	<path d="M130.51,30.335h21.924v21.919"/>
</g>
<g>
</g>
<g>
</g>
<g>
</g>
<g>
</g>
<g>
</g>
<g>
</g>
</svg>
