<?xml version="1.0" encoding="utf-8"?>
<!DOCTYPE svg PUBLIC "-//W3C//DTD SVG 1.1//EN" "http://www.w3.org/Graphics/SVG/1.1/DTD/svg11.dtd">
<svg version="1.1" xmlns="http://www.w3.org/2000/svg" xmlns:xlink="http://www.w3.org/1999/xlink" x="0px" y="0px" width="216px" height="216px" viewBox="0 0 216 216" enable-background="new 0 0 216 216" xml:space="preserve">
<g id="Layer_1">
	<g>
		<polygon fill="#C3004A" points="194.697,138.842 108.002,163.417 21.303,138.842 21.303,78.257 108.002,52.583 194.697,78.257 		
			"/>
		<polygon fill="#FFFFFF" points="190.215,135.455 108.002,158.74 25.785,135.455 25.785,81.6 108.002,57.257 190.215,81.6 		"/>
		<polygon fill="#004489" points="188.555,134.211 108.002,157.08 27.439,134.201 27.439,82.843 108.002,58.909 188.555,82.835 		
			"/>
		<polygon fill="#C3004A" points="188.749,146.866 188.749,143.69 187.548,143.69 187.548,143.263 190.453,143.263 190.453,143.69 
			189.252,143.69 189.252,146.866 		"/>
		<polygon fill="#C3004A" points="190.938,143.263 191.817,143.263 192.837,146.229 193.875,143.263 194.697,143.263 
			194.697,146.866 194.207,146.866 194.207,143.625 193.032,146.866 192.551,146.866 191.416,143.643 191.416,146.866 
			190.938,146.866 		"/>
		<rect x="64.079" y="133.11" fill-rule="evenodd" clip-rule="evenodd" fill="#FFFFFF" width="13.859" height="0.889"/>
		<rect x="138.062" y="133.11" fill-rule="evenodd" clip-rule="evenodd" fill="#FFFFFF" width="13.853" height="0.889"/>
		<g>
			<defs>
				<rect id="SVGID_1_" y="27" width="216" height="162"/>
			</defs>
			<clipPath id="SVGID_2_">
				<use xlink:href="#SVGID_1_"  overflow="visible"/>
			</clipPath>
			<path clip-path="url(#SVGID_2_)" fill="#FFFFFF" d="M84.822,133.309c-0.737,0-1.152,0.434-1.338,0.632v-3.14H83.48v-0.009h-1.873
				v0.455h0.611v5.899h-0.611v0.473h1.873v-0.018h0.004v-0.397c0.168,0.169,0.543,0.548,1.23,0.548c0.927,0,1.864-0.649,1.864-2.287
				C86.578,133.989,85.828,133.309,84.822,133.309 M85.18,136.666l-0.863,0.459l-0.711-0.459l-0.117-0.915
				c0-0.428,0-0.604,0.013-0.781c0.077-0.821,0.548-0.944,0.883-0.954h0.009c0.307,0,0.813,0.133,0.885,0.954
				c0.018,0.177,0.018,0.354,0.018,0.781L85.18,136.666z"/>
			<path clip-path="url(#SVGID_2_)" fill="#FFFFFF" d="M90.042,133.737v0.455h0.523l-0.808,1.96l-0.941-1.96h0.51v-0.455H86.89
				v0.455h0.565l1.817,3.661l-0.371,0.94l-0.212,0.353l-0.216-0.097l-0.501-0.265c-0.448,0-0.676,0.243-0.676,0.68
				c0,0.337,0.206,0.693,0.647,0.693c0.574,0,1.13-0.371,1.397-0.936l2.162-5.03h0.591v-0.455H90.042z"/>
			<polygon clip-path="url(#SVGID_2_)" fill="#FFFFFF" points="100.279,137.619 100.279,137.155 101.44,137.155 101.44,133.212 
				98.333,133.212 98.333,137.155 99.528,137.155 99.528,137.619 95.251,137.619 95.251,137.155 96.335,137.155 96.335,129.123 
				95.251,129.123 95.251,128.668 99.528,128.668 99.528,129.123 98.333,129.123 98.333,132.683 101.44,132.683 101.44,129.123 
				100.279,129.123 100.279,128.668 104.516,128.668 104.516,129.123 103.436,129.123 103.436,137.155 104.516,137.155 
				104.516,137.619 			"/>
			<path clip-path="url(#SVGID_2_)" fill="#FFFFFF" d="M105.207,137.619v-0.459h1.044v-5.503h-1.044v-0.455h2.97v5.958h0.974v0.459
				H105.207z M106.161,128.673h1.941v1.06h-1.941V128.673z"/>
			<polygon clip-path="url(#SVGID_2_)" fill="#FFFFFF" points="109.569,137.619 109.569,137.155 110.643,137.155 110.643,127.947 
				109.569,127.947 109.569,127.489 112.6,127.489 112.6,137.155 113.602,137.155 113.602,137.619 			"/>
			<path clip-path="url(#SVGID_2_)" fill="#FFFFFF" d="M116.627,137.619c-1.06,0-1.63-0.548-1.63-1.386v-4.581h-1.047v-0.454h1.047
				v-2.548c0.588,0,1.206,0.018,1.802,0v2.548h1.502v0.454h-1.502v5.503h1.537v0.464H116.627"/>
			<path clip-path="url(#SVGID_2_)" fill="#FFFFFF" d="M123.516,132.232c-0.256-0.562-0.716-0.809-1.307-0.809
				c-1.52,0-1.555,1.559-1.555,2.91c0,1.823,0.164,2.155,0.287,2.376c0.189,0.361,0.6,0.706,1.285,0.706
				c1.519,0,1.519-1.638,1.492-3.145C123.719,132.638,123.604,132.436,123.516,132.232 M125.617,135.686
				c-0.22,0.608-1.131,2.092-3.355,2.092c-2.473,0-3.732-1.695-3.732-3.417c0-2.39,2.116-3.374,3.697-3.374
				c1.395,0,3.426,0.844,3.585,3.272C125.839,134.73,125.794,135.243,125.617,135.686"/>
			<path clip-path="url(#SVGID_2_)" fill="#FFFFFF" d="M130.996,137.619v-0.464h0.856v-3.779c0-0.853,0-1.691-0.944-1.691
				c-0.525,0-1.396,0.53-1.604,1.396c-0.075,0.264-0.058,0.547-0.058,1.254v2.821h0.973v0.464h-3.949v-0.464h1.052v-5.503h-1.052
				v-0.454h2.977v0.977c0.337-0.42,0.592-0.717,1.22-0.968c0.458-0.185,0.865-0.229,1.166-0.229c0.114,0,0.467,0,0.878,0.115
				c1.241,0.365,1.294,1.307,1.294,1.987v4.075h1.024v0.464H130.996"/>
			<path clip-path="url(#SVGID_2_)" fill="#FFFFFF" d="M183.309,97.323c-1.025,0.208-0.721,0.777-0.619,4.558
				c0.106,3.789-3.78,9.28-6.191,11.196c-2.393,1.914-5.771,3.266-7.975,1.194c-2.199-2.075-0.15-7.516,1.488-11.865
				c1.634-4.361,1.89-5.758,1.634-7.362c-0.252-1.611-2.813-1.556-3.939-1.09c-1.126,0.465-3.938,2.952-3.938,2.952l0.208-2.59
				l-3.64-0.1c-0.199,0.98-1.475,3.21-2.76,4.557c-1.276,1.347-2.602,1.601-2.602,1.601s0-0.614,0.098-2.684
				c0.105-2.076-1.842-3.84-3.427-4.048c-1.581-0.209-4.752,0.153-7.313,3.626c-2.553,3.477-3.175,8.09-3.175,8.09
				c-0.507,1.083-2.658,3.155-3.735,3.835c-1.073,0.674-1.891,1.188-1.073-2.85c0.821-4.047,3.586-11.042,3.586-11.042h3.828
				l0.005-1.298l-3.586-0.048l2.054-6.739l-4.395,0.625l-2,6.063l-3.224,0.051v1.293h2.866c0,0-1.432,4.359-1.591,5.078
				c-0.149,0.727-2.455,6.018-2.092,9.279c0.424,3.884,3.938,2.438,5.52,1.505c1.589-0.936,4.045-3.68,4.045-3.68
				c0.468,4.354,4.649,5.441,8.346,3.473c3.67-1.971,4.902-8.71,4.902-8.71c1.378,0.051,3.832-2.179,3.832-2.179l-3.832,11.559
				h4.195c1.938-7.149,4.654-11.707,5.775-13.263c1.122-1.559,2.305-2.124,2.716-1.713c0.406,0.419-0.361,2.021-1.594,5.187
				c-1.223,3.162-2.341,6.529-1.73,10.053c0.608,3.521,2.507,4.925,6.244,5.132c3.722,0.208,8.689-2.438,11.711-7.051
				c3.012-4.612,2.906-7.564,3.012-9.743C185.043,97.997,184.333,97.114,183.309,97.323 M150.157,107.014
				c-0.914,1.813-2.248,3.471-3.476,2.901c-1.223-0.568-0.962-4.612-0.3-7.049c0.662-2.431,2.093-4.666,2.093-4.666
				s0.204,2.283,3.171,4.151C151.646,102.351,151.084,105.199,150.157,107.014 M152.26,100.591c0,0-1.176-0.157-1.842-2.025
				c-0.671-1.868-0.354-2.696-0.354-2.696s0.861-1.036,1.943-0.673C153.076,95.559,152.767,99.037,152.26,100.591"/>
			<path clip-path="url(#SVGID_2_)" fill="#FFFFFF" d="M128.471,93.488c-2.836-0.444-4.606,1.912-4.606,1.912l-0.193-1.549h-3.44
				l-3.321,10.26c-1.122,2.332-2.959,4.091-4.597,4.972c-1.644,0.888-1.334-1.499-0.623-3.466c0.725-1.967,2.509-6.065,3.18-8.814
				c0.657-2.745-1.024-3.884-3.329-3.266c-2.306,0.621-5.419,4.617-5.419,4.617c0.511-4.511-1.687-4.924-3.274-4.462
				c-1.588,0.466-4.398,3.058-4.398,3.058c0.256-0.724,0.256-3.213,0.256-3.213H94.92c0,0-2.966,9.954-3.482,10.94
				c-0.316,0.614-3.164,4.502-4.445,4.299c-1.281-0.208-0.724-2.076-0.104-3.939c0.613-1.861,3.576-11.349,3.576-11.349h-4.345
				l-0.557,1.19c-0.724-1.864-4.924-2.126-8.03,1.192c-3.127,3.318-4.246,7.878-4.564,10.83c-0.303,2.959,0.104,4.82,2.921,4.82
				c2.813,0,5.88-3.725,5.88-3.725c0,2.586,0.668,3.987,2.97,3.938c2.307-0.055,5.423-3.32,5.423-3.32l-0.974,2.798h4.447
				c0.821-3.055,2.866-8.138,3.841-10.209c0.97-2.071,2.2-3.735,3.326-4.146c1.121-0.417,1.581,0.466,1.329,1.342
				c-0.258,0.886-4.094,13.113-4.094,13.113l3.935,0.056c0,0,2.102-5.807,3.232-8.502c1.121-2.694,2.7-5.175,4.138-6.218
				c1.426-1.034,1.068,0.209,0.769,1.349c-0.305,1.135-3.224,8.916-3.526,10.261c-0.312,1.347,0.302,3.63,2.7,3.681
				c2.402,0.048,6.04-3.681,6.04-3.681l-3.072,10.001l4.346,0.106l2.508-7.622c0.618,0.569,0.672,0.881,2.924,1.04
				c2.251,0.155,5.828-3.11,7.414-6.896C131.031,101.108,131.593,93.972,128.471,93.488 M84.127,100.326
				c-0.814,2.337-1.886,4.874-3.122,6.223c-1.23,1.347-2.703,2.125-3.427,1.866c-0.72-0.256-0.307-3.215,0.616-5.752
				c0.916-2.542,2.4-5.235,3.577-6.068c1.179-0.828,2.305-0.876,2.607-0.724C84.697,96.025,84.944,97.997,84.127,100.326
				 M125.556,103.546c-1.484,3.625-3.886,6.162-4.813,5.904c-0.91-0.257-0.707-3.314,0.826-7.258
				c1.536-3.937,3.604-6.584,4.605-6.167C126.796,96.283,127.044,99.914,125.556,103.546"/>
			<path clip-path="url(#SVGID_2_)" fill="#FFFFFF" d="M54.156,98.615h-3.995l0.056,1.819l3.374,0.048c0,0-1.384,6.273-3.632,10.782
				c-2.251,4.509-4.97,8.347-9.004,7.878c-3.915-0.455-7.275-3.7-7.578-9.512c-0.289-5.485,0.246-7.914,3.129-10.96
				c1.177-1.243,1.078-2.952-0.816-2.438c-1.897,0.517-3.107,1.731-4.043,5.237c-1.23,4.608-0.603,11.562,2.331,15.491
				c3.46,4.654,10.13,5.405,14.195,1.869c2.646-2.302,5.726-6.322,7.556-10.831c1.855-4.509,2.822-7.362,2.822-7.362h7.01
				c0,0-6.648,16.17,1.834,20.422c0,0-1.631-4.143-0.51-8.651c1.126-4.513,3.327-10.989,3.837-11.718l1.022,0.016
				c0.21,0,0.798-0.016,1.259-0.016c0.135-0.735,0.294-1.813,0.294-1.813l-2.002-0.004c0,0,1.32-4.815,2.703-7.872
				c1.375-3.062,3.016-5.703,5.476-7.934c0,0-1.998-0.777-5.779,2.127c-3.784,2.903-7.62,13.678-7.62,13.678l-6.86-0.1
				c0,0,1.13-4.557,3.016-8.344c1.895-3.785,3.585-6.275,3.585-6.275s-7.418,1.872-8.596,2.075c-1.174,0.207-5.795,1.316-7.582,2.14
				c-1.795,0.837-2.559,3.318-1.895,3.681c0.665,0.367,2.046-0.724,3.268-1.605c1.234-0.883,6.726-3.8,9.741-3.696
				C60.753,86.749,57.22,90.169,54.156,98.615"/>
		</g>
	</g>
</g>
<g id="katman_1">
	<g>
	</g>
	<g>
	</g>
	<g>
	</g>
	<g>
	</g>
	<g>
	</g>
	<g>
	</g>
</g>
</svg>
