<?xml version="1.0" encoding="utf-8"?>
<!DOCTYPE svg PUBLIC "-//W3C//DTD SVG 1.1//EN" "http://www.w3.org/Graphics/SVG/1.1/DTD/svg11.dtd">
<svg version="1.1" id="Layer_1" xmlns="http://www.w3.org/2000/svg" xmlns:xlink="http://www.w3.org/1999/xlink" x="0px" y="0px" width="216px" height="216px" viewBox="0 0 216 216" enable-background="new 0 0 216 216" xml:space="preserve">
<g>
	<path fill-rule="evenodd" clip-rule="evenodd" fill="#005395" d="M55-1h108.002C192.701-1,217,23.3,217,53v108.002
		c0,29.7-24.299,53.998-53.998,53.998H55c-29.7,0-54-24.298-54-53.998V53C1,23.3,25.3-1,55-1z"/>
	<path fill-rule="evenodd" clip-rule="evenodd" fill="#FFFFFF" d="M109.265,51.297l0.8,0.339c3.703,4.504,7.268,9.32,7.169,14.167
		c-0.229,11.249-12.47,16.398-13.689,27.583c-0.667,6.115,2.313,12.277,4.944,18.263l-0.629-0.268
		c-3.985-6.397-9.541-11.773-9.627-19.017c-0.118-9.868,9.813-15.264,12.259-24.824c0.741-2.901-1.544-6.622-3.977-9.031
		c-0.173,2.124-0.227,5.42-0.927,7.703c-1.935,6.308-14.745,11.073-14.813,20.84c-0.058,8.216,6.141,14.809,11.005,21.75
		L73.51,96.809L37.755,81.638l35.755-15.17l29.533-12.531l0.147-0.062l3.538-1.501L109.265,51.297L109.265,51.297z M89.753,99.312
		c-6.006-8.646-6.764-17.576-0.511-25.948c-7.492,3.201-14.312,6.138-15.63,12.055C72.005,92.631,80.166,96.315,89.753,99.312
		L89.753,99.312z M117.97,52.456c2.938,5.887,7.339,14.068,6.006,21.725c-1.124,6.455-13.614,14.794-15.221,21.146
		c-1.364,5.392,0.932,10.409,3.9,15.709l32.365-14.228l33.917-14.354L117.97,52.456L117.97,52.456z M127.961,65.399
		c1.013,3.354,2.166,9.304,1.591,12.608c-0.882,5.063-3.177,7.286-6.654,10.831c-1.482,1.511-6.303,5.732-6.808,7.726
		c-0.556,2.196-0.303,3.784,0.841,6.556l49.516-20.868L129.2,64.4C127.728,63.758,127.264,63.092,127.961,65.399z"/>
	<path fill="#FFFFFF" d="M128.19,140.785c0.123-0.874,0.382-1.602,0.776-2.173c0.394-0.577,0.899-1.046,1.52-1.407
		s1.326-0.663,2.125-0.9c0.798-0.237,1.666-0.458,2.599-0.663c0.464-0.097,0.943-0.227,1.444-0.377
		c0.496-0.146,0.976-0.352,1.45-0.604c0.47-0.253,0.896-0.582,1.283-0.986c0.383-0.404,0.695-0.911,0.938-1.521
		c0.237-0.609,0.377-1.343,0.415-2.205h-5.435c-0.055,0.302-0.227,0.533-0.512,0.695c-0.291,0.156-0.69,0.286-1.208,0.388
		c-0.513,0.103-1.138,0.227-1.871,0.373c-0.609,0.118-1.262,0.28-1.957,0.479c-0.689,0.205-1.392,0.479-2.092,0.836
		c-0.706,0.355-1.375,0.819-2.017,1.391c-0.642,0.576-1.207,1.294-1.715,2.156c-0.501,0.857-0.895,1.898-1.186,3.116
		c-0.291,1.214-0.442,2.642-0.447,4.281c-0.006,0.409,0.016,0.9,0.054,1.482c0.038,0.577,0.124,1.202,0.259,1.876
		s0.334,1.359,0.609,2.049c0.274,0.69,0.642,1.359,1.104,1.989c0.464,0.637,1.047,1.203,1.747,1.704
		c0.701,0.502,1.543,0.9,2.529,1.191c0.156,0.046,0.316,0.088,0.48,0.127l0.05-7.362c-0.012-0.134-0.018-0.271-0.019-0.414
		c0-0.592,0.102-1.102,0.292-1.539c0.197-0.437,0.479-0.774,0.844-1.018c0.366-0.238,0.811-0.36,1.327-0.365
		c0.529,0.005,0.979,0.127,1.355,0.365c0.371,0.243,0.652,0.581,0.85,1.018c0.191,0.438,0.292,0.947,0.292,1.539
		c-0.005,0.901-0.219,1.61-0.652,2.12c-0.328,0.381-0.76,0.623-1.297,0.72l2.704,4.951c0.215-0.052,0.424-0.109,0.625-0.174
		c0.987-0.313,1.833-0.739,2.545-1.289s1.294-1.186,1.752-1.897c0.459-0.717,0.799-1.482,1.015-2.297
		c0.221-0.814,0.328-1.639,0.328-2.479c0-0.69-0.086-1.386-0.264-2.087c-0.184-0.7-0.459-1.369-0.831-2
		c-0.377-0.637-0.852-1.202-1.434-1.704c-0.582-0.496-1.278-0.89-2.081-1.175c-0.804-0.291-1.725-0.437-2.766-0.442
		c-0.776-0.005-1.493,0.065-2.157,0.205c-0.663,0.14-1.267,0.372-1.811,0.701c-0.545,0.329-1.035,0.771-1.467,1.326H128.19
		L128.19,140.785z M130.159,148.784c0.121,0.086,0.252,0.158,0.392,0.218l2.694,5.349c-0.333,0.029-0.679,0.047-1.034,0.052
		L130.159,148.784L130.159,148.784z M34.897,153.724h7.246v-6.922l3.947,6.922h8.281l-6.114-8.28l5.532-7.344h-8.055l-3.591,6.373
		V138.1h-5.002h-2.244h-4.743l-2.361,6.794l-3.332-6.794h-8.152l8.12,13.813l-4.044,8.151h7.246l7.266-16.781V153.724
		L34.897,153.724z M54.692,138.1v21.965h6.513v-7.698l0.018,0.018l0.043-5.859c-0.029-0.198-0.045-0.408-0.047-0.628
		c0.005-0.61,0.125-1.138,0.351-1.597c0.231-0.452,0.55-0.809,0.96-1.062c0.404-0.254,0.873-0.377,1.407-0.383
		c0.533,0.006,1.002,0.129,1.407,0.383c0.41,0.253,0.728,0.609,0.96,1.062c0.232,0.459,0.345,0.986,0.35,1.597
		c-0.005,0.63-0.118,1.169-0.35,1.628c-0.232,0.458-0.55,0.813-0.96,1.067c-0.328,0.201-0.7,0.321-1.114,0.361l3.359,5.369
		c0.705-0.104,1.354-0.308,1.95-0.608c0.884-0.453,1.633-1.079,2.248-1.865c0.615-0.788,1.084-1.693,1.402-2.713
		c0.323-1.019,0.485-2.097,0.485-3.239c-0.005-1.154-0.146-2.185-0.42-3.096c-0.275-0.91-0.652-1.703-1.126-2.377
		s-1.019-1.235-1.634-1.677c-0.609-0.447-1.256-0.776-1.93-0.997c-0.679-0.222-1.358-0.329-2.038-0.329
		c-0.361-0.006-0.754,0.026-1.186,0.092c-0.437,0.064-0.879,0.178-1.343,0.35c-0.458,0.168-0.906,0.405-1.343,0.718
		c-0.437,0.313-0.841,0.712-1.208,1.202V138.1H54.692L54.692,138.1z M64.777,154.225l-2.285-5.655
		c0.012,0.007,0.024,0.015,0.037,0.022c0.092,0.057,0.188,0.106,0.287,0.15l3.226,5.651c-0.137-0.008-0.286-0.02-0.445-0.033
		C65.342,154.337,65.069,154.294,64.777,154.225L64.777,154.225z M107.615,138.1v0.595c1.512-0.544,3.452-1.027,4.957-1.177
		c0.712-0.07,1.369-0.103,1.973-0.097c1.197,0.005,2.243,0.118,3.144,0.351c0.896,0.231,1.645,0.555,2.243,0.965
		c0.599,0.409,1.046,0.884,1.348,1.429c0.296,0.539,0.447,1.127,0.447,1.752c-0.005,0.539-0.097,1.014-0.275,1.424
		c-0.178,0.415-0.409,0.766-0.689,1.057c-0.285,0.296-0.582,0.539-0.905,0.732c-0.318,0.189-0.62,0.34-0.911,0.442v0.065
		c0.851,0.172,1.553,0.452,2.103,0.852c0.55,0.398,0.954,0.862,1.218,1.391c0.27,0.523,0.399,1.057,0.399,1.607
		c0.006,0.403-0.075,0.835-0.232,1.282c-0.161,0.447-0.42,0.885-0.787,1.315c-0.366,0.426-0.862,0.814-1.482,1.165
		s-1.391,0.625-2.307,0.835c-0.923,0.205-2.012,0.313-3.278,0.319c-0.755,0-1.461-0.038-2.108-0.108
		c-0.652-0.076-1.271-0.184-1.865-0.329c-0.426-0.104-0.85-0.229-1.27-0.37v-5.197c0.642,0.389,1.241,0.691,1.793,0.898
		c0.587,0.227,1.109,0.383,1.563,0.464c0.459,0.081,0.842,0.118,1.144,0.113c0.464-0.006,0.841-0.07,1.138-0.194
		c0.296-0.119,0.518-0.28,0.657-0.475c0.141-0.199,0.211-0.404,0.211-0.625c-0.006-0.227-0.075-0.404-0.216-0.534
		c-0.141-0.129-0.318-0.227-0.533-0.291c-0.217-0.064-0.443-0.103-0.67-0.124c-0.231-0.016-0.436-0.021-0.619-0.021h-2.686v-3.623
		h3.009c0.578,0,1.869-0.109,1.848-0.971c-0.026-1.039-1.646-1.491-2.462-1.493c-1.211-0.004-4.35,0.543-5.895,1.09v11.11h-7.02
		v-1.616c-0.21,0.253-0.464,0.518-0.766,0.781s-0.658,0.513-1.068,0.744c-0.415,0.227-0.889,0.409-1.423,0.555
		c-0.539,0.141-1.143,0.211-1.822,0.217c-0.722,0-1.429-0.119-2.124-0.356c-0.69-0.231-1.337-0.582-1.941-1.046
		c-0.452-0.344-0.859-0.747-1.229-1.212c-1.467,0.82-4.829,2.259-6.12,2.451c-0.723,0.108-1.537,0.163-2.442,0.163
		c-1.219-0.006-2.253-0.119-3.111-0.341c-0.857-0.221-1.558-0.512-2.114-0.879c-0.555-0.361-0.997-0.754-1.315-1.186
		s-0.55-0.862-0.701-1.283c-0.146-0.426-0.237-0.813-0.28-1.159c-0.038-0.351-0.054-0.62-0.049-0.813
		c-0.005-0.48,0.043-0.971,0.151-1.467c0.107-0.496,0.313-0.965,0.614-1.407c0.297-0.448,0.728-0.83,1.294-1.159
		c0.566-0.329,1.305-0.571,2.21-0.723c0.302-0.043,0.604-0.091,0.911-0.135c0.302-0.043,0.577-0.107,0.83-0.188
		c0.254-0.081,0.458-0.199,0.609-0.361c0.157-0.156,0.232-0.372,0.237-0.642c0.005-0.07-0.011-0.167-0.043-0.291
		c-0.038-0.124-0.108-0.253-0.221-0.388c-0.119-0.136-0.291-0.249-0.528-0.341c-0.237-0.091-0.556-0.14-0.954-0.145
		c-0.442,0-0.933,0.08-1.472,0.247c-0.539,0.162-1.094,0.416-1.666,0.755l-1.747-3.623c0.647-0.35,1.299-0.631,1.952-0.83
		s1.267-0.34,1.844-0.431c0.572-0.092,1.063-0.146,1.461-0.168c0.404-0.021,0.679-0.032,0.825-0.026
		c1.235,0.005,2.302,0.156,3.203,0.458c0.895,0.296,1.633,0.706,2.21,1.224c0.582,0.518,1.008,1.116,1.289,1.785
		c0.28,0.668,0.415,1.38,0.415,2.129c-0.005,1.003-0.194,1.828-0.577,2.459c-0.383,0.636-0.943,1.132-1.682,1.482
		c-0.733,0.356-1.633,0.615-2.69,0.782c-0.48,0.086-0.841,0.188-1.084,0.301c-0.243,0.119-0.404,0.254-0.485,0.411
		c-0.081,0.15-0.118,0.323-0.113,0.518c-0.005,0.026,0.005,0.091,0.032,0.183c0.021,0.092,0.086,0.194,0.184,0.307
		c0.102,0.108,0.269,0.206,0.496,0.287c0.227,0.08,0.54,0.127,0.938,0.129c1.329,0.004,4.776-1.394,5.988-2.059
		c-0.1-0.602-0.152-1.241-0.155-1.92c0.006-1.214,0.178-2.329,0.518-3.359c0.34-1.024,0.825-1.919,1.456-2.685
		s1.386-1.358,2.259-1.785c0.673-0.328,1.404-0.531,2.196-0.609l3.377,5.398c-0.023-0.001-0.046-0.001-0.069-0.001
		c-0.534,0.006-1.002,0.129-1.407,0.383c-0.41,0.253-0.728,0.609-0.96,1.062c-0.227,0.459-0.345,0.986-0.351,1.597
		c0.006,0.63,0.124,1.169,0.351,1.628c0.232,0.458,0.55,0.813,0.96,1.067c0.404,0.248,0.873,0.372,1.407,0.378
		c0.534-0.006,1.003-0.13,1.407-0.378c0.41-0.254,0.728-0.609,0.959-1.067c0.232-0.459,0.345-0.998,0.351-1.628
		c-0.001-0.128-0.007-0.252-0.018-0.373l0.055-7.424H107.615L107.615,138.1z M98.043,137.862c-0.218-0.083-0.45-0.157-0.694-0.221
		c-0.276-0.075-0.573-0.13-0.891-0.167l3.147,5.824c0.187,0.127,0.353,0.277,0.5,0.449L98.043,137.862L98.043,137.862z
		 M160.686,138.1h-6.758l-0.035,7.797c-0.003,0.63-0.118,1.169-0.351,1.628c-0.232,0.458-0.55,0.813-0.96,1.067
		c-0.404,0.248-0.873,0.372-1.407,0.378c-0.533-0.006-1.003-0.13-1.407-0.378c-0.409-0.254-0.728-0.609-0.959-1.067
		c-0.227-0.459-0.346-0.998-0.351-1.628c0.005-0.61,0.124-1.138,0.351-1.597c0.231-0.452,0.55-0.809,0.959-1.062
		c0.404-0.254,0.874-0.377,1.407-0.383c0.022,0,0.044,0,0.066,0.001l-3.378-5.398c-0.79,0.078-1.52,0.281-2.193,0.609
		c-0.872,0.427-1.627,1.02-2.259,1.785c-0.631,0.766-1.115,1.66-1.455,2.685c-0.34,1.03-0.513,2.146-0.518,3.359
		c0.005,1.104,0.14,2.107,0.398,3.008s0.62,1.693,1.084,2.378s0.992,1.256,1.602,1.72c0.604,0.464,1.25,0.814,1.94,1.046
		c0.695,0.237,1.402,0.356,2.124,0.356c0.68-0.006,1.284-0.076,1.822-0.217c0.534-0.146,1.009-0.328,1.424-0.555
		c0.409-0.231,0.766-0.48,1.067-0.744s0.556-0.528,0.766-0.781v1.616h7.02V138.1L160.686,138.1z M151.111,137.861l2.061,5.882
		c-0.146-0.171-0.313-0.32-0.499-0.446l-3.146-5.822c0.318,0.036,0.616,0.092,0.894,0.167
		C150.664,137.705,150.895,137.778,151.111,137.861L151.111,137.861z M161.709,153.724h7.246v-5.66h2.944v5.66h7.246V138.1h-7.246
		v4.982h-2.944V138.1h-7.246V153.724L161.709,153.724z M180.303,153.724h7.246v-6.922l3.946,6.922h8.281l-6.114-8.28l5.531-7.344
		h-8.055l-3.59,6.373V138.1h-7.246V153.724z"/>
</g>
</svg>
