<?xml version="1.0" encoding="utf-8"?>
<!DOCTYPE svg PUBLIC "-//W3C//DTD SVG 1.1//EN" "http://www.w3.org/Graphics/SVG/1.1/DTD/svg11.dtd">
<svg version="1.1" xmlns="http://www.w3.org/2000/svg" xmlns:xlink="http://www.w3.org/1999/xlink" x="0px" y="0px" width="216px" height="216px" viewBox="0 0 216 216" enable-background="new 0 0 216 216" xml:space="preserve">
<g>
	<g>
		<rect x="0.243" y="0.666" fill="#FFFFFF" width="216" height="216"/>
		<path fill="#005091" d="M189.17,97.809h-3.133c0.184-2.95-0.145-5.863-2.766-7.393c-0.729-0.4-1.566-0.62-2.441-0.692h-7.256
			v8.048c1.812,0,4.133,0.146,4.998-1.238c0.398-0.946,0.293-2.167,0.293-3.276h2.803v12.527h-2.803
			c-0.074-1.566,0.254-3.351-1.238-4.225c-0.875-0.455-2.65-0.437-4.051-0.437v9.178h8.457c1.457-0.11,2.984-0.767,3.605-2.222
			c0.582-1.42,0.398-3.787,0.398-5.808h3.133v11.159h-25.381v-3.128c1.42-0.074,3.131,0.362,3.897-1.096
			c0.292-0.726,0.272-1.564,0.272-2.401V92.019c0-0.792-0.418-1.566-1.184-2.002c-0.875-0.437-2.004-0.219-2.986-0.292v-3.095
			h25.381V97.809z"/>
		<path fill="#005091" d="M129.957,89.725l-0.149-0.009l-1.463,0.019c-0.837,0.011-1.615,0.213-2.101,1.045
			c-0.363,0.62-0.346,1.421-0.383,2.185v15.075c0.074,0.801,0.42,1.565,1.148,1.965c0.873,0.475,1.965,0.219,2.947,0.328v3.095
			h-13.801v-3.128c1.238,0.034,2.66,0.254,3.533-0.729c0.365-0.51,0.51-1.093,0.547-1.712V91.983
			c-0.111-0.765-0.4-1.603-1.164-2.003c-0.523-0.255-1.951-0.255-2.896-0.255v-3.095h13.781V89.725z"/>
		<path fill="#005091" d="M154.43,104.108l0.037,0.036V92.383c-0.109-0.91-0.584-1.857-1.492-2.331
			c-0.84-0.4-1.859-0.292-2.842-0.327v-3.095h12.09v3.095c-1.092,0.036-2.33-0.182-3.021,0.728
			c-0.764,0.875-0.801,2.063-0.801,3.204v19.772h-4.59l-13.51-19.006l-0.037-0.037l0.037,13.875c0,0.824,0.4,1.492,1.127,1.855
			c0.91,0.365,2.041,0.185,3.098,0.185v3.129H132.18v-3.128c1.214,0,2.912,0.24,3.422-0.875c0.34-0.65,0.496-1.38,0.455-2.112
			V92.237c-0.182-0.801-0.455-1.602-1.256-2.075c-0.729-0.473-1.711-0.437-2.621-0.437v-3.095h10.234L154.43,104.108z"/>
		<path fill="#005091" d="M78.832,104.108l0.036,0.036V92.383c-0.109-0.91-0.583-1.857-1.493-2.331
			c-0.838-0.4-1.857-0.292-2.841-0.327v-3.095h12.09v3.095c-1.092,0.036-2.331-0.182-3.022,0.728
			c-0.764,0.875-0.801,2.063-0.801,3.204v19.772h-4.589L64.703,94.422l-0.037-0.037l0.037,13.875c0,0.824,0.4,1.492,1.128,1.855
			c0.91,0.365,2.04,0.185,3.096,0.185v3.129H56.582v-3.128c1.213,0,2.914,0.24,3.423-0.875c0.338-0.651,0.495-1.38,0.455-2.112
			V92.237c-0.183-0.801-0.455-1.602-1.256-2.075c-0.729-0.473-1.711-0.437-2.622-0.437v-3.095h10.233L78.832,104.108z"/>
		<path fill="#005091" d="M17.873,89.725l-1.848,0.012c-0.954,0.006-1.872,0.066-2.376,1.008c-0.364,0.545-0.4,1.274-0.364,1.966
			v17.59c3.897-0.219,9.141,1.092,10.669-3.424c0.547-1.494,0.474-3.241,0.474-4.953h2.986v11.508H3.415v-3.131
			c1.385-0.037,2.987,0.291,3.751-1.02c0.4-0.693,0.419-1.567,0.419-2.405V90.926c-0.11-0.655-0.819-1.02-1.402-1.128
			c-0.266-0.036-0.543-0.075-0.824-0.075l-1.944,0.002v-3.095h14.457V89.725z"/>
		<path fill="#005091" d="M209.053,88.45L209.053,88.45c0.326-0.583,0.727-1.165,1.021-1.784c0.635,0,1.492-0.037,2.256-0.037v9.905
			h-3.277c-0.293-2.476-1.602-4.989-4.006-6.045c-2.113-0.909-5.17-1.165-7.137,0.182c-0.873,0.62-1.383,1.457-1.383,2.477
			c0,0.982,0.547,1.821,1.383,2.404c1.02,0.62,2.148,0.91,3.35,1.094c4.225,0.983,9.615,1.092,11.398,5.936
			c0.838,3.022,0.438,6.627-1.783,8.922c-2.879,3.02-7.758,3.02-11.58,2.038c-1.529-0.437-2.951-1.094-4.334-1.822l-0.656,1.713
			h-2.623v-10.597h3.279c0.072,2.404,1.018,4.625,3.203,5.972c2.258,1.495,5.645,2.295,8.268,0.948
			c1.311-0.729,2.256-2.148,2.002-3.751c-0.729-3.022-4.041-2.986-6.445-3.569c-3.787-0.801-8.666-1.092-10.016-5.534
			c-0.764-3.205-0.035-6.555,2.658-8.667c3.277-2.584,8.74-2.876,12.453-1.019C207.777,87.54,208.396,87.976,209.053,88.45z"/>
		<path fill="#005091" d="M108.146,87.687L108.146,87.687l0.948-1.057h2.623v10.125h-3.934c0-2.44-0.801-4.625-2.841-6.083
			c-2.258-1.675-5.936-1.493-8.267-0.036c-3.642,2.513-4.697,6.773-4.152,11.035c0.51,3.241,2.294,6.701,5.608,8.084
			c2.768,1.129,6.19,0.547,8.229-1.748c0.716-0.377,0.583-2.379,0.583-3.569c-0.05-0.657-0.476-1.225-1.093-1.457
			c-0.837-0.364-1.966-0.146-2.949-0.218v-3.095h12.853v3.095c-1.164,0.036-2.584-0.182-3.057,1.056l-0.165,0.874v8.737h-4.061
			l-0.655-1.492c-3.75,2.913-10.233,2.585-14.275,0.4c-4.879-2.513-7.538-7.574-7.137-13.036c0.218-5.39,4.151-10.598,9.213-12.527
			C99.442,85.1,104.649,85.646,108.146,87.687z"/>
		<path fill-rule="evenodd" clip-rule="evenodd" fill="#005091" d="M101.89,129.701h-5.685l-0.313-0.244
			c-0.653-0.508-1.353-0.948-1.993-1.476l-1.095-0.902h-7.323l-0.305-0.224c-0.725-0.53-1.44-1.072-2.146-1.628l-1.118-0.88h-7.08
			l-0.313-0.24c-0.661-0.508-1.313-1.024-1.958-1.553l-1.146-0.938h-7.755l-6.859-3.991h39.83l2.067,3.369
			c0.634-0.965,1.241-1.949,1.915-2.887l0.347-0.482H115l0.344,0.526c0.616,0.948,1.244,1.89,1.867,2.834l2.044-3.36h39.917
			l-6.948,3.991h-7.804l-3.342,2.731h-7.044l-3.577,2.715h-7.16l-3.633,2.639h-5.735v8.434l-12.039-0.003V129.701L101.89,129.701z
			 M111.205,123.883l1.492-2.187h-9.432l1.53,2.187H111.205L111.205,123.883z M107.417,129.199c-1.421-2.003-2.95-3.934-4.369-5.901
			v12.019L107.417,129.199L107.417,129.199L107.417,129.199z M108.655,129.162l4.114,5.717v-11.58
			C111.387,125.266,109.93,127.196,108.655,129.162L108.655,129.162L108.655,129.162z M108.073,128.324l2.332-3.349h-4.808
			L108.073,128.324L108.073,128.324L108.073,128.324z M105.451,133.731h5.207L108,130L105.451,133.731L105.451,133.731
			L105.451,133.731z M111.424,134.844h-6.883l-1.493,2.129h10.05C112.553,136.281,112.008,135.535,111.424,134.844L111.424,134.844
			L111.424,134.844z M98.641,123.116l-2.658-4.333H61.097l2.876,1.674h20.794l1.384,1.167v0.034H73.296
			c0.635,0.521,1.279,1.03,1.93,1.53H91.94c0.401,0.329,0.874,0.767,1.166,1.129h-9.358c0.695,0.547,1.399,1.081,2.112,1.603h12.09
			c0.401,0.438,0.984,0.729,1.311,1.167h-4.625c0.619,0.51,1.311,0.945,1.967,1.455h5.289v-7.774h12.081v7.774h5.314l2.004-1.455
			l-4.66-0.037l1.311-1.146h12.125l2.113-1.603h-9.432l1.201-1.111h16.715l1.893-1.548H129.74c0.473-0.436,0.943-0.746,1.383-1.185
			h20.791l2.914-1.674h-34.922l-2.656,4.37c-0.948-1.457-1.93-2.912-2.879-4.37h-12.816
			C100.535,120.203,99.661,121.733,98.641,123.116z"/>
		<path fill-rule="evenodd" clip-rule="evenodd" fill="#005091" d="M42.908,114.022c-7.82,0-14.162-6.342-14.162-14.162
			c0-7.82,6.342-14.162,14.162-14.162c7.82,0,14.162,6.342,14.162,14.162C57.07,107.681,50.728,114.022,42.908,114.022
			L42.908,114.022z M42.744,110.335c5.652,0.28,8-6.032,7.995-10.634c-0.005-4.733-2.086-9.542-6.867-10.195
			c-5.947-0.86-8.831,4.615-8.959,10.044C34.803,104.227,37.122,110.416,42.744,110.335z"/>
	</g>
</g>
</svg>
