<?xml version="1.0" encoding="utf-8"?>
<!DOCTYPE svg PUBLIC "-//W3C//DTD SVG 1.1//EN" "http://www.w3.org/Graphics/SVG/1.1/DTD/svg11.dtd">
<svg version="1.1" xmlns="http://www.w3.org/2000/svg" xmlns:xlink="http://www.w3.org/1999/xlink" x="0px" y="0px" width="216px" height="216px" viewBox="0 0 216 216" enable-background="new 0 0 216 216" xml:space="preserve">
<rect id="rect3836" fill="#BC2F62" width="216" height="216"/>
<path id="rect3006" fill="#FFC220" d="M47.589,34.389h10.439c7.506,0,13.59,4.711,13.59,10.522v72.917
	c0,5.813-6.084,10.521-13.59,10.521H47.589c-7.506,0-13.591-4.711-13.591-10.521V44.911C33.998,39.1,40.083,34.389,47.589,34.389z"
	/>
<path id="rect3776" fill="#47AA42" d="M83.398,69.678h4.437c3.809,0,7.052-2.719,7.052-6.479V40.493
	c0-3.828,3.447-6.083,8.654-6.104c30.094-0.116,35.843,33.033,18.298,46.682c20.5,16.515,11.993,47.294-18.298,47.279
	c-6.962-0.004-8.654-3.806-8.654-8.229V98.055c0-3.933-3.261-6.765-7.053-6.765h-4.437c-3.573,0-6.449-3.13-6.449-7.018v-7.577
	C76.95,72.807,78.832,69.678,83.398,69.678L83.398,69.678z"/>
<g id="g3822" transform="translate(0,120)">
	<path id="path3783" fill="#FFFFFF" d="M34.425,19.208l0.045,19.125l14.692,0.044c4.034,0.014,5.491-7.087,1.463-9.854
		c4.126-1.65,2.398-9.256-2.047-9.271L34.425,19.208z M41.04,23.438c3.096-0.006,4.557,0.08,4.567,1.621
		c0.009,1.33-1.544,1.428-4.522,1.439L41.04,23.438z M41.04,30.932c3.096-0.009,4.557,0.08,4.567,1.619
		c0.009,1.328-1.544,1.428-4.522,1.439L41.04,30.932z"/>
	<path id="path3791" fill="#FFFFFF" d="M65.655,18.98c-4.919-0.012-9.931,3.406-9.923,10.014
		c0.015,12.382,16.168,10.847,18.81,6.729l-2.948-2.543c-2.516,1.145-9.386,2.264-9.135-3.623l12.002,0.068
		C75.319,22.417,70.573,18.995,65.655,18.98z M68.31,27.016l-5.617-0.098C64.478,22.172,68.133,24.293,68.31,27.016z"/>
	<path id="path3796" fill="#FFFFFF" d="M76.351,35.289l3.178,3.51c6.326-2.449,6.86-7.686,7.063-15.559h3.301l0.146,15.145h7.135
		l0.011-19.176L80.524,19.26C80.574,27.438,80.747,32.563,76.351,35.289L76.351,35.289z"/>
	<path id="path3798" fill="#FFFFFF" d="M101.979,19.26l0.049,19.174l6.001-0.006l7.903-9.873l0.063,9.836l6.431-0.035V19.223
		l-5.921,0.016l-8.048,10.178l-0.103-10.227L101.979,19.26z"/>
	<path id="path3800" fill="#FFFFFF" d="M127.193,19.199l7.211-0.02l0.02,9.178l6.436-9.146l6.94,0.014l-6.261,9.014l6.648,10.166
		h-7.369l-6.414-9.242l0.049,9.271l-7.196-0.049L127.193,19.199z"/>
	<path id="path3802" fill="#FFFFFF" d="M159.188,19.115c-3.487-0.004-5.986,0.298-8.416,2.275l1.938,3.217
		c8.003-2.235,8.184,0.67,8.141,3.414c-8.447-2.354-13.267,2.037-11.943,6.373c2.097,6.865,12.508,3.229,13.027,1.619l0.045,2.385
		h4.906l-0.047-15.523c-0.006-1.656-1.788-3.666-3.802-3.689C161.62,19.168,160.352,19.118,159.188,19.115z M160.854,30.232v3.104
		C154.299,35.863,155.145,29.688,160.854,30.232z"/>
	<path id="path3807" fill="#FFFFFF" d="M34.841,43.217l7.208-0.02l0.02,9.178l6.435-9.146l6.941,0.012l-6.262,9.018l6.65,10.165
		h-7.369l-6.417-9.241l0.049,9.271l-7.196-0.05L34.841,43.217z"/>
	<path id="path3809" fill="#FFFFFF" d="M58.15,43.252l0.049,19.174l6.001-0.007l7.903-9.873l0.063,9.837l6.431-0.035V43.214
		l-5.921,0.017l-8.048,10.176L64.525,43.18L58.15,43.252z"/>
	<path id="path3811" fill="#FFFFFF" d="M126.887,42.458c-4.92-0.013-9.932,3.405-9.924,10.013
		c0.016,12.383,16.168,10.848,18.811,6.729l-2.946-2.543c-2.517,1.146-9.388,2.265-9.136-3.621l12,0.066
		C136.55,45.895,131.805,42.473,126.887,42.458L126.887,42.458z M129.541,50.49l-5.616-0.096
		C125.707,45.648,129.363,47.77,129.541,50.49z"/>
	<path id="path3813" fill="#FFFFFF" d="M83.999,43.252l0.049,19.174l29.11-0.078V43.214l-6.381-0.008l-0.065,14.392l-4.634-0.052
		l-0.074-14.347l-7.197-0.006L94.75,57.646l-4.322-0.064L90.374,43.18L83.999,43.252z"/>
	<path id="path3815" fill="#FFFFFF" d="M139.178,42.553l7.264-0.041l0.05,7.909l5.937,0.007l0.086-7.861l7.178-0.014l0.024,19.178
		l-7.264-0.051l0.009-7.617h-6.066l-0.049,7.67l-7.154-0.016L139.178,42.553z"/>
	<path id="path3817" fill="#FFFFFF" d="M169.313,42.563c-5.5-0.021-8.254,8.354-2.385,11.342l-4.658,7.627h6.64l6.299-7.493v7.493
		h7.201V42.605L169.313,42.563z M175.186,46.747v5.063C169.277,51.861,169.297,46.756,175.186,46.747z"/>
</g>
</svg>
