<?xml version="1.0" encoding="utf-8"?>
<!DOCTYPE svg PUBLIC "-//W3C//DTD SVG 1.1//EN" "http://www.w3.org/Graphics/SVG/1.1/DTD/svg11.dtd">
<svg version="1.1" xmlns="http://www.w3.org/2000/svg" xmlns:xlink="http://www.w3.org/1999/xlink" x="0px" y="0px" width="216px" height="216px" viewBox="0 0 216 216" enable-background="new 0 0 216 216" xml:space="preserve">
<g>
	<g>
		<path fill="#532765" d="M154.286,201.26h0.344c0.469,0,0.812-0.044,0.942-0.044c0.126-0.043,0.213-0.087,0.257-0.212
			c0.084-0.088,0.084-0.216,0.084-0.344s-0.041-0.213-0.084-0.3c-0.088-0.087-0.172-0.172-0.3-0.212
			c-0.131-0.044-0.431-0.044-0.899-0.044h-0.344V201.26z M153.431,203.658v-4.197h0.855c0.813,0,1.243,0,1.371,0
			c0.256,0.044,0.515,0.088,0.641,0.172c0.171,0.085,0.3,0.216,0.387,0.385c0.084,0.171,0.169,0.387,0.169,0.6
			c0,0.299-0.085,0.556-0.3,0.771c-0.213,0.216-0.469,0.341-0.813,0.385c0.131,0.043,0.216,0.087,0.3,0.172
			c0.088,0.084,0.172,0.171,0.3,0.299c0.044,0.044,0.128,0.216,0.3,0.516l0.513,0.855h-1.112l-0.343-0.687
			c-0.257-0.469-0.426-0.725-0.6-0.855c-0.126-0.128-0.341-0.169-0.597-0.169h-0.216v1.711h-0.855V203.658z M155.229,198.35
			c-0.557,0-1.071,0.128-1.586,0.428c-0.469,0.256-0.897,0.641-1.197,1.155c-0.299,0.515-0.428,1.071-0.428,1.583
			c0,0.557,0.129,1.068,0.428,1.584c0.3,0.515,0.685,0.899,1.197,1.199c0.515,0.256,1.029,0.428,1.586,0.428
			c0.556,0,1.068-0.128,1.583-0.428s0.896-0.685,1.196-1.199c0.3-0.516,0.431-1.027,0.431-1.584c0-0.556-0.131-1.068-0.431-1.583
			s-0.682-0.899-1.196-1.155C156.298,198.478,155.785,198.35,155.229,198.35 M155.229,197.578c0.684,0,1.324,0.172,1.967,0.515
			c0.6,0.341,1.112,0.813,1.456,1.456c0.343,0.64,0.512,1.283,0.512,1.967c0,0.688-0.169,1.368-0.512,1.968
			c-0.344,0.644-0.856,1.115-1.456,1.455c-0.599,0.344-1.283,0.516-1.967,0.516c-0.688,0-1.371-0.172-1.968-0.516
			c-0.6-0.34-1.114-0.812-1.455-1.455c-0.344-0.641-0.516-1.28-0.516-1.968c0-0.684,0.172-1.367,0.516-1.967
			c0.341-0.644,0.855-1.115,1.455-1.456C153.902,197.75,154.542,197.578,155.229,197.578"/>
		<path fill="#472666" d="M108.063,1.597c31.842,0,53.971,66.64,53.971,125.746c0,59.065-15.536,88.254-53.971,88.254
			c-38.392,0-53.972-29.188-53.972-88.254C54.135,68.237,76.262,1.597,108.063,1.597 M106.993,86.555l8.389,35.438l-14.552-0.684
			L106.993,86.555z M125.781,68.28c-0.94-1.071-2.312-1.071-3.21,0.084c-1.625,2.055-1.925,5.565-1.668,8.218
			c0.212,2.311,1.068,4.28,3.554,4.237c2.523-0.042,3.21-2.097,3.294-4.451C127.88,73.715,127.492,70.248,125.781,68.28
			 M98.775,73.244c-0.256-0.984-0.813-0.984-1.883-0.941c-2.567,0.214-7.532,1.369-9.159,1.541c-0.642,0.086-0.984,0.6-0.984,1.198
			c0.042,0.685,0.728,0.943,1.627,0.985c1.711,0.086,3.38-0.471,5.05-0.77l2.055,39.888L77.076,72.603
			c-0.472-1.07-0.813-1.242-1.925-1.028l-8.945,1.927c-0.514,0.084-0.899,0.642-0.857,1.112c0.085,1.113,1.113,1.199,2.354,0.985
			c1.155-0.172,2.439-0.642,3.252-0.813l5.907,51.873l-4.922,0.728c-1.455,0.213-1.199,2.442,0.256,2.355l11.728-1.756
			c0.47-0.087,1.07-0.556,1.027-1.198c-0.129-1.884-3.938-0.729-5.778-0.469l-5.094-44.771l21.829,50.204l-3.124,0.087
			c-1.028,0-1.583,1.324-0.771,2.012c0.129,0.125,0.557,0.212,1.113,0.256c3.296,0.085,6.805-0.087,10.101-0.213
			c1.669-0.087,1.927-2.186,0.044-2.27c-1.413-0.085-2.911,0-4.324,0.084l1.456-8.088l15.493,0.769l1.886,8.091l-3.298,0.341
			c-1.411,0.174-1.411,2.354,0.128,2.27c5.225-0.256,10.358-1.37,15.624-1.583c6.589-0.3,13.225-0.128,19.817-0.128
			c0.469,0,1.067-0.428,1.111-1.071l0.813-8.56c0.256-1.411-1.755-1.84-2.184-0.3c-0.471,1.714-1.111,5.78-1.411,7.62l-11.683,0.04
			l4.791-60.347l3.81-0.042c1.411,0,1.499-2.311,0-2.269l-14.509,0.257c-0.472,0.042-1.068,0.514-1.112,1.112
			c-0.131,1.927,1.625,1.241,3.636,1.113l-1.112,60.175c-1.583,0-3.038,0.131-4.578,0.216l1.155-46.566
			c0-1.069,0.129-1.883-1.711-1.883l-9.675,0.598c-0.768,0.043-1.498,0.257-1.542,1.199c0,0.899,0.644,1.07,1.414,1.113
			c1.196,0.084,3.039-0.086,4.066-0.171l1.67,40.83l-13.141-56.58c-0.3-1.113-2.011-1.199-2.269,0.086l-9.331,53.071l-2.439-48.063
			c0.77-0.172,1.711-0.258,2.311-0.558C98.561,74.1,98.818,73.801,98.775,73.244 M90.173,145.236
			c4.836,8.344,9.159,24.479,0.214,31.841c-1.413,1.155-2.997,1.927-4.751,2.267l-8.902-43.738
			C82.896,136.161,87.219,140.184,90.173,145.236 M99.203,183.969c0.557,4.406-6.847,7.317-9.843,7.873l-1.113,0.174l-2.183-10.701
			C88.803,180.8,98.604,179.26,99.203,183.969 M120.391,168.646l-0.087,9.502c-0.943,1.712-2.055,2.911-3.295,3.551
			c-3.81,1.971-9.117,1.627-9.117-5.221C107.892,168.945,115.169,166.034,120.391,168.646 M101.171,159.146
			c-1.583-8.307-5.135-15.408-10.528-19.989c-5.436-4.581-12.712-6.677-21.827-4.922c-1.755,0.3-1.37,2.312,0.728,1.883l2.995-0.428
			l7.704,57.395c-1.54,0.172-6.035,0.088-5.735,1.627c0.171,0.984,1.755,0.984,3.296,0.771c7.96-0.986,19.218-1.455,25.381-6.508
			c1.455-1.199,2.397-2.866,2.525-4.665c4.151,3.682,11.041,2.61,14.507-1.54c0,0.6-0.125,1.796-0.084,2.826
			c0.084,1.968,0.814,1.88,2.398,1.755c5.736-0.472,11.383-0.771,17.16-0.644c0.986,0.044,1.286-1.542,0.773-2.226
			c-0.6-0.771-3.766-0.385-5.479-0.385l1.414-16.479c0.641-7.617,2.91-18.703,8.514-23.456c5.951-5.047,7.75,2.785,5.439,4.966
			c-1.93,1.798-2.826-0.769-3.811,0.387c-2.526,2.91,6.721,5.777,7.445-2.268c0.73-8.263-9.672-11.301-15.833-0.771l0.469-5.648
			c0.044-0.73-0.387-1.371-0.855-1.412l-9.288-0.6c-1.155-0.131-1.37,1.624-0.855,2.224c0.6,0.728,3.895,0.728,5.435,0.855
			l-1.84,42.202c-2.096,0.044-4.581,0.213-6.592,0.169c0.643-12.666,2.866-46.093-11.942-45.537
			c-8.558,0.343-10.141,12.969-5.905,18.019c1.113,1.368,5.222,3.979,5.181,0.256c0-1.539-0.814-1.798-2.099-2.098
			c-1.883-0.426-2.696-4.279-1.883-7.573c1.626-6.462,8.432-6.462,10.614-0.044c1.884,5.437,1.799,13.868,1.799,17.547
			c-8.176-3.635-18.02,1.499-18.02,10.658c0,1.371,0.128,2.57,0.428,3.682c-2.482-1.37-5.393-1.327-8.474-1.111
			C101.001,173.823,102.627,166.678,101.171,159.146 M125.355,43.456l-0.043,1.199l-5.952,0.47l0.344-1.627
			C121.331,36.223,125.355,36.65,125.355,43.456 M129.978,45.168c0-2.91-1.67-6.892-4.622-8.175
			c-6.295-2.782-10.102,5.393-10.146,11.642c-0.983-1.199-2.396-1.713-4.106-1.713c-2.656,0-4.153,2.141-5.139,4.28l0.6-26.407
			c0-0.556-0.428-0.941-0.983-0.813l-9.587,1.369c0.128-2.055,0.898-5.735-1.199-4.964c-3.21,1.198-2.525,0.514-2.653,5.436
			l-5.779,0.77c-1.583,0.342-1.327,1.413-0.855,1.669c0.813,0.428,4.836-0.47,6.548-0.684L91.584,49.79
			c-0.17,15.108,7.32,13.653,8.689,7.875c0.942-4.023-1.413-3.04-1.413-2.098c0,3.296-2.482,4.623-3.294,1.541
			c-1.113-4.152,0.042-22.813,0.384-30.002l5.949-0.856l1.242,38.092l-3.381,0.3c-1.069,0.042-0.985,1.711,0.128,1.669
			c0.685-0.044,4.109-0.214,6.548-0.472c1.413-0.128,2.525-0.342,2.696-0.556c1.327-1.883-2.739-1.199-3.424-1.113l0.042-2.783
			c0.129-10.571,5.394-15.75,6.721-10.743c0.643,2.44,0.212,10.529,0.087,14.467c-1.155,0.128-2.826-0.042-2.655,1.199
			c0.128,1.112,2.396,0.598,5.65,0.128c2.61-0.342,3.507-0.086,3.507-1.241c0-1.156-2.011-0.642-2.823-0.556
			c0.213-2.826,0.644-5.521,0.728-8.561c4.11,7.534,11.982,2.269,10.187,0.557c-0.684-0.643-1.198,0.084-1.626,0.556
			c-0.557,0.556-1.325,1.155-2.739,1.155c-4.281,0-3.81-8.987-3.682-11.428l10.059-0.812
			C129.678,46.024,129.978,45.724,129.978,45.168"/>
	</g>

</g>
</svg>
