<?xml version="1.0" encoding="utf-8"?>
<!DOCTYPE svg PUBLIC "-//W3C//DTD SVG 1.1//EN" "http://www.w3.org/Graphics/SVG/1.1/DTD/svg11.dtd">
<svg version="1.1" xmlns="http://www.w3.org/2000/svg" xmlns:xlink="http://www.w3.org/1999/xlink" x="0px" y="0px" width="216px" height="216px" viewBox="0 0 216 216" enable-background="new 0 0 216 216" xml:space="preserve">

<g>
	<path d="M34.886,51.173l10.725,10.245l3.234-3.416l-4.074-3.833l6.65-7.251l-2.577-2.575l-6.649,7.249l-2.996-2.996l9.645-10.245
		l-2.575-2.575L32.97,50.155C33.627,50.574,34.288,50.753,34.886,51.173L34.886,51.173z M58.433,29.604L58.433,29.604l0.238,17.135
		l4.074-2.336v-3.416l9.646-5.57l2.756,1.917l4.074-2.336L63.165,24.751l-5.752,3.235C58.013,28.287,58.433,28.945,58.433,29.604z
		 M68.916,33.438l-6.231,3.655l-0.239-7.908L68.916,33.438z M99.111,30.444h4.493V25.71h7.728l3.415,4.733h5.154l-3.834-5.153
		l0.418-0.239c1.916-1.079,3.232-3.236,2.994-5.572c0.238-3.415-2.338-6.231-5.571-6.41c-0.238,0-0.418,0-0.839,0H99.17h-0.899
		c0.42,0.658,0.66,1.259,0.839,1.917V30.444z M112.41,16.964L112.41,16.964c1.26,0,2.337,1.078,2.337,2.336v0.239
		c0.238,1.258-0.839,2.338-2.155,2.577c-0.238,0-0.238,0-0.421,0h-8.746v-5.152H112.41z M203.356,95.686
		c-1.081-5.991-4.914-10.245-9.408-10.245c-0.421,0-0.838,0-1.256,0.241c-5.153,0.837-7.909,6.41-6.832,13.061
		c1.082,6.229,4.732,10.243,9.409,10.243c0.417,0,0.835,0,1.256-0.239C201.616,107.908,204.435,102.336,203.356,95.686z
		 M195.627,104.074c-0.238,0-0.66,0-0.84,0c-2.576,0-4.731-2.338-5.332-5.992c-0.659-4.253,0.839-7.249,3.834-7.728
		c0.238,0,0.659,0,0.842,0c2.574,0,4.732,2.336,5.329,5.99C200.359,100.418,198.863,103.655,195.627,104.074z M163.334,37.512
		l-1.736,13.062l0.238,0.239l12.402-2.997l-6.828,9.228l3.412,3.234l10.485-13.72l-3.833-3.654l-10.906,2.338l1.26-11.325
		l-4.076-3.833l0,0l-0.418-0.419c0,0.838-0.238,1.497-0.838,2.156l-10.725,10.484l3.415,3.235L163.334,37.512z M135.895,36.015
		c1.741,0.66,3.419,0.839,5.152,0.839l0,0c3.834,0.24,7.253-1.917,8.748-5.571c0.839-2.577,0.421-5.153-1.077-7.489
		c-1.737-2.336-4.076-4.074-6.832-4.913c-1.737-0.659-3.415-0.839-5.149-0.839c-3.837-0.419-7.49,1.917-8.748,5.573
		C126.311,28.525,129.484,33.619,135.895,36.015z M132.299,25.111c0.66-2.157,2.76-3.415,4.915-3.234
		c1.078,0,2.155,0.239,3.236,0.658c3.834,1.498,5.75,4.255,4.732,7.249c-0.66,2.157-2.756,3.416-4.915,3.235
		c-1.077,0-2.154-0.238-3.233-0.658C133.143,30.863,131.225,28.106,132.299,25.111z M108.517,1.566
		c-59.071,0-107,47.929-107,107.001c0,59.071,47.929,107.002,107,107.002c59.072,0,107-47.931,107-107.002
		C215.517,49.495,167.589,1.566,108.517,1.566z M108.517,211.252c-56.735,0-102.747-46.008-102.747-102.746
		C5.77,51.771,51.842,5.82,108.517,5.82c56.676,0,102.745,46.01,102.745,102.747C211.262,165.301,165.252,211.252,108.517,211.252z
		 M13.738,98.082c0.241-0.239,0.66-0.239,0.839-0.239c0.419,0,0.839,0,1.078,0.239l0,0l13.721,10.485l0.658-4.493l-2.756-2.157
		l1.738-10.905l3.235-1.078l0.66-4.493l-17.973,5.991L13.738,98.082z M25.061,92.271l-1.078,7.069l-6.231-4.732L25.061,92.271z
		 M109.177,73.458l0.238-0.239l0,0l-0.238-0.24c-2.996-2.156-5.153-5.331-6.412-8.747c-0.658-1.497-1.497-2.996-2.575-4.254
		c-0.839-1.078-2.338-1.736-3.656-1.736c-0.659,0-1.498,0-2.156,0.239h-0.419l0.238,0.42c0.42,1.078,1.259,1.917,2.337,2.336h0.24
		h0.658c1.259,0.839,1.918,6.41,1.918,9.227c0,0.419-0.24,0.658-0.66,0.658c-0.42,0-1.078-0.239-1.259-0.658
		c-0.837-0.839-1.917-1.258-2.994-1.258c-2.157-0.241-4.074,1.497-4.255,3.654v0.419c0.241,2.157,2.157,3.833,4.255,3.654
		c1.077,0,2.336-0.419,2.994-1.258c0.419-0.419,0.839-0.658,1.259-0.658c0.419,0,0.66,0.239,0.66,0.658
		c0,2.755-0.66,8.328-1.918,9.227h-0.837c-1.08,0.419-1.918,1.259-2.337,2.336l-0.239,0.42h0.419
		c0.658,0.238,1.497,0.238,2.157,0.238c1.497,0,2.756-0.658,3.654-1.736c1.259-1.259,2.157-2.758,2.575-4.254
		C104.023,78.611,106.419,75.616,109.177,73.458L109.177,73.458z M106.6,49.915c1.078,0,1.917-0.839,1.917-1.917
		c0-1.08-0.839-1.917-1.917-1.917c-1.079,0-1.917,0.837-1.917,1.917l0,0C104.683,48.836,105.521,49.674,106.6,49.915L106.6,49.915z
		 M105.94,54.648h16.895c0.66,0,1.257-0.66,1.257-1.258c0-0.66-0.66-1.258-1.257-1.258H105.94c-0.658,0-1.257,0.658-1.257,1.258
		C104.683,54.169,105.342,54.648,105.94,54.648z M108.517,36.613c-39.601,0-71.893,32.292-71.712,71.893
		c0.239,39.6,32.29,71.892,71.893,71.713c39.603,0,71.712-32.113,71.712-71.893C180.409,68.965,148.356,36.613,108.517,36.613
		L108.517,36.613z M63.165,159.248c-12.401-11.142-20.31-26.116-22.286-42.594h22.286V159.248z M63.165,100H40.878
		c2.156-16.237,9.824-31.274,22.286-42.177V100z M130.565,173.209c-16.479,5.572-34.69,4.736-50.506-2.755v-53.737h19.232
		c-1.918-5.575-1.259-11.565,1.256-16.718H80V46.739c19.711-8.987,42.597-8.329,61.405,2.157l0,0
		c2.338,1.498,2.998,4.494,1.503,6.83c-0.844,1.498-2.577,2.336-4.255,2.336h-8.568c-1.738-0.238-3.233,0.419-4.494,1.498
		c-2.335,2.157-1.499,4.493-6.41,4.493h-13.479c1.738,3.236,4.073,5.993,7.07,7.909h16.475c0.659,0,1.256,0.42,1.498,1.078
		c0,0.24,0,0.419,0.239,0.66v0.239c-0.239,0.839-0.839,1.259-1.499,1.259h-16.713c-3.416,1.917-5.752,4.913-7.07,8.567h30.193
		c1.916-0.239,3.657,1.258,3.836,3.235c0.239,1.918-1.26,3.656-3.236,3.835c-0.238,0-0.418,0-0.656,0h-15.221
		c-10.482,0-19.049,8.567-19.049,19.051s8.567,19.052,19.049,19.052h19.054c0.836,0,1.495,0.658,1.495,1.5
		c0,0.835-0.659,1.495-1.495,1.495l0,0h-19.472c-7.727,0-13.899,6.231-13.899,13.901c0,7.729,6.229,13.897,13.899,13.897h7.487
		c3.834,0,6.832,2.994,6.832,6.831C134.398,169.316,132.899,171.893,130.565,173.209L130.565,173.209z M159.68,63.156L159.68,63.156
		c25.044,28.276,22.468,71.292-5.75,96.275c-5.152,4.493-10.902,8.327-17.312,11.143l-0.243,0.239l0,0h0.243
		c5.749-2.753,8.144-9.644,5.327-15.214c-1.916-4.076-5.988-6.653-10.243-6.653h-11.984c-0.835,0-1.495-0.656-1.495-1.498
		c0-0.836,0.66-1.496,1.495-1.496h20.312c9.646-0.421,17.135-8.326,16.717-17.974c-0.239-9.225-7.73-16.478-16.717-16.717h-19.71
		c-0.84,0-1.5-0.659-1.5-1.496c0-0.839,0.66-1.497,1.5-1.497h14.978c15.818,0.239,28.876-12.641,28.876-28.457
		c0-5.752-1.737-11.325-4.914-16.237l0,0l0,0C159.259,63.395,159.442,63.395,159.68,63.156
		C159.442,63.156,159.442,63.156,159.68,63.156C159.68,63.395,159.442,63.156,159.68,63.156L159.68,63.156z M114.509,49.674
		c1.078,0,1.917-0.837,1.917-1.917c0-1.078-0.839-1.917-1.917-1.917c-1.081,0-1.917,0.839-1.917,1.917l0,0
		C112.592,48.836,113.428,49.674,114.509,49.674L114.509,49.674z M179.57,67.649l2.756-1.499l4.493,8.748l3.236-1.737l-4.493-8.748
		l2.573-1.498l6.651,12.641l3.233-1.738l-8.986-17.313c-0.238,0.658-0.835,1.258-1.495,1.737l-13.059,7.068l8.986,17.315
		l2.995-1.738L179.57,67.649z M39.201,63.813l-5.752,11.563l-11.982-6.231l-2.575,4.913c0.239,0,0.658,0,0.839,0
		c0.418,0,0.837,0,1.257,0.239l13.241,6.829l7.907-15.635L39.201,63.813z M122.238,49.674c1.074,0,1.917-0.837,1.917-1.917
		c0-1.078-0.843-1.917-1.917-1.917l0,0c-1.081,0-1.919,0.839-1.919,1.917C120.319,48.836,121.157,49.674,122.238,49.674
		L122.238,49.674z"/>
</g>
</svg>
