<?xml version="1.0" encoding="utf-8"?>
<!DOCTYPE svg PUBLIC "-//W3C//DTD SVG 1.1//EN" "http://www.w3.org/Graphics/SVG/1.1/DTD/svg11.dtd">
<svg version="1.1" xmlns="http://www.w3.org/2000/svg" xmlns:xlink="http://www.w3.org/1999/xlink" x="0px" y="0px" width="216px" height="216px" viewBox="-35 -92 216 216" enable-background="new -35 -92 216 216" xml:space="preserve">
<g>
	<path fill-rule="evenodd" clip-rule="evenodd" fill="#52AE30" d="M20-91h108.003C157.702-91,182-66.7,182-37V71.003
		C182,100.702,157.702,125,128.003,125H20c-29.7,0-54-24.298-54-53.997V-37C-34-66.7-9.7-91,20-91z"/>
</g>
<g>
	<path fill="#FFFFFF" d="M13.083,78.095c-1.81,0-3.86,0.925-5.042,6.577c-1.313,6.286,1.307,6.689,2.577,6.689
		c1.155,0,3.615-0.635,4.838-6.654C16.315,80.496,15.632,78.095,13.083,78.095 M22.077,84.707
		c-1.655,9.512-7.532,10.728-12.506,10.728c-4.91,0-9.434-3.409-8.154-10.776c1-5.756,4.393-11.086,12.645-10.678
		C19.814,74.265,23.199,78.236,22.077,84.707"/>
	<path fill="#FFFFFF" d="M34.607,94.619l-0.309,0.307c-1.232,0.238-2.679,0.43-3.465,0.43c-2.908,0-7.174-0.443-5.371-7.834
		c1.222-4.996,2.097-8.731,2.097-8.731l-2.695,0.077l-0.231-0.309l1.118-3.92l0.27-0.195h2.541l1.117-5.001l0.268-0.271
		c2.89-0.66,3.659-0.856,6.318-1.63l0.229,0.233l-1.695,6.747l3.929-0.079l0.153,0.274c-0.538,1.629-0.693,2.058-1.192,3.88
		l-0.307,0.27l-3.543-0.077c0,0-0.72,3.013-1.728,7.203c-1.088,4.529-0.515,4.3,0.574,4.733c0.931,0.37,2.152-0.104,2.846-0.336
		l0.233,0.194l-1.154,4.034H34.607z"/>
	<path fill="#FFFFFF" d="M45.422,90.742c1.823,0.219,3.812-0.39,5.158-1.517c1.539-1.316,2.927-4.03,2.927-6.982
		c0-3.26-2.078-3.646-2.848-3.646c-1.116,0-1.966,0.582-2.774,1.125L45.422,90.742L45.422,90.742z M48.541,75.882
		c1.002-0.697,2.658-1.863,5.16-1.863c3.852,0,6.43,2.909,6.43,7.837c0,2.793-0.961,6.092-2.965,8.535
		c-3.811,4.693-8.624,4.654-12.707,4.654l-2.19,9.271l-0.271,0.195c-0.888,0-1.735-0.037-2.619-0.037
		c-1.311,0-2.465,0.077-3.889,0.118l-0.192-0.276c0,0,1.355-4.11,3.044-11.179c1.773-7.418,3.43-16.107,3.575-17.879l0.27-0.269
		l6.584-1.086L49,74.175L48.541,75.882L48.541,75.882z"/>
	<path fill="#FFFFFF" d="M65.177,91.941c2.182,0.105,5.392,0.039,7.895-1.666c2.848-1.984,4.2-5.434,4.2-7.918
		c0-3.527-2.12-4.887-4.586-4.887c-1.962,0-3.347,0.854-4.582,1.63c0,0-2.685,11.889-2.925,12.841H65.177z M60.481,94.771
		c0.255-1.174,1.916-8.066,3.611-15.817c1.453-6.649,2.464-10.803,2.82-13.899l0.307-0.27l4.198-0.736l0.19,0.272l-1.077,4.305
		l-1.773,7.449c1.62-0.894,3.159-1.748,5.625-1.748c3.811,0,7.007,2.601,7.007,7.49c0,1.979-0.615,5.702-3.196,8.689
		c-3.464,3.995-7.738,4.265-12.706,4.462h-2.119l-2.694,0.04L60.481,94.771z M99.186,77.704c-0.579,0-1.154-0.037-1.733-0.037
		c-1.271,0-3.773,0.075-6.046,1.627c-4.045,2.791-4.12,7.8-4.12,7.994c0,1.862,1.003,4.848,4.505,4.848
		c1.039,0,2.761-0.247,4.62-1.903L99.186,77.704z M102.033,82.629c-1.348,5.977-1.615,7.451-2.385,12.066l-0.27,0.27l-3.62,0.08
		l-0.195-0.271l0.271-1.551c-0.654,0.543-2.349,1.978-5.623,1.978c-3.927,0-7.12-2.793-7.12-7.643c0-3.061,1.459-6.399,3.077-8.34
		c3.581-4.229,8.548-4.463,12.092-4.463l5.313,0.039l0.191,0.311L102.033,82.629z"/>
	<path fill="#FFFFFF" d="M121.104,94.737l-0.311,0.228l-3.925,0.119l-0.157-0.271c0.567-2.613,2.938-11.361,2.967-14.084
		c0.025-2.326-1.424-3.104-3.235-3.104c-2.385,0-3.964,1.206-5.121,2.059c-1.426,6.521-1.887,8.576-3.119,15.055l-0.268,0.228
		l-3.929,0.119l-0.192-0.271c0,0,1.167-4.747,2.221-9.685c0.831-3.866,1.508-7.053,1.823-9.71l0.268-0.273
		c1.811-0.231,2.237-0.311,4.081-0.698l0.193,0.271l-0.538,1.979c1.501-1.012,3.428-2.365,6.623-2.365c1.27,0,5.43,0.346,5.43,5.041
		C123.915,82.178,121.48,91.996,121.104,94.737"/>
	<defs>
		<filter id="Adobe_OpacityMaskFilter" filterUnits="userSpaceOnUse" x="124.997" y="64.118" width="19.676" height="30.919">
			<feColorMatrix  type="matrix" values="1 0 0 0 0  0 1 0 0 0  0 0 1 0 0  0 0 0 1 0"/>
		</filter>
	</defs>
	<mask maskUnits="userSpaceOnUse" x="124.997" y="64.118" width="19.676" height="30.919" id="b">
		<g filter="url(#Adobe_OpacityMaskFilter)">
			<path id="a" fill="#FFFFFF" d="M144.673,95.037V64.118h-19.678v30.916L144.673,95.037z"/>
		</g>
	</mask>
	<path mask="url(#b)" fill="#FFFFFF" d="M135.815,83.166l5.971,11.443l-0.235,0.311l-4.271,0.117l-0.31-0.234
		c-0.994-2.724-5.354-11.288-5.354-11.288c-1.114,4.928-1.348,6.089-2.31,11.212l-0.271,0.232l-3.888,0.078l-0.152-0.234
		c0,0,2.053-8.6,3.833-16.563c0.828-3.723,2.119-9.619,2.634-13.191l0.271-0.233l4.197-0.696l0.23,0.271
		c-0.774,2.68-4.428,18.58-4.428,18.58c2.762-2.435,7.354-7.292,7.97-7.953l0.424-0.232h4.43l0.115,0.35
		c-1.094,0.872-3.122,2.717-3.851,3.375L135.815,83.166L135.815,83.166z"/>
</g>
<g >
	<path fill="#FFFFFF" d="M17.344-7.375c0-30.153,24.253-54.607,54.175-54.636v19.738C52.418-42.236,36.945-26.622,36.945-7.375
		c0,19.271,15.509,34.897,34.634,34.897c19.018,0,34.643-15.479,34.643-35.026l19.599,0.014c0,30.29-24.284,54.756-54.242,54.756
		C41.631,47.267,17.344,22.801,17.344-7.375"/>
	<path fill="#FFFFFF" d="M47.656-7.375c0-13.387,10.771-24.239,24.054-24.239c13.293,0,24.063,10.853,24.063,24.239
		c0,13.388-10.771,24.233-24.06,24.233C58.427,16.858,47.656,6.013,47.656-7.375"/>
	<path fill="#FFFFFF" d="M88.396-38.07c0-7.669,6.182-13.895,13.794-13.895c7.613,0,13.781,6.226,13.781,13.895
		c0,7.666-6.175,13.884-13.781,13.884C94.578-24.186,88.396-30.404,88.396-38.07"/>
</g>
</svg>
