<?xml version="1.0" encoding="utf-8"?>
<!DOCTYPE svg PUBLIC "-//W3C//DTD SVG 1.1//EN" "http://www.w3.org/Graphics/SVG/1.1/DTD/svg11.dtd">
<svg version="1.1" id="Layer_1" xmlns="http://www.w3.org/2000/svg" xmlns:xlink="http://www.w3.org/1999/xlink" x="0px" y="0px" width="216px" height="216px" viewBox="0 0 216 216" enable-background="new 0 0 216 216" xml:space="preserve">
<g>
	<path fill="#425E99" d="M108.034,149.006c58.795,0,106.466-17.997,106.466-40.251s-47.671-40.32-106.466-40.32
		C49.17,68.434,1.5,86.5,1.5,108.754C1.5,131.01,49.17,149.006,108.034,149.006L108.034,149.006z"/>
	<path fill="#FFFFFF" d="M108.034,144.885c-56.461,0-102.344-16.074-102.344-36.13c0-19.987,45.883-36.267,102.344-36.267
		c56.599,0,102.411,16.28,102.411,36.267C210.445,128.811,164.633,144.885,108.034,144.885z"/>
	<path fill="#425E99" d="M108.034,142.069c54.744,0,99.184-14.905,99.184-33.315c0-18.339-44.439-33.245-99.184-33.245
		c-54.813,0-99.116,14.906-99.116,33.245C8.919,127.164,53.222,142.069,108.034,142.069L108.034,142.069z"/>
	<path fill="#FFFFFF" d="M133.999,115.417c4.672-4.396,7.28-8.998,14.013-8.93c4.051,0.069,5.081,3.298,5.768,4.671l8.86-14.973
		h5.426l-14.696,26.033c-0.276,0.55-0.964,1.58-0.895,2.404c0.141,1.304,1.787,0.962,1.169,0.962
		c2.952-0.138,8.378-5.77,9.685-7.144c0.272-0.345,0.756-0.962,1.028-0.962c0.276,0,0.826,0.275,0.826,0.688
		c0,0.274-0.618,1.304-1.099,1.922c-2.748,3.436-7.281,8.723-12.434,8.861c-2.541,0-3.503-1.03-3.847-3.021
		c-1.167,1.028-5.152,2.815-9.203,2.815c-3.367-0.068-4.741-2.061-5.426-3.641c-0.618-1.304-0.895-3.227-0.414-5.149
		c-1.854,0.961-3.571,1.099-6.044,1.03c-2.887-0.07-4.671-1.374-5.563-4.741c-3.297,6.046-3.436,6.251-6.801,12.57h-5.837
		l7.486-12.706c0.962-1.719,1.444-3.092,1.784-4.533c0.208-0.826-0.41-1.581-1.305-1.648c-0.96,0-2.539,0.962-4.051,2.403
		c0,0-3.848,4.121-6.664,8.312c-2.68,3.984-7.281,8.517-12.294,8.517c-3.641,0-6.938-1.991-7.625-5.838c0,0-0.344,0.893-3.573,2.747
		c-0.274,0.137-0.961,0.549-1.166,0.412c-0.619-0.549-0.961-1.236-1.031-1.718c0.206,0.069,0.618-0.275,1.923-1.306
		c2.541-1.923,3.091-3.436,3.091-3.436c0.617-1.305,1.718-3.365,2.473-4.808c2.062-4.121,5.632-8.312,11.47-8.518
		c0.962,0,1.236,0.413,1.443,0.756c0.549,0.412,0.344,1.236,0.344,1.236c-4.121,0.618-6.937,3.022-8.655,5.357
		c-1.029,1.512-2.128,3.984-2.334,5.77c-0.412,3.091,1.03,5.15,3.159,5.633c3.983,0.618,7.28-2.267,9.891-6.731
		c0.688-1.168,1.168-4.19,1.168-5.839s-0.894-3.366-1.581-4.054c0-1.167,0.755-1.922,1.647-1.922c0.274,0,0.55,0,0.824,0.274
		c1.374,1.375,2.13,3.984,2.13,5.977c0,0.687,0,1.374-0.138,2.062c2.885-3.503,6.525-8.037,9.343-8.93
		c0.549-0.274,1.099-0.274,1.646-0.274c5.152-0.138,4.466,4.533,4.466,4.533c2.747-3.159,4.669-4.327,7.212-4.19
		c2.747,0.137,3.709,2.062,3.709,3.572c-0.069,1.786-1.372,3.847-3.639,3.914c-1.995,0-3.161-0.961-3.779-2.746
		c-1.305,0.48-1.923,1.374-2.196,3.158c-0.414,2.268,1.304,4.054,3.501,4.054C130.977,118.303,132.627,116.653,133.999,115.417
		L133.999,115.417z M138.12,85.813c0,2.198-7.694,6.388-14.22,6.388c-10.166,0-20.742-4.877-25.618-5.976
		c-5.29-1.236-10.098-2.267-13.876-2.267c-13.257,0-19.165,5.701-18.889,10.921c0.138,2.129,1.854,3.503,4.396,3.022
		c2.749-0.48,6.594-3.091,7.556-5.358c0.206-0.48,0.756-0.549,0.962-0.412c0.412,0.344,0.275,0.824,0.275,0.824
		c-0.344,2.679-4.466,10.098-11.608,10.098c-3.984,0-6.663-3.709-6.595-7.35c0.069-6.8,7.007-13.669,24.109-13.669
		c3.228,0,6.869,0.274,10.853,0.962c4.601,0.824,16.072,2.748,25.413,2.885c3.436,0,7.832,0.138,11.403-0.413
		c3.777-0.618,2.953-0.755,4.466-0.755C138.12,84.714,138.12,85.263,138.12,85.813L138.12,85.813z"/>
	<path fill="#425E99" d="M148.287,109.716c-2.406-0.273-5.43,1.787-7.9,4.81c-1.236,1.511-2.54,4.396-2.748,6.113
		c-0.272,1.717,0.208,3.434,0.826,3.915c0.618,0.48,3.366,1.923,7.624-2.404c2.402-2.404,4.737-6.319,4.737-6.319l-0.754-0.207
		C151.515,112.945,151.236,110.06,148.287,109.716z"/>
	<path fill="#FFFFFF" d="M98.076,101.611c0,0.756,1.029,1.374,1.923,1.443c-0.206,0.755-0.138,1.099-0.48,1.031
		c-2.061,0-2.885-1.992-2.885-1.992c-2.746,0.48-5.425,0.824-10.852,1.374c-13.669,22.118-17.927,25.759-26.308,25.759
		c-5.976,0-11.264-3.915-11.402-10.922c-0.069-4.258,3.366-9.479,9.753-11.059c0.756,0,1.03,0.276,1.03,0.688
		c0,0.275-0.274,0.618-0.893,0.892c-1.855,0.688-5.083,4.328-5.083,7.695c0,2.54,1.581,5.357,4.258,5.975
		c0.756,0.207,1.444,0.138,2.13,0.138c6.663,0,14.149-7.487,22.254-18.889c-1.304,0.068-6.869,0.688-8.242,2.267
		c-0.617,0.48-1.029,0.206-1.167-0.344c0-0.138,0.206-0.618,0.413-0.894c2.197-2.473,8.792-3.022,10.371-3.228
		c6.182-9.479,14.149-15.387,15.798-15.318c0.274,0,0.894,0.412,0.618,1.099c-0.069,0.137-0.756,0.892-1.029,1.098
		c-1.374,1.236-6.045,4.259-11.128,12.845c4.122-0.206,8.929-1.03,8.929-1.03s-0.274-0.893-0.274-1.649
		c0.206-2.953,1.923-4.739,4.122-4.395c1.237,0.206,2.061,1.236,2.061,2.334c0,1.168-0.893,2.885-1.786,3.71
		C99.586,100.718,98.898,101.199,98.076,101.611L98.076,101.611z"/>
	<path fill="#425E99" d="M97.731,100.1c0,0,0.688,0.069,1.716-1.099c0.412-0.412,1.1-1.648,0.962-2.473
		c-0.069-0.412-0.274-0.893-0.755-0.824c-1.032,0.207-1.65,0.688-1.924,1.718C97.388,98.521,97.526,99.276,97.731,100.1
		L97.731,100.1z"/>
</g>
</svg>
