<?xml version="1.0" encoding="utf-8"?>
<!DOCTYPE svg PUBLIC "-//W3C//DTD SVG 1.1//EN" "http://www.w3.org/Graphics/SVG/1.1/DTD/svg11.dtd">
<svg version="1.1" id="icon_1" xmlns="http://www.w3.org/2000/svg" xmlns:xlink="http://www.w3.org/1999/xlink" x="0px" y="0px"
	 width="100px" height="100px" viewBox="0 0 100 100" enable-background="new 0 0 100 100" xml:space="preserve">
<g>
	<path fill-rule="evenodd" clip-rule="evenodd" d="M3,36.081L49.807,5.684l0.006,0.007l0.004-0.007l46.807,30.397
		v4.311H90.25L49.813,14.131L9.373,40.392H3V36.081L3,36.081z M6.599,85.119h86.372v7.088H6.599V85.119L6.599,85.119z
		 M75.262,73.385h3.859V49.02h-3.859v-7.086h14.023v7.086h-3.076v24.365h3.076v7.086H75.262V73.385L75.262,73.385z M10.462,73.385
		h3.859V49.02h-3.859v-7.086h14.022v7.086h-3.077v24.365h3.077v7.086H10.462V73.385L10.462,73.385z M32.063,73.385h3.859V49.02
		h-3.859v-7.086h14.022v7.086h-3.077v24.365h3.077v7.086H32.063V73.385L32.063,73.385z M53.662,73.385h3.859V49.02h-3.859v-7.086
		h14.023v7.086h-3.078v24.365h3.078v7.086H53.662V73.385L53.662,73.385z"/>
</g>
</svg>
