<?xml version="1.0" encoding="utf-8"?>
<!DOCTYPE svg PUBLIC "-//W3C//DTD SVG 1.1//EN" "http://www.w3.org/Graphics/SVG/1.1/DTD/svg11.dtd">
<svg version="1.1" id="icon_16" xmlns="http://www.w3.org/2000/svg" xmlns:xlink="http://www.w3.org/1999/xlink" x="0px" y="0px"
	 width="100px" height="100px" viewBox="0 0 100 100" enable-background="new 0 0 100 100" xml:space="preserve">
<g>
	<path fill-rule="evenodd" clip-rule="evenodd" d="M86.141,39.699c4.615,1.716,7.824,5.383,7.824,9.605v5.79v1.721
		v5.79c0,4.222-3.208,7.89-7.824,9.605v5.885c0,7.058-5.678,12.831-12.619,12.831H21.62C14.679,90.926,9,85.152,9,78.095V21.296
		c0-7.057,5.679-12.831,12.62-12.831h51.902c12.755,0,12.619,1.291,12.619,12.831V39.699L86.141,39.699z M16.98,16.915h61.181
		v15.647h2.973V13.785H22.77c-4.225,0-7.75,3.143-8.356,7.206l-0.002,0.02l-0.002,0.019c-0.021,0.14-0.037,0.281-0.051,0.422v0
		l-0.001,0.02l-0.001,0.02l-0.002,0.02l-0.002,0.019l-0.006,0.072l-0.001,0.012l-0.001,0.028l0,0.005l-0.001,0.02l0,0.002
		l-0.002,0.033l0,0.003l-0.001,0.02v0.001l-0.003,0.037v0.001l-0.004,0.078l-0.001,0.02l0,0.02l-0.001,0.02l-0.001,0.036v0.004
		l0,0.02l0,0.02l-0.001,0.02l-0.001,0.059l-0.001,0.04v0.02v0.02v0l-0.001,0.039v0.02l0,0.039v1.878
		c0,0.072,0.001,0.146,0.003,0.218s0.005,0.144,0.008,0.216s0.009,0.144,0.014,0.215s0.012,0.142,0.019,0.212
		c0.008,0.071,0.016,0.142,0.025,0.212l0.029,0.21c0.011,0.07,0.022,0.139,0.035,0.208c0.012,0.069,0.025,0.138,0.039,0.206
		c0.014,0.069,0.03,0.137,0.045,0.205c0.016,0.068,0.032,0.136,0.05,0.204l0.055,0.201v0c0.019,0.066,0.039,0.132,0.06,0.199l0,0
		c0.021,0.066,0.043,0.132,0.065,0.197l0,0c0.022,0.065,0.045,0.13,0.069,0.194v0l0.073,0.192v0c0.025,0.064,0.051,0.126,0.078,0.19
		l0,0l0.083,0.188v0l0.087,0.186l0,0l0.091,0.183v0l0.096,0.18v0l0.1,0.178v0l0.104,0.175v0l0.108,0.173v0
		c0.037,0.057,0.074,0.113,0.112,0.169v0l0.117,0.167v0l0.12,0.164v0l0.124,0.161v0l0.127,0.158l0,0
		c0.043,0.052,0.087,0.104,0.131,0.155l0,0l0.135,0.151v0l0.138,0.148v0c0.047,0.049,0.094,0.097,0.142,0.144v0l0.145,0.142l0,0
		l0.033,0.031V16.915L16.98,16.915z M19.797,19.105h55.86v2.816h-55.86V19.105L19.797,19.105z M19.797,24.269h55.86v2.816h-55.86
		V24.269L19.797,24.269z M19.797,29.432h55.86v2.816H20.491l-0.027-0.008c-0.067-0.019-0.133-0.04-0.2-0.06l-0.197-0.064
		c-0.065-0.022-0.13-0.045-0.195-0.069l-0.076-0.029V29.432L19.797,29.432z M80.821,37.725H20.72c-2.604,0-4.95-1.153-6.556-2.973
		V77c0,4.905,4.014,8.919,8.919,8.919h48.82c4.905,0,8.919-4.014,8.919-8.919v-3.765c-0.183,0.005-0.366,0.009-0.551,0.009H56.336
		c-7.532,0-13.694-4.788-13.694-10.64v-7.511c0-5.852,6.163-10.64,13.694-10.64h23.935c0.185,0,0.368,0.003,0.551,0.009v-5.789
		V37.725L80.821,37.725z M87.86,46.332l-0.032,14.885c0,0.051-0.001,0.102-0.003,0.152l-0.001,0.032l-0.007,0.116l-0.006,0.074
		l-0.013,0.124l-0.002,0.015l-0.006,0.046l-0.013,0.091l-0.01,0.063l-0.017,0.092l-0.009,0.046l-0.003,0.016
		c-0.01,0.049-0.02,0.097-0.031,0.145l-0.002,0.007l-0.008,0.03l-0.027,0.107l-0.014,0.05l-0.027,0.089L87.59,62.64l-0.021,0.058
		l-0.031,0.086l-0.007,0.018l-0.022,0.058l-0.02,0.05l-0.054,0.127l-0.02,0.043l-0.051,0.108l-0.023,0.049l-0.036,0.072
		l-0.036,0.068l-0.031,0.057l-0.03,0.057l-0.051,0.088l-0.022,0.037c-0.081,0.136-0.169,0.27-0.264,0.4l-0.034,0.046
		c-0.204,0.278-0.437,0.547-0.696,0.803v-0.001c-0.781,0.771-1.803,1.435-2.994,1.944l-0.019,0.008
		c-0.714,0.304-1.487,0.553-2.307,0.737c-1.07,0.24-2.22,0.373-3.413,0.373h-18.21c-5.732,0-10.42-3.019-10.42-6.708v-4.735
		c0-3.689,4.688-6.708,10.42-6.708h18.21C82.592,49.773,84.981,49.43,87.86,46.332L87.86,46.332z M56.898,53.753
		c2.768,0,5.012,2.244,5.012,5.012s-2.244,5.012-5.012,5.012c-2.767,0-5.012-2.244-5.012-5.012S54.132,53.753,56.898,53.753
		L56.898,53.753z"/>
</g>
</svg>
