<?xml version="1.0" encoding="utf-8"?>
<!DOCTYPE svg PUBLIC "-//W3C//DTD SVG 1.1//EN" "http://www.w3.org/Graphics/SVG/1.1/DTD/svg11.dtd">
<svg version="1.1" id="icon_22" xmlns="http://www.w3.org/2000/svg" xmlns:xlink="http://www.w3.org/1999/xlink" x="0px" y="0px"
	 width="100px" height="100px" viewBox="0 0 100 100" enable-background="new 0 0 100 100" xml:space="preserve">

<rect x="7.856" y="7.815" shape-rendering="optimizeSpeed" width="4.008" height="4.008"/>
<rect x="11.864" y="7.815" shape-rendering="optimizeSpeed" width="4.008" height="4.008"/>
<rect x="15.872" y="7.815" shape-rendering="optimizeSpeed" width="4.009" height="4.008"/>
<rect x="19.88" y="7.815" shape-rendering="optimizeSpeed" width="4.007" height="4.008"/>
<rect x="23.888" y="7.815" shape-rendering="optimizeSpeed" width="4.008" height="4.008"/>
<rect x="27.896" y="7.815" shape-rendering="optimizeSpeed" width="4.008" height="4.008"/>
<rect x="31.904" y="7.815" shape-rendering="optimizeSpeed" width="4.007" height="4.008"/>
<rect x="43.928" y="7.815" shape-rendering="optimizeSpeed" width="4.008" height="4.008"/>
<rect x="51.944" y="7.815" shape-rendering="optimizeSpeed" width="4.007" height="4.008"/>
<rect x="55.951" y="7.815" shape-rendering="optimizeSpeed" width="4.008" height="4.008"/>
<rect x="63.969" y="7.815" shape-rendering="optimizeSpeed" width="4.008" height="4.008"/>
<rect x="67.977" y="7.815" shape-rendering="optimizeSpeed" width="4.007" height="4.008"/>
<rect x="71.983" y="7.815" shape-rendering="optimizeSpeed" width="4.009" height="4.008"/>
<rect x="75.992" y="7.815" shape-rendering="optimizeSpeed" width="4.007" height="4.008"/>
<rect x="79.999" y="7.815" shape-rendering="optimizeSpeed" width="4.009" height="4.008"/>
<rect x="84.008" y="7.815" shape-rendering="optimizeSpeed" width="4.009" height="4.008"/>
<rect x="88.017" y="7.815" shape-rendering="optimizeSpeed" width="4.008" height="4.008"/>
<rect x="7.856" y="11.824" shape-rendering="optimizeSpeed" width="4.008" height="4.008"/>
<rect x="31.904" y="11.824" shape-rendering="optimizeSpeed" width="4.007" height="4.008"/>
<rect x="43.928" y="11.824" shape-rendering="optimizeSpeed" width="4.008" height="4.008"/>
<rect x="47.936" y="11.824" shape-rendering="optimizeSpeed" width="4.008" height="4.008"/>
<rect x="51.944" y="11.824" shape-rendering="optimizeSpeed" width="4.007" height="4.008"/>
<rect x="63.969" y="11.824" shape-rendering="optimizeSpeed" width="4.008" height="4.008"/>
<rect x="88.017" y="11.824" shape-rendering="optimizeSpeed" width="4.008" height="4.008"/>
<rect x="7.856" y="15.832" shape-rendering="optimizeSpeed" width="4.008" height="4.008"/>
<rect x="15.872" y="15.832" shape-rendering="optimizeSpeed" width="4.009" height="4.008"/>
<rect x="19.88" y="15.832" shape-rendering="optimizeSpeed" width="4.007" height="4.008"/>
<rect x="23.888" y="15.832" shape-rendering="optimizeSpeed" width="4.008" height="4.008"/>
<rect x="31.904" y="15.832" shape-rendering="optimizeSpeed" width="4.007" height="4.008"/>
<rect x="39.92" y="15.832" shape-rendering="optimizeSpeed" width="4.008" height="4.008"/>
<rect x="43.928" y="15.832" shape-rendering="optimizeSpeed" width="4.008" height="4.008"/>
<rect x="51.944" y="15.832" shape-rendering="optimizeSpeed" width="4.007" height="4.008"/>
<rect x="55.951" y="15.832" shape-rendering="optimizeSpeed" width="4.008" height="4.008"/>
<rect x="63.969" y="15.832" shape-rendering="optimizeSpeed" width="4.008" height="4.008"/>
<rect x="71.983" y="15.832" shape-rendering="optimizeSpeed" width="4.009" height="4.008"/>
<rect x="75.992" y="15.832" shape-rendering="optimizeSpeed" width="4.007" height="4.008"/>
<rect x="79.999" y="15.832" shape-rendering="optimizeSpeed" width="4.009" height="4.008"/>
<rect x="88.017" y="15.832" shape-rendering="optimizeSpeed" width="4.008" height="4.008"/>
<rect x="7.856" y="19.84" shape-rendering="optimizeSpeed" width="4.008" height="4.008"/>
<rect x="15.872" y="19.84" shape-rendering="optimizeSpeed" width="4.009" height="4.008"/>
<rect x="19.88" y="19.84" shape-rendering="optimizeSpeed" width="4.007" height="4.008"/>
<rect x="23.888" y="19.84" shape-rendering="optimizeSpeed" width="4.008" height="4.008"/>
<rect x="31.904" y="19.84" shape-rendering="optimizeSpeed" width="4.007" height="4.008"/>
<rect x="43.928" y="19.84" shape-rendering="optimizeSpeed" width="4.008" height="4.008"/>
<rect x="51.944" y="19.84" shape-rendering="optimizeSpeed" width="4.007" height="4.008"/>
<rect x="63.969" y="19.84" shape-rendering="optimizeSpeed" width="4.008" height="4.008"/>
<rect x="71.983" y="19.84" shape-rendering="optimizeSpeed" width="4.009" height="4.008"/>
<rect x="75.992" y="19.84" shape-rendering="optimizeSpeed" width="4.007" height="4.008"/>
<rect x="79.999" y="19.84" shape-rendering="optimizeSpeed" width="4.009" height="4.008"/>
<rect x="88.017" y="19.84" shape-rendering="optimizeSpeed" width="4.008" height="4.008"/>
<rect x="7.856" y="23.848" shape-rendering="optimizeSpeed" width="4.008" height="4.008"/>
<rect x="15.872" y="23.848" shape-rendering="optimizeSpeed" width="4.009" height="4.008"/>
<rect x="19.88" y="23.848" shape-rendering="optimizeSpeed" width="4.007" height="4.008"/>
<rect x="23.888" y="23.848" shape-rendering="optimizeSpeed" width="4.008" height="4.008"/>
<rect x="31.904" y="23.848" shape-rendering="optimizeSpeed" width="4.007" height="4.008"/>
<rect x="47.936" y="23.848" shape-rendering="optimizeSpeed" width="4.008" height="4.008"/>
<rect x="55.951" y="23.848" shape-rendering="optimizeSpeed" width="4.008" height="4.008"/>
<rect x="63.969" y="23.848" shape-rendering="optimizeSpeed" width="4.008" height="4.008"/>
<rect x="71.983" y="23.848" shape-rendering="optimizeSpeed" width="4.009" height="4.008"/>
<rect x="75.992" y="23.848" shape-rendering="optimizeSpeed" width="4.007" height="4.008"/>
<rect x="79.999" y="23.848" shape-rendering="optimizeSpeed" width="4.009" height="4.008"/>
<rect x="88.017" y="23.848" shape-rendering="optimizeSpeed" width="4.008" height="4.008"/>
<rect x="7.856" y="27.856" shape-rendering="optimizeSpeed" width="4.008" height="4.008"/>
<rect x="31.904" y="27.856" shape-rendering="optimizeSpeed" width="4.007" height="4.008"/>
<rect x="55.951" y="27.856" shape-rendering="optimizeSpeed" width="4.008" height="4.008"/>
<rect x="63.969" y="27.856" shape-rendering="optimizeSpeed" width="4.008" height="4.008"/>
<rect x="88.017" y="27.856" shape-rendering="optimizeSpeed" width="4.008" height="4.008"/>
<rect x="7.856" y="31.864" shape-rendering="optimizeSpeed" width="4.008" height="4.008"/>
<rect x="11.864" y="31.864" shape-rendering="optimizeSpeed" width="4.008" height="4.008"/>
<rect x="15.872" y="31.864" shape-rendering="optimizeSpeed" width="4.009" height="4.008"/>
<rect x="19.88" y="31.864" shape-rendering="optimizeSpeed" width="4.007" height="4.008"/>
<rect x="23.888" y="31.864" shape-rendering="optimizeSpeed" width="4.008" height="4.008"/>
<rect x="27.896" y="31.864" shape-rendering="optimizeSpeed" width="4.008" height="4.008"/>
<rect x="31.904" y="31.864" shape-rendering="optimizeSpeed" width="4.007" height="4.008"/>
<rect x="39.92" y="31.864" shape-rendering="optimizeSpeed" width="4.008" height="4.008"/>
<rect x="47.936" y="31.864" shape-rendering="optimizeSpeed" width="4.008" height="4.008"/>
<rect x="55.951" y="31.864" shape-rendering="optimizeSpeed" width="4.008" height="4.008"/>
<rect x="63.969" y="31.864" shape-rendering="optimizeSpeed" width="4.008" height="4.008"/>
<rect x="67.977" y="31.864" shape-rendering="optimizeSpeed" width="4.007" height="4.008"/>
<rect x="71.983" y="31.864" shape-rendering="optimizeSpeed" width="4.009" height="4.008"/>
<rect x="75.992" y="31.864" shape-rendering="optimizeSpeed" width="4.007" height="4.008"/>
<rect x="79.999" y="31.864" shape-rendering="optimizeSpeed" width="4.009" height="4.008"/>
<rect x="84.008" y="31.864" shape-rendering="optimizeSpeed" width="4.009" height="4.008"/>
<rect x="88.017" y="31.864" shape-rendering="optimizeSpeed" width="4.008" height="4.008"/>
<rect x="39.92" y="35.872" shape-rendering="optimizeSpeed" width="4.008" height="4.008"/>
<rect x="43.928" y="35.872" shape-rendering="optimizeSpeed" width="4.008" height="4.008"/>
<rect x="51.944" y="35.872" shape-rendering="optimizeSpeed" width="4.007" height="4.008"/>
<rect x="55.951" y="35.872" shape-rendering="optimizeSpeed" width="4.008" height="4.008"/>
<rect x="7.856" y="39.88" shape-rendering="optimizeSpeed" width="4.008" height="4.008"/>
<rect x="11.864" y="39.88" shape-rendering="optimizeSpeed" width="4.008" height="4.008"/>
<rect x="15.872" y="39.88" shape-rendering="optimizeSpeed" width="4.009" height="4.008"/>
<rect x="23.888" y="39.88" shape-rendering="optimizeSpeed" width="4.008" height="4.008"/>
<rect x="27.896" y="39.88" shape-rendering="optimizeSpeed" width="4.008" height="4.008"/>
<rect x="31.904" y="39.88" shape-rendering="optimizeSpeed" width="4.007" height="4.008"/>
<rect x="35.912" y="39.88" shape-rendering="optimizeSpeed" width="4.008" height="4.008"/>
<rect x="39.92" y="39.88" shape-rendering="optimizeSpeed" width="4.008" height="4.008"/>
<rect x="43.928" y="39.88" shape-rendering="optimizeSpeed" width="4.008" height="4.008"/>
<rect x="47.936" y="39.88" shape-rendering="optimizeSpeed" width="4.008" height="4.008"/>
<rect x="51.944" y="39.88" shape-rendering="optimizeSpeed" width="4.007" height="4.008"/>
<rect x="59.959" y="39.88" shape-rendering="optimizeSpeed" width="4.01" height="4.008"/>
<rect x="63.969" y="39.88" shape-rendering="optimizeSpeed" width="4.008" height="4.008"/>
<rect x="79.999" y="39.88" shape-rendering="optimizeSpeed" width="4.009" height="4.008"/>
<rect x="7.856" y="43.888" shape-rendering="optimizeSpeed" width="4.008" height="4.008"/>
<rect x="11.864" y="43.888" shape-rendering="optimizeSpeed" width="4.008" height="4.008"/>
<rect x="19.88" y="43.888" shape-rendering="optimizeSpeed" width="4.007" height="4.008"/>
<rect x="23.888" y="43.888" shape-rendering="optimizeSpeed" width="4.008" height="4.008"/>
<rect x="43.928" y="43.888" shape-rendering="optimizeSpeed" width="4.008" height="4.008"/>
<rect x="47.936" y="43.888" shape-rendering="optimizeSpeed" width="4.008" height="4.008"/>
<rect x="59.959" y="43.888" shape-rendering="optimizeSpeed" width="4.01" height="4.008"/>
<rect x="71.983" y="43.888" shape-rendering="optimizeSpeed" width="4.009" height="4.008"/>
<rect x="79.999" y="43.888" shape-rendering="optimizeSpeed" width="4.009" height="4.008"/>
<rect x="84.008" y="43.888" shape-rendering="optimizeSpeed" width="4.009" height="4.008"/>
<rect x="88.017" y="43.888" shape-rendering="optimizeSpeed" width="4.008" height="4.008"/>
<rect x="7.856" y="47.896" shape-rendering="optimizeSpeed" width="4.008" height="4.008"/>
<rect x="11.864" y="47.896" shape-rendering="optimizeSpeed" width="4.008" height="4.008"/>
<rect x="19.88" y="47.896" shape-rendering="optimizeSpeed" width="4.007" height="4.008"/>
<rect x="23.888" y="47.896" shape-rendering="optimizeSpeed" width="4.008" height="4.008"/>
<rect x="27.896" y="47.896" shape-rendering="optimizeSpeed" width="4.008" height="4.008"/>
<rect x="31.904" y="47.896" shape-rendering="optimizeSpeed" width="4.007" height="4.008"/>
<rect x="35.912" y="47.896" shape-rendering="optimizeSpeed" width="4.008" height="4.008"/>
<rect x="43.928" y="47.896" shape-rendering="optimizeSpeed" width="4.008" height="4.008"/>
<rect x="47.936" y="47.896" shape-rendering="optimizeSpeed" width="4.008" height="4.008"/>
<rect x="55.951" y="47.896" shape-rendering="optimizeSpeed" width="4.008" height="4.008"/>
<rect x="67.977" y="47.896" shape-rendering="optimizeSpeed" width="4.007" height="4.008"/>
<rect x="71.983" y="47.896" shape-rendering="optimizeSpeed" width="4.009" height="4.008"/>
<rect x="84.008" y="47.896" shape-rendering="optimizeSpeed" width="4.009" height="4.008"/>
<rect x="88.017" y="47.896" shape-rendering="optimizeSpeed" width="4.008" height="4.008"/>
<rect x="15.872" y="51.904" shape-rendering="optimizeSpeed" width="4.009" height="4.008"/>
<rect x="19.88" y="51.904" shape-rendering="optimizeSpeed" width="4.007" height="4.008"/>
<rect x="39.92" y="51.904" shape-rendering="optimizeSpeed" width="4.008" height="4.008"/>
<rect x="43.928" y="51.904" shape-rendering="optimizeSpeed" width="4.008" height="4.008"/>
<rect x="67.977" y="51.904" shape-rendering="optimizeSpeed" width="4.007" height="4.008"/>
<rect x="7.856" y="55.912" shape-rendering="optimizeSpeed" width="4.008" height="4.007"/>
<rect x="15.872" y="55.912" shape-rendering="optimizeSpeed" width="4.009" height="4.007"/>
<rect x="23.888" y="55.912" shape-rendering="optimizeSpeed" width="4.008" height="4.007"/>
<rect x="31.904" y="55.912" shape-rendering="optimizeSpeed" width="4.007" height="4.007"/>
<rect x="43.928" y="55.912" shape-rendering="optimizeSpeed" width="4.008" height="4.007"/>
<rect x="55.951" y="55.912" shape-rendering="optimizeSpeed" width="4.008" height="4.007"/>
<rect x="71.983" y="55.912" shape-rendering="optimizeSpeed" width="4.009" height="4.007"/>
<rect x="79.999" y="55.912" shape-rendering="optimizeSpeed" width="4.009" height="4.007"/>
<rect x="39.92" y="59.919" shape-rendering="optimizeSpeed" width="4.008" height="4.01"/>
<rect x="43.928" y="59.919" shape-rendering="optimizeSpeed" width="4.008" height="4.01"/>
<rect x="51.944" y="59.919" shape-rendering="optimizeSpeed" width="4.007" height="4.01"/>
<rect x="63.969" y="59.919" shape-rendering="optimizeSpeed" width="4.008" height="4.01"/>
<rect x="79.999" y="59.919" shape-rendering="optimizeSpeed" width="4.009" height="4.01"/>
<rect x="84.008" y="59.919" shape-rendering="optimizeSpeed" width="4.009" height="4.01"/>
<rect x="7.856" y="63.929" shape-rendering="optimizeSpeed" width="4.008" height="4.008"/>
<rect x="11.864" y="63.929" shape-rendering="optimizeSpeed" width="4.008" height="4.008"/>
<rect x="15.872" y="63.929" shape-rendering="optimizeSpeed" width="4.009" height="4.008"/>
<rect x="19.88" y="63.929" shape-rendering="optimizeSpeed" width="4.007" height="4.008"/>
<rect x="23.888" y="63.929" shape-rendering="optimizeSpeed" width="4.008" height="4.008"/>
<rect x="27.896" y="63.929" shape-rendering="optimizeSpeed" width="4.008" height="4.008"/>
<rect x="31.904" y="63.929" shape-rendering="optimizeSpeed" width="4.007" height="4.008"/>
<rect x="39.92" y="63.929" shape-rendering="optimizeSpeed" width="4.008" height="4.008"/>
<rect x="43.928" y="63.929" shape-rendering="optimizeSpeed" width="4.008" height="4.008"/>
<rect x="51.944" y="63.929" shape-rendering="optimizeSpeed" width="4.007" height="4.008"/>
<rect x="59.959" y="63.929" shape-rendering="optimizeSpeed" width="4.01" height="4.008"/>
<rect x="67.977" y="63.929" shape-rendering="optimizeSpeed" width="4.007" height="4.008"/>
<rect x="71.983" y="63.929" shape-rendering="optimizeSpeed" width="4.009" height="4.008"/>
<rect x="84.008" y="63.929" shape-rendering="optimizeSpeed" width="4.009" height="4.008"/>
<rect x="88.017" y="63.929" shape-rendering="optimizeSpeed" width="4.008" height="4.008"/>
<rect x="7.856" y="67.937" shape-rendering="optimizeSpeed" width="4.008" height="4.007"/>
<rect x="31.904" y="67.937" shape-rendering="optimizeSpeed" width="4.007" height="4.007"/>
<rect x="39.92" y="67.937" shape-rendering="optimizeSpeed" width="4.008" height="4.007"/>
<rect x="43.928" y="67.937" shape-rendering="optimizeSpeed" width="4.008" height="4.007"/>
<rect x="51.944" y="67.937" shape-rendering="optimizeSpeed" width="4.007" height="4.007"/>
<rect x="55.951" y="67.937" shape-rendering="optimizeSpeed" width="4.008" height="4.007"/>
<rect x="59.959" y="67.937" shape-rendering="optimizeSpeed" width="4.01" height="4.007"/>
<rect x="7.856" y="71.943" shape-rendering="optimizeSpeed" width="4.008" height="4.009"/>
<rect x="15.872" y="71.943" shape-rendering="optimizeSpeed" width="4.009" height="4.009"/>
<rect x="19.88" y="71.943" shape-rendering="optimizeSpeed" width="4.007" height="4.009"/>
<rect x="23.888" y="71.943" shape-rendering="optimizeSpeed" width="4.008" height="4.009"/>
<rect x="31.904" y="71.943" shape-rendering="optimizeSpeed" width="4.007" height="4.009"/>
<rect x="39.92" y="71.943" shape-rendering="optimizeSpeed" width="4.008" height="4.009"/>
<rect x="47.936" y="71.943" shape-rendering="optimizeSpeed" width="4.008" height="4.009"/>
<rect x="51.944" y="71.943" shape-rendering="optimizeSpeed" width="4.007" height="4.009"/>
<rect x="63.969" y="71.943" shape-rendering="optimizeSpeed" width="4.008" height="4.009"/>
<rect x="71.983" y="71.943" shape-rendering="optimizeSpeed" width="4.009" height="4.009"/>
<rect x="7.856" y="75.952" shape-rendering="optimizeSpeed" width="4.008" height="4.008"/>
<rect x="15.872" y="75.952" shape-rendering="optimizeSpeed" width="4.009" height="4.008"/>
<rect x="19.88" y="75.952" shape-rendering="optimizeSpeed" width="4.007" height="4.008"/>
<rect x="23.888" y="75.952" shape-rendering="optimizeSpeed" width="4.008" height="4.008"/>
<rect x="31.904" y="75.952" shape-rendering="optimizeSpeed" width="4.007" height="4.008"/>
<rect x="43.928" y="75.952" shape-rendering="optimizeSpeed" width="4.008" height="4.008"/>
<rect x="47.936" y="75.952" shape-rendering="optimizeSpeed" width="4.008" height="4.008"/>
<rect x="63.969" y="75.952" shape-rendering="optimizeSpeed" width="4.008" height="4.008"/>
<rect x="67.977" y="75.952" shape-rendering="optimizeSpeed" width="4.007" height="4.008"/>
<rect x="71.983" y="75.952" shape-rendering="optimizeSpeed" width="4.009" height="4.008"/>
<rect x="79.999" y="75.952" shape-rendering="optimizeSpeed" width="4.009" height="4.008"/>
<rect x="84.008" y="75.952" shape-rendering="optimizeSpeed" width="4.009" height="4.008"/>
<rect x="7.856" y="79.96" shape-rendering="optimizeSpeed" width="4.008" height="4.008"/>
<rect x="15.872" y="79.96" shape-rendering="optimizeSpeed" width="4.009" height="4.008"/>
<rect x="19.88" y="79.96" shape-rendering="optimizeSpeed" width="4.007" height="4.008"/>
<rect x="23.888" y="79.96" shape-rendering="optimizeSpeed" width="4.008" height="4.008"/>
<rect x="31.904" y="79.96" shape-rendering="optimizeSpeed" width="4.007" height="4.008"/>
<rect x="39.92" y="79.96" shape-rendering="optimizeSpeed" width="4.008" height="4.008"/>
<rect x="43.928" y="79.96" shape-rendering="optimizeSpeed" width="4.008" height="4.008"/>
<rect x="47.936" y="79.96" shape-rendering="optimizeSpeed" width="4.008" height="4.008"/>
<rect x="55.951" y="79.96" shape-rendering="optimizeSpeed" width="4.008" height="4.008"/>
<rect x="67.977" y="79.96" shape-rendering="optimizeSpeed" width="4.007" height="4.008"/>
<rect x="71.983" y="79.96" shape-rendering="optimizeSpeed" width="4.009" height="4.008"/>
<rect x="75.992" y="79.96" shape-rendering="optimizeSpeed" width="4.007" height="4.008"/>
<rect x="88.017" y="79.96" shape-rendering="optimizeSpeed" width="4.008" height="4.008"/>
<rect x="7.856" y="83.968" shape-rendering="optimizeSpeed" width="4.008" height="4.009"/>
<rect x="31.904" y="83.968" shape-rendering="optimizeSpeed" width="4.007" height="4.009"/>
<rect x="39.92" y="83.968" shape-rendering="optimizeSpeed" width="4.008" height="4.009"/>
<rect x="63.969" y="83.968" shape-rendering="optimizeSpeed" width="4.008" height="4.009"/>
<rect x="67.977" y="83.968" shape-rendering="optimizeSpeed" width="4.007" height="4.009"/>
<rect x="71.983" y="83.968" shape-rendering="optimizeSpeed" width="4.009" height="4.009"/>
<rect x="84.008" y="83.968" shape-rendering="optimizeSpeed" width="4.009" height="4.009"/>
<rect x="7.856" y="87.977" shape-rendering="optimizeSpeed" width="4.008" height="4.008"/>
<rect x="11.864" y="87.977" shape-rendering="optimizeSpeed" width="4.008" height="4.008"/>
<rect x="15.872" y="87.977" shape-rendering="optimizeSpeed" width="4.009" height="4.008"/>
<rect x="19.88" y="87.977" shape-rendering="optimizeSpeed" width="4.007" height="4.008"/>
<rect x="23.888" y="87.977" shape-rendering="optimizeSpeed" width="4.008" height="4.008"/>
<rect x="27.896" y="87.977" shape-rendering="optimizeSpeed" width="4.008" height="4.008"/>
<rect x="31.904" y="87.977" shape-rendering="optimizeSpeed" width="4.007" height="4.008"/>
<rect x="39.92" y="87.977" shape-rendering="optimizeSpeed" width="4.008" height="4.008"/>
<rect x="43.928" y="87.977" shape-rendering="optimizeSpeed" width="4.008" height="4.008"/>
<rect x="55.951" y="87.977" shape-rendering="optimizeSpeed" width="4.008" height="4.008"/>
<rect x="63.969" y="87.977" shape-rendering="optimizeSpeed" width="4.008" height="4.008"/>
<rect x="67.977" y="87.977" shape-rendering="optimizeSpeed" width="4.007" height="4.008"/>
<rect x="71.983" y="87.977" shape-rendering="optimizeSpeed" width="4.009" height="4.008"/>
<rect x="75.992" y="87.977" shape-rendering="optimizeSpeed" width="4.007" height="4.008"/>
<rect x="84.008" y="87.977" shape-rendering="optimizeSpeed" width="4.009" height="4.008"/>
<rect x="88.017" y="87.977" shape-rendering="optimizeSpeed" width="4.008" height="4.008"/>
</svg>
