<?xml version="1.0" encoding="utf-8"?>
<!DOCTYPE svg PUBLIC "-//W3C//DTD SVG 1.1//EN" "http://www.w3.org/Graphics/SVG/1.1/DTD/svg11.dtd">
<svg version="1.1" id="icon_23" xmlns="http://www.w3.org/2000/svg" xmlns:xlink="http://www.w3.org/1999/xlink" x="0px" y="0px"
	 width="100px" height="100px" viewBox="0 0 100 100" enable-background="new 0 0 100 100" xml:space="preserve">
<path fill-rule="evenodd" clip-rule="evenodd" fill="#EB008B" d="M91.794,26.91c4.483,0.466,8.01,4.284,8.01,8.885v41.893
	c0,4.913-4.021,8.933-8.934,8.933h-69c-4.913,0-8.933-4.02-8.933-8.933V77.38h78.856V26.91L91.794,26.91z M22.725,22.241h-14.1
	v42.51h19.339l0,0 M57.669,64.751h20.572v-42.51H62.909l0,0 M8.934,13h69c4.913,0,8.932,4.02,8.932,8.934v41.893
	c0,4.913-4.019,8.933-8.932,8.933h-69C4.02,72.759,0,68.739,0,63.826V21.934C0,17.02,4.02,13,8.934,13L8.934,13z M49.343,40.63"/>
</svg>
