<?xml version="1.0" encoding="utf-8"?>
<!DOCTYPE svg PUBLIC "-//W3C//DTD SVG 1.1//EN" "http://www.w3.org/Graphics/SVG/1.1/DTD/svg11.dtd">
<svg version="1.1" id="Layer_1" xmlns="http://www.w3.org/2000/svg" xmlns:xlink="http://www.w3.org/1999/xlink" x="0px" y="0px"
	 width="100px" height="100px" viewBox="0 0 100 100" enable-background="new 0 0 100 100" xml:space="preserve">
<g>
	<path fill-rule="evenodd" clip-rule="evenodd"  d="M50.427,78.624c-0.889,0.489-2.001,1.257-2.656,1.663
		c-1.88,1.162-3.759,2.328-5.637,3.491c-4.207,2.607-10.483,6.601-15.258,3.016c-4.676-3.511-2.814-10.774-1.853-15.609
		c0.453-2.276,0.906-4.553,1.359-6.828c0.169-0.854,0.626-2.69,0.716-3.761c-0.649-0.794-1.988-1.982-2.58-2.554
		c-1.612-1.556-3.227-3.112-4.84-4.668c-3.525-3.399-9.066-8.193-7.359-13.704c1.738-5.61,9.041-6.255,13.933-6.802
		c2.162-0.243,4.321-0.486,6.48-0.726c0.754-0.084,2.196-0.185,3.176-0.373c0.484-0.974,1.019-2.485,1.345-3.27
		c0.881-2.128,1.763-4.256,2.646-6.383c1.883-4.541,4.482-11.544,10.367-11.649c6.024-0.107,8.784,7.05,10.69,11.648
		c0.883,2.128,1.766,4.255,2.646,6.383c0.326,0.786,0.861,2.297,1.344,3.271c0.98,0.188,2.42,0.289,3.172,0.373
		c2.162,0.241,4.322,0.484,6.484,0.727c4.842,0.542,11.563,1.406,13.34,6.837c1.783,5.457-3.234,10.264-6.766,13.67
		c-1.613,1.555-3.229,3.111-4.844,4.669c-0.871,0.84-1.742,1.68-2.613,2.521c0.25,1.264,0.502,2.528,0.756,3.793
		c0.449,2.274,0.902,4.552,1.355,6.827c0.971,4.884,3.096,12.578-1.754,16.066c-4.834,3.475-11.17-0.879-15.355-3.472
		c-1.879-1.164-3.758-2.33-5.641-3.494C52.428,79.88,51.315,79.113,50.427,78.624L50.427,78.624z M45.135,24.287
		c-0.882,2.127-1.764,4.255-2.645,6.382c-2.686,6.469-2.178,6.328-9.127,7.107c-2.16,0.24-4.32,0.483-6.479,0.726
		c-12.041,1.348-11.359,2.994-3.271,10.792c1.614,1.556,3.229,3.112,4.842,4.67c5.072,4.891,4.862,4.579,3.487,11.499
		c-0.453,2.276-0.906,4.553-1.359,6.828c-2.147,10.806-1.943,13.182,8.564,6.669c1.879-1.163,3.759-2.33,5.64-3.493
		c5.926-3.673,5.352-3.673,11.278,0c1.879,1.163,3.76,2.33,5.639,3.493c10.652,6.601,10.932,5.234,8.564-6.669
		c-0.453-2.276-0.904-4.552-1.357-6.828s-0.906-4.554-1.357-6.831c1.613-1.556,3.229-3.111,4.842-4.668
		c1.615-1.558,3.23-3.114,4.844-4.67c7.697-7.422,7.641-9.57-3.27-10.792c-2.16-0.242-4.32-0.485-6.48-0.726
		c-6.947-0.779-6.441-0.638-9.125-7.107c-0.881-2.127-1.766-4.255-2.646-6.382C51.056,13.039,49.484,13.8,45.135,24.287
		L45.135,24.287z"/>
</g>
</svg>
