<?xml version="1.0" encoding="utf-8"?>
<!DOCTYPE svg PUBLIC "-//W3C//DTD SVG 1.1//EN" "http://www.w3.org/Graphics/SVG/1.1/DTD/svg11.dtd">
<svg version="1.1" id="Layer_1" xmlns="http://www.w3.org/2000/svg" xmlns:xlink="http://www.w3.org/1999/xlink" x="0px" y="0px"
	 width="100px" height="100px" viewBox="0 0 100 100" enable-background="new 0 0 100 100" xml:space="preserve">
<path fill-rule="evenodd" clip-rule="evenodd" d="M25.086,68.531h21.392v7.087H25.086v7.879h36.367v-3.084h7.088
	v3.911c0,3.442-2.816,6.259-6.26,6.259H24.259c-3.442,0-6.259-2.816-6.259-6.259V16.259C18,12.816,20.816,10,24.259,10h38.022
	c3.443,0,6.26,2.816,6.26,6.259v17.995h-7.088v-6.047H25.086V68.531L25.086,68.531z M61.453,21.12v-4.033H25.086v4.033H61.453
	L61.453,21.12z"/>
<path fill-rule="evenodd" clip-rule="evenodd" d="M65.217,76.849c-10.811,0-19.579-8.842-19.579-19.745
	s8.768-19.746,19.579-19.746c10.812,0,19.578,8.843,19.578,19.746S76.028,76.849,65.217,76.849L65.217,76.849z M65.255,65.538
	c-4.446,0-8.05-3.636-8.05-8.119c0-4.484,3.604-8.12,8.05-8.12v-4.897c-7.128,0-12.906,5.828-12.905,13.017
	c0,7.188,5.778,13.016,12.907,13.015c7.127,0,12.905-5.827,12.905-13.015h-4.856C73.306,61.881,69.679,65.538,65.255,65.538
	L65.255,65.538z M69.825,56.599c-1.047,1.057-2.747,1.057-3.796,0c-1.048-1.059-1.048-2.772,0-3.83l6.087-6.139
	c1.049-1.057,2.748-1.058,3.797,0c1.043,1.052,1.044,2.776,0.001,3.829L69.825,56.599L69.825,56.599z"/>
</svg>
