<?xml version="1.0" encoding="utf-8"?>
<!DOCTYPE svg PUBLIC "-//W3C//DTD SVG 1.1//EN" "http://www.w3.org/Graphics/SVG/1.1/DTD/svg11.dtd">
<svg version="1.1" id="icon_1" xmlns="http://www.w3.org/2000/svg" xmlns:xlink="http://www.w3.org/1999/xlink" x="0px" y="0px"
	 width="100px" height="100px" viewBox="0 0 100 100" enable-background="new 0 0 100 100" xml:space="preserve">
<g>
	<path d="M86.954,34.804c3.74,0.389,6.682,3.574,6.682,7.414V77.17c0,4.099-3.355,7.451-7.453,7.451H28.617
		c-4.099,0-7.453-3.353-7.453-7.451v-0.259h65.791V34.804L86.954,34.804z M33.701,66.373c-6.454-4.103-10.737-11.318-10.737-19.531
		c0-6.175,2.421-11.785,6.366-15.934H17.567v35.464H33.701L33.701,66.373z M62.854,30.909c3.945,4.149,6.368,9.759,6.368,15.934
		c0,8.213-4.285,15.427-10.739,19.532h17.162V30.909H62.854L62.854,30.909z M17.824,23.2h57.564c4.101,0,7.453,3.354,7.453,7.453
		v34.95c0,4.099-3.353,7.453-7.453,7.453H17.824c-4.1,0-7.453-3.354-7.453-7.453v-34.95C10.371,26.554,13.725,23.2,17.824,23.2
		L17.824,23.2z M46.139,56.723c-5.253,0-9.512-4.257-9.512-9.51s4.259-9.51,9.512-9.51v-5.736c-8.421,0-15.247,6.827-15.246,15.248
		c0,8.419,6.826,15.246,15.248,15.244c8.42,0,15.244-6.826,15.244-15.245h-5.735C55.649,52.439,51.365,56.723,46.139,56.723
		L46.139,56.723z M51.538,46.251c-1.238,1.239-3.247,1.239-4.484,0c-1.238-1.238-1.238-3.247,0-4.486l7.191-7.191
		c1.237-1.238,3.246-1.238,4.483,0c1.232,1.233,1.236,3.251,0.002,4.484L51.538,46.251L51.538,46.251z"/>
</g>
</svg>
