<?xml version="1.0" encoding="iso-8859-1"?>
<!-- Generator: Adobe Illustrator 12.0.0, SVG Export Plug-In . SVG Version: 6.00 Build 51448)  -->
<!DOCTYPE svg PUBLIC "-//W3C//DTD SVG 1.1//EN" "http://www.w3.org/Graphics/SVG/1.1/DTD/svg11.dtd" [
	<!ENTITY ns_svg "http://www.w3.org/2000/svg">
	<!ENTITY ns_xlink "http://www.w3.org/1999/xlink">
]>
<svg  version="1.1" id="Layer_1" xmlns="&ns_svg;" xmlns:xlink="&ns_xlink;" width="120.715" height="120.715"
	 viewBox="0 0 120.715 120.715" overflow="visible" enable-background="new 0 0 120.715 120.715" xml:space="preserve">
<path fill-rule="evenodd" clip-rule="evenodd" d="M60.357,0c33.329,0,60.357,27.029,60.357,60.357
	c0,33.33-27.028,60.358-60.357,60.358S0,93.687,0,60.357C0,27.029,27.028,0,60.357,0L60.357,0z M60.357,5.344
	c30.378,0,55.014,24.636,55.014,55.013c0,30.378-24.636,55.013-55.014,55.013S5.344,90.736,5.344,60.357
	C5.344,29.98,29.979,5.344,60.357,5.344L60.357,5.344z M58.631,70.029c-5.081,0-9.201-4.12-9.201-9.201
	c0-5.08,4.12-9.201,9.201-9.201c5.081,0,9.201,4.121,9.201,9.201C67.832,65.909,63.712,70.029,58.631,70.029L58.631,70.029z
	 M58.631,38.732c-5.081,0-9.201-4.12-9.201-9.201s4.12-9.201,9.201-9.201c5.081,0,9.201,4.121,9.201,9.201
	S63.712,38.732,58.631,38.732L58.631,38.732z M58.631,99.718c-5.081,0-9.201-4.121-9.201-9.201s4.12-9.201,9.201-9.201
	c5.081,0,9.201,4.121,9.201,9.201S63.712,99.718,58.631,99.718L58.631,99.718z"/>
</svg>
