<?xml version="1.0" encoding="utf-8"?>
<!DOCTYPE svg PUBLIC "-//W3C//DTD SVG 1.1//EN" "http://www.w3.org/Graphics/SVG/1.1/DTD/svg11.dtd">
<svg version="1.1" id="Layer_1" xmlns="http://www.w3.org/2000/svg" xmlns:xlink="http://www.w3.org/1999/xlink" x="0px" y="0px"
	 width="100px" height="100px" viewBox="0 0 100 100" enable-background="new 0 0 100 100" xml:space="preserve">
<g>
	<path fill-rule="evenodd" clip-rule="evenodd" d="M20.086,68.531h21.392v7.087H20.086v7.879h36.367v-3.084h7.088
		v3.911c0,3.442-2.816,6.259-6.26,6.259H19.259c-3.442,0-6.259-2.816-6.259-6.259V16.259C13,12.816,15.816,10,19.259,10h38.022
		c3.443,0,6.26,2.816,6.26,6.259v17.995h-7.088v-6.047H20.086V68.531L20.086,68.531z M56.453,21.12v-4.033H20.086v4.033H56.453
		L56.453,21.12z M53.525,39.104h28.166c4.131,0,7.51,3.38,7.51,7.511v21.28c0,4.131-3.379,7.511-7.51,7.511H53.525
		c-4.13,0-7.51-3.38-7.51-7.511v-21.28C46.016,42.484,49.396,39.104,53.525,39.104L53.525,39.104z M53.102,50.693h29.014v-4.079
		c0-0.233-0.191-0.424-0.424-0.424H53.525c-0.232,0-0.424,0.191-0.424,0.424V50.693L53.102,50.693z M82.115,57.78H63.768v6.203
		h-7.086V57.78h-3.58v10.114c0,0.233,0.191,0.425,0.424,0.425h28.166c0.232,0,0.424-0.191,0.424-0.425V57.78L82.115,57.78z"/>
</g>
</svg>
