<?xml version="1.0" encoding="utf-8"?>
<!DOCTYPE svg PUBLIC "-//W3C//DTD SVG 1.1//EN" "http://www.w3.org/Graphics/SVG/1.1/DTD/svg11.dtd">
<svg version="1.1" id="icon_1" xmlns="http://www.w3.org/2000/svg" xmlns:xlink="http://www.w3.org/1999/xlink" x="0px" y="0px"
	 width="100px" height="100px" viewBox="0 0 100 100" enable-background="new 0 0 100 100" xml:space="preserve">
<g>
	<path fill-rule="evenodd" clip-rule="evenodd" d="M71.088,57.471c-13.022,0-23.584-10.56-23.584-23.583
		c0-13.022,10.562-23.584,23.584-23.584s23.583,10.562,23.583,23.584C94.671,46.911,84.11,57.471,71.088,57.471L71.088,57.471z
		 M71.134,43.961c-5.355,0-9.697-4.341-9.697-9.697c0-5.356,4.342-9.698,9.697-9.698v-5.849c-8.586,0-15.547,6.96-15.546,15.547
		c0,8.586,6.961,15.545,15.548,15.544c8.585,0,15.545-6.96,15.545-15.544h-5.85C80.831,39.594,76.462,43.961,71.134,43.961
		L71.134,43.961z M76.639,33.285c-1.262,1.263-3.309,1.263-4.571,0c-1.264-1.264-1.264-3.311,0-4.574l7.331-7.332
		c1.263-1.263,3.311-1.264,4.573-0.001c1.257,1.256,1.258,3.315,0.002,4.573L76.639,33.285L76.639,33.285z M30.916,34.299
		c7.228,0,13.09,5.862,13.09,13.09S38.144,60.48,30.916,60.48s-13.09-5.863-13.09-13.091S23.688,34.299,30.916,34.299L30.916,34.299
		z M30.916,40.228c3.955,0,7.162,3.207,7.162,7.161c0,3.955-3.207,7.162-7.162,7.162s-7.162-3.207-7.162-7.162
		C23.754,43.435,26.961,40.228,30.916,40.228L30.916,40.228z M21.466,64.109h18.586c8.875,0,16.136,7.262,16.136,16.137v7.068H50.26
		v-0.012H11.258v0.012H5.33v-7.068C5.33,71.371,12.591,64.109,21.466,64.109L21.466,64.109z M50.26,81.375v-1.129
		c0-5.604-4.604-10.209-10.208-10.209H21.466c-5.603,0-10.208,4.605-10.208,10.209v1.129H50.26L50.26,81.375z"/>
</g>
</svg>
