<?xml version="1.0" encoding="utf-8"?>
<!DOCTYPE svg PUBLIC "-//W3C//DTD SVG 1.1//EN" "http://www.w3.org/Graphics/SVG/1.1/DTD/svg11.dtd">
<svg version="1.1" id="icon_1" xmlns="http://www.w3.org/2000/svg" xmlns:xlink="http://www.w3.org/1999/xlink" x="0px" y="0px"
	 width="100px" height="100px" viewBox="0 0 100 100" enable-background="new 0 0 100 100" xml:space="preserve">
<g>
	<path fill-rule="evenodd" clip-rule="evenodd" d="M50.222,36.182c10.414,0,18.858,8.785,18.858,19.616
		c0,10.833-15.136,32.392-18.858,37.867c-4.633-4.866-18.856-27.034-18.856-37.867C31.365,44.966,39.81,36.182,50.222,36.182
		L50.222,36.182z M49.888,81.742c5.523-8.576,12.31-20.173,12.31-25.944c0-6.708-5.075-12.735-11.977-12.735
		c-6.9,0-11.975,6.027-11.975,12.735C38.247,61.193,44.506,73.408,49.888,81.742L49.888,81.742z M50.222,50.103
		c3.024,0,5.476,2.553,5.476,5.695c0,3.146-2.451,5.697-5.476,5.697c-3.023,0-5.474-2.551-5.474-5.697
		C44.748,52.655,47.199,50.103,50.222,50.103L50.222,50.103z M84.287,90.319H62.388v-6.88h15.018V43.222l-27.49-27.49L22.431,43.215
		v40.224h15.017v6.88H15.55V50.097l-5.966,5.966l-4.866-4.866L22.93,32.985v-12.24h6.881v5.358L49.915,6l45.806,45.806l-4.865,4.866
		l-6.568-6.569V90.319L84.287,90.319z"/>
</g>
</svg>
