<?xml version="1.0" encoding="utf-8"?>
<!DOCTYPE svg PUBLIC "-//W3C//DTD SVG 1.1//EN" "http://www.w3.org/Graphics/SVG/1.1/DTD/svg11.dtd">
<svg version="1.1" xmlns="http://www.w3.org/2000/svg" xmlns:xlink="http://www.w3.org/1999/xlink" x="0px" y="0px"
	 width="216px" height="216px" viewBox="0 0 216 216" enable-background="new 0 0 216 216" xml:space="preserve">
<circle fill-rule="evenodd" clip-rule="evenodd" fill="#FFFFFF" cx="107.5" cy="107.536" r="71.071"/>
<g>
	<path fill-rule="evenodd" clip-rule="evenodd" fill="#333333" d="M107,35.465c39.758,0,72,32.242,72,72c0,17.694-6.39,33.896-16.982,46.434
		l-0.067,0.079c-0.337,0.398-0.679,0.793-1.024,1.184l-0.068,0.077l-0.07,0.078c-0.323,0.363-0.65,0.724-0.981,1.081l-0.07,0.076
		l-0.071,0.076l-0.071,0.076c-0.306,0.327-0.613,0.65-0.925,0.971l-0.357,0.366c-0.271,0.275-0.544,0.549-0.82,0.82l-0.008,0.008
		c-12.994,12.784-30.817,20.674-50.482,20.674c-19.674,0-37.504-7.898-50.501-20.692l-0.023-0.023
		c-0.268-0.264-0.533-0.529-0.797-0.797l-0.274-0.281l-0.072-0.074l-0.005-0.005c-0.305-0.314-0.607-0.632-0.907-0.952l-0.016-0.017
		l-0.071-0.076l-0.071-0.076l-0.07-0.075c-0.329-0.354-0.653-0.712-0.975-1.073l-0.069-0.077l-0.069-0.077
		c-0.343-0.388-0.682-0.779-1.017-1.174l-0.067-0.079C41.396,141.376,35,125.167,35,107.465C35,67.707,67.242,35.465,107,35.465
		L107,35.465z M107,45.691c20.218,0,39.032,20.603,39.032,48.925c0,17.991-7.658,35.489-18.426,45.863
		c10.867,1.971,20.768,5.503,29.207,10.23c10.063-11.581,16.154-26.702,16.154-43.244c0-36.427-29.54-65.968-65.968-65.968
		c-36.427,0-65.968,29.541-65.968,65.968c0,16.578,6.12,31.729,16.222,43.319c8.602-4.698,18.623-8.225,29.507-10.221
		c-10.698-10.632-18.151-28.778-18.151-46.997C68.609,65.245,86.783,45.691,107,45.691L107,45.691z M119.143,146.752
		c-3.94,2.116-8.095,3.294-12.304,3.294c-4.092,0-8.094-1.153-11.874-3.229c-12.203,1.263-23.448,4.366-32.886,8.948
		c11.778,10.96,27.566,17.668,44.92,17.668c17.375,0,33.181-6.725,44.964-17.708C142.654,151.085,131.457,147.967,119.143,146.752
		L119.143,146.752z M106.839,54.17c-2.512,0-5.011,0.342-7.43,1.021c-16.76,4.702-22.32,22.279-22.32,38.375
		c0,12.097,1.928,25.051,8.638,35.149c2.16,3.251,5.132,7.327,8.605,10.725l0.182,0.178l0.165,0.158l0.019,0.018l0.184,0.175
		l0.147,0.138l0.173,0.16l0.199,0.183l0.113,0.102l0.267,0.238l0.083,0.073l0.262,0.229l0.134,0.115l0.219,0.185l0.148,0.123
		l0.233,0.191l0.146,0.117l0.149,0.119l0.195,0.153l0.015,0.012l0.179,0.137l0.002,0.002l0.196,0.149l0.027,0.02l0.15,0.111
		l0.021,0.016l0.198,0.145l0.01,0.007l0.155,0.11l0.235,0.166l0.14,0.097l0.267,0.182l0.091,0.061l0.286,0.186l0.098,0.063
		l0.246,0.153l0.146,0.09l0.252,0.15L100.15,144c0.107,0.063,0.215,0.124,0.323,0.185l0.066,0.037
		c0.105,0.058,0.211,0.115,0.317,0.171l0.088,0.047c0.105,0.055,0.21,0.108,0.316,0.161l0.073,0.036
		c0.103,0.051,0.206,0.101,0.31,0.149l0.106,0.05c0.104,0.048,0.208,0.095,0.313,0.142l0.072,0.03c0.11,0.048,0.22,0.095,0.33,0.14
		l0.074,0.03c0.111,0.044,0.222,0.088,0.333,0.13l0.069,0.025c0.115,0.043,0.23,0.085,0.345,0.124l0.01,0.004l0.02,0.006
		c0.115,0.039,0.229,0.077,0.344,0.113l0.064,0.02c0.116,0.037,0.233,0.07,0.35,0.104l0.05,0.015
		c0.114,0.032,0.229,0.062,0.344,0.09l0.074,0.02c0.111,0.027,0.223,0.052,0.334,0.076l0.08,0.018
		c0.118,0.024,0.235,0.048,0.353,0.069l0.046,0.008c0.12,0.021,0.239,0.04,0.359,0.058l0.063,0.01
		c0.119,0.017,0.239,0.031,0.358,0.045l0.055,0.006c0.123,0.013,0.245,0.024,0.367,0.033l0.041,0.003
		c0.127,0.009,0.254,0.017,0.381,0.021h0.027c0.132,0.005,0.264,0.008,0.396,0.008c0.132,0,0.264-0.003,0.395-0.007l0.034-0.001
		c0.123-0.005,0.245-0.012,0.367-0.02l0.067-0.005c0.117-0.008,0.233-0.019,0.35-0.03l0.07-0.008
		c0.116-0.013,0.232-0.026,0.349-0.043l0.067-0.01c0.115-0.016,0.229-0.034,0.344-0.054l0.065-0.012
		c0.116-0.021,0.232-0.043,0.349-0.066l0.056-0.012c0.121-0.025,0.241-0.053,0.362-0.082l0.004-0.001h0.001l0.01-0.003
		c0.118-0.028,0.236-0.059,0.354-0.091l0.056-0.015c0.114-0.032,0.229-0.065,0.344-0.101l0.061-0.019
		c0.107-0.033,0.215-0.067,0.321-0.104l0.097-0.032c0.105-0.036,0.211-0.074,0.315-0.112l0.073-0.028
		c0.105-0.039,0.21-0.08,0.315-0.121l0.093-0.038c0.101-0.041,0.202-0.084,0.303-0.127l0.082-0.036
		c0.104-0.046,0.208-0.093,0.312-0.141l0.02-0.009l0.003-0.001l0.032-0.016c0.102-0.048,0.202-0.097,0.303-0.146l0.067-0.032
		c0.103-0.051,0.205-0.104,0.308-0.158l0.092-0.048c0.094-0.049,0.187-0.1,0.28-0.151l0.114-0.063c0.088-0.05,0.176-0.1,0.264-0.15
		l0.121-0.072l0.274-0.165l0.09-0.056c0.099-0.061,0.195-0.122,0.293-0.185l0.073-0.047l0.258-0.171l0.119-0.079l0.232-0.16
		l0.142-0.099l0.212-0.151l0.12-0.088l0.009-0.007l0.193-0.143l0.027-0.021l0.153-0.115l0.012-0.01l0.191-0.146l0.026-0.021
		l0.122-0.097l0.189-0.15l0.199-0.161l0.032-0.026l0.188-0.155l0.133-0.111l0.133-0.112l0.223-0.191l0.134-0.118l0.245-0.217
		l0.086-0.077l0.158-0.144l0.183-0.168l0.015-0.015l0.166-0.155l0.181-0.171l0.178-0.17l0.002-0.002l0.179-0.174l0.157-0.155
		l0.083-0.083l0.271-0.272c3.224-3.271,5.999-7.166,8.235-10.341c6.926-9.826,8.855-22.472,8.855-34.473
		c0-10.02-0.772-20.085-6.997-28.066c-4.896-6.275-11.827-10.947-19.794-12.106C109.355,54.262,108.098,54.17,106.839,54.17
		L106.839,54.17z M102.94,145.333c0.115,0.043,0.23,0.085,0.345,0.124L102.94,145.333L102.94,145.333z"/>
</g>
</svg>
