<?xml version="1.0" encoding="utf-8"?>
<!DOCTYPE svg PUBLIC "-//W3C//DTD SVG 1.1//EN" "http://www.w3.org/Graphics/SVG/1.1/DTD/svg11.dtd">
<svg version="1.1" xmlns="http://www.w3.org/2000/svg" xmlns:xlink="http://www.w3.org/1999/xlink" x="0px" y="0px" width="216px" height="216px" viewBox="0 0 216 216" enable-background="new 0 0 216 216" xml:space="preserve">
<g>
	<path fill-rule="evenodd" clip-rule="evenodd" d="M108.069,10.803c39.227,0,70.438,32.511,71.039,72.591
		c0.697,46.54-37.642,74.188-59.277,105.946c-12.748,18.719-10.817,20.063-24.8,0.837c-22.629-31.11-56.605-58.848-58.001-106.783
		C35.862,43.325,68.842,10.803,108.069,10.803L108.069,10.803z M151.422,61.799c4.819,0.501,8.609,4.605,8.609,9.552v45.039
		c0,5.282-4.321,9.604-9.604,9.604h-74.18c-5.283,0-9.604-4.321-9.604-9.604v-0.331h84.778V61.799L151.422,61.799z M82.798,102.481
		H62.007V56.78h58.36h16.483v45.701H82.798L82.798,102.481z M62.338,46.845h74.18c5.282,0,9.604,4.322,9.604,9.604v45.039
		c0,5.282-4.322,9.604-9.604,9.604h-74.18c-5.282,0-9.604-4.321-9.604-9.604V56.449C52.734,51.167,57.056,46.845,62.338,46.845
		L62.338,46.845z M89.292,88.373h-4.816l-1.913-4.979h-8.76l-1.806,4.979h-4.694l8.535-21.913h4.679L89.292,88.373L89.292,88.373z
		 M81.144,79.705l-3.02-8.133l-2.959,8.133H81.144L81.144,79.705z M94.296,88.373V70.169h-6.5V66.46h17.414v3.709h-6.485v18.204
		H94.296L94.296,88.373z M108.005,88.373V66.46h6.622l3.975,14.949l3.929-14.949h6.638v21.913h-4.107v-17.25l-4.352,17.25h-4.26
		l-4.337-17.25v17.25H108.005L108.005,88.373z"/>
</g>
</svg>
