<?xml version="1.0" encoding="utf-8"?>
<!DOCTYPE svg PUBLIC "-//W3C//DTD SVG 1.1//EN" "http://www.w3.org/Graphics/SVG/1.1/DTD/svg11.dtd">
<svg version="1.1" xmlns="http://www.w3.org/2000/svg" xmlns:xlink="http://www.w3.org/1999/xlink" x="0px" y="0px" width="216px" height="216px" viewBox="0 0 216 216" enable-background="new 0 0 216 216" xml:space="preserve">

<path fill-rule="evenodd" clip-rule="evenodd" d="M108.003,79.055c-10.097,0-18.287-8.192-18.287-18.289
	s8.19-18.287,18.287-18.287c10.1,0,18.287,8.19,18.287,18.287S118.103,79.055,108.003,79.055L108.003,79.055z M157.315,176.739
	c-0.021-2.647-0.516-5.104-1.488-7.39c-0.973-2.282-2.343-4.301-4.073-6.016c-1.715-1.734-3.737-3.104-6.02-4.077
	c-2.286-0.969-4.742-1.723-7.39-1.739h-11.702h-10.786c-6.427,0.126-6.609-10.364-7.937-16.797c-1.279,6.29-2.1,16.931-8.306,16.797
	H89.75h-3.421l-7.014,0.256c-2.649,0.02-5.105,0.515-7.39,1.483c-2.286,0.973-4.305,2.343-6.04,4.077
	c-1.733,1.715-3.084,3.733-4.055,6.016c-0.971,2.286-1.468,4.742-1.486,7.39c0.018,2.65,0.515,5.107,1.486,7.389
	c0.971,2.286,2.322,4.306,4.055,6.04c1.735,1.715,3.753,3.085,6.04,4.058c2.284,0.969,4.741,1.463,7.39,1.483h59.03
	c2.647-0.021,5.104-0.515,7.39-1.483c2.286-0.973,4.305-2.343,6.02-4.058c1.73-1.734,3.101-3.754,4.073-6.04
	C156.8,181.847,157.295,179.39,157.315,176.739L157.315,176.739z M127.227,181.757c-2.732,0-4.949-2.217-4.949-4.953
	c0-2.731,2.217-4.949,4.949-4.949c2.731,0,4.949,2.218,4.949,4.949C132.176,179.54,129.958,181.757,127.227,181.757L127.227,181.757
	z M107.786,181.757c-2.732,0-4.949-2.217-4.949-4.953c0-2.731,2.217-4.949,4.949-4.949c2.734,0,4.953,2.218,4.953,4.949
	C112.739,179.54,110.521,181.757,107.786,181.757L107.786,181.757z M88.348,181.757c-2.734,0-4.949-2.217-4.949-4.953
	c0-2.731,2.215-4.949,4.949-4.949c2.734,0,4.952,2.218,4.952,4.949C93.299,179.54,91.082,181.757,88.348,181.757L88.348,181.757z"/>
</svg>
