<?xml version="1.0" encoding="utf-8"?>
<!DOCTYPE svg PUBLIC "-//W3C//DTD SVG 1.1//EN" "http://www.w3.org/Graphics/SVG/1.1/DTD/svg11.dtd">
<svg version="1.1" xmlns="http://www.w3.org/2000/svg" xmlns:xlink="http://www.w3.org/1999/xlink" x="0px" y="0px" width="216px" height="216px" viewBox="0 0 216 216" enable-background="new 0 0 216 216" xml:space="preserve">

<path fill-rule="evenodd" clip-rule="evenodd" d="M16.47,0.333h182.899c8.877,0,16.137,7.262,16.137,16.137v182.899
	c0,8.873-7.26,16.137-16.137,16.137H16.47c-8.875,0-16.137-7.264-16.137-16.137V16.47C0.333,7.595,7.595,0.333,16.47,0.333
	L16.47,0.333z M16.47,5.313h182.899c6.137,0,11.155,5.02,11.155,11.157v182.899c0,6.137-5.019,11.155-11.155,11.155H16.47
	c-6.137,0-11.157-5.019-11.157-11.155V16.47C5.313,10.333,10.333,5.313,16.47,5.313L16.47,5.313z M24.354,72.399l83.557-54.263
	l0.008,0.012l0.008-0.012l83.558,54.263l8.293,5.156v2.519h-8.293h-11.378l-72.188-46.86L35.73,80.083H24.354h-8.29l-0.002-1.899
	L24.354,72.399L24.354,72.399z M16.063,180.192h40.058c0.284,1.954,0.807,3.859,1.585,5.691c1.09,2.569,2.598,4.9,4.501,6.927
	H16.063V180.192L16.063,180.192z M161.539,180.192h39.358v12.618h-45.463c1.905-2.03,3.425-4.357,4.52-6.927
	C160.732,184.047,161.255,182.146,161.539,180.192L161.539,180.192z M26.393,161.858h34.776c-1.422,1.728-2.578,3.656-3.463,5.74
	c-0.938,2.205-1.502,4.516-1.729,6.879H26.393V161.858L26.393,161.858z M156.472,161.858h34.098v12.619h-28.889
	c-0.228-2.372-0.79-4.674-1.73-6.879C159.066,165.511,157.902,163.59,156.472,161.858L156.472,161.858z M159.195,140.668h6.892
	V97.17h-6.892V84.521h25.034V97.17h-5.492v43.498h5.492v12.65h-25.034V140.668L159.195,140.668z M129.614,140.668h6.891V97.17
	h-6.891V84.521h25.033V97.17h-5.496v43.498h5.496v12.65h-25.033V140.668L129.614,140.668z M61.208,140.668h6.891V97.17h-6.891
	V84.521h25.034V97.17H80.75v43.498h5.492v12.65H61.208V140.668L61.208,140.668z M32.459,140.668h6.889V97.17h-6.889V84.521h25.032
	V97.17h-5.493v43.498h5.493v12.65H32.459V140.668L32.459,140.668z"/>

</svg>
