<?xml version="1.0" encoding="utf-8"?>
<!DOCTYPE svg PUBLIC "-//W3C//DTD SVG 1.1//EN" "http://www.w3.org/Graphics/SVG/1.1/DTD/svg11.dtd">
<svg version="1.1" id="Layer_1" xmlns="http://www.w3.org/2000/svg" xmlns:xlink="http://www.w3.org/1999/xlink" x="0px" y="0px" width="216px" height="216px" viewBox="0 0 216 216" enable-background="new 0 0 216 216" xml:space="preserve">
<g>

	<path fill-rule="evenodd" clip-rule="evenodd" d="M160.346,80.252c0.266,1.768,0.42,3.565,0.451,5.388
		c0.68,38.45-11.227,48.738-43.389,67.724c-9.608,11.966-11.063,12.824-21.603,0.535c-32.426-21.164-40.477-29.339-42.101-68.259
		c-0.081-2.359,0.053-4.677,0.382-6.942c14.222-3.913,21.36-13.371,22.141-24.56h58.228
		C135.379,67.351,142.057,78.148,160.346,80.252L160.346,80.252z M86.226,112.21c0,3.083,0.573,5.795,1.72,8.135
		c1.147,2.324,2.712,4.276,4.68,5.827c1.968,1.564,4.261,2.728,6.895,3.518c2.635,0.789,5.456,1.177,8.446,1.177
		c2.029,0,3.92-0.155,5.656-0.495c1.734-0.326,3.27-0.729,4.602-1.193c1.332-0.48,2.449-0.961,3.348-1.487
		c0.883-0.512,1.535-0.962,1.922-1.364c0.402-0.388,0.682-0.961,0.836-1.689c0.17-0.743,0.248-1.813,0.248-3.207
		c0-0.945-0.031-1.721-0.078-2.355c-0.061-0.635-0.17-1.162-0.293-1.55c-0.139-0.387-0.326-0.666-0.559-0.837
		c-0.217-0.17-0.48-0.248-0.789-0.248c-0.42,0-1.023,0.248-1.799,0.745c-0.76,0.495-1.75,1.053-2.975,1.657
		c-1.209,0.604-2.65,1.162-4.322,1.658c-1.691,0.496-3.627,0.744-5.843,0.744c-1.457,0-2.758-0.171-3.905-0.512
		c-1.146-0.357-2.123-0.853-2.928-1.487c-0.791-0.636-1.411-1.411-1.829-2.355c-0.434-0.945-0.635-1.984-0.635-3.13
		c0-1.333,0.356-2.48,1.084-3.425c0.729-0.961,1.674-1.813,2.835-2.542c0.766-0.49,1.606-0.96,2.511-1.409h20.253
		c0.297,0,0.539-0.327,0.539-0.726v-2.895c0-0.399-0.242-0.726-0.539-0.726H83.215c-0.296,0-0.54,0.327-0.54,0.726v2.895
		c0,0.399,0.243,0.726,0.54,0.726h3.966C86.54,108.061,86.226,109.999,86.226,112.21L86.226,112.21z M83.215,93.901h19.701
		l0.557-0.24c1.519-0.636,2.868-1.333,4.061-2.077c1.193-0.743,2.152-1.596,2.867-2.541c0.711-0.961,1.068-2.092,1.068-3.394
		c0-0.867-0.17-1.705-0.48-2.495c-0.326-0.79-0.805-1.457-1.457-2.015c-0.65-0.557-1.456-1.007-2.433-1.317
		c-0.959-0.325-2.091-0.48-3.393-0.48c-1.673,0-3.192,0.201-4.587,0.62c-1.395,0.403-2.619,0.852-3.672,1.363
		c-1.07,0.496-1.953,0.961-2.681,1.379s-1.255,0.635-1.597,0.635c-0.325,0-0.588-0.093-0.79-0.278
		c-0.202-0.171-0.356-0.466-0.449-0.853c-0.109-0.403-0.186-0.899-0.233-1.504c-0.046-0.604-0.062-1.347-0.062-2.215
		c0-0.791,0.015-1.457,0.031-1.984c0.03-0.527,0.093-0.96,0.17-1.317c0.077-0.34,0.155-0.62,0.263-0.837
		c0.109-0.217,0.311-0.465,0.62-0.774c0.294-0.294,0.914-0.682,1.859-1.131c0.945-0.449,2.015-0.868,3.223-1.224
		c1.208-0.372,2.511-0.651,3.905-0.868c1.395-0.217,2.79-0.31,4.168-0.31c2.696,0,5.253,0.341,7.655,1.038
		c2.4,0.697,4.494,1.751,6.26,3.161c1.781,1.395,3.191,3.177,4.23,5.299c1.039,2.138,1.566,4.618,1.566,7.422
		c0,2.463-0.357,4.556-1.086,6.322c-0.086,0.208-0.176,0.412-0.268,0.612h3.072c0.297,0,0.539,0.328,0.539,0.727v2.894
		c0,0.399-0.242,0.726-0.539,0.726H83.215c-0.296,0-0.54-0.327-0.54-0.726v-2.894C82.675,94.229,82.918,93.901,83.215,93.901
		L83.215,93.901z"/>
</g>
</svg>
