<svg class="svg-icon" style="width: 1em; height: 1em;vertical-align: middle;fill: currentColor;overflow: hidden;" viewBox="0 0 1024 1024" version="1.1" xmlns="http://www.w3.org/2000/svg"><path d="M750.933333 426.666667c-10.24 0-17.066667-6.826667-17.066666-17.066667V245.76l-3.413334 3.413333c-6.826667 6.826667-17.066667 6.826667-23.893333 0s-6.826667-17.066667 0-23.893333l34.133333-34.133333c3.413333-3.413333 13.653333-6.826667 17.066667-3.413334 6.826667 3.413333 10.24 10.24 10.24 17.066667v204.8c0 10.24-6.826667 17.066667-17.066667 17.066667z" fill="" /><path d="M785.066667 426.666667h-68.266667c-10.24 0-17.066667-6.826667-17.066667-17.066667s6.826667-17.066667 17.066667-17.066667h68.266667c10.24 0 17.066667 6.826667 17.066666 17.066667s-6.826667 17.066667-17.066666 17.066667zM812.373333 972.8C399.36 972.8 51.2 624.64 51.2 215.04c0-34.133333 27.306667-61.44 61.44-61.44h153.6c34.133333 0 61.44 27.306667 61.44 61.44 0 40.96 10.24 95.573333 30.72 157.013333 6.826667 20.48 0 44.373333-13.653333 61.44l-81.92 85.333334c58.026667 105.813333 126.293333 174.08 232.106666 232.106666l95.573334-68.266666c13.653333-13.653333 37.546667-20.48 58.026666-13.653334 44.373333 13.653333 112.64 30.72 163.84 30.72 34.133333 0 61.44 27.306667 61.44 61.44v153.6c-3.413333 30.72-30.72 58.026667-61.44 58.026667zM112.64 187.733333c-13.653333 0-27.306667 10.24-27.306667 27.306667 0 392.533333 331.093333 727.04 727.04 727.04 13.653333 0 27.306667-10.24 27.306667-27.306667v-153.6c0-13.653333-10.24-27.306667-27.306667-27.306666-54.613333 0-126.293333-17.066667-174.08-34.133334-10.24-3.413333-20.48 0-27.306666 6.826667l-105.813334 75.093333c-6.826667 3.413333-13.653333 3.413333-17.066666 0-122.88-64.853333-201.386667-139.946667-262.826667-262.826666-3.413333-6.826667-3.413333-13.653333 3.413333-20.48l88.746667-92.16c6.826667-6.826667 10.24-17.066667 6.826667-27.306667-20.48-64.853333-34.133333-122.88-34.133334-167.253333 0-13.653333-10.24-27.306667-27.306666-27.306667 0 3.413333-150.186667 3.413333-150.186667 3.413333z" fill="" /><path d="M750.933333 494.933333c-122.88 0-221.866667-98.986667-221.866666-221.866666s98.986667-221.866667 221.866666-221.866667 221.866667 98.986667 221.866667 221.866667-98.986667 221.866667-221.866667 221.866666z m0-409.6c-102.4 0-187.733333 85.333333-187.733333 187.733334s85.333333 187.733333 187.733333 187.733333S938.666667 375.466667 938.666667 273.066667 853.333333 85.333333 750.933333 85.333333z" fill="" /><path d="M750.933333 136.533333m-17.066666 0a17.066667 17.066667 0 1 0 34.133333 0 17.066667 17.066667 0 1 0-34.133333 0Z" fill="" /></svg>