<?xml version="1.0" encoding="iso-8859-1"?>
<!-- Generator: Adobe Illustrator 12.0.0, SVG Export Plug-In . SVG Version: 6.00 Build 51448)  -->
<!DOCTYPE svg PUBLIC "-//W3C//DTD SVG 1.1//EN" "http://www.w3.org/Graphics/SVG/1.1/DTD/svg11.dtd" [
	<!ENTITY ns_svg "http://www.w3.org/2000/svg">
	<!ENTITY ns_xlink "http://www.w3.org/1999/xlink">
]>
<svg  version="1.1" id="Layer_1" xmlns="&ns_svg;" xmlns:xlink="&ns_xlink;" width="125.814" height="121.882"
	 viewBox="0 0 125.814 121.882" overflow="visible" enable-background="new 0 0 125.814 121.882" xml:space="preserve">
<path fill="#FFFFFF" d="M70.771,66.838c-4.342,0-7.862,3.521-7.862,7.864c0,4.342,3.521,7.862,7.862,7.862
	c4.343,0,7.864-3.521,7.864-7.862C78.635,70.36,75.113,66.838,70.771,66.838L70.771,66.838z M114.025,47.18h-0.006V23.591v-1.966
	v-9.83C114.02,5.28,108.738,0,102.224,0H86.497H21.624C9.701,0,0,9.703,0,21.625v78.634c0,11.922,9.701,21.624,21.624,21.624h70.771
	c11.925,0,21.625-9.702,21.625-21.624v-5.897h0.006C129.744,82.562,129.744,58.979,114.025,47.18L114.025,47.18z M21.624,7.863
	L21.624,7.863h64.873h15.727c2.168,0,3.933,1.763,3.933,3.932v9.83v1.966v12.517c-1.236-0.438-2.546-0.722-3.933-0.722h-0.001
	v-3.932v-7.863v-7.864c0-2.173-1.762-3.932-3.932-3.932H15.725c-2.171,0-3.931,1.759-3.931,3.932v7.864v7.64
	c-2.426-2.48-3.93-5.863-3.93-9.606C7.864,14.026,14.025,7.863,21.624,7.863L21.624,7.863z M98.291,19.659L98.291,19.659H15.725
	v-3.932h82.566V19.659L98.291,19.659z M98.291,23.591L98.291,23.591v3.931H15.725v-3.931H98.291L98.291,23.591z M98.291,31.454
	L98.291,31.454v3.932H86.497H21.624c-2.122,0-4.104-0.518-5.899-1.375v-2.558H98.291L98.291,31.454z M106.156,100.258
	L106.156,100.258c0,7.599-6.16,13.76-13.762,13.76H21.624c-7.599,0-13.76-6.161-13.76-13.76V38.292
	c3.741,3.095,8.537,4.957,13.76,4.957h64.873h15.727c2.168,0,3.933,1.763,3.933,3.932v7.864H70.772
	c-10.858,0-19.661,8.8-19.661,19.658c0,10.857,8.802,19.658,19.661,19.658h35.384V100.258L106.156,100.258z M111.178,86.498
	L111.178,86.498H70.772c-6.504,0-11.797-5.291-11.797-11.795s5.293-11.796,11.797-11.796h35.384c2.43-0.03,4.834-1.205,6.299-3.159
	c0.409-0.55,0.726-1.167,0.982-1.813c0.035-0.088,0.1-0.154,0.131-0.242c2.827,3.705,4.383,8.251,4.383,13.078
	C117.951,76.818,115.51,82.427,111.178,86.498L111.178,86.498z"/>
</svg>
