<?xml version="1.0" encoding="utf-8"?>
<!DOCTYPE svg PUBLIC "-//W3C//DTD SVG 1.1//EN" "http://www.w3.org/Graphics/SVG/1.1/DTD/svg11.dtd">
<svg version="1.1" id="Layer_1" xmlns="http://www.w3.org/2000/svg" xmlns:xlink="http://www.w3.org/1999/xlink" x="0px" y="0px"
	 width="216px" height="216px" viewBox="0 0 216 216" enable-background="new 0 0 216 216" xml:space="preserve">
<g>
	<path fill-rule="evenodd" clip-rule="evenodd" d="M64.479,59.465h73.215c5.214,0,9.479,4.266,9.479,9.479v44.453
		c0,5.213-4.266,9.479-9.479,9.479H64.479c-5.213,0-9.479-4.266-9.479-9.479V68.944C55,63.73,59.266,59.465,64.479,59.465
		L64.479,59.465z M128.092,92.692c1.755,0,3.178,1.532,3.178,3.42s-1.423,3.42-3.178,3.42c-1.754,0-3.177-1.532-3.177-3.42
		S126.338,92.692,128.092,92.692L128.092,92.692z M128.092,86.485c4.938,0,8.943,4.312,8.943,9.627c0,5.316-4.005,9.627-8.943,9.627
		s-8.943-4.311-8.943-9.627C119.148,90.797,123.153,86.485,128.092,86.485L128.092,86.485z M105.939,77.861
		c1.754,0,3.177,1.531,3.177,3.42s-1.423,3.42-3.177,3.42c-1.754,0-3.177-1.531-3.177-3.42S104.185,77.861,105.939,77.861
		L105.939,77.861z M105.939,71.654c4.938,0,8.944,4.312,8.944,9.627s-4.006,9.627-8.944,9.627s-8.943-4.312-8.943-9.627
		S101.001,71.654,105.939,71.654L105.939,71.654z M126.813,72.287h4.388c0.518,0,0.603,0.456,0.188,1.014l-22.43,30.211
		c-0.415,0.558-1.177,1.013-1.694,1.013h-4.387c-0.517,0-0.603-0.456-0.188-1.013l22.43-30.211
		C125.533,72.743,126.296,72.287,126.813,72.287L126.813,72.287z M66.159,80.992h18.07v13.81h-18.07V80.992L66.159,80.992z"/>
	<path fill-rule="evenodd" clip-rule="evenodd" d="M81.477,127.743v20.417c0,1.128,0.453,0.758,0.453,2.418
		c1.065,1.699,1.229,3.062,2.768,4.781c1.107,1.237,3.997,3.036,4.25,3.44c1.619,0,1.81,0.726,3.622,0.726h69.732
		c2.389,0,5.368-2.6,6.735-3.93c1.355-1.316,3.679-4.995,3.679-7.436v-41.593c0-2.422-2.193-6.346-3.451-7.678
		c-1.462-1.548-4.464-3.929-7.19-3.929h-10.032v4.111h9.58c1.312,0,3.886,2.094,4.7,2.96c0.997,1.058,2.277,3.309,2.318,5.262
		c-0.508,0.126-0.521,0.242-1.132,0.242h-15.467v5.862c0,2.041-0.432,3.984-1.206,5.745h17.805c0.118,0.543,0.227,0.556,0.227,1.209
		v24.182c0,6.126-3.285,10.882-8.83,10.882H93.929c-4.317,0-8.604-4.376-8.604-8.946l0-18.725H81.477L81.477,127.743z
		 M91.212,138.245c0,0.558,0.157,0.726,0.679,0.726h70.863l0.001-7.979H91.212V138.245L91.212,138.245z"/>
</g>
</svg>
