<?xml version="1.0" encoding="utf-8"?>
<!DOCTYPE svg PUBLIC "-//W3C//DTD SVG 1.1//EN" "http://www.w3.org/Graphics/SVG/1.1/DTD/svg11.dtd">
<svg version="1.1" id="Layer_1" xmlns="http://www.w3.org/2000/svg" xmlns:xlink="http://www.w3.org/1999/xlink" x="0px" y="0px"
	 width="200px" height="180px" viewBox="0 0 200 180" enable-background="new 0 0 200 180" xml:space="preserve">
<g>
	<path fill-rule="evenodd" clip-rule="evenodd" d="M0.785,67.35h62.284c0.011,1.461,0.116,2.9,0.309,4.316H0.785
		V67.35L0.785,67.35z M135.469,67.35h62.372v4.316h-62.685C135.348,70.25,135.454,68.812,135.469,67.35L135.469,67.35z"/>
	<path fill-rule="evenodd" clip-rule="evenodd" d="M0.785,104.203h63.063c-0.31,1.408-0.528,2.85-0.656,4.316H0.785
		V104.203L0.785,104.203z M134.688,104.203h63.769v4.316h-63.113C135.215,107.053,134.995,105.611,134.688,104.203L134.688,104.203z
		"/>
	<path fill-rule="evenodd" clip-rule="evenodd" d="M1.455,35.185c21.499,0,37.353,0,58.851,0
		c20.738-11.572,51.705-11.593,77.03,0h59.33l0.332-3.652h-57.886C120.099,19.622,78.938,18.51,59.15,30.984l-57.527-0.37
		L1.455,35.185L1.455,35.185z"/>
	<path fill-rule="evenodd" clip-rule="evenodd" d="M1.455,144.377c21.499,0,37.353,0,58.851,0
		c20.738,11.57,53.31,12.143,77.03,0h59.33l0.332,3.649h-57.886c-17.021,12.409-62.517,12.743-79.962-0.064L1.623,148.33
		L1.455,144.377L1.455,144.377z"/>
	<path fill-rule="evenodd" clip-rule="evenodd" d="M127.037,91.464l-2.205-2.452l2.205-2.109
		c3.87-5.542,6.143-12.283,6.143-19.553c0-18.884-15.314-34.198-34.198-34.198S64.783,48.466,64.783,67.35
		c0,7.541,2.445,14.51,6.582,20.166l1.246,2.002c-4.136,5.656-7.748,8.201-7.782,22.99c-0.035,14.787,15.17,32.955,34.152,32.705
		c18.983-0.248,34.198-15.315,34.198-34.196C133.18,103.746,130.907,97.005,127.037,91.464L127.037,91.464z M130.537,89.04
		c4.164,6.443,6.66,13.917,6.66,21.977c0,21.102-17.113,38.216-38.215,38.216c-21.103,0-38.217-17.114-38.217-38.216
		c0-8.805,1.81-15.321,6.815-21.782c-5.097-6.385-6.617-13.311-6.815-21.885c-0.423-18.373,15.345-38.037,38.217-38.217
		c22.875-0.181,37.553,17.114,38.215,38.217C137.448,75.279,134.778,82.651,130.537,89.04L130.537,89.04z"/>
	<path fill-rule="evenodd" clip-rule="evenodd" d="M18.318,8.711h163.694c9.87,0,17.945,8.076,17.945,17.944v126.948
		c0,9.868-8.075,17.944-17.945,17.944H18.318c-9.87,0-17.946-8.076-17.946-17.944V26.656C0.372,16.787,8.448,8.711,18.318,8.711
		L18.318,8.711z M18.318,11.941h163.694c8.095,0,14.715,6.621,14.715,14.714v126.948c0,8.094-6.62,14.714-14.715,14.714H18.318
		c-8.094,0-14.715-6.62-14.715-14.714V26.656C3.603,18.562,10.224,11.941,18.318,11.941L18.318,11.941z"/>
	<polygon fill-rule="evenodd" clip-rule="evenodd" points="97.156,11.941 101.472,11.941 101.472,24.52 
		97.156,24.52 97.156,11.941 	"/>
	<polygon fill-rule="evenodd" clip-rule="evenodd" points="97.156,157.03 101.472,157.03 101.472,169.608 
		97.156,169.608 97.156,157.03 	"/>
</g>

</svg>
