<?xml version="1.0" encoding="utf-8"?>
<!DOCTYPE svg PUBLIC "-//W3C//DTD SVG 1.1//EN" "http://www.w3.org/Graphics/SVG/1.1/DTD/svg11.dtd">
<svg version="1.1" id="Layer_1" xmlns="http://www.w3.org/2000/svg" xmlns:xlink="http://www.w3.org/1999/xlink" x="0px" y="0px"
	 width="216px" height="216px" viewBox="0 0 216 216" enable-background="new 0 0 216 216" xml:space="preserve">
<path fill-rule="evenodd" clip-rule="evenodd" d="M100.825,47.367h11.707c20.764,0,37.746,16.982,37.746,37.748v14.026
	c6.533,0.488,11.729,8.447,11.729,18.189c0,10.059-5.537,18.215-12.363,18.215c-0.191,0-0.379-0.008-0.566-0.02
	c-3.582,13.787-14.813,24.57-28.84,27.51c-2.469,2.826-6.607,4.682-11.296,4.682c-7.561,0-13.693-4.822-13.693-10.768
	c0-5.947,6.132-10.77,13.693-10.77c6.458,0,11.873,3.518,13.316,8.25c6.396-2.219,11.818-6.578,15.391-12.211
	c-3.541-1.615-4.994-2.105-4.994-8.004V98.586c0-6.62,4.213-7.853,7.285-7.853h2.299v-5.979c0-1.888-0.09-3.755-0.523-5.528
	c-0.375-1.53-0.332-2.1-1.906-0.855c-1.795,1.416-2.799,1.971-5.424-2.296c-0.189-0.308-0.287-0.665-0.441-0.991
	c-3.791-8.034-11.979-13.628-21.41-13.628h-11.707c-9.497,0-17.733,5.672-21.489,13.794c-0.121,0.262-0.225,0.533-0.35,0.794
	c-2.03,4.237-3.27,3.02-5.647,1.869c-2.63-1.274-2.219,4.69-2.219,6.841V91.3h2.324c3.071,0,7.284,2.517,7.284,5.584v39.598
	c0,3.066-4.218,5.584-7.284,5.584h-2.983c-2.518-0.307-4.916-2.344-5.684-4.811c-0.178-0.572-0.343-1.148-0.494-1.729
	c-0.181,0.012-0.362,0.018-0.544,0.018c-6.828,0-12.364-8.156-12.364-18.215c0-9.729,5.183-17.68,11.703-18.187V85.115
	C63.078,64.35,80.06,47.367,100.825,47.367L100.825,47.367z M141.293,133.844c0.615-2.367,0.943-4.848,0.943-7.398V97.499h-2.299
	c-0.6,0-1.088,0.489-1.088,1.087v35.629c0,0.598,0.488,1.088,1.088,1.088C141.166,135.303,140.982,135.035,141.293,133.844
	L141.293,133.844z M71.12,97.499v28.947c0,2.496,0.314,4.971,0.936,7.371c0.316,1.225,0.532,1.506,1.388,1.486
	c0.598-0.016,1.087-0.49,1.087-1.088V98.586c0-0.598-0.489-1.087-1.087-1.087H71.12L71.12,97.499z"/>
</svg>
