<?xml version="1.0" encoding="utf-8"?>
<!DOCTYPE svg PUBLIC "-//W3C//DTD SVG 1.1//EN" "http://www.w3.org/Graphics/SVG/1.1/DTD/svg11.dtd">
<svg version="1.1" id="Layer_1" xmlns="http://www.w3.org/2000/svg" xmlns:xlink="http://www.w3.org/1999/xlink" x="0px" y="0px"
	 width="216px" height="216px" viewBox="0 0 216 216" enable-background="new 0 0 216 216" xml:space="preserve">
<g>
	<path fill-rule="evenodd" clip-rule="evenodd" d="M73.188,39.631c-8.037-0.09-16.097,2.964-22.176,9.146
		c-6.222,6.33-9.13,14.681-8.745,22.9c0.147,3.134-4.084,3.665-4.237,0.016c-0.387-9.297,2.928-18.726,9.964-25.883
		c6.879-6.997,15.989-10.473,25.084-10.412C77.262,35.428,76.946,39.674,73.188,39.631L73.188,39.631z M73.274,48.39
		c-5.799-0.114-11.631,2.065-16.018,6.527c-4.582,4.66-6.647,10.857-6.211,16.902c0.208,2.895-4.327,3.418-4.523-0.098
		c-0.401-7.157,2.1-14.451,7.52-19.964c5.241-5.331,12.194-7.961,19.124-7.877C77.389,43.931,77.056,48.464,73.274,48.39
		L73.274,48.39z M55.067,71.812c-0.442-5.026,1.236-10.206,5.049-14.084c3.509-3.57,8.153-5.351,12.793-5.333
		c4.384,0.016,4.557,4.297,0.176,4.22c-3.607-0.064-7.233,1.294-9.961,4.07c-2.926,2.976-4.206,6.956-3.851,10.811
		C59.57,74.722,55.362,75.149,55.067,71.812L55.067,71.812z M129.196,164.414c-0.109,8.162-8.208,14.752-18.181,14.752
		c-9.973,0-18.072-6.59-18.181-14.752h7.064c0.117,4.602,5.049,8.305,11.117,8.305c6.066,0,10.999-3.703,11.116-8.305H129.196
		L129.196,164.414z M159.321,125.309c0.662,7.256,11.61,17.08,17.415,25.621c-43.563,11.633-86.76,11.693-130.325-0.184
		c5.8-8.533,14.354-16.332,17.032-25.232c0-16.168,0-24.621,0-40.789c0-19.549,18.564-35.793,42.285-38.016
		c-1.168-1.298-1.877-2.99-1.877-4.839c0-4.088,3.455-7.405,7.715-7.405s7.715,3.316,7.715,7.405c0,1.872-0.725,3.582-1.918,4.886
		c23.477,2.406,41.774,18.561,41.774,37.969C159.138,100.886,159.321,109.148,159.321,125.309L159.321,125.309z M59.107,144.299
		c35.529,10.285,70.568,10.285,105.116,0c-3.928-5.779-10.978-11.74-12.15-20.275c0-16.772,0-22.525,0-39.298
		c0-3.556-0.763-7.041-2.23-10.334c-6.173-13.856-22.73-21.498-38.552-21.498c-15.82,0-32.377,7.64-38.552,21.496
		c-1.467,3.293-2.231,6.778-2.231,10.335c0,16.78,1.06,21.893,1.06,38.673C70.951,131.006,63.03,138.527,59.107,144.299
		L59.107,144.299z"/>
</g>
</svg>
