<?xml version="1.0" encoding="utf-8"?>
<!DOCTYPE svg PUBLIC "-//W3C//DTD SVG 1.1//EN" "http://www.w3.org/Graphics/SVG/1.1/DTD/svg11.dtd">
<svg version="1.1" xmlns="http://www.w3.org/2000/svg" xmlns:xlink="http://www.w3.org/1999/xlink" x="0px" y="0px" width="216px" height="216px" viewBox="0 0 216 216" enable-background="new 0 0 216 216" xml:space="preserve">
<path d="M82.103,156.364l-1.034-10.751c-0.339-3.542-0.339-6.104-0.339-7.652
	c0-3.713,2.082-6.714,6.025-6.714c5.061,0,5.49,4.813,5.49,8.81c0,1.678-0.059,3.375-0.272,5.102l-1.115,9.037
	c-1.81,0.833-3.808,1.568-6.036,2.169H82.103L82.103,156.364z M132.924,17.95h12.027c21.345,0,38.794,18.763,38.794,41.708v9.992
	c10.451,0.958,18.68,11.212,18.68,23.717c0,13.138-9.082,23.79-20.28,23.79h-0.109c-4.127,14.366-15.317,25.479-29.164,28.6
	c-2.534,3.123-6.787,5.17-11.608,5.17c-7.77,0-14.074-5.329-14.074-11.896c0-6.572,6.305-11.901,14.074-11.901
	c6.642,0,12.202,3.892,13.685,9.114c6.572-2.449,12.148-7.266,15.816-13.488c-3.64-1.787-5.134-2.328-5.134-8.847V74.54
	c0-7.313,4.334-8.674,7.489-8.674h2.36v-6.608c0-2.086-0.09-4.147-0.536-6.107c-0.382-1.689-0.342-2.319-1.958-0.944
	c-1.848,1.564-2.876,2.179-5.577-2.539c-0.194-0.339-0.292-0.733-0.45-1.095c-3.899-8.877-12.312-15.057-22.007-15.057h-12.027
	c-9.76,0-18.225,6.269-22.084,15.242c-0.125,0.291-0.233,0.587-0.361,0.877c-2.085,4.681-3.361,3.336-5.804,2.065
	c-2.701-1.408-2.278,5.183-2.278,7.557v7.236h2.388c3.156,0,7.488,2.778,7.488,6.169v43.75c0,3.388-4.336,6.17-7.488,6.17h-3.064
	c-2.587-0.337-5.053-2.587-5.841-5.313l-0.189-0.675c-9.09-2.355-15.89-11.86-15.89-23.229c0-10.709,6.036-19.769,14.332-22.75
	V59.658C94.132,36.713,111.584,17.95,132.924,17.95L132.924,17.95z M174.509,113.497c0.634-2.612,0.971-5.354,0.971-8.173V73.34
	h-2.36c-0.613,0-1.116,0.542-1.116,1.2v39.367c0,0.666,0.503,1.202,1.116,1.202C174.379,115.109,174.196,114.816,174.509,113.497
	L174.509,113.497z M102.396,73.34v31.984c0,2.756,0.323,5.492,0.962,8.145c0.325,1.356,0.544,1.665,1.426,1.641
	c0.615-0.017,1.117-0.536,1.117-1.202V74.54c0-0.658-0.502-1.2-1.117-1.2H102.396L102.396,73.34z"/>
</svg>
