<?xml version="1.0" encoding="utf-8"?>
<!DOCTYPE svg PUBLIC "-//W3C//DTD SVG 1.1//EN" "http://www.w3.org/Graphics/SVG/1.1/DTD/svg11.dtd">
<svg version="1.1" xmlns="http://www.w3.org/2000/svg" xmlns:xlink="http://www.w3.org/1999/xlink" x="0px" y="0px" width="216px" height="216px" viewBox="0 0 216 216" enable-background="new 0 0 216 216" xml:space="preserve">
<path fill-rule="evenodd" clip-rule="evenodd" d="M75.007,122.924L75.007,122.924
	c2.819-2.64,5.26-5.658,7.234-8.968l0.041,0.049l0.021,0.016l0.061,0.073l0.061,0.065l0.124,0.138l0.063,0.065l0.061,0.068
	l0.126,0.135l0.063,0.064l0.063,0.065l0.065,0.068l0.126,0.135l0.065,0.064l0.03,0.032l0.033,0.033l0.065,0.064l0.065,0.065
	l0.13,0.13l0.065,0.064l0.063,0.062l0.059,0.061l0.008,0.004l0.067,0.065l0.065,0.061l0.065,0.065l0.067,0.061l0.067,0.062
	l0.067,0.064l0.065,0.062l0.02,0.02l0.047,0.045l0.067,0.061l0.069,0.062l0.067,0.061l0.067,0.062l0.069,0.061l0.067,0.061
	l0.049,0.045l0.02,0.017l0.069,0.061l0.069,0.058l0.069,0.061l0.069,0.061l0.069,0.062l0.069,0.057l0.069,0.061l0.008,0.004
	l0.124,0.106l0.008,0.004l0.071,0.061l0.069,0.057l0.071,0.058l0.071,0.057l0.213,0.171l0.071,0.057l0.073,0.057l0.071,0.057
	l0.073,0.053l0.071,0.057l0.146,0.11l0.071,0.057l0.073,0.053l0.073,0.053c-2.076,3.27-4.56,6.271-7.38,8.932
	C75.068,130.694,71.311,126.381,75.007,122.924L75.007,122.924z M82.383,73.541c-2.126-3.631-4.811-6.913-7.943-9.734
	c-3.142-2.831,0.467-7.271,4.106-3.958c3.158,2.876,5.914,6.168,8.175,9.783l-0.073,0.055l-0.017,0.012l-0.264,0.195l-0.012,0.008
	l-0.073,0.055l-0.037,0.026l-0.037,0.028l-0.073,0.057l-0.071,0.055l-0.073,0.057l-0.071,0.055l-0.073,0.057l-0.069,0.057
	l-0.073,0.057l-0.069,0.057l-0.071,0.057l-0.071,0.057l-0.071,0.059l-0.069,0.057l-0.071,0.059l-0.069,0.059l-0.071,0.059
	l-0.069,0.059l-0.069,0.059l-0.071,0.061l-0.069,0.059l-0.067,0.059l-0.205,0.183l-0.069,0.061l-0.069,0.061l-0.067,0.061
	l-0.067,0.061l-0.069,0.061l-0.132,0.126l-0.067,0.061l-0.067,0.063l-0.067,0.063l-0.065,0.063l-0.067,0.063l-0.132,0.128
	l-0.065,0.063l-0.065,0.065l-0.065,0.065l-0.065,0.065l-0.065,0.065l-0.065,0.065l-0.055,0.057l-0.008,0.008l-0.065,0.067
	l-0.063,0.065l-0.065,0.067l-0.063,0.065l-0.063,0.067l-0.004,0.002l-0.248,0.266l-0.061,0.067l-0.063,0.067l-0.063,0.069
	L82.383,73.541L82.383,73.541z M66.547,114.711L66.547,114.711c4.338-3.988,7.447-9.23,8.712-15.134l0.004,0.028l0.047,0.24
	l0.008,0.041l0.031,0.15l0.061,0.307l0.021,0.087l0.014,0.063l0.102,0.453l0.037,0.152l0.008,0.037l0.028,0.112l0.037,0.15
	l0.039,0.15l0.039,0.15l0.039,0.148l0.041,0.148l0.124,0.445l0.022,0.083l0.02,0.065l0.045,0.146l0.042,0.146l0.045,0.146
	l0.046,0.146l0.037,0.12l0.008,0.026l0.048,0.144l0.049,0.146l0.049,0.144v0.004l0.098,0.284l0.051,0.144l0.051,0.142l0.053,0.143
	l0.105,0.286l0.053,0.14l0.055,0.142l0.112,0.282l0.057,0.14l0.057,0.138l0.236,0.557l0.061,0.138l0.122,0.274l0.063,0.138
	l0.063,0.136l0.065,0.136l0.195,0.406l0.067,0.134l0.271,0.532l0.069,0.132l0.213,0.394l0.071,0.132l0,0
	c-1.881,3.826-4.456,7.271-7.567,10.171C66.807,122.762,62.798,118.16,66.547,114.711L66.547,114.711z M75.298,87.865
	c-1.31-6.328-4.738-11.915-9.535-16.021c-2.973-2.544,0.94-7.262,4.497-4.117c3.487,3.085,6.351,6.83,8.379,11.03l-0.217,0.392
	l-0.067,0.126L78.35,79.28l-0.004,0.008l-0.274,0.522l-0.042,0.081l-0.024,0.051l-0.199,0.404l-0.067,0.134l-0.018,0.037l-0.047,0.1
	l-0.189,0.408l-0.059,0.128l-0.004,0.01l-0.233,0.534l-0.067,0.156l-0.059,0.14l-0.114,0.28l-0.057,0.142l-0.014,0.03l-0.043,0.11
	l-0.053,0.14l-0.109,0.284l-0.047,0.126l-0.006,0.017l-0.053,0.144l-0.15,0.431l-0.029,0.077l-0.022,0.067l-0.181,0.55l-0.01,0.03
	l-0.01,0.029l-0.037,0.118l-0.159,0.528l-0.012,0.037l-0.004,0.022l-0.042,0.148l-0.124,0.447l-0.021,0.073l-0.02,0.073l-0.039,0.15
	l-0.075,0.3l-0.037,0.15l-0.006,0.024l-0.031,0.126l-0.104,0.453l-0.026,0.124l-0.006,0.028l-0.096,0.459L75.298,87.865
	L75.298,87.865z M61.857,75.592L61.857,75.592c5.235,4.346,8.558,10.813,8.558,18.032c0,6.645-2.813,12.654-7.344,16.958
	c-4.281,4.064-8.544,0.173-4.21-3.834c3.57-3.296,5.8-7.957,5.8-13.124c0-5.54-2.563-10.5-6.594-13.816
	C54.69,77.03,58.378,72.708,61.857,75.592L61.857,75.592z M38.459,93.625L38.459,93.625c0-5.095,4.25-9.23,9.488-9.23
	s9.488,4.135,9.488,9.23c0,5.098-4.25,9.23-9.488,9.23S38.459,98.722,38.459,93.625L38.459,93.625z M161.219,177.511
	c-0.021-2.953-0.573-5.691-1.657-8.237c-1.081-2.547-2.612-4.797-4.541-6.711c-1.909-1.929-4.159-3.456-6.71-4.541
	c-2.547-1.08-5.285-1.633-8.233-1.657l-20.171,0.045c-11.986-4.955-5.455-19.862,5.418-25.183
	c-17.057-1.454-17.502,15.158-34.466,22.969l-0.524,4.232c-0.274,2.227-0.544,3.961-1.131,5.154
	c-0.583,1.183-1.562,1.783-2.902,1.783c-1.379,0-2.33-0.576-2.864-1.734c-0.532-1.153-0.912-2.912-1.144-5.28l-0.191-1.986h-7.821
	c-2.951,0.024-5.688,0.577-8.235,1.657c-2.549,1.085-4.799,2.612-6.73,4.541c-1.932,1.914-3.44,4.164-4.521,6.711
	c-1.083,2.546-1.637,5.284-1.657,8.237c0.021,2.948,0.575,5.69,1.657,8.232c1.081,2.547,2.589,4.797,4.521,6.73
	c1.931,1.909,4.184,3.437,6.73,4.521c2.547,1.08,5.285,1.633,8.235,1.657h65.795c2.948-0.024,5.687-0.573,8.233-1.657
	c2.551-1.085,4.801-2.612,6.71-4.521c1.929-1.934,3.46-4.18,4.541-6.73C160.646,183.197,161.198,180.459,161.219,177.511
	L161.219,177.511z M86.522,183.437c-1.55,0-2.902-0.508-4.06-1.507c-1.16-1.004-1.732-2.409-1.732-4.204
	c0-1.588,0.548-2.929,1.653-4.033c1.107-1.109,2.459-1.653,4.074-1.653c1.6,0,2.967,0.544,4.098,1.653
	c1.131,1.104,1.69,2.445,1.69,4.033c0,1.771-0.571,3.177-1.716,4.188C89.384,182.929,88.058,183.437,86.522,183.437L86.522,183.437z
	 M124.285,177.511c0,0.995-0.256,1.889-0.724,2.672c-0.467,0.784-1.104,1.401-1.909,1.869c-0.808,0.446-1.722,0.678-2.717,0.678
	c-0.979,0-1.849-0.231-2.652-0.678c-0.809-0.468-1.467-1.085-1.954-1.869c-0.487-0.783-0.723-1.677-0.743-2.672
	c0.021-0.955,0.256-1.849,0.743-2.637c0.487-0.784,1.146-1.397,1.954-1.868c0.804-0.463,1.674-0.698,2.652-0.719
	c0.995,0.021,1.909,0.256,2.717,0.719c0.805,0.471,1.442,1.084,1.909,1.868C124.029,175.662,124.285,176.556,124.285,177.511
	L124.285,177.511z M108.237,177.511c-0.022,0.995-0.256,1.889-0.723,2.672c-0.467,0.784-1.083,1.401-1.868,1.869
	c-0.784,0.446-1.676,0.678-2.632,0.678c-1.527-0.021-2.758-0.532-3.735-1.486c-0.955-0.975-1.464-2.206-1.486-3.732
	c0-0.955,0.233-1.849,0.68-2.637c0.467-0.784,1.083-1.397,1.866-1.868c0.786-0.463,1.678-0.698,2.675-0.719
	c0.957,0.021,1.848,0.256,2.632,0.719c0.786,0.471,1.401,1.084,1.868,1.868C107.981,175.662,108.214,176.556,108.237,177.511
	L108.237,177.511z"/>

</svg>
