<?xml version="1.0" encoding="utf-8"?>
<!DOCTYPE svg PUBLIC "-//W3C//DTD SVG 1.1//EN" "http://www.w3.org/Graphics/SVG/1.1/DTD/svg11.dtd">
<svg version="1.1" id="Layer_1" xmlns="http://www.w3.org/2000/svg" xmlns:xlink="http://www.w3.org/1999/xlink" x="0px" y="0px" width="216px" height="216px" viewBox="0 0 216 216" style="enable-background:new 0 0 216 216;" xml:space="preserve">
<path d="M28.886,0h170.399c9.232,0,16.787,7.554,16.787,16.786v182.411c0,9.232-7.555,16.785-16.787,16.785H28.886
	c-9.232,0-16.786-7.553-16.786-16.785v-29.49h14.922v29.488c0,1.027,0.839,1.865,1.865,1.865h170.398
	c1.025,0,1.865-0.84,1.865-1.865V16.786c0-1.025-0.838-1.864-1.865-1.864H28.887c-1.026,0-1.865,0.838-1.865,1.864v27.502H12.1
	V16.786C12.1,7.554,19.653,0,28.886,0L28.886,0z M12.1,139.189v-16.389h14.922v16.389H12.1L12.1,139.189z M12.1,92.284V74.805
	h14.922v17.479H12.1L12.1,92.284z M6.612,51.833l24.551-0.102c3.634-0.015,6.612,3.386,6.612,7.234v1.908
	c0,3.848-2.979,6.745-6.612,6.759L6.612,67.735C2.979,67.75,0,64.35,0,60.501v-1.908C0,54.744,2.978,51.848,6.612,51.833
	L6.612,51.833z M6.612,99.829l24.551-0.102c3.634-0.015,6.612,3.387,6.612,7.234v1.908c0,3.848-2.979,6.746-6.612,6.76L6.612,115.73
	C2.979,115.746,0,112.346,0,108.497v-1.908C0,102.74,2.978,99.844,6.612,99.829L6.612,99.829z M6.612,146.734l24.551-0.102
	c3.634-0.016,6.612,3.387,6.612,7.234v1.908c0,3.848-2.979,6.744-6.612,6.76l-24.551,0.102C2.979,162.652,0,159.252,0,155.402
	v-1.908C0,149.646,2.978,146.75,6.612,146.734L6.612,146.734z M87.884,173.986h59.995c3.85,0,6.998,3.148,6.998,6.996v1.908
	c0,3.848-3.15,6.998-6.998,6.998H87.884c-3.848,0-6.997-3.148-6.997-6.998v-1.908C80.887,177.135,84.035,173.986,87.884,173.986
	L87.884,173.986z M71.1,145.211c-0.192-0.18-0.383-0.363-0.573-0.545L71.1,145.211L71.1,145.211z M73.528,147.391
	c-0.197-0.168-0.393-0.336-0.587-0.508L73.528,147.391L73.528,147.391z M162.197,146.883c-0.197,0.172-0.395,0.342-0.592,0.512
	L162.197,146.883L162.197,146.883z M163.416,145.789c-0.195,0.18-0.391,0.357-0.588,0.535L163.416,145.789L163.416,145.789z
	 M164.609,144.666c-0.191,0.186-0.387,0.369-0.58,0.553L164.609,144.666L164.609,144.666z M77.637,130.742
	c9.72-11.119,24.006-18.146,39.931-18.146c15.926,0,30.211,7.027,39.932,18.146c8.154-9.324,13.096-21.528,13.096-34.885
	c0-29.281-23.746-53.027-53.027-53.027S64.541,66.576,64.541,95.857C64.541,109.214,69.483,121.416,77.637,130.742L77.637,130.742z
	 M117.68,163.188c-37.105,0-67.195-30.09-67.195-67.195c0-37.104,30.09-67.195,67.195-67.195c37.104,0,67.193,30.091,67.193,67.195
	C184.873,133.098,154.783,163.188,117.68,163.188L117.68,163.188z M117.691,103.192c-13.258,0-24.01-10.752-24.01-24.01
	s10.752-24.01,24.01-24.01c13.258,0,24.01,10.752,24.01,24.01S130.949,103.192,117.691,103.192L117.691,103.192z"/>
</svg>
