<?xml version="1.0" encoding="utf-8"?>
<!DOCTYPE svg PUBLIC "-//W3C//DTD SVG 1.1//EN" "http://www.w3.org/Graphics/SVG/1.1/DTD/svg11.dtd">
<svg version="1.1" xmlns="http://www.w3.org/2000/svg" xmlns:xlink="http://www.w3.org/1999/xlink" x="0px" y="0px" width="216px" height="216px" viewBox="0 0 216 216" enable-background="new 0 0 216 216" xml:space="preserve">
<path id="_x33_" fill-rule="evenodd" clip-rule="evenodd" fill="#F58031" d="M75.007,122.924L75.007,122.924
	c2.819-2.64,5.26-5.658,7.234-8.968l0.041,0.049l0.021,0.016l0.061,0.073l0.061,0.065l0.124,0.138l0.063,0.065l0.061,0.068
	l0.126,0.135l0.063,0.064l0.063,0.065l0.065,0.068l0.126,0.135l0.065,0.064l0.03,0.032l0.033,0.033l0.065,0.064l0.065,0.065
	l0.13,0.13l0.065,0.064l0.063,0.062l0.059,0.061l0.008,0.004l0.067,0.065l0.065,0.061l0.065,0.065l0.067,0.061l0.067,0.062
	l0.067,0.064l0.065,0.062l0.02,0.02l0.047,0.045l0.067,0.061l0.069,0.062l0.067,0.061l0.067,0.062l0.069,0.061l0.067,0.061
	l0.049,0.045l0.02,0.017l0.069,0.061l0.069,0.058l0.069,0.061l0.069,0.061l0.069,0.062l0.069,0.057l0.069,0.061l0.008,0.004
	l0.124,0.106l0.008,0.004l0.071,0.061l0.069,0.057l0.071,0.058l0.071,0.057l0.213,0.171l0.071,0.057l0.073,0.057l0.071,0.057
	l0.073,0.053l0.071,0.057l0.146,0.11l0.071,0.057l0.073,0.053l0.073,0.053c-2.076,3.27-4.56,6.271-7.38,8.932
	C75.068,130.694,71.311,126.381,75.007,122.924L75.007,122.924z M82.383,73.541c-2.126-3.631-4.811-6.913-7.943-9.734
	c-3.142-2.831,0.467-7.271,4.106-3.958c3.158,2.876,5.914,6.168,8.175,9.783l-0.073,0.055l-0.017,0.012l-0.264,0.195l-0.012,0.008
	l-0.073,0.055l-0.037,0.026l-0.037,0.028l-0.073,0.057l-0.071,0.055l-0.073,0.057l-0.071,0.055l-0.073,0.057l-0.069,0.057
	l-0.073,0.057l-0.069,0.057l-0.071,0.057l-0.071,0.057l-0.071,0.059l-0.069,0.057l-0.071,0.059l-0.069,0.059l-0.071,0.059
	l-0.069,0.059l-0.069,0.059l-0.071,0.061l-0.069,0.059l-0.067,0.059l-0.205,0.183l-0.069,0.061l-0.069,0.061l-0.067,0.061
	l-0.067,0.061l-0.069,0.061l-0.132,0.126l-0.067,0.061l-0.067,0.063l-0.067,0.063l-0.065,0.063l-0.067,0.063l-0.132,0.128
	l-0.065,0.063l-0.065,0.065l-0.065,0.065l-0.065,0.065l-0.065,0.065l-0.065,0.065l-0.055,0.057l-0.008,0.008l-0.065,0.067
	l-0.063,0.065l-0.065,0.067l-0.063,0.065l-0.063,0.067l-0.004,0.002l-0.248,0.266l-0.061,0.067l-0.063,0.067l-0.063,0.069
	L82.383,73.541L82.383,73.541z M66.547,114.711L66.547,114.711c4.338-3.988,7.447-9.23,8.712-15.134l0.004,0.028l0.047,0.24
	l0.008,0.041l0.031,0.15l0.061,0.307l0.021,0.087l0.014,0.063l0.102,0.453l0.037,0.152l0.008,0.037l0.028,0.112l0.037,0.15
	l0.039,0.15l0.039,0.15l0.039,0.148l0.041,0.148l0.124,0.445l0.022,0.083l0.02,0.065l0.045,0.146l0.042,0.146l0.045,0.146
	l0.046,0.146l0.037,0.12l0.008,0.026l0.048,0.144l0.049,0.146l0.049,0.144v0.004l0.098,0.284l0.051,0.144l0.051,0.142l0.053,0.143
	l0.105,0.286l0.053,0.14l0.055,0.142l0.112,0.282l0.057,0.14l0.057,0.138l0.236,0.557l0.061,0.138l0.122,0.274l0.063,0.138
	l0.063,0.136l0.065,0.136l0.195,0.406l0.067,0.134l0.271,0.532l0.069,0.132l0.213,0.394l0.071,0.132l0,0
	c-1.881,3.826-4.456,7.271-7.567,10.171C66.807,122.762,62.798,118.16,66.547,114.711L66.547,114.711z M75.298,87.865
	c-1.31-6.328-4.738-11.915-9.535-16.021c-2.973-2.544,0.94-7.262,4.497-4.117c3.487,3.085,6.351,6.83,8.379,11.03l-0.217,0.392
	l-0.067,0.126L78.35,79.28l-0.004,0.008l-0.274,0.522l-0.042,0.081l-0.024,0.051l-0.199,0.404l-0.067,0.134l-0.018,0.037l-0.047,0.1
	l-0.189,0.408l-0.059,0.128l-0.004,0.01l-0.233,0.534l-0.067,0.156l-0.059,0.14l-0.114,0.28l-0.057,0.142l-0.014,0.03l-0.043,0.11
	l-0.053,0.14l-0.109,0.284l-0.047,0.126l-0.006,0.017l-0.053,0.144l-0.15,0.431l-0.029,0.077l-0.022,0.067l-0.181,0.55l-0.01,0.03
	l-0.01,0.029l-0.037,0.118l-0.159,0.528l-0.012,0.037l-0.004,0.022l-0.042,0.148l-0.124,0.447l-0.021,0.073l-0.02,0.073l-0.039,0.15
	l-0.075,0.3l-0.037,0.15l-0.006,0.024l-0.031,0.126l-0.104,0.453l-0.026,0.124l-0.006,0.028l-0.096,0.459L75.298,87.865
	L75.298,87.865z M61.857,75.592L61.857,75.592c5.235,4.346,8.558,10.813,8.558,18.032c0,6.645-2.813,12.654-7.344,16.958
	c-4.281,4.064-8.544,0.173-4.21-3.834c3.57-3.296,5.8-7.957,5.8-13.124c0-5.54-2.563-10.5-6.594-13.816
	C54.69,77.03,58.378,72.708,61.857,75.592L61.857,75.592z M38.459,93.625L38.459,93.625c0-5.095,4.25-9.23,9.488-9.23
	s9.488,4.135,9.488,9.23c0,5.098-4.25,9.23-9.488,9.23S38.459,98.722,38.459,93.625L38.459,93.625z M161.219,177.511
	c-0.021-2.953-0.573-5.691-1.657-8.237c-1.081-2.547-2.612-4.797-4.541-6.711c-1.909-1.929-4.159-3.456-6.71-4.541
	c-2.547-1.08-5.285-1.633-8.233-1.657l-20.171,0.045c-11.986-4.955-5.455-19.862,5.418-25.183
	c-17.057-1.454-17.502,15.158-34.466,22.969l-0.524,4.232c-0.274,2.227-0.544,3.961-1.131,5.154
	c-0.583,1.183-1.562,1.783-2.902,1.783c-1.379,0-2.33-0.576-2.864-1.734c-0.532-1.153-0.912-2.912-1.144-5.28l-0.191-1.986h-7.821
	c-2.951,0.024-5.688,0.577-8.235,1.657c-2.549,1.085-4.799,2.612-6.73,4.541c-1.932,1.914-3.44,4.164-4.521,6.711
	c-1.083,2.546-1.637,5.284-1.657,8.237c0.021,2.948,0.575,5.69,1.657,8.232c1.081,2.547,2.589,4.797,4.521,6.73
	c1.931,1.909,4.184,3.437,6.73,4.521c2.547,1.08,5.285,1.633,8.235,1.657h65.795c2.948-0.024,5.687-0.573,8.233-1.657
	c2.551-1.085,4.801-2.612,6.71-4.521c1.929-1.934,3.46-4.18,4.541-6.73C160.646,183.197,161.198,180.459,161.219,177.511
	L161.219,177.511z M86.522,183.437c-1.55,0-2.902-0.508-4.06-1.507c-1.16-1.004-1.732-2.409-1.732-4.204
	c0-1.588,0.548-2.929,1.653-4.033c1.107-1.109,2.459-1.653,4.074-1.653c1.6,0,2.967,0.544,4.098,1.653
	c1.131,1.104,1.69,2.445,1.69,4.033c0,1.771-0.571,3.177-1.716,4.188C89.384,182.929,88.058,183.437,86.522,183.437L86.522,183.437z
	 M124.285,177.511c0,0.995-0.256,1.889-0.724,2.672c-0.467,0.784-1.104,1.401-1.909,1.869c-0.808,0.446-1.722,0.678-2.717,0.678
	c-0.979,0-1.849-0.231-2.652-0.678c-0.809-0.468-1.467-1.085-1.954-1.869c-0.487-0.783-0.723-1.677-0.743-2.672
	c0.021-0.955,0.256-1.849,0.743-2.637c0.487-0.784,1.146-1.397,1.954-1.868c0.804-0.463,1.674-0.698,2.652-0.719
	c0.995,0.021,1.909,0.256,2.717,0.719c0.805,0.471,1.442,1.084,1.909,1.868C124.029,175.662,124.285,176.556,124.285,177.511
	L124.285,177.511z M108.237,177.511c-0.022,0.995-0.256,1.889-0.723,2.672c-0.467,0.784-1.083,1.401-1.868,1.869
	c-0.784,0.446-1.676,0.678-2.632,0.678c-1.527-0.021-2.758-0.532-3.735-1.486c-0.955-0.975-1.464-2.206-1.486-3.732
	c0-0.955,0.233-1.849,0.68-2.637c0.467-0.784,1.083-1.397,1.866-1.868c0.786-0.463,1.678-0.698,2.675-0.719
	c0.957,0.021,1.848,0.256,2.632,0.719c0.786,0.471,1.401,1.084,1.868,1.868C107.981,175.662,108.214,176.556,108.237,177.511
	L108.237,177.511z"/>
<path id="_x32_" fill-rule="evenodd" clip-rule="evenodd" fill="#999557" d="M16.282,5.102h183.275
	c6.149,0,11.178,5.031,11.178,11.18v183.275c0,6.149-5.028,11.178-11.178,11.178H16.282c-6.149,0-11.18-5.028-11.18-11.178V16.282
	C5.102,10.133,10.133,5.102,16.282,5.102L16.282,5.102z M16.282,0.112h183.275c8.896,0,16.17,7.277,16.17,16.17v183.275
	c0,8.892-7.274,16.17-16.17,16.17H16.282c-8.894,0-16.17-7.278-16.17-16.17V16.282C0.112,7.389,7.389,0.112,16.282,0.112
	L16.282,0.112z M36.429,68.502c-3.39,6.873-5.465,15.802-5.524,25.579c-0.063,9.234,1.686,17.742,4.659,24.489
	c0.888,1.479,1.688,3.643,2.977,3.521c1.294-0.118,2.587-0.236,3.883-0.361c1.292-0.118,2.587-0.24,3.881-0.357
	c5.12-0.479,4.283,0.69,6.184,5.674c0.768,2.011,1.536,4.021,2.299,6.031c0.768,2.015,1.536,4.025,2.303,6.036
	c2.567,6.73,2.494,5.873-2.898,10.402c-1.734,1.45-3.467,2.904-5.201,4.362c-1.734,1.454-3.469,2.912-5.203,4.362
	c-2.575,2.312-4.017,1.234-5.175,0.15c-13.52-10.521-22.925-35.431-22.74-64.416c0.197-30.297,10.811-55.996,25.437-65.405
	l0.02,0.044c1.117-0.944,2.531-1.643,4.862,0.5c1.716,1.48,3.43,2.957,5.143,4.436c1.716,1.48,3.432,2.959,5.146,4.438
	c5.335,4.604,5.418,3.751,2.766,10.439c-0.794,2.002-1.586,4.003-2.376,6.003c-0.792,2.002-1.588,4.002-2.382,6.003
	c-1.962,4.956-2.175,5.971-7.289,5.423c-1.292-0.136-2.583-0.278-3.879-0.415c-1.292-0.138-2.581-0.28-3.875-0.42
	C38.159,64.885,37.326,67.032,36.429,68.502L36.429,68.502z M119.402,69.136c0-2.776,0.813-5.599,2.425-8.469
	c1.612-2.854,3.969-5.226,7.056-7.102c3.104-1.877,6.706-2.809,10.837-2.809c3.834,0,7.222,0.782,10.158,2.358
	c2.94,1.562,5.203,3.694,6.815,6.397c1.601,2.703,2.396,5.632,2.396,8.8c0,2.492-0.459,4.669-1.368,6.545
	c-0.918,1.879-2.003,3.5-3.25,4.866c-1.259,1.365-3.521,3.647-6.774,6.876c-0.906,0.918-1.625,1.714-2.165,2.402
	c-0.545,0.691-0.951,1.322-1.207,1.893c-0.271,0.569-0.475,1.141-0.621,1.712c-0.15,0.571-0.37,1.576-0.649,3.018
	c-0.504,3.048-2.076,4.565-4.729,4.565c-1.369,0-2.534-0.496-3.469-1.489c-0.95-1.005-1.409-2.476-1.409-4.446
	c0-2.461,0.337-4.592,1.031-6.395c0.69-1.801,1.597-3.394,2.733-4.758c1.138-1.353,2.669-2.973,4.606-4.852
	c1.694-1.651,2.912-2.882,3.672-3.723c0.76-0.827,1.394-1.759,1.909-2.793c0.516-1.023,0.771-2.134,0.771-3.334
	c0-2.358-0.784-4.324-2.355-5.946c-1.584-1.606-3.603-2.417-6.097-2.417c-2.912,0-5.053,0.811-6.435,2.447
	c-1.368,1.621-2.534,4.023-3.48,7.193c-0.91,3.302-2.616,4.97-5.122,4.97c-1.49,0-2.733-0.587-3.749-1.743
	C119.918,71.735,119.402,70.489,119.402,69.136L119.402,69.136z M138.757,115.674c-1.608,0-3.018-0.532-4.225-1.572
	c-1.206-1.043-1.803-2.506-1.803-4.376c0-1.68,0.585-3.075,1.75-4.212c1.162-1.137,2.588-1.708,4.277-1.708
	c1.665,0,3.075,0.571,4.212,1.708c1.142,1.137,1.71,2.533,1.71,4.212c0,1.842-0.597,3.304-1.791,4.36
	C141.697,115.142,140.329,115.674,138.757,115.674L138.757,115.674z"/>
<path id="_x31_" fill="#7E5628" d="M82.103,156.364l-1.034-10.751c-0.339-3.542-0.339-6.104-0.339-7.652
	c0-3.713,2.082-6.714,6.025-6.714c5.061,0,5.49,4.813,5.49,8.81c0,1.678-0.059,3.375-0.272,5.102l-1.115,9.037
	c-1.81,0.833-3.808,1.568-6.036,2.169H82.103L82.103,156.364z M132.924,17.95h12.027c21.345,0,38.794,18.763,38.794,41.708v9.992
	c10.451,0.958,18.68,11.212,18.68,23.717c0,13.138-9.082,23.79-20.28,23.79h-0.109c-4.127,14.366-15.317,25.479-29.164,28.6
	c-2.534,3.123-6.787,5.17-11.608,5.17c-7.77,0-14.074-5.329-14.074-11.896c0-6.572,6.305-11.901,14.074-11.901
	c6.642,0,12.202,3.892,13.685,9.114c6.572-2.449,12.148-7.266,15.816-13.488c-3.64-1.787-5.134-2.328-5.134-8.847V74.54
	c0-7.313,4.334-8.674,7.489-8.674h2.36v-6.608c0-2.086-0.09-4.147-0.536-6.107c-0.382-1.689-0.342-2.319-1.958-0.944
	c-1.848,1.564-2.876,2.179-5.577-2.539c-0.194-0.339-0.292-0.733-0.45-1.095c-3.899-8.877-12.312-15.057-22.007-15.057h-12.027
	c-9.76,0-18.225,6.269-22.084,15.242c-0.125,0.291-0.233,0.587-0.361,0.877c-2.085,4.681-3.361,3.336-5.804,2.065
	c-2.701-1.408-2.278,5.183-2.278,7.557v7.236h2.388c3.156,0,7.488,2.778,7.488,6.169v43.75c0,3.388-4.336,6.17-7.488,6.17h-3.064
	c-2.587-0.337-5.053-2.587-5.841-5.313l-0.189-0.675c-9.09-2.355-15.89-11.86-15.89-23.229c0-10.709,6.036-19.769,14.332-22.75
	V59.658C94.132,36.713,111.584,17.95,132.924,17.95L132.924,17.95z M174.509,113.497c0.634-2.612,0.971-5.354,0.971-8.173V73.34
	h-2.36c-0.613,0-1.116,0.542-1.116,1.2v39.367c0,0.666,0.503,1.202,1.116,1.202C174.379,115.109,174.196,114.816,174.509,113.497
	L174.509,113.497z M102.396,73.34v31.984c0,2.756,0.323,5.492,0.962,8.145c0.325,1.356,0.544,1.665,1.426,1.641
	c0.615-0.017,1.117-0.536,1.117-1.202V74.54c0-0.658-0.502-1.2-1.117-1.2H102.396L102.396,73.34z"/>
</svg>
