<?xml version="1.0" encoding="utf-8"?>
<!DOCTYPE svg PUBLIC "-//W3C//DTD SVG 1.1//EN" "http://www.w3.org/Graphics/SVG/1.1/DTD/svg11.dtd">
<svg version="1.1" xmlns="http://www.w3.org/2000/svg" xmlns:xlink="http://www.w3.org/1999/xlink" x="0px" y="0px" width="216px" height="216px" viewBox="0 0 216 216" enable-background="new 0 0 216 216" xml:space="preserve">

<path fill-rule="evenodd" clip-rule="evenodd" d="M16.282,5.102h183.275
	c6.149,0,11.178,5.031,11.178,11.18v183.275c0,6.149-5.028,11.178-11.178,11.178H16.282c-6.149,0-11.18-5.028-11.18-11.178V16.282
	C5.102,10.133,10.133,5.102,16.282,5.102L16.282,5.102z M16.282,0.112h183.275c8.896,0,16.17,7.277,16.17,16.17v183.275
	c0,8.892-7.274,16.17-16.17,16.17H16.282c-8.894,0-16.17-7.278-16.17-16.17V16.282C0.112,7.389,7.389,0.112,16.282,0.112
	L16.282,0.112z M36.429,68.502c-3.39,6.873-5.465,15.802-5.524,25.579c-0.063,9.234,1.686,17.742,4.659,24.489
	c0.888,1.479,1.688,3.643,2.977,3.521c1.294-0.118,2.587-0.236,3.883-0.361c1.292-0.118,2.587-0.24,3.881-0.357
	c5.12-0.479,4.283,0.69,6.184,5.674c0.768,2.011,1.536,4.021,2.299,6.031c0.768,2.015,1.536,4.025,2.303,6.036
	c2.567,6.73,2.494,5.873-2.898,10.402c-1.734,1.45-3.467,2.904-5.201,4.362c-1.734,1.454-3.469,2.912-5.203,4.362
	c-2.575,2.312-4.017,1.234-5.175,0.15c-13.52-10.521-22.925-35.431-22.74-64.416c0.197-30.297,10.811-55.996,25.437-65.405
	l0.02,0.044c1.117-0.944,2.531-1.643,4.862,0.5c1.716,1.48,3.43,2.957,5.143,4.436c1.716,1.48,3.432,2.959,5.146,4.438
	c5.335,4.604,5.418,3.751,2.766,10.439c-0.794,2.002-1.586,4.003-2.376,6.003c-0.792,2.002-1.588,4.002-2.382,6.003
	c-1.962,4.956-2.175,5.971-7.289,5.423c-1.292-0.136-2.583-0.278-3.879-0.415c-1.292-0.138-2.581-0.28-3.875-0.42
	C38.159,64.885,37.326,67.032,36.429,68.502L36.429,68.502z M119.402,69.136c0-2.776,0.813-5.599,2.425-8.469
	c1.612-2.854,3.969-5.226,7.056-7.102c3.104-1.877,6.706-2.809,10.837-2.809c3.834,0,7.222,0.782,10.158,2.358
	c2.94,1.562,5.203,3.694,6.815,6.397c1.601,2.703,2.396,5.632,2.396,8.8c0,2.492-0.459,4.669-1.368,6.545
	c-0.918,1.879-2.003,3.5-3.25,4.866c-1.259,1.365-3.521,3.647-6.774,6.876c-0.906,0.918-1.625,1.714-2.165,2.402
	c-0.545,0.691-0.951,1.322-1.207,1.893c-0.271,0.569-0.475,1.141-0.621,1.712c-0.15,0.571-0.37,1.576-0.649,3.018
	c-0.504,3.048-2.076,4.565-4.729,4.565c-1.369,0-2.534-0.496-3.469-1.489c-0.95-1.005-1.409-2.476-1.409-4.446
	c0-2.461,0.337-4.592,1.031-6.395c0.69-1.801,1.597-3.394,2.733-4.758c1.138-1.353,2.669-2.973,4.606-4.852
	c1.694-1.651,2.912-2.882,3.672-3.723c0.76-0.827,1.394-1.759,1.909-2.793c0.516-1.023,0.771-2.134,0.771-3.334
	c0-2.358-0.784-4.324-2.355-5.946c-1.584-1.606-3.603-2.417-6.097-2.417c-2.912,0-5.053,0.811-6.435,2.447
	c-1.368,1.621-2.534,4.023-3.48,7.193c-0.91,3.302-2.616,4.97-5.122,4.97c-1.49,0-2.733-0.587-3.749-1.743
	C119.918,71.735,119.402,70.489,119.402,69.136L119.402,69.136z M138.757,115.674c-1.608,0-3.018-0.532-4.225-1.572
	c-1.206-1.043-1.803-2.506-1.803-4.376c0-1.68,0.585-3.075,1.75-4.212c1.162-1.137,2.588-1.708,4.277-1.708
	c1.665,0,3.075,0.571,4.212,1.708c1.142,1.137,1.71,2.533,1.71,4.212c0,1.842-0.597,3.304-1.791,4.36
	C141.697,115.142,140.329,115.674,138.757,115.674L138.757,115.674z"/>

</svg>
