<?xml version="1.0" encoding="utf-8"?>
<!DOCTYPE svg PUBLIC "-//W3C//DTD SVG 1.1//EN" "http://www.w3.org/Graphics/SVG/1.1/DTD/svg11.dtd">
<svg version="1.1" xmlns="http://www.w3.org/2000/svg" xmlns:xlink="http://www.w3.org/1999/xlink" x="0px" y="0px" width="216px" height="216px" viewBox="0 0 216 216" enable-background="new 0 0 216 216" xml:space="preserve">
<path fill-rule="evenodd" clip-rule="evenodd" d="M88.56,85.83h109.259c7.78,0,14.145,6.083,14.145,13.519v63.398
	c0,7.436-6.364,13.52-14.145,13.52H88.56c-7.78,0-14.145-6.084-14.145-13.52V99.349C74.415,91.913,80.78,85.83,88.56,85.83
	L88.56,85.83z M183.488,133.22c2.619,0,4.742,2.185,4.742,4.878s-2.123,4.878-4.742,4.878c-2.617,0-4.74-2.185-4.74-4.878
	S180.871,133.22,183.488,133.22L183.488,133.22z M183.488,124.367c7.369,0,13.347,6.148,13.347,13.73s-5.978,13.731-13.347,13.731
	s-13.346-6.149-13.346-13.731S176.119,124.367,183.488,124.367L183.488,124.367z M150.431,112.066c2.618,0,4.74,2.185,4.74,4.878
	c0,2.694-2.122,4.878-4.74,4.878s-4.741-2.184-4.741-4.878C145.689,114.251,147.813,112.066,150.431,112.066L150.431,112.066z
	 M150.431,103.213c7.369,0,13.346,6.149,13.346,13.731s-5.977,13.73-13.346,13.73s-13.346-6.148-13.346-13.73
	S143.062,103.213,150.431,103.213L150.431,103.213z M181.582,104.117h6.546c0.773,0,0.9,0.65,0.282,1.446l-33.472,43.088
	c-0.619,0.796-1.755,1.445-2.528,1.445h-6.547c-0.772,0-0.899-0.649-0.281-1.445l33.472-43.088
	C179.671,104.767,180.809,104.117,181.582,104.117L181.582,104.117z M91.067,116.532h26.965v19.695H91.067V116.532L91.067,116.532z
	 M50.584,64.903c-0.198-0.673-0.431-1.337-0.688-1.991c-0.786-2.001-1.799-3.939-2.842-5.827
	c-5.193-9.393-10.417-17.266-10.417-28.339c0-13.923,8.107-24.53,23.5-24.53h2.598c5.437,0,9.473,2.413,13.422,5.548
	c0.597-0.504,1.199-1.005,1.811-1.442c3.951-2.827,8.348-4.521,13.342-4.521h3.031c8.639,0,18.503,5.6,23.081,13.26
	c1.209-0.033,2.46-0.018,3.763-0.018h1.731c10.128,0,20.903,6.509,20.903,17.081v5.379c0,3.343-0.776,6.584-2.284,9.598
	c-2.558,5.107-6.756,8.784-11.464,12.055c-0.745,0.517-1.998,1.301-3.278,2.138c7.353,3.165,13.821,7.556,19.273,13.328h-19.015
	c-9.239-5.388-21.244-8.153-36.607-8.153c-32.566,0-49.809,12.261-57.961,35.639c-2.22,6.366-2.873,11.416-4.044,18.892
	c-0.785,5.004-0.941,16.453-2.149,20.706c-3.208,11.295-12.045,16.759-12.045,34.004c0,21.201,49.551,23.174,74.468,23.174h12.556
	c15.678,0,26.504-2.527,39.654-4.724c8.16-1.363,18.547-4.451,23.231-10.689h13.605c-4.388,13.499-20.755,19.883-34.729,22.217
	c-14.422,2.409-26.844,4.897-41.761,4.897H88.712C63.659,212.586,2,211.632,2,177.711c0-13.039,3.512-19.791,9.646-30.759
	c1.133-2.025,2.193-4.08,2.826-6.306c0.594-2.233,0.715-6.083,0.88-8.44c0.253-3.604,0.418-7.374,0.977-10.939
	c1.138-7.258,2.095-13.85,4.539-20.857C26.873,83.188,37.055,71.738,50.584,64.903L50.584,64.903z M77.457,22.54h-2.599
	c-3.812,0-8.011-6.621-12.123-6.621h-2.598c-8.053,0-11.257,4.905-11.257,12.828c0,12.462,10.861,22.062,13.855,34.345
	c16.479-4.093,30.878-4.093,48.963-1.655l-0.039,0.413c1.828-7.499,19.916-11.095,19.916-22.345v-5.379
	c0-3.323-4.962-5.379-8.659-5.379h-1.731c-6.538,0-6.183-0.395-7.256,3.824c-0.638,2.503-2.27,6.024-3.561,7.769
	c-2.309,3.119-8.317,8.979-12.563,9.924c4.846-6.916,9.958-12.729,9.958-24.414c0-4.826-8.202-10.345-13.421-10.345h-3.031
	C84.899,15.505,81.783,22.54,77.457,22.54L77.457,22.54z"/>
</svg>
