<?xml version="1.0" encoding="utf-8"?>
<!DOCTYPE svg PUBLIC "-//W3C//DTD SVG 1.1//EN" "http://www.w3.org/Graphics/SVG/1.1/DTD/svg11.dtd">
<svg version="1.1" id="Layer_1" xmlns="http://www.w3.org/2000/svg" xmlns:xlink="http://www.w3.org/1999/xlink" x="0px" y="0px"
	 width="216px" height="216px" viewBox="0 0 216 216" enable-background="new 0 0 216 216" xml:space="preserve">
<g>
	<path fill-rule="evenodd" clip-rule="evenodd" d="M90.938,83.912c-0.109-0.391-0.239-0.776-0.381-1.155
		c-0.436-1.161-0.997-2.285-1.576-3.38c-2.879-5.449-5.776-10.017-5.776-16.441c0-8.078,4.495-14.231,13.03-14.231h1.441
		c3.014,0,5.252,1.4,7.442,3.219c0.331-0.293,0.665-0.583,1.003-0.837c2.19-1.64,4.629-2.622,7.397-2.622h1.681
		c4.791,0,10.26,3.249,12.798,7.693c0.671-0.02,1.363-0.011,2.086-0.011h0.96c5.616,0,11.591,3.776,11.591,9.91v3.121
		c0,1.939-0.431,3.82-1.268,5.568c-1.417,2.963-3.745,5.096-6.355,6.994c-0.413,0.3-1.108,0.755-1.817,1.24
		c8.49,3.825,14.858,10.732,18.431,21.549c1.328,4.024,1.867,7.704,2.579,11.848c0.354,2.058,0.464,4.135,0.554,6.217
		c0.075,1.749,0.104,3.766,0.473,5.483c0.291,0.922,1.042,2.254,1.492,3.109c0.793,1.507,1.657,3.024,2.356,4.574
		c2.02,4.471,3,8.923,3,13.838c0,10.796-10.844,15.571-19.883,17.151c-7.996,1.397-14.884,2.841-23.155,2.841h-6.961
		c-13.892,0-48.08-0.553-48.08-20.232c0-7.564,1.948-11.481,5.348-17.845c0.628-1.175,1.216-2.367,1.567-3.658
		c0.33-1.296,0.396-3.529,0.488-4.896c0.141-2.091,0.232-4.278,0.542-6.347c0.631-4.211,1.162-8.036,2.516-12.1
		C77.791,94.521,83.437,87.877,90.938,83.912L90.938,83.912z M70.789,149.357c0,12.3,27.475,13.443,41.291,13.443h6.961
		c8.693,0,14.695-1.465,21.986-2.739c6.034-1.055,14.263-3.889,14.263-10.464c0-4.483-0.997-7.941-2.398-11.044
		c-1.012-2.241-3.81-6.841-4.272-8.931c-0.823-3.713-0.439-8.219-1.106-12.098c-0.766-4.459-1.063-7.019-2.334-10.869
		c-4.468-13.53-14.156-20.675-32.139-20.675c-18.058,0-27.618,7.113-32.138,20.676c-1.23,3.694-1.593,6.623-2.243,10.96
		c-0.435,2.903-0.521,9.545-1.191,12.013C75.689,136.183,70.789,139.353,70.789,149.357L70.789,149.357z M105.838,59.335h-1.441
		c-2.113,0-4.442-3.841-6.721-3.841h-1.441c-4.465,0-6.241,2.846-6.241,7.442c0,7.23,6.021,12.799,7.682,19.925
		c1.163,0,2.276-0.487,3.215-0.865c1.023-0.412,2.489-0.361,3.557-0.524c2.229-0.339,5.264-0.531,7.631-0.531l0.255-0.172
		l12.489,1.133l-0.021,0.24c1.014-4.351,11.043-6.437,11.043-12.963v-3.121c0-1.928-2.752-3.121-4.802-3.121h-0.96
		c-3.625,0-3.428-0.229-4.022,2.218c-0.354,1.452-1.259,3.495-1.975,4.507c-1.279,1.809-4.611,5.209-6.966,5.758
		c2.687-4.013,5.521-7.385,5.521-14.164c0-2.8-4.548-6.001-7.442-6.001h-1.681C109.965,55.254,108.237,59.335,105.838,59.335
		L105.838,59.335z"/>
	<path fill-rule="evenodd" clip-rule="evenodd" d="M112.714,139.019c-11.965,0-21.669-9.703-21.669-21.668
		c0-11.965,9.704-21.668,21.669-21.668c11.965,0,21.668,9.703,21.668,21.668C134.382,129.315,124.679,139.019,112.714,139.019
		L112.714,139.019z M102.625,123.059c0,1.604,0.298,3.015,0.895,4.231c0.596,1.21,1.411,2.226,2.435,3.031
		c1.023,0.814,2.217,1.419,3.587,1.83s2.838,0.612,4.394,0.612c1.056,0,2.039-0.08,2.942-0.258c0.902-0.169,1.7-0.379,2.394-0.621
		c0.693-0.25,1.273-0.499,1.741-0.773c0.46-0.266,0.798-0.5,1-0.709c0.209-0.202,0.354-0.5,0.436-0.879
		c0.089-0.387,0.129-0.943,0.129-1.669c0-0.491-0.017-0.895-0.04-1.225c-0.033-0.331-0.089-0.605-0.154-0.807
		c-0.072-0.201-0.169-0.347-0.29-0.436c-0.112-0.088-0.249-0.129-0.411-0.129c-0.218,0-0.531,0.129-0.935,0.388
		c-0.396,0.258-0.911,0.548-1.548,0.862c-0.629,0.314-1.378,0.604-2.249,0.862c-0.879,0.258-1.887,0.387-3.039,0.387
		c-0.758,0-1.435-0.089-2.031-0.266c-0.597-0.186-1.104-0.443-1.523-0.774c-0.411-0.33-0.733-0.733-0.951-1.225
		c-0.227-0.492-0.33-1.032-0.33-1.629c0-0.693,0.185-1.289,0.563-1.781c0.379-0.5,0.871-0.943,1.476-1.322
		c0.398-0.255,0.835-0.499,1.306-0.733h10.536c0.154,0,0.28-0.17,0.28-0.377v-1.506c0-0.207-0.126-0.378-0.28-0.378h-21.897
		c-0.154,0-0.281,0.17-0.281,0.378v1.506c0,0.207,0.126,0.377,0.281,0.377h2.063C102.788,120.9,102.625,121.908,102.625,123.059
		L102.625,123.059z M101.058,113.534h10.249l0.29-0.125c0.79-0.33,1.491-0.693,2.112-1.08c0.62-0.387,1.12-0.83,1.491-1.322
		c0.37-0.499,0.556-1.088,0.556-1.765c0-0.452-0.088-0.887-0.25-1.298c-0.169-0.411-0.419-0.758-0.757-1.048
		c-0.339-0.29-0.759-0.524-1.267-0.685c-0.499-0.169-1.088-0.25-1.765-0.25c-0.87,0-1.661,0.104-2.386,0.322
		c-0.726,0.21-1.363,0.443-1.911,0.709c-0.556,0.258-1.016,0.5-1.395,0.718c-0.379,0.217-0.653,0.33-0.83,0.33
		c-0.169,0-0.306-0.048-0.411-0.145c-0.105-0.089-0.186-0.242-0.234-0.443c-0.057-0.209-0.097-0.468-0.121-0.782
		c-0.024-0.314-0.033-0.702-0.033-1.153c0-0.411,0.008-0.758,0.016-1.032c0.017-0.274,0.048-0.5,0.089-0.685
		c0.041-0.178,0.081-0.323,0.137-0.436c0.056-0.113,0.161-0.242,0.322-0.403c0.153-0.153,0.476-0.355,0.967-0.589
		s1.048-0.451,1.677-0.637c0.629-0.193,1.306-0.338,2.031-0.451s1.451-0.162,2.169-0.162c1.402,0,2.732,0.178,3.981,0.54
		c1.25,0.363,2.338,0.911,3.257,1.645c0.927,0.725,1.661,1.652,2.2,2.756c0.541,1.113,0.814,2.402,0.814,3.861
		c0,1.282-0.185,2.37-0.564,3.289c-0.044,0.107-0.091,0.214-0.139,0.318h1.599c0.154,0,0.28,0.171,0.28,0.378v1.506
		c0,0.207-0.126,0.377-0.28,0.377h-21.897c-0.154,0-0.281-0.17-0.281-0.377v-1.506C100.777,113.704,100.904,113.534,101.058,113.534
		L101.058,113.534z"/>
</g>

</svg>
