<?xml version="1.0" encoding="utf-8"?>
<!DOCTYPE svg PUBLIC "-//W3C//DTD SVG 1.1//EN" "http://www.w3.org/Graphics/SVG/1.1/DTD/svg11.dtd">
<svg version="1.1" id="Layer_1" xmlns="http://www.w3.org/2000/svg" xmlns:xlink="http://www.w3.org/1999/xlink" x="0px" y="0px"
	 width="216px" height="216px" viewBox="0 0 216 216" enable-background="new 0 0 216 216" xml:space="preserve">
<path fill-rule="evenodd" clip-rule="evenodd" d="M60.739,117.789h94.134c4.09,0,7.434,3.346,7.434,7.434v34.865
	c0,4.088-3.344,7.434-7.434,7.434H60.739c-4.089,0-7.435-3.346-7.435-7.434v-17.111v-10.285v-7.469
	C53.305,121.133,56.65,117.789,60.739,117.789L60.739,117.789z M97.214,148.363c0,1.604,0.298,3.014,0.895,4.232
	c0.596,1.209,1.411,2.225,2.435,3.029c1.023,0.814,2.217,1.42,3.587,1.83c1.37,0.412,2.837,0.613,4.394,0.613
	c1.056,0,2.04-0.08,2.942-0.258c0.902-0.17,1.701-0.379,2.395-0.621c0.693-0.25,1.273-0.5,1.74-0.773c0.459-0.266,0.799-0.5,1-0.709
	c0.209-0.203,0.354-0.5,0.436-0.879c0.088-0.387,0.129-0.943,0.129-1.67c0-0.49-0.016-0.895-0.041-1.225
	c-0.031-0.33-0.088-0.604-0.152-0.807c-0.072-0.201-0.17-0.346-0.291-0.436c-0.113-0.088-0.25-0.127-0.41-0.127
	c-0.219,0-0.533,0.127-0.936,0.387c-0.395,0.258-0.91,0.547-1.549,0.861c-0.627,0.314-1.377,0.605-2.248,0.863
	c-0.879,0.258-1.887,0.387-3.039,0.387c-0.758,0-1.435-0.09-2.031-0.266c-0.597-0.186-1.104-0.443-1.524-0.773
	c-0.411-0.332-0.733-0.734-0.951-1.227c-0.226-0.492-0.33-1.031-0.33-1.629c0-0.693,0.185-1.289,0.564-1.781
	c0.379-0.5,0.871-0.943,1.475-1.322c0.398-0.254,0.835-0.498,1.306-0.732h10.536c0.154,0,0.281-0.17,0.281-0.377v-1.506
	c0-0.207-0.127-0.379-0.281-0.379H95.648c-0.155,0-0.281,0.17-0.281,0.379v1.506c0,0.207,0.126,0.377,0.281,0.377h2.063
	C97.377,146.205,97.214,147.213,97.214,148.363L97.214,148.363z M95.648,138.838h10.248l0.291-0.125
	c0.79-0.33,1.491-0.693,2.112-1.08c0.621-0.387,1.12-0.83,1.491-1.322c0.371-0.498,0.557-1.088,0.557-1.764
	c0-0.451-0.088-0.887-0.25-1.299c-0.168-0.41-0.418-0.758-0.758-1.047c-0.338-0.291-0.757-0.525-1.265-0.686
	c-0.5-0.17-1.088-0.25-1.766-0.25c-0.871,0-1.66,0.104-2.386,0.322c-0.726,0.209-1.362,0.443-1.911,0.709
	c-0.556,0.258-1.016,0.5-1.395,0.717c-0.379,0.219-0.653,0.332-0.831,0.332c-0.169,0-0.306-0.049-0.411-0.146
	c-0.105-0.088-0.186-0.24-0.234-0.443c-0.057-0.209-0.097-0.467-0.121-0.781s-0.032-0.701-0.032-1.152
	c0-0.412,0.008-0.758,0.016-1.031c0.016-0.275,0.048-0.5,0.088-0.686c0.041-0.178,0.081-0.322,0.138-0.436
	c0.056-0.113,0.161-0.242,0.322-0.404c0.153-0.152,0.476-0.354,0.967-0.588s1.048-0.451,1.677-0.637
	c0.628-0.193,1.306-0.338,2.031-0.451s1.451-0.162,2.168-0.162c1.402,0,2.733,0.178,3.983,0.541c1.248,0.363,2.338,0.91,3.256,1.645
	c0.928,0.725,1.66,1.652,2.201,2.756c0.539,1.113,0.814,2.402,0.814,3.861c0,1.283-0.186,2.371-0.564,3.289
	c-0.045,0.109-0.092,0.215-0.141,0.318h1.6c0.154,0,0.281,0.172,0.281,0.379v1.506c0,0.207-0.127,0.377-0.281,0.377H95.648
	c-0.154,0-0.281-0.17-0.281-0.377v-1.506C95.367,139.008,95.493,138.838,95.648,138.838L95.648,138.838z M95.546,160.857
	c-5.963-3.861-9.911-10.572-9.911-18.203c0-6.994,3.316-13.213,8.46-17.176H72.583c-1.571,5.586-6.278,9.857-12.1,10.797v14.037
	c5.733,0.926,10.385,5.084,12.026,10.545H95.546L95.546,160.857z M120.512,125.479c5.145,3.963,8.461,10.182,8.461,17.176
	c0,7.631-3.947,14.342-9.912,18.203h24.846c1.564-5.205,5.861-9.225,11.223-10.393v-14.342c-5.447-1.188-9.797-5.318-11.295-10.645
	H120.512L120.512,125.479z M155.129,156.727c-2.025,0.77-3.705,2.248-4.734,4.131h4.734V156.727L155.129,156.727z M60.483,156.463
	c2.384,0.658,4.375,2.268,5.538,4.395h-5.538V156.463L60.483,156.463z M60.483,130.125c2.478-0.684,4.53-2.395,5.671-4.646h-5.671
	V130.125L60.483,130.125z M155.129,129.861c-2.115-0.805-3.852-2.381-4.867-4.383h4.867v3.607V129.861L155.129,129.861z
	 M138.338,135.43c4.307,0,7.799,3.492,7.799,7.799s-3.492,7.799-7.799,7.799s-7.799-3.492-7.799-7.799
	S134.031,135.43,138.338,135.43L138.338,135.43z M138.338,139.682c1.959,0,3.547,1.588,3.547,3.547s-1.588,3.547-3.547,3.547
	c-1.957,0-3.547-1.588-3.547-3.547S136.381,139.682,138.338,139.682L138.338,139.682z M75.802,135.43
	c4.307,0,7.799,3.492,7.799,7.799s-3.492,7.799-7.799,7.799c-4.306,0-7.798-3.492-7.798-7.799S71.496,135.43,75.802,135.43
	L75.802,135.43z M75.802,139.682c1.959,0,3.547,1.588,3.547,3.547s-1.588,3.547-3.547,3.547c-1.958,0-3.547-1.588-3.547-3.547
	S73.844,139.682,75.802,139.682L75.802,139.682z"/>
<path fill-rule="evenodd" clip-rule="evenodd" d="M55.302,85.463h104.345c1.244,0,2.264,1.308,2.264,2.906l0,0
	c0,1.599-1.02,2.906-2.264,2.906H55.302c-1.245,0-2.263-1.308-2.263-2.906l0,0C53.039,86.771,54.057,85.463,55.302,85.463
	L55.302,85.463z"/>
<path fill-rule="evenodd" clip-rule="evenodd" d="M55.302,96.136h104.345c1.244,0,2.264,1.308,2.264,2.906l0,0
	c0,1.599-1.02,2.906-2.264,2.906H55.302c-1.245,0-2.263-1.308-2.263-2.906l0,0C53.039,97.444,54.057,96.136,55.302,96.136
	L55.302,96.136z"/>
<path fill-rule="evenodd" clip-rule="evenodd" d="M55.302,106.81h104.345c1.244,0,2.264,1.308,2.264,2.907l0,0
	c0,1.598-1.02,2.906-2.264,2.906H55.302c-1.245,0-2.263-1.309-2.263-2.906l0,0C53.039,108.118,54.057,106.81,55.302,106.81
	L55.302,106.81z"/>
<path fill-rule="evenodd" clip-rule="evenodd" d="M84.996,50.246v10.973c-0.301,2.063-1.007,3.473-3.288,3.598
	c-3.277,0.18-6.577,0-9.866,0c-6.22,0.027-10.009-0.124-0.498,3.443l29.738,11.152c7.046,2.643,6.464,2.636,13.512-0.005
	c9.768-3.664,19.539-7.328,29.309-10.991c8.695-3.261,4.381-3.58,0.615-3.599c-3.467,0-6.936,0-10.402,0
	c-3.115-0.588-3.578-1.857-3.451-3.598c0-3.463,0-6.926,0-10.389c0-2.922-1.633-3.139-3.656-3.139H88.104
	C85.456,47.84,84.996,47.802,84.996,50.246L84.996,50.246z"/>
</svg>
