<?xml version="1.0" encoding="utf-8"?>
<!DOCTYPE svg PUBLIC "-//W3C//DTD SVG 1.1//EN" "http://www.w3.org/Graphics/SVG/1.1/DTD/svg11.dtd">
<svg version="1.1" id="Layer_1" xmlns="http://www.w3.org/2000/svg" xmlns:xlink="http://www.w3.org/1999/xlink" x="0px" y="0px"
	 width="216px" height="216px" viewBox="0 0 216 216" enable-background="new 0 0 216 216" xml:space="preserve">
<g>
	<path fill-rule="evenodd" clip-rule="evenodd" d="M72.505,57.614h68.155c1.295,0,2.355,1.06,2.355,2.356v44.285
		c0,1.295-1.061,2.355-2.355,2.355H72.505c-1.296,0-2.355-1.06-2.355-2.355V59.97C70.15,58.674,71.209,57.614,72.505,57.614
		L72.505,57.614z M119.836,61.854h5.855c0.691,0,0.805,0.565,0.252,1.256l-29.934,37.453c-0.553,0.691-1.569,1.256-2.261,1.256
		h-5.855c-0.691,0-0.805-0.565-0.252-1.256l29.935-37.453C118.129,62.42,119.146,61.854,119.836,61.854L119.836,61.854z
		 M91.978,61.069c6.59,0,11.935,5.345,11.935,11.935s-5.345,11.935-11.935,11.935s-11.935-5.345-11.935-11.935
		S85.388,61.069,91.978,61.069L91.978,61.069z M91.978,68.764c2.342,0,4.24,1.899,4.24,4.24s-1.898,4.24-4.24,4.24
		c-2.341,0-4.24-1.898-4.24-4.24S89.637,68.764,91.978,68.764L91.978,68.764z M121.543,79.456c6.59,0,11.934,5.345,11.934,11.935
		s-5.344,11.935-11.934,11.935c-6.592,0-11.936-5.345-11.936-11.935S114.951,79.456,121.543,79.456L121.543,79.456z M121.543,87.151
		c2.34,0,4.24,1.898,4.24,4.24c0,2.341-1.9,4.24-4.24,4.24c-2.342,0-4.24-1.898-4.24-4.24
		C117.303,89.049,119.201,87.151,121.543,87.151L121.543,87.151z M71.72,113.363h10.364c0.864,0,1.571,0.707,1.571,1.57v6.754
		c0,0.863-0.707,1.57-1.571,1.57H71.72c-0.864,0-1.57-0.707-1.57-1.57v-6.754C70.15,114.07,70.856,113.363,71.72,113.363
		L71.72,113.363z M71.72,129.066h10.364c0.864,0,1.571,0.707,1.571,1.57v6.754c0,0.863-0.707,1.57-1.571,1.57H71.72
		c-0.864,0-1.57-0.707-1.57-1.57v-6.754C70.15,129.773,70.856,129.066,71.72,129.066L71.72,129.066z M71.72,144.771h10.364
		c0.864,0,1.571,0.705,1.571,1.57v6.752c0,0.863-0.707,1.57-1.571,1.57H71.72c-0.864,0-1.57-0.707-1.57-1.57v-6.752
		C70.15,145.477,70.856,144.771,71.72,144.771L71.72,144.771z M91.664,113.363h10.365c0.864,0,1.57,0.707,1.57,1.57v6.754
		c0,0.863-0.707,1.57-1.57,1.57H91.664c-0.864,0-1.57-0.707-1.57-1.57v-6.754C90.094,114.07,90.8,113.363,91.664,113.363
		L91.664,113.363z M91.664,129.066h10.365c0.864,0,1.57,0.707,1.57,1.57v6.754c0,0.863-0.707,1.57-1.57,1.57H91.664
		c-0.864,0-1.57-0.707-1.57-1.57v-6.754C90.094,129.773,90.8,129.066,91.664,129.066L91.664,129.066z M91.664,144.771h10.365
		c0.864,0,1.57,0.705,1.57,1.57v6.752c0,0.863-0.707,1.57-1.57,1.57H91.664c-0.864,0-1.57-0.707-1.57-1.57v-6.752
		C90.094,145.477,90.8,144.771,91.664,144.771L91.664,144.771z M111.607,113.363h10.365c0.863,0,1.57,0.707,1.57,1.57v6.754
		c0,0.863-0.707,1.57-1.57,1.57h-10.365c-0.863,0-1.57-0.707-1.57-1.57v-6.754C110.037,114.07,110.744,113.363,111.607,113.363
		L111.607,113.363z M111.607,129.066h10.365c0.863,0,1.57,0.707,1.57,1.57v6.754c0,0.863-0.707,1.57-1.57,1.57h-10.365
		c-0.863,0-1.57-0.707-1.57-1.57v-6.754C110.037,129.773,110.744,129.066,111.607,129.066L111.607,129.066z M111.607,144.771h10.365
		c0.863,0,1.57,0.705,1.57,1.57v6.752c0,0.863-0.707,1.57-1.57,1.57h-10.365c-0.863,0-1.57-0.707-1.57-1.57v-6.752
		C110.037,145.477,110.744,144.771,111.607,144.771L111.607,144.771z M131.238,113.363h10.365c0.863,0,1.57,0.707,1.57,1.57v38.16
		c0,0.863-0.707,1.57-1.57,1.57h-10.365c-0.863,0-1.57-0.707-1.57-1.57v-38.16C129.668,114.07,130.375,113.363,131.238,113.363
		L131.238,113.363z M70.307,46.465h72.238c6.219,0,11.307,5.088,11.307,11.307v98.777c0,6.219-5.088,11.307-11.307,11.307H70.307
		c-6.219,0-11.307-5.088-11.307-11.307V57.771C59,51.553,64.088,46.465,70.307,46.465L70.307,46.465z M70.307,52.685h72.238
		c2.797,0,5.086,2.289,5.086,5.086v98.777c0,2.799-2.289,5.088-5.086,5.088H70.307c-2.798,0-5.086-2.289-5.086-5.088V57.771
		C65.22,54.974,67.509,52.685,70.307,52.685L70.307,52.685z"/>
</g>

</svg>
