<?xml version="1.0" encoding="utf-8"?>
<!DOCTYPE svg PUBLIC "-//W3C//DTD SVG 1.1//EN" "http://www.w3.org/Graphics/SVG/1.1/DTD/svg11.dtd">
<svg version="1.1" id="Layer_1" xmlns="http://www.w3.org/2000/svg" xmlns:xlink="http://www.w3.org/1999/xlink" x="0px" y="0px"
	 width="216px" height="216px" viewBox="0 0 216 216" enable-background="new 0 0 216 216" xml:space="preserve">
<path fill-rule="evenodd" clip-rule="evenodd" d="M60.739,85.383h94.134c4.09,0,7.434,3.346,7.434,7.434v34.864
	c0,4.09-3.344,7.436-7.434,7.436H60.739c-4.089,0-7.435-3.346-7.435-7.436v-17.109v-10.286v-7.469
	C53.305,88.729,56.65,85.383,60.739,85.383L60.739,85.383z M97.214,115.957c0,1.605,0.298,3.016,0.895,4.232
	c0.596,1.209,1.411,2.225,2.435,3.031c1.023,0.814,2.217,1.418,3.587,1.83c1.37,0.41,2.837,0.613,4.394,0.613
	c1.056,0,2.04-0.082,2.942-0.26c0.902-0.168,1.701-0.379,2.395-0.619c0.693-0.25,1.273-0.5,1.74-0.775
	c0.459-0.266,0.799-0.498,1-0.709c0.209-0.201,0.354-0.5,0.436-0.879c0.088-0.387,0.129-0.943,0.129-1.668
	c0-0.492-0.016-0.895-0.041-1.225c-0.031-0.332-0.088-0.605-0.152-0.807c-0.072-0.201-0.17-0.348-0.291-0.436
	c-0.113-0.088-0.25-0.129-0.41-0.129c-0.219,0-0.533,0.129-0.936,0.387c-0.395,0.258-0.91,0.549-1.549,0.863
	c-0.627,0.314-1.377,0.604-2.248,0.861c-0.879,0.258-1.887,0.387-3.039,0.387c-0.758,0-1.435-0.088-2.031-0.266
	c-0.597-0.186-1.104-0.443-1.524-0.773c-0.411-0.33-0.733-0.734-0.951-1.225c-0.226-0.492-0.33-1.033-0.33-1.629
	c0-0.693,0.185-1.289,0.564-1.781c0.379-0.5,0.871-0.943,1.475-1.322c0.398-0.256,0.835-0.5,1.306-0.732h10.536
	c0.154,0,0.281-0.172,0.281-0.379v-1.506c0-0.207-0.127-0.377-0.281-0.377H95.648c-0.155,0-0.281,0.17-0.281,0.377v1.506
	c0,0.209,0.126,0.379,0.281,0.379h2.063C97.377,113.799,97.214,114.807,97.214,115.957L97.214,115.957z M95.648,106.434h10.248
	l0.291-0.125c0.79-0.331,1.491-0.693,2.112-1.08c0.621-0.387,1.12-0.831,1.491-1.322c0.371-0.5,0.557-1.088,0.557-1.765
	c0-0.452-0.088-0.887-0.25-1.298c-0.168-0.411-0.418-0.758-0.758-1.048c-0.338-0.291-0.757-0.524-1.265-0.686
	c-0.5-0.169-1.088-0.25-1.766-0.25c-0.871,0-1.66,0.104-2.386,0.322c-0.726,0.209-1.362,0.443-1.911,0.709
	c-0.556,0.258-1.016,0.5-1.395,0.717s-0.653,0.331-0.831,0.331c-0.169,0-0.306-0.048-0.411-0.145
	c-0.105-0.089-0.186-0.242-0.234-0.443c-0.057-0.209-0.097-0.468-0.121-0.782c-0.024-0.315-0.032-0.702-0.032-1.153
	c0-0.412,0.008-0.758,0.016-1.032c0.016-0.274,0.048-0.5,0.088-0.685c0.041-0.177,0.081-0.322,0.138-0.435
	c0.056-0.113,0.161-0.242,0.322-0.403c0.153-0.153,0.476-0.354,0.967-0.588s1.048-0.451,1.677-0.637
	c0.628-0.193,1.306-0.338,2.031-0.451s1.451-0.161,2.168-0.161c1.402,0,2.733,0.177,3.983,0.54c1.248,0.363,2.338,0.911,3.256,1.645
	c0.928,0.726,1.66,1.653,2.201,2.757c0.539,1.112,0.814,2.402,0.814,3.861c0,1.282-0.186,2.37-0.564,3.289
	c-0.045,0.107-0.092,0.214-0.141,0.318h1.6c0.154,0,0.281,0.17,0.281,0.378v1.505c0,0.208-0.127,0.377-0.281,0.377H95.648
	c-0.154,0-0.281-0.17-0.281-0.377v-1.505C95.367,106.604,95.493,106.434,95.648,106.434L95.648,106.434z M95.546,128.451
	c-5.963-3.859-9.911-10.57-9.911-18.201c0-6.994,3.316-13.214,8.46-17.176H72.583c-1.571,5.584-6.278,9.856-12.1,10.796v14.038
	c5.733,0.926,10.385,5.082,12.026,10.543H95.546L95.546,128.451z M120.512,93.074c5.145,3.962,8.461,10.182,8.461,17.176
	c0,7.631-3.947,14.342-9.912,18.201h24.846c1.564-5.203,5.861-9.223,11.223-10.391v-14.343c-5.447-1.187-9.797-5.318-11.295-10.643
	H120.512L120.512,93.074z M155.129,124.32c-2.025,0.771-3.705,2.248-4.734,4.131h4.734V124.32L155.129,124.32z M60.483,124.057
	c2.384,0.66,4.375,2.27,5.538,4.395h-5.538V124.057L60.483,124.057z M60.483,97.721c2.478-0.685,4.53-2.396,5.671-4.646h-5.671
	V97.721L60.483,97.721z M155.129,97.457c-2.115-0.806-3.852-2.38-4.867-4.382h4.867v3.606V97.457L155.129,97.457z M138.338,103.024
	c4.307,0,7.799,3.492,7.799,7.798c0,4.307-3.492,7.801-7.799,7.801s-7.799-3.494-7.799-7.801
	C130.539,106.517,134.031,103.024,138.338,103.024L138.338,103.024z M138.338,107.276c1.959,0,3.547,1.588,3.547,3.546
	c0,1.959-1.588,3.547-3.547,3.547c-1.957,0-3.547-1.588-3.547-3.547C134.791,108.864,136.381,107.276,138.338,107.276
	L138.338,107.276z M75.802,103.024c4.307,0,7.799,3.492,7.799,7.798c0,4.307-3.492,7.801-7.799,7.801
	c-4.306,0-7.798-3.494-7.798-7.801C68.003,106.517,71.496,103.024,75.802,103.024L75.802,103.024z M75.802,107.276
	c1.959,0,3.547,1.588,3.547,3.546c0,1.959-1.588,3.547-3.547,3.547c-1.958,0-3.547-1.588-3.547-3.547
	C72.255,108.864,73.844,107.276,75.802,107.276L75.802,107.276z"/>
<path fill-rule="evenodd" clip-rule="evenodd" d="M55.302,140.396h104.345c1.244,0,2.264,1.309,2.264,2.906l0,0
	c0,1.598-1.02,2.906-2.264,2.906H55.302c-1.245,0-2.263-1.309-2.263-2.906l0,0C53.039,141.705,54.057,140.396,55.302,140.396
	L55.302,140.396z"/>
<path fill-rule="evenodd" clip-rule="evenodd" d="M55.302,151.07h104.345c1.244,0,2.264,1.307,2.264,2.906l0,0
	c0,1.598-1.02,2.906-2.264,2.906H55.302c-1.245,0-2.263-1.309-2.263-2.906l0,0C53.039,152.377,54.057,151.07,55.302,151.07
	L55.302,151.07z"/>
<path fill-rule="evenodd" clip-rule="evenodd" d="M55.302,161.744h104.345c1.244,0,2.264,1.307,2.264,2.906l0,0
	c0,1.598-1.02,2.906-2.264,2.906H55.302c-1.245,0-2.263-1.309-2.263-2.906l0,0C53.039,163.051,54.057,161.744,55.302,161.744
	L55.302,161.744z"/>
<path fill-rule="evenodd" clip-rule="evenodd" d="M84.996,77.546V66.573c-0.301-2.063-1.007-3.473-3.288-3.598
	c-3.277-0.18-6.577,0-9.866,0c-6.22-0.027-10.009,0.124-0.498-3.443l29.738-11.152c7.046-2.643,6.464-2.636,13.512,0.005
	c9.768,3.664,19.539,7.328,29.309,10.991c8.695,3.261,4.381,3.58,0.615,3.599c-3.467,0-6.936,0-10.402,0
	c-3.115,0.588-3.578,1.857-3.451,3.598c0,3.463,0,6.926,0,10.389c0,2.922-1.633,3.139-3.656,3.139H88.104
	C85.456,79.951,84.996,79.989,84.996,77.546L84.996,77.546z"/>
</svg>
