<?xml version="1.0" encoding="utf-8"?>
<!DOCTYPE svg PUBLIC "-//W3C//DTD SVG 1.1//EN" "http://www.w3.org/Graphics/SVG/1.1/DTD/svg11.dtd">
<svg version="1.1" id="Layer_1" xmlns="http://www.w3.org/2000/svg" xmlns:xlink="http://www.w3.org/1999/xlink" x="0px" y="0px"
	 width="216px" height="216px" viewBox="0 0 216 216" enable-background="new 0 0 216 216" xml:space="preserve">
<g>
	<path fill-rule="evenodd" clip-rule="evenodd" d="M106.02,77.224h11.174l0.316-0.137c0.861-0.36,1.627-0.755,2.303-1.178
		c0.678-0.421,1.223-0.905,1.627-1.441c0.404-0.545,0.605-1.187,0.605-1.925c0-0.492-0.096-0.966-0.271-1.415
		c-0.186-0.448-0.457-0.826-0.826-1.143c-0.369-0.316-0.826-0.571-1.381-0.747c-0.545-0.185-1.186-0.272-1.924-0.272
		c-0.949,0-1.811,0.114-2.602,0.352c-0.791,0.228-1.486,0.483-2.084,0.773c-0.605,0.282-1.107,0.545-1.52,0.783
		c-0.414,0.237-0.713,0.36-0.906,0.36c-0.184,0-0.334-0.053-0.447-0.159c-0.115-0.097-0.203-0.263-0.256-0.483
		c-0.061-0.229-0.105-0.51-0.131-0.853c-0.027-0.342-0.035-0.764-0.035-1.257c0-0.448,0.008-0.826,0.018-1.125
		c0.018-0.299,0.053-0.545,0.096-0.748c0.045-0.193,0.088-0.351,0.15-0.474c0.061-0.123,0.176-0.264,0.352-0.439
		c0.166-0.167,0.518-0.387,1.055-0.642c0.535-0.254,1.143-0.492,1.828-0.694c0.686-0.211,1.424-0.369,2.215-0.493
		c0.791-0.123,1.582-0.176,2.363-0.176c1.529,0,2.98,0.193,4.342,0.589c1.363,0.396,2.549,0.993,3.551,1.793
		c1.012,0.791,1.811,1.801,2.4,3.006c0.588,1.213,0.887,2.619,0.887,4.21c0,1.397-0.201,2.583-0.615,3.585
		c-0.049,0.118-0.1,0.234-0.152,0.348h1.744c0.168,0,0.305,0.186,0.305,0.412v1.642c0,0.226-0.137,0.412-0.305,0.412H106.02
		c-0.168,0-0.306-0.186-0.306-0.412v-1.642C105.714,77.409,105.852,77.224,106.02,77.224L106.02,77.224z M107.728,87.608
		c0,1.749,0.325,3.287,0.976,4.614c0.65,1.318,1.539,2.426,2.654,3.305c1.117,0.888,2.418,1.547,3.912,1.996
		c1.494,0.448,3.094,0.667,4.789,0.667c1.152,0,2.225-0.088,3.209-0.281c0.984-0.185,1.854-0.413,2.609-0.677
		c0.756-0.272,1.389-0.545,1.898-0.844c0.502-0.29,0.871-0.544,1.09-0.773c0.229-0.22,0.387-0.545,0.475-0.958
		c0.098-0.422,0.141-1.029,0.141-1.819c0-0.537-0.018-0.976-0.043-1.336c-0.035-0.36-0.098-0.659-0.168-0.879
		c-0.078-0.22-0.184-0.377-0.316-0.474c-0.123-0.097-0.271-0.141-0.447-0.141c-0.238,0-0.58,0.141-1.02,0.421
		c-0.432,0.282-0.994,0.598-1.688,0.94c-0.686,0.343-1.504,0.659-2.453,0.94c-0.957,0.281-2.057,0.422-3.313,0.422
		c-0.826,0-1.564-0.097-2.215-0.291c-0.65-0.202-1.205-0.483-1.662-0.843c-0.447-0.361-0.799-0.8-1.037-1.336
		c-0.246-0.536-0.359-1.125-0.359-1.775c0-0.756,0.201-1.406,0.615-1.942c0.412-0.545,0.949-1.028,1.607-1.442
		c0.436-0.278,0.91-0.544,1.424-0.799h11.488c0.168,0,0.305-0.186,0.305-0.412V82.25c0-0.227-0.137-0.412-0.305-0.412H106.02
		c-0.168,0-0.306,0.185-0.306,0.412v1.642c0,0.226,0.138,0.412,0.306,0.412h2.25C107.906,85.255,107.728,86.354,107.728,87.608
		L107.728,87.608z M96.235,122.964c4.052-0.688,7.976-2.642,11.119-5.825c2.403-2.434,4.079-5.313,5.03-8.357
		c0.934,0.239,1.891,0.428,2.861,0.566v21.666l-13.933-2.147C99.914,127.056,98.193,124.953,96.235,122.964L96.235,122.964z
		 M48.944,110.867h15.69v51.473h-15.69V110.867L48.944,110.867z M89.323,147.021c0.674-0.899,1.861-1.526,2.984-1.57l32.822,0.157
		c1.482-0.109,3.307-1.347,3.455-2.827c0.146-1.48-1.398-3.042-2.828-3.455c-9.17-2.653-18.486-1.821-27.56-4.789
		c-2.463-0.806-3.648-4.748-5.655-6.985c-2.63-2.358-3.441-3.618-6.797-4.719l-14.166,0.141v28.36l39.73,13.119
		c2.064,0.589,4.475,0.863,6.439,0l47.111-23.557c1.314-0.775,1.111-3.168,0.471-4.554c-0.51-1.105-2.129-1.908-3.297-1.57
		l-28.264,10.702c-0.408,1.768-1.473,2.881-2.674,3.902c-1.391,1.183-3.049,2.366-4.867,2.513l-34.235,0.628
		c-1.333-0.072-2.44-1.114-3.023-2.314C88.556,149.35,88.755,147.778,89.323,147.021L89.323,147.021z M132.35,106.059
		c6.371-3.672,11.029-9.888,12.486-17.192l17.488-2.016l-2.801,18.538c-0.445,2.939-2.623,5.702-4.613,7.79
		c-5.176,5.433-13.742,4.664-18.838-0.499C134.217,110.801,132.961,108.495,132.35,106.059L132.35,106.059z M93.638,88.851
		c1.22,7.608,6.11,14.038,12.855,17.645c-0.644,2.289-1.862,4.447-3.616,6.224c-5.097,5.163-13.662,5.932-18.839,0.499
		c-1.989-2.088-4.167-4.851-4.612-7.79L76.624,86.89L93.638,88.851L93.638,88.851z M122.615,109.372
		c1.332-0.179,2.631-0.456,3.891-0.823c0.939,3.116,2.637,6.065,5.09,8.55c7.805,7.906,20.426,8.229,27.869,0.418
		c3.27-3.43,5.66-7.098,6.277-11.189l3.064-20.262c0.9-6.455,0.258-6.589-5.863-5.619l-17.65,2.034
		c-0.207-5.382-1.691-10.22-4.752-14.128L124.262,47.56c-4.662-6.506-5.367-6.973-10.482-0.291l-15.84,21.195
		c-2.866,3.835-4.128,8.668-4.494,14.033l-17.438-2.01c-6.123-0.97-6.764-0.835-5.863,5.619l3.063,20.262
		c0.544,3.597,2.457,6.866,5.132,9.934l-6.76,0.067v-8.811c0-2.486-1.506-4.519-3.348-4.519H45.347
		c-1.841,0-3.347,2.033-3.347,4.519v57.208c0,2.485,1.506,4.519,3.347,4.519h22.884c1.841,0,3.348-2.033,3.348-4.519v-6.857
		l33.449,11.883c2.857,0.945,5.795,1.801,8.795,2.042c1.646,0.132,3.373-0.237,4.867-0.942l50.41-25.127
		c8.635-6.426,0.402-20.273-8.525-17.607l-27.711,9.595c-0.459-1.108-2.363-4.118-4.438-4.705l-5.811-0.896V109.372L122.615,109.372 z"/>
</g>

</svg>
