<?xml version="1.0" encoding="utf-8"?>
<!DOCTYPE svg PUBLIC "-//W3C//DTD SVG 1.1//EN" "http://www.w3.org/Graphics/SVG/1.1/DTD/svg11.dtd">
<svg version="1.1" id="Layer_1" xmlns="http://www.w3.org/2000/svg" xmlns:xlink="http://www.w3.org/1999/xlink" x="0px" y="0px" width="216px" height="216px" viewBox="0 0 216 216" enable-background="new 0 0 216 216" xml:space="preserve">

<path fill-rule="evenodd" clip-rule="evenodd" d="M179.515,89.384c1.17-3.215,1.584-6.958,1.868-11.387
	c1.703-26.51-1.971-37.476-18.759-46.528c-18.33-9.883-53.805-19.934-74.21-19.934c-40.915,0-57.12,32.16-54.846,66.461
	c0.411,6.204,1.431,11.277,2.872,15.816c4.839,15.241,4.559,14.105,5.155-0.622c0.241-5.95,1.262-11.326,1.752-12.532l4.411-12.262
	l9.203-0.05c5.917-2.307,16.553-20.25,20.499-25.744l13.626,12.067c14.872,13.17,52.185,16.937,71.807,13.698l6.211-2.344
	c2.32,5.861,5.374,15.131,5.837,24.019C175.402,98.931,177.622,94.585,179.515,89.384L179.515,89.384z M94.54,147.734
	c7.008,3.391,10.742,5.138,14.591,4.989c3.396-0.13,6.881-1.736,12.783-4.989c2.21-1.219,4.364,2.56,4.364,5.689l0,0
	c0,1.565-0.491,2.987-1.282,4.02c-0.791,1.03-0.412,1.503-2.884,2.832c-9.521,5.118-18.071,5.81-27.572-0.129
	c-3.596-2.247-4.364-3.593-4.364-6.723l0,0c0-1.564,0.491-2.987,1.282-4.019C92.249,148.374,93.416,147.189,94.54,147.734
	L94.54,147.734z M198.288,73.559h12.786c2.45,0,4.455,2.462,4.455,5.471l0,0c0,3.009-2.005,5.471-4.455,5.471h-12.786
	c-2.451,0-4.456-2.462-4.456-5.471l0,0C193.832,76.021,195.837,73.559,198.288,73.559L198.288,73.559z M198.288,129.644h12.786
	c2.45,0,4.455,2.462,4.455,5.471l0,0c0,3.009-2.005,5.471-4.455,5.471h-12.786c-2.451,0-4.456-2.462-4.456-5.471l0,0
	C193.832,132.105,195.837,129.644,198.288,129.644L198.288,129.644z M198.288,101.428h12.786c2.45,0,4.455,2.462,4.455,5.471l0,0
	c0,3.009-2.005,5.471-4.455,5.471h-12.786c-2.451,0-4.456-2.462-4.456-5.471l0,0C193.832,103.89,195.837,101.428,198.288,101.428
	L198.288,101.428z M3.455,73.559h12.786c2.451,0,4.456,2.462,4.456,5.471l0,0c0,3.009-2.005,5.471-4.456,5.471H3.455
	C1.004,84.5-1,82.038-1,79.029l0,0C-1,76.021,1.004,73.559,3.455,73.559L3.455,73.559z M3.455,129.644h12.786
	c2.451,0,4.456,2.462,4.456,5.471l0,0c0,3.009-2.005,5.471-4.456,5.471H3.455c-2.451,0-4.455-2.462-4.455-5.471l0,0
	C-1,132.105,1.004,129.644,3.455,129.644L3.455,129.644z M3.455,101.428h12.786c2.451,0,4.456,2.462,4.456,5.471l0,0
	c0,3.009-2.005,5.471-4.456,5.471H3.455c-2.451,0-4.455-2.462-4.455-5.471l0,0C-1,103.89,1.004,101.428,3.455,101.428L3.455,101.428
	z"/>
</svg>
