<?xml version="1.0" encoding="utf-8"?>
<!DOCTYPE svg PUBLIC "-//W3C//DTD SVG 1.1//EN" "http://www.w3.org/Graphics/SVG/1.1/DTD/svg11.dtd">
<svg version="1.1" id="Layer_1" xmlns="http://www.w3.org/2000/svg" xmlns:xlink="http://www.w3.org/1999/xlink" x="0px" y="0px" width="216px" height="216px" viewBox="0 0 216 216" enable-background="new 0 0 216 216" xml:space="preserve">
<path fill-rule="evenodd" clip-rule="evenodd" d="M52.555,210.456v-1.153c0-3.52-2.019-4.606-4.986-4.606
	l-19.016-0.005c-8.291-0.003-13.22-1.287-15.889-4.789c-1.763-2.311-2.771-5.722-2.771-10.557v-22.295
	c0-2.979-1.071-5.014-4.604-5.014H4.137c-2.699,0-4.611,1.913-4.611,4.611v25.362c0,4.794,1.232,11.179,5.54,15.636
	c4.586,4.746,12.413,7.421,17.517,7.421h25.362C50.643,215.067,52.555,213.154,52.555,210.456L52.555,210.456z M52.555,3.611v1.153
	c0,3.52-2.019,4.606-4.986,4.606L28.554,9.376c-8.291,0.002-13.22,1.287-15.889,4.789c-1.763,2.311-2.771,5.722-2.771,10.557v22.294
	c0,2.979-1.071,5.014-4.604,5.014H4.137c-2.699,0-4.611-1.913-4.611-4.612V22.057c0-4.794,1.232-11.179,5.54-15.637
	C9.651,1.674,17.479-1,22.582-1h25.362C50.643-1,52.555,0.913,52.555,3.611L52.555,3.611z M162.76,3.611v1.153
	c0,3.52,2.02,4.606,4.985,4.606l19.016,0.005c8.291,0.002,13.22,1.287,15.889,4.789c1.763,2.311,2.771,5.722,2.771,10.557v22.294
	c0,2.979,1.071,5.014,4.604,5.014h1.153c2.698,0,4.61-1.913,4.61-4.612V22.057c0-4.794-1.231-11.179-5.539-15.637
	C205.663,1.674,197.837-1,192.732-1h-25.361C164.672-1,162.76,0.913,162.76,3.611L162.76,3.611z M162.76,210.456v-1.153
	c0-3.52,2.02-4.606,4.985-4.606l19.016-0.005c8.291-0.003,13.22-1.287,15.889-4.789c1.763-2.311,2.771-5.722,2.771-10.557v-22.295
	c0-2.979,1.071-5.014,4.604-5.014h1.153c2.698,0,4.61,1.913,4.61,4.611v25.362c0,4.794-1.231,11.179-5.539,15.636
	c-4.587,4.746-12.413,7.421-17.518,7.421h-25.361C164.672,215.067,162.76,213.154,162.76,210.456L162.76,210.456z M132.227,110.528
	c6.067,0,10.989,4.921,10.989,10.989s-4.922,10.99-10.989,10.99c-6.068,0-10.99-4.922-10.99-10.99S126.158,110.528,132.227,110.528
	L132.227,110.528z M83.535,110.848c6.068,0,10.99,4.922,10.99,10.989c0,6.068-4.922,10.99-10.99,10.99s-10.99-4.922-10.99-10.99
	C72.545,115.77,77.467,110.848,83.535,110.848L83.535,110.848z"/>
</svg>
