<?xml version="1.0" encoding="utf-8"?>
<!DOCTYPE svg PUBLIC "-//W3C//DTD SVG 1.1//EN" "http://www.w3.org/Graphics/SVG/1.1/DTD/svg11.dtd">
<svg version="1.1" id="Layer_1" xmlns="http://www.w3.org/2000/svg" xmlns:xlink="http://www.w3.org/1999/xlink" x="0px" y="0px" width="216px" height="216px" viewBox="0 0 216 216" enable-background="new 0 0 216 216" xml:space="preserve">
<path fill-rule="evenodd" clip-rule="evenodd" d="M44.415,110.154h5.016
	c-0.515-10.096-0.876-23.655,1.342-29.337l2.28-5.839l6.001-0.034c3.806-0.927,12.692-9.238,14.677-12.562l5.829-9.763l8.359,7.708
	c13.245,12.215,51.255,19.406,68.733,16.402l7.425-1.276l2.74,7.018c2.391,6.124,2.193,19.38,2.176,26.119
	c-0.001,0.527-0.004,1.053-0.008,1.58c0.131-0.01,0.262-0.015,0.395-0.015h6.934c2.859,0,5.02,2.34,4.8,5.2l-1.787,23.228
	c-0.22,2.86-2.739,5.2-5.6,5.2h-6.367c-2.647,13.088-9.221,25.055-18.548,34.021c-2.448,14-3.469,21.02,1.31,32.268h-10.87
	c-1.859-7.704-1.772-15.872-0.824-24.262c-8.508,5.167-18.408,8.182-29.166,8.182c-8.004,0-15.856-1.724-23.131-5.058
	c-2.209-1.013-4.346-2.165-6.401-3.444l0.023,0.079c0.974,8.475,1.081,16.726-0.796,24.503H68.084
	c4.834-11.38,3.733-18.431,1.224-32.762l0.066-0.011c-0.659-0.651-1.304-1.318-1.934-2.001c-5.359-5.806-9.563-12.609-12.436-19.966
	c-1.464-3.748-2.572-7.614-3.326-11.549h-4.679c-2.86,0-5.38-2.34-5.6-5.2l-1.787-23.228
	C39.395,112.494,41.554,110.154,44.415,110.154L44.415,110.154z M158.215,85.829c2.508,6.421,1.211,37.636,1.211,45.046
	c0,29.64-22.807,53.882-50.166,53.882c-6.84,0-13.357-1.502-19.284-4.218c-5.928-2.717-11.267-6.648-15.75-11.505
	s-8.112-10.64-10.619-17.062s-3.894-13.481-3.894-20.891c0-2.316-0.278-7.139-0.584-12.87c-0.672-12.609-1.479-29.621,0.245-34.036
	c6.523-0.037,18.832-11.277,22.285-17.061C96.921,81.19,137.543,89.382,158.215,85.829L158.215,85.829z"/>
</svg>
