<?xml version="1.0" encoding="utf-8"?>
<!-- Generator: Adobe Illustrator 16.0.0, SVG Export Plug-In . SVG Version: 6.00 Build 0)  -->
<!DOCTYPE svg PUBLIC "-//W3C//DTD SVG 1.1//EN" "http://www.w3.org/Graphics/SVG/1.1/DTD/svg11.dtd">
<svg version="1.1" id="Layer_1" xmlns="http://www.w3.org/2000/svg" xmlns:xlink="http://www.w3.org/1999/xlink" x="0px" y="0px"
	 width="216px" height="410px" viewBox="0 0 216 410" enable-background="new 0 0 216 410" xml:space="preserve">
<path id="d7b262" fill-rule="evenodd" clip-rule="evenodd" fill="#D1AE69" d="M66.838,278.22c-18.87,0-34.172-15.303-34.172-34.171
	c0-18.871,15.302-34.174,34.172-34.174c18.869,0,34.171,15.303,34.171,34.174C101.01,262.917,85.708,278.22,66.838,278.22
	L66.838,278.22z M66.838,269.573c14.096,0,25.524-11.431,25.524-25.524c0-14.098-11.428-25.525-25.524-25.525
	c-14.097,0-25.525,11.428-25.525,25.525C41.313,258.143,52.742,269.573,66.838,269.573L66.838,269.573z M145.008,198.792
	c-18.804,0-34.052-15.25-34.052-34.053c0-18.803,15.248-34.053,34.052-34.053s34.052,15.25,34.052,34.053
	C179.06,183.543,163.812,198.792,145.008,198.792L145.008,198.792z M144.56,190.458c14.097,0,25.524-11.428,25.524-25.524
	c0-14.097-11.428-25.525-25.524-25.525c-14.095,0-25.524,11.428-25.524,25.525C119.035,179.03,130.465,190.458,144.56,190.458
	L144.56,190.458z M80.19,249.995c0.148,1.521-0.001,2.914-0.449,4.187c-0.438,1.264-1.138,2.396-2.083,3.365
	c-0.942,0.979-2.121,1.8-3.533,2.465c-1.404,0.655-2.986,1.137-4.739,1.439l-0.031,5.729c-0.005,0.147-0.031,0.269-0.086,0.384
	c-0.056,0.114-0.16,0.214-0.333,0.293c-0.172,0.09-0.402,0.174-0.701,0.238c-0.298,0.071-0.683,0.133-1.146,0.174
	c-0.585,0.053-1.07,0.069-1.435,0.048c-0.364-0.021-0.655-0.069-0.863-0.15c-0.208-0.083-0.362-0.195-0.434-0.346
	c-0.083-0.157-0.119-0.336-0.1-0.529l0.06-5.44c-0.804-0.038-1.564-0.107-2.289-0.205c-0.716-0.109-1.366-0.233-1.963-0.391
	c-0.586-0.148-1.107-0.313-1.544-0.493c-0.427-0.172-0.768-0.351-0.996-0.532c-0.237-0.188-0.418-0.474-0.542-0.865
	c-0.133-0.388-0.238-0.972-0.314-1.751c-0.058-0.599-0.088-1.099-0.088-1.49c0-0.393,0.027-0.698,0.101-0.922
	c0.074-0.217,0.173-0.374,0.307-0.467c0.134-0.096,0.292-0.146,0.47-0.162c0.246-0.021,0.609,0.083,1.088,0.305
	c0.489,0.222,1.112,0.458,1.862,0.72c0.749,0.253,1.647,0.465,2.702,0.634c1.047,0.179,2.268,0.198,3.648,0.074
	c2.163-0.193,3.732-0.718,4.706-1.583c0.973-0.862,1.402-1.933,1.277-3.21c-0.082-0.841-0.378-1.527-0.884-2.03
	c-0.507-0.513-1.16-0.939-1.956-1.287c-0.796-0.348-1.683-0.644-2.669-0.884c-0.977-0.241-1.983-0.498-3.022-0.789
	c-1.028-0.281-2.043-0.62-3.046-1.032s-1.913-0.943-2.739-1.599c-0.827-0.658-1.517-1.482-2.072-2.481
	c-0.555-0.991-0.903-2.221-1.046-3.689c-0.13-1.33-0.012-2.557,0.344-3.685c0.348-1.127,0.926-2.138,1.715-3.031
	c0.78-0.892,1.784-1.649,3-2.259c1.217-0.622,2.619-1.097,4.209-1.411l0.027-5.384c0.004-0.146,0.03-0.268,0.087-0.372
	c0.057-0.098,0.17-0.2,0.333-0.296c0.172-0.098,0.402-0.174,0.692-0.235c0.29-0.063,0.674-0.114,1.157-0.157
	c0.576-0.053,1.051-0.069,1.435-0.048c0.383,0.021,0.683,0.066,0.891,0.147c0.218,0.081,0.353,0.198,0.425,0.346
	c0.073,0.16,0.118,0.336,0.137,0.527l-0.059,5.066c0.518,0.026,1.074,0.066,1.654,0.143c0.588,0.076,1.141,0.172,1.648,0.291
	c0.518,0.129,0.988,0.26,1.413,0.412c0.424,0.146,0.724,0.291,0.891,0.432c0.175,0.131,0.303,0.274,0.402,0.412
	c0.1,0.146,0.184,0.322,0.253,0.544c0.068,0.214,0.124,0.481,0.172,0.788c0.049,0.306,0.093,0.658,0.133,1.065
	c0.054,0.554,0.089,1.006,0.095,1.363c0.006,0.355-0.024,0.632-0.082,0.82c-0.048,0.195-0.122,0.321-0.21,0.393
	c-0.088,0.072-0.189,0.107-0.321,0.119c-0.236,0.021-0.606-0.055-1.082-0.25c-0.485-0.184-1.076-0.376-1.783-0.589
	c-0.697-0.202-1.495-0.376-2.397-0.533c-0.891-0.148-1.866-0.179-2.925-0.084c-0.954,0.084-1.767,0.248-2.44,0.484
	c-0.663,0.24-1.187,0.533-1.58,0.898c-0.395,0.354-0.669,0.763-0.833,1.228c-0.156,0.45-0.212,0.948-0.16,1.484
	c0.081,0.822,0.376,1.509,0.894,2.028c0.519,0.529,1.18,0.955,1.985,1.294c0.806,0.339,1.71,0.632,2.707,0.88
	c1.006,0.247,2.023,0.512,3.07,0.793c1.038,0.281,2.072,0.627,3.084,1.029c1.02,0.394,1.939,0.923,2.764,1.571
	c0.826,0.648,1.524,1.461,2.086,2.433C79.693,247.354,80.049,248.556,80.19,249.995L80.19,249.995z M155.883,179.209
	c0,0.896-0.084,1.604-0.251,2.125c-0.157,0.52-0.386,0.916-0.667,1.197c-0.281,0.292-0.698,0.583-1.239,0.875
	c-0.541,0.291-1.196,0.572-1.978,0.822c-0.782,0.25-1.676,0.458-2.687,0.625c-1.011,0.166-2.126,0.25-3.344,0.25
	c-2.302,0-4.333-0.302-6.104-0.885c-1.769-0.594-3.279-1.448-4.54-2.551c-1.258-1.114-2.29-2.468-3.072-4.093
	c-0.779-1.614-1.342-3.447-1.685-5.498h-2.938c-0.301,0-0.541-0.198-0.727-0.604c-0.179-0.396-0.272-1.062-0.272-1.989
	c0-0.469,0.01-0.864,0.041-1.197c0.033-0.323,0.083-0.583,0.157-0.771c0.074-0.198,0.155-0.343,0.271-0.427
	c0.114-0.094,0.248-0.146,0.415-0.146h2.71c0-0.302,0-0.625-0.013-0.958c-0.009-0.333-0.009-0.667-0.009-0.99
	c0-0.406,0-0.812,0.009-1.208c0.013-0.395,0.013-0.781,0.013-1.145h-2.71c-0.313,0-0.531-0.188-0.677-0.563
	c-0.134-0.375-0.208-1.042-0.208-2c0-0.489,0.021-0.896,0.074-1.218c0.05-0.322,0.124-0.583,0.217-0.781
	c0.083-0.188,0.198-0.323,0.313-0.406c0.126-0.083,0.262-0.125,0.396-0.125h3.146c0.405-1.948,0.999-3.739,1.792-5.353
	c0.78-1.614,1.781-3.01,3.021-4.187c1.227-1.166,2.695-2.072,4.413-2.707c1.719-0.646,3.73-0.968,6.03-0.968
	c1.063,0,2.083,0.083,3.063,0.229c0.988,0.157,1.885,0.355,2.676,0.604c0.792,0.239,1.447,0.489,1.969,0.739
	c0.52,0.26,0.884,0.479,1.113,0.656c0.219,0.188,0.386,0.375,0.491,0.573c0.093,0.188,0.176,0.427,0.238,0.708
	c0.062,0.292,0.114,0.646,0.157,1.083c0.04,0.438,0.062,0.979,0.062,1.604c0,0.552-0.021,1-0.062,1.343
	c-0.043,0.344-0.115,0.625-0.198,0.844c-0.096,0.208-0.21,0.354-0.346,0.438c-0.124,0.083-0.27,0.125-0.436,0.125
	c-0.324,0-0.708-0.146-1.146-0.427c-0.437-0.292-0.979-0.594-1.613-0.938c-0.646-0.333-1.406-0.635-2.303-0.906
	c-0.894-0.281-1.947-0.417-3.144-0.417c-1.146,0-2.136,0.157-2.988,0.469c-0.855,0.323-1.595,0.782-2.219,1.396
	c-0.615,0.604-1.125,1.344-1.509,2.197c-0.386,0.854-0.68,1.813-0.887,2.895h8.363c0.145,0,0.281,0.042,0.414,0.125
	c0.127,0.083,0.241,0.219,0.314,0.406c0.084,0.198,0.155,0.458,0.198,0.781c0.05,0.323,0.083,0.729,0.083,1.218
	c0,0.958-0.095,1.625-0.281,2c-0.179,0.375-0.429,0.563-0.729,0.563h-8.966c-0.021,0.333-0.043,0.656-0.053,0.989
	c-0.012,0.344-0.012,0.708-0.012,1.114c0,0.375,0,0.729,0.012,1.083c0.01,0.365,0.031,0.729,0.053,1.114h8.966
	c0.145,0,0.281,0.052,0.414,0.146c0.127,0.083,0.241,0.229,0.314,0.427c0.084,0.188,0.155,0.448,0.198,0.771
	c0.05,0.333,0.083,0.729,0.083,1.197c0,0.927-0.095,1.593-0.281,1.989c-0.179,0.407-0.429,0.604-0.729,0.604h-8.395
	c0.167,1.031,0.437,1.968,0.832,2.791c0.386,0.822,0.896,1.521,1.532,2.083c0.646,0.573,1.426,1.01,2.353,1.312
	c0.927,0.313,2.03,0.458,3.313,0.458c1.196,0,2.238-0.135,3.125-0.426c0.884-0.281,1.653-0.594,2.3-0.947
	c0.657-0.344,1.198-0.657,1.635-0.938c0.438-0.292,0.803-0.427,1.084-0.427c0.167,0,0.313,0.031,0.448,0.114
	c0.124,0.083,0.238,0.24,0.331,0.479c0.096,0.229,0.157,0.552,0.198,0.969C155.861,177.959,155.883,178.521,155.883,179.209
	L155.883,179.209z M105.96,230.695c-0.471,0-0.938-0.012-1.403-0.038c-4.135-11.643-13.508-20.806-25.284-24.653
	c-0.052-0.685-0.08-1.377-0.08-2.076c0-14.78,11.986-26.766,26.767-26.766c0.379,0,0.757,0.01,1.133,0.025
	c3.96,12.064,13.52,21.593,25.603,25.511c0.019,0.408,0.03,0.818,0.03,1.23C132.727,218.707,120.739,230.695,105.96,230.695
	L105.96,230.695z M98.112,209.098c0,1.356,0.252,2.548,0.756,3.578c0.504,1.021,1.191,1.88,2.057,2.56
	c0.865,0.688,1.873,1.201,3.032,1.546c1.157,0.349,2.397,0.518,3.712,0.518c0.892,0,1.724-0.066,2.486-0.217
	c0.763-0.143,1.437-0.319,2.023-0.524c0.586-0.212,1.074-0.422,1.47-0.653c0.389-0.226,0.675-0.424,0.847-0.601
	c0.176-0.169,0.298-0.422,0.367-0.743c0.073-0.326,0.109-0.796,0.109-1.408c0-0.415-0.015-0.756-0.036-1.035
	c-0.025-0.28-0.073-0.512-0.128-0.681c-0.063-0.172-0.144-0.294-0.246-0.37c-0.095-0.073-0.21-0.107-0.348-0.107
	c-0.184,0-0.448,0.107-0.789,0.327c-0.334,0.217-0.77,0.462-1.309,0.729c-0.531,0.264-1.165,0.51-1.899,0.727
	c-0.743,0.219-1.594,0.329-2.568,0.329c-0.641,0-1.212-0.076-1.716-0.227c-0.504-0.155-0.933-0.374-1.288-0.653
	c-0.348-0.278-0.62-0.619-0.804-1.034c-0.191-0.417-0.28-0.872-0.28-1.378c0-0.586,0.158-1.089,0.478-1.504
	c0.32-0.424,0.735-0.798,1.246-1.117c0.337-0.217,0.706-0.422,1.104-0.62h8.903c0.131,0,0.236-0.143,0.236-0.319v-1.271
	c0-0.176-0.105-0.319-0.236-0.319H96.789c-0.13,0-0.237,0.144-0.237,0.319v1.271c0,0.177,0.107,0.319,0.237,0.319h1.744
	C98.25,207.275,98.112,208.128,98.112,209.098L98.112,209.098z M96.789,201.052h8.66l0.245-0.106
	c0.667-0.279,1.26-0.586,1.785-0.913c0.524-0.327,0.947-0.701,1.259-1.117c0.315-0.422,0.472-0.92,0.472-1.492
	c0-0.381-0.076-0.749-0.212-1.096c-0.143-0.348-0.353-0.641-0.639-0.885c-0.288-0.246-0.642-0.443-1.07-0.58
	c-0.422-0.143-0.92-0.211-1.492-0.211c-0.735,0-1.402,0.089-2.016,0.273c-0.612,0.177-1.151,0.374-1.614,0.6
	c-0.47,0.217-0.858,0.422-1.178,0.606c-0.32,0.184-0.552,0.279-0.702,0.279c-0.143,0-0.258-0.041-0.347-0.123
	c-0.089-0.075-0.157-0.205-0.198-0.375c-0.048-0.177-0.082-0.395-0.102-0.661s-0.027-0.592-0.027-0.974
	c0-0.347,0.007-0.64,0.014-0.871c0.014-0.232,0.041-0.422,0.075-0.579c0.034-0.15,0.068-0.273,0.116-0.368
	c0.047-0.096,0.136-0.204,0.272-0.34c0.129-0.129,0.402-0.3,0.818-0.498s0.885-0.381,1.417-0.538
	c0.532-0.163,1.104-0.286,1.717-0.381c0.613-0.095,1.226-0.136,1.832-0.136c1.185,0,2.309,0.15,3.365,0.456
	c1.056,0.307,1.976,0.77,2.753,1.39c0.781,0.613,1.403,1.396,1.858,2.33c0.458,0.94,0.688,2.03,0.688,3.263
	c0,1.083-0.157,2.002-0.477,2.779c-0.038,0.091-0.078,0.181-0.119,0.27h1.352c0.131,0,0.236,0.144,0.236,0.319v1.272
	c0,0.175-0.105,0.319-0.236,0.319H96.789c-0.13,0-0.237-0.144-0.237-0.319v-1.272C96.551,201.195,96.658,201.052,96.789,201.052
	L96.789,201.052z M39.356,174.198l-6.712-2.169c1.832,6.582,3.664,13.163,5.496,19.745c1.396,4.91,4.372,5.549,7.728,2.352
	l15.882-12.689l-6.711-2.169l0.008-0.098c7.871-15.615,22.706-27.241,40.643-30.57c11.333-2.103,11.264-18.176-1.234-16.166
	c-24.326,3.916-44.41,19.687-54.54,40.942C39.665,173.703,39.473,173.984,39.356,174.198L39.356,174.198z M173.84,230.614
	l6.805,1.863c-2.128-6.491-4.257-12.983-6.385-19.476c-1.616-4.843-4.619-5.346-7.826-2l-15.291,13.395l6.802,1.863l-0.003,0.098
	c-7.154,15.956-21.449,28.242-39.216,32.379c-11.229,2.614-10.431,18.668,1.964,16.095c24.123-5.015,43.473-21.679,52.629-43.368
	C173.555,231.122,173.735,230.833,173.84,230.614L173.84,230.614z"/>
</svg>
