<?xml version="1.0" encoding="utf-8"?>
<!-- Generator: Adobe Illustrator 16.0.0, SVG Export Plug-In . SVG Version: 6.00 Build 0)  -->
<!DOCTYPE svg PUBLIC "-//W3C//DTD SVG 1.1//EN" "http://www.w3.org/Graphics/SVG/1.1/DTD/svg11.dtd">
<svg version="1.1" id="Layer_1" xmlns="http://www.w3.org/2000/svg" xmlns:xlink="http://www.w3.org/1999/xlink" x="0px" y="0px"
	 width="216px" height="410px" viewBox="0 0 216 410" enable-background="new 0 0 216 410" xml:space="preserve">
<path id="d7b262" fill-rule="evenodd" clip-rule="evenodd" fill="#D1AE69" d="M98.468,122.674h15.661
	c27.777,0,50.496,22.719,50.496,50.499v18.764c8.74,0.652,15.69,11.299,15.69,24.333c0,13.455-7.407,24.365-16.539,24.365
	c-0.257,0-0.507-0.009-0.758-0.025c-4.792,18.444-19.816,32.871-38.582,36.802c-3.303,3.782-8.839,6.264-15.112,6.264
	c-10.114,0-18.317-6.451-18.317-14.405c0-7.956,8.203-14.407,18.317-14.407c8.641,0,15.884,4.707,17.814,11.037
	c8.557-2.967,15.811-8.8,20.589-16.336c-4.736-2.16-6.681-2.816-6.681-10.707v-47.664c0-8.855,5.636-10.504,9.746-10.504h3.075
	v-7.999c0-2.526-0.12-5.023-0.7-7.395c-0.502-2.046-0.444-2.809-2.551-1.145c-2.4,1.895-3.744,2.638-7.256-3.071
	c-0.253-0.412-0.384-0.89-0.59-1.326c-5.072-10.748-16.024-18.231-28.643-18.231H98.468c-12.705,0-23.723,7.587-28.748,18.454
	c-0.162,0.351-0.3,0.713-0.467,1.062c-2.716,5.669-4.374,4.041-7.555,2.5c-3.518-1.704-2.969,6.275-2.969,9.153v8.757h3.109
	c4.108,0,9.745,3.367,9.745,7.469v52.974c0,4.103-5.643,7.471-9.745,7.471h-3.991c-3.368-0.41-6.576-3.136-7.604-6.436
	c-0.238-0.765-0.459-1.538-0.662-2.313c-0.241,0.016-0.483,0.022-0.728,0.022c-9.133,0-16.54-10.91-16.54-24.365
	c0-13.017,6.933-23.652,15.656-24.33v-18.768C47.971,145.393,70.689,122.674,98.468,122.674L98.468,122.674z M152.606,238.36
	c0.822-3.165,1.262-6.483,1.262-9.898v-38.723h-3.075c-0.803,0-1.455,0.655-1.455,1.455v47.664c0,0.801,0.652,1.455,1.455,1.455
	C152.437,240.313,152.19,239.956,152.606,238.36L152.606,238.36z M58.729,189.739v38.723c0,3.341,0.421,6.651,1.252,9.863
	c0.423,1.638,0.713,2.014,1.858,1.987c0.799-0.02,1.454-0.654,1.454-1.455v-47.664c0-0.8-0.654-1.455-1.454-1.455H58.729
	L58.729,189.739z"/>
</svg>
