<?xml version="1.0" encoding="utf-8"?>
<!-- Generator: Adobe Illustrator 16.0.0, SVG Export Plug-In . SVG Version: 6.00 Build 0)  -->
<!DOCTYPE svg PUBLIC "-//W3C//DTD SVG 1.1//EN" "http://www.w3.org/Graphics/SVG/1.1/DTD/svg11.dtd">
<svg version="1.1" id="Layer_1" xmlns="http://www.w3.org/2000/svg" xmlns:xlink="http://www.w3.org/1999/xlink" x="0px" y="0px"
	 width="216px" height="410px" viewBox="0 0 216 410" enable-background="new 0 0 216 410" xml:space="preserve">
<path id="d7b262" fill-rule="evenodd" clip-rule="evenodd" fill="#D1AE69" d="M87.353,365.226c7.356,0,6.019-6.878,6.019-13.874
	c0-6.477,0-12.95,0-19.429c0-12.949,0,3.271,0-9.68s0-25.903,0-38.853c0-6.476,0-12.951,0-19.427c0-6.633-1.248-13.876,5.666-13.876
	h28.028c-5.002-2.914-9.421-6.685-13.048-11.101h-14.27c-9.523,0-17.708,7.061-17.708,15.956v11.794h-4.957
	c-9.52,0-17.704,7.063-17.704,15.958v81.839c0,13.146,9.671,22.896,23.016,22.896h133.61v-11.103H83.102
	c-6.489,0-12.391-4.319-12.391-10.061v-82.876c0-3.139,2.463-5.552,5.664-5.552h5.665v81.837
	C82.04,362.62,84.477,365.226,87.353,365.226L87.353,365.226z M216.005,238.987h-26.537c-3.627,4.416-8.047,8.187-13.049,11.101
	h39.586V238.987L216.005,238.987z M216.005,274.025v5.289c-0.257,0.062-0.534,0.094-0.827,0.094h-45.323
	c-1.711,0-2.833-1.1-2.833-2.775c0-1.79,1.477-2.774,3.188-2.774h44.612C215.236,273.858,215.635,273.916,216.005,274.025
	L216.005,274.025z M216.005,290.676v5.29c-0.257,0.062-0.534,0.092-0.827,0.092h-45.323c-1.711,0-2.833-1.095-2.833-2.774
	c0-2.067,1.43-2.776,3.543-2.776h44.258C215.236,290.507,215.635,290.564,216.005,290.676L216.005,290.676z M216.005,307.329v5.286
	c-0.257,0.062-0.534,0.093-0.827,0.093h-45.323c-1.711,0-2.833-1.096-2.833-2.775c0-1.788,1.477-2.773,3.188-2.773h44.612
	C215.236,307.159,215.635,307.218,216.005,307.329L216.005,307.329z M216.005,323.975v5.291c-0.257,0.063-0.534,0.095-0.827,0.095
	H107.534c-1.712,0-2.834-1.098-2.834-2.773c0-2.067,1.43-2.774,3.544-2.774H214.47C215.034,323.813,215.551,323.861,216.005,323.975
	L216.005,323.975z M216.005,340.628v5.291c-0.257,0.062-0.534,0.094-0.827,0.094H107.534c-1.712,0-2.834-1.097-2.834-2.774
	c0-2.067,1.43-2.776,3.544-2.776H214.47C215.034,340.462,215.551,340.515,216.005,340.628L216.005,340.628z M216.005,357.279v5.291
	c-0.257,0.063-0.534,0.095-0.827,0.095h-45.323c-1.711,0-2.833-1.098-2.833-2.776c0-2.066,1.43-2.775,3.543-2.775h43.905
	C215.034,357.113,215.551,357.164,216.005,357.279L216.005,357.279z M104.7,359.889c0,1.679,1.123,2.776,2.834,2.776h45.323
	c1.714,0,2.833-1.098,2.833-2.776c0-2.066-1.429-2.775-3.539-2.775h-43.907C106.13,357.113,104.7,357.822,104.7,359.889
	L104.7,359.889z M104.7,268.308v38.852c0,3.135,2.466,5.549,5.668,5.549h39.657c3.201,0,5.665-2.414,5.665-5.549v-38.852
	c0-3.426-2.755-5.55-6.374-5.55h-38.24C107.458,262.758,104.7,264.882,104.7,268.308L104.7,268.308z M116.035,273.858h28.325v27.749
	h-28.325V273.858L116.035,273.858z M130.491,202.493h18.686l0.53-0.226c1.441-0.587,2.718-1.235,3.851-1.926
	c1.132-0.691,2.04-1.485,2.717-2.359c0.677-0.893,1.018-1.945,1.018-3.155c0-0.807-0.166-1.584-0.456-2.317
	c-0.311-0.735-0.768-1.357-1.384-1.876c-0.618-0.517-1.381-0.935-2.308-1.222c-0.91-0.3-1.983-0.447-3.217-0.447
	c-1.588,0-3.028,0.188-4.349,0.578c-1.326,0.375-2.487,0.791-3.485,1.268c-1.014,0.458-1.852,0.893-2.545,1.281
	c-0.688,0.388-1.188,0.589-1.513,0.589c-0.31,0-0.559-0.085-0.75-0.26c-0.189-0.158-0.335-0.431-0.427-0.791
	c-0.1-0.374-0.174-0.837-0.22-1.395c-0.043-0.563-0.057-1.255-0.057-2.062c0-0.73,0.014-1.353,0.026-1.843
	c0.03-0.489,0.089-0.89,0.163-1.222c0.073-0.318,0.148-0.576,0.249-0.777c0.105-0.202,0.296-0.434,0.587-0.722
	c0.281-0.275,0.87-0.63,1.765-1.052c0.897-0.416,1.913-0.804,3.059-1.137c1.145-0.344,2.38-0.604,3.702-0.807
	c1.324-0.201,2.646-0.288,3.954-0.288c2.558,0,4.981,0.318,7.26,0.966c2.277,0.648,4.262,1.625,5.938,2.934
	c1.691,1.298,3.029,2.953,4.012,4.926c0.986,1.988,1.485,4.291,1.485,6.897c0,2.292-0.337,4.234-1.026,5.875
	c-0.084,0.194-0.169,0.382-0.258,0.568h2.915c0.282,0,0.511,0.305,0.511,0.677v2.685c0,0.375-0.229,0.677-0.511,0.677h-39.922
	c-0.28,0-0.509-0.303-0.509-0.677v-2.685C129.982,202.798,130.211,202.493,130.491,202.493L130.491,202.493z M133.347,219.507
	c0,2.861,0.548,5.385,1.634,7.559c1.086,2.16,2.571,3.972,4.438,5.413c1.867,1.455,4.042,2.534,6.538,3.271
	c2.5,0.733,5.176,1.093,8.012,1.093c1.926,0,3.717-0.145,5.363-0.463c1.647-0.302,3.102-0.676,4.365-1.106
	c1.264-0.446,2.323-0.892,3.176-1.384c0.838-0.475,1.454-0.893,1.82-1.267c0.383-0.359,0.647-0.895,0.795-1.567
	c0.161-0.692,0.235-1.685,0.235-2.982c0-0.877-0.03-1.598-0.074-2.189c-0.059-0.588-0.161-1.078-0.28-1.438
	c-0.131-0.359-0.31-0.62-0.527-0.778c-0.207-0.155-0.456-0.229-0.749-0.229c-0.396,0-0.973,0.229-1.706,0.69
	c-0.721,0.459-1.66,0.979-2.821,1.541c-1.147,0.56-2.515,1.079-4.103,1.54c-1.602,0.459-3.438,0.691-5.537,0.691
	c-1.383,0-2.616-0.16-3.704-0.477c-1.092-0.331-2.016-0.79-2.779-1.383c-0.749-0.589-1.338-1.308-1.732-2.188
	c-0.411-0.879-0.604-1.844-0.604-2.908c0-1.236,0.34-2.303,1.028-3.18c0.69-0.894,1.589-1.684,2.69-2.361
	c0.728-0.456,1.521-0.892,2.382-1.311h19.207c0.282,0,0.511-0.305,0.511-0.677v-2.687c0-0.372-0.229-0.677-0.511-0.677h-39.922
	c-0.28,0-0.509,0.305-0.509,0.677v2.687c0,0.372,0.229,0.677,0.509,0.677h3.762C133.644,215.652,133.347,217.451,133.347,219.507
	L133.347,219.507z M151.741,248.014c-21.813,0-39.505-17.332-39.505-38.703c0-21.373,17.691-38.703,39.505-38.703
	c21.815,0,39.505,17.33,39.505,38.703C191.246,230.682,173.557,248.014,151.741,248.014L151.741,248.014z"/>
</svg>
