<?xml version="1.0" encoding="utf-8"?>
<!-- Generator: Adobe Illustrator 16.0.0, SVG Export Plug-In . SVG Version: 6.00 Build 0)  -->
<!DOCTYPE svg PUBLIC "-//W3C//DTD SVG 1.1//EN" "http://www.w3.org/Graphics/SVG/1.1/DTD/svg11.dtd">
<svg version="1.1" id="Layer_1" xmlns="http://www.w3.org/2000/svg" xmlns:xlink="http://www.w3.org/1999/xlink" x="0px" y="0px"
	 width="216px" height="410px" viewBox="0 0 216 410" enable-background="new 0 0 216 410" xml:space="preserve">
<path id="d7b262" fill-rule="evenodd" clip-rule="evenodd" fill="#D1AE69" d="M97.042,386.979
	c-23.895,0-43.273-19.385-43.273-43.285c0-23.904,19.378-43.285,43.273-43.285c23.896,0,43.272,19.381,43.272,43.285
	C140.314,367.594,120.938,386.979,97.042,386.979L97.042,386.979z M216,204.997v13.515c-5.584-4.602-12.739-7.363-20.537-7.363
	c-17.851,0-32.323,14.474-32.323,32.329c0,17.856,14.473,32.333,32.323,32.333c7.798,0,14.953-2.765,20.537-7.365v13.021
	c-5.972,3.129-12.764,4.899-19.968,4.899c-23.814,0-43.123-19.315-43.123-43.134c0-23.817,19.309-43.134,43.123-43.134
	C203.236,200.098,210.028,201.871,216,204.997L216,204.997z M216,308.109v44.95c-12.938,14.728-30.525,25.415-50.768,29.625
	c-15.693,3.262-16.703-17.073-2.485-20.386c22.501-5.242,40.603-20.805,49.661-41.015l0.004-0.123l-8.614-2.36L216,308.109
	L216,308.109z M97.042,376.023c17.851,0,32.323-14.474,32.323-32.33s-14.473-32.332-32.323-32.332s-32.323,14.476-32.323,32.332
	S79.191,376.023,97.042,376.023L97.042,376.023z M113.949,351.225c0.188,1.928-0.002,3.691-0.567,5.305
	c-0.558,1.601-1.442,3.033-2.639,4.264c-1.194,1.241-2.687,2.277-4.473,3.12c-1.778,0.831-3.782,1.438-6.002,1.823l-0.04,7.258
	c-0.006,0.187-0.039,0.34-0.109,0.486c-0.071,0.145-0.202,0.272-0.422,0.373c-0.218,0.113-0.509,0.219-0.889,0.3
	c-0.376,0.093-0.865,0.169-1.451,0.222c-0.739,0.066-1.354,0.089-1.814,0.059c-0.463-0.026-0.833-0.085-1.095-0.189
	c-0.263-0.105-0.457-0.249-0.55-0.438c-0.103-0.199-0.149-0.426-0.125-0.671l0.077-6.893c-1.018-0.046-1.984-0.135-2.899-0.261
	c-0.907-0.137-1.731-0.295-2.487-0.493c-0.741-0.188-1.402-0.396-1.955-0.622c-0.54-0.219-0.974-0.446-1.261-0.675
	c-0.299-0.239-0.529-0.601-0.687-1.096c-0.169-0.493-0.299-1.232-0.396-2.221c-0.073-0.758-0.113-1.391-0.113-1.888
	s0.037-0.883,0.129-1.168c0.093-0.274,0.218-0.471,0.388-0.59c0.169-0.119,0.368-0.184,0.594-0.203
	c0.311-0.029,0.771,0.102,1.378,0.383c0.618,0.281,1.41,0.58,2.357,0.912c0.95,0.319,2.087,0.588,3.422,0.804
	c1.325,0.229,2.873,0.251,4.62,0.095c2.739-0.247,4.725-0.911,5.959-2.005c1.232-1.095,1.774-2.45,1.616-4.067
	c-0.105-1.066-0.477-1.936-1.119-2.572c-0.643-0.648-1.467-1.188-2.477-1.629c-1.006-0.442-2.131-0.816-3.38-1.119
	c-1.234-0.308-2.511-0.633-3.826-1.001c-1.303-0.357-2.588-0.785-3.857-1.308c-1.269-0.522-2.42-1.193-3.468-2.026
	c-1.047-0.833-1.921-1.876-2.625-3.143c-0.703-1.257-1.144-2.813-1.325-4.672c-0.164-1.686-0.014-3.239,0.436-4.668
	c0.44-1.426,1.172-2.708,2.174-3.84c0.986-1.129,2.259-2.089,3.798-2.863c1.539-0.785,3.317-1.386,5.329-1.786l0.035-6.817
	c0.006-0.187,0.038-0.341,0.111-0.474c0.073-0.123,0.216-0.25,0.42-0.374c0.218-0.123,0.511-0.219,0.876-0.299
	c0.368-0.076,0.857-0.146,1.467-0.2c0.727-0.066,1.329-0.085,1.816-0.059c0.485,0.026,0.865,0.085,1.129,0.188
	c0.275,0.103,0.445,0.248,0.538,0.437c0.089,0.2,0.149,0.426,0.174,0.666l-0.075,6.418c0.655,0.034,1.36,0.087,2.095,0.185
	c0.744,0.093,1.444,0.216,2.087,0.367c0.657,0.159,1.25,0.328,1.788,0.521c0.538,0.184,0.917,0.367,1.127,0.545
	c0.222,0.167,0.384,0.349,0.509,0.522c0.129,0.186,0.234,0.408,0.323,0.691c0.085,0.269,0.153,0.609,0.218,0.997
	c0.061,0.387,0.117,0.833,0.166,1.351c0.068,0.699,0.113,1.272,0.121,1.724s-0.03,0.803-0.105,1.041
	c-0.061,0.246-0.153,0.405-0.263,0.496c-0.113,0.091-0.242,0.138-0.408,0.152c-0.299,0.027-0.768-0.068-1.37-0.315
	c-0.616-0.236-1.363-0.479-2.258-0.747c-0.881-0.255-1.893-0.478-3.035-0.675c-1.129-0.188-2.363-0.229-3.705-0.107
	c-1.208,0.107-2.238,0.315-3.091,0.611c-0.836,0.307-1.501,0.677-1.998,1.141c-0.499,0.448-0.846,0.968-1.057,1.552
	c-0.198,0.573-0.267,1.204-0.202,1.881c0.101,1.043,0.477,1.914,1.131,2.57c0.658,0.672,1.495,1.212,2.513,1.64
	c1.021,0.429,2.166,0.8,3.429,1.115c1.274,0.313,2.563,0.648,3.889,1.004c1.313,0.355,2.622,0.795,3.903,1.304
	c1.293,0.499,2.457,1.169,3.501,1.988c1.044,0.822,1.931,1.853,2.643,3.086C113.32,347.881,113.77,349.401,113.949,351.225
	L113.949,351.225z M209.802,261.563c0,1.133-0.108,2.028-0.319,2.689c-0.197,0.661-0.488,1.162-0.844,1.518
	c-0.355,0.37-0.885,0.74-1.568,1.107c-0.687,0.37-1.515,0.726-2.505,1.043c-0.989,0.315-2.125,0.58-3.401,0.79
	c-1.281,0.213-2.691,0.317-4.234,0.317c-2.914,0-5.487-0.382-7.729-1.119c-2.238-0.754-4.153-1.835-5.75-3.233
	c-1.592-1.41-2.9-3.126-3.887-5.186c-0.99-2.044-1.701-4.365-2.138-6.964h-3.717c-0.384,0-0.687-0.25-0.926-0.764
	c-0.222-0.502-0.343-1.346-0.343-2.52c0-0.595,0.016-1.096,0.053-1.519c0.04-0.407,0.104-0.737,0.197-0.976
	c0.093-0.25,0.198-0.435,0.344-0.542c0.146-0.118,0.315-0.184,0.529-0.184h3.427c0-0.384,0-0.792-0.013-1.212
	c-0.012-0.425-0.012-0.845-0.012-1.255c0-0.516,0-1.029,0.012-1.529c0.013-0.502,0.013-0.989,0.013-1.451h-3.427
	c-0.396,0-0.675-0.239-0.86-0.712c-0.17-0.477-0.263-1.319-0.263-2.534c0-0.618,0.028-1.133,0.093-1.543
	c0.064-0.409,0.157-0.738,0.278-0.989c0.105-0.236,0.251-0.409,0.396-0.515c0.157-0.105,0.327-0.158,0.501-0.158h3.979
	c0.514-2.465,1.269-4.736,2.271-6.78c0.986-2.043,2.255-3.813,3.822-5.302c1.556-1.478,3.419-2.625,5.593-3.43
	c2.174-0.817,4.719-1.226,7.636-1.226c1.346,0,2.635,0.104,3.875,0.288c1.253,0.198,2.388,0.448,3.39,0.766
	c1.002,0.304,1.835,0.62,2.493,0.937c0.658,0.331,1.119,0.607,1.41,0.832c0.279,0.236,0.489,0.474,0.618,0.726
	c0.121,0.236,0.227,0.539,0.308,0.895c0.076,0.372,0.145,0.821,0.193,1.373c0.057,0.556,0.081,1.241,0.081,2.032
	c0,0.697-0.024,1.268-0.081,1.699c-0.049,0.438-0.142,0.793-0.246,1.072c-0.121,0.262-0.267,0.448-0.437,0.553
	c-0.157,0.105-0.344,0.158-0.554,0.158c-0.408,0-0.896-0.187-1.45-0.542c-0.554-0.368-1.24-0.751-2.045-1.188
	c-0.82-0.42-1.781-0.802-2.917-1.145c-1.131-0.359-2.465-0.528-3.979-0.528c-1.451,0-2.703,0.198-3.786,0.594
	c-1.083,0.408-2.017,0.99-2.809,1.767c-0.779,0.764-1.426,1.701-1.91,2.784c-0.489,1.081-0.857,2.297-1.124,3.666h10.59
	c0.187,0,0.356,0.053,0.529,0.158c0.158,0.105,0.304,0.278,0.393,0.515c0.108,0.251,0.202,0.58,0.254,0.989
	c0.065,0.41,0.105,0.925,0.105,1.543c0,1.215-0.121,2.058-0.359,2.534c-0.223,0.473-0.538,0.712-0.922,0.712h-11.354
	c-0.028,0.421-0.052,0.832-0.064,1.252c-0.012,0.437-0.012,0.897-0.012,1.413c0,0.475,0,0.923,0.012,1.371
	c0.013,0.461,0.036,0.925,0.064,1.411h11.354c0.187,0,0.356,0.065,0.529,0.184c0.158,0.107,0.304,0.292,0.393,0.542
	c0.108,0.238,0.202,0.568,0.254,0.976c0.065,0.423,0.105,0.924,0.105,1.519c0,1.174-0.121,2.018-0.359,2.52
	c-0.223,0.514-0.538,0.764-0.922,0.764h-10.626c0.21,1.305,0.554,2.493,1.055,3.536c0.484,1.041,1.131,1.924,1.936,2.638
	c0.82,0.726,1.806,1.278,2.981,1.663c1.172,0.396,2.569,0.58,4.194,0.58c1.515,0,2.836-0.172,3.955-0.542
	c1.119-0.355,2.098-0.751,2.913-1.2c0.833-0.435,1.52-0.831,2.073-1.187c0.554-0.369,1.014-0.541,1.369-0.541
	c0.211,0,0.396,0.04,0.57,0.146c0.157,0.104,0.303,0.303,0.42,0.605c0.117,0.292,0.198,0.7,0.251,1.227
	C209.773,259.978,209.802,260.691,209.802,261.563L209.802,261.563z M146.582,326.777c-0.595,0-1.188-0.015-1.774-0.046
	c-5.24-14.748-17.106-26.354-32.021-31.228c-0.064-0.869-0.101-1.746-0.101-2.631c0-18.721,15.18-33.905,33.896-33.905
	c0.48,0,0.961,0.012,1.438,0.032c5.015,15.281,17.12,27.354,32.421,32.316c0.024,0.516,0.036,1.034,0.036,1.557
	C180.477,311.596,165.301,326.777,146.582,326.777L146.582,326.777z M136.646,299.422c0,1.718,0.318,3.229,0.957,4.531
	c0.639,1.295,1.508,2.38,2.603,3.243c1.095,0.873,2.376,1.519,3.838,1.96c1.467,0.438,3.039,0.654,4.703,0.654
	c1.128,0,2.182-0.087,3.147-0.274c0.966-0.183,1.818-0.406,2.562-0.665c0.744-0.269,1.362-0.535,1.863-0.829
	c0.492-0.285,0.856-0.535,1.07-0.759c0.223-0.215,0.38-0.536,0.465-0.939c0.097-0.415,0.138-1.011,0.138-1.787
	c0-0.527-0.017-0.958-0.041-1.312c-0.036-0.354-0.097-0.646-0.166-0.863c-0.076-0.216-0.182-0.371-0.311-0.466
	c-0.121-0.093-0.267-0.138-0.44-0.138c-0.23,0-0.569,0.138-0.998,0.414c-0.424,0.276-0.978,0.589-1.656,0.923
	c-0.675,0.336-1.475,0.647-2.408,0.925c-0.938,0.274-2.017,0.414-3.253,0.414c-0.808,0-1.535-0.095-2.174-0.285
	c-0.638-0.198-1.18-0.476-1.628-0.829c-0.44-0.354-0.784-0.785-1.019-1.312c-0.242-0.524-0.355-1.104-0.355-1.741
	c0-0.744,0.202-1.383,0.606-1.908c0.404-0.535,0.934-1.009,1.579-1.414c0.425-0.273,0.894-0.536,1.398-0.786h11.272
	c0.162,0,0.3-0.182,0.3-0.404v-1.613c0-0.22-0.138-0.401-0.3-0.401h-23.43c-0.166,0-0.302,0.182-0.302,0.401v1.613
	c0,0.223,0.136,0.404,0.302,0.404h2.206C136.82,297.112,136.646,298.193,136.646,299.422L136.646,299.422z M134.97,289.229h10.966
	l0.311-0.133c0.845-0.354,1.596-0.741,2.259-1.158c0.662-0.412,1.2-0.888,1.596-1.412c0.396-0.536,0.594-1.166,0.594-1.89
	c0-0.484-0.093-0.95-0.267-1.39c-0.182-0.441-0.448-0.811-0.812-1.122c-0.36-0.31-0.809-0.56-1.354-0.733
	c-0.533-0.182-1.164-0.267-1.888-0.267c-0.933,0-1.777,0.11-2.553,0.343c-0.776,0.227-1.459,0.477-2.045,0.76
	c-0.594,0.277-1.087,0.535-1.491,0.768c-0.407,0.235-0.698,0.354-0.889,0.354c-0.182,0-0.327-0.049-0.44-0.154
	c-0.113-0.094-0.197-0.259-0.25-0.474c-0.061-0.227-0.105-0.501-0.13-0.836c-0.028-0.338-0.036-0.753-0.036-1.235
	c0-0.438,0.008-0.811,0.021-1.104c0.016-0.294,0.048-0.534,0.093-0.731c0.045-0.19,0.089-0.347,0.146-0.468
	c0.061-0.121,0.174-0.258,0.348-0.43c0.161-0.166,0.509-0.38,1.034-0.631s1.119-0.483,1.794-0.683
	c0.675-0.207,1.397-0.362,2.174-0.481c0.775-0.121,1.552-0.174,2.319-0.174c1.503,0,2.925,0.19,4.263,0.577
	c1.337,0.389,2.501,0.975,3.482,1.763c0.994,0.776,1.778,1.767,2.355,2.948c0.578,1.19,0.873,2.572,0.873,4.133
	c0,1.374-0.198,2.539-0.606,3.521c-0.048,0.116-0.097,0.23-0.149,0.341h1.713c0.162,0,0.3,0.185,0.3,0.404v1.613
	c0,0.22-0.138,0.402-0.3,0.402h-23.43c-0.166,0-0.302-0.183-0.302-0.402v-1.613C134.668,289.413,134.804,289.229,134.97,289.229
	L134.97,289.229z M62.242,255.213l-8.501-2.748c2.319,8.338,4.638,16.674,6.959,25.011c1.768,6.219,5.538,7.029,9.784,2.979
	l20.113-16.072l-8.497-2.746l0.008-0.125c9.968-19.78,28.752-34.506,51.467-38.724c14.352-2.663,14.267-23.025-1.562-20.476
	c-30.804,4.96-56.236,24.936-69.065,51.86C62.63,254.587,62.387,254.942,62.242,255.213L62.242,255.213z"/>
</svg>
