<?xml version="1.0" encoding="utf-8"?>
<!-- Generator: Adobe Illustrator 16.0.0, SVG Export Plug-In . SVG Version: 6.00 Build 0)  -->
<!DOCTYPE svg PUBLIC "-//W3C//DTD SVG 1.1//EN" "http://www.w3.org/Graphics/SVG/1.1/DTD/svg11.dtd">
<svg version="1.1" id="Layer_1" xmlns="http://www.w3.org/2000/svg" xmlns:xlink="http://www.w3.org/1999/xlink" x="0px" y="0px"
	 width="216px" height="410px" viewBox="0 0 216 410" enable-background="new 0 0 216 410" xml:space="preserve">
<path id="d7b262" fill-rule="evenodd" clip-rule="evenodd" fill="#D1AE69" d="M139.21,309.792H216v11.98h-6.586h-70.605v11.231H216
	v16.021h-77.191v27.848h25.154H216v10.381h-76.79c-6.39,0-11.618-5.21-11.618-11.58v-26.648v-16.021v-11.631
	C127.592,315.004,132.82,309.792,139.21,309.792L139.21,309.792z M216,228.855v64.515c-2.294,0.699-4.011-0.738-4.859-3.952
	l-6.937-19.215l6.907,1.677c3.365-16.752-4.989-33.347-19.688-40.956c-7.979-4.578-1.097-18.493,7.909-14.612
	C205.825,219.305,211.457,223.603,216,228.855L216,228.855z M64.581,200.573h89.673c6.388,0,11.608,5.207,11.608,11.569v54.26
	c0,6.364-5.221,11.57-11.608,11.57H64.581c-6.383,0-11.608-5.206-11.608-11.57v-54.26C52.973,205.78,58.198,200.573,64.581,200.573
	L64.581,200.573z M66.64,226.85h22.13v16.856H66.64V226.85L66.64,226.85z M94.92,369.473c-21.369-9.849-33.417-33.816-27.919-59.484
	l-6.908-1.675c5.048-4.667,10.096-9.335,15.145-14.002c3.791-3.467,6.684-2.446,7.875,2.053l6.935,19.217l-6.907-1.675
	c-3.368,16.751,4.993,33.346,19.688,40.954C110.809,359.437,103.926,373.354,94.92,369.473L94.92,369.473z"/>
</svg>
