<?xml version="1.0" encoding="utf-8"?>
<!DOCTYPE svg PUBLIC "-//W3C//DTD SVG 1.1//EN" "http://www.w3.org/Graphics/SVG/1.1/DTD/svg11.dtd">
<svg version="1.1" xmlns="http://www.w3.org/2000/svg" xmlns:xlink="http://www.w3.org/1999/xlink" x="0px" y="0px" width="216px" height="216px" viewBox="0 0 216 216" enable-background="new 0 0 216 216" xml:space="preserve">
<g>
	<path fill-rule="evenodd" clip-rule="evenodd" d="M103.587,152.396c0.386-1.24,1.629-1.391,2.787-1.281h5.696
		c1.717,0.02,2.342,1.266,1.107,2.52l-3.734,4.771c-1.629,2.273-3.38,4.805-5.299,6.834c-1.122,1.188-2.589,2.488-4.31,2.561
		c-1.707,0.07-3.228-1.084-4.411-2.189c-2.053-1.914-3.966-4.443-5.674-6.674c-9.476-12.678-20.67-24.451-28.406-38.322
		c-5.05-9.057-8.271-18.536-8.59-28.993c-0.796-26.054,21.342-46.064,46.838-46.064c25.624,0,47.562,20.087,47.972,46.042
		c0.109,6.836-0.838,13.759-3.438,20.117c-0.547,1.34-0.994,1.74-2.428,1.801h-5.068c-0.471,0.01-1.133,0.143-1.496-0.232
		c-0.434-0.449-0.1-1.188,0.125-1.654c3.018-6.219,4.369-13.018,4.26-19.915c-0.111-7.067-2.211-13.912-6.02-19.861
		c-7.414-11.584-20.201-18.32-33.907-18.32c-13.193,0-25.812,6.322-33.062,17.459c-3.931,6.04-5.954,13.197-5.733,20.403
		c0.322,10.513,4.176,19.822,9.601,28.656c7.618,12.404,17.935,22.99,26.98,34.342c0.341,0.443,1.75,2.414,2.38,2.402
		c0.653-0.014,2.142-2.264,2.486-2.744l0.008-0.012L103.587,152.396L103.587,152.396z M74.332,105.303h50.191
		c1.117,0,2.031,0.913,2.031,2.032v4.628c0,1.117-0.914,2.031-2.031,2.031H74.332c-1.119,0-2.031-0.914-2.031-2.031v-4.628
		C72.301,106.216,73.213,105.303,74.332,105.303L74.332,105.303z M76.025,100.497V84.321c0-1.118,0.914-2.032,2.032-2.032h4.083
		c1.118,0,2.031,0.914,2.031,2.032v16.176c0,1.118-0.914,2.032-2.031,2.032h-4.083C76.938,102.529,76.025,101.616,76.025,100.497
		L76.025,100.497z M88.765,100.497V84.321c0-1.118,0.914-2.032,2.032-2.032h4.084c1.118,0,2.031,0.914,2.031,2.032v16.176
		c0,1.118-0.914,2.032-2.031,2.032h-4.084C89.678,102.529,88.765,101.616,88.765,100.497L88.765,100.497z M101.777,100.497V84.321
		c0-1.118,0.914-2.032,2.031-2.032h4.084c1.118,0,2.032,0.914,2.032,2.032v16.176c0,1.118-0.914,2.032-2.032,2.032h-4.084
		C102.69,102.529,101.777,101.616,101.777,100.497L101.777,100.497z M115.076,100.497V84.321c0-1.118,0.914-2.032,2.031-2.032h4.084
		c1.117,0,2.031,0.914,2.031,2.032v16.176c0,1.118-0.914,2.032-2.031,2.032h-4.084C115.988,102.529,115.076,101.616,115.076,100.497
		L115.076,100.497z M108.12,118.633h49.177c1.137,0,2,0.982,2,2.098v2.703c0,1.115-0.863,2.098-2,2.098h-49.176
		c-1.138,0-2-0.982-2-2.098l0-2.703C106.12,119.615,106.982,118.633,108.12,118.633L108.12,118.633z M108.12,129.117h49.177
		c1.137,0,2,0.982,2,2.098v2.703c0,1.115-0.863,2.098-2,2.098h-49.176c-1.138,0-2-0.982-2-2.098l0-2.703
		C106.12,130.1,106.982,129.117,108.12,129.117L108.12,129.117z M108.12,139.924h49.177c1.137,0,2,0.982,2,2.096v2.705
		c0,1.113-0.863,2.098-2,2.098h-49.176c-1.138,0-2-0.982-2-2.098l0-2.705C106.12,140.906,106.982,139.924,108.12,139.924
		L108.12,139.924z M99.288,58.967c0.389-0.01,0.774,0.091,1.108,0.291l27.608,16.575c0.975,0.584,1.158,1.855,0.543,2.775
		l-1.859,2.783c-0.613,0.917-1.883,1.204-2.828,0.645l-24.569-14.49l-24.57,14.76c-0.944,0.567-2.261,0.295-2.842-0.66l-1.86-3.054
		c-0.566-0.93-0.423-2.173,0.553-2.759L98.18,59.258C98.513,59.058,98.9,58.957,99.288,58.967L99.288,58.967z"/>
    
	<polygon fill="none" stroke-width="0.5669" stroke-miterlimit="22.9256" points="-0.716,-1.251 215.283,-1.251 215.283,214.748 -0.716,214.748 -0.716,-1.251"/>
</g>
</svg>
