<?xml version="1.0" encoding="utf-8"?>
<!DOCTYPE svg PUBLIC "-//W3C//DTD SVG 1.1//EN" "http://www.w3.org/Graphics/SVG/1.1/DTD/svg11.dtd">
<svg version="1.1" xmlns="http://www.w3.org/2000/svg" xmlns:xlink="http://www.w3.org/1999/xlink" x="0px" y="0px" width="216px" height="216px" viewBox="0 0 216 216" enable-background="new 0 0 216 216" xml:space="preserve">
<g id="nadhod">
	<g>
		<path fill-rule="evenodd" clip-rule="evenodd" d="M79.628,42.474V57.51c-0.412,2.827-1.379,4.759-4.506,4.93
			c-4.489,0.247-9.013,0-13.519,0c-8.522,0.037-13.714-0.169-0.681,4.718l40.749,15.28c9.655,3.622,8.857,3.612,18.515-0.007
			c13.385-5.021,26.772-10.04,40.16-15.06c11.914-4.468,6.002-4.906,0.843-4.931c-4.752,0-9.504,0-14.255,0
			c-4.268-0.807-4.902-2.545-4.729-4.93c0-4.745,0-9.491,0-14.235c0-4.005-2.236-4.302-5.01-4.302H83.889
			C80.259,39.179,79.628,39.126,79.628,42.474L79.628,42.474z M44.963,91.062h131.803c6.621,0,12.035,5.426,12.035,12.036v56.441
			c0,6.611-5.425,12.035-12.035,12.035H44.963c-6.61,0-12.036-5.416-12.036-12.035V131.84v-16.65v-12.091
			C32.928,96.478,38.344,91.062,44.963,91.062L44.963,91.062z M185.031,149.781v3.596c-0.854-0.155,1.841-0.235-2.631-0.235
			c-4.476,0-14.586,6.483-14.674,14.511h-9.741l0.002-0.117h-41.252c-1.783,0.286-3.613,0.44-5.48,0.44
			c-1.866,0-3.696-0.154-5.481-0.44H65.044l0.003,0.119h-9.741c-0.087-8.029-10.2-14.513-14.673-14.513
			c-4.474,0-1.777,0.082-2.632,0.236v-3.597v-6.236v-22.383v-9.834h5.262c6.796-1.23,11.966-7.143,12.043-14.275h1.761h7.98h92.938
			v-0.001h9.741c0.077,7.135,5.248,13.048,12.045,14.276h5.253h0.007l0,0h0.058v38.453H185.031L185.031,149.781z M175.029,120.171
			c-6.939-2.195-12.538-7.408-15.257-14.1h-28.264c8.494,6.236,14.013,16.293,14.013,27.638c0,9.76-4.084,18.566-10.633,24.809
			h24.932c2.734-6.636,8.31-11.801,15.209-13.985V120.171L175.029,120.171z M91.002,106.071H63.26
			c-2.712,6.671-8.287,11.876-15.2,14.081v24.401c6.872,2.195,12.422,7.348,15.151,13.964h24.41
			c-6.55-6.242-10.631-15.049-10.631-24.809C76.99,122.364,82.506,112.308,91.002,106.071L91.002,106.071z M95.302,142.734
			c0,2.538,0.471,4.769,1.414,6.693c0.943,1.913,2.231,3.519,3.849,4.792c1.62,1.287,3.506,2.244,5.674,2.895
			c2.166,0.65,4.485,0.969,6.947,0.969c1.67,0,3.225-0.128,4.651-0.407c1.43-0.269,2.689-0.6,3.787-0.983
			c1.097-0.394,2.012-0.79,2.754-1.224c0.724-0.42,1.261-0.789,1.579-1.12c0.332-0.319,0.561-0.792,0.688-1.389
			c0.143-0.613,0.207-1.491,0.207-2.641c0-0.777-0.027-1.414-0.064-1.938c-0.052-0.522-0.143-0.956-0.245-1.274
			c-0.113-0.318-0.267-0.548-0.458-0.688c-0.179-0.139-0.396-0.204-0.649-0.204c-0.345,0-0.84,0.204-1.48,0.611
			c-0.623,0.409-1.439,0.867-2.445,1.366c-0.996,0.497-2.181,0.955-3.558,1.363c-1.388,0.407-2.98,0.611-4.806,0.611
			c-1.198,0-2.268-0.141-3.212-0.421c-0.943-0.293-1.747-0.7-2.409-1.225c-0.649-0.521-1.16-1.16-1.504-1.938
			c-0.356-0.776-0.523-1.631-0.523-2.573c0-1.097,0.294-2.04,0.893-2.818c0.601-0.79,1.377-1.491,2.332-2.091
			c0.632-0.403,1.323-0.789,2.066-1.159h16.661c0.244,0,0.442-0.268,0.442-0.598v-2.381c0-0.327-0.198-0.597-0.442-0.597H92.823
			c-0.244,0-0.444,0.27-0.444,0.597v2.381c0,0.33,0.201,0.598,0.444,0.598h3.263C95.558,139.322,95.302,140.917,95.302,142.734
			L95.302,142.734z M92.823,127.674h16.206l0.46-0.197c1.249-0.522,2.358-1.096,3.338-1.708c0.982-0.612,1.772-1.313,2.358-2.091
			c0.586-0.791,0.881-1.722,0.881-2.791c0-0.714-0.14-1.401-0.396-2.053c-0.269-0.65-0.662-1.199-1.197-1.656
			c-0.535-0.461-1.199-0.83-2.003-1.084c-0.789-0.267-1.721-0.396-2.79-0.396c-1.378,0-2.626,0.166-3.773,0.51
			c-1.148,0.331-2.155,0.701-3.021,1.122c-0.879,0.407-1.606,0.79-2.206,1.134c-0.6,0.346-1.033,0.524-1.313,0.524
			c-0.268,0-0.483-0.078-0.649-0.231c-0.167-0.14-0.293-0.381-0.371-0.7c-0.089-0.331-0.152-0.74-0.191-1.235
			c-0.038-0.498-0.051-1.11-0.051-1.824c0-0.651,0.013-1.198,0.025-1.632c0.026-0.434,0.077-0.789,0.141-1.082
			c0.063-0.283,0.127-0.512,0.217-0.689c0.089-0.18,0.255-0.383,0.51-0.638c0.243-0.241,0.752-0.562,1.53-0.929
			c0.777-0.371,1.657-0.715,2.65-1.008c0.995-0.307,2.066-0.536,3.212-0.715c1.146-0.178,2.296-0.254,3.43-0.254
			c2.218,0,4.321,0.28,6.296,0.854c1.975,0.572,3.696,1.439,5.15,2.601c1.466,1.148,2.628,2.612,3.48,4.359
			c0.854,1.759,1.288,3.799,1.288,6.104c0,2.029-0.294,3.749-0.892,5.201c-0.072,0.171-0.147,0.339-0.222,0.504h2.528
			c0.244,0,0.442,0.271,0.442,0.598v2.382c0,0.327-0.198,0.596-0.442,0.596H92.823c-0.243,0-0.444-0.269-0.444-0.596v-2.382
			C92.379,127.945,92.579,127.674,92.823,127.674L92.823,127.674z"/>
	</g>
</g>
</svg>
