<?xml version="1.0" encoding="utf-8"?>
<!DOCTYPE svg PUBLIC "-//W3C//DTD SVG 1.1//EN" "http://www.w3.org/Graphics/SVG/1.1/DTD/svg11.dtd">
<svg version="1.1" xmlns="http://www.w3.org/2000/svg" xmlns:xlink="http://www.w3.org/1999/xlink" x="0px" y="0px" width="100px"
	 height="100px" viewBox="0 0 100 100" enable-background="new 0 0 100 100" xml:space="preserve">
<g>
		<path fill-rule="evenodd" clip-rule="evenodd" d="M27.425,33.458l23.649-15.357l0.002,0.004l0.003-0.004
			l23.648,15.357v2.18h-3.222l-20.43-13.269L30.647,35.638h-3.223V33.458L27.425,33.458z M29.243,58.235h43.638v3.58H29.243V58.235
			L29.243,58.235z M63.937,52.307h1.949v-12.31h-1.949v-3.583h7.083v3.583h-1.554v12.31h1.554v3.579h-7.083V52.307L63.937,52.307z
			 M31.196,52.307h1.948v-12.31h-1.948v-3.583h7.085v3.583h-1.554v12.31h1.554v3.579h-7.085V52.307L31.196,52.307z M42.109,52.307
			h1.949v-12.31h-1.949v-3.583h7.084v3.583H47.64v12.31h1.554v3.579h-7.084V52.307L42.109,52.307z M53.022,52.307h1.949v-12.31
			h-1.949v-3.583h7.085v3.583h-1.556v12.31h1.556v3.579h-7.085V52.307L53.022,52.307z"/>
		<path fill-rule="evenodd" clip-rule="evenodd" d="M51.104,25.86c2.133,0,3.862,1.8,3.862,4.018
			c0,2.219-1.729,4.019-3.862,4.019c-2.134,0-3.863-1.8-3.863-4.019C47.241,27.66,48.971,25.86,51.104,25.86L51.104,25.86z"/>
		<path fill-rule="evenodd" clip-rule="evenodd" d="M50.745,6.465c20.14,0,36.164,16.692,36.474,37.271
			c0.358,23.895-19.326,27.689-30.435,43.995c-6.545,9.611-5.554,10.302-12.733,0.43c-11.619-15.973-29.063-19.813-29.78-44.424
			C13.671,23.163,30.604,6.465,50.745,6.465L50.745,6.465z M50.316,87.475c0.635-0.95,1.264-1.905,1.907-2.851
			c10.995-16.138,29.799-19.367,29.479-40.805c-0.258-17.134-13.431-31.836-30.957-31.836c-17.196,0-31.462,14.316-30.959,31.592
			c0.652,22.375,16.631,24.711,28.728,41.34C48.937,85.495,49.604,86.48,50.316,87.475L50.316,87.475z"/>
</g>

</svg>
