<?xml version="1.0" encoding="utf-8"?>
<!DOCTYPE svg PUBLIC "-//W3C//DTD SVG 1.1//EN" "http://www.w3.org/Graphics/SVG/1.1/DTD/svg11.dtd">
<svg version="1.1" xmlns="http://www.w3.org/2000/svg" xmlns:xlink="http://www.w3.org/1999/xlink" x="0px" y="0px" width="216px" height="216px" viewBox="0 0 216 216" enable-background="new 0 0 216 216" xml:space="preserve">
<g id="bar">
		<path fill-rule="evenodd" clip-rule="evenodd" d="M153.49,69.864l0.312-30.817c0-7.313-8.603-13.244-19.21-13.244
			c-6.878,0-12.914,2.494-16.152,6.158c-2.935,3.521-8.627,5.938-15.139,5.938c-2.816,0-5.48-0.453-7.53-1.164
			c-3.912-1.28-8.677-2.054-13.718-2.054c-17.439,0-31.582,9.254-31.582,20.666L50.4,69.897l11.603,0.073l0.151-14.624
			c0-4.96,8.911-8.984,19.899-8.984c3.777,0,7.309,0.476,10.698,1.104c3.54,0.772,6.968,1.304,10.55,1.304
			c9.932,0,18.408-3.078,22.952-9.724c0.739-1.08,3.626-3.174,8.229-3.174c4.604,0,8.467,1.464,8.437,4.16l-0.332,29.832H153.49
			L153.49,69.864z M162.244,76.595h17.813c6.53,0,11.874,5.344,11.874,11.875v53.382c0,6.532-5.344,11.877-11.874,11.877h-17.813
			v-14.845h15.135V90.857h-15.135V76.595L162.244,76.595z M51.345,76.013h101.292v99.488c0,8.356-6.837,15.194-15.194,15.194H66.539
			c-8.357,0-15.194-6.838-15.194-15.194V76.013L51.345,76.013z M73.176,94.06h1.164c3.042,0,5.53,2.488,5.53,5.53v67.237
			c0,3.042-2.488,5.53-5.53,5.53h-1.164c-3.042,0-5.53-2.488-5.53-5.53V99.59C67.646,96.547,70.134,94.06,73.176,94.06L73.176,94.06
			z M101.41,94.06h1.164c3.042,0,5.53,2.488,5.53,5.53v67.237c0,3.042-2.488,5.53-5.53,5.53h-1.164c-3.042,0-5.531-2.488-5.531-5.53
			V99.59C95.878,96.547,98.367,94.06,101.41,94.06L101.41,94.06z M129.644,94.06h1.164c3.042,0,5.531,2.488,5.531,5.53v67.237
			c0,3.042-2.489,5.53-5.531,5.53h-1.164c-3.042,0-5.531-2.488-5.531-5.53V99.59C124.112,96.547,126.602,94.06,129.644,94.06
			L129.644,94.06z"/>
</g>

</svg>
