<?xml version="1.0" encoding="utf-8"?>
<!DOCTYPE svg PUBLIC "-//W3C//DTD SVG 1.1//EN" "http://www.w3.org/Graphics/SVG/1.1/DTD/svg11.dtd">
<svg version="1.1" xmlns="http://www.w3.org/2000/svg" xmlns:xlink="http://www.w3.org/1999/xlink" x="0px" y="0px" width="216px" height="216px" viewBox="0 0 216 216" enable-background="new 0 0 216 216" xml:space="preserve">
<g id="restaraunt">
	<g>
		
			<path fill-rule="evenodd" clip-rule="evenodd" stroke="#231F20" stroke-width="0.5669" stroke-miterlimit="22.9256" d="
			M62.554,105.717h15.807v66.148c0,3.478-2.845,6.323-6.323,6.323h-3.162c-3.478,0-6.323-2.846-6.323-6.323V105.717L62.554,105.717z
			 M106.936,105.717h15.807v66.148c0,3.478-2.846,6.323-6.323,6.323h-3.162c-3.477,0-6.322-2.846-6.322-6.323V105.717
			L106.936,105.717z M154.357,105.717h15.808v66.148c0,3.478-2.847,6.323-6.324,6.323h-3.161c-3.478,0-6.322-2.846-6.322-6.323
			V105.717L154.357,105.717z M150.323,101.097h18.504V25c-10.57,1.649-18.726,20.336-18.726,31.351v44.524
			C150.102,100.997,150.201,101.097,150.323,101.097L150.323,101.097z M104.261,62.917h7.6V35.241c0-1.632,1.334-2.967,2.965-2.967
			h1.483c1.634,0,2.969,1.335,2.969,2.967v27.675h7.599V35.241c0-1.632,1.335-2.967,2.967-2.967h1.483
			c1.632,0,2.967,1.335,2.967,2.967v27.675v3.363v7.823c0,6.152-5.033,11.187-11.187,11.187h-3.892v15.686h-7.415V85.29h-3.77
			c-6.153,0-11.188-5.035-11.188-11.187V66.28v-3.363V35.241c0-1.632,1.336-2.967,2.968-2.967h1.483
			c1.632,0,2.967,1.335,2.967,2.967V62.917L104.261,62.917z M73.376,85.481v15.373h-7.053V85.52
			c-9.322-1.433-16.416-8.89-16.416-22.214c0-14.905,8.876-31.518,19.82-31.518c10.944,0,19.82,16.612,19.82,31.518
			C89.548,76.514,82.579,83.957,73.376,85.481L73.376,85.481z"/>
	</g>
</g>

</svg>
