<?xml version="1.0" encoding="utf-8"?>
<!DOCTYPE svg PUBLIC "-//W3C//DTD SVG 1.1//EN" "http://www.w3.org/Graphics/SVG/1.1/DTD/svg11.dtd">
<svg version="1.1" xmlns="http://www.w3.org/2000/svg" xmlns:xlink="http://www.w3.org/1999/xlink" x="0px" y="0px" width="100px"
	 height="100px" viewBox="0 0 100 100" enable-background="new 0 0 100 100" xml:space="preserve">

<g>
		<path fill-rule="evenodd" clip-rule="evenodd" d="M81.857,34.264l-2.561,3.444l1.383,3.559
			c1.209,0.153,2.453,0.231,3.568,0.323l0.211,0.017l6.696,1.074l0.497,4.069c0.201,1.642,0.302,3.296,0.302,4.951
			c0,1.72-0.107,3.44-0.325,5.146l-0.542,4.262l-4.269,0.467c-0.805,0.088-1.61,0.157-2.418,0.224l-3.796,0.525l-1.382,3.558
			c0.819,1.097,1.735,2.163,2.548,3.15l0.136,0.166l3.482,4.98l-2.625,3.191c-2.192,2.666-4.72,5.044-7.511,7.071l-3.619,2.63
			l-3.283-3.039c-0.246-0.228-0.489-0.456-0.732-0.684l-2.9-2.431l-2.954,1.305c-0.125,1.356-0.161,2.754-0.224,4.02l-0.01,0.218
			l-0.616,4.81l-4.169,0.541c-1.736,0.225-3.486,0.337-5.237,0.337c-1.763,0-3.526-0.114-5.276-0.343l-4.514-0.59l-0.236-4.834
			l-0.415-4.24l-2.955-1.306c-0.915,0.794-1.798,1.653-2.604,2.41l-0.156,0.145l-4.305,3.451l-3.367-2.459
			c-2.798-2.044-5.33-4.44-7.521-7.128l-2.782-3.407l2.747-3.437c0.34-0.427,0.687-0.852,1.034-1.272l2.56-3.444l-1.382-3.559
			c-1.209-0.152-2.454-0.231-3.57-0.323l-0.21-0.016l-6.694-1.076l-0.498-4.066c-0.202-1.643-0.303-3.298-0.303-4.952
			c0-1.72,0.108-3.44,0.325-5.147l0.543-4.26l4.268-0.468c0.805-0.088,1.61-0.158,2.416-0.223l3.797-0.526l1.382-3.558
			c-0.819-1.096-1.734-2.162-2.548-3.15l-0.136-0.166l-3.481-4.979l2.625-3.193c2.191-2.664,4.72-5.042,7.51-7.07l3.619-2.629
			l3.284,3.039c0.245,0.226,0.49,0.454,0.733,0.682l2.899,2.431l2.954-1.305c0.125-1.357,0.164-2.752,0.223-4.019l0.011-0.218
			l0.617-4.809l4.168-0.54c1.736-0.225,3.487-0.338,5.237-0.338c1.765,0,3.527,0.114,5.276,0.342l4.515,0.59l0.234,4.834
			l0.417,4.239l2.954,1.306c0.914-0.792,1.797-1.653,2.602-2.409l0.157-0.146l4.304-3.449l3.367,2.457
			c2.8,2.044,5.332,4.443,7.522,7.127l2.781,3.409l-2.746,3.438C82.55,33.418,82.204,33.841,81.857,34.264L81.857,34.264z
			 M56.079,16.999l0.02,0.42l0.738,7.539l8.782,3.879c1.881-1.177,3.776-2.983,5.615-4.708l0.887-0.711
			c2.428,1.771,4.617,3.848,6.515,6.171c-0.348,0.436-0.708,0.875-1.071,1.316l-4.437,5.968l3.558,9.159
			c2.111,0.593,4.659,0.784,7.118,0.985l2.44,0.392c0.172,1.406,0.263,2.837,0.263,4.29c0,1.51-0.096,3-0.282,4.46
			c-0.783,0.085-1.597,0.153-2.419,0.221l-7.12,0.987l-3.558,9.157c1.116,1.981,2.816,4.001,4.437,5.968l0.99,1.416
			c-1.896,2.309-4.084,4.367-6.503,6.125c-0.271-0.253-0.544-0.507-0.817-0.763l-5.615-4.708l-8.782,3.878
			c-0.515,2.244-0.613,4.941-0.738,7.54l-0.054,0.425c-1.485,0.192-3,0.292-4.537,0.292c-1.549,0-3.074-0.102-4.571-0.296
			l-0.02-0.421l-0.738-7.54l-8.782-3.878c-1.882,1.177-3.777,2.982-5.617,4.708l-0.886,0.71c-2.426-1.771-4.616-3.848-6.513-6.172
			c0.347-0.436,0.707-0.874,1.07-1.315l4.436-5.968l-3.558-9.158c-2.11-0.595-4.659-0.785-7.117-0.987l-2.44-0.391
			c-0.171-1.406-0.262-2.839-0.262-4.29c0-1.51,0.096-2.999,0.282-4.459c0.784-0.085,1.597-0.155,2.42-0.222l7.117-0.985
			l3.558-9.159c-1.116-1.981-2.815-4-4.436-5.968l-0.989-1.417c1.897-2.306,4.083-4.365,6.503-6.122
			c0.271,0.25,0.543,0.504,0.816,0.762l5.617,4.707l8.782-3.879c0.514-2.244,0.614-4.94,0.738-7.539l0.055-0.425
			c1.485-0.192,2.999-0.292,4.536-0.292C53.058,16.702,54.583,16.803,56.079,16.999L56.079,16.999z M51.508,69.753
			c-9.968,0-18.052-8.085-18.052-18.053c0-9.968,8.084-18.052,18.052-18.052c9.969,0,18.053,8.084,18.053,18.052
			C69.561,61.668,61.477,69.753,51.508,69.753L51.508,69.753z M51.508,66.657c-8.259,0-14.958-6.698-14.958-14.957
			c0-8.26,6.698-14.958,14.958-14.958c8.259,0,14.957,6.698,14.957,14.958C66.465,59.959,59.767,66.657,51.508,66.657L51.508,66.657
			z M51.508,62.089c-5.736,0-10.389-4.652-10.389-10.389c0-5.737,4.653-10.389,10.389-10.389c5.737,0,10.389,4.652,10.389,10.389
			C61.896,57.437,57.245,62.089,51.508,62.089L51.508,62.089z M51.508,58.405c-3.702,0-6.705-3.003-6.705-6.705
			c0-3.702,3.003-6.705,6.705-6.705c3.703,0,6.705,3.003,6.705,6.705C58.213,55.402,55.211,58.405,51.508,58.405L51.508,58.405z"/>
</g>
</svg>
