<?xml version="1.0" encoding="utf-8"?>
<!DOCTYPE svg PUBLIC "-//W3C//DTD SVG 1.1//EN" "http://www.w3.org/Graphics/SVG/1.1/DTD/svg11.dtd">
<svg version="1.1" xmlns="http://www.w3.org/2000/svg" xmlns:xlink="http://www.w3.org/1999/xlink" x="0px" y="0px" width="100px"
	 height="100px" viewBox="0 0 100 100" enable-background="new 0 0 100 100" xml:space="preserve">

<g>
				<path fill-rule="evenodd" clip-rule="evenodd" d="M66.712,11.642l11.193-5.13c0.486-0.223,1.066-0.007,1.289,0.479
			l11.564,25.235c0.223,0.486,0.008,1.066-0.479,1.289l-11.194,5.129c-0.485,0.223-1.065,0.008-1.289-0.479l-1.84-4.017l-1.474,0.69
			c-1.644,0.77-2.938,2.459-4.175,3.786c-2.125,2.277-4.575,5.914-6.729,8.148c-0.627,0.65-1.064,1.033-1.512,1.313l0.03,0.057
			c-0.106,0.066-0.215,0.128-0.327,0.187l-4.854,2.545c0.552,1.293,0.904,2.691,1.017,4.158h11.167c2.496,0,4.537,2.041,4.537,4.537
			v28.302c0,2.496-2.041,4.538-4.537,4.538H19.409c-2.496,0-4.537-2.042-4.537-4.538V59.571c0-2.496,2.042-4.537,4.537-4.537H31.55
			c0.281-3.658,2.052-6.9,4.706-9.122c-0.309-1.067-0.262-2.244,0.217-3.334l5.262-11.986l-8.031,3.861
			c-2.436,1.171-5.388,0.136-6.559-2.3l0,0c-1.171-2.437-0.136-5.388,2.3-6.559l14.019-6.739c0.553-0.265,1.132-0.417,1.711-0.466
			l0,0h0.001c0.154-0.012,0.308-0.018,0.462-0.016c1.753-0.064,3.505-0.167,5.26-0.168c3.115-0.005,6.234,0.345,9.343,0.162
			c1.812-0.106,3.705-0.252,5.347-1.026l2.19-1.034l-1.547-3.375C66.01,12.445,66.226,11.865,66.712,11.642L66.712,11.642z
			 M47.595,62.57c0.106-0.875,0.216-1.589,0.328-2.143c-1.164,0.514-2.204,0.77-3.124,0.77c-0.368,0-0.71-0.056-1.02-0.168
			c-0.314-0.111-0.54-0.271-0.675-0.474c-0.14-0.207-0.201-0.434-0.184-0.688c0.014-0.195,0.061-0.371,0.146-0.527
			c0.126-0.212,0.324-0.434,0.599-0.663c0.211-0.192,0.523-0.46,0.935-0.802h3.759v-0.982h-2.566c0.287-0.238,0.493-0.416,0.62-0.53
			c0.143-0.128,0.273-0.252,0.391-0.371h1.555v-0.979H47.57c0.014-0.026,0.027-0.052,0.039-0.076
			c0.845,0.072,1.713-0.082,2.514-0.503l4.008-2.099c0.458,1.153,0.711,2.41,0.711,3.729c0,5.575-4.523,10.098-10.1,10.098
			c-5.577,0-10.099-4.522-10.099-10.098c0-3.011,1.317-5.711,3.405-7.561c0.289,0.215,0.606,0.4,0.949,0.551l0,0
			c1.401,0.615,2.944,0.518,4.215-0.132c-0.146,0.629-0.17,1.288-0.058,1.939c-0.599,0.044-1.246,0.134-1.941,0.271
			c-0.07,0.598-0.175,1.281-0.313,2.053c0.919-0.344,1.762-0.518,2.52-0.518c0.164,0,0.316,0.01,0.461,0.031
			c0.363,0.556,0.829,1.023,1.359,1.387c-0.01,0.047-0.023,0.097-0.04,0.15c-0.03,0.1-0.076,0.196-0.132,0.292
			c-0.057,0.094-0.156,0.218-0.293,0.371c-0.033,0.036-0.07,0.074-0.111,0.114h-4.733v0.979h3.497l-1.052,0.901h-2.445v0.982h1.347
			c-0.095,0.097-0.183,0.194-0.265,0.29c-0.163,0.195-0.297,0.384-0.394,0.562c-0.098,0.18-0.175,0.363-0.232,0.548
			c-0.057,0.189-0.09,0.386-0.105,0.593c-0.032,0.482,0.049,0.939,0.244,1.367c0.195,0.43,0.496,0.781,0.896,1.058
			c0.402,0.277,0.849,0.471,1.343,0.575c0.494,0.107,1.021,0.158,1.578,0.158c0.369,0,0.798-0.03,1.292-0.093
			C46.13,62.868,46.783,62.748,47.595,62.57L47.595,62.57z M47.384,52.102c-0.268-0.36-0.644-0.652-1.124-0.874
			c-0.03-0.014-0.06-0.027-0.089-0.038c-0.05-0.077-0.096-0.159-0.136-0.243l0,0c-0.518-1.077-0.054-2.368,1.017-2.898l11.725-5.818
			c0.042-0.02,0.083-0.039,0.125-0.057l-0.004-0.008c1.996-1.334,3.323-3.682,3.323-6.355c0-4.152-3.201-7.445-7.146-7.521
			c-2.994-0.057-5.645,1.677-6.599,4.517c-0.005,0.014-0.001,0.027,0.009,0.041l-5.524,12.58c-0.48,1.095-1.769,1.597-2.863,1.116
			l0,0c-1.094-0.48-1.596-1.769-1.116-2.863l8.294-18.89l0.101-0.202c0.037-0.065,0.077-0.127,0.12-0.187l-0.003-0.045l0,0
			l0.703-1.399c0.61-1.213,2.166-1.736,3.456-2.16c1.044-0.342,2.197-0.036,3.294-0.054c2.18-0.036,4.36,0.018,6.536-0.108
			c1.231-0.072,2.486-0.139,3.672-0.486c1.275-0.374,2.464-0.993,3.673-1.553l6.079,13.266c-0.983,0.458-1.967,0.915-2.863,1.519
			c-1.023,0.691-1.875,1.614-2.718,2.518c-1.484,1.594-2.835,3.309-4.252,4.962c-0.715,0.834-1.326,1.771-2.145,2.502
			c-1.191,1.063-1.592,1.773-2.783,2.725l-11.212,5.877C48.439,52.225,47.886,52.253,47.384,52.102L47.384,52.102z M47.011,43.025
			c0.886,0.153,1.74,0.394,2.556,0.714l7.784-3.862c-0.004-0.013-0.004-0.022,0.001-0.026c1.309-0.818,2.188-2.322,2.188-4.042
			c0-2.595-2-4.698-4.464-4.698c-1.627,0-3.049,0.916-3.83,2.284c-0.003,0.005-0.008,0.011-0.014,0.015L47.011,43.025L47.011,43.025
			z M57.846,57.9c-0.466,3.355-2.192,6.311-4.685,8.369h6.433c0.534,0,0.972,0.438,0.972,0.973v1.729
			c0,0.535-0.438,0.972-0.972,0.972H28.918c-0.535,0-0.972-0.437-0.972-0.972v-1.729c0-0.535,0.437-0.973,0.972-0.973h7.405
			c-2.493-2.059-4.219-5.014-4.685-8.369H19.409c-0.919,0-1.671,0.753-1.671,1.671v28.302c0,0.921,0.752,1.672,1.671,1.672h49.691
			c0.919,0,1.672-0.751,1.672-1.672V59.571c0-0.918-0.753-1.671-1.672-1.671H57.846L57.846,57.9z M46.284,21.763l-0.194-0.592
			c-0.468-0.11-0.974-0.068-1.438,0.155l-14.018,6.739c-1.078,0.518-1.535,1.823-1.018,2.9l0,0c0.518,1.077,1.823,1.535,2.9,1.017
			l10.912-5.246l1.338-3.048C45.112,22.901,45.642,22.25,46.284,21.763L46.284,21.763z M69.462,13.397l7.977-3.655L87.529,31.76
			l-7.978,3.656L69.462,13.397L69.462,13.397z M40.106,75.879c0,0.787,0.093,1.315,0.273,1.585c0.138,0.201,0.327,0.298,0.57,0.298
			c0.248,0,0.439-0.097,0.578-0.298c0.178-0.27,0.265-0.798,0.265-1.585c0-0.791-0.087-1.314-0.265-1.579
			c-0.139-0.205-0.33-0.306-0.578-0.306c-0.243,0-0.432,0.099-0.57,0.296C40.199,74.561,40.106,75.088,40.106,75.879L40.106,75.879z
			 M38.297,75.896c0-1.087,0.237-1.892,0.714-2.417c0.477-0.521,1.123-0.782,1.938-0.782c0.843,0,1.503,0.26,1.98,0.781
			c0.477,0.519,0.713,1.325,0.713,2.418c0,1.082-0.237,1.889-0.713,2.41c-0.477,0.525-1.123,0.785-1.938,0.785
			c-0.843,0-1.503-0.26-1.98-0.779C38.535,77.791,38.297,76.984,38.297,75.896L38.297,75.896z M40.779,85.48h-1.717l9.052-12.783
			h1.67L40.779,85.48L40.779,85.48z M48.28,82.289c0,0.786,0.09,1.313,0.271,1.579c0.138,0.204,0.33,0.306,0.572,0.306
			c0.249,0,0.437-0.1,0.57-0.296c0.18-0.271,0.271-0.803,0.271-1.589c0-0.787-0.087-1.316-0.262-1.584
			c-0.138-0.2-0.33-0.3-0.578-0.3c-0.248,0-0.44,0.1-0.572,0.3C48.37,80.973,48.28,81.502,48.28,82.289L48.28,82.289z
			 M46.469,82.298c0-1.087,0.24-1.891,0.717-2.412c0.477-0.525,1.128-0.787,1.954-0.787c0.83,0,1.484,0.262,1.96,0.787
			c0.478,0.521,0.717,1.325,0.717,2.412c0,1.093-0.239,1.898-0.717,2.422c-0.476,0.523-1.122,0.785-1.937,0.785
			c-0.843,0-1.5-0.262-1.977-0.785S46.469,83.391,46.469,82.298L46.469,82.298z"/>
</g>
</svg>
