<?xml version="1.0" encoding="utf-8"?>
<!DOCTYPE svg PUBLIC "-//W3C//DTD SVG 1.1//EN" "http://www.w3.org/Graphics/SVG/1.1/DTD/svg11.dtd">
<svg version="1.1" xmlns="http://www.w3.org/2000/svg" xmlns:xlink="http://www.w3.org/1999/xlink" x="0px" y="0px" width="216px" height="216px" viewBox="0 0 216 216" enable-background="new 0 0 216 216" xml:space="preserve">
<g id="zarah">
	<g>
		<path fill-rule="evenodd" clip-rule="evenodd" d="M68.376,124.121c-20.387,0-36.921-16.535-36.921-36.922
			c0-20.388,16.534-36.922,36.921-36.922c20.388,0,36.921,16.534,36.921,36.922C105.297,107.586,88.764,124.121,68.376,124.121
			L68.376,124.121z M51.186,96.925c0,2.733,0.508,5.137,1.524,7.211c1.016,2.061,2.404,3.791,4.148,5.165
			c1.744,1.387,3.777,2.417,6.112,3.118c2.335,0.7,4.834,1.044,7.486,1.044c1.799,0,3.475-0.139,5.013-0.439
			c1.539-0.289,2.898-0.646,4.08-1.058c1.181-0.427,2.17-0.853,2.967-1.319c0.783-0.453,1.359-0.852,1.703-1.208
			c0.356-0.344,0.604-0.853,0.742-1.498c0.151-0.659,0.22-1.607,0.22-2.843c0-0.838-0.027-1.524-0.068-2.087
			c-0.055-0.564-0.151-1.03-0.262-1.374c-0.124-0.343-0.288-0.591-0.494-0.742c-0.192-0.15-0.426-0.219-0.701-0.219
			c-0.371,0-0.906,0.219-1.593,0.659c-0.673,0.44-1.552,0.934-2.637,1.47c-1.072,0.536-2.348,1.03-3.832,1.47
			c-1.498,0.439-3.214,0.659-5.178,0.659c-1.292,0-2.445-0.151-3.461-0.453c-1.017-0.316-1.882-0.755-2.596-1.318
			c-0.7-0.563-1.249-1.25-1.621-2.088c-0.385-0.838-0.563-1.758-0.563-2.774c0-1.182,0.316-2.198,0.961-3.036
			c0.646-0.852,1.483-1.607,2.513-2.253c0.679-0.435,1.424-0.851,2.226-1.25h17.953c0.263,0,0.478-0.29,0.478-0.643v-2.565
			c0-0.354-0.215-0.644-0.478-0.644H48.516c-0.263,0-0.478,0.29-0.478,0.644v2.565c0,0.354,0.215,0.643,0.478,0.643h3.516
			C51.463,93.248,51.186,94.965,51.186,96.925L51.186,96.925z M48.516,80.697h17.463l0.495-0.214
			c1.346-0.563,2.541-1.181,3.599-1.84c1.057-0.659,1.909-1.415,2.541-2.253c0.632-0.851,0.948-1.854,0.948-3.008
			c0-0.769-0.15-1.511-0.426-2.211c-0.288-0.701-0.714-1.292-1.291-1.786c-0.577-0.494-1.291-0.893-2.156-1.168
			c-0.852-0.288-1.854-0.425-3.008-0.425c-1.483,0-2.829,0.178-4.065,0.549c-1.236,0.357-2.321,0.755-3.255,1.209
			c-0.948,0.439-1.731,0.852-2.376,1.223c-0.646,0.371-1.112,0.563-1.415,0.563c-0.288,0-0.522-0.083-0.701-0.247
			c-0.179-0.151-0.316-0.412-0.398-0.756c-0.096-0.357-0.165-0.797-0.206-1.332c-0.042-0.536-0.055-1.195-0.055-1.964
			c0-0.701,0.014-1.291,0.027-1.758c0.028-0.467,0.083-0.852,0.151-1.168c0.069-0.302,0.138-0.549,0.234-0.742
			c0.096-0.192,0.275-0.412,0.549-0.687c0.261-0.261,0.811-0.604,1.648-1.002c0.838-0.398,1.786-0.769,2.857-1.085
			c1.071-0.33,2.225-0.578,3.461-0.769c1.236-0.192,2.472-0.275,3.694-0.275c2.39,0,4.657,0.302,6.786,0.92
			c2.129,0.618,3.983,1.552,5.549,2.802c1.579,1.236,2.829,2.816,3.749,4.697c0.921,1.896,1.388,4.094,1.388,6.579
			c0,2.185-0.316,4.039-0.962,5.605c-0.076,0.183-0.155,0.364-0.237,0.543h2.724c0.263,0,0.478,0.29,0.478,0.643v2.565
			c0,0.354-0.215,0.644-0.478,0.644H48.516c-0.263,0-0.478-0.289-0.478-0.644V81.34C48.038,80.987,48.253,80.697,48.516,80.697
			L48.516,80.697z"/>
		<path fill-rule="evenodd" clip-rule="evenodd" d="M173.057,81.444h-59.974c0.068,1.026,0.106,2.061,0.106,3.105
			c0,4.147-0.552,8.164-1.58,11.987h76.212v-0.328C187.821,88.087,181.178,81.444,173.057,81.444L173.057,81.444z M63.148,130.391
			v24.872c0,8.121,6.644,14.765,14.764,14.765h95.145c8.121,0,14.765-6.644,14.765-14.765v-47.572h-80.87
			c-7.976,13.68-22.806,22.876-39.78,22.876C65.815,130.567,64.474,130.505,63.148,130.391L63.148,130.391z"/>
	</g>
</g>

</svg>
