<?xml version="1.0" encoding="utf-8"?>
<!DOCTYPE svg PUBLIC "-//W3C//DTD SVG 1.1//EN" "http://www.w3.org/Graphics/SVG/1.1/DTD/svg11.dtd">
<svg version="1.1" xmlns="http://www.w3.org/2000/svg" xmlns:xlink="http://www.w3.org/1999/xlink" x="0px" y="0px" width="100px"
	 height="100px" viewBox="0 0 100 100" enable-background="new 0 0 100 100" xml:space="preserve">

<g>
		<path fill-rule="evenodd" clip-rule="evenodd" d="M43.324,68.895c-0.275,1.033,1.255,1.884,2.257,2.046
			l12.383,2.002c0.879,0.142,1.809-0.024,2.713-0.404l0.003-0.002c0.009-0.004,0.027-0.012,0.05-0.022
			c0.183-0.077,0.364-0.166,0.544-0.262c2.085-1.021,8.888-4.428,9.274-4.63l9.593-5.019c2.15-1.126,4.325-1.608,5.621,0.705
			c0.723,1.287-0.503,5.192-1.662,6.105L70.449,80.16c-2.192,1.725-7.447,5.92-8.956,6.702c-1.528,0.791-3.536,0.929-7.065,0.152
			c-0.734-0.162-28.022-4.662-28.396-5.311c-0.128-0.132-0.165-0.277-0.164-0.421l3.147-18.404c0.125-0.739,0.466-1.363,1.16-1.646
			l5.978-2.45c1.574-0.646,2.204-1.787,4.946-1.266l18.949,3.611c1.449,0.276,2.674,3.272,2.439,4.729l0,0
			c-0.232,1.456-2.531,3.982-3.987,3.745l-12.045-1.945C43.793,67.225,43.598,67.86,43.324,68.895L43.324,68.895z M24.726,87.186
			L24.726,87.186c0.414,0.441-0.207-1.759,1.394-1.349c0.811,0.208,1.792,0.415,2.956,0.625l23.689,4.249
			c6.572,0.787,7.576,2.274,14.027-2.854l19.701-15.667c2.611-2.074,4.123-7.053,2.676-10.058l-0.847-1.76
			c-1.632-2.91-6.883-2.269-9.838-0.721l-9.888,5.188c-0.113,0.058-2.089,0.359-3.238-2.207c-0.062-0.168-0.128-0.337-0.199-0.501
			l-0.003-0.008l0,0c-0.92-2.12-2.604-3.96-4.57-4.335l-18.951-3.611c-5.408-1.03-11.474,4.423-11.51,2.14
			c0.002-0.04,0.004-0.079,0.003-0.119l0,0l0,0c-0.009-0.825-0.608-1.556-1.448-1.7l-11.162-1.909
			c-0.945-0.161-1.85,0.479-2.011,1.423l-5.139,30.052c-0.161,0.945,0.479,1.851,1.424,2.011l11.162,1.908
			C23.67,88.105,24.362,87.768,24.726,87.186L24.726,87.186z M18.757,56.471l7.464,1.276l-4.506,26.354l-7.464-1.276L18.757,56.471
			L18.757,56.471z M70.478,48.396c0.228-1.865,0.461-3.383,0.699-4.565c-2.479,1.094-4.695,1.64-6.652,1.64
			c-0.786,0-1.513-0.119-2.175-0.357c-0.667-0.238-1.146-0.578-1.438-1.011c-0.297-0.44-0.427-0.924-0.391-1.463
			c0.027-0.414,0.129-0.792,0.307-1.124c0.27-0.452,0.691-0.923,1.276-1.413c0.451-0.411,1.114-0.979,1.992-1.708h8.007v-2.09
			h-5.468c0.611-0.508,1.051-0.885,1.322-1.13c0.304-0.273,0.581-0.536,0.832-0.786h3.313v-2.09h-1.678
			c0.121-0.226,0.225-0.452,0.309-0.676c0.205-0.553,0.334-1.136,0.377-1.765c0.076-1.149-0.17-2.235-0.747-3.245
			c-0.571-1.012-1.486-1.803-2.729-2.373c-1.241-0.572-2.836-0.854-4.783-0.854c-1.758,0-3.742,0.213-5.964,0.646
			c-0.148,1.274-0.372,2.731-0.667,4.376c1.958-0.735,3.755-1.105,5.367-1.105c1.201,0,2.167,0.27,2.896,0.816
			c0.729,0.545,1.068,1.18,1.021,1.902c-0.015,0.201-0.055,0.402-0.126,0.621c-0.063,0.214-0.158,0.421-0.279,0.622
			c-0.12,0.201-0.332,0.465-0.625,0.792c-0.071,0.078-0.149,0.159-0.236,0.243H54.159v2.09h7.449l-2.239,1.917h-5.21v2.09h2.868
			c-0.202,0.212-0.391,0.419-0.562,0.623c-0.349,0.414-0.633,0.816-0.841,1.193c-0.208,0.383-0.373,0.771-0.494,1.168
			c-0.12,0.401-0.193,0.822-0.223,1.262c-0.07,1.029,0.103,2.003,0.518,2.913c0.417,0.918,1.057,1.665,1.908,2.254
			c0.857,0.59,1.808,0.998,2.861,1.225c1.052,0.226,2.173,0.339,3.36,0.339c0.786,0,1.7-0.07,2.751-0.202
			C67.358,49.03,68.75,48.771,70.478,48.396L70.478,48.396z M64,9.92c15.438,0,27.961,12.521,27.961,27.961
			c0,5.696-1.704,10.993-4.63,15.412l-4.385-0.14c3.371-4.177,5.392-9.488,5.392-15.272c0-13.439-10.898-24.339-24.338-24.339
			s-24.338,10.9-24.338,24.339c0,4.354,1.146,8.444,3.15,11.981l-4.058,0.05c-1.741-3.644-2.716-7.724-2.716-12.031
			C36.038,22.441,48.559,9.92,64,9.92L64,9.92z"/>
</g>
</svg>
