<?xml version="1.0" encoding="utf-8"?>
<!DOCTYPE svg PUBLIC "-//W3C//DTD SVG 1.1//EN" "http://www.w3.org/Graphics/SVG/1.1/DTD/svg11.dtd">
<svg version="1.1" xmlns="http://www.w3.org/2000/svg" xmlns:xlink="http://www.w3.org/1999/xlink" x="0px" y="0px" width="216px" height="216px" viewBox="0 0 216 216" enable-background="new 0 0 216 216" xml:space="preserve">
<g id="bulka">
	<g>
		<path fill-rule="evenodd" clip-rule="evenodd" d="M35.003,116.129c-1.169,5.958,1.217,12.809,5.721,16.874
			c2.514,2.271,6.679,4.5,11.378,4.5H174.24c18.912,0,19.764-20.24,11.965-32.119c-2.339-3.563-4.043-5.911-6.855-9.022
			c-5.792-6.409-10.159-9.329-17.323-14.126c-3.561,2.384-8.648,10.066-10.987,14.051c-2.71,4.613-3.259,16.242-10.659,13.091
			c-6.226-2.651-0.462-13.451,1.493-17.371c1.481-2.966,2.937-5.059,4.761-7.76c1.791-2.653,3.996-4.47,5.622-6.896l-15.803-5.423
			c-4.465,3.171-8.582,4.682-12.673,8.397c-3.953,3.59-6.662,6.164-9.877,10.582c-2.888,3.971-5.17,8.775-6.591,14.171
			c-1.922,7.302-10.324,5.361-10.324-0.248v-0.305c0-5.202,6.502-16.567,9.035-19.974c2.309-3.106,4.081-5.201,6.767-7.889
			c1.112-1.112,7.221-6.263,7.404-6.946h-13.129c-7.822,0-23.774,13.248-27.665,18.443c-3.276,4.375-6.492,8.863-8.124,14.776
			c-0.852,3.088-1.451,6.073-4.845,6.781c-2.887,0.603-6.084-1.693-6.084-4.581c0-3.957,4.231-13.402,5.982-16.002
			c1.392-2.064,2.859-4.819,4.473-6.519c0.724-0.761,4.652-5.278,4.812-5.876c-2.487,0.579-11.163,5.318-13.379,6.774
			c-4.415,2.903-7.248,5.771-11.17,8.677C45.102,96.606,36.528,108.364,35.003,116.129L35.003,116.129z"/>
	</g>
</g>

</svg>
