<?xml version="1.0" encoding="utf-8"?>
<!DOCTYPE svg PUBLIC "-//W3C//DTD SVG 1.1//EN" "http://www.w3.org/Graphics/SVG/1.1/DTD/svg11.dtd">
<svg version="1.1" xmlns="http://www.w3.org/2000/svg" xmlns:xlink="http://www.w3.org/1999/xlink" x="0px" y="0px" width="100px"
	 height="100px" viewBox="0 0 100 100" enable-background="new 0 0 100 100" xml:space="preserve">

<g>
<path fill-rule="evenodd" clip-rule="evenodd" d="M61.421,81.276c-0.062,4.663-4.691,8.431-10.392,8.431
			s-10.329-3.768-10.392-8.431h4.039c0.067,2.629,2.886,4.745,6.354,4.745c3.467,0,6.287-2.116,6.354-4.745H61.421L61.421,81.276z
			 M78.639,58.924c0.38,4.147,6.637,9.762,9.953,14.644c-24.897,6.649-49.588,6.684-74.488-0.104
			c3.315-4.877,8.204-9.335,9.735-14.421c0-9.242,0-14.074,0-23.314c0-11.173,10.611-20.458,24.168-21.729
			c-0.667-0.741-1.072-1.708-1.072-2.766C46.935,8.896,48.91,7,51.344,7c2.436,0,4.41,1.896,4.41,4.232
			c0,1.07-0.414,2.047-1.097,2.792C68.075,15.4,78.534,24.634,78.534,35.728C78.534,44.964,78.639,49.688,78.639,58.924
			L78.639,58.924z M21.36,69.777c20.308,5.879,40.334,5.879,60.081,0c-2.244-3.303-6.274-6.71-6.943-11.589
			c0-9.586,0-12.874,0-22.461c0-2.033-0.437-4.024-1.275-5.906c-3.528-7.92-12.992-12.288-22.035-12.288
			c-9.042,0-18.505,4.367-22.035,12.286c-0.839,1.882-1.275,3.875-1.275,5.908c0,9.591,0.605,12.513,0.605,22.104
			C28.129,62.181,23.603,66.479,21.36,69.777L21.36,69.777z"/>
</g>

</svg>
