<?xml version="1.0" encoding="utf-8"?>
<!DOCTYPE svg PUBLIC "-//W3C//DTD SVG 1.1//EN" "http://www.w3.org/Graphics/SVG/1.1/DTD/svg11.dtd">
<svg version="1.1" xmlns="http://www.w3.org/2000/svg" xmlns:xlink="http://www.w3.org/1999/xlink" x="0px" y="0px" width="100px"
	 height="100px" viewBox="0 0 100 100" enable-background="new 0 0 100 100" xml:space="preserve">

<g>
		<path fill-rule="evenodd" clip-rule="evenodd" d="M86.687,74.125l-3.115-4.141
			C76.423,80.181,64.584,86.847,51.19,86.847c-17.007,0-31.508-10.749-37.079-25.822l7.55-4.44
			c3.937,12.563,15.67,21.682,29.529,21.682c10.396,0,19.594-5.13,25.204-12.994l-4.441-1.044l-0.327-0.626l16.26-7.244
			l-0.486,17.431L86.687,74.125L86.687,74.125z M16.24,19.314l2.886,4.302c7.688-9.795,19.868-15.815,33.241-15.093
			C69.35,9.439,83.252,20.954,88,36.307l-7.775,4.024C76.97,27.576,65.745,17.838,51.907,17.093
			C41.526,16.532,32.064,21.16,26.038,28.71l4.379,1.281l0.293,0.642l-16.625,6.358l1.423-17.379L16.24,19.314L16.24,19.314z
			 M36.289,69.36c4.308,1.524,8.55,2.266,12.792,2.331v4.242h5.302v-4.64c6.429-0.872,13.454-5.049,13.454-13.93
			c0-7.688-6.098-11.068-11.532-13.322l-1.922-0.795V31.449c3.38,0,6.694,0.663,9.876,2.055l0.993-7.423
			c-3.513-1.193-7.157-1.79-10.869-1.855V19.85h-5.302v4.64c-8.219,0.266-13.256,6.097-13.256,12.792
			c0,8.151,8.086,11.201,11.73,12.924l1.525,0.729v12.924c-3.91-0.066-7.888-0.861-11.798-2.585L36.289,69.36L36.289,69.36z
			 M54.052,53.388c3.977,1.657,4.175,4.043,4.175,5.104c0,1.79-1.591,3.646-4.175,4.507V53.388L54.052,53.388z M49.412,41.259
			c-1.724-0.598-4.176-2.254-4.176-4.972c0-2.054,1.79-3.778,4.176-4.308V41.259L49.412,41.259z"/>
</g>

</svg>
