<?xml version="1.0" encoding="utf-8"?>
<!DOCTYPE svg PUBLIC "-//W3C//DTD SVG 1.1//EN" "http://www.w3.org/Graphics/SVG/1.1/DTD/svg11.dtd">
<svg version="1.1" xmlns="http://www.w3.org/2000/svg" xmlns:xlink="http://www.w3.org/1999/xlink" x="0px" y="0px" width="216px" height="216px" viewBox="0 0 216 216" enable-background="new 0 0 216 216" xml:space="preserve">
<g id="perekaz">
	<g>
		<path fill-rule="evenodd" clip-rule="evenodd" d="M143.852,121.64c0.176,2.524-0.15,5.06-0.15,7.587
			c0.068,5.646-0.314,9.084,8.738,0.452l28.305-26.988c6.707-6.396,6.689-5.867-0.014-12.263
			c-9.299-8.866-18.598-17.731-27.896-26.598c-8.277-7.892-9.088-3.976-9.133-0.559v8.078l11.922,11.368
			c3.734,3.561,7.697,7.677,11.674,12.637c1.115,1.393,1.191,2.331,0.006,3.672c-3.877,4.393-7.859,7.748-11.666,11.377
			L143.852,121.64L143.852,121.64z M72.971,76.005c-19.744,3.115-34.822,19.718-34.822,39.73c0,18.184,12.45,33.555,29.538,38.548
			c-7.155-3.092-12.145-10.045-12.145-18.125c0-10.827,8.958-19.631,20.082-19.83v-0.014c0.353,0.005,0.731,0.007,1.138,0.007
			h29.715c5.147,0.269,8.667,0.899,8.977,2.935c0.449,2.924,0,5.869,0,8.805c0.068,5.55-0.309,8.933,8.594,0.444l27.834-26.539
			c6.594-6.289,6.578-5.769-0.014-12.058c-9.145-8.718-18.287-17.436-27.432-26.155c-8.139-7.761-8.936-3.91-8.982-0.55
			c0,3.095,0,6.189,0,9.284c-1.469,2.778-4.635,3.193-8.977,3.079c-8.644,0-19.614,0-28.255,0
			C75.805,75.566,74.131,75.726,72.971,76.005L72.971,76.005z"/>
	</g>
</g>

</svg>
