<?xml version="1.0" encoding="utf-8"?>
<!DOCTYPE svg PUBLIC "-//W3C//DTD SVG 1.1//EN" "http://www.w3.org/Graphics/SVG/1.1/DTD/svg11.dtd">
<svg version="1.1" xmlns="http://www.w3.org/2000/svg" xmlns:xlink="http://www.w3.org/1999/xlink" x="0px" y="0px" width="216px" height="216px" viewBox="0 0 216 216" enable-background="new 0 0 216 216" xml:space="preserve">
<g id="market">
	<g>
		<path fill-rule="evenodd" clip-rule="evenodd" d="M66.775,41.796l7.956,16.159c1.308-1.44,3.356-2.374,5.379-2.374
			h96.695c3.677,0,8.351,3.408,6.685,6.684l-24.954,49.016c-1.668,3.276-3.008,6.684-6.684,6.684H93.293l-5.867,11.431
			c-0.987,2.027-0.734,3.273,0.632,3.274h82.955v12.922H83.507h-0.724c-3.775,0.054-17.507-0.95-10.881-14.408L82.9,108.845
			L56.892,56.021c-5.034,0-10.069,0-15.104,0c-7.686-0.186-8.467-14.408,0-14.259h24.954v0.049L66.775,41.796L66.775,41.796z
			 M157.422,154.058c7.813,0,14.146,6.336,14.146,14.148c0,7.812-6.334,14.147-14.146,14.147s-14.147-6.336-14.147-14.147
			C143.274,160.394,149.609,154.058,157.422,154.058L157.422,154.058z M86.348,154.058c7.812,0,14.148,6.336,14.148,14.148
			c0,7.812-6.336,14.147-14.148,14.147c-7.813,0-14.147-6.336-14.147-14.147C72.201,160.394,78.536,154.058,86.348,154.058
			L86.348,154.058z"/>
	</g>
</g>

</svg>
