<?xml version="1.0" encoding="utf-8"?>
<!DOCTYPE svg PUBLIC "-//W3C//DTD SVG 1.1//EN" "http://www.w3.org/Graphics/SVG/1.1/DTD/svg11.dtd">
<svg version="1.1" xmlns="http://www.w3.org/2000/svg" xmlns:xlink="http://www.w3.org/1999/xlink" x="0px" y="0px" width="216px" height="216px" viewBox="0 0 216 216" enable-background="new 0 0 216 216" xml:space="preserve">
<g id="taxi">
	<g>
		<path fill-rule="evenodd" clip-rule="evenodd" d="M172.474,94.894c3.863,2.633,6.412,7.067,6.412,12.065v43.773
			h-4.012v21.156c0,2.81-2.299,5.108-5.108,5.108h-10.213c-2.81,0-5.107-2.299-5.107-5.108v-21.156H68.723v21.156
			c0,2.81-2.298,5.108-5.107,5.108H53.402c-2.809,0-5.107-2.299-5.107-5.108v-21.156h-3.647v-43.773
			c0-4.823,2.37-9.114,6.002-11.775l1.841-9.199H41.893c-0.492,0-0.893-0.401-0.893-0.894v-7.15c0-0.491,0.401-0.893,0.893-0.893
			h12.384l3.502-17.51c1.574-7.869,6.137-14.591,13.639-14.591h78.871c7.502,0,11.756,6.792,13.641,14.591l4.231,17.51h9.101
			c0.491,0,0.894,0.401,0.894,0.893v7.15c0,0.492-0.402,0.894-0.894,0.894h-6.942L172.474,94.894L172.474,94.894z M148.354,108.053
			h21.668c0.663,0,1.204,0.543,1.204,1.204v9.63c0,0.665-0.541,1.204-1.204,1.204h-21.668c-0.663,0-1.204-0.539-1.204-1.204v-9.63
			C147.149,108.596,147.69,108.053,148.354,108.053L148.354,108.053z M56.794,108.053h21.668c0.663,0,1.204,0.543,1.204,1.204v9.63
			c0,0.665-0.541,1.204-1.204,1.204H56.794c-0.663,0-1.204-0.539-1.204-1.204v-9.63C55.591,108.596,56.132,108.053,56.794,108.053
			L56.794,108.053z M71.457,56.543c-1.114,0.812-2.07,4.088-2.306,5.269l-5.98,29.902h96.605l-7.116-29.453
			c-0.305-1.252-1.385-4.723-2.517-5.719H71.457L71.457,56.543z"/>
		<path fill-rule="evenodd" clip-rule="evenodd" d="M91.966,19.013h40.332c1.326,0,2.084,1.687,2.413,3.683
			l2.818,17.124H86.733l2.82-17.124C89.882,20.697,90.639,19.013,91.966,19.013L91.966,19.013z M116.69,29.658h7.072v-6.962h7.07
			v7.072h-7.07v6.961h-7.072V29.658L116.69,29.658z M102.547,29.658h6.96v-6.962h7.072v7.072h-6.96v6.961h-7.072V29.658
			L102.547,29.658z M95.364,22.696h7.072v7.072h-7.072V22.696L95.364,22.696z"/>
	</g>
</g>

</svg>
