<?xml version="1.0" encoding="utf-8"?>
<!DOCTYPE svg PUBLIC "-//W3C//DTD SVG 1.1//EN" "http://www.w3.org/Graphics/SVG/1.1/DTD/svg11.dtd">
<svg version="1.1" xmlns="http://www.w3.org/2000/svg" xmlns:xlink="http://www.w3.org/1999/xlink" x="0px" y="0px" width="100px"
	 height="100px" viewBox="0 0 100 100" enable-background="new 0 0 100 100" xml:space="preserve">

<g>
		<path fill-rule="evenodd" clip-rule="evenodd" d="M48.022,74.462c0,0.196,0.059,0.256,0.255,0.256h26.632V71.91
			H48.022V74.462L48.022,74.462z M34.324,92.33H65.55c0.458-0.29,1.047-0.345,1.668-0.8c0.542-0.396,0.872-0.755,1.333-1.221
			c0.428-0.431,0.669-0.935,0.942-1.523c0.146-0.315,0.566-1.627,0.566-1.987v-2.807h-2.979v1.531c0,0.262-0.249,0.34-0.51,0.34
			H33.388c-0.293,0-0.329-0.063-0.596-0.084V33.962c0-0.196,0.06-0.256,0.256-0.256h33.779c0.194,0,0.254,0.06,0.254,0.256v3.658
			l0.336-0.042l2.047-0.213c0.285-0.038,0.293,0.06,0.596,0.085v-4.425c0-1.425-1.065-3.327-1.808-4.063
			c-0.615-0.611-0.887-0.788-1.664-1.229c-0.338-0.192-1.797-0.749-2.229-0.749H35.515c-1.262,0-3.339,1.243-3.915,1.955
			c-0.772,0.955-1.785,2.369-1.785,4.085v53.604c0,1.171,0.787,2.873,1.34,3.511c0.396,0.456,0.714,0.821,1.197,1.185
			c0.548,0.413,1.028,0.573,1.548,0.909L34.324,92.33L34.324,92.33z M46.235,39.918c-0.432,0.289-1.3,0.502-1.858,0.78
			c-0.64,0.318-1.066,0.64-1.658,0.979c-0.818,0.468-2.184,1.783-2.746,2.53c-1.43,1.897-2.756,4.603-2.756,7.879
			c0,2.539,0.676,4.479,1.576,6.167c0.507,0.95,2.683,4.044,3.7,4.128c0.07-0.843,1.276-2.636,1.276-2.638
			c0-0.179-0.955-0.992-1.141-1.242c-0.372-0.499-0.724-0.858-1.038-1.429c-0.367-0.669-1.311-2.735-1.311-3.625v-2.553
			c0-0.779,0.791-2.559,1.072-3.182c0.432-0.958,1.149-1.8,1.842-2.497c1.084-1.092,3.771-2.745,5.85-2.745h2.042
			c0.93,0,3.141,0.937,3.76,1.346c0.576,0.38,0.964,0.605,1.467,1.085c0.288,0.275,1.035,1.151,1.324,1.229
			c0.159-0.44,1.957-1.9,1.957-2.127c0-0.475-2.121-2.123-2.604-2.417c-0.542-0.33-0.953-0.656-1.55-0.917
			c-0.469-0.205-1.467-0.525-1.802-0.75c-0.682,0-1.561-0.426-2.469-0.426h-2.467C47.768,39.492,46.959,39.918,46.235,39.918
			L46.235,39.918z M55.255,52.425c0,0.622-0.17,0.624-0.17,1.106v1.021c0,0.804,0.708,2.229,1.19,2.552c4.964,0,9.927,0,14.891,0
			c2.834,0,4.681-0.074,6.383,1.104c1.136,0.784,2.976,2.69,2.976,4.512c0.104,0.153,0.171,0.149,0.171,0.34v11.828
			c0.317-0.086,5.114-5.03,5.795-5.693c0.978-0.949,1.91-1.972,2.884-2.901c0.87-0.831,2.127-1.989,2.127-3.658v-1.277
			c0-0.19-0.067-0.187-0.17-0.34v-0.426c-0.382-0.569-0.45-1.021-0.959-1.593c-0.41-0.46-0.875-0.879-1.317-1.32
			c-0.9-0.9-1.738-1.738-2.638-2.639c-1.765-1.764-3.468-3.467-5.232-5.232c-1.765-1.765-3.468-3.467-5.233-5.232
			c-1.132-1.131-4.08-4.658-5.892-4.658h-1.787c-1.829,0-5.574,4.625-6.938,5.824c-1.053,0.925-2.195,2.176-3.197,3.185
			c-0.528,0.533-1.045,1.027-1.572,1.576C55.826,51.27,55.791,51.623,55.255,52.425L55.255,52.425z M65.976,46.81
			c0,1.118,1.699,2.422,2.361,3.084c0.692,0.692,1.884,2.361,3.084,2.361c1.053,0,3.403-2.289,3.403-3.318v-0.425
			c0-0.755-1.846-2.313-2.361-2.829c-0.609-0.61-1.909-2.276-2.914-2.276h-0.085C68.268,43.406,65.976,45.654,65.976,46.81
			L65.976,46.81z M44.364,63.401V77.95c0,0.397,0.17,0.268,0.17,0.852c0.4,0.598,0.462,1.077,1.04,1.683
			c0.416,0.435,1.502,1.067,1.598,1.211c0.608,0,0.68,0.254,1.361,0.254h26.206c0.897,0,2.018-0.914,2.531-1.382
			c0.509-0.465,1.383-1.759,1.383-2.617V63.316c0-0.853-0.824-2.233-1.298-2.702c-0.549-0.545-1.677-1.383-2.701-1.383H48.192
			c-0.81,0-2.153,0.927-2.585,1.414C45.03,61.293,44.364,62.238,44.364,63.401L44.364,63.401z M45.811,67.996v9.358
			c0,1.609,1.611,3.148,3.233,3.148h24.845c2.083,0,3.317-1.673,3.317-3.829v-8.508c0-0.229-0.04-0.234-0.085-0.426H46.065
			C45.87,67.74,45.811,67.8,45.811,67.996L45.811,67.996z M45.98,62.891c0,0.416-0.247,0.766,0.17,0.766h30.546
			c0.229,0,0.234-0.04,0.425-0.085c-0.015-0.688-0.496-1.479-0.871-1.851c-0.306-0.306-1.273-1.042-1.767-1.042H48.788
			c-0.728,0-1.293,0.386-1.726,0.741C46.318,62.033,46.444,62.198,45.98,62.891L45.98,62.891z M10.5,32.855v1.191
			c0.323,0.117,0.423,1.191,1.276,1.191h0.596c1.42,0,1.372-2.255,1.362-3.658c-0.008-1.256,0.513-3.221,0.816-4.29
			c0.698-2.459,1.95-5.01,3.307-6.818c1.54-2.053,2.923-3.621,4.966-5.159c0.858-0.646,2.038-1.495,3.031-1.989
			c0.624-0.311,1.107-0.531,1.733-0.819c0.557-0.256,1.363-0.458,1.801-0.752h0.34c0.722-0.483,3.382-0.869,4.585-1.03
			c1.647-0.221,4.008,0.285,4.008-1.607c0-0.849-0.442-0.963-0.766-1.446c-1.992,0-3.361,0.012-5.271,0.259
			c-1.567,0.203-3.085,0.834-4.464,1.236c-2.536,0.74-5.429,2.636-7.332,4.069c-2.3,1.731-3.716,3.695-5.456,5.945
			c-0.694,0.896-1.565,2.583-2.05,3.65c-0.305,0.67-0.54,1.269-0.823,1.985c-0.208,0.525-0.505,1.843-0.723,2.169
			c0,0.415-0.411,2.281-0.531,2.872C10.821,30.27,10.875,32.704,10.5,32.855L10.5,32.855z M17.987,28.091
			c-0.24,0.358-0.851,3.407-0.851,4.084v1.872c0,0.467,0.642,1.191,1.021,1.191h0.766c1.488,0,1.101-2.201,1.329-3.522
			c0.301-1.743,0.481-2.433,0.969-3.88c0.592-1.757,2.556-4.82,3.813-5.887c1.648-1.4,3.627-3.093,5.903-3.796
			c1.005-0.31,2.707-0.939,3.9-0.95c0.581-0.005,1.54-0.118,2.298-0.169c0.563-0.039,1.188-0.74,1.188-1.28v-0.511
			c0-0.383-0.84-1.191-1.276-1.191h-0.766c-4.511,0-9.383,2.251-11.812,4.354c-1.306,1.131-3.007,2.665-3.885,4.199
			C19.977,23.666,17.987,26.679,17.987,28.091L17.987,28.091z M24.028,35.238h0.681c0.591,0,0.787-0.552,1.066-0.771l0.465-3.569
			c0.199-0.296,0.543-1.427,0.765-1.872c0.335-0.671,0.598-1.125,1.021-1.702c0.688-0.937,1.755-1.935,2.757-2.603
			c1.178-0.785,2.151-1.253,3.778-1.583c0.284-0.058,0.568-0.224,1.035-0.241c0.399-0.015,0.992,0.048,1.361,0
			c0.605-0.078,1.364-0.708,1.364-1.359v-0.34c0-2.379-4.863-0.958-6.176-0.56c-1.816,0.551-3.927,2.026-5.12,3.219
			c-1.368,1.369-2.551,3.045-3.28,5.057C23.333,30.057,21.903,35.238,24.028,35.238L24.028,35.238z"/>
		<path fill-rule="evenodd" clip-rule="evenodd" d="M48.323,57.395c-0.082-0.195-0.115-0.403-0.1-0.629
			c0.017-0.249,0.077-0.475,0.185-0.675c0.161-0.271,0.414-0.554,0.765-0.847c0.27-0.248,0.669-0.588,1.195-1.025h3.134
			c-0.065-0.415-0.082-0.836-0.05-1.254h-1.56c0.365-0.305,0.629-0.531,0.791-0.678c0.184-0.164,0.35-0.322,0.5-0.473h0.484
			c0.131-0.436,0.32-0.858,0.564-1.253h-0.067c0.072-0.135,0.134-0.271,0.185-0.406c0.124-0.331,0.201-0.682,0.226-1.058
			c0.047-0.689-0.101-1.341-0.447-1.947c-0.344-0.606-0.892-1.081-1.637-1.424s-1.701-0.512-2.869-0.512
			c-1.055,0-2.246,0.127-3.578,0.388c-0.089,0.765-0.224,1.638-0.399,2.625c1.174-0.441,2.251-0.663,3.219-0.663
			c0.719,0,1.3,0.162,1.737,0.49s0.641,0.708,0.611,1.141c-0.008,0.121-0.031,0.241-0.074,0.373
			c-0.038,0.128-0.096,0.252-0.168,0.373c-0.072,0.12-0.2,0.279-0.375,0.475c-0.042,0.047-0.089,0.095-0.142,0.146h-6.047v1.253
			h4.468l-1.343,1.15h-3.125v1.254h1.721c-0.122,0.127-0.234,0.25-0.337,0.373c-0.209,0.249-0.38,0.49-0.504,0.716
			c-0.125,0.229-0.223,0.463-0.296,0.7c-0.073,0.241-0.116,0.494-0.134,0.758c-0.042,0.617,0.062,1.201,0.311,1.747l0.007,0.015
			C46.049,57.843,47.14,57.424,48.323,57.395L48.323,57.395z"/>
</g>
</svg>
