<?xml version="1.0" encoding="utf-8"?>
<!DOCTYPE svg PUBLIC "-//W3C//DTD SVG 1.1//EN" "http://www.w3.org/Graphics/SVG/1.1/DTD/svg11.dtd">
<svg version="1.1" xmlns="http://www.w3.org/2000/svg" xmlns:xlink="http://www.w3.org/1999/xlink" x="0px" y="0px" width="216px" height="216px" viewBox="0 0 216 216" enable-background="new 0 0 216 216" xml:space="preserve">
<g id="pizza">
	<g>
		<path fill-rule="evenodd" clip-rule="evenodd" d="M118.951,40.775c-18.163,0-34.613,7.352-46.534,19.242
			l5.648,6.327c10.417-10.558,24.888-17.104,40.886-17.104c31.718,0,57.439,25.722,57.439,57.439
			c0,31.718-25.722,57.44-57.439,57.44c-29.222,0-53.354-21.834-56.97-50.075l-8.514,0.063
			c3.692,32.896,31.604,58.478,65.484,58.478c36.393,0,65.904-29.514,65.904-65.905C184.855,70.288,155.344,40.775,118.951,40.775
			L118.951,40.775z M98.395,117.714c6.594,0,11.941,5.348,11.941,11.941s-5.348,11.941-11.941,11.941s-11.941-5.348-11.941-11.941
			S91.801,117.714,98.395,117.714L98.395,117.714z M128.059,136.91c3.443,0,6.235,2.792,6.235,6.235s-2.792,6.235-6.235,6.235
			c-3.442,0-6.235-2.792-6.235-6.235S124.616,136.91,128.059,136.91L128.059,136.91z M151.526,108.039
			c6.051,0,10.957,4.908,10.957,10.959s-4.906,10.96-10.957,10.96c-6.053,0-10.96-4.909-10.96-10.96
			S145.474,108.039,151.526,108.039L151.526,108.039z M151.676,82.343c4.3,0,7.786,3.486,7.786,7.784
			c0,4.299-3.486,7.785-7.786,7.785c-4.297,0-7.783-3.486-7.783-7.785C143.893,85.829,147.379,82.343,151.676,82.343L151.676,82.343
			z M123.033,67.378c6.594,0,11.941,5.348,11.941,11.941s-5.348,11.941-11.941,11.941s-11.942-5.348-11.942-11.941
			S116.439,67.378,123.033,67.378L123.033,67.378z M96.725,69.608c2.854,0,5.17,2.315,5.17,5.17s-2.316,5.17-5.17,5.17
			c-2.855,0-5.17-2.315-5.17-5.17S93.87,69.608,96.725,69.608L96.725,69.608z M118.951,53.472c-14.916,0-28.398,6.145-38.061,16.036
			l35.72,40.007c0.511-3.444,3.479-6.086,7.065-6.086c3.943,0,7.142,3.198,7.142,7.141c0,3.944-3.198,7.144-7.142,7.144
			c-2.849,0-5.307-1.668-6.454-4.078l-50.972,0.377c3.574,25.911,25.809,45.874,52.701,45.874c29.38,0,53.207-23.827,53.207-53.208
			S148.331,53.472,118.951,53.472L118.951,53.472z"/>
		<path fill-rule="evenodd" clip-rule="evenodd" d="M56.616,53.73c-11.965,11.932-19.37,28.434-19.37,46.662
			c0,2.512,0.146,4.989,0.42,7.428l8.514-0.063c-0.309-2.412-0.469-4.869-0.469-7.365c0-15.719,6.32-29.962,16.554-40.335
			L56.616,53.73L56.616,53.73z M50.449,107.725l23.185-0.172c-0.624-1.267-0.975-2.692-0.975-4.2c0-5.258,4.265-9.522,9.523-9.522
			c5.258,0,9.522,4.264,9.522,9.522c0,1.457-0.328,2.837-0.913,4.073l13.676-0.102L65.09,63.221
			c-9.369,9.592-15.146,22.707-15.146,37.171C49.944,102.88,50.119,105.327,50.449,107.725L50.449,107.725z"/>
	</g>
</g>

</svg>
