<?xml version="1.0" encoding="utf-8"?>
<!DOCTYPE svg PUBLIC "-//W3C//DTD SVG 1.1//EN" "http://www.w3.org/Graphics/SVG/1.1/DTD/svg11.dtd">
<svg version="1.1" id="Layer_1" xmlns="http://www.w3.org/2000/svg" xmlns:xlink="http://www.w3.org/1999/xlink" x="0px" y="0px" width="480px" height="165px" viewBox="0 0 480 165" enable-background="new 0 0 480 165" xml:space="preserve">
<g>
	<path fill-rule="evenodd" clip-rule="evenodd" d="M222.147,109.059v7.377h-5.488V56.93h5.644V81.2
		c1.47-1.941,3.287-3.551,5.456-4.81c3.13-1.816,6.556-2.648,10.171-2.648c3.793,0,7.405,0.848,10.708,2.722
		c3.227,1.833,5.732,4.405,7.531,7.652c1.906,3.438,2.717,7.213,2.717,11.129c0,3.899-0.807,7.668-2.717,11.089
		c-1.807,3.235-4.316,5.798-7.527,7.648c-3.299,1.9-6.908,2.763-10.711,2.763c-3.669,0-7.135-0.856-10.295-2.73
		C225.44,112.716,223.615,111.052,222.147,109.059L222.147,109.059z M237.696,111.492c2.828,0,5.515-0.629,7.964-2.059
		c2.387-1.393,4.219-3.316,5.551-5.736c1.438-2.614,2.033-5.484,2.033-8.451c0-2.97-0.596-5.84-2.033-8.454
		c-1.332-2.419-3.164-4.345-5.551-5.736c-2.449-1.428-5.136-2.06-7.964-2.06c-2.814,0-5.488,0.623-7.923,2.059
		c-2.372,1.396-4.19,3.328-5.518,5.737c-1.437,2.614-2.031,5.484-2.031,8.454c0,2.967,0.595,5.837,2.031,8.451
		c1.326,2.41,3.146,4.342,5.519,5.738C232.208,110.871,234.881,111.492,237.696,111.492L237.696,111.492z"/>
	<path fill-rule="evenodd" clip-rule="evenodd" d="M295.447,111.153c-1.207,1.432-2.682,2.596-4.396,3.507
		c-2.881,1.531-6.127,2.086-9.361,2.086c-3.998,0-8.08-0.809-11.256-3.388c-2.867-2.326-4.254-5.398-4.254-9.084
		c0-3.53,1.248-6.545,3.92-8.872c3.189-2.774,8.072-3.367,12.135-3.367h13.057v-2.395c0-2.92-0.629-5.916-2.807-8.009
		c-2.221-2.137-5.406-2.714-8.383-2.714c-2.555,0-5.045,0.439-7.434,1.345c-2.193,0.832-4.248,1.985-5.988,3.566l-0.74,0.67
		l-2.955-4.256l0.576-0.515c2.215-1.99,4.809-3.425,7.607-4.417c2.98-1.057,6.084-1.568,9.246-1.568
		c4.416,0,8.906,0.96,12.199,4.094c3.295,3.135,4.32,7.551,4.32,11.96v26.639h-5.486V111.153L295.447,111.153z M295.291,103.401
		V96.82h-12.98c-2.561,0-6.051,0.302-8.127,1.984c-1.678,1.362-2.363,3.173-2.363,5.313c0,2.288,0.801,4.161,2.621,5.573
		c2.164,1.678,5.129,2.114,7.793,2.114c2.875,0,5.691-0.589,8.119-2.191C292.662,108.095,294.242,105.935,295.291,103.401
		L295.291,103.401z"/>
	<path fill-rule="evenodd" clip-rule="evenodd" d="M321.102,80.626c1.324-1.758,2.979-3.209,4.955-4.353
		c3.143-1.822,6.676-2.531,10.283-2.531c4.77,0,9.254,1.263,12.684,4.692c3.57,3.569,4.695,8.478,4.695,13.383v24.617h-5.646V92.132
		c0-3.505-0.695-7.216-3.215-9.822c-2.41-2.492-5.678-3.313-9.063-3.313c-4.035,0-7.803,1.054-10.654,4.012
		c-2.875,2.983-3.881,6.849-3.881,10.913v22.515h-5.645V74.054h5.486V80.626L321.102,80.626z"/>
	<polygon fill-rule="evenodd" clip-rule="evenodd" points="383.492,95.121 373.881,103.882 373.881,116.436 
		368.24,116.436 368.24,56.93 373.881,56.93 373.881,96.686 398.666,74.054 406.201,74.054 387.66,91.439 407.512,116.436 
		400.453,116.436 383.492,95.121 	"/>
	<polygon fill-rule="evenodd" clip-rule="evenodd" points="183.293,13.187 183.293,159.799 442.199,159.799 
		442.199,74.042 446.223,74.042 446.225,163.825 179.264,163.825 179.264,9.161 388.838,9.161 388.838,13.187 183.293,13.187 	"/>
	<polygon fill-rule="evenodd" clip-rule="evenodd" points="479.688,5.326 423.109,43.431 420.842,40.104 477.414,2 
		479.688,5.326 	"/>
	<polygon points="50.039,60.186 50.039,116.498 41.431,116.498 10.377,78.367 10.377,116.498 0,116.498 0,60.186 
		8.607,60.186 39.661,98.318 39.661,60.186 50.039,60.186 	"/>
	<path d="M104.582,95.262c0,0.698-0.053,1.689-0.161,2.978H70.713c0.591,3.163,2.133,5.67,4.626,7.521
		c2.493,1.849,5.591,2.777,9.292,2.777c4.719,0,8.607-1.558,11.665-4.669l5.39,6.196c-1.931,2.305-4.372,4.05-7.321,5.229
		c-2.95,1.18-6.275,1.771-9.976,1.771c-4.72,0-8.876-0.939-12.469-2.816c-3.594-1.878-6.369-4.492-8.327-7.843
		c-1.957-3.352-2.936-7.147-2.936-11.385c0-4.183,0.952-7.949,2.855-11.302c1.904-3.352,4.545-5.967,7.924-7.845
		c3.378-1.877,7.187-2.814,11.423-2.814c4.184,0,7.925,0.924,11.224,2.775c3.297,1.851,5.872,4.452,7.723,7.803
		C103.657,86.989,104.582,90.862,104.582,95.262L104.582,95.262z M82.861,81.103c-3.217,0-5.939,0.952-8.165,2.856
		c-2.227,1.903-3.58,4.438-4.063,7.602h24.376c-0.43-3.11-1.743-5.631-3.942-7.562C88.868,82.067,86.133,81.103,82.861,81.103
		L82.861,81.103z"/>
	<path d="M133.543,117.063c-4.344,0-8.259-0.939-11.746-2.816c-3.486-1.878-6.208-4.492-8.165-7.843
		c-1.957-3.352-2.936-7.147-2.936-11.385c0-4.236,0.979-8.017,2.936-11.343c1.958-3.325,4.679-5.926,8.165-7.804
		c3.487-1.877,7.402-2.814,11.746-2.814c4.398,0,8.34,0.938,11.826,2.814c3.486,1.877,6.208,4.479,8.166,7.804
		c1.957,3.326,2.936,7.106,2.936,11.343c0,4.237-0.979,8.033-2.936,11.385c-1.958,3.351-4.68,5.965-8.166,7.843
		C141.883,116.124,137.942,117.063,133.543,117.063L133.543,117.063z M133.543,108.456c3.701,0,6.757-1.234,9.171-3.701
		c2.414-2.468,3.621-5.713,3.621-9.735c0-4.021-1.207-7.268-3.621-9.734c-2.414-2.466-5.471-3.7-9.171-3.7s-6.744,1.234-9.131,3.7
		c-2.387,2.467-3.58,5.714-3.58,9.734c0,4.022,1.193,7.268,3.58,9.735C126.8,107.222,129.843,108.456,133.543,108.456
		L133.543,108.456z"/>
</g>
</svg>
