<?xml version="1.0" encoding="utf-8"?>
<!DOCTYPE svg PUBLIC "-//W3C//DTD SVG 1.1//EN" "http://www.w3.org/Graphics/SVG/1.1/DTD/svg11.dtd">
<svg version="1.1" xmlns="http://www.w3.org/2000/svg" xmlns:xlink="http://www.w3.org/1999/xlink" x="0px" y="0px" width="590.029px" height="162.68px" viewBox="0 0 590.029 162.68" enable-background="new 0 0 590.029 162.68" xml:space="preserve">
	<g>
		<path fill-rule="evenodd" clip-rule="evenodd" d="M296.489,107.059v7.377H291V54.93h5.644V79.2
			c1.47-1.941,3.287-3.551,5.456-4.81c3.13-1.816,6.556-2.648,10.171-2.648c3.793,0,7.404,0.848,10.707,2.722
			c3.228,1.833,5.733,4.405,7.532,7.652c1.905,3.438,2.716,7.213,2.716,11.129c0,3.899-0.807,7.668-2.717,11.089
			c-1.807,3.235-4.316,5.798-7.527,7.648c-3.298,1.9-6.908,2.763-10.711,2.763c-3.669,0-7.135-0.856-10.295-2.73
			C299.781,110.716,297.956,109.052,296.489,107.059L296.489,107.059z M312.037,109.492c2.828,0,5.516-0.629,7.964-2.059
			c2.387-1.393,4.22-3.316,5.551-5.736c1.438-2.614,2.033-5.484,2.033-8.451c0-2.97-0.595-5.84-2.033-8.454
			c-1.331-2.419-3.164-4.345-5.551-5.736c-2.448-1.428-5.136-2.06-7.964-2.06c-2.814,0-5.488,0.623-7.923,2.059
			c-2.372,1.396-4.19,3.328-5.518,5.737c-1.437,2.614-2.031,5.484-2.031,8.454c0,2.967,0.595,5.837,2.031,8.451
			c1.326,2.41,3.146,4.342,5.519,5.738C306.549,108.871,309.223,109.492,312.037,109.492L312.037,109.492z"/>
		<path fill-rule="evenodd" clip-rule="evenodd" d="M369.789,109.154c-1.208,1.432-2.683,2.596-4.397,3.507
			c-2.88,1.531-6.127,2.086-9.36,2.086c-3.998,0-8.081-0.809-11.256-3.388c-2.868-2.326-4.254-5.398-4.254-9.084
			c0-3.53,1.248-6.545,3.92-8.872c3.188-2.774,8.071-3.367,12.134-3.367h13.058v-2.395c0-2.92-0.63-5.916-2.808-8.009
			c-2.221-2.137-5.406-2.714-8.382-2.714c-2.555,0-5.046,0.439-7.435,1.345c-2.193,0.832-4.248,1.985-5.988,3.565l-0.739,0.67
			l-2.955-4.256l0.576-0.515c2.214-1.99,4.809-3.425,7.607-4.417c2.98-1.057,6.083-1.568,9.245-1.568c4.417,0,8.907,0.96,12.2,4.094
			c3.295,3.135,4.32,7.551,4.32,11.96v26.639h-5.486V109.154L369.789,109.154z M369.633,101.402v-6.581h-12.98
			c-2.562,0-6.052,0.302-8.128,1.984c-1.677,1.362-2.362,3.173-2.362,5.313c0,2.288,0.801,4.161,2.621,5.573
			c2.163,1.678,5.129,2.114,7.792,2.114c2.876,0,5.691-0.589,8.119-2.191C367.004,106.095,368.583,103.935,369.633,101.402
			L369.633,101.402z"/>
		<path fill-rule="evenodd" clip-rule="evenodd" d="M395.444,78.627c1.324-1.758,2.979-3.209,4.954-4.353
			c3.143-1.822,6.677-2.531,10.284-2.531c4.769,0,9.253,1.263,12.683,4.692c3.571,3.569,4.696,8.478,4.696,13.383v24.617h-5.646
			V90.132c0-3.505-0.695-7.216-3.215-9.822c-2.411-2.492-5.678-3.313-9.063-3.313c-4.035,0-7.804,1.054-10.655,4.012
			c-2.874,2.983-3.881,6.848-3.881,10.913v22.515h-5.645V72.054h5.487V78.627L395.444,78.627z"/>
		<polygon fill-rule="evenodd" clip-rule="evenodd" points="457.833,93.121 448.223,101.882 448.223,114.436 
			442.581,114.436 442.581,54.93 448.223,54.93 448.223,94.686 473.008,72.054 480.542,72.054 462.002,89.44 481.853,114.436 
			474.795,114.436 457.833,93.121 		"/>
		<polygon fill-rule="evenodd" clip-rule="evenodd" points="257.635,11.187 257.635,157.799 516.541,157.799 
			516.541,72.042 520.565,72.042 520.566,161.825 253.606,161.825 253.606,7.161 463.18,7.161 463.18,11.187 257.635,11.187 		"/>
		<polygon fill-rule="evenodd" clip-rule="evenodd" points="554.03,3.326 497.451,41.431 495.184,38.104 551.756,0 
			554.03,3.326 		"/>
		<polygon points="124.38,58.186 124.38,114.498 115.772,114.498 84.719,76.367 84.719,114.498 74.342,114.498 
			74.342,58.186 82.949,58.186 114.002,96.319 114.002,58.186 124.38,58.186 		"/>
		<path d="M178.924,93.262c0,0.698-0.053,1.689-0.161,2.978h-33.708c0.591,3.163,2.133,5.67,4.626,7.521
			c2.493,1.849,5.591,2.777,9.292,2.777c4.719,0,8.607-1.558,11.665-4.669l5.39,6.196c-1.931,2.305-4.372,4.05-7.321,5.229
			c-2.95,1.18-6.275,1.771-9.976,1.771c-4.72,0-8.876-0.939-12.469-2.816c-3.594-1.878-6.369-4.492-8.327-7.843
			C135.978,101.053,135,97.257,135,93.02c0-4.183,0.952-7.949,2.855-11.302c1.904-3.352,4.545-5.967,7.924-7.845
			c3.378-1.877,7.187-2.814,11.423-2.814c4.184,0,7.925,0.924,11.224,2.775c3.297,1.851,5.872,4.452,7.723,7.803
			C177.999,84.99,178.924,88.863,178.924,93.262L178.924,93.262z M157.202,79.103c-3.217,0-5.939,0.952-8.165,2.856
			c-2.227,1.903-3.58,4.438-4.063,7.602h24.376c-0.43-3.11-1.743-5.631-3.942-7.562C163.21,80.068,160.474,79.103,157.202,79.103
			L157.202,79.103z"/>
		<path d="M207.885,115.064c-4.344,0-8.259-0.939-11.746-2.816c-3.486-1.878-6.208-4.492-8.165-7.843
			c-1.957-3.352-2.936-7.147-2.936-11.385c0-4.236,0.979-8.017,2.936-11.343c1.958-3.325,4.679-5.926,8.165-7.804
			c3.487-1.877,7.402-2.814,11.746-2.814c4.398,0,8.34,0.938,11.826,2.814c3.486,1.877,6.208,4.479,8.166,7.804
			c1.957,3.326,2.936,7.106,2.936,11.343c0,4.237-0.979,8.033-2.936,11.385c-1.958,3.351-4.68,5.965-8.166,7.843
			C216.225,114.124,212.283,115.064,207.885,115.064L207.885,115.064z M207.885,106.456c3.701,0,6.757-1.234,9.171-3.701
			c2.414-2.468,3.621-5.713,3.621-9.735c0-4.021-1.207-7.268-3.621-9.734c-2.414-2.466-5.471-3.7-9.171-3.7s-6.744,1.234-9.131,3.7
			c-2.387,2.467-3.58,5.714-3.58,9.734c0,4.022,1.193,7.268,3.58,9.735C201.141,105.222,204.184,106.456,207.885,106.456
			L207.885,106.456z"/>
	</g>
</svg>
