<?xml version="1.0" encoding="utf-8"?>
<!-- Generator: Adobe Illustrator 16.0.0, SVG Export Plug-In . SVG Version: 6.00 Build 0)  -->
<!DOCTYPE svg PUBLIC "-//W3C//DTD SVG 1.1//EN" "http://www.w3.org/Graphics/SVG/1.1/DTD/svg11.dtd">
<svg version="1.1" id="Layer_1" xmlns="http://www.w3.org/2000/svg" xmlns:xlink="http://www.w3.org/1999/xlink" x="0px" y="0px"
	 width="300px" height="75px" viewBox="0 0 300 75" enable-background="new 0 0 300 75" xml:space="preserve">
<path fill="#231F20" d="M71.621,41.71V9.61h12.384c2.756-0.115,5.431,0.935,7.373,2.892c1.937,2.026,2.964,4.753,2.848,7.553
	c0.108,2.824-0.917,5.576-2.848,7.64c-1.937,1.971-4.61,3.038-7.373,2.938H77.45V41.71H71.621L71.621,41.71z M77.453,25.569
	L77.453,25.569h5.47c3.021-0.039,5.438-2.522,5.399-5.542c-0.039-2.931-2.379-5.311-5.309-5.398h-5.559L77.453,25.569L77.453,25.569
	z"/>
<path fill="#231F20" d="M116.12,21.546c2.446,2.193,3.802,5.352,3.707,8.635c0.083,3.286-1.251,6.448-3.662,8.682
	c-5.147,4.519-12.849,4.519-17.996,0c-2.41-2.233-3.745-5.396-3.662-8.682c-0.091-3.273,1.246-6.425,3.662-8.635
	C103.275,16.964,111.014,16.964,116.12,21.546L116.12,21.546z M102.284,35.381L102.284,35.381c2.714,2.653,7.051,2.653,9.767,0
	c1.335-1.395,2.054-3.269,1.988-5.2c0.063-1.928-0.673-3.794-2.034-5.16c-2.615-2.673-6.902-2.719-9.575-0.103l-0.102,0.103
	c-2.637,2.941-2.656,7.389-0.044,10.353V35.381L102.284,35.381z"/>
<path fill="#231F20" d="M126.208,41.71l-7.007-23.058h6.058l4.023,15.146l0.453,2.442h0.09c0.139-0.822,0.32-1.638,0.543-2.442
	l4.25-15.103h5.108l4.25,15.103l0.498,2.442h0.092c0.099-0.825,0.265-1.643,0.496-2.442l4.024-15.146h5.967l-7.008,23.058h-6.374
	l-3.89-13.157l-0.589-2.486h-0.09c-0.134,0.839-0.314,1.669-0.543,2.486l-3.934,13.157H126.208L126.208,41.71z"/>
<path fill="#231F20" d="M160.107,21.501c2.231-2.274,5.315-3.504,8.5-3.392c2.845-0.15,5.605,0.997,7.505,3.119
	c1.856,2.174,2.824,4.966,2.713,7.823c-0.01,0.739-0.069,1.479-0.182,2.211h-15.871c0.239,3.589,3.328,6.313,6.919,6.104
	c2.427-0.059,4.76-0.952,6.601-2.531l2.261,4.113c-2.613,2.143-5.891,3.31-9.271,3.303c-3.349,0.127-6.603-1.132-8.994-3.483
	c-4.512-4.844-4.59-12.33-0.18-17.27V21.501L160.107,21.501z M173.081,27.332L173.081,27.332c0.207-2.485-1.643-4.666-4.128-4.869
	c-0.161-0.014-0.323-0.018-0.482-0.015c-2.825-0.021-5.217,2.08-5.559,4.884H173.081L173.081,27.332z"/>
<path fill="#231F20" d="M182.317,41.71V18.652h5.511v3.762c1.09-3.392,4.838-4.079,7.327-4.079c0.225,0,0.591,0.046,1.085,0.091
	v5.652c-0.464-0.064-0.933-0.095-1.402-0.091c-1.995-0.114-3.91,0.81-5.065,2.442c-1.179,1.762-1.779,3.849-1.717,5.968v9.313
	L182.317,41.71L182.317,41.71z"/>
<path fill="#231F20" d="M201.81,41.71V9.61h11.439c5.966,0,9.946,3.074,9.946,8.274c0.079,2.835-1.419,5.482-3.889,6.873v0.09
	c3.26,1.027,5.403,4.14,5.201,7.552c0.166,2.702-1.021,5.309-3.166,6.962c-2.306,1.632-5.088,2.458-7.911,2.35H201.81L201.81,41.71z
	 M207.642,22.722L207.642,22.722h5.648c2.103,0.101,3.888-1.52,3.991-3.623c0.008-0.164,0.004-0.329-0.008-0.492
	c0.134-2.068-1.434-3.854-3.499-3.988c-0.191-0.012-0.382-0.009-0.572,0.006h-5.561V22.722L207.642,22.722z M207.642,36.691
	L207.642,36.691h6.238c2.56,0,4.634-2.075,4.634-4.633c0-2.56-2.074-4.635-4.634-4.635h-6.238V36.691L207.642,36.691z"/>
<path fill="#231F20" d="M232.877,28.694c2.749-1.014,5.664-1.504,8.593-1.448h0.992v-0.317c0-2.712-1.445-4.069-4.339-4.069
	c-2.318,0.058-4.559,0.831-6.419,2.211l-2.125-4.113c1.216-0.886,2.58-1.558,4.021-1.989c1.61-0.569,3.307-0.86,5.015-0.86
	c6.014,0,9.583,3.392,9.583,9.179v14.421h-5.334v-1.944l0.137-1.671h-0.092c-1.519,2.576-4.288,4.158-7.277,4.16
	c-1.98,0.049-3.911-0.625-5.427-1.9c-1.429-1.268-2.221-3.103-2.171-5.012C227.998,32.296,229.972,29.59,232.877,28.694
	L232.877,28.694z M237.221,37.872L237.221,37.872c1.498,0.021,2.915-0.687,3.798-1.897c0.96-1.175,1.488-2.644,1.494-4.16v-0.632
	h-0.996c-5.199,0-7.775,1.221-7.775,3.663c0.066,1.743,1.532,3.103,3.273,3.038l0.199-0.014L237.221,37.872L237.221,37.872z"/>
<path fill="#231F20" d="M252.406,41.711V18.654h5.514v3.648c0.589-1.222,2.838-4.191,8.184-4.191c5.377,0,8.048,2.941,8.048,8.771
	v14.829h-5.742V28.058c0-3.074-0.904-4.702-3.617-4.702c-1.86-0.061-3.645,0.74-4.837,2.17c-1.236,1.516-1.879,3.427-1.809,5.381
	v10.805H252.406L252.406,41.711z"/>
<polygon fill="#231F20" points="278.648,41.71 278.648,9.61 284.387,9.61 284.387,26.792 287.234,26.792 292.797,18.654 
	299.174,18.654 291.893,28.961 291.893,29.053 300.078,41.713 293.477,41.713 287.372,31.63 284.388,31.63 284.388,41.713 
	278.648,41.71 "/>
<polygon fill-rule="evenodd" clip-rule="evenodd" fill="#231F20" points="187.775,65.926 187.775,71.576 196.468,71.576 
	196.468,73.676 185.466,73.676 185.466,56.565 196.415,56.565 196.415,58.677 187.775,58.677 187.775,63.826 195.338,63.826 
	195.338,65.926 187.775,65.926 "/>
<polygon fill-rule="evenodd" clip-rule="evenodd" fill="#231F20" points="166.529,71.576 174.512,71.576 174.512,73.676 
	164.208,73.676 164.208,56.565 166.529,56.565 166.529,71.576 "/>
<polygon fill-rule="evenodd" clip-rule="evenodd" fill="#231F20" points="151.489,73.676 149.179,73.676 149.179,56.565 
	151.489,56.565 151.489,73.676 "/>
<path fill-rule="evenodd" clip-rule="evenodd" fill="#231F20" d="M127.977,63.815h3.25c0.811-0.017,1.711-0.168,2.356-0.697
	c0.578-0.476,0.764-1.152,0.764-1.883c0-0.737-0.173-1.453-0.784-1.918c-0.705-0.535-1.798-0.641-2.651-0.641h-2.936V63.815
	L127.977,63.815z M127.977,65.903v5.673h3.625c0.883,0,1.785-0.184,2.468-0.779c0.638-0.554,0.865-1.296,0.865-2.127
	c0-0.786-0.225-1.485-0.823-2.015c-0.659-0.583-1.544-0.752-2.4-0.752H127.977L127.977,65.903z M134.861,64.709
	c0.543,0.274,1.02,0.658,1.422,1.159c0.645,0.811,0.962,1.748,0.962,2.784c0,1.442-0.442,2.74-1.544,3.701
	c-1.152,1.005-2.665,1.322-4.156,1.322h-5.88v-17.11h5.247c1.454,0,3.066,0.239,4.234,1.176c1.104,0.879,1.519,2.143,1.519,3.525
	c0,0.898-0.238,1.736-0.774,2.462C135.6,64.124,135.253,64.448,134.861,64.709L134.861,64.709z"/>
<polygon fill-rule="evenodd" clip-rule="evenodd" fill="#231F20" points="80.291,70.083 85.96,56.565 88.564,56.565 88.564,73.676 
	86.257,73.676 86.257,66.156 86.33,61.363 81.133,73.676 79.454,73.676 74.28,61.42 74.353,66.117 74.353,73.676 72.046,73.676 
	72.046,56.565 74.642,56.565 80.291,70.083 "/>
<path fill-rule="evenodd" clip-rule="evenodd" fill="#231F20" d="M107.01,73.859c-4.704,0-8.519-3.914-8.519-8.74
	s3.815-8.74,8.519-8.74s8.52,3.914,8.52,8.74S111.714,73.859,107.01,73.859L107.01,73.859z M107.01,71.796
	c-3.338,0-6.046-2.991-6.046-6.677c0-3.687,2.708-6.677,6.046-6.677s6.046,2.99,6.046,6.677
	C113.057,68.805,110.349,71.796,107.01,71.796L107.01,71.796z"/>
<path fill-rule="evenodd" clip-rule="evenodd" fill="#231F20" d="M194.605,37.24c1.261,0,2.285,1.022,2.285,2.284
	c0,1.263-1.024,2.285-2.285,2.285c-1.264,0-2.285-1.022-2.285-2.285C192.32,38.263,193.342,37.24,194.605,37.24L194.605,37.24z"/>
<linearGradient id="SVGID_1_" gradientUnits="userSpaceOnUse" x1="27.6289" y1="54.9824" x2="27.6289" y2="1.3262">
	<stop  offset="0.0049" style="stop-color:#C8E8FA"/>
	<stop  offset="0.1958" style="stop-color:#83D2F4"/>
	<stop  offset="0.5" style="stop-color:#7CC6ED"/>
	<stop  offset="0.72" style="stop-color:#A17FB8"/>
	<stop  offset="1" style="stop-color:#BD7DB3"/>
</linearGradient>
<path fill="url(#SVGID_1_)" d="M27.627,44.889c-9.243,0-16.735-7.491-16.735-16.734c0-9.243,7.493-16.735,16.735-16.735V1.326
	c-14.817,0-26.829,12.013-26.826,26.83c0,14.818,12.012,26.828,26.83,26.827c14.816,0,26.827-12.013,26.827-26.828H44.364
	C44.364,37.352,36.823,44.889,27.627,44.889L27.627,44.889z"/>
<linearGradient id="SVGID_2_" gradientUnits="userSpaceOnUse" x1="38.6641" y1="28.0981" x2="38.6641" y2="4.2817">
	<stop  offset="0" style="stop-color:#83D2F4"/>
	<stop  offset="0.0049" style="stop-color:#C8E8FA"/>
	<stop  offset="0.5" style="stop-color:#A17FB8"/>
	<stop  offset="1" style="stop-color:#BD7DB3"/>
</linearGradient>
<path fill="url(#SVGID_2_)" d="M36.286,26.463c-2.179,2.18-5.712,2.18-7.892,0c-2.178-2.18-2.178-5.713,0-7.893L41.046,5.917
	c2.18-2.18,5.712-2.18,7.892-0.001c2.168,2.168,2.172,5.721,0.004,7.892L36.286,26.463L36.286,26.463z"/>
</svg>
