<?xml version="1.0" encoding="utf-8"?>
<!-- Generator: Adobe Illustrator 16.0.0, SVG Export Plug-In . SVG Version: 6.00 Build 0)  -->
<!DOCTYPE svg PUBLIC "-//W3C//DTD SVG 1.1//EN" "http://www.w3.org/Graphics/SVG/1.1/DTD/svg11.dtd">
<svg version="1.1" id="Layer_1" xmlns="http://www.w3.org/2000/svg" xmlns:xlink="http://www.w3.org/1999/xlink" x="0px" y="0px"
	 width="300px" height="75px" viewBox="0 0 300 75" enable-background="new 0 0 300 75" xml:space="preserve">
<path fill="#231F20" d="M71.621,41.71V9.61h12.384c2.756-0.115,5.431,0.935,7.373,2.892c1.937,2.026,2.964,4.753,2.848,7.553
	c0.108,2.824-0.917,5.576-2.848,7.64c-1.938,1.971-4.61,3.038-7.373,2.938H77.45V41.71H71.621L71.621,41.71z M77.453,25.569
	L77.453,25.569h5.47c3.021-0.039,5.438-2.522,5.398-5.542c-0.038-2.931-2.379-5.311-5.309-5.398h-5.559L77.453,25.569L77.453,25.569
	z"/>
<path fill="#231F20" d="M116.12,21.546c2.445,2.193,3.802,5.352,3.707,8.635c0.083,3.286-1.251,6.448-3.662,8.682
	c-5.147,4.519-12.85,4.519-17.996,0c-2.41-2.233-3.745-5.396-3.662-8.682c-0.091-3.273,1.246-6.425,3.662-8.635
	C103.275,16.964,111.014,16.964,116.12,21.546L116.12,21.546z M102.284,35.381L102.284,35.381c2.714,2.653,7.051,2.653,9.767,0
	c1.335-1.395,2.054-3.269,1.988-5.2c0.063-1.928-0.673-3.794-2.034-5.16c-2.615-2.673-6.902-2.719-9.575-0.103l-0.102,0.103
	c-2.638,2.941-2.656,7.389-0.044,10.353V35.381L102.284,35.381z"/>
<path fill="#231F20" d="M126.208,41.71l-7.007-23.058h6.058l4.023,15.146l0.452,2.442h0.091c0.139-0.822,0.319-1.638,0.543-2.442
	l4.25-15.103h5.107l4.25,15.103l0.498,2.442h0.092c0.1-0.825,0.266-1.643,0.496-2.442l4.024-15.146h5.967l-7.008,23.058h-6.374
	l-3.891-13.157l-0.589-2.486h-0.09c-0.134,0.839-0.313,1.669-0.543,2.486l-3.934,13.157H126.208L126.208,41.71z"/>
<path fill="#231F20" d="M160.107,21.501c2.231-2.274,5.315-3.504,8.5-3.392c2.846-0.15,5.605,0.997,7.505,3.119
	c1.856,2.174,2.824,4.966,2.714,7.823c-0.011,0.739-0.069,1.479-0.183,2.211h-15.871c0.239,3.589,3.328,6.313,6.919,6.104
	c2.428-0.059,4.761-0.952,6.602-2.531l2.261,4.112c-2.613,2.144-5.891,3.311-9.271,3.304c-3.35,0.127-6.604-1.132-8.994-3.483
	c-4.513-4.844-4.591-12.33-0.181-17.27L160.107,21.501L160.107,21.501z M173.081,27.332L173.081,27.332
	c0.207-2.485-1.644-4.666-4.128-4.869c-0.161-0.014-0.323-0.018-0.482-0.015c-2.825-0.021-5.217,2.08-5.559,4.884H173.081
	L173.081,27.332z"/>
<path fill="#231F20" d="M182.317,41.71V18.652h5.512v3.762c1.09-3.392,4.838-4.079,7.326-4.079c0.226,0,0.592,0.046,1.086,0.091
	v5.652c-0.465-0.064-0.934-0.095-1.402-0.091c-1.995-0.114-3.91,0.81-5.065,2.442c-1.179,1.762-1.778,3.849-1.717,5.968v9.313
	H182.317L182.317,41.71z"/>
<path fill="#231F20" d="M201.81,41.71V9.61h11.439c5.966,0,9.945,3.074,9.945,8.274c0.079,2.835-1.419,5.482-3.889,6.873v0.09
	c3.26,1.027,5.403,4.14,5.201,7.552c0.166,2.702-1.021,5.309-3.166,6.962c-2.306,1.632-5.088,2.457-7.911,2.35L201.81,41.71
	L201.81,41.71z M207.642,22.722L207.642,22.722h5.648c2.103,0.101,3.888-1.52,3.99-3.623c0.009-0.164,0.005-0.329-0.008-0.492
	c0.135-2.068-1.434-3.854-3.499-3.988c-0.19-0.012-0.382-0.009-0.571,0.006h-5.562L207.642,22.722L207.642,22.722z M207.642,36.691
	L207.642,36.691h6.238c2.56,0,4.634-2.075,4.634-4.633c0-2.56-2.074-4.635-4.634-4.635h-6.238V36.691L207.642,36.691z"/>
<path fill="#231F20" d="M232.877,28.694c2.749-1.014,5.664-1.504,8.593-1.448h0.992v-0.317c0-2.712-1.445-4.069-4.339-4.069
	c-2.318,0.058-4.56,0.831-6.419,2.211l-2.125-4.113c1.216-0.886,2.58-1.558,4.021-1.989c1.61-0.569,3.308-0.86,5.015-0.86
	c6.015,0,9.583,3.392,9.583,9.179v14.421h-5.334v-1.943l0.138-1.672h-0.092c-1.52,2.576-4.288,4.158-7.277,4.16
	c-1.98,0.049-3.911-0.625-5.427-1.9c-1.43-1.268-2.222-3.103-2.171-5.012C227.998,32.296,229.972,29.59,232.877,28.694
	L232.877,28.694z M237.221,37.872L237.221,37.872c1.498,0.021,2.915-0.687,3.798-1.897c0.96-1.175,1.488-2.644,1.494-4.16v-0.632
	h-0.996c-5.199,0-7.774,1.221-7.774,3.663c0.065,1.743,1.531,3.103,3.272,3.038l0.199-0.014L237.221,37.872L237.221,37.872z"/>
<path fill="#231F20" d="M252.406,41.711V18.654h5.515v3.648c0.589-1.222,2.838-4.191,8.184-4.191c5.377,0,8.048,2.941,8.048,8.771
	v14.829h-5.741V28.058c0-3.074-0.904-4.702-3.617-4.702c-1.86-0.061-3.646,0.74-4.837,2.17c-1.236,1.516-1.879,3.427-1.81,5.381
	v10.805L252.406,41.711L252.406,41.711z"/>
<polygon fill="#231F20" points="278.648,41.71 278.648,9.61 284.387,9.61 284.387,26.792 287.234,26.792 292.797,18.654 
	299.174,18.654 291.893,28.961 291.893,29.053 300.077,41.713 293.477,41.713 287.372,31.63 284.388,31.63 284.388,41.713 "/>
<polygon fill="#231F20" points="233.775,63.926 233.775,69.576 242.468,69.576 242.468,71.676 231.466,71.676 231.466,54.564 
	242.415,54.564 242.415,56.678 233.775,56.678 233.775,61.826 241.338,61.826 241.338,63.926 "/>
<polygon fill="#231F20" points="212.529,69.576 220.512,69.576 220.512,71.676 210.208,71.676 210.208,54.564 212.529,54.564 "/>
<polygon fill="#231F20" points="197.489,71.676 195.179,71.676 195.179,54.564 197.489,54.564 "/>
<path fill="#231F20" d="M173.977,61.814h3.25c0.812-0.017,1.711-0.168,2.356-0.696c0.578-0.476,0.764-1.152,0.764-1.884
	c0-0.736-0.173-1.452-0.784-1.918c-0.705-0.534-1.798-0.641-2.65-0.641h-2.937L173.977,61.814L173.977,61.814z M173.977,63.902
	v5.674h3.625c0.883,0,1.785-0.184,2.468-0.779c0.639-0.554,0.865-1.296,0.865-2.127c0-0.786-0.225-1.484-0.823-2.016
	c-0.658-0.582-1.544-0.752-2.399-0.752H173.977L173.977,63.902z M180.861,62.709c0.543,0.273,1.021,0.658,1.423,1.159
	c0.645,0.812,0.962,1.748,0.962,2.784c0,1.441-0.442,2.74-1.544,3.701c-1.152,1.004-2.665,1.321-4.156,1.321h-5.88v-17.11h5.247
	c1.454,0,3.065,0.24,4.233,1.177c1.104,0.879,1.52,2.143,1.52,3.524c0,0.898-0.238,1.736-0.774,2.463
	C181.6,62.124,181.253,62.447,180.861,62.709L180.861,62.709z"/>
<polygon fill="#231F20" points="126.291,68.083 131.96,54.564 134.564,54.564 134.564,71.676 132.257,71.676 132.257,64.156 
	132.33,59.363 127.133,71.676 125.454,71.676 120.28,59.42 120.353,64.117 120.353,71.676 118.046,71.676 118.046,54.564 
	120.642,54.564 "/>
<path fill="#231F20" d="M153.01,71.859c-4.704,0-8.519-3.914-8.519-8.74s3.814-8.74,8.519-8.74s8.52,3.914,8.52,8.74
	S157.714,71.859,153.01,71.859L153.01,71.859z M153.01,69.796c-3.338,0-6.046-2.991-6.046-6.677c0-3.688,2.708-6.678,6.046-6.678
	s6.046,2.99,6.046,6.678C159.057,66.805,156.349,69.796,153.01,69.796L153.01,69.796z"/>
<path fill="#231F20" d="M194.605,37.24c1.262,0,2.285,1.022,2.285,2.284c0,1.264-1.023,2.285-2.285,2.285
	c-1.264,0-2.285-1.021-2.285-2.285C192.32,38.264,193.342,37.24,194.605,37.24L194.605,37.24z"/>
<linearGradient id="SVGID_1_" gradientUnits="userSpaceOnUse" x1="275.2307" y1="-349.8823" x2="275.2307" y2="-296.2266" gradientTransform="matrix(1 0 0 -1 -247.5996 -294.9004)">
	<stop  offset="0.0049" style="stop-color:#C8E8FA"/>
	<stop  offset="0.1958" style="stop-color:#83D2F4"/>
	<stop  offset="0.5" style="stop-color:#7CC6ED"/>
	<stop  offset="0.72" style="stop-color:#A17FB8"/>
	<stop  offset="1" style="stop-color:#BD7DB3"/>
</linearGradient>
<path fill="url(#SVGID_1_)" d="M27.627,44.889c-9.243,0-16.735-7.491-16.735-16.734c0-9.243,7.493-16.735,16.735-16.735V1.326
	c-14.817,0-26.829,12.013-26.826,26.83c0,14.819,12.012,26.829,26.83,26.827c14.815,0,26.827-12.012,26.827-26.828H44.364
	C44.364,37.352,36.823,44.889,27.627,44.889L27.627,44.889z"/>
<linearGradient id="SVGID_2_" gradientUnits="userSpaceOnUse" x1="286.2639" y1="-322.9985" x2="286.2639" y2="-299.1821" gradientTransform="matrix(1 0 0 -1 -247.5996 -294.9004)">
	<stop  offset="0" style="stop-color:#83D2F4"/>
	<stop  offset="0.0049" style="stop-color:#C8E8FA"/>
	<stop  offset="0.5" style="stop-color:#A17FB8"/>
	<stop  offset="1" style="stop-color:#BD7DB3"/>
</linearGradient>
<path fill="url(#SVGID_2_)" d="M36.286,26.463c-2.18,2.18-5.712,2.18-7.893,0c-2.178-2.18-2.178-5.713,0-7.893L41.046,5.917
	c2.18-2.18,5.712-2.18,7.892-0.001c2.168,2.168,2.172,5.721,0.004,7.892L36.286,26.463L36.286,26.463z"/>
</svg>
