<?xml version="1.0" encoding="utf-8"?>
<!DOCTYPE svg PUBLIC "-//W3C//DTD SVG 1.1//EN" "http://www.w3.org/Graphics/SVG/1.1/DTD/svg11.dtd">
<svg version="1.1" xmlns="http://www.w3.org/2000/svg" xmlns:xlink="http://www.w3.org/1999/xlink" x="0px" y="0px" width="216px" height="216px" viewBox="0 0 216 216" enable-background="new 0 0 216 216" xml:space="preserve">
<path d="M73.817,67.209L39.54,92.715c-3.402,1.799-5.725,5.374-5.725,9.48v0.006l41.96,31.471
	l4.462,3.347l22.155,16.616c1.873,1.401,4.097,2.146,6.43,2.146c2.332,0,4.557-0.744,6.429-2.146l0,0l61.764-46.328
	c1.061-0.42,1.889-1.052,2.519-1.889l4.297-3.223c0-3.877-2.075-7.283-5.17-9.166l-34.973-26.052c-1.189,0.15-2.392,0.229-3.61,0.24
	l-17.864-0.041c-6.682,0.329-5.926,7.321-1.799,12.567c0.723,0.193,1.438,0.413,2.137,0.658c3.281,1.146,6.104,2.803,8.444,4.958
	c2.344,2.157,4.126,4.716,5.369,7.667c1.235,2.953,1.849,6.212,1.849,9.781c0,2.782-0.5,5.5-1.495,8.167
	c-0.991,2.666-2.421,5.063-4.281,7.188c-1.848,2.124-4.033,3.802-6.539,5.044c-2.519,1.231-5.228,1.849-8.124,1.849
	c-1.678,0-2.985-0.289-3.919-0.861c-0.935-0.564-1.563-1.475-1.869-2.718c-1.805,1.783-3.875,2.909-6.222,3.376
	s-4.618,0.243-6.816-0.658c-2.199-0.901-3.972-2.421-5.333-4.553c-1.356-2.137-2.037-4.77-2.037-7.902
	c0-3.26,0.701-6.457,2.102-9.61c1.401-3.154,3.388-5.733,5.967-7.75c2.582-2.009,5.501-3.016,8.761-3.016
	c3.727,0,6.467,1.401,8.209,4.204l0.784-3.462h8.209l-4.725,22.309c-0.301,1.414-0.438,2.336-0.438,2.795
	c0,0.479,0.118,0.861,0.354,1.125c0.243,0.265,0.532,0.402,0.861,0.402c1.112,0,2.566-0.731,4.342-2.197
	c1.763-1.454,3.314-3.448,4.63-5.967c1.316-2.517,1.975-5.268,1.975-8.262c0-2.484-0.467-4.83-1.414-7.029
	c-0.946-2.2-2.314-4.099-4.086-5.723c-1.787-1.615-3.992-2.878-6.616-3.792c-2.624-0.914-5.598-1.369-8.909-1.369
	c-3.388,0-6.487,0.445-9.3,1.328c-2.827,0.879-5.301,2.145-7.435,3.79c-2.135,1.646-3.917,3.684-5.352,6.115
	c-1.263,2.114-2.23,4.46-2.888,7.031c-0.668,2.569-0.998,5.193-0.998,7.868c0,3.568,0.711,6.826,2.135,9.779
	c1.411,2.965,3.481,5.438,6.19,7.433c2.697,2.007,5.967,3.433,9.809,4.269c3.834,0.841,8.166,1.012,12.998,0.512
	c3.834-0.459,7.084-1.328,9.748-2.615c2.665-1.283,4.927-3.087,6.775-5.414h6.624c-1.072,2.222-2.485,4.203-4.216,5.946
	c-1.73,1.742-3.757,3.209-6.08,4.407c-2.319,1.189-4.919,2.092-7.807,2.717c-2.88,0.63-6.02,0.935-9.43,0.935
	c-5.098,0-9.693-0.666-13.771-2.007c-4.088-1.336-7.528-3.27-10.321-5.788c-2.785-2.514-4.896-5.52-6.331-9.025
	c-1.432-3.493-2.145-7.344-2.145-11.584c0-4.417,0.733-8.546,2.208-12.38c1.477-3.834,3.591-7.167,6.361-10.002
	c2.772-2.835,6.149-5.042,10.142-6.637c2.717-1.09,5.625-1.809,8.725-2.154c-9.259-5.508-15.731-12.163-24.772-11.708l-0.175,0.01
	h-8.036L73.817,67.209L73.817,67.209z M99.605,111.673c0,2.494,0.52,4.396,1.549,5.724c1.04,1.328,2.399,1.994,4.076,1.994
	c1.954,0,3.664-0.784,5.15-2.336c1.487-1.56,2.612-3.525,3.38-5.892c0.764-2.38,1.146-4.673,1.146-6.891
	c0-1.095-0.126-2.083-0.382-2.963c-0.264-0.884-0.65-1.657-1.157-2.328c-0.513-0.656-1.117-1.156-1.839-1.505
	c-0.71-0.341-1.528-0.512-2.44-0.512c-1.818,0-3.463,0.713-4.927,2.136c-1.466,1.41-2.581,3.258-3.377,5.53
	C99.998,106.904,99.605,109.252,99.605,111.673L99.605,111.673z"/>
</svg>
