<?xml version="1.0" encoding="utf-8"?>
<!DOCTYPE svg PUBLIC "-//W3C//DTD SVG 1.1//EN" "http://www.w3.org/Graphics/SVG/1.1/DTD/svg11.dtd">
<svg version="1.1" xmlns="http://www.w3.org/2000/svg" xmlns:xlink="http://www.w3.org/1999/xlink" x="0px" y="0px" width="216px" height="216px" viewBox="0 0 216 216" enable-background="new 0 0 216 216" xml:space="preserve">
<path fill-rule="evenodd" clip-rule="evenodd" d="M161.219,39.093c-0.021,2.951-0.573,5.688-1.657,8.237
	c-1.081,2.546-2.612,4.797-4.541,6.708c-1.909,1.929-4.159,3.458-6.71,4.541c-2.547,1.083-5.285,1.635-8.233,1.657l-20.171-0.045
	c-12.673,0.611-10.741,18.022,5.418,25.183c-17.404-1.765-17.502-15.156-34.466-22.969c-2.524-1.347-5.158-2.352-8.755-2.169h-7.821
	c-2.951-0.022-5.688-0.575-8.235-1.657c-2.549-1.083-4.799-2.612-6.73-4.541c-1.932-1.911-3.44-4.164-4.521-6.708
	c-1.083-2.547-1.637-5.287-1.657-8.237c0.021-2.951,0.575-5.69,1.657-8.235c1.081-2.547,2.589-4.797,4.521-6.73
	c1.931-1.909,4.184-3.438,6.73-4.521c2.547-1.083,5.285-1.635,8.235-1.655h65.795c2.948,0.02,5.687,0.573,8.233,1.655
	c2.551,1.083,4.801,2.612,6.71,4.521c1.929,1.934,3.46,4.182,4.541,6.73C160.646,33.405,161.198,36.142,161.219,39.093
	L161.219,39.093z M127.685,33.504c-3.047,0-5.516,2.47-5.516,5.516c0,3.048,2.469,5.52,5.516,5.52c3.046,0,5.52-2.472,5.52-5.52
	C133.204,35.974,130.73,33.504,127.685,33.504L127.685,33.504z M106.019,33.504c-3.046,0-5.518,2.47-5.518,5.516
	c0,3.048,2.472,5.52,5.518,5.52s5.518-2.472,5.518-5.52C111.537,35.974,109.065,33.504,106.019,33.504L106.019,33.504z
	 M84.352,33.504c-3.046,0-5.518,2.47-5.518,5.516c0,3.048,2.472,5.52,5.518,5.52s5.518-2.472,5.518-5.52
	C89.869,35.974,87.398,33.504,84.352,33.504L84.352,33.504z"/>

</svg>
