<?xml version="1.0" encoding="utf-8"?>
<!DOCTYPE svg PUBLIC "-//W3C//DTD SVG 1.1//EN" "http://www.w3.org/Graphics/SVG/1.1/DTD/svg11.dtd">
<svg version="1.1" xmlns="http://www.w3.org/2000/svg" xmlns:xlink="http://www.w3.org/1999/xlink" x="0px" y="0px" width="216px" height="216px" viewBox="0 0 216 216" enable-background="new 0 0 216 216" xml:space="preserve">
<path id="_x33_" fill-rule="evenodd" clip-rule="evenodd" fill="#F58031" d="M161.219,39.093c-0.021,2.951-0.573,5.688-1.657,8.237
	c-1.081,2.546-2.612,4.797-4.541,6.708c-1.909,1.929-4.159,3.458-6.71,4.541c-2.547,1.083-5.285,1.635-8.233,1.657l-20.171-0.045
	c-12.673,0.611-10.741,18.022,5.418,25.183c-17.404-1.765-17.502-15.156-34.466-22.969c-2.524-1.347-5.158-2.352-8.755-2.169h-7.821
	c-2.951-0.022-5.688-0.575-8.235-1.657c-2.549-1.083-4.799-2.612-6.73-4.541c-1.932-1.911-3.44-4.164-4.521-6.708
	c-1.083-2.547-1.637-5.287-1.657-8.237c0.021-2.951,0.575-5.69,1.657-8.235c1.081-2.547,2.589-4.797,4.521-6.73
	c1.931-1.909,4.184-3.438,6.73-4.521c2.547-1.083,5.285-1.635,8.235-1.655h65.795c2.948,0.02,5.687,0.573,8.233,1.655
	c2.551,1.083,4.801,2.612,6.71,4.521c1.929,1.934,3.46,4.182,4.541,6.73C160.646,33.405,161.198,36.142,161.219,39.093
	L161.219,39.093z M127.685,33.504c-3.047,0-5.516,2.47-5.516,5.516c0,3.048,2.469,5.52,5.516,5.52c3.046,0,5.52-2.472,5.52-5.52
	C133.204,35.974,130.73,33.504,127.685,33.504L127.685,33.504z M106.019,33.504c-3.046,0-5.518,2.47-5.518,5.516
	c0,3.048,2.472,5.52,5.518,5.52s5.518-2.472,5.518-5.52C111.537,35.974,109.065,33.504,106.019,33.504L106.019,33.504z
	 M84.352,33.504c-3.046,0-5.518,2.47-5.518,5.516c0,3.048,2.472,5.52,5.518,5.52s5.518-2.472,5.518-5.52
	C89.869,35.974,87.398,33.504,84.352,33.504L84.352,33.504z"/>
<path id="_x32_" fill-rule="evenodd" clip-rule="evenodd" fill="#999557" d="M16.282,0.112h183.275c8.896,0,16.17,7.277,16.17,16.17
	v183.275c0,8.892-7.274,16.17-16.17,16.17H16.282c-8.894,0-16.17-7.278-16.17-16.17V16.282C0.112,7.389,7.389,0.112,16.282,0.112
	L16.282,0.112z M16.282,5.102h183.275c6.149,0,11.178,5.031,11.178,11.18v183.275c0,6.149-5.028,11.178-11.178,11.178H16.282
	c-6.149,0-11.18-5.028-11.18-11.178V16.282C5.102,10.133,10.133,5.102,16.282,5.102L16.282,5.102z M60.092,63.385
	c-9.415,7.36-18.869,14.525-28.386,21.639c-5.225,3.907-8.609,10.144-8.609,17.171v69.649c0,11.832,9.598,21.431,21.432,21.431
	h128.582c11.836,0,21.434-9.599,21.434-21.431v-69.649c0-5.916-2.4-11.275-6.279-15.152c-8.55-8.552-19.398-17.135-30.91-25.756
	c-1.925,1.507-4.041,2.75-6.315,3.717c-2.356,1.003-4.821,1.651-7.353,1.974l34.973,26.052c3.095,1.883,5.17,5.289,5.17,9.166
	l-4.297,3.223c-0.63,0.837-1.458,1.468-2.519,1.889l-61.764,46.328l0,0c-1.872,1.401-4.098,2.146-6.429,2.146
	c-2.333,0-4.558-0.744-6.43-2.146l-22.155-16.616l-4.462-3.347l-41.96-31.471v-0.006c0-4.106,2.323-7.681,5.725-9.48l34.277-25.506
	c-3.619-0.075-7.161-0.788-10.5-2.206C62.203,64.53,61.126,63.99,60.092,63.385L60.092,63.385z M33.815,108.891L33.815,108.891
	l37.496,28.128l-37.496,28.128V108.891L33.815,108.891z M183.83,171.844L183.83,171.844c0,5.91-4.809,10.716-10.719,10.716H44.53
	c-5.908,0-10.715-4.806-10.715-10.716l41.96-31.475l23.404,17.556c2.857,2.136,6.247,3.213,9.643,3.213
	c3.395,0,6.787-1.077,9.642-3.213l23.404-17.556L183.83,171.844L183.83,171.844z M183.83,165.146L183.83,165.146l-37.498-28.128
	l37.498-28.128V165.146L183.83,165.146z"/>
<path id="_x31_" fill="#7E5628" d="M73.817,67.209L39.54,92.715c-3.402,1.799-5.725,5.374-5.725,9.48v0.006l41.96,31.471
	l4.462,3.347l22.155,16.616c1.873,1.401,4.097,2.146,6.43,2.146c2.332,0,4.557-0.744,6.429-2.146l0,0l61.764-46.328
	c1.061-0.42,1.889-1.052,2.519-1.889l4.297-3.223c0-3.877-2.075-7.283-5.17-9.166l-34.973-26.052c-1.189,0.15-2.392,0.229-3.61,0.24
	l-17.864-0.041c-6.682,0.329-5.926,7.321-1.799,12.567c0.723,0.193,1.438,0.413,2.137,0.658c3.281,1.146,6.104,2.803,8.444,4.958
	c2.344,2.157,4.126,4.716,5.369,7.667c1.235,2.953,1.849,6.212,1.849,9.781c0,2.782-0.5,5.5-1.495,8.167
	c-0.991,2.666-2.421,5.063-4.281,7.188c-1.848,2.124-4.033,3.802-6.539,5.044c-2.519,1.231-5.228,1.849-8.124,1.849
	c-1.678,0-2.985-0.289-3.919-0.861c-0.935-0.564-1.563-1.475-1.869-2.718c-1.805,1.783-3.875,2.909-6.222,3.376
	s-4.618,0.243-6.816-0.658c-2.199-0.901-3.972-2.421-5.333-4.553c-1.356-2.137-2.037-4.77-2.037-7.902
	c0-3.26,0.701-6.457,2.102-9.61c1.401-3.154,3.388-5.733,5.967-7.75c2.582-2.009,5.501-3.016,8.761-3.016
	c3.727,0,6.467,1.401,8.209,4.204l0.784-3.462h8.209l-4.725,22.309c-0.301,1.414-0.438,2.336-0.438,2.795
	c0,0.479,0.118,0.861,0.354,1.125c0.243,0.265,0.532,0.402,0.861,0.402c1.112,0,2.566-0.731,4.342-2.197
	c1.763-1.454,3.314-3.448,4.63-5.967c1.316-2.517,1.975-5.268,1.975-8.262c0-2.484-0.467-4.83-1.414-7.029
	c-0.946-2.2-2.314-4.099-4.086-5.723c-1.787-1.615-3.992-2.878-6.616-3.792c-2.624-0.914-5.598-1.369-8.909-1.369
	c-3.388,0-6.487,0.445-9.3,1.328c-2.827,0.879-5.301,2.145-7.435,3.79c-2.135,1.646-3.917,3.684-5.352,6.115
	c-1.263,2.114-2.23,4.46-2.888,7.031c-0.668,2.569-0.998,5.193-0.998,7.868c0,3.568,0.711,6.826,2.135,9.779
	c1.411,2.965,3.481,5.438,6.19,7.433c2.697,2.007,5.967,3.433,9.809,4.269c3.834,0.841,8.166,1.012,12.998,0.512
	c3.834-0.459,7.084-1.328,9.748-2.615c2.665-1.283,4.927-3.087,6.775-5.414h6.624c-1.072,2.222-2.485,4.203-4.216,5.946
	c-1.73,1.742-3.757,3.209-6.08,4.407c-2.319,1.189-4.919,2.092-7.807,2.717c-2.88,0.63-6.02,0.935-9.43,0.935
	c-5.098,0-9.693-0.666-13.771-2.007c-4.088-1.336-7.528-3.27-10.321-5.788c-2.785-2.514-4.896-5.52-6.331-9.025
	c-1.432-3.493-2.145-7.344-2.145-11.584c0-4.417,0.733-8.546,2.208-12.38c1.477-3.834,3.591-7.167,6.361-10.002
	c2.772-2.835,6.149-5.042,10.142-6.637c2.717-1.09,5.625-1.809,8.725-2.154c-9.259-5.508-15.731-12.163-24.772-11.708l-0.175,0.01
	h-8.036L73.817,67.209L73.817,67.209z M99.605,111.673c0,2.494,0.52,4.396,1.549,5.724c1.04,1.328,2.399,1.994,4.076,1.994
	c1.954,0,3.664-0.784,5.15-2.336c1.487-1.56,2.612-3.525,3.38-5.892c0.764-2.38,1.146-4.673,1.146-6.891
	c0-1.095-0.126-2.083-0.382-2.963c-0.264-0.884-0.65-1.657-1.157-2.328c-0.513-0.656-1.117-1.156-1.839-1.505
	c-0.71-0.341-1.528-0.512-2.44-0.512c-1.818,0-3.463,0.713-4.927,2.136c-1.466,1.41-2.581,3.258-3.377,5.53
	C99.998,106.904,99.605,109.252,99.605,111.673L99.605,111.673z"/>
</svg>
