<?xml version="1.0" encoding="utf-8"?>
<!DOCTYPE svg PUBLIC "-//W3C//DTD SVG 1.1//EN" "http://www.w3.org/Graphics/SVG/1.1/DTD/svg11.dtd">
<svg version="1.1" xmlns="http://www.w3.org/2000/svg" xmlns:xlink="http://www.w3.org/1999/xlink" x="0px" y="0px" width="216px" height="216px" viewBox="0 0 216 216" enable-background="new 0 0 216 216" xml:space="preserve">

<path fill-rule="evenodd" clip-rule="evenodd" d="M16.282,0.112h183.275c8.896,0,16.17,7.277,16.17,16.17
	v183.275c0,8.892-7.274,16.17-16.17,16.17H16.282c-8.894,0-16.17-7.278-16.17-16.17V16.282C0.112,7.389,7.389,0.112,16.282,0.112
	L16.282,0.112z M16.282,5.102h183.275c6.149,0,11.178,5.031,11.178,11.18v183.275c0,6.149-5.028,11.178-11.178,11.178H16.282
	c-6.149,0-11.18-5.028-11.18-11.178V16.282C5.102,10.133,10.133,5.102,16.282,5.102L16.282,5.102z M60.092,63.385
	c-9.415,7.36-18.869,14.525-28.386,21.639c-5.225,3.907-8.609,10.144-8.609,17.171v69.649c0,11.832,9.598,21.431,21.432,21.431
	h128.582c11.836,0,21.434-9.599,21.434-21.431v-69.649c0-5.916-2.4-11.275-6.279-15.152c-8.55-8.552-19.398-17.135-30.91-25.756
	c-1.925,1.507-4.041,2.75-6.315,3.717c-2.356,1.003-4.821,1.651-7.353,1.974l34.973,26.052c3.095,1.883,5.17,5.289,5.17,9.166
	l-4.297,3.223c-0.63,0.837-1.458,1.468-2.519,1.889l-61.764,46.328l0,0c-1.872,1.401-4.098,2.146-6.429,2.146
	c-2.333,0-4.558-0.744-6.43-2.146l-22.155-16.616l-4.462-3.347l-41.96-31.471v-0.006c0-4.106,2.323-7.681,5.725-9.48l34.277-25.506
	c-3.619-0.075-7.161-0.788-10.5-2.206C62.203,64.53,61.126,63.99,60.092,63.385L60.092,63.385z M33.815,108.891L33.815,108.891
	l37.496,28.128l-37.496,28.128V108.891L33.815,108.891z M183.83,171.844L183.83,171.844c0,5.91-4.809,10.716-10.719,10.716H44.53
	c-5.908,0-10.715-4.806-10.715-10.716l41.96-31.475l23.404,17.556c2.857,2.136,6.247,3.213,9.643,3.213
	c3.395,0,6.787-1.077,9.642-3.213l23.404-17.556L183.83,171.844L183.83,171.844z M183.83,165.146L183.83,165.146l-37.498-28.128
	l37.498-28.128V165.146L183.83,165.146z"/>

</svg>
