<?xml version="1.0" encoding="utf-8"?>
<!DOCTYPE svg PUBLIC "-//W3C//DTD SVG 1.1//EN" "http://www.w3.org/Graphics/SVG/1.1/DTD/svg11.dtd">
<svg version="1.1" xmlns="http://www.w3.org/2000/svg" xmlns:xlink="http://www.w3.org/1999/xlink" x="0px" y="0px"
	 width="595.275px" height="283.465px" viewBox="0 0 595.275 283.465" enable-background="new 0 0 595.275 283.465"
	 xml:space="preserve">
<path d="M142.593,273.889h8.199V257.31c0.03-0.889,0.181-1.738,0.45-2.559c0.261-0.819,0.631-1.551,1.1-2.189
	c0.46-0.65,1.021-1.16,1.65-1.53c0.64-0.38,1.349-0.57,2.13-0.58c1.599-0.011,2.779,0.5,3.519,1.53
	c0.75,1.029,1.119,2.668,1.109,4.91v16.997h8.2V257.31c0.03-0.889,0.18-1.738,0.451-2.559c0.26-0.819,0.629-1.551,1.1-2.189
	c0.459-0.65,1.02-1.16,1.659-1.53c0.63-0.38,1.341-0.57,2.12-0.58c1.09-0.011,1.98,0.211,2.66,0.65
	c0.679,0.449,1.18,1.139,1.5,2.089c0.32,0.949,0.47,2.19,0.47,3.701v0.589v16.408h8.199v-16.997c-0.009-3.021-0.458-5.5-1.35-7.45
	c-0.89-1.95-2.159-3.39-3.819-4.33c-1.659-0.939-3.65-1.409-5.96-1.399c-1.55,0.01-2.899,0.209-4.069,0.618
	c-1.159,0.402-2.159,0.949-2.99,1.642c-0.83,0.688-1.52,1.47-2.071,2.341c-0.549,0.87-0.979,1.779-1.299,2.719
	c-0.279-1.51-0.739-2.812-1.379-3.899c-0.631-1.09-1.47-1.932-2.51-2.521c-1.04-0.59-2.32-0.89-3.84-0.899
	c-1.339,0.01-2.52,0.209-3.539,0.599c-1.01,0.381-1.89,0.912-2.629,1.58c-0.731,0.671-1.351,1.43-1.86,2.27l-1.34-3.568h-5.86
	V273.889L142.593,273.889z"/>
<path d="M201.717,259.06c0.009-1.95,0.321-3.558,0.929-4.827c0.602-1.282,1.412-2.231,2.421-2.853c1.01-0.62,2.14-0.929,3.39-0.929
	c1.2,0,2.28,0.289,3.229,0.89c0.96,0.59,1.72,1.499,2.299,2.711c0.581,1.219,0.901,2.748,0.971,4.599v0.881
	c-0.07,1.859-0.39,3.42-0.971,4.68c-0.579,1.259-1.339,2.209-2.299,2.849c-0.95,0.648-2.03,0.971-3.229,0.971
	c-1.25,0-2.38-0.34-3.39-1.021c-1.009-0.682-1.819-1.691-2.421-3.021C202.038,262.66,201.727,261.02,201.717,259.06L201.717,259.06z
	 M193.168,259.06c0.01,2.271,0.341,4.359,0.989,6.269c0.641,1.902,1.561,3.562,2.761,4.971c1.19,1.412,2.61,2.51,4.259,3.279
	c1.64,0.781,3.459,1.181,5.46,1.19c1.35-0.01,2.57-0.229,3.68-0.658c1.1-0.432,2.08-1.042,2.939-1.812
	c0.86-0.77,1.601-1.658,2.23-2.691l1.819,4.281h6.149v-29.297h-6.149l-1.639,4.34c-0.651-1.051-1.41-1.958-2.281-2.74
	c-0.869-0.778-1.869-1.381-2.989-1.821c-1.121-0.427-2.371-0.648-3.76-0.658c-2.001,0.01-3.82,0.39-5.46,1.131
	c-1.649,0.738-3.069,1.799-4.259,3.159c-1.2,1.368-2.12,2.989-2.761,4.859C193.509,254.729,193.178,256.8,193.168,259.06
	L193.168,259.06z"/>
<path fill-rule="evenodd" clip-rule="evenodd" d="M228.533,268.014c0.061,0.177,0.126,0.352,0.198,0.525
	c0.48,1.171,1.261,2.222,2.331,3.149c1.07,0.939,2.488,1.681,4.249,2.231c1.76,0.55,3.919,0.839,6.48,0.849
	c2.129-0.01,3.988-0.259,5.569-0.738c1.581-0.49,2.889-1.161,3.93-2.01c1.039-0.86,1.809-1.86,2.32-2.991
	c0.52-1.131,0.769-2.34,0.769-3.641c-0.02-1.577-0.329-2.879-0.94-3.92c-0.609-1.038-1.411-1.868-2.421-2.497
	c-0.999-0.641-2.098-1.141-3.297-1.511c-1.201-0.371-2.41-0.681-3.611-0.922c-1.199-0.249-2.3-0.5-3.299-0.759
	c-1.01-0.259-1.81-0.599-2.419-1.01c-0.611-0.409-0.92-0.98-0.941-1.679c-0.008-0.781,0.272-1.412,0.821-1.89
	c0.551-0.49,1.409-0.741,2.581-0.751c1.579-0.011,2.738,0.229,3.499,0.719c0.747,0.482,1.117,1.254,1.13,2.324l6.908-5.02
	c-0.422-0.601-0.933-1.161-1.528-1.682c-1.061-0.94-2.419-1.682-4.081-2.232c-1.66-0.547-3.64-0.839-5.928-0.849
	c-2.73,0.01-4.98,0.39-6.741,1.131c-1.77,0.749-3.079,1.77-3.928,3.089c-0.861,1.309-1.282,2.841-1.282,4.569
	c0.021,1.579,0.331,2.909,0.941,3.988c0.609,1.07,1.409,1.962,2.419,2.66c0.999,0.691,2.1,1.262,3.299,1.702
	c1.211,0.429,2.411,0.798,3.611,1.098c1.199,0.312,2.299,0.603,3.299,0.892c1.01,0.278,1.81,0.629,2.419,1.018
	c0.611,0.399,0.92,0.912,0.94,1.53c0,0.781-0.34,1.412-1.01,1.89c-0.669,0.49-1.689,0.741-3.028,0.752
	c-1.761,0.01-3.081-0.229-3.96-0.72c-0.822-0.458-1.259-1.177-1.314-2.171L228.533,268.014L228.533,268.014z"/>
<path d="M257.692,251.333h4.688v11.896c0,2.159,0.36,4.029,1.09,5.619c0.741,1.602,1.86,2.83,3.36,3.711
	c1.51,0.87,3.421,1.319,5.739,1.329h5.221v-7.088h-4.46c-0.829,0.008-1.492-0.412-1.991-1.261c-0.49-0.851-0.75-2.209-0.759-4.071
	v-10.136h7.21v-6.741h-7.21v-7.03h-8.2v7.03h-4.688V251.333L257.692,251.333z"/>
<path d="M282.143,259.069c0.011-2.409,0.391-4.559,1.13-6.458c0.751-1.89,1.8-3.502,3.151-4.831c1.35-1.319,2.939-2.33,4.768-3.021
	c1.831-0.699,3.832-1.048,6.01-1.048c2.171,0.01,4.15,0.38,5.93,1.121c1.77,0.729,3.301,1.758,4.589,3.077
	c1.282,1.32,2.271,2.862,2.96,4.632c0.69,1.759,1.042,3.688,1.052,5.769v2.399h-20.919c0.031,1.399,0.319,2.648,0.871,3.75
	c0.559,1.09,1.339,1.96,2.339,2.6c1,0.631,2.168,0.96,3.53,0.971c2.273,0,3.519-0.857,5.099-2.602
	c0.074-0.081,0.574-0.906,0.574-1.017l6.166,5.256c-0.743,0.809-1.633,1.809-2.72,2.57c-1.087,0.763-2.361,1.382-3.862,1.831
	c-1.497,0.458-3.248,0.689-5.257,0.699c-2.18-0.01-4.2-0.38-6.07-1.099c-1.86-0.73-3.489-1.78-4.89-3.15
	c-1.39-1.37-2.479-3.02-3.26-4.95C282.554,263.65,282.154,261.481,282.143,259.069L282.143,259.069z M290.813,255.729h12.6
	c-0.02-1.09-0.271-2.07-0.741-2.96c-0.469-0.879-1.159-1.58-2.08-2.107c-0.909-0.521-2.039-0.792-3.39-0.802
	c-1.349,0.01-2.499,0.281-3.439,0.802c-0.95,0.527-1.671,1.229-2.17,2.107C291.093,253.659,290.834,254.64,290.813,255.729
	L290.813,255.729z"/>
<path d="M316.949,273.889h8.201v-14.89c0.037-1.38,0.339-2.599,0.907-3.658c0.561-1.061,1.399-1.9,2.521-2.501
	c1.107-0.609,2.51-0.919,4.188-0.929h1.171v-7.319h-1.171c-1.479,0.01-2.739,0.261-3.767,0.729
	c-1.043,0.481-1.892,1.121-2.562,1.932c-0.671,0.81-1.2,1.719-1.58,2.729l-2.051-5.389h-5.858V273.889L316.949,273.889z"/>
<path fill-rule="evenodd" clip-rule="evenodd" d="M334.385,259.06c0.01,2.271,0.391,4.359,1.13,6.269
	c0.741,1.902,1.789,3.562,3.15,4.971c1.35,1.412,2.96,2.51,4.81,3.279c1.858,0.781,3.899,1.181,6.138,1.19
	c2.45-0.02,4.581-0.429,6.391-1.229c1.799-0.812,3.31-1.922,4.5-3.34c0.097-0.117,0.188-0.236,0.281-0.354l-5.269-5.267
	c-0.936,1.581-3.328,3.545-6.201,3.451c-1.241-0.042-2.34-0.391-3.289-1.129c-0.963-0.741-1.712-1.782-2.261-3.111
	c-0.541-1.341-0.82-2.919-0.831-4.73c0.011-1.799,0.29-3.34,0.831-4.628c0.549-1.282,1.298-2.26,2.261-2.95
	c0.949-0.681,2.048-1.021,3.289-1.03c0.939,0,1.728,0.138,2.379,0.39c1.826,0.71,2.887,1.373,3.731,3.098l5.32-5.32
	c-0.129-0.177-0.269-0.348-0.413-0.518c-1.168-1.358-2.65-2.429-4.439-3.198c-1.789-0.781-3.877-1.171-6.28-1.19
	c-2.238,0.01-4.279,0.39-6.138,1.131c-1.85,0.738-3.46,1.799-4.81,3.159c-1.361,1.368-2.409,2.989-3.15,4.859
	C334.775,254.729,334.395,256.8,334.385,259.06L334.385,259.06z"/>
<path d="M370.934,259.06c0.01-1.95,0.322-3.558,0.93-4.827c0.602-1.282,1.412-2.231,2.42-2.853c1.01-0.62,2.14-0.929,3.39-0.929
	c1.2,0,2.282,0.289,3.231,0.89c0.96,0.59,1.719,1.499,2.299,2.711c0.58,1.219,0.899,2.748,0.973,4.599v0.881
	c-0.073,1.859-0.393,3.42-0.973,4.68c-0.58,1.259-1.339,2.209-2.299,2.849c-0.949,0.648-2.031,0.971-3.231,0.971
	c-1.25,0-2.38-0.34-3.39-1.021c-1.008-0.682-1.818-1.691-2.42-3.021C371.256,262.66,370.943,261.02,370.934,259.06L370.934,259.06z
	 M362.386,259.06c0.01,2.271,0.339,4.359,0.99,6.269c0.64,1.902,1.558,3.562,2.758,4.971c1.189,1.412,2.611,2.51,4.26,3.279
	c1.641,0.781,3.461,1.181,5.462,1.19c1.35-0.01,2.568-0.229,3.679-0.658c1.099-0.432,2.08-1.042,2.938-1.812
	c0.861-0.77,1.603-1.658,2.231-2.691l1.821,4.281h6.148v-29.297h-6.148l-1.641,4.34c-0.649-1.051-1.412-1.958-2.281-2.74
	c-0.869-0.778-1.869-1.381-2.989-1.821c-1.12-0.427-2.371-0.648-3.758-0.658c-2.001,0.01-3.821,0.39-5.462,1.131
	c-1.648,0.738-3.07,1.799-4.26,3.159c-1.2,1.368-2.118,2.989-2.758,4.859C362.725,254.729,362.396,256.8,362.386,259.06
	L362.386,259.06z"/>
<path d="M400.298,273.889h8.198v-14.89c0.041-1.38,0.342-2.599,0.911-3.658c0.561-1.061,1.399-1.9,2.52-2.501
	c1.108-0.609,2.511-0.919,4.188-0.929h1.172v-7.319h-1.172c-1.478,0.01-2.738,0.261-3.767,0.729
	c-1.042,0.481-1.893,1.121-2.561,1.932c-0.671,0.81-1.2,1.719-1.58,2.729l-2.051-5.389h-5.859V273.889L400.298,273.889z"/>
<path d="M429.721,259.06c0.01-1.95,0.319-3.558,0.929-4.827c0.601-1.282,1.41-2.231,2.421-2.853c1.01-0.62,2.14-0.929,3.389-0.929
	c1.198,0,2.281,0.289,3.231,0.89c0.958,0.59,1.719,1.499,2.299,2.711c0.578,1.219,0.899,2.748,0.971,4.599v0.409
	c-0.013,1.96-0.3,3.601-0.86,4.93c-0.57,1.329-1.341,2.339-2.321,3.021c-0.97,0.681-2.08,1.021-3.319,1.021
	c-1.249,0-2.379-0.34-3.389-1.021c-1.011-0.682-1.82-1.691-2.421-3.021C430.04,262.66,429.73,261.02,429.721,259.06L429.721,259.06z
	 M421.17,259.06c0.01,2.271,0.339,4.359,0.99,6.269c0.641,1.902,1.56,3.562,2.758,4.971c1.191,1.412,2.611,2.51,4.262,3.279
	c1.641,0.781,3.46,1.181,5.461,1.19c1.349-0.01,2.567-0.229,3.668-0.658c1.109-0.432,2.091-1.042,2.95-1.812s1.601-1.658,2.23-2.691
	l1.81,4.281h5.858v-39.667h-8.197v13.649c-0.963-1.28-2.141-2.279-3.521-3.019c-1.38-0.751-2.98-1.121-4.799-1.141
	c-2.001,0.01-3.82,0.39-5.461,1.131c-1.65,0.738-3.07,1.799-4.262,3.159c-1.198,1.368-2.117,2.989-2.758,4.859
	C421.509,254.729,421.18,256.8,421.17,259.06L421.17,259.06L421.17,259.06z"/>
<path fill-rule="evenodd" clip-rule="evenodd" fill="#A12449" d="M359.899,10.592c-57.364,0-103.883,46.52-103.883,103.883
	c0,57.365,46.519,103.883,103.883,103.883c57.363,0,103.881-46.518,103.881-103.883C463.78,57.11,417.263,10.592,359.899,10.592
	L359.899,10.592z M359.899,13.129c55.961,0,101.347,45.383,101.347,101.346c0,55.963-45.386,101.349-101.347,101.349
	c-55.962,0-101.348-45.386-101.348-101.349C258.552,58.512,303.938,13.129,359.899,13.129L359.899,13.129z"/>
<path fill-rule="evenodd" clip-rule="evenodd" d="M230.883,10.592C173.519,10.592,127,57.111,127,114.475
	c0,57.365,46.519,103.883,103.883,103.883c57.364,0,103.883-46.518,103.883-103.883C334.766,57.11,288.247,10.592,230.883,10.592
	L230.883,10.592z M230.883,13.129c55.961,0,101.346,45.383,101.346,101.346c0,55.963-45.384,101.349-101.346,101.349
	c-55.962,0-101.346-45.386-101.346-101.349C129.537,58.512,174.92,13.129,230.883,13.129L230.883,13.129z"/>

</svg>
