<?xml version="1.0" encoding="utf-8"?>
<!DOCTYPE svg PUBLIC "-//W3C//DTD SVG 1.1//EN">
<svg version="1.1" id="Layer_5" xmlns="http://www.w3.org/2000/svg" xmlns:xlink="http://www.w3.org/1999/xlink" x="0px" y="0px"
	 width="250px" height="200px" viewBox="0 0 250 200" enable-background="new 0 0 250 200" xml:space="preserve">
<path fill="#231F20" d="M14.393,196.988h5.919v-11.968c0.023-0.643,0.132-1.257,0.327-1.848c0.187-0.593,0.455-1.122,0.793-1.583
	c0.332-0.47,0.738-0.837,1.193-1.104c0.462-0.274,0.972-0.409,1.537-0.42c1.154-0.008,2.008,0.36,2.542,1.106
	c0.542,0.743,0.807,1.928,0.8,3.545v12.271h5.92v-11.968c0.022-0.643,0.132-1.257,0.326-1.848c0.188-0.593,0.455-1.122,0.795-1.583
	c0.329-0.47,0.736-0.837,1.197-1.104c0.455-0.274,0.967-0.409,1.53-0.42c0.786-0.008,1.429,0.152,1.922,0.472
	c0.489,0.323,0.85,0.822,1.081,1.506c0.231,0.688,0.339,1.58,0.339,2.674v0.424v11.847h5.92v-12.271
	c-0.008-2.18-0.332-3.973-0.974-5.381c-0.643-1.406-1.559-2.444-2.759-3.125c-1.197-0.677-2.635-1.016-4.301-1.01
	c-1.118,0.007-2.094,0.152-2.938,0.447c-0.838,0.289-1.559,0.685-2.159,1.184c-0.599,0.497-1.098,1.063-1.495,1.688
	c-0.398,0.629-0.707,1.287-0.939,1.965c-0.201-1.091-0.533-2.028-0.995-2.817c-0.457-0.787-1.06-1.391-1.813-1.818
	c-0.751-0.427-1.674-0.642-2.772-0.648c-0.967,0.007-1.819,0.152-2.555,0.434c-0.729,0.274-1.364,0.656-1.899,1.139
	c-0.528,0.486-0.974,1.034-1.344,1.639l-0.966-2.576h-4.232V196.988L14.393,196.988z"/>
<path fill="#231F20" d="M57.081,186.284c0.007-1.41,0.229-2.572,0.67-3.49c0.434-0.923,1.02-1.606,1.747-2.056
	c0.729-0.446,1.545-0.672,2.448-0.672c0.868,0,1.646,0.212,2.333,0.643c0.693,0.426,1.242,1.083,1.661,1.957
	c0.419,0.882,0.649,1.986,0.701,3.319v0.636c-0.052,1.343-0.281,2.472-0.701,3.382c-0.419,0.908-0.968,1.594-1.661,2.054
	c-0.687,0.47-1.465,0.703-2.333,0.703c-0.902,0-1.719-0.247-2.448-0.736c-0.727-0.493-1.313-1.222-1.747-2.181
	C57.31,188.881,57.087,187.697,57.081,186.284L57.081,186.284z M50.908,186.284c0.007,1.639,0.247,3.146,0.715,4.524
	c0.462,1.371,1.125,2.571,1.993,3.59c0.857,1.018,1.884,1.812,3.075,2.367c1.184,0.563,2.498,0.851,3.942,0.857
	c0.974-0.007,1.854-0.167,2.656-0.475c0.795-0.31,1.502-0.751,2.122-1.306c0.622-0.556,1.156-1.197,1.61-1.943l1.313,3.089h4.44
	v-21.151h-4.44l-1.182,3.132c-0.471-0.757-1.02-1.412-1.648-1.976c-0.626-0.565-1.349-0.996-2.157-1.316
	c-0.808-0.309-1.711-0.468-2.714-0.475c-1.444,0.007-2.758,0.281-3.942,0.815c-1.191,0.534-2.218,1.298-3.075,2.281
	c-0.868,0.989-1.531,2.159-1.993,3.511C51.154,183.155,50.915,184.652,50.908,186.284L50.908,186.284z"/>
<path fill-rule="evenodd" clip-rule="evenodd" fill="#231F20" d="M76.44,192.75c0.043,0.123,0.091,0.252,0.142,0.378
	c0.347,0.843,0.91,1.6,1.685,2.274c0.771,0.676,1.794,1.211,3.065,1.606c1.271,0.4,2.832,0.607,4.681,0.614
	c1.537-0.007,2.878-0.188,4.021-0.534c1.139-0.351,2.086-0.836,2.836-1.451c0.75-0.617,1.305-1.339,1.675-2.156
	c0.375-0.815,0.555-1.69,0.555-2.629c-0.015-1.142-0.238-2.079-0.678-2.828c-0.441-0.753-1.018-1.352-1.747-1.807
	c-0.722-0.461-1.518-0.822-2.382-1.09c-0.868-0.268-1.739-0.489-2.607-0.662c-0.865-0.182-1.659-0.362-2.381-0.55
	c-0.729-0.188-1.307-0.435-1.747-0.729c-0.44-0.299-0.665-0.709-0.68-1.216c-0.006-0.562,0.197-1.017,0.594-1.363
	c0.396-0.351,1.018-0.531,1.861-0.542c1.143-0.008,1.979,0.166,2.527,0.521c0.539,0.347,0.806,0.902,0.816,1.677l4.988-3.625
	c-0.304-0.43-0.673-0.836-1.103-1.215c-0.767-0.677-1.748-1.212-2.948-1.607c-1.197-0.4-2.625-0.607-4.28-0.614
	c-1.968,0.007-3.593,0.281-4.864,0.815c-1.277,0.541-2.225,1.276-2.837,2.229c-0.621,0.947-0.925,2.054-0.925,3.302
	c0.016,1.14,0.237,2.102,0.678,2.879c0.441,0.774,1.017,1.415,1.747,1.92c0.723,0.5,1.517,0.91,2.382,1.229
	c0.875,0.309,1.742,0.576,2.607,0.796c0.866,0.222,1.66,0.432,2.381,0.643c0.729,0.201,1.308,0.454,1.746,0.736
	c0.442,0.288,0.666,0.655,0.682,1.103c0,0.563-0.248,1.018-0.729,1.365c-0.485,0.354-1.222,0.535-2.188,0.542
	c-1.271,0.008-2.226-0.167-2.86-0.521c-0.592-0.329-0.909-0.847-0.948-1.569L76.44,192.75L76.44,192.75z"/>
<path fill="#231F20" d="M97.491,180.701h3.385v8.593c0,1.559,0.261,2.91,0.788,4.057c0.535,1.154,1.344,2.044,2.427,2.679
	c1.09,0.629,2.468,0.952,4.142,0.959h3.771v-5.118h-3.222c-0.597,0.008-1.077-0.294-1.436-0.909
	c-0.354-0.615-0.541-1.594-0.549-2.937v-7.323h5.207v-4.864h-5.207v-5.076h-5.921v5.076h-3.385V180.701L97.491,180.701z"/>
<path fill="#231F20" d="M115.145,186.291c0.007-1.739,0.281-3.291,0.817-4.663c0.541-1.363,1.297-2.527,2.274-3.489
	c0.975-0.95,2.12-1.681,3.444-2.179c1.319-0.505,2.764-0.758,4.335-0.758c1.568,0.007,2.996,0.273,4.281,0.809
	c1.277,0.526,2.387,1.271,3.316,2.223c0.922,0.953,1.639,2.066,2.135,3.343c0.5,1.271,0.754,2.663,0.76,4.167v1.731h-15.103
	c0.021,1.011,0.23,1.914,0.628,2.708c0.402,0.785,0.966,1.414,1.688,1.874c0.723,0.456,1.565,0.696,2.548,0.703
	c1.643,0,2.541-0.619,3.684-1.879c0.053-0.059,0.412-0.652,0.412-0.732l4.453,3.794c-0.535,0.584-1.178,1.304-1.963,1.855
	c-0.785,0.551-1.705,0.995-2.787,1.322c-1.084,0.33-2.348,0.496-3.799,0.503c-1.574-0.007-3.031-0.273-4.381-0.791
	c-1.344-0.528-2.52-1.288-3.531-2.274c-1.003-0.989-1.788-2.179-2.353-3.576C115.44,189.596,115.152,188.031,115.145,186.291
	L115.145,186.291z M121.405,183.878h9.097c-0.014-0.785-0.197-1.492-0.535-2.135c-0.34-0.636-0.836-1.143-1.504-1.524
	c-0.656-0.375-1.471-0.57-2.447-0.577c-0.971,0.007-1.802,0.202-2.482,0.577c-0.685,0.382-1.205,0.889-1.566,1.524
	C121.607,182.386,121.419,183.093,121.405,183.878L121.405,183.878z"/>
<path fill="#231F20" d="M140.271,196.988h5.924v-10.749c0.027-0.997,0.242-1.875,0.656-2.643c0.402-0.764,1.01-1.371,1.818-1.805
	c0.799-0.44,1.813-0.664,3.023-0.672h0.846v-5.283h-0.846c-1.068,0.007-1.979,0.188-2.721,0.527c-0.75,0.345-1.365,0.81-1.846,1.394
	c-0.488,0.583-0.869,1.241-1.143,1.972l-1.48-3.893h-4.232V196.988L140.271,196.988z"/>
<path fill-rule="evenodd" clip-rule="evenodd" fill="#231F20" d="M152.861,186.284c0.006,1.639,0.281,3.146,0.816,4.524
	c0.533,1.371,1.291,2.571,2.273,3.59c0.975,1.018,2.139,1.812,3.473,2.367c1.344,0.563,2.814,0.851,4.434,0.857
	c1.766-0.014,3.305-0.309,4.613-0.885c1.299-0.586,2.389-1.389,3.246-2.414c0.07-0.082,0.141-0.169,0.205-0.252l-3.805-3.806
	c-0.674,1.143-2.402,2.562-4.479,2.493c-0.893-0.031-1.688-0.281-2.375-0.816c-0.691-0.534-1.234-1.284-1.629-2.247
	c-0.391-0.965-0.594-2.106-0.6-3.412c0.006-1.302,0.209-2.413,0.6-3.343c0.395-0.924,0.938-1.632,1.629-2.129
	c0.688-0.492,1.482-0.735,2.375-0.746c0.68,0,1.25,0.1,1.719,0.283c1.318,0.512,2.086,0.99,2.693,2.234l3.844-3.84
	c-0.094-0.127-0.195-0.252-0.299-0.372c-0.844-0.982-1.912-1.758-3.205-2.313c-1.291-0.562-2.801-0.843-4.533-0.856
	c-1.619,0.007-3.09,0.281-4.434,0.815c-1.334,0.534-2.498,1.298-3.473,2.281c-0.982,0.989-1.74,2.159-2.273,3.511
	C153.143,183.155,152.867,184.652,152.861,186.284L152.861,186.284z"/>
<path fill="#231F20" d="M179.248,186.284c0.006-1.41,0.232-2.572,0.674-3.49c0.434-0.923,1.018-1.606,1.746-2.056
	c0.729-0.446,1.545-0.672,2.449-0.672c0.861,0,1.643,0.212,2.332,0.643c0.689,0.426,1.238,1.083,1.658,1.957
	c0.418,0.882,0.65,1.986,0.701,3.319v0.636c-0.051,1.343-0.283,2.472-0.701,3.382c-0.42,0.908-0.969,1.594-1.658,2.054
	c-0.689,0.47-1.471,0.703-2.332,0.703c-0.904,0-1.721-0.247-2.449-0.736c-0.729-0.493-1.313-1.222-1.746-2.181
	C179.48,188.881,179.254,187.697,179.248,186.284L179.248,186.284z M173.078,186.284c0.006,1.639,0.242,3.146,0.717,4.524
	c0.459,1.371,1.123,2.571,1.988,3.59c0.861,1.018,1.885,1.812,3.076,2.367c1.184,0.563,2.5,0.851,3.939,0.857
	c0.977-0.007,1.857-0.167,2.66-0.475c0.791-0.31,1.5-0.751,2.123-1.306c0.619-0.556,1.156-1.197,1.609-1.943l1.313,3.089h4.441
	v-21.151h-4.441l-1.184,3.132c-0.469-0.757-1.018-1.412-1.646-1.976c-0.627-0.565-1.35-0.996-2.158-1.316
	c-0.811-0.309-1.713-0.468-2.717-0.475c-1.439,0.007-2.756,0.281-3.939,0.815c-1.191,0.534-2.215,1.298-3.076,2.281
	c-0.865,0.989-1.529,2.159-1.988,3.511C173.32,183.155,173.084,184.652,173.078,186.284L173.078,186.284z"/>
<path fill="#231F20" d="M200.447,196.988h5.92v-10.749c0.031-0.997,0.246-1.875,0.66-2.643c0.402-0.764,1.01-1.371,1.818-1.805
	c0.799-0.44,1.809-0.664,3.023-0.672h0.846v-5.283h-0.846c-1.068,0.007-1.979,0.188-2.721,0.527c-0.75,0.345-1.363,0.81-1.848,1.394
	c-0.486,0.583-0.867,1.241-1.141,1.972l-1.48-3.893h-4.232V196.988L200.447,196.988z"/>
<path fill="#231F20" d="M221.689,186.284c0.01-1.41,0.232-2.572,0.674-3.49c0.434-0.923,1.018-1.606,1.746-2.056
	c0.729-0.446,1.545-0.672,2.447-0.672c0.863,0,1.646,0.212,2.334,0.643c0.691,0.426,1.238,1.083,1.66,1.957
	c0.416,0.882,0.646,1.986,0.701,3.319v0.299c-0.012,1.413-0.221,2.597-0.623,3.559c-0.414,0.959-0.969,1.688-1.678,2.181
	c-0.697,0.489-1.498,0.736-2.395,0.736c-0.902,0-1.719-0.247-2.447-0.736c-0.729-0.493-1.313-1.222-1.746-2.181
	C221.922,188.881,221.699,187.697,221.689,186.284L221.689,186.284z M215.52,186.284c0.008,1.639,0.244,3.146,0.715,4.524
	c0.463,1.371,1.125,2.571,1.99,3.59c0.861,1.018,1.885,1.812,3.076,2.367c1.184,0.563,2.498,0.851,3.943,0.857
	c0.971-0.007,1.855-0.167,2.648-0.475c0.799-0.31,1.508-0.751,2.129-1.306c0.621-0.556,1.156-1.197,1.611-1.943l1.305,3.089h4.23
	v-28.637h-5.916v9.854c-0.695-0.924-1.547-1.646-2.543-2.18c-0.996-0.542-2.152-0.81-3.465-0.823
	c-1.445,0.007-2.76,0.281-3.943,0.815c-1.191,0.534-2.215,1.298-3.076,2.281c-0.865,0.989-1.527,2.159-1.99,3.511
	C215.764,183.155,215.527,184.652,215.52,186.284L215.52,186.284L215.52,186.284z"/>
<path fill-rule="evenodd" clip-rule="evenodd" fill="#F79E1B" d="M173.193,4.607C215.607,4.607,250,39.001,250,81.412
	c0,42.411-34.393,76.804-76.807,76.804c-42.41,0-76.803-34.393-76.803-76.804C96.39,39.001,130.783,4.607,173.193,4.607
	L173.193,4.607z"/>
<path fill-rule="evenodd" clip-rule="evenodd" fill="#EB001B" d="M78.414,4.607c42.412,0,76.805,34.394,76.805,76.805
	c0,42.411-34.394,76.804-76.805,76.804c-42.411,0-76.804-34.393-76.804-76.804C1.609,39.001,36.002,4.607,78.414,4.607L78.414,4.607
	z"/>
<path fill-rule="evenodd" clip-rule="evenodd" fill="#FF5F00" d="M125.804,20.973c17.909,14.062,29.415,35.909,29.415,60.439
	c0,24.531-11.506,46.377-29.415,60.441c-17.908-14.064-29.414-35.91-29.414-60.441C96.39,56.882,107.896,35.035,125.804,20.973
	L125.804,20.973z"/>

</svg>
