<?xml version="1.0" encoding="utf-8"?>
<!DOCTYPE svg PUBLIC "-//W3C//DTD SVG 1.1//EN" "http://www.w3.org/Graphics/SVG/1.1/DTD/svg11.dtd">
<svg version="1.1" id="Layer_1" xmlns="http://www.w3.org/2000/svg" xmlns:xlink="http://www.w3.org/1999/xlink" x="0px" y="0px"
	 width="216px" height="216px" viewBox="0 0 216 216" enable-background="new 0 0 216 216" xml:space="preserve">
<g>
	<path fill-rule="evenodd" clip-rule="evenodd" d="M147.572,95.383l-0.045,2.198c-0.02,0.864-0.74,1.555-1.604,1.537l-3.77-0.08
		c-0.863-0.019-1.555-0.74-1.537-1.604l0.047-2.198c0.02-0.864,0.74-1.555,1.604-1.537l3.77,0.08
		C146.9,93.797,147.592,94.519,147.572,95.383L147.572,95.383z M116.006,122.719l-10.08-25.889
		c-0.249-0.639-0.188-1.325,0.105-1.896c0.037-0.084,0.079-0.168,0.126-0.25l13.874-23.914c0.65-1.121,2.129-1.466,3.236-0.794
		l0.805,0.488c1.109,0.671,1.445,2.115,0.795,3.235l-13.094,22.568l10.506,26.981C120.176,122.939,118.063,122.77,116.006,122.719
		L116.006,122.719z M69.809,97.571l0.007-2.199c0.003-0.864,0.711-1.568,1.575-1.565l3.769,0.012
		c0.864,0.002,1.568,0.711,1.565,1.575l-0.007,2.199c-0.002,0.864-0.711,1.568-1.575,1.565l-3.769-0.012
		C70.511,99.144,69.806,98.435,69.809,97.571L69.809,97.571z M107.111,57.259h2.199c0.864,0,1.57,0.707,1.57,1.571v3.769
		c0,0.864-0.706,1.571-1.57,1.571h-2.199c-0.864,0-1.57-0.707-1.57-1.571V58.83C105.541,57.966,106.247,57.259,107.111,57.259
		L107.111,57.259z M62.091,104.62c-0.548-2.878-0.835-5.849-0.835-8.887c0-26.101,21.167-47.269,47.269-47.269
		c26.101,0,47.269,21.167,47.269,47.269c0,2.549-0.205,5.05-0.594,7.489c-2.004,0.022-4.068,0.154-6.133,0.416
		c0.496-2.559,0.76-5.201,0.76-7.905c0-22.806-18.496-41.301-41.302-41.301c-22.806,0-41.301,18.495-41.301,41.301
		c0,2.871,0.293,5.673,0.851,8.378C66.111,104.167,64.097,104.33,62.091,104.62L62.091,104.62z"/>
	<path fill-rule="evenodd" clip-rule="evenodd" d="M134.68,155.457c0.186,0.593,0.283,1.2,0.283,1.818
		c0,6.591-11.006,11.936-24.576,11.936c-13.572,0-24.577-5.345-24.577-11.936c0-0.727,0.134-1.438,0.39-2.128
		c3.824,4.433,13.299,7.571,24.379,7.571C121.4,162.719,130.689,159.725,134.68,155.457L134.68,155.457z"/>
	<path fill-rule="evenodd" clip-rule="evenodd" d="M134.68,145.698c0.186,0.593,0.283,1.2,0.283,1.818
		c0,6.59-11.006,11.935-24.576,11.935c-13.572,0-24.577-5.345-24.577-11.935c0-0.727,0.134-1.438,0.39-2.128
		c3.824,4.433,13.299,7.57,24.379,7.57C121.4,152.959,130.689,149.966,134.68,145.698L134.68,145.698z"/>
	<path fill-rule="evenodd" clip-rule="evenodd" d="M110.387,126.042c13.57,0,24.576,5.345,24.576,11.936
		c0,6.59-11.006,11.935-24.576,11.935c-13.572,0-24.577-5.345-24.577-11.935C85.81,131.387,96.815,126.042,110.387,126.042
		L110.387,126.042z M120.699,143.549c0,0.407-0.068,0.729-0.205,0.966c-0.129,0.236-0.316,0.416-0.547,0.544
		c-0.23,0.133-0.572,0.265-1.016,0.397s-0.98,0.261-1.621,0.374s-1.373,0.208-2.201,0.284c-0.828,0.075-1.742,0.113-2.74,0.113
		c-1.886,0-3.55-0.138-5.001-0.402c-1.451-0.27-2.688-0.658-3.721-1.159c-1.033-0.507-1.877-1.122-2.518-1.86
		c-0.64-0.733-1.101-1.566-1.382-2.499h-2.407c-0.248,0-0.444-0.09-0.597-0.274c-0.146-0.18-0.222-0.482-0.222-0.903
		c0-0.213,0.009-0.393,0.034-0.545c0.026-0.146,0.068-0.265,0.128-0.35c0.06-0.09,0.128-0.156,0.222-0.194
		c0.094-0.042,0.205-0.066,0.341-0.066h2.219c0-0.137,0-0.283-0.009-0.435c-0.009-0.152-0.009-0.304-0.009-0.45
		c0-0.185,0-0.369,0.009-0.549s0.009-0.354,0.009-0.521h-2.219c-0.256,0-0.435-0.085-0.555-0.256c-0.11-0.17-0.17-0.473-0.17-0.908
		c0-0.223,0.017-0.407,0.06-0.554c0.042-0.146,0.103-0.266,0.179-0.355c0.068-0.085,0.163-0.146,0.256-0.185
		c0.103-0.037,0.213-0.057,0.324-0.057h2.578c0.333-0.885,0.819-1.699,1.468-2.432c0.64-0.734,1.459-1.368,2.475-1.903
		c1.007-0.53,2.21-0.941,3.619-1.23c1.408-0.293,3.056-0.439,4.94-0.439c0.871,0,1.707,0.037,2.51,0.104
		c0.811,0.071,1.545,0.161,2.193,0.274c0.648,0.109,1.186,0.223,1.613,0.337c0.426,0.118,0.725,0.217,0.912,0.298
		c0.18,0.085,0.316,0.17,0.402,0.26c0.076,0.085,0.145,0.194,0.195,0.322c0.051,0.133,0.094,0.293,0.129,0.492
		c0.033,0.198,0.051,0.444,0.051,0.729c0,0.251-0.018,0.454-0.051,0.61c-0.035,0.156-0.094,0.284-0.162,0.384
		c-0.078,0.095-0.172,0.16-0.283,0.198c-0.102,0.038-0.221,0.057-0.357,0.057c-0.264,0-0.58-0.065-0.939-0.193
		c-0.357-0.133-0.801-0.271-1.322-0.426c-0.529-0.152-1.152-0.289-1.887-0.412c-0.732-0.128-1.596-0.189-2.576-0.189
		c-0.939,0-1.75,0.071-2.449,0.213c-0.7,0.147-1.307,0.355-1.818,0.635c-0.503,0.274-0.922,0.61-1.237,0.998
		c-0.316,0.389-0.555,0.823-0.726,1.315h6.854c0.119,0,0.23,0.02,0.342,0.057c0.102,0.038,0.195,0.1,0.256,0.185
		c0.068,0.09,0.127,0.209,0.162,0.355c0.041,0.146,0.068,0.331,0.068,0.554c0,0.436-0.078,0.738-0.23,0.908
		c-0.146,0.171-0.352,0.256-0.598,0.256h-7.348c-0.017,0.151-0.034,0.298-0.043,0.449c-0.008,0.156-0.008,0.322-0.008,0.507
		c0,0.17,0,0.331,0.008,0.492c0.009,0.166,0.026,0.331,0.043,0.506h7.348c0.119,0,0.23,0.024,0.342,0.066
		c0.102,0.038,0.195,0.104,0.256,0.194c0.068,0.085,0.127,0.203,0.162,0.35c0.041,0.152,0.068,0.332,0.068,0.545
		c0,0.421-0.078,0.724-0.23,0.903c-0.146,0.185-0.352,0.274-0.598,0.274h-6.879c0.137,0.469,0.358,0.895,0.683,1.269
		c0.316,0.374,0.734,0.691,1.254,0.947c0.53,0.26,1.169,0.458,1.929,0.596c0.759,0.143,1.663,0.208,2.714,0.208
		c0.98,0,1.834-0.062,2.561-0.194c0.725-0.127,1.357-0.27,1.885-0.43c0.539-0.156,0.982-0.299,1.34-0.426
		c0.359-0.133,0.658-0.194,0.889-0.194c0.137,0,0.256,0.014,0.367,0.052c0.102,0.038,0.195,0.109,0.271,0.218
		c0.078,0.104,0.129,0.251,0.164,0.44C120.682,142.98,120.699,143.236,120.699,143.549L120.699,143.549z"/>
	<path fill-rule="evenodd" clip-rule="evenodd" d="M175.824,146.214c0.186,0.593,0.283,1.2,0.283,1.818
		c0,6.591-11.006,11.936-24.576,11.936c-4.885,0-9.436-0.692-13.262-1.886c0.021-0.265,0.035-0.533,0.035-0.807
		c0-0.959-0.15-1.907-0.439-2.822l-0.738-2.348c0.1-0.188,0.195-0.377,0.283-0.57c4.115,1.227,9.031,1.94,14.313,1.94
		C162.543,153.476,171.832,150.482,175.824,146.214L175.824,146.214z M175.824,136.455c0.186,0.593,0.283,1.2,0.283,1.818
		c0,6.591-11.006,11.936-24.576,11.936c-4.885,0-9.436-0.692-13.262-1.886c0.023-0.265,0.035-0.533,0.035-0.807
		c0-0.96-0.15-1.907-0.439-2.822l-0.695-2.21c0.117-0.224,0.227-0.45,0.328-0.682c4.096,1.211,8.98,1.914,14.225,1.914
		C162.543,143.717,171.832,140.723,175.824,136.455L175.824,136.455z M175.824,126.696c0.186,0.593,0.283,1.2,0.283,1.818
		c0,6.591-11.006,11.936-24.576,11.936c-4.877,0-9.424-0.69-13.246-1.881c0.012-0.195,0.02-0.393,0.02-0.592
		c0-2.496-0.961-4.646-2.436-6.456c4.402,1.528,9.895,2.437,15.854,2.437C162.543,133.958,171.832,130.964,175.824,126.696
		L175.824,126.696z M151.531,107.041c13.57,0,24.576,5.344,24.576,11.935c0,6.59-11.006,11.935-24.576,11.935
		c-13.572,0-24.578-5.345-24.578-11.935C126.953,112.385,137.959,107.041,151.531,107.041L151.531,107.041z M165.672,120.381
		c0.43,0.654,0.559,1.254,0.395,1.802c-0.158,0.544-0.58,1.03-1.258,1.448c-0.674,0.422-1.594,0.773-2.758,1.06
		c-1.158,0.282-2.514,0.489-4.059,0.619l1.072,2.466c0.023,0.063,0.023,0.115-0.006,0.165c-0.027,0.049-0.104,0.092-0.248,0.126
		c-0.141,0.039-0.334,0.075-0.596,0.103c-0.258,0.031-0.598,0.058-1.014,0.075c-0.525,0.022-0.967,0.03-1.303,0.021
		c-0.338-0.01-0.613-0.03-0.818-0.065c-0.207-0.035-0.369-0.084-0.465-0.148c-0.104-0.067-0.172-0.145-0.191-0.228l-0.992-2.341
		c-0.742-0.017-1.451-0.046-2.133-0.089c-0.676-0.047-1.295-0.101-1.871-0.168c-0.564-0.063-1.072-0.134-1.508-0.212
		c-0.422-0.073-0.77-0.15-1.012-0.229c-0.254-0.081-0.475-0.204-0.662-0.372c-0.197-0.167-0.406-0.419-0.625-0.754
		c-0.168-0.258-0.291-0.473-0.367-0.642s-0.109-0.299-0.086-0.396c0.027-0.094,0.088-0.16,0.191-0.2
		c0.105-0.041,0.238-0.063,0.398-0.069c0.221-0.01,0.574,0.035,1.055,0.131c0.488,0.095,1.105,0.196,1.842,0.309
		c0.732,0.109,1.596,0.2,2.594,0.273c0.992,0.077,2.113,0.086,3.352,0.032c1.941-0.084,3.275-0.31,4-0.681
		c0.725-0.372,0.912-0.833,0.551-1.382c-0.236-0.362-0.639-0.658-1.199-0.874c-0.563-0.221-1.24-0.403-2.035-0.554
		c-0.797-0.149-1.664-0.276-2.613-0.38c-0.939-0.104-1.91-0.215-2.916-0.339c-0.994-0.122-1.986-0.268-2.984-0.445
		c-0.996-0.177-1.93-0.405-2.813-0.688c-0.883-0.283-1.672-0.638-2.373-1.067c-0.697-0.428-1.252-0.956-1.666-1.587
		c-0.375-0.573-0.502-1.101-0.393-1.586c0.102-0.485,0.436-0.92,0.986-1.305c0.541-0.384,1.314-0.709,2.309-0.973
		c0.994-0.267,2.186-0.47,3.58-0.606l-1.012-2.316c-0.023-0.063-0.023-0.115,0.01-0.161c0.033-0.041,0.117-0.085,0.248-0.127
		c0.137-0.042,0.334-0.074,0.588-0.102c0.252-0.026,0.594-0.049,1.027-0.068c0.516-0.022,0.947-0.029,1.303-0.02
		c0.354,0.009,0.639,0.029,0.844,0.064c0.215,0.035,0.361,0.084,0.455,0.148c0.096,0.068,0.172,0.145,0.227,0.227l0.92,2.18
		c0.479,0.012,0.996,0.029,1.541,0.063c0.553,0.031,1.078,0.073,1.564,0.125c0.498,0.054,0.953,0.11,1.371,0.176
		c0.416,0.063,0.719,0.126,0.898,0.187c0.184,0.056,0.33,0.118,0.445,0.177c0.121,0.063,0.23,0.139,0.338,0.234
		c0.104,0.092,0.205,0.207,0.309,0.339s0.211,0.283,0.326,0.459c0.156,0.237,0.275,0.433,0.35,0.586
		c0.072,0.153,0.1,0.271,0.082,0.353c-0.006,0.085-0.049,0.139-0.115,0.17c-0.068,0.03-0.152,0.046-0.271,0.051
		c-0.213,0.01-0.564-0.023-1.039-0.107c-0.479-0.079-1.057-0.163-1.744-0.253c-0.676-0.087-1.439-0.162-2.295-0.23
		c-0.844-0.063-1.742-0.077-2.691-0.036c-0.855,0.037-1.568,0.108-2.139,0.209c-0.561,0.104-0.982,0.229-1.273,0.387
		c-0.291,0.152-0.465,0.328-0.525,0.527c-0.057,0.194-0.012,0.409,0.139,0.639c0.232,0.354,0.635,0.65,1.209,0.874
		c0.576,0.228,1.262,0.41,2.064,0.556c0.801,0.146,1.686,0.271,2.645,0.379c0.967,0.106,1.949,0.221,2.961,0.342
		c1.004,0.12,2.016,0.27,3.02,0.442c1.008,0.169,1.951,0.396,2.83,0.676c0.881,0.278,1.676,0.629,2.377,1.048
		C164.711,119.244,165.268,119.761,165.672,120.381L165.672,120.381z"/>
	<path fill-rule="evenodd" clip-rule="evenodd" d="M45.284,146.214c-0.187,0.593-0.284,1.2-0.284,1.818
		c0,6.591,11.005,11.936,24.577,11.936c4.884,0,9.435-0.692,13.261-1.886c-0.022-0.265-0.035-0.533-0.035-0.807
		c0-0.959,0.15-1.907,0.438-2.822l0.739-2.348c-0.101-0.188-0.195-0.377-0.285-0.57c-4.114,1.227-9.03,1.94-14.312,1.94
		C58.563,153.476,49.274,150.482,45.284,146.214L45.284,146.214z M45.284,136.455c-0.187,0.593-0.284,1.2-0.284,1.818
		c0,6.591,11.005,11.936,24.577,11.936c4.883,0,9.435-0.692,13.261-1.886c-0.022-0.265-0.034-0.533-0.034-0.807
		c0-0.96,0.15-1.907,0.438-2.822l0.696-2.21c-0.118-0.224-0.228-0.45-0.329-0.682c-4.096,1.211-8.98,1.914-14.225,1.914
		C58.563,143.717,49.274,140.723,45.284,136.455L45.284,136.455z M45.284,126.696c-0.187,0.593-0.284,1.2-0.284,1.818
		c0,6.591,11.005,11.936,24.577,11.936c4.876,0,9.422-0.69,13.245-1.881c-0.012-0.195-0.019-0.393-0.019-0.592
		c0-2.496,0.961-4.646,2.434-6.456c-4.401,1.528-9.895,2.437-15.853,2.437C58.563,133.958,49.274,130.964,45.284,126.696
		L45.284,126.696z M69.577,107.041c-13.571,0-24.577,5.344-24.577,11.935c0,6.59,11.005,11.935,24.577,11.935
		c13.571,0,24.577-5.345,24.577-11.935C94.153,112.385,83.147,107.041,69.577,107.041L69.577,107.041z M57.434,122.458
		c-0.293,1.008-0.254,1.894,0.12,2.659c0.375,0.759,1.003,1.397,1.88,1.903c0.875,0.512,1.957,0.892,3.251,1.149
		c1.295,0.258,2.726,0.385,4.282,0.385c1.056,0,2.054-0.051,2.989-0.162c0.934-0.105,1.77-0.237,2.508-0.39
		c0.739-0.157,1.365-0.314,1.883-0.486c0.508-0.167,0.89-0.313,1.129-0.445c0.247-0.127,0.446-0.313,0.596-0.552
		c0.16-0.243,0.302-0.593,0.435-1.049c0.09-0.309,0.148-0.562,0.184-0.77c0.028-0.207,0.022-0.38-0.005-0.506
		c-0.036-0.127-0.106-0.218-0.21-0.273c-0.097-0.056-0.227-0.081-0.388-0.081c-0.218,0-0.556,0.081-1.006,0.243
		c-0.442,0.162-1.011,0.344-1.706,0.541c-0.687,0.198-1.489,0.38-2.407,0.542c-0.926,0.162-1.957,0.243-3.11,0.243
		c-0.758,0-1.418-0.056-1.982-0.167c-0.563-0.116-1.023-0.278-1.382-0.486c-0.351-0.207-0.599-0.461-0.727-0.77
		c-0.136-0.309-0.141-0.647-0.032-1.022c0.127-0.436,0.421-0.811,0.891-1.119c0.47-0.314,1.043-0.593,1.717-0.83
		c0.445-0.16,0.927-0.313,1.44-0.461h10.536c0.154,0,0.312-0.106,0.35-0.237l0.275-0.945c0.038-0.131-0.058-0.237-0.211-0.237
		H56.836c-0.154,0-0.312,0.106-0.35,0.237l-0.276,0.945c-0.038,0.131,0.058,0.237,0.211,0.237h2.063
		C57.993,121.103,57.645,121.735,57.434,122.458L57.434,122.458z M57.612,116.476H67.86l0.313-0.078
		c0.851-0.208,1.618-0.436,2.31-0.679s1.272-0.521,1.733-0.83c0.462-0.314,0.755-0.684,0.879-1.109
		c0.083-0.283,0.074-0.557-0.012-0.815c-0.094-0.258-0.28-0.476-0.566-0.658c-0.285-0.182-0.662-0.329-1.14-0.43
		c-0.468-0.107-1.042-0.157-1.719-0.157c-0.871,0-1.68,0.065-2.445,0.202c-0.764,0.132-1.443,0.278-2.041,0.445
		c-0.604,0.162-1.107,0.314-1.526,0.451c-0.418,0.137-0.713,0.208-0.891,0.208c-0.169,0-0.297-0.03-0.384-0.092
		c-0.089-0.056-0.141-0.151-0.153-0.278c-0.018-0.132-0.011-0.294,0.022-0.491c0.033-0.197,0.096-0.44,0.179-0.724
		c0.075-0.259,0.146-0.476,0.205-0.648c0.066-0.173,0.14-0.314,0.214-0.431c0.073-0.111,0.14-0.203,0.217-0.273
		c0.077-0.07,0.206-0.152,0.396-0.253c0.181-0.097,0.541-0.224,1.075-0.37c0.534-0.146,1.13-0.283,1.793-0.4
		c0.664-0.121,1.368-0.212,2.114-0.283c0.746-0.07,1.48-0.101,2.198-0.101c1.403,0,2.7,0.111,3.883,0.339
		c1.183,0.229,2.171,0.572,2.956,1.033c0.794,0.455,1.358,1.038,1.696,1.731c0.336,0.699,0.375,1.509,0.107,2.426
		c-0.234,0.805-0.619,1.488-1.166,2.065c-0.065,0.068-0.131,0.135-0.198,0.2h1.599c0.154,0,0.25,0.107,0.212,0.237l-0.276,0.946
		c-0.038,0.13-0.196,0.236-0.35,0.236H57.198c-0.154,0-0.25-0.106-0.211-0.236l0.276-0.946
		C57.3,116.582,57.457,116.476,57.612,116.476L57.612,116.476z"/>
</g>
</svg>
