<?xml version="1.0" encoding="iso-8859-1"?>
<!-- Generator: Adobe Illustrator 12.0.0, SVG Export Plug-In . SVG Version: 6.00 Build 51448)  -->
<!DOCTYPE svg PUBLIC "-//W3C//DTD SVG 1.1//EN" "http://www.w3.org/Graphics/SVG/1.1/DTD/svg11.dtd" [
	<!ENTITY ns_svg "http://www.w3.org/2000/svg">
	<!ENTITY ns_xlink "http://www.w3.org/1999/xlink">
]>
<svg  version="1.1" id="Layer_1" xmlns="&ns_svg;" xmlns:xlink="&ns_xlink;" width="117.927" height="118.117"
	 viewBox="0 0 117.927 118.117" overflow="visible" enable-background="new 0 0 117.927 118.117" xml:space="preserve">
<path fill-rule="evenodd" clip-rule="evenodd" d="M74.053,98.841v19.075H45.69v-14.27c4.121-1.069,7.488-4.075,8.965-8.021
	l11.392-1.61C68.013,96.533,70.868,98.261,74.053,98.841L74.053,98.841z M107.725,76.959v40.955H79.368V98.727
	c5.777-1.313,10.16-6.409,10.16-12.599c0-0.527-0.033-1.052-0.097-1.572l13.97-9.013C104.744,76.26,106.207,76.739,107.725,76.959
	L107.725,76.959z M39.818,103.824v14.092h-21.17c1.689-2.141,2.713-4.824,2.75-7.762l14.618-7.702
	C37.203,103.102,38.485,103.564,39.818,103.824L39.818,103.824z M48.41,54.428h10.248l0.291-0.125c0.79-0.33,1.491-0.693,2.111-1.08
	c0.621-0.387,1.121-0.831,1.491-1.322c0.371-0.5,0.557-1.088,0.557-1.765c0-0.452-0.089-0.887-0.25-1.298
	c-0.169-0.411-0.419-0.758-0.758-1.048c-0.338-0.291-0.758-0.524-1.266-0.686c-0.499-0.169-1.088-0.25-1.765-0.25
	c-0.871,0-1.661,0.104-2.386,0.322c-0.726,0.21-1.362,0.443-1.911,0.71c-0.556,0.258-1.016,0.5-1.395,0.717
	s-0.653,0.331-0.831,0.331c-0.169,0-0.306-0.049-0.411-0.146c-0.105-0.088-0.186-0.242-0.234-0.443
	c-0.057-0.209-0.097-0.468-0.121-0.782c-0.024-0.315-0.032-0.702-0.032-1.153c0-0.411,0.008-0.757,0.016-1.032
	c0.016-0.274,0.048-0.5,0.088-0.685c0.041-0.177,0.081-0.322,0.137-0.436c0.057-0.113,0.162-0.242,0.322-0.403
	c0.153-0.153,0.476-0.354,0.968-0.588c0.492-0.234,1.048-0.451,1.677-0.637c0.628-0.193,1.306-0.338,2.031-0.451
	s1.451-0.161,2.168-0.161c1.403,0,2.733,0.177,3.982,0.54c1.25,0.363,2.338,0.911,3.257,1.645c0.927,0.725,1.66,1.652,2.2,2.756
	c0.541,1.113,0.814,2.403,0.814,3.862c0,1.282-0.186,2.37-0.564,3.289c-0.044,0.108-0.091,0.214-0.14,0.319h1.6
	c0.154,0,0.28,0.17,0.28,0.377v1.506c0,0.207-0.126,0.377-0.28,0.377H48.41c-0.154,0-0.281-0.17-0.281-0.377v-1.506
	C48.129,54.598,48.255,54.428,48.41,54.428L48.41,54.428z M49.977,63.952c0,1.604,0.298,3.015,0.895,4.232
	c0.596,1.209,1.411,2.225,2.435,3.03c1.023,0.814,2.217,1.419,3.587,1.83s2.837,0.612,4.394,0.612c1.056,0,2.039-0.08,2.941-0.258
	c0.903-0.169,1.701-0.379,2.395-0.62c0.693-0.25,1.273-0.5,1.741-0.774c0.46-0.266,0.798-0.5,1-0.709
	c0.209-0.201,0.354-0.5,0.436-0.879c0.088-0.387,0.129-0.943,0.129-1.669c0-0.491-0.017-0.895-0.041-1.225
	c-0.032-0.331-0.088-0.604-0.153-0.807c-0.072-0.201-0.169-0.347-0.29-0.436c-0.112-0.088-0.25-0.128-0.411-0.128
	c-0.218,0-0.532,0.128-0.935,0.387c-0.396,0.258-0.911,0.548-1.548,0.862c-0.629,0.314-1.379,0.604-2.249,0.862
	c-0.879,0.258-1.887,0.387-3.039,0.387c-0.758,0-1.435-0.088-2.031-0.266c-0.597-0.186-1.104-0.443-1.524-0.773
	c-0.411-0.331-0.733-0.734-0.951-1.226c-0.226-0.492-0.331-1.032-0.331-1.628c0-0.693,0.186-1.29,0.564-1.782
	c0.379-0.5,0.871-0.943,1.475-1.322c0.398-0.255,0.835-0.499,1.306-0.733h10.536c0.154,0,0.28-0.17,0.28-0.377v-1.506
	c0-0.207-0.126-0.377-0.28-0.377H48.41c-0.155,0-0.281,0.169-0.281,0.377v1.506c0,0.208,0.126,0.377,0.281,0.377h2.063
	C50.14,61.794,49.977,62.802,49.977,63.952L49.977,63.952z M60.066,79.913c-11.965,0-21.669-9.704-21.669-21.669
	c0-11.965,9.704-21.668,21.669-21.668c11.965,0,21.668,9.703,21.668,21.668C81.734,70.209,72.031,79.913,60.066,79.913
	L60.066,79.913z M23.805,23.477c8.947-8.946,21.27-14.517,34.892-14.635v23.447c-7.148,0.116-13.61,3.063-18.313,7.766
	L23.805,23.477L23.805,23.477z M19.638,89.413C13.075,80.957,9.165,70.339,9.165,58.809c0-0.147,0.004-0.293,0.005-0.439h23.448
	c-0.002,0.146-0.005,0.292-0.005,0.439c0,5.544,1.703,10.691,4.613,14.948c0.814,1.191,1.724,2.313,2.718,3.354l1.377,1.146
	c-6.464,0.507-11.695,5.672-12.038,12.203l-6.171,3.252L19.638,89.413L19.638,89.413z M0.415,53.489
	C1.53,41.02,6.528,29.668,14.191,20.651l19.684,19.684c-2.798,3.819-4.75,8.296-5.583,13.155H0.415L0.415,53.489z M63.417,0
	c28.799,2.068,51.874,24.829,54.438,53.489H89.98c-2.289-13.364-13.054-23.837-26.563-25.686V0L63.417,0z M109.627,56.041
	c4.583,0,8.3,3.64,8.3,8.127s-3.717,8.127-8.3,8.127c-2.39,0-4.544-0.989-6.059-2.572L83.833,82.456
	c0.572,1.103,0.895,2.351,0.895,3.672c0,4.487-3.717,8.127-8.3,8.127c-3.623,0-6.705-2.275-7.837-5.446l-17.93,2.534
	c-0.109,4.396-3.782,7.927-8.297,7.927c-2.33,0-4.436-0.94-5.943-2.456l-20.228,10.658c0.264,0.793,0.407,1.64,0.407,2.519
	c0,4.487-3.717,8.127-8.3,8.127S0,114.478,0,109.99s3.717-8.127,8.3-8.127c2.157,0,4.123,0.807,5.598,2.128l20.44-10.771
	c-0.179-0.663-0.274-1.359-0.274-2.078c0-4.487,3.717-8.127,8.3-8.127c3.164,0,5.914,1.735,7.314,4.285l18.582-2.627
	c0.7-3.794,4.091-6.673,8.167-6.673c1.69,0,3.262,0.495,4.572,1.345l20.56-13.265c-0.151-0.613-0.232-1.254-0.232-1.913
	C101.327,59.681,105.043,56.041,109.627,56.041L109.627,56.041z M8.3,105.927c2.292,0,4.15,1.819,4.15,4.063
	s-1.858,4.063-4.15,4.063s-4.15-1.819-4.15-4.063S6.008,105.927,8.3,105.927L8.3,105.927z M42.364,87.079
	c2.292,0,4.15,1.819,4.15,4.063s-1.858,4.063-4.15,4.063s-4.15-1.819-4.15-4.063S40.072,87.079,42.364,87.079L42.364,87.079z
	 M76.427,82.064c2.292,0,4.15,1.819,4.15,4.063s-1.858,4.063-4.15,4.063c-2.291,0-4.149-1.819-4.149-4.063
	S74.136,82.064,76.427,82.064L76.427,82.064z M109.627,60.104c2.291,0,4.149,1.819,4.149,4.063s-1.858,4.063-4.149,4.063
	c-2.292,0-4.15-1.819-4.15-4.063S107.335,60.104,109.627,60.104L109.627,60.104z"/>
</svg>
