<?xml version="1.0" encoding="utf-8"?>
<!DOCTYPE svg PUBLIC "-//W3C//DTD SVG 1.1//EN" "http://www.w3.org/Graphics/SVG/1.1/DTD/svg11.dtd">
<svg version="1.1" xmlns="http://www.w3.org/2000/svg" xmlns:xlink="http://www.w3.org/1999/xlink" x="0px" y="0px" width="216px" height="216px" viewBox="0 0 216 216" enable-background="new 0 0 216 216" xml:space="preserve">
<path  fill-rule="evenodd" clip-rule="evenodd" d="M98.027,23.089l-0.004,8.679
	c-19.176,0.681-37.308,8.528-50.959,22.166c-29.68,29.649-29.702,77.76-0.057,107.438c0.106,0.105,0.211,0.207,0.319,0.313
	l2.464,2.439l0.069-0.069c13.922,12.479,31.859,19.367,50.658,19.367c41.801,0,75.72-33.776,75.963-75.518h8.678
	c-0.24,46.531-38.05,84.195-84.641,84.195c-22.507,0-43.72-8.648-59.65-24.596C7.835,134.435,7.861,80.828,40.93,47.796
	C56.221,32.518,76.534,23.77,98.027,23.089L98.027,23.089z"/>
</svg>
