<?xml version="1.0" encoding="utf-8"?>
<!DOCTYPE svg PUBLIC "-//W3C//DTD SVG 1.1//EN" "http://www.w3.org/Graphics/SVG/1.1/DTD/svg11.dtd">
<svg version="1.1" xmlns="http://www.w3.org/2000/svg" xmlns:xlink="http://www.w3.org/1999/xlink" x="0px" y="0px" width="216px" height="216px" viewBox="0 0 216 216" enable-background="new 0 0 216 216" xml:space="preserve">

<path fill-rule="evenodd" clip-rule="evenodd" d="M105.315,148.913c11.826,0,21.572-3.977,29.236-11.921
	l6.812,6.668c-4.449,4.826-9.791,8.47-16.037,10.93c-6.245,2.46-13.103,3.688-20.578,3.688c-8.232,0-15.847-1.582-22.851-4.753
	c-7-3.172-12.889-7.592-17.669-13.271c-4.777-5.677-8.067-12.202-9.862-19.582H37.903v-6.245H53.23
	c-0.285-2.178-0.427-4.399-0.427-6.67c0-2.367,0.142-4.588,0.427-6.67H37.903V94.84h16.463c1.795-7.38,5.084-13.908,9.862-19.586
	c4.78-5.676,10.669-10.098,17.669-13.269c7.004-3.167,14.619-4.753,22.851-4.753c7.475,0,14.333,1.23,20.578,3.69
	c3.135,1.236,6.047,2.757,8.73,4.566l-5.461,7.898c-6.615-4.523-14.373-6.788-23.28-6.788c-9.65,0-18.096,2.602-25.333,7.807
	c-7.237,5.203-12.135,12.015-14.69,20.436h48.483l-4.316,6.245H63.732c-0.282,2.082-0.427,4.304-0.427,6.67
	c0,2.271,0.145,4.493,0.427,6.67h36.509l-4.314,6.245H65.292c2.555,8.421,7.453,15.231,14.69,20.436
	C87.22,146.312,95.665,148.913,105.315,148.913L105.315,148.913z"/>
</svg>
