<?xml version="1.0" encoding="utf-8"?>
<!DOCTYPE svg PUBLIC "-//W3C//DTD SVG 1.1//EN" "http://www.w3.org/Graphics/SVG/1.1/DTD/svg11.dtd">
<svg version="1.1" xmlns="http://www.w3.org/2000/svg" xmlns:xlink="http://www.w3.org/1999/xlink" x="0px" y="0px" width="216px" height="216px" viewBox="0 0 216 216" enable-background="new 0 0 216 216" xml:space="preserve">

<path fill-rule="evenodd" clip-rule="evenodd" d="M98.027,192.099l-0.004-8.681
	c-19.176-0.68-37.308-8.527-50.959-22.164c-29.68-29.649-29.702-77.758-0.057-107.437c0.106-0.105,0.211-0.209,0.319-0.315
	l2.464-2.441l0.069,0.069c13.922-12.475,31.859-19.364,50.658-19.364c41.801,0,75.72,33.776,75.963,75.52h8.678
	c-0.24-46.536-38.05-84.197-84.641-84.197c-22.507,0-43.72,8.646-59.65,24.597C7.835,80.755,7.861,134.357,40.93,167.394
	C56.221,182.669,76.534,191.419,98.027,192.099L98.027,192.099z"/>
</svg>
