<?xml version="1.0" encoding="utf-8"?>
<!DOCTYPE svg PUBLIC "-//W3C//DTD SVG 1.1//EN" "http://www.w3.org/Graphics/SVG/1.1/DTD/svg11.dtd">
<svg version="1.1" xmlns="http://www.w3.org/2000/svg" xmlns:xlink="http://www.w3.org/1999/xlink" x="0px" y="0px" width="216px" height="216px" viewBox="0 0 216 216" enable-background="new 0 0 216 216" xml:space="preserve">

<path fill-rule="evenodd" clip-rule="evenodd" d="M105.311,148.989c11.847,0,21.612-3.983,29.291-11.943
	l6.823,6.68c-4.457,4.836-9.81,8.485-16.065,10.95c-6.258,2.465-13.127,3.694-20.617,3.694c-8.247,0-15.876-1.585-22.893-4.762
	c-7.013-3.177-12.916-7.605-17.702-13.296c-4.787-5.687-8.08-12.225-9.881-19.618H37.773v-6.257h15.355
	c-0.285-2.182-0.427-4.407-0.427-6.683c0-2.371,0.143-4.597,0.427-6.683H37.773v-6.257h16.494c1.801-7.393,5.094-13.933,9.881-19.62
	c4.786-5.688,10.688-10.119,17.702-13.293c7.016-3.176,14.646-4.764,22.893-4.764c7.49,0,14.359,1.23,20.617,3.697
	c3.141,1.238,6.057,2.762,8.745,4.572l-5.472,7.915c-6.627-4.532-14.399-6.801-23.322-6.801c-9.669,0-18.129,2.607-25.381,7.821
	c-7.25,5.212-12.157,12.037-14.715,20.473h48.571l-4.324,6.257H63.65c-0.283,2.085-0.425,4.312-0.425,6.683
	c0,2.275,0.143,4.501,0.425,6.683h36.577l-4.322,6.257h-30.69c2.559,8.437,7.465,15.259,14.715,20.474
	C87.182,146.382,95.642,148.989,105.311,148.989L105.311,148.989z"/>
</svg>
