<?xml version="1.0" encoding="utf-8"?>
<!DOCTYPE svg PUBLIC "-//W3C//DTD SVG 1.1//EN" "http://www.w3.org/Graphics/SVG/1.1/DTD/svg11.dtd">
<svg version="1.1" xmlns="http://www.w3.org/2000/svg" xmlns:xlink="http://www.w3.org/1999/xlink" x="0px" y="0px" width="216px" height="216px" viewBox="0 0 216 216" enable-background="new 0 0 216 216" xml:space="preserve">

<path  fill-rule="evenodd" clip-rule="evenodd" d="M16.187,0h183.467c8.904,0,16.187,7.284,16.187,16.187
	v183.467c0,8.9-7.282,16.187-16.187,16.187H16.187C7.284,215.84,0,208.554,0,199.653V16.187C0,7.284,7.284,0,16.187,0L16.187,0z
	 M16.187,4.995h183.467c6.155,0,11.189,5.036,11.189,11.191v183.467c0,6.155-5.034,11.189-11.189,11.189H16.187
	c-6.156,0-11.191-5.034-11.191-11.189V16.187C4.995,10.031,10.031,4.995,16.187,4.995L16.187,4.995z M90.064,66
	c-3.042,0.837-5.599,2.049-7.674,3.633c-4.394,3.354-6.587,7.675-6.587,12.964c0,3.969,1.203,7.156,3.61,9.563
	c2.409,2.411,5.432,4.251,9.069,5.525c0.502,0.179,1.031,0.356,1.582,0.539V66L90.064,66z M101.746,64.601
	c-2.466,0.012-4.755,0.159-6.874,0.441v34.645c2.069,0.593,4.361,1.199,6.874,1.832V64.601L101.746,64.601z M106.558,147.279
	c5.623-0.639,10.06-2.151,13.309-4.538c4.439-3.257,6.655-7.485,6.655-12.682c0-3.965-1.203-7.128-3.61-9.49
	c-2.411-2.362-5.358-4.18-8.855-5.457c-2.033-0.739-4.536-1.524-7.498-2.346V147.279L106.558,147.279z M94.872,147.393
	c1.659,0.158,3.332,0.236,5.016,0.236c0.63,0,1.252-0.009,1.858-0.024v-36.106c-0.738-0.188-1.499-0.374-2.283-0.565
	c-1.598-0.402-3.126-0.805-4.59-1.203V147.393L94.872,147.393z M99.888,156.558c-1.688,0-3.361-0.065-5.016-0.188v7.705h-4.808
	v-8.245c-3.877-0.582-7.665-1.521-11.36-2.818c-6.751-2.358-11.972-5.473-15.654-9.348l4.111-8.079
	c3.588,3.591,8.358,6.497,14.308,8.714c2.822,1.057,5.688,1.857,8.596,2.411v-38.357c-3.253-0.978-6.073-1.936-8.453-2.875
	c-4.438-1.747-8.244-4.414-11.407-8.004c-3.166-3.591-4.745-8.454-4.745-14.595c0-5.005,1.322-9.561,3.964-13.672
	c2.647-4.109,6.709-7.392,12.188-9.846c2.533-1.139,5.353-2.009,8.453-2.623v-9.492h4.808v8.78c2.175-0.226,4.464-0.341,6.874-0.35
	v-8.431h4.812v8.598c4.097,0.307,8.132,1.03,12.104,2.169c5.429,1.56,10.129,3.708,14.097,6.449l-3.545,8.358
	c-4.151-2.741-8.592-4.794-13.316-6.162c-3.155-0.917-6.27-1.525-9.34-1.83v37.906c5.723,1.498,10.466,2.98,14.228,4.446
	c4.488,1.749,8.29,4.392,11.404,7.933c3.119,3.542,4.681,8.336,4.681,14.382c0,5.005-1.346,9.567-4.038,13.67
	c-2.695,4.11-6.826,7.367-12.401,9.774c-3.972,1.725-8.6,2.83-13.873,3.322v7.814h-4.812v-7.542
	C101.136,156.55,100.516,156.558,99.888,156.558L99.888,156.558z"/>

</svg>
