<?xml version="1.0" encoding="iso-8859-1"?>
<!-- Generator: Adobe Illustrator 12.0.0, SVG Export Plug-In . SVG Version: 6.00 Build 51448)  -->
<!DOCTYPE svg PUBLIC "-//W3C//DTD SVG 1.1//EN" "http://www.w3.org/Graphics/SVG/1.1/DTD/svg11.dtd" [
	<!ENTITY ns_svg "http://www.w3.org/2000/svg">
	<!ENTITY ns_xlink "http://www.w3.org/1999/xlink">
]>
<svg  version="1.1" id="Layer_1" xmlns="&ns_svg;" xmlns:xlink="&ns_xlink;" width="109.297" height="108.953"
	 viewBox="0 0 109.297 108.953" overflow="visible" enable-background="new 0 0 109.297 108.953" xml:space="preserve">
<path fill-rule="evenodd" clip-rule="evenodd" d="M25.252,108.953c-13.936,0-25.236-11.301-25.236-25.236
	c0-13.935,11.301-25.235,25.236-25.235c13.935,0,25.236,11.301,25.236,25.235C50.488,97.652,39.187,108.953,25.252,108.953
	L25.252,108.953z M25.252,102.567c10.41,0,18.85-8.44,18.85-18.851s-8.439-18.85-18.85-18.85c-10.411,0-18.851,8.439-18.851,18.85
	S14.842,102.567,25.252,102.567L25.252,102.567z M82.98,50.296c-13.886,0-25.147-11.262-25.147-25.148S69.094,0,82.98,0
	c13.887,0,25.148,11.262,25.148,25.148S96.867,50.296,82.98,50.296L82.98,50.296z M82.65,44.141c10.41,0,18.851-8.439,18.851-18.85
	S93.06,6.441,82.65,6.441s-18.85,8.44-18.85,18.85S72.24,44.141,82.65,44.141L82.65,44.141z M35.112,88.109
	c0.11,1.123-0.001,2.151-0.332,3.092c-0.324,0.934-0.841,1.769-1.538,2.485c-0.696,0.725-1.566,1.328-2.609,1.82
	c-1.036,0.483-2.206,0.838-3.5,1.063l-0.022,4.231c-0.004,0.108-0.023,0.198-0.064,0.282c-0.041,0.085-0.118,0.159-0.247,0.218
	c-0.127,0.066-0.297,0.128-0.517,0.175c-0.22,0.054-0.504,0.1-0.846,0.13c-0.433,0.039-0.791,0.051-1.06,0.035
	c-0.269-0.017-0.483-0.052-0.637-0.112s-0.268-0.145-0.32-0.254c-0.061-0.116-0.087-0.249-0.074-0.392l0.044-4.019
	c-0.594-0.027-1.155-0.078-1.69-0.151c-0.529-0.081-1.009-0.173-1.45-0.288c-0.433-0.109-0.818-0.23-1.141-0.363
	c-0.314-0.127-0.567-0.26-0.735-0.393c-0.175-0.14-0.309-0.351-0.4-0.639c-0.099-0.288-0.176-0.72-0.232-1.295
	c-0.043-0.441-0.065-0.811-0.065-1.101s0.02-0.515,0.074-0.681c0.055-0.16,0.128-0.275,0.227-0.345
	c0.099-0.069,0.215-0.106,0.347-0.118c0.182-0.017,0.449,0.061,0.803,0.225c0.361,0.163,0.821,0.338,1.375,0.53
	c0.554,0.187,1.217,0.344,1.996,0.469c0.773,0.133,1.676,0.146,2.694,0.056c1.598-0.144,2.756-0.531,3.475-1.169
	s1.036-1.429,0.944-2.372c-0.061-0.621-0.279-1.128-0.653-1.5c-0.375-0.377-0.856-0.691-1.444-0.949
	c-0.588-0.258-1.243-0.476-1.971-0.652c-0.721-0.179-1.464-0.368-2.231-0.583c-0.76-0.208-1.509-0.458-2.25-0.763
	c-0.74-0.305-1.412-0.696-2.022-1.182c-0.61-0.484-1.12-1.093-1.53-1.832c-0.41-0.732-0.667-1.641-0.772-2.724
	c-0.096-0.982-0.009-1.888,0.254-2.722c0.257-0.832,0.684-1.579,1.267-2.238c0.576-0.659,1.317-1.218,2.216-1.67
	c0.898-0.458,1.934-0.808,3.108-1.041l0.02-3.975c0.003-0.108,0.022-0.198,0.064-0.275c0.042-0.072,0.126-0.147,0.246-0.218
	c0.126-0.072,0.297-0.129,0.511-0.175c0.214-0.046,0.499-0.085,0.854-0.117c0.425-0.038,0.776-0.049,1.06-0.034
	c0.283,0.016,0.504,0.05,0.658,0.109c0.16,0.061,0.26,0.146,0.313,0.256c0.054,0.116,0.087,0.248,0.101,0.389l-0.043,3.741
	c0.382,0.02,0.793,0.051,1.221,0.106c0.435,0.056,0.843,0.127,1.217,0.214c0.382,0.095,0.73,0.191,1.043,0.305
	c0.313,0.107,0.535,0.215,0.657,0.319c0.129,0.096,0.224,0.202,0.297,0.304c0.074,0.107,0.136,0.237,0.187,0.401
	c0.05,0.157,0.091,0.356,0.127,0.582c0.036,0.227,0.069,0.486,0.098,0.787c0.04,0.408,0.066,0.743,0.07,1.006
	s-0.018,0.467-0.061,0.605c-0.035,0.146-0.09,0.238-0.155,0.291s-0.14,0.08-0.237,0.089c-0.175,0.016-0.448-0.041-0.799-0.185
	c-0.358-0.137-0.794-0.279-1.316-0.436c-0.515-0.149-1.104-0.278-1.771-0.394c-0.658-0.11-1.378-0.133-2.16-0.063
	c-0.704,0.063-1.305,0.185-1.802,0.358c-0.489,0.178-0.876,0.395-1.167,0.664c-0.292,0.262-0.494,0.563-0.616,0.905
	c-0.115,0.334-0.157,0.702-0.118,1.097c0.06,0.608,0.278,1.115,0.66,1.499c0.383,0.391,0.871,0.704,1.466,0.954
	s1.263,0.467,1.999,0.65c0.743,0.184,1.494,0.379,2.267,0.586c0.767,0.208,1.53,0.463,2.278,0.761
	c0.752,0.29,1.432,0.681,2.041,1.159c0.61,0.479,1.126,1.079,1.541,1.798C34.746,86.158,35.008,87.046,35.112,88.109L35.112,88.109z
	 M91.01,35.833c0,0.662-0.062,1.185-0.185,1.569c-0.115,0.385-0.284,0.677-0.492,0.885c-0.207,0.215-0.515,0.431-0.915,0.646
	c-0.399,0.215-0.884,0.422-1.461,0.607c-0.576,0.185-1.238,0.338-1.984,0.461c-0.745,0.124-1.568,0.185-2.469,0.185
	c-1.699,0-3.198-0.223-4.506-0.654c-1.308-0.438-2.423-1.069-3.354-1.884c-0.931-0.823-1.691-1.822-2.269-3.022
	c-0.577-1.192-0.992-2.546-1.246-4.061h-2.168c-0.224,0-0.4-0.146-0.539-0.446c-0.13-0.292-0.199-0.785-0.199-1.469
	c0-0.346,0.007-0.638,0.03-0.884c0.023-0.238,0.062-0.431,0.115-0.569c0.054-0.146,0.115-0.254,0.2-0.315
	c0.085-0.069,0.185-0.107,0.308-0.107h2c0-0.223,0-0.461-0.008-0.708s-0.008-0.492-0.008-0.731c0-0.3,0-0.6,0.008-0.892
	c0.008-0.292,0.008-0.576,0.008-0.845h-2c-0.23,0-0.393-0.139-0.5-0.416c-0.1-0.277-0.153-0.769-0.153-1.477
	c0-0.361,0.016-0.661,0.054-0.899s0.092-0.431,0.161-0.577c0.062-0.138,0.146-0.238,0.231-0.299
	c0.092-0.062,0.191-0.092,0.292-0.092h2.322c0.3-1.438,0.738-2.761,1.322-3.953c0.577-1.192,1.315-2.223,2.23-3.091
	c0.907-0.862,1.992-1.531,3.261-2c1.27-0.477,2.753-0.715,4.453-0.715c0.784,0,1.538,0.062,2.261,0.169
	c0.73,0.115,1.392,0.261,1.977,0.446c0.584,0.177,1.069,0.361,1.453,0.546c0.385,0.192,0.654,0.354,0.823,0.485
	c0.161,0.138,0.284,0.276,0.361,0.423c0.069,0.138,0.131,0.315,0.177,0.523c0.046,0.215,0.085,0.477,0.115,0.799
	c0.031,0.323,0.046,0.723,0.046,1.185c0,0.408-0.015,0.738-0.046,0.992c-0.03,0.254-0.084,0.462-0.146,0.623
	c-0.069,0.154-0.154,0.262-0.254,0.323c-0.093,0.062-0.2,0.093-0.323,0.093c-0.238,0-0.522-0.108-0.846-0.315
	c-0.323-0.215-0.724-0.439-1.192-0.693c-0.477-0.246-1.038-0.469-1.699-0.669c-0.661-0.207-1.438-0.308-2.322-0.308
	c-0.847,0-1.577,0.116-2.207,0.346c-0.631,0.239-1.178,0.577-1.639,1.031c-0.454,0.446-0.83,0.992-1.115,1.623
	c-0.284,0.631-0.5,1.338-0.654,2.138h6.176c0.108,0,0.208,0.03,0.308,0.092c0.093,0.061,0.178,0.161,0.231,0.299
	c0.061,0.146,0.115,0.339,0.146,0.577c0.038,0.238,0.062,0.539,0.062,0.899c0,0.708-0.068,1.2-0.207,1.477
	c-0.131,0.276-0.316,0.416-0.539,0.416h-6.621c-0.016,0.246-0.03,0.484-0.039,0.73c-0.007,0.254-0.007,0.523-0.007,0.823
	c0,0.277,0,0.538,0.007,0.799c0.009,0.27,0.023,0.539,0.039,0.823h6.621c0.108,0,0.208,0.039,0.308,0.107
	c0.093,0.062,0.178,0.169,0.231,0.315c0.061,0.139,0.115,0.331,0.146,0.569c0.038,0.246,0.062,0.538,0.062,0.884
	c0,0.684-0.068,1.177-0.207,1.469c-0.131,0.3-0.316,0.446-0.539,0.446h-6.198c0.123,0.762,0.323,1.454,0.615,2.062
	c0.284,0.607,0.661,1.123,1.131,1.538c0.477,0.423,1.054,0.746,1.738,0.969c0.684,0.231,1.499,0.338,2.445,0.338
	c0.884,0,1.653-0.1,2.307-0.315c0.654-0.208,1.223-0.438,1.7-0.7c0.484-0.254,0.884-0.484,1.207-0.692
	c0.323-0.215,0.592-0.315,0.8-0.315c0.123,0,0.23,0.023,0.331,0.084c0.092,0.062,0.177,0.177,0.246,0.354
	c0.068,0.17,0.115,0.408,0.146,0.716C90.995,34.911,91.01,35.326,91.01,35.833L91.01,35.833z M54.144,73.855
	c-0.348,0-0.693-0.009-1.036-0.026c-3.054-8.599-9.976-15.365-18.672-18.208c-0.039-0.506-0.059-1.017-0.059-1.533
	c0-10.915,8.852-19.767,19.767-19.767c0.28,0,0.559,0.007,0.837,0.019c2.925,8.909,9.984,15.946,18.909,18.84
	c0.014,0.301,0.021,0.604,0.021,0.908C73.911,65.004,65.059,73.855,54.144,73.855L54.144,73.855z M48.348,57.907
	c0,1.001,0.186,1.881,0.559,2.641c0.372,0.755,0.88,1.389,1.519,1.892c0.639,0.509,1.384,0.886,2.239,1.142
	c0.855,0.257,1.771,0.383,2.742,0.383c0.658,0,1.272-0.051,1.836-0.161c0.563-0.105,1.062-0.236,1.494-0.388
	c0.432-0.155,0.794-0.312,1.086-0.482c0.287-0.166,0.498-0.312,0.624-0.442c0.131-0.126,0.221-0.313,0.271-0.549
	c0.056-0.241,0.08-0.589,0.08-1.041c0-0.307-0.01-0.559-0.024-0.765c-0.021-0.206-0.056-0.377-0.096-0.503
	c-0.045-0.126-0.105-0.217-0.182-0.271c-0.07-0.056-0.155-0.081-0.256-0.081c-0.136,0-0.332,0.081-0.584,0.242
	c-0.246,0.161-0.568,0.342-0.966,0.538c-0.392,0.196-0.86,0.377-1.403,0.538c-0.548,0.161-1.177,0.241-1.896,0.241
	c-0.473,0-0.895-0.056-1.268-0.166c-0.372-0.115-0.689-0.276-0.951-0.482c-0.256-0.207-0.458-0.458-0.593-0.765
	c-0.141-0.307-0.207-0.644-0.207-1.016c0-0.434,0.116-0.806,0.353-1.112c0.236-0.312,0.543-0.588,0.92-0.825
	c0.249-0.159,0.521-0.312,0.815-0.458h6.575c0.096,0,0.175-0.106,0.175-0.236v-0.939c0-0.129-0.079-0.235-0.175-0.235H47.371
	c-0.096,0-0.175,0.106-0.175,0.235v0.939c0,0.13,0.079,0.236,0.175,0.236h1.288C48.45,56.561,48.348,57.189,48.348,57.907
	L48.348,57.907z M47.371,51.964h6.395l0.181-0.078c0.493-0.207,0.931-0.433,1.318-0.674c0.387-0.242,0.699-0.518,0.93-0.825
	c0.231-0.313,0.348-0.679,0.348-1.102c0-0.282-0.056-0.553-0.156-0.81c-0.105-0.257-0.262-0.473-0.473-0.654
	s-0.473-0.327-0.79-0.428c-0.312-0.106-0.68-0.156-1.102-0.156c-0.543,0-1.036,0.065-1.489,0.201
	c-0.453,0.131-0.85,0.277-1.192,0.443c-0.348,0.161-0.634,0.312-0.87,0.448c-0.237,0.136-0.408,0.206-0.519,0.206
	c-0.105,0-0.191-0.03-0.256-0.09c-0.065-0.055-0.116-0.151-0.146-0.277c-0.035-0.131-0.06-0.292-0.075-0.488
	c-0.015-0.196-0.02-0.438-0.02-0.719c0-0.257,0.005-0.473,0.01-0.644c0.01-0.171,0.03-0.313,0.055-0.428
	c0.025-0.111,0.051-0.202,0.086-0.272s0.1-0.151,0.201-0.251c0.096-0.095,0.297-0.222,0.604-0.367
	c0.307-0.146,0.654-0.281,1.046-0.397c0.393-0.121,0.815-0.211,1.268-0.282c0.453-0.071,0.905-0.101,1.353-0.101
	c0.875,0,1.705,0.11,2.485,0.336c0.779,0.227,1.458,0.569,2.031,1.026c0.579,0.453,1.036,1.031,1.374,1.72
	c0.337,0.694,0.508,1.499,0.508,2.41c0,0.8-0.116,1.479-0.353,2.052c-0.027,0.067-0.057,0.134-0.087,0.199h0.998
	c0.096,0,0.175,0.106,0.175,0.236v0.939c0,0.129-0.079,0.235-0.175,0.235H47.371c-0.096,0-0.175-0.106-0.175-0.235V52.2
	C47.195,52.07,47.274,51.964,47.371,51.964L47.371,51.964z M4.957,32.133L0,30.53c1.353,4.861,2.706,9.721,4.059,14.582
	c1.031,3.626,3.229,4.098,5.707,1.737l11.729-9.371l-4.957-1.602l0.006-0.072c5.813-11.532,16.768-20.118,30.015-22.577
	c8.37-1.553,8.318-13.423-0.911-11.938C27.683,4.182,12.85,15.828,5.37,31.525C5.184,31.767,5.042,31.975,4.957,32.133L4.957,32.133
	z M104.273,73.796l5.024,1.377c-1.571-4.795-3.143-9.589-4.714-14.384c-1.194-3.574-3.411-3.947-5.78-1.477L87.51,69.205
	l5.024,1.376l-0.003,0.072c-5.284,11.783-15.84,20.855-28.962,23.911c-8.291,1.931-7.702,13.786,1.45,11.885
	c17.815-3.702,32.105-16.008,38.868-32.027C104.063,74.172,104.195,73.958,104.273,73.796L104.273,73.796z"/>
</svg>
