<?xml version="1.0" encoding="utf-8"?>
<!DOCTYPE svg PUBLIC "-//W3C//DTD SVG 1.1//EN" "http://www.w3.org/Graphics/SVG/1.1/DTD/svg11.dtd">
<svg version="1.1" xmlns="http://www.w3.org/2000/svg" xmlns:xlink="http://www.w3.org/1999/xlink" x="0px" y="0px" width="216px" height="216px" viewBox="0 0 216 216" enable-background="new 0 0 216 216" xml:space="preserve">

<path  fill-rule="evenodd" clip-rule="evenodd"  d="M16.017-0.2h183.806
	c8.922,0,16.217,7.298,16.217,16.216v183.806c0,8.918-7.295,16.217-16.217,16.217H16.017c-8.918,0-16.216-7.299-16.216-16.217
	V16.017C-0.2,7.098,7.098-0.2,16.017-0.2L16.017-0.2z M16.017,4.804h183.806c6.167,0,11.211,5.045,11.211,11.212v183.806
	c0,6.167-5.044,11.211-11.211,11.211H16.017c-6.167,0-11.212-5.044-11.212-11.211V16.017C4.804,9.85,9.85,4.804,16.017,4.804
	L16.017,4.804z M98.009,192.254l-0.004-8.697c-19.211-0.68-37.376-8.542-51.054-22.204C17.217,131.648,17.194,83.45,46.894,53.717
	c0.106-0.106,0.212-0.209,0.32-0.315l2.469-2.446l0.069,0.069c13.948-12.498,31.918-19.4,50.752-19.4
	c41.878,0,75.859,33.838,76.104,75.659h8.692c-0.24-46.621-38.121-84.353-84.797-84.353c-22.549,0-43.801,8.663-59.76,24.643
	C7.65,80.705,7.677,134.406,40.806,167.503C56.125,182.808,76.476,191.574,98.009,192.254L98.009,192.254z"/>

</svg>
