<?xml version="1.0" encoding="utf-8"?>
<!-- Generator: Adobe Illustrator 16.0.0, SVG Export Plug-In . SVG Version: 6.00 Build 0)  -->
<!DOCTYPE svg PUBLIC "-//W3C//DTD SVG 1.1//EN" "http://www.w3.org/Graphics/SVG/1.1/DTD/svg11.dtd">
<svg version="1.1" id="Layer_1" xmlns="http://www.w3.org/2000/svg" xmlns:xlink="http://www.w3.org/1999/xlink" x="0px" y="0px"
	 width="200px" height="200px" viewBox="0 0 200 200" enable-background="new 0 0 200 200" xml:space="preserve">
<g>
	<path fill="none" stroke="#231F20" d="M100.221,161.387c-34.031,0-61.615-27.583-61.615-61.611
		c0-34.029,27.584-61.614,61.615-61.614V1C45.669,1.003,1.447,45.226,1.453,99.779c0.001,54.553,44.227,98.771,98.779,98.766
		c54.547,0,98.768-44.224,98.768-98.77h-37.162C161.838,133.638,134.079,161.387,100.221,161.387L100.221,161.387z"/>
	<path fill="none" stroke="#231F20" d="M135.203,93.55c-8.021,8.023-21.032,8.023-29.053,0c-8.02-8.025-8.02-21.034,0-29.06
		l46.583-46.585c8.021-8.025,21.029-8.028,29.052-0.006c7.983,7.983,8.001,21.063,0.017,29.054L135.203,93.55L135.203,93.55z"/>
</g>
</svg>
