<?xml version="1.0" encoding="utf-8"?>
<!DOCTYPE svg PUBLIC "-//W3C//DTD SVG 1.1//EN" "http://www.w3.org/Graphics/SVG/1.1/DTD/svg11.dtd">
<svg version="1.1" id="Layer_1" xmlns="http://www.w3.org/2000/svg" xmlns:xlink="http://www.w3.org/1999/xlink" x="0px" y="0px"
	 width="216px" height="216px" viewBox="0 0 216 216" enable-background="new 0 0 216 216" xml:space="preserve">
<path fill-rule="evenodd" clip-rule="evenodd" d="M79.418,126.707c0,1.729,0.321,3.25,0.964,4.563
	c0.643,1.303,1.521,2.398,2.624,3.266c1.104,0.879,2.389,1.529,3.866,1.973s3.059,0.66,4.735,0.66c1.138,0,2.198-0.086,3.171-0.277
	c0.973-0.182,1.833-0.408,2.581-0.67c0.747-0.27,1.373-0.537,1.877-0.834c0.495-0.285,0.86-0.537,1.077-0.764
	c0.226-0.217,0.382-0.539,0.469-0.947c0.096-0.418,0.139-1.018,0.139-1.799c0-0.529-0.018-0.965-0.043-1.32
	c-0.035-0.355-0.096-0.652-0.165-0.869c-0.078-0.217-0.183-0.373-0.313-0.469c-0.122-0.096-0.27-0.139-0.443-0.139
	c-0.235,0-0.574,0.139-1.008,0.416c-0.426,0.279-0.982,0.592-1.668,0.93c-0.678,0.34-1.486,0.652-2.424,0.93
	c-0.947,0.277-2.033,0.418-3.275,0.418c-0.817,0-1.547-0.096-2.189-0.287c-0.643-0.199-1.19-0.479-1.642-0.834
	c-0.443-0.357-0.791-0.791-1.025-1.32c-0.243-0.531-0.356-1.113-0.356-1.756c0-0.748,0.2-1.391,0.608-1.92
	c0.408-0.539,0.938-1.018,1.59-1.426c0.43-0.273,0.9-0.537,1.408-0.789h11.356c0.166,0,0.302-0.184,0.302-0.408v-1.623
	c0-0.223-0.136-0.406-0.302-0.406H77.73c-0.167,0-0.303,0.184-0.303,0.406v1.623c0,0.225,0.136,0.408,0.303,0.408h2.224
	C79.594,124.381,79.418,125.469,79.418,126.707L79.418,126.707z M77.73,116.441h11.046l0.313-0.135
	c0.852-0.355,1.607-0.746,2.276-1.164c0.669-0.416,1.208-0.895,1.607-1.424c0.399-0.539,0.6-1.174,0.6-1.904
	c0-0.486-0.096-0.955-0.27-1.398c-0.183-0.443-0.452-0.816-0.817-1.129c-0.365-0.313-0.816-0.565-1.364-0.739
	c-0.539-0.183-1.172-0.27-1.902-0.27c-0.938,0-1.79,0.113-2.572,0.348c-0.782,0.226-1.468,0.477-2.059,0.764
	c-0.6,0.277-1.095,0.539-1.503,0.773s-0.704,0.355-0.895,0.355c-0.183,0-0.33-0.051-0.443-0.156c-0.113-0.096-0.2-0.26-0.252-0.477
	c-0.061-0.227-0.104-0.504-0.13-0.844c-0.026-0.338-0.035-0.755-0.035-1.242c0-0.443,0.009-0.816,0.018-1.112
	c0.018-0.295,0.052-0.539,0.096-0.739c0.043-0.191,0.087-0.348,0.147-0.469c0.061-0.122,0.174-0.26,0.348-0.434
	c0.165-0.165,0.513-0.382,1.042-0.635c0.53-0.252,1.13-0.486,1.808-0.686c0.677-0.208,1.407-0.365,2.189-0.487
	c0.782-0.122,1.564-0.174,2.337-0.174c1.512,0,2.945,0.191,4.292,0.583c1.347,0.391,2.52,0.982,3.51,1.772
	c0.999,0.782,1.79,1.781,2.372,2.972c0.582,1.198,0.877,2.588,0.877,4.163c0,1.381-0.2,2.553-0.608,3.545
	c-0.048,0.115-0.098,0.23-0.15,0.342h1.724c0.166,0,0.302,0.184,0.302,0.408v1.623c0,0.223-0.136,0.406-0.302,0.406H77.73
	c-0.167,0-0.303-0.184-0.303-0.406v-1.623C77.427,116.625,77.563,116.441,77.73,116.441L77.73,116.441z M82.594,57.071h13.064
	c0.888,0,1.613,0.726,1.613,1.613v0.483c0,0.888-0.726,1.613-1.613,1.613H82.594c-0.887,0-1.613-0.726-1.613-1.613v-0.483
	C80.981,57.796,81.707,57.071,82.594,57.071L82.594,57.071z M54.637,64.802h69.164v-9.082c0-1.068-0.873-1.941-1.941-1.941H56.579
	c-1.068,0-1.941,0.873-1.941,1.941V64.802L54.637,64.802z M123.801,69.318H54.637v75.979h69.164v-14.563l3.75,3.586
	c0.896,0.857,1.896,1.541,2.959,2.053V158.1c0,4.758-3.893,8.65-8.65,8.65H56.579c-4.758,0-8.65-3.893-8.65-8.65V55.721
	c0-4.758,3.892-8.65,8.65-8.65h65.281c4.758,0,8.65,3.892,8.65,8.65v15.973l-6.709,7.014V69.318L123.801,69.318z M123.801,149.813
	v8.287c0,1.066-0.873,1.941-1.941,1.941H56.579c-1.068,0-1.941-0.875-1.941-1.941v-8.287H123.801L123.801,149.813z M86.912,153.201
	h4.677c0.71,0,1.291,0.58,1.291,1.289v0.807c0,0.711-0.581,1.291-1.291,1.291h-4.677c-0.71,0-1.291-0.58-1.291-1.291v-0.807
	C85.622,153.781,86.202,153.201,86.912,153.201L86.912,153.201z M109.621,101.154l33.67-35.202c2.398-2.507,6.41-2.596,8.916-0.198
	l21.373,20.443c2.508,2.397,2.596,6.41,0.199,8.917l-33.672,35.203c-2.396,2.506-6.408,2.596-8.916,0.197l-21.373-20.443
	C107.312,107.674,107.223,103.661,109.621,101.154L109.621,101.154z M120.744,110.246l8.309-8.688l6.641,6.351l-8.311,8.688
	L120.744,110.246L120.744,110.246z M75.738,96.794c3.249-3.81,8.083-6.227,13.481-6.227c4.968,0,9.459,2.047,12.676,5.343
	c3.039,3.114,0.129,6.215-2.865,3.061c-2.464-2.597-5.949-4.218-9.811-4.218c-4.142,0-7.85,1.864-10.331,4.797
	C76.812,102.006,73.582,99.325,75.738,96.794L75.738,96.794z M111.121,87.227c-5.528-5.75-13.297-9.33-21.902-9.33
	c-8.81,0-16.743,3.753-22.292,9.745c-2.115,2.285-5.435-0.341-2.959-2.987c6.311-6.743,15.29-10.958,25.251-10.958
	c9.738,0,18.537,4.029,24.822,10.509C116.932,87.186,113.705,89.917,111.121,87.227L111.121,87.227z M104.983,93.383
	c-3.954-4.184-9.555-6.794-15.764-6.794c-6.487,0-12.309,2.85-16.284,7.365c-1.903,2.162-5.429-0.684-3.078-3.269
	c4.786-5.264,11.689-8.57,19.362-8.57c7.419,0,14.119,3.091,18.88,8.054C111.002,93.192,107.562,96.11,104.983,93.383
	L104.983,93.383z"/>
</svg>
