<?xml version="1.0" encoding="utf-8"?>
<!DOCTYPE svg PUBLIC "-//W3C//DTD SVG 1.1//EN" "http://www.w3.org/Graphics/SVG/1.1/DTD/svg11.dtd">
<svg version="1.1" id="Layer_1" xmlns="http://www.w3.org/2000/svg" xmlns:xlink="http://www.w3.org/1999/xlink" x="0px" y="0px"
	 width="216px" height="216px" viewBox="0 0 216 216" enable-background="new 0 0 216 216" xml:space="preserve">
<g>
	<path fill-rule="evenodd" clip-rule="evenodd" d="M143.909,201.166c1.526,0.813,3.774,0.997,5.187,0
		c8.109-5.727,8.253-8.12,12.605-17.782c3.116-6.922,5.674-13.771,8.241-21.402c4.733-14.068,8.058-33.036,8.058-51.974v-1.482
		c0-19.274-3.239-37.651-8.058-51.973c-2.568-7.637-5.136-14.854-8.484-21.901c-4.703-9.899-4.063-11.396-12.362-17.284
		c-1.409-1-3.637-0.764-5.187,0c-2.697,1.33-7.412,4.385-7.412,8.894c0,2.492,12.547,29.124,14.729,35.668
		c3.566,10.698,7.506,28.997,7.506,42.89v7.412c0,14.136-3.473,32.296-7.133,43.264c-2.058,6.162-15.102,35.158-15.102,36.036
		C136.497,197.102,140.707,199.461,143.909,201.166L143.909,201.166z"/>
	<path fill-rule="evenodd" clip-rule="evenodd" d="M100.924,44.048v2.224c0,0.765,10.235,23.698,11.764,28.256
		c3.157,9.415,5.282,22.359,5.282,34.738c0,12.379-2.125,25.323-5.282,34.738c-1.528,4.559-11.764,27.492-11.764,28.257v2.224
		c0,3.98,4.173,8.152,8.152,8.152h2.964c11.967,0,25.198-49.33,25.198-65.96v-5.929c0-16.041-2.258-30.992-6.389-43.266
		c-2.66-7.897-10.543-31.587-18.81-31.587h-2.964C105.097,35.896,100.924,40.069,100.924,44.048L100.924,44.048z"/>
	<path fill-rule="evenodd" clip-rule="evenodd" d="M66.833,60.353v2.964c0,4.531,11.858,23.34,11.858,40.021v10.376
		c0,16.906-11.858,35.714-11.858,40.021v2.965c0,4.33,3.822,8.151,8.152,8.151h2.223c11.954,0,20.751-37.082,20.751-51.878v-7.412
		c0-15.326-8.734-53.36-20.751-53.36h-2.223C71.005,52.201,66.833,56.374,66.833,60.353L66.833,60.353z"/>
	<path fill-rule="evenodd" clip-rule="evenodd" d="M32,78.14v4.447c4.421,5.087,8.894,16.223,8.894,25.939v1.482
		c0,9.717-4.472,20.853-8.894,25.939v4.446c2.704,4.261,2.167,8.152,10.375,8.152c9.371,0,17.787-23.201,17.787-33.35v-11.858
		c0-10.148-8.416-33.351-17.787-33.351C34.167,69.987,34.704,73.879,32,78.14L32,78.14z"/>
</g>
</svg>
