<?xml version="1.0" encoding="iso-8859-1"?>
<!-- Generator: Adobe Illustrator 12.0.0, SVG Export Plug-In . SVG Version: 6.00 Build 51448)  -->
<!DOCTYPE svg PUBLIC "-//W3C//DTD SVG 1.1//EN" "http://www.w3.org/Graphics/SVG/1.1/DTD/svg11.dtd" [
	<!ENTITY ns_svg "http://www.w3.org/2000/svg">
	<!ENTITY ns_xlink "http://www.w3.org/1999/xlink">
]>
<svg  version="1.1" id="Layer_1" xmlns="&ns_svg;" xmlns:xlink="&ns_xlink;" width="112.989" height="119.406"
	 viewBox="0 0 112.989 119.406" overflow="visible" enable-background="new 0 0 112.989 119.406" xml:space="preserve">
<path fill-rule="evenodd" clip-rule="evenodd" d="M95.836,14.484c12.767,7.998,18.472,24.236,12.904,40.14l4.249,1.625
	c-3.582,2.565-7.165,5.13-10.747,7.697c-2.687,1.901-4.44,1.019-4.833-1.944l-2.847-12.799l4.249,1.625
	c3.495-10.397-0.468-21.642-9.181-27.675C84.937,19.593,90.433,11.285,95.836,14.484L95.836,14.484z M17.154,103.61
	C4.387,95.612-1.318,79.374,4.25,63.47L0,61.845c3.583-2.565,7.165-5.131,10.748-7.696c2.687-1.902,4.44-1.019,4.833,1.944
	l2.846,12.798l-4.249-1.625c-3.495,10.398,0.467,21.642,9.18,27.675C28.053,98.5,22.557,106.809,17.154,103.61L17.154,103.61z
	 M19.365,16.871h14.162v10.823H19.365V16.871L19.365,16.871z M18.048,0h57.379c4.086,0,7.429,3.343,7.429,7.428v34.838
	c0,4.085-3.343,7.428-7.429,7.428H18.048c-4.085,0-7.428-3.343-7.428-7.428V7.428C10.62,3.343,13.963,0,18.048,0L18.048,0z
	 M37.431,84.576h57.937v-7.213h-12.76H37.431V84.576L37.431,84.576z M95.368,94.861H37.431v17.88h16.095h41.842V94.861
	L95.368,94.861z M37.688,69.671h57.425c4.089,0,7.434,3.346,7.434,7.435v34.865c0,4.089-3.345,7.435-7.434,7.435H37.688
	c-4.089,0-7.435-3.346-7.435-7.435v-17.11V84.576v-7.47C30.253,73.017,33.599,69.671,37.688,69.671L37.688,69.671z"/>
</svg>
