<?xml version="1.0" encoding="utf-8"?>
<!DOCTYPE svg PUBLIC "-//W3C//DTD SVG 1.1//EN" "http://www.w3.org/Graphics/SVG/1.1/DTD/svg11.dtd">
<svg version="1.1" xmlns="http://www.w3.org/2000/svg" xmlns:xlink="http://www.w3.org/1999/xlink" x="0px" y="0px" width="216px" height="216px" viewBox="0 0 216 216" enable-background="new 0 0 216 216" xml:space="preserve">

<g id="proc">
	<g display="inline">
		<path fill-rule="evenodd" clip-rule="evenodd" stroke="#000000" stroke-width="0.5669" stroke-miterlimit="22.9256" d="
			M110.792,46.014c34.785,0,62.994,28.209,62.994,62.995c0,34.785-28.209,62.995-62.994,62.995s-62.996-28.21-62.996-62.995
			C47.796,74.223,76.007,46.014,110.792,46.014L110.792,46.014z M110.792,55.613c29.484,0,53.395,23.911,53.395,53.396
			c0,29.484-23.91,53.396-53.395,53.396c-29.485,0-53.396-23.911-53.396-53.396C57.396,79.524,81.307,55.613,110.792,55.613
			L110.792,55.613z M127.71,80.767h7.873c0.93,0,1.082,0.817,0.34,1.818l-40.257,54.223c-0.744,1-2.11,1.818-3.04,1.818h-7.875
			c-0.928,0-1.082-0.818-0.338-1.818l40.256-54.223C125.411,81.584,126.78,80.767,127.71,80.767L127.71,80.767z M90.244,79.629
			c8.862,0,16.052,7.738,16.052,17.279s-7.189,17.278-16.052,17.278s-16.05-7.737-16.05-17.278S81.382,79.629,90.244,79.629
			L90.244,79.629z M90.244,90.771c3.149,0,5.702,2.748,5.702,6.138s-2.553,6.138-5.702,6.138c-3.147,0-5.702-2.748-5.702-6.138
			S87.097,90.771,90.244,90.771L90.244,90.771z M130.003,106.249c8.863,0,16.051,7.737,16.051,17.277
			c0,9.543-7.188,17.279-16.051,17.279s-16.051-7.736-16.051-17.279C113.952,113.986,121.14,106.249,130.003,106.249
			L130.003,106.249z M130.003,117.388c3.148,0,5.703,2.75,5.703,6.139c0,3.391-2.555,6.139-5.703,6.139s-5.701-2.748-5.701-6.139
			C124.302,120.138,126.854,117.388,130.003,117.388L130.003,117.388z"/>
		<polygon display="none" fill="none" stroke="#FFFFFF" stroke-width="0.5669" stroke-miterlimit="22.9256" points="0.999,4 
			217.001,4 217.001,220 0.999,220 0.999,4 		"/>
	</g>
</g>

</svg>
