<?xml version="1.0" encoding="utf-8"?>
<!DOCTYPE svg PUBLIC "-//W3C//DTD SVG 1.1//EN" "http://www.w3.org/Graphics/SVG/1.1/DTD/svg11.dtd">
<svg version="1.1" xmlns="http://www.w3.org/2000/svg" xmlns:xlink="http://www.w3.org/1999/xlink" x="0px" y="0px" width="216px" height="216px" viewBox="0 0 216 216" enable-background="new 0 0 216 216" xml:space="preserve">
<g id="cred">
		<path fill-rule="evenodd" clip-rule="evenodd" d="M88.92,73.68c-0.131-0.533-0.301-1.057-0.494-1.57
			c-0.443-1.18-1.012-2.322-1.6-3.436c-2.834-5.362-5.722-9.897-5.722-16.218c0-7.812,4.284-13.753,12.553-13.753h1.44
			c3.021,0,5.23,1.49,7.42,3.346c0.01,0.008,0.021,0.017,0.031,0.026c0.406-0.362,0.817-0.735,1.223-1.041
			c2.121-1.603,4.477-2.572,7.17-2.572h1.682c4.697,0,10.135,3.277,12.521,7.701c0.758-0.033,1.541-0.019,2.361-0.019h0.961
			c5.348,0,11.111,3.571,11.111,9.432v3.121c0,1.868-0.414,3.677-1.221,5.362c-1.381,2.886-3.662,4.965-6.205,6.813
			c-0.521,0.38-1.574,1.06-2.506,1.725c8.756,3.696,15.311,10.592,18.945,21.602c1.32,3.998,1.855,7.66,2.563,11.778
			c0.324,1.883,0.441,3.784,0.527,5.688c-0.707,0.83-1.154,2.051-1.154,3.408v8.811l-2.395-0.023
			c-0.943-1.795-1.846-3.609-2.092-4.717c-0.824-3.713-0.439-8.219-1.107-12.098c-0.766-4.459-1.063-7.019-2.334-10.868
			c-4.467-13.53-14.156-20.675-32.139-20.675c-18.057,0-27.617,7.113-32.137,20.676c-1.231,3.693-1.594,6.623-2.243,10.959
			c-0.435,2.903-0.521,9.545-1.191,12.012c-1.726,6.355-6.386,9.529-6.665,18.84l-6.205-2.148c0.469-5.607,2.297-9.203,5.172-14.582
			c0.646-1.209,1.246-2.434,1.607-3.762c0.34-1.291,0.411-3.617,0.503-4.986c0.14-2.078,0.229-4.253,0.538-6.308
			c0.626-4.181,1.152-7.984,2.496-12.021C75.675,84.167,81.357,77.568,88.92,73.68L88.92,73.68z M103.26,48.856h-1.44
			c-2.113,0-4.442-3.841-6.722-3.841h-1.44c-4.466,0-6.241,2.846-6.241,7.442c0,7.23,6.021,12.799,7.682,19.925
			c1.891-0.586,4.691-1.072,6.773-1.389c7.041-1.072,13.105-0.529,20.375,0.429l-0.021,0.24c1.014-4.351,11.043-6.437,11.043-12.963
			v-3.121c0-1.927-2.752-3.121-4.801-3.121h-0.961c-3.625,0-3.428-0.229-4.023,2.218c-0.354,1.452-1.258,3.495-1.975,4.507
			c-1.279,1.809-4.611,5.209-6.965,5.757c2.688-4.012,5.521-7.385,5.521-14.164c0-2.799-4.549-6.001-7.441-6.001h-1.682
			C107.387,44.775,105.659,48.856,103.26,48.856L103.26,48.856z"/>
		<path fill-rule="evenodd" clip-rule="evenodd" d="M104.895,137.053l13.934-2.148c1.4-1.811,3.121-3.914,5.078-5.902
			c4.6-5.26,13.104-7.109,17.896-6.662l6.76,0.068v-8.813c0-2.484,1.508-4.52,3.348-4.52h22.885c1.842,0,3.348,2.033,3.348,4.52
			v57.207c0,2.486-1.506,4.52-3.348,4.52H151.91c-1.84,0-3.348-2.033-3.348-4.52v-6.857l-33.447,11.883
			c-2.857,0.947-5.795,1.801-8.795,2.043c-1.646,0.133-3.373-0.238-4.868-0.943l-50.409-25.125
			c-8.635-6.428-0.404-20.275,8.524-17.609l27.711,9.596c0.46-1.109,2.364-4.117,4.438-4.705l4.355-0.672L104.895,137.053
			L104.895,137.053z M171.197,116.904h-15.689v51.473h15.689V116.904L171.197,116.904z M130.818,153.059
			c-0.674-0.898-1.861-1.527-2.984-1.57l-32.82,0.156c-1.484-0.109-3.307-1.346-3.455-2.826s1.398-3.041,2.826-3.455
			c9.172-2.654,18.486-1.822,27.561-4.789c2.463-0.807,3.648-4.748,5.656-6.986c2.629-2.357,3.439-3.617,6.797-4.719l14.164,0.141
			v28.361l-39.729,13.119c-2.063,0.588-4.474,0.863-6.438,0l-47.111-23.557c-1.314-0.775-1.111-3.168-0.472-4.555
			c0.511-1.105,2.128-1.908,3.298-1.57l28.264,10.703c0.408,1.768,1.473,2.881,2.673,3.902c1.392,1.184,3.048,2.367,4.868,2.512
			l34.234,0.629c1.334-0.072,2.441-1.115,3.023-2.314C131.586,155.387,131.387,153.816,130.818,153.059L130.818,153.059z"/>
		<path fill-rule="evenodd" clip-rule="evenodd" d="M110.245,128.346c-11.965,0-21.669-9.705-21.669-21.669
			c0-11.966,9.704-21.669,21.669-21.669c11.966,0,21.669,9.703,21.669,21.669C131.914,118.641,122.211,128.346,110.245,128.346
			L110.245,128.346z M100.156,112.385c0,1.604,0.299,3.014,0.895,4.232c0.597,1.209,1.411,2.225,2.436,3.029
			c1.023,0.814,2.217,1.42,3.586,1.83c1.371,0.412,2.838,0.613,4.395,0.613c1.055,0,2.039-0.08,2.941-0.258
			c0.902-0.17,1.701-0.379,2.395-0.621c0.693-0.25,1.273-0.5,1.74-0.773c0.461-0.266,0.799-0.5,1-0.709
			c0.209-0.201,0.355-0.5,0.436-0.879c0.088-0.387,0.129-0.943,0.129-1.67c0-0.49-0.016-0.895-0.041-1.225
			c-0.031-0.33-0.088-0.604-0.152-0.807c-0.072-0.201-0.17-0.346-0.291-0.436c-0.111-0.088-0.25-0.127-0.41-0.127
			c-0.219,0-0.533,0.127-0.936,0.387c-0.395,0.258-0.91,0.547-1.547,0.861c-0.629,0.314-1.379,0.605-2.25,0.863
			c-0.879,0.258-1.887,0.387-3.039,0.387c-0.758,0-1.434-0.088-2.031-0.266c-0.596-0.186-1.104-0.443-1.523-0.773
			c-0.41-0.332-0.733-0.734-0.951-1.227c-0.226-0.492-0.33-1.031-0.33-1.627c0-0.693,0.186-1.291,0.564-1.783
			c0.379-0.5,0.87-0.941,1.475-1.322c0.398-0.254,0.836-0.498,1.307-0.732h10.535c0.154,0,0.281-0.17,0.281-0.377v-1.506
			c0-0.207-0.127-0.377-0.281-0.377H98.59c-0.154,0-0.281,0.17-0.281,0.377v1.506c0,0.208,0.127,0.377,0.281,0.377h2.063
			C100.319,110.227,100.156,111.234,100.156,112.385L100.156,112.385z M98.59,102.861h10.248l0.291-0.125
			c0.789-0.331,1.49-0.693,2.111-1.08c0.621-0.388,1.121-0.831,1.492-1.322c0.369-0.5,0.555-1.089,0.555-1.766
			c0-0.451-0.088-0.887-0.25-1.298c-0.168-0.411-0.418-0.758-0.758-1.048c-0.338-0.291-0.757-0.524-1.265-0.686
			c-0.5-0.17-1.089-0.25-1.766-0.25c-0.87,0-1.66,0.105-2.386,0.322c-0.726,0.21-1.362,0.443-1.91,0.71
			c-0.557,0.258-1.016,0.499-1.395,0.718c-0.379,0.217-0.653,0.33-0.83,0.33c-0.17,0-0.307-0.049-0.412-0.145
			c-0.104-0.09-0.186-0.242-0.233-0.443c-0.057-0.21-0.097-0.469-0.12-0.782c-0.025-0.315-0.033-0.702-0.033-1.153
			c0-0.411,0.008-0.758,0.016-1.031c0.018-0.274,0.049-0.5,0.09-0.686c0.04-0.178,0.08-0.322,0.137-0.436
			c0.057-0.112,0.161-0.242,0.322-0.402c0.153-0.153,0.476-0.355,0.967-0.589c0.492-0.233,1.049-0.451,1.678-0.638
			c0.628-0.193,1.305-0.338,2.031-0.451c0.725-0.112,1.451-0.16,2.168-0.16c1.402,0,2.732,0.177,3.982,0.539
			c1.25,0.363,2.338,0.912,3.256,1.645c0.928,0.727,1.66,1.653,2.201,2.758c0.541,1.111,0.814,2.402,0.814,3.861
			c0,1.281-0.186,2.369-0.564,3.289c-0.045,0.107-0.092,0.213-0.139,0.318h1.598c0.154,0,0.281,0.17,0.281,0.377v1.506
			c0,0.207-0.127,0.377-0.281,0.377H98.59c-0.154,0-0.281-0.17-0.281-0.377v-1.506C98.309,103.031,98.436,102.861,98.59,102.861
			L98.59,102.861z"/>
</g>
</svg>
