<?xml version="1.0" encoding="utf-8"?>
<!DOCTYPE svg PUBLIC "-//W3C//DTD SVG 1.1//EN" "http://www.w3.org/Graphics/SVG/1.1/DTD/svg11.dtd">
<svg version="1.1" xmlns="http://www.w3.org/2000/svg" xmlns:xlink="http://www.w3.org/1999/xlink" x="0px" y="0px" width="216px" height="216px" viewBox="0 0 216 216" enable-background="new 0 0 216 216" xml:space="preserve">

<g id="depo6">
	<g display="inline">
		<path fill-rule="evenodd" clip-rule="evenodd" d="M50.87,57.905h120.011v81.89H50.87V57.905L50.87,57.905z M55.652,62.687H166.1
			v72.325H55.652V62.687L55.652,62.687z M87.338,151.09l-12.396,28.379c-0.814,1.864-3.006,3.389-4.869,3.389H59.906
			c-1.863,0-2.723-1.524-1.908-3.389l12.398-28.379H39.574V46.609h58.478c1.304-6.277,6.866-10.995,13.53-10.995
			c6.662,0,12.227,4.718,13.529,10.995h57.064v104.48h-28.236l12.398,28.379c0.814,1.864-0.045,3.389-1.908,3.389h-10.166
			c-1.863,0-4.055-1.524-4.869-3.389l-12.396-28.379h-16.945v17.79c0,1.863-1.523,3.389-3.389,3.389h-10.166
			c-1.863,0-3.388-1.525-3.388-3.389v-17.79H87.338L87.338,151.09z M103.594,46.609l-0.016,0.042l-0.014,0.042l-0.027,0.082
			l-0.001,0.002l-0.014,0.042l-0.013,0.042l-0.039,0.126l-0.014,0.042l-0.012,0.042l-0.025,0.085l-0.011,0.042l-0.012,0.043
			l-0.011,0.042l-0.023,0.086l-0.01,0.043l-0.011,0.043l-0.001,0.001l-0.029,0.129l-0.01,0.044l-0.01,0.043l-0.002,0.01
			l-0.016,0.078l-0.008,0.043l-0.009,0.044l-0.009,0.044l-0.008,0.041v0.003l-0.008,0.044l-0.021,0.133l-0.005,0.029l-0.002,0.015
			l-0.007,0.044l-0.006,0.045l-0.013,0.089l-0.003,0.017l-0.003,0.028l-0.019,0.168l-0.002,0.012v0.004l-0.004,0.04l-0.014,0.158
			l-0.002,0.016v0.008l-0.004,0.045l-0.008,0.137l-0.002,0.026l-0.001,0.021l-0.007,0.184v0.013l-0.001,0.033l-0.002,0.185
			c0,0.675,0.079,1.33,0.228,1.959h-5.437H44.357v94.915h133.035V51.392h-52.131h-5.438c0.15-0.629,0.229-1.284,0.229-1.959
			l-0.002-0.185v-0.033v-0.013l-0.008-0.184l-0.002-0.021v-0.026l-0.01-0.137l-0.002-0.045l-0.002-0.008v-0.016l-0.014-0.158
			l-0.004-0.04l-0.002-0.004v-0.012l-0.02-0.168l-0.004-0.028l-0.002-0.017l-0.012-0.089l-0.006-0.045l-0.008-0.044l-0.002-0.015
			l-0.004-0.029l-0.023-0.133l-0.008-0.044v-0.003l-0.008-0.041l-0.008-0.044l-0.008-0.044l-0.01-0.043l-0.016-0.078l-0.002-0.01
			l-0.01-0.043l-0.01-0.044l-0.029-0.129v-0.001l-0.01-0.043l-0.012-0.043l-0.021-0.086l-0.012-0.042l-0.012-0.043l-0.012-0.042
			l-0.023-0.085l-0.014-0.042l-0.012-0.042l-0.039-0.126l-0.014-0.042l-0.014-0.042v-0.002l-0.027-0.082l-0.016-0.042l-0.014-0.042
			c-1.164-3.29-4.301-5.647-7.988-5.647S104.756,43.319,103.594,46.609L103.594,46.609z M149.158,151.09h-7.379l11.789,26.985h7.379
			L149.158,151.09L149.158,151.09z M115.271,151.09h-7.379v16.396h7.379V151.09L115.271,151.09z M82.557,151.09h-7.379
			l-11.789,26.985h7.379L82.557,151.09L82.557,151.09z M75.888,69.2h43.149c0.559,0,1.016,0.457,1.016,1.015v2.205
			c0,0.559-0.457,1.016-1.016,1.016H75.888c-0.559,0-1.015-0.457-1.015-1.016v-2.205C74.873,69.657,75.329,69.2,75.888,69.2
			L75.888,69.2z M75.666,83.319h33.711c0.436,0,0.793,0.456,0.793,1.015v2.205c0,0.559-0.357,1.016-0.793,1.016H75.666
			c-0.438,0-0.793-0.457-0.793-1.016v-2.205C74.873,83.775,75.229,83.319,75.666,83.319L75.666,83.319z M75.666,111.557h33.711
			c0.436,0,0.793,0.457,0.793,1.016v2.205c0,0.559-0.357,1.015-0.793,1.015H75.666c-0.438,0-0.793-0.456-0.793-1.015v-2.205
			C74.873,112.014,75.229,111.557,75.666,111.557L75.666,111.557z M75.539,96.222h28.316c0.367,0,0.666,0.457,0.666,1.016v2.205
			c0,0.559-0.299,1.016-0.666,1.016H75.539c-0.367,0-0.666-0.457-0.666-1.016v-2.205C74.873,96.679,75.172,96.222,75.539,96.222
			L75.539,96.222z M75.348,124.264h20.227c0.262,0,0.477,0.456,0.477,1.015v2.205c0,0.559-0.215,1.016-0.477,1.016H75.348
			c-0.262,0-0.475-0.457-0.475-1.016v-2.205C74.873,124.72,75.086,124.264,75.348,124.264L75.348,124.264z M116.523,128.118v-15.485
			c0-0.506,0.232-0.94,0.578-1.29l37.984-38.611h-9.24c-0.209,0-0.379-0.457-0.379-1.015v-2.205c0-0.559,0.17-1.016,0.379-1.016
			h16.082c0.195,0,0.355,0.399,0.377,0.908c0.066,0.048,0.105,0.104,0.105,0.162v15.531c0,0.201-0.457,0.366-1.016,0.366h-2.205
			c-0.559,0-1.016-0.165-1.016-0.366v-9.466l-37.416,38.032v14.455c0,0.21-0.455,0.381-1.014,0.381h-2.205
			C116.98,128.499,116.523,128.328,116.523,128.118L116.523,128.118z M63.577,69.2h4.235c0.777,0,1.412,0.635,1.412,1.412v1.412
			c0,0.777-0.635,1.412-1.412,1.412h-4.235c-0.776,0-1.412-0.635-1.412-1.412v-1.412C62.165,69.835,62.801,69.2,63.577,69.2
			L63.577,69.2z M63.577,83.119h4.235c0.777,0,1.412,0.636,1.412,1.412v1.411c0,0.777-0.635,1.412-1.412,1.412h-4.235
			c-0.776,0-1.412-0.635-1.412-1.412v-1.411C62.165,83.755,62.801,83.119,63.577,83.119L63.577,83.119z M63.577,111.557h4.235
			c0.777,0,1.412,0.635,1.412,1.412v1.412c0,0.776-0.635,1.411-1.412,1.411h-4.235c-0.776,0-1.412-0.635-1.412-1.411v-1.412
			C62.165,112.191,62.801,111.557,63.577,111.557L63.577,111.557z M138.494,119.642c0,1.581,0.293,2.971,0.883,4.171
			c0.588,1.191,1.389,2.192,2.398,2.987c1.01,0.803,2.186,1.398,3.535,1.804c1.352,0.405,2.797,0.604,4.33,0.604
			c1.041,0,2.01-0.08,2.898-0.255c0.891-0.166,1.678-0.373,2.361-0.611c0.682-0.246,1.254-0.493,1.715-0.763
			c0.453-0.262,0.787-0.492,0.986-0.699c0.205-0.198,0.348-0.492,0.428-0.866c0.088-0.381,0.127-0.93,0.127-1.645
			c0-0.484-0.016-0.882-0.039-1.207c-0.031-0.326-0.088-0.596-0.15-0.794c-0.072-0.199-0.168-0.343-0.287-0.43
			c-0.111-0.087-0.246-0.127-0.404-0.127c-0.215,0-0.525,0.127-0.922,0.381c-0.389,0.255-0.898,0.54-1.525,0.851
			c-0.619,0.31-1.359,0.596-2.217,0.85c-0.865,0.255-1.859,0.382-2.994,0.382c-0.748,0-1.414-0.087-2.002-0.262
			c-0.588-0.184-1.09-0.438-1.502-0.764c-0.406-0.325-0.723-0.723-0.938-1.207c-0.223-0.484-0.326-1.017-0.326-1.604
			c0-0.684,0.184-1.271,0.557-1.756c0.373-0.493,0.857-0.93,1.453-1.304c0.393-0.251,0.824-0.492,1.287-0.723h10.385
			c0.15,0,0.275-0.167,0.275-0.371v-1.484c0-0.205-0.123-0.372-0.275-0.372h-21.58c-0.152,0-0.277,0.167-0.277,0.372v1.484
			c0,0.204,0.125,0.371,0.277,0.371h2.033C138.654,117.515,138.494,118.508,138.494,119.642L138.494,119.642z M136.951,110.255h10.1
			l0.285-0.123c0.779-0.326,1.471-0.683,2.082-1.064c0.611-0.381,1.104-0.818,1.469-1.303c0.367-0.492,0.549-1.072,0.549-1.74
			c0-0.445-0.088-0.873-0.246-1.279c-0.166-0.404-0.412-0.746-0.746-1.032s-0.748-0.517-1.248-0.676
			c-0.492-0.167-1.072-0.245-1.74-0.245c-0.857,0-1.637,0.103-2.352,0.317c-0.715,0.206-1.342,0.437-1.883,0.699
			c-0.549,0.254-1,0.492-1.373,0.706c-0.375,0.215-0.645,0.326-0.818,0.326c-0.168,0-0.303-0.048-0.406-0.143
			c-0.104-0.088-0.182-0.238-0.23-0.438c-0.055-0.207-0.096-0.461-0.119-0.77c-0.023-0.311-0.031-0.691-0.031-1.137
			c0-0.405,0.008-0.747,0.016-1.018c0.016-0.27,0.047-0.492,0.088-0.675c0.039-0.175,0.078-0.317,0.135-0.429
			c0.055-0.111,0.158-0.238,0.318-0.397c0.15-0.151,0.469-0.35,0.953-0.58s1.033-0.444,1.652-0.628
			c0.619-0.19,1.287-0.333,2.002-0.444s1.43-0.159,2.137-0.159c1.383,0,2.693,0.175,3.926,0.532c1.23,0.358,2.303,0.897,3.209,1.62
			c0.912,0.716,1.637,1.629,2.168,2.718c0.533,1.097,0.803,2.368,0.803,3.806c0,1.263-0.184,2.336-0.557,3.241
			c-0.043,0.106-0.09,0.211-0.137,0.313h1.576c0.152,0,0.275,0.168,0.275,0.373v1.483c0,0.204-0.125,0.372-0.275,0.372h-21.58
			c-0.152,0-0.277-0.168-0.277-0.372v-1.483C136.674,110.423,136.799,110.255,136.951,110.255L136.951,110.255z"/>
	</g>
</g>

    
</svg>
