<?xml version="1.0" encoding="utf-8"?>
<!DOCTYPE svg PUBLIC "-//W3C//DTD SVG 1.1//EN" "http://www.w3.org/Graphics/SVG/1.1/DTD/svg11.dtd">
<svg version="1.1" id="Layer_1" xmlns="http://www.w3.org/2000/svg" xmlns:xlink="http://www.w3.org/1999/xlink" x="0px" y="0px"
	 width="216px" height="216px" viewBox="0 0 216 216" enable-background="new 0 0 216 216" xml:space="preserve">
<g>
	<path fill-rule="evenodd" clip-rule="evenodd" d="M78.343,155.426c4.036,0,3.302-3.854,3.302-7.77c0-3.625,0-7.25,0-10.877
		c0-7.25,0,1.832,0-5.42c0-7.25,0-14.502,0-21.752c0-3.625,0-7.25,0-10.876c0-3.713-0.685-7.769,3.107-7.769h15.373
		c-2.743-1.63-5.167-3.741-7.157-6.215h-7.828c-5.222,0-9.711,3.954-9.711,8.934v6.603h-2.719c-5.222,0-9.711,3.954-9.711,8.934
		v45.818c0,7.359,5.305,12.818,12.624,12.818h74.19c7.32,0,12.625-5.459,12.625-12.818V94.458c0-5.667-4.045-9.711-9.711-9.711
		h-18.375c-1.99,2.475-4.414,4.585-7.156,6.215h25.92c1.754,0,3.107,1.353,3.107,3.107v61.938c0,3.221-3.215,5.631-6.797,5.631
		H76.012c-3.559,0-6.797-2.416-6.797-5.631v-46.4c0-1.755,1.353-3.107,3.107-3.107h3.107v45.816
		C75.43,153.965,76.768,155.426,78.343,155.426L78.343,155.426z M122.041,105.824c0,0.939,0.615,1.554,1.555,1.554h24.859
		c0.939,0,1.555-0.614,1.555-1.554c0-1.002-0.809-1.554-1.748-1.554h-24.471C122.852,104.271,122.041,104.822,122.041,105.824
		L122.041,105.824z M122.041,124.469c0,0.939,0.615,1.555,1.555,1.555h24.859c0.939,0,1.555-0.615,1.555-1.555
		c0-1.002-0.809-1.553-1.748-1.553h-24.471C122.852,122.916,122.041,123.467,122.041,124.469L122.041,124.469z M122.041,115.146
		c0,0.939,0.615,1.555,1.555,1.555h24.859c0.939,0,1.555-0.615,1.555-1.555c0-1.002-0.809-1.555-1.748-1.555h-24.277
		C122.826,113.592,122.041,113.988,122.041,115.146L122.041,115.146z M87.86,152.436c0,0.939,0.614,1.555,1.554,1.555h24.86
		c0.939,0,1.553-0.615,1.553-1.555c0-1.156-0.783-1.553-1.941-1.553H89.802C88.644,150.883,87.86,151.279,87.86,152.436
		L87.86,152.436z M122.041,152.436c0,0.939,0.615,1.555,1.555,1.555h24.859c0.939,0,1.555-0.615,1.555-1.555
		c0-1.156-0.785-1.553-1.941-1.553h-24.084C122.826,150.883,122.041,151.279,122.041,152.436L122.041,152.436z M87.86,133.791
		c0,0.939,0.614,1.555,1.554,1.555h59.042c0.939,0,1.555-0.615,1.555-1.555c0-1.156-0.785-1.553-1.941-1.553H89.802
		C88.644,132.238,87.86,132.635,87.86,133.791L87.86,133.791z M87.86,143.113c0,0.939,0.614,1.555,1.554,1.555h59.042
		c0.939,0,1.555-0.615,1.555-1.555c0-1.156-0.785-1.553-1.941-1.553H89.802C88.644,141.561,87.86,141.957,87.86,143.113
		L87.86,143.113z M87.86,101.163v21.753c0,1.754,1.352,3.107,3.107,3.107h21.752c1.755,0,3.106-1.354,3.106-3.107v-21.753
		c0-1.917-1.51-3.107-3.495-3.107H91.356C89.371,98.056,87.86,99.246,87.86,101.163L87.86,101.163z M94.075,104.271h15.538v15.538
		H94.075V104.271L94.075,104.271z M102.006,64.317h10.248l0.291-0.125c0.789-0.331,1.49-0.693,2.111-1.08
		c0.621-0.387,1.121-0.831,1.492-1.322c0.369-0.5,0.555-1.088,0.555-1.765c0-0.452-0.088-0.887-0.25-1.298
		c-0.168-0.411-0.418-0.758-0.756-1.048c-0.34-0.291-0.758-0.524-1.268-0.686c-0.498-0.169-1.088-0.25-1.765-0.25
		c-0.87,0-1.66,0.105-2.386,0.322c-0.726,0.21-1.362,0.443-1.911,0.71c-0.556,0.258-1.016,0.5-1.395,0.717s-0.653,0.331-0.83,0.331
		c-0.169,0-0.306-0.048-0.411-0.145c-0.105-0.089-0.186-0.242-0.234-0.443c-0.057-0.209-0.097-0.468-0.121-0.782
		c-0.024-0.315-0.033-0.702-0.033-1.153c0-0.411,0.008-0.757,0.016-1.032c0.017-0.274,0.048-0.5,0.089-0.685
		c0.041-0.177,0.081-0.322,0.137-0.436c0.057-0.113,0.162-0.242,0.323-0.403c0.153-0.153,0.476-0.354,0.967-0.588
		s1.048-0.451,1.677-0.637c0.629-0.193,1.305-0.338,2.032-0.451c0.725-0.113,1.451-0.161,2.168-0.161
		c1.402,0,2.732,0.177,3.982,0.54s2.338,0.911,3.256,1.645c0.928,0.726,1.662,1.652,2.201,2.757
		c0.541,1.112,0.814,2.402,0.814,3.861c0,1.282-0.186,2.37-0.564,3.289c-0.045,0.107-0.092,0.214-0.139,0.318h1.598
		c0.154,0,0.281,0.17,0.281,0.377v1.506c0,0.208-0.127,0.377-0.281,0.377h-21.896c-0.154,0-0.281-0.17-0.281-0.377v-1.506
		C101.725,64.487,101.851,64.317,102.006,64.317L102.006,64.317z M103.573,73.841c0,1.604,0.298,3.015,0.895,4.232
		c0.596,1.209,1.411,2.225,2.435,3.031c1.023,0.814,2.217,1.419,3.586,1.83c1.371,0.411,2.838,0.613,4.395,0.613
		c1.055,0,2.039-0.081,2.941-0.258c0.902-0.169,1.701-0.379,2.395-0.621c0.693-0.25,1.273-0.5,1.74-0.774
		c0.461-0.266,0.799-0.5,1-0.709c0.209-0.202,0.355-0.5,0.436-0.879c0.088-0.387,0.129-0.943,0.129-1.668
		c0-0.492-0.016-0.895-0.041-1.225c-0.031-0.331-0.088-0.605-0.152-0.806c-0.072-0.202-0.17-0.347-0.291-0.436
		c-0.111-0.088-0.25-0.129-0.41-0.129c-0.219,0-0.533,0.129-0.936,0.387c-0.395,0.258-0.91,0.548-1.547,0.862
		c-0.629,0.314-1.379,0.604-2.25,0.862c-0.879,0.258-1.887,0.387-3.039,0.387c-0.758,0-1.434-0.089-2.031-0.266
		c-0.596-0.186-1.104-0.443-1.523-0.774c-0.41-0.331-0.732-0.733-0.951-1.225c-0.226-0.492-0.33-1.032-0.33-1.628
		c0-0.693,0.186-1.29,0.564-1.782c0.379-0.5,0.87-0.943,1.475-1.322c0.398-0.255,0.836-0.5,1.307-0.733h10.535
		c0.154,0,0.281-0.17,0.281-0.377v-1.506c0-0.208-0.127-0.377-0.281-0.377h-21.896c-0.155,0-0.281,0.17-0.281,0.377v1.506
		c0,0.208,0.126,0.377,0.281,0.377h2.063C103.735,71.683,103.573,72.691,103.573,73.841L103.573,73.841z M113.661,89.802
		c-11.965,0-21.668-9.704-21.668-21.668c0-11.965,9.704-21.668,21.668-21.668c11.966,0,21.669,9.703,21.669,21.668
		C135.33,80.098,125.627,89.802,113.661,89.802L113.661,89.802z"/>
</g>

</svg>
