<?xml version="1.0" encoding="utf-8"?>
<!DOCTYPE svg PUBLIC "-//W3C//DTD SVG 1.1//EN" "http://www.w3.org/Graphics/SVG/1.1/DTD/svg11.dtd">
<svg version="1.1" xmlns="http://www.w3.org/2000/svg" xmlns:xlink="http://www.w3.org/1999/xlink" x="0px" y="0px" width="216px" height="216px" viewBox="0 0 216 216" enable-background="new 0 0 216 216" xml:space="preserve">

<g id="cred1">
	<g display="inline">
		<path fill-rule="evenodd" clip-rule="evenodd" d="M60.685,93.298h53.478c1.018,0,1.849,0.832,1.849,1.848v34.749
			c0,1.018-0.831,1.849-1.849,1.849H60.685c-1.017,0-1.848-0.831-1.848-1.849V95.146C58.837,94.129,59.668,93.298,60.685,93.298
			L60.685,93.298z M97.824,96.625h4.594c0.542,0,0.631,0.443,0.198,0.985L79.127,127c-0.434,0.54-1.231,0.984-1.773,0.984h-4.594
			c-0.542,0-0.631-0.444-0.198-0.984L96.05,97.61C96.484,97.068,97.282,96.625,97.824,96.625L97.824,96.625z M75.964,96.009
			c5.17,0,9.365,4.194,9.365,9.365s-4.195,9.364-9.365,9.364c-5.171,0-9.365-4.193-9.365-9.364S70.793,96.009,75.964,96.009
			L75.964,96.009z M75.964,102.047c1.837,0,3.327,1.49,3.327,3.327s-1.49,3.327-3.327,3.327s-3.327-1.49-3.327-3.327
			S74.127,102.047,75.964,102.047L75.964,102.047z M99.162,110.438c5.171,0,9.366,4.193,9.366,9.364c0,5.17-4.195,9.365-9.366,9.365
			c-5.17,0-9.364-4.195-9.364-9.365C89.798,114.631,93.992,110.438,99.162,110.438L99.162,110.438z M99.162,116.474
			c1.837,0,3.328,1.491,3.328,3.328s-1.491,3.327-3.328,3.327s-3.326-1.49-3.326-3.327S97.325,116.474,99.162,116.474
			L99.162,116.474z M60.069,137.042h8.132c0.678,0,1.232,0.556,1.232,1.232v5.299c0,0.679-0.554,1.232-1.232,1.232h-8.132
			c-0.678,0-1.232-0.554-1.232-1.232v-5.299C58.837,137.598,59.391,137.042,60.069,137.042L60.069,137.042z M60.069,149.364h8.132
			c0.678,0,1.232,0.556,1.232,1.231v5.3c0,0.678-0.554,1.231-1.232,1.231h-8.132c-0.678,0-1.232-0.554-1.232-1.231v-5.3
			C58.837,149.92,59.391,149.364,60.069,149.364L60.069,149.364z M60.069,161.688h8.132c0.678,0,1.232,0.554,1.232,1.232v5.297
			c0,0.679-0.554,1.232-1.232,1.232h-8.132c-0.678,0-1.232-0.554-1.232-1.232v-5.297C58.837,162.241,59.391,161.688,60.069,161.688
			L60.069,161.688z M75.718,137.042h8.133c0.678,0,1.232,0.556,1.232,1.232v5.299c0,0.679-0.555,1.232-1.232,1.232h-8.133
			c-0.678,0-1.232-0.554-1.232-1.232v-5.299C74.486,137.598,75.04,137.042,75.718,137.042L75.718,137.042z M75.718,149.364h8.133
			c0.678,0,1.232,0.556,1.232,1.231v5.3c0,0.678-0.555,1.231-1.232,1.231h-8.133c-0.678,0-1.232-0.554-1.232-1.231v-5.3
			C74.486,149.92,75.04,149.364,75.718,149.364L75.718,149.364z M75.718,161.688h8.133c0.678,0,1.232,0.554,1.232,1.232v5.297
			c0,0.679-0.555,1.232-1.232,1.232h-8.133c-0.678,0-1.232-0.554-1.232-1.232v-5.297C74.486,162.241,75.04,161.688,75.718,161.688
			L75.718,161.688z M91.367,137.042H99.5c0.677,0,1.232,0.556,1.232,1.232v5.299c0,0.679-0.555,1.232-1.232,1.232h-8.134
			c-0.677,0-1.231-0.554-1.231-1.232v-5.299C90.135,137.598,90.69,137.042,91.367,137.042L91.367,137.042z M91.367,149.364H99.5
			c0.677,0,1.232,0.556,1.232,1.231v5.3c0,0.678-0.555,1.231-1.232,1.231h-8.134c-0.677,0-1.231-0.554-1.231-1.231v-5.3
			C90.135,149.92,90.69,149.364,91.367,149.364L91.367,149.364z M91.367,161.688H99.5c0.677,0,1.232,0.554,1.232,1.232v5.297
			c0,0.679-0.555,1.232-1.232,1.232h-8.134c-0.677,0-1.231-0.554-1.231-1.232v-5.297C90.135,162.241,90.69,161.688,91.367,161.688
			L91.367,161.688z M106.771,137.042h8.132c0.679,0,1.233,0.556,1.233,1.232v29.942c0,0.679-0.555,1.232-1.233,1.232h-8.132
			c-0.678,0-1.232-0.554-1.232-1.232v-29.942C105.539,137.598,106.092,137.042,106.771,137.042L106.771,137.042z M58.96,84.549
			h56.683c4.88,0,8.871,3.992,8.871,8.872v77.508c0,4.88-3.991,8.873-8.871,8.873H58.96c-4.88,0-8.873-3.993-8.873-8.873V93.421
			C50.087,88.541,54.08,84.549,58.96,84.549L58.96,84.549z M58.96,89.429h56.683c2.194,0,3.991,1.796,3.991,3.992v77.508
			c0,2.196-1.797,3.991-3.991,3.991H58.96c-2.196,0-3.992-1.795-3.992-3.991V93.421C54.968,91.226,56.764,89.429,58.96,89.429
			L58.96,89.429z M89.955,41.784h65.895c4.692,0,8.532,3.839,8.532,8.531v40.008c0,4.692-3.84,8.531-8.532,8.531h-26.936v-5.433
			c0-7.308-5.963-13.271-13.271-13.271H81.423V50.315C81.423,45.623,85.262,41.784,89.955,41.784L89.955,41.784z M147.207,71.689
			c1.58,0,2.859,1.379,2.859,3.078c0,1.7-1.279,3.079-2.859,3.079c-1.578,0-2.859-1.378-2.859-3.079
			C144.348,73.068,145.629,71.689,147.207,71.689L147.207,71.689z M147.207,66.104c4.445,0,8.049,3.88,8.049,8.664
			c0,4.785-3.604,8.665-8.049,8.665c-4.444,0-8.049-3.88-8.049-8.665C139.158,69.983,142.763,66.104,147.207,66.104L147.207,66.104z
			 M127.27,58.341c1.578,0,2.859,1.378,2.859,3.078c0,1.7-1.281,3.078-2.859,3.078s-2.859-1.378-2.859-3.078
			C124.41,59.719,125.691,58.341,127.27,58.341L127.27,58.341z M127.27,52.754c4.445,0,8.049,3.881,8.049,8.665
			c0,4.785-3.604,8.665-8.049,8.665s-8.049-3.879-8.049-8.665C119.221,56.635,122.824,52.754,127.27,52.754L127.27,52.754z
			 M146.057,53.324h3.949c0.465,0,0.543,0.411,0.17,0.912l-20.187,27.191c-0.374,0.502-1.061,0.912-1.525,0.912h-3.95
			c-0.465,0-0.542-0.41-0.168-0.912l20.188-27.191C144.905,53.735,145.592,53.324,146.057,53.324L146.057,53.324z M91.467,61.159
			h16.263v12.429H91.467V61.159L91.467,61.159z M128.914,131.842h49.082c2.15,0,4.832-2.342,6.063-3.538
			c1.219-1.185,3.312-4.496,3.312-6.692V84.177c0-2.18-1.976-5.711-3.107-6.911c-1.315-1.393-4.018-3.537-6.471-3.536h-9.029v3.7
			h8.623c1.18,0,3.496,1.885,4.229,2.664c0.897,0.953,2.051,2.979,2.087,4.735c-0.458,0.114-0.469,0.217-1.02,0.217h-13.92v5.276
			c0,1.837-0.388,3.586-1.085,5.171h16.024c0.105,0.488,0.204,0.5,0.204,1.088v21.763c0,5.515-2.958,9.794-7.947,9.794h-47.045
			V131.842L128.914,131.842z M128.914,113.342h49.49v-7.183h-49.49V113.342L128.914,113.342z"/>
	</g>
</g>

</svg>
