<?xml version="1.0" encoding="utf-8"?>
<!DOCTYPE svg PUBLIC "-//W3C//DTD SVG 1.1//EN" "http://www.w3.org/Graphics/SVG/1.1/DTD/svg11.dtd">
<svg version="1.1" xmlns="http://www.w3.org/2000/svg" xmlns:xlink="http://www.w3.org/1999/xlink" x="0px" y="0px" width="216px" height="216px" viewBox="0 0 216 216" enable-background="new 0 0 216 216" xml:space="preserve">
<g id="depo4">
	<g display="inline">
		<path fill-rule="evenodd" clip-rule="evenodd" stroke="#000000" stroke-width="0.5669" stroke-miterlimit="22.9256" d="
			M41.48,40.214h124.191c7.588,0,13.799,6.209,13.799,13.799v110.391c0,7.59-6.211,13.799-13.799,13.799H41.48V40.214L41.48,40.214z
			 M46.986,52.813h7.094c1.32,0,2.4,1.08,2.4,2.4v1.2c0,1.32-1.08,2.4-2.4,2.4h-7.094v7.199h7.094c1.32,0,2.4,1.08,2.4,2.4v1.2
			c0,1.32-1.08,2.4-2.4,2.4h-7.094v7.199h7.094c1.32,0,2.4,1.08,2.4,2.4v1.199c0,1.32-1.08,2.4-2.4,2.4h-7.094v7.199h7.094
			c1.32,0,2.4,1.079,2.4,2.399v1.2c0,1.32-1.08,2.399-2.4,2.399h-7.094v7.199h7.094c1.32,0,2.4,1.079,2.4,2.399v1.2
			c0,1.32-1.08,2.4-2.4,2.4h-7.094v7.199h7.094c1.32,0,2.4,1.08,2.4,2.4v1.199c0,1.32-1.08,2.4-2.4,2.4h-7.094v7.199h7.094
			c1.32,0,2.4,1.078,2.4,2.398v1.201c0,1.32-1.08,2.398-2.4,2.398h-7.094v7.199h7.094c1.32,0,2.4,1.08,2.4,2.4v1.199
			c0,1.32-1.08,2.4-2.4,2.4h-7.094v7.199h7.094c1.32,0,2.4,1.08,2.4,2.4v1.199c0,1.32-1.08,2.4-2.4,2.4h-7.094v8.295H63.68v-45.49
			c13.199-9.6,26.397-19.198,39.597-28.797c0.728-0.654,1.45-0.633,2.399,0l20.398,13.2c1.199,1.199,2.82,1.139,3.6,0l28.01-42.577
			l-7.301,1.31l-0.904-5.364l15.609-2.799l2.533,15.019l-5.203,0.933l-1.111-6.589l-2.234,3.559v97.597h6.6
			c4.551,0,8.293-3.742,8.293-8.293V54.013c0-4.551-3.742-8.294-8.293-8.294H46.986V52.813L46.986,52.813z M153.256,172.697V84.365
			l-6.98,11.115v77.217H153.256L153.256,172.697z M140.459,172.697v-67.954l-6.98,11.116v56.838H140.459L140.459,172.697z
			 M127.662,172.697v-54.734l-6.98-4.441v59.176H127.662L127.662,172.697z M114.865,172.697V109.82l-6.979-4.442v67.319H114.865
			L114.865,172.697z M102.068,172.697v-67.625l-6.979,5.404v62.221H102.068L102.068,172.697z M89.272,172.697V114.98l-6.979,5.402
			v52.314H89.272L89.272,172.697z M76.476,172.697v-47.811l-6.979,5.404v42.406H76.476L76.476,172.697z"/>
	</g>
</g>

</svg>
