<?xml version="1.0" encoding="utf-8"?>
<!DOCTYPE svg PUBLIC "-//W3C//DTD SVG 1.1//EN" "http://www.w3.org/Graphics/SVG/1.1/DTD/svg11.dtd">
<svg version="1.1" xmlns="http://www.w3.org/2000/svg" xmlns:xlink="http://www.w3.org/1999/xlink" x="0px" y="0px" width="216px" height="216px" viewBox="0 0 216 216" enable-background="new 0 0 216 216" xml:space="preserve">

<g id="Layer_11">
	<g>
		<path fill-rule="evenodd" clip-rule="evenodd" d="M116.77,114.059c-1.443-1.366-1.508-3.645-0.141-5.089
			c1.365-1.443,3.645-1.506,5.088-0.141c1.443,1.367,1.508,3.646,0.141,5.09C120.492,115.361,118.213,115.425,116.77,114.059
			L116.77,114.059z M96.851,114.426c-1.987,0.066-3.652-1.49-3.719-3.478c-0.066-1.986,1.491-3.651,3.477-3.718
			c1.986-0.067,3.651,1.49,3.718,3.477S98.837,114.359,96.851,114.426L96.851,114.426z M87.466,121.455
			c-1.752,0.938-3.935,0.277-4.872-1.476s-0.277-3.935,1.476-4.872c1.752-0.938,3.935-0.276,4.872,1.477
			C89.879,118.336,89.218,120.518,87.466,121.455L87.466,121.455z M82.153,131.909c-1.158,1.615-3.408,1.986-5.023,0.828
			c-1.616-1.158-1.987-3.407-0.829-5.023c1.158-1.614,3.407-1.985,5.023-0.828C82.939,128.044,83.311,130.293,82.153,131.909
			L82.153,131.909z M82.005,143.634c-0.325,1.961-2.179,3.287-4.14,2.962c-1.961-0.324-3.288-2.179-2.963-4.14
			c0.325-1.96,2.179-3.287,4.14-2.962C81.003,139.818,82.331,141.673,82.005,143.634L82.005,143.634z M87.054,154.218
			c0.575,1.902-0.502,3.911-2.405,4.486c-1.903,0.575-3.912-0.502-4.488-2.404c-0.574-1.903,0.503-3.913,2.405-4.487
			C84.469,151.237,86.479,152.314,87.054,154.218L87.054,154.218z M96.259,161.481c1.356,1.452,1.278,3.731-0.175,5.087
			c-1.453,1.356-3.731,1.278-5.088-0.174c-1.356-1.453-1.278-3.731,0.175-5.088C92.624,159.95,94.902,160.028,96.259,161.481
			L96.259,161.481z M107.726,163.93c1.859,0.704,2.795,2.783,2.091,4.642c-0.704,1.859-2.783,2.796-4.642,2.092
			c-1.858-0.705-2.795-2.783-2.091-4.642C103.789,164.163,105.867,163.226,107.726,163.93L107.726,163.93z M119.096,161.06
			c1.979-0.189,3.736,1.262,3.926,3.24c0.191,1.979-1.26,3.737-3.238,3.927s-3.738-1.261-3.928-3.24
			C115.666,163.009,117.117,161.25,119.096,161.06L119.096,161.06z M128.027,153.462c1.689-1.045,3.908-0.52,4.953,1.171
			c1.045,1.691,0.52,3.91-1.17,4.955c-1.691,1.044-3.91,0.52-4.955-1.172C125.811,156.726,126.336,154.506,128.027,153.462
			L128.027,153.462z M132.682,142.699c1.055-1.684,3.277-2.193,4.961-1.138c1.686,1.056,2.195,3.277,1.139,4.962
			c-1.055,1.684-3.277,2.194-4.961,1.138C132.135,146.605,131.625,144.384,132.682,142.699L132.682,142.699z M132.102,130.987
			c0.203-1.977,1.971-3.416,3.949-3.213c1.977,0.203,3.416,1.971,3.213,3.948s-1.971,3.416-3.947,3.214
			C133.338,134.733,131.898,132.965,132.102,130.987L132.102,130.987z M126.406,120.737c-0.691-1.863,0.26-3.936,2.123-4.627
			s3.936,0.259,4.627,2.121c0.691,1.864-0.258,3.937-2.121,4.628S127.1,122.602,126.406,120.737L126.406,120.737z M48.481,92.497
			c-1.988,0-3.6-1.612-3.6-3.6c0-1.987,1.612-3.6,3.6-3.6c1.987,0,3.6,1.612,3.6,3.6C52.081,90.884,50.468,92.497,48.481,92.497
			L48.481,92.497z M69.209,86.537c-1.988,0-3.6-1.612-3.6-3.6c0-1.988,1.612-3.6,3.6-3.6c1.987,0,3.6,1.612,3.6,3.6
			C72.809,84.924,71.196,86.537,69.209,86.537L69.209,86.537z M48.814,80.479c-1.988,0-3.6-1.612-3.6-3.6c0-1.988,1.612-3.6,3.6-3.6
			c1.987,0,3.6,1.612,3.6,3.6C52.414,78.867,50.801,80.479,48.814,80.479L48.814,80.479z M61.68,75.698c-1.988,0-3.6-1.612-3.6-3.6
			c0-1.988,1.612-3.6,3.6-3.6s3.6,1.612,3.6,3.6C65.279,74.085,63.667,75.698,61.68,75.698L61.68,75.698z M60.989,97.438
			c-1.987,0-3.6-1.612-3.6-3.6c0-1.988,1.612-3.6,3.6-3.6c1.988,0,3.6,1.612,3.6,3.6C64.589,95.826,62.977,97.438,60.989,97.438
			L60.989,97.438z M175.816,65.044c-1.988,0-3.6-1.612-3.6-3.6s1.611-3.6,3.6-3.6s3.6,1.612,3.6,3.6S177.805,65.044,175.816,65.044
			L175.816,65.044z M142.074,57.699c-1.988,0-3.6-1.612-3.6-3.6c0-1.988,1.611-3.6,3.6-3.6c1.986,0,3.6,1.612,3.6,3.6
			C145.674,56.087,144.061,57.699,142.074,57.699L142.074,57.699z M154.072,48.1c-1.988,0-3.6-1.612-3.6-3.6
			c0-1.987,1.611-3.6,3.6-3.6s3.6,1.612,3.6,3.6C157.672,46.488,156.061,48.1,154.072,48.1L154.072,48.1z M169.672,51.7
			c-1.988,0-3.6-1.612-3.6-3.6c0-1.988,1.611-3.6,3.6-3.6c1.986,0,3.6,1.612,3.6,3.6C173.271,50.087,171.658,51.7,169.672,51.7
			L169.672,51.7z M169.672,78.098c-1.988,0-3.6-1.612-3.6-3.6c0-1.988,1.611-3.6,3.6-3.6c1.986,0,3.6,1.612,3.6,3.6
			C173.271,76.485,171.658,78.098,169.672,78.098L169.672,78.098z M154.072,82.897c-1.988,0-3.6-1.612-3.6-3.6s1.611-3.6,3.6-3.6
			s3.6,1.612,3.6,3.6S156.061,82.897,154.072,82.897L154.072,82.897z M142.074,73.298c-1.988,0-3.6-1.612-3.6-3.6s1.611-3.6,3.6-3.6
			c1.986,0,3.6,1.612,3.6,3.6S144.061,73.298,142.074,73.298L142.074,73.298z M120.666,102.569c-3.879,1.22-8.47,1.926-13.39,1.926
			c-5.479,0-10.55-0.875-14.686-2.361c-14.551,5.461-24.912,19.501-24.912,35.958c0,21.202,17.194,38.397,38.397,38.397
			c21.203,0,38.396-17.195,38.396-38.397C144.473,122.056,134.635,108.314,120.666,102.569L120.666,102.569z M107.276,56.126
			c9.813,0,17.772,2.316,17.772,5.173s-7.959,5.173-17.772,5.173c-9.814,0-17.772-2.316-17.772-5.173S97.462,56.126,107.276,56.126
			L107.276,56.126z M98.877,96.455c2.501,0.392,5.361,0.614,8.399,0.614c3.536,0,6.831-0.301,9.599-0.819v-23.3
			c-2.959,0.61-6.199,0.948-9.599,0.948c-2.945,0-5.772-0.254-8.399-0.718V96.455L98.877,96.455z M128.719,98.514
			c13.713,7.862,22.953,22.642,22.953,39.579c0,25.178-20.418,45.597-45.596,45.597c-25.178,0-45.596-20.419-45.596-45.597
			c0-17.538,9.908-32.764,24.43-40.391h0c0.195-0.103,0.391-0.204,0.588-0.304l0.15-0.076c0.217-0.109,0.436-0.216,0.654-0.322
			l0.146-0.07c0.229-0.109,0.461-0.218,0.692-0.324l0.083-0.038c0.232-0.105,0.465-0.209,0.699-0.311l0.151-0.065
			c0.231-0.1,0.463-0.197,0.697-0.292l0.106-0.044c0.25-0.102,0.501-0.202,0.754-0.3l0.081-0.031c0.25-0.096,0.501-0.19,0.753-0.282
			l0.086-0.031c0.256-0.093,0.513-0.184,0.771-0.272l0.057-0.02l0.296-0.1V71.193c-5.846-2.307-9.599-5.882-9.599-9.894
			c0-6.957,11.284-12.599,25.198-12.599c13.913,0,25.198,5.642,25.198,12.599c0,3.73-3.246,7.082-8.4,9.389V96.19
			c1.6,0.687,3.15,1.462,4.648,2.321L128.719,98.514L128.719,98.514z"/>
		<path fill-rule="evenodd" clip-rule="evenodd" d="M118.029,142.186c0.135,1.587-0.025,3.037-0.482,4.362
			c-0.449,1.313-1.156,2.487-2.107,3.491c-0.951,1.015-2.135,1.858-3.551,2.542c-1.407,0.672-2.993,1.16-4.746,1.464l-0.078,5.973
			c-0.006,0.152-0.033,0.278-0.089,0.397c-0.057,0.119-0.162,0.224-0.335,0.305c-0.173,0.091-0.404,0.178-0.703,0.241
			c-0.298,0.073-0.683,0.135-1.146,0.175c-0.586,0.05-1.07,0.063-1.434,0.037c-0.364-0.025-0.654-0.077-0.861-0.164
			c-0.207-0.087-0.36-0.206-0.431-0.362c-0.081-0.164-0.115-0.352-0.095-0.554l0.103-5.671c-0.803-0.045-1.561-0.122-2.284-0.231
			c-0.715-0.12-1.364-0.254-1.958-0.422c-0.585-0.16-1.104-0.333-1.54-0.524c-0.425-0.183-0.765-0.373-0.99-0.563
			c-0.236-0.198-0.414-0.497-0.535-0.905c-0.13-0.407-0.23-1.018-0.3-1.83c-0.054-0.623-0.08-1.145-0.076-1.554
			c0.003-0.41,0.033-0.727,0.108-0.961c0.076-0.226,0.176-0.387,0.311-0.483c0.134-0.098,0.292-0.148,0.471-0.164
			c0.246-0.021,0.607,0.091,1.084,0.325c0.486,0.234,1.107,0.485,1.854,0.764c0.747,0.27,1.641,0.497,2.695,0.683
			c1.044,0.196,2.265,0.225,3.644,0.105c2.163-0.186,3.735-0.72,4.715-1.613c0.979-0.893,1.416-2.005,1.303-3.337
			c-0.076-0.879-0.365-1.596-0.867-2.124c-0.504-0.537-1.151-0.986-1.944-1.355c-0.793-0.37-1.676-0.685-2.66-0.942
			c-0.974-0.259-1.978-0.534-3.013-0.845c-1.026-0.303-2.036-0.663-3.035-1.101c-0.999-0.438-1.903-0.998-2.724-1.688
			s-1.504-1.555-2.05-2.603c-0.546-1.038-0.885-2.322-1.016-3.853c-0.119-1.389,0.009-2.665,0.375-3.838
			c0.356-1.173,0.942-2.223,1.738-3.146c0.786-0.924,1.794-1.706,3.016-2.333c1.22-0.639,2.625-1.12,4.216-1.438l0.07-5.61
			c0.005-0.152,0.033-0.278,0.09-0.388c0.058-0.101,0.172-0.206,0.335-0.306c0.172-0.101,0.403-0.177,0.692-0.24
			c0.29-0.063,0.676-0.115,1.158-0.156c0.577-0.049,1.051-0.062,1.434-0.037c0.383,0.023,0.682,0.074,0.889,0.161
			c0.217,0.086,0.351,0.208,0.421,0.363c0.071,0.165,0.116,0.353,0.133,0.55l-0.099,5.28c0.517,0.032,1.073,0.08,1.651,0.163
			c0.588,0.083,1.139,0.188,1.645,0.315c0.517,0.137,0.984,0.277,1.408,0.44c0.422,0.155,0.721,0.31,0.887,0.457
			c0.173,0.138,0.301,0.288,0.398,0.433c0.099,0.153,0.182,0.336,0.248,0.568c0.066,0.223,0.119,0.504,0.166,0.823
			s0.088,0.687,0.123,1.112c0.051,0.576,0.082,1.049,0.086,1.42c0.002,0.371-0.029,0.659-0.09,0.854
			c-0.049,0.204-0.123,0.334-0.212,0.408c-0.089,0.075-0.19,0.112-0.322,0.123c-0.236,0.021-0.604-0.063-1.079-0.27
			c-0.483-0.196-1.072-0.402-1.777-0.627c-0.693-0.217-1.49-0.405-2.39-0.575c-0.889-0.162-1.863-0.202-2.921-0.11
			c-0.954,0.082-1.767,0.246-2.442,0.484c-0.664,0.248-1.19,0.55-1.585,0.927c-0.397,0.367-0.674,0.79-0.843,1.271
			c-0.159,0.471-0.219,0.99-0.171,1.547c0.074,0.86,0.363,1.577,0.877,2.124c0.514,0.555,1.17,1.003,1.972,1.362
			c0.801,0.359,1.704,0.672,2.697,0.938c1.003,0.267,2.017,0.55,3.062,0.851c1.034,0.301,2.064,0.67,3.072,1.097
			c1.016,0.417,1.93,0.977,2.75,1.658c0.818,0.681,1.512,1.535,2.064,2.554C117.555,139.429,117.9,140.684,118.029,142.186
			L118.029,142.186z"/>
	</g>
</g>
</svg>
