<?xml version="1.0" encoding="utf-8"?>
<!DOCTYPE svg PUBLIC "-//W3C//DTD SVG 1.1//EN" "http://www.w3.org/Graphics/SVG/1.1/DTD/svg11.dtd">
<svg version="1.1" xmlns="http://www.w3.org/2000/svg" xmlns:xlink="http://www.w3.org/1999/xlink" x="0px" y="0px" width="216px" height="216px" viewBox="0 0 216 216" enable-background="new 0 0 216 216" xml:space="preserve">

<g id="depo8">
	<g>
		<path fill-rule="evenodd" clip-rule="evenodd" d="M146.395,156.78l1.189-0.811c0.764-0.52,1.652-0.559,1.975-0.086l5.014,7.364
			l8.611-17.621c0.291-0.593,1.012-0.841,1.605-0.551l2.156,1.054c0.594,0.29,0.842,1.012,0.551,1.604l-10.01,20.483
			c-1.008,2.062-3.725,2.366-4.287,1.542l-7.609-11.175C145.27,158.112,145.629,157.301,146.395,156.78L146.395,156.78z
			 M62.679,33.301L62.679,33.301c4.62,0,8.399,3.779,8.399,8.399v6H98.55v-6c0-4.62,3.78-8.399,8.399-8.399l0,0
			c4.619,0,8.4,3.779,8.4,8.399v6h27.723v-6c0-4.62,3.779-8.399,8.4-8.399l0,0c4.619,0,8.398,3.779,8.398,8.399v6h10.799
			c5.281,0,9.6,4.319,9.6,9.599v14.399c0,5.28-4.318,9.599-9.6,9.599h-0.746c0.48,1.071,0.746,2.258,0.746,3.506v50.681
			c7.904,4.71,13.199,13.341,13.199,23.207c0,14.908-12.09,26.998-26.998,26.998c-10.834,0-20.178-6.387-24.477-15.599H54.28
			c-4.62,0-8.399-3.838-8.399-8.529V84.803c0-1.248,0.268-2.435,0.747-3.506h-1.947c-5.28,0-9.599-4.319-9.599-9.599V57.299
			c0-5.28,4.319-9.599,9.599-9.599h9.599v-6C54.28,37.081,58.06,33.301,62.679,33.301L62.679,33.301z M71.079,52.723v8.176
			c0,4.62-3.779,8.399-8.399,8.399l0,0c-4.62,0-8.399-3.779-8.399-8.399v-8.176h-9.599c-2.518,0-4.577,2.06-4.577,4.577v14.399
			c0,2.517,2.059,4.577,4.577,4.577h125.991c2.516,0,4.576-2.06,4.576-4.577V57.299c0-2.517-2.061-4.577-4.576-4.577h-10.801v8.176
			c0,4.62-3.779,8.399-8.398,8.399l0,0c-4.621,0-8.4-3.779-8.4-8.399v-8.176H115.35v8.176c0,4.62-3.781,8.399-8.4,8.399l0,0
			c-4.62,0-8.399-3.779-8.399-8.399v-8.176H71.079L71.079,52.723z M62.679,37.843L62.679,37.843c2.122,0,3.857,1.735,3.857,3.857v6
			v5.022v8.176c0,2.122-1.736,3.857-3.857,3.857l0,0c-2.122,0-3.857-1.735-3.857-3.857v-8.176V47.7v-6
			C58.822,39.579,60.558,37.843,62.679,37.843L62.679,37.843z M106.949,37.843L106.949,37.843c2.122,0,3.857,1.735,3.857,3.857v6
			v5.022v8.176c0,2.122-1.735,3.857-3.857,3.857l0,0c-2.122,0-3.857-1.735-3.857-3.857v-8.176V47.7v-6
			C103.092,39.579,104.828,37.843,106.949,37.843L106.949,37.843z M151.473,37.843L151.473,37.843c2.121,0,3.857,1.735,3.857,3.857
			v6v5.022v8.176c0,2.122-1.736,3.857-3.857,3.857l0,0c-2.123,0-3.857-1.735-3.857-3.857v-8.176V47.7v-6
			C147.615,39.579,149.35,37.843,151.473,37.843L151.473,37.843z M164.561,81.297H51.992c-0.381,0.523-0.609,1.178-0.609,1.888
			V161.5c0,1.698,1.304,3.088,2.897,3.088h76.241c-0.424-1.898-0.648-3.871-0.648-5.896c0-14.908,12.09-26.998,26.998-26.998
			c2.895,0,5.684,0.458,8.297,1.302v-49.81C165.168,82.476,164.941,81.82,164.561,81.297L164.561,81.297z M156.871,137.195
			c11.871,0,21.496,9.626,21.496,21.496c0,11.869-9.625,21.495-21.496,21.495c-11.869,0-21.494-9.626-21.494-21.495
			C135.377,146.821,145.002,137.195,156.871,137.195L156.871,137.195z M67.366,87.523c5.238,0,9.486,4.248,9.486,9.486
			c0,5.238-4.248,9.486-9.486,9.486c-5.238,0-9.487-4.249-9.487-9.486C57.879,91.771,62.128,87.523,67.366,87.523L67.366,87.523z
			 M67.366,92.486c2.498,0,4.523,2.025,4.523,4.523s-2.025,4.523-4.523,4.523c-2.498,0-4.523-2.025-4.523-4.523
			S64.868,92.486,67.366,92.486L67.366,92.486z M94.639,87.523c5.238,0,9.486,4.248,9.486,9.486c0,5.238-4.249,9.486-9.486,9.486
			c-5.238,0-9.486-4.249-9.486-9.486C85.153,91.771,89.401,87.523,94.639,87.523L94.639,87.523z M94.639,92.486
			c2.498,0,4.523,2.025,4.523,4.523s-2.025,4.523-4.523,4.523s-4.523-2.025-4.523-4.523S92.142,92.486,94.639,92.486L94.639,92.486z
			 M121.912,87.523c5.238,0,9.486,4.248,9.486,9.486c0,5.238-4.248,9.486-9.486,9.486s-9.486-4.249-9.486-9.486
			C112.426,91.771,116.674,87.523,121.912,87.523L121.912,87.523z M121.912,92.486c2.498,0,4.523,2.025,4.523,4.523
			s-2.025,4.523-4.523,4.523s-4.523-2.025-4.523-4.523S119.414,92.486,121.912,92.486L121.912,92.486z M149.186,87.523
			c5.238,0,9.486,4.248,9.486,9.486c0,5.238-4.248,9.486-9.486,9.486s-9.486-4.249-9.486-9.486
			C139.699,91.771,143.947,87.523,149.186,87.523L149.186,87.523z M149.186,92.486c2.498,0,4.523,2.025,4.523,4.523
			s-2.025,4.523-4.523,4.523s-4.523-2.025-4.523-4.523S146.688,92.486,149.186,92.486L149.186,92.486z M67.366,113.646
			c5.238,0,9.486,4.248,9.486,9.485c0,5.238-4.248,9.487-9.486,9.487c-5.238,0-9.487-4.249-9.487-9.487
			C57.879,117.895,62.128,113.646,67.366,113.646L67.366,113.646z M67.366,118.609c2.498,0,4.523,2.025,4.523,4.522
			c0,2.498-2.025,4.523-4.523,4.523c-2.498,0-4.523-2.025-4.523-4.523C62.843,120.635,64.868,118.609,67.366,118.609L67.366,118.609
			z M94.639,113.646c5.238,0,9.486,4.248,9.486,9.485c0,5.238-4.249,9.487-9.486,9.487c-5.238,0-9.486-4.249-9.486-9.487
			C85.153,117.895,89.401,113.646,94.639,113.646L94.639,113.646z M94.639,118.609c2.498,0,4.523,2.025,4.523,4.522
			c0,2.498-2.025,4.523-4.523,4.523s-4.523-2.025-4.523-4.523C90.116,120.635,92.142,118.609,94.639,118.609L94.639,118.609z
			 M121.912,113.646c5.238,0,9.486,4.248,9.486,9.485c0,5.238-4.248,9.487-9.486,9.487s-9.486-4.249-9.486-9.487
			C112.426,117.895,116.674,113.646,121.912,113.646L121.912,113.646z M121.912,118.609c2.498,0,4.523,2.025,4.523,4.522
			c0,2.498-2.025,4.523-4.523,4.523s-4.523-2.025-4.523-4.523C117.389,120.635,119.414,118.609,121.912,118.609L121.912,118.609z
			 M149.186,113.646c5.238,0,9.486,4.248,9.486,9.485c0,1.081-0.182,2.119-0.514,3.087c-0.428-0.017-0.855-0.028-1.287-0.028
			c-1.596,0-3.166,0.117-4.701,0.341c0.943-0.829,1.539-2.045,1.539-3.399c0-2.497-2.025-4.522-4.523-4.522
			s-4.523,2.025-4.523,4.522c0,2.037,1.348,3.76,3.199,4.326c-1.939,0.559-3.803,1.293-5.574,2.185
			c-1.604-1.699-2.588-3.989-2.588-6.511C139.699,117.895,143.947,113.646,149.186,113.646L149.186,113.646z M67.366,139.77
			c5.238,0,9.486,4.248,9.486,9.486s-4.248,9.486-9.486,9.486c-5.238,0-9.487-4.248-9.487-9.486S62.128,139.77,67.366,139.77
			L67.366,139.77z M67.366,144.732c2.498,0,4.523,2.025,4.523,4.523s-2.025,4.522-4.523,4.522c-2.498,0-4.523-2.024-4.523-4.522
			S64.868,144.732,67.366,144.732L67.366,144.732z M94.639,139.77c5.238,0,9.486,4.248,9.486,9.486s-4.249,9.486-9.486,9.486
			c-5.238,0-9.486-4.248-9.486-9.486S89.401,139.77,94.639,139.77L94.639,139.77z M94.639,144.732c2.498,0,4.523,2.025,4.523,4.523
			s-2.025,4.522-4.523,4.522s-4.523-2.024-4.523-4.522S92.142,144.732,94.639,144.732L94.639,144.732z M121.912,139.77
			c2.633,0,5.014,1.072,6.732,2.805c-0.959,1.678-1.773,3.449-2.426,5.298c-0.584-1.821-2.291-3.14-4.307-3.14
			c-2.498,0-4.523,2.025-4.523,4.523s2.025,4.522,4.523,4.522c1.166,0,2.229-0.44,3.029-1.164c-0.355,1.882-0.551,3.821-0.566,5.804
			c-0.785,0.211-1.611,0.324-2.463,0.324c-5.238,0-9.486-4.248-9.486-9.486S116.674,139.77,121.912,139.77L121.912,139.77z"/>
	</g>
</g>
</svg>
