<?xml version="1.0" encoding="utf-8"?>
<!DOCTYPE svg PUBLIC "-//W3C//DTD SVG 1.1//EN" "http://www.w3.org/Graphics/SVG/1.1/DTD/svg11.dtd">
<svg version="1.1" xmlns="http://www.w3.org/2000/svg" xmlns:xlink="http://www.w3.org/1999/xlink" x="0px" y="0px" width="216px" height="216px" viewBox="0 0 216 216" enable-background="new 0 0 216 216" xml:space="preserve">

<g id="depo3">
	<g display="inline">
		<path fill-rule="evenodd" clip-rule="evenodd" d="M110.977,76.678h11.174l0.316-0.137c0.861-0.36,1.627-0.756,2.303-1.178
			c0.678-0.422,1.223-0.906,1.627-1.441c0.404-0.545,0.605-1.187,0.605-1.925c0-0.492-0.096-0.967-0.271-1.415
			c-0.186-0.448-0.457-0.826-0.826-1.143s-0.826-0.571-1.381-0.747c-0.545-0.185-1.186-0.272-1.924-0.272
			c-0.949,0-1.811,0.114-2.602,0.352c-0.791,0.229-1.486,0.483-2.084,0.773c-0.605,0.281-1.107,0.545-1.52,0.782
			c-0.414,0.237-0.713,0.36-0.906,0.36c-0.184,0-0.334-0.053-0.447-0.158c-0.115-0.097-0.203-0.264-0.256-0.483
			c-0.061-0.229-0.105-0.51-0.131-0.853c-0.027-0.343-0.035-0.765-0.035-1.257c0-0.448,0.008-0.826,0.018-1.125
			c0.018-0.299,0.053-0.545,0.096-0.747c0.045-0.193,0.088-0.352,0.15-0.475c0.061-0.123,0.176-0.264,0.352-0.439
			c0.166-0.167,0.518-0.387,1.055-0.642c0.535-0.255,1.143-0.492,1.828-0.694c0.686-0.211,1.424-0.369,2.215-0.492
			s1.582-0.176,2.363-0.176c1.529,0,2.98,0.193,4.342,0.589c1.363,0.396,2.549,0.993,3.551,1.793c1.012,0.791,1.811,1.802,2.4,3.006
			c0.588,1.213,0.887,2.619,0.887,4.21c0,1.397-0.201,2.584-0.615,3.586c-0.049,0.118-0.1,0.233-0.15,0.348h1.742
			c0.168,0,0.307,0.185,0.307,0.411v1.642c0,0.227-0.139,0.411-0.307,0.411h-23.875c-0.168,0-0.305-0.185-0.305-0.411v-1.642
			C110.672,76.862,110.809,76.678,110.977,76.678L110.977,76.678z M112.686,87.062c0,1.749,0.324,3.287,0.975,4.614
			c0.65,1.318,1.539,2.426,2.654,3.305c1.117,0.888,2.418,1.547,3.912,1.995s3.094,0.668,4.789,0.668
			c1.152,0,2.225-0.088,3.209-0.281c0.984-0.185,1.854-0.413,2.609-0.677c0.756-0.272,1.389-0.545,1.898-0.844
			c0.502-0.29,0.871-0.545,1.09-0.773c0.229-0.22,0.387-0.545,0.475-0.958c0.098-0.422,0.141-1.028,0.141-1.819
			c0-0.536-0.018-0.976-0.043-1.337c-0.035-0.359-0.098-0.658-0.168-0.878c-0.078-0.22-0.184-0.378-0.316-0.475
			c-0.123-0.097-0.271-0.141-0.447-0.141c-0.238,0-0.58,0.141-1.02,0.422c-0.432,0.281-0.994,0.598-1.688,0.94
			c-0.686,0.343-1.504,0.659-2.453,0.94c-0.957,0.281-2.057,0.422-3.313,0.422c-0.826,0-1.564-0.097-2.215-0.29
			c-0.65-0.202-1.203-0.483-1.662-0.844c-0.447-0.361-0.799-0.8-1.037-1.336c-0.246-0.536-0.359-1.125-0.359-1.775
			c0-0.756,0.201-1.406,0.615-1.942c0.412-0.545,0.949-1.028,1.607-1.441c0.436-0.278,0.912-0.545,1.424-0.8h11.488
			c0.168,0,0.307-0.186,0.307-0.411v-1.642c0-0.227-0.139-0.412-0.307-0.412h-23.875c-0.168,0-0.305,0.186-0.305,0.412v1.642
			c0,0.226,0.137,0.411,0.305,0.411h2.25C112.863,84.708,112.686,85.808,112.686,87.062L112.686,87.062z M101.193,122.418
			c4.052-0.688,7.975-2.642,11.119-5.826c2.402-2.433,4.078-5.313,5.029-8.356c0.936,0.238,1.891,0.429,2.863,0.566v21.666
			l-13.934-2.148C104.871,126.51,103.15,124.406,101.193,122.418L101.193,122.418z M53.901,110.32h15.69v51.474h-15.69V110.32
			L53.901,110.32z M94.281,146.474c0.674-0.898,1.86-1.525,2.983-1.57l32.821,0.157c1.484-0.108,3.307-1.346,3.455-2.826
			s-1.398-3.042-2.826-3.455c-9.172-2.653-18.488-1.821-27.562-4.79c-2.462-0.806-3.647-4.747-5.655-6.985
			c-2.629-2.357-3.44-3.617-6.797-4.719l-14.166,0.141v28.361l39.73,13.118c2.064,0.59,4.475,0.864,6.439,0l47.111-23.556
			c1.314-0.776,1.111-3.169,0.471-4.554c-0.51-1.106-2.127-1.909-3.297-1.571l-28.264,10.702c-0.408,1.769-1.473,2.882-2.674,3.903
			c-1.391,1.183-3.047,2.366-4.867,2.513l-34.234,0.628c-1.334-0.073-2.441-1.115-3.023-2.315
			C93.514,148.803,93.712,147.232,94.281,146.474L94.281,146.474z M137.307,105.513c6.371-3.673,11.029-9.888,12.486-17.193
			l17.49-2.015l-2.803,18.538c-0.445,2.938-2.623,5.701-4.611,7.789c-5.178,5.434-13.744,4.664-18.84-0.498
			C139.174,110.255,137.918,107.948,137.307,105.513L137.307,105.513z M98.596,88.304c1.221,7.609,6.109,14.038,12.855,17.645
			c-0.645,2.289-1.861,4.448-3.615,6.225c-5.098,5.162-13.663,5.932-18.84,0.498c-1.989-2.087-4.168-4.85-4.611-7.789l-2.803-18.538
			L98.596,88.304L98.596,88.304z M127.572,108.825c1.332-0.179,2.631-0.455,3.891-0.822c0.939,3.116,2.637,6.065,5.09,8.55
			c7.805,7.907,20.426,8.23,27.869,0.419c3.27-3.431,5.66-7.098,6.279-11.189l3.063-20.262c0.9-6.455,0.258-6.589-5.863-5.619
			l-17.65,2.033c-0.207-5.382-1.691-10.219-4.752-14.128l-16.277-20.793c-4.664-6.506-5.369-6.973-10.482-0.291l-15.842,21.195
			c-2.865,3.835-4.127,8.669-4.494,14.033l-17.438-2.01c-6.123-0.97-6.764-0.836-5.863,5.619l3.063,20.262
			c0.544,3.598,2.457,6.865,5.133,9.934l-6.762,0.068v-8.812c0-2.485-1.506-4.519-3.347-4.519H50.305
			c-1.842,0-3.348,2.033-3.348,4.519v57.207c0,2.486,1.506,4.52,3.348,4.52h22.884c1.841,0,3.347-2.034,3.347-4.52v-6.857
			l33.449,11.884c2.857,0.945,5.795,1.8,8.795,2.041c1.646,0.133,3.373-0.237,4.867-0.942l50.41-25.126
			c8.635-6.426,0.404-20.273-8.525-17.607l-27.711,9.595c-0.459-1.109-2.363-4.118-4.438-4.706l-5.811-0.896V108.825
			L127.572,108.825z"/>
	</g>
</g>

</svg>
