<?xml version="1.0" encoding="utf-8"?>
<!DOCTYPE svg PUBLIC "-//W3C//DTD SVG 1.1//EN" "http://www.w3.org/Graphics/SVG/1.1/DTD/svg11.dtd">
<svg version="1.1" xmlns="http://www.w3.org/2000/svg" xmlns:xlink="http://www.w3.org/1999/xlink" x="0px" y="0px" width="216px"
	 height="216px" viewBox="0 0 216 216" enable-background="new 0 0 216 216" xml:space="preserve">

<g id="exh-s-n">
		<path fill-rule="evenodd" clip-rule="evenodd" d="M91.479,171.771c-23.828,0-43.15-19.324-43.15-43.15
			c0-23.828,19.323-43.151,43.15-43.151s43.152,19.323,43.152,43.151C134.631,152.447,115.307,171.771,91.479,171.771
			L91.479,171.771z M91.479,160.854c17.801,0,32.233-14.433,32.233-32.232c0-17.801-14.432-32.232-32.233-32.232
			c-17.8,0-32.23,14.431-32.23,32.232C59.249,146.421,73.679,160.854,91.479,160.854L91.479,160.854z M108.339,136.13
			c0.187,1.92-0.001,3.681-0.565,5.289c-0.554,1.594-1.439,3.022-2.63,4.249c-1.192,1.237-2.678,2.271-4.463,3.112
			c-1.772,0.827-3.771,1.432-5.984,1.815l-0.039,7.237c-0.006,0.185-0.039,0.337-0.109,0.481c-0.07,0.146-0.201,0.272-0.42,0.374
			c-0.218,0.111-0.509,0.218-0.885,0.298c-0.376,0.091-0.862,0.169-1.446,0.223c-0.741,0.065-1.354,0.087-1.813,0.059
			s-0.827-0.088-1.09-0.191c-0.262-0.103-0.458-0.247-0.547-0.436c-0.104-0.197-0.15-0.424-0.127-0.669l0.076-6.871
			c-1.015-0.045-1.975-0.134-2.89-0.259c-0.903-0.138-1.726-0.295-2.479-0.492c-0.741-0.188-1.397-0.394-1.952-0.622
			c-0.537-0.217-0.969-0.443-1.255-0.672c-0.3-0.236-0.528-0.599-0.686-1.091c-0.169-0.492-0.3-1.23-0.397-2.215
			c-0.073-0.754-0.11-1.384-0.11-1.881c0-0.495,0.035-0.879,0.125-1.165c0.095-0.272,0.219-0.468,0.39-0.588
			c0.168-0.119,0.366-0.183,0.594-0.205c0.309-0.026,0.768,0.104,1.373,0.387c0.617,0.278,1.404,0.576,2.35,0.906
			c0.947,0.319,2.081,0.587,3.414,0.801c1.322,0.229,2.865,0.251,4.607,0.096c2.73-0.245,4.712-0.907,5.943-1.999
			c1.228-1.09,1.769-2.442,1.611-4.056c-0.104-1.063-0.477-1.93-1.115-2.564c-0.643-0.646-1.465-1.183-2.472-1.623
			c-1.003-0.441-2.124-0.813-3.37-1.116c-1.231-0.305-2.503-0.629-3.816-0.995c-1.299-0.357-2.579-0.785-3.845-1.306
			c-1.267-0.521-2.417-1.19-3.459-2.021c-1.043-0.828-1.916-1.868-2.616-3.131c-0.7-1.254-1.141-2.807-1.321-4.658
			c-0.164-1.681-0.015-3.229,0.435-4.653c0.44-1.425,1.17-2.701,2.167-3.828c0.984-1.127,2.25-2.081,3.788-2.854
			c1.537-0.785,3.307-1.381,5.313-1.781l0.035-6.797c0.006-0.185,0.04-0.338,0.111-0.471c0.071-0.123,0.215-0.251,0.42-0.374
			c0.217-0.123,0.509-0.219,0.874-0.298c0.366-0.079,0.853-0.146,1.459-0.198c0.729-0.067,1.328-0.086,1.812-0.06
			c0.485,0.027,0.864,0.083,1.126,0.187c0.274,0.104,0.445,0.25,0.535,0.438c0.092,0.198,0.15,0.424,0.174,0.664l-0.073,6.398
			c0.653,0.034,1.356,0.085,2.089,0.181c0.741,0.095,1.439,0.218,2.08,0.368c0.653,0.16,1.249,0.325,1.784,0.519
			c0.535,0.184,0.915,0.369,1.125,0.547c0.22,0.163,0.382,0.346,0.507,0.518c0.127,0.186,0.232,0.407,0.32,0.688
			c0.086,0.269,0.156,0.609,0.218,0.995c0.062,0.386,0.118,0.831,0.167,1.346c0.069,0.697,0.113,1.271,0.121,1.72
			c0.008,0.449-0.031,0.798-0.104,1.036c-0.061,0.246-0.153,0.405-0.265,0.495c-0.111,0.091-0.239,0.138-0.407,0.152
			c-0.297,0.028-0.764-0.068-1.365-0.314c-0.613-0.233-1.358-0.478-2.251-0.746c-0.879-0.253-1.889-0.476-3.027-0.672
			c-1.126-0.188-2.357-0.228-3.694-0.108c-1.205,0.109-2.23,0.317-3.081,0.612c-0.837,0.306-1.498,0.676-1.994,1.135
			c-0.499,0.448-0.845,0.965-1.053,1.548c-0.197,0.572-0.267,1.201-0.202,1.876c0.101,1.04,0.476,1.907,1.127,2.563
			c0.657,0.668,1.491,1.205,2.508,1.633c1.017,0.427,2.16,0.798,3.417,1.111c1.27,0.313,2.556,0.647,3.876,1.002
			c1.311,0.356,2.617,0.792,3.895,1.3c1.287,0.496,2.448,1.164,3.491,1.982c1.042,0.818,1.926,1.846,2.635,3.073
			C107.712,132.795,108.162,134.312,108.339,136.13L108.339,136.13z M163.51,95.391l8.446-2.73
			c-2.308,8.281-4.613,16.563-6.918,24.843c-1.753,6.178-5.499,6.981-9.721,2.96l-19.985-15.965l8.446-2.731l-0.012-0.123
			c-9.902-19.648-28.567-34.275-51.138-38.465c-14.261-2.646-14.172-22.871,1.552-20.34c30.608,4.928,55.878,24.771,68.625,51.514
			C163.122,94.767,163.364,95.122,163.51,95.391L163.51,95.391z"/>
	</g>
</svg>
