<?xml version="1.0" encoding="utf-8"?>
<!DOCTYPE svg PUBLIC "-//W3C//DTD SVG 1.1//EN" "http://www.w3.org/Graphics/SVG/1.1/DTD/svg11.dtd">
<svg version="1.1" xmlns="http://www.w3.org/2000/svg" xmlns:xlink="http://www.w3.org/1999/xlink" x="0px" y="0px" width="216px" height="216px" viewBox="0 0 216 216" enable-background="new 0 0 216 216" xml:space="preserve">
<g id="calendar">
	<g display="inline">
		<path fill="#343333" d="M157.811,60.312h-16.035v-7.399c0-2.045-1.656-3.7-3.699-3.7s-3.699,1.655-3.699,3.7v7.399h-22.199v-7.399
			c0-2.045-1.656-3.7-3.699-3.7c-2.044,0-3.701,1.655-3.701,3.7v7.399H82.578v-7.399c0-2.045-1.655-3.7-3.698-3.7
			c-2.044,0-3.7,1.655-3.7,3.7v7.399H59.146c-5.449,0-9.866,4.415-9.866,9.864v87.563c0,5.449,4.417,9.868,9.866,9.868h98.664
			c5.447,0,9.863-4.419,9.863-9.868V70.176C167.674,64.727,163.258,60.312,157.811,60.312L157.811,60.312z M160.275,157.739
			L160.275,157.739c0,1.362-1.105,2.468-2.465,2.468H59.146c-1.361,0-2.466-1.105-2.466-2.468V70.176
			c0-1.358,1.104-2.464,2.466-2.464H75.18v7.4c0,2.044,1.656,3.699,3.7,3.699c2.043,0,3.698-1.655,3.698-3.699v-7.4h22.199v7.4
			c0,2.044,1.657,3.699,3.701,3.699c2.043,0,3.699-1.655,3.699-3.699v-7.4h22.199v7.4c0,2.044,1.656,3.699,3.699,3.699
			s3.699-1.655,3.699-3.699v-7.4h16.035c1.359,0,2.465,1.105,2.465,2.464V157.739L160.275,157.739z"/>
		<polygon fill="#343333" points="75.18,104.71 89.979,104.71 89.979,93.61 75.18,93.61 75.18,104.71 		"/>
		<polygon fill="#343333" points="75.18,123.21 89.979,123.21 89.979,112.109 75.18,112.109 75.18,123.21 		"/>
		<polygon fill="#343333" points="75.18,141.709 89.979,141.709 89.979,130.608 75.18,130.608 75.18,141.709 		"/>
		<polygon fill="#343333" points="101.078,141.709 115.877,141.709 115.877,130.608 101.078,130.608 101.078,141.709 		"/>
		<polygon fill="#343333" points="101.078,123.21 115.877,123.21 115.877,112.109 101.078,112.109 101.078,123.21 		"/>
		<polygon fill="#343333" points="101.078,104.71 115.877,104.71 115.877,93.61 101.078,93.61 101.078,104.71 		"/>
		<polygon fill="#343333" points="126.977,141.709 141.775,141.709 141.775,130.608 126.977,130.608 126.977,141.709 		"/>
		<polygon fill="#343333" points="126.977,123.21 141.775,123.21 141.775,112.109 126.977,112.109 126.977,123.21 		"/>
		<polygon fill="#343333" points="126.977,104.71 141.775,104.71 141.775,93.61 126.977,93.61 126.977,104.71 		"/>

	</g>
</g>

</svg>
