<?xml version="1.0" encoding="utf-8"?>
<!DOCTYPE svg PUBLIC "-//W3C//DTD SVG 1.1//EN" "http://www.w3.org/Graphics/SVG/1.1/DTD/svg11.dtd">
<svg version="1.1" id="Layer_1" xmlns="http://www.w3.org/2000/svg" xmlns:xlink="http://www.w3.org/1999/xlink" x="0px" y="0px"
	 width="216px" height="216px" viewBox="0 0 216 216" enable-background="new 0 0 216 216" xml:space="preserve">
<path fill-rule="evenodd" clip-rule="evenodd" d="M104.355,119.311h57.424c4.09,0,7.436,3.346,7.436,7.436v34.863
	c0,4.09-3.346,7.436-7.436,7.436h-57.424c-4.089,0-7.434-3.346-7.434-7.436V144.5v-10.285v-7.469
	C96.921,122.656,100.266,119.311,104.355,119.311L104.355,119.311z M162.037,144.5h-57.938v17.879h16.094h41.844V144.5
	L162.037,144.5z M104.099,134.215h57.938v-7.213h-12.76h-45.178V134.215L104.099,134.215z M56.602,49.186h57.38
	c4.086,0,7.428,3.343,7.428,7.428v34.837c0,4.086-3.342,7.429-7.428,7.429h-57.38c-4.085,0-7.428-3.343-7.428-7.429V56.614
	C49.174,52.528,52.517,49.186,56.602,49.186L56.602,49.186z M57.918,66.056h14.162v10.823H57.918V66.056L57.918,66.056z
	 M76.014,157.629c-13.674-6.324-21.381-21.713-17.864-38.191l-4.42-1.076c3.23-2.996,6.46-5.994,9.69-8.99
	c2.426-2.226,4.276-1.571,5.04,1.318l4.438,12.338l-4.42-1.076c-2.155,10.756,3.194,21.41,12.598,26.295
	C86.182,151.186,81.778,160.121,76.014,157.629L76.014,157.629z M142.826,59.29c13.674,6.324,21.381,21.713,17.863,38.191
	l4.422,1.076c-3.23,2.997-6.461,5.993-9.691,8.99c-2.426,2.226-4.277,1.571-5.039-1.319l-4.439-12.337l4.42,1.076
	c2.156-10.755-3.193-21.409-12.598-26.295C132.658,65.733,137.063,56.798,142.826,59.29L142.826,59.29z"/>

</svg>
