<?xml version="1.0" encoding="utf-8"?>
<!DOCTYPE svg PUBLIC "-//W3C//DTD SVG 1.1//EN" "http://www.w3.org/Graphics/SVG/1.1/DTD/svg11.dtd">
<svg version="1.1" xmlns="http://www.w3.org/2000/svg" xmlns:xlink="http://www.w3.org/1999/xlink" x="0px" y="0px" width="216px" height="216px" viewBox="0 0 216 216" enable-background="new 0 0 216 216" xml:space="preserve">
<g id="cred3">
	<g display="inline">
		<path fill-rule="evenodd" clip-rule="evenodd" d="M65.691,50.831h55.13c1.048,0,1.905,0.857,1.905,1.906v35.821
			c0,1.047-0.857,1.905-1.905,1.905h-55.13c-1.047,0-1.905-0.858-1.905-1.905V52.737C63.786,51.688,64.644,50.831,65.691,50.831
			L65.691,50.831z M103.978,54.261h4.735c0.559,0,0.651,0.457,0.204,1.016L84.703,85.572c-0.447,0.56-1.269,1.017-1.828,1.017
			h-4.736c-0.559,0-0.651-0.457-0.204-1.017l24.213-30.295C102.595,54.718,103.418,54.261,103.978,54.261L103.978,54.261z
			 M81.443,53.626c5.331,0,9.654,4.323,9.654,9.654c0,5.331-4.323,9.655-9.654,9.655s-9.654-4.324-9.654-9.655
			C71.789,57.949,76.112,53.626,81.443,53.626L81.443,53.626z M81.443,59.851c1.894,0,3.43,1.535,3.43,3.429
			c0,1.895-1.536,3.43-3.43,3.43c-1.895,0-3.43-1.535-3.43-3.43C78.013,61.386,79.548,59.851,81.443,59.851L81.443,59.851z
			 M105.357,68.499c5.33,0,9.654,4.324,9.654,9.654c0,5.331-4.324,9.655-9.654,9.655c-5.331,0-9.655-4.324-9.655-9.655
			C95.703,72.822,100.026,68.499,105.357,68.499L105.357,68.499z M105.357,74.723c1.894,0,3.429,1.536,3.429,3.43
			c0,1.894-1.535,3.431-3.429,3.431s-3.431-1.537-3.431-3.431C101.927,76.259,103.464,74.723,105.357,74.723L105.357,74.723z
			 M65.057,95.926h8.384c0.698,0,1.27,0.571,1.27,1.271v1.87c-1.357,1.544-2.435,3.156-3.245,4.862h-6.408
			c-0.699,0-1.271-0.571-1.271-1.27v-5.462C63.786,96.498,64.357,95.926,65.057,95.926L65.057,95.926z M65.057,108.629h4.884
			c-0.266,1.4-0.394,2.867-0.39,4.412l0.007,3.591h-4.501c-0.699,0-1.271-0.571-1.271-1.271v-5.463
			C63.786,109.199,64.357,108.629,65.057,108.629L65.057,108.629z M65.057,121.331h4.512l0.003,1.776
			c-1.515,1.075-2.858,2.152-4.327,3.635c-0.546,0.552-1.008,1.12-1.4,1.706c-0.039-0.12-0.06-0.251-0.06-0.385v-5.462
			C63.786,121.902,64.357,121.331,65.057,121.331L65.057,121.331z M63.914,41.813h58.431c5.032,0,9.147,4.115,9.147,9.146v41.239
			c-1.601-0.118-3.269-0.141-5.032-0.135V50.958c0-2.264-1.852-4.114-4.115-4.114H63.914c-2.263,0-4.115,1.851-4.115,4.114v79.9
			c0,1.521,0.836,2.855,2.072,3.568c-0.114,1.098-0.146,2.237-0.146,3.414v1.896c-3.983-0.987-6.958-4.602-6.958-8.879v-79.9
			C54.767,45.928,58.883,41.813,63.914,41.813L63.914,41.813z M74.138,125.508c-2.45,1.641-3.56,2.332-5.652,4.445
			c-1.906,1.924-2.198,4.255-2.201,7.891v19.877h88.463v-19.366c0-4.023,0.019-6.32-3.081-9.443
			c-1.179-1.186-3.192-2.454-4.61-3.403l-0.077-12.701c-0.027-4.346-1.307-8.021-3.968-10.658
			c-6.088-6.035-10.244-5.489-21.757-5.489h-18.911c-10.603,0-18.323-0.813-23.685,4.844c-3.249,3.428-4.557,7.02-4.547,11.528
			L74.138,125.508L74.138,125.508z M81.588,132.962c3.539,0,6.409,2.87,6.409,6.409c0,3.538-2.87,6.407-6.409,6.407
			c-3.538,0-6.409-2.869-6.409-6.407C75.18,135.832,78.05,132.962,81.588,132.962L81.588,132.962z M139.655,132.962
			c3.539,0,6.409,2.87,6.409,6.409c0,3.538-2.87,6.407-6.409,6.407s-6.408-2.869-6.408-6.407
			C133.247,135.832,136.116,132.962,139.655,132.962L139.655,132.962z M85.197,110.764c0.997-1.721,3.353-3.098,5.779-3.365h36.048
			c3.713,0,5.127,0.153,7.408,1.728c2.069,1.429,2.049,3.589,2.049,6.926v3.526c0,0.617,0.012,2.884-0.482,2.884
			c-0.505,0-4.065-0.974-5.225-1.185c-1.827-0.335-3.381-0.64-5.287-0.964c-3.244-0.551-8.404-0.575-12.085-0.575h-6.25
			c-4.163,0-8.259,0.219-12.015,0.646c-1.721,0.194-3.628,0.694-5.415,0.995c-1.362,0.229-4.123,1.083-5.364,1.083l0.034-9.193
			C84.396,112.301,84.798,111.453,85.197,110.764L85.197,110.764z M189.319,64.929v-3.847l-14.41-14.265h-4.14l-22.155,20.836
			v15.385c-1.087,1.622-9.137,9.827-9.137,10.738c0,0.111,4.069,3.405,4.451,3.651l9.011-10.062l13.822,0.039L189.319,64.929
			L189.319,64.929z M156.066,83.21c-1.864,0-3.378-1.513-3.378-3.377c0-1.865,1.514-3.377,3.378-3.377s3.376,1.512,3.376,3.377
			C159.442,81.697,157.931,83.21,156.066,83.21L156.066,83.21z M81.979,163.771v7.209c0,1.321-1.081,2.403-2.403,2.403H69.163
			c-1.321,0-2.403-1.082-2.403-2.403v-7.209H81.979L81.979,163.771z M154.475,163.771v7.209c0,1.321-1.081,2.403-2.403,2.403
			h-10.414c-1.321,0-2.402-1.082-2.402-2.403v-7.209H154.475L154.475,163.771z"/>

	</g>
</g>

</svg>
