<?xml version="1.0" encoding="utf-8"?>
<!DOCTYPE svg PUBLIC "-//W3C//DTD SVG 1.1//EN" "http://www.w3.org/Graphics/SVG/1.1/DTD/svg11.dtd">
<svg version="1.1" id="Layer_1" xmlns="http://www.w3.org/2000/svg" xmlns:xlink="http://www.w3.org/1999/xlink" x="0px" y="0px"
	 width="216px" height="216px" viewBox="0 0 216 216" enable-background="new 0 0 216 216" xml:space="preserve">
<g>
	<path fill-rule="evenodd" clip-rule="evenodd" d="M102.561,113.865h57.424c4.09,0,7.435,3.346,7.435,7.434v34.865
		c0,4.09-3.345,7.434-7.435,7.434h-57.424c-4.089,0-7.434-3.344-7.434-7.434v-17.111v-10.285v-7.469
		C95.127,117.211,98.472,113.865,102.561,113.865L102.561,113.865z M160.242,139.053h-57.937v17.881h16.094h41.843V139.053
		L160.242,139.053z M102.305,128.768h57.937v-7.213h-12.76h-45.177V128.768L102.305,128.768z"/>
	<path fill-rule="evenodd" clip-rule="evenodd" d="M66.428,92.541h57.379c4.086,0,7.429,3.343,7.429,7.428v34.837
		c0,4.086-3.343,7.43-7.429,7.43H66.428c-4.085,0-7.428-3.344-7.428-7.43V99.969C59,95.884,62.343,92.541,66.428,92.541
		L66.428,92.541z M67.745,109.412h14.162v10.822H67.745V109.412L67.745,109.412z"/>
	<path fill-rule="evenodd" clip-rule="evenodd" d="M88.094,53.02v10.973c-0.301,2.063-1.007,3.473-3.289,3.598
		c-3.277,0.18-6.577,0-9.866,0c-6.22,0.027-10.009-0.124-0.497,3.443l29.738,11.151c7.046,2.643,6.464,2.636,13.511-0.005
		c9.77-3.664,19.539-7.328,29.309-10.991c8.696-3.261,4.381-3.581,0.616-3.599c-3.468,0-6.936,0-10.403,0
		c-3.114-0.589-3.578-1.858-3.45-3.598c0-3.463,0-6.926,0-10.389c0-2.922-1.634-3.14-3.657-3.14H91.203
		C88.554,50.615,88.094,50.577,88.094,53.02L88.094,53.02z"/>
</g>

</svg>
