<?xml version="1.0" encoding="utf-8"?>
<!DOCTYPE svg PUBLIC "-//W3C//DTD SVG 1.1//EN" "http://www.w3.org/Graphics/SVG/1.1/DTD/svg11.dtd">
<svg version="1.1" xmlns="http://www.w3.org/2000/svg" xmlns:xlink="http://www.w3.org/1999/xlink" x="0px" y="0px" width="216px" height="216px" viewBox="0 0 216 216" enable-background="new 0 0 216 216" xml:space="preserve">

<g id="uspishno">
	<g display="inline">
		<path fill-rule="evenodd" clip-rule="evenodd" fill="#343333" d="M153.497,86.756c-4.621-1.214-15.5-1.2-31.404-1.619
			c0.754-3.473,0.924-6.601,0.924-12.158c0-13.274-9.668-24.965-18.224-24.965c-6.04,0-11.022,4.938-11.1,11.013
			c-0.083,7.449-2.384,20.32-14.799,26.844c-0.911,0.481-3.516,1.764-3.895,1.934l0.194,0.166c-1.943-1.676-4.635-2.96-7.398-2.96
			h-11.1c-6.12,0-11.1,4.979-11.1,11.101v59.195c0,6.12,4.979,11.1,11.1,11.1h11.1c4.402,0,8.086-2.659,9.87-6.388
			c0.043,0.014,0.123,0.035,0.173,0.043c0.246,0.064,0.532,0.138,0.885,0.231c0.065,0.014,0.103,0.021,0.171,0.043
			c2.132,0.527,6.232,1.511,15.001,3.526c1.883,0.427,11.808,2.544,22.102,2.544h20.223c6.168,0,10.607-2.37,13.252-7.133
			c0.039-0.072,0.893-1.734,1.586-3.98c0.52-1.692,0.715-4.083,0.088-6.512c3.971-2.731,5.25-6.857,6.084-9.544
			c1.391-4.408,0.971-7.718,0.004-10.087c2.232-2.11,4.141-5.326,4.945-10.232c0.5-3.043-0.035-6.171-1.441-8.778
			c2.096-2.351,3.053-5.312,3.158-8.05l0.043-0.773c0.027-0.487,0.051-0.787,0.051-1.853
			C163.989,94.787,160.755,88.829,153.497,86.756L153.497,86.756z M71.495,155.306L71.495,155.306c0,2.045-1.654,3.7-3.699,3.7
			h-11.1c-2.045,0-3.7-1.655-3.7-3.7V96.11c0-2.046,1.655-3.701,3.7-3.701h11.1c2.045,0,3.699,1.655,3.699,3.701V155.306
			L71.495,155.306z M156.507,101.79L156.507,101.79c-0.076,1.828-0.842,5.418-7.316,5.418c-5.551,0-7.4,0-7.4,0
			c-1.023,0-1.85,0.828-1.85,1.851s0.826,1.851,1.85,1.851c0,0,1.619,0,7.17,0c5.549,0,6.277,4.604,5.918,6.823
			c-0.453,2.76-1.75,7.978-7.996,7.978c-6.248,0-8.791,0-8.791,0c-1.021,0-1.85,0.823-1.85,1.85c0,1.019,0.828,1.85,1.85,1.85
			c0,0,4.393,0,7.283,0c6.244,0,5.699,4.762,4.799,7.602c-1.178,3.734-1.9,7.195-9.766,7.195c-2.664,0-6.039,0-6.039,0
			c-1.021,0-1.85,0.824-1.85,1.851c0,1.019,0.828,1.85,1.85,1.85c0,0,2.566,0,5.803,0c4.049,0,4.238,3.83,3.816,5.203
			c-0.463,1.503-1.008,2.615-1.033,2.666c-1.121,2.017-2.92,3.23-6.734,3.23h-20.223c-10.164,0-20.241-2.306-20.501-2.363
			c-15.37-3.54-16.179-3.815-17.144-4.09c0,0-3.129-0.527-3.129-3.259l-0.029-51.1c0-1.734,1.106-3.303,2.938-3.855
			c0.229-0.09,0.539-0.184,0.763-0.277c16.902-7,22.046-22.347,22.198-34.95c0.022-1.77,1.388-3.7,3.7-3.7
			c3.913,0,10.825,7.852,10.825,17.566c0,8.772-0.352,10.29-3.426,19.431c36.998,0,36.738,0.532,40.004,1.388
			c4.047,1.156,4.393,4.511,4.393,5.666C156.589,100.73,156.554,100.546,156.507,101.79L156.507,101.79z"/>
		<path fill-rule="evenodd" clip-rule="evenodd" fill="#343333" d="M57.933,147.956c-3.373,0-6.111,2.737-6.111,6.112
			c0,3.374,2.738,6.111,6.111,6.111c3.375,0,6.113-2.737,6.113-6.111C64.046,150.693,61.308,147.956,57.933,147.956L57.933,147.956z
			 M57.933,156.104L57.933,156.104c-1.121,0-2.037-0.914-2.037-2.036s0.916-2.037,2.037-2.037c1.123,0,2.038,0.915,2.038,2.037
			S59.056,156.104,57.933,156.104L57.933,156.104z"/>
	</g>
</g>

</svg>
