<?xml version="1.0" encoding="iso-8859-1"?>
<!-- Generator: Adobe Illustrator 12.0.0, SVG Export Plug-In . SVG Version: 6.00 Build 51448)  -->
<!DOCTYPE svg PUBLIC "-//W3C//DTD SVG 1.1//EN" "http://www.w3.org/Graphics/SVG/1.1/DTD/svg11.dtd" [
	<!ENTITY ns_svg "http://www.w3.org/2000/svg">
	<!ENTITY ns_xlink "http://www.w3.org/1999/xlink">
]>
<svg  version="1.1" id="Layer_1" xmlns="&ns_svg;" xmlns:xlink="&ns_xlink;" width="159.645" height="141.732"
	 viewBox="0 0 159.645 141.732" overflow="visible" enable-background="new 0 0 159.645 141.732" xml:space="preserve">
<g>
	<path fill-rule="evenodd" clip-rule="evenodd" d="M69.416,0l-0.004,7.281c-16.25,0.57-31.613,7.15-43.183,18.587
		C1.08,50.729,1.06,91.074,26.182,115.962c0.09,0.089,0.18,0.178,0.271,0.266l2.089,2.044l0.058-0.057
		c11.8,10.464,26.998,16.24,42.929,16.24c35.548,0,64.377-28.528,64.377-63.706v-0.008l-0.009-3.042h-16.104l19.927-33.407
		l19.927,33.407h-16.397l0.011,3.056c-0.003,39.194-32.122,70.977-71.73,70.977c-19.073,0-37.047-7.254-50.548-20.628
		C-7.014,93.374-6.99,48.422,21.032,20.72C33.989,7.911,51.205,0.572,69.416,0L69.416,0z"/>
	<path fill-rule="evenodd" clip-rule="evenodd" d="M62.668,35.986c-2.574,0.701-4.742,1.716-6.503,3.046
		c-3.722,2.812-5.583,6.436-5.583,10.872c0,3.326,1.021,6,3.062,8.02c2.041,2.02,4.603,3.564,7.685,4.634
		c0.427,0.148,0.873,0.298,1.34,0.45V35.986L62.668,35.986z M72.568,34.815c-2.089,0.007-4.03,0.13-5.823,0.367v29.053
		c1.751,0.494,3.692,1.006,5.823,1.536V34.815L72.568,34.815z M76.645,104.145c4.767-0.536,8.525-1.804,11.278-3.804
		c3.762-2.732,5.643-6.277,5.643-10.634c0-3.326-1.021-5.98-3.062-7.96c-2.041-1.98-4.542-3.505-7.504-4.575
		c-1.725-0.622-3.844-1.278-6.355-1.969V104.145L76.645,104.145z M66.745,104.242c1.404,0.132,2.82,0.198,4.248,0.198
		c0.535,0,1.06-0.008,1.575-0.021V74.141c-0.627-0.157-1.271-0.314-1.936-0.474c-1.354-0.339-2.65-0.676-3.888-1.01V104.242
		L66.745,104.242z M70.993,111.925c-1.43,0-2.846-0.052-4.248-0.155v6.46h-4.077v-6.914c-3.286-0.49-6.494-1.276-9.625-2.361
		c-5.723-1.979-10.146-4.593-13.267-7.841l3.481-6.772c3.042,3.011,7.084,5.445,12.127,7.307c2.392,0.884,4.819,1.557,7.283,2.021
		V71.503c-2.756-0.82-5.145-1.624-7.163-2.41c-3.763-1.466-6.984-3.703-9.665-6.713c-2.682-3.01-4.022-7.089-4.022-12.237
		c0-4.199,1.12-8.02,3.361-11.466c2.241-3.445,5.684-6.198,10.326-8.258c2.147-0.953,4.536-1.684,7.163-2.196V20.26h4.077v7.363
		c1.842-0.189,3.783-0.287,5.823-0.294V20.26h4.076v7.21c3.473,0.257,6.892,0.863,10.258,1.819
		c4.603,1.307,8.584,3.109,11.946,5.406l-3.002,7.01c-3.521-2.297-7.284-4.019-11.286-5.168c-2.674-0.767-5.313-1.278-7.916-1.533
		V66.79c4.851,1.256,8.87,2.499,12.059,3.729c3.802,1.465,7.023,3.683,9.665,6.653s3.962,6.991,3.962,12.06
		c0,4.199-1.141,8.021-3.422,11.466c-2.281,3.445-5.783,6.179-10.506,8.198c-3.369,1.441-7.288,2.369-11.758,2.781v6.553h-4.076
		v-6.322C72.05,111.919,71.524,111.925,70.993,111.925L70.993,111.925z"/>
</g>
</svg>
