<?xml version="1.0" encoding="utf-8"?>
<!DOCTYPE svg PUBLIC "-//W3C//DTD SVG 1.1//EN" "http://www.w3.org/Graphics/SVG/1.1/DTD/svg11.dtd">
<svg version="1.1" xmlns="http://www.w3.org/2000/svg" xmlns:xlink="http://www.w3.org/1999/xlink" x="0px" y="0px" width="216px" height="216px" viewBox="0 0 216 216" enable-background="new 0 0 216 216" xml:space="preserve">

<g id="Layer_10">
	<g display="inline">
		<path fill-rule="evenodd" clip-rule="evenodd" d="M116.77,114.059c-1.443-1.366-1.508-3.645-0.141-5.089
			c1.365-1.443,3.645-1.506,5.088-0.141c1.443,1.367,1.508,3.646,0.141,5.09C120.492,115.361,118.213,115.425,116.77,114.059
			L116.77,114.059z M96.851,114.426c-1.987,0.066-3.652-1.49-3.719-3.478c-0.066-1.986,1.491-3.651,3.477-3.718
			c1.986-0.067,3.651,1.49,3.718,3.477S98.837,114.359,96.851,114.426L96.851,114.426z M87.466,121.455
			c-1.752,0.938-3.935,0.277-4.872-1.476s-0.277-3.935,1.476-4.872c1.752-0.938,3.935-0.276,4.872,1.477
			C89.879,118.336,89.218,120.518,87.466,121.455L87.466,121.455z M82.153,131.909c-1.158,1.615-3.408,1.986-5.023,0.828
			c-1.616-1.158-1.987-3.407-0.829-5.023c1.158-1.614,3.407-1.985,5.023-0.828C82.939,128.044,83.311,130.293,82.153,131.909
			L82.153,131.909z M82.005,143.634c-0.325,1.961-2.179,3.287-4.14,2.962c-1.961-0.324-3.288-2.179-2.963-4.14
			c0.325-1.96,2.179-3.287,4.14-2.962C81.003,139.818,82.331,141.673,82.005,143.634L82.005,143.634z M87.054,154.218
			c0.575,1.902-0.502,3.911-2.405,4.486c-1.903,0.575-3.912-0.502-4.488-2.404c-0.574-1.903,0.503-3.913,2.405-4.487
			C84.469,151.237,86.479,152.314,87.054,154.218L87.054,154.218z M96.259,161.481c1.356,1.452,1.278,3.731-0.175,5.087
			c-1.453,1.356-3.731,1.278-5.088-0.174c-1.356-1.453-1.278-3.731,0.175-5.088C92.624,159.95,94.902,160.028,96.259,161.481
			L96.259,161.481z M107.726,163.93c1.859,0.704,2.795,2.783,2.091,4.642c-0.704,1.859-2.783,2.796-4.642,2.092
			c-1.858-0.705-2.795-2.783-2.091-4.642C103.789,164.163,105.867,163.226,107.726,163.93L107.726,163.93z M119.096,161.06
			c1.979-0.189,3.736,1.262,3.926,3.24c0.191,1.979-1.26,3.737-3.238,3.927s-3.738-1.261-3.928-3.24
			C115.666,163.009,117.117,161.25,119.096,161.06L119.096,161.06z M128.027,153.462c1.689-1.045,3.908-0.52,4.953,1.171
			c1.045,1.691,0.52,3.91-1.17,4.955c-1.691,1.044-3.91,0.52-4.955-1.172C125.811,156.726,126.336,154.506,128.027,153.462
			L128.027,153.462z M132.682,142.699c1.055-1.684,3.277-2.193,4.961-1.138c1.686,1.056,2.195,3.277,1.139,4.962
			c-1.055,1.684-3.277,2.194-4.961,1.138C132.135,146.605,131.625,144.384,132.682,142.699L132.682,142.699z M132.102,130.987
			c0.203-1.977,1.971-3.416,3.949-3.213c1.977,0.203,3.416,1.971,3.213,3.948s-1.971,3.416-3.947,3.214
			C133.338,134.733,131.898,132.965,132.102,130.987L132.102,130.987z M126.406,120.737c-0.691-1.863,0.26-3.936,2.123-4.627
			s3.936,0.259,4.627,2.121c0.691,1.864-0.258,3.937-2.121,4.628S127.1,122.602,126.406,120.737L126.406,120.737z M48.481,92.497
			c-1.988,0-3.6-1.612-3.6-3.6c0-1.987,1.612-3.6,3.6-3.6c1.987,0,3.6,1.612,3.6,3.6C52.081,90.884,50.468,92.497,48.481,92.497
			L48.481,92.497z M69.209,86.537c-1.988,0-3.6-1.612-3.6-3.6c0-1.988,1.612-3.6,3.6-3.6c1.987,0,3.6,1.612,3.6,3.6
			C72.809,84.924,71.196,86.537,69.209,86.537L69.209,86.537z M48.814,80.479c-1.988,0-3.6-1.612-3.6-3.6c0-1.988,1.612-3.6,3.6-3.6
			c1.987,0,3.6,1.612,3.6,3.6C52.414,78.867,50.801,80.479,48.814,80.479L48.814,80.479z M61.68,75.698c-1.988,0-3.6-1.612-3.6-3.6
			c0-1.988,1.612-3.6,3.6-3.6s3.6,1.612,3.6,3.6C65.279,74.085,63.667,75.698,61.68,75.698L61.68,75.698z M60.989,97.438
			c-1.987,0-3.6-1.612-3.6-3.6c0-1.988,1.612-3.6,3.6-3.6c1.988,0,3.6,1.612,3.6,3.6C64.589,95.826,62.977,97.438,60.989,97.438
			L60.989,97.438z M175.816,65.044c-1.988,0-3.6-1.612-3.6-3.6s1.611-3.6,3.6-3.6s3.6,1.612,3.6,3.6S177.805,65.044,175.816,65.044
			L175.816,65.044z M142.074,57.699c-1.988,0-3.6-1.612-3.6-3.6c0-1.988,1.611-3.6,3.6-3.6c1.986,0,3.6,1.612,3.6,3.6
			C145.674,56.087,144.061,57.699,142.074,57.699L142.074,57.699z M154.072,48.1c-1.988,0-3.6-1.612-3.6-3.6
			c0-1.987,1.611-3.6,3.6-3.6s3.6,1.612,3.6,3.6C157.672,46.488,156.061,48.1,154.072,48.1L154.072,48.1z M169.672,51.7
			c-1.988,0-3.6-1.612-3.6-3.6c0-1.988,1.611-3.6,3.6-3.6c1.986,0,3.6,1.612,3.6,3.6C173.271,50.087,171.658,51.7,169.672,51.7
			L169.672,51.7z M169.672,78.098c-1.988,0-3.6-1.612-3.6-3.6c0-1.988,1.611-3.6,3.6-3.6c1.986,0,3.6,1.612,3.6,3.6
			C173.271,76.485,171.658,78.098,169.672,78.098L169.672,78.098z M154.072,82.897c-1.988,0-3.6-1.612-3.6-3.6s1.611-3.6,3.6-3.6
			s3.6,1.612,3.6,3.6S156.061,82.897,154.072,82.897L154.072,82.897z M142.074,73.298c-1.988,0-3.6-1.612-3.6-3.6s1.611-3.6,3.6-3.6
			c1.986,0,3.6,1.612,3.6,3.6S144.061,73.298,142.074,73.298L142.074,73.298z M120.666,102.569c-3.879,1.22-8.47,1.926-13.39,1.926
			c-5.479,0-10.55-0.875-14.686-2.361c-14.551,5.461-24.912,19.501-24.912,35.958c0,21.202,17.194,38.397,38.397,38.397
			c21.203,0,38.396-17.195,38.396-38.397C144.473,122.056,134.635,108.314,120.666,102.569L120.666,102.569z M107.276,56.126
			c9.813,0,17.772,2.316,17.772,5.173s-7.959,5.173-17.772,5.173c-9.814,0-17.772-2.316-17.772-5.173S97.462,56.126,107.276,56.126
			L107.276,56.126z M98.877,96.455c2.501,0.392,5.361,0.614,8.399,0.614c3.536,0,6.831-0.301,9.599-0.819v-23.3
			c-2.959,0.61-6.199,0.948-9.599,0.948c-2.945,0-5.772-0.254-8.399-0.718V96.455L98.877,96.455z M128.719,98.514
			c13.713,7.862,22.953,22.642,22.953,39.579c0,25.178-20.418,45.597-45.596,45.597c-25.178,0-45.596-20.419-45.596-45.597
			c0-17.538,9.908-32.764,24.43-40.391h0c0.195-0.103,0.391-0.204,0.588-0.304l0.15-0.076c0.217-0.109,0.436-0.216,0.654-0.322
			l0.146-0.07c0.229-0.109,0.461-0.218,0.692-0.324l0.083-0.038c0.232-0.105,0.465-0.209,0.699-0.311l0.151-0.065
			c0.231-0.1,0.463-0.197,0.697-0.292l0.106-0.044c0.25-0.102,0.501-0.202,0.754-0.3l0.081-0.031c0.25-0.096,0.501-0.19,0.753-0.282
			l0.086-0.031c0.256-0.093,0.513-0.184,0.771-0.272l0.057-0.02l0.296-0.1V71.193c-5.846-2.307-9.599-5.882-9.599-9.894
			c0-6.957,11.284-12.599,25.198-12.599c13.913,0,25.198,5.642,25.198,12.599c0,3.73-3.246,7.082-8.4,9.389V96.19
			c1.6,0.687,3.15,1.462,4.648,2.321L128.719,98.514L128.719,98.514z"/>
		<path fill-rule="evenodd" clip-rule="evenodd" d="M115.676,149.875c0,0.733-0.068,1.313-0.205,1.741
			c-0.129,0.426-0.316,0.75-0.547,0.98c-0.23,0.239-0.572,0.479-1.016,0.718c-0.443,0.238-0.98,0.469-1.621,0.674
			c-0.64,0.205-1.373,0.375-2.201,0.512s-1.741,0.205-2.74,0.205c-1.886,0-3.55-0.248-5.001-0.726
			c-1.451-0.486-2.688-1.187-3.721-2.091c-1.032-0.913-1.877-2.022-2.517-3.354c-0.64-1.323-1.101-2.825-1.383-4.506h-2.406
			c-0.248,0-0.444-0.162-0.598-0.495c-0.145-0.324-0.222-0.871-0.222-1.63c0-0.385,0.009-0.709,0.035-0.981
			c0.025-0.265,0.068-0.479,0.128-0.632c0.06-0.162,0.128-0.281,0.222-0.35c0.093-0.077,0.204-0.12,0.341-0.12h2.219
			c0-0.247,0-0.512-0.009-0.785c-0.009-0.272-0.009-0.546-0.009-0.811c0-0.333,0-0.666,0.009-0.99
			c0.009-0.323,0.009-0.64,0.009-0.938h-2.219c-0.256,0-0.435-0.153-0.555-0.461c-0.111-0.307-0.171-0.854-0.171-1.639
			c0-0.4,0.018-0.733,0.06-0.998s0.103-0.479,0.179-0.641c0.068-0.153,0.162-0.265,0.256-0.332c0.102-0.068,0.213-0.103,0.324-0.103
			h2.577c0.333-1.597,0.819-3.064,1.468-4.387c0.64-1.322,1.459-2.467,2.475-3.431c1.007-0.956,2.21-1.698,3.618-2.219
			c1.408-0.529,3.055-0.794,4.941-0.794c0.871,0,1.706,0.068,2.509,0.188c0.811,0.129,1.545,0.291,2.193,0.495
			c0.648,0.196,1.186,0.401,1.613,0.606c0.426,0.213,0.725,0.393,0.912,0.537c0.18,0.153,0.316,0.308,0.402,0.47
			c0.076,0.153,0.145,0.35,0.195,0.58c0.051,0.239,0.094,0.529,0.129,0.888c0.033,0.358,0.051,0.803,0.051,1.314
			c0,0.452-0.018,0.819-0.051,1.101c-0.035,0.281-0.094,0.512-0.162,0.691c-0.078,0.171-0.172,0.29-0.281,0.358
			c-0.104,0.068-0.223,0.103-0.359,0.103c-0.264,0-0.58-0.12-0.938-0.35c-0.358-0.239-0.802-0.487-1.323-0.769
			c-0.529-0.273-1.152-0.521-1.886-0.742c-0.733-0.23-1.596-0.342-2.577-0.342c-0.938,0-1.75,0.128-2.449,0.384
			c-0.7,0.265-1.306,0.641-1.818,1.144c-0.503,0.495-0.921,1.102-1.237,1.801c-0.316,0.7-0.555,1.485-0.726,2.373h6.853
			c0.119,0,0.23,0.034,0.341,0.103c0.102,0.067,0.196,0.179,0.256,0.332c0.068,0.162,0.127,0.376,0.162,0.641
			c0.042,0.265,0.068,0.598,0.068,0.998c0,0.785-0.077,1.332-0.23,1.639c-0.146,0.308-0.351,0.461-0.598,0.461h-7.348
			c-0.017,0.273-0.034,0.538-0.043,0.811c-0.008,0.282-0.008,0.581-0.008,0.913c0,0.308,0,0.598,0.008,0.888
			c0.009,0.299,0.026,0.598,0.043,0.913h7.348c0.119,0,0.23,0.043,0.341,0.12c0.102,0.068,0.196,0.188,0.256,0.35
			c0.068,0.153,0.127,0.367,0.162,0.632c0.042,0.272,0.068,0.597,0.068,0.981c0,0.759-0.077,1.306-0.23,1.63
			c-0.146,0.333-0.351,0.495-0.598,0.495h-6.879c0.137,0.845,0.358,1.612,0.683,2.287c0.316,0.674,0.734,1.245,1.255,1.706
			c0.529,0.47,1.169,0.828,1.929,1.075c0.759,0.257,1.664,0.376,2.714,0.376c0.981,0,1.835-0.111,2.561-0.35
			c0.725-0.23,1.356-0.486,1.886-0.777c0.538-0.281,0.981-0.537,1.34-0.768c0.358-0.239,0.657-0.35,0.888-0.35
			c0.137,0,0.256,0.025,0.367,0.094c0.102,0.068,0.195,0.196,0.273,0.393c0.076,0.188,0.127,0.452,0.162,0.794
			C115.658,148.851,115.676,149.312,115.676,149.875L115.676,149.875z"/>
	</g>
</g>

</svg>
