<?xml version="1.0" encoding="utf-8"?>
<!DOCTYPE svg PUBLIC "-//W3C//DTD SVG 1.1//EN" "http://www.w3.org/Graphics/SVG/1.1/DTD/svg11.dtd">
<svg version="1.1" xmlns="http://www.w3.org/2000/svg" xmlns:xlink="http://www.w3.org/1999/xlink" x="0px" y="0px" width="216px" height="216px" viewBox="0 0 216 216" enable-background="new 0 0 216 216" xml:space="preserve">
<g id="cred2">
	<g display="inline">
		<path fill-rule="evenodd" clip-rule="evenodd" d="M70.458,45.928h60.071c1.143,0,2.076,0.934,2.076,2.076v14.003
			c-1.715,0.29-3.352,0.841-4.898,1.624c-2.049-1.039-4.258-1.639-6.793-1.639h-1.318c-11.392,0-18.393,8.492-18.393,19.491
			c0,2.858,0.436,5.319,1.162,7.629H70.458c-1.143,0-2.076-0.935-2.076-2.076V48.004C68.382,46.862,69.316,45.928,70.458,45.928
			L70.458,45.928z M112.176,49.665h5.16c0.609,0,0.709,0.499,0.223,1.107l-26.385,33.01c-0.486,0.609-1.383,1.107-1.992,1.107h-5.16
			c-0.609,0-0.709-0.498-0.223-1.107l26.385-33.01C110.67,50.163,111.566,49.665,112.176,49.665L112.176,49.665z M87.621,48.973
			c5.809,0,10.52,4.71,10.52,10.519s-4.711,10.52-10.52,10.52S77.102,65.3,77.102,59.492S81.812,48.973,87.621,48.973L87.621,48.973
			z M87.621,55.754c2.064,0,3.738,1.674,3.738,3.737c0,2.064-1.674,3.737-3.738,3.737c-2.063,0-3.736-1.673-3.736-3.737
			C83.884,57.428,85.558,55.754,87.621,55.754L87.621,55.754z M69.766,95.063h9.136c0.761,0,1.383,0.623,1.383,1.385v5.952
			c0,0.761-0.622,1.384-1.383,1.384h-9.136c-0.761,0-1.384-0.623-1.384-1.384v-5.952C68.382,95.687,69.005,95.063,69.766,95.063
			L69.766,95.063z M69.766,108.905h9.136c0.761,0,1.383,0.622,1.383,1.384v5.952c0,0.761-0.622,1.384-1.383,1.384h-9.136
			c-0.761,0-1.384-0.623-1.384-1.384v-5.952C68.382,109.527,69.005,108.905,69.766,108.905L69.766,108.905z M69.766,122.746h9.136
			c0.761,0,1.383,0.623,1.383,1.384v5.952c0,0.761-0.622,1.384-1.383,1.384h-9.136c-0.761,0-1.384-0.623-1.384-1.384v-5.952
			C68.382,123.369,69.005,122.746,69.766,122.746L69.766,122.746z M87.344,95.063h9.136c0.762,0,1.384,0.623,1.384,1.385v5.952
			c0,0.761-0.622,1.384-1.384,1.384h-9.136c-0.761,0-1.384-0.623-1.384-1.384v-5.952C85.96,95.687,86.583,95.063,87.344,95.063
			L87.344,95.063z M87.344,108.905h9.136c0.275,0,0.534,0.082,0.75,0.223c-1.484,2.597-2.709,5.396-3.697,8.359l-0.045,0.138h-6.144
			c-0.761,0-1.384-0.623-1.384-1.384v-5.952C85.96,109.527,86.583,108.905,87.344,108.905L87.344,108.905z M87.344,122.746h4.794
			c-0.473,2.269-0.816,4.555-1.168,6.901c-0.092,0.605-0.164,1.212-0.225,1.818h-3.401c-0.761,0-1.384-0.623-1.384-1.384v-5.952
			C85.96,123.369,86.583,122.746,87.344,122.746L87.344,122.746z M103.539,100.91v-4.462c0-0.747,0.6-1.36,1.342-1.384
			c0.53,1.049,1.096,2.113,1.684,3.216C105.497,99.105,104.49,99.982,103.539,100.91L103.539,100.91z M68.521,36.1h63.668
			c5.482,0,9.967,4.484,9.967,9.966v16.503c-1.705-0.516-3.461-0.796-5.205-0.796h-0.277V46.066c0-2.466-2.018-4.483-4.484-4.483
			H68.521c-2.467,0-4.483,2.017-4.483,4.483v87.061c0,2.466,2.017,4.483,4.483,4.483h21.816c-0.031,0.602-0.08,1.202-0.178,1.669
			c-0.189,0.642-0.566,1.34-0.875,1.915c-0.348,0.651-0.681,1.283-0.999,1.898H68.521c-5.482,0-9.967-4.484-9.967-9.966V46.066
			C58.554,40.584,63.039,36.1,68.521,36.1L68.521,36.1z"/>
		<path fill-rule="evenodd" clip-rule="evenodd" d="M114.748,100.68c-0.1-0.357-0.219-0.709-0.35-1.057
			c-0.398-1.063-0.912-2.091-1.441-3.094c-2.635-4.986-5.287-9.166-5.287-15.046c0-7.392,4.115-13.023,11.925-13.023h1.318
			c2.76,0,4.807,1.281,6.811,2.946c0.303-0.268,0.609-0.534,0.92-0.766c2.004-1.501,4.236-2.399,6.77-2.399h1.537
			c4.385,0,9.391,2.973,11.713,7.041c0.613-0.018,1.248-0.01,1.908-0.01h0.879c5.141,0,10.607,3.457,10.607,9.069v2.855
			c0,1.775-0.395,3.496-1.158,5.096c-1.299,2.712-3.428,4.664-5.818,6.4c-0.377,0.275-1.014,0.691-1.662,1.136
			c7.77,3.5,13.598,9.821,16.867,19.721c1.215,3.682,1.707,7.051,2.359,10.842c0.324,1.884,0.424,3.784,0.508,5.689
			c0.068,1.602,0.094,3.446,0.432,5.019c0.268,0.844,0.953,2.063,1.365,2.846c0.727,1.379,1.518,2.768,2.156,4.186
			c1.85,4.093,2.746,8.166,2.746,12.665c0,9.879-9.924,14.25-18.195,15.695c-7.318,1.279-13.621,2.601-21.191,2.601h-6.371
			c-12.713,0-44-0.507-44-18.516c0-6.924,1.781-10.509,4.895-16.331c0.574-1.076,1.113-2.167,1.434-3.349
			c0.302-1.186,0.363-3.229,0.447-4.481c0.128-1.913,0.212-3.914,0.495-5.808c0.577-3.854,1.063-7.354,2.303-11.073
			C102.716,110.389,107.882,104.309,114.748,100.68L114.748,100.68z M96.308,160.574c0,11.256,25.145,12.303,37.788,12.303h6.371
			c7.955,0,13.449-1.342,20.121-2.508c5.523-0.965,13.053-3.559,13.053-9.575c0-4.104-0.912-7.269-2.195-10.107
			c-0.926-2.051-3.486-6.261-3.91-8.174c-0.752-3.397-0.402-7.521-1.012-11.07c-0.701-4.082-0.973-6.424-2.137-9.946
			c-4.088-12.383-12.955-18.922-29.412-18.922c-16.525,0-25.275,6.51-29.412,18.922c-1.126,3.38-1.458,6.062-2.053,10.03
			c-0.397,2.656-0.478,8.735-1.091,10.993C100.792,148.517,96.308,151.417,96.308,160.574L96.308,160.574z M128.385,78.188h-1.318
			c-1.936,0-4.066-3.515-6.152-3.515h-1.318c-4.086,0-5.713,2.604-5.713,6.811c0,6.617,5.512,11.714,7.031,18.235
			c1.064,0,2.084-0.446,2.943-0.793c0.936-0.377,2.277-0.33,3.256-0.479c2.039-0.311,4.816-0.486,6.982-0.486l0.234-0.158
			l11.43,1.037l-0.02,0.219c0.928-3.98,10.105-5.891,10.105-11.863V84.34c0-1.765-2.518-2.856-4.395-2.856h-0.879
			c-3.316,0-3.137-0.209-3.682,2.03c-0.322,1.329-1.15,3.198-1.807,4.125c-1.17,1.655-4.221,4.768-6.375,5.269
			c2.459-3.672,5.053-6.759,5.053-12.962c0-2.562-4.162-5.492-6.811-5.492h-1.537C132.162,74.453,130.58,78.188,128.385,78.188
			L128.385,78.188z"/>
		<path fill-rule="evenodd" clip-rule="evenodd" d="M134.676,151.112c-10.949,0-19.83-8.881-19.83-19.831
			c0-10.949,8.881-19.83,19.83-19.83c10.951,0,19.83,8.881,19.83,19.83C154.506,142.231,145.627,151.112,134.676,151.112
			L134.676,151.112z M125.443,136.506c0,1.468,0.273,2.759,0.818,3.873c0.547,1.106,1.291,2.036,2.229,2.773
			c0.938,0.745,2.029,1.299,3.283,1.675s2.596,0.561,4.02,0.561c0.967,0,1.867-0.074,2.693-0.236
			c0.826-0.154,1.557-0.347,2.191-0.567c0.633-0.229,1.164-0.458,1.594-0.709c0.42-0.243,0.729-0.457,0.914-0.648
			c0.191-0.185,0.324-0.458,0.398-0.805c0.082-0.354,0.117-0.863,0.117-1.526c0-0.45-0.014-0.819-0.035-1.122
			c-0.031-0.302-0.082-0.553-0.141-0.737c-0.066-0.185-0.156-0.317-0.266-0.398c-0.104-0.081-0.229-0.118-0.377-0.118
			c-0.199,0-0.486,0.118-0.855,0.354c-0.361,0.235-0.834,0.501-1.416,0.789c-0.576,0.287-1.262,0.553-2.059,0.789
			c-0.805,0.236-1.727,0.354-2.781,0.354c-0.693,0-1.313-0.081-1.859-0.243c-0.545-0.17-1.01-0.406-1.395-0.708
			c-0.375-0.303-0.672-0.672-0.869-1.122c-0.207-0.45-0.303-0.944-0.303-1.49c0-0.635,0.168-1.18,0.516-1.63
			c0.346-0.458,0.797-0.863,1.35-1.21c0.365-0.233,0.766-0.457,1.195-0.671h9.643c0.141,0,0.256-0.156,0.256-0.346v-1.378
			c0-0.189-0.115-0.346-0.256-0.346H124.01c-0.141,0-0.258,0.155-0.258,0.346v1.378c0,0.189,0.117,0.346,0.258,0.346h1.889
			C125.592,134.531,125.443,135.453,125.443,136.506L125.443,136.506z M124.01,127.79h9.379l0.266-0.115
			c0.723-0.302,1.365-0.634,1.932-0.988c0.568-0.354,1.025-0.76,1.365-1.21c0.34-0.457,0.51-0.996,0.51-1.615
			c0-0.413-0.082-0.812-0.229-1.188c-0.156-0.377-0.385-0.694-0.693-0.959c-0.311-0.266-0.693-0.48-1.158-0.628
			c-0.459-0.154-0.996-0.229-1.617-0.229c-0.795,0-1.52,0.096-2.184,0.295c-0.664,0.192-1.246,0.406-1.748,0.649
			c-0.508,0.236-0.93,0.457-1.275,0.656c-0.348,0.2-0.598,0.303-0.76,0.303c-0.154,0-0.281-0.044-0.377-0.133
			c-0.096-0.081-0.17-0.221-0.213-0.405c-0.053-0.192-0.09-0.429-0.111-0.716c-0.021-0.288-0.029-0.642-0.029-1.055
			c0-0.377,0.008-0.693,0.014-0.944c0.016-0.251,0.045-0.457,0.082-0.627c0.037-0.163,0.074-0.295,0.125-0.398
			c0.053-0.104,0.148-0.222,0.295-0.369c0.141-0.14,0.436-0.324,0.885-0.539c0.451-0.214,0.961-0.412,1.535-0.582
			c0.576-0.177,1.195-0.311,1.859-0.413c0.664-0.104,1.328-0.147,1.984-0.147c1.283,0,2.5,0.162,3.645,0.494
			c1.143,0.332,2.139,0.833,2.98,1.505c0.848,0.664,1.52,1.513,2.014,2.522c0.494,1.019,0.746,2.199,0.746,3.534
			c0,1.173-0.17,2.169-0.518,3.01c-0.041,0.099-0.084,0.196-0.127,0.292h1.463c0.141,0,0.256,0.155,0.256,0.345v1.379
			c0,0.189-0.115,0.345-0.256,0.345H124.01c-0.141,0-0.258-0.155-0.258-0.345v-1.379C123.752,127.945,123.869,127.79,124.01,127.79
			L124.01,127.79z"/>

	</g>
</g>

</svg>
