<?xml version="1.0" encoding="iso-8859-1"?>
<!-- Generator: Adobe Illustrator 12.0.0, SVG Export Plug-In . SVG Version: 6.00 Build 51448)  -->
<!DOCTYPE svg PUBLIC "-//W3C//DTD SVG 1.1//EN" "http://www.w3.org/Graphics/SVG/1.1/DTD/svg11.dtd" [
	<!ENTITY ns_svg "http://www.w3.org/2000/svg">
	<!ENTITY ns_xlink "http://www.w3.org/1999/xlink">
]>
<svg  version="1.1" id="Layer_1" xmlns="&ns_svg;" xmlns:xlink="&ns_xlink;" width="157.981" height="141.732"
	 viewBox="0 0 157.981 141.732" overflow="visible" enable-background="new 0 0 157.981 141.732" xml:space="preserve">
<g>
	<path fill-rule="evenodd" clip-rule="evenodd" d="M68.693,141.732l-0.004-7.28c-16.081-0.57-31.285-7.15-42.733-18.588
		C1.069,91.004,1.048,50.657,25.909,25.771c0.089-0.089,0.178-0.178,0.267-0.266l2.067-2.044l0.057,0.057
		c11.677-10.463,26.718-16.24,42.482-16.24c35.177,0,63.706,28.528,63.706,63.706v0.008l-0.008,3.042h-15.938l19.72,33.407
		l19.719-33.407h-16.227l0.011-3.056C141.763,31.783,109.978,0,70.783,0C51.908,0,34.121,7.254,20.761,20.628
		c-27.702,27.73-27.678,72.683,0.053,100.385C33.636,133.821,50.671,141.16,68.693,141.732L68.693,141.732z"/>
	<path fill-rule="evenodd" clip-rule="evenodd" d="M77.067,106.095c9.948,0,18.146-3.343,24.593-10.028l5.73,5.611
		c-3.741,4.059-8.238,7.123-13.49,9.192c-5.254,2.069-11.023,3.104-17.311,3.104c-6.924,0-13.331-1.333-19.221-3.999
		s-10.844-6.387-14.863-11.162c-4.02-4.775-6.785-10.267-8.297-16.475H20.361v-5.253h12.893c-0.239-1.831-0.358-3.701-0.358-5.611
		c0-1.989,0.119-3.86,0.358-5.61H20.361V60.61h13.848c1.512-6.208,4.278-11.7,8.297-16.476c4.019-4.774,8.973-8.496,14.863-11.162
		s12.296-3.999,19.221-3.999c6.287,0,12.057,1.034,17.311,3.104c2.638,1.039,5.085,2.318,7.342,3.84l-4.591,6.645
		c-5.565-3.806-12.093-5.71-19.584-5.71c-8.118,0-15.221,2.188-21.31,6.566C49.669,47.796,45.55,53.526,43.401,60.61h40.78
		l-3.629,5.253H42.088c-0.239,1.75-0.358,3.621-0.358,5.61c0,1.91,0.12,3.78,0.358,5.611h30.711l-3.629,5.253H43.401
		c2.149,7.083,6.268,12.813,12.356,17.19C61.846,103.906,68.949,106.095,77.067,106.095L77.067,106.095z"/>
</g>
</svg>
