<?xml version="1.0" encoding="iso-8859-1"?>
<!-- Generator: Adobe Illustrator 12.0.0, SVG Export Plug-In . SVG Version: 6.00 Build 51448)  -->
<!DOCTYPE svg PUBLIC "-//W3C//DTD SVG 1.1//EN" "http://www.w3.org/Graphics/SVG/1.1/DTD/svg11.dtd" [
	<!ENTITY ns_svg "http://www.w3.org/2000/svg">
	<!ENTITY ns_xlink "http://www.w3.org/1999/xlink">
]>
<svg  version="1.1" id="Layer_1" xmlns="&ns_svg;" xmlns:xlink="&ns_xlink;" width="157.981" height="141.732"
	 viewBox="0 0 157.981 141.732" overflow="visible" enable-background="new 0 0 157.981 141.732" xml:space="preserve">
<g>
	<path fill-rule="evenodd" clip-rule="evenodd" d="M68.693,141.732l-0.004-7.28c-16.081-0.57-31.285-7.15-42.733-18.588
		C1.069,91.004,1.048,50.657,25.909,25.771c0.089-0.089,0.178-0.178,0.267-0.266l2.067-2.044l0.057,0.057
		c11.677-10.463,26.718-16.24,42.482-16.24c35.177,0,63.707,28.528,63.707,63.706v0.008l-0.01,3.042h-15.937l19.72,33.407
		l19.719-33.407h-16.227l0.011-3.056C141.763,31.783,109.978,0,70.783,0C51.908,0,34.121,7.254,20.761,20.628
		c-27.702,27.73-27.678,72.683,0.053,100.385C33.636,133.821,50.671,141.16,68.693,141.732L68.693,141.732z"/>
	<path fill-rule="evenodd" clip-rule="evenodd" d="M62.016,36.778c-2.548,0.7-4.693,1.716-6.436,3.046
		c-3.683,2.812-5.525,6.436-5.525,10.871c0,3.327,1.01,6,3.03,8.021c2.02,2.02,4.555,3.564,7.604,4.634
		c0.422,0.147,0.864,0.298,1.327,0.449V36.778L62.016,36.778z M71.813,35.606c-2.067,0.009-3.988,0.131-5.763,0.368v29.053
		c1.733,0.494,3.654,1.006,5.763,1.535V35.606L71.813,35.606z M75.847,104.937c4.716-0.536,8.437-1.805,11.16-3.804
		c3.723-2.732,5.584-6.277,5.584-10.634c0-3.327-1.01-5.98-3.029-7.961c-2.021-1.98-4.496-3.505-7.426-4.574
		c-1.707-0.623-3.804-1.279-6.289-1.969V104.937L75.847,104.937z M66.05,105.034c1.39,0.132,2.792,0.197,4.204,0.197
		c0.529,0,1.048-0.007,1.559-0.021V74.932c-0.62-0.156-1.259-0.313-1.915-0.473c-1.341-0.34-2.624-0.677-3.848-1.011V105.034
		L66.05,105.034z M70.254,112.717c-1.415,0-2.816-0.052-4.204-0.155v6.46h-4.034v-6.914c-3.252-0.49-6.427-1.277-9.525-2.36
		c-5.664-1.98-10.04-4.595-13.129-7.842l3.446-6.772c3.01,3.01,7.01,5.445,12,7.307c2.367,0.883,4.77,1.557,7.208,2.021V72.295
		c-2.728-0.82-5.091-1.624-7.089-2.411c-3.723-1.465-6.911-3.702-9.565-6.713c-2.653-3.01-3.98-7.089-3.98-12.237
		c0-4.198,1.108-8.021,3.327-11.466c2.218-3.446,5.624-6.198,10.218-8.258c2.125-0.953,4.489-1.686,7.089-2.197v-7.961h4.034v7.363
		c1.823-0.189,3.744-0.287,5.763-0.294v-7.069h4.034v7.211c3.436,0.257,6.82,0.862,10.15,1.818
		c4.555,1.307,8.495,3.109,11.822,5.406l-2.971,7.01c-3.485-2.297-7.209-4.02-11.169-5.168c-2.646-0.768-5.257-1.278-7.833-1.533
		v31.785c4.799,1.257,8.777,2.5,11.932,3.729c3.764,1.465,6.951,3.683,9.564,6.653c2.615,2.971,3.922,6.99,3.922,12.06
		c0,4.198-1.129,8.021-3.387,11.466s-5.723,6.178-10.396,8.198c-3.334,1.441-7.212,2.368-11.635,2.78v6.554h-4.034v-6.322
		C71.299,112.711,70.78,112.717,70.254,112.717L70.254,112.717z"/>
</g>
</svg>
