<?xml version="1.0" encoding="utf-8"?>
<!DOCTYPE svg PUBLIC "-//W3C//DTD SVG 1.1//EN" "http://www.w3.org/Graphics/SVG/1.1/DTD/svg11.dtd">
<svg version="1.1" xmlns="http://www.w3.org/2000/svg" xmlns:xlink="http://www.w3.org/1999/xlink" x="0px" y="0px" width="216px"
	 height="216px" viewBox="0 0 216 216" enable-background="new 0 0 216 216" xml:space="preserve">

<g id="exh-e-v">

		<path fill-rule="evenodd" clip-rule="evenodd" d="M91.623,129.556c-23.906,0-43.294-19.39-43.294-43.296
			s19.389-43.295,43.294-43.295c23.907,0,43.296,19.389,43.296,43.295S115.53,129.556,91.623,129.556L91.623,129.556z
			 M91.055,118.959c17.922,0,32.451-14.531,32.451-32.453c0-17.922-14.528-32.453-32.451-32.453
			c-17.923,0-32.453,14.531-32.453,32.453C58.603,104.428,73.132,118.959,91.055,118.959L91.055,118.959z M105.449,104.655
			c0,1.141-0.105,2.04-0.319,2.702c-0.197,0.662-0.489,1.166-0.848,1.522c-0.356,0.37-0.886,0.741-1.573,1.112
			c-0.689,0.372-1.523,0.729-2.517,1.048c-0.993,0.316-2.132,0.582-3.417,0.792c-1.284,0.213-2.701,0.318-4.25,0.318
			c-2.926,0-5.509-0.384-7.759-1.125c-2.251-0.754-4.171-1.842-5.773-3.244c-1.602-1.417-2.912-3.139-3.905-5.203
			c-0.993-2.051-1.709-4.383-2.144-6.992h-3.734c-0.384,0-0.689-0.251-0.927-0.767c-0.226-0.503-0.345-1.351-0.345-2.528
			c0-0.597,0.014-1.099,0.054-1.524c0.04-0.409,0.105-0.741,0.199-0.98c0.092-0.251,0.198-0.436,0.344-0.542
			c0.145-0.119,0.317-0.184,0.528-0.184h3.444c0-0.385,0-0.795-0.014-1.219c-0.014-0.424-0.014-0.847-0.014-1.258
			c0-0.517,0-1.034,0.014-1.536c0.014-0.503,0.014-0.993,0.014-1.456h-3.444c-0.396,0-0.674-0.24-0.86-0.716
			c-0.171-0.477-0.265-1.325-0.265-2.542c0-0.622,0.028-1.139,0.094-1.549c0.065-0.41,0.159-0.741,0.276-0.992
			c0.106-0.24,0.253-0.412,0.399-0.519c0.158-0.104,0.329-0.158,0.502-0.158h3.998c0.516-2.476,1.271-4.752,2.277-6.804
			c0.994-2.053,2.264-3.828,3.84-5.322c1.562-1.485,3.429-2.636,5.613-3.444c2.186-0.821,4.74-1.231,7.666-1.231
			c1.35,0,2.647,0.106,3.893,0.292c1.257,0.199,2.396,0.45,3.403,0.767c1.006,0.305,1.84,0.623,2.501,0.939
			c0.664,0.331,1.125,0.609,1.417,0.835c0.278,0.237,0.49,0.478,0.623,0.729c0.119,0.238,0.225,0.542,0.305,0.901
			c0.079,0.37,0.145,0.819,0.198,1.377c0.054,0.555,0.079,1.244,0.079,2.037c0,0.704-0.025,1.272-0.079,1.708
			c-0.053,0.437-0.146,0.794-0.251,1.072c-0.118,0.264-0.266,0.45-0.437,0.556c-0.159,0.107-0.344,0.16-0.555,0.16
			c-0.412,0-0.901-0.185-1.456-0.542c-0.558-0.372-1.247-0.755-2.053-1.191c-0.821-0.425-1.788-0.809-2.926-1.153
			c-1.139-0.357-2.475-0.53-3.997-0.53c-1.458,0-2.716,0.199-3.802,0.596c-1.084,0.412-2.024,0.995-2.82,1.775
			c-0.78,0.767-1.43,1.708-1.919,2.793c-0.491,1.086-0.861,2.304-1.127,3.681h10.632c0.186,0,0.357,0.054,0.53,0.158
			c0.16,0.106,0.304,0.279,0.396,0.519c0.107,0.251,0.199,0.582,0.252,0.992c0.066,0.411,0.105,0.928,0.105,1.549
			c0,1.217-0.118,2.065-0.358,2.542c-0.225,0.476-0.542,0.716-0.926,0.716H82.835c-0.028,0.423-0.054,0.833-0.067,1.257
			c-0.013,0.438-0.013,0.9-0.013,1.417c0,0.477,0,0.927,0.013,1.378c0.013,0.463,0.039,0.926,0.067,1.417h11.399
			c0.186,0,0.357,0.065,0.53,0.184c0.16,0.106,0.304,0.291,0.396,0.542c0.107,0.239,0.199,0.572,0.252,0.98
			c0.066,0.425,0.105,0.927,0.105,1.524c0,1.177-0.118,2.025-0.358,2.528c-0.225,0.516-0.542,0.767-0.926,0.767H83.563
			c0.211,1.311,0.555,2.504,1.059,3.549c0.49,1.046,1.138,1.933,1.946,2.648c0.821,0.729,1.815,1.284,2.993,1.668
			c1.177,0.396,2.582,0.583,4.209,0.583c1.523,0,2.847-0.173,3.973-0.544c1.125-0.357,2.104-0.754,2.927-1.204
			c0.833-0.437,1.521-0.834,2.078-1.191c0.555-0.372,1.02-0.543,1.378-0.543c0.211,0,0.396,0.04,0.568,0.145
			c0.159,0.106,0.305,0.304,0.423,0.609c0.119,0.292,0.199,0.702,0.252,1.232C105.422,103.068,105.449,103.783,105.449,104.655
			L105.449,104.655z M164.394,112.069l8.717,2.387c-2.727-8.317-5.453-16.635-8.181-24.953c-2.07-6.205-5.917-6.849-10.026-2.563
			l-19.594,17.164l8.716,2.388l-0.005,0.125c-9.169,20.444-27.481,36.187-50.249,41.487c-14.386,3.35-13.365,23.921,2.516,20.62
			c30.909-6.424,55.703-27.773,67.438-55.568C164.028,112.721,164.257,112.349,164.394,112.069L164.394,112.069z"/>

</g>

</svg>
