<?xml version="1.0" encoding="utf-8"?>
<!DOCTYPE svg PUBLIC "-//W3C//DTD SVG 1.1//EN" "http://www.w3.org/Graphics/SVG/1.1/DTD/svg11.dtd">
<svg version="1.1" xmlns="http://www.w3.org/2000/svg" xmlns:xlink="http://www.w3.org/1999/xlink" x="0px" y="0px" width="216px" height="216px" viewBox="0 0 216 216" enable-background="new 0 0 216 216" xml:space="preserve">

<g id="depo5">
	<g display="inline">
		<path fill-rule="evenodd" clip-rule="evenodd" stroke="#000000" stroke-width="0.5669" stroke-miterlimit="22.9256" d="
			M56.196,42.214h110.391c5.279,0,9.6,4.319,9.6,9.599v110.392c0,5.279-4.32,9.6-9.6,9.6H144.31l0.01-6.463h22.268
			c1.727,0,3.137-1.412,3.137-3.137V51.813c0-1.726-1.41-3.138-3.137-3.138H56.196c-1.727,0-3.139,1.412-3.139,3.138v110.392
			c0,1.725,1.412,3.137,3.139,3.137h62.668l0.006,6.463H56.196c-5.28,0-9.6-4.32-9.6-9.6V51.813
			C46.597,46.534,50.916,42.214,56.196,42.214L56.196,42.214z M73.548,62.045h76.828c1.656,0,3.012,1.408,3.012,3.13V73
			c0,1.723-1.355,3.13-3.012,3.13H73.548c-1.657,0-3.012-1.408-3.012-3.13v-7.824C70.536,63.453,71.891,62.045,73.548,62.045
			L73.548,62.045z M73.548,85.316h76.828c1.656,0,3.012,0.803,3.012,1.784v4.46c0,0.982-1.355,1.784-3.012,1.784H73.548
			c-1.657,0-3.012-0.802-3.012-1.784V87.1C70.536,86.119,71.891,85.316,73.548,85.316L73.548,85.316z M73.548,102.53h76.828
			c1.656,0,3.012,0.804,3.012,1.784v4.461c0,0.98-1.355,1.783-3.012,1.783H73.548c-1.657,0-3.012-0.803-3.012-1.783v-4.461
			C70.536,103.333,71.891,102.53,73.548,102.53L73.548,102.53z M73.548,118.18h45.129c-2.771,2.09-5.02,4.852-6.535,8.027H73.548
			c-1.657,0-3.012-0.803-3.012-1.783v-4.461C70.536,118.982,71.891,118.18,73.548,118.18L73.548,118.18z M143.702,118.18h6.674
			c1.656,0,3.012,0.803,3.012,1.783v4.461c0,0.98-1.355,1.783-3.012,1.783h-0.137C148.722,123.031,146.474,120.27,143.702,118.18
			L143.702,118.18z M131.19,119.008c8.943,0,16.197,7.523,16.197,16.799c0,5.994-3.029,11.256-7.586,14.229l-0.059,38.041
			l-8.135-7.109l-8.186,7.051v-37.467c-5.023-2.852-8.432-8.387-8.432-14.744C114.991,126.531,122.245,119.008,131.19,119.008
			L131.19,119.008z M131.19,124.51c5.906,0,10.695,5.059,10.695,11.297s-4.789,11.297-10.695,11.297
			c-5.908,0-10.697-5.059-10.697-11.297S125.282,124.51,131.19,124.51L131.19,124.51z"/>
	</g>
</g>

</svg>
