<?xml version="1.0" encoding="utf-8"?>
<!DOCTYPE svg PUBLIC "-//W3C//DTD SVG 1.1//EN" "http://www.w3.org/Graphics/SVG/1.1/DTD/svg11.dtd">
<svg version="1.1" xmlns="http://www.w3.org/2000/svg" xmlns:xlink="http://www.w3.org/1999/xlink" x="0px" y="0px" width="216px"
	 height="216px" viewBox="0 0 216 216" enable-background="new 0 0 216 216" xml:space="preserve">

<g id="exh-s-v">

		<path fill-rule="evenodd" clip-rule="evenodd" d="M90.833,127.977c-23.472,0-42.505-19.036-42.505-42.506
			s19.033-42.505,42.505-42.505c23.47,0,42.506,19.035,42.506,42.505S114.304,127.977,90.833,127.977L90.833,127.977z
			 M90.833,117.22c17.535,0,31.748-14.216,31.748-31.75c0-17.534-14.213-31.75-31.748-31.75c-17.534,0-31.749,14.215-31.749,31.75
			C59.085,103.004,73.3,117.22,90.833,117.22L90.833,117.22z M107.441,92.867c0.184,1.892-0.003,3.624-0.559,5.209
			c-0.545,1.571-1.416,2.979-2.591,4.186c-1.173,1.22-2.637,2.237-4.394,3.065c-1.747,0.816-3.715,1.413-5.894,1.791l-0.039,7.127
			c-0.006,0.182-0.04,0.334-0.108,0.475c-0.069,0.144-0.198,0.267-0.414,0.368c-0.216,0.108-0.5,0.214-0.872,0.292
			c-0.373,0.093-0.85,0.167-1.426,0.219c-0.729,0.066-1.332,0.087-1.783,0.061c-0.454-0.029-0.816-0.087-1.076-0.189
			c-0.258-0.101-0.451-0.244-0.539-0.428c-0.101-0.196-0.147-0.421-0.125-0.659l0.074-6.768c-1-0.046-1.944-0.132-2.846-0.256
			c-0.891-0.136-1.699-0.29-2.441-0.486c-0.729-0.184-1.378-0.388-1.921-0.612c-0.531-0.213-0.956-0.437-1.238-0.662
			c-0.296-0.234-0.521-0.589-0.675-1.075c-0.167-0.485-0.296-1.211-0.392-2.181c-0.071-0.743-0.108-1.365-0.108-1.853
			c0-0.49,0.033-0.868,0.123-1.147c0.094-0.271,0.216-0.463,0.383-0.58c0.166-0.118,0.361-0.179,0.585-0.201
			c0.305-0.027,0.756,0.102,1.353,0.379c0.607,0.275,1.383,0.569,2.314,0.894c0.933,0.314,2.05,0.578,3.363,0.79
			c1.301,0.224,2.822,0.247,4.537,0.093c2.691-0.241,4.642-0.894,5.854-1.969c1.211-1.074,1.744-2.406,1.588-3.993
			c-0.102-1.047-0.469-1.901-1.099-2.526c-0.632-0.637-1.442-1.167-2.434-1.6c-0.989-0.435-2.092-0.802-3.319-1.1
			c-1.214-0.3-2.467-0.619-3.759-0.98c-1.279-0.352-2.541-0.772-3.788-1.286c-1.247-0.513-2.379-1.172-3.407-1.99
			c-1.028-0.816-1.887-1.841-2.577-3.085c-0.69-1.233-1.124-2.763-1.302-4.587c-0.161-1.656-0.014-3.181,0.429-4.584
			c0.434-1.402,1.151-2.66,2.134-3.771c0.969-1.109,2.218-2.051,3.732-2.811c1.513-0.773,3.257-1.361,5.233-1.755l0.035-6.695
			c0.006-0.183,0.039-0.333,0.109-0.465c0.071-0.12,0.213-0.246,0.414-0.366c0.214-0.121,0.501-0.216,0.86-0.294
			c0.361-0.077,0.841-0.143,1.439-0.197c0.716-0.064,1.307-0.083,1.783-0.057c0.478,0.025,0.851,0.083,1.11,0.184
			c0.27,0.101,0.438,0.246,0.527,0.43c0.091,0.196,0.148,0.418,0.172,0.655l-0.072,6.302c0.644,0.033,1.336,0.084,2.058,0.179
			c0.731,0.092,1.417,0.213,2.048,0.36c0.644,0.159,1.23,0.322,1.758,0.512c0.526,0.181,0.9,0.363,1.107,0.538
			c0.216,0.162,0.377,0.341,0.5,0.51c0.124,0.183,0.229,0.401,0.316,0.677c0.083,0.266,0.152,0.6,0.213,0.981
			c0.062,0.38,0.117,0.819,0.165,1.326c0.067,0.687,0.11,1.251,0.119,1.695c0.006,0.441-0.031,0.786-0.102,1.019
			c-0.061,0.244-0.153,0.401-0.262,0.489c-0.109,0.09-0.235,0.135-0.401,0.15c-0.293,0.026-0.752-0.069-1.345-0.312
			c-0.603-0.229-1.339-0.47-2.217-0.733c-0.866-0.25-1.86-0.468-2.981-0.664c-1.11-0.184-2.322-0.223-3.639-0.104
			c-1.187,0.106-2.198,0.311-3.035,0.602c-0.825,0.3-1.476,0.666-1.964,1.119c-0.491,0.442-0.833,0.95-1.038,1.524
			c-0.194,0.563-0.263,1.183-0.199,1.848c0.1,1.024,0.469,1.878,1.113,2.524c0.646,0.658,1.467,1.187,2.468,1.607
			c1.002,0.421,2.129,0.787,3.368,1.096c1.25,0.308,2.516,0.638,3.817,0.987c1.292,0.35,2.579,0.779,3.837,1.28
			c1.269,0.489,2.412,1.147,3.438,1.953c1.026,0.805,1.897,1.818,2.596,3.028C106.823,89.582,107.265,91.076,107.441,92.867
			L107.441,92.867z M165.356,110.423l8.82,2.417c-2.759-8.417-5.518-16.835-8.276-25.253c-2.097-6.278-5.989-6.931-10.146-2.593
			l-19.828,17.369l8.821,2.416l-0.007,0.125c-9.275,20.69-27.809,36.617-50.85,41.983c-14.557,3.39-13.523,24.205,2.547,20.867
			c31.28-6.501,56.369-28.106,68.243-56.233C164.986,111.084,165.218,110.708,165.356,110.423L165.356,110.423z"/>
	</g>
</svg>
