<?xml version="1.0" encoding="utf-8"?>
<!DOCTYPE svg PUBLIC "-//W3C//DTD SVG 1.1//EN" "http://www.w3.org/Graphics/SVG/1.1/DTD/svg11.dtd">
<svg version="1.1" id="Layer_1" xmlns="http://www.w3.org/2000/svg" xmlns:xlink="http://www.w3.org/1999/xlink" x="0px" y="0px"
	 width="216px" height="216px" viewBox="0 0 216 216" enable-background="new 0 0 216 216" xml:space="preserve">
<g>
	<path fill-rule="evenodd" clip-rule="evenodd" d="M106.548,135.635c0,0.352,0.107,0.458,0.458,0.458h47.774v-5.037h-48.233V135.635
		L106.548,135.635z M103.343,73.665c-0.775,0.519-2.332,0.901-3.333,1.399c-1.148,0.571-1.913,1.149-2.975,1.756
		c-1.468,0.838-3.918,3.198-4.927,4.537c-2.564,3.405-4.944,8.256-4.944,14.134c0,4.555,1.213,8.036,2.827,11.063
		c0.91,1.706,4.813,7.254,6.636,7.407c0.126-1.513,2.29-4.729,2.29-4.732c0-0.321-1.712-1.781-2.045-2.228
		c-0.667-0.896-1.3-1.541-1.862-2.564c-0.659-1.198-2.351-4.906-2.351-6.502v-4.579c0-1.398,1.418-4.59,1.923-5.709
		c0.774-1.717,2.062-3.229,3.304-4.48c1.945-1.958,6.764-4.922,10.494-4.922h3.664c1.667,0,5.635,1.68,6.744,2.414
		c1.033,0.682,1.73,1.085,2.633,1.946c0.516,0.493,1.855,2.064,2.375,2.203c0.286-0.788,3.511-3.408,3.511-3.815
		c0-0.852-3.805-3.808-4.67-4.335c-0.973-0.592-1.711-1.177-2.781-1.646c-0.84-0.367-2.631-0.943-3.232-1.346
		c-1.222,0-2.799-0.763-4.427-0.763h-4.426C106.091,72.902,104.642,73.665,103.343,73.665L103.343,73.665z M138.755,86.028
		c0,2.005,3.048,4.345,4.235,5.533c1.243,1.243,3.38,4.235,5.533,4.235c1.889,0,6.105-4.106,6.105-5.953v-0.763
		c0-1.355-3.31-4.149-4.236-5.075c-1.094-1.093-3.426-4.083-5.228-4.083h-0.152C142.867,79.923,138.755,83.956,138.755,86.028
		L138.755,86.028z M119.522,96.102c0,1.115-0.305,1.12-0.305,1.985v1.831c0,1.444,1.27,3.999,2.137,4.579c8.903,0,17.808,0,26.711,0
		c5.086,0,8.398-0.132,11.452,1.979c2.035,1.408,5.338,4.828,5.338,8.095c0.184,0.275,0.305,0.268,0.305,0.61v21.216
		c0.569-0.151,9.175-9.021,10.396-10.21c1.754-1.705,3.429-3.538,5.174-5.206c1.562-1.492,3.815-3.568,3.815-6.563v-2.289
		c0-0.343-0.121-0.335-0.306-0.61v-0.763c-0.684-1.022-0.808-1.834-1.72-2.859c-0.734-0.825-1.57-1.577-2.363-2.369
		c-1.614-1.614-3.117-3.117-4.731-4.732c-3.166-3.166-6.221-6.221-9.387-9.387s-6.222-6.22-9.388-9.387
		c-2.029-2.03-7.319-8.357-10.569-8.357h-3.205c-3.282,0-10.001,8.296-12.447,10.448c-1.888,1.66-3.938,3.904-5.734,5.712
		c-0.95,0.956-1.878,1.843-2.822,2.826C120.549,94.029,120.485,94.664,119.522,96.102L119.522,96.102z M102.886,114.876
		c0,0.746-0.444,1.374,0.305,1.374h54.795c0.413,0,0.421-0.073,0.764-0.152c-0.027-1.232-0.892-2.653-1.563-3.321
		c-0.549-0.547-2.284-1.868-3.169-1.868h-46.095c-1.306,0-2.32,0.691-3.096,1.33C103.491,113.338,103.718,113.634,102.886,114.876
		L102.886,114.876z M102.58,124.034v16.79c0,2.886,2.89,5.647,5.8,5.647h44.569c3.738,0,5.953-3.002,5.953-6.868V124.34
		c0-0.412-0.072-0.421-0.152-0.764h-55.711C102.687,123.576,102.58,123.683,102.58,124.034L102.58,124.034z M99.985,115.792v26.101
		c0,0.712,0.306,0.479,0.306,1.526c0.718,1.072,0.829,1.933,1.866,3.019c0.746,0.78,2.694,1.915,2.865,2.171
		c1.091,0,1.22,0.458,2.442,0.458h47.011c1.611,0,3.619-1.641,4.542-2.479c0.913-0.832,2.479-3.154,2.479-4.694V115.64
		c0-1.529-1.479-4.006-2.327-4.847c-0.985-0.977-3.009-2.48-4.847-2.48h-47.469c-1.454,0-3.862,1.662-4.639,2.535
		C101.182,112.011,99.985,113.705,99.985,115.792L99.985,115.792z"/>
	<path fill-rule="evenodd" clip-rule="evenodd" d="M52.928,124.285l1.288,1.253c0.466-0.227,1.733,0.795,2.63-0.128l0.627-0.645
		c1.494-1.536-0.997-3.855-2.524-5.32c-1.367-1.313-2.945-3.942-3.782-5.394c-1.927-3.343-3.369-7.379-3.898-10.748
		c-0.601-3.825-0.842-6.971-0.356-10.797c0.204-1.609,0.526-3.776,1.037-5.371c0.321-1.001,0.59-1.755,0.937-2.737
		c0.308-0.871,0.938-1.957,1.081-2.738l0.358-0.368c0.236-1.289,2.618-4.573,3.708-6.043c1.493-2.015,4.524-4.037,2.477-6.027
		c-0.918-0.893-1.507-0.535-2.37-0.692c-2.096,2.155-3.522,3.648-5.265,5.975c-1.429,1.908-2.343,4.214-3.358,6.129
		c-1.866,3.521-2.858,8.646-3.309,12.211c-0.546,4.31,0.09,7.906,0.693,12.155c0.24,1.692,1.148,4.411,1.792,6.057
		c0.404,1.034,0.806,1.917,1.282,2.978c0.35,0.778,1.463,2.485,1.586,3.064c0.449,0.437,2.035,2.843,2.549,3.595
		C50.469,121.219,53.159,123.719,52.928,124.285L52.928,124.285z M55.647,111.174c0.135,0.637,2.791,4.504,3.523,5.216l2.025,1.969
		c0.505,0.492,1.963,0.559,2.362,0.148l0.806-0.828c1.564-1.609-1.223-3.505-2.413-5.141c-1.569-2.159-2.125-3.081-3.178-5.129
		c-1.278-2.489-2.526-7.834-2.359-10.316c0.22-3.256,0.47-7.177,2.103-10.378c0.721-1.414,1.831-3.916,3.074-5.218
		c0.605-0.634,1.491-1.79,2.232-2.664c0.549-0.649,0.449-2.063-0.134-2.631l-0.553-0.537c-0.414-0.403-2.172-0.345-2.631,0.128
		L59.7,76.621c-4.744,4.879-7.433,12.517-7.711,17.356c-0.15,2.602-0.28,6.055,0.456,8.618
		C52.953,104.368,54.121,109.689,55.647,111.174L55.647,111.174z M69.732,112.156l0.716-0.736c0.621-0.639,0.23-1.432,0.288-1.965
		l-3.372-4.255c-0.112-0.527-0.973-2.089-1.221-2.797c-0.374-1.068-0.588-1.83-0.767-2.894c-0.291-1.73-0.247-3.935,0.084-5.721
		c0.39-2.101,0.907-3.645,2.261-5.751c0.237-0.368,0.355-0.851,0.827-1.373c0.404-0.447,1.096-1.023,1.433-1.473
		c0.552-0.737,0.669-2.22-0.035-2.904l-0.368-0.358c-2.573-2.501-6.151,4.254-7.101,6.092c-1.315,2.543-1.938,6.379-1.902,8.923
		c0.041,2.92,0.611,5.963,2.021,8.868C63.396,107.46,67.497,114.455,69.732,112.156L69.732,112.156z"/>
	<path fill-rule="evenodd" clip-rule="evenodd" d="M81.975,167.688h56.017c0.822-0.521,1.877-0.617,2.992-1.434
		c0.971-0.711,1.563-1.355,2.391-2.188c0.768-0.773,1.201-1.68,1.691-2.735c0.262-0.565,1.016-2.918,1.016-3.563v-5.037h-5.343
		v2.747c0,0.47-0.446,0.61-0.915,0.61H80.295c-0.526,0-0.591-0.112-1.068-0.151V62.981c0-0.352,0.106-0.458,0.458-0.458h60.596
		c0.352,0,0.457,0.106,0.457,0.458v6.563l0.602-0.076l3.673-0.382c0.513-0.066,0.525,0.107,1.068,0.153v-7.937
		c0-2.557-1.912-5.969-3.242-7.29c-1.104-1.097-1.591-1.413-2.985-2.204c-0.605-0.345-3.225-1.343-3.999-1.343H84.111
		c-2.264,0-5.991,2.23-7.023,3.508c-1.386,1.713-3.203,4.25-3.203,7.329v96.16c0,2.099,1.412,5.152,2.403,6.296
		c0.71,0.818,1.283,1.475,2.148,2.126c0.984,0.74,1.845,1.028,2.777,1.631L81.975,167.688L81.975,167.688z"/>
</g>

</svg>
