<?xml version="1.0" encoding="utf-8"?>
<!DOCTYPE svg PUBLIC "-//W3C//DTD SVG 1.1//EN" "http://www.w3.org/Graphics/SVG/1.1/DTD/svg11.dtd">
<svg version="1.1" xmlns="http://www.w3.org/2000/svg" xmlns:xlink="http://www.w3.org/1999/xlink" x="0px" y="0px" width="216px" height="216px" viewBox="0 0 216 216" enable-background="new 0 0 216 216" xml:space="preserve">
<g>
		<path fill-rule="evenodd" clip-rule="evenodd" d="M76.022,168.709c-15.464,0-28.004-12.541-28.004-28.004
			c0-15.465,12.541-28.006,28.004-28.006s28.005,12.541,28.005,28.006C104.027,156.168,91.486,168.709,76.022,168.709
			L76.022,168.709z M76.022,161.623c11.552,0,20.918-9.367,20.918-20.918c0-11.553-9.366-20.918-20.918-20.918
			s-20.918,9.365-20.918,20.918C55.104,152.256,64.47,161.623,76.022,161.623L76.022,161.623z"/>
		<path fill-rule="evenodd" clip-rule="evenodd" d="M140.084,103.616c-15.409,0-27.906-12.497-27.906-27.907
			s12.497-27.907,27.906-27.907c15.41,0,27.907,12.497,27.907,27.907S155.494,103.616,140.084,103.616L140.084,103.616z
			 M139.718,96.786c11.552,0,20.918-9.366,20.918-20.918S151.27,54.95,139.718,54.95c-11.553,0-20.918,9.366-20.918,20.918
			S128.165,96.786,139.718,96.786L139.718,96.786z"/>
		<path d="M86.964,145.578c0.122,1.246-0.001,2.389-0.368,3.432c-0.359,1.035-0.933,1.963-1.707,2.758
			c-0.772,0.803-1.738,1.475-2.896,2.02c-1.15,0.537-2.447,0.93-3.884,1.18l-0.025,4.695c-0.004,0.121-0.025,0.221-0.071,0.314
			c-0.046,0.094-0.131,0.176-0.273,0.24c-0.141,0.074-0.33,0.143-0.574,0.195c-0.244,0.059-0.56,0.109-0.939,0.143
			c-0.48,0.043-0.877,0.057-1.176,0.039c-0.298-0.018-0.537-0.057-0.707-0.125c-0.17-0.066-0.297-0.16-0.355-0.281
			c-0.067-0.129-0.097-0.275-0.082-0.434l0.049-4.459c-0.659-0.031-1.282-0.088-1.875-0.17c-0.587-0.088-1.12-0.191-1.609-0.318
			c-0.48-0.123-0.908-0.256-1.266-0.404c-0.35-0.141-0.629-0.287-0.816-0.436c-0.194-0.154-0.342-0.389-0.444-0.709
			c-0.109-0.318-0.195-0.797-0.257-1.436c-0.048-0.49-0.073-0.9-0.073-1.223c0-0.32,0.022-0.57,0.083-0.756
			c0.061-0.178,0.142-0.305,0.251-0.381c0.11-0.078,0.239-0.119,0.385-0.133c0.202-0.018,0.499,0.068,0.892,0.25
			c0.4,0.182,0.911,0.375,1.525,0.59c0.614,0.207,1.35,0.379,2.215,0.52c0.858,0.146,1.859,0.162,2.99,0.061
			c1.772-0.158,3.059-0.588,3.856-1.297c0.797-0.707,1.149-1.584,1.047-2.631c-0.067-0.691-0.31-1.254-0.725-1.664
			c-0.416-0.42-0.95-0.77-1.603-1.055c-0.652-0.285-1.379-0.527-2.188-0.725c-0.8-0.197-1.625-0.408-2.476-0.646
			c-0.843-0.23-1.674-0.508-2.496-0.846s-1.567-0.773-2.245-1.311c-0.677-0.539-1.243-1.215-1.698-2.035
			c-0.455-0.813-0.74-1.818-0.857-3.021c-0.107-1.09-0.01-2.096,0.282-3.02c0.285-0.924,0.759-1.752,1.406-2.484
			c0.639-0.73,1.461-1.352,2.458-1.854c0.998-0.508,2.146-0.896,3.449-1.154l0.022-4.412c0.003-0.119,0.025-0.219,0.072-0.305
			c0.046-0.08,0.14-0.164,0.273-0.242c0.141-0.08,0.33-0.143,0.567-0.193c0.237-0.051,0.553-0.094,0.948-0.131
			c0.472-0.041,0.862-0.055,1.176-0.037s0.56,0.055,0.73,0.121c0.178,0.066,0.289,0.162,0.348,0.283
			c0.059,0.129,0.097,0.275,0.112,0.432l-0.047,4.152c0.424,0.021,0.88,0.055,1.355,0.117c0.483,0.063,0.936,0.141,1.351,0.238
			c0.424,0.104,0.81,0.211,1.158,0.338c0.347,0.119,0.593,0.238,0.729,0.354c0.144,0.107,0.249,0.225,0.33,0.338
			c0.082,0.119,0.151,0.264,0.208,0.445c0.056,0.174,0.101,0.395,0.141,0.646c0.04,0.25,0.076,0.539,0.109,0.873
			c0.044,0.453,0.073,0.824,0.078,1.115c0.005,0.293-0.02,0.52-0.067,0.674c-0.039,0.16-0.1,0.264-0.172,0.322
			s-0.155,0.088-0.264,0.098c-0.194,0.018-0.497-0.045-0.887-0.205c-0.397-0.15-0.882-0.311-1.461-0.482
			c-0.571-0.166-1.225-0.309-1.964-0.438c-0.73-0.121-1.529-0.146-2.397-0.07c-0.782,0.07-1.448,0.205-2,0.398
			c-0.543,0.197-0.972,0.438-1.294,0.736c-0.323,0.291-0.548,0.625-0.683,1.004c-0.128,0.371-0.174,0.779-0.131,1.219
			c0.066,0.674,0.308,1.236,0.732,1.662c0.425,0.434,0.967,0.783,1.627,1.061c0.659,0.277,1.401,0.518,2.218,0.721
			c0.824,0.203,1.658,0.42,2.516,0.65c0.851,0.23,1.698,0.514,2.527,0.844c0.835,0.322,1.588,0.756,2.265,1.287
			c0.677,0.529,1.25,1.197,1.71,1.994C86.558,143.414,86.849,144.398,86.964,145.578L86.964,145.578z"/>
		<path d="M148.995,87.568c0,0.734-0.068,1.314-0.205,1.741c-0.128,0.427-0.315,0.751-0.546,0.981
			c-0.23,0.239-0.571,0.478-1.016,0.717c-0.443,0.239-0.981,0.469-1.621,0.674c-0.64,0.205-1.374,0.375-2.202,0.512
			c-0.827,0.137-1.741,0.205-2.739,0.205c-1.886,0-3.55-0.248-5.001-0.726c-1.451-0.486-2.688-1.186-3.721-2.091
			c-1.033-0.913-1.878-2.022-2.518-3.354c-0.641-1.322-1.102-2.825-1.383-4.506h-2.406c-0.248,0-0.444-0.162-0.598-0.495
			c-0.146-0.325-0.222-0.871-0.222-1.63c0-0.385,0.009-0.708,0.034-0.982c0.025-0.265,0.068-0.478,0.128-0.631
			c0.06-0.162,0.128-0.282,0.222-0.35c0.094-0.077,0.205-0.119,0.342-0.119h2.219c0-0.248,0-0.512-0.009-0.785
			c-0.009-0.273-0.009-0.546-0.009-0.811c0-0.333,0-0.666,0.009-0.99s0.009-0.64,0.009-0.939h-2.219
			c-0.257,0-0.436-0.154-0.556-0.46c-0.11-0.308-0.17-0.854-0.17-1.639c0-0.4,0.017-0.734,0.06-0.998
			c0.043-0.265,0.103-0.478,0.179-0.64c0.068-0.154,0.163-0.265,0.257-0.333c0.103-0.068,0.213-0.102,0.324-0.102h2.577
			c0.333-1.596,0.819-3.064,1.468-4.387c0.64-1.323,1.459-2.466,2.475-3.431c1.007-0.956,2.211-1.699,3.619-2.219
			c1.408-0.529,3.055-0.794,4.941-0.794c0.87,0,1.706,0.068,2.509,0.188c0.811,0.128,1.544,0.29,2.193,0.495
			c0.648,0.196,1.186,0.401,1.612,0.606c0.427,0.213,0.726,0.393,0.913,0.538c0.18,0.153,0.316,0.307,0.401,0.469
			c0.076,0.153,0.146,0.35,0.196,0.581c0.052,0.239,0.094,0.529,0.128,0.887s0.051,0.802,0.051,1.314
			c0,0.452-0.017,0.819-0.051,1.101s-0.094,0.512-0.162,0.691c-0.077,0.17-0.171,0.29-0.281,0.358
			c-0.103,0.068-0.223,0.103-0.358,0.103c-0.265,0-0.58-0.12-0.939-0.35c-0.358-0.239-0.802-0.486-1.322-0.768
			c-0.529-0.273-1.152-0.521-1.886-0.742c-0.734-0.23-1.597-0.342-2.578-0.342c-0.938,0-1.749,0.128-2.449,0.384
			c-0.699,0.265-1.306,0.64-1.817,1.144c-0.503,0.495-0.922,1.101-1.237,1.801s-0.555,1.485-0.726,2.373h6.853
			c0.12,0,0.23,0.034,0.342,0.102c0.103,0.068,0.196,0.179,0.256,0.333c0.068,0.162,0.128,0.375,0.162,0.64
			c0.043,0.264,0.068,0.598,0.068,0.998c0,0.786-0.077,1.332-0.23,1.639c-0.146,0.307-0.35,0.46-0.598,0.46h-7.348
			c-0.017,0.273-0.034,0.538-0.043,0.811c-0.008,0.282-0.008,0.58-0.008,0.913c0,0.307,0,0.597,0.008,0.887
			c0.009,0.299,0.026,0.598,0.043,0.914h7.348c0.12,0,0.23,0.042,0.342,0.119c0.103,0.068,0.196,0.188,0.256,0.35
			c0.068,0.154,0.128,0.367,0.162,0.631c0.043,0.273,0.068,0.597,0.068,0.982c0,0.759-0.077,1.305-0.23,1.63
			c-0.146,0.333-0.35,0.495-0.598,0.495h-6.878c0.137,0.845,0.358,1.613,0.683,2.288c0.315,0.674,0.734,1.246,1.254,1.707
			c0.529,0.469,1.17,0.828,1.93,1.075c0.759,0.256,1.664,0.375,2.713,0.375c0.981,0,1.835-0.111,2.561-0.35
			c0.726-0.23,1.357-0.486,1.887-0.776c0.537-0.281,0.98-0.538,1.339-0.768c0.358-0.239,0.657-0.35,0.889-0.35
			c0.136,0,0.256,0.026,0.366,0.094c0.103,0.068,0.196,0.196,0.273,0.393c0.076,0.188,0.128,0.452,0.162,0.793
			S148.995,87.004,148.995,87.568L148.995,87.568z"/>
		<path fill-rule="evenodd" clip-rule="evenodd" d="M108.083,129.762c-0.386,0-0.769-0.012-1.15-0.031
			c-3.389-9.541-11.07-17.051-20.721-20.203c-0.043-0.563-0.065-1.129-0.065-1.702c0-12.113,9.823-21.936,21.936-21.936
			c0.311,0,0.621,0.008,0.928,0.021c3.247,9.887,11.08,17.696,20.983,20.907c0.015,0.334,0.024,0.67,0.024,1.008
			C130.02,119.938,120.196,129.762,108.083,129.762L108.083,129.762z M101.652,112.063c0,1.111,0.207,2.088,0.62,2.932
			c0.413,0.836,0.977,1.541,1.686,2.098c0.709,0.564,1.535,0.982,2.484,1.268c0.949,0.285,1.965,0.424,3.042,0.424
			c0.73,0,1.412-0.055,2.037-0.178c0.625-0.117,1.178-0.262,1.658-0.43c0.479-0.174,0.882-0.346,1.205-0.537
			c0.318-0.184,0.553-0.346,0.692-0.49c0.146-0.139,0.245-0.346,0.302-0.609c0.062-0.268,0.089-0.652,0.089-1.154
			c0-0.342-0.011-0.621-0.027-0.85c-0.022-0.229-0.062-0.418-0.106-0.557c-0.05-0.141-0.117-0.24-0.201-0.303
			c-0.078-0.061-0.173-0.09-0.284-0.09c-0.151,0-0.369,0.09-0.648,0.27c-0.273,0.178-0.63,0.379-1.071,0.598
			c-0.436,0.217-0.954,0.418-1.558,0.596c-0.608,0.18-1.306,0.27-2.104,0.27c-0.524,0-0.993-0.063-1.406-0.186
			c-0.413-0.129-0.765-0.307-1.055-0.535c-0.285-0.229-0.508-0.508-0.659-0.85c-0.156-0.34-0.229-0.713-0.229-1.127
			c0-0.48,0.128-0.893,0.391-1.232c0.262-0.348,0.603-0.654,1.021-0.916c0.276-0.178,0.579-0.346,0.904-0.508h7.296
			c0.106,0,0.194-0.119,0.194-0.262v-1.043c0-0.144-0.088-0.261-0.194-0.261h-15.163c-0.107,0-0.194,0.118-0.194,0.261v1.043
			c0,0.145,0.088,0.262,0.194,0.262h1.429C101.765,110.568,101.652,111.268,101.652,112.063L101.652,112.063z M100.567,105.468
			h7.097l0.201-0.087c0.547-0.229,1.033-0.48,1.463-0.748c0.43-0.268,0.775-0.575,1.032-0.915c0.257-0.346,0.385-0.754,0.385-1.223
			c0-0.313-0.062-0.614-0.173-0.899c-0.117-0.285-0.29-0.524-0.524-0.726c-0.234-0.201-0.525-0.363-0.876-0.475
			c-0.347-0.117-0.754-0.173-1.223-0.173c-0.603,0-1.149,0.072-1.652,0.223c-0.502,0.145-0.943,0.307-1.323,0.491
			c-0.385,0.179-0.703,0.346-0.965,0.497c-0.263,0.15-0.452,0.229-0.575,0.229c-0.117,0-0.212-0.033-0.285-0.1
			c-0.073-0.062-0.128-0.167-0.162-0.307c-0.039-0.146-0.067-0.324-0.083-0.542c-0.017-0.218-0.022-0.486-0.022-0.798
			c0-0.285,0.005-0.525,0.011-0.714c0.011-0.19,0.033-0.346,0.062-0.475c0.028-0.123,0.056-0.223,0.095-0.301
			s0.111-0.167,0.223-0.279c0.106-0.106,0.33-0.246,0.67-0.407c0.341-0.162,0.726-0.313,1.161-0.441
			c0.436-0.134,0.904-0.234,1.407-0.313c0.502-0.078,1.005-0.111,1.501-0.111c0.971,0,1.892,0.123,2.757,0.374
			c0.865,0.251,1.619,0.631,2.255,1.139c0.643,0.502,1.15,1.145,1.524,1.909c0.374,0.771,0.563,1.664,0.563,2.674
			c0,0.887-0.128,1.641-0.391,2.277c-0.031,0.075-0.063,0.148-0.097,0.221h1.107c0.106,0,0.194,0.118,0.194,0.261v1.042
			c0,0.144-0.088,0.262-0.194,0.262h-15.163c-0.106,0-0.194-0.118-0.194-0.262v-1.042
			C100.373,105.586,100.46,105.468,100.567,105.468L100.567,105.468z"/>
		<path fill-rule="evenodd" clip-rule="evenodd" d="M53.5,83.46L48,81.683c1.501,5.394,3.003,10.787,4.504,16.181
			c1.144,4.023,3.583,4.547,6.333,1.927l13.016-10.399l-5.5-1.777l0.006-0.08c6.45-12.798,18.607-22.325,33.308-25.054
			c9.288-1.724,9.231-14.896-1.011-13.248C78.72,52.443,62.26,65.368,53.959,82.786C53.753,83.055,53.596,83.286,53.5,83.46
			L53.5,83.46z"/>
		<path fill-rule="evenodd" clip-rule="evenodd" d="M163.713,129.695l5.575,1.527c-1.744-5.32-3.487-10.641-5.231-15.961
			c-1.324-3.969-3.785-4.381-6.413-1.639L145.111,124.6l5.575,1.527l-0.003,0.08c-5.864,13.076-17.578,23.145-32.14,26.535
			c-9.2,2.143-8.547,15.299,1.609,13.188c19.771-4.107,35.628-17.764,43.133-35.541
			C163.479,130.111,163.626,129.875,163.713,129.695L163.713,129.695z"/>
	</g>

</svg>
