<?xml version="1.0" encoding="utf-8"?>
<!DOCTYPE svg PUBLIC "-//W3C//DTD SVG 1.1//EN" "http://www.w3.org/Graphics/SVG/1.1/DTD/svg11.dtd">
<svg version="1.1" xmlns="http://www.w3.org/2000/svg" xmlns:xlink="http://www.w3.org/1999/xlink" x="0px" y="0px" width="216px" height="216px" viewBox="0 0 216 216" enable-background="new 0 0 216 216" xml:space="preserve">

<g id="cred4">
	<g display="inline">
		<path fill-rule="evenodd" clip-rule="evenodd" d="M65.428,50.583h55.166c1.047,0,1.906,0.858,1.906,1.907v21.502h-8.555
			c-1.506-3.376-4.893-5.73-8.826-5.73c-3.936,0-7.32,2.354-8.826,5.73h-2.766l15.154-18.96c0.447-0.559,0.355-1.017-0.205-1.017
			h-4.738c-0.559,0-1.383,0.458-1.83,1.017L77.68,85.346c-0.447,0.56-0.355,1.017,0.203,1.017h4.739
			c0.212,0,0.462-0.066,0.716-0.178v4.056h-17.91c-1.049,0-1.906-0.857-1.906-1.906V52.489
			C63.522,51.44,64.379,50.583,65.428,50.583L65.428,50.583z M81.19,53.379c5.334,0,9.66,4.326,9.66,9.66
			c0,5.334-4.326,9.66-9.66,9.66s-9.66-4.326-9.66-9.66C71.53,57.705,75.856,53.379,81.19,53.379L81.19,53.379z M81.19,59.607
			c1.895,0,3.432,1.537,3.432,3.432c0,1.896-1.537,3.432-3.432,3.432c-1.896,0-3.432-1.537-3.432-3.432
			C77.758,61.144,79.294,59.607,81.19,59.607L81.19,59.607z M64.792,95.706h8.39c0.699,0,1.271,0.571,1.271,1.271v5.467
			c0,0.698-0.572,1.271-1.271,1.271h-8.39c-0.698,0-1.271-0.572-1.271-1.271v-5.467C63.522,96.277,64.094,95.706,64.792,95.706
			L64.792,95.706z M64.792,108.416h8.39c0.699,0,1.271,0.572,1.271,1.271v0.616c-3.879,0.032-7.164,2.599-8.279,6.12h-1.382
			c-0.698,0-1.271-0.571-1.271-1.271v-5.466C63.522,108.988,64.094,108.416,64.792,108.416L64.792,108.416z M64.792,121.127h0.976
			v8.008h-0.976c-0.698,0-1.271-0.572-1.271-1.271v-5.466C63.522,121.699,64.094,121.127,64.792,121.127L64.792,121.127z
			 M80.936,95.706h2.402v8.008h-2.402c-0.699,0-1.271-0.572-1.271-1.271v-5.467C79.665,96.277,80.237,95.706,80.936,95.706
			L80.936,95.706z M80.936,108.416h2.402v1.887h-3.674v-0.615C79.665,108.988,80.237,108.416,80.936,108.416L80.936,108.416z
			 M63.649,41.558h58.468c5.035,0,9.152,4.118,9.152,9.151v24.562c-1.311-0.812-2.854-1.28-4.504-1.28h-0.531V50.709
			c0-2.264-1.852-4.117-4.117-4.117H63.649c-2.265,0-4.117,1.853-4.117,4.117v79.952c0,2.264,1.853,4.117,4.117,4.117h2.119v5.034
			h-2.119c-5.033,0-9.152-4.118-9.152-9.151V50.709C54.497,45.676,58.616,41.558,63.649,41.558L63.649,41.558z M138.041,73.642
			h21.084c0.645,0,1.172,0.527,1.172,1.171V98.24h6.031c1.836,0,3.338,1.502,3.338,3.338v54.232c0,1.837-1.502,3.339-3.338,3.339
			h-9.547h-26.939h-4.686H88.844H74.526c-1.788,0-3.251-1.463-3.251-3.251v-36.838c0-1.788,1.463-3.251,3.251-3.251h14.318V82.573
			c0-1.691,1.384-3.075,3.076-3.075h34.846c1.691,0,3.076,1.383,3.076,3.075V98.24h7.027V74.813
			C136.869,74.168,137.396,73.642,138.041,73.642L138.041,73.642z M145.303,133.38h8.902c0.129,0,0.234,0.105,0.234,0.234v8.902
			c0,0.129-0.105,0.234-0.234,0.234h-8.902c-0.129,0-0.234-0.105-0.234-0.234v-8.902C145.068,133.485,145.174,133.38,145.303,133.38
			L145.303,133.38z M129.842,133.38h7.965c0.129,0,0.234,0.105,0.234,0.234v8.902c0,0.129-0.105,0.234-0.234,0.234h-7.965v7.789
			c0,0.87,0.711,1.581,1.58,1.581h28.465c0.869,0,1.58-0.711,1.58-1.581v-42.52c0-0.87-0.711-1.581-1.58-1.581h-28.465
			c-0.869,0-1.58,0.711-1.58,1.581v7.79h7.965c0.129,0,0.234,0.105,0.234,0.234v8.901c0,0.129-0.105,0.234-0.234,0.234h-7.965
			V133.38L129.842,133.38z M145.303,115.811h8.902c0.129,0,0.234,0.105,0.234,0.234v8.901c0,0.129-0.105,0.234-0.234,0.234h-8.902
			c-0.129,0-0.234-0.105-0.234-0.234v-8.901C145.068,115.916,145.174,115.811,145.303,115.811L145.303,115.811z M144.131,80.669
			h8.902c0.129,0,0.234,0.105,0.234,0.234v17.102c0,0.129-0.105,0.234-0.234,0.234h-8.902c-0.129,0-0.234-0.105-0.234-0.234V80.904
			C143.896,80.775,144.002,80.669,144.131,80.669L144.131,80.669z M79.708,141.578h8.901c0.13,0,0.234,0.105,0.234,0.234v8.902
			c0,0.129-0.104,0.234-0.234,0.234h-8.901c-0.129,0-0.233-0.105-0.233-0.234v-8.902C79.475,141.684,79.58,141.578,79.708,141.578
			L79.708,141.578z M112.506,141.578h8.902c0.129,0,0.234,0.105,0.234,0.234v8.902c0,0.129-0.105,0.234-0.234,0.234h-8.902
			c-0.129,0-0.234-0.105-0.234-0.234v-8.902C112.271,141.684,112.377,141.578,112.506,141.578L112.506,141.578z M96.107,141.578
			h8.902c0.129,0,0.234,0.105,0.234,0.234v8.902c0,0.129-0.105,0.234-0.234,0.234h-8.902c-0.129,0-0.234-0.105-0.234-0.234v-8.902
			C95.873,141.684,95.979,141.578,96.107,141.578L96.107,141.578z M112.506,88.869h8.902c0.129,0,0.234,0.105,0.234,0.234v8.902
			c0,0.129-0.105,0.234-0.234,0.234h-8.902c-0.129,0-0.234-0.105-0.234-0.234v-8.902C112.271,88.975,112.377,88.869,112.506,88.869
			L112.506,88.869z M96.107,88.869h8.902c0.129,0,0.234,0.105,0.234,0.234v8.902c0,0.129-0.105,0.234-0.234,0.234h-8.902
			c-0.129,0-0.234-0.105-0.234-0.234v-8.902C95.873,88.975,95.979,88.869,96.107,88.869L96.107,88.869z M112.506,106.439h8.902
			c0.129,0,0.234,0.105,0.234,0.234v8.901c0,0.129-0.105,0.234-0.234,0.234h-8.902c-0.129,0-0.234-0.105-0.234-0.234v-8.901
			C112.271,106.545,112.377,106.439,112.506,106.439L112.506,106.439z M96.107,106.439h8.902c0.129,0,0.234,0.105,0.234,0.234v8.901
			c0,0.129-0.105,0.234-0.234,0.234h-8.902c-0.129,0-0.234-0.105-0.234-0.234v-8.901C95.873,106.545,95.979,106.439,96.107,106.439
			L96.107,106.439z M112.506,124.009h8.902c0.129,0,0.234,0.105,0.234,0.234v8.901c0,0.129-0.105,0.234-0.234,0.234h-8.902
			c-0.129,0-0.234-0.105-0.234-0.234v-8.901C112.271,124.114,112.377,124.009,112.506,124.009L112.506,124.009z M96.107,124.009
			h8.902c0.129,0,0.234,0.105,0.234,0.234v8.901c0,0.129-0.105,0.234-0.234,0.234h-8.902c-0.129,0-0.234-0.105-0.234-0.234v-8.901
			C95.873,124.114,95.979,124.009,96.107,124.009L96.107,124.009z M79.078,124.009h8.901c0.129,0,0.234,0.105,0.234,0.234v8.901
			c0,0.129-0.105,0.234-0.234,0.234h-8.901c-0.129,0-0.234-0.105-0.234-0.234v-8.901C78.843,124.114,78.949,124.009,79.078,124.009
			L79.078,124.009z M89.313,168.52h70.515c0.258,0,0.469,0.211,0.469,0.469v8.434c0,0.258-0.211,0.469-0.469,0.469H89.313
			c-0.258,0-0.469-0.211-0.469-0.469v-8.434C88.844,168.73,89.055,168.52,89.313,168.52L89.313,168.52z"/>
	</g>
</g>
</svg>
