<?xml version="1.0" encoding="utf-8"?>
<!DOCTYPE svg PUBLIC "-//W3C//DTD SVG 1.1//EN" "http://www.w3.org/Graphics/SVG/1.1/DTD/svg11.dtd">
<svg version="1.1" xmlns="http://www.w3.org/2000/svg" xmlns:xlink="http://www.w3.org/1999/xlink" x="0px" y="0px" width="216px" height="216px" viewBox="0 0 216 216" enable-background="new 0 0 216 216" xml:space="preserve">

<g id="fond">
	<g display="inline">
		<path fill-rule="evenodd" clip-rule="evenodd" stroke="#000000" stroke-width="0.5669" stroke-miterlimit="22.9256" d="
			M109.19,105.608c-15.238,0-27.597-12.358-27.597-27.598s12.358-27.598,27.597-27.598c15.24,0,27.6,12.359,27.6,27.598
			S124.431,105.608,109.19,105.608L109.19,105.608z M95.85,79.784c5.032,4.35,8.188,10.359,8.952,17.361c3.826,0,6.045,0,9.873,0
			c1.191-6.465,4.475-12.988,9.168-17.604c0.766-1.531,0.766-3.063,0-4.593c-4.977-3.369-7.91-8.601-9.383-16.073
			c-3.572,0-6.18,0-9.751,0c-1.122,6.025-4.47,11.692-9.185,16.838C94.759,77.245,95.085,79.019,95.85,79.784L95.85,79.784z"/>
		<path fill-rule="evenodd" clip-rule="evenodd" stroke="#000000" stroke-width="0.5669" stroke-miterlimit="22.9256" d="
			M45.597,73.211c-0.801,16.399-1.6,32.798-2.4,49.196c9.199,11.599,18.398,23.198,27.598,34.797c0.801,2.8,2.813,5.518,2.4,8.399
			c-0.456,3.192-3.199,5.6-4.8,8.399c4.8,2.8,9.188,6.47,14.399,8.399c5.736,2.125,11.998,2.399,17.998,3.6l9.189-20.677
			l9.189,20.677c6-1.2,12.262-1.475,17.998-3.6c5.211-1.93,9.6-5.6,14.4-8.399c-1.6-2.8-4.344-5.207-4.801-8.399
			c-0.41-2.882,1.6-5.6,2.4-8.399c9.199-11.599,18.398-23.198,27.598-34.797c-0.799-16.398-1.6-32.797-2.4-49.196
			c-5.871,0-5.359,0.934-8.398,5.999c-0.4,2.801-0.801,5.6-1.199,8.4c-0.801,8.398-1.602,16.799-2.4,25.197
			c-8.799,8.399-17.6,16.799-26.398,25.198c-0.4-1.2-1.791-2.482-1.199-3.6c3.219-6.081,8.551-10.844,11.998-16.799
			c1.021-1.765,2.506-4.433,1.201-5.999c-1.559-1.869-5.336-2.764-7.199-1.2c-11.277,9.457-20,21.599-29.998,32.397
			c-0.287,0.572-0.549,1.144-0.791,1.716c-0.24-0.572-0.504-1.144-0.791-1.716c-9.998-10.799-18.721-22.94-29.996-32.397
			c-1.865-1.563-5.643-0.669-7.2,1.2c-1.306,1.566,0.179,4.234,1.2,5.999c3.447,5.955,8.779,10.718,11.999,16.799
			c0.591,1.117-0.8,2.399-1.2,3.6c-8.799-8.399-17.599-16.799-26.398-25.198c-0.799-8.398-1.6-16.799-2.398-25.197
			c-0.4-2.801-0.801-5.6-1.201-8.4C50.956,74.145,51.468,73.211,45.597,73.211L45.597,73.211z"/>

	</g>
</g>

</svg>
