<?xml version="1.0" encoding="utf-8"?>
<!DOCTYPE svg PUBLIC "-//W3C//DTD SVG 1.1//EN" "http://www.w3.org/Graphics/SVG/1.1/DTD/svg11.dtd">
<svg version="1.1" xmlns="http://www.w3.org/2000/svg" xmlns:xlink="http://www.w3.org/1999/xlink" x="0px" y="0px" width="216px" height="216px" viewBox="0 0 216 216" enable-background="new 0 0 216 216" xml:space="preserve">
    
<g>
    
	<path display="inline" fill-rule="evenodd" clip-rule="evenodd" d="M56.348,162.231
		c0,2.374,1.293,3.926,3.271,3.926h124.325c1.979,0,3.272-1.552,3.272-3.926c0-2.925-1.651-3.925-4.09-3.925H60.438
		C57.998,158.307,56.348,159.307,56.348,162.231L56.348,162.231z M56.348,147.016c0,2.374,1.293,3.926,3.271,3.926h124.325
		c1.979,0,3.272-1.552,3.272-3.926c0-2.925-1.651-3.925-4.09-3.925H60.438C57.998,143.091,56.348,144.091,56.348,147.016
		L56.348,147.016z M112.409,130.917c0,2.099,1.644,3.472,4.155,3.472h66.496c2.513,0,4.156-1.373,4.156-3.472
		c0-2.24-2.163-3.472-4.676-3.472h-65.456C114.572,127.445,112.409,128.677,112.409,130.917L112.409,130.917z M112.409,115.224
		c0,2.099,1.644,3.473,4.155,3.473h66.496c2.513,0,4.156-1.374,4.156-3.473c0-2.239-2.163-3.472-4.676-3.472h-64.937
		C114.506,111.752,112.409,112.638,112.409,115.224L112.409,115.224z M112.409,99.164c0,2.099,1.644,3.472,4.155,3.472h66.496
		c2.513,0,4.156-1.373,4.156-3.472c0-2.239-2.163-3.472-4.676-3.472h-65.456C114.572,95.692,112.409,96.925,112.409,99.164
		L112.409,99.164z"/>
 
</g>
</svg>
