<?xml version="1.0" encoding="utf-8"?>
<!DOCTYPE svg PUBLIC "-//W3C//DTD SVG 1.1//EN" "http://www.w3.org/Graphics/SVG/1.1/DTD/svg11.dtd">
<svg version="1.1" xmlns="http://www.w3.org/2000/svg" xmlns:xlink="http://www.w3.org/1999/xlink" x="0px" y="0px" width="216px" height="216px" viewBox="0 0 216 216" enable-background="new 0 0 216 216" xml:space="preserve">
    
<g>

	<path fill-rule="evenodd" clip-rule="evenodd" d="M168.452,183.344v14.51c0,1.869-1.529,3.398-3.399,3.398H50.737
		c-1.87,0-3.399-1.529-3.399-3.398v-14.51H168.452L168.452,183.344z M103.854,189.275h8.191c1.243,0,2.26,1.018,2.26,2.26v1.412
		c0,1.242-1.017,2.26-2.26,2.26h-8.191c-1.243,0-2.259-1.018-2.259-2.26v-1.412C101.595,190.293,102.611,189.275,103.854,189.275
		L103.854,189.275z M168.452,149.934v-1.178c2.641-0.641,5.134-2.016,7.145-4.117l4.604-4.813v19.982v38.045
		c0,8.332-6.816,15.146-15.147,15.146H50.737c-8.331,0-15.147-6.814-15.147-15.146v-58.969l5.186,5.174
		c1.883,1.877,4.157,3.133,6.562,3.766v27.611h121.115V149.934L168.452,149.934z M168.452,58.27V42.388H47.337v17.748l-1.984-1.979
		c-2.704-2.697-6.214-4.109-9.763-4.24v-35.34c0-8.331,6.816-15.147,15.147-15.147h114.316c8.331,0,15.147,6.816,15.147,15.147
		v27.971v6.559c-4.045-0.136-8.129,1.38-11.136,4.523L168.452,58.27L168.452,58.27z M47.337,34.479h121.115V18.577
		c0-1.87-1.529-3.399-3.399-3.399H50.737c-1.87,0-3.399,1.529-3.399,3.399V34.479L47.337,34.479z M96.293,20.941h22.878
		c1.554,0,2.824,1.271,2.824,2.825v0.847c0,1.554-1.271,2.824-2.824,2.824H96.293c-1.554,0-2.824-1.271-2.824-2.824v-0.847
		C93.469,22.212,94.74,20.941,96.293,20.941L96.293,20.941z"/>

</g>
</svg>
