<?xml version="1.0" encoding="iso-8859-1"?>
<!-- Generator: Adobe Illustrator 12.0.0, SVG Export Plug-In . SVG Version: 6.00 Build 51448)  -->
<!DOCTYPE svg PUBLIC "-//W3C//DTD SVG 1.1//EN" "http://www.w3.org/Graphics/SVG/1.1/DTD/svg11.dtd" [
	<!ENTITY ns_svg "http://www.w3.org/2000/svg">
	<!ENTITY ns_xlink "http://www.w3.org/1999/xlink">
]>
<svg  version="1.1" id="Layer_1" xmlns="&ns_svg;" xmlns:xlink="&ns_xlink;" width="99.439" height="117.932"
	 viewBox="0 0 99.439 117.932" overflow="visible" enable-background="new 0 0 99.439 117.932" xml:space="preserve">
<path fill-rule="evenodd" clip-rule="evenodd" d="M50.662,43.337c-11.965,0-21.669-9.704-21.669-21.668
	C28.993,9.703,38.696,0,50.662,0C62.626,0,72.33,9.703,72.33,21.668C72.33,33.633,62.626,43.337,50.662,43.337L50.662,43.337z
	 M40.572,27.376c0,1.604,0.298,3.015,0.895,4.232c0.596,1.209,1.411,2.225,2.435,3.031c1.023,0.814,2.217,1.419,3.587,1.83
	s2.837,0.613,4.394,0.613c1.056,0,2.039-0.081,2.941-0.258c0.903-0.169,1.701-0.379,2.395-0.621c0.693-0.25,1.273-0.5,1.741-0.774
	c0.46-0.266,0.798-0.5,1-0.709c0.209-0.202,0.354-0.5,0.436-0.879c0.088-0.387,0.129-0.943,0.129-1.669
	c0-0.491-0.017-0.895-0.041-1.225c-0.032-0.331-0.088-0.604-0.153-0.806c-0.072-0.201-0.169-0.347-0.29-0.436
	c-0.112-0.088-0.25-0.128-0.411-0.128c-0.218,0-0.532,0.128-0.935,0.387c-0.396,0.258-0.911,0.548-1.548,0.862
	c-0.629,0.314-1.379,0.605-2.249,0.863c-0.879,0.258-1.887,0.387-3.039,0.387c-0.758,0-1.435-0.088-2.031-0.266
	c-0.597-0.186-1.104-0.443-1.524-0.774c-0.411-0.331-0.733-0.734-0.951-1.226c-0.226-0.492-0.331-1.032-0.331-1.628
	c0-0.693,0.186-1.29,0.564-1.782c0.379-0.5,0.871-0.943,1.475-1.322c0.398-0.255,0.835-0.499,1.306-0.733h10.536
	c0.154,0,0.28-0.17,0.28-0.378v-1.505c0-0.208-0.126-0.377-0.28-0.377H39.006c-0.155,0-0.281,0.169-0.281,0.377v1.505
	c0,0.208,0.126,0.378,0.281,0.378h2.063C40.735,25.218,40.572,26.226,40.572,27.376L40.572,27.376z M39.006,17.853h10.248
	l0.291-0.125c0.79-0.331,1.491-0.693,2.111-1.08c0.621-0.387,1.121-0.831,1.491-1.322c0.371-0.5,0.557-1.088,0.557-1.766
	c0-0.451-0.089-0.887-0.25-1.297c-0.169-0.412-0.419-0.758-0.758-1.048c-0.338-0.29-0.758-0.524-1.266-0.685
	c-0.499-0.169-1.088-0.25-1.765-0.25c-0.871,0-1.661,0.104-2.386,0.322c-0.726,0.21-1.362,0.443-1.911,0.709
	c-0.556,0.258-1.016,0.5-1.395,0.718c-0.379,0.217-0.653,0.331-0.831,0.331c-0.169,0-0.306-0.049-0.411-0.146
	c-0.105-0.089-0.186-0.242-0.234-0.443c-0.057-0.209-0.097-0.468-0.121-0.782c-0.024-0.314-0.032-0.702-0.032-1.153
	c0-0.411,0.008-0.758,0.016-1.032c0.016-0.274,0.048-0.5,0.088-0.685c0.041-0.178,0.081-0.323,0.137-0.436
	c0.057-0.113,0.162-0.242,0.322-0.403c0.153-0.153,0.476-0.355,0.968-0.589c0.492-0.234,1.048-0.451,1.677-0.637
	c0.628-0.193,1.306-0.338,2.031-0.451s1.451-0.162,2.168-0.162c1.403,0,2.733,0.178,3.982,0.54c1.25,0.363,2.338,0.911,3.257,1.645
	c0.927,0.725,1.66,1.652,2.2,2.756c0.541,1.113,0.814,2.402,0.814,3.861c0,1.282-0.186,2.37-0.564,3.289
	c-0.044,0.108-0.091,0.214-0.14,0.319h1.6c0.154,0,0.28,0.17,0.28,0.377v1.505c0,0.208-0.126,0.378-0.28,0.378H39.006
	c-0.154,0-0.281-0.17-0.281-0.378V18.23C38.725,18.022,38.851,17.853,39.006,17.853L39.006,17.853z M31.075,54.347h15.538v15.537
	H31.075V54.347L31.075,54.347z M24.86,51.24v21.753c0,1.755,1.352,3.107,3.107,3.107h21.752c1.756,0,3.107-1.353,3.107-3.107V51.24
	c0-1.917-1.511-3.107-3.496-3.107H28.355C26.371,48.132,24.86,49.323,24.86,51.24L24.86,51.24z M15.343,105.502
	c4.036,0,3.301-3.853,3.301-7.77c0-3.625,0-7.251,0-10.876c0-7.251,0,1.831,0-5.42s0-14.502,0-21.753c0-3.625,0-7.25,0-10.876
	c0-3.713-0.684-7.769,3.108-7.769h12.791c-2.113-1.761-3.934-3.86-5.379-6.215h-7.024c-5.222,0-9.711,3.954-9.711,8.934v6.604H9.711
	C4.489,50.362,0,54.316,0,59.295v45.818c0,7.359,5.305,12.818,12.624,12.818h74.191c7.319,0,12.624-5.459,12.624-12.818V44.536
	c0-5.667-4.045-9.711-9.711-9.711h-17.57c-1.445,2.355-3.266,4.455-5.379,6.215h23.338c1.755,0,3.107,1.352,3.107,3.107v61.938
	c0,3.22-3.215,5.632-6.798,5.632H13.012c-3.56,0-6.797-2.417-6.797-5.632v-46.4c0-1.755,1.353-3.107,3.107-3.107h3.107v45.817
	C12.43,104.042,13.768,105.502,15.343,105.502L15.343,105.502z M62.355,52.492h21.787c1.616,0,2.939,1.322,2.939,2.939v0.519
	c0,1.617-1.323,2.939-2.939,2.939H62.355c-1.617,0-2.939-1.322-2.939-2.939v-0.519C59.416,53.814,60.738,52.492,62.355,52.492
	L62.355,52.492z M62.355,64.941h21.787c1.616,0,2.939,1.323,2.939,2.94V68.4c0,1.616-1.323,2.939-2.939,2.939H62.355
	c-1.617,0-2.939-1.323-2.939-2.939v-0.519C59.416,66.264,60.738,64.941,62.355,64.941L62.355,64.941z M27.772,96.584h21.787
	c1.617,0,2.939,1.322,2.939,2.939v0.519c0,1.617-1.322,2.939-2.939,2.939H27.772c-1.617,0-2.939-1.322-2.939-2.939v-0.519
	C24.833,97.907,26.155,96.584,27.772,96.584L27.772,96.584z M62.355,96.584h21.787c1.616,0,2.939,1.322,2.939,2.939v0.519
	c0,1.617-1.323,2.939-2.939,2.939H62.355c-1.617,0-2.939-1.322-2.939-2.939v-0.519C59.416,97.907,60.738,96.584,62.355,96.584
	L62.355,96.584z M84.488,82.924H27.253c-1.332,0-2.421,1.089-2.421,2.421v1.383c0,1.331,1.089,2.421,2.421,2.421h57.234
	c1.331,0,2.421-1.09,2.421-2.421v-1.383C86.909,84.013,85.819,82.924,84.488,82.924L84.488,82.924z"/>
</svg>
