<?xml version="1.0" encoding="utf-8"?>
<!DOCTYPE svg PUBLIC "-//W3C//DTD SVG 1.1//EN" "http://www.w3.org/Graphics/SVG/1.1/DTD/svg11.dtd">
<svg version="1.1" xmlns="http://www.w3.org/2000/svg" xmlns:xlink="http://www.w3.org/1999/xlink" x="0px" y="0px" width="216px" height="216px" viewBox="0 0 216 216" enable-background="new 0 0 216 216" xml:space="preserve">
    
<g>
 
    
	<path fill-rule="evenodd" clip-rule="evenodd" d="M90.165,142.883c0,3.027,0.563,5.691,1.689,7.988
		c1.125,2.281,2.663,4.199,4.595,5.721c1.933,1.537,4.184,2.678,6.771,3.453c2.586,0.775,5.355,1.156,8.292,1.156
		c1.993,0,3.85-0.152,5.554-0.486c1.704-0.32,3.21-0.715,4.519-1.172c1.309-0.471,2.404-0.943,3.287-1.461
		c0.867-0.502,1.506-0.943,1.887-1.338c0.396-0.381,0.669-0.943,0.821-1.658c0.167-0.73,0.243-1.781,0.243-3.15
		c0-0.928-0.03-1.689-0.076-2.313c-0.061-0.623-0.167-1.141-0.289-1.521c-0.137-0.381-0.319-0.654-0.548-0.822
		c-0.213-0.166-0.472-0.242-0.775-0.242c-0.411,0-1.005,0.242-1.765,0.73c-0.746,0.486-1.72,1.033-2.922,1.627
		c-1.187,0.594-2.602,1.143-4.244,1.629c-1.659,0.486-3.561,0.73-5.736,0.73c-1.431,0-2.709-0.168-3.835-0.502
		c-1.126-0.352-2.084-0.838-2.875-1.461c-0.776-0.625-1.384-1.385-1.795-2.313c-0.426-0.928-0.624-1.949-0.624-3.074
		c0-1.309,0.35-2.434,1.065-3.363c0.715-0.941,1.643-1.779,2.784-2.494c0.752-0.48,1.576-0.941,2.465-1.385h19.887
		c0.291,0,0.529-0.32,0.529-0.713v-2.842c0-0.391-0.238-0.711-0.529-0.711h-41.33c-0.292,0-0.53,0.32-0.53,0.711v2.842
		c0,0.393,0.238,0.713,0.53,0.713h3.894C90.474,138.811,90.165,140.713,90.165,142.883L90.165,142.883z M87.208,124.906h19.343
		l0.547-0.236c1.491-0.623,2.815-1.309,3.987-2.037c1.172-0.73,2.115-1.568,2.814-2.496c0.7-0.943,1.05-2.055,1.05-3.332
		c0-0.852-0.167-1.674-0.472-2.449c-0.319-0.775-0.791-1.43-1.43-1.979c-0.64-0.547-1.43-0.988-2.389-1.293
		c-0.943-0.318-2.054-0.473-3.333-0.473c-1.643,0-3.134,0.199-4.503,0.609c-1.37,0.396-2.571,0.836-3.606,1.34
		c-1.05,0.486-1.917,0.943-2.632,1.354s-1.232,0.623-1.567,0.623c-0.32,0-0.579-0.09-0.776-0.273
		c-0.198-0.168-0.35-0.457-0.441-0.836c-0.106-0.396-0.183-0.883-0.228-1.477c-0.046-0.594-0.062-1.324-0.062-2.176
		c0-0.775,0.016-1.43,0.031-1.947c0.031-0.518,0.091-0.943,0.167-1.293c0.076-0.336,0.152-0.609,0.258-0.822s0.305-0.456,0.609-0.76
		c0.289-0.289,0.897-0.67,1.826-1.111s1.978-0.852,3.165-1.202c1.186-0.364,2.464-0.64,3.834-0.853
		c1.369-0.213,2.739-0.304,4.093-0.304c2.647,0,5.158,0.335,7.517,1.02s4.412,1.72,6.146,3.104c1.75,1.369,3.135,3.118,4.154,5.203
		c1.019,2.1,1.536,4.533,1.536,7.287c0,2.42-0.35,4.473-1.065,6.209c-0.084,0.203-0.172,0.404-0.263,0.6h3.018
		c0.291,0,0.529,0.322,0.529,0.713v2.842c0,0.393-0.238,0.713-0.529,0.713h-41.33c-0.292,0-0.53-0.32-0.53-0.713v-2.842
		C86.679,125.229,86.917,124.906,87.208,124.906L87.208,124.906z M83.721,90.501c5.689-6.671,14.154-10.903,23.607-10.903
		c8.701,0,16.565,3.584,22.197,9.356c5.322,5.453,0.228,10.884-5.016,5.359c-4.315-4.548-10.417-7.386-17.181-7.386
		c-7.253,0-13.746,3.263-18.091,8.4C85.602,99.628,79.944,94.933,83.721,90.501L83.721,90.501z M145.681,73.748
		c-9.68-10.069-23.285-16.338-38.353-16.338c-15.426,0-29.318,6.572-39.036,17.064c-3.704,4.001-9.517-0.597-5.182-5.231
		c11.051-11.807,26.774-19.188,44.218-19.188c17.053,0,32.461,7.055,43.467,18.402C155.855,73.676,150.207,78.459,145.681,73.748
		L145.681,73.748z M134.933,84.527c-6.924-7.325-16.73-11.897-27.605-11.897c-11.359,0-21.555,4.99-28.515,12.896
		c-3.333,3.786-9.507-1.197-5.39-5.724c8.381-9.218,20.468-15.006,33.905-15.006c12.994,0,24.724,5.412,33.063,14.103
		C145.472,84.194,139.448,89.304,134.933,84.527L134.933,84.527z"/>

</g>
</svg>
