<?xml version="1.0" encoding="iso-8859-1"?>
<!-- Generator: Adobe Illustrator 12.0.0, SVG Export Plug-In . SVG Version: 6.00 Build 51448)  -->
<!DOCTYPE svg PUBLIC "-//W3C//DTD SVG 1.1//EN" "http://www.w3.org/Graphics/SVG/1.1/DTD/svg11.dtd" [
	<!ENTITY ns_svg "http://www.w3.org/2000/svg">
	<!ENTITY ns_xlink "http://www.w3.org/1999/xlink">
]>
<svg  version="1.1" id="Layer_1" xmlns="&ns_svg;" xmlns:xlink="&ns_xlink;" width="80.753" height="119.515"
	 viewBox="0 0 80.753 119.515" overflow="visible" enable-background="new 0 0 80.753 119.515" xml:space="preserve">
<path fill-rule="evenodd" clip-rule="evenodd" d="M9.57,0h61.614c5.264,0,9.569,4.307,9.569,9.57v100.375
	c0,5.264-4.306,9.569-9.569,9.569H9.57c-5.263,0-9.57-4.306-9.57-9.569V9.57C0,4.307,4.307,0,9.57,0L9.57,0z M33.542,12.624h13.378
	c1.103,0,2.003,0.405,2.003,0.901v2.209c0,0.495-0.9,0.9-2.003,0.9H33.542c-1.102,0-2.003-0.405-2.003-0.9v-2.209
	C31.54,13.029,32.44,12.624,33.542,12.624L33.542,12.624z M35.937,101.785h8.591c0.701,0,1.274,0.573,1.274,1.274v3.166
	c0,0.701-0.573,1.274-1.274,1.274h-8.591c-0.701,0-1.274-0.573-1.274-1.274v-3.166C34.662,102.358,35.235,101.785,35.937,101.785
	L35.937,101.785z M7.055,91.072h66.645V28.709H7.055V91.072L7.055,91.072z M73.699,97.463H7.055v12.482
	c0,1.384,1.132,2.515,2.516,2.515h61.613c1.384,0,2.516-1.131,2.516-2.515V97.463L73.699,97.463z M7.055,21.622h66.645V9.57
	c0-1.383-1.132-2.515-2.516-2.515H9.57c-1.384,0-2.516,1.132-2.516,2.515V21.622L7.055,21.622z M39.846,82.86
	c-12.918,0-23.395-10.477-23.395-23.395s10.477-23.394,23.395-23.394c12.918,0,23.394,10.476,23.394,23.394
	S52.765,82.86,39.846,82.86L39.846,82.86z M28.954,65.629c0,1.731,0.322,3.255,0.966,4.569c0.644,1.306,1.523,2.401,2.629,3.272
	c1.104,0.879,2.393,1.531,3.872,1.976c1.479,0.443,3.063,0.661,4.744,0.661c1.14,0,2.202-0.088,3.176-0.278
	c0.975-0.183,1.837-0.409,2.585-0.671c0.748-0.27,1.375-0.539,1.88-0.835c0.496-0.287,0.861-0.539,1.079-0.766
	c0.227-0.218,0.383-0.54,0.47-0.949c0.096-0.418,0.14-1.018,0.14-1.802c0-0.53-0.018-0.966-0.044-1.322
	c-0.034-0.356-0.096-0.652-0.165-0.87c-0.078-0.218-0.183-0.374-0.313-0.471c-0.122-0.095-0.27-0.139-0.444-0.139
	c-0.234,0-0.574,0.139-1.009,0.418c-0.427,0.278-0.983,0.591-1.672,0.931c-0.679,0.34-1.487,0.653-2.428,0.932
	c-0.948,0.278-2.036,0.417-3.281,0.417c-0.817,0-1.549-0.095-2.193-0.286c-0.644-0.201-1.192-0.479-1.645-0.836
	c-0.443-0.356-0.792-0.792-1.026-1.323c-0.244-0.53-0.357-1.113-0.357-1.758c0-0.749,0.2-1.393,0.609-1.923
	c0.409-0.54,0.94-1.019,1.593-1.428c0.43-0.275,0.902-0.539,1.41-0.792h11.375c0.166,0,0.303-0.184,0.303-0.407v-1.626
	c0-0.224-0.137-0.407-0.303-0.407H27.262c-0.167,0-0.303,0.183-0.303,0.407v1.626c0,0.225,0.136,0.407,0.303,0.407h2.228
	C29.13,63.299,28.954,64.387,28.954,65.629L28.954,65.629z M27.262,55.346h11.065l0.313-0.135c0.853-0.356,1.61-0.748,2.28-1.166
	c0.67-0.417,1.21-0.896,1.61-1.427c0.4-0.54,0.601-1.175,0.601-1.906c0-0.487-0.096-0.958-0.27-1.401
	c-0.183-0.444-0.453-0.818-0.818-1.131c-0.366-0.313-0.818-0.566-1.367-0.74c-0.54-0.183-1.175-0.27-1.906-0.27
	c-0.94,0-1.792,0.113-2.576,0.348c-0.784,0.226-1.471,0.479-2.063,0.766c-0.6,0.278-1.096,0.54-1.505,0.774
	c-0.409,0.235-0.705,0.357-0.896,0.357c-0.184,0-0.331-0.052-0.444-0.157c-0.113-0.096-0.2-0.261-0.252-0.479
	c-0.061-0.226-0.104-0.505-0.13-0.844c-0.026-0.34-0.035-0.757-0.035-1.245c0-0.444,0.008-0.818,0.018-1.114
	c0.017-0.296,0.052-0.54,0.095-0.74c0.044-0.191,0.087-0.348,0.148-0.47c0.061-0.122,0.174-0.261,0.348-0.436
	c0.166-0.165,0.514-0.382,1.044-0.635c0.531-0.252,1.131-0.487,1.811-0.688c0.679-0.208,1.41-0.365,2.193-0.487
	c0.783-0.122,1.566-0.174,2.341-0.174c1.515,0,2.951,0.191,4.3,0.583c1.349,0.392,2.523,0.983,3.516,1.775
	c1.001,0.783,1.793,1.784,2.376,2.977c0.584,1.201,0.88,2.593,0.88,4.169c0,1.383-0.2,2.559-0.609,3.55
	c-0.049,0.117-0.099,0.231-0.151,0.344h1.727c0.166,0,0.303,0.184,0.303,0.408v1.625c0,0.224-0.137,0.407-0.303,0.407H27.262
	c-0.167,0-0.303-0.184-0.303-0.407v-1.625C26.959,55.53,27.096,55.346,27.262,55.346L27.262,55.346z"/>
</svg>
