<?xml version="1.0" encoding="utf-8"?>
<!DOCTYPE svg PUBLIC "-//W3C//DTD SVG 1.1//EN" "http://www.w3.org/Graphics/SVG/1.1/DTD/svg11.dtd">
<svg version="1.1" id="Layer_1" xmlns="http://www.w3.org/2000/svg" xmlns:xlink="http://www.w3.org/1999/xlink" x="0px" y="0px"
	 width="216px" height="216px" viewBox="0 0 216 216" enable-background="new 0 0 216 216" xml:space="preserve">
<path fill-rule="evenodd" clip-rule="evenodd" d="M68.288,93.511h10.404h5.653v3.183c-0.301,2.063-1.007,3.473-3.289,3.598
	c-3.276,0.18-6.577,0-9.866,0c-6.219,0.027-10.008-0.124-0.497,3.443l29.738,11.151c7.046,2.643,6.464,2.637,13.512-0.006
	c9.768-3.662,19.537-7.327,29.307-10.99c8.697-3.261,4.383-3.58,0.617-3.599c-3.469,0-6.936,0-10.404,0
	c-3.113-0.588-3.578-1.857-3.449-3.598v-3.183h8.031h5.877c4.943,0,8.986,4.044,8.986,8.985v42.138c0,4.943-4.045,8.986-8.986,8.986
	H68.288c-4.941,0-8.985-4.043-8.985-8.986v-42.138C59.303,97.555,63.346,93.511,68.288,93.511L68.288,93.511z M69.88,113.918h17.13
	v13.092H69.88V113.918L69.88,113.918z M159.504,106.907c4.559,0.474,8.143,4.357,8.143,9.035v39.535
	c0,4.996-7.152,12.148-12.148,12.148H88.4c-4.996,0-9.084-4.088-9.084-9.084v-0.313l73.189-0.148c4.342,0.26,7.07-2.545,7.219-7.447
	L159.504,106.907L159.504,106.907z M84.996,50.246v10.973c-0.301,2.063-1.007,3.473-3.288,3.598c-3.277,0.18-6.577,0-9.866,0
	c-6.22,0.027-10.009-0.124-0.498,3.443l13.165,4.937c4.528-8.084,13.176-13.551,23.098-13.551c9.978,0,18.669,5.53,23.175,13.69
	l13.121-4.92c8.695-3.261,4.381-3.58,0.615-3.599c-3.467,0-6.936,0-10.402,0c-3.115-0.588-3.578-1.857-3.451-3.598
	c0-3.463,0-6.926,0-10.389c0-2.922-1.633-3.139-3.656-3.139H88.104C85.456,47.84,84.996,47.802,84.996,50.246L84.996,50.246z
	 M107.606,107.772c-11.965,0-21.668-9.704-21.668-21.668c0-11.965,9.703-21.668,21.668-21.668c11.966,0,21.669,9.703,21.669,21.668
	C129.275,98.068,119.572,107.772,107.606,107.772L107.606,107.772z M97.518,91.812c0,1.604,0.298,3.015,0.895,4.232
	c0.597,1.209,1.411,2.225,2.435,3.031c1.024,0.814,2.217,1.419,3.587,1.83c1.37,0.411,2.837,0.613,4.394,0.613
	c1.055,0,2.04-0.081,2.942-0.258c0.902-0.169,1.701-0.379,2.395-0.621c0.693-0.25,1.273-0.5,1.74-0.774
	c0.461-0.266,0.799-0.5,1-0.709c0.209-0.202,0.355-0.5,0.436-0.879c0.088-0.387,0.129-0.943,0.129-1.668
	c0-0.492-0.016-0.895-0.041-1.225c-0.031-0.331-0.088-0.605-0.152-0.806c-0.072-0.202-0.17-0.347-0.291-0.436
	c-0.113-0.088-0.25-0.129-0.41-0.129c-0.219,0-0.533,0.129-0.936,0.387c-0.395,0.258-0.91,0.548-1.547,0.862
	c-0.629,0.314-1.379,0.604-2.25,0.862c-0.879,0.258-1.887,0.387-3.039,0.387c-0.758,0-1.435-0.089-2.032-0.266
	c-0.597-0.186-1.104-0.443-1.523-0.774c-0.411-0.331-0.733-0.733-0.951-1.225c-0.226-0.492-0.331-1.032-0.331-1.628
	c0-0.693,0.186-1.29,0.564-1.782c0.379-0.5,0.871-0.943,1.475-1.322c0.398-0.255,0.835-0.5,1.306-0.733h10.536
	c0.154,0,0.281-0.17,0.281-0.377v-1.506c0-0.208-0.127-0.377-0.281-0.377H95.951c-0.154,0-0.28,0.17-0.28,0.377v1.506
	c0,0.208,0.126,0.377,0.28,0.377h2.063C97.681,89.653,97.518,90.661,97.518,91.812L97.518,91.812z M95.951,82.288h10.249
	l0.291-0.125c0.79-0.331,1.491-0.693,2.112-1.08c0.621-0.387,1.121-0.831,1.49-1.322c0.371-0.5,0.557-1.088,0.557-1.766
	c0-0.451-0.088-0.886-0.25-1.297c-0.168-0.412-0.418-0.758-0.758-1.048c-0.338-0.291-0.757-0.524-1.265-0.686
	c-0.5-0.169-1.088-0.25-1.765-0.25c-0.871,0-1.661,0.105-2.386,0.322c-0.726,0.21-1.362,0.443-1.91,0.709
	c-0.556,0.258-1.016,0.5-1.395,0.718s-0.653,0.331-0.831,0.331c-0.169,0-0.306-0.049-0.411-0.145
	c-0.105-0.089-0.185-0.242-0.234-0.443c-0.056-0.209-0.097-0.468-0.121-0.782c-0.024-0.314-0.032-0.701-0.032-1.153
	c0-0.411,0.008-0.757,0.016-1.032c0.016-0.274,0.048-0.5,0.088-0.685c0.041-0.177,0.081-0.323,0.137-0.436s0.161-0.242,0.322-0.403
	c0.153-0.153,0.476-0.354,0.968-0.588c0.492-0.234,1.048-0.452,1.676-0.637c0.629-0.193,1.306-0.338,2.032-0.451
	s1.451-0.161,2.168-0.161c1.402,0,2.732,0.177,3.982,0.54c1.248,0.363,2.338,0.911,3.256,1.645c0.928,0.725,1.66,1.652,2.201,2.757
	c0.539,1.112,0.814,2.402,0.814,3.861c0,1.282-0.186,2.37-0.564,3.289c-0.045,0.107-0.092,0.214-0.141,0.318h1.6
	c0.154,0,0.281,0.17,0.281,0.377v1.506c0,0.208-0.127,0.377-0.281,0.377H95.951c-0.154,0-0.28-0.17-0.28-0.377v-1.506
	C95.67,82.458,95.796,82.288,95.951,82.288L95.951,82.288z"/>
</svg>
