<?xml version="1.0" encoding="utf-8"?>
<!DOCTYPE svg PUBLIC "-//W3C//DTD SVG 1.1//EN" "http://www.w3.org/Graphics/SVG/1.1/DTD/svg11.dtd">
<svg version="1.1" id="Layer_1" xmlns="http://www.w3.org/2000/svg" xmlns:xlink="http://www.w3.org/1999/xlink" x="0px" y="0px" width="300px" height="150px" viewBox="0 0 300 150" enable-background="new 0 0 300 150" xml:space="preserve">
<g>
	<path d="M16.904,124.865c-2.552,0-2.727-0.066-2.727-1.727V113.3c0-3.027,0.007-3.34,1.603-3.362
		c0.113,0,0.225,0.002,0.349,0.002h0.388h0.387h1.922c1.723,0,4.409,0.189,5.872,0.57c2.008,0.56,2.943,1.682,3.95,5.228
		c0.018,0.061,0.034,0.108,0.05,0.171c0.001,0,0.002,0,0.002,0c0.341,0.209,0.898,0.285,1.431,0.259
		c0.129,0.006,0.257,0.006,0.387,0c0.762,0.04,1.593-0.145,1.771-0.511c-0.382-2.739-0.761-7.759-1.014-8.844
		c-0.019,0.003-0.178,0.011-0.382,0.017c-0.002-0.004-0.002-0.012-0.003-0.017c-0.02,0.003-0.181,0.011-0.387,0.017
		c-0.001-0.004-0.003-0.012-0.003-0.017c-0.052,0.009-1.119,0.039-1.369,0.055c-2.01,0.061-5.833,0.142-8.769,0.142h-9.819
		c-2.78,0-8.505-0.17-8.972-0.196c-0.007,0.005-0.012,0.011-0.019,0.015c-0.182-0.006-0.312-0.012-0.367-0.015H1.184
		c-0.006,0.005-0.01,0.011-0.018,0.015c-0.184-0.006-0.317-0.012-0.371-0.015c-0.505,0.256-0.577,1.398-0.114,1.846l1.017,0.123
		c0.015,0.002,0.026,0.004,0.042,0.004c2.929,0.39,2.724,0.668,2.724,7.37v23.646c0,6.706,0.206,6.928-2.724,7.313
		c-0.015,0.002-0.027,0.004-0.042,0.006l-1.408,0.183c-0.438,0.449-0.374,1.59,0.14,1.842h0.001
		c0.118-0.006,0.248-0.011,0.374-0.011c0.006,0.002,0.009,0.007,0.015,0.011c0.118-0.006,0.245-0.011,0.373-0.011
		c0.005,0.002,0.008,0.007,0.013,0.011h0.001c0.087-0.004,0.182-0.006,0.276-0.009c0.062,0.003,0.107,0.005,0.115,0.009
		c0.079-0.004,0.151-0.006,0.228-0.011c0.089,0.002,0.153,0.007,0.16,0.011c0.079-0.004,0.151-0.006,0.229-0.011
		c0.087,0.002,0.149,0.007,0.157,0.011c2.237-0.101,4.274-0.157,6.511-0.176c2.239,0.026,4.671,0.176,7.22,0.176
		c0.054,0,0.101-0.002,0.15-0.004c0.081,0,0.157,0.004,0.238,0.004c0.054,0,0.101-0.002,0.15-0.004c0.076,0,0.149,0.004,0.225,0.004
		c0.003,0,0.007,0,0.01,0h0.001c0.057,0,0.109-0.002,0.161-0.004c0.077,0.002,0.151,0.004,0.228,0.004
		c0.056,0,0.108-0.002,0.161-0.004c0.075,0.002,0.148,0.004,0.225,0.004h0.001c0.001,0,0.002,0,0.002,0
		c0.058,0,0.107-0.004,0.165-0.004c0.075,0.002,0.149,0.004,0.226,0.004c0.056,0,0.105-0.004,0.163-0.004
		c0.075,0.002,0.147,0.004,0.222,0.004c7.25,0,11.439-1.079,14.438-3.553c2.918-2.351,3.94-5.534,3.872-8.452
		C36.487,127.914,27.714,124.865,16.904,124.865L16.904,124.865z M14.177,129.707L14.177,129.707c0-1.028,0.103-1.467,1.631-1.598
		c6.434,0.353,10.463,3.762,10.463,9.983c0,5.22-3.299,7.932-7.264,8.081c-4.344-0.149-4.83-2.423-4.83-7.706V129.707
		L14.177,129.707z"/>
	<path d="M76.673,147.119c-3.244-0.637-2.789-1.028-4.243-5.286l-9.161-26.622c-1.015-2.869-1.833-5.847-2.856-8.709
		c-0.256-0.324-0.578-0.512-1.085-0.512c-0.025,0-0.091,0-0.294,0c-0.003,0-0.016,0.012-0.02,0.014
		c-0.028,0-0.043-0.014-0.072-0.014c-0.025,0-0.311,0.012-0.314,0.016c-0.029-0.002-0.731-0.016-0.854-0.016
		c-0.084,0-1.126,1.244-2.491,2.161c-0.859,0.48-1.805,0.869-2.715,0.893c0.182,1.077-0.452,2.601-1.219,4.636l-8.716,22.629
		c-1.341,3.431-2.339,6.103-3.101,7.751c-0.967,2.098-1.276,2.603-3.118,2.933l-1.505,0.308l-0.003,0.002
		c-0.457,0.57-0.382,1.531,0.05,1.842c0.124-0.009,0.252-0.013,0.378-0.015c0.005,0.004,0.006,0.011,0.009,0.015h0.002
		c0.121-0.009,0.25-0.011,0.375-0.015c0.004,0.004,0.005,0.011,0.011,0.015c0.09-0.006,0.185-0.009,0.28-0.011
		c0.061,0.002,0.106,0.007,0.111,0.011c0.079-0.006,0.147-0.009,0.227-0.013c0.089,0.002,0.154,0.007,0.162,0.013
		c0.081-0.006,0.147-0.009,0.227-0.013c0.088,0.002,0.153,0.007,0.16,0.013c1.667-0.095,2.888-0.149,4.374-0.172
		c2.24,0.047,4.139,0.059,5.942,0.172c0.008-0.004,0.081-0.009,0.179-0.011c0.069,0.005,0.142,0.007,0.209,0.011
		c0.009-0.004,0.079-0.009,0.176-0.011c0.07,0.002,0.141,0.007,0.208,0.011c0,0,0,0,0.002,0c0.009-0.004,0.08-0.009,0.179-0.011
		c0.069,0.002,0.14,0.007,0.21,0.011c0.006-0.004,0.011-0.011,0.017-0.015c0.133,0.004,0.256,0.006,0.356,0.013
		c0.004,0.002,0.009,0.002,0.012,0.002c0.002,0,0.003,0,0.004,0c0.006-0.004,0.011-0.011,0.018-0.015
		c0.14,0.004,0.268,0.006,0.372,0.015c0.007-0.004,0.011-0.011,0.018-0.015c0.136,0.004,0.266,0.006,0.368,0.015
		c0.518-0.252,0.575-1.393,0.13-1.842l-1.846-0.31c-2.359-0.393-2.596-0.51-1.329-4.264l2.56-7.454
		c0.415-1.24,0.951-1.467,1.526-1.501h0.288h0.386h6.136h0.39h0.385c0.04,0,0.079,0,0.118-0.002c0.718,0.032,1.356,0.259,1.769,1.48
		l2.923,8.497c0.96,2.67,1.03,3.052-1.255,3.37l-1.017,0.183h-0.003c-0.375,0.391-0.311,1.531,0.196,1.842
		c0.106-0.004,0.239-0.006,0.383-0.009c0.002,0.003,0.004,0.007,0.007,0.009h0.001c0.102-0.004,0.235-0.006,0.378-0.006
		c0.002,0,0.004,0.004,0.006,0.006h0.001c0.136-0.004,0.321-0.006,0.517-0.009c0.149,0.003,0.255,0.005,0.261,0.009
		c0.071-0.002,0.138-0.006,0.207-0.009c0.107,0.003,0.177,0.005,0.182,0.009c0.07-0.002,0.137-0.006,0.207-0.009
		c0.105,0.003,0.174,0.005,0.18,0.009c2.059-0.055,3.902-0.163,6.374-0.18c2.397,0.019,4.023,0.076,6.133,0.18
		c0.006-0.004,0.075-0.009,0.167-0.011c0.074,0.002,0.146,0.007,0.223,0.011c0.006-0.004,0.072-0.009,0.164-0.011
		c0.075,0.002,0.146,0.007,0.222,0.011c0.004-0.004,0.049-0.006,0.107-0.011c0.09,0.002,0.18,0.005,0.266,0.009
		c0.004,0,0.008,0.002,0.013,0.002c0.002,0,0.003,0,0.005,0c0.004-0.004,0.005-0.011,0.009-0.013
		c0.12,0.002,0.245,0.007,0.363,0.011c0.004,0,0.007,0.002,0.011,0.002c0.002,0,0.004,0,0.006,0
		c0.003-0.004,0.004-0.011,0.007-0.013c0.121,0.002,0.244,0.007,0.361,0.011c0.004,0,0.008,0.002,0.012,0.002
		c0.002,0,0.003,0,0.005,0c0.452-0.311,0.452-1.393-0.05-1.842L76.673,147.119L76.673,147.119z M56.943,130.133L56.943,130.133
		h-0.39H52.27h-0.386h-0.047c-0.75-0.006-1.021-0.145-0.495-1.709l2.588-7.182c0.297-0.821,0.554-1.52,0.778-2.129
		c0.195,0.59,0.424,1.281,0.712,2.129l2.582,7.437c0.437,1.334-0.042,1.446-1.007,1.454
		C56.977,130.133,56.962,130.133,56.943,130.133L56.943,130.133z"/>
	<path d="M124.729,147.119c-2.994-0.389-2.797-0.58-2.797-7.318v-23.646c0-6.734-0.196-6.791,2.797-7.31l1.146-0.188
		c0.455-0.318,0.387-1.59-0.117-1.846c-0.003,0-0.004,0-0.004,0c-0.007,0-0.014,0.003-0.019,0.003
		c-0.112,0.004-0.231,0.008-0.349,0.01c-0.005-0.004-0.01-0.01-0.016-0.013c0,0-0.003,0-0.005,0c-0.006,0-0.012,0.003-0.018,0.003
		c-0.11,0.004-0.233,0.008-0.354,0.01c-0.005-0.004-0.007-0.01-0.014-0.013c0,0-0.002,0-0.005,0c-0.005,0-0.01,0.003-0.016,0.003
		c-0.081,0.002-0.168,0.006-0.256,0.006c-0.06-0.002-0.105-0.004-0.114-0.009c-0.074,0.005-0.147,0.009-0.222,0.011
		c-0.09-0.002-0.155-0.006-0.163-0.011c-0.076,0.005-0.15,0.009-0.225,0.011c-0.089-0.002-0.156-0.006-0.164-0.011
		c-2.129,0.109-4.143,0.17-6.456,0.186c-2.445-0.012-4.637-0.07-7.237-0.186c-0.005,0.005-0.076,0.009-0.167,0.009
		c-0.074-0.002-0.144-0.004-0.219-0.009c-0.006,0.005-0.076,0.009-0.17,0.009c-0.074-0.002-0.145-0.004-0.219-0.009
		c-0.005,0.003-0.05,0.007-0.118,0.009c-0.093-0.002-0.185-0.004-0.272-0.009c-0.006,0.003-0.008,0.009-0.014,0.011
		c-0.126-0.002-0.251-0.004-0.373-0.011h-0.001c-0.004,0.003-0.008,0.009-0.011,0.011c-0.126-0.002-0.256-0.004-0.376-0.011h-0.002
		c-0.507,0.256-0.566,1.527-0.118,1.846l1.385,0.188c0.014,0.002,0.027,0.004,0.041,0.006c2.953,0.38,2.757,0.602,2.757,7.304v7.31
		c0,1.773-0.199,1.907-3.425,1.907H96.277c-3.253,0-3.432-0.134-3.432-1.907v-7.31c0-6.734-0.199-6.791,2.772-7.31l1.084-0.188
		c0.452-0.318,0.388-1.59-0.118-1.846c0,0-0.003,0-0.005,0c-0.006,0-0.012,0.003-0.017,0.003c-0.111,0.004-0.231,0.008-0.35,0.01
		c-0.006-0.004-0.01-0.01-0.016-0.013c-0.001,0-0.003,0-0.005,0c-0.005,0-0.011,0.003-0.017,0.003
		c-0.111,0.006-0.233,0.008-0.352,0.01c-0.005-0.002-0.009-0.01-0.015-0.013c0,0-0.003,0-0.005,0c-0.006,0-0.012,0.003-0.017,0.003
		c-0.081,0.002-0.169,0.006-0.255,0.006c-0.062,0-0.107-0.004-0.114-0.009c-0.074,0.005-0.148,0.009-0.222,0.011
		c-0.09-0.002-0.156-0.006-0.164-0.011c-0.075,0.005-0.149,0.009-0.222,0.011c-0.091-0.002-0.159-0.006-0.167-0.011
		c-2.081,0.109-4.084,0.17-6.402,0.186c-2.473-0.012-4.746-0.07-7.218-0.186c-0.007,0.005-0.076,0.009-0.168,0.011
		c-0.075-0.004-0.145-0.006-0.217-0.011c-0.008,0.005-0.078,0.009-0.173,0.011c-0.073-0.004-0.144-0.006-0.216-0.011
		c-0.007,0.003-0.052,0.007-0.12,0.009c-0.093-0.002-0.186-0.004-0.271-0.009h-0.001c-0.004,0.003-0.008,0.009-0.012,0.011
		c-0.127-0.002-0.256-0.004-0.373-0.011h-0.001c-0.004,0.003-0.009,0.009-0.013,0.011c-0.128,0-0.256-0.004-0.375-0.011H79.08
		c-0.506,0.256-0.576,1.527-0.123,1.846l1.394,0.188c0.015,0.002,0.027,0.004,0.042,0.006c2.946,0.38,2.742,0.602,2.742,7.304
		v23.646c0,6.738-0.178,6.93-3.17,7.375l-0.5,0.126h-0.001c-0.449,0.449-0.384,1.59,0.121,1.842h0.001
		c0.116-0.006,0.245-0.011,0.373-0.013c0.006,0.002,0.009,0.009,0.015,0.013h0.001c0.116-0.006,0.243-0.011,0.37-0.013
		c0.005,0.002,0.009,0.009,0.016,0.013h0.001c0.084-0.006,0.179-0.009,0.272-0.011c0.063,0.002,0.111,0.007,0.117,0.011
		c0.077-0.004,0.154-0.009,0.231-0.011c0.086,0.002,0.15,0.007,0.159,0.011c0.076-0.004,0.152-0.009,0.229-0.011
		c0.087,0.002,0.148,0.007,0.158,0.011c2.083-0.109,4.146-0.165,6.526-0.18c2.395,0.015,4.564,0.07,7.405,0.18
		c0.007-0.004,0.07-0.006,0.157-0.009c0.081,0.003,0.15,0.005,0.233,0.009c0.006-0.004,0.068-0.006,0.154-0.009
		c0.08,0.003,0.149,0.005,0.231,0.009c0.005-0.004,0.049-0.006,0.106-0.009c0.089,0.003,0.179,0.005,0.265,0.007
		c0.005,0.002,0.01,0.002,0.015,0.002c0.002,0,0.003,0,0.005,0c0.005-0.002,0.007-0.009,0.011-0.011
		c0.12,0.002,0.242,0.005,0.358,0.009c0.005,0.002,0.01,0.002,0.014,0.002c0.002,0,0.004,0,0.006,0
		c0.004-0.002,0.007-0.009,0.011-0.011c0.119,0.002,0.238,0.005,0.356,0.009c0.004,0.002,0.009,0.002,0.013,0.002
		c0.002,0,0.005,0,0.005,0c0.515-0.252,0.58-1.393,0.131-1.842l-1.911-0.253c-2.971-0.387-2.772-0.51-2.772-7.248v-8.958
		c0-1.715,0.179-1.84,3.432-1.84h12.546c3.226,0,3.425,0.125,3.425,1.84v8.958c0,6.578,0.186,6.918-2.595,7.291
		c-0.07,0.01-0.131,0.018-0.203,0.027l-1.385,0.183c-0.448,0.449-0.389,1.59,0.118,1.842c0.003,0,0.003,0,0.003,0
		c0.12-0.006,0.247-0.011,0.373-0.011c0.004,0.002,0.008,0.007,0.013,0.011c0.001,0,0.001,0,0.004,0
		c0.118-0.006,0.244-0.011,0.37-0.011c0.003,0.002,0.008,0.007,0.014,0.011h0.002c0.086-0.004,0.18-0.006,0.271-0.009
		c0.067,0.003,0.112,0.005,0.117,0.009c0.076-0.004,0.147-0.006,0.222-0.011c0.092,0.002,0.16,0.007,0.167,0.011
		c0.076-0.004,0.146-0.006,0.221-0.011c0.091,0.002,0.159,0.007,0.165,0.011c2.414-0.109,4.543-0.161,7.023-0.176
		c2.383,0.015,4.508,0.066,6.909,0.176c0.007-0.004,0.077-0.009,0.167-0.011c0.076,0.005,0.146,0.007,0.222,0.011
		c0.008-0.004,0.074-0.009,0.167-0.011c0.074,0.005,0.145,0.007,0.218,0.011c0.007-0.004,0.049-0.006,0.113-0.009
		c0.081,0.003,0.164,0.003,0.241,0.007c0.012,0,0.022,0,0.033,0.002c0.002,0,0.002,0,0.005,0c0.005-0.004,0.007-0.009,0.014-0.011
		c0.112,0,0.229,0.005,0.336,0.009c0.01,0,0.022,0,0.032,0.002c0.003,0,0.004,0,0.005,0c0.006-0.004,0.009-0.009,0.014-0.011
		c0.115,0.002,0.229,0.005,0.336,0.009c0.011,0,0.021,0,0.033,0.002c0.001,0,0.004,0,0.004,0c0.514-0.252,0.568-1.393,0.12-1.842
		L124.729,147.119L124.729,147.119z"/>
	<path d="M167.742,144.692c-4.567-5.331-10.609-12.905-15.633-19.505c-0.692-0.96-0.57-1.334,0.192-2.099
		c2.473-2.477,5.017-5.091,7.758-7.813c4.391-4.257,5.334-5.786,11.235-6.617c0.632-0.318,0.507-1.649-0.188-1.846
		c-0.002,0-0.004,0-0.006,0c-0.005,0-0.009,0-0.011,0c-0.115,0.005-0.237,0.007-0.357,0.009c-0.004-0.002-0.009-0.006-0.013-0.009
		c0,0-0.004,0-0.007,0c-0.004,0-0.008,0-0.01,0c-0.114,0.005-0.236,0.007-0.359,0.009c-0.004-0.002-0.006-0.006-0.012-0.009
		c-0.003,0-0.007,0-0.008,0c-0.003,0-0.007,0-0.009,0c-0.09,0.003-0.183,0.005-0.272,0.007c-0.053-0.002-0.096-0.004-0.103-0.007
		c-0.071,0.003-0.136,0.005-0.206,0.009c-0.097-0.002-0.169-0.006-0.18-0.009c-0.072,0.003-0.137,0.005-0.209,0.009
		c-0.095-0.002-0.172-0.006-0.183-0.009c-1.987,0.057-3.423,0.157-5.591,0.184c-1.803-0.02-3.266-0.078-5.417-0.184
		c-0.005,0.007-0.052,0.011-0.124,0.013c-0.091-0.004-0.168-0.008-0.264-0.013c-0.004,0.007-0.051,0.011-0.125,0.013
		c-0.094-0.004-0.171-0.008-0.263-0.013c-0.004,0.005-0.047,0.009-0.098,0.011c-0.096-0.002-0.196-0.006-0.291-0.011
		c-0.002,0-0.004,0-0.004,0c-0.004,0.005-0.006,0.011-0.009,0.013c-0.124-0.002-0.252-0.006-0.373-0.013h-0.004
		c-0.002,0.005-0.007,0.011-0.009,0.013c-0.126-0.002-0.253-0.006-0.377-0.013h-0.004c-0.506,0.515-0.636,1.398-0.118,1.846
		l0.046,0.015l1.141,0.363c0.763,0.189,0.693,0.89-0.448,2.356c-0.767,1.01-2.604,3.112-3.426,3.936l-6.494,6.99
		c-1.281,1.413-2.483,2.622-3.313,3.051c-0.212-0.351-0.206-1.191-0.206-2.155v-7.059c0-6.734-0.196-6.791,2.795-7.31l1.082-0.188
		c0.439-0.318,0.383-1.59-0.128-1.846c-0.002,0-0.003,0-0.005,0c-0.014,0.003-0.028,0.003-0.042,0.003
		c-0.123,0.006-0.228,0.01-0.322,0.01c-0.005-0.002-0.011-0.01-0.016-0.013c-0.003,0-0.003,0-0.005,0
		c-0.014,0.003-0.03,0.003-0.042,0.003c-0.09,0.006-0.167,0.006-0.242,0.008c-0.051-0.002-0.089-0.006-0.099-0.008v-0.003
		c-0.004,0-0.005,0-0.006,0c-0.008,0-0.014,0.003-0.021,0.003c-0.009,0-0.019,0-0.028,0c-0.086,0.006-0.159,0.006-0.231,0.008
		c-0.055-0.002-0.095-0.006-0.105-0.011c-0.083,0.005-0.174,0.009-0.257,0.013c-0.07-0.002-0.121-0.006-0.131-0.013
		c-2.15,0.113-4.579,0.172-6.993,0.188c-2.469-0.016-4.565-0.074-6.823-0.188c-0.008,0.005-0.073,0.009-0.159,0.011
		c-0.077-0.002-0.151-0.006-0.228-0.011c-0.008,0.005-0.072,0.009-0.162,0.011c-0.077-0.002-0.151-0.006-0.228-0.011
		c-0.005,0.005-0.054,0.009-0.116,0.009c-0.092,0-0.187-0.004-0.272-0.009h-0.003c-0.005,0.003-0.008,0.009-0.014,0.013
		c-0.125-0.002-0.251-0.006-0.368-0.013h-0.004c-0.005,0.003-0.01,0.009-0.014,0.013c-0.127-0.002-0.253-0.006-0.371-0.013
		c-0.002,0-0.002,0-0.004,0c-0.494,0.256-0.567,1.398-0.129,1.846l1.216,0.188c0.071,0.012,0.135,0.021,0.204,0.032
		c2.76,0.418,2.575,0.704,2.575,7.277v23.646c0,6.576,0.185,6.918-2.575,7.343c-0.069,0.01-0.132,0.021-0.204,0.032l-0.89,0.126
		c-0.456,0.32-0.38,1.59,0.126,1.842h0.003c0.115-0.009,0.243-0.011,0.372-0.013c0.005,0.002,0.008,0.009,0.015,0.013
		c0,0,0.001,0,0.004,0c0.111-0.006,0.238-0.011,0.366-0.013c0.006,0.002,0.01,0.009,0.017,0.013c0,0,0.001,0,0.003,0
		c0.082-0.006,0.174-0.009,0.266-0.011c0.066,0.002,0.115,0.007,0.122,0.011c0.073-0.004,0.148-0.009,0.221-0.011
		c0.093,0.002,0.159,0.007,0.169,0.011c0.072-0.004,0.147-0.009,0.219-0.011c0.092,0.002,0.158,0.007,0.166,0.011
		c1.922-0.105,3.979-0.161,6.312-0.178c2.44,0.013,4.65,0.066,7.306,0.178c0.005-0.004,0.075-0.006,0.17-0.009
		c0.075,0.003,0.143,0.005,0.219,0.009c0.006-0.004,0.074-0.006,0.168-0.009c0.075,0.003,0.141,0.005,0.217,0.009
		c0.005-0.004,0.048-0.006,0.11-0.009c0.083,0.003,0.167,0.005,0.249,0.007c0.009,0,0.019,0,0.026,0.002c0.003,0,0.004,0,0.005,0
		c0.005-0.002,0.008-0.009,0.012-0.011c0.115,0.002,0.232,0.005,0.345,0.009c0.009,0,0.018,0,0.027,0.002h0.005
		c0.004-0.002,0.007-0.009,0.012-0.011c0.114,0.002,0.23,0.005,0.341,0.009c0.011,0,0.018,0,0.029,0.002c0,0,0.002,0,0.005,0
		c0.504-0.252,0.572-1.521,0.124-1.842l-1.589-0.183c-2.991-0.389-2.795-0.58-2.795-7.318v-8.076c0-1.146-0.005-2.25,0.333-2.619
		c0.118,0.055,0.235,0.112,0.333,0.21c2.349,2.409,9.776,12.267,9.776,12.267c4.47,5.537,7.899,7.884,13.993,7.884
		c0.106,0,0.192-0.002,0.286-0.004c0.035,0,0.068,0.004,0.103,0.004c0.104,0,0.192-0.002,0.283-0.004
		c0.017,0,0.029,0.002,0.044,0.002c0.019,0,0.037,0.002,0.058,0.002c0.002,0,0.002,0,0.002,0s0,0,0.003,0
		c0.113,0,0.214-0.002,0.32-0.002c0.021,0,0.041,0.002,0.064,0.002c0.113,0,0.214-0.002,0.319-0.002c0.007,0,0.013,0,0.019,0
		c0.017,0.002,0.031,0.002,0.046,0.002c0.004,0,0.004,0,0.006,0c0,0,0,0,0.002,0c0.112,0,0.214-0.002,0.319-0.002
		c0.022,0,0.045,0.004,0.069,0.002c0.037-0.002,0.068-0.002,0.105-0.004c0.047-0.002,0.097-0.002,0.141-0.004
		c0.045,0.004,0.091,0.01,0.139,0.008c0.211-0.011,0.396-0.021,0.58-0.028c0.391-0.019,0.739-0.04,1.054-0.07
		c0.831-0.071,1.28-0.157,1.802-0.284c0.173-0.317,0.173-1.019-0.146-1.271C170.39,147.366,169.079,146.29,167.742,144.692
		L167.742,144.692z"/>
	<path d="M231.712,137.813c-0.091-0.046-0.186-0.084-0.286-0.112c-0.047-0.013-0.084-0.03-0.129-0.036
		c-0.246-0.057-0.504-0.061-0.757-0.043c-0.132-0.01-0.258-0.01-0.387,0c-0.586-0.042-1.182,0.095-1.424,0.332
		c-1.686,3.913-4.826,8.813-12.027,9.036c-7.872-0.211-15.578-6.759-15.578-19.712c0-12.441,7.427-18.149,15.108-18.305
		c7.45,0.159,10.066,5.047,11.108,8.838c0.21,0.213,0.856,0.366,1.515,0.328c0.128,0.006,0.257,0.006,0.39,0
		c0.369,0.02,0.771-0.013,1.122-0.135c0.055-0.019,0.109-0.037,0.163-0.061c0.148-0.068,0.292-0.147,0.404-0.256
		c-0.63-4.711-0.748-8.459-0.88-9.918c-0.57-0.127-1.015-0.221-1.783-0.388c-0.085-0.018-0.176-0.036-0.265-0.054
		c-1.135-0.278-2.447-0.538-3.844-0.753c-1.979-0.336-4.022-0.586-6.136-0.586c-0.055,0-0.11,0.004-0.167,0.006
		c-0.074,0-0.146-0.006-0.218-0.006c-0.049,0-0.098,0.004-0.145,0.006c-0.078-0.002-0.155-0.006-0.231-0.006
		c-0.004,0-0.012,0-0.016,0s-0.004,0-0.004,0c-0.049,0-0.099,0.002-0.146,0.006c-0.081-0.004-0.161-0.006-0.24-0.006
		c-0.047,0-0.095,0.002-0.142,0.006c-0.083-0.004-0.165-0.006-0.244-0.006h-0.001c-0.001,0-0.001,0-0.001,0
		c-0.05,0-0.096,0.002-0.143,0.006c-0.081-0.004-0.164-0.006-0.242-0.006c-0.048,0-0.096,0.004-0.14,0.006
		c-0.083-0.004-0.168-0.006-0.25-0.006c-6.422,0-12.84,1.845-17.537,5.402c-4.695,3.624-8.012,9.404-8.012,16.844
		c0,8.327,3.89,14.11,9.026,17.476c4.578,2.993,9.984,4.259,16.271,4.259c0.061,0,0.121-0.002,0.183-0.005
		c0.068,0,0.136,0.005,0.208,0.005c0.057,0,0.116-0.002,0.174-0.005c0.068,0.003,0.138,0.005,0.208,0.005h0.002l0,0
		c0.029,0,0.061-0.002,0.09-0.002s0.06-0.003,0.091-0.003c0.068,0.003,0.137,0.005,0.209,0.005c0.06,0,0.118-0.002,0.177-0.005
		c0.068,0.003,0.139,0.005,0.209,0.005l0,0c0,0,0.002,0,0.005,0c0,0,0.002,0,0.006,0c0.055,0,0.113-0.002,0.171-0.005
		c0.068,0.003,0.139,0.007,0.212,0.005c0.043,0,0.084-0.005,0.128-0.007c0.086,0.005,0.171,0.011,0.258,0.007
		c3.9-0.104,7.595-1.022,8.986-1.471c0.702-0.189,1.517-0.449,2.394-0.628c0.879-1.21,2.597-5.391,3.026-9.65
		c-0.073-0.129-0.181-0.226-0.304-0.313C231.825,137.871,231.772,137.844,231.712,137.813L231.712,137.813z"/>
	<path d="M251.658,108.846l1.38-0.188c0.464-0.447,0.391-1.59-0.116-1.846h-0.004
		c-0.01,0.003-0.018,0.003-0.028,0.003c-0.108,0.004-0.226,0.006-0.339,0.008c-0.005-0.002-0.009-0.008-0.013-0.011h-0.005
		c-0.009,0.003-0.021,0.003-0.028,0.003c-0.109,0.004-0.228,0.006-0.344,0.008c-0.006-0.002-0.008-0.008-0.014-0.011h-0.004
		c-0.011,0.003-0.02,0.003-0.029,0.003c-0.078,0.002-0.161,0.004-0.244,0.006c-0.063-0.002-0.106-0.006-0.113-0.009
		c-0.071,0.005-0.143,0.007-0.213,0.011c-0.096-0.002-0.165-0.006-0.172-0.011c-0.077,0.005-0.143,0.007-0.217,0.011
		c-0.095-0.002-0.165-0.006-0.171-0.011c-2.414,0.113-4.533,0.17-6.928,0.184c-2.463-0.014-4.595-0.07-7.021-0.184
		c-0.006,0.005-0.074,0.009-0.17,0.011c-0.071-0.004-0.14-0.006-0.217-0.011c-0.006,0.005-0.076,0.009-0.172,0.011
		c-0.072-0.004-0.141-0.006-0.216-0.011c-0.005,0.003-0.051,0.007-0.119,0.009c-0.09-0.002-0.183-0.004-0.272-0.009h-0.002
		c-0.006,0.003-0.01,0.009-0.013,0.011c-0.126-0.002-0.253-0.004-0.369-0.011h-0.004c-0.004,0.003-0.009,0.009-0.013,0.011
		c-0.127-0.002-0.255-0.004-0.372-0.011c-0.002,0-0.002,0-0.007,0c-0.485,0.256-0.558,1.398-0.117,1.846l1.39,0.188
		c0.085,0.012,0.161,0.024,0.245,0.034c2.729,0.366,2.549,0.732,2.549,7.275v23.646c0,6.548,0.181,6.914-2.549,7.284
		c-0.084,0.013-0.16,0.022-0.245,0.034l-1.39,0.183c-0.44,0.449-0.368,1.59,0.117,1.842c0.005,0,0.005,0,0.007,0
		c0.117-0.006,0.245-0.011,0.372-0.011c0.006,0.002,0.009,0.007,0.013,0.011h0.004c0.116-0.006,0.243-0.011,0.369-0.011
		c0.004,0.002,0.007,0.007,0.013,0.011h0.002c0.088-0.004,0.18-0.006,0.271-0.009c0.07,0.003,0.116,0.005,0.121,0.009
		c0.075-0.004,0.144-0.006,0.219-0.011c0.095,0.005,0.163,0.007,0.169,0.011c0.077-0.004,0.146-0.006,0.217-0.011
		c0.096,0.005,0.164,0.007,0.17,0.011c2.424-0.109,4.617-0.161,7.027-0.176c2.392,0.015,4.511,0.066,6.921,0.176
		c0.006-0.004,0.074-0.009,0.165-0.011c0.076,0.005,0.146,0.007,0.223,0.011c0.007-0.004,0.074-0.009,0.166-0.011
		c0.074,0.005,0.145,0.007,0.219,0.011c0.007-0.004,0.05-0.006,0.113-0.009c0.079,0.003,0.163,0.003,0.24,0.007
		c0.01,0,0.022,0,0.033,0.002h0.004c0.006-0.004,0.008-0.009,0.014-0.011c0.114,0,0.23,0.005,0.34,0.009c0.01,0,0.021,0,0.032,0.002
		h0.005c0.004-0.004,0.008-0.009,0.013-0.011c0.111,0.002,0.227,0.005,0.334,0.009c0.01,0,0.023,0,0.033,0.002h0.004
		c0.507-0.252,0.58-1.393,0.116-1.842l-1.38-0.183c-3.001-0.389-2.798-0.58-2.798-7.318v-23.646
		C248.86,109.421,248.657,109.229,251.658,108.846L251.658,108.846z"/>
	<path d="M299.646,147.302l-1.386-0.183c-2.993-0.389-2.793-0.58-2.793-7.318v-23.646c0-6.734-0.2-6.791,2.793-7.31
		l1.132-0.188c0.456-0.318,0.393-1.59-0.12-1.846h-0.006c-0.004,0-0.01,0.003-0.016,0.003c-0.11,0.004-0.232,0.008-0.35,0.01
		c-0.006-0.004-0.01-0.01-0.016-0.013h-0.004c-0.006,0-0.012,0.003-0.017,0.003c-0.112,0.004-0.232,0.008-0.354,0.01
		c-0.006-0.004-0.01-0.01-0.014-0.013c-0.002,0-0.004,0-0.006,0c-0.006,0-0.011,0.003-0.018,0.003
		c-0.08,0.002-0.169,0.006-0.254,0.006c-0.063-0.002-0.107-0.004-0.113-0.009c-0.077,0.005-0.149,0.009-0.225,0.011
		c-0.087-0.002-0.153-0.006-0.161-0.011c-0.077,0.005-0.149,0.009-0.224,0.011c-0.092-0.002-0.157-0.006-0.169-0.011
		c-2.123,0.109-4.132,0.17-6.452,0.186c-2.438-0.012-4.636-0.07-7.212-0.186c-0.006,0.005-0.076,0.009-0.169,0.009
		c-0.073-0.002-0.144-0.004-0.218-0.009c-0.006,0.005-0.074,0.009-0.169,0.009c-0.074-0.002-0.145-0.004-0.219-0.009
		c-0.004,0.003-0.05,0.007-0.118,0.009c-0.091-0.002-0.185-0.004-0.271-0.009h-0.005c-0.006,0.003-0.008,0.009-0.015,0.011
		c-0.121-0.002-0.249-0.004-0.367-0.011c-0.002,0-0.002,0-0.004,0c-0.004,0.003-0.009,0.009-0.013,0.011
		c-0.126-0.002-0.252-0.004-0.372-0.011h-0.005c-0.518,0.256-0.58,1.527-0.137,1.846l1.405,0.188
		c0.087,0.012,0.163,0.024,0.242,0.034c2.729,0.366,2.545,0.732,2.545,7.275v7.25c0,0.479-2.234,5.156-8.213,5.397
		c-5.25-0.122-7.531-3.042-7.531-7.936v-4.712c0-6.734-0.2-6.791,2.795-7.31l1.078-0.188c0.451-0.318,0.381-1.59-0.12-1.846h-0.004
		c-0.004,0-0.012,0.003-0.017,0.003c-0.108,0.004-0.231,0.008-0.35,0.01c-0.006-0.004-0.01-0.01-0.014-0.013c0,0-0.004,0-0.006,0
		c-0.006,0-0.012,0.003-0.018,0.003c-0.111,0.006-0.233,0.008-0.354,0.01c-0.004-0.002-0.008-0.01-0.012-0.013
		c-0.003,0-0.005,0-0.005,0c-0.006,0-0.014,0.003-0.018,0.003c-0.08,0.002-0.167,0.006-0.255,0.006
		c-0.062,0-0.106-0.004-0.113-0.009c-0.077,0.005-0.148,0.009-0.223,0.011c-0.09-0.002-0.155-0.006-0.165-0.011
		c-0.073,0.005-0.149,0.009-0.225,0.011c-0.088-0.002-0.154-0.006-0.165-0.011c-2.081,0.109-4.084,0.17-6.396,0.186
		c-2.468-0.012-4.747-0.07-7.22-0.186c-0.008,0.005-0.076,0.009-0.168,0.011c-0.074-0.004-0.146-0.006-0.22-0.011
		c-0.006,0.005-0.074,0.009-0.169,0.011c-0.074-0.004-0.146-0.006-0.22-0.011c-0.006,0.003-0.052,0.007-0.117,0.009
		c-0.091-0.002-0.186-0.004-0.271-0.009c-0.002,0-0.002,0-0.006,0c-0.002,0.003-0.007,0.009-0.012,0.011
		c-0.126-0.002-0.254-0.004-0.367-0.011c-0.004,0-0.004,0-0.006,0c-0.005,0.003-0.01,0.009-0.016,0.011
		c-0.123-0.002-0.253-0.004-0.371-0.011h-0.003c-0.505,0.256-0.569,1.527-0.123,1.846l1.393,0.188
		c0.087,0.012,0.163,0.024,0.246,0.034c2.729,0.366,2.549,0.734,2.549,7.275v5.98c0,6.932,5.646,11.951,13.584,11.951
		c0.057,0,0.206,0,0.389,0c0.061,0,0.206,0,0.386,0c0.235,0,0.527,0,0.777,0c0.159,0,0.3,0,0.391,0c0.157,0,0.293,0,0.384,0
		c3.973,0,7.326-2.059,9.516-3.863c0.006,0.076,0.002,0.137,0.002,0.137v9.44c0,6.548,0.185,6.914-2.545,7.284
		c-0.079,0.013-0.155,0.022-0.242,0.034l-1.405,0.183c-0.443,0.449-0.381,1.59,0.137,1.842h0.003
		c0.12-0.006,0.248-0.011,0.374-0.011c0.004,0.002,0.009,0.007,0.013,0.011c0.002,0,0.002,0,0.004,0
		c0.117-0.006,0.244-0.011,0.367-0.011c0.007,0.002,0.009,0.007,0.015,0.011h0.003c0.088-0.004,0.182-0.006,0.272-0.009
		c0.068,0.003,0.114,0.005,0.118,0.009c0.074-0.004,0.146-0.006,0.222-0.011c0.092,0.002,0.16,0.007,0.166,0.011
		c0.076-0.004,0.146-0.006,0.22-0.011c0.096,0.002,0.161,0.007,0.167,0.011c2.402-0.109,4.533-0.161,6.996-0.176
		c2.394,0.015,4.514,0.066,6.921,0.176c0.009-0.004,0.075-0.009,0.168-0.011c0.076,0.005,0.146,0.007,0.221,0.011
		c0.009-0.004,0.074-0.009,0.165-0.011c0.076,0.005,0.145,0.007,0.222,0.011c0.008-0.004,0.05-0.006,0.111-0.009
		c0.083,0.003,0.166,0.003,0.243,0.007c0.01,0,0.02,0,0.03,0.002c0.002,0,0.007,0,0.007,0c0.004-0.004,0.008-0.009,0.012-0.011
		c0.115,0.002,0.23,0.005,0.341,0.009c0.01,0,0.02,0,0.031,0.002c0,0,0.004,0,0.006,0c0.003-0.004,0.008-0.009,0.012-0.011
		c0.114,0.002,0.229,0.005,0.336,0.009c0.012,0,0.022,0,0.033,0.002c0,0,0.002,0,0.006,0
		C300.036,148.892,300.087,147.751,299.646,147.302L299.646,147.302z"/>
	<path d="M146.194,37.907c-2.28-1.326-3.653-4.081-3.653-9.645c0-3.147,0.887-6.696,3.472-7.342
		c0.067-0.021,0.114-0.045,0.181-0.072v-0.706c-0.181-0.014-0.372-0.019-0.572-0.019c-1.309,0-5.182,0.324-7.748,0.324
		c-2.597,0-6.468-0.324-7.762-0.324c-0.732,0-1.199,0.076-1.199,0.324c0,0.068,0.387,0.312,0.788,0.473
		c2.586,0.646,3.472,3.309,3.472,6.625v0.615c0,10.633,5.55,12.888,13.02,13.149V37.907L146.194,37.907z"/>
	<path d="M175.897,53.847c-3.636-1.775-4.359-4.118-4.359-8.07V27.545c0-3.315,0.885-5.979,3.475-6.625
		c0.403-0.161,0.802-0.405,0.802-0.473c0-0.248-0.491-0.324-1.219-0.324c-1.288,0-5.154,0.324-7.746,0.324
		c-2.577,0-6.448-0.324-7.745-0.324c-0.063,0-0.112,0-0.18,0V21c2.418,0.733,3.249,3.334,3.249,6.545v18.231
		c0,3.51-0.58,5.742-3.249,7.449v0.192c0,0.478,0.01,0.909,0.05,1.31c2.479-0.028,3.601-0.229,7.875-0.229
		c4.602,0,5.573,0.246,8.474,0.246c0.819,0,1.301,0,1.301-0.246C176.624,54.248,176.375,54.092,175.897,53.847L175.897,53.847z"/>
	<path d="M161.57,63.961c-3.348,0-5.499-0.245-9.014-0.245c-3.512,0-5.746,0.245-9.007,0.245
		c-0.395,0-0.942-0.08-0.942-0.413c0-0.566,0.872-0.49,1.575-0.814c3.035-1.633,3.755-4.672,3.755-8.67V18.552
		c0-3.934-1.126-5.899-3.112-6.388c-0.324-0.084-0.872-0.24-0.872-0.493c0-0.245,0.229-0.649,0.941-0.649
		c0.494,0,5.118,0.329,7.663,0.329c2.561,0,6.378-0.329,6.865-0.329c0.382,0,1.115,0.083,1.115,0.649
		c0,0.336-0.809,0.576-1.285,0.907c-0.943,0.651-2.072,1.8-2.072,4.494v37.811c0,4.416,1.289,6.623,4.147,7.936
		c0.8,0.404,1.359,0.241,1.359,0.731C162.687,63.799,161.962,63.961,161.57,63.961L161.57,63.961z"/>
	<path d="M189.526,55.027l-9.737-0.112c-1.827,0.006-2.601,1.36-2.836,1.857
		c-4.79,10.138-12.487,14.499-22.522,14.499c-22.191,0-29.984-16.059-30.496-32.007c-0.014-0.103-0.027-0.196-0.027-0.279
		c0-0.112,0-0.207,0-0.306c-0.004-0.391-0.013-0.794-0.013-1.19c0-16.42,7.536-33.777,30.536-33.777
		c10.035,0,17.732,4.353,22.522,14.505c0.235,0.486,1.009,1.844,2.836,1.854l9.737-0.12c0,0,1.582,0.279,0.64-1.261
		c-2.425-3.879-4.815-6.57-8.687-9.539C172.599,2.323,161.151,0,150.122,0c-21.009,0-40.518,12.061-40.642,37.264
		c0,0.084,0,0.151,0,0.226c0,25.362,19.578,37.496,40.633,37.496c11.038,0,22.485-2.336,31.366-9.153
		c3.871-2.97,6.262-5.659,8.687-9.538C191.108,54.754,189.526,55.027,189.526,55.027L189.526,55.027z"/>
</g>
</svg>
