<?xml version="1.0" encoding="utf-8"?>
<!DOCTYPE svg PUBLIC "-//W3C//DTD SVG 1.1//EN" "http://www.w3.org/Graphics/SVG/1.1/DTD/svg11.dtd">
<svg version="1.1" id="Layer_1" xmlns="http://www.w3.org/2000/svg" xmlns:xlink="http://www.w3.org/1999/xlink" x="0px" y="0px" width="256px" height="40px" viewBox="0 0 256 40" enable-background="new 0 0 256 40" xml:space="preserve">
<g>
	<path d="M20.628,20.298c-1.211-0.703-1.94-2.167-1.94-5.121c0-1.672,0.471-3.556,1.844-3.899
		c0.036-0.011,0.06-0.024,0.096-0.038v-0.375c-0.096-0.007-0.197-0.01-0.304-0.01c-0.695,0-2.752,0.171-4.115,0.171
		c-1.378,0-3.435-0.171-4.122-0.171c-0.389,0-0.637,0.04-0.637,0.171c0,0.037,0.206,0.167,0.418,0.252
		c1.374,0.343,1.844,1.757,1.844,3.519v0.326c0,5.647,2.947,6.845,6.915,6.983V20.298L20.628,20.298z"/>
	<path d="M36.403,28.764c-1.931-0.942-2.314-2.188-2.314-4.285v-9.682c0-1.762,0.47-3.175,1.845-3.519
		c0.213-0.085,0.426-0.215,0.426-0.252c0-0.131-0.262-0.171-0.647-0.171c-0.684,0-2.737,0.171-4.113,0.171
		c-1.37,0-3.425-0.171-4.113-0.171c-0.034,0-0.06,0-0.097,0v0.465c1.286,0.389,1.727,1.771,1.727,3.477v9.682
		c0,1.862-0.308,3.05-1.727,3.956v0.101c0,0.255,0.006,0.483,0.028,0.696c1.316-0.016,1.913-0.12,4.183-0.12
		c2.442,0,2.959,0.128,4.499,0.128c0.436,0,0.692,0,0.692-0.128C36.79,28.979,36.656,28.894,36.403,28.764L36.403,28.764z"/>
	<path d="M28.794,34.136c-1.777,0-2.92-0.132-4.788-0.132c-1.865,0-3.051,0.132-4.783,0.132
		c-0.21,0-0.501-0.043-0.501-0.22c0-0.3,0.463-0.26,0.836-0.432c1.612-0.867,1.995-2.481,1.995-4.605V10.021
		c0-2.09-0.598-3.134-1.653-3.393c-0.172-0.044-0.463-0.128-0.463-0.262c0-0.13,0.122-0.344,0.5-0.344
		c0.262,0,2.718,0.174,4.069,0.174c1.36,0,3.388-0.174,3.646-0.174c0.203,0,0.593,0.043,0.593,0.344c0,0.178-0.43,0.307-0.683,0.482
		c-0.5,0.345-1.101,0.956-1.101,2.387v20.079c0,2.345,0.685,3.519,2.203,4.216c0.424,0.214,0.721,0.127,0.721,0.387
		C29.387,34.048,29.002,34.136,28.794,34.136L28.794,34.136z"/>
	<path d="M43.642,29.391l-5.172-0.059c-0.97,0.004-1.381,0.722-1.506,0.986c-2.543,5.384-6.631,7.698-11.961,7.698
		c-11.785,0-15.923-8.527-16.196-16.997c-0.008-0.056-0.013-0.104-0.013-0.148c0-0.061,0-0.109,0-0.163
		c-0.003-0.208-0.008-0.421-0.008-0.631c0-8.721,4.002-17.938,16.217-17.938c5.33,0,9.417,2.311,11.961,7.703
		c0.125,0.259,0.537,0.98,1.506,0.984l5.172-0.064c0,0,0.839,0.149,0.338-0.67c-1.287-2.059-2.557-3.487-4.612-5.065
		c-4.716-3.626-10.795-4.861-16.653-4.861c-11.157,0-21.518,6.406-21.583,19.791c0,0.045,0,0.08,0,0.121
		c0,13.469,10.397,19.913,21.579,19.913c5.863,0,11.942-1.242,16.658-4.86c2.056-1.578,3.326-3.006,4.612-5.066
		C44.481,29.245,43.642,29.391,43.642,29.391L43.642,29.391z"/>
</g>
</svg>
