<?xml version="1.0" encoding="utf-8"?>
<!DOCTYPE svg PUBLIC "-//W3C//DTD SVG 1.1//EN" "http://www.w3.org/Graphics/SVG/1.1/DTD/svg11.dtd">
<svg version="1.1" id="Layer_1" xmlns="http://www.w3.org/2000/svg" xmlns:xlink="http://www.w3.org/1999/xlink" x="0px" y="0px" width="256px" height="40px" viewBox="0 0 256 40" enable-background="new 0 0 256 40" xml:space="preserve">
<g>
	<path d="M68.105,18.009c-1.694,0-1.811-0.042-1.811-1.144v-6.532c0-2.01,0.005-2.219,1.065-2.233
		c0.075,0.001,0.149,0.001,0.231,0.001h0.258h0.256h1.277c1.144,0,2.926,0.126,3.898,0.378c1.333,0.372,1.953,1.118,2.622,3.471
		c0.011,0.04,0.022,0.073,0.034,0.114h0.002c0.225,0.138,0.595,0.189,0.949,0.171c0.086,0.004,0.171,0.004,0.258,0
		c0.506,0.028,1.057-0.095,1.175-0.34c-0.254-1.817-0.505-5.149-0.674-5.869c-0.012,0.001-0.118,0.005-0.254,0.01
		c0-0.002-0.001-0.007-0.002-0.01c-0.013,0.001-0.119,0.005-0.256,0.01c-0.001-0.001-0.002-0.007-0.002-0.01
		c-0.035,0.005-0.743,0.024-0.908,0.036c-1.335,0.04-3.873,0.094-5.822,0.094h-6.519c-1.844,0-5.645-0.113-5.956-0.129l0,0
		c-0.005,0.001-0.007,0.007-0.013,0.01c-0.121-0.004-0.207-0.008-0.244-0.01l0,0c-0.004,0.001-0.007,0.007-0.012,0.01
		c-0.123-0.004-0.21-0.008-0.246-0.01h0c-0.334,0.17-0.383,0.927-0.075,1.225l0.675,0.081c0.01,0.001,0.017,0.002,0.028,0.004
		c1.945,0.258,1.809,0.442,1.809,4.893v15.696c0,4.451,0.136,4.6-1.809,4.854c-0.011,0.002-0.018,0.002-0.028,0.003l-0.934,0.121
		c-0.291,0.299-0.25,1.056,0.093,1.224l0,0c0.079-0.004,0.165-0.006,0.248-0.007c0.003,0.001,0.006,0.005,0.01,0.007l0,0
		c0.078-0.004,0.163-0.006,0.247-0.007c0.003,0.001,0.005,0.005,0.008,0.007h0.001c0.058-0.003,0.121-0.004,0.184-0.006
		c0.041,0.002,0.071,0.003,0.076,0.006c0.052-0.003,0.101-0.004,0.151-0.007c0.059,0.003,0.101,0.004,0.107,0.007
		c0.051-0.003,0.1-0.004,0.151-0.007c0.059,0.003,0.099,0.004,0.104,0.007c1.485-0.066,2.837-0.104,4.323-0.116
		c1.486,0.017,3.101,0.116,4.792,0.116c0.036,0,0.067-0.002,0.1-0.003c0.053,0.001,0.105,0.003,0.159,0.003
		c0.035,0,0.066-0.002,0.1-0.003c0.049,0.001,0.099,0.003,0.148,0.003c0.002,0,0.005,0,0.007,0h0l0,0
		c0.037,0,0.072-0.002,0.107-0.003c0.05,0.001,0.1,0.003,0.15,0.003c0.037,0,0.071-0.002,0.107-0.003
		c0.05,0.001,0.098,0.003,0.149,0.003c0,0,0,0,0.001,0c0,0,0,0,0.001,0c0.038,0,0.071-0.003,0.109-0.003
		c0.049,0.001,0.099,0.003,0.149,0.003c0.038,0,0.071-0.003,0.108-0.003c0.05,0.001,0.098,0.003,0.147,0.003
		c4.813,0,7.593-0.717,9.584-2.358c1.938-1.561,2.616-3.675,2.57-5.612C81.105,20.032,75.282,18.009,68.105,18.009L68.105,18.009z
		 M66.294,21.223L66.294,21.223c0-0.681,0.069-0.974,1.084-1.06c4.27,0.233,6.945,2.498,6.945,6.628c0,3.464-2.19,5.266-4.822,5.364
		c-2.884-0.099-3.208-1.609-3.208-5.117V21.223L66.294,21.223z"/>
	<path d="M107.783,32.782c-2.153-0.421-1.852-0.681-2.817-3.508l-6.081-17.674c-0.673-1.904-1.217-3.881-1.896-5.78
		c-0.17-0.217-0.384-0.341-0.72-0.341c-0.017,0-0.06,0-0.196,0c-0.001,0-0.01,0.008-0.013,0.01c-0.018-0.001-0.028-0.01-0.047-0.01
		c-0.017,0-0.206,0.008-0.209,0.01c-0.02,0-0.485-0.01-0.566-0.01c-0.056,0-0.748,0.824-1.654,1.435
		c-0.569,0.32-1.198,0.576-1.802,0.593c0.121,0.714-0.301,1.726-0.809,3.076l-5.786,15.021c-0.89,2.277-1.554,4.054-2.059,5.146
		c-0.642,1.393-0.847,1.729-2.07,1.946l-0.999,0.205h-0.002c-0.302,0.38-0.253,1.019,0.033,1.224h0
		c0.082-0.004,0.167-0.008,0.251-0.01c0.002,0.003,0.003,0.007,0.006,0.01h0.001c0.081-0.004,0.166-0.007,0.249-0.01
		c0.003,0.003,0.003,0.007,0.007,0.01h0c0.06-0.004,0.124-0.006,0.187-0.007c0.039,0.001,0.069,0.004,0.073,0.007
		c0.053-0.003,0.098-0.006,0.15-0.008c0.059,0.001,0.103,0.004,0.107,0.008c0.054-0.003,0.099-0.006,0.15-0.008
		c0.06,0.001,0.103,0.005,0.106,0.008c1.107-0.062,1.917-0.1,2.904-0.114c1.487,0.029,2.748,0.04,3.944,0.114
		c0.005-0.003,0.053-0.006,0.119-0.007c0.046,0.003,0.093,0.004,0.14,0.007c0.006-0.003,0.051-0.006,0.116-0.007
		c0.047,0.003,0.094,0.004,0.14,0.007c0,0,0,0,0,0c0.005-0.003,0.053-0.006,0.118-0.007c0.047,0.003,0.093,0.004,0.14,0.007
		c0.004-0.003,0.008-0.006,0.012-0.01c0.087,0.003,0.169,0.006,0.236,0.01c0.002,0,0.005,0,0.008,0c0,0,0.001,0,0.002,0
		c0.004-0.003,0.006-0.007,0.012-0.01c0.092,0.003,0.178,0.006,0.247,0.01c0.005-0.003,0.008-0.007,0.012-0.01
		c0.091,0.003,0.177,0.006,0.244,0.01c0.344-0.168,0.382-0.925,0.087-1.224l-1.225-0.205c-1.566-0.259-1.724-0.337-0.882-2.829
		l1.699-4.95c0.276-0.823,0.631-0.974,1.013-0.996h0.191h0.256h4.073h0.259h0.256c0.026,0,0.052-0.001,0.078-0.001
		c0.478,0.021,0.901,0.173,1.174,0.983l1.94,5.641c0.638,1.771,0.685,2.025-0.833,2.236l-0.676,0.121H97.18
		c-0.25,0.26-0.206,1.019,0.13,1.224h0.001c0.07-0.002,0.158-0.003,0.253-0.004c0.002,0.001,0.003,0.002,0.005,0.004h0
		c0.068-0.002,0.157-0.003,0.251-0.004c0.001,0.001,0.002,0.002,0.004,0.004h0c0.09-0.003,0.213-0.004,0.343-0.006
		c0.1,0.002,0.17,0.003,0.174,0.006c0.046-0.002,0.091-0.003,0.138-0.004c0.071,0,0.117,0.002,0.121,0.004
		c0.046-0.002,0.089-0.003,0.136-0.004c0.07,0,0.116,0.002,0.12,0.004c1.367-0.038,2.591-0.108,4.23-0.119
		c1.592,0.012,2.672,0.05,4.073,0.119c0.004-0.003,0.049-0.006,0.111-0.007c0.05,0.003,0.097,0.004,0.148,0.007
		c0.004-0.003,0.047-0.006,0.108-0.007c0.05,0.003,0.097,0.004,0.147,0.007c0.002-0.003,0.032-0.004,0.071-0.006
		c0.06,0.002,0.12,0.003,0.177,0.006c0.002,0,0.005,0,0.008,0c0.001,0,0.002,0,0.004,0c0.002-0.002,0.003-0.007,0.006-0.008
		c0.079,0.001,0.163,0.004,0.24,0.008c0.003,0,0.006,0,0.008,0c0.001,0,0.002,0,0.004,0c0.002-0.002,0.002-0.006,0.005-0.008
		c0.081,0.001,0.162,0.004,0.239,0.008c0.003,0,0.005,0,0.008,0c0.001,0,0.001,0,0.003,0c0.301-0.205,0.301-0.925-0.033-1.224
		L107.783,32.782L107.783,32.782z M94.686,21.506L94.686,21.506h-0.259h-2.842h-0.257h-0.033c-0.498-0.004-0.677-0.096-0.329-1.134
		l1.719-4.768c0.198-0.543,0.367-1.008,0.516-1.414c0.129,0.393,0.281,0.851,0.473,1.414l1.714,4.938
		c0.291,0.885-0.028,0.96-0.668,0.964C94.708,21.506,94.698,21.506,94.686,21.506L94.686,21.506z"/>
	<path d="M139.686,32.782c-1.988-0.257-1.857-0.385-1.857-4.857V12.229c0-4.471-0.131-4.51,1.857-4.853l0.76-0.125
		c0.303-0.211,0.258-1.055-0.078-1.225h-0.002c-0.004,0-0.01,0-0.014,0c-0.072,0.004-0.152,0.005-0.23,0.008
		c-0.002-0.003-0.006-0.007-0.01-0.008c-0.002,0-0.002,0-0.004,0c-0.004,0-0.008,0-0.012,0c-0.072,0.004-0.154,0.005-0.232,0.008
		c-0.004-0.003-0.006-0.007-0.012-0.008h-0.002c-0.004,0-0.008,0-0.01,0c-0.055,0.002-0.113,0.004-0.172,0.005
		c-0.039-0.001-0.07-0.004-0.074-0.005c-0.051,0.002-0.098,0.004-0.148,0.007c-0.061-0.003-0.104-0.005-0.107-0.007
		c-0.051,0.002-0.102,0.004-0.15,0.007c-0.059-0.002-0.104-0.005-0.107-0.007c-1.414,0.072-2.752,0.111-4.285,0.123
		c-1.625-0.009-3.08-0.047-4.807-0.123c-0.002,0.001-0.049,0.004-0.109,0.005c-0.049-0.003-0.096-0.004-0.146-0.005
		c-0.003,0.001-0.05,0.004-0.112,0.005c-0.05-0.003-0.097-0.004-0.146-0.005c-0.003,0.001-0.033,0.002-0.077,0.005
		c-0.062-0.003-0.123-0.003-0.181-0.005c-0.005,0.001-0.006,0.005-0.01,0.007c-0.084-0.002-0.167-0.005-0.248-0.007l0,0
		c-0.003,0.001-0.006,0.005-0.008,0.007c-0.084-0.002-0.17-0.005-0.249-0.007h-0.003c-0.336,0.17-0.374,1.014-0.077,1.225
		l0.919,0.125c0.01,0.002,0.018,0.003,0.027,0.003c1.961,0.252,1.83,0.399,1.83,4.85v4.852c0,1.177-0.131,1.267-2.273,1.267h-8.328
		c-2.159,0-2.277-0.09-2.277-1.267v-4.852c0-4.471-0.133-4.51,1.84-4.853l0.72-0.125c0.3-0.211,0.257-1.055-0.078-1.225
		c-0.002,0-0.003,0-0.004,0c-0.003,0-0.007,0-0.011,0c-0.073,0.004-0.153,0.005-0.231,0.008c-0.004-0.003-0.007-0.007-0.011-0.008
		c0,0-0.001,0-0.003,0c-0.003,0-0.007,0-0.011,0c-0.074,0.004-0.155,0.007-0.234,0.008c-0.003-0.003-0.005-0.007-0.008-0.008
		c-0.001,0-0.003,0-0.004,0c-0.004,0-0.008,0-0.011,0c-0.054,0.002-0.112,0.004-0.169,0.005c-0.042-0.001-0.072-0.004-0.077-0.005
		c-0.049,0.002-0.098,0.004-0.146,0.007c-0.06-0.002-0.103-0.005-0.109-0.007c-0.05,0.002-0.099,0.004-0.147,0.007
		c-0.061-0.002-0.106-0.005-0.111-0.007c-1.382,0.072-2.711,0.111-4.25,0.123c-1.641-0.009-3.15-0.047-4.791-0.123
		c-0.005,0.001-0.05,0.004-0.113,0.005c-0.048-0.003-0.095-0.004-0.144-0.005c-0.005,0.001-0.051,0.004-0.114,0.005
		c-0.047-0.003-0.095-0.004-0.144-0.005c-0.004,0.001-0.035,0.002-0.079,0.005c-0.061-0.001-0.124-0.003-0.181-0.005l0,0
		c-0.003,0.001-0.004,0.005-0.009,0.007c-0.084-0.002-0.168-0.005-0.248-0.007l0,0c-0.003,0.001-0.006,0.005-0.009,0.007
		c-0.084-0.002-0.17-0.005-0.249-0.007h0c-0.336,0.17-0.382,1.014-0.082,1.225l0.926,0.125c0.009,0.002,0.018,0.003,0.027,0.003
		c1.956,0.252,1.82,0.399,1.82,4.85v15.696c0,4.473-0.118,4.601-2.104,4.896l-0.332,0.082h-0.001
		c-0.297,0.299-0.254,1.056,0.081,1.224h0.001c0.077-0.004,0.163-0.007,0.247-0.008c0.004,0.001,0.007,0.006,0.011,0.008h0
		c0.077-0.004,0.161-0.007,0.246-0.008c0.004,0.001,0.006,0.006,0.011,0.008h0c0.057-0.003,0.119-0.004,0.18-0.007
		c0.042,0.003,0.074,0.004,0.078,0.007c0.051-0.003,0.102-0.004,0.153-0.007c0.059,0.001,0.1,0.004,0.106,0.007
		c0.051-0.003,0.101-0.004,0.152-0.007c0.058,0.001,0.099,0.004,0.104,0.007c1.383-0.071,2.753-0.11,4.333-0.119
		c1.59,0.009,3.03,0.048,4.916,0.119c0.005-0.003,0.047-0.004,0.104-0.006c0.054,0.002,0.1,0.003,0.155,0.006
		c0.004-0.003,0.045-0.004,0.103-0.006c0.053,0.002,0.099,0.003,0.153,0.006c0.004-0.002,0.033-0.004,0.071-0.004
		c0.059,0,0.119,0.001,0.176,0.004c0.003,0,0.007,0,0.01,0c0.001,0,0.002,0,0.003,0c0.003-0.002,0.005-0.004,0.008-0.007
		c0.079,0.001,0.161,0.004,0.237,0.007c0.004,0,0.007,0,0.009,0c0.001,0,0.002,0,0.004,0c0.002-0.002,0.005-0.004,0.007-0.007
		c0.079,0.001,0.159,0.004,0.236,0.007c0.002,0,0.006,0,0.009,0c0.002,0,0.003,0,0.003,0c0.342-0.168,0.385-0.925,0.087-1.224
		l-1.269-0.166c-1.973-0.257-1.84-0.34-1.84-4.813v-5.946c0-1.139,0.119-1.224,2.277-1.224h8.328c2.143,0,2.273,0.085,2.273,1.224
		v5.946c0,4.366,0.123,4.593-1.722,4.839c-0.048,0.007-0.087,0.014-0.136,0.019l-0.919,0.121c-0.297,0.299-0.259,1.056,0.077,1.224
		c0.003,0,0.003,0,0.004,0c0.078-0.004,0.164-0.006,0.247-0.007c0.003,0.001,0.005,0.005,0.009,0.007c0,0,0,0,0.004,0
		c0.077-0.004,0.16-0.006,0.244-0.007c0.002,0.001,0.005,0.005,0.01,0.007c0,0,0,0,0.001,0c0.057-0.003,0.119-0.004,0.181-0.006
		c0.043,0.002,0.073,0.004,0.076,0.006c0.053-0.003,0.098-0.004,0.148-0.006c0.061,0.002,0.107,0.003,0.111,0.006
		c0.051-0.003,0.096-0.004,0.146-0.006c0.061,0.002,0.105,0.003,0.109,0.006c1.602-0.071,3.016-0.107,4.662-0.116
		c1.582,0.009,2.992,0.045,4.588,0.116c0.004-0.003,0.049-0.004,0.109-0.006c0.051,0.002,0.096,0.003,0.146,0.006
		c0.006-0.003,0.049-0.004,0.111-0.006c0.049,0.002,0.096,0.003,0.146,0.006c0.004-0.002,0.031-0.004,0.072-0.006
		c0.055,0.002,0.109,0.003,0.162,0.004c0.006,0.002,0.014,0.002,0.021,0.002c0.002,0,0.002,0,0.004,0
		c0.002-0.002,0.004-0.006,0.008-0.007c0.074,0.001,0.152,0.003,0.223,0.005c0.008,0.002,0.016,0.002,0.021,0.002
		c0.002,0,0.004,0,0.004,0c0.006-0.002,0.006-0.006,0.01-0.007c0.076,0.001,0.15,0.003,0.223,0.005
		c0.008,0.002,0.014,0.002,0.021,0.002h0.004c0.34-0.168,0.375-0.925,0.078-1.224L139.686,32.782L139.686,32.782z"/>
	<path d="M168.24,31.172c-3.033-3.54-7.045-8.567-10.379-12.949c-0.461-0.635-0.379-0.885,0.127-1.393
		c1.643-1.646,3.33-3.379,5.152-5.186c2.912-2.828,3.539-3.842,7.457-4.394c0.42-0.211,0.336-1.096-0.125-1.225
		c-0.002,0-0.004,0-0.004,0c-0.004,0-0.006,0-0.008,0c-0.076,0.001-0.158,0.002-0.236,0.004c-0.004-0.001-0.006-0.004-0.008-0.004
		s-0.004,0-0.004,0c-0.004,0-0.006,0-0.01,0c-0.076,0.001-0.156,0.002-0.236,0.004c-0.004-0.001-0.004-0.004-0.01-0.004
		c-0.002,0-0.002,0-0.004,0s-0.006,0-0.006,0c-0.059,0.001-0.121,0.001-0.182,0.002c-0.033-0.001-0.064-0.001-0.066-0.002
		c-0.049,0.001-0.092,0.002-0.137,0.004c-0.066-0.001-0.113-0.002-0.121-0.004c-0.047,0.001-0.09,0.002-0.139,0.004
		c-0.063-0.001-0.113-0.002-0.119-0.004c-1.32,0.037-2.273,0.103-3.713,0.121c-1.197-0.012-2.168-0.051-3.596-0.121
		c-0.004,0.002-0.035,0.005-0.084,0.008c-0.061-0.003-0.111-0.006-0.174-0.008c-0.002,0.002-0.033,0.005-0.084,0.008
		c-0.061-0.003-0.111-0.006-0.172-0.008c-0.004,0.002-0.033,0.004-0.066,0.007c-0.063-0.003-0.129-0.005-0.193-0.007H161.1
		c-0.002,0.002-0.006,0.005-0.008,0.008c-0.08-0.001-0.166-0.004-0.246-0.008c-0.002,0-0.002,0-0.002,0
		c-0.004,0.002-0.004,0.005-0.006,0.008c-0.084-0.001-0.17-0.004-0.25-0.008c-0.002,0-0.004,0-0.004,0
		c-0.336,0.34-0.422,0.927-0.076,1.225l0.029,0.008l0.758,0.242c0.506,0.127,0.459,0.591-0.299,1.565
		c-0.51,0.671-1.729,2.067-2.275,2.614l-4.311,4.638c-0.852,0.938-1.648,1.74-2.199,2.025c-0.141-0.233-0.137-0.792-0.137-1.43
		v-4.685c0-4.471-0.129-4.51,1.855-4.853l0.719-0.125c0.291-0.211,0.254-1.055-0.086-1.225c0,0-0.002,0-0.004,0
		c-0.008,0-0.018,0-0.027,0.001c-0.082,0.004-0.15,0.006-0.213,0.007c-0.004-0.003-0.008-0.007-0.012-0.008
		c-0.002,0-0.002,0-0.002,0c-0.01,0-0.021,0-0.029,0.001c-0.059,0.002-0.111,0.004-0.16,0.006c-0.035-0.002-0.059-0.005-0.066-0.007
		c-0.002,0-0.002,0-0.004,0c-0.004,0-0.01,0-0.014,0c-0.006,0-0.014,0.001-0.018,0.001c-0.059,0.002-0.107,0.004-0.154,0.006
		c-0.037-0.002-0.063-0.005-0.07-0.007c-0.055,0.002-0.115,0.004-0.17,0.007c-0.047-0.002-0.08-0.005-0.088-0.007
		c-1.426,0.074-3.037,0.114-4.641,0.123c-1.641-0.009-3.031-0.049-4.531-0.123c-0.006,0.002-0.049,0.004-0.105,0.007
		c-0.051-0.003-0.1-0.005-0.15-0.007c-0.006,0.002-0.049,0.004-0.107,0.007c-0.051-0.003-0.1-0.005-0.152-0.007
		c-0.004,0.001-0.035,0.004-0.076,0.005c-0.061-0.001-0.123-0.003-0.182-0.005h-0.002c-0.004,0.001-0.004,0.005-0.008,0.008
		c-0.084-0.003-0.168-0.004-0.244-0.008c-0.002,0-0.004,0-0.004,0c-0.004,0.001-0.006,0.005-0.01,0.008
		c-0.084-0.003-0.168-0.004-0.244-0.008c-0.002,0-0.002,0-0.004,0c-0.328,0.17-0.377,0.927-0.086,1.225l0.807,0.125
		c0.049,0.007,0.09,0.014,0.135,0.021c1.834,0.277,1.711,0.467,1.711,4.832v15.696c0,4.366,0.123,4.593-1.711,4.874
		c-0.045,0.007-0.086,0.014-0.135,0.022l-0.59,0.082c-0.303,0.215-0.252,1.056,0.082,1.224c0.004,0,0.004,0,0.004,0
		c0.076-0.004,0.16-0.007,0.246-0.008c0.004,0.001,0.006,0.006,0.01,0.008c0,0,0,0,0.004,0c0.074-0.004,0.158-0.007,0.242-0.008
		c0.004,0.001,0.008,0.006,0.012,0.008l0,0c0.057-0.003,0.117-0.004,0.178-0.007c0.043,0.003,0.076,0.004,0.082,0.007
		c0.047-0.003,0.098-0.004,0.145-0.007c0.063,0.001,0.105,0.004,0.113,0.007c0.047-0.003,0.098-0.004,0.145-0.007
		c0.063,0.001,0.105,0.004,0.111,0.007c1.275-0.07,2.641-0.107,4.189-0.118c1.621,0.008,3.088,0.044,4.85,0.118
		c0.004-0.003,0.051-0.004,0.113-0.006c0.049,0.002,0.094,0.003,0.145,0.006c0.004-0.003,0.051-0.004,0.113-0.006
		c0.049,0.002,0.094,0.003,0.143,0.006c0.004-0.002,0.033-0.003,0.074-0.004c0.055,0,0.109,0.001,0.164,0.004
		c0.006,0,0.014,0,0.018,0c0.002,0,0.004,0,0.004,0c0.004-0.002,0.004-0.006,0.008-0.007c0.076,0.001,0.154,0.003,0.23,0.007
		c0.006,0,0.01,0,0.018,0h0.002c0.004-0.002,0.006-0.006,0.01-0.007c0.076,0.001,0.152,0.003,0.227,0.007c0.006,0,0.01,0,0.018,0
		c0,0,0.002,0,0.004,0c0.334-0.168,0.381-1.009,0.082-1.224l-1.055-0.121c-1.984-0.257-1.855-0.385-1.855-4.857v-5.363
		c0-0.76-0.004-1.492,0.221-1.736c0.078,0.036,0.156,0.073,0.223,0.138c1.559,1.598,6.488,8.143,6.488,8.143
		c2.969,3.676,5.244,5.234,9.291,5.234c0.068,0,0.127-0.003,0.189-0.004c0.023,0,0.045,0.004,0.066,0.004
		c0.07,0,0.129-0.003,0.189-0.004c0.012,0,0.02,0.001,0.029,0.001c0.014,0.002,0.025,0.003,0.039,0.003c0.002,0,0.002,0,0.002,0l0,0
		c0.076,0,0.143-0.001,0.213-0.003c0.014,0.002,0.027,0.003,0.043,0.003c0.074,0,0.143-0.001,0.211-0.003c0.004,0,0.01,0,0.014,0
		c0.01,0.002,0.02,0.003,0.029,0.003c0.002,0,0.002,0,0.004,0c0,0,0,0,0.002,0c0.074,0,0.141-0.001,0.211-0.003
		c0.016,0.002,0.029,0.003,0.047,0.003c0.025-0.001,0.045-0.003,0.07-0.004c0.031,0,0.064,0,0.094,0
		c0.029,0.001,0.061,0.005,0.092,0.004c0.139-0.008,0.264-0.013,0.385-0.019c0.26-0.013,0.492-0.027,0.699-0.047
		c0.551-0.047,0.85-0.105,1.195-0.188c0.115-0.211,0.115-0.677-0.096-0.846C169.996,32.948,169.127,32.233,168.24,31.172
		L168.24,31.172z"/>
	<path d="M210.703,26.606c-0.059-0.031-0.123-0.056-0.189-0.076c-0.031-0.007-0.055-0.02-0.086-0.025
		c-0.164-0.037-0.334-0.038-0.502-0.026c-0.088-0.008-0.17-0.007-0.256,0c-0.389-0.028-0.785,0.063-0.945,0.221
		c-1.119,2.598-3.205,5.851-7.984,5.997c-5.225-0.139-10.342-4.485-10.342-13.085c0-8.258,4.932-12.049,10.029-12.151
		c4.945,0.105,6.684,3.35,7.375,5.866c0.139,0.142,0.568,0.245,1.004,0.219c0.086,0.003,0.172,0.004,0.26,0
		c0.246,0.013,0.51-0.009,0.744-0.09c0.037-0.013,0.072-0.024,0.109-0.04c0.098-0.045,0.193-0.097,0.268-0.17
		c-0.418-3.126-0.496-5.615-0.584-6.583c-0.379-0.084-0.672-0.146-1.184-0.257c-0.057-0.013-0.117-0.024-0.176-0.037
		c-0.752-0.184-1.625-0.356-2.553-0.499c-1.314-0.224-2.668-0.389-4.072-0.389c-0.037,0-0.074,0.001-0.109,0.005
		c-0.049-0.002-0.1-0.005-0.146-0.005c-0.031,0-0.064,0.001-0.096,0.003c-0.053-0.001-0.104-0.003-0.152-0.003
		c-0.004,0-0.008,0-0.012,0c-0.002,0-0.002,0-0.002,0c-0.033,0-0.066,0.001-0.096,0.003c-0.055-0.001-0.107-0.003-0.16-0.003
		c-0.033,0-0.063,0.001-0.096,0.003c-0.055-0.001-0.109-0.003-0.16-0.003h-0.002l0,0c-0.033,0-0.063,0.001-0.096,0.003
		c-0.053-0.001-0.107-0.003-0.16-0.003c-0.031,0-0.063,0.003-0.094,0.003c-0.055-0.001-0.111-0.003-0.166-0.003
		c-4.262,0-8.521,1.226-11.641,3.586c-3.115,2.405-5.318,6.244-5.318,11.18c0,5.529,2.582,9.368,5.992,11.603
		c3.039,1.986,6.629,2.828,10.803,2.828c0.039,0,0.078-0.003,0.119-0.005c0.045,0,0.09,0.005,0.139,0.005
		c0.037,0,0.076-0.003,0.115-0.005c0.045,0.002,0.092,0.005,0.139,0.005h0.002l0,0c0.02,0,0.039-0.001,0.059-0.003
		c0.02,0,0.039,0,0.061-0.002c0.045,0.002,0.092,0.005,0.139,0.005c0.039,0,0.078-0.003,0.117-0.005
		c0.045,0.002,0.092,0.005,0.139,0.005l0,0c0.002,0,0.002,0,0.004,0c0,0,0,0,0.004,0c0.037-0.001,0.074-0.003,0.113-0.005
		c0.045,0.002,0.092,0.006,0.141,0.005c0.027-0.001,0.055-0.005,0.084-0.005c0.059,0.002,0.113,0.006,0.172,0.005
		c2.59-0.07,5.043-0.681,5.965-0.977c0.465-0.126,1.008-0.3,1.59-0.417c0.584-0.803,1.725-3.579,2.01-6.406
		c-0.051-0.085-0.123-0.15-0.203-0.208C210.779,26.644,210.742,26.625,210.703,26.606L210.703,26.606z"/>
	<path d="M223.945,7.376l0.916-0.125c0.309-0.298,0.26-1.055-0.076-1.225c0,0-0.002,0-0.004,0
		c-0.006,0-0.012,0-0.018,0c-0.074,0.004-0.15,0.005-0.227,0.007c-0.004-0.002-0.006-0.006-0.008-0.007h-0.004
		c-0.008,0-0.014,0-0.02,0c-0.072,0.004-0.15,0.005-0.227,0.007c-0.004-0.002-0.006-0.006-0.01-0.007c0,0-0.002,0-0.004,0
		c-0.004,0-0.012,0-0.018,0c-0.053,0.002-0.107,0.004-0.162,0.005c-0.043-0.003-0.07-0.004-0.076-0.005
		c-0.047,0.001-0.094,0.002-0.141,0.005c-0.063-0.001-0.109-0.004-0.113-0.005c-0.051,0.001-0.096,0.002-0.145,0.005
		c-0.063-0.001-0.109-0.004-0.115-0.005c-1.602,0.074-3.008,0.111-4.598,0.121c-1.635-0.01-3.049-0.047-4.66-0.121
		c-0.004,0.001-0.049,0.004-0.111,0.005c-0.049-0.003-0.096-0.004-0.145-0.005c-0.004,0.001-0.051,0.004-0.113,0.005
		c-0.051-0.001-0.096-0.004-0.145-0.005c-0.004,0.001-0.035,0.002-0.08,0.005c-0.059-0.001-0.121-0.003-0.18-0.005h-0.002
		c-0.004,0.001-0.006,0.005-0.008,0.007c-0.084-0.002-0.168-0.005-0.246-0.007h-0.002c-0.004,0.001-0.006,0.005-0.008,0.007
		c-0.084-0.002-0.17-0.005-0.248-0.007c-0.002,0-0.002,0-0.004,0c-0.322,0.17-0.371,0.927-0.078,1.225l0.924,0.125
		c0.057,0.007,0.107,0.014,0.16,0.022c1.814,0.243,1.693,0.487,1.693,4.831v15.696c0,4.345,0.121,4.59-1.693,4.837
		c-0.053,0.007-0.104,0.013-0.16,0.021l-0.924,0.121c-0.293,0.299-0.244,1.056,0.078,1.224c0.002,0,0.002,0,0.004,0
		c0.078-0.004,0.164-0.006,0.248-0.007c0.002,0.001,0.004,0.005,0.008,0.007h0.002c0.078-0.004,0.162-0.006,0.246-0.007
		c0.004,0.001,0.004,0.005,0.008,0.007h0.002c0.059-0.003,0.119-0.004,0.18-0.006c0.045,0.002,0.076,0.004,0.08,0.006
		c0.049-0.003,0.096-0.004,0.146-0.006c0.061,0.002,0.107,0.003,0.111,0.006c0.049-0.003,0.096-0.004,0.145-0.006
		c0.063,0.002,0.107,0.003,0.111,0.006c1.609-0.071,3.064-0.107,4.664-0.116c1.588,0.009,2.994,0.045,4.594,0.116
		c0.006-0.003,0.051-0.004,0.111-0.006c0.051,0.002,0.096,0.003,0.148,0.006c0.004-0.003,0.049-0.004,0.109-0.006
		c0.051,0.002,0.096,0.003,0.145,0.006c0.006-0.002,0.033-0.004,0.076-0.006c0.053,0.002,0.109,0.003,0.16,0.004
		c0.006,0.002,0.014,0.002,0.02,0.002c0.002,0,0.004,0,0.004,0c0.004-0.002,0.006-0.006,0.01-0.007
		c0.076,0.001,0.154,0.003,0.225,0.005c0.006,0.002,0.014,0.002,0.021,0.002h0.002c0.004-0.002,0.006-0.006,0.01-0.007
		c0.074,0.001,0.15,0.003,0.223,0.005c0.008,0.002,0.016,0.002,0.021,0.002c0.002,0,0.004,0,0.004,0
		c0.336-0.168,0.385-0.925,0.076-1.224l-0.916-0.121c-1.992-0.257-1.857-0.385-1.857-4.857V12.229
		C222.088,7.758,221.953,7.63,223.945,7.376L223.945,7.376z"/>
	<path d="M255.801,32.903l-0.92-0.121c-1.986-0.257-1.854-0.385-1.854-4.857V12.229c0-4.471-0.133-4.51,1.854-4.853
		l0.752-0.125c0.303-0.211,0.26-1.055-0.08-1.225c0,0-0.002,0-0.004,0c-0.004,0-0.006,0-0.01,0
		c-0.072,0.004-0.154,0.005-0.234,0.008c-0.002-0.003-0.004-0.007-0.008-0.008c0,0-0.002,0-0.004,0s-0.006,0-0.012,0
		c-0.074,0.004-0.152,0.005-0.232,0.008c-0.006-0.003-0.008-0.007-0.01-0.008c-0.002,0-0.004,0-0.004,0c-0.004,0-0.008,0-0.012,0
		c-0.055,0.002-0.113,0.004-0.168,0.005c-0.041-0.001-0.072-0.004-0.076-0.005c-0.051,0.002-0.1,0.004-0.148,0.007
		c-0.059-0.003-0.102-0.005-0.109-0.007c-0.051,0.002-0.098,0.004-0.146,0.007c-0.061-0.002-0.105-0.005-0.111-0.007
		c-1.41,0.072-2.744,0.111-4.285,0.123c-1.617-0.009-3.076-0.047-4.785-0.123c-0.004,0.001-0.051,0.004-0.113,0.005
		c-0.047-0.003-0.096-0.004-0.145-0.005c-0.004,0.001-0.051,0.004-0.113,0.005c-0.049-0.003-0.094-0.004-0.145-0.005
		c-0.004,0.001-0.033,0.002-0.078,0.005c-0.061-0.003-0.123-0.003-0.18-0.005c-0.002,0-0.002,0-0.002,0
		c-0.006,0.001-0.008,0.005-0.01,0.007c-0.082-0.002-0.166-0.005-0.244-0.007c-0.002,0-0.002,0-0.004,0
		c-0.002,0.001-0.004,0.005-0.01,0.007c-0.082-0.002-0.166-0.005-0.246-0.007h-0.002c-0.344,0.17-0.385,1.014-0.092,1.225
		l0.934,0.125c0.057,0.007,0.107,0.014,0.162,0.022c1.811,0.243,1.688,0.487,1.688,4.831v4.813c0,0.317-1.482,3.423-5.451,3.583
		c-3.486-0.082-5-2.02-5-5.269v-3.127c0-4.471-0.133-4.51,1.855-4.853l0.717-0.125c0.297-0.211,0.25-1.055-0.08-1.225
		c0,0-0.002,0-0.004,0s-0.008,0-0.01,0c-0.074,0.004-0.154,0.005-0.232,0.008c-0.004-0.003-0.006-0.007-0.01-0.008
		c0,0-0.002,0-0.004,0c-0.004,0-0.008,0-0.012,0c-0.074,0.004-0.154,0.007-0.234,0.008c-0.004-0.003-0.004-0.007-0.008-0.008
		c-0.002,0-0.004,0-0.004,0c-0.002,0-0.008,0-0.012,0c-0.053,0.002-0.111,0.004-0.168,0.005c-0.041-0.001-0.072-0.004-0.076-0.005
		c-0.051,0.002-0.098,0.004-0.148,0.007c-0.059-0.002-0.102-0.005-0.107-0.007c-0.051,0.002-0.1,0.004-0.148,0.007
		c-0.061-0.002-0.104-0.005-0.111-0.007c-1.381,0.072-2.711,0.111-4.246,0.123c-1.637-0.009-3.15-0.047-4.793-0.123
		c-0.004,0.001-0.051,0.004-0.111,0.005c-0.049-0.003-0.096-0.004-0.146-0.005c-0.004,0.001-0.049,0.004-0.111,0.005
		c-0.051-0.001-0.096-0.004-0.145-0.005c-0.006,0.001-0.035,0.002-0.078,0.005c-0.063-0.001-0.125-0.003-0.18-0.005
		c-0.002,0-0.002,0-0.006,0c0,0.001-0.004,0.005-0.008,0.007c-0.082-0.002-0.168-0.005-0.244-0.007c-0.002,0-0.002,0-0.004,0
		c-0.002,0.001-0.004,0.005-0.008,0.007c-0.084-0.002-0.168-0.005-0.248-0.007h-0.002c-0.336,0.17-0.377,1.014-0.08,1.225
		l0.924,0.125c0.057,0.007,0.109,0.014,0.162,0.022c1.813,0.243,1.693,0.488,1.693,4.831v3.967c0,4.602,3.748,7.936,9.018,7.936
		c0.037,0,0.137,0,0.256,0c0.041,0,0.139,0,0.258,0c0.156,0,0.35,0,0.518,0c0.104,0,0.197,0,0.256,0c0.105,0,0.197,0,0.258,0
		c2.637,0,4.863-1.366,6.316-2.564c0.002,0.049,0,0.091,0,0.091v6.267c0,4.345,0.123,4.59-1.688,4.837
		c-0.055,0.007-0.105,0.013-0.162,0.021l-0.934,0.121c-0.293,0.299-0.252,1.056,0.092,1.224h0.002
		c0.078-0.004,0.164-0.006,0.246-0.007c0.006,0.001,0.008,0.005,0.01,0.007c0.002,0,0.002,0,0.004,0
		c0.074-0.004,0.16-0.006,0.244-0.007c0.002,0.001,0.004,0.005,0.01,0.007c0,0,0,0,0.002,0c0.057-0.003,0.119-0.004,0.18-0.006
		c0.045,0.002,0.074,0.004,0.078,0.006c0.051-0.003,0.098-0.004,0.146-0.006c0.061,0.002,0.107,0.003,0.111,0.006
		c0.051-0.003,0.098-0.004,0.146-0.006c0.063,0.002,0.107,0.003,0.111,0.006c1.592-0.071,3.008-0.107,4.643-0.116
		c1.59,0.009,2.998,0.045,4.596,0.116c0.006-0.003,0.049-0.004,0.111-0.006c0.051,0.002,0.096,0.003,0.146,0.006
		c0.006-0.003,0.049-0.004,0.109-0.006c0.051,0.002,0.098,0.003,0.146,0.006c0.004-0.002,0.033-0.004,0.074-0.006
		c0.055,0.002,0.109,0.003,0.16,0.004c0.008,0.002,0.014,0.002,0.021,0.002c0.002,0,0.004,0,0.004,0
		c0.002-0.002,0.006-0.006,0.008-0.007c0.078,0.001,0.152,0.003,0.227,0.005c0.006,0.002,0.014,0.002,0.02,0.002
		c0,0,0.004,0,0.006,0c0.002-0.002,0.004-0.006,0.006-0.007c0.076,0.001,0.152,0.003,0.225,0.005
		c0.006,0.002,0.014,0.002,0.021,0.002h0.002C256.061,33.959,256.094,33.202,255.801,32.903L255.801,32.903z"/>
	<path d="M20.628,20.298c-1.211-0.703-1.94-2.167-1.94-5.121c0-1.672,0.471-3.556,1.844-3.899
		c0.036-0.011,0.06-0.024,0.096-0.038v-0.375c-0.096-0.007-0.197-0.01-0.304-0.01c-0.695,0-2.752,0.171-4.115,0.171
		c-1.378,0-3.435-0.171-4.122-0.171c-0.389,0-0.637,0.04-0.637,0.171c0,0.037,0.206,0.167,0.418,0.252
		c1.374,0.343,1.844,1.757,1.844,3.519v0.326c0,5.647,2.947,6.845,6.915,6.983V20.298L20.628,20.298z"/>
	<path d="M36.403,28.764c-1.931-0.942-2.314-2.188-2.314-4.285v-9.682c0-1.762,0.47-3.175,1.845-3.519
		c0.213-0.085,0.426-0.215,0.426-0.252c0-0.131-0.262-0.171-0.647-0.171c-0.684,0-2.737,0.171-4.113,0.171
		c-1.37,0-3.425-0.171-4.113-0.171c-0.034,0-0.06,0-0.097,0v0.465c1.286,0.389,1.727,1.771,1.727,3.477v9.682
		c0,1.862-0.308,3.05-1.727,3.956v0.101c0,0.255,0.006,0.483,0.028,0.696c1.316-0.016,1.913-0.12,4.183-0.12
		c2.442,0,2.959,0.128,4.499,0.128c0.436,0,0.692,0,0.692-0.128C36.79,28.979,36.656,28.894,36.403,28.764L36.403,28.764z"/>
	<path d="M28.794,34.136c-1.777,0-2.92-0.132-4.788-0.132c-1.865,0-3.051,0.132-4.783,0.132
		c-0.21,0-0.501-0.043-0.501-0.22c0-0.3,0.463-0.26,0.836-0.432c1.612-0.867,1.995-2.481,1.995-4.605V10.021
		c0-2.09-0.598-3.134-1.653-3.393c-0.172-0.044-0.463-0.128-0.463-0.262c0-0.13,0.122-0.344,0.5-0.344
		c0.262,0,2.718,0.174,4.069,0.174c1.36,0,3.388-0.174,3.646-0.174c0.203,0,0.593,0.043,0.593,0.344c0,0.178-0.43,0.307-0.683,0.482
		c-0.5,0.345-1.101,0.956-1.101,2.387v20.079c0,2.345,0.685,3.519,2.203,4.216c0.424,0.214,0.721,0.127,0.721,0.387
		C29.387,34.048,29.002,34.136,28.794,34.136L28.794,34.136z"/>
	<path d="M43.642,29.391l-5.172-0.059c-0.97,0.004-1.381,0.722-1.506,0.986c-2.543,5.384-6.631,7.698-11.961,7.698
		c-11.785,0-15.923-8.527-16.196-16.997c-0.008-0.056-0.013-0.104-0.013-0.148c0-0.061,0-0.109,0-0.163
		c-0.003-0.208-0.008-0.421-0.008-0.631c0-8.721,4.002-17.938,16.217-17.938c5.33,0,9.417,2.311,11.961,7.703
		c0.125,0.259,0.537,0.98,1.506,0.984l5.172-0.064c0,0,0.839,0.149,0.338-0.67c-1.287-2.059-2.557-3.487-4.612-5.065
		c-4.716-3.626-10.795-4.861-16.653-4.861c-11.157,0-21.518,6.406-21.583,19.791c0,0.045,0,0.08,0,0.121
		c0,13.469,10.397,19.913,21.579,19.913c5.863,0,11.942-1.242,16.658-4.86c2.056-1.578,3.326-3.006,4.612-5.066
		C44.481,29.245,43.642,29.391,43.642,29.391L43.642,29.391z"/>
</g>
</svg>
