<?xml version="1.0" encoding="iso-8859-1"?>
<!DOCTYPE svg PUBLIC "-//W3C//DTD SVG 1.1//EN" "http://www.w3.org/Graphics/SVG/1.1/DTD/svg11.dtd" [
	<!ENTITY ns_svg "http://www.w3.org/2000/svg">
	<!ENTITY ns_xlink "http://www.w3.org/1999/xlink">
]>
<svg  version="1.1" xmlns="&ns_svg;" xmlns:xlink="&ns_xlink;" width="283.465" height="141.731"
	 viewBox="0 0 283.465 141.731" overflow="visible" enable-background="new 0 0 283.465 141.731" xml:space="preserve">
<path d="M15.974,118.003c-2.411,0-2.577-0.063-2.577-1.629v-9.301c0-2.861,0.006-3.156,1.515-3.178
	c0.107,0,0.212,0.002,0.329,0.002h0.368h0.365h1.816c1.629,0,4.167,0.18,5.55,0.539c1.897,0.529,2.781,1.59,3.732,4.941
	c0.017,0.057,0.032,0.104,0.048,0.16l0.002,0.002c0.322,0.195,0.848,0.268,1.352,0.244c0.123,0.006,0.243,0.006,0.366,0
	c0.72,0.039,1.505-0.137,1.674-0.484c-0.362-2.588-0.72-7.332-0.959-8.355c-0.018,0.002-0.169,0.008-0.362,0.014
	c-0.001-0.004-0.002-0.01-0.003-0.014c-0.019,0.002-0.17,0.008-0.365,0.014c-0.001-0.004-0.002-0.01-0.003-0.014
	c-0.049,0.006-1.058,0.035-1.294,0.051c-1.899,0.057-5.512,0.133-8.287,0.133H9.962c-2.625,0-8.037-0.16-8.478-0.184h0
	c-0.006,0.002-0.011,0.01-0.017,0.014c-0.171-0.008-0.295-0.012-0.347-0.014h0c-0.006,0.002-0.011,0.01-0.017,0.014
	c-0.174-0.008-0.299-0.012-0.351-0.014h0c-0.476,0.24-0.545,1.32-0.107,1.742l0.961,0.117c0.014,0.002,0.025,0.004,0.039,0.004
	c2.77,0.367,2.575,0.631,2.575,6.965v22.346c0,6.338,0.194,6.549-2.575,6.912c-0.014,0-0.025,0.002-0.039,0.004l-1.329,0.174
	c-0.414,0.424-0.354,1.502,0.131,1.74h0c0.112-0.006,0.234-0.01,0.354-0.01c0.004,0.002,0.007,0.008,0.013,0.01h0
	c0.112-0.006,0.231-0.01,0.351-0.01c0.005,0.002,0.008,0.008,0.013,0.01H1.14c0.083-0.002,0.172-0.006,0.261-0.008
	c0.059,0.002,0.102,0.006,0.108,0.008c0.074-0.002,0.144-0.006,0.216-0.01c0.084,0.002,0.145,0.008,0.152,0.01
	c0.073-0.002,0.143-0.006,0.215-0.01c0.083,0.002,0.141,0.008,0.148,0.01c2.115-0.096,4.04-0.148,6.154-0.166
	c2.116,0.025,4.415,0.166,6.823,0.166c0.051,0,0.096-0.002,0.143-0.002c0.075,0,0.148,0.002,0.225,0.002
	c0.05,0,0.095-0.002,0.142-0.002c0.072,0,0.141,0.002,0.213,0.002c0.003,0,0.006,0,0.009,0h0h0c0.054,0,0.103-0.002,0.153-0.002
	c0.071,0,0.142,0.002,0.214,0.002c0.052,0,0.102-0.002,0.152-0.002c0.07,0,0.14,0.002,0.212,0.002h0c0.001,0,0.002,0,0.003,0
	c0.055,0,0.102-0.002,0.155-0.002c0.071,0,0.142,0.002,0.213,0.002c0.054,0,0.101-0.002,0.154-0.002c0.07,0,0.139,0.002,0.21,0.002
	c6.851,0,10.81-1.02,13.644-3.359c2.757-2.221,3.724-5.229,3.659-7.986C34.481,120.884,26.19,118.003,15.974,118.003L15.974,118.003
	z M13.397,122.579L13.397,122.579c0-0.973,0.097-1.387,1.542-1.51c6.08,0.332,9.887,3.555,9.887,9.436
	c0,4.932-3.117,7.496-6.865,7.637c-4.105-0.141-4.564-2.291-4.564-7.281V122.579L13.397,122.579z"/>
<path fill="#8B5A22" d="M72.459,139.034c-3.066-0.6-2.635-0.971-4.01-4.994l-8.657-25.16c-0.959-2.711-1.733-5.525-2.7-8.23
	c-0.242-0.307-0.546-0.484-1.025-0.484c-0.024,0-0.086,0-0.278,0c-0.002,0-0.015,0.012-0.019,0.014
	c-0.026,0-0.042-0.014-0.068-0.014c-0.023,0-0.293,0.014-0.297,0.016c-0.027-0.002-0.691-0.016-0.806-0.016
	c-0.08,0-1.065,1.176-2.354,2.043c-0.812,0.455-1.706,0.82-2.566,0.846c0.173,1.016-0.427,2.457-1.151,4.379l-8.237,21.385
	c-1.267,3.242-2.211,5.77-2.931,7.324c-0.914,1.984-1.206,2.461-2.947,2.773l-1.422,0.291l-0.002,0.002
	c-0.432,0.539-0.362,1.447,0.046,1.74h0.001c0.116-0.008,0.238-0.012,0.357-0.014c0.004,0.004,0.006,0.012,0.009,0.014h0.001
	c0.114-0.008,0.236-0.01,0.354-0.014c0.004,0.004,0.005,0.012,0.01,0.014h0.001c0.085-0.006,0.175-0.008,0.266-0.01
	c0.056,0.002,0.099,0.008,0.104,0.01c0.076-0.006,0.14-0.008,0.215-0.012c0.083,0.002,0.146,0.006,0.152,0.012
	c0.077-0.006,0.14-0.008,0.214-0.012c0.084,0.002,0.145,0.006,0.151,0.012c1.576-0.09,2.729-0.141,4.134-0.162
	c2.117,0.043,3.911,0.057,5.615,0.162c0.008-0.002,0.077-0.008,0.169-0.01c0.066,0.004,0.134,0.008,0.199,0.01
	c0.008-0.002,0.074-0.008,0.166-0.01c0.066,0.002,0.133,0.008,0.198,0.01c0,0,0,0,0.002,0c0.007-0.002,0.075-0.008,0.167-0.01
	c0.066,0.002,0.134,0.008,0.199,0.01c0.006-0.002,0.011-0.01,0.017-0.014c0.125,0.004,0.242,0.006,0.336,0.012
	c0.004,0.002,0.008,0.002,0.011,0.002c0.001,0,0.002,0,0.003,0c0.006-0.002,0.01-0.01,0.017-0.014
	c0.131,0.004,0.253,0.006,0.352,0.014c0.006-0.002,0.011-0.01,0.017-0.014c0.129,0.004,0.251,0.006,0.348,0.014
	c0.489-0.238,0.543-1.316,0.124-1.74l-1.744-0.293c-2.23-0.369-2.454-0.48-1.256-4.029l2.418-7.045
	c0.393-1.172,0.898-1.387,1.442-1.418h0.272h0.365h5.798h0.368h0.364c0.038,0,0.075-0.002,0.112-0.002
	c0.678,0.029,1.282,0.244,1.671,1.4l2.762,8.027c0.908,2.523,0.974,2.885-1.187,3.186l-0.961,0.174h-0.003
	c-0.354,0.371-0.292,1.447,0.186,1.74l0,0c0.099-0.002,0.225-0.006,0.361-0.008c0.002,0.002,0.004,0.006,0.007,0.008l0,0
	c0.097-0.002,0.224-0.006,0.357-0.006c0.002,0,0.004,0.004,0.006,0.006h0.001c0.129-0.002,0.304-0.006,0.488-0.008
	c0.141,0.002,0.241,0.006,0.247,0.008c0.067-0.002,0.13-0.006,0.196-0.008c0.102,0.002,0.168,0.006,0.172,0.008
	c0.066-0.002,0.128-0.006,0.194-0.008c0.101,0.002,0.166,0.006,0.17,0.008c1.946-0.053,3.688-0.154,6.023-0.17
	c2.267,0.018,3.804,0.072,5.798,0.17c0.006-0.002,0.07-0.008,0.158-0.01c0.071,0.002,0.139,0.008,0.21,0.01
	c0.006-0.002,0.069-0.008,0.155-0.01c0.071,0.002,0.138,0.008,0.21,0.01c0.003-0.002,0.045-0.006,0.101-0.01
	c0.084,0.002,0.17,0.004,0.251,0.008c0.004,0,0.008,0.002,0.012,0.002c0.001,0,0.002,0,0.004,0c0.004-0.002,0.004-0.01,0.008-0.012
	c0.114,0.002,0.232,0.006,0.343,0.01c0.004,0,0.007,0.002,0.011,0.002c0.002,0,0.003,0,0.005,0c0.003-0.002,0.004-0.01,0.007-0.012
	c0.115,0.002,0.23,0.006,0.341,0.01c0.003,0,0.007,0.002,0.012,0.002c0.001,0,0.002,0,0.004,0c0.428-0.293,0.428-1.316-0.047-1.74
	L72.459,139.034L72.459,139.034z M53.813,122.981L53.813,122.981h-0.368h-4.047h-0.365h-0.046c-0.708-0.006-0.964-0.137-0.467-1.615
	l2.446-6.787c0.282-0.775,0.524-1.436,0.736-2.012c0.185,0.557,0.401,1.211,0.672,2.012l2.441,7.029
	c0.414,1.26-0.041,1.367-0.952,1.373C53.846,122.981,53.831,122.981,53.813,122.981L53.813,122.981z"/>
<path fill="#8B5A22" d="M117.876,139.034c-2.83-0.365-2.644-0.547-2.644-6.916v-22.346c0-6.365-0.186-6.418,2.644-6.906l1.083-0.18
	c0.43-0.299,0.366-1.502-0.11-1.742c-0.003,0-0.004,0-0.005,0c-0.006,0-0.012,0-0.017,0c-0.105,0.004-0.219,0.008-0.33,0.01
	c-0.005-0.002-0.009-0.008-0.015-0.01c0,0-0.002,0-0.005,0c-0.004,0-0.011,0-0.017,0c-0.104,0.004-0.22,0.008-0.334,0.01
	c-0.005-0.002-0.007-0.008-0.013-0.01c0,0-0.002,0-0.005,0c-0.004,0-0.01,0-0.015,0c-0.076,0.004-0.159,0.006-0.242,0.008
	c-0.057-0.004-0.099-0.006-0.107-0.008c-0.07,0.002-0.138,0.006-0.21,0.008c-0.085-0.002-0.146-0.006-0.154-0.008
	c-0.071,0.002-0.142,0.006-0.213,0.01c-0.083-0.004-0.146-0.008-0.154-0.01c-2.012,0.102-3.916,0.158-6.101,0.174
	c-2.312-0.012-4.383-0.066-6.839-0.174c-0.005,0.002-0.072,0.006-0.158,0.008c-0.07-0.004-0.137-0.006-0.207-0.008
	c-0.006,0.002-0.071,0.006-0.16,0.008c-0.07-0.004-0.137-0.006-0.208-0.008c-0.005,0.002-0.048,0.004-0.111,0.006
	c-0.088-0.002-0.175-0.004-0.258-0.006c-0.006,0.002-0.008,0.006-0.013,0.01c-0.119-0.002-0.238-0.006-0.352-0.01h-0.001
	c-0.004,0.002-0.007,0.006-0.011,0.01c-0.119-0.002-0.242-0.006-0.355-0.01h-0.002c-0.479,0.24-0.534,1.443-0.111,1.742l1.308,0.18
	c0.014,0,0.026,0.002,0.039,0.004c2.791,0.359,2.605,0.568,2.605,6.902v6.908c0,1.678-0.188,1.803-3.236,1.803H90.987
	c-3.074,0-3.243-0.125-3.243-1.803v-6.908c0-6.365-0.188-6.418,2.62-6.906l1.024-0.18c0.427-0.299,0.366-1.502-0.112-1.742
	c0,0-0.003,0-0.005,0c-0.005,0-0.011,0-0.015,0c-0.105,0.004-0.218,0.008-0.331,0.01c-0.005-0.002-0.01-0.008-0.014-0.01
	c-0.001,0-0.003,0-0.005,0c-0.005,0-0.011,0-0.016,0c-0.105,0.006-0.22,0.008-0.333,0.01c-0.005-0.002-0.009-0.008-0.014-0.01
	c-0.001,0-0.003,0-0.005,0c-0.006,0-0.011,0-0.016,0c-0.076,0.004-0.159,0.006-0.241,0.008c-0.059-0.002-0.101-0.006-0.108-0.008
	c-0.07,0.002-0.14,0.006-0.209,0.01c-0.085-0.004-0.147-0.008-0.155-0.01c-0.07,0.002-0.141,0.006-0.21,0.01
	c-0.085-0.004-0.15-0.008-0.158-0.01c-1.967,0.102-3.859,0.158-6.051,0.174c-2.337-0.012-4.484-0.066-6.821-0.174
	c-0.006,0.002-0.071,0.006-0.16,0.008c-0.069-0.004-0.136-0.006-0.205-0.008c-0.007,0.002-0.073,0.006-0.163,0.008
	c-0.069-0.004-0.135-0.006-0.205-0.008c-0.006,0.002-0.049,0.004-0.113,0.006c-0.087-0.002-0.175-0.004-0.256-0.006h0
	c-0.004,0.002-0.007,0.006-0.013,0.01c-0.12-0.002-0.241-0.006-0.352-0.01h0c-0.005,0.002-0.008,0.006-0.013,0.01
	c-0.12-0.002-0.242-0.006-0.354-0.01h0c-0.479,0.24-0.544,1.443-0.116,1.742l1.317,0.18c0.013,0,0.025,0.002,0.039,0.004
	c2.784,0.359,2.592,0.568,2.592,6.902v22.346c0,6.369-0.169,6.551-2.996,6.969l-0.473,0.121h0c-0.424,0.424-0.362,1.502,0.115,1.74
	h0c0.11-0.006,0.231-0.01,0.352-0.012c0.006,0.002,0.009,0.01,0.015,0.012h0.001c0.109-0.006,0.23-0.01,0.35-0.012
	c0.005,0.002,0.009,0.01,0.015,0.012h0c0.081-0.006,0.17-0.008,0.258-0.01c0.059,0.002,0.105,0.008,0.111,0.01
	c0.072-0.002,0.145-0.008,0.217-0.01c0.083,0.002,0.144,0.008,0.151,0.01c0.072-0.002,0.144-0.008,0.216-0.01
	c0.083,0.002,0.141,0.008,0.149,0.01c1.969-0.102,3.918-0.156,6.167-0.17c2.264,0.014,4.313,0.068,6.998,0.17
	c0.007-0.002,0.066-0.006,0.149-0.008c0.076,0.002,0.141,0.006,0.22,0.008c0.005-0.002,0.064-0.006,0.146-0.008
	c0.075,0.002,0.141,0.006,0.218,0.008c0.005-0.002,0.047-0.006,0.101-0.008c0.083,0.002,0.169,0.006,0.25,0.006
	c0.004,0.002,0.009,0.002,0.013,0.002c0.002,0,0.003,0,0.005,0c0.005-0.002,0.007-0.008,0.011-0.01
	c0.113,0.002,0.229,0.004,0.339,0.008c0.004,0.002,0.009,0.002,0.013,0.002c0.002,0,0.004,0,0.006,0
	c0.004-0.002,0.007-0.008,0.011-0.01c0.112,0.002,0.225,0.004,0.335,0.008c0.004,0.002,0.009,0.002,0.013,0.002
	c0.001,0,0.003,0,0.004,0c0.487-0.238,0.548-1.316,0.124-1.74l-1.806-0.238c-2.809-0.367-2.62-0.482-2.62-6.852v-8.465
	c0-1.621,0.169-1.74,3.243-1.74h11.856c3.049,0,3.236,0.119,3.236,1.74v8.465c0,6.217,0.176,6.539-2.452,6.891
	c-0.067,0.008-0.125,0.018-0.193,0.025l-1.308,0.174c-0.423,0.424-0.368,1.502,0.111,1.74c0.003,0,0.003,0,0.004,0
	c0.112-0.006,0.232-0.01,0.352-0.01c0.004,0.002,0.008,0.008,0.013,0.01c0.001,0,0.001,0,0.004,0c0.112-0.006,0.23-0.01,0.35-0.01
	c0.003,0.002,0.007,0.008,0.013,0.01c0,0,0.001,0,0.002,0c0.081-0.002,0.17-0.006,0.257-0.008c0.063,0.002,0.105,0.006,0.11,0.008
	c0.072-0.002,0.139-0.006,0.21-0.01c0.087,0.002,0.151,0.008,0.158,0.01c0.072-0.002,0.138-0.006,0.209-0.01
	c0.086,0.002,0.149,0.008,0.155,0.01c2.281-0.102,4.294-0.152,6.637-0.166c2.252,0.014,4.261,0.064,6.529,0.166
	c0.007-0.002,0.072-0.008,0.158-0.01c0.072,0.004,0.138,0.008,0.21,0.01c0.007-0.002,0.069-0.008,0.157-0.01
	c0.07,0.004,0.137,0.008,0.208,0.01c0.005-0.002,0.046-0.006,0.106-0.008c0.076,0.002,0.154,0.002,0.228,0.006
	c0.011,0,0.021,0,0.031,0.002c0.002,0,0.002,0,0.005,0c0.005-0.002,0.007-0.008,0.013-0.01c0.105,0,0.217,0.004,0.318,0.008
	c0.01,0,0.021,0,0.03,0.002c0.003,0,0.004,0,0.005,0c0.006-0.002,0.008-0.008,0.013-0.01c0.108,0.002,0.216,0.004,0.318,0.008
	c0.01,0,0.02,0,0.031,0.002c0.001,0,0.004,0,0.005,0c0.484-0.238,0.535-1.316,0.112-1.74L117.876,139.034L117.876,139.034z"/>
<path fill="#8B5A22" d="M158.526,136.743c-4.317-5.041-10.028-12.197-14.773-18.436c-0.654-0.906-0.539-1.26,0.181-1.982
	c2.337-2.342,4.741-4.811,7.332-7.383c4.148-4.025,5.04-5.469,10.617-6.256c0.599-0.299,0.479-1.559-0.178-1.742
	c-0.002,0-0.003,0-0.006,0s-0.008,0-0.01,0c-0.109,0.002-0.225,0.004-0.337,0.006c-0.004-0.002-0.008-0.006-0.012-0.006
	c-0.002,0-0.005,0-0.007,0c-0.003,0-0.007,0-0.01,0c-0.109,0.002-0.225,0.004-0.339,0.006c-0.005-0.002-0.007-0.006-0.013-0.006
	c-0.002,0-0.005,0-0.007,0c-0.003,0-0.007,0-0.008,0c-0.084,0.002-0.172,0.002-0.259,0.004c-0.048-0.002-0.091-0.004-0.096-0.004
	c-0.068,0-0.129,0.004-0.195,0.006c-0.091-0.002-0.16-0.004-0.17-0.006c-0.067,0-0.129,0.004-0.196,0.006
	c-0.092-0.002-0.162-0.004-0.172-0.006c-1.879,0.053-3.237,0.146-5.286,0.172c-1.702-0.02-3.085-0.074-5.118-0.172
	c-0.004,0.004-0.05,0.008-0.118,0.01c-0.086-0.004-0.158-0.006-0.249-0.01c-0.003,0.004-0.047,0.008-0.117,0.01
	c-0.088-0.004-0.16-0.006-0.248-0.01c-0.004,0.002-0.045,0.006-0.092,0.008c-0.092-0.002-0.186-0.004-0.276-0.008
	c-0.002,0-0.004,0-0.004,0c-0.003,0.002-0.007,0.008-0.008,0.012c-0.117-0.004-0.238-0.008-0.354-0.012c-0.001,0-0.002,0-0.003,0
	c-0.003,0.002-0.006,0.008-0.008,0.012c-0.119-0.004-0.24-0.008-0.356-0.012c-0.002,0-0.003,0-0.004,0
	c-0.478,0.484-0.602,1.32-0.11,1.742l0.043,0.014l1.076,0.344c0.723,0.18,0.656,0.842-0.422,2.229
	c-0.726,0.955-2.461,2.941-3.238,3.719l-6.138,6.605c-1.211,1.334-2.347,2.479-3.131,2.883c-0.201-0.332-0.195-1.127-0.195-2.037
	v-6.67c0-6.365-0.185-6.418,2.642-6.906l1.023-0.18c0.415-0.299,0.362-1.502-0.122-1.742c-0.002,0-0.003,0-0.005,0
	c-0.013,0-0.026,0-0.04,0c-0.116,0.006-0.216,0.01-0.305,0.012c-0.005-0.004-0.01-0.01-0.015-0.012c-0.003,0-0.003,0-0.005,0
	c-0.013,0-0.028,0-0.04,0c-0.085,0.006-0.158,0.008-0.228,0.01c-0.048-0.004-0.084-0.006-0.094-0.01l0,0c-0.002,0-0.004,0-0.005,0
	c-0.008,0-0.014,0-0.021,0c-0.009,0-0.018,0-0.026,0c-0.082,0.006-0.15,0.008-0.219,0.01c-0.052-0.004-0.089-0.006-0.098-0.01
	c-0.079,0.002-0.165,0.006-0.244,0.01c-0.066-0.002-0.114-0.006-0.124-0.01c-2.032,0.105-4.327,0.162-6.608,0.176
	c-2.334-0.014-4.315-0.07-6.449-0.176c-0.008,0.002-0.068,0.006-0.15,0.008c-0.072-0.002-0.143-0.006-0.214-0.008
	c-0.008,0.002-0.069,0.006-0.153,0.008c-0.072-0.002-0.143-0.006-0.216-0.008c-0.005,0.002-0.051,0.006-0.109,0.008
	c-0.087-0.002-0.175-0.006-0.258-0.008h-0.003c-0.005,0.002-0.007,0.008-0.014,0.01c-0.117-0.002-0.237-0.006-0.348-0.01
	c-0.001,0-0.003,0-0.003,0c-0.004,0.002-0.01,0.008-0.013,0.01c-0.121-0.002-0.239-0.006-0.351-0.01c-0.002,0-0.002,0-0.004,0
	c-0.466,0.24-0.535,1.32-0.122,1.742l1.149,0.18c0.067,0.01,0.128,0.018,0.192,0.027c2.608,0.398,2.434,0.666,2.434,6.879v22.346
	c0,6.215,0.175,6.539-2.434,6.939c-0.064,0.01-0.125,0.02-0.192,0.029l-0.841,0.121c-0.431,0.303-0.359,1.502,0.119,1.74
	c0.001,0,0.002,0,0.003,0c0.108-0.008,0.229-0.01,0.351-0.012c0.005,0.002,0.008,0.01,0.015,0.012c0.001,0,0.001,0,0.004,0
	c0.105-0.006,0.226-0.01,0.346-0.012c0.005,0.002,0.009,0.01,0.016,0.012c0,0,0,0,0.002,0c0.077-0.006,0.165-0.008,0.251-0.01
	c0.063,0.002,0.108,0.008,0.115,0.01c0.068-0.002,0.141-0.008,0.209-0.01c0.088,0.002,0.15,0.008,0.159,0.01
	c0.068-0.002,0.14-0.008,0.208-0.01c0.087,0.002,0.148,0.008,0.156,0.01c1.817-0.1,3.76-0.152,5.965-0.168
	c2.307,0.012,4.395,0.063,6.904,0.168c0.005-0.002,0.071-0.006,0.161-0.008c0.07,0.002,0.135,0.006,0.207,0.008
	c0.005-0.002,0.07-0.006,0.159-0.008c0.071,0.002,0.134,0.006,0.206,0.008c0.004-0.002,0.046-0.006,0.103-0.008
	c0.079,0.002,0.158,0.006,0.235,0.006c0.009,0,0.018,0,0.025,0.002c0.003,0,0.004,0,0.005,0c0.005-0.002,0.008-0.008,0.012-0.01
	c0.109,0.002,0.22,0.004,0.326,0.008c0.009,0,0.017,0,0.025,0.002c0.001,0,0.004,0,0.005,0c0.004-0.002,0.007-0.008,0.012-0.01
	c0.107,0.002,0.218,0.004,0.322,0.008c0.01,0,0.017,0,0.027,0.002c0.001,0,0.002,0,0.005,0c0.475-0.238,0.541-1.438,0.116-1.74
	l-1.501-0.174c-2.826-0.365-2.642-0.547-2.642-6.916v-7.633c0-1.084-0.005-2.125,0.314-2.475c0.112,0.053,0.223,0.105,0.316,0.199
	c2.219,2.275,9.239,11.592,9.239,11.592c4.226,5.232,7.465,7.449,13.225,7.449c0.1,0,0.182-0.002,0.271-0.002
	c0.032,0,0.063,0.002,0.096,0.002c0.099,0,0.183-0.002,0.269-0.002c0.016,0,0.027,0,0.041,0c0.019,0.002,0.035,0.002,0.055,0.002
	c0.002,0,0.002,0,0.002,0c0.001,0,0.001,0,0.002,0c0.107,0,0.203,0,0.304-0.002c0.02,0.002,0.039,0.002,0.06,0.002
	c0.107,0,0.204,0,0.304-0.002c0.005,0,0.012,0,0.017,0c0.016,0.002,0.029,0.002,0.044,0.002c0.003,0,0.003,0,0.005,0
	c0,0,0,0,0.002,0c0.106,0,0.201,0,0.301-0.002c0.021,0.002,0.043,0.004,0.066,0.002c0.036,0,0.065-0.002,0.101-0.002
	c0.044-0.002,0.091-0.002,0.133-0.004c0.043,0.004,0.085,0.008,0.131,0.006c0.198-0.008,0.375-0.018,0.548-0.025
	c0.37-0.018,0.7-0.039,0.996-0.066c0.785-0.066,1.21-0.148,1.701-0.268c0.164-0.301,0.164-0.963-0.136-1.203
	C161.028,139.269,159.79,138.253,158.526,136.743L158.526,136.743z"/>
<path fill="#8B5A22" d="M218.981,130.239c-0.086-0.043-0.176-0.078-0.271-0.105c-0.043-0.01-0.078-0.029-0.121-0.035
	c-0.232-0.053-0.478-0.057-0.715-0.039c-0.125-0.01-0.244-0.01-0.366,0c-0.554-0.039-1.117,0.09-1.345,0.314
	c-1.595,3.699-4.561,8.328-11.367,8.539c-7.439-0.199-14.723-6.387-14.723-18.629c0-11.758,7.02-17.15,14.278-17.299
	c7.04,0.15,9.515,4.771,10.498,8.352c0.197,0.201,0.81,0.346,1.432,0.311c0.122,0.006,0.243,0.006,0.367,0
	c0.351,0.018,0.729-0.012,1.061-0.127c0.054-0.018,0.104-0.035,0.153-0.059c0.143-0.063,0.276-0.139,0.384-0.24
	c-0.597-4.451-0.707-7.994-0.831-9.373c-0.539-0.119-0.959-0.209-1.686-0.367c-0.081-0.018-0.167-0.033-0.25-0.051
	c-1.072-0.264-2.313-0.506-3.634-0.711c-1.871-0.318-3.801-0.555-5.798-0.555c-0.052,0-0.104,0.004-0.156,0.006
	c-0.07,0-0.14-0.006-0.208-0.006c-0.045,0-0.091,0.004-0.137,0.006c-0.073-0.002-0.146-0.004-0.218-0.004
	c-0.005,0-0.01-0.002-0.015-0.002c-0.003,0-0.003,0-0.004,0c-0.047,0-0.093,0.004-0.138,0.006c-0.076-0.002-0.152-0.006-0.227-0.006
	c-0.046,0-0.09,0.004-0.136,0.006c-0.077-0.002-0.155-0.006-0.229-0.006h-0.002c-0.001,0-0.001,0-0.001,0
	c-0.046,0-0.089,0.004-0.134,0.006c-0.076-0.002-0.154-0.006-0.229-0.006c-0.045,0-0.09,0.006-0.134,0.006
	c-0.078-0.002-0.158-0.006-0.235-0.006c-6.069,0-12.133,1.744-16.572,5.107c-4.438,3.424-7.573,8.887-7.573,15.916
	c0,7.871,3.677,13.336,8.53,16.518c4.327,2.826,9.438,4.023,15.379,4.023c0.057,0,0.113-0.002,0.171-0.004
	c0.065,0,0.13,0.004,0.197,0.004c0.054,0,0.11-0.002,0.165-0.004c0.064,0.004,0.131,0.004,0.196,0.004h0.002
	c0.001,0,0.001,0,0.001,0c0.027,0,0.056,0,0.083,0c0.028-0.002,0.058-0.004,0.087-0.004c0.064,0.004,0.129,0.004,0.197,0.004
	c0.056,0,0.111,0,0.168-0.004c0.064,0.004,0.13,0.004,0.196,0.004c0,0,0,0,0.001,0s0.001,0,0.003,0c0.001,0,0.003,0,0.006,0
	c0.054,0,0.108-0.002,0.162-0.004c0.065,0.004,0.132,0.006,0.2,0.004c0.04,0,0.079-0.004,0.12-0.006
	c0.082,0.006,0.162,0.01,0.244,0.006c3.687-0.098,7.179-0.967,8.493-1.389c0.662-0.18,1.433-0.424,2.262-0.594
	c0.832-1.145,2.454-5.096,2.861-9.119c-0.07-0.123-0.173-0.215-0.288-0.297C219.088,130.296,219.036,130.269,218.981,130.239
	L218.981,130.239z"/>
<path fill="#8B5A22" d="M237.831,102.866l1.305-0.18c0.438-0.422,0.368-1.502-0.109-1.742c-0.001,0-0.004,0-0.005,0
	c-0.009,0-0.018,0-0.026,0c-0.103,0.004-0.213,0.008-0.321,0.008c-0.004-0.002-0.008-0.006-0.012-0.008c-0.001,0-0.005,0-0.005,0
	c-0.009,0-0.018,0-0.026,0c-0.104,0.004-0.215,0.008-0.324,0.01c-0.005-0.004-0.008-0.008-0.013-0.01c-0.001,0-0.004,0-0.005,0
	c-0.009,0-0.018,0-0.026,0c-0.075,0.004-0.153,0.004-0.231,0.006c-0.061-0.002-0.101-0.004-0.106-0.006
	c-0.068,0.002-0.135,0.004-0.202,0.008c-0.089-0.002-0.155-0.006-0.162-0.008c-0.071,0.002-0.135,0.004-0.204,0.008
	c-0.09-0.002-0.156-0.006-0.163-0.008c-2.28,0.105-4.283,0.158-6.546,0.172c-2.328-0.014-4.343-0.066-6.636-0.172
	c-0.005,0.002-0.07,0.006-0.159,0.008c-0.068-0.004-0.134-0.006-0.205-0.008c-0.006,0.002-0.072,0.006-0.162,0.008
	c-0.069-0.004-0.134-0.006-0.206-0.008c-0.004,0.002-0.047,0.004-0.11,0.006c-0.087-0.002-0.174-0.004-0.258-0.006h-0.002
	c-0.006,0.002-0.01,0.006-0.014,0.01c-0.117-0.002-0.237-0.006-0.349-0.01h-0.003c-0.005,0.002-0.009,0.006-0.012,0.01
	c-0.119-0.002-0.241-0.006-0.353-0.01c-0.002,0-0.002,0-0.006,0c-0.459,0.24-0.527,1.32-0.111,1.742l1.314,0.18
	c0.08,0.01,0.153,0.02,0.23,0.029c2.581,0.348,2.409,0.693,2.409,6.877v22.346c0,6.188,0.172,6.535-2.409,6.885
	c-0.077,0.012-0.15,0.021-0.23,0.031l-1.314,0.174c-0.416,0.424-0.348,1.502,0.111,1.74c0.004,0,0.004,0,0.006,0
	c0.111-0.006,0.233-0.01,0.353-0.01c0.005,0.002,0.007,0.008,0.012,0.01h0.003c0.111-0.006,0.23-0.01,0.349-0.01
	c0.006,0.002,0.008,0.008,0.014,0.01h0.002c0.082-0.002,0.17-0.006,0.256-0.008c0.065,0.002,0.108,0.006,0.112,0.008
	c0.072-0.002,0.138-0.006,0.208-0.01c0.09,0.004,0.154,0.008,0.16,0.01c0.071-0.002,0.137-0.006,0.205-0.01
	c0.089,0.004,0.154,0.008,0.159,0.01c2.291-0.102,4.362-0.152,6.642-0.166c2.261,0.014,4.263,0.064,6.54,0.166
	c0.007-0.002,0.071-0.008,0.157-0.01c0.072,0.004,0.138,0.008,0.21,0.01c0.007-0.002,0.07-0.008,0.156-0.01
	c0.071,0.004,0.137,0.008,0.208,0.01c0.006-0.002,0.046-0.006,0.106-0.008c0.075,0.002,0.154,0.002,0.228,0.006
	c0.01,0,0.021,0,0.03,0.002c0.001,0,0.004,0,0.005,0c0.005-0.002,0.008-0.008,0.013-0.01c0.107,0,0.218,0.004,0.32,0.008
	c0.01,0,0.021,0,0.03,0.002c0,0,0.004,0,0.005,0c0.004-0.002,0.008-0.008,0.012-0.01c0.106,0.002,0.215,0.004,0.317,0.008
	c0.01,0,0.021,0,0.03,0.002c0.001,0,0.004,0,0.005,0c0.478-0.238,0.548-1.316,0.109-1.74l-1.305-0.174
	c-2.836-0.365-2.643-0.547-2.643-6.916v-22.346C235.188,103.407,234.995,103.228,237.831,102.866L237.831,102.866z"/>
<path fill="#8B5A22" d="M283.183,139.208l-1.311-0.174c-2.829-0.365-2.64-0.547-2.64-6.916v-22.346c0-6.365-0.189-6.418,2.64-6.906
	l1.07-0.18c0.431-0.299,0.37-1.502-0.114-1.742c-0.001,0-0.004,0-0.005,0c-0.005,0-0.01,0-0.016,0
	c-0.104,0.004-0.219,0.008-0.331,0.01c-0.004-0.002-0.008-0.008-0.013-0.01c-0.001,0-0.004,0-0.005,0c-0.006,0-0.011,0-0.016,0
	c-0.106,0.004-0.22,0.008-0.335,0.01c-0.004-0.002-0.008-0.008-0.013-0.01c-0.001,0-0.005,0-0.005,0c-0.006,0-0.011,0-0.016,0
	c-0.077,0.004-0.16,0.006-0.241,0.008c-0.058-0.004-0.102-0.006-0.106-0.008c-0.072,0.002-0.142,0.006-0.213,0.008
	c-0.083-0.002-0.145-0.006-0.153-0.008c-0.071,0.002-0.14,0.006-0.211,0.01c-0.086-0.004-0.147-0.008-0.157-0.01
	c-2.009,0.102-3.906,0.158-6.101,0.174c-2.302-0.012-4.38-0.066-6.813-0.174c-0.006,0.002-0.072,0.006-0.16,0.008
	c-0.068-0.004-0.135-0.006-0.205-0.008c-0.007,0.002-0.071,0.006-0.161,0.008c-0.07-0.004-0.136-0.006-0.206-0.008
	c-0.005,0.002-0.048,0.004-0.111,0.006c-0.086-0.002-0.175-0.004-0.257-0.006c-0.001,0-0.003,0-0.004,0
	c-0.005,0.002-0.008,0.006-0.013,0.01c-0.116-0.002-0.236-0.006-0.348-0.01c-0.002,0-0.003,0-0.004,0
	c-0.005,0.002-0.008,0.006-0.013,0.01c-0.119-0.002-0.238-0.006-0.352-0.01c0,0-0.003,0-0.005,0
	c-0.488,0.24-0.547,1.443-0.129,1.742l1.328,0.18c0.081,0.01,0.154,0.02,0.23,0.029c2.577,0.348,2.403,0.693,2.403,6.877v6.852
	c0,0.451-2.11,4.873-7.761,5.102c-4.962-0.117-7.118-2.875-7.118-7.5v-4.453c0-6.365-0.189-6.418,2.642-6.906l1.02-0.18
	c0.426-0.299,0.359-1.502-0.113-1.742c0,0-0.003,0-0.004,0c-0.005,0-0.012,0-0.017,0c-0.104,0.004-0.218,0.008-0.33,0.01
	c-0.005-0.002-0.009-0.008-0.014-0.01c0,0-0.003,0-0.005,0c-0.006,0-0.012,0-0.016,0c-0.106,0.006-0.221,0.008-0.334,0.01
	c-0.005-0.002-0.009-0.008-0.013-0.01c-0.003,0-0.005,0-0.005,0c-0.005,0-0.012,0-0.017,0c-0.076,0.004-0.158,0.006-0.24,0.008
	c-0.058-0.002-0.102-0.006-0.107-0.008c-0.072,0.002-0.14,0.006-0.21,0.01c-0.085-0.004-0.147-0.008-0.154-0.01
	c-0.071,0.002-0.143,0.006-0.213,0.01c-0.084-0.004-0.146-0.008-0.156-0.01c-1.967,0.102-3.859,0.158-6.046,0.174
	c-2.331-0.012-4.485-0.066-6.822-0.174c-0.008,0.002-0.072,0.006-0.159,0.008c-0.071-0.004-0.137-0.006-0.207-0.008
	c-0.006,0.002-0.071,0.006-0.16,0.008c-0.071-0.004-0.137-0.006-0.207-0.008c-0.006,0.002-0.049,0.004-0.111,0.006
	c-0.087-0.002-0.175-0.004-0.256-0.006c-0.003,0-0.003,0-0.006,0c-0.003,0.002-0.007,0.006-0.011,0.01
	c-0.118-0.002-0.239-0.006-0.348-0.01c-0.003,0-0.003,0-0.006,0c-0.003,0.002-0.007,0.006-0.013,0.01
	c-0.118-0.002-0.24-0.006-0.352-0.01h-0.002c-0.479,0.24-0.539,1.443-0.117,1.742l1.316,0.18c0.081,0.01,0.154,0.02,0.231,0.029
	c2.58,0.348,2.409,0.695,2.409,6.877v5.652c0,6.549,5.338,11.293,12.837,11.293c0.056,0,0.196,0,0.368,0c0.056,0,0.195,0,0.364,0
	c0.223,0,0.499,0,0.735,0c0.149,0,0.282,0,0.368,0c0.148,0,0.278,0,0.364,0c3.754,0,6.924-1.945,8.991-3.648
	c0.006,0.07,0.002,0.127,0.002,0.127v8.922c0,6.188,0.174,6.535-2.403,6.885c-0.076,0.012-0.149,0.021-0.23,0.031l-1.328,0.174
	c-0.418,0.424-0.359,1.502,0.129,1.74c0.002,0,0.004,0,0.004,0c0.112-0.006,0.233-0.01,0.353-0.01
	c0.005,0.002,0.008,0.008,0.013,0.01c0.001,0,0.002,0,0.004,0c0.109-0.006,0.23-0.01,0.348-0.01c0.005,0.002,0.008,0.008,0.013,0.01
	c0.001,0,0.003,0,0.004,0c0.082-0.002,0.171-0.006,0.257-0.008c0.063,0.002,0.106,0.006,0.111,0.008
	c0.07-0.002,0.138-0.006,0.209-0.01c0.087,0.002,0.152,0.008,0.158,0.01c0.072-0.002,0.139-0.006,0.207-0.01
	c0.089,0.002,0.152,0.008,0.158,0.01c2.269-0.102,4.283-0.152,6.611-0.166c2.262,0.014,4.266,0.064,6.541,0.166
	c0.008-0.002,0.07-0.008,0.158-0.01c0.072,0.004,0.138,0.008,0.209,0.01c0.008-0.002,0.07-0.008,0.156-0.01
	c0.071,0.004,0.137,0.008,0.209,0.01c0.007-0.002,0.047-0.006,0.105-0.008c0.077,0.002,0.155,0.002,0.228,0.006
	c0.01,0,0.021,0,0.03,0.002c0.002,0,0.005,0,0.005,0c0.005-0.002,0.008-0.008,0.013-0.01c0.108,0.002,0.218,0.004,0.321,0.008
	c0.011,0,0.021,0,0.03,0.002c0,0,0.003,0,0.006,0c0.003-0.002,0.007-0.008,0.01-0.01c0.108,0.002,0.216,0.004,0.318,0.008
	c0.011,0,0.02,0,0.03,0.002c0,0,0.003,0,0.006,0C283.552,140.71,283.598,139.632,283.183,139.208L283.183,139.208z"/>
<path fill="#8B5A22" d="M138.161,35.824c-2.154-1.253-3.452-3.856-3.452-9.114c0-2.975,0.838-6.328,3.281-6.938
	c0.063-0.02,0.107-0.043,0.171-0.068v-0.667c-0.171-0.013-0.352-0.018-0.54-0.018c-1.237,0-4.897,0.306-7.323,0.306
	c-2.454,0-6.113-0.306-7.335-0.306c-0.692,0-1.133,0.071-1.133,0.306c0,0.064,0.367,0.295,0.745,0.447
	c2.445,0.61,3.281,3.127,3.281,6.261v0.581c0,10.049,5.245,12.18,12.305,12.426V35.824L138.161,35.824z"/>
<path fill="#8B5A22" d="M166.232,50.889c-3.436-1.678-4.119-3.892-4.119-7.627V26.032c0-3.134,0.836-5.65,3.284-6.261
	c0.379-0.152,0.758-0.383,0.758-0.447c0-0.234-0.465-0.306-1.152-0.306c-1.217,0-4.872,0.306-7.32,0.306
	c-2.436,0-6.096-0.306-7.32-0.306c-0.06,0-0.105,0-0.172,0v0.828c2.288,0.692,3.073,3.151,3.073,6.186v17.229
	c0,3.316-0.549,5.427-3.073,7.039v0.182c0,0.451,0.012,0.859,0.049,1.238c2.343-0.026,3.403-0.217,7.443-0.217
	c4.347,0,5.267,0.232,8.008,0.232c0.774,0,1.23,0,1.23-0.232C166.921,51.268,166.684,51.12,166.232,50.889L166.232,50.889z"/>
<path fill="#8B5A22" d="M152.693,60.447c-3.163,0-5.196-0.232-8.52-0.232c-3.319,0-5.43,0.232-8.512,0.232
	c-0.374,0-0.891-0.075-0.891-0.391c0-0.535,0.824-0.463,1.489-0.769c2.868-1.544,3.548-4.415,3.548-8.194V17.533
	c0-3.719-1.064-5.576-2.941-6.037c-0.306-0.079-0.824-0.227-0.824-0.466c0-0.232,0.217-0.614,0.889-0.614
	c0.467,0,4.837,0.312,7.242,0.312c2.42,0,6.028-0.312,6.488-0.312c0.361,0,1.055,0.078,1.055,0.614c0,0.317-0.767,0.544-1.215,0.856
	c-0.891,0.615-1.958,1.701-1.958,4.247v35.732c0,4.174,1.219,6.26,3.92,7.5c0.754,0.382,1.284,0.228,1.284,0.691
	C153.748,60.293,153.062,60.447,152.693,60.447L152.693,60.447z"/>
<path fill="#8B5A22" d="M179.114,52.004l-9.204-0.105c-1.727,0.005-2.457,1.285-2.681,1.755
	c-4.526,9.581-11.799,13.702-21.284,13.702c-20.972,0-28.336-15.177-28.821-30.248c-0.014-0.098-0.025-0.186-0.025-0.264
	c0-0.105,0-0.195,0-0.29c-0.005-0.369-0.013-0.75-0.013-1.125c0-15.518,7.122-31.921,28.859-31.921
	c9.485,0,16.758,4.113,21.284,13.708c0.224,0.46,0.954,1.742,2.681,1.751l9.204-0.112c0,0,1.493,0.264,0.603-1.191
	c-2.291-3.666-4.55-6.209-8.208-9.016C163.116,2.195,152.298,0,141.874,0c-19.854,0-38.292,11.398-38.409,35.216
	c0,0.08,0,0.144,0,0.214c0,23.969,18.502,35.436,38.401,35.436c10.433,0,21.251-2.208,29.644-8.65
	c3.658-2.807,5.917-5.348,8.208-9.014C180.607,51.745,179.114,52.004,179.114,52.004L179.114,52.004z"/>
</svg>
