<?xml version="1.0" encoding="utf-8"?>
<!DOCTYPE svg PUBLIC "-//W3C//DTD SVG 1.1//EN" "http://www.w3.org/Graphics/SVG/1.1/DTD/svg11.dtd">
<svg version="1.1" xmlns="http://www.w3.org/2000/svg" xmlns:xlink="http://www.w3.org/1999/xlink" x="0px" y="0px" width="216px" height="216px" viewBox="0 0 216 216" enable-background="new 0 0 216 216" xml:space="preserve">
<g>
	<path fill-rule="evenodd" fill="#84a396" clip-rule="evenodd" d="M108.069,10.803c39.227,0,70.438,32.511,71.039,72.591
		c0.697,46.54-37.642,74.188-59.277,105.946c-12.748,18.719-10.817,20.063-24.8,0.837c-22.629-31.11-56.605-58.848-58.001-106.783
		C35.862,43.325,68.842,10.803,108.069,10.803L108.069,10.803z M83.652,86.449L69.62,68.732L83.652,50.13l-7.017,19.488
		L83.652,86.449L83.652,86.449z M89.223,77.636c0,2.129,0.523,4.001,1.568,5.617c1.045,1.605,2.471,2.953,4.266,4.023
		c1.793,1.081,3.884,1.883,6.285,2.429c2.4,0.545,4.971,0.813,7.697,0.813c1.85,0,3.572-0.107,5.154-0.342
		c1.582-0.225,2.98-0.503,4.195-0.824c1.215-0.332,2.231-0.663,3.051-1.026c0.806-0.354,1.398-0.664,1.751-0.942
		c0.368-0.268,0.621-0.664,0.763-1.167c0.156-0.514,0.227-1.252,0.227-2.214c0-0.653-0.028-1.188-0.07-1.626
		c-0.057-0.438-0.156-0.802-0.269-1.07c-0.127-0.268-0.297-0.46-0.509-0.578c-0.198-0.118-0.438-0.171-0.72-0.171
		c-0.382,0-0.933,0.171-1.639,0.514c-0.692,0.342-1.597,0.727-2.712,1.144c-1.102,0.418-2.415,0.803-3.94,1.146
		c-1.54,0.342-3.305,0.514-5.325,0.514c-1.327,0-2.514-0.118-3.559-0.354c-1.045-0.246-1.935-0.588-2.669-1.027
		c-0.721-0.439-1.286-0.974-1.667-1.626c-0.395-0.652-0.579-1.37-0.579-2.161c0-0.92,0.325-1.712,0.988-2.365
		c0.665-0.663,1.526-1.251,2.585-1.754c0.698-0.338,1.464-0.663,2.288-0.973h18.46c0.27,0,0.491-0.226,0.491-0.501v-1.998
		c0-0.276-0.222-0.501-0.491-0.501H86.479c-0.271,0-0.492,0.226-0.492,0.501v1.998c0,0.276,0.221,0.501,0.492,0.501h3.615
		C89.509,74.772,89.223,76.11,89.223,77.636L89.223,77.636z M86.479,64.996h17.957l0.508-0.167c1.384-0.439,2.613-0.92,3.701-1.434
		c1.086-0.513,1.962-1.103,2.612-1.755c0.65-0.663,0.975-1.444,0.975-2.343c0-0.599-0.155-1.177-0.438-1.722
		c-0.297-0.546-0.735-1.006-1.328-1.391c-0.593-0.386-1.327-0.696-2.217-0.91c-0.875-0.225-1.907-0.331-3.093-0.331
		c-1.525,0-2.91,0.139-4.181,0.428c-1.271,0.278-2.387,0.588-3.347,0.941c-0.974,0.342-1.78,0.664-2.443,0.952
		c-0.664,0.289-1.144,0.439-1.455,0.439c-0.296,0-0.537-0.064-0.72-0.193c-0.183-0.118-0.325-0.321-0.409-0.588
		c-0.099-0.278-0.169-0.621-0.212-1.038c-0.042-0.417-0.057-0.931-0.057-1.53c0-0.546,0.014-1.006,0.028-1.37
		c0.028-0.364,0.085-0.664,0.155-0.91c0.071-0.235,0.141-0.428,0.241-0.578c0.098-0.149,0.282-0.321,0.564-0.535
		c0.268-0.203,0.833-0.471,1.694-0.781c0.862-0.31,1.836-0.599,2.938-0.845c1.101-0.257,2.288-0.449,3.559-0.599
		c1.271-0.15,2.542-0.214,3.8-0.214c2.458,0,4.787,0.235,6.977,0.717s4.096,1.209,5.706,2.183c1.624,0.962,2.909,2.193,3.855,3.659
		c0.947,1.477,1.428,3.188,1.428,5.125c0,1.702-0.325,3.146-0.989,4.365c-0.079,0.143-0.16,0.284-0.244,0.423h2.801
		c0.27,0,0.491,0.226,0.491,0.5v1.999c0,0.275-0.222,0.501-0.491,0.501H86.479c-0.271,0-0.492-0.226-0.492-0.501v-1.999
		C85.987,65.221,86.208,64.996,86.479,64.996L86.479,64.996z M129.902,86.449l14.032-17.717L129.902,50.13l7.017,19.488
		L129.902,86.449L129.902,86.449z M70.375,37.327h76.632c5.391,0,9.801,3.343,9.801,7.425v80.241c0,4.082-4.546,6.515-9.801,7.425
		c-6.332,1.096-11.536,2.043-16.039,2.827v-5.951c-0.125-1.285,0.327-2.222,3.361-2.656c3.38,0,6.76,0,10.139,0
		c3.67-0.013,7.875-0.249-0.601-2.656c-9.521-2.705-19.041-5.409-28.562-8.114c-6.868-1.95-6.3-1.955-13.167-0.004l-28.981,8.232
		c-9.27,2.634-5.577,2.522,0.484,2.542c3.206,0,6.422-0.133,9.615,0c2.224,0.093,2.912,1.134,3.205,2.656v6.911
		c-4.589-0.599-9.857-1.362-16.087-2.302c-5.285-0.798-9.801-3.342-9.801-7.425V44.751C60.574,40.668,64.985,37.327,70.375,37.327
		L70.375,37.327z M69.885,43.634h76.387c1.348,0,2.45,0.836,2.45,1.856v45.477c0,1.021-1.103,1.856-2.45,1.856H69.885
		c-1.347,0-2.45-0.835-2.45-1.856V45.491C67.435,44.469,68.538,43.634,69.885,43.634L69.885,43.634z M72.948,103.445h70.652
		c2.694,0,4.9,1.671,4.9,3.712v0.392c0,2.041-2.208,3.712-4.9,3.712H72.948c-2.693,0-4.9-1.672-4.9-3.712v-0.392
		C68.048,105.117,70.253,103.445,72.948,103.445L72.948,103.445z M108.964,137.992c-5.166,0-9.354-3.173-9.354-7.086
		s4.189-7.087,9.354-7.087s9.355,3.174,9.355,7.087S114.13,137.992,108.964,137.992L108.964,137.992z"/>
</g>
</svg>
