<?xml version="1.0" encoding="utf-8"?>
<!DOCTYPE svg PUBLIC "-//W3C//DTD SVG 1.1//EN" "http://www.w3.org/Graphics/SVG/1.1/DTD/svg11.dtd">
<svg version="1.1" id="Layer_1" xmlns="http://www.w3.org/2000/svg" xmlns:xlink="http://www.w3.org/1999/xlink" x="0px" y="0px"
	 width="216px" height="216px" viewBox="0 0 216 216" enable-background="new 0 0 216 216" xml:space="preserve">
<path fill-rule="evenodd" clip-rule="evenodd" d="M102.355,117.311h57.424c4.09,0,7.436,3.346,7.436,7.436v34.863
	c0,4.09-3.346,7.436-7.436,7.436h-57.424c-4.089,0-7.434-3.346-7.434-7.436V142.5v-10.285v-7.469
	C94.921,120.656,98.266,117.311,102.355,117.311L102.355,117.311z M160.037,142.5h-57.938v17.879h16.094h41.844V142.5L160.037,142.5
	z M102.099,132.215h57.938v-7.213h-12.76h-45.178V132.215L102.099,132.215z M54.602,47.186h57.38c4.086,0,7.428,3.343,7.428,7.428
	v34.837c0,4.086-3.342,7.429-7.428,7.429h-57.38c-4.085,0-7.428-3.343-7.428-7.429V54.614
	C47.174,50.528,50.517,47.186,54.602,47.186L54.602,47.186z M55.918,64.056h14.162v10.823H55.918V64.056L55.918,64.056z
	 M74.014,155.629c-13.674-6.324-21.381-21.713-17.864-38.191l-4.42-1.076c3.23-2.996,6.46-5.994,9.69-8.991
	c2.426-2.225,4.276-1.571,5.04,1.319l4.438,12.338l-4.42-1.076c-2.155,10.756,3.194,21.41,12.598,26.295
	C84.182,149.186,79.778,158.121,74.014,155.629L74.014,155.629z M140.826,57.29c13.674,6.324,21.381,21.713,17.863,38.191
	l4.422,1.076c-3.23,2.997-6.461,5.993-9.691,8.99c-2.426,2.225-4.277,1.571-5.039-1.319l-4.439-12.337l4.42,1.076
	c2.156-10.755-3.193-21.409-12.598-26.295C130.658,63.733,135.063,54.798,140.826,57.29L140.826,57.29z"/>
</svg>
