<?xml version="1.0" encoding="utf-8"?>
<!DOCTYPE svg PUBLIC "-//W3C//DTD SVG 1.1//EN" "http://www.w3.org/Graphics/SVG/1.1/DTD/svg11.dtd">
<svg version="1.1" id="Layer_1" xmlns="http://www.w3.org/2000/svg" xmlns:xlink="http://www.w3.org/1999/xlink" x="0px" y="0px" width="283.465px" height="283.465px" viewBox="0 0 283.465 283.465" enable-background="new 0 0 283.465 283.465" xml:space="preserve">
<g>
	<path fill-rule="evenodd" clip-rule="evenodd" d="M141.732,43.465c9.664,0,17.5,7.836,17.5,17.5
		s-7.836,17.5-17.5,17.5c-9.664,0-17.5-7.836-17.5-17.5S132.069,43.465,141.732,43.465L141.732,43.465z"/>
</g>
<g>
	<path fill-rule="evenodd" clip-rule="evenodd" d="M141.732,124.465c9.664,0,17.5,7.836,17.5,17.5
		c0,9.664-7.836,17.5-17.5,17.5c-9.664,0-17.5-7.836-17.5-17.5C124.232,132.301,132.069,124.465,141.732,124.465L141.732,124.465z"
		/>
</g>
<g>
	<path fill-rule="evenodd" clip-rule="evenodd" d="M141.056,204.576c9.664,0,17.5,7.836,17.5,17.5
		s-7.836,17.5-17.5,17.5c-9.664,0-17.5-7.836-17.5-17.5S131.392,204.576,141.056,204.576L141.056,204.576z"/>
</g>

</svg>
