<?xml version="1.0" encoding="utf-8"?>
<!DOCTYPE svg PUBLIC "-//W3C//DTD SVG 1.1//EN" "http://www.w3.org/Graphics/SVG/1.1/DTD/svg11.dtd">
<svg version="1.1" id="Layer_1" xmlns="http://www.w3.org/2000/svg" xmlns:xlink="http://www.w3.org/1999/xlink" x="0px" y="0px" width="216px" height="216px" viewBox="0 0 216 216" enable-background="new 0 0 216 216" xml:space="preserve">

<path fill-rule="evenodd" clip-rule="evenodd" d="M162.76,210.456v-1.153c0-3.52,2.02-4.606,4.985-4.606
	l19.016-0.005c8.291-0.003,13.22-1.287,15.889-4.789c1.763-2.311,2.771-5.722,2.771-10.557v-22.295c0-2.979,1.071-5.014,4.604-5.014
	h1.153c2.698,0,4.61,1.913,4.61,4.611v25.362c0,4.794-1.231,11.179-5.539,15.636c-4.587,4.746-12.413,7.421-17.518,7.421h-25.361
	C164.672,215.067,162.76,213.154,162.76,210.456L162.76,210.456z M162.76,3.611v1.153c0,3.52,2.02,4.606,4.985,4.606l19.016,0.005
	c8.291,0.002,13.22,1.287,15.889,4.789c1.763,2.311,2.771,5.722,2.771,10.557v22.294c0,2.979,1.071,5.014,4.604,5.014h1.153
	c2.698,0,4.61-1.913,4.61-4.612V22.057c0-4.794-1.231-11.179-5.539-15.637C205.663,1.674,197.837-1,192.732-1h-25.361
	C164.672-1,162.76,0.913,162.76,3.611L162.76,3.611z M52.555,3.611v1.153c0,3.52-2.019,4.606-4.986,4.606L28.554,9.376
	c-8.291,0.002-13.22,1.287-15.889,4.789c-1.763,2.311-2.771,5.722-2.771,10.557v22.294c0,2.979-1.071,5.014-4.604,5.014H4.137
	c-2.699,0-4.611-1.913-4.611-4.612V22.057c0-4.794,1.232-11.179,5.54-15.637C9.651,1.674,17.479-1,22.582-1h25.362
	C50.643-1,52.555,0.913,52.555,3.611L52.555,3.611z M52.555,210.456v-1.153c0-3.52-2.019-4.606-4.986-4.606l-19.016-0.005
	c-8.291-0.003-13.22-1.287-15.889-4.789c-1.763-2.311-2.771-5.722-2.771-10.557v-22.295c0-2.979-1.071-5.014-4.604-5.014H4.137
	c-2.699,0-4.611,1.913-4.611,4.611v25.362c0,4.794,1.232,11.179,5.54,15.636c4.586,4.746,12.413,7.421,17.517,7.421h25.362
	C50.643,215.067,52.555,213.154,52.555,210.456L52.555,210.456z M51.945,166.007c1.426,0.025,2.793,0.153,4.208,0.276
	c1.85,0.161,3.444,0.105,5.296-0.108c2.786-0.323,4.456,1.149,4.833,2.875c0.426,1.957-0.81,4.24-3.967,4.605
	c-2.355,0.271-4.459,0.336-6.816,0.13c-1.24-0.108-2.441-0.227-3.688-0.249c-2.791-0.05-4.218-1.843-4.282-3.666
	C47.459,167.93,48.933,165.953,51.945,166.007L51.945,166.007z M111.717,196.096c1.843,0,3.512,0.606,4.72,1.589
	c1.208,0.981,2.895,2.338,2.895,3.835s-1.687,2.854-2.895,3.835c-1.207,0.981-2.877,1.589-4.72,1.589
	c-1.844,0-3.512-0.607-4.72-1.589s-3.18-2.106-3.18-3.604c0-1.497,1.972-3.085,3.18-4.065
	C108.205,196.703,109.873,196.096,111.717,196.096L111.717,196.096z M135.334,172.898c4.854,3.324,10.842,5.337,16.473,6.866
	c3.247,0.882,4.044,3.567,3.092,5.469c-0.741,1.479-2.54,2.484-5.065,1.798c-6.508-1.767-13.151-4.082-18.755-7.92
	c-2.621-1.797-2.649-4.393-1.359-5.924C130.856,171.836,133.021,171.313,135.334,172.898L135.334,172.898z M108.201,140.629
	c-0.375-1.517,1.319-2.69,3.084-4.396c1.764-1.704,2.917-3.851,4.597-3.717c1.583,0.125,2.835,2.524,4.575,4.354
	c1.74,1.828,2.71,2.801,2.31,4.338c-0.46,1.765-4.982,0.816-7.757,0.714S108.751,142.851,108.201,140.629L108.201,140.629z
	 M145.147,131.284c-4.563-5.265-9.566-10.989-9.619-18.386c-0.074-10.534-0.148-21.069-0.224-31.603
	c-0.016-2.275,1.859-3.419,3.741-3.44c1.882-0.021,3.773,1.08,3.789,3.296l0.225,31.695c0.034,4.954,4.726,9.982,7.779,13.507
	c1.714,1.979,1.588,4.035,0.577,5.344C150.115,133.38,147.351,133.827,145.147,131.284L145.147,131.284z M82.406,119.511
	c6.261-5.377,12.201-12.296,15.549-19.722c7.068-15.679,4.865-12.31,5.637-23.085c0.301-4.215,2.169-6.257,4.022-6.357
	c2.102-0.114,4.187,2.262,3.958,6.788c-0.223,4.413-0.178,8.445-1.074,12.366c-1.151,5.042-3.484,9.9-5.94,15.145
	c-3.981,8.502-10.154,14.489-17.246,20.579c-2.126,1.826-4.335,1.543-5.614,0.323C80.25,124.165,79.995,121.582,82.406,119.511
	L82.406,119.511z M43.007,102.659c2.376-0.11,6.215,0.287,8.383-0.501c4.051-1.473,7.605-3.617,10.938-6.337
	c2.313-1.888,4.033-4.684,5.945-6.967c1.921-2.293,4.325-2.23,5.768-1.021s1.925,3.565,0.004,5.858
	c-2.382,2.842-3.999,5.551-6.957,7.965c-3.989,3.256-8.278,5.818-13.126,7.581c-3.656,1.328-6.911,0.775-10.607,0.947
	c-2.988,0.138-4.569-1.674-4.657-3.554S40.019,102.799,43.007,102.659L43.007,102.659z M137.885,22.498
	c-6.777-2.736-13.629-6.324-20.913-7.455c-18.734-2.909-37.529,3.543-51.379,16.301C52.796,43.13,48.396,57.792,47.961,74.77
	c-0.077,2.991-1.997,4.438-3.879,4.39c-1.882-0.048-3.726-1.592-3.649-4.583c0.487-19.052,5.725-35.572,20.058-48.772
	C76.024,11.497,97.131,4.341,118.127,7.601c8.108,1.259,15.066,4.88,22.578,7.914c3.243,1.31,4.017,3.847,3.128,5.609
	C143.024,22.728,140.838,23.69,137.885,22.498L137.885,22.498z"/>

</svg>
