<?xml version="1.0" encoding="utf-8"?>
<!DOCTYPE svg PUBLIC "-//W3C//DTD SVG 1.1//EN" "http://www.w3.org/Graphics/SVG/1.1/DTD/svg11.dtd">
<svg version="1.1" id="Layer_1" xmlns="http://www.w3.org/2000/svg" xmlns:xlink="http://www.w3.org/1999/xlink" x="0px" y="0px" width="216px" height="216px" viewBox="0 0 216 216" enable-background="new 0 0 216 216" xml:space="preserve">
<path fill-rule="evenodd" clip-rule="evenodd" d="M81.104,191.907c4.123-0.964,8.213-3.038,12.074-4.77
	c1.566-0.702,3.047-1.643,4.493-2.563c2.667-1.699,5.26-3.36,8.297-4.329c3.391-1.082,7.303-1.031,10.611,0.317
	c3.521,1.436,6.814,3.424,10.018,5.454c3.459,2.193,7.037,4.657,10.769,6.344c3.066,1.385,3.427,4.163,2.186,5.89
	c-0.966,1.343-2.9,2.05-5.285,0.973c-7.168-3.237-13.327-8.751-20.529-11.687c-1.669-0.681-3.774-0.661-5.479-0.117
	c-0.438,0.14-0.867,0.305-1.289,0.488c-1.835,0.798-3.567,1.945-5.252,3.019c-1.768,1.126-3.541,2.224-5.458,3.083
	c-4.389,1.968-8.707,4.226-13.44,5.23c-2.687,0.57-4.504-0.621-5.14-2.213C76.912,195.106,77.868,192.603,81.104,191.907
	L81.104,191.907z M44.188,134.405c9.274,0.337,17.996-2.264,26.242-6.352l3.374-1.672l3.344,6.747l-3.373,1.672
	c-9.384,4.652-19.315,7.514-29.86,7.13c-2.989-0.107-4.416-2.044-4.348-3.925C39.636,136.124,41.199,134.297,44.188,134.405
	L44.188,134.405z M74.316,161.454c8.913-3.82,17.015-9.56,26.52-11.935c7.764-1.938,16.528-1.671,24.208,0.543
	c3.535,1.019,6.853,2.522,10.095,4.245c5.294,2.813,10.367,6.215,15.966,8.405c4.019,1.572,8.847,1.771,13.088,2.646
	c2.93,0.604,4.015,2.751,3.634,4.595s-2.227,3.386-5.155,2.781c-4.846-1-9.619-1.173-14.311-3.009
	c-5.963-2.333-11.146-5.787-16.756-8.768c-2.772-1.474-5.622-2.788-8.646-3.66c-6.404-1.846-13.821-2.089-20.297-0.472
	c-0.692,0.173-1.379,0.368-2.06,0.583c-3.857,1.218-7.535,3.048-11.117,4.909c-4.036,2.097-8.016,4.263-12.202,6.057
	c-2.75,1.18-4.866,0.038-5.608-1.692C70.934,164.952,71.566,162.632,74.316,161.454L74.316,161.454z M162.023,132.938
	c3.009,0.813,5.699,0.942,8.794,0.815c3.175-0.131,4.752,1.932,4.635,3.93c-0.102,1.765-1.523,3.479-4.325,3.595
	c-3.873,0.159-7.302-0.052-11.069-1.07c-3.068-0.83-3.951-3.271-3.239-5.142C157.445,133.414,159.315,132.205,162.023,132.938
	L162.023,132.938z M167.278,105.715l-0.074-41.112c-0.013-7.725-6.188-17.342-9.888-23.975c-1.91-3.425-5.651-6.375-8.251-9.366
	c-2.138-2.458-1.945-4.931-0.659-6.228c1.369-1.381,3.979-1.431,6.342,1.287c3.143,3.614,6.745,6.336,9.146,10.64
	c4.587,8.226,10.824,17.946,10.842,27.629c0.023,13.66,0.049,27.32,0.073,40.981c0.005,2.827-2.119,4.154-4.111,3.999
	C168.938,109.434,167.282,108.144,167.278,105.715L167.278,105.715z M71.889,78.854c-0.082-6.252-0.466-13.013,1.422-19.045
	C75.283,53.506,79.396,49,84.734,45.274c6.159-4.298,13.71-7.46,21.312-7.418c7.526,0.042,15.479,3.609,21.761,7.529
	c5.615,3.504,8.859,7.9,12.126,13.465c1.892,3.224,1.338,6.226,1.388,9.679c0.046,3.157-1.995,4.69-3.964,4.572
	c-1.792-0.109-3.524-1.588-3.566-4.461c-0.02-1.366,0.315-4.84-0.353-5.978c-2.616-4.457-5.118-8.08-9.618-10.889
	c-4.99-3.114-11.811-6.354-17.815-6.387c-5.994-0.033-12.114,2.682-16.96,6.063c-10.817,7.548-9.782,15.333-9.625,27.307
	c0.039,2.991-1.824,4.511-3.707,4.536C73.83,83.316,71.928,81.845,71.889,78.854L71.889,78.854z"/>
</svg>
