<?xml version="1.0" encoding="utf-8"?>
<!DOCTYPE svg PUBLIC "-//W3C//DTD SVG 1.1//EN" "http://www.w3.org/Graphics/SVG/1.1/DTD/svg11.dtd">
<svg version="1.1" id="Layer_1" xmlns="http://www.w3.org/2000/svg" xmlns:xlink="http://www.w3.org/1999/xlink" x="0px" y="0px" width="216px" height="216px" viewBox="0 0 216 216" enable-background="new 0 0 216 216" xml:space="preserve">
<path id="_x31_" fill-rule="evenodd" clip-rule="evenodd" fill="#7E5628" d="M81.104,191.907c4.123-0.964,8.213-3.038,12.074-4.77
	c1.566-0.702,3.047-1.643,4.493-2.563c2.667-1.699,5.26-3.36,8.297-4.329c3.391-1.082,7.303-1.031,10.611,0.317
	c3.521,1.436,6.814,3.424,10.018,5.454c3.459,2.193,7.037,4.657,10.769,6.344c3.066,1.385,3.427,4.163,2.186,5.89
	c-0.966,1.343-2.9,2.05-5.285,0.973c-7.168-3.237-13.327-8.751-20.529-11.687c-1.669-0.681-3.774-0.661-5.479-0.117
	c-0.438,0.14-0.867,0.305-1.289,0.488c-1.835,0.798-3.567,1.945-5.252,3.019c-1.768,1.126-3.541,2.224-5.458,3.083
	c-4.389,1.968-8.707,4.226-13.44,5.23c-2.687,0.57-4.504-0.621-5.14-2.213C76.912,195.106,77.868,192.603,81.104,191.907
	L81.104,191.907z M44.188,134.405c9.274,0.337,17.996-2.264,26.242-6.352l3.374-1.672l3.344,6.747l-3.373,1.672
	c-9.384,4.652-19.315,7.514-29.86,7.13c-2.989-0.107-4.416-2.044-4.348-3.925C39.636,136.124,41.199,134.297,44.188,134.405
	L44.188,134.405z M74.316,161.454c8.913-3.82,17.015-9.56,26.52-11.935c7.764-1.938,16.528-1.671,24.208,0.543
	c3.535,1.019,6.853,2.522,10.095,4.245c5.294,2.813,10.367,6.215,15.966,8.405c4.019,1.572,8.847,1.771,13.088,2.646
	c2.93,0.604,4.015,2.751,3.634,4.595s-2.227,3.386-5.155,2.781c-4.846-1-9.619-1.173-14.311-3.009
	c-5.963-2.333-11.146-5.787-16.756-8.768c-2.772-1.474-5.622-2.788-8.646-3.66c-6.404-1.846-13.821-2.089-20.297-0.472
	c-0.692,0.173-1.379,0.368-2.06,0.583c-3.857,1.218-7.535,3.048-11.117,4.909c-4.036,2.097-8.016,4.263-12.202,6.057
	c-2.75,1.18-4.866,0.038-5.608-1.692C70.934,164.952,71.566,162.632,74.316,161.454L74.316,161.454z M162.023,132.938
	c3.009,0.813,5.699,0.942,8.794,0.815c3.175-0.131,4.752,1.932,4.635,3.93c-0.102,1.765-1.523,3.479-4.325,3.595
	c-3.873,0.159-7.302-0.052-11.069-1.07c-3.068-0.83-3.951-3.271-3.239-5.142C157.445,133.414,159.315,132.205,162.023,132.938
	L162.023,132.938z M167.278,105.715l-0.074-41.112c-0.013-7.725-6.188-17.342-9.888-23.975c-1.91-3.425-5.651-6.375-8.251-9.366
	c-2.138-2.458-1.945-4.931-0.659-6.228c1.369-1.381,3.979-1.431,6.342,1.287c3.143,3.614,6.745,6.336,9.146,10.64
	c4.587,8.226,10.824,17.946,10.842,27.629c0.023,13.66,0.049,27.32,0.073,40.981c0.005,2.827-2.119,4.154-4.111,3.999
	C168.938,109.434,167.282,108.144,167.278,105.715L167.278,105.715z M71.889,78.854c-0.082-6.252-0.466-13.013,1.422-19.045
	C75.283,53.506,79.396,49,84.734,45.274c6.159-4.298,13.71-7.46,21.312-7.418c7.526,0.042,15.479,3.609,21.761,7.529
	c5.615,3.504,8.859,7.9,12.126,13.465c1.892,3.224,1.338,6.226,1.388,9.679c0.046,3.157-1.995,4.69-3.964,4.572
	c-1.792-0.109-3.524-1.588-3.566-4.461c-0.02-1.366,0.315-4.84-0.353-5.978c-2.616-4.457-5.118-8.08-9.618-10.889
	c-4.99-3.114-11.811-6.354-17.815-6.387c-5.994-0.033-12.114,2.682-16.96,6.063c-10.817,7.548-9.782,15.333-9.625,27.307
	c0.039,2.991-1.824,4.511-3.707,4.536C73.83,83.316,71.928,81.845,71.889,78.854L71.889,78.854z"/>
<path id="_x32_" fill-rule="evenodd" clip-rule="evenodd" fill="#999557" d="M162.76,210.456v-1.153c0-3.52,2.02-4.606,4.985-4.606
	l19.016-0.005c8.291-0.003,13.22-1.287,15.889-4.789c1.763-2.311,2.771-5.722,2.771-10.557v-22.295c0-2.979,1.071-5.014,4.604-5.014
	h1.153c2.698,0,4.61,1.913,4.61,4.611v25.362c0,4.794-1.231,11.179-5.539,15.636c-4.587,4.746-12.413,7.421-17.518,7.421h-25.361
	C164.672,215.067,162.76,213.154,162.76,210.456L162.76,210.456z M162.76,3.611v1.153c0,3.52,2.02,4.606,4.985,4.606l19.016,0.005
	c8.291,0.002,13.22,1.287,15.889,4.789c1.763,2.311,2.771,5.722,2.771,10.557v22.294c0,2.979,1.071,5.014,4.604,5.014h1.153
	c2.698,0,4.61-1.913,4.61-4.612V22.057c0-4.794-1.231-11.179-5.539-15.637C205.663,1.674,197.837-1,192.732-1h-25.361
	C164.672-1,162.76,0.913,162.76,3.611L162.76,3.611z M52.555,3.611v1.153c0,3.52-2.019,4.606-4.986,4.606L28.554,9.376
	c-8.291,0.002-13.22,1.287-15.889,4.789c-1.763,2.311-2.771,5.722-2.771,10.557v22.294c0,2.979-1.071,5.014-4.604,5.014H4.137
	c-2.699,0-4.611-1.913-4.611-4.612V22.057c0-4.794,1.232-11.179,5.54-15.637C9.651,1.674,17.479-1,22.582-1h25.362
	C50.643-1,52.555,0.913,52.555,3.611L52.555,3.611z M52.555,210.456v-1.153c0-3.52-2.019-4.606-4.986-4.606l-19.016-0.005
	c-8.291-0.003-13.22-1.287-15.889-4.789c-1.763-2.311-2.771-5.722-2.771-10.557v-22.295c0-2.979-1.071-5.014-4.604-5.014H4.137
	c-2.699,0-4.611,1.913-4.611,4.611v25.362c0,4.794,1.232,11.179,5.54,15.636c4.586,4.746,12.413,7.421,17.517,7.421h25.362
	C50.643,215.067,52.555,213.154,52.555,210.456L52.555,210.456z M51.945,166.007c1.426,0.025,2.793,0.153,4.208,0.276
	c1.85,0.161,3.444,0.105,5.296-0.108c2.786-0.323,4.456,1.149,4.833,2.875c0.426,1.957-0.81,4.24-3.967,4.605
	c-2.355,0.271-4.459,0.336-6.816,0.13c-1.24-0.108-2.441-0.227-3.688-0.249c-2.791-0.05-4.218-1.843-4.282-3.666
	C47.459,167.93,48.933,165.953,51.945,166.007L51.945,166.007z M111.717,196.096c1.843,0,3.512,0.606,4.72,1.589
	c1.208,0.981,2.895,2.338,2.895,3.835s-1.687,2.854-2.895,3.835c-1.207,0.981-2.877,1.589-4.72,1.589
	c-1.844,0-3.512-0.607-4.72-1.589s-3.18-2.106-3.18-3.604c0-1.497,1.972-3.085,3.18-4.065
	C108.205,196.703,109.873,196.096,111.717,196.096L111.717,196.096z M135.334,172.898c4.854,3.324,10.842,5.337,16.473,6.866
	c3.247,0.882,4.044,3.567,3.092,5.469c-0.741,1.479-2.54,2.484-5.065,1.798c-6.508-1.767-13.151-4.082-18.755-7.92
	c-2.621-1.797-2.649-4.393-1.359-5.924C130.856,171.836,133.021,171.313,135.334,172.898L135.334,172.898z M108.201,140.629
	c-0.375-1.517,1.319-2.69,3.084-4.396c1.764-1.704,2.917-3.851,4.597-3.717c1.583,0.125,2.835,2.524,4.575,4.354
	c1.74,1.828,2.71,2.801,2.31,4.338c-0.46,1.765-4.982,0.816-7.757,0.714S108.751,142.851,108.201,140.629L108.201,140.629z
	 M145.147,131.284c-4.563-5.265-9.566-10.989-9.619-18.386c-0.074-10.534-0.148-21.069-0.224-31.603
	c-0.016-2.275,1.859-3.419,3.741-3.44c1.882-0.021,3.773,1.08,3.789,3.296l0.225,31.695c0.034,4.954,4.726,9.982,7.779,13.507
	c1.714,1.979,1.588,4.035,0.577,5.344C150.115,133.38,147.351,133.827,145.147,131.284L145.147,131.284z M82.406,119.511
	c6.261-5.377,12.201-12.296,15.549-19.722c7.068-15.679,4.865-12.31,5.637-23.085c0.301-4.215,2.169-6.257,4.022-6.357
	c2.102-0.114,4.187,2.262,3.958,6.788c-0.223,4.413-0.178,8.445-1.074,12.366c-1.151,5.042-3.484,9.9-5.94,15.145
	c-3.981,8.502-10.154,14.489-17.246,20.579c-2.126,1.826-4.335,1.543-5.614,0.323C80.25,124.165,79.995,121.582,82.406,119.511
	L82.406,119.511z M43.007,102.659c2.376-0.11,6.215,0.287,8.383-0.501c4.051-1.473,7.605-3.617,10.938-6.337
	c2.313-1.888,4.033-4.684,5.945-6.967c1.921-2.293,4.325-2.23,5.768-1.021s1.925,3.565,0.004,5.858
	c-2.382,2.842-3.999,5.551-6.957,7.965c-3.989,3.256-8.278,5.818-13.126,7.581c-3.656,1.328-6.911,0.775-10.607,0.947
	c-2.988,0.138-4.569-1.674-4.657-3.554S40.019,102.799,43.007,102.659L43.007,102.659z M137.885,22.498
	c-6.777-2.736-13.629-6.324-20.913-7.455c-18.734-2.909-37.529,3.543-51.379,16.301C52.796,43.13,48.396,57.792,47.961,74.77
	c-0.077,2.991-1.997,4.438-3.879,4.39c-1.882-0.048-3.726-1.592-3.649-4.583c0.487-19.052,5.725-35.572,20.058-48.772
	C76.024,11.497,97.131,4.341,118.127,7.601c8.108,1.259,15.066,4.88,22.578,7.914c3.243,1.31,4.017,3.847,3.128,5.609
	C143.024,22.728,140.838,23.69,137.885,22.498L137.885,22.498z"/>
<path id="_x33_" fill-rule="evenodd" clip-rule="evenodd" fill="#F58031" d="M198.288,73.559h12.786c2.45,0,4.455,2.462,4.455,5.471
	l0,0c0,3.009-2.005,5.471-4.455,5.471h-12.786c-2.451,0-4.456-2.462-4.456-5.471l0,0C193.832,76.021,195.837,73.559,198.288,73.559
	L198.288,73.559z M198.288,129.644h12.786c2.45,0,4.455,2.462,4.455,5.471l0,0c0,3.009-2.005,5.471-4.455,5.471h-12.786
	c-2.451,0-4.456-2.462-4.456-5.471l0,0C193.832,132.105,195.837,129.644,198.288,129.644L198.288,129.644z M198.288,101.428h12.786
	c2.45,0,4.455,2.462,4.455,5.471l0,0c0,3.009-2.005,5.471-4.455,5.471h-12.786c-2.451,0-4.456-2.462-4.456-5.471l0,0
	C193.832,103.89,195.837,101.428,198.288,101.428L198.288,101.428z M3.455,73.559h12.786c2.451,0,4.456,2.462,4.456,5.471l0,0
	c0,3.009-2.005,5.471-4.456,5.471H3.455C1.004,84.5-1,82.038-1,79.029l0,0C-1,76.021,1.004,73.559,3.455,73.559L3.455,73.559z
	 M3.455,129.644h12.786c2.451,0,4.456,2.462,4.456,5.471l0,0c0,3.009-2.005,5.471-4.456,5.471H3.455
	c-2.451,0-4.455-2.462-4.455-5.471l0,0C-1,132.105,1.004,129.644,3.455,129.644L3.455,129.644z M3.455,101.428h12.786
	c2.451,0,4.456,2.462,4.456,5.471l0,0c0,3.009-2.005,5.471-4.456,5.471H3.455c-2.451,0-4.455-2.462-4.455-5.471l0,0
	C-1,103.89,1.004,101.428,3.455,101.428L3.455,101.428z M116.629,173.432c-3.556-1.128-7.81-1.713-11.433-0.575
	c-0.826,0.259-1.643,0.547-2.45,0.858c-7.401,2.846-14.015,7.349-21.578,9.978c-6.417,2.231-10.82,3.685-17.877,3.469
	c-2.896-0.088-4.337-1.899-4.372-3.724c-0.038-1.941,1.517-3.896,4.601-3.803c6.03,0.184,9.682-1.146,15.175-3.055
	c8.367-2.908,15.665-8.215,24.246-10.909c5.16-1.619,10.88-1.03,15.965,0.582c3.029,0.961,3.807,3.438,3.016,5.276
	C121.223,173.152,119.302,174.279,116.629,173.432L116.629,173.432z M101.012,23.418c7.507-1.346,16.401-0.686,23.55,2.079
	c7.688,2.973,13.944,7.887,19.319,14.094c6.145,7.097,14.594,15.103,14.689,25.188l0.436,45.521
	c0.053,5.552,7.128,7.925,11.713,7.796c3.178-0.089,4.727,1.994,4.584,3.991c-0.126,1.763-1.569,3.458-4.372,3.537
	c-8.982,0.252-19.358-5.147-19.456-15.252l-0.435-45.521c-0.069-7.224-8.396-15.184-12.853-20.331
	c-4.559-5.266-9.815-9.476-16.343-12c-5.858-2.265-13.361-2.791-19.505-1.69c-2.944,0.527-4.749-1.062-5.081-2.915
	C96.928,26.063,98.067,23.945,101.012,23.418L101.012,23.418z M128.299,119.562c4.4,6.635,7.761,14.899,13.572,20.355
	c7.424,6.968,17.096,8.975,26.763,10.632c2.765,0.474,3.953,2.356,3.829,4.118c-0.141,1.998-1.969,3.841-5.101,3.304
	c-11.312-1.938-21.947-4.399-30.645-12.563c-6.628-6.221-9.797-14.298-14.695-21.684c-1.653-2.493-0.911-4.78,0.658-5.82
	C124.249,116.862,126.645,117.068,128.299,119.562L128.299,119.562z M44.124,118.314c7.233-0.279,16.273-1.713,22.38-5.873
	c8.172-5.566,15.244-13.56,19.35-22.584c0.328-0.72,0.573-1.472,0.757-2.241c0.562-2.346,0.592-4.9,0.625-7.303
	c0.069-4.905,0.139-9.603,2.478-14.06c3.721-7.087,9.956-11.656,18.179-11.216c8.024,0.43,15.232,5.192,18.169,12.766
	c3.347,8.636,0.492,17.643-0.802,26.341c-1.516,10.193-10.416,25.701-17.392,33.366c-9.953,10.936-19.646,18.676-33.074,25.008
	c-8.509,4.013-19.651,4.26-28.939,4.419c-5.982,0.102-6.11-7.428-0.129-7.529c7.933-0.137,18.606-0.282,25.855-3.7
	c12.528-5.909,21.43-13.063,30.717-23.267c2.933-3.223,5.517-7.021,7.729-10.77c2.936-4.973,6.929-12.891,7.783-18.635
	c1.003-6.742,3.753-15.999,1.229-22.512c-1.863-4.806-6.49-7.697-11.551-7.968c-5.234-0.28-8.769,2.739-11.108,7.197
	c-0.407,0.774-0.705,1.594-0.924,2.44c-0.676,2.605-0.654,5.544-0.691,8.225c-0.061,4.343-0.229,8.536-2.058,12.557
	c-4.678,10.282-12.651,19.345-21.965,25.69c-7.379,5.026-17.558,6.835-26.328,7.174c-3.176,0.122-4.747-1.944-4.626-3.942
	C39.896,120.134,41.321,118.423,44.124,118.314L44.124,118.314z M43.108,87c2.483,0.047,7.3-0.664,9.1-2.54
	c2.313-2.41,3.938-6.006,3.953-9.369c0.029-6.613,0.615-13.234,3.004-19.454c2.606-6.785,7.736-13.398,12.789-18.541
	c4.072-4.143,7.638-7.563,13.13-9.709c2.612-1.021,4.603-0.022,5.406,1.551c0.91,1.783,0.296,4.306-2.664,5.462
	c-4.342,1.697-7.284,4.701-10.501,7.975c-4.289,4.364-8.915,10.193-11.13,15.962c-2.042,5.315-2.479,11.142-2.503,16.787
	c-0.022,5.299-2.396,10.743-6.05,14.551c-3.422,3.566-9.871,4.946-14.676,4.854c-0.628-0.012-1.255-0.024-1.883-0.036
	c-1.442-0.027-2.35-1.7-2.316-3.457C38.805,89.044,40.054,86.942,43.108,87L43.108,87z"/>
</svg>
