<?xml version="1.0" encoding="utf-8"?>
<!DOCTYPE svg PUBLIC "-//W3C//DTD SVG 1.1//EN" "http://www.w3.org/Graphics/SVG/1.1/DTD/svg11.dtd">
<svg version="1.1" xmlns="http://www.w3.org/2000/svg" xmlns:xlink="http://www.w3.org/1999/xlink" x="0px" y="0px" width="216px" height="216px" viewBox="0 0 216 216" enable-background="new 0 0 216 216" xml:space="preserve">
<g>
	<path fill-rule="evenodd" clip-rule="evenodd" d="M108.069,10.803c39.227,0,70.438,32.511,71.039,72.591
		c0.697,46.54-37.642,74.188-59.277,105.946c-12.748,18.719-10.817,20.063-24.8,0.837c-22.629-31.11-56.605-58.848-58.001-106.783
		C35.862,43.325,68.842,10.803,108.069,10.803L108.069,10.803z M51.421,61.84l56.504-36.694l0.006,0.008l0.005-0.008l56.504,36.694
		v5.204h-7.693l-48.815-31.701L59.114,67.044h-7.693V61.84L51.421,61.84z M55.765,121.039h104.266v8.555H55.765V121.039
		L55.765,121.039z M138.653,106.872h4.658V77.46h-4.658v-8.555h16.927v8.555h-3.714v29.412h3.714v8.556h-16.927V106.872
		L138.653,106.872z M60.429,106.872h4.659V77.46h-4.659v-8.555h16.928v8.555h-3.714v29.412h3.714v8.556H60.429V106.872
		L60.429,106.872z M86.504,106.872h4.659V77.46h-4.659v-8.555h16.928v8.555h-3.714v29.412h3.714v8.556H86.504V106.872
		L86.504,106.872z M112.578,106.872h4.659V77.46h-4.659v-8.555h16.928v8.555h-3.714v29.412h3.714v8.556h-16.928V106.872
		L112.578,106.872z"/>
</g>
</svg>
