<?xml version="1.0" encoding="utf-8"?>
<!DOCTYPE svg PUBLIC "-//W3C//DTD SVG 1.1//EN" "http://www.w3.org/Graphics/SVG/1.1/DTD/svg11.dtd">
<svg version="1.1" xmlns="http://www.w3.org/2000/svg" xmlns:xlink="http://www.w3.org/1999/xlink" x="0px" y="0px" width="250px"
	 height="200px" viewBox="0 0 250 200" enable-background="new 0 0 250 200" xml:space="preserve">
<g id="Layer_3">
		<path fill-rule="evenodd" clip-rule="evenodd" d="M218.041,147.331l4.927,23.25h-8.479h-5.792L218.041,147.331
			L218.041,147.331z M202.86,186.896c1.614,0.839,1.6,1.122,3.356,1.122h17.553c2.117,0,1.953-0.347,3.289-1.097
			c0.93,3.988,1.914,12.066,5.983,12.066H249c0-2.559-0.161-5.718-0.891-9.083l-11.176-51.526
			c-1.736-8.009-4.09-15.085-6.583-15.085h-15.357c-3.8,0-8.14,3.386-10.56,8.969L175.5,198.988l22.772-0.103L202.86,186.896
			L202.86,186.896z"/>
		<path fill-rule="evenodd" clip-rule="evenodd" d="M33.987,123.294H-0.02c1.12,6.556,14.415,6.718,19.381,10.238
			c1.625,1.152,3.116,4.361,4.128,8.188l9.809,37.114c1.492,4.433,4.071,20.154,8.369,20.154h17.552c1.21,0,3.612-2.884,5.51-7.431
			l28.497-68.264H70.188L52.134,170.7c-1.915-11.262-4.909-22.312-6.781-33.584C44.138,129.809,42.586,123.294,33.987,123.294
			L33.987,123.294z"/>
		<path fill-rule="evenodd" clip-rule="evenodd" d="M155.754,175.95v1.098c-1.007,8.835-30.343,1.309-32.954,1.089
			l-3.247,17.56c18.5,4.312,59.239,8.931,59.239-20.843v-3.289c0-14.034-19.753-16.438-27.638-24.581
			c-1.449-1.497-0.605-4.497,0.915-5.637c1.569-1.177,4.24-1.598,6.977-1.598c7.157,0,12.539,1.396,19.862,3.313l3.176-17.574
			c-2.655-1.272-4.825-1.745-8.777-2.194c-6.426-0.729-13.055-0.842-20.842,0c-12.429,1.345-27.503,13.94-24.685,26.795
			C131.542,167.248,155.754,167.786,155.754,175.95L155.754,175.95z"/>
		<path fill-rule="evenodd" clip-rule="evenodd" d="M121.956,123.294H108.47h-8.663l-12.047,66.2
			c-0.863,4.746-1.376,9.494,2.174,9.494L108.65,199L121.956,123.294L121.956,123.294z"/>
</g>
</svg>
