<?xml version="1.0" encoding="utf-8"?>
<!-- Generator: Adobe Illustrator 16.0.0, SVG Export Plug-In . SVG Version: 6.00 Build 0)  -->
<!DOCTYPE svg PUBLIC "-//W3C//DTD SVG 1.1//EN" "http://www.w3.org/Graphics/SVG/1.1/DTD/svg11.dtd">
<svg version="1.1" id="Layer_1" xmlns="http://www.w3.org/2000/svg" xmlns:xlink="http://www.w3.org/1999/xlink" x="0px" y="0px"
	 width="216px" height="216px" viewBox="0 0 216 216" enable-background="new 0 0 216 216" xml:space="preserve">
<path id="_x33_" fill-rule="evenodd" clip-rule="evenodd" fill="#F58031" d="M154.507,21.604h19.137v19.141h19.142v19.137h-19.142
	v19.141h-19.137V59.881h-19.141V40.745h19.141V21.604L154.507,21.604z M179.863,147.96L179.863,147.96
	c0-2.279,2.103-4.538,4.341-4.538h0.792c2.181,0,4.566,2.505,4.337,4.825c-0.242,2.419-2.013,4.547-4.637,4.547h-0.394
	C181.921,152.794,179.863,150.485,179.863,147.96L179.863,147.96z M91.143,134.85L91.143,134.85h69.641
	c0.722,3.485,4.42,6.539,7.97,6.539c4.022,0,7.572-2.804,8.429-6.539l19.789-0.159c0.254,2.106,0.39,4.255,0.39,6.44
	c0,17.727-8.667,33.428-21.99,43.106h-62.522c-13.328-9.679-21.996-33.526-21.996-43.106
	C90.852,138.339,90.972,136.33,91.143,134.85L91.143,134.85z M109.959,158.554L109.959,158.554c0-4.989-3.292-12.467-5.321-15.496
	c8.402,0,13.022,6.022,16.433,11.113c5.338-3.574,17.025-11.113,25.352-11.113h1.562c6.104,0,11.655,2.816,15.37,5.292
	c1.947,1.296,4.054,3.01,5.723,4.604c0.644,0.614,4.73,5.025,4.73,5.6c0,0.373-4.156,4.895-4.73,5.44
	c-1.664,1.59-3.682,3.246-5.629,4.542c-3.415,2.275-9.273,5.354-14.836,5.354h-2.816c-7.621,0-19.748-7.781-24.725-11.11
	c-3.428,5.112-7.986,11.11-16.433,11.11C106.622,170.931,109.959,163.407,109.959,158.554L109.959,158.554z M64.829,148.727
	L64.829,148.727c4.387,4.108,7.129,9.946,7.129,16.423c0,6.367-2.648,12.119-6.902,16.21c1.345,1.82,2.202,4.014,2.393,6.375
	c6.637-5.288,10.89-13.442,10.89-22.585c0-9.179-4.286-17.357-10.966-22.646C67.109,144.82,66.205,146.96,64.829,148.727
	L64.829,148.727z M34.929,182.303L34.929,182.303c-4.864-4.124-7.951-10.278-7.951-17.153c0-6.948,3.157-13.163,8.113-17.292
	c-1.226-1.886-1.945-4.115-1.999-6.485c-7.547,5.211-12.496,13.918-12.496,23.777c0,9.876,4.964,18.596,12.53,23.803l-0.002-0.188
	C33.124,186.423,33.777,184.205,34.929,182.303L34.929,182.303z M61.47,157.902L61.47,157.902c1.281,2.115,2.019,4.595,2.019,7.247
	c0,2.645-0.734,5.121-2.009,7.232l0.004,5.715c0.101,0.057,0.197,0.118,0.293,0.18c3.501-3.283,5.688-7.949,5.688-13.127
	c0-5.329-2.318-10.117-6.001-13.413L61.47,157.902L61.47,157.902z M38.479,173.854L38.479,173.854
	c-1.896-2.391-3.03-5.416-3.03-8.704c0-3.279,1.127-6.297,3.018-8.69l-0.004-5.12c-0.096-0.066-0.19-0.136-0.283-0.205
	c-4.091,3.3-6.709,8.354-6.709,14.016c0,5.539,2.505,10.491,6.44,13.796c0.187-0.148,0.377-0.287,0.572-0.423L38.479,173.854
	L38.479,173.854z"/>
<path id="_x32_" fill-rule="evenodd" clip-rule="evenodd" fill="#999557" d="M15.43-0.891h184.98c8.978,0,16.32,7.344,16.32,16.32
	v184.98c0,8.974-7.343,16.32-16.32,16.32H15.43c-8.976,0-16.32-7.347-16.32-16.32V15.43C-0.891,6.454,6.454-0.891,15.43-0.891
	L15.43-0.891z M15.43,4.146h184.98c6.207,0,11.282,5.078,11.282,11.284v184.98c0,6.207-5.075,11.282-11.282,11.282H15.43
	c-6.207,0-11.284-5.075-11.284-11.282V15.43C4.146,9.223,9.223,4.146,15.43,4.146L15.43,4.146z M107.401,78.764
	c13.797,0,24.021-33.952,9.095-33.952h-1.402c-7.377,0-16.086,13.688-16.086,21.969v3.329c0,4.378,2.452,8.654,6.994,8.654H107.401
	L107.401,78.764z M71.729,38.154L71.729,38.154c0,8.769,2.519,19.307,13.289,19.307c8.722,0,16.089-16.8,16.089-25.964
	c0-8.119-3.347-19.971-11.192-19.971h-2.099C78.563,11.525,71.729,27.975,71.729,38.154L71.729,38.154z M34.652,29.5L34.652,29.5
	v1.333c0,10.138,4.473,20.762,10.895,24.915c9.503,6.147,17.786-3.622,17.786-13.599v-6.657c0-9.104-6.832-23.966-15.39-23.966
	h-2.097C38.465,11.525,34.652,22.008,34.652,29.5L34.652,29.5z M11.57,55.464L11.57,55.464c0,9.005,7.814,23.3,16.089,23.3h2.8
	c3.249,0,6.295-5.928,6.295-9.32c0-9.597-8.06-24.632-16.79-24.632h-1.4c-3.868,0-6.994,3.837-6.994,7.326V55.464L11.57,55.464z
	 M25.56,102.066L25.56,102.066c0,10.946,11.528,20.637,23.085,20.637h5.596c4.817,0,9.259-3.329,13.291-3.329
	c4.03,0,8.474,3.329,13.291,3.329h5.594c11.557,0,23.083-9.691,23.083-20.637c0-7.924-11.372-21.599-15.39-27.295
	c-5.934-8.417-11.596-16.644-26.578-16.644c-14.66,0-20.756,8.324-26.582,16.644C36.94,80.494,25.56,94.144,25.56,102.066
	L25.56,102.066z M154.917,155.422L154.917,155.422c0-1.759,2.189-3.911,3.915-3.911h0.623c1.854,0,4.071,2.218,4.071,4.066v0.472
	c0,1.722-2.23,4.066-3.755,4.066h-1.099c-1.779,0-3.756-1.959-3.756-3.755V155.422L154.917,155.422z M161.652,127.02L161.652,127.02
	c0-3.677,3.694-6.883,7.515-6.883c3.874,0,7.351,3.456,7.351,7.354v0.312c0,4.063-3.554,7.354-7.67,7.354
	c-3.514,0-7.195-3.369-7.195-6.883V127.02L161.652,127.02z M55.958,147.965L55.958,147.965l0.026,33.903
	c3.389,0.459,6,3.361,6.004,6.875c0.002,3.837-3.105,6.948-6.94,6.948c-1.829,0.004-3.495-0.705-4.737-1.861
	c-1.24,1.16-2.902,1.87-4.733,1.87c-3.833,0.004-6.947-3.104-6.949-6.937c-0.002-3.292,2.286-6.052,5.362-6.772l-0.026-34.134
	c-3.077-0.713-5.371-3.468-5.373-6.76c-0.004-3.833,3.105-6.948,6.94-6.953c1.829,0,3.493,0.71,4.735,1.865
	c1.24-1.16,2.905-1.869,4.733-1.869c3.835-0.004,6.947,3.104,6.951,6.937C61.954,144.591,59.346,147.497,55.958,147.965
	L55.958,147.965z"/>
<path id="_x31_" fill-rule="evenodd" clip-rule="evenodd" fill="#7E5628" d="M181.167,93.858
	c14.062,11.001,23.101,28.041,23.101,47.272c0,16.91-6.989,32.189-18.234,43.11h1.25v19.269h-86.87v-19.269h1.908
	c-11.247-10.921-18.237-33.94-18.237-43.11c0-9.171,1.619-11.381,2.021-12.685c2.048,0.029,5.022-0.135,6.959-0.463
	c-0.113,1.406-2.142,3.566-2.142,13.147c0,9.58,8.667,33.428,21.99,43.11h62.526c13.324-9.683,21.994-25.384,21.994-43.11
	c0-16.382-7.403-30.902-19.047-40.672h-62.521c-0.443-1.191-1.768-5.397-2.346-6.601H181.167L181.167,93.858z"/>
</svg>
