<?xml version="1.0" encoding="utf-8"?>
<!DOCTYPE svg PUBLIC "-//W3C//DTD SVG 1.1//EN" "http://www.w3.org/Graphics/SVG/1.1/DTD/svg11.dtd">
<svg version="1.1" xmlns="http://www.w3.org/2000/svg" xmlns:xlink="http://www.w3.org/1999/xlink" x="0px" y="0px" width="216px" height="216px" viewBox="0 0 216 216" enable-background="new 0 0 216 216" xml:space="preserve">  
    
<path fill-rule="evenodd" clip-rule="evenodd" d="M15.43-0.891h184.98c8.978,0,16.32,7.344,16.32,16.32
	v184.98c0,8.974-7.343,16.32-16.32,16.32H15.43c-8.976,0-16.32-7.347-16.32-16.32V15.43C-0.891,6.454,6.454-0.891,15.43-0.891
	L15.43-0.891z M15.43,4.146h184.98c6.207,0,11.282,5.078,11.282,11.284v184.98c0,6.207-5.075,11.282-11.282,11.282H15.43
	c-6.207,0-11.284-5.075-11.284-11.282V15.43C4.146,9.223,9.223,4.146,15.43,4.146L15.43,4.146z M107.401,78.764
	c13.797,0,24.021-33.952,9.095-33.952h-1.402c-7.377,0-16.086,13.688-16.086,21.969v3.329c0,4.378,2.452,8.654,6.994,8.654H107.401
	L107.401,78.764z M71.729,38.154L71.729,38.154c0,8.769,2.519,19.307,13.289,19.307c8.722,0,16.089-16.8,16.089-25.964
	c0-8.119-3.347-19.971-11.192-19.971h-2.099C78.563,11.525,71.729,27.975,71.729,38.154L71.729,38.154z M34.652,29.5L34.652,29.5
	v1.333c0,10.138,4.473,20.762,10.895,24.915c9.503,6.147,17.786-3.622,17.786-13.599v-6.657c0-9.104-6.832-23.966-15.39-23.966
	h-2.097C38.465,11.525,34.652,22.008,34.652,29.5L34.652,29.5z M11.57,55.464L11.57,55.464c0,9.005,7.814,23.3,16.089,23.3h2.8
	c3.249,0,6.295-5.928,6.295-9.32c0-9.597-8.06-24.632-16.79-24.632h-1.4c-3.868,0-6.994,3.837-6.994,7.326V55.464L11.57,55.464z
	 M25.56,102.066L25.56,102.066c0,10.946,11.528,20.637,23.085,20.637h5.596c4.817,0,9.259-3.329,13.291-3.329
	c4.03,0,8.474,3.329,13.291,3.329h5.594c11.557,0,23.083-9.691,23.083-20.637c0-7.924-11.372-21.599-15.39-27.295
	c-5.934-8.417-11.596-16.644-26.578-16.644c-14.66,0-20.756,8.324-26.582,16.644C36.94,80.494,25.56,94.144,25.56,102.066
	L25.56,102.066z M154.917,155.422L154.917,155.422c0-1.759,2.189-3.911,3.915-3.911h0.623c1.854,0,4.071,2.218,4.071,4.066v0.472
	c0,1.722-2.23,4.066-3.755,4.066h-1.099c-1.779,0-3.756-1.959-3.756-3.755V155.422L154.917,155.422z M161.652,127.02L161.652,127.02
	c0-3.677,3.694-6.883,7.515-6.883c3.874,0,7.351,3.456,7.351,7.354v0.312c0,4.063-3.554,7.354-7.67,7.354
	c-3.514,0-7.195-3.369-7.195-6.883V127.02L161.652,127.02z M55.958,147.965L55.958,147.965l0.026,33.903
	c3.389,0.459,6,3.361,6.004,6.875c0.002,3.837-3.105,6.948-6.94,6.948c-1.829,0.004-3.495-0.705-4.737-1.861
	c-1.24,1.16-2.902,1.87-4.733,1.87c-3.833,0.004-6.947-3.104-6.949-6.937c-0.002-3.292,2.286-6.052,5.362-6.772l-0.026-34.134
	c-3.077-0.713-5.371-3.468-5.373-6.76c-0.004-3.833,3.105-6.948,6.94-6.953c1.829,0,3.493,0.71,4.735,1.865
	c1.24-1.16,2.905-1.869,4.733-1.869c3.835-0.004,6.947,3.104,6.951,6.937C61.954,144.591,59.346,147.497,55.958,147.965
	L55.958,147.965z"/>
</svg>
