<?xml version="1.0" encoding="utf-8"?>
<!DOCTYPE svg PUBLIC "-//W3C//DTD SVG 1.1//EN" "http://www.w3.org/Graphics/SVG/1.1/DTD/svg11.dtd">
<svg version="1.1" xmlns="http://www.w3.org/2000/svg" xmlns:xlink="http://www.w3.org/1999/xlink" x="0px" y="0px" width="216px" height="216px" viewBox="0 0 216 216" enable-background="new 0 0 216 216" xml:space="preserve">  
    
<path fill-rule="evenodd" clip-rule="evenodd" d="M181.167,93.858
	c14.062,11.001,23.101,28.041,23.101,47.272c0,16.91-6.989,32.189-18.234,43.11h1.25v19.269h-86.87v-19.269h1.908
	c-11.247-10.921-18.237-33.94-18.237-43.11c0-9.171,1.619-11.381,2.021-12.685c2.048,0.029,5.022-0.135,6.959-0.463
	c-0.113,1.406-2.142,3.566-2.142,13.147c0,9.58,8.667,33.428,21.99,43.11h62.526c13.324-9.683,21.994-25.384,21.994-43.11
	c0-16.382-7.403-30.902-19.047-40.672h-62.521c-0.443-1.191-1.768-5.397-2.346-6.601H181.167L181.167,93.858z"/>
</svg>
