<?xml version="1.0" encoding="utf-8"?>
<!DOCTYPE svg PUBLIC "-//W3C//DTD SVG 1.1//EN" "http://www.w3.org/Graphics/SVG/1.1/DTD/svg11.dtd">
<svg version="1.1" xmlns="http://www.w3.org/2000/svg" xmlns:xlink="http://www.w3.org/1999/xlink" x="0px" y="0px" width="216px" height="216px" viewBox="0 0 216 216" enable-background="new 0 0 216 216" xml:space="preserve">  
    
<path fill-rule="evenodd" clip-rule="evenodd" d="M154.507,21.604h19.137v19.141h19.142v19.137h-19.142
	v19.141h-19.137V59.881h-19.141V40.745h19.141V21.604L154.507,21.604z M179.863,147.96L179.863,147.96
	c0-2.279,2.103-4.538,4.341-4.538h0.792c2.181,0,4.566,2.505,4.337,4.825c-0.242,2.419-2.013,4.547-4.637,4.547h-0.394
	C181.921,152.794,179.863,150.485,179.863,147.96L179.863,147.96z M91.143,134.85L91.143,134.85h69.641
	c0.722,3.485,4.42,6.539,7.97,6.539c4.022,0,7.572-2.804,8.429-6.539l19.789-0.159c0.254,2.106,0.39,4.255,0.39,6.44
	c0,17.727-8.667,33.428-21.99,43.106h-62.522c-13.328-9.679-21.996-33.526-21.996-43.106
	C90.852,138.339,90.972,136.33,91.143,134.85L91.143,134.85z M109.959,158.554L109.959,158.554c0-4.989-3.292-12.467-5.321-15.496
	c8.402,0,13.022,6.022,16.433,11.113c5.338-3.574,17.025-11.113,25.352-11.113h1.562c6.104,0,11.655,2.816,15.37,5.292
	c1.947,1.296,4.054,3.01,5.723,4.604c0.644,0.614,4.73,5.025,4.73,5.6c0,0.373-4.156,4.895-4.73,5.44
	c-1.664,1.59-3.682,3.246-5.629,4.542c-3.415,2.275-9.273,5.354-14.836,5.354h-2.816c-7.621,0-19.748-7.781-24.725-11.11
	c-3.428,5.112-7.986,11.11-16.433,11.11C106.622,170.931,109.959,163.407,109.959,158.554L109.959,158.554z M64.829,148.727
	L64.829,148.727c4.387,4.108,7.129,9.946,7.129,16.423c0,6.367-2.648,12.119-6.902,16.21c1.345,1.82,2.202,4.014,2.393,6.375
	c6.637-5.288,10.89-13.442,10.89-22.585c0-9.179-4.286-17.357-10.966-22.646C67.109,144.82,66.205,146.96,64.829,148.727
	L64.829,148.727z M34.929,182.303L34.929,182.303c-4.864-4.124-7.951-10.278-7.951-17.153c0-6.948,3.157-13.163,8.113-17.292
	c-1.226-1.886-1.945-4.115-1.999-6.485c-7.547,5.211-12.496,13.918-12.496,23.777c0,9.876,4.964,18.596,12.53,23.803l-0.002-0.188
	C33.124,186.423,33.777,184.205,34.929,182.303L34.929,182.303z M61.47,157.902L61.47,157.902c1.281,2.115,2.019,4.595,2.019,7.247
	c0,2.645-0.734,5.121-2.009,7.232l0.004,5.715c0.101,0.057,0.197,0.118,0.293,0.18c3.501-3.283,5.688-7.949,5.688-13.127
	c0-5.329-2.318-10.117-6.001-13.413L61.47,157.902L61.47,157.902z M38.479,173.854L38.479,173.854
	c-1.896-2.391-3.03-5.416-3.03-8.704c0-3.279,1.127-6.297,3.018-8.69l-0.004-5.12c-0.096-0.066-0.19-0.136-0.283-0.205
	c-4.091,3.3-6.709,8.354-6.709,14.016c0,5.539,2.505,10.491,6.44,13.796c0.187-0.148,0.377-0.287,0.572-0.423L38.479,173.854
	L38.479,173.854z"/>
</svg>
