<?xml version="1.0" encoding="utf-8"?>
<!DOCTYPE svg PUBLIC "-//W3C//DTD SVG 1.1//EN" "http://www.w3.org/Graphics/SVG/1.1/DTD/svg11.dtd">
<svg version="1.1" id="Layer_1" xmlns="http://www.w3.org/2000/svg" xmlns:xlink="http://www.w3.org/1999/xlink" x="0px" y="0px" width="216px" height="216px" viewBox="0 0 216 216" enable-background="new 0 0 216 216" xml:space="preserve">

<path fill-rule="evenodd" clip-rule="evenodd" d="M158.912,155.289c-1.899-1.33-4.07-3.627-5.726-5.192
	c-1.789-1.691-3.574-3.497-5.42-5.181c-1.85-1.679-3.667-3.513-5.489-5.232c-1.667-1.573-3.708-3.777-5.655-5.14
	c-1.582-1.11-4.871-0.386-6.188,1.253l-0.419,0.52c-0.992,1.236-0.919,3.221-0.594,4.245c0.37,1.159,2.078,2.46,3.041,3.578
	c2.09,2.415,4.758,4.611,6.974,7.002c2.229,2.398,4.77,4.619,6.94,7.002c1.082,1.183,2.306,2.35,3.432,3.509
	c0.569,0.59,3.306,3.094,2.892,3.606c-0.054,0.069-0.603,0.398-0.695,0.443c-4.347-3.042-9.161-5.953-13.564-9.039
	c-1.289-0.902-5.599-3.907-6.729-4.298c-1.976-0.675-4.529-0.613-6.172,1.432l-0.122,0.15c-0.988,1.228-1.086,2.415-0.902,3.473
	c0.093,0.528,0.337,1.028,0.642,1.532c0.48,0.81,0.606,0.663,1.269,1.362c0.537,0.557,2.696,2.127,3.354,2.631
	c0.952,0.728,2.732,1.842,3.469,2.614c0.906,0.951,2.558,1.753,3.55,2.659c0.919,0.834,2.33,1.83,3.424,2.623
	c2.301,1.658,4.492,3.5,6.952,5.216c6.412,4.9,18.289,12.39,9.381,14.354c-2.18,0.126-4.302,0.109-6.489,0.228
	c-2.147,0.114-4.375,0.228-6.49,0.261c-1.964,0.024-4.496,0.126-6.477,0.316c-2.114,0.203-4.392-0.102-6.294,2.261
	c-1.565,1.948-1.606,4.933,0.272,6.25l0.357,0.248c1.456,1.021,2.749,0.748,4.119,0.906c1.199,0.143,2.793,0.207,4.054,0.256
	c2.667,0.103,5.363,0.31,8.034,0.492c5.363,0.362,10.779,0.748,16.138,0.96c5.697,0.22,10.377,0.838,16.013-0.313
	c4.969-1.017,10.567-3.725,15.072-9.331l1.439-1.785c5.16-6.424,6.209-12.121,4.826-17.354c-1.419-5.367-5.273-9.881-9.083-14.816
	c-1.83-2.383-3.92-4.831-5.6-7.25c-1.703-2.443-3.765-4.721-5.298-7.241c-1.109-1.818-8.88-13.979-9.872-14.675l-0.146-0.102
	c-1.447-1.013-3.866-0.508-5.131,1.062l-0.358,0.451c-1.333,1.655-0.195,3.444,0.293,4.843c0.5,1.411,1.379,3.127,2.049,4.521
	c0.55,1.146,4.205,8.408,3.676,9.063c-0.15,0.184-0.687,0.452-0.91,0.293l-0.216-0.15c-0.658-0.464-3.939-4.586-4.696-5.505
	c-0.772-0.936-1.427-1.862-2.252-2.77c-0.55-0.602-1.749-2.024-2.204-2.716c-0.537-0.834-1.594-1.952-2.269-2.769
	c-0.773-0.932-1.477-1.789-2.236-2.708c-0.996-1.208-3.518-4.538-4.786-5.425l-0.216-0.154c-1.797-1.261-4.928-0.731-6.465,1.175
	c-1.069,1.334-1.28,2.704-1.143,3.839c0.146,1.175,0.996,2.171,1.817,3.229c1.606,2.069,3.155,4.159,4.7,6.27
	c1.529,2.082,3.115,4.172,4.733,6.258c0.817,1.053,1.528,2.082,2.325,3.143c0.415,0.558,0.789,1.045,1.159,1.569
	c0.313,0.447,1.146,1.074,0.679,1.655l-0.117,0.146C159.375,155.272,159.135,155.443,158.912,155.289L158.912,155.289z
	 M54.432,60.819L54.432,60.819c1.84,1.285,3.942,3.495,5.546,5.001c1.736,1.631,3.46,3.371,5.253,4.993
	c1.785,1.62,3.547,3.383,5.314,5.042c1.61,1.517,3.59,3.639,5.475,4.954c1.535,1.067,4.719,0.368,5.993-1.209l0.409-0.502
	c0.959-1.189,0.889-3.103,0.573-4.088c-0.355-1.118-2.008-2.371-2.946-3.448c-2.023-2.328-4.604-4.444-6.751-6.743
	c-2.161-2.313-4.621-4.45-6.725-6.748c-1.047-1.143-2.234-2.265-3.322-3.383c-0.553-0.565-3.2-2.978-2.802-3.474
	c0.053-0.065,0.585-0.382,0.673-0.429c4.21,2.934,8.874,5.737,13.142,8.709c1.246,0.87,5.422,3.765,6.516,4.139
	c1.915,0.655,4.387,0.594,5.977-1.374l0.118-0.145c0.956-1.183,1.053-2.33,0.875-3.344c-0.089-0.512-0.328-0.996-0.62-1.48
	c-0.466-0.776-0.587-0.641-1.23-1.312c-0.521-0.539-2.61-2.049-3.249-2.535c-0.921-0.703-2.646-1.779-3.358-2.517
	c-0.882-0.919-2.476-1.691-3.442-2.565c-0.886-0.805-2.254-1.761-3.316-2.523c-2.222-1.602-4.349-3.375-6.727-5.031
	c-6.215-4.721-17.718-11.932-9.089-13.825c2.11-0.126,4.166-0.105,6.288-0.219c2.08-0.11,4.237-0.222,6.282-0.25
	c1.903-0.024,4.357-0.124,6.276-0.309c2.045-0.195,4.251,0.102,6.095-2.177c1.517-1.876,1.553-4.753-0.262-6.018l-0.35-0.246
	c-1.407-0.98-2.663-0.713-3.986-0.87c-1.165-0.136-2.708-0.197-3.924-0.246c-2.588-0.1-5.196-0.299-7.785-0.474
	c-5.194-0.35-10.441-0.722-15.631-0.923c-5.518-0.213-10.051-0.809-15.512,0.301c-4.808,0.98-10.23,3.586-14.595,8.99l-1.395,1.722
	c-4.997,6.185-6.012,11.678-4.674,16.715c1.374,5.172,5.109,9.522,8.794,14.28c1.777,2.29,3.798,4.652,5.428,6.981
	c1.647,2.358,3.646,4.55,5.129,6.977c1.071,1.75,8.6,13.467,9.561,14.138l0.141,0.098c1.405,0.98,3.747,0.492,4.971-1.021L47.918,84
	c1.293-1.6,0.189-3.324-0.287-4.667c-0.484-1.36-1.334-3.013-1.982-4.359c-0.533-1.104-4.074-8.1-3.562-8.732
	c0.145-0.179,0.663-0.435,0.883-0.28l0.209,0.144c0.641,0.445,3.812,4.416,4.548,5.304c0.748,0.9,1.383,1.793,2.184,2.669
	c0.531,0.577,1.693,1.948,2.133,2.616c0.521,0.799,1.543,1.881,2.195,2.666c0.75,0.896,1.434,1.724,2.169,2.61
	c0.961,1.161,3.405,4.371,4.631,5.227l0.209,0.146c1.743,1.214,4.776,0.706,6.262-1.132c1.035-1.281,1.24-2.604,1.106-3.694
	c-0.14-1.137-0.963-2.096-1.756-3.115c-1.557-1.994-3.056-4.007-4.552-6.036c-1.484-2.011-3.019-4.021-4.586-6.034
	c-0.791-1.015-1.482-2-2.251-3.025c-0.404-0.541-0.768-1.011-1.12-1.513c-0.307-0.433-1.114-1.035-0.663-1.596l0.116-0.142
	C53.98,60.835,54.218,60.671,54.432,60.819L54.432,60.819z"/>
</svg>
