<?xml version="1.0" encoding="utf-8"?>
<!-- Generator: Adobe Illustrator 16.0.0, SVG Export Plug-In . SVG Version: 6.00 Build 0)  -->
<!DOCTYPE svg PUBLIC "-//W3C//DTD SVG 1.1//EN" "http://www.w3.org/Graphics/SVG/1.1/DTD/svg11.dtd">
<svg version="1.1" id="Layer_1" xmlns="http://www.w3.org/2000/svg" xmlns:xlink="http://www.w3.org/1999/xlink" x="0px" y="0px"
	 width="216px" height="216px" viewBox="0 0 216 216" enable-background="new 0 0 216 216" xml:space="preserve">
<path id="_x33_" fill-rule="evenodd" clip-rule="evenodd" fill="#F58031" d="M90.277,103.594h15.162l0.429-0.183
	c1.169-0.49,2.208-1.029,3.126-1.6c0.917-0.571,1.657-1.228,2.206-1.954c0.549-0.742,0.823-1.612,0.823-2.614
	c0-0.667-0.13-1.312-0.372-1.919c-0.25-0.607-0.618-1.122-1.118-1.551c-0.502-0.429-1.122-0.775-1.874-1.015
	c-0.738-0.25-1.608-0.37-2.611-0.37c-1.289,0-2.458,0.155-3.531,0.48c-1.073,0.309-2.015,0.654-2.826,1.047
	c-0.823,0.382-1.502,0.74-2.063,1.063c-0.561,0.321-0.968,0.488-1.228,0.488c-0.252,0-0.456-0.071-0.61-0.216
	c-0.154-0.13-0.272-0.357-0.346-0.654c-0.083-0.311-0.142-0.693-0.179-1.157c-0.035-0.466-0.047-1.039-0.047-1.706
	c0-0.608,0.012-1.123,0.024-1.527c0.022-0.405,0.071-0.74,0.128-1.015c0.063-0.262,0.12-0.476,0.204-0.643
	c0.085-0.168,0.24-0.358,0.479-0.598c0.226-0.226,0.704-0.524,1.431-0.87c0.726-0.346,1.549-0.669,2.479-0.943
	c0.931-0.285,1.933-0.5,3.007-0.667c1.073-0.167,2.146-0.238,3.208-0.238c2.076,0,4.044,0.263,5.892,0.797
	c1.85,0.537,3.456,1.348,4.818,2.433c1.37,1.074,2.456,2.446,3.257,4.079c0.801,1.646,1.203,3.556,1.203,5.714
	c0,1.897-0.272,3.507-0.833,4.865c-0.069,0.161-0.139,0.319-0.208,0.472h2.367c0.228,0,0.414,0.252,0.414,0.559v2.228
	c0,0.307-0.187,0.559-0.414,0.559H90.277c-0.228,0-0.415-0.252-0.415-0.559v-2.228C89.863,103.846,90.05,103.594,90.277,103.594
	L90.277,103.594z M92.595,117.687L92.595,117.687c0,2.374,0.443,4.46,1.323,6.262c0.884,1.789,2.088,3.293,3.603,4.484
	c1.515,1.204,3.279,2.099,5.308,2.708c2.027,0.606,4.198,0.907,6.5,0.907c1.561,0,3.017-0.122,4.353-0.383
	c1.338-0.248,2.517-0.561,3.541-0.919c1.024-0.369,1.887-0.739,2.578-1.146c0.679-0.39,1.179-0.74,1.48-1.049
	c0.309-0.297,0.52-0.74,0.642-1.301c0.131-0.569,0.191-1.395,0.191-2.469c0-0.728-0.024-1.321-0.061-1.813
	c-0.049-0.483-0.131-0.895-0.224-1.19c-0.11-0.297-0.253-0.513-0.432-0.643c-0.171-0.135-0.37-0.191-0.609-0.191
	c-0.321,0-0.785,0.191-1.383,0.573c-0.585,0.378-1.346,0.81-2.289,1.276c-0.932,0.464-2.041,0.895-3.326,1.273
	c-1.301,0.382-2.791,0.573-4.499,0.573c-1.12,0-2.12-0.131-3.005-0.395c-0.884-0.272-1.634-0.655-2.254-1.143
	c-0.608-0.492-1.083-1.086-1.407-1.813c-0.333-0.728-0.488-1.529-0.488-2.411c0-1.024,0.274-1.907,0.833-2.635
	c0.561-0.736,1.289-1.395,2.183-1.956c0.588-0.378,1.234-0.74,1.932-1.09h15.589c0.228,0,0.414-0.248,0.414-0.557v-2.225
	c0-0.307-0.187-0.561-0.414-0.561H90.277c-0.228,0-0.415,0.254-0.415,0.561v2.225c0,0.309,0.187,0.557,0.415,0.557h3.054
	C92.837,114.49,92.595,115.982,92.595,117.687L92.595,117.687z M107.521,141.302L107.521,141.302
	c-17.704,0-32.059-14.357-32.059-32.061c0-17.705,14.355-32.061,32.059-32.061c17.703,0,32.061,14.355,32.061,32.061
	C139.582,126.944,125.225,141.302,107.521,141.302L107.521,141.302z"/>
<path id="_x32_" fill-rule="evenodd" clip-rule="evenodd" fill="#999557" d="M16.187,0h183.467c8.904,0,16.187,7.284,16.187,16.187
	v183.467c0,8.9-7.282,16.187-16.187,16.187H16.187C7.284,215.84,0,208.554,0,199.653V16.187C0,7.284,7.284,0,16.187,0L16.187,0z
	 M16.187,4.995h183.467c6.155,0,11.189,5.036,11.189,11.191v183.467c0,6.155-5.034,11.189-11.189,11.189H16.187
	c-6.156,0-11.191-5.034-11.191-11.189V16.187C4.995,10.031,10.031,4.995,16.187,4.995L16.187,4.995z M154.479,57.162
	c-1.333,1.896-3.627,4.068-5.192,5.725c-1.691,1.791-3.496,3.572-5.184,5.422c-1.68,1.846-3.509,3.663-5.233,5.487
	c-1.573,1.665-3.773,3.708-5.14,5.656c-1.109,1.582-0.382,4.871,1.253,6.187l0.524,0.421c1.232,0.992,3.221,0.919,4.24,0.594
	c1.163-0.368,2.465-2.076,3.583-3.043c2.415-2.086,4.61-4.753,6.993-6.969c2.407-2.23,4.623-4.771,7.006-6.945
	c1.188-1.08,2.35-2.305,3.513-3.432c0.586-0.567,3.091-3.302,3.606-2.889c0.065,0.055,0.395,0.604,0.443,0.693
	c-3.045,4.349-5.952,9.163-9.043,13.568c-0.898,1.287-3.907,5.597-4.293,6.729c-0.68,1.974-0.614,4.529,1.427,6.172l0.15,0.118
	c1.228,0.99,2.419,1.089,3.473,0.905c0.532-0.094,1.032-0.338,1.537-0.641c0.805-0.48,0.662-0.606,1.357-1.272
	c0.562-0.533,2.127-2.692,2.635-3.353c0.724-0.949,1.842-2.732,2.61-3.466c0.956-0.911,1.757-2.558,2.659-3.554
	c0.838-0.915,1.83-2.33,2.619-3.423c1.667-2.297,3.505-4.493,5.225-6.947c4.899-6.418,12.385-18.293,14.349-9.384
	c0.126,2.18,0.11,4.302,0.228,6.492c0.114,2.146,0.232,4.375,0.261,6.487c0.024,1.964,0.126,4.497,0.317,6.479
	c0.203,2.11-0.103,4.391,2.265,6.292c1.943,1.565,4.932,1.606,6.245-0.27l0.252-0.36c1.021-1.454,0.744-2.749,0.907-4.117
	c0.138-1.204,0.203-2.796,0.252-4.054c0.105-2.671,0.309-5.363,0.492-8.034c0.361-5.361,0.748-10.781,0.959-16.14
	c0.224-5.698,0.842-10.378-0.313-16.014c-1.017-4.966-3.725-10.563-9.328-15.073l-1.789-1.437c-6.42-5.16-12.12-6.209-17.35-4.824
	c-5.367,1.417-9.885,5.271-14.82,9.079c-2.379,1.834-4.83,3.922-7.25,5.601c-2.443,1.702-4.717,3.767-7.237,5.3
	c-1.821,1.106-13.979,8.878-14.674,9.873l-0.102,0.142c-1.017,1.452-0.513,3.871,1.057,5.133l0.451,0.36
	c1.659,1.334,3.448,0.195,4.843-0.297c1.411-0.498,3.127-1.374,4.525-2.045c1.146-0.549,8.404-4.204,9.06-3.678
	c0.187,0.148,0.451,0.687,0.292,0.911l-0.15,0.215c-0.459,0.659-4.582,3.938-5.505,4.699c-0.936,0.772-1.858,1.423-2.773,2.252
	c-0.598,0.547-2.017,1.748-2.712,2.202c-0.829,0.539-1.951,1.592-2.769,2.269c-0.927,0.772-1.785,1.478-2.708,2.236
	c-1.204,0.994-4.538,3.517-5.424,4.783l-0.15,0.218c-1.261,1.797-0.732,4.93,1.175,6.465c1.329,1.067,2.704,1.279,3.834,1.141
	c1.18-0.146,2.176-0.994,3.229-1.813c2.073-1.608,4.159-3.155,6.27-4.7c2.086-1.533,4.172-3.117,6.262-4.735
	c1.049-0.817,2.078-1.531,3.135-2.324c0.565-0.417,1.054-0.791,1.574-1.159c0.447-0.315,1.073-1.149,1.654-0.681l0.15,0.12
	C154.459,56.696,154.634,56.94,154.479,57.162L154.479,57.162z M61.704,163.092L61.704,163.092c1.283-1.842,3.493-3.944,4.999-5.546
	c1.633-1.736,3.371-3.461,4.993-5.254c1.62-1.789,3.383-3.55,5.044-5.314c1.515-1.609,3.637-3.59,4.952-5.477
	c1.067-1.533,0.368-4.717-1.209-5.993l-0.502-0.406c-1.189-0.96-3.101-0.891-4.088-0.578c-1.118,0.358-2.371,2.013-3.446,2.948
	c-2.328,2.024-4.444,4.606-6.745,6.749c-2.314,2.164-4.451,4.624-6.748,6.729c-1.139,1.045-2.265,2.232-3.383,3.322
	c-0.565,0.549-2.978,3.2-3.474,2.802c-0.063-0.053-0.382-0.59-0.429-0.676c2.934-4.208,5.737-8.871,8.711-13.141
	c0.868-1.244,3.765-5.42,4.139-6.518c0.653-1.911,0.592-4.388-1.376-5.978l-0.145-0.114c-1.181-0.955-2.33-1.053-3.344-0.874
	c-0.512,0.086-0.994,0.325-1.482,0.618c-0.775,0.468-0.639,0.59-1.31,1.232c-0.539,0.516-2.049,2.61-2.535,3.248
	c-0.703,0.919-1.777,2.647-2.517,3.359c-0.919,0.878-1.691,2.476-2.564,3.439c-0.805,0.887-1.76,2.257-2.522,3.317
	c-1.604,2.225-3.375,4.351-5.034,6.726c-4.718,6.217-11.93,17.72-13.824,9.092c-0.124-2.11-0.105-4.168-0.217-6.29
	c-0.112-2.078-0.224-4.237-0.252-6.278c-0.024-1.902-0.124-4.358-0.307-6.277c-0.195-2.046,0.102-4.254-2.18-6.096
	c-1.876-1.517-4.753-1.557-6.018,0.265l-0.244,0.35c-0.982,1.407-0.715,2.659-0.872,3.984c-0.134,1.163-0.197,2.708-0.244,3.924
	c-0.102,2.59-0.301,5.196-0.474,7.786c-0.35,5.192-0.724,10.438-0.923,15.63c-0.215,5.518-0.809,10.052,0.299,15.508
	c0.98,4.811,3.588,10.234,8.99,14.598l1.722,1.395c6.185,4.997,11.678,6.014,16.715,4.672c5.172-1.37,9.522-5.107,14.28-8.795
	c2.293-1.773,4.651-3.798,6.983-5.424c2.356-1.647,4.548-3.647,6.976-5.132c1.752-1.069,13.468-8.6,14.137-9.559l0.1-0.143
	c0.978-1.403,0.492-3.745-1.024-4.973l-0.429-0.346c-1.598-1.293-3.324-0.191-4.666,0.288c-1.362,0.48-3.015,1.33-4.361,1.98
	c-1.104,0.528-8.1,4.074-8.73,3.562c-0.179-0.146-0.435-0.662-0.282-0.882l0.144-0.212c0.447-0.638,4.416-3.81,5.306-4.545
	c0.901-0.749,1.791-1.383,2.669-2.188c0.577-0.529,1.945-1.692,2.614-2.131c0.801-0.521,1.881-1.541,2.666-2.196
	c0.898-0.748,1.726-1.431,2.612-2.167c1.159-0.959,4.371-3.407,5.227-4.631l0.144-0.212c1.216-1.74,0.706-4.773-1.132-6.262
	c-1.281-1.032-2.604-1.239-3.692-1.105c-1.139,0.143-2.098,0.968-3.115,1.757c-1.994,1.557-4.007,3.058-6.038,4.554
	c-2.01,1.484-4.021,3.017-6.034,4.586c-1.012,0.789-2,1.48-3.025,2.249c-0.539,0.406-1.009,0.769-1.511,1.122
	c-0.433,0.305-1.035,1.114-1.596,0.663l-0.143-0.118C61.718,163.539,61.555,163.307,61.704,163.092L61.704,163.092z"/>
<path id="_x31_" fill-rule="evenodd" clip-rule="evenodd" fill="#7E5628" d="M158.912,155.289c-1.899-1.33-4.07-3.627-5.726-5.192
	c-1.789-1.691-3.574-3.497-5.42-5.181c-1.85-1.679-3.667-3.513-5.489-5.232c-1.667-1.573-3.708-3.777-5.655-5.14
	c-1.582-1.11-4.871-0.386-6.188,1.253l-0.419,0.52c-0.992,1.236-0.919,3.221-0.594,4.245c0.37,1.159,2.078,2.46,3.041,3.578
	c2.09,2.415,4.758,4.611,6.974,7.002c2.229,2.398,4.77,4.619,6.94,7.002c1.082,1.183,2.306,2.35,3.432,3.509
	c0.569,0.59,3.306,3.094,2.892,3.606c-0.054,0.069-0.603,0.398-0.695,0.443c-4.347-3.042-9.161-5.953-13.564-9.039
	c-1.289-0.902-5.599-3.907-6.729-4.298c-1.976-0.675-4.529-0.613-6.172,1.432l-0.122,0.15c-0.988,1.228-1.086,2.415-0.902,3.473
	c0.093,0.528,0.337,1.028,0.642,1.532c0.48,0.81,0.606,0.663,1.269,1.362c0.537,0.557,2.696,2.127,3.354,2.631
	c0.952,0.728,2.732,1.842,3.469,2.614c0.906,0.951,2.558,1.753,3.55,2.659c0.919,0.834,2.33,1.83,3.424,2.623
	c2.301,1.658,4.492,3.5,6.952,5.216c6.412,4.9,18.289,12.39,9.381,14.354c-2.18,0.126-4.302,0.109-6.489,0.228
	c-2.147,0.114-4.375,0.228-6.49,0.261c-1.964,0.024-4.496,0.126-6.477,0.316c-2.114,0.203-4.392-0.102-6.294,2.261
	c-1.565,1.948-1.606,4.933,0.272,6.25l0.357,0.248c1.456,1.021,2.749,0.748,4.119,0.906c1.199,0.143,2.793,0.207,4.054,0.256
	c2.667,0.103,5.363,0.31,8.034,0.492c5.363,0.362,10.779,0.748,16.138,0.96c5.697,0.22,10.377,0.838,16.013-0.313
	c4.969-1.017,10.567-3.725,15.072-9.331l1.439-1.785c5.16-6.424,6.209-12.121,4.826-17.354c-1.419-5.367-5.273-9.881-9.083-14.816
	c-1.83-2.383-3.92-4.831-5.6-7.25c-1.703-2.443-3.765-4.721-5.298-7.241c-1.109-1.818-8.88-13.979-9.872-14.675l-0.146-0.102
	c-1.447-1.013-3.866-0.508-5.131,1.062l-0.358,0.451c-1.333,1.655-0.195,3.444,0.293,4.843c0.5,1.411,1.379,3.127,2.049,4.521
	c0.55,1.146,4.205,8.408,3.676,9.063c-0.15,0.184-0.687,0.452-0.91,0.293l-0.216-0.15c-0.658-0.464-3.939-4.586-4.696-5.505
	c-0.772-0.936-1.427-1.862-2.252-2.77c-0.55-0.602-1.749-2.024-2.204-2.716c-0.537-0.834-1.594-1.952-2.269-2.769
	c-0.773-0.932-1.477-1.789-2.236-2.708c-0.996-1.208-3.518-4.538-4.786-5.425l-0.216-0.154c-1.797-1.261-4.928-0.731-6.465,1.175
	c-1.069,1.334-1.28,2.704-1.143,3.839c0.146,1.175,0.996,2.171,1.817,3.229c1.606,2.069,3.155,4.159,4.7,6.27
	c1.529,2.082,3.115,4.172,4.733,6.258c0.817,1.053,1.528,2.082,2.325,3.143c0.415,0.558,0.789,1.045,1.159,1.569
	c0.313,0.447,1.146,1.074,0.679,1.655l-0.117,0.146C159.375,155.272,159.135,155.443,158.912,155.289L158.912,155.289z
	 M54.432,60.819L54.432,60.819c1.84,1.285,3.942,3.495,5.546,5.001c1.736,1.631,3.46,3.371,5.253,4.993
	c1.785,1.62,3.547,3.383,5.314,5.042c1.61,1.517,3.59,3.639,5.475,4.954c1.535,1.067,4.719,0.368,5.993-1.209l0.409-0.502
	c0.959-1.189,0.889-3.103,0.573-4.088c-0.355-1.118-2.008-2.371-2.946-3.448c-2.023-2.328-4.604-4.444-6.751-6.743
	c-2.161-2.313-4.621-4.45-6.725-6.748c-1.047-1.143-2.234-2.265-3.322-3.383c-0.553-0.565-3.2-2.978-2.802-3.474
	c0.053-0.065,0.585-0.382,0.673-0.429c4.21,2.934,8.874,5.737,13.142,8.709c1.246,0.87,5.422,3.765,6.516,4.139
	c1.915,0.655,4.387,0.594,5.977-1.374l0.118-0.145c0.956-1.183,1.053-2.33,0.875-3.344c-0.089-0.512-0.328-0.996-0.62-1.48
	c-0.466-0.776-0.587-0.641-1.23-1.312c-0.521-0.539-2.61-2.049-3.249-2.535c-0.921-0.703-2.646-1.779-3.358-2.517
	c-0.882-0.919-2.476-1.691-3.442-2.565c-0.886-0.805-2.254-1.761-3.316-2.523c-2.222-1.602-4.349-3.375-6.727-5.031
	c-6.215-4.721-17.718-11.932-9.089-13.825c2.11-0.126,4.166-0.105,6.288-0.219c2.08-0.11,4.237-0.222,6.282-0.25
	c1.903-0.024,4.357-0.124,6.276-0.309c2.045-0.195,4.251,0.102,6.095-2.177c1.517-1.876,1.553-4.753-0.262-6.018l-0.35-0.246
	c-1.407-0.98-2.663-0.713-3.986-0.87c-1.165-0.136-2.708-0.197-3.924-0.246c-2.588-0.1-5.196-0.299-7.785-0.474
	c-5.194-0.35-10.441-0.722-15.631-0.923c-5.518-0.213-10.051-0.809-15.512,0.301c-4.808,0.98-10.23,3.586-14.595,8.99l-1.395,1.722
	c-4.997,6.185-6.012,11.678-4.674,16.715c1.374,5.172,5.109,9.522,8.794,14.28c1.777,2.29,3.798,4.652,5.428,6.981
	c1.647,2.358,3.646,4.55,5.129,6.977c1.071,1.75,8.6,13.467,9.561,14.138l0.141,0.098c1.405,0.98,3.747,0.492,4.971-1.021L47.918,84
	c1.293-1.6,0.189-3.324-0.287-4.667c-0.484-1.36-1.334-3.013-1.982-4.359c-0.533-1.104-4.074-8.1-3.562-8.732
	c0.145-0.179,0.663-0.435,0.883-0.28l0.209,0.144c0.641,0.445,3.812,4.416,4.548,5.304c0.748,0.9,1.383,1.793,2.184,2.669
	c0.531,0.577,1.693,1.948,2.133,2.616c0.521,0.799,1.543,1.881,2.195,2.666c0.75,0.896,1.434,1.724,2.169,2.61
	c0.961,1.161,3.405,4.371,4.631,5.227l0.209,0.146c1.743,1.214,4.776,0.706,6.262-1.132c1.035-1.281,1.24-2.604,1.106-3.694
	c-0.14-1.137-0.963-2.096-1.756-3.115c-1.557-1.994-3.056-4.007-4.552-6.036c-1.484-2.011-3.019-4.021-4.586-6.034
	c-0.791-1.015-1.482-2-2.251-3.025c-0.404-0.541-0.768-1.011-1.12-1.513c-0.307-0.433-1.114-1.035-0.663-1.596l0.116-0.142
	C53.98,60.835,54.218,60.671,54.432,60.819L54.432,60.819z"/>
</svg>
