<?xml version="1.0" encoding="utf-8"?>
<!DOCTYPE svg PUBLIC "-//W3C//DTD SVG 1.1//EN" "http://www.w3.org/Graphics/SVG/1.1/DTD/svg11.dtd">
<svg version="1.1" xmlns="http://www.w3.org/2000/svg" xmlns:xlink="http://www.w3.org/1999/xlink" x="0px" y="0px" width="216px" height="216px" viewBox="0 0 216 216" enable-background="new 0 0 216 216" xml:space="preserve">  
    
<path fill-rule="evenodd" clip-rule="evenodd" d="M16.187,0h183.467c8.904,0,16.187,7.284,16.187,16.187
	v183.467c0,8.9-7.282,16.187-16.187,16.187H16.187C7.284,215.84,0,208.554,0,199.653V16.187C0,7.284,7.284,0,16.187,0L16.187,0z
	 M16.187,4.995h183.467c6.155,0,11.189,5.036,11.189,11.191v183.467c0,6.155-5.034,11.189-11.189,11.189H16.187
	c-6.156,0-11.191-5.034-11.191-11.189V16.187C4.995,10.031,10.031,4.995,16.187,4.995L16.187,4.995z M154.479,57.162
	c-1.333,1.896-3.627,4.068-5.192,5.725c-1.691,1.791-3.496,3.572-5.184,5.422c-1.68,1.846-3.509,3.663-5.233,5.487
	c-1.573,1.665-3.773,3.708-5.14,5.656c-1.109,1.582-0.382,4.871,1.253,6.187l0.524,0.421c1.232,0.992,3.221,0.919,4.24,0.594
	c1.163-0.368,2.465-2.076,3.583-3.043c2.415-2.086,4.61-4.753,6.993-6.969c2.407-2.23,4.623-4.771,7.006-6.945
	c1.188-1.08,2.35-2.305,3.513-3.432c0.586-0.567,3.091-3.302,3.606-2.889c0.065,0.055,0.395,0.604,0.443,0.693
	c-3.045,4.349-5.952,9.163-9.043,13.568c-0.898,1.287-3.907,5.597-4.293,6.729c-0.68,1.974-0.614,4.529,1.427,6.172l0.15,0.118
	c1.228,0.99,2.419,1.089,3.473,0.905c0.532-0.094,1.032-0.338,1.537-0.641c0.805-0.48,0.662-0.606,1.357-1.272
	c0.562-0.533,2.127-2.692,2.635-3.353c0.724-0.949,1.842-2.732,2.61-3.466c0.956-0.911,1.757-2.558,2.659-3.554
	c0.838-0.915,1.83-2.33,2.619-3.423c1.667-2.297,3.505-4.493,5.225-6.947c4.899-6.418,12.385-18.293,14.349-9.384
	c0.126,2.18,0.11,4.302,0.228,6.492c0.114,2.146,0.232,4.375,0.261,6.487c0.024,1.964,0.126,4.497,0.317,6.479
	c0.203,2.11-0.103,4.391,2.265,6.292c1.943,1.565,4.932,1.606,6.245-0.27l0.252-0.36c1.021-1.454,0.744-2.749,0.907-4.117
	c0.138-1.204,0.203-2.796,0.252-4.054c0.105-2.671,0.309-5.363,0.492-8.034c0.361-5.361,0.748-10.781,0.959-16.14
	c0.224-5.698,0.842-10.378-0.313-16.014c-1.017-4.966-3.725-10.563-9.328-15.073l-1.789-1.437c-6.42-5.16-12.12-6.209-17.35-4.824
	c-5.367,1.417-9.885,5.271-14.82,9.079c-2.379,1.834-4.83,3.922-7.25,5.601c-2.443,1.702-4.717,3.767-7.237,5.3
	c-1.821,1.106-13.979,8.878-14.674,9.873l-0.102,0.142c-1.017,1.452-0.513,3.871,1.057,5.133l0.451,0.36
	c1.659,1.334,3.448,0.195,4.843-0.297c1.411-0.498,3.127-1.374,4.525-2.045c1.146-0.549,8.404-4.204,9.06-3.678
	c0.187,0.148,0.451,0.687,0.292,0.911l-0.15,0.215c-0.459,0.659-4.582,3.938-5.505,4.699c-0.936,0.772-1.858,1.423-2.773,2.252
	c-0.598,0.547-2.017,1.748-2.712,2.202c-0.829,0.539-1.951,1.592-2.769,2.269c-0.927,0.772-1.785,1.478-2.708,2.236
	c-1.204,0.994-4.538,3.517-5.424,4.783l-0.15,0.218c-1.261,1.797-0.732,4.93,1.175,6.465c1.329,1.067,2.704,1.279,3.834,1.141
	c1.18-0.146,2.176-0.994,3.229-1.813c2.073-1.608,4.159-3.155,6.27-4.7c2.086-1.533,4.172-3.117,6.262-4.735
	c1.049-0.817,2.078-1.531,3.135-2.324c0.565-0.417,1.054-0.791,1.574-1.159c0.447-0.315,1.073-1.149,1.654-0.681l0.15,0.12
	C154.459,56.696,154.634,56.94,154.479,57.162L154.479,57.162z M61.704,163.092L61.704,163.092c1.283-1.842,3.493-3.944,4.999-5.546
	c1.633-1.736,3.371-3.461,4.993-5.254c1.62-1.789,3.383-3.55,5.044-5.314c1.515-1.609,3.637-3.59,4.952-5.477
	c1.067-1.533,0.368-4.717-1.209-5.993l-0.502-0.406c-1.189-0.96-3.101-0.891-4.088-0.578c-1.118,0.358-2.371,2.013-3.446,2.948
	c-2.328,2.024-4.444,4.606-6.745,6.749c-2.314,2.164-4.451,4.624-6.748,6.729c-1.139,1.045-2.265,2.232-3.383,3.322
	c-0.565,0.549-2.978,3.2-3.474,2.802c-0.063-0.053-0.382-0.59-0.429-0.676c2.934-4.208,5.737-8.871,8.711-13.141
	c0.868-1.244,3.765-5.42,4.139-6.518c0.653-1.911,0.592-4.388-1.376-5.978l-0.145-0.114c-1.181-0.955-2.33-1.053-3.344-0.874
	c-0.512,0.086-0.994,0.325-1.482,0.618c-0.775,0.468-0.639,0.59-1.31,1.232c-0.539,0.516-2.049,2.61-2.535,3.248
	c-0.703,0.919-1.777,2.647-2.517,3.359c-0.919,0.878-1.691,2.476-2.564,3.439c-0.805,0.887-1.76,2.257-2.522,3.317
	c-1.604,2.225-3.375,4.351-5.034,6.726c-4.718,6.217-11.93,17.72-13.824,9.092c-0.124-2.11-0.105-4.168-0.217-6.29
	c-0.112-2.078-0.224-4.237-0.252-6.278c-0.024-1.902-0.124-4.358-0.307-6.277c-0.195-2.046,0.102-4.254-2.18-6.096
	c-1.876-1.517-4.753-1.557-6.018,0.265l-0.244,0.35c-0.982,1.407-0.715,2.659-0.872,3.984c-0.134,1.163-0.197,2.708-0.244,3.924
	c-0.102,2.59-0.301,5.196-0.474,7.786c-0.35,5.192-0.724,10.438-0.923,15.63c-0.215,5.518-0.809,10.052,0.299,15.508
	c0.98,4.811,3.588,10.234,8.99,14.598l1.722,1.395c6.185,4.997,11.678,6.014,16.715,4.672c5.172-1.37,9.522-5.107,14.28-8.795
	c2.293-1.773,4.651-3.798,6.983-5.424c2.356-1.647,4.548-3.647,6.976-5.132c1.752-1.069,13.468-8.6,14.137-9.559l0.1-0.143
	c0.978-1.403,0.492-3.745-1.024-4.973l-0.429-0.346c-1.598-1.293-3.324-0.191-4.666,0.288c-1.362,0.48-3.015,1.33-4.361,1.98
	c-1.104,0.528-8.1,4.074-8.73,3.562c-0.179-0.146-0.435-0.662-0.282-0.882l0.144-0.212c0.447-0.638,4.416-3.81,5.306-4.545
	c0.901-0.749,1.791-1.383,2.669-2.188c0.577-0.529,1.945-1.692,2.614-2.131c0.801-0.521,1.881-1.541,2.666-2.196
	c0.898-0.748,1.726-1.431,2.612-2.167c1.159-0.959,4.371-3.407,5.227-4.631l0.144-0.212c1.216-1.74,0.706-4.773-1.132-6.262
	c-1.281-1.032-2.604-1.239-3.692-1.105c-1.139,0.143-2.098,0.968-3.115,1.757c-1.994,1.557-4.007,3.058-6.038,4.554
	c-2.01,1.484-4.021,3.017-6.034,4.586c-1.012,0.789-2,1.48-3.025,2.249c-0.539,0.406-1.009,0.769-1.511,1.122
	c-0.433,0.305-1.035,1.114-1.596,0.663l-0.143-0.118C61.718,163.539,61.555,163.307,61.704,163.092L61.704,163.092z"/>

</svg>
