<?xml version="1.0" encoding="utf-8"?>
<!DOCTYPE svg PUBLIC "-//W3C//DTD SVG 1.1//EN" "http://www.w3.org/Graphics/SVG/1.1/DTD/svg11.dtd">
<svg version="1.1" xmlns="http://www.w3.org/2000/svg" xmlns:xlink="http://www.w3.org/1999/xlink" x="0px" y="0px" width="216px" height="216px" viewBox="0 0 216 216" enable-background="new 0 0 216 216" xml:space="preserve">  
    
<path fill-rule="evenodd" clip-rule="evenodd" d="M90.277,103.594h15.162l0.429-0.183
	c1.169-0.49,2.208-1.029,3.126-1.6c0.917-0.571,1.657-1.228,2.206-1.954c0.549-0.742,0.823-1.612,0.823-2.614
	c0-0.667-0.13-1.312-0.372-1.919c-0.25-0.607-0.618-1.122-1.118-1.551c-0.502-0.429-1.122-0.775-1.874-1.015
	c-0.738-0.25-1.608-0.37-2.611-0.37c-1.289,0-2.458,0.155-3.531,0.48c-1.073,0.309-2.015,0.654-2.826,1.047
	c-0.823,0.382-1.502,0.74-2.063,1.063c-0.561,0.321-0.968,0.488-1.228,0.488c-0.252,0-0.456-0.071-0.61-0.216
	c-0.154-0.13-0.272-0.357-0.346-0.654c-0.083-0.311-0.142-0.693-0.179-1.157c-0.035-0.466-0.047-1.039-0.047-1.706
	c0-0.608,0.012-1.123,0.024-1.527c0.022-0.405,0.071-0.74,0.128-1.015c0.063-0.262,0.12-0.476,0.204-0.643
	c0.085-0.168,0.24-0.358,0.479-0.598c0.226-0.226,0.704-0.524,1.431-0.87c0.726-0.346,1.549-0.669,2.479-0.943
	c0.931-0.285,1.933-0.5,3.007-0.667c1.073-0.167,2.146-0.238,3.208-0.238c2.076,0,4.044,0.263,5.892,0.797
	c1.85,0.537,3.456,1.348,4.818,2.433c1.37,1.074,2.456,2.446,3.257,4.079c0.801,1.646,1.203,3.556,1.203,5.714
	c0,1.897-0.272,3.507-0.833,4.865c-0.069,0.161-0.139,0.319-0.208,0.472h2.367c0.228,0,0.414,0.252,0.414,0.559v2.228
	c0,0.307-0.187,0.559-0.414,0.559H90.277c-0.228,0-0.415-0.252-0.415-0.559v-2.228C89.863,103.846,90.05,103.594,90.277,103.594
	L90.277,103.594z M92.595,117.687L92.595,117.687c0,2.374,0.443,4.46,1.323,6.262c0.884,1.789,2.088,3.293,3.603,4.484
	c1.515,1.204,3.279,2.099,5.308,2.708c2.027,0.606,4.198,0.907,6.5,0.907c1.561,0,3.017-0.122,4.353-0.383
	c1.338-0.248,2.517-0.561,3.541-0.919c1.024-0.369,1.887-0.739,2.578-1.146c0.679-0.39,1.179-0.74,1.48-1.049
	c0.309-0.297,0.52-0.74,0.642-1.301c0.131-0.569,0.191-1.395,0.191-2.469c0-0.728-0.024-1.321-0.061-1.813
	c-0.049-0.483-0.131-0.895-0.224-1.19c-0.11-0.297-0.253-0.513-0.432-0.643c-0.171-0.135-0.37-0.191-0.609-0.191
	c-0.321,0-0.785,0.191-1.383,0.573c-0.585,0.378-1.346,0.81-2.289,1.276c-0.932,0.464-2.041,0.895-3.326,1.273
	c-1.301,0.382-2.791,0.573-4.499,0.573c-1.12,0-2.12-0.131-3.005-0.395c-0.884-0.272-1.634-0.655-2.254-1.143
	c-0.608-0.492-1.083-1.086-1.407-1.813c-0.333-0.728-0.488-1.529-0.488-2.411c0-1.024,0.274-1.907,0.833-2.635
	c0.561-0.736,1.289-1.395,2.183-1.956c0.588-0.378,1.234-0.74,1.932-1.09h15.589c0.228,0,0.414-0.248,0.414-0.557v-2.225
	c0-0.307-0.187-0.561-0.414-0.561H90.277c-0.228,0-0.415,0.254-0.415,0.561v2.225c0,0.309,0.187,0.557,0.415,0.557h3.054
	C92.837,114.49,92.595,115.982,92.595,117.687L92.595,117.687z M107.521,141.302L107.521,141.302
	c-17.704,0-32.059-14.357-32.059-32.061c0-17.705,14.355-32.061,32.059-32.061c17.703,0,32.061,14.355,32.061,32.061
	C139.582,126.944,125.225,141.302,107.521,141.302L107.521,141.302z"/>

</svg>
