<?xml version="1.0" encoding="utf-8"?>
<!DOCTYPE svg PUBLIC "-//W3C//DTD SVG 1.1//EN" "http://www.w3.org/Graphics/SVG/1.1/DTD/svg11.dtd">
<svg version="1.1" xmlns="http://www.w3.org/2000/svg" xmlns:xlink="http://www.w3.org/1999/xlink" x="0px" y="0px" width="216px" height="216px" viewBox="0 0 216 216" enable-background="new 0 0 216 216" xml:space="preserve">

<path fill-rule="evenodd" clip-rule="evenodd" d="M67.87,166.552c1.382-1.797,3.814-3.05,6.12-3.135
	l47.45,0.313c3.041-0.219,6.778-2.688,7.083-5.647c0.305-2.952-2.866-6.07-5.794-6.896c-18.81-5.298-37.912-3.64-56.522-9.563
	c-5.05-1.61-7.479-9.482-11.596-13.95c-5.392-4.709-7.057-7.222-13.938-9.421l-29.052,0.28v56.631l81.479,26.193
	c4.233,1.18,9.173,1.729,13.205,0l96.614-47.035c2.691-1.549,2.277-6.327,0.968-9.092c-1.049-2.208-4.367-3.813-6.766-3.139
	l-57.961,21.371c-0.838,3.529-3.021,5.753-5.485,7.79c-2.851,2.362-6.249,4.729-9.978,5.018l-50.352,1.256
	c-2.732-0.146-5.005-2.224-6.199-4.623C66.296,171.203,66.703,168.064,67.87,166.552L67.87,166.552z"/>
</svg>
