<?xml version="1.0" encoding="utf-8"?>
<!DOCTYPE svg PUBLIC "-//W3C//DTD SVG 1.1//EN" "http://www.w3.org/Graphics/SVG/1.1/DTD/svg11.dtd">
<svg version="1.1" xmlns="http://www.w3.org/2000/svg" xmlns:xlink="http://www.w3.org/1999/xlink" x="0px" y="0px" width="216px" height="216px" viewBox="0 0 216 216" enable-background="new 0 0 216 216" xml:space="preserve">  
    
<path fill-rule="evenodd" clip-rule="evenodd" d="M16.187,0h183.467c8.904,0,16.187,7.284,16.187,16.187
	v183.467c0,8.9-7.282,16.187-16.187,16.187H16.187C7.284,215.84,0,208.554,0,199.653V16.187C0,7.284,7.284,0,16.187,0L16.187,0z
	 M16.187,4.995h183.467c6.155,0,11.189,5.036,11.189,11.191v183.467c0,6.155-5.034,11.189-11.189,11.189H16.187
	c-6.156,0-11.191-5.034-11.191-11.189V16.187C4.995,10.031,10.031,4.995,16.187,4.995L16.187,4.995z M148.661,48.217
	c-1.382,1.795-3.817,3.047-6.119,3.135l-47.448-0.311c-3.043,0.215-6.784,2.686-7.087,5.644c-0.303,2.956,2.868,6.073,5.798,6.898
	c18.808,5.3,37.909,3.637,56.52,9.565c5.05,1.606,7.478,9.478,11.592,13.946c5.4,4.708,7.059,7.223,13.942,9.423l29.052-0.282
	V39.605L123.432,13.41c-4.232-1.175-9.173-1.724-13.202,0L13.613,60.447c-2.694,1.547-2.275,6.327-0.963,9.094
	c1.045,2.208,4.365,3.81,6.762,3.135l57.961-21.369c0.839-3.531,3.021-5.755,5.483-7.792c2.852-2.363,6.251-4.727,9.984-5.018
	l50.35-1.256c2.732,0.146,5.005,2.226,6.2,4.623C150.234,43.567,149.828,46.702,148.661,48.217L148.661,48.217z"/>
</svg>
