<?xml version="1.0" encoding="utf-8"?>
<!DOCTYPE svg PUBLIC "-//W3C//DTD SVG 1.1//EN" "http://www.w3.org/Graphics/SVG/1.1/DTD/svg11.dtd">
<svg version="1.1" id="Layer_1" xmlns="http://www.w3.org/2000/svg" xmlns:xlink="http://www.w3.org/1999/xlink" x="0px" y="0px" width="216px" height="216px" viewBox="0 0 216 216" enable-background="new 0 0 216 216" xml:space="preserve">

<path fill-rule="evenodd" clip-rule="evenodd" d="M46.373,129.197c3.633-3.488,7.266-6.978,10.897-10.466
	s7.266-6.978,10.897-10.466c3.631-3.489,7.264-6.978,10.897-10.466c3.631-3.489,7.264-6.978,10.897-10.466
	c3.631-3.489,7.262-6.978,10.897-10.466c3.631-3.488,7.264-6.977,10.893-10.466c11.986-11.515,9.767-11.57,21.664,0.043
	c3.59,3.502,7.181,7.005,10.771,10.508s7.177,7.006,10.767,10.509c3.586,3.505,7.177,7.008,10.767,10.511
	c3.591,3.502,7.177,7.005,10.768,10.508c3.59,3.5,7.18,7.001,10.771,10.51c3.586,3.501,7.177,7.002,10.767,10.507
	c14.508,14.162,8.408,11.219-6.437,10.572v-6.201h-2.761v6.115c-0.553-0.012-1.122-0.021-1.699-0.021l-5.53-0.012v-6.083h-2.753
	v6.083l-7.233-0.017v-6.066h-2.756v6.059l-3.392-0.004l-3.838-0.009v-6.046h-2.757v6.038l-7.233-0.017v-6.021h-2.757v6.018
	l-5.079-0.008l-2.154-0.004v-6.006h-2.757v6.002l-7.229-0.017v-5.985h-2.753v5.977l-6.773-0.012h-0.46v-5.965h-2.757v5.961
	l-7.233-0.013v-5.948h-2.754v5.94l-7.231-0.017v-5.924h-2.757v5.92l-7.233-0.016v-5.904H88.95v5.899l-7.234-0.012v-5.888h-2.754
	v5.884l-0.159-0.004l-7.073-0.013v-5.867h-2.755v5.859l-7.233-0.017v-5.843h-2.757v5.843l-1.846-0.004
	c-1.905-0.008-3.704,0.049-5.386,0.122v-5.961H49v6.115C36.887,140.753,32.985,142.059,46.373,129.197L46.373,129.197z
	 M73.792,124.29L73.792,124.29c1.681,0,3.36,0.179,5.044,0.179h86.654c1.757,0.004,3.509,0.008,5.266,0.008
	c-1.688-1.646-3.379-3.293-5.063-4.936c-3.59-3.506-7.176-7.01-10.767-10.511c-3.59-3.503-7.181-7.006-10.771-10.509
	c-3.586-3.503-7.177-7.006-10.767-10.509c-3.591-3.505-7.177-7.008-10.767-10.511c-0.021-0.018-0.041-0.039-0.058-0.059
	c-0.04,0.034-0.073,0.071-0.113,0.104c-3.627,3.489-7.263,6.975-10.894,10.466c-3.631,3.489-7.264,6.978-10.896,10.466
	c-3.631,3.489-7.264,6.978-10.895,10.466c-3.631,3.489-7.264,6.978-10.895,10.466C77.177,121.037,75.485,122.659,73.792,124.29
	L73.792,124.29z M49.717,59.179C60.799,59.179,38.649,59.179,49.717,59.179L49.717,59.179z M80.934,144.449L80.934,144.449
	l2.381,12.596h-6.379c-0.413-0.634-0.85-1.248-1.312-1.837l-2.982-10.775L80.934,144.449L80.934,144.449z M83.483,184.17
	L83.483,184.17l6.788,19.009l0.559-0.277l-3.46-18.731H83.483L83.483,184.17z M14.694,178.758L14.694,178.758l4.457,1.021
	l-8.355,23.4l-0.559-0.277L14.694,178.758L14.694,178.758z M39.198,72.505L39.198,72.505l-8.35,15.258L14.135,176.16l5.201,1.113
	l27.646-99.899C43.868,76.656,41.148,74.904,39.198,72.505L39.198,72.505z M61.868,72.505L61.868,72.505l8.348,15.258l1.832,9.688
	l-6.021,5.786l-3.782,3.631l-8.162-29.493C57.196,76.656,59.918,74.904,61.868,72.505L61.868,72.505z M45.149,11.621L45.149,11.621
	h10.029c1.021,0,1.858,0.837,1.858,1.858v27.484c0,1.022-0.837,1.858-1.858,1.858H45.149c-1.021,0-1.856-0.836-1.856-1.858V13.479
	C43.293,12.458,44.128,11.621,45.149,11.621L45.149,11.621z M50.162,74.762L50.162,74.762c-6.152,0-11.141-4.989-11.141-11.141
	c0-6.156,4.989-11.143,11.141-11.143c6.154,0,11.145,4.987,11.145,11.143C61.307,69.772,56.316,74.762,50.162,74.762L50.162,74.762z
	 M49.717,59.179L49.717,59.179c2.23,0,4.04,1.807,4.04,4.038c0,2.23-1.81,4.038-4.04,4.038c-2.228,0-4.037-1.808-4.037-4.038
	C45.68,60.986,47.489,59.179,49.717,59.179L49.717,59.179z M46.356,45.123L46.356,45.123h7.986v5.154h-7.986V45.123L46.356,45.123z"
	/>
</svg>
