<?xml version="1.0" encoding="utf-8"?>
<!DOCTYPE svg PUBLIC "-//W3C//DTD SVG 1.1//EN" "http://www.w3.org/Graphics/SVG/1.1/DTD/svg11.dtd">
<svg version="1.1" xmlns="http://www.w3.org/2000/svg" xmlns:xlink="http://www.w3.org/1999/xlink" x="0px" y="0px" width="216px" height="216px" viewBox="0 0 216 216" enable-background="new 0 0 216 216" xml:space="preserve">  
    
<path fill-rule="evenodd" clip-rule="evenodd" d="M160.66,73.086h32.557V57.51H160.66V73.086
	L160.66,73.086z M160.916,33.931L160.916,33.931h32.553V18.35h-32.553V33.931L160.916,33.931z M123.899,33.931L123.899,33.931
	h32.557V18.35h-32.557V33.931L123.899,33.931z M148.174,73.086L148.174,73.086h8.282V57.51H132.23
	c1.684,1.539,3.298,3.232,4.92,4.818c2.891,2.82,5.773,5.64,8.665,8.458L148.174,73.086L148.174,73.086z M178.685,53.393
	L178.685,53.393h14.532V37.816h-14.532V53.393L178.685,53.393z M141.407,53.393L141.407,53.393h32.549V37.816h-32.549V53.393
	L141.407,53.393z M104.643,53.393L104.643,53.393h32.553V37.816h-32.553V53.393L104.643,53.393z"/>

</svg>
