<?xml version="1.0" encoding="utf-8"?>
<!DOCTYPE svg PUBLIC "-//W3C//DTD SVG 1.1//EN" "http://www.w3.org/Graphics/SVG/1.1/DTD/svg11.dtd">
<svg version="1.1" xmlns="http://www.w3.org/2000/svg" xmlns:xlink="http://www.w3.org/1999/xlink" x="0px" y="0px" width="216px" height="216px" viewBox="0 0 216 216" enable-background="new 0 0 216 216" xml:space="preserve">

<path fill-rule="evenodd" clip-rule="evenodd" d="M16.187,0h183.467c8.904,0,16.187,7.284,16.187,16.187
	v183.467c0,8.9-7.282,16.187-16.187,16.187H16.187C7.284,215.84,0,208.554,0,199.653V16.187C0,7.284,7.284,0,16.187,0L16.187,0z
	 M16.187,4.995h183.467c6.155,0,11.189,5.036,11.189,11.191v183.467c0,6.155-5.034,11.189-11.189,11.189H16.187
	c-6.156,0-11.191-5.034-11.191-11.189V16.187C4.995,10.031,10.031,4.995,16.187,4.995L16.187,4.995z M198.299,161.522
	c-3.225-5.688-9.043-9.531-16.337-9.531c-7.295,0-14.113,4.497-17.077,10.97H77.301c-2.96-6.473-9.492-10.97-17.075-10.97
	c-7.006,0-13.113,3.843-16.339,9.531c5.327,0,10.655,0,15.981,0l5.751,9.827l-5.666,9.434c-5.294,0-10.45,0.085-15.544,0.085
	c3.336,5.208,9.173,8.66,15.817,8.66c7.695,0,14.308-4.635,17.205-11.263h87.328c2.895,6.628,10.034,11.263,17.203,11.263
	c7.173,0,12.482-3.452,15.82-8.66c-5.099,0-10.169,0.077-15.463,0.077l-5.753-9.596l5.753-9.827
	C187.646,161.522,192.973,161.522,198.299,161.522L198.299,161.522z"/>

</svg>
