<?xml version="1.0" encoding="utf-8"?>
<!-- Generator: Adobe Illustrator 16.0.0, SVG Export Plug-In . SVG Version: 6.00 Build 0)  -->
<!DOCTYPE svg PUBLIC "-//W3C//DTD SVG 1.1//EN" "http://www.w3.org/Graphics/SVG/1.1/DTD/svg11.dtd">
<svg version="1.1" id="Layer_1" xmlns="http://www.w3.org/2000/svg" xmlns:xlink="http://www.w3.org/1999/xlink" x="0px" y="0px"
	 width="216px" height="216px" viewBox="0 0 216 216" enable-background="new 0 0 216 216" xml:space="preserve">
<path id="_x33_" fill-rule="evenodd" clip-rule="evenodd" fill="#F58031" d="M108.546,66.741L108.546,66.741
	c18.171,0,32.91,15.333,32.91,34.238c0,18.906-26.417,56.533-32.91,66.089c-8.089-8.494-32.912-47.183-32.912-66.089
	C75.634,82.074,90.371,66.741,108.546,66.741L108.546,66.741z M108.546,85.703L108.546,85.703c8.112,0,14.687,6.843,14.687,15.276
	c0,8.435-6.574,15.28-14.687,15.28c-8.111,0-14.687-6.846-14.687-15.28C93.859,92.546,100.435,85.703,108.546,85.703L108.546,85.703
	z M108.546,90.194L108.546,90.194c-5.853,0-10.193,5.08-10.193,10.785c0,5.707,4.338,10.785,10.193,10.785
	c5.852,0,10.193-5.079,10.193-10.785C118.739,95.272,114.397,90.194,108.546,90.194L108.546,90.194z M177.978,190.529
	L177.978,190.529c-10.841-3.407-13.857-11.296-11.991-19.046c1.501-6.221,6.343-12.251,11.287-16.577
	c2.456-2.15,5.644-4.351,8.466-5.997c-0.354,2.468-0.646,4.358,0.35,6.352c3.176,6.347,8.169,12.868,9.526,17.987
	c1.354,5.119-0.496,8.108-2.118,11.283c-1.622,3.18-4.232,4.591-7.055,5.998c1.765-2.822,3.106-5.188,3.176-8.466
	c0.057-2.684-1.765-4.937-2.822-7.404c-0.472-1.528-1.41-2.821-1.41-4.232c-1.058,1.057-1.127,2.028-1.411,3.525
	c-0.199,1.049-0.118,1.765,0,2.825c-1.411-2.118-2.391-3.81-2.818-6.351c-0.536-3.135,0-6.352,0.7-9.522
	c-3.172,2.468-5.814,6.525-7.051,10.579c-1,3.27-0.659,7.307,0,10.23c0.654,2.924,0.874,3.159,1.411,4.587
	C176.749,187.728,177.978,190.062,177.978,190.529L177.978,190.529z M187.235,31.847L187.235,31.847c1.732,0,3.46,0,5.188,0
	c1.821-0.185,2.086,0.327,0.765,1.958c-6.222,7.843-12.442,15.685-18.659,23.528c-2.721,3.092-3.444,2.066-2.529-0.86
	c1.549-4.344,3.103-8.689,4.651-13.031c0.529-1.484,0.492-1.387-1.049-1.387h-6.127c-1.973,0.211-2.871-0.053-1.61-2.407
	c3.639-7.467,7.278-14.934,10.917-22.397c0.654-1.092,0.362-1.462,2.501-1.596c3.529-0.024,7.144,0.024,10.669,0
	c2.476-0.008,2.748,0.297,1.395,2.873c-2.472,3.914-4.948,7.827-7.425,11.743C184.625,32.314,184.975,31.847,187.235,31.847
	L187.235,31.847z M33.852,50.102L33.852,50.102c-3.414,0-6.181-2.769-6.181-6.179c0-2.736,1.775-5.052,4.235-5.869V27.726
	c0-1.067,0.876-1.946,1.946-1.946h0.228c1.071,0,1.948,0.878,1.948,1.946v10.409c2.34,0.878,4.005,3.139,4.005,5.788
	C40.032,47.333,37.265,50.102,33.852,50.102L33.852,50.102z M28.495,26.868L28.495,26.868h-0.48v9.441
	c-2.317,1.781-3.755,4.57-3.755,7.613c0,3.273,1.645,6.166,4.151,7.895h-0.396v5.381c0,1.069-0.876,1.945-1.948,1.945h-1.142
	c-1.07,0-1.946-0.876-1.946-1.945v-5.381h-3.664v5.381c0,1.069-0.876,1.945-1.945,1.945h-1.147c-1.067,0-1.943-0.876-1.943-1.945
	V26.868h-0.917c-0.628,0-1.145-0.517-1.145-1.146v-4.119c0-0.63,0.517-1.145,1.145-1.145h0.917v-4.121
	c0-1.07,0.876-1.946,1.943-1.946h1.147c1.069,0,1.945,0.876,1.945,1.946v4.121h3.664v-4.121c0-1.07,0.876-1.946,1.946-1.946h1.142
	c1.072,0,1.948,0.876,1.948,1.946v4.121h3.664v-4.121c0-1.07,0.876-1.946,1.943-1.946h1.147c1.069,0,1.943,0.876,1.943,1.946v4.121
	h3.664v-4.121c0-1.07,0.874-1.946,1.945-1.946h1.143c1.072,0,1.948,0.876,1.948,1.946v4.121h3.662v-4.121
	c0-1.07,0.878-1.946,1.945-1.946h1.145c1.072,0,1.948,0.876,1.948,1.946v4.121h0.229c0.628,0,1.145,0.515,1.145,1.145v4.119
	c0,0.63-0.517,1.146-1.145,1.146H54.11v30.331c0,1.069-0.876,1.945-1.948,1.945h-1.145c-1.067,0-1.945-0.876-1.945-1.945v-5.381
	h-3.662v5.381c0,1.069-0.876,1.945-1.948,1.945h-1.143c-1.071,0-1.945-0.876-1.945-1.945v-5.381h-1.082
	c2.504-1.729,4.149-4.621,4.149-7.895c0-2.726-1.153-5.253-3.068-7.032V26.868h-0.938v-0.456c0-2.956-2.405-5.361-5.359-5.361
	h-0.228c-2.952,0-5.357,2.405-5.357,5.361V26.868L28.495,26.868z M36.712,53.078L36.712,53.078v4.121
	c0,1.069-0.874,1.945-1.943,1.945h-1.147c-1.067,0-1.943-0.876-1.943-1.945v-3.934c0.697,0.163,1.427,0.248,2.173,0.248
	C34.85,53.513,35.809,53.362,36.712,53.078L36.712,53.078z M45.411,48.385L45.411,48.385h3.662V26.868h-3.662V48.385L45.411,48.385z
	 M19.315,48.385L19.315,48.385h3.664V26.868h-3.664V48.385L19.315,48.385z M35.075,201.052L35.075,201.052
	c8.653,0,15.672-8.038,15.672-17.955c0-9.909-11.842-22.311-15.672-30.597c-7.26,11.628-15.672,20.688-15.672,30.597
	C19.403,193.014,26.421,201.052,35.075,201.052L35.075,201.052z M27.698,190.7L27.698,190.7c0.331,0,0.744-0.411,0.744-0.74
	c0-0.744-1.276-2.473-1.421-3.745c-0.701-4.009,0.014-8.485,0.307-12.58c-0.671,0.769-3.275,7.359-3.34,10.389
	C23.935,186.699,24.55,190.7,27.698,190.7L27.698,190.7z M199.844,200.405L199.844,200.405h-35.976v-5.501
	c0-1.631,1.334-2.965,2.964-2.965h1.269v4.237h3.884v-4.237h3.996v4.237h3.879v-4.237h3.997v4.237h3.879v-4.237h4.001v4.237h3.879
	v-4.237h1.269c1.631,0,2.96,1.334,2.96,2.965V200.405L199.844,200.405z"/>
<path id="_x32_" fill-rule="evenodd" clip-rule="evenodd" fill="#999557" d="M16.187,0h183.467c8.904,0,16.187,7.284,16.187,16.187
	v183.467c0,8.9-7.282,16.187-16.187,16.187H16.187C7.284,215.84,0,208.554,0,199.653V16.187C0,7.284,7.284,0,16.187,0L16.187,0z
	 M16.187,4.995h183.467c6.155,0,11.189,5.036,11.189,11.191v183.467c0,6.155-5.034,11.189-11.189,11.189H16.187
	c-6.156,0-11.191-5.034-11.191-11.189V16.187C4.995,10.031,10.031,4.995,16.187,4.995L16.187,4.995z M107.918,173.834
	c-7.476,0-32.947,0-40.42,0c-7.459,0-10.655-4.786-10.108-10.108v-60.329c-0.976-4.96-5.91-0.927-8.864,2.027
	c-4.656,4.032-11.147-3.322-7.229-7.229l27.057-27.055V44.775h14.182c0,6.896,0.002,2.281,0.108,12.076
	c7.319-7.321,14.638-14.642,21.958-21.96c2.065-1.745,5.043-2.639,7.625-0.059c21.422,21.424,42.846,42.845,64.266,64.269
	c3.944,4.676-3.773,10.896-7.229,7.228c-3.428-4.873-10.283-9.386-9.754-3.281c0,28.31,0,32.506,0,60.817
	c0,7.046-4.136,9.938-8.913,9.97h-41.219l2.883-4.236c10.895-16.028,33.688-49.382,33.688-68.618
	c0-20.847-16.239-38.731-37.403-38.731c-21.164,0-37.405,17.884-37.405,38.731c0,11.065,7.01,25.985,12.119,35.667
	c3.669,6.953,7.737,13.779,12.096,20.326c2.885,4.334,6.343,9.421,9.937,13.193l3.489,3.668H107.918L107.918,173.834z"/>
<path id="_x31_" fill-rule="evenodd" clip-rule="evenodd" fill="#7E5628" d="M107.802,190.098L107.802,190.098l11.324-8.831H96.161
	L107.802,190.098L107.802,190.098z M123.595,178.327L123.595,178.327c0.012,0.244,0.02,0.487,0.02,0.735
	c0,8.941-7.253,16.195-16.194,16.195s-16.197-7.254-16.197-16.195c0-0.248,0.006-0.491,0.019-0.735h16.677H123.595L123.595,178.327z
	 M127.737,178.327L127.737,178.327v19.72c0,2.31-1.891,4.196-4.196,4.196H90.196c-2.306,0-4.194-1.887-4.194-4.196v-19.72h4.208
	c-0.012,0.244-0.019,0.487-0.019,0.735c0,9.511,7.715,17.224,17.228,17.224c9.51,0,17.224-7.713,17.224-17.224
	c0-0.248-0.004-0.491-0.017-0.735H127.737L127.737,178.327z M193.721,111.309L193.721,111.309h4.009c0.058,0,0.106,0.047,0.106,0.1
	v3.798c0,0.057-0.049,0.098-0.106,0.098h-4.009c-0.061,0-0.105-0.041-0.105-0.098v-3.798
	C193.615,111.355,193.66,111.309,193.721,111.309L193.721,111.309z M186.756,111.309L186.756,111.309h3.59
	c0.058,0,0.105,0.047,0.105,0.1v3.798c0,0.057-0.048,0.098-0.105,0.098h-3.59v3.322c0,0.37,0.325,0.675,0.716,0.675h12.815
	c0.391,0,0.712-0.305,0.712-0.675v-18.131c0-0.37-0.321-0.673-0.712-0.673h-12.815c-0.391,0-0.716,0.303-0.716,0.673v3.322h3.59
	c0.058,0,0.105,0.045,0.105,0.102v3.793c0,0.057-0.048,0.102-0.105,0.102h-3.59V111.309L186.756,111.309z M193.721,103.817
	L193.721,103.817h4.009c0.058,0,0.106,0.045,0.106,0.102v3.793c0,0.057-0.049,0.102-0.106,0.102h-4.009
	c-0.061,0-0.105-0.045-0.105-0.102v-3.793C193.615,103.862,193.66,103.817,193.721,103.817L193.721,103.817z M193.192,88.834
	L193.192,88.834h4.009c0.057,0,0.105,0.045,0.105,0.1v7.292c0,0.055-0.049,0.1-0.105,0.1h-4.009c-0.058,0-0.106-0.045-0.106-0.1
	v-7.292C193.086,88.879,193.135,88.834,193.192,88.834L193.192,88.834z M164.182,114.808L164.182,114.808h4.009
	c0.061,0,0.109,0.041,0.109,0.098v3.798c0,0.053-0.049,0.098-0.109,0.098h-4.009c-0.058,0-0.106-0.045-0.106-0.098v-3.798
	C164.075,114.849,164.124,114.808,164.182,114.808L164.182,114.808z M178.953,114.808L178.953,114.808h4.009
	c0.057,0,0.102,0.041,0.102,0.098v3.798c0,0.053-0.045,0.098-0.102,0.098h-4.009c-0.057,0-0.105-0.045-0.105-0.098v-3.798
	C178.848,114.849,178.896,114.808,178.953,114.808L178.953,114.808z M171.569,114.808L171.569,114.808h4.005
	c0.061,0,0.105,0.041,0.105,0.098v3.798c0,0.053-0.045,0.098-0.105,0.098h-4.005c-0.062,0-0.105-0.045-0.105-0.098v-3.798
	C171.464,114.849,171.508,114.808,171.569,114.808L171.569,114.808z M168.012,110.996L168.012,110.996v0.213
	c0,0.053-0.045,0.1-0.102,0.1h-3.908v10.988h4.298h16.346h2.11h12.133h4.298c0.829,0,1.504-0.642,1.504-1.423V97.751
	c0-0.785-0.675-1.425-1.504-1.425h-2.716v-9.988c0-0.276-0.236-0.5-0.529-0.5h-9.49c-0.292,0-0.528,0.224-0.528,0.5v9.988h-3.167
	v-6.68c0-0.72-0.622-1.312-1.383-1.312h-13.287l6.762,6.764v-2.667c0-0.055,0.049-0.1,0.105-0.1h4.009
	c0.057,0,0.102,0.044,0.102,0.1v3.795c0,0.055-0.045,0.1-0.102,0.1h-2.936c0.931,1.136,1.524,2.315,1.838,3.497h1.098
	c0.057,0,0.102,0.045,0.102,0.1v3.794c0,0.057-0.045,0.1-0.102,0.1H181.9c-0.292,1.252-0.857,2.438-1.618,3.499h2.68
	c0.057,0,0.102,0.045,0.102,0.098v3.797c0,0.053-0.045,0.1-0.102,0.1h-4.009c-0.057,0-0.105-0.047-0.105-0.1v-2.25
	c-0.936,0.886-2.013,1.618-3.168,2.139v0.111c0,0.053-0.045,0.1-0.105,0.1h-0.398C172.85,112.218,170.276,112.263,168.012,110.996
	L168.012,110.996z M164.002,107.314L164.002,107.314h0.269l-0.269-0.287V107.314L164.002,107.314z M168.508,126.29h31.751
	c0.118,0,0.212,0.094,0.212,0.203v3.595c0,0.109-0.094,0.199-0.212,0.199h-31.751c-0.114,0-0.208-0.09-0.208-0.199v-3.595
	C168.3,126.384,168.394,126.29,168.508,126.29L168.508,126.29z M89.753,22.902L89.753,22.902l18.915-8.012l18.387,8.276
	c0,5.341,0,10.684,0,16.022c-0.188,1.196-0.427,2.332-0.703,3.412l-3.322-3.322l0.073-0.406v-1.126h-1.61l-6.087-6.091
	c-2.065-2.062-4.529-2.98-7-2.911v-9.445l-14.697,6.225v11.303h2.604l-5.827,5.827c-0.289-1.008-0.535-2.078-0.734-3.2V22.902
	L89.753,22.902z M27.565,112.864L27.565,112.864h15.341c-2.157,1.46-4.806,2.325-7.67,2.325
	C32.374,115.189,29.725,114.324,27.565,112.864L27.565,112.864z M45.999,117.097L45.999,117.097h3.977v3.599h-3.977V117.097
	L45.999,117.097z M19.291,117.097L19.291,117.097h24.815v3.599H19.291V117.097L19.291,117.097z M45.999,122.59L45.999,122.59h3.977
	v3.599h-3.977V122.59L45.999,122.59z M19.291,122.59L19.291,122.59h24.815v3.599H19.291V122.59L19.291,122.59z M19.492,86.72
	L19.492,86.72h26.929l-5.194,5.194c-1.793-0.868-3.83-1.358-5.985-1.358h-0.014c-2.985,0-5.739,0.941-7.943,2.519h12.778
	l-1.942,1.943H25.134c-0.681,0.767-1.262,1.614-1.728,2.521h12.94c-0.291,0.628-0.49,1.281-0.61,1.939H22.619
	c-0.244,0.811-0.405,1.651-0.47,2.521h13.505c0.073,0.656,0.217,1.305,0.425,1.939H22.166c0.079,0.87,0.254,1.711,0.516,2.523H37.31
	c0.468,0.706,1.021,1.356,1.647,1.939H23.512c0.488,0.911,1.094,1.758,1.799,2.523h18.545l0.201,0.036
	c2.714,0.462,5.339-0.348,7.41-2.141l0.12-0.107l0.116-0.112c0.267-0.267,0.7-0.685,1.195-1.13v20.08
	c-0.705,0.833-1.756,1.362-2.923,1.362H19.492c-2.11,0-3.838-1.729-3.838-3.839V90.556C15.654,88.444,17.382,86.72,19.492,86.72
	L19.492,86.72z"/>
</svg>
