<?xml version="1.0" encoding="utf-8"?>
<!DOCTYPE svg PUBLIC "-//W3C//DTD SVG 1.1//EN" "http://www.w3.org/Graphics/SVG/1.1/DTD/svg11.dtd">
<svg version="1.1"  xmlns="http://www.w3.org/2000/svg" xmlns:xlink="http://www.w3.org/1999/xlink" x="0px" y="0px" width="216px" height="216px" viewBox="0 0 216 216" enable-background="new 0 0 216 216" xml:space="preserve">

<path  fill-rule="evenodd" clip-rule="evenodd"  d="M107.802,190.098L107.802,190.098l11.324-8.831H96.161
	L107.802,190.098L107.802,190.098z M123.595,178.327L123.595,178.327c0.012,0.244,0.02,0.487,0.02,0.735
	c0,8.941-7.253,16.195-16.194,16.195s-16.197-7.254-16.197-16.195c0-0.248,0.006-0.491,0.019-0.735h16.677H123.595L123.595,178.327z
	 M127.737,178.327L127.737,178.327v19.72c0,2.31-1.891,4.196-4.196,4.196H90.196c-2.306,0-4.194-1.887-4.194-4.196v-19.72h4.208
	c-0.012,0.244-0.019,0.487-0.019,0.735c0,9.511,7.715,17.224,17.228,17.224c9.51,0,17.224-7.713,17.224-17.224
	c0-0.248-0.004-0.491-0.017-0.735H127.737L127.737,178.327z M193.721,111.309L193.721,111.309h4.009c0.058,0,0.106,0.047,0.106,0.1
	v3.798c0,0.057-0.049,0.098-0.106,0.098h-4.009c-0.061,0-0.105-0.041-0.105-0.098v-3.798
	C193.615,111.355,193.66,111.309,193.721,111.309L193.721,111.309z M186.756,111.309L186.756,111.309h3.59
	c0.058,0,0.105,0.047,0.105,0.1v3.798c0,0.057-0.048,0.098-0.105,0.098h-3.59v3.322c0,0.37,0.325,0.675,0.716,0.675h12.815
	c0.391,0,0.712-0.305,0.712-0.675v-18.131c0-0.37-0.321-0.673-0.712-0.673h-12.815c-0.391,0-0.716,0.303-0.716,0.673v3.322h3.59
	c0.058,0,0.105,0.045,0.105,0.102v3.793c0,0.057-0.048,0.102-0.105,0.102h-3.59V111.309L186.756,111.309z M193.721,103.817
	L193.721,103.817h4.009c0.058,0,0.106,0.045,0.106,0.102v3.793c0,0.057-0.049,0.102-0.106,0.102h-4.009
	c-0.061,0-0.105-0.045-0.105-0.102v-3.793C193.615,103.862,193.66,103.817,193.721,103.817L193.721,103.817z M193.192,88.834
	L193.192,88.834h4.009c0.057,0,0.105,0.045,0.105,0.1v7.292c0,0.055-0.049,0.1-0.105,0.1h-4.009c-0.058,0-0.106-0.045-0.106-0.1
	v-7.292C193.086,88.879,193.135,88.834,193.192,88.834L193.192,88.834z M164.182,114.808L164.182,114.808h4.009
	c0.061,0,0.109,0.041,0.109,0.098v3.798c0,0.053-0.049,0.098-0.109,0.098h-4.009c-0.058,0-0.106-0.045-0.106-0.098v-3.798
	C164.075,114.849,164.124,114.808,164.182,114.808L164.182,114.808z M178.953,114.808L178.953,114.808h4.009
	c0.057,0,0.102,0.041,0.102,0.098v3.798c0,0.053-0.045,0.098-0.102,0.098h-4.009c-0.057,0-0.105-0.045-0.105-0.098v-3.798
	C178.848,114.849,178.896,114.808,178.953,114.808L178.953,114.808z M171.569,114.808L171.569,114.808h4.005
	c0.061,0,0.105,0.041,0.105,0.098v3.798c0,0.053-0.045,0.098-0.105,0.098h-4.005c-0.062,0-0.105-0.045-0.105-0.098v-3.798
	C171.464,114.849,171.508,114.808,171.569,114.808L171.569,114.808z M168.012,110.996L168.012,110.996v0.213
	c0,0.053-0.045,0.1-0.102,0.1h-3.908v10.988h4.298h16.346h2.11h12.133h4.298c0.829,0,1.504-0.642,1.504-1.423V97.751
	c0-0.785-0.675-1.425-1.504-1.425h-2.716v-9.988c0-0.276-0.236-0.5-0.529-0.5h-9.49c-0.292,0-0.528,0.224-0.528,0.5v9.988h-3.167
	v-6.68c0-0.72-0.622-1.312-1.383-1.312h-13.287l6.762,6.764v-2.667c0-0.055,0.049-0.1,0.105-0.1h4.009
	c0.057,0,0.102,0.044,0.102,0.1v3.795c0,0.055-0.045,0.1-0.102,0.1h-2.936c0.931,1.136,1.524,2.315,1.838,3.497h1.098
	c0.057,0,0.102,0.045,0.102,0.1v3.794c0,0.057-0.045,0.1-0.102,0.1H181.9c-0.292,1.252-0.857,2.438-1.618,3.499h2.68
	c0.057,0,0.102,0.045,0.102,0.098v3.797c0,0.053-0.045,0.1-0.102,0.1h-4.009c-0.057,0-0.105-0.047-0.105-0.1v-2.25
	c-0.936,0.886-2.013,1.618-3.168,2.139v0.111c0,0.053-0.045,0.1-0.105,0.1h-0.398C172.85,112.218,170.276,112.263,168.012,110.996
	L168.012,110.996z M164.002,107.314L164.002,107.314h0.269l-0.269-0.287V107.314L164.002,107.314z M168.508,126.29h31.751
	c0.118,0,0.212,0.094,0.212,0.203v3.595c0,0.109-0.094,0.199-0.212,0.199h-31.751c-0.114,0-0.208-0.09-0.208-0.199v-3.595
	C168.3,126.384,168.394,126.29,168.508,126.29L168.508,126.29z M89.753,22.902L89.753,22.902l18.915-8.012l18.387,8.276
	c0,5.341,0,10.684,0,16.022c-0.188,1.196-0.427,2.332-0.703,3.412l-3.322-3.322l0.073-0.406v-1.126h-1.61l-6.087-6.091
	c-2.065-2.062-4.529-2.98-7-2.911v-9.445l-14.697,6.225v11.303h2.604l-5.827,5.827c-0.289-1.008-0.535-2.078-0.734-3.2V22.902
	L89.753,22.902z M27.565,112.864L27.565,112.864h15.341c-2.157,1.46-4.806,2.325-7.67,2.325
	C32.374,115.189,29.725,114.324,27.565,112.864L27.565,112.864z M45.999,117.097L45.999,117.097h3.977v3.599h-3.977V117.097
	L45.999,117.097z M19.291,117.097L19.291,117.097h24.815v3.599H19.291V117.097L19.291,117.097z M45.999,122.59L45.999,122.59h3.977
	v3.599h-3.977V122.59L45.999,122.59z M19.291,122.59L19.291,122.59h24.815v3.599H19.291V122.59L19.291,122.59z M19.492,86.72
	L19.492,86.72h26.929l-5.194,5.194c-1.793-0.868-3.83-1.358-5.985-1.358h-0.014c-2.985,0-5.739,0.941-7.943,2.519h12.778
	l-1.942,1.943H25.134c-0.681,0.767-1.262,1.614-1.728,2.521h12.94c-0.291,0.628-0.49,1.281-0.61,1.939H22.619
	c-0.244,0.811-0.405,1.651-0.47,2.521h13.505c0.073,0.656,0.217,1.305,0.425,1.939H22.166c0.079,0.87,0.254,1.711,0.516,2.523H37.31
	c0.468,0.706,1.021,1.356,1.647,1.939H23.512c0.488,0.911,1.094,1.758,1.799,2.523h18.545l0.201,0.036
	c2.714,0.462,5.339-0.348,7.41-2.141l0.12-0.107l0.116-0.112c0.267-0.267,0.7-0.685,1.195-1.13v20.08
	c-0.705,0.833-1.756,1.362-2.923,1.362H19.492c-2.11,0-3.838-1.729-3.838-3.839V90.556C15.654,88.444,17.382,86.72,19.492,86.72
	L19.492,86.72z"/>
</svg>
