<?xml version="1.0" encoding="utf-8"?>
<!-- Generator: Adobe Illustrator 16.0.0, SVG Export Plug-In . SVG Version: 6.00 Build 0)  -->
<!DOCTYPE svg PUBLIC "-//W3C//DTD SVG 1.1//EN" "http://www.w3.org/Graphics/SVG/1.1/DTD/svg11.dtd">
<svg version="1.1" id="Layer_1" xmlns="http://www.w3.org/2000/svg" xmlns:xlink="http://www.w3.org/1999/xlink" x="0px" y="0px"
	 width="216px" height="216px" viewBox="0 0 216 216" enable-background="new 0 0 216 216" xml:space="preserve">
<path id="_x33_" fill-rule="evenodd" clip-rule="evenodd" fill="#F58031" d="M119.567,185.185h6.783
	c0.466,0,0.851,0.389,0.851,0.867v6.976c0,0.479-0.385,0.871-0.851,0.871h-6.783c-0.467,0-0.847-0.393-0.847-0.871v-6.976
	C118.721,185.573,119.101,185.185,119.567,185.185L119.567,185.185z M135.961,185.185L135.961,185.185h6.787
	c0.462,0,0.847,0.389,0.847,0.867v6.976c0,0.479-0.385,0.871-0.847,0.871h-6.787c-0.467,0-0.848-0.393-0.848-0.871v-6.976
	C135.113,185.573,135.494,185.185,135.961,185.185L135.961,185.185z M107.853,102.168L107.853,102.168
	c-8.037,0-14.554-6.699-14.554-14.961c0-8.26,6.517-14.957,14.554-14.957s14.554,6.697,14.554,14.957
	C122.406,95.469,115.89,102.168,107.853,102.168L107.853,102.168z M79.417,65.276L79.417,65.276
	c6.853-8.26,17.05-13.499,28.436-13.499c10.479,0,19.954,4.437,26.737,11.582c6.411,6.752,0.271,13.474-6.043,6.636
	c-5.199-5.629-12.547-9.144-20.694-9.144c-8.737,0-16.557,4.04-21.789,10.4C81.684,76.576,74.868,70.765,79.417,65.276
	L79.417,65.276z M141.103,57.882L141.103,57.882c-8.342-9.07-20.152-14.732-33.25-14.732c-13.683,0-25.964,6.178-34.347,15.968
	c-4.015,4.688-11.453-1.483-6.492-7.088c10.093-11.412,24.653-18.578,40.839-18.578c15.65,0,29.781,6.699,39.825,17.458
	C153.798,57.468,146.54,63.793,141.103,57.882L141.103,57.882z M154.052,44.536L154.052,44.536
	c-11.664-12.467-28.049-20.228-46.199-20.228c-18.582,0-35.316,8.135-47.021,21.126c-4.461,4.954-11.463-0.739-6.241-6.479
	c13.313-14.618,32.25-23.755,53.262-23.755c20.539,0,39.101,8.734,52.355,22.783C166.304,44.446,159.501,50.366,154.052,44.536
	L154.052,44.536z"/>
<path id="_x32_" fill-rule="evenodd" clip-rule="evenodd" fill="#999557" d="M15.621-0.666H200.22
	c8.959,0,16.286,7.329,16.286,16.287V200.22c0,8.955-7.327,16.286-16.286,16.286H15.621c-8.958,0-16.287-7.331-16.287-16.286V15.621
	C-0.666,6.663,6.663-0.666,15.621-0.666L15.621-0.666z M15.621,4.36H200.22c6.193,0,11.259,5.067,11.259,11.261V200.22
	c0,6.193-5.065,11.259-11.259,11.259H15.621c-6.194,0-11.261-5.065-11.261-11.259V15.621C4.36,9.427,9.427,4.36,15.621,4.36
	L15.621,4.36z M27.446,42.967h16.665c-0.067,3.195,0.994,6.382,3.416,9.04c0.822,0.9,1.721,1.648,2.672,2.252H26.799
	c-1.777,0-3.234,1.498-3.234,3.324V139c0,1.829,1.457,3.322,3.234,3.322h159.073c1.779,0,3.231-1.493,3.231-3.322V57.583
	c0-1.827-1.452-3.324-3.231-3.324h-21.065c1.011-0.571,1.972-1.311,2.864-2.231c2.564-2.655,3.637-5.846,3.571-9.06h15.604
	c7.11,0,12.932,5.981,12.932,13.292v92.715c0,7.314-6.001,11.667-12.932,13.296c-47.637,11.188-105.297,13.737-159.4,2.659
	c-6.975-1.428-12.934-5.981-12.934-13.292V56.259C14.512,48.947,20.333,42.967,27.446,42.967L27.446,42.967z M104.721,154.959
	L104.721,154.959h5.171c1.068,0,1.941,0.896,1.941,1.997v3.317c0,1.097-0.873,1.997-1.941,1.997h-5.171
	c-1.068,0-1.941-0.9-1.941-1.997v-3.317C102.779,155.855,103.653,154.959,104.721,154.959L104.721,154.959z M87.91,185.185
	L87.91,185.185h6.785c0.467,0,0.847,0.389,0.847,0.867v6.976c0,0.479-0.38,0.871-0.847,0.871H87.91
	c-0.466,0-0.847-0.393-0.847-0.871v-6.976C87.063,185.573,87.444,185.185,87.91,185.185L87.91,185.185z M71.816,185.185
	L71.816,185.185h6.785c0.468,0,0.849,0.389,0.849,0.867v6.976c0,0.479-0.381,0.871-0.849,0.871h-6.785
	c-0.466,0-0.847-0.393-0.847-0.871v-6.976C70.969,185.573,71.35,185.185,71.816,185.185L71.816,185.185z"/>
<path id="_x31_" fill-rule="evenodd" clip-rule="evenodd" fill="#7E5628" d="M85.042,107.447c6.243,3.324,14.356,5.361,23.235,5.423
	c8.389,0.058,16.117-1.657,22.246-4.576c1.346-0.868,3.31-1.655,3.199-2.921c-0.106-1.27-0.217-2.539-0.327-3.809
	c-0.11-1.271-0.217-2.539-0.327-3.809c-0.434-5.024,0.63-4.204,5.154-6.067c1.829-0.755,3.653-1.505,5.482-2.258
	c1.824-0.753,3.653-1.505,5.481-2.258c6.112-2.518,5.335-2.446,9.447,2.845c1.317,1.7,2.643,3.402,3.964,5.102
	c1.321,1.702,2.643,3.404,3.964,5.104c2.099,2.53,1.117,3.941,0.136,5.077c-9.562,13.27-32.186,22.495-58.516,22.314
	c-27.521-0.192-50.862-10.604-59.411-24.959l0.041-0.017c-0.861-1.101-1.495-2.487,0.454-4.772c1.342-1.684,2.686-3.365,4.03-5.049
	c1.344-1.681,2.688-3.365,4.03-5.046c4.179-5.235,3.406-5.316,9.483-2.715c1.818,0.779,3.635,1.557,5.453,2.334
	c1.816,0.777,3.633,1.555,5.45,2.334c4.5,1.925,5.425,2.136,4.928,7.153c-0.127,1.266-0.252,2.535-0.378,3.805
	c-0.125,1.267-0.252,2.535-0.378,3.803C81.757,105.748,83.709,106.563,85.042,107.447L85.042,107.447z M46.437,179.121
	L46.437,179.121h122.388c4.484,0,8.158,3.772,8.158,8.383v4.193c0,4.615-3.674,8.392-8.158,8.392H46.437
	c-4.488,0-8.157-3.776-8.157-8.392v-4.193C38.279,182.894,41.949,179.121,46.437,179.121L46.437,179.121z M135.961,185.185
	L135.961,185.185h6.787c0.462,0,0.847,0.389,0.847,0.867v6.976c0,0.479-0.385,0.871-0.847,0.871h-6.787
	c-0.467,0-0.848-0.393-0.848-0.871v-6.976C135.113,185.573,135.494,185.185,135.961,185.185L135.961,185.185z M119.567,185.185
	L119.567,185.185h6.783c0.466,0,0.851,0.389,0.851,0.867v6.976c0,0.479-0.385,0.871-0.851,0.871h-6.783
	c-0.467,0-0.847-0.393-0.847-0.871v-6.976C118.721,185.573,119.101,185.185,119.567,185.185L119.567,185.185z M71.816,185.185
	L71.816,185.185h6.785c0.468,0,0.849,0.389,0.849,0.867v6.976c0,0.479-0.381,0.871-0.849,0.871h-6.785
	c-0.466,0-0.847-0.393-0.847-0.871v-6.976C70.969,185.573,71.35,185.185,71.816,185.185L71.816,185.185z M87.91,185.185
	L87.91,185.185h6.785c0.467,0,0.847,0.389,0.847,0.867v6.976c0,0.479-0.38,0.871-0.847,0.871H87.91
	c-0.466,0-0.847-0.393-0.847-0.871v-6.976C87.063,185.573,87.444,185.185,87.91,185.185L87.91,185.185z M103.582,185.185
	L103.582,185.185h6.783c0.469,0,0.849,0.389,0.849,0.867v6.976c0,0.479-0.38,0.871-0.849,0.871h-6.783
	c-0.469,0-0.849-0.393-0.849-0.871v-6.976C102.732,185.573,103.113,185.185,103.582,185.185L103.582,185.185z"/>
</svg>
