<?xml version="1.0" encoding="utf-8"?>
<!DOCTYPE svg PUBLIC "-//W3C//DTD SVG 1.1//EN" "http://www.w3.org/Graphics/SVG/1.1/DTD/svg11.dtd">
<svg version="1.1" xmlns="http://www.w3.org/2000/svg" xmlns:xlink="http://www.w3.org/1999/xlink" x="0px" y="0px" width="216px" height="216px" viewBox="0 0 216 216" enable-background="new 0 0 216 216" xml:space="preserve">  
    
<path fill-rule="evenodd" clip-rule="evenodd" d="M15.621-0.666H200.22
	c8.959,0,16.286,7.329,16.286,16.287V200.22c0,8.955-7.327,16.286-16.286,16.286H15.621c-8.958,0-16.287-7.331-16.287-16.286V15.621
	C-0.666,6.663,6.663-0.666,15.621-0.666L15.621-0.666z M15.621,4.36H200.22c6.193,0,11.259,5.067,11.259,11.261V200.22
	c0,6.193-5.065,11.259-11.259,11.259H15.621c-6.194,0-11.261-5.065-11.261-11.259V15.621C4.36,9.427,9.427,4.36,15.621,4.36
	L15.621,4.36z M27.446,42.967h16.665c-0.067,3.195,0.994,6.382,3.416,9.04c0.822,0.9,1.721,1.648,2.672,2.252H26.799
	c-1.777,0-3.234,1.498-3.234,3.324V139c0,1.829,1.457,3.322,3.234,3.322h159.073c1.779,0,3.231-1.493,3.231-3.322V57.583
	c0-1.827-1.452-3.324-3.231-3.324h-21.065c1.011-0.571,1.972-1.311,2.864-2.231c2.564-2.655,3.637-5.846,3.571-9.06h15.604
	c7.11,0,12.932,5.981,12.932,13.292v92.715c0,7.314-6.001,11.667-12.932,13.296c-47.637,11.188-105.297,13.737-159.4,2.659
	c-6.975-1.428-12.934-5.981-12.934-13.292V56.259C14.512,48.947,20.333,42.967,27.446,42.967L27.446,42.967z M104.721,154.959
	L104.721,154.959h5.171c1.068,0,1.941,0.896,1.941,1.997v3.317c0,1.097-0.873,1.997-1.941,1.997h-5.171
	c-1.068,0-1.941-0.9-1.941-1.997v-3.317C102.779,155.855,103.653,154.959,104.721,154.959L104.721,154.959z M87.91,185.185
	L87.91,185.185h6.785c0.467,0,0.847,0.389,0.847,0.867v6.976c0,0.479-0.38,0.871-0.847,0.871H87.91
	c-0.466,0-0.847-0.393-0.847-0.871v-6.976C87.063,185.573,87.444,185.185,87.91,185.185L87.91,185.185z M71.816,185.185
	L71.816,185.185h6.785c0.468,0,0.849,0.389,0.849,0.867v6.976c0,0.479-0.381,0.871-0.849,0.871h-6.785
	c-0.466,0-0.847-0.393-0.847-0.871v-6.976C70.969,185.573,71.35,185.185,71.816,185.185L71.816,185.185z"/>

</svg>
