<?xml version="1.0" encoding="utf-8"?>
<!DOCTYPE svg PUBLIC "-//W3C//DTD SVG 1.1//EN" "http://www.w3.org/Graphics/SVG/1.1/DTD/svg11.dtd">
<svg version="1.1" xmlns="http://www.w3.org/2000/svg" xmlns:xlink="http://www.w3.org/1999/xlink" x="0px" y="0px" width="216px" height="216px" viewBox="0 0 216 216" enable-background="new 0 0 216 216" xml:space="preserve">  
    
<path fill-rule="evenodd" clip-rule="evenodd" d="M85.042,107.447c6.243,3.324,14.356,5.361,23.235,5.423
	c8.389,0.058,16.117-1.657,22.246-4.576c1.346-0.868,3.31-1.655,3.199-2.921c-0.106-1.27-0.217-2.539-0.327-3.809
	c-0.11-1.271-0.217-2.539-0.327-3.809c-0.434-5.024,0.63-4.204,5.154-6.067c1.829-0.755,3.653-1.505,5.482-2.258
	c1.824-0.753,3.653-1.505,5.481-2.258c6.112-2.518,5.335-2.446,9.447,2.845c1.317,1.7,2.643,3.402,3.964,5.102
	c1.321,1.702,2.643,3.404,3.964,5.104c2.099,2.53,1.117,3.941,0.136,5.077c-9.562,13.27-32.186,22.495-58.516,22.314
	c-27.521-0.192-50.862-10.604-59.411-24.959l0.041-0.017c-0.861-1.101-1.495-2.487,0.454-4.772c1.342-1.684,2.686-3.365,4.03-5.049
	c1.344-1.681,2.688-3.365,4.03-5.046c4.179-5.235,3.406-5.316,9.483-2.715c1.818,0.779,3.635,1.557,5.453,2.334
	c1.816,0.777,3.633,1.555,5.45,2.334c4.5,1.925,5.425,2.136,4.928,7.153c-0.127,1.266-0.252,2.535-0.378,3.805
	c-0.125,1.267-0.252,2.535-0.378,3.803C81.757,105.748,83.709,106.563,85.042,107.447L85.042,107.447z M46.437,179.121
	L46.437,179.121h122.388c4.484,0,8.158,3.772,8.158,8.383v4.193c0,4.615-3.674,8.392-8.158,8.392H46.437
	c-4.488,0-8.157-3.776-8.157-8.392v-4.193C38.279,182.894,41.949,179.121,46.437,179.121L46.437,179.121z M135.961,185.185
	L135.961,185.185h6.787c0.462,0,0.847,0.389,0.847,0.867v6.976c0,0.479-0.385,0.871-0.847,0.871h-6.787
	c-0.467,0-0.848-0.393-0.848-0.871v-6.976C135.113,185.573,135.494,185.185,135.961,185.185L135.961,185.185z M119.567,185.185
	L119.567,185.185h6.783c0.466,0,0.851,0.389,0.851,0.867v6.976c0,0.479-0.385,0.871-0.851,0.871h-6.783
	c-0.467,0-0.847-0.393-0.847-0.871v-6.976C118.721,185.573,119.101,185.185,119.567,185.185L119.567,185.185z M71.816,185.185
	L71.816,185.185h6.785c0.468,0,0.849,0.389,0.849,0.867v6.976c0,0.479-0.381,0.871-0.849,0.871h-6.785
	c-0.466,0-0.847-0.393-0.847-0.871v-6.976C70.969,185.573,71.35,185.185,71.816,185.185L71.816,185.185z M87.91,185.185
	L87.91,185.185h6.785c0.467,0,0.847,0.389,0.847,0.867v6.976c0,0.479-0.38,0.871-0.847,0.871H87.91
	c-0.466,0-0.847-0.393-0.847-0.871v-6.976C87.063,185.573,87.444,185.185,87.91,185.185L87.91,185.185z M103.582,185.185
	L103.582,185.185h6.783c0.469,0,0.849,0.389,0.849,0.867v6.976c0,0.479-0.38,0.871-0.849,0.871h-6.783
	c-0.469,0-0.849-0.393-0.849-0.871v-6.976C102.732,185.573,103.113,185.185,103.582,185.185L103.582,185.185z"/>
</svg>
