<?xml version="1.0" encoding="utf-8"?>
<!DOCTYPE svg PUBLIC "-//W3C//DTD SVG 1.1//EN" "http://www.w3.org/Graphics/SVG/1.1/DTD/svg11.dtd">
<svg version="1.1" xmlns="http://www.w3.org/2000/svg" xmlns:xlink="http://www.w3.org/1999/xlink" x="0px" y="0px" width="216px" height="216px" viewBox="0 0 216 216" enable-background="new 0 0 216 216" xml:space="preserve">  
    
<path d="M94.378,26.075C77.453,28.91,62.259,36.874,50.444,48.401
	c6.421,4.957,13.438,9.163,21.014,12.344C77.042,47.416,84.871,35.637,94.378,26.075L94.378,26.075z M17.139,136.523L17.139,136.523
	c-2.74-8.94-4.216-18.437-4.216-28.283c0-51.625,40.565-93.701,91.337-95.665c-2.177,2.358-3.52,6.229-4.287,8.631l-2.62,8.359
	c-0.302,1.029-0.579,2.069-0.827,3.117c-7.92,8.497-14.496,18.719-19.326,30.183c5.683,1.958,11.606,3.379,17.713,4.222l0.093,6.235
	c-6.95-0.9-13.678-2.51-20.12-4.762c-2.878,8.054-4.864,16.645-5.884,25.601l-6.61,5.012c0.802-11.513,3.095-22.53,6.752-32.738
	c-8.27-3.481-15.922-8.107-22.906-13.572C33.833,66.89,26.071,85.109,25.342,105.154h29.166l-8.146,6.176h-21.02
	c0.183,4.978,0.796,9.848,1.806,14.567l-1.56,1.182l-0.041,0.032C21.747,130.333,19.026,133.245,17.139,136.523L17.139,136.523z
	 M79.694,199.68L79.694,199.68c-25.339-7.945-46.133-26.28-57.462-50.065l11.633-4.326c4.035,8.209,9.376,15.654,15.764,22.052
	c6.684-4.806,13.928-8.875,21.696-11.926c-2.837-6.832-5.077-14.058-6.641-21.592l5.81-2.157c1.507,7.563,3.727,14.81,6.574,21.633
	c3.893-1.263,7.89-2.278,11.974-3.046l0.836,6.097c-3.505,0.662-6.943,1.515-10.294,2.571c3.741,7.709,8.302,14.776,13.544,21.044
	l-5.073,3.484c-5.536-6.686-10.347-14.199-14.267-22.396c-6.976,2.718-13.505,6.288-19.547,10.508
	c8.16,7.035,17.689,12.478,28.125,15.898c-2.524,2.034-2.744,3.428-2.701,8.59L79.694,199.68L79.694,199.68z"/>
</svg>
