<?xml version="1.0" encoding="utf-8"?>
<!-- Generator: Adobe Illustrator 16.0.0, SVG Export Plug-In . SVG Version: 6.00 Build 0)  -->
<!DOCTYPE svg PUBLIC "-//W3C//DTD SVG 1.1//EN" "http://www.w3.org/Graphics/SVG/1.1/DTD/svg11.dtd">
<svg version="1.1" id="Layer_1" xmlns="http://www.w3.org/2000/svg" xmlns:xlink="http://www.w3.org/1999/xlink" x="0px" y="0px"
	 width="216px" height="216px" viewBox="0 0 216 216" enable-background="new 0 0 216 216" xml:space="preserve">
<path id="_x33_" fill="#F58031" d="M94.378,26.075C77.453,28.91,62.259,36.874,50.444,48.401
	c6.421,4.957,13.438,9.163,21.014,12.344C77.042,47.416,84.871,35.637,94.378,26.075L94.378,26.075z M17.139,136.523L17.139,136.523
	c-2.74-8.94-4.216-18.437-4.216-28.283c0-51.625,40.565-93.701,91.337-95.665c-2.177,2.358-3.52,6.229-4.287,8.631l-2.62,8.359
	c-0.302,1.029-0.579,2.069-0.827,3.117c-7.92,8.497-14.496,18.719-19.326,30.183c5.683,1.958,11.606,3.379,17.713,4.222l0.093,6.235
	c-6.95-0.9-13.678-2.51-20.12-4.762c-2.878,8.054-4.864,16.645-5.884,25.601l-6.61,5.012c0.802-11.513,3.095-22.53,6.752-32.738
	c-8.27-3.481-15.922-8.107-22.906-13.572C33.833,66.89,26.071,85.109,25.342,105.154h29.166l-8.146,6.176h-21.02
	c0.183,4.978,0.796,9.848,1.806,14.567l-1.56,1.182l-0.041,0.032C21.747,130.333,19.026,133.245,17.139,136.523L17.139,136.523z
	 M79.694,199.68L79.694,199.68c-25.339-7.945-46.133-26.28-57.462-50.065l11.633-4.326c4.035,8.209,9.376,15.654,15.764,22.052
	c6.684-4.806,13.928-8.875,21.696-11.926c-2.837-6.832-5.077-14.058-6.641-21.592l5.81-2.157c1.507,7.563,3.727,14.81,6.574,21.633
	c3.893-1.263,7.89-2.278,11.974-3.046l0.836,6.097c-3.505,0.662-6.943,1.515-10.294,2.571c3.741,7.709,8.302,14.776,13.544,21.044
	l-5.073,3.484c-5.536-6.686-10.347-14.199-14.267-22.396c-6.976,2.718-13.505,6.288-19.547,10.508
	c8.16,7.035,17.689,12.478,28.125,15.898c-2.524,2.034-2.744,3.428-2.701,8.59L79.694,199.68L79.694,199.68z"/>
<path id="_x32_" fill-rule="evenodd" clip-rule="evenodd" fill="#999557" d="M16.282,0.112h183.275c8.896,0,16.17,7.277,16.17,16.17
	v183.275c0,8.892-7.274,16.17-16.17,16.17H16.282c-8.894,0-16.17-7.278-16.17-16.17V16.282C0.112,7.389,7.389,0.112,16.282,0.112
	L16.282,0.112z M16.282,5.102h183.275c6.149,0,11.178,5.031,11.178,11.18v183.275c0,6.149-5.028,11.178-11.178,11.178H16.282
	c-6.149,0-11.18-5.028-11.18-11.178V16.282C5.102,10.133,10.133,5.102,16.282,5.102L16.282,5.102z M122.16,26.075
	c16.926,2.835,32.117,10.798,43.937,22.326c-6.422,4.957-13.44,9.163-21.016,12.344C139.496,47.416,131.665,35.637,122.16,26.075
	L122.16,26.075z M199.399,136.523L199.399,136.523c2.737-8.94,4.216-18.437,4.216-28.283c0-51.625-40.564-93.701-91.337-95.665
	c2.177,2.358,3.518,6.229,4.285,8.631l2.624,8.359c0.301,1.029,0.576,2.069,0.824,3.117c7.921,8.497,14.496,18.719,19.326,30.183
	c-5.683,1.958-11.608,3.379-17.714,4.222l-0.089,6.235c6.945-0.9,13.672-2.51,20.113-4.762c2.88,8.054,4.866,16.645,5.886,25.601
	l6.612,5.012c-0.804-11.513-3.095-22.53-6.754-32.738c8.27-3.481,15.922-8.107,22.908-13.572
	c12.404,14.025,20.166,32.244,20.897,52.289h-29.167l8.147,6.176h21.02c-0.183,4.978-0.8,9.848-1.808,14.567l1.561,1.182
	l0.044,0.032C194.793,130.333,197.515,133.245,199.399,136.523L199.399,136.523z M136.844,199.68L136.844,199.68
	c25.342-7.945,46.134-26.28,57.462-50.065l-11.633-4.326c-4.033,8.209-9.379,15.654-15.764,22.052
	c-6.682-4.806-13.928-8.875-21.694-11.926c2.835-6.832,5.073-14.058,6.642-21.592l-5.813-2.157
	c-1.507,7.563-3.725,14.81-6.572,21.633c-3.896-1.263-7.892-2.278-11.979-3.046l-0.832,6.097c3.505,0.662,6.941,1.515,10.292,2.571
	c-3.74,7.709-8.302,14.776-13.546,21.044l5.077,3.484c5.536-6.686,10.346-14.199,14.266-22.396
	c6.978,2.718,13.505,6.288,19.549,10.508c-8.16,7.035-17.689,12.478-28.128,15.898c2.526,2.034,2.746,3.428,2.701,8.59
	L136.844,199.68L136.844,199.68z"/>
<path id="_x31_" fill-rule="evenodd" clip-rule="evenodd" fill="#7E5628" d="M132.884,201.686l0.044-5.67
	c0.045-5.325,0.224-4.577-4.163-7.6c-5.325-3.659-10.653-7.319-15.979-10.982l1.45-16.499h7.051c0.557,0,0.833-0.541,0.901-1.032
	l3.177-23.115c0.032-0.252-0.679-0.5-0.906-0.5l-9.329,0.216l1.238-20.297l82.337,30.906c-0.991-7.43-3.855-11.561-10.236-16.975
	l-70.927-49.129l0.374-30.153c0.057-6.765-0.585-13.654-2.506-20.142l-2.608-8.323c-0.408-1.286-2.374-6.999-4.222-7.837
	c-0.231-0.104-0.157-0.095-0.287-0.116c-0.124,0.014-0.248,0.067-0.349,0.116c-1.848,0.839-3.812,6.552-4.222,7.837l-2.608,8.323
	c-1.921,6.488-2.563,13.377-2.506,20.142l0.375,30.153l-70.929,49.129c-6.381,5.414-9.245,9.545-10.236,16.975l81.835-30.752
	l1.45,19.927h-9.042c-0.223,0-0.936,0.248-0.901,0.5l3.176,23.115c0.065,0.491,0.345,1.032,0.899,1.032h7.319l1.182,16.499
	c-5.325,3.663-10.652,7.323-15.977,10.982c-4.391,3.022-4.208,2.274-4.166,7.6l0.047,5.67l21.907-8.477
	c0.154,4.346,1.663,6.162,2.494,10.443l0.217,0.162l0.219-0.162c0.952-4.221,2.85-5.979,2.855-10.269L132.884,201.686
	L132.884,201.686z"/>
</svg>
