<?xml version="1.0" encoding="utf-8"?>
<!DOCTYPE svg PUBLIC "-//W3C//DTD SVG 1.1//EN" "http://www.w3.org/Graphics/SVG/1.1/DTD/svg11.dtd">
<svg version="1.1" xmlns="http://www.w3.org/2000/svg" xmlns:xlink="http://www.w3.org/1999/xlink" x="0px" y="0px" width="216px" height="216px" viewBox="0 0 216 216" enable-background="new 0 0 216 216" xml:space="preserve">  
    
<path fill-rule="evenodd" clip-rule="evenodd"  d="M16.282,0.112h183.275c8.896,0,16.17,7.277,16.17,16.17
	v183.275c0,8.892-7.274,16.17-16.17,16.17H16.282c-8.894,0-16.17-7.278-16.17-16.17V16.282C0.112,7.389,7.389,0.112,16.282,0.112
	L16.282,0.112z M16.282,5.102h183.275c6.149,0,11.178,5.031,11.178,11.18v183.275c0,6.149-5.028,11.178-11.178,11.178H16.282
	c-6.149,0-11.18-5.028-11.18-11.178V16.282C5.102,10.133,10.133,5.102,16.282,5.102L16.282,5.102z M122.16,26.075
	c16.926,2.835,32.117,10.798,43.937,22.326c-6.422,4.957-13.44,9.163-21.016,12.344C139.496,47.416,131.665,35.637,122.16,26.075
	L122.16,26.075z M199.399,136.523L199.399,136.523c2.737-8.94,4.216-18.437,4.216-28.283c0-51.625-40.564-93.701-91.337-95.665
	c2.177,2.358,3.518,6.229,4.285,8.631l2.624,8.359c0.301,1.029,0.576,2.069,0.824,3.117c7.921,8.497,14.496,18.719,19.326,30.183
	c-5.683,1.958-11.608,3.379-17.714,4.222l-0.089,6.235c6.945-0.9,13.672-2.51,20.113-4.762c2.88,8.054,4.866,16.645,5.886,25.601
	l6.612,5.012c-0.804-11.513-3.095-22.53-6.754-32.738c8.27-3.481,15.922-8.107,22.908-13.572
	c12.404,14.025,20.166,32.244,20.897,52.289h-29.167l8.147,6.176h21.02c-0.183,4.978-0.8,9.848-1.808,14.567l1.561,1.182
	l0.044,0.032C194.793,130.333,197.515,133.245,199.399,136.523L199.399,136.523z M136.844,199.68L136.844,199.68
	c25.342-7.945,46.134-26.28,57.462-50.065l-11.633-4.326c-4.033,8.209-9.379,15.654-15.764,22.052
	c-6.682-4.806-13.928-8.875-21.694-11.926c2.835-6.832,5.073-14.058,6.642-21.592l-5.813-2.157
	c-1.507,7.563-3.725,14.81-6.572,21.633c-3.896-1.263-7.892-2.278-11.979-3.046l-0.832,6.097c3.505,0.662,6.941,1.515,10.292,2.571
	c-3.74,7.709-8.302,14.776-13.546,21.044l5.077,3.484c5.536-6.686,10.346-14.199,14.266-22.396
	c6.978,2.718,13.505,6.288,19.549,10.508c-8.16,7.035-17.689,12.478-28.128,15.898c2.526,2.034,2.746,3.428,2.701,8.59
	L136.844,199.68L136.844,199.68z"/>

</svg>
