<?xml version="1.0" encoding="utf-8"?>
<!DOCTYPE svg PUBLIC "-//W3C//DTD SVG 1.1//EN" "http://www.w3.org/Graphics/SVG/1.1/DTD/svg11.dtd">
<svg version="1.1" xmlns="http://www.w3.org/2000/svg" xmlns:xlink="http://www.w3.org/1999/xlink" x="0px" y="0px" width="216px" height="216px" viewBox="0 0 216 216" enable-background="new 0 0 216 216" xml:space="preserve">  
    
<path fill-rule="evenodd" clip-rule="evenodd" d="M132.884,201.686l0.044-5.67
	c0.045-5.325,0.224-4.577-4.163-7.6c-5.325-3.659-10.653-7.319-15.979-10.982l1.45-16.499h7.051c0.557,0,0.833-0.541,0.901-1.032
	l3.177-23.115c0.032-0.252-0.679-0.5-0.906-0.5l-9.329,0.216l1.238-20.297l82.337,30.906c-0.991-7.43-3.855-11.561-10.236-16.975
	l-70.927-49.129l0.374-30.153c0.057-6.765-0.585-13.654-2.506-20.142l-2.608-8.323c-0.408-1.286-2.374-6.999-4.222-7.837
	c-0.231-0.104-0.157-0.095-0.287-0.116c-0.124,0.014-0.248,0.067-0.349,0.116c-1.848,0.839-3.812,6.552-4.222,7.837l-2.608,8.323
	c-1.921,6.488-2.563,13.377-2.506,20.142l0.375,30.153l-70.929,49.129c-6.381,5.414-9.245,9.545-10.236,16.975l81.835-30.752
	l1.45,19.927h-9.042c-0.223,0-0.936,0.248-0.901,0.5l3.176,23.115c0.065,0.491,0.345,1.032,0.899,1.032h7.319l1.182,16.499
	c-5.325,3.663-10.652,7.323-15.977,10.982c-4.391,3.022-4.208,2.274-4.166,7.6l0.047,5.67l21.907-8.477
	c0.154,4.346,1.663,6.162,2.494,10.443l0.217,0.162l0.219-0.162c0.952-4.221,2.85-5.979,2.855-10.269L132.884,201.686
	L132.884,201.686z"/>
</svg>
