<?xml version="1.0" encoding="utf-8"?>
<!DOCTYPE svg PUBLIC "-//W3C//DTD SVG 1.1//EN" "http://www.w3.org/Graphics/SVG/1.1/DTD/svg11.dtd">
<svg version="1.1" xmlns="http://www.w3.org/2000/svg" xmlns:xlink="http://www.w3.org/1999/xlink" x="0px" y="0px" width="216px" height="216px" viewBox="0 0 216 216" enable-background="new 0 0 216 216" xml:space="preserve">  
    
<path fill-rule="evenodd" clip-rule="evenodd" d="M17,0.957h181.84c8.826,0,16.044,7.22,16.044,16.043
	v181.84c0,8.822-7.218,16.044-16.044,16.044H17c-8.823,0-16.043-7.222-16.043-16.044V17C0.957,8.176,8.176,0.957,17,0.957L17,0.957z
	 M17,5.907h181.84c6.102,0,11.091,4.991,11.091,11.093v181.84c0,6.102-4.989,11.091-11.091,11.091H17
	c-6.101,0-11.092-4.989-11.092-11.091V17C5.907,10.898,10.898,5.907,17,5.907L17,5.907z M188.286,107.604
	c3.872,2.366,6.726,5.982,7.817,10.189h-9.579c-0.898,0-1.628,0.915-1.628,2.031v16.237c0,1.116,0.729,2.027,1.628,2.027h10.067
	v6.553H22.698v-6.553h9.984c0.895,0,1.628-0.911,1.628-2.027v-16.237c0-1.116-0.733-2.031-1.628-2.031h-9.499
	c1.04-4.01,3.686-7.487,7.291-9.853l2.383-10.678H19.129c-0.637,0-1.156-0.465-1.156-1.038v-8.298c0-0.572,0.52-1.038,1.156-1.038
	h16.043l4.536-12.672c2.04-9.136,7.951-16.938,17.671-16.938h102.168c9.721,0,15.229,7.885,17.672,16.938l5.48,12.672h16.467
	c0.641,0,1.16,0.465,1.16,1.038v8.298c0,0.572-0.52,1.038-1.16,1.038h-13.67L188.286,107.604L188.286,107.604z M82.558,117.806
	L82.558,117.806h53.04v4.235h-53.04V117.806L82.558,117.806z M82.558,125.99L82.558,125.99h53.04v4.228h-53.04V125.99L82.558,125.99
	z M82.558,134.167L82.558,134.167h53.04v4.231h-53.04V134.167L82.558,134.167z M54.736,67.576L54.736,67.576
	c-2.658,0.447-4.626,5.4-4.957,6.958l-8.406,30.791h135.782l-10.003-30.197c-0.427-1.654-2.257-7.173-6.032-7.552H54.736
	L54.736,67.576z M148.426,117.793L148.426,117.793h29.31c0.895,0,1.628,0.915,1.628,2.031v16.237c0,1.116-0.733,2.027-1.628,2.027
	h-29.31c-0.896,0-1.629-0.911-1.629-2.027v-16.237C146.797,118.708,147.53,117.793,148.426,117.793L148.426,117.793z
	 M41.752,117.793L41.752,117.793H71.06c0.897,0,1.626,0.915,1.626,2.031v16.237c0,1.116-0.729,2.027-1.626,2.027H41.752
	c-0.895,0-1.626-0.911-1.626-2.027v-16.237C40.126,118.708,40.857,117.793,41.752,117.793L41.752,117.793z M196.592,165.855
	L196.592,165.855v6.553H22.698v-6.553H196.592L196.592,165.855z"/>

</svg>
