<?xml version="1.0" encoding="utf-8"?>
<!DOCTYPE svg PUBLIC "-//W3C//DTD SVG 1.1//EN" "http://www.w3.org/Graphics/SVG/1.1/DTD/svg11.dtd">
<svg version="1.1" xmlns="http://www.w3.org/2000/svg" xmlns:xlink="http://www.w3.org/1999/xlink" x="0px" y="0px" width="216px" height="216px" viewBox="0 0 216 216" enable-background="new 0 0 216 216" xml:space="preserve">  
    
<path  fill-rule="evenodd" clip-rule="evenodd" d="M191.393,177.087v14.592
	c0,3.261-2.978,5.929-6.613,5.929h-13.234c-3.635,0-6.613-2.668-6.613-5.929v-14.592H191.393L191.393,177.087z M53.886,177.087
	L53.886,177.087v14.592c0,3.261-2.979,5.929-6.617,5.929h-13.23c-3.637,0-6.615-2.668-6.615-5.929v-14.592H53.886L53.886,177.087z
	 M17.661,149.635L17.661,149.635h185.02v11.228H17.661V149.635L17.661,149.635z M65.279,32.696L65.279,32.696h2.67
	c1.384,0,2.42-0.304,3.113-0.915c0.693-0.606,1.038-1.534,1.038-2.781c0-2.216-1.55-3.323-4.645-3.323h-2.176V32.696L65.279,32.696z
	 M169.293,19.825L169.293,19.825l-1.036,6.396h-7.811v22.507h-10.175V26.22h-8.354v-6.396H169.293L169.293,19.825z M139.547,48.728
	L139.547,48.728h-12.746l-7.512-21.097l0.148,0.915c0.363,2.021,0.649,3.867,0.862,5.543c0.214,1.676,0.322,3.564,0.322,5.668v8.971
	h-8.992V19.825h12.503l7.806,21.178l-0.149-0.871c-0.395-1.912-0.696-3.691-0.914-5.338c-0.214-1.646-0.318-3.548-0.318-5.71v-9.259
	h8.99V48.728L139.547,48.728z M108.517,19.825L108.517,19.825l-1.038,5.936H96.114v5.4h9.98v5.773h-9.98v5.813h12.154v5.98H85.935
	V19.825H108.517L108.517,19.825z M67.157,38.427L67.157,38.427h-1.878v10.3H55.101V19.825h12.602c4.973,0,8.679,0.738,11.117,2.223
	c2.438,1.479,3.655,3.798,3.655,6.954c0,1.799-0.476,3.294-1.431,4.485S78.54,35.8,76.397,36.85l8.4,11.878H73.534L67.157,38.427
	L67.157,38.427z"/>
</svg>
