<?xml version="1.0" encoding="utf-8"?>
<!-- Generator: Adobe Illustrator 16.0.0, SVG Export Plug-In . SVG Version: 6.00 Build 0)  -->
<!DOCTYPE svg PUBLIC "-//W3C//DTD SVG 1.1//EN" "http://www.w3.org/Graphics/SVG/1.1/DTD/svg11.dtd">
<svg version="1.1" id="Layer_1" xmlns="http://www.w3.org/2000/svg" xmlns:xlink="http://www.w3.org/1999/xlink" x="0px" y="0px"
	 width="216px" height="216px" viewBox="0 0 216 216" enable-background="new 0 0 216 216" xml:space="preserve">
<path id="_x33_" fill-rule="evenodd" clip-rule="evenodd" fill="#F58031" d="M33.508,51.794c-9.341,0-16.916-7.574-16.916-16.914
	c0-9.34,7.574-16.914,16.916-16.914c9.34,0,16.912,7.574,16.912,16.914C50.42,44.22,42.848,51.794,33.508,51.794L33.508,51.794z
	 M25.634,39.336L25.634,39.336c0,1.251,0.232,2.354,0.697,3.303c0.468,0.943,1.102,1.737,1.9,2.365
	c0.8,0.637,1.73,1.108,2.801,1.429c1.068,0.322,2.212,0.478,3.429,0.478c0.822,0,1.592-0.063,2.295-0.199
	c0.705-0.133,1.328-0.296,1.87-0.486c0.542-0.193,0.994-0.391,1.358-0.604c0.358-0.206,0.623-0.389,0.782-0.552
	c0.163-0.157,0.276-0.391,0.338-0.687c0.068-0.3,0.101-0.735,0.101-1.302c0-0.383-0.012-0.699-0.032-0.957
	c-0.024-0.258-0.068-0.471-0.119-0.628c-0.057-0.157-0.133-0.27-0.226-0.341c-0.089-0.068-0.196-0.099-0.323-0.099
	c-0.169,0-0.415,0.099-0.729,0.302c-0.307,0.2-0.711,0.427-1.207,0.673c-0.492,0.244-1.078,0.47-1.755,0.673
	c-0.685,0.201-1.473,0.3-2.374,0.3c-0.59,0-1.118-0.068-1.586-0.205c-0.465-0.147-0.862-0.349-1.188-0.607
	c-0.32-0.258-0.572-0.57-0.744-0.955c-0.173-0.383-0.258-0.806-0.258-1.271c0-0.542,0.145-1.005,0.441-1.39
	c0.296-0.389,0.679-0.735,1.151-1.034c0.312-0.197,0.653-0.389,1.02-0.57h8.225c0.121,0,0.218-0.133,0.218-0.296V35.5
	c0-0.162-0.097-0.294-0.218-0.294H24.411c-0.121,0-0.219,0.133-0.219,0.294v1.174c0,0.164,0.099,0.296,0.219,0.296h1.61
	C25.761,37.651,25.634,38.437,25.634,39.336L25.634,39.336z M24.411,31.9L24.411,31.9h7.998l0.228-0.097
	c0.616-0.258,1.165-0.542,1.648-0.842c0.486-0.302,0.875-0.649,1.165-1.034c0.291-0.391,0.436-0.848,0.436-1.378
	c0-0.351-0.071-0.691-0.196-1.012c-0.135-0.32-0.328-0.592-0.592-0.818c-0.264-0.228-0.592-0.409-0.987-0.534
	c-0.391-0.133-0.85-0.195-1.378-0.195c-0.679,0-1.298,0.081-1.864,0.252c-0.566,0.163-1.064,0.344-1.489,0.554
	c-0.436,0.201-0.794,0.389-1.09,0.558c-0.294,0.171-0.51,0.26-0.647,0.26c-0.133,0-0.24-0.039-0.32-0.115
	c-0.084-0.069-0.145-0.188-0.183-0.347c-0.044-0.163-0.077-0.365-0.095-0.61c-0.018-0.246-0.024-0.546-0.024-0.899
	c0-0.32,0.006-0.59,0.012-0.806c0.012-0.213,0.036-0.391,0.068-0.534c0.032-0.139,0.063-0.252,0.107-0.341
	c0.044-0.086,0.127-0.187,0.252-0.314c0.119-0.119,0.373-0.276,0.755-0.459c0.385-0.184,0.818-0.353,1.308-0.496
	c0.492-0.153,1.02-0.266,1.585-0.355c0.566-0.086,1.133-0.125,1.693-0.125c1.096,0,2.134,0.139,3.109,0.421
	c0.974,0.284,1.824,0.711,2.541,1.283c0.726,0.568,1.296,1.29,1.719,2.152c0.421,0.868,0.635,1.876,0.635,3.012
	c0,1.003-0.143,1.852-0.441,2.569c-0.034,0.084-0.068,0.167-0.108,0.248h1.249c0.121,0,0.218,0.133,0.218,0.296v1.177
	c0,0.159-0.097,0.292-0.218,0.292H24.411c-0.121,0-0.219-0.131-0.219-0.292v-1.177C24.191,32.034,24.29,31.9,24.411,31.9
	L24.411,31.9z M188.729,121.734L188.729,121.734v12.417h7.862v-12.417H188.729L188.729,121.734z M22.698,134.151L22.698,134.151
	h7.776v-12.417h-7.776V134.151L22.698,134.151z M151.822,122.488L151.822,122.488H174.6c0.343,0,0.621,0.282,0.621,0.625v9.672
	c0,0.343-0.278,0.62-0.621,0.62h-22.777c-0.342,0-0.624-0.277-0.624-0.62v-9.672C151.198,122.771,151.48,122.488,151.822,122.488
	L151.822,122.488z M45.117,122.488L45.117,122.488h22.775c0.345,0,0.625,0.282,0.625,0.625v9.672c0,0.343-0.28,0.62-0.625,0.62
	H45.117c-0.342,0-0.625-0.277-0.625-0.62v-9.672C44.492,122.771,44.774,122.488,45.117,122.488L45.117,122.488z M185.143,51.794
	L185.143,51.794c-9.338,0-16.918-7.574-16.918-16.914c0-9.34,7.58-16.914,16.918-16.914c9.337,0,16.914,7.574,16.914,16.914
	C202.057,44.22,194.479,51.794,185.143,51.794L185.143,51.794z M177.264,39.336L177.264,39.336c0,1.251,0.234,2.354,0.701,3.303
	c0.464,0.943,1.101,1.737,1.902,2.365c0.794,0.637,1.729,1.108,2.797,1.429c1.072,0.322,2.213,0.478,3.43,0.478
	c0.826,0,1.592-0.063,2.297-0.199c0.705-0.133,1.33-0.296,1.87-0.486c0.54-0.193,0.991-0.391,1.357-0.604
	c0.359-0.206,0.621-0.389,0.782-0.552c0.165-0.157,0.278-0.391,0.334-0.687c0.073-0.3,0.105-0.735,0.105-1.302
	c0-0.383-0.013-0.699-0.032-0.957c-0.024-0.258-0.073-0.471-0.121-0.628c-0.057-0.157-0.129-0.27-0.226-0.341
	c-0.089-0.068-0.193-0.099-0.318-0.099c-0.169,0-0.419,0.099-0.729,0.302c-0.311,0.2-0.713,0.427-1.209,0.673
	c-0.491,0.244-1.076,0.47-1.757,0.673c-0.686,0.201-1.471,0.3-2.37,0.3c-0.592,0-1.12-0.068-1.588-0.208
	c-0.463-0.145-0.862-0.346-1.188-0.604c-0.322-0.258-0.572-0.572-0.741-0.955c-0.178-0.383-0.259-0.806-0.259-1.271
	c0-0.542,0.146-1.005,0.439-1.39c0.295-0.389,0.678-0.735,1.153-1.034c0.306-0.197,0.648-0.389,1.015-0.57h8.226
	c0.121,0,0.222-0.133,0.222-0.296V35.5c0-0.162-0.101-0.294-0.222-0.294h-17.091c-0.121,0-0.218,0.133-0.218,0.294v1.174
	c0,0.164,0.097,0.296,0.218,0.296h1.611C177.393,37.651,177.264,38.437,177.264,39.336L177.264,39.336z M176.043,31.9L176.043,31.9
	h7.999l0.226-0.097c0.617-0.258,1.169-0.542,1.648-0.842c0.488-0.302,0.875-0.649,1.165-1.034c0.294-0.391,0.435-0.848,0.435-1.378
	c0-0.351-0.068-0.691-0.193-1.012c-0.133-0.32-0.33-0.592-0.596-0.818c-0.263-0.228-0.589-0.409-0.983-0.534
	c-0.392-0.133-0.851-0.195-1.379-0.195c-0.681,0-1.297,0.081-1.861,0.252c-0.568,0.163-1.064,0.344-1.491,0.554
	c-0.436,0.201-0.794,0.389-1.088,0.558c-0.295,0.171-0.512,0.26-0.649,0.26c-0.133,0-0.237-0.041-0.322-0.115
	c-0.084-0.069-0.141-0.188-0.181-0.347c-0.049-0.163-0.077-0.365-0.098-0.61c-0.016-0.246-0.023-0.546-0.023-0.899
	c0-0.32,0.008-0.59,0.016-0.806c0.008-0.213,0.032-0.391,0.064-0.534c0.032-0.139,0.064-0.252,0.109-0.341
	c0.044-0.086,0.125-0.187,0.25-0.314c0.12-0.119,0.37-0.276,0.757-0.459c0.383-0.184,0.814-0.353,1.31-0.498
	c0.488-0.151,1.021-0.264,1.584-0.353c0.564-0.086,1.133-0.125,1.693-0.125c1.096,0,2.132,0.139,3.106,0.421
	c0.976,0.284,1.826,0.711,2.543,1.283c0.722,0.568,1.298,1.29,1.717,2.152c0.423,0.868,0.637,1.876,0.637,3.014
	c0,1.001-0.145,1.85-0.439,2.567c-0.036,0.084-0.072,0.167-0.108,0.248h1.245c0.121,0,0.222,0.133,0.222,0.296v1.177
	c0,0.159-0.101,0.292-0.222,0.292h-17.091c-0.121,0-0.218-0.131-0.218-0.292v-1.177C175.825,32.034,175.922,31.9,176.043,31.9
	L176.043,31.9z"/>
<path id="_x32_" fill-rule="evenodd" clip-rule="evenodd" fill="#999557" d="M17,0.957h181.84c8.826,0,16.044,7.22,16.044,16.043
	v181.84c0,8.822-7.218,16.044-16.044,16.044H17c-8.823,0-16.043-7.222-16.043-16.044V17C0.957,8.176,8.176,0.957,17,0.957L17,0.957z
	 M17,5.907h181.84c6.102,0,11.091,4.991,11.091,11.093v181.84c0,6.102-4.989,11.091-11.091,11.091H17
	c-6.101,0-11.092-4.989-11.092-11.091V17C5.907,10.898,10.898,5.907,17,5.907L17,5.907z M188.286,107.604
	c3.872,2.366,6.726,5.982,7.817,10.189h-9.579c-0.898,0-1.628,0.915-1.628,2.031v16.237c0,1.116,0.729,2.027,1.628,2.027h10.067
	v6.553H22.698v-6.553h9.984c0.895,0,1.628-0.911,1.628-2.027v-16.237c0-1.116-0.733-2.031-1.628-2.031h-9.499
	c1.04-4.01,3.686-7.487,7.291-9.853l2.383-10.678H19.129c-0.637,0-1.156-0.465-1.156-1.038v-8.298c0-0.572,0.52-1.038,1.156-1.038
	h16.043l4.536-12.672c2.04-9.136,7.951-16.938,17.671-16.938h102.168c9.721,0,15.229,7.885,17.672,16.938l5.48,12.672h16.467
	c0.641,0,1.16,0.465,1.16,1.038v8.298c0,0.572-0.52,1.038-1.16,1.038h-13.67L188.286,107.604L188.286,107.604z M82.558,117.806
	L82.558,117.806h53.04v4.235h-53.04V117.806L82.558,117.806z M82.558,125.99L82.558,125.99h53.04v4.228h-53.04V125.99L82.558,125.99
	z M82.558,134.167L82.558,134.167h53.04v4.231h-53.04V134.167L82.558,134.167z M54.736,67.576L54.736,67.576
	c-2.658,0.447-4.626,5.4-4.957,6.958l-8.406,30.791h135.782l-10.003-30.197c-0.427-1.654-2.257-7.173-6.032-7.552H54.736
	L54.736,67.576z M148.426,117.793L148.426,117.793h29.31c0.895,0,1.628,0.915,1.628,2.031v16.237c0,1.116-0.733,2.027-1.628,2.027
	h-29.31c-0.896,0-1.629-0.911-1.629-2.027v-16.237C146.797,118.708,147.53,117.793,148.426,117.793L148.426,117.793z
	 M41.752,117.793L41.752,117.793H71.06c0.897,0,1.626,0.915,1.626,2.031v16.237c0,1.116-0.729,2.027-1.626,2.027H41.752
	c-0.895,0-1.626-0.911-1.626-2.027v-16.237C40.126,118.708,40.857,117.793,41.752,117.793L41.752,117.793z M196.592,165.855
	L196.592,165.855v6.553H22.698v-6.553H196.592L196.592,165.855z"/>
<path id="_x31_" fill-rule="evenodd" clip-rule="evenodd" fill="#7E5628" d="M191.393,177.087v14.592
	c0,3.261-2.978,5.929-6.613,5.929h-13.234c-3.635,0-6.613-2.668-6.613-5.929v-14.592H191.393L191.393,177.087z M53.886,177.087
	L53.886,177.087v14.592c0,3.261-2.979,5.929-6.617,5.929h-13.23c-3.637,0-6.615-2.668-6.615-5.929v-14.592H53.886L53.886,177.087z
	 M17.661,149.635L17.661,149.635h185.02v11.228H17.661V149.635L17.661,149.635z M65.279,32.696L65.279,32.696h2.67
	c1.384,0,2.42-0.304,3.113-0.915c0.693-0.606,1.038-1.534,1.038-2.781c0-2.216-1.55-3.323-4.645-3.323h-2.176V32.696L65.279,32.696z
	 M169.293,19.825L169.293,19.825l-1.036,6.396h-7.811v22.507h-10.175V26.22h-8.354v-6.396H169.293L169.293,19.825z M139.547,48.728
	L139.547,48.728h-12.746l-7.512-21.097l0.148,0.915c0.363,2.021,0.649,3.867,0.862,5.543c0.214,1.676,0.322,3.564,0.322,5.668v8.971
	h-8.992V19.825h12.503l7.806,21.178l-0.149-0.871c-0.395-1.912-0.696-3.691-0.914-5.338c-0.214-1.646-0.318-3.548-0.318-5.71v-9.259
	h8.99V48.728L139.547,48.728z M108.517,19.825L108.517,19.825l-1.038,5.936H96.114v5.4h9.98v5.773h-9.98v5.813h12.154v5.98H85.935
	V19.825H108.517L108.517,19.825z M67.157,38.427L67.157,38.427h-1.878v10.3H55.101V19.825h12.602c4.973,0,8.679,0.738,11.117,2.223
	c2.438,1.479,3.655,3.798,3.655,6.954c0,1.799-0.476,3.294-1.431,4.485S78.54,35.8,76.397,36.85l8.4,11.878H73.534L67.157,38.427
	L67.157,38.427z"/>
</svg>
