<?xml version="1.0" encoding="utf-8"?>
<!DOCTYPE svg PUBLIC "-//W3C//DTD SVG 1.1//EN" "http://www.w3.org/Graphics/SVG/1.1/DTD/svg11.dtd">
<svg version="1.1" xmlns="http://www.w3.org/2000/svg" xmlns:xlink="http://www.w3.org/1999/xlink" x="0px" y="0px" width="216px" height="216px" viewBox="0 0 216 216" enable-background="new 0 0 216 216" xml:space="preserve">  
    

<path fill-rule="evenodd" clip-rule="evenodd" d="M16.867,0.8h182.105c8.839,0,16.067,7.23,16.067,16.067
	v182.105c0,8.835-7.229,16.067-16.067,16.067H16.867c-8.836,0-16.067-7.232-16.067-16.067V16.867C0.8,8.031,8.031,0.8,16.867,0.8
	L16.867,0.8z M16.867,5.758h182.105c6.11,0,11.106,4.999,11.106,11.109v182.105c0,6.11-4.996,11.107-11.106,11.107H16.867
	c-6.11,0-11.109-4.997-11.109-11.107V16.867C5.758,10.757,10.757,5.758,16.867,5.758L16.867,5.758z M48.448,37.531l-7.289,10.207
	h-2.187c-4.008,0-5.529,2.892-5.832,6.563c-6.328,0.526-5.089,2.593-6.877,6.245c-0.908,1.859-5.075,3.219-6.246,7.604
	c-1.625-0.434-2.188-0.169-2.188-2.187v-5.104c0-11.46,16.737-24.056,28.431-24.056C47.112,36.802,48.276,37.321,48.448,37.531
	L48.448,37.531z M50.552,35.331L50.552,35.331l-1.376,0.012c-0.607-2.607-1.457-3.424-1.457-6.558v-1.459
	c0-5.542,2.23-7.571,6.007-9.446L50.552,35.331L50.552,35.331z M87.085,62.317L87.085,62.317c0,1.669-0.248,0.85-0.729,2.916
	c-0.62-0.166-8.017-5.525-8.481-6.098c-2.835-3.509-1.338-6.139-7.854-6.609l-4.079-4.789l-4.671-0.454l-9.18-9.024
	c0.89-0.499,0.781-0.729,2.188-0.729h1.459C69.85,37.531,87.085,48.995,87.085,62.317L87.085,62.317z M110.414,145.421
	L110.414,145.421c-7.279-1.694-15.268-9.476-27.704-9.476h-9.476c-18.817,0-37.543,13.455-56.47,21.85V142.62
	c14.664-9.428,29.193-20.526,48.45-20.526C79.921,122.094,104.875,137.151,110.414,145.421L110.414,145.421z"/>

</svg>
