<?xml version="1.0" encoding="utf-8"?>
<!DOCTYPE svg PUBLIC "-//W3C//DTD SVG 1.1//EN" "http://www.w3.org/Graphics/SVG/1.1/DTD/svg11.dtd">
<svg version="1.1" xmlns="http://www.w3.org/2000/svg" xmlns:xlink="http://www.w3.org/1999/xlink" x="0px" y="0px" width="216px" height="216px" viewBox="0 0 216 216" enable-background="new 0 0 216 216" xml:space="preserve">  
    

<path fill-rule="evenodd" clip-rule="evenodd" d="M46.989,34.615l-8.748,2.188
	c-0.557-0.374-3.085-2.188-3.644-2.188c-1.719,0-3.243,1.431-4.375,2.188c-0.714-0.622-1.283-1.459-2.914-1.459
	c-1.17,0-6.425,2.054-10.543,2.181v-1.641c1.685-4.241,8.223-7.099,13.458-7.099h0.73C37.269,28.785,44.513,30.914,46.989,34.615
	L46.989,34.615z M76.15,119.906L76.15,119.906l-11.038-1.469l0.831-8.007v-14.58c0-10.751-1.616-21.333-4.28-29.254
	c-2.416-7.186-9.079-18.052-9.571-23.963c8.271,1.927,16.245,22.175,19.049,31.254C74.029,83.245,76.15,107.482,76.15,119.906
	L76.15,119.906z M39.7,63.776L39.7,63.776c0-7.698,2.367-14.004,5.104-18.957c7.529-13.631,5.017,4.072,6.56,7.293
	c-1.358,2.03-2.916,2.519-2.916,5.832c0,2.224,0.7,2.94,1.057,4.268l-1.057,7.396l1.065,2.926l0.394,10.194
	C42.979,81.116,39.7,72.739,39.7,63.776L39.7,63.776z M81.981,32.429L81.981,32.429l-3.645,0.198l-5.832-0.198h-0.73
	c-2.224,0-2.942,0.7-4.373,1.457c-1.031-0.512-1.21-0.73-2.916-0.73c-2.059,0-2.813,1.673-3.681,2.331l-8.714,0.587
	c0.452-5.416,11.745-10.207,18.226-10.207h1.457C76.489,25.867,81.61,27.972,81.981,32.429L81.981,32.429z M139.138,150.958
	L139.138,150.958c0,4.839,0.855,4.94,3.026,10.195l25.467-24.534c-3.742-3.12-5.554-3.584-10.57-3.584
	C147.406,133.035,139.138,141.216,139.138,150.958L139.138,150.958z M94.218,185.993L94.218,185.993h14.198v9.081H94.218V185.993
	L94.218,185.993z M69.247,185.993L69.247,185.993h14.196v9.081H69.247V185.993L69.247,185.993z M43.005,185.993L43.005,185.993
	h14.196v9.081H43.005V185.993L43.005,185.993z M16.764,185.993L16.764,185.993H30.96v9.081H16.764V185.993L16.764,185.993z
	 M171.702,164.745L171.702,164.745c4.92-5.868,6.05-14.84,2.918-20.954l-25.962,23.848
	C156.939,171.061,164.942,172.801,171.702,164.745L171.702,164.745z"/>
</svg>
