<?xml version="1.0" encoding="utf-8"?>
<!DOCTYPE svg PUBLIC "-//W3C//DTD SVG 1.1//EN" "http://www.w3.org/Graphics/SVG/1.1/DTD/svg11.dtd">
<svg version="1.1" xmlns="http://www.w3.org/2000/svg" xmlns:xlink="http://www.w3.org/1999/xlink" x="0px" y="0px" width="216px" height="216px" viewBox="0 0 216 216" enable-background="new 0 0 216 216" xml:space="preserve">  
    
<path  fill-rule="evenodd" clip-rule="evenodd" d="M111.869,160.733
	c-7.024-1.639-13.831-5.105-22.599-5.105h-8.746c-20.429,0-40.762,12.77-63.76,14.408v-1.76c4.236-1.606,9.957-3.688,11.563-4.339
	c5.007-2.01,9.848-4.734,14.54-7.329c9.101-5.036,20.256-10.457,34.012-10.457h2.918C90.82,146.151,107.744,154.57,111.869,160.733
	L111.869,160.733z M183.939,195.716L183.939,195.716c15.332-0.101,16.127-18.21,16.127-28.671V57.161
	c0-19.398-16.479-39.422-41.573-39.422c-20.982,0-42.65,15.417-42.65,35.836c0,8.163,2.591,10.753,10.755,10.753
	c6.498,0,8.661-4.984,8.645-10.933c-0.023-7.799,4.553-15.945,21.818-15.945h3.584c9.113,0,19.711,10.602,19.711,19.711v3.584
	c0,7.559-4.871,11.546-11.938,14.352c-18.649,7.397-52.574,6.542-52.574,41.202v54.33
	C115.843,204.018,150.886,195.716,183.939,195.716L183.939,195.716z M130.178,152.746L130.178,152.746
	c-1.521-14.933,10.873-28.671,26.883-28.671c15.275,0,28.671,12.773,28.671,26.883v1.788c0.782,11.434-12.936,27.71-25.265,27.061
	C144.864,179.807,130.178,172.094,130.178,152.746L130.178,152.746z"/>
</svg>
