<?xml version="1.0" encoding="utf-8"?>
<!-- Generator: Adobe Illustrator 16.0.0, SVG Export Plug-In . SVG Version: 6.00 Build 0)  -->
<!DOCTYPE svg PUBLIC "-//W3C//DTD SVG 1.1//EN" "http://www.w3.org/Graphics/SVG/1.1/DTD/svg11.dtd">
<svg version="1.1" id="Layer_1" xmlns="http://www.w3.org/2000/svg" xmlns:xlink="http://www.w3.org/1999/xlink" x="0px" y="0px"
	 width="216px" height="216px" viewBox="0 0 216 216" enable-background="new 0 0 216 216" xml:space="preserve">
<path id="_x33_" fill-rule="evenodd" clip-rule="evenodd" fill="#F58031" d="M111.869,160.733
	c-7.024-1.639-13.831-5.105-22.599-5.105h-8.746c-20.429,0-40.762,12.77-63.76,14.408v-1.76c4.236-1.606,9.957-3.688,11.563-4.339
	c5.007-2.01,9.848-4.734,14.54-7.329c9.101-5.036,20.256-10.457,34.012-10.457h2.918C90.82,146.151,107.744,154.57,111.869,160.733
	L111.869,160.733z M183.939,195.716L183.939,195.716c15.332-0.101,16.127-18.21,16.127-28.671V57.161
	c0-19.398-16.479-39.422-41.573-39.422c-20.982,0-42.65,15.417-42.65,35.836c0,8.163,2.591,10.753,10.755,10.753
	c6.498,0,8.661-4.984,8.645-10.933c-0.023-7.799,4.553-15.945,21.818-15.945h3.584c9.113,0,19.711,10.602,19.711,19.711v3.584
	c0,7.559-4.871,11.546-11.938,14.352c-18.649,7.397-52.574,6.542-52.574,41.202v54.33
	C115.843,204.018,150.886,195.716,183.939,195.716L183.939,195.716z M130.178,152.746L130.178,152.746
	c-1.521-14.933,10.873-28.671,26.883-28.671c15.275,0,28.671,12.773,28.671,26.883v1.788c0.782,11.434-12.936,27.71-25.265,27.061
	C144.864,179.807,130.178,172.094,130.178,152.746L130.178,152.746z"/>
<path id="_x32_" fill-rule="evenodd" clip-rule="evenodd" fill="#999557" d="M16.867,0.8h182.105c8.839,0,16.067,7.23,16.067,16.067
	v182.105c0,8.835-7.229,16.067-16.067,16.067H16.867c-8.836,0-16.067-7.232-16.067-16.067V16.867C0.8,8.031,8.031,0.8,16.867,0.8
	L16.867,0.8z M16.867,5.758h182.105c6.11,0,11.106,4.999,11.106,11.109v182.105c0,6.11-4.996,11.107-11.106,11.107H16.867
	c-6.11,0-11.109-4.997-11.109-11.107V16.867C5.758,10.757,10.757,5.758,16.867,5.758L16.867,5.758z M48.448,37.531l-7.289,10.207
	h-2.187c-4.008,0-5.529,2.892-5.832,6.563c-6.328,0.526-5.089,2.593-6.877,6.245c-0.908,1.859-5.075,3.219-6.246,7.604
	c-1.625-0.434-2.188-0.169-2.188-2.187v-5.104c0-11.46,16.737-24.056,28.431-24.056C47.112,36.802,48.276,37.321,48.448,37.531
	L48.448,37.531z M50.552,35.331L50.552,35.331l-1.376,0.012c-0.607-2.607-1.457-3.424-1.457-6.558v-1.459
	c0-5.542,2.23-7.571,6.007-9.446L50.552,35.331L50.552,35.331z M87.085,62.317L87.085,62.317c0,1.669-0.248,0.85-0.729,2.916
	c-0.62-0.166-8.017-5.525-8.481-6.098c-2.835-3.509-1.338-6.139-7.854-6.609l-4.079-4.789l-4.671-0.454l-9.18-9.024
	c0.89-0.499,0.781-0.729,2.188-0.729h1.459C69.85,37.531,87.085,48.995,87.085,62.317L87.085,62.317z M110.414,145.421
	L110.414,145.421c-7.279-1.694-15.268-9.476-27.704-9.476h-9.476c-18.817,0-37.543,13.455-56.47,21.85V142.62
	c14.664-9.428,29.193-20.526,48.45-20.526C79.921,122.094,104.875,137.151,110.414,145.421L110.414,145.421z"/>
<path id="_x31_" fill-rule="evenodd" clip-rule="evenodd" fill="#7E5628" d="M46.989,34.615l-8.748,2.188
	c-0.557-0.374-3.085-2.188-3.644-2.188c-1.719,0-3.243,1.431-4.375,2.188c-0.714-0.622-1.283-1.459-2.914-1.459
	c-1.17,0-6.425,2.054-10.543,2.181v-1.641c1.685-4.241,8.223-7.099,13.458-7.099h0.73C37.269,28.785,44.513,30.914,46.989,34.615
	L46.989,34.615z M76.15,119.906L76.15,119.906l-11.038-1.469l0.831-8.007v-14.58c0-10.751-1.616-21.333-4.28-29.254
	c-2.416-7.186-9.079-18.052-9.571-23.963c8.271,1.927,16.245,22.175,19.049,31.254C74.029,83.245,76.15,107.482,76.15,119.906
	L76.15,119.906z M39.7,63.776L39.7,63.776c0-7.698,2.367-14.004,5.104-18.957c7.529-13.631,5.017,4.072,6.56,7.293
	c-1.358,2.03-2.916,2.519-2.916,5.832c0,2.224,0.7,2.94,1.057,4.268l-1.057,7.396l1.065,2.926l0.394,10.194
	C42.979,81.116,39.7,72.739,39.7,63.776L39.7,63.776z M81.981,32.429L81.981,32.429l-3.645,0.198l-5.832-0.198h-0.73
	c-2.224,0-2.942,0.7-4.373,1.457c-1.031-0.512-1.21-0.73-2.916-0.73c-2.059,0-2.813,1.673-3.681,2.331l-8.714,0.587
	c0.452-5.416,11.745-10.207,18.226-10.207h1.457C76.489,25.867,81.61,27.972,81.981,32.429L81.981,32.429z M139.138,150.958
	L139.138,150.958c0,4.839,0.855,4.94,3.026,10.195l25.467-24.534c-3.742-3.12-5.554-3.584-10.57-3.584
	C147.406,133.035,139.138,141.216,139.138,150.958L139.138,150.958z M94.218,185.993L94.218,185.993h14.198v9.081H94.218V185.993
	L94.218,185.993z M69.247,185.993L69.247,185.993h14.196v9.081H69.247V185.993L69.247,185.993z M43.005,185.993L43.005,185.993
	h14.196v9.081H43.005V185.993L43.005,185.993z M16.764,185.993L16.764,185.993H30.96v9.081H16.764V185.993L16.764,185.993z
	 M171.702,164.745L171.702,164.745c4.92-5.868,6.05-14.84,2.918-20.954l-25.962,23.848
	C156.939,171.061,164.942,172.801,171.702,164.745L171.702,164.745z"/>
</svg>
