<?xml version="1.0" encoding="utf-8"?>
<!-- Generator: Adobe Illustrator 16.0.0, SVG Export Plug-In . SVG Version: 6.00 Build 0)  -->
<!DOCTYPE svg PUBLIC "-//W3C//DTD SVG 1.1//EN" "http://www.w3.org/Graphics/SVG/1.1/DTD/svg11.dtd">
<svg version="1.1" id="Layer_1" xmlns="http://www.w3.org/2000/svg" xmlns:xlink="http://www.w3.org/1999/xlink" x="0px" y="0px"
	 width="216px" height="216px" viewBox="0 0 216 216" enable-background="new 0 0 216 216" xml:space="preserve">
<path id="_x33_" fill-rule="evenodd" clip-rule="evenodd" fill="#F58031" d="M109.623,19.21c6.211,0.05,2.051,15.201,8.048,16.807
	c5.908,1.582,9.649-13.75,14.916-10.654c5.355,3.148-5.827,14.188-1.433,18.581c4.318,4.32,15.231-7.087,18.242-1.772
	c3.063,5.404-12.14,9.375-10.529,15.376c1.578,5.903,16.729,1.477,16.68,7.587c-0.044,6.211-15.199,2.05-16.81,8.052
	c-1.577,5.898,13.755,9.644,10.659,14.91c-2.886,4.91-12.398-4.07-17.351-2.224l-1.828-2.189c4.258-4.875,6.833-11.252,6.833-18.23
	c0-15.322-12.427-27.747-27.744-27.747c-15.322,0-27.749,12.425-27.749,27.747c0,7.499,2.979,14.301,7.813,19.295l-1.287,1.566
	c-4.327-4.29-15.222,7.091-18.232,1.782c-3.063-5.404,12.138-9.377,10.532-15.375c-1.58-5.9-16.732-1.479-16.684-7.587
	c0.048-6.211,15.199-2.05,16.807-8.049c1.582-5.902-13.75-9.648-10.655-14.915c3.15-5.354,14.19,5.826,18.583,1.433
	c4.318-4.32-7.087-15.229-1.772-18.242c5.402-3.063,9.375,12.14,15.375,10.531C107.938,34.312,103.515,19.162,109.623,19.21
	L109.623,19.21z M28.755,70.829L28.755,70.829l1.287,0.446h0.482v0.164l15.328,5.291l17.096,5.9l-17.096,5.9l-15.328,5.289v68.436
	l-2.113,3.111V71.274h0.343V70.829L28.755,70.829z"/>
<path id="_x32_" fill-rule="evenodd" clip-rule="evenodd" fill="#999557" d="M16.867,0.8h182.105c8.839,0,16.067,7.23,16.067,16.067
	v182.105c0,8.835-7.229,16.067-16.067,16.067H16.867c-8.836,0-16.067-7.232-16.067-16.067V16.867C0.8,8.031,8.031,0.8,16.867,0.8
	L16.867,0.8z M16.867,5.758h182.105c6.11,0,11.106,4.999,11.106,11.109v182.105c0,6.11-4.996,11.107-11.106,11.107H16.867
	c-6.11,0-11.109-4.997-11.109-11.107V16.867C5.758,10.757,10.757,5.758,16.867,5.758L16.867,5.758z M20.56,36.268l1.408,0.486h0.525
	v0.182l16.753,5.781l18.682,6.445l-18.682,6.449l-16.753,5.781v111.694l-2.307,3.398V36.754h0.374V36.268L20.56,36.268z
	 M167.731,198.605L167.731,198.605H135.61c-5.643-13.326-12.463-26.285-15.982-40.334c-4.669-18.63-6.688-39.071-8.449-57.981
	c-2.815,19.798-3.437,40.305-8.181,59.386c-3.438,13.839-10.164,26.196-16.285,38.93H56.576
	c-2.478-12.511-8.281-23.727-15.606-33.328l-25.563,33.328h-4.448v-2.284l92.986-119.986c4.036-5.743,8.074-5.886,12.112-0.43
	l81.564,103.792v7.669l-16.232-20.967C172.405,176.259,169.329,187.459,167.731,198.605L167.731,198.605z M75.126,143.447
	L75.126,143.447v13.513h12.542C87.164,149.813,81.834,144.09,75.126,143.447L75.126,143.447z M87.515,160.52L87.515,160.52H75.126
	v12.18C81.411,172.098,86.485,167.033,87.515,160.52L87.515,160.52z M71.771,172.591L71.771,172.591V160.52H60.22
	C61.205,166.742,65.876,171.638,71.771,172.591L71.771,172.591z M60.067,156.96L60.067,156.96h11.704v-13.407
	C65.461,144.573,60.551,150.11,60.067,156.96L60.067,156.96z M148.727,143.589L148.727,143.589v13.371h11.494
	C159.74,150.188,154.934,144.694,148.727,143.589L148.727,143.589z M160.067,160.52L160.067,160.52h-11.341v12.035
	C154.521,171.521,159.095,166.67,160.067,160.52L160.067,160.52z M145.373,172.72L145.373,172.72v-12.2h-12.601
	C133.818,167.105,138.988,172.211,145.373,172.72L145.373,172.72z M132.619,156.96L132.619,156.96h12.754v-13.532
	C138.564,143.969,133.132,149.735,132.619,156.96L132.619,156.96z M130.836,103.969L130.836,103.969L111.705,79.75
	c-1.62-1.744-3.172-1.978-4.617,0l-18.795,23.87l19.324-15.681c1.231-0.993,2.464-0.823,3.693,0.139L130.836,103.969
	L130.836,103.969z"/>
<path id="_x31_" fill-rule="evenodd" clip-rule="evenodd" fill="#7E5628" d="M171.024,25.789l7.499,14.081l7.498,14.083h-10.469
	l4.984,9.363l9.521,17.867h-10.041l4.847,9.101l13.141,24.676H176.61l1.542,32.439l-13.064-16.297l0.956-16.143h-13.903
	l-4.027-5.029l10.465-19.646l4.847-9.101h-11.438l9.517-17.867l4.988-9.363H156.02l7.498-14.083L171.024,25.789L171.024,25.789z
	 M132.543,198.605L132.543,198.605h-17.375c-6.352-19.687-5.142-42.546-3.527-63.803C114.87,158.739,121.84,180.009,132.543,198.605
	L132.543,198.605z M37.591,98.807L37.591,98.807l1.29,0.444h0.478v0.166l15.33,5.291l17.098,5.9l-17.098,5.9l-15.33,5.287v31.597
	l-2.111,2.539v-56.68h0.343V98.807L37.591,98.807z"/>
</svg>
