<?xml version="1.0" encoding="utf-8"?>
<!DOCTYPE svg PUBLIC "-//W3C//DTD SVG 1.1//EN" "http://www.w3.org/Graphics/SVG/1.1/DTD/svg11.dtd">
<svg version="1.1" xmlns="http://www.w3.org/2000/svg" xmlns:xlink="http://www.w3.org/1999/xlink" x="0px" y="0px" width="216px" height="216px" viewBox="0 0 216 216" enable-background="new 0 0 216 216" xml:space="preserve">  
    

<path fill-rule="evenodd" clip-rule="evenodd"  d="M16.867,0.8h182.105c8.839,0,16.067,7.23,16.067,16.067
	v182.105c0,8.835-7.229,16.067-16.067,16.067H16.867c-8.836,0-16.067-7.232-16.067-16.067V16.867C0.8,8.031,8.031,0.8,16.867,0.8
	L16.867,0.8z M16.867,5.758h182.105c6.11,0,11.106,4.999,11.106,11.109v182.105c0,6.11-4.996,11.107-11.106,11.107H16.867
	c-6.11,0-11.109-4.997-11.109-11.107V16.867C5.758,10.757,10.757,5.758,16.867,5.758L16.867,5.758z M20.56,36.268l1.408,0.486h0.525
	v0.182l16.753,5.781l18.682,6.445l-18.682,6.449l-16.753,5.781v111.694l-2.307,3.398V36.754h0.374V36.268L20.56,36.268z
	 M167.731,198.605L167.731,198.605H135.61c-5.643-13.326-12.463-26.285-15.982-40.334c-4.669-18.63-6.688-39.071-8.449-57.981
	c-2.815,19.798-3.437,40.305-8.181,59.386c-3.438,13.839-10.164,26.196-16.285,38.93H56.576
	c-2.478-12.511-8.281-23.727-15.606-33.328l-25.563,33.328h-4.448v-2.284l92.986-119.986c4.036-5.743,8.074-5.886,12.112-0.43
	l81.564,103.792v7.669l-16.232-20.967C172.405,176.259,169.329,187.459,167.731,198.605L167.731,198.605z M75.126,143.447
	L75.126,143.447v13.513h12.542C87.164,149.813,81.834,144.09,75.126,143.447L75.126,143.447z M87.515,160.52L87.515,160.52H75.126
	v12.18C81.411,172.098,86.485,167.033,87.515,160.52L87.515,160.52z M71.771,172.591L71.771,172.591V160.52H60.22
	C61.205,166.742,65.876,171.638,71.771,172.591L71.771,172.591z M60.067,156.96L60.067,156.96h11.704v-13.407
	C65.461,144.573,60.551,150.11,60.067,156.96L60.067,156.96z M148.727,143.589L148.727,143.589v13.371h11.494
	C159.74,150.188,154.934,144.694,148.727,143.589L148.727,143.589z M160.067,160.52L160.067,160.52h-11.341v12.035
	C154.521,171.521,159.095,166.67,160.067,160.52L160.067,160.52z M145.373,172.72L145.373,172.72v-12.2h-12.601
	C133.818,167.105,138.988,172.211,145.373,172.72L145.373,172.72z M132.619,156.96L132.619,156.96h12.754v-13.532
	C138.564,143.969,133.132,149.735,132.619,156.96L132.619,156.96z M130.836,103.969L130.836,103.969L111.705,79.75
	c-1.62-1.744-3.172-1.978-4.617,0l-18.795,23.87l19.324-15.681c1.231-0.993,2.464-0.823,3.693,0.139L130.836,103.969
	L130.836,103.969z"/>

</svg>
