<?xml version="1.0" encoding="utf-8"?>
<!DOCTYPE svg PUBLIC "-//W3C//DTD SVG 1.1//EN" "http://www.w3.org/Graphics/SVG/1.1/DTD/svg11.dtd">
<svg version="1.1" xmlns="http://www.w3.org/2000/svg" xmlns:xlink="http://www.w3.org/1999/xlink" x="0px" y="0px" width="216px" height="216px" viewBox="0 0 216 216" enable-background="new 0 0 216 216" xml:space="preserve">  
    
<path fill-rule="evenodd" clip-rule="evenodd" d="M171.024,25.789l7.499,14.081l7.498,14.083h-10.469
	l4.984,9.363l9.521,17.867h-10.041l4.847,9.101l13.141,24.676H176.61l1.542,32.439l-13.064-16.297l0.956-16.143h-13.903
	l-4.027-5.029l10.465-19.646l4.847-9.101h-11.438l9.517-17.867l4.988-9.363H156.02l7.498-14.083L171.024,25.789L171.024,25.789z
	 M132.543,198.605L132.543,198.605h-17.375c-6.352-19.687-5.142-42.546-3.527-63.803C114.87,158.739,121.84,180.009,132.543,198.605
	L132.543,198.605z M37.591,98.807L37.591,98.807l1.29,0.444h0.478v0.166l15.33,5.291l17.098,5.9l-17.098,5.9l-15.33,5.287v31.597
	l-2.111,2.539v-56.68h0.343V98.807L37.591,98.807z"/>
</svg>
