<?xml version="1.0" encoding="utf-8"?>
<!DOCTYPE svg PUBLIC "-//W3C//DTD SVG 1.1//EN" "http://www.w3.org/Graphics/SVG/1.1/DTD/svg11.dtd">
<svg version="1.1" xmlns="http://www.w3.org/2000/svg" xmlns:xlink="http://www.w3.org/1999/xlink" x="0px" y="0px" width="216px" height="216px" viewBox="0 0 216 216" enable-background="new 0 0 216 216" xml:space="preserve">  
    
<path fill-rule="evenodd" clip-rule="evenodd" d="M109.623,19.21c6.211,0.05,2.051,15.201,8.048,16.807
	c5.908,1.582,9.649-13.75,14.916-10.654c5.355,3.148-5.827,14.188-1.433,18.581c4.318,4.32,15.231-7.087,18.242-1.772
	c3.063,5.404-12.14,9.375-10.529,15.376c1.578,5.903,16.729,1.477,16.68,7.587c-0.044,6.211-15.199,2.05-16.81,8.052
	c-1.577,5.898,13.755,9.644,10.659,14.91c-2.886,4.91-12.398-4.07-17.351-2.224l-1.828-2.189c4.258-4.875,6.833-11.252,6.833-18.23
	c0-15.322-12.427-27.747-27.744-27.747c-15.322,0-27.749,12.425-27.749,27.747c0,7.499,2.979,14.301,7.813,19.295l-1.287,1.566
	c-4.327-4.29-15.222,7.091-18.232,1.782c-3.063-5.404,12.138-9.377,10.532-15.375c-1.58-5.9-16.732-1.479-16.684-7.587
	c0.048-6.211,15.199-2.05,16.807-8.049c1.582-5.902-13.75-9.648-10.655-14.915c3.15-5.354,14.19,5.826,18.583,1.433
	c4.318-4.32-7.087-15.229-1.772-18.242c5.402-3.063,9.375,12.14,15.375,10.531C107.938,34.312,103.515,19.162,109.623,19.21
	L109.623,19.21z M28.755,70.829L28.755,70.829l1.287,0.446h0.482v0.164l15.328,5.291l17.096,5.9l-17.096,5.9l-15.328,5.289v68.436
	l-2.113,3.111V71.274h0.343V70.829L28.755,70.829z"/>
</svg>
