<?xml version="1.0" encoding="utf-8"?>
<!DOCTYPE svg PUBLIC "-//W3C//DTD SVG 1.1//EN" "http://www.w3.org/Graphics/SVG/1.1/DTD/svg11.dtd">
<svg version="1.1" xmlns="http://www.w3.org/2000/svg" xmlns:xlink="http://www.w3.org/1999/xlink" x="0px" y="0px" width="216px" height="216px" viewBox="0 0 216 216" enable-background="new 0 0 216 216" xml:space="preserve">
<path fill-rule="evenodd" clip-rule="evenodd" d="M54.481,120.546L54.481,120.546h10.116l0.287-0.122
	c0.779-0.33,1.471-0.684,2.083-1.069c0.613-0.383,1.107-0.818,1.471-1.303c0.367-0.492,0.549-1.074,0.549-1.741
	c0-0.448-0.085-0.88-0.246-1.282c-0.167-0.407-0.413-0.748-0.747-1.033c-0.333-0.289-0.747-0.517-1.249-0.68
	c-0.493-0.163-1.074-0.244-1.742-0.244c-0.86,0-1.64,0.102-2.356,0.317c-0.716,0.208-1.345,0.439-1.886,0.7
	c-0.549,0.252-1.003,0.496-1.377,0.708c-0.373,0.216-0.645,0.325-0.82,0.325c-0.165,0-0.301-0.049-0.403-0.143
	c-0.106-0.085-0.185-0.24-0.232-0.436c-0.055-0.207-0.096-0.464-0.12-0.772c-0.022-0.31-0.033-0.692-0.033-1.14
	c0-0.406,0.01-0.747,0.017-1.017c0.016-0.271,0.049-0.493,0.087-0.676c0.039-0.178,0.079-0.319,0.134-0.43
	c0.057-0.112,0.161-0.24,0.319-0.398c0.151-0.151,0.47-0.351,0.956-0.58c0.484-0.232,1.034-0.448,1.652-0.631
	c0.623-0.189,1.292-0.333,2.008-0.445c0.714-0.109,1.43-0.157,2.139-0.157c1.383,0,2.697,0.173,3.933,0.531
	c1.231,0.358,2.305,0.899,3.212,1.624c0.915,0.716,1.64,1.632,2.173,2.72c0.533,1.099,0.804,2.372,0.804,3.813
	c0,1.261-0.183,2.339-0.558,3.246c-0.045,0.106-0.089,0.212-0.136,0.313h1.577c0.152,0,0.279,0.167,0.279,0.37v1.489
	c0,0.204-0.126,0.37-0.279,0.37H54.481c-0.15,0-0.276-0.166-0.276-0.37v-1.489C54.205,120.713,54.329,120.546,54.481,120.546
	L54.481,120.546z M56.028,129.945L56.028,129.945c0,1.583,0.295,2.975,0.883,4.179c0.59,1.192,1.393,2.193,2.402,2.991
	c1.011,0.802,2.187,1.399,3.54,1.807c1.353,0.403,2.801,0.606,4.337,0.606c1.042,0,2.015-0.081,2.903-0.257
	c0.891-0.167,1.681-0.374,2.364-0.614c0.585-0.211,1.088-0.423,1.514-0.651c0.405-0.309,0.826-0.606,1.259-0.883
	c0.169-0.195,0.292-0.463,0.362-0.797c0.087-0.383,0.128-0.933,0.128-1.648c0-0.484-0.016-0.884-0.041-1.208
	c-0.033-0.326-0.087-0.594-0.151-0.794c-0.073-0.199-0.168-0.342-0.287-0.432c-0.112-0.085-0.248-0.126-0.407-0.126
	c-0.215,0-0.525,0.126-0.924,0.382c-0.388,0.258-0.897,0.542-1.525,0.852c-0.623,0.31-1.362,0.594-2.222,0.85
	c-0.867,0.257-1.862,0.383-2.999,0.383c-0.749,0-1.417-0.09-2.004-0.265c-0.59-0.179-1.09-0.435-1.505-0.761
	c-0.405-0.325-0.722-0.724-0.938-1.208c-0.224-0.488-0.326-1.018-0.326-1.611c0-0.684,0.183-1.27,0.557-1.754
	c0.372-0.496,0.858-0.932,1.455-1.307c0.393-0.251,0.824-0.492,1.289-0.725h10.399c0.152,0,0.279-0.166,0.279-0.374v-1.485
	c0-0.203-0.126-0.369-0.279-0.369H54.481c-0.152,0-0.276,0.166-0.276,0.369v1.485c0,0.208,0.126,0.374,0.276,0.374h2.037
	C56.188,127.817,56.028,128.811,56.028,129.945L56.028,129.945z M53.344,107.061L53.344,107.061H36.029
	c-1.693,4.166-5.172,7.415-9.487,8.79v15.23c4.287,1.367,7.754,4.586,9.457,8.716h15.237c-4.088-3.895-6.637-9.396-6.637-15.487
	C44.598,117.229,48.042,110.953,53.344,107.061L53.344,107.061z M112.034,134.344L112.034,134.344v2.242
	c-0.531-0.094,1.151-0.146-1.643-0.146c-0.352,0-0.761,0.065-1.204,0.188c2.043,1.172,3.929,2.729,5.149,4.671
	c0.032-0.28,0.053-0.569,0.053-0.862v-35.229c0-4.126-3.381-7.512-7.513-7.512H24.609c-4.132,0-7.512,3.379-7.512,7.512v7.548
	v10.393v17.289c0,4.13,3.384,7.512,7.512,7.512h45.07c-0.128-0.59-0.197-1.209-0.197-1.852c0-0.228,0.008-0.452,0.024-0.672h-0.097
	c-1.117,0.183-2.259,0.277-3.424,0.277c-1.164,0-2.308-0.095-3.42-0.277H37.144v0.074h-6.079c-0.053-5.01-6.366-9.059-9.159-9.059
	c-2.792,0-1.111,0.053-1.644,0.146v-2.242v-3.894v-13.969v-6.138h3.286c4.242-0.768,7.468-4.458,7.517-8.912h1.099h4.98h58.008
	h6.083c0.046,4.453,3.275,8.144,7.517,8.912h3.28l0.002-0.002v0.002h0.036v24H112.034L112.034,134.344z M105.792,115.862
	c-4.332-1.371-7.825-4.624-9.523-8.801H78.627c5.302,3.892,8.747,10.168,8.747,17.249c0,3.271-0.734,6.368-2.047,9.144
	c2.439-0.436,4.921-0.627,7.292-0.627c2.706,0,5.554,0.253,8.322,0.822c1.432-1.136,3.07-2.019,4.852-2.58V115.862L105.792,115.862z
	 M17.405,61.889L17.405,61.889l90.617-48.669l0.011,0.014l0.008-0.014l90.614,48.669v13.479l-12.337-6.716l-78.285-42.047
	l-78.29,42.047l-12.337,7.477V61.889L17.405,61.889z M174.505,95.186L174.505,95.186c1.844,0,3.337,1.496,3.337,3.339
	c0,1.841-1.493,3.337-3.337,3.337c-1.843,0-3.336-1.496-3.336-3.337C171.169,96.681,172.662,95.186,174.505,95.186L174.505,95.186z
	 M174.505,89.129L174.505,89.129c5.188,0,9.396,4.206,9.396,9.396c0,5.188-4.208,9.396-9.396,9.396
	c-5.188,0-9.395-4.207-9.395-9.396C165.11,93.335,169.317,89.129,174.505,89.129L174.505,89.129z M151.23,80.71L151.23,80.71
	c1.843,0,3.337,1.493,3.337,3.339c0,1.841-1.494,3.336-3.337,3.336c-1.844,0-3.337-1.495-3.337-3.336
	C147.894,82.204,149.387,80.71,151.23,80.71L151.23,80.71z M151.23,74.654L151.23,74.654c5.188,0,9.396,4.209,9.396,9.396
	c0,5.188-4.208,9.396-9.396,9.396s-9.396-4.208-9.396-9.396C141.835,78.863,146.043,74.654,151.23,74.654L151.23,74.654z
	 M173.163,75.271L173.163,75.271h4.609c0.541,0,0.631,0.445,0.199,0.989l-23.567,29.486c-0.436,0.545-1.237,0.991-1.782,0.991
	h-4.606c-0.545,0-0.634-0.445-0.199-0.991l23.564-29.486C171.819,75.716,172.617,75.271,173.163,75.271L173.163,75.271z
	 M106.361,47.951L106.361,47.951h2.312c0.909,0,1.652,0.745,1.652,1.652v3.961c0,0.908-0.743,1.65-1.652,1.65h-2.312
	c-0.907,0-1.649-0.743-1.649-1.65v-3.961C104.712,48.695,105.454,47.951,106.361,47.951L106.361,47.951z M67.15,90.325L67.15,90.325
	l0.008-2.311c0.002-0.907,0.749-1.648,1.656-1.646l3.961,0.015c0.91,0.004,1.65,0.749,1.648,1.656l-0.008,2.309
	c-0.004,0.909-0.749,1.648-1.656,1.646l-3.963-0.013C67.889,91.978,67.148,91.233,67.15,90.325L67.15,90.325z"/>
</svg>
