<?xml version="1.0" encoding="utf-8"?>
<!DOCTYPE svg PUBLIC "-//W3C//DTD SVG 1.1//EN" "http://www.w3.org/Graphics/SVG/1.1/DTD/svg11.dtd">
<svg version="1.1" xmlns="http://www.w3.org/2000/svg" xmlns:xlink="http://www.w3.org/1999/xlink" x="0px" y="0px" width="216px" height="216px" viewBox="0 0 216 216" enable-background="new 0 0 216 216" xml:space="preserve">
<path id="_x33_" fill-rule="evenodd" clip-rule="evenodd" fill="#999557" d="M16.119-0.08h183.602
	c8.912,0,16.199,7.29,16.199,16.199v183.602c0,8.907-7.287,16.198-16.199,16.198H16.119c-8.909,0-16.199-7.291-16.199-16.198V16.119
	C-0.08,7.21,7.21-0.08,16.119-0.08L16.119-0.08z M16.119,4.919h183.602c6.16,0,11.198,5.04,11.198,11.2v183.602
	c0,6.16-5.038,11.198-11.198,11.198H16.119c-6.16,0-11.2-5.038-11.2-11.198V16.119C4.919,9.958,9.958,4.919,16.119,4.919
	L16.119,4.919z M35.154,190.281h145.434v-19.561h5.795v26.002h-2.026v0.02H31.476v-0.004h-2.124l0.008-45.068h5.876L35.154,190.281
	L35.154,190.281z M29.368,94.537L29.368,94.537l0.004-19.987l4.875-2.592l1.162-0.623v7.162l-0.021,0.01l-0.032,16.03H29.368
	L29.368,94.537z M131.646,130.572L131.646,130.572h15.397v11.763h-15.397V130.572L131.646,130.572z M165.017,135.939
	L165.017,135.939h11.169l0.317-0.139c0.859-0.362,1.624-0.757,2.299-1.18c0.676-0.42,1.222-0.903,1.628-1.44
	c0.403-0.546,0.603-1.185,0.603-1.921c0-0.492-0.094-0.968-0.27-1.416c-0.183-0.447-0.455-0.826-0.825-1.139
	c-0.366-0.318-0.826-0.575-1.379-0.75c-0.546-0.183-1.189-0.271-1.925-0.271c-0.948,0-1.812,0.109-2.601,0.354
	c-0.789,0.228-1.485,0.48-2.083,0.773c-0.603,0.276-1.107,0.541-1.519,0.777c-0.41,0.239-0.711,0.357-0.902,0.357
	c-0.188,0-0.338-0.048-0.448-0.154c-0.118-0.098-0.203-0.265-0.256-0.484c-0.062-0.228-0.105-0.508-0.13-0.851
	c-0.029-0.341-0.037-0.765-0.037-1.257c0-0.448,0.008-0.826,0.016-1.123c0.021-0.302,0.054-0.545,0.098-0.749
	c0.046-0.19,0.086-0.351,0.147-0.473c0.064-0.125,0.179-0.264,0.354-0.438c0.167-0.167,0.517-0.387,1.054-0.644
	c0.537-0.252,1.144-0.492,1.827-0.695c0.684-0.208,1.425-0.366,2.214-0.488s1.583-0.175,2.364-0.175c1.526,0,2.979,0.19,4.337,0.586
	c1.363,0.395,2.552,0.992,3.553,1.79c1.005,0.793,1.806,1.803,2.396,3.003c0.59,1.217,0.887,2.62,0.887,4.211
	c0,1.396-0.204,2.584-0.614,3.585c-0.049,0.118-0.102,0.232-0.15,0.351h1.737c0.171,0,0.309,0.183,0.309,0.407v1.644
	c0,0.224-0.138,0.406-0.309,0.406h-23.86c-0.167,0-0.306-0.183-0.306-0.406v-1.644C164.711,136.122,164.85,135.939,165.017,135.939
	L165.017,135.939z M166.726,146.314L166.726,146.314c0,1.746,0.325,3.284,0.973,4.611c0.654,1.318,1.537,2.429,2.652,3.304
	c1.119,0.888,2.417,1.546,3.911,1.997c1.493,0.444,3.092,0.664,4.789,0.664c1.151,0,2.221-0.085,3.206-0.28
	c0.984-0.185,1.852-0.411,2.608-0.677c0.756-0.272,1.388-0.545,1.896-0.842c0.505-0.288,0.871-0.545,1.091-0.776
	c0.229-0.216,0.387-0.542,0.472-0.957c0.098-0.419,0.143-1.024,0.143-1.818c0-0.533-0.016-0.974-0.045-1.335
	c-0.032-0.357-0.098-0.655-0.162-0.875c-0.081-0.224-0.188-0.378-0.317-0.476c-0.123-0.098-0.276-0.139-0.447-0.139
	c-0.24,0-0.583,0.139-1.021,0.419c-0.432,0.281-0.993,0.599-1.688,0.939c-0.684,0.343-1.502,0.66-2.45,0.94
	c-0.956,0.281-2.055,0.424-3.313,0.424c-0.826,0-1.562-0.098-2.213-0.293c-0.646-0.199-1.205-0.484-1.66-0.843
	c-0.444-0.357-0.798-0.798-1.034-1.334c-0.248-0.538-0.361-1.123-0.361-1.775c0-0.756,0.203-1.402,0.614-1.944
	c0.415-0.542,0.947-1.025,1.607-1.437c0.435-0.276,0.911-0.549,1.424-0.801h11.479c0.171,0,0.309-0.185,0.309-0.411v-1.641
	c0-0.228-0.138-0.415-0.309-0.415h-23.86c-0.167,0-0.306,0.188-0.306,0.415v1.641c0,0.227,0.139,0.411,0.306,0.411h2.25
	C166.904,143.968,166.726,145.062,166.726,146.314L166.726,146.314z M130.214,112.235L130.214,112.235h62.378
	c4.439,0,8.073,3.636,8.073,8.074v37.867c0,4.442-3.634,8.077-8.073,8.077h-43.647c-0.09-0.7-0.262-1.385-0.509-2.048l-0.272-0.744
	c0.536-1.172,0.85-2.454,0.85-3.862c0-5.024-4.004-8.561-8.198-10.595c-4.811-2.34-10.657-3.268-15.967-3.268
	c-0.893,0-1.795,0.028-2.706,0.081V120.31C122.142,115.871,125.778,112.235,130.214,112.235L130.214,112.235z M180.768,71.396
	l2.262,1.216l3.354,1.789l-0.094,19.082c-1.803-3.309-3.69-4.875-5.583-5.835C180.739,83.142,180.768,76.676,180.768,71.396
	L180.768,71.396z"/>
<path id="_x32_" fill-rule="evenodd" clip-rule="evenodd" fill="#F58031" d="M105.77,174.566L105.77,174.566
	c-0.145,0.46-0.222,0.936-0.222,1.42c0,5.144,8.589,9.311,19.182,9.311c10.587,0,19.177-4.167,19.177-9.311
	c0-0.569-0.102-1.123-0.301-1.66c-2.986,3.458-10.381,5.908-19.027,5.908C116.135,180.234,108.884,177.895,105.77,174.566
	L105.77,174.566z M105.77,166.949L105.77,166.949c-0.145,0.464-0.222,0.936-0.222,1.42c0,5.143,8.589,9.313,19.182,9.313
	c10.587,0,19.177-4.171,19.177-9.313c0-0.565-0.102-1.123-0.301-1.66c-2.986,3.459-10.381,5.908-19.027,5.908
	C116.135,172.617,108.884,170.281,105.77,166.949L105.77,166.949z M73.659,167.352L73.659,167.352
	c-0.145,0.465-0.221,0.94-0.221,1.42c0,5.144,8.592,9.314,19.181,9.314c3.813,0,7.363-0.541,10.35-1.469
	c-0.019-0.208-0.027-0.42-0.027-0.631c0-0.749,0.118-1.489,0.342-2.201l0.576-1.835c-0.078-0.146-0.153-0.293-0.222-0.443
	c-3.21,0.956-7.047,1.513-11.167,1.513C84.022,173.02,76.775,170.685,73.659,167.352L73.659,167.352z M73.659,159.734
	L73.659,159.734c-0.145,0.464-0.221,0.94-0.221,1.421c0,5.143,8.592,9.313,19.181,9.313c3.813,0,7.363-0.541,10.35-1.469
	c-0.019-0.208-0.027-0.415-0.027-0.631c0-0.748,0.118-1.489,0.342-2.201l0.543-1.726c-0.091-0.175-0.177-0.35-0.256-0.533
	c-3.198,0.944-7.009,1.494-11.101,1.494C84.022,165.403,76.775,163.067,73.659,159.734L73.659,159.734z M73.659,152.122
	L73.659,152.122c-0.145,0.463-0.221,0.936-0.221,1.42c0,5.139,8.592,9.31,19.181,9.31c3.807,0,7.355-0.537,10.337-1.465
	c-0.01-0.15-0.014-0.305-0.014-0.464c0-1.944,0.749-3.625,1.9-5.037c-3.437,1.192-7.723,1.904-12.372,1.904
	C84.022,157.79,76.775,155.454,73.659,152.122L73.659,152.122z M124.729,150.751L124.729,150.751
	c-10.593,0-19.182,4.166-19.182,9.31c0,5.147,8.589,9.313,19.182,9.313c10.587,0,19.177-4.166,19.177-9.313
	C143.906,154.917,135.316,150.751,124.729,150.751L124.729,150.751z M92.618,136.781L92.618,136.781
	c-10.589,0-19.181,4.171-19.181,9.314s8.592,9.314,19.181,9.314c10.592,0,19.18-4.171,19.18-9.314S103.21,136.781,92.618,136.781
	L92.618,136.781z M58.705,95.766L58.705,95.766c-0.36-2.405-0.545-4.867-0.545-7.372c0-27.437,22.251-49.688,49.689-49.688
	c20.807,0,38.634,12.805,46.026,30.961c-0.256-0.014-0.517-0.018-0.772-0.018c-1.978,0-3.882,0.323-5.664,0.917
	c-6.804-15.086-21.974-25.586-39.59-25.586c-23.973,0-43.416,19.441-43.416,43.414c0,2.515,0.213,4.977,0.624,7.372H58.705
	L58.705,95.766z M136.301,81.087l-26.232,12.832c-0.646,0.317-1.369,0.313-1.994,0.057c-0.092-0.03-0.185-0.069-0.273-0.11
	l-26.27-12.433c-1.229-0.584-1.723-2.1-1.115-3.318l0.439-0.887c0.606-1.221,2.089-1.699,3.32-1.117l24.789,11.732l27.34-13.375
	c1.505-0.759,2.535,0.817,2.953,1.766c0.855,2.403-0.536,3.791-2.787,4.767L136.301,81.087L136.301,81.087z"/>
<path id="_x31_" fill-rule="evenodd" clip-rule="evenodd" fill="#7E5628" d="M54.481,120.546L54.481,120.546h10.116l0.287-0.122
	c0.779-0.33,1.471-0.684,2.083-1.069c0.613-0.383,1.107-0.818,1.471-1.303c0.367-0.492,0.549-1.074,0.549-1.741
	c0-0.448-0.085-0.88-0.246-1.282c-0.167-0.407-0.413-0.748-0.747-1.033c-0.333-0.289-0.747-0.517-1.249-0.68
	c-0.493-0.163-1.074-0.244-1.742-0.244c-0.86,0-1.64,0.102-2.356,0.317c-0.716,0.208-1.345,0.439-1.886,0.7
	c-0.549,0.252-1.003,0.496-1.377,0.708c-0.373,0.216-0.645,0.325-0.82,0.325c-0.165,0-0.301-0.049-0.403-0.143
	c-0.106-0.085-0.185-0.24-0.232-0.436c-0.055-0.207-0.096-0.464-0.12-0.772c-0.022-0.31-0.033-0.692-0.033-1.14
	c0-0.406,0.01-0.747,0.017-1.017c0.016-0.271,0.049-0.493,0.087-0.676c0.039-0.178,0.079-0.319,0.134-0.43
	c0.057-0.112,0.161-0.24,0.319-0.398c0.151-0.151,0.47-0.351,0.956-0.58c0.484-0.232,1.034-0.448,1.652-0.631
	c0.623-0.189,1.292-0.333,2.008-0.445c0.714-0.109,1.43-0.157,2.139-0.157c1.383,0,2.697,0.173,3.933,0.531
	c1.231,0.358,2.305,0.899,3.212,1.624c0.915,0.716,1.64,1.632,2.173,2.72c0.533,1.099,0.804,2.372,0.804,3.813
	c0,1.261-0.183,2.339-0.558,3.246c-0.045,0.106-0.089,0.212-0.136,0.313h1.577c0.152,0,0.279,0.167,0.279,0.37v1.489
	c0,0.204-0.126,0.37-0.279,0.37H54.481c-0.15,0-0.276-0.166-0.276-0.37v-1.489C54.205,120.713,54.329,120.546,54.481,120.546
	L54.481,120.546z M56.028,129.945L56.028,129.945c0,1.583,0.295,2.975,0.883,4.179c0.59,1.192,1.393,2.193,2.402,2.991
	c1.011,0.802,2.187,1.399,3.54,1.807c1.353,0.403,2.801,0.606,4.337,0.606c1.042,0,2.015-0.081,2.903-0.257
	c0.891-0.167,1.681-0.374,2.364-0.614c0.585-0.211,1.088-0.423,1.514-0.651c0.405-0.309,0.826-0.606,1.259-0.883
	c0.169-0.195,0.292-0.463,0.362-0.797c0.087-0.383,0.128-0.933,0.128-1.648c0-0.484-0.016-0.884-0.041-1.208
	c-0.033-0.326-0.087-0.594-0.151-0.794c-0.073-0.199-0.168-0.342-0.287-0.432c-0.112-0.085-0.248-0.126-0.407-0.126
	c-0.215,0-0.525,0.126-0.924,0.382c-0.388,0.258-0.897,0.542-1.525,0.852c-0.623,0.31-1.362,0.594-2.222,0.85
	c-0.867,0.257-1.862,0.383-2.999,0.383c-0.749,0-1.417-0.09-2.004-0.265c-0.59-0.179-1.09-0.435-1.505-0.761
	c-0.405-0.325-0.722-0.724-0.938-1.208c-0.224-0.488-0.326-1.018-0.326-1.611c0-0.684,0.183-1.27,0.557-1.754
	c0.372-0.496,0.858-0.932,1.455-1.307c0.393-0.251,0.824-0.492,1.289-0.725h10.399c0.152,0,0.279-0.166,0.279-0.374v-1.485
	c0-0.203-0.126-0.369-0.279-0.369H54.481c-0.152,0-0.276,0.166-0.276,0.369v1.485c0,0.208,0.126,0.374,0.276,0.374h2.037
	C56.188,127.817,56.028,128.811,56.028,129.945L56.028,129.945z M53.344,107.061L53.344,107.061H36.029
	c-1.693,4.166-5.172,7.415-9.487,8.79v15.23c4.287,1.367,7.754,4.586,9.457,8.716h15.237c-4.088-3.895-6.637-9.396-6.637-15.487
	C44.598,117.229,48.042,110.953,53.344,107.061L53.344,107.061z M112.034,134.344L112.034,134.344v2.242
	c-0.531-0.094,1.151-0.146-1.643-0.146c-0.352,0-0.761,0.065-1.204,0.188c2.043,1.172,3.929,2.729,5.149,4.671
	c0.032-0.28,0.053-0.569,0.053-0.862v-35.229c0-4.126-3.381-7.512-7.513-7.512H24.609c-4.132,0-7.512,3.379-7.512,7.512v7.548
	v10.393v17.289c0,4.13,3.384,7.512,7.512,7.512h45.07c-0.128-0.59-0.197-1.209-0.197-1.852c0-0.228,0.008-0.452,0.024-0.672h-0.097
	c-1.117,0.183-2.259,0.277-3.424,0.277c-1.164,0-2.308-0.095-3.42-0.277H37.144v0.074h-6.079c-0.053-5.01-6.366-9.059-9.159-9.059
	c-2.792,0-1.111,0.053-1.644,0.146v-2.242v-3.894v-13.969v-6.138h3.286c4.242-0.768,7.468-4.458,7.517-8.912h1.099h4.98h58.008
	h6.083c0.046,4.453,3.275,8.144,7.517,8.912h3.28l0.002-0.002v0.002h0.036v24H112.034L112.034,134.344z M105.792,115.862
	c-4.332-1.371-7.825-4.624-9.523-8.801H78.627c5.302,3.892,8.747,10.168,8.747,17.249c0,3.271-0.734,6.368-2.047,9.144
	c2.439-0.436,4.921-0.627,7.292-0.627c2.706,0,5.554,0.253,8.322,0.822c1.432-1.136,3.07-2.019,4.852-2.58V115.862L105.792,115.862z
	 M17.405,61.889L17.405,61.889l90.617-48.669l0.011,0.014l0.008-0.014l90.614,48.669v13.479l-12.337-6.716l-78.285-42.047
	l-78.29,42.047l-12.337,7.477V61.889L17.405,61.889z M174.505,95.186L174.505,95.186c1.844,0,3.337,1.496,3.337,3.339
	c0,1.841-1.493,3.337-3.337,3.337c-1.843,0-3.336-1.496-3.336-3.337C171.169,96.681,172.662,95.186,174.505,95.186L174.505,95.186z
	 M174.505,89.129L174.505,89.129c5.188,0,9.396,4.206,9.396,9.396c0,5.188-4.208,9.396-9.396,9.396
	c-5.188,0-9.395-4.207-9.395-9.396C165.11,93.335,169.317,89.129,174.505,89.129L174.505,89.129z M151.23,80.71L151.23,80.71
	c1.843,0,3.337,1.493,3.337,3.339c0,1.841-1.494,3.336-3.337,3.336c-1.844,0-3.337-1.495-3.337-3.336
	C147.894,82.204,149.387,80.71,151.23,80.71L151.23,80.71z M151.23,74.654L151.23,74.654c5.188,0,9.396,4.209,9.396,9.396
	c0,5.188-4.208,9.396-9.396,9.396s-9.396-4.208-9.396-9.396C141.835,78.863,146.043,74.654,151.23,74.654L151.23,74.654z
	 M173.163,75.271L173.163,75.271h4.609c0.541,0,0.631,0.445,0.199,0.989l-23.567,29.486c-0.436,0.545-1.237,0.991-1.782,0.991
	h-4.606c-0.545,0-0.634-0.445-0.199-0.991l23.564-29.486C171.819,75.716,172.617,75.271,173.163,75.271L173.163,75.271z
	 M106.361,47.951L106.361,47.951h2.312c0.909,0,1.652,0.745,1.652,1.652v3.961c0,0.908-0.743,1.65-1.652,1.65h-2.312
	c-0.907,0-1.649-0.743-1.649-1.65v-3.961C104.712,48.695,105.454,47.951,106.361,47.951L106.361,47.951z M67.15,90.325L67.15,90.325
	l0.008-2.311c0.002-0.907,0.749-1.648,1.656-1.646l3.961,0.015c0.91,0.004,1.65,0.749,1.648,1.656l-0.008,2.309
	c-0.004,0.909-0.749,1.648-1.656,1.646l-3.963-0.013C67.889,91.978,67.148,91.233,67.15,90.325L67.15,90.325z"/>
</svg>
