<?xml version="1.0" encoding="utf-8"?>
<!DOCTYPE svg PUBLIC "-//W3C//DTD SVG 1.1//EN" "http://www.w3.org/Graphics/SVG/1.1/DTD/svg11.dtd">
<svg version="1.1" xmlns="http://www.w3.org/2000/svg" xmlns:xlink="http://www.w3.org/1999/xlink" x="0px" y="0px" width="216px" height="216px" viewBox="0 0 216 216" enable-background="new 0 0 216 216" xml:space="preserve">
<path fill-rule="evenodd" clip-rule="evenodd" d="M16.119-0.08h183.602
	c8.912,0,16.199,7.29,16.199,16.199v183.602c0,8.907-7.287,16.198-16.199,16.198H16.119c-8.909,0-16.199-7.291-16.199-16.198V16.119
	C-0.08,7.21,7.21-0.08,16.119-0.08L16.119-0.08z M16.119,4.919h183.602c6.16,0,11.198,5.04,11.198,11.2v183.602
	c0,6.16-5.038,11.198-11.198,11.198H16.119c-6.16,0-11.2-5.038-11.2-11.198V16.119C4.919,9.958,9.958,4.919,16.119,4.919
	L16.119,4.919z M35.154,190.281h145.434v-19.561h5.795v26.002h-2.026v0.02H31.476v-0.004h-2.124l0.008-45.068h5.876L35.154,190.281
	L35.154,190.281z M29.368,94.537L29.368,94.537l0.004-19.987l4.875-2.592l1.162-0.623v7.162l-0.021,0.01l-0.032,16.03H29.368
	L29.368,94.537z M131.646,130.572L131.646,130.572h15.397v11.763h-15.397V130.572L131.646,130.572z M165.017,135.939
	L165.017,135.939h11.169l0.317-0.139c0.859-0.362,1.624-0.757,2.299-1.18c0.676-0.42,1.222-0.903,1.628-1.44
	c0.403-0.546,0.603-1.185,0.603-1.921c0-0.492-0.094-0.968-0.27-1.416c-0.183-0.447-0.455-0.826-0.825-1.139
	c-0.366-0.318-0.826-0.575-1.379-0.75c-0.546-0.183-1.189-0.271-1.925-0.271c-0.948,0-1.812,0.109-2.601,0.354
	c-0.789,0.228-1.485,0.48-2.083,0.773c-0.603,0.276-1.107,0.541-1.519,0.777c-0.41,0.239-0.711,0.357-0.902,0.357
	c-0.188,0-0.338-0.048-0.448-0.154c-0.118-0.098-0.203-0.265-0.256-0.484c-0.062-0.228-0.105-0.508-0.13-0.851
	c-0.029-0.341-0.037-0.765-0.037-1.257c0-0.448,0.008-0.826,0.016-1.123c0.021-0.302,0.054-0.545,0.098-0.749
	c0.046-0.19,0.086-0.351,0.147-0.473c0.064-0.125,0.179-0.264,0.354-0.438c0.167-0.167,0.517-0.387,1.054-0.644
	c0.537-0.252,1.144-0.492,1.827-0.695c0.684-0.208,1.425-0.366,2.214-0.488s1.583-0.175,2.364-0.175c1.526,0,2.979,0.19,4.337,0.586
	c1.363,0.395,2.552,0.992,3.553,1.79c1.005,0.793,1.806,1.803,2.396,3.003c0.59,1.217,0.887,2.62,0.887,4.211
	c0,1.396-0.204,2.584-0.614,3.585c-0.049,0.118-0.102,0.232-0.15,0.351h1.737c0.171,0,0.309,0.183,0.309,0.407v1.644
	c0,0.224-0.138,0.406-0.309,0.406h-23.86c-0.167,0-0.306-0.183-0.306-0.406v-1.644C164.711,136.122,164.85,135.939,165.017,135.939
	L165.017,135.939z M166.726,146.314L166.726,146.314c0,1.746,0.325,3.284,0.973,4.611c0.654,1.318,1.537,2.429,2.652,3.304
	c1.119,0.888,2.417,1.546,3.911,1.997c1.493,0.444,3.092,0.664,4.789,0.664c1.151,0,2.221-0.085,3.206-0.28
	c0.984-0.185,1.852-0.411,2.608-0.677c0.756-0.272,1.388-0.545,1.896-0.842c0.505-0.288,0.871-0.545,1.091-0.776
	c0.229-0.216,0.387-0.542,0.472-0.957c0.098-0.419,0.143-1.024,0.143-1.818c0-0.533-0.016-0.974-0.045-1.335
	c-0.032-0.357-0.098-0.655-0.162-0.875c-0.081-0.224-0.188-0.378-0.317-0.476c-0.123-0.098-0.276-0.139-0.447-0.139
	c-0.24,0-0.583,0.139-1.021,0.419c-0.432,0.281-0.993,0.599-1.688,0.939c-0.684,0.343-1.502,0.66-2.45,0.94
	c-0.956,0.281-2.055,0.424-3.313,0.424c-0.826,0-1.562-0.098-2.213-0.293c-0.646-0.199-1.205-0.484-1.66-0.843
	c-0.444-0.357-0.798-0.798-1.034-1.334c-0.248-0.538-0.361-1.123-0.361-1.775c0-0.756,0.203-1.402,0.614-1.944
	c0.415-0.542,0.947-1.025,1.607-1.437c0.435-0.276,0.911-0.549,1.424-0.801h11.479c0.171,0,0.309-0.185,0.309-0.411v-1.641
	c0-0.228-0.138-0.415-0.309-0.415h-23.86c-0.167,0-0.306,0.188-0.306,0.415v1.641c0,0.227,0.139,0.411,0.306,0.411h2.25
	C166.904,143.968,166.726,145.062,166.726,146.314L166.726,146.314z M130.214,112.235L130.214,112.235h62.378
	c4.439,0,8.073,3.636,8.073,8.074v37.867c0,4.442-3.634,8.077-8.073,8.077h-43.647c-0.09-0.7-0.262-1.385-0.509-2.048l-0.272-0.744
	c0.536-1.172,0.85-2.454,0.85-3.862c0-5.024-4.004-8.561-8.198-10.595c-4.811-2.34-10.657-3.268-15.967-3.268
	c-0.893,0-1.795,0.028-2.706,0.081V120.31C122.142,115.871,125.778,112.235,130.214,112.235L130.214,112.235z M180.768,71.396
	l2.262,1.216l3.354,1.789l-0.094,19.082c-1.803-3.309-3.69-4.875-5.583-5.835C180.739,83.142,180.768,76.676,180.768,71.396
	L180.768,71.396z"/>
</svg>
