<?xml version="1.0" encoding="utf-8"?>
<!DOCTYPE svg PUBLIC "-//W3C//DTD SVG 1.1//EN" "http://www.w3.org/Graphics/SVG/1.1/DTD/svg11.dtd">
<svg version="1.1" xmlns="http://www.w3.org/2000/svg" xmlns:xlink="http://www.w3.org/1999/xlink" x="0px" y="0px" width="216px" height="216px" viewBox="0 0 216 216" enable-background="new 0 0 216 216" xml:space="preserve">
<path fill-rule="evenodd" clip-rule="evenodd" d="M108.526,31.453c-3.357,0-6.083-2.968-6.083-6.625
	c0-3.658,2.726-6.622,6.083-6.622c3.36,0,6.087,2.964,6.087,6.622C114.613,28.484,111.887,31.453,108.526,31.453L108.526,31.453z
	 M135.675,108.14L135.675,108.14h22.021v14.808h-22.021V108.14L135.675,108.14z M60.532,108.14L60.532,108.14h22.025v14.808H60.532
	V108.14L60.532,108.14z M180.642,60.618L180.642,60.618c2.975,0,5.407,1.717,5.407,3.814v26.703c0,2.1-2.433,3.814-5.407,3.814
	s-5.408-1.715-5.408-3.814V64.432C175.233,62.334,177.667,60.618,180.642,60.618L180.642,60.618z M35.827,60.618L35.827,60.618
	h1.699c2.508,0,4.557,1.448,4.557,3.216v27.901c0,1.768-2.049,3.214-4.557,3.214h-1.699c-2.507,0-4.558-1.446-4.558-3.214V63.834
	C31.27,62.066,33.32,60.618,35.827,60.618L35.827,60.618z"/>
</svg>
