<?xml version="1.0" encoding="utf-8"?>
<!DOCTYPE svg PUBLIC "-//W3C//DTD SVG 1.1//EN" "http://www.w3.org/Graphics/SVG/1.1/DTD/svg11.dtd">
<svg version="1.1" xmlns="http://www.w3.org/2000/svg" xmlns:xlink="http://www.w3.org/1999/xlink" x="0px" y="0px" width="216px" height="216px" viewBox="0 0 216 216" enable-background="new 0 0 216 216" xml:space="preserve">
<path id="_x33_" fill-rule="evenodd" clip-rule="evenodd" fill="#F58031" d="M108.526,31.453c-3.357,0-6.083-2.968-6.083-6.625
	c0-3.658,2.726-6.622,6.083-6.622c3.36,0,6.087,2.964,6.087,6.622C114.613,28.484,111.887,31.453,108.526,31.453L108.526,31.453z
	 M135.675,108.14L135.675,108.14h22.021v14.808h-22.021V108.14L135.675,108.14z M60.532,108.14L60.532,108.14h22.025v14.808H60.532
	V108.14L60.532,108.14z M180.642,60.618L180.642,60.618c2.975,0,5.407,1.717,5.407,3.814v26.703c0,2.1-2.433,3.814-5.407,3.814
	s-5.408-1.715-5.408-3.814V64.432C175.233,62.334,177.667,60.618,180.642,60.618L180.642,60.618z M35.827,60.618L35.827,60.618
	h1.699c2.508,0,4.557,1.448,4.557,3.216v27.901c0,1.768-2.049,3.214-4.557,3.214h-1.699c-2.507,0-4.558-1.446-4.558-3.214V63.834
	C31.27,62.066,33.32,60.618,35.827,60.618L35.827,60.618z"/>
<path id="_x32_" fill-rule="evenodd" clip-rule="evenodd" fill="#999557" d="M16.119-0.08h183.602
	c8.911,0,16.199,7.29,16.199,16.199v183.602c0,8.907-7.288,16.199-16.199,16.199H16.119c-8.909,0-16.199-7.292-16.199-16.199V16.119
	C-0.08,7.209,7.209-0.08,16.119-0.08L16.119-0.08z M16.119,4.918h183.602c6.161,0,11.198,5.04,11.198,11.2v183.602
	c0,6.161-5.037,11.198-11.198,11.198H16.119c-6.161,0-11.2-5.037-11.2-11.198V16.119C4.918,9.958,9.958,4.918,16.119,4.918
	L16.119,4.918z M59.769,166.575h95.982v10.42l47.778,27.91h-45.097l-25.224-24.219l-49.612-0.005l-33.466,24.154l-37.205,0.012
	l46.843-27.335V166.575L59.769,166.575z M60.357,202.199L60.357,202.199h89.653l-4.041-4.158H65.745L60.357,202.199L60.357,202.199z
	"/>
<path id="_x31_" fill-rule="evenodd" clip-rule="evenodd" fill="#7E5628" d="M113.156,43.149l38.709,4.357v26.577l-38.875-4.281
	L113.156,43.149L113.156,43.149z M131.516,103.615L131.516,103.615h30.339v23.853h-30.339V103.615L131.516,103.615z M56.377,103.615
	L56.377,103.615h30.336v23.853H56.377V103.615L56.377,103.615z M43.69,83.463L43.69,83.463h9.717V35.52h9.525l2.08-6.046
	l32.039-10.187c1.858-4.946,6.413-8.441,11.739-8.441c5.583,0,10.323,3.847,11.992,9.176l30.77,10.866l2.653,4.632h8.024v47.943
	h11.015l0.203,48.814l-13.155,8.093l13.29,24.174H155.52H59.844H43.69l12.17-23.804l-12.17-7.356V83.463L43.69,83.463z
	 M64.42,47.507L64.42,47.507l39.022-4.357l-0.171,26.654l-38.79,3.392L64.42,47.507L64.42,47.507z M60.522,143.687L60.522,143.687
	h9.979l-7.57,16.557h-11.2L60.522,143.687L60.522,143.687z M75.233,143.687L75.233,143.687h8.077l-5.644,16.557H67.663
	L75.233,143.687L75.233,143.687z M88.042,143.687L88.042,143.687h6.625l-2.177,16.557H82.399L88.042,143.687L88.042,143.687z
	 M99.401,143.687L99.401,143.687h5.748v16.557h-7.927L99.401,143.687L99.401,143.687z M109.881,143.687L109.881,143.687h6.299
	l2.177,16.557h-8.476V143.687L109.881,143.687z M120.912,143.687L120.912,143.687h6.625l5.644,16.557h-10.092L120.912,143.687
	L120.912,143.687z M132.269,143.687L132.269,143.687h8.077l7.572,16.557h-10.006L132.269,143.687L132.269,143.687z M145.082,143.687
	L145.082,143.687h11.117l8.113,16.557H152.65L145.082,143.687L145.082,143.687z M108.144,110.256L108.144,110.256
	c6.258,0,11.332,5.366,11.332,11.987c0,6.616-5.074,11.983-11.332,11.983c-6.262,0-11.336-5.367-11.336-11.983
	C96.807,115.622,101.881,110.256,108.144,110.256L108.144,110.256z M108.526,35.131L108.526,35.131
	c-5.225,0-9.465-4.615-9.465-10.303c0-5.69,4.24-10.305,9.465-10.305c5.229,0,9.469,4.614,9.469,10.305
	C117.995,30.517,113.755,35.131,108.526,35.131L108.526,35.131z"/>
</svg>
