<?xml version="1.0" encoding="utf-8"?>
<!DOCTYPE svg PUBLIC "-//W3C//DTD SVG 1.1//EN" "http://www.w3.org/Graphics/SVG/1.1/DTD/svg11.dtd">
<svg version="1.1" xmlns="http://www.w3.org/2000/svg" xmlns:xlink="http://www.w3.org/1999/xlink" x="0px" y="0px" width="216px" height="216px" viewBox="0 0 216 216" enable-background="new 0 0 216 216" xml:space="preserve">
<path fill-rule="evenodd" clip-rule="evenodd" d="M113.156,43.149l38.709,4.357v26.577l-38.875-4.281
	L113.156,43.149L113.156,43.149z M131.516,103.615L131.516,103.615h30.339v23.853h-30.339V103.615L131.516,103.615z M56.377,103.615
	L56.377,103.615h30.336v23.853H56.377V103.615L56.377,103.615z M43.69,83.463L43.69,83.463h9.717V35.52h9.525l2.08-6.046
	l32.039-10.187c1.858-4.946,6.413-8.441,11.739-8.441c5.583,0,10.323,3.847,11.992,9.176l30.77,10.866l2.653,4.632h8.024v47.943
	h11.015l0.203,48.814l-13.155,8.093l13.29,24.174H155.52H59.844H43.69l12.17-23.804l-12.17-7.356V83.463L43.69,83.463z
	 M64.42,47.507L64.42,47.507l39.022-4.357l-0.171,26.654l-38.79,3.392L64.42,47.507L64.42,47.507z M60.522,143.687L60.522,143.687
	h9.979l-7.57,16.557h-11.2L60.522,143.687L60.522,143.687z M75.233,143.687L75.233,143.687h8.077l-5.644,16.557H67.663
	L75.233,143.687L75.233,143.687z M88.042,143.687L88.042,143.687h6.625l-2.177,16.557H82.399L88.042,143.687L88.042,143.687z
	 M99.401,143.687L99.401,143.687h5.748v16.557h-7.927L99.401,143.687L99.401,143.687z M109.881,143.687L109.881,143.687h6.299
	l2.177,16.557h-8.476V143.687L109.881,143.687z M120.912,143.687L120.912,143.687h6.625l5.644,16.557h-10.092L120.912,143.687
	L120.912,143.687z M132.269,143.687L132.269,143.687h8.077l7.572,16.557h-10.006L132.269,143.687L132.269,143.687z M145.082,143.687
	L145.082,143.687h11.117l8.113,16.557H152.65L145.082,143.687L145.082,143.687z M108.144,110.256L108.144,110.256
	c6.258,0,11.332,5.366,11.332,11.987c0,6.616-5.074,11.983-11.332,11.983c-6.262,0-11.336-5.367-11.336-11.983
	C96.807,115.622,101.881,110.256,108.144,110.256L108.144,110.256z M108.526,35.131L108.526,35.131
	c-5.225,0-9.465-4.615-9.465-10.303c0-5.69,4.24-10.305,9.465-10.305c5.229,0,9.469,4.614,9.469,10.305
	C117.995,30.517,113.755,35.131,108.526,35.131L108.526,35.131z"/>
</svg>
