<?xml version="1.0" encoding="utf-8"?>
<!DOCTYPE svg PUBLIC "-//W3C//DTD SVG 1.1//EN" "http://www.w3.org/Graphics/SVG/1.1/DTD/svg11.dtd">
<svg version="1.1" xmlns="http://www.w3.org/2000/svg" xmlns:xlink="http://www.w3.org/1999/xlink" x="0px" y="0px" width="216px" height="216px" viewBox="0 0 216 216" enable-background="new 0 0 216 216" xml:space="preserve">
<path fill-rule="evenodd" clip-rule="evenodd" d="M16.119-0.08h183.602
	c8.911,0,16.199,7.29,16.199,16.199v183.602c0,8.907-7.288,16.199-16.199,16.199H16.119c-8.909,0-16.199-7.292-16.199-16.199V16.119
	C-0.08,7.209,7.209-0.08,16.119-0.08L16.119-0.08z M16.119,4.918h183.602c6.161,0,11.198,5.04,11.198,11.2v183.602
	c0,6.161-5.037,11.198-11.198,11.198H16.119c-6.161,0-11.2-5.037-11.2-11.198V16.119C4.918,9.958,9.958,4.918,16.119,4.918
	L16.119,4.918z M191.514,177.703h-9.273c-2.812-10.827-12.654-18.818-24.365-18.818c-7.186,0-13.676,3.019-18.262,7.856
	c-4.769-5.354-11.715-8.731-19.454-8.731c-12.183,0-22.42,8.386-25.256,19.693h-14.17c-2.838-11.312-13.069-19.693-25.262-19.693
	c-12.187,0-22.424,8.386-25.263,19.693H22.25c-3.218,0-5.849-3.08-5.849-6.299v-44.474v-10.352l24.207-35.983
	c1.791-2.667,2.639-5.857,5.845-5.847l28.809,0.102v45.719c0,10.539,8.551,19.092,19.092,19.092h103.004v32.194
	C197.357,175.066,194.725,177.703,191.514,177.703L191.514,177.703z M61.22,85.546L61.22,85.546H50.478
	c-1.361,0-1.752,1.324-2.474,2.472L29.85,117.034c-0.722,1.147,1.117,2.475,2.476,2.475H61.22c1.361,0,2.474-1.115,2.474-2.475
	V88.018C63.694,86.659,62.583,85.546,61.22,85.546L61.22,85.546z"/>
</svg>
