<?xml version="1.0" encoding="utf-8"?>
<!DOCTYPE svg PUBLIC "-//W3C//DTD SVG 1.1//EN" "http://www.w3.org/Graphics/SVG/1.1/DTD/svg11.dtd">
<svg version="1.1" xmlns="http://www.w3.org/2000/svg" xmlns:xlink="http://www.w3.org/1999/xlink" x="0px" y="0px" width="216px" height="216px" viewBox="0 0 216 216" enable-background="new 0 0 216 216" xml:space="preserve">
<path id="_x33_" fill-rule="evenodd" clip-rule="evenodd" fill="#F58031" d="M188.275,17.797H98.87c-5.375,0-9.778,4.401-9.778,9.78
	v89.4c0,5.379,4.403,9.778,9.778,9.778h35.503V56.735h-27.23V41.198h72.938v15.537h-27.157v70.021h35.353
	c5.375,0,9.773-4.399,9.773-9.778v-89.4C198.049,22.198,193.65,17.797,188.275,17.797L188.275,17.797z"/>
<path id="_x32_" fill-rule="evenodd" clip-rule="evenodd" fill="#999557" d="M16.119-0.08h183.602
	c8.911,0,16.199,7.29,16.199,16.199v183.602c0,8.907-7.288,16.199-16.199,16.199H16.119c-8.909,0-16.199-7.292-16.199-16.199V16.119
	C-0.08,7.209,7.209-0.08,16.119-0.08L16.119-0.08z M16.119,4.918h183.602c6.161,0,11.198,5.04,11.198,11.2v183.602
	c0,6.161-5.037,11.198-11.198,11.198H16.119c-6.161,0-11.2-5.037-11.2-11.198V16.119C4.918,9.958,9.958,4.918,16.119,4.918
	L16.119,4.918z M191.514,177.703h-9.273c-2.812-10.827-12.654-18.818-24.365-18.818c-7.186,0-13.676,3.019-18.262,7.856
	c-4.769-5.354-11.715-8.731-19.454-8.731c-12.183,0-22.42,8.386-25.256,19.693h-14.17c-2.838-11.312-13.069-19.693-25.262-19.693
	c-12.187,0-22.424,8.386-25.263,19.693H22.25c-3.218,0-5.849-3.08-5.849-6.299v-44.474v-10.352l24.207-35.983
	c1.791-2.667,2.639-5.857,5.845-5.847l28.809,0.102v45.719c0,10.539,8.551,19.092,19.092,19.092h103.004v32.194
	C197.357,175.066,194.725,177.703,191.514,177.703L191.514,177.703z M61.22,85.546L61.22,85.546H50.478
	c-1.361,0-1.752,1.324-2.474,2.472L29.85,117.034c-0.722,1.147,1.117,2.475,2.476,2.475H61.22c1.361,0,2.474-1.115,2.474-2.475
	V88.018C63.694,86.659,62.583,85.546,61.22,85.546L61.22,85.546z"/>
<path id="_x31_" fill-rule="evenodd" clip-rule="evenodd" fill="#7E5628" d="M157.875,200.604c9.147,0,16.553-7.41,16.553-16.545
	c0-9.144-7.405-16.549-16.553-16.549c-9.131,0-16.54,7.405-16.54,16.549C141.335,193.194,148.744,200.604,157.875,200.604
	L157.875,200.604z M55.47,190.977L55.47,190.977c3.825,0,6.917-3.101,6.917-6.917c0-3.825-3.093-6.918-6.917-6.918
	c-3.817,0-6.919,3.093-6.919,6.918C48.551,187.876,51.653,190.977,55.47,190.977L55.47,190.977z M120.074,190.977L120.074,190.977
	c3.829,0,6.921-3.101,6.921-6.917c0-3.825-3.092-6.918-6.921-6.918c-3.817,0-6.918,3.093-6.918,6.918
	C113.156,187.876,116.257,190.977,120.074,190.977L120.074,190.977z M158.152,190.977L158.152,190.977
	c3.828,0,6.921-3.101,6.921-6.917c0-3.825-3.093-6.918-6.921-6.918c-3.817,0-6.918,3.093-6.918,6.918
	C151.234,187.876,154.335,190.977,158.152,190.977L158.152,190.977z M120.159,200.604L120.159,200.604
	c9.147,0,16.549-7.41,16.549-16.545c0-9.144-7.401-16.549-16.549-16.549c-9.129,0-16.544,7.405-16.544,16.549
	C103.615,193.194,111.03,200.604,120.159,200.604L120.159,200.604z M55.47,200.604L55.47,200.604c9.145,0,16.549-7.41,16.549-16.545
	c0-9.144-7.404-16.549-16.549-16.549c-9.131,0-16.549,7.405-16.549,16.549C38.921,193.194,46.339,200.604,55.47,200.604
	L55.47,200.604z"/>
</svg>
