<?xml version="1.0" encoding="utf-8"?>
<!DOCTYPE svg PUBLIC "-//W3C//DTD SVG 1.1//EN" "http://www.w3.org/Graphics/SVG/1.1/DTD/svg11.dtd">
<svg version="1.1" xmlns="http://www.w3.org/2000/svg" xmlns:xlink="http://www.w3.org/1999/xlink" x="0px" y="0px" width="216px" height="216px" viewBox="0 0 216 216" enable-background="new 0 0 216 216" xml:space="preserve">
<path fill-rule="evenodd" clip-rule="evenodd" d="M60.428,14.857h33.508v34.444l11.172-6.452l0.105,1.563
	c0.661,10.095,8.366,18.589,18.758,18.589h11.153c0.814,0,1.607-0.053,2.368-0.155L110.69,78.322l29.826,17.222l-16.516,28.611
	h-0.944l-29.12-16.815v16.86l-8.594,0.012c-6.071-0.15-8.646,2.246-8.887,8.175l-0.002,0.053l-0.008,9.343h-9.843
	c0.856-7.854,0.909-15.816,0.285-23.637c1.437-0.574,2.484-1.722,2.484-3.438c0-2.698-1.925-3.927-1.925-4.853
	c0-2.266-1.963-4.456-4.339-4.02c-9.64,1.772-17.084,1.634-26.758,0.132c-2.311-0.358-4.276,1.627-4.276,3.888
	c0,0.58-0.177,0.903-0.434,1.408c-0.61,1.198-0.948,2.167-0.948,3.542c0,1.904,1.298,3.142,2.984,3.617
	c-0.116,1.502-0.203,3.007-0.269,4.517l-2.81,1.624L13.842,95.544l29.83-17.222L13.842,61.1l16.756-29.021l29.83,17.223V14.857
	L60.428,14.857z M117.922,35.455L117.922,35.455l0.374-0.22c0.773-0.407,1.647-0.635,2.571-0.635h4.354l10.433,18.073
	c-4.411,0.934-10.01,0.923-14.314-0.051c-2.975-0.667-6.039-2.661-6.039-6.021v-6.443C115.301,38.185,116.354,36.441,117.922,35.455
	L117.922,35.455z M81.435,112.746L81.435,112.746v3.381c0.527-0.603,1.406-1.021,1.579-1.803c0.171-0.769,0.027-1.906-0.675-2.256
	l-0.903-0.452V112.746L81.435,112.746z M72.416,98.089L72.416,98.089c-0.12,0.849,0.148,4.059,1.581,4.059h0.224l-0.224-6.089
	C73.282,96.547,72.532,97.296,72.416,98.089L72.416,98.089z M71.74,58.404L71.74,58.404c-0.519,2.598,0.482,3.854,2.48,5.184v-9.017
	C72.056,56.02,72.171,56.386,71.74,58.404L71.74,58.404z M81.435,80.051L81.435,80.051v1.127v3.381l0.903-0.228
	c1.705-0.395,3.678-1.748,3.833-3.605L85.945,79.6l-1.577-1.353l-0.903-0.452l-2.03-0.676V80.051L81.435,80.051z M76.865,53.218
	L76.865,53.218l-2.484,1.127c2.407,0.401,4.631,1.096,6.989,1.587c0.006,3.831,0.004,7.66,0.004,11.491l0.45,0.226
	c5.505,2.065,9.871,4.185,12.628,9.696l0.226,4.057c0,10.03-12.661,10.502-19.167,13.755l-1.129,0.676l1.581,0.226
	c2.042,0.204,3.475,0.708,5.416,1.335c-0.028,2.936-0.004,5.875-0.004,8.813l0.45,0.224l0.675,0.452l1.805,1.353l0.903,0.901
	l1.127,2.026l0.224,0.905c0.932,1.938-0.563,4.063-1.52,5.015c-1.854,1.855-2.921,1.514-3.587,1.929
	c-0.071,0.395-0.118,1.273-0.118,2.124c-0.043,1.823-1.457,2.775-3.496,2.739c-2.041-0.037-3.609-1.01-3.615-2.95l-0.065-12.012
	l-1.579-0.677c-4.765-3.575-8.563-7.155-6.087-13.755c0.586-2.511,3.973-4.968,6.087-6.087l1.575-0.909l0.228-8.785l6.317-1.579
	l0.447-0.226c-3.587-1.196-7.094-2.6-10.37-4.508c-3.729-2.177-7.155-5.811-8.118-10.15c-0.926-4.163,1.699-11.922,5.863-13.753
	l5.636-2.48c0-4.181-0.554-7.306,3.737-7.098c3.451,0.168,3.485,1.678,3.479,5.07V45.1c0.305,0.761,0.968,0.678,2.028,0.678
	c1.542,0.382,5.638,1.064,5.638,3.155C89.04,51.027,79.29,52.176,76.865,53.218L76.865,53.218z M203.388,164.671L203.388,164.671
	v6.001h-4.298v-6.001H203.388L203.388,164.671z M191.082,164.605L191.082,164.605H85.02v2.905h106.063V164.605L191.082,164.605z
	 M152.354,149.232L152.354,149.232v-6.962h-5.273v-5.27h-6.954v5.27h-5.273v6.962h5.273v5.27h6.954v-5.27H152.354L152.354,149.232z
	 M165.163,116.343L165.163,116.343h-5.53c-1.762,0-3.198,1.44-3.198,3.202v4.655c0,0.057,0,0.105,0.004,0.158h11.919
	c0-0.053,0.004-0.102,0.004-0.158v-4.655C168.361,117.783,166.921,116.343,165.163,116.343L165.163,116.343z"/>
</svg>
