<?xml version="1.0" encoding="utf-8"?>
<!DOCTYPE svg PUBLIC "-//W3C//DTD SVG 1.1//EN" "http://www.w3.org/Graphics/SVG/1.1/DTD/svg11.dtd">
<svg version="1.1" xmlns="http://www.w3.org/2000/svg" xmlns:xlink="http://www.w3.org/1999/xlink" x="0px" y="0px" width="216px" height="216px" viewBox="0 0 216 216" enable-background="new 0 0 216 216" xml:space="preserve">
<path fill-rule="evenodd" clip-rule="evenodd" d="M123.562,26.556h11.088c1.778,0,3.585,0.26,5.322,0.749
	l-0.045-0.083l0.505,0.222c1.001,0.311,1.981,0.702,2.913,1.164c5.652,2.042,10.579,2.502,15.475,1.709v3.229
	c-1.038,0.706-1.668,1.983-1.668,3.306v1.915l-0.892,0.545c-0.509-1.632-1.343-2.7-2.295-2.7c-1.277,0-2.36,1.947-2.689,4.602
	h-0.017c-0.036,0.378-0.081,0.763-0.154,1.151l-0.33,1.807c-1.578,8.681-6.827,16.109-15.649,16.109h-11.153
	c-8.825,0-15.466-7.239-16.044-16.044l-0.13-2.004c-0.134-2.041-1.318-5.446-2.551-6.728l-0.085-0.091
	c-0.942-0.779-1.516-1.811-1.516-2.944c0-1.807,1.46-3.359,3.554-4.038l0.13-0.057C111.903,26.43,119.269,26.556,123.562,26.556
	L123.562,26.556z M167.295,27.51L167.295,27.51c1.937-0.625,3.983-0.954,5.994-0.954h11.084c4.297,0,11.661-0.126,16.231,1.817
	l0.13,0.057c2.096,0.679,3.557,2.231,3.557,4.038c0,1.133-0.574,2.165-1.514,2.944l-0.09,0.091
	c-1.233,1.282-2.413,4.688-2.547,6.728l-0.131,2.004c-0.582,8.806-7.223,16.044-16.048,16.044h-9.978v-4.557
	c4.143,0.563,9.074,0.492,13.217-0.446c4.443-0.999,8.149-4.12,8.149-8.675v-6.443c0-4.555-3.727-8.28-8.28-8.28h-15.91
	c-1.396,0-2.71,0.35-3.865,0.964V27.51L167.295,27.51z M120.867,31.878L120.867,31.878h15.91c4.553,0,8.28,3.727,8.28,8.28v1.054
	v2.364c0,4.558-3.593,10.492-8.02,11.572c-4.578,1.117-11.064,1.314-16.301,0.128c-4.443-0.999-8.154-4.12-8.154-8.675v-6.443
	C112.583,35.603,116.314,31.878,120.867,31.878L120.867,31.878z M163.755,110.412L163.755,110.412h-2.201v3.872h2.201V110.412
	L163.755,110.412z M173.936,115.154L173.936,115.154l-1.636-1.477l-2.592,2.877l1.636,1.473L173.936,115.154L173.936,115.154z
	 M150.042,115.154L150.042,115.154l1.641-1.477l2.592,2.877l-1.636,1.473L150.042,115.154L150.042,115.154z M106.262,201.516
	L106.262,201.516c-6.283,0-11.365-5.086-11.365-11.365c0-6.274,5.082-11.364,11.365-11.364c6.272,0,11.362,5.09,11.362,11.364
	C117.624,196.43,112.534,201.516,106.262,201.516L106.262,201.516z M176.593,194.903L176.593,194.903
	c-2.625,0-4.749-2.128-4.749-4.753c0-2.624,2.124-4.748,4.749-4.748c2.624,0,4.753,2.124,4.753,4.748
	C181.346,192.775,179.217,194.903,176.593,194.903L176.593,194.903z M106.072,194.903L106.072,194.903
	c-2.626,0-4.752-2.128-4.752-4.753c0-2.624,2.126-4.748,4.752-4.748c2.621,0,4.753,2.124,4.753,4.748
	C110.825,192.775,108.693,194.903,106.072,194.903L106.072,194.903z M176.593,201.516L176.593,201.516
	c-6.278,0-11.365-5.086-11.365-11.365c0-6.274,5.087-11.364,11.365-11.364c6.274,0,11.364,5.09,11.364,11.364
	C187.957,196.43,182.867,201.516,176.593,201.516L176.593,201.516z M63.775,108.286L63.775,108.286
	c-10.311,1.597-17.613,1.681-27.543-0.143c-0.847-0.159-1.569,0.849-1.569,1.711c0,2.236-1.927,2.614-1.927,4.853
	c0,0.862,0.727,1.249,1.571,1.424c0.358,0.077,0.718,0.15,1.078,0.22c-1.074,11.337-0.569,21.392,0.729,29.899
	c3.876,2.186,6.502,6.352,6.49,11.101l-0.033,11.768c1.451,3.182,2.848,5.48,3.937,6.799v16.231l-1.927,1.75
	c-0.464,0.423-1.142,0.517-1.142,1.144v4.565c0,0.631,0.513,1.144,1.142,1.144h9.705c0.626,0,1.139-0.513,1.139-1.144v-4.777
	c0-0.631-0.667-0.732-1.139-1.144l-2.071-1.803v-15.836c4.486-5.542,14.337-27.503,11.354-59.538
	c0.529-0.09,1.058-0.184,1.587-0.281c0.849-0.154,1.569-0.562,1.569-1.424c0-2.238-1.383-2.714-1.383-4.95
	C65.342,108.99,64.627,108.154,63.775,108.286L63.775,108.286z M41.727,117.287L41.727,117.287
	c5.119,0.521,10.321,0.513,15.493,0.04c3.805,28.691-3.23,45.04-7.733,53.174h-0.031C44.95,162.363,37.91,146.006,41.727,117.287
	L41.727,117.287z M55.507,138.779L55.507,138.779H43.462c-1.316,0-2.395,1.078-2.395,2.396s1.078,2.396,2.395,2.396h12.044
	c1.32,0,2.398-1.078,2.398-2.396S56.827,138.779,55.507,138.779L55.507,138.779z"/>
</svg>
