<?xml version="1.0" encoding="utf-8"?>
<!DOCTYPE svg PUBLIC "-//W3C//DTD SVG 1.1//EN" "http://www.w3.org/Graphics/SVG/1.1/DTD/svg11.dtd">
<svg version="1.1" xmlns="http://www.w3.org/2000/svg" xmlns:xlink="http://www.w3.org/1999/xlink" x="0px" y="0px" width="216px" height="216px" viewBox="0 0 216 216" enable-background="new 0 0 216 216" xml:space="preserve">
<path fill-rule="evenodd" clip-rule="evenodd" d="M16.119-0.08h183.602
	c8.911,0,16.199,7.29,16.199,16.199v183.602c0,8.907-7.288,16.199-16.199,16.199H16.119c-8.909,0-16.199-7.292-16.199-16.199V16.119
	C-0.08,7.209,7.209-0.08,16.119-0.08L16.119-0.08z M16.119,4.918h183.602c6.161,0,11.198,5.04,11.198,11.2v183.602
	c0,6.161-5.037,11.198-11.198,11.198H16.119c-6.161,0-11.2-5.037-11.2-11.198V16.119C4.918,9.958,9.958,4.918,16.119,4.918
	L16.119,4.918z M161.488,17.824l3.138-3.501v21.326h0.602c0.477,0,0.863,0.541,0.863,1.202v3.188l4.37,2.763
	c0.479,0.303,0.858,0.75,0.858,1.489v42.771h4.305c0.732,0,1.339,0.842,1.339,1.868v1.524c0,1.027-0.606,1.868-1.339,1.868h-9.745
	v11.344h3.341c0.46,0,0.834,0.523,0.834,1.166v1.167c0,0.643-0.374,1.168-0.834,1.168h-13.155c-0.46,0-0.838-0.525-0.838-1.168
	v-1.167c0-0.643,0.378-1.166,0.838-1.166h3.544V92.321h-9.533c-0.736,0-1.339-0.84-1.339-1.868V88.93
	c0-1.025,0.603-1.868,1.339-1.868h3.678V44.728c0-0.739,0.48-1.048,0.961-1.343l5.103-3.127V36.85c0-0.661,0.387-1.202,0.862-1.202
	h0.81V17.824L161.488,17.824z M164.829,70.119L164.829,70.119h4.188v-2.926c0-0.48-0.281-0.873-0.627-0.873h-10.665
	c-0.346,0-0.627,0.393-0.627,0.873v19.58c0,0.482,0.281,0.875,0.627,0.875h10.665c0.346,0,0.627-0.393,0.627-0.875v-2.061h-4.188
	c-0.456,0-0.834-0.522-0.834-1.159v-0.896c0-0.637,0.378-1.16,0.834-1.16h4.188v-2.476h-4.188c-0.456,0-0.834-0.521-0.834-1.16
	v-0.895c0-0.637,0.378-1.158,0.834-1.158h4.188v-2.476h-4.188c-0.456,0-0.834-0.522-0.834-1.162v-0.893
	C163.995,70.64,164.373,70.119,164.829,70.119L164.829,70.119z M83.162,185.789L83.162,185.789h6.221
	c0.482-7.292,8.547-13.628,16.589-13.652c9.983-0.036,17.458,7.32,17.649,13.652h35.62c1.949-7.768,8.977-13.525,17.351-13.525
	c8.37,0,15.401,5.758,17.351,13.525h5.469c2.205,0,4.016-2.116,4.016-4.326v-8.284h-5.42c-0.785,0-1.424-0.838-1.424-1.859v-7.296
	c0-1.021,0.639-1.859,1.424-1.859h5.42v-2.137c0-0.887,0-1.782,0-2.673c0-1.961-0.342-2.145-1.656-3.626l-20.206-22.843
	c-0.614-0.92-1.652-1.925-2.227-2.702c-0.573-0.773-1.704-1.392-2.808-1.392l-91.223,0.143c-5.265-0.143-5.983,1.867-6.134,5.563
	l-0.026,38.952v10.323C79.148,183.979,80.955,185.789,83.162,185.789L83.162,185.789z M193.968,161.875L193.968,161.875H81.667
	v8.724h112.301V161.875L193.968,161.875z M167.409,134.279L167.409,134.279h6.722c0.936,0,1.855,0.911,2.352,1.7l17.709,19.931
	c0.496,0.789-0.77,1.696-1.701,1.696h-25.077c-0.932,0-1.701-0.765-1.701-1.696l-0.004-19.931
	C165.708,135.048,166.473,134.279,167.409,134.279L167.409,134.279z M119.736,134.678L119.736,134.678h-24.99
	c-1.201,0-2.179,0.98-2.179,2.177v18.16c0,1.2,0.979,2.181,2.179,2.181h24.99c1.196,0,2.177-0.98,2.177-2.181v-18.16
	C121.913,135.658,120.933,134.678,119.736,134.678L119.736,134.678z M156.064,134.678L156.064,134.678h-24.992
	c-1.196,0-2.181,0.98-2.181,2.177v18.16c0,1.2,0.984,2.181,2.181,2.181h24.992c1.196,0,2.177-0.98,2.177-2.181v-18.16
	C158.241,135.658,157.261,134.678,156.064,134.678L156.064,134.678z M29.748,189.472L29.748,189.472
	c-3.457-1.16-5.868-3.712-5.862-6.646l0.029-9.794l3.631,0.008l-0.026,9.799c-0.002,1.403,0.867,2.673,2.236,3.532L29.748,189.472
	L29.748,189.472z M23.483,169.744L23.483,169.744l12.785,0.033l0.035-12.443c0.01-3.516-2.861-6.4-6.378-6.413
	c-3.516-0.008-6.4,2.861-6.409,6.377L23.483,169.744L23.483,169.744z M29.813,193.271L29.813,193.271l0.122-45.983
	c5.516,0.016,10.016,4.541,10,10.054l-0.033,12.447l-0.034,13.485C39.851,188.788,35.329,193.288,29.813,193.271
	c-5.514-0.012-10.014-4.537-10-10.051l0.037-13.484l0.032-12.447c0.014-5.514,4.539-10.014,10.053-10.001L29.813,193.271
	L29.813,193.271z"/>
</svg>
