<?xml version="1.0" encoding="utf-8"?>
<!DOCTYPE svg PUBLIC "-//W3C//DTD SVG 1.1//EN" "http://www.w3.org/Graphics/SVG/1.1/DTD/svg11.dtd">
<svg version="1.1" xmlns="http://www.w3.org/2000/svg" xmlns:xlink="http://www.w3.org/1999/xlink" x="0px" y="0px" width="216px" height="216px" viewBox="0 0 216 216" enable-background="new 0 0 216 216" xml:space="preserve">
<path id="_x33_" fill-rule="evenodd" clip-rule="evenodd" fill="#F58031" d="M60.428,14.857h33.508v34.444l11.172-6.452l0.105,1.563
	c0.661,10.095,8.366,18.589,18.758,18.589h11.153c0.814,0,1.607-0.053,2.368-0.155L110.69,78.322l29.826,17.222l-16.516,28.611
	h-0.944l-29.12-16.815v16.86l-8.594,0.012c-6.071-0.15-8.646,2.246-8.887,8.175l-0.002,0.053l-0.008,9.343h-9.843
	c0.856-7.854,0.909-15.816,0.285-23.637c1.437-0.574,2.484-1.722,2.484-3.438c0-2.698-1.925-3.927-1.925-4.853
	c0-2.266-1.963-4.456-4.339-4.02c-9.64,1.772-17.084,1.634-26.758,0.132c-2.311-0.358-4.276,1.627-4.276,3.888
	c0,0.58-0.177,0.903-0.434,1.408c-0.61,1.198-0.948,2.167-0.948,3.542c0,1.904,1.298,3.142,2.984,3.617
	c-0.116,1.502-0.203,3.007-0.269,4.517l-2.81,1.624L13.842,95.544l29.83-17.222L13.842,61.1l16.756-29.021l29.83,17.223V14.857
	L60.428,14.857z M117.922,35.455L117.922,35.455l0.374-0.22c0.773-0.407,1.647-0.635,2.571-0.635h4.354l10.433,18.073
	c-4.411,0.934-10.01,0.923-14.314-0.051c-2.975-0.667-6.039-2.661-6.039-6.021v-6.443C115.301,38.185,116.354,36.441,117.922,35.455
	L117.922,35.455z M81.435,112.746L81.435,112.746v3.381c0.527-0.603,1.406-1.021,1.579-1.803c0.171-0.769,0.027-1.906-0.675-2.256
	l-0.903-0.452V112.746L81.435,112.746z M72.416,98.089L72.416,98.089c-0.12,0.849,0.148,4.059,1.581,4.059h0.224l-0.224-6.089
	C73.282,96.547,72.532,97.296,72.416,98.089L72.416,98.089z M71.74,58.404L71.74,58.404c-0.519,2.598,0.482,3.854,2.48,5.184v-9.017
	C72.056,56.02,72.171,56.386,71.74,58.404L71.74,58.404z M81.435,80.051L81.435,80.051v1.127v3.381l0.903-0.228
	c1.705-0.395,3.678-1.748,3.833-3.605L85.945,79.6l-1.577-1.353l-0.903-0.452l-2.03-0.676V80.051L81.435,80.051z M76.865,53.218
	L76.865,53.218l-2.484,1.127c2.407,0.401,4.631,1.096,6.989,1.587c0.006,3.831,0.004,7.66,0.004,11.491l0.45,0.226
	c5.505,2.065,9.871,4.185,12.628,9.696l0.226,4.057c0,10.03-12.661,10.502-19.167,13.755l-1.129,0.676l1.581,0.226
	c2.042,0.204,3.475,0.708,5.416,1.335c-0.028,2.936-0.004,5.875-0.004,8.813l0.45,0.224l0.675,0.452l1.805,1.353l0.903,0.901
	l1.127,2.026l0.224,0.905c0.932,1.938-0.563,4.063-1.52,5.015c-1.854,1.855-2.921,1.514-3.587,1.929
	c-0.071,0.395-0.118,1.273-0.118,2.124c-0.043,1.823-1.457,2.775-3.496,2.739c-2.041-0.037-3.609-1.01-3.615-2.95l-0.065-12.012
	l-1.579-0.677c-4.765-3.575-8.563-7.155-6.087-13.755c0.586-2.511,3.973-4.968,6.087-6.087l1.575-0.909l0.228-8.785l6.317-1.579
	l0.447-0.226c-3.587-1.196-7.094-2.6-10.37-4.508c-3.729-2.177-7.155-5.811-8.118-10.15c-0.926-4.163,1.699-11.922,5.863-13.753
	l5.636-2.48c0-4.181-0.554-7.306,3.737-7.098c3.451,0.168,3.485,1.678,3.479,5.07V45.1c0.305,0.761,0.968,0.678,2.028,0.678
	c1.542,0.382,5.638,1.064,5.638,3.155C89.04,51.027,79.29,52.176,76.865,53.218L76.865,53.218z M203.388,164.671L203.388,164.671
	v6.001h-4.298v-6.001H203.388L203.388,164.671z M191.082,164.605L191.082,164.605H85.02v2.905h106.063V164.605L191.082,164.605z
	 M152.354,149.232L152.354,149.232v-6.962h-5.273v-5.27h-6.954v5.27h-5.273v6.962h5.273v5.27h6.954v-5.27H152.354L152.354,149.232z
	 M165.163,116.343L165.163,116.343h-5.53c-1.762,0-3.198,1.44-3.198,3.202v4.655c0,0.057,0,0.105,0.004,0.158h11.919
	c0-0.053,0.004-0.102,0.004-0.158v-4.655C168.361,117.783,166.921,116.343,165.163,116.343L165.163,116.343z"/>
<path id="_x32_" fill-rule="evenodd" clip-rule="evenodd" fill="#999557" d="M16.119-0.08h183.602
	c8.911,0,16.199,7.29,16.199,16.199v183.602c0,8.907-7.288,16.199-16.199,16.199H16.119c-8.909,0-16.199-7.292-16.199-16.199V16.119
	C-0.08,7.209,7.209-0.08,16.119-0.08L16.119-0.08z M16.119,4.918h183.602c6.161,0,11.198,5.04,11.198,11.2v183.602
	c0,6.161-5.037,11.198-11.198,11.198H16.119c-6.161,0-11.2-5.037-11.2-11.198V16.119C4.918,9.958,9.958,4.918,16.119,4.918
	L16.119,4.918z M161.488,17.824l3.138-3.501v21.326h0.602c0.477,0,0.863,0.541,0.863,1.202v3.188l4.37,2.763
	c0.479,0.303,0.858,0.75,0.858,1.489v42.771h4.305c0.732,0,1.339,0.842,1.339,1.868v1.524c0,1.027-0.606,1.868-1.339,1.868h-9.745
	v11.344h3.341c0.46,0,0.834,0.523,0.834,1.166v1.167c0,0.643-0.374,1.168-0.834,1.168h-13.155c-0.46,0-0.838-0.525-0.838-1.168
	v-1.167c0-0.643,0.378-1.166,0.838-1.166h3.544V92.321h-9.533c-0.736,0-1.339-0.84-1.339-1.868V88.93
	c0-1.025,0.603-1.868,1.339-1.868h3.678V44.728c0-0.739,0.48-1.048,0.961-1.343l5.103-3.127V36.85c0-0.661,0.387-1.202,0.862-1.202
	h0.81V17.824L161.488,17.824z M164.829,70.119L164.829,70.119h4.188v-2.926c0-0.48-0.281-0.873-0.627-0.873h-10.665
	c-0.346,0-0.627,0.393-0.627,0.873v19.58c0,0.482,0.281,0.875,0.627,0.875h10.665c0.346,0,0.627-0.393,0.627-0.875v-2.061h-4.188
	c-0.456,0-0.834-0.522-0.834-1.159v-0.896c0-0.637,0.378-1.16,0.834-1.16h4.188v-2.476h-4.188c-0.456,0-0.834-0.521-0.834-1.16
	v-0.895c0-0.637,0.378-1.158,0.834-1.158h4.188v-2.476h-4.188c-0.456,0-0.834-0.522-0.834-1.162v-0.893
	C163.995,70.64,164.373,70.119,164.829,70.119L164.829,70.119z M83.162,185.789L83.162,185.789h6.221
	c0.482-7.292,8.547-13.628,16.589-13.652c9.983-0.036,17.458,7.32,17.649,13.652h35.62c1.949-7.768,8.977-13.525,17.351-13.525
	c8.37,0,15.401,5.758,17.351,13.525h5.469c2.205,0,4.016-2.116,4.016-4.326v-8.284h-5.42c-0.785,0-1.424-0.838-1.424-1.859v-7.296
	c0-1.021,0.639-1.859,1.424-1.859h5.42v-2.137c0-0.887,0-1.782,0-2.673c0-1.961-0.342-2.145-1.656-3.626l-20.206-22.843
	c-0.614-0.92-1.652-1.925-2.227-2.702c-0.573-0.773-1.704-1.392-2.808-1.392l-91.223,0.143c-5.265-0.143-5.983,1.867-6.134,5.563
	l-0.026,38.952v10.323C79.148,183.979,80.955,185.789,83.162,185.789L83.162,185.789z M193.968,161.875L193.968,161.875H81.667
	v8.724h112.301V161.875L193.968,161.875z M167.409,134.279L167.409,134.279h6.722c0.936,0,1.855,0.911,2.352,1.7l17.709,19.931
	c0.496,0.789-0.77,1.696-1.701,1.696h-25.077c-0.932,0-1.701-0.765-1.701-1.696l-0.004-19.931
	C165.708,135.048,166.473,134.279,167.409,134.279L167.409,134.279z M119.736,134.678L119.736,134.678h-24.99
	c-1.201,0-2.179,0.98-2.179,2.177v18.16c0,1.2,0.979,2.181,2.179,2.181h24.99c1.196,0,2.177-0.98,2.177-2.181v-18.16
	C121.913,135.658,120.933,134.678,119.736,134.678L119.736,134.678z M156.064,134.678L156.064,134.678h-24.992
	c-1.196,0-2.181,0.98-2.181,2.177v18.16c0,1.2,0.984,2.181,2.181,2.181h24.992c1.196,0,2.177-0.98,2.177-2.181v-18.16
	C158.241,135.658,157.261,134.678,156.064,134.678L156.064,134.678z M29.748,189.472L29.748,189.472
	c-3.457-1.16-5.868-3.712-5.862-6.646l0.029-9.794l3.631,0.008l-0.026,9.799c-0.002,1.403,0.867,2.673,2.236,3.532L29.748,189.472
	L29.748,189.472z M23.483,169.744L23.483,169.744l12.785,0.033l0.035-12.443c0.01-3.516-2.861-6.4-6.378-6.413
	c-3.516-0.008-6.4,2.861-6.409,6.377L23.483,169.744L23.483,169.744z M29.813,193.271L29.813,193.271l0.122-45.983
	c5.516,0.016,10.016,4.541,10,10.054l-0.033,12.447l-0.034,13.485C39.851,188.788,35.329,193.288,29.813,193.271
	c-5.514-0.012-10.014-4.537-10-10.051l0.037-13.484l0.032-12.447c0.014-5.514,4.539-10.014,10.053-10.001L29.813,193.271
	L29.813,193.271z"/>
<path id="_x31_" fill-rule="evenodd" clip-rule="evenodd" fill="#7E5628" d="M123.562,26.556h11.088c1.778,0,3.585,0.26,5.322,0.749
	l-0.045-0.083l0.505,0.222c1.001,0.311,1.981,0.702,2.913,1.164c5.652,2.042,10.579,2.502,15.475,1.709v3.229
	c-1.038,0.706-1.668,1.983-1.668,3.306v1.915l-0.892,0.545c-0.509-1.632-1.343-2.7-2.295-2.7c-1.277,0-2.36,1.947-2.689,4.602
	h-0.017c-0.036,0.378-0.081,0.763-0.154,1.151l-0.33,1.807c-1.578,8.681-6.827,16.109-15.649,16.109h-11.153
	c-8.825,0-15.466-7.239-16.044-16.044l-0.13-2.004c-0.134-2.041-1.318-5.446-2.551-6.728l-0.085-0.091
	c-0.942-0.779-1.516-1.811-1.516-2.944c0-1.807,1.46-3.359,3.554-4.038l0.13-0.057C111.903,26.43,119.269,26.556,123.562,26.556
	L123.562,26.556z M167.295,27.51L167.295,27.51c1.937-0.625,3.983-0.954,5.994-0.954h11.084c4.297,0,11.661-0.126,16.231,1.817
	l0.13,0.057c2.096,0.679,3.557,2.231,3.557,4.038c0,1.133-0.574,2.165-1.514,2.944l-0.09,0.091
	c-1.233,1.282-2.413,4.688-2.547,6.728l-0.131,2.004c-0.582,8.806-7.223,16.044-16.048,16.044h-9.978v-4.557
	c4.143,0.563,9.074,0.492,13.217-0.446c4.443-0.999,8.149-4.12,8.149-8.675v-6.443c0-4.555-3.727-8.28-8.28-8.28h-15.91
	c-1.396,0-2.71,0.35-3.865,0.964V27.51L167.295,27.51z M120.867,31.878L120.867,31.878h15.91c4.553,0,8.28,3.727,8.28,8.28v1.054
	v2.364c0,4.558-3.593,10.492-8.02,11.572c-4.578,1.117-11.064,1.314-16.301,0.128c-4.443-0.999-8.154-4.12-8.154-8.675v-6.443
	C112.583,35.603,116.314,31.878,120.867,31.878L120.867,31.878z M163.755,110.412L163.755,110.412h-2.201v3.872h2.201V110.412
	L163.755,110.412z M173.936,115.154L173.936,115.154l-1.636-1.477l-2.592,2.877l1.636,1.473L173.936,115.154L173.936,115.154z
	 M150.042,115.154L150.042,115.154l1.641-1.477l2.592,2.877l-1.636,1.473L150.042,115.154L150.042,115.154z M106.262,201.516
	L106.262,201.516c-6.283,0-11.365-5.086-11.365-11.365c0-6.274,5.082-11.364,11.365-11.364c6.272,0,11.362,5.09,11.362,11.364
	C117.624,196.43,112.534,201.516,106.262,201.516L106.262,201.516z M176.593,194.903L176.593,194.903
	c-2.625,0-4.749-2.128-4.749-4.753c0-2.624,2.124-4.748,4.749-4.748c2.624,0,4.753,2.124,4.753,4.748
	C181.346,192.775,179.217,194.903,176.593,194.903L176.593,194.903z M106.072,194.903L106.072,194.903
	c-2.626,0-4.752-2.128-4.752-4.753c0-2.624,2.126-4.748,4.752-4.748c2.621,0,4.753,2.124,4.753,4.748
	C110.825,192.775,108.693,194.903,106.072,194.903L106.072,194.903z M176.593,201.516L176.593,201.516
	c-6.278,0-11.365-5.086-11.365-11.365c0-6.274,5.087-11.364,11.365-11.364c6.274,0,11.364,5.09,11.364,11.364
	C187.957,196.43,182.867,201.516,176.593,201.516L176.593,201.516z M63.775,108.286L63.775,108.286
	c-10.311,1.597-17.613,1.681-27.543-0.143c-0.847-0.159-1.569,0.849-1.569,1.711c0,2.236-1.927,2.614-1.927,4.853
	c0,0.862,0.727,1.249,1.571,1.424c0.358,0.077,0.718,0.15,1.078,0.22c-1.074,11.337-0.569,21.392,0.729,29.899
	c3.876,2.186,6.502,6.352,6.49,11.101l-0.033,11.768c1.451,3.182,2.848,5.48,3.937,6.799v16.231l-1.927,1.75
	c-0.464,0.423-1.142,0.517-1.142,1.144v4.565c0,0.631,0.513,1.144,1.142,1.144h9.705c0.626,0,1.139-0.513,1.139-1.144v-4.777
	c0-0.631-0.667-0.732-1.139-1.144l-2.071-1.803v-15.836c4.486-5.542,14.337-27.503,11.354-59.538
	c0.529-0.09,1.058-0.184,1.587-0.281c0.849-0.154,1.569-0.562,1.569-1.424c0-2.238-1.383-2.714-1.383-4.95
	C65.342,108.99,64.627,108.154,63.775,108.286L63.775,108.286z M41.727,117.287L41.727,117.287
	c5.119,0.521,10.321,0.513,15.493,0.04c3.805,28.691-3.23,45.04-7.733,53.174h-0.031C44.95,162.363,37.91,146.006,41.727,117.287
	L41.727,117.287z M55.507,138.779L55.507,138.779H43.462c-1.316,0-2.395,1.078-2.395,2.396s1.078,2.396,2.395,2.396h12.044
	c1.32,0,2.398-1.078,2.398-2.396S56.827,138.779,55.507,138.779L55.507,138.779z"/>
</svg>
