<?xml version="1.0" encoding="utf-8"?>
<!DOCTYPE svg PUBLIC "-//W3C//DTD SVG 1.1//EN" "http://www.w3.org/Graphics/SVG/1.1/DTD/svg11.dtd">
<svg version="1.1" xmlns="http://www.w3.org/2000/svg" xmlns:xlink="http://www.w3.org/1999/xlink" x="0px" y="0px" width="216px" height="216px" viewBox="0 0 216 216" enable-background="new 0 0 216 216" xml:space="preserve">
<path id="_x33_" fill-rule="evenodd" clip-rule="evenodd" fill="#999557" d="M16.119-0.08h183.602
	c8.911,0,16.199,7.29,16.199,16.199v183.602c0,8.907-7.288,16.199-16.199,16.199H16.119c-8.909,0-16.199-7.292-16.199-16.199V16.119
	C-0.08,7.209,7.209-0.08,16.119-0.08L16.119-0.08z M16.119,4.918h183.602c6.161,0,11.198,5.04,11.198,11.2v183.602
	c0,6.161-5.037,11.198-11.198,11.198H16.119c-6.161,0-11.2-5.037-11.2-11.198V16.119C4.918,9.958,9.958,4.918,16.119,4.918
	L16.119,4.918z M191.917,103.668c5.322,2.97,8.834,7.977,8.834,13.619v21.643H15.791v-21.643c0-5.44,3.263-10.287,8.271-13.292
	l3.34-10.384H17.055c-0.678,0-1.233-0.456-1.233-1.011v-8.073c0-0.553,0.555-1.007,1.233-1.007h13.417l7.475-19.438
	c2.169-8.885,8.458-16.473,18.793-16.473l100.985,0.042c10.34,0,16.199,7.668,18.795,16.474l7.332,19.191l15.878-0.026
	c0.68,0,1.232,0.454,1.232,1.009v8.071c0,0.556-0.553,1.412-1.232,1.412l-11.894-0.071L191.917,103.668L191.917,103.668z
	 M72.104,118.097L72.104,118.097h69.271v1.94H141.2v3.023h0.175v1.938H72.104v-1.938h0.004v-3.023h-0.004V118.097L72.104,118.097z
	 M72.104,128.017L72.104,128.017h69.271v1.941H141.2v3.019h0.175v1.941H72.104v-1.941h0.004v-3.019h-0.004V128.017L72.104,128.017z
	 M32.527,118.523L32.527,118.523h2.574h27.281c0.914,0,1.658,0.61,1.658,1.359v10.872c0,0.749-0.745,1.359-1.658,1.359H35.101
	h-2.574H21.943c-0.403,0-0.73-0.61-0.73-1.359v-10.872c0-0.749,0.328-1.359,0.73-1.359H32.527L32.527,118.523z M156.65,118.523
	L156.65,118.523h24.891h6.994h6.165c0.402,0,0.732,0.61,0.732,1.359v10.872c0,0.749-0.33,1.359-0.732,1.359h-6.165h-6.994H156.65
	c-0.911,0-1.66-0.61-1.66-1.359v-10.872C154.99,119.134,155.739,118.523,156.65,118.523L156.65,118.523z M164.28,64.959
	L164.28,64.959c-0.444-1.455-2.019-5.477-3.667-6.628L53.599,58.286c-1.626,0.942-3.018,4.738-3.363,6.107L37.457,100.4h140.817
	L164.28,64.959L164.28,64.959z M147.918,146.742L147.918,146.742h54.822v15.638h-54.822V146.742L147.918,146.742z M12.277,146.742
	L12.277,146.742h54.824v15.638H12.277V146.742L12.277,146.742z"/>
<path id="_x32_" fill-rule="evenodd" clip-rule="evenodd" fill="#F58031" d="M77.158,15.925h62.785c2.063,0,3.242,2.291,3.756,5.003
	l4.386,23.258H69.012l4.391-23.258C73.915,18.214,75.093,15.925,77.158,15.925L77.158,15.925z M82.45,20.928L82.45,20.928h11.009
	v9.603H82.45V20.928L82.45,20.928z M93.629,30.383L93.629,30.383h10.836v-9.455h11.006v9.603h-10.833v9.456H93.629V30.383
	L93.629,30.383z M115.646,30.383L115.646,30.383h11.012v-9.455h11.006v9.603h-11.006v9.456h-11.012V30.383L115.646,30.383z
	 M76.318,145.412L76.318,145.412h61.164c2.271,0,4.122,1.741,4.122,3.869v9.037c0,2.129-1.852,3.87-4.122,3.87H76.318
	c-2.269,0-4.124-1.741-4.124-3.87v-9.037C72.194,147.153,74.049,145.412,76.318,145.412L76.318,145.412z M123.483,147.698
	L123.483,147.698h3.895v11.821h-3.895V147.698L123.483,147.698z M108.782,147.698L108.782,147.698h4.281l2.233,3.638l2.165-3.638
	h4.244l-3.915,5.726l4.281,6.096h-4.37l-2.482-3.797l-2.49,3.797h-4.342l4.342-6.161L108.782,147.698L108.782,147.698z
	 M102.901,155.011L102.901,155.011l-1.394-4.248l-1.383,4.248H102.901L102.901,155.011z M103.714,157.57L103.714,157.57h-4.433
	l-0.61,1.949h-3.973l4.732-11.821h4.24l4.734,11.821h-4.073L103.714,157.57L103.714,157.57z M83.579,147.698L83.579,147.698h11.82
	v2.918h-3.967v8.903h-3.89v-8.903h-3.963V147.698L83.579,147.698z M181.545,118.523L181.545,118.523H194.7
	c0.402,0,0.732,0.615,0.732,1.359v10.872c0,0.749-0.33,1.359-0.732,1.359h-13.155c-0.403,0-0.732-0.61-0.732-1.359v-10.872
	C180.813,119.139,181.142,118.523,181.545,118.523L181.545,118.523z M21.943,118.523L21.943,118.523h13.157
	c0.403,0,0.73,0.615,0.73,1.359v10.872c0,0.749-0.328,1.359-0.73,1.359H21.943c-0.403,0-0.732-0.61-0.732-1.359v-10.872
	C21.211,119.139,21.541,118.523,21.943,118.523L21.943,118.523z"/>
<path id="_x31_" fill-rule="evenodd" clip-rule="evenodd" fill="#7E5628" d="M48.962,170.574v23.829
	c0,3.169-3.168,5.766-7.036,5.766H27.854c-3.87,0-7.037-2.597-7.037-5.766v-23.829H48.962L48.962,170.574z M195.221,170.574
	L195.221,170.574v23.829c0,3.169-3.17,5.766-7.035,5.766H174.11c-3.869,0-7.035-2.597-7.035-5.766v-23.829H195.221L195.221,170.574z
	 M200.751,140.834L200.751,140.834v5.908h-52.833v15.638h52.833v6.233h-5.53v0.062h-28.146v-0.062H48.964v0.062H20.816v-0.062
	h-5.027v-6.233h51.313v-15.638H15.789v-5.908H200.751L200.751,140.834z M76.318,145.412L76.318,145.412h61.164
	c2.271,0,4.122,1.741,4.122,3.869v9.037c0,2.129-1.852,3.87-4.122,3.87H76.318c-2.269,0-4.124-1.741-4.124-3.87v-9.037
	C72.194,147.153,74.049,145.412,76.318,145.412L76.318,145.412z M115.646,30.383L115.646,30.383h11.012v-9.455h11.006v9.603h-11.006
	v9.456h-11.012V30.383L115.646,30.383z M93.629,30.383L93.629,30.383h10.836v-9.455h11.006v9.603h-10.833v9.456H93.629V30.383
	L93.629,30.383z M82.45,20.928L82.45,20.928h11.009v9.603H82.45V20.928L82.45,20.928z"/>
</svg>
