<?xml version="1.0" encoding="utf-8"?>
<!DOCTYPE svg PUBLIC "-//W3C//DTD SVG 1.1//EN" "http://www.w3.org/Graphics/SVG/1.1/DTD/svg11.dtd">
<svg version="1.1" xmlns="http://www.w3.org/2000/svg" xmlns:xlink="http://www.w3.org/1999/xlink" x="0px" y="0px" width="216px" height="216px" viewBox="0 0 216 216" enable-background="new 0 0 216 216" xml:space="preserve">
<path fill-rule="evenodd" clip-rule="evenodd" d="M16.119-0.08h183.602
	c8.911,0,16.199,7.29,16.199,16.199v183.602c0,8.907-7.288,16.199-16.199,16.199H16.119c-8.909,0-16.199-7.292-16.199-16.199V16.119
	C-0.08,7.209,7.209-0.08,16.119-0.08L16.119-0.08z M16.119,4.918h183.602c6.161,0,11.198,5.04,11.198,11.2v183.602
	c0,6.161-5.037,11.198-11.198,11.198H16.119c-6.161,0-11.2-5.037-11.2-11.198V16.119C4.918,9.958,9.958,4.918,16.119,4.918
	L16.119,4.918z M191.917,103.668c5.322,2.97,8.834,7.977,8.834,13.619v21.643H15.791v-21.643c0-5.44,3.263-10.287,8.271-13.292
	l3.34-10.384H17.055c-0.678,0-1.233-0.456-1.233-1.011v-8.073c0-0.553,0.555-1.007,1.233-1.007h13.417l7.475-19.438
	c2.169-8.885,8.458-16.473,18.793-16.473l100.985,0.042c10.34,0,16.199,7.668,18.795,16.474l7.332,19.191l15.878-0.026
	c0.68,0,1.232,0.454,1.232,1.009v8.071c0,0.556-0.553,1.412-1.232,1.412l-11.894-0.071L191.917,103.668L191.917,103.668z
	 M72.104,118.097L72.104,118.097h69.271v1.94H141.2v3.023h0.175v1.938H72.104v-1.938h0.004v-3.023h-0.004V118.097L72.104,118.097z
	 M72.104,128.017L72.104,128.017h69.271v1.941H141.2v3.019h0.175v1.941H72.104v-1.941h0.004v-3.019h-0.004V128.017L72.104,128.017z
	 M32.527,118.523L32.527,118.523h2.574h27.281c0.914,0,1.658,0.61,1.658,1.359v10.872c0,0.749-0.745,1.359-1.658,1.359H35.101
	h-2.574H21.943c-0.403,0-0.73-0.61-0.73-1.359v-10.872c0-0.749,0.328-1.359,0.73-1.359H32.527L32.527,118.523z M156.65,118.523
	L156.65,118.523h24.891h6.994h6.165c0.402,0,0.732,0.61,0.732,1.359v10.872c0,0.749-0.33,1.359-0.732,1.359h-6.165h-6.994H156.65
	c-0.911,0-1.66-0.61-1.66-1.359v-10.872C154.99,119.134,155.739,118.523,156.65,118.523L156.65,118.523z M164.28,64.959
	L164.28,64.959c-0.444-1.455-2.019-5.477-3.667-6.628L53.599,58.286c-1.626,0.942-3.018,4.738-3.363,6.107L37.457,100.4h140.817
	L164.28,64.959L164.28,64.959z M147.918,146.742L147.918,146.742h54.822v15.638h-54.822V146.742L147.918,146.742z M12.277,146.742
	L12.277,146.742h54.824v15.638H12.277V146.742L12.277,146.742z"/>
</svg>
