<?xml version="1.0" encoding="utf-8"?>
<!DOCTYPE svg PUBLIC "-//W3C//DTD SVG 1.1//EN" "http://www.w3.org/Graphics/SVG/1.1/DTD/svg11.dtd">
<svg version="1.1" xmlns="http://www.w3.org/2000/svg" xmlns:xlink="http://www.w3.org/1999/xlink" x="0px" y="0px" width="216px" height="216px" viewBox="0 0 216 216" enable-background="new 0 0 216 216" xml:space="preserve">
<path fill-rule="evenodd" clip-rule="evenodd" d="M77.158,15.925h62.785c2.063,0,3.242,2.291,3.756,5.003
	l4.386,23.258H69.012l4.391-23.258C73.915,18.214,75.093,15.925,77.158,15.925L77.158,15.925z M82.45,20.928L82.45,20.928h11.009
	v9.603H82.45V20.928L82.45,20.928z M93.629,30.383L93.629,30.383h10.836v-9.455h11.006v9.603h-10.833v9.456H93.629V30.383
	L93.629,30.383z M115.646,30.383L115.646,30.383h11.012v-9.455h11.006v9.603h-11.006v9.456h-11.012V30.383L115.646,30.383z
	 M76.318,145.412L76.318,145.412h61.164c2.271,0,4.122,1.741,4.122,3.869v9.037c0,2.129-1.852,3.87-4.122,3.87H76.318
	c-2.269,0-4.124-1.741-4.124-3.87v-9.037C72.194,147.153,74.049,145.412,76.318,145.412L76.318,145.412z M123.483,147.698
	L123.483,147.698h3.895v11.821h-3.895V147.698L123.483,147.698z M108.782,147.698L108.782,147.698h4.281l2.233,3.638l2.165-3.638
	h4.244l-3.915,5.726l4.281,6.096h-4.37l-2.482-3.797l-2.49,3.797h-4.342l4.342-6.161L108.782,147.698L108.782,147.698z
	 M102.901,155.011L102.901,155.011l-1.394-4.248l-1.383,4.248H102.901L102.901,155.011z M103.714,157.57L103.714,157.57h-4.433
	l-0.61,1.949h-3.973l4.732-11.821h4.24l4.734,11.821h-4.073L103.714,157.57L103.714,157.57z M83.579,147.698L83.579,147.698h11.82
	v2.918h-3.967v8.903h-3.89v-8.903h-3.963V147.698L83.579,147.698z M181.545,118.523L181.545,118.523H194.7
	c0.402,0,0.732,0.615,0.732,1.359v10.872c0,0.749-0.33,1.359-0.732,1.359h-13.155c-0.403,0-0.732-0.61-0.732-1.359v-10.872
	C180.813,119.139,181.142,118.523,181.545,118.523L181.545,118.523z M21.943,118.523L21.943,118.523h13.157
	c0.403,0,0.73,0.615,0.73,1.359v10.872c0,0.749-0.328,1.359-0.73,1.359H21.943c-0.403,0-0.732-0.61-0.732-1.359v-10.872
	C21.211,119.139,21.541,118.523,21.943,118.523L21.943,118.523z"/>
</svg>
