<?xml version="1.0" encoding="utf-8"?>
<!DOCTYPE svg PUBLIC "-//W3C//DTD SVG 1.1//EN" "http://www.w3.org/Graphics/SVG/1.1/DTD/svg11.dtd">
<svg version="1.1" xmlns="http://www.w3.org/2000/svg" xmlns:xlink="http://www.w3.org/1999/xlink" x="0px" y="0px" width="216px" height="216px" viewBox="0 0 216 216" enable-background="new 0 0 216 216" xml:space="preserve">
<path fill-rule="evenodd" clip-rule="evenodd" d="M48.962,170.574v23.829
	c0,3.169-3.168,5.766-7.036,5.766H27.854c-3.87,0-7.037-2.597-7.037-5.766v-23.829H48.962L48.962,170.574z M195.221,170.574
	L195.221,170.574v23.829c0,3.169-3.17,5.766-7.035,5.766H174.11c-3.869,0-7.035-2.597-7.035-5.766v-23.829H195.221L195.221,170.574z
	 M200.751,140.834L200.751,140.834v5.908h-52.833v15.638h52.833v6.233h-5.53v0.062h-28.146v-0.062H48.964v0.062H20.816v-0.062
	h-5.027v-6.233h51.313v-15.638H15.789v-5.908H200.751L200.751,140.834z M76.318,145.412L76.318,145.412h61.164
	c2.271,0,4.122,1.741,4.122,3.869v9.037c0,2.129-1.852,3.87-4.122,3.87H76.318c-2.269,0-4.124-1.741-4.124-3.87v-9.037
	C72.194,147.153,74.049,145.412,76.318,145.412L76.318,145.412z M115.646,30.383L115.646,30.383h11.012v-9.455h11.006v9.603h-11.006
	v9.456h-11.012V30.383L115.646,30.383z M93.629,30.383L93.629,30.383h10.836v-9.455h11.006v9.603h-10.833v9.456H93.629V30.383
	L93.629,30.383z M82.45,20.928L82.45,20.928h11.009v9.603H82.45V20.928L82.45,20.928z"/>
</svg>
