<?xml version="1.0" encoding="utf-8"?>
<!DOCTYPE svg PUBLIC "-//W3C//DTD SVG 1.1//EN" "http://www.w3.org/Graphics/SVG/1.1/DTD/svg11.dtd">
<svg version="1.1" xmlns="http://www.w3.org/2000/svg" xmlns:xlink="http://www.w3.org/1999/xlink" x="0px" y="0px" width="216px" height="216px" viewBox="0 0 216 216" enable-background="new 0 0 216 216" xml:space="preserve">
<path id="_x33_" fill-rule="evenodd" clip-rule="evenodd" fill="#F58031" d="M67.803,25.811h21.55v5.953h-21.55V25.811
	L67.803,25.811z M178.863,133.571L178.863,133.571v8.211h7.275v-8.211H178.863L178.863,133.571z M31.776,141.782L31.776,141.782
	h7.54v-8.211h-7.54V141.782L31.776,141.782z M53.547,47.609L53.547,47.609h110.147c4.695,0,8.536,3.809,8.536,8.463v51.705
	c0,4.659-3.841,8.464-8.536,8.464H53.547c-4.693,0-8.535-3.805-8.535-8.464V56.072C45.013,51.417,48.854,47.609,53.547,47.609
	L53.547,47.609z M185.85,41.218L185.85,41.218v5.603h-0.073V66.08h4.599V54.115h8.476c0.655,0,1.196,0.466,1.196,1.036v23.797
	c0,0.574-0.541,1.038-1.196,1.038H185.85v42.819H31.735V79.778l-14.307,0.208c-0.659,0-1.196-0.464-1.196-1.038V55.151
	c0-0.57,0.537-1.036,1.196-1.036l9.748,0.124V66.08h4.6V46.821h-0.041v-5.603H185.85L185.85,41.218z M48.996,152.479L48.996,152.479
	h9.394c0.612,0,1.115,0.415,1.115,0.924v2.885c0,0.505-0.502,0.916-1.115,0.916h-9.394c-0.612,0-1.113-0.411-1.113-0.916v-2.885
	C47.883,152.895,48.384,152.479,48.996,152.479L48.996,152.479z M159.259,152.479L159.259,152.479h9.396
	c0.61,0,1.11,0.415,1.11,0.924v2.885c0,0.505-0.5,0.916-1.11,0.916h-9.396c-0.61,0-1.111-0.411-1.111-0.916v-2.885
	C158.147,152.895,158.648,152.479,159.259,152.479L159.259,152.479z"/>
<path id="_x32_" fill-rule="evenodd" clip-rule="evenodd" fill="#999557" d="M16.119-0.08h183.602
	c8.911,0,16.199,7.29,16.199,16.199v183.602c0,8.907-7.288,16.199-16.199,16.199H16.119c-8.909,0-16.199-7.292-16.199-16.199V16.119
	C-0.08,7.209,7.209-0.08,16.119-0.08L16.119-0.08z M16.119,4.918h183.602c6.161,0,11.198,5.04,11.198,11.2v183.602
	c0,6.161-5.037,11.198-11.198,11.198H16.119c-6.161,0-11.2-5.037-11.2-11.198V16.119C4.918,9.958,9.958,4.918,16.119,4.918
	L16.119,4.918z M91.931,152.479h35.325c0.695,0,1.27,0.387,1.27,0.863v4.044c0,0.477-0.574,0.863-1.27,0.863H91.931
	c-0.698,0-1.27-0.387-1.27-0.863v-4.044C90.661,152.866,91.233,152.479,91.931,152.479L91.931,152.479z M90.456,130.682
	L90.456,130.682h37.606c1.147,0,2.092,0.15,2.092,0.334v2.661c0,0.183-0.944,0.334-2.092,0.334H90.456
	c-1.151,0-2.089-0.151-2.089-0.334v-2.661C88.366,130.832,89.304,130.682,90.456,130.682L90.456,130.682z M185.85,125.958
	L185.85,125.958v4.744h-8.269c-0.887,0-1.615,0.627-1.615,1.396v11.162c0,0.769,0.729,1.396,1.615,1.396h8.269v2.233H31.735v-2.233
	h8.862c0.889,0,1.616-0.627,1.616-1.396v-11.162c0-0.769-0.727-1.396-1.616-1.396h-8.862v-4.744H185.85L185.85,125.958z
	 M185.85,163.901L185.85,163.901v6.177H31.735v-6.177H185.85L185.85,163.901z M90.222,136.473L90.222,136.473h37.604
	c1.156,0,2.096,0.15,2.096,0.333v2.661c0,0.188-0.939,0.33-2.096,0.33H90.222c-1.149,0-2.087-0.143-2.087-0.33v-2.661
	C88.134,136.623,89.072,136.473,90.222,136.473L90.222,136.473z M142.226,130.593L142.226,130.593h29.041
	c0.887,0,1.611,0.626,1.611,1.396v11.161c0,0.773-0.725,1.396-1.611,1.396h-29.041c-0.887,0-1.611-0.622-1.611-1.396v-11.161
	C140.614,131.219,141.339,130.593,142.226,130.593L142.226,130.593z M46.884,130.702L46.884,130.702h29.039
	c0.889,0,1.611,0.627,1.611,1.396v11.162c0,0.769-0.722,1.396-1.611,1.396H46.884c-0.889,0-1.613-0.627-1.613-1.396v-11.162
	C45.271,131.329,45.996,130.702,46.884,130.702L46.884,130.702z M47.147,16.926L47.147,16.926h2.806h120.484
	c8.479,0,15.413,6.875,15.413,15.277v5.863H31.735v-5.863C31.735,23.801,38.671,16.926,47.147,16.926L47.147,16.926z M64.825,23.16
	L64.825,23.16h89.535c1.771,0,3.219,0.743,3.219,1.648v7.76c0,0.907-1.448,1.648-3.219,1.648H64.825
	c-1.77,0-3.214-0.741-3.214-1.648v-7.76C61.61,23.903,63.055,23.16,64.825,23.16L64.825,23.16z M66.027,65.089L66.027,65.089h12.217
	c2.419,0,4.226,0.1,5.414,0.305c1.188,0.195,2.25,0.614,3.188,1.247c0.94,0.635,1.715,1.475,2.34,2.533
	c0.626,1.05,0.94,2.236,0.94,3.54c0,1.418-0.385,2.722-1.151,3.908c-0.777,1.184-1.823,2.073-3.137,2.667
	c1.855,0.535,3.292,1.451,4.289,2.743c1.003,1.298,1.501,2.82,1.501,4.569c0,1.375-0.319,2.716-0.966,4.021
	c-0.647,1.298-1.532,2.342-2.649,3.117c-1.117,0.777-2.497,1.257-4.14,1.44c-1.023,0.106-3.508,0.177-7.442,0.204H66.027V65.089
	L66.027,65.089z M72.204,70.133L72.204,70.133v7.005h4.041c2.405,0,3.9-0.035,4.482-0.106c1.054-0.12,1.886-0.48,2.492-1.078
	c0.604-0.6,0.901-1.392,0.901-2.372c0-0.936-0.254-1.699-0.773-2.285c-0.529-0.584-1.304-0.938-2.328-1.056
	c-0.612-0.071-2.37-0.108-5.273-0.108H72.204L72.204,70.133z M72.204,82.179L72.204,82.179v8.097h5.705
	c2.228,0,3.636-0.057,4.234-0.183c0.919-0.161,1.666-0.571,2.242-1.204c0.576-0.645,0.869-1.503,0.869-2.576
	c0-0.91-0.23-1.681-0.669-2.312c-0.45-0.637-1.088-1.103-1.929-1.392c-0.84-0.289-2.669-0.431-5.473-0.431H72.204L72.204,82.179z
	 M96.801,65.089L96.801,65.089h6.167v16.408c0,2.602,0.08,4.295,0.228,5.064c0.264,1.241,0.897,2.234,1.886,2.982
	c0.997,0.755,2.356,1.127,4.08,1.127c1.749,0,3.072-0.352,3.963-1.064c0.887-0.706,1.42-1.581,1.6-2.61
	c0.187-1.038,0.269-2.751,0.269-5.147v-16.76h6.168v15.912c0,3.642-0.162,6.208-0.496,7.709c-0.334,1.503-0.944,2.767-1.844,3.803
	c-0.895,1.031-2.1,1.855-3.593,2.47c-1.501,0.612-3.463,0.916-5.884,0.916c-2.917,0-5.129-0.332-6.638-1.001
	c-1.508-0.669-2.696-1.536-3.571-2.602c-0.877-1.066-1.453-2.187-1.729-3.357c-0.407-1.735-0.604-4.295-0.604-7.688V65.089
	L96.801,65.089z M126.108,85.532L126.108,85.532l6.006-0.588c0.354,2.004,1.087,3.473,2.197,4.409
	c1.103,0.932,2.588,1.404,4.468,1.404c1.985,0,3.487-0.415,4.492-1.253c1.009-0.834,1.514-1.809,1.514-2.921
	c0-0.72-0.212-1.327-0.639-1.827c-0.424-0.509-1.164-0.946-2.222-1.313c-0.721-0.254-2.368-0.691-4.936-1.324
	c-3.313-0.812-5.632-1.815-6.962-2.999c-1.876-1.664-2.816-3.694-2.816-6.093c0-1.544,0.439-2.984,1.322-4.332
	c0.883-1.341,2.157-2.364,3.813-3.068c1.665-0.698,3.667-1.052,6.015-1.052c3.841,0,6.722,0.834,8.663,2.496
	c1.937,1.672,2.954,3.896,3.056,6.682l-6.169,0.266c-0.265-1.556-0.834-2.679-1.705-3.356c-0.866-0.684-2.164-1.021-3.902-1.021
	c-1.794,0-3.202,0.358-4.211,1.092c-0.655,0.466-0.984,1.095-0.984,1.878c0,0.718,0.309,1.333,0.919,1.839
	c0.777,0.647,2.665,1.326,5.673,2.024c3.003,0.706,5.221,1.43,6.656,2.179c1.44,0.755,2.563,1.776,3.382,3.083
	c0.81,1.304,1.217,2.913,1.217,4.826c0,1.733-0.484,3.363-1.457,4.873c-0.977,1.518-2.348,2.645-4.13,3.379
	c-1.778,0.741-4,1.107-6.653,1.107c-3.861,0-6.831-0.883-8.898-2.653C127.744,91.497,126.503,88.917,126.108,85.532L126.108,85.532z
	"/>
<path id="_x31_" fill-rule="evenodd" clip-rule="evenodd" fill="#7E5628" d="M90.456,130.682h37.606c1.147,0,2.092,0.15,2.092,0.334
	v2.661c0,0.183-0.944,0.334-2.092,0.334H90.456c-1.151,0-2.089-0.151-2.089-0.334v-2.661
	C88.366,130.832,89.304,130.682,90.456,130.682L90.456,130.682z M90.222,136.473L90.222,136.473h37.604
	c1.156,0,2.096,0.15,2.096,0.333v2.661c0,0.188-0.939,0.33-2.096,0.33H90.222c-1.149,0-2.087-0.143-2.087-0.33v-2.661
	C88.134,136.623,89.072,136.473,90.222,136.473L90.222,136.473z M179.998,174.978L179.998,174.978v19.157
	c0,3.259-3.08,5.92-6.844,5.92h-13.688c-3.764,0-6.844-2.661-6.844-5.92v-19.157H179.998L179.998,174.978z M64.292,174.978
	L64.292,174.978v19.157c0,3.259-3.079,5.92-6.844,5.92H43.759c-3.764,0-6.844-2.661-6.844-5.92v-19.157H64.292L64.292,174.978z
	 M94.651,25.811L94.651,25.811h56.514v4.903H94.651V25.811L94.651,25.811z M190.729,161.574L190.729,161.574v-12.354H27.536v12.354
	H190.729L190.729,161.574z M90.042,150.693L90.042,150.693h39.101c0.773,0,1.404,0.627,1.404,1.392v6.56
	c0,0.765-0.631,1.396-1.404,1.396H90.042c-0.773,0-1.406-0.631-1.406-1.396v-6.56C88.637,151.32,89.27,150.693,90.042,150.693
	L90.042,150.693z M45.55,150.819L45.55,150.819h31.438v8.398H45.55V150.819L45.55,150.819z M140.216,150.819L140.216,150.819h31.441
	v8.398h-31.441V150.819L140.216,150.819z"/>
</svg>
