<?xml version="1.0" encoding="utf-8"?>
<!DOCTYPE svg PUBLIC "-//W3C//DTD SVG 1.1//EN" "http://www.w3.org/Graphics/SVG/1.1/DTD/svg11.dtd">
<svg version="1.1" xmlns="http://www.w3.org/2000/svg" xmlns:xlink="http://www.w3.org/1999/xlink" x="0px" y="0px" width="216px" height="216px" viewBox="0 0 216 216" enable-background="new 0 0 216 216" xml:space="preserve">
<path fill-rule="evenodd" clip-rule="evenodd" d="M67.803,25.811h21.55v5.953h-21.55V25.811
	L67.803,25.811z M178.863,133.571L178.863,133.571v8.211h7.275v-8.211H178.863L178.863,133.571z M31.776,141.782L31.776,141.782
	h7.54v-8.211h-7.54V141.782L31.776,141.782z M53.547,47.609L53.547,47.609h110.147c4.695,0,8.536,3.809,8.536,8.463v51.705
	c0,4.659-3.841,8.464-8.536,8.464H53.547c-4.693,0-8.535-3.805-8.535-8.464V56.072C45.013,51.417,48.854,47.609,53.547,47.609
	L53.547,47.609z M185.85,41.218L185.85,41.218v5.603h-0.073V66.08h4.599V54.115h8.476c0.655,0,1.196,0.466,1.196,1.036v23.797
	c0,0.574-0.541,1.038-1.196,1.038H185.85v42.819H31.735V79.778l-14.307,0.208c-0.659,0-1.196-0.464-1.196-1.038V55.151
	c0-0.57,0.537-1.036,1.196-1.036l9.748,0.124V66.08h4.6V46.821h-0.041v-5.603H185.85L185.85,41.218z M48.996,152.479L48.996,152.479
	h9.394c0.612,0,1.115,0.415,1.115,0.924v2.885c0,0.505-0.502,0.916-1.115,0.916h-9.394c-0.612,0-1.113-0.411-1.113-0.916v-2.885
	C47.883,152.895,48.384,152.479,48.996,152.479L48.996,152.479z M159.259,152.479L159.259,152.479h9.396
	c0.61,0,1.11,0.415,1.11,0.924v2.885c0,0.505-0.5,0.916-1.11,0.916h-9.396c-0.61,0-1.111-0.411-1.111-0.916v-2.885
	C158.147,152.895,158.648,152.479,159.259,152.479L159.259,152.479z"/>
</svg>
