<?xml version="1.0" encoding="utf-8"?>
<!DOCTYPE svg PUBLIC "-//W3C//DTD SVG 1.1//EN" "http://www.w3.org/Graphics/SVG/1.1/DTD/svg11.dtd">
<svg version="1.1" xmlns="http://www.w3.org/2000/svg" xmlns:xlink="http://www.w3.org/1999/xlink" x="0px" y="0px" width="216px" height="216px" viewBox="0 0 216 216" enable-background="new 0 0 216 216" xml:space="preserve">
<path fill-rule="evenodd" clip-rule="evenodd" d="M90.456,130.682h37.606c1.147,0,2.092,0.15,2.092,0.334
	v2.661c0,0.183-0.944,0.334-2.092,0.334H90.456c-1.151,0-2.089-0.151-2.089-0.334v-2.661
	C88.366,130.832,89.304,130.682,90.456,130.682L90.456,130.682z M90.222,136.473L90.222,136.473h37.604
	c1.156,0,2.096,0.15,2.096,0.333v2.661c0,0.188-0.939,0.33-2.096,0.33H90.222c-1.149,0-2.087-0.143-2.087-0.33v-2.661
	C88.134,136.623,89.072,136.473,90.222,136.473L90.222,136.473z M179.998,174.978L179.998,174.978v19.157
	c0,3.259-3.08,5.92-6.844,5.92h-13.688c-3.764,0-6.844-2.661-6.844-5.92v-19.157H179.998L179.998,174.978z M64.292,174.978
	L64.292,174.978v19.157c0,3.259-3.079,5.92-6.844,5.92H43.759c-3.764,0-6.844-2.661-6.844-5.92v-19.157H64.292L64.292,174.978z
	 M94.651,25.811L94.651,25.811h56.514v4.903H94.651V25.811L94.651,25.811z M190.729,161.574L190.729,161.574v-12.354H27.536v12.354
	H190.729L190.729,161.574z M90.042,150.693L90.042,150.693h39.101c0.773,0,1.404,0.627,1.404,1.392v6.56
	c0,0.765-0.631,1.396-1.404,1.396H90.042c-0.773,0-1.406-0.631-1.406-1.396v-6.56C88.637,151.32,89.27,150.693,90.042,150.693
	L90.042,150.693z M45.55,150.819L45.55,150.819h31.438v8.398H45.55V150.819L45.55,150.819z M140.216,150.819L140.216,150.819h31.441
	v8.398h-31.441V150.819L140.216,150.819z"/>
</svg>
