<?xml version="1.0" encoding="utf-8"?>
<!DOCTYPE svg PUBLIC "-//W3C//DTD SVG 1.1//EN" "http://www.w3.org/Graphics/SVG/1.1/DTD/svg11.dtd">
<svg version="1.1" xmlns="http://www.w3.org/2000/svg" xmlns:xlink="http://www.w3.org/1999/xlink" x="0px" y="0px" width="216px" height="216px" viewBox="0 0 216 216" enable-background="new 0 0 216 216" xml:space="preserve">
<path fill-rule="evenodd" clip-rule="evenodd" d="M59.547,199.237c-9.076,0-16.423-7.354-16.423-16.423
	c0-9.07,7.347-16.423,16.423-16.423c9.062,0,16.422,7.353,16.422,16.423C75.97,191.884,68.609,199.237,59.547,199.237
	L59.547,199.237z M161.18,189.679L161.18,189.679c-3.797,0-6.865-3.072-6.865-6.864c0-3.793,3.068-6.869,6.865-6.869
	c3.788,0,6.864,3.076,6.864,6.869C168.044,186.606,164.968,189.679,161.18,189.679L161.18,189.679z M97.062,189.679L97.062,189.679
	c-3.794,0-6.864-3.072-6.864-6.864c0-3.793,3.07-6.869,6.864-6.869c3.791,0,6.867,3.076,6.867,6.869
	C103.928,186.606,100.852,189.679,97.062,189.679L97.062,189.679z M59.274,189.679L59.274,189.679c-3.796,0-6.868-3.072-6.868-6.864
	c0-3.793,3.072-6.869,6.868-6.869c3.789,0,6.867,3.076,6.867,6.869C66.141,186.606,63.063,189.679,59.274,189.679L59.274,189.679z
	 M96.978,199.237L96.978,199.237c-9.078,0-16.422-7.354-16.422-16.423c0-9.07,7.345-16.423,16.422-16.423
	c9.062,0,16.418,7.353,16.418,16.423C113.396,191.884,106.04,199.237,96.978,199.237L96.978,199.237z M161.18,199.237
	L161.18,199.237c-9.078,0-16.419-7.354-16.419-16.423c0-9.07,7.341-16.423,16.419-16.423c9.062,0,16.422,7.353,16.422,16.423
	C177.602,191.884,170.241,199.237,161.18,199.237L161.18,199.237z"/>
</svg>
