<?xml version="1.0" encoding="utf-8"?>
<!DOCTYPE svg PUBLIC "-//W3C//DTD SVG 1.1//EN" "http://www.w3.org/Graphics/SVG/1.1/DTD/svg11.dtd">
<svg version="1.1" xmlns="http://www.w3.org/2000/svg" xmlns:xlink="http://www.w3.org/1999/xlink" x="0px" y="0px" width="216px" height="216px" viewBox="0 0 216 216" enable-background="new 0 0 216 216" xml:space="preserve">
<path fill-rule="evenodd" clip-rule="evenodd" d="M16.119-0.08h183.602
	c8.911,0,16.199,7.29,16.199,16.199v183.602c0,8.907-7.288,16.199-16.199,16.199H16.119c-8.909,0-16.199-7.292-16.199-16.199V16.119
	C-0.08,7.209,7.209-0.08,16.119-0.08L16.119-0.08z M16.119,4.918h183.602c6.161,0,11.198,5.04,11.198,11.2v183.602
	c0,6.161-5.037,11.198-11.198,11.198H16.119c-6.161,0-11.2-5.037-11.2-11.198V16.119C4.918,9.958,9.958,4.918,16.119,4.918
	L16.119,4.918z M26.169,176.507h9.2c2.792-10.742,12.557-18.677,24.178-18.677c7.135,0,13.572,2.999,18.125,7.801
	c4.734-5.318,11.627-8.663,19.305-8.663c12.093,0,22.25,8.317,25.065,19.539h14.063c2.816-11.226,12.973-19.539,25.074-19.539
	c12.093,0,22.253,8.317,25.068,19.539h7.898c3.194,0,5.803-3.056,5.803-6.25v-15.693H20.367v16.146
	C20.367,173.895,22.977,176.507,26.169,176.507L26.169,176.507z M199.949,144.476L199.949,144.476v-18.359v-10.266l-24.023-35.714
	c-1.774-2.645-2.617-5.811-5.799-5.803l-28.589,0.102v45.374c0,10.457-8.488,18.945-18.949,18.945H20.367v5.721H199.949
	L199.949,144.476z M155.471,85.05L155.471,85.05h10.66c1.352,0,1.742,1.313,2.458,2.454l18.018,28.794
	c0.716,1.144-1.11,2.454-2.458,2.454h-28.678c-1.352,0-2.458-1.107-2.458-2.454V87.503C153.013,86.155,154.119,85.05,155.471,85.05
	L155.471,85.05z"/>
</svg>
