<?xml version="1.0" encoding="utf-8"?>
<!DOCTYPE svg PUBLIC "-//W3C//DTD SVG 1.1//EN" "http://www.w3.org/Graphics/SVG/1.1/DTD/svg11.dtd">
<svg version="1.1" xmlns="http://www.w3.org/2000/svg" xmlns:xlink="http://www.w3.org/1999/xlink" x="0px" y="0px" width="216px" height="216px" viewBox="0 0 216 216" enable-background="new 0 0 216 216" xml:space="preserve">
<path fill-rule="evenodd" clip-rule="evenodd" d="M29.982,17.093h85.343
	c6.706,0,12.187,5.485,12.187,12.193v84.501c0,6.702-5.48,12.191-12.187,12.191H29.982c-6.706,0-12.191-5.489-12.191-12.191V29.286
	C17.791,22.578,23.276,17.093,29.982,17.093L29.982,17.093z M36.114,113.186L36.114,113.186l17.749-84.793h17.412l-14.746,70.62
	h43.138l-2.942,14.173H36.114L36.114,113.186z M92.156,29.794L92.156,29.794h7.07l17.279,26.127c0.081,0.087,0.081,0.203,0,0.309
	L99.227,82.358h-7.07l17.381-26.282L92.156,29.794L92.156,29.794z M77.418,29.794L77.418,29.794h7.072l17.277,26.127
	c0.081,0.087,0.081,0.203,0,0.309L84.49,82.358h-7.072l17.383-26.282L77.418,29.794L77.418,29.794z M20.419,146.999L20.419,146.999
	h179.712v5.041H20.419V146.999L20.419,146.999z"/>
</svg>
