<?xml version="1.0" encoding="utf-8"?>
<!DOCTYPE svg PUBLIC "-//W3C//DTD SVG 1.1//EN" "http://www.w3.org/Graphics/SVG/1.1/DTD/svg11.dtd">
<svg version="1.1" xmlns="http://www.w3.org/2000/svg" xmlns:xlink="http://www.w3.org/1999/xlink" x="0px" y="0px" width="216px" height="216px" viewBox="0 0 216 216" enable-background="new 0 0 216 216" xml:space="preserve">
<path id="_x33_" fill-rule="evenodd" clip-rule="evenodd" fill="#F58031" d="M29.982,17.093h85.343
	c6.706,0,12.187,5.485,12.187,12.193v84.501c0,6.702-5.48,12.191-12.187,12.191H29.982c-6.706,0-12.191-5.489-12.191-12.191V29.286
	C17.791,22.578,23.276,17.093,29.982,17.093L29.982,17.093z M36.114,113.186L36.114,113.186l17.749-84.793h17.412l-14.746,70.62
	h43.138l-2.942,14.173H36.114L36.114,113.186z M92.156,29.794L92.156,29.794h7.07l17.279,26.127c0.081,0.087,0.081,0.203,0,0.309
	L99.227,82.358h-7.07l17.381-26.282L92.156,29.794L92.156,29.794z M77.418,29.794L77.418,29.794h7.072l17.277,26.127
	c0.081,0.087,0.081,0.203,0,0.309L84.49,82.358h-7.072l17.383-26.282L77.418,29.794L77.418,29.794z M20.419,146.999L20.419,146.999
	h179.712v5.041H20.419V146.999L20.419,146.999z"/>
<path id="_x32_" fill-rule="evenodd" clip-rule="evenodd" fill="#999557" d="M16.119-0.08h183.602
	c8.911,0,16.199,7.29,16.199,16.199v183.602c0,8.907-7.288,16.199-16.199,16.199H16.119c-8.909,0-16.199-7.292-16.199-16.199V16.119
	C-0.08,7.209,7.209-0.08,16.119-0.08L16.119-0.08z M16.119,4.918h183.602c6.161,0,11.198,5.04,11.198,11.2v183.602
	c0,6.161-5.037,11.198-11.198,11.198H16.119c-6.161,0-11.2-5.037-11.2-11.198V16.119C4.918,9.958,9.958,4.918,16.119,4.918
	L16.119,4.918z M26.169,176.507h9.2c2.792-10.742,12.557-18.677,24.178-18.677c7.135,0,13.572,2.999,18.125,7.801
	c4.734-5.318,11.627-8.663,19.305-8.663c12.093,0,22.25,8.317,25.065,19.539h14.063c2.816-11.226,12.973-19.539,25.074-19.539
	c12.093,0,22.253,8.317,25.068,19.539h7.898c3.194,0,5.803-3.056,5.803-6.25v-15.693H20.367v16.146
	C20.367,173.895,22.977,176.507,26.169,176.507L26.169,176.507z M199.949,144.476L199.949,144.476v-18.359v-10.266l-24.023-35.714
	c-1.774-2.645-2.617-5.811-5.799-5.803l-28.589,0.102v45.374c0,10.457-8.488,18.945-18.949,18.945H20.367v5.721H199.949
	L199.949,144.476z M155.471,85.05L155.471,85.05h10.66c1.352,0,1.742,1.313,2.458,2.454l18.018,28.794
	c0.716,1.144-1.11,2.454-2.458,2.454h-28.678c-1.352,0-2.458-1.107-2.458-2.454V87.503C153.013,86.155,154.119,85.05,155.471,85.05
	L155.471,85.05z"/>
<path id="_x31_" fill-rule="evenodd" clip-rule="evenodd" fill="#7E5628" d="M59.547,199.237c-9.076,0-16.423-7.354-16.423-16.423
	c0-9.07,7.347-16.423,16.423-16.423c9.062,0,16.422,7.353,16.422,16.423C75.97,191.884,68.609,199.237,59.547,199.237
	L59.547,199.237z M161.18,189.679L161.18,189.679c-3.797,0-6.865-3.072-6.865-6.864c0-3.793,3.068-6.869,6.865-6.869
	c3.788,0,6.864,3.076,6.864,6.869C168.044,186.606,164.968,189.679,161.18,189.679L161.18,189.679z M97.062,189.679L97.062,189.679
	c-3.794,0-6.864-3.072-6.864-6.864c0-3.793,3.07-6.869,6.864-6.869c3.791,0,6.867,3.076,6.867,6.869
	C103.928,186.606,100.852,189.679,97.062,189.679L97.062,189.679z M59.274,189.679L59.274,189.679c-3.796,0-6.868-3.072-6.868-6.864
	c0-3.793,3.072-6.869,6.868-6.869c3.789,0,6.867,3.076,6.867,6.869C66.141,186.606,63.063,189.679,59.274,189.679L59.274,189.679z
	 M96.978,199.237L96.978,199.237c-9.078,0-16.422-7.354-16.422-16.423c0-9.07,7.345-16.423,16.422-16.423
	c9.062,0,16.418,7.353,16.418,16.423C113.396,191.884,106.04,199.237,96.978,199.237L96.978,199.237z M161.18,199.237
	L161.18,199.237c-9.078,0-16.419-7.354-16.419-16.423c0-9.07,7.341-16.423,16.419-16.423c9.062,0,16.422,7.353,16.422,16.423
	C177.602,191.884,170.241,199.237,161.18,199.237L161.18,199.237z"/>
</svg>
