<?xml version="1.0" encoding="utf-8"?>
<!DOCTYPE svg PUBLIC "-//W3C//DTD SVG 1.1//EN" "http://www.w3.org/Graphics/SVG/1.1/DTD/svg11.dtd">
<svg version="1.1" xmlns="http://www.w3.org/2000/svg" xmlns:xlink="http://www.w3.org/1999/xlink" x="0px" y="0px" width="216px" height="216px" viewBox="0 0 216 216" enable-background="new 0 0 216 216" xml:space="preserve">
<path fill-rule="evenodd" clip-rule="evenodd" d="M54.164,168.174L54.164,168.174
	c-1.634-0.854-2.783-2.274-3.339-3.894l-2.539,0.699c1.538,4.163,13.813,22.522,17.662,24.549c1.074-2.543,1.245-26.07,0.509-29.525
	l-2.238,0.619c0.313,1.518,0.122,3.149-0.655,4.63C61.775,168.654,57.565,169.964,54.164,168.174L54.164,168.174z M80.022,183.6
	c-6.75,6.722-18.921,11.369-27.169,9.607c0.098-0.2,0.181-0.399,0.254-0.615c1.07-3.06-0.547-6.416-3.609-7.482
	c-3.064-1.07-6.415,0.545-7.485,3.609c-0.081,0.22-0.142,0.439-0.189,0.663c-10.773-4.96-18.347-20.984-15.996-32.227
	c0.346,0.203,0.714,0.374,1.105,0.509c3.07,1.058,6.413-0.582,7.467-3.65c1.052-3.068-0.58-6.413-3.65-7.467
	c-0.342-0.113-0.682-0.199-1.021-0.252c5.715-10.209,20.939-18.136,32.465-15.3c-0.045,0.114-0.09,0.232-0.134,0.351
	c-1.07,3.063,0.545,6.416,3.609,7.486c3.066,1.07,6.415-0.545,7.485-3.609l0.028-0.073c2.075,1.221,4.032,2.779,5.811,4.578v-10.148
	c-2.694-1.807-5.662-3.308-8.871-4.427c-20.314-7.101-42.545,3.617-49.646,23.934c-7.099,20.313,3.619,42.546,23.936,49.646
	c13.861,4.842,28.62,1.388,38.853-7.756l-1.07-2.462C81.522,186.973,80.751,185.32,80.022,183.6L80.022,183.6z M171.385,192.702
	L171.385,192.702h11.922v6.104c0,1.807-1.477,3.288-3.288,3.288h-5.351c-1.807,0-3.283-1.481-3.283-3.288V192.702L171.385,192.702z
	 M99.324,192.702h11.924v6.104c0,1.807-1.477,3.288-3.288,3.288h-5.351c-1.809,0-3.286-1.481-3.286-3.288V192.702L99.324,192.702z
	 M159.222,35.556L159.222,35.556v21.021h9.795V35.556H159.222L159.222,35.556z M113.25,35.556L113.25,35.556v21.021h10.551V35.556
	H113.25L113.25,35.556z"/>
</svg>
