<?xml version="1.0" encoding="utf-8"?>
<!DOCTYPE svg PUBLIC "-//W3C//DTD SVG 1.1//EN" "http://www.w3.org/Graphics/SVG/1.1/DTD/svg11.dtd">
<svg version="1.1" xmlns="http://www.w3.org/2000/svg" xmlns:xlink="http://www.w3.org/1999/xlink" x="0px" y="0px" width="216px" height="216px" viewBox="0 0 216 216" enable-background="new 0 0 216 216" xml:space="preserve">
<path id="_x33_" fill-rule="evenodd" clip-rule="evenodd" fill="#F58031" d="M107.973,24.391v4.522c0,1.483,0.887,2.604,2.218,2.924
	h62.712c1.388-0.708,2.145-1.986,2.145-4.433v-2.261c0-2.539-1.335-5.273-3.769-5.273h-60.29
	C108.67,19.87,107.973,22.076,107.973,24.391L107.973,24.391z M151.312,158.168L151.312,158.168l8.317-31.885l2.771-16.638
	l2.079-9.011C164.479,119.553,161.009,151.063,151.312,158.168L151.312,158.168z M180.422,168.568L180.422,168.568
	c-13.392,0-30.014,1.733-35.319-6.083l3.435-0.851l38.814-3.467h2.083C189.435,163.067,183.881,166.168,180.422,168.568
	L180.422,168.568z M167.946,105.486L167.946,105.486c10.596,15.824,17.33,22.396,17.33,49.215v2.775l-1.388-0.691
	c-1.981-1.05-5.363-2.775-8.317-2.775c-5.054,0-9.127,0.565-13.171,2.079l-11.089,4.158v-0.691c3.076-1.814,5.579-3.935,7.622-7.625
	c5.375-10.156,9.704-15.17,9.704-31.193c0-7.308-1.51-11.604-2.771-16.675l-1.262-3.066L167.946,105.486L167.946,105.486z
	 M176.552,66.743L176.552,66.743c5.444,0.452,10.718,5.841,12.813,9.796l3.016,6.785v-3.77c0-9.869,0.105-10.211-6.026-14.319
	h-12.817L176.552,66.743L176.552,66.743z M111.742,145.119L111.742,145.119c-0.337-7.219,2.184-22.812,3.904-28.5
	c2.271-7.507,8.907-16.109,8.907-23.498c-18.054,12.089-21.854,50.398-21.854,81.393l-8.569,6.445
	c6.806-1.185,11.452-6.445,21.379-6.445h9.798c13.514,0,25.306,6.779,41.451,6.779h2.259c6.185,0,18.021-3.602,20.349-6.779
	l-6.771,0.842c-12.744,1.819-38.176-9.135-54.272-9.135h-5.278c-4.59,0-6.889,1.412-10.551,2.263L111.742,145.119L111.742,145.119z
	 M127.565,111.96L127.565,111.96c0,2.234,1.509,2.015,1.509,5.278c0,2.237-1.509,2.014-1.509,5.273v8.288
	c4.695-1.253,9.049-8.406,9.049-14.318v-5.273c0-6.476-4.329-19.141-9.802-19.597v5.277l-0.753,6.028
	c1.131,1.69,3.015,2.647,3.015,4.522C129.074,109.501,127.565,109.897,127.565,111.96L127.565,111.96z M124.969,89.796
	L124.969,89.796l-5.688-0.445c-12.105,0-26.379,10.706-26.379,22.609c0,1.592,0.273,0.997,0.753,3.016
	c2.157-1.579,2.12-2.552,5.609-4.944c3.318-2.278,1.794-3.552,4.333-5.46c3.776-2.84,2.126,1.623,6.166-4.387
	c1.543-2.291,3.895-3.04,6.267-2.041L124.969,89.796L124.969,89.796z M156.545,117.637L156.545,117.637
	c2.014-19.635-11.198-26.001-28.012-29.375l7.589,9.929l4.261,0.204c2.254,3.371,1.68,4.968,4.956,6.35
	c3.182,1.343,3.991,2.366,4.081,6.464L156.545,117.637L156.545,117.637z M105.712,78.047L105.712,78.047
	c-3.394,0-7.542,2.48-8.289,5.278l13.606,1.011c1.363,0.614,1.367,0.218,2.22-0.261l3.422,2.543l8.639,0.431
	c-1.151-4.256-10.445-9.003-15.83-9.003H105.712L105.712,78.047z M158.465,88.598L158.465,88.598l-0.748-3.015
	c-3.613-2.415-7.499-5.273-13.57-5.273c-5.607,0-12.012,2.586-14.319,6.028l8.374,0.942c1.217-0.303,1.327-1.001,2.934-0.942
	l7.521,0.421L158.465,88.598L158.465,88.598z M129.074,79.555L129.074,79.555c0-5.41-1.777-7.192-5.236-9.049l2.864,15.853
	c1.636-1.139,2.372-1.751,2.372-4.543V79.555L129.074,79.555z M197.288,69.439L197.288,69.439l0.357,0.206v5.196
	c0.033,1.981,0.009,4.075,0.009,6.222l-0.009-0.004v44.477l0.009-0.009c0,13.062,0,26.123,0,39.188
	c0,14.229,1.497,25.623-12.813,25.623H98.177c-7.275,0-12.812-3.349-12.812-10.551V69.004c0-4.252,4.576-9.042,9.043-9.042h92.695
	C194.143,59.962,196.502,63.795,197.288,69.439L197.288,69.439z M50.825,164.28L50.825,164.28c-0.604-1.75-0.515-3.735,0.417-5.502
	c1.789-3.401,5.996-4.708,9.397-2.926c1.921,1.014,3.174,2.796,3.579,4.77l2.238-0.619c-0.016-0.077-0.033-0.154-0.051-0.207
	c-0.816-2.601-14.553-23.34-16.62-24.427l-1.217-0.639c-1.188,2.8-1.223,27.291-0.352,30.038l0.069,0.211L50.825,164.28
	L50.825,164.28z"/>
<path id="_x32_" fill-rule="evenodd" clip-rule="evenodd" fill="#999557" d="M16.119-0.08h183.602
	c8.911,0,16.199,7.29,16.199,16.199v183.602c0,8.907-7.288,16.199-16.199,16.199H16.119c-8.909,0-16.199-7.292-16.199-16.199V16.119
	C-0.08,7.209,7.209-0.08,16.119-0.08L16.119-0.08z M16.119,4.918h183.602c6.161,0,11.198,5.04,11.198,11.2v183.602
	c0,6.161-5.037,11.198-11.198,11.198H16.119c-6.161,0-11.2-5.037-11.2-11.198V16.119C4.918,9.958,9.958,4.918,16.119,4.918
	L16.119,4.918z M52.056,39.937L52.056,39.937c0.01,0.031,0.016,0.065,0.021,0.1C52.072,40.002,52.066,39.967,52.056,39.937
	L52.056,39.937z M52.018,39.829L52.018,39.829c0.016,0.036,0.028,0.071,0.039,0.105C52.046,39.9,52.034,39.865,52.018,39.829
	L52.018,39.829z M48.972,36.028L48.972,36.028c0.376,0.763,0.822,1.367,1.255,1.859C49.794,37.396,49.348,36.792,48.972,36.028
	L48.972,36.028z M48.699,35.42L48.699,35.42c0.063,0.155,0.128,0.307,0.195,0.45C48.828,35.725,48.764,35.577,48.699,35.42
	L48.699,35.42z M48.518,34.924L48.518,34.924c0.055,0.171,0.116,0.335,0.181,0.494C48.634,35.259,48.573,35.095,48.518,34.924
	L48.518,34.924z M48.27,34.024L48.27,34.024c0.042,0.189,0.089,0.372,0.14,0.545C48.357,34.395,48.313,34.213,48.27,34.024
	L48.27,34.024z M47.151,34.061L47.151,34.061l1.074-0.246c11.271-2.324,22.209,3.501,24.799,13.436
	c2.082,7.975-1.825,16.264-9.121,21.028c1.886-0.35,3.286-0.522,3.741-0.419l0.651,3.263l-21.729,5.933
	c-0.374-0.769-1.047-1.798-1.047-2.655c0-0.576,1.458-1.357,3.627-2.171C40.321,71.748,32.708,66.39,30.6,58.318
	c-2.689-10.309,4.626-21.151,16.339-24.207L47.151,34.061L47.151,34.061z M24.33,53.716L24.33,53.716
	c-1.174-1.69-4.995-15.951-4.085-17.684c1.054-2.004,13.383-5.249,16.699-5.521c-5.753,5.001-13.117,5.036-13.117,17.655v1.011
	L24.33,53.716L24.33,53.716z M70.745,16.888L70.745,16.888c-5.579,0-33.36,8.724-40.863,10.596
	c-3.613,0.899-6.744,1.839-10.292,2.824c-4.393,1.221-5.985,1.428-4.649,6.551c1.846,7.058,3.703,13.267,5.457,20.288
	c3.345,13.397,7.566,27.224,10.897,40.564c2.926,11.723,1.646,12.083,12.807,9.074c11.796-3.178,23.517-6.374,35.23-9.751V86.441
	l-7.042,1.628c-3.117-3.282-5.119-6.606-10.12-6.606h-0.505c-6.02,0-10.089,5.489-10.089,11.607v2.016
	c-1.67,0.391-9.584,3.544-9.584,1.516c0-0.373,2.724-7.351,3.229-9.383c0.822-3.331,0.968-7.422,3.809-8.301
	c4.085-1.268,15.631-4.682,19.7-5.019l1.941,1.599c2.332,1.676,5.477,4.936,8.661,7.92V67.812c0-3.705,1.973-7.328,4.873-9.814
	l-7.603-27.79C75.771,26.818,74.189,16.888,70.745,16.888L70.745,16.888z M47.151,34.061l0.482,3.5
	c0.154,1.825-1.103,1.983-1.103,3.544c0,1.577,0.906,1.43,2.019,2.018c0,4.916,0.415,5.512,4.671,3.479l-1.644-3.983
	c0.265-1.133,0.504-1.162,0.504-2.523c0-1.031-2.999-2.044-3.855-6.28C48.266,33.807,47.766,33.913,47.151,34.061L47.151,34.061z
	 M47.035,51.698L47.035,51.698c0-1.888,6.767-3.109,8.577-3.532l1.255,2.938C54.817,51.615,47.035,54.762,47.035,51.698
	L47.035,51.698z M49.053,56.744L49.053,56.744c0.021-1.522,3.762-2.325,5.949-2.783c1.058-0.222,1.105-0.393,1.797,0.499
	c1.929,2.482,6.382,10.036,6.382,11.367c0,0.964-12.252,3.88-14.128,4.035V56.744L49.053,56.744z M50.415,58.563L50.415,58.563
	c0-1.607,1.705-2.838,3.31-2.838c2.854,0.598,2.755,2.999,4.156,5.206c0.376,0.592,0.676,1.587-0.511,2.25
	c-0.936,0.452-2.763,1.166-4.732,1.355c-1.262,0.12-2.224-0.159-2.224-1.27V58.563L50.415,58.563z"/>
<path id="_x31_" fill-rule="evenodd" clip-rule="evenodd" fill="#7E5628" d="M54.164,168.174L54.164,168.174
	c-1.634-0.854-2.783-2.274-3.339-3.894l-2.539,0.699c1.538,4.163,13.813,22.522,17.662,24.549c1.074-2.543,1.245-26.07,0.509-29.525
	l-2.238,0.619c0.313,1.518,0.122,3.149-0.655,4.63C61.775,168.654,57.565,169.964,54.164,168.174L54.164,168.174z M80.022,183.6
	c-6.75,6.722-18.921,11.369-27.169,9.607c0.098-0.2,0.181-0.399,0.254-0.615c1.07-3.06-0.547-6.416-3.609-7.482
	c-3.064-1.07-6.415,0.545-7.485,3.609c-0.081,0.22-0.142,0.439-0.189,0.663c-10.773-4.96-18.347-20.984-15.996-32.227
	c0.346,0.203,0.714,0.374,1.105,0.509c3.07,1.058,6.413-0.582,7.467-3.65c1.052-3.068-0.58-6.413-3.65-7.467
	c-0.342-0.113-0.682-0.199-1.021-0.252c5.715-10.209,20.939-18.136,32.465-15.3c-0.045,0.114-0.09,0.232-0.134,0.351
	c-1.07,3.063,0.545,6.416,3.609,7.486c3.066,1.07,6.415-0.545,7.485-3.609l0.028-0.073c2.075,1.221,4.032,2.779,5.811,4.578v-10.148
	c-2.694-1.807-5.662-3.308-8.871-4.427c-20.314-7.101-42.545,3.617-49.646,23.934c-7.099,20.313,3.619,42.546,23.936,49.646
	c13.861,4.842,28.62,1.388,38.853-7.756l-1.07-2.462C81.522,186.973,80.751,185.32,80.022,183.6L80.022,183.6z M171.385,192.702
	L171.385,192.702h11.922v6.104c0,1.807-1.477,3.288-3.288,3.288h-5.351c-1.807,0-3.283-1.481-3.283-3.288V192.702L171.385,192.702z
	 M99.324,192.702h11.924v6.104c0,1.807-1.477,3.288-3.288,3.288h-5.351c-1.809,0-3.286-1.481-3.286-3.288V192.702L99.324,192.702z
	 M159.222,35.556L159.222,35.556v21.021h9.795V35.556H159.222L159.222,35.556z M113.25,35.556L113.25,35.556v21.021h10.551V35.556
	H113.25L113.25,35.556z"/>
</svg>
