<?xml version="1.0" encoding="utf-8"?>
<!DOCTYPE svg PUBLIC "-//W3C//DTD SVG 1.1//EN" "http://www.w3.org/Graphics/SVG/1.1/DTD/svg11.dtd">
<svg version="1.1" xmlns="http://www.w3.org/2000/svg" xmlns:xlink="http://www.w3.org/1999/xlink" x="0px" y="0px" width="216px" height="216px" viewBox="0 0 216 216" enable-background="new 0 0 216 216" xml:space="preserve">
<path fill-rule="evenodd" clip-rule="evenodd" d="M107.973,24.391v4.522c0,1.483,0.887,2.604,2.218,2.924
	h62.712c1.388-0.708,2.145-1.986,2.145-4.433v-2.261c0-2.539-1.335-5.273-3.769-5.273h-60.29
	C108.67,19.87,107.973,22.076,107.973,24.391L107.973,24.391z M151.312,158.168L151.312,158.168l8.317-31.885l2.771-16.638
	l2.079-9.011C164.479,119.553,161.009,151.063,151.312,158.168L151.312,158.168z M180.422,168.568L180.422,168.568
	c-13.392,0-30.014,1.733-35.319-6.083l3.435-0.851l38.814-3.467h2.083C189.435,163.067,183.881,166.168,180.422,168.568
	L180.422,168.568z M167.946,105.486L167.946,105.486c10.596,15.824,17.33,22.396,17.33,49.215v2.775l-1.388-0.691
	c-1.981-1.05-5.363-2.775-8.317-2.775c-5.054,0-9.127,0.565-13.171,2.079l-11.089,4.158v-0.691c3.076-1.814,5.579-3.935,7.622-7.625
	c5.375-10.156,9.704-15.17,9.704-31.193c0-7.308-1.51-11.604-2.771-16.675l-1.262-3.066L167.946,105.486L167.946,105.486z
	 M176.552,66.743L176.552,66.743c5.444,0.452,10.718,5.841,12.813,9.796l3.016,6.785v-3.77c0-9.869,0.105-10.211-6.026-14.319
	h-12.817L176.552,66.743L176.552,66.743z M111.742,145.119L111.742,145.119c-0.337-7.219,2.184-22.812,3.904-28.5
	c2.271-7.507,8.907-16.109,8.907-23.498c-18.054,12.089-21.854,50.398-21.854,81.393l-8.569,6.445
	c6.806-1.185,11.452-6.445,21.379-6.445h9.798c13.514,0,25.306,6.779,41.451,6.779h2.259c6.185,0,18.021-3.602,20.349-6.779
	l-6.771,0.842c-12.744,1.819-38.176-9.135-54.272-9.135h-5.278c-4.59,0-6.889,1.412-10.551,2.263L111.742,145.119L111.742,145.119z
	 M127.565,111.96L127.565,111.96c0,2.234,1.509,2.015,1.509,5.278c0,2.237-1.509,2.014-1.509,5.273v8.288
	c4.695-1.253,9.049-8.406,9.049-14.318v-5.273c0-6.476-4.329-19.141-9.802-19.597v5.277l-0.753,6.028
	c1.131,1.69,3.015,2.647,3.015,4.522C129.074,109.501,127.565,109.897,127.565,111.96L127.565,111.96z M124.969,89.796
	L124.969,89.796l-5.688-0.445c-12.105,0-26.379,10.706-26.379,22.609c0,1.592,0.273,0.997,0.753,3.016
	c2.157-1.579,2.12-2.552,5.609-4.944c3.318-2.278,1.794-3.552,4.333-5.46c3.776-2.84,2.126,1.623,6.166-4.387
	c1.543-2.291,3.895-3.04,6.267-2.041L124.969,89.796L124.969,89.796z M156.545,117.637L156.545,117.637
	c2.014-19.635-11.198-26.001-28.012-29.375l7.589,9.929l4.261,0.204c2.254,3.371,1.68,4.968,4.956,6.35
	c3.182,1.343,3.991,2.366,4.081,6.464L156.545,117.637L156.545,117.637z M105.712,78.047L105.712,78.047
	c-3.394,0-7.542,2.48-8.289,5.278l13.606,1.011c1.363,0.614,1.367,0.218,2.22-0.261l3.422,2.543l8.639,0.431
	c-1.151-4.256-10.445-9.003-15.83-9.003H105.712L105.712,78.047z M158.465,88.598L158.465,88.598l-0.748-3.015
	c-3.613-2.415-7.499-5.273-13.57-5.273c-5.607,0-12.012,2.586-14.319,6.028l8.374,0.942c1.217-0.303,1.327-1.001,2.934-0.942
	l7.521,0.421L158.465,88.598L158.465,88.598z M129.074,79.555L129.074,79.555c0-5.41-1.777-7.192-5.236-9.049l2.864,15.853
	c1.636-1.139,2.372-1.751,2.372-4.543V79.555L129.074,79.555z M197.288,69.439L197.288,69.439l0.357,0.206v5.196
	c0.033,1.981,0.009,4.075,0.009,6.222l-0.009-0.004v44.477l0.009-0.009c0,13.062,0,26.123,0,39.188
	c0,14.229,1.497,25.623-12.813,25.623H98.177c-7.275,0-12.812-3.349-12.812-10.551V69.004c0-4.252,4.576-9.042,9.043-9.042h92.695
	C194.143,59.962,196.502,63.795,197.288,69.439L197.288,69.439z M50.825,164.28L50.825,164.28c-0.604-1.75-0.515-3.735,0.417-5.502
	c1.789-3.401,5.996-4.708,9.397-2.926c1.921,1.014,3.174,2.796,3.579,4.77l2.238-0.619c-0.016-0.077-0.033-0.154-0.051-0.207
	c-0.816-2.601-14.553-23.34-16.62-24.427l-1.217-0.639c-1.188,2.8-1.223,27.291-0.352,30.038l0.069,0.211L50.825,164.28
	L50.825,164.28z"/>
</svg>
