<?xml version="1.0" encoding="utf-8"?>
<!DOCTYPE svg PUBLIC "-//W3C//DTD SVG 1.1//EN" "http://www.w3.org/Graphics/SVG/1.1/DTD/svg11.dtd">
<svg version="1.1" xmlns="http://www.w3.org/2000/svg" xmlns:xlink="http://www.w3.org/1999/xlink" x="0px" y="0px" width="216px" height="216px" viewBox="0 0 216 216" enable-background="new 0 0 216 216" xml:space="preserve">
<path fill-rule="evenodd" clip-rule="evenodd" d="M16.119-0.08h183.602
	c8.911,0,16.199,7.29,16.199,16.199v183.602c0,8.907-7.288,16.199-16.199,16.199H16.119c-8.909,0-16.199-7.292-16.199-16.199V16.119
	C-0.08,7.209,7.209-0.08,16.119-0.08L16.119-0.08z M16.119,4.918h183.602c6.161,0,11.198,5.04,11.198,11.2v183.602
	c0,6.161-5.037,11.198-11.198,11.198H16.119c-6.161,0-11.2-5.037-11.2-11.198V16.119C4.918,9.958,9.958,4.918,16.119,4.918
	L16.119,4.918z M52.056,39.937L52.056,39.937c0.01,0.031,0.016,0.065,0.021,0.1C52.072,40.002,52.066,39.967,52.056,39.937
	L52.056,39.937z M52.018,39.829L52.018,39.829c0.016,0.036,0.028,0.071,0.039,0.105C52.046,39.9,52.034,39.865,52.018,39.829
	L52.018,39.829z M48.972,36.028L48.972,36.028c0.376,0.763,0.822,1.367,1.255,1.859C49.794,37.396,49.348,36.792,48.972,36.028
	L48.972,36.028z M48.699,35.42L48.699,35.42c0.063,0.155,0.128,0.307,0.195,0.45C48.828,35.725,48.764,35.577,48.699,35.42
	L48.699,35.42z M48.518,34.924L48.518,34.924c0.055,0.171,0.116,0.335,0.181,0.494C48.634,35.259,48.573,35.095,48.518,34.924
	L48.518,34.924z M48.27,34.024L48.27,34.024c0.042,0.189,0.089,0.372,0.14,0.545C48.357,34.395,48.313,34.213,48.27,34.024
	L48.27,34.024z M47.151,34.061L47.151,34.061l1.074-0.246c11.271-2.324,22.209,3.501,24.799,13.436
	c2.082,7.975-1.825,16.264-9.121,21.028c1.886-0.35,3.286-0.522,3.741-0.419l0.651,3.263l-21.729,5.933
	c-0.374-0.769-1.047-1.798-1.047-2.655c0-0.576,1.458-1.357,3.627-2.171C40.321,71.748,32.708,66.39,30.6,58.318
	c-2.689-10.309,4.626-21.151,16.339-24.207L47.151,34.061L47.151,34.061z M24.33,53.716L24.33,53.716
	c-1.174-1.69-4.995-15.951-4.085-17.684c1.054-2.004,13.383-5.249,16.699-5.521c-5.753,5.001-13.117,5.036-13.117,17.655v1.011
	L24.33,53.716L24.33,53.716z M70.745,16.888L70.745,16.888c-5.579,0-33.36,8.724-40.863,10.596
	c-3.613,0.899-6.744,1.839-10.292,2.824c-4.393,1.221-5.985,1.428-4.649,6.551c1.846,7.058,3.703,13.267,5.457,20.288
	c3.345,13.397,7.566,27.224,10.897,40.564c2.926,11.723,1.646,12.083,12.807,9.074c11.796-3.178,23.517-6.374,35.23-9.751V86.441
	l-7.042,1.628c-3.117-3.282-5.119-6.606-10.12-6.606h-0.505c-6.02,0-10.089,5.489-10.089,11.607v2.016
	c-1.67,0.391-9.584,3.544-9.584,1.516c0-0.373,2.724-7.351,3.229-9.383c0.822-3.331,0.968-7.422,3.809-8.301
	c4.085-1.268,15.631-4.682,19.7-5.019l1.941,1.599c2.332,1.676,5.477,4.936,8.661,7.92V67.812c0-3.705,1.973-7.328,4.873-9.814
	l-7.603-27.79C75.771,26.818,74.189,16.888,70.745,16.888L70.745,16.888z M47.151,34.061l0.482,3.5
	c0.154,1.825-1.103,1.983-1.103,3.544c0,1.577,0.906,1.43,2.019,2.018c0,4.916,0.415,5.512,4.671,3.479l-1.644-3.983
	c0.265-1.133,0.504-1.162,0.504-2.523c0-1.031-2.999-2.044-3.855-6.28C48.266,33.807,47.766,33.913,47.151,34.061L47.151,34.061z
	 M47.035,51.698L47.035,51.698c0-1.888,6.767-3.109,8.577-3.532l1.255,2.938C54.817,51.615,47.035,54.762,47.035,51.698
	L47.035,51.698z M49.053,56.744L49.053,56.744c0.021-1.522,3.762-2.325,5.949-2.783c1.058-0.222,1.105-0.393,1.797,0.499
	c1.929,2.482,6.382,10.036,6.382,11.367c0,0.964-12.252,3.88-14.128,4.035V56.744L49.053,56.744z M50.415,58.563L50.415,58.563
	c0-1.607,1.705-2.838,3.31-2.838c2.854,0.598,2.755,2.999,4.156,5.206c0.376,0.592,0.676,1.587-0.511,2.25
	c-0.936,0.452-2.763,1.166-4.732,1.355c-1.262,0.12-2.224-0.159-2.224-1.27V58.563L50.415,58.563z"/>
</svg>
