<?xml version="1.0" encoding="utf-8"?>
<!DOCTYPE svg PUBLIC "-//W3C//DTD SVG 1.1//EN" "http://www.w3.org/Graphics/SVG/1.1/DTD/svg11.dtd">
<svg version="1.1" xmlns="http://www.w3.org/2000/svg" xmlns:xlink="http://www.w3.org/1999/xlink" x="0px" y="0px" width="216px" height="216px" viewBox="0 0 216 216" enable-background="new 0 0 216 216" xml:space="preserve">
<path id="_x33_" fill-rule="evenodd" clip-rule="evenodd" fill="#F58031" d="M58.768,78.608h5.786l-34.41,118.476H15.708
	L58.768,78.608L58.768,78.608z M156.37,78.608L156.37,78.608h-5.782l34.407,118.476h14.441L156.37,78.608L156.37,78.608z
	 M16.379,43.373L16.379,43.373h181.157v5.159h-19.869v5.18h-6.819v-5.18H156.78v5.18h-6.819v-5.18h-17.473v5.18h-6.819v-5.18
	h-15.343v5.18h-6.819v-5.18H86.033v5.18h-6.82v-5.18H61.738v5.18h-6.819v-5.18H40.002v5.18h-6.82v-5.18H16.379V43.373L16.379,43.373
	z M132.184,15.864L132.184,15.864l6.686,23.021h5.859l-8.366-23.021H132.184L132.184,15.864z M78.067,15.864L78.067,15.864h4.179
	l-6.687,23.021h-5.857L78.067,15.864L78.067,15.864z"/>
<path id="_x32_" fill-rule="evenodd" clip-rule="evenodd" fill="#999557" d="M16.119-0.08h183.602
	c8.911,0,16.199,7.29,16.199,16.199v183.602c0,8.907-7.288,16.199-16.199,16.199H16.119c-8.909,0-16.199-7.292-16.199-16.199V16.119
	C-0.08,7.209,7.209-0.08,16.119-0.08L16.119-0.08z M16.119,4.918h183.602c6.161,0,11.198,5.04,11.198,11.2v183.602
	c0,6.161-5.037,11.198-11.198,11.198H16.119c-6.161,0-11.2-5.037-11.2-11.198V16.119C4.918,9.958,9.958,4.918,16.119,4.918
	L16.119,4.918z M197.536,62.316v8.688h-14.226v57.041l-17.073-40.342V71.004H46.732v23.812l-17.074,35.134V71.004H16.379v-8.688
	H197.536L197.536,62.316z"/>
<path id="_x31_" fill-rule="evenodd" clip-rule="evenodd" fill="#7E5628" d="M86.035,15.864h18.628l-0.244,6.374h5.192l-0.252-6.374
	h19.102l6.022,23.021h-24.219l-0.417-10.624h-5.658l-0.409,10.624H80.479L86.035,15.864L86.035,15.864z M70.786,78.608
	L70.786,78.608h32.894l-0.224,5.794h7.2l-0.228-5.794h32.896l31.006,118.476h-59.232l-1.217-30.929h-13.562l-1.188,30.929H42.199
	L70.786,78.608L70.786,78.608z M112.57,132.977L112.57,132.977l0.741,18.755h-12.439l0.721-18.755H112.57L112.57,132.977z
	 M111.625,108.931L111.625,108.931l0.513,12.986h-10.12l0.499-12.986H111.625L111.625,108.931z M110.9,90.655L110.9,90.655
	l0.381,9.62h-8.434l0.368-9.62H110.9L110.9,90.655z M16.379,55.547L16.379,55.547h181.157v6.806H16.379V55.547L16.379,55.547z"/>
</svg>
