<?xml version="1.0" encoding="utf-8"?>
<!DOCTYPE svg PUBLIC "-//W3C//DTD SVG 1.1//EN" "http://www.w3.org/Graphics/SVG/1.1/DTD/svg11.dtd">
<svg version="1.1" xmlns="http://www.w3.org/2000/svg" xmlns:xlink="http://www.w3.org/1999/xlink" x="0px" y="0px" width="216px" height="216px" viewBox="0 0 216 216" enable-background="new 0 0 216 216" xml:space="preserve">
<path fill-rule="evenodd" clip-rule="evenodd" d="M86.035,15.864h18.628l-0.244,6.374h5.192l-0.252-6.374
	h19.102l6.022,23.021h-24.219l-0.417-10.624h-5.658l-0.409,10.624H80.479L86.035,15.864L86.035,15.864z M70.786,78.608
	L70.786,78.608h32.894l-0.224,5.794h7.2l-0.228-5.794h32.896l31.006,118.476h-59.232l-1.217-30.929h-13.562l-1.188,30.929H42.199
	L70.786,78.608L70.786,78.608z M112.57,132.977L112.57,132.977l0.741,18.755h-12.439l0.721-18.755H112.57L112.57,132.977z
	 M111.625,108.931L111.625,108.931l0.513,12.986h-10.12l0.499-12.986H111.625L111.625,108.931z M110.9,90.655L110.9,90.655
	l0.381,9.62h-8.434l0.368-9.62H110.9L110.9,90.655z M16.379,55.547L16.379,55.547h181.157v6.806H16.379V55.547L16.379,55.547z"/>
</svg>
