<?xml version="1.0" encoding="utf-8"?>
<!DOCTYPE svg PUBLIC "-//W3C//DTD SVG 1.1//EN" "http://www.w3.org/Graphics/SVG/1.1/DTD/svg11.dtd">
<svg version="1.1" xmlns="http://www.w3.org/2000/svg" xmlns:xlink="http://www.w3.org/1999/xlink" x="0px" y="0px" width="216px" height="216px" viewBox="0 0 216 216" enable-background="new 0 0 216 216" xml:space="preserve">
<path fill-rule="evenodd" clip-rule="evenodd" d="M58.768,78.608h5.786l-34.41,118.476H15.708
	L58.768,78.608L58.768,78.608z M156.37,78.608L156.37,78.608h-5.782l34.407,118.476h14.441L156.37,78.608L156.37,78.608z
	 M16.379,43.373L16.379,43.373h181.157v5.159h-19.869v5.18h-6.819v-5.18H156.78v5.18h-6.819v-5.18h-17.473v5.18h-6.819v-5.18
	h-15.343v5.18h-6.819v-5.18H86.033v5.18h-6.82v-5.18H61.738v5.18h-6.819v-5.18H40.002v5.18h-6.82v-5.18H16.379V43.373L16.379,43.373
	z M132.184,15.864L132.184,15.864l6.686,23.021h5.859l-8.366-23.021H132.184L132.184,15.864z M78.067,15.864L78.067,15.864h4.179
	l-6.687,23.021h-5.857L78.067,15.864L78.067,15.864z"/>
</svg>
