<?xml version="1.0" encoding="utf-8"?>
<!DOCTYPE svg PUBLIC "-//W3C//DTD SVG 1.1//EN" "http://www.w3.org/Graphics/SVG/1.1/DTD/svg11.dtd">
<svg version="1.1" xmlns="http://www.w3.org/2000/svg" xmlns:xlink="http://www.w3.org/1999/xlink" x="0px" y="0px" width="216px" height="216px" viewBox="0 0 216 216" enable-background="new 0 0 216 216" xml:space="preserve">
<path fill-rule="evenodd" clip-rule="evenodd" d="M16.119-0.08h183.602
	c8.911,0,16.199,7.29,16.199,16.199v183.602c0,8.907-7.288,16.199-16.199,16.199H16.119c-8.909,0-16.199-7.292-16.199-16.199V16.119
	C-0.08,7.209,7.209-0.08,16.119-0.08L16.119-0.08z M16.119,4.918h183.602c6.161,0,11.198,5.04,11.198,11.2v183.602
	c0,6.161-5.037,11.198-11.198,11.198H16.119c-6.161,0-11.2-5.037-11.2-11.198V16.119C4.918,9.958,9.958,4.918,16.119,4.918
	L16.119,4.918z M75.474,155.381h4.986c1.029,0,1.872,0.843,1.872,1.872v3.116c0,1.025-0.845,1.872-1.872,1.872h-4.986
	c-1.03,0-1.872-0.847-1.872-1.872v-3.116C73.602,156.219,74.444,155.381,75.474,155.381L75.474,155.381z M136.354,161.753
	L136.354,161.753c5.884-1.818,10.652-5.758,10.652-11.983v-14.192h0.041v-8.012h-2.446v0.154h-7.885v12.695
	c0,1.709-1.4,3.113-3.117,3.113H26.859c-1.713,0-3.117-1.4-3.117-3.113V64.04c0-1.715,1.404-3.117,3.117-3.117h42.039V52.18
	c0-0.625,0.035-1.241,0.098-1.849H27.483c-6.858,0-12.467,5.611-12.467,12.469v89.463c0,6.856,5.743,11.129,12.467,12.468
	c22.313,4.443,36.721,6.551,49.5,6.686v-0.004C93.516,171.592,116.314,166.266,136.354,161.753L136.354,161.753z"/>
</svg>
