<?xml version="1.0" encoding="utf-8"?>
<!DOCTYPE svg PUBLIC "-//W3C//DTD SVG 1.1//EN" "http://www.w3.org/Graphics/SVG/1.1/DTD/svg11.dtd">
<svg version="1.1" xmlns="http://www.w3.org/2000/svg" xmlns:xlink="http://www.w3.org/1999/xlink" x="0px" y="0px" width="216px" height="216px" viewBox="0 0 216 216" enable-background="new 0 0 216 216" xml:space="preserve">
<path id="_x33_" fill-rule="evenodd" clip-rule="evenodd" fill="#F58031" d="M188.608,40.808L171.95,38.03l-5.273-13.194
	c-1.767-4.403-5.97-7.243-10.706-7.243h-38.432c-4.732,0-8.936,2.84-10.706,7.245l-5.271,13.192l-16.655,2.777
	c-5.584,0.928-9.637,5.708-9.637,11.373v57.64c0,6.359,5.172,11.527,11.527,11.527h99.916c6.359,0,11.531-5.168,11.531-11.527V52.18
	C198.244,46.516,194.191,41.735,188.608,40.808L188.608,40.808z M136.757,44.498L136.757,44.498
	c-16.984,0-30.745,13.761-30.745,30.744c0,16.98,13.761,30.743,30.745,30.743c16.977,0,30.746-13.763,30.746-30.743
	C167.503,58.259,153.733,44.498,136.757,44.498L136.757,44.498z"/>
<path id="_x32_" fill-rule="evenodd" clip-rule="evenodd" fill="#999557" d="M16.119-0.08h183.602
	c8.911,0,16.199,7.29,16.199,16.199v183.602c0,8.907-7.288,16.199-16.199,16.199H16.119c-8.909,0-16.199-7.292-16.199-16.199V16.119
	C-0.08,7.209,7.209-0.08,16.119-0.08L16.119-0.08z M16.119,4.918h183.602c6.161,0,11.198,5.04,11.198,11.2v183.602
	c0,6.161-5.037,11.198-11.198,11.198H16.119c-6.161,0-11.2-5.037-11.2-11.198V16.119C4.918,9.958,9.958,4.918,16.119,4.918
	L16.119,4.918z M75.474,155.381h4.986c1.029,0,1.872,0.843,1.872,1.872v3.116c0,1.025-0.845,1.872-1.872,1.872h-4.986
	c-1.03,0-1.872-0.847-1.872-1.872v-3.116C73.602,156.219,74.444,155.381,75.474,155.381L75.474,155.381z M136.354,161.753
	L136.354,161.753c5.884-1.818,10.652-5.758,10.652-11.983v-14.192h0.041v-8.012h-2.446v0.154h-7.885v12.695
	c0,1.709-1.4,3.113-3.117,3.113H26.859c-1.713,0-3.117-1.4-3.117-3.113V64.04c0-1.715,1.404-3.117,3.117-3.117h42.039V52.18
	c0-0.625,0.035-1.241,0.098-1.849H27.483c-6.858,0-12.467,5.611-12.467,12.469v89.463c0,6.856,5.743,11.129,12.467,12.468
	c22.313,4.443,36.721,6.551,49.5,6.686v-0.004C93.516,171.592,116.314,166.266,136.354,161.753L136.354,161.753z"/>
<path id="_x31_" fill-rule="evenodd" clip-rule="evenodd" fill="#7E5628" d="M177.757,159.112h-3.943
	c-4.342,0-7.886-3.54-7.886-7.886h0.008v-15.775l23.662,23.661H177.757L177.757,159.112z M101.902,192.763L101.902,192.763H91.09
	c-2.181,0-3.945-1.766-3.945-3.942v-12.61c-2.6,0.175-5.227,0.317-7.884,0.424v12.187c0,6.522,5.304,11.828,11.829,11.828
	c31.343,0,61.548,0,94.56,0c6.522,0,11.828-5.306,11.828-11.828v-29.708c0-2.092-0.83-4.098-2.311-5.579l-23.657-23.657
	c-1.481-1.48-3.487-2.311-5.575-2.311h-13.342v8.02l4.252,0.009v14.253l-0.008-0.235c-0.236,12.374,10.445,18.583,16.976,18.583
	h3.943h11.841v20.626c0,2.177-1.767,3.942-3.947,3.942h-50.725c-2.177,0-3.942-1.766-3.942-3.942v-19.813
	c-2.625,0.712-5.249,1.371-7.886,1.974v17.839c0,1.384,0.239,2.706,0.679,3.942h-10.722c-2.179,0-3.944-1.766-3.944-3.942v-15.104
	c-2.608,0.428-5.235,0.802-7.884,1.136v13.969C101.227,190.204,101.464,191.526,101.902,192.763L101.902,192.763z M141.961,53.179
	L141.961,53.179c-15.059,0-27.267,12.207-27.267,27.258v0.006c0,1.884,1.519,3.41,3.41,3.41c1.876,0,3.41-1.526,3.41-3.41v-0.006
	c0-11.287,9.143-20.442,20.446-20.442c1.876,0,3.41-1.526,3.41-3.406C145.371,54.703,143.837,53.179,141.961,53.179L141.961,53.179z
	"/>
</svg>
