<?xml version="1.0" encoding="utf-8"?>
<!DOCTYPE svg PUBLIC "-//W3C//DTD SVG 1.1//EN" "http://www.w3.org/Graphics/SVG/1.1/DTD/svg11.dtd">
<svg version="1.1" xmlns="http://www.w3.org/2000/svg" xmlns:xlink="http://www.w3.org/1999/xlink" x="0px" y="0px" width="216px" height="216px" viewBox="0 0 216 216" enable-background="new 0 0 216 216" xml:space="preserve">
<path fill-rule="evenodd" clip-rule="evenodd" d="M188.608,40.808L171.95,38.03l-5.273-13.194
	c-1.767-4.403-5.97-7.243-10.706-7.243h-38.432c-4.732,0-8.936,2.84-10.706,7.245l-5.271,13.192l-16.655,2.777
	c-5.584,0.928-9.637,5.708-9.637,11.373v57.64c0,6.359,5.172,11.527,11.527,11.527h99.916c6.359,0,11.531-5.168,11.531-11.527V52.18
	C198.244,46.516,194.191,41.735,188.608,40.808L188.608,40.808z M136.757,44.498L136.757,44.498
	c-16.984,0-30.745,13.761-30.745,30.744c0,16.98,13.761,30.743,30.745,30.743c16.977,0,30.746-13.763,30.746-30.743
	C167.503,58.259,153.733,44.498,136.757,44.498L136.757,44.498z"/>
</svg>
