<?xml version="1.0" encoding="utf-8"?>
<!DOCTYPE svg PUBLIC "-//W3C//DTD SVG 1.1//EN" "http://www.w3.org/Graphics/SVG/1.1/DTD/svg11.dtd">
<svg version="1.1" xmlns="http://www.w3.org/2000/svg" xmlns:xlink="http://www.w3.org/1999/xlink" x="0px" y="0px" width="216px" height="216px" viewBox="0 0 216 216" enable-background="new 0 0 216 216" xml:space="preserve">
<path fill-rule="evenodd" clip-rule="evenodd" d="M177.757,159.112h-3.943
	c-4.342,0-7.886-3.54-7.886-7.886h0.008v-15.775l23.662,23.661H177.757L177.757,159.112z M101.902,192.763L101.902,192.763H91.09
	c-2.181,0-3.945-1.766-3.945-3.942v-12.61c-2.6,0.175-5.227,0.317-7.884,0.424v12.187c0,6.522,5.304,11.828,11.829,11.828
	c31.343,0,61.548,0,94.56,0c6.522,0,11.828-5.306,11.828-11.828v-29.708c0-2.092-0.83-4.098-2.311-5.579l-23.657-23.657
	c-1.481-1.48-3.487-2.311-5.575-2.311h-13.342v8.02l4.252,0.009v14.253l-0.008-0.235c-0.236,12.374,10.445,18.583,16.976,18.583
	h3.943h11.841v20.626c0,2.177-1.767,3.942-3.947,3.942h-50.725c-2.177,0-3.942-1.766-3.942-3.942v-19.813
	c-2.625,0.712-5.249,1.371-7.886,1.974v17.839c0,1.384,0.239,2.706,0.679,3.942h-10.722c-2.179,0-3.944-1.766-3.944-3.942v-15.104
	c-2.608,0.428-5.235,0.802-7.884,1.136v13.969C101.227,190.204,101.464,191.526,101.902,192.763L101.902,192.763z M141.961,53.179
	L141.961,53.179c-15.059,0-27.267,12.207-27.267,27.258v0.006c0,1.884,1.519,3.41,3.41,3.41c1.876,0,3.41-1.526,3.41-3.41v-0.006
	c0-11.287,9.143-20.442,20.446-20.442c1.876,0,3.41-1.526,3.41-3.406C145.371,54.703,143.837,53.179,141.961,53.179L141.961,53.179z
	"/>
</svg>
