<?xml version="1.0" encoding="utf-8"?>
<!DOCTYPE svg PUBLIC "-//W3C//DTD SVG 1.1//EN" "http://www.w3.org/Graphics/SVG/1.1/DTD/svg11.dtd">
<svg version="1.1" xmlns="http://www.w3.org/2000/svg" xmlns:xlink="http://www.w3.org/1999/xlink" x="0px" y="0px" width="216px" height="216px" viewBox="0 0 216 216" enable-background="new 0 0 216 216" xml:space="preserve">
<path id="_x33_" fill-rule="evenodd" clip-rule="evenodd" fill="#F58031" d="M89.831,190.773L89.831,190.773l2.443-15.613
	c-12.327,7.174-26.453,11.581-41.748,11.581c-13.586,0-26.276-3.487-37.59-9.302v13.334H89.831L89.831,190.773z M89.831,27.864
	L89.831,27.864l2.443,15.615C79.947,36.307,65.822,31.9,50.526,31.9c-13.586,0-26.274,3.485-37.59,9.302V27.864H89.831
	L89.831,27.864z M49.727,69.667L49.727,69.667c4.267,0,7.723-3.455,7.723-7.721c0-4.264-3.457-7.717-7.723-7.717
	c-4.264,0-7.717,3.453-7.717,7.717C42.01,66.212,45.462,69.667,49.727,69.667L49.727,69.667z M49.727,146.849L49.727,146.849
	c-4.264,0-7.717,3.454-7.717,7.719c0,4.269,3.453,7.719,7.717,7.719c4.267,0,7.723-3.45,7.723-7.719
	C57.45,150.303,53.993,146.849,49.727,146.849L49.727,146.849z M88.319,109.004L88.319,109.004c0,4.267,3.451,7.717,7.717,7.717
	c4.267,0,7.717-3.45,7.717-7.717c0-4.264-3.45-7.717-7.717-7.717C91.77,101.287,88.319,104.74,88.319,109.004L88.319,109.004z
	 M155.503,76.458c18.974,0,36.214,7.434,48.971,19.552v10.6c-11.715-13.985-29.305-22.884-48.971-22.884
	c-10.986,0-21.321,2.775-30.351,7.664c-0.57-2.425-1.254-4.806-2.047-7.137C132.822,79.27,143.833,76.458,155.503,76.458
	L155.503,76.458z M155.052,152.496L155.052,152.496l-8.688-6.56l6.921-6.271l9.379,7.08L155.052,152.496L155.052,152.496z
	 M151.642,192.019L151.642,192.019l0.158,6.604h6.259l-0.094-6.604H151.642L151.642,192.019z M164.207,154.519L164.207,154.519
	h-6.479l7.084-5.351c0.139-1.534,0.249-3.072,0.317-4.603l-7.401-5.591h7.495c-0.028-1.685-0.105-3.361-0.24-5.033h-21.244
	c0.041,1.685,0.081,3.275,0.155,4.952l5.298,0.081l-5.038,4.565c0.105,1.688,0.232,3.373,0.383,5.062l7.837,5.917h-7.215
	c1.128,9.253,3.052,18.839,6.291,29.496v0.041h6.604C160.427,174.424,162.872,164.451,164.207,154.519L164.207,154.519z"/>
<path id="_x32_" fill-rule="evenodd" clip-rule="evenodd" fill="#999557" d="M16.119-0.08h183.602
	c8.911,0,16.199,7.29,16.199,16.199v183.602c0,8.907-7.288,16.199-16.199,16.199H16.119c-8.909,0-16.199-7.292-16.199-16.199V16.119
	C-0.08,7.209,7.209-0.08,16.119-0.08L16.119-0.08z M16.119,4.918h183.602c6.161,0,11.198,5.04,11.198,11.2v183.602
	c0,6.161-5.037,11.198-11.198,11.198H16.119c-6.161,0-11.2-5.037-11.2-11.198V16.119C4.918,9.958,9.958,4.918,16.119,4.918
	L16.119,4.918z M189.707,17.887L189.707,17.887l-8.756,7.3L191.2,35.442h16.325L189.707,17.887L189.707,17.887z M167.161,71.126
	L167.161,71.126l19.128-31.877h-18.685l-6.291,31.468C163.279,70.8,165.232,70.937,167.161,71.126L167.161,71.126z M165.663,32.96
	L165.663,32.96l9.644-8.028l-7.687-7.684l-10.4,8.673L165.663,32.96L165.663,32.96z M151.271,25.921L151.271,25.921l-10.409-8.673
	l-7.678,7.684l9.64,8.028L151.271,25.921L151.271,25.921z M147.227,70.989L147.227,70.989l-6.344-31.74h-18.685l19.405,32.345
	C143.467,71.346,145.343,71.144,147.227,70.989L147.227,70.989z M117.291,35.442L117.291,35.442l10.25-10.256l-8.753-7.294
	l-17.537,17.55H117.291L117.291,35.442z M200.926,130.8L200.926,130.8c-0.749,23.116-7.955,43.51-18.791,56.653v15.45h-28.752
	h-27.03v-13.465c-7.129-7.873-12.846-18.774-16.429-31.539c3.677-4.528,6.854-9.477,9.446-14.767
	c0.655,13.721,7.268,33.24,13.42,40.65c10.03,0,20.027,0.02,30.058,0.02c2.604-8.63,9.644-20.491,10.759-32.841l2.026,1.534
	l8.691-6.56l-6.922-6.271l-3.153,2.381c0.146-2.661,0.256-5.375,0.325-8.126c-12.479,0-24.991,0-37.455,0v4.891h-15.796
	c1.078-2.604,2.022-5.277,2.815-8.012H200.926L200.926,130.8z M192.259,148.732L192.259,148.732l-2.853-2.584l3.41-2.58
	C192.719,145.217,192.523,146.95,192.259,148.732L192.259,148.732z M181.492,138.975L181.492,138.975h11.364l0.024,0.501
	l-5.912,4.463L181.492,138.975L181.492,138.975z M178.31,154.519L178.31,154.519l8.447-6.372l4.839,4.382
	c-0.131,0.659-0.27,1.322-0.416,1.99H178.31L178.31,154.519z M133.855,191.957L133.855,191.957h40.723l-0.053,6.319
	c-14.693,0-26.127,0-40.727,0L133.855,191.957L133.855,191.957z"/>
<path id="_x31_" fill-rule="evenodd" clip-rule="evenodd" fill="#7E5628" d="M49.729,116.647L49.729,116.647
	c2.749,0,4.979-2.226,4.979-4.978c0-2.753-2.229-4.977-4.979-4.977c-2.754,0-4.978,2.224-4.978,4.977
	C44.75,114.422,46.974,116.647,49.729,116.647L49.729,116.647z M14.609,76.023L14.609,76.023c0.962-0.96,2.515-1.038,3.601-0.167
	l31.102,27.952L84.23,71.445c1.239-0.993,3.007-0.901,4.105,0.195c1.101,1.097,1.205,2.871,0.25,4.083l-33.018,41.827
	c-1.711,1.656-4.071,2.499-6.335,2.516c-2.443-0.017-4.71-0.957-6.413-2.649L14.391,79.602
	C13.555,78.538,13.649,76.985,14.609,76.023L14.609,76.023z M87.945,15.856L87.945,15.856l0.936,6.006H13.63v-6.006H87.945
	L87.945,15.856z M13.63,195.673h74.65l-0.962,5.997H13.63V195.673L13.63,195.673z M131.215,104.136L131.215,104.136
	c1.151,0,2.303,0,3.455,0c1.432,0,2.604,0.558,2.604,1.237c0,3.203,0,6.405,0,9.607c0,0.68-1.172,1.237-2.604,1.237
	c-1.152,0-2.304,0-3.455,0c0,0.761,0,1.521,0,2.282c0,1.181-1.172,2.141-2.604,2.141c-1.16,0-2.315,0-3.476,0
	c-0.195,0-0.391-0.021-0.582-0.053c1.701-8.663,1.697-15.487,0-20.817c0.191-0.037,0.387-0.053,0.582-0.053c1.16,0,2.315,0,3.476,0
	c1.432,0,2.604,0.96,2.604,2.138C131.215,102.616,131.215,103.375,131.215,104.136L131.215,104.136z M137.542,72.216L137.542,72.216
	l-19.779-32.967h-13.533l31.311,33.335C136.199,72.458,136.867,72.332,137.542,72.216L137.542,72.216z M157.452,70.615
	L157.452,70.615l6.278-31.366h-18.966l6.295,31.486c1.778-0.083,3.568-0.128,5.371-0.128
	C156.772,70.607,157.11,70.611,157.452,70.615L157.452,70.615z M173.565,71.932L173.565,71.932l30.692-32.683h-13.533
	l-19.413,32.355C172.068,71.706,172.816,71.81,173.565,71.932L173.565,71.932z M178.009,27.634L178.009,27.634l-9.375,7.809h17.184
	L178.009,27.634L178.009,27.634z M139.854,35.442L139.854,35.442l-9.375-7.809l-7.809,7.809H139.854L139.854,35.442z
	 M136.326,16.403L136.326,16.403h-13.38l7.296,6.079L136.326,16.403L136.326,16.403z M154.241,23.443L154.241,23.443l8.456-7.04
	H145.79L154.241,23.443L154.241,23.443z M178.245,22.482L178.245,22.482l7.296-6.079h-13.375L178.245,22.482L178.245,22.482z
	 M145.79,35.442L145.79,35.442h16.907l-8.456-7.043L145.79,35.442L145.79,35.442z M49.871,38.832
	c38.843,0,70.346,31.502,70.346,70.343c0,38.841-31.503,70.344-70.346,70.344c-13.255,0-25.655-3.671-36.241-10.051v-8.573
	c10.26,7.202,22.756,11.434,36.241,11.434c34.874,0,63.155-28.279,63.155-63.153c0-34.871-28.282-63.153-63.155-63.153
	c-13.485,0-25.98,4.232-36.241,11.436v-8.576C24.216,42.506,36.616,38.832,49.871,38.832L49.871,38.832z M172.959,154.519
	L172.959,154.519h-8.752c-1.282,9.521-3.581,20.016-5.855,29.284h4.496c2.604-8.626,9.644-20.491,10.759-32.841l-5.583-4.216
	l6.229-4.699c0.143-2.665,0.252-5.375,0.321-8.126h-9.591c0.135,1.673,0.212,3.361,0.236,5.054h7.739l-7.617,5.754l-0.212-0.163
	c-0.068,1.53-0.179,3.068-0.317,4.603l0.529-0.399L172.959,154.519L172.959,154.519z M157.965,192.011L157.965,192.011l0.094,6.526
	h5.216v-6.526H157.965L157.965,192.011z M147.987,192.011L147.987,192.011h3.654l0.158,6.526h-3.813V192.011L147.987,192.011z
	 M148.244,183.803L148.244,183.803c-6.479-9.265-9.355-20.275-10.47-29.284h7.385c1.087,8.915,2.914,19.075,5.941,29.284H148.244
	L148.244,183.803z M144.537,148.606L144.537,148.606l-0.61-0.46l-6.238,5.651c-0.162-1.388-0.276-2.746-0.357-4.073l3.946-3.576
	l-4.102-3.101c0.021-1.38,0.069-2.698,0.143-3.938l6.396,4.829l0.439-0.398C144.26,145.229,144.387,146.913,144.537,148.606
	L144.537,148.606z M143.857,138.877L143.857,138.877l-6.522-0.065h-0.216v-4.891h6.62C143.78,135.609,143.784,137.2,143.857,138.877
	L143.857,138.877z"/>
</svg>
