<?xml version="1.0" encoding="utf-8"?>
<!DOCTYPE svg PUBLIC "-//W3C//DTD SVG 1.1//EN" "http://www.w3.org/Graphics/SVG/1.1/DTD/svg11.dtd">
<svg version="1.1" xmlns="http://www.w3.org/2000/svg" xmlns:xlink="http://www.w3.org/1999/xlink" x="0px" y="0px" width="216px" height="216px" viewBox="0 0 216 216" enable-background="new 0 0 216 216" xml:space="preserve">
<path fill-rule="evenodd" clip-rule="evenodd" d="M16.119-0.08h183.602
	c8.911,0,16.199,7.29,16.199,16.199v183.602c0,8.907-7.288,16.199-16.199,16.199H16.119c-8.909,0-16.199-7.292-16.199-16.199V16.119
	C-0.08,7.209,7.209-0.08,16.119-0.08L16.119-0.08z M16.119,4.918h183.602c6.161,0,11.198,5.04,11.198,11.2v183.602
	c0,6.161-5.037,11.198-11.198,11.198H16.119c-6.161,0-11.2-5.037-11.2-11.198V16.119C4.918,9.958,9.958,4.918,16.119,4.918
	L16.119,4.918z M189.707,17.887L189.707,17.887l-8.756,7.3L191.2,35.442h16.325L189.707,17.887L189.707,17.887z M167.161,71.126
	L167.161,71.126l19.128-31.877h-18.685l-6.291,31.468C163.279,70.8,165.232,70.937,167.161,71.126L167.161,71.126z M165.663,32.96
	L165.663,32.96l9.644-8.028l-7.687-7.684l-10.4,8.673L165.663,32.96L165.663,32.96z M151.271,25.921L151.271,25.921l-10.409-8.673
	l-7.678,7.684l9.64,8.028L151.271,25.921L151.271,25.921z M147.227,70.989L147.227,70.989l-6.344-31.74h-18.685l19.405,32.345
	C143.467,71.346,145.343,71.144,147.227,70.989L147.227,70.989z M117.291,35.442L117.291,35.442l10.25-10.256l-8.753-7.294
	l-17.537,17.55H117.291L117.291,35.442z M200.926,130.8L200.926,130.8c-0.749,23.116-7.955,43.51-18.791,56.653v15.45h-28.752
	h-27.03v-13.465c-7.129-7.873-12.846-18.774-16.429-31.539c3.677-4.528,6.854-9.477,9.446-14.767
	c0.655,13.721,7.268,33.24,13.42,40.65c10.03,0,20.027,0.02,30.058,0.02c2.604-8.63,9.644-20.491,10.759-32.841l2.026,1.534
	l8.691-6.56l-6.922-6.271l-3.153,2.381c0.146-2.661,0.256-5.375,0.325-8.126c-12.479,0-24.991,0-37.455,0v4.891h-15.796
	c1.078-2.604,2.022-5.277,2.815-8.012H200.926L200.926,130.8z M192.259,148.732L192.259,148.732l-2.853-2.584l3.41-2.58
	C192.719,145.217,192.523,146.95,192.259,148.732L192.259,148.732z M181.492,138.975L181.492,138.975h11.364l0.024,0.501
	l-5.912,4.463L181.492,138.975L181.492,138.975z M178.31,154.519L178.31,154.519l8.447-6.372l4.839,4.382
	c-0.131,0.659-0.27,1.322-0.416,1.99H178.31L178.31,154.519z M133.855,191.957L133.855,191.957h40.723l-0.053,6.319
	c-14.693,0-26.127,0-40.727,0L133.855,191.957L133.855,191.957z"/>
</svg>
