<?xml version="1.0" encoding="utf-8"?>
<!DOCTYPE svg PUBLIC "-//W3C//DTD SVG 1.1//EN" "http://www.w3.org/Graphics/SVG/1.1/DTD/svg11.dtd">
<svg version="1.1" xmlns="http://www.w3.org/2000/svg" xmlns:xlink="http://www.w3.org/1999/xlink" x="0px" y="0px" width="216px" height="216px" viewBox="0 0 216 216" enable-background="new 0 0 216 216" xml:space="preserve">
<path fill-rule="evenodd" clip-rule="evenodd" d="M89.831,190.773L89.831,190.773l2.443-15.613
	c-12.327,7.174-26.453,11.581-41.748,11.581c-13.586,0-26.276-3.487-37.59-9.302v13.334H89.831L89.831,190.773z M89.831,27.864
	L89.831,27.864l2.443,15.615C79.947,36.307,65.822,31.9,50.526,31.9c-13.586,0-26.274,3.485-37.59,9.302V27.864H89.831
	L89.831,27.864z M49.727,69.667L49.727,69.667c4.267,0,7.723-3.455,7.723-7.721c0-4.264-3.457-7.717-7.723-7.717
	c-4.264,0-7.717,3.453-7.717,7.717C42.01,66.212,45.462,69.667,49.727,69.667L49.727,69.667z M49.727,146.849L49.727,146.849
	c-4.264,0-7.717,3.454-7.717,7.719c0,4.269,3.453,7.719,7.717,7.719c4.267,0,7.723-3.45,7.723-7.719
	C57.45,150.303,53.993,146.849,49.727,146.849L49.727,146.849z M88.319,109.004L88.319,109.004c0,4.267,3.451,7.717,7.717,7.717
	c4.267,0,7.717-3.45,7.717-7.717c0-4.264-3.45-7.717-7.717-7.717C91.77,101.287,88.319,104.74,88.319,109.004L88.319,109.004z
	 M155.503,76.458c18.974,0,36.214,7.434,48.971,19.552v10.6c-11.715-13.985-29.305-22.884-48.971-22.884
	c-10.986,0-21.321,2.775-30.351,7.664c-0.57-2.425-1.254-4.806-2.047-7.137C132.822,79.27,143.833,76.458,155.503,76.458
	L155.503,76.458z M155.052,152.496L155.052,152.496l-8.688-6.56l6.921-6.271l9.379,7.08L155.052,152.496L155.052,152.496z
	 M151.642,192.019L151.642,192.019l0.158,6.604h6.259l-0.094-6.604H151.642L151.642,192.019z M164.207,154.519L164.207,154.519
	h-6.479l7.084-5.351c0.139-1.534,0.249-3.072,0.317-4.603l-7.401-5.591h7.495c-0.028-1.685-0.105-3.361-0.24-5.033h-21.244
	c0.041,1.685,0.081,3.275,0.155,4.952l5.298,0.081l-5.038,4.565c0.105,1.688,0.232,3.373,0.383,5.062l7.837,5.917h-7.215
	c1.128,9.253,3.052,18.839,6.291,29.496v0.041h6.604C160.427,174.424,162.872,164.451,164.207,154.519L164.207,154.519z"/>
</svg>
