<?xml version="1.0" encoding="utf-8"?>
<!DOCTYPE svg PUBLIC "-//W3C//DTD SVG 1.1//EN" "http://www.w3.org/Graphics/SVG/1.1/DTD/svg11.dtd">
<svg version="1.1" xmlns="http://www.w3.org/2000/svg" xmlns:xlink="http://www.w3.org/1999/xlink" x="0px" y="0px" width="216px" height="216px" viewBox="0 0 216 216" enable-background="new 0 0 216 216" xml:space="preserve">
<path id="_x33_" fill-rule="evenodd" clip-rule="evenodd" fill="#F58031" d="M122.084,32.421L122.084,32.421h3.764h36.113
	c1.521-2.106,3.088-4.181,4.703-6.213h-40.816h-3.739h-23.08c0.904,1.965,1.597,4.046,2.055,6.213H122.084L122.084,32.421z
	 M60.147,185.613L60.147,185.613H40.158c-4.148,0-7.511-3.353-7.511-7.503v-22.778v-10.774v-15.886l0,0v-8.984V39.924
	c0-4.128,3.192-7.503,7.359-7.503h3.521c0.446-2.165,1.123-4.246,2.01-6.213h-5.532c-7.561,0-13.566,6.152-13.566,13.714v79.765
	v1.307v30.937v3.401v22.778c0,7.561,6.155,13.713,13.719,13.713h17.564c0.376-1.038,0.786-2.071,1.19-3.076L60.147,185.613
	L60.147,185.613z M186.163,97.063L186.163,97.063v50.554h-24.012c-7.389,0-13.851,6.567-13.7,13.888v24.108h-19.035l1.087,2.682
	c0.443,1.063,0.928,2.271,1.359,3.528h19.693c2.222,0,4.366-0.883,5.941-2.458l31.827-31.828c1.575-1.578,2.751-3.792,2.751-6.018
	V90.885L186.163,97.063L186.163,97.063z M177.663,76.77L177.663,76.77l11.54,10.878l-44.816,46.818l-11.544-10.904L177.663,76.77
	L177.663,76.77z M129.034,104.15L129.034,104.15c0.284-0.617,0.817-1.292,1.814-2.297c1.844-1.845,3.353-3.564,5.176-5.385
	c1.457-1.457,9.029-10.071,9.628-11.314c-0.488-0.497-3.964-2.206-5.034-2.995c-1.18-0.867-3.43-3.304-4.252-3.743
	c-2.409,2.161-10.421,17.802-12.276,21.678l-0.024,0.002L129.034,104.15L129.034,104.15z M185.932,38.165L185.932,38.165
	c0.15,0.539,0.231,1.103,0.231,1.685v22.53l5.912-6.046V39.851c0-2.716-0.847-5.241-2.291-7.361
	c-0.936,1.404-1.888,2.804-2.84,4.197L185.932,38.165L185.932,38.165z"/>
<path id="_x32_" fill-rule="evenodd" clip-rule="evenodd" fill="#999557" d="M16.119-0.08h183.602
	c8.911,0,16.199,7.29,16.199,16.199v183.602c0,8.907-7.288,16.199-16.199,16.199H16.119c-8.909,0-16.199-7.292-16.199-16.199V16.119
	C-0.08,7.209,7.209-0.08,16.119-0.08L16.119-0.08z M16.119,4.918h183.602c6.161,0,11.198,5.04,11.198,11.2v183.602
	c0,6.161-5.037,11.198-11.198,11.198H16.119c-6.161,0-11.2-5.037-11.2-11.198V16.119C4.918,9.958,9.958,4.918,16.119,4.918
	L16.119,4.918z M170.933,28.684L170.933,28.684c3.211-3.347,9.375-11.473,15.092-12.292c1.38-0.197,2.824,0.378,3.036,1.833
	l0.175,1.237c0.528,3.688-4.329,11.157-5.823,13.946c-2.486,4.655-34.188,49.974-36.702,50.334
	c-1.859,0.265-8.447-5.408-9.587-6.964C147.63,60.898,157.591,42.608,170.933,28.684L170.933,28.684z M141.998,136.261
	L141.998,136.261l-10.877-10.571l-5.606,11.377l4.907,5.217L141.998,136.261L141.998,136.261z M83.817,173.199L83.817,173.199h20.86
	L94.15,144.415L83.817,173.199L83.817,173.199z M111.808,192.563L111.808,192.563l-3.33-8.757H80.112l-3.329,8.952
	c-1.316,3.495-2.421,5.852-3.347,7.068c-0.912,1.221-2.421,1.835-4.517,1.835c-1.77,0-3.347-0.647-4.712-1.949
	c-1.365-1.298-2.047-2.779-2.047-4.431c0-0.944,0.161-1.938,0.472-2.942c0.323-1.025,0.844-2.438,1.575-4.244l17.853-45.305
	c0.505-1.302,1.121-2.86,1.837-4.679c0.714-1.84,1.463-3.349,2.274-4.55c0.812-1.204,1.884-2.177,3.2-2.926
	c1.314-0.744,2.94-1.123,4.873-1.123c1.967,0,3.607,0.379,4.923,1.123c1.316,0.749,2.389,1.705,3.2,2.877
	c0.797,1.168,1.479,2.434,2.047,3.784c0.551,1.347,1.251,3.149,2.112,5.392l18.225,45.036c1.433,3.426,2.145,5.912,2.145,7.471
	c0,1.611-0.68,3.089-2.03,4.436c-1.347,1.351-2.971,2.03-4.87,2.03c-1.107,0-2.067-0.191-2.861-0.599
	c-0.793-0.391-1.46-0.928-1.997-1.611c-0.537-0.679-1.119-1.737-1.738-3.149C112.782,194.892,112.247,193.654,111.808,192.563
	L111.808,192.563z"/>
<path id="_x31_" fill-rule="evenodd" clip-rule="evenodd" fill="#7E5628" d="M124.354,139.414L124.354,139.414l-6.677,10.173
	l0.772,0.753l9.872-6.71L124.354,139.414L124.354,139.414z M201.104,75.001L201.104,75.001c0.411-0.574,0.672-1.561,0-2.499
	c-1.546-1.033-5.745-6.001-8.216-7.68c-1.33-0.909-2.686-0.865-3.816,0.293l-9.27,9.471l11.568,10.897L201.104,75.001
	L201.104,75.001z M106.109,133.392L106.109,133.392c3.764-5.826,4.622-6.6,11.576-10.066c5.029-2.515,8.398-6.165,9.229-11.615
	c0.464-3.078,0.037-4.102,0.618-5.363l-4.968-4.055c-6.832,0.985-13.31,5.766-15.216,10.413
	C104.994,118.438,104.919,125.087,106.109,133.392L106.109,133.392z M71.907,13.079L71.907,13.079
	C57.84,13.213,46.872,24.725,47.011,38.791l0.002,69.912c0.106,10.919,9.08,19.721,19.999,19.619
	c10.919-0.106,19.721-9.078,19.615-19.996l-0.325-69.916c-0.076-7.816-6.47-14.089-14.287-14.014
	c-7.813,0.08-14.087,6.474-14.01,14.284l0.531,55.762c0.019,1.566,1.294,2.818,2.858,2.806c1.564-0.017,2.82-1.292,2.804-2.856
	l-0.535-55.766c-0.042-4.679,3.725-8.522,8.407-8.571c4.681-0.045,8.526,3.727,8.571,8.411l0.326,69.912
	c0.075,7.815-6.195,14.208-14.01,14.285s-14.211-6.197-14.284-14.012l-0.324-69.347c-0.106-10.941,8.681-19.897,19.615-19.995
	c10.948-0.11,19.896,8.669,20.003,19.613l0.527,55.192c0.014,1.573,1.29,2.824,2.856,2.803c1.564-0.014,2.82-1.292,2.802-2.856
	l-0.535-55.76C97.483,24.234,85.974,12.943,71.907,13.079L71.907,13.079z"/>
</svg>
