<?xml version="1.0" encoding="utf-8"?>
<!DOCTYPE svg PUBLIC "-//W3C//DTD SVG 1.1//EN" "http://www.w3.org/Graphics/SVG/1.1/DTD/svg11.dtd">
<svg version="1.1" xmlns="http://www.w3.org/2000/svg" xmlns:xlink="http://www.w3.org/1999/xlink" x="0px" y="0px" width="216px" height="216px" viewBox="0 0 216 216" enable-background="new 0 0 216 216" xml:space="preserve">
<path fill-rule="evenodd" clip-rule="evenodd" d="M16.119-0.08h183.602
	c8.911,0,16.199,7.29,16.199,16.199v183.602c0,8.907-7.288,16.199-16.199,16.199H16.119c-8.909,0-16.199-7.292-16.199-16.199V16.119
	C-0.08,7.209,7.209-0.08,16.119-0.08L16.119-0.08z M16.119,4.918h183.602c6.161,0,11.198,5.04,11.198,11.2v183.602
	c0,6.161-5.037,11.198-11.198,11.198H16.119c-6.161,0-11.2-5.037-11.2-11.198V16.119C4.918,9.958,9.958,4.918,16.119,4.918
	L16.119,4.918z M170.933,28.684L170.933,28.684c3.211-3.347,9.375-11.473,15.092-12.292c1.38-0.197,2.824,0.378,3.036,1.833
	l0.175,1.237c0.528,3.688-4.329,11.157-5.823,13.946c-2.486,4.655-34.188,49.974-36.702,50.334
	c-1.859,0.265-8.447-5.408-9.587-6.964C147.63,60.898,157.591,42.608,170.933,28.684L170.933,28.684z M141.998,136.261
	L141.998,136.261l-10.877-10.571l-5.606,11.377l4.907,5.217L141.998,136.261L141.998,136.261z M83.817,173.199L83.817,173.199h20.86
	L94.15,144.415L83.817,173.199L83.817,173.199z M111.808,192.563L111.808,192.563l-3.33-8.757H80.112l-3.329,8.952
	c-1.316,3.495-2.421,5.852-3.347,7.068c-0.912,1.221-2.421,1.835-4.517,1.835c-1.77,0-3.347-0.647-4.712-1.949
	c-1.365-1.298-2.047-2.779-2.047-4.431c0-0.944,0.161-1.938,0.472-2.942c0.323-1.025,0.844-2.438,1.575-4.244l17.853-45.305
	c0.505-1.302,1.121-2.86,1.837-4.679c0.714-1.84,1.463-3.349,2.274-4.55c0.812-1.204,1.884-2.177,3.2-2.926
	c1.314-0.744,2.94-1.123,4.873-1.123c1.967,0,3.607,0.379,4.923,1.123c1.316,0.749,2.389,1.705,3.2,2.877
	c0.797,1.168,1.479,2.434,2.047,3.784c0.551,1.347,1.251,3.149,2.112,5.392l18.225,45.036c1.433,3.426,2.145,5.912,2.145,7.471
	c0,1.611-0.68,3.089-2.03,4.436c-1.347,1.351-2.971,2.03-4.87,2.03c-1.107,0-2.067-0.191-2.861-0.599
	c-0.793-0.391-1.46-0.928-1.997-1.611c-0.537-0.679-1.119-1.737-1.738-3.149C112.782,194.892,112.247,193.654,111.808,192.563
	L111.808,192.563z"/>
</svg>
