<?xml version="1.0" encoding="utf-8"?>
<!DOCTYPE svg PUBLIC "-//W3C//DTD SVG 1.1//EN" "http://www.w3.org/Graphics/SVG/1.1/DTD/svg11.dtd">
<svg version="1.1" xmlns="http://www.w3.org/2000/svg" xmlns:xlink="http://www.w3.org/1999/xlink" x="0px" y="0px" width="216px" height="216px" viewBox="0 0 216 216" enable-background="new 0 0 216 216" xml:space="preserve">
<path fill-rule="evenodd" clip-rule="evenodd d="M124.354,139.414L124.354,139.414l-6.677,10.173
	l0.772,0.753l9.872-6.71L124.354,139.414L124.354,139.414z M201.104,75.001L201.104,75.001c0.411-0.574,0.672-1.561,0-2.499
	c-1.546-1.033-5.745-6.001-8.216-7.68c-1.33-0.909-2.686-0.865-3.816,0.293l-9.27,9.471l11.568,10.897L201.104,75.001
	L201.104,75.001z M106.109,133.392L106.109,133.392c3.764-5.826,4.622-6.6,11.576-10.066c5.029-2.515,8.398-6.165,9.229-11.615
	c0.464-3.078,0.037-4.102,0.618-5.363l-4.968-4.055c-6.832,0.985-13.31,5.766-15.216,10.413
	C104.994,118.438,104.919,125.087,106.109,133.392L106.109,133.392z M71.907,13.079L71.907,13.079
	C57.84,13.213,46.872,24.725,47.011,38.791l0.002,69.912c0.106,10.919,9.08,19.721,19.999,19.619
	c10.919-0.106,19.721-9.078,19.615-19.996l-0.325-69.916c-0.076-7.816-6.47-14.089-14.287-14.014
	c-7.813,0.08-14.087,6.474-14.01,14.284l0.531,55.762c0.019,1.566,1.294,2.818,2.858,2.806c1.564-0.017,2.82-1.292,2.804-2.856
	l-0.535-55.766c-0.042-4.679,3.725-8.522,8.407-8.571c4.681-0.045,8.526,3.727,8.571,8.411l0.326,69.912
	c0.075,7.815-6.195,14.208-14.01,14.285s-14.211-6.197-14.284-14.012l-0.324-69.347c-0.106-10.941,8.681-19.897,19.615-19.995
	c10.948-0.11,19.896,8.669,20.003,19.613l0.527,55.192c0.014,1.573,1.29,2.824,2.856,2.803c1.564-0.014,2.82-1.292,2.802-2.856
	l-0.535-55.76C97.483,24.234,85.974,12.943,71.907,13.079L71.907,13.079z"/>
</svg>
