<?xml version="1.0" encoding="utf-8"?>
<!DOCTYPE svg PUBLIC "-//W3C//DTD SVG 1.1//EN" "http://www.w3.org/Graphics/SVG/1.1/DTD/svg11.dtd">
<svg version="1.1" xmlns="http://www.w3.org/2000/svg" xmlns:xlink="http://www.w3.org/1999/xlink" x="0px" y="0px" width="216px" height="216px" viewBox="0 0 216 216" enable-background="new 0 0 216 216" xml:space="preserve">
<path fill-rule="evenodd" clip-rule="evenodd" d="M122.084,32.421L122.084,32.421h3.764h36.113
	c1.521-2.106,3.088-4.181,4.703-6.213h-40.816h-3.739h-23.08c0.904,1.965,1.597,4.046,2.055,6.213H122.084L122.084,32.421z
	 M60.147,185.613L60.147,185.613H40.158c-4.148,0-7.511-3.353-7.511-7.503v-22.778v-10.774v-15.886l0,0v-8.984V39.924
	c0-4.128,3.192-7.503,7.359-7.503h3.521c0.446-2.165,1.123-4.246,2.01-6.213h-5.532c-7.561,0-13.566,6.152-13.566,13.714v79.765
	v1.307v30.937v3.401v22.778c0,7.561,6.155,13.713,13.719,13.713h17.564c0.376-1.038,0.786-2.071,1.19-3.076L60.147,185.613
	L60.147,185.613z M186.163,97.063L186.163,97.063v50.554h-24.012c-7.389,0-13.851,6.567-13.7,13.888v24.108h-19.035l1.087,2.682
	c0.443,1.063,0.928,2.271,1.359,3.528h19.693c2.222,0,4.366-0.883,5.941-2.458l31.827-31.828c1.575-1.578,2.751-3.792,2.751-6.018
	V90.885L186.163,97.063L186.163,97.063z M177.663,76.77L177.663,76.77l11.54,10.878l-44.816,46.818l-11.544-10.904L177.663,76.77
	L177.663,76.77z M129.034,104.15L129.034,104.15c0.284-0.617,0.817-1.292,1.814-2.297c1.844-1.845,3.353-3.564,5.176-5.385
	c1.457-1.457,9.029-10.071,9.628-11.314c-0.488-0.497-3.964-2.206-5.034-2.995c-1.18-0.867-3.43-3.304-4.252-3.743
	c-2.409,2.161-10.421,17.802-12.276,21.678l-0.024,0.002L129.034,104.15L129.034,104.15z M185.932,38.165L185.932,38.165
	c0.15,0.539,0.231,1.103,0.231,1.685v22.53l5.912-6.046V39.851c0-2.716-0.847-5.241-2.291-7.361
	c-0.936,1.404-1.888,2.804-2.84,4.197L185.932,38.165L185.932,38.165z"/>
</svg>
