<?xml version="1.0" encoding="utf-8"?>
<!DOCTYPE svg PUBLIC "-//W3C//DTD SVG 1.1//EN" "http://www.w3.org/Graphics/SVG/1.1/DTD/svg11.dtd">
<svg version="1.1" xmlns="http://www.w3.org/2000/svg" xmlns:xlink="http://www.w3.org/1999/xlink" x="0px" y="0px" width="216px" height="216px" viewBox="0 0 216 216" enable-background="new 0 0 216 216" xml:space="preserve">
<path id="_x33_" fill-rule="evenodd" clip-rule="evenodd" fill="#F58031" d="M180.137,105.788L180.137,105.788
	c7.02,10.335,5.949,24.528-3.206,33.688c-9.164,9.159-23.353,10.229-33.688,3.21L180.137,105.788L180.137,105.788z M135.939,135.28
	L135.939,135.28c-6.787-10.312-5.648-24.307,3.422-33.375c9.065-9.068,23.063-10.207,33.37-3.422L135.939,135.28L135.939,135.28z
	 M17.272,59.1V35.135h18.154V16.977h23.962v18.158h18.156V59.1H59.389v18.154H35.426V59.1H17.272L17.272,59.1z"/>
<path id="_x32_" fill-rule="evenodd" clip-rule="evenodd" fill="#999557" d="M16.119-0.08h183.602
	c8.911,0,16.199,7.29,16.199,16.199v183.602c0,8.907-7.288,16.199-16.199,16.199H16.119c-8.909,0-16.199-7.292-16.199-16.199V16.119
	C-0.08,7.209,7.209-0.08,16.119-0.08L16.119-0.08z M16.119,4.918h183.602c6.161,0,11.198,5.04,11.198,11.2v183.602
	c0,6.161-5.037,11.198-11.198,11.198H16.119c-6.161,0-11.2-5.037-11.2-11.198V16.119C4.918,9.958,9.958,4.918,16.119,4.918
	L16.119,4.918z M90.85,162.322l32.169-0.113c2.905-0.208,6.486-2.572,6.775-5.396c0.289-2.828-2.445-9.074-5.249-9.859
	c-28.054-7.906-44.576,3.435-65.45-19.23c-5.158-4.504-6.749-6.909-13.33-9.013l-27.788,0.269v54.167l77.932,25.057
	c4.049,1.123,8.775,1.648,12.63,0l88.992-43.018c2.575-1.481,2.177-6.051,0.923-8.695c-1-2.112-4.102-3.646-6.396-2.999
	l-45.296,18.055c-11.576,4.264-21.863,11.637-40.356,12.711l-17.236-5.225C85.247,168.068,83.284,162.437,90.85,162.322
	L90.85,162.322z"/>
<path id="_x31_" fill-rule="evenodd" clip-rule="evenodd" fill="#7E5628" d="M87.052,102.706c8.557,4.283,17.768,4.05,23.21-1.392
	l18.183-18.183l-6.743-6.745l-18.184,18.183c-2.61,2.612-6.58,3.341-10.711,2.38L87.052,102.706L87.052,102.706z M135.361,77.85
	L135.361,77.85l-23.738-23.736l23.104-23.106c6.526-6.527,17.208-6.527,23.738,0c6.527,6.529,6.527,17.212,0,23.739L135.361,77.85
	L135.361,77.85z M79.85,109.621L79.85,109.621l85.358-85.354c-10.238-10.237-26.99-10.237-37.224,0l-23.106,23.104L79.85,72.399
	C69.612,82.637,69.612,99.387,79.85,109.621c10.236,10.237,26.986,10.237,37.222,0L142.1,84.594l23.108-23.106
	c10.233-10.236,10.233-26.986,0-37.222L79.85,109.621L79.85,109.621z"/>
</svg>
