<?xml version="1.0" encoding="utf-8"?>
<!DOCTYPE svg PUBLIC "-//W3C//DTD SVG 1.1//EN" "http://www.w3.org/Graphics/SVG/1.1/DTD/svg11.dtd">
<svg version="1.1" xmlns="http://www.w3.org/2000/svg" xmlns:xlink="http://www.w3.org/1999/xlink" x="0px" y="0px" width="216px" height="216px" viewBox="0 0 216 216" enable-background="new 0 0 216 216" xml:space="preserve">
<path fill-rule="evenodd" clip-rule="evenodd" d="M16.119-0.08h183.602
	c8.911,0,16.199,7.29,16.199,16.199v183.602c0,8.907-7.288,16.199-16.199,16.199H16.119c-8.909,0-16.199-7.292-16.199-16.199V16.119
	C-0.08,7.209,7.209-0.08,16.119-0.08L16.119-0.08z M16.119,4.918h183.602c6.161,0,11.198,5.04,11.198,11.2v183.602
	c0,6.161-5.037,11.198-11.198,11.198H16.119c-6.161,0-11.2-5.037-11.2-11.198V16.119C4.918,9.958,9.958,4.918,16.119,4.918
	L16.119,4.918z M90.85,162.322l32.169-0.113c2.905-0.208,6.486-2.572,6.775-5.396c0.289-2.828-2.445-9.074-5.249-9.859
	c-28.054-7.906-44.576,3.435-65.45-19.23c-5.158-4.504-6.749-6.909-13.33-9.013l-27.788,0.269v54.167l77.932,25.057
	c4.049,1.123,8.775,1.648,12.63,0l88.992-43.018c2.575-1.481,2.177-6.051,0.923-8.695c-1-2.112-4.102-3.646-6.396-2.999
	l-45.296,18.055c-11.576,4.264-21.863,11.637-40.356,12.711l-17.236-5.225C85.247,168.068,83.284,162.437,90.85,162.322
	L90.85,162.322z"/>
</svg>
