<?xml version="1.0" encoding="utf-8"?>
<!DOCTYPE svg PUBLIC "-//W3C//DTD SVG 1.1//EN" "http://www.w3.org/Graphics/SVG/1.1/DTD/svg11.dtd">
<svg version="1.1" xmlns="http://www.w3.org/2000/svg" xmlns:xlink="http://www.w3.org/1999/xlink" x="0px" y="0px" width="216px" height="216px" viewBox="0 0 216 216" enable-background="new 0 0 216 216" xml:space="preserve">
<path fill-rule="evenodd" clip-rule="evenodd" d="M180.137,105.788L180.137,105.788
	c7.02,10.335,5.949,24.528-3.206,33.688c-9.164,9.159-23.353,10.229-33.688,3.21L180.137,105.788L180.137,105.788z M135.939,135.28
	L135.939,135.28c-6.787-10.312-5.648-24.307,3.422-33.375c9.065-9.068,23.063-10.207,33.37-3.422L135.939,135.28L135.939,135.28z
	 M17.272,59.1V35.135h18.154V16.977h23.962v18.158h18.156V59.1H59.389v18.154H35.426V59.1H17.272L17.272,59.1z"/>
</svg>
