<?xml version="1.0" encoding="utf-8"?>
<!DOCTYPE svg PUBLIC "-//W3C//DTD SVG 1.1//EN" "http://www.w3.org/Graphics/SVG/1.1/DTD/svg11.dtd">
<svg version="1.1" xmlns="http://www.w3.org/2000/svg" xmlns:xlink="http://www.w3.org/1999/xlink" x="0px" y="0px" width="216px" height="216px" viewBox="0 0 216 216" enable-background="new 0 0 216 216" xml:space="preserve">
<path fill-rule="evenodd" clip-rule="evenodd" d="M87.052,102.706c8.557,4.283,17.768,4.05,23.21-1.392
	l18.183-18.183l-6.743-6.745l-18.184,18.183c-2.61,2.612-6.58,3.341-10.711,2.38L87.052,102.706L87.052,102.706z M135.361,77.85
	L135.361,77.85l-23.738-23.736l23.104-23.106c6.526-6.527,17.208-6.527,23.738,0c6.527,6.529,6.527,17.212,0,23.739L135.361,77.85
	L135.361,77.85z M79.85,109.621L79.85,109.621l85.358-85.354c-10.238-10.237-26.99-10.237-37.224,0l-23.106,23.104L79.85,72.399
	C69.612,82.637,69.612,99.387,79.85,109.621c10.236,10.237,26.986,10.237,37.222,0L142.1,84.594l23.108-23.106
	c10.233-10.236,10.233-26.986,0-37.222L79.85,109.621L79.85,109.621z"/>
</svg>
