<?xml version="1.0" encoding="utf-8"?>
<!DOCTYPE svg PUBLIC "-//W3C//DTD SVG 1.1//EN" "http://www.w3.org/Graphics/SVG/1.1/DTD/svg11.dtd">
<svg version="1.1" xmlns="http://www.w3.org/2000/svg" xmlns:xlink="http://www.w3.org/1999/xlink" x="0px" y="0px" width="216px" height="216px" viewBox="0 0 216 216" enable-background="new 0 0 216 216" xml:space="preserve">
<path fill-rule="evenodd" clip-rule="evenodd" d="M16.119-0.08h183.602
	c8.911,0,16.199,7.29,16.199,16.199v183.602c0,8.907-7.288,16.199-16.199,16.199H16.119c-8.909,0-16.199-7.292-16.199-16.199V16.119
	C-0.08,7.209,7.209-0.08,16.119-0.08L16.119-0.08z M16.119,4.918h183.602c6.161,0,11.198,5.04,11.198,11.2v183.602
	c0,6.161-5.037,11.198-11.198,11.198H16.119c-6.161,0-11.2-5.037-11.2-11.198V16.119C4.918,9.958,9.958,4.918,16.119,4.918
	L16.119,4.918z M47.578,118.987c11.884,0,21.523,9.64,21.523,21.525c0,0.265-0.006,0.521-0.017,0.777
	c-1.526,0.932-2.411,2.608-2.411,4.785v4.374c-3.591,6.885-10.797,11.593-19.096,11.593c-11.885,0-21.523-9.64-21.523-21.529
	C26.055,128.627,35.693,118.987,47.578,118.987L47.578,118.987z M53.798,142.905L53.798,142.905c1.697,0,3.074,1.375,3.074,3.076
	s-1.377,3.076-3.074,3.076s-3.076-1.375-3.076-3.076S52.101,142.905,53.798,142.905L53.798,142.905z M42.486,142.905L42.486,142.905
	c1.701,0,3.078,1.375,3.078,3.076s-1.377,3.076-3.078,3.076c-1.697,0-3.074-1.375-3.074-3.076S40.789,142.905,42.486,142.905
	L42.486,142.905z M53.798,131.785L53.798,131.785c1.697,0,3.074,1.379,3.074,3.076c0,1.696-1.377,3.076-3.074,3.076
	s-3.076-1.38-3.076-3.076C50.722,133.164,52.101,131.785,53.798,131.785L53.798,131.785z M42.486,131.785L42.486,131.785
	c1.701,0,3.078,1.379,3.078,3.076c0,1.696-1.377,3.076-3.078,3.076c-1.697,0-3.074-1.38-3.074-3.076
	C39.412,133.164,40.789,131.785,42.486,131.785L42.486,131.785z M118.52,72.831c3.825,3.245,8.562,4.956,13.582,4.956
	c4.375,0,8.415-1.3,11.675-3.489c0.964-0.671,1.859-1.42,2.665-2.238c3.182-3.088,5.131-7.204,5.131-11.725
	c0-2.486-0.59-4.848-1.647-6.986c5.684,1.789,11.364,3.575,17.049,5.361l-9.9,15.186h26.489l18.742,20.361
	c0.847,0.918,0.785,2.362-0.134,3.208l-23.564,21.69c-1.029,0.948-2.4,0.74-3.206-0.134l-7.194-7.817v12.354
	c-2.583,1.144-5.005,2.775-7.12,4.892c-9.237,9.236-9.237,24.219,0,33.455c0.256,0.257,0.521,0.509,0.789,0.753
	c-4.069-0.008-9.281-0.021-15.007-0.032l-0.362-0.248l-3.193-3.198h-0.004l-13.555-13.542l-1.766-1.766v-10.999l-1.852-1.237
	c-0.342-0.231-0.622-0.541-1.018-0.789c-0.988-0.627-2.051-0.871-3.21-0.871h-2.385c-8.348,0-15.692,5.266-23.761,8.802v-27.732
	l-7.192,7.814c-0.847,0.92-2.291,0.98-3.21,0.13L61.797,97.304c-0.917-0.848-0.979-2.291-0.132-3.21l31.071-33.759l3.027-1.399
	l18.435-5.798c-0.419,0.864-0.765,1.766-1.025,2.695l0.041-0.012c-0.436,1.438-0.668,2.952-0.668,4.514
	C112.546,65.242,114.837,69.671,118.52,72.831L118.52,72.831z M141.701,91.42L141.701,91.42c3.353-3.353,8.789-3.353,12.142,0
	c3.349,3.351,3.349,8.785,0,12.136c-2.1,2.1-5.017,2.883-7.723,2.354c2.115,5.201,1.062,11.393-3.158,15.613
	c-5.619,5.619-14.733,5.619-20.357,0c-4.219-4.22-5.269-10.412-3.153-15.613c-2.71,0.529-5.627-0.254-7.725-2.354
	c-3.351-3.351-3.351-8.785,0-12.136c3.351-3.353,8.787-3.353,12.14,0c1.929,1.925,2.747,4.545,2.458,7.06
	c4.053-2.036,8.866-2.036,12.919-0.002C138.954,95.965,139.772,93.345,141.701,91.42L141.701,91.42z M142.58,104.325L142.58,104.325
	c-0.306-0.232-0.599-0.488-0.879-0.769c-0.439-0.441-0.826-0.921-1.152-1.426c-4.476-3.78-11.055-3.78-15.531,0
	c-0.325,0.504-0.708,0.984-1.151,1.426c-0.28,0.281-0.573,0.537-0.879,0.769c-3.381,4.708-2.958,11.31,1.273,15.542
	c4.704,4.704,12.342,4.704,17.046,0C145.538,115.635,145.965,109.033,142.58,104.325L142.58,104.325z M113.824,93.516
	L113.824,93.516c2.193-2.191,5.749-2.191,7.942,0c2.193,2.193,2.193,5.75,0,7.942c-2.193,2.193-5.749,2.193-7.942,0
	C111.631,99.265,111.631,95.709,113.824,93.516L113.824,93.516z M143.801,93.516L143.801,93.516c2.193-2.191,5.749-2.191,7.942,0
	c2.193,2.193,2.193,5.75,0,7.942c-2.193,2.193-5.749,2.193-7.942,0C141.607,99.265,141.607,95.709,143.801,93.516L143.801,93.516z
	 M127.492,107.92c0.903,0,1.64,0.732,1.64,1.638s-0.736,1.638-1.64,1.638s-1.636-0.732-1.636-1.638S126.589,107.92,127.492,107.92
	L127.492,107.92z M137.493,107.92c0.903,0,1.64,0.732,1.64,1.638s-0.736,1.638-1.64,1.638s-1.636-0.732-1.636-1.638
	S136.59,107.92,137.493,107.92L137.493,107.92z M132.322,113.954c0.902,0,1.635,0.736,1.635,1.64s-0.732,1.636-1.635,1.636
	c-0.908,0-1.641-0.732-1.641-1.636S131.414,113.954,132.322,113.954L132.322,113.954z"/>
</svg>
