<?xml version="1.0" encoding="utf-8"?>
<!DOCTYPE svg PUBLIC "-//W3C//DTD SVG 1.1//EN" "http://www.w3.org/Graphics/SVG/1.1/DTD/svg11.dtd">
<svg version="1.1" xmlns="http://www.w3.org/2000/svg" xmlns:xlink="http://www.w3.org/1999/xlink" x="0px" y="0px" width="216px" height="216px" viewBox="0 0 216 216" enable-background="new 0 0 216 216" xml:space="preserve">
<path fill-rule="evenodd" clip-rule="evenodd" d="M34.625,42.429c-0.24-1.448-0.366-2.956-0.366-4.504
	c0-11.23,6.649-20.339,14.846-20.339c4.328,0,8.222,2.541,10.938,6.59c2.712-4.049,6.608-6.59,10.938-6.59
	c8.197,0,14.844,9.108,14.844,20.339c0,1.774-0.165,3.492-0.479,5.131c-5.438,1.388-14.294,2.293-24.3,2.293
	C49.606,45.349,39.668,44.165,34.625,42.429L34.625,42.429z M90.291,47.737L90.291,47.737c5.855,1.282,10.315,2.919,12.774,4.769
	l-8.728,2.745l-3.971,1.837l-7.495,8.145c-6.95,0.999-15.092,1.573-23.8,1.573c-25.476,0-46.135-4.917-46.135-10.982
	c0-3.555,7.103-6.716,18.107-8.722c2.49,2.639,14.99,4.645,30.031,4.645C74.879,51.745,86.539,50.056,90.291,47.737L90.291,47.737z
	 M123.817,145.595L123.817,145.595v-10.498c-0.858-0.577-0.838-0.952-1.908-0.952h-2.385c-10.882,0-21.563,11.931-36.751,11.931
	h-2.863c-3.516,0-4.745-1.437-7.633-1.437c-1.101,0-1.435,0.334-1.435,1.437v33.406H99c3.559,0,10.001,2.503,13.648,3.532
	c2.396,0.676,11.971,3.625,13.554,3.625h50.114c0-8.19-5.396-12.748-12.688-14.038c-13.196-2.352-10.16-0.528-19.796-6.998
	l-0.407-0.415l-6.819,7.36c-0.676,0.729-1.823,0.777-2.552,0.098l-0.293-0.272c-0.728-0.671-0.772-1.823-0.098-2.556l6.922-7.466
	l-3.938-3.931l-6.706,7.234c-0.676,0.729-1.823,0.777-2.551,0.098l-0.293-0.272c-0.729-0.676-0.773-1.823-0.098-2.552l6.807-7.353
	l-3.935-3.931l-6.592,7.117c-0.676,0.728-1.827,0.776-2.556,0.098l-0.293-0.273c-0.728-0.671-0.772-1.822-0.098-2.551l6.694-7.227
	L123.817,145.595L123.817,145.595z M168.679,136.045L168.679,136.045c5.041-5.041,13.224-5.041,18.266,0
	c5.042,5.042,5.042,13.221,0,18.262c-5.042,5.046-13.225,5.046-18.266,0C163.637,149.266,163.637,141.087,168.679,136.045
	L168.679,136.045z M181.463,143.548L181.463,143.548c0.721-0.716,1.893-0.716,2.613,0c0.72,0.725,0.72,1.893,0,2.612
	c-0.721,0.721-1.893,0.721-2.613,0C180.743,145.44,180.743,144.272,181.463,143.548L181.463,143.548z M176.666,148.35
	L176.666,148.35c0.72-0.72,1.892-0.72,2.612,0c0.72,0.721,0.72,1.888,0,2.612c-0.721,0.721-1.893,0.721-2.612,0
	C175.945,150.237,175.945,149.07,176.666,148.35L176.666,148.35z M176.747,138.832L176.747,138.832c0.721-0.72,1.893-0.72,2.608,0
	c0.721,0.725,0.721,1.889,0,2.608c-0.716,0.725-1.888,0.725-2.608,0C176.027,140.721,176.027,139.557,176.747,138.832
	L176.747,138.832z M171.95,143.634L171.95,143.634c0.72-0.721,1.888-0.721,2.608,0c0.72,0.72,0.72,1.888,0,2.608
	c-0.721,0.72-1.889,0.72-2.608,0C171.229,145.521,171.229,144.354,171.95,143.634L171.95,143.634z M202.105,69.952L202.105,69.952
	h-18.876h-18.881l7.109-10.899h23.979L202.105,69.952L202.105,69.952z M164.349,18.942L164.349,18.942h18.881h18.876l-6.795,11.772
	h-23.853L164.349,18.942L164.349,18.942z"/>
</svg>
