<?xml version="1.0" encoding="utf-8"?>
<!DOCTYPE svg PUBLIC "-//W3C//DTD SVG 1.1//EN" "http://www.w3.org/Graphics/SVG/1.1/DTD/svg11.dtd">
<svg version="1.1" xmlns="http://www.w3.org/2000/svg" xmlns:xlink="http://www.w3.org/1999/xlink" x="0px" y="0px" width="216px" height="216px" viewBox="0 0 216 216" enable-background="new 0 0 216 216" xml:space="preserve">
<path fill-rule="evenodd" clip-rule="evenodd" d="M171.458,33.111h23.979v0.061l-11.995,2.873
	l-11.983-2.871V33.111L171.458,33.111z M176.833,37.627L176.833,37.627l-5.375-1.288v-1.618l8.752,2.098L176.833,37.627
	L176.833,37.627z M173.602,38.4L173.602,38.4l-2.144,0.515v-1.028L173.602,38.4L173.602,38.4z M195.437,34.718L195.437,34.718v1.619
	l-5.388,1.29l-3.377-0.808L195.437,34.718L195.437,34.718z M183.441,39.208L183.441,39.208l-3.378-0.808l3.378-0.81h0.004
	l3.373,0.81L183.441,39.208L183.441,39.208z M176.833,40.791L176.833,40.791l-3.378-0.808l3.378-0.81l3.377,0.81L176.833,40.791
	L176.833,40.791z M173.602,41.566L173.602,41.566l-2.144,0.513v-1.027L173.602,41.566L173.602,41.566z M195.437,37.884
	L195.437,37.884v1.032l-2.152-0.515L195.437,37.884L195.437,37.884z M190.049,40.793L190.049,40.793l-3.377-0.81l3.377-0.81h0.004
	l3.373,0.81L190.049,40.793L190.049,40.793z M186.818,41.566L186.818,41.566l-3.377,0.808l-3.378-0.808l3.378-0.81h0.004
	L186.818,41.566L186.818,41.566z M180.21,43.147L180.21,43.147l-3.377,0.81l-3.378-0.81l3.378-0.808L180.21,43.147L180.21,43.147z
	 M173.602,44.73L173.602,44.73l-2.144,0.515v-1.027L173.602,44.73L173.602,44.73z M195.437,41.05L195.437,41.05v1.033l-2.152-0.517
	L195.437,41.05L195.437,41.05z M190.049,43.955L190.049,43.955l-3.377-0.808l3.377-0.808h0.004l3.373,0.808L190.049,43.955
	L190.049,43.955z M183.441,45.538L183.441,45.538l-3.378-0.808l3.378-0.808h0.004l3.373,0.808L183.441,45.538L183.441,45.538z
	 M176.833,47.121L176.833,47.121l-3.378-0.808l3.378-0.81l3.377,0.81L176.833,47.121L176.833,47.121z M173.602,47.894
	L173.602,47.894l-2.144,0.515v-1.027L173.602,47.894L173.602,47.894z M195.437,44.215L195.437,44.215v1.031l-2.152-0.519
	L195.437,44.215L195.437,44.215z M190.049,47.121L190.049,47.121l-3.377-0.81l3.377-0.808l0,0l3.377,0.81L190.049,47.121
	L190.049,47.121z M183.441,48.703L183.441,48.703l-3.378-0.81l3.378-0.808l0,0l3.377,0.808L183.441,48.703L183.441,48.703z
	 M176.833,50.286L176.833,50.286l-3.373-0.81l3.373-0.808l0,0l3.377,0.808L176.833,50.286L176.833,50.286z M173.602,51.06
	L173.602,51.06l-2.144,0.515v-1.027L173.602,51.06L173.602,51.06z M195.437,47.379L195.437,47.379v1.031l-2.152-0.517
	L195.437,47.379L195.437,47.379z M190.049,50.286L190.049,50.286l-3.377-0.81l3.377-0.808h0.004l3.373,0.808L190.049,50.286
	L190.049,50.286z M183.441,51.867L183.441,51.867l-3.378-0.808l3.378-0.808h0.004l3.373,0.808L183.441,51.867L183.441,51.867z
	 M171.458,54.738L171.458,54.738V53.12l5.375-1.288l3.377,0.81L171.458,54.738L171.458,54.738z M195.437,50.544L195.437,50.544
	v1.032l-2.152-0.517L195.437,50.544L195.437,50.544z M195.437,53.122L195.437,53.122v1.618l-8.765-2.098l3.377-0.81h0.004
	L195.437,53.122L195.437,53.122z M195.437,56.288L195.437,56.288v0.37h-23.979v-0.374l11.983-2.869h0.004L195.437,56.288
	L195.437,56.288z M47.578,108.04L47.578,108.04c17.932,0,32.475,14.545,32.475,32.473c0,0.468-0.012,0.928-0.033,1.392h-0.11
	c-1.349,0-2.224-0.35-3.481-0.744c-0.565-0.18-1.115-0.322-1.666-0.436l0.002-0.212c0-15.011-12.175-27.189-27.188-27.189
	s-27.189,12.179-27.189,27.189c0,15.015,12.176,27.189,27.189,27.189c7.44,0,14.187-2.991,19.096-7.837v6.917
	c-5.361,3.902-11.959,6.205-19.096,6.205c-17.932,0-32.477-14.538-32.477-32.475C15.102,122.585,29.646,108.04,47.578,108.04
	L47.578,108.04z M102.341,194.276L102.341,194.276c6.195,0.513,17.175,6.206,23.384,6.206h49.126c1.232,0.024,1.46-1.099,1.46-2.389
	v-8.114h-50.105c-6.498,0-20.449-7.161-27.682-7.161h-27.68v15.275c0,1.29,0.378,2.299,2.143,2.389h27.922
	c1.099,0,1.432-0.338,1.432-1.437V194.276L102.341,194.276z M164.031,131.398L164.031,131.398c7.609-7.609,19.951-7.609,27.56,0
	c7.605,7.608,7.605,19.95,0,27.555c-7.608,7.609-19.95,7.609-27.56,0C156.427,151.349,156.427,139.007,164.031,131.398
	L164.031,131.398z M166.277,133.641L166.277,133.641c6.368-6.368,16.699-6.368,23.067,0c6.372,6.372,6.372,16.699,0,23.071
	c-6.368,6.367-16.699,6.367-23.067,0C159.905,150.34,159.905,140.013,166.277,133.641L166.277,133.641z M114.813,55.336
	L114.813,55.336l14.453-4.362c-0.053-0.246-0.081-0.506-0.081-0.773v-9.843c0-1.538,0.96-2.8,2.136-2.8h1.632
	c3.472-0.317,6.193-3.232,6.193-6.785c0-3.762-3.052-6.816-6.819-6.816c-3.687,0-6.689,2.934-6.808,6.594v1.443
	c0,1.55-0.965,2.817-2.148,2.817h-1.803c-1.18,0-2.107-1.267-2.148-2.817c-0.013-0.405-0.037-0.816-0.037-1.221
	c0-7.402,6.002-13.401,13.399-13.401c7.402,0,13.403,6,13.403,13.401c0,6.557-4.716,12.016-10.938,13.173v6.254
	c0,0.338-0.044,0.664-0.13,0.964c4.708,1.575,9.465,2.962,14.237,4.396c0.546,1.526,0.826,3.135,0.826,4.773
	c0,0.537-0.032,1.07-0.09,1.595l-18.136-6.065l-17.984,5.43c-0.021-0.319-0.033-0.637-0.033-0.96c0-1.394,0.204-2.777,0.606-4.112
	L114.813,55.336L114.813,55.336z M32.004,46.612L32.004,46.612c0.405-1.07,0.732-1.947,0.688-3.155
	c8.083,1.662,18.455,3.554,28.589,3.554s17.792-1.566,25.295-2.887c-0.071,1.235,1.32,1.813,1.086,2.975
	c-5.772,1.388-15.25,3.111-26.63,3.111C49.653,50.209,37.357,48.345,32.004,46.612L32.004,46.612z"/>
</svg>
