<?xml version="1.0" encoding="utf-8"?>
<!DOCTYPE svg PUBLIC "-//W3C//DTD SVG 1.1//EN" "http://www.w3.org/Graphics/SVG/1.1/DTD/svg11.dtd">
<svg version="1.1" xmlns="http://www.w3.org/2000/svg" xmlns:xlink="http://www.w3.org/1999/xlink" x="0px" y="0px" width="216px" height="216px" viewBox="0 0 216 216" enable-background="new 0 0 216 216" xml:space="preserve">
<path id="_x33_" fill-rule="evenodd" clip-rule="evenodd" fill="#F58031" d="M34.625,42.429c-0.24-1.448-0.366-2.956-0.366-4.504
	c0-11.23,6.649-20.339,14.846-20.339c4.328,0,8.222,2.541,10.938,6.59c2.712-4.049,6.608-6.59,10.938-6.59
	c8.197,0,14.844,9.108,14.844,20.339c0,1.774-0.165,3.492-0.479,5.131c-5.438,1.388-14.294,2.293-24.3,2.293
	C49.606,45.349,39.668,44.165,34.625,42.429L34.625,42.429z M90.291,47.737L90.291,47.737c5.855,1.282,10.315,2.919,12.774,4.769
	l-8.728,2.745l-3.971,1.837l-7.495,8.145c-6.95,0.999-15.092,1.573-23.8,1.573c-25.476,0-46.135-4.917-46.135-10.982
	c0-3.555,7.103-6.716,18.107-8.722c2.49,2.639,14.99,4.645,30.031,4.645C74.879,51.745,86.539,50.056,90.291,47.737L90.291,47.737z
	 M123.817,145.595L123.817,145.595v-10.498c-0.858-0.577-0.838-0.952-1.908-0.952h-2.385c-10.882,0-21.563,11.931-36.751,11.931
	h-2.863c-3.516,0-4.745-1.437-7.633-1.437c-1.101,0-1.435,0.334-1.435,1.437v33.406H99c3.559,0,10.001,2.503,13.648,3.532
	c2.396,0.676,11.971,3.625,13.554,3.625h50.114c0-8.19-5.396-12.748-12.688-14.038c-13.196-2.352-10.16-0.528-19.796-6.998
	l-0.407-0.415l-6.819,7.36c-0.676,0.729-1.823,0.777-2.552,0.098l-0.293-0.272c-0.728-0.671-0.772-1.823-0.098-2.556l6.922-7.466
	l-3.938-3.931l-6.706,7.234c-0.676,0.729-1.823,0.777-2.551,0.098l-0.293-0.272c-0.729-0.676-0.773-1.823-0.098-2.552l6.807-7.353
	l-3.935-3.931l-6.592,7.117c-0.676,0.728-1.827,0.776-2.556,0.098l-0.293-0.273c-0.728-0.671-0.772-1.822-0.098-2.551l6.694-7.227
	L123.817,145.595L123.817,145.595z M168.679,136.045L168.679,136.045c5.041-5.041,13.224-5.041,18.266,0
	c5.042,5.042,5.042,13.221,0,18.262c-5.042,5.046-13.225,5.046-18.266,0C163.637,149.266,163.637,141.087,168.679,136.045
	L168.679,136.045z M181.463,143.548L181.463,143.548c0.721-0.716,1.893-0.716,2.613,0c0.72,0.725,0.72,1.893,0,2.612
	c-0.721,0.721-1.893,0.721-2.613,0C180.743,145.44,180.743,144.272,181.463,143.548L181.463,143.548z M176.666,148.35
	L176.666,148.35c0.72-0.72,1.892-0.72,2.612,0c0.72,0.721,0.72,1.888,0,2.612c-0.721,0.721-1.893,0.721-2.612,0
	C175.945,150.237,175.945,149.07,176.666,148.35L176.666,148.35z M176.747,138.832L176.747,138.832c0.721-0.72,1.893-0.72,2.608,0
	c0.721,0.725,0.721,1.889,0,2.608c-0.716,0.725-1.888,0.725-2.608,0C176.027,140.721,176.027,139.557,176.747,138.832
	L176.747,138.832z M171.95,143.634L171.95,143.634c0.72-0.721,1.888-0.721,2.608,0c0.72,0.72,0.72,1.888,0,2.608
	c-0.721,0.72-1.889,0.72-2.608,0C171.229,145.521,171.229,144.354,171.95,143.634L171.95,143.634z M202.105,69.952L202.105,69.952
	h-18.876h-18.881l7.109-10.899h23.979L202.105,69.952L202.105,69.952z M164.349,18.942L164.349,18.942h18.881h18.876l-6.795,11.772
	h-23.853L164.349,18.942L164.349,18.942z"/>
<path id="_x32_" fill-rule="evenodd" clip-rule="evenodd" fill="#999557" d="M16.119-0.08h183.602
	c8.911,0,16.199,7.29,16.199,16.199v183.602c0,8.907-7.288,16.199-16.199,16.199H16.119c-8.909,0-16.199-7.292-16.199-16.199V16.119
	C-0.08,7.209,7.209-0.08,16.119-0.08L16.119-0.08z M16.119,4.918h183.602c6.161,0,11.198,5.04,11.198,11.2v183.602
	c0,6.161-5.037,11.198-11.198,11.198H16.119c-6.161,0-11.2-5.037-11.2-11.198V16.119C4.918,9.958,9.958,4.918,16.119,4.918
	L16.119,4.918z M47.578,118.987c11.884,0,21.523,9.64,21.523,21.525c0,0.265-0.006,0.521-0.017,0.777
	c-1.526,0.932-2.411,2.608-2.411,4.785v4.374c-3.591,6.885-10.797,11.593-19.096,11.593c-11.885,0-21.523-9.64-21.523-21.529
	C26.055,128.627,35.693,118.987,47.578,118.987L47.578,118.987z M53.798,142.905L53.798,142.905c1.697,0,3.074,1.375,3.074,3.076
	s-1.377,3.076-3.074,3.076s-3.076-1.375-3.076-3.076S52.101,142.905,53.798,142.905L53.798,142.905z M42.486,142.905L42.486,142.905
	c1.701,0,3.078,1.375,3.078,3.076s-1.377,3.076-3.078,3.076c-1.697,0-3.074-1.375-3.074-3.076S40.789,142.905,42.486,142.905
	L42.486,142.905z M53.798,131.785L53.798,131.785c1.697,0,3.074,1.379,3.074,3.076c0,1.696-1.377,3.076-3.074,3.076
	s-3.076-1.38-3.076-3.076C50.722,133.164,52.101,131.785,53.798,131.785L53.798,131.785z M42.486,131.785L42.486,131.785
	c1.701,0,3.078,1.379,3.078,3.076c0,1.696-1.377,3.076-3.078,3.076c-1.697,0-3.074-1.38-3.074-3.076
	C39.412,133.164,40.789,131.785,42.486,131.785L42.486,131.785z M118.52,72.831c3.825,3.245,8.562,4.956,13.582,4.956
	c4.375,0,8.415-1.3,11.675-3.489c0.964-0.671,1.859-1.42,2.665-2.238c3.182-3.088,5.131-7.204,5.131-11.725
	c0-2.486-0.59-4.848-1.647-6.986c5.684,1.789,11.364,3.575,17.049,5.361l-9.9,15.186h26.489l18.742,20.361
	c0.847,0.918,0.785,2.362-0.134,3.208l-23.564,21.69c-1.029,0.948-2.4,0.74-3.206-0.134l-7.194-7.817v12.354
	c-2.583,1.144-5.005,2.775-7.12,4.892c-9.237,9.236-9.237,24.219,0,33.455c0.256,0.257,0.521,0.509,0.789,0.753
	c-4.069-0.008-9.281-0.021-15.007-0.032l-0.362-0.248l-3.193-3.198h-0.004l-13.555-13.542l-1.766-1.766v-10.999l-1.852-1.237
	c-0.342-0.231-0.622-0.541-1.018-0.789c-0.988-0.627-2.051-0.871-3.21-0.871h-2.385c-8.348,0-15.692,5.266-23.761,8.802v-27.732
	l-7.192,7.814c-0.847,0.92-2.291,0.98-3.21,0.13L61.797,97.304c-0.917-0.848-0.979-2.291-0.132-3.21l31.071-33.759l3.027-1.399
	l18.435-5.798c-0.419,0.864-0.765,1.766-1.025,2.695l0.041-0.012c-0.436,1.438-0.668,2.952-0.668,4.514
	C112.546,65.242,114.837,69.671,118.52,72.831L118.52,72.831z M141.701,91.42L141.701,91.42c3.353-3.353,8.789-3.353,12.142,0
	c3.349,3.351,3.349,8.785,0,12.136c-2.1,2.1-5.017,2.883-7.723,2.354c2.115,5.201,1.062,11.393-3.158,15.613
	c-5.619,5.619-14.733,5.619-20.357,0c-4.219-4.22-5.269-10.412-3.153-15.613c-2.71,0.529-5.627-0.254-7.725-2.354
	c-3.351-3.351-3.351-8.785,0-12.136c3.351-3.353,8.787-3.353,12.14,0c1.929,1.925,2.747,4.545,2.458,7.06
	c4.053-2.036,8.866-2.036,12.919-0.002C138.954,95.965,139.772,93.345,141.701,91.42L141.701,91.42z M142.58,104.325L142.58,104.325
	c-0.306-0.232-0.599-0.488-0.879-0.769c-0.439-0.441-0.826-0.921-1.152-1.426c-4.476-3.78-11.055-3.78-15.531,0
	c-0.325,0.504-0.708,0.984-1.151,1.426c-0.28,0.281-0.573,0.537-0.879,0.769c-3.381,4.708-2.958,11.31,1.273,15.542
	c4.704,4.704,12.342,4.704,17.046,0C145.538,115.635,145.965,109.033,142.58,104.325L142.58,104.325z M113.824,93.516
	L113.824,93.516c2.193-2.191,5.749-2.191,7.942,0c2.193,2.193,2.193,5.75,0,7.942c-2.193,2.193-5.749,2.193-7.942,0
	C111.631,99.265,111.631,95.709,113.824,93.516L113.824,93.516z M143.801,93.516L143.801,93.516c2.193-2.191,5.749-2.191,7.942,0
	c2.193,2.193,2.193,5.75,0,7.942c-2.193,2.193-5.749,2.193-7.942,0C141.607,99.265,141.607,95.709,143.801,93.516L143.801,93.516z
	 M127.492,107.92c0.903,0,1.64,0.732,1.64,1.638s-0.736,1.638-1.64,1.638s-1.636-0.732-1.636-1.638S126.589,107.92,127.492,107.92
	L127.492,107.92z M137.493,107.92c0.903,0,1.64,0.732,1.64,1.638s-0.736,1.638-1.64,1.638s-1.636-0.732-1.636-1.638
	S136.59,107.92,137.493,107.92L137.493,107.92z M132.322,113.954c0.902,0,1.635,0.736,1.635,1.64s-0.732,1.636-1.635,1.636
	c-0.908,0-1.641-0.732-1.641-1.636S131.414,113.954,132.322,113.954L132.322,113.954z"/>
<path id="_x31_" fill-rule="evenodd" clip-rule="evenodd" fill="#7E5628" d="M171.458,33.111h23.979v0.061l-11.995,2.873
	l-11.983-2.871V33.111L171.458,33.111z M176.833,37.627L176.833,37.627l-5.375-1.288v-1.618l8.752,2.098L176.833,37.627
	L176.833,37.627z M173.602,38.4L173.602,38.4l-2.144,0.515v-1.028L173.602,38.4L173.602,38.4z M195.437,34.718L195.437,34.718v1.619
	l-5.388,1.29l-3.377-0.808L195.437,34.718L195.437,34.718z M183.441,39.208L183.441,39.208l-3.378-0.808l3.378-0.81h0.004
	l3.373,0.81L183.441,39.208L183.441,39.208z M176.833,40.791L176.833,40.791l-3.378-0.808l3.378-0.81l3.377,0.81L176.833,40.791
	L176.833,40.791z M173.602,41.566L173.602,41.566l-2.144,0.513v-1.027L173.602,41.566L173.602,41.566z M195.437,37.884
	L195.437,37.884v1.032l-2.152-0.515L195.437,37.884L195.437,37.884z M190.049,40.793L190.049,40.793l-3.377-0.81l3.377-0.81h0.004
	l3.373,0.81L190.049,40.793L190.049,40.793z M186.818,41.566L186.818,41.566l-3.377,0.808l-3.378-0.808l3.378-0.81h0.004
	L186.818,41.566L186.818,41.566z M180.21,43.147L180.21,43.147l-3.377,0.81l-3.378-0.81l3.378-0.808L180.21,43.147L180.21,43.147z
	 M173.602,44.73L173.602,44.73l-2.144,0.515v-1.027L173.602,44.73L173.602,44.73z M195.437,41.05L195.437,41.05v1.033l-2.152-0.517
	L195.437,41.05L195.437,41.05z M190.049,43.955L190.049,43.955l-3.377-0.808l3.377-0.808h0.004l3.373,0.808L190.049,43.955
	L190.049,43.955z M183.441,45.538L183.441,45.538l-3.378-0.808l3.378-0.808h0.004l3.373,0.808L183.441,45.538L183.441,45.538z
	 M176.833,47.121L176.833,47.121l-3.378-0.808l3.378-0.81l3.377,0.81L176.833,47.121L176.833,47.121z M173.602,47.894
	L173.602,47.894l-2.144,0.515v-1.027L173.602,47.894L173.602,47.894z M195.437,44.215L195.437,44.215v1.031l-2.152-0.519
	L195.437,44.215L195.437,44.215z M190.049,47.121L190.049,47.121l-3.377-0.81l3.377-0.808l0,0l3.377,0.81L190.049,47.121
	L190.049,47.121z M183.441,48.703L183.441,48.703l-3.378-0.81l3.378-0.808l0,0l3.377,0.808L183.441,48.703L183.441,48.703z
	 M176.833,50.286L176.833,50.286l-3.373-0.81l3.373-0.808l0,0l3.377,0.808L176.833,50.286L176.833,50.286z M173.602,51.06
	L173.602,51.06l-2.144,0.515v-1.027L173.602,51.06L173.602,51.06z M195.437,47.379L195.437,47.379v1.031l-2.152-0.517
	L195.437,47.379L195.437,47.379z M190.049,50.286L190.049,50.286l-3.377-0.81l3.377-0.808h0.004l3.373,0.808L190.049,50.286
	L190.049,50.286z M183.441,51.867L183.441,51.867l-3.378-0.808l3.378-0.808h0.004l3.373,0.808L183.441,51.867L183.441,51.867z
	 M171.458,54.738L171.458,54.738V53.12l5.375-1.288l3.377,0.81L171.458,54.738L171.458,54.738z M195.437,50.544L195.437,50.544
	v1.032l-2.152-0.517L195.437,50.544L195.437,50.544z M195.437,53.122L195.437,53.122v1.618l-8.765-2.098l3.377-0.81h0.004
	L195.437,53.122L195.437,53.122z M195.437,56.288L195.437,56.288v0.37h-23.979v-0.374l11.983-2.869h0.004L195.437,56.288
	L195.437,56.288z M47.578,108.04L47.578,108.04c17.932,0,32.475,14.545,32.475,32.473c0,0.468-0.012,0.928-0.033,1.392h-0.11
	c-1.349,0-2.224-0.35-3.481-0.744c-0.565-0.18-1.115-0.322-1.666-0.436l0.002-0.212c0-15.011-12.175-27.189-27.188-27.189
	s-27.189,12.179-27.189,27.189c0,15.015,12.176,27.189,27.189,27.189c7.44,0,14.187-2.991,19.096-7.837v6.917
	c-5.361,3.902-11.959,6.205-19.096,6.205c-17.932,0-32.477-14.538-32.477-32.475C15.102,122.585,29.646,108.04,47.578,108.04
	L47.578,108.04z M102.341,194.276L102.341,194.276c6.195,0.513,17.175,6.206,23.384,6.206h49.126c1.232,0.024,1.46-1.099,1.46-2.389
	v-8.114h-50.105c-6.498,0-20.449-7.161-27.682-7.161h-27.68v15.275c0,1.29,0.378,2.299,2.143,2.389h27.922
	c1.099,0,1.432-0.338,1.432-1.437V194.276L102.341,194.276z M164.031,131.398L164.031,131.398c7.609-7.609,19.951-7.609,27.56,0
	c7.605,7.608,7.605,19.95,0,27.555c-7.608,7.609-19.95,7.609-27.56,0C156.427,151.349,156.427,139.007,164.031,131.398
	L164.031,131.398z M166.277,133.641L166.277,133.641c6.368-6.368,16.699-6.368,23.067,0c6.372,6.372,6.372,16.699,0,23.071
	c-6.368,6.367-16.699,6.367-23.067,0C159.905,150.34,159.905,140.013,166.277,133.641L166.277,133.641z M114.813,55.336
	L114.813,55.336l14.453-4.362c-0.053-0.246-0.081-0.506-0.081-0.773v-9.843c0-1.538,0.96-2.8,2.136-2.8h1.632
	c3.472-0.317,6.193-3.232,6.193-6.785c0-3.762-3.052-6.816-6.819-6.816c-3.687,0-6.689,2.934-6.808,6.594v1.443
	c0,1.55-0.965,2.817-2.148,2.817h-1.803c-1.18,0-2.107-1.267-2.148-2.817c-0.013-0.405-0.037-0.816-0.037-1.221
	c0-7.402,6.002-13.401,13.399-13.401c7.402,0,13.403,6,13.403,13.401c0,6.557-4.716,12.016-10.938,13.173v6.254
	c0,0.338-0.044,0.664-0.13,0.964c4.708,1.575,9.465,2.962,14.237,4.396c0.546,1.526,0.826,3.135,0.826,4.773
	c0,0.537-0.032,1.07-0.09,1.595l-18.136-6.065l-17.984,5.43c-0.021-0.319-0.033-0.637-0.033-0.96c0-1.394,0.204-2.777,0.606-4.112
	L114.813,55.336L114.813,55.336z M32.004,46.612L32.004,46.612c0.405-1.07,0.732-1.947,0.688-3.155
	c8.083,1.662,18.455,3.554,28.589,3.554s17.792-1.566,25.295-2.887c-0.071,1.235,1.32,1.813,1.086,2.975
	c-5.772,1.388-15.25,3.111-26.63,3.111C49.653,50.209,37.357,48.345,32.004,46.612L32.004,46.612z"/>
</svg>
