<?xml version="1.0" encoding="utf-8"?>
<!DOCTYPE svg PUBLIC "-//W3C//DTD SVG 1.1//EN" "http://www.w3.org/Graphics/SVG/1.1/DTD/svg11.dtd">
<svg version="1.1" xmlns="http://www.w3.org/2000/svg" xmlns:xlink="http://www.w3.org/1999/xlink" x="0px" y="0px" width="216px" height="216px" viewBox="0 0 216 216" enable-background="new 0 0 216 216" xml:space="preserve">
<path fill-rule="evenodd" clip-rule="evenodd" d="M67.229,37.701L67.229,37.701
	c3.634-11.344,14.728-18.998,26.939-18.998h23.476c15.063,0,27.389,13.015,27.389,28.922V84.13
	c-0.943,1.498-2.066,2.993-3.056,4.417c-1.904,2.747-3.724,5.528-5.343,8.453c-4.195,7.573-6.889,15.863-6.661,24.599
	c0.321,12.387,5.673,24.085,14.844,30.88l-0.032,6.629H117.03v-20.508c0-2.633-1.155-4.944-2.624-7.031l2.002-1.746
	c2.555-2.226,5.533-4.22,5.533-8.13c0-4.35-4.549-7.426-7.324-10.205c-3.316-3.312-5.011-6.791-10.715-6.559l-2.208,0.089
	l-6.236,7.45c-0.075-0.181-0.143-0.37-0.199-0.567c-2.017-6.97-4.535-11.013-12.665-11.013h-15.81V87.748l0,0
	c-3.081,3.083-10.185,1.894-11.621-1.392c-1.801-1.579-2.802-11.047-5.146-11.047c-3.416,27.472-26.345,30.271-25.582,79.877
	c0.232,6.152,5.052,14.104,8.964,14.104h2.93c0.128,0,0.256-0.004,0.38-0.013l-0.004,6.946l-0.002,0.5h-5.235
	c-6.439,0-13.202-13.224-13.324-20.361c-0.645-47.555,22.713-54.999,26.097-82.782l-0.008-15.177c0.849-4.645,5.17-6.429,5.17-9.837
	c0.004-5.692,1.674-7.316,4.606-7.316h12.354C66.57,40.032,66.861,38.848,67.229,37.701L67.229,37.701z M116.457,28.987
	L116.457,28.987H96.504c-10.236,0-18.61,8.84-18.61,19.651v24.565c0,2.702,2.096,4.913,4.651,4.913h47.868
	c2.56,0,4.655-2.211,4.655-4.913V48.638C135.068,37.827,126.694,28.987,116.457,28.987L116.457,28.987z M64.597,82.165
	L64.597,82.165h-3.306c-1.095,0-1.986-1.414-1.986-3.142l-0.328-25.74c0-1.729,0.893-3.144,1.986-3.144h3.306
	c1.09,0,1.983,1.414,1.983,3.144l0.328,25.74C66.581,80.751,65.688,82.165,64.597,82.165L64.597,82.165z M92.215,44.382h-6.138
	v19.196h6.138V44.382L92.215,44.382z"/>
</svg>
