<?xml version="1.0" encoding="utf-8"?>
<!DOCTYPE svg PUBLIC "-//W3C//DTD SVG 1.1//EN" "http://www.w3.org/Graphics/SVG/1.1/DTD/svg11.dtd">
<svg version="1.1" xmlns="http://www.w3.org/2000/svg" xmlns:xlink="http://www.w3.org/1999/xlink" x="0px" y="0px" width="216px" height="216px" viewBox="0 0 216 216" enable-background="new 0 0 216 216" xml:space="preserve">
<path fill-rule="evenodd" clip-rule="evenodd" d="M117.03,161.672h27.527v4.187H117.03V161.672
	L117.03,161.672z M117.03,183.481h27.527v-14.359H117.03V183.481L117.03,183.481z M149.696,135.316L149.696,135.316
	c0.647,0,1.449-0.802,1.449-1.444c0-1.457-2.49-4.826-2.771-7.312c-1.367-7.813,0.028-16.56,0.603-24.547
	c-1.311,1.503-6.396,14.365-6.519,20.27C142.352,127.508,143.557,135.316,149.696,135.316L149.696,135.316z M165.765,53.537
	l-1.444,0.037c-2.787,9.908-10.461,25.287-14.425,32.166c-3.36,5.833-15.372,18.736-14.929,35.73
	c0.443,17,11.45,32.487,29.338,32.072c18.844,0,30.334-15.048,30.277-32.906c-0.062-20.179-5.086-19.768-12.907-34.334
	C173.858,71.734,168.589,62.046,165.765,53.537L165.765,53.537z M118.304,44.382h6.141v19.196h-6.141V44.382L118.304,44.382z
	 M107.562,44.382L107.562,44.382h6.141v19.196h-6.141V44.382L107.562,44.382z M96.819,44.382L96.819,44.382h6.136v19.196h-6.136
	V44.382L96.819,44.382z"/>
</svg>
