<?xml version="1.0" encoding="utf-8"?>
<!DOCTYPE svg PUBLIC "-//W3C//DTD SVG 1.1//EN" "http://www.w3.org/Graphics/SVG/1.1/DTD/svg11.dtd">
<svg version="1.1" xmlns="http://www.w3.org/2000/svg" xmlns:xlink="http://www.w3.org/1999/xlink" x="0px" y="0px" width="216px" height="216px" viewBox="0 0 216 216" enable-background="new 0 0 216 216" xml:space="preserve">
<path fill-rule="evenodd" clip-rule="evenodd" d="M16.119-0.08h183.602
	c8.911,0,16.199,7.29,16.199,16.199v183.602c0,8.907-7.288,16.199-16.199,16.199H16.119c-8.909,0-16.199-7.292-16.199-16.199V16.119
	C-0.08,7.209,7.209-0.08,16.119-0.08L16.119-0.08z M16.119,4.918h183.602c6.161,0,11.198,5.04,11.198,11.2v183.602
	c0,6.161-5.037,11.198-11.198,11.198H16.119c-6.161,0-11.2-5.037-11.2-11.198V16.119C4.918,9.958,9.958,4.918,16.119,4.918
	L16.119,4.918z M100.441,114.296L100.441,114.296l3.664-4.376c3.369-0.139,4.968,3.09,6.979,5.097
	c1.271,1.273,5.861,4.976,5.861,6.677c0,1.559-2.82,3.495-3.817,4.366l-2.714-1.652l-4.246,4.505c1.313,2.592,5.87,6.311,5.87,9.688
	v53.979c0,3.683-3.205,6.543-7.089,6.543H48.244c-9.125,0-6.543-13.985-6.543-22.9c0-9.636,0.024-19.271,0-28.902
	c-0.012-4.154-0.629-24.805,1.068-27.279c2.651-3.865,5.463-0.378,6.991-7.734c0.86-4.139,3.066-6.423,7.753-6.423h25.082
	c5.814,0,6.555,2.871,7.865,7.4c1.257,4.37,4.208,5.729,7.404,7.869l4.238-5.807L100.441,114.296L100.441,114.296z M85.32,116.786
	L85.32,116.786c-0.95-1.974-0.651-4.903-2.726-4.903H57.513c-1.223,0-1.198,0.43-2.183,1.091l-0.476,3.825L85.32,116.786
	L85.32,116.786z M83.685,153.867L83.685,153.867c0-3.41,12.443-15.873,14.722-20.174c-0.445-0.439-1.298-1.091-2.181-1.091
	c-2.181,0-13.698,17.448-15.811,17.448h-7.09c-2.383,0-13.399-17.448-16.36-17.448c-0.747,0-1.3,1.136-1.636,1.636
	c1.866,3.523,14.724,16.887,14.724,19.084v9.814c0,1.469-13.07,15.959-14.724,19.084c0.57,0.846,0.727,1.635,2.183,1.635
	c0.734,0,14.27-16.296,14.722-17.993h7.634c3.031,0,12.392,15.894,16.357,17.993l1.595-0.646l0.043-1.534
	c0-1.416-14.179-16.756-14.179-18.538V153.867L83.685,153.867z"/>
</svg>
