<?xml version="1.0" encoding="utf-8"?>
<!DOCTYPE svg PUBLIC "-//W3C//DTD SVG 1.1//EN" "http://www.w3.org/Graphics/SVG/1.1/DTD/svg11.dtd">
<svg version="1.1" xmlns="http://www.w3.org/2000/svg" xmlns:xlink="http://www.w3.org/1999/xlink" x="0px" y="0px" width="216px" height="216px" viewBox="0 0 216 216" enable-background="new 0 0 216 216" xml:space="preserve">
<path id="_x33_" fill-rule="evenodd" clip-rule="evenodd" fill="#F58031" d="M67.229,37.701L67.229,37.701
	c3.634-11.344,14.728-18.998,26.939-18.998h23.476c15.063,0,27.389,13.015,27.389,28.922V84.13
	c-0.943,1.498-2.066,2.993-3.056,4.417c-1.904,2.747-3.724,5.528-5.343,8.453c-4.195,7.573-6.889,15.863-6.661,24.599
	c0.321,12.387,5.673,24.085,14.844,30.88l-0.032,6.629H117.03v-20.508c0-2.633-1.155-4.944-2.624-7.031l2.002-1.746
	c2.555-2.226,5.533-4.22,5.533-8.13c0-4.35-4.549-7.426-7.324-10.205c-3.316-3.312-5.011-6.791-10.715-6.559l-2.208,0.089
	l-6.236,7.45c-0.075-0.181-0.143-0.37-0.199-0.567c-2.017-6.97-4.535-11.013-12.665-11.013h-15.81V87.748l0,0
	c-3.081,3.083-10.185,1.894-11.621-1.392c-1.801-1.579-2.802-11.047-5.146-11.047c-3.416,27.472-26.345,30.271-25.582,79.877
	c0.232,6.152,5.052,14.104,8.964,14.104h2.93c0.128,0,0.256-0.004,0.38-0.013l-0.004,6.946l-0.002,0.5h-5.235
	c-6.439,0-13.202-13.224-13.324-20.361c-0.645-47.555,22.713-54.999,26.097-82.782l-0.008-15.177c0.849-4.645,5.17-6.429,5.17-9.837
	c0.004-5.692,1.674-7.316,4.606-7.316h12.354C66.57,40.032,66.861,38.848,67.229,37.701L67.229,37.701z M116.457,28.987
	L116.457,28.987H96.504c-10.236,0-18.61,8.84-18.61,19.651v24.565c0,2.702,2.096,4.913,4.651,4.913h47.868
	c2.56,0,4.655-2.211,4.655-4.913V48.638C135.068,37.827,126.694,28.987,116.457,28.987L116.457,28.987z M64.597,82.165
	L64.597,82.165h-3.306c-1.095,0-1.986-1.414-1.986-3.142l-0.328-25.74c0-1.729,0.893-3.144,1.986-3.144h3.306
	c1.09,0,1.983,1.414,1.983,3.144l0.328,25.74C66.581,80.751,65.688,82.165,64.597,82.165L64.597,82.165z M92.215,44.382h-6.138
	v19.196h6.138V44.382L92.215,44.382z"/>
<path id="_x32_" fill-rule="evenodd" clip-rule="evenodd" fill="#999557" d="M16.119-0.08h183.602
	c8.911,0,16.199,7.29,16.199,16.199v183.602c0,8.907-7.288,16.199-16.199,16.199H16.119c-8.909,0-16.199-7.292-16.199-16.199V16.119
	C-0.08,7.209,7.209-0.08,16.119-0.08L16.119-0.08z M16.119,4.918h183.602c6.161,0,11.198,5.04,11.198,11.2v183.602
	c0,6.161-5.037,11.198-11.198,11.198H16.119c-6.161,0-11.2-5.037-11.2-11.198V16.119C4.918,9.958,9.958,4.918,16.119,4.918
	L16.119,4.918z M100.441,114.296L100.441,114.296l3.664-4.376c3.369-0.139,4.968,3.09,6.979,5.097
	c1.271,1.273,5.861,4.976,5.861,6.677c0,1.559-2.82,3.495-3.817,4.366l-2.714-1.652l-4.246,4.505c1.313,2.592,5.87,6.311,5.87,9.688
	v53.979c0,3.683-3.205,6.543-7.089,6.543H48.244c-9.125,0-6.543-13.985-6.543-22.9c0-9.636,0.024-19.271,0-28.902
	c-0.012-4.154-0.629-24.805,1.068-27.279c2.651-3.865,5.463-0.378,6.991-7.734c0.86-4.139,3.066-6.423,7.753-6.423h25.082
	c5.814,0,6.555,2.871,7.865,7.4c1.257,4.37,4.208,5.729,7.404,7.869l4.238-5.807L100.441,114.296L100.441,114.296z M85.32,116.786
	L85.32,116.786c-0.95-1.974-0.651-4.903-2.726-4.903H57.513c-1.223,0-1.198,0.43-2.183,1.091l-0.476,3.825L85.32,116.786
	L85.32,116.786z M83.685,153.867L83.685,153.867c0-3.41,12.443-15.873,14.722-20.174c-0.445-0.439-1.298-1.091-2.181-1.091
	c-2.181,0-13.698,17.448-15.811,17.448h-7.09c-2.383,0-13.399-17.448-16.36-17.448c-0.747,0-1.3,1.136-1.636,1.636
	c1.866,3.523,14.724,16.887,14.724,19.084v9.814c0,1.469-13.07,15.959-14.724,19.084c0.57,0.846,0.727,1.635,2.183,1.635
	c0.734,0,14.27-16.296,14.722-17.993h7.634c3.031,0,12.392,15.894,16.357,17.993l1.595-0.646l0.043-1.534
	c0-1.416-14.179-16.756-14.179-18.538V153.867L83.685,153.867z"/>
<path id="_x31_" fill-rule="evenodd" clip-rule="evenodd" fill="#7E5628" d="M117.03,161.672h27.527v4.187H117.03V161.672
	L117.03,161.672z M117.03,183.481h27.527v-14.359H117.03V183.481L117.03,183.481z M149.696,135.316L149.696,135.316
	c0.647,0,1.449-0.802,1.449-1.444c0-1.457-2.49-4.826-2.771-7.312c-1.367-7.813,0.028-16.56,0.603-24.547
	c-1.311,1.503-6.396,14.365-6.519,20.27C142.352,127.508,143.557,135.316,149.696,135.316L149.696,135.316z M165.765,53.537
	l-1.444,0.037c-2.787,9.908-10.461,25.287-14.425,32.166c-3.36,5.833-15.372,18.736-14.929,35.73
	c0.443,17,11.45,32.487,29.338,32.072c18.844,0,30.334-15.048,30.277-32.906c-0.062-20.179-5.086-19.768-12.907-34.334
	C173.858,71.734,168.589,62.046,165.765,53.537L165.765,53.537z M118.304,44.382h6.141v19.196h-6.141V44.382L118.304,44.382z
	 M107.562,44.382L107.562,44.382h6.141v19.196h-6.141V44.382L107.562,44.382z M96.819,44.382L96.819,44.382h6.136v19.196h-6.136
	V44.382L96.819,44.382z"/>
</svg>
