<?xml version="1.0" encoding="utf-8"?>
<!DOCTYPE svg PUBLIC "-//W3C//DTD SVG 1.1//EN" "http://www.w3.org/Graphics/SVG/1.1/DTD/svg11.dtd">
<svg version="1.1" xmlns="http://www.w3.org/2000/svg" xmlns:xlink="http://www.w3.org/1999/xlink" x="0px" y="0px" width="216px" height="216px" viewBox="0 0 216 216" enable-background="new 0 0 216 216" xml:space="preserve">
<path fill-rule="evenodd" clip-rule="evenodd" d="M16.119,4.918h183.602c6.161,0,11.198,5.04,11.198,11.2
	v183.602c0,6.161-5.037,11.198-11.198,11.198H16.119c-6.161,0-11.2-5.037-11.2-11.198V16.119C4.918,9.958,9.958,4.918,16.119,4.918
	L16.119,4.918z M16.119-0.08h183.602c8.911,0,16.199,7.29,16.199,16.199v183.602c0,8.907-7.288,16.199-16.199,16.199H16.119
	c-8.909,0-16.199-7.292-16.199-16.199V16.119C-0.08,7.209,7.209-0.08,16.119-0.08L16.119-0.08z M166.375,23.077L166.375,23.077
	c-5.48,0-9.924,4.443-9.924,9.922s4.443,9.924,9.924,9.924c5.478,0,9.925-4.445,9.925-9.924S171.853,23.077,166.375,23.077
	L166.375,23.077z M41.566,186.944h48.366c4.342,0,8.372,0.969,12.055,2.787c3.719,1.782,6.858,4.188,9.533,7.211h14.299
	c2.063-2.364,4.407-4.346,7.076-5.953c-3.841-5.115-6.12-11.471-6.12-18.355c0-16.898,13.705-30.607,30.604-30.607
	s30.604,13.709,30.604,30.607c0,5.241-1.318,10.173-3.643,14.485l11.401,0.057l0.229-106.038h-48.601
	c-13.005,0-23.092,8.709-29.932,19.179c-0.285-0.901-0.619-1.778-0.997-2.63c-1.51-3.451-3.602-6.434-6.274-8.914
	c-2.637-2.521-5.705-4.411-9.108-5.776c-3.455-1.383-7.058-2.454-10.891-2.454h-48.6C41.566,117.282,41.566,149.432,41.566,186.944
	L41.566,186.944z M56.386,158.44h39.392c1.54,0,2.799,1.722,2.799,3.833l0,0c0,2.108-1.259,3.833-2.799,3.833H56.386
	c-1.54,0-2.797-1.725-2.797-3.833l0,0C53.588,160.162,54.846,158.44,56.386,158.44L56.386,158.44z M56.386,142.869h39.392
	c1.54,0,2.799,1.721,2.799,3.833l0,0c0,2.107-1.259,3.833-2.799,3.833H56.386c-1.54,0-2.797-1.726-2.797-3.833l0,0
	C53.588,144.59,54.846,142.869,56.386,142.869L56.386,142.869z M56.386,127.297h39.392c1.54,0,2.799,1.725,2.799,3.833l0,0
	c0,2.107-1.259,3.833-2.799,3.833H56.386c-1.54,0-2.797-1.726-2.797-3.833l0,0C53.588,129.021,54.846,127.297,56.386,127.297
	L56.386,127.297z M56.386,111.725h39.392c1.54,0,2.799,1.721,2.799,3.833l0,0c0,2.111-1.259,3.833-2.799,3.833H56.386
	c-1.54,0-2.797-1.722-2.797-3.833l0,0C53.588,113.445,54.846,111.725,56.386,111.725L56.386,111.725z M56.386,96.152h39.392
	c1.54,0,2.799,1.725,2.799,3.833l0,0c0,2.11-1.259,3.835-2.799,3.835H56.386c-1.54,0-2.797-1.725-2.797-3.835l0,0
	C53.588,97.877,54.846,96.152,56.386,96.152L56.386,96.152z M137.566,94.889L137.566,94.889h48.931v38.189h-48.931V94.889
	L137.566,94.889z"/>
</svg>
