<?xml version="1.0" encoding="utf-8"?>
<!DOCTYPE svg PUBLIC "-//W3C//DTD SVG 1.1//EN" "http://www.w3.org/Graphics/SVG/1.1/DTD/svg11.dtd">
<svg version="1.1" xmlns="http://www.w3.org/2000/svg" xmlns:xlink="http://www.w3.org/1999/xlink" x="0px" y="0px" width="216px" height="216px" viewBox="0 0 216 216" enable-background="new 0 0 216 216" xml:space="preserve">
<path fill-rule="evenodd" clip-rule="evenodd" d="M185.996,23.978c-3.735,0-6.763,3.031-6.763,6.765
	c0,3.737,3.027,6.767,6.763,6.767s6.767-3.029,6.767-6.767C192.763,27.009,189.731,23.978,185.996,23.978L185.996,23.978z
	 M183.429,98.154L183.429,98.154v30.151l-7.068-7.674c-0.406-0.473-1.001-0.737-1.623-0.737c-0.627,0-1.217,0.265-1.636,0.737
	l-5.652,6.412l-17.171-19.456c-0.415-0.47-1.005-0.739-1.632-0.739c-0.622,0-1.217,0.269-1.632,0.739l-7.063,8.148V98.154H183.429
	L183.429,98.154z M47.186,62.239h60.909c2.378,0,4.323,1.945,4.323,4.326v0.002c0,2.378-1.945,4.325-4.323,4.325H47.186
	c-2.38,0-4.325-1.947-4.325-4.325v-0.002C42.86,64.184,44.805,62.239,47.186,62.239L47.186,62.239z M58.697,56.276
	c0,0.313-0.152,0.492-0.464,0.539c-0.311,0.047-1.113,0.071-2.419,0.071c-1.39,0-2.248-0.037-2.582-0.108
	c-0.33-0.071-0.499-0.307-0.499-0.71c0-0.545,0.016-1.367,0.051-2.464c0.035-1.103,0.051-1.927,0.051-2.484
	c0-0.425-0.01-1.064-0.035-1.918c-0.022-0.846-0.032-1.485-0.032-1.918c0-1.583-0.655-2.376-1.968-2.376
	c-0.429,0-0.932,0.195-1.509,0.594c-0.617,0.438-0.928,0.871-0.928,1.296v9.371c0,0.385-0.169,0.6-0.513,0.647
	c-0.385,0.047-1.176,0.071-2.368,0.071c-1.29,0-2.13-0.037-2.515-0.108c-0.346-0.059-0.515-0.248-0.515-0.574
	c0-0.901,0.004-2.262,0.017-4.075c0.012-1.819,0.016-3.182,0.016-4.1c0-2.878-0.213-5.141-0.643-6.783
	c-0.022-0.106-0.034-0.189-0.034-0.261c0-0.183,0.085-0.315,0.248-0.38c0.696-0.082,1.624-0.211,2.781-0.384
	c1.758-0.356,2.74-0.539,2.962-0.539c0.125,0,0.214,0.393,0.283,1.174c0.067,0.781,0.163,1.174,0.281,1.174
	c-0.118,0,0.476-0.403,1.782-1.208s2.452-1.203,3.436-1.203c1.4,0,2.572,0.342,3.51,1.036c1.052,0.8,1.57,1.913,1.57,3.334v5.532
	c0,0.752,0.006,1.88,0.017,3.377C58.691,54.398,58.697,55.523,58.697,56.276L58.697,56.276z M76.629,47.354
	c0,1.168-0.36,1.835-1.078,1.996c-0.118,0.024-1.261,0.148-3.426,0.386c-1.306,0.146-3.243,0.326-5.827,0.531
	c0.152,0.752,0.623,1.329,1.408,1.719c0.639,0.325,1.367,0.486,2.181,0.486c0.982,0,1.974-0.274,2.968-0.83
	c0.417-0.279,0.836-0.557,1.253-0.836c0.234,0.12,0.623,0.704,1.17,1.772c0.549,1.066,0.82,1.742,0.82,2.03
	c0,0.08-0.083,0.214-0.246,0.397c-1.347,1.518-3.438,2.274-6.274,2.274c-2.629,0-4.749-0.804-6.358-2.409
	c-1.658-1.636-2.488-3.817-2.488-6.547c0-2.659,0.74-4.838,2.222-6.539c1.52-1.758,3.542-2.643,6.059-2.643
	c2.12,0,3.917,0.812,5.396,2.436C75.889,43.196,76.629,45.121,76.629,47.354L76.629,47.354z M70.831,46.294
	c0-0.718-0.242-1.347-0.728-1.89c-0.486-0.545-1.062-0.818-1.736-0.818c-0.696,0-1.271,0.31-1.723,0.924
	c-0.419,0.563-0.628,1.233-0.628,1.996c0,0.31,0.154,0.47,0.464,0.47c0.816,0,2.085-0.136,3.811-0.403
	C70.649,46.519,70.831,46.425,70.831,46.294L70.831,46.294z M102.211,44.63c0,1.807-0.136,3.06-0.413,3.766
	c-0.289,0.741-1.005,2.116-2.154,4.13c-1.168,2.073-1.978,3.359-2.417,3.855c-0.293,0.332-1.023,0.504-2.183,0.504
	c-0.96,0-1.571-0.037-1.825-0.108c-0.209-0.059-0.401-0.171-0.578-0.35c-0.631-0.645-1.599-2.238-2.916-4.767
	c-1.39,2.6-2.339,4.193-2.848,4.767c-0.265,0.303-0.989,0.458-2.171,0.458c-0.836,0-1.379-0.037-1.622-0.108
	c-0.549-0.159-1.481-1.416-2.797-3.768c-1.068-1.918-1.837-3.458-2.299-4.614c-0.291-0.74-0.432-1.996-0.432-3.766
	c0-2.14,0.057-3.449,0.163-3.922c0.079-0.301,0.272-0.45,0.584-0.45c0.508,0,1.265,0.018,2.282,0.053
	c1.018,0.035,1.774,0.055,2.285,0.055c0.252,0,0.382,0.187,0.382,0.567c0,0.338-0.01,0.846-0.033,1.534
	c-0.022,0.693-0.034,1.202-0.034,1.54c0,1.397,0.034,2.433,0.102,3.104c0.016,0.254,0.317,0.905,0.881,1.953
	c0.572,1.05,0.924,1.571,1.052,1.571c0.197,0,0.565-0.515,1.097-1.546c0.429-0.865,0.712-1.512,0.842-1.937
	c0.13-0.421,0.197-1.465,0.197-3.127c0-0.35-0.028-0.865-0.089-1.558c-0.063-0.688-0.092-1.196-0.092-1.534
	c0-0.356,0.126-0.539,0.378-0.539c0.312,0,0.922-0.006,1.843-0.019l0.678-0.01c-0.01,0-0.033-0.008-0.061-0.015
	c-0.022-0.006-0.035,0-0.022,0.015h0.118h0.431c0.417-0.015,1.027,0,1.835,0.028c0.242,0.037,0.362,0.211,0.362,0.539
	c0,0.438-0.028,1.107-0.079,2.008c-0.057,0.894-0.086,1.563-0.086,2.002c0,1.178,0.045,1.925,0.13,2.238
	c0.126,0.391,0.391,1.025,0.798,1.89c0.496,1.043,0.848,1.564,1.045,1.564s0.566-0.527,1.107-1.583
	c0.521-1.007,0.797-1.664,0.826-1.978c0.044-0.438,0.067-2.488,0.067-6.142c0-0.403,0.114-0.604,0.333-0.604
	c0.509,0,1.272-0.018,2.295-0.053c1.018-0.037,1.78-0.055,2.289-0.055c0.299,0,0.486,0.161,0.565,0.486
	C102.148,41.194,102.211,42.502,102.211,44.63L102.211,44.63z M113.804,42.74c0,0.112-0.086,0.271-0.248,0.468
	c-0.31-0.083-0.619-0.124-0.928-0.124c-0.651,0-1.196,0.153-1.64,0.456c-0.531,0.344-0.798,0.834-0.798,1.475
	c0,0.403,0.282,0.918,0.849,1.54c0.848,0.942,1.373,1.571,1.572,1.895c0.565,0.877,0.843,1.819,0.843,2.826
	c0,0.592-0.106,1.215-0.33,1.88c-0.252,0.729-0.573,1.261-0.96,1.593c-0.82,0.74-1.774,1.367-2.865,1.878
	c-1.182,0.527-2.266,0.793-3.261,0.793c-0.222,0-0.718-0.628-1.481-1.877c-0.767-1.255-1.153-2.026-1.153-2.305
	c0-0.1,0.063-0.167,0.181-0.189c0.773-0.148,1.556-0.301,2.335-0.449c0.971-0.328,1.459-0.859,1.459-1.6
	c0-0.51-0.285-1.096-0.845-1.766c-1.005-1.174-1.532-1.789-1.577-1.859c-0.557-0.836-0.842-1.713-0.842-2.637
	c0-1.736,0.836-3.211,2.517-4.425c1.504-1.078,3.106-1.618,4.82-1.618c0.175,0,0.61,0.623,1.306,1.866
	C113.454,41.804,113.804,42.533,113.804,42.74L113.804,42.74z"/>
</svg>
