<?xml version="1.0" encoding="utf-8"?>
<!DOCTYPE svg PUBLIC "-//W3C//DTD SVG 1.1//EN" "http://www.w3.org/Graphics/SVG/1.1/DTD/svg11.dtd">
<svg version="1.1" xmlns="http://www.w3.org/2000/svg" xmlns:xlink="http://www.w3.org/1999/xlink" x="0px" y="0px" width="216px" height="216px" viewBox="0 0 216 216" enable-background="new 0 0 216 216" xml:space="preserve">
<path id="_x33_" fill-rule="evenodd" clip-rule="evenodd" fill="#F58031" d="M180.056,41.668L180.056,41.668
	c-4.732,0-8.569,3.837-8.569,8.571s3.837,8.571,8.569,8.571s8.569-3.837,8.569-8.571S184.788,41.668,180.056,41.668L180.056,41.668z
	 M157.379,198.244L157.379,198.244c-14.14,0-25.606-11.471-25.606-25.61s11.467-25.61,25.606-25.61s25.606,11.471,25.606,25.61
	S171.519,198.244,157.379,198.244L157.379,198.244z M145.452,179.38L145.452,179.38c0,1.896,0.358,3.561,1.063,5.001
	c0.7,1.428,1.668,2.629,2.877,3.581c1.208,0.964,2.616,1.681,4.239,2.16c1.616,0.488,3.354,0.725,5.188,0.725
	c1.253,0,2.413-0.094,3.483-0.301c1.062-0.2,2.01-0.452,2.823-0.737c0.822-0.297,1.51-0.59,2.063-0.911
	c0.541-0.313,0.936-0.59,1.18-0.838c0.244-0.24,0.419-0.595,0.513-1.042c0.102-0.456,0.154-1.111,0.154-1.97
	c0-0.581-0.02-1.058-0.053-1.448c-0.036-0.395-0.102-0.712-0.179-0.952c-0.086-0.24-0.195-0.411-0.342-0.513
	c-0.135-0.109-0.293-0.154-0.484-0.154c-0.261,0-0.631,0.154-1.106,0.459c-0.464,0.306-1.074,0.647-1.827,1.018
	c-0.745,0.37-1.636,0.712-2.661,1.018c-1.038,0.305-2.229,0.46-3.589,0.46c-0.899,0-1.701-0.11-2.4-0.317
	c-0.708-0.22-1.307-0.521-1.803-0.916c-0.484-0.387-0.863-0.866-1.123-1.444c-0.269-0.586-0.391-1.221-0.391-1.925
	c0-0.822,0.216-1.525,0.667-2.107c0.447-0.59,1.025-1.115,1.746-1.559c0.468-0.306,0.984-0.594,1.542-0.871h12.447
	c0.187,0,0.333-0.199,0.333-0.443v-1.782c0-0.24-0.146-0.443-0.333-0.443h-25.875c-0.18,0-0.33,0.203-0.33,0.443v1.782
	c0,0.244,0.15,0.443,0.33,0.443h2.438C145.652,176.829,145.452,178.021,145.452,179.38L145.452,179.38z M143.605,168.125h12.113
	l0.338-0.15c0.936-0.391,1.766-0.818,2.502-1.277c0.732-0.456,1.322-0.981,1.762-1.563c0.439-0.591,0.651-1.286,0.651-2.088
	c0-0.529-0.102-1.042-0.293-1.53c-0.199-0.488-0.496-0.895-0.896-1.236c-0.398-0.346-0.895-0.623-1.493-0.81
	c-0.59-0.2-1.29-0.298-2.087-0.298c-1.029,0-1.962,0.122-2.824,0.383c-0.854,0.244-1.607,0.521-2.254,0.838
	c-0.659,0.302-1.2,0.586-1.648,0.847c-0.447,0.257-0.772,0.391-0.98,0.391c-0.199,0-0.362-0.057-0.484-0.171
	c-0.126-0.109-0.224-0.289-0.28-0.524c-0.065-0.249-0.11-0.554-0.139-0.924c-0.028-0.375-0.041-0.83-0.041-1.359
	c0-0.488,0.013-0.899,0.021-1.221c0.021-0.325,0.058-0.594,0.102-0.81c0.049-0.212,0.098-0.387,0.159-0.517
	c0.069-0.131,0.195-0.285,0.387-0.477c0.179-0.183,0.562-0.419,1.144-0.695c0.581-0.277,1.236-0.533,1.981-0.753
	c0.74-0.228,1.542-0.398,2.4-0.533c0.858-0.139,1.713-0.191,2.56-0.191c1.66,0,3.234,0.208,4.712,0.635
	c1.469,0.432,2.755,1.078,3.845,1.949c1.099,0.854,1.966,1.953,2.601,3.255c0.643,1.318,0.964,2.841,0.964,4.565
	c0,1.514-0.22,2.8-0.667,3.887c-0.057,0.126-0.105,0.252-0.163,0.378h1.885c0.187,0,0.333,0.199,0.333,0.443v1.782
	c0,0.248-0.146,0.443-0.333,0.443h-25.875c-0.18,0-0.33-0.195-0.33-0.443v-1.782C143.275,168.324,143.426,168.125,143.605,168.125
	L143.605,168.125z M35.573,22.688L35.573,22.688h89.73c6.759,0,12.239,5.475,12.239,12.233v8.159h4.077
	c6.759,0,12.236,5.479,12.236,12.235v18.746h-6.486c-0.558,0-1.115,0.012-1.668,0.035V55.315c0-2.25-1.832-4.079-4.082-4.079h-4.077
	v24.14c-0.992,0.276-1.974,0.598-2.941,0.962c-1.819,0.688-3.561,1.52-5.217,2.493V34.921c0-2.25-1.831-4.077-4.081-4.077h-89.73
	c-2.25,0-4.08,1.827-4.08,4.077v101.97c0,2.539,1.168,4.813,2.995,6.311v9.172c-6.48-2.161-11.153-8.276-11.153-15.482V34.921
	C23.335,28.163,28.812,22.688,35.573,22.688L35.573,22.688z"/>
<path id="_x32_" fill-rule="evenodd" clip-rule="evenodd" fill="#999557" d="M16.119,4.918h183.602c6.161,0,11.198,5.04,11.198,11.2
	v183.602c0,6.161-5.037,11.198-11.198,11.198H16.119c-6.161,0-11.2-5.037-11.2-11.198V16.119C4.918,9.958,9.958,4.918,16.119,4.918
	L16.119,4.918z M16.119-0.08h183.602c8.911,0,16.199,7.29,16.199,16.199v183.602c0,8.907-7.288,16.199-16.199,16.199H16.119
	c-8.909,0-16.199-7.292-16.199-16.199V16.119C-0.08,7.209,7.209-0.08,16.119-0.08L16.119-0.08z M166.375,23.077L166.375,23.077
	c-5.48,0-9.924,4.443-9.924,9.922s4.443,9.924,9.924,9.924c5.478,0,9.925-4.445,9.925-9.924S171.853,23.077,166.375,23.077
	L166.375,23.077z M41.566,186.944h48.366c4.342,0,8.372,0.969,12.055,2.787c3.719,1.782,6.858,4.188,9.533,7.211h14.299
	c2.063-2.364,4.407-4.346,7.076-5.953c-3.841-5.115-6.12-11.471-6.12-18.355c0-16.898,13.705-30.607,30.604-30.607
	s30.604,13.709,30.604,30.607c0,5.241-1.318,10.173-3.643,14.485l11.401,0.057l0.229-106.038h-48.601
	c-13.005,0-23.092,8.709-29.932,19.179c-0.285-0.901-0.619-1.778-0.997-2.63c-1.51-3.451-3.602-6.434-6.274-8.914
	c-2.637-2.521-5.705-4.411-9.108-5.776c-3.455-1.383-7.058-2.454-10.891-2.454h-48.6C41.566,117.282,41.566,149.432,41.566,186.944
	L41.566,186.944z M56.386,158.44h39.392c1.54,0,2.799,1.722,2.799,3.833l0,0c0,2.108-1.259,3.833-2.799,3.833H56.386
	c-1.54,0-2.797-1.725-2.797-3.833l0,0C53.588,160.162,54.846,158.44,56.386,158.44L56.386,158.44z M56.386,142.869h39.392
	c1.54,0,2.799,1.721,2.799,3.833l0,0c0,2.107-1.259,3.833-2.799,3.833H56.386c-1.54,0-2.797-1.726-2.797-3.833l0,0
	C53.588,144.59,54.846,142.869,56.386,142.869L56.386,142.869z M56.386,127.297h39.392c1.54,0,2.799,1.725,2.799,3.833l0,0
	c0,2.107-1.259,3.833-2.799,3.833H56.386c-1.54,0-2.797-1.726-2.797-3.833l0,0C53.588,129.021,54.846,127.297,56.386,127.297
	L56.386,127.297z M56.386,111.725h39.392c1.54,0,2.799,1.721,2.799,3.833l0,0c0,2.111-1.259,3.833-2.799,3.833H56.386
	c-1.54,0-2.797-1.722-2.797-3.833l0,0C53.588,113.445,54.846,111.725,56.386,111.725L56.386,111.725z M56.386,96.152h39.392
	c1.54,0,2.799,1.725,2.799,3.833l0,0c0,2.11-1.259,3.835-2.799,3.835H56.386c-1.54,0-2.797-1.725-2.797-3.835l0,0
	C53.588,97.877,54.846,96.152,56.386,96.152L56.386,96.152z M137.566,94.889L137.566,94.889h48.931v38.189h-48.931V94.889
	L137.566,94.889z"/>
<path id="_x31_" fill-rule="evenodd" clip-rule="evenodd" fill="#7E5628" d="M185.996,23.978c-3.735,0-6.763,3.031-6.763,6.765
	c0,3.737,3.027,6.767,6.763,6.767s6.767-3.029,6.767-6.767C192.763,27.009,189.731,23.978,185.996,23.978L185.996,23.978z
	 M183.429,98.154L183.429,98.154v30.151l-7.068-7.674c-0.406-0.473-1.001-0.737-1.623-0.737c-0.627,0-1.217,0.265-1.636,0.737
	l-5.652,6.412l-17.171-19.456c-0.415-0.47-1.005-0.739-1.632-0.739c-0.622,0-1.217,0.269-1.632,0.739l-7.063,8.148V98.154H183.429
	L183.429,98.154z M47.186,62.239h60.909c2.378,0,4.323,1.945,4.323,4.326v0.002c0,2.378-1.945,4.325-4.323,4.325H47.186
	c-2.38,0-4.325-1.947-4.325-4.325v-0.002C42.86,64.184,44.805,62.239,47.186,62.239L47.186,62.239z M58.697,56.276
	c0,0.313-0.152,0.492-0.464,0.539c-0.311,0.047-1.113,0.071-2.419,0.071c-1.39,0-2.248-0.037-2.582-0.108
	c-0.33-0.071-0.499-0.307-0.499-0.71c0-0.545,0.016-1.367,0.051-2.464c0.035-1.103,0.051-1.927,0.051-2.484
	c0-0.425-0.01-1.064-0.035-1.918c-0.022-0.846-0.032-1.485-0.032-1.918c0-1.583-0.655-2.376-1.968-2.376
	c-0.429,0-0.932,0.195-1.509,0.594c-0.617,0.438-0.928,0.871-0.928,1.296v9.371c0,0.385-0.169,0.6-0.513,0.647
	c-0.385,0.047-1.176,0.071-2.368,0.071c-1.29,0-2.13-0.037-2.515-0.108c-0.346-0.059-0.515-0.248-0.515-0.574
	c0-0.901,0.004-2.262,0.017-4.075c0.012-1.819,0.016-3.182,0.016-4.1c0-2.878-0.213-5.141-0.643-6.783
	c-0.022-0.106-0.034-0.189-0.034-0.261c0-0.183,0.085-0.315,0.248-0.38c0.696-0.082,1.624-0.211,2.781-0.384
	c1.758-0.356,2.74-0.539,2.962-0.539c0.125,0,0.214,0.393,0.283,1.174c0.067,0.781,0.163,1.174,0.281,1.174
	c-0.118,0,0.476-0.403,1.782-1.208s2.452-1.203,3.436-1.203c1.4,0,2.572,0.342,3.51,1.036c1.052,0.8,1.57,1.913,1.57,3.334v5.532
	c0,0.752,0.006,1.88,0.017,3.377C58.691,54.398,58.697,55.523,58.697,56.276L58.697,56.276z M76.629,47.354
	c0,1.168-0.36,1.835-1.078,1.996c-0.118,0.024-1.261,0.148-3.426,0.386c-1.306,0.146-3.243,0.326-5.827,0.531
	c0.152,0.752,0.623,1.329,1.408,1.719c0.639,0.325,1.367,0.486,2.181,0.486c0.982,0,1.974-0.274,2.968-0.83
	c0.417-0.279,0.836-0.557,1.253-0.836c0.234,0.12,0.623,0.704,1.17,1.772c0.549,1.066,0.82,1.742,0.82,2.03
	c0,0.08-0.083,0.214-0.246,0.397c-1.347,1.518-3.438,2.274-6.274,2.274c-2.629,0-4.749-0.804-6.358-2.409
	c-1.658-1.636-2.488-3.817-2.488-6.547c0-2.659,0.74-4.838,2.222-6.539c1.52-1.758,3.542-2.643,6.059-2.643
	c2.12,0,3.917,0.812,5.396,2.436C75.889,43.196,76.629,45.121,76.629,47.354L76.629,47.354z M70.831,46.294
	c0-0.718-0.242-1.347-0.728-1.89c-0.486-0.545-1.062-0.818-1.736-0.818c-0.696,0-1.271,0.31-1.723,0.924
	c-0.419,0.563-0.628,1.233-0.628,1.996c0,0.31,0.154,0.47,0.464,0.47c0.816,0,2.085-0.136,3.811-0.403
	C70.649,46.519,70.831,46.425,70.831,46.294L70.831,46.294z M102.211,44.63c0,1.807-0.136,3.06-0.413,3.766
	c-0.289,0.741-1.005,2.116-2.154,4.13c-1.168,2.073-1.978,3.359-2.417,3.855c-0.293,0.332-1.023,0.504-2.183,0.504
	c-0.96,0-1.571-0.037-1.825-0.108c-0.209-0.059-0.401-0.171-0.578-0.35c-0.631-0.645-1.599-2.238-2.916-4.767
	c-1.39,2.6-2.339,4.193-2.848,4.767c-0.265,0.303-0.989,0.458-2.171,0.458c-0.836,0-1.379-0.037-1.622-0.108
	c-0.549-0.159-1.481-1.416-2.797-3.768c-1.068-1.918-1.837-3.458-2.299-4.614c-0.291-0.74-0.432-1.996-0.432-3.766
	c0-2.14,0.057-3.449,0.163-3.922c0.079-0.301,0.272-0.45,0.584-0.45c0.508,0,1.265,0.018,2.282,0.053
	c1.018,0.035,1.774,0.055,2.285,0.055c0.252,0,0.382,0.187,0.382,0.567c0,0.338-0.01,0.846-0.033,1.534
	c-0.022,0.693-0.034,1.202-0.034,1.54c0,1.397,0.034,2.433,0.102,3.104c0.016,0.254,0.317,0.905,0.881,1.953
	c0.572,1.05,0.924,1.571,1.052,1.571c0.197,0,0.565-0.515,1.097-1.546c0.429-0.865,0.712-1.512,0.842-1.937
	c0.13-0.421,0.197-1.465,0.197-3.127c0-0.35-0.028-0.865-0.089-1.558c-0.063-0.688-0.092-1.196-0.092-1.534
	c0-0.356,0.126-0.539,0.378-0.539c0.312,0,0.922-0.006,1.843-0.019l0.678-0.01c-0.01,0-0.033-0.008-0.061-0.015
	c-0.022-0.006-0.035,0-0.022,0.015h0.118h0.431c0.417-0.015,1.027,0,1.835,0.028c0.242,0.037,0.362,0.211,0.362,0.539
	c0,0.438-0.028,1.107-0.079,2.008c-0.057,0.894-0.086,1.563-0.086,2.002c0,1.178,0.045,1.925,0.13,2.238
	c0.126,0.391,0.391,1.025,0.798,1.89c0.496,1.043,0.848,1.564,1.045,1.564s0.566-0.527,1.107-1.583
	c0.521-1.007,0.797-1.664,0.826-1.978c0.044-0.438,0.067-2.488,0.067-6.142c0-0.403,0.114-0.604,0.333-0.604
	c0.509,0,1.272-0.018,2.295-0.053c1.018-0.037,1.78-0.055,2.289-0.055c0.299,0,0.486,0.161,0.565,0.486
	C102.148,41.194,102.211,42.502,102.211,44.63L102.211,44.63z M113.804,42.74c0,0.112-0.086,0.271-0.248,0.468
	c-0.31-0.083-0.619-0.124-0.928-0.124c-0.651,0-1.196,0.153-1.64,0.456c-0.531,0.344-0.798,0.834-0.798,1.475
	c0,0.403,0.282,0.918,0.849,1.54c0.848,0.942,1.373,1.571,1.572,1.895c0.565,0.877,0.843,1.819,0.843,2.826
	c0,0.592-0.106,1.215-0.33,1.88c-0.252,0.729-0.573,1.261-0.96,1.593c-0.82,0.74-1.774,1.367-2.865,1.878
	c-1.182,0.527-2.266,0.793-3.261,0.793c-0.222,0-0.718-0.628-1.481-1.877c-0.767-1.255-1.153-2.026-1.153-2.305
	c0-0.1,0.063-0.167,0.181-0.189c0.773-0.148,1.556-0.301,2.335-0.449c0.971-0.328,1.459-0.859,1.459-1.6
	c0-0.51-0.285-1.096-0.845-1.766c-1.005-1.174-1.532-1.789-1.577-1.859c-0.557-0.836-0.842-1.713-0.842-2.637
	c0-1.736,0.836-3.211,2.517-4.425c1.504-1.078,3.106-1.618,4.82-1.618c0.175,0,0.61,0.623,1.306,1.866
	C113.454,41.804,113.804,42.533,113.804,42.74L113.804,42.74z"/>
</svg>
