<?xml version="1.0" encoding="utf-8"?>
<!DOCTYPE svg PUBLIC "-//W3C//DTD SVG 1.1//EN" "http://www.w3.org/Graphics/SVG/1.1/DTD/svg11.dtd">
<svg version="1.1" xmlns="http://www.w3.org/2000/svg" xmlns:xlink="http://www.w3.org/1999/xlink" x="0px" y="0px" width="216px" height="216px" viewBox="0 0 216 216" enable-background="new 0 0 216 216" xml:space="preserve">
<path fill-rule="evenodd" clip-rule="evenodd" d="M180.056,41.668L180.056,41.668
	c-4.732,0-8.569,3.837-8.569,8.571s3.837,8.571,8.569,8.571s8.569-3.837,8.569-8.571S184.788,41.668,180.056,41.668L180.056,41.668z
	 M157.379,198.244L157.379,198.244c-14.14,0-25.606-11.471-25.606-25.61s11.467-25.61,25.606-25.61s25.606,11.471,25.606,25.61
	S171.519,198.244,157.379,198.244L157.379,198.244z M145.452,179.38L145.452,179.38c0,1.896,0.358,3.561,1.063,5.001
	c0.7,1.428,1.668,2.629,2.877,3.581c1.208,0.964,2.616,1.681,4.239,2.16c1.616,0.488,3.354,0.725,5.188,0.725
	c1.253,0,2.413-0.094,3.483-0.301c1.062-0.2,2.01-0.452,2.823-0.737c0.822-0.297,1.51-0.59,2.063-0.911
	c0.541-0.313,0.936-0.59,1.18-0.838c0.244-0.24,0.419-0.595,0.513-1.042c0.102-0.456,0.154-1.111,0.154-1.97
	c0-0.581-0.02-1.058-0.053-1.448c-0.036-0.395-0.102-0.712-0.179-0.952c-0.086-0.24-0.195-0.411-0.342-0.513
	c-0.135-0.109-0.293-0.154-0.484-0.154c-0.261,0-0.631,0.154-1.106,0.459c-0.464,0.306-1.074,0.647-1.827,1.018
	c-0.745,0.37-1.636,0.712-2.661,1.018c-1.038,0.305-2.229,0.46-3.589,0.46c-0.899,0-1.701-0.11-2.4-0.317
	c-0.708-0.22-1.307-0.521-1.803-0.916c-0.484-0.387-0.863-0.866-1.123-1.444c-0.269-0.586-0.391-1.221-0.391-1.925
	c0-0.822,0.216-1.525,0.667-2.107c0.447-0.59,1.025-1.115,1.746-1.559c0.468-0.306,0.984-0.594,1.542-0.871h12.447
	c0.187,0,0.333-0.199,0.333-0.443v-1.782c0-0.24-0.146-0.443-0.333-0.443h-25.875c-0.18,0-0.33,0.203-0.33,0.443v1.782
	c0,0.244,0.15,0.443,0.33,0.443h2.438C145.652,176.829,145.452,178.021,145.452,179.38L145.452,179.38z M143.605,168.125h12.113
	l0.338-0.15c0.936-0.391,1.766-0.818,2.502-1.277c0.732-0.456,1.322-0.981,1.762-1.563c0.439-0.591,0.651-1.286,0.651-2.088
	c0-0.529-0.102-1.042-0.293-1.53c-0.199-0.488-0.496-0.895-0.896-1.236c-0.398-0.346-0.895-0.623-1.493-0.81
	c-0.59-0.2-1.29-0.298-2.087-0.298c-1.029,0-1.962,0.122-2.824,0.383c-0.854,0.244-1.607,0.521-2.254,0.838
	c-0.659,0.302-1.2,0.586-1.648,0.847c-0.447,0.257-0.772,0.391-0.98,0.391c-0.199,0-0.362-0.057-0.484-0.171
	c-0.126-0.109-0.224-0.289-0.28-0.524c-0.065-0.249-0.11-0.554-0.139-0.924c-0.028-0.375-0.041-0.83-0.041-1.359
	c0-0.488,0.013-0.899,0.021-1.221c0.021-0.325,0.058-0.594,0.102-0.81c0.049-0.212,0.098-0.387,0.159-0.517
	c0.069-0.131,0.195-0.285,0.387-0.477c0.179-0.183,0.562-0.419,1.144-0.695c0.581-0.277,1.236-0.533,1.981-0.753
	c0.74-0.228,1.542-0.398,2.4-0.533c0.858-0.139,1.713-0.191,2.56-0.191c1.66,0,3.234,0.208,4.712,0.635
	c1.469,0.432,2.755,1.078,3.845,1.949c1.099,0.854,1.966,1.953,2.601,3.255c0.643,1.318,0.964,2.841,0.964,4.565
	c0,1.514-0.22,2.8-0.667,3.887c-0.057,0.126-0.105,0.252-0.163,0.378h1.885c0.187,0,0.333,0.199,0.333,0.443v1.782
	c0,0.248-0.146,0.443-0.333,0.443h-25.875c-0.18,0-0.33-0.195-0.33-0.443v-1.782C143.275,168.324,143.426,168.125,143.605,168.125
	L143.605,168.125z M35.573,22.688L35.573,22.688h89.73c6.759,0,12.239,5.475,12.239,12.233v8.159h4.077
	c6.759,0,12.236,5.479,12.236,12.235v18.746h-6.486c-0.558,0-1.115,0.012-1.668,0.035V55.315c0-2.25-1.832-4.079-4.082-4.079h-4.077
	v24.14c-0.992,0.276-1.974,0.598-2.941,0.962c-1.819,0.688-3.561,1.52-5.217,2.493V34.921c0-2.25-1.831-4.077-4.081-4.077h-89.73
	c-2.25,0-4.08,1.827-4.08,4.077v101.97c0,2.539,1.168,4.813,2.995,6.311v9.172c-6.48-2.161-11.153-8.276-11.153-15.482V34.921
	C23.335,28.163,28.812,22.688,35.573,22.688L35.573,22.688z"/>
</svg>
