<?xml version="1.0" encoding="utf-8"?>
<!DOCTYPE svg PUBLIC "-//W3C//DTD SVG 1.1//EN" "http://www.w3.org/Graphics/SVG/1.1/DTD/svg11.dtd">
<svg version="1.1" xmlns="http://www.w3.org/2000/svg" xmlns:xlink="http://www.w3.org/1999/xlink" x="0px" y="0px" width="216px" height="216px" viewBox="0 0 216 216" enable-background="new 0 0 216 216" xml:space="preserve">
<path fill-rule="evenodd" clip-rule="evenodd" d="M100.803,141.563c4.993,1.282,9.808,1.282,14.449,0
	c0,4.618,0,9.241,0,13.859c-4.641-1.648-9.456-1.648-14.449,0C100.803,150.804,100.803,146.181,100.803,141.563L100.803,141.563z
	 M137.258,181.898L137.258,181.898l-9.018-1.647l-3.976,9.88l-13.521-31.828l8.219,0.272l10.864,5.212L137.258,181.898
	L137.258,181.898z M78.002,181.898L78.002,181.898l9.015-1.647l3.976,9.88l13.521-31.828l-8.22,0.272l-10.868,5.212L78.002,181.898
	L78.002,181.898z M97.09,154.188L97.09,154.188l0.266-12.626l-26.512-12.895l6.362,16.74l7.424,0.545l-0.132,3.979l-7.292,0.272
	l-6.098,17.562L97.09,154.188L97.09,154.188z M118.166,154.188L118.166,154.188l-0.265-12.626l26.514-12.895l-6.368,16.74
	l-7.418,0.545l0.131,3.979l7.287,0.272l6.104,17.562L118.166,154.188L118.166,154.188z M161.351,87.414L161.351,87.414
	c-5.522,3.717-12.655,2.508-15.927-2.7c-3.271-5.208-1.444-12.445,4.077-16.162c5.521-3.717,12.655-2.507,15.927,2.698
	C168.699,76.46,166.872,83.697,161.351,87.414L161.351,87.414z M107.696,61.72L107.696,61.72c-6.588,0-11.931-5.04-11.931-11.251
	s5.343-11.249,11.931-11.249s11.93,5.037,11.93,11.249S114.284,61.72,107.696,61.72L107.696,61.72z M66.707,87.139L66.707,87.139
	c-5.523,3.717-12.657,2.509-15.928-2.7c-3.271-5.206-1.444-12.445,4.077-16.162c5.522-3.717,12.655-2.508,15.926,2.7
	C74.056,76.186,72.23,83.422,66.707,87.139L66.707,87.139z"/>
</svg>
