<?xml version="1.0" encoding="utf-8"?>
<!DOCTYPE svg PUBLIC "-//W3C//DTD SVG 1.1//EN" "http://www.w3.org/Graphics/SVG/1.1/DTD/svg11.dtd">
<svg version="1.1" xmlns="http://www.w3.org/2000/svg" xmlns:xlink="http://www.w3.org/1999/xlink" x="0px" y="0px" width="216px" height="216px" viewBox="0 0 216 216" enable-background="new 0 0 216 216" xml:space="preserve">
<path fill-rule="evenodd" clip-rule="evenodd" d="M16.119-0.08h183.602
	c8.911,0,16.199,7.29,16.199,16.199v183.602c0,8.907-7.288,16.199-16.199,16.199H16.119c-8.909,0-16.199-7.292-16.199-16.199V16.119
	C-0.08,7.209,7.209-0.08,16.119-0.08L16.119-0.08z M16.119,4.918h183.602c6.161,0,11.198,5.04,11.198,11.2v183.602
	c0,6.161-5.037,11.198-11.198,11.198H16.119c-6.161,0-11.2-5.037-11.2-11.198V16.119C4.918,9.958,9.958,4.918,16.119,4.918
	L16.119,4.918z M187.994,56.369c2.832,4.686,0.049,11.78-6.218,15.837c-4.028,2.608-8.512,3.329-11.959,2.267
	c-0.305-1.711-0.923-3.375-1.888-4.905c-0.984-1.569-2.238-2.854-3.67-3.847c0.468-3.776,3.092-7.803,7.251-10.494
	C177.781,51.165,185.158,51.678,187.994,56.369L187.994,56.369z M190.008,94.109L190.008,94.109
	c-2.136,5.363-9.077,7.271-15.498,4.256c-4.888-2.291-8.069-6.777-8.366-11.155c1.985-2.281,3.251-5.038,3.707-7.881
	c3.178-2.2,7.914-2.495,12.402-0.391C188.67,81.951,192.148,88.745,190.008,94.109L190.008,94.109z M158.62,117.327L158.62,117.327
	c-5.294,0.749-10.4-4.785-11.405-12.365c-0.692-5.233,0.748-10.071,3.446-12.815c3.141,0.871,6.624,0.645,9.859-0.784
	c2.941,2.082,5.229,6.067,5.867,10.875C167.393,109.818,163.914,116.574,158.62,117.327L158.62,117.327z M123.618,100.311
	L123.618,100.311c-2.327-3.306-1.677-8.148,1.237-12.268c1.721-0.213,3.426-0.85,5.033-1.994c1.754-1.251,3.023-2.853,3.873-4.653
	c2.535-0.842,5.059-0.962,7.198-0.36c0.269,1.872,0.912,3.697,1.962,5.363c0.977,1.556,2.217,2.834,3.638,3.825
	c-0.521,3.53-2.796,7.288-6.421,10.024C134.165,104.752,126.768,104.781,123.618,100.311L123.618,100.311z M142.571,61.206
	L142.571,61.206c1.754,1.983,2.865,4.248,3.17,6.468c-2.429,2.311-4.012,5.265-4.63,8.362c-1.754,0.799-3.87,1.123-6.116,0.936
	c0.496-4.175-0.622-8.701-2.8-12.229c-0.26-0.419-0.533-0.83-0.826-1.23c0.473,0.041,0.94,0.065,1.404,0.075
	C136.008,63.643,139.572,62.87,142.571,61.206L142.571,61.206z M153.428,38.33L153.428,38.33c5.335-0.373,10.059,5.52,10.555,13.153
	c0.334,5.095-1.302,9.68-4.016,12.278c-3.048-0.793-6.413-0.558-9.546,0.804c-1.852-1.282-3.414-3.353-4.447-5.915
	c1.416-1.444,2.498-3.214,3.048-5.32c0.215-0.834,0.337-1.689,0.35-2.552c0.012-0.86-0.077-1.727-0.265-2.565
	c-0.432-1.912-1.302-3.568-2.466-4.968C148.228,40.402,150.633,38.525,153.428,38.33L153.428,38.33z M82.024,74.202L82.024,74.202
	c-2.441,0.628-4.826,0.62-6.852-0.006c-0.303-1.709-0.926-3.373-1.888-4.903c-0.982-1.568-2.238-2.854-3.668-3.845
	c0.209-1.683,0.844-3.414,1.854-5.056c3.389,2.407,7.886,3.42,11.841,3.205c0.954-0.053,1.917-0.173,2.873-0.362
	c-0.899,1.229-1.668,2.549-2.285,3.902C82.93,69.264,82.259,71.714,82.024,74.202L82.024,74.202z M95.365,93.837L95.365,93.837
	c-2.136,5.363-9.078,7.27-15.499,4.256c-4.889-2.295-8.069-6.779-8.366-11.157c1.986-2.281,3.253-5.036,3.703-7.88
	c1.849-1.28,4.221-1.915,6.767-1.809c0.22,3.609,1.503,7.052,4.303,9.428c0.645,0.547,1.351,1.009,2.106,1.377
	c0.755,0.366,1.548,0.637,2.366,0.802c1.75,0.356,3.458,0.254,5.082-0.197C96.146,90.419,96.018,92.193,95.365,93.837L95.365,93.837
	z M63.977,117.051L63.977,117.051c-5.294,0.753-10.402-4.785-11.408-12.364c-0.694-5.233,0.749-10.071,3.447-12.815
	c3.141,0.871,6.626,0.647,9.863-0.785c2.938,2.083,5.227,6.067,5.863,10.876C72.747,109.543,69.27,116.298,63.977,117.051
	L63.977,117.051z M28.973,100.036L28.973,100.036c-3.144-4.47-0.851-11.75,5.125-16.254c4.002-3.017,8.645-4.026,12.219-3.019
	c0.267,1.872,0.912,3.697,1.959,5.363c0.977,1.555,2.218,2.834,3.636,3.821c-0.519,3.532-2.791,7.29-6.419,10.026
	C39.52,104.478,32.12,104.506,28.973,100.036L28.973,100.036z M58.784,38.055L58.784,38.055c3.766-0.262,7.227,2.596,9.113,6.989
	c-0.675,1.139-1.17,2.4-1.435,3.79c-0.161,0.846-0.22,1.709-0.173,2.572c0.043,0.86,0.189,1.713,0.436,2.537
	c0.425,1.418,1.086,2.671,1.927,3.766c-0.694,2.356-1.852,4.362-3.329,5.778c-3.052-0.793-6.415-0.558-9.548,0.803
	c-3.113-2.156-5.41-6.543-5.748-11.737C49.531,44.917,53.452,38.427,58.784,38.055L58.784,38.055z M26.34,59.903L26.34,59.903
	c2.313-4.982,9.595-6.337,16.256-3.021c4.787,2.381,7.955,6.523,8.5,10.515c-2.425,2.313-4.01,5.27-4.63,8.362
	c-3.32,1.512-7.918,1.333-12.252-0.824C27.548,71.62,24.022,64.888,26.34,59.903L26.34,59.903z"/>
</svg>
