<?xml version="1.0" encoding="utf-8"?>
<!DOCTYPE svg PUBLIC "-//W3C//DTD SVG 1.1//EN" "http://www.w3.org/Graphics/SVG/1.1/DTD/svg11.dtd">
<svg version="1.1" xmlns="http://www.w3.org/2000/svg" xmlns:xlink="http://www.w3.org/1999/xlink" x="0px" y="0px" width="216px" height="216px" viewBox="0 0 216 216" enable-background="new 0 0 216 216" xml:space="preserve">
<path fill-rule="evenodd" clip-rule="evenodd" d="M105.899,138.271L105.899,138.271V79.28l2.106-5.003
	l2.281,5.003v58.99H105.899L105.899,138.271z M105.96,138.271h-2c-1.87-15.405-7.398-29.126-14.193-35.748
	c-0.971,0-2.944,2.002-3.917,2.002c7.261,9.003,11.668,20.587,13.698,33.746H105.96L105.96,138.271z M105.899,201.938
	L105.899,201.938v-39.111l2.021-5.001l2.366,5.001v39.111H105.899L105.899,201.938z M99.456,201.938h-1.725
	c3.178-13.541,4.299-15.935,4.511-28.959l-4.688,10.079c-1.687,12.972-1.445,7.129-4.58,18.88H99.456L99.456,201.938z
	 M116.97,201.938c-2.275-10.97-3.769-21.403-4.529-31.115l4.769,10.005c0.989,7.902,2.507,12.989,4.488,21.11H116.97L116.97,201.938
	z M110.861,138.271L110.861,138.271c1.909-15.137,6.413-27.653,13.127-34.198c0.973,0,2.942,2,3.914,2
	c-7.157,8.879-10.542,19.268-12.609,32.198H110.861L110.861,138.271z M128.191,83.501L128.191,83.501
	c-4.614,3.292-11.438,0.975-15.234-5.176c-2.889-4.679-3.191-10.233-1.135-14.07c2.864-0.793,5.379-2.389,7.255-4.519
	c3.825-0.051,7.951,2.375,10.604,6.669C133.478,72.556,132.811,80.21,128.191,83.501L128.191,83.501z M146.385,50.726
	L146.385,50.726c-0.094,5.53-6.165,9.904-13.555,9.77c-4.752-0.088-8.895-2.014-11.222-4.851c0.646-1.603,1.001-3.349,1.001-5.176
	c0-1.87-0.371-3.656-1.05-5.293c2.384-2.901,6.705-4.798,11.608-4.708C140.562,40.602,146.478,45.196,146.385,50.726L146.385,50.726
	z M126.91,16.098L126.91,16.098c4.663,2.696,5.521,10.303,1.916,16.982c-2.404,4.458-6.192,7.379-9.83,8.028
	c-2.141-2.386-5.087-4.087-8.428-4.714c-1.475-3.563-1.09-8.535,1.363-13.082C115.537,16.633,122.243,13.402,126.91,16.098
	L126.91,16.098z M88.199,16.11L88.199,16.11c4.565-2.873,11.383,0.102,15.225,6.639c2.756,4.696,3.229,9.957,1.584,13.613
	c-3.253,0.57-6.136,2.153-8.287,4.397c-3.581-0.608-7.338-3.351-9.837-7.605C83.044,26.613,83.634,18.983,88.199,16.11L88.199,16.11
	z M69.27,51.24L69.27,51.24c-0.283-5.521,5.475-10.329,12.856-10.734c4.946-0.271,9.369,1.503,11.834,4.36
	c-0.761,1.723-1.182,3.617-1.182,5.603c0,1.857,0.366,3.629,1.034,5.257c-2.295,2.667-6.177,4.535-10.661,4.781
	C75.769,60.915,69.553,56.764,69.27,51.24L69.27,51.24z M89.65,85.255L89.65,85.255c-4.834-2.356-6.199-9.881-3.048-16.803
	c2.173-4.775,5.931-8.02,9.64-8.797c2.173,2.5,5.216,4.278,8.679,4.905c1.367,3.406,1.188,8.036-0.812,12.427
	C100.958,83.911,94.484,87.613,89.65,85.255L89.65,85.255z"/>
</svg>
