<?xml version="1.0" encoding="utf-8"?>
<!DOCTYPE svg PUBLIC "-//W3C//DTD SVG 1.1//EN" "http://www.w3.org/Graphics/SVG/1.1/DTD/svg11.dtd">
<svg version="1.1" xmlns="http://www.w3.org/2000/svg" xmlns:xlink="http://www.w3.org/1999/xlink" x="0px" y="0px" width="216px" height="216px" viewBox="0 0 216 216" enable-background="new 0 0 216 216" xml:space="preserve">
<path id="_x33_" fill-rule="evenodd" clip-rule="evenodd" fill="#F58031" d="M27.058,27.406c2.61,0,4.728,2.116,4.728,4.728
	c0,2.61-2.118,4.728-4.728,4.728c-2.612,0-4.728-2.118-4.728-4.728C22.33,29.522,24.446,27.406,27.058,27.406L27.058,27.406z
	 M27.058,22.165c5.503,0,9.969,4.464,9.969,9.969c0,5.503-4.466,9.969-9.969,9.969c-5.505,0-9.969-4.466-9.969-9.969
	C17.089,26.629,21.553,22.165,27.058,22.165L27.058,22.165z M81.679,74.507l-2.1-4.555h2.1V74.507L81.679,74.507z M75.833,61.822
	l-2.187-4.747c1.731-0.875,3.672-1.392,5.493-1.392l0,0h2.539v6.138H75.833L75.833,61.822z M97.701,55.684v6.138h-6.509v-6.138l0,0
	H97.701L97.701,55.684z M97.701,69.952v7.894h-6.509v-7.894H97.701L97.701,69.952z M113.723,69.952v7.894h-6.507v-7.894H113.723
	L113.723,69.952z M113.723,55.684v6.138h-6.507v-6.138l0,0H113.723L113.723,55.684z M129.746,55.684v6.138h-6.511v-6.138l0,0
	H129.746L129.746,55.684z M129.746,69.952v7.894h-6.511v-7.894H129.746L129.746,69.952z M145.766,69.952v7.894h-6.506v-7.894
	H145.766L145.766,69.952z M140.663,55.684l2.828,6.138h-4.231v-6.138l0,0H140.663L140.663,55.684z M129.746,87.752l-6.511,2.999
	v-4.775h6.511V87.752L129.746,87.752z M113.723,85.976v7.892h-6.507v-7.892H113.723L113.723,85.976z M97.701,85.976v7.892h-6.509
	v-7.892H97.701L97.701,85.976z M73.815,39.296l48.903-22.541l10.389,22.541H73.815L73.815,39.296z M81.103,169.956L81.103,169.956
	c-4.775,0-8.645,3.87-8.645,8.643c0,4.777,3.87,8.646,8.645,8.646s8.646-3.869,8.646-8.646
	C89.75,173.826,85.878,169.956,81.103,169.956L81.103,169.956z M162.518,169.956L162.518,169.956c-4.772,0-8.643,3.87-8.643,8.643
	c0,4.777,3.87,8.646,8.643,8.646c4.777,0,8.647-3.869,8.647-8.646C171.165,173.826,167.295,169.956,162.518,169.956L162.518,169.956
	z"/>
<path id="_x32_" fill-rule="evenodd" clip-rule="evenodd" fill="#999557" d="M16.119,4.918h183.602c6.161,0,11.198,5.04,11.198,11.2
	v183.602c0,6.161-5.037,11.198-11.198,11.198H16.119c-6.161,0-11.2-5.037-11.2-11.198V16.119C4.918,9.958,9.958,4.918,16.119,4.918
	L16.119,4.918z M16.119-0.08h183.602c8.911,0,16.199,7.29,16.199,16.199v183.602c0,8.907-7.288,16.199-16.199,16.199H16.119
	c-8.909,0-16.199-7.292-16.199-16.199V16.119C-0.08,7.209,7.209-0.08,16.119-0.08L16.119-0.08z M48.528,27.697
	c-0.358-0.635-1.036-1.347-2.187-1.345h-8.335c0.565,1.86,0.854,3.805,0.854,5.782c0,1.75-0.228,3.477-0.673,5.143h1.564
	l36.404,73.935l-13.807,28.523c-4.71,9.559-0.229,16.293,9.16,16.162h0.055h108.391c3.048-0.122,4.643-1.277,4.769-4.37
	c-0.167-2.522-2.152-4.724-4.732-4.785H78.545c-1.546-0.004-5.603,0.501-6.688-0.626c-2.28-2.381,0.983-6.775,2.277-9.437
	l0.039-0.073l8.878-17.298h71.601c0.497,0,0.924-0.089,1.343-0.361c1.53-1.006,3.138-4.688,3.964-6.315l33.048-64.913
	c0.009-0.019,0.021-0.041,0.024-0.063c-0.028-0.826-2.075-2.08-2.726-2.373c-0.786-0.356-1.737-0.633-2.604-0.633H68.023
	c-1.507,0-3.166,0.727-4.177,1.839l-3.933,4.33L48.528,27.697L48.528,27.697z M160.731,85.97L160.731,85.97l-5.225,9.277h-0.228
	V85.97H160.731L160.731,85.97z M169.753,69.948L169.753,69.948l-5.225,9.275h-9.249v-9.275H169.753L169.753,69.948z M155.279,55.68
	L155.279,55.68h6.14c11.536,0,13.574,2.914,11.882,7.521h-18.021V55.68L155.279,55.68z M148.533,101.991L148.533,101.991v4.5
	c-1.307,1.178-2.897,1.913-5.01,1.913h-4.264v-6.413H148.533L148.533,101.991z M148.533,85.97L148.533,85.97v9.277h-9.273V85.97
	H148.533L148.533,85.97z M148.533,69.948L148.533,69.948v9.275h-9.273v-9.275H148.533L148.533,69.948z M139.26,55.68L139.26,55.68
	h9.273v7.521h-9.273V55.68L139.26,55.68z M132.509,101.991L132.509,101.991v6.413h-9.273v-6.413H132.509L132.509,101.991z
	 M132.509,85.97L132.509,85.97v9.277h-9.273V85.97H132.509L132.509,85.97z M132.509,69.948L132.509,69.948v9.275h-9.273v-9.275
	H132.509L132.509,69.948z M123.235,55.68L123.235,55.68h9.273v7.521h-9.273V55.68L123.235,55.68z M116.489,101.991L116.489,101.991
	v6.413h-9.275v-6.413H116.489L116.489,101.991z M116.489,85.97L116.489,85.97v9.277h-9.275V85.97H116.489L116.489,85.97z
	 M116.489,69.948L116.489,69.948v9.275h-9.275v-9.275H116.489L116.489,69.948z M107.214,55.68L107.214,55.68h9.275v7.521h-9.275
	V55.68L107.214,55.68z M100.467,101.991L100.467,101.991v6.413h-7.811c-0.515,0-1.001-0.041-1.465-0.12v-6.293H100.467
	L100.467,101.991z M100.467,85.97L100.467,85.97v9.277h-9.275V85.97H100.467L100.467,85.97z M100.467,69.948L100.467,69.948v9.275
	h-9.275v-9.275H100.467L100.467,69.948z M91.192,55.68L91.192,55.68h9.275v7.521h-9.275V55.68L91.192,55.68z M84.446,85.97
	L84.446,85.97v9.277h-3.402l-3.947-9.277H84.446L84.446,85.97z M84.446,69.948L84.446,69.948v9.275H74.229l-3.947-9.275H84.446
	L84.446,69.948z M79.14,55.68L79.14,55.68h5.306v7.521H68.304C68.998,59.083,74.464,55.68,79.14,55.68L79.14,55.68z M81.262,158.481
	c11.106,0,20.113,9.005,20.113,20.113s-9.007,20.113-20.113,20.113c-11.104,0-20.113-9.005-20.113-20.113
	S70.157,158.481,81.262,158.481L81.262,158.481z M81.262,162.457L81.262,162.457c-8.911,0-16.134,7.227-16.134,16.138
	c0,8.907,7.223,16.13,16.134,16.13c8.909,0,16.136-7.223,16.136-16.13C97.397,169.684,90.173,162.457,81.262,162.457L81.262,162.457
	z M162.729,158.046L162.729,158.046c11.104,0,20.113,9.009,20.113,20.117c0,11.104-9.009,20.113-20.113,20.113
	c-11.108,0-20.113-9.009-20.113-20.113C142.616,167.055,151.621,158.046,162.729,158.046L162.729,158.046z M162.729,162.025
	c-8.866,0-16.134,7.271-16.134,16.138c0,8.907,7.223,16.134,16.134,16.134c8.907,0,16.134-7.227,16.134-16.134
	C178.863,169.252,171.637,162.025,162.729,162.025L162.729,162.025z"/>
<path id="_x31_" fill-rule="evenodd" clip-rule="evenodd" fill="#7E5628" d="M81.262,169.948L81.262,169.948
	c-4.775,0-8.645,3.869-8.645,8.646c0,4.772,3.87,8.643,8.645,8.643s8.645-3.87,8.645-8.643
	C89.906,173.817,86.037,169.948,81.262,169.948L81.262,169.948z M81.262,162.457L81.262,162.457
	c-8.911,0-16.134,7.227-16.134,16.138c0,8.907,7.223,16.13,16.134,16.13c8.909,0,16.136-7.223,16.136-16.13
	C97.397,169.684,90.173,162.457,81.262,162.457L81.262,162.457z M162.677,169.948L162.677,169.948c-4.773,0-8.646,3.869-8.646,8.646
	c0,4.772,3.873,8.643,8.646,8.643c4.777,0,8.646-3.87,8.646-8.643C171.323,173.817,167.454,169.948,162.677,169.948L162.677,169.948
	z M162.729,162.025L162.729,162.025c-8.911,0-16.134,7.227-16.134,16.138c0,8.907,7.223,16.134,16.134,16.134
	c8.907,0,16.134-7.227,16.134-16.134C178.863,169.252,171.637,162.025,162.729,162.025L162.729,162.025z M27.058,27.406
	c2.61,0,4.728,2.116,4.728,4.728c0,2.61-2.118,4.728-4.728,4.728c-2.612,0-4.728-2.118-4.728-4.728
	C22.33,29.522,24.446,27.406,27.058,27.406L27.058,27.406z M168.589,24.887c3.089,2.495,4.651,7.4,4.785,13.717h-30.745
	C152.057,25.9,162.449,19.936,168.589,24.887L168.589,24.887z M170.66,57.252c-0.358,1.28-0.749,2.574-1.172,3.88H155.12v-5.447l0,0
	h6.141c4.269,0,7.238,0.399,9.196,1.136C170.534,56.961,170.604,57.104,170.66,57.252L170.66,57.252z M124.542,93.178
	c-0.143-1.16-0.229-2.389-0.253-3.674l5.299-2.441v6.116H124.542L124.542,93.178z M165.659,69.954l-4.053,7.202h-6.486v-7.202
	H165.659L165.659,69.954z M140.822,55.686l2.51,5.447h2.275v-5.447H140.822L140.822,55.686z M139.101,93.178h6.507v-7.2h-6.507
	V93.178L139.101,93.178z"/>
</svg>
