<?xml version="1.0" encoding="utf-8"?>
<!DOCTYPE svg PUBLIC "-//W3C//DTD SVG 1.1//EN" "http://www.w3.org/Graphics/SVG/1.1/DTD/svg11.dtd">
<svg version="1.1" xmlns="http://www.w3.org/2000/svg" xmlns:xlink="http://www.w3.org/1999/xlink" x="0px" y="0px" width="216px" height="216px" viewBox="0 0 216 216" enable-background="new 0 0 216 216" xml:space="preserve">
<path fill-rule="evenodd" clip-rule="evenodd" d="M16.119,4.918h183.602c6.161,0,11.198,5.04,11.198,11.2
	v183.602c0,6.161-5.037,11.198-11.198,11.198H16.119c-6.161,0-11.2-5.037-11.2-11.198V16.119C4.918,9.958,9.958,4.918,16.119,4.918
	L16.119,4.918z M16.119-0.08h183.602c8.911,0,16.199,7.29,16.199,16.199v183.602c0,8.907-7.288,16.199-16.199,16.199H16.119
	c-8.909,0-16.199-7.292-16.199-16.199V16.119C-0.08,7.209,7.209-0.08,16.119-0.08L16.119-0.08z M48.528,27.697
	c-0.358-0.635-1.036-1.347-2.187-1.345h-8.335c0.565,1.86,0.854,3.805,0.854,5.782c0,1.75-0.228,3.477-0.673,5.143h1.564
	l36.404,73.935l-13.807,28.523c-4.71,9.559-0.229,16.293,9.16,16.162h0.055h108.391c3.048-0.122,4.643-1.277,4.769-4.37
	c-0.167-2.522-2.152-4.724-4.732-4.785H78.545c-1.546-0.004-5.603,0.501-6.688-0.626c-2.28-2.381,0.983-6.775,2.277-9.437
	l0.039-0.073l8.878-17.298h71.601c0.497,0,0.924-0.089,1.343-0.361c1.53-1.006,3.138-4.688,3.964-6.315l33.048-64.913
	c0.009-0.019,0.021-0.041,0.024-0.063c-0.028-0.826-2.075-2.08-2.726-2.373c-0.786-0.356-1.737-0.633-2.604-0.633H68.023
	c-1.507,0-3.166,0.727-4.177,1.839l-3.933,4.33L48.528,27.697L48.528,27.697z M160.731,85.97L160.731,85.97l-5.225,9.277h-0.228
	V85.97H160.731L160.731,85.97z M169.753,69.948L169.753,69.948l-5.225,9.275h-9.249v-9.275H169.753L169.753,69.948z M155.279,55.68
	L155.279,55.68h6.14c11.536,0,13.574,2.914,11.882,7.521h-18.021V55.68L155.279,55.68z M148.533,101.991L148.533,101.991v4.5
	c-1.307,1.178-2.897,1.913-5.01,1.913h-4.264v-6.413H148.533L148.533,101.991z M148.533,85.97L148.533,85.97v9.277h-9.273V85.97
	H148.533L148.533,85.97z M148.533,69.948L148.533,69.948v9.275h-9.273v-9.275H148.533L148.533,69.948z M139.26,55.68L139.26,55.68
	h9.273v7.521h-9.273V55.68L139.26,55.68z M132.509,101.991L132.509,101.991v6.413h-9.273v-6.413H132.509L132.509,101.991z
	 M132.509,85.97L132.509,85.97v9.277h-9.273V85.97H132.509L132.509,85.97z M132.509,69.948L132.509,69.948v9.275h-9.273v-9.275
	H132.509L132.509,69.948z M123.235,55.68L123.235,55.68h9.273v7.521h-9.273V55.68L123.235,55.68z M116.489,101.991L116.489,101.991
	v6.413h-9.275v-6.413H116.489L116.489,101.991z M116.489,85.97L116.489,85.97v9.277h-9.275V85.97H116.489L116.489,85.97z
	 M116.489,69.948L116.489,69.948v9.275h-9.275v-9.275H116.489L116.489,69.948z M107.214,55.68L107.214,55.68h9.275v7.521h-9.275
	V55.68L107.214,55.68z M100.467,101.991L100.467,101.991v6.413h-7.811c-0.515,0-1.001-0.041-1.465-0.12v-6.293H100.467
	L100.467,101.991z M100.467,85.97L100.467,85.97v9.277h-9.275V85.97H100.467L100.467,85.97z M100.467,69.948L100.467,69.948v9.275
	h-9.275v-9.275H100.467L100.467,69.948z M91.192,55.68L91.192,55.68h9.275v7.521h-9.275V55.68L91.192,55.68z M84.446,85.97
	L84.446,85.97v9.277h-3.402l-3.947-9.277H84.446L84.446,85.97z M84.446,69.948L84.446,69.948v9.275H74.229l-3.947-9.275H84.446
	L84.446,69.948z M79.14,55.68L79.14,55.68h5.306v7.521H68.304C68.998,59.083,74.464,55.68,79.14,55.68L79.14,55.68z M81.262,158.481
	c11.106,0,20.113,9.005,20.113,20.113s-9.007,20.113-20.113,20.113c-11.104,0-20.113-9.005-20.113-20.113
	S70.157,158.481,81.262,158.481L81.262,158.481z M81.262,162.457L81.262,162.457c-8.911,0-16.134,7.227-16.134,16.138
	c0,8.907,7.223,16.13,16.134,16.13c8.909,0,16.136-7.223,16.136-16.13C97.397,169.684,90.173,162.457,81.262,162.457L81.262,162.457
	z M162.729,158.046L162.729,158.046c11.104,0,20.113,9.009,20.113,20.117c0,11.104-9.009,20.113-20.113,20.113
	c-11.108,0-20.113-9.009-20.113-20.113C142.616,167.055,151.621,158.046,162.729,158.046L162.729,158.046z M162.729,162.025
	c-8.866,0-16.134,7.271-16.134,16.138c0,8.907,7.223,16.134,16.134,16.134c8.907,0,16.134-7.227,16.134-16.134
	C178.863,169.252,171.637,162.025,162.729,162.025L162.729,162.025z"/>
</svg>
