<?xml version="1.0" encoding="utf-8"?>
<!DOCTYPE svg PUBLIC "-//W3C//DTD SVG 1.1//EN" "http://www.w3.org/Graphics/SVG/1.1/DTD/svg11.dtd">
<svg version="1.1" xmlns="http://www.w3.org/2000/svg" xmlns:xlink="http://www.w3.org/1999/xlink" x="0px" y="0px" width="216px" height="216px" viewBox="0 0 216 216" enable-background="new 0 0 216 216" xml:space="preserve">
<path fill-rule="evenodd" clip-rule="evenodd" d="M27.058,27.406c2.61,0,4.728,2.116,4.728,4.728
	c0,2.61-2.118,4.728-4.728,4.728c-2.612,0-4.728-2.118-4.728-4.728C22.33,29.522,24.446,27.406,27.058,27.406L27.058,27.406z
	 M27.058,22.165c5.503,0,9.969,4.464,9.969,9.969c0,5.503-4.466,9.969-9.969,9.969c-5.505,0-9.969-4.466-9.969-9.969
	C17.089,26.629,21.553,22.165,27.058,22.165L27.058,22.165z M81.679,74.507l-2.1-4.555h2.1V74.507L81.679,74.507z M75.833,61.822
	l-2.187-4.747c1.731-0.875,3.672-1.392,5.493-1.392l0,0h2.539v6.138H75.833L75.833,61.822z M97.701,55.684v6.138h-6.509v-6.138l0,0
	H97.701L97.701,55.684z M97.701,69.952v7.894h-6.509v-7.894H97.701L97.701,69.952z M113.723,69.952v7.894h-6.507v-7.894H113.723
	L113.723,69.952z M113.723,55.684v6.138h-6.507v-6.138l0,0H113.723L113.723,55.684z M129.746,55.684v6.138h-6.511v-6.138l0,0
	H129.746L129.746,55.684z M129.746,69.952v7.894h-6.511v-7.894H129.746L129.746,69.952z M145.766,69.952v7.894h-6.506v-7.894
	H145.766L145.766,69.952z M140.663,55.684l2.828,6.138h-4.231v-6.138l0,0H140.663L140.663,55.684z M129.746,87.752l-6.511,2.999
	v-4.775h6.511V87.752L129.746,87.752z M113.723,85.976v7.892h-6.507v-7.892H113.723L113.723,85.976z M97.701,85.976v7.892h-6.509
	v-7.892H97.701L97.701,85.976z M73.815,39.296l48.903-22.541l10.389,22.541H73.815L73.815,39.296z M81.103,169.956L81.103,169.956
	c-4.775,0-8.645,3.87-8.645,8.643c0,4.777,3.87,8.646,8.645,8.646s8.646-3.869,8.646-8.646
	C89.75,173.826,85.878,169.956,81.103,169.956L81.103,169.956z M162.518,169.956L162.518,169.956c-4.772,0-8.643,3.87-8.643,8.643
	c0,4.777,3.87,8.646,8.643,8.646c4.777,0,8.647-3.869,8.647-8.646C171.165,173.826,167.295,169.956,162.518,169.956L162.518,169.956
	z"/>
</svg>
