<?xml version="1.0" encoding="utf-8"?>
<!DOCTYPE svg PUBLIC "-//W3C//DTD SVG 1.1//EN" "http://www.w3.org/Graphics/SVG/1.1/DTD/svg11.dtd">
<svg version="1.1" xmlns="http://www.w3.org/2000/svg" xmlns:xlink="http://www.w3.org/1999/xlink" x="0px" y="0px" width="216px" height="216px" viewBox="0 0 216 216" enable-background="new 0 0 216 216" xml:space="preserve">
<path fill-rule="evenodd" clip-rule="evenodd" d="M81.262,169.948L81.262,169.948
	c-4.775,0-8.645,3.869-8.645,8.646c0,4.772,3.87,8.643,8.645,8.643s8.645-3.87,8.645-8.643
	C89.906,173.817,86.037,169.948,81.262,169.948L81.262,169.948z M81.262,162.457L81.262,162.457
	c-8.911,0-16.134,7.227-16.134,16.138c0,8.907,7.223,16.13,16.134,16.13c8.909,0,16.136-7.223,16.136-16.13
	C97.397,169.684,90.173,162.457,81.262,162.457L81.262,162.457z M162.677,169.948L162.677,169.948c-4.773,0-8.646,3.869-8.646,8.646
	c0,4.772,3.873,8.643,8.646,8.643c4.777,0,8.646-3.87,8.646-8.643C171.323,173.817,167.454,169.948,162.677,169.948L162.677,169.948
	z M162.729,162.025L162.729,162.025c-8.911,0-16.134,7.227-16.134,16.138c0,8.907,7.223,16.134,16.134,16.134
	c8.907,0,16.134-7.227,16.134-16.134C178.863,169.252,171.637,162.025,162.729,162.025L162.729,162.025z M27.058,27.406
	c2.61,0,4.728,2.116,4.728,4.728c0,2.61-2.118,4.728-4.728,4.728c-2.612,0-4.728-2.118-4.728-4.728
	C22.33,29.522,24.446,27.406,27.058,27.406L27.058,27.406z M168.589,24.887c3.089,2.495,4.651,7.4,4.785,13.717h-30.745
	C152.057,25.9,162.449,19.936,168.589,24.887L168.589,24.887z M170.66,57.252c-0.358,1.28-0.749,2.574-1.172,3.88H155.12v-5.447l0,0
	h6.141c4.269,0,7.238,0.399,9.196,1.136C170.534,56.961,170.604,57.104,170.66,57.252L170.66,57.252z M124.542,93.178
	c-0.143-1.16-0.229-2.389-0.253-3.674l5.299-2.441v6.116H124.542L124.542,93.178z M165.659,69.954l-4.053,7.202h-6.486v-7.202
	H165.659L165.659,69.954z M140.822,55.686l2.51,5.447h2.275v-5.447H140.822L140.822,55.686z M139.101,93.178h6.507v-7.2h-6.507
	V93.178L139.101,93.178z"/>
</svg>
