<?xml version="1.0" encoding="utf-8"?>
<!DOCTYPE svg PUBLIC "-//W3C//DTD SVG 1.1//EN" "http://www.w3.org/Graphics/SVG/1.1/DTD/svg11.dtd">
<svg version="1.1" xmlns="http://www.w3.org/2000/svg" xmlns:xlink="http://www.w3.org/1999/xlink" x="0px" y="0px" width="216px" height="216px" viewBox="0 0 216 216" enable-background="new 0 0 216 216" xml:space="preserve">
<path fill-rule="evenodd" clip-rule="evenodd" d="M125.314,178.525v-31.652H91.863v31.652H125.314
	L125.314,178.525z M36.159,117.547L36.159,117.547H178.44v11.809H36.159V117.547L36.159,117.547z M128.005,62.16L128.005,62.16
	h11.954l21.839,38.22h-22.876L128.005,62.16L128.005,62.16z M92.124,62.16L92.124,62.16h12.372v38.22H81.203L92.124,62.16
	L92.124,62.16z M30.788,94.919L30.788,94.919v-5.461c0-1.184,0.384-2.329,1.094-3.271l16.38-21.84
	c1.027-1.375,2.647-2.187,4.364-2.187H68.2l-21.836,38.22H36.248C33.233,100.38,30.788,97.938,30.788,94.919L30.788,94.919z"/>
</svg>
