<?xml version="1.0" encoding="utf-8"?>
<!DOCTYPE svg PUBLIC "-//W3C//DTD SVG 1.1//EN" "http://www.w3.org/Graphics/SVG/1.1/DTD/svg11.dtd">
<svg version="1.1" xmlns="http://www.w3.org/2000/svg" xmlns:xlink="http://www.w3.org/1999/xlink" x="0px" y="0px" width="216px" height="216px" viewBox="0 0 216 216" enable-background="new 0 0 216 216" xml:space="preserve">
<path fill-rule="evenodd" clip-rule="evenodd" d="M52.296,146.404v32.324h23.521v-32.324H52.296
	L52.296,146.404z M143.097,146.404L143.097,146.404v32.324h23.522v-32.324H143.097L143.097,146.404z M183.665,94.919L183.665,94.919
	c0,3.019-2.446,5.46-5.465,5.46h-10.116l-21.838-38.22h15.576c1.721,0,3.337,0.812,4.366,2.187l16.378,21.84
	c0.712,0.942,1.099,2.087,1.099,3.271V94.919L183.665,94.919z M75.524,100.38L75.524,100.38H52.648l21.84-38.22h11.953
	L75.524,100.38L75.524,100.38z M109.95,62.16L109.95,62.16h12.374l10.917,38.22H109.95V62.16L109.95,62.16z"/>
</svg>
