<?xml version="1.0" encoding="utf-8"?>
<!DOCTYPE svg PUBLIC "-//W3C//DTD SVG 1.1//EN" "http://www.w3.org/Graphics/SVG/1.1/DTD/svg11.dtd">
<svg version="1.1" xmlns="http://www.w3.org/2000/svg" xmlns:xlink="http://www.w3.org/1999/xlink" x="0px" y="0px" width="216px" height="216px" viewBox="0 0 216 216" enable-background="new 0 0 216 216" xml:space="preserve">
<path id="_x33_" fill-rule="evenodd" clip-rule="evenodd" fill="#F58031" d="M52.296,146.404v32.324h23.521v-32.324H52.296
	L52.296,146.404z M143.097,146.404L143.097,146.404v32.324h23.522v-32.324H143.097L143.097,146.404z M183.665,94.919L183.665,94.919
	c0,3.019-2.446,5.46-5.465,5.46h-10.116l-21.838-38.22h15.576c1.721,0,3.337,0.812,4.366,2.187l16.378,21.84
	c0.712,0.942,1.099,2.087,1.099,3.271V94.919L183.665,94.919z M75.524,100.38L75.524,100.38H52.648l21.84-38.22h11.953
	L75.524,100.38L75.524,100.38z M109.95,62.16L109.95,62.16h12.374l10.917,38.22H109.95V62.16L109.95,62.16z"/>
<path id="_x32_" fill-rule="evenodd" clip-rule="evenodd" fill="#999557" d="M16.119-0.08h183.602
	c8.911,0,16.199,7.29,16.199,16.199v183.602c0,8.907-7.288,16.199-16.199,16.199H16.119c-8.909,0-16.199-7.292-16.199-16.199V16.119
	C-0.08,7.209,7.209-0.08,16.119-0.08L16.119-0.08z M16.119,4.918h183.602c6.161,0,11.198,5.04,11.198,11.2v183.602
	c0,6.161-5.037,11.198-11.198,11.198H16.119c-6.161,0-11.2-5.037-11.2-11.198V16.119C4.918,9.958,9.958,4.918,16.119,4.918
	L16.119,4.918z M77.298,44.712L77.298,44.712c0,1.465-0.415,2.781-1.245,3.947c-0.822,1.164-2.037,2.075-3.636,2.734
	c-1.597,0.659-3.485,0.991-5.678,0.991c-2.625,0-4.785-0.45-6.496-1.351c-1.207-0.655-2.191-1.514-2.946-2.602
	c-0.757-1.08-1.135-2.13-1.135-3.155c0-0.592,0.231-1.103,0.684-1.526c0.451-0.421,1.025-0.637,1.733-0.637
	c0.569,0,1.045,0.171,1.44,0.497c0.393,0.332,0.726,0.822,1.005,1.469c0.34,0.773,0.704,1.414,1.103,1.931
	c0.389,0.513,0.946,0.94,1.658,1.275c0.712,0.334,1.648,0.502,2.814,0.502c1.597,0,2.891-0.337,3.888-1.013
	c0.997-0.675,1.498-1.518,1.498-2.533c0-0.8-0.267-1.453-0.804-1.953c-0.539-0.5-1.239-0.883-2.087-1.144
	c-0.854-0.262-1.994-0.545-3.424-0.844c-1.906-0.403-3.511-0.883-4.799-1.422c-1.29-0.545-2.309-1.29-3.064-2.23
	c-0.757-0.94-1.135-2.104-1.135-3.5c0-1.329,0.397-2.511,1.196-3.546c0.8-1.032,1.958-1.825,3.467-2.381
	c1.512-0.557,3.288-0.834,5.333-0.834c1.634,0,3.046,0.185,4.234,0.551c1.196,0.373,2.181,0.857,2.968,1.469
	c0.785,0.61,1.363,1.251,1.728,1.92c0.358,0.669,0.545,1.322,0.545,1.963c0,0.58-0.228,1.104-0.682,1.571
	c-0.454,0.468-1.023,0.704-1.696,0.704c-0.619,0-1.083-0.14-1.406-0.423c-0.321-0.275-0.667-0.737-1.04-1.374
	c-0.49-0.912-1.066-1.625-1.748-2.138c-0.673-0.511-1.764-0.765-3.263-0.765c-1.392,0-2.513,0.275-3.363,0.834
	c-0.853,0.555-1.28,1.221-1.28,2.002c0,0.484,0.143,0.901,0.432,1.251c0.291,0.354,0.693,0.657,1.202,0.912
	c0.507,0.246,1.021,0.45,1.542,0.59c0.519,0.141,1.375,0.348,2.576,0.625c1.5,0.322,2.854,0.669,4.069,1.058
	c1.219,0.382,2.246,0.848,3.103,1.402c0.854,0.545,1.518,1.243,1.994,2.083C77.056,42.466,77.298,43.495,77.298,44.712
	L77.298,44.712z M87.298,30.354L87.298,30.354v6.93h11.631v-6.93c0-0.985,0.246-1.727,0.737-2.224
	c0.488-0.495,1.133-0.743,1.931-0.743c0.806,0,1.463,0.242,1.963,0.73c0.502,0.492,0.757,1.241,0.757,2.236v19.045
	c0,0.997-0.254,1.745-0.763,2.242c-0.506,0.495-1.164,0.743-1.957,0.743c-0.81,0-1.461-0.248-1.943-0.749
	c-0.484-0.502-0.725-1.243-0.725-2.236v-8.126H87.298v8.126c0,1.001-0.252,1.745-0.761,2.242c-0.507,0.495-1.164,0.743-1.955,0.743
	c-0.812,0-1.463-0.248-1.947-0.749c-0.482-0.502-0.722-1.243-0.722-2.236V30.354c0-0.985,0.24-1.727,0.718-2.224
	c0.476-0.495,1.127-0.743,1.951-0.743c0.804,0,1.461,0.242,1.963,0.73C87.046,28.61,87.298,29.359,87.298,30.354L87.298,30.354z
	 M121.804,27.388L121.804,27.388c2.763,0,5.127,0.507,7.108,1.526c1.974,1.02,3.475,2.46,4.488,4.333
	c1.017,1.874,1.525,4.075,1.525,6.608c0,1.868-0.276,3.563-0.834,5.092c-0.562,1.526-1.392,2.854-2.502,3.975
	c-1.115,1.119-2.482,1.974-4.102,2.572c-1.624,0.59-3.479,0.889-5.575,0.889c-2.079,0-3.942-0.305-5.591-0.917
	c-1.644-0.608-3.011-1.469-4.12-2.578c-1.101-1.109-1.929-2.448-2.494-4.008c-0.562-1.558-0.84-3.247-0.84-5.06
	c0-1.857,0.289-3.563,0.879-5.111c0.59-1.554,1.437-2.869,2.549-3.955c1.117-1.093,2.468-1.927,4.067-2.5
	C117.958,27.675,119.772,27.388,121.804,27.388L121.804,27.388z M129.465,39.821L129.465,39.821c0-1.772-0.316-3.302-0.939-4.602
	c-0.635-1.296-1.53-2.281-2.702-2.944c-1.163-0.665-2.502-0.995-4.02-0.995c-1.079,0-2.067,0.183-2.983,0.549
	c-0.911,0.37-1.696,0.905-2.359,1.609c-0.659,0.704-1.176,1.605-1.559,2.698c-0.383,1.088-0.574,2.323-0.574,3.685
	c0,1.373,0.191,2.618,0.574,3.727c0.383,1.107,0.92,2.03,1.615,2.761c0.691,0.732,1.489,1.28,2.393,1.64
	c0.899,0.364,1.893,0.545,2.971,0.545c1.379,0,2.641-0.315,3.8-0.94c1.16-0.625,2.075-1.593,2.755-2.903
	C129.123,43.345,129.465,41.735,129.465,39.821L129.465,39.821z M149.855,42.555L149.855,42.555h-4.936v6.844
	c0,0.979-0.253,1.719-0.762,2.224c-0.504,0.506-1.151,0.761-1.924,0.761c-0.807,0-1.461-0.248-1.958-0.749
	c-0.496-0.502-0.744-1.239-0.744-2.202V30.8c0-1.076,0.272-1.848,0.817-2.31c0.546-0.461,1.408-0.691,2.597-0.691h6.909
	c2.047,0,3.609,0.14,4.712,0.429c1.09,0.275,2.03,0.73,2.823,1.367c0.794,0.641,1.392,1.418,1.803,2.342
	c0.415,0.921,0.623,1.963,0.623,3.117c0,2.466-0.839,4.328-2.503,5.599C155.642,41.92,153.155,42.555,149.855,42.555L149.855,42.555
	z M148.549,31.475L148.549,31.475h-3.629v7.389h3.629c1.27,0,2.328-0.118,3.187-0.362c0.846-0.24,1.497-0.641,1.944-1.186
	c0.448-0.552,0.672-1.272,0.672-2.161c0-1.07-0.346-1.937-1.033-2.612C152.541,31.829,150.95,31.475,148.549,31.475L148.549,31.475z
	 M109.95,62.16L109.95,62.16h12.374l10.917,38.22H109.95V62.16L109.95,62.16z M75.522,100.38L75.522,100.38H52.648l21.84-38.22
	h11.953L75.522,100.38L75.522,100.38z M183.665,94.919L183.665,94.919c0,3.019-2.446,5.46-5.465,5.46h-10.116l-21.838-38.22h15.576
	c1.721,0,3.337,0.812,4.366,2.187l16.382,21.84c0.708,0.944,1.095,2.087,1.095,3.271V94.919L183.665,94.919z M30.788,94.919
	L30.788,94.919v-5.461c0-1.184,0.384-2.327,1.094-3.271l16.38-21.84c1.027-1.375,2.647-2.187,4.364-2.187H68.2l-21.838,38.22H36.248
	C33.233,100.38,30.788,97.938,30.788,94.919L30.788,94.919z M92.124,62.16L92.124,62.16h12.37v38.22H81.203L92.124,62.16
	L92.124,62.16z M128.005,62.16L128.005,62.16h11.954l21.839,38.22h-22.876L128.005,62.16L128.005,62.16z M191.307,79.632
	L191.307,79.632l-16.37-21.828c-0.646-0.856-1.408-1.599-2.197-2.307V29.404c0-6.032-4.891-10.921-10.917-10.921H52.626
	c-6.03,0-10.921,4.889-10.921,10.921V55.5c-0.781,0.704-1.538,1.44-2.181,2.293l-16.37,21.834c-2.12,2.816-3.284,6.307-3.284,9.831
	v5.461c0,9.033,7.347,16.379,16.378,16.379h-0.004v0.157H178.2v-0.157c9.033,0,16.382-7.346,16.382-16.379v-5.461
	C194.582,85.935,193.418,82.444,191.307,79.632L191.307,79.632z M36.244,135.442L36.244,135.442v46.831
	c0,6.034,4.891,10.921,10.921,10.921h120.118c6.025,0,10.917-4.887,10.917-10.921v-46.831H36.244L36.244,135.442z M48.549,142.657
	L48.549,142.657h31.018v39.823H48.549V142.657L48.549,142.657z M139.345,142.657L139.345,142.657h31.022v39.823h-31.022V142.657
	L139.345,142.657z M129.063,182.273H88.114v-39.148h40.949V182.273L129.063,182.273z"/>
<path id="_x31_" fill-rule="evenodd" clip-rule="evenodd" fill="#7E5628" d="M125.314,178.525v-31.652H91.863v31.652H125.314
	L125.314,178.525z M36.159,117.547L36.159,117.547H178.44v11.809H36.159V117.547L36.159,117.547z M128.005,62.16L128.005,62.16
	h11.954l21.839,38.22h-22.876L128.005,62.16L128.005,62.16z M92.124,62.16L92.124,62.16h12.372v38.22H81.203L92.124,62.16
	L92.124,62.16z M30.788,94.919L30.788,94.919v-5.461c0-1.184,0.384-2.329,1.094-3.271l16.38-21.84
	c1.027-1.375,2.647-2.187,4.364-2.187H68.2l-21.836,38.22H36.248C33.233,100.38,30.788,97.938,30.788,94.919L30.788,94.919z"/>
</svg>
