<?xml version="1.0" encoding="utf-8"?>
<!DOCTYPE svg PUBLIC "-//W3C//DTD SVG 1.1//EN" "http://www.w3.org/Graphics/SVG/1.1/DTD/svg11.dtd">
<svg version="1.1" xmlns="http://www.w3.org/2000/svg" xmlns:xlink="http://www.w3.org/1999/xlink" x="0px" y="0px" width="216px" height="216px" viewBox="0 0 216 216" enable-background="new 0 0 216 216" xml:space="preserve">
<path fill-rule="evenodd" clip-rule="evenodd" d="M63.677,122.698l1.076-1.106
	c0.936-0.96,0.346-2.156,0.434-2.958l-5.072-6.403c-0.168-0.793-1.462-3.143-1.837-4.209c-0.563-1.605-0.885-2.752-1.156-4.354
	c-0.436-2.603-0.37-5.921,0.128-8.606c0.586-3.162,1.363-5.485,3.401-8.655c0.356-0.553,0.533-1.28,1.243-2.067
	c0.608-0.671,1.652-1.538,2.157-2.216c0.832-1.108,1.009-3.342-0.051-4.37l-0.556-0.539c-3.872-3.764-9.255,6.401-10.685,9.167
	c-1.978,3.827-2.916,9.597-2.861,13.426c0.061,4.395,0.92,8.974,3.04,13.344C54.144,115.635,60.313,126.157,63.677,122.698
	L63.677,122.698z M42.484,121.222L42.484,121.222c0.204,0.956,4.197,6.774,5.302,7.845l3.046,2.967
	c0.761,0.74,2.954,0.838,3.554,0.224l1.212-1.249c2.354-2.422-1.841-5.273-3.631-7.735c-2.36-3.247-3.196-4.635-4.781-7.719
	c-1.925-3.742-3.802-11.786-3.55-15.52c0.332-4.899,0.708-10.799,3.164-15.617c1.086-2.128,2.755-5.894,4.626-7.853
	c0.912-0.952,2.244-2.692,3.359-4.008c0.826-0.977,0.677-3.105-0.202-3.958l-0.832-0.81c-0.625-0.606-3.268-0.517-3.959,0.193
	l-1.211,1.247c-7.139,7.341-11.186,18.833-11.604,26.117c-0.224,3.912-0.421,9.11,0.688,12.968
	C38.429,110.979,40.187,118.987,42.484,121.222L42.484,121.222z M38.391,140.948L38.391,140.948l1.938,1.884
	c0.7-0.338,2.608,1.2,3.959-0.191l0.942-0.968c2.248-2.312-1.501-5.803-3.798-8.009c-2.057-1.973-4.433-5.928-5.69-8.113
	c-2.901-5.029-5.07-11.104-5.866-16.172c-0.903-5.756-1.27-10.488-0.537-16.248c0.307-2.419,0.792-5.682,1.561-8.079
	c0.482-1.509,0.887-2.643,1.41-4.12c0.462-1.31,1.41-2.944,1.625-4.12l0.54-0.553c0.356-1.941,3.938-6.883,5.581-9.094
	c2.246-3.031,6.805-6.075,3.725-9.07c-1.381-1.343-2.269-0.804-3.566-1.042c-3.151,3.243-5.3,5.491-7.922,8.991
	c-2.148,2.871-3.526,6.342-5.052,9.225c-2.808,5.298-4.299,13.006-4.979,18.374c-0.822,6.486,0.136,11.896,1.042,18.288
	c0.362,2.55,1.728,6.639,2.698,9.113c0.608,1.558,1.211,2.885,1.929,4.479c0.525,1.172,2.202,3.743,2.387,4.614
	c0.675,0.655,3.062,4.276,3.837,5.408C34.691,136.338,38.738,140.098,38.391,140.948L38.391,140.948z M117.278,107.816
	L117.278,107.816c0,1.815,1.604,5.028,2.689,5.76c11.198,0,22.396,0,33.595,0c6.392,0,10.559-0.167,14.399,2.49
	c2.56,1.766,6.714,6.07,6.714,10.176c0.229,0.347,0.383,0.338,0.383,0.77v26.681c0.716-0.191,11.536-11.345,13.074-12.842
	c2.205-2.141,4.309-4.452,6.506-6.547c1.961-1.872,4.798-4.484,4.798-8.252v-2.881c0-0.432-0.151-0.424-0.383-0.766v-0.96
	c-0.862-1.286-1.018-2.307-2.165-3.597c-0.924-1.038-1.973-1.982-2.97-2.979c-2.03-2.031-3.923-3.919-5.953-5.949
	c-3.979-3.981-7.821-7.825-11.805-11.806c-3.979-3.982-7.82-7.823-11.804-11.804c-2.552-2.552-10.449-11.062-14.535-11.062
	c-3.747,0-4.365,0.456-7.49,2.944c-4.073,3.25-8.814,8.867-10.95,10.749c-2.376,2.087-4.952,4.909-7.215,7.182
	c-1.191,1.202-2.359,2.319-3.548,3.556C117.856,101.556,117.278,104.075,117.278,107.816L117.278,107.816z M141.852,90.35
	L141.852,90.35c0,2.521,3.833,5.463,5.326,6.956c1.563,1.564,4.252,5.329,6.958,5.329c2.376,0,7.679-5.164,7.679-7.487v-0.96
	c0-1.701-4.163-5.217-5.327-6.38c-1.375-1.375-4.309-5.135-6.575-5.135h-0.188C147.023,82.671,141.852,87.742,141.852,90.35
	L141.852,90.35z"/>
</svg>
