<?xml version="1.0" encoding="utf-8"?>
<!DOCTYPE svg PUBLIC "-//W3C//DTD SVG 1.1//EN" "http://www.w3.org/Graphics/SVG/1.1/DTD/svg11.dtd">
<svg version="1.1" xmlns="http://www.w3.org/2000/svg" xmlns:xlink="http://www.w3.org/1999/xlink" x="0px" y="0px" width="216px" height="216px" viewBox="0 0 216 216" enable-background="new 0 0 216 216" xml:space="preserve">
<path id="_x33_" fill-rule="evenodd" clip-rule="evenodd" fill="#F58031" d="M93.094,127.776v32.825
	c0,0.896,0.385,0.603,0.385,1.921c0.903,1.347,1.042,2.429,2.348,3.796c0.938,0.98,3.388,2.409,3.603,2.73
	c1.374,0,1.534,0.573,3.07,0.573h59.123c2.026,0,4.549-2.063,5.709-3.116c1.151-1.046,3.12-3.968,3.12-5.904V127.59
	c0-1.925-1.859-5.042-2.93-6.1c-1.236-1.225-3.779-3.117-6.091-3.117h-59.699c-1.829,0-4.856,2.088-5.833,3.187
	C94.6,123.024,93.094,125.156,93.094,127.776L93.094,127.776z M96.358,138.145L96.358,138.145v21.114
	c0,3.63,3.635,7.101,7.295,7.101h56.049c4.7,0,7.487-3.772,7.487-8.635v-19.197c0-0.518-0.09-0.529-0.191-0.961H96.934
	C96.494,137.566,96.358,137.701,96.358,138.145L96.358,138.145z M96.742,126.629L96.742,126.629c0,0.937-0.56,1.726,0.385,1.726
	h68.911c0.517,0,0.528-0.09,0.96-0.191c-0.037-1.55-1.123-3.337-1.97-4.179c-0.688-0.684-2.868-2.348-3.983-2.348h-57.969
	c-1.642,0-2.916,0.871-3.892,1.672C97.503,124.692,97.788,125.063,96.742,126.629L96.742,126.629z M101.349,152.732L101.349,152.732
	c0,0.443,0.134,0.573,0.576,0.573h60.081v-6.331h-60.656V152.732L101.349,152.732z M90.175,54.264L90.175,54.264
	c3.721,0,6.738,3.017,6.738,6.738c0,2.267-1.121,4.272-2.84,5.493c-0.042-0.832-0.063-1.652-0.063-2.459
	c0-1.196-0.384-2.362-1.174-3.247c-0.11-1.375-1.259-2.456-2.661-2.456c-1.324,0-2.421,0.962-2.633,2.228
	c-0.673,0.806-0.946,1.939-0.921,3.048c0.024,1.06,0.079,2.136,0.163,3.214c-2-1.168-3.345-3.339-3.345-5.821
	C83.438,57.281,86.456,54.264,90.175,54.264L90.175,54.264z M119.842,54.264L119.842,54.264c3.72,0,6.734,3.017,6.734,6.738
	c0,2.513-1.375,4.704-3.418,5.861c0.077-0.94,0.126-1.875,0.154-2.801c0.037-1.125-0.199-2.338-0.81-3.243
	c-0.094-1.39-1.249-2.486-2.661-2.486c-1.351,0-2.466,0.999-2.645,2.299c-0.862,0.917-1.262,2.152-1.262,3.404
	c0,0.791-0.016,1.597-0.061,2.413c-1.681-1.225-2.771-3.208-2.771-5.446C113.104,57.281,116.119,54.264,119.842,54.264
	L119.842,54.264z M121.975,64.023L121.975,64.023c-0.493,16.375-7.919,29.38-17.003,29.38c-9.163,0-16.642-13.241-17.013-29.824
	c-0.093-4.248,4.712-3.31,4.712,0.456c0,13.383,5.508,24.235,12.301,24.235s12.303-10.852,12.303-24.235
	C117.274,60.127,122.121,59.226,121.975,64.023L121.975,64.023z M84.72,48.95L84.72,48.95h40.746c3.088,0,5.347,2.539,5.615,5.613
	l2.083,23.877c-0.92,0.944-1.823,1.9-2.73,2.854c-0.822,0.867-1.701,1.839-2.592,2.625c-2.637,2.317-5.001,4.939-7.475,7.43
	c-1.2,1.208-2.43,2.389-3.609,3.62c-4.073,4.236-4.834,7.359-4.834,12.848c0,1.542,0.635,3.701,1.424,5.471l-14.262,0.167H80.067
	c-3.084,0-5.88-2.537-5.613-5.614l4.653-53.278C79.375,51.486,81.634,48.95,84.72,48.95L84.72,48.95z"/>
<path id="_x32_" fill-rule="evenodd" clip-rule="evenodd" fill="#999557" d="M16.119-0.08h183.602
	c8.911,0,16.199,7.29,16.199,16.199v183.602c0,8.907-7.288,16.199-16.199,16.199H16.119c-8.909,0-16.199-7.292-16.199-16.199V16.119
	C-0.08,7.209,7.209-0.08,16.119-0.08L16.119-0.08z M16.119,4.918h183.602c6.161,0,11.198,5.04,11.198,11.2v183.602
	c0,6.161-5.037,11.198-11.198,11.198H16.119c-6.161,0-11.2-5.037-11.2-11.198V16.119C4.918,9.958,9.958,4.918,16.119,4.918
	L16.119,4.918z M64.648,195.563h84.288c1.241-0.785,2.824-0.932,4.505-2.156c1.46-1.07,2.352-2.039,3.597-3.296
	c1.155-1.164,1.807-2.523,2.543-4.114c0.395-0.851,1.53-4.391,1.53-5.363v-5.651h-8.041v2.209c0,0.704-0.667,0.92-1.375,0.92H62.121
	c-0.792,0-0.889-0.171-1.607-0.231v-44.503c-0.303,0.488-0.665,0.943-1.076,1.367l-1.21,1.245c-1.43,1.473-3.601,2.115-5.751,2.021
	v42.168c0,3.157,2.124,7.751,3.617,9.473c1.066,1.232,1.929,2.218,3.23,3.198c1.481,1.115,2.775,1.546,4.179,2.458L64.648,195.563
	L64.648,195.563z M60.514,68.963L60.514,68.963V38.008c0-0.529,0.161-0.689,0.689-0.689h91.179c0.529,0,0.688,0.161,0.688,0.689
	v31.5c2.719,0.968,5.489,2.968,8.041,5.188V35.481c0-3.847-2.877-8.982-4.879-10.968c-1.66-1.652-2.393-2.128-4.492-3.318
	c-0.911-0.519-4.851-2.021-6.019-2.021H67.862c-3.408,0-9.015,3.357-10.569,5.278c-2.083,2.58-4.817,6.396-4.817,11.029v26.55
	c1.918,0.088,3.771,0.714,5.009,1.919l0.83,0.806C59.462,65.871,60.2,67.366,60.514,68.963L60.514,68.963z"/>
<path id="_x31_" fill-rule="evenodd" clip-rule="evenodd" fill="#7E5628" d="M63.677,122.698l1.076-1.106
	c0.936-0.96,0.346-2.156,0.434-2.958l-5.072-6.403c-0.168-0.793-1.462-3.143-1.837-4.209c-0.563-1.605-0.885-2.752-1.156-4.354
	c-0.436-2.603-0.37-5.921,0.128-8.606c0.586-3.162,1.363-5.485,3.401-8.655c0.356-0.553,0.533-1.28,1.243-2.067
	c0.608-0.671,1.652-1.538,2.157-2.216c0.832-1.108,1.009-3.342-0.051-4.37l-0.556-0.539c-3.872-3.764-9.255,6.401-10.685,9.167
	c-1.978,3.827-2.916,9.597-2.861,13.426c0.061,4.395,0.92,8.974,3.04,13.344C54.144,115.635,60.313,126.157,63.677,122.698
	L63.677,122.698z M42.484,121.222L42.484,121.222c0.204,0.956,4.197,6.774,5.302,7.845l3.046,2.967
	c0.761,0.74,2.954,0.838,3.554,0.224l1.212-1.249c2.354-2.422-1.841-5.273-3.631-7.735c-2.36-3.247-3.196-4.635-4.781-7.719
	c-1.925-3.742-3.802-11.786-3.55-15.52c0.332-4.899,0.708-10.799,3.164-15.617c1.086-2.128,2.755-5.894,4.626-7.853
	c0.912-0.952,2.244-2.692,3.359-4.008c0.826-0.977,0.677-3.105-0.202-3.958l-0.832-0.81c-0.625-0.606-3.268-0.517-3.959,0.193
	l-1.211,1.247c-7.139,7.341-11.186,18.833-11.604,26.117c-0.224,3.912-0.421,9.11,0.688,12.968
	C38.429,110.979,40.187,118.987,42.484,121.222L42.484,121.222z M38.391,140.948L38.391,140.948l1.938,1.884
	c0.7-0.338,2.608,1.2,3.959-0.191l0.942-0.968c2.248-2.312-1.501-5.803-3.798-8.009c-2.057-1.973-4.433-5.928-5.69-8.113
	c-2.901-5.029-5.07-11.104-5.866-16.172c-0.903-5.756-1.27-10.488-0.537-16.248c0.307-2.419,0.792-5.682,1.561-8.079
	c0.482-1.509,0.887-2.643,1.41-4.12c0.462-1.31,1.41-2.944,1.625-4.12l0.54-0.553c0.356-1.941,3.938-6.883,5.581-9.094
	c2.246-3.031,6.805-6.075,3.725-9.07c-1.381-1.343-2.269-0.804-3.566-1.042c-3.151,3.243-5.3,5.491-7.922,8.991
	c-2.148,2.871-3.526,6.342-5.052,9.225c-2.808,5.298-4.299,13.006-4.979,18.374c-0.822,6.486,0.136,11.896,1.042,18.288
	c0.362,2.55,1.728,6.639,2.698,9.113c0.608,1.558,1.211,2.885,1.929,4.479c0.525,1.172,2.202,3.743,2.387,4.614
	c0.675,0.655,3.062,4.276,3.837,5.408C34.691,136.338,38.738,140.098,38.391,140.948L38.391,140.948z M117.278,107.816
	L117.278,107.816c0,1.815,1.604,5.028,2.689,5.76c11.198,0,22.396,0,33.595,0c6.392,0,10.559-0.167,14.399,2.49
	c2.56,1.766,6.714,6.07,6.714,10.176c0.229,0.347,0.383,0.338,0.383,0.77v26.681c0.716-0.191,11.536-11.345,13.074-12.842
	c2.205-2.141,4.309-4.452,6.506-6.547c1.961-1.872,4.798-4.484,4.798-8.252v-2.881c0-0.432-0.151-0.424-0.383-0.766v-0.96
	c-0.862-1.286-1.018-2.307-2.165-3.597c-0.924-1.038-1.973-1.982-2.97-2.979c-2.03-2.031-3.923-3.919-5.953-5.949
	c-3.979-3.981-7.821-7.825-11.805-11.806c-3.979-3.982-7.82-7.823-11.804-11.804c-2.552-2.552-10.449-11.062-14.535-11.062
	c-3.747,0-4.365,0.456-7.49,2.944c-4.073,3.25-8.814,8.867-10.95,10.749c-2.376,2.087-4.952,4.909-7.215,7.182
	c-1.191,1.202-2.359,2.319-3.548,3.556C117.856,101.556,117.278,104.075,117.278,107.816L117.278,107.816z M141.852,90.35
	L141.852,90.35c0,2.521,3.833,5.463,5.326,6.956c1.563,1.564,4.252,5.329,6.958,5.329c2.376,0,7.679-5.164,7.679-7.487v-0.96
	c0-1.701-4.163-5.217-5.327-6.38c-1.375-1.375-4.309-5.135-6.575-5.135h-0.188C147.023,82.671,141.852,87.742,141.852,90.35
	L141.852,90.35z"/>
</svg>
