<?xml version="1.0" encoding="utf-8"?>
<!DOCTYPE svg PUBLIC "-//W3C//DTD SVG 1.1//EN" "http://www.w3.org/Graphics/SVG/1.1/DTD/svg11.dtd">
<svg version="1.1" xmlns="http://www.w3.org/2000/svg" xmlns:xlink="http://www.w3.org/1999/xlink" x="0px" y="0px" width="216px" height="216px" viewBox="0 0 216 216" enable-background="new 0 0 216 216" xml:space="preserve">
<path fill-rule="evenodd" clip-rule="evenodd" d="M16.119-0.08h183.602
	c8.911,0,16.199,7.29,16.199,16.199v183.602c0,8.907-7.288,16.199-16.199,16.199H16.119c-8.909,0-16.199-7.292-16.199-16.199V16.119
	C-0.08,7.209,7.209-0.08,16.119-0.08L16.119-0.08z M16.119,4.918h183.602c6.161,0,11.198,5.04,11.198,11.2v183.602
	c0,6.161-5.037,11.198-11.198,11.198H16.119c-6.161,0-11.2-5.037-11.2-11.198V16.119C4.918,9.958,9.958,4.918,16.119,4.918
	L16.119,4.918z M64.648,195.563h84.288c1.241-0.785,2.824-0.932,4.505-2.156c1.46-1.07,2.352-2.039,3.597-3.296
	c1.155-1.164,1.807-2.523,2.543-4.114c0.395-0.851,1.53-4.391,1.53-5.363v-5.651h-8.041v2.209c0,0.704-0.667,0.92-1.375,0.92H62.121
	c-0.792,0-0.889-0.171-1.607-0.231v-44.503c-0.303,0.488-0.665,0.943-1.076,1.367l-1.21,1.245c-1.43,1.473-3.601,2.115-5.751,2.021
	v42.168c0,3.157,2.124,7.751,3.617,9.473c1.066,1.232,1.929,2.218,3.23,3.198c1.481,1.115,2.775,1.546,4.179,2.458L64.648,195.563
	L64.648,195.563z M60.514,68.963L60.514,68.963V38.008c0-0.529,0.161-0.689,0.689-0.689h91.179c0.529,0,0.688,0.161,0.688,0.689
	v31.5c2.719,0.968,5.489,2.968,8.041,5.188V35.481c0-3.847-2.877-8.982-4.879-10.968c-1.66-1.652-2.393-2.128-4.492-3.318
	c-0.911-0.519-4.851-2.021-6.019-2.021H67.862c-3.408,0-9.015,3.357-10.569,5.278c-2.083,2.58-4.817,6.396-4.817,11.029v26.55
	c1.918,0.088,3.771,0.714,5.009,1.919l0.83,0.806C59.462,65.871,60.2,67.366,60.514,68.963L60.514,68.963z"/>
</svg>
