<?xml version="1.0" encoding="utf-8"?>
<!DOCTYPE svg PUBLIC "-//W3C//DTD SVG 1.1//EN" "http://www.w3.org/Graphics/SVG/1.1/DTD/svg11.dtd">
<svg version="1.1" xmlns="http://www.w3.org/2000/svg" xmlns:xlink="http://www.w3.org/1999/xlink" x="0px" y="0px" width="216px" height="216px" viewBox="0 0 216 216" enable-background="new 0 0 216 216" xml:space="preserve">
<path fill-rule="evenodd" clip-rule="evenodd" d="M93.094,127.776v32.825
	c0,0.896,0.385,0.603,0.385,1.921c0.903,1.347,1.042,2.429,2.348,3.796c0.938,0.98,3.388,2.409,3.603,2.73
	c1.374,0,1.534,0.573,3.07,0.573h59.123c2.026,0,4.549-2.063,5.709-3.116c1.151-1.046,3.12-3.968,3.12-5.904V127.59
	c0-1.925-1.859-5.042-2.93-6.1c-1.236-1.225-3.779-3.117-6.091-3.117h-59.699c-1.829,0-4.856,2.088-5.833,3.187
	C94.6,123.024,93.094,125.156,93.094,127.776L93.094,127.776z M96.358,138.145L96.358,138.145v21.114
	c0,3.63,3.635,7.101,7.295,7.101h56.049c4.7,0,7.487-3.772,7.487-8.635v-19.197c0-0.518-0.09-0.529-0.191-0.961H96.934
	C96.494,137.566,96.358,137.701,96.358,138.145L96.358,138.145z M96.742,126.629L96.742,126.629c0,0.937-0.56,1.726,0.385,1.726
	h68.911c0.517,0,0.528-0.09,0.96-0.191c-0.037-1.55-1.123-3.337-1.97-4.179c-0.688-0.684-2.868-2.348-3.983-2.348h-57.969
	c-1.642,0-2.916,0.871-3.892,1.672C97.503,124.692,97.788,125.063,96.742,126.629L96.742,126.629z M101.349,152.732L101.349,152.732
	c0,0.443,0.134,0.573,0.576,0.573h60.081v-6.331h-60.656V152.732L101.349,152.732z M90.175,54.264L90.175,54.264
	c3.721,0,6.738,3.017,6.738,6.738c0,2.267-1.121,4.272-2.84,5.493c-0.042-0.832-0.063-1.652-0.063-2.459
	c0-1.196-0.384-2.362-1.174-3.247c-0.11-1.375-1.259-2.456-2.661-2.456c-1.324,0-2.421,0.962-2.633,2.228
	c-0.673,0.806-0.946,1.939-0.921,3.048c0.024,1.06,0.079,2.136,0.163,3.214c-2-1.168-3.345-3.339-3.345-5.821
	C83.438,57.281,86.456,54.264,90.175,54.264L90.175,54.264z M119.842,54.264L119.842,54.264c3.72,0,6.734,3.017,6.734,6.738
	c0,2.513-1.375,4.704-3.418,5.861c0.077-0.94,0.126-1.875,0.154-2.801c0.037-1.125-0.199-2.338-0.81-3.243
	c-0.094-1.39-1.249-2.486-2.661-2.486c-1.351,0-2.466,0.999-2.645,2.299c-0.862,0.917-1.262,2.152-1.262,3.404
	c0,0.791-0.016,1.597-0.061,2.413c-1.681-1.225-2.771-3.208-2.771-5.446C113.104,57.281,116.119,54.264,119.842,54.264
	L119.842,54.264z M121.975,64.023L121.975,64.023c-0.493,16.375-7.919,29.38-17.003,29.38c-9.163,0-16.642-13.241-17.013-29.824
	c-0.093-4.248,4.712-3.31,4.712,0.456c0,13.383,5.508,24.235,12.301,24.235s12.303-10.852,12.303-24.235
	C117.274,60.127,122.121,59.226,121.975,64.023L121.975,64.023z M84.72,48.95L84.72,48.95h40.746c3.088,0,5.347,2.539,5.615,5.613
	l2.083,23.877c-0.92,0.944-1.823,1.9-2.73,2.854c-0.822,0.867-1.701,1.839-2.592,2.625c-2.637,2.317-5.001,4.939-7.475,7.43
	c-1.2,1.208-2.43,2.389-3.609,3.62c-4.073,4.236-4.834,7.359-4.834,12.848c0,1.542,0.635,3.701,1.424,5.471l-14.262,0.167H80.067
	c-3.084,0-5.88-2.537-5.613-5.614l4.653-53.278C79.375,51.486,81.634,48.95,84.72,48.95L84.72,48.95z"/>
</svg>
