<?xml version="1.0" encoding="utf-8"?>
<!DOCTYPE svg PUBLIC "-//W3C//DTD SVG 1.1//EN" "http://www.w3.org/Graphics/SVG/1.1/DTD/svg11.dtd">
<svg version="1.1" xmlns="http://www.w3.org/2000/svg" xmlns:xlink="http://www.w3.org/1999/xlink" x="0px" y="0px" width="216px" height="216px" viewBox="0 0 216 216" enable-background="new 0 0 216 216" xml:space="preserve">
<path d="M51.899,30.446v17.053h2.364c2.021,0,3.453-0.216,4.303-0.667
	c0.851-0.443,1.522-1.229,2.008-2.342c0.478-1.111,0.718-2.923,0.718-5.422c0-3.308-0.537-5.568-1.613-6.791
	c-1.084-1.219-2.871-1.831-5.373-1.831H51.899L51.899,30.446z M42.254,23.372L42.254,23.372h14.337c2.82,0,5.101,0.387,6.846,1.149
	c1.737,0.771,3.178,1.868,4.311,3.302c1.133,1.438,1.955,3.103,2.472,5.007c0.509,1.904,0.761,3.918,0.761,6.049
	c0,3.336-0.376,5.926-1.14,7.764c-0.755,1.839-1.811,3.379-3.162,4.616c-1.347,1.243-2.791,2.071-4.341,2.486
	c-2.114,0.565-4.033,0.85-5.748,0.85H42.254V23.372L42.254,23.372z M140.732,23.372L140.732,23.372h10.718l6.299,10.543
	l6.303-10.543h10.653l-12.143,18.146v13.078h-9.668V41.518L140.732,23.372L140.732,23.372z M110.194,23.372L110.194,23.372h29.325
	v7.715h-9.843v23.509h-9.647V31.086h-9.835V23.372L110.194,23.372z M96.368,23.372L96.368,23.372h9.634v18.62
	c0,1.845-0.291,3.583-0.867,5.225c-0.574,1.636-1.475,3.076-2.704,4.305c-1.229,1.227-2.515,2.085-3.868,2.586
	c-1.874,0.692-4.12,1.042-6.752,1.042c-1.52,0-3.178-0.102-4.972-0.321c-1.794-0.211-3.292-0.631-4.5-1.266
	c-1.207-0.63-2.311-1.532-3.314-2.695c-1.003-1.164-1.687-2.362-2.057-3.599c-0.596-1.984-0.895-3.744-0.895-5.275v-18.62h9.633
	v19.062c0,1.709,0.472,3.04,1.41,3.992c0.944,0.96,2.252,1.438,3.933,1.438c1.656,0,2.966-0.472,3.91-1.416
	c0.938-0.938,1.41-2.285,1.41-4.014V23.372L96.368,23.372z M181.272,160.833L181.272,160.833v-21.704h-24.569v21.704H181.272
	L181.272,160.833z M142.986,160.833L142.986,160.833v-21.704h-30.078v21.704H142.986L142.986,160.833z M71.252,160.833
	L71.252,160.833v-21.704h30.078v21.704H71.252L71.252,160.833z M32.966,160.833L32.966,160.833v-21.704h24.567v21.704H32.966
	L32.966,160.833z"/>
</svg>
