<?xml version="1.0" encoding="utf-8"?>
<!DOCTYPE svg PUBLIC "-//W3C//DTD SVG 1.1//EN" "http://www.w3.org/Graphics/SVG/1.1/DTD/svg11.dtd">
<svg version="1.1" xmlns="http://www.w3.org/2000/svg" xmlns:xlink="http://www.w3.org/1999/xlink" x="0px" y="0px" width="216px" height="216px" viewBox="0 0 216 216" enable-background="new 0 0 216 216" xml:space="preserve">
<path d="M187.225,129.172h-30.521v-20.359h30.521c2.267,0.966,4.371,1.227,4.371,3.705v12.952
	C191.596,127.947,189.491,128.208,187.225,129.172L187.225,129.172z M142.986,129.172L142.986,129.172h-30.078v-20.359h30.078
	V129.172L142.986,129.172z M71.252,129.172L71.252,129.172h30.078v-20.359H71.252V129.172L71.252,129.172z M27.016,129.172
	L27.016,129.172h30.518v-20.359H27.016c-2.267,0.966-4.373,1.227-4.373,3.705v12.952C22.643,127.947,24.749,128.208,27.016,129.172
	L27.016,129.172z"/>
</svg>
