<?xml version="1.0" encoding="utf-8"?>
<!DOCTYPE svg PUBLIC "-//W3C//DTD SVG 1.1//EN" "http://www.w3.org/Graphics/SVG/1.1/DTD/svg11.dtd">
<svg version="1.1" xmlns="http://www.w3.org/2000/svg" xmlns:xlink="http://www.w3.org/1999/xlink" x="0px" y="0px" width="216px" height="216px" viewBox="0 0 216 216" enable-background="new 0 0 216 216" xml:space="preserve">
<path fill-rule="evenodd" clip-rule="evenodd" d="M16.119-0.08h183.602
	c8.911,0,16.199,7.29,16.199,16.199v183.602c0,8.907-7.288,16.199-16.199,16.199H16.119c-8.909,0-16.199-7.292-16.199-16.199V16.119
	C-0.08,7.209,7.209-0.08,16.119-0.08L16.119-0.08z M16.119,4.918h183.602c6.161,0,11.198,5.04,11.198,11.2v183.602
	c0,6.161-5.037,11.198-11.198,11.198H16.119c-6.161,0-11.2-5.037-11.2-11.198V16.119C4.918,9.958,9.958,4.918,16.119,4.918
	L16.119,4.918z M148.74,60.107h25.847v6.667h-16.179v4.964h15.011v6.368h-15.011v6.148h16.65v7.076H148.74V60.107L148.74,60.107z
	 M113.449,60.107L113.449,60.107h25.855v6.667h-16.183v4.964h15.011v6.368h-15.011v6.148h16.654v7.076h-26.327V60.107
	L113.449,60.107z M85.573,72.755L85.573,72.755h4.073c0.435,0,1.288-0.136,2.551-0.419c0.639-0.132,1.164-0.46,1.57-0.985
	c0.399-0.521,0.603-1.127,0.603-1.809c0-1.011-0.317-1.78-0.958-2.319c-0.641-0.545-1.841-0.814-3.599-0.814h-4.24V72.755
	L85.573,72.755z M75.884,91.331L75.884,91.331V60.107h16.081c2.979,0,5.261,0.254,6.832,0.771c1.579,0.509,2.851,1.453,3.817,2.842
	c0.968,1.381,1.449,3.068,1.449,5.052c0,1.737-0.373,3.229-1.107,4.486c-0.741,1.257-1.758,2.274-3.045,3.062
	c-0.828,0.492-1.956,0.907-3.388,1.227c1.147,0.384,1.984,0.771,2.515,1.155c0.348,0.254,0.867,0.8,1.542,1.636
	c0.676,0.844,1.125,1.483,1.351,1.943l4.667,9.05H95.692l-5.153-9.546c-0.653-1.229-1.235-2.035-1.75-2.407
	c-0.693-0.479-1.483-0.718-2.364-0.718h-0.853v12.671H75.884L75.884,91.331z M42.917,60.107L42.917,60.107h23.859v6.709H52.609
	v5.453h12.093v6.303H52.609v12.758h-9.692V60.107L42.917,60.107z M156.703,194.582L156.703,194.582h14.979
	c5.273,0,9.591-2.922,9.591-6.498v-16.46h-24.569V194.582L156.703,194.582z M112.908,194.582L112.908,194.582h30.078v-22.958
	h-30.078V194.582L112.908,194.582z M101.33,194.582L101.33,194.582H71.252v-22.958h30.078V194.582L101.33,194.582z M57.533,194.582
	L57.533,194.582H42.559c-5.275,0-9.593-2.922-9.593-6.498v-16.46h24.567V194.582L57.533,194.582z"/>
</svg>
