<?xml version="1.0" encoding="utf-8"?>
<!DOCTYPE svg PUBLIC "-//W3C//DTD SVG 1.1//EN" "http://www.w3.org/Graphics/SVG/1.1/DTD/svg11.dtd">
<svg version="1.1" xmlns="http://www.w3.org/2000/svg" xmlns:xlink="http://www.w3.org/1999/xlink" x="0px" y="0px" width="216px" height="216px" viewBox="0 0 216 216" enable-background="new 0 0 216 216" xml:space="preserve">
<path id="_x33_" fill="#F58031" d="M187.225,129.172h-30.521v-20.359h30.521c2.267,0.966,4.371,1.227,4.371,3.705v12.952
	C191.596,127.947,189.491,128.208,187.225,129.172L187.225,129.172z M142.986,129.172L142.986,129.172h-30.078v-20.359h30.078
	V129.172L142.986,129.172z M71.252,129.172L71.252,129.172h30.078v-20.359H71.252V129.172L71.252,129.172z M27.016,129.172
	L27.016,129.172h30.518v-20.359H27.016c-2.267,0.966-4.373,1.227-4.373,3.705v12.952C22.643,127.947,24.749,128.208,27.016,129.172
	L27.016,129.172z"/>
<path id="_x32_" fill-rule="evenodd" clip-rule="evenodd" fill="#999557" d="M16.119-0.08h183.602
	c8.911,0,16.199,7.29,16.199,16.199v183.602c0,8.907-7.288,16.199-16.199,16.199H16.119c-8.909,0-16.199-7.292-16.199-16.199V16.119
	C-0.08,7.209,7.209-0.08,16.119-0.08L16.119-0.08z M16.119,4.918h183.602c6.161,0,11.198,5.04,11.198,11.2v183.602
	c0,6.161-5.037,11.198-11.198,11.198H16.119c-6.161,0-11.2-5.037-11.2-11.198V16.119C4.918,9.958,9.958,4.918,16.119,4.918
	L16.119,4.918z M148.74,60.107h25.847v6.667h-16.179v4.964h15.011v6.368h-15.011v6.148h16.65v7.076H148.74V60.107L148.74,60.107z
	 M113.449,60.107L113.449,60.107h25.855v6.667h-16.183v4.964h15.011v6.368h-15.011v6.148h16.654v7.076h-26.327V60.107
	L113.449,60.107z M85.573,72.755L85.573,72.755h4.073c0.435,0,1.288-0.136,2.551-0.419c0.639-0.132,1.164-0.46,1.57-0.985
	c0.399-0.521,0.603-1.127,0.603-1.809c0-1.011-0.317-1.78-0.958-2.319c-0.641-0.545-1.841-0.814-3.599-0.814h-4.24V72.755
	L85.573,72.755z M75.884,91.331L75.884,91.331V60.107h16.081c2.979,0,5.261,0.254,6.832,0.771c1.579,0.509,2.851,1.453,3.817,2.842
	c0.968,1.381,1.449,3.068,1.449,5.052c0,1.737-0.373,3.229-1.107,4.486c-0.741,1.257-1.758,2.274-3.045,3.062
	c-0.828,0.492-1.956,0.907-3.388,1.227c1.147,0.384,1.984,0.771,2.515,1.155c0.348,0.254,0.867,0.8,1.542,1.636
	c0.676,0.844,1.125,1.483,1.351,1.943l4.667,9.05H95.692l-5.153-9.546c-0.653-1.229-1.235-2.035-1.75-2.407
	c-0.693-0.479-1.483-0.718-2.364-0.718h-0.853v12.671H75.884L75.884,91.331z M42.917,60.107L42.917,60.107h23.859v6.709H52.609
	v5.453h12.093v6.303H52.609v12.758h-9.692V60.107L42.917,60.107z M156.703,194.582L156.703,194.582h14.979
	c5.273,0,9.591-2.922,9.591-6.498v-16.46h-24.569V194.582L156.703,194.582z M112.908,194.582L112.908,194.582h30.078v-22.958
	h-30.078V194.582L112.908,194.582z M101.33,194.582L101.33,194.582H71.252v-22.958h30.078V194.582L101.33,194.582z M57.533,194.582
	L57.533,194.582H42.559c-5.275,0-9.593-2.922-9.593-6.498v-16.46h24.567V194.582L57.533,194.582z"/>
<path id="_x31_" fill="#7E5628" d="M51.899,30.446v17.053h2.364c2.021,0,3.453-0.216,4.303-0.667
	c0.851-0.443,1.522-1.229,2.008-2.342c0.478-1.111,0.718-2.923,0.718-5.422c0-3.308-0.537-5.568-1.613-6.791
	c-1.084-1.219-2.871-1.831-5.373-1.831H51.899L51.899,30.446z M42.254,23.372L42.254,23.372h14.337c2.82,0,5.101,0.387,6.846,1.149
	c1.737,0.771,3.178,1.868,4.311,3.302c1.133,1.438,1.955,3.103,2.472,5.007c0.509,1.904,0.761,3.918,0.761,6.049
	c0,3.336-0.376,5.926-1.14,7.764c-0.755,1.839-1.811,3.379-3.162,4.616c-1.347,1.243-2.791,2.071-4.341,2.486
	c-2.114,0.565-4.033,0.85-5.748,0.85H42.254V23.372L42.254,23.372z M140.732,23.372L140.732,23.372h10.718l6.299,10.543
	l6.303-10.543h10.653l-12.143,18.146v13.078h-9.668V41.518L140.732,23.372L140.732,23.372z M110.194,23.372L110.194,23.372h29.325
	v7.715h-9.843v23.509h-9.647V31.086h-9.835V23.372L110.194,23.372z M96.368,23.372L96.368,23.372h9.634v18.62
	c0,1.845-0.291,3.583-0.867,5.225c-0.574,1.636-1.475,3.076-2.704,4.305c-1.229,1.227-2.515,2.085-3.868,2.586
	c-1.874,0.692-4.12,1.042-6.752,1.042c-1.52,0-3.178-0.102-4.972-0.321c-1.794-0.211-3.292-0.631-4.5-1.266
	c-1.207-0.63-2.311-1.532-3.314-2.695c-1.003-1.164-1.687-2.362-2.057-3.599c-0.596-1.984-0.895-3.744-0.895-5.275v-18.62h9.633
	v19.062c0,1.709,0.472,3.04,1.41,3.992c0.944,0.96,2.252,1.438,3.933,1.438c1.656,0,2.966-0.472,3.91-1.416
	c0.938-0.938,1.41-2.285,1.41-4.014V23.372L96.368,23.372z M181.272,160.833L181.272,160.833v-21.704h-24.569v21.704H181.272
	L181.272,160.833z M142.986,160.833L142.986,160.833v-21.704h-30.078v21.704H142.986L142.986,160.833z M71.252,160.833
	L71.252,160.833v-21.704h30.078v21.704H71.252L71.252,160.833z M32.966,160.833L32.966,160.833v-21.704h24.567v21.704H32.966
	L32.966,160.833z"/>
</svg>
