<?xml version="1.0" encoding="utf-8"?>
<!DOCTYPE svg PUBLIC "-//W3C//DTD SVG 1.1//EN" "http://www.w3.org/Graphics/SVG/1.1/DTD/svg11.dtd">
<svg version="1.1" xmlns="http://www.w3.org/2000/svg" xmlns:xlink="http://www.w3.org/1999/xlink" x="0px" y="0px" width="216px" height="216px" viewBox="0 0 216 216" enable-background="new 0 0 216 216" xml:space="preserve">
<path fill-rule="evenodd" clip-rule="evenodd" d="M142.189,63.36c3.463-9.613,6.872-19.254,7.564-30.257
	h31.16c0.057,16.681,8.887,30.172,13.33,45.258c1.831,6.22,1.848,7.544,1.848,14.679v5.176h-32.357
	c-3.516,0-6.393,2.875-6.393,6.392v61.117c0,3.516,2.877,6.388,6.393,6.388h32.357v12.395v1.99c0,3.516-2.877,6.393-6.393,6.393
	c-12.667,0-25.338,0-38.005,0c-2.043,0-2.453,0.455-0.928-1.091c6.49-6.576,6.531-18.229,0.956-27.197l-0.021-0.11L143.3,68.239
	C143.153,66.542,142.771,64.9,142.189,63.36L142.189,63.36z M120.64,51.078L120.64,51.078c-3.435-17.098-18.25-29.96-35.999-29.96
	c-17.747,0-32.563,12.862-35.999,29.96h9.036c3.255-12.093,14.097-20.98,26.963-20.98c12.868,0,23.71,8.887,26.963,20.98H120.64
	L120.64,51.078z"/>
</svg>
