<?xml version="1.0" encoding="utf-8"?>
<!DOCTYPE svg PUBLIC "-//W3C//DTD SVG 1.1//EN" "http://www.w3.org/Graphics/SVG/1.1/DTD/svg11.dtd">
<svg version="1.1" xmlns="http://www.w3.org/2000/svg" xmlns:xlink="http://www.w3.org/1999/xlink" x="0px" y="0px" width="216px" height="216px" viewBox="0 0 216 216" enable-background="new 0 0 216 216" xml:space="preserve">
<path fill-rule="evenodd" clip-rule="evenodd" d="M147.356,20.719h34.754
	c0.879,0,1.599,0.718,1.599,1.597v4.795c0,0.879-0.72,1.597-1.599,1.597h-34.754c-0.879,0-1.595-0.718-1.595-1.597v-4.795
	C145.762,21.437,146.478,20.719,147.356,20.719L147.356,20.719z M196.092,104.357L196.092,104.357v21.022v40.593h-32.357
	c-0.134,0-0.248-0.11-0.248-0.248v-61.119c0-0.136,0.114-0.248,0.248-0.248H196.092L196.092,104.357z M19.229,174.786
	L19.229,174.786c-0.999,5.074,1.036,10.909,4.871,14.368c2.14,1.933,5.687,3.833,9.688,3.833h104.007
	c16.101,0,16.829-17.237,10.185-27.353c-1.99-3.035-3.442-5.033-5.835-7.683c-4.932-5.456-8.65-7.942-14.75-12.027
	c-3.032,2.03-7.365,8.573-9.359,11.963c-2.307,3.931-2.774,13.83-9.076,11.148c-5.302-2.258-0.393-11.454,1.272-14.795
	c1.261-2.522,2.502-4.305,4.053-6.604c1.525-2.259,3.405-3.805,4.789-5.872l-13.458-4.618c-3.802,2.698-7.308,3.983-10.791,7.149
	c-3.365,3.056-5.672,5.249-8.409,9.013c-2.462,3.382-4.403,7.471-5.615,12.064c-1.636,6.218-8.789,4.565-8.789-0.207v-0.261
	c0-4.431,5.534-14.107,7.692-17.008c1.967-2.646,3.473-4.432,5.764-6.719c0.946-0.947,6.148-5.334,6.303-5.916H80.588
	c-6.657,0-20.242,11.279-23.556,15.706c-2.792,3.724-5.528,7.544-6.917,12.582c-0.726,2.628-1.235,5.172-4.126,5.773
	c-2.458,0.513-5.182-1.44-5.182-3.902c0-3.369,3.603-11.409,5.094-13.623c1.186-1.758,2.435-4.105,3.811-5.554
	c0.617-0.647,3.961-4.492,4.098-5.001c-2.12,0.492-9.507,4.529-11.394,5.77c-3.76,2.471-6.172,4.912-9.513,7.386
	C27.825,158.16,20.525,168.174,19.229,174.786L19.229,174.786z"/>
</svg>
