<?xml version="1.0" encoding="utf-8"?>
<!DOCTYPE svg PUBLIC "-//W3C//DTD SVG 1.1//EN" "http://www.w3.org/Graphics/SVG/1.1/DTD/svg11.dtd">
<svg version="1.1" xmlns="http://www.w3.org/2000/svg" xmlns:xlink="http://www.w3.org/1999/xlink" x="0px" y="0px" width="216px" height="216px" viewBox="0 0 216 216" enable-background="new 0 0 216 216" xml:space="preserve">
<path fill-rule="evenodd" clip-rule="evenodd" d="M16.119,4.918h183.602c6.161,0,11.198,5.04,11.198,11.2
	v183.602c0,6.161-5.037,11.198-11.198,11.198H16.119c-6.161,0-11.2-5.037-11.2-11.198V16.119C4.918,9.958,9.958,4.918,16.119,4.918
	L16.119,4.918z M16.119-0.08h183.602c8.911,0,16.199,7.29,16.199,16.199v183.602c0,8.907-7.288,16.199-16.199,16.199H16.119
	c-8.909,0-16.199-7.292-16.199-16.199V16.119C-0.08,7.209,7.209-0.08,16.119-0.08L16.119-0.08z M41.46,56.67h86.28
	c6.539,0,11.32,5.375,11.89,11.89l7.446,85.287l-0.175-0.191c-10.592-11.723-23.043-16.007-37.207-21.887
	c6.168-11.142,10.147-26.316,10.656-43.181c0.306-10.156-9.953-8.248-9.953,0.031c0,14.272-2.744,25.153-7.222,34.605
	c-2.181,4.598-9.43,6.16-13.705,6.144l-8.882-0.517c-20.978,0-22.294-17.272-22.294-40.232c0-7.978-10.179-9.961-9.977-0.967
	c0.403,18.005,4.763,34.143,11.527,45.602c-12.671,2.954-20.276,8.231-30.755,15.995c-2.334,1.726-4.849,4.28-7.192,7.214
	l7.674-87.903C30.141,62.046,34.921,56.67,41.46,56.67L41.46,56.67z M53.008,67.925L53.008,67.925
	c7.877,0,14.268,6.389,14.268,14.266c0,4.801-2.374,9.049-6.012,11.635c-0.094-1.76-0.137-3.499-0.137-5.208
	c0-2.533-0.81-5.003-2.484-6.879c-0.232-2.909-2.666-5.2-5.636-5.2c-2.801,0-5.129,2.041-5.575,4.716
	c-1.424,1.711-2.002,4.11-1.949,6.46c0.049,2.244,0.161,4.517,0.342,6.803c-4.238-2.472-7.084-7.07-7.084-12.327
	C38.742,74.314,45.131,67.925,53.008,67.925L53.008,67.925z M115.826,67.925L115.826,67.925c7.882,0,14.27,6.389,14.27,14.266
	c0,5.322-2.917,9.963-7.238,12.415c0.158-1.992,0.265-3.971,0.325-5.933c0.069-2.384-0.419-4.952-1.717-6.867
	c-0.199-2.941-2.649-5.267-5.64-5.267c-2.853,0-5.217,2.118-5.598,4.869c-1.829,1.947-2.667,4.562-2.667,7.21
	c0,1.674-0.042,3.381-0.13,5.106c-3.559-2.594-5.874-6.793-5.874-11.534C101.558,74.314,107.948,67.925,115.826,67.925
	L115.826,67.925z"/>
</svg>
