<?xml version="1.0" encoding="utf-8"?>
<!DOCTYPE svg PUBLIC "-//W3C//DTD SVG 1.1//EN" "http://www.w3.org/Graphics/SVG/1.1/DTD/svg11.dtd">
<svg version="1.1" xmlns="http://www.w3.org/2000/svg" xmlns:xlink="http://www.w3.org/1999/xlink" x="0px" y="0px" width="216px" height="216px" viewBox="0 0 216 216" enable-background="new 0 0 216 216" xml:space="preserve">
<path id="_x33_" fill-rule="evenodd" clip-rule="evenodd" fill="#999557" d="M16.119,4.918h183.602c6.161,0,11.198,5.04,11.198,11.2
	v183.602c0,6.161-5.037,11.198-11.198,11.198H16.119c-6.161,0-11.2-5.037-11.2-11.198V16.119C4.918,9.958,9.958,4.918,16.119,4.918
	L16.119,4.918z M16.119-0.08h183.602c8.911,0,16.199,7.29,16.199,16.199v183.602c0,8.907-7.288,16.199-16.199,16.199H16.119
	c-8.909,0-16.199-7.292-16.199-16.199V16.119C-0.08,7.209,7.209-0.08,16.119-0.08L16.119-0.08z M41.46,56.67h86.28
	c6.539,0,11.32,5.375,11.89,11.89l7.446,85.287l-0.175-0.191c-10.592-11.723-23.043-16.007-37.207-21.887
	c6.168-11.142,10.147-26.316,10.656-43.181c0.306-10.156-9.953-8.248-9.953,0.031c0,14.272-2.744,25.153-7.222,34.605
	c-2.181,4.598-9.43,6.16-13.705,6.144l-8.882-0.517c-20.978,0-22.294-17.272-22.294-40.232c0-7.978-10.179-9.961-9.977-0.967
	c0.403,18.005,4.763,34.143,11.527,45.602c-12.671,2.954-20.276,8.231-30.755,15.995c-2.334,1.726-4.849,4.28-7.192,7.214
	l7.674-87.903C30.141,62.046,34.921,56.67,41.46,56.67L41.46,56.67z M53.008,67.925L53.008,67.925
	c7.877,0,14.268,6.389,14.268,14.266c0,4.801-2.374,9.049-6.012,11.635c-0.094-1.76-0.137-3.499-0.137-5.208
	c0-2.533-0.81-5.003-2.484-6.879c-0.232-2.909-2.666-5.2-5.636-5.2c-2.801,0-5.129,2.041-5.575,4.716
	c-1.424,1.711-2.002,4.11-1.949,6.46c0.049,2.244,0.161,4.517,0.342,6.803c-4.238-2.472-7.084-7.07-7.084-12.327
	C38.742,74.314,45.131,67.925,53.008,67.925L53.008,67.925z M115.826,67.925L115.826,67.925c7.882,0,14.27,6.389,14.27,14.266
	c0,5.322-2.917,9.963-7.238,12.415c0.158-1.992,0.265-3.971,0.325-5.933c0.069-2.384-0.419-4.952-1.717-6.867
	c-0.199-2.941-2.649-5.267-5.64-5.267c-2.853,0-5.217,2.118-5.598,4.869c-1.829,1.947-2.667,4.562-2.667,7.21
	c0,1.674-0.042,3.381-0.13,5.106c-3.559-2.594-5.874-6.793-5.874-11.534C101.558,74.314,107.948,67.925,115.826,67.925
	L115.826,67.925z"/>
<path id="_x32_" fill-rule="evenodd" clip-rule="evenodd" fill="#F58220" d="M147.356,20.719h34.754
	c0.879,0,1.599,0.718,1.599,1.597v4.795c0,0.879-0.72,1.597-1.599,1.597h-34.754c-0.879,0-1.595-0.718-1.595-1.597v-4.795
	C145.762,21.437,146.478,20.719,147.356,20.719L147.356,20.719z M196.092,104.357L196.092,104.357v21.022v40.593h-32.357
	c-0.134,0-0.248-0.11-0.248-0.248v-61.119c0-0.136,0.114-0.248,0.248-0.248H196.092L196.092,104.357z M19.229,174.786
	L19.229,174.786c-0.999,5.074,1.036,10.909,4.871,14.368c2.14,1.933,5.687,3.833,9.688,3.833h104.007
	c16.101,0,16.829-17.237,10.185-27.353c-1.99-3.035-3.442-5.033-5.835-7.683c-4.932-5.456-8.65-7.942-14.75-12.027
	c-3.032,2.03-7.365,8.573-9.359,11.963c-2.307,3.931-2.774,13.83-9.076,11.148c-5.302-2.258-0.393-11.454,1.272-14.795
	c1.261-2.522,2.502-4.305,4.053-6.604c1.525-2.259,3.405-3.805,4.789-5.872l-13.458-4.618c-3.802,2.698-7.308,3.983-10.791,7.149
	c-3.365,3.056-5.672,5.249-8.409,9.013c-2.462,3.382-4.403,7.471-5.615,12.064c-1.636,6.218-8.789,4.565-8.789-0.207v-0.261
	c0-4.431,5.534-14.107,7.692-17.008c1.967-2.646,3.473-4.432,5.764-6.719c0.946-0.947,6.148-5.334,6.303-5.916H80.588
	c-6.657,0-20.242,11.279-23.556,15.706c-2.792,3.724-5.528,7.544-6.917,12.582c-0.726,2.628-1.235,5.172-4.126,5.773
	c-2.458,0.513-5.182-1.44-5.182-3.902c0-3.369,3.603-11.409,5.094-13.623c1.186-1.758,2.435-4.105,3.811-5.554
	c0.617-0.647,3.961-4.492,4.098-5.001c-2.12,0.492-9.507,4.529-11.394,5.77c-3.76,2.471-6.172,4.912-9.513,7.386
	C27.825,158.16,20.525,168.174,19.229,174.786L19.229,174.786z"/>
<path id="_x31_" fill-rule="evenodd" clip-rule="evenodd" fill="#7E5628" d="M142.189,63.36c3.463-9.613,6.872-19.254,7.564-30.257
	h31.16c0.057,16.681,8.887,30.172,13.33,45.258c1.831,6.22,1.848,7.544,1.848,14.679v5.176h-32.357
	c-3.516,0-6.393,2.875-6.393,6.392v61.117c0,3.516,2.877,6.388,6.393,6.388h32.357v12.395v1.99c0,3.516-2.877,6.393-6.393,6.393
	c-12.667,0-25.338,0-38.005,0c-2.043,0-2.453,0.455-0.928-1.091c6.49-6.576,6.531-18.229,0.956-27.197l-0.021-0.11L143.3,68.239
	C143.153,66.542,142.771,64.9,142.189,63.36L142.189,63.36z M120.64,51.078L120.64,51.078c-3.435-17.098-18.25-29.96-35.999-29.96
	c-17.747,0-32.563,12.862-35.999,29.96h9.036c3.255-12.093,14.097-20.98,26.963-20.98c12.868,0,23.71,8.887,26.963,20.98H120.64
	L120.64,51.078z"/>
</svg>
