<?xml version="1.0" encoding="utf-8"?>
<!DOCTYPE svg PUBLIC "-//W3C//DTD SVG 1.1//EN" "http://www.w3.org/Graphics/SVG/1.1/DTD/svg11.dtd">
<svg version="1.1" xmlns="http://www.w3.org/2000/svg" xmlns:xlink="http://www.w3.org/1999/xlink" x="0px" y="0px" width="216px" height="216px" viewBox="0 0 216 216" enable-background="new 0 0 216 216" xml:space="preserve">
<path fill-rule="evenodd" clip-rule="evenodd" d="M135.121,68.153c12.016,0,21.989,4.875,23.865,11.261
	c2.596,0.265,10.416,0.535,13.013,0.808L158.754,46.84c-0.541-1.371-5.619-10.256-7.328-10.734
	c-2.205-1.326-5.379-2.419-8.235-2.844c-28.089-4.177-62.665-2.295-77.802,0.678c-4.616,0.907-7.141,2.881-7.813,3.756
	c-3.2,4.156-4.547,8.02-5.011,9.312L40.681,80.222c23.047-3.872,51.02-4.749,72.349-4.1
	C116.799,71.427,125.271,68.153,135.121,68.153L135.121,68.153z M182.554,83.855L182.554,83.855c2.255,1.414,4.15,3.286,5.526,5.461
	h-52.922c-7.67-3.343-16.924-5.296-26.882-5.296c-9.961,0-19.212,1.953-26.88,5.296H26.149c1.271-2.01,2.986-3.76,5.019-5.127
	l2.287-0.378l-13.167-10.14c-0.61,0-1.111-0.46-1.111-1.023v-8.172c0-0.562,0.5-1.021,1.111-1.021l19.208-3.852l5.776-14.313
	c4.118-10.205,7.013-12.608,14.181-16.797c7.167-4.187,70.424-5.65,92.788-0.289c9.762,5.101,9.688,8.224,14.229,16.211
	l6.393,14.463l19.922,5.629c0.606,0,1.107,0.458,1.107,1.02v8.172c0,0.566-0.501,1.023-1.107,1.023l-12.902,7.062L182.554,83.855
	L182.554,83.855z M185.536,152.923L185.536,152.923v34.994c0,3.206-2.856,5.835-6.348,5.835h-15.987
	c-3.491,0-6.348-2.629-6.348-5.835v-34.994H185.536L185.536,152.923z M58.3,152.923L58.3,152.923v34.604
	c0,3.21-2.856,5.839-6.348,5.839H34.588c-3.491,0-6.346-2.629-6.346-5.839v-34.604H58.3L58.3,152.923z M193.724,121.563
	L193.724,121.563c-0.033,6.86-0.79,13.729-2.283,20.666H22.698c-1.644-6.893-2.58-13.875-2.73-20.666H84.72v11.043l5.219,2.019
	v-13.062h4.948v14.396l5.223,0.863v-15.259h4.946v15.629l5.216,0.004v-15.633h4.948v15.263l5.225-0.862v-14.4h4.943v13.065
	l5.226-2.022v-11.043H193.724L193.724,121.563z M138.58,126.23L138.58,126.23h45.622c1.058,0,1.925,0.916,1.925,2.03v2.608
	c0,1.115-0.867,2.026-1.925,2.026H138.58c-1.054,0-1.921-0.911-1.921-2.026v-2.608C136.659,127.146,137.526,126.23,138.58,126.23
	L138.58,126.23z M29.485,126.23L29.485,126.23h45.616c1.058,0,1.925,0.916,1.925,2.03v2.608c0,1.115-0.867,2.026-1.925,2.026H29.485
	c-1.06,0-1.925-0.911-1.925-2.026v-2.608C27.561,127.146,28.425,126.23,29.485,126.23L29.485,126.23z M125.388,117.881
	L125.388,117.881V96.547l5.226,2.265v19.069C122.967,117.881,133.042,117.881,125.388,117.881L125.388,117.881z M120.444,117.881
	L120.444,117.881c-7.719,0,2.498,0-5.225,0V94.089l5.225,0.962V117.881L120.444,117.881z M110.271,117.881L110.271,117.881
	c-7.725,0,2.507,0-5.216,0V93.664l5.216,0.006V117.881L110.271,117.881z M100.109,117.881L100.109,117.881c-7.721,0,2.494,0-5.223,0
	V95.047l5.223-0.962V117.881L100.109,117.881z M89.939,117.881L89.939,117.881c-7.652,0,2.431,0-5.219,0V98.812l5.219-2.269V117.881
	L89.939,117.881z"/>
</svg>
