<?xml version="1.0" encoding="utf-8"?>
<!DOCTYPE svg PUBLIC "-//W3C//DTD SVG 1.1//EN" "http://www.w3.org/Graphics/SVG/1.1/DTD/svg11.dtd">
<svg version="1.1" xmlns="http://www.w3.org/2000/svg" xmlns:xlink="http://www.w3.org/1999/xlink" x="0px" y="0px" width="216px" height="216px" viewBox="0 0 216 216" enable-background="new 0 0 216 216" xml:space="preserve">
<path id="_x33_" fill-rule="evenodd" clip-rule="evenodd" fill="#F58031" d="M55.108,62.613h35.091c1.915,0,3.479,1.564,3.479,3.477
	v4.325c-8.716,0.092-17.434,0.419-26.093,0.989c-5.316,0.348-10.642,0.792-15.957,1.361V66.09
	C51.629,64.178,53.193,62.613,55.108,62.613L55.108,62.613z M59.594,47.601L59.594,47.601h26.121c1.424,0,2.588,1.164,2.588,2.588
	v6.826c0,1.424-1.164,2.59-2.588,2.59H59.594c-1.426,0-2.59-1.166-2.59-2.59v-6.826C57.004,48.765,58.168,47.601,59.594,47.601
	L59.594,47.601z M123.455,44.756L123.455,44.756h26.123c1.425,0,2.588,1.164,2.588,2.588v6.824c0,1.424-1.163,2.59-2.588,2.59
	h-26.123c-1.424,0-2.588-1.166-2.588-2.59v-6.824C120.867,45.92,122.031,44.756,123.455,44.756L123.455,44.756z M118.972,59.767
	L118.972,59.767h35.095c1.913,0,3.476,1.564,3.476,3.477v4.073c-0.916-0.576-1.864-1.087-2.808-1.536
	c-5.493-2.623-11.951-3.728-18.01-3.728c-6.678,0-15.146,1.51-21.232,5.508v-4.317C115.492,61.332,117.059,59.767,118.972,59.767
	L118.972,59.767z M22.897,100.388L22.897,100.388l-1.859,9.31H32.03v-9.31H22.897L22.897,100.388z M179.168,100.388L179.168,100.388
	v9.31h11.394l-2.229-9.31H179.168L179.168,100.388z"/>
<path id="_x32_" fill-rule="evenodd" clip-rule="evenodd" fill="#999557" d="M197.829,147.841c-0.306,1.396-0.635,2.796-0.989,4.191
	h-49.353v0.008h-3.854c0.065,0.338,0.098,0.68,0.098,1.025c0,7.683-16.117,13.912-35.995,13.912s-35.997-6.229-35.997-13.912
	c0-0.346,0.035-0.688,0.098-1.025h-6.801v-0.008H17.74c-0.387-1.392-0.749-2.791-1.084-4.191H197.829L197.829,147.841z
	 M195.867,92.986L195.867,92.986c0.225,1.079,0.342,2.191,0.342,3.329c1.848,7.273,2.955,14.496,3.309,21.72h-67.631V97.56
	l-5.607-2.431v22.906h-5.311V93.523l-5.606-1.033v25.545h-5.313V92.039l-5.603-0.004v26.001h-5.31V92.486L93.53,93.52v24.516h-5.312
	v-22.91l-5.603,2.435v20.475H13.138c0.301-7.676,1.589-15.037,3.973-21.72c0-1.137,0.116-2.248,0.338-3.329h61.617
	c0.684-0.396,1.383-0.781,2.199-1.196c7.404-3.748,16.624-5.953,26.638-5.953c10.111,0,19.405,2.248,26.742,6.006
	c0.716,0.362,1.416,0.747,2.1,1.143H195.867L195.867,92.986z M22.106,97.656L22.106,97.656h10.909c0.885,0,1.607,0.663,1.607,1.477
	v11.82c0,0.814-0.722,1.476-1.607,1.476H19.744c-0.883,0-1.605-0.661-1.605-1.476l2.36-11.82
	C20.499,98.319,21.221,97.656,22.106,97.656L22.106,97.656z M178.184,97.656L178.184,97.656h10.913c0.883,0,1.604,0.663,1.604,1.477
	l2.832,11.82c0,0.814-0.721,1.476-1.604,1.476h-13.745c-0.883,0-1.604-0.661-1.604-1.476v-11.82
	C176.58,98.319,177.301,97.656,178.184,97.656L178.184,97.656z M41.284,97.656L41.284,97.656h28.908
	c0.883,0,1.603,0.663,1.603,1.477v11.82c0,0.814-0.72,1.476-1.603,1.476H41.284c-0.885,0-1.607-0.661-1.607-1.476v-11.82
	C39.676,98.319,40.398,97.656,41.284,97.656L41.284,97.656z M141.9,97.656L141.9,97.656h28.91c0.883,0,1.604,0.663,1.604,1.477
	v11.82c0,0.814-0.721,1.476-1.604,1.476H141.9c-0.883,0-1.604-0.661-1.604-1.476v-11.82C140.297,98.319,141.018,97.656,141.9,97.656
	L141.9,97.656z M84.956,30.767L84.956,30.767h17.133v-2.944c1.772-0.035,3.542-0.049,5.312-0.047v2.991h15.135
	c1.839,0,3.182,5.04,3.182,6.197v3.692c0,1.162-1.502,2.11-3.337,2.11H84.8c-1.839,0-3.341-0.948-3.341-2.11v-3.692
	C81.459,35.805,83.119,30.767,84.956,30.767L84.956,30.767z M16.119,4.918h183.602c6.161,0,11.198,5.04,11.198,11.2v183.602
	c0,6.161-5.037,11.198-11.198,11.198H16.119c-6.161,0-11.2-5.037-11.2-11.198V16.119C4.918,9.958,9.958,4.918,16.119,4.918
	L16.119,4.918z M16.119-0.08h183.602c8.911,0,16.199,7.29,16.199,16.199v183.602c0,8.907-7.288,16.199-16.199,16.199H16.119
	c-8.909,0-16.199-7.292-16.199-16.199V16.119C-0.08,7.209,7.209-0.08,16.119-0.08L16.119-0.08z"/>
<path id="_x31_" fill-rule="evenodd" clip-rule="evenodd" fill="#7E5628" d="M135.121,68.153c12.016,0,21.989,4.875,23.865,11.261
	c2.596,0.265,10.416,0.535,13.013,0.808L158.754,46.84c-0.541-1.371-5.619-10.256-7.328-10.734
	c-2.205-1.326-5.379-2.419-8.235-2.844c-28.089-4.177-62.665-2.295-77.802,0.678c-4.616,0.907-7.141,2.881-7.813,3.756
	c-3.2,4.156-4.547,8.02-5.011,9.312L40.681,80.222c23.047-3.872,51.02-4.749,72.349-4.1
	C116.799,71.427,125.271,68.153,135.121,68.153L135.121,68.153z M182.554,83.855L182.554,83.855c2.255,1.414,4.15,3.286,5.526,5.461
	h-52.922c-7.67-3.343-16.924-5.296-26.882-5.296c-9.961,0-19.212,1.953-26.88,5.296H26.149c1.271-2.01,2.986-3.76,5.019-5.127
	l2.287-0.378l-13.167-10.14c-0.61,0-1.111-0.46-1.111-1.023v-8.172c0-0.562,0.5-1.021,1.111-1.021l19.208-3.852l5.776-14.313
	c4.118-10.205,7.013-12.608,14.181-16.797c7.167-4.187,70.424-5.65,92.788-0.289c9.762,5.101,9.688,8.224,14.229,16.211
	l6.393,14.463l19.922,5.629c0.606,0,1.107,0.458,1.107,1.02v8.172c0,0.566-0.501,1.023-1.107,1.023l-12.902,7.062L182.554,83.855
	L182.554,83.855z M185.536,152.923L185.536,152.923v34.994c0,3.206-2.856,5.835-6.348,5.835h-15.987
	c-3.491,0-6.348-2.629-6.348-5.835v-34.994H185.536L185.536,152.923z M58.3,152.923L58.3,152.923v34.604
	c0,3.21-2.856,5.839-6.348,5.839H34.588c-3.491,0-6.346-2.629-6.346-5.839v-34.604H58.3L58.3,152.923z M193.724,121.563
	L193.724,121.563c-0.033,6.86-0.79,13.729-2.283,20.666H22.698c-1.644-6.893-2.58-13.875-2.73-20.666H84.72v11.043l5.219,2.019
	v-13.062h4.948v14.396l5.223,0.863v-15.259h4.946v15.629l5.216,0.004v-15.633h4.948v15.263l5.225-0.862v-14.4h4.943v13.065
	l5.226-2.022v-11.043H193.724L193.724,121.563z M138.58,126.23L138.58,126.23h45.622c1.058,0,1.925,0.916,1.925,2.03v2.608
	c0,1.115-0.867,2.026-1.925,2.026H138.58c-1.054,0-1.921-0.911-1.921-2.026v-2.608C136.659,127.146,137.526,126.23,138.58,126.23
	L138.58,126.23z M29.485,126.23L29.485,126.23h45.616c1.058,0,1.925,0.916,1.925,2.03v2.608c0,1.115-0.867,2.026-1.925,2.026H29.485
	c-1.06,0-1.925-0.911-1.925-2.026v-2.608C27.561,127.146,28.425,126.23,29.485,126.23L29.485,126.23z M125.388,117.881
	L125.388,117.881V96.547l5.226,2.265v19.069C122.967,117.881,133.042,117.881,125.388,117.881L125.388,117.881z M120.444,117.881
	L120.444,117.881c-7.719,0,2.498,0-5.225,0V94.089l5.225,0.962V117.881L120.444,117.881z M110.271,117.881L110.271,117.881
	c-7.725,0,2.507,0-5.216,0V93.664l5.216,0.006V117.881L110.271,117.881z M100.109,117.881L100.109,117.881c-7.721,0,2.494,0-5.223,0
	V95.047l5.223-0.962V117.881L100.109,117.881z M89.939,117.881L89.939,117.881c-7.652,0,2.431,0-5.219,0V98.812l5.219-2.269V117.881
	L89.939,117.881z"/>
</svg>
