<?xml version="1.0" encoding="utf-8"?>
<!DOCTYPE svg PUBLIC "-//W3C//DTD SVG 1.1//EN" "http://www.w3.org/Graphics/SVG/1.1/DTD/svg11.dtd">
<svg version="1.1" xmlns="http://www.w3.org/2000/svg" xmlns:xlink="http://www.w3.org/1999/xlink" x="0px" y="0px" width="216px" height="216px" viewBox="0 0 216 216" enable-background="new 0 0 216 216" xml:space="preserve">
<path fill-rule="evenodd" clip-rule="evenodd" d="M55.108,62.613h35.091c1.915,0,3.479,1.564,3.479,3.477
	v4.325c-8.716,0.092-17.434,0.419-26.093,0.989c-5.316,0.348-10.642,0.792-15.957,1.361V66.09
	C51.629,64.178,53.193,62.613,55.108,62.613L55.108,62.613z M59.594,47.601L59.594,47.601h26.121c1.424,0,2.588,1.164,2.588,2.588
	v6.826c0,1.424-1.164,2.59-2.588,2.59H59.594c-1.426,0-2.59-1.166-2.59-2.59v-6.826C57.004,48.765,58.168,47.601,59.594,47.601
	L59.594,47.601z M123.455,44.756L123.455,44.756h26.123c1.425,0,2.588,1.164,2.588,2.588v6.824c0,1.424-1.163,2.59-2.588,2.59
	h-26.123c-1.424,0-2.588-1.166-2.588-2.59v-6.824C120.867,45.92,122.031,44.756,123.455,44.756L123.455,44.756z M118.972,59.767
	L118.972,59.767h35.095c1.913,0,3.476,1.564,3.476,3.477v4.073c-0.916-0.576-1.864-1.087-2.808-1.536
	c-5.493-2.623-11.951-3.728-18.01-3.728c-6.678,0-15.146,1.51-21.232,5.508v-4.317C115.492,61.332,117.059,59.767,118.972,59.767
	L118.972,59.767z M22.897,100.388L22.897,100.388l-1.859,9.31H32.03v-9.31H22.897L22.897,100.388z M179.168,100.388L179.168,100.388
	v9.31h11.394l-2.229-9.31H179.168L179.168,100.388z"/>
</svg>
