<?xml version="1.0" encoding="utf-8"?>
<!DOCTYPE svg PUBLIC "-//W3C//DTD SVG 1.1//EN" "http://www.w3.org/Graphics/SVG/1.1/DTD/svg11.dtd">
<svg version="1.1" xmlns="http://www.w3.org/2000/svg" xmlns:xlink="http://www.w3.org/1999/xlink" x="0px" y="0px" width="216px" height="216px" viewBox="0 0 216 216" enable-background="new 0 0 216 216" xml:space="preserve">
<path fill-rule="evenodd" clip-rule="evenodd" d="M197.829,147.841c-0.306,1.396-0.635,2.796-0.989,4.191
	h-49.353v0.008h-3.854c0.065,0.338,0.098,0.68,0.098,1.025c0,7.683-16.117,13.912-35.995,13.912s-35.997-6.229-35.997-13.912
	c0-0.346,0.035-0.688,0.098-1.025h-6.801v-0.008H17.74c-0.387-1.392-0.749-2.791-1.084-4.191H197.829L197.829,147.841z
	 M195.867,92.986L195.867,92.986c0.225,1.079,0.342,2.191,0.342,3.329c1.848,7.273,2.955,14.496,3.309,21.72h-67.631V97.56
	l-5.607-2.431v22.906h-5.311V93.523l-5.606-1.033v25.545h-5.313V92.039l-5.603-0.004v26.001h-5.31V92.486L93.53,93.52v24.516h-5.312
	v-22.91l-5.603,2.435v20.475H13.138c0.301-7.676,1.589-15.037,3.973-21.72c0-1.137,0.116-2.248,0.338-3.329h61.617
	c0.684-0.396,1.383-0.781,2.199-1.196c7.404-3.748,16.624-5.953,26.638-5.953c10.111,0,19.405,2.248,26.742,6.006
	c0.716,0.362,1.416,0.747,2.1,1.143H195.867L195.867,92.986z M22.106,97.656L22.106,97.656h10.909c0.885,0,1.607,0.663,1.607,1.477
	v11.82c0,0.814-0.722,1.476-1.607,1.476H19.744c-0.883,0-1.605-0.661-1.605-1.476l2.36-11.82
	C20.499,98.319,21.221,97.656,22.106,97.656L22.106,97.656z M178.184,97.656L178.184,97.656h10.913c0.883,0,1.604,0.663,1.604,1.477
	l2.832,11.82c0,0.814-0.721,1.476-1.604,1.476h-13.745c-0.883,0-1.604-0.661-1.604-1.476v-11.82
	C176.58,98.319,177.301,97.656,178.184,97.656L178.184,97.656z M41.284,97.656L41.284,97.656h28.908
	c0.883,0,1.603,0.663,1.603,1.477v11.82c0,0.814-0.72,1.476-1.603,1.476H41.284c-0.885,0-1.607-0.661-1.607-1.476v-11.82
	C39.676,98.319,40.398,97.656,41.284,97.656L41.284,97.656z M141.9,97.656L141.9,97.656h28.91c0.883,0,1.604,0.663,1.604,1.477
	v11.82c0,0.814-0.721,1.476-1.604,1.476H141.9c-0.883,0-1.604-0.661-1.604-1.476v-11.82C140.297,98.319,141.018,97.656,141.9,97.656
	L141.9,97.656z M84.956,30.767L84.956,30.767h17.133v-2.944c1.772-0.035,3.542-0.049,5.312-0.047v2.991h15.135
	c1.839,0,3.182,5.04,3.182,6.197v3.692c0,1.162-1.502,2.11-3.337,2.11H84.8c-1.839,0-3.341-0.948-3.341-2.11v-3.692
	C81.459,35.805,83.119,30.767,84.956,30.767L84.956,30.767z M16.119,4.918h183.602c6.161,0,11.198,5.04,11.198,11.2v183.602
	c0,6.161-5.037,11.198-11.198,11.198H16.119c-6.161,0-11.2-5.037-11.2-11.198V16.119C4.918,9.958,9.958,4.918,16.119,4.918
	L16.119,4.918z M16.119-0.08h183.602c8.911,0,16.199,7.29,16.199,16.199v183.602c0,8.907-7.288,16.199-16.199,16.199H16.119
	c-8.909,0-16.199-7.292-16.199-16.199V16.119C-0.08,7.209,7.209-0.08,16.119-0.08L16.119-0.08z"/>
</svg>
