<?xml version="1.0" encoding="utf-8"?>
<!DOCTYPE svg PUBLIC "-//W3C//DTD SVG 1.1//EN" "http://www.w3.org/Graphics/SVG/1.1/DTD/svg11.dtd">
<svg version="1.1" xmlns="http://www.w3.org/2000/svg" xmlns:xlink="http://www.w3.org/1999/xlink" x="0px" y="0px" width="216px" height="216px" viewBox="0 0 216 216" enable-background="new 0 0 216 216" xml:space="preserve">
<path id="_x33_" fill-rule="evenodd" clip-rule="evenodd" fill="#F58031" d="M176.914,183.945L176.914,183.945
	c-11.3,0-20.459-9.159-20.459-20.459c0-11.296,9.159-20.459,20.459-20.459c11.296,0,20.459,9.163,20.459,20.459
	C197.373,174.786,188.21,183.945,176.914,183.945L176.914,183.945z M167.389,168.878L167.389,168.878
	c0,1.514,0.28,2.844,0.842,3.996c0.566,1.139,1.335,2.1,2.304,2.86c0.964,0.769,2.091,1.339,3.385,1.729
	c1.29,0.386,2.678,0.577,4.146,0.577c0.997,0,1.925-0.077,2.779-0.244c0.851-0.158,1.607-0.357,2.259-0.586
	c0.654-0.235,1.2-0.472,1.644-0.729c0.436-0.252,0.757-0.472,0.944-0.671c0.199-0.191,0.338-0.472,0.41-0.83
	c0.086-0.366,0.123-0.892,0.123-1.575c0-0.468-0.017-0.846-0.037-1.159c-0.032-0.313-0.086-0.569-0.146-0.761
	c-0.069-0.188-0.158-0.326-0.272-0.411c-0.106-0.081-0.236-0.118-0.391-0.118c-0.204,0-0.501,0.118-0.879,0.366
	c-0.374,0.24-0.862,0.513-1.465,0.813c-0.595,0.293-1.298,0.57-2.12,0.814c-0.834,0.244-1.782,0.362-2.873,0.362
	c-0.712,0-1.354-0.082-1.916-0.249c-0.562-0.175-1.042-0.419-1.44-0.732c-0.387-0.313-0.692-0.691-0.896-1.155
	c-0.216-0.468-0.313-0.977-0.313-1.538c0-0.655,0.175-1.217,0.533-1.685c0.358-0.472,0.822-0.891,1.392-1.245
	c0.374-0.244,0.789-0.472,1.233-0.695h9.948c0.146,0,0.269-0.159,0.269-0.354v-1.424c0-0.191-0.122-0.354-0.269-0.354h-20.675
	c-0.146,0-0.265,0.159-0.265,0.354v1.424c0,0.195,0.118,0.354,0.265,0.354h1.949C167.539,166.839,167.389,167.791,167.389,168.878
	L167.389,168.878z M165.907,159.886h9.677l0.276-0.118c0.744-0.313,1.408-0.655,1.989-1.021c0.591-0.366,1.063-0.785,1.408-1.249
	c0.354-0.473,0.529-1.025,0.529-1.664c0-0.428-0.086-0.839-0.236-1.229c-0.163-0.387-0.395-0.716-0.716-0.988
	s-0.717-0.497-1.196-0.647c-0.473-0.158-1.025-0.235-1.669-0.235c-0.821,0-1.566,0.102-2.25,0.305
	c-0.688,0.199-1.285,0.419-1.803,0.672c-0.528,0.239-0.96,0.468-1.318,0.675c-0.357,0.208-0.618,0.313-0.785,0.313
	c-0.158,0-0.289-0.045-0.387-0.139c-0.102-0.081-0.175-0.228-0.22-0.415c-0.057-0.203-0.093-0.443-0.113-0.74
	c-0.024-0.297-0.033-0.663-0.033-1.091c0-0.386,0.009-0.712,0.017-0.972c0.017-0.257,0.045-0.473,0.081-0.647
	c0.041-0.167,0.078-0.305,0.131-0.411c0.053-0.105,0.154-0.228,0.305-0.382c0.143-0.143,0.452-0.334,0.912-0.554
	c0.468-0.224,0.992-0.428,1.587-0.603c0.594-0.183,1.232-0.317,1.916-0.427c0.684-0.106,1.371-0.15,2.047-0.15
	c1.326,0,2.58,0.166,3.76,0.508c1.18,0.347,2.21,0.863,3.076,1.555c0.875,0.684,1.566,1.559,2.075,2.604
	c0.513,1.05,0.773,2.267,0.773,3.642c0,1.213-0.176,2.238-0.533,3.108c-0.045,0.102-0.086,0.199-0.131,0.302h1.506
	c0.146,0,0.269,0.158,0.269,0.354v1.424c0,0.195-0.122,0.354-0.269,0.354h-20.675c-0.146,0-0.265-0.159-0.265-0.354v-1.424
	C165.643,160.044,165.761,159.886,165.907,159.886L165.907,159.886z M106.064,28.653L106.064,28.653L90.938,62.27H75.469
	l15.129-33.616H106.064L106.064,28.653z M69.319,28.653L69.319,28.653L54.192,62.27H38.726l15.126-33.616H69.319L69.319,28.653z
	 M33.611,28.653L33.611,28.653l-13.59,30.202V28.653H33.611L33.611,28.653z"/>
<path id="_x32_" fill-rule="evenodd" clip-rule="evenodd" fill="#999557" d="M16.119-0.08h183.602
	c8.911,0,16.199,7.29,16.199,16.199v183.602c0,8.907-7.288,16.199-16.199,16.199H16.119c-8.909,0-16.199-7.292-16.199-16.199V16.119
	C-0.08,7.209,7.209-0.08,16.119-0.08L16.119-0.08z M16.119,4.918h183.602c6.161,0,11.198,5.04,11.198,11.2v183.602
	c0,6.161-5.037,11.198-11.198,11.198H16.119c-6.161,0-11.2-5.037-11.2-11.198V16.119C4.918,9.958,9.958,4.918,16.119,4.918
	L16.119,4.918z M151.82,101.381L151.82,101.381c-19.067,0-34.529-15.464-34.529-34.53c0-19.071,15.462-34.536,34.529-34.536
	c19.071,0,34.534,15.464,34.534,34.536C186.354,85.917,170.892,101.381,151.82,101.381L151.82,101.381z M143.882,66.536
	L143.882,66.536h11.247c3.715,0,6.355-0.688,7.914-2.076c1.563-1.385,2.34-3.33,2.34-5.841c0-1.823-0.456-3.383-1.376-4.677
	c-0.923-1.296-2.128-2.146-3.638-2.562c-0.968-0.254-2.75-0.385-5.362-0.385h-11.125V66.536L143.882,66.536z M138.128,89.345V45.863
	h16.402c2.881,0,5.091,0.143,6.612,0.413c2.137,0.356,3.927,1.033,5.375,2.036c1.437,0.993,2.601,2.399,3.483,4.191
	c0.879,1.803,1.314,3.776,1.314,5.933c0,3.695-1.176,6.834-3.524,9.396c-2.359,2.551-6.607,3.837-12.756,3.837h-11.153v17.676
	H138.128L138.128,89.345z M28.793,81.451L28.793,81.451l71.89,0.173c3.786,17.098,18.667,45.318,32.22,74.652l-0.024,29.049
	c0,4.26-3.486,7.751-7.747,7.751H28.793c-4.258,0-7.745-3.491-7.745-7.751V89.196C21.048,84.936,24.533,81.451,28.793,81.451
	L28.793,81.451z M44.982,134.507L44.982,134.507h23.513c7.766,0,13.292-1.444,16.551-4.342c3.261-2.901,4.891-6.966,4.891-12.207
	c0-3.813-0.954-7.072-2.878-9.78c-1.927-2.714-4.443-4.488-7.601-5.357c-2.03-0.529-5.753-0.804-11.216-0.804H44.982V134.507
	L44.982,134.507z M32.96,182.188L32.96,182.188V91.286h34.288c6.03,0,10.646,0.297,13.82,0.871
	c4.466,0.741,8.211,2.153,11.236,4.248c3.007,2.078,5.44,5.02,7.282,8.769c1.843,3.768,2.753,7.89,2.753,12.398
	c0,7.728-2.456,14.291-7.367,19.642c-4.93,5.334-13.82,8.02-26.668,8.02H44.982v36.955H32.96L32.96,182.188z M122.625,169.964
	L122.625,169.964v4.46h-1.273v0.013h-6.47v-0.013H87.739v0.013h-6.467v-0.013h-1.156v-4.46H122.625L122.625,169.964z
	 M121.352,175.864L121.352,175.864v5.478c0,0.732-0.729,1.326-1.615,1.326h-3.235c-0.891,0-1.619-0.594-1.619-1.326v-5.478H121.352
	L121.352,175.864z M87.739,175.864L87.739,175.864v5.478c0,0.732-0.73,1.326-1.617,1.326h-3.235c-0.889,0-1.615-0.594-1.615-1.326
	v-5.478H87.739L87.739,175.864z M120.591,160.487L120.591,160.487c1.225,0.688,2.034,1.835,2.034,3.129v4.98H80.116v-4.98
	c0-1.245,0.751-2.359,1.9-3.047l0.584-2.393h-2.798c-0.156,0-0.283-0.106-0.283-0.229v-1.859c0-0.126,0.126-0.228,0.283-0.228h3.363
	l1.106-4.545c0.499-2.043,1.943-3.784,4.319-3.784h24.976c2.377,0,3.724,1.762,4.321,3.784l1.339,4.545h2.881
	c0.159,0,0.285,0.102,0.285,0.228v1.859c0,0.122-0.126,0.229-0.285,0.229h-2.197L120.591,160.487L120.591,160.487z M117.348,159.353
	h0.11l-2.385-7.846c-0.102-0.333-0.464-1.257-0.843-1.521H87.87c-0.37,0.216-0.692,1.087-0.771,1.404l-2.004,7.963h0.094
	l-0.094,0.382h32.363L117.348,159.353L117.348,159.353z M112.489,163.901L112.489,163.901h7.328c0.212,0,0.379,0.143,0.379,0.313
	v2.498c0,0.175-0.167,0.313-0.379,0.313h-7.328c-0.21,0-0.383-0.139-0.383-0.313v-2.498
	C112.106,164.044,112.279,163.901,112.489,163.901L112.489,163.901z M83.961,163.901L83.961,163.901h6.86
	c0.211,0,0.38,0.143,0.38,0.313v2.498c0,0.175-0.169,0.313-0.38,0.313h-6.86c-0.208,0-0.38-0.139-0.38-0.313v-2.498
	C83.581,164.044,83.754,163.901,83.961,163.901L83.961,163.901z"/>
<path id="_x31_" fill-rule="evenodd" clip-rule="evenodd" fill="#7E5628" d="M151.82,104.726L151.82,104.726
	c-20.914,0-37.874-16.959-37.874-37.876c0-20.915,16.96-37.875,37.874-37.875c20.915,0,37.879,16.96,37.879,37.875
	C189.699,87.766,172.735,104.726,151.82,104.726L151.82,104.726z M150.986,20.619L150.986,20.619
	c25.989,0,47.063,21.075,47.063,47.066c0,16.888-12.309,41.459-24.78,72.624c-11.223,1.754-19.816,11.462-19.816,23.177
	c0,6.038,2.287,11.544,6.034,15.702c-1.66,5.546-3.214,11.235-4.614,17.07C135.097,136.822,103.92,93.672,103.92,67.686
	C103.92,41.694,124.993,20.619,150.986,20.619L150.986,20.619z M116.538,28.655L116.538,28.655
	c-9.518,8.386-15.894,20.258-17.143,33.614h-6.138l15.128-33.614H116.538L116.538,28.655z M88.276,28.655L88.276,28.655L73.15,62.27
	H57.682l15.126-33.614H88.276L88.276,28.655z M51.531,28.655L51.531,28.655L36.405,62.27H20.937l15.126-33.614H51.531L51.531,28.655
	z"/>
</svg>
