<?xml version="1.0" encoding="utf-8"?>
<!DOCTYPE svg PUBLIC "-//W3C//DTD SVG 1.1//EN" "http://www.w3.org/Graphics/SVG/1.1/DTD/svg11.dtd">
<svg version="1.1" xmlns="http://www.w3.org/2000/svg" xmlns:xlink="http://www.w3.org/1999/xlink" x="0px" y="0px" width="216px" height="216px" viewBox="0 0 216 216" enable-background="new 0 0 216 216" xml:space="preserve">
<path fill-rule="evenodd" clip-rule="evenodd" d="M176.914,183.945L176.914,183.945
	c-11.3,0-20.459-9.159-20.459-20.459c0-11.296,9.159-20.459,20.459-20.459c11.296,0,20.459,9.163,20.459,20.459
	C197.373,174.786,188.21,183.945,176.914,183.945L176.914,183.945z M167.389,168.878L167.389,168.878
	c0,1.514,0.28,2.844,0.842,3.996c0.566,1.139,1.335,2.1,2.304,2.86c0.964,0.769,2.091,1.339,3.385,1.729
	c1.29,0.386,2.678,0.577,4.146,0.577c0.997,0,1.925-0.077,2.779-0.244c0.851-0.158,1.607-0.357,2.259-0.586
	c0.654-0.235,1.2-0.472,1.644-0.729c0.436-0.252,0.757-0.472,0.944-0.671c0.199-0.191,0.338-0.472,0.41-0.83
	c0.086-0.366,0.123-0.892,0.123-1.575c0-0.468-0.017-0.846-0.037-1.159c-0.032-0.313-0.086-0.569-0.146-0.761
	c-0.069-0.188-0.158-0.326-0.272-0.411c-0.106-0.081-0.236-0.118-0.391-0.118c-0.204,0-0.501,0.118-0.879,0.366
	c-0.374,0.24-0.862,0.513-1.465,0.813c-0.595,0.293-1.298,0.57-2.12,0.814c-0.834,0.244-1.782,0.362-2.873,0.362
	c-0.712,0-1.354-0.082-1.916-0.249c-0.562-0.175-1.042-0.419-1.44-0.732c-0.387-0.313-0.692-0.691-0.896-1.155
	c-0.216-0.468-0.313-0.977-0.313-1.538c0-0.655,0.175-1.217,0.533-1.685c0.358-0.472,0.822-0.891,1.392-1.245
	c0.374-0.244,0.789-0.472,1.233-0.695h9.948c0.146,0,0.269-0.159,0.269-0.354v-1.424c0-0.191-0.122-0.354-0.269-0.354h-20.675
	c-0.146,0-0.265,0.159-0.265,0.354v1.424c0,0.195,0.118,0.354,0.265,0.354h1.949C167.539,166.839,167.389,167.791,167.389,168.878
	L167.389,168.878z M165.907,159.886h9.677l0.276-0.118c0.744-0.313,1.408-0.655,1.989-1.021c0.591-0.366,1.063-0.785,1.408-1.249
	c0.354-0.473,0.529-1.025,0.529-1.664c0-0.428-0.086-0.839-0.236-1.229c-0.163-0.387-0.395-0.716-0.716-0.988
	s-0.717-0.497-1.196-0.647c-0.473-0.158-1.025-0.235-1.669-0.235c-0.821,0-1.566,0.102-2.25,0.305
	c-0.688,0.199-1.285,0.419-1.803,0.672c-0.528,0.239-0.96,0.468-1.318,0.675c-0.357,0.208-0.618,0.313-0.785,0.313
	c-0.158,0-0.289-0.045-0.387-0.139c-0.102-0.081-0.175-0.228-0.22-0.415c-0.057-0.203-0.093-0.443-0.113-0.74
	c-0.024-0.297-0.033-0.663-0.033-1.091c0-0.386,0.009-0.712,0.017-0.972c0.017-0.257,0.045-0.473,0.081-0.647
	c0.041-0.167,0.078-0.305,0.131-0.411c0.053-0.105,0.154-0.228,0.305-0.382c0.143-0.143,0.452-0.334,0.912-0.554
	c0.468-0.224,0.992-0.428,1.587-0.603c0.594-0.183,1.232-0.317,1.916-0.427c0.684-0.106,1.371-0.15,2.047-0.15
	c1.326,0,2.58,0.166,3.76,0.508c1.18,0.347,2.21,0.863,3.076,1.555c0.875,0.684,1.566,1.559,2.075,2.604
	c0.513,1.05,0.773,2.267,0.773,3.642c0,1.213-0.176,2.238-0.533,3.108c-0.045,0.102-0.086,0.199-0.131,0.302h1.506
	c0.146,0,0.269,0.158,0.269,0.354v1.424c0,0.195-0.122,0.354-0.269,0.354h-20.675c-0.146,0-0.265-0.159-0.265-0.354v-1.424
	C165.643,160.044,165.761,159.886,165.907,159.886L165.907,159.886z M106.064,28.653L106.064,28.653L90.938,62.27H75.469
	l15.129-33.616H106.064L106.064,28.653z M69.319,28.653L69.319,28.653L54.192,62.27H38.726l15.126-33.616H69.319L69.319,28.653z
	 M33.611,28.653L33.611,28.653l-13.59,30.202V28.653H33.611L33.611,28.653z"/>
</svg>
