<?xml version="1.0" encoding="utf-8"?>
<!DOCTYPE svg PUBLIC "-//W3C//DTD SVG 1.1//EN" "http://www.w3.org/Graphics/SVG/1.1/DTD/svg11.dtd">
<svg version="1.1" xmlns="http://www.w3.org/2000/svg" xmlns:xlink="http://www.w3.org/1999/xlink" x="0px" y="0px" width="216px" height="216px" viewBox="0 0 216 216" enable-background="new 0 0 216 216" xml:space="preserve">
<path fill-rule="evenodd" clip-rule="evenodd" d="M16.119-0.08h183.602
	c8.911,0,16.199,7.29,16.199,16.199v183.602c0,8.907-7.288,16.199-16.199,16.199H16.119c-8.909,0-16.199-7.292-16.199-16.199V16.119
	C-0.08,7.209,7.209-0.08,16.119-0.08L16.119-0.08z M16.119,4.918h183.602c6.161,0,11.198,5.04,11.198,11.2v183.602
	c0,6.161-5.037,11.198-11.198,11.198H16.119c-6.161,0-11.2-5.037-11.2-11.198V16.119C4.918,9.958,9.958,4.918,16.119,4.918
	L16.119,4.918z M151.82,101.381L151.82,101.381c-19.067,0-34.529-15.464-34.529-34.53c0-19.071,15.462-34.536,34.529-34.536
	c19.071,0,34.534,15.464,34.534,34.536C186.354,85.917,170.892,101.381,151.82,101.381L151.82,101.381z M143.882,66.536
	L143.882,66.536h11.247c3.715,0,6.355-0.688,7.914-2.076c1.563-1.385,2.34-3.33,2.34-5.841c0-1.823-0.456-3.383-1.376-4.677
	c-0.923-1.296-2.128-2.146-3.638-2.562c-0.968-0.254-2.75-0.385-5.362-0.385h-11.125V66.536L143.882,66.536z M138.128,89.345V45.863
	h16.402c2.881,0,5.091,0.143,6.612,0.413c2.137,0.356,3.927,1.033,5.375,2.036c1.437,0.993,2.601,2.399,3.483,4.191
	c0.879,1.803,1.314,3.776,1.314,5.933c0,3.695-1.176,6.834-3.524,9.396c-2.359,2.551-6.607,3.837-12.756,3.837h-11.153v17.676
	H138.128L138.128,89.345z M28.793,81.451L28.793,81.451l71.89,0.173c3.786,17.098,18.667,45.318,32.22,74.652l-0.024,29.049
	c0,4.26-3.486,7.751-7.747,7.751H28.793c-4.258,0-7.745-3.491-7.745-7.751V89.196C21.048,84.936,24.533,81.451,28.793,81.451
	L28.793,81.451z M44.982,134.507L44.982,134.507h23.513c7.766,0,13.292-1.444,16.551-4.342c3.261-2.901,4.891-6.966,4.891-12.207
	c0-3.813-0.954-7.072-2.878-9.78c-1.927-2.714-4.443-4.488-7.601-5.357c-2.03-0.529-5.753-0.804-11.216-0.804H44.982V134.507
	L44.982,134.507z M32.96,182.188L32.96,182.188V91.286h34.288c6.03,0,10.646,0.297,13.82,0.871
	c4.466,0.741,8.211,2.153,11.236,4.248c3.007,2.078,5.44,5.02,7.282,8.769c1.843,3.768,2.753,7.89,2.753,12.398
	c0,7.728-2.456,14.291-7.367,19.642c-4.93,5.334-13.82,8.02-26.668,8.02H44.982v36.955H32.96L32.96,182.188z M122.625,169.964
	L122.625,169.964v4.46h-1.273v0.013h-6.47v-0.013H87.739v0.013h-6.467v-0.013h-1.156v-4.46H122.625L122.625,169.964z
	 M121.352,175.864L121.352,175.864v5.478c0,0.732-0.729,1.326-1.615,1.326h-3.235c-0.891,0-1.619-0.594-1.619-1.326v-5.478H121.352
	L121.352,175.864z M87.739,175.864L87.739,175.864v5.478c0,0.732-0.73,1.326-1.617,1.326h-3.235c-0.889,0-1.615-0.594-1.615-1.326
	v-5.478H87.739L87.739,175.864z M120.591,160.487L120.591,160.487c1.225,0.688,2.034,1.835,2.034,3.129v4.98H80.116v-4.98
	c0-1.245,0.751-2.359,1.9-3.047l0.584-2.393h-2.798c-0.156,0-0.283-0.106-0.283-0.229v-1.859c0-0.126,0.126-0.228,0.283-0.228h3.363
	l1.106-4.545c0.499-2.043,1.943-3.784,4.319-3.784h24.976c2.377,0,3.724,1.762,4.321,3.784l1.339,4.545h2.881
	c0.159,0,0.285,0.102,0.285,0.228v1.859c0,0.122-0.126,0.229-0.285,0.229h-2.197L120.591,160.487L120.591,160.487z M117.348,159.353
	h0.11l-2.385-7.846c-0.102-0.333-0.464-1.257-0.843-1.521H87.87c-0.37,0.216-0.692,1.087-0.771,1.404l-2.004,7.963h0.094
	l-0.094,0.382h32.363L117.348,159.353L117.348,159.353z M112.489,163.901L112.489,163.901h7.328c0.212,0,0.379,0.143,0.379,0.313
	v2.498c0,0.175-0.167,0.313-0.379,0.313h-7.328c-0.21,0-0.383-0.139-0.383-0.313v-2.498
	C112.106,164.044,112.279,163.901,112.489,163.901L112.489,163.901z M83.961,163.901L83.961,163.901h6.86
	c0.211,0,0.38,0.143,0.38,0.313v2.498c0,0.175-0.169,0.313-0.38,0.313h-6.86c-0.208,0-0.38-0.139-0.38-0.313v-2.498
	C83.581,164.044,83.754,163.901,83.961,163.901L83.961,163.901z"/>
</svg>
