<?xml version="1.0" encoding="utf-8"?>
<!DOCTYPE svg PUBLIC "-//W3C//DTD SVG 1.1//EN" "http://www.w3.org/Graphics/SVG/1.1/DTD/svg11.dtd">
<svg version="1.1" xmlns="http://www.w3.org/2000/svg" xmlns:xlink="http://www.w3.org/1999/xlink" x="0px" y="0px" width="216px" height="216px" viewBox="0 0 216 216" enable-background="new 0 0 216 216" xml:space="preserve">
<path fill-rule="evenodd" clip-rule="evenodd" d="M151.82,104.726L151.82,104.726
	c-20.914,0-37.874-16.959-37.874-37.876c0-20.915,16.96-37.875,37.874-37.875c20.915,0,37.879,16.96,37.879,37.875
	C189.699,87.766,172.735,104.726,151.82,104.726L151.82,104.726z M150.986,20.619L150.986,20.619
	c25.989,0,47.063,21.075,47.063,47.066c0,16.888-12.309,41.459-24.78,72.624c-11.223,1.754-19.816,11.462-19.816,23.177
	c0,6.038,2.287,11.544,6.034,15.702c-1.66,5.546-3.214,11.235-4.614,17.07C135.097,136.822,103.92,93.672,103.92,67.686
	C103.92,41.694,124.993,20.619,150.986,20.619L150.986,20.619z M116.538,28.655L116.538,28.655
	c-9.518,8.386-15.894,20.258-17.143,33.614h-6.138l15.128-33.614H116.538L116.538,28.655z M88.276,28.655L88.276,28.655L73.15,62.27
	H57.682l15.126-33.614H88.276L88.276,28.655z M51.531,28.655L51.531,28.655L36.405,62.27H20.937l15.126-33.614H51.531L51.531,28.655
	z"/>
</svg>
