<?xml version="1.0" encoding="utf-8"?>
<!DOCTYPE svg PUBLIC "-//W3C//DTD SVG 1.1//EN" "http://www.w3.org/Graphics/SVG/1.1/DTD/svg11.dtd">
<svg version="1.1" xmlns="http://www.w3.org/2000/svg" xmlns:xlink="http://www.w3.org/1999/xlink" x="0px" y="0px" width="216px" height="216px" viewBox="0 0 216 216" enable-background="new 0 0 216 216" xml:space="preserve">
<path fill-rule="evenodd" clip-rule="evenodd" d="M58.564,45.127h5.115v17.1h-5.115V45.127L58.564,45.127
	z M193.902,181.435v11.91c0,1.587-1.587,2.881-3.516,2.881h-7.039c-1.934,0-3.516-1.294-3.516-2.881v-11.91H193.902L193.902,181.435
	z M120.79,181.435L120.79,181.435v11.91c0,1.587-1.579,2.881-3.516,2.881h-7.033c-1.935,0-3.516-1.294-3.516-2.881v-11.91H120.79
	L120.79,181.435z M192.25,147.991L192.25,147.991c2.661,1.485,4.415,3.988,4.415,6.812v10.815h-92.452v-10.815
	c0-2.722,1.632-5.146,4.134-6.645l1.267-5.196h-6.081c-0.337,0-0.618-0.224-0.618-0.5v-4.036c0-0.281,0.281-0.505,0.618-0.505h7.313
	l2.408-9.88c1.087-4.439,4.229-8.235,9.396-8.235h54.321c5.168,0,8.094,3.833,9.392,8.235l2.918,9.88h6.266
	c0.338,0,0.614,0.224,0.614,0.505v4.036c0,0.276-0.276,0.5-0.614,0.5h-4.78L192.25,147.991L192.25,147.991z M185.183,145.521
	L185.183,145.521h0.244l-5.185-17.065c-0.219-0.724-1.009-2.738-1.831-3.312h-57.332c-0.813,0.468-1.506,2.367-1.681,3.051
	l-4.357,17.326h0.203l-0.203,0.839h70.386L185.183,145.521L185.183,145.521z M172.898,155.202L172.898,155.202h15.938
	c0.456,0,0.826,0.301,0.826,0.675v5.44c0,0.375-0.37,0.676-0.826,0.676h-15.938c-0.46,0-0.83-0.301-0.83-0.676v-5.44
	C172.068,155.503,172.438,155.202,172.898,155.202L172.898,155.202z M192.975,155.918L192.975,155.918v5.737h3.634v-5.737H192.975
	L192.975,155.918z M112.579,155.418L112.579,155.418H127.5c0.46,0,0.83,0.305,0.83,0.679v5.437c0,0.374-0.37,0.676-0.83,0.676
	h-14.921c-0.458,0-0.83-0.302-0.83-0.676v-5.437C111.749,155.723,112.121,155.418,112.579,155.418L112.579,155.418z
	 M104.256,161.655L104.256,161.655h3.591v-5.737h-3.591V161.655L104.256,161.655z M87.859,77.833L87.859,77.833v6.159h29.285
	c6.104,0,11.263-6.7,11.263-12.797V36.49c0.013-3.505,4.391-7.499,7.959-7.499h4.085c3.569,0,8.086,3.994,8.086,7.499l-0.094,44.234
	h6.466V35.223c0-5.77-7.223-13.112-13.099-13.112h-6.722c-5.876,0-13.306,7.342-13.306,13.112l-0.004,34.436
	c-0.005,4.497-2.267,8.175-6.759,8.175H87.859L87.859,77.833z"/>
</svg>
