<?xml version="1.0" encoding="utf-8"?>
<!DOCTYPE svg PUBLIC "-//W3C//DTD SVG 1.1//EN" "http://www.w3.org/Graphics/SVG/1.1/DTD/svg11.dtd">
<svg version="1.1" xmlns="http://www.w3.org/2000/svg" xmlns:xlink="http://www.w3.org/1999/xlink" x="0px" y="0px" width="216px" height="216px" viewBox="0 0 216 216" enable-background="new 0 0 216 216" xml:space="preserve">
<path fill-rule="evenodd" clip-rule="evenodd" d="M192.975,155.918v5.737h3.634v-5.737H192.975
	L192.975,155.918z M104.256,161.655L104.256,161.655h3.591v-5.737h-3.591V161.655L104.256,161.655z M17.754,168.108L17.754,168.108
	h68.587c1.505,0,2.738,0.802,2.738,1.778v6.824c0,0.98-1.233,1.778-2.738,1.778H17.754c-1.505,0-2.738-0.798-2.738-1.778v-6.824
	C15.016,168.91,16.249,168.108,17.754,168.108L17.754,168.108z M141.733,82.897L141.733,82.897h-0.631
	c-5.11,0-9.289,4.181-9.289,9.292v9.29h8.231v10.872c0,0.989,0.81,1.795,1.799,1.795h2.637c0.988,0,1.794-0.806,1.794-1.795v-10.872
	h10.03v10.872c0,0.989,0.806,1.795,1.799,1.795h2.637c0.988,0,1.798-0.806,1.798-1.795v-10.872h8.338v-9.29
	c0-5.111-4.179-9.292-9.294-9.292h-1.97H141.733L141.733,82.897z M48.99,45.08L48.99,45.08h5.3v17.092h-5.3V45.08L48.99,45.08z
	 M41.566,45.08L41.566,45.08h5.302v17.092h-5.302V45.08L41.566,45.08z M34.143,45.08L34.143,45.08h5.302v17.092h-5.302V45.08
	L34.143,45.08z"/>
</svg>
