<?xml version="1.0" encoding="utf-8"?>
<!DOCTYPE svg PUBLIC "-//W3C//DTD SVG 1.1//EN" "http://www.w3.org/Graphics/SVG/1.1/DTD/svg11.dtd">
<svg version="1.1" xmlns="http://www.w3.org/2000/svg" xmlns:xlink="http://www.w3.org/1999/xlink" x="0px" y="0px" width="216px" height="216px" viewBox="0 0 216 216" enable-background="new 0 0 216 216" xml:space="preserve">
<path fill-rule="evenodd" clip-rule="evenodd" d="M16.119,4.918h183.602c6.161,0,11.198,5.04,11.198,11.2
	v183.602c0,6.161-5.037,11.198-11.198,11.198H16.119c-6.161,0-11.2-5.037-11.2-11.198V16.119C4.918,9.958,9.958,4.918,16.119,4.918
	L16.119,4.918z M16.119-0.08h183.602c8.911,0,16.199,7.29,16.199,16.199v183.602c0,8.907-7.288,16.199-16.199,16.199H16.119
	c-8.909,0-16.199-7.292-16.199-16.199V16.119C-0.08,7.209,7.209-0.08,16.119-0.08L16.119-0.08z M196.665,168.602v9.696h-2.763v0.024
	h-14.07v-0.024H120.79v0.024h-14.064v-0.024h-2.513v-9.696H196.665L196.665,168.602z M39.247,147.548L39.247,147.548l30.544-33.057
	H55.484l12.372-20.756H48.122l-13.127,28.491h13.918L39.247,147.548L39.247,147.548z M85.451,164.329L85.451,164.329H20.098V45.324
	c0-12.58,10.292-22.874,22.872-22.874h19.606c12.58,0,22.874,10.294,22.874,22.874C85.451,81.9,85.451,127.138,85.451,164.329
	L85.451,164.329z M43.965,30.586L43.965,30.586h16.663c8.547,0,15.542,6.991,15.542,15.54v19.428c0,2.136-1.75,3.886-3.886,3.886
	H32.309c-2.138,0-3.888-1.75-3.888-3.886V46.125C28.421,37.577,35.416,30.586,43.965,30.586L43.965,30.586z"/>
</svg>
