<?xml version="1.0" encoding="utf-8"?>
<!DOCTYPE svg PUBLIC "-//W3C//DTD SVG 1.1//EN" "http://www.w3.org/Graphics/SVG/1.1/DTD/svg11.dtd">
<svg version="1.1" xmlns="http://www.w3.org/2000/svg" xmlns:xlink="http://www.w3.org/1999/xlink" x="0px" y="0px" width="216px" height="216px" viewBox="0 0 216 216" enable-background="new 0 0 216 216" xml:space="preserve">
<path id="_x33_" fill-rule="evenodd" clip-rule="evenodd" fill="#F58031" d="M192.975,155.918v5.737h3.634v-5.737H192.975
	L192.975,155.918z M104.256,161.655L104.256,161.655h3.591v-5.737h-3.591V161.655L104.256,161.655z M17.754,168.108L17.754,168.108
	h68.587c1.505,0,2.738,0.802,2.738,1.778v6.824c0,0.98-1.233,1.778-2.738,1.778H17.754c-1.505,0-2.738-0.798-2.738-1.778v-6.824
	C15.016,168.91,16.249,168.108,17.754,168.108L17.754,168.108z M141.733,82.897L141.733,82.897h-0.631
	c-5.11,0-9.289,4.181-9.289,9.292v9.29h8.231v10.872c0,0.989,0.81,1.795,1.799,1.795h2.637c0.988,0,1.794-0.806,1.794-1.795v-10.872
	h10.03v10.872c0,0.989,0.806,1.795,1.799,1.795h2.637c0.988,0,1.798-0.806,1.798-1.795v-10.872h8.338v-9.29
	c0-5.111-4.179-9.292-9.294-9.292h-1.97H141.733L141.733,82.897z M48.99,45.08L48.99,45.08h5.3v17.092h-5.3V45.08L48.99,45.08z
	 M41.566,45.08L41.566,45.08h5.302v17.092h-5.302V45.08L41.566,45.08z M34.143,45.08L34.143,45.08h5.302v17.092h-5.302V45.08
	L34.143,45.08z"/>
<path id="_x32_" fill-rule="evenodd" clip-rule="evenodd" fill="#999557" d="M16.119,4.918h183.602c6.161,0,11.198,5.04,11.198,11.2
	v183.602c0,6.161-5.037,11.198-11.198,11.198H16.119c-6.161,0-11.2-5.037-11.2-11.198V16.119C4.918,9.958,9.958,4.918,16.119,4.918
	L16.119,4.918z M16.119-0.08h183.602c8.911,0,16.199,7.29,16.199,16.199v183.602c0,8.907-7.288,16.199-16.199,16.199H16.119
	c-8.909,0-16.199-7.292-16.199-16.199V16.119C-0.08,7.209,7.209-0.08,16.119-0.08L16.119-0.08z M196.665,168.602v9.696h-2.763v0.024
	h-14.07v-0.024H120.79v0.024h-14.064v-0.024h-2.513v-9.696H196.665L196.665,168.602z M39.247,147.548L39.247,147.548l30.544-33.057
	H55.484l12.372-20.756H48.122l-13.127,28.491h13.918L39.247,147.548L39.247,147.548z M85.451,164.329L85.451,164.329H20.098V45.324
	c0-12.58,10.292-22.874,22.872-22.874h19.606c12.58,0,22.874,10.294,22.874,22.874C85.451,81.9,85.451,127.138,85.451,164.329
	L85.451,164.329z M43.965,30.586L43.965,30.586h16.663c8.547,0,15.542,6.991,15.542,15.54v19.428c0,2.136-1.75,3.886-3.886,3.886
	H32.309c-2.138,0-3.888-1.75-3.888-3.886V46.125C28.421,37.577,35.416,30.586,43.965,30.586L43.965,30.586z"/>
<path id="_x31_" fill-rule="evenodd" clip-rule="evenodd" fill="#7E5628" d="M58.564,45.127h5.115v17.1h-5.115V45.127L58.564,45.127
	z M193.902,181.435v11.91c0,1.587-1.587,2.881-3.516,2.881h-7.039c-1.934,0-3.516-1.294-3.516-2.881v-11.91H193.902L193.902,181.435
	z M120.79,181.435L120.79,181.435v11.91c0,1.587-1.579,2.881-3.516,2.881h-7.033c-1.935,0-3.516-1.294-3.516-2.881v-11.91H120.79
	L120.79,181.435z M192.25,147.991L192.25,147.991c2.661,1.485,4.415,3.988,4.415,6.812v10.815h-92.452v-10.815
	c0-2.722,1.632-5.146,4.134-6.645l1.267-5.196h-6.081c-0.337,0-0.618-0.224-0.618-0.5v-4.036c0-0.281,0.281-0.505,0.618-0.505h7.313
	l2.408-9.88c1.087-4.439,4.229-8.235,9.396-8.235h54.321c5.168,0,8.094,3.833,9.392,8.235l2.918,9.88h6.266
	c0.338,0,0.614,0.224,0.614,0.505v4.036c0,0.276-0.276,0.5-0.614,0.5h-4.78L192.25,147.991L192.25,147.991z M185.183,145.521
	L185.183,145.521h0.244l-5.185-17.065c-0.219-0.724-1.009-2.738-1.831-3.312h-57.332c-0.813,0.468-1.506,2.367-1.681,3.051
	l-4.357,17.326h0.203l-0.203,0.839h70.386L185.183,145.521L185.183,145.521z M172.898,155.202L172.898,155.202h15.938
	c0.456,0,0.826,0.301,0.826,0.675v5.44c0,0.375-0.37,0.676-0.826,0.676h-15.938c-0.46,0-0.83-0.301-0.83-0.676v-5.44
	C172.068,155.503,172.438,155.202,172.898,155.202L172.898,155.202z M192.975,155.918L192.975,155.918v5.737h3.634v-5.737H192.975
	L192.975,155.918z M112.579,155.418L112.579,155.418H127.5c0.46,0,0.83,0.305,0.83,0.679v5.437c0,0.374-0.37,0.676-0.83,0.676
	h-14.921c-0.458,0-0.83-0.302-0.83-0.676v-5.437C111.749,155.723,112.121,155.418,112.579,155.418L112.579,155.418z
	 M104.256,161.655L104.256,161.655h3.591v-5.737h-3.591V161.655L104.256,161.655z M87.859,77.833L87.859,77.833v6.159h29.285
	c6.104,0,11.263-6.7,11.263-12.797V36.49c0.013-3.505,4.391-7.499,7.959-7.499h4.085c3.569,0,8.086,3.994,8.086,7.499l-0.094,44.234
	h6.466V35.223c0-5.77-7.223-13.112-13.099-13.112h-6.722c-5.876,0-13.306,7.342-13.306,13.112l-0.004,34.436
	c-0.005,4.497-2.267,8.175-6.759,8.175H87.859L87.859,77.833z"/>
</svg>
