<?xml version="1.0" encoding="utf-8"?>
<!DOCTYPE svg PUBLIC "-//W3C//DTD SVG 1.1//EN" "http://www.w3.org/Graphics/SVG/1.1/DTD/svg11.dtd">
<svg version="1.1" xmlns="http://www.w3.org/2000/svg" xmlns:xlink="http://www.w3.org/1999/xlink" x="0px" y="0px" width="216px" height="216px" viewBox="0 0 216 216" enable-background="new 0 0 216 216" xml:space="preserve">
<path fill-rule="evenodd" clip-rule="evenodd" d="M63.738,115.5L63.738,115.5
	c-0.071,3.491-2.372,6.438-2.372,6.438c0-6.49-4.499-11.655-4.499-11.655s-0.059,3.863-2.339,7.762
	c-2.277-9.093-9.115-14.285-9.115-14.285c3.418,14.285-1.142,19.476-1.142,29.865c0,6.091,4.529,11.877,11.451,11.877
	c10.256,0,12.241-4.284,13.299-9.114C70.483,129.729,68.293,121.99,63.738,115.5L63.738,115.5z M62.09,126.043L62.09,126.043
	c-0.012,0.017-0.026,0.033-0.041,0.049l-4.671,5.994v-8.016c0-0.277-0.02-0.566-0.059-0.855l-3.086,5.278l-1.591-6.34
	c-0.112-0.46-0.258-0.928-0.431-1.396c-0.148,1.619-0.417,3.308-0.786,5.196c-0.419,2.152-0.789,4.158-0.789,6.38
	c0,3.32,2.702,5.359,5.424,5.359c1.998,0,5.327-0.082,6.337-2.523c0.214-0.509,0.354-1.078,0.474-1.623
	C63.417,131.072,62.994,128.444,62.09,126.043L62.09,126.043z M123.085,68.037L123.085,68.037c-0.265,0.57-0.513,0.824-0.513,1.614
	v20.933c0,0.889-0.102,1.371,0.456,1.809h-2.263c-0.606,0-1.033-0.429-1.033-1.034V69.651c0-0.92,0.036-1.583,0.911-1.618
	L123.085,68.037L123.085,68.037z M148.675,95.235c0.094-0.202,0.261-0.962,0.261-1.292V66.29c0-0.602-0.691-1.292-1.294-1.292
	h-29.72c-0.794,0-1.551,0.24-1.551,1.034v28.428c0,0.604,0.428,1.034,1.033,1.034h29.981
	C148.081,95.493,148.094,95.369,148.675,95.235L148.675,95.235z"/>
</svg>
