<?xml version="1.0" encoding="utf-8"?>
<!DOCTYPE svg PUBLIC "-//W3C//DTD SVG 1.1//EN" "http://www.w3.org/Graphics/SVG/1.1/DTD/svg11.dtd">
<svg version="1.1" xmlns="http://www.w3.org/2000/svg" xmlns:xlink="http://www.w3.org/1999/xlink" x="0px" y="0px" width="216px" height="216px" viewBox="0 0 216 216" enable-background="new 0 0 216 216" xml:space="preserve">
<path fill-rule="evenodd" clip-rule="evenodd" d="M16.119,4.918h183.602c6.161,0,11.198,5.04,11.198,11.2
	v183.602c0,6.161-5.037,11.198-11.198,11.198H16.119c-6.161,0-11.2-5.037-11.2-11.198V16.119C4.918,9.958,9.958,4.918,16.119,4.918
	L16.119,4.918z M16.119-0.08h183.602c8.911,0,16.199,7.29,16.199,16.199v183.602c0,8.907-7.288,16.199-16.199,16.199H16.119
	c-8.909,0-16.199-7.292-16.199-16.199V16.119C-0.08,7.209,7.209-0.08,16.119-0.08L16.119-0.08z M111.721,62.672L111.721,62.672
	c0-1.251,0.817-2.067,2.066-2.067h47.29c1.063,0,1.555,1.42,1.555,2.583v34.115c0,1.164-0.492,2.584-1.555,2.584h-47.807
	c-0.838,0-1.55-1.123-1.55-2.067V62.672L111.721,62.672z M108.361,62.156L108.361,62.156v36.18c0,2.4,2.118,4.911,4.393,4.911
	h48.845c2.148,0,4.391-2.553,4.391-4.911V62.672c0-3.327-2.12-5.428-5.425-5.428h-46.777
	C110.766,57.244,108.361,59.214,108.361,62.156L108.361,62.156z M152.992,78.535L152.992,78.535c1.127,0,2.039,0.916,2.039,2.039
	c0,1.125-0.912,2.038-2.039,2.038s-2.034-0.913-2.034-2.038C150.958,79.451,151.865,78.535,152.992,78.535L152.992,78.535z
	 M152.992,84.087L152.992,84.087c1.127,0,2.039,0.912,2.039,2.037c0,1.127-0.912,2.039-2.039,2.039s-2.034-0.911-2.034-2.039
	C150.958,84.999,151.865,84.087,152.992,84.087L152.992,84.087z M152.992,89.64L152.992,89.64c1.127,0,2.039,0.91,2.039,2.037
	c0,1.127-0.912,2.037-2.039,2.037s-2.034-0.909-2.034-2.037C150.958,90.549,151.865,89.64,152.992,89.64L152.992,89.64z
	 M158.66,78.535L158.66,78.535c1.123,0,2.039,0.916,2.039,2.039c0,1.125-0.916,2.038-2.039,2.038c-1.127,0-2.038-0.913-2.038-2.038
	C156.622,79.451,157.533,78.535,158.66,78.535L158.66,78.535z M158.66,84.087L158.66,84.087c1.123,0,2.039,0.912,2.039,2.037
	c0,1.127-0.916,2.039-2.039,2.039c-1.127,0-2.038-0.911-2.038-2.039C156.622,84.999,157.533,84.087,158.66,84.087L158.66,84.087z
	 M158.66,89.64L158.66,89.64c1.123,0,2.039,0.91,2.039,2.037c0,1.127-0.916,2.037-2.039,2.037c-1.127,0-2.038-0.909-2.038-2.037
	C156.622,90.549,157.533,89.64,158.66,89.64L158.66,89.64z M156.053,66.412L156.053,66.412c0.915,0,1.77,0.281,2.478,0.757
	l-6.148,6.145c-0.476-0.708-0.757-1.561-0.757-2.474C151.625,68.394,153.611,66.412,156.053,66.412L156.053,66.412z M159.642,68.247
	c0.528,0.73,0.838,1.624,0.838,2.592c0,2.441-1.981,4.425-4.427,4.425c-0.969,0-1.86-0.313-2.588-0.838L159.642,68.247
	L159.642,68.247z M79.661,166.367H19.176v-15.275h60.484C79.661,158.188,79.661,163.186,79.661,166.367L79.661,166.367z
	 M76.977,146.767L76.977,146.767h2.686c0.132-7.031,4.604-12.228,10.726-12.532v-25.659H76.977V146.767L76.977,146.767z
	 M25.581,146.767L25.581,146.767h11.171v-38.191H25.581V146.767L25.581,146.767z M19.176,104.17L19.176,104.17h78.213V88.891H19.176
	V104.17L19.176,104.17z M25.681,85.888L25.681,85.888h64.806L74.843,22.234H41.324L25.681,85.888L25.681,85.888z"/>
</svg>
