<?xml version="1.0" encoding="utf-8"?>
<!DOCTYPE svg PUBLIC "-//W3C//DTD SVG 1.1//EN" "http://www.w3.org/Graphics/SVG/1.1/DTD/svg11.dtd">
<svg version="1.1" xmlns="http://www.w3.org/2000/svg" xmlns:xlink="http://www.w3.org/1999/xlink" x="0px" y="0px" width="216px" height="216px" viewBox="0 0 216 216" enable-background="new 0 0 216 216" xml:space="preserve">
<path id="_x33_" fill-rule="evenodd" clip-rule="evenodd" fill="#F58031" d="M63.738,115.5L63.738,115.5
	c-0.071,3.491-2.372,6.438-2.372,6.438c0-6.49-4.499-11.655-4.499-11.655s-0.059,3.863-2.339,7.762
	c-2.277-9.093-9.115-14.285-9.115-14.285c3.418,14.285-1.142,19.476-1.142,29.865c0,6.091,4.529,11.877,11.451,11.877
	c10.256,0,12.241-4.284,13.299-9.114C70.483,129.729,68.293,121.99,63.738,115.5L63.738,115.5z M62.09,126.043L62.09,126.043
	c-0.012,0.017-0.026,0.033-0.041,0.049l-4.671,5.994v-8.016c0-0.277-0.02-0.566-0.059-0.855l-3.086,5.278l-1.591-6.34
	c-0.112-0.46-0.258-0.928-0.431-1.396c-0.148,1.619-0.417,3.308-0.786,5.196c-0.419,2.152-0.789,4.158-0.789,6.38
	c0,3.32,2.702,5.359,5.424,5.359c1.998,0,5.327-0.082,6.337-2.523c0.214-0.509,0.354-1.078,0.474-1.623
	C63.417,131.072,62.994,128.444,62.09,126.043L62.09,126.043z M123.085,68.037L123.085,68.037c-0.265,0.57-0.513,0.824-0.513,1.614
	v20.933c0,0.889-0.102,1.371,0.456,1.809h-2.263c-0.606,0-1.033-0.429-1.033-1.034V69.651c0-0.92,0.036-1.583,0.911-1.618
	L123.085,68.037L123.085,68.037z M148.675,95.235c0.094-0.202,0.261-0.962,0.261-1.292V66.29c0-0.602-0.691-1.292-1.294-1.292
	h-29.72c-0.794,0-1.551,0.24-1.551,1.034v28.428c0,0.604,0.428,1.034,1.033,1.034h29.981
	C148.081,95.493,148.094,95.369,148.675,95.235L148.675,95.235z"/>
<path id="_x32_" fill-rule="evenodd" clip-rule="evenodd" fill="#999557" d="M16.119,4.918h183.602c6.161,0,11.198,5.04,11.198,11.2
	v183.602c0,6.161-5.037,11.198-11.198,11.198H16.119c-6.161,0-11.2-5.037-11.2-11.198V16.119C4.918,9.958,9.958,4.918,16.119,4.918
	L16.119,4.918z M16.119-0.08h183.602c8.911,0,16.199,7.29,16.199,16.199v183.602c0,8.907-7.288,16.199-16.199,16.199H16.119
	c-8.909,0-16.199-7.292-16.199-16.199V16.119C-0.08,7.209,7.209-0.08,16.119-0.08L16.119-0.08z M111.721,62.672L111.721,62.672
	c0-1.251,0.817-2.067,2.066-2.067h47.29c1.063,0,1.555,1.42,1.555,2.583v34.115c0,1.164-0.492,2.584-1.555,2.584h-47.807
	c-0.838,0-1.55-1.123-1.55-2.067V62.672L111.721,62.672z M108.361,62.156L108.361,62.156v36.18c0,2.4,2.118,4.911,4.393,4.911
	h48.845c2.148,0,4.391-2.553,4.391-4.911V62.672c0-3.327-2.12-5.428-5.425-5.428h-46.777
	C110.766,57.244,108.361,59.214,108.361,62.156L108.361,62.156z M152.992,78.535L152.992,78.535c1.127,0,2.039,0.916,2.039,2.039
	c0,1.125-0.912,2.038-2.039,2.038s-2.034-0.913-2.034-2.038C150.958,79.451,151.865,78.535,152.992,78.535L152.992,78.535z
	 M152.992,84.087L152.992,84.087c1.127,0,2.039,0.912,2.039,2.037c0,1.127-0.912,2.039-2.039,2.039s-2.034-0.911-2.034-2.039
	C150.958,84.999,151.865,84.087,152.992,84.087L152.992,84.087z M152.992,89.64L152.992,89.64c1.127,0,2.039,0.91,2.039,2.037
	c0,1.127-0.912,2.037-2.039,2.037s-2.034-0.909-2.034-2.037C150.958,90.549,151.865,89.64,152.992,89.64L152.992,89.64z
	 M158.66,78.535L158.66,78.535c1.123,0,2.039,0.916,2.039,2.039c0,1.125-0.916,2.038-2.039,2.038c-1.127,0-2.038-0.913-2.038-2.038
	C156.622,79.451,157.533,78.535,158.66,78.535L158.66,78.535z M158.66,84.087L158.66,84.087c1.123,0,2.039,0.912,2.039,2.037
	c0,1.127-0.916,2.039-2.039,2.039c-1.127,0-2.038-0.911-2.038-2.039C156.622,84.999,157.533,84.087,158.66,84.087L158.66,84.087z
	 M158.66,89.64L158.66,89.64c1.123,0,2.039,0.91,2.039,2.037c0,1.127-0.916,2.037-2.039,2.037c-1.127,0-2.038-0.909-2.038-2.037
	C156.622,90.549,157.533,89.64,158.66,89.64L158.66,89.64z M156.053,66.412L156.053,66.412c0.915,0,1.77,0.281,2.478,0.757
	l-6.148,6.145c-0.476-0.708-0.757-1.561-0.757-2.474C151.625,68.394,153.611,66.412,156.053,66.412L156.053,66.412z M159.642,68.247
	c0.528,0.73,0.838,1.624,0.838,2.592c0,2.441-1.981,4.425-4.427,4.425c-0.969,0-1.86-0.313-2.588-0.838L159.642,68.247
	L159.642,68.247z M79.661,166.367H19.176v-15.275h60.484C79.661,158.188,79.661,163.186,79.661,166.367L79.661,166.367z
	 M76.977,146.767L76.977,146.767h2.686c0.132-7.031,4.604-12.228,10.726-12.532v-25.659H76.977V146.767L76.977,146.767z
	 M25.581,146.767L25.581,146.767h11.171v-38.191H25.581V146.767L25.581,146.767z M19.176,104.17L19.176,104.17h78.213V88.891H19.176
	V104.17L19.176,104.17z M25.681,85.888L25.681,85.888h64.806L74.843,22.234H41.324L25.681,85.888L25.681,85.888z"/>
<path id="_x31_" fill-rule="evenodd" clip-rule="evenodd" fill="#7E5628" d="M147.035,29.892L147.035,29.892
	c-10.339,0-22.733-3.475-32.576-8.427c20.406,0,37.382,0,59.334,0C167.413,26.179,157.317,29.892,147.035,29.892L147.035,29.892z
	 M101.196,21.465L101.196,21.465h8.116c0.847,0.539,1.758,1.092,2.751,1.664c8.438,4.887,21.073,9.831,34.358,9.831h4.297
	c5.985,0,13.875-3.583,18.209-5.731c3.764-1.861,6.071-3.819,8.244-5.764h2.49c-3.553,3.931-9.266,8.439-11.87,10.152
	c-4.968,3.271-14.595,6.866-22.595,6.866C129.966,38.484,112.23,31.854,101.196,21.465L101.196,21.465z M90.887,21.465
	L90.887,21.465h6.157c2.626,3.438,5.731,6.36,8.986,8.927c12.375,9.764,17.316,10.549,35.614,13.487
	c13.412,2.155,28.833-7.684,35.006-13.836c1.746-1.733,4.094-4.846,6.47-8.578h8.924c-7.694,18.325-29.696,29.907-51.758,29.907
	c-12.26,0-22.368-4.004-30.093-8.573c-4.989-2.95-6.871-4.767-10.876-8.763c-4.081-4.073-4.917-7.196-8.132-10.899v-1.225
	L90.887,21.465L90.887,21.465z M179.567,102.146V86.36c0-7.573,0-15.143,0-22.711c0-4.596-1.729-19.914,1.839-20.868l3.87,59.365
	H179.567L179.567,102.146z M187.42,102.146L187.42,102.146l-3.719-63.617l0.777-0.045h1.229l8.391,63.662H187.42L187.42,102.146z
	 M196.25,62.552L196.25,62.552V90.96c-1.525-8.659-3.629-18.318-4.472-24.79c-0.794-6.094-2.12-12.716-3.251-19.458
	c-1.547-9.194-2.543-10.156,2.087-16.819L196.25,62.552L196.25,62.552z M196.226,45.786L196.226,45.786
	c-0.175-0.896-0.333-1.774-0.488-2.629c-0.948-5.401-1.375-9.42-2.425-14.76c-0.717-3.644-0.59-5.446-0.184-6.932h3.097V45.786
	L196.226,45.786z M178.285,147.418L178.285,147.418v36.556c0,5.485,1.136,10.156,6.039,10.156l6.604-0.089l-2.486-10.067
	c2.454-3.662,4.062-3.568,4.062-8.121v-26.404c0-4.757-3.369-8.122-8.122-8.122C179.697,141.326,178.285,142.738,178.285,147.418
	L178.285,147.418z M101.108,183.974L101.108,183.974h73.116v-14.213c-2.479,1.388-2.173,2.026-6.092,2.026h-60.929
	c-4.51,0-4.419-0.126-6.095-2.026V183.974L101.108,183.974z M101.108,159.601L101.108,159.601v8.126h67.024
	c4.676,0,6.092-1.412,6.092-6.092v-2.034c0-4.68-1.416-6.092-6.092-6.092h-60.929C102.521,153.509,101.108,154.921,101.108,159.601
	L101.108,159.601z M97.045,121.014L97.045,121.014v12.188c0,9.411,3.791,6.107,4.063,18.277h34.525v-30.465h4.065v30.465h34.525
	c0.31-13.847,4.061-9.176,4.061-17.053v-13.412c0-6.241-5.948-8.121-12.187-8.121h-56.866
	C102.996,112.893,97.045,114.772,97.045,121.014L97.045,121.014z M82.828,149.448L82.828,149.448v26.404
	c0,4.553,1.607,4.459,3.99,8.089l-3.99,10.188h8.124c4.681,0,6.093-1.411,6.093-6.095v-40.617c0-4.68-1.412-6.092-6.093-6.092
	C86.199,141.326,82.828,144.691,82.828,149.448L82.828,149.448z"/>
</svg>
