<?xml version="1.0" encoding="utf-8"?>
<!DOCTYPE svg PUBLIC "-//W3C//DTD SVG 1.1//EN" "http://www.w3.org/Graphics/SVG/1.1/DTD/svg11.dtd">
<svg version="1.1" xmlns="http://www.w3.org/2000/svg" xmlns:xlink="http://www.w3.org/1999/xlink" x="0px" y="0px" width="216px" height="216px" viewBox="0 0 216 216" enable-background="new 0 0 216 216" xml:space="preserve">
<path fill-rule="evenodd" clip-rule="evenodd" d="M151.764,129.246l-6.547,13.813l-3.451-1.636
	l5.774-12.178H151.764L151.764,129.246z M156.854,109.653L156.854,109.653h-19.689l-3.007,15.856l-0.261,2.768
	c-0.028,0.313-0.049,0.631-0.065,0.948h13.741L156.854,109.653L156.854,109.653z M167.254,28.484L167.254,28.484l5.868,6.637
	c0.402,0.458,0.357,1.158-0.098,1.563l-13.55,11.983l-7.333-8.295l13.55-11.979C166.144,27.988,166.848,28.029,167.254,28.484
	L167.254,28.484z M41.778,117.624L41.778,117.624h37.384v56.283H41.778V117.624L41.778,117.624z M176.642,129.226L176.642,129.226
	c-0.065-1.433-0.285-2.849-0.655-4.232l-0.114-0.423l-2.148-14.917h-12.642l-9.282,19.572H176.642L176.642,129.226z"/>
</svg>
