<?xml version="1.0" encoding="utf-8"?>
<!DOCTYPE svg PUBLIC "-//W3C//DTD SVG 1.1//EN" "http://www.w3.org/Graphics/SVG/1.1/DTD/svg11.dtd">
<svg version="1.1" xmlns="http://www.w3.org/2000/svg" xmlns:xlink="http://www.w3.org/1999/xlink" x="0px" y="0px" width="216px" height="216px" viewBox="0 0 216 216" enable-background="new 0 0 216 216" xml:space="preserve">
<path fill-rule="evenodd" clip-rule="evenodd" d="M16.119-0.08h183.602
	c8.911,0,16.199,7.29,16.199,16.199v183.602c0,8.907-7.288,16.199-16.199,16.199H16.119c-8.909,0-16.199-7.292-16.199-16.199V16.119
	C-0.08,7.209,7.209-0.08,16.119-0.08L16.119-0.08z M16.119,4.918h183.602c6.161,0,11.198,5.04,11.198,11.2v183.602
	c0,6.161-5.037,11.198-11.198,11.198H16.119c-6.161,0-11.2-5.037-11.2-11.198V16.119C4.918,9.958,9.958,4.918,16.119,4.918
	L16.119,4.918z M100.404,195.014H21.256v-87.062v-4.398h0.246c1.595-14.425,10.95-26.518,23.792-32.007V48.443h31.073v23.104
	c12.844,5.489,22.198,17.582,23.793,32.007h0.244v4.398V195.014L100.404,195.014z M39.257,108.931L39.257,108.931h42.749
	c3.115,0,5.666,2.653,5.666,5.894v61.625c0,3.243-2.551,5.892-5.666,5.892H39.257c-3.115,0-5.667-2.648-5.667-5.892v-61.625
	C33.591,111.584,36.142,108.931,39.257,108.931L39.257,108.931z M100.087,22.043L100.087,22.043c2.832-2.28,7.227,1.313,8.454,3.255
	c1.518,2.405,5.682,5.451,5.682,8.999c0,5.544-8.27,11.389-9.825,17.458c-0.899,3.516-0.128,2.092,0.106,7.894
	c0.238,5.798,3.017,13.544-0.094,15.182c-3.106,1.638-4.742-6.228-6.185-10.24c-1.44-4.012-2.085-10.048-2.189-13.293
	c-0.213-6.728,6.856-14.093,7.076-16.699c0.22-2.604-3.182-4.523-4.578-6.506C97.137,26.108,98.582,23.254,100.087,22.043
	L100.087,22.043z M159.21,150.299L159.21,150.299c9.818-1.859,17.439-10.047,17.439-20.174c0-1.734-0.224-3.459-0.68-5.132
	l-0.109-0.423l-3.857-26.784h-32.601l-5.258,27.724l-0.256,2.768c-0.058,0.614-0.09,1.232-0.09,1.848
	c0,9.879,7.264,18.033,16.789,20.048C153.509,150.856,156.423,150.901,159.21,150.299L159.21,150.299z M183.042,123.098
	L183.042,123.098c0.599,2.242,0.92,4.598,0.92,7.027c0,13.631-10.107,24.971-23.462,27.372c-1.44,9.826-0.708,19.649,1.94,29.476
	c5.485,0.525,10.881,1.648,16.37,3.557c2.307,1.396,2.86,4.366,0,4.472l-45.472,0.094c-2.4-0.017-2.307-3.26-0.089-4.565
	c4.96-1.726,10.021-2.796,14.985-3.39c1.767-9.933,2.263-19.877,0.843-29.81c-12.919-2.73-22.596-13.871-22.596-27.205
	c0-0.851,0.041-1.697,0.118-2.531l0.069-0.366l6.669-36.758h44.999L183.042,123.098L183.042,123.098z"/>
</svg>
