<?xml version="1.0" encoding="utf-8"?>
<!DOCTYPE svg PUBLIC "-//W3C//DTD SVG 1.1//EN" "http://www.w3.org/Graphics/SVG/1.1/DTD/svg11.dtd">
<svg version="1.1" xmlns="http://www.w3.org/2000/svg" xmlns:xlink="http://www.w3.org/1999/xlink" x="0px" y="0px" width="216px" height="216px" viewBox="0 0 216 216" enable-background="new 0 0 216 216" xml:space="preserve">
<path fill-rule="evenodd" clip-rule="evenodd" d="M192.287,64.735l2.295,2.991l-19.499,12.482
	l-4.87,10.262h-4.224l5.407-11.405L192.287,64.735L192.287,64.735z M166.746,97.786L166.746,97.786l-5.628,11.867h-4.228
	l5.632-11.867H166.746L166.746,97.786z M157.944,150.526L157.944,150.526l1.266-0.228c8.744-1.656,15.747-8.329,17.171-16.928
	c0.028-0.15,0.049-0.301,0.069-0.451l0,0c0.024-0.15,0.049-0.305,0.062-0.456v-0.004c0.016-0.15,0.036-0.305,0.053-0.46l0,0
	c0.016-0.154,0.024-0.309,0.036-0.464c0.013-0.154,0.021-0.313,0.028-0.468c0.005-0.154,0.013-0.313,0.017-0.468
	c0-0.159,0.004-0.317,0.004-0.476v-0.013v-0.017v-0.012v-0.017v-0.012v-0.013v-0.004v-0.012v-0.017v-0.013v-0.016v-0.013v-0.004
	v-0.013v-0.012v-0.012v-0.017V129.9v-0.016v-0.004l-0.004-0.009v-0.012v-0.017v-0.012v-0.017v-0.013v-0.004v-0.012v-0.013v-0.017
	v-0.012v-0.017v-0.012l0,0v-0.013v-0.016v-0.017v-0.013v-0.016v-0.004v-0.009v-0.012v-0.017v-0.016v-0.013l-0.004-0.013v-0.004
	v-0.012v-0.013v-0.016v-0.013v-0.016v-0.013l0,0v-0.013l-0.004-0.016v-0.013v-0.016v-0.013v-0.012v-0.004v-0.013l-0.004-0.017
	v-0.012v-0.013v-0.016v-0.009v-0.008v-0.012v-0.013v-0.017v-0.012v-0.017v-0.004l-0.005-0.008h-24.841l-6.552,13.81l-3.446-1.636
	l5.771-12.174h-13.741v0.004v0.008v0.017v0.004v0.008l-0.004,0.017v0.004v0.009v0.012v0.008v0.009v0.016l-0.005,0.005v0.008v0.012
	v0.009v0.008v0.013v0.012v0.004v0.013v0.012v0.004v0.013v0.012v0.004v0.013v0.008v0.005v0.016l-0.004,0.013l0,0v0.016v0.013l0,0
	v0.016v0.013v0.013v0.016v0.017l-0.004,0.012l0,0v0.013v0.016l0,0v0.013v0.017v0.004v0.028v0.008v0.017v0.004v0.008l-0.004,0.017
	v0.004v0.009v0.016v0.004v0.009v0.017v0.004v0.008v0.017v0.004v0.008v0.013v0.008v0.008v0.017v0.004v0.009v0.012v0.012l0,0v0.017
	v0.013l0,0v0.016v0.013l0,0v0.017v0.012l0,0v0.017v0.012v0.017v0.012v0.017v0.013c0,9.879,7.264,18.033,16.789,20.048l0.943,0.199
	C153.696,150.779,155.853,150.828,157.944,150.526L157.944,150.526z M46.948,137.607L46.948,137.607h26.878v6.567H46.948V137.607
	L46.948,137.607z M46.948,122.67L46.948,122.67h26.878v9.559H46.948V122.67L46.948,122.67z M149.176,43.324L149.176,43.324
	l7.332,8.297l-43.273,38.275c-0.428,0.376-1.107,0.312-1.51-0.145l-5.868-6.636c-0.403-0.456-0.385-1.138,0.041-1.514
	L149.176,43.324L149.176,43.324z M45.293,21.341L45.293,21.341h31.073V41.64H45.293V21.341L45.293,21.341z"/>
</svg>
