<?xml version="1.0" encoding="utf-8"?>
<!DOCTYPE svg PUBLIC "-//W3C//DTD SVG 1.1//EN" "http://www.w3.org/Graphics/SVG/1.1/DTD/svg11.dtd">
<svg version="1.1" xmlns="http://www.w3.org/2000/svg" xmlns:xlink="http://www.w3.org/1999/xlink" x="0px" y="0px" width="216px" height="216px" viewBox="0 0 216 216" enable-background="new 0 0 216 216" xml:space="preserve">
<path fill-rule="evenodd" clip-rule="evenodd" d="M16.119,4.918h183.602c6.161,0,11.198,5.04,11.198,11.2
	v183.602c0,6.161-5.037,11.198-11.198,11.198H16.119c-6.161,0-11.2-5.037-11.2-11.198V16.119C4.918,9.958,9.958,4.918,16.119,4.918
	L16.119,4.918z M16.119-0.08h183.602c8.911,0,16.199,7.29,16.199,16.199v183.602c0,8.907-7.288,16.199-16.199,16.199H16.119
	c-8.909,0-16.199-7.292-16.199-16.199V16.119C-0.08,7.209,7.209-0.08,16.119-0.08L16.119-0.08z M193.483,181.968
	c0.821,0,1.636,0.041,2.438,0.114V85.188h0.744v-64.13h-21.834l0,0c-4.899,0-8.911,3.705-8.911,8.233v38.937
	c0,4.533,8.333,15.041,13.232,15.041h0.565v57.007c-35.222,3.72-62.109,23.438-62.109,47.197c0,2.93,0.468,5.758,1.31,8.496h51.778
	c3.097-6.303,8.858-11.121,15.861-13.062v-97.72h3.28v97.036C191.025,182.054,192.246,181.968,193.483,181.968L193.483,181.968z
	 M180.715,31.664L180.715,31.664h3.259c1.681,0,3.052,1.268,3.052,2.82v32.129c0,1.552-1.371,2.82-3.052,2.82h-3.259
	c-1.677,0-3.052-1.268-3.052-2.82V34.484C177.663,32.932,179.038,31.664,180.715,31.664L180.715,31.664z M160.109,57.932
	L160.109,57.932c2.197,0,3.979,1.65,3.979,3.679c0,2.032-1.782,3.678-3.979,3.678s-3.979-1.646-3.979-3.678
	C156.13,59.582,157.912,57.932,160.109,57.932L160.109,57.932z M160.109,47.119L160.109,47.119c2.197,0,3.979,1.648,3.979,3.678
	c0,2.028-1.782,3.676-3.979,3.676s-3.979-1.648-3.979-3.676C156.13,48.767,157.912,47.119,160.109,47.119L160.109,47.119z
	 M160.109,36.301L160.109,36.301c2.197,0,3.979,1.648,3.979,3.679c0,2.028-1.782,3.678-3.979,3.678s-3.979-1.65-3.979-3.678
	C156.13,37.949,157.912,36.301,160.109,36.301L160.109,36.301z M179.555,39.399h5.538v4.152h-5.538V39.399L179.555,39.399z
	 M179.555,49.916h5.538v4.154h-5.538V49.916L179.555,49.916z M179.555,60.435h5.538v4.152h-5.538V60.435L179.555,60.435z"/>
</svg>
