<?xml version="1.0" encoding="utf-8"?>
<!DOCTYPE svg PUBLIC "-//W3C//DTD SVG 1.1//EN" "http://www.w3.org/Graphics/SVG/1.1/DTD/svg11.dtd">
<svg version="1.1" xmlns="http://www.w3.org/2000/svg" xmlns:xlink="http://www.w3.org/1999/xlink" x="0px" y="0px" width="216px" height="216px" viewBox="0 0 216 216" enable-background="new 0 0 216 216" xml:space="preserve">
<path fill-rule="evenodd" clip-rule="evenodd" d="M55.842,149.566L55.842,149.566h1.492
	c4.044,0,7.353-3.41,7.353-7.581V105.12h12.154v76.774c0,3.895-3.304,7.08-7.349,7.08h-6.301c-4.041,0-7.349-3.186-7.349-7.08
	V149.566L55.842,149.566z M51.033,149.566L51.033,149.566h1.492v32.328c0,3.895-3.309,7.08-7.349,7.08h-6.303
	c-4.044,0-7.349-3.186-7.349-7.08V105.12h12.158v36.865C43.682,146.156,46.988,149.566,51.033,149.566L51.033,149.566z
	 M100.404,149.566L100.404,149.566h0.757v32.328c0,3.895-3.308,7.08-7.353,7.08H87.51c-4.045,0-7.351-3.186-7.351-7.08V105.12
	h12.896v36.865C93.056,146.156,96.364,149.566,100.404,149.566L100.404,149.566z M36.606,94.468L36.606,94.468l132.569-0.256v36.674
	c-0.684,0.142-3.223,0.549-3.906,0.708V105.12h-12.154v30.042c-1.114,0.398-2.222,0.817-3.316,1.262V105.12h-11.421v36.78
	c-4.664,2.657-9.021,5.729-12.896,9.216v-1.55h-0.757c-4.044,0-7.353-3.41-7.353-7.581V105.12h-3.316v36.865
	c0,4.171-3.308,7.581-7.351,7.581h-2.229v32.328c0,2.576,1.444,4.842,3.591,6.079c0.032,2.779,0.358,5.469,0.926,8.073H36.606
	c-7.297,0-13.269-5.75-13.269-12.781v-76.013C23.337,100.219,29.309,94.48,36.606,94.468L36.606,94.468z"/>
</svg>
