<?xml version="1.0" encoding="utf-8"?>
<!DOCTYPE svg PUBLIC "-//W3C//DTD SVG 1.1//EN" "http://www.w3.org/Graphics/SVG/1.1/DTD/svg11.dtd">
<svg version="1.1" xmlns="http://www.w3.org/2000/svg" xmlns:xlink="http://www.w3.org/1999/xlink" x="0px" y="0px" width="216px" height="216px" viewBox="0 0 216 216" enable-background="new 0 0 216 216" xml:space="preserve">
<path d="M78.287,21.941L78.287,21.941c-0.213,0-0.425,0.016-0.637,0.057l-31.085,5.483
	c-1.746,0.307-3.021,1.827-3.021,3.601v3.658v24.644v3.09c-1.852-1.347-4.26-2.138-6.938-2.138c-1.554,0-3.108,0.256-4.622,0.759
	c-5.363,1.788-10.234,7.306-8.024,13.222c1.388,3.723,5.343,6.13,10.069,6.13c4.883,0,10.089-2.59,12.258-7.125
	c0.592-1.245,0.871-2.552,0.883-3.846l0.032-29.254l31.085-5.426v22.195c-1.854-1.347-4.262-2.141-6.938-2.141
	c-1.555,0-3.109,0.256-4.625,0.759c-5.367,1.792-10.228,7.306-8.022,13.223c1.39,3.721,5.342,6.128,10.066,6.128
	c1.553,0,3.111-0.252,4.623-0.759c4.458-1.481,8.478-5.29,8.519-10.208l0.033-34.741V25.6
	C81.943,23.591,80.281,21.941,78.287,21.941L78.287,21.941z M130.657,21.608L130.657,21.608c-0.093,0-0.183,0.008-0.276,0.022
	l-13.351,2.358c-0.744,0.13-1.298,0.783-1.298,1.546v1.571V37.69v1.327c-0.794-0.58-1.827-0.919-2.975-0.919
	c-0.669,0-1.339,0.112-1.989,0.327c-2.304,0.765-4.395,3.135-3.447,5.679c0.598,1.597,2.294,2.63,4.326,2.63
	c2.095,0,4.333-1.109,5.265-3.06c0.257-0.533,0.375-1.096,0.379-1.647l0.012-12.567l13.354-2.33v9.532
	c-0.797-0.578-1.831-0.919-2.982-0.919c-0.667,0-1.335,0.11-1.985,0.327c-2.308,0.767-4.395,3.137-3.446,5.676
	c0.602,1.602,2.299,2.635,4.325,2.635c0.667,0,1.334-0.11,1.985-0.327c1.917-0.635,3.642-2.275,3.658-4.385l0.017-14.921v-1.569
	C132.229,22.318,131.512,21.608,130.657,21.608L130.657,21.608z M112.054,53.452L112.054,53.452c-0.122,0-0.242,0.012-0.364,0.032
	l-17.826,3.147c-1.003,0.177-1.735,1.046-1.735,2.065v2.098v14.134v1.774c-1.062-0.775-2.443-1.229-3.978-1.229
	c-0.889,0-1.784,0.146-2.651,0.435c-3.076,1.028-5.872,4.189-4.602,7.583c0.795,2.137,3.064,3.516,5.774,3.516
	c2.801,0,5.786-1.483,7.029-4.083c0.342-0.716,0.502-1.469,0.509-2.206l0.016-16.78l17.828-3.113v12.728
	c-1.062-0.769-2.441-1.227-3.977-1.227c-0.893,0-1.782,0.148-2.653,0.438c-3.078,1.027-5.865,4.187-4.6,7.584
	c0.8,2.132,3.064,3.516,5.774,3.516c0.891,0,1.784-0.146,2.652-0.439c2.556-0.846,4.858-3.031,4.883-5.853l0.017-19.924v-2.095
	C114.149,54.4,113.201,53.452,112.054,53.452L112.054,53.452z M144.96,49.717c-0.073,0-0.146,0.006-0.22,0.02l-10.607,1.872
	c-0.599,0.106-1.029,0.625-1.029,1.229v1.247v8.409v1.058c-0.635-0.462-1.453-0.73-2.369-0.73c-0.528,0-1.062,0.087-1.578,0.258
	c-1.831,0.61-3.495,2.492-2.738,4.513c0.476,1.271,1.822,2.091,3.438,2.091c1.665,0,3.438-0.883,4.184-2.431
	c0.199-0.425,0.297-0.873,0.301-1.31l0.008-9.985l10.612-1.852v7.572c-0.635-0.458-1.456-0.73-2.368-0.73
	c-0.533,0-1.062,0.089-1.578,0.26c-1.832,0.61-3.492,2.494-2.739,4.513c0.473,1.27,1.823,2.091,3.435,2.091
	c0.533,0,1.063-0.085,1.579-0.26c1.521-0.505,2.893-1.807,2.905-3.483l0.012-11.855v-1.247
	C146.205,50.282,145.636,49.717,144.96,49.717L144.96,49.717z"/>
</svg>
