<?xml version="1.0" encoding="utf-8"?>
<!DOCTYPE svg PUBLIC "-//W3C//DTD SVG 1.1//EN" "http://www.w3.org/Graphics/SVG/1.1/DTD/svg11.dtd">
<svg version="1.1" xmlns="http://www.w3.org/2000/svg" xmlns:xlink="http://www.w3.org/1999/xlink" x="0px" y="0px" width="216px" height="216px" viewBox="0 0 216 216" enable-background="new 0 0 216 216" xml:space="preserve">
<path fill-rule="evenodd" clip-rule="evenodd" d="M16.251,0.076h183.337
	c8.897,0,16.175,7.279,16.175,16.175v183.336c0,8.895-7.277,16.176-16.175,16.176H16.251c-8.896,0-16.175-7.281-16.175-16.176
	V16.251C0.076,7.355,7.355,0.076,16.251,0.076L16.251,0.076z M16.251,5.067h183.337c6.151,0,11.182,5.032,11.182,11.184v183.336
	c0,6.152-5.03,11.183-11.182,11.183H16.251c-6.152,0-11.184-5.03-11.184-11.183V16.251C5.067,10.1,10.1,5.067,16.251,5.067
	L16.251,5.067z M154.585,107.054h21.547V17.832c-12.308,1.962-21.803,24.186-21.803,37.285v51.673
	C154.329,106.935,154.443,107.054,154.585,107.054L154.585,107.054z M100.005,60.613L100.005,60.613
	c-0.235,8.017,8.837,8.199,8.85,0v-45.01c0-1.94,1.552-3.529,3.454-3.529h1.727c1.901,0,3.457,1.589,3.457,3.529v45.01
	c0.009,7,8.943,7.11,8.85,0v-45.01c0-1.94,1.553-3.529,3.454-3.529h1.727c1.897,0,3.454,1.589,3.454,3.529v45.01v4v9.305
	c0,7.318-5.863,13.305-13.026,13.305h-4.53v19.686h-8.639V87.222h-4.388c-7.163,0-13.026-5.987-13.026-13.305v-9.305v-4v-45.01
	c0-1.94,1.556-3.529,3.456-3.529h1.727c1.901,0,3.456,1.589,3.456,3.529V60.613L100.005,60.613z M62.045,87.45L62.045,87.45v19.316
	h-8.211V87.494c-10.855-1.702-19.115-10.57-19.115-26.418c0-17.727,10.335-43.845,23.079-43.845
	c12.744,0,23.079,26.118,23.079,43.845C80.875,76.784,72.762,85.636,62.045,87.45L62.045,87.45z"/>
</svg>
