<?xml version="1.0" encoding="utf-8"?>
<!DOCTYPE svg PUBLIC "-//W3C//DTD SVG 1.1//EN" "http://www.w3.org/Graphics/SVG/1.1/DTD/svg11.dtd">
<svg version="1.1" xmlns="http://www.w3.org/2000/svg" xmlns:xlink="http://www.w3.org/1999/xlink" x="0px" y="0px" width="216px" height="216px" viewBox="0 0 216 216" enable-background="new 0 0 216 216" xml:space="preserve">
<path id="_x33_" fill-rule="evenodd" clip-rule="evenodd" fill="#F58031" d="M102.685,198.459
	c-10.739-0.613-20.978-3.092-30.398-7.123c0.037-0.378,0.055-0.764,0.055-1.153v-83.157h-5.804V90.989
	c12.845-4,18.831-16.371,18.831-29.913c0-9.432-3.655-26.315-11.03-37.421c4.1-1.637,8.348-2.98,12.718-4.01
	c-0.118,0.546-0.179,1.111-0.179,1.692v52.581c0,9.652,7.712,17.74,17.415,17.796v15.312H99.41v83.157
	C99.41,193.367,100.651,196.289,102.685,198.459L102.685,198.459z M44.951,173.178c-17.089-16.496-27.723-39.636-27.723-65.258
	c0-17.122,4.748-33.135,12.998-46.799c0.012,13.658,6.125,26.071,19.115,29.956v15.95h-4.391V173.178L44.951,173.178z
	 M139.466,22.872c5.88,2.182,11.471,4.955,16.7,8.248c-4.063,8.096-6.331,17.317-6.331,23.997v50.639
	c0,2.308,1.646,4.234,3.823,4.667v75.818c-8.824,5.168-18.608,8.882-29.011,10.824c1.357-1.959,2.149-4.34,2.149-6.883v-83.157
	h-4.884V91.714h0.037c9.751,0,17.516-8.112,17.516-17.796V22.872L139.466,22.872z M180.622,53.701
	c11.299,15.125,17.991,33.893,17.991,54.219c0,20.067-6.525,38.612-17.564,53.634v-54.528h-0.427V53.701L180.622,53.701z"/>
<path id="_x32_" fill-rule="evenodd" clip-rule="evenodd" fill="#999557" d="M16.251,0.076h183.337
	c8.897,0,16.175,7.279,16.175,16.175v183.336c0,8.895-7.277,16.176-16.175,16.176H16.251c-8.896,0-16.175-7.281-16.175-16.176
	V16.251C0.076,7.355,7.355,0.076,16.251,0.076L16.251,0.076z M16.251,5.067h183.337c6.151,0,11.182,5.032,11.182,11.184v183.336
	c0,6.152-5.03,11.183-11.182,11.183H16.251c-6.152,0-11.184-5.03-11.184-11.183V16.251C5.067,10.1,10.1,5.067,16.251,5.067
	L16.251,5.067z M154.585,107.054h21.547V17.832c-12.308,1.962-21.803,24.186-21.803,37.285v51.673
	C154.329,106.935,154.443,107.054,154.585,107.054L154.585,107.054z M100.005,60.613L100.005,60.613
	c-0.235,8.017,8.837,8.199,8.85,0v-45.01c0-1.94,1.552-3.529,3.454-3.529h1.727c1.901,0,3.457,1.589,3.457,3.529v45.01
	c0.009,7,8.943,7.11,8.85,0v-45.01c0-1.94,1.553-3.529,3.454-3.529h1.727c1.897,0,3.454,1.589,3.454,3.529v45.01v4v9.305
	c0,7.318-5.863,13.305-13.026,13.305h-4.53v19.686h-8.639V87.222h-4.388c-7.163,0-13.026-5.987-13.026-13.305v-9.305v-4v-45.01
	c0-1.94,1.556-3.529,3.456-3.529h1.727c1.901,0,3.456,1.589,3.456,3.529V60.613L100.005,60.613z M62.045,87.45L62.045,87.45v19.316
	h-8.211V87.494c-10.855-1.702-19.115-10.57-19.115-26.418c0-17.727,10.335-43.845,23.079-43.845
	c12.744,0,23.079,26.118,23.079,43.845C80.875,76.784,72.762,85.636,62.045,87.45L62.045,87.45z"/>
<path id="_x31_" fill-rule="evenodd" clip-rule="evenodd" fill="#7E5628" d="M158.152,110.656h18.406v78.664
	c0,4.137-3.315,7.525-7.362,7.525h-3.686c-4.047,0-7.358-3.389-7.358-7.525V110.656L158.152,110.656z M103.901,110.656
	L103.901,110.656h18.406v81.432c0,4.136-3.315,7.521-7.362,7.521h-3.682c-4.051,0-7.362-3.385-7.362-7.521V110.656L103.901,110.656z
	 M49.443,110.656L49.443,110.656h18.406v78.664c0,4.137-3.312,7.525-7.36,7.525h-3.683c-4.049,0-7.362-3.389-7.362-7.525V110.656
	L49.443,110.656z"/>
</svg>
