<?xml version="1.0" encoding="utf-8"?>
<!DOCTYPE svg PUBLIC "-//W3C//DTD SVG 1.1//EN" "http://www.w3.org/Graphics/SVG/1.1/DTD/svg11.dtd">
<svg version="1.1" xmlns="http://www.w3.org/2000/svg" xmlns:xlink="http://www.w3.org/1999/xlink" x="0px" y="0px" width="216px" height="216px" viewBox="0 0 216 216" enable-background="new 0 0 216 216" xml:space="preserve">
<path fill-rule="evenodd" clip-rule="evenodd" d="M102.685,198.459
	c-10.739-0.613-20.978-3.092-30.398-7.123c0.037-0.378,0.055-0.764,0.055-1.153v-83.157h-5.804V90.989
	c12.845-4,18.831-16.371,18.831-29.913c0-9.432-3.655-26.315-11.03-37.421c4.1-1.637,8.348-2.98,12.718-4.01
	c-0.118,0.546-0.179,1.111-0.179,1.692v52.581c0,9.652,7.712,17.74,17.415,17.796v15.312H99.41v83.157
	C99.41,193.367,100.651,196.289,102.685,198.459L102.685,198.459z M44.951,173.178c-17.089-16.496-27.723-39.636-27.723-65.258
	c0-17.122,4.748-33.135,12.998-46.799c0.012,13.658,6.125,26.071,19.115,29.956v15.95h-4.391V173.178L44.951,173.178z
	 M139.466,22.872c5.88,2.182,11.471,4.955,16.7,8.248c-4.063,8.096-6.331,17.317-6.331,23.997v50.639
	c0,2.308,1.646,4.234,3.823,4.667v75.818c-8.824,5.168-18.608,8.882-29.011,10.824c1.357-1.959,2.149-4.34,2.149-6.883v-83.157
	h-4.884V91.714h0.037c9.751,0,17.516-8.112,17.516-17.796V22.872L139.466,22.872z M180.622,53.701
	c11.299,15.125,17.991,33.893,17.991,54.219c0,20.067-6.525,38.612-17.564,53.634v-54.528h-0.427V53.701L180.622,53.701z"/>
</svg>
