<?xml version="1.0" encoding="utf-8"?>
<!DOCTYPE svg PUBLIC "-//W3C//DTD SVG 1.1//EN" "http://www.w3.org/Graphics/SVG/1.1/DTD/svg11.dtd">
<svg version="1.1" xmlns="http://www.w3.org/2000/svg" xmlns:xlink="http://www.w3.org/1999/xlink" x="0px" y="0px" width="216px" height="216px" viewBox="0 0 216 216" enable-background="new 0 0 216 216" xml:space="preserve">
<path fill-rule="evenodd" clip-rule="evenodd" d="M158.152,110.656h18.406v78.664
	c0,4.137-3.315,7.525-7.362,7.525h-3.686c-4.047,0-7.358-3.389-7.358-7.525V110.656L158.152,110.656z M103.901,110.656
	L103.901,110.656h18.406v81.432c0,4.136-3.315,7.521-7.362,7.521h-3.682c-4.051,0-7.362-3.385-7.362-7.521V110.656L103.901,110.656z
	 M49.443,110.656L49.443,110.656h18.406v78.664c0,4.137-3.312,7.525-7.36,7.525h-3.683c-4.049,0-7.362-3.389-7.362-7.525V110.656
	L49.443,110.656z"/>
</svg>
