<?xml version="1.0" encoding="utf-8"?>
<!DOCTYPE svg PUBLIC "-//W3C//DTD SVG 1.1//EN" "http://www.w3.org/Graphics/SVG/1.1/DTD/svg11.dtd">
<svg version="1.1" xmlns="http://www.w3.org/2000/svg" xmlns:xlink="http://www.w3.org/1999/xlink" x="0px" y="0px" width="216px" height="216px" viewBox="0 0 216 216" enable-background="new 0 0 216 216" xml:space="preserve">
<path fill-rule="evenodd" clip-rule="evenodd" d="M77.398,104.352
	c-21.757-8.714-46.458,1.859-55.17,23.616c-7.265,18.148-1.115,38.339,13.75,49.598v-0.826l4.714-0.086
	c0.95-0.02,1.855-0.22,2.682-0.569c-15.959-8.992-23.212-28.683-16.223-46.143c7.613-19.004,29.268-28.28,48.275-20.664
	c2.808,1.123,5.399,2.553,7.757,4.233l0.448-6.053C81.67,106.272,79.593,105.228,77.398,104.352L77.398,104.352z M67.539,128.973
	L67.539,128.973c-8.159-3.271-17.422,0.7-20.689,8.854l-0.006,0.017h5.961c2.725-4.073,8.028-5.844,12.763-3.947
	c2.061,0.822,3.721,2.229,4.869,3.947h5.965C74.845,133.941,71.75,130.657,67.539,128.973L67.539,128.973z M55.015,124.937
	L55.015,124.937c-0.289-0.676-1.066-0.984-1.742-0.696c-0.024,0.009-0.037,0.029-0.057,0.037c-4.966,2.145-9.123,6.177-11.29,11.58
	h-0.002c-0.271,0.68,0.059,1.453,0.739,1.722c0.681,0.272,1.455-0.058,1.723-0.736h0.006c1.904-4.761,5.561-8.297,9.926-10.165
	C54.992,126.389,55.303,125.612,55.015,124.937L55.015,124.937z M50.839,115.188L50.839,115.188c-0.291-0.676-1.068-0.989-1.741-0.7
	c-0.033,0.012-0.057,0.041-0.085,0.057c-7.451,3.219-13.684,9.257-16.934,17.367c-0.272,0.684,0.059,1.456,0.739,1.725
	c0.68,0.272,1.449-0.053,1.723-0.736c2.997-7.482,8.738-13.033,15.603-15.975C50.815,116.636,51.128,115.854,50.839,115.188
	L50.839,115.188z M52.229,121.799L52.229,121.799c0.673-0.284,0.987-1.065,0.698-1.737c-0.289-0.671-1.068-0.988-1.741-0.695
	c-0.026,0.008-0.043,0.032-0.071,0.045c-6.208,2.681-11.403,7.719-14.109,14.478c-0.274,0.68,0.059,1.448,0.736,1.725
	c0.68,0.269,1.453-0.061,1.728-0.74c2.447-6.12,7.147-10.669,12.76-13.065V121.799L52.229,121.799z M108.925,92.358L108.925,92.358
	h8.744v10.459h10.462v8.746h-10.462v10.46h-8.744v-10.46H98.463v-8.746h10.461V92.358L108.925,92.358z M113.039,133.172
	L113.039,133.172c-8.896,0-16.752-4.463-21.457-11.271l2.987-2.011c4.057,5.848,10.815,9.681,18.47,9.681
	c1.538,0,3.035-0.159,4.483-0.452l0.732,3.528C116.57,132.993,114.825,133.172,113.039,133.172L113.039,133.172z M168.133,133.172
	L168.133,133.172c8.899,0,16.757-4.463,21.461-11.271l-2.987-2.011c-4.057,5.848-10.819,9.681-18.474,9.681
	c-1.533,0-3.035-0.159-4.483-0.452l-0.729,3.528C164.605,132.993,166.347,133.172,168.133,133.172L168.133,133.172z
	 M167.742,121.853L167.742,121.853c-2.555,0-4.626-2.075-4.626-4.631s2.071-4.631,4.626-4.631c2.56,0,4.631,2.075,4.631,4.631
	S170.302,121.853,167.742,121.853L167.742,121.853z M157.11,111.563L157.11,111.563c-2.556,0-4.627-2.073-4.627-4.628
	c0-2.559,2.071-4.632,4.627-4.632c2.56,0,4.631,2.073,4.631,4.632C161.741,109.49,159.67,111.563,157.11,111.563L157.11,111.563z
	 M167.742,101.446L167.742,101.446c-2.555,0-4.626-2.073-4.626-4.631c0-2.555,2.071-4.63,4.626-4.63c2.56,0,4.631,2.075,4.631,4.63
	C172.373,99.373,170.302,101.446,167.742,101.446L167.742,101.446z M177.691,111.563L177.691,111.563
	c-2.56,0-4.631-2.073-4.631-4.628c0-2.559,2.071-4.632,4.631-4.632c2.556,0,4.631,2.073,4.631,4.632
	C182.322,109.49,180.247,111.563,177.691,111.563L177.691,111.563z M138.441,86.527L138.441,86.527h0.236
	c-0.057-4.287-0.114-8.97,0.085-12.905c0.277-5.457,8.114-7.479,10.975-12.132c0.988-1.605,0.643-3.774,0.643-5.658
	c1.371,0,2.747,0,4.118,0c0.057,2.515-0.057,5.062-0.472,7.544c-0.184,1.094-1.115,1.947-1.889,2.745
	c-3.015,3.103-9.155,4.598-9.432,8.917c-0.236,3.731-0.028,7.721,0.094,11.666c0.357,0.215,0.594,0.604,0.594,1.045v2.551h5.888
	c4.464-5.656,11.23-9.263,18.808-9.263c13.448,0,24.349,11.367,24.349,25.38c0,0.98-0.053,1.947-0.158,2.897l2.543,38.688
	c0.235,0.847,0.357,1.737,0.357,2.657c0,5.493-4.451,9.948-9.944,9.948c-2.722,0-5.188-1.095-6.986-2.868l-0.216,0.126
	l-18.27-22.982h-8.48c-2.645,0-4.801-2.16-4.801-4.801v-3.772H134.82v3.772c0,2.641-2.165,4.801-4.806,4.801h-9.505l-16.565,20.838
	c-0.47,0.789-1.043,1.51-1.705,2.141l-0.002,0.004c-1.786,1.701-4.201,2.742-6.858,2.742c-5.493,0-9.949-4.455-9.949-9.948
	c0-0.773,0.09-1.53,0.256-2.25l-0.256-0.146l3.386-45.873l0.175-0.968c2.228-11.624,12.073-20.386,23.877-20.386
	c7.576,0,14.343,3.607,18.807,9.263h5.542V87.75C137.217,87.078,137.771,86.527,138.441,86.527L138.441,86.527z"/>
</svg>
