<?xml version="1.0" encoding="utf-8"?>
<!DOCTYPE svg PUBLIC "-//W3C//DTD SVG 1.1//EN" "http://www.w3.org/Graphics/SVG/1.1/DTD/svg11.dtd">
<svg version="1.1" xmlns="http://www.w3.org/2000/svg" xmlns:xlink="http://www.w3.org/1999/xlink" x="0px" y="0px" width="216px" height="216px" viewBox="0 0 216 216" enable-background="new 0 0 216 216" xml:space="preserve">
<path fill-rule="evenodd" clip-rule="evenodd" d="M99.475,58.506L99.475,58.506l-12.193-5.729
	l-12.109-5.845l0.082,11.575l-0.082,11.576l12.109-5.845L99.475,58.506L99.475,58.506z M83.06,34.572L83.06,34.572
	c13.137,0,23.79,10.655,23.79,23.792c0,13.135-10.653,23.788-23.79,23.788c-13.135,0-23.79-10.653-23.79-23.788
	C59.271,45.227,69.925,34.572,83.06,34.572L83.06,34.572z M76.597,159.625L76.597,159.625l3.688,7.043l7.835,1.331l-5.557,5.681
	l1.154,7.861l-7.121-3.524l-7.119,3.524l1.156-7.861l-5.556-5.681l7.833-1.331L76.597,159.625L76.597,159.625z M127.776,184.67
	L127.776,184.67c1.404,0,2.539,1.135,2.539,2.535c0,1.403-1.135,2.543-2.539,2.543c-1.403,0-2.543-1.14-2.543-2.543
	C125.233,185.805,126.373,184.67,127.776,184.67L127.776,184.67z M127.776,175.774L127.776,175.774c1.404,0,2.539,1.14,2.539,2.544
	c0,1.399-1.135,2.543-2.539,2.543c-1.403,0-2.543-1.144-2.543-2.543C125.233,176.914,126.373,175.774,127.776,175.774
	L127.776,175.774z M127.776,166.884L127.776,166.884c1.404,0,2.539,1.144,2.539,2.543c0,1.404-1.135,2.544-2.539,2.544
	c-1.403,0-2.543-1.14-2.543-2.544C125.233,168.027,126.373,166.884,127.776,166.884L127.776,166.884z M127.776,157.997
	L127.776,157.997c1.404,0,2.539,1.14,2.539,2.543c0,1.4-1.135,2.539-2.539,2.539c-1.403,0-2.543-1.139-2.543-2.539
	C125.233,159.137,126.373,157.997,127.776,157.997L127.776,157.997z M127.776,149.106L127.776,149.106
	c1.404,0,2.539,1.14,2.539,2.543c0,1.404-1.135,2.539-2.539,2.539c-1.403,0-2.543-1.135-2.543-2.539
	C125.233,150.246,126.373,149.106,127.776,149.106L127.776,149.106z M135.532,190.83L135.532,190.83h17.261v-4.264
	c-7.003-2.413-12.04-9.07-12.04-16.896c0-7.824,5.037-14.478,12.04-16.89v-4.297h-17.261V190.83L135.532,190.83z M44.486,142.649
	H81.07l-0.431,5.835H46.614v4.134c6.891,2.486,11.802,9.086,11.802,16.809c0,7.724-4.911,14.323-11.802,16.81v4.594h73.403v-42.346
	h-4.235l4.643-5.835h4.81c0,0.036,0,0.073,0,0.113c0,1.4,1.14,2.539,2.543,2.539c1.404,0,2.539-1.139,2.539-2.539
	c0-0.04,0-0.077,0-0.113h24.609c2.039,0,3.707,1.668,3.707,3.706v11.292h-0.016c-6.641,0-12.028,5.388-12.028,12.023
	c0,6.646,5.388,12.032,12.028,12.032h0.016v11.255c0,2.035-1.668,3.707-3.707,3.707h-24.674c0.044-0.183,0.064-0.374,0.064-0.569
	c0-1.404-1.135-2.539-2.539-2.539c-1.403,0-2.543,1.135-2.543,2.539c0,0.195,0.024,0.387,0.065,0.569H44.486
	c-2.041,0-3.709-1.672-3.709-3.707v-11.507c6.537-0.118,11.804-5.457,11.804-12.024c0-6.563-5.267-11.905-11.804-12.023v-11.048
	C40.777,144.317,42.445,142.649,44.486,142.649L44.486,142.649z"/>
</svg>
