<?xml version="1.0" encoding="utf-8"?>
<!DOCTYPE svg PUBLIC "-//W3C//DTD SVG 1.1//EN" "http://www.w3.org/Graphics/SVG/1.1/DTD/svg11.dtd">
<svg version="1.1" xmlns="http://www.w3.org/2000/svg" xmlns:xlink="http://www.w3.org/1999/xlink" x="0px" y="0px" width="216px" height="216px" viewBox="0 0 216 216" enable-background="new 0 0 216 216" xml:space="preserve">
<path fill-rule="evenodd" clip-rule="evenodd" d="M16.119,4.918h183.602c6.161,0,11.198,5.04,11.198,11.2
	v183.602c0,6.161-5.037,11.198-11.198,11.198H16.119c-6.161,0-11.2-5.037-11.2-11.198V16.119C4.918,9.958,9.958,4.918,16.119,4.918
	L16.119,4.918z M16.119-0.08h183.602c8.911,0,16.199,7.29,16.199,16.199v183.602c0,8.907-7.288,16.199-16.199,16.199H16.119
	c-8.909,0-16.199-7.292-16.199-16.199V16.119C-0.08,7.209,7.209-0.08,16.119-0.08L16.119-0.08z M19.83,21.508L19.83,21.508h124.244
	v39.201c-0.627,0.527-1.298,1.011-1.827,1.398c-1.929,1.408-3.878,2.787-5.408,4.553h-5.762v4.927h3.179
	c-0.135,0.586-0.22,1.186-0.249,1.794l-0.032,0.669h-2.897v4.93h2.783c-0.004,0.818-0.004,1.64-0.004,2.462h-2.779v1.453
	c-2.051-1.701-4.309-3.109-6.722-4.181V26.684H40.291v63.111h48.295c-0.946,1.475-1.766,3.042-2.452,4.684H19.83V21.508
	L19.83,21.508z M25.811,22.564L25.811,22.564h8.378v4.925h-8.378V22.564L25.811,22.564z M25.811,29.707L25.811,29.707h8.378v4.928
	h-8.378V29.707L25.811,29.707z M25.811,37.099L25.811,37.099h8.378v4.925h-8.378V37.099L25.811,37.099z M25.811,44.488
	L25.811,44.488h8.378v4.928h-8.378V44.488L25.811,44.488z M25.811,51.877L25.811,51.877h8.378v4.928h-8.378V51.877L25.811,51.877z
	 M25.811,59.271L25.811,59.271h8.378v4.928h-8.378V59.271L25.811,59.271z M25.811,66.66L25.811,66.66h8.378v4.927h-8.378V66.66
	L25.811,66.66z M25.811,74.051L25.811,74.051h8.378v4.93h-8.378V74.051L25.811,74.051z M25.811,81.443L25.811,81.443h8.378v4.927
	h-8.378V81.443L25.811,81.443z M25.811,88.834L25.811,88.834h8.378v4.926h-8.378V88.834L25.811,88.834z M131.076,22.564
	L131.076,22.564h8.375v4.925h-8.375V22.564L131.076,22.564z M131.076,29.707L131.076,29.707h8.375v4.928h-8.375V29.707
	L131.076,29.707z M131.076,37.099L131.076,37.099h8.375v4.925h-8.375V37.099L131.076,37.099z M131.076,44.488L131.076,44.488h8.375
	v4.928h-8.375V44.488L131.076,44.488z M131.076,51.877L131.076,51.877h8.375v4.928h-8.375V51.877L131.076,51.877z M131.076,59.271
	h8.375v4.928h-8.375V59.271L131.076,59.271z"/>
</svg>
