<?xml version="1.0" encoding="utf-8"?>
<!DOCTYPE svg PUBLIC "-//W3C//DTD SVG 1.1//EN" "http://www.w3.org/Graphics/SVG/1.1/DTD/svg11.dtd">
<svg version="1.1" xmlns="http://www.w3.org/2000/svg" xmlns:xlink="http://www.w3.org/1999/xlink" x="0px" y="0px" width="216px" height="216px" viewBox="0 0 216 216" enable-background="new 0 0 216 216" xml:space="preserve">
<path id="_x33_" fill-rule="evenodd" clip-rule="evenodd" fill="#F58031" d="M99.475,58.506L99.475,58.506l-12.193-5.729
	l-12.109-5.845l0.082,11.575l-0.082,11.576l12.109-5.845L99.475,58.506L99.475,58.506z M83.06,34.572L83.06,34.572
	c13.137,0,23.79,10.655,23.79,23.792c0,13.135-10.653,23.788-23.79,23.788c-13.135,0-23.79-10.653-23.79-23.788
	C59.271,45.227,69.925,34.572,83.06,34.572L83.06,34.572z M76.597,159.625L76.597,159.625l3.688,7.043l7.835,1.331l-5.557,5.681
	l1.154,7.861l-7.121-3.524l-7.119,3.524l1.156-7.861l-5.556-5.681l7.833-1.331L76.597,159.625L76.597,159.625z M127.776,184.67
	L127.776,184.67c1.404,0,2.539,1.135,2.539,2.535c0,1.403-1.135,2.543-2.539,2.543c-1.403,0-2.543-1.14-2.543-2.543
	C125.233,185.805,126.373,184.67,127.776,184.67L127.776,184.67z M127.776,175.774L127.776,175.774c1.404,0,2.539,1.14,2.539,2.544
	c0,1.399-1.135,2.543-2.539,2.543c-1.403,0-2.543-1.144-2.543-2.543C125.233,176.914,126.373,175.774,127.776,175.774
	L127.776,175.774z M127.776,166.884L127.776,166.884c1.404,0,2.539,1.144,2.539,2.543c0,1.404-1.135,2.544-2.539,2.544
	c-1.403,0-2.543-1.14-2.543-2.544C125.233,168.027,126.373,166.884,127.776,166.884L127.776,166.884z M127.776,157.997
	L127.776,157.997c1.404,0,2.539,1.14,2.539,2.543c0,1.4-1.135,2.539-2.539,2.539c-1.403,0-2.543-1.139-2.543-2.539
	C125.233,159.137,126.373,157.997,127.776,157.997L127.776,157.997z M127.776,149.106L127.776,149.106
	c1.404,0,2.539,1.14,2.539,2.543c0,1.404-1.135,2.539-2.539,2.539c-1.403,0-2.543-1.135-2.543-2.539
	C125.233,150.246,126.373,149.106,127.776,149.106L127.776,149.106z M135.532,190.83L135.532,190.83h17.261v-4.264
	c-7.003-2.413-12.04-9.07-12.04-16.896c0-7.824,5.037-14.478,12.04-16.89v-4.297h-17.261V190.83L135.532,190.83z M44.486,142.649
	H81.07l-0.431,5.835H46.614v4.134c6.891,2.486,11.802,9.086,11.802,16.809c0,7.724-4.911,14.323-11.802,16.81v4.594h73.403v-42.346
	h-4.235l4.643-5.835h4.81c0,0.036,0,0.073,0,0.113c0,1.4,1.14,2.539,2.543,2.539c1.404,0,2.539-1.139,2.539-2.539
	c0-0.04,0-0.077,0-0.113h24.609c2.039,0,3.707,1.668,3.707,3.706v11.292h-0.016c-6.641,0-12.028,5.388-12.028,12.023
	c0,6.646,5.388,12.032,12.028,12.032h0.016v11.255c0,2.035-1.668,3.707-3.707,3.707h-24.674c0.044-0.183,0.064-0.374,0.064-0.569
	c0-1.404-1.135-2.539-2.539-2.539c-1.403,0-2.543,1.135-2.543,2.539c0,0.195,0.024,0.387,0.065,0.569H44.486
	c-2.041,0-3.709-1.672-3.709-3.707v-11.507c6.537-0.118,11.804-5.457,11.804-12.024c0-6.563-5.267-11.905-11.804-12.023v-11.048
	C40.777,144.317,42.445,142.649,44.486,142.649L44.486,142.649z"/>
<path id="_x32_" fill-rule="evenodd" clip-rule="evenodd" fill="#999557" d="M16.119,4.918h183.602c6.161,0,11.198,5.04,11.198,11.2
	v183.602c0,6.161-5.037,11.198-11.198,11.198H16.119c-6.161,0-11.2-5.037-11.2-11.198V16.119C4.918,9.958,9.958,4.918,16.119,4.918
	L16.119,4.918z M16.119-0.08h183.602c8.911,0,16.199,7.29,16.199,16.199v183.602c0,8.907-7.288,16.199-16.199,16.199H16.119
	c-8.909,0-16.199-7.292-16.199-16.199V16.119C-0.08,7.209,7.209-0.08,16.119-0.08L16.119-0.08z M19.83,21.508L19.83,21.508h124.244
	v39.201c-0.627,0.527-1.298,1.011-1.827,1.398c-1.929,1.408-3.878,2.787-5.408,4.553h-5.762v4.927h3.179
	c-0.135,0.586-0.22,1.186-0.249,1.794l-0.032,0.669h-2.897v4.93h2.783c-0.004,0.818-0.004,1.64-0.004,2.462h-2.779v1.453
	c-2.051-1.701-4.309-3.109-6.722-4.181V26.684H40.291v63.111h48.295c-0.946,1.475-1.766,3.042-2.452,4.684H19.83V21.508
	L19.83,21.508z M25.811,22.564L25.811,22.564h8.378v4.925h-8.378V22.564L25.811,22.564z M25.811,29.707L25.811,29.707h8.378v4.928
	h-8.378V29.707L25.811,29.707z M25.811,37.099L25.811,37.099h8.378v4.925h-8.378V37.099L25.811,37.099z M25.811,44.488
	L25.811,44.488h8.378v4.928h-8.378V44.488L25.811,44.488z M25.811,51.877L25.811,51.877h8.378v4.928h-8.378V51.877L25.811,51.877z
	 M25.811,59.271L25.811,59.271h8.378v4.928h-8.378V59.271L25.811,59.271z M25.811,66.66L25.811,66.66h8.378v4.927h-8.378V66.66
	L25.811,66.66z M25.811,74.051L25.811,74.051h8.378v4.93h-8.378V74.051L25.811,74.051z M25.811,81.443L25.811,81.443h8.378v4.927
	h-8.378V81.443L25.811,81.443z M25.811,88.834L25.811,88.834h8.378v4.926h-8.378V88.834L25.811,88.834z M131.076,22.564
	L131.076,22.564h8.375v4.925h-8.375V22.564L131.076,22.564z M131.076,29.707L131.076,29.707h8.375v4.928h-8.375V29.707
	L131.076,29.707z M131.076,37.099L131.076,37.099h8.375v4.925h-8.375V37.099L131.076,37.099z M131.076,44.488L131.076,44.488h8.375
	v4.928h-8.375V44.488L131.076,44.488z M131.076,51.877L131.076,51.877h8.375v4.928h-8.375V51.877L131.076,51.877z M131.076,59.271
	h8.375v4.928h-8.375V59.271L131.076,59.271z"/>
<path id="_x31_" fill-rule="evenodd" clip-rule="evenodd" fill="#7E5628" d="M77.398,104.352
	c-21.757-8.714-46.458,1.859-55.17,23.616c-7.265,18.148-1.115,38.339,13.75,49.598v-0.826l4.714-0.086
	c0.95-0.02,1.855-0.22,2.682-0.569c-15.959-8.992-23.212-28.683-16.223-46.143c7.613-19.004,29.268-28.28,48.275-20.664
	c2.808,1.123,5.399,2.553,7.757,4.233l0.448-6.053C81.67,106.272,79.593,105.228,77.398,104.352L77.398,104.352z M67.539,128.973
	L67.539,128.973c-8.159-3.271-17.422,0.7-20.689,8.854l-0.006,0.017h5.961c2.725-4.073,8.028-5.844,12.763-3.947
	c2.061,0.822,3.721,2.229,4.869,3.947h5.965C74.845,133.941,71.75,130.657,67.539,128.973L67.539,128.973z M55.015,124.937
	L55.015,124.937c-0.289-0.676-1.066-0.984-1.742-0.696c-0.024,0.009-0.037,0.029-0.057,0.037c-4.966,2.145-9.123,6.177-11.29,11.58
	h-0.002c-0.271,0.68,0.059,1.453,0.739,1.722c0.681,0.272,1.455-0.058,1.723-0.736h0.006c1.904-4.761,5.561-8.297,9.926-10.165
	C54.992,126.389,55.303,125.612,55.015,124.937L55.015,124.937z M50.839,115.188L50.839,115.188c-0.291-0.676-1.068-0.989-1.741-0.7
	c-0.033,0.012-0.057,0.041-0.085,0.057c-7.451,3.219-13.684,9.257-16.934,17.367c-0.272,0.684,0.059,1.456,0.739,1.725
	c0.68,0.272,1.449-0.053,1.723-0.736c2.997-7.482,8.738-13.033,15.603-15.975C50.815,116.636,51.128,115.854,50.839,115.188
	L50.839,115.188z M52.229,121.799L52.229,121.799c0.673-0.284,0.987-1.065,0.698-1.737c-0.289-0.671-1.068-0.988-1.741-0.695
	c-0.026,0.008-0.043,0.032-0.071,0.045c-6.208,2.681-11.403,7.719-14.109,14.478c-0.274,0.68,0.059,1.448,0.736,1.725
	c0.68,0.269,1.453-0.061,1.728-0.74c2.447-6.12,7.147-10.669,12.76-13.065V121.799L52.229,121.799z M108.925,92.358L108.925,92.358
	h8.744v10.459h10.462v8.746h-10.462v10.46h-8.744v-10.46H98.463v-8.746h10.461V92.358L108.925,92.358z M113.039,133.172
	L113.039,133.172c-8.896,0-16.752-4.463-21.457-11.271l2.987-2.011c4.057,5.848,10.815,9.681,18.47,9.681
	c1.538,0,3.035-0.159,4.483-0.452l0.732,3.528C116.57,132.993,114.825,133.172,113.039,133.172L113.039,133.172z M168.133,133.172
	L168.133,133.172c8.899,0,16.757-4.463,21.461-11.271l-2.987-2.011c-4.057,5.848-10.819,9.681-18.474,9.681
	c-1.533,0-3.035-0.159-4.483-0.452l-0.729,3.528C164.605,132.993,166.347,133.172,168.133,133.172L168.133,133.172z
	 M167.742,121.853L167.742,121.853c-2.555,0-4.626-2.075-4.626-4.631s2.071-4.631,4.626-4.631c2.56,0,4.631,2.075,4.631,4.631
	S170.302,121.853,167.742,121.853L167.742,121.853z M157.11,111.563L157.11,111.563c-2.556,0-4.627-2.073-4.627-4.628
	c0-2.559,2.071-4.632,4.627-4.632c2.56,0,4.631,2.073,4.631,4.632C161.741,109.49,159.67,111.563,157.11,111.563L157.11,111.563z
	 M167.742,101.446L167.742,101.446c-2.555,0-4.626-2.073-4.626-4.631c0-2.555,2.071-4.63,4.626-4.63c2.56,0,4.631,2.075,4.631,4.63
	C172.373,99.373,170.302,101.446,167.742,101.446L167.742,101.446z M177.691,111.563L177.691,111.563
	c-2.56,0-4.631-2.073-4.631-4.628c0-2.559,2.071-4.632,4.631-4.632c2.556,0,4.631,2.073,4.631,4.632
	C182.322,109.49,180.247,111.563,177.691,111.563L177.691,111.563z M138.441,86.527L138.441,86.527h0.236
	c-0.057-4.287-0.114-8.97,0.085-12.905c0.277-5.457,8.114-7.479,10.975-12.132c0.988-1.605,0.643-3.774,0.643-5.658
	c1.371,0,2.747,0,4.118,0c0.057,2.515-0.057,5.062-0.472,7.544c-0.184,1.094-1.115,1.947-1.889,2.745
	c-3.015,3.103-9.155,4.598-9.432,8.917c-0.236,3.731-0.028,7.721,0.094,11.666c0.357,0.215,0.594,0.604,0.594,1.045v2.551h5.888
	c4.464-5.656,11.23-9.263,18.808-9.263c13.448,0,24.349,11.367,24.349,25.38c0,0.98-0.053,1.947-0.158,2.897l2.543,38.688
	c0.235,0.847,0.357,1.737,0.357,2.657c0,5.493-4.451,9.948-9.944,9.948c-2.722,0-5.188-1.095-6.986-2.868l-0.216,0.126
	l-18.27-22.982h-8.48c-2.645,0-4.801-2.16-4.801-4.801v-3.772H134.82v3.772c0,2.641-2.165,4.801-4.806,4.801h-9.505l-16.565,20.838
	c-0.47,0.789-1.043,1.51-1.705,2.141l-0.002,0.004c-1.786,1.701-4.201,2.742-6.858,2.742c-5.493,0-9.949-4.455-9.949-9.948
	c0-0.773,0.09-1.53,0.256-2.25l-0.256-0.146l3.386-45.873l0.175-0.968c2.228-11.624,12.073-20.386,23.877-20.386
	c7.576,0,14.343,3.607,18.807,9.263h5.542V87.75C137.217,87.078,137.771,86.527,138.441,86.527L138.441,86.527z"/>
</svg>
