<?xml version="1.0" encoding="utf-8"?>
<!DOCTYPE svg PUBLIC "-//W3C//DTD SVG 1.1//EN" "http://www.w3.org/Graphics/SVG/1.1/DTD/svg11.dtd">
<svg version="1.1" xmlns="http://www.w3.org/2000/svg" xmlns:xlink="http://www.w3.org/1999/xlink" x="0px" y="0px" width="216px" height="216px" viewBox="0 0 216 216" enable-background="new 0 0 216 216" xml:space="preserve">
<path fill-rule="evenodd" clip-rule="evenodd" d="M24.704,101.438h17.373l6.972-6.97L27.034,72.454
	h-7.326c-2.436,1.372-4.691,1.746-4.691,5.268V91.75L24.704,101.438L24.704,101.438z M49.163,101.438L49.163,101.438h6.854
	l-3.428-3.426L49.163,101.438L49.163,101.438z M63.848,101.438L63.848,101.438h13.658l8.828-8.824L72.161,78.44L56.506,94.098
	L63.848,101.438L63.848,101.438z M84.592,101.438L84.592,101.438h10.567l-5.283-5.284L84.592,101.438L84.592,101.438z
	 M99.416,97.865L99.416,97.865V86.617l-5.625,5.625L99.416,97.865L99.416,97.865z M99.416,79.532L99.416,79.532v-7.078H78.149
	l-2.073,2.071l14.172,14.172L99.416,79.532L99.416,79.532z M66.174,72.454L66.174,72.454H34.86l18.101,18.099l15.658-15.658
	L66.174,72.454L66.174,72.454z M191.624,102.756L191.624,102.756c3.642,0,7.813-3.514,7.813-6.588v-3.288l-9.872,9.875H191.624
	L191.624,102.756z M199.437,85.794L199.437,85.794v-6.752c0-6.732-3.138-7.906-9.375-7.906h-4.306l-17.395,17.393l14.172,14.17
	L199.437,85.794L199.437,85.794z M178.668,71.136L178.668,71.136h-27.702l13.852,13.851L178.668,71.136L178.668,71.136z
	 M143.142,71.136L143.142,71.136h-28.097v3.215l12.487,12.492l15.658-15.658L143.142,71.136L143.142,71.136z M115.045,82.179
	L115.045,82.179v17.153l8.577-8.577L115.045,82.179L115.045,82.179z M118.703,102.756L118.703,102.756h16.914l-8.455-8.459
	L118.703,102.756L118.703,102.756z M143.446,102.756L143.446,102.756h3.602l13.858-13.855l-14.172-14.172l-15.658,15.655
	L143.446,102.756L143.446,102.756z M154.132,102.756L154.132,102.756h20.63l-10.315-10.315L154.132,102.756L154.132,102.756z
	 M99.414,192.905L99.414,192.905l-1.65,1.652h-7.086l8.736-8.74V192.905L99.414,192.905z M70.853,194.558L70.853,194.558
	l-4.26-4.261l-4.258,4.261h-7.088l7.805-7.805l-14.172-14.172l-19.493,19.494c-1.347-1.127-2.362-2.571-2.889-4.199l18.84-18.835
	l-14.17-14.173l-5.076,5.074v-7.088l1.532-1.53l-1.532-1.534v-7.824l5.446,5.444l15.656-15.654L33.02,117.584l-6.93,6.93v-7.089
	l1.813-1.811h10.979l12.225,12.224l12.226-12.224h14.689l10.372,10.368l10.368-10.368h0.653v6.434l-7.479,7.479l7.479,7.479v7.829
	L88.021,133.44l-15.656,15.658l14.17,14.168l12.878-12.878v7.088l-9.336,9.338l9.336,9.335v7.829l-13.249-13.253l-15.656,15.657
	l8.172,8.175H70.853L70.853,194.558z M66.965,182.839L66.965,182.839l15.655-15.658l-14.17-14.168l-15.657,15.653L66.965,182.839
	L66.965,182.839z M68.821,145.555L68.821,145.555l15.657-15.658l-14.172-14.172l-15.657,15.657L68.821,145.555L68.821,145.555z
	 M49.25,165.122L49.25,165.122l15.656-15.653l-14.172-14.173l-15.656,15.658L49.25,165.122L49.25,165.122z M186.627,134.035
	L186.627,134.035v7.084l-2.404,2.409l2.404,2.408v7.825l-6.319-6.319L164.65,163.1l21.977,21.977v0.229
	c0,2.071-0.77,3.991-2.063,5.538l-23.829-23.828l-15.657,15.653l11.89,11.89h-7.833l-7.971-7.972l-7.972,7.972h-7.084l11.511-11.516
	l-14.168-14.172l-8.122,8.117v-7.084l4.578-4.578l-4.578-4.573v-7.829l8.488,8.488l15.657-15.653l-14.172-14.173l-9.974,9.974
	v-7.088l6.434-6.43l-6.434-6.433v-5.994h1.836l8.512,8.513l8.513-8.513h7.088l-12.061,12.057l14.173,14.173l15.657-15.658
	l-10.571-10.571h7.829l6.657,6.657l6.656-6.657h7.089l-10.201,10.201l14.172,14.168L186.627,134.035L186.627,134.035z
	 M161.106,159.556L161.106,159.556l15.657-15.657l-14.173-14.173l-15.657,15.658L161.106,159.556L161.106,159.556z M141.538,179.128
	L141.538,179.128l15.653-15.658l-14.172-14.172l-15.654,15.657L141.538,179.128L141.538,179.128z"/>
</svg>
