<?xml version="1.0" encoding="utf-8"?>
<!DOCTYPE svg PUBLIC "-//W3C//DTD SVG 1.1//EN" "http://www.w3.org/Graphics/SVG/1.1/DTD/svg11.dtd">
<svg version="1.1" xmlns="http://www.w3.org/2000/svg" xmlns:xlink="http://www.w3.org/1999/xlink" x="0px" y="0px" width="216px" height="216px" viewBox="0 0 216 216" enable-background="new 0 0 216 216" xml:space="preserve">
<path fill-rule="evenodd" clip-rule="evenodd" d="M16.119-0.08h183.602
	c8.911,0,16.199,7.29,16.199,16.199v183.602c0,8.907-7.288,16.199-16.199,16.199H16.119c-8.909,0-16.199-7.292-16.199-16.199V16.119
	C-0.08,7.209,7.209-0.08,16.119-0.08L16.119-0.08z M16.119,4.918h183.602c6.161,0,11.198,5.04,11.198,11.2v183.602
	c0,6.161-5.037,11.198-11.198,11.198H16.119c-6.161,0-11.2-5.037-11.2-11.198V16.119C4.918,9.958,9.958,4.918,16.119,4.918
	L16.119,4.918z M161.106,159.556L161.106,159.556l15.657-15.657l-14.173-14.173l-15.657,15.658L161.106,159.556L161.106,159.556z
	 M141.538,179.128L141.538,179.128l15.653-15.658l-14.172-14.172l-15.654,15.657L141.538,179.128L141.538,179.128z M156.305,115.614
	L156.305,115.614h13.313l-6.656,6.657L156.305,115.614L156.305,115.614z M141.277,115.614L141.277,115.614h7.198l10.571,10.571
	l-15.657,15.658l-14.173-14.173L141.277,115.614L141.277,115.614z M117.165,115.614L117.165,115.614h17.024l-8.513,8.513
	L117.165,115.614L117.165,115.614z M115.329,134.471L115.329,134.471v-12.862l6.434,6.433L115.329,134.471L115.329,134.471z
	 M115.329,152.923L115.329,152.923v-11.364l9.974-9.974l14.172,14.173l-15.657,15.653L115.329,152.923L115.329,152.923z
	 M115.329,169.903L115.329,169.903v-9.151l4.578,4.573L115.329,169.903L115.329,169.903z M126.108,194.558L126.108,194.558h-8.289
	l-2.49-2.494v-15.076l8.122-8.117l14.168,14.172L126.108,194.558L126.108,194.558z M149.135,194.558L149.135,194.558h-15.942
	l7.972-7.972L149.135,194.558L149.135,194.558z M184.564,190.843L184.564,190.843c-1.881,2.25-4.875,3.715-8.229,3.715h-19.368
	l-11.89-11.89l15.657-15.653L184.564,190.843L184.564,190.843z M186.627,153.762L186.627,153.762v31.314L164.65,163.1l15.657-15.657
	L186.627,153.762L186.627,153.762z M186.627,141.119L186.627,141.119v4.817l-2.404-2.408L186.627,141.119L186.627,141.119z
	 M186.627,115.614v18.421l-5.949,5.948l-14.172-14.168l10.201-10.201H186.627L186.627,115.614z M99.414,157.477L99.414,157.477
	v18.673l-9.336-9.335L99.414,157.477L99.414,157.477z M99.414,144.834L99.414,144.834v5.555l-12.878,12.878l-14.17-14.168
	l15.656-15.658L99.414,144.834L99.414,144.834z M99.414,122.048L99.414,122.048v14.957l-7.479-7.479L99.414,122.048L99.414,122.048z
	 M78.021,115.614L78.021,115.614h20.74l-10.368,10.368L78.021,115.614L78.021,115.614z M38.881,115.614L38.881,115.614h24.451
	l-12.226,12.224L38.881,115.614L38.881,115.614z M26.09,117.425L26.09,117.425v-1.811h1.813L26.09,117.425L26.09,117.425z
	 M26.09,141.966L26.09,141.966v-17.452l6.93-6.93l14.172,14.172L31.536,147.41L26.09,141.966L26.09,141.966z M26.09,152.854
	L26.09,152.854v-3.064l1.532,1.534L26.09,152.854L26.09,152.854z M26.497,187.876L26.497,187.876
	c-0.267-0.817-0.407-1.681-0.407-2.571v-25.362l5.076-5.074l14.17,14.173L26.497,187.876L26.497,187.876z M55.246,194.558
	L55.246,194.558H36.378c-2.694,0-5.156-0.944-6.993-2.482l19.493-19.494l14.172,14.172L55.246,194.558L55.246,194.558z
	 M70.853,194.558L70.853,194.558h-8.519l4.258-4.261L70.853,194.558L70.853,194.558z M90.677,194.558L90.677,194.558H78.682
	l-8.172-8.175l15.656-15.657l13.249,13.253v1.839L90.677,194.558L90.677,194.558z M68.821,145.555L68.821,145.555l15.657-15.658
	l-14.172-14.172l-15.657,15.657L68.821,145.555L68.821,145.555z M49.25,165.122L49.25,165.122l15.656-15.653l-14.172-14.173
	l-15.656,15.658L49.25,165.122L49.25,165.122z M66.965,182.839L66.965,182.839l15.655-15.658l-14.17-14.168l-15.657,15.653
	L66.965,182.839L66.965,182.839z"/>
</svg>
