<?xml version="1.0" encoding="utf-8"?>
<!DOCTYPE svg PUBLIC "-//W3C//DTD SVG 1.1//EN" "http://www.w3.org/Graphics/SVG/1.1/DTD/svg11.dtd">
<svg version="1.1" xmlns="http://www.w3.org/2000/svg" xmlns:xlink="http://www.w3.org/1999/xlink" x="0px" y="0px" width="216px" height="216px" viewBox="0 0 216 216" enable-background="new 0 0 216 216" xml:space="preserve">
<path fill-rule="evenodd" clip-rule="evenodd" d="M41.414,40.602L41.414,40.602
	c0,15.269,14.997,23.533,31.333,22.428h71.216c12.256,1.656,28.487-7.564,28.487-18.825v-7.204c0-8.702-13.952-19.212-24.21-19.212
	c-23.499-0.283-34.953,20.487-40.53,29.993c-2.209-10.451-23.946-29.993-42.084-29.993c-10.441,0-24.652,7.849-24.213,20.412V40.602
	L41.414,40.602z M118.328,52.609L118.328,52.609c1.786-5.644,18.026-24.015,27.06-24.015h2.853c4.793,0,11.393,5.379,11.393,10.807
	v2.403c0,7.371-6.783,10.805-15.67,10.805H118.328L118.328,52.609z M54.231,43.003c-2.752-8.494,4.944-14.409,12.82-14.409
	c10.573,0,26.473,16.734,28.487,24.015H68.475C62.06,52.609,54.231,47.66,54.231,43.003L54.231,43.003z M150.97,71.136
	L150.97,71.136l13.848,13.849l13.851-13.849h7.088l-17.395,17.393l14.172,14.17l16.903-16.905v7.086l-9.872,9.875h-14.803
	l-10.315-10.313l-10.314,10.313h-7.084l13.858-13.855l-14.172-14.172l-15.658,15.653l12.37,12.374h-7.829l-8.455-8.458l-8.459,8.458
	h-3.658v-3.424l8.573-8.577l-8.573-8.576v-7.829l12.487,12.492l15.658-15.658l-0.049-0.049H150.97L150.97,71.136z M42.077,101.438
	L42.077,101.438h7.086l3.428-3.426l3.426,3.426h7.831l-7.342-7.343L72.161,78.44l14.172,14.172l-8.828,8.826h7.086l5.284-5.284
	l5.283,5.284h4.254v-3.573l-5.624-5.624l5.624-5.623V79.53l-9.166,9.167L76.076,74.525l2.073-2.071H66.174l2.445,2.443
	L52.961,90.553L34.86,72.454h-7.827l22.016,22.014L42.077,101.438L42.077,101.438z M19.708,101.438L19.708,101.438h4.997
	l-9.688-9.687v4.417C15.016,99.692,17.272,100.064,19.708,101.438L19.708,101.438z"/>
</svg>
