<?xml version="1.0" encoding="utf-8"?>
<!DOCTYPE svg PUBLIC "-//W3C//DTD SVG 1.1//EN" "http://www.w3.org/Graphics/SVG/1.1/DTD/svg11.dtd">
<svg version="1.1" xmlns="http://www.w3.org/2000/svg" xmlns:xlink="http://www.w3.org/1999/xlink" x="0px" y="0px" width="216px" height="216px" viewBox="0 0 216 216" enable-background="new 0 0 216 216" xml:space="preserve">
<path id="_x33_" fill-rule="evenodd" clip-rule="evenodd" fill="#F58031" d="M41.414,40.602L41.414,40.602
	c0,15.269,14.997,23.533,31.333,22.428h71.216c12.256,1.656,28.487-7.564,28.487-18.825v-7.204c0-8.702-13.952-19.212-24.21-19.212
	c-23.499-0.283-34.953,20.487-40.53,29.993c-2.209-10.451-23.946-29.993-42.084-29.993c-10.441,0-24.652,7.849-24.213,20.412V40.602
	L41.414,40.602z M118.328,52.609L118.328,52.609c1.786-5.644,18.026-24.015,27.06-24.015h2.853c4.793,0,11.393,5.379,11.393,10.807
	v2.403c0,7.371-6.783,10.805-15.67,10.805H118.328L118.328,52.609z M54.231,43.003c-2.752-8.494,4.944-14.409,12.82-14.409
	c10.573,0,26.473,16.734,28.487,24.015H68.475C62.06,52.609,54.231,47.66,54.231,43.003L54.231,43.003z M150.97,71.136
	L150.97,71.136l13.848,13.849l13.851-13.849h7.088l-17.395,17.393l14.172,14.17l16.903-16.905v7.086l-9.872,9.875h-14.803
	l-10.315-10.313l-10.314,10.313h-7.084l13.858-13.855l-14.172-14.172l-15.658,15.653l12.37,12.374h-7.829l-8.455-8.458l-8.459,8.458
	h-3.658v-3.424l8.573-8.577l-8.573-8.576v-7.829l12.487,12.492l15.658-15.658l-0.049-0.049H150.97L150.97,71.136z M42.077,101.438
	L42.077,101.438h7.086l3.428-3.426l3.426,3.426h7.831l-7.342-7.343L72.161,78.44l14.172,14.172l-8.828,8.826h7.086l5.284-5.284
	l5.283,5.284h4.254v-3.573l-5.624-5.624l5.624-5.623V79.53l-9.166,9.167L76.076,74.525l2.073-2.071H66.174l2.445,2.443
	L52.961,90.553L34.86,72.454h-7.827l22.016,22.014L42.077,101.438L42.077,101.438z M19.708,101.438L19.708,101.438h4.997
	l-9.688-9.687v4.417C15.016,99.692,17.272,100.064,19.708,101.438L19.708,101.438z"/>
<path id="_x32_" fill-rule="evenodd" clip-rule="evenodd" fill="#999557" d="M16.119-0.08h183.602
	c8.911,0,16.199,7.29,16.199,16.199v183.602c0,8.907-7.288,16.199-16.199,16.199H16.119c-8.909,0-16.199-7.292-16.199-16.199V16.119
	C-0.08,7.209,7.209-0.08,16.119-0.08L16.119-0.08z M16.119,4.918h183.602c6.161,0,11.198,5.04,11.198,11.2v183.602
	c0,6.161-5.037,11.198-11.198,11.198H16.119c-6.161,0-11.2-5.037-11.2-11.198V16.119C4.918,9.958,9.958,4.918,16.119,4.918
	L16.119,4.918z M161.106,159.556L161.106,159.556l15.657-15.657l-14.173-14.173l-15.657,15.658L161.106,159.556L161.106,159.556z
	 M141.538,179.128L141.538,179.128l15.653-15.658l-14.172-14.172l-15.654,15.657L141.538,179.128L141.538,179.128z M156.305,115.614
	L156.305,115.614h13.313l-6.656,6.657L156.305,115.614L156.305,115.614z M141.277,115.614L141.277,115.614h7.198l10.571,10.571
	l-15.657,15.658l-14.173-14.173L141.277,115.614L141.277,115.614z M117.165,115.614L117.165,115.614h17.024l-8.513,8.513
	L117.165,115.614L117.165,115.614z M115.329,134.471L115.329,134.471v-12.862l6.434,6.433L115.329,134.471L115.329,134.471z
	 M115.329,152.923L115.329,152.923v-11.364l9.974-9.974l14.172,14.173l-15.657,15.653L115.329,152.923L115.329,152.923z
	 M115.329,169.903L115.329,169.903v-9.151l4.578,4.573L115.329,169.903L115.329,169.903z M126.108,194.558L126.108,194.558h-8.289
	l-2.49-2.494v-15.076l8.122-8.117l14.168,14.172L126.108,194.558L126.108,194.558z M149.135,194.558L149.135,194.558h-15.942
	l7.972-7.972L149.135,194.558L149.135,194.558z M184.564,190.843L184.564,190.843c-1.881,2.25-4.875,3.715-8.229,3.715h-19.368
	l-11.89-11.89l15.657-15.653L184.564,190.843L184.564,190.843z M186.627,153.762L186.627,153.762v31.314L164.65,163.1l15.657-15.657
	L186.627,153.762L186.627,153.762z M186.627,141.119L186.627,141.119v4.817l-2.404-2.408L186.627,141.119L186.627,141.119z
	 M186.627,115.614v18.421l-5.949,5.948l-14.172-14.168l10.201-10.201H186.627L186.627,115.614z M99.414,157.477L99.414,157.477
	v18.673l-9.336-9.335L99.414,157.477L99.414,157.477z M99.414,144.834L99.414,144.834v5.555l-12.878,12.878l-14.17-14.168
	l15.656-15.658L99.414,144.834L99.414,144.834z M99.414,122.048L99.414,122.048v14.957l-7.479-7.479L99.414,122.048L99.414,122.048z
	 M78.021,115.614L78.021,115.614h20.74l-10.368,10.368L78.021,115.614L78.021,115.614z M38.881,115.614L38.881,115.614h24.451
	l-12.226,12.224L38.881,115.614L38.881,115.614z M26.09,117.425L26.09,117.425v-1.811h1.813L26.09,117.425L26.09,117.425z
	 M26.09,141.966L26.09,141.966v-17.452l6.93-6.93l14.172,14.172L31.536,147.41L26.09,141.966L26.09,141.966z M26.09,152.854
	L26.09,152.854v-3.064l1.532,1.534L26.09,152.854L26.09,152.854z M26.497,187.876L26.497,187.876
	c-0.267-0.817-0.407-1.681-0.407-2.571v-25.362l5.076-5.074l14.17,14.173L26.497,187.876L26.497,187.876z M55.246,194.558
	L55.246,194.558H36.378c-2.694,0-5.156-0.944-6.993-2.482l19.493-19.494l14.172,14.172L55.246,194.558L55.246,194.558z
	 M70.853,194.558L70.853,194.558h-8.519l4.258-4.261L70.853,194.558L70.853,194.558z M90.677,194.558L90.677,194.558H78.682
	l-8.172-8.175l15.656-15.657l13.249,13.253v1.839L90.677,194.558L90.677,194.558z M68.821,145.555L68.821,145.555l15.657-15.658
	l-14.172-14.172l-15.657,15.657L68.821,145.555L68.821,145.555z M49.25,165.122L49.25,165.122l15.656-15.653l-14.172-14.173
	l-15.656,15.658L49.25,165.122L49.25,165.122z M66.965,182.839L66.965,182.839l15.655-15.658l-14.17-14.168l-15.657,15.653
	L66.965,182.839L66.965,182.839z"/>
<path id="_x31_" fill-rule="evenodd" clip-rule="evenodd" fill="#7E5628" d="M24.704,101.438h17.373l6.972-6.97L27.034,72.454
	h-7.326c-2.436,1.372-4.691,1.746-4.691,5.268V91.75L24.704,101.438L24.704,101.438z M49.163,101.438L49.163,101.438h6.854
	l-3.428-3.426L49.163,101.438L49.163,101.438z M63.848,101.438L63.848,101.438h13.658l8.828-8.824L72.161,78.44L56.506,94.098
	L63.848,101.438L63.848,101.438z M84.592,101.438L84.592,101.438h10.567l-5.283-5.284L84.592,101.438L84.592,101.438z
	 M99.416,97.865L99.416,97.865V86.617l-5.625,5.625L99.416,97.865L99.416,97.865z M99.416,79.532L99.416,79.532v-7.078H78.149
	l-2.073,2.071l14.172,14.172L99.416,79.532L99.416,79.532z M66.174,72.454L66.174,72.454H34.86l18.101,18.099l15.658-15.658
	L66.174,72.454L66.174,72.454z M191.624,102.756L191.624,102.756c3.642,0,7.813-3.514,7.813-6.588v-3.288l-9.872,9.875H191.624
	L191.624,102.756z M199.437,85.794L199.437,85.794v-6.752c0-6.732-3.138-7.906-9.375-7.906h-4.306l-17.395,17.393l14.172,14.17
	L199.437,85.794L199.437,85.794z M178.668,71.136L178.668,71.136h-27.702l13.852,13.851L178.668,71.136L178.668,71.136z
	 M143.142,71.136L143.142,71.136h-28.097v3.215l12.487,12.492l15.658-15.658L143.142,71.136L143.142,71.136z M115.045,82.179
	L115.045,82.179v17.153l8.577-8.577L115.045,82.179L115.045,82.179z M118.703,102.756L118.703,102.756h16.914l-8.455-8.459
	L118.703,102.756L118.703,102.756z M143.446,102.756L143.446,102.756h3.602l13.858-13.855l-14.172-14.172l-15.658,15.655
	L143.446,102.756L143.446,102.756z M154.132,102.756L154.132,102.756h20.63l-10.315-10.315L154.132,102.756L154.132,102.756z
	 M99.414,192.905L99.414,192.905l-1.65,1.652h-7.086l8.736-8.74V192.905L99.414,192.905z M70.853,194.558L70.853,194.558
	l-4.26-4.261l-4.258,4.261h-7.088l7.805-7.805l-14.172-14.172l-19.493,19.494c-1.347-1.127-2.362-2.571-2.889-4.199l18.84-18.835
	l-14.17-14.173l-5.076,5.074v-7.088l1.532-1.53l-1.532-1.534v-7.824l5.446,5.444l15.656-15.654L33.02,117.584l-6.93,6.93v-7.089
	l1.813-1.811h10.979l12.225,12.224l12.226-12.224h14.689l10.372,10.368l10.368-10.368h0.653v6.434l-7.479,7.479l7.479,7.479v7.829
	L88.021,133.44l-15.656,15.658l14.17,14.168l12.878-12.878v7.088l-9.336,9.338l9.336,9.335v7.829l-13.249-13.253l-15.656,15.657
	l8.172,8.175H70.853L70.853,194.558z M66.965,182.839L66.965,182.839l15.655-15.658l-14.17-14.168l-15.657,15.653L66.965,182.839
	L66.965,182.839z M68.821,145.555L68.821,145.555l15.657-15.658l-14.172-14.172l-15.657,15.657L68.821,145.555L68.821,145.555z
	 M49.25,165.122L49.25,165.122l15.656-15.653l-14.172-14.173l-15.656,15.658L49.25,165.122L49.25,165.122z M186.627,134.035
	L186.627,134.035v7.084l-2.404,2.409l2.404,2.408v7.825l-6.319-6.319L164.65,163.1l21.977,21.977v0.229
	c0,2.071-0.77,3.991-2.063,5.538l-23.829-23.828l-15.657,15.653l11.89,11.89h-7.833l-7.971-7.972l-7.972,7.972h-7.084l11.511-11.516
	l-14.168-14.172l-8.122,8.117v-7.084l4.578-4.578l-4.578-4.573v-7.829l8.488,8.488l15.657-15.653l-14.172-14.173l-9.974,9.974
	v-7.088l6.434-6.43l-6.434-6.433v-5.994h1.836l8.512,8.513l8.513-8.513h7.088l-12.061,12.057l14.173,14.173l15.657-15.658
	l-10.571-10.571h7.829l6.657,6.657l6.656-6.657h7.089l-10.201,10.201l14.172,14.168L186.627,134.035L186.627,134.035z
	 M161.106,159.556L161.106,159.556l15.657-15.657l-14.173-14.173l-15.657,15.658L161.106,159.556L161.106,159.556z M141.538,179.128
	L141.538,179.128l15.653-15.658l-14.172-14.172l-15.654,15.657L141.538,179.128L141.538,179.128z"/>
</svg>
