<?xml version="1.0" encoding="utf-8"?>
<!DOCTYPE svg PUBLIC "-//W3C//DTD SVG 1.1//EN" "http://www.w3.org/Graphics/SVG/1.1/DTD/svg11.dtd">
<svg version="1.1" xmlns="http://www.w3.org/2000/svg" xmlns:xlink="http://www.w3.org/1999/xlink" x="0px" y="0px" width="216px" height="216px" viewBox="0 0 216 216" enable-background="new 0 0 216 216" xml:space="preserve">
<path fill-rule="evenodd" clip-rule="evenodd" d="M16.119-0.08h183.602
	c8.911,0,16.199,7.29,16.199,16.199v183.602c0,8.907-7.288,16.199-16.199,16.199H16.119c-8.909,0-16.199-7.292-16.199-16.199V16.119
	C-0.08,7.209,7.209-0.08,16.119-0.08L16.119-0.08z M16.119,4.918h183.602c6.161,0,11.198,5.04,11.198,11.2v183.602
	c0,6.161-5.037,11.198-11.198,11.198H16.119c-6.161,0-11.2-5.037-11.2-11.198V16.119C4.918,9.958,9.958,4.918,16.119,4.918
	L16.119,4.918z M153.961,71.632c0,0.553,0.049,1.107,0.15,1.609c0.049,0.502,0.098,1.054,0.146,1.609c1.611,0,3.17-0.051,4.68-0.151
	c1.51-0.051,2.966-0.102,4.423-0.152c4.577,0,9.05,0.152,13.477,0.401c4.374,0.303,8.598,0.655,12.769,1.109
	c-2.714-7.695-6.385-14.781-11.011-21.318c-4.676-6.488-10.006-12.268-16.089-17.295c-2.413,4.625-4.423,9.904-6.034,15.788
	C154.864,59.112,154.01,65.248,153.961,71.632L153.961,71.632z M23.691,131.109L23.691,131.109
	c2.714,8.598,6.586,16.442,11.664,23.531c5.027,7.137,11.013,13.424,17.8,18.904c5.278-4.073,9.904-8.952,13.975-14.681
	c4.071-5.733,7.241-12.021,9.605-18.856c2.313-6.889,3.469-14.025,3.52-21.569c0.049-2.812-0.152-5.628-0.454-8.545
	c-0.352-2.867-0.856-5.731-1.609-8.496c-10.156,3.818-19.859,8.194-29.01,13.171C40.03,119.545,31.536,125.075,23.691,131.109
	L23.691,131.109z"/>
</svg>
