<?xml version="1.0" encoding="utf-8"?>
<!DOCTYPE svg PUBLIC "-//W3C//DTD SVG 1.1//EN" "http://www.w3.org/Graphics/SVG/1.1/DTD/svg11.dtd">
<svg version="1.1" xmlns="http://www.w3.org/2000/svg" xmlns:xlink="http://www.w3.org/1999/xlink" x="0px" y="0px" width="216px" height="216px" viewBox="0 0 216 216" enable-background="new 0 0 216 216" xml:space="preserve">
<path id="_x33_" fill="#F58031" d="M123.895,88.726c1.709,6.285,3.166,13.021,4.424,20.162c1.306,7.19,2.311,14.531,3.019,22.071
	c0.753,7.539,1.103,15.03,1.103,22.574c0,6.186-0.199,12.317-0.65,18.4c-0.452,6.034-1.107,11.918-2.011,17.497
	c8.09-2.161,15.634-5.38,22.62-9.651c6.99-4.225,13.277-9.352,18.807-15.337c5.53-5.981,10.205-12.671,13.978-20.056h-0.302
	c-10.559-5.938-19.258-13.827-26.143-23.633c-6.938-9.756-11.666-21.267-14.234-34.392c-3.418,0.252-6.836,0.602-10.307,0.956
	C130.73,87.67,127.313,88.124,123.895,88.726L123.895,88.726z M44.606,43.931L44.606,43.931
	c9.202,4.573,17.196,10.457,24.084,17.696c6.836,7.19,12.266,15.739,16.286,25.592c3.976-1.359,8.098-2.614,12.37-3.821
	c4.222-1.207,8.547-2.163,12.972-2.917c-3.418-10.962-7.542-21.466-12.467-31.474c-4.93-10.003-10.508-19.155-16.693-27.45
	c-7.088,2.212-13.674,5.229-19.808,8.999C55.218,34.326,49.635,38.801,44.606,43.931L44.606,43.931z"/>
<path id="_x32_" fill-rule="evenodd" clip-rule="evenodd" fill="#999557" d="M16.119-0.08h183.602
	c8.911,0,16.199,7.29,16.199,16.199v183.602c0,8.907-7.288,16.199-16.199,16.199H16.119c-8.909,0-16.199-7.292-16.199-16.199V16.119
	C-0.08,7.209,7.209-0.08,16.119-0.08L16.119-0.08z M16.119,4.918h183.602c6.161,0,11.198,5.04,11.198,11.2v183.602
	c0,6.161-5.037,11.198-11.198,11.198H16.119c-6.161,0-11.2-5.037-11.2-11.198V16.119C4.918,9.958,9.958,4.918,16.119,4.918
	L16.119,4.918z M153.961,71.632c0,0.553,0.049,1.107,0.15,1.609c0.049,0.502,0.098,1.054,0.146,1.609c1.611,0,3.17-0.051,4.68-0.151
	c1.51-0.051,2.966-0.102,4.423-0.152c4.577,0,9.05,0.152,13.477,0.401c4.374,0.303,8.598,0.655,12.769,1.109
	c-2.714-7.695-6.385-14.781-11.011-21.318c-4.676-6.488-10.006-12.268-16.089-17.295c-2.413,4.625-4.423,9.904-6.034,15.788
	C154.864,59.112,154.01,65.248,153.961,71.632L153.961,71.632z M23.691,131.109L23.691,131.109
	c2.714,8.598,6.586,16.442,11.664,23.531c5.027,7.137,11.013,13.424,17.8,18.904c5.278-4.073,9.904-8.952,13.975-14.681
	c4.071-5.733,7.241-12.021,9.605-18.856c2.313-6.889,3.469-14.025,3.52-21.569c0.049-2.812-0.152-5.628-0.454-8.545
	c-0.352-2.867-0.856-5.731-1.609-8.496c-10.156,3.818-19.859,8.194-29.01,13.171C40.03,119.545,31.536,125.075,23.691,131.109
	L23.691,131.109z"/>
<path id="_x31_" fill="#7E5628" d="M155.418,85.459c1.811,8.999,4.776,16.992,8.947,24.082c4.175,7.091,9.452,13.174,15.788,18.35
	c1.51,1.155,3.019,2.263,4.626,3.32c1.559,1.106,3.166,2.111,4.826,3.17c1.607-4.578,2.815-9.354,3.67-14.282
	c0.859-4.977,1.307-10.004,1.307-15.184c0-6.183-0.603-12.065-1.758-17.696c-4.574-0.553-9.351-1.007-14.229-1.308
	c-4.924-0.301-9.904-0.452-14.93-0.452H155.418L155.418,85.459z M92.622,18.89L92.622,18.89c5.931,8.6,11.261,17.953,16.038,28.005
	c4.777,10.057,8.847,20.563,12.265,31.474c3.824-0.702,7.597-1.306,11.315-1.758c3.724-0.507,7.39-0.856,11.108-1.158
	c-0.049-0.753-0.098-1.457-0.146-2.211c-0.105-0.755-0.15-1.461-0.15-2.211c0-4.828,0.501-9.654,1.403-14.433
	c0.957-4.775,2.214-9.351,3.821-13.723c1.611-4.376,3.369-8.346,5.384-11.867c-6.841-4.324-14.132-7.591-21.973-9.855
	c-7.846-2.262-16.041-3.418-24.587-3.418c-2.513,0-4.975,0.102-7.339,0.252C97.347,18.188,94.984,18.489,92.622,18.89L92.622,18.89z
	 M62.607,180.031L62.607,180.031c6.484,3.869,13.475,6.885,20.915,9.05c7.44,2.16,15.283,3.263,23.578,3.32
	c1.913,0,3.821-0.103,5.682-0.204c1.912-0.154,3.724-0.402,5.481-0.704c1.058-5.782,1.859-11.816,2.412-18.151
	c0.554-6.336,0.854-12.72,0.854-19.255c0-7.292-0.35-14.628-1.058-21.969c-0.651-7.345-1.607-14.481-2.815-21.421
	c-1.254-6.989-2.714-13.523-4.37-19.658c-4.274,0.905-8.5,1.859-12.622,2.916c-4.122,1.056-8.145,2.262-12.165,3.57
	c0.903,3.571,1.556,7.088,2.01,10.606c0.451,3.471,0.653,6.942,0.653,10.307c-0.051,8.199-1.257,16.142-3.672,23.783
	c-2.411,7.642-5.729,14.681-10.003,21.118C73.215,169.773,68.237,175.352,62.607,180.031L62.607,180.031z M19.87,104.915
	L19.87,104.915c0,2.513,0.1,4.979,0.252,7.44c0.201,2.515,0.502,4.927,0.954,7.291c7.794-5.933,16.24-11.263,25.24-16.089
	c8.999-4.826,18.449-9.1,28.355-12.771c-3.568-8.746-8.547-16.339-14.929-22.774C53.354,61.576,45.863,56.5,37.265,52.776
	c-5.479,7.394-9.753,15.438-12.769,24.187C21.478,85.711,19.921,95.011,19.87,104.915L19.87,104.915z"/>
</svg>
