<?xml version="1.0" encoding="utf-8"?>
<!DOCTYPE svg PUBLIC "-//W3C//DTD SVG 1.1//EN" "http://www.w3.org/Graphics/SVG/1.1/DTD/svg11.dtd">
<svg version="1.1" xmlns="http://www.w3.org/2000/svg" xmlns:xlink="http://www.w3.org/1999/xlink" x="0px" y="0px" width="216px" height="216px" viewBox="0 0 216 216" enable-background="new 0 0 216 216" xml:space="preserve">
<path d="M123.895,88.726c1.709,6.285,3.166,13.021,4.424,20.162c1.306,7.19,2.311,14.531,3.019,22.071
	c0.753,7.539,1.103,15.03,1.103,22.574c0,6.186-0.199,12.317-0.65,18.4c-0.452,6.034-1.107,11.918-2.011,17.497
	c8.09-2.161,15.634-5.38,22.62-9.651c6.99-4.225,13.277-9.352,18.807-15.337c5.53-5.981,10.205-12.671,13.978-20.056h-0.302
	c-10.559-5.938-19.258-13.827-26.143-23.633c-6.938-9.756-11.666-21.267-14.234-34.392c-3.418,0.252-6.836,0.602-10.307,0.956
	C130.73,87.67,127.313,88.124,123.895,88.726L123.895,88.726z M44.606,43.931L44.606,43.931
	c9.202,4.573,17.196,10.457,24.084,17.696c6.836,7.19,12.266,15.739,16.286,25.592c3.976-1.359,8.098-2.614,12.37-3.821
	c4.222-1.207,8.547-2.163,12.972-2.917c-3.418-10.962-7.542-21.466-12.467-31.474c-4.93-10.003-10.508-19.155-16.693-27.45
	c-7.088,2.212-13.674,5.229-19.808,8.999C55.218,34.326,49.635,38.801,44.606,43.931L44.606,43.931z"/>
</svg>
