<?xml version="1.0" encoding="utf-8"?>
<!DOCTYPE svg PUBLIC "-//W3C//DTD SVG 1.1//EN" "http://www.w3.org/Graphics/SVG/1.1/DTD/svg11.dtd">
<svg version="1.1" xmlns="http://www.w3.org/2000/svg" xmlns:xlink="http://www.w3.org/1999/xlink" x="0px" y="0px" width="216px" height="216px" viewBox="0 0 216 216" enable-background="new 0 0 216 216" xml:space="preserve">
<path d="M155.418,85.459c1.811,8.999,4.776,16.992,8.947,24.082c4.175,7.091,9.452,13.174,15.788,18.35
	c1.51,1.155,3.019,2.263,4.626,3.32c1.559,1.106,3.166,2.111,4.826,3.17c1.607-4.578,2.815-9.354,3.67-14.282
	c0.859-4.977,1.307-10.004,1.307-15.184c0-6.183-0.603-12.065-1.758-17.696c-4.574-0.553-9.351-1.007-14.229-1.308
	c-4.924-0.301-9.904-0.452-14.93-0.452H155.418L155.418,85.459z M92.622,18.89L92.622,18.89c5.931,8.6,11.261,17.953,16.038,28.005
	c4.777,10.057,8.847,20.563,12.265,31.474c3.824-0.702,7.597-1.306,11.315-1.758c3.724-0.507,7.39-0.856,11.108-1.158
	c-0.049-0.753-0.098-1.457-0.146-2.211c-0.105-0.755-0.15-1.461-0.15-2.211c0-4.828,0.501-9.654,1.403-14.433
	c0.957-4.775,2.214-9.351,3.821-13.723c1.611-4.376,3.369-8.346,5.384-11.867c-6.841-4.324-14.132-7.591-21.973-9.855
	c-7.846-2.262-16.041-3.418-24.587-3.418c-2.513,0-4.975,0.102-7.339,0.252C97.347,18.188,94.984,18.489,92.622,18.89L92.622,18.89z
	 M62.607,180.031L62.607,180.031c6.484,3.869,13.475,6.885,20.915,9.05c7.44,2.16,15.283,3.263,23.578,3.32
	c1.913,0,3.821-0.103,5.682-0.204c1.912-0.154,3.724-0.402,5.481-0.704c1.058-5.782,1.859-11.816,2.412-18.151
	c0.554-6.336,0.854-12.72,0.854-19.255c0-7.292-0.35-14.628-1.058-21.969c-0.651-7.345-1.607-14.481-2.815-21.421
	c-1.254-6.989-2.714-13.523-4.37-19.658c-4.274,0.905-8.5,1.859-12.622,2.916c-4.122,1.056-8.145,2.262-12.165,3.57
	c0.903,3.571,1.556,7.088,2.01,10.606c0.451,3.471,0.653,6.942,0.653,10.307c-0.051,8.199-1.257,16.142-3.672,23.783
	c-2.411,7.642-5.729,14.681-10.003,21.118C73.215,169.773,68.237,175.352,62.607,180.031L62.607,180.031z M19.87,104.915
	L19.87,104.915c0,2.513,0.1,4.979,0.252,7.44c0.201,2.515,0.502,4.927,0.954,7.291c7.794-5.933,16.24-11.263,25.24-16.089
	c8.999-4.826,18.449-9.1,28.355-12.771c-3.568-8.746-8.547-16.339-14.929-22.774C53.354,61.576,45.863,56.5,37.265,52.776
	c-5.479,7.394-9.753,15.438-12.769,24.187C21.478,85.711,19.921,95.011,19.87,104.915L19.87,104.915z"/>
</svg>
