<?xml version="1.0" encoding="utf-8"?>
<!DOCTYPE svg PUBLIC "-//W3C//DTD SVG 1.1//EN" "http://www.w3.org/Graphics/SVG/1.1/DTD/svg11.dtd">
<svg version="1.1" xmlns="http://www.w3.org/2000/svg" xmlns:xlink="http://www.w3.org/1999/xlink" x="0px" y="0px" width="216px" height="216px" viewBox="0 0 216 216" enable-background="new 0 0 216 216" xml:space="preserve">
<path fill-rule="evenodd" clip-rule="evenodd" d="M143.927,92.146h49.202c3.854,0,7.003,3.149,7.003,7
	c0,3.849-3.149,6.999-7.003,6.999h-51.521c0.582-2.478,0.883-5.063,0.883-7.727c0-1.492-0.098-2.981-0.293-4.456
	C142.808,93.385,143.386,92.779,143.927,92.146L143.927,92.146z M146.355,56.512L146.355,56.512h30.868
	c3.849,0,6.999,3.149,6.999,7.001c0,3.849-3.154,6.999-6.999,6.999h-28.101c-0.497-1.522-1.168-2.956-1.986-4.295
	c-1.465-2.852-3.491-5.367-5.928-7.434C142.49,57.389,144.329,56.512,146.355,56.512L146.355,56.512z M160.838,35.194
	c-5.099,0-9.229-4.061-9.229-9.07c0-5.005,4.13-9.068,9.229-9.068c5.094,0,9.224,4.063,9.224,9.068
	C170.062,31.133,165.932,35.194,160.838,35.194L160.838,35.194z M26.995,90.112l-1.561-1.74
	C11.583,71.519,12.53,45.186,28.277,29.44c15.951-15.952,43.514-13.765,60.368,0.655c-10.779-1.739-31.082,2.075-45.083,16.079
	C30.012,59.722,25.884,79.335,26.995,90.112L26.995,90.112z"/>
</svg>
