<?xml version="1.0" encoding="utf-8"?>
<!DOCTYPE svg PUBLIC "-//W3C//DTD SVG 1.1//EN" "http://www.w3.org/Graphics/SVG/1.1/DTD/svg11.dtd">
<svg version="1.1" xmlns="http://www.w3.org/2000/svg" xmlns:xlink="http://www.w3.org/1999/xlink" x="0px" y="0px" width="216px" height="216px" viewBox="0 0 216 216" enable-background="new 0 0 216 216" xml:space="preserve">
<path fill-rule="evenodd" clip-rule="evenodd" d="M16.119-0.08h183.602
	c8.911,0,16.199,7.29,16.199,16.199v183.602c0,8.907-7.288,16.199-16.199,16.199H16.119c-8.909,0-16.199-7.292-16.199-16.199V16.119
	C-0.08,7.209,7.209-0.08,16.119-0.08L16.119-0.08z M16.119,4.918h183.602c6.161,0,11.198,5.04,11.198,11.2v183.602
	c0,6.161-5.037,11.198-11.198,11.198H16.119c-6.161,0-11.2-5.037-11.2-11.198V16.119C4.918,9.958,9.958,4.918,16.119,4.918
	L16.119,4.918z M65.276,103.554L65.276,103.554c-10.431,1.628-21.348-0.598-30.453-6.673c-0.696-0.466-1.385-0.958-2.063-1.469
	c0.006-0.854,0.039-1.772,0.104-2.736c0.698-10.276,5.086-26.372,17.545-38.833c13.839-13.839,33.053-18.901,42.611-18.327
	c5.345,7.151,8.168,15.588,8.474,24.103c-4.773-4.506-11.263-7.05-18.001-7.05c-13.57,0-25.517,10.368-25.517,24.243
	c0,7.025,3.153,13.397,8.24,17.845c-0.126,1.25-0.191,2.502-0.191,3.762c0,1.636,0.107,3.247,0.313,4.824
	C65.954,103.338,65.596,103.44,65.276,103.554L65.276,103.554z M149.965,74.328L149.965,74.328h35.209c3.85,0,7.003,3.151,7.003,7
	c0,3.852-3.153,6.999-7.003,6.999H146.62c0.171-0.305,0.342-0.615,0.501-0.928c1.908-3.123,2.994-6.743,2.994-10.588
	C150.115,75.968,150.066,75.14,149.965,74.328L149.965,74.328z M153.041,38.693L153.041,38.693h17.18
	c3.85,0,7.003,3.149,7.003,7.001c0,3.847-3.153,7.001-7.003,7.001h-17.18c-3.849,0-7.003-3.154-7.003-7.001
	C146.038,41.843,149.192,38.693,153.041,38.693L153.041,38.693z"/>
</svg>
