<?xml version="1.0" encoding="utf-8"?>
<!DOCTYPE svg PUBLIC "-//W3C//DTD SVG 1.1//EN" "http://www.w3.org/Graphics/SVG/1.1/DTD/svg11.dtd">
<svg version="1.1" xmlns="http://www.w3.org/2000/svg" xmlns:xlink="http://www.w3.org/1999/xlink" x="0px" y="0px" width="216px" height="216px" viewBox="0 0 216 216" enable-background="new 0 0 216 216" xml:space="preserve">
<path fill-rule="evenodd" clip-rule="evenodd" d="M76.926,159.845c8.305,0,15.039,7.495,15.039,16.731
	c0,9.245-6.734,16.736-15.039,16.736c-8.305,0-15.039-7.491-15.039-16.736C61.887,167.34,68.621,159.845,76.926,159.845
	L76.926,159.845z M133.733,159.845L133.733,159.845c8.306,0,15.044,7.495,15.044,16.731c0,9.245-6.738,16.736-15.044,16.736
	c-8.301,0-15.035-7.491-15.035-16.736C118.698,167.34,125.433,159.845,133.733,159.845L133.733,159.845z M81.984,128.074
	L81.984,128.074c6.191,4.41,13.81,7.019,22.054,7.019s15.861-2.608,22.054-7.019c5.241-2.238,7.422-8.004,13.103-11.211
	c8.553-4.823,18.059-4.199,21.216,1.404c3.166,5.603-1.208,14.063-9.766,18.893c-3.174,1.79-6.478,2.832-9.538,3.146v14.151
	c-2.271-0.87-4.74-1.354-7.373-1.354c-12.675,0-21.779,11.222-21.779,23.474l0.002,0.212H98.704l0.004-0.212
	c0-12.252-9.104-23.474-21.781-23.474c-2.81,0-5.44,0.553-7.837,1.542v-14.25c-3.406-0.126-7.192-1.192-10.812-3.234
	c-8.555-4.83-12.932-13.29-9.768-18.893c3.16-5.604,12.663-6.228,21.222-1.404C74.399,119.504,78.558,126.052,81.984,128.074
	L81.984,128.074z M124.159,61.562L124.159,61.562c9.127,0,16.524,6.83,16.524,15.25c0,5.855-3.581,10.946-8.83,13.499
	c0.781,2.57,1.205,5.29,1.205,8.108c0,15.67-12.997,28.381-29.021,28.381c-16.024,0-29.019-12.711-29.019-28.381
	c0-2.755,0.403-5.416,1.152-7.935c-5.451-2.49-9.202-7.678-9.202-13.672c0-8.42,7.399-15.25,16.524-15.25
	c6.702,0,12.471,3.685,15.063,8.98c1.776-0.334,3.607-0.509,5.481-0.509c1.737,0,3.442,0.15,5.095,0.438
	C111.74,65.213,117.49,61.562,124.159,61.562L124.159,61.562z M104.886,97.57L104.886,97.57c5.498,0,9.955,1.701,9.955,6.028
	c0,4.329-4.457,9.647-9.955,9.647c-5.499,0-9.957-5.318-9.957-9.647C94.93,99.271,99.387,97.57,104.886,97.57L104.886,97.57z
	 M114.479,89.554L114.479,89.554c1.944,0,3.523,1.314,3.523,2.934c0,1.621-1.579,2.936-3.523,2.936
	c-1.941,0-3.522-1.314-3.522-2.936C110.957,90.869,112.538,89.554,114.479,89.554L114.479,89.554z M93.935,89.554L93.935,89.554
	c1.945,0,3.524,1.314,3.524,2.934c0,1.621-1.579,2.936-3.524,2.936c-1.943,0-3.52-1.314-3.52-2.936
	C90.415,90.869,91.992,89.554,93.935,89.554L93.935,89.554z"/>
</svg>
