<?xml version="1.0" encoding="utf-8"?>
<!DOCTYPE svg PUBLIC "-//W3C//DTD SVG 1.1//EN" "http://www.w3.org/Graphics/SVG/1.1/DTD/svg11.dtd">
<svg version="1.1" xmlns="http://www.w3.org/2000/svg" xmlns:xlink="http://www.w3.org/1999/xlink" x="0px" y="0px" width="216px" height="216px" viewBox="0 0 216 216" enable-background="new 0 0 216 216" xml:space="preserve">
<path id="_x33_" fill-rule="evenodd" clip-rule="evenodd" fill="#F58031" d="M143.927,92.146h49.202c3.854,0,7.003,3.149,7.003,7
	c0,3.849-3.149,6.999-7.003,6.999h-51.521c0.582-2.478,0.883-5.063,0.883-7.727c0-1.492-0.098-2.981-0.293-4.456
	C142.808,93.385,143.386,92.779,143.927,92.146L143.927,92.146z M146.355,56.512L146.355,56.512h30.868
	c3.849,0,6.999,3.149,6.999,7.001c0,3.849-3.154,6.999-6.999,6.999h-28.101c-0.497-1.522-1.168-2.956-1.986-4.295
	c-1.465-2.852-3.491-5.367-5.928-7.434C142.49,57.389,144.329,56.512,146.355,56.512L146.355,56.512z M160.838,35.194
	c-5.099,0-9.229-4.061-9.229-9.07c0-5.005,4.13-9.068,9.229-9.068c5.094,0,9.224,4.063,9.224,9.068
	C170.062,31.133,165.932,35.194,160.838,35.194L160.838,35.194z M26.995,90.112l-1.561-1.74
	C11.583,71.519,12.53,45.186,28.277,29.44c15.951-15.952,43.514-13.765,60.368,0.655c-10.779-1.739-31.082,2.075-45.083,16.079
	C30.012,59.722,25.884,79.335,26.995,90.112L26.995,90.112z"/>
<path id="_x32_" fill-rule="evenodd" clip-rule="evenodd" fill="#999557" d="M16.119-0.08h183.602
	c8.911,0,16.199,7.29,16.199,16.199v183.602c0,8.907-7.288,16.199-16.199,16.199H16.119c-8.909,0-16.199-7.292-16.199-16.199V16.119
	C-0.08,7.209,7.209-0.08,16.119-0.08L16.119-0.08z M16.119,4.918h183.602c6.161,0,11.198,5.04,11.198,11.2v183.602
	c0,6.161-5.037,11.198-11.198,11.198H16.119c-6.161,0-11.2-5.037-11.2-11.198V16.119C4.918,9.958,9.958,4.918,16.119,4.918
	L16.119,4.918z M65.276,103.554L65.276,103.554c-10.431,1.628-21.348-0.598-30.453-6.673c-0.696-0.466-1.385-0.958-2.063-1.469
	c0.006-0.854,0.039-1.772,0.104-2.736c0.698-10.276,5.086-26.372,17.545-38.833c13.839-13.839,33.053-18.901,42.611-18.327
	c5.345,7.151,8.168,15.588,8.474,24.103c-4.773-4.506-11.263-7.05-18.001-7.05c-13.57,0-25.517,10.368-25.517,24.243
	c0,7.025,3.153,13.397,8.24,17.845c-0.126,1.25-0.191,2.502-0.191,3.762c0,1.636,0.107,3.247,0.313,4.824
	C65.954,103.338,65.596,103.44,65.276,103.554L65.276,103.554z M149.965,74.328L149.965,74.328h35.209c3.85,0,7.003,3.151,7.003,7
	c0,3.852-3.153,6.999-7.003,6.999H146.62c0.171-0.305,0.342-0.615,0.501-0.928c1.908-3.123,2.994-6.743,2.994-10.588
	C150.115,75.968,150.066,75.14,149.965,74.328L149.965,74.328z M153.041,38.693L153.041,38.693h17.18
	c3.85,0,7.003,3.149,7.003,7.001c0,3.847-3.153,7.001-7.003,7.001h-17.18c-3.849,0-7.003-3.154-7.003-7.001
	C146.038,41.843,149.192,38.693,153.041,38.693L153.041,38.693z"/>
<path id="_x31_" fill-rule="evenodd" clip-rule="evenodd" fill="#7E5628" d="M76.926,159.845c8.305,0,15.039,7.495,15.039,16.731
	c0,9.245-6.734,16.736-15.039,16.736c-8.305,0-15.039-7.491-15.039-16.736C61.887,167.34,68.621,159.845,76.926,159.845
	L76.926,159.845z M133.733,159.845L133.733,159.845c8.306,0,15.044,7.495,15.044,16.731c0,9.245-6.738,16.736-15.044,16.736
	c-8.301,0-15.035-7.491-15.035-16.736C118.698,167.34,125.433,159.845,133.733,159.845L133.733,159.845z M81.984,128.074
	L81.984,128.074c6.191,4.41,13.81,7.019,22.054,7.019s15.861-2.608,22.054-7.019c5.241-2.238,7.422-8.004,13.103-11.211
	c8.553-4.823,18.059-4.199,21.216,1.404c3.166,5.603-1.208,14.063-9.766,18.893c-3.174,1.79-6.478,2.832-9.538,3.146v14.151
	c-2.271-0.87-4.74-1.354-7.373-1.354c-12.675,0-21.779,11.222-21.779,23.474l0.002,0.212H98.704l0.004-0.212
	c0-12.252-9.104-23.474-21.781-23.474c-2.81,0-5.44,0.553-7.837,1.542v-14.25c-3.406-0.126-7.192-1.192-10.812-3.234
	c-8.555-4.83-12.932-13.29-9.768-18.893c3.16-5.604,12.663-6.228,21.222-1.404C74.399,119.504,78.558,126.052,81.984,128.074
	L81.984,128.074z M124.159,61.562L124.159,61.562c9.127,0,16.524,6.83,16.524,15.25c0,5.855-3.581,10.946-8.83,13.499
	c0.781,2.57,1.205,5.29,1.205,8.108c0,15.67-12.997,28.381-29.021,28.381c-16.024,0-29.019-12.711-29.019-28.381
	c0-2.755,0.403-5.416,1.152-7.935c-5.451-2.49-9.202-7.678-9.202-13.672c0-8.42,7.399-15.25,16.524-15.25
	c6.702,0,12.471,3.685,15.063,8.98c1.776-0.334,3.607-0.509,5.481-0.509c1.737,0,3.442,0.15,5.095,0.438
	C111.74,65.213,117.49,61.562,124.159,61.562L124.159,61.562z M104.886,97.57L104.886,97.57c5.498,0,9.955,1.701,9.955,6.028
	c0,4.329-4.457,9.647-9.955,9.647c-5.499,0-9.957-5.318-9.957-9.647C94.93,99.271,99.387,97.57,104.886,97.57L104.886,97.57z
	 M114.479,89.554L114.479,89.554c1.944,0,3.523,1.314,3.523,2.934c0,1.621-1.579,2.936-3.523,2.936
	c-1.941,0-3.522-1.314-3.522-2.936C110.957,90.869,112.538,89.554,114.479,89.554L114.479,89.554z M93.935,89.554L93.935,89.554
	c1.945,0,3.524,1.314,3.524,2.934c0,1.621-1.579,2.936-3.524,2.936c-1.943,0-3.52-1.314-3.52-2.936
	C90.415,90.869,91.992,89.554,93.935,89.554L93.935,89.554z"/>
</svg>
