<?xml version="1.0" encoding="utf-8"?>
<!DOCTYPE svg PUBLIC "-//W3C//DTD SVG 1.1//EN" "http://www.w3.org/Graphics/SVG/1.1/DTD/svg11.dtd">
<svg version="1.1" xmlns="http://www.w3.org/2000/svg" xmlns:xlink="http://www.w3.org/1999/xlink" x="0px" y="0px" width="216px" height="216px" viewBox="0 0 216 216" enable-background="new 0 0 216 216" xml:space="preserve">
<path id="_x33_" fill-rule="evenodd" clip-rule="evenodd" fill="#F58031" d="M50.441,84.197c6.824-26.884,30.139-46.69,57.849-46.69
	s51.025,19.806,57.854,46.69c0.96,2.059-4.285,3.711-5.367,1.406c-2.396-4.991-7.21-8.01-12.008-7.07
	c-4.699,0.92-7.976,5.359-8.431,10.728c-0.024,2.356-3.882,3.005-4.366,0.502c-0.802-6.476-6.075-11.479-12.455-11.479
	c-6.832,0-12.396,5.746-12.558,12.893c-0.064,2.252-6.229,2.413-6.197-0.01c-0.167-7.141-5.727-12.882-12.557-12.882
	c-6.35,0-11.599,4.958-12.443,11.391c-0.694,2.061-4.035,1.78-4.208-0.502c-0.48-5.331-3.748-9.729-8.423-10.641
	c-4.75-0.93-9.513,2.021-11.935,6.921C53.914,88.126,49.574,87.003,50.441,84.197L50.441,84.197z"/>
<path id="_x32_" fill-rule="evenodd" clip-rule="evenodd" fill="#999557" d="M16.119-0.08h183.602
	c8.911,0,16.199,7.29,16.199,16.199v183.602c0,8.907-7.288,16.199-16.199,16.199H16.119c-8.909,0-16.199-7.292-16.199-16.199V16.119
	C-0.08,7.209,7.209-0.08,16.119-0.08L16.119-0.08z M16.119,4.918h183.602c6.161,0,11.198,5.04,11.198,11.2v183.602
	c0,6.161-5.037,11.198-11.198,11.198H16.119c-6.161,0-11.2-5.037-11.2-11.198V16.119C4.918,9.958,9.958,4.918,16.119,4.918
	L16.119,4.918z M195.322,59.8c0.383,2.838,0.603,5.725,0.647,8.652c1.025,65.037-33.729,98.855-89.161,123.644
	c-55.311-23.604-82.622-63.318-84.868-123.644c-0.118-3.79,0.075-7.513,0.549-11.151c20.382-6.285,30.609-21.474,31.73-39.445
	h103.996C159.539,39.078,169.114,56.418,195.322,59.8L195.322,59.8z M184.377,69.431L184.377,69.431
	c-20.228-5.561-32.243-19.867-36.332-39.972H64.146c-4.073,16.384-14.936,29.018-30.628,36.07c-0.012,0.844-0.004,1.688,0.021,2.529
	c2.083,55.846,24.243,86.469,73.287,111.245C155.796,155.877,185.142,127.35,184.377,69.431L184.377,69.431z"/>
<path id="_x31_" fill-rule="evenodd" clip-rule="evenodd" fill="#7E5628" d="M102.469,142.132l-0.067-42.535
	c0-2.11,2.104-3.617,4.213-3.617h3.231c2.109,0,3.839,1.729,3.839,3.837l0.021,42.698c0,0.159,0,0.33,0.004,0.492v-0.004
	c0,7.805-8.189,14.148-17.432,14.148c-9.247,0-16.185-5.367-17.291-12.313c-0.265-0.553-0.411-1.172-0.411-1.822V126.82
	c0-2.352,1.927-4.28,4.278-4.28h3.007c2.354,0,4.278,1.929,4.278,4.28v16.187v0.009c0,2.75,2.749,4.976,6.138,4.976
	c3.388,0,6.136-2.226,6.136-4.976v-0.009L102.469,142.132L102.469,142.132z"/>
</svg>
