<?xml version="1.0" encoding="utf-8"?>
<!DOCTYPE svg PUBLIC "-//W3C//DTD SVG 1.1//EN" "http://www.w3.org/Graphics/SVG/1.1/DTD/svg11.dtd">
<svg version="1.1" xmlns="http://www.w3.org/2000/svg" xmlns:xlink="http://www.w3.org/1999/xlink" x="0px" y="0px" width="216px" height="216px" viewBox="0 0 216 216" enable-background="new 0 0 216 216" xml:space="preserve">
<path fill-rule="evenodd" clip-rule="evenodd" d="M16.119-0.08h183.602
	c8.911,0,16.199,7.29,16.199,16.199v183.602c0,8.907-7.288,16.199-16.199,16.199H16.119c-8.909,0-16.199-7.292-16.199-16.199V16.119
	C-0.08,7.209,7.209-0.08,16.119-0.08L16.119-0.08z M16.119,4.918h183.602c6.161,0,11.198,5.04,11.198,11.2v183.602
	c0,6.161-5.037,11.198-11.198,11.198H16.119c-6.161,0-11.2-5.037-11.2-11.198V16.119C4.918,9.958,9.958,4.918,16.119,4.918
	L16.119,4.918z M195.322,59.8c0.383,2.838,0.603,5.725,0.647,8.652c1.025,65.037-33.729,98.855-89.161,123.644
	c-55.311-23.604-82.622-63.318-84.868-123.644c-0.118-3.79,0.075-7.513,0.549-11.151c20.382-6.285,30.609-21.474,31.73-39.445
	h103.996C159.539,39.078,169.114,56.418,195.322,59.8L195.322,59.8z M184.377,69.431L184.377,69.431
	c-20.228-5.561-32.243-19.867-36.332-39.972H64.146c-4.073,16.384-14.936,29.018-30.628,36.07c-0.012,0.844-0.004,1.688,0.021,2.529
	c2.083,55.846,24.243,86.469,73.287,111.245C155.796,155.877,185.142,127.35,184.377,69.431L184.377,69.431z"/>
</svg>
