<?xml version="1.0" encoding="utf-8"?>
<!DOCTYPE svg PUBLIC "-//W3C//DTD SVG 1.1//EN" "http://www.w3.org/Graphics/SVG/1.1/DTD/svg11.dtd">
<svg version="1.1" xmlns="http://www.w3.org/2000/svg" xmlns:xlink="http://www.w3.org/1999/xlink" x="0px" y="0px" width="216px" height="216px" viewBox="0 0 216 216" enable-background="new 0 0 216 216" xml:space="preserve">
<path fill-rule="evenodd" clip-rule="evenodd" d="M50.441,84.197c6.824-26.884,30.139-46.69,57.849-46.69
	s51.025,19.806,57.854,46.69c0.96,2.059-4.285,3.711-5.367,1.406c-2.396-4.991-7.21-8.01-12.008-7.07
	c-4.699,0.92-7.976,5.359-8.431,10.728c-0.024,2.356-3.882,3.005-4.366,0.502c-0.802-6.476-6.075-11.479-12.455-11.479
	c-6.832,0-12.396,5.746-12.558,12.893c-0.064,2.252-6.229,2.413-6.197-0.01c-0.167-7.141-5.727-12.882-12.557-12.882
	c-6.35,0-11.599,4.958-12.443,11.391c-0.694,2.061-4.035,1.78-4.208-0.502c-0.48-5.331-3.748-9.729-8.423-10.641
	c-4.75-0.93-9.513,2.021-11.935,6.921C53.914,88.126,49.574,87.003,50.441,84.197L50.441,84.197z"/>
</svg>
