<?xml version="1.0" encoding="utf-8"?>
<!DOCTYPE svg PUBLIC "-//W3C//DTD SVG 1.1//EN" "http://www.w3.org/Graphics/SVG/1.1/DTD/svg11.dtd">
<svg version="1.1" xmlns="http://www.w3.org/2000/svg" xmlns:xlink="http://www.w3.org/1999/xlink" x="0px" y="0px" width="216px" height="216px" viewBox="0 0 216 216" enable-background="new 0 0 216 216" xml:space="preserve">
<path fill-rule="evenodd" clip-rule="evenodd" d="M102.469,142.132l-0.067-42.535
	c0-2.11,2.104-3.617,4.213-3.617h3.231c2.109,0,3.839,1.729,3.839,3.837l0.021,42.698c0,0.159,0,0.33,0.004,0.492v-0.004
	c0,7.805-8.189,14.148-17.432,14.148c-9.247,0-16.185-5.367-17.291-12.313c-0.265-0.553-0.411-1.172-0.411-1.822V126.82
	c0-2.352,1.927-4.28,4.278-4.28h3.007c2.354,0,4.278,1.929,4.278,4.28v16.187v0.009c0,2.75,2.749,4.976,6.138,4.976
	c3.388,0,6.136-2.226,6.136-4.976v-0.009L102.469,142.132L102.469,142.132z"/>
</svg>
