<?xml version="1.0" encoding="utf-8"?>
<!DOCTYPE svg PUBLIC "-//W3C//DTD SVG 1.1//EN" "http://www.w3.org/Graphics/SVG/1.1/DTD/svg11.dtd">
<svg version="1.1" xmlns="http://www.w3.org/2000/svg" xmlns:xlink="http://www.w3.org/1999/xlink" x="0px" y="0px" width="216px" height="216px" viewBox="0 0 216 216" enable-background="new 0 0 216 216" xml:space="preserve">
<path id="_x33_" fill-rule="evenodd" clip-rule="evenodd" fill="#F58031" d="M105.664,39.54c-2.366-0.932-4.042-3.239-4.042-5.937
	c0-2.696,1.676-5,4.042-5.933V39.54L105.664,39.54z M110.309,27.663c2.376,0.928,4.064,3.239,4.064,5.94
	c0,2.706-1.688,5.02-4.064,5.943V27.663L110.309,27.663z M91.652,104.858L91.652,104.858V82.476h-7.233v22.382H91.652
	L91.652,104.858z M130.56,104.858L130.56,104.858V82.476h-7.23v22.382H130.56L130.56,104.858z M141.379,104.858L141.379,104.858
	V82.476h-7.234v22.382H141.379L141.379,104.858z M130.564,159.047L130.564,159.047v-22.379h-7.235v22.379H130.564L130.564,159.047z
	 M91.652,159.047L91.652,159.047v-22.379h-7.233v22.379H91.652L91.652,159.047z M141.379,159.047L141.379,159.047v-22.379h-7.234
	v22.379H141.379L141.379,159.047z M80.834,159.047L80.834,159.047v-22.379h-7.233v22.379H80.834L80.834,159.047z M80.834,104.858
	L80.834,104.858V82.476h-7.233v22.382H80.834L80.834,104.858z"/>
<path id="_x32_" fill-rule="evenodd" clip-rule="evenodd" fill="#999557" d="M173.549,125.274v38.843h4.586v5.786H37.998v-5.786
	h4.973v-38.843H173.549L173.549,125.274z M85.5,163.47L85.5,163.47H69.175v-31.156h27.393v31.156H85.5L85.5,163.47z M134.897,163.47
	L134.897,163.47h-16.264v-31.156h27.393v31.156H134.897L134.897,163.47z M42.97,67.36L42.97,67.36h130.579v32.214h8.346v19.886h-149
	V99.574H42.97V67.36L42.97,67.36z M134.897,108.97L134.897,108.97h-16.264V77.813h27.393v31.157H134.897L134.897,108.97z
	 M85.5,108.97L85.5,108.97H69.175V77.813h27.393v31.157H85.5L85.5,108.97z M16.119-0.08h183.602c8.911,0,16.199,7.29,16.199,16.199
	v183.602c0,8.907-7.288,16.199-16.199,16.199H16.119c-8.909,0-16.199-7.292-16.199-16.199V16.119
	C-0.08,7.209,7.209-0.08,16.119-0.08L16.119-0.08z M16.119,4.918h183.602c6.161,0,11.198,5.04,11.198,11.2v183.602
	c0,6.161-5.037,11.198-11.198,11.198H16.119c-6.161,0-11.2-5.037-11.2-11.198V16.119C4.918,9.958,9.958,4.918,16.119,4.918
	L16.119,4.918z"/>
<path id="_x31_" fill-rule="evenodd" clip-rule="evenodd" fill="#7E5628" d="M178.135,177.016v9.587h16.797v6.962H22.515v-6.962
	h15.482v-9.587H178.135L178.135,177.016z M63.071,31.207L63.071,31.207H94.12c1.296-6.368,6.928-11.161,13.678-11.161
	c6.75,0,12.382,4.793,13.676,11.161h28.129l32.63,29.637H28.94L63.071,31.207L63.071,31.207z M108.133,23.896L108.133,23.896
	c5.333,0,9.658,4.328,9.658,9.66c0,5.332-4.325,9.658-9.658,9.658s-9.658-4.326-9.658-9.658
	C98.476,28.224,102.801,23.896,108.133,23.896L108.133,23.896z"/>
</svg>
