<?xml version="1.0" encoding="utf-8"?>
<!DOCTYPE svg PUBLIC "-//W3C//DTD SVG 1.1//EN" "http://www.w3.org/Graphics/SVG/1.1/DTD/svg11.dtd">
<svg version="1.1" xmlns="http://www.w3.org/2000/svg" xmlns:xlink="http://www.w3.org/1999/xlink" x="0px" y="0px" width="216px" height="216px" viewBox="0 0 216 216" enable-background="new 0 0 216 216" xml:space="preserve">
<path fill-rule="evenodd" clip-rule="evenodd" d="M173.549,125.274v38.843h4.586v5.786H37.998v-5.786
	h4.973v-38.843H173.549L173.549,125.274z M85.5,163.47L85.5,163.47H69.175v-31.156h27.393v31.156H85.5L85.5,163.47z M134.897,163.47
	L134.897,163.47h-16.264v-31.156h27.393v31.156H134.897L134.897,163.47z M42.97,67.36L42.97,67.36h130.579v32.214h8.346v19.886h-149
	V99.574H42.97V67.36L42.97,67.36z M134.897,108.97L134.897,108.97h-16.264V77.813h27.393v31.157H134.897L134.897,108.97z
	 M85.5,108.97L85.5,108.97H69.175V77.813h27.393v31.157H85.5L85.5,108.97z M16.119-0.08h183.602c8.911,0,16.199,7.29,16.199,16.199
	v183.602c0,8.907-7.288,16.199-16.199,16.199H16.119c-8.909,0-16.199-7.292-16.199-16.199V16.119
	C-0.08,7.209,7.209-0.08,16.119-0.08L16.119-0.08z M16.119,4.918h183.602c6.161,0,11.198,5.04,11.198,11.2v183.602
	c0,6.161-5.037,11.198-11.198,11.198H16.119c-6.161,0-11.2-5.037-11.2-11.198V16.119C4.918,9.958,9.958,4.918,16.119,4.918
	L16.119,4.918z"/>
</svg>
