<?xml version="1.0" encoding="utf-8"?>
<!DOCTYPE svg PUBLIC "-//W3C//DTD SVG 1.1//EN" "http://www.w3.org/Graphics/SVG/1.1/DTD/svg11.dtd">
<svg version="1.1" xmlns="http://www.w3.org/2000/svg" xmlns:xlink="http://www.w3.org/1999/xlink" x="0px" y="0px" width="216px" height="216px" viewBox="0 0 216 216" enable-background="new 0 0 216 216" xml:space="preserve">
<path fill-rule="evenodd" clip-rule="evenodd" d="M178.135,177.016v9.587h16.797v6.962H22.515v-6.962
	h15.482v-9.587H178.135L178.135,177.016z M63.071,31.207L63.071,31.207H94.12c1.296-6.368,6.928-11.161,13.678-11.161
	c6.75,0,12.382,4.793,13.676,11.161h28.129l32.63,29.637H28.94L63.071,31.207L63.071,31.207z M108.133,23.896L108.133,23.896
	c5.333,0,9.658,4.328,9.658,9.66c0,5.332-4.325,9.658-9.658,9.658s-9.658-4.326-9.658-9.658
	C98.476,28.224,102.801,23.896,108.133,23.896L108.133,23.896z"/>
</svg>
