<?xml version="1.0" encoding="utf-8"?>
<!DOCTYPE svg PUBLIC "-//W3C//DTD SVG 1.1//EN" "http://www.w3.org/Graphics/SVG/1.1/DTD/svg11.dtd">
<svg version="1.1" xmlns="http://www.w3.org/2000/svg" xmlns:xlink="http://www.w3.org/1999/xlink" x="0px" y="0px" width="216px" height="216px" viewBox="0 0 216 216" enable-background="new 0 0 216 216" xml:space="preserve">
<path fill-rule="evenodd" clip-rule="evenodd" d="M16.119-0.08h183.602
	c8.911,0,16.199,7.29,16.199,16.199v183.602c0,8.907-7.288,16.199-16.199,16.199H16.119c-8.909,0-16.199-7.292-16.199-16.199V16.119
	C-0.08,7.209,7.209-0.08,16.119-0.08L16.119-0.08z M16.119,4.918h183.602c6.161,0,11.198,5.04,11.198,11.2v183.602
	c0,6.161-5.037,11.198-11.198,11.198H16.119c-6.161,0-11.2-5.037-11.2-11.198V16.119C4.918,9.958,9.958,4.918,16.119,4.918
	L16.119,4.918z M194.777,163.348L194.777,163.348h-70.736c-0.821-6.941,0.871-12.003,16.455-12.003h52.153
	c0.72,0,1.477-0.497,1.477-1.095v-7.093c0-0.602-0.59-1.094-1.31-1.094h-53.301c-17.81,0-25.224,11.426-25.224,22.375v7.097
	c0,0.598,0.586,1.09,1.306,1.09h79.18c0.72,0,1.306-0.492,1.306-1.09v-7.097C196.083,163.841,195.497,163.348,194.777,163.348
	L194.777,163.348z M167.4,21.256L167.4,21.256h-45.219c-5.212,0-11.106,5.525-11.106,8.885v3.343h65.953v-3.343
	C177.028,26.779,172.613,21.256,167.4,21.256L167.4,21.256z M30.114,95.902L30.114,95.902h67.574c2.254,0,4.095,1.841,4.095,4.096
	v85.319c0,2.255-1.841,4.098-4.095,4.098H30.114c-2.252,0-4.096-1.843-4.096-4.098V99.998
	C26.019,97.743,27.862,95.902,30.114,95.902L30.114,95.902z M65.867,127.854L65.867,127.854c14.307,0,25.909,11.602,25.909,25.908
	c0,14.311-11.603,25.911-25.909,25.911c-14.309,0-25.912-11.601-25.912-25.911C39.955,139.455,51.558,127.854,65.867,127.854
	L65.867,127.854z M87.685,102.624L87.685,102.624c2.637,0,4.773,2.138,4.773,4.773c0,2.636-2.136,4.773-4.773,4.773
	c-2.635,0-4.773-2.137-4.773-4.773C82.912,104.762,85.05,102.624,87.685,102.624L87.685,102.624z M75.41,102.624L75.41,102.624
	c2.637,0,4.775,2.138,4.775,4.773c0,2.636-2.139,4.773-4.775,4.773c-2.634,0-4.771-2.137-4.771-4.773
	C70.64,104.762,72.776,102.624,75.41,102.624L75.41,102.624z M35.416,114.898L35.416,114.898h56.468
	c2.002,0,3.642,1.534,3.642,3.409v1.363c0,1.876-1.64,3.41-3.642,3.41H35.416c-2.004,0-3.644-1.534-3.644-3.41v-1.363
	C31.772,116.433,33.412,114.898,35.416,114.898L35.416,114.898z"/>
</svg>
