<?xml version="1.0" encoding="utf-8"?>
<!DOCTYPE svg PUBLIC "-//W3C//DTD SVG 1.1//EN" "http://www.w3.org/Graphics/SVG/1.1/DTD/svg11.dtd">
<svg version="1.1" xmlns="http://www.w3.org/2000/svg" xmlns:xlink="http://www.w3.org/1999/xlink" x="0px" y="0px" width="216px" height="216px" viewBox="0 0 216 216" enable-background="new 0 0 216 216" xml:space="preserve">
<path fill-rule="evenodd" clip-rule="evenodd" d="M178.851,38.669h-55.888H112.19h-7.042
	c-0.61,0-1.111,0.501-1.111,1.113v4.075c0,0.61,0.5,1.11,1.111,1.11h7.487l5.11,71.863c0.407,5.696,4.68,10.519,10.393,10.393
	l25.224-0.562c-1.908-3.064-3.011-6.682-3.011-10.556c0-11.047,8.96-20.007,20.008-20.007c2.979,0,5.806,0.651,8.35,1.821
	l2.486-53.323c0.17-0.024,0.333-0.089,0.479-0.197l14.404-10.437c0.497-0.36,0.606-1.056,0.248-1.55l-2.393-3.302
	c-0.357-0.494-1.058-0.606-1.55-0.244L178.851,38.669L178.851,38.669z M33.559,27.522L33.559,27.522c-2.006,0-3.63,1.622-3.63,3.624
	c0,2.006,1.624,3.629,3.63,3.629c2.002,0,3.625-1.624,3.625-3.629C37.184,29.144,35.561,27.522,33.559,27.522L33.559,27.522z
	 M84.492,156.455L84.492,156.455c-1.084,9.611-9.24,17.082-19.138,17.082c-9.151,0-16.817-6.389-18.775-14.945
	c1.331,0.187,2.708,0.288,4.116,0.288c7.316,0,13.771-2.628,17.608-6.632c3.833,2.628,9.042,4.244,14.779,4.244
	C83.557,156.492,84.024,156.479,84.492,156.455L84.492,156.455z M43.92,33.74c-2.004,0-3.628,1.624-3.628,3.627
	c0,2.002,1.624,3.625,3.628,3.625c2.004,0,3.627-1.624,3.627-3.625C47.548,35.363,45.924,33.74,43.92,33.74L43.92,33.74z
	 M23.195,21.303L23.195,21.303c-2.006,0-3.63,1.624-3.63,3.627s1.624,3.625,3.63,3.625c2.004,0,3.627-1.622,3.627-3.625
	S25.199,21.303,23.195,21.303L23.195,21.303z M23.195,34.36L23.195,34.36c-2.006,0-3.63,1.624-3.63,3.628
	c0,2.004,1.624,3.627,3.63,3.627c2.004,0,3.627-1.624,3.627-3.627C26.822,35.983,25.199,34.36,23.195,34.36L23.195,34.36z
	 M33.559,40.578L33.559,40.578c-2.006,0-3.63,1.625-3.63,3.627c0,2.004,1.624,3.627,3.63,3.627c2.002,0,3.625-1.624,3.625-3.627
	C37.184,42.203,35.561,40.578,33.559,40.578L33.559,40.578z M23.195,47.417L23.195,47.417c-2.006,0-3.63,1.624-3.63,3.627
	c0,2.002,1.624,3.625,3.63,3.625c2.004,0,3.627-1.624,3.627-3.625C26.822,49.041,25.199,47.417,23.195,47.417L23.195,47.417z"/>
</svg>
