<?xml version="1.0" encoding="utf-8"?>
<!DOCTYPE svg PUBLIC "-//W3C//DTD SVG 1.1//EN" "http://www.w3.org/Graphics/SVG/1.1/DTD/svg11.dtd">
<svg version="1.1" xmlns="http://www.w3.org/2000/svg" xmlns:xlink="http://www.w3.org/1999/xlink" x="0px" y="0px" width="216px" height="216px" viewBox="0 0 216 216" enable-background="new 0 0 216 216" xml:space="preserve">
<path id="_x33_" fill-rule="evenodd" clip-rule="evenodd" fill="#F58031" d="M178.851,38.669h-55.888H112.19h-7.042
	c-0.61,0-1.111,0.501-1.111,1.113v4.075c0,0.61,0.5,1.11,1.111,1.11h7.487l5.11,71.863c0.407,5.696,4.68,10.519,10.393,10.393
	l25.224-0.562c-1.908-3.064-3.011-6.682-3.011-10.556c0-11.047,8.96-20.007,20.008-20.007c2.979,0,5.806,0.651,8.35,1.821
	l2.486-53.323c0.17-0.024,0.333-0.089,0.479-0.197l14.404-10.437c0.497-0.36,0.606-1.056,0.248-1.55l-2.393-3.302
	c-0.357-0.494-1.058-0.606-1.55-0.244L178.851,38.669L178.851,38.669z M33.559,27.522L33.559,27.522c-2.006,0-3.63,1.622-3.63,3.624
	c0,2.006,1.624,3.629,3.63,3.629c2.002,0,3.625-1.624,3.625-3.629C37.184,29.144,35.561,27.522,33.559,27.522L33.559,27.522z
	 M84.492,156.455L84.492,156.455c-1.084,9.611-9.24,17.082-19.138,17.082c-9.151,0-16.817-6.389-18.775-14.945
	c1.331,0.187,2.708,0.288,4.116,0.288c7.316,0,13.771-2.628,17.608-6.632c3.833,2.628,9.042,4.244,14.779,4.244
	C83.557,156.492,84.024,156.479,84.492,156.455L84.492,156.455z M43.92,33.74c-2.004,0-3.628,1.624-3.628,3.627
	c0,2.002,1.624,3.625,3.628,3.625c2.004,0,3.627-1.624,3.627-3.625C47.548,35.363,45.924,33.74,43.92,33.74L43.92,33.74z
	 M23.195,21.303L23.195,21.303c-2.006,0-3.63,1.624-3.63,3.627s1.624,3.625,3.63,3.625c2.004,0,3.627-1.622,3.627-3.625
	S25.199,21.303,23.195,21.303L23.195,21.303z M23.195,34.36L23.195,34.36c-2.006,0-3.63,1.624-3.63,3.628
	c0,2.004,1.624,3.627,3.63,3.627c2.004,0,3.627-1.624,3.627-3.627C26.822,35.983,25.199,34.36,23.195,34.36L23.195,34.36z
	 M33.559,40.578L33.559,40.578c-2.006,0-3.63,1.625-3.63,3.627c0,2.004,1.624,3.627,3.63,3.627c2.002,0,3.625-1.624,3.625-3.627
	C37.184,42.203,35.561,40.578,33.559,40.578L33.559,40.578z M23.195,47.417L23.195,47.417c-2.006,0-3.63,1.624-3.63,3.627
	c0,2.002,1.624,3.625,3.63,3.625c2.004,0,3.627-1.624,3.627-3.625C26.822,49.041,25.199,47.417,23.195,47.417L23.195,47.417z"/>
<path id="_x32_" fill-rule="evenodd" clip-rule="evenodd" fill="#999557" d="M16.119-0.08h183.602
	c8.911,0,16.199,7.29,16.199,16.199v183.602c0,8.907-7.288,16.199-16.199,16.199H16.119c-8.909,0-16.199-7.292-16.199-16.199V16.119
	C-0.08,7.209,7.209-0.08,16.119-0.08L16.119-0.08z M16.119,4.918h183.602c6.161,0,11.198,5.04,11.198,11.2v183.602
	c0,6.161-5.037,11.198-11.198,11.198H16.119c-6.161,0-11.2-5.037-11.2-11.198V16.119C4.918,9.958,9.958,4.918,16.119,4.918
	L16.119,4.918z M194.777,163.348L194.777,163.348h-70.736c-0.821-6.941,0.871-12.003,16.455-12.003h52.153
	c0.72,0,1.477-0.497,1.477-1.095v-7.093c0-0.602-0.59-1.094-1.31-1.094h-53.301c-17.81,0-25.224,11.426-25.224,22.375v7.097
	c0,0.598,0.586,1.09,1.306,1.09h79.18c0.72,0,1.306-0.492,1.306-1.09v-7.097C196.083,163.841,195.497,163.348,194.777,163.348
	L194.777,163.348z M167.4,21.256L167.4,21.256h-45.219c-5.212,0-11.106,5.525-11.106,8.885v3.343h65.953v-3.343
	C177.028,26.779,172.613,21.256,167.4,21.256L167.4,21.256z M30.114,95.902L30.114,95.902h67.574c2.254,0,4.095,1.841,4.095,4.096
	v85.319c0,2.255-1.841,4.098-4.095,4.098H30.114c-2.252,0-4.096-1.843-4.096-4.098V99.998
	C26.019,97.743,27.862,95.902,30.114,95.902L30.114,95.902z M65.867,127.854L65.867,127.854c14.307,0,25.909,11.602,25.909,25.908
	c0,14.311-11.603,25.911-25.909,25.911c-14.309,0-25.912-11.601-25.912-25.911C39.955,139.455,51.558,127.854,65.867,127.854
	L65.867,127.854z M87.685,102.624L87.685,102.624c2.637,0,4.773,2.138,4.773,4.773c0,2.636-2.136,4.773-4.773,4.773
	c-2.635,0-4.773-2.137-4.773-4.773C82.912,104.762,85.05,102.624,87.685,102.624L87.685,102.624z M75.41,102.624L75.41,102.624
	c2.637,0,4.775,2.138,4.775,4.773c0,2.636-2.139,4.773-4.775,4.773c-2.634,0-4.771-2.137-4.771-4.773
	C70.64,104.762,72.776,102.624,75.41,102.624L75.41,102.624z M35.416,114.898L35.416,114.898h56.468
	c2.002,0,3.642,1.534,3.642,3.409v1.363c0,1.876-1.64,3.41-3.642,3.41H35.416c-2.004,0-3.644-1.534-3.644-3.41v-1.363
	C31.772,116.433,33.412,114.898,35.416,114.898L35.416,114.898z"/>
<path id="_x31_" fill-rule="evenodd" clip-rule="evenodd" fill="#7E5628" d="M117.526,174.77l-4.951,14.531l11.572,0.175
	l-4.582-14.706H117.526L117.526,174.77z M129.555,174.77L129.555,174.77l-4.948,14.531l11.568,0.175l-4.577-14.706H129.555
	L129.555,174.77z M141.587,174.77L141.587,174.77l-4.952,14.531l11.568,0.175l-4.573-14.706H141.587L141.587,174.77z
	 M153.615,174.77L153.615,174.77l-4.948,14.531l11.568,0.175l-4.582-14.706H153.615L153.615,174.77z M165.643,174.77L165.643,174.77
	l-4.943,14.531l11.568,0.175l-4.582-14.706H165.643L165.643,174.77z M177.679,174.77L177.679,174.77l-4.951,14.531l11.567,0.175
	l-4.577-14.706H177.679L177.679,174.77z M189.703,174.77L189.703,174.77l-4.948,14.531l11.568,0.175l-4.577-14.706H189.703
	L189.703,174.77z M170.359,129.074L170.359,129.074c7.161,0,12.968-5.811,12.968-12.968c0-7.161-5.807-12.968-12.968-12.968
	c-7.162,0-12.969,5.807-12.969,12.968C157.391,123.264,163.197,129.074,170.359,129.074L170.359,129.074z M63.494,44.01
	L63.494,44.01v14.97c-6.535,2.454-10.945,8.12-10.945,18.217c0,5.813,1.058,8.28,3.389,12.819h28.086
	c3.306-4.771,4.283-5.638,4.283-12.661c0-10.077-4.506-16.083-11.074-18.427V47.416h5.841l1.438-2.494l-7.521-9.481v-0.183h-0.146
	l-0.098-0.122l-0.071,0.122H51.46v4.012h4.132v4.74h0.169l-0.468,4.321c-0.234,2.159-1.422,3.978-2.095,6.168
	c1.774-0.73,3.542-2.726,4.604-4.625c0.993-1.78,1.286-3.853,1.719-5.865H63.494L63.494,44.01z"/>
</svg>
