<?xml version="1.0" encoding="utf-8"?>
<!DOCTYPE svg PUBLIC "-//W3C//DTD SVG 1.1//EN" "http://www.w3.org/Graphics/SVG/1.1/DTD/svg11.dtd">
<svg version="1.1" xmlns="http://www.w3.org/2000/svg" xmlns:xlink="http://www.w3.org/1999/xlink" x="0px" y="0px" width="216px" height="216px" viewBox="0 0 216 216" enable-background="new 0 0 216 216" xml:space="preserve">
<path fill-rule="evenodd" clip-rule="evenodd" d="M117.526,174.77l-4.951,14.531l11.572,0.175
	l-4.582-14.706H117.526L117.526,174.77z M129.555,174.77L129.555,174.77l-4.948,14.531l11.568,0.175l-4.577-14.706H129.555
	L129.555,174.77z M141.587,174.77L141.587,174.77l-4.952,14.531l11.568,0.175l-4.573-14.706H141.587L141.587,174.77z
	 M153.615,174.77L153.615,174.77l-4.948,14.531l11.568,0.175l-4.582-14.706H153.615L153.615,174.77z M165.643,174.77L165.643,174.77
	l-4.943,14.531l11.568,0.175l-4.582-14.706H165.643L165.643,174.77z M177.679,174.77L177.679,174.77l-4.951,14.531l11.567,0.175
	l-4.577-14.706H177.679L177.679,174.77z M189.703,174.77L189.703,174.77l-4.948,14.531l11.568,0.175l-4.577-14.706H189.703
	L189.703,174.77z M170.359,129.074L170.359,129.074c7.161,0,12.968-5.811,12.968-12.968c0-7.161-5.807-12.968-12.968-12.968
	c-7.162,0-12.969,5.807-12.969,12.968C157.391,123.264,163.197,129.074,170.359,129.074L170.359,129.074z M63.494,44.01
	L63.494,44.01v14.97c-6.535,2.454-10.945,8.12-10.945,18.217c0,5.813,1.058,8.28,3.389,12.819h28.086
	c3.306-4.771,4.283-5.638,4.283-12.661c0-10.077-4.506-16.083-11.074-18.427V47.416h5.841l1.438-2.494l-7.521-9.481v-0.183h-0.146
	l-0.098-0.122l-0.071,0.122H51.46v4.012h4.132v4.74h0.169l-0.468,4.321c-0.234,2.159-1.422,3.978-2.095,6.168
	c1.774-0.73,3.542-2.726,4.604-4.625c0.993-1.78,1.286-3.853,1.719-5.865H63.494L63.494,44.01z"/>
</svg>
