<?xml version="1.0" encoding="utf-8"?>
<!DOCTYPE svg PUBLIC "-//W3C//DTD SVG 1.1//EN" "http://www.w3.org/Graphics/SVG/1.1/DTD/svg11.dtd">
<svg version="1.1" xmlns="http://www.w3.org/2000/svg" xmlns:xlink="http://www.w3.org/1999/xlink" x="0px" y="0px" width="216px" height="216px" viewBox="0 0 216 216" enable-background="new 0 0 216 216" xml:space="preserve">
<path fill-rule="evenodd" clip-rule="evenodd" d="M16.119,4.918h183.602c6.161,0,11.198,5.04,11.198,11.2v183.602
	c0,6.161-5.037,11.198-11.198,11.198H16.119c-6.161,0-11.2-5.037-11.2-11.198V16.119C4.918,9.958,9.958,4.918,16.119,4.918
	L16.119,4.918z M16.119-0.08h183.602c8.911,0,16.199,7.29,16.199,16.199v183.602c0,8.907-7.288,16.199-16.199,16.199H16.119
	c-8.909,0-16.199-7.292-16.199-16.199V16.119C-0.08,7.209,7.209-0.08,16.119-0.08L16.119-0.08z M145.778,73.179L145.778,73.179
	c-2.43,0-4.403-2.291-4.403-5.117c0-2.826,1.974-5.117,4.403-5.117c2.429,0,4.402,2.291,4.402,5.117
	C150.181,70.888,148.207,73.179,145.778,73.179L145.778,73.179z M161.94,104.514L161.94,104.514c-4.13,0-7.479-3.892-7.479-8.693
	c0-4.797,3.35-8.689,7.479-8.689c4.126,0,7.475,3.892,7.475,8.689C169.415,100.622,166.066,104.514,161.94,104.514L161.94,104.514z
	 M131.801,17.604L131.801,17.604l26.217,64.276c1.233-0.468,2.552-0.724,3.923-0.724c6.966,0,12.613,6.567,12.613,14.665
	c0,8.099-5.647,14.667-12.613,14.667c-6.971,0-12.622-6.567-12.622-14.667c0-3.55,1.09-6.806,2.896-9.343l-3.36-5.064
	c-1.803-3.811-5.636-6.504-9.343-9.263c-3.585-13.723-7.694-28.355-9.566-36.302c-1.871-7.953-1.452-11.572-0.517-13.462
	L131.801,17.604L131.801,17.604z M129.1,104.514L129.1,104.514c4.13,0,7.475-3.892,7.475-8.693c0-4.797-3.345-8.689-7.475-8.689
	c-4.127,0-7.476,3.892-7.476,8.689C121.624,100.622,124.973,104.514,129.1,104.514L129.1,104.514z M135.878,74.873L135.878,74.873
	l-2.856,7.007c-1.232-0.468-2.551-0.724-3.922-0.724c-6.967,0-12.614,6.567-12.614,14.665c0,8.099,5.647,14.667,12.614,14.667
	c6.97,0,12.617-6.567,12.617-14.667c0-3.55-1.086-6.806-2.893-9.343l3.361-5.064c0.166-0.352,0.35-0.691,0.545-1.023
	c-1.774-1.727-3.996-3.269-5.555-4.433l-1.257-0.934L135.878,74.873L135.878,74.873z M159.242,17.604L159.242,17.604l-11.438,28.029
	l6.519,15.979c2.738-10.205,5.375-19.838,6.771-25.763c1.872-7.953,1.453-11.572,0.517-13.462L159.242,17.604L159.242,17.604z
	 M139.895,166.18L139.895,166.18h20.886c2.458,0,4.477,2.015,4.477,4.477v18.758c0,2.458-2.019,4.472-4.477,4.472h-20.886
	c-2.462,0-4.477-2.014-4.477-4.472v-18.758C135.418,168.194,137.433,166.18,139.895,166.18L139.895,166.18z M144.455,175.457
	L144.455,175.457c5.941-0.874,8.126,3.239,13.363,4.143c-0.948,0.92-1.9,1.831-2.849,2.747c-5.375-0.224-7.202-4.411-13.358-4.146
	C142.56,177.288,143.508,176.373,144.455,175.457L144.455,175.457z M145.647,152.113L145.647,152.113h8.098
	c1.172,0,2.132,0.961,2.132,2.137v8.524h-12.361v-8.524C143.516,153.074,144.476,152.113,145.647,152.113L145.647,152.113z"/>
</svg>
