<?xml version="1.0" encoding="utf-8"?>
<!DOCTYPE svg PUBLIC "-//W3C//DTD SVG 1.1//EN" "http://www.w3.org/Graphics/SVG/1.1/DTD/svg11.dtd">
<svg version="1.1" xmlns="http://www.w3.org/2000/svg" xmlns:xlink="http://www.w3.org/1999/xlink" x="0px" y="0px" width="216px" height="216px" viewBox="0 0 216 216" enable-background="new 0 0 216 216" xml:space="preserve">
<path fill-rule="evenodd" clip-rule="evenodd" d="M64.534,75.042L64.534,75.042c2.617,1.477,6.246,1.367,8.793,3.083
	c2.403,1.62,3.253,4.999,5.676,6.583c1.561,1.023,3.511,2.077,5.043,1.013c1.158-0.804-0.126-3.208-1.009-4.303
	c-2.224-2.777-4.244-5.168-7.314-6.962c-1.481-0.867-3.025-1.758-4.625-2.458l0.037-0.008c0.612-0.183,1.229-0.366,1.845-0.557
	c10.445,5.399,22.174,11.44,22.174,24.803c0,2.881-0.598,5.71-1.624,8.388l-0.071,0.179l-0.035,0.083l-0.037,0.096l-0.071,0.179
	l-0.019,0.041l-0.059,0.138l-0.073,0.177v0.002l-0.075,0.177l-0.061,0.136l-0.019,0.039l-0.075,0.177l-0.044,0.098l-0.037,0.08
	l-0.08,0.175l-0.026,0.055l-0.057,0.12l-0.083,0.175l-0.008,0.016l-0.075,0.157l-0.076,0.15l-0.01,0.024l-0.088,0.171l-0.057,0.114
	l-0.031,0.061l-0.091,0.171l-0.035,0.073l-0.053,0.1l-0.094,0.169l-0.016,0.035l-0.024,0.044l-0.139,0.25l-0.002,0.006l-0.002,0.006
	l-0.167,0.293l-0.024,0.042l-0.096,0.171l-0.051,0.085l-0.049,0.08l-0.096,0.169l-0.03,0.047l-0.071,0.118l-0.1,0.166l-0.008,0.009
	l-0.093,0.156l-0.085,0.137l-0.019,0.028l-0.104,0.163l-0.061,0.1l-0.041,0.063l-0.105,0.163l-0.041,0.063l-0.065,0.1l-0.108,0.16
	l-0.018,0.026l-0.092,0.135l-0.102,0.15l-0.008,0.01l-0.11,0.159l-0.11,0.16l-0.112,0.157l-0.053,0.075l-0.059,0.081l-0.114,0.159
	l-0.026,0.036l-0.085,0.118l-0.116,0.154l-0.002,0.007l-0.116,0.15l-0.094,0.122l-0.022,0.03l-0.118,0.15l-0.118,0.155l-0.118,0.154
	l-0.041,0.049l-0.079,0.102l-0.122,0.15l-0.012,0.017l-0.106,0.13l-0.11,0.135l-0.012,0.021l-0.122,0.146l-0.085,0.098l-0.039,0.049
	l-0.124,0.146l-0.055,0.064l-0.069,0.082l-0.126,0.142l-0.026,0.037l-0.1,0.109l-0.126,0.143v0.004l-0.128,0.139l-0.018,0.021
	l-0.11,0.122l-0.13,0.139l-0.067,0.081l-0.062,0.061c-0.209,0.232-0.419,0.452-0.632,0.672c-2.924,3.011-9.326,8.057-13.778,8.057
	c-2.952,0-7.389-2.808-9.642-4.528c-1.532-1.173-3.001-2.486-4.372-3.911l-0.049-0.049l-0.069-0.073l-0.112-0.113l-0.006-0.009
	l-0.114-0.122l-0.061-0.064l-0.055-0.058l-0.114-0.122l-0.006-0.008l-0.108-0.118l-0.069-0.077l-0.046-0.049l-0.112-0.126
	l-0.018-0.021l-0.094-0.105l-0.082-0.086l-0.028-0.041l-0.114-0.126l-0.031-0.032l-0.079-0.094l-0.09-0.102l-0.024-0.024
	l-0.105-0.13l-0.043-0.045l-0.067-0.086l-0.102-0.113l-0.008-0.013l-0.11-0.126l-0.051-0.065l-0.055-0.069l-0.108-0.126
	l-0.002-0.008l-0.106-0.122l-0.061-0.077l-0.045-0.058l-0.106-0.134l-0.01-0.013l-0.091-0.117l-0.071-0.09l-0.035-0.043
	l-0.104-0.132l-0.024-0.03l-0.078-0.104l-0.081-0.102l-0.021-0.032l-0.104-0.133l-0.032-0.045l-0.069-0.089l-0.171-0.234
	l-0.03-0.038l-0.041-0.058l-0.057-0.079l-0.096-0.13l-0.002-0.004l-0.098-0.137l-0.051-0.073l-0.047-0.065L54.65,110.6l-0.006-0.011
	l-0.089-0.126l-0.059-0.088l-0.035-0.051l-0.094-0.138l-0.02-0.024l-0.075-0.112l-0.069-0.104l-0.022-0.037l-0.093-0.14
	l-0.027-0.041l-0.065-0.1l-0.077-0.114l-0.015-0.024l-0.002-0.004l-0.124-0.191l-0.055-0.087l-0.083-0.131l-0.004-0.008
	l-0.087-0.145l-0.042-0.067l-0.047-0.073l-0.085-0.141l-0.002-0.006l-0.083-0.136l-0.049-0.086l-0.037-0.057l-0.085-0.143
	l-0.01-0.022l-0.236-0.409l-0.021-0.035l-0.118-0.211l-0.008-0.012l-0.017-0.031l-0.081-0.145l-0.024-0.046l-0.051-0.098
	l-0.071-0.13l-0.008-0.014l-0.077-0.145l-0.035-0.067l-0.039-0.077l-0.078-0.146l-0.014-0.026l-0.014-0.026l-0.012-0.024
	l-0.004-0.01l-0.008-0.016l-0.014-0.024l-0.012-0.027l-0.01-0.02l-0.004-0.006l-0.012-0.024l-0.012-0.028l-0.012-0.022l-0.002-0.002
	l-0.015-0.026l-0.012-0.024l-0.013-0.027l-0.004-0.01l-0.01-0.017l-0.012-0.024l-0.012-0.026l-0.01-0.018l-0.004-0.008l-0.012-0.026
	l-0.012-0.024l-0.012-0.026l-0.002-0.002l-0.01-0.024l-0.014-0.024l-0.012-0.027l-0.006-0.012l-0.006-0.014l-0.012-0.024
	l-0.014-0.026l-0.01-0.022l-0.002-0.004l-0.01-0.024l-0.014-0.029l-0.012-0.026l-0.004-0.004l-0.008-0.022l-0.012-0.024
	l-0.012-0.026l-0.008-0.014l-0.006-0.01l-0.012-0.028l-0.012-0.024l-0.01-0.022l-0.004-0.004l-0.01-0.024l-0.012-0.029l-0.015-0.026
	l-0.002-0.006l-0.01-0.02l-0.01-0.026l-0.014-0.024l-0.006-0.014l-0.006-0.013l-0.012-0.028l-0.013-0.024l-0.01-0.024h-0.002
	l-0.01-0.028l-0.012-0.024l-0.012-0.026l-0.004-0.008l-0.008-0.018l-0.01-0.029l-0.014-0.024l-0.008-0.018l-0.004-0.006l-0.01-0.028
	l-0.012-0.029l-0.012-0.024l-0.012-0.026l-0.012-0.026l-0.01-0.026l-0.004-0.01l-0.008-0.016l-0.014-0.024l-0.01-0.031l-0.006-0.016
	l-0.004-0.008c-0.588-1.324-1.076-2.696-1.44-4.102c-0.472-1.809-0.732-3.668-0.732-5.542C49.273,85.14,56.449,79.41,64.534,75.042
	L64.534,75.042z M103.218,52.602L103.218,52.602c-3.208,7.721-12.447,12.638-22.361,16.235c10.268,5.676,20.3,13.045,20.3,27.399
	c0,0.128-0.002,0.254-0.004,0.384c4.636-6.348,7.595-13.894,7.595-20.345c0-4.105-0.029-8.339-0.493-12.42l-0.022-0.195
	l-0.013-0.197c-0.059-1.257-0.276-2.497-0.646-3.699l-0.045-0.145l-0.037-0.145c-0.462-1.807-1.223-3.911-2.677-5.166l-0.36-0.312
	l-0.307-0.362C103.847,53.277,103.538,52.937,103.218,52.602L103.218,52.602z M38.873,46.919L38.873,46.919l-0.004-0.393
	c0-14.339,14.675-25.964,32.77-25.964c17.715,0,32.147,11.139,32.754,25.053c1.62,1.259,3.076,2.648,4.344,4.148
	c2.26,1.949,3.684,4.736,4.576,8.23c0.513,1.67,0.826,3.403,0.907,5.184c0.439,3.833,0.533,8.238,0.533,13.098
	c0,11.275-6.771,23.928-16.215,31.946c-5.479,12.496-18.282,21.497-26.013,21.497c-7.477,0-20.032-8.919-25.96-21.033
	c-9.733-7.987-16.769-20.915-16.769-32.41c0-4.962,0.098-9.442,0.558-13.336c0.083-1.184,0.271-2.348,0.549-3.487
	c0.93-4.565,2.616-8.069,5.644-10.272C37.268,48.392,38.046,47.637,38.873,46.919L38.873,46.919z M72.523,64.426L72.523,64.426
	c1.09,0.58,2.218,1.164,3.355,1.762l1.939-2.592c9.358-3.262,20.593-8.626,20.593-17.07c0-1.516-0.23-3.013-0.682-4.461
	c-3.282-10.517-15.947-15.503-26.091-15.503c-10.14,0-22.803,4.987-26.084,15.503c-0.049,0.161-0.098,0.323-0.142,0.486
	c5.094-2.59,11.157-4.091,17.66-4.091c0.297,0,0.598,0.004,0.895,0.01l0.136,6.008c-0.346-0.012-0.689-0.014-1.031-0.014
	c-7.986,0-16.598,2.769-22.103,8.773l-0.405,0.443l-0.486,0.354c-1.986,1.445-2.832,4.337-3.296,6.616l-0.022,0.114l-0.028,0.118
	c-0.202,0.814-0.332,1.646-0.391,2.486l-0.01,0.138l-0.019,0.139c-0.488,4.146-0.515,8.459-0.515,12.63
	c0,6.409,2.919,13.898,7.501,20.219c-0.017-0.391-0.029-0.783-0.029-1.178C43.269,77.01,60.21,70.477,72.523,64.426L72.523,64.426z
	 M83.127,93.927L83.127,93.927c3.412,0,7.251,0.069,6.177,1.884c-1.072,1.819-2.765,3.406-6.177,3.406
	c-3.408,0-4.916-1.652-6.177-3.406C75.689,94.059,79.72,93.927,83.127,93.927L83.127,93.927z M60.927,93.927L60.927,93.927
	c3.41,0,7.251,0.069,6.177,1.884c-1.072,1.819-2.767,3.406-6.177,3.406c-3.41,0-4.914-1.652-6.177-3.406
	C53.491,94.059,57.517,93.927,60.927,93.927L60.927,93.927z M172.369,183.079L172.369,183.079h13.961v7.999
	c0,1.099-0.896,2.002-1.994,2.002h-9.973c-1.095,0-1.994-0.903-1.994-2.002V183.079L172.369,183.079z M168.08,115.451
	L168.08,115.451h21.143c1.974,0,3.797,2.486,3.585,5.494l-3.585,51.253c-0.211,3.003-1.615,5.493-3.593,5.493h-13.159
	c-1.978,0-3.332-2.498-3.593-5.493l-4.383-51.253C164.235,117.954,166.106,115.451,168.08,115.451L168.08,115.451z M174.456,140.021
	L174.456,140.021c5.941-0.875,8.126,3.243,13.363,4.143c-0.948,0.915-1.9,1.826-2.845,2.742c-5.379-0.22-7.206-4.402-13.366-4.143
	C172.561,141.848,173.509,140.936,174.456,140.021L174.456,140.021z"/>
</svg>
