<?xml version="1.0" encoding="utf-8"?>
<!DOCTYPE svg PUBLIC "-//W3C//DTD SVG 1.1//EN" "http://www.w3.org/Graphics/SVG/1.1/DTD/svg11.dtd">
<svg version="1.1" xmlns="http://www.w3.org/2000/svg" xmlns:xlink="http://www.w3.org/1999/xlink" x="0px" y="0px" width="216px" height="216px" viewBox="0 0 216 216" enable-background="new 0 0 216 216" xml:space="preserve">
<path fill-rule="evenodd" clip-rule="evenodd" d="M82.151,193.089H31.14c-7.166,0-14.35-5.99-13.029-13.033
	l7.239-38.603c1.129-6.022,13.06-11.264,20.982-12.667C55.987,152.964,68.599,173.59,82.151,193.089L82.151,193.089z
	 M95.359,128.456L95.359,128.456c7.387,0.505,20.182,6.315,21.684,12.997l8.683,38.603c1.575,6.994-5.859,13.033-13.028,13.033
	h-18.48c-6.634-8.008-12.779-16.216-17.232-25.094L95.359,128.456L95.359,128.456z M184.108,24.212L184.108,24.212
	c4.435,22.433,4.272,44.946-0.004,67.367c0.028,0.008,0.053,0.012,0.073,0.012h2.384c0.257-0.23,0.484-0.838,0.55-1.139
	c4.81-21.849,4.28-43.73-0.619-65.511c-0.04-0.171-0.195-0.643-0.365-0.734c-0.013-0.004-0.037-0.004-0.049-0.004h-1.9
	C184.157,24.202,184.133,24.206,184.108,24.212L184.108,24.212z M167.958,20.393L167.958,20.393h16.337l1.783,0.104
	c2.104,0.016,3.568,1.57,4.027,3.629c5.034,22.375,5.551,44.747,0.623,67.125c-0.451,2.059-1.929,4.045-4.028,4.045h-2.405h-5.542
	c-0.098-1.034-0.269-2.055-0.517-3.056h2.084c-0.024-0.254-0.017-0.517,0.032-0.783c0.065-0.315,0.126-0.635,0.183-0.95h-2.803
	c-0.362-1.058-0.802-2.081-1.323-3.058h4.676c0.102-0.578,0.199-1.156,0.289-1.733h-6.002c-0.749-1.115-1.607-2.143-2.567-3.058
	h9.041c0.082-0.576,0.167-1.153,0.24-1.731H170.66c-0.98-0.667-2.043-1.227-3.17-1.66v-0.938c0-0.25,0.208-0.458,0.468-0.458h14.515
	c0.069-0.578,0.134-1.153,0.195-1.733h-14.71c-0.26,0-0.468-0.208-0.468-0.46v-2.138c0-0.254,0.208-0.458,0.468-0.458h15.015
	c0.049-0.58,0.102-1.158,0.146-1.733h-15.161c-0.26,0-0.468-0.208-0.468-0.46v-2.14c0-0.25,0.208-0.46,0.468-0.46h15.381
	c0.037-0.576,0.069-1.154,0.098-1.729h-15.479c-0.26,0-0.468-0.208-0.468-0.459v-2.141c0-0.252,0.208-0.459,0.468-0.459h15.613
	c0.021-0.576,0.036-1.152,0.049-1.729h-15.662c-0.26,0-0.468-0.208-0.468-0.46v-2.14c0-0.252,0.208-0.458,0.468-0.458h15.711
	c0.004-0.58,0.008-1.155,0.004-1.733h-15.715c-0.26,0-0.468-0.205-0.468-0.458v-2.14c0-0.252,0.208-0.46,0.468-0.46h15.679
	c-0.013-0.578-0.029-1.156-0.049-1.733h-15.63c-0.26,0-0.468-0.204-0.468-0.456v-2.142c0-0.25,0.208-0.458,0.468-0.458h15.503
	c-0.028-0.578-0.061-1.156-0.094-1.731h-15.409c-0.26,0-0.468-0.208-0.468-0.46v-2.138c0-0.254,0.208-0.46,0.468-0.46h15.198
	c-0.049-0.578-0.094-1.156-0.15-1.733h-15.048c-0.26,0-0.468-0.206-0.468-0.458V40.01c0-0.252,0.208-0.458,0.468-0.458h14.751
	c-0.065-0.578-0.131-1.156-0.2-1.733h-14.551c-0.26,0-0.468-0.206-0.468-0.458v-2.14c0-0.25,0.208-0.46,0.468-0.46h14.16
	c-0.077-0.576-0.162-1.153-0.244-1.731h-13.916c-0.26,0-0.468-0.205-0.468-0.459v-2.138c0-0.254,0.208-0.46,0.468-0.46h13.433
	c-0.094-0.578-0.195-1.154-0.298-1.733h-13.135c-0.26,0-0.468-0.204-0.468-0.458v-2.14c0-0.252,0.208-0.458,0.468-0.458h12.562
	c-0.053-0.283-0.105-0.566-0.167-0.847c-0.057-0.303-0.065-0.6-0.024-0.885h-12.37c-0.26,0-0.468-0.208-0.468-0.458v-2.142
	C167.49,20.599,167.698,20.393,167.958,20.393L167.958,20.393z"/>
</svg>
