<?xml version="1.0" encoding="utf-8"?>
<!DOCTYPE svg PUBLIC "-//W3C//DTD SVG 1.1//EN" "http://www.w3.org/Graphics/SVG/1.1/DTD/svg11.dtd">
<svg version="1.1" xmlns="http://www.w3.org/2000/svg" xmlns:xlink="http://www.w3.org/1999/xlink" x="0px" y="0px" width="216px" height="216px" viewBox="0 0 216 216" enable-background="new 0 0 216 216" xml:space="preserve">
<path fill-rule="evenodd" clip-rule="evenodd" fill="#F58031" d="M82.151,193.089H31.14c-7.166,0-14.35-5.99-13.029-13.033
	l7.239-38.603c1.129-6.022,13.06-11.264,20.982-12.667C55.987,152.964,68.599,173.59,82.151,193.089L82.151,193.089z
	 M95.359,128.456L95.359,128.456c7.387,0.505,20.182,6.315,21.684,12.997l8.683,38.603c1.575,6.994-5.859,13.033-13.028,13.033
	h-18.48c-6.634-8.008-12.779-16.216-17.232-25.094L95.359,128.456L95.359,128.456z M184.108,24.212L184.108,24.212
	c4.435,22.433,4.272,44.946-0.004,67.367c0.028,0.008,0.053,0.012,0.073,0.012h2.384c0.257-0.23,0.484-0.838,0.55-1.139
	c4.81-21.849,4.28-43.73-0.619-65.511c-0.04-0.171-0.195-0.643-0.365-0.734c-0.013-0.004-0.037-0.004-0.049-0.004h-1.9
	C184.157,24.202,184.133,24.206,184.108,24.212L184.108,24.212z M167.958,20.393L167.958,20.393h16.337l1.783,0.104
	c2.104,0.016,3.568,1.57,4.027,3.629c5.034,22.375,5.551,44.747,0.623,67.125c-0.451,2.059-1.929,4.045-4.028,4.045h-2.405h-5.542
	c-0.098-1.034-0.269-2.055-0.517-3.056h2.084c-0.024-0.254-0.017-0.517,0.032-0.783c0.065-0.315,0.126-0.635,0.183-0.95h-2.803
	c-0.362-1.058-0.802-2.081-1.323-3.058h4.676c0.102-0.578,0.199-1.156,0.289-1.733h-6.002c-0.749-1.115-1.607-2.143-2.567-3.058
	h9.041c0.082-0.576,0.167-1.153,0.24-1.731H170.66c-0.98-0.667-2.043-1.227-3.17-1.66v-0.938c0-0.25,0.208-0.458,0.468-0.458h14.515
	c0.069-0.578,0.134-1.153,0.195-1.733h-14.71c-0.26,0-0.468-0.208-0.468-0.46v-2.138c0-0.254,0.208-0.458,0.468-0.458h15.015
	c0.049-0.58,0.102-1.158,0.146-1.733h-15.161c-0.26,0-0.468-0.208-0.468-0.46v-2.14c0-0.25,0.208-0.46,0.468-0.46h15.381
	c0.037-0.576,0.069-1.154,0.098-1.729h-15.479c-0.26,0-0.468-0.208-0.468-0.459v-2.141c0-0.252,0.208-0.459,0.468-0.459h15.613
	c0.021-0.576,0.036-1.152,0.049-1.729h-15.662c-0.26,0-0.468-0.208-0.468-0.46v-2.14c0-0.252,0.208-0.458,0.468-0.458h15.711
	c0.004-0.58,0.008-1.155,0.004-1.733h-15.715c-0.26,0-0.468-0.205-0.468-0.458v-2.14c0-0.252,0.208-0.46,0.468-0.46h15.679
	c-0.013-0.578-0.029-1.156-0.049-1.733h-15.63c-0.26,0-0.468-0.204-0.468-0.456v-2.142c0-0.25,0.208-0.458,0.468-0.458h15.503
	c-0.028-0.578-0.061-1.156-0.094-1.731h-15.409c-0.26,0-0.468-0.208-0.468-0.46v-2.138c0-0.254,0.208-0.46,0.468-0.46h15.198
	c-0.049-0.578-0.094-1.156-0.15-1.733h-15.048c-0.26,0-0.468-0.206-0.468-0.458V40.01c0-0.252,0.208-0.458,0.468-0.458h14.751
	c-0.065-0.578-0.131-1.156-0.2-1.733h-14.551c-0.26,0-0.468-0.206-0.468-0.458v-2.14c0-0.25,0.208-0.46,0.468-0.46h14.16
	c-0.077-0.576-0.162-1.153-0.244-1.731h-13.916c-0.26,0-0.468-0.205-0.468-0.459v-2.138c0-0.254,0.208-0.46,0.468-0.46h13.433
	c-0.094-0.578-0.195-1.154-0.298-1.733h-13.135c-0.26,0-0.468-0.204-0.468-0.458v-2.14c0-0.252,0.208-0.458,0.468-0.458h12.562
	c-0.053-0.283-0.105-0.566-0.167-0.847c-0.057-0.303-0.065-0.6-0.024-0.885h-12.37c-0.26,0-0.468-0.208-0.468-0.458v-2.142
	C167.49,20.599,167.698,20.393,167.958,20.393L167.958,20.393z"/>
<path fill-rule="evenodd" clip-rule="evenodd" fill="#999557" d="M16.119,4.918h183.602c6.161,0,11.198,5.04,11.198,11.2v183.602
	c0,6.161-5.037,11.198-11.198,11.198H16.119c-6.161,0-11.2-5.037-11.2-11.198V16.119C4.918,9.958,9.958,4.918,16.119,4.918
	L16.119,4.918z M16.119-0.08h183.602c8.911,0,16.199,7.29,16.199,16.199v183.602c0,8.907-7.288,16.199-16.199,16.199H16.119
	c-8.909,0-16.199-7.292-16.199-16.199V16.119C-0.08,7.209,7.209-0.08,16.119-0.08L16.119-0.08z M145.778,73.179L145.778,73.179
	c-2.43,0-4.403-2.291-4.403-5.117c0-2.826,1.974-5.117,4.403-5.117c2.429,0,4.402,2.291,4.402,5.117
	C150.181,70.888,148.207,73.179,145.778,73.179L145.778,73.179z M161.94,104.514L161.94,104.514c-4.13,0-7.479-3.892-7.479-8.693
	c0-4.797,3.35-8.689,7.479-8.689c4.126,0,7.475,3.892,7.475,8.689C169.415,100.622,166.066,104.514,161.94,104.514L161.94,104.514z
	 M131.801,17.604L131.801,17.604l26.217,64.276c1.233-0.468,2.552-0.724,3.923-0.724c6.966,0,12.613,6.567,12.613,14.665
	c0,8.099-5.647,14.667-12.613,14.667c-6.971,0-12.622-6.567-12.622-14.667c0-3.55,1.09-6.806,2.896-9.343l-3.36-5.064
	c-1.803-3.811-5.636-6.504-9.343-9.263c-3.585-13.723-7.694-28.355-9.566-36.302c-1.871-7.953-1.452-11.572-0.517-13.462
	L131.801,17.604L131.801,17.604z M129.1,104.514L129.1,104.514c4.13,0,7.475-3.892,7.475-8.693c0-4.797-3.345-8.689-7.475-8.689
	c-4.127,0-7.476,3.892-7.476,8.689C121.624,100.622,124.973,104.514,129.1,104.514L129.1,104.514z M135.878,74.873L135.878,74.873
	l-2.856,7.007c-1.232-0.468-2.551-0.724-3.922-0.724c-6.967,0-12.614,6.567-12.614,14.665c0,8.099,5.647,14.667,12.614,14.667
	c6.97,0,12.617-6.567,12.617-14.667c0-3.55-1.086-6.806-2.893-9.343l3.361-5.064c0.166-0.352,0.35-0.691,0.545-1.023
	c-1.774-1.727-3.996-3.269-5.555-4.433l-1.257-0.934L135.878,74.873L135.878,74.873z M159.242,17.604L159.242,17.604l-11.438,28.029
	l6.519,15.979c2.738-10.205,5.375-19.838,6.771-25.763c1.872-7.953,1.453-11.572,0.517-13.462L159.242,17.604L159.242,17.604z
	 M139.895,166.18L139.895,166.18h20.886c2.458,0,4.477,2.015,4.477,4.477v18.758c0,2.458-2.019,4.472-4.477,4.472h-20.886
	c-2.462,0-4.477-2.014-4.477-4.472v-18.758C135.418,168.194,137.433,166.18,139.895,166.18L139.895,166.18z M144.455,175.457
	L144.455,175.457c5.941-0.874,8.126,3.239,13.363,4.143c-0.948,0.92-1.9,1.831-2.849,2.747c-5.375-0.224-7.202-4.411-13.358-4.146
	C142.56,177.288,143.508,176.373,144.455,175.457L144.455,175.457z M145.647,152.113L145.647,152.113h8.098
	c1.172,0,2.132,0.961,2.132,2.137v8.524h-12.361v-8.524C143.516,153.074,144.476,152.113,145.647,152.113L145.647,152.113z"/>
<path fill-rule="evenodd" clip-rule="evenodd" fill="#7E5628" d="M64.534,75.042L64.534,75.042c2.617,1.477,6.246,1.367,8.793,3.083
	c2.403,1.62,3.253,4.999,5.676,6.583c1.561,1.023,3.511,2.077,5.043,1.013c1.158-0.804-0.126-3.208-1.009-4.303
	c-2.224-2.777-4.244-5.168-7.314-6.962c-1.481-0.867-3.025-1.758-4.625-2.458l0.037-0.008c0.612-0.183,1.229-0.366,1.845-0.557
	c10.445,5.399,22.174,11.44,22.174,24.803c0,2.881-0.598,5.71-1.624,8.388l-0.071,0.179l-0.035,0.083l-0.037,0.096l-0.071,0.179
	l-0.019,0.041l-0.059,0.138l-0.073,0.177v0.002l-0.075,0.177l-0.061,0.136l-0.019,0.039l-0.075,0.177l-0.044,0.098l-0.037,0.08
	l-0.08,0.175l-0.026,0.055l-0.057,0.12l-0.083,0.175l-0.008,0.016l-0.075,0.157l-0.076,0.15l-0.01,0.024l-0.088,0.171l-0.057,0.114
	l-0.031,0.061l-0.091,0.171l-0.035,0.073l-0.053,0.1l-0.094,0.169l-0.016,0.035l-0.024,0.044l-0.139,0.25l-0.002,0.006l-0.002,0.006
	l-0.167,0.293l-0.024,0.042l-0.096,0.171l-0.051,0.085l-0.049,0.08l-0.096,0.169l-0.03,0.047l-0.071,0.118l-0.1,0.166l-0.008,0.009
	l-0.093,0.156l-0.085,0.137l-0.019,0.028l-0.104,0.163l-0.061,0.1l-0.041,0.063l-0.105,0.163l-0.041,0.063l-0.065,0.1l-0.108,0.16
	l-0.018,0.026l-0.092,0.135l-0.102,0.15l-0.008,0.01l-0.11,0.159l-0.11,0.16l-0.112,0.157l-0.053,0.075l-0.059,0.081l-0.114,0.159
	l-0.026,0.036l-0.085,0.118l-0.116,0.154l-0.002,0.007l-0.116,0.15l-0.094,0.122l-0.022,0.03l-0.118,0.15l-0.118,0.155l-0.118,0.154
	l-0.041,0.049l-0.079,0.102l-0.122,0.15l-0.012,0.017l-0.106,0.13l-0.11,0.135l-0.012,0.021l-0.122,0.146l-0.085,0.098l-0.039,0.049
	l-0.124,0.146l-0.055,0.064l-0.069,0.082l-0.126,0.142l-0.026,0.037l-0.1,0.109l-0.126,0.143v0.004l-0.128,0.139l-0.018,0.021
	l-0.11,0.122l-0.13,0.139l-0.067,0.081l-0.062,0.061c-0.209,0.232-0.419,0.452-0.632,0.672c-2.924,3.011-9.326,8.057-13.778,8.057
	c-2.952,0-7.389-2.808-9.642-4.528c-1.532-1.173-3.001-2.486-4.372-3.911l-0.049-0.049l-0.069-0.073l-0.112-0.113l-0.006-0.009
	l-0.114-0.122l-0.061-0.064l-0.055-0.058l-0.114-0.122l-0.006-0.008l-0.108-0.118l-0.069-0.077l-0.046-0.049l-0.112-0.126
	l-0.018-0.021l-0.094-0.105l-0.082-0.086l-0.028-0.041l-0.114-0.126l-0.031-0.032l-0.079-0.094l-0.09-0.102l-0.024-0.024
	l-0.105-0.13l-0.043-0.045l-0.067-0.086l-0.102-0.113l-0.008-0.013l-0.11-0.126l-0.051-0.065l-0.055-0.069l-0.108-0.126
	l-0.002-0.008l-0.106-0.122l-0.061-0.077l-0.045-0.058l-0.106-0.134l-0.01-0.013l-0.091-0.117l-0.071-0.09l-0.035-0.043
	l-0.104-0.132l-0.024-0.03l-0.078-0.104l-0.081-0.102l-0.021-0.032l-0.104-0.133l-0.032-0.045l-0.069-0.089l-0.171-0.234
	l-0.03-0.038l-0.041-0.058l-0.057-0.079l-0.096-0.13l-0.002-0.004l-0.098-0.137l-0.051-0.073l-0.047-0.065L54.65,110.6l-0.006-0.011
	l-0.089-0.126l-0.059-0.088l-0.035-0.051l-0.094-0.138l-0.02-0.024l-0.075-0.112l-0.069-0.104l-0.022-0.037l-0.093-0.14
	l-0.027-0.041l-0.065-0.1l-0.077-0.114l-0.015-0.024l-0.002-0.004l-0.124-0.191l-0.055-0.087l-0.083-0.131l-0.004-0.008
	l-0.087-0.145l-0.042-0.067l-0.047-0.073l-0.085-0.141l-0.002-0.006l-0.083-0.136l-0.049-0.086l-0.037-0.057l-0.085-0.143
	l-0.01-0.022l-0.236-0.409l-0.021-0.035l-0.118-0.211l-0.008-0.012l-0.017-0.031l-0.081-0.145l-0.024-0.046l-0.051-0.098
	l-0.071-0.13l-0.008-0.014l-0.077-0.145l-0.035-0.067l-0.039-0.077l-0.078-0.146l-0.014-0.026l-0.014-0.026l-0.012-0.024
	l-0.004-0.01l-0.008-0.016l-0.014-0.024l-0.012-0.027l-0.01-0.02l-0.004-0.006l-0.012-0.024l-0.012-0.028l-0.012-0.022l-0.002-0.002
	l-0.015-0.026l-0.012-0.024l-0.013-0.027l-0.004-0.01l-0.01-0.017l-0.012-0.024l-0.012-0.026l-0.01-0.018l-0.004-0.008l-0.012-0.026
	l-0.012-0.024l-0.012-0.026l-0.002-0.002l-0.01-0.024l-0.014-0.024l-0.012-0.027l-0.006-0.012l-0.006-0.014l-0.012-0.024
	l-0.014-0.026l-0.01-0.022l-0.002-0.004l-0.01-0.024l-0.014-0.029l-0.012-0.026l-0.004-0.004l-0.008-0.022l-0.012-0.024
	l-0.012-0.026l-0.008-0.014l-0.006-0.01l-0.012-0.028l-0.012-0.024l-0.01-0.022l-0.004-0.004l-0.01-0.024l-0.012-0.029l-0.015-0.026
	l-0.002-0.006l-0.01-0.02l-0.01-0.026l-0.014-0.024l-0.006-0.014l-0.006-0.013l-0.012-0.028l-0.013-0.024l-0.01-0.024h-0.002
	l-0.01-0.028l-0.012-0.024l-0.012-0.026l-0.004-0.008l-0.008-0.018l-0.01-0.029l-0.014-0.024l-0.008-0.018l-0.004-0.006l-0.01-0.028
	l-0.012-0.029l-0.012-0.024l-0.012-0.026l-0.012-0.026l-0.01-0.026l-0.004-0.01l-0.008-0.016l-0.014-0.024l-0.01-0.031l-0.006-0.016
	l-0.004-0.008c-0.588-1.324-1.076-2.696-1.44-4.102c-0.472-1.809-0.732-3.668-0.732-5.542C49.273,85.14,56.449,79.41,64.534,75.042
	L64.534,75.042z M103.218,52.602L103.218,52.602c-3.208,7.721-12.447,12.638-22.361,16.235c10.268,5.676,20.3,13.045,20.3,27.399
	c0,0.128-0.002,0.254-0.004,0.384c4.636-6.348,7.595-13.894,7.595-20.345c0-4.105-0.029-8.339-0.493-12.42l-0.022-0.195
	l-0.013-0.197c-0.059-1.257-0.276-2.497-0.646-3.699l-0.045-0.145l-0.037-0.145c-0.462-1.807-1.223-3.911-2.677-5.166l-0.36-0.312
	l-0.307-0.362C103.847,53.277,103.538,52.937,103.218,52.602L103.218,52.602z M38.873,46.919L38.873,46.919l-0.004-0.393
	c0-14.339,14.675-25.964,32.77-25.964c17.715,0,32.147,11.139,32.754,25.053c1.62,1.259,3.076,2.648,4.344,4.148
	c2.26,1.949,3.684,4.736,4.576,8.23c0.513,1.67,0.826,3.403,0.907,5.184c0.439,3.833,0.533,8.238,0.533,13.098
	c0,11.275-6.771,23.928-16.215,31.946c-5.479,12.496-18.282,21.497-26.013,21.497c-7.477,0-20.032-8.919-25.96-21.033
	c-9.733-7.987-16.769-20.915-16.769-32.41c0-4.962,0.098-9.442,0.558-13.336c0.083-1.184,0.271-2.348,0.549-3.487
	c0.93-4.565,2.616-8.069,5.644-10.272C37.268,48.392,38.046,47.637,38.873,46.919L38.873,46.919z M72.523,64.426L72.523,64.426
	c1.09,0.58,2.218,1.164,3.355,1.762l1.939-2.592c9.358-3.262,20.593-8.626,20.593-17.07c0-1.516-0.23-3.013-0.682-4.461
	c-3.282-10.517-15.947-15.503-26.091-15.503c-10.14,0-22.803,4.987-26.084,15.503c-0.049,0.161-0.098,0.323-0.142,0.486
	c5.094-2.59,11.157-4.091,17.66-4.091c0.297,0,0.598,0.004,0.895,0.01l0.136,6.008c-0.346-0.012-0.689-0.014-1.031-0.014
	c-7.986,0-16.598,2.769-22.103,8.773l-0.405,0.443l-0.486,0.354c-1.986,1.445-2.832,4.337-3.296,6.616l-0.022,0.114l-0.028,0.118
	c-0.202,0.814-0.332,1.646-0.391,2.486l-0.01,0.138l-0.019,0.139c-0.488,4.146-0.515,8.459-0.515,12.63
	c0,6.409,2.919,13.898,7.501,20.219c-0.017-0.391-0.029-0.783-0.029-1.178C43.269,77.01,60.21,70.477,72.523,64.426L72.523,64.426z
	 M83.127,93.927L83.127,93.927c3.412,0,7.251,0.069,6.177,1.884c-1.072,1.819-2.765,3.406-6.177,3.406
	c-3.408,0-4.916-1.652-6.177-3.406C75.689,94.059,79.72,93.927,83.127,93.927L83.127,93.927z M60.927,93.927L60.927,93.927
	c3.41,0,7.251,0.069,6.177,1.884c-1.072,1.819-2.767,3.406-6.177,3.406c-3.41,0-4.914-1.652-6.177-3.406
	C53.491,94.059,57.517,93.927,60.927,93.927L60.927,93.927z M172.369,183.079L172.369,183.079h13.961v7.999
	c0,1.099-0.896,2.002-1.994,2.002h-9.973c-1.095,0-1.994-0.903-1.994-2.002V183.079L172.369,183.079z M168.08,115.451
	L168.08,115.451h21.143c1.974,0,3.797,2.486,3.585,5.494l-3.585,51.253c-0.211,3.003-1.615,5.493-3.593,5.493h-13.159
	c-1.978,0-3.332-2.498-3.593-5.493l-4.383-51.253C164.235,117.954,166.106,115.451,168.08,115.451L168.08,115.451z M174.456,140.021
	L174.456,140.021c5.941-0.875,8.126,3.243,13.363,4.143c-0.948,0.915-1.9,1.826-2.845,2.742c-5.379-0.22-7.206-4.402-13.366-4.143
	C172.561,141.848,173.509,140.936,174.456,140.021L174.456,140.021z"/>
</svg>
