<?xml version="1.0" encoding="utf-8"?>
<!DOCTYPE svg PUBLIC "-//W3C//DTD SVG 1.1//EN" "http://www.w3.org/Graphics/SVG/1.1/DTD/svg11.dtd">
<svg version="1.1" xmlns="http://www.w3.org/2000/svg" xmlns:xlink="http://www.w3.org/1999/xlink" x="0px" y="0px" width="216px" height="216px" viewBox="0 0 216 216" enable-background="new 0 0 216 216" xml:space="preserve">
<path fill-rule="evenodd" clip-rule="evenodd" d="M195.6,143.373v33.224
	c0,9.095-7.447,16.541-16.545,16.541H35.892c-9.094,0-16.539-7.446-16.539-16.541v-32.629c3.739,1.037,7.577,2.021,11.499,2.93
	v25.562c0,5.045,4.128,9.176,9.176,9.176h134.896c5.045,0,9.171-4.131,9.171-9.176v-26.046
	C188.026,145.469,191.859,144.447,195.6,143.373L195.6,143.373z M87.579,17.789L87.579,17.789h36.695
	c9.948,0,18.087,8.138,18.087,18.089v6.718h-9.192v-6.718c0-4.895-4.004-8.893-8.895-8.893H87.579c-4.895,0-8.899,3.998-8.899,8.893
	v6.718h-9.19v-6.718C69.49,25.927,77.628,17.789,87.579,17.789L87.579,17.789z"/>
</svg>
