<?xml version="1.0" encoding="utf-8"?>
<!DOCTYPE svg PUBLIC "-//W3C//DTD SVG 1.1//EN" "http://www.w3.org/Graphics/SVG/1.1/DTD/svg11.dtd">
<svg version="1.1" xmlns="http://www.w3.org/2000/svg" xmlns:xlink="http://www.w3.org/1999/xlink" x="0px" y="0px" width="216px" height="216px" viewBox="0 0 216 216" enable-background="new 0 0 216 216" xml:space="preserve">
<path fill-rule="evenodd" clip-rule="evenodd" d="M156.064,40.38h-6.637
	c-1.212,0-2.209,0.997-2.209,2.203v4.757h-20.618v-5.42c0-1.219-0.997-2.216-2.209-2.216h-6.633c-1.221,0-2.214,0.997-2.214,2.216
	v5.42H94.932v-4.515c0-1.217-0.995-2.213-2.212-2.213h-6.634c-1.217,0-2.209,0.997-2.209,2.213v4.515H63.258v-4.515
	c0-1.217-0.993-2.213-2.211-2.213h-6.633c-1.216,0-2.211,0.997-2.211,2.213v7.184c0,1.216,0.995,2.215,2.211,2.215
	c33.698,0,67.561-0.232,101.65-0.232c1.217,0,2.205-0.997,2.205-2.218v-7.192C158.27,41.377,157.281,40.38,156.064,40.38
	L156.064,40.38z M104.632,132.322L104.632,132.322h5.17c4.263,0,7.749,3.486,7.749,7.759v14.982c0,4.261-3.486,7.756-7.749,7.756
	h-5.17c-4.262,0-7.751-3.495-7.751-7.756v-14.982C96.88,135.809,100.37,132.322,104.632,132.322L104.632,132.322z"/>
</svg>
