<?xml version="1.0" encoding="utf-8"?>
<!DOCTYPE svg PUBLIC "-//W3C//DTD SVG 1.1//EN" "http://www.w3.org/Graphics/SVG/1.1/DTD/svg11.dtd">
<svg version="1.1" xmlns="http://www.w3.org/2000/svg" xmlns:xlink="http://www.w3.org/1999/xlink" x="0px" y="0px" width="216px" height="216px" viewBox="0 0 216 216" enable-background="new 0 0 216 216" xml:space="preserve">
<path id="_x33_" fill-rule="evenodd" clip-rule="evenodd" fill="#F58031" d="M156.064,40.38h-6.637
	c-1.212,0-2.209,0.997-2.209,2.203v4.757h-20.618v-5.42c0-1.219-0.997-2.216-2.209-2.216h-6.633c-1.221,0-2.214,0.997-2.214,2.216
	v5.42H94.932v-4.515c0-1.217-0.995-2.213-2.212-2.213h-6.634c-1.217,0-2.209,0.997-2.209,2.213v4.515H63.258v-4.515
	c0-1.217-0.993-2.213-2.211-2.213h-6.633c-1.216,0-2.211,0.997-2.211,2.213v7.184c0,1.216,0.995,2.215,2.211,2.215
	c33.698,0,67.561-0.232,101.65-0.232c1.217,0,2.205-0.997,2.205-2.218v-7.192C158.27,41.377,157.281,40.38,156.064,40.38
	L156.064,40.38z M104.632,132.322L104.632,132.322h5.17c4.263,0,7.749,3.486,7.749,7.759v14.982c0,4.261-3.486,7.756-7.749,7.756
	h-5.17c-4.262,0-7.751-3.495-7.751-7.756v-14.982C96.88,135.809,100.37,132.322,104.632,132.322L104.632,132.322z"/>
<path id="_x32_" fill-rule="evenodd" clip-rule="evenodd" fill="#999557" d="M16.119-0.08h183.602
	c8.911,0,16.199,7.29,16.199,16.199v183.602c0,8.907-7.288,16.199-16.199,16.199H16.119c-8.909,0-16.199-7.292-16.199-16.199V16.119
	C-0.08,7.209,7.209-0.08,16.119-0.08L16.119-0.08z M16.119,4.918h183.602c6.161,0,11.198,5.04,11.198,11.2v183.602
	c0,6.161-5.037,11.198-11.198,11.198H16.119c-6.161,0-11.2-5.037-11.2-11.198V16.119C4.918,9.958,9.958,4.918,16.119,4.918
	L16.119,4.918z M35.892,56.728h143.163c11.69,0,16.207,10.303,16.227,22.135l0.09,54.419c-21.997,8.256-45.183,12.276-68.566,13.835
	h-0.062v-7.036c0-9.33-7.621-16.955-16.941-16.955h-5.17c-9.318,0-16.943,7.625-16.943,16.955v7.138l-0.684-0.041l-0.11-0.008
	l-0.635-0.041l-0.72-0.049l-0.623-0.041l-0.557-0.04c-22.26-1.611-44.507-5.559-65.523-13.155l0.33-60.763
	C19.215,63.977,26.798,56.728,35.892,56.728L35.892,56.728z M48.764,79.459L48.764,79.459l116.854-0.374
	c5.119-0.021,8.179,4.191,8.179,9.308v36.336c3.231-1.257,7.422-2.607,10.299-4.036v-43.29c0-5.046-4.126-9.174-9.171-9.174H40.028
	c-5.046,0-9.176,4.128-9.176,9.174v44.287c2.269,1.054,7.642,2.445,10.107,3.414V88.765C40.96,83.648,43.647,79.478,48.764,79.459
	L48.764,79.459z"/>
<path id="_x31_" fill-rule="evenodd" clip-rule="evenodd" fill="#7E5628" d="M195.6,143.373v33.224
	c0,9.095-7.447,16.541-16.545,16.541H35.892c-9.094,0-16.539-7.446-16.539-16.541v-32.629c3.739,1.037,7.577,2.021,11.499,2.93
	v25.562c0,5.045,4.128,9.176,9.176,9.176h134.896c5.045,0,9.171-4.131,9.171-9.176v-26.046
	C188.026,145.469,191.859,144.447,195.6,143.373L195.6,143.373z M87.579,17.789L87.579,17.789h36.695
	c9.948,0,18.087,8.138,18.087,18.089v6.718h-9.192v-6.718c0-4.895-4.004-8.893-8.895-8.893H87.579c-4.895,0-8.899,3.998-8.899,8.893
	v6.718h-9.19v-6.718C69.49,25.927,77.628,17.789,87.579,17.789L87.579,17.789z"/>
</svg>
