<?xml version="1.0" encoding="utf-8"?>
<!DOCTYPE svg PUBLIC "-//W3C//DTD SVG 1.1//EN" "http://www.w3.org/Graphics/SVG/1.1/DTD/svg11.dtd">
<svg version="1.1" xmlns="http://www.w3.org/2000/svg" xmlns:xlink="http://www.w3.org/1999/xlink" x="0px" y="0px" width="216px" height="216px" viewBox="0 0 216 216" enable-background="new 0 0 216 216" xml:space="preserve">
<path fill-rule="evenodd" clip-rule="evenodd" d="M48.988,37.21c0,1.192,2.236,2.858,5.713,3.888
	L97.89,53.899c4.366,1.296,8.411,1.984,10.854,1.984c1.882,0,4.47-0.169,7.367-1.013l42.681-12.433v9.166
	c0,2.594-1.498,1.687-1.498,4.281v2.24c0,1.677,0.509,1.892,1.543,2.822l-2.991,6.91c1.424,0.757,2.156,1.475,4.436,1.475h1.497
	c2.278,0,3.016-0.718,4.48-1.495c-1.046-2.468-2.031-4.287-3.076-6.757c0.549-0.022,1.484-1.013,1.709-2.134
	c0-1.741-0.062-1.546-0.062-3.29c0-2.596-1.559-1.27-1.559-3.864V40.944c2.34-0.545,5.229-0.899,5.229-3.733v-0.747
	c0-1.715-3.283-3.709-7.813-5.005l-43.88-12.563c-2.832-0.812-5.247-1.106-6.567-1.106h-2.991c-1.646,0-4.584,0.421-7.955,1.396
	l-42.89,12.406c-4.323,1.251-7.416,3.196-7.416,4.873V37.21L48.988,37.21z M69.154,71.569L69.154,71.569
	c0,9.198,7.998,9.894,15.086,11.806c7.035,1.9,13.482,3.88,22.264,3.88h5.974c7.353,0,16.064-2.213,22.131-4.012
	c7.483-2.22,14.47-2.156,14.47-11.674V53.641l-37.932,10.614c-1.491,0.559-3.113,0.537-4.7,0L69.154,54.39V71.569L69.154,71.569z"/>
</svg>
