<?xml version="1.0" encoding="utf-8"?>
<!DOCTYPE svg PUBLIC "-//W3C//DTD SVG 1.1//EN" "http://www.w3.org/Graphics/SVG/1.1/DTD/svg11.dtd">
<svg version="1.1" xmlns="http://www.w3.org/2000/svg" xmlns:xlink="http://www.w3.org/1999/xlink" x="0px" y="0px" width="216px" height="216px" viewBox="0 0 216 216" enable-background="new 0 0 216 216" xml:space="preserve">
<path fill-rule="evenodd" clip-rule="evenodd" d="M105.542,128.672c-2.431-1.774-5.221-4.854-7.345-6.954
	c-2.299-2.267-4.588-4.688-6.96-6.941c-2.368-2.255-4.704-4.708-7.042-7.017c-2.136-2.108-4.763-5.064-7.253-6.883
	c-2.022-1.481-6.177-0.444-7.819,1.8l-0.521,0.714c-1.239,1.69-1.113,4.384-0.684,5.766c0.49,1.568,2.675,3.308,3.918,4.81
	c2.688,3.242,6.104,6.181,8.952,9.383c2.867,3.227,6.122,6.193,8.917,9.396c1.387,1.587,2.96,3.153,4.405,4.708
	c0.73,0.789,4.24,4.146,3.725,4.85c-0.067,0.09-0.757,0.546-0.873,0.61c-5.556-4.061-11.708-7.931-17.344-12.048
	c-1.644-1.205-7.157-5.217-8.598-5.726c-2.513-0.887-5.748-0.761-7.794,2.039l-0.148,0.203c-1.233,1.685-1.338,3.3-1.086,4.729
	c0.126,0.72,0.448,1.392,0.838,2.075c0.623,1.082,0.779,0.887,1.632,1.822c0.688,0.753,3.45,2.845,4.294,3.521
	c1.219,0.973,3.494,2.457,4.438,3.491c1.17,1.277,3.271,2.335,4.547,3.552c1.174,1.119,2.982,2.441,4.384,3.5
	c2.938,2.222,5.75,4.679,8.891,6.978l0.828,0.603c0.718-0.977,2.476-2.917,3.275-3.743c1.127-1.172,2.065-2.548,3.194-3.703
	c2.177-2.229,4.356-4.846,6.508-7.06c2.25-2.319,4.402-4.769,6.519-6.979c1.97-2.059,4.545-5.884,6.8-4.235l0.093,0.068
	c1.266,0.928,1.673,2.934,0.696,4.269l-1.941,2.653c-1.456,1.998-2.9,3.776-4.268,5.651c-1.278,1.742-3.264,4.188-1.752,5.294
	l0.554,0.403c0.767,0.562,6.402-1.16,7.505-1.53c2.429-0.817,5.058-1.306,7.442-2.169c2.393-0.866,5.159-1.314,7.438-2.173
	c1.144-0.427,2.625-0.614,3.728-1.033c1.237-0.468,2.405-0.594,3.792,0.423c0.582,0.428,0.737,1.893,0.261,2.539l-0.594,0.818
	c-1.181,1.611-7.117,3.283-8.883,3.906c-1.07,0.378-8.594,2.979-8.928,3.434c-0.102,0.143-0.024,0.293,0.131,0.407
	c0.391,0.289,10.778-1.709,12.247-1.79c2.051-0.114,10.967-2.226,12.216-1.311l0.276,0.199c0.899,0.663,1.245,2.353,0.517,3.354
	l-0.447,0.614c-0.911,1.245-4.411,1.566-5.688,1.831c-1.97,0.411-3.805,0.708-5.766,1.114c-1.945,0.407-3.793,0.704-5.758,1.111
	c-1.746,0.362-4.135,0.565-5.746,1.241c0.037,0.126,0.073,0.366,0.127,0.406c1.135,0.83,18.253-0.903,19.779,0.208l0.366,0.272
	c0.817,0.594,1.082,2.389,0.505,3.182l-0.155,0.204c-1.705,2.335-8.968,2.01-11.426,2.335c-2.315,0.306-9.867,0.464-11.467,1.132
	c-0.012,0.134-0.073,0.415,0.058,0.509c1.403,1.029,11.715,1.518,13.122,2.547c0.879,0.643,0.933,2.014,0.22,2.982l-0.22,0.306
	c-0.858,1.172-6.808,0.744-8.268,0.752c-2.816,0.017-5.461-0.077-8.269-0.064c-5.339,0.028-11.214-0.062-16.49,0.342
	c-2.757,0.207-5.448,0.22-8.217,0.411c-2.718,0.19-5.54,0.382-8.215,0.455c-2.49,0.065-5.697,0.249-8.203,0.537
	c-2.673,0.31-5.564-0.069-7.933,3.17c-1.951,2.665-1.951,6.718,0.447,8.472l0.464,0.338c1.856,1.359,3.492,0.965,5.229,1.164
	c1.524,0.171,3.544,0.231,5.139,0.28c3.385,0.098,6.799,0.334,10.191,0.537c6.797,0.407,13.668,0.847,20.463,1.042
	c7.223,0.212,13.163,0.977,20.284-0.676c6.274-1.461,13.317-5.225,18.938-12.902l1.786-2.45c6.433-8.793,7.658-16.544,5.818-23.62
	c-1.888-7.264-6.852-13.33-11.755-19.967c-2.368-3.198-5.054-6.49-7.223-9.745c-2.201-3.292-4.854-6.344-6.84-9.741
	c-1.433-2.448-11.483-18.828-12.757-19.755l-0.183-0.136c-1.852-1.353-4.912-0.629-6.486,1.523l-0.447,0.615
	c-1.66,2.271-0.188,4.679,0.455,6.565c0.659,1.908,1.799,4.224,2.67,6.109c0.716,1.544,5.473,11.336,4.817,12.236
	c-0.188,0.256-0.862,0.622-1.151,0.411l-0.277-0.204c-0.842-0.614-5.062-6.152-6.042-7.389c-0.993-1.262-1.837-2.505-2.901-3.724
	c-0.704-0.81-2.252-2.714-2.836-3.652c-0.696-1.119-2.051-2.625-2.922-3.719c-0.995-1.251-1.904-2.402-2.881-3.642
	c-1.279-1.617-4.533-6.102-6.152-7.286l-0.278-0.199c-2.299-1.685-6.256-0.917-8.169,1.697c-1.331,1.821-1.577,3.688-1.381,5.221
	c0.204,1.599,1.296,2.936,2.354,4.357c2.071,2.783,4.067,5.593,6.063,8.43c1.973,2.805,4.018,5.612,6.105,8.42
	c1.052,1.412,1.971,2.792,2.995,4.22c0.542,0.753,1.023,1.416,1.496,2.116c0.409,0.606,1.475,1.44,0.893,2.238l-0.148,0.203
	C106.125,128.64,105.824,128.879,105.542,128.672L105.542,128.672z"/>
</svg>
