<?xml version="1.0" encoding="utf-8"?>
<!DOCTYPE svg PUBLIC "-//W3C//DTD SVG 1.1//EN" "http://www.w3.org/Graphics/SVG/1.1/DTD/svg11.dtd">
<svg version="1.1" xmlns="http://www.w3.org/2000/svg" xmlns:xlink="http://www.w3.org/1999/xlink" x="0px" y="0px" width="216px" height="216px" viewBox="0 0 216 216" enable-background="new 0 0 216 216" xml:space="preserve">
<path fill-rule="evenodd" clip-rule="evenodd" d="M16.119-0.08h183.602
	c8.911,0,16.199,7.29,16.199,16.199v183.602c0,8.907-7.288,16.199-16.199,16.199H16.119c-8.909,0-16.199-7.292-16.199-16.199V16.119
	C-0.08,7.209,7.209-0.08,16.119-0.08L16.119-0.08z M16.119,4.918h183.602c6.161,0,11.198,5.04,11.198,11.2v183.602
	c0,6.161-5.037,11.198-11.198,11.198H16.119c-6.161,0-11.2-5.037-11.2-11.198V16.119C4.918,9.958,9.958,4.918,16.119,4.918
	L16.119,4.918z M133.53,95.548c13.529-5.646,29.578-9.67,49.374-9.67v71.448c-6.328,0-12.614,0.659-18.73,1.758l-0.004,0.008
	c0.265,3.146-1.408,9.989-3.593,12.431c11.995-1.664,23.738-2.588,35.522-2.588V86.773h-6.596v-4.465
	c-2.21-6.716-33.549,0.789-39.372,1.963c-3.845,0.775-12.557,3.923-20.239,6.84l0.057,0.065l0.058,0.065l0.024,0.024l0.032,0.041
	l0.062,0.065l0.053,0.061l0.004,0.004l0.061,0.067l0.058,0.067l0.024,0.029l0.032,0.039l0.062,0.067l0.053,0.063l0.004,0.004
	l0.061,0.067l0.058,0.069l0.028,0.031l0.032,0.039l0.058,0.069l0.057,0.065l0.004,0.004l0.057,0.067l0.062,0.071l0.028,0.033
	l0.028,0.037l0.058,0.071l0.061,0.067l0.057,0.071l0.062,0.071l0.028,0.037l0.028,0.033l0.062,0.069l0.057,0.073v0.002l0.061,0.069
	l0.058,0.071l0.032,0.037l0.024,0.035l0.062,0.071l0.057,0.071l0.004,0.004l0.053,0.067l0.058,0.073l0.032,0.039l0.028,0.03
	l0.058,0.073l0.057,0.069l0.004,0.008l0.053,0.063l0.057,0.073l0.037,0.042l0.021,0.028l0.057,0.071l0.058,0.071l0.008,0.008
	l0.049,0.063l0.057,0.071l0.037,0.045l0.024,0.026l0.057,0.071l0.053,0.071l0.009,0.01l0.049,0.059l0.053,0.071l0.036,0.044
	l0.021,0.024l0.053,0.071l0.057,0.071l0.013,0.012l0.041,0.055l0.057,0.073l0.053,0.067l0.053,0.071l0.058,0.069l0.012,0.012
	l0.094,0.124l0.041,0.049l0.012,0.018l0.053,0.069l0.053,0.067l0.013,0.017l0.041,0.049l0.049,0.069l0.04,0.051l0.017,0.016
	L133.53,95.548L133.53,95.548z M76.8,92.734L76.8,92.734c-11.914-4.122-25.68-6.856-41.998-6.856v71.448
	c9.198,0,23.61,2.526,32.245,4.63l0.065,0.253c-2.11,3.764-1.599,8.492,2.264,11.336c-12.242-1.681-36.218-4.61-47.771-4.61V86.773
	h6.598v-4.465c2.208-6.716,33.545,0.789,39.372,1.963c3.383,0.684,10.542,3.203,17.45,5.791l-0.012,0.016l-0.03,0.045l-0.027,0.032
	l-0.016,0.027l-0.035,0.053l-0.008,0.01l-0.041,0.061l-0.006,0.008l-0.035,0.051L84.8,90.393l-0.024,0.037l-0.026,0.041
	l-0.015,0.021l-0.037,0.059v0.004l-0.041,0.061l-0.008,0.012l-0.03,0.049l-0.021,0.033l-0.018,0.03l-0.029,0.049l-0.006,0.014
	l-0.039,0.065h-0.002l-0.033,0.061l-0.014,0.02l-0.024,0.043l-0.021,0.037l-0.014,0.026l-0.029,0.055l-0.006,0.01l-0.033,0.061
	l-0.006,0.01l-0.029,0.055l-0.014,0.026l-0.018,0.039l-0.022,0.043l-0.012,0.02l-0.028,0.061l-0.002,0.002l-0.032,0.065
	l-0.031,0.065l-0.016,0.033l-0.014,0.032l-0.024,0.051l-0.006,0.014l-0.03,0.063v0.004l-0.028,0.063l-0.008,0.021l-0.021,0.043
	l-0.016,0.041l-0.012,0.024l-0.024,0.057l-0.002,0.01l-0.027,0.063l-0.026,0.067l-0.012,0.028l-0.016,0.037l-0.016,0.047
	l-0.006,0.021l-0.024,0.065l0,0l-0.024,0.067l-0.008,0.014l-0.017,0.051l-0.012,0.033l-0.012,0.035L83.713,92.6l-0.004,0.016
	l-0.022,0.065v0.006l-0.02,0.061l-0.008,0.022l-0.014,0.044l-0.014,0.041l-0.006,0.026l-0.018,0.059v0.008l-0.021,0.065
	l-0.004,0.012l-0.014,0.057l-0.008,0.031l-0.01,0.037L83.534,93.2l-0.004,0.019l-0.017,0.067v0.002l-0.018,0.065l-0.004,0.019
	l-0.014,0.051l-0.006,0.037l-0.008,0.031l-0.012,0.057l-0.002,0.01l-0.014,0.069l-0.002,0.006l-0.012,0.063l-0.006,0.024
	l-0.008,0.045l-0.008,0.041l-0.004,0.026l-0.01,0.061L83.379,93.9l-0.01,0.067l-0.002,0.012l-0.01,0.057l-0.006,0.031l-0.004,0.039
	l-0.008,0.049l-0.004,0.021l-0.008,0.067c-0.002,0-0.004-0.002-0.006-0.002c-0.071-0.042-0.144-0.087-0.22-0.128l-0.012-0.006
	l-0.033-0.018c-0.146-0.082-0.295-0.159-0.448-0.23v-0.002l-0.01-0.006l-0.222-0.102l-0.014-0.006l-0.047-0.02l-0.189-0.083
	l-0.012-0.004c-0.082-0.035-0.163-0.065-0.24-0.098l-0.014-0.004l-0.022-0.008l-0.195-0.073l-0.037-0.014l-0.022-0.006l-0.197-0.069
	l-0.092-0.028l-0.146-0.049l-0.065-0.021l-0.035-0.01l-0.173-0.049l-0.116-0.03l-0.171-0.049l-0.039-0.008l-0.01-0.002l-0.022-0.004
	l-0.218-0.055l-0.021-0.004l-0.049-0.01l-0.183-0.039l-0.096-0.021l-0.032-0.006l-0.108-0.021l-0.024-0.004l-0.077-0.015
	l-0.106-0.02l-0.106-0.016l-0.105-0.017l-0.106-0.016l-0.035-0.004l-0.177-0.024l-0.106-0.012l-0.008-0.002l-0.1-0.012l-0.108-0.01
	l-0.107-0.013l-0.098-0.008h-0.01l-0.108-0.01l-0.214-0.014l-0.11-0.008l-0.11-0.006l-0.105-0.004h-0.033l-0.185-0.008l-0.11-0.002
	l-0.218-0.004h-0.108h-0.108l-0.11,0.004L76.8,92.734L76.8,92.734z"/>
</svg>
