<?xml version="1.0" encoding="utf-8"?>
<!DOCTYPE svg PUBLIC "-//W3C//DTD SVG 1.1//EN" "http://www.w3.org/Graphics/SVG/1.1/DTD/svg11.dtd">
<svg version="1.1" xmlns="http://www.w3.org/2000/svg" xmlns:xlink="http://www.w3.org/1999/xlink" x="0px" y="0px" width="216px" height="216px" viewBox="0 0 216 216" enable-background="new 0 0 216 216" xml:space="preserve">
<path id="_x33_" fill-rule="evenodd" clip-rule="evenodd" fill="#F58031" d="M163.124,144.228c-0.793-0.167-2.481-0.187-2.779,0.375
	c-0.016,0.024-0.024,0.053-0.028,0.077c-0.102,0.553,1.237,1.298,1.889,1.452c1.025,0.24,1.465,0.229,1.037,1.059
	c-0.252,0.5-0.432,1.655,0.33,2.091c0.032,0.021,0.064,0.037,0.102,0.053c0.757,0.293,1.818-0.382,2.152-0.736
	c0.094-0.098,0.175-0.207,0.24-0.317c0.68-1.163,0.598-1.009,1.607-0.089c0.183,0.166,0.391,0.325,0.618,0.464
	c0.659,0.395,2.274,0.972,2.934,0.614c0.028-0.017,0.053-0.033,0.077-0.053c0.46-0.411-0.395-1.421-0.866-1.799
	c-0.135-0.105-0.272-0.203-0.428-0.297c-1.114-0.668-1.696-0.912-0.077-1.172c0.257-0.041,0.505-0.102,0.729-0.188
	c0.651-0.256,1.701-1.066,1.335-1.685c-0.013-0.028-0.033-0.053-0.058-0.081c-0.476-0.513-1.989-0.432-2.579-0.297
	c-0.163,0.036-0.322,0.085-0.473,0.142c-0.695,0.273-1.554,1.025-1.623-0.126c-0.013-0.195-0.058-0.395-0.135-0.59
	c-0.228-0.562-1.144-1.677-2.047-1.733c-0.04-0.004-0.077-0.004-0.113,0c-0.777,0.069-0.928,1.136-0.847,1.6
	c0.024,0.13,0.062,0.264,0.114,0.391C164.748,144.646,164.581,144.529,163.124,144.228L163.124,144.228z M107.238,45.525
	c2.903,0,5.259,3.243,5.259,7.243c0,4-2.355,7.243-5.259,7.243s-5.257-3.243-5.257-7.243
	C101.981,48.769,104.335,45.525,107.238,45.525L107.238,45.525z M107.004,40.517L107.004,40.517c6.201,0,11.23,7.031,11.23,15.702
	c0,2.535-0.431,4.932-1.196,7.052c-2.502-1.996-6.177-3.259-10.266-3.259c-3.898,0-7.416,1.146-9.904,2.98
	c-0.704-2.051-1.099-4.348-1.099-6.773C95.77,47.548,100.801,40.517,107.004,40.517L107.004,40.517z M52.717,144.228L52.717,144.228
	c0.795-0.167,2.48-0.187,2.779,0.375c0.014,0.024,0.022,0.053,0.026,0.077c0.104,0.553-1.237,1.298-1.886,1.452
	c-1.028,0.24-1.467,0.229-1.042,1.059c0.254,0.5,0.438,1.655-0.323,2.091c-0.033,0.021-0.069,0.037-0.104,0.053
	c-0.759,0.293-1.821-0.382-2.154-0.736c-0.092-0.098-0.173-0.207-0.24-0.317c-0.68-1.163-0.598-1.009-1.605-0.089
	c-0.186,0.166-0.391,0.325-0.621,0.464c-0.657,0.395-2.272,0.972-2.932,0.614c-0.031-0.017-0.055-0.033-0.076-0.053
	c-0.464-0.411,0.393-1.421,0.865-1.799c0.132-0.105,0.275-0.203,0.427-0.297c1.117-0.668,1.697-0.912,0.078-1.172
	c-0.256-0.041-0.507-0.102-0.73-0.188c-0.649-0.256-1.701-1.066-1.335-1.685c0.015-0.028,0.035-0.053,0.057-0.081
	c0.478-0.513,1.99-0.432,2.578-0.297c0.165,0.036,0.326,0.085,0.476,0.142c0.694,0.273,1.552,1.025,1.624-0.126
	c0.012-0.195,0.055-0.395,0.134-0.59c0.228-0.562,1.142-1.677,2.045-1.733c0.041-0.004,0.079-0.004,0.116,0
	c0.779,0.069,0.926,1.136,0.845,1.6c-0.021,0.13-0.057,0.264-0.11,0.391C51.096,144.646,51.261,144.529,52.717,144.228
	L52.717,144.228z"/>
<path id="_x32_" fill-rule="evenodd" clip-rule="evenodd" fill="#999557" d="M16.119-0.08h183.602
	c8.911,0,16.199,7.29,16.199,16.199v183.602c0,8.907-7.288,16.199-16.199,16.199H16.119c-8.909,0-16.199-7.292-16.199-16.199V16.119
	C-0.08,7.209,7.209-0.08,16.119-0.08L16.119-0.08z M16.119,4.918h183.602c6.161,0,11.198,5.04,11.198,11.2v183.602
	c0,6.161-5.037,11.198-11.198,11.198H16.119c-6.161,0-11.2-5.037-11.2-11.198V16.119C4.918,9.958,9.958,4.918,16.119,4.918
	L16.119,4.918z M165.55,122.743l5.696-70.729l-18.767,0.01c-1.314-14.986-25.517-26.819-44.796-26.819
	c-19.283,0-43.485,11.833-44.8,26.819l-18.75-0.012l5.699,70.451c2.619,1.542,4.83,4.061,6.283,6.774
	c5.206-2.34,11.993-2.823,15.669,1.697l0.12,0.154c0.163-0.545,0.338-1.106,0.505-1.717c0.549-2.011,1.43-3.728,2.96-5.168
	c0.645-0.606,1.298-1.001,1.953-1.542l1.638-1.347l2.11-0.167c0.415-0.033,0.828-0.232,1.227-0.517l-0.857-2.434v-6.604l4.499-4.262
	l3.528-0.667h3.04c1.168-0.81,2.222-1.573,3.422-2.209v-0.853l0.195-0.792c1.304-5.302,6.248-9.33,11.746-9.33h0.773
	c5.471,0,10.403,3.996,11.729,9.265l0.488,1.852l1.074,0.508l1.082,0.682l1.229,0.877h0.85l5.347,0.36l3.516,3.333l1.111,3.165
	v5.563l-0.903,1.359l1.241,0.659l0.069,0.028l2.71,0.704l2.718,1.933l0.663,0.937c1.607,2.274,2.336,3.877,2.905,5.757
	c3.752-4.012,10.238-3.479,15.255-1.225C161.094,126.682,163.133,124.302,165.55,122.743L165.55,122.743z M78.749,83.276
	L78.749,83.276h57.459v5.387H78.749V83.276L78.749,83.276z M123.415,94.051L123.415,94.051h33.667v5.385h-33.667V94.051
	L123.415,94.051z M61.692,94.051L61.692,94.051h33.667v5.385H61.692V94.051L61.692,94.051z M107.004,37.153L107.004,37.153
	c0.932,0,1.859,0.112,2.767,0.336c8.036,1.981,11.828,11.169,11.828,18.729c0,7.561-3.792,16.746-11.828,18.726
	c-0.908,0.224-1.835,0.338-2.767,0.338c-0.934,0-1.862-0.114-2.769-0.338c-8.034-1.978-11.829-11.165-11.829-18.726
	c0-7.56,3.794-16.748,11.831-18.729C105.143,37.265,106.07,37.153,107.004,37.153L107.004,37.153z M56.042,136.537L56.042,136.537
	c2.095-1.574,7.34-3.625,9.649-1.77c0.1,0.081,0.191,0.171,0.271,0.269c1.658,2.042-0.732,6.543-2.4,7.901
	c-2.637,2.148-4.043,2.612-0.684,5.384c2.014,1.664,5.403,5.998,4.075,8.594c-0.059,0.114-0.126,0.216-0.208,0.313
	c-1.67,2.038-6.637,0.646-8.553-0.366c-0.537-0.285-1.052-0.606-1.534-0.973c-4.968-3.764-4.337-3.26-5.261,1.53
	c-0.169,0.874-0.436,1.737-0.82,2.543c-1.107,2.323-4.779,6.47-7.717,5.843c-0.126-0.028-0.249-0.065-0.368-0.118
	c-2.452-1.078-2.222-6.046-1.654-8.077c0.157-0.569,0.362-1.123,0.617-1.66c1.875-3.938,3.113-5.562-2.61-4.695
	c-0.912,0.135-1.845,0.179-2.763,0.098c-2.649-0.228-7.935-2.185-8.299-5.058c-0.014-0.122-0.016-0.244-0.006-0.37
	c0.244-2.58,5.192-4.024,7.375-4.184c0.608-0.049,1.223-0.044,1.833,0.009c2.851,0.248,7.377,2.209,4.804-2.393
	c-0.438-0.781-0.792-1.615-1.015-2.475c-0.655-2.478-0.495-7.922,2.203-9.204c0.116-0.057,0.238-0.098,0.364-0.13
	c2.612-0.639,5.672,3.373,6.553,5.298c0.248,0.537,0.45,1.095,0.6,1.668C51.963,140.081,52.197,139.427,56.042,136.537
	L56.042,136.537z M24.334,189.008L24.334,189.008h27.877c-3.036-3.557-6.686-7.061-9.462-9.652
	c-3.89-3.63-12.226-3.487-18.463-5.428c4.482-2.71,2.993-2.515,4.858-2.836c3.528-0.603,11.222-0.509,14.62,0.586
	c3.457,1.114,10.146,3.837,14.221,6.958l-4.84-15.495c-2.824,4.216-7.782,7.084-11.464,5.469c-4.195-1.848-5.145-8.826-2.686-13.993
	l0.039-0.082c-0.897,0.082-1.796,0.094-2.675,0.017c-5.892-0.513-11.745-4.5-11.33-8.915c0.415-4.419,6.948-7.601,12.838-7.084
	c0.177,0.012,0.354,0.032,0.531,0.053c-0.106-0.31-0.204-0.623-0.285-0.932c-1.453-5.514,0.513-12.15,4.984-13.237
	c4.472-1.094,9.764,3.776,11.216,9.286c0.035,0.134,0.067,0.265,0.1,0.402l0.15-0.122c4.663-3.499,11.772-4.439,14.61-0.943
	c2.659,3.271,0.641,9.269-3.448,12.895c1.733,1.363,3.172,3.125,4.126,4.977v0.021l0.049,0.068c0.167,0.334,0.321,0.668,0.456,1.001
	c0.09,1.083,0.059,2.23,0.261,3.329c0.11,0.606,0.224,1.208,0.346,1.811c-0.183,0.757-0.513,1.452-1.013,2.063
	c-2.376,2.894-7.8,2.849-12.231,0.732l5.275,16.883c1.081-1.628,2.195-3.438,3.109-5.758c1.149-2.909,3.265-6.429,5.829-9.77
	c0.436,1.534,1.023,3.02,1.573,4.517c0.389,1.066,0.962,2.323,1.235,3.426l0.09,1.001l0.881,1.673l0.917,2.173
	c-2.287,4.866-3.927,10.132-6.051,14.909h16.803l-0.732,3.727l-61.493,0.049L24.334,189.008L24.334,189.008z M159.8,136.537
	L159.8,136.537c-2.096-1.574-7.341-3.625-9.647-1.77c-0.102,0.081-0.191,0.171-0.272,0.269c-1.66,2.042,0.732,6.543,2.4,7.901
	c2.637,2.148,4.041,2.612,0.684,5.384c-2.014,1.664-5.403,5.998-4.073,8.594c0.058,0.114,0.126,0.216,0.204,0.313
	c1.672,2.038,6.636,0.646,8.557-0.366c0.533-0.285,1.05-0.606,1.53-0.973c4.968-3.764,4.337-3.26,5.261,1.53
	c0.171,0.874,0.439,1.737,0.822,2.543c1.106,2.323,4.777,6.47,7.719,5.843c0.122-0.028,0.244-0.065,0.362-0.118
	c2.453-1.078,2.226-6.046,1.66-8.077c-0.159-0.569-0.366-1.123-0.618-1.66c-1.876-3.938-3.113-5.562,2.607-4.695
	c0.912,0.135,1.848,0.179,2.764,0.098c2.652-0.228,7.935-2.185,8.301-5.058c0.012-0.122,0.016-0.244,0.004-0.37
	c-0.244-2.58-5.192-4.024-7.373-4.184c-0.61-0.049-1.225-0.044-1.835,0.009c-2.849,0.248-7.378,2.209-4.806-2.393
	c0.439-0.781,0.793-1.615,1.021-2.475c0.65-2.478,0.492-7.922-2.206-9.204c-0.118-0.057-0.24-0.098-0.366-0.13
	c-2.608-0.639-5.672,3.373-6.551,5.298c-0.248,0.537-0.452,1.095-0.603,1.668C163.877,140.081,163.646,139.427,159.8,136.537
	L159.8,136.537z M190.562,189.008L190.562,189.008h-26.933c3.035-3.557,6.689-7.061,9.465-9.652
	c3.89-3.63,12.223-3.487,18.461-5.428c-4.48-2.71-2.991-2.515-4.858-2.836c-3.528-0.603-11.223-0.509-14.62,0.586
	c-3.455,1.114-10.145,3.837-14.217,6.958l4.838-15.495c2.823,4.216,7.779,7.084,11.462,5.469c4.195-1.848,5.147-8.826,2.686-13.993
	l-0.036-0.082c0.895,0.082,1.794,0.094,2.673,0.017c5.893-0.513,11.747-4.5,11.333-8.915c-0.416-4.419-6.95-7.601-12.838-7.084
	c-0.18,0.012-0.354,0.032-0.533,0.053c0.109-0.31,0.203-0.623,0.284-0.932c1.457-5.514-0.513-12.15-4.984-13.237
	c-4.472-1.094-9.762,3.776-11.214,9.286c-0.037,0.134-0.069,0.265-0.102,0.402l-0.15-0.122c-4.663-3.499-11.772-4.439-14.608-0.943
	c-0.431,0.528-0.74,1.131-0.936,1.782l0.114,1.05l0.732,2.994h0.081v0.322l0.948,3.861c0.699,1.05,1.546,2.034,2.506,2.885
	c-1.367,1.078-2.547,2.4-3.454,3.816v0.635l-0.358,0.537c-0.293,2.116-0.305,4.244-0.777,6.376
	c-0.073,0.322-0.154,0.647-0.235,0.969c0.162,0.33,0.362,0.639,0.602,0.936c2.377,2.894,7.801,2.849,12.231,0.732l-5.273,16.883
	c-1.082-1.628-2.197-3.438-3.108-5.758c-1.099-2.771-3.06-6.096-5.461-9.285c-0.158,0.509-0.313,1.054-0.35,1.432l-0.085,0.977
	l-0.908,2.3l-1.672,4.553l-1.131,2.141l-0.688,1.403c2.169,4.725,3.769,9.794,5.819,14.409h-15.869l0.732,4.476h59.611
	L190.562,189.008L190.562,189.008z"/>
<path id="_x31_" fill-rule="evenodd" clip-rule="evenodd" fill="#7E5628" d="M76.578,142.315L76.578,142.315v0.915h7.92h0.964h2.897
	h0.966h2.897h0.966h6.761h0.966h14.485h0.965h2.897h0.968h2.897l2.767-0.012l-0.451-2.372l10.433,0.191v1.277
	c0.032,1.396,1.091,0.915,2.702,0.915h1.159v-1.099l-0.386-3.662h-2.315h-0.969h-2.897h-0.964h-2.897h-0.969h-2.896h-16.417h-2.897
	h-0.966h-2.897h-0.964h-2.899H97.44H82.952h-0.966h-2.897h-0.966H77.16L76.578,142.315L76.578,142.315z M102.654,104.418
	L102.654,104.418v1.833l0.193,1.28l0.832,1.437l-2.763,0.761c-2.321,0.511-4.618,2.545-6.374,3.66h-0.582h-0.964h-2.899
	l-0.964,0.188l-0.964,0.911v2.563l0.191,0.549l0.58,0.737l0.966,1.46l0.578,0.732h35.543l2.314-3.479v-2.381l-0.19-0.549
	l-0.578-0.545l-2.706-0.188h-0.964l-1.958,0.028l-0.557-0.395l-0.578-0.545l-1.546-1.101l-0.578-0.369l-1.933-0.913l-0.773-0.366
	l-1.929-0.549l-1.159-0.367l1.159-3.664l-0.195-0.73c-0.513-2.091-2.622-4.211-5.214-4.211h-0.773
	C105.279,100.207,103.169,102.327,102.654,104.418L102.654,104.418z M81.602,127.854L81.602,127.854
	c-1.394,1.148-2.128,1.181-2.706,3.297c-0.382,1.399-1.158,3.312-1.158,4.943l46.592-0.008l-0.236-1.278l-0.386-1.46l-0.387-1.282
	l-0.965-1.465l-0.577-0.736l-0.773-1.648l-1.095-2.706l3.605-0.036h0.769l0.773,1.099l0.773,0.732l1.354,1.099l0.773,0.55
	l1.542,0.911l3.865,1.469l0.773,1.647l0.191,0.729l0.582,2.197l4.053,0.188c-0.92-3.748-0.883-4.663-2.897-7.508l-0.773-0.549
	l-2.124-0.549l-0.772-0.371l-1.737-0.911l-0.578-0.366l-1.547-1.281l-0.577-0.55l-0.773-0.915h-37.86
	C87.408,125.185,85.361,127.557,81.602,127.854L81.602,127.854z M92.231,186.118L92.231,186.118l-0.588-0.777l-0.58-0.549
	l-1.158-1.644l-0.387-0.554l-1.16-1.644l-0.384-0.554l-0.966-1.644l-0.58-0.92l-0.773-1.465l-0.58-0.732l-0.771-1.648l-0.58-0.915
	l-0.773-1.648l-0.386-0.549l-0.773-1.831l-0.384-0.729c-0.098-1.115-2.572-7.17-3.095-9.151c-0.427-1.628-0.757-3.243-1.08-5.021
	c-0.214-1.172-0.228-4.594-0.655-5.236v-3.296h63.356v2.746c-0.175,0.265-0.765,6.539-0.977,7.495
	c-0.386,1.729-1.606,5.38-1.729,6.783l-0.577,1.469l-1.546,4.212l-0.965,1.831l-2.515,5.123l-1.351,2.197l-5.021,7.507l-0.936,1.144
	h-4.907l6.034-8.102l3.479-6.042l1.16-2.011l1.933-4.581l0.769-1.648l1.16-3.841l0.387-1.465l0.773-3.479l0.19-1.099l0.391-2.197
	l0.383-2.93v-0.732h-1.542h-0.969h-2.896h-0.965h-3.093v2.93v5.493v1.831l-0.191,1.648l-0.19,2.38l-0.195,1.099l-0.387,2.93
	l-0.195,1.278l-0.77,3.482l-0.391,1.099l-0.964,3.658l-0.578,1.465l-1.546,4.212l-2.494,4.622H92.231L92.231,186.118z
	 M123.59,192.914L123.59,192.914H92.897v-4.46h30.693V192.914L123.59,192.914z"/>
</svg>
