<?xml version="1.0" encoding="utf-8"?>
<!DOCTYPE svg PUBLIC "-//W3C//DTD SVG 1.1//EN" "http://www.w3.org/Graphics/SVG/1.1/DTD/svg11.dtd">
<svg version="1.1" xmlns="http://www.w3.org/2000/svg" xmlns:xlink="http://www.w3.org/1999/xlink" x="0px" y="0px" width="216px" height="216px" viewBox="0 0 216 216" enable-background="new 0 0 216 216" xml:space="preserve">
<path fill-rule="evenodd" clip-rule="evenodd" d="M163.124,144.228c-0.793-0.167-2.481-0.187-2.779,0.375
	c-0.016,0.024-0.024,0.053-0.028,0.077c-0.102,0.553,1.237,1.298,1.889,1.452c1.025,0.24,1.465,0.229,1.037,1.059
	c-0.252,0.5-0.432,1.655,0.33,2.091c0.032,0.021,0.064,0.037,0.102,0.053c0.757,0.293,1.818-0.382,2.152-0.736
	c0.094-0.098,0.175-0.207,0.24-0.317c0.68-1.163,0.598-1.009,1.607-0.089c0.183,0.166,0.391,0.325,0.618,0.464
	c0.659,0.395,2.274,0.972,2.934,0.614c0.028-0.017,0.053-0.033,0.077-0.053c0.46-0.411-0.395-1.421-0.866-1.799
	c-0.135-0.105-0.272-0.203-0.428-0.297c-1.114-0.668-1.696-0.912-0.077-1.172c0.257-0.041,0.505-0.102,0.729-0.188
	c0.651-0.256,1.701-1.066,1.335-1.685c-0.013-0.028-0.033-0.053-0.058-0.081c-0.476-0.513-1.989-0.432-2.579-0.297
	c-0.163,0.036-0.322,0.085-0.473,0.142c-0.695,0.273-1.554,1.025-1.623-0.126c-0.013-0.195-0.058-0.395-0.135-0.59
	c-0.228-0.562-1.144-1.677-2.047-1.733c-0.04-0.004-0.077-0.004-0.113,0c-0.777,0.069-0.928,1.136-0.847,1.6
	c0.024,0.13,0.062,0.264,0.114,0.391C164.748,144.646,164.581,144.529,163.124,144.228L163.124,144.228z M107.238,45.525
	c2.903,0,5.259,3.243,5.259,7.243c0,4-2.355,7.243-5.259,7.243s-5.257-3.243-5.257-7.243
	C101.981,48.769,104.335,45.525,107.238,45.525L107.238,45.525z M107.004,40.517L107.004,40.517c6.201,0,11.23,7.031,11.23,15.702
	c0,2.535-0.431,4.932-1.196,7.052c-2.502-1.996-6.177-3.259-10.266-3.259c-3.898,0-7.416,1.146-9.904,2.98
	c-0.704-2.051-1.099-4.348-1.099-6.773C95.77,47.548,100.801,40.517,107.004,40.517L107.004,40.517z M52.717,144.228L52.717,144.228
	c0.795-0.167,2.48-0.187,2.779,0.375c0.014,0.024,0.022,0.053,0.026,0.077c0.104,0.553-1.237,1.298-1.886,1.452
	c-1.028,0.24-1.467,0.229-1.042,1.059c0.254,0.5,0.438,1.655-0.323,2.091c-0.033,0.021-0.069,0.037-0.104,0.053
	c-0.759,0.293-1.821-0.382-2.154-0.736c-0.092-0.098-0.173-0.207-0.24-0.317c-0.68-1.163-0.598-1.009-1.605-0.089
	c-0.186,0.166-0.391,0.325-0.621,0.464c-0.657,0.395-2.272,0.972-2.932,0.614c-0.031-0.017-0.055-0.033-0.076-0.053
	c-0.464-0.411,0.393-1.421,0.865-1.799c0.132-0.105,0.275-0.203,0.427-0.297c1.117-0.668,1.697-0.912,0.078-1.172
	c-0.256-0.041-0.507-0.102-0.73-0.188c-0.649-0.256-1.701-1.066-1.335-1.685c0.015-0.028,0.035-0.053,0.057-0.081
	c0.478-0.513,1.99-0.432,2.578-0.297c0.165,0.036,0.326,0.085,0.476,0.142c0.694,0.273,1.552,1.025,1.624-0.126
	c0.012-0.195,0.055-0.395,0.134-0.59c0.228-0.562,1.142-1.677,2.045-1.733c0.041-0.004,0.079-0.004,0.116,0
	c0.779,0.069,0.926,1.136,0.845,1.6c-0.021,0.13-0.057,0.264-0.11,0.391C51.096,144.646,51.261,144.529,52.717,144.228
	L52.717,144.228z"/>
</svg>
