<?xml version="1.0" encoding="utf-8"?>
<!DOCTYPE svg PUBLIC "-//W3C//DTD SVG 1.1//EN" "http://www.w3.org/Graphics/SVG/1.1/DTD/svg11.dtd">
<svg version="1.1" xmlns="http://www.w3.org/2000/svg" xmlns:xlink="http://www.w3.org/1999/xlink" x="0px" y="0px" width="216px" height="216px" viewBox="0 0 216 216" enable-background="new 0 0 216 216" xml:space="preserve">
<path fill-rule="evenodd" clip-rule="evenodd" d="M76.578,142.315L76.578,142.315v0.915h7.92h0.964h2.897
	h0.966h2.897h0.966h6.761h0.966h14.485h0.965h2.897h0.968h2.897l2.767-0.012l-0.451-2.372l10.433,0.191v1.277
	c0.032,1.396,1.091,0.915,2.702,0.915h1.159v-1.099l-0.386-3.662h-2.315h-0.969h-2.897h-0.964h-2.897h-0.969h-2.896h-16.417h-2.897
	h-0.966h-2.897h-0.964h-2.899H97.44H82.952h-0.966h-2.897h-0.966H77.16L76.578,142.315L76.578,142.315z M102.654,104.418
	L102.654,104.418v1.833l0.193,1.28l0.832,1.437l-2.763,0.761c-2.321,0.511-4.618,2.545-6.374,3.66h-0.582h-0.964h-2.899
	l-0.964,0.188l-0.964,0.911v2.563l0.191,0.549l0.58,0.737l0.966,1.46l0.578,0.732h35.543l2.314-3.479v-2.381l-0.19-0.549
	l-0.578-0.545l-2.706-0.188h-0.964l-1.958,0.028l-0.557-0.395l-0.578-0.545l-1.546-1.101l-0.578-0.369l-1.933-0.913l-0.773-0.366
	l-1.929-0.549l-1.159-0.367l1.159-3.664l-0.195-0.73c-0.513-2.091-2.622-4.211-5.214-4.211h-0.773
	C105.279,100.207,103.169,102.327,102.654,104.418L102.654,104.418z M81.602,127.854L81.602,127.854
	c-1.394,1.148-2.128,1.181-2.706,3.297c-0.382,1.399-1.158,3.312-1.158,4.943l46.592-0.008l-0.236-1.278l-0.386-1.46l-0.387-1.282
	l-0.965-1.465l-0.577-0.736l-0.773-1.648l-1.095-2.706l3.605-0.036h0.769l0.773,1.099l0.773,0.732l1.354,1.099l0.773,0.55
	l1.542,0.911l3.865,1.469l0.773,1.647l0.191,0.729l0.582,2.197l4.053,0.188c-0.92-3.748-0.883-4.663-2.897-7.508l-0.773-0.549
	l-2.124-0.549l-0.772-0.371l-1.737-0.911l-0.578-0.366l-1.547-1.281l-0.577-0.55l-0.773-0.915h-37.86
	C87.408,125.185,85.361,127.557,81.602,127.854L81.602,127.854z M92.231,186.118L92.231,186.118l-0.588-0.777l-0.58-0.549
	l-1.158-1.644l-0.387-0.554l-1.16-1.644l-0.384-0.554l-0.966-1.644l-0.58-0.92l-0.773-1.465l-0.58-0.732l-0.771-1.648l-0.58-0.915
	l-0.773-1.648l-0.386-0.549l-0.773-1.831l-0.384-0.729c-0.098-1.115-2.572-7.17-3.095-9.151c-0.427-1.628-0.757-3.243-1.08-5.021
	c-0.214-1.172-0.228-4.594-0.655-5.236v-3.296h63.356v2.746c-0.175,0.265-0.765,6.539-0.977,7.495
	c-0.386,1.729-1.606,5.38-1.729,6.783l-0.577,1.469l-1.546,4.212l-0.965,1.831l-2.515,5.123l-1.351,2.197l-5.021,7.507l-0.936,1.144
	h-4.907l6.034-8.102l3.479-6.042l1.16-2.011l1.933-4.581l0.769-1.648l1.16-3.841l0.387-1.465l0.773-3.479l0.19-1.099l0.391-2.197
	l0.383-2.93v-0.732h-1.542h-0.969h-2.896h-0.965h-3.093v2.93v5.493v1.831l-0.191,1.648l-0.19,2.38l-0.195,1.099l-0.387,2.93
	l-0.195,1.278l-0.77,3.482l-0.391,1.099l-0.964,3.658l-0.578,1.465l-1.546,4.212l-2.494,4.622H92.231L92.231,186.118z
	 M123.59,192.914L123.59,192.914H92.897v-4.46h30.693V192.914L123.59,192.914z"/>
</svg>
