<?xml version="1.0" encoding="utf-8"?>
<!DOCTYPE svg PUBLIC "-//W3C//DTD SVG 1.1//EN" "http://www.w3.org/Graphics/SVG/1.1/DTD/svg11.dtd">
<svg version="1.1" xmlns="http://www.w3.org/2000/svg" xmlns:xlink="http://www.w3.org/1999/xlink" x="0px" y="0px" width="216px" height="216px" viewBox="0 0 216 216" enable-background="new 0 0 216 216" xml:space="preserve">
<path fill-rule="evenodd" clip-rule="evenodd" d="M53.645,82.5c0.753,0,1.501,0,2.25,0
	c5.338,0,8.125-0.919,12.376-1.644v27.793c-9.164,3.219-18.734,11.651-21.623,20.408l-24.5,0.436V79.215h6.749
	C37.247,79.215,45.29,82.5,53.645,82.5L53.645,82.5z M200.107,77.415L200.107,77.415h-35.729l0.004,0.012h-4.691
	c-0.098-0.008-0.2-0.012-0.298-0.012c-2.002,0-3.625,1.642-3.625,3.664c0,2,1.587,3.624,3.552,3.662v0.039h3.325l-0.009,0.008
	h37.346v45.377h-28.341c-0.569-1.664-1.27-3.279-2.104-4.834h25.761V89.727h-31.047v28.304c-0.915-0.969-1.892-1.88-2.917-2.746
	V90.472c0-0.395-0.321-0.716-0.708-0.716h-0.643c-0.387,0-0.708,0.321-0.708,0.716v23.21c-2.275-1.648-4.773-3.052-7.455-4.173
	V80.436c-0.016-0.193-0.024-0.389-0.024-0.586c0-3.634,2.909-6.58,6.498-6.594v-0.002h0.021h41.793V77.415L200.107,77.415z"/>
</svg>
