<?xml version="1.0" encoding="utf-8"?>
<!DOCTYPE svg PUBLIC "-//W3C//DTD SVG 1.1//EN" "http://www.w3.org/Graphics/SVG/1.1/DTD/svg11.dtd">
<svg version="1.1" xmlns="http://www.w3.org/2000/svg" xmlns:xlink="http://www.w3.org/1999/xlink" x="0px" y="0px" width="216px" height="216px" viewBox="0 0 216 216" enable-background="new 0 0 216 216" xml:space="preserve">
<path fill-rule="evenodd" clip-rule="evenodd" d="M167.083,92.718L167.083,92.718h25.379v30.083h-25.379
	V92.718L167.083,92.718z M73.211,181.219L73.211,181.219h11.593v-33.813c0-2.868-2.344-5.216-5.216-5.216H78.43
	c-2.871,0-5.219,2.348-5.219,5.216V181.219L73.211,181.219z M28.897,46.357L28.897,46.357c0-12.889,12.39-27.693,23.625-32.035
	c-1.019,3.194-1.78,5.786-1.78,9.08c0,13.261,15.279,22.986,15.279,35.276c0,1.371,0,2.738,0,4.107c0,5.786-3.772,8.659-9,10.679
	c0-8.775,0.232-21.358-10.124-21.358c-8.785,0-11.946,10.203-11.249,18.071c-4.208-3.534-6.75-11.523-6.75-18.071V46.357
	L28.897,46.357z"/>
</svg>
