<?xml version="1.0" encoding="utf-8"?>
<!DOCTYPE svg PUBLIC "-//W3C//DTD SVG 1.1//EN" "http://www.w3.org/Graphics/SVG/1.1/DTD/svg11.dtd">
<svg version="1.1" xmlns="http://www.w3.org/2000/svg" xmlns:xlink="http://www.w3.org/1999/xlink" x="0px" y="0px" width="216px" height="216px" viewBox="0 0 216 216" enable-background="new 0 0 216 216" xml:space="preserve">
<path fill-rule="evenodd" clip-rule="evenodd" d="M16.119-0.08h183.602
	c8.911,0,16.199,7.29,16.199,16.199v183.602c0,8.907-7.288,16.199-16.199,16.199H16.119c-8.909,0-16.199-7.292-16.199-16.199V16.119
	C-0.08,7.209,7.209-0.08,16.119-0.08L16.119-0.08z M16.119,4.918h183.602c6.161,0,11.198,5.04,11.198,11.2v183.602
	c0,6.161-5.037,11.198-11.198,11.198H16.119c-6.161,0-11.2-5.037-11.2-11.198V16.119C4.918,9.958,9.958,4.918,16.119,4.918
	L16.119,4.918z M159.568,78.667h39.437c-0.622,0.653-0.997,1.498-0.997,2.421c0,0.923,0.375,1.77,0.997,2.421h-39.437
	c-1.489,0-2.715-1.088-2.715-2.421C156.854,79.756,158.079,78.667,159.568,78.667L159.568,78.667z M42.968,77.638L42.968,77.638
	c0.712-2.808,0.632-6.319,0.698-9.562v-5.083l4.24,0.334v9.633c0,1.634,0.071,3.528-0.443,5.613L42.968,77.638L42.968,77.638z
	 M143.792,181.219L143.792,181.219h-11.593v-33.813c0-2.868,2.349-5.216,5.217-5.216h1.16c2.868,0,5.216,2.348,5.216,5.216V181.219
	L143.792,181.219z M117.278,111.344L117.278,111.344h-9.041V90.218c0-2.236,1.831-4.067,4.067-4.067h0.905
	c2.237,0,4.068,1.831,4.068,4.067V111.344L117.278,111.344z M81.211,74.92L81.211,74.92c0.584-16.152,13.259-29.228,29.246-30.436
	c0-21.743,0-8.071,0-24.438h3.294c0,15.718,0,3.477,0,24.361c16.711,0.452,30.192,13.845,30.79,30.514H81.211L81.211,74.92z
	 M109.047,131.976L109.047,131.976c4.729-11.556,16.081-19.698,29.338-19.698l0.179,0.005v-33.24h5.221v33.695
	c14.799,2.543,26.099,15.356,26.282,30.844h0.004v0.387v49.076h-63.672v-49.463h0.053c-0.2-14.547-11.697-26.278-25.845-26.278
	c-14.146,0-25.639,11.728-25.842,26.274H54.9v49.638h-5.216v-49.638h0.209c0.201-17.318,13.879-31.3,30.713-31.3
	c0.385,0,0.769,0.011,1.151,0.027V79.042h5.219v33.919C97.011,115.146,105.242,122.381,109.047,131.976L109.047,131.976z"/>
</svg>
