<?xml version="1.0" encoding="utf-8"?>
<!DOCTYPE svg PUBLIC "-//W3C//DTD SVG 1.1//EN" "http://www.w3.org/Graphics/SVG/1.1/DTD/svg11.dtd">
<svg version="1.1" xmlns="http://www.w3.org/2000/svg" xmlns:xlink="http://www.w3.org/1999/xlink" x="0px" y="0px" width="216px" height="216px" viewBox="0 0 216 216" enable-background="new 0 0 216 216" xml:space="preserve">
<path fill-rule="evenodd" clip-rule="evenodd" d="M72.548,142.186L72.548,142.186l-20.724,50.492h13.664
	l9.11-21.973h27.326v10.726h12.999v-10.726h27.327l9.106,21.973h13.668l-20.724-50.492h-13.627l7.356,17.529h-23.107v-17.529
	h-12.999v17.529H79.152l7.353-17.529H72.548L72.548,142.186z M20.766,138.002c58.006,0,115.971,0,173.975,0v-10.986
	c-57.975,0-116,0-173.975,0V138.002L20.766,138.002z M115.256,29.607L115.256,29.607V13.977H101.59v15.631H115.256L115.256,29.607z"
	/>
</svg>
