<?xml version="1.0" encoding="utf-8"?>
<!DOCTYPE svg PUBLIC "-//W3C//DTD SVG 1.1//EN" "http://www.w3.org/Graphics/SVG/1.1/DTD/svg11.dtd">
<svg version="1.1" xmlns="http://www.w3.org/2000/svg" xmlns:xlink="http://www.w3.org/1999/xlink" x="0px" y="0px" width="216px" height="216px" viewBox="0 0 216 216" enable-background="new 0 0 216 216" xml:space="preserve">
<path id="_x33_" fill-rule="evenodd" clip-rule="evenodd" fill="#F58031" d="M29.121,37.086L29.121,37.086h156.753v82.707H29.121
	V37.086L29.121,37.086z M25.542,33.508h163.913v89.866H25.542V33.508L25.542,33.508z M150.853,44.229L150.853,44.229
	c8.602,0,15.58,6.977,15.58,15.578c0,8.602-6.979,15.578-15.58,15.578c-8.603,0-15.581-6.976-15.581-15.578
	C135.271,51.206,142.25,44.229,150.853,44.229L150.853,44.229z"/>
<path id="_x32_" fill-rule="evenodd" clip-rule="evenodd" fill="#999557" d="M16.119-0.08h183.602
	c8.911,0,16.199,7.29,16.199,16.199v183.602c0,8.907-7.288,16.199-16.199,16.199H16.119c-8.909,0-16.199-7.292-16.199-16.199V16.119
	C-0.08,7.209,7.209-0.08,16.119-0.08L16.119-0.08z M16.119,4.918h183.602c6.161,0,11.198,5.04,11.198,11.2v183.602
	c0,6.161-5.037,11.198-11.198,11.198H16.119c-6.161,0-11.2-5.037-11.2-11.198V16.119C4.918,9.958,9.958,4.918,16.119,4.918
	L16.119,4.918z M49.234,114.386L49.234,114.386l52.802-72.506v69.368l34.863-35.176v38.314H49.234L49.234,114.386z"/>
<path id="_x31_" fill-rule="evenodd" clip-rule="evenodd" fill="#7E5628" d="M72.548,142.186L72.548,142.186l-20.724,50.492h13.664
	l9.11-21.973h27.326v10.726h12.999v-10.726h27.327l9.106,21.973h13.668l-20.724-50.492h-13.627l7.356,17.529h-23.107v-17.529
	h-12.999v17.529H79.152l7.353-17.529H72.548L72.548,142.186z M20.766,138.002c58.006,0,115.971,0,173.975,0v-10.986
	c-57.975,0-116,0-173.975,0V138.002L20.766,138.002z M115.256,29.607L115.256,29.607V13.977H101.59v15.631H115.256L115.256,29.607z"
	/>
</svg>
