<?xml version="1.0" encoding="utf-8"?>
<!DOCTYPE svg PUBLIC "-//W3C//DTD SVG 1.1//EN" "http://www.w3.org/Graphics/SVG/1.1/DTD/svg11.dtd">
<svg version="1.1" xmlns="http://www.w3.org/2000/svg" xmlns:xlink="http://www.w3.org/1999/xlink" x="0px" y="0px" width="216px" height="216px" viewBox="0 0 216 216" enable-background="new 0 0 216 216" xml:space="preserve">
<path id="_x33_" fill-rule="evenodd" clip-rule="evenodd" fill="#F58031" d="M167.511,76.853L167.511,76.853h6.799
	c0.566,0,1.03,0.466,1.03,1.033v4.429c0,0.565-0.464,1.029-1.03,1.029h-6.799c-0.565,0-1.029-0.464-1.029-1.029v-4.429
	C166.481,77.319,166.945,76.853,167.511,76.853L167.511,76.853z M167.511,55.053L167.511,55.053h6.799
	c0.566,0,1.03,0.461,1.03,1.029v4.429c0,0.57-0.464,1.029-1.03,1.029h-6.799c-0.565,0-1.029-0.459-1.029-1.029v-4.429
	C166.481,55.515,166.945,55.053,167.511,55.053L167.511,55.053z M167.511,97.458L167.511,97.458h6.799
	c0.566,0,1.03,0.464,1.03,1.031v4.429c0,0.565-0.464,1.029-1.03,1.029h-6.799c-0.565,0-1.029-0.464-1.029-1.029V98.49
	C166.481,97.922,166.945,97.458,167.511,97.458L167.511,97.458z M167.511,119.26L167.511,119.26h6.799c0.566,0,1.03,0.46,1.03,1.03
	v4.431c0,0.565-0.464,1.029-1.03,1.029h-6.799c-0.565,0-1.029-0.464-1.029-1.029v-4.431
	C166.481,119.72,166.945,119.26,167.511,119.26L167.511,119.26z M167.511,141.058L167.511,141.058h6.799
	c0.566,0,1.03,0.464,1.03,1.034v4.427c0,0.569-0.464,1.033-1.03,1.033h-6.799c-0.565,0-1.029-0.464-1.029-1.033v-4.427
	C166.481,141.521,166.945,141.058,167.511,141.058L167.511,141.058z M167.511,161.663L167.511,161.663h6.799
	c0.566,0,1.03,0.464,1.03,1.03v4.431c0,0.565-0.464,1.029-1.03,1.029h-6.799c-0.565,0-1.029-0.464-1.029-1.029v-4.431
	C166.481,162.127,166.945,161.663,167.511,161.663L167.511,161.663z M129.038,139.69L129.038,139.69
	c8.948,0,16.203,7.52,16.203,16.797c0,5.998-3.032,11.255-7.589,14.233l-0.057,31.364l-8.135-7.108l-8.187,7.052v-30.79
	c-5.025-2.856-8.436-8.391-8.436-14.751C112.839,147.21,120.095,139.69,129.038,139.69L129.038,139.69z M129.038,145.192
	L129.038,145.192c5.912,0,10.701,5.058,10.701,11.295c0,6.242-4.789,11.3-10.701,11.3c-5.904,0-10.693-5.058-10.693-11.3
	C118.345,150.25,123.134,145.192,129.038,145.192L129.038,145.192z M122.292,103.863L122.292,103.863c0,0-1.669,0-3.036,0
	c-0.838-3.553-3.854-6.57-6.355-7.833l-0.11-0.191c0.729-7.318,1.563-14.315,2.401-21.718c0.724-3.658,1.884-7.21,3.739-10.228
	c0.944-1.668,1.994-3.874,3.361-5.113C122.482,60.127,122.292,103.863,122.292,103.863L122.292,103.863z M122.292,128.082
	L122.292,128.082c-4.277,0.105-8.773,0-13.266,0c0.106-2.612-1.155-8.346-1.155-8.558c5.029-0.431,9.929-4.712,11.702-8.988h2.719
	V128.082L122.292,128.082z M95.867,128.082L95.867,128.082c0-2.396,0.857-4.708,3.04-6.16c0.834-0.322,1.563-0.835,2.61-0.835
	l0.407,1.241c0.321,1.88,0.535,3.764,0.429,5.754C102.354,128.082,99.957,128.082,95.867,128.082L95.867,128.082z M95.867,146.336
	L95.867,146.336v-11.793c1.99-0.105,3.874,0,5.972,0C100.896,139.035,99.119,142.8,95.867,146.336L95.867,146.336z M92.337,120.037
	L92.337,120.037l-0.429-0.301c-1.668-2.417-4.171-3.658-6.675-4.598c-0.104-0.513,0.409-0.729,0.515-1.266
	c2.61-4.791,5.007-9.798,6.59-15.127c0.407,1.156,4.58,12.22,6.891,16.393c-0.535,0.406-1.264,0.317-1.776,0.724
	C95.46,116.485,93.9,118.369,92.337,120.037L92.337,120.037z M81.683,128.188L81.683,128.188c-0.215-3.336,0.623-5.326,0.94-7.101
	c2.72,0.317,5.115,2.499,5.843,5.111c0.214,0.513,0.214,1.261,0.214,1.884C88.68,128.082,85.233,128.082,81.683,128.188
	L81.683,128.188z M82.517,134.543L82.517,134.543c2.504-0.105,3.766,0,6.055,0l0.108,12.11
	C85.557,142.995,83.567,138.93,82.517,134.543L82.517,134.543z M75.221,128.082L75.221,128.082l-13.373,0.105v-17.651
	c1.156,0,1.67,0,3.147,0c0.94,3.658,3.85,7.104,7.402,8.26c1.347,0.298,2.716,0.619,4.065,0.94
	C75.521,122.328,75.329,125.254,75.221,128.082L75.221,128.082z M61.655,59.295L61.655,59.295c3.34,3.444,5.115,7.723,6.571,12.109
	c0.94,4.492,1.241,8.986,1.882,13.564l1.239,11.275c-3.018,1.349-5.627,4.279-6.567,7.404c0,0-2.289-0.106-3.231,0L61.655,59.295
	L61.655,59.295z M128.542,46.563c0,0-8.456,3.872-12.948,10.653c-0.191,0.195-4.686,7.298-5.944,13.867
	c-1.028,6.59-1.864,12.943-2.698,19.641c-0.321,3.53-0.749,7.082-1.047,10.527c1.967-0.299,4.168,0.107,5.733,1.563
	c1.561,1.583,2.098,3.979,1.455,6.055c-0.834,3.037-4.387,4.064-7.51,4.602c-6.163-9.822-10.012-26.104-9.715-36.955
	c0.43-8.341,0.322-12.215,0.749-20.86c0-3.444,0.517-8.258-0.427-11.811c-1.349-4.386-3.231-6.057-3.744-6.783h-0.108
	c-1.153,1.477-3.038,4.386-3.766,6.592c-1.046,4.578-0.834,7.617-0.513,12.514l0.407,20.136c0.214,5.755-0.301,11.489-1.457,17.114
	c-1.561,7.32-4.492,14.103-8.452,20.369c-1.261-0.211-2.608-0.427-3.87-0.854c-1.778-0.834-3.446-2.588-3.642-4.577
	c-0.425-2.397,0.623-4.708,2.592-6.057c1.367-1.047,3.357-1.155,5.027-0.94l-1.263-11.491c-0.621-5.007-1.048-10.313-1.774-15.232
	c-1.349-11.169-8.345-21.183-17.737-27.346c-0.836-0.193-1.776-0.727-2.502-0.727c0,0,0.104,84.64,0.104,87.98H75.95
	c1.347,8.558,6.16,15.662,13.564,20.992c1.155,0.94,2.718,3.744,2.824,3.634c0.108-0.191,1.563-2.502,2.612-3.527
	c6.975-5.331,12.001-12.842,13.457-21.099c4.494,0,20.136,0,20.136,0C128.542,133.303,128.542,46.563,128.542,46.563L128.542,46.563
	z"/>
<path id="_x32_" fill-rule="evenodd" clip-rule="evenodd" fill="#999557" d="M129.185,149.261L129.185,149.261
	c3.788,0,6.86,3.247,6.86,7.251c0,4-3.072,7.243-6.86,7.243s-6.86-3.243-6.86-7.243
	C122.324,152.508,125.396,149.261,129.185,149.261L129.185,149.261z M167.299,172.365L167.299,172.365h6.8
	c0.569,0,1.033,0.464,1.033,1.029v4.432c0,0.565-0.464,1.029-1.033,1.029h-6.8c-0.565,0-1.029-0.464-1.029-1.029v-4.432
	C166.27,172.829,166.733,172.365,167.299,172.365L167.299,172.365z M167.299,151.36L167.299,151.36h6.8
	c0.569,0,1.033,0.469,1.033,1.034v4.427c0,0.565-0.464,1.033-1.033,1.033h-6.8c-0.565,0-1.029-0.468-1.029-1.033v-4.427
	C166.27,151.829,166.733,151.36,167.299,151.36L167.299,151.36z M167.299,129.559L167.299,129.559h6.8
	c0.569,0,1.033,0.464,1.033,1.029v4.432c0,0.565-0.464,1.033-1.033,1.033h-6.8c-0.565,0-1.029-0.468-1.029-1.033v-4.432
	C166.27,130.022,166.733,129.559,167.299,129.559L167.299,129.559z M167.299,108.958L167.299,108.958h6.8
	c0.569,0,1.033,0.463,1.033,1.032v4.425c0,0.569-0.464,1.033-1.033,1.033h-6.8c-0.565,0-1.029-0.464-1.029-1.033v-4.425
	C166.27,109.421,166.733,108.958,167.299,108.958L167.299,108.958z M167.299,87.156L167.299,87.156h6.8
	c0.569,0,1.033,0.466,1.033,1.031v4.429c0,0.565-0.464,1.032-1.033,1.032h-6.8c-0.565,0-1.029-0.466-1.029-1.032v-4.429
	C166.27,87.622,166.733,87.156,167.299,87.156L167.299,87.156z M167.299,65.354L167.299,65.354h6.8c0.569,0,1.033,0.464,1.033,1.031
	v4.429c0,0.565-0.464,1.029-1.033,1.029h-6.8c-0.565,0-1.029-0.464-1.029-1.029v-4.429C166.27,65.818,166.733,65.354,167.299,65.354
	L167.299,65.354z M167.299,44.75L167.299,44.75h6.8c0.569,0,1.033,0.464,1.033,1.029v4.431c0,0.567-0.464,1.029-1.033,1.029h-6.8
	c-0.565,0-1.029-0.462-1.029-1.029V45.78C166.27,45.214,166.733,44.75,167.299,44.75L167.299,44.75z M16.119-0.08h183.602
	c8.911,0,16.199,7.29,16.199,16.199v183.602c0,8.907-7.288,16.199-16.199,16.199H16.119c-8.909,0-16.199-7.292-16.199-16.199V16.119
	C-0.08,7.209,7.209-0.08,16.119-0.08L16.119-0.08z M16.119,4.918h183.602c6.161,0,11.198,5.04,11.198,11.2v183.602
	c0,6.161-5.037,11.198-11.198,11.198H16.119c-6.161,0-11.2-5.037-11.2-11.198V16.119C4.918,9.958,9.958,4.918,16.119,4.918
	L16.119,4.918z"/>
<path id="_x31_" fill-rule="evenodd" clip-rule="evenodd" fill="#7E5628" d="M142.396,186.948h37.395
	c2.893,0,5.253-2.36,5.253-5.249V42.323c0-2.893-2.36-5.253-5.253-5.253h-13.92l-0.009-5.579h13.929
	c5.957,0,10.832,4.877,10.832,10.832v139.376c0,5.953-4.875,10.828-10.832,10.828h-37.395V186.948L142.396,186.948z M52.888,184.104
	L52.888,184.104c0.875,1.688,2.639,2.844,4.666,2.844h58.695v5.579H57.554c-5.131,0-9.457-3.617-10.56-8.423H52.888L52.888,184.104z
	 M115.932,179.938L115.932,179.938l-0.004-5.579H32.157c-2.891,0-5.251-2.359-5.251-5.249V29.733c0-2.893,2.36-5.253,5.251-5.253
	h117.344c2.894,0,5.253,2.36,5.253,5.253v139.376c0,2.89-2.359,5.249-5.253,5.249l-7.296,0.005l-0.024,5.574h7.32
	c5.953,0,10.828-4.875,10.828-10.828V29.733c0-5.955-4.875-10.832-10.828-10.832H32.157c-5.953,0-10.83,4.876-10.83,10.832v139.376
	c0,5.953,4.876,10.828,10.83,10.828H115.932L115.932,179.938z"/>
</svg>
