<?xml version="1.0" encoding="utf-8"?>
<!DOCTYPE svg PUBLIC "-//W3C//DTD SVG 1.1//EN" "http://www.w3.org/Graphics/SVG/1.1/DTD/svg11.dtd">
<svg version="1.1" xmlns="http://www.w3.org/2000/svg" xmlns:xlink="http://www.w3.org/1999/xlink" x="0px" y="0px" width="216px" height="216px" viewBox="0 0 216 216" enable-background="new 0 0 216 216" xml:space="preserve">
<path fill-rule="evenodd" clip-rule="evenodd" d="M142.396,186.948h37.395
	c2.893,0,5.253-2.36,5.253-5.249V42.323c0-2.893-2.36-5.253-5.253-5.253h-13.92l-0.009-5.579h13.929
	c5.957,0,10.832,4.877,10.832,10.832v139.376c0,5.953-4.875,10.828-10.832,10.828h-37.395V186.948L142.396,186.948z M52.888,184.104
	L52.888,184.104c0.875,1.688,2.639,2.844,4.666,2.844h58.695v5.579H57.554c-5.131,0-9.457-3.617-10.56-8.423H52.888L52.888,184.104z
	 M115.932,179.938L115.932,179.938l-0.004-5.579H32.157c-2.891,0-5.251-2.359-5.251-5.249V29.733c0-2.893,2.36-5.253,5.251-5.253
	h117.344c2.894,0,5.253,2.36,5.253,5.253v139.376c0,2.89-2.359,5.249-5.253,5.249l-7.296,0.005l-0.024,5.574h7.32
	c5.953,0,10.828-4.875,10.828-10.828V29.733c0-5.955-4.875-10.832-10.828-10.832H32.157c-5.953,0-10.83,4.876-10.83,10.832v139.376
	c0,5.953,4.876,10.828,10.83,10.828H115.932L115.932,179.938z"/>
</svg>
