<?xml version="1.0" encoding="utf-8"?>
<!DOCTYPE svg PUBLIC "-//W3C//DTD SVG 1.1//EN" "http://www.w3.org/Graphics/SVG/1.1/DTD/svg11.dtd">
<svg version="1.1" xmlns="http://www.w3.org/2000/svg" xmlns:xlink="http://www.w3.org/1999/xlink" x="0px" y="0px" width="216px" height="216px" viewBox="0 0 216 216" enable-background="new 0 0 216 216" xml:space="preserve">
<path fill-rule="evenodd" clip-rule="evenodd" d="M129.185,149.261L129.185,149.261
	c3.788,0,6.86,3.247,6.86,7.251c0,4-3.072,7.243-6.86,7.243s-6.86-3.243-6.86-7.243
	C122.324,152.508,125.396,149.261,129.185,149.261L129.185,149.261z M167.299,172.365L167.299,172.365h6.8
	c0.569,0,1.033,0.464,1.033,1.029v4.432c0,0.565-0.464,1.029-1.033,1.029h-6.8c-0.565,0-1.029-0.464-1.029-1.029v-4.432
	C166.27,172.829,166.733,172.365,167.299,172.365L167.299,172.365z M167.299,151.36L167.299,151.36h6.8
	c0.569,0,1.033,0.469,1.033,1.034v4.427c0,0.565-0.464,1.033-1.033,1.033h-6.8c-0.565,0-1.029-0.468-1.029-1.033v-4.427
	C166.27,151.829,166.733,151.36,167.299,151.36L167.299,151.36z M167.299,129.559L167.299,129.559h6.8
	c0.569,0,1.033,0.464,1.033,1.029v4.432c0,0.565-0.464,1.033-1.033,1.033h-6.8c-0.565,0-1.029-0.468-1.029-1.033v-4.432
	C166.27,130.022,166.733,129.559,167.299,129.559L167.299,129.559z M167.299,108.958L167.299,108.958h6.8
	c0.569,0,1.033,0.463,1.033,1.032v4.425c0,0.569-0.464,1.033-1.033,1.033h-6.8c-0.565,0-1.029-0.464-1.029-1.033v-4.425
	C166.27,109.421,166.733,108.958,167.299,108.958L167.299,108.958z M167.299,87.156L167.299,87.156h6.8
	c0.569,0,1.033,0.466,1.033,1.031v4.429c0,0.565-0.464,1.032-1.033,1.032h-6.8c-0.565,0-1.029-0.466-1.029-1.032v-4.429
	C166.27,87.622,166.733,87.156,167.299,87.156L167.299,87.156z M167.299,65.354L167.299,65.354h6.8c0.569,0,1.033,0.464,1.033,1.031
	v4.429c0,0.565-0.464,1.029-1.033,1.029h-6.8c-0.565,0-1.029-0.464-1.029-1.029v-4.429C166.27,65.818,166.733,65.354,167.299,65.354
	L167.299,65.354z M167.299,44.75L167.299,44.75h6.8c0.569,0,1.033,0.464,1.033,1.029v4.431c0,0.567-0.464,1.029-1.033,1.029h-6.8
	c-0.565,0-1.029-0.462-1.029-1.029V45.78C166.27,45.214,166.733,44.75,167.299,44.75L167.299,44.75z M16.119-0.08h183.602
	c8.911,0,16.199,7.29,16.199,16.199v183.602c0,8.907-7.288,16.199-16.199,16.199H16.119c-8.909,0-16.199-7.292-16.199-16.199V16.119
	C-0.08,7.209,7.209-0.08,16.119-0.08L16.119-0.08z M16.119,4.918h183.602c6.161,0,11.198,5.04,11.198,11.2v183.602
	c0,6.161-5.037,11.198-11.198,11.198H16.119c-6.161,0-11.2-5.037-11.2-11.198V16.119C4.918,9.958,9.958,4.918,16.119,4.918
	L16.119,4.918z"/>
</svg>
