<?xml version="1.0" encoding="utf-8"?>
<!DOCTYPE svg PUBLIC "-//W3C//DTD SVG 1.1//EN" "http://www.w3.org/Graphics/SVG/1.1/DTD/svg11.dtd">
<svg version="1.1" xmlns="http://www.w3.org/2000/svg" xmlns:xlink="http://www.w3.org/1999/xlink" x="0px" y="0px" width="216px" height="216px" viewBox="0 0 216 216" enable-background="new 0 0 216 216" xml:space="preserve">
<path id="_x33_" fill-rule="evenodd" clip-rule="evenodd" fill="#F58031" d="M197.227,110.566L197.227,110.566
	c-3.886,3.848-4.695,4.646-9.688,9.593c-0.342,0.342-0.907,0.342-1.249,0l-9.688-9.593c-1.298-1.283-1.94-2.97-1.937-4.655
	c0.041-1.924,0.618-2.97,1.245-3.823c0.207-0.283,0.436-0.553,0.691-0.806c2.494-2.468,6.503-2.553,9.123-0.195l1.188,1.068
	l1.191-1.068c2.621-2.358,6.633-2.272,9.123,0.195C199.814,103.843,199.814,108.007,197.227,110.566L197.227,110.566z
	 M148.708,59.755L148.708,59.755l-5.583,5.523c-0.045-0.208-0.102-0.411-0.167-0.616c-0.81-2.543-3.015-4.684-5.196-7.019
	c-1.05-1.127-2.242-2.289-3.206-3.434c-0.973-1.16-2.156-2.238-3.031-3.431c-0.631-0.862-5.082-6.624-5.652-6.954l-0.081-0.047
	c-0.83-0.482-2.214-0.242-2.938,0.502l-0.208,0.212c-0.761,0.785-0.109,1.633,0.175,2.295c0.281,0.667,0.785,1.481,1.168,2.144
	c0.313,0.542,2.405,3.981,2.104,4.293c-0.085,0.087-0.391,0.213-0.521,0.138l-0.122-0.073c-0.379-0.218-2.254-2.171-2.689-2.606
	c-0.439-0.444-0.818-0.881-1.29-1.313c-0.313-0.285-1.001-0.958-1.258-1.288c-0.309-0.393-0.915-0.926-1.298-1.311
	c-0.443-0.441-0.846-0.846-1.281-1.284c-0.57-0.57-2.015-2.148-2.738-2.569l-0.127-0.073c-1.029-0.596-2.819-0.346-3.698,0.559
	c-0.61,0.629-0.734,1.28-0.653,1.817c0.084,0.558,0.57,1.03,1.04,1.528c0.917,0.983,1.803,1.972,2.689,2.971
	c0.875,0.987,1.782,1.978,2.71,2.966c0.468,0.499,0.875,0.985,1.326,1.487c0.24,0.264,0.456,0.496,0.663,0.745
	c0.184,0.211,0.659,0.508,0.391,0.783l-0.064,0.069c-0.106,0.109-0.248,0.191-0.375,0.12c-1.086-0.632-2.327-1.719-3.275-2.461
	c-1.025-0.8-2.042-1.656-3.104-2.454c-1.056-0.798-2.096-1.663-3.137-2.48c-0.955-0.745-2.125-1.789-3.239-2.434
	c-0.905-0.529-2.787-0.183-3.54,0.592l-0.24,0.246c-0.569,0.588-0.527,1.528-0.342,2.012c0.212,0.549,1.188,1.164,1.742,1.694
	c1.196,1.144,2.722,2.186,3.992,3.316c1.275,1.137,2.729,2.189,3.974,3.318c0.618,0.56,1.32,1.113,1.963,1.662
	c0.325,0.279,1.893,1.467,1.652,1.709c-0.028,0.033-0.346,0.188-0.395,0.212c-2.488-1.443-5.245-2.822-7.766-4.285
	c-0.736-0.425-3.205-1.851-3.851-2.034c-1.129-0.321-2.592-0.291-3.532,0.675l-0.069,0.073c-0.565,0.582-0.623,1.146-0.517,1.644
	c0.053,0.252,0.193,0.488,0.366,0.729c0.275,0.38,0.346,0.313,0.729,0.643c0.305,0.265,1.542,1.009,1.918,1.247
	c0.543,0.344,1.564,0.873,1.984,1.237c0.522,0.454,1.465,0.832,2.034,1.261c0.525,0.397,1.333,0.867,1.959,1.241
	c1.312,0.787,2.572,1.658,3.977,2.474c3.671,2.322,10.47,5.868,5.371,6.799c-1.249,0.059-2.466,0.051-3.719,0.106
	c-1.229,0.055-2.503,0.112-3.709,0.124c-1.127,0.012-2.576,0.061-3.709,0.151c-1.208,0.098-2.513-0.049-3.603,1.072
	c-0.895,0.921-0.917,2.335,0.157,2.96l0.208,0.118c0.83,0.484,1.571,0.352,2.354,0.429c0.688,0.067,1.599,0.096,2.319,0.12
	c1.53,0.049,3.07,0.148,4.6,0.234c3.068,0.173,6.169,0.354,9.237,0.454c3.011,0.098,5.525,0.354,8.431-0.037l-20.913,20.705
	c-1.405,1.396-3.7,1.396-5.104,0L64.392,59.755c-5.3-5.247-7.943-12.142-7.929-19.033c0.798,0.923,1.693,1.841,2.58,2.791
	c1.019,1.084,2.175,2.202,3.106,3.308c0.942,1.115,2.087,2.155,2.936,3.304c0.614,0.828,4.923,6.38,5.475,6.698l0.08,0.047
	c0.803,0.464,2.144,0.234,2.844-0.484l0.199-0.204c0.741-0.759,0.11-1.575-0.165-2.211c-0.275-0.643-0.763-1.426-1.133-2.065
	c-0.305-0.523-2.33-3.837-2.039-4.136c0.083-0.083,0.38-0.206,0.504-0.134l0.12,0.071c0.366,0.209,2.183,2.091,2.604,2.51
	c0.429,0.428,0.79,0.851,1.249,1.266c0.303,0.275,0.971,0.922,1.219,1.239c0.301,0.378,0.885,0.891,1.26,1.263
	c0.427,0.425,0.817,0.818,1.239,1.237c0.551,0.55,1.951,2.071,2.651,2.476l0.12,0.069c0.997,0.574,2.734,0.333,3.585-0.537
	c0.592-0.608,0.71-1.235,0.635-1.75c-0.082-0.539-0.554-0.993-1.007-1.475c-0.891-0.946-1.748-1.898-2.606-2.861
	c-0.849-0.952-1.728-1.904-2.625-2.858c-0.454-0.48-0.847-0.948-1.288-1.432c-0.23-0.256-0.439-0.48-0.643-0.716
	c-0.175-0.205-0.637-0.49-0.378-0.757l0.067-0.067c0.102-0.106,0.236-0.185,0.36-0.112c1.052,0.606,2.256,1.654,3.174,2.368
	c0.993,0.771,1.98,1.597,3.005,2.364s2.032,1.604,3.043,2.391c0.922,0.716,2.055,1.721,3.133,2.346
	c0.876,0.507,2.702,0.175,3.43-0.572l0.234-0.238c0.549-0.563,0.511-1.471,0.33-1.937c-0.206-0.531-1.151-1.125-1.687-1.634
	c-1.158-1.103-2.637-2.105-3.866-3.196c-1.237-1.095-2.645-2.108-3.849-3.196c-0.598-0.542-1.278-1.072-1.902-1.601
	c-0.315-0.271-1.831-1.414-1.601-1.646c0.028-0.033,0.333-0.181,0.384-0.204c2.409,1.388,5.078,2.716,7.521,4.126
	c0.712,0.411,3.103,1.782,3.729,1.959c1.095,0.311,2.511,0.283,3.42-0.651l0.067-0.067c0.549-0.562,0.604-1.105,0.502-1.585
	c-0.051-0.242-0.189-0.472-0.356-0.702c-0.267-0.366-0.336-0.301-0.706-0.62c-0.295-0.254-1.494-0.971-1.857-1.203
	c-0.527-0.332-1.516-0.842-1.923-1.19c-0.504-0.438-1.418-0.804-1.969-1.217c-0.507-0.38-1.292-0.834-1.896-1.194
	c-1.273-0.761-2.49-1.599-3.853-2.384c-3.557-2.236-10.138-5.654-5.2-6.549c1.206-0.059,2.384-0.051,3.597-0.104
	c1.192-0.053,2.425-0.106,3.597-0.118c1.09-0.012,2.492-0.059,3.591-0.146c1.17-0.094,2.436,0.047,3.489-1.031
	c0.867-0.889,0.889-2.252-0.15-2.853l-0.2-0.116c-0.806-0.464-1.526-0.34-2.283-0.413c-0.667-0.063-1.55-0.093-2.246-0.116
	c-1.481-0.047-2.974-0.14-4.456-0.224c-2.972-0.167-5.973-0.342-8.943-0.438c-3.16-0.102-5.756-0.385-8.879,0.142
	c-1.379,0.232-2.844,0.657-4.276,1.347c0.838-1.156,1.782-2.258,2.83-3.296c10.191-10.089,26.573-10.443,37.301-0.795l4.856,4.37
	l4.858-4.37c10.726-9.648,27.111-9.294,37.301,0.795C159.279,32.267,159.279,49.292,148.708,59.755L148.708,59.755z M37.599,110.564
	L37.599,110.564c-3.888,3.85-4.698,4.647-9.688,9.591c-0.346,0.346-0.907,0.346-1.251,0l-9.688-9.591
	c-1.296-1.281-1.943-2.968-1.939-4.655c0.042-1.922,0.621-2.968,1.247-3.821c0.206-0.283,0.438-0.553,0.692-0.808
	c2.492-2.466,6.5-2.551,9.125-0.193l1.188,1.068l1.188-1.068c2.625-2.358,6.635-2.272,9.127,0.193
	C40.183,103.841,40.183,108.005,37.599,110.564L37.599,110.564z"/>
<path id="_x32_" fill-rule="evenodd" clip-rule="evenodd" fill="#999557" d="M16.119-0.08h183.602
	c8.911,0,16.199,7.29,16.199,16.199v183.602c0,8.907-7.288,16.199-16.199,16.199H16.119c-8.909,0-16.199-7.292-16.199-16.199V16.119
	C-0.08,7.209,7.209-0.08,16.119-0.08L16.119-0.08z M16.119,4.918h183.602c6.161,0,11.198,5.04,11.198,11.2v183.602
	c0,6.161-5.037,11.198-11.198,11.198H16.119c-6.161,0-11.2-5.037-11.2-11.198V16.119C4.918,9.958,9.958,4.918,16.119,4.918
	L16.119,4.918z M188.682,80.425L188.682,80.425c-6.222,6.163-7.52,7.446-15.52,15.365c-0.549,0.547-1.448,0.547-2.002,0
	l-15.519-15.365c-2.075-2.055-3.109-4.758-3.104-7.458c0.068-3.078,0.996-4.754,1.997-6.12c0.326-0.454,0.7-0.887,1.107-1.292
	c3.991-3.953,10.416-4.091,14.615-0.311l1.904,1.713l1.904-1.713c4.204-3.78,10.625-3.642,14.616,0.311
	C192.824,69.655,192.824,76.326,188.682,80.425L188.682,80.425z M61.562,80.425L61.562,80.425
	c-6.224,6.163-7.521,7.449-15.52,15.365c-0.551,0.547-1.448,0.547-2.002,0L28.523,80.425c-2.077-2.055-3.113-4.758-3.106-7.457
	c0.067-3.08,0.995-4.756,1.996-6.122c0.33-0.454,0.698-0.885,1.111-1.292c3.994-3.953,10.413-4.091,14.614-0.311l1.904,1.713
	l1.904-1.713c4.204-3.78,10.625-3.642,14.616,0.311C65.704,69.657,65.704,76.326,61.562,80.425L61.562,80.425z"/>
<path id="_x31_" fill-rule="evenodd" clip-rule="evenodd" fill="#7E5628" d="M154.063,125.624c-4.875,0-8.826-3.946-8.826-8.817
	c0-4.875,3.951-8.826,8.826-8.826c4.866,0,8.821,3.951,8.821,8.826C162.884,121.678,158.929,125.624,154.063,125.624
	L154.063,125.624z M107.143,125.624L107.143,125.624c-4.871,0-8.822-3.946-8.822-8.817c0-4.875,3.951-8.826,8.822-8.826
	c4.871,0,8.821,3.951,8.821,8.826C115.964,121.678,112.014,125.624,107.143,125.624L107.143,125.624z M129.722,149.058
	L129.722,149.058l-14.063-18.774c-0.065-0.09-0.139-0.175-0.216-0.256c-0.451-0.717-1.249-1.197-2.152-1.197h-1.365
	c-0.808,1.025-2.678,1.742-4.85,1.742c-2.175,0-4.039-0.717-4.851-1.742h-1.365c-0.743,0-1.408,0.326-1.876,0.835
	c-0.244,0.162-0.466,0.37-0.653,0.618L84.34,148.973l-13.991-18.689c-0.312-0.415-0.73-0.721-1.188-0.891
	c-0.433-0.351-0.984-0.563-1.583-0.563H55.146c-0.496,0-0.96,0.146-1.355,0.396c-0.797-0.005-1.591,0.37-2.11,1.058L35.601,151.76
	c-0.836,1.119-0.541,2.73,0.596,3.54c1.137,0.813,2.704,0.524,3.542-0.59l12.87-17.188v7.487v10.16v33.948
	c0,1.839,1.502,3.345,3.341,3.345c1.837,0,3.341-1.506,3.341-3.345v-31.413h4.276v31.413c0,1.839,1.503,3.345,3.341,3.345
	c1.839,0,3.343-1.506,3.343-3.345v-44.108c0-0.325-0.047-0.639-0.132-0.932v-5.628l11.947,15.959
	c0.183,0.346,0.445,0.655,0.781,0.892c0.456,0.325,0.977,0.476,1.493,0.468c0.517,0.008,1.04-0.143,1.493-0.468
	c0.336-0.236,0.601-0.546,0.781-0.892l11.707-15.637v2.226l-5.326,17.244c-0.413,1.335,1.144,2.511,2.541,2.539l2.651,0.049v28.288
	c0,1.839,1.506,3.345,3.343,3.345c1.839,0,3.341-1.506,3.341-3.345v-28.166l4.276,0.082v28.084c0,1.839,1.504,3.345,3.343,3.345
	s3.341-1.506,3.341-3.345v-27.962l1.339,0.028c1.396,0.024,2.84-1.181,2.539-2.543l-3.878-17.51v-2.148l11.775,15.728
	c0.509,0.684,1.294,1.054,2.088,1.058h0.053c0.793-0.004,1.574-0.374,2.088-1.058l12.87-17.188v7.487v10.16v33.948
	c0,1.839,1.501,3.345,3.341,3.345c1.839,0,3.34-1.506,3.34-3.345v-31.413h4.281v31.413c0,1.839,1.501,3.345,3.336,3.345
	c1.84,0,3.345-1.506,3.345-3.345v-44.108c0-0.325-0.044-0.639-0.134-0.932v-5.628l12.175,16.261c0.838,1.114,2.404,1.403,3.54,0.59
	c1.143-0.81,1.436-2.421,0.598-3.54l-16.081-21.477c-0.313-0.415-0.732-0.721-1.188-0.891c-0.436-0.351-0.985-0.563-1.583-0.563
	h-12.431c-0.497,0-0.961,0.146-1.352,0.396c-0.806-0.005-1.595,0.37-2.111,1.058L129.722,149.058L129.722,149.058z M61.163,125.624
	L61.163,125.624c-4.873,0-8.824-3.946-8.824-8.817c0-4.875,3.951-8.826,8.824-8.826c4.871,0,8.822,3.951,8.822,8.826
	C69.984,121.678,66.033,125.624,61.163,125.624L61.163,125.624z"/>
</svg>
