<?xml version="1.0" encoding="utf-8"?>
<!DOCTYPE svg PUBLIC "-//W3C//DTD SVG 1.1//EN" "http://www.w3.org/Graphics/SVG/1.1/DTD/svg11.dtd">
<svg version="1.1" xmlns="http://www.w3.org/2000/svg" xmlns:xlink="http://www.w3.org/1999/xlink" x="0px" y="0px" width="216px" height="216px" viewBox="0 0 216 216" enable-background="new 0 0 216 216" xml:space="preserve">
<path fill-rule="evenodd" clip-rule="evenodd" d="M154.063,125.624c-4.875,0-8.826-3.946-8.826-8.817
	c0-4.875,3.951-8.826,8.826-8.826c4.866,0,8.821,3.951,8.821,8.826C162.884,121.678,158.929,125.624,154.063,125.624
	L154.063,125.624z M107.143,125.624L107.143,125.624c-4.871,0-8.822-3.946-8.822-8.817c0-4.875,3.951-8.826,8.822-8.826
	c4.871,0,8.821,3.951,8.821,8.826C115.964,121.678,112.014,125.624,107.143,125.624L107.143,125.624z M129.722,149.058
	L129.722,149.058l-14.063-18.774c-0.065-0.09-0.139-0.175-0.216-0.256c-0.451-0.717-1.249-1.197-2.152-1.197h-1.365
	c-0.808,1.025-2.678,1.742-4.85,1.742c-2.175,0-4.039-0.717-4.851-1.742h-1.365c-0.743,0-1.408,0.326-1.876,0.835
	c-0.244,0.162-0.466,0.37-0.653,0.618L84.34,148.973l-13.991-18.689c-0.312-0.415-0.73-0.721-1.188-0.891
	c-0.433-0.351-0.984-0.563-1.583-0.563H55.146c-0.496,0-0.96,0.146-1.355,0.396c-0.797-0.005-1.591,0.37-2.11,1.058L35.601,151.76
	c-0.836,1.119-0.541,2.73,0.596,3.54c1.137,0.813,2.704,0.524,3.542-0.59l12.87-17.188v7.487v10.16v33.948
	c0,1.839,1.502,3.345,3.341,3.345c1.837,0,3.341-1.506,3.341-3.345v-31.413h4.276v31.413c0,1.839,1.503,3.345,3.341,3.345
	c1.839,0,3.343-1.506,3.343-3.345v-44.108c0-0.325-0.047-0.639-0.132-0.932v-5.628l11.947,15.959
	c0.183,0.346,0.445,0.655,0.781,0.892c0.456,0.325,0.977,0.476,1.493,0.468c0.517,0.008,1.04-0.143,1.493-0.468
	c0.336-0.236,0.601-0.546,0.781-0.892l11.707-15.637v2.226l-5.326,17.244c-0.413,1.335,1.144,2.511,2.541,2.539l2.651,0.049v28.288
	c0,1.839,1.506,3.345,3.343,3.345c1.839,0,3.341-1.506,3.341-3.345v-28.166l4.276,0.082v28.084c0,1.839,1.504,3.345,3.343,3.345
	s3.341-1.506,3.341-3.345v-27.962l1.339,0.028c1.396,0.024,2.84-1.181,2.539-2.543l-3.878-17.51v-2.148l11.775,15.728
	c0.509,0.684,1.294,1.054,2.088,1.058h0.053c0.793-0.004,1.574-0.374,2.088-1.058l12.87-17.188v7.487v10.16v33.948
	c0,1.839,1.501,3.345,3.341,3.345c1.839,0,3.34-1.506,3.34-3.345v-31.413h4.281v31.413c0,1.839,1.501,3.345,3.336,3.345
	c1.84,0,3.345-1.506,3.345-3.345v-44.108c0-0.325-0.044-0.639-0.134-0.932v-5.628l12.175,16.261c0.838,1.114,2.404,1.403,3.54,0.59
	c1.143-0.81,1.436-2.421,0.598-3.54l-16.081-21.477c-0.313-0.415-0.732-0.721-1.188-0.891c-0.436-0.351-0.985-0.563-1.583-0.563
	h-12.431c-0.497,0-0.961,0.146-1.352,0.396c-0.806-0.005-1.595,0.37-2.111,1.058L129.722,149.058L129.722,149.058z M61.163,125.624
	L61.163,125.624c-4.873,0-8.824-3.946-8.824-8.817c0-4.875,3.951-8.826,8.824-8.826c4.871,0,8.822,3.951,8.822,8.826
	C69.984,121.678,66.033,125.624,61.163,125.624L61.163,125.624z"/>
</svg>
