<?xml version="1.0" encoding="utf-8"?>
<!DOCTYPE svg PUBLIC "-//W3C//DTD SVG 1.1//EN" "http://www.w3.org/Graphics/SVG/1.1/DTD/svg11.dtd">
<svg version="1.1" xmlns="http://www.w3.org/2000/svg" xmlns:xlink="http://www.w3.org/1999/xlink" x="0px" y="0px" width="216px" height="216px" viewBox="0 0 216 216" enable-background="new 0 0 216 216" xml:space="preserve">
<path fill-rule="evenodd" clip-rule="evenodd" d="M16.119-0.08h183.602
	c8.911,0,16.199,7.29,16.199,16.199v183.602c0,8.907-7.288,16.199-16.199,16.199H16.119c-8.909,0-16.199-7.292-16.199-16.199V16.119
	C-0.08,7.209,7.209-0.08,16.119-0.08L16.119-0.08z M16.119,4.918h183.602c6.161,0,11.198,5.04,11.198,11.2v183.602
	c0,6.161-5.037,11.198-11.198,11.198H16.119c-6.161,0-11.2-5.037-11.2-11.198V16.119C4.918,9.958,9.958,4.918,16.119,4.918
	L16.119,4.918z M188.682,80.425L188.682,80.425c-6.222,6.163-7.52,7.446-15.52,15.365c-0.549,0.547-1.448,0.547-2.002,0
	l-15.519-15.365c-2.075-2.055-3.109-4.758-3.104-7.458c0.068-3.078,0.996-4.754,1.997-6.12c0.326-0.454,0.7-0.887,1.107-1.292
	c3.991-3.953,10.416-4.091,14.615-0.311l1.904,1.713l1.904-1.713c4.204-3.78,10.625-3.642,14.616,0.311
	C192.824,69.655,192.824,76.326,188.682,80.425L188.682,80.425z M61.562,80.425L61.562,80.425
	c-6.224,6.163-7.521,7.449-15.52,15.365c-0.551,0.547-1.448,0.547-2.002,0L28.523,80.425c-2.077-2.055-3.113-4.758-3.106-7.457
	c0.067-3.08,0.995-4.756,1.996-6.122c0.33-0.454,0.698-0.885,1.111-1.292c3.994-3.953,10.413-4.091,14.614-0.311l1.904,1.713
	l1.904-1.713c4.204-3.78,10.625-3.642,14.616,0.311C65.704,69.657,65.704,76.326,61.562,80.425L61.562,80.425z"/>
</svg>
