<?xml version="1.0" encoding="utf-8"?>
<!DOCTYPE svg PUBLIC "-//W3C//DTD SVG 1.1//EN" "http://www.w3.org/Graphics/SVG/1.1/DTD/svg11.dtd">
<svg version="1.1" xmlns="http://www.w3.org/2000/svg" xmlns:xlink="http://www.w3.org/1999/xlink" x="0px" y="0px" width="216px" height="216px" viewBox="0 0 216 216" enable-background="new 0 0 216 216" xml:space="preserve">
<path d="M36.208,186.135l9.269-9.27l9.501,9.501l9.733-9.732l-9.501-9.502l9.501-9.501l-9.733-9.729
	l-9.501,9.497l-9.731-9.733l-9.731,9.733l9.731,9.732l-9.269,9.27L36.208,186.135L36.208,186.135z M98.425,123.915L98.425,123.915
	l9.731-9.729l9.501,9.497l9.965-9.961l-9.501-9.501l9.27-9.269l-9.966-9.965l-9.269,9.269l-9.497-9.501l-9.965,9.965l9.501,9.501
	l-9.733,9.729L98.425,123.915L98.425,123.915z M160.874,186.366L160.874,186.366l9.266-9.269l9.269,9.269l9.965-9.965l-9.269-9.27
	l9.733-9.732l-9.733-9.733l-9.729,9.733l-9.501-9.501l-9.965,9.965l9.501,9.501l-9.27,9.265L160.874,186.366L160.874,186.366z
	 M160.874,61.468L160.874,61.468l9.729-9.731l9.501,9.501l9.501-9.501l-9.501-9.501l9.733-9.731l-9.733-9.735l-9.729,9.735
	l-9.732-9.735l-9.502,9.503l9.733,9.733l-9.733,9.731L160.874,61.468L160.874,61.468z M35.746,61.236L35.746,61.236l9.267-9.267
	l9.501,9.499l9.965-9.967l-9.501-9.497l9.733-9.731l-9.733-9.733l-9.731,9.733l-9.735-9.735l-9.965,9.967l9.735,9.733l-9.267,9.265
	L35.746,61.236L35.746,61.236z"/>
</svg>
