<?xml version="1.0" encoding="utf-8"?>
<!DOCTYPE svg PUBLIC "-//W3C//DTD SVG 1.1//EN" "http://www.w3.org/Graphics/SVG/1.1/DTD/svg11.dtd">
<svg version="1.1" xmlns="http://www.w3.org/2000/svg" xmlns:xlink="http://www.w3.org/1999/xlink" x="0px" y="0px" width="216px" height="216px" viewBox="0 0 216 216" enable-background="new 0 0 216 216" xml:space="preserve">
<path id="_x33_" fill="#F58031" d="M79.424,190.883l28.731-28.731l28.967,28.964l-0.231-48.197l-18.771-18.771l-10.195,10.196
	l-9.965-9.965l-18.769,18.771L79.424,190.883L79.424,190.883z M98.195,84.291L98.195,84.291l9.731-9.729l9.963,9.961l18.539-18.537
	V18.019l-28.734,28.735L78.729,17.789l0.232,47.272L98.195,84.291L98.195,84.291z"/>
<path id="_x32_" fill-rule="evenodd" clip-rule="evenodd" fill="#999557" d="M16.119-0.08h183.602
	c8.911,0,16.199,7.29,16.199,16.199v183.602c0,8.907-7.288,16.199-16.199,16.199H16.119c-8.909,0-16.199-7.292-16.199-16.199V16.119
	C-0.08,7.209,7.209-0.08,16.119-0.08L16.119-0.08z M16.119,4.918h183.602c6.161,0,11.198,5.04,11.198,11.2v183.602
	c0,6.161-5.037,11.198-11.198,11.198H16.119c-6.161,0-11.2-5.037-11.2-11.198V16.119C4.918,9.958,9.958,4.918,16.119,4.918
	L16.119,4.918z M147.316,133.416l47.27,0.232l-28.963-28.963l28.735-28.735h-47.97l-18.535,18.539l9.966,9.965l-9.733,9.733
	L147.316,133.416L147.316,133.416z M21.494,132.952L21.494,132.952l47.734,0.232l18.771-18.771l-9.965-9.961L88.23,94.256
	L69.459,75.488l-48.198-0.234l28.965,28.967L21.494,132.952L21.494,132.952z"/>
<path id="_x31_" fill="#7E5628" d="M36.208,186.135l9.269-9.27l9.501,9.501l9.733-9.732l-9.501-9.502l9.501-9.501l-9.733-9.729
	l-9.501,9.497l-9.731-9.733l-9.731,9.733l9.731,9.732l-9.269,9.27L36.208,186.135L36.208,186.135z M98.425,123.915L98.425,123.915
	l9.731-9.729l9.501,9.497l9.965-9.961l-9.501-9.501l9.27-9.269l-9.966-9.965l-9.269,9.269l-9.497-9.501l-9.965,9.965l9.501,9.501
	l-9.733,9.729L98.425,123.915L98.425,123.915z M160.874,186.366L160.874,186.366l9.266-9.269l9.269,9.269l9.965-9.965l-9.269-9.27
	l9.733-9.732l-9.733-9.733l-9.729,9.733l-9.501-9.501l-9.965,9.965l9.501,9.501l-9.27,9.265L160.874,186.366L160.874,186.366z
	 M160.874,61.468L160.874,61.468l9.729-9.731l9.501,9.501l9.501-9.501l-9.501-9.501l9.733-9.731l-9.733-9.735l-9.729,9.735
	l-9.732-9.735l-9.502,9.503l9.733,9.733l-9.733,9.731L160.874,61.468L160.874,61.468z M35.746,61.236L35.746,61.236l9.267-9.267
	l9.501,9.499l9.965-9.967l-9.501-9.497l9.733-9.731l-9.733-9.733l-9.731,9.733l-9.735-9.735l-9.965,9.967l9.735,9.733l-9.267,9.265
	L35.746,61.236L35.746,61.236z"/>
</svg>
