<?xml version="1.0" encoding="utf-8"?>
<!DOCTYPE svg PUBLIC "-//W3C//DTD SVG 1.1//EN" "http://www.w3.org/Graphics/SVG/1.1/DTD/svg11.dtd">
<svg version="1.1" xmlns="http://www.w3.org/2000/svg" xmlns:xlink="http://www.w3.org/1999/xlink" x="0px" y="0px" width="216px" height="216px" viewBox="0 0 216 216" enable-background="new 0 0 216 216" xml:space="preserve">
<path fill-rule="evenodd" clip-rule="evenodd" d="M182.843,66.137c0.37,2.461,0.582,4.966,0.627,7.505
	c0.943,53.561-15.638,67.892-60.441,94.34c-6.169,7.683-9.925,12.077-13.621,12.907v-44.251l0.47,0.004
	c2.828,0,5.461-0.215,7.878-0.691c2.417-0.451,4.553-1.013,6.408-1.66c1.859-0.671,3.414-1.339,4.667-2.071
	c1.229-0.716,2.137-1.343,2.674-1.899c0.562-0.542,0.952-1.339,1.168-2.353c0.236-1.037,0.346-2.526,0.346-4.472
	c0-1.314-0.045-2.396-0.109-3.279c-0.086-0.883-0.236-1.62-0.411-2.157c-0.191-0.541-0.452-0.932-0.777-1.168
	c-0.297-0.235-0.667-0.346-1.099-0.346c-0.582,0-1.424,0.346-2.507,1.038c-1.058,0.688-2.438,1.469-4.143,2.307
	c-1.685,0.843-3.69,1.62-6.021,2.312c-2.356,0.691-5.05,1.038-8.139,1.038l-0.404-0.005v-20.697h24.624
	c0.414,0,0.752-0.456,0.752-1.011v-4.032c0-0.556-0.338-1.011-0.752-1.011h-24.624v-5.28h24.624c0.414,0,0.752-0.456,0.752-1.011
	v-4.031c0-0.555-0.338-1.011-0.752-1.011h-4.281c0.131-0.28,0.252-0.565,0.37-0.854c1.018-2.459,1.514-5.375,1.514-8.805
	c0-3.908-0.732-7.363-2.181-10.341c-1.444-2.956-3.41-5.438-5.892-7.381c-2.462-1.963-5.376-3.432-8.725-4.405
	c-1.749-0.508-3.561-0.881-5.43-1.121V29.762h37.368C148.061,48.166,157.366,63.206,182.843,66.137L182.843,66.137z M109.407,81.839
	L109.407,81.839c1.599-1.015,2.891-2.175,3.859-3.457c0.988-1.337,1.489-2.914,1.489-4.726c0-1.208-0.236-2.376-0.672-3.475
	c-0.451-1.101-1.118-2.032-2.026-2.808c-0.74-0.631-1.619-1.164-2.65-1.573V81.839L109.407,81.839z"/>
</svg>
