<?xml version="1.0" encoding="utf-8"?>
<!DOCTYPE svg PUBLIC "-//W3C//DTD SVG 1.1//EN" "http://www.w3.org/Graphics/SVG/1.1/DTD/svg11.dtd">
<svg version="1.1" xmlns="http://www.w3.org/2000/svg" xmlns:xlink="http://www.w3.org/1999/xlink" x="0px" y="0px" width="216px" height="216px" viewBox="0 0 216 216" enable-background="new 0 0 216 216" xml:space="preserve">
<path fill-rule="evenodd" clip-rule="evenodd" d="M131.012,177.166
	c-5.692,7.134-12.447,15.401-22.113,15.821c-10.185,0.451-17.763-7.976-23.942-15.174c-46.71-30.604-60.199-45.459-62.628-103.67
	l-0.004-0.09c-0.134-3.947,0.083-7.898,0.651-11.804l1.127-7.743l7.542-2.075c11.989-3.298,21.173-10.559,22.077-23.507L54.5,17.789
	h103.437l0.781,11.135c1.127,16.188,9.302,23.458,25.492,25.319l9.106,1.05l1.363,9.062c0.451,3.007,0.704,6.041,0.757,9.076
	C196.458,131.309,177.598,149.489,131.012,177.166L131.012,177.166z M127.016,172.581L127.016,172.581
	c-2.56,3.193-5.273,6.575-8.211,9.354c-2.849,2.693-6.124,4.898-10.169,5.074c-4.048,0.179-7.548-1.771-10.569-4.272
	c-3.27-2.719-6.321-6.206-9.117-9.465c-45.667-29.854-58.287-42.912-60.643-99.382l-0.002-0.041
	c-0.122-3.589,0.073-7.186,0.592-10.74l0.563-3.872l3.77-1.038c14.498-3.987,25.376-13.32,26.461-28.857l0.391-5.57h92.275
	l0.387,5.57c1.335,19.092,11.69,28.652,30.778,30.848l4.558,0.525l0.679,4.531c0.415,2.745,0.647,5.518,0.696,8.291
	C190.439,129.449,172.397,145.713,127.016,172.581L127.016,172.581z"/>
</svg>
