<?xml version="1.0" encoding="utf-8"?>
<!DOCTYPE svg PUBLIC "-//W3C//DTD SVG 1.1//EN" "http://www.w3.org/Graphics/SVG/1.1/DTD/svg11.dtd">
<svg version="1.1" xmlns="http://www.w3.org/2000/svg" xmlns:xlink="http://www.w3.org/1999/xlink" x="0px" y="0px" width="216px" height="216px" viewBox="0 0 216 216" enable-background="new 0 0 216 216" xml:space="preserve">
<path fill-rule="evenodd" clip-rule="evenodd" d="M16.119-0.08h183.602
	c8.911,0,16.199,7.29,16.199,16.199v183.602c0,8.907-7.288,16.199-16.199,16.199H16.119c-8.909,0-16.199-7.292-16.199-16.199V16.119
	C-0.08,7.209,7.209-0.08,16.119-0.08L16.119-0.08z M16.119,4.918h183.602c6.161,0,11.198,5.04,11.198,11.2v183.602
	c0,6.161-5.037,11.198-11.198,11.198H16.119c-6.161,0-11.2-5.037-11.2-11.198V16.119C4.918,9.958,9.958,4.918,16.119,4.918
	L16.119,4.918z M105.071,180.268c-3.143-1.522-6.803-5.327-12.136-11.54c-45.17-29.484-56.386-40.869-58.649-95.085
	c-0.112-3.288,0.073-6.517,0.533-9.67c19.812-5.45,29.753-18.625,30.843-34.21h39.408v22.166c-0.297-0.004-0.594-0.01-0.895-0.01
	c-1.92,0-3.861,0.132-5.807,0.433c-1.941,0.303-3.755,0.69-5.438,1.208c-1.685,0.495-3.174,1.079-4.49,1.705
	s-2.181,1.164-2.59,1.577c-0.432,0.429-0.712,0.775-0.865,1.079c-0.15,0.301-0.258,0.691-0.366,1.167
	c-0.106,0.495-0.195,1.101-0.238,1.831c-0.021,0.737-0.041,1.665-0.041,2.765c0,1.21,0.021,2.246,0.083,3.086
	c0.067,0.842,0.173,1.534,0.326,2.093c0.13,0.539,0.346,0.95,0.626,1.188c0.281,0.258,0.647,0.388,1.099,0.388
	c0.476,0,1.208-0.301,2.226-0.885c1.013-0.582,2.244-1.231,3.733-1.923c1.469-0.712,3.174-1.336,5.117-1.9
	c1.941-0.582,4.057-0.861,6.389-0.861c0.389,0,0.765,0.01,1.131,0.028v19.275c-0.472,0.22-0.956,0.434-1.455,0.639l-0.775,0.337
	H75.396c-0.413,0-0.752,0.456-0.752,1.011v4.031c0,0.555,0.34,1.011,0.752,1.011h29.675v5.28H75.396
	c-0.413,0-0.752,0.456-0.752,1.011v4.032c0,0.556,0.34,1.011,0.752,1.011h5.526c-0.893,2.337-1.331,5.036-1.331,8.116
	c0,4.293,0.797,8.073,2.395,11.332c1.599,3.239,3.78,5.957,6.521,8.118c2.741,2.177,5.937,3.8,9.605,4.898
	c2.226,0.668,4.547,1.132,6.96,1.388V180.268L105.071,180.268z M105.071,122.715L105.071,122.715c-0.238-0.057-0.47-0.122-0.7-0.191
	c-1.597-0.492-2.956-1.184-4.079-2.071c-1.101-0.883-1.963-1.961-2.547-3.279c-0.604-1.318-0.885-2.763-0.885-4.362
	c0-1.855,0.496-3.452,1.509-4.769c1.018-1.337,2.332-2.527,3.951-3.542c0.854-0.545,1.774-1.072,2.75-1.581V122.715L105.071,122.715
	z"/>
</svg>
