<?xml version="1.0" encoding="utf-8"?>
<!DOCTYPE svg PUBLIC "-//W3C//DTD SVG 1.1//EN" "http://www.w3.org/Graphics/SVG/1.1/DTD/svg11.dtd">
<svg version="1.1" xmlns="http://www.w3.org/2000/svg" xmlns:xlink="http://www.w3.org/1999/xlink" x="0px" y="0px" width="216px" height="216px" viewBox="0 0 216 216" enable-background="new 0 0 216 216" xml:space="preserve">
<path id="_x33_" fill-rule="evenodd" clip-rule="evenodd" fill="#F58031" d="M182.843,66.137c0.37,2.461,0.582,4.966,0.627,7.505
	c0.943,53.561-15.638,67.892-60.441,94.34c-6.169,7.683-9.925,12.077-13.621,12.907v-44.251l0.47,0.004
	c2.828,0,5.461-0.215,7.878-0.691c2.417-0.451,4.553-1.013,6.408-1.66c1.859-0.671,3.414-1.339,4.667-2.071
	c1.229-0.716,2.137-1.343,2.674-1.899c0.562-0.542,0.952-1.339,1.168-2.353c0.236-1.037,0.346-2.526,0.346-4.472
	c0-1.314-0.045-2.396-0.109-3.279c-0.086-0.883-0.236-1.62-0.411-2.157c-0.191-0.541-0.452-0.932-0.777-1.168
	c-0.297-0.235-0.667-0.346-1.099-0.346c-0.582,0-1.424,0.346-2.507,1.038c-1.058,0.688-2.438,1.469-4.143,2.307
	c-1.685,0.843-3.69,1.62-6.021,2.312c-2.356,0.691-5.05,1.038-8.139,1.038l-0.404-0.005v-20.697h24.624
	c0.414,0,0.752-0.456,0.752-1.011v-4.032c0-0.556-0.338-1.011-0.752-1.011h-24.624v-5.28h24.624c0.414,0,0.752-0.456,0.752-1.011
	v-4.031c0-0.555-0.338-1.011-0.752-1.011h-4.281c0.131-0.28,0.252-0.565,0.37-0.854c1.018-2.459,1.514-5.375,1.514-8.805
	c0-3.908-0.732-7.363-2.181-10.341c-1.444-2.956-3.41-5.438-5.892-7.381c-2.462-1.963-5.376-3.432-8.725-4.405
	c-1.749-0.508-3.561-0.881-5.43-1.121V29.762h37.368C148.061,48.166,157.366,63.206,182.843,66.137L182.843,66.137z M109.407,81.839
	L109.407,81.839c1.599-1.015,2.891-2.175,3.859-3.457c0.988-1.337,1.489-2.914,1.489-4.726c0-1.208-0.236-2.376-0.672-3.475
	c-0.451-1.101-1.118-2.032-2.026-2.808c-0.74-0.631-1.619-1.164-2.65-1.573V81.839L109.407,81.839z"/>
<path id="_x32_" fill-rule="evenodd" clip-rule="evenodd" fill="#999557" d="M16.119-0.08h183.602
	c8.911,0,16.199,7.29,16.199,16.199v183.602c0,8.907-7.288,16.199-16.199,16.199H16.119c-8.909,0-16.199-7.292-16.199-16.199V16.119
	C-0.08,7.209,7.209-0.08,16.119-0.08L16.119-0.08z M16.119,4.918h183.602c6.161,0,11.198,5.04,11.198,11.2v183.602
	c0,6.161-5.037,11.198-11.198,11.198H16.119c-6.161,0-11.2-5.037-11.2-11.198V16.119C4.918,9.958,9.958,4.918,16.119,4.918
	L16.119,4.918z M105.071,180.268c-3.143-1.522-6.803-5.327-12.136-11.54c-45.17-29.484-56.386-40.869-58.649-95.085
	c-0.112-3.288,0.073-6.517,0.533-9.67c19.812-5.45,29.753-18.625,30.843-34.21h39.408v22.166c-0.297-0.004-0.594-0.01-0.895-0.01
	c-1.92,0-3.861,0.132-5.807,0.433c-1.941,0.303-3.755,0.69-5.438,1.208c-1.685,0.495-3.174,1.079-4.49,1.705
	s-2.181,1.164-2.59,1.577c-0.432,0.429-0.712,0.775-0.865,1.079c-0.15,0.301-0.258,0.691-0.366,1.167
	c-0.106,0.495-0.195,1.101-0.238,1.831c-0.021,0.737-0.041,1.665-0.041,2.765c0,1.21,0.021,2.246,0.083,3.086
	c0.067,0.842,0.173,1.534,0.326,2.093c0.13,0.539,0.346,0.95,0.626,1.188c0.281,0.258,0.647,0.388,1.099,0.388
	c0.476,0,1.208-0.301,2.226-0.885c1.013-0.582,2.244-1.231,3.733-1.923c1.469-0.712,3.174-1.336,5.117-1.9
	c1.941-0.582,4.057-0.861,6.389-0.861c0.389,0,0.765,0.01,1.131,0.028v19.275c-0.472,0.22-0.956,0.434-1.455,0.639l-0.775,0.337
	H75.396c-0.413,0-0.752,0.456-0.752,1.011v4.031c0,0.555,0.34,1.011,0.752,1.011h29.675v5.28H75.396
	c-0.413,0-0.752,0.456-0.752,1.011v4.032c0,0.556,0.34,1.011,0.752,1.011h5.526c-0.893,2.337-1.331,5.036-1.331,8.116
	c0,4.293,0.797,8.073,2.395,11.332c1.599,3.239,3.78,5.957,6.521,8.118c2.741,2.177,5.937,3.8,9.605,4.898
	c2.226,0.668,4.547,1.132,6.96,1.388V180.268L105.071,180.268z M105.071,122.715L105.071,122.715c-0.238-0.057-0.47-0.122-0.7-0.191
	c-1.597-0.492-2.956-1.184-4.079-2.071c-1.101-0.883-1.963-1.961-2.547-3.279c-0.604-1.318-0.885-2.763-0.885-4.362
	c0-1.855,0.496-3.452,1.509-4.769c1.018-1.337,2.332-2.527,3.951-3.542c0.854-0.545,1.774-1.072,2.75-1.581V122.715L105.071,122.715
	z"/>
<path id="_x31_" fill-rule="evenodd" clip-rule="evenodd" fill="#7E5628" d="M131.012,177.166
	c-5.692,7.134-12.447,15.401-22.113,15.821c-10.185,0.451-17.763-7.976-23.942-15.174c-46.71-30.604-60.199-45.459-62.628-103.67
	l-0.004-0.09c-0.134-3.947,0.083-7.898,0.651-11.804l1.127-7.743l7.542-2.075c11.989-3.298,21.173-10.559,22.077-23.507L54.5,17.789
	h103.437l0.781,11.135c1.127,16.188,9.302,23.458,25.492,25.319l9.106,1.05l1.363,9.062c0.451,3.007,0.704,6.041,0.757,9.076
	C196.458,131.309,177.598,149.489,131.012,177.166L131.012,177.166z M127.016,172.581L127.016,172.581
	c-2.56,3.193-5.273,6.575-8.211,9.354c-2.849,2.693-6.124,4.898-10.169,5.074c-4.048,0.179-7.548-1.771-10.569-4.272
	c-3.27-2.719-6.321-6.206-9.117-9.465c-45.667-29.854-58.287-42.912-60.643-99.382l-0.002-0.041
	c-0.122-3.589,0.073-7.186,0.592-10.74l0.563-3.872l3.77-1.038c14.498-3.987,25.376-13.32,26.461-28.857l0.391-5.57h92.275
	l0.387,5.57c1.335,19.092,11.69,28.652,30.778,30.848l4.558,0.525l0.679,4.531c0.415,2.745,0.647,5.518,0.696,8.291
	C190.439,129.449,172.397,145.713,127.016,172.581L127.016,172.581z"/>
</svg>
