<?xml version="1.0" encoding="utf-8"?>
<!DOCTYPE svg PUBLIC "-//W3C//DTD SVG 1.1//EN" "http://www.w3.org/Graphics/SVG/1.1/DTD/svg11.dtd">
<svg version="1.1" xmlns="http://www.w3.org/2000/svg" xmlns:xlink="http://www.w3.org/1999/xlink" x="0px" y="0px" width="216px" height="216px" viewBox="0 0 216 216" enable-background="new 0 0 216 216" xml:space="preserve">
<path fill-rule="evenodd" clip-rule="evenodd" d="M100.872,23.363
	c17.065,3.064,28.427,19.387,25.366,36.453c-3.06,17.072-19.385,28.43-36.452,25.366c-17.067-3.056-28.428-19.381-25.368-36.45
	C67.48,31.664,83.803,20.304,100.872,23.363L100.872,23.363z M30.763,50.192L30.763,50.192c-2.631-8.431-3.974-19.15-13.902-23.145
	l-0.092-3.595c12.671,2.923,18.481,11.175,23,23.059c0.405,2.167,7.448,15.698,18.766,26.599c-3.985-7.776-5.556-16.87-3.894-26.133
	c4.028-22.465,25.517-37.418,47.982-33.39c22.467,4.028,37.421,25.517,33.389,47.982c-0.708,3.947-1.953,7.662-3.65,11.08
	c10.885-8.895,19.36-21.651,24.435-37.622c1.852-5.821,2.454-10.018,3.153-14.913l42.099,24.064
	c-23.007,7.495-46.831,64.313-111.695,53.573C61.053,92.899,39.534,73.781,30.763,50.192L30.763,50.192z"/>
</svg>
