<?xml version="1.0" encoding="utf-8"?>
<!DOCTYPE svg PUBLIC "-//W3C//DTD SVG 1.1//EN" "http://www.w3.org/Graphics/SVG/1.1/DTD/svg11.dtd">
<svg version="1.1" xmlns="http://www.w3.org/2000/svg" xmlns:xlink="http://www.w3.org/1999/xlink" x="0px" y="0px" width="216px" height="216px" viewBox="0 0 216 216" enable-background="new 0 0 216 216" xml:space="preserve">
<path fill-rule="evenodd" clip-rule="evenodd" d="M16.119-0.08h183.602
	c8.911,0,16.199,7.29,16.199,16.199v183.602c0,8.907-7.288,16.199-16.199,16.199H16.119c-8.909,0-16.199-7.292-16.199-16.199V16.119
	C-0.08,7.209,7.209-0.08,16.119-0.08L16.119-0.08z M16.119,4.918h183.602c6.161,0,11.198,5.04,11.198,11.2v183.602
	c0,6.161-5.037,11.198-11.198,11.198H16.119c-6.161,0-11.2-5.037-11.2-11.198V16.119C4.918,9.958,9.958,4.918,16.119,4.918
	L16.119,4.918z M187.38,139.752L187.38,139.752l-1.485,1.55c-0.565-0.252-2.039,1.018-3.146-0.044l-0.777-0.745
	c-1.847-1.766,1.03-4.639,2.792-6.453c1.574-1.624,3.349-4.83,4.284-6.597c2.161-4.072,3.715-8.951,4.203-12.992
	c0.558-4.59,0.712-8.354-0.028-12.902c-0.313-1.913-0.789-4.486-1.465-6.368c-0.423-1.18-0.777-2.069-1.232-3.225
	c-0.403-1.028-1.201-2.297-1.404-3.225l-0.443-0.425c-0.338-1.528-3.316-5.347-4.68-7.056c-1.867-2.341-5.57-4.628-3.21-7.09
	c1.058-1.103,1.778-0.7,2.8-0.928c2.592,2.486,4.357,4.209,6.534,6.911c1.786,2.22,2.975,4.934,4.269,7.176
	c2.372,4.124,3.771,10.199,4.46,14.435c0.834,5.121,0.228,9.44-0.313,14.537c-0.216,2.03-1.185,5.313-1.884,7.304
	c-0.444,1.253-0.884,2.323-1.408,3.609c-0.383,0.943-1.64,3.027-1.762,3.727c-0.521,0.537-2.312,3.476-2.894,4.395
	C190.184,135.988,187.078,139.084,187.38,139.752L187.38,139.752z M183.579,124.217L183.579,124.217
	c-0.13,0.765-3.142,5.492-3.983,6.371l-2.336,2.438c-0.582,0.61-2.319,0.749-2.812,0.277l-0.997-0.957
	c-1.933-1.855,1.314-4.235,2.665-6.237c1.782-2.641,2.405-3.764,3.577-6.254c1.42-3.023,2.686-9.457,2.381-12.413
	c-0.399-3.876-0.863-8.547-2.946-12.299c-0.92-1.658-2.348-4.598-3.886-6.1c-0.753-0.73-1.86-2.071-2.779-3.086
	c-0.684-0.751-0.623-2.442,0.049-3.146l0.639-0.666c0.476-0.496,2.575-0.5,3.146,0.045l0.992,0.952
	c5.872,5.625,9.399,14.628,9.937,20.394c0.289,3.099,0.591,7.214-0.183,10.307C186.509,115.98,185.341,122.381,183.579,124.217
	L183.579,124.217z M166.811,125.982l-0.887-0.851c-0.77-0.736-0.334-1.701-0.423-2.331l3.845-5.221
	c0.11-0.635,1.07-2.535,1.339-3.394c0.402-1.286,0.622-2.206,0.793-3.483c0.273-2.077,0.131-4.706-0.342-6.824
	c-0.553-2.495-1.232-4.315-2.938-6.771c-0.301-0.427-0.46-1.001-1.046-1.603c-0.5-0.517-1.351-1.176-1.773-1.697
	c-0.688-0.858-0.892-2.625-0.082-3.471l0.428-0.441c2.966-3.094,7.52,4.818,8.731,6.972c1.677,2.979,2.58,7.532,2.646,10.571
	c0.073,3.487-0.48,7.146-2.039,10.669C174.176,120.11,169.578,128.631,166.811,125.982L166.811,125.982z M27.593,139.752
	L27.593,139.752l1.487,1.55c0.563-0.252,2.032,1.018,3.143-0.044l0.775-0.745c1.849-1.766-1.029-4.639-2.79-6.453
	c-1.577-1.624-3.351-4.83-4.287-6.597c-2.161-4.068-3.713-8.951-4.201-12.992c-0.558-4.59-0.712-8.355,0.028-12.902
	c0.31-1.911,0.786-4.486,1.463-6.366c0.425-1.182,0.779-2.071,1.233-3.227c0.405-1.028,1.201-2.297,1.406-3.223l0.444-0.427
	c0.335-1.528,3.316-5.347,4.679-7.056c1.866-2.344,5.568-4.626,3.21-7.09c-1.062-1.103-1.778-0.7-2.799-0.926
	c-2.592,2.484-4.36,4.209-6.537,6.909c-1.786,2.22-2.975,4.934-4.264,7.176c-2.376,4.124-3.774,10.199-4.464,14.437
	c-0.834,5.121-0.224,9.44,0.315,14.539c0.216,2.026,1.184,5.31,1.886,7.3c0.439,1.253,0.879,2.323,1.402,3.609
	c0.387,0.943,1.644,3.027,1.766,3.723c0.517,0.537,2.309,3.479,2.893,4.398C24.79,135.988,27.893,139.084,27.593,139.752
	L27.593,139.752z M31.39,124.217L31.39,124.217c0.134,0.765,3.144,5.492,3.988,6.371l2.333,2.438
	c0.584,0.606,2.319,0.749,2.813,0.277l0.997-0.957c1.933-1.855-1.314-4.231-2.665-6.237c-1.78-2.641-2.407-3.768-3.577-6.258
	c-1.422-3.02-2.688-9.453-2.385-12.409c0.403-3.876,0.867-8.547,2.948-12.299c0.921-1.658,2.35-4.598,3.888-6.1
	c0.751-0.73,1.855-2.071,2.779-3.086c0.682-0.751,0.623-2.442-0.053-3.144l-0.635-0.667c-0.478-0.496-2.576-0.5-3.146,0.045
	l-0.995,0.952c-5.87,5.627-9.399,14.628-9.937,20.394c-0.287,3.099-0.588,7.216,0.183,10.307
	C28.46,115.98,29.63,122.381,31.39,124.217L31.39,124.217z M48.162,125.982l0.885-0.851c0.769-0.736,0.333-1.701,0.427-2.331
	l-3.848-5.226c-0.11-0.63-1.07-2.53-1.338-3.389c-0.403-1.286-0.625-2.206-0.793-3.483c-0.275-2.077-0.13-4.706,0.342-6.826
	c0.553-2.49,1.233-4.311,2.94-6.767c0.297-0.429,0.458-1.001,1.043-1.605c0.5-0.517,1.351-1.176,1.772-1.701
	c0.69-0.854,0.893-2.619,0.083-3.465l-0.425-0.446c-2.968-3.092-7.523,4.822-8.734,6.974c-1.677,2.981-2.58,7.532-2.645,10.569
	c-0.073,3.487,0.482,7.144,2.039,10.671C40.797,120.11,45.395,128.631,48.162,125.982L48.162,125.982z"/>
</svg>
