<?xml version="1.0" encoding="utf-8"?>
<!DOCTYPE svg PUBLIC "-//W3C//DTD SVG 1.1//EN" "http://www.w3.org/Graphics/SVG/1.1/DTD/svg11.dtd">
<svg version="1.1" xmlns="http://www.w3.org/2000/svg" xmlns:xlink="http://www.w3.org/1999/xlink" x="0px" y="0px" width="216px" height="216px" viewBox="0 0 216 216" enable-background="new 0 0 216 216" xml:space="preserve">
<path id="_x33_" fill-rule="evenodd" clip-rule="evenodd" fill="#F58031" d="M100.872,23.363
	c17.065,3.064,28.427,19.387,25.366,36.453c-3.06,17.072-19.385,28.43-36.452,25.366c-17.067-3.056-28.428-19.381-25.368-36.45
	C67.48,31.664,83.803,20.304,100.872,23.363L100.872,23.363z M30.763,50.192L30.763,50.192c-2.631-8.431-3.974-19.15-13.902-23.145
	l-0.092-3.595c12.671,2.923,18.481,11.175,23,23.059c0.405,2.167,7.448,15.698,18.766,26.599c-3.985-7.776-5.556-16.87-3.894-26.133
	c4.028-22.465,25.517-37.418,47.982-33.39c22.467,4.028,37.421,25.517,33.389,47.982c-0.708,3.947-1.953,7.662-3.65,11.08
	c10.885-8.895,19.36-21.651,24.435-37.622c1.852-5.821,2.454-10.018,3.153-14.913l42.099,24.064
	c-23.007,7.495-46.831,64.313-111.695,53.573C61.053,92.899,39.534,73.781,30.763,50.192L30.763,50.192z"/>
<path id="_x32_" fill-rule="evenodd" clip-rule="evenodd" fill="#999557" d="M16.119-0.08h183.602
	c8.911,0,16.199,7.29,16.199,16.199v183.602c0,8.907-7.288,16.199-16.199,16.199H16.119c-8.909,0-16.199-7.292-16.199-16.199V16.119
	C-0.08,7.209,7.209-0.08,16.119-0.08L16.119-0.08z M16.119,4.918h183.602c6.161,0,11.198,5.04,11.198,11.2v183.602
	c0,6.161-5.037,11.198-11.198,11.198H16.119c-6.161,0-11.2-5.037-11.2-11.198V16.119C4.918,9.958,9.958,4.918,16.119,4.918
	L16.119,4.918z M187.38,139.752L187.38,139.752l-1.485,1.55c-0.565-0.252-2.039,1.018-3.146-0.044l-0.777-0.745
	c-1.847-1.766,1.03-4.639,2.792-6.453c1.574-1.624,3.349-4.83,4.284-6.597c2.161-4.072,3.715-8.951,4.203-12.992
	c0.558-4.59,0.712-8.354-0.028-12.902c-0.313-1.913-0.789-4.486-1.465-6.368c-0.423-1.18-0.777-2.069-1.232-3.225
	c-0.403-1.028-1.201-2.297-1.404-3.225l-0.443-0.425c-0.338-1.528-3.316-5.347-4.68-7.056c-1.867-2.341-5.57-4.628-3.21-7.09
	c1.058-1.103,1.778-0.7,2.8-0.928c2.592,2.486,4.357,4.209,6.534,6.911c1.786,2.22,2.975,4.934,4.269,7.176
	c2.372,4.124,3.771,10.199,4.46,14.435c0.834,5.121,0.228,9.44-0.313,14.537c-0.216,2.03-1.185,5.313-1.884,7.304
	c-0.444,1.253-0.884,2.323-1.408,3.609c-0.383,0.943-1.64,3.027-1.762,3.727c-0.521,0.537-2.312,3.476-2.894,4.395
	C190.184,135.988,187.078,139.084,187.38,139.752L187.38,139.752z M183.579,124.217L183.579,124.217
	c-0.13,0.765-3.142,5.492-3.983,6.371l-2.336,2.438c-0.582,0.61-2.319,0.749-2.812,0.277l-0.997-0.957
	c-1.933-1.855,1.314-4.235,2.665-6.237c1.782-2.641,2.405-3.764,3.577-6.254c1.42-3.023,2.686-9.457,2.381-12.413
	c-0.399-3.876-0.863-8.547-2.946-12.299c-0.92-1.658-2.348-4.598-3.886-6.1c-0.753-0.73-1.86-2.071-2.779-3.086
	c-0.684-0.751-0.623-2.442,0.049-3.146l0.639-0.666c0.476-0.496,2.575-0.5,3.146,0.045l0.992,0.952
	c5.872,5.625,9.399,14.628,9.937,20.394c0.289,3.099,0.591,7.214-0.183,10.307C186.509,115.98,185.341,122.381,183.579,124.217
	L183.579,124.217z M166.811,125.982l-0.887-0.851c-0.77-0.736-0.334-1.701-0.423-2.331l3.845-5.221
	c0.11-0.635,1.07-2.535,1.339-3.394c0.402-1.286,0.622-2.206,0.793-3.483c0.273-2.077,0.131-4.706-0.342-6.824
	c-0.553-2.495-1.232-4.315-2.938-6.771c-0.301-0.427-0.46-1.001-1.046-1.603c-0.5-0.517-1.351-1.176-1.773-1.697
	c-0.688-0.858-0.892-2.625-0.082-3.471l0.428-0.441c2.966-3.094,7.52,4.818,8.731,6.972c1.677,2.979,2.58,7.532,2.646,10.571
	c0.073,3.487-0.48,7.146-2.039,10.669C174.176,120.11,169.578,128.631,166.811,125.982L166.811,125.982z M27.593,139.752
	L27.593,139.752l1.487,1.55c0.563-0.252,2.032,1.018,3.143-0.044l0.775-0.745c1.849-1.766-1.029-4.639-2.79-6.453
	c-1.577-1.624-3.351-4.83-4.287-6.597c-2.161-4.068-3.713-8.951-4.201-12.992c-0.558-4.59-0.712-8.355,0.028-12.902
	c0.31-1.911,0.786-4.486,1.463-6.366c0.425-1.182,0.779-2.071,1.233-3.227c0.405-1.028,1.201-2.297,1.406-3.223l0.444-0.427
	c0.335-1.528,3.316-5.347,4.679-7.056c1.866-2.344,5.568-4.626,3.21-7.09c-1.062-1.103-1.778-0.7-2.799-0.926
	c-2.592,2.484-4.36,4.209-6.537,6.909c-1.786,2.22-2.975,4.934-4.264,7.176c-2.376,4.124-3.774,10.199-4.464,14.437
	c-0.834,5.121-0.224,9.44,0.315,14.539c0.216,2.026,1.184,5.31,1.886,7.3c0.439,1.253,0.879,2.323,1.402,3.609
	c0.387,0.943,1.644,3.027,1.766,3.723c0.517,0.537,2.309,3.479,2.893,4.398C24.79,135.988,27.893,139.084,27.593,139.752
	L27.593,139.752z M31.39,124.217L31.39,124.217c0.134,0.765,3.144,5.492,3.988,6.371l2.333,2.438
	c0.584,0.606,2.319,0.749,2.813,0.277l0.997-0.957c1.933-1.855-1.314-4.231-2.665-6.237c-1.78-2.641-2.407-3.768-3.577-6.258
	c-1.422-3.02-2.688-9.453-2.385-12.409c0.403-3.876,0.867-8.547,2.948-12.299c0.921-1.658,2.35-4.598,3.888-6.1
	c0.751-0.73,1.855-2.071,2.779-3.086c0.682-0.751,0.623-2.442-0.053-3.144l-0.635-0.667c-0.478-0.496-2.576-0.5-3.146,0.045
	l-0.995,0.952c-5.87,5.627-9.399,14.628-9.937,20.394c-0.287,3.099-0.588,7.216,0.183,10.307
	C28.46,115.98,29.63,122.381,31.39,124.217L31.39,124.217z M48.162,125.982l0.885-0.851c0.769-0.736,0.333-1.701,0.427-2.331
	l-3.848-5.226c-0.11-0.63-1.07-2.53-1.338-3.389c-0.403-1.286-0.625-2.206-0.793-3.483c-0.275-2.077-0.13-4.706,0.342-6.826
	c0.553-2.49,1.233-4.311,2.94-6.767c0.297-0.429,0.458-1.001,1.043-1.605c0.5-0.517,1.351-1.176,1.772-1.701
	c0.69-0.854,0.893-2.619,0.083-3.465l-0.425-0.446c-2.968-3.092-7.523,4.822-8.734,6.974c-1.677,2.981-2.58,7.532-2.645,10.569
	c-0.073,3.487,0.482,7.144,2.039,10.671C40.797,120.11,45.395,128.631,48.162,125.982L48.162,125.982z"/>
<path id="_x31_" fill="#7E5628" d="M156.438,174.94L156.438,174.94l-24.251-18.192l24.251-18.188V174.94L156.438,174.94z
	 M156.438,179.271L156.438,179.271c0,3.829-3.108,6.934-6.934,6.934H66.336c-3.819,0-6.93-3.104-6.93-6.934l27.143-20.357
	l15.139,11.356c1.845,1.384,4.039,2.079,6.234,2.079c2.199,0,4.389-0.695,6.235-2.079l15.142-11.356L156.438,179.271
	L156.438,179.271z M59.407,138.56L59.407,138.56l24.253,18.188L59.407,174.94V138.56L59.407,138.56z M150.486,127.361
	c3.36,0.477,5.952,3.373,5.952,6.86l-44.356,33.272c-1.212,0.907-2.648,1.388-4.16,1.388c-1.51,0-2.946-0.48-4.159-1.388
	l-14.329-10.746l-2.885-2.165l-27.143-20.356v-0.005c0-2.632,1.475-4.923,3.642-6.099v-7.365
	c-6.069,1.477-10.576,6.941-10.576,13.464v45.049c0,7.657,6.208,13.867,13.863,13.867h83.168c7.658,0,13.863-6.21,13.863-13.867
	v-45.049c0-7.324-5.685-13.321-12.882-13.822V127.361L150.486,127.361z M142.975,106.463h-4.35v14.295
	c0,0.813-0.184,1.437-0.55,1.831c-0.366,0.398-0.842,0.594-1.428,0.594c-0.582,0-1.063-0.199-1.437-0.603
	c-0.37-0.402-0.554-1.013-0.554-1.822v-14.295h-4.35c-0.684,0-1.188-0.15-1.518-0.447c-0.334-0.303-0.501-0.698-0.501-1.192
	c0-0.506,0.18-0.909,0.521-1.2c0.342-0.301,0.842-0.448,1.497-0.448h12.667c0.688,0,1.196,0.151,1.538,0.46
	c0.333,0.299,0.5,0.698,0.5,1.188c0,0.495-0.171,0.889-0.509,1.192C144.162,106.313,143.654,106.463,142.975,106.463
	L142.975,106.463z M126.813,116.94L126.813,116.94c0,1.192-0.31,2.263-0.924,3.211c-0.606,0.948-1.506,1.688-2.686,2.226
	c-1.185,0.533-2.58,0.806-4.203,0.806c-1.941,0-3.54-0.366-4.802-1.099c-0.896-0.533-1.619-1.232-2.181-2.115
	c-0.56-0.879-0.841-1.734-0.841-2.572c0-0.48,0.169-0.896,0.503-1.241c0.338-0.342,0.765-0.517,1.286-0.517
	c0.419,0,0.772,0.139,1.065,0.403c0.289,0.272,0.537,0.671,0.741,1.196c0.252,0.626,0.524,1.151,0.813,1.57s0.704,0.765,1.229,1.042
	c0.529,0.269,1.221,0.406,2.084,0.406c1.18,0,2.136-0.276,2.872-0.825c0.736-0.55,1.111-1.237,1.111-2.06
	c0-0.651-0.199-1.184-0.595-1.591c-0.398-0.407-0.915-0.716-1.546-0.928c-0.631-0.22-1.473-0.443-2.531-0.688
	c-1.411-0.33-2.6-0.721-3.552-1.16c-0.948-0.443-1.705-1.05-2.267-1.814c-0.558-0.765-0.838-1.713-0.838-2.849
	c0-1.082,0.295-2.044,0.883-2.885c0.59-0.84,1.448-1.485,2.563-1.941c1.119-0.454,2.434-0.675,3.947-0.675
	c1.212,0,2.254,0.15,3.133,0.447c0.887,0.303,1.611,0.696,2.193,1.196c0.582,0.495,1.009,1.018,1.281,1.561
	c0.261,0.545,0.399,1.081,0.399,1.599c0,0.474-0.171,0.899-0.505,1.278c-0.334,0.381-0.757,0.576-1.253,0.576
	c-0.46,0-0.802-0.118-1.042-0.347c-0.236-0.224-0.492-0.6-0.77-1.117c-0.361-0.743-0.785-1.324-1.289-1.739
	c-0.501-0.419-1.307-0.625-2.413-0.625c-1.029,0-1.859,0.224-2.49,0.677s-0.948,0.993-0.948,1.632c0,0.393,0.105,0.732,0.321,1.015
	c0.216,0.289,0.513,0.537,0.887,0.742c0.379,0.204,0.762,0.369,1.144,0.482c0.383,0.116,1.018,0.283,1.908,0.509
	c1.104,0.261,2.108,0.543,3.008,0.86c0.898,0.312,1.66,0.692,2.295,1.14c0.63,0.447,1.118,1.009,1.477,1.696
	C126.633,115.114,126.813,115.952,126.813,116.94L126.813,116.94z M104.417,112.961L104.417,112.961
	c0-1.444-0.234-2.691-0.698-3.749c-0.466-1.052-1.129-1.855-1.996-2.395c-0.862-0.542-1.847-0.812-2.975-0.812
	c-0.795,0-1.528,0.153-2.205,0.448c-0.673,0.305-1.257,0.74-1.742,1.312c-0.49,0.572-0.875,1.306-1.16,2.191
	c-0.281,0.892-0.421,1.895-0.421,3.005c0,1.115,0.14,2.129,0.421,3.032c0.285,0.903,0.684,1.651,1.198,2.25
	c0.511,0.594,1.105,1.042,1.772,1.33c0.666,0.302,1.396,0.444,2.195,0.444c1.02,0,1.953-0.257,2.812-0.766
	c0.854-0.505,1.532-1.294,2.036-2.364C104.166,115.822,104.417,114.52,104.417,112.961L104.417,112.961z M98.748,102.842
	L98.748,102.842c2.045,0,3.794,0.413,5.262,1.241c1.46,0.832,2.567,2.002,3.32,3.525c0.749,1.528,1.127,3.316,1.127,5.377
	c0,1.522-0.208,2.901-0.619,4.146c-0.411,1.237-1.025,2.323-1.849,3.235c-0.824,0.907-1.839,1.607-3.034,2.092
	c-1.2,0.483-2.574,0.724-4.122,0.724c-1.54,0-2.917-0.244-4.138-0.744c-1.214-0.497-2.228-1.196-3.045-2.1
	c-0.816-0.899-1.428-1.994-1.847-3.26c-0.413-1.273-0.621-2.641-0.621-4.118c0-1.514,0.213-2.902,0.651-4.16
	c0.436-1.266,1.06-2.338,1.888-3.221c0.82-0.889,1.821-1.568,3.003-2.034C95.904,103.074,97.247,102.842,98.748,102.842
	L98.748,102.842z M78.436,106.166L78.436,106.166H75.75v6.014h2.686c0.938,0,1.721-0.096,2.354-0.295
	c0.626-0.193,1.107-0.521,1.445-0.962c0.325-0.452,0.49-1.033,0.49-1.762c0-0.869-0.252-1.573-0.763-2.122
	C81.388,106.453,80.212,106.166,78.436,106.166L78.436,106.166z M79.402,115.188L79.402,115.188H75.75v5.57
	c0,0.793-0.187,1.396-0.563,1.807c-0.374,0.415-0.851,0.618-1.422,0.618c-0.598,0-1.084-0.199-1.451-0.61
	c-0.364-0.406-0.547-1.005-0.547-1.79v-15.167c0-0.873,0.199-1.501,0.602-1.876c0.403-0.374,1.042-0.563,1.921-0.563h5.113
	c1.511,0,2.667,0.114,3.485,0.346c0.808,0.226,1.501,0.596,2.089,1.115c0.584,0.519,1.029,1.156,1.331,1.904
	c0.309,0.752,0.46,1.601,0.46,2.539c0,2.007-0.617,3.521-1.85,4.558C83.681,114.666,81.841,115.188,79.402,115.188L79.402,115.188z
	 M78.928,133.485L78.928,133.485c0,0.546-0.141,1.042-0.423,1.478c-0.277,0.436-0.692,0.772-1.235,1.017
	c-0.542,0.244-1.182,0.375-1.927,0.375c-0.887,0-1.624-0.171-2.206-0.509c-0.409-0.24-0.743-0.565-0.999-0.969
	c-0.254-0.406-0.382-0.797-0.382-1.18c0-0.224,0.077-0.411,0.228-0.57c0.154-0.158,0.35-0.239,0.588-0.239
	c0.195,0,0.358,0.064,0.49,0.19c0.132,0.118,0.246,0.306,0.342,0.546c0.116,0.289,0.238,0.524,0.375,0.72
	c0.13,0.191,0.321,0.351,0.563,0.477s0.56,0.188,0.954,0.188c0.543,0,0.983-0.127,1.316-0.379c0.342-0.252,0.511-0.565,0.511-0.948
	c0-0.297-0.089-0.537-0.271-0.724c-0.185-0.188-0.421-0.334-0.712-0.428c-0.287-0.098-0.675-0.203-1.164-0.317
	c-0.647-0.15-1.188-0.329-1.627-0.529c-0.436-0.207-0.781-0.483-1.04-0.834c-0.254-0.346-0.384-0.785-0.384-1.31
	c0-0.493,0.134-0.937,0.407-1.318c0.269-0.387,0.666-0.68,1.178-0.892s1.115-0.31,1.809-0.31c0.553,0,1.036,0.065,1.437,0.208
	c0.405,0.134,0.74,0.317,1.007,0.541c0.269,0.231,0.466,0.468,0.588,0.725c0.122,0.244,0.183,0.488,0.183,0.732
	c0,0.211-0.077,0.406-0.229,0.577c-0.157,0.18-0.348,0.269-0.578,0.269c-0.208,0-0.366-0.053-0.476-0.158
	c-0.106-0.102-0.228-0.276-0.352-0.509c-0.167-0.346-0.362-0.61-0.594-0.802c-0.23-0.191-0.598-0.284-1.109-0.284
	c-0.47,0-0.851,0.102-1.139,0.309c-0.291,0.208-0.434,0.456-0.434,0.749c0,0.183,0.047,0.333,0.145,0.464
	c0.098,0.134,0.236,0.248,0.409,0.342c0.171,0.094,0.348,0.167,0.523,0.22c0.177,0.053,0.468,0.13,0.875,0.235
	c0.506,0.118,0.968,0.249,1.381,0.396s0.761,0.317,1.054,0.524c0.289,0.203,0.513,0.46,0.676,0.777
	C78.845,132.647,78.928,133.034,78.928,133.485L78.928,133.485z M87.786,128.582L87.786,128.582h-4.118v2.214h3.792
	c0.281,0,0.488,0.065,0.626,0.188c0.136,0.13,0.202,0.293,0.202,0.496c0,0.212-0.063,0.374-0.198,0.505
	c-0.138,0.13-0.35,0.191-0.63,0.191h-3.792v2.571h4.26c0.289,0,0.502,0.065,0.649,0.199s0.22,0.313,0.22,0.529
	c0,0.211-0.071,0.386-0.22,0.521c-0.146,0.139-0.362,0.203-0.649,0.203H82.96c-0.399,0-0.688-0.089-0.863-0.264
	c-0.175-0.18-0.258-0.465-0.258-0.855v-6.791c0-0.26,0.041-0.476,0.118-0.643c0.079-0.167,0.197-0.289,0.364-0.362
	c0.167-0.073,0.378-0.114,0.639-0.114h4.826c0.293,0,0.509,0.065,0.653,0.195c0.138,0.127,0.209,0.293,0.209,0.505
	c0,0.216-0.071,0.387-0.209,0.517C88.295,128.514,88.079,128.582,87.786,128.582L87.786,128.582z M94.069,132.338L94.069,132.338
	h-0.643v2.901c0,0.383-0.085,0.663-0.25,0.838c-0.173,0.188-0.393,0.277-0.663,0.277c-0.291,0-0.517-0.098-0.678-0.285
	c-0.157-0.191-0.24-0.464-0.24-0.83v-6.95c0-0.391,0.088-0.675,0.267-0.854c0.177-0.179,0.462-0.265,0.856-0.265h2.973
	c0.411,0,0.761,0.017,1.052,0.058c0.293,0.028,0.556,0.102,0.79,0.207c0.283,0.122,0.535,0.289,0.752,0.513
	c0.216,0.22,0.383,0.48,0.497,0.77c0.11,0.297,0.167,0.606,0.167,0.936c0,0.672-0.188,1.213-0.57,1.611
	c-0.38,0.407-0.954,0.688-1.725,0.858c0.321,0.171,0.63,0.428,0.93,0.761c0.293,0.338,0.56,0.696,0.787,1.074
	c0.234,0.383,0.415,0.725,0.545,1.03c0.13,0.305,0.191,0.517,0.191,0.635s-0.035,0.235-0.114,0.354
	c-0.075,0.114-0.177,0.208-0.307,0.276c-0.134,0.069-0.287,0.103-0.458,0.103c-0.206,0-0.378-0.054-0.519-0.146
	c-0.136-0.098-0.254-0.22-0.356-0.366s-0.238-0.366-0.411-0.655l-0.736-1.217c-0.26-0.452-0.499-0.789-0.702-1.025
	c-0.208-0.231-0.417-0.391-0.633-0.476C94.659,132.379,94.386,132.338,94.069,132.338L94.069,132.338z M95.113,128.542
	L95.113,128.542h-1.687v2.481h1.636c0.439,0,0.812-0.036,1.111-0.109c0.299-0.077,0.529-0.208,0.686-0.391
	c0.159-0.184,0.238-0.436,0.238-0.753c0-0.252-0.063-0.476-0.191-0.663c-0.13-0.191-0.305-0.334-0.531-0.428
	C96.163,128.586,95.743,128.542,95.113,128.542L95.113,128.542z M103.062,128.221L103.062,128.221l2.042,6.05l2.051-6.095
	c0.108-0.322,0.185-0.546,0.24-0.668c0.053-0.126,0.142-0.24,0.264-0.338c0.125-0.105,0.291-0.15,0.509-0.15
	c0.155,0,0.299,0.037,0.429,0.114c0.136,0.077,0.24,0.183,0.317,0.313c0.076,0.126,0.114,0.256,0.114,0.391
	c0,0.085-0.016,0.188-0.038,0.289c-0.024,0.105-0.057,0.207-0.092,0.309c-0.035,0.098-0.075,0.204-0.11,0.31l-2.187,5.904
	c-0.08,0.224-0.155,0.436-0.234,0.643c-0.08,0.199-0.171,0.379-0.273,0.533c-0.1,0.154-0.238,0.276-0.409,0.378
	c-0.171,0.098-0.378,0.151-0.623,0.151c-0.248,0-0.456-0.054-0.627-0.146c-0.167-0.098-0.307-0.224-0.415-0.383
	c-0.102-0.159-0.193-0.338-0.271-0.541c-0.079-0.199-0.156-0.411-0.234-0.635l-2.15-5.855c-0.035-0.102-0.077-0.212-0.11-0.31
	c-0.045-0.105-0.075-0.215-0.104-0.338c-0.029-0.113-0.041-0.215-0.041-0.301c0-0.207,0.085-0.398,0.254-0.573
	c0.165-0.167,0.38-0.253,0.635-0.253c0.309,0,0.529,0.09,0.661,0.285C102.793,127.492,102.923,127.797,103.062,128.221
	L103.062,128.221z M111.834,135.239L111.834,135.239v-7.112c0-0.366,0.084-0.651,0.248-0.834c0.169-0.184,0.387-0.273,0.655-0.273
	c0.272,0,0.497,0.09,0.668,0.273c0.166,0.179,0.256,0.463,0.256,0.834v7.112c0,0.37-0.085,0.651-0.256,0.834
	c-0.171,0.188-0.396,0.281-0.668,0.281c-0.26,0-0.479-0.094-0.65-0.281C111.918,135.887,111.834,135.609,111.834,135.239
	L111.834,135.239z M124.753,133.348L124.753,133.348c0,0.284-0.068,0.598-0.211,0.932c-0.143,0.333-0.366,0.663-0.672,0.988
	c-0.301,0.317-0.688,0.582-1.159,0.781c-0.473,0.203-1.025,0.306-1.652,0.306c-0.472,0-0.907-0.045-1.298-0.139
	c-0.391-0.09-0.745-0.228-1.063-0.423c-0.317-0.188-0.61-0.439-0.874-0.749c-0.244-0.285-0.444-0.606-0.61-0.952
	c-0.171-0.354-0.298-0.729-0.383-1.127c-0.081-0.395-0.122-0.822-0.122-1.27c0-0.725,0.102-1.38,0.313-1.949
	c0.211-0.574,0.517-1.066,0.911-1.477c0.395-0.407,0.851-0.721,1.384-0.933c0.528-0.216,1.095-0.317,1.692-0.317
	c0.729,0,1.384,0.146,1.953,0.436c0.569,0.293,1.005,0.651,1.311,1.078c0.305,0.432,0.46,0.834,0.46,1.221
	c0,0.208-0.078,0.391-0.225,0.554c-0.15,0.154-0.325,0.236-0.537,0.236c-0.231,0-0.41-0.054-0.528-0.167
	c-0.114-0.11-0.248-0.301-0.387-0.574c-0.24-0.443-0.521-0.777-0.843-1.001c-0.321-0.22-0.72-0.329-1.191-0.329
	c-0.749,0-1.352,0.285-1.795,0.851c-0.443,0.577-0.667,1.383-0.667,2.437c0,0.7,0.098,1.286,0.293,1.75
	c0.199,0.468,0.479,0.814,0.842,1.042c0.358,0.231,0.781,0.346,1.266,0.346c0.525,0,0.969-0.13,1.331-0.391
	c0.366-0.261,0.639-0.643,0.825-1.147c0.078-0.24,0.176-0.432,0.289-0.582c0.114-0.15,0.302-0.224,0.554-0.224
	c0.216,0,0.402,0.081,0.562,0.228C124.676,132.932,124.753,133.119,124.753,133.348L124.753,133.348z M133.705,128.582
	L133.705,128.582h-4.122v2.214h3.793c0.28,0,0.492,0.065,0.626,0.188c0.139,0.13,0.208,0.293,0.208,0.496
	c0,0.212-0.069,0.374-0.204,0.505c-0.134,0.13-0.346,0.191-0.63,0.191h-3.793v2.571h4.261c0.289,0,0.504,0.065,0.65,0.199
	s0.221,0.313,0.221,0.529c0,0.211-0.074,0.386-0.221,0.521c-0.146,0.139-0.365,0.203-0.65,0.203h-4.969
	c-0.395,0-0.688-0.089-0.858-0.264c-0.175-0.18-0.265-0.465-0.265-0.855v-6.791c0-0.26,0.045-0.476,0.122-0.643
	s0.2-0.289,0.366-0.362c0.163-0.073,0.379-0.114,0.635-0.114h4.83c0.293,0,0.509,0.065,0.647,0.195
	c0.142,0.127,0.211,0.293,0.211,0.505c0,0.216-0.069,0.387-0.211,0.517C134.214,128.514,133.994,128.582,133.705,128.582
	L133.705,128.582z M144.383,133.485L144.383,133.485c0,0.546-0.139,1.042-0.42,1.478c-0.284,0.436-0.695,0.772-1.232,1.017
	c-0.55,0.244-1.188,0.375-1.933,0.375c-0.888,0-1.62-0.171-2.202-0.509c-0.41-0.24-0.744-0.565-1.005-0.969
	c-0.252-0.406-0.378-0.797-0.378-1.18c0-0.224,0.077-0.411,0.228-0.57c0.15-0.158,0.351-0.239,0.59-0.239
	c0.191,0,0.354,0.064,0.488,0.19c0.131,0.118,0.244,0.306,0.342,0.546c0.114,0.289,0.236,0.524,0.375,0.72
	c0.13,0.191,0.317,0.351,0.565,0.477c0.24,0.126,0.558,0.188,0.952,0.188c0.541,0,0.98-0.127,1.318-0.379s0.509-0.565,0.509-0.948
	c0-0.297-0.09-0.537-0.273-0.724c-0.183-0.188-0.423-0.334-0.707-0.428c-0.293-0.098-0.676-0.203-1.164-0.317
	c-0.647-0.15-1.188-0.329-1.628-0.529c-0.436-0.207-0.789-0.483-1.042-0.834c-0.256-0.346-0.386-0.785-0.386-1.31
	c0-0.493,0.138-0.937,0.411-1.318c0.268-0.387,0.663-0.68,1.176-0.892c0.508-0.212,1.114-0.31,1.807-0.31
	c0.557,0,1.033,0.065,1.44,0.208c0.406,0.134,0.736,0.317,1.005,0.541c0.265,0.231,0.46,0.468,0.59,0.725
	c0.118,0.244,0.184,0.488,0.184,0.732c0,0.211-0.078,0.406-0.232,0.577c-0.154,0.18-0.346,0.269-0.574,0.269
	c-0.211,0-0.37-0.053-0.479-0.158c-0.11-0.102-0.228-0.276-0.354-0.509c-0.162-0.346-0.357-0.61-0.594-0.802
	c-0.228-0.191-0.594-0.284-1.106-0.284c-0.473,0-0.851,0.102-1.14,0.309c-0.289,0.208-0.436,0.456-0.436,0.749
	c0,0.183,0.049,0.333,0.146,0.464c0.102,0.134,0.236,0.248,0.411,0.342c0.171,0.094,0.346,0.167,0.521,0.22
	c0.18,0.053,0.469,0.13,0.875,0.235c0.509,0.118,0.973,0.249,1.38,0.396c0.415,0.146,0.761,0.317,1.054,0.524
	c0.289,0.203,0.517,0.46,0.676,0.777C144.301,132.647,144.383,133.034,144.383,133.485L144.383,133.485z"/>
</svg>
