<?xml version="1.0" encoding="utf-8"?>
<!DOCTYPE svg PUBLIC "-//W3C//DTD SVG 1.1//EN" "http://www.w3.org/Graphics/SVG/1.1/DTD/svg11.dtd">
<svg version="1.1" xmlns="http://www.w3.org/2000/svg" xmlns:xlink="http://www.w3.org/1999/xlink" x="0px" y="0px" width="216px" height="216px" viewBox="0 0 216 216" enable-background="new 0 0 216 216" xml:space="preserve">
<path id="_x33_" fill="#F58031" d="M156.451,16.279L156.451,16.279l10.938,0.071c-0.691,6.608-0.858,5.859-0.822,20.626
	c0.033,14.771,7.17,62.284,19.32,73.23c-11.32-10.604-16.729-51.728-16.362-73.23c0.362-21.499,0.606-14.006,0.928-20.697h8.269
	c-0.517,6.608-0.793,3.099-0.793,20.697s4.996,58.262,11.405,72.859c-4.68-14.597-8.541-55.261-8.541-72.859
	c0-17.595,0.203-14.089,0.582-20.697h5.135c-0.317,6.608-0.488,0.126-0.488,20.697c0,20.577,3.162,61.776,8.622,73.885
	c-3.373-12.109-5.062-53.308-5.062-73.885c0-20.571,0.105-14.089,0.301-20.697h6.43c-0.745,29.323-0.18,61.57-0.326,89.297v12.463
	l-0.016,0.118l-2.535,0.049c-18.526,0.358-34.314-66.097-35.307-76.412C157.139,31.479,156.731,35.589,156.451,16.279
	L156.451,16.279z M83.431,155.507L83.431,155.507c0.563,7.609,5.322,20.39,8.521,25.285c3.178,4.862,12.203,14.021,18.951,14.021
	c6.148,0,9.773-3.011,12.264-7.23c1.949-3.296,4.854-10.339,4.854-15.552v-8.036c0-6.352-3.918-17.981-5.969-22.335
	c-4.558,2.702-9.703,8.028-15.523,9.835C98.618,153.953,91.688,155.507,83.431,155.507L83.431,155.507z M110.504,162.209
	L110.504,162.209c0-2.922,3.149-6.254,6.372-6.254h0.398c2.552,0,5.97,2.376,5.97,4.911c0,1.937-3.235-0.892-4.777-0.892h-0.794
	c-3.674,0-4.072,2.763-6.771,3.573C110.382,162.371,110.504,163.914,110.504,162.209L110.504,162.209z M92.986,169.802
	L92.986,169.802c0-4.293,2.897-7.593,6.769-7.593c2.059,0,4.319,1.208,4.777,3.125c-2.459,1.322-4-0.623-6.675,1.892
	c-2.081,1.957-1.91,3.927-3.676,5.253C93.375,171.815,92.986,171.458,92.986,169.802L92.986,169.802z M110.902,185.883
	L110.902,185.883h-0.798c-2.765,0-7.564-3.801-7.564-5.363c0-2.466,3.92-0.443,6.37-0.443h0.401c6.734,0,7.308-6.238,10.348-7.149
	c0.272,0.545,0.398,0.479,0.398,1.343v2.677C120.058,181.553,115.541,185.883,110.902,185.883L110.902,185.883z M196.1,129.278
	v7.882l-0.045,57.418h-6.815c-0.244-3.313-0.374-16.045-0.374-24.825c0-8.789,1.969-26.314,4.964-33.594
	c-4.098,7.279-6.795,24.805-6.795,33.594c0,8.78,0.179,21.513,0.513,24.825h-5.29c-0.387-3.313-0.599-14.047-0.599-24.825
	c0-10.787,5.233-33.224,12.472-38.514c-8.337,5.286-14.363,27.727-14.363,38.514c0,10.778,0.24,21.513,0.691,24.825h-8.423
	c-0.528-3.313-0.391-12.231,0.46-24.825C173.346,157.151,182.989,130.022,196.1,129.278L196.1,129.278z M195.587,120.859
	c-2.107,0.272-4.008,0.032-6.323-0.725v8.81c1.803-1.392,4.109-2.368,6.323-2.624V120.859L195.587,120.859z"/>
<path id="_x32_" fill-rule="evenodd" clip-rule="evenodd" fill="#999557" d="M16.119-0.08h183.602
	c8.911,0,16.199,7.29,16.199,16.199v183.602c0,8.907-7.288,16.199-16.199,16.199H16.119c-8.909,0-16.199-7.292-16.199-16.199V16.119
	C-0.08,7.209,7.209-0.08,16.119-0.08L16.119-0.08z M16.119,4.918h183.602c6.161,0,11.198,5.04,11.198,11.2v183.602
	c0,6.161-5.037,11.198-11.198,11.198H16.119c-6.161,0-11.2-5.037-11.2-11.198V16.119C4.918,9.958,9.958,4.918,16.119,4.918
	L16.119,4.918z M161.851,142.905L161.851,142.905v-3.572c-2.637,0.313-5.306,0.329-7.963,0.443c-15.516,0-21.899-4.81-32.104-10.808
	l-2.836,10.181c1.44-1.086,2.856-2.128,4.272-2.966l2.974-1.762l1.474,3.125c1.232,2.612,2.62,6.359,3.776,10.273h0.545
	c1.623,0,2.267-1.143,4.382-1.343c-0.053,2.576-1.835,4.195-3.946,4.928c0.911,3.638,1.514,7.162,1.514,9.814v1.84
	c0.231-0.033,0.5-0.054,0.842-0.054h0.398c3.98,0,8.757,5.018,8.757,9.831v1.782c-3.487-0.085-4.63-5.358-9.554-5.358l-0.443,0.024
	c0,3.617-1.229,8.187-2.856,12.166c1.009,0.46,2.128,0.765,3.698,0.765h2.385c6.363,0,14.534-9.257,17.362-14.025
	C157.257,163.592,161.851,150.156,161.851,142.905L161.851,142.905z M149.908,155.861L149.908,155.861h-1.591
	c-2.637,0-5.575-3.3-5.575-6.254v-1.339c2.56,0.235,3.394,3.572,6.368,3.572c2.796,0,3.728-1.131,5.974-1.339
	C154.881,153.232,152.447,155.861,149.908,155.861L149.908,155.861z M141.412,27.138L141.412,27.138
	c-0.199,0-0.403,0.016-0.606,0.055l-29.659,5.231c-1.664,0.295-2.881,1.746-2.881,3.436v3.489v23.513v2.948
	c-1.768-1.282-4.065-2.039-6.618-2.039c-1.483,0-2.966,0.244-4.413,0.724c-5.119,1.709-9.766,6.973-7.658,12.614
	c1.327,3.556,5.101,5.851,9.607,5.851c4.661,0,9.627-2.468,11.698-6.797c0.565-1.19,0.832-2.435,0.841-3.67l0.032-27.912
	l29.657-5.18v21.177c-1.766-1.286-4.065-2.041-6.62-2.041c-1.481,0-2.963,0.244-4.411,0.727c-5.119,1.709-9.758,6.968-7.654,12.612
	c1.327,3.554,5.099,5.851,9.607,5.851c1.481,0,2.967-0.242,4.411-0.726c4.252-1.414,8.089-5.048,8.13-9.741l0.024-33.145v-3.491
	C144.899,28.71,143.316,27.138,141.412,27.138L141.412,27.138z"/>
<path id="_x31_" fill="#7E5628" d="M27.722,16.403c0.722,0.529,1.534,0.977,2.274,1.489c0.254-0.057,0.138-0.358,0.234-0.393
	c1.302,0.765,2.389,1.74,3.53,2.665c0.238,0.244,0.126-0.266,0.468-0.156c1.406,1.103,2.427,2.592,3.841,3.685
	c1.243-0.184,2.297,1.396,3.135,2.114c0.834,0.718,1.754,1.399,2.427,1.959c1.681,1.398,3.109,2.863,4.543,4.155
	c3.151,2.828,6.315,5.558,8.232,9.171c0.266-0.806,1.31-1.257,1.8-2.041c0.395-0.621,0.539-1.53,1.178-1.567
	c-0.116-1.108,0.362-2.689,1.33-3.682c-0.044-0.539,0.208-0.867,0.395-1.178c0.044-0.075-0.004-0.356,0.159-0.704
	c0.258-0.58,0.881-1.223,1.41-1.882c1.355-1.711,2.804-4.087,4.071-5.094c1.937-2.234,6.634-1.792,8.124-1.489
	c7.735,1.51,6.189,6.795,7.475,10.425l-0.236-0.236c0.071,4.01-1.221,9.143-2.037,11.914l-0.391,0.549
	c-0.615,1.239-1.095,2.592-1.62,3.414l0.053,0.346c-0.057,2.954,2.209,3.521,2.977,5.798c0.161,0.484,0.399,1.343,0.391,2.041
	c-0.004,0.391-0.246,0.781-0.311,1.174c-0.191,1.088,0.13,2.399-0.157,3.371c-0.342,1.142-0.938,2.342-1.257,3.056
	c-3.166,7.176-3.705,3.979-8.309,6.974c-0.533,0.348-1.455,2.094-1.566,2.824c-0.33,2.215,0.236,4.309,0.626,6.502
	c0.315,1.746,0.399,3.489,0.783,4.47c0.275,0.684,1.038,1.29-0.077,1.567c1.086,1.692,3.131,2.974,3.764,5.485
	c3.003-0.238,5.849,0.189,8.545,0.627c1.782,0.291,3.369,0.85,5.092,1.333c1.646,0.459,3.475,0.323,5.093,0.785
	c1.933,0.549,3.446,1.603,5.564,1.8c3.05,0.287,6.337-0.222,9.642-0.077c2.799,0.122,6.226,0.5,9.009,0.627
	c1.929,0.087,3.914,0.098,5.33-0.391c0.802-0.275,1.266-0.958,1.961-1.255c0.798-0.342,1.656-0.315,2.666-0.47
	c1.563-0.24,3.21-0.58,4.858-0.234c0.887,0.185,1.925,0.688,2.896,1.017c1.416,0.474,2.828,1.217,4.546,1.333
	c2.962,0.193,5.68-1.404,8.545-0.784c0.166,0.224,0.333,0.434,0.391,0.784c0,0.899-0.18,0.63-0.863,1.174
	c-0.195,0.156-0.357,0.574-0.468,0.708c-0.439,0.508-0.907,0.779-1.335,1.019c-1.257,0.706-1.961,1.5-3.056,1.721
	c-1.095,0.226-2.16,0.108-3.133,0.315c-2.438,0.513-3.679,1.477-5.563,2.743c-0.896,0.594-2.233,1.656-3.292,1.568
	c-1.082-0.091-1.904-1.394-2.434-2.352c-0.215-0.391-0.382-0.826-0.626-0.942c-0.606-0.289-2.152,0.167-2.82,0.313
	c-3.613,0.795-7.279,1.374-10.733,2.352c-0.839,0.238-1.6,0.641-2.434,0.862c-6.136,1.628-11.462-1.351-16.931-1.723
	c-4.075-0.279-8.142-1.048-12.142,0.157c-6.742,2.024-9.147,3.615-16.225,4.391c-1.561,0.165-2.936,0.667-4.86,0.624
	c0.423,2.886,0.626,6.401,0.626,9.953c0,3.544-0.344,6.849,0.551,9.721c0.468,1.506,1.251,3.027,1.725,4.777
	c0.423,1.591,1.034,3.247,1.642,4.781c1.207,3.015,2.356,6.498,2.747,10.188c0.204,1.938,0.085,4.062,0,6.189
	c-0.179,4.37-0.206,8.064-0.395,12.54c-0.076,1.787-0.352,5.164,0.395,5.88c0.431,0.415,1.546,0.428,2.193,0.781
	c0.563,0.313,1.253,0.68,1.331,1.571c0.067,0.724-0.578,1.749-0.94,2.584c-0.781,1.826-1.135,3.148-1.41,5.484
	c-0.193,1.628-0.549,2.686-0.549,4.545c0,0.469,0.146,0.977,0.08,1.412c-0.071,0.456-0.348,0.477-0.552,0.94
	c0.458,0.866-0.266,3.072-1.017,3.373c-0.332,0.134-0.136,0.057-0.389,0.31c-0.25,0.248-0.272,0.72-0.71,0.785
	c-0.242,0.004-0.5,0.032-0.547-0.077c-0.431-1.099-0.553-2.178-0.94-3.215c-0.33-0.896-1.05-1.555-1.333-2.352
	c-0.209-0.591-0.165-1.29-0.313-1.958c-0.342-1.542-0.938-3.112-1.333-4.699c-0.407-1.645-1.04-3.296-1.174-4.858
	c-0.132-1.506-0.021-3.166,0.159-4.627c0.161-1.334,0.788-2.543,0.938-3.841c0.311-2.665-0.126-5.726-0.47-8.464
	c-0.332-2.641-0.942-5.033-1.489-7.601c-0.535-2.522-0.897-5.184-1.331-7.76c-0.439-2.567-0.792-5.444-1.804-7.446
	c-0.444-0.879-1.282-1.786-1.882-2.819c-0.594-1.038-1.277-2.08-1.646-3.057c-0.366-0.984-0.529-2.063-0.858-3.056
	c-1.577-4.699-3.518-9.595-4.781-14.815c-0.515-2.124-0.632-4.323-1.257-6.502c-0.706-0.346-1.363,0.376-1.959,0.152
	c-0.116-0.297,0.045-0.716,0.079-1.092c-0.136,0.008-0.643,0.252-0.626-0.082c0.495-6.022,1.144-11.888,2.82-16.695
	c0.303-0.864,0.788-1.56,0.747-2.382c-0.03-0.641-0.047-0.563,0.208-1.167c0.063-0.151,0.108-0.315,0.143-0.523
	c0.625-3.833,0.242-9.058-0.057-12.939c-0.022-0.317-0.018-0.226-0.307-0.198c-2.37,0.234-4.989,0.547-7.705,0.678
	c-2.93,0.138-5.861-0.354-8.466-0.236c-0.869,0.039-1.564,0.492-2.252,0.492c-0.324,0-0.261,0.006-0.458,0.283
	c-0.498,0.7-1.178,1.32-1.99,1.654c-0.386,0.156-1.149,0.165-1.804,0.391c-0.755,0.26-1.307,0.991-2.116,1.412
	c-0.736,0.383-2.352,0.655-2.272-0.391c0.028-0.45,1.078-1.027,1.568-1.333c0.574-0.362,1.709-0.749,1.567-1.178
	c-0.188-0.545-2.269-0.525-2.983-0.47c-0.604,0.049-1.739,0.409-2.817,0.629c-1.437,0.291-3.068,0.952-3.801-0.094
	c-0.047-0.071-0.032-0.065-0.11-0.028c-1.05,0.523-1.563-0.493-2.046-0.975c-0.033-0.024-0.053-0.067,0-0.08
	c1.67-0.291,3.21-1.076,4.86-1.487c0.879-0.224,1.796-0.244,2.663-0.472c0.779-0.208,1.485-0.714,2.272-0.942
	c1.825-0.523,3.713-0.556,5.487-1.253c0.484-0.893,1.854-0.708,3.135-1.02c5.514-1.345,11.778-2.254,17.005-3.682
	c-0.214-1.398-0.814-2.265-0.784-3.762c0.098-4.696,5.021-5.229,7.678-7.524c-0.342-0.749-0.58-1.611-0.781-2.508
	c-1.092,1.135-1.64,2.075-2.663,3.135c-0.274,0.283-1.406,1.894-1.489,1.882v-0.157c-0.258-0.202-0.232-0.291-0.317-0.706
	c-0.33-1.707,1.508-3.55,1.829-4.885c-0.114-0.25-0.094-0.014-0.348-0.464c-0.436,0.899-1.009,1.658-1.473,2.409
	c-0.228,0.37-0.171,0.25-0.157-0.12c0.065-1.479,0.565-2.185,1.09-3.208c0.305-1.083,0.456-1.795,0.765-2.635
	c0.102-0.283,0.09-0.291-0.053-0.562c-1.799-3.365-4.729-6.265-7.137-9.658c-2.395-3.373-4.37-7.3-7.367-9.875
	c-0.338-0.289-1.166-0.899-1.489-1.017c-0.58-0.216-1.266-0.143-1.88-0.313c-0.54-0.152-1.142-0.323-1.644-0.628
	c-0.669-0.405-1.219-1.119-1.884-1.41c-0.991-0.437-1.992-0.401-2.742-0.94c-0.385-0.276-1.005-0.858-0.7-1.516
	c0.071-0.152,0.094-0.134,0.254-0.12c1.463,0.146,2.675,1.121,4.443,1.164c0.071-0.015,0.073-0.126,0.073-0.197
	c0-0.696-0.51-1.288-0.934-1.605c-0.765-0.57-1.929-0.946-2.824-1.489c-0.686-0.415-1.811-0.824-2.112-1.568
	c-0.067-0.173-0.063-0.56,0.076-0.547c1.56,0.456,3.129,1.284,4.5,1.739c0.191,0.061,0.252,0.104,0.057-0.049
	c-0.985-0.757-1.979-1.503-2.749-2.474C27.172,16.835,27.361,16.403,27.722,16.403L27.722,16.403z"/>
</svg>
