<?xml version="1.0" encoding="utf-8"?>
<!DOCTYPE svg PUBLIC "-//W3C//DTD SVG 1.1//EN" "http://www.w3.org/Graphics/SVG/1.1/DTD/svg11.dtd">
<svg version="1.1" xmlns="http://www.w3.org/2000/svg" xmlns:xlink="http://www.w3.org/1999/xlink" x="0px" y="0px" width="216px" height="216px" viewBox="0 0 216 216" enable-background="new 0 0 216 216" xml:space="preserve">
<path fill-rule="evenodd" clip-rule="evenodd" d="M16.119-0.08h183.602
	c8.911,0,16.199,7.29,16.199,16.199v183.602c0,8.907-7.288,16.199-16.199,16.199H16.119c-8.909,0-16.199-7.292-16.199-16.199V16.119
	C-0.08,7.209,7.209-0.08,16.119-0.08L16.119-0.08z M16.119,4.918h183.602c6.161,0,11.198,5.04,11.198,11.2v183.602
	c0,6.161-5.037,11.198-11.198,11.198H16.119c-6.161,0-11.2-5.037-11.2-11.198V16.119C4.918,9.958,9.958,4.918,16.119,4.918
	L16.119,4.918z M161.851,142.905L161.851,142.905v-3.572c-2.637,0.313-5.306,0.329-7.963,0.443c-15.516,0-21.899-4.81-32.104-10.808
	l-2.836,10.181c1.44-1.086,2.856-2.128,4.272-2.966l2.974-1.762l1.474,3.125c1.232,2.612,2.62,6.359,3.776,10.273h0.545
	c1.623,0,2.267-1.143,4.382-1.343c-0.053,2.576-1.835,4.195-3.946,4.928c0.911,3.638,1.514,7.162,1.514,9.814v1.84
	c0.231-0.033,0.5-0.054,0.842-0.054h0.398c3.98,0,8.757,5.018,8.757,9.831v1.782c-3.487-0.085-4.63-5.358-9.554-5.358l-0.443,0.024
	c0,3.617-1.229,8.187-2.856,12.166c1.009,0.46,2.128,0.765,3.698,0.765h2.385c6.363,0,14.534-9.257,17.362-14.025
	C157.257,163.592,161.851,150.156,161.851,142.905L161.851,142.905z M149.908,155.861L149.908,155.861h-1.591
	c-2.637,0-5.575-3.3-5.575-6.254v-1.339c2.56,0.235,3.394,3.572,6.368,3.572c2.796,0,3.728-1.131,5.974-1.339
	C154.881,153.232,152.447,155.861,149.908,155.861L149.908,155.861z M141.412,27.138L141.412,27.138
	c-0.199,0-0.403,0.016-0.606,0.055l-29.659,5.231c-1.664,0.295-2.881,1.746-2.881,3.436v3.489v23.513v2.948
	c-1.768-1.282-4.065-2.039-6.618-2.039c-1.483,0-2.966,0.244-4.413,0.724c-5.119,1.709-9.766,6.973-7.658,12.614
	c1.327,3.556,5.101,5.851,9.607,5.851c4.661,0,9.627-2.468,11.698-6.797c0.565-1.19,0.832-2.435,0.841-3.67l0.032-27.912
	l29.657-5.18v21.177c-1.766-1.286-4.065-2.041-6.62-2.041c-1.481,0-2.963,0.244-4.411,0.727c-5.119,1.709-9.758,6.968-7.654,12.612
	c1.327,3.554,5.099,5.851,9.607,5.851c1.481,0,2.967-0.242,4.411-0.726c4.252-1.414,8.089-5.048,8.13-9.741l0.024-33.145v-3.491
	C144.899,28.71,143.316,27.138,141.412,27.138L141.412,27.138z"/>
</svg>
