<?xml version="1.0" encoding="utf-8"?>
<!DOCTYPE svg PUBLIC "-//W3C//DTD SVG 1.1//EN" "http://www.w3.org/Graphics/SVG/1.1/DTD/svg11.dtd">
<svg version="1.1" xmlns="http://www.w3.org/2000/svg" xmlns:xlink="http://www.w3.org/1999/xlink" x="0px" y="0px" width="216px" height="216px" viewBox="0 0 216 216" enable-background="new 0 0 216 216" xml:space="preserve">
<path d="M156.451,16.279L156.451,16.279l10.938,0.071c-0.691,6.608-0.858,5.859-0.822,20.626
	c0.033,14.771,7.17,62.284,19.32,73.23c-11.32-10.604-16.729-51.728-16.362-73.23c0.362-21.499,0.606-14.006,0.928-20.697h8.269
	c-0.517,6.608-0.793,3.099-0.793,20.697s4.996,58.262,11.405,72.859c-4.68-14.597-8.541-55.261-8.541-72.859
	c0-17.595,0.203-14.089,0.582-20.697h5.135c-0.317,6.608-0.488,0.126-0.488,20.697c0,20.577,3.162,61.776,8.622,73.885
	c-3.373-12.109-5.062-53.308-5.062-73.885c0-20.571,0.105-14.089,0.301-20.697h6.43c-0.745,29.323-0.18,61.57-0.326,89.297v12.463
	l-0.016,0.118l-2.535,0.049c-18.526,0.358-34.314-66.097-35.307-76.412C157.139,31.479,156.731,35.589,156.451,16.279
	L156.451,16.279z M83.431,155.507L83.431,155.507c0.563,7.609,5.322,20.39,8.521,25.285c3.178,4.862,12.203,14.021,18.951,14.021
	c6.148,0,9.773-3.011,12.264-7.23c1.949-3.296,4.854-10.339,4.854-15.552v-8.036c0-6.352-3.918-17.981-5.969-22.335
	c-4.558,2.702-9.703,8.028-15.523,9.835C98.618,153.953,91.688,155.507,83.431,155.507L83.431,155.507z M110.504,162.209
	L110.504,162.209c0-2.922,3.149-6.254,6.372-6.254h0.398c2.552,0,5.97,2.376,5.97,4.911c0,1.937-3.235-0.892-4.777-0.892h-0.794
	c-3.674,0-4.072,2.763-6.771,3.573C110.382,162.371,110.504,163.914,110.504,162.209L110.504,162.209z M92.986,169.802
	L92.986,169.802c0-4.293,2.897-7.593,6.769-7.593c2.059,0,4.319,1.208,4.777,3.125c-2.459,1.322-4-0.623-6.675,1.892
	c-2.081,1.957-1.91,3.927-3.676,5.253C93.375,171.815,92.986,171.458,92.986,169.802L92.986,169.802z M110.902,185.883
	L110.902,185.883h-0.798c-2.765,0-7.564-3.801-7.564-5.363c0-2.466,3.92-0.443,6.37-0.443h0.401c6.734,0,7.308-6.238,10.348-7.149
	c0.272,0.545,0.398,0.479,0.398,1.343v2.677C120.058,181.553,115.541,185.883,110.902,185.883L110.902,185.883z M196.1,129.278
	v7.882l-0.045,57.418h-6.815c-0.244-3.313-0.374-16.045-0.374-24.825c0-8.789,1.969-26.314,4.964-33.594
	c-4.098,7.279-6.795,24.805-6.795,33.594c0,8.78,0.179,21.513,0.513,24.825h-5.29c-0.387-3.313-0.599-14.047-0.599-24.825
	c0-10.787,5.233-33.224,12.472-38.514c-8.337,5.286-14.363,27.727-14.363,38.514c0,10.778,0.24,21.513,0.691,24.825h-8.423
	c-0.528-3.313-0.391-12.231,0.46-24.825C173.346,157.151,182.989,130.022,196.1,129.278L196.1,129.278z M195.587,120.859
	c-2.107,0.272-4.008,0.032-6.323-0.725v8.81c1.803-1.392,4.109-2.368,6.323-2.624V120.859L195.587,120.859z"/>
</svg>
