<?xml version="1.0" encoding="utf-8"?>
<!DOCTYPE svg PUBLIC "-//W3C//DTD SVG 1.1//EN" "http://www.w3.org/Graphics/SVG/1.1/DTD/svg11.dtd">
<svg version="1.1" xmlns="http://www.w3.org/2000/svg" xmlns:xlink="http://www.w3.org/1999/xlink" x="0px" y="0px" width="216px" height="216px" viewBox="0 0 216 216" enable-background="new 0 0 216 216" xml:space="preserve">
<path id="_x33_" fill-rule="evenodd" clip-rule="evenodd" fill="#F58031" d="M155.95,130.792L155.95,130.792l26.782-11.165
	l-26.782-10.356V130.792L155.95,130.792z M143.149,175.213L143.149,175.213h-20.17l29.684-37.793L143.149,175.213L143.149,175.213z
	 M158.181,153.306L158.181,153.306l5.729,21.907h19.995l-29.301-38.61L158.181,153.306L158.181,153.306z M108.825,176.837h-7.916
	l51.176-40.702h2.946l51.339,40.702H108.825L108.825,176.837z"/>
<path id="_x32_" fill-rule="evenodd" clip-rule="evenodd" fill="#999557" d="M16.119-0.08h183.602
	c8.911,0,16.199,7.29,16.199,16.199v183.602c0,8.907-7.288,16.199-16.199,16.199H16.119c-8.909,0-16.199-7.292-16.199-16.199V16.119
	C-0.08,7.209,7.209-0.08,16.119-0.08L16.119-0.08z M16.119,4.918h183.602c6.161,0,11.198,5.04,11.198,11.2v183.602
	c0,6.161-5.037,11.198-11.198,11.198H16.119c-6.161,0-11.2-5.037-11.2-11.198V16.119C4.918,9.958,9.958,4.918,16.119,4.918
	L16.119,4.918z M108.825,188.332L108.825,188.332h-2.191v4.606c30.05,0.016,60.918,0,91.488,0h1.583v-4.606l-2.856,0.004v-9.086
	h-88.023V188.332L108.825,188.332z M186.102,182.172L186.102,182.172v6.16h-65.148v-6.16H186.102L186.102,182.172z M85.9,137.176
	L85.9,137.176c3.135-0.329,6.197-0.903,9.167-1.7l0.197,0.231l0.305,0.289l0.307,0.289l0.336,0.252l0.337,0.252l0.364,0.212
	l0.366,0.208l0.383,0.166l0.388,0.167l0.403,0.118l0.403,0.126l0.415,0.069l0.35,0.062l6.012,13.969l6.234-4.956l-5.55-11.857
	l0.008-0.008l0.23-0.35l0.232-0.354l0.187-0.374l0.189-0.375l0.145-0.395l0.143-0.398l0.098-0.407l0.098-0.411l0.049-0.415
	l0.049-0.419v-0.419v-0.325c2.986-1.615,5.814-3.476,8.468-5.563l0.073,0.032l0.402,0.122l0.407,0.118l0.411,0.073l0.415,0.073
	l0.419,0.024l0.419,0.024l0.419-0.024l0.419-0.024l0.415-0.073l0.415-0.073l0.403-0.118l0.402-0.122l0.387-0.167l0.387-0.166
	l0.366-0.208l0.362-0.212l0.338-0.252l0.333-0.252l0.31-0.289l0.305-0.285l0.273-0.325l0.269-0.321l0.231-0.351l0.228-0.35
	l0.191-0.378l0.188-0.375l0.143-0.395l0.146-0.395l0.098-0.411l0.098-0.411l0.045-0.415l0.053-0.419v-0.419v-0.419l-0.053-0.424
	l-0.045-0.415l-0.098-0.406l-0.098-0.411l-0.126-0.354c2.087-2.567,3.963-5.313,5.606-8.211v-1.496
	c-3.882-1.058-5.48-5.597-7.141-8.925c-0.313-0.623-0.635-1.245-0.952-1.863L89.988,81.526c0.193-0.621,0.333-1.264,0.417-1.921
	l24.721-0.146c-0.436-0.824-0.879-1.646-1.33-2.458l-23.351,0.14c-0.051-0.549-0.143-1.086-0.271-1.609l18.551-7.908l-1.109-2.208
	l-18.291,7.798c-0.36-0.722-0.795-1.4-1.298-2.022l14.634-15.072c-0.391-0.734-0.797-1.505-1.205-2.299L86.281,69.453
	c-0.492-0.395-1.021-0.747-1.579-1.056l13.981-35.673l0.175,0.053l0.415,0.073l0.413,0.075l0.419,0.022l0.419,0.024l0.421-0.024
	l0.419-0.022l0.413-0.075h0.008c2.265-1.807,5.019-2.987,7.672-4.313c0.4-0.199,0.798-0.4,1.198-0.604
	c-0.958-0.588-1.929-1.152-2.921-1.687l0.01-0.087V25.74v-0.419l-0.049-0.419l-0.049-0.417l-0.098-0.409l-0.098-0.409l-0.143-0.395
	l-0.145-0.395l-0.189-0.376l-0.187-0.376l-0.232-0.352l-0.23-0.35l-0.271-0.324l-0.272-0.321l-0.303-0.287l-0.307-0.291l-0.338-0.25
	l-0.335-0.252l-0.364-0.209l-0.364-0.209l-0.387-0.167L103,18.944l-0.403-0.122l-0.403-0.12l-0.417-0.071l-0.413-0.073l-0.419-0.024
	l-0.421-0.024l-0.419,0.024l-0.419,0.024l-0.413,0.073l-0.415,0.071l-0.403,0.12l-0.403,0.122l-0.388,0.167l-0.383,0.167
	l-0.366,0.209l-0.364,0.209l-0.337,0.252l-0.336,0.25l-0.307,0.291l-0.305,0.287l-0.271,0.321l-0.055,0.069
	c-2.913-0.777-5.912-1.343-8.984-1.668l-0.024-0.106L85.789,19l-0.145-0.395l-0.189-0.376l-0.187-0.375l-0.232-0.352l-0.232-0.35
	l-0.269-0.324l-0.271-0.323l-0.307-0.289l-0.305-0.287l-0.338-0.252l-0.338-0.25l-0.364-0.209l-0.364-0.211l-0.385-0.165
	l-0.389-0.167l-0.401-0.122l-0.405-0.12l-0.411-0.073l-0.417-0.073l-0.417-0.024l-0.419-0.024l-0.421,0.024l-0.421,0.024
	l-0.411,0.073l-0.417,0.073l-0.403,0.12l-0.403,0.122l-0.384,0.167l-0.387,0.165l-0.364,0.211l-0.364,0.209l-0.337,0.25
	l-0.338,0.252l-0.305,0.287l-0.305,0.289l-0.272,0.323l-0.269,0.324l-0.232,0.35l-0.228,0.352l-0.191,0.375l-0.187,0.376L72.218,19
	l-0.143,0.395l-0.063,0.265c-3.036,0.393-5.998,1.017-8.873,1.852l-0.059-0.087l-0.269-0.324l-0.272-0.321l-0.303-0.287L61.93,20.2
	l-0.338-0.25l-0.335-0.252l-0.366-0.209l-0.362-0.209l-0.386-0.167l-0.387-0.167l-0.403-0.122l-0.403-0.12l-0.413-0.071
	l-0.415-0.073L57.7,18.534l-0.419-0.024l-0.419,0.024l-0.419,0.024l-0.415,0.073l-0.415,0.071l-0.4,0.12l-0.405,0.122l-0.384,0.167
	l-0.387,0.167l-0.364,0.209l-0.364,0.209L52.97,19.95l-0.338,0.25l-0.305,0.291l-0.305,0.287l-0.271,0.321l-0.271,0.324l-0.23,0.35
	l-0.232,0.352l-0.189,0.376l-0.189,0.376l-0.143,0.395l-0.144,0.395l-0.098,0.409l-0.096,0.409l-0.049,0.417l-0.049,0.419v0.419
	v0.419l0.049,0.421l0.049,0.417l0.01,0.041c-2.631,1.516-5.135,3.227-7.489,5.114l-0.024-0.014l-0.366-0.211l-0.384-0.165
	l-0.389-0.167l-0.403-0.122l-0.403-0.12l-0.413-0.071l-0.415-0.073l-0.417-0.024l-0.421-0.026l-0.421,0.026l-0.419,0.024
	l-0.413,0.073l-0.417,0.071l-0.4,0.12l-0.403,0.122l-0.387,0.167L35.8,31.927l-0.364,0.211L35.07,32.35l-0.336,0.248l-0.338,0.252
	l-0.305,0.289l-0.307,0.289l-0.271,0.321l-0.269,0.324l-0.232,0.352l-0.232,0.35l-0.187,0.375l-0.189,0.376l-0.145,0.396
	l-0.144,0.395l-0.096,0.409l-0.096,0.409l-0.051,0.417l-0.049,0.417v0.421v0.421l0.049,0.419l0.051,0.415l0.096,0.411l0.096,0.409
	l0.144,0.395l0.145,0.395l0.189,0.376l0.187,0.375l0.083,0.124c-1.76,2.271-3.353,4.673-4.771,7.186l-0.201-0.037l-0.421-0.024
	l-0.419-0.022l-0.419,0.022l-0.421,0.024l-0.413,0.073l-0.413,0.073l-0.405,0.12l-0.403,0.122l-0.387,0.165L23.807,50l-0.364,0.211
	l-0.364,0.209l-0.338,0.25l-0.337,0.254l-0.305,0.285l-0.305,0.291l-0.273,0.321l-0.271,0.321l-0.228,0.352l-0.232,0.35
	l-0.191,0.376l-0.187,0.376l-0.143,0.395l-0.146,0.395l-0.096,0.409l-0.096,0.409l-0.049,0.419l-0.051,0.417v0.421v0.419
	l0.051,0.419l0.049,0.417l0.096,0.409l0.096,0.411l0.146,0.395l0.143,0.395l0.187,0.375l0.191,0.376l0.232,0.352l0.228,0.35
	l0.271,0.321l0.273,0.324l0.305,0.289l0.305,0.289l0.309,0.23c-0.808,2.858-1.404,5.807-1.774,8.824l-0.315,0.057l-0.403,0.12
	l-0.403,0.122l-0.387,0.167l-0.386,0.165l-0.364,0.211l-0.364,0.208l-0.336,0.252l-0.339,0.252L17.335,72.9l-0.303,0.287
	l-0.273,0.324l-0.271,0.321l-0.23,0.352l-0.232,0.35l-0.189,0.378l-0.187,0.374l-0.145,0.395l-0.145,0.395l-0.096,0.411
	l-0.098,0.407l-0.047,0.419l-0.051,0.417v0.188v0.234v0.185v0.236v0.185l0.051,0.419l0.047,0.415l0.098,0.411l0.096,0.409
	l0.145,0.395l0.145,0.397l0.187,0.376l0.189,0.374l0.232,0.35l0.23,0.352l0.271,0.323l0.273,0.32l0.303,0.291l0.305,0.287
	l0.339,0.252l0.336,0.25l0.364,0.211l0.364,0.21l0.386,0.167l0.387,0.167l0.403,0.12l0.403,0.12l0.293,0.053
	c0.36,3.027,0.952,5.988,1.756,8.86l-0.269,0.197l-0.305,0.289l-0.305,0.291l-0.273,0.319l-0.271,0.323l-0.228,0.352l-0.232,0.35
	l-0.191,0.376l-0.187,0.376l-0.143,0.395l-0.146,0.395l-0.096,0.409l-0.096,0.409l-0.049,0.417l-0.051,0.419v0.421v0.419
	l0.051,0.417l0.049,0.419l0.096,0.409l0.096,0.409l0.146,0.395l0.143,0.397l0.187,0.374l0.191,0.375l0.232,0.354l0.228,0.35
	l0.271,0.321l0.273,0.322l0.305,0.289l0.305,0.289l0.337,0.252l0.338,0.25l0.364,0.209l0.364,0.209l0.384,0.167l0.387,0.167
	l0.403,0.12l0.405,0.12l0.413,0.073l0.413,0.073l0.421,0.024l0.419,0.024l0.419-0.024l0.421-0.024l0.104-0.018
	c1.426,2.547,3.031,4.975,4.801,7.268l-0.016,0.024l-0.187,0.374l-0.189,0.374l-0.145,0.399l-0.144,0.395l-0.096,0.411l-0.096,0.406
	l-0.051,0.415l-0.049,0.424v0.419v0.419l0.049,0.419l0.051,0.415l0.096,0.411l0.096,0.411l0.144,0.395l0.145,0.395l0.189,0.375
	l0.187,0.378l0.232,0.35l0.232,0.351l0.269,0.321l0.271,0.325l0.307,0.285l0.305,0.289l0.338,0.252l0.336,0.252l0.366,0.212
	l0.364,0.208l0.385,0.166l0.387,0.167l0.403,0.122l0.4,0.118l0.417,0.073l0.413,0.073l0.419,0.024l0.421,0.024l0.421-0.024
	l0.417-0.024l0.415-0.073l0.413-0.073l0.403-0.118l0.403-0.122l0.389-0.167l0.384-0.166l0.256-0.146
	c2.387,1.924,4.926,3.67,7.597,5.212l-0.032,0.285l-0.049,0.419v0.419v0.419l0.049,0.419L50.16,132l0.096,0.411l0.098,0.407
	l0.144,0.398l0.143,0.395l0.189,0.375l0.189,0.374l0.232,0.354l0.23,0.35l0.155,0.183l-5.522,13.745
	c1.854,0.387,3.646,0.973,5.446,1.62c0.73-0.969,1.665-1.762,2.796-2.291l4.181-10.466l0.413-0.069l0.403-0.126l0.403-0.118
	l0.387-0.167l0.386-0.166l0.362-0.208l0.366-0.212l0.335-0.252l0.338-0.252l0.307-0.289l0.303-0.289l0.272-0.321l0.216-0.257
	c2.924,0.855,5.939,1.494,9.029,1.893l0.018,0.069l0.143,0.395l0.146,0.398l0.187,0.375l0.191,0.374l0.228,0.354l0.232,0.351
	l0.269,0.321l0.272,0.321l0.305,0.289l0.305,0.289l0.338,0.252l0.337,0.248l0.364,0.212l0.364,0.212l0.387,0.167l0.384,0.166
	l0.403,0.118l0.403,0.122l0.417,0.073l0.411,0.073l0.421,0.024l0.421,0.024l0.419-0.024l0.417-0.024l0.417-0.073l0.411-0.073
	l0.405-0.122l0.401-0.118l0.389-0.166l0.385-0.167l0.364-0.212l0.364-0.212l0.338-0.248l0.338-0.252l0.305-0.289l0.307-0.289
	l0.271-0.321l0.269-0.321l0.232-0.351l0.232-0.354l0.187-0.374l0.189-0.375l0.145-0.398L85.9,137.176L85.9,137.176z M73.528,68.642
	L73.528,68.642L59.415,32.637l-0.063,0.021l-0.403,0.12l-0.413,0.073l-0.415,0.075L57.7,32.948l-0.419,0.024l-0.419-0.024
	l-0.419-0.022l-0.415-0.075l-0.415-0.073l-0.4-0.12l-0.405-0.122l-0.384-0.165l-0.387-0.167l-0.364-0.209l-0.364-0.212l-0.338-0.25
	l-0.315-0.236c-2.393,1.379-4.673,2.932-6.817,4.645l0.136,0.376l0.096,0.409l0.1,0.409l0.049,0.417l0.049,0.417v0.421v0.421
	l-0.049,0.419l-0.049,0.415l-0.1,0.411l-0.096,0.409l-0.145,0.395l-0.143,0.395l-0.189,0.376l-0.189,0.375l-0.042,0.065
	L72.08,69.688C72.534,69.303,73.018,68.951,73.528,68.642L73.528,68.642z M61.621,31.51L61.621,31.51L75.767,67.6
	c0.665-0.226,1.361-0.387,2.077-0.482V28.594l-0.092-0.014l-0.417-0.075l-0.403-0.118l-0.403-0.122l-0.384-0.167l-0.387-0.167
	l-0.364-0.209l-0.364-0.21l-0.337-0.252l-0.338-0.25l-0.305-0.289l-0.305-0.287l-0.272-0.326l-0.269-0.321l-0.232-0.35l-0.228-0.352
	l-0.191-0.376l-0.069-0.136c-2.734,0.36-5.404,0.932-7.994,1.685l-0.037,0.323l-0.049,0.417l-0.098,0.409l-0.098,0.407l-0.143,0.397
	l-0.145,0.395l-0.189,0.376l-0.189,0.376l-0.228,0.35l-0.234,0.352l-0.269,0.321l-0.272,0.324l-0.303,0.287L61.93,31.28
	L61.621,31.51L61.621,31.51z M96.439,31.697L96.439,31.697L82.423,67.458c-0.68-0.195-1.388-0.33-2.114-0.395V28.57l0.36-0.065
	l0.405-0.118l0.401-0.122l0.389-0.167l0.385-0.167l0.364-0.209l0.364-0.21l0.338-0.252l0.338-0.25l0.305-0.289l0.307-0.287
	l0.271-0.326l0.269-0.321l0.232-0.35l0.232-0.352l0.187-0.376l0.145-0.285c2.631,0.287,5.202,0.763,7.705,1.412v0.324l0.051,0.421
	l0.049,0.417l0.098,0.409l0.095,0.407l0.145,0.397l0.145,0.395l0.189,0.376l0.187,0.376l0.232,0.35l0.232,0.352l0.269,0.321
	l0.271,0.324l0.305,0.287l0.307,0.289l0.336,0.252L96.439,31.697L96.439,31.697z M70.387,71.486L70.387,71.486L43.662,43.955
	l-0.305,0.226l-0.337,0.252l-0.362,0.209l-0.366,0.211l-0.384,0.165l-0.389,0.167l-0.403,0.122l-0.403,0.12l-0.413,0.073
	l-0.415,0.073l-0.417,0.024l-0.421,0.024l-0.421-0.024l-0.419-0.024l-0.413-0.073l-0.417-0.073l-0.4-0.12l-0.271-0.081
	c-1.566,2.03-2.995,4.177-4.266,6.423l0.145,0.173l0.271,0.321l0.23,0.352l0.232,0.35l0.191,0.376l0.188,0.376l0.142,0.395
	l0.146,0.395l0.096,0.409l0.098,0.409l0.047,0.419l0.051,0.417v0.421v0.419l-0.051,0.419l-0.047,0.417l-0.098,0.409l-0.061,0.257
	l35.215,15.013C69.555,72.719,69.941,72.08,70.387,71.486L70.387,71.486z M68.424,75.732L68.424,75.732L32.964,60.613l-0.112,0.167
	l-0.271,0.321l-0.271,0.324l-0.306,0.289l-0.305,0.289l-0.338,0.25l-0.336,0.252l-0.366,0.209l-0.364,0.212l-0.384,0.165
	l-0.389,0.167l-0.401,0.12L28.72,63.5l-0.415,0.071l-0.413,0.073l-0.421,0.024l-0.041,0.004c-0.741,2.647-1.29,5.375-1.622,8.17
	l0.091,0.055l0.364,0.208l0.338,0.252l0.338,0.252l0.305,0.289l0.308,0.287l0.269,0.324l0.272,0.321l0.23,0.352l0.23,0.35
	l0.189,0.378l0.189,0.374l0.142,0.395l0.145,0.395l0.096,0.411l0.098,0.407l0.002,0.022L68.2,77.144
	C68.245,76.662,68.32,76.194,68.424,75.732L68.424,75.732z M68.239,79.607L68.239,79.607l-38.8-0.229l-0.026,0.213l-0.098,0.411
	l-0.096,0.409l-0.145,0.395l-0.142,0.397l-0.189,0.376l-0.189,0.374l-0.23,0.35l-0.23,0.352l-0.272,0.323l-0.269,0.32l-0.308,0.291
	l-0.305,0.287l-0.338,0.252l-0.338,0.25L25.9,84.59l-0.11,0.063c0.324,2.789,0.861,5.513,1.593,8.16l0.087,0.004l0.421,0.024
	l0.413,0.073l0.415,0.073l0.403,0.12l0.401,0.12l0.389,0.167l0.384,0.167l0.364,0.209l0.366,0.211l0.336,0.248l0.338,0.252
	l0.305,0.289l0.306,0.291l0.271,0.319l0.271,0.323l0.197,0.295l35.551-14.665C68.436,80.777,68.314,80.202,68.239,79.607
	L68.239,79.607z M69.553,83.611L69.553,83.611L34.051,98.254l0.026,0.106l0.098,0.409l0.047,0.417l0.051,0.419v0.421v0.419
	l-0.051,0.417l-0.047,0.419l-0.098,0.409l-0.096,0.409l-0.146,0.395l-0.142,0.397l-0.188,0.374l-0.191,0.375l-0.232,0.354
	l-0.23,0.35l-0.271,0.321l-0.208,0.249c1.257,2.229,2.665,4.361,4.215,6.382l0.385-0.116l0.4-0.12l0.417-0.07l0.413-0.073
	l0.419-0.026l0.421-0.025l0.421,0.025l0.417,0.026l0.415,0.073l0.413,0.07l0.403,0.12l0.403,0.12l0.389,0.167l0.03,0.015
	l28.39-26.668C70.043,84.429,69.783,84.028,69.553,83.611L69.553,83.611z M88.997,83.782L88.997,83.782l34.788,14.348l-0.053,0.23
	l-0.103,0.409l-0.044,0.417l-0.054,0.419v0.421v0.419l0.054,0.417l0.044,0.419l0.103,0.409l0.093,0.409l0.143,0.395l0.146,0.397
	l0.188,0.374l0.191,0.375l0.228,0.354l0.236,0.35l0.265,0.321l0.272,0.322l0.305,0.289l0.31,0.289l0.321,0.242
	c-1.237,2.097-2.608,4.106-4.105,6.012l-0.317-0.186l-0.387-0.167l-0.387-0.167l-0.402-0.12l-0.403-0.12l-0.415-0.07l-0.415-0.073
	l-0.419-0.026l-0.419-0.025l-0.419,0.025l-0.419,0.026l-0.415,0.073l-0.411,0.07l-0.407,0.12l-0.402,0.12l-0.191,0.084
	l-27.987-26.29C88.433,84.678,88.73,84.24,88.997,83.782L88.997,83.782z M71.997,86.623L71.997,86.623L44.04,112.884l0.265,0.248
	l0.272,0.322l0.269,0.325l0.232,0.35l0.23,0.351l0.189,0.374l0.189,0.374l0.143,0.399l0.145,0.395l0.096,0.411l0.1,0.406
	l0.049,0.415l0.049,0.424v0.419v0.419l-0.049,0.419l-0.049,0.415l-0.1,0.411l-0.096,0.411l-0.145,0.395l-0.045,0.126
	c2.124,1.697,4.378,3.239,6.747,4.61l0.102-0.098l0.338-0.252l0.338-0.248l0.364-0.212l0.364-0.208l0.387-0.166l0.384-0.167
	l0.405-0.122l0.4-0.122l0.415-0.073l0.415-0.073l0.094-0.005l15.477-36.918L71.997,86.623L71.997,86.623z M86.378,86.851
	L86.378,86.851l27.551,25.879l-0.126,0.114l-0.301,0.288l-0.273,0.322l-0.269,0.325l-0.231,0.35l-0.232,0.351l-0.188,0.374
	l-0.188,0.374l-0.145,0.399l-0.143,0.395l-0.098,0.411l-0.098,0.406l-0.049,0.415l-0.049,0.424v0.419v0.419l0.049,0.419l0.049,0.415
	l0.098,0.411l0.098,0.411l0.143,0.395l0.145,0.395l0.188,0.375l0.111,0.219c-2.081,1.583-4.28,3.016-6.583,4.289l-0.053-0.061
	l-0.303-0.289l-0.307-0.289l-0.338-0.252l-0.335-0.248l-0.364-0.212l-0.364-0.208l-0.387-0.166L103,123.952l-0.403-0.122
	l-0.403-0.122l-0.417-0.073l-0.273-0.045L86.173,87.017C86.242,86.962,86.312,86.905,86.378,86.851L86.378,86.851z M77.844,91.802
	L77.844,91.802v36.088l-0.092,0.021l-0.417,0.069l-0.403,0.122l-0.403,0.118l-0.384,0.166l-0.387,0.171l-0.364,0.208l-0.364,0.207
	l-0.337,0.257l-0.338,0.248l-0.305,0.289l-0.305,0.289l-0.272,0.321l-0.269,0.321l-0.232,0.35l-0.228,0.354l-0.191,0.374
	l-0.157,0.313c-2.7-0.366-5.336-0.924-7.896-1.668v-0.094l-0.047-0.419l-0.049-0.419l-0.098-0.407l-0.098-0.411l-0.143-0.395
	l-0.145-0.395l-0.189-0.375l-0.189-0.378l-0.228-0.351l-0.082-0.121L77.844,91.802L77.844,91.802z M79.404,85.349L79.404,85.349
	c-3.813,0-6.905-3.09-6.905-6.901c0-3.813,3.092-6.905,6.905-6.905c3.813,0,6.903,3.092,6.903,6.905
	C86.307,82.259,83.217,85.349,79.404,85.349L79.404,85.349z M119.016,114.202L119.016,114.202c-1.851,0-3.353,1.502-3.353,3.354
	c0,1.851,1.502,3.353,3.353,3.353c1.852,0,3.354-1.502,3.354-3.353C122.369,115.704,120.867,114.202,119.016,114.202
	L119.016,114.202z M100.846,127.154L100.846,127.154c-1.849,0-3.351,1.501-3.351,3.349c0,1.852,1.501,3.353,3.351,3.353
	c1.852,0,3.353-1.501,3.353-3.353C104.199,128.655,102.697,127.154,100.846,127.154L100.846,127.154z M79.124,131.748
	L79.124,131.748c-1.85,0-3.351,1.502-3.351,3.353c0,1.852,1.501,3.354,3.351,3.354c1.851,0,3.353-1.502,3.353-3.354
	C82.476,133.25,80.975,131.748,79.124,131.748L79.124,131.748z M56.774,127.361L56.774,127.361c-1.85,0-3.351,1.502-3.351,3.354
	s1.501,3.353,3.351,3.353c1.854,0,3.353-1.501,3.353-3.353S58.628,127.361,56.774,127.361L56.774,127.361z M39.021,114.829
	L39.021,114.829c-1.849,0-3.351,1.501-3.351,3.353s1.501,3.354,3.351,3.354c1.852,0,3.353-1.502,3.353-3.354
	S40.873,114.829,39.021,114.829L39.021,114.829z M26.698,96.451L26.698,96.451c-1.852,0-3.351,1.501-3.351,3.351
	c0,1.851,1.5,3.351,3.351,3.351c1.851,0,3.353-1.5,3.353-3.351C30.051,97.953,28.549,96.451,26.698,96.451L26.698,96.451z
	 M22.104,81.642L22.104,81.642c-1.851,0-3.353-1.501-3.353-3.353c0-1.849,1.501-3.351,3.353-3.351c1.85,0,3.351,1.501,3.351,3.351
	C25.455,80.141,23.954,81.642,22.104,81.642L22.104,81.642z M26.698,59.5L26.698,59.5c-1.852,0-3.351-1.5-3.351-3.351
	c0-1.851,1.5-3.353,3.351-3.353c1.851,0,3.353,1.501,3.353,3.353C30.051,58.001,28.549,59.5,26.698,59.5L26.698,59.5z
	 M39.021,41.121L39.021,41.121c-1.849,0-3.351-1.501-3.351-3.351c0-1.852,1.501-3.353,3.351-3.353c1.852,0,3.353,1.501,3.353,3.353
	C42.374,39.619,40.873,41.121,39.021,41.121L39.021,41.121z M56.774,28.588L56.774,28.588c-1.85,0-3.351-1.501-3.351-3.353
	c0-1.85,1.501-3.351,3.351-3.351c1.854,0,3.353,1.501,3.353,3.351C60.127,27.087,58.628,28.588,56.774,28.588L56.774,28.588z
	 M79.124,24.202L79.124,24.202c-1.85,0-3.351-1.5-3.351-3.351c0-1.85,1.501-3.351,3.351-3.351c1.851,0,3.353,1.501,3.353,3.351
	C82.476,22.702,80.975,24.202,79.124,24.202L79.124,24.202z M100.846,28.798L100.846,28.798c-1.849,0-3.351-1.501-3.351-3.351
	c0-1.851,1.501-3.351,3.351-3.351c1.852,0,3.353,1.5,3.353,3.351C104.199,27.296,102.697,28.798,100.846,28.798L100.846,28.798z
	 M80.31,127.915v-36.07l14.469,34.515l-0.053,0.065l-0.232,0.354l-0.232,0.351l-0.187,0.378l-0.189,0.375l-0.145,0.395l-0.145,0.395
	l-0.095,0.411l-0.098,0.407l-0.049,0.419l-0.051,0.419v0.419v0.09c-2.478,0.643-5.025,1.114-7.627,1.403l-0.033-0.085l-0.189-0.379
	l-0.187-0.374l-0.232-0.354l-0.232-0.35l-0.269-0.321l-0.271-0.321l-0.307-0.289l-0.305-0.289l-0.338-0.248l-0.338-0.257
	l-0.364-0.207l-0.364-0.208l-0.385-0.171l-0.389-0.166l-0.401-0.118l-0.405-0.122L80.31,127.915L80.31,127.915z M154.604,135.093
	L154.604,135.093v-29.618h-2.148v29.618H154.604L154.604,135.093z"/>
<path id="_x31_" fill-rule="evenodd" clip-rule="evenodd" fill="#7E5628" d="M88.775,154.893c6.704,0,7.465-2.474,11.363-3.17
	c0.342,1.119,0.517,0.676,0.517,1.583c0.002,3.431-6.1,13.396-7.168,18.636c-1.304,6.389-6.307,12.232-15.54,12.236h-1.548
	c-8.204,0.004-11.611-3.553-18.598-3.549c-5.852,0.004-9.953,3.564-18.077,3.573h-2.067c-7.715,0.008-14.161-6.283-14.972-11.87
	c-0.885-6.095-6.738-14.164-6.738-17.789l-0.004-2.768c4.335,0.77,4.773,3.162,11.367,3.158h2.065
	c4.38-0.004,6.689-1.587,11.363-1.591c4.502-0.005,9.304,2.299,12.4,3.552c0,4.021,1.294,4.573,4.651,5.933
	c4.098-0.732,5.166-2.087,5.162-5.937c3.247-1.318,8.201-3.568,12.911-3.568c4.35-0.004,7.015,1.574,11.362,1.574L88.775,154.893
	L88.775,154.893z M88.785,167.556L88.785,167.556c-0.002-1.693-9.788-4.745-12.917-4.74c-7.082,0.004-12.758,6.314-12.905,11.479
	l4.63,0.484l4.148-0.09C78.507,174.685,88.787,171.877,88.785,167.556L88.785,167.556z M53.149,174.302L53.149,174.302
	c-0.151-5.025-6.063-11.071-12.921-11.067c-3.64,0-12.911,3.259-12.909,5.151c0.002,3.296,7.87,6.327,12.917,6.323L48.5,174.7
	L53.149,174.302L53.149,174.302z M151.349,78.25L151.349,78.25c-0.004-5.534,11.251-15.861,15.039-18.398
	c0.558,0.832,7.234,6.871,8.659,8.295c2.222,2.215,6.152,6.411,6.156,10.565v0.476c0,3.713-2.475,6.689-6.205,6.691l-0.24,0.002
	c-1.095,0-4.558-2.834-5.974-3.581c-0.862,0.202-2.148,0.686-2.148,1.672v0.718c0,0.051,3.052,6.366,3.349,7.64l-7.642,0.004
	c0.781-1.477,1.217-3.019,1.904-4.541c0.586-1.278,2.12-3.027,1.343-4.439c-1.867-3.375-5.358,2.535-8.268,2.535
	c-3.483,0.004-5.97-2.736-5.97-6.205L151.349,78.25L151.349,78.25z M187.237,114.243L187.237,114.243h-9.09l9.896,3.825h0.15
	c3.931,0,7.178-3.247,7.178-7.178v-71.06c0-3.591-3.101-6.94-6.697-6.94h-46.176c-3.711,0-6.461,3.894-6.461,7.898v68.665
	c0,5.045,2.665,8.614,7.657,8.614h4.903v-3.825h-4.427c-2.145,0-4.065-1.119-4.065-3.113V39.593c0-1.334,1.538-2.873,2.869-2.873
	h45.219c2.035,0,3.349,1.57,3.349,3.591v70.341C191.542,113.104,189.711,114.243,187.237,114.243L187.237,114.243z M105.892,42.226
	L105.892,42.226c0-3.031,7.294-5.811,9.727-7.021c3.76-1.868,7.422-3.709,11.048-5.703c2.278-1.253,21.317-11.204,22.29-11.204
	c4.716,0,6.738,13.159,10.046,13.159c0.879,0,1.917-0.662,1.917-1.435v-0.24c0-1.758-3.471-7.407-4.305-9.09
	c-1.331-2.682-3.036-6.222-6.938-6.222h-0.72c-3.365,0-20.979,10.03-25.041,12.042c-4.183,2.073-8.13,4.305-12.282,6.378
	c-3.489,1.744-9.57,3.947-9.57,8.856v0.714c0,2.429,5.75,12.964,7.095,15.397c2.683,4.851,4.996,10.098,7.734,14.754
	c2.527,4.293,5.416,10.305,7.662,14.832c1.254,2.533,2.588,4.932,3.825,7.416c0.781,1.561,2.571,6.459,4.549,6.459
	c1.156,0,1.913-0.757,1.913-1.913c0-1.127-12.891-25.305-14.515-28.552C118.613,67.429,105.892,43.747,105.892,42.226
	L105.892,42.226z"/>
</svg>
