<?xml version="1.0" encoding="utf-8"?>
<!DOCTYPE svg PUBLIC "-//W3C//DTD SVG 1.1//EN" "http://www.w3.org/Graphics/SVG/1.1/DTD/svg11.dtd">
<svg version="1.1" xmlns="http://www.w3.org/2000/svg" xmlns:xlink="http://www.w3.org/1999/xlink" x="0px" y="0px" width="216px" height="216px" viewBox="0 0 216 216" enable-background="new 0 0 216 216" xml:space="preserve">
<path fill-rule="evenodd" clip-rule="evenodd" d="M88.775,154.893c6.704,0,7.465-2.474,11.363-3.17
	c0.342,1.119,0.517,0.676,0.517,1.583c0.002,3.431-6.1,13.396-7.168,18.636c-1.304,6.389-6.307,12.232-15.54,12.236h-1.548
	c-8.204,0.004-11.611-3.553-18.598-3.549c-5.852,0.004-9.953,3.564-18.077,3.573h-2.067c-7.715,0.008-14.161-6.283-14.972-11.87
	c-0.885-6.095-6.738-14.164-6.738-17.789l-0.004-2.768c4.335,0.77,4.773,3.162,11.367,3.158h2.065
	c4.38-0.004,6.689-1.587,11.363-1.591c4.502-0.005,9.304,2.299,12.4,3.552c0,4.021,1.294,4.573,4.651,5.933
	c4.098-0.732,5.166-2.087,5.162-5.937c3.247-1.318,8.201-3.568,12.911-3.568c4.35-0.004,7.015,1.574,11.362,1.574L88.775,154.893
	L88.775,154.893z M88.785,167.556L88.785,167.556c-0.002-1.693-9.788-4.745-12.917-4.74c-7.082,0.004-12.758,6.314-12.905,11.479
	l4.63,0.484l4.148-0.09C78.507,174.685,88.787,171.877,88.785,167.556L88.785,167.556z M53.149,174.302L53.149,174.302
	c-0.151-5.025-6.063-11.071-12.921-11.067c-3.64,0-12.911,3.259-12.909,5.151c0.002,3.296,7.87,6.327,12.917,6.323L48.5,174.7
	L53.149,174.302L53.149,174.302z M151.349,78.25L151.349,78.25c-0.004-5.534,11.251-15.861,15.039-18.398
	c0.558,0.832,7.234,6.871,8.659,8.295c2.222,2.215,6.152,6.411,6.156,10.565v0.476c0,3.713-2.475,6.689-6.205,6.691l-0.24,0.002
	c-1.095,0-4.558-2.834-5.974-3.581c-0.862,0.202-2.148,0.686-2.148,1.672v0.718c0,0.051,3.052,6.366,3.349,7.64l-7.642,0.004
	c0.781-1.477,1.217-3.019,1.904-4.541c0.586-1.278,2.12-3.027,1.343-4.439c-1.867-3.375-5.358,2.535-8.268,2.535
	c-3.483,0.004-5.97-2.736-5.97-6.205L151.349,78.25L151.349,78.25z M187.237,114.243L187.237,114.243h-9.09l9.896,3.825h0.15
	c3.931,0,7.178-3.247,7.178-7.178v-71.06c0-3.591-3.101-6.94-6.697-6.94h-46.176c-3.711,0-6.461,3.894-6.461,7.898v68.665
	c0,5.045,2.665,8.614,7.657,8.614h4.903v-3.825h-4.427c-2.145,0-4.065-1.119-4.065-3.113V39.593c0-1.334,1.538-2.873,2.869-2.873
	h45.219c2.035,0,3.349,1.57,3.349,3.591v70.341C191.542,113.104,189.711,114.243,187.237,114.243L187.237,114.243z M105.892,42.226
	L105.892,42.226c0-3.031,7.294-5.811,9.727-7.021c3.76-1.868,7.422-3.709,11.048-5.703c2.278-1.253,21.317-11.204,22.29-11.204
	c4.716,0,6.738,13.159,10.046,13.159c0.879,0,1.917-0.662,1.917-1.435v-0.24c0-1.758-3.471-7.407-4.305-9.09
	c-1.331-2.682-3.036-6.222-6.938-6.222h-0.72c-3.365,0-20.979,10.03-25.041,12.042c-4.183,2.073-8.13,4.305-12.282,6.378
	c-3.489,1.744-9.57,3.947-9.57,8.856v0.714c0,2.429,5.75,12.964,7.095,15.397c2.683,4.851,4.996,10.098,7.734,14.754
	c2.527,4.293,5.416,10.305,7.662,14.832c1.254,2.533,2.588,4.932,3.825,7.416c0.781,1.561,2.571,6.459,4.549,6.459
	c1.156,0,1.913-0.757,1.913-1.913c0-1.127-12.891-25.305-14.515-28.552C118.613,67.429,105.892,43.747,105.892,42.226
	L105.892,42.226z"/>
</svg>
