<?xml version="1.0" encoding="utf-8"?>
<!DOCTYPE svg PUBLIC "-//W3C//DTD SVG 1.1//EN" "http://www.w3.org/Graphics/SVG/1.1/DTD/svg11.dtd">
<svg version="1.1" xmlns="http://www.w3.org/2000/svg" xmlns:xlink="http://www.w3.org/1999/xlink" x="0px" y="0px" width="216px" height="216px" viewBox="0 0 216 216" enable-background="new 0 0 216 216" xml:space="preserve">
<path fill-rule="evenodd" clip-rule="evenodd" d="M16.119-0.08h183.602
	c8.911,0,16.199,7.29,16.199,16.199v183.602c0,8.907-7.288,16.199-16.199,16.199H16.119c-8.909,0-16.199-7.292-16.199-16.199V16.119
	C-0.08,7.209,7.209-0.08,16.119-0.08L16.119-0.08z M16.119,4.918h183.602c6.161,0,11.198,5.04,11.198,11.2v183.602
	c0,6.161-5.037,11.198-11.198,11.198H16.119c-6.161,0-11.2-5.037-11.2-11.198V16.119C4.918,9.958,9.958,4.918,16.119,4.918
	L16.119,4.918z M193.516,63.177L193.516,63.177l0.159,115.865c-46.554,4.208-79.094-45.602-113.742-45.69
	c-43.355-1.795-64.736,25.451-63.741,47.867c0.193,4.362,1.336,8.321,3.273,11.919h50.822
	c-10.698-3.072-18.524-12.928-18.524-24.614c0-14.136,11.462-25.598,25.598-25.598l0,0c14.136,0,25.601,11.462,25.601,25.598
	c0,11.687-7.829,21.542-18.524,24.614h115.601l-0.15-10.38l0.244,0.023v-9.342h-0.008V65.36L193.516,63.177L193.516,63.177z
	 M45.54,46.657L45.54,46.657h11.115V72.22H45.54V46.657L45.54,46.657z M34.425,46.657L34.425,46.657V72.22h-7.78l0.037,19.792
	c26.445-5.589,52.409-8.301,78.616-4.059l-0.202-15.755c-0.073-5.814,4.105-10.697,9.351-12.596V46.657h10.006v-3.333h3.333
	l-0.18-4.008L74.448,17.789L21.087,38.876v4.448h3.336v3.333H34.425L34.425,46.657z M93.331,72.22L93.331,72.22h10.003V46.657
	H93.331V72.22L93.331,72.22z M81.105,72.22L81.105,72.22V46.657H68.879V72.22H81.105L81.105,72.22z M74.525,23.087
	c4.905,0,8.883,3.978,8.883,8.88c0,4.907-3.978,8.883-8.883,8.883c-4.903,0-8.883-3.976-8.883-8.883
	C65.643,27.064,69.622,23.087,74.525,23.087L74.525,23.087z"/>
</svg>
