<?xml version="1.0" encoding="utf-8"?>
<!DOCTYPE svg PUBLIC "-//W3C//DTD SVG 1.1//EN" "http://www.w3.org/Graphics/SVG/1.1/DTD/svg11.dtd">
<svg version="1.1" xmlns="http://www.w3.org/2000/svg" xmlns:xlink="http://www.w3.org/1999/xlink" x="0px" y="0px" width="216px" height="216px" viewBox="0 0 216 216" enable-background="new 0 0 216 216" xml:space="preserve">
<path id="_x33_" fill-rule="evenodd" clip-rule="evenodd" fill="#F58031" d="M142.775,40.433l57.458,18.976V20.686l-57.458,17.442
	V40.433L142.775,40.433z M16.67,131.699L16.67,131.699c24.982-18.123,63.896-20.809,88.634-16.438l0.86,5.64
	c-35.024-3.284-69.572,6.274-89.972,23.323L16.67,131.699L16.67,131.699z"/>
<path id="_x32_" fill-rule="evenodd" clip-rule="evenodd" fill="#999557" d="M16.119-0.08h183.602
	c8.911,0,16.199,7.29,16.199,16.199v183.602c0,8.907-7.288,16.199-16.199,16.199H16.119c-8.909,0-16.199-7.292-16.199-16.199V16.119
	C-0.08,7.209,7.209-0.08,16.119-0.08L16.119-0.08z M16.119,4.918h183.602c6.161,0,11.198,5.04,11.198,11.2v183.602
	c0,6.161-5.037,11.198-11.198,11.198H16.119c-6.161,0-11.2-5.037-11.2-11.198V16.119C4.918,9.958,9.958,4.918,16.119,4.918
	L16.119,4.918z M193.516,63.177L193.516,63.177l0.159,115.865c-46.554,4.208-79.094-45.602-113.742-45.69
	c-43.355-1.795-64.736,25.451-63.741,47.867c0.193,4.362,1.336,8.321,3.273,11.919h50.822
	c-10.698-3.072-18.524-12.928-18.524-24.614c0-14.136,11.462-25.598,25.598-25.598l0,0c14.136,0,25.601,11.462,25.601,25.598
	c0,11.687-7.829,21.542-18.524,24.614h115.601l-0.15-10.38l0.244,0.023v-9.342h-0.008V65.36L193.516,63.177L193.516,63.177z
	 M45.54,46.657L45.54,46.657h11.115V72.22H45.54V46.657L45.54,46.657z M34.425,46.657L34.425,46.657V72.22h-7.78l0.037,19.792
	c26.445-5.589,52.409-8.301,78.616-4.059l-0.202-15.755c-0.073-5.814,4.105-10.697,9.351-12.596V46.657h10.006v-3.333h3.333
	l-0.18-4.008L74.448,17.789L21.087,38.876v4.448h3.336v3.333H34.425L34.425,46.657z M93.331,72.22L93.331,72.22h10.003V46.657
	H93.331V72.22L93.331,72.22z M81.105,72.22L81.105,72.22V46.657H68.879V72.22H81.105L81.105,72.22z M74.525,23.087
	c4.905,0,8.883,3.978,8.883,8.88c0,4.907-3.978,8.883-8.883,8.883c-4.903,0-8.883-3.976-8.883-8.883
	C65.643,27.064,69.622,23.087,74.525,23.087L74.525,23.087z"/>
<path id="_x31_" fill-rule="evenodd" clip-rule="evenodd" fill="#7E5628" d="M119.008,65.163L119.008,65.163h54.049
	c4.521,0,8.216,3.699,8.216,8.224v54.044c0,4.524-3.695,8.22-8.216,8.22h-54.049c-4.521,0-8.224-3.695-8.224-8.22V73.386
	C110.784,68.861,114.487,65.163,119.008,65.163L119.008,65.163z M138.653,82.798L138.653,82.798c-0.028,3.334-2.775,6.4-5.949,6.37
	l-0.907-0.008c-2.979-0.028-5.863-3.023-5.835-6.026l0.004-0.612c0.032-3.381,2.971-6.246,6.254-6.215l0.302,0.002
	C135.829,76.342,138.689,79.368,138.653,82.798L138.653,82.798z M138.653,99.741L138.653,99.741l-0.013,1.072
	c-0.024,2.946-3.178,5.784-6.246,5.755c-3.657-0.037-6.47-2.916-6.433-6.645c0.028-3.19,2.873-6.25,5.949-6.217l0.907,0.008
	C135.769,93.743,138.682,96.773,138.653,99.741L138.653,99.741z M138.653,117.742L138.653,117.742
	c-0.028,3.003-2.873,6.096-5.799,6.067l-1.208-0.013c-2.759-0.028-5.709-3.039-5.685-5.721l0.008-0.92
	c0.028-3.458,3.023-6.244,6.405-6.209C135.959,110.979,138.689,114.027,138.653,117.742L138.653,117.742z M167.063,82.647
	L167.063,82.647v0.151c-0.033,3.162-2.792,6.4-5.652,6.374l-1.359-0.014c-2.979-0.029-5.713-3.027-5.684-6.179l0.004-0.763
	c0.032-3.123,3.112-5.941,6.25-5.91C164.068,76.34,167.092,79.253,167.063,82.647L167.063,82.647z M167.071,99.892L167.071,99.892
	l-0.008,0.155c-0.033,3.601-2.813,6.553-6.255,6.519c-3.291-0.031-6.47-2.802-6.44-5.878l0.012-1.225
	c0.028-2.946,3.121-5.788,6.25-5.755l0.603,0.008C164.256,93.743,167.096,96.799,167.071,99.892L167.071,99.892z M167.059,117.897
	L167.059,117.897c-0.028,2.823-2.99,5.937-5.798,5.912l-1.209-0.013c-2.848-0.028-5.713-2.986-5.684-5.875l0.004-0.762
	C154.453,109.108,167.148,108.673,167.059,117.897L167.059,117.897z M15.709,106.459c20.821-10.882,41.655-11.271,60.645-11.271
	c12.361,0.81,24.489,1.994,28.741,3.583c0.053,2.747-0.034,2.315,0.275,8.398c-7.111-2.256-13.273-2.405-25.421-2.405
	c-18.188,0-43.091,6.452-63.277,18.251L15.709,106.459L15.709,106.459z"/>
</svg>
