<?xml version="1.0" encoding="utf-8"?>
<!DOCTYPE svg PUBLIC "-//W3C//DTD SVG 1.1//EN" "http://www.w3.org/Graphics/SVG/1.1/DTD/svg11.dtd">
<svg version="1.1" xmlns="http://www.w3.org/2000/svg" xmlns:xlink="http://www.w3.org/1999/xlink" x="0px" y="0px" width="216px" height="216px" viewBox="0 0 216 216" enable-background="new 0 0 216 216" xml:space="preserve">
<path fill-rule="evenodd" clip-rule="evenodd" d="M119.008,65.163L119.008,65.163h54.049
	c4.521,0,8.216,3.699,8.216,8.224v54.044c0,4.524-3.695,8.22-8.216,8.22h-54.049c-4.521,0-8.224-3.695-8.224-8.22V73.386
	C110.784,68.861,114.487,65.163,119.008,65.163L119.008,65.163z M138.653,82.798L138.653,82.798c-0.028,3.334-2.775,6.4-5.949,6.37
	l-0.907-0.008c-2.979-0.028-5.863-3.023-5.835-6.026l0.004-0.612c0.032-3.381,2.971-6.246,6.254-6.215l0.302,0.002
	C135.829,76.342,138.689,79.368,138.653,82.798L138.653,82.798z M138.653,99.741L138.653,99.741l-0.013,1.072
	c-0.024,2.946-3.178,5.784-6.246,5.755c-3.657-0.037-6.47-2.916-6.433-6.645c0.028-3.19,2.873-6.25,5.949-6.217l0.907,0.008
	C135.769,93.743,138.682,96.773,138.653,99.741L138.653,99.741z M138.653,117.742L138.653,117.742
	c-0.028,3.003-2.873,6.096-5.799,6.067l-1.208-0.013c-2.759-0.028-5.709-3.039-5.685-5.721l0.008-0.92
	c0.028-3.458,3.023-6.244,6.405-6.209C135.959,110.979,138.689,114.027,138.653,117.742L138.653,117.742z M167.063,82.647
	L167.063,82.647v0.151c-0.033,3.162-2.792,6.4-5.652,6.374l-1.359-0.014c-2.979-0.029-5.713-3.027-5.684-6.179l0.004-0.763
	c0.032-3.123,3.112-5.941,6.25-5.91C164.068,76.34,167.092,79.253,167.063,82.647L167.063,82.647z M167.071,99.892L167.071,99.892
	l-0.008,0.155c-0.033,3.601-2.813,6.553-6.255,6.519c-3.291-0.031-6.47-2.802-6.44-5.878l0.012-1.225
	c0.028-2.946,3.121-5.788,6.25-5.755l0.603,0.008C164.256,93.743,167.096,96.799,167.071,99.892L167.071,99.892z M167.059,117.897
	L167.059,117.897c-0.028,2.823-2.99,5.937-5.798,5.912l-1.209-0.013c-2.848-0.028-5.713-2.986-5.684-5.875l0.004-0.762
	C154.453,109.108,167.148,108.673,167.059,117.897L167.059,117.897z M15.709,106.459c20.821-10.882,41.655-11.271,60.645-11.271
	c12.361,0.81,24.489,1.994,28.741,3.583c0.053,2.747-0.034,2.315,0.275,8.398c-7.111-2.256-13.273-2.405-25.421-2.405
	c-18.188,0-43.091,6.452-63.277,18.251L15.709,106.459L15.709,106.459z"/>
</svg>
