<?xml version="1.0" encoding="utf-8"?>
<!DOCTYPE svg PUBLIC "-//W3C//DTD SVG 1.1//EN" "http://www.w3.org/Graphics/SVG/1.1/DTD/svg11.dtd">
<svg version="1.1" xmlns="http://www.w3.org/2000/svg" xmlns:xlink="http://www.w3.org/1999/xlink" x="0px" y="0px" width="216px" height="216px" viewBox="0 0 216 216" enable-background="new 0 0 216 216" xml:space="preserve">
<path fill-rule="evenodd" clip-rule="evenodd" d="M142.204,115.673c0.243,3.463-0.206,6.942-0.206,10.41
	c0.093,7.745-0.43,12.464,11.989,0.62l38.834-37.031c9.203-8.773,9.183-8.047-0.017-16.822
	c-12.76-12.164-25.519-24.328-38.274-36.494c-11.357-10.829-12.468-5.456-12.532-0.768V46.67l16.36,15.597
	c5.12,4.887,10.556,10.535,16.012,17.34c1.531,1.91,1.637,3.198,0.013,5.037c-5.323,6.027-10.787,10.631-16.009,15.609
	L142.204,115.673L142.204,115.673z"/>
</svg>
