<?xml version="1.0" encoding="utf-8"?>
<!DOCTYPE svg PUBLIC "-//W3C//DTD SVG 1.1//EN" "http://www.w3.org/Graphics/SVG/1.1/DTD/svg11.dtd">
<svg version="1.1" xmlns="http://www.w3.org/2000/svg" xmlns:xlink="http://www.w3.org/1999/xlink" x="0px" y="0px" width="216px" height="216px" viewBox="0 0 216 216" enable-background="new 0 0 216 216" xml:space="preserve">
<path fill-rule="evenodd" clip-rule="evenodd" d="M11.159,0.408h193.523c5.913,0,10.75,4.836,10.75,10.75
	v193.523c0,5.913-4.837,10.75-10.75,10.75H11.159c-5.914,0-10.75-4.837-10.75-10.75V11.159C0.408,5.245,5.245,0.408,11.159,0.408
	L11.159,0.408z M11.159,5.384h193.523c3.175,0,5.771,2.599,5.771,5.774v193.523c0,3.176-2.597,5.771-5.771,5.771H11.159
	c-3.176,0-5.774-2.596-5.774-5.771V11.159C5.384,7.983,7.983,5.384,11.159,5.384L11.159,5.384z M143.849,180.378
	c0.271,0.866,0.413,1.749,0.413,2.648c0,9.596-16.023,17.377-35.779,17.377c-19.759,0-35.781-7.781-35.781-17.377
	c0-1.057,0.192-2.09,0.567-3.099c5.568,6.453,19.362,11.021,35.494,11.021C124.516,190.949,138.04,186.591,143.849,180.378
	L143.849,180.378z M108.483,151.764c19.755,0,35.779,7.781,35.779,17.377c0,9.593-16.023,17.374-35.779,17.374
	c-19.759,0-35.781-7.781-35.781-17.374C72.702,159.545,88.724,151.764,108.483,151.764L108.483,151.764z"/>
</svg>
