<?xml version="1.0" encoding="utf-8"?>
<!DOCTYPE svg PUBLIC "-//W3C//DTD SVG 1.1//EN" "http://www.w3.org/Graphics/SVG/1.1/DTD/svg11.dtd">
<svg version="1.1" xmlns="http://www.w3.org/2000/svg" xmlns:xlink="http://www.w3.org/1999/xlink" x="0px" y="0px" width="216px" height="216px" viewBox="0 0 216 216" enable-background="new 0 0 216 216" xml:space="preserve">
<path id="_x33_" fill-rule="evenodd" clip-rule="evenodd" fill="#F58031" d="M142.204,115.673c0.243,3.463-0.206,6.942-0.206,10.41
	c0.093,7.745-0.43,12.464,11.989,0.62l38.834-37.031c9.203-8.773,9.183-8.047-0.017-16.822
	c-12.76-12.164-25.519-24.328-38.274-36.494c-11.357-10.829-12.468-5.456-12.532-0.768V46.67l16.36,15.597
	c5.12,4.887,10.556,10.535,16.012,17.34c1.531,1.91,1.637,3.198,0.013,5.037c-5.323,6.027-10.787,10.631-16.009,15.609
	L142.204,115.673L142.204,115.673z"/>
<path id="_x32_" fill-rule="evenodd" clip-rule="evenodd" fill="#999557" d="M11.159,0.408h193.523c5.913,0,10.75,4.836,10.75,10.75
	v193.523c0,5.913-4.837,10.75-10.75,10.75H11.159c-5.914,0-10.75-4.837-10.75-10.75V11.159C0.408,5.245,5.245,0.408,11.159,0.408
	L11.159,0.408z M11.159,5.384h193.523c3.175,0,5.771,2.599,5.771,5.774v193.523c0,3.176-2.597,5.771-5.771,5.771H11.159
	c-3.176,0-5.774-2.596-5.774-5.771V11.159C5.384,7.983,7.983,5.384,11.159,5.384L11.159,5.384z M143.849,180.378
	c0.271,0.866,0.413,1.749,0.413,2.648c0,9.596-16.023,17.377-35.779,17.377c-19.759,0-35.781-7.781-35.781-17.377
	c0-1.057,0.192-2.09,0.567-3.099c5.568,6.453,19.362,11.021,35.494,11.021C124.516,190.949,138.04,186.591,143.849,180.378
	L143.849,180.378z M108.483,151.764c19.755,0,35.779,7.781,35.779,17.377c0,9.593-16.023,17.374-35.779,17.374
	c-19.759,0-35.781-7.781-35.781-17.374C72.702,159.545,88.724,151.764,108.483,151.764L108.483,151.764z"/>
<path id="_x31_" fill-rule="evenodd" clip-rule="evenodd" fill="#7E5628" d="M63.904,53.06
	c-27.089,4.276-47.777,28.308-47.777,54.511c0,26.204,17.082,46.035,40.527,52.89c-9.817-4.241-16.663-11.897-16.663-24.867
	c0-12.975,12.29-26.935,27.552-27.21v-0.016c0.486,0.006,1.003,0.008,1.562,0.008h21.819c7.063,0.369,11.893,1.234,12.32,4.025
	c0.616,4.014,0,8.057,0,12.082c0.093,7.615-0.423,12.254,11.79,0.608l38.188-36.411c9.046-8.628,9.025-7.915-0.02-16.545
	c-12.545-11.959-25.094-23.921-37.635-35.885c-11.169-10.649-12.261-5.365-12.324-0.755c0,4.247,0,8.492,0,12.739
	c-2.017,3.812-6.359,4.381-12.32,4.223c-11.858,0-7.959,0-19.815,0C67.792,52.457,65.496,52.678,63.904,53.06L63.904,53.06z"/>
</svg>
