<?xml version="1.0" encoding="utf-8"?>
<!DOCTYPE svg PUBLIC "-//W3C//DTD SVG 1.1//EN" "http://www.w3.org/Graphics/SVG/1.1/DTD/svg11.dtd">
<svg version="1.1" xmlns="http://www.w3.org/2000/svg" xmlns:xlink="http://www.w3.org/1999/xlink" x="0px" y="0px" width="216px" height="216px" viewBox="0 0 216 216" enable-background="new 0 0 216 216" xml:space="preserve">
<path fill-rule="evenodd" clip-rule="evenodd" d="M63.904,53.06
	c-27.089,4.276-47.777,28.308-47.777,54.511c0,26.204,17.082,46.035,40.527,52.89c-9.817-4.241-16.663-11.897-16.663-24.867
	c0-12.975,12.29-26.935,27.552-27.21v-0.016c0.486,0.006,1.003,0.008,1.562,0.008h21.819c7.063,0.369,11.893,1.234,12.32,4.025
	c0.616,4.014,0,8.057,0,12.082c0.093,7.615-0.423,12.254,11.79,0.608l38.188-36.411c9.046-8.628,9.025-7.915-0.02-16.545
	c-12.545-11.959-25.094-23.921-37.635-35.885c-11.169-10.649-12.261-5.365-12.324-0.755c0,4.247,0,8.492,0,12.739
	c-2.017,3.812-6.359,4.381-12.32,4.223c-11.858,0-7.959,0-19.815,0C67.792,52.457,65.496,52.678,63.904,53.06L63.904,53.06z"/>
</svg>
