<?xml version="1.0" encoding="utf-8"?>
<!DOCTYPE svg PUBLIC "-//W3C//DTD SVG 1.1//EN" "http://www.w3.org/Graphics/SVG/1.1/DTD/svg11.dtd">
<svg version="1.1" xmlns="http://www.w3.org/2000/svg" xmlns:xlink="http://www.w3.org/1999/xlink" x="0px" y="0px" width="216px" height="216px" viewBox="0 0 216 216" enable-background="new 0 0 216 216" xml:space="preserve">
<path fill-rule="evenodd" clip-rule="evenodd" d="M190.618,58.191l0.008,0.289v16.471
	c0,3.129-2.563,5.69-5.694,5.69l-16.467-0.002c-3.128,0-5.694-2.557-5.694-5.688V58.476l0.012-0.305l-0.012-0.305V41.39
	c0-0.433,0.053-0.855,0.146-1.261c-0.093-0.408-0.146-0.833-0.146-1.265V22.387c0-3.125,2.563-5.685,5.694-5.688h16.467
	c3.131,0,5.694,2.565,5.694,5.694v16.469c0,0.438-0.049,0.863-0.143,1.271c0.09,0.406,0.143,0.831,0.143,1.263v16.469
	L190.618,58.191L190.618,58.191z M61.236,16.699h16.473c3.127,0,5.688,2.565,5.688,5.694v16.469c0,3.129-2.561,5.692-5.69,5.692
	L61.236,44.55c-3.127,0-5.69-2.557-5.69-5.687V22.387C55.545,19.262,58.106,16.703,61.236,16.699L61.236,16.699z"/>
</svg>
