<?xml version="1.0" encoding="utf-8"?>
<!DOCTYPE svg PUBLIC "-//W3C//DTD SVG 1.1//EN" "http://www.w3.org/Graphics/SVG/1.1/DTD/svg11.dtd">
<svg version="1.1" xmlns="http://www.w3.org/2000/svg" xmlns:xlink="http://www.w3.org/1999/xlink" x="0px" y="0px" width="216px" height="216px" viewBox="0 0 216 216" enable-background="new 0 0 216 216" xml:space="preserve">
<path id="_x33_" fill-rule="evenodd" clip-rule="evenodd" fill="#F58031" d="M190.618,58.191l0.008,0.289v16.471
	c0,3.129-2.563,5.69-5.694,5.69l-16.467-0.002c-3.128,0-5.694-2.557-5.694-5.688V58.476l0.012-0.305l-0.012-0.305V41.39
	c0-0.433,0.053-0.855,0.146-1.261c-0.093-0.408-0.146-0.833-0.146-1.265V22.387c0-3.125,2.563-5.685,5.694-5.688h16.467
	c3.131,0,5.694,2.565,5.694,5.694v16.469c0,0.438-0.049,0.863-0.143,1.271c0.09,0.406,0.143,0.831,0.143,1.263v16.469
	L190.618,58.191L190.618,58.191z M61.236,16.699h16.473c3.127,0,5.688,2.565,5.688,5.694v16.469c0,3.129-2.561,5.692-5.69,5.692
	L61.236,44.55c-3.127,0-5.69-2.557-5.69-5.687V22.387C55.545,19.262,58.106,16.703,61.236,16.699L61.236,16.699z"/>
<path id="_x32_" fill-rule="evenodd" clip-rule="evenodd" fill="#999557" d="M16.284,0.112h183.273c8.896,0,16.17,7.277,16.17,16.17
	v183.275c0,8.892-7.274,16.17-16.17,16.17H16.284c-8.895,0-16.172-7.278-16.172-16.17V16.282C0.112,7.389,7.389,0.112,16.284,0.112
	L16.284,0.112z M16.284,5.102h183.273c6.149,0,11.178,5.031,11.178,11.18v183.275c0,6.149-5.028,11.178-11.178,11.178H16.284
	c-6.149,0-11.182-5.028-11.182-11.178V16.282C5.102,10.133,10.135,5.102,16.284,5.102L16.284,5.102z M168.355,88.476h16.47
	c3.132,0,5.691,2.563,5.691,5.695l0.004,16.469c0,3.129-2.563,5.692-5.695,5.692l-16.47-0.004c-3.128,0-5.69-2.56-5.69-5.687V94.165
	C162.665,91.039,165.228,88.482,168.355,88.476L168.355,88.476z M132.214,88.476h16.47c3.132,0,5.69,2.563,5.69,5.695l0.005,16.469
	c0,2.711-1.958,4.993-4.505,5.559l-2.035,0.008l0.037-4.196c0-10.867-6.873-19.539-17.628-19.537c-1.105,0-2.202,0.089-3.282,0.27
	l-0.175-0.287C127.518,90.16,129.683,88.48,132.214,88.476L132.214,88.476z M132.214,52.788h16.47c3.132,0,5.69,2.563,5.69,5.692
	l0.005,16.471c0,3.129-2.563,5.69-5.695,5.69l-16.47-0.002c-3.128,0-5.691-2.557-5.691-5.688V58.476
	C126.522,55.351,129.086,52.792,132.214,52.788L132.214,52.788z M96.728,52.788h16.469c3.132,0,5.69,2.563,5.69,5.692v16.471
	c0,3.129-2.563,5.69-5.69,5.69l-9.909-0.002c-3.3-3.05-7.612-4.949-12.236-5.242c-0.01-0.146-0.016-0.297-0.016-0.447l0.002-16.475
	C91.037,55.351,93.596,52.792,96.728,52.788L96.728,52.788z M96.728,16.699h16.469c3.132,0,5.69,2.565,5.69,5.694v16.469
	c0,3.129-2.563,5.692-5.69,5.692L96.728,44.55c-3.131,0-5.692-2.557-5.692-5.687l0.002-16.477
	C91.037,19.262,93.596,16.703,96.728,16.699L96.728,16.699z"/>
<path id="_x31_" fill-rule="evenodd" clip-rule="evenodd" fill="#7E5628" d="M132.214,16.699h16.47c3.132,0,5.69,2.565,5.69,5.694
	l0.005,16.469c0,3.129-2.563,5.692-5.695,5.692l-16.47-0.004c-3.128,0-5.691-2.557-5.691-5.687V22.387
	C126.522,19.262,129.086,16.703,132.214,16.699L132.214,16.699z M133.262,164.127v-37.072l-0.098-15.107
	c0-2.786-2.356-5.096-5.188-5.096c-2.839,0-5.194,2.312-5.194,5.096c0.004,5.034,0,10.075,0,15.107c-0.062,5.76-8.692,5.272-9.078,0
	v-23.991c0-2.782-2.352-5.093-5.189-5.093c-2.835-0.002-5.189,2.311-5.189,5.098c0.002,7.991,0,15.989,0,23.986
	c-0.195,5.662-8.485,4.623-9.082,0V95.481c0-2.783-2.352-5.094-5.189-5.094c-2.837-0.002-5.191,2.311-5.191,5.096
	c0.002,10.522,0,21.052,0,31.572c-0.604,5.902-8.824,4.895-9.011-0.068L74.784,68.24c0-2.79-2.354-5.095-5.189-5.095
	c-2.837-0.002-5.191,2.311-5.191,5.095v58.814c0.138,11.523-6.702,4.753-8.855,1.763l-0.144-0.194v-0.004l-10.343-13.875
	c-1.964-2.551-5.471-3.623-8.075-1.698c-2.598,1.93-3.404,6.198-1.442,8.753l28.111,51c5.329,8.079,18.048,17.035,34.882,17.035
	c16.843,0,34.316-13.059,34.723-25.508V164.127L133.262,164.127z M30.84,105.962L30.84,105.962c6.895-5.109,16.491-3.877,21.7,2.892
	l2.866,3.721V68.24c0-7.665,6.385-13.93,14.19-13.93v-0.002c7.805,0,14.188,6.271,14.188,13.932v14.314
	c1.633-0.646,3.412-1.001,5.272-1.001v-0.004c6.036,0,11.221,3.753,13.262,8.997c1.878-0.904,3.979-1.41,6.198-1.41v-0.002
	c6.457,0,11.944,4.293,13.645,10.116c1.779-0.794,3.745-1.233,5.816-1.233l0,0c7.803,0,13.205,6.271,13.205,13.93v52.959
	c-0.975,17.34-20.824,34.501-42.643,34.501c-21.813-0.004-38.055-11.597-44.474-23.92l-0.857-1.133l-25.441-46.792
	C23.585,119.643,23.943,111.074,30.84,105.962L30.84,105.962z"/>
</svg>
