<?xml version="1.0" encoding="utf-8"?>
<!DOCTYPE svg PUBLIC "-//W3C//DTD SVG 1.1//EN" "http://www.w3.org/Graphics/SVG/1.1/DTD/svg11.dtd">
<svg version="1.1" xmlns="http://www.w3.org/2000/svg" xmlns:xlink="http://www.w3.org/1999/xlink" x="0px" y="0px" width="216px" height="216px" viewBox="0 0 216 216" enable-background="new 0 0 216 216" xml:space="preserve">
<path id="_x33_" fill-rule="evenodd" clip-rule="evenodd" fill="#F58031" d="M82.666,86.674v12.823
	c-0.359,2.466-1.204,4.149-3.929,4.3c-3.916,0.213-7.86,0-11.79,0c-7.432,0.032-11.958-0.146-0.593,4.115l35.535,13.322
	c8.418,3.16,7.723,3.151,16.141-0.004c11.674-4.379,23.347-8.758,35.021-13.134c10.394-3.897,5.235-4.277,0.735-4.299
	c-4.144,0-8.286,0-12.429,0c-3.722-0.703-4.278-2.22-4.124-4.3c0-4.137,0-7.989,0-12.126c0-3.492-1.958-2.89-4.37-2.89H86.38
	C83.216,84.66,82.666,83.754,82.666,86.674L82.666,86.674z"/>
<path id="_x32_" fill-rule="evenodd" clip-rule="evenodd" fill="#999557" d="M16.284,0.112h183.273
	c8.896,0,16.171,7.277,16.171,16.17v183.275c0,8.892-7.275,16.17-16.171,16.17H16.284c-8.896,0-16.172-7.278-16.172-16.17V16.282
	C0.112,7.389,7.389,0.112,16.284,0.112L16.284,0.112z M16.284,5.102h183.273c6.149,0,11.179,5.03,11.179,11.181v183.275
	c0,6.149-5.029,11.179-11.179,11.179H16.284c-6.15,0-11.183-5.029-11.183-11.179V16.282C5.102,10.132,10.134,5.102,16.284,5.102
	L16.284,5.102z M24.556,17.949h168.333c4.48,0,8.147,3.668,8.147,8.146v10.859c0,4.48-3.667,8.146-8.147,8.146h-5.683v-7.602h5.683
	c0.301,0,0.545-0.246,0.545-0.545V26.095c0-0.299-0.244-0.544-0.545-0.544c-52.455,0-115.854,0-168.333,0
	c-0.298,0-0.542,0.246-0.542,0.544v10.859c0,0.301,0.244,0.545,0.542,0.545h6.174v7.602h-6.174c-4.478,0-8.146-3.666-8.146-8.146
	V26.095C16.41,21.615,20.076,17.949,24.556,17.949L24.556,17.949z"/>
<path id="_x31_" fill-rule="evenodd" clip-rule="evenodd" fill="#7E5628" d="M25.794,182.189h166.091
	c1.981,0,3.602,1.43,3.602,3.181l0,0c0,1.743-1.62,3.172-3.602,3.172H25.794c-1.98,0-3.601-1.429-3.601-3.172l0,0
	C22.193,183.619,23.814,182.189,25.794,182.189L25.794,182.189z M25.794,193.859h166.091c1.981,0,3.602,1.43,3.602,3.176l0,0
	c0,1.747-1.62,3.177-3.602,3.177H25.794c-1.98,0-3.601-1.43-3.601-3.177l0,0C22.193,195.289,23.814,193.859,25.794,193.859
	L25.794,193.859z M62.113,140.95c5.967-0.02,10.067,2.73,9.003,6.535c-1.066,3.803-7.356,7.247-13.92,7.258
	c-6.562,0.014-10.35-3.39-8.698-7.188C50.151,143.757,56.146,140.971,62.113,140.95L62.113,140.95z M184.339,168.875
	c-3.563-8.082-13.302-11.434-11.682,0.017C176.528,168.888,180.432,168.888,184.339,168.875L184.339,168.875z M177.912,154.351
	c-1.202-2.734-2.352-5.378-3.484-7.922c-1.097-2.457-2.141-4.832-3.152-7.128c-9.415-0.508-18.021-4.248-21.186-8.81l-32.719,0.146
	c-1.445,0.004-1.555-0.053-0.056,0.204c5.479,0.935,10.446,2.798,14.293,5.288c4.339,2.812,7.554,7.19,8.271,10.769
	c0.71,3.574,0.097,4.987-1.021,7.493c-1.124,2.511-3.046,4.932-5.634,6.954c-5.45,4.257-13.729,7.165-23.232,7.592
	c8.663-0.013,17.383-0.021,26.084-0.029c8.732-0.003,17.454-0.011,26.243-0.007c-0.686-3.899,0.626-7.3,3.4-9.842
	C168.489,156.52,172.742,154.838,177.912,154.351L177.912,154.351z M169.204,134.642c-0.638-1.441-1.239-2.838-1.84-4.212
	c-3.071,0.009-6.068,0.021-9.103,0.042C160.487,132.595,164.659,134.24,169.204,134.642L169.204,134.642z M98.982,130.666
	l-32.381,0.207c-3.178,4.335-11.123,7.953-19.9,8.777c-1.123,2.364-2.277,4.785-3.481,7.319c-1.241,2.608-2.517,5.32-3.838,8.132
	c4.513,0.646,8.152,2.32,10.465,4.728c2.301,2.393,3.331,5.541,2.668,9.144c8.735,0,17.543-0.009,26.333-0.013
	c8.806-0.007,17.648-0.016,26.491-0.023c-9.501-0.399-17.574-3.295-22.809-7.522c-2.474-1.999-4.267-4.396-5.27-6.889
	c-1.006-2.494-1.538-3.896-0.687-7.454c0.853-3.554,4.218-7.945,8.631-10.768c3.833-2.449,8.697-4.294,14.052-5.297
	C101.586,130.568,100.803,130.658,98.982,130.666L98.982,130.666z M58.626,130.909c-2.624,0.008-5.193,0.021-7.797,0.033
	c-0.625,1.323-1.25,2.66-1.895,4.037C52.931,134.378,56.555,132.831,58.626,130.909L58.626,130.909z M36.384,161.446
	c-1.162,2.434-2.337,4.96-3.568,7.543c3.172,0,6.365,0,9.574-0.009C42.891,165.41,40.537,162.604,36.384,161.446L36.384,161.446z
	 M175.253,130.897l19.427,38.416c2.507,4.957-0.077,6.605-5.028,6.605H27.425c-5.735,0-6.506-1.995-3.953-6.824l19.755-37.355
	c2.709-5.122,2.425-4.758,8.231-4.758h116.364C172.949,126.981,172.97,126.381,175.253,130.897L175.253,130.897z M60.88,144.46
	c2.792-0.008,4.6,1.316,4.046,3.042c-0.554,1.73-3.383,3.209-6.281,3.218c-2.898,0.008-4.698-1.454-4.009-3.186
	C55.321,145.805,58.087,144.468,60.88,144.46L60.88,144.46z M153.254,140.634c6.076-0.021,12.087,2.745,13.574,6.581
	c1.487,3.834-2.619,7.307-9.317,7.321c-6.694,0.014-12.901-3.427-13.766-7.257C142.884,143.453,147.182,140.658,153.254,140.634
	L153.254,140.634z M154.334,144.156c2.834-0.01,5.589,1.326,6.179,3.073c0.593,1.747-1.284,3.247-4.237,3.25
	c-2.949,0.008-5.799-1.474-6.268-3.217C149.537,145.52,151.499,144.167,154.334,144.156L154.334,144.156z M118.01,162.648
	c-8.041,0.013-16.065,0.021-24.089,0.032c-0.729,0-0.319-1.06,0.146-1.446c0.321-0.28,1.051,0,1.586,0
	c2.729-0.004,3.57-1.632,3.678-2.632c0.274-3.411,0.516-6.661,0.75-9.768c0.223-2.989,0.438-5.861,0.674-8.62
	c0.092-0.89-0.892-1.011-2.157-1.19c-0.339-0.048-0.427-0.479-0.124-0.568c5.712-1.693,8.534-3.769,13.089-6.003
	c0.194-0.098,0.784-0.149,0.784-0.012c0.171,3.724,0.224,7.672,0.228,11.864c0,2.233-0.021,4.533-0.033,6.909
	c-0.016,2.371,0.009,4.825,0.037,7.355c0.016,1.99,1.727,2.632,3.114,2.628c0.752,0.004,1.698-0.346,2.248,0.004
	C118.456,161.532,118.725,162.648,118.01,162.648L118.01,162.648z M117.429,64.351H96.267c-0.643,0-0.376-1.403,0-1.924
	c0.271-0.375,0.926,0,1.389,0c2.454,0,3.097-2.203,3.101-3.58c0.024-8.562,0.012-17.125,0.01-25.687H78.75
	c-0.744,2.651-1.141,5.447-1.141,8.333c0,16.375,12.766,29.773,28.885,30.787H61.577c-1.042-9.218-7.923-16.67-16.853-18.564V33.16
	h-8.02v38.488c0.098,4.756,3.572,8.733,8.345,8.802c42.704,0,85.405,0,128.111,0c4.67-0.345,7.729-2.118,8.069-8.163V33.16h-8.464
	v19.876c-9.772,1.373-17.434,9.331-18.359,19.241h-43.982c16.118-1.016,28.881-14.412,28.881-30.785
	c0-2.886-0.398-5.682-1.142-8.333h-25.341c-0.018,8.561-0.105,17.125-0.098,25.687c0,2.717,1.493,3.571,2.726,3.58
	c0.66,0.005,1.507-0.46,1.978,0C117.888,62.875,118.07,64.351,117.429,64.351L117.429,64.351z M154.065,37.093
	c2.79,0,5.049,2.26,5.049,5.048c0,2.788-2.259,5.051-5.049,5.051c-2.791,0-5.049-2.263-5.049-5.051
	C149.017,39.353,151.274,37.093,154.065,37.093L154.065,37.093z M160.593,33.16c2.771,2.02,4.574,5.291,4.574,8.981
	c0,6.131-4.972,11.105-11.102,11.105c-6.133,0-11.105-4.974-11.105-11.105c0-3.69,1.805-6.961,4.578-8.981H160.593L160.593,33.16z
	 M61.262,37.093c2.789,0,5.049,2.26,5.049,5.048c0,2.788-2.26,5.051-5.049,5.051s-5.049-2.263-5.049-5.051
	C56.213,39.353,58.474,37.093,61.262,37.093L61.262,37.093z M44.724,62.61v9.669h8.195C52.064,67.81,48.904,64.158,44.724,62.61
	L44.724,62.61z M172.767,72.278V61.745c-5.033,1.205-8.919,5.36-9.731,10.533H172.767L172.767,72.278z M67.79,33.16
	c2.772,2.02,4.576,5.291,4.576,8.981c0,6.131-4.972,11.105-11.103,11.105s-11.103-4.974-11.103-11.105
	c0-3.69,1.803-6.961,4.576-8.981H67.79L67.79,33.16z"/>
</svg>
