<?xml version="1.0" encoding="utf-8"?>
<!DOCTYPE svg PUBLIC "-//W3C//DTD SVG 1.1//EN" "http://www.w3.org/Graphics/SVG/1.1/DTD/svg11.dtd">
<svg version="1.1" xmlns="http://www.w3.org/2000/svg" xmlns:xlink="http://www.w3.org/1999/xlink" x="0px" y="0px" width="216px" height="216px" viewBox="0 0 216 216" enable-background="new 0 0 216 216" xml:space="preserve">
<path fill-rule="evenodd" clip-rule="evenodd" d="M132.214,16.699h16.47c3.132,0,5.69,2.565,5.69,5.694
	l0.005,16.469c0,3.129-2.563,5.692-5.695,5.692l-16.47-0.004c-3.128,0-5.691-2.557-5.691-5.687V22.387
	C126.522,19.262,129.086,16.703,132.214,16.699L132.214,16.699z M133.262,164.127v-37.072l-0.098-15.107
	c0-2.786-2.356-5.096-5.188-5.096c-2.839,0-5.194,2.312-5.194,5.096c0.004,5.034,0,10.075,0,15.107c-0.062,5.76-8.692,5.272-9.078,0
	v-23.991c0-2.782-2.352-5.093-5.189-5.093c-2.835-0.002-5.189,2.311-5.189,5.098c0.002,7.991,0,15.989,0,23.986
	c-0.195,5.662-8.485,4.623-9.082,0V95.481c0-2.783-2.352-5.094-5.189-5.094c-2.837-0.002-5.191,2.311-5.191,5.096
	c0.002,10.522,0,21.052,0,31.572c-0.604,5.902-8.824,4.895-9.011-0.068L74.784,68.24c0-2.79-2.354-5.095-5.189-5.095
	c-2.837-0.002-5.191,2.311-5.191,5.095v58.814c0.138,11.523-6.702,4.753-8.855,1.763l-0.144-0.194v-0.004l-10.343-13.875
	c-1.964-2.551-5.471-3.623-8.075-1.698c-2.598,1.93-3.404,6.198-1.442,8.753l28.111,51c5.329,8.079,18.048,17.035,34.882,17.035
	c16.843,0,34.316-13.059,34.723-25.508V164.127L133.262,164.127z M30.84,105.962L30.84,105.962c6.895-5.109,16.491-3.877,21.7,2.892
	l2.866,3.721V68.24c0-7.665,6.385-13.93,14.19-13.93v-0.002c7.805,0,14.188,6.271,14.188,13.932v14.314
	c1.633-0.646,3.412-1.001,5.272-1.001v-0.004c6.036,0,11.221,3.753,13.262,8.997c1.878-0.904,3.979-1.41,6.198-1.41v-0.002
	c6.457,0,11.944,4.293,13.645,10.116c1.779-0.794,3.745-1.233,5.816-1.233l0,0c7.803,0,13.205,6.271,13.205,13.93v52.959
	c-0.975,17.34-20.824,34.501-42.643,34.501c-21.813-0.004-38.055-11.597-44.474-23.92l-0.857-1.133l-25.441-46.792
	C23.585,119.643,23.943,111.074,30.84,105.962L30.84,105.962z"/>
</svg>
