<?xml version="1.0" encoding="utf-8"?>
<!DOCTYPE svg PUBLIC "-//W3C//DTD SVG 1.1//EN" "http://www.w3.org/Graphics/SVG/1.1/DTD/svg11.dtd">
<svg version="1.1" xmlns="http://www.w3.org/2000/svg" xmlns:xlink="http://www.w3.org/1999/xlink" x="0px" y="0px" width="216px" height="216px" viewBox="0 0 216 216" enable-background="new 0 0 216 216" xml:space="preserve">
<path fill-rule="evenodd" clip-rule="evenodd" d="M16.284,0.112h183.273
	c8.896,0,16.171,7.277,16.171,16.17v183.275c0,8.892-7.275,16.17-16.171,16.17H16.284c-8.896,0-16.172-7.278-16.172-16.17V16.282
	C0.112,7.389,7.389,0.112,16.284,0.112L16.284,0.112z M16.284,5.102h183.273c6.149,0,11.179,5.03,11.179,11.181v183.275
	c0,6.149-5.029,11.179-11.179,11.179H16.284c-6.15,0-11.183-5.029-11.183-11.179V16.282C5.102,10.132,10.134,5.102,16.284,5.102
	L16.284,5.102z M24.556,17.949h168.333c4.48,0,8.147,3.668,8.147,8.146v10.859c0,4.48-3.667,8.146-8.147,8.146h-5.683v-7.602h5.683
	c0.301,0,0.545-0.246,0.545-0.545V26.095c0-0.299-0.244-0.544-0.545-0.544c-52.455,0-115.854,0-168.333,0
	c-0.298,0-0.542,0.246-0.542,0.544v10.859c0,0.301,0.244,0.545,0.542,0.545h6.174v7.602h-6.174c-4.478,0-8.146-3.666-8.146-8.146
	V26.095C16.41,21.615,20.076,17.949,24.556,17.949L24.556,17.949z"/>
</svg>
