<?xml version="1.0" encoding="utf-8"?>
<!DOCTYPE svg PUBLIC "-//W3C//DTD SVG 1.1//EN" "http://www.w3.org/Graphics/SVG/1.1/DTD/svg11.dtd">
<svg version="1.1" xmlns="http://www.w3.org/2000/svg" xmlns:xlink="http://www.w3.org/1999/xlink" x="0px" y="0px" width="216px" height="216px" viewBox="0 0 216 216" enable-background="new 0 0 216 216" xml:space="preserve">
<path fill-rule="evenodd" clip-rule="evenodd" d="M16.284,0.112h183.273c8.896,0,16.17,7.277,16.17,16.17
	v183.275c0,8.892-7.274,16.17-16.17,16.17H16.284c-8.895,0-16.172-7.278-16.172-16.17V16.282C0.112,7.389,7.389,0.112,16.284,0.112
	L16.284,0.112z M16.284,5.102h183.273c6.149,0,11.178,5.031,11.178,11.18v183.275c0,6.149-5.028,11.178-11.178,11.178H16.284
	c-6.149,0-11.182-5.028-11.182-11.178V16.282C5.102,10.133,10.135,5.102,16.284,5.102L16.284,5.102z M168.355,88.476h16.47
	c3.132,0,5.691,2.563,5.691,5.695l0.004,16.469c0,3.129-2.563,5.692-5.695,5.692l-16.47-0.004c-3.128,0-5.69-2.56-5.69-5.687V94.165
	C162.665,91.039,165.228,88.482,168.355,88.476L168.355,88.476z M132.214,88.476h16.47c3.132,0,5.69,2.563,5.69,5.695l0.005,16.469
	c0,2.711-1.958,4.993-4.505,5.559l-2.035,0.008l0.037-4.196c0-10.867-6.873-19.539-17.628-19.537c-1.105,0-2.202,0.089-3.282,0.27
	l-0.175-0.287C127.518,90.16,129.683,88.48,132.214,88.476L132.214,88.476z M132.214,52.788h16.47c3.132,0,5.69,2.563,5.69,5.692
	l0.005,16.471c0,3.129-2.563,5.69-5.695,5.69l-16.47-0.002c-3.128,0-5.691-2.557-5.691-5.688V58.476
	C126.522,55.351,129.086,52.792,132.214,52.788L132.214,52.788z M96.728,52.788h16.469c3.132,0,5.69,2.563,5.69,5.692v16.471
	c0,3.129-2.563,5.69-5.69,5.69l-9.909-0.002c-3.3-3.05-7.612-4.949-12.236-5.242c-0.01-0.146-0.016-0.297-0.016-0.447l0.002-16.475
	C91.037,55.351,93.596,52.792,96.728,52.788L96.728,52.788z M96.728,16.699h16.469c3.132,0,5.69,2.565,5.69,5.694v16.469
	c0,3.129-2.563,5.692-5.69,5.692L96.728,44.55c-3.131,0-5.692-2.557-5.692-5.687l0.002-16.477
	C91.037,19.262,93.596,16.703,96.728,16.699L96.728,16.699z"/>
</svg>
