<?xml version="1.0" encoding="utf-8"?>
<!DOCTYPE svg PUBLIC "-//W3C//DTD SVG 1.1//EN" "http://www.w3.org/Graphics/SVG/1.1/DTD/svg11.dtd">
<svg version="1.1" xmlns="http://www.w3.org/2000/svg" xmlns:xlink="http://www.w3.org/1999/xlink" x="0px" y="0px" width="216px" height="216px" viewBox="0 0 216 216" enable-background="new 0 0 216 216" xml:space="preserve">
<path fill-rule="evenodd" clip-rule="evenodd" d="M82.666,86.674v12.823
	c-0.359,2.466-1.204,4.149-3.929,4.3c-3.916,0.213-7.86,0-11.79,0c-7.432,0.032-11.958-0.146-0.593,4.115l35.535,13.322
	c8.418,3.16,7.723,3.151,16.141-0.004c11.674-4.379,23.347-8.758,35.021-13.134c10.394-3.897,5.235-4.277,0.735-4.299
	c-4.144,0-8.286,0-12.429,0c-3.722-0.703-4.278-2.22-4.124-4.3c0-4.137,0-7.989,0-12.126c0-3.492-1.958-2.89-4.37-2.89H86.38
	C83.216,84.66,82.666,83.754,82.666,86.674L82.666,86.674z"/>
</svg>
