<?xml version="1.0" encoding="utf-8"?>
<!DOCTYPE svg PUBLIC "-//W3C//DTD SVG 1.1//EN" "http://www.w3.org/Graphics/SVG/1.1/DTD/svg11.dtd">
<svg version="1.1" xmlns="http://www.w3.org/2000/svg" xmlns:xlink="http://www.w3.org/1999/xlink" x="0px" y="0px" width="216px" height="216px" viewBox="0 0 216 216" enable-background="new 0 0 216 216" xml:space="preserve">
<path id="_x33_" fill-rule="evenodd" clip-rule="evenodd" fill="#F58031" d="M158.37,144.177c-2.479-0.647-4.747-0.858-6.044,0.766
	c-3.459,4.343,7.385,12.545,3.318,16.32c-4.071,3.774-11.439-7.651-16.024-4.524c-4.586,3.123,3.357,14.16-1.645,16.566
	c-4.999,2.41-8.673-10.682-13.975-9.045c-5.307,1.633-0.964,14.521-6.457,15.348c-5.486,0.831-5.14-12.768-10.688-12.768
	c-5.551,0-5.203,13.599-10.691,12.768c-5.489-0.826-1.148-13.715-6.453-15.348c-5.304-1.637-8.976,11.455-13.979,9.045
	c-5-2.406,2.945-13.443-1.64-16.566c-4.585-3.127-11.956,8.299-16.024,4.524c-4.069-3.775,6.777-11.978,3.315-16.32
	c-1.748-2.188-5.264-1.045-8.678,0.008l4.336-6.667l97.768,0.283L158.37,144.177L158.37,144.177z M106.856,18.351
	c-6.987,0-4.004,16.859-10.914,17.9c-6.911,1.043-9.027-15.945-15.705-13.888c-6.677,2.06,1.145,17.29-5.15,20.322
	c-6.296,3.03-13.329-12.579-19.101-8.642c-5.772,3.935,6.189,16.184,1.065,20.936c-5.122,4.751-16.441-8.089-20.798-2.629
	c-4.356,5.464,10.684,13.643,7.19,19.694c-3.494,6.052-18.096-2.886-20.648,3.62c-2.554,6.503,14.229,9.885,12.674,16.698
	l-0.008,0.026l1.304,0.004l-0.227-6.605c-2.604-1.863-4.663-3.783-3.719-6.189c2.248-5.729,15.109,2.141,18.186-3.188
	c3.076-5.331-10.169-12.53-6.333-17.345c3.84-4.812,13.809,6.501,18.319,2.315c4.513-4.186-6.023-14.973-0.938-18.44
	c5.083-3.465,11.275,10.283,16.82,7.611c5.545-2.669-1.343-16.081,4.539-17.896c5.879-1.814,7.745,13.148,13.831,12.231
	c6.086-0.917,3.458-15.765,9.612-15.765c6.155,0,3.524,14.848,9.61,15.765c6.084,0.917,7.951-14.045,13.833-12.231
	c5.877,1.815-1.009,15.227,4.536,17.896c5.546,2.671,11.734-11.077,16.822-7.611c5.084,3.467-5.452,14.254-0.939,18.44
	c4.512,4.187,14.48-7.127,18.316-2.315c3.836,4.814-9.409,12.014-6.331,17.345c3.074,5.329,15.939-2.542,18.188,3.188
	c0.692,1.772-0.239,3.281-1.823,4.699L179,88.927c3.18-4.719,14.003-7.947,11.917-13.264c-2.556-6.505-17.158,2.432-20.65-3.62
	c-3.495-6.051,11.545-14.229,7.19-19.694c-4.358-5.46-15.676,7.38-20.8,2.629c-5.12-4.751,6.841-17,1.069-20.936
	c-5.776-3.938-12.809,11.672-19.104,8.642c-6.294-3.032,1.527-18.262-5.152-20.322c-6.675-2.058-8.794,14.931-15.704,13.888
	C110.858,35.209,113.842,18.351,106.856,18.351L106.856,18.351z"/>
<path id="_x32_" fill-rule="evenodd" clip-rule="evenodd" fill="#999557" d="M11.159,5.385h193.522c3.176,0,5.772,2.599,5.772,5.774
	v193.522c0,3.176-2.597,5.772-5.772,5.772H11.159c-3.176,0-5.774-2.597-5.774-5.772V11.159C5.385,7.983,7.983,5.385,11.159,5.385
	L11.159,5.385z M11.159,0.409h193.522c5.914,0,10.751,4.836,10.751,10.75v193.522c0,5.914-4.837,10.751-10.751,10.751H11.159
	c-5.914,0-10.75-4.837-10.75-10.751V11.159C0.408,5.245,5.245,0.409,11.159,0.409L11.159,0.409z M29.864,148.268
	c-1.511,1.844-2.284,3.683-1.213,5.538c3.494,6.051,16.602-4.962,20.958,0.502c4.356,5.46-9.296,15.789-4.174,20.541
	c5.122,4.755,14.4-9.633,20.174-5.699c5.772,3.937-4.231,17.834,2.065,20.864c6.297,3.03,10.923-13.452,17.598-11.391
	c6.677,2.058,1.215,18.28,8.124,19.321c6.91,1.046,6.473-16.068,13.46-16.068c6.985,0,6.548,17.114,13.458,16.068
	c6.91-1.041,1.446-17.264,8.122-19.321c6.679-2.062,11.305,14.421,17.6,11.391s-3.706-16.928,2.065-20.864
	c5.776-3.934,15.053,10.454,20.177,5.699c5.12-4.752-8.535-15.081-4.177-20.541c4.358-5.464,17.467,5.549,20.958-0.502
	c0.992-1.718,0.405-3.419-0.887-5.124h-8.607c-1.697,2.434-5.485,1.166-9.276,0h-5.06l-0.765-1.203
	c-1.293,0.02-2.402,0.396-3.192,1.381c-3.836,4.813,8.19,13.91,3.678,18.094c-4.512,4.188-12.683-8.485-17.766-5.019
	c-5.088,3.468,3.723,15.704-1.823,18.374c-5.541,2.673-9.616-11.849-15.497-10.033c-5.882,1.814-1.069,16.104-7.153,17.021
	c-6.088,0.919-5.699-14.153-11.854-14.153c-6.155,0-5.768,15.072-11.854,14.153c-6.086-0.916-1.274-15.206-7.155-17.021
	c-5.882-1.815-9.955,12.706-15.498,10.033c-5.545-2.67,3.263-14.906-1.821-18.374c-5.086-3.467-13.258,9.207-17.768,5.019
	c-4.513-4.184,7.514-13.281,3.676-18.094c-1.231-1.543-3.257-1.592-5.541-1.122l-0.219,0.332h-1.179
	c-4.535,1.224-9.628,3.626-11.52,0.349c-0.053-0.089-0.1-0.183-0.142-0.275C34.917,148.175,32.323,148.22,29.864,148.268
	L29.864,148.268z M106.856,36.953c5.548,0,3.178,13.392,8.666,14.218c5.489,0.826,7.17-12.667,12.477-11.03
	c5.302,1.636-0.907,13.731,4.091,16.14c5.002,2.408,10.584-9.991,15.17-6.864c4.589,3.127-4.914,12.854-0.843,16.63
	c4.066,3.775,13.059-6.426,16.519-2.086c3.459,4.338-8.486,10.833-5.712,15.642c0.053,0.091,0.109,0.178,0.17,0.261L55.973,80.269
	c0.194-0.192,0.369-0.411,0.515-0.667c2.774-4.808-9.173-11.301-5.711-15.642c3.461-4.34,12.452,5.861,16.521,2.086
	c4.069-3.775-5.432-13.503-0.847-16.63s10.169,9.272,15.171,6.864c5-2.408-1.211-14.503,4.093-16.14
	c5.302-1.637,6.983,11.856,12.472,11.03C103.675,50.345,101.305,36.953,106.856,36.953L106.856,36.953z"/>
<path id="_x31_" fill-rule="evenodd" clip-rule="evenodd" fill="#7E5628" d="M200.245,143.5l-15.108-22.813l15.108-24.421
	l-21.277-0.956l-0.231,39.068l-9.162,8.279C188.774,142.658,180.924,143.5,200.245,143.5L200.245,143.5z M16.188,143.541
	l12.288-23.417L16.688,96.566l20.251-0.391l-0.27,38.204l10.372,8.879C27.839,143.258,35.507,143.541,16.188,143.541L16.188,143.541
	z M41.943,84.487H173.05l0.429,48.048H42.373L41.943,84.487L41.943,84.487z M153.367,124.961c-2.013,0-3.689-0.393-5.043-1.179
	c-1.349-0.786-2.369-1.937-3.058-3.451s-1.073-3.374-1.154-5.578l5.245-1.032c0.057,1.296,0.215,2.438,0.479,3.427
	c0.259,0.992,0.66,1.758,1.198,2.297c0.535,0.538,1.244,0.806,2.127,0.806c0.992,0,1.693-0.3,2.106-0.892
	c0.413-0.591,0.619-1.34,0.619-2.252c0-1.458-0.328-2.657-0.992-3.593c-0.66-0.936-1.539-1.873-2.641-2.811l-4.217-3.719
	c-1.187-1.021-2.127-2.155-2.831-3.409c-0.701-1.256-1.054-2.803-1.054-4.65c0-2.643,0.77-4.683,2.313-6.117
	c1.543-1.432,3.653-2.147,6.322-2.147c1.572,0,2.88,0.241,3.926,0.723c1.049,0.482,1.883,1.15,2.503,2.003
	c0.62,0.855,1.077,1.825,1.381,2.915c0.304,1.088,0.499,2.238,0.58,3.451l-5.205,0.907c-0.057-1.047-0.175-1.982-0.353-2.809
	c-0.179-0.828-0.499-1.474-0.952-1.942c-0.454-0.47-1.122-0.703-2.005-0.703c-0.907,0-1.604,0.296-2.086,0.889
	c-0.482,0.591-0.722,1.329-0.722,2.209c0,1.13,0.231,2.06,0.701,2.789c0.47,0.731,1.143,1.48,2.025,2.254l4.176,3.676
	c1.373,1.158,2.552,2.513,3.532,4.071c0.977,1.556,1.467,3.435,1.467,5.643c0,1.596-0.353,3.014-1.054,4.253
	c-0.7,1.239-1.681,2.212-2.933,2.912C156.515,124.608,155.049,124.961,153.367,124.961L153.367,124.961z M130.725,124.961
	c-2.482,0-4.411-0.458-5.788-1.365s-2.325-2.203-2.848-3.885c-0.526-1.681-0.786-3.689-0.786-6.031V91.033h5.946v23.348
	c0,1.049,0.073,2.029,0.207,2.953c0.142,0.923,0.466,1.668,0.976,2.231c0.507,0.567,1.272,0.847,2.293,0.847
	c1.069,0,1.852-0.279,2.333-0.847c0.482-0.563,0.798-1.309,0.948-2.231c0.154-0.924,0.227-1.904,0.227-2.953V91.033h5.91v22.647
	c0,2.342-0.26,4.351-0.782,6.031c-0.526,1.682-1.47,2.978-2.831,3.885C135.164,124.503,133.229,124.961,130.725,124.961
	L130.725,124.961z M99.029,124.503v-33.47h4.255l8.142,19.09v-19.09h5.041v33.47h-4.051l-8.18-20v20H99.029L99.029,124.503z
	 M84.854,120.457c1.019,0,1.772-0.224,2.254-0.665s0.804-1.045,0.97-1.814c0.164-0.773,0.249-1.612,0.249-2.523v-15.413
	c0-0.936-0.085-1.776-0.249-2.52c-0.167-0.745-0.488-1.329-0.97-1.758c-0.482-0.425-1.236-0.64-2.254-0.64
	c-0.964,0-1.693,0.215-2.189,0.64c-0.496,0.429-0.826,1.013-0.992,1.758c-0.164,0.743-0.247,1.584-0.247,2.52v15.413
	c0,0.911,0.077,1.75,0.227,2.523c0.152,0.77,0.476,1.373,0.97,1.814C83.118,120.233,83.863,120.457,84.854,120.457L84.854,120.457z
	 M84.854,124.961c-2.368,0-4.255-0.441-5.661-1.324c-1.406-0.884-2.41-2.147-3.016-3.8c-0.608-1.652-0.91-3.609-0.91-5.869v-12.521
	c0-2.258,0.302-4.195,0.91-5.807c0.605-1.612,1.61-2.844,3.016-3.698c1.406-0.853,3.293-1.28,5.661-1.28
	c2.424,0,4.332,0.428,5.724,1.28c1.392,0.854,2.396,2.086,3.018,3.698c0.62,1.612,0.93,3.548,0.93,5.807v12.561
	c0,2.232-0.31,4.168-0.93,5.805c-0.622,1.641-1.626,2.908-3.018,3.804S87.278,124.961,84.854,124.961L84.854,124.961z
	 M58.863,104.712h2.066c1.211,0,2.149-0.18,2.809-0.537c0.662-0.359,1.124-0.91,1.385-1.655c0.261-0.743,0.391-1.679,0.391-2.811
	c0-1.183-0.199-2.098-0.598-2.747c-0.401-0.648-0.999-1.087-1.798-1.322c-0.798-0.233-1.819-0.351-3.056-0.351h-1.199V104.712
	L58.863,104.712z M58.863,120.209h2.313c1.847,0,3.101-0.449,3.761-1.345c0.663-0.895,0.993-2.28,0.993-4.151
	c0-1.353-0.16-2.446-0.476-3.285c-0.316-0.843-0.84-1.469-1.569-1.882c-0.731-0.413-1.702-0.619-2.915-0.619h-2.106V120.209
	L58.863,120.209z M52.747,124.503v-33.47h8.223c1.489,0,2.832,0.138,4.03,0.414c1.197,0.275,2.23,0.737,3.099,1.385
	c0.867,0.648,1.535,1.523,2.003,2.625c0.47,1.102,0.703,2.491,0.703,4.172c0,1.351-0.187,2.507-0.557,3.471
	c-0.373,0.964-0.917,1.729-1.632,2.293c-0.717,0.565-1.61,0.943-2.686,1.138c1.322,0.218,2.416,0.68,3.283,1.383
	c0.869,0.703,1.517,1.618,1.942,2.748c0.43,1.13,0.642,2.491,0.642,4.091c0,1.597-0.198,3.01-0.6,4.233
	c-0.399,1.228-0.992,2.248-1.776,3.063c-0.786,0.81-1.764,1.422-2.935,1.839c-1.171,0.409-2.54,0.615-4.112,0.615H52.747
	L52.747,124.503z"/>
</svg>
