<?xml version="1.0" encoding="utf-8"?>
<!DOCTYPE svg PUBLIC "-//W3C//DTD SVG 1.1//EN" "http://www.w3.org/Graphics/SVG/1.1/DTD/svg11.dtd">
<svg version="1.1" xmlns="http://www.w3.org/2000/svg" xmlns:xlink="http://www.w3.org/1999/xlink" x="0px" y="0px" width="216px" height="216px" viewBox="0 0 216 216" enable-background="new 0 0 216 216" xml:space="preserve">
<path fill-rule="evenodd" clip-rule="evenodd" d="M200.245,143.5l-15.108-22.813l15.108-24.421
	l-21.277-0.956l-0.231,39.068l-9.162,8.279C188.774,142.658,180.924,143.5,200.245,143.5L200.245,143.5z M16.188,143.541
	l12.288-23.417L16.688,96.566l20.251-0.391l-0.27,38.204l10.372,8.879C27.839,143.258,35.507,143.541,16.188,143.541L16.188,143.541
	z M41.943,84.487H173.05l0.429,48.048H42.373L41.943,84.487L41.943,84.487z M153.367,124.961c-2.013,0-3.689-0.393-5.043-1.179
	c-1.349-0.786-2.369-1.937-3.058-3.451s-1.073-3.374-1.154-5.578l5.245-1.032c0.057,1.296,0.215,2.438,0.479,3.427
	c0.259,0.992,0.66,1.758,1.198,2.297c0.535,0.538,1.244,0.806,2.127,0.806c0.992,0,1.693-0.3,2.106-0.892
	c0.413-0.591,0.619-1.34,0.619-2.252c0-1.458-0.328-2.657-0.992-3.593c-0.66-0.936-1.539-1.873-2.641-2.811l-4.217-3.719
	c-1.187-1.021-2.127-2.155-2.831-3.409c-0.701-1.256-1.054-2.803-1.054-4.65c0-2.643,0.77-4.683,2.313-6.117
	c1.543-1.432,3.653-2.147,6.322-2.147c1.572,0,2.88,0.241,3.926,0.723c1.049,0.482,1.883,1.15,2.503,2.003
	c0.62,0.855,1.077,1.825,1.381,2.915c0.304,1.088,0.499,2.238,0.58,3.451l-5.205,0.907c-0.057-1.047-0.175-1.982-0.353-2.809
	c-0.179-0.828-0.499-1.474-0.952-1.942c-0.454-0.47-1.122-0.703-2.005-0.703c-0.907,0-1.604,0.296-2.086,0.889
	c-0.482,0.591-0.722,1.329-0.722,2.209c0,1.13,0.231,2.06,0.701,2.789c0.47,0.731,1.143,1.48,2.025,2.254l4.176,3.676
	c1.373,1.158,2.552,2.513,3.532,4.071c0.977,1.556,1.467,3.435,1.467,5.643c0,1.596-0.353,3.014-1.054,4.253
	c-0.7,1.239-1.681,2.212-2.933,2.912C156.515,124.608,155.049,124.961,153.367,124.961L153.367,124.961z M130.725,124.961
	c-2.482,0-4.411-0.458-5.788-1.365s-2.325-2.203-2.848-3.885c-0.526-1.681-0.786-3.689-0.786-6.031V91.033h5.946v23.348
	c0,1.049,0.073,2.029,0.207,2.953c0.142,0.923,0.466,1.668,0.976,2.231c0.507,0.567,1.272,0.847,2.293,0.847
	c1.069,0,1.852-0.279,2.333-0.847c0.482-0.563,0.798-1.309,0.948-2.231c0.154-0.924,0.227-1.904,0.227-2.953V91.033h5.91v22.647
	c0,2.342-0.26,4.351-0.782,6.031c-0.526,1.682-1.47,2.978-2.831,3.885C135.164,124.503,133.229,124.961,130.725,124.961
	L130.725,124.961z M99.029,124.503v-33.47h4.255l8.142,19.09v-19.09h5.041v33.47h-4.051l-8.18-20v20H99.029L99.029,124.503z
	 M84.854,120.457c1.019,0,1.772-0.224,2.254-0.665s0.804-1.045,0.97-1.814c0.164-0.773,0.249-1.612,0.249-2.523v-15.413
	c0-0.936-0.085-1.776-0.249-2.52c-0.167-0.745-0.488-1.329-0.97-1.758c-0.482-0.425-1.236-0.64-2.254-0.64
	c-0.964,0-1.693,0.215-2.189,0.64c-0.496,0.429-0.826,1.013-0.992,1.758c-0.164,0.743-0.247,1.584-0.247,2.52v15.413
	c0,0.911,0.077,1.75,0.227,2.523c0.152,0.77,0.476,1.373,0.97,1.814C83.118,120.233,83.863,120.457,84.854,120.457L84.854,120.457z
	 M84.854,124.961c-2.368,0-4.255-0.441-5.661-1.324c-1.406-0.884-2.41-2.147-3.016-3.8c-0.608-1.652-0.91-3.609-0.91-5.869v-12.521
	c0-2.258,0.302-4.195,0.91-5.807c0.605-1.612,1.61-2.844,3.016-3.698c1.406-0.853,3.293-1.28,5.661-1.28
	c2.424,0,4.332,0.428,5.724,1.28c1.392,0.854,2.396,2.086,3.018,3.698c0.62,1.612,0.93,3.548,0.93,5.807v12.561
	c0,2.232-0.31,4.168-0.93,5.805c-0.622,1.641-1.626,2.908-3.018,3.804S87.278,124.961,84.854,124.961L84.854,124.961z
	 M58.863,104.712h2.066c1.211,0,2.149-0.18,2.809-0.537c0.662-0.359,1.124-0.91,1.385-1.655c0.261-0.743,0.391-1.679,0.391-2.811
	c0-1.183-0.199-2.098-0.598-2.747c-0.401-0.648-0.999-1.087-1.798-1.322c-0.798-0.233-1.819-0.351-3.056-0.351h-1.199V104.712
	L58.863,104.712z M58.863,120.209h2.313c1.847,0,3.101-0.449,3.761-1.345c0.663-0.895,0.993-2.28,0.993-4.151
	c0-1.353-0.16-2.446-0.476-3.285c-0.316-0.843-0.84-1.469-1.569-1.882c-0.731-0.413-1.702-0.619-2.915-0.619h-2.106V120.209
	L58.863,120.209z M52.747,124.503v-33.47h8.223c1.489,0,2.832,0.138,4.03,0.414c1.197,0.275,2.23,0.737,3.099,1.385
	c0.867,0.648,1.535,1.523,2.003,2.625c0.47,1.102,0.703,2.491,0.703,4.172c0,1.351-0.187,2.507-0.557,3.471
	c-0.373,0.964-0.917,1.729-1.632,2.293c-0.717,0.565-1.61,0.943-2.686,1.138c1.322,0.218,2.416,0.68,3.283,1.383
	c0.869,0.703,1.517,1.618,1.942,2.748c0.43,1.13,0.642,2.491,0.642,4.091c0,1.597-0.198,3.01-0.6,4.233
	c-0.399,1.228-0.992,2.248-1.776,3.063c-0.786,0.81-1.764,1.422-2.935,1.839c-1.171,0.409-2.54,0.615-4.112,0.615H52.747
	L52.747,124.503z"/>
</svg>
