<?xml version="1.0" encoding="utf-8"?>
<!DOCTYPE svg PUBLIC "-//W3C//DTD SVG 1.1//EN" "http://www.w3.org/Graphics/SVG/1.1/DTD/svg11.dtd">
<svg version="1.1" xmlns="http://www.w3.org/2000/svg" xmlns:xlink="http://www.w3.org/1999/xlink" x="0px" y="0px" width="216px" height="216px" viewBox="0 0 216 216" enable-background="new 0 0 216 216" xml:space="preserve">
<path fill-rule="evenodd" clip-rule="evenodd" d="M158.37,144.177c-2.479-0.647-4.747-0.858-6.044,0.766
	c-3.459,4.343,7.385,12.545,3.318,16.32c-4.071,3.774-11.439-7.651-16.024-4.524c-4.586,3.123,3.357,14.16-1.645,16.566
	c-4.999,2.41-8.673-10.682-13.975-9.045c-5.307,1.633-0.964,14.521-6.457,15.348c-5.486,0.831-5.14-12.768-10.688-12.768
	c-5.551,0-5.203,13.599-10.691,12.768c-5.489-0.826-1.148-13.715-6.453-15.348c-5.304-1.637-8.976,11.455-13.979,9.045
	c-5-2.406,2.945-13.443-1.64-16.566c-4.585-3.127-11.956,8.299-16.024,4.524c-4.069-3.775,6.777-11.978,3.315-16.32
	c-1.748-2.188-5.264-1.045-8.678,0.008l4.336-6.667l97.768,0.283L158.37,144.177L158.37,144.177z M106.856,18.351
	c-6.987,0-4.004,16.859-10.914,17.9c-6.911,1.043-9.027-15.945-15.705-13.888c-6.677,2.06,1.145,17.29-5.15,20.322
	c-6.296,3.03-13.329-12.579-19.101-8.642c-5.772,3.935,6.189,16.184,1.065,20.936c-5.122,4.751-16.441-8.089-20.798-2.629
	c-4.356,5.464,10.684,13.643,7.19,19.694c-3.494,6.052-18.096-2.886-20.648,3.62c-2.554,6.503,14.229,9.885,12.674,16.698
	l-0.008,0.026l1.304,0.004l-0.227-6.605c-2.604-1.863-4.663-3.783-3.719-6.189c2.248-5.729,15.109,2.141,18.186-3.188
	c3.076-5.331-10.169-12.53-6.333-17.345c3.84-4.812,13.809,6.501,18.319,2.315c4.513-4.186-6.023-14.973-0.938-18.44
	c5.083-3.465,11.275,10.283,16.82,7.611c5.545-2.669-1.343-16.081,4.539-17.896c5.879-1.814,7.745,13.148,13.831,12.231
	c6.086-0.917,3.458-15.765,9.612-15.765c6.155,0,3.524,14.848,9.61,15.765c6.084,0.917,7.951-14.045,13.833-12.231
	c5.877,1.815-1.009,15.227,4.536,17.896c5.546,2.671,11.734-11.077,16.822-7.611c5.084,3.467-5.452,14.254-0.939,18.44
	c4.512,4.187,14.48-7.127,18.316-2.315c3.836,4.814-9.409,12.014-6.331,17.345c3.074,5.329,15.939-2.542,18.188,3.188
	c0.692,1.772-0.239,3.281-1.823,4.699L179,88.927c3.18-4.719,14.003-7.947,11.917-13.264c-2.556-6.505-17.158,2.432-20.65-3.62
	c-3.495-6.051,11.545-14.229,7.19-19.694c-4.358-5.46-15.676,7.38-20.8,2.629c-5.12-4.751,6.841-17,1.069-20.936
	c-5.776-3.938-12.809,11.672-19.104,8.642c-6.294-3.032,1.527-18.262-5.152-20.322c-6.675-2.058-8.794,14.931-15.704,13.888
	C110.858,35.209,113.842,18.351,106.856,18.351L106.856,18.351z"/>

</svg>
