<?xml version="1.0" encoding="utf-8"?>
<!DOCTYPE svg PUBLIC "-//W3C//DTD SVG 1.1//EN" "http://www.w3.org/Graphics/SVG/1.1/DTD/svg11.dtd">
<svg version="1.1" xmlns="http://www.w3.org/2000/svg" xmlns:xlink="http://www.w3.org/1999/xlink" x="0px" y="0px" width="216px" height="216px" viewBox="0 0 216 216" enable-background="new 0 0 216 216" xml:space="preserve">
<path fill-rule="evenodd" clip-rule="evenodd" d="M149.146,25.293
	c23.611,4.908,41.2,24.554,41.673,51.48l7.282,0.077c-3.95,5.833-7.9,11.666-11.858,17.499c-2.976,4.339-6.097,3.99-8.332-0.234
	l-11.388-17.604l7.283,0.079c-0.455-15.056-9.518-26.865-22.482-32.564v-4.81c0-5.45-2.504-10.339-6.413-13.581
	C146.147,25.161,147.568,25.005,149.146,25.293L149.146,25.293z M97.544,172.245h68.688v8.091H97.544V172.245L97.544,172.245z
	 M97.544,151.342h41.8v8.091h-41.8V151.342L97.544,151.342z M97.544,130.348h30.647v8.091H97.544V130.348L97.544,130.348z"/>
</svg>
