<?xml version="1.0" encoding="utf-8"?>
<!DOCTYPE svg PUBLIC "-//W3C//DTD SVG 1.1//EN" "http://www.w3.org/Graphics/SVG/1.1/DTD/svg11.dtd">
<svg version="1.1" xmlns="http://www.w3.org/2000/svg" xmlns:xlink="http://www.w3.org/1999/xlink" x="0px" y="0px" width="216px" height="216px" viewBox="0 0 216 216" enable-background="new 0 0 216 216" xml:space="preserve">
<path fill-rule="evenodd" clip-rule="evenodd" d="M175.173,104.606H85.056
	c-6.517,0-11.796,5.271-11.796,11.775v7.855h-3.932c-6.515,0-11.794,5.266-11.794,11.774v49.113c0,8.675,7.039,15.702,15.726,15.702
	h97.979c8.688,0,15.728-7.027,15.728-15.702v-58.94c-2.706,4.423-5.324,8.895-7.859,13.414v45.526l0,0
	c0,4.324-3.528,7.854-7.868,7.854H73.259c-4.334,0-7.862-3.53-7.862-7.854v-49.113c0-2.167,1.76-3.928,3.93-3.928h3.932v49.121
	c0,2.167,1.758,3.92,3.932,3.92s3.932-1.753,3.932-3.92v-64.823c0-2.165,1.764-3.924,3.932-3.924h86.483
	c2.325-2.498,4.683-4.955,7.129-7.326C177.562,104.789,176.392,104.606,175.173,104.606L175.173,104.606z M199.207,95.727
	c0.463-0.218,1.212,0.83,0.902,1.235c-14.469,19.006-26.326,39.78-37.219,61.212c-0.341,0.649-1.829,0.594-2.219-0.031
	c-6.616-10.551-15.054-20.459-24.734-29.905c-0.626-0.608-0.504-1.932,0.032-2.63c1.667-2.19,3.804-3.27,5.324-4.219
	c1.513-0.958,2.667-0.593,3.309-0.09c4.909,3.887,9.266,8.123,14.11,12.092c0.415,0.349,1.252,0.268,1.625-0.139
	c10.389-11.328,20.012-23.426,31.937-32.618C194.517,98.907,196.646,96.927,199.207,95.727L199.207,95.727z"/>
</svg>
