<?xml version="1.0" encoding="utf-8"?>
<!DOCTYPE svg PUBLIC "-//W3C//DTD SVG 1.1//EN" "http://www.w3.org/Graphics/SVG/1.1/DTD/svg11.dtd">
<svg version="1.1" xmlns="http://www.w3.org/2000/svg" xmlns:xlink="http://www.w3.org/1999/xlink" x="0px" y="0px" width="216px" height="216px" viewBox="0 0 216 216" enable-background="new 0 0 216 216" xml:space="preserve">
<path fill-rule="evenodd" clip-rule="evenodd" d="M11.002,5.476h194.163
	c3.187,0,5.796,2.601,5.796,5.784v193.852c0,3.182-2.609,5.786-5.796,5.786H11.002c-3.188,0-5.795-2.604-5.795-5.786V11.26
	C5.207,8.077,7.814,5.476,11.002,5.476L11.002,5.476z M11.002,0.489h194.163c5.935,0,10.786,4.847,10.786,10.771v193.852
	c0,5.924-4.852,10.769-10.786,10.769H11.002c-5.936,0-10.788-4.845-10.788-10.769V11.26C0.214,5.336,5.066,0.489,11.002,0.489
	L11.002,0.489z M133.646,27.095H39.867c-6.677,0-12.141,5.457-12.141,12.122v56.848c0,6.668,5.464,12.122,12.141,12.122h27.687
	c3.087-6.559,9.762-11.102,17.502-11.102h60.685c0.033-0.336,0.049-0.678,0.049-1.021V39.217
	C145.789,32.552,140.326,27.095,133.646,27.095L133.646,27.095z M66.598,54.627H43.453v17.658h23.145V54.627L66.598,54.627z"/>
</svg>
