<?xml version="1.0" encoding="utf-8"?>
<!DOCTYPE svg PUBLIC "-//W3C//DTD SVG 1.1//EN" "http://www.w3.org/Graphics/SVG/1.1/DTD/svg11.dtd">
<svg version="1.1" xmlns="http://www.w3.org/2000/svg" xmlns:xlink="http://www.w3.org/1999/xlink" x="0px" y="0px" width="216px" height="216px" viewBox="0 0 216 216" enable-background="new 0 0 216 216" xml:space="preserve">
<path fill-rule="evenodd" clip-rule="evenodd" d="M70.383,100.601h73.539v15.008H70.383V100.601
	L70.383,100.601z M135.339,147.556h14.437c0.717,0,1.304,0.566,1.304,1.264v7.817v1.786v15.704c0,0.697-0.587,1.269-1.304,1.269
	h-14.437c-0.722,0-1.309-0.571-1.309-1.269v-15.704v-1.786v-7.817C134.03,148.122,134.617,147.556,135.339,147.556L135.339,147.556z
	 M64.375,164.527h14.438c0.719,0,1.307,0.567,1.307,1.264v8.336c0,0.697-0.587,1.269-1.307,1.269H64.375
	c-0.717,0-1.304-0.571-1.304-1.269v-8.336C63.071,165.095,63.659,164.527,64.375,164.527L64.375,164.527z M64.375,130.583h14.438
	c0.719,0,1.307,0.571,1.307,1.264v8.341c0,0.696-0.587,1.264-1.307,1.264H64.375c-0.717,0-1.304-0.567-1.304-1.264v-8.341
	C63.071,131.154,63.659,130.583,64.375,130.583L64.375,130.583z"/>

</svg>
