<?xml version="1.0" encoding="utf-8"?>
<!DOCTYPE svg PUBLIC "-//W3C//DTD SVG 1.1//EN" "http://www.w3.org/Graphics/SVG/1.1/DTD/svg11.dtd">
<svg version="1.1" xmlns="http://www.w3.org/2000/svg" xmlns:xlink="http://www.w3.org/1999/xlink" x="0px" y="0px" width="216px" height="216px" viewBox="0 0 216 216" enable-background="new 0 0 216 216" xml:space="preserve">
<path fill-rule="evenodd" clip-rule="evenodd" d="M11.159,0.408h193.523c5.913,0,10.75,4.836,10.75,10.75
	v193.523c0,5.913-4.837,10.75-10.75,10.75H11.159c-5.914,0-10.75-4.837-10.75-10.75V11.159C0.408,5.245,5.245,0.408,11.159,0.408
	L11.159,0.408z M11.159,5.384h193.523c3.175,0,5.771,2.599,5.771,5.774v193.523c0,3.176-2.597,5.771-5.771,5.771H11.159
	c-3.176,0-5.774-2.596-5.774-5.771V11.159C5.384,7.983,7.983,5.384,11.159,5.384L11.159,5.384z M88.029,147.556h14.438
	c0.717,0,1.304,0.566,1.304,1.264v8.336c0,0.696-0.587,1.268-1.304,1.268H88.029c-0.719,0-1.304-0.571-1.304-1.268v-8.336
	C86.725,148.122,87.31,147.556,88.029,147.556L88.029,147.556z M135.339,130.583h14.437c0.717,0,1.304,0.571,1.304,1.264v8.341
	c0,0.696-0.587,1.264-1.304,1.264h-14.437c-0.722,0-1.309-0.567-1.309-1.264v-8.341C134.03,131.154,134.617,130.583,135.339,130.583
	L135.339,130.583z M111.683,164.527h14.437c0.717,0,1.309,0.567,1.309,1.264v8.336c0,0.697-0.592,1.269-1.309,1.269h-14.437
	c-0.717,0-1.304-0.571-1.304-1.269v-8.336C110.379,165.095,110.966,164.527,111.683,164.527L111.683,164.527z"/>
</svg>
