<?xml version="1.0" encoding="utf-8"?>
<!DOCTYPE svg PUBLIC "-//W3C//DTD SVG 1.1//EN" "http://www.w3.org/Graphics/SVG/1.1/DTD/svg11.dtd">
<svg version="1.1" xmlns="http://www.w3.org/2000/svg" xmlns:xlink="http://www.w3.org/1999/xlink" x="0px" y="0px" width="216px" height="216px" viewBox="0 0 216 216" enable-background="new 0 0 216 216" xml:space="preserve">
<path id="_x33_" fill-rule="evenodd" clip-rule="evenodd" fill="#999557" d="M11.159,0.408h193.523c5.913,0,10.75,4.836,10.75,10.75
	v193.523c0,5.913-4.837,10.75-10.75,10.75H11.159c-5.914,0-10.75-4.837-10.75-10.75V11.159C0.408,5.245,5.245,0.408,11.159,0.408
	L11.159,0.408z M11.159,5.384h193.523c3.175,0,5.771,2.599,5.771,5.774v193.523c0,3.176-2.597,5.771-5.771,5.771H11.159
	c-3.176,0-5.774-2.596-5.774-5.771V11.159C5.384,7.983,7.983,5.384,11.159,5.384L11.159,5.384z M88.029,147.556h14.438
	c0.717,0,1.304,0.566,1.304,1.264v8.336c0,0.696-0.587,1.268-1.304,1.268H88.029c-0.719,0-1.304-0.571-1.304-1.268v-8.336
	C86.725,148.122,87.31,147.556,88.029,147.556L88.029,147.556z M135.339,130.583h14.437c0.717,0,1.304,0.571,1.304,1.264v8.341
	c0,0.696-0.587,1.264-1.304,1.264h-14.437c-0.722,0-1.309-0.567-1.309-1.264v-8.341C134.03,131.154,134.617,130.583,135.339,130.583
	L135.339,130.583z M111.683,164.527h14.437c0.717,0,1.309,0.567,1.309,1.264v8.336c0,0.697-0.592,1.269-1.309,1.269h-14.437
	c-0.717,0-1.304-0.571-1.304-1.269v-8.336C110.379,165.095,110.966,164.527,111.683,164.527L111.683,164.527z"/>
<path id="_x32_" fill-rule="evenodd" clip-rule="evenodd" fill="#F58031" d="M70.383,100.601h73.539v15.008H70.383V100.601
	L70.383,100.601z M135.339,147.556h14.437c0.717,0,1.304,0.566,1.304,1.264v7.817v1.786v15.704c0,0.697-0.587,1.269-1.304,1.269
	h-14.437c-0.722,0-1.309-0.571-1.309-1.269v-15.704v-1.786v-7.817C134.03,148.122,134.617,147.556,135.339,147.556L135.339,147.556z
	 M64.375,164.527h14.438c0.719,0,1.307,0.567,1.307,1.264v8.336c0,0.697-0.587,1.269-1.307,1.269H64.375
	c-0.717,0-1.304-0.571-1.304-1.269v-8.336C63.071,165.095,63.659,164.527,64.375,164.527L64.375,164.527z M64.375,130.583h14.438
	c0.719,0,1.307,0.571,1.307,1.264v8.341c0,0.696-0.587,1.264-1.307,1.264H64.375c-0.717,0-1.304-0.567-1.304-1.264v-8.341
	C63.071,131.154,63.659,130.583,64.375,130.583L64.375,130.583z"/>
<path id="_x31_" fill-rule="evenodd" clip-rule="evenodd" fill="#7E5628" d="M88.029,164.527h14.438
	c0.717,0,1.304,0.567,1.304,1.264v8.336c0,0.697-0.587,1.269-1.304,1.269H88.029c-0.719,0-1.304-0.571-1.304-1.269v-8.336
	C86.725,165.095,87.31,164.527,88.029,164.527L88.029,164.527z M111.683,147.556h14.437c0.717,0,1.309,0.566,1.309,1.264v8.336
	c0,0.696-0.592,1.268-1.309,1.268h-14.437c-0.717,0-1.304-0.571-1.304-1.268v-8.336
	C110.379,148.122,110.966,147.556,111.683,147.556L111.683,147.556z M111.683,130.583h14.437c0.717,0,1.309,0.571,1.309,1.264v8.341
	c0,0.696-0.592,1.264-1.309,1.264h-14.437c-0.717,0-1.304-0.567-1.304-1.264v-8.341
	C110.379,131.154,110.966,130.583,111.683,130.583L111.683,130.583z M88.029,130.583h14.438c0.717,0,1.304,0.571,1.304,1.264v8.341
	c0,0.696-0.587,1.264-1.304,1.264H88.029c-0.719,0-1.304-0.567-1.304-1.264v-8.341C86.725,131.154,87.31,130.583,88.029,130.583
	L88.029,130.583z M64.375,147.556h14.438c0.719,0,1.307,0.566,1.307,1.264v8.336c0,0.696-0.587,1.268-1.307,1.268H64.375
	c-0.717,0-1.304-0.571-1.304-1.268v-8.336C63.071,148.122,63.659,147.556,64.375,147.556L64.375,147.556z M70.383,100.601h73.539
	v15.008H70.383V100.601L70.383,100.601z M62.764,93.218h88.777v29.774H62.764V93.218L62.764,93.218z M78.124,56.608L56.327,77.734
	l-5.545,5.375v85.136c0,12.265,10.39,22.331,23.042,22.331h67.579c12.654,0,23.04-10.066,23.04-22.331V82.515L107.92,27.729
	L78.124,56.608L78.124,56.608z M42.49,28.608h35.633v15.834l29.796-28.881l91.795,88.97h-12.557l-13.015-12.616l0.434,76.33
	c0.105,17.688-14.927,32.157-33.175,32.157H73.824c-18.248,0-33.32-14.469-33.177-32.157l0.614-75.909l-12.579,12.195H16.126
	L42.488,79l0.002-1.266V28.608L42.49,28.608z"/>
</svg>
