<?xml version="1.0" encoding="utf-8"?>
<!DOCTYPE svg PUBLIC "-//W3C//DTD SVG 1.1//EN" "http://www.w3.org/Graphics/SVG/1.1/DTD/svg11.dtd">
<svg version="1.1" xmlns="http://www.w3.org/2000/svg" xmlns:xlink="http://www.w3.org/1999/xlink" x="0px" y="0px" width="216px" height="216px" viewBox="0 0 216 216" enable-background="new 0 0 216 216" xml:space="preserve">
<path fill-rule="evenodd" clip-rule="evenodd" fill="#3" d="M146.861,117.529h15.977c1.332,0,2.423,1.091,2.423,2.419v58.816
	c0,1.332-1.091,2.423-2.423,2.423h-15.977c-1.328,0-2.419-1.091-2.419-2.423v-58.816
	C144.442,118.62,145.533,117.529,146.861,117.529L146.861,117.529z M55.13,117.529h15.976c1.33,0,2.418,1.091,2.418,2.419v10.408
	c0,1.333-1.088,2.423-2.418,2.423H55.13c-1.331,0-2.421-1.09-2.421-2.423v-10.408C52.709,118.62,53.799,117.529,55.13,117.529
	L55.13,117.529z M55.13,165.937h15.976c1.33,0,2.418,1.091,2.418,2.423v10.405c0,1.332-1.088,2.423-2.418,2.423H55.13
	c-1.331,0-2.421-1.091-2.421-2.423v-10.405C52.709,167.027,53.799,165.937,55.13,165.937L55.13,165.937z"/>
<path fill-rule="evenodd" clip-rule="evenodd" fill="2" d="M15.43-0.891h184.98c8.978,0,16.32,7.344,16.32,16.32v184.98
	c0,8.974-7.343,16.32-16.32,16.32H15.43c-8.976,0-16.32-7.347-16.32-16.32V15.43C-0.891,6.454,6.454-0.891,15.43-0.891L15.43-0.891z
	 M15.43,4.146h184.98c6.207,0,11.282,5.078,11.282,11.284v184.98c0,6.207-5.075,11.282-11.282,11.282H15.43
	c-6.207,0-11.284-5.075-11.284-11.282V15.43C4.146,9.223,9.223,4.146,15.43,4.146L15.43,4.146z M52.951,24.006h111.342
	c4.313,0,7.838,3.53,7.838,7.841V184.09c0,4.313-3.525,7.843-7.838,7.843H52.951c-4.313,0-7.84-3.53-7.84-7.843V31.847
	C45.11,27.536,48.638,24.006,52.951,24.006L52.951,24.006z M52.951,14.419h111.342c9.585,0,17.427,7.84,17.427,17.427V184.09
	c0,9.589-7.842,17.432-17.427,17.432H52.951c-9.584,0-17.427-7.843-17.427-17.432V31.847C35.523,22.26,43.366,14.419,52.951,14.419
	L52.951,14.419z M85.868,141.733h15.976c1.331,0,2.421,1.09,2.421,2.419v10.408c0,1.332-1.09,2.423-2.421,2.423H85.868
	c-1.33,0-2.421-1.091-2.421-2.423v-10.408C83.447,142.823,84.538,141.733,85.868,141.733L85.868,141.733z M116.606,165.937h15.977
	c1.332,0,2.423,1.091,2.423,2.423v10.405c0,1.332-1.091,2.423-2.423,2.423h-15.977c-1.328,0-2.418-1.091-2.418-2.423v-10.405
	C114.188,167.027,115.278,165.937,116.606,165.937L116.606,165.937z"/>
<path fill-rule="evenodd" clip-rule="evenodd" fill="1" d="M85.868,165.937h15.976c1.331,0,2.421,1.091,2.421,2.423v10.405
	c0,1.332-1.09,2.423-2.421,2.423H85.868c-1.33,0-2.421-1.091-2.421-2.423v-10.405C83.447,167.027,84.538,165.937,85.868,165.937
	L85.868,165.937z M116.606,141.733h15.977c1.332,0,2.423,1.09,2.423,2.419v10.408c0,1.332-1.091,2.423-2.423,2.423h-15.977
	c-1.328,0-2.418-1.091-2.418-2.423v-10.408C114.188,142.823,115.278,141.733,116.606,141.733L116.606,141.733z M116.606,117.529
	h15.977c1.332,0,2.423,1.091,2.423,2.419v10.408c0,1.333-1.091,2.423-2.423,2.423h-15.977c-1.328,0-2.418-1.09-2.418-2.423v-10.408
	C114.188,118.62,115.278,117.529,116.606,117.529L116.606,117.529z M85.868,117.529h15.976c1.331,0,2.421,1.091,2.421,2.419v10.408
	c0,1.333-1.09,2.423-2.421,2.423H85.868c-1.33,0-2.421-1.09-2.421-2.423v-10.408C83.447,118.62,84.538,117.529,85.868,117.529
	L85.868,117.529z M55.13,141.733h15.976c1.33,0,2.418,1.09,2.418,2.419v10.408c0,1.332-1.088,2.423-2.418,2.423H55.13
	c-1.331,0-2.421-1.091-2.421-2.423v-10.408C52.709,142.823,53.799,141.733,55.13,141.733L55.13,141.733z M131.919,77.128
	c3.611,0,6.538,2.927,6.538,6.535c0,3.609-2.927,6.535-6.538,6.535c-3.608,0-6.535-2.925-6.535-6.535
	C125.384,80.055,128.311,77.128,131.919,77.128L131.919,77.128z M131.919,65.268c10.158,0,18.398,8.238,18.398,18.395
	c0,10.159-8.24,18.396-18.398,18.396c-10.159,0-18.396-8.238-18.396-18.396C113.523,73.506,121.76,65.268,131.919,65.268
	L131.919,65.268z M86.352,48.788c3.612,0,6.537,2.927,6.537,6.537s-2.925,6.535-6.537,6.535c-3.605,0-6.535-2.925-6.535-6.535
	S82.747,48.788,86.352,48.788L86.352,48.788z M86.352,36.928c10.159,0,18.397,8.238,18.397,18.397
	c0,10.157-8.238,18.395-18.397,18.395c-10.157,0-18.395-8.238-18.395-18.395C67.958,45.166,76.195,36.928,86.352,36.928
	L86.352,36.928z M129.291,38.139h9.027c1.062,0,1.238,0.872,0.389,1.937L92.565,97.802c-0.851,1.064-2.417,1.937-3.485,1.937h-9.023
	c-1.064,0-1.24-0.873-0.389-1.937l46.139-57.726C126.659,39.011,128.229,38.139,129.291,38.139L129.291,38.139z M56.339,31.604
	h105.047c1.996,0,3.632,1.634,3.632,3.63v68.258c0,1.994-1.636,3.63-3.632,3.63H56.339c-1.997,0-3.63-1.636-3.63-3.63V35.235
	C52.709,33.238,54.343,31.604,56.339,31.604L56.339,31.604z"/>
</svg>
