<?xml version="1.0" encoding="utf-8"?>
<!DOCTYPE svg PUBLIC "-//W3C//DTD SVG 1.1//EN" "http://www.w3.org/Graphics/SVG/1.1/DTD/svg11.dtd">
<svg version="1.1" xmlns="http://www.w3.org/2000/svg" xmlns:xlink="http://www.w3.org/1999/xlink" x="0px" y="0px" width="216px" height="216px" viewBox="0 0 216 216" enable-background="new 0 0 216 216" xml:space="preserve">
<path fill-rule="evenodd" clip-rule="evenodd" d="M146.861,117.529h15.977c1.332,0,2.423,1.091,2.423,2.419v58.816
	c0,1.332-1.091,2.423-2.423,2.423h-15.977c-1.328,0-2.419-1.091-2.419-2.423v-58.816
	C144.442,118.62,145.533,117.529,146.861,117.529L146.861,117.529z M55.13,117.529h15.976c1.33,0,2.418,1.091,2.418,2.419v10.408
	c0,1.333-1.088,2.423-2.418,2.423H55.13c-1.331,0-2.421-1.09-2.421-2.423v-10.408C52.709,118.62,53.799,117.529,55.13,117.529
	L55.13,117.529z M55.13,165.937h15.976c1.33,0,2.418,1.091,2.418,2.423v10.405c0,1.332-1.088,2.423-2.418,2.423H55.13
	c-1.331,0-2.421-1.091-2.421-2.423v-10.405C52.709,167.027,53.799,165.937,55.13,165.937L55.13,165.937z"/>

</svg>
