<?xml version="1.0" encoding="utf-8"?>
<!DOCTYPE svg PUBLIC "-//W3C//DTD SVG 1.1//EN" "http://www.w3.org/Graphics/SVG/1.1/DTD/svg11.dtd">
<svg version="1.1" xmlns="http://www.w3.org/2000/svg" xmlns:xlink="http://www.w3.org/1999/xlink" x="0px" y="0px" width="216px" height="216px" viewBox="0 0 216 216" enable-background="new 0 0 216 216" xml:space="preserve">

<path fill-rule="evenodd" clip-rule="evenodd" d="M15.43-0.891h184.98c8.978,0,16.32,7.344,16.32,16.32v184.98
	c0,8.974-7.343,16.32-16.32,16.32H15.43c-8.976,0-16.32-7.347-16.32-16.32V15.43C-0.891,6.454,6.454-0.891,15.43-0.891L15.43-0.891z
	 M15.43,4.146h184.98c6.207,0,11.282,5.078,11.282,11.284v184.98c0,6.207-5.075,11.282-11.282,11.282H15.43
	c-6.207,0-11.284-5.075-11.284-11.282V15.43C4.146,9.223,9.223,4.146,15.43,4.146L15.43,4.146z M52.951,24.006h111.342
	c4.313,0,7.838,3.53,7.838,7.841V184.09c0,4.313-3.525,7.843-7.838,7.843H52.951c-4.313,0-7.84-3.53-7.84-7.843V31.847
	C45.11,27.536,48.638,24.006,52.951,24.006L52.951,24.006z M52.951,14.419h111.342c9.585,0,17.427,7.84,17.427,17.427V184.09
	c0,9.589-7.842,17.432-17.427,17.432H52.951c-9.584,0-17.427-7.843-17.427-17.432V31.847C35.523,22.26,43.366,14.419,52.951,14.419
	L52.951,14.419z M85.868,141.733h15.976c1.331,0,2.421,1.09,2.421,2.419v10.408c0,1.332-1.09,2.423-2.421,2.423H85.868
	c-1.33,0-2.421-1.091-2.421-2.423v-10.408C83.447,142.823,84.538,141.733,85.868,141.733L85.868,141.733z M116.606,165.937h15.977
	c1.332,0,2.423,1.091,2.423,2.423v10.405c0,1.332-1.091,2.423-2.423,2.423h-15.977c-1.328,0-2.418-1.091-2.418-2.423v-10.405
	C114.188,167.027,115.278,165.937,116.606,165.937L116.606,165.937z"/>

</svg>
