<?xml version="1.0" encoding="utf-8"?>
<!DOCTYPE svg PUBLIC "-//W3C//DTD SVG 1.1//EN" "http://www.w3.org/Graphics/SVG/1.1/DTD/svg11.dtd">
<svg version="1.1" id="Layer_1" xmlns="http://www.w3.org/2000/svg" xmlns:xlink="http://www.w3.org/1999/xlink" x="0px" y="0px" width="216px" height="216px" viewBox="0 0 216 216" enable-background="new 0 0 216 216" xml:space="preserve">
<path id="_x31_" fill-rule="evenodd" clip-rule="evenodd" fill="#7E5628" d="M44.415,110.154h5.016
	c-0.515-10.096-0.876-23.655,1.342-29.337l2.28-5.839l6.001-0.034c3.806-0.927,12.692-9.238,14.677-12.562l5.829-9.763l8.359,7.708
	c13.245,12.215,51.255,19.406,68.733,16.402l7.425-1.276l2.74,7.018c2.391,6.124,2.193,19.38,2.176,26.119
	c-0.001,0.527-0.004,1.053-0.008,1.58c0.131-0.01,0.262-0.015,0.395-0.015h6.934c2.859,0,5.02,2.34,4.8,5.2l-1.787,23.228
	c-0.22,2.86-2.739,5.2-5.6,5.2h-6.367c-2.647,13.088-9.221,25.055-18.548,34.021c-2.448,14-3.469,21.02,1.31,32.268h-10.87
	c-1.859-7.704-1.772-15.872-0.824-24.262c-8.508,5.167-18.408,8.182-29.166,8.182c-8.004,0-15.856-1.724-23.131-5.058
	c-2.209-1.013-4.346-2.165-6.401-3.444l0.023,0.079c0.974,8.475,1.081,16.726-0.796,24.503H68.084
	c4.834-11.38,3.733-18.431,1.224-32.762l0.066-0.011c-0.659-0.651-1.304-1.318-1.934-2.001c-5.359-5.806-9.563-12.609-12.436-19.966
	c-1.464-3.748-2.572-7.614-3.326-11.549h-4.679c-2.86,0-5.38-2.34-5.6-5.2l-1.787-23.228
	C39.395,112.494,41.554,110.154,44.415,110.154L44.415,110.154z M158.215,85.829c2.508,6.421,1.211,37.636,1.211,45.046
	c0,29.64-22.807,53.882-50.166,53.882c-6.84,0-13.357-1.502-19.284-4.218c-5.928-2.717-11.267-6.648-15.75-11.505
	s-8.112-10.64-10.619-17.062s-3.894-13.481-3.894-20.891c0-2.316-0.278-7.139-0.584-12.87c-0.672-12.609-1.479-29.621,0.245-34.036
	c6.523-0.037,18.832-11.277,22.285-17.061C96.921,81.19,137.543,89.382,158.215,85.829L158.215,85.829z"/>
<path id="_x32_" fill-rule="evenodd" clip-rule="evenodd" fill="#999557" d="M52.555,210.456v-1.153c0-3.52-2.019-4.606-4.986-4.606
	l-19.016-0.005c-8.291-0.003-13.22-1.287-15.889-4.789c-1.763-2.311-2.771-5.722-2.771-10.557v-22.295
	c0-2.979-1.071-5.014-4.604-5.014H4.137c-2.699,0-4.611,1.913-4.611,4.611v25.362c0,4.794,1.232,11.179,5.54,15.636
	c4.586,4.746,12.413,7.421,17.517,7.421h25.362C50.643,215.067,52.555,213.154,52.555,210.456L52.555,210.456z M52.555,3.611v1.153
	c0,3.52-2.019,4.606-4.986,4.606L28.554,9.376c-8.291,0.002-13.22,1.287-15.889,4.789c-1.763,2.311-2.771,5.722-2.771,10.557v22.294
	c0,2.979-1.071,5.014-4.604,5.014H4.137c-2.699,0-4.611-1.913-4.611-4.612V22.057c0-4.794,1.232-11.179,5.54-15.637
	C9.651,1.674,17.479-1,22.582-1h25.362C50.643-1,52.555,0.913,52.555,3.611L52.555,3.611z M162.76,3.611v1.153
	c0,3.52,2.02,4.606,4.985,4.606l19.016,0.005c8.291,0.002,13.22,1.287,15.889,4.789c1.763,2.311,2.771,5.722,2.771,10.557v22.294
	c0,2.979,1.071,5.014,4.604,5.014h1.153c2.698,0,4.61-1.913,4.61-4.612V22.057c0-4.794-1.231-11.179-5.539-15.637
	C205.663,1.674,197.837-1,192.732-1h-25.361C164.672-1,162.76,0.913,162.76,3.611L162.76,3.611z M162.76,210.456v-1.153
	c0-3.52,2.02-4.606,4.985-4.606l19.016-0.005c8.291-0.003,13.22-1.287,15.889-4.789c1.763-2.311,2.771-5.722,2.771-10.557v-22.295
	c0-2.979,1.071-5.014,4.604-5.014h1.153c2.698,0,4.61,1.913,4.61,4.611v25.362c0,4.794-1.231,11.179-5.539,15.636
	c-4.587,4.746-12.413,7.421-17.518,7.421h-25.361C164.672,215.067,162.76,213.154,162.76,210.456L162.76,210.456z M132.227,110.528
	c6.067,0,10.989,4.921,10.989,10.989s-4.922,10.99-10.989,10.99c-6.068,0-10.99-4.922-10.99-10.99S126.158,110.528,132.227,110.528
	L132.227,110.528z M83.535,110.848c6.068,0,10.99,4.922,10.99,10.989c0,6.068-4.922,10.99-10.99,10.99s-10.99-4.922-10.99-10.99
	C72.545,115.77,77.467,110.848,83.535,110.848L83.535,110.848z"/>
<path id="_x33_" fill-rule="evenodd" clip-rule="evenodd" fill="#F58031" d="M179.515,89.384c1.17-3.215,1.584-6.958,1.868-11.387
	c1.703-26.51-1.971-37.476-18.759-46.528c-18.33-9.883-53.805-19.934-74.21-19.934c-40.915,0-57.12,32.16-54.846,66.461
	c0.411,6.204,1.431,11.277,2.872,15.816c4.839,15.241,4.559,14.105,5.155-0.622c0.241-5.95,1.262-11.326,1.752-12.532l4.411-12.262
	l9.203-0.05c5.917-2.307,16.553-20.25,20.499-25.744l13.626,12.067c14.872,13.17,52.185,16.937,71.807,13.698l6.211-2.344
	c2.32,5.861,5.374,15.131,5.837,24.019C175.402,98.931,177.622,94.585,179.515,89.384L179.515,89.384z M94.54,147.734
	c7.008,3.391,10.742,5.138,14.591,4.989c3.396-0.13,6.881-1.736,12.783-4.989c2.21-1.219,4.364,2.56,4.364,5.689l0,0
	c0,1.565-0.491,2.987-1.282,4.02c-0.791,1.03-0.412,1.503-2.884,2.832c-9.521,5.118-18.071,5.81-27.572-0.129
	c-3.596-2.247-4.364-3.593-4.364-6.723l0,0c0-1.564,0.491-2.987,1.282-4.019C92.249,148.374,93.416,147.189,94.54,147.734
	L94.54,147.734z M198.288,73.559h12.786c2.45,0,4.455,2.462,4.455,5.471l0,0c0,3.009-2.005,5.471-4.455,5.471h-12.786
	c-2.451,0-4.456-2.462-4.456-5.471l0,0C193.832,76.021,195.837,73.559,198.288,73.559L198.288,73.559z M198.288,129.644h12.786
	c2.45,0,4.455,2.462,4.455,5.471l0,0c0,3.009-2.005,5.471-4.455,5.471h-12.786c-2.451,0-4.456-2.462-4.456-5.471l0,0
	C193.832,132.105,195.837,129.644,198.288,129.644L198.288,129.644z M198.288,101.428h12.786c2.45,0,4.455,2.462,4.455,5.471l0,0
	c0,3.009-2.005,5.471-4.455,5.471h-12.786c-2.451,0-4.456-2.462-4.456-5.471l0,0C193.832,103.89,195.837,101.428,198.288,101.428
	L198.288,101.428z M3.455,73.559h12.786c2.451,0,4.456,2.462,4.456,5.471l0,0c0,3.009-2.005,5.471-4.456,5.471H3.455
	C1.004,84.5-1,82.038-1,79.029l0,0C-1,76.021,1.004,73.559,3.455,73.559L3.455,73.559z M3.455,129.644h12.786
	c2.451,0,4.456,2.462,4.456,5.471l0,0c0,3.009-2.005,5.471-4.456,5.471H3.455c-2.451,0-4.455-2.462-4.455-5.471l0,0
	C-1,132.105,1.004,129.644,3.455,129.644L3.455,129.644z M3.455,101.428h12.786c2.451,0,4.456,2.462,4.456,5.471l0,0
	c0,3.009-2.005,5.471-4.456,5.471H3.455c-2.451,0-4.455-2.462-4.455-5.471l0,0C-1,103.89,1.004,101.428,3.455,101.428L3.455,101.428
	z"/>
</svg>
