<?xml version="1.0" encoding="utf-8"?>
<!DOCTYPE svg PUBLIC "-//W3C//DTD SVG 1.1//EN" "http://www.w3.org/Graphics/SVG/1.1/DTD/svg11.dtd">
<svg version="1.1" xmlns="http://www.w3.org/2000/svg" xmlns:xlink="http://www.w3.org/1999/xlink" x="0px" y="0px" width="216px" height="216px" viewBox="0 0 216 216" enable-background="new 0 0 216 216" xml:space="preserve">
<path fill-rule="evenodd" clip-rule="evenodd" d="M16.284,0.112h183.275
	c8.895,0,16.169,7.277,16.169,16.17v183.277c0,8.891-7.274,16.17-16.169,16.17H16.284c-8.895,0-16.172-7.279-16.172-16.17V16.282
	C0.112,7.389,7.389,0.112,16.284,0.112L16.284,0.112z M16.284,5.102h183.275c6.148,0,11.177,5.031,11.177,11.18v183.277
	c0,6.148-5.028,11.177-11.177,11.177H16.284c-6.149,0-11.182-5.028-11.182-11.177V16.282C5.102,10.132,10.134,5.102,16.284,5.102
	L16.284,5.102z M145.443,164.582l-12.223,5.942v-39.042c0-0.829,0.154-0.564-0.727-0.995l-60.44-28.94l11.714-5.203l60.528,28.94
	c0.561,0.261,0.438,0.646,0.658,0.971L145.443,164.582L145.443,164.582z"/>
</svg>
