<?xml version="1.0" encoding="utf-8"?>
<!DOCTYPE svg PUBLIC "-//W3C//DTD SVG 1.1//EN" "http://www.w3.org/Graphics/SVG/1.1/DTD/svg11.dtd">
<svg version="1.1" xmlns="http://www.w3.org/2000/svg" xmlns:xlink="http://www.w3.org/1999/xlink" x="0px" y="0px" width="216px" height="216px" viewBox="0 0 216 216" enable-background="new 0 0 216 216" xml:space="preserve">
<path fill-rule="evenodd" clip-rule="evenodd" d="M78.145,156.966v15.825
	c-0.434,2.972-1.454,5.009-4.741,5.187c-4.725,0.262-9.484,0-14.228,0c-8.967,0.042-14.431-0.178-0.716,4.963l42.881,16.083
	c10.16,3.811,9.319,3.803,19.484-0.008c14.082-5.281,28.174-10.565,42.26-15.846c12.54-4.703,6.314-5.167,0.889-5.192
	c-5.001,0-10,0-15.003,0c-4.491-0.847-5.159-2.678-4.973-5.187c0-4.995,0-9.986,0-14.982c0-4.214-2.356-4.523-5.276-4.523H82.627
	C78.808,153.497,78.145,153.444,78.145,156.966L78.145,156.966z"/>
</svg>
