<?xml version="1.0" encoding="utf-8"?>
<!DOCTYPE svg PUBLIC "-//W3C//DTD SVG 1.1//EN" "http://www.w3.org/Graphics/SVG/1.1/DTD/svg11.dtd">
<svg version="1.1" xmlns="http://www.w3.org/2000/svg" xmlns:xlink="http://www.w3.org/1999/xlink" x="0px" y="0px" width="216px" height="216px" viewBox="0 0 216 216" enable-background="new 0 0 216 216" xml:space="preserve">
<path fill-rule="evenodd" clip-rule="evenodd" d="M17.068,0.858h183.706
	c8.917,0,16.209,7.293,16.209,16.208v183.708c0,8.913-7.292,16.208-16.209,16.208H17.068c-8.916,0-16.21-7.295-16.21-16.208V17.066
	C0.858,8.151,8.152,0.858,17.068,0.858L17.068,0.858z M17.068,5.86h183.706c6.165,0,11.205,5.042,11.205,11.206v183.708
	c0,6.165-5.04,11.205-11.205,11.205H17.068c-6.164,0-11.208-5.04-11.208-11.205V17.066C5.86,10.902,10.904,5.86,17.068,5.86
	L17.068,5.86z M146.336,110.939l-12.026,5.847V78.358c0-0.814,0.15-0.556-0.717-0.979L74.104,48.894l11.528-5.124l59.58,28.487
	c0.55,0.256,0.432,0.635,0.647,0.953L146.336,110.939L146.336,110.939z"/>
</svg>
