<?xml version="1.0" encoding="utf-8"?>
<!DOCTYPE svg PUBLIC "-//W3C//DTD SVG 1.1//EN" "http://www.w3.org/Graphics/SVG/1.1/DTD/svg11.dtd">
<svg version="1.1" xmlns="http://www.w3.org/2000/svg" xmlns:xlink="http://www.w3.org/1999/xlink" x="0px" y="0px" width="216px" height="216px" viewBox="0 0 216 216" enable-background="new 0 0 216 216" xml:space="preserve">
<path id="_x33_" fill-rule="evenodd" clip-rule="evenodd" fill="#F58031" d="M76.66,21.625v15.784
	c-0.435,2.969-1.45,4.996-4.731,5.177c-4.714,0.258-9.462,0-14.194,0c-8.946,0.039-14.397-0.178-0.715,4.954L99.8,63.581
	c10.136,3.802,9.299,3.794,19.436-0.008c14.054-5.27,28.111-10.54,42.161-15.811c12.51-4.691,6.304-5.15,0.886-5.177
	c-4.988,0-9.977,0-14.964,0c-4.48-0.847-5.146-2.672-4.964-5.177c0-4.979,0-9.963,0-14.943c0-4.204-2.352-4.517-5.26-4.517H81.13
	C77.322,18.165,76.66,18.109,76.66,21.625L76.66,21.625z"/>
<path id="_x32_" fill-rule="evenodd" clip-rule="evenodd" fill="#999557" d="M16.284,0.112h183.275
	c8.895,0,16.169,7.277,16.169,16.17v183.277c0,8.891-7.274,16.17-16.169,16.17H16.284c-8.895,0-16.172-7.279-16.172-16.17V16.282
	C0.112,7.389,7.389,0.112,16.284,0.112L16.284,0.112z M16.284,5.102h183.275c6.148,0,11.177,5.031,11.177,11.18v183.277
	c0,6.148-5.028,11.177-11.177,11.177H16.284c-6.149,0-11.182-5.028-11.182-11.177V16.282C5.102,10.132,10.134,5.102,16.284,5.102
	L16.284,5.102z M145.443,164.582l-12.223,5.942v-39.042c0-0.829,0.154-0.564-0.727-0.995l-60.44-28.94l11.714-5.203l60.528,28.94
	c0.561,0.261,0.438,0.646,0.658,0.971L145.443,164.582L145.443,164.582z"/>
<path id="_x31_" fill-rule="evenodd" clip-rule="evenodd" fill="#7E5628" d="M22.795,165.792l65.443,30.147l39.979-19.777v2.129
	l21.771-10.59v-2.307l42.301-20.927l-3.852-1.771l-38.449,19.017v-4.229l42.301-20.922l-3.852-1.774l-38.449,19.021v-3.862
	l42.301-20.922l-3.852-1.775l-38.449,19.021v-3.493l42.301-20.922l-3.852-1.776l-38.449,19.022v-3.862l42.301-20.923l-2.694-1.243
	l-39.606,19.595v-3.308l42.301-20.926l-2.694-1.241l-39.606,19.592v-2.998v-0.044l42.698-20.726l-65.095-30.555L87.014,92.166
	l-2.339-1.16l-22.328,11.046l2.126,1.052l-41.822,20.303l65.094,30.558l40.143-19.488l0.329,0.166v2.916l-39.979,19.777
	L25.49,128.428l-2.695,1.333l65.443,30.15l39.979-19.781v3.307l-39.979,19.776L25.49,134.305l-2.695,1.337l65.443,30.146
	l39.979-19.776v3.858l-39.979,19.777l-61.593-28.372l-3.851,1.9l65.443,30.151l39.979-19.776v3.492L88.238,176.82l-61.593-28.376
	l-3.851,1.905l65.443,30.146l39.979-19.777v3.863l-39.979,19.776l-61.593-28.376l-3.851,1.905l65.443,30.147l39.979-19.777v4.229
	l-39.979,19.776l-61.593-28.376L22.795,165.792L22.795,165.792z M143.708,120.211l-3.114-1.539c2.452-5.432-1.419-11.698-11.22-16.3
	c-9.24-4.34-21.507-6.135-32.374-5.267l-3.016-1.492l20.987-10.187c8.989,2.929,20.366,3.026,27.978,0.118l20.464,9.604
	c-5.938,3.99-4.789,9.842,2.899,14.091L143.708,120.211L143.708,120.211z M71.445,106.553l2.037,1.009
	c-2.693,5.483,1.142,11.881,11.097,16.556c9.399,4.411,21.922,6.194,32.923,5.22l3.667,1.815l-22.258,10.809
	c-8.532-3.286-19.813-3.81-27.898-1.414l-21.176-9.938c5.143-3.66,4.515-8.794-1.49-12.844L71.445,106.553L71.445,106.553z
	 M147.852,165.979v0.39l-17.498,8.501v-3.439v-4.229v-3.676v-3.862v-3.678v-3.492v-3.68v-3.859v-2.574v-3.307v-2.571v-0.809
	l0.004,0.004l0.166-0.085v-0.275h0.004l0.135-2.406L67.68,101.537l0.445-0.217l-0.102-0.051l16.276-7.945l63.573,31.039l0.102,2.344
	v0.8v2.567v3.298v2.563v3.85v3.669v3.484v3.668v3.847v3.672v4.216v3.582L147.852,165.979L147.852,165.979z M136.823,94.62
	c2.027-0.983,5.577-0.885,7.929,0.219c2.353,1.105,2.616,2.796,0.594,3.78c-2.023,0.983-5.573,0.883-7.929-0.222
	C135.064,97.296,134.801,95.603,136.823,94.62L136.823,94.62z M131.718,92.221c4.452-2.161,12.255-1.944,17.429,0.483
	c5.175,2.429,5.761,6.149,1.305,8.31c-4.448,2.161-12.255,1.946-17.429-0.481C127.852,98.104,127.266,94.382,131.718,92.221
	L131.718,92.221z M64.335,124.931c4.454-2.156,12.256-1.941,17.429,0.483c5.173,2.429,5.757,6.153,1.308,8.314
	c-4.454,2.16-12.258,1.941-17.429-0.483C60.468,130.816,59.883,127.096,64.335,124.931L64.335,124.931z M69.087,127.164
	c2.193-1.063,6.038-0.958,8.586,0.236c2.549,1.198,2.837,3.03,0.644,4.094c-2.193,1.064-6.038,0.959-8.587-0.235
	C67.184,130.062,66.896,128.229,69.087,127.164L69.087,127.164z M78.519,144.07l8.156,3.83l5.951-2.888
	C88.234,143.542,82.861,143.213,78.519,144.07L78.519,144.07z M41.903,120.897l-6.273,3.042l6.814,3.2
	C44.404,125.271,44.182,122.932,41.903,120.897L41.903,120.897z M135.658,82.122l-7.06-3.314l-7.186,3.489
	C126.162,83.458,131.633,83.419,135.658,82.122L135.658,82.122z M179.644,102.768l-8.888-4.174
	c-2.637,2.254-1.953,5.269,1.824,7.604L179.644,102.768L179.644,102.768z"/>
</svg>
