<?xml version="1.0" encoding="utf-8"?>
<!DOCTYPE svg PUBLIC "-//W3C//DTD SVG 1.1//EN" "http://www.w3.org/Graphics/SVG/1.1/DTD/svg11.dtd">
<svg version="1.1" xmlns="http://www.w3.org/2000/svg" xmlns:xlink="http://www.w3.org/1999/xlink" x="0px" y="0px" width="216px" height="216px" viewBox="0 0 216 216" enable-background="new 0 0 216 216" xml:space="preserve">
<path id="_x33_" fill-rule="evenodd" clip-rule="evenodd" fill="#F58031" d="M78.145,156.966v15.825
	c-0.434,2.972-1.454,5.009-4.741,5.187c-4.725,0.262-9.484,0-14.228,0c-8.967,0.042-14.431-0.178-0.716,4.963l42.881,16.083
	c10.16,3.811,9.319,3.803,19.484-0.008c14.082-5.281,28.174-10.565,42.26-15.846c12.54-4.703,6.314-5.167,0.889-5.192
	c-5.001,0-10,0-15.003,0c-4.491-0.847-5.159-2.678-4.973-5.187c0-4.995,0-9.986,0-14.982c0-4.214-2.356-4.523-5.276-4.523H82.627
	C78.808,153.497,78.145,153.444,78.145,156.966L78.145,156.966z"/>
<path id="_x32_" fill-rule="evenodd" clip-rule="evenodd" fill="#999557" d="M17.068,0.858h183.706
	c8.917,0,16.209,7.293,16.209,16.208v183.708c0,8.913-7.292,16.208-16.209,16.208H17.068c-8.916,0-16.21-7.295-16.21-16.208V17.066
	C0.858,8.151,8.152,0.858,17.068,0.858L17.068,0.858z M17.068,5.86h183.706c6.165,0,11.205,5.042,11.205,11.206v183.708
	c0,6.165-5.04,11.205-11.205,11.205H17.068c-6.164,0-11.208-5.04-11.208-11.205V17.066C5.86,10.902,10.904,5.86,17.068,5.86
	L17.068,5.86z M146.336,110.939l-12.026,5.847V78.358c0-0.814,0.15-0.556-0.717-0.979L74.104,48.894l11.528-5.124l59.58,28.487
	c0.55,0.256,0.432,0.635,0.647,0.953L146.336,110.939L146.336,110.939z"/>
<path id="_x31_" fill-rule="evenodd" clip-rule="evenodd" fill="#7E5628" d="M23.595,113.113l65.598,30.218l40.072-19.823v2.129
	l21.823-10.609v-2.314l42.397-20.974l-3.858-1.777l-38.539,19.066v-4.241l42.397-20.974l-3.858-1.777l-38.539,19.066v-3.872
	l42.397-20.972l-3.858-1.779l-38.539,19.066v-3.503l42.397-20.971l-3.858-1.777l-38.539,19.064v-3.87l42.397-20.974l-2.698-1.244
	l-39.699,19.638v-3.314l42.397-20.974l-2.698-1.244l-39.699,19.639v-3.005v-0.045l42.797-20.774l-65.247-30.626L87.965,39.312
	l-2.346-1.16l-22.38,11.072l2.131,1.053L23.45,70.628l65.248,30.629l40.238-19.537l0.329,0.167v2.923l-40.072,19.823L26.296,75.661
	l-2.701,1.335l65.598,30.22l40.072-19.826v3.314l-40.072,19.824L26.296,81.552l-2.701,1.337l65.598,30.22l40.072-19.825v3.872
	l-40.072,19.821l-61.738-28.44l-3.859,1.908l65.598,30.217l40.072-19.821v3.501l-40.072,19.826L27.454,95.725l-3.859,1.909
	l65.598,30.218l40.072-19.823v3.869l-40.072,19.826l-61.738-28.443l-3.859,1.908l65.598,30.216l40.072-19.819v4.237l-40.072,19.824
	l-61.738-28.444L23.595,113.113L23.595,113.113z M144.793,67.425l-3.123-1.543c2.46-5.443-1.421-11.728-11.245-16.34
	c-9.263-4.349-21.558-6.148-32.451-5.279l-3.023-1.494l21.037-10.213c9.009,2.937,20.413,3.035,28.043,0.118l20.512,9.629
	c-5.952,4-4.8,9.863,2.907,14.125L144.793,67.425L144.793,67.425z M72.359,53.734l2.042,1.01
	c-2.699,5.501,1.144,11.911,11.123,16.595c9.421,4.423,21.973,6.208,33,5.233l3.677,1.82L99.89,89.225
	c-8.552-3.292-19.86-3.819-27.964-1.415L50.7,77.845c5.154-3.668,4.525-8.813-1.495-12.872L72.359,53.734L72.359,53.734z
	 M148.945,113.301v0.391l-17.539,8.521v-3.448v-4.242v-3.683v-3.872v-3.685v-3.501v-3.687v-3.87v-2.582V86.33v-2.577v-0.808
	l0.004,0.002l0.167-0.083v-0.279l0.004,0.002l0.135-2.413l-63.13-31.469l0.445-0.216l-0.102-0.051l16.313-7.964l63.723,31.109
	l0.102,2.351v0.8v2.575v3.304v2.571v3.86v3.676v3.493v3.675v3.859v3.677v4.226v3.591L148.945,113.301L148.945,113.301z
	 M137.893,41.771c2.031-0.985,5.59-0.887,7.946,0.22c2.357,1.107,2.622,2.805,0.594,3.79c-2.027,0.985-5.585,0.885-7.946-0.222
	C136.129,44.454,135.864,42.756,137.893,41.771L137.893,41.771z M132.774,39.369c4.462-2.166,12.282-1.95,17.471,0.484
	c5.187,2.435,5.772,6.164,1.306,8.33c-4.457,2.166-12.282,1.95-17.471-0.484C128.897,45.265,128.313,41.535,132.774,39.369
	L132.774,39.369z M65.232,72.155c4.464-2.164,12.285-1.948,17.47,0.486c5.185,2.433,5.771,6.165,1.311,8.33
	c-4.465,2.166-12.288,1.948-17.47-0.484C61.356,78.053,60.77,74.323,65.232,72.155L65.232,72.155z M69.996,74.393
	c2.199-1.067,6.052-0.959,8.607,0.238c2.555,1.199,2.844,3.038,0.646,4.104c-2.199,1.066-6.052,0.961-8.607-0.238
	C68.088,77.298,67.799,75.459,69.996,74.393L69.996,74.393z M79.449,91.34l8.175,3.839l5.964-2.895
	C89.188,90.811,83.802,90.479,79.449,91.34L79.449,91.34z M42.748,68.111l-6.288,3.051l6.83,3.206
	C45.254,72.498,45.032,70.152,42.748,68.111L42.748,68.111z M136.723,29.243l-7.076-3.32l-7.201,3.497
	C127.204,30.584,132.688,30.546,136.723,29.243L136.723,29.243z M180.812,49.938l-8.907-4.181c-2.643,2.258-1.959,5.281,1.827,7.622
	L180.812,49.938L180.812,49.938z"/>
</svg>
