<?xml version="1.0" encoding="utf-8"?>
<!DOCTYPE svg PUBLIC "-//W3C//DTD SVG 1.1//EN" "http://www.w3.org/Graphics/SVG/1.1/DTD/svg11.dtd">
<svg version="1.1" id="Layer_1" xmlns="http://www.w3.org/2000/svg" xmlns:xlink="http://www.w3.org/1999/xlink" x="0px" y="0px"
	 width="216px" height="216px" viewBox="0 0 216 216" enable-background="new 0 0 216 216" xml:space="preserve">
<g >
	<path id="path0" fill="#049CE4" d="M145.253,98.913c-10.321,2.723-15.08,7.335-15.082,14.618
		c-0.004,10.221,6.813,15.456,18.749,14.403c1.437-0.126,1.415-0.104,1.289-1.415c-0.122-1.264-0.163-1.308-1.127-1.206
		c-7.653,0.801-13.219-2.441-14.774-8.61c-1.833-7.274,1.999-12.072,11.854-14.834c2.735-0.767,2.59-0.613,1.922-2.017
		C147.377,98.367,147.353,98.359,145.253,98.913 M91.522,99.758c-4.094,1.375-7.418,3.617-9.903,6.676
		c-0.88,1.083-1.067,1.227-1.606,1.234c-0.86,0.013-1.105-0.526-1.249-2.741c-0.237-3.686-0.373-5.056-0.513-5.196
		c-0.12-0.12-0.308-0.123-1.316-0.026c-2.59,0.251-2.463,0.187-2.291,1.172c1.396,7.998,1.679,16.18,0.823,23.825
		c-0.302,2.692-0.302,2.685,0.028,2.815c0.359,0.141,2.866,0.496,3.038,0.432c0.292-0.113,0.517-3.895,0.525-8.81
		c0.004-2.671,1.087-3.178,2.545-1.192c2.854,3.884,7.346,7.463,12.699,10.116c2.301,1.143,2.179,1.154,3.183-0.344
		c0.623-0.93,0.608-0.957-0.984-1.825c-17.549-9.586-18.483-16.657-3.211-24.31c1.694-0.85,1.683-0.819,0.738-1.796
		C93.459,99.2,93.194,99.196,91.522,99.758 M155.764,99.591c-0.135,0.136-0.151,0.278-0.1,0.885
		c0.104,1.193,0.073,12.263-0.037,13.956c-0.313,4.811-0.772,8.679-1.41,11.892c-0.329,1.654-0.428,1.549,1.551,1.643
		c2.253,0.105,2.02,0.413,2.199-2.912c0.075-1.396,0.165-2.774,0.198-3.064c0.035-0.289,0.09-3.622,0.124-7.408
		c0.067-7.659,0.038-7.348,0.72-7.681c0.928-0.451,1.792,0.588,3.685,4.431c1.34,2.722,2.299,5.141,3.354,8.459
		c0.567,1.787,0.671,1.947,1.259,1.952c2.726,0.024,2.726,0.026,2.982-1.475c1.209-7.081,4.124-13.763,6.005-13.763
		c0.945,0,1.11,0.535,1.22,3.968c0.151,4.703,0.47,8.929,1.003,13.333c0.581,4.799,0.282,4.262,2.349,4.222
		c2.257-0.046,2.213-0.013,1.824-1.425c-0.937-3.387-1.428-6.191-1.844-10.539c-0.339-3.54-0.352-12.593-0.021-15.75
		c0.09-0.85,0.029-0.883-1.574-0.883c-1.625,0-1.66,0.019-2.689,1.406c-1.914,2.575-4.044,6.708-6.368,12.347
		c-1.063,2.579-1.274,2.88-2.014,2.88c-0.753-0.002-0.903-0.234-2.328-3.634c-2.152-5.132-6.188-12.263-7.285-12.872
		C158.209,99.36,155.967,99.387,155.764,99.591 M112.593,100.823c-2.926,0.53-6.324,3.083-7.673,5.766
		c-1.728,3.437-1.163,8.3,1.294,11.146c3.632,4.204,10.351,2.879,11.691-2.308c0.618-2.391-1.063-5.292-3.165-5.459
		c-0.871-0.07-0.89,0.097-0.102,0.914c3.821,3.957-1.969,9.434-6.21,5.876c-2.289-1.921-3.667-5.839-3-8.534
		c0.895-3.613,4.903-6.719,8.661-6.708c5.917,0.017,11.339,8.041,9.671,14.308c-2.014,7.559-10.814,10.914-18.561,7.075
		c-4.544-2.252-6.268-6.691-5.269-13.575c0.385-2.653,0.238-3.439-0.563-3.011c-1.439,0.77-2.272,6.755-1.464,10.514
		c1.288,5.994,6.966,11.356,12.452,11.764c9.448,0.702,16.054-4.627,16.063-12.959C126.429,106.88,119.592,99.556,112.593,100.823
		 M199.69,100.814c-2.681,0.511-5.935,2.803-7.33,5.164c-3.022,5.11-0.62,12.715,4.426,14.005c3.624,0.928,7.045-0.857,8.117-4.237
		c0.808-2.547-0.976-5.795-3.185-5.801c-0.748-0.002-0.748,0.173,0,0.9c2.722,2.642,0.709,7.032-3.224,7.032
		c-3.871,0-7.229-5.92-5.801-10.231c1.357-4.109,6.522-7.034,10.382-5.881c4.92,1.469,8.869,7.927,7.999,13.081
		c-1.154,6.834-8.336,11.114-15.521,9.246c-7.033-1.826-9.677-6.391-8.529-14.721c0.395-2.854,0.125-3.768-0.818-2.778
		c-1.465,1.54-2.006,6.917-1.078,10.71c1.421,5.81,7,10.879,12.428,11.291c9.298,0.706,15.995-4.72,15.995-12.958
		C213.551,106.957,206.579,99.5,199.69,100.814 M102.223,101.436c-0.819,0.47-1.13,1.096-0.683,1.376
		c0.244,0.152,0.628-0.176,1.051-0.897C103.081,101.077,103.01,100.984,102.223,101.436 M189.441,101.348
		c-0.785,0.414-1.229,1.096-0.915,1.409c0.269,0.271,0.764-0.092,1.214-0.89C190.177,101.093,190.119,100.989,189.441,101.348"/>
	<path id="path1" fill="#E5087E" d="M45.601,84.577c-7.335,0.646-14.302,3.795-18.852,8.521c-1.086,1.128-1.174,1.124-2.883-0.156
		c-5.741-4.297-11.691-4.859-16.383-1.546c-5.183,3.659-6.988,13.073-3.82,19.924c4.332,9.369,13.748,15.55,25.271,16.587
		c1.518,0.138,1.743,0.335,1.628,1.435c-0.082,0.782-0.923,3.643-1.549,5.266c-1.075,2.789-1.042,2.669-0.833,2.949
		c0.503,0.674,2.152,0.477,2.676-0.322c0.623-0.951,1.786-4.185,2.461-6.843c0.629-2.479,0.54-2.389,2.693-2.713
		c18.327-2.746,32.606-20.312,27.704-34.079C61.591,87.644,53.956,83.84,45.601,84.577 M48.563,88.826
		c4.919,0.451,8.216,2.53,9.796,6.177c4.269,9.854-4.403,23.008-18.829,28.563c-3.625,1.397-5.052,1.472-5.043,0.264
		c0.022-2.964,0.154-7.104,0.232-7.31c0.144-0.374,0.393-0.499,1.664-0.841c9.35-2.5,13.83-12.209,7.426-16.091
		c-4.114-2.495-9.426,0.535-8.737,4.981c0.297,1.919,1.276,2.151,1.459,0.347c0.404-3.994,5.472-5.127,6.828-1.527
		c1.169,3.104-2.665,8.107-7.069,9.23c-1.91,0.487-1.996,0.386-2.533-2.984c-0.724-4.545-2.038-7.94-4.39-11.344
		c-0.507-0.735-0.629-0.987-0.666-1.37l-0.045-0.469l1.045-1.028C33.988,91.211,42.414,88.263,48.563,88.826 M17.233,94.028
		c1.879,0.328,4.587,1.607,5.65,2.67c0.491,0.49,0.475,0.861-0.086,2.085c-2.22,4.844-1.882,9.915,0.891,13.365
		c1.461,1.818,3.383,3.012,6.137,3.81c1.746,0.505,1.74,0.492,1.741,3.737c0.003,4.702-0.141,5.161-1.612,5.161
		c-6.855-0.005-16.42-5.001-20.084-10.49c-2.974-4.456-4.083-10.326-2.714-14.362C8.62,95.69,12.744,93.245,17.233,94.028
		 M26.749,100.822c1.392,0.976,4.336,9.192,3.978,11.103c-0.315,1.676-4.027-0.8-5.1-3.401
		C24.376,105.491,25.213,99.747,26.749,100.822"/>
	<path id="path2" fill="#14A8E5" d="M112.36,96.407c-0.606,0.276-0.594,1.026,0.023,1.408c1.151,0.71,2.716-0.484,1.659-1.266
		C113.719,96.31,112.753,96.228,112.36,96.407 M199.62,96.352c-0.639,0.203-0.807,0.84-0.336,1.284
		c0.897,0.849,2.562,0.209,2.163-0.83C201.315,96.465,200.166,96.18,199.62,96.352 M107.306,97.289
		c-0.741,0.271-1.18,0.971-0.917,1.462c0.382,0.712,2.442,0.774,3.018,0.09C110.204,97.891,108.699,96.779,107.306,97.289
		 M194.481,97.251c-1.09,0.381-1.424,1.434-0.583,1.833c1.182,0.562,2.829,0.107,2.829-0.779
		C196.728,97.491,195.477,96.904,194.481,97.251 M145.124,97.944c-12.477,3.236-17.558,9.644-15.548,19.606
		c1.51,7.487,7.184,11.441,16.44,11.455c4.945,0.006,5.407-0.206,5.206-2.382c-0.229-2.477-0.263-2.505-2.766-2.252
		c-8.043,0.813-13.573-3.691-13.575-11.052c-0.002-5.242,4.052-8.641,13.047-10.935c2.027-0.517,2.091-0.672,1.134-2.734
		C147.96,97.275,147.864,97.234,145.124,97.944 M92.774,98.348c-3.952,0.862-8.483,3.626-11.686,7.129
		c-1.111,1.214-1.223,1.026-1.464-2.461c-0.33-4.787-0.164-4.566-3.189-4.246c-3.181,0.337-3.107,0.253-2.644,3.003
		c1.398,8.278,1.574,17.104,0.492,24.566c-0.281,1.935-0.17,2.037,2.604,2.438c3.064,0.441,2.863,0.772,3.03-4.972
		c0.149-5.134,0.139-4.959,0.31-5.13c0.286-0.285,0.593-0.077,1.473,0.994c2.886,3.518,7.375,6.917,12.417,9.401
		c2.63,1.296,2.696,1.285,4.079-0.673c1.279-1.808,1.253-1.972-0.46-2.933c-0.574-0.322-1.837-1.031-2.807-1.577
		c-14.837-8.34-15.094-14.466-0.9-21.573c2.376-1.19,2.416-1.317,0.915-2.971C94.065,98.375,93.609,98.166,92.774,98.348
		 M154.934,98.768l-0.293,0.293l0.062,1.404c0.42,9.456-0.135,19.215-1.466,25.769c-0.522,2.573-0.553,2.542,2.634,2.729
		c2.918,0.173,2.82,0.278,3.044-3.255c0.282-4.452,0.365-7.042,0.386-11.938c0.02-4.935,0.035-5.195,0.311-5.301
		c0.711-0.271,3.576,5.651,5.246,10.845c0.874,2.714,0.901,2.786,1.188,3.075c0.359,0.359,0.756,0.404,2.638,0.307
		c2.274-0.12,2.139,0.026,2.674-2.837c0.958-5.13,2.697-9.918,4.167-11.471c0.796-0.84,0.949-0.431,1.042,2.798
		c0.123,4.177,0.443,8.181,1.097,13.719c0.523,4.443,0.345,4.22,3.278,4.114c3.483-0.127,3.45-0.09,2.652-2.859
		c-1.771-6.154-2.48-15.636-1.867-24.989c0.181-2.768,0.224-2.723-2.5-2.678c-2.075,0.035-2.088,0.04-2.968,1.136
		c-1.846,2.299-4.173,6.559-6.185,11.32c-1.942,4.595-1.829,4.56-3.347,1.048c-2.088-4.827-4.033-8.476-6.111-11.455
		c-1.47-2.106-1.398-2.068-3.705-2.068h-1.683L154.934,98.768 M147.43,98.69c0.282,0.213,1.161,2.183,1.053,2.356
		c-0.119,0.188-0.34,0.267-2.321,0.822c-9.854,2.762-13.687,7.56-11.854,14.834c1.556,6.169,7.121,9.411,14.774,8.61
		c0.964-0.102,1.005-0.058,1.127,1.206c0.126,1.312,0.147,1.289-1.289,1.415c-11.937,1.053-18.753-4.183-18.749-14.403
		c0.002-7.283,4.761-11.895,15.082-14.618C146.587,98.561,147.178,98.5,147.43,98.69 M94.028,99.79
		c0.945,0.977,0.956,0.947-0.738,1.796c-15.271,7.652-14.337,14.724,3.211,24.31c1.592,0.868,1.607,0.896,0.984,1.825
		c-1.004,1.498-0.881,1.486-3.183,0.344c-5.353-2.653-9.845-6.232-12.699-10.116c-1.458-1.985-2.541-1.479-2.545,1.192
		c-0.008,4.915-0.233,8.696-0.525,8.81c-0.172,0.064-2.679-0.291-3.038-0.432c-0.33-0.131-0.33-0.123-0.028-2.815
		c0.855-7.646,0.573-15.828-0.823-23.825c-0.172-0.986-0.299-0.921,2.291-1.172c1.008-0.097,1.196-0.094,1.316,0.026
		c0.14,0.14,0.276,1.51,0.513,5.196c0.143,2.214,0.388,2.753,1.249,2.741c0.539-0.007,0.726-0.15,1.606-1.234
		c2.484-3.06,5.809-5.302,9.903-6.676C93.194,99.196,93.459,99.2,94.028,99.79 M158.565,99.558c1.097,0.609,5.133,7.74,7.285,12.872
		c1.425,3.399,1.575,3.632,2.328,3.634c0.739,0,0.951-0.301,2.014-2.88c2.324-5.639,4.454-9.771,6.368-12.347
		c1.029-1.387,1.064-1.406,2.689-1.406c1.604,0,1.664,0.033,1.574,0.883c-0.331,3.156-0.318,12.209,0.021,15.75
		c0.416,4.348,0.907,7.152,1.844,10.539c0.389,1.412,0.433,1.379-1.824,1.425c-2.066,0.04-1.768,0.577-2.349-4.222
		c-0.533-4.404-0.852-8.63-1.003-13.333c-0.092-2.872-0.155-3.278-0.574-3.698c-1.768-1.768-5.251,5.299-6.65,13.493
		c-0.257,1.501-0.257,1.499-2.982,1.475c-0.588-0.005-0.691-0.165-1.259-1.952c-1.055-3.318-2.014-5.737-3.354-8.459
		c-1.893-3.842-2.757-4.882-3.685-4.431c-0.682,0.333-0.652,0.021-0.72,7.681c-0.034,3.786-0.089,7.119-0.124,7.408
		c-0.033,0.29-0.123,1.669-0.198,3.064c-0.18,3.325,0.054,3.018-2.199,2.912c-1.979-0.094-1.88,0.012-1.551-1.643
		c0.638-3.213,1.097-7.081,1.41-11.892c0.11-1.692,0.141-12.762,0.037-13.956c-0.088-1.029-0.063-1.047,1.472-1.042
		C157.924,99.436,158.424,99.479,158.565,99.558 M113.278,99.729c-4.745,0.442-9.372,4.684-10.182,9.333
		c-1.403,8.045,5.406,14.511,11.954,11.351c4.486-2.163,5.29-8.575,1.369-10.918c-2.452-1.466-4.651-0.042-2.768,1.792
		c1.553,1.511,1.681,3.012,0.377,4.438c-1.902,2.082-4.643,1.415-6.472-1.574c-2.468-4.034-1.457-7.991,2.687-10.507
		c4.229-2.57,8.859-0.666,11.588,4.767c4.486,8.934-4.169,17.737-14.193,14.432c-5.824-1.919-7.858-6.081-6.687-13.681
		c0.394-2.554,0.039-3.811-1.123-3.966c-2.84-0.38-4.283,8.197-2.32,13.783c1.849,5.26,7.38,10.024,12.253,10.558
		c6.582,0.718,12.366-1.657,15.555-6.387C131.45,114.051,123.592,98.767,113.278,99.729 M200.741,99.691
		c-5.061,0.374-9.769,4.621-10.565,9.535c-1.296,7.992,5.522,14.341,12.001,11.172c4.404-2.153,5.235-8.329,1.457-10.83
		c-2.483-1.646-4.82-0.147-2.813,1.803c3.262,3.172-1.289,7.6-4.71,4.584c-3.36-2.963-3.677-7.845-0.7-10.812
		c4.735-4.721,11.144-2.8,13.942,4.182c3.477,8.67-5.003,16.62-14.469,13.561c-5.891-1.904-8.021-6.123-6.862-13.594
		c0.406-2.631,0.074-3.906-1.072-4.092c-2.364-0.384-4.024,6.237-2.928,11.676c1.057,5.231,5.164,9.986,10.441,12.094
		c2.755,1.099,8.364,0.791,11.683-0.641c5.457-2.354,8.313-6.748,8.313-12.791C214.459,106.843,207.816,99.169,200.741,99.691
		 M102.874,99.999c-2.092,0.773-3.189,2.419-2.275,3.417c0.739,0.807,1.854,0.5,2.686-0.739c0.266-0.395,0.665-0.958,0.889-1.25
		C105.063,100.261,104.334,99.458,102.874,99.999 M189.892,100.037c-2.277,0.849-3.316,2.897-1.852,3.654
		c0.822,0.425,1.588,0.079,2.378-1.074c0.289-0.423,0.651-0.915,0.803-1.093C192.26,100.309,191.485,99.442,189.892,100.037
		 M115.859,100.81c8.432,1.522,13.561,14.215,8.741,21.634c-2.887,4.441-7.928,6.617-14.245,6.147
		c-5.486-0.407-11.164-5.77-12.452-11.764c-0.808-3.759,0.025-9.744,1.464-10.514c0.801-0.429,0.949,0.357,0.563,3.011
		c-0.999,6.884,0.725,11.323,5.269,13.575c7.746,3.839,16.547,0.483,18.561-7.075c1.668-6.268-3.754-14.291-9.671-14.308
		c-3.758-0.01-7.767,3.095-8.661,6.708c-0.87,3.515,1.674,8.631,4.731,9.513c4.275,1.234,7.51-3.716,4.479-6.854
		c-0.788-0.817-0.77-0.984,0.102-0.914c2.102,0.167,3.783,3.068,3.165,5.459c-1.341,5.187-8.06,6.512-11.691,2.308
		c-2.096-2.428-2.874-6.515-1.854-9.748C105.825,103.345,111.225,99.973,115.859,100.81 M203.828,101.001
		c7.707,2.263,12.201,13.448,8.315,20.703c-2.573,4.804-8.043,7.388-14.588,6.892c-5.428-0.412-11.007-5.481-12.428-11.291
		c-0.928-3.794-0.387-9.171,1.078-10.71c0.943-0.99,1.213-0.077,0.818,2.778c-1.147,8.33,1.496,12.895,8.529,14.721
		c7.186,1.868,14.367-2.412,15.521-9.246c0.87-5.154-3.079-11.612-7.999-13.081c-3.859-1.152-9.024,1.772-10.382,5.881
		c-1.428,4.311,1.93,10.231,5.801,10.231c3.933,0,5.945-4.391,3.224-7.032c-0.748-0.728-0.748-0.902,0-0.9
		c2.209,0.006,3.992,3.254,3.185,5.801c-1.072,3.38-4.493,5.165-8.117,4.237c-5.595-1.429-7.711-10.323-3.604-15.147
		C196.043,101.477,200.265,99.956,203.828,101.001 M102.896,101.23c0.079,0.127-0.633,1.271-0.925,1.486
		c-0.503,0.373-0.857-0.215-0.445-0.738C101.846,101.571,102.789,101.056,102.896,101.23 M190.036,101.248
		c0,0.202-0.602,1.152-0.876,1.383c-0.688,0.578-1.063-0.11-0.412-0.758C189.249,101.37,190.036,100.989,190.036,101.248"/>
</g>
</svg>
