<?xml version="1.0" encoding="utf-8"?>
<!DOCTYPE svg PUBLIC "-//W3C//DTD SVG 1.1//EN" "http://www.w3.org/Graphics/SVG/1.1/DTD/svg11.dtd">
<svg version="1.1" xmlns="http://www.w3.org/2000/svg" xmlns:xlink="http://www.w3.org/1999/xlink" x="0px" y="0px" width="216px" height="216px" viewBox="0 0 216 216" enable-background="new 0 0 216 216" xml:space="preserve">
<g>
	<path d="M18.434,99.898v5.851h0.979c0.637,0,1.164-0.026,1.579-0.078c0.438-0.058,0.866-0.182,1.268-0.367
		c1.142-0.504,1.713-1.401,1.713-2.692c0-0.993-0.319-1.693-0.956-2.102c-0.638-0.408-1.58-0.612-2.825-0.612H18.434L18.434,99.898z
		 M18.434,106.615v6.784h2.225c1.097,0,1.995-0.318,2.692-0.956c0.696-0.639,1.045-1.469,1.045-2.491
		c0-1.231-0.431-2.114-1.29-2.647c-0.741-0.459-1.847-0.689-3.314-0.689H18.434z M16.476,114.224V99.074h4.471
		c1.706,0,2.959,0.23,3.76,0.69s1.201,1.254,1.201,2.38c0,0.993-0.33,1.835-0.991,2.524c-0.66,0.69-1.501,1.161-2.525,1.413
		c1.022,0,1.913,0.26,2.669,0.779c0.934,0.637,1.401,1.542,1.401,2.714c0,1.586-0.668,2.84-2.002,3.76
		c-0.578,0.4-1.327,0.658-2.246,0.777c-0.563,0.073-1.378,0.112-2.446,0.112H16.476L16.476,114.224z M44.911,99.853v6.183h1.135
		c0.325,0,0.63-0.007,0.911-0.022c0.282-0.015,0.556-0.052,0.823-0.112c0.83-0.177,1.513-0.545,2.046-1.101
		c0.535-0.557,0.801-1.249,0.801-2.079c0-1.603-0.816-2.537-2.447-2.803c-0.384-0.048-0.77-0.071-1.157-0.066H44.911L44.911,99.853z
		 M42.954,114.289V99.074h4.716c1.69,0,2.937,0.278,3.737,0.835c0.801,0.556,1.202,1.405,1.202,2.547
		c0,1.201-0.474,2.179-1.424,2.936c-0.786,0.624-1.831,1.053-3.136,1.29l4.571,5.798l1.082,1.249l0.419,0.559l-1.29-0.066
		l-1.268,0.066l-1.401-1.934l-2.622-3.404l-1.783-2.091h-0.845v7.428l-0.978-0.066L42.954,114.289z M84.357,106.526
		c0-1.007-0.097-1.901-0.29-2.68c-0.208-0.809-0.588-1.563-1.112-2.213c-0.54-0.69-1.238-1.24-2.036-1.603
		c-0.813-0.371-1.698-0.561-2.591-0.556c-1.942,0-3.474,0.678-4.593,2.035c-1.12,1.358-1.679,3.17-1.679,5.438
		c0,2.179,0.593,3.893,1.779,5.138c1.112,1.157,2.542,1.733,4.293,1.733c2.09,0,3.714-0.903,4.871-2.713
		C83.891,109.746,84.363,108.153,84.357,106.526L84.357,106.526z M78.062,114.558c-2.477,0-4.46-0.716-5.951-2.147
		c-1.489-1.432-2.235-3.34-2.235-5.728c0-2.387,0.794-4.322,2.38-5.806c1.528-1.423,3.477-2.135,5.851-2.135
		c2.312,0,4.24,0.601,5.782,1.801c1.765,1.38,2.647,3.315,2.647,5.806c0,2.461-0.786,4.446-2.358,5.951
		C82.607,113.803,80.568,114.558,78.062,114.558L78.062,114.558z M116.017,111.888l-0.111,1.4c-0.689,0.462-1.458,0.79-2.269,0.968
		c-0.867,0.202-1.756,0.303-2.647,0.302c-2.432,0-4.346-0.72-5.739-2.159c-1.394-1.438-2.092-3.373-2.092-5.806
		c0-2.432,0.808-4.367,2.424-5.806c1.542-1.364,3.529-2.046,5.962-2.046c0.785,0,1.589,0.088,2.412,0.267
		c0.822,0.179,1.611,0.431,2.368,0.756c-0.089,0.222-0.178,0.501-0.268,0.833c-0.078,0.29-0.146,0.583-0.2,0.879l-0.155,0.023
		c-0.162-0.209-0.452-0.461-0.866-0.756c-1.083-0.771-2.212-1.157-3.381-1.157c-1.959,0-3.485,0.705-4.583,2.113
		c-1.022,1.305-1.535,2.966-1.535,4.983c0,2.12,0.549,3.818,1.646,5.093c1.097,1.276,2.535,1.914,4.314,1.914
		c0.801,0,1.626-0.159,2.469-0.479C114.589,112.906,115.351,112.458,116.017,111.888L116.017,111.888z M139.58,98.742l6.673,15.547
		l-1.155-0.066l-1.179,0.066c-0.429-1.239-0.881-2.471-1.356-3.692c-0.315-0.776-0.643-1.547-0.98-2.313h-5.65
		c-0.858,2.15-1.342,3.373-1.444,3.671c-0.28,0.77-0.532,1.548-0.757,2.335l-0.823-0.066l-0.777,0.066l6.939-15.547h0.511V98.742z
		 M141.244,107.349l-2.464-5.694l-2.444,5.694H141.244z M164.744,100.076v6.183h1.136c0.325,0,0.629-0.007,0.911-0.022
		c0.283-0.015,0.557-0.053,0.823-0.112c0.83-0.178,1.512-0.545,2.045-1.101c0.536-0.557,0.804-1.249,0.804-2.079
		c0-1.602-0.816-2.537-2.449-2.803c-0.384-0.049-0.77-0.071-1.156-0.066H164.744L164.744,100.076z M162.789,114.513V99.297h4.714
		c1.689,0,2.938,0.278,3.737,0.833c0.801,0.556,1.201,1.405,1.201,2.547c0,1.201-0.475,2.181-1.424,2.936
		c-0.786,0.624-1.832,1.053-3.137,1.29l4.57,5.798l1.084,1.25l0.416,0.56l-1.288-0.068l-1.271,0.068l-1.399-1.936l-2.622-3.403
		l-1.782-2.091h-0.846v7.43l-0.979-0.068L162.789,114.513L162.789,114.513z M191.622,99.965v13.257c0.446,0,1.04,0.012,1.779,0.033
		l1.134,0.032c0.847,0,1.536-0.036,2.069-0.112c0.536-0.073,1.055-0.238,1.534-0.489c1.126-0.563,1.959-1.437,2.492-2.623
		c0.474-1.054,0.711-2.307,0.711-3.76c0-2.343-0.522-4-1.569-4.972c-1.044-0.971-2.827-1.457-5.349-1.457
		c-0.313,0-0.839,0.015-1.58,0.044S191.696,99.965,191.622,99.965L191.622,99.965z M189.665,114.224V99.074h6.562
		c1.393,0,2.454,0.119,3.181,0.356c0.638,0.208,1.227,0.541,1.734,0.978c0.798,0.649,1.415,1.492,1.792,2.448
		c0.393,0.978,0.589,2.017,0.589,3.113c0,1.468-0.261,2.766-0.777,3.893c-0.462,0.993-1.136,1.883-2.024,2.669
		c-0.639,0.548-1.435,0.967-2.392,1.256c-0.955,0.289-2.399,0.434-4.327,0.434h-4.337V114.224L189.665,114.224z M62.989,117.905
		v1.304l-0.183-0.013l-0.182,0.013v-2.842h0.744c0.403,0,0.684,0.051,0.838,0.149c0.155,0.101,0.232,0.277,0.232,0.532
		c0,0.243-0.075,0.434-0.224,0.567c-0.139,0.125-0.361,0.219-0.665,0.279c-0.047,0.01-0.096,0.016-0.145,0.017
		c-0.091,0.005-0.183,0.005-0.274,0C63.081,117.911,63.034,117.907,62.989,117.905z M62.989,116.526v1.217
		c0.037,0.004,0.075,0.006,0.112,0.004c0.026,0.003,0.052,0.004,0.079,0.004h0.149c0.023-0.005,0.047-0.008,0.071-0.009
		c0.205-0.02,0.366-0.09,0.482-0.212s0.174-0.275,0.174-0.461c0.006-0.13-0.032-0.257-0.107-0.362
		c-0.081-0.103-0.17-0.158-0.27-0.169c-0.078-0.008-0.156-0.013-0.235-0.014h-0.305L62.989,116.526L62.989,116.526z M78.97,116.306
		l1.246,2.903L80,119.196l-0.219,0.013c-0.08-0.231-0.165-0.462-0.253-0.69c-0.059-0.145-0.12-0.288-0.183-0.432H78.29
		c-0.16,0.401-0.25,0.629-0.27,0.686c-0.041,0.11-0.088,0.257-0.141,0.437l-0.154-0.013l-0.146,0.013l1.295-2.903H78.97
		L78.97,116.306z M79.28,117.913l-0.461-1.063l-0.457,1.063H79.28L79.28,117.913z M93.534,116.514v1.153h0.211
		c0.062,0,0.118-0.001,0.171-0.004c0.051-0.003,0.103-0.011,0.153-0.021c0.154-0.033,0.282-0.102,0.381-0.206
		c0.1-0.104,0.149-0.233,0.149-0.388c0-0.3-0.151-0.474-0.456-0.522c-0.072-0.01-0.145-0.015-0.217-0.013h-0.203L93.534,116.514z
		 M93.169,119.209v-2.842h0.88c0.316,0,0.549,0.053,0.698,0.157c0.149,0.104,0.224,0.263,0.224,0.475
		c0.004,0.215-0.094,0.419-0.265,0.549c-0.147,0.116-0.342,0.196-0.586,0.24l0.854,1.082l0.202,0.233l0.078,0.105l-0.242-0.013
		l-0.237,0.013l-0.261-0.362l-0.489-0.635l-0.334-0.391h-0.158v1.387l-0.183-0.013L93.169,119.209z M108.838,119.209v-2.842h1.474
		l-0.013,0.121l0.013,0.121c-0.067-0.015-0.136-0.027-0.204-0.036c-0.057-0.007-0.114-0.01-0.171-0.01h-0.732v1.043h0.643
		c0.053,0,0.123-0.004,0.211-0.012c0.087-0.007,0.14-0.01,0.159-0.01l-0.013,0.107l0.013,0.117c-0.049,0-0.119-0.004-0.208-0.011
		c-0.054-0.005-0.107-0.009-0.162-0.011h-0.643v1.421l-0.184-0.013L108.838,119.209L108.838,119.209z M124.022,116.367v1.59
		c0,0.382,0.063,0.657,0.191,0.827c0.141,0.188,0.383,0.282,0.725,0.282c0.315,0,0.545-0.107,0.696-0.32
		c0.134-0.193,0.203-0.47,0.203-0.829v-1.55l0.116,0.014l0.116-0.014v1.653c0,0.401-0.109,0.707-0.325,0.92
		c-0.217,0.211-0.513,0.316-0.887,0.316c-0.388,0-0.689-0.097-0.9-0.291c-0.123-0.116-0.209-0.266-0.246-0.431
		c-0.038-0.166-0.056-0.337-0.053-0.508v-1.661l0.183,0.013L124.022,116.367z M142.694,116.367h0.086
		c0.034,0.338,0.07,0.676,0.107,1.014c0.046,0.407,0.082,0.723,0.112,0.947c0.026,0.226,0.068,0.519,0.116,0.88l-0.193-0.013
		l-0.196,0.013l-0.068-0.794c-0.036-0.451-0.084-0.902-0.144-1.351c-0.17,0.305-0.315,0.569-0.44,0.798
		c-0.234,0.424-0.45,0.857-0.647,1.3h-0.046l-0.228-0.47c-0.087-0.181-0.176-0.359-0.268-0.538c-0.093-0.185-0.188-0.367-0.284-0.55
		c-0.098-0.179-0.193-0.359-0.287-0.54c-0.046,0.396-0.094,0.796-0.137,1.2c-0.038,0.313-0.061,0.627-0.066,0.942l-0.146-0.013
		l-0.148,0.013c0.058-0.36,0.132-0.871,0.228-1.533c0.094-0.663,0.151-1.099,0.17-1.307h0.109c0.144,0.283,0.263,0.514,0.352,0.693
		c0.263,0.501,0.536,0.996,0.823,1.483L142.694,116.367L142.694,116.367z M156.717,118.648h0.043c0.07,0.123,0.164,0.23,0.275,0.316
		c0.118,0.08,0.259,0.12,0.401,0.117c0.167,0,0.306-0.06,0.415-0.177c0.108-0.116,0.164-0.262,0.164-0.43
		c0-0.211-0.112-0.373-0.335-0.49c-0.21-0.091-0.419-0.185-0.627-0.277c-0.217-0.121-0.348-0.354-0.337-0.603
		c0-0.256,0.091-0.454,0.275-0.599c0.187-0.139,0.415-0.209,0.647-0.2c0.11,0,0.22,0.018,0.323,0.052
		c0.1,0.029,0.191,0.079,0.269,0.148c-0.018,0.041-0.034,0.083-0.05,0.125l-0.063,0.216h-0.04c-0.072-0.223-0.282-0.369-0.515-0.361
		c-0.137-0.003-0.27,0.045-0.372,0.135c-0.1,0.089-0.155,0.217-0.152,0.352c0,0.211,0.114,0.373,0.337,0.49
		c0.21,0.094,0.422,0.187,0.632,0.277c0.213,0.111,0.345,0.333,0.34,0.573c0.01,0.266-0.1,0.522-0.299,0.698
		c-0.203,0.171-0.463,0.26-0.728,0.248c-0.112,0-0.237-0.021-0.373-0.066c-0.113-0.032-0.217-0.092-0.302-0.174
		c0.019-0.061,0.032-0.117,0.041-0.168C156.699,118.797,156.708,118.731,156.717,118.648L156.717,118.648z M16.476,115.922h37.312
		v0.433H16.476V115.922z M166.21,115.922h37.313v0.433H166.21V115.922z"/>
</g>
</svg>
