<?xml version="1.0" encoding="utf-8"?>
<!-- Generator: Adobe Illustrator 16.0.0, SVG Export Plug-In . SVG Version: 6.00 Build 0)  -->
<!DOCTYPE svg PUBLIC "-//W3C//DTD SVG 1.1//EN" "http://www.w3.org/Graphics/SVG/1.1/DTD/svg11.dtd">
<svg version="1.1" id="Layer_1" xmlns="http://www.w3.org/2000/svg" xmlns:xlink="http://www.w3.org/1999/xlink" x="0px" y="0px"
	 width="216px" height="216px" viewBox="0 0 216 216" enable-background="new 0 0 216 216" xml:space="preserve">
<rect id="rect3836" fill="#BC2F62" width="216" height="216"/>
<path id="rect3006" fill="#FFC220" d="M47.589,34.389h10.439c7.506,0,13.59,4.711,13.59,10.522v72.917
	c0,5.812-6.084,10.522-13.59,10.522H47.589c-7.506,0-13.591-4.711-13.591-10.522V44.911C33.998,39.1,40.083,34.389,47.589,34.389z"
	/>
<path id="rect3776" fill="#47AA42" d="M83.398,69.678h4.437c3.809,0,7.052-2.719,7.052-6.478V40.493
	c0-3.828,3.447-6.083,8.654-6.104c30.094-0.116,35.843,33.033,18.298,46.682c20.5,16.515,11.993,47.295-18.298,47.279
	c-6.962-0.005-8.654-3.806-8.654-8.23V98.055c0-3.933-3.261-6.765-7.053-6.765h-4.437c-3.573,0-6.449-3.13-6.449-7.018v-7.577
	C76.95,72.807,78.832,69.678,83.398,69.678L83.398,69.678z"/>
<g id="g3822" transform="translate(0,120)">
	<path id="path3783" fill="#FFFFFF" d="M34.425,19.208l0.045,19.125l14.692,0.044c4.034,0.014,5.491-7.087,1.463-9.854
		c4.126-1.65,2.398-9.255-2.047-9.271L34.425,19.208z M41.04,23.438c3.096-0.007,4.557,0.08,4.567,1.621
		c0.009,1.329-1.544,1.428-4.522,1.439L41.04,23.438z M41.04,30.931c3.096-0.008,4.557,0.08,4.567,1.619
		c0.009,1.329-1.544,1.429-4.522,1.44L41.04,30.931z"/>
	<path id="path3791" fill="#FFFFFF" d="M65.655,18.981c-4.919-0.012-9.931,3.406-9.923,10.013
		c0.015,12.382,16.168,10.847,18.81,6.729l-2.948-2.543c-2.516,1.144-9.386,2.263-9.135-3.623l12.002,0.068
		C75.319,22.417,70.573,18.995,65.655,18.981z M68.31,27.015l-5.617-0.097C64.478,22.172,68.133,24.293,68.31,27.015z"/>
	<path id="path3796" fill="#FFFFFF" d="M76.351,35.289l3.178,3.51c6.326-2.449,6.86-7.685,7.063-15.559h3.301l0.146,15.145h7.135
		l0.011-19.176L80.524,19.26C80.574,27.438,80.747,32.563,76.351,35.289L76.351,35.289z"/>
	<path id="path3798" fill="#FFFFFF" d="M101.979,19.26l0.049,19.173l6.001-0.005l7.903-9.874l0.063,9.836l6.431-0.034V19.222
		l-5.921,0.017l-8.048,10.177l-0.103-10.227L101.979,19.26z"/>
	<path id="path3800" fill="#FFFFFF" d="M127.194,19.2l7.21-0.02l0.02,9.177l6.436-9.146l6.94,0.013l-6.261,9.015l6.649,10.165
		h-7.369l-6.415-9.242l0.049,9.271l-7.196-0.048L127.194,19.2z"/>
	<path id="path3802" fill="#FFFFFF" d="M159.188,19.116c-3.488-0.005-5.987,0.297-8.416,2.274l1.937,3.217
		c8.003-2.235,8.184,0.67,8.141,3.414c-8.447-2.354-13.267,2.038-11.944,6.374c2.097,6.864,12.508,3.229,13.027,1.619l0.046,2.385
		h4.905l-0.046-15.524c-0.006-1.656-1.788-3.666-3.802-3.69C161.62,19.168,160.351,19.118,159.188,19.116z M160.853,30.232v3.104
		C154.299,35.863,155.145,29.687,160.853,30.232z"/>
	<path id="path3807" fill="#FFFFFF" d="M34.841,43.217l7.208-0.019l0.02,9.177l6.435-9.146l6.941,0.012l-6.262,9.017l6.65,10.165
		h-7.369l-6.417-9.242l0.049,9.271l-7.196-0.049L34.841,43.217z"/>
	<path id="path3809" fill="#FFFFFF" d="M58.15,43.252l0.049,19.173l6.001-0.006l7.903-9.873l0.063,9.837l6.431-0.036V43.214
		l-5.921,0.017l-8.048,10.176l-0.103-10.228L58.15,43.252z"/>
	<path id="path3811" fill="#FFFFFF" d="M126.886,42.458c-4.919-0.013-9.931,3.406-9.923,10.013
		c0.016,12.382,16.168,10.847,18.811,6.729l-2.947-2.544c-2.517,1.146-9.387,2.265-9.136-3.621l12.001,0.067
		C136.55,45.894,131.804,42.472,126.886,42.458L126.886,42.458z M129.541,50.491l-5.616-0.097
		C125.707,45.648,129.363,47.77,129.541,50.491z"/>
	<path id="path3813" fill="#FFFFFF" d="M83.999,43.252l0.049,19.173l29.11-0.078V43.214l-6.381-0.008l-0.065,14.391l-4.634-0.051
		L102.004,43.2l-7.197-0.007L94.75,57.646l-4.322-0.064l-0.054-14.403L83.999,43.252z"/>
	<path id="path3815" fill="#FFFFFF" d="M139.178,42.552l7.263-0.041l0.05,7.91l5.936,0.006l0.086-7.86l7.178-0.014l0.025,19.178
		l-7.264-0.051l0.009-7.618h-6.066l-0.05,7.67l-7.154-0.015L139.178,42.552z"/>
	<path id="path3817" fill="#FFFFFF" d="M169.313,42.563c-5.5-0.021-8.255,8.354-2.385,11.341l-4.658,7.627h6.639l6.299-7.493v7.493
		h7.201V42.606L169.313,42.563z M175.185,46.747v5.063C169.278,51.862,169.297,46.756,175.185,46.747z"/>
</g>
</svg>
