<?xml version="1.0" encoding="utf-8"?>
<!DOCTYPE svg PUBLIC "-//W3C//DTD SVG 1.1//EN" "http://www.w3.org/Graphics/SVG/1.1/DTD/svg11.dtd">
<svg version="1.1" xmlns="http://www.w3.org/2000/svg" xmlns:xlink="http://www.w3.org/1999/xlink" x="0px" y="0px" width="216px" height="216px" viewBox="0 0 216 216" enable-background="new 0 0 216 216" xml:space="preserve">
<path id="path3433"  fill="#ED1C24" d="M94.928,83.723c0,0,0,0,4.417,0
	c1.609,0,2.42,0.795,2.42,2.59c0,0,0,0,0,6.362c0,0,0,0,8.653,0c0,0,0,0,0-6.362c0-1.795,0.798-2.59,2.613-2.59c0,0,0,0,4.223,0
	c0,0,0,0,0,4.181c0,0,0,0-1.803,0l-0.205,0.205c0,0,0,0,0,17.904c0,0,0,0-4.828,0c0,0,0,0,0-8.952c0,0,0,0-8.653,0c0,0,0,0,0,8.952
	c0,0,0,0-4.828,0c0,0,0,0,0-17.904c0,0,0-0.205-0.206-0.205c0,0,0,0-1.803,0C94.928,87.904,94.928,87.904,94.928,83.723z"/>
<path id="path3435"  fill="#ED1C24" d="M129.924,83.325l0.109,0.012v4.59l-0.109-0.024
	c-3.617,0-6.438,2.988-6.438,6.771c0,3.976,2.82,7.157,6.438,7.157l0.109-0.024v4.59l-0.109,0.012
	c-6.438,0-11.665-5.169-11.665-11.735C118.259,88.301,123.486,83.325,129.924,83.325z"/>
<path id="path3437"  fill="#ED1C24" d="M130.033,83.337l2.238,0.217
	c5.313,1.036,9.318,5.542,9.318,11.121c0,5.735-4.006,10.421-9.318,11.494l-2.238,0.229v-4.59l2.457-0.53
	c2.371-1.084,4.078-3.626,4.078-6.602c0-2.843-1.707-5.229-4.078-6.241l-2.457-0.506V83.337z"/>
<path id="path3439"  fill="#ED1C24" d="M142.595,83.723c0,0,0,0,6.74,0h3.22v4.181h-0.303
	c-0.4,0-1.211,0-2.82,0c0,0,0,0,0,4.578c0,0,0,0,1.367,0h1.756v3.976h-1.029c-0.508,0-1.186,0-2.094,0c0,0,0,0,0,4.976
	c0,0.205,0,0.205,0.206,0.205c0,0,0,0,1.44,0h1.477v4.374h-0.424c-0.727,0-2.191,0-5.107,0c-1.609,0-2.408-0.795-2.408-2.59V87.904
	c0,0,0,0-2.021,0C142.595,87.904,142.595,87.904,142.595,83.723z"/>
<path id="path3441"  fill="#ED1C24" d="M152.555,83.723h0.096c4.43,0,7.043,2.386,7.043,5.976
	c0,2.181-1.004,3.578-2.008,4.578c1.814,0.795,3.013,2.783,3.013,4.964c0,4.181-3.22,6.771-7.842,6.771c0,0,0,0-0.085,0h-0.217
	v-4.374h0.496c1.609,0,2.625-1,2.625-2.59s-1.016-2.59-2.625-2.59c0,0,0,0-0.448,0h-0.048v-3.976h0.096c1.416,0,2.215-1,2.215-2.386
	c0-1.397-0.799-2.192-2.215-2.192c0,0,0,0-0.048,0h-0.048V83.723z"/>
<path id="path3443"  fill="#ED1C24" d="M169.955,83.723c0,0,0,0,2.033,0h0.375v6.374
	c-0.193,0.398-0.398,0.988-0.398,1.59c0,0,0,0-1.609,4.579c0,0,0,0,1.706,0h0.302v4.168h-1.088c-0.617,0-1.32,0-2.119,0
	c0,0,0,0-1.415,3.59c-0.399,1.386-1.198,1.988-2.808,1.988c0,0,0,0-3.025,0c0,0,0,0,0-4.374c0,0,0,0,1.004,0
	c0.412,0,0.412,0,0.605-0.205C163.518,101.434,163.518,101.434,169.955,83.723z"/>
<path id="path3445"  fill="#ED1C24" d="M172.363,83.723h2.421c0,0,0,0,6.438,17.711
	c0.193,0.205,0.193,0.205,0.592,0.205c0,0,0,0,0.811,0c0,0,0,0,0,4.374c0,0,0,0-2.818,0c-1.609,0-2.408-0.603-2.82-2.193
	c0,0,0,0-1.403-3.386c0,0,0,0-2.711,0h-0.509v-4.168h2.01c0,0,0,0-1.598-4.579c0-0.602-0.206-1.192-0.412-1.59V83.723z"/>
<path id="path3447"  fill="#ED1C24" d="M94.928,112.373c0,0,0,0,17.498,0
	c1.609,0,2.614,0.795,2.614,2.591c0,0,0,0,0,15.12c0,0.193,0,0.193,0.206,0.193c0,0,0,0,1.609,0c0,0,0,0,0,4.385c0,0,0,0-4.224,0
	c-1.815,0-2.614-0.795-2.614-2.59c0,0,0,0,0-15.313c0,0,0-0.204-0.205-0.204c0,0,0,0-8.048,0c0,0,0,0,0,18.107c0,0,0,0-4.828,0
	c0,0,0,0,0-18.107c0,0,0,0-2.009,0C94.928,116.555,94.928,116.555,94.928,112.373z"/>
<path id="path3449"  fill="#ED1C24" d="M129.525,111.977l0.097,0.012v4.59l-0.097-0.023
	c-3.631,0-6.438,2.987-6.438,6.771c0,3.976,2.807,7.157,6.438,7.157l0.097-0.024v4.591l-0.097,0.012
	c-6.438,0-11.473-5.182-11.473-11.735C118.053,116.951,123.088,111.977,129.525,111.977z"/>
<path id="path3451"  fill="#ED1C24" d="M129.622,111.988l2.312,0.217
	c5.409,1.035,9.258,5.542,9.258,11.12c0,5.735-3.849,10.422-9.258,11.494l-2.312,0.229v-4.591l2.554-0.53
	c2.408-1.084,3.993-3.627,3.993-6.603c0-2.843-1.585-5.229-3.993-6.241l-2.554-0.506V111.988z"/>
<path id="path3453"  fill="#ED1C24" d="M142.195,112.373c0,0,0,0,4.43,0
	c1.609,0,2.408,0.795,2.408,2.591c0,0,0,0,0,15.12c0,0.193,0,0.193,0.205,0.193c0,0,0,0,5.833,0c0,0,0,0,0-17.904c0,0,0,0,4.828,0
	c0,0,0,0,0,17.904c0,0,0,0,5.833,0c0.205,0,0.205,0,0.205-0.193c0,0,0,0,0-15.12c0-1.796,0.799-2.591,2.408-2.591c0,0,0,0,4.43,0
	c0,0,0,0,0,4.182c0,0,0,0-1.815,0c-0.206,0-0.206,0.204-0.206,0.204s0,0,0,15.313c0,1.795-0.799,2.59-2.408,2.59c0,0,0,0-21.527,0
	c-1.804,0-2.614-0.795-2.614-2.59c0,0,0,0,0-15.313c0,0,0-0.204-0.194-0.204c0,0,0,0-1.814,0
	C142.195,116.555,142.195,116.555,142.195,112.373z"/>
<path id="path3455"  fill="#ED1C24" d="M176.588,112.373c0,0,0,0,15.09,0
	c1.814,0,2.42,0.795,2.42,2.386c0,0,0,0,0,3.783h-4.43c0,0,0,0,0-1.783c0-0.204,0-0.204-0.205-0.204c0,0,0,0-2.808,0
	c0,0,0,0,0,18.107c0,0,0,0-4.841,0c0,0,0,0,0-18.107c0,0,0,0-2.807,0c-0.206,0-0.206,0-0.206,0.204c0,0,0,0,0,1.783c0,0,0,0-4.429,0
	c0,0,0,0,0-3.783C174.373,113.168,174.978,112.373,176.588,112.373z"/>
<path id="path3457"  fill="#ED1C24" d="M200.33,112.373c0,0,0,0,2.033,0h0.375v6.374
	c-0.206,0.397-0.399,0.987-0.399,1.591c0,0,0,0-1.609,4.578c0,0,0,0,1.694,0h0.314v4.168h-1.09c-0.617,0-1.318,0-2.129,0
	c0,0,0,0-1.404,3.386c-0.399,1.591-1.21,2.192-2.819,2.192c0,0,0,0-3.013,0c0,0,0,0,0-4.385c0,0,0,0,1.004,0
	c0.411,0,0.411,0,0.605-0.193C193.893,130.084,193.893,130.084,200.33,112.373z"/>
<path id="path3459"  fill="#ED1C24" d="M202.738,112.373h2.408c0,0,0,0,6.449,17.711
	c0.194,0.193,0.194,0.193,0.605,0.193H213c0,0,0,0,0,4.385c0,0,0,0-2.82,0c-1.609,0-2.407-0.602-2.818-2.192c0,0,0,0-1.404-3.386
	c0,0,0,0-2.711,0h-0.508v-4.168h2.009c0,0,0,0-1.61-4.578c0-0.604-0.193-1.193-0.398-1.591V112.373z"/>
<path id="path3461"  fill="#ED1C24" d="M63.924,93.205c0.23-0.072,0.533,0.072,0.835,0.47
	c0,0,0,0,13.675,13.325c0.798,0.795,0.798,2,0,2.59c0,0,0,0-13.675,13.531c-0.302,0.396-0.605,0.493-0.835,0.373
	c-0.23-0.121-0.375-0.471-0.375-0.977V94.072C63.549,93.578,63.694,93.277,63.924,93.205L63.924,93.205z"/>
<path id="path3463"  fill="#ED1C24" d="M40.532,71H41.5l0.932,0.385c0,0,0,0,14.074,13.928
	c0.605,0.795,0.399,1.398-0.605,1.398c0,0,0,0-5.833,0c-1.004,0-1.803,0.795-1.803,1.795c0,0,0,0,0,10.337
	c0,1-0.811,1.795-2.021,1.795c0,0,0,0-10.25,0c-1.004,0-1.815-0.795-1.815-1.795c0,0,0,0,0-10.337c0-1-0.799-1.795-1.815-1.795
	h-6.232c-1.004,0-1.21-0.603-0.605-1.398c0,0,0,0,14.086-13.928L40.532,71z"/>
<path id="path3465"  fill="#ED1C24" d="M18.483,92.904c0.254,0.12,0.412,0.47,0.412,0.976v29.037
	c0,0.506-0.157,0.807-0.412,0.903c-0.242,0.097-0.593,0-1.004-0.302c0,0,0,0-13.88-13.928C2.8,109,2.8,107.795,3.599,107
	c0,0,0,0,13.88-13.723C17.891,92.879,18.242,92.783,18.483,92.904z"/>
<path id="path3467"  fill="#ED1C24" d="M35.994,115.759c0,0,0,0,10.25,0
	c1.21,0,2.021,0.796,2.021,1.796c0,0,0,0,0,10.939c0,1.192,0.798,1.988,1.803,1.988h5.434c1.004,0,1.404,0.59,0.605,1.192
	c0,0,0,0-13.674,13.723c-0.412,0.397-0.908,0.603-1.416,0.603c-0.496,0-1.004-0.205-1.404-0.603c0,0,0,0-13.674-13.723
	c-0.811-0.603-0.412-1.192,0.593-1.192c0,0,0,0,5.833,0c1.017,0,1.815-0.796,1.815-1.988c0,0,0,0,0-10.939
	C34.179,116.555,34.99,115.759,35.994,115.759z"/>
</svg>
