<?xml version="1.0" encoding="utf-8"?>
<!DOCTYPE svg PUBLIC "-//W3C//DTD SVG 1.1//EN" "http://www.w3.org/Graphics/SVG/1.1/DTD/svg11.dtd">
<svg version="1.1" xmlns="http://www.w3.org/2000/svg" xmlns:xlink="http://www.w3.org/1999/xlink" x="0px" y="0px" width="216px" height="216px" viewBox="0 0 216 216" enable-background="new 0 0 216 216" xml:space="preserve">
<path fill="#FFDD00" d="M177.616,126.584H5.008V94.598h190.779L177.616,126.584z"/>
<path fill="#FFDD00" d="M211.332,100.841c0-0.051,0-0.092-0.018-0.129c-0.08-0.507-0.267-0.988-0.545-1.401
	c-0.281-0.414-0.645-0.75-1.065-0.982l-0.312-0.439c-0.23-0.605-0.619-1.122-1.117-1.485c-0.5-0.364-1.086-0.558-1.685-0.558h-0.05
	c-0.305,0.003-0.607,0.056-0.898,0.157c0.043-0.53-0.021-1.064-0.185-1.566c0.144-0.366,0.243-0.75,0.296-1.144v-0.058
	c0.165-1.268-0.035-2.56-0.572-3.697c-0.183-0.512-0.305-1.047-0.361-1.593l-0.02-0.112c-0.138-1.008-0.354-2.001-0.646-2.969
	c-0.277-0.849-0.789-1.581-1.467-2.095c-0.676-0.514-1.483-0.782-2.307-0.769c-1.033-0.007-2.031,0.405-2.802,1.158
	c-0.657,0.69-1.101,1.587-1.267,2.567c-0.135,0.585-0.263,1.185-0.375,1.702c-0.646,0.202-1.209,0.645-1.59,1.253
	c-0.281,0.471-0.457,1.007-0.514,1.566v0.047c-0.044,0.34-0.078,0.681-0.109,0.963v0.041c-0.039,0.375-0.074,0.732-0.127,1.055
	c-0.037,0.245-0.103,0.524-0.168,0.79c-0.339,0.441-0.543,0.986-0.586,1.559c-0.031,0.379,0.008,0.762,0.114,1.124
	s0.28,0.697,0.509,0.983c0.077,0.198,0.146,0.371,0.186,0.5v0.017c0.025,0.102,0.054,0.198,0.084,0.293h-8.971
	c-2-4.531-5.129-8.353-9.025-11.028c-3.897-2.674-8.404-4.093-13.006-4.093c-4.601,0-9.107,1.419-13.004,4.093
	c-3.897,2.675-7.025,6.497-9.026,11.028h-4.707l-7.063,24.441h12.334c2.105,4.222,5.213,7.743,8.994,10.196
	c3.782,2.453,8.098,3.746,12.495,3.742c4.396-0.004,8.711-1.303,12.489-3.762c3.779-2.459,6.881-5.986,8.98-10.211h0.045
	l0.601,4.106h9.938v-4.361h16.722c0,0,0-8.134,0-9.192c0.11-0.094,0.215-0.197,0.311-0.31c0.357-0.42,0.585-0.95,0.654-1.519
	l0.246-0.218l0.146-0.133l0.112-0.095l-0.03-0.154l-0.045-0.201l-0.201-0.959l-0.088-0.388l-0.035-0.157
	c-0.018-0.092-0.037-0.177-0.056-0.259c-0.022-0.265-0.073-0.527-0.151-0.779v-0.075c0.013-1.039-0.125-2.073-0.412-3.064
	L211.332,100.841z"/>
<path fill="#008AD2" d="M172.973,119.684V99.869h5.93v14.718h4.285V99.869h5.936v14.718h2.329v9.264h-3.845l-0.498-4.167H172.973z"
	/>
<path fill="#008AD2" d="M171.243,99.826v19.855h-6.157v-7.303h-5.064v7.303h-6.158V99.826h6.158v7.303h5.064v-7.303H171.243z"/>
<path fill="#008AD2" d="M146.869,119.729l-1.332-4.705h-6.898l-1.436,4.699h-5.793l5.831-19.896h9.713l5.914,19.902H146.869z
	 M139.794,110.769l4.489,0.026l-2.198-7.803L139.794,110.769z"/>
<path fill="#FFFFFF" d="M202.852,117.529c-0.205-0.115-0.381-0.284-0.513-0.491s-0.215-0.446-0.243-0.696
	c-0.115-0.682-0.398-1.318-0.312-2.043c0.075-0.623,0.155-1.246,0.259-1.865c0.198-1.129,0.303-2.275,0.311-3.426
	c0.008-0.711,0.056-1.422,0.144-2.127c0.087-0.787,0.29-1.556,0.349-2.346c0.004-0.39,0.135-0.765,0.369-1.059
	c0.232-0.294,0.555-0.488,0.907-0.548c-0.045-0.677-0.126-1.35-0.243-2.016c-0.074-0.429-0.249-0.834-0.357-1.26
	c-0.068-0.266-0.225-0.5-0.104-0.834c0.053-0.133,0.08-0.277,0.08-0.422c0-0.145-0.027-0.289-0.08-0.422
	c-0.41-0.681-0.311-1.396-0.195-2.09c0.036-0.139,0.035-0.287-0.002-0.425s-0.109-0.263-0.209-0.358
	c-0.123-0.104-0.213-0.249-0.255-0.413c-0.041-0.164-0.032-0.338,0.022-0.497c0.045-0.17,0.051-0.432,0.15-0.49
	c0.355-0.201,0.398-0.558,0.451-0.899c0.078-0.705-0.049-1.419-0.361-2.042c-0.302-0.781-0.5-1.605-0.59-2.448
	c-0.117-0.852-0.298-1.691-0.543-2.509c-0.377-1.165-1.783-1.284-2.49-0.582c-0.281,0.329-0.463,0.745-0.52,1.191
	c-0.229,0.998-0.434,2.002-0.648,3.003c-0.016,0.116-0.066,0.222-0.145,0.302c-0.078,0.08-0.178,0.129-0.285,0.14
	c-0.279,0.051-0.547,0.167-0.828,0.205c-0.476,0.068-0.479,0.266-0.529,0.653c-0.092,0.712-0.139,1.43-0.252,2.135
	c-0.084,0.555-0.236,1.1-0.363,1.648c-0.018,0.096-0.063,0.184-0.131,0.249c-0.312,0.225-0.312,0.218-0.051,0.49
	c0.022,0.021,0.051,0.041,0.06,0.068c0.177,0.408,0.333,0.827,0.467,1.253c0.069,0.249,0.063,0.477,0.384,0.34
	c0.027,0,0.105,0.031,0.121,0.065c0.203,0.354,0.361,0.738,0.467,1.14c0.103,0.65,0.071,1.321,0.125,1.982
	c0.043,0.21,0.104,0.416,0.187,0.613c0.037,0.084,0.051,0.179,0.04,0.272c-0.087,0.34-0.221,0.643-0.292,0.977
	c-0.101,0.456-0.125,0.936-0.237,1.389c-0.205,0.834-0.453,1.651-0.672,2.479c-0.178,0.681-0.343,1.362-0.501,2.043
	c-0.026,0.167-0.037,0.337-0.035,0.507c0,0.381,0,0.77-0.036,1.147c-0.109,0.961-0.287,1.914-0.353,2.873
	c-0.05,1.381-0.271,2.748-0.66,4.063c-0.067,0.274-0.122,0.553-0.162,0.834c-0.024,0.226-0.089,0.443-0.19,0.644
	c-0.162,0.179-0.342,0.337-0.537,0.47c-0.141,0.123-0.269,0.259-0.424,0.408c0.097,0.068,0.141,0.126,0.189,0.129
	c0.393,0.047,0.788,0.063,1.184,0.052c0.189-0.008,0.371-0.091,0.508-0.232c0.139-0.142,0.226-0.334,0.246-0.54
	c0.094-0.387,0.234-0.758,0.42-1.104c0.123-0.211,0.268-0.406,0.43-0.582l0.076,0.051v1.958l0.138-0.024c0-0.146,0-0.296,0-0.445
	c-0.003-0.572,0.046-1.143,0.147-1.703c0.074-0.25,0.088-0.517,0.041-0.774c-0.049-0.259-0.156-0.498-0.315-0.696
	c-0.036-0.053-0.062-0.113-0.075-0.178c-0.013-0.064-0.014-0.131-0.003-0.196c0.224-0.82,0.431-1.651,0.726-2.438
	c0.16-0.407,0.252-0.844,0.273-1.287c-0.025-0.554-0.014-1.109,0.038-1.661c0.147-0.691,0.356-1.365,0.622-2.012
	c0.408-1.045,0.865-2.066,1.311-3.095c0.028-0.068,0.096-0.157,0.149-0.16c0.452,0,0.903,0,1.392,0c0,0.129,0,0.255,0,0.381
	c-0.043,0.81-0.094,1.617-0.127,2.427c0,0.402,0,0.804,0,1.206c0,0.562-0.025,1.124-0.045,1.702c0,0.445-0.052,0.893-0.037,1.334
	c0.031,0.93,0.098,1.853,0.144,2.779c0.014,0.139-0.005,0.278-0.054,0.407c-0.047,0.129-0.125,0.243-0.224,0.331
	c-0.097,0.09-0.187,0.189-0.267,0.296c-0.105,0.099-0.174,0.233-0.197,0.382s0.001,0.301,0.068,0.432
	c0.027,0.055,0.045,0.115,0.051,0.178c0.04,0.531,0.078,1.063,0.121,1.594c0.013,0.094,0.031,0.187,0.053,0.278h0.051v-1.761
	c0.098,0.086,0.18,0.146,0.254,0.219c0.389,0.378,0.508,0.916,0.688,1.416c0.09,0.252,0.215,0.457,0.479,0.49
	c0.416,0.085,0.846,0.049,1.246-0.105C203.012,117.721,202.952,117.588,202.852,117.529z M197.837,97.8
	c-0.312-0.545-0.767-1.021-0.483-1.787c0.063-0.179,0.082-0.373,0.054-0.562c-0.05-0.17-0.122-0.333-0.216-0.48
	c-0.067-0.14-0.195-0.276-0.192-0.409c0-0.214,0.231-0.381,0.492-0.422C197.575,95.363,198.023,96.534,197.837,97.8z"/>
<path fill="#FFFFFF" d="M210.208,109.854c-0.084-0.163-0.119-0.279,0.06-0.385c0.08-0.058,0.156-0.123,0.227-0.197
	c-0.04-0.193-0.081-0.378-0.115-0.562c-0.033-0.184,0-0.34-0.09-0.422c-0.176-0.187-0.113-0.378-0.109-0.589
	c0.024-1.195,0.166-2.407-0.623-3.445c-0.176-0.314-0.396-0.596-0.654-0.834c-0.033-0.04-0.06-0.087-0.074-0.139
	c-0.016-0.052-0.02-0.107-0.012-0.161c0.041-0.303,0.14-0.562,0.5-0.47c0.061-0.002,0.119-0.016,0.176-0.041
	c-0.502-0.34-0.495-0.34-0.352-0.957c0.025-0.15,0.025-0.303,0-0.453c-0.051-0.32-0.312-0.402-0.527-0.548
	c-0.122-0.07-0.234-0.159-0.332-0.266c-0.249-0.316-0.48-0.65-0.711-0.98c-0.064-0.083-0.113-0.179-0.143-0.283
	c-0.023-0.13-0.086-0.249-0.178-0.336c-0.092-0.087-0.208-0.138-0.33-0.144c-0.115-0.002-0.227,0.038-0.318,0.114
	c-0.093,0.076-0.158,0.184-0.188,0.305c-0.04,0.109-0.099,0.208-0.175,0.292c-0.15,0.146-0.288,0.307-0.41,0.48
	c-0.229,0.419-0.698,0.729-0.895,1.004c-0.195,0.276-0.414,1.001-0.326,1.297c0.086,0.296,0.152,0.487,0.224,0.681
	c0.12-0.003,0.237,0.041,0.33,0.123c0.349,0.262,0.401,0.416,0.101,0.742c-0.269,0.292-0.521,0.599-0.761,0.919
	c-0.144,0.159-0.241,0.36-0.283,0.579c-0.034,0.62,0,1.246,0,1.873c0,0.317,0.05,0.722-0.103,0.926
	c-0.311,0.408-0.141,0.739,0,1.089c0.096,0.174,0.21,0.335,0.34,0.479v1.021c-0.104,0.002-0.205,0.027-0.298,0.076
	s-0.175,0.118-0.241,0.205s-0.113,0.188-0.141,0.297c-0.025,0.109-0.029,0.224-0.012,0.334c0,0.041-0.041,0.082-0.059,0.13
	c-0.061,0.104-0.1,0.22-0.119,0.341c-0.004,0.281,0.035,0.563,0.115,0.83c0.05,0.355,0.05,0.715,0,1.069
	c-0.014,0.173,0.035,0.346,0.134,0.481c0.099,0.137,0.241,0.227,0.399,0.25c0.269,0.04,0.541,0.061,0.812,0.063
	c0.087,0.009,0.175-0.002,0.259-0.031c0.082-0.03,0.158-0.078,0.223-0.143s0.115-0.143,0.152-0.23
	c0.034-0.088,0.053-0.182,0.051-0.277c0-0.064,0.02-0.129,0.025-0.193h0.109c0.027,0.34,0.027,0.682,0,1.021
	c-0.139,0.685-0.074,1.4,0.184,2.042c0.096,0.225,0.143,0.405-0.05,0.599c-0.06,0.059-0.069,0.178-0.103,0.279
	c0.582,0.035,1.127,0.082,1.668,0.092c0.408,0,0.815-0.029,1.224-0.054c0.142-0.005,0.276-0.071,0.377-0.183
	c0.099-0.111,0.155-0.261,0.155-0.416c0-2.064,0-4.127,0-6.189c0-0.361-0.031-0.719-0.049-1.06l0.438-0.156
	c0.041,0.028,0.076,0.065,0.103,0.11c0.026,0.044,0.043,0.094,0.051,0.146c0.006,0.053,0.003,0.106-0.012,0.157
	s-0.039,0.098-0.07,0.138c-0.038,0.107-0.057,0.224-0.053,0.34c0.092-0.027,0.184-0.061,0.273-0.099
	c0.047-0.024,0.09-0.099,0.128-0.095c0.187,0,0.202,0.023,0.187-0.168C210.309,110.129,210.271,109.984,210.208,109.854z
	 M205.818,103.085c-0.123-0.333-0.228-0.674-0.312-1.021c-0.067-0.412-0.095-0.831-0.081-1.249c0.182,0.082,0.333,0.099,0.219,0.395
	c-0.063,0.157,0.1,0.49,0.246,0.661C206.273,102.309,206.254,102.769,205.818,103.085z M208.309,101.85
	c-0.088,0.113-0.193,0.208-0.312,0.283l-0.054-0.071c0.104-0.453,0.207-0.902,0.313-1.389c0.104,0.173,0.164,0.375,0.172,0.582
	c0.008,0.208-0.037,0.414-0.129,0.596H208.309z"/>
<path fill="#008AD2" d="M200.496,84.81c0.302-0.015,0.602,0.077,0.854,0.26c0.25,0.184,0.442,0.45,0.547,0.761
	c0.246,0.818,0.426,1.657,0.541,2.509c0.09,0.843,0.291,1.667,0.592,2.448c0.313,0.623,0.438,1.337,0.361,2.042
	c-0.053,0.34-0.097,0.698-0.451,0.899c-0.1,0.058-0.106,0.32-0.149,0.49c-0.058,0.158-0.065,0.333-0.022,0.497
	c0.041,0.164,0.129,0.309,0.252,0.412c0.101,0.095,0.174,0.219,0.211,0.358s0.037,0.286,0.002,0.425
	c-0.101,0.681-0.215,1.413,0.195,2.09c0.053,0.133,0.08,0.277,0.08,0.422c0,0.145-0.027,0.289-0.08,0.422
	c-0.121,0.34,0.034,0.568,0.104,0.834c0.109,0.425,0.283,0.831,0.357,1.26c0.116,0.666,0.197,1.339,0.243,2.015
	c-0.353,0.06-0.674,0.254-0.907,0.548c-0.233,0.294-0.365,0.669-0.369,1.059c-0.06,0.79-0.262,1.56-0.349,2.346
	c-0.088,0.706-0.136,1.416-0.144,2.128c-0.008,1.149-0.112,2.295-0.311,3.424c-0.104,0.621-0.185,1.243-0.259,1.866
	c-0.084,0.712,0.199,1.362,0.312,2.043c0.027,0.251,0.111,0.489,0.244,0.696c0.131,0.207,0.308,0.376,0.512,0.492
	c0.1,0.058,0.158,0.19,0.262,0.32c-0.232,0.1-0.48,0.149-0.732,0.146c-0.176-0.004-0.351-0.018-0.525-0.041
	c-0.264-0.035-0.389-0.238-0.479-0.49c-0.182-0.501-0.312-1.021-0.689-1.417c-0.074-0.071-0.155-0.133-0.254-0.218v1.727h-0.051
	c-0.021-0.092-0.039-0.186-0.053-0.279c-0.044-0.531-0.081-1.063-0.122-1.594c-0.011-0.072-0.032-0.143-0.062-0.207
	c-0.061-0.129-0.079-0.276-0.053-0.418c0.024-0.143,0.092-0.271,0.192-0.365c0.082-0.107,0.171-0.207,0.269-0.297
	c0.099-0.088,0.176-0.201,0.224-0.33c0.049-0.129,0.067-0.27,0.053-0.408c-0.047-0.926-0.112-1.85-0.144-2.778
	c-0.016-0.442,0.025-0.889,0.037-1.335c0.02-0.562,0.035-1.123,0.045-1.702c0-0.402,0-0.804,0-1.206
	c0.033-0.81,0.084-1.617,0.127-2.427c0-0.126,0-0.252,0-0.381h-0.645c-0.252,0-0.5,0-0.746,0c-0.054,0-0.121,0.092-0.149,0.16
	c-0.446,1.021-0.903,2.042-1.312,3.095c-0.267,0.647-0.475,1.321-0.623,2.012c-0.051,0.553-0.063,1.107-0.037,1.662
	c-0.021,0.443-0.113,0.879-0.273,1.287c-0.311,0.785-0.501,1.617-0.725,2.438c-0.012,0.064-0.01,0.131,0.002,0.195
	c0.015,0.064,0.039,0.125,0.076,0.179c0.157,0.198,0.267,0.438,0.314,0.695c0.048,0.259,0.033,0.525-0.042,0.775
	c-0.101,0.561-0.149,1.131-0.146,1.702c0,0.15,0,0.3,0,0.446l-0.138,0.023v-1.958l-0.077-0.051c-0.162,0.177-0.307,0.372-0.43,0.582
	c-0.186,0.346-0.326,0.717-0.421,1.104c-0.019,0.207-0.106,0.398-0.244,0.541c-0.14,0.141-0.319,0.225-0.509,0.232
	c-0.081,0-0.159,0-0.24,0c-0.311,0-0.622-0.041-0.934-0.063c-0.049,0-0.094-0.061-0.189-0.129c0.155-0.149,0.283-0.285,0.423-0.408
	c0.196-0.133,0.376-0.291,0.539-0.471c0.101-0.199,0.164-0.417,0.188-0.643c0.041-0.281,0.095-0.561,0.162-0.834
	c0.39-1.314,0.611-2.682,0.66-4.063c0.066-0.959,0.244-1.912,0.353-2.873c0.041-0.377,0.022-0.766,0.037-1.147
	c-0.009-0.158-0.005-0.316,0.013-0.474c0.159-0.681,0.311-1.361,0.501-2.042c0.218-0.827,0.468-1.645,0.672-2.479
	c0.113-0.453,0.138-0.933,0.237-1.389c0.072-0.34,0.206-0.65,0.293-0.977c0.01-0.093-0.004-0.188-0.041-0.272
	c-0.081-0.196-0.145-0.402-0.188-0.613c-0.052-0.66-0.021-1.331-0.123-1.981c-0.106-0.402-0.264-0.786-0.467-1.141
	c-0.014-0.019-0.031-0.034-0.049-0.046c-0.02-0.012-0.04-0.019-0.061-0.022c-0.055,0.028-0.112,0.044-0.172,0.048
	c-0.149,0-0.158-0.181-0.211-0.375c-0.127-0.404-0.274-0.8-0.442-1.185l-0.084-0.14c-0.252-0.269-0.249-0.262,0.05-0.487
	c0.066-0.064,0.113-0.152,0.131-0.249c0.127-0.548,0.28-1.093,0.364-1.647c0.112-0.705,0.159-1.423,0.252-2.135
	c0.05-0.388,0.054-0.585,0.528-0.654c0.281-0.037,0.549-0.153,0.828-0.204c0.281-0.051,0.424-0.259,0.455-0.609
	c0.053-0.763,0.207-1.513,0.457-2.227c0.215-0.589,0.207-1.325,0.686-1.801C199.711,84.962,200.098,84.805,200.496,84.81z
	 M197.85,97.802c0.187-1.267-0.262-2.438-0.346-3.66c-0.262,0.041-0.482,0.208-0.492,0.422c0,0.133,0.125,0.269,0.193,0.409
	c0.093,0.147,0.165,0.309,0.215,0.48c0.027,0.189,0.01,0.383-0.053,0.562C197.084,96.763,197.541,97.257,197.85,97.802z
	 M200.496,84.201c-0.536-0.005-1.055,0.206-1.457,0.592c-0.364,0.409-0.604,0.931-0.686,1.495c-0.156,0.681-0.312,1.362-0.441,2.042
	c-0.069,0.317-0.135,0.633-0.203,0.95c-0.148,0.027-0.286,0.068-0.42,0.105c-0.12,0.039-0.243,0.068-0.367,0.088
	c-0.27,0.004-0.525,0.125-0.714,0.335s-0.293,0.494-0.292,0.788v0.051c-0.04,0.31-0.07,0.623-0.102,0.926
	c-0.045,0.412-0.086,0.804-0.145,1.192c-0.059,0.388-0.158,0.783-0.258,1.195c-0.031,0.123-0.063,0.245-0.09,0.368
	c-0.104,0.062-0.193,0.15-0.26,0.256c-0.067,0.106-0.11,0.229-0.127,0.356c-0.004,0.139,0.022,0.276,0.076,0.401
	c0.055,0.125,0.135,0.235,0.235,0.32l0.103,0.259c0.121,0.269,0.225,0.547,0.312,0.831l0.019,0.082
	c0.109,0.456,0.334,0.701,0.672,0.725c0.002,0.009,0.002,0.018,0,0.027c0.113,0.191,0.198,0.4,0.252,0.619
	c0.049,0.375,0.076,0.752,0.078,1.13c0,0.262,0.02,0.535,0.041,0.807c0.023,0.2,0.074,0.396,0.152,0.579l0.059,0.164v0.024
	c-0.024,0.085-0.056,0.17-0.086,0.262c-0.072,0.209-0.134,0.423-0.185,0.64c-0.05,0.231-0.084,0.463-0.115,0.681
	c-0.028,0.229-0.067,0.457-0.118,0.681c-0.115,0.474-0.252,0.954-0.383,1.417c-0.096,0.34-0.193,0.681-0.285,1.052
	c-0.201,0.752-0.375,1.498-0.506,2.063c-0.035,0.175-0.051,0.355-0.05,0.534c-0.001,0.033-0.001,0.066,0,0.099
	c0,0.14,0,0.279,0,0.412c0.002,0.228-0.007,0.455-0.028,0.681c-0.039,0.364-0.093,0.742-0.143,1.106
	c-0.084,0.582-0.168,1.185-0.208,1.794c-0.046,1.324-0.257,2.636-0.623,3.898c-0.062,0.201-0.106,0.406-0.134,0.616
	c-0.012,0.095-0.027,0.189-0.047,0.282c0,0.055-0.024,0.113-0.035,0.17c-0.012,0.088-0.031,0.174-0.061,0.256
	c-0.062,0.065-0.13,0.123-0.203,0.17c-0.084,0.057-0.164,0.117-0.24,0.184c-0.108,0.1-0.205,0.198-0.311,0.301l-0.134,0.133
	c-0.122,0.15-0.196,0.34-0.212,0.541c0,0.149,0.283,0.426,0.283,0.426l0.05,0.037c0.114,0.105,0.256,0.17,0.405,0.184l0.283,0.023
	c0.223,0.021,0.457,0.041,0.693,0.041c0.1,0,0.189,0,0.277,0c0.225-0.008,0.443-0.08,0.633-0.209
	c0.191-0.129,0.347-0.311,0.454-0.525v0.377l0.622-0.099l0.134-0.021l0.479-0.074v-0.531c0-0.051,0-0.103,0-0.153
	c0-0.052,0-0.174,0-0.249c0-0.18,0.019-0.34,0.022-0.531c-0.004-0.354,0.03-0.709,0.103-1.055c0.099-0.328,0.121-0.678,0.067-1.018
	c-0.056-0.341-0.185-0.661-0.379-0.934c0.028-0.112,0.06-0.225,0.09-0.34c0.162-0.654,0.356-1.299,0.579-1.931
	c0.184-0.474,0.289-0.978,0.313-1.491c0-0.225,0-0.443,0-0.654c-0.021-0.303-0.01-0.607,0.033-0.908
	c0.139-0.652,0.336-1.287,0.588-1.896c0.313-0.783,0.648-1.566,0.979-2.329l0.242-0.552h0.548c0,0.19-0.021,0.381-0.031,0.572
	c-0.03,0.524-0.06,1.066-0.081,1.6c0,0.252,0,0.5,0,0.739c0,0.167,0,0.34,0,0.483c0,0.558-0.025,1.126-0.04,1.675
	c0,0.143,0,0.285-0.019,0.436c0,0.307-0.031,0.619-0.022,0.943c0.022,0.629,0.06,1.27,0.095,1.886
	c0.019,0.3,0.033,0.603,0.053,0.905c0,0.146-0.028,0.191-0.075,0.231c-0.121,0.11-0.231,0.232-0.333,0.364
	c-0.133,0.149-0.232,0.332-0.286,0.531c-0.054,0.2-0.063,0.412-0.024,0.616l0.164,1.021c0.019,0.29,0.043,0.579,0.065,0.868
	c0.009,0.097,0.026,0.192,0.05,0.286c0,0.021,0,0.044,0,0.064l0.118,0.593l0.539-0.123h0.024h0.024l0.446-0.099v-0.067
	c0.082,0.158,0.197,0.293,0.338,0.393s0.299,0.162,0.465,0.182c0.195,0.027,0.391,0.043,0.588,0.045
	c0.32,0.004,0.637-0.061,0.934-0.191c0,0,0.39-0.225,0.428-0.371c0.037-0.146-0.212-0.588-0.212-0.588l-0.062-0.092
	c-0.092-0.152-0.213-0.277-0.355-0.368c-0.133-0.075-0.244-0.185-0.327-0.319c-0.082-0.134-0.133-0.289-0.146-0.45
	c-0.041-0.231-0.098-0.456-0.15-0.681c-0.123-0.373-0.178-0.77-0.159-1.164c0.081-0.682,0.156-1.26,0.252-1.832
	c0.208-1.164,0.319-2.348,0.33-3.534c0.008-0.683,0.054-1.365,0.138-2.042c0.037-0.341,0.094-0.644,0.155-0.984
	c0.09-0.458,0.156-0.92,0.196-1.386c-0.01-0.259,0.07-0.512,0.223-0.71c0.153-0.199,0.367-0.328,0.602-0.362l0.523-0.092
	l-0.059-0.575c-0.031-0.3-0.051-0.511-0.063-0.681c-0.037-0.463-0.1-0.923-0.188-1.378c-0.055-0.289-0.133-0.573-0.229-0.848
	c-0.05-0.16-0.1-0.313-0.137-0.463c-0.024-0.092-0.054-0.17-0.078-0.242c-0.06-0.167-0.054-0.177-0.047-0.201
	c0.087-0.225,0.126-0.469,0.116-0.712c-0.012-0.244-0.072-0.482-0.178-0.697c-0.283-0.466-0.207-1.001-0.115-1.621v-0.038
	c0.051-0.242,0.041-0.495-0.03-0.732c-0.071-0.236-0.199-0.447-0.372-0.609c-0.075-0.071-0.104-0.099-0.057-0.279
	c0.02-0.079,0.031-0.153,0.045-0.225c0.162-0.148,0.295-0.33,0.391-0.536s0.152-0.431,0.166-0.662v-0.034
	c0.094-0.821-0.047-1.654-0.404-2.383c-0.271-0.696-0.449-1.429-0.533-2.179v-0.109c-0.119-0.886-0.308-1.76-0.563-2.611
	c-0.14-0.432-0.401-0.803-0.747-1.061S200.914,84.185,200.496,84.201z"/>
<path fill="#008AD2" d="M206.917,98.623c0.12,0.01,0.233,0.063,0.325,0.15c0.09,0.087,0.152,0.204,0.176,0.333
	c0.029,0.104,0.079,0.2,0.143,0.283c0.231,0.34,0.461,0.681,0.711,0.98c0.099,0.111,0.213,0.206,0.338,0.279
	c0.209,0.146,0.478,0.228,0.527,0.548c0.026,0.149,0.026,0.303,0,0.453c-0.144,0.619-0.15,0.616,0.352,0.957
	c-0.051,0.019-0.102,0.032-0.155,0.041h-0.019c-0.045-0.013-0.09-0.02-0.135-0.02c-0.252,0-0.33,0.228-0.367,0.49
	c-0.006,0.054-0.002,0.109,0.013,0.161s0.041,0.1,0.075,0.139c0.254,0.239,0.474,0.521,0.646,0.834
	c0.785,1.021,0.645,2.25,0.623,3.446c0,0.211-0.064,0.402,0.109,0.589c0.078,0.085,0.059,0.279,0.09,0.422
	c0.031,0.143,0.074,0.368,0.115,0.562c-0.069,0.072-0.146,0.139-0.228,0.197c-0.177,0.105-0.144,0.221-0.06,0.385
	c0.06,0.128,0.093,0.269,0.101,0.412c0,0.143,0,0.174-0.077,0.174h-0.109c-0.041,0-0.082,0.07-0.129,0.095
	c-0.088,0.038-0.18,0.071-0.273,0.099c-0.003-0.116,0.016-0.232,0.053-0.34c0.033-0.04,0.057-0.087,0.071-0.138
	s0.019-0.104,0.011-0.157c-0.007-0.053-0.023-0.103-0.051-0.146c-0.025-0.045-0.061-0.082-0.102-0.111l-0.439,0.157
	c0.018,0.341,0.051,0.681,0.051,1.059c0,2.063,0,4.126,0,6.189c-0.002,0.155-0.058,0.306-0.156,0.417
	c-0.1,0.111-0.234,0.178-0.377,0.182c-0.373,0.021-0.75,0.059-1.125,0.059h-0.099c-0.542,0-1.087-0.059-1.669-0.092
	c0.035-0.102,0.044-0.221,0.104-0.279c0.192-0.193,0.146-0.375,0.049-0.6c-0.258-0.643-0.321-1.357-0.184-2.043
	c0.027-0.34,0.027-0.682,0-1.021h-0.109c0,0.064-0.019,0.13-0.024,0.194c0,0.093-0.017,0.186-0.051,0.271
	c-0.033,0.085-0.083,0.162-0.146,0.227c-0.062,0.063-0.136,0.112-0.216,0.145c-0.079,0.031-0.166,0.044-0.251,0.038h-0.021
	c-0.266-0.003-0.53-0.022-0.793-0.062c-0.162-0.02-0.309-0.105-0.412-0.24s-0.154-0.309-0.143-0.484c0.051-0.355,0.051-0.715,0-1.07
	c-0.08-0.268-0.119-0.548-0.115-0.83c0.019-0.121,0.059-0.236,0.119-0.34c0.018-0.049,0.062-0.089,0.059-0.13
	c-0.016-0.108-0.008-0.219,0.02-0.324c0.026-0.105,0.074-0.204,0.139-0.287c0.064-0.085,0.145-0.152,0.234-0.2
	c0.09-0.047,0.188-0.074,0.288-0.077v-1.021c-0.129-0.145-0.243-0.306-0.339-0.479c-0.134-0.341-0.296-0.681,0-1.09
	c0.152-0.204,0.098-0.609,0.104-0.926c0-0.626-0.025-1.253,0-1.873c0.041-0.219,0.14-0.419,0.283-0.579
	c0.237-0.32,0.491-0.627,0.76-0.919c0.311-0.34,0.248-0.48-0.101-0.742c-0.089-0.078-0.198-0.122-0.312-0.126h-0.021
	c-0.072-0.204-0.148-0.442-0.225-0.681c-0.074-0.239,0.141-1.021,0.328-1.297c0.187-0.276,0.666-0.585,0.893-1.004
	c0.128-0.181,0.271-0.347,0.43-0.497c0.075-0.084,0.135-0.184,0.174-0.293c0.028-0.125,0.095-0.236,0.188-0.315
	c0.094-0.079,0.209-0.12,0.327-0.117L206.917,98.623z M207.982,102.143c0.117-0.074,0.222-0.17,0.311-0.282
	c0.091-0.183,0.135-0.389,0.127-0.596c-0.009-0.208-0.068-0.409-0.174-0.582c-0.112,0.487-0.215,0.937-0.311,1.389l0.053,0.071
	H207.982z M205.809,103.097c0.437-0.317,0.455-0.776,0.071-1.229c-0.146-0.17-0.312-0.504-0.246-0.661
	c0.116-0.296-0.036-0.313-0.217-0.395c-0.015,0.418,0.013,0.837,0.08,1.25c0.085,0.347,0.188,0.688,0.312,1.021V103.097z
	 M206.917,98c-0.231,0-0.457,0.081-0.642,0.233c-0.186,0.151-0.321,0.365-0.385,0.608c-0.021,0.033-0.045,0.063-0.07,0.092
	c-0.03,0.041-0.077,0.085-0.123,0.136c-0.137,0.126-0.254,0.274-0.35,0.439c-0.125,0.188-0.275,0.355-0.441,0.5
	c-0.151,0.132-0.29,0.28-0.414,0.442c-0.227,0.324-0.585,1.277-0.414,1.855c0.068,0.231,0.146,0.473,0.232,0.722l0.147,0.412h0.246
	c-0.228,0.255-0.438,0.521-0.623,0.787c-0.231,0.249-0.384,0.572-0.437,0.922c-0.021,0.395-0.015,0.79,0,1.168
	c0,0.252,0,0.49,0,0.729c0,0.085,0,0.174,0,0.255c0.008,0.113,0.008,0.227,0,0.34c-0.156,0.228-0.25,0.502-0.266,0.787
	s0.045,0.569,0.176,0.816l0.028,0.068c0.078,0.175,0.183,0.335,0.312,0.47v0.357c-0.211,0.109-0.389,0.283-0.512,0.5
	s-0.186,0.467-0.183,0.723v0.023l-0.028,0.058c-0.1,0.151-0.163,0.329-0.184,0.515c-0.002,0.347,0.047,0.691,0.146,1.021
	c0.022,0.152,0.022,0.309,0,0.463c-0.014,0.133-0.021,0.268-0.021,0.401c-0.014,0.321,0.086,0.638,0.277,0.884
	c0.189,0.246,0.457,0.404,0.75,0.443c0.293,0.043,0.588,0.066,0.883,0.068h0.035c0.059,0.004,0.116,0.004,0.174,0
	c-0.053,0.628,0.045,1.26,0.287,1.832c-0.072,0.112-0.123,0.238-0.152,0.371c0.001,0.015,0.001,0.029,0,0.045l-0.268,0.779
	l0.76,0.044l0.522,0.034c0.401,0.027,0.778,0.051,1.167,0.058h0.109c0.279,0,0.554-0.021,0.818-0.037l0.334-0.021
	c0.285-0.014,0.555-0.146,0.752-0.371c0.197-0.226,0.309-0.525,0.309-0.838v-1.215c0-1.543,0-3.137,0-4.709h0.021l0.072-0.023
	c0.071-0.023,0.155-0.055,0.242-0.092l0.078-0.041c0.16-0.01,0.311-0.087,0.421-0.215c0.065-0.084,0.112-0.183,0.14-0.289
	s0.032-0.219,0.016-0.327c-0.008-0.142-0.032-0.282-0.071-0.419l0.015-0.017l0.041-0.038l0.271-0.241l-0.077-0.371l-0.035-0.157
	l-0.084-0.395c0,0,0-0.054,0-0.078c-0.005-0.214-0.07-0.421-0.189-0.592c0.002-0.013,0.002-0.025,0-0.038c0-0.044,0-0.099,0-0.16
	c0-0.133,0-0.266,0-0.398c0.031-1.103,0.068-2.349-0.76-3.449c-0.053-0.068-0.103-0.149-0.158-0.238
	c-0.084-0.14-0.178-0.274-0.277-0.401h0.044h0.024l0.172-1.113c-0.047-0.034-0.104-0.068-0.147-0.102
	c0-0.051,0.024-0.109,0.038-0.164v-0.024c0.046-0.231,0.046-0.47,0-0.701c-0.037-0.198-0.117-0.382-0.232-0.539
	c-0.117-0.156-0.268-0.278-0.438-0.357l-0.105-0.065l-0.053-0.037c-0.059-0.037-0.111-0.079-0.162-0.126
	c-0.218-0.279-0.424-0.572-0.638-0.878l-0.054-0.079c-0.018-0.023-0.034-0.048-0.049-0.075c-0.047-0.263-0.172-0.501-0.356-0.678
	S207.161,98.016,206.917,98z"/>
<path d="M205.455,114.643c-0.029,0.002-0.059,0.002-0.088,0H205.455z"/>
<path fill="#E52222" d="M205.732,114.547l-0.049,0.023L205.732,114.547z"/>
<path fill="#E52222" d="M205.938,114.343l0.024-0.04L205.938,114.343z"/>
<path fill="#E52222" d="M205.996,114.208c0.006-0.013,0.012-0.026,0.016-0.04C206.008,114.182,206.002,114.195,205.996,114.208z"/>
<path fill="#E3000B" d="M195.316,126.511h-10.5l-0.601-4.062l-55.169-0.014l0.193-0.65h55.492l0.602,4.063h9.376v-4.365h17.024
	v0.664h-16.418V126.511z"/>
<path fill="#008AD2" d="M82.492,114.551v5.178H67.559V99.826h14.933v5.161h-9.087v2.176h7.948v5.13h-7.948v2.258H82.492z"/>
<path fill="#008AD2" d="M89.913,107.231l5.308-7.405h6.248l-6.677,9.158l6.982,10.744h-6.36l-5.501-8.027v8.027h-5.89V99.826h5.89
	V107.231z"/>
<path fill="#008AD2" d="M32.352,119.729V99.826h17.249v19.902h-6.216v-15.633h-4.816v15.633H32.352z"/>
<path fill="#008AD2" d="M24.767,119.729l-1.345-4.705h-6.97l-1.448,4.699H9.152l5.89-19.896h9.806l5.971,19.902H24.767z
	 M17.607,110.769l4.533,0.026l-2.198-7.803L17.607,110.769z"/>
<path fill="#008AD2" d="M61.649,105.021v14.707H55.51v-14.707h-4.374v-5.195h14.886v5.195H61.649z"/>
<path fill="#008AD2" d="M118.939,119.729l-1.359-4.705h-6.967l-1.448,4.697h-5.853l5.89-19.902h9.81l5.967,19.902L118.939,119.729z
	 M111.779,110.768l4.533,0.027l-2.22-7.804L111.779,110.768z"/>
<path fill="#E3000B" d="M131.834,121.791H5v0.63h126.834V121.791z"/>
<path fill="#005884" d="M183.343,97.568l-0.114,0.535c-1.189-1.785-2.572-3.405-4.119-4.825c-1.516-1.391-3.178-2.576-4.953-3.53
	c-3.529-1.868-7.406-2.814-11.326-2.764c-3.921,0.05-7.777,1.095-11.266,3.054c-3.553,2.031-6.602,4.978-8.881,8.586l0.112-0.538
	c1.147-1.815,2.496-3.469,4.013-4.926c1.482-1.431,3.119-2.659,4.871-3.657c3.488-1.958,7.344-3.003,11.264-3.054
	s7.797,0.896,11.324,2.764C177.869,91.151,180.982,94.019,183.343,97.568z"/>
<path fill="#007FBF" d="M162.87,84.072c4.288-0.082,8.514,1.133,12.212,3.51c1.816,1.167,3.462,2.625,4.884,4.324
	c1.406,1.67,2.548,3.584,3.378,5.665c-2.359-3.549-5.474-6.417-9.074-8.355c-3.528-1.868-7.406-2.814-11.326-2.764
	s-7.774,1.096-11.262,3.054c-1.754,0.998-3.39,2.226-4.871,3.656c-1.518,1.457-2.865,3.111-4.014,4.927
	c0.784-2.099,1.883-4.04,3.25-5.744c1.389-1.732,3.002-3.23,4.791-4.446C154.454,85.447,158.615,84.124,162.87,84.072z"/>
<path fill="#0F6489" d="M181.967,122.729l-0.025,0.868c-1.996,3.507-4.838,6.343-8.215,8.194c-3.347,1.811-7.033,2.744-10.768,2.725
	h-0.111c-3.697-0.017-7.341-0.96-10.65-2.758c-3.301-1.814-6.201-4.545-8.057-7.937l0.025-0.868
	c1.867,3.404,4.756,6.129,8.057,7.939c3.311,1.799,6.955,2.742,10.652,2.758h0.109c3.734,0.02,7.423-0.913,10.771-2.724
	c3.373-1.853,6.213-4.688,8.206-8.194"/>
<path fill="#1A90C6" d="M181.963,122.729c-1.992,3.506-4.832,6.342-8.206,8.195c-3.348,1.811-7.036,2.742-10.771,2.723h-0.109
	c-3.697-0.016-7.341-0.959-10.652-2.758c-3.3-1.817-6.201-4.548-8.057-7.939c2.507,2.703,5.488,4.824,8.764,6.234
	c3.184,1.361,6.57,2.067,9.989,2.084c3.468,0.021,6.907-0.672,10.14-2.043C176.279,127.853,179.395,125.49,181.963,122.729z"/>
<path fill="#1A9DD9" d="M143.07,97.487c1.572-4.133,4.52-7.681,8.113-10.057c3.643-2.4,7.818-3.662,12.071-3.646
	c4.254,0.015,8.423,1.306,12.052,3.731c3.576,2.407,6.512,5.979,8.041,10.146c-2.285-3.584-5.332-6.505-8.88-8.512
	c-5.272-2.983-11.354-3.783-17.124-2.25C151.575,88.431,146.505,92.191,143.07,97.487z"/>
<path fill="#1A9DD9" d="M181.947,122.75c-1.868,3.36-4.819,6.029-8.119,7.797c-3.35,1.755-7.014,2.676-10.729,2.695
	c-3.713,0.021-7.387-0.861-10.752-2.58c-3.318-1.729-6.279-4.365-8.199-7.697c2.562,2.619,5.578,4.65,8.869,5.971
	c3.224,1.291,6.631,1.941,10.064,1.92c3.434-0.006,6.838-0.691,10.049-2.021C176.416,127.479,179.415,125.41,181.947,122.75z"/>
</svg>
