<?xml version="1.0" encoding="utf-8"?>
<!DOCTYPE svg PUBLIC "-//W3C//DTD SVG 1.1//EN" "http://www.w3.org/Graphics/SVG/1.1/DTD/svg11.dtd">
<svg version="1.1" xmlns="http://www.w3.org/2000/svg" xmlns:xlink="http://www.w3.org/1999/xlink" x="0px" y="0px" width="216px" height="216px" viewBox="0 0 216 216" enable-background="new 0 0 216 216" xml:space="preserve">
<rect id="blue_rectangle" x="2.455" y="52.025" fill="#014171" stroke="#FFFFFF" width="211.09" height="105.333"/>
<path id="path3028" fill="#FBC51D" d="M188.729,113.326c-0.047,0.375-0.189,1.363-1.477,1.491h-11.299
	c-1.287-0.128-1.521-1.116-1.57-1.491V95.881c0.047-0.376,0.227-1.176,1.512-1.305h11.363c1.287,0.128,1.424,0.928,1.471,1.305
	V113.326L188.729,113.326z M192.641,88.004h-22.17c-3.332,0.269-6.146,1.958-6.521,5.738v21.598
	c0.375,3.779,3.189,5.782,6.521,6.051h22.17c3.332-0.269,6.145-2.271,6.521-6.051V93.742
	C198.785,89.962,195.973,88.272,192.641,88.004 M102.913,94.577h-9.912v-6.573h30.257v6.573h-9.912v26.814h-10.433V94.577z
	 M89.872,94.577v-6.573H62.744v33.387l27.488-0.007l0.01-6.565H73.204l0.001-7.151h16.666v-6.556H73.206v-6.534H89.872
	L89.872,94.577z M150.385,99.751c0,0.722-0.178,1.356-1.477,1.356h-12.086v-6.553h12.102c1.473,0,1.461,0.963,1.461,1.565V99.751z
	 M153.275,108.412c3.256-0.261,6.5-2.476,6.5-6.115v-8.242c-0.377-3.762-3.201-5.793-6.547-6.062h-26.84v33.397h10.434v-12.979
	h4.152l6.781,12.979h11.998l-8.074-12.979H153.275L153.275,108.412z M41.147,121.391l6.99-20.971v20.971h10.433V88.004H44.487
	l-6.782,16.694l-6.782-16.694H16.838v33.387h10.434V100.42l7.042,20.971H41.147"/>
</svg>
