<?xml version="1.0" encoding="utf-8"?>
<!DOCTYPE svg PUBLIC "-//W3C//DTD SVG 1.1//EN" "http://www.w3.org/Graphics/SVG/1.1/DTD/svg11.dtd">
<svg version="1.1" xmlns="http://www.w3.org/2000/svg" xmlns:xlink="http://www.w3.org/1999/xlink" x="0px" y="0px" width="216px" height="216px" viewBox="0 0 216 216" enable-background="new 0 0 216 216" xml:space="preserve">
<g>
	<path fill="#21150B" d="M109.833,214.257c-44.103,0-79.982-35.88-79.982-79.982V2.787h159.963v131.487
		C189.814,178.377,153.935,214.257,109.833,214.257z"/>
	<path fill="#FEDB2E" d="M189.072,3.53v130.744c0,43.762-35.478,79.239-79.239,79.239l0,0c-43.762,0-79.239-35.478-79.239-79.239
		V3.53H189.072 M190.558,2.044h-1.485H30.594h-1.486V3.53v130.744c0,44.513,36.212,80.726,80.725,80.726
		c44.512,0,80.725-36.213,80.725-80.726V3.53V2.044L190.558,2.044z"/>
</g>
<path fill="#FEDB2E" d="M37.757,133.588c0,39.806,32.268,72.075,72.074,72.075l0,0c39.805,0,72.074-32.268,72.074-72.075V88.71
	H37.757V133.588z"/>
<path fill="#FFFFFF" d="M158.481,18.849c-4.084-1.054-9.354-1.187-13.898-0.264c-3.951,0.725-10.341,4.348-12.779,7.113
	c-4.28,4.875-6.915,13.965-6.323,21.936c0.263,3.49,1.925,7.532,8.76,7.773h4.28v-6.785c0-3.688,0.329-8.037,0.726-9.683
	c1.45-6.259,6.125-10.21,12.119-10.145c6.982,0.132,11.527,4.742,12.517,12.844c1.252,9.946-3.754,17.587-11.659,17.785
	c-6.06,0.199-9.354,3.295-8.957,8.366l0.198,2.436l4.611,0.198c9.813,0.461,18.641-2.7,23.119-8.103
	c8.366-10.275,7.773-28.193-1.187-37.216C166.781,21.88,163.686,20.167,158.481,18.849z"/>
<path fill="#FFFFFF" d="M122.254,59.36c-7.575,0-9.485-0.198-10.342-1.054c-0.922-0.855-1.054-3.425-1.054-18.048V23.197
	c0,0-0.039-1.286-1.023-2.276c-1.548-1.556-2.144-2.073-6.762-2.073h-5.388v22.131c0,21.869,0,22.131,1.515,24.373
	c0.791,1.251,2.767,2.898,4.414,3.688c2.767,1.45,3.623,1.516,18.904,1.516h16.007v-3.49
	C138.523,60.414,136.351,59.36,122.254,59.36z"/>
<path fill="#FFFFFF" d="M77.462,38.611l8.167-9.618c4.479-5.334,8.103-9.748,8.103-9.881c0-0.133-3.558-0.264-7.97-0.264h-7.969
	l-7.904,9.354c-4.414,5.205-8.102,9.42-8.233,9.42c-0.133,0-0.198-0.394-0.133-0.856c0.065-0.396,0.065-3.688,0-7.247
	c-0.065-6.258,0.23-6.636-1.615-8.481c-1.778-1.779-2.666-1.86-6.947-1.86h-4.679v25.689v25.754l6.652-0.197l6.652-0.198
	l-0.065-9.156c-0.13-10.012,0.527-12.252,3.491-12.252c2.569,0,4.085,1.844,9.551,11.856l5.204,9.55l7.969,0.198
	c4.349,0.065,7.97-0.065,7.97-0.329c-0.065-0.264-4.15-7.51-9.156-16.006L77.462,38.611z"/>
<path fill="#010101" d="M72.663,117.223c-1.644-1.645-2.829-3.093-2.63-3.157c0.131-0.131,1.119-0.658,2.237-1.186
	c2.369-1.249,2.894-3.223,1.25-4.407c-1.514-1.119-3.223-1.119-4.21,0.066c-0.394,0.527-0.658,1.973-0.526,3.157
	c0.198,1.973,0.065,2.171-2.764,2.96c-1.644,0.459-6.514,1.315-10.855,1.907c-4.343,0.592-8.092,1.185-8.356,1.315
	c-0.329,0.197-0.527,1.381-0.527,2.631c0,1.709,0.592,2.894,2.631,5c1.973,2.105,2.5,2.435,2.171,1.315
	c-0.329-1.448-0.198-1.448,5.789-1.448c10.658,0,11.446,0.921,4.802,5.658c-3.816,2.698-4.539,3.026-5.658,2.302
	c-1.579-0.986-2.369-0.46-1.315,0.79c0.593,0.724,0.395,1.25-0.855,2.435c-2.171,2.039-2.105,3.62,0.329,4.606
	c3.552,1.447,8.092,0.459,15.986-3.486c4.079-2.041,8.356-3.948,9.474-4.145c4.538-0.922,7.5,1.776,9.736,8.948
	c3.158,9.999,11.053,17.105,20.395,18.354c11.184,1.514,22.373-3.919,26.577-14.408c3.531-8.806,1.579-17.105-0.459-21.185
	c-3.619-7.302-10.395-12.367-18.487-13.749c-6.906-1.185-13.09,0.593-19.933,5.658C87.398,124.657,79.768,124.657,72.663,117.223z
	 M56.808,121.764c-1.052,1.25-2.565,1.25-3.028,0c-0.394-0.988,0.724-2.961,1.71-2.961c0.264,0,0.855,0.46,1.315,0.988
	C57.466,120.578,57.466,120.974,56.808,121.764z"/>
<path fill="#010101" d="M129.175,160.182c0,0.264,1.053,1.711,2.302,3.158c4.606,5.46,12.105,8.882,21.185,9.736
	c6.645,0.658,7.565-0.394,1.381-1.448c-7.301-1.185-13.223-3.749-17.17-7.434c-1.909-1.778-3.289-3.289-3.093-3.487
	c0.197-0.198,2.564,0.987,5.264,2.565c6.776,4.014,12.038,5.527,18.685,5.46l5.328-0.066l-6.184-1.249
	c-3.356-0.724-7.896-2.038-10.065-2.895c-4.606-1.843-10.395-5.395-10.395-6.38c0-0.725-0.329-0.856,5.263,1.973
	c2.369,1.185,5.921,2.564,7.896,3.093c4.144,1.118,14.473,1.314,14.473,0.328c0-0.394-1.382-0.658-3.027-0.658
	c-1.645,0-5.066-0.526-7.565-1.119c-5.131-1.185-13.881-5.328-14.277-6.644c-0.197-0.657,0.46-0.527,2.236,0.394
	c4.606,2.371,9.474,3.421,15.33,3.356c7.958-0.065,9.604-0.92,2.697-1.448c-5.657-0.394-15.065-2.958-17.368-4.736
	c-2.104-1.644-0.854-1.709,3.289-0.263c5.131,1.776,11.71,2.302,15.986,1.25c1.843-0.395,3.357-0.987,3.357-1.25
	c0-0.264-1.777-0.33-3.881-0.198c-4.736,0.329-11.843-0.791-15.789-2.565c-3.749-1.645-3.092-2.301,1.315-1.25
	c5.789,1.381,14.935,0.724,17.171-1.249c0.264-0.198-2.828-0.395-6.908-0.395c-8.485,0-11.578-1.052-14.078-4.869
	c-0.921-1.382-1.578-1.842-1.777-1.315c-0.13,0.526-0.592,2.236-1.051,3.88c-1.053,4.145-3.289,7.698-7.171,11.709
	C130.686,158.077,129.175,159.854,129.175,160.182z"/>
<path fill="#010101" d="M100.885,160.577c-2.698-0.855-8.092-5.856-10.592-9.736c-1.381-2.237-2.829-4.474-3.224-4.936
	c-1.184-1.315-3.551-0.921-6.777,1.251c-6.579,4.342-13.617,14.604-14.606,21.314c-0.394,2.434-0.197,2.302,2.302-2.37
	c3.486-6.513,8.158-12.236,12.106-14.935c1.776-1.119,3.486-2.104,3.881-2.104c0.329,0-1.777,2.499-4.737,5.657
	c-5.855,6.052-9.539,12.499-10.329,18.024c-0.395,2.96-0.395,2.96,2.038-1.973c3.027-6.12,7.172-12.038,11.118-15.659
	c4.736-4.341,6.25-3.551,1.644,0.856c-5.329,5.132-9.014,12.172-10.789,20.724c-0.658,3.157,0.459,1.842,1.973-2.303
	c1.644-4.67,6.448-12.302,9.934-15.788c3.421-3.355,5.065-3.948,2.764-0.92c-6.25,8.287-8.356,12.763-8.815,19.012l-0.329,3.62
	l1.973-5.13c1.119-2.829,2.894-6.711,4.079-8.553c2.171-3.62,5.723-7.698,6.71-7.698c0.329,0-0.066,0.987-0.856,2.105
	c-0.79,1.186-2.5,4.343-3.75,6.973c-1.972,4.015-2.434,5.724-2.63,9.868l-0.198,5.064l1.514-5.263
	c0.855-2.895,2.369-6.973,3.421-9.014c1.973-4.078,5.197-8.355,5.855-7.697c0.198,0.197-0.591,2.564-1.842,5.264
	c-2.829,6.118-3.815,10-3.552,13.748l0.198,2.961l0.856-3.486c2.171-9.277,7.105-17.237,10.658-17.237
	C102.596,162.223,102.596,161.103,100.885,160.577z"/>
<g>
	<g>
		<path fill="#21150B" d="M176.577,213.515v-6.524h-2.329v-1.326h6.24v1.326h-2.323v6.524H176.577z"/>
	</g>
	<g>
		<path fill="#21150B" d="M181.489,213.515v-7.851h2.373l1.424,5.357l1.408-5.357h2.378v7.851H187.6v-6.182l-1.559,6.182h-1.526
			l-1.554-6.182v6.182H181.489z"/>
	</g>
</g>
</svg>
