<?xml version="1.0" encoding="utf-8"?>
<!DOCTYPE svg PUBLIC "-//W3C//DTD SVG 1.1//EN" "http://www.w3.org/Graphics/SVG/1.1/DTD/svg11.dtd">
<svg version="1.1" xmlns="http://www.w3.org/2000/svg" xmlns:xlink="http://www.w3.org/1999/xlink" x="0px" y="0px" width="216px" height="216px" viewBox="0 0 216 216" enable-background="new 0 0 216 216" xml:space="preserve">
<g>
	<title>psa</title>
	<g>
		<path fill="#FFFFFF" d="M210.51,135.027l-0.591,2.128l-1.537,1.536l-1.065,0.828l-1.063,0.236l-1.3,0.591H52.7l-1.301-0.591
			l-1.063-0.236l-1.063-0.828l-0.828-0.827l-0.591-0.827l-0.473-2.01V82.661l0.591-2.128l0.591-0.828l0.828-0.827l1.063-0.827
			l1.063-0.591l1.301-0.237h152.253l1.3,0.237l1.065,0.591l1.063,0.827l1.537,1.537l0.591,2.128v52.484H210.51z"/>
		<path fill="#EA2227" d="M205.071,140.938H52.464l-1.301-0.592l-1.182-0.354l-1.064-0.828l-0.945-0.945l-0.591-1.063l-0.709-2.128
			V82.543l0.591-2.364l0.591-0.946l0.827-0.827l1.183-0.945l1.182-0.592l1.419-0.236h152.253l1.536,0.354l1.184,0.592l1.063,0.827
			l1.773,1.773l0.591,2.482v52.484l-0.591,2.246l-1.655,1.654l-1.42,0.946l-1.063,0.236L205.071,140.938z M52.818,139.52h151.898
			l1.182-0.474l1.063-0.236l0.947-0.709l1.419-1.418l0.473-1.892V82.779l-0.473-1.892l-1.537-1.419l-0.947-0.709l-0.945-0.473
			l-1.182-0.236H52.818l-1.183,0.236L50.69,78.76l-1.063,0.709l-0.71,0.71l-0.473,0.591l-0.473,1.892v52.13l0.473,1.892l0.473,0.591
			l0.71,0.709l0.827,0.591l0.945,0.236L52.818,139.52z"/>
	</g>
	<path fill="#EC1C24" d="M97.384,97.674v3.546l-0.236,1.3l-1.064,2.01l-0.828,0.591l-1.063,0.592l-2.601,0.591l-1.536-0.236
		l-1.301-0.236l-0.827-0.592l-1.064-0.591l-1.063-2.128l-0.354-1.3V89.517l0.236-1.063l1.063-1.537l0.828-0.827l1.063-0.591
		l1.3-0.236l1.537-0.236l2.601,0.591l1.063,0.591l0.828,0.827l0.591,0.828l0.592,1.063l0.236,1.064v2.363h-4.256v-1.891
		l-0.236-0.592L92.3,89.28l-1.063-0.591l-1.063,0.591l-0.237,0.236v11.703l0.237,0.827l1.063,0.591l0.827-0.236l0.591-0.236
		l0.237-0.591l0.236-1.063v-2.719h4.256V97.674z"/>
	<path fill="#EC1C24" d="M111.095,90.817v10.402l-0.236,1.3l-0.591,1.064l-1.536,1.536l-1.064,0.592l-1.063,0.236l-1.537,0.236
		l-2.601-0.591l-1.063-0.592l-0.827-0.709l-0.591-0.827l-0.592-1.064l-0.591-2.601v-8.983l0.236-1.301l0.236-1.063l1.064-1.537
		l0.827-0.827l1.063-0.591l2.601-0.591l1.537,0.236l1.3,0.236l0.828,0.591l1.063,0.827l1.063,1.537l0.236,1.063L111.095,90.817z
		 M103.412,90.581v10.048l0.236,0.827l0.236,0.591l1.063,0.591l1.064-0.591l0.591-0.591V89.871l-0.591-0.591l-1.064-0.591
		l-1.063,0.591l-0.236,0.591L103.412,90.581z"/>
	<path fill="#EC1C24" d="M117.479,101.692h2.955V85.616h4.493v16.076h0.827v7.92h-4.257v-3.9h-8.51V85.616h4.491V101.692z"/>
	<rect x="126.936" y="85.616" fill="#EC1C24" width="4.492" height="20.096"/>
	<path fill="#EC1C24" d="M141.712,85.616l4.019,20.096h-4.255l-0.828-4.02h-3.428l-0.591,4.02h-4.256l4.02-20.096H141.712z
		 M140.175,98.028l-1.064-8.748h-0.236l-1.063,8.748H140.175z"/>
	<path fill="#EC1C24" d="M160.271,85.616v20.096h-4.492V89.28h-2.954v6.856l-0.236,4.729l-0.236,1.892l-1.064,2.127l-0.829,0.591
		l-2.127,0.592l-1.063-0.236l-1.301-0.592v-3.31h1.537l0.236-0.236l0.591-0.827V85.498h11.939V85.616z"/>
	<path fill="#EC1C24" d="M166.535,93.182h2.128l1.064,0.236h0.827l1.063,0.591l0.827,0.591l0.591,0.827l0.592,1.064l0.591,1.301
		v3.428l-1.064,2.601l-0.591,0.827l-0.827,0.591l-1.063,0.236l-1.892,0.237h-6.619V85.616h4.491L166.535,93.182z M166.535,101.929
		h1.892l1.064-1.063v-2.601l-0.592-0.827l-0.827-0.592h-1.537V101.929z"/>
	<path fill="#EC1C24" d="M180.366,93.182h2.955v-7.684h4.492v20.096h-4.492v-8.393h-2.955v8.511h-4.492V85.616h4.492V93.182z"/>
	<path fill="#EC1C24" d="M198.098,85.616l4.019,20.096h-4.491l-0.592-4.02h-3.428l-0.591,4.02h-4.492l4.02-20.096H198.098z
		 M196.442,98.028l-1.301-8.748l-1.063,8.748H196.442z"/>
	<path fill="#EC1C24" d="M114.76,112.568l4.02,19.858h-4.256l-0.827-4.019h-3.547l-0.591,4.019h-4.492l4.256-19.858H114.76z
		 M113.224,124.98l-1.301-8.985l-1.064,8.985H113.224z"/>
	<path fill="#EC1C24" d="M131.428,112.568v19.858h-4.492v-16.195h-2.954v16.077h-4.493v-19.74H131.428z"/>
	<path fill="#EC1C24" d="M140.175,132.309h-4.019v-16.077h-3.429v-3.663h10.875v3.663h-3.428V132.309z"/>
	<path fill="#EC1C24" d="M144.666,112.568h10.285v3.663h-5.793v3.901h5.32v3.784h-5.32v4.728h5.793v3.664h-10.285V112.568z"/>
	<path fill="#EC1C24" d="M160.743,120.487l2.956-7.919h5.082l-4.255,8.746l4.255,10.994h-4.728l-2.129-6.855l-1.063,2.363v4.492
		h-4.255v-19.74h4.255L160.743,120.487z"/>
	<path fill="#EC1C24" d="M178.001,112.568l4.021,19.858h-4.257l-0.827-4.019h-3.191l-0.828,4.019h-4.137l4.019-19.858H178.001z
		 M176.347,124.98l-1.063-8.985l-1.301,8.985H176.347z"/>
	<path fill="#EC1C24" d="M68.54,108.785v2.955l-1.063,5.201l-1.064,2.719l-1.063,2.363l-1.537,2.366l-1.536,2.127l-1.892,2.128
		l-1.892,1.892l-2.009,1.418l-4.729,2.601l-5.318,1.655l-5.792,0.591l-2.956-0.236l-2.601-0.354l-5.319-1.537l-4.728-2.601
		l-2.129-1.536l-2.127-1.892l-1.892-2.01l-1.537-2.245l-1.3-2.366l-1.064-2.363l-1.063-2.719l-0.827-2.601l-0.354-2.719
		l-0.236-2.955l0.591-5.792l0.827-2.601l1.063-2.246l1.064-2.602l1.418-2.245l1.537-2.364l1.892-1.892l2.127-1.892l2.129-1.536
		l4.728-2.601l5.319-1.537l2.601-0.591h5.675l2.955,0.591l5.318,1.537l4.729,2.601l2.127,1.536l3.665,3.665l1.536,2.364l1.537,2.127
		l1.063,2.838l1.064,2.364l0.591,2.601l0.473,2.837V108.785z"/>
	<path fill="#FFFFFF" d="M40.525,143.42l-3.429-0.236l-3.428-0.591l-3.429-0.827l-3.191-1.301l-2.955-1.301l-2.837-1.772
		l-2.601-1.891l-4.729-4.729l-1.892-2.602l-1.892-2.954l-1.3-2.957l-1.301-3.19l-0.827-3.429l-0.591-3.546l-0.236-3.428l0.236-3.665
		l0.591-3.191l0.827-3.428l1.301-3.192l1.3-2.955l1.892-2.955l1.892-2.601l2.364-2.601l2.364-2.127l2.601-2.129l5.792-3.191
		l3.191-1.063l3.429-0.827l3.428-0.592l3.429-0.236l3.664,0.236l3.428,0.592l3.191,0.827l3.192,1.063l3.191,1.537l2.601,1.536
		l5.319,4.256l4.256,5.319l3.191,5.792l1.063,3.192l0.828,3.428l0.591,3.191l0.236,3.665l-0.236,3.428l-0.591,3.428l-0.828,3.429
		l-1.063,3.19l-3.191,5.793l-2.129,2.602l-2.127,2.363l-2.601,2.364l-5.319,3.782l-6.266,2.602l-3.191,0.827l-3.428,0.591
		L40.525,143.42z"/>
	<path fill="#EC1C24" d="M40.525,144.247l-3.429-0.236l-3.664-0.591l-3.192-0.827l-3.428-1.3l-5.792-3.074l-2.955-2.127
		l-4.729-4.729l-2.128-2.601l-1.537-2.955l-1.654-3.191l-1.064-3.192l-1.063-3.429l-0.473-3.427v-7.448l0.591-3.428l1.063-3.428
		l1.064-3.192l1.536-3.191l1.537-2.955l2.128-2.601l2.482-2.719l2.364-2.127l2.837-2.011l2.837-1.891l2.955-1.301l3.428-1.3
		l3.192-0.828l3.664-0.591l3.429-0.236l3.664,0.236l3.428,0.591l3.428,0.828l6.266,2.601l2.955,1.891l5.319,4.256l4.256,5.319
		l1.892,2.955l2.6,6.266l0.828,3.428l0.591,3.428l0.236,3.665l-0.354,3.783l-0.591,3.427l-0.828,3.429l-2.6,6.266l-1.892,2.955
		l-2.01,2.719l-2.128,2.363l-2.601,2.365l-2.601,2.127l-2.955,1.537l-3.191,1.537l-3.192,1.3l-3.428,0.827l-3.428,0.591
		L40.525,144.247z M40.525,74.978h-3.429l-3.191,0.591l-3.429,0.945l-3.191,1.064l-2.955,1.3l-5.319,3.665l-2.364,2.128
		l-2.128,2.363l-2.127,2.601l-3.192,5.792l-1.063,3.192l-0.828,3.191l-0.591,3.428l-0.236,3.429l0.236,3.546l0.591,3.428
		l0.828,3.192l1.063,3.19l1.536,2.957l1.538,2.6l2.127,2.602l2.128,2.363l2.364,2.364l2.601,1.892l2.601,1.536l2.955,1.537
		l3.428,1.064l3.429,0.827l3.191,0.591l3.429,0.236l3.428-0.236l3.428-0.591l3.191-0.827l3.192-1.064l5.792-3.191l2.601-1.892
		l2.482-2.364l2.127-2.363l3.665-5.319l1.301-2.957l1.3-3.19l0.827-3.192l0.592-3.428v-6.856l-0.592-3.191l-0.827-3.073l-1.3-3.191
		l-1.301-2.956l-1.892-2.955l-1.892-2.6l-2.127-2.364l-2.364-2.128l-2.601-1.892l-2.837-1.773l-2.955-1.418l-6.266-2.128
		l-3.428-0.591h-3.546V74.978z"/>
	<path fill="#EC1C24" d="M33.669,129.945h-2.128l-4.02-0.828l-1.063-0.827l-0.709-0.946l-0.236-1.3l0.236-1.3l0.827-1.301
		l1.063-0.827l1.064-0.593l1.3-0.591l1.301-0.236l2.364-0.236h1.891V99.092l-2.719,0.946l-1.063,0.236h-2.01l-2.128-0.592
		l-0.827-0.827l-1.063-1.892v-1.892l0.591-1.063l1.063-0.827l1.301-1.064l4.373-2.127l4.729-2.956l1.537-0.591l1.892-0.591
		l3.191-0.591l1.3,0.236l0.828,0.236l0.827,0.591l0.591,0.236l0.591,1.301l0.236,1.063l-0.591,9.221l-0.236,6.855v15.604h1.892
		l2.364,0.236l1.064,0.236l1.536,1.063l1.063,1.538v2.128l-1.063,2.127l-1.536,1.064l-1.064,0.236l-2.364,0.236L33.669,129.945z"/>
</g>
</svg>
