<?xml version="1.0" encoding="utf-8"?>
<!DOCTYPE svg PUBLIC "-//W3C//DTD SVG 1.1//EN" "http://www.w3.org/Graphics/SVG/1.1/DTD/svg11.dtd">
<svg version="1.1" xmlns="http://www.w3.org/2000/svg" xmlns:xlink="http://www.w3.org/1999/xlink" x="0px" y="0px" width="216px" height="216px" viewBox="0 0 216 216" enable-background="new 0 0 216 216" xml:space="preserve">
<g>
	<path fill="#97C14D" d="M6.008,145.366c8.604-1.229,15.886-4.541,24.301-0.568c1.513,0.756,2.837-1.513,1.324-2.269
		c-4.161-1.986-8.227-2.837-12.86-2.365c-4.539,0.474-8.983,1.986-13.427,2.647C3.644,143.096,4.399,145.648,6.008,145.366"/>
	<rect x="4.399" y="74.541" fill="none" width="209.162" height="70.825"/>
	<path fill="#2B4770" d="M55.366,93.831l7.659,18.723h2.554v7.659h-4.256v-4.066H45.722v4.066h-4.255v-7.659h2.553l7.187-18.723
		H55.366z M48.369,112.554h10.212l-5.295-13.711L48.369,112.554z"/>
	<path fill="#2B4770" d="M77.304,93.453c2.27,0,4.35,0.473,6.241,1.418c1.891,0.945,3.31,2.364,4.444,4.161
		c1.134,1.796,1.607,3.782,1.607,5.862s-0.567,4.066-1.607,5.768c-1.04,1.797-2.554,3.215-4.444,4.161
		c-1.892,0.944-3.972,1.513-6.336,1.513c-2.269,0-4.444-0.473-6.335-1.513c-1.891-1.041-3.404-2.364-4.444-4.161
		c-1.04-1.796-1.607-3.688-1.607-5.768s0.567-3.972,1.607-5.769c1.04-1.796,2.554-3.215,4.35-4.16
		C72.765,94.021,74.94,93.453,77.304,93.453 M69.455,104.988c0,1.514,0.379,2.837,1.041,3.973c0.662,1.229,1.607,2.079,2.836,2.741
		c1.229,0.662,2.554,0.946,4.066,0.946c2.27,0,4.161-0.758,5.674-2.176c1.513-1.419,2.175-3.309,2.175-5.578
		c0-1.513-0.379-2.837-1.04-3.972c-0.662-1.229-1.608-2.08-2.837-2.742c-1.229-0.662-2.554-0.945-4.066-0.945
		s-2.836,0.283-4.066,0.945c-1.229,0.662-2.174,1.607-2.741,2.742C69.739,102.152,69.455,103.476,69.455,104.988"/>
	<path fill="#2B4770" d="M107.185,93.831v3.404H96.026v5.295h4.634c1.607,0,3.025,0.284,4.35,0.852
		c1.229,0.566,2.175,1.418,2.931,2.363c0.662,1.04,1.041,2.175,1.041,3.498c0,2.081-0.757,3.783-2.176,5.013
		c-1.513,1.229-3.403,1.891-5.768,1.891h-9.173V93.831H107.185z M100.188,112.743c1.229,0,2.269-0.284,3.025-0.945
		c0.756-0.663,1.135-1.514,1.135-2.555c0-1.039-0.379-1.891-1.135-2.458c-0.757-0.566-1.797-0.945-3.215-0.945h-4.066v6.903H100.188
		z"/>
	<path fill="#2B4770" d="M119.288,93.831c2.08,0,3.781,0.567,5.105,1.797s1.985,2.741,1.985,4.633s-0.661,3.499-1.985,4.729
		s-3.025,1.796-5.2,1.796h-4.161v9.361h-4.35V93.831H119.288z M118.153,103.382c1.135,0,2.08-0.284,2.647-0.757
		c0.661-0.567,0.945-1.324,0.945-2.364c0-2.08-1.324-3.12-3.972-3.12h-2.931v6.241H118.153z"/>
	<path fill="#2B4770" d="M139.901,93.453c2.27,0,4.35,0.473,6.241,1.418s3.31,2.364,4.443,4.161
		c1.136,1.796,1.607,3.782,1.607,5.862s-0.567,4.066-1.607,5.768c-1.04,1.797-2.552,3.215-4.443,4.161
		c-1.892,0.944-3.972,1.513-6.336,1.513c-2.27,0-4.444-0.473-6.336-1.513c-1.891-1.041-3.403-2.364-4.444-4.161
		c-1.04-1.796-1.606-3.688-1.606-5.768s0.566-3.972,1.606-5.769c1.041-1.796,2.554-3.215,4.351-4.16
		C135.362,94.021,137.443,93.453,139.901,93.453 M131.959,104.988c0,1.514,0.378,2.837,1.04,3.973
		c0.661,1.229,1.607,2.079,2.837,2.741c1.229,0.662,2.552,0.946,4.065,0.946c2.27,0,4.16-0.758,5.673-2.176
		c1.514-1.419,2.175-3.309,2.175-5.578c0-1.513-0.378-2.837-1.04-3.972c-0.661-1.229-1.607-2.08-2.837-2.742
		s-2.552-0.945-4.065-0.945c-1.513,0-2.837,0.283-4.066,0.945s-2.174,1.607-2.741,2.742
		C132.337,102.152,131.959,103.476,131.959,104.988"/>
	<path fill="#2B4770" d="M169.119,93.831v3.404h-11.157v5.295h4.633c1.607,0,3.026,0.284,4.35,0.852
		c1.229,0.566,2.175,1.418,2.932,2.363c0.662,1.04,1.04,2.175,1.04,3.498c0,2.081-0.757,3.783-2.175,5.013
		c-1.513,1.229-3.403,1.891-5.768,1.891h-9.172V93.831H169.119z M162.028,112.743c1.229,0,2.269-0.284,3.024-0.945
		c0.758-0.663,1.136-1.514,1.136-2.555c0-1.039-0.378-1.891-1.136-2.458c-0.756-0.566-1.796-0.945-3.214-0.945h-4.066v6.903H162.028
		z"/>
	<path fill="#2B4770" d="M174.793,93.831l7.564,12.86l6.052-12.86h4.445l-8.321,17.115c0,0-1.703,3.593-2.743,4.633
		c-1.04,0.945-2.458,1.514-4.065,1.514c-1.324,0-2.364-0.284-3.311-0.757v-3.782c1.04,0.662,1.986,1.041,3.121,1.041
		c0.662,0,1.229-0.189,1.797-0.568c0.567-0.378,0.851-0.946,1.04-1.607l-10.023-17.588H174.793z"/>
	<rect x="4.399" y="74.541" fill="none" width="209.162" height="70.825"/>
	<polygon fill="#2B4770" points="213.278,93.831 213.278,97.141 205.43,97.141 205.43,116.146 201.08,116.146 201.08,97.141 
		193.137,97.141 193.137,93.831 	"/>
	<path fill="#CD3828" d="M20.853,76.621c-0.378,0.567-0.757,1.136-1.135,1.797c-0.188,0.284-0.378,0.473-0.473,0.757
		c-0.095,0.094-0.095,0.188-0.188,0.188c0,0,0,0-0.095,0.095c-1.324-1.418-3.31-2.08-5.296-1.04
		c-1.891,1.04-3.215,3.972-1.796,5.863c2.363,3.403,5.862,5.768,10.023,3.782c2.836-1.324,4.728-4.066,6.335-6.619
		C31.16,76.526,23.784,71.799,20.853,76.621 M19.718,80.215c0.095,0,0.095,0,0.095,0C20.285,80.498,20.002,80.498,19.718,80.215"/>
	<rect x="4.399" y="74.541" fill="none" width="209.162" height="70.825"/>
	<path fill="#2B4770" d="M23.122,118.038c-0.662-4.729-0.095-8.132,1.797-12.387c1.702-3.878,3.12-7.565,2.837-11.82
		c-0.189-2.364-3.972-2.553-3.782-0.188c0.283,3.593-0.852,6.808-2.27,9.928c-0.567-0.188-1.229-0.095-1.797,0.378
		c-0.757,0.662-1.229,0.473-1.891-0.283c-0.568-0.662-1.136-0.756-1.797-0.567c-1.04-3.12-1.892-6.24-1.324-9.645
		c0.379-2.459-3.404-2.554-3.782-0.189c-1.229,7.376,4.161,13.711,3.31,20.897c-0.567,4.443-0.283,8.888-0.757,13.333
		c-0.473,4.159-1.418,7.848-1.418,12.009c0,2.458,3.782,2.647,3.782,0.189c0-3.783,0.662-7.093,1.324-10.78
		c0.094-0.757,0.188-1.513,0.283-2.364c0.946-0.094,1.797-0.283,2.647-0.662c0.095,0.758,0.189,1.608,0.284,2.365
		c0.473,3.877,2.269,7.279,2.08,11.252c-0.095,2.458,3.688,2.647,3.782,0.189c0.189-3.405-0.945-6.714-1.702-10.024
		C23.784,125.98,23.595,121.915,23.122,118.038"/>
	<path fill="#2B4770" d="M19.529,102.152c0.566-0.095,1.229-0.662,1.418-1.229c0.284-1.702,0.379-3.31,0.189-4.917
		c-0.189-1.135-1.419-1.797-2.364-1.513c-0.945,0.188-1.418,1.04-1.418,1.892c-0.474,0.283-0.946,0.756-0.946,1.512
		c-0.095,1.419,0.095,2.743,1.229,3.688C18.205,101.963,18.772,102.247,19.529,102.152"/>
	<path fill="#2B4770" d="M43.074,133.168v-1.229c0.473,0,0.851,0,1.135,0c0.283,0,0.566-0.096,0.851-0.189
		c0.189-0.096,0.378-0.189,0.473-0.284c0.095-0.094,0.189-0.283,0.189-0.566c0-0.285-0.189-0.474-0.473-0.663
		c-0.284-0.188-0.662-0.188-1.229-0.188c-0.473,0-0.945,0.095-1.324,0.188c-0.378,0.096-0.756,0.284-1.04,0.474v-1.324
		c0.095-0.094,0.284-0.189,0.567-0.283c0.189-0.096,0.473-0.189,0.662-0.284c0.284-0.095,0.473-0.095,0.757-0.189
		c0.283,0,0.473-0.094,0.661-0.094c0.379,0,0.852,0,1.229,0.094c0.379,0.095,0.662,0.189,0.946,0.378
		c0.283,0.189,0.473,0.379,0.661,0.662c0.189,0.284,0.284,0.567,0.284,0.852c0,0.473-0.095,0.852-0.378,1.229
		c-0.284,0.283-0.662,0.567-1.135,0.661c0.188,0,0.473,0.095,0.662,0.189c0.188,0.095,0.378,0.283,0.566,0.379
		c0.189,0.189,0.284,0.378,0.379,0.567c0.094,0.188,0.188,0.473,0.188,0.755c0,0.475-0.095,0.852-0.283,1.136
		c-0.189,0.283-0.473,0.568-0.757,0.757c-0.283,0.188-0.662,0.283-1.135,0.378c-0.378,0.095-0.851,0.095-1.229,0.095
		c-0.188,0-0.378,0-0.566,0c-0.284,0-0.473-0.095-0.757-0.095c-0.284-0.095-0.473-0.095-0.757-0.189
		c-0.283-0.095-0.378-0.188-0.567-0.377v-1.515c0.189,0.096,0.378,0.285,0.567,0.379c0.189,0.095,0.379,0.189,0.662,0.283
		c0.189,0.095,0.473,0.095,0.662,0.189c0.189,0,0.378,0.095,0.567,0.095c0.661,0,1.135-0.095,1.513-0.284
		c0.378-0.188,0.567-0.473,0.567-0.852c0-0.188-0.095-0.377-0.189-0.472c-0.094-0.095-0.283-0.283-0.473-0.379
		c-0.189-0.094-0.378-0.188-0.567-0.188s-0.473-0.094-0.662-0.094H43.074z"/>
	<path fill="#2B4770" d="M61.607,138.367h-1.513v-1.796h-5.296v1.796h-1.513v-3.215h0.662l3.215-6.618h0.851l2.932,6.618h0.662
		V138.367z M59.338,135.152l-1.892-4.16l-1.891,4.16H59.338z"/>
	<path fill="#2B4770" d="M70.779,128.534c0.662,0,1.229,0.094,1.702,0.283c0.567,0.188,0.945,0.474,1.324,0.851
		c0.378,0.379,0.662,0.757,0.851,1.23c0.189,0.473,0.284,1.04,0.284,1.606c0,0.663-0.095,1.229-0.284,1.703
		c-0.188,0.472-0.473,0.944-0.851,1.322c-0.379,0.379-0.852,0.663-1.324,0.852c-0.567,0.189-1.135,0.284-1.702,0.284
		s-1.135-0.095-1.702-0.284c-0.473-0.188-0.945-0.473-1.323-0.852c-0.379-0.378-0.662-0.851-0.852-1.322
		c-0.189-0.474-0.283-1.04-0.283-1.703c0-0.566,0.094-1.134,0.283-1.606c0.189-0.474,0.473-0.946,0.852-1.325
		c0.378-0.378,0.851-0.661,1.323-0.851C69.645,128.628,70.212,128.534,70.779,128.534 M70.779,129.952
		c-0.378,0-0.662,0.095-1.04,0.189c-0.284,0.094-0.567,0.283-0.851,0.567c-0.189,0.189-0.378,0.473-0.567,0.851
		c-0.095,0.283-0.189,0.662-0.189,1.04c0,0.379,0.095,0.757,0.189,1.135c0.095,0.379,0.283,0.662,0.567,0.852
		c0.188,0.283,0.473,0.473,0.851,0.566c0.283,0.095,0.662,0.189,1.04,0.189c0.379,0,0.757-0.095,1.135-0.189
		c0.284-0.094,0.567-0.283,0.851-0.566c0.189-0.285,0.379-0.567,0.567-0.852c0.095-0.378,0.189-0.756,0.189-1.135
		c0-0.378-0.095-0.757-0.189-1.04s-0.283-0.567-0.567-0.851c-0.283-0.189-0.566-0.378-0.851-0.567
		C71.536,130.047,71.158,129.952,70.779,129.952"/>
	<path fill="#2B4770" d="M83.45,128.723c1.418,0,2.553,0.379,3.31,1.04c0.757,0.662,1.135,1.702,1.135,2.932
		c0,0.567-0.095,1.135-0.283,1.606c-0.189,0.475-0.474,0.946-0.852,1.325s-0.757,0.661-1.229,0.851s-1.04,0.284-1.607,0.284
		c-0.283,0-0.473,0-0.757-0.095c-0.283-0.095-0.567-0.189-0.851-0.284v4.256h-1.607v-11.915H83.45z M82.315,130.142v4.917
		c0.473,0.188,0.945,0.378,1.513,0.378c0.379,0,0.662-0.095,1.04-0.189c0.284-0.095,0.567-0.283,0.757-0.567
		c0.188-0.283,0.378-0.472,0.567-0.851c0.095-0.283,0.189-0.661,0.189-1.04s-0.095-0.757-0.189-1.136
		c-0.095-0.282-0.284-0.566-0.567-0.851c-0.189-0.189-0.473-0.378-0.851-0.472c-0.284-0.096-0.662-0.189-1.04-0.189H82.315z"/>
	<path fill="#2B4770" d="M97.539,128.534c0.662,0,1.229,0.094,1.702,0.283c0.567,0.188,0.946,0.474,1.324,0.851
		c0.378,0.379,0.661,0.757,0.851,1.23c0.189,0.473,0.284,1.04,0.284,1.606c0,0.663-0.095,1.229-0.284,1.703
		c-0.189,0.472-0.473,0.944-0.851,1.322c-0.378,0.379-0.851,0.663-1.324,0.852c-0.567,0.189-1.135,0.284-1.702,0.284
		s-1.134-0.095-1.702-0.284c-0.473-0.188-0.945-0.473-1.323-0.852c-0.378-0.378-0.662-0.851-0.851-1.322
		c-0.189-0.474-0.284-1.04-0.284-1.703c0-0.566,0.095-1.134,0.284-1.606c0.188-0.474,0.473-0.946,0.851-1.325
		c0.378-0.378,0.851-0.661,1.323-0.851C96.405,128.628,96.878,128.534,97.539,128.534 M97.444,129.952
		c-0.378,0-0.661,0.095-1.039,0.189c-0.284,0.094-0.568,0.283-0.852,0.567c-0.189,0.189-0.379,0.473-0.567,0.851
		c-0.095,0.283-0.189,0.662-0.189,1.04c0,0.379,0.095,0.757,0.189,1.135c0.095,0.379,0.283,0.662,0.567,0.852
		c0.188,0.283,0.473,0.473,0.852,0.566c0.283,0.095,0.661,0.189,1.039,0.189c0.379,0,0.757-0.095,1.135-0.189
		c0.379-0.094,0.567-0.283,0.852-0.566c0.189-0.285,0.378-0.567,0.567-0.852c0.095-0.378,0.189-0.756,0.189-1.135
		c0-0.378-0.095-0.757-0.189-1.04s-0.283-0.567-0.567-0.851c-0.189-0.189-0.567-0.378-0.852-0.567
		C98.201,130.047,97.917,129.952,97.444,129.952"/>
	<path fill="#2B4770" d="M107.657,136.571v-7.849h3.025c0.473,0,0.852,0.095,1.136,0.189c0.378,0.094,0.661,0.283,0.851,0.473
		c0.283,0.188,0.378,0.378,0.567,0.662c0.094,0.284,0.189,0.566,0.189,0.852c0,0.188,0,0.473-0.096,0.661
		c-0.094,0.189-0.189,0.379-0.283,0.473c-0.095,0.189-0.189,0.284-0.378,0.378c-0.095,0.095-0.284,0.189-0.379,0.284
		c0.189,0.095,0.379,0.188,0.474,0.284c0.188,0.094,0.283,0.189,0.473,0.378c0.094,0.189,0.189,0.283,0.283,0.473
		c0.096,0.189,0.096,0.379,0.096,0.661c0,0.285-0.096,0.568-0.096,0.852c-0.094,0.284-0.283,0.474-0.473,0.663
		c-0.189,0.188-0.473,0.377-0.851,0.472s-0.757,0.189-1.229,0.189h-3.31V136.571z M109.264,130.142v1.986h1.136
		c0.473,0,0.756-0.096,1.04-0.285c0.283-0.189,0.379-0.472,0.379-0.851c0-0.189,0-0.283-0.096-0.379
		c-0.094-0.094-0.188-0.188-0.378-0.282c-0.095-0.096-0.284-0.096-0.473-0.189c-0.189,0-0.283,0-0.473,0H109.264z M109.264,133.168
		v1.984h1.419c0.189,0,0.378,0,0.567-0.094c0.189,0,0.284-0.095,0.473-0.189c0.096-0.094,0.188-0.189,0.284-0.283
		c0.094-0.096,0.094-0.285,0.094-0.473c0-0.189,0-0.284-0.094-0.474c-0.096-0.094-0.188-0.189-0.378-0.283
		c-0.189-0.095-0.379-0.188-0.568-0.188c-0.188,0-0.472-0.096-0.756-0.096h-1.041V133.168z"/>
	<path fill="#2B4770" d="M119.004,128.817v-0.378c0.284-0.284,0.473-0.474,0.567-0.756c0.094-0.284,0.189-0.568,0.189-1.04
		c-0.567-0.189-0.946-0.568-0.946-1.136c0-0.283,0.096-0.568,0.284-0.851c0.189-0.189,0.473-0.379,0.756-0.379
		c0.379,0,0.662,0.189,0.852,0.474c0.189,0.283,0.378,0.662,0.378,1.229c0,0.663-0.188,1.229-0.567,1.703
		C120.14,128.251,119.665,128.628,119.004,128.817"/>
	<path fill="#2B4770" d="M126.664,134.869c0.188-0.283,0.472-0.661,0.661-0.851c0.283-0.284,0.472-0.473,0.851-0.568
		c-0.283-0.094-0.472-0.188-0.756-0.378c-0.189-0.094-0.379-0.283-0.567-0.473s-0.284-0.378-0.378-0.661
		c-0.096-0.189-0.096-0.474-0.096-0.852s0.096-0.756,0.285-1.04c0.188-0.284,0.377-0.566,0.756-0.756
		c0.284-0.189,0.662-0.379,1.04-0.474s0.756-0.189,1.134-0.189h2.932v7.849h-1.606v-2.837h-0.474c-0.188,0-0.378,0-0.567,0.095
		c-0.189,0-0.377,0.095-0.566,0.189s-0.379,0.189-0.474,0.377c-0.189,0.189-0.283,0.379-0.473,0.568l-1.04,1.607h-1.797
		L126.664,134.869z M130.919,132.505v-2.363h-1.418c-0.475,0-0.853,0.094-1.136,0.283c-0.283,0.188-0.379,0.474-0.379,0.852
		c0,0.188,0,0.283,0.096,0.473c0.094,0.189,0.094,0.283,0.283,0.379c0.095,0.094,0.283,0.188,0.473,0.282
		c0.188,0.095,0.474,0.095,0.756,0.095H130.919L130.919,132.505z"/>
	<path fill="#2B4770" d="M151.153,131.938c0.379,0,0.662-0.096,0.851-0.285c0.284-0.188,0.474-0.472,0.663-0.851l0.473-0.851
		c0.094-0.284,0.283-0.472,0.378-0.567c0.095-0.189,0.284-0.283,0.378-0.379c0.189-0.094,0.284-0.188,0.474-0.188
		s0.379-0.095,0.566-0.095h0.379v1.419h-0.379c-0.188,0-0.283,0.094-0.473,0.189c-0.094,0.094-0.189,0.188-0.283,0.378l-0.378,0.756
		c-0.095,0.188-0.189,0.284-0.284,0.474c-0.095,0.094-0.188,0.189-0.284,0.283c-0.094,0.095-0.189,0.188-0.283,0.188
		c-0.095,0.095-0.283,0.095-0.378,0.189c0.189,0.095,0.378,0.095,0.567,0.189c0.189,0.094,0.283,0.189,0.473,0.379
		c0.189,0.188,0.283,0.282,0.473,0.566c0.188,0.189,0.284,0.474,0.474,0.756l1.229,2.271h-1.797l-1.04-2.175
		c-0.283-0.473-0.567-0.852-0.851-1.04c-0.284-0.189-0.662-0.284-0.946-0.284h-0.188v3.499h-1.608v-7.849h1.608v3.216h0.188V131.938
		z"/>
	<path fill="#2B4770" d="M164.014,128.723c1.418,0,2.554,0.379,3.31,1.04c0.756,0.662,1.135,1.702,1.135,2.932
		c0,0.567-0.095,1.135-0.284,1.606c-0.188,0.475-0.473,0.946-0.851,1.325c-0.379,0.379-0.756,0.661-1.23,0.851
		c-0.472,0.189-1.04,0.284-1.606,0.284c-0.284,0-0.473,0-0.756-0.095c-0.285-0.095-0.568-0.189-0.852-0.284v4.256h-1.514v-11.915
		H164.014z M162.879,130.142v4.917c0.473,0.188,0.945,0.378,1.513,0.378c0.379,0,0.661-0.095,1.04-0.189
		c0.284-0.095,0.567-0.283,0.757-0.567c0.189-0.189,0.379-0.472,0.568-0.851c0.094-0.283,0.188-0.661,0.188-1.04
		s-0.094-0.757-0.188-1.136c-0.096-0.282-0.285-0.566-0.568-0.851c-0.189-0.189-0.473-0.378-0.851-0.472
		c-0.285-0.096-0.662-0.189-1.041-0.189H162.879z"/>
	<path fill="#2B4770" d="M177.819,131.843v-0.378c0-0.473-0.095-0.852-0.379-1.04c-0.189-0.189-0.567-0.283-1.04-0.283
		c-0.472,0-0.851,0.094-1.323,0.283c-0.378,0.188-0.852,0.567-1.229,0.946v-1.703c0.566-0.756,1.513-1.04,2.647-1.04
		c0.378,0,0.756,0.095,1.135,0.189s0.661,0.284,0.946,0.474c0.283,0.189,0.472,0.472,0.566,0.851
		c0.189,0.283,0.189,0.757,0.189,1.135v4.065c0,0.188,0,0.284,0.095,0.284c0.094,0.094,0.094,0.094,0.189,0.094
		c0.094,0,0.189,0,0.378-0.094c0.188-0.096,0.283-0.189,0.473-0.284v0.945c-0.189,0.095-0.379,0.189-0.473,0.284
		c-0.095,0.095-0.284,0.095-0.378,0.189c-0.096,0.095-0.189,0.095-0.284,0.095s-0.189,0-0.378,0c-0.378,0-0.567-0.095-0.757-0.189
		c-0.188-0.095-0.283-0.284-0.378-0.661c-0.379,0.282-0.662,0.472-1.04,0.566c-0.379,0.095-0.757,0.189-1.04,0.189
		c-0.285,0-0.567-0.095-0.757-0.189c-0.283-0.095-0.473-0.284-0.568-0.378c-0.188-0.188-0.282-0.378-0.377-0.567
		s-0.095-0.474-0.095-0.757c0-0.379,0.095-0.661,0.189-0.945c0.094-0.284,0.282-0.474,0.567-0.662
		c0.188-0.189,0.473-0.379,0.851-0.473c0.283-0.189,0.661-0.284,1.134-0.473L177.819,131.843z M177.819,132.694
		c-0.379,0.095-0.662,0.188-0.946,0.378c-0.283,0.096-0.567,0.284-0.756,0.378c-0.188,0.189-0.378,0.284-0.567,0.474
		c-0.096,0.189-0.189,0.377-0.189,0.662c0,0.189,0,0.283,0.094,0.473c0.096,0.094,0.096,0.283,0.189,0.378
		c0.096,0.094,0.189,0.189,0.379,0.189c0.095,0.094,0.283,0.094,0.473,0.094c0.284,0,0.474-0.094,0.662-0.189
		c0.189-0.094,0.473-0.283,0.662-0.472V132.694L177.819,132.694z"/>
	<path fill="#2B4770" d="M185.667,126.265c0.189,0,0.378,0.094,0.567,0.189c0.189,0.189,0.189,0.378,0.189,0.566
		c0,0.189-0.094,0.379-0.189,0.567c-0.189,0.188-0.378,0.284-0.567,0.284c-0.188,0-0.377-0.096-0.566-0.284
		s-0.285-0.378-0.285-0.567c0-0.188,0.096-0.377,0.285-0.566C185.194,126.358,185.384,126.265,185.667,126.265 M187.652,136.571
		h-1.512v-7.849h1.607v7.849H187.652z M188.221,126.265c0.188,0,0.378,0.094,0.567,0.189c0.189,0.189,0.189,0.378,0.189,0.566
		c0,0.189-0.096,0.379-0.189,0.567c-0.189,0.188-0.379,0.284-0.567,0.284c-0.283,0-0.473-0.096-0.568-0.284
		c-0.189-0.188-0.189-0.378-0.189-0.567c0-0.188,0.096-0.377,0.189-0.566C187.748,126.358,187.938,126.265,188.221,126.265"/>
	<polygon fill="#2B4770" points="200.797,128.723 200.797,136.571 199.283,136.571 199.283,133.262 195.406,133.262 
		195.406,136.571 193.8,136.571 193.8,128.723 195.406,128.723 195.406,131.843 199.283,131.843 199.283,128.723 	"/>
	<polygon fill="#2B4770" points="211.954,131.56 207.415,136.761 206.564,136.761 206.564,128.723 208.172,128.723 208.172,134.113 
		212.71,128.723 213.562,128.723 213.562,136.571 211.954,136.571 	"/>
</g>
</svg>
