<?xml version="1.0" encoding="utf-8"?>
<!DOCTYPE svg PUBLIC "-//W3C//DTD SVG 1.1//EN" "http://www.w3.org/Graphics/SVG/1.1/DTD/svg11.dtd">
<svg version="1.1" xmlns="http://www.w3.org/2000/svg" xmlns:xlink="http://www.w3.org/1999/xlink" x="0px" y="0px" width="216px" height="216px" viewBox="0 0 216 216" enable-background="new 0 0 216 216" xml:space="preserve">
<path fill="#72BF44" d="M50.18,56.087c-12.667-6.727-26.55-2.373-26.55-2.373s2.026,11.022,15.25,16.533
	c14.053,5.858,28.756,3.842,28.756,3.842S63.428,63.116,50.18,56.087z"/>
<path fill="#F58220" d="M74.699,128.375c-4.456,4.858-10.149,8.411-16.47,10.28c-10.368,3.129-20.16,0.703-25.383-4.848
	c-2.509-2.49-4.094-5.761-4.496-9.273c19.706,2.758,40.276,0.512,49.063-9.611c5.77-6.605,7.166-17.236,0.6-26.023
	c-5.73-7.645-18.973-12.745-34.711-11.154C22.654,79.845,4.104,93.933,3.07,116.675C2.005,139.92,20.516,157.19,45.86,157.19
	c16.226,0,29.664-5.453,36.415-12.408c0-0.063-0.044-0.142-0.068-0.211c-2.125-5.559-4.634-10.965-7.508-16.176V128.375
	L74.699,128.375z M41.559,94.518L41.559,94.518c6.8-2.543,16.167-2.25,18.11,3.827c1.645,5.121-3.114,10.905-13.067,12.624
	c-5.102,0.883-12.409,1.054-18.447-0.488c0.439-3.861,3.681-12.321,13.404-15.958V94.518z"/>
<path fill="#72BF44" d="M126.555,79.688l-21.299,51.703c-2.807-8.137-8.888-20.22-16.108-30.299
	c-1.786,7.132-5.16,15.532-10.559,22.733c5.326,7.844,10.876,20.945,13.961,31.353h24.528l33.35-75.49H126.555z"/>
<path fill="#72BF44" d="M202,85.595c-7.469-5.932-15.728-7.811-24.183-8.123c-7.135-0.184-14.257,0.728-21.117,2.704l-8.478,19.526
	c0.082,0.086,0.17,0.168,0.264,0.244c8.474-5.37,18.968-6.966,27.461-5.785c8.973,1.25,13.182,7.245,13.182,13.097
	c-12.15-1.757-25.179-1.319-35.278,1.61c-15.244,4.394-20.966,16.597-19.463,27.922c1.42,10.655,11.521,20.398,29.083,20.398
	c12.691,0,23.153-8.576,26.155-14.155v12.105l23.152-0.034v-43.591C212.779,98.389,208.707,90.92,202,85.595z M175.255,136.99
	c-6.799,2.544-16.166,2.25-18.114-3.821c-1.641-5.12,3.119-10.905,13.071-12.628c5.103-0.879,12.404-1.05,18.447,0.488
	C188.216,124.899,184.979,133.354,175.255,136.99z"/>
</svg>
