<?xml version="1.0" encoding="utf-8"?>
<!DOCTYPE svg PUBLIC "-//W3C//DTD SVG 1.1//EN" "http://www.w3.org/Graphics/SVG/1.1/DTD/svg11.dtd">
<svg version="1.1" xmlns="http://www.w3.org/2000/svg" xmlns:xlink="http://www.w3.org/1999/xlink" x="0px" y="0px" width="216px" height="216px" viewBox="0 0 216 216" enable-background="new 0 0 216 216" xml:space="preserve">

		<g>
			<polygon id="path22" fill="#1B4A96" points="122.665,189.496 115.324,189.496 115.324,180.611 121.573,180.611 121.573,172.865 
				115.324,172.865 115.324,165.208 121.971,165.208 121.971,157.081 105.408,157.081 105.408,197.625 122.665,197.625 			"/>
			<g>
				<path id="path24" fill="#1B4A96" d="M45.449,165.114h3.076v32.511h9.916v-40.64H35.533v40.64h9.917V165.114L45.449,165.114z
					 M45.449,165.114L45.449,165.114L45.449,165.114z"/>
			</g>
			<polygon id="path26" fill="#1B4A96" points="32.146,188.742 24.112,188.742 24.112,178.912 30.956,178.912 30.956,170.407 
				24.112,170.407 24.112,161.9 31.451,161.9 31.451,153.017 13.203,153.017 13.203,197.625 32.146,197.625 			"/>
			<polygon id="path28" fill="#1B4A96" points="135.968,180.611 139.041,180.611 139.041,197.625 148.959,197.625 148.959,157.081 
				139.041,157.081 139.041,171.636 135.968,171.636 135.968,157.081 126.052,157.081 126.052,197.625 135.968,197.625 			"/>
			<polygon id="path30" fill="#1B4A96" points="157.62,197.625 167.539,197.625 167.539,165.208 173.486,165.208 173.486,157.082 
				151.767,157.082 151.767,165.208 157.62,165.208 			"/>
			<polygon id="path32" fill="#1B4A96" points="71.744,157.081 61.827,157.081 61.827,197.625 71.744,197.625 			"/>
			<g>
				<path id="path34" fill="#1B4A96" d="M102.601,188.742h-2.281v-35.727H89.411v35.727h-3.373v-35.727H75.131v44.609h19.932v4.412
					h7.538V188.742L102.601,188.742L102.601,188.742z M102.601,188.742L102.601,188.742L102.601,188.742z"/>
			</g>
			<g>
				<path id="path36" fill="#1B4A96" d="M187.181,173.584c-2.894,0-5.251-2.358-5.251-5.258c0-2.895,2.357-5.252,5.251-5.252
					c2.897,0,5.256,2.357,5.256,5.252C192.437,171.226,190.078,173.584,187.181,173.584z M197.333,162.799
					c-0.254-1.21-0.747-2.241-1.482-3.091s-1.834-1.501-3.292-1.95c-1.466-0.451-3.542-0.677-6.237-0.677h-10.027v40.544h9.916
					v-16.352h2.687c2.177,0,3.938-0.316,5.291-0.949c1.349-0.633,2.277-1.543,2.778-2.728c0.498-1.183,0.749-3.069,0.749-5.653
					v-3.528C197.715,165.881,197.588,164.009,197.333,162.799L197.333,162.799L197.333,162.799z M197.333,162.799L197.333,162.799
					L197.333,162.799z"/>
			</g>
			<path id="path38" fill="#1B4A96" d="M187.92,170.947l-1.131-2.184v2.184h-1.667v-5.237h1.667v2.247l1.063-2.247h1.919
				l-1.426,2.586l1.625,2.651H187.92L187.92,170.947L187.92,170.947z M187.181,164.335c-2.201,0-3.994,1.795-3.994,3.991
				c0,2.205,1.793,3.993,3.994,3.993c2.205,0,3.995-1.788,3.995-3.993C191.176,166.13,189.386,164.335,187.181,164.335z"/>
			<g>
				<path id="path40" fill="#1B4A96" d="M201.568,159.456c-0.034,0.052-0.083,0.088-0.15,0.112c-0.085,0.033-0.21,0.049-0.373,0.049
					h-0.696v-0.658h0.794c0.177,0,0.31,0.032,0.381,0.095c0.065,0.059,0.098,0.131,0.098,0.224
					C201.621,159.343,201.604,159.401,201.568,159.456L201.568,159.456L201.568,159.456z M202.615,161.409l-0.529-0.834
					c-0.102-0.154-0.207-0.281-0.316-0.389c0.147-0.06,0.271-0.137,0.367-0.237c0.171-0.181,0.258-0.408,0.258-0.672
					c0-0.202-0.05-0.389-0.152-0.554c-0.105-0.175-0.251-0.297-0.428-0.367c-0.165-0.063-0.391-0.094-0.689-0.094h-1.537v3.421
					h0.763v-1.36h0.292c0.121,0,0.169,0.008,0.188,0.012c0.038,0.009,0.083,0.029,0.127,0.057c0.027,0.019,0.081,0.063,0.161,0.164
					c0.072,0.093,0.168,0.23,0.284,0.409c-0.002,0,0.404,0.636,0.404,0.636l0.051,0.083h0.93L202.615,161.409L202.615,161.409
					L202.615,161.409z M202.615,161.409L202.615,161.409L202.615,161.409z"/>
			</g>
			<path id="path42" fill="#1B4A96" d="M200.996,156.825c-1.744,0-3.162,1.419-3.162,3.162s1.418,3.162,3.162,3.162
				s3.163-1.419,3.163-3.162S202.74,156.825,200.996,156.825z M203.515,159.987c0,1.389-1.13,2.519-2.519,2.519
				c-1.39,0-2.519-1.13-2.519-2.519c0-1.39,1.129-2.52,2.519-2.52C202.385,157.468,203.515,158.598,203.515,159.987z"/>
		</g>
		<g>
			<path id="path44" fill="#1B4A96" d="M103.782,137.15c-26.9,0-48.786-21.885-48.786-48.786c0-23.964,17.374-43.934,40.182-48.011
				v10.68c0,2.867,1.351,5.504,3.601,7.174v8.968H78.678c-2.321,0-4.424,1.174-5.644,3.173c-1.182,1.989-1.251,4.47-0.186,6.464
				l25.394,48.477c1.14,2.177,3.382,3.53,5.847,3.53c2.477,0,4.716-1.357,5.839-3.53l25.409-48.468
				c1.07-2.025,0.996-4.51-0.205-6.502c-1.192-1.938-3.346-3.144-5.623-3.144h-20.107v-8.963c2.264-1.675,3.62-4.315,3.62-7.18
				V40.468c22.496,4.33,39.547,24.155,39.547,47.896C152.569,115.266,130.683,137.15,103.782,137.15L103.782,137.15z
				 M113.021,29.412v-9.857c0-4.914-4.006-8.909-8.932-8.909c-4.913,0-8.912,3.995-8.912,8.909v9.767
				c-28.839,4.185-51.067,29.062-51.067,59.043c0,32.901,26.769,59.671,59.671,59.671s59.672-26.771,59.672-59.671
				C163.454,58.604,141.553,33.866,113.021,29.412L113.021,29.412z M113.021,29.412L113.021,29.412L113.021,29.412z"/>
		</g>

</svg>
