<?xml version="1.0" encoding="utf-8"?>
<!DOCTYPE svg PUBLIC "-//W3C//DTD SVG 1.1//EN" "http://www.w3.org/Graphics/SVG/1.1/DTD/svg11.dtd">
<svg version="1.1" xmlns="http://www.w3.org/2000/svg" xmlns:xlink="http://www.w3.org/1999/xlink" x="0px" y="0px" width="216px" height="216px" viewBox="0 0 216 216" enable-background="new 0 0 216 216" xml:space="preserve">
<path fill="#2A3D83" d="M56.752,108.718c-0.175,0.843-0.21,1.827-0.21,2.775c0,0.844,0.07,1.723,0.21,2.564V108.718z M56.752,91.013
	v1.476c-1.264,1.44-2.354,2.88-3.302,4.531c-3.583-4.953-9.169-7.518-15.984-7.342c-11.03,0.281-18.864,8.888-18.794,19.393
	c0,10.504,7.623,18.583,18.794,19.182c5.271,0.279,11.137-1.862,15.177-6.219c1.019,2.248,2.248,4.039,3.583,5.585
	c-5.059,4.146-11.03,6.43-18.76,6.324c-12.295-0.105-25.996-10.118-25.785-24.872c0.211-15.142,13.174-25.154,25.785-25.154
	C47.479,83.986,52.502,86.902,56.752,91.013L56.752,91.013z M69.821,98.004h-0.07c-6.569,0-11.242,4.04-12.718,9.625v7.412
	c1.651,5.763,7.097,10.013,12.507,10.013c0.105,0,0.176,0,0.281,0v-3.688c-0.105,0-0.176,0-0.281,0
	c-4.883,0-8.888-3.795-8.958-8.676h9.204v-3.129h-9.204c0.597-4.461,3.829-7.868,9.169-7.868h0.07V98.004L69.821,98.004z
	 M57.561,91.785c-0.21-0.176-0.387-0.315-0.527-0.491v1.019C57.21,92.137,57.351,91.996,57.561,91.785L57.561,91.785z
	 M90.443,109.387h3.513c2.143,0.069,3.617-1.723,4.355-3.128l3.935-7.518h4.251l-3.899,7.764c-0.492,1.055-1.862,2.916-3.021,3.582
	c3.092,0.704,5.551,3.197,5.586,7.204l0.105,7.13h-4.04v-7.834c0-2.282-2.284-4.005-4.321-3.934h-6.499v11.733h-3.899v-25.61h3.899
	v10.645L90.443,109.387z M110.536,107.453l-0.069-8.747h3.829v8.747c0,1.581,1.756,4.04,4.672,4.04h7.765V98.706h3.935v17.214
	c0,5.973-4.356,8.431-10.118,8.431l-8.325,0.07v-3.406h9.203c2.882,0,5.271-1.371,5.271-5.06v-1.229h-7.764
	c-5.796,0-8.467-4.04-8.467-7.237L110.536,107.453z M135.479,98.706h4.005v10.645h12.472V98.706h4.004v25.681h-4.004v-11.77h-12.472
	v11.77h-4.005V98.706L135.479,98.706z M69.821,112.722v-3.125h9.204c-0.914-4.462-3.899-7.869-9.204-7.869v-3.688
	c7.975,0,13.209,6.077,13.209,13.489c0,0.421-0.07,0.844-0.07,1.229H69.786L69.821,112.722z M69.821,125.089v-3.689
	c4.11-0.105,6.779-2.282,8.325-5.444h4.146c-1.827,5.234-6.077,8.994-12.471,9.099V125.089z M172.155,98.987
	c-6.991,1.159-9.767,5.445-9.801,10.715l-0.178,11.24H158.7v3.479h13.421v-3.479h-5.974v-9.904c0-5.235,2.072-7.765,5.974-8.679
	v-3.372H172.155z M172.155,124.387v-3.478h5.901v-18.971h-1.966c-1.477,0-2.813,0.105-3.936,0.387v-3.373
	c1.159-0.211,2.493-0.281,3.936-0.281h5.971v22.202h3.585v3.478h-13.491V124.387z M199.31,98.18c-7.2,0-13.102,6.007-13.102,13.385
	c0,7.411,5.901,13.419,13.102,13.419v-3.513c-5.162,0-9.378-4.427-9.378-9.906c0-5.446,4.216-9.907,9.378-9.907V98.18L199.31,98.18z
	 M56.718,92.523c0.105-0.07,0.175-0.176,0.281-0.211v-1.019c-0.106-0.105-0.176-0.176-0.281-0.281v1.476V92.523z M56.718,114.058
	v-5.34c0.07-0.387,0.175-0.737,0.281-1.054v7.413C56.893,114.69,56.788,114.373,56.718,114.058z M199.31,124.983v-3.513
	c5.235,0,9.416-4.427,9.416-9.906c0-5.446-4.217-9.907-9.416-9.907V98.18c3.795,0,7.098,1.58,9.416,4.146v-3.619h3.514v12.822
	v12.822h-3.514v-3.583c-2.354,2.564-5.656,4.146-9.416,4.146V124.983z"/>
<path fill="#E31E24" d="M32.408,109.351l-7.308,2.283l7.308-0.386v-1.934V109.351z M32.408,93.366l-0.176-0.387l0.176,0.633v-0.281
	V93.366z M32.408,77.171v1.335C17.337,81.176,5.884,93.857,5.884,108.93c0,15.141,11.453,27.822,26.524,30.422v1.334
	C16.634,138.087,4.55,124.772,4.55,108.93C4.55,93.12,16.634,79.876,32.408,77.171L32.408,77.171z M64.974,130.569h2.6v0.702h-1.265
	v4.567h-1.335V130.569z M32.618,78.506c1.862-0.315,3.724-0.491,5.656-0.491c9.099,0,17.425,3.618,23.291,9.484l0.948-0.948
	c-6.183-6.077-14.754-9.871-24.239-9.871c-1.933,0-3.794,0.176-5.656,0.491V78.506L32.618,78.506z M32.618,111.283l5.586-0.281
	c1.054,0,1.933-0.843,1.933-1.933c0-0.211-0.071-0.492-0.176-0.702l-7.343-14.649v0.598l3.829,13.735l-3.829,1.23v1.967V111.283z
	 M32.618,140.758c1.862,0.316,3.724,0.49,5.656,0.49c8.643,0,16.511-3.125,22.483-8.255l-0.913-0.949
	c-5.691,4.918-13.28,7.869-21.57,7.869c-1.933,0-3.794-0.175-5.656-0.49V140.758L32.618,140.758z M73.053,130.464h-0.491
	c-0.07,0-0.105,0-0.211,0c-0.07,0.07-0.176,0.07-0.211,0.07c-0.175,0.069-0.315,0.175-0.492,0.28
	c-0.104,0.177-0.21,0.388-0.21,0.633v3.584c0,0.069,0,0.105,0.069,0.21c0,0.069,0,0.175,0.071,0.211
	c0.069,0.176,0.175,0.281,0.315,0.387c0.176,0.105,0.387,0.176,0.703,0.176h0.492v-0.704c-0.071,0-0.105-0.069-0.176-0.069
	c-0.07-0.07-0.07-0.104-0.07-0.176v-3.688c0-0.069,0-0.105,0.07-0.175c0.07-0.07,0.104-0.07,0.176-0.07v-0.703L73.053,130.464z
	 M73.053,135.944v-0.703c0.071,0,0.105,0,0.105-0.07c0.071,0,0.071-0.07,0.105-0.07v-0.069c0,0,0,0,0-0.071v-3.688
	c0-0.069,0-0.069,0-0.069v-0.07c-0.07,0-0.07-0.071-0.105-0.071c0-0.069-0.069-0.069-0.105-0.069v-0.703h0.422
	c0.316,0,0.527,0.07,0.703,0.176s0.281,0.21,0.315,0.315c0.07,0.107,0.106,0.212,0.106,0.317c0,0.069,0,0.105,0,0.175v3.584
	c0,0.07,0,0.104,0,0.21c0,0.071,0,0.176-0.071,0.211c-0.069,0.176-0.175,0.281-0.315,0.387c-0.176,0.104-0.422,0.176-0.738,0.176
	h-0.422V135.944z M80.571,130.569h-1.476v4.109c-0.07,0.387-0.176,0.526-0.491,0.598v1.476h1.264v-0.843h0.703v-0.633H80.36
	c0.07,0,0.105-0.421,0.105-0.421v-3.689h0.105V130.569z M123.395,130.569h1.335v2.459l0.702-2.459h1.336v5.27h-1.336v-2.67
	l-0.702,2.67h-1.335V130.569z M115.983,130.569h1.334v2.284l0.491-2.284h1.37l-0.702,2.563l0.914,2.706h-1.371l-0.702-2.459v2.459
	h-1.334V130.569L115.983,130.569z M108.43,130.569h1.335v2.459l0.702-2.459h1.335v5.27h-1.335v-2.67l-0.702,2.67h-1.335V130.569z
	 M101.192,130.569h1.335v2.248h0.492v-2.248h1.335v5.27h-1.335v-2.354h-0.492v2.354h-1.335V130.569z M93.85,130.569h1.371v2.248
	h0.421v-2.248h1.335v5.27h-1.335v-2.354h-0.421v2.354H93.85V130.569z M86.402,130.569h1.335v2.459l0.703-2.459h1.37v5.27h-1.37
	v-2.67l-0.703,2.67h-1.335V130.569z M80.606,135.909v-0.633h0.211v-4.11h-0.211v-0.597h1.581v4.672h0.21v1.476h-1.124v-0.844h-0.702
	L80.606,135.909z M138.149,135.909v-0.633h-0.211c0.07,0,0.105-0.421,0.105-0.421v-3.689h0.105v-0.597h-1.476v4.109
	c0,0.387-0.105,0.526-0.421,0.598v1.476h1.229v-0.843h0.701H138.149z M143.595,135.171c0.069,0,0.069,0,0.069,0
	c0.105,0,0.21-0.07,0.21-0.07c0.072-0.069,0.107-0.105,0.107-0.175c0.07,0,0.07-0.07,0.07-0.07c0-0.071,0-0.071,0-0.105l0.632-4.216
	h2.178l0.526,5.27h-1.439l-0.281-4.532h-0.069l-0.282,3.688c0,0.071,0,0.105,0,0.177c0,0.104-0.069,0.174-0.105,0.279
	c-0.069,0.105-0.175,0.283-0.315,0.388c-0.175,0.105-0.386,0.175-0.703,0.175h-0.633v-0.808H143.595z M153.186,130.604h-0.598
	c-0.315,0-0.597,0.07-0.736,0.211c-0.105,0.104-0.213,0.282-0.213,0.388c-0.07,0.069-0.07,0.105-0.07,0.175c0,0.07,0,0.104,0,0.176
	v1.476c0,0,0,0.07,0,0.176c0,0.07,0.07,0.105,0.07,0.21c0.071,0.105,0.107,0.177,0.213,0.281c0.104,0.069,0.21,0.105,0.421,0.176
	l-0.738,2.073h1.334l0.317-1.229v-1.477c-0.071,0-0.105,0-0.177-0.069c-0.068-0.07-0.104-0.104-0.104-0.21v-1.23
	c0-0.07,0-0.07,0-0.105c0,0,0,0,0-0.07c0.07-0.071,0.07-0.105,0.104-0.176c0.071,0,0.071-0.069,0.177-0.069V130.604L153.186,130.604
	z M138.852,135.944h-0.702v-0.634h0.281v-4.108h-0.281v-0.599h1.58v4.673h0.281v1.476h-1.159v-0.843V135.944z M164.357,130.604
	h1.369v2.284l0.493-2.284h1.368l-0.702,2.565l0.913,2.704h-1.369l-0.703-2.459v2.459h-1.369V130.604L164.357,130.604z
	 M153.186,134.644v-1.475c0,0.069,0,0.069,0.07,0.069h0.175v-1.931h-0.175c-0.07,0-0.07,0-0.07,0v-0.704h1.546v5.27h-1.336v-2.072
	L153.186,134.644L153.186,134.644z M173.278,130.498h-0.421c-0.069,0-0.174,0-0.21,0c-0.105,0.071-0.177,0.071-0.28,0.071
	c-0.177,0.07-0.318,0.176-0.424,0.281c-0.175,0.174-0.211,0.386-0.211,0.631v3.584c0,0.071,0,0.105,0,0.211
	c0,0.07,0.072,0.176,0.107,0.212c0.069,0.175,0.176,0.279,0.281,0.385c0.174,0.105,0.421,0.176,0.736,0.176h0.421v-0.702
	c-0.068,0-0.104-0.07-0.174-0.07c0-0.071-0.072-0.105-0.072-0.176v-3.688c0-0.071,0.072-0.105,0.072-0.177
	c0.069-0.07,0.105-0.07,0.174-0.07v-0.702V130.498z M188.21,130.604h1.335v2.25h0.49v-2.25h1.336v5.27h-1.336v-2.354h-0.49v2.354
	h-1.335V130.604z M181.008,133.485l-0.703,2.388h-1.335l0.736-2.704l-0.63-2.565h1.369l0.527,2.284v-2.284h1.336v2.284l0.526-2.284
	h1.44l-0.702,2.565l0.808,2.704h-1.334l-0.738-2.388v2.388h-1.336v-2.388H181.008z M173.278,135.979v-0.702
	c0.072,0,0.105,0,0.178-0.071l0.069-0.068l0.069-0.071c0,0,0,0,0-0.07v-3.688c0-0.071,0-0.071,0-0.071l-0.069-0.07l-0.069-0.069
	c-0.072-0.072-0.105-0.072-0.178-0.072v-0.7h0.492c0.317,0,0.528,0.068,0.702,0.174c0.178,0.105,0.283,0.211,0.317,0.316
	c0.069,0.104,0.069,0.21,0.104,0.317c0,0.07,0,0.104,0,0.176v3.582c0,0.07,0,0.105,0,0.211c0,0.07-0.068,0.176-0.104,0.21
	c-0.07,0.178-0.176,0.283-0.317,0.389c-0.174,0.104-0.385,0.174-0.702,0.174h-0.492V135.979z M197.028,130.498h-0.493
	c-0.069,0-0.105,0-0.211,0c-0.068,0.071-0.176,0.071-0.279,0.071c-0.178,0.07-0.283,0.176-0.424,0.281
	c-0.175,0.174-0.211,0.386-0.211,0.631v3.584c0,0.071,0,0.105,0,0.211c0,0.07,0.072,0.176,0.106,0.212
	c0.069,0.175,0.177,0.279,0.316,0.385c0.104,0.105,0.387,0.176,0.702,0.176h0.493v-0.702c-0.072,0-0.072,0-0.072,0
	c-0.069,0-0.104-0.07-0.174-0.07c0-0.071-0.072-0.105-0.072-0.176v-3.688c0-0.071,0.072-0.105,0.072-0.177
	c0.07-0.07,0.104-0.07,0.174-0.07c0,0,0,0,0.072,0v-0.702V130.498z M202.824,130.604h2.668v0.704h-1.263v4.565h-1.372v-5.27H202.824
	z M197.028,135.979v-0.702c0.069,0,0.069,0,0.105-0.071c0.069,0,0.069-0.068,0.069-0.068c0.069,0,0.069-0.071,0.069-0.071
	s0,0,0-0.07v-3.688c0-0.071,0-0.071,0-0.071s0-0.07-0.069-0.07c0,0,0-0.069-0.069-0.069c-0.072-0.072-0.072-0.072-0.105-0.072v-0.7
	h0.42c0.317,0,0.527,0.068,0.704,0.174c0.176,0.105,0.281,0.211,0.315,0.316c0.07,0.104,0.104,0.21,0.104,0.317
	c0,0.07,0,0.104,0,0.176v3.582c0,0.07,0,0.105,0,0.211c0,0.07-0.069,0.176-0.104,0.21c-0.07,0.178-0.176,0.283-0.315,0.389
	c-0.107,0.104-0.387,0.174-0.704,0.174h-0.42V135.979z M210.834,130.498h-0.421c-0.072,0-0.178,0-0.212,0
	c-0.104,0.071-0.176,0.071-0.281,0.071c-0.176,0.07-0.315,0.176-0.421,0.281c-0.175,0.174-0.211,0.386-0.211,0.631v3.584
	c0,0.071,0,0.105,0,0.211c0,0.07,0.071,0.176,0.105,0.212c0.069,0.175,0.175,0.279,0.279,0.385c0.178,0.105,0.425,0.176,0.74,0.176
	h0.421v-0.702c-0.072,0-0.106-0.07-0.176-0.07c0-0.071-0.07-0.105-0.07-0.176v-3.688c0-0.071,0.07-0.105,0.07-0.177
	c0.069-0.07,0.104-0.07,0.176-0.07v-0.702V130.498z M32.442,78.541c0.07,0,0.106,0,0.211,0v-1.334c-0.104,0-0.176,0-0.211,0V78.541z
	 M32.442,93.683v-0.281l0.211,0.387v0.597L32.442,93.683z M32.442,111.317v-1.931l0.211-0.072v1.969h-0.211V111.317z
	 M32.442,140.722c0.07,0,0.106,0,0.211,0.069v-1.334c-0.104-0.07-0.176-0.07-0.211-0.07V140.722z M210.834,135.979v-0.702
	c0.069,0,0.105,0,0.175-0.071l0.069-0.068l0.072-0.071c0,0,0,0,0-0.07v-3.688c0-0.071,0-0.071,0-0.071l-0.072-0.07l-0.069-0.069
	c-0.069-0.072-0.105-0.072-0.175-0.072v-0.7h0.49c0.316,0,0.526,0.068,0.704,0.174c0.175,0.105,0.281,0.211,0.316,0.316
	c0.068,0.104,0.068,0.21,0.104,0.317c0,0.07,0,0.104,0,0.176v3.582c0,0.07,0,0.105,0,0.211c0,0.07-0.07,0.176-0.104,0.21
	c-0.069,0.178-0.175,0.283-0.316,0.389c-0.178,0.104-0.388,0.174-0.704,0.174h-0.49V135.979z"/>
</svg>
