<?xml version="1.0" encoding="utf-8"?>
<!DOCTYPE svg PUBLIC "-//W3C//DTD SVG 1.1//EN" "http://www.w3.org/Graphics/SVG/1.1/DTD/svg11.dtd">
<svg version="1.1" xmlns="http://www.w3.org/2000/svg" xmlns:xlink="http://www.w3.org/1999/xlink" x="0px" y="0px" width="216px" height="216px" viewBox="0 0 216 216" enable-background="new 0 0 216 216" xml:space="preserve">
<g>
	<g>
		<path fill="#009345" d="M132.097,96.695l-3.416,12.484c-0.288,1.101-1.285,5.681-1.62,9.03h-0.297
			c-0.335-3.638-1.245-7.565-1.628-9.287l-2.728-12.227h-8.691l-2.728,12.227c-0.383,1.721-1.293,5.649-1.628,9.287h-0.297
			c-0.334-3.35-1.332-7.929-1.62-9.03l-3.416-12.484h-9.994l8.95,28.434c1.101,3.494,2.92,5.313,6.031,5.313
			c3.063,0,5.025-1.915,5.792-5.313l1.34-5.793c0.575-2.441,1.389-5.983,1.771-8.664h0.287c0.383,2.681,1.197,6.223,1.771,8.664
			l1.341,5.793c0.813,3.397,2.728,5.313,5.792,5.313c3.11,0,4.931-1.819,6.03-5.313l8.951-28.434H132.097z"/>
		<path fill="#009345" d="M159.179,95.979c-10.148,0-17.951,7.515-17.951,17.23c0,9.718,7.803,17.232,17.951,17.232
			s17.95-7.515,17.95-17.232C177.129,103.493,169.327,95.979,159.179,95.979z M159.179,122.065c-4.978,0-8.855-3.878-8.855-8.856
			c0-4.978,3.878-8.855,8.855-8.855s8.855,3.877,8.855,8.855C168.034,118.189,164.156,122.065,159.179,122.065z"/>
		<path fill="#009345" d="M214.272,110.721h-19.29v6.799h10.575c-0.518,2.498-3.645,4.93-7.943,4.93
			c-5.954,0-9.143-4.021-9.143-9.239c0-5.025,3.829-8.902,8.999-8.902c3.59,0,6.317,1.82,7.803,4.595l8.28-3.398
			c-2.921-5.743-8.329-9.526-16.083-9.526c-10.053,0-17.951,7.467-17.951,17.23c0,9.767,7.563,17.233,17.951,17.233
			C208.864,130.443,216.188,121.491,214.272,110.721z"/>
	</g>
	<g>
		<path fill="#8BC53F" d="M72.223,76.25c-6.023,0-10.905,4.882-10.905,10.905c0,1.736,0.408,3.377,1.129,4.834l9.775,19.813
			l9.775-19.813c0.723-1.457,1.131-3.098,1.131-4.834C83.127,81.132,78.245,76.25,72.223,76.25z"/>
		<path fill="#009345" d="M37.367,123.765l-8.881,17.986L3.914,91.993C1.247,86.59,3.465,80.049,8.866,77.381
			c5.403-2.667,11.944-0.45,14.611,4.952l13.888,28.128C39.438,114.653,39.438,119.572,37.367,123.765z"/>
		<path fill="#009345" d="M66.622,123.765l-8.881,17.986L33.171,91.993c-2.668-5.403-0.45-11.944,4.951-14.611
			c5.403-2.667,11.943-0.45,14.611,4.952l13.888,28.128C68.692,114.653,68.692,119.572,66.622,123.765z"/>
	</g>
</g>
</svg>
