<?xml version="1.0" encoding="utf-8"?>
<!DOCTYPE svg PUBLIC "-//W3C//DTD SVG 1.1//EN" "http://www.w3.org/Graphics/SVG/1.1/DTD/svg11.dtd">
<svg version="1.1" xmlns="http://www.w3.org/2000/svg" xmlns:xlink="http://www.w3.org/1999/xlink" x="0px" y="0px" width="216px" height="216px" viewBox="0 0 216 216" enable-background="new 0 0 216 216" xml:space="preserve">
<path fill="#010101" d="M111.925,132.86l-0.344-0.103c0.144-0.035,0.284-0.082,0.421-0.14c0.586-0.283,0.93-0.907,0.854-1.556
	c0-1.097-0.777-1.67-2.256-1.67c-0.638,0-1.492,0-1.964,0v6.986c0.472,0,1.275,0,1.899,0c0.625,0,2.55-0.191,2.55-2.04
	C113.092,133.636,112.61,133.021,111.925,132.86z M109.643,130.311h0.128c0.272-0.014,0.545-0.014,0.816,0
	c0.79,0,1.274,0.396,1.274,1.033c0.032,0.591-0.421,1.096-1.011,1.127c-0.088,0.006-0.177-0.001-0.264-0.018h-1.007L109.643,130.311
	z M110.625,135.602c-0.284,0.019-0.569,0.019-0.854,0h-0.128v-2.295h1.046c0.893,0,1.402,0.383,1.402,1.058
	C112.091,135.04,111.568,135.602,110.625,135.602z"/>
<path fill="#010101" d="M48.581,129.406h-1.938v6.999h1.007v-2.614h0.153c0.305,0,0.713,0,0.93,0
	c1.244,0.155,2.377-0.728,2.532-1.972c0.01-0.081,0.016-0.164,0.017-0.247C51.258,130.783,50.913,129.406,48.581,129.406z
	 M48.695,132.912c-0.28,0-0.586,0-0.917,0H47.65v-2.551h0.268h0.778c1.275,0,1.479,0.702,1.479,1.276
	c0.009,0.703-0.554,1.281-1.259,1.291C48.842,132.929,48.768,132.924,48.695,132.912z"/>
<path fill="#010101" d="M57.989,129.316c-2,0.021-3.603,1.659-3.582,3.659c0.021,1.999,1.659,3.603,3.659,3.581
	c1.989-0.021,3.589-1.644,3.583-3.633c0.059-1.936-1.464-3.552-3.399-3.609C58.162,129.312,58.075,129.313,57.989,129.316z
	 M57.989,135.69c-1.408,0.003-2.552-1.137-2.554-2.545c0-0.054,0.002-0.105,0.005-0.158c-0.077-1.405,1-2.607,2.405-2.686
	c0.048-0.003,0.096-0.004,0.145-0.004c1.408-0.002,2.551,1.138,2.553,2.546c0,0.048-0.001,0.096-0.004,0.144
	c0.035,1.408-1.078,2.578-2.485,2.612c-0.022,0.002-0.044,0.002-0.065,0.002V135.69L57.989,135.69z"/>
<path fill="#010101" d="M69.525,134.237c0.017-1.126-0.882-2.053-2.009-2.069c-0.101-0.002-0.199,0.004-0.298,0.017
	c-0.318-0.019-0.638-0.019-0.956,0h-0.153v-1.912h2.97v-0.918h-3.977v6.999h0.472h1.275
	C68.57,136.468,69.525,135.678,69.525,134.237z M67.052,135.512c-0.246,0.013-0.494,0.013-0.739,0h-0.204v-2.332h0.115
	c0.295-0.038,0.594-0.061,0.892-0.064c0.879,0,1.415,0.459,1.415,1.275c0,0.395-0.191,1.211-1.479,1.211V135.512z"/>
<polygon fill="#010101" points="74.077,129.431 73.069,129.431 73.069,136.43 73.988,136.43 78.003,130.986 78.003,136.43 
	79.01,136.43 79.01,129.431 78.092,129.431 74.077,134.888 "/>
<polygon fill="#010101" points="84.02,129.431 82.937,129.431 82.937,136.43 83.943,136.43 83.943,130.923 86.467,134.403 
	86.506,134.403 89.017,130.885 89.017,136.43 90.012,136.43 90.012,129.431 89.004,129.431 86.57,132.925 "/>
<path fill="#010101" d="M97.1,129.316c-2,0.021-3.603,1.659-3.583,3.659c0.021,1.999,1.659,3.603,3.659,3.581
	c1.99-0.021,3.589-1.644,3.582-3.633c0.08-1.913-1.405-3.529-3.319-3.609C97.326,129.31,97.212,129.31,97.1,129.316z M97.1,135.69
	c-1.408,0.003-2.552-1.137-2.554-2.545c0-0.054,0.001-0.105,0.004-0.158c-0.077-1.405,1-2.607,2.406-2.686
	c0.048-0.003,0.096-0.004,0.144-0.004c1.408-0.002,2.551,1.138,2.553,2.546c0,0.048-0.001,0.096-0.003,0.144
	c0.035,1.408-1.078,2.578-2.485,2.612c-0.022,0.002-0.043,0.002-0.064,0.002V135.69z"/>
<path fill="#010101" d="M118.86,129.406l-2.958,7.023h0.981l0.765-1.861h3.289l0.765,1.861h1.058l-2.957-7.023H118.86z
	 M118.019,133.651l1.274-3.085l1.275,3.085H118.019z"/>
<polygon fill="#010101" points="127.273,129.431 126.152,129.431 128.778,132.771 126.037,136.43 127.159,136.43 129.823,132.783 
	"/>
<rect x="129.823" y="129.431" fill="#010101" width="0.995" height="6.999"/>
<polygon fill="#010101" points="134.489,129.431 133.354,129.431 130.817,132.783 133.47,136.43 134.604,136.43 131.863,132.758 "/>
<path fill="#010101" d="M138.429,135.258c-0.141,0.124-0.322,0.192-0.51,0.19v0.995c0.41,0.082,0.838-0.016,1.173-0.268
	c0.676-0.523,1.109-1.9,1.352-4.335l0.166-1.492h2.37v6.081h0.995v-6.998h-4.335l-0.102,1.274
	C139.283,134.186,138.785,134.977,138.429,135.258z"/>
<polygon fill="#010101" points="148.882,129.431 147.875,129.431 147.875,136.43 148.793,136.43 152.809,130.986 152.809,136.43 
	153.815,136.43 153.815,129.431 152.897,129.431 148.882,134.888 "/>
<path fill="#010101" d="M161.018,132.86l-0.332-0.103c0.141-0.037,0.276-0.083,0.408-0.14c0.593-0.28,0.94-0.904,0.867-1.556
	c0-1.097-0.778-1.67-2.256-1.67c-0.638,0-1.492,0-1.964,0v6.986c0.472,0,1.275,0,1.887,0c0.777,0,2.55-0.191,2.55-2.04
	C162.186,133.636,161.703,133.021,161.018,132.86z M158.749,130.311h0.127c0.268-0.014,0.536-0.014,0.804,0
	c0.79,0,1.274,0.396,1.274,1.033c0.023,0.598-0.441,1.102-1.04,1.125c-0.078,0.003-0.157-0.002-0.234-0.016h-0.994L158.749,130.311z
	 M159.73,135.499c-0.288,0.019-0.578,0.019-0.866,0h-0.115v-2.192h1.045c0.893,0,1.402,0.383,1.402,1.059
	c0,0.675-0.522,1.236-1.466,1.236V135.499z"/>
<polygon fill="#010101" points="166.806,133.357 169.419,133.357 169.419,132.427 166.806,132.427 166.806,130.349 169.737,130.349 
	169.737,129.431 165.799,129.431 165.799,136.43 169.839,136.43 169.839,135.512 166.806,135.512 "/>
<circle fill="#010101" cx="157.602" cy="83.424" r="4.054"/>
<path fill="#010101" d="M21.325,92.092c-2.036-1.836-4.736-2.758-7.47-2.55C6.55,89.492,1.834,94.514,1.834,102.291
	c0,7.776,4.614,12.569,11.766,12.569c2.826,0.135,5.585-0.882,7.649-2.817c-0.03,1.288-0.353,2.552-0.944,3.697
	c-1.083,1.849-3.441,2.906-6.488,2.906c-2.439,0.205-4.794-0.945-6.132-2.995l-0.306-0.446l-5.341,3.633l0.459,0.522
	c2.996,3.391,6.029,4.653,11.193,4.653c4.487,0,8.209-1.02,10.479-2.881c2.639-2.23,3.824-5.609,3.824-10.989V95.828
	c-0.021-1.76,0.077-3.519,0.293-5.265l0.076-0.689h-7.037V92.092z M14.582,109.621c-1.531-0.022-2.995-0.64-4.079-1.721l0,0
	c-1.301-1.505-1.964-3.458-1.849-5.444c0-4.742,2.422-7.648,6.374-7.648c1.342-0.01,2.646,0.44,3.697,1.275
	c1.629,1.5,2.491,3.655,2.345,5.864c0.06,1.594-0.324,3.174-1.109,4.563C18.81,108.391,16.786,109.562,14.582,109.621z"/>
<path fill="#010101" d="M43.583,89.147c-8.108,0-13.347,5.354-13.347,13.653c0,8.299,5.252,13.679,13.385,13.679
	c7.929,0,13.22-5.559,13.22-13.768C56.841,94.501,51.64,89.147,43.583,89.147z M43.583,94.82c4.207,0,6.526,2.855,6.526,8.057
	c0,4.895-2.46,7.814-6.564,7.814c-4.105,0-6.579-2.944-6.579-7.89c0-4.946,2.474-7.993,6.617-7.993V94.82z"/>
<path fill="#010101" d="M71.947,89.147c-8.107,0-13.347,5.354-13.347,13.653c0,8.299,5.227,13.679,13.347,13.679
	c7.904,0,13.22-5.52,13.22-13.73C85.167,94.54,79.966,89.147,71.947,89.147z M71.947,94.808c4.208,0,6.527,2.855,6.527,8.057
	c0,4.895-2.448,7.814-6.565,7.814s-6.565-2.945-6.565-7.891C65.344,97.842,67.779,94.808,71.947,94.808z"/>
<path fill="#010101" d="M113.697,109.252V86.726c-0.002-1.892,0.104-3.781,0.318-5.66V80.39h-7.394l0.076,0.676
	c0.22,1.891,0.317,3.794,0.293,5.698v4.283c0,0.574,0,1.045,0,1.39c-0.341-0.37-0.712-0.71-1.109-1.02
	c-1.989-1.462-4.418-2.2-6.884-2.091c-7.381,0-12.149,5.253-12.149,13.386c0,4.818,1.708,8.924,4.678,11.205
	c2.152,1.634,4.811,2.455,7.509,2.319c3.633,0,5.954-0.854,7.981-3.058v2.459h6.998v-0.688
	C113.789,113.059,113.683,111.155,113.697,109.252z M100.095,110.437c-3.952,0-6.374-2.944-6.374-7.649
	c0-4.704,2.371-7.712,6.183-7.712c1.925,0.013,3.765,0.804,5.099,2.193c1.203,1.462,1.865,3.294,1.874,5.188
	c0.069,1.91-0.476,3.791-1.555,5.367C104.088,109.47,102.152,110.438,100.095,110.437z"/>
<path fill="#010101" d="M144.714,90.448c-0.151,1.678-0.459,3.338-0.918,4.959l-2.397,8.554c0,0.127-0.114,0.458-0.204,0.829
	c-0.076-0.306-0.152-0.561-0.203-0.727l-3.162-9.702c-0.42-1.274-0.931-3.238-1.058-3.964l-0.077-0.522h-5.621l-0.077,0.522
	c-0.259,1.343-0.608,2.668-1.045,3.964l-3.073,9.37c0,0.191-0.19,0.599-0.331,1.083c-0.102-0.433-0.191-0.777-0.255-1.006
	l-2.358-8.337c-0.449-1.624-0.756-3.283-0.917-4.959v-0.574h-7.777l0.306,0.829c0.612,1.619,1.275,3.391,1.784,5.265l4.705,15.184
	c0.438,1.306,0.792,2.639,1.058,3.99l0.103,0.497h5.966l0.153-0.497c0.297-1.348,0.662-2.68,1.096-3.99l3.226-10.033
	c0-0.153,0.141-0.472,0.255-0.854c0.141,0.472,0.204,0.701,0.255,0.815l3.276,10.045c0.433,1.308,0.786,2.64,1.058,3.991
	l0.077,0.509h6.056l0.089-0.509c0.259-1.35,0.612-2.679,1.058-3.979l5.188-16.572c0.701-2.257,0.829-2.652,1.275-3.825l0.331-0.841
	h-7.75L144.714,90.448z"/>
<path fill="#010101" d="M161.337,90.575l0.089-0.701h-7.649l0.103,0.701c0.264,1.811,0.378,3.64,0.344,5.469v13.424
	c0.023,1.829-0.092,3.657-0.344,5.469l-0.089,0.701h7.648l-0.076-0.688c-0.218-1.832-0.316-3.676-0.294-5.52V96.082
	C161.024,94.243,161.114,92.402,161.337,90.575z"/>
<path fill="#010101" d="M188.643,109.468V99.27c0-2.97-0.446-4.806-1.568-6.374c-1.67-2.295-4.219-3.442-7.764-3.442
	c-3.054-0.191-6.021,1.059-8.018,3.378v-2.958h-7.126l0.102,0.701c0.252,1.812,0.361,3.64,0.331,5.469v13.423
	c0.026,1.829-0.084,3.657-0.331,5.469l-0.102,0.701h7.56l-0.103-0.701c-0.239-1.813-0.351-3.64-0.331-5.469v-8.503
	c1.759-3.913,4.079-5.889,6.87-5.889c1.212-0.093,2.383,0.466,3.073,1.466c0.52,1.065,0.738,2.25,0.637,3.43v9.497
	c0.01,1.833-0.093,3.663-0.306,5.482l-0.076,0.688h7.648l-0.114-0.714C188.744,113.119,188.616,111.294,188.643,109.468z"/>
<path fill="#010101" d="M209.192,107.479L209.192,107.479c-0.205,0.493-0.489,0.95-0.841,1.352
	c-1.218,1.274-2.917,1.972-4.679,1.924c-1.864,0.067-3.655-0.728-4.856-2.153c-0.85-1.1-1.335-2.437-1.39-3.825H216v-0.664
	c-0.077-0.956-0.077-1.083-0.077-1.173c0.003-2.292-0.43-4.562-1.274-6.692c-1.837-4.521-6.332-7.385-11.206-7.139
	c-7.648,0-12.671,5.367-12.671,13.691c0,8.325,5.099,13.64,12.965,13.64c3.424,0.144,6.758-1.108,9.242-3.467
	c0.791-0.768,1.458-1.654,1.976-2.627L209.192,107.479z M203.277,94.731c1.548-0.107,3.069,0.449,4.182,1.53
	c0.835,0.828,1.389,1.898,1.581,3.059h-11.41c0.519-2.688,2.885-4.62,5.622-4.589H203.277L203.277,94.731z"/>
</svg>
