<?xml version="1.0" encoding="utf-8"?>
<!DOCTYPE svg PUBLIC "-//W3C//DTD SVG 1.1//EN" "http://www.w3.org/Graphics/SVG/1.1/DTD/svg11.dtd">
<svg version="1.1" xmlns="http://www.w3.org/2000/svg" xmlns:xlink="http://www.w3.org/1999/xlink" x="0px" y="0px" width="216px" height="216px" viewBox="0 0 216 216" enable-background="new 0 0 216 216" xml:space="preserve">
<path fill="#ED7B00" d="M24.281,85.415c-0.392,0.313-2.895,2.973-4.85,6.336c-1.33,2.347-2.19,4.537-2.816,6.884
	c-1.643-1.173-3.442-2.19-5.554-3.05c-3.598-1.486-7.274-2.034-7.744-2.034c-0.079,0.469-0.391,4.146,0.157,7.979
	c0.234,1.956,0.704,3.677,1.33,5.319c1.408-0.313,2.895-0.391,4.381-0.391c5.789,0,11.108,2.112,15.098,5.71
	c4.067-3.52,9.309-5.71,15.098-5.71c1.486,0,2.973,0.157,4.38,0.391c0.626-1.643,1.017-3.364,1.33-5.319
	c0.548-3.833,0.235-7.51,0.079-7.979c-0.469,0-4.146,0.548-7.744,2.034c-2.112,0.86-3.912,1.877-5.554,3.05
	c-0.547-2.268-1.408-4.537-2.816-6.884C27.175,88.388,24.672,85.728,24.281,85.415"/>
<path fill="#80B925" d="M5.194,109.51c0.391,7.273,5.006,13.531,11.499,16.27c0.705-4.537,2.738-8.604,5.71-11.813
	c-3.598-3.051-8.213-4.85-13.22-4.85C7.854,109.117,6.523,109.273,5.194,109.51"/>
<path fill="#80B925" d="M18.727,131.959l1.251,0.626c0.704-1.8,1.564-3.599,2.503-5.319c0.626,0.078,1.173,0.078,1.799,0.078
	c10.248,0,18.618-7.9,19.087-17.834c-1.252-0.236-2.582-0.393-3.989-0.393c-10.326,0-18.853,7.666-20.183,17.602h0.078
	c3.99-5.789,9.466-10.17,15.724-12.516c0.156-0.079,0.234-0.079,0.391-0.158c-6.18,3.6-10.561,8.058-13.924,13.064
	C20.526,128.674,19.587,130.316,18.727,131.959"/>
<path fill="#ED7B00" d="M141.15,106.145h-8.839v-6.649h8.37c3.677,0,4.693,1.408,4.693,3.364
	C145.453,105.049,143.811,106.145,141.15,106.145 M154.059,119.6l-7.666-8.369c3.832-1.488,6.883-3.913,6.883-8.371
	c0-5.632-4.066-8.605-10.169-8.605h-19.948v0.157c0.626,0.078,1.33,1.877,1.33,4.146v18.854c0,2.269,2.895,4.145,4.693,4.145h4.694
	v-0.155c-0.86-0.079-1.644-0.94-1.644-2.425v-7.589h5.945c1.096,1.329,6.415,7.979,7.041,8.683c0,0,1.251,1.564,4.146,1.564h7.273
	v-0.233C155.936,121.399,154.918,120.382,154.059,119.6"/>
<path fill="#ED7B00" d="M174.867,94.254v0.157c0.391,0.078,1.016,1.799,1.016,4.146v12.985c0,3.13-2.581,4.382-6.18,4.382
	c-3.598,0-6.18-1.252-6.18-4.382V98.557c0-2.346,0.705-4.068,1.018-4.146v-0.157h-11.107v0.157c1.016,0.078,1.799,1.408,1.799,4.146
	v11.5c0,6.57,3.598,12.125,14.471,12.125l0,0l0,0l0,0l0,0c10.873,0,14.472-5.555,14.472-12.125v-11.5c0-2.738,0.782-4.068,1.8-4.146
	v-0.157H174.867z"/>
<path fill="#ED7B00" d="M85.688,94.254v0.157c0.235,0,0.783,0.86,0.547,1.721c-0.156,0.626-1.173,2.503-1.564,3.598l-2.895,6.102
	l-4.381,9.153l-4.38-9.153l-2.895-6.102c-0.469-1.095-1.408-2.972-1.564-3.598c-0.235-0.86,0.313-1.721,0.547-1.721v-0.157H58.779
	v0.157c0.626,0,1.017,0.704,1.252,1.173c3.05,6.492,10.951,23.311,11.186,24.015c0.313,0.938,0.078,1.8-0.548,1.8v0.155h6.728l0,0
	h6.728v-0.155c-0.625-0.079-0.86-0.861-0.547-1.8c0.235-0.704,8.136-17.444,11.186-24.015c0.235-0.47,0.626-1.173,1.252-1.173
	v-0.157H85.688z"/>
<path fill="#ED7B00" d="M214.84,112.951c-0.391-10.796-20.573-6.259-20.652-10.718c-0.076-2.738,5.477-2.738,7.041-2.738
	c4.068,0,7.666,0.86,9.544,3.207l0,0l3.207-7.275l-0.234-0.078c-0.313,0.078-0.704,0.235-1.565,0.156
	c-1.328-0.078-6.492-1.643-12.438-1.643c-10.17,0-13.611,5.397-13.533,9.23c0.313,10.482,20.495,5.71,20.651,10.561
	c0.079,2.426-3.989,2.659-5.553,2.659c-4.147,0-9.937-1.173-11.969-2.503c-0.079,0-0.079-0.078-0.157-0.078
	c-0.078-0.078-0.078-0.078-0.156-0.156c-0.627-0.469-1.017-0.938-1.017-0.938l-1.956,7.041l0.235,0.077
	c0.469-0.234,1.017-0.234,1.721-0.156c0.469,0.079,7.509,2.269,13.532,2.269C211.008,122.025,214.997,117.801,214.84,112.951"/>
<path fill="#ED7B00" d="M105.401,109.979L105.401,109.979L105.401,109.979l-4.458-0.079l4.381-9.152l0,0l4.381,9.152
	L105.401,109.979L105.401,109.979z M124.41,121.399c-0.469,0-1.408-0.626-2.033-1.878c-3.129-6.649-10.014-21.434-10.639-22.999
	c-0.626-1.33-0.234-2.111,0.391-2.19v-0.156H98.596v0.156c0.625,0.079,1.017,0.86,0.391,2.19
	c-0.704,1.565-7.587,16.35-10.639,22.999c-0.547,1.252-1.486,1.878-2.034,1.878v0.155h9.153c0.782-1.799,2.19-4.771,2.581-5.553
	h0.156h7.119l0,0h0.078l0,0h7.118h0.157c0.391,0.781,1.8,3.754,2.581,5.553h9.152V121.399z"/>
</svg>
