<?xml version="1.0" encoding="utf-8"?>
<!DOCTYPE svg PUBLIC "-//W3C//DTD SVG 1.1//EN" "http://www.w3.org/Graphics/SVG/1.1/DTD/svg11.dtd">
<svg version="1.1" xmlns="http://www.w3.org/2000/svg" xmlns:xlink="http://www.w3.org/1999/xlink" x="0px" y="0px" width="216px" height="216px" viewBox="0 0 216 216" enable-background="new 0 0 216 216" xml:space="preserve">

	<path fill="#51AF30" d="M207.728,130.298L207.728,130.298z M13.731,99.691c0.104,8.834,0.211,17.676,0.304,26.51
		c0.028,2.805,0.006,2.805-2.846,2.805c-2.239,0-4.48-0.042-6.714,0.019c-1.003,0.035-1.25-0.323-1.247-1.275
		c0.025-13.953,0.019-27.9,0.021-41.853c0-0.561-0.125-1.162,0.778-1.218c7.331-0.437,13.682,1.404,17.97,7.85
		c1.843,2.77,3.084,5.877,4.583,8.842c2.142,4.246,4.228,8.514,6.436,12.966c0.407-0.681,0.254-1.249,0.251-1.77
		c-0.046-8.719-0.083-17.444-0.19-26.168c-0.017-1.318,0.295-1.812,1.703-1.75c2.578,0.113,5.166,0.07,7.75,0.015
		c1.01-0.021,1.396,0.245,1.394,1.341c-0.036,13.893-0.02,27.79-0.023,41.679c0,0.601,0.182,1.351-0.839,1.324
		c-2.521-0.078-5.05,0.219-7.559-0.232c-4.836-0.877-8.189-3.808-10.431-7.978c-3.23-6-6.247-12.122-9.364-18.184
		c-0.522-1.014-1.086-2.006-1.631-3.011c-0.072-0.127-0.174-0.373-0.218-0.367C13.573,99.302,13.682,99.513,13.731,99.691
		L13.731,99.691L13.731,99.691z M49.418,106.926c-0.099-3.125,0.298-6.187,1.214-9.168c2.46-7.997,9.001-12.859,18.232-13.53
		c3.274-0.237,6.548-0.105,9.744,0.72c7.594,1.951,12.333,6.803,14.136,14.394c1.252,5.263,1.234,10.59-0.146,15.846
		c-2.155,8.211-8.271,13.44-16.709,14.437c-3.737,0.442-7.454,0.416-11.121-0.436c-8.348-1.939-13.682-7.845-14.973-16.429
		C49.511,110.822,49.362,108.88,49.418,106.926L49.418,106.926z M81.466,107.217c-0.122-2.624-0.271-5.433-1.353-8.082
		c-1.516-3.716-4.12-6.031-8.286-6.172c-3.978-0.135-6.982,1.64-8.527,5.242c-2.519,5.85-2.529,11.856,0.043,17.7
		c1.558,3.53,4.489,5.264,8.393,5.17c3.84-0.092,6.441-2.065,8.068-5.46C81.047,113.012,81.266,110.219,81.466,107.217
		L81.466,107.217z M178.03,100.659c0,4.298,0.127,8.604-0.028,12.903c-0.339,9.1-5.534,14.749-14.601,16.004
		c-4.533,0.622-9.054,0.501-13.429-1c-6.463-2.219-10.38-7.526-10.503-14.634c-0.159-9.292-0.058-18.587-0.115-27.883
		c0-1.017,0.358-1.232,1.284-1.218c3.041,0.053,6.087,0.077,9.12-0.006c1.215-0.034,1.54,0.332,1.534,1.528
		c-0.054,8.034-0.034,16.066-0.026,24.099c0.004,1.953,0.135,3.896,0.764,5.771c1.082,3.216,3.472,4.906,6.891,4.846
		c3.301-0.057,5.656-1.802,6.614-4.987c0.501-1.654,0.725-3.352,0.721-5.088c-0.016-8.207,0.017-16.413-0.035-24.614
		c-0.006-1.152,0.216-1.601,1.479-1.557c3.039,0.096,6.087,0.079,9.121,0.003c1.095-0.027,1.349,0.35,1.339,1.373
		c-0.05,4.819-0.022,9.639-0.022,14.462C178.104,100.658,178.065,100.658,178.03,100.659L178.03,100.659L178.03,100.659z
		 M93.015,84.906c3.788,0,7.458,0.046,11.125-0.023c1.1-0.021,1.288,0.554,1.523,1.397c2.85,10.319,5.733,20.63,8.624,30.936
		c0.161,0.568,0.137,1.257,0.839,1.804c1.324-4.688,2.621-9.28,3.913-13.878c1.759-6.283,3.501-12.573,5.266-18.855
		c0.192-0.673,0.236-1.424,1.35-1.403c3.606,0.07,7.223,0.023,11.074,0.023c-1.205,3.564-2.354,6.96-3.491,10.362
		c-3.588,10.693-7.194,21.377-10.727,32.09c-0.452,1.379-1.091,1.84-2.54,1.802c-3.727-0.11-7.458-0.047-11.188-0.031
		c-0.782,0.008-1.379-0.007-1.703-0.987c-4.663-14.249-9.372-28.489-14.063-42.736C92.987,85.308,93.015,85.184,93.015,84.906z
		 M211.217,96.697c-3.851-3.083-8.114-4.221-12.829-3.551c-1.556,0.22-3.041,0.728-3.909,2.207
		c-0.951,1.627-0.383,3.536,1.403,4.556c1.857,1.059,3.932,1.582,5.974,2.142c1.937,0.531,3.81,1.241,5.68,1.955
		c10.087,3.832,8.521,17.421,2.777,21.911c-5.864,4.584-17.337,5.385-23.646,1.392c-4.103-2.591-5.29-6.716-3.244-11.6
		c1.674,1.519,3.4,2.911,5.444,3.844c3.237,1.476,6.574,1.945,10.064,1.145c1.854-0.429,3.293-1.361,3.68-3.389
		c0.317-1.709-0.527-3.189-2.498-4.297c-2.373-1.338-5.047-1.852-7.604-2.676c-1.857-0.602-3.636-1.352-5.323-2.356
		c-7.178-4.23-7.014-15.782-0.489-20.126c6.294-4.186,13.225-4.771,20.272-2.596C211.936,86.791,213.617,91.794,211.217,96.697
		L211.217,96.697z"/>

</svg>
