<?xml version="1.0" encoding="utf-8"?>
<!DOCTYPE svg PUBLIC "-//W3C//DTD SVG 1.1//EN" "http://www.w3.org/Graphics/SVG/1.1/DTD/svg11.dtd">
<svg version="1.1" xmlns="http://www.w3.org/2000/svg" xmlns:xlink="http://www.w3.org/1999/xlink" x="0px" y="0px" width="216px" height="216px" viewBox="0 0 216 216" enable-background="new 0 0 216 216" xml:space="preserve">
<g>
	<path fill="#FFFFFF" d="M53.796,93.261c-0.572,0.572-0.572,1.43,0,1.86c0.572,0.572,1.43,0.572,1.859,0
		c0.573-0.573,0.573-1.431,0-1.86C55.083,92.69,54.225,92.69,53.796,93.261z"/>
	<path fill="#069860" d="M66.955,92.403h-5.722l-1.43,1.717c-0.286,0.287-0.143,0.43,0.143,0.572l1.86,0.858l5.292-2.431
		C67.527,92.976,67.384,92.403,66.955,92.403z M45.643,120.438h-7.009c-1.859,1.145-2.431,1.431-4.863,2.433
		c-0.143,0-0.286,0.286-0.143,0.429l6.293,17.595h3.576l-5.721-16.165c3.719,0,12.73-1,17.594-8.868
		C53.796,118.15,50.219,120.438,45.643,120.438z M55.655,95.121c-0.572,0.572-1.43,0.572-1.859,0c-0.572-0.573-0.572-1.431,0-1.86
		c0.572-0.572,1.43-0.572,1.859,0c-1.145-1.144-3.004-1.144-4.005,0c-1,1.145-1.144,2.861,0,4.005c1.145,1.145,3.005,1.145,4.005,0
		c1.001-1.145,1.145-2.86,0-4.005C56.084,93.833,56.084,94.548,55.655,95.121z M41.78,127.162l4.863,13.731h3.576l-5.149-14.447
		C44.212,126.732,43.067,126.875,41.78,127.162z M46.644,109.997c0.429-0.572,0.715-1.145,1.145-1.86
		c-0.143-0.143-0.286,0-0.429,0.143c-7.295,7.724-14.304,8.726-19.74,8.726h-8.296c-0.286,0-0.429-0.286-0.286-0.572
		c6.437-8.868,13.446-15.877,18.738-20.312l-13.875,11.586c-1.145,0.858-2.432,1.431-4.148,1.431H2.301
		c-0.429,0-0.286,0.429-0.286,0.715c1.145,3.719,4.578,7.152,10.299,7.152l-4.148,4.148c-0.143,0.143-0.143,0.571,0.286,0.571
		h15.591C35.201,121.726,42.209,116.863,46.644,109.997z"/>
	<path fill="#DB1F26" d="M202.27,140.894H215v-39.335h-12.73v14.446h-12.016v-14.446h-12.73v39.335h12.73v-14.876h12.016V140.894z
		 M51.649,97.267c-1.144-1.145-1.144-2.86,0-4.005c1.145-1.145,3.005-1.145,4.005,0c1.001,1.145,1.145,2.86,0,4.005
		S52.651,98.411,51.649,97.267z M55.226,115.861c4.864-7.867,6.581-20.312,6.581-20.312l-1.86-0.858
		c-0.286-0.143-0.286-0.286-0.143-0.572l1.43-1.717c-0.857-1.716-4.004-4.577-8.582-4.577c-2.718,0-5.149,0.715-7.295,2.146
		c0,0-3.147,2.145-7.581,6.007c-5.292,4.577-12.301,11.442-18.738,20.312c-0.143,0.286,0,0.572,0.287,0.572h8.296
		c5.435,0,12.444-1.002,19.739-8.726c0.144-0.143,0.286-0.143,0.43-0.143c0.143,0.143,0.143,0.286,0.143,0.43
		c-1.145,2.86-4.005,8.44-9.298,11.872h7.009C50.362,120.296,53.796,118.15,55.226,115.861L55.226,115.861z M48.074,125.303
		l5.435,15.448h15.449c-3.147-9.584-6.58-18.453-9.87-26.606C56.514,119.724,54.082,122.441,48.074,125.303z M1.158,140.894h15.591
		l5.292-16.449H6.879C5.019,129.307,3.16,134.743,1.158,140.894z M22.184,105.563l7.867-6.438c1.717-4.577,3.434-9.153,5.15-13.016
		c0.857,2.003,1.716,4.148,2.574,6.293c4.292-3.575,7.009-5.721,10.585-6.722c-2.146-4.721-3.719-8.153-4.435-9.583h-17.45
		c-1.431,3.147-7.009,14.733-13.589,30.324h6.294C20.467,106.421,21.469,106.278,22.184,105.563z M118.593,136.458l0.857,4.293
		h10.299v-39.193h-12.73v27.32c-1.145,1.287-3.29,2.719-5.292,2.719c-3.576,0-5.436-2.003-5.436-5.723v-24.316h-12.73v27.32
		c-1.145,1.287-3.576,2.719-5.722,2.719c-3.29,0-5.149-2.003-5.149-5.723v-24.316h-12.73v26.033c0,9.441,4.148,14.161,12.73,14.161
		c6.151,0,9.87-2.288,12.73-5.293c2.003,3.576,5.579,5.293,10.871,5.293C112.44,141.608,115.874,139.463,118.593,136.458z
		 M159.071,128.735c-1.145,1.287-3.004,2.717-6.15,2.717c-3.434,0-5.292-3.146-5.292-9.297c0-7.581,2.003-11.301,6.15-11.301
		c2.432,0,3.575,0.145,5.292,0.573V128.735L159.071,128.735z M148.486,141.608h0.43c5.722,0,9.584-2.003,11.729-5.149l0.716,4.292
		h10.442v-37.62c-4.148-1.287-9.013-2.432-17.88-2.432c-12.73,0-19.597,7.725-19.597,22.028
		C134.326,135.887,139.189,141.608,148.486,141.608L148.486,141.608z"/>
</g>
</svg>
