<?xml version="1.0" encoding="utf-8"?>
<!DOCTYPE svg PUBLIC "-//W3C//DTD SVG 1.1//EN" "http://www.w3.org/Graphics/SVG/1.1/DTD/svg11.dtd">
<svg version="1.1" xmlns="http://www.w3.org/2000/svg" xmlns:xlink="http://www.w3.org/1999/xlink" x="0px" y="0px" width="216px" height="216px" viewBox="0 0 216 216" enable-background="new 0 0 216 216" xml:space="preserve">

	<g>
		<polygon fill="#ED1B2F" points="28.444,102.101 22.875,102.101 22.875,123.926 37.955,123.926 37.955,119.227 28.444,119.227 		
			"/>
		<path fill="#ED1B2F" d="M49.322,102.101h-7.426v21.862h7.918c4.585,0,7.389-2.312,8.374-3.296
			c1.933-1.932,2.842-4.357,2.842-7.578c0-3.335-1.022-6.024-3.031-7.957C55.915,103.086,53.073,102.101,49.322,102.101
			 M53.566,117.635c-1.44,1.403-3.373,1.593-4.851,1.593h-1.212v-12.428h1.439c1.515,0,3.258,0.152,4.584,1.402
			c1.099,1.023,1.743,2.803,1.743,4.85C55.27,115.477,54.323,116.878,53.566,117.635"/>
		<path fill="#ED1B2F" d="M83.953,104.943L83.953,104.943c-2.083-2.046-5.153-3.221-8.375-3.221c-3.22,0-6.289,1.175-8.373,3.221
			c-2.122,2.045-3.335,5-3.335,8.109c0,3.068,1.212,5.985,3.335,8.07c2.083,2.045,5.153,3.22,8.373,3.22
			c3.222,0,6.291-1.175,8.375-3.22c2.122-2.085,3.334-5.002,3.334-8.07C87.325,109.943,86.113,106.988,83.953,104.943
			 M79.937,117.295C78.838,118.432,77.36,119,75.618,119c-1.705,0-3.221-0.606-4.358-1.744c-0.795-0.756-1.705-2.082-1.705-4.091
			c0-1.667,0.645-3.222,1.705-4.319c1.099-1.099,2.69-1.743,4.358-1.743c1.591,0,3.183,0.644,4.319,1.743
			c1.1,1.098,1.743,2.614,1.743,4.206C81.68,114.604,81.036,116.158,79.937,117.295"/>
		<path fill="#ED1B2F" d="M178.375,104.943L178.375,104.943c-2.085-2.046-5.153-3.221-8.374-3.221s-6.29,1.175-8.374,3.221
			c-2.122,2.045-3.334,5-3.334,8.109c0,3.068,1.212,5.985,3.334,8.07c2.084,2.045,5.153,3.22,8.374,3.22s6.289-1.175,8.374-3.22
			c2.121-2.085,3.333-5.002,3.333-8.07C181.708,109.943,180.496,106.988,178.375,104.943 M174.319,117.295
			c-1.098,1.137-2.576,1.705-4.318,1.705c-1.706,0-3.221-0.606-4.358-1.744c-0.796-0.756-1.704-2.082-1.704-4.091
			c0-1.667,0.606-3.222,1.704-4.319c1.099-1.099,2.69-1.743,4.358-1.743c1.591,0,3.183,0.644,4.318,1.743
			c1.1,1.098,1.743,2.614,1.743,4.206C176.063,114.604,175.419,116.158,174.319,117.295"/>
		<path fill="#ED1B2F" d="M152.798,120.629c1.934-1.933,2.842-4.357,2.842-7.577c0-3.335-1.021-6.025-3.03-7.958
			c-2.085-2.045-4.964-3.031-8.678-3.031h-7.426v21.863h7.919C149.01,123.926,151.813,121.613,152.798,120.629 M142.075,119.227
			v-12.427h1.441c1.515,0,3.258,0.151,4.583,1.402c1.101,1.022,1.744,2.804,1.744,4.851c0,2.425-0.91,3.826-1.705,4.546
			c-1.439,1.402-3.373,1.592-4.851,1.592h-1.213V119.227z"/>
		<path fill="#ED1B2F" d="M119.342,102.101l-8.374,21.862h5.911l1.478-3.675l0.189-0.531c1.25,0.341,2.538,0.531,3.865,0.531
			c1.326,0,2.614-0.19,3.826-0.531l0.189,0.531l1.364,3.675h5.949l-8.223-21.862H119.342z M124.684,115.438
			c-0.757,0.188-1.553,0.303-2.349,0.303s-1.554-0.076-2.311-0.266l2.311-6.783L124.684,115.438z"/>
		<path fill="#ED1B2F" d="M104.641,115.135c0.985-0.568,1.781-1.478,2.311-2.577c0.493-0.985,0.758-2.159,0.758-3.372
			c0-0.871-0.114-1.667-0.341-2.425c-0.569-1.97-1.895-3.486-3.752-4.206c-1.022-0.379-2.159-0.531-4.357-0.531h-8.601v4.736v5.759
			v11.366h5.38v-6.895c0,0,1.516,0.151,2.084,0.151c0.493,0,0.985-0.038,1.478-0.075l3.979,6.896h5.986l-5.229-8.564
			C104.375,115.287,104.527,115.211,104.641,115.135 M102.216,109.604c0,1.137-0.493,1.97-1.25,2.424
			c-0.909,0.53-1.895,0.607-2.88,0.607c-0.72,0-1.439-0.114-2.084-0.304v-5.532h2.424c0.266,0,1.668,0,2.388,0.303
			C101.686,107.481,102.216,108.201,102.216,109.604C102.216,109.564,102.216,109.604,102.216,109.604"/>
		<polygon fill="#ED1B2F" points="2.528,123.926 17.57,123.926 17.57,119.227 8.098,119.227 8.098,115.324 17.191,115.324 
			17.191,110.589 8.098,110.589 8.098,106.799 17.57,106.799 17.57,102.101 2.528,102.101 		"/>
	</g>
	<g>
		<g>
			<rect x="205.465" y="95.508" fill="#ED1B2F" width="3.676" height="6.29"/>
			<rect x="205.465" y="101.76" fill="#ED1B2F" width="9.89" height="3.675"/>
		</g>
		<g>
			<rect x="205.465" y="101.76" fill="#ED1B2F" width="3.676" height="22.127"/>
			<rect x="187.051" y="101.76" fill="#ED1B2F" width="22.128" height="3.675"/>
			<rect x="187.051" y="120.212" fill="#ED1B2F" width="22.128" height="3.676"/>
			<rect x="187.051" y="101.76" fill="#ED1B2F" width="3.675" height="22.127"/>
			<g>
				<path fill="#ED1B2F" d="M201.639,109.943h-1.63l-2.198,5.76h1.555l0.379-0.985l0.037-0.152c0.342,0.076,0.683,0.152,1.023,0.152
					s0.683-0.038,1.022-0.152l0.038,0.152l0.342,0.985h1.591L201.639,109.943z M200.843,113.543c-0.19,0-0.417-0.038-0.605-0.075
					l0.605-1.781l0.606,1.781C201.26,113.505,201.032,113.543,200.843,113.543"/>
				<path fill="#ED1B2F" d="M195.803,109.943v3.26v0.302c0,0.493-0.378,0.909-0.871,0.947c-0.037,0-0.037,0-0.075,0
					c-0.039,0-0.039,0-0.076,0c-0.492-0.038-0.872-0.454-0.872-0.947l-0.037-0.34v-3.183h-1.478v3.183v0.113
					c0,1.022,0.53,1.667,0.758,1.895c0.416,0.454,0.984,0.644,1.705,0.644l0,0l0,0c0.72,0,1.25-0.189,1.705-0.644
					c0.228-0.228,0.757-0.872,0.757-1.895v-0.075v-3.223L195.803,109.943z"/>
			</g>
		</g>
	</g>

</svg>
