<?xml version="1.0" encoding="utf-8"?>
<!DOCTYPE svg PUBLIC "-//W3C//DTD SVG 1.1//EN" "http://www.w3.org/Graphics/SVG/1.1/DTD/svg11.dtd">
<svg version="1.1" xmlns="http://www.w3.org/2000/svg" xmlns:xlink="http://www.w3.org/1999/xlink" x="0px" y="0px" width="216px" height="216px" viewBox="0 0 216 216" enable-background="new 0 0 216 216" xml:space="preserve">
<path fill="#E95F29" d="M24.035,94.156h-1.204V91.08h-7.356v3.076h-1.336c-8.024,0-13.105,4.012-13.105,11.233v1.337
	c0,7.088,4.948,11.1,13.239,11.1h1.203v3.075h7.355v-3.075h1.204c8.157,0,13.239-4.012,13.239-11.233v-1.337
	c0-7.355-5.082-11.233-13.239-11.233L24.035,94.156L24.035,94.156z M13.871,112.609c-3.61,0-5.483-2.271-5.483-6.285v-0.535
	c0-4.012,1.872-6.286,5.483-6.286h1.604v12.973h-1.604V112.609z M29.918,106.325c0,4.013-2.006,6.284-5.617,6.284h-1.471V99.504
	h1.471c3.61,0,5.617,2.14,5.617,6.286V106.325z M52.25,99.639c-7.086,0-11.901,4.414-11.901,10.699
	c0,6.419,4.815,10.698,11.901,10.698c7.089,0,11.903-4.279,11.903-10.698C64.153,104.052,59.34,99.639,52.25,99.639z M52.25,115.687
	c-3.075,0-5.081-2.142-5.081-5.349c0-3.211,2.006-5.35,5.081-5.35c2.943,0,5.083,2.139,5.083,5.35
	C57.333,113.545,55.193,115.687,52.25,115.687z M91.033,100.041h-7.755l-8.024,9.627v-9.627h-6.687v20.593h6.687v-9.628l8.024,9.628
	h8.292l-9.362-10.697L91.033,100.041z M103.737,104.988c2.274,0,3.878,1.337,4.413,3.209h6.686
	c-0.533-5.081-4.68-8.559-10.965-8.559c-7.086,0-11.901,4.415-11.901,10.699c0,6.419,4.815,10.698,12.036,10.698
	c6.15,0,10.297-3.478,10.698-8.427h-6.554c-0.554,1.961-2.377,3.288-4.413,3.212c-2.942,0-4.949-2.275-4.949-5.349
	C98.79,107.127,100.795,104.988,103.737,104.988z M116.576,100.041v5.482h7.488v15.111h6.687v-15.111h7.354v-5.35h-21.396
	L116.576,100.041z M154.421,99.906c-2.675,0-5.081,1.07-6.686,3.076v-2.941h-6.286v26.746h6.687v-8.559
	c1.604,1.604,3.744,2.674,6.286,2.674c6.15,0,10.298-4.412,10.298-10.563C164.719,104.186,160.572,99.906,154.421,99.906z
	 M152.816,115.82c-2.942,0-5.081-2.275-5.081-5.35c0-3.344,2.139-5.482,5.081-5.482c3.076,0,5.081,2.139,5.081,5.35
	c0,3.207-2.005,5.349-5.081,5.349V115.82z M179.83,99.639c-7.088,0-11.903,4.414-11.903,10.699c0,6.419,4.815,10.698,11.903,10.698
	s11.901-4.279,11.901-10.698c0-6.286-4.813-10.699-12.036-10.699H179.83z M179.83,115.687c-3.075,0-5.082-2.142-5.082-5.349
	c0-3.211,2.007-5.35,5.082-5.35c2.941,0,5.081,2.139,5.081,5.35C184.911,113.545,182.771,115.687,179.83,115.687z M193.604,100.041
	v5.482h7.354v15.111h6.688v-15.111H215v-5.35h-21.396V100.041L193.604,100.041z"/>
</svg>
