<?xml version="1.0" encoding="utf-8"?>
<!DOCTYPE svg PUBLIC "-//W3C//DTD SVG 1.1//EN" "http://www.w3.org/Graphics/SVG/1.1/DTD/svg11.dtd">
<svg version="1.1" xmlns="http://www.w3.org/2000/svg" xmlns:xlink="http://www.w3.org/1999/xlink" x="0px" y="0px" width="216px" height="216px" viewBox="0 0 216 216" enable-background="new 0 0 216 216" xml:space="preserve">
<path fill="#FFFFFF" d="M204.095,115.334c3.082-3.083,3.082-8.083,0-11.167l-90.751-90.751c-3.083-3.083-8.082-3.083-11.167,0
	L13.03,102.563c-3.083,3.082-3.082,8.08,0,11.166l90.751,90.75c3.083,3.082,8.083,3.082,11.165,0L204.095,115.334L204.095,115.334z"
	/>
<path fill="#E13B3F" d="M106.567,107.41l-43.421,43.42c-2.311,2.313-6.06,2.313-8.373,0l-38.117-38.115
	c-2.313-2.312-2.313-6.062,0-8.375l43.42-43.421L106.567,107.41L106.567,107.41z"/>
<path fill="#E13B3F" d="M62.875,58.123l40.504-40.504c2.312-2.313,6.061-2.313,8.371-0.001l38.12,38.116
	c2.309,2.313,2.309,6.063,0,8.375l-40.506,40.505L62.875,58.123L62.875,58.123z"/>
<path fill="#0A78A9" d="M200.479,114.737c2.313-2.312,2.313-6.061,0-8.373L161.095,66.98c-2.313-2.313-6.063-2.313-8.374,0
	l-86.772,86.771c-2.314,2.315-2.313,6.063,0,8.375l39.383,39.386c2.312,2.31,6.063,2.31,8.375,0L200.479,114.737L200.479,114.737z"
	/>
<path fill="#FFFFFF" d="M71.97,159.633l4.617-4.615c4.186-4.188,9.689-5.102,15.416,0.628c4.632,4.63,4.952,10.179,1.298,13.836
	l-5.741,5.738L71.97,159.633L71.97,159.633z M87.421,166.019l0.28-0.283c1.505-1.506,1.795-3.531-0.253-5.578
	c-2.191-2.192-4.13-2.112-5.784-0.459l-0.281,0.281L87.421,166.019L87.421,166.019z"/>
<path fill="#FFFFFF" d="M105.728,146.345c3.64,3.64,3.021,8.185,0.275,10.931c-2.746,2.745-7.291,3.362-10.93-0.278
	c-3.844-3.848-3.44-8.305-0.545-11.198C97.424,142.902,101.882,142.498,105.728,146.345L105.728,146.345z M99.126,152.778
	c0.869,0.869,2.039,0.981,2.7,0.32c0.664-0.663,0.551-1.833-0.317-2.702c-0.89-0.888-2.093-1.134-2.804-0.42
	C97.995,150.688,98.237,151.892,99.126,152.778L99.126,152.778z"/>
<path fill="#FFFFFF" d="M107.454,137.257l0.133-0.132c-0.996-1.691-0.768-3.616,0.357-4.74c1.257-1.257,2.981-1.287,4.85-0.177
	l0.1-0.1c-1.033-2.028-1.029-3.645,0.327-5.001c2.099-2.099,5.054-1,7.43,1.376l6.825,6.823l-4.136,4.136l-5.441-5.438
	c-0.64-0.641-1.467-1.467-2.093-0.837c-0.614,0.609,0.213,1.437,0.854,2.079l5.438,5.438l-4.135,4.136l-5.438-5.436
	c-0.642-0.643-1.468-1.469-2.098-0.842c-0.612,0.612,0.215,1.441,0.855,2.08l5.438,5.439l-4.136,4.135l-10.979-10.979l4.037-4.035
	L107.454,137.257L107.454,137.257z"/>
<path fill="#FFFFFF" d="M118.515,122.312l4.269-4.27l10.978,10.978l-4.268,4.27L118.515,122.312L118.515,122.312z M119.605,114.436
	c1.798,1.799,1.459,3.711,0.238,4.934c-1.225,1.225-3.137,1.566-4.933-0.235c-1.593-1.591-1.557-3.572-0.218-4.911
	C116.034,112.883,118.016,112.846,119.605,114.436L119.605,114.436z"/>
<path fill="#FFFFFF" d="M130.475,113.864l0.099-0.101c-0.369-2.026-0.548-3.459,0.823-4.834c2.184-2.183,5.091-0.997,7.511,1.423
	l6.761,6.759l-4.268,4.269l-5.356-5.355c-0.641-0.641-1.55-1.553-2.276-0.821c-0.712,0.711,0.196,1.619,0.839,2.262l5.357,5.354
	l-4.27,4.269l-10.98-10.978l4.169-4.171L130.475,113.864L130.475,113.864z"/>
<path fill="#FFFFFF" d="M152.371,99.7c3.641,3.639,3.023,8.184,0.278,10.932c-2.746,2.742-7.292,3.362-10.931-0.279
	c-3.845-3.846-3.44-8.303-0.546-11.199C144.071,96.259,148.525,95.854,152.371,99.7L152.371,99.7z M145.771,106.135
	c0.866,0.868,2.04,0.979,2.699,0.318c0.664-0.662,0.551-1.833-0.316-2.701c-0.892-0.889-2.095-1.132-2.806-0.421
	C144.639,104.042,144.881,105.245,145.771,106.135L145.771,106.135z"/>
<polygon fill="#FFFFFF" points="150.159,94.862 144.242,85.405 148.525,81.121 153.122,91.899 "/>
<path fill="#FFFFFF" d="M159.45,94.772l0.469-0.058c1.052-0.14,2.471-0.442,3.198-1.17c0.28-0.28,0.441-0.814,0.029-1.228
	c-0.601-0.599-1.133-0.108-1.543,0.176c-1.671,1.174-3.719,1.775-5.786-0.293c-2.749-2.749-1.628-6.062,0.259-7.947
	c1.091-1.091,2.716-2.18,4.336-2.477l1.999,4.08c-1.043,0.051-2.184,0.364-2.88,1.06c-0.264,0.264-0.507,0.716-0.115,1.108
	c0.54,0.539,1.044,0.115,1.765-0.355c1.833-1.212,3.734-1.792,5.946,0.42c2.851,2.854,1.765,6.299-0.22,8.284
	c-1.394,1.39-3.285,2.208-5.239,2.8L159.45,94.772L159.45,94.772z"/>
<path fill="#FFFFFF" d="M93.233,180.468l5.739-5.741c2.911-2.911,6.922-3.202,10.79,0.665c3.183,3.186,3.578,6.756,1.047,9.288
	l-2.315,2.316l4.694,4.693l-4.367,4.368L93.233,180.468L93.233,180.468z M104.568,183.067l0.446-0.445
	c0.795-0.795,1.489-1.819,0.228-3.084c-1.219-1.22-2.208-0.354-2.954,0.39l-0.428,0.43L104.568,183.067L104.568,183.067z"/>
<path fill="#FFFFFF" d="M110.297,172.625l4.267-4.269l10.979,10.979l-4.268,4.268L110.297,172.625L110.297,172.625z M111.39,164.751
	c1.798,1.797,1.457,3.709,0.236,4.935c-1.228,1.221-3.137,1.563-4.935-0.236c-1.593-1.593-1.555-3.574-0.216-4.914
	C107.816,163.194,109.797,163.161,111.39,164.751L111.39,164.751z"/>
<polygon fill="#FFFFFF" points="128.259,165.577 128.734,167.873 128.856,167.999 129.612,166.998 132.042,164.566 136.178,168.7 
	126.914,177.963 126.169,177.22 123.847,169.701 123.48,167.586 123.397,167.502 122.566,168.622 120.5,170.69 116.364,166.556 
	125.415,157.506 126.035,158.129 "/>
<polygon fill="#FFFFFF" points="138.268,155.569 138.742,157.866 138.867,157.992 139.619,156.99 142.049,154.557 146.186,158.691 
	136.922,167.955 136.178,167.209 133.854,159.693 133.49,157.577 133.408,157.495 132.577,158.616 130.509,160.683 126.374,156.547 
	135.423,147.497 136.042,148.12 "/>
<path fill="#FFFFFF" d="M152.563,149.422l-0.099,0.098c0.258,1.812,0.223,3.167-0.985,4.373c-2.383,2.384-6.726,0.69-9.393-1.979
	c-2.768-2.771-4.447-7.129-1.965-9.61c1.06-1.06,2.41-1.46,4.113-1.013l0.102-0.102l-1.437-1.17l4.186-4.187l10.976,10.981
	l-4.183,4.184L152.563,149.422L152.563,149.422z M148.939,148.081c0.813-0.812,0.337-1.947-0.512-2.796
	c-0.848-0.847-1.931-1.004-2.606-0.326c-0.68,0.678-0.406,1.812,0.399,2.619C147.089,148.443,148.164,148.859,148.939,148.081
	L148.939,148.081z"/>
<path fill="#FFFFFF" d="M145.715,125.849c1.556-1.733,4.189-2.167,6.134-0.425c1.948,1.748,1.82,4.424,0.266,6.16
	c-1.56,1.738-4.203,2.158-6.154,0.41C144.018,130.254,144.154,127.586,145.715,125.849L145.715,125.849z M151.431,130.97
	c1.187-1.324,1.101-3.363-0.364-4.675c-1.455-1.302-3.481-1.158-4.671,0.168c-1.204,1.343-1.107,3.357,0.346,4.659
	C148.205,132.432,150.225,132.313,151.431,130.97L151.431,130.97z M145.966,128.376l1.212-1.354c0.804-0.9,1.539-1.15,2.316-0.453
	c0.66,0.591,0.549,1.231,0.115,1.8l2.423,0.442l-0.666,0.747l-2.312-0.502l-0.399,0.445l1.53,1.376l-0.637,0.709L145.966,128.376
	L145.966,128.376z M148.099,129.004l0.568-0.634c0.359-0.4,0.57-0.754,0.132-1.143c-0.385-0.346-0.813,0.01-1.103,0.337l-0.538,0.6
	L148.099,129.004L148.099,129.004z"/>
<path fill="#FFFFFF" d="M50.666,117.799c4.327-4.326,4.327-11.34,0-15.667c-4.326-4.326-11.339-4.326-15.666,0
	c-4.326,4.327-4.326,11.34,0,15.667C39.327,122.127,46.339,122.127,50.666,117.799L50.666,117.799z"/>
<path fill="#FFFFFF" d="M83.94,117.799c4.327-4.326,4.327-11.34,0-15.667c-4.325-4.326-11.34-4.326-15.666,0
	c-4.326,4.327-4.326,11.34,0,15.667C72.601,122.127,79.615,122.127,83.94,117.799L83.94,117.799z"/>
<path fill="#FFFFFF" d="M116.166,67.101c4.325-4.326,4.325-11.34,0-15.667c-4.326-4.327-11.34-4.327-15.667,0
	c-4.326,4.326-4.326,11.34,0,15.667C104.824,71.428,111.84,71.428,116.166,67.101L116.166,67.101z"/>
</svg>
