<?xml version="1.0" encoding="utf-8"?>
<!DOCTYPE svg PUBLIC "-//W3C//DTD SVG 1.1//EN" "http://www.w3.org/Graphics/SVG/1.1/DTD/svg11.dtd">
<svg version="1.1" xmlns="http://www.w3.org/2000/svg" xmlns:xlink="http://www.w3.org/1999/xlink" x="0px" y="0px" width="216px" height="216px" viewBox="0 0 216 216" enable-background="new 0 0 216 216" xml:space="preserve">
<g>
	<path id="Path_4" fill="#FF2F2B" d="M17.7,91.371c0,12.882-10.792,15.293-10.792,27.676c0,4.833,3.047,9.02,6.643,9.52
		c-0.263-0.881-0.349-1.562-0.349-2.513c0-8.938,14.366-11.71,14.366-26.954c0-7.29-5.141-13.452-11.14-14.916
		c0,0,1.267,3.957,1.267,7.184L17.7,91.371z"/>
	<path id="Path_5" fill="#6EC248" d="M16.79,126.595c0,2.529,1.792,5.224,4.128,6.101c-0.124-0.373-0.18-0.701-0.18-1.251
		c0-4.981,14.735-6.568,14.735-19.586c0-3.599-1.505-7.506-4.485-10.069C28.971,116.586,16.79,118.624,16.79,126.595z"/>
	<path id="Path_6" fill="#33ADE1" d="M9.069,88.316c0,0,0.709,1.275,0.709,2.698c0,4.571-4.317,6.314-4.317,10.959
		c0,2.194,1.193,3.994,2.878,5.039c0.045-0.397,0.086-0.771,0.188-1.082c1.008-3.227,5.74-6.798,5.74-11.861
		C14.268,91.035,11.751,88.538,9.069,88.316z"/>
	<path id="Path_7" fill="#0C0C0C" d="M55.94,114.868c2.792,2.518,5.441,3.998,9.262,3.998c2.12,0,5.982-0.895,5.982-3.682
		c0-1.612-1.214-2.428-3.588-2.829l-6.662-1.083c-5.929-0.938-9.172-4.087-9.172-8.807c0-7.725,6.252-10.922,13.087-10.922
		c5.306,0,10.525,2.157,14.116,6.158l-6.072,4.358c-2.116-2.563-5.219-4.051-8.589-4.051c-1.833,0-4.539,1.168-4.539,3.239
		c0,1.706,1.398,2.563,4.448,3.059l3.067,0.492c6.38,1.033,11.644,3.009,11.644,9.118c0,9.623-8.684,11.427-14.657,11.427
		c-5.437,0-10.541-1.759-14.908-6.52L55.94,114.868z M98.609,125.348c-10.213,0-16.191-7.917-16.191-16.912
		c0-8.979,5.978-16.892,16.191-16.892c10.2,0,16.174,7.913,16.174,16.892C114.783,117.427,108.806,125.348,98.609,125.348
		L98.609,125.348z M98.609,98.28c-4.683,0-8.184,2.973-8.184,10.156c0,4.682,1.89,10.168,8.184,10.168
		c5.929,0,8.18-5.219,8.18-10.168C106.789,103.405,104.538,98.28,98.609,98.28z M140.954,103.098
		c-1.128-2.973-3.87-4.822-6.667-4.822c-4.395,0-7.896,2.981-7.896,10.164c0,4.678,1.887,10.164,8.184,10.164
		c2.157,0,5.306-1.615,6.561-4.498l6.338,3.06c-2.742,4.989-7.507,8.179-12.898,8.179c-10.213,0-16.194-7.913-16.194-16.904
		c0-8.979,5.579-16.892,15.559-16.892c6.29,0,10.423,3.054,13.396,8.352L140.954,103.098z M159.929,92.449h8.271l12.095,31.993
		H171.7l-1.616-5.031h-11.816l-1.623,5.031h-8.532L159.929,92.449z M168.149,113.475l-3.948-13.21h-0.086l-3.961,13.21H168.149z
		 M183.467,92.445h16.002c7.195,0,11.607,3.329,11.607,10.513c0,4.141-2.611,7.458-6.617,8.63l7.339,12.854h-8.954l-6.294-11.505
		h-5.075v11.505h-8.008V92.445z M191.475,106.992h7.326c2.563-0.037,4.272-1.332,4.272-4.305s-1.71-4.272-4.272-4.317h-7.326
		V106.992z"/>
</g>
</svg>
