<?xml version="1.0" encoding="utf-8"?>
<!DOCTYPE svg PUBLIC "-//W3C//DTD SVG 1.1//EN" "http://www.w3.org/Graphics/SVG/1.1/DTD/svg11.dtd">
<svg version="1.1" xmlns="http://www.w3.org/2000/svg" xmlns:xlink="http://www.w3.org/1999/xlink" x="0px" y="0px" width="216px" height="216px" viewBox="0 0 216 216" enable-background="new 0 0 216 216" xml:space="preserve">
<g>
	<path fill="#010202" d="M14.937,128.966c0.889,2.359,2.12,4.376,3.692,6.051c1.573,1.675,3.436,2.956,5.589,3.846
		c2.153,0.889,4.495,1.333,7.024,1.333c2.461,0,4.769-0.462,6.922-1.385c2.153-0.923,4.034-2.222,5.64-3.896
		c1.606-1.675,2.854-3.676,3.743-5.999c0.889-2.325,1.333-4.923,1.333-7.795V76.819h10.768v71.786H48.984v-6.665
		c-2.393,2.528-5.213,4.478-8.461,5.845s-6.751,2.051-10.511,2.051c-3.829,0-7.401-0.666-10.717-1.999
		c-3.316-1.334-6.188-3.231-8.614-5.692c-2.427-2.461-4.342-5.417-5.743-8.87s-2.103-7.299-2.103-11.537V76.819h10.768v44.301
		C13.604,123.992,14.048,126.607,14.937,128.966z"/>
	<path fill="#010202" d="M78.21,76.819v26.15c2.393-2.393,5.162-4.29,8.307-5.691c3.145-1.402,6.563-2.102,10.255-2.102
		c3.829,0,7.417,0.717,10.768,2.153c3.349,1.435,6.255,3.384,8.716,5.845c2.462,2.461,4.41,5.367,5.846,8.716
		c1.437,3.351,2.153,6.906,2.153,10.666s-0.717,7.298-2.153,10.613c-1.436,3.316-3.384,6.205-5.846,8.666
		c-2.461,2.461-5.367,4.409-8.716,5.846c-3.351,1.436-6.939,2.153-10.768,2.153c-3.692,0-7.127-0.701-10.307-2.103
		s-5.965-3.299-8.358-5.691v6.563H67.853V76.819H78.21z M79.389,129.633c0.923,2.188,2.205,4.103,3.846,5.742
		c1.641,1.642,3.555,2.939,5.743,3.897c2.188,0.957,4.546,1.437,7.076,1.437c2.461,0,4.786-0.479,6.973-1.437
		c2.188-0.957,4.085-2.256,5.692-3.897c1.606-1.64,2.888-3.554,3.845-5.742s1.436-4.546,1.436-7.076
		c0-2.529-0.479-4.905-1.436-7.127c-0.957-2.223-2.239-4.153-3.845-5.795c-1.607-1.64-3.504-2.922-5.692-3.846
		c-2.188-0.922-4.512-1.384-6.973-1.384s-4.786,0.461-6.974,1.384c-2.188,0.924-4.102,2.206-5.743,3.846
		c-1.641,1.642-2.939,3.572-3.896,5.795c-0.957,2.222-1.436,4.598-1.436,7.127C78.005,125.087,78.467,127.444,79.389,129.633z"/>
	<path fill="#010202" d="M130.1,111.994c1.367-3.282,3.247-6.17,5.641-8.667c2.393-2.495,5.229-4.46,8.512-5.896
		c3.281-1.435,6.836-2.152,10.664-2.152c3.761,0,7.247,0.683,10.461,2.05c3.213,1.368,5.982,3.265,8.307,5.692
		c2.325,2.426,4.137,5.299,5.435,8.614c1.3,3.316,1.949,6.922,1.949,10.819v3.384H138.51c0.341,2.12,1.025,4.086,2.05,5.896
		c1.026,1.813,2.309,3.385,3.846,4.718c1.539,1.333,3.281,2.376,5.23,3.128c1.948,0.752,4.016,1.129,6.204,1.129
		c6.222,0,11.246-2.564,15.075-7.692l7.486,5.537c-2.598,3.487-5.812,6.223-9.64,8.205c-3.828,1.981-8.136,2.974-12.922,2.974
		c-3.896,0-7.537-0.684-10.922-2.051c-3.384-1.367-6.323-3.282-8.818-5.742c-2.495-2.462-4.461-5.351-5.897-8.666
		c-1.436-3.316-2.152-6.923-2.152-10.819C128.049,118.763,128.732,115.275,130.1,111.994z M144.508,107.943
		c-2.905,2.427-4.837,5.657-5.794,9.69h31.894c-0.889-4.033-2.786-7.264-5.691-9.69c-2.906-2.427-6.307-3.641-10.204-3.641
		C150.815,104.303,147.413,105.516,144.508,107.943z"/>
	<path fill="#010202" d="M200.448,109.122c-2.188,2.393-3.281,5.641-3.281,9.742v29.74H186.81V96.303h10.255v6.461
		c1.299-2.12,2.991-3.795,5.076-5.025c2.085-1.231,4.563-1.846,7.436-1.846h3.589v9.64h-4.307
		C205.439,105.533,202.636,106.729,200.448,109.122z"/>
</g>
</svg>
