<?xml version="1.0" encoding="utf-8"?>
<!DOCTYPE svg PUBLIC "-//W3C//DTD SVG 1.1//EN" "http://www.w3.org/Graphics/SVG/1.1/DTD/svg11.dtd">
<svg version="1.1" xmlns="http://www.w3.org/2000/svg" xmlns:xlink="http://www.w3.org/1999/xlink" x="0px" y="0px" width="216px" height="216px" viewBox="0 0 216 216" enable-background="new 0 0 216 216" xml:space="preserve">
<g>
	<path fill="#256BB1" d="M43.259,21.668h133.3c10.732,0,19.434,8.701,19.434,19.433v133.301c0,10.732-8.701,19.433-19.434,19.433
		h-133.3c-10.732,0-19.433-8.7-19.433-19.433V41.101C23.826,30.369,32.526,21.668,43.259,21.668z"/>
	<path fill="#FEFEFE" d="M109.902,30.706c42.553,0,77.053,34.486,77.053,77.038c0,42.554-34.5,77.054-77.053,77.054
		c-42.554,0-77.039-34.5-77.039-77.054C32.863,65.191,67.349,30.706,109.902,30.706z"/>
	<polygon fill="#C32328" points="79.491,88.714 89.18,88.714 89.18,126.678 79.491,126.678 79.491,121.549 62.151,121.549 
		71.882,112.263 79.491,112.263 79.491,102.2 52.573,127.551 52.573,114.162 	"/>
	<polygon fill="#C32328" points="99.784,98.707 91.827,98.707 91.827,88.769 126.577,88.769 116.126,98.707 110.221,98.707 
		110.221,126.721 99.784,126.721 	"/>
	<path fill="#C32328" d="M129.002,97.902h19.405l9.62-9.134h-29.025l-9.634,9.134v28.818h22.095
		c1.387-0.015,2.688-0.348,3.895-0.985c1.22-0.652,2.287-1.524,3.202-2.647c0.93-1.108,1.649-2.37,2.177-3.783
		c0.512-1.429,0.789-2.925,0.789-4.478c0-1.761-0.263-3.368-0.789-4.796c-0.514-1.428-1.234-2.647-2.149-3.659
		c-0.93-1.026-1.996-1.816-3.23-2.357c-1.219-0.554-2.522-0.831-3.949-0.831h-10.313v9.121h8.413
		c0.762,0.014,1.344,0.263,1.761,0.734c0.415,0.472,0.638,1.095,0.638,1.885c0,0.513-0.098,0.971-0.291,1.373
		c-0.182,0.402-0.458,0.706-0.817,0.941c-0.361,0.235-0.79,0.347-1.29,0.347h-10.507L129.002,97.902L129.002,97.902z"/>
	<path fill="#256BB1" d="M159.829,61.352l-6.987,19.668c-13.972-19.835-39.987-14.193-72.27,4.768
		C102.916,63.098,128.794,53.008,159.829,61.352z"/>
	<path fill="#256BB1" d="M59.975,154.137l6.986-19.669c13.972,19.835,39.988,14.193,72.271-4.769
		C116.888,152.391,91.01,162.481,59.975,154.137z"/>
	<path fill="#256BB1" d="M154.201,55.544C104.662,8.806,17.519,64.097,46.655,133.289C48.484,81.658,114.032,45.412,154.201,55.544z
		"/>
	<path fill="#256BB1" d="M65.602,159.944c49.539,46.739,136.683-8.553,107.546-77.745
		C171.319,133.831,105.771,170.076,65.602,159.944z"/>
</g>
</svg>
