<?xml version="1.0" encoding="utf-8"?>
<!DOCTYPE svg PUBLIC "-//W3C//DTD SVG 1.1//EN" "http://www.w3.org/Graphics/SVG/1.1/DTD/svg11.dtd">
<svg version="1.1" xmlns="http://www.w3.org/2000/svg" xmlns:xlink="http://www.w3.org/1999/xlink" x="0px" y="0px" width="216px" height="216px" viewBox="0 0 216 216" enable-background="new 0 0 216 216" xml:space="preserve">
<path fill-rule="evenodd" clip-rule="evenodd" d="M129.913,130.385h14.86v11.064h-14.86V130.385
	L129.913,130.385z M103.033,130.385h14.864v11.064h-14.864V130.385L103.033,130.385z M74.578,146.034H89.44V157.1H74.578V146.034
	L74.578,146.034z M103.033,146.034h14.864V157.1h-14.864V146.034L103.033,146.034z M16.121-0.08h183.6
	c8.912,0,16.199,7.29,16.199,16.198v183.603c0,8.908-7.287,16.199-16.199,16.199h-183.6c-8.911,0-16.201-7.291-16.201-16.199V16.118
	C-0.08,7.209,7.209-0.08,16.121-0.08L16.121-0.08z M16.121,4.919h183.6c6.161,0,11.199,5.04,11.199,11.199v183.603
	c0,6.161-5.038,11.199-11.199,11.199h-183.6c-6.16,0-11.202-5.038-11.202-11.199V16.118C4.919,9.958,9.96,4.919,16.121,4.919
	L16.121,4.919z M35.886,154.291v-42.85c0-40.375,30.447-73.714,71.462-73.714c40.705,0,73.713,33.012,73.713,73.714v42.85h-9.428
	v-42.85c0-35.5-28.784-64.284-64.285-64.284c-35.498,0-62.034,28.792-62.034,64.284v42.85H35.886L35.886,154.291z M187.144,193.87
	c-0.636,3.931-4.064,6.955-8.167,6.955H37.042c-4.104,0-7.532-3.029-8.168-6.955H92.72v-14.66h30.126v14.66H187.144L187.144,193.87z
	"/>
</svg>
