<?xml version="1.0" encoding="utf-8"?>
<!DOCTYPE svg PUBLIC "-//W3C//DTD SVG 1.1//EN" "http://www.w3.org/Graphics/SVG/1.1/DTD/svg11.dtd">
<svg version="1.1" xmlns="http://www.w3.org/2000/svg" xmlns:xlink="http://www.w3.org/1999/xlink" x="0px" y="0px" width="216px" height="216px" viewBox="0 0 216 216" enable-background="new 0 0 216 216" xml:space="preserve">
<path fill-rule="evenodd" clip-rule="evenodd" d="M107.351,88.462h40.145v11.503h-40.145V88.462
	L107.351,88.462z M66.203,163.271h85.208v-42.127H66.203V163.271L66.203,163.271z M104.51,80.21h45.824
	c2.976,0,5.408,2.433,5.408,5.41l0.004,17.186c0,2.974-2.437,5.41-5.412,5.41H136.33v3.499h18.11c3.521,0,6.396,2.88,6.396,6.399
	v45.157h18.14c4.551,0,8.272,3.723,8.272,8.277v15.616h-56.981v-10.055c0-1.538-1.258-2.794-2.796-2.794H88.926
	c-1.536,0-2.793,1.256-2.793,2.794v10.055H28.765l0.002-15.616c0-4.555,3.724-8.277,8.274-8.277h19.731v-45.157
	c0-3.52,2.876-6.397,6.396-6.397l61.067-0.002v-3.499H104.51c-2.977,0-5.412-2.436-5.412-5.41V85.62
	C99.098,82.643,101.532,80.21,104.51,80.21L104.51,80.21z"/>
</svg>
