<?xml version="1.0" encoding="utf-8"?>
<!DOCTYPE svg PUBLIC "-//W3C//DTD SVG 1.1//EN" "http://www.w3.org/Graphics/SVG/1.1/DTD/svg11.dtd">
<svg version="1.1" xmlns="http://www.w3.org/2000/svg" xmlns:xlink="http://www.w3.org/1999/xlink" x="0px" y="0px" width="216px" height="216px" viewBox="0 0 216 216" enable-background="new 0 0 216 216" xml:space="preserve">
<path fill-rule="evenodd" clip-rule="evenodd" d="M80.352,31.931c-3.904,0-7.07-3.167-7.07-7.07
	c0-3.906,3.167-7.07,7.07-7.07c3.904,0,7.072,3.164,7.072,7.07C87.424,28.763,84.256,31.931,80.352,31.931L80.352,31.931z
	 M98.431,31.931c-3.904,0-7.071-3.167-7.071-7.07c0-3.906,3.167-7.07,7.071-7.07c3.902,0,7.07,3.164,7.07,7.07
	C105.5,28.763,102.333,31.931,98.431,31.931L98.431,31.931z M116.688,31.931c-3.905,0-7.071-3.167-7.071-7.07
	c0-3.906,3.166-7.07,7.071-7.07c3.902,0,7.068,3.164,7.068,7.07C123.756,28.763,120.59,31.931,116.688,31.931L116.688,31.931z
	 M135.224,31.951c-3.902,0-7.073-3.167-7.073-7.069c0-3.902,3.171-7.071,7.073-7.071c3.906,0,7.072,3.168,7.072,7.071
	C142.296,28.784,139.13,31.951,135.224,31.951L135.224,31.951z M111.716,92.145h31.58v4.508h-31.58V92.145L111.716,92.145z
	 M129.913,146.034h14.86V157.1h-14.86V146.034L129.913,146.034z M74.578,130.385H89.44v11.064H74.578V130.385L74.578,130.385z"/>
</svg>
