<?xml version="1.0" encoding="utf-8"?>
<!DOCTYPE svg PUBLIC "-//W3C//DTD SVG 1.1//EN" "http://www.w3.org/Graphics/SVG/1.1/DTD/svg11.dtd">
<svg version="1.1" xmlns="http://www.w3.org/2000/svg" xmlns:xlink="http://www.w3.org/1999/xlink" x="0px" y="0px" width="216px" height="216px" viewBox="0 0 216 216" enable-background="new 0 0 216 216" xml:space="preserve">
<path id="_x33_" fill-rule="evenodd" clip-rule="evenodd" fill="#F58031" d="M80.352,31.931c-3.904,0-7.07-3.167-7.07-7.07
	c0-3.906,3.167-7.07,7.07-7.07c3.904,0,7.072,3.164,7.072,7.07C87.424,28.763,84.256,31.931,80.352,31.931L80.352,31.931z
	 M98.431,31.931c-3.904,0-7.071-3.167-7.071-7.07c0-3.906,3.167-7.07,7.071-7.07c3.902,0,7.07,3.164,7.07,7.07
	C105.5,28.763,102.333,31.931,98.431,31.931L98.431,31.931z M116.688,31.931c-3.905,0-7.071-3.167-7.071-7.07
	c0-3.906,3.166-7.07,7.071-7.07c3.902,0,7.068,3.164,7.068,7.07C123.756,28.763,120.59,31.931,116.688,31.931L116.688,31.931z
	 M135.224,31.951c-3.902,0-7.073-3.167-7.073-7.069c0-3.902,3.171-7.071,7.073-7.071c3.906,0,7.072,3.168,7.072,7.071
	C142.296,28.784,139.13,31.951,135.224,31.951L135.224,31.951z M111.716,92.145h31.58v4.508h-31.58V92.145L111.716,92.145z
	 M129.913,146.034h14.86V157.1h-14.86V146.034L129.913,146.034z M74.578,130.385H89.44v11.064H74.578V130.385L74.578,130.385z"/>
<path id="_x32_" fill-rule="evenodd" clip-rule="evenodd" fill="#999557" d="M129.913,130.385h14.86v11.064h-14.86V130.385
	L129.913,130.385z M103.033,130.385h14.864v11.064h-14.864V130.385L103.033,130.385z M74.578,146.034H89.44V157.1H74.578V146.034
	L74.578,146.034z M103.033,146.034h14.864V157.1h-14.864V146.034L103.033,146.034z M16.121-0.08h183.6
	c8.912,0,16.199,7.29,16.199,16.198v183.603c0,8.908-7.287,16.199-16.199,16.199h-183.6c-8.911,0-16.201-7.291-16.201-16.199V16.118
	C-0.08,7.209,7.209-0.08,16.121-0.08L16.121-0.08z M16.121,4.919h183.6c6.161,0,11.199,5.04,11.199,11.199v183.603
	c0,6.161-5.038,11.199-11.199,11.199h-183.6c-6.16,0-11.202-5.038-11.202-11.199V16.118C4.919,9.958,9.96,4.919,16.121,4.919
	L16.121,4.919z M35.886,154.291v-42.85c0-40.375,30.447-73.714,71.462-73.714c40.705,0,73.713,33.012,73.713,73.714v42.85h-9.428
	v-42.85c0-35.5-28.784-64.284-64.285-64.284c-35.498,0-62.034,28.792-62.034,64.284v42.85H35.886L35.886,154.291z M187.144,193.87
	c-0.636,3.931-4.064,6.955-8.167,6.955H37.042c-4.104,0-7.532-3.029-8.168-6.955H92.72v-14.66h30.126v14.66H187.144L187.144,193.87z
	"/>
<path id="_x31_" fill-rule="evenodd" clip-rule="evenodd" fill="#7E5628" d="M107.351,88.462h40.145v11.503h-40.145V88.462
	L107.351,88.462z M66.203,163.271h85.208v-42.127H66.203V163.271L66.203,163.271z M104.51,80.21h45.824
	c2.976,0,5.408,2.433,5.408,5.41l0.004,17.186c0,2.974-2.437,5.41-5.412,5.41H136.33v3.499h18.11c3.521,0,6.396,2.88,6.396,6.399
	v45.157h18.14c4.551,0,8.272,3.723,8.272,8.277v15.616h-56.981v-10.055c0-1.538-1.258-2.794-2.796-2.794H88.926
	c-1.536,0-2.793,1.256-2.793,2.794v10.055H28.765l0.002-15.616c0-4.555,3.724-8.277,8.274-8.277h19.731v-45.157
	c0-3.52,2.876-6.397,6.396-6.397l61.067-0.002v-3.499H104.51c-2.977,0-5.412-2.436-5.412-5.41V85.62
	C99.098,82.643,101.532,80.21,104.51,80.21L104.51,80.21z"/>
</svg>
