<?xml version="1.0" encoding="utf-8"?>
<!DOCTYPE svg PUBLIC "-//W3C//DTD SVG 1.1//EN" "http://www.w3.org/Graphics/SVG/1.1/DTD/svg11.dtd">
<svg version="1.1" xmlns="http://www.w3.org/2000/svg" xmlns:xlink="http://www.w3.org/1999/xlink" x="0px" y="0px" width="216px" height="216px" viewBox="0 0 216 216" enable-background="new 0 0 216 216" xml:space="preserve">
<path fill-rule="evenodd" clip-rule="evenodd" d="M79.179,183.014l38.295,17.645l31.576-15.621v1.677
	l17.193-8.358v-1.824l33.408-16.527l-3.043-1.397l-30.365,15.021v-3.343l33.408-16.523l-3.043-1.401l-30.365,15.025v-3.051
	l33.408-16.527l-3.043-1.397l-30.365,15.021v-2.758l33.408-16.527l-3.043-1.401l-30.365,15.024v-3.051l33.408-16.527l-2.129-0.979
	l-31.279,15.472v-2.608l33.408-16.527l-2.129-0.979l-31.279,15.472v-2.364v-0.036l33.725-16.369l-51.414-24.133l-32.047,15.559
	l-1.849-0.914l-17.634,8.725l1.682,0.828l-33.033,16.036l51.41,24.131l31.706-15.39l0.261,0.13v2.303l-31.576,15.622l-49.556-22.832
	l-2.128,1.053l51.685,23.813l31.576-15.621v2.611l-31.576,15.618l-44.194-20.358c1.87,1.121,3.46,2.486,4.565,4.136l39.629,18.257
	l31.576-15.621v3.051l-31.576,15.621l-38.116-17.563c0.096,0.553,0.148,1.126,0.148,1.723c0,0.418-0.026,0.824-0.073,1.219
	l38.041,17.522l31.576-15.618v2.759l-31.576,15.621l-38.672-17.819c-0.057,0.143-0.118,0.28-0.181,0.419l0.303,0.816
	c0.238,0.638,0.402,1.291,0.496,1.958l38.055,17.53l31.576-15.622v3.051l-31.576,15.622l-38.122-17.567
	c-0.152,0.856-0.415,1.657-0.77,2.408l0.063,0.175l38.829,17.888l31.576-15.621v3.339l-31.576,15.621l-37.97-17.494l0.002,0.207
	C79.506,181.369,79.39,182.218,79.179,183.014L79.179,183.014z M68.551,152.274l-0.634-0.297l-0.093,0.049L68.551,152.274
	L68.551,152.274z M161.283,140.849l-2.461-1.219c1.938-4.285-1.117-9.24-8.858-12.871c-7.3-3.429-16.986-4.846-25.569-4.164
	l-2.384-1.178l16.575-8.046c7.101,2.315,16.089,2.393,22.101,0.098l16.157,7.583c-4.687,3.151-3.781,7.774,2.291,11.129
	L161.283,140.849L161.283,140.849z M104.211,130.061l1.608,0.796c-2.126,4.334,0.902,9.387,8.765,13.075
	c7.421,3.485,17.312,4.891,26,4.123l2.9,1.434l-17.58,8.533c-6.738-2.591-15.649-3.005-22.035-1.112l-16.727-7.852
	c4.062-2.892,3.566-6.941-1.176-10.143L104.211,130.061L104.211,130.061z M164.558,174.46v2.839l-13.822,6.719V181.3v-3.343v-2.904
	v-3.046v-2.904v-2.758v-2.904v-3.051v-2.034v-2.612v-2.031v-0.638l0.004,0.005l0.134-2.332l-49.635-24.65l12.893-6.292
	l50.346,24.582l0.081,1.856v0.633v2.031v2.611v2.031v3.051v2.904v2.762v2.9v3.05v2.904V174.46L164.558,174.46z M155.849,120.633
	c1.601-0.775,4.403-0.698,6.26,0.175c1.86,0.874,2.067,2.21,0.471,2.985c-1.601,0.776-4.402,0.699-6.263-0.174
	C154.46,122.745,154.249,121.409,155.849,120.633L155.849,120.633z M151.815,118.74c3.514-1.706,9.68-1.535,13.766,0.382
	c4.082,1.917,4.545,4.858,1.031,6.564c-3.518,1.705-9.683,1.535-13.765-0.382C148.761,123.387,148.298,120.446,151.815,118.74
	L151.815,118.74z M98.596,144.577c3.516-1.706,9.679-1.535,13.767,0.382c4.082,1.917,4.545,4.858,1.032,6.564
	c-3.518,1.706-9.682,1.535-13.768-0.382C95.544,149.225,95.081,146.283,98.596,144.577L98.596,144.577z M102.349,146.336
	c1.732-0.841,4.769-0.755,6.782,0.191c2.014,0.942,2.241,2.393,0.51,3.233c-1.733,0.84-4.771,0.755-6.784-0.191
	C100.844,148.627,100.619,147.181,102.349,146.336L102.349,146.336z M109.799,159.691l6.439,3.021l4.704-2.278
	C117.474,159.273,113.229,159.013,109.799,159.691L109.799,159.691z M80.879,141.385l-4.954,2.409l5.382,2.521
	C82.855,144.842,82.68,142.997,80.879,141.385L80.879,141.385z M154.923,110.763l-5.573-2.615l-5.674,2.756
	C147.425,111.819,151.746,111.791,154.923,110.763L154.923,110.763z M189.667,127.071l-7.019-3.294
	c-2.084,1.774-1.543,4.159,1.438,6.003L189.667,127.071L189.667,127.071z M93.099,93.947h11.229v8.361H93.099V93.947L93.099,93.947z
	 M51.289,105.773h11.229v8.361H51.289V105.773L51.289,105.773z"/>
</svg>
