<?xml version="1.0" encoding="utf-8"?>
<!DOCTYPE svg PUBLIC "-//W3C//DTD SVG 1.1//EN" "http://www.w3.org/Graphics/SVG/1.1/DTD/svg11.dtd">
<svg version="1.1" xmlns="http://www.w3.org/2000/svg" xmlns:xlink="http://www.w3.org/1999/xlink" x="0px" y="0px" width="216px" height="216px" viewBox="0 0 216 216" enable-background="new 0 0 216 216" xml:space="preserve">
<path id="_x33_" fill-rule="evenodd" clip-rule="evenodd" fill="#F58031" d="M54.622,153.907c-11.542,0-20.902,4.541-20.902,10.146
	s9.36,10.154,20.902,10.154s20.904-4.549,20.904-10.154S66.163,153.907,54.622,153.907L54.622,153.907z M33.961,170.621
	c-0.158,0.504-0.241,1.024-0.241,1.548c0,5.605,9.36,10.15,20.902,10.15s20.904-4.545,20.904-10.15c0-0.617-0.116-1.223-0.333-1.812
	c-3.251,3.77-11.31,6.442-20.733,6.442C45.255,176.8,37.355,174.253,33.961,170.621L33.961,170.621z M33.961,178.92
	c-0.158,0.508-0.241,1.023-0.241,1.547c0,5.605,9.36,10.15,20.902,10.15s20.904-4.545,20.904-10.15c0-0.617-0.116-1.222-0.333-1.807
	c-3.251,3.769-11.31,6.438-20.733,6.438C45.255,185.098,37.355,182.551,33.961,178.92L33.961,178.92z M51.289,93.947h11.229v8.361
	H51.289V93.947L51.289,93.947z M93.099,105.773h11.229v8.361H93.099V105.773L93.099,105.773z M125.284,28.585
	c26.982,6.692,46.435,22.356,46.642,51.68l9.126,0.185c-5.036,6.682-10.072,13.363-15.113,20.045
	c-3.79,4.972-7.701,4.529-10.443-0.376l-14.024-20.471l9.126,0.185c-0.231-11.262-5.04-18.776-12.798-24.103
	c-2.726-10.861-8.811-20.542-17.186-28.075C122.107,27.927,123.663,28.234,125.284,28.585L125.284,28.585z"/>
<path id="_x32_" fill-rule="evenodd" clip-rule="evenodd" fill="#999557" d="M16.284,0.112h183.273c8.896,0,16.17,7.277,16.17,16.17
	v183.275c0,8.892-7.274,16.17-16.17,16.17H16.284c-8.895,0-16.172-7.278-16.172-16.17V16.282C0.112,7.389,7.389,0.112,16.284,0.112
	L16.284,0.112z M16.284,5.102h183.273c6.149,0,11.178,5.031,11.178,11.18v183.275c0,6.149-5.028,11.178-11.178,11.178H16.284
	c-6.149,0-11.182-5.028-11.182-11.178V16.282C5.102,10.133,10.135,5.102,16.284,5.102L16.284,5.102z M22.349,111.866V74.853
	c0-30.311,22.857-55.337,53.65-55.337c30.555-0.002,55.337,24.781,55.337,55.337v31.883l-7.079,3.436V74.853
	c0-26.649-21.611-48.26-48.258-48.26c-26.649-0.002-46.572,21.615-46.572,48.26v37.013H22.349L22.349,111.866z M72.79,105.773
	h11.231v8.361H72.79V105.773L72.79,105.773z M72.79,93.947h11.231v8.361H72.79V93.947L72.79,93.947z M66.459,128.59h19.858
	c0.886-0.43,1.771-0.86,2.656-1.287c-2.11-1.048,0.252-1.913,2.184-2.867l11.797-5.643H45.109V87.168h63.964v28.599l4.127-2.039
	l2.953,0.016V84.894c0-2.642-2.161-4.803-4.806-4.803H97.755v-2.628h10.512c2.236,0,4.064-1.826,4.064-4.06V60.501
	c0-2.234-1.828-4.062-4.062-4.062H73.866c-2.236,0-4.064,1.828-4.064,4.062v12.902c0,2.234,1.83,4.06,4.064,4.06h14.811v2.628H42.83
	c-2.64,0-4.801,2.161-4.801,4.801v33.901H23.216c-3.416,0-6.21,2.799-6.21,6.215l-0.002,15.768c0,3.416,2.796,6.211,6.212,6.211
	c11.917,0,23.834,0,35.75,0c0.703-0.346,1.405-0.694,2.11-1.044c-0.175-3.25,0.044-5.658,2.597-6.576l2.787-1.138V128.59
	L66.459,128.59z M75.999,62.633h30.138v8.635H75.999V62.633L75.999,62.633z M162.396,175.479l-9.5,4.618v-30.361
	c0-0.643,0.117-0.439-0.565-0.772l-47.004-22.506l9.109-4.046l47.071,22.503c0.438,0.207,0.346,0.503,0.516,0.755L162.396,175.479
	L162.396,175.479z"/>
<path id="_x31_" fill-rule="evenodd" clip-rule="evenodd" fill="#7E5628" d="M79.179,183.014l38.295,17.645l31.576-15.621v1.677
	l17.193-8.358v-1.824l33.408-16.527l-3.043-1.397l-30.365,15.021v-3.343l33.408-16.523l-3.043-1.401l-30.365,15.025v-3.051
	l33.408-16.527l-3.043-1.397l-30.365,15.021v-2.758l33.408-16.527l-3.043-1.401l-30.365,15.024v-3.051l33.408-16.527l-2.129-0.979
	l-31.279,15.472v-2.608l33.408-16.527l-2.129-0.979l-31.279,15.472v-2.364v-0.036l33.725-16.369l-51.414-24.133l-32.047,15.559
	l-1.849-0.914l-17.634,8.725l1.682,0.828l-33.033,16.036l51.41,24.131l31.706-15.39l0.261,0.13v2.303l-31.576,15.622l-49.556-22.832
	l-2.128,1.053l51.685,23.813l31.576-15.621v2.611l-31.576,15.618l-44.194-20.358c1.87,1.121,3.46,2.486,4.565,4.136l39.629,18.257
	l31.576-15.621v3.051l-31.576,15.621l-38.116-17.563c0.096,0.553,0.148,1.126,0.148,1.723c0,0.418-0.026,0.824-0.073,1.219
	l38.041,17.522l31.576-15.618v2.759l-31.576,15.621l-38.672-17.819c-0.057,0.143-0.118,0.28-0.181,0.419l0.303,0.816
	c0.238,0.638,0.402,1.291,0.496,1.958l38.055,17.53l31.576-15.622v3.051l-31.576,15.622l-38.122-17.567
	c-0.152,0.856-0.415,1.657-0.77,2.408l0.063,0.175l38.829,17.888l31.576-15.621v3.339l-31.576,15.621l-37.97-17.494l0.002,0.207
	C79.506,181.369,79.39,182.218,79.179,183.014L79.179,183.014z M68.551,152.274l-0.634-0.297l-0.093,0.049L68.551,152.274
	L68.551,152.274z M161.283,140.849l-2.461-1.219c1.938-4.285-1.117-9.24-8.858-12.871c-7.3-3.429-16.986-4.846-25.569-4.164
	l-2.384-1.178l16.575-8.046c7.101,2.315,16.089,2.393,22.101,0.098l16.157,7.583c-4.687,3.151-3.781,7.774,2.291,11.129
	L161.283,140.849L161.283,140.849z M104.211,130.061l1.608,0.796c-2.126,4.334,0.902,9.387,8.765,13.075
	c7.421,3.485,17.312,4.891,26,4.123l2.9,1.434l-17.58,8.533c-6.738-2.591-15.649-3.005-22.035-1.112l-16.727-7.852
	c4.062-2.892,3.566-6.941-1.176-10.143L104.211,130.061L104.211,130.061z M164.558,174.46v2.839l-13.822,6.719V181.3v-3.343v-2.904
	v-3.046v-2.904v-2.758v-2.904v-3.051v-2.034v-2.612v-2.031v-0.638l0.004,0.005l0.134-2.332l-49.635-24.65l12.893-6.292
	l50.346,24.582l0.081,1.856v0.633v2.031v2.611v2.031v3.051v2.904v2.762v2.9v3.05v2.904V174.46L164.558,174.46z M155.849,120.633
	c1.601-0.775,4.403-0.698,6.26,0.175c1.86,0.874,2.067,2.21,0.471,2.985c-1.601,0.776-4.402,0.699-6.263-0.174
	C154.46,122.745,154.249,121.409,155.849,120.633L155.849,120.633z M151.815,118.74c3.514-1.706,9.68-1.535,13.766,0.382
	c4.082,1.917,4.545,4.858,1.031,6.564c-3.518,1.705-9.683,1.535-13.765-0.382C148.761,123.387,148.298,120.446,151.815,118.74
	L151.815,118.74z M98.596,144.577c3.516-1.706,9.679-1.535,13.767,0.382c4.082,1.917,4.545,4.858,1.032,6.564
	c-3.518,1.706-9.682,1.535-13.768-0.382C95.544,149.225,95.081,146.283,98.596,144.577L98.596,144.577z M102.349,146.336
	c1.732-0.841,4.769-0.755,6.782,0.191c2.014,0.942,2.241,2.393,0.51,3.233c-1.733,0.84-4.771,0.755-6.784-0.191
	C100.844,148.627,100.619,147.181,102.349,146.336L102.349,146.336z M109.799,159.691l6.439,3.021l4.704-2.278
	C117.474,159.273,113.229,159.013,109.799,159.691L109.799,159.691z M80.879,141.385l-4.954,2.409l5.382,2.521
	C82.855,144.842,82.68,142.997,80.879,141.385L80.879,141.385z M154.923,110.763l-5.573-2.615l-5.674,2.756
	C147.425,111.819,151.746,111.791,154.923,110.763L154.923,110.763z M189.667,127.071l-7.019-3.294
	c-2.084,1.774-1.543,4.159,1.438,6.003L189.667,127.071L189.667,127.071z M93.099,93.947h11.229v8.361H93.099V93.947L93.099,93.947z
	 M51.289,105.773h11.229v8.361H51.289V105.773L51.289,105.773z"/>
</svg>
