<?xml version="1.0" encoding="utf-8"?>
<!DOCTYPE svg PUBLIC "-//W3C//DTD SVG 1.1//EN" "http://www.w3.org/Graphics/SVG/1.1/DTD/svg11.dtd">
<svg version="1.1" xmlns="http://www.w3.org/2000/svg" xmlns:xlink="http://www.w3.org/1999/xlink" x="0px" y="0px" width="216px" height="216px" viewBox="0 0 216 216" enable-background="new 0 0 216 216" xml:space="preserve">
<path fill-rule="evenodd" clip-rule="evenodd" d="M54.622,153.907c-11.542,0-20.902,4.541-20.902,10.146
	s9.36,10.154,20.902,10.154s20.904-4.549,20.904-10.154S66.163,153.907,54.622,153.907L54.622,153.907z M33.961,170.621
	c-0.158,0.504-0.241,1.024-0.241,1.548c0,5.605,9.36,10.15,20.902,10.15s20.904-4.545,20.904-10.15c0-0.617-0.116-1.223-0.333-1.812
	c-3.251,3.77-11.31,6.442-20.733,6.442C45.255,176.8,37.355,174.253,33.961,170.621L33.961,170.621z M33.961,178.92
	c-0.158,0.508-0.241,1.023-0.241,1.547c0,5.605,9.36,10.15,20.902,10.15s20.904-4.545,20.904-10.15c0-0.617-0.116-1.222-0.333-1.807
	c-3.251,3.769-11.31,6.438-20.733,6.438C45.255,185.098,37.355,182.551,33.961,178.92L33.961,178.92z M51.289,93.947h11.229v8.361
	H51.289V93.947L51.289,93.947z M93.099,105.773h11.229v8.361H93.099V105.773L93.099,105.773z M125.284,28.585
	c26.982,6.692,46.435,22.356,46.642,51.68l9.126,0.185c-5.036,6.682-10.072,13.363-15.113,20.045
	c-3.79,4.972-7.701,4.529-10.443-0.376l-14.024-20.471l9.126,0.185c-0.231-11.262-5.04-18.776-12.798-24.103
	c-2.726-10.861-8.811-20.542-17.186-28.075C122.107,27.927,123.663,28.234,125.284,28.585L125.284,28.585z"/>
</svg>
