<?xml version="1.0" encoding="utf-8"?>
<!DOCTYPE svg PUBLIC "-//W3C//DTD SVG 1.1//EN" "http://www.w3.org/Graphics/SVG/1.1/DTD/svg11.dtd">
<svg version="1.1" xmlns="http://www.w3.org/2000/svg" xmlns:xlink="http://www.w3.org/1999/xlink" x="0px" y="0px" width="216px" height="216px" viewBox="0 0 216 216" enable-background="new 0 0 216 216" xml:space="preserve">
<path fill-rule="evenodd" clip-rule="evenodd" d="M16.284,0.112h183.273c8.896,0,16.17,7.277,16.17,16.17
	v183.275c0,8.892-7.274,16.17-16.17,16.17H16.284c-8.895,0-16.172-7.278-16.172-16.17V16.282C0.112,7.389,7.389,0.112,16.284,0.112
	L16.284,0.112z M16.284,5.102h183.273c6.149,0,11.178,5.031,11.178,11.18v183.275c0,6.149-5.028,11.178-11.178,11.178H16.284
	c-6.149,0-11.182-5.028-11.182-11.178V16.282C5.102,10.133,10.135,5.102,16.284,5.102L16.284,5.102z M22.349,111.866V74.853
	c0-30.311,22.857-55.337,53.65-55.337c30.555-0.002,55.337,24.781,55.337,55.337v31.883l-7.079,3.436V74.853
	c0-26.649-21.611-48.26-48.258-48.26c-26.649-0.002-46.572,21.615-46.572,48.26v37.013H22.349L22.349,111.866z M72.79,105.773
	h11.231v8.361H72.79V105.773L72.79,105.773z M72.79,93.947h11.231v8.361H72.79V93.947L72.79,93.947z M66.459,128.59h19.858
	c0.886-0.43,1.771-0.86,2.656-1.287c-2.11-1.048,0.252-1.913,2.184-2.867l11.797-5.643H45.109V87.168h63.964v28.599l4.127-2.039
	l2.953,0.016V84.894c0-2.642-2.161-4.803-4.806-4.803H97.755v-2.628h10.512c2.236,0,4.064-1.826,4.064-4.06V60.501
	c0-2.234-1.828-4.062-4.062-4.062H73.866c-2.236,0-4.064,1.828-4.064,4.062v12.902c0,2.234,1.83,4.06,4.064,4.06h14.811v2.628H42.83
	c-2.64,0-4.801,2.161-4.801,4.801v33.901H23.216c-3.416,0-6.21,2.799-6.21,6.215l-0.002,15.768c0,3.416,2.796,6.211,6.212,6.211
	c11.917,0,23.834,0,35.75,0c0.703-0.346,1.405-0.694,2.11-1.044c-0.175-3.25,0.044-5.658,2.597-6.576l2.787-1.138V128.59
	L66.459,128.59z M75.999,62.633h30.138v8.635H75.999V62.633L75.999,62.633z M162.396,175.479l-9.5,4.618v-30.361
	c0-0.643,0.117-0.439-0.565-0.772l-47.004-22.506l9.109-4.046l47.071,22.503c0.438,0.207,0.346,0.503,0.516,0.755L162.396,175.479
	L162.396,175.479z"/>
</svg>
