<?xml version="1.0" encoding="utf-8"?>
<!DOCTYPE svg PUBLIC "-//W3C//DTD SVG 1.1//EN" "http://www.w3.org/Graphics/SVG/1.1/DTD/svg11.dtd">
<svg version="1.1" xmlns="http://www.w3.org/2000/svg" xmlns:xlink="http://www.w3.org/1999/xlink" x="0px" y="0px" width="216px" height="216px" viewBox="0 0 216 216" enable-background="new 0 0 216 216" xml:space="preserve">
<path id="_x33_" fill-rule="evenodd" clip-rule="evenodd" fill="#F58031" d="M129.039,153.272c-14.622,0-26.478,5.757-26.478,12.86
	c0,7.1,11.856,12.856,26.478,12.856c14.621,0,26.478-5.757,26.478-12.856C155.517,159.029,143.66,153.272,129.039,153.272
	L129.039,153.272z M102.866,174.448c-0.199,0.638-0.305,1.293-0.305,1.96c0,7.099,11.856,12.86,26.478,12.86
	c14.621,0,26.478-5.762,26.478-12.86c0-0.781-0.143-1.55-0.419-2.294c-4.123,4.777-14.328,8.156-26.267,8.156
	C117.174,182.271,107.166,179.047,102.866,174.448L102.866,174.448z M102.866,184.963c-0.199,0.638-0.305,1.293-0.305,1.96
	c0,7.099,11.856,12.856,26.478,12.856c14.621,0,26.478-5.758,26.478-12.856c0-0.781-0.143-1.55-0.419-2.294
	c-4.123,4.778-14.328,8.156-26.267,8.156C117.174,192.785,107.166,189.562,102.866,184.963L102.866,184.963z M122.452,102.839
	h13.101v9.756h-13.101V102.839L122.452,102.839z M73.668,89.042h13.103v9.754H73.668V89.042L73.668,89.042z M106.407,55.326h24.994
	v3.977h-24.994V55.326L106.407,55.326z"/>
<path id="_x32_" fill-rule="evenodd" clip-rule="evenodd" fill="#999557" d="M16.189,0h183.464c8.904,0,16.187,7.284,16.187,16.187
	v183.467c0,8.9-7.282,16.187-16.187,16.187H16.189C7.284,215.84,0,208.554,0,199.653V16.187C0,7.284,7.284,0,16.189,0L16.189,0z
	 M16.189,4.995h183.464c6.155,0,11.189,5.036,11.189,11.191v183.467c0,6.155-5.034,11.189-11.189,11.189H16.189
	c-6.156,0-11.194-5.034-11.194-11.189V16.187C4.995,10.031,10.033,4.995,16.189,4.995L16.189,4.995z M39.898,111.053V82.428
	c0-35.368,26.671-64.572,62.6-64.572c35.656,0,64.57,28.917,64.57,64.572v28.625h-8.258V82.428
	c0-31.097-25.218-56.312-56.313-56.312c-31.095-0.002-54.34,25.221-54.34,56.312v28.625H39.898L39.898,111.053z M122.452,89.042
	h13.101v9.754h-13.101V89.042L122.452,89.042z M98.755,89.042h13.105v9.754H98.755V89.042L98.755,89.042z M73.668,102.839h13.103
	v9.756H73.668V102.839L73.668,102.839z M98.755,102.839h13.105v9.756H98.755V102.839L98.755,102.839z M84.711,132.8
	c-14.622,0-26.478,5.758-26.478,12.86c0,7.1,11.856,12.857,26.478,12.857c14.621,0,26.478-5.758,26.478-12.857
	C111.189,138.558,99.333,132.8,84.711,132.8L84.711,132.8z M58.538,175.005c-0.201,0.639-0.305,1.293-0.305,1.96
	c0,7.1,11.856,12.856,26.478,12.856c5.261,0,10.165-0.744,14.288-2.028c-0.024-0.285-0.039-0.578-0.039-0.87
	c0-1.033,0.163-2.058,0.474-3.042l0.795-2.529c-0.107-0.203-0.209-0.406-0.305-0.613c-4.434,1.321-9.73,2.09-15.42,2.09
	C72.847,182.828,62.838,179.604,58.538,175.005L58.538,175.005z M58.538,164.49c-0.201,0.639-0.305,1.293-0.305,1.96
	c0,7.1,11.856,12.86,26.478,12.86c5.261,0,10.165-0.748,14.286-2.032c-0.024-0.285-0.037-0.578-0.037-0.87
	c0-1.033,0.163-2.054,0.474-3.042l0.75-2.379c-0.128-0.239-0.246-0.487-0.356-0.735c-4.414,1.305-9.675,2.062-15.325,2.062
	C72.847,172.313,62.838,169.089,58.538,164.49L58.538,164.49z M58.538,153.976c-0.201,0.643-0.305,1.293-0.305,1.96
	c0,7.099,11.856,12.86,26.478,12.86c5.253,0,10.15-0.744,14.27-2.024c-0.012-0.212-0.021-0.423-0.021-0.639
	c0-2.688,1.035-5.009,2.623-6.957c-4.741,1.646-10.659,2.627-17.079,2.627C72.847,161.803,62.838,158.574,58.538,153.976
	L58.538,153.976z"/>
<path id="_x31_" fill-rule="evenodd" clip-rule="evenodd" fill="#7E5628" d="M172.492,149.516v1.053c0,3.988-3.265,7.25-7.25,7.25
	h-6.416c-3.058-3.973-8.229-6.632-13.73-8.303H172.492L172.492,149.516z M51.701,149.516c-0.222,0.967-0.341,1.976-0.341,3.033
	c0,1.833,0.356,3.524,0.99,5.086l-0.057,0.184H40.912c-3.987,0-7.25-3.262-7.25-7.25v-1.053H51.701L51.701,149.516z M100.012,45.275
	h37.586c2.606,0,4.737,2.128,4.737,4.737l0.004,15.055c0,2.608-2.135,4.741-4.741,4.741h-9.71v3.064h15.862
	c3.082,0,5.603,2.521,5.603,5.603v39.558h15.89c3.985,0,7.25,3.261,7.25,7.25v17.345h-54.688
	c-3.501-19.81-41.656-18.634-54.818-12.242c-5.17,2.509-9.988,6.604-11.285,12.242H33.663v-17.345c0-3.989,3.261-7.25,7.248-7.25
	h17.285V78.472c0-3.08,2.521-5.601,5.603-5.601h53.494v-3.064h-17.28c-2.606,0-4.741-2.132-4.741-4.741V50.012
	C95.271,47.403,97.403,45.275,100.012,45.275L100.012,45.275z M102.5,52.5h32.609v10.078H102.5V52.5L102.5,52.5z M66.455,118.032
	h74.64V81.131h-74.64V118.032L66.455,118.032z"/>
</svg>
