<?xml version="1.0" encoding="utf-8"?>
<!DOCTYPE svg PUBLIC "-//W3C//DTD SVG 1.1//EN" "http://www.w3.org/Graphics/SVG/1.1/DTD/svg11.dtd">
<svg version="1.1" xmlns="http://www.w3.org/2000/svg" xmlns:xlink="http://www.w3.org/1999/xlink" x="0px" y="0px" width="216px" height="216px" viewBox="0 0 216 216" enable-background="new 0 0 216 216" xml:space="preserve">
<path fill-rule="evenodd" clip-rule="evenodd" d="M172.492,149.516v1.053c0,3.988-3.265,7.25-7.25,7.25
	h-6.416c-3.058-3.973-8.229-6.632-13.73-8.303H172.492L172.492,149.516z M51.701,149.516c-0.222,0.967-0.341,1.976-0.341,3.033
	c0,1.833,0.356,3.524,0.99,5.086l-0.057,0.184H40.912c-3.987,0-7.25-3.262-7.25-7.25v-1.053H51.701L51.701,149.516z M100.012,45.275
	h37.586c2.606,0,4.737,2.128,4.737,4.737l0.004,15.055c0,2.608-2.135,4.741-4.741,4.741h-9.71v3.064h15.862
	c3.082,0,5.603,2.521,5.603,5.603v39.558h15.89c3.985,0,7.25,3.261,7.25,7.25v17.345h-54.688
	c-3.501-19.81-41.656-18.634-54.818-12.242c-5.17,2.509-9.988,6.604-11.285,12.242H33.663v-17.345c0-3.989,3.261-7.25,7.248-7.25
	h17.285V78.472c0-3.08,2.521-5.601,5.603-5.601h53.494v-3.064h-17.28c-2.606,0-4.741-2.132-4.741-4.741V50.012
	C95.271,47.403,97.403,45.275,100.012,45.275L100.012,45.275z M102.5,52.5h32.609v10.078H102.5V52.5L102.5,52.5z M66.455,118.032
	h74.64V81.131h-74.64V118.032L66.455,118.032z"/>
</svg>
