<?xml version="1.0" encoding="utf-8"?>
<!DOCTYPE svg PUBLIC "-//W3C//DTD SVG 1.1//EN" "http://www.w3.org/Graphics/SVG/1.1/DTD/svg11.dtd">
<svg version="1.1" xmlns="http://www.w3.org/2000/svg" xmlns:xlink="http://www.w3.org/1999/xlink" x="0px" y="0px" width="216px" height="216px" viewBox="0 0 216 216" enable-background="new 0 0 216 216" xml:space="preserve">
<path fill-rule="evenodd" clip-rule="evenodd" d="M16.189,0h183.464c8.904,0,16.187,7.284,16.187,16.187
	v183.467c0,8.9-7.282,16.187-16.187,16.187H16.189C7.284,215.84,0,208.554,0,199.653V16.187C0,7.284,7.284,0,16.189,0L16.189,0z
	 M16.189,4.995h183.464c6.155,0,11.189,5.036,11.189,11.191v183.467c0,6.155-5.034,11.189-11.189,11.189H16.189
	c-6.156,0-11.194-5.034-11.194-11.189V16.187C4.995,10.031,10.033,4.995,16.189,4.995L16.189,4.995z M39.898,111.053V82.428
	c0-35.368,26.671-64.572,62.6-64.572c35.656,0,64.57,28.917,64.57,64.572v28.625h-8.258V82.428
	c0-31.097-25.218-56.312-56.313-56.312c-31.095-0.002-54.34,25.221-54.34,56.312v28.625H39.898L39.898,111.053z M122.452,89.042
	h13.101v9.754h-13.101V89.042L122.452,89.042z M98.755,89.042h13.105v9.754H98.755V89.042L98.755,89.042z M73.668,102.839h13.103
	v9.756H73.668V102.839L73.668,102.839z M98.755,102.839h13.105v9.756H98.755V102.839L98.755,102.839z M84.711,132.8
	c-14.622,0-26.478,5.758-26.478,12.86c0,7.1,11.856,12.857,26.478,12.857c14.621,0,26.478-5.758,26.478-12.857
	C111.189,138.558,99.333,132.8,84.711,132.8L84.711,132.8z M58.538,175.005c-0.201,0.639-0.305,1.293-0.305,1.96
	c0,7.1,11.856,12.856,26.478,12.856c5.261,0,10.165-0.744,14.288-2.028c-0.024-0.285-0.039-0.578-0.039-0.87
	c0-1.033,0.163-2.058,0.474-3.042l0.795-2.529c-0.107-0.203-0.209-0.406-0.305-0.613c-4.434,1.321-9.73,2.09-15.42,2.09
	C72.847,182.828,62.838,179.604,58.538,175.005L58.538,175.005z M58.538,164.49c-0.201,0.639-0.305,1.293-0.305,1.96
	c0,7.1,11.856,12.86,26.478,12.86c5.261,0,10.165-0.748,14.286-2.032c-0.024-0.285-0.037-0.578-0.037-0.87
	c0-1.033,0.163-2.054,0.474-3.042l0.75-2.379c-0.128-0.239-0.246-0.487-0.356-0.735c-4.414,1.305-9.675,2.062-15.325,2.062
	C72.847,172.313,62.838,169.089,58.538,164.49L58.538,164.49z M58.538,153.976c-0.201,0.643-0.305,1.293-0.305,1.96
	c0,7.099,11.856,12.86,26.478,12.86c5.253,0,10.15-0.744,14.27-2.024c-0.012-0.212-0.021-0.423-0.021-0.639
	c0-2.688,1.035-5.009,2.623-6.957c-4.741,1.646-10.659,2.627-17.079,2.627C72.847,161.803,62.838,158.574,58.538,153.976
	L58.538,153.976z"/>
</svg>
