<?xml version="1.0" encoding="utf-8"?>
<!DOCTYPE svg PUBLIC "-//W3C//DTD SVG 1.1//EN" "http://www.w3.org/Graphics/SVG/1.1/DTD/svg11.dtd">
<svg version="1.1" xmlns="http://www.w3.org/2000/svg" xmlns:xlink="http://www.w3.org/1999/xlink" x="0px" y="0px" width="216px" height="216px" viewBox="0 0 216 216" enable-background="new 0 0 216 216" xml:space="preserve">
<path fill-rule="evenodd" clip-rule="evenodd" d="M129.039,153.272c-14.622,0-26.478,5.757-26.478,12.86
	c0,7.1,11.856,12.856,26.478,12.856c14.621,0,26.478-5.757,26.478-12.856C155.517,159.029,143.66,153.272,129.039,153.272
	L129.039,153.272z M102.866,174.448c-0.199,0.638-0.305,1.293-0.305,1.96c0,7.099,11.856,12.86,26.478,12.86
	c14.621,0,26.478-5.762,26.478-12.86c0-0.781-0.143-1.55-0.419-2.294c-4.123,4.777-14.328,8.156-26.267,8.156
	C117.174,182.271,107.166,179.047,102.866,174.448L102.866,174.448z M102.866,184.963c-0.199,0.638-0.305,1.293-0.305,1.96
	c0,7.099,11.856,12.856,26.478,12.856c14.621,0,26.478-5.758,26.478-12.856c0-0.781-0.143-1.55-0.419-2.294
	c-4.123,4.778-14.328,8.156-26.267,8.156C117.174,192.785,107.166,189.562,102.866,184.963L102.866,184.963z M122.452,102.839
	h13.101v9.756h-13.101V102.839L122.452,102.839z M73.668,89.042h13.103v9.754H73.668V89.042L73.668,89.042z M106.407,55.326h24.994
	v3.977h-24.994V55.326L106.407,55.326z"/>
</svg>
