<?xml version="1.0" encoding="utf-8"?>
<!DOCTYPE svg PUBLIC "-//W3C//DTD SVG 1.1//EN" "http://www.w3.org/Graphics/SVG/1.1/DTD/svg11.dtd">
<svg version="1.1" xmlns="http://www.w3.org/2000/svg" xmlns:xlink="http://www.w3.org/1999/xlink" x="0px" y="0px" width="216px" height="216px" viewBox="0 0 216 216" enable-background="new 0 0 216 216" xml:space="preserve">

<path fill-rule="evenodd" clip-rule="evenodd" d="M130.937,104.709l35.747-37.372
	c2.543-2.661,6.802-2.759,9.465-0.211l22.692,21.704c2.658,2.543,2.753,6.802,0.209,9.465l-35.747,37.372
	c-2.548,2.662-6.803,2.753-9.465,0.209l-22.688-21.703C128.487,111.629,128.393,107.37,130.937,104.709L130.937,104.709z
	 M142.744,114.361l8.82-9.223l7.049,6.741l-8.821,9.228L142.744,114.361L142.744,114.361z M89.314,122.054h17.219l0.486-0.209
	c1.327-0.554,2.507-1.165,3.549-1.813s1.883-1.395,2.505-2.22c0.623-0.841,0.936-1.83,0.936-2.966c0-0.76-0.148-1.494-0.423-2.183
	c-0.283-0.691-0.701-1.272-1.271-1.759c-0.566-0.488-1.272-0.882-2.124-1.152c-0.841-0.285-1.83-0.421-2.968-0.421
	c-1.461,0-2.79,0.177-4.008,0.542c-1.219,0.353-2.288,0.744-3.208,1.193c-0.936,0.431-1.707,0.839-2.343,1.204
	c-0.636,0.367-1.098,0.557-1.395,0.557c-0.285,0-0.515-0.082-0.691-0.247c-0.177-0.147-0.312-0.403-0.394-0.742
	c-0.094-0.353-0.162-0.785-0.201-1.313c-0.043-0.529-0.055-1.18-0.055-1.939c0-0.689,0.012-1.271,0.026-1.733
	c0.029-0.459,0.082-0.839,0.15-1.151c0.068-0.297,0.135-0.542,0.23-0.732c0.094-0.189,0.271-0.406,0.542-0.675
	c0.256-0.258,0.8-0.597,1.625-0.989c0.827-0.394,1.76-0.761,2.818-1.068c1.055-0.326,2.193-0.57,3.412-0.761
	c1.219-0.188,2.439-0.271,3.643-0.271c2.357,0,4.591,0.3,6.689,0.909c2.101,0.609,3.927,1.531,5.474,2.761
	c1.555,1.221,2.789,2.778,3.696,4.632c0.906,1.868,1.366,4.033,1.366,6.486c0,2.154-0.312,3.983-0.948,5.526
	c-0.073,0.181-0.151,0.356-0.233,0.533h2.688c0.258,0,0.468,0.287,0.468,0.636v2.531c0,0.345-0.21,0.632-0.468,0.632h-36.79
	c-0.258,0-0.47-0.287-0.47-0.632v-2.531C88.844,122.341,89.056,122.054,89.314,122.054L89.314,122.054z M91.946,138.055
	c0,2.695,0.502,5.066,1.505,7.109c1.001,2.035,2.37,3.738,4.088,5.096c1.719,1.366,3.726,2.38,6.027,3.073
	c2.302,0.689,4.768,1.029,7.381,1.029c1.771,0,3.426-0.135,4.943-0.435c1.514-0.283,2.855-0.636,4.021-1.042
	c1.165-0.423,2.142-0.841,2.926-1.301c0.771-0.447,1.341-0.841,1.678-1.189c0.353-0.341,0.599-0.841,0.734-1.478
	c0.147-0.652,0.213-1.587,0.213-2.806c0-0.825-0.024-1.502-0.065-2.056c-0.053-0.558-0.147-1.018-0.259-1.354
	c-0.123-0.341-0.282-0.583-0.487-0.734c-0.189-0.148-0.419-0.218-0.689-0.218c-0.365,0-0.895,0.218-1.571,0.652
	c-0.665,0.431-1.53,0.919-2.602,1.448c-1.055,0.529-2.313,1.018-3.774,1.448c-1.477,0.435-3.171,0.652-5.107,0.652
	c-1.272,0-2.411-0.147-3.414-0.447c-1.001-0.312-1.854-0.747-2.558-1.301c-0.691-0.558-1.233-1.23-1.598-2.06
	c-0.379-0.824-0.556-1.731-0.556-2.732c0-1.165,0.312-2.166,0.948-2.995c0.636-0.841,1.462-1.583,2.48-2.219
	c0.669-0.431,1.401-0.842,2.193-1.235h17.702c0.258,0,0.468-0.283,0.468-0.632V129.8c0-0.349-0.21-0.632-0.468-0.632h-36.79
	c-0.258,0-0.47,0.283-0.47,0.632v2.531c0,0.349,0.211,0.632,0.47,0.632h3.467C92.223,134.432,91.946,136.122,91.946,138.055
	L91.946,138.055z M47.996,67.91l36.026,35.934c2.566,2.56,2.57,6.753,0.013,9.319l-21.818,21.872
	c-2.558,2.563-6.751,2.568-9.317,0.012L16.876,99.111c-2.566-2.56-2.573-6.751-0.015-9.315l10.706-10.737l6.438-6.454l4.675-4.685
	C41.238,65.358,45.431,65.35,47.996,67.91L47.996,67.91z M68.421,119.81l-36.35-36.26L20.885,94.769l10.097,10.072l26.251,26.186
	L68.421,119.81L68.421,119.81z M38.51,77.098l36.346,36.253l4.515-4.521l-8.006-7.984L43.021,72.573L38.51,77.098L38.51,77.098z"/>
</svg>
