<?xml version="1.0" encoding="utf-8"?>
<!DOCTYPE svg PUBLIC "-//W3C//DTD SVG 1.1//EN" "http://www.w3.org/Graphics/SVG/1.1/DTD/svg11.dtd">
<svg version="1.1" xmlns="http://www.w3.org/2000/svg" xmlns:xlink="http://www.w3.org/1999/xlink" x="0px" y="0px" width="216px" height="216px" viewBox="0 0 216 216" enable-background="new 0 0 216 216" xml:space="preserve">
<path fill-rule="evenodd" clip-rule="evenodd" d="M86.212,91.431c5.061-5.937,12.598-9.705,21.01-9.705
	c7.746,0,14.745,3.192,19.759,8.329c4.734,4.854,0.201,9.687-4.468,4.77c-3.841-4.05-9.269-6.573-15.291-6.573
	c-6.456,0-12.234,2.905-16.101,7.475C87.886,99.555,82.85,95.376,86.212,91.431L86.212,91.431z M131.794,86.114
	c-6.162-6.519-14.894-10.589-24.571-10.589c-10.111,0-19.185,4.441-25.379,11.479c-2.966,3.369-8.462-1.066-4.798-5.097
	c7.459-8.204,18.218-13.356,30.178-13.356c11.565,0,22.007,4.818,29.429,12.552C141.177,85.818,135.814,90.364,131.794,86.114
	L131.794,86.114z M141.361,76.52c-8.615-8.962-20.727-14.542-34.139-14.542c-13.73,0-26.096,5.851-34.746,15.188
	c-3.296,3.561-8.47-0.534-4.611-4.657C77.701,62,91.698,55.432,107.223,55.432c15.18,0,28.892,6.279,38.688,16.378
	C150.416,76.456,145.391,80.713,141.361,76.52L141.361,76.52z"/>
</svg>
