<?xml version="1.0" encoding="utf-8"?>
<!DOCTYPE svg PUBLIC "-//W3C//DTD SVG 1.1//EN" "http://www.w3.org/Graphics/SVG/1.1/DTD/svg11.dtd">
<svg version="1.1" xmlns="http://www.w3.org/2000/svg" xmlns:xlink="http://www.w3.org/1999/xlink" x="0px" y="0px" width="216px" height="216px" viewBox="0 0 216 216" enable-background="new 0 0 216 216" xml:space="preserve">

<path fill-rule="evenodd" clip-rule="evenodd" d="M15.358-0.975h185.123
	c8.985,0,16.333,7.35,16.333,16.333v185.123c0,8.98-7.348,16.333-16.333,16.333H15.358c-8.983,0-16.333-7.353-16.333-16.333V15.358
	C-0.975,6.375,6.375-0.975,15.358-0.975L15.358-0.975z M15.358,4.065h185.123c6.212,0,11.291,5.081,11.291,11.293v185.123
	c0,6.212-5.079,11.291-11.291,11.291H15.358c-6.211,0-11.293-5.079-11.293-11.291V15.358C4.065,9.146,9.147,4.065,15.358,4.065
	L15.358,4.065z M161.555,144.742V143.7c2.343-0.566,4.55-1.785,6.331-3.647l4.078-4.268v17.708v33.712
	c0,7.385-6.039,13.424-13.42,13.424H57.247c-7.385,0-13.424-6.039-13.424-13.424v-52.252l4.599,4.582
	c1.666,1.666,3.68,2.778,5.813,3.34v24.465h107.319V144.742L161.555,144.742z M161.555,63.518V49.446H54.236v15.726l-1.76-1.754
	c-2.396-2.388-5.506-3.639-8.652-3.756V28.348c0-7.383,6.039-13.424,13.424-13.424h101.297c7.381,0,13.42,6.042,13.42,13.424v24.784
	v5.812c-3.582-0.119-7.2,1.225-9.863,4.009L161.555,63.518L161.555,63.518z M104.313,179.606h7.26c1.098,0,2,0.898,2,1.998v1.256
	c0,1.1-0.902,1.998-2,1.998h-7.26c-1.099,0-2.002-0.898-2.002-1.998v-1.256C102.312,180.505,103.214,179.606,104.313,179.606
	L104.313,179.606z M161.555,174.352v12.854c0,1.657-1.354,3.012-3.011,3.012H57.247c-1.657,0-3.011-1.354-3.011-3.012v-12.854
	H161.555L161.555,174.352z M97.614,30.44h20.276c1.374,0,2.503,1.126,2.503,2.502v0.753c0,1.376-1.129,2.503-2.503,2.503H97.614
	c-1.375,0-2.502-1.126-2.502-2.503v-0.753C95.111,31.566,96.239,30.44,97.614,30.44L97.614,30.44z M54.236,42.438h107.319V28.348
	c0-1.658-1.354-3.014-3.011-3.014H57.247c-1.657,0-3.011,1.356-3.011,3.014V42.438L54.236,42.438z"/>
</svg>
