<?xml version="1.0" encoding="utf-8"?>
<!DOCTYPE svg PUBLIC "-//W3C//DTD SVG 1.1//EN" "http://www.w3.org/Graphics/SVG/1.1/DTD/svg11.dtd">
<svg version="1.1" xmlns="http://www.w3.org/2000/svg" xmlns:xlink="http://www.w3.org/1999/xlink" x="0px" y="0px" width="216px" height="216px" viewBox="0 0 216 216" enable-background="new 0 0 216 216" xml:space="preserve">
<path fill-rule="evenodd" clip-rule="evenodd" d="M71.318,162.718c0,1.447,0.943,2.387,2.387,2.387h90.77
	c1.442,0,2.39-0.939,2.39-2.387c0-1.781-1.207-2.388-2.988-2.388H74.302C72.521,160.33,71.318,160.937,71.318,162.718
	L71.318,162.718z M71.318,148.385c0,1.447,0.943,2.392,2.387,2.392h90.77c1.442,0,2.39-0.944,2.39-2.392
	c0-1.777-1.207-2.387-2.988-2.387H74.302C72.521,145.998,71.318,146.607,71.318,148.385L71.318,148.385z M123.866,177.05
	c0,1.444,0.943,2.388,2.392,2.388h38.217c1.442,0,2.39-0.943,2.39-2.388c0-1.78-1.207-2.387-2.988-2.387h-37.021
	C125.07,174.663,123.866,175.27,123.866,177.05L123.866,177.05z M71.318,177.05c0,1.444,0.943,2.388,2.387,2.388h38.218
	c1.446,0,2.39-0.943,2.39-2.388c0-1.78-1.204-2.387-2.985-2.387H74.302C72.521,174.663,71.318,175.27,71.318,177.05L71.318,177.05z
	 M123.866,119.724c0,1.443,0.943,2.387,2.392,2.387h38.217c1.442,0,2.39-0.943,2.39-2.387c0-1.542-1.243-2.392-2.687-2.392h-37.322
	C125.07,117.332,123.866,117.942,123.866,119.724L123.866,119.724z M123.866,134.056c0,1.444,0.943,2.388,2.392,2.388h38.217
	c1.442,0,2.39-0.943,2.39-2.388c0-1.545-1.243-2.391-2.687-2.391h-37.623C125.111,131.665,123.866,132.511,123.866,134.056
	L123.866,134.056z M123.866,105.391c0,1.443,0.943,2.389,2.392,2.389h38.217c1.442,0,2.39-0.945,2.39-2.389
	c0-1.541-1.243-2.389-2.687-2.389h-37.623C125.111,103.002,123.866,103.85,123.866,105.391L123.866,105.391z M80.873,103.002h23.886
	v23.886H80.873V103.002L80.873,103.002z"/>
</svg>
