<?xml version="1.0" encoding="utf-8"?>
<!DOCTYPE svg PUBLIC "-//W3C//DTD SVG 1.1//EN" "http://www.w3.org/Graphics/SVG/1.1/DTD/svg11.dtd">
<svg version="1.1" xmlns="http://www.w3.org/2000/svg" xmlns:xlink="http://www.w3.org/1999/xlink" x="0px" y="0px" width="216px" height="216px" viewBox="0 0 216 216" enable-background="new 0 0 216 216" xml:space="preserve">
<path id="_x33_" fill-rule="evenodd" clip-rule="evenodd" fill="#F58031" d="M110.983,80.759c-18.396,0-33.313-14.918-33.313-33.313
	c0-18.395,14.916-33.313,33.313-33.313c18.394,0,33.311,14.918,33.311,33.313C144.294,65.841,129.377,80.759,110.983,80.759
	L110.983,80.759z M95.474,56.221c0,2.466,0.458,4.635,1.375,6.505c0.917,1.86,2.169,3.421,3.743,4.66
	c1.575,1.252,3.409,2.182,5.515,2.813c2.106,0.632,4.362,0.943,6.754,0.943c1.622,0,3.135-0.124,4.521-0.396
	c1.391-0.262,2.619-0.583,3.684-0.956c1.065-0.384,1.955-0.768,2.676-1.189c0.707-0.409,1.228-0.769,1.537-1.09
	c0.321-0.311,0.545-0.768,0.67-1.352c0.135-0.596,0.195-1.45,0.195-2.566c0-0.754-0.023-1.374-0.061-1.883
	c-0.049-0.51-0.135-0.931-0.236-1.24c-0.109-0.311-0.26-0.533-0.442-0.669c-0.176-0.136-0.387-0.199-0.635-0.199
	c-0.333,0-0.817,0.199-1.439,0.595c-0.606,0.397-1.398,0.844-2.378,1.326c-0.964,0.484-2.118,0.929-3.457,1.328
	c-1.35,0.394-2.899,0.593-4.671,0.593c-1.166,0-2.206-0.136-3.123-0.409c-0.919-0.285-1.7-0.681-2.344-1.189
	c-0.63-0.508-1.126-1.129-1.461-1.885c-0.348-0.754-0.509-1.586-0.509-2.503c0-1.067,0.285-1.982,0.866-2.738
	c0.583-0.769,1.34-1.452,2.269-2.033c0.615-0.393,1.285-0.769,2.009-1.129h16.198c0.237,0,0.433-0.26,0.433-0.579v-2.313
	c0-0.321-0.195-0.581-0.433-0.581H93.065c-0.238,0-0.433,0.26-0.433,0.581v2.313c0,0.319,0.195,0.579,0.433,0.579h3.171
	C95.724,52.905,95.474,54.452,95.474,56.221L95.474,56.221z M93.065,41.579h15.754l0.448-0.193c1.215-0.506,2.292-1.063,3.248-1.659
	c0.952-0.596,1.72-1.277,2.293-2.033c0.569-0.767,0.854-1.673,0.854-2.714c0-0.693-0.138-1.362-0.386-1.997
	c-0.261-0.63-0.643-1.163-1.163-1.61s-1.166-0.805-1.945-1.053c-0.771-0.26-1.674-0.384-2.714-0.384c-1.34,0-2.553,0.161-3.67,0.496
	c-1.116,0.322-2.094,0.681-2.938,1.09c-0.854,0.396-1.562,0.769-2.143,1.104c-0.583,0.333-1.004,0.508-1.276,0.508
	c-0.26,0-0.472-0.076-0.63-0.224c-0.163-0.136-0.287-0.37-0.362-0.681c-0.087-0.323-0.148-0.72-0.185-1.202
	c-0.037-0.484-0.049-1.08-0.049-1.773c0-0.632,0.012-1.165,0.024-1.586c0.024-0.423,0.075-0.769,0.136-1.055
	c0.062-0.272,0.125-0.494,0.21-0.669c0.087-0.173,0.25-0.372,0.496-0.62c0.235-0.234,0.732-0.545,1.488-0.902
	c0.754-0.36,1.612-0.696,2.576-0.98c0.967-0.299,2.008-0.521,3.123-0.693c1.118-0.175,2.232-0.249,3.334-0.249
	c2.157,0,4.205,0.272,6.124,0.83s3.594,1.4,5.005,2.529c1.427,1.114,2.554,2.539,3.384,4.236c0.832,1.712,1.251,3.694,1.251,5.937
	c0,1.972-0.284,3.645-0.866,5.058c-0.068,0.165-0.142,0.328-0.215,0.488h2.459c0.237,0,0.433,0.263,0.433,0.582v2.313
	c0,0.319-0.195,0.582-0.433,0.582H93.065c-0.238,0-0.433-0.262-0.433-0.582V42.16C92.632,41.841,92.827,41.579,93.065,41.579
	L93.065,41.579z"/>
<path id="_x32_" fill-rule="evenodd" clip-rule="evenodd" fill="#999557" d="M10.792,0h194.257c5.937,0,10.791,4.854,10.791,10.791
	v194.258c0,5.937-4.854,10.791-10.791,10.791H10.792C4.855,215.84,0,210.985,0,205.049V10.791C0,4.854,4.855,0,10.792,0L10.792,0z
	 M10.792,4.995h194.257c3.188,0,5.794,2.608,5.794,5.796v194.258c0,3.188-2.606,5.794-5.794,5.794H10.792
	c-3.188,0-5.796-2.606-5.796-5.794V10.791C4.995,7.603,7.604,4.995,10.792,4.995L10.792,4.995z M71.318,98.225v33.44
	c0,2.7,2.078,4.778,4.777,4.778h33.441c2.698,0,4.776-2.078,4.776-4.778v-33.44c0-2.946-2.322-4.778-5.376-4.778H76.691
	C73.639,93.447,71.318,95.278,71.318,98.225L71.318,98.225z M80.873,103.002h23.886v23.886H80.873V103.002L80.873,103.002z
	 M56.687,181.646c6.207,0,5.076-5.921,5.076-11.947c0-5.57,0-11.145,0-16.719c0-11.145,0,2.817,0-8.331c0-11.149,0-22.294,0-33.441
	c0-5.574,0-11.147,0-16.721c0-5.708-1.053-11.942,4.778-11.942h23.633c-4.216-2.506-7.942-5.751-11.003-9.555H67.138
	c-8.028,0-14.931,6.079-14.931,13.733v10.153h-4.18c-8.026,0-14.93,6.079-14.93,13.735v70.438c0,11.315,8.157,19.708,19.409,19.708
	h114.057c11.255,0,19.408-8.393,19.408-19.708v-93.13c0-8.711-6.217-14.928-14.927-14.928h-28.251
	c-3.058,3.804-6.786,7.048-11.003,9.555h39.852c2.695,0,4.777,2.078,4.777,4.776v95.22c0,4.952-4.944,8.66-10.453,8.66H53.103
	c-5.471,0-10.45-3.716-10.45-8.66v-71.332c0-2.698,2.08-4.777,4.778-4.777h4.777v70.438C52.208,179.4,54.265,181.646,56.687,181.646
	L56.687,181.646z"/>
<path id="_x31_" fill-rule="evenodd" clip-rule="evenodd" fill="#7E5628" d="M71.318,162.718c0,1.447,0.943,2.387,2.387,2.387h90.77
	c1.442,0,2.39-0.939,2.39-2.387c0-1.781-1.207-2.388-2.988-2.388H74.302C72.521,160.33,71.318,160.937,71.318,162.718
	L71.318,162.718z M71.318,148.385c0,1.447,0.943,2.392,2.387,2.392h90.77c1.442,0,2.39-0.944,2.39-2.392
	c0-1.777-1.207-2.387-2.988-2.387H74.302C72.521,145.998,71.318,146.607,71.318,148.385L71.318,148.385z M123.866,177.05
	c0,1.444,0.943,2.388,2.392,2.388h38.217c1.442,0,2.39-0.943,2.39-2.388c0-1.78-1.207-2.387-2.988-2.387h-37.021
	C125.07,174.663,123.866,175.27,123.866,177.05L123.866,177.05z M71.318,177.05c0,1.444,0.943,2.388,2.387,2.388h38.218
	c1.446,0,2.39-0.943,2.39-2.388c0-1.78-1.204-2.387-2.985-2.387H74.302C72.521,174.663,71.318,175.27,71.318,177.05L71.318,177.05z
	 M123.866,119.724c0,1.443,0.943,2.387,2.392,2.387h38.217c1.442,0,2.39-0.943,2.39-2.387c0-1.542-1.243-2.392-2.687-2.392h-37.322
	C125.07,117.332,123.866,117.942,123.866,119.724L123.866,119.724z M123.866,134.056c0,1.444,0.943,2.388,2.392,2.388h38.217
	c1.442,0,2.39-0.943,2.39-2.388c0-1.545-1.243-2.391-2.687-2.391h-37.623C125.111,131.665,123.866,132.511,123.866,134.056
	L123.866,134.056z M123.866,105.391c0,1.443,0.943,2.389,2.392,2.389h38.217c1.442,0,2.39-0.945,2.39-2.389
	c0-1.541-1.243-2.389-2.687-2.389h-37.623C125.111,103.002,123.866,103.85,123.866,105.391L123.866,105.391z M80.873,103.002h23.886
	v23.886H80.873V103.002L80.873,103.002z"/>
</svg>
