<?xml version="1.0" encoding="utf-8"?>
<!DOCTYPE svg PUBLIC "-//W3C//DTD SVG 1.1//EN" "http://www.w3.org/Graphics/SVG/1.1/DTD/svg11.dtd">
<svg version="1.1" xmlns="http://www.w3.org/2000/svg" xmlns:xlink="http://www.w3.org/1999/xlink" x="0px" y="0px" width="216px" height="216px" viewBox="0 0 216 216" enable-background="new 0 0 216 216" xml:space="preserve">
<path fill-rule="evenodd" clip-rule="evenodd" d="M10.792,0h194.257c5.937,0,10.791,4.854,10.791,10.791
	v194.258c0,5.937-4.854,10.791-10.791,10.791H10.792C4.855,215.84,0,210.985,0,205.049V10.791C0,4.854,4.855,0,10.792,0L10.792,0z
	 M10.792,4.995h194.257c3.188,0,5.794,2.608,5.794,5.796v194.258c0,3.188-2.606,5.794-5.794,5.794H10.792
	c-3.188,0-5.796-2.606-5.796-5.794V10.791C4.995,7.603,7.604,4.995,10.792,4.995L10.792,4.995z M71.318,98.225v33.44
	c0,2.7,2.078,4.778,4.777,4.778h33.441c2.698,0,4.776-2.078,4.776-4.778v-33.44c0-2.946-2.322-4.778-5.376-4.778H76.691
	C73.639,93.447,71.318,95.278,71.318,98.225L71.318,98.225z M80.873,103.002h23.886v23.886H80.873V103.002L80.873,103.002z
	 M56.687,181.646c6.207,0,5.076-5.921,5.076-11.947c0-5.57,0-11.145,0-16.719c0-11.145,0,2.817,0-8.331c0-11.149,0-22.294,0-33.441
	c0-5.574,0-11.147,0-16.721c0-5.708-1.053-11.942,4.778-11.942h23.633c-4.216-2.506-7.942-5.751-11.003-9.555H67.138
	c-8.028,0-14.931,6.079-14.931,13.733v10.153h-4.18c-8.026,0-14.93,6.079-14.93,13.735v70.438c0,11.315,8.157,19.708,19.409,19.708
	h114.057c11.255,0,19.408-8.393,19.408-19.708v-93.13c0-8.711-6.217-14.928-14.927-14.928h-28.251
	c-3.058,3.804-6.786,7.048-11.003,9.555h39.852c2.695,0,4.777,2.078,4.777,4.776v95.22c0,4.952-4.944,8.66-10.453,8.66H53.103
	c-5.471,0-10.45-3.716-10.45-8.66v-71.332c0-2.698,2.08-4.777,4.778-4.777h4.777v70.438C52.208,179.4,54.265,181.646,56.687,181.646
	L56.687,181.646z"/>
</svg>
