<?xml version="1.0" encoding="utf-8"?>
<!DOCTYPE svg PUBLIC "-//W3C//DTD SVG 1.1//EN" "http://www.w3.org/Graphics/SVG/1.1/DTD/svg11.dtd">
<svg version="1.1" xmlns="http://www.w3.org/2000/svg" xmlns:xlink="http://www.w3.org/1999/xlink" x="0px" y="0px" width="216px" height="216px" viewBox="0 0 216 216" enable-background="new 0 0 216 216" xml:space="preserve">
<path id="_x33_" fill-rule="evenodd" clip-rule="evenodd" fill="#F58031" d="M156.55,34.097
	c19.775,9.144,30.918,31.395,25.833,55.223l6.391,1.555c-4.671,4.333-9.342,8.667-14.014,13c-3.507,3.218-6.184,2.273-7.286-1.906
	l-6.419-17.839l6.395,1.555c3.114-15.552-4.618-30.957-18.219-38.022C141.851,43.411,148.217,30.492,156.55,34.097L156.55,34.097z
	 M59.943,176.289c-19.771-9.144-30.917-31.393-25.832-55.224l-6.391-1.557c4.671-4.331,9.343-8.665,14.012-12.998
	c3.507-3.217,6.184-2.272,7.287,1.908l6.419,17.837l-6.393-1.553c-3.116,15.55,4.619,30.959,18.216,38.022
	C74.646,166.975,68.277,179.894,59.943,176.289L59.943,176.289z"/>
<path id="_x32_" fill-rule="evenodd" clip-rule="evenodd" fill="#999557" d="M11.058,5.277h193.725c3.179,0,5.778,2.601,5.778,5.78
	v193.725c0,3.179-2.6,5.778-5.778,5.778H11.058c-3.179,0-5.78-2.6-5.78-5.778V11.058C5.277,7.878,7.878,5.277,11.058,5.277
	L11.058,5.277z M11.058,0.296h193.725c5.92,0,10.762,4.841,10.762,10.762v193.725c0,5.92-4.842,10.762-10.762,10.762H11.058
	c-5.92,0-10.762-4.842-10.762-10.762V11.058C0.296,5.137,5.137,0.296,11.058,0.296L11.058,0.296z M33.777,43.881h20.479v15.648
	H33.777V43.881L33.777,43.881z M31.875,19.485h82.967c5.907,0,10.741,4.833,10.741,10.741V80.6c0,5.908-4.834,10.742-10.741,10.742
	H31.875c-5.908,0-10.743-4.833-10.743-10.742V30.227C21.132,24.319,25.967,19.485,31.875,19.485L31.875,19.485z"/>
<path id="_x31_" fill-rule="evenodd" clip-rule="evenodd" fill="#7E5628" d="M100.554,142.435h83.776v-10.429h-18.454h-65.322
	V142.435L100.554,142.435z M184.33,157.308h-83.776v25.854h23.273h60.503V157.308L184.33,157.308z M100.923,120.883h83.034
	c5.911,0,10.749,4.838,10.749,10.75v50.414c0,5.916-4.838,10.753-10.749,10.753h-83.034c-5.912,0-10.75-4.837-10.75-10.753v-24.739
	v-14.873v-10.802C90.174,125.721,95.011,120.883,100.923,120.883L100.923,120.883z"/>
</svg>
