<?xml version="1.0" encoding="utf-8"?>
<!DOCTYPE svg PUBLIC "-//W3C//DTD SVG 1.1//EN" "http://www.w3.org/Graphics/SVG/1.1/DTD/svg11.dtd">
<svg version="1.1" xmlns="http://www.w3.org/2000/svg" xmlns:xlink="http://www.w3.org/1999/xlink" x="0px" y="0px" width="216px" height="216px" viewBox="0 0 216 216" enable-background="new 0 0 216 216" xml:space="preserve">
<path fill-rule="evenodd" clip-rule="evenodd" d="M16.284,0.112h183.274
	c8.896,0,16.171,7.277,16.171,16.17v183.276c0,8.892-7.275,16.171-16.171,16.171H16.284c-8.895,0-16.172-7.279-16.172-16.171V16.282
	C0.112,7.389,7.389,0.112,16.284,0.112L16.284,0.112z M16.284,5.102h183.274c6.15,0,11.179,5.031,11.179,11.18v183.276
	c0,6.15-5.028,11.179-11.179,11.179H16.284c-6.149,0-11.182-5.028-11.182-11.179V16.282C5.102,10.132,10.134,5.102,16.284,5.102
	L16.284,5.102z M34.286,110.241h78.066c5.561,0,10.105,4.547,10.105,10.107v47.397c0,5.557-4.545,10.105-10.105,10.105H88.578
	l-0.047-0.126c0.616-1.324,0.971-2.782,0.971-4.366c0-5.666-4.519-9.643-9.237-11.934c-5.441-2.64-12.045-3.688-18.051-3.688
	s-12.61,1.048-18.05,3.688c-4.718,2.291-9.239,6.268-9.239,11.934c0,1.556,0.343,2.981,0.935,4.281l-0.067,0.211h-1.507
	c-5.559,0-10.108-4.549-10.108-10.105v-47.397C24.178,114.788,28.727,110.241,34.286,110.241L34.286,110.241z M36.077,133.196
	h19.267v14.725H36.077V133.196L36.077,133.196z"/>
</svg>
