<?xml version="1.0" encoding="utf-8"?>
<!DOCTYPE svg PUBLIC "-//W3C//DTD SVG 1.1//EN" "http://www.w3.org/Graphics/SVG/1.1/DTD/svg11.dtd">
<svg version="1.1" xmlns="http://www.w3.org/2000/svg" xmlns:xlink="http://www.w3.org/1999/xlink" x="0px" y="0px" width="216px" height="216px" viewBox="0 0 216 216" enable-background="new 0 0 216 216" xml:space="preserve">
<path fill-rule="evenodd" clip-rule="evenodd" d="M11.058,5.277h193.725c3.179,0,5.778,2.601,5.778,5.78
	v193.725c0,3.179-2.6,5.778-5.778,5.778H11.058c-3.179,0-5.78-2.6-5.78-5.778V11.058C5.277,7.878,7.878,5.277,11.058,5.277
	L11.058,5.277z M11.058,0.296h193.725c5.92,0,10.762,4.841,10.762,10.762v193.725c0,5.92-4.842,10.762-10.762,10.762H11.058
	c-5.92,0-10.762-4.842-10.762-10.762V11.058C0.296,5.137,5.137,0.296,11.058,0.296L11.058,0.296z M33.777,43.881h20.479v15.648
	H33.777V43.881L33.777,43.881z M31.875,19.485h82.967c5.907,0,10.741,4.833,10.741,10.741V80.6c0,5.908-4.834,10.742-10.741,10.742
	H31.875c-5.908,0-10.743-4.833-10.743-10.742V30.227C21.132,24.319,25.967,19.485,31.875,19.485L31.875,19.485z"/>
</svg>
