<?xml version="1.0" encoding="utf-8"?>
<!DOCTYPE svg PUBLIC "-//W3C//DTD SVG 1.1//EN" "http://www.w3.org/Graphics/SVG/1.1/DTD/svg11.dtd">
<svg version="1.1" xmlns="http://www.w3.org/2000/svg" xmlns:xlink="http://www.w3.org/1999/xlink" x="0px" y="0px" width="216px" height="216px" viewBox="0 0 216 216" enable-background="new 0 0 216 216" xml:space="preserve">
<path fill-rule="evenodd" clip-rule="evenodd" d="M156.55,34.097
	c19.775,9.144,30.918,31.395,25.833,55.223l6.391,1.555c-4.671,4.333-9.342,8.667-14.014,13c-3.507,3.218-6.184,2.273-7.286-1.906
	l-6.419-17.839l6.395,1.555c3.114-15.552-4.618-30.957-18.219-38.022C141.851,43.411,148.217,30.492,156.55,34.097L156.55,34.097z
	 M59.943,176.289c-19.771-9.144-30.917-31.393-25.832-55.224l-6.391-1.557c4.671-4.331,9.343-8.665,14.012-12.998
	c3.507-3.217,6.184-2.272,7.287,1.908l6.419,17.837l-6.393-1.553c-3.116,15.55,4.619,30.959,18.216,38.022
	C74.646,166.975,68.277,179.894,59.943,176.289L59.943,176.289z"/>
</svg>
