<?xml version="1.0" encoding="utf-8"?>
<!DOCTYPE svg PUBLIC "-//W3C//DTD SVG 1.1//EN" "http://www.w3.org/Graphics/SVG/1.1/DTD/svg11.dtd">
<svg version="1.1" xmlns="http://www.w3.org/2000/svg" xmlns:xlink="http://www.w3.org/1999/xlink" x="0px" y="0px" width="216px" height="216px" viewBox="0 0 216 216" enable-background="new 0 0 216 216" xml:space="preserve">
<path fill-rule="evenodd" clip-rule="evenodd" d="M148.854,84.335c0.199,2.685-0.166,5.382-0.166,8.071
	c0.077,6.003-0.35,9.659,9.752,0.478l31.572-28.703c7.486-6.802,7.466-6.237-0.012-13.041c-10.374-9.43-20.748-18.859-31.122-28.289
	c-9.232-8.394-10.138-4.23-10.19-0.595v8.591l13.302,12.09c4.164,3.788,8.587,8.166,13.022,13.44
	c1.247,1.482,1.328,2.481,0.008,3.905c-4.325,4.671-8.77,8.239-13.014,12.1L148.854,84.335L148.854,84.335z M74.542,35.799
	c-22.025,3.314-38.849,20.973-38.849,42.257l0.126,22.517c-0.138,4.242,6.592,3.954,6.986-1.064
	C44.446,78.5,61.963,78.953,77.501,78.685v-0.012c0.394,0.004,0.816,0.006,1.268,0.006h28.392c5.743,0.286,9.671,0.957,10.017,3.122
	c0.5,3.109,0,6.243,0,9.364c0.077,5.904-0.346,9.499,9.586,0.471l31.053-28.224c7.355-6.689,7.339-6.135-0.017-12.825
	c-10.199-9.273-20.402-18.544-30.602-27.819c-9.082-8.251-9.968-4.157-10.021-0.585c0,3.292,0,6.584,0,9.874
	c-1.637,2.955-5.171,3.396-10.017,3.276c-9.641,0-17.12,0-26.761,0C77.702,35.333,75.836,35.504,74.542,35.799L74.542,35.799z"/>
</svg>
