<?xml version="1.0" encoding="utf-8"?>
<!DOCTYPE svg PUBLIC "-//W3C//DTD SVG 1.1//EN" "http://www.w3.org/Graphics/SVG/1.1/DTD/svg11.dtd">
<svg version="1.1" xmlns="http://www.w3.org/2000/svg" xmlns:xlink="http://www.w3.org/1999/xlink" x="0px" y="0px" width="216px" height="216px" viewBox="0 0 216 216" enable-background="new 0 0 216 216" xml:space="preserve">
<path id="_x33_" fill-rule="evenodd" clip-rule="evenodd" fill="#F58031" d="M148.854,84.335c0.199,2.685-0.166,5.382-0.166,8.071
	c0.077,6.003-0.35,9.659,9.752,0.478l31.572-28.703c7.486-6.802,7.466-6.237-0.012-13.041c-10.374-9.43-20.748-18.859-31.122-28.289
	c-9.232-8.394-10.138-4.23-10.19-0.595v8.591l13.302,12.09c4.164,3.788,8.587,8.166,13.022,13.44
	c1.247,1.482,1.328,2.481,0.008,3.905c-4.325,4.671-8.77,8.239-13.014,12.1L148.854,84.335L148.854,84.335z M74.542,35.799
	c-22.025,3.314-38.849,20.973-38.849,42.257l0.126,22.517c-0.138,4.242,6.592,3.954,6.986-1.064
	C44.446,78.5,61.963,78.953,77.501,78.685v-0.012c0.394,0.004,0.816,0.006,1.268,0.006h28.392c5.743,0.286,9.671,0.957,10.017,3.122
	c0.5,3.109,0,6.243,0,9.364c0.077,5.904-0.346,9.499,9.586,0.471l31.053-28.224c7.355-6.689,7.339-6.135-0.017-12.825
	c-10.199-9.273-20.402-18.544-30.602-27.819c-9.082-8.251-9.968-4.157-10.021-0.585c0,3.292,0,6.584,0,9.874
	c-1.637,2.955-5.171,3.396-10.017,3.276c-9.641,0-17.12,0-26.761,0C77.702,35.333,75.836,35.504,74.542,35.799L74.542,35.799z"/>
<path id="_x32_" fill-rule="evenodd" clip-rule="evenodd" fill="#999557" d="M16.284,0.112h183.274
	c8.896,0,16.171,7.277,16.171,16.17v183.276c0,8.892-7.275,16.171-16.171,16.171H16.284c-8.895,0-16.172-7.279-16.172-16.171V16.282
	C0.112,7.389,7.389,0.112,16.284,0.112L16.284,0.112z M16.284,5.102h183.274c6.15,0,11.179,5.031,11.179,11.18v183.276
	c0,6.15-5.028,11.179-11.179,11.179H16.284c-6.149,0-11.182-5.028-11.182-11.179V16.282C5.102,10.132,10.134,5.102,16.284,5.102
	L16.284,5.102z M34.286,110.241h78.066c5.561,0,10.105,4.547,10.105,10.107v47.397c0,5.557-4.545,10.105-10.105,10.105H88.578
	l-0.047-0.126c0.616-1.324,0.971-2.782,0.971-4.366c0-5.666-4.519-9.643-9.237-11.934c-5.441-2.64-12.045-3.688-18.051-3.688
	s-12.61,1.048-18.05,3.688c-4.718,2.291-9.239,6.268-9.239,11.934c0,1.556,0.343,2.981,0.935,4.281l-0.067,0.211h-1.507
	c-5.559,0-10.108-4.549-10.108-10.105v-47.397C24.178,114.788,28.727,110.241,34.286,110.241L34.286,110.241z M36.077,133.196
	h19.267v14.725H36.077V133.196L36.077,133.196z"/>
<path id="_x31_" fill-rule="evenodd" clip-rule="evenodd" fill="#7E5628" d="M92.566,182.97v2.807c0,1.23,0.494,0.829,0.494,2.636
	c1.162,1.853,1.34,3.339,3.018,5.212c1.207,1.349,4.356,3.311,4.633,3.749c1.763,0,1.972,0.792,3.946,0.792h75.998
	c2.604,0,5.85-2.831,7.34-4.281c1.479-1.438,4.009-5.447,4.009-8.107v-45.33c0-2.64-2.388-6.913-3.761-8.367
	c-1.593-1.686-4.862-4.28-7.836-4.28h-52.831v4.479h52.336c1.434,0,4.236,2.283,5.122,3.226c1.089,1.153,2.485,3.606,2.53,5.735
	c-0.557,0.138-0.568,0.264-1.234,0.264h-58.754v12.648h59.988c0.126,0.593,0.248,0.605,0.248,1.32v26.353
	c0,6.678-3.583,11.86-9.627,11.86h-72.048c-4.704,0-9.376-4.769-9.376-9.752v-0.963H92.566L92.566,182.97z M125.28,175.764h55.865
	v-8.696h-53.57v0.679C127.575,170.687,126.734,173.433,125.28,175.764L125.28,175.764z M62.214,162.34
	c-12.524,0-22.683,4.936-22.683,11.02c0,6.081,10.159,11.012,22.683,11.012c12.527,0,22.683-4.931,22.683-11.012
	C84.897,167.275,74.741,162.34,62.214,162.34L62.214,162.34z M39.793,180.483c-0.172,0.545-0.262,1.109-0.262,1.678
	c0,6.081,10.159,11.016,22.683,11.016c12.527,0,22.683-4.935,22.683-11.016c0-0.67-0.124-1.328-0.359-1.966
	c-3.53,4.095-12.274,6.99-22.502,6.99C52.05,187.186,43.478,184.42,39.793,180.483L39.793,180.483z M39.793,189.489
	c-0.172,0.548-0.262,1.108-0.262,1.682c0,6.08,10.159,11.011,22.683,11.011c12.527,0,22.683-4.931,22.683-11.011
	c0-0.675-0.124-1.329-0.359-1.967c-3.53,4.091-12.274,6.986-22.502,6.986C52.05,196.19,43.478,193.429,39.793,189.489
	L39.793,189.489z"/>
</svg>
