<?xml version="1.0" encoding="utf-8"?>
<!DOCTYPE svg PUBLIC "-//W3C//DTD SVG 1.1//EN" "http://www.w3.org/Graphics/SVG/1.1/DTD/svg11.dtd">
<svg version="1.1" xmlns="http://www.w3.org/2000/svg" xmlns:xlink="http://www.w3.org/1999/xlink" x="0px" y="0px" width="216px" height="216px" viewBox="0 0 216 216" enable-background="new 0 0 216 216" xml:space="preserve">
<path fill-rule="evenodd" clip-rule="evenodd" d="M92.566,182.97v2.807c0,1.23,0.494,0.829,0.494,2.636
	c1.162,1.853,1.34,3.339,3.018,5.212c1.207,1.349,4.356,3.311,4.633,3.749c1.763,0,1.972,0.792,3.946,0.792h75.998
	c2.604,0,5.85-2.831,7.34-4.281c1.479-1.438,4.009-5.447,4.009-8.107v-45.33c0-2.64-2.388-6.913-3.761-8.367
	c-1.593-1.686-4.862-4.28-7.836-4.28h-52.831v4.479h52.336c1.434,0,4.236,2.283,5.122,3.226c1.089,1.153,2.485,3.606,2.53,5.735
	c-0.557,0.138-0.568,0.264-1.234,0.264h-58.754v12.648h59.988c0.126,0.593,0.248,0.605,0.248,1.32v26.353
	c0,6.678-3.583,11.86-9.627,11.86h-72.048c-4.704,0-9.376-4.769-9.376-9.752v-0.963H92.566L92.566,182.97z M125.28,175.764h55.865
	v-8.696h-53.57v0.679C127.575,170.687,126.734,173.433,125.28,175.764L125.28,175.764z M62.214,162.34
	c-12.524,0-22.683,4.936-22.683,11.02c0,6.081,10.159,11.012,22.683,11.012c12.527,0,22.683-4.931,22.683-11.012
	C84.897,167.275,74.741,162.34,62.214,162.34L62.214,162.34z M39.793,180.483c-0.172,0.545-0.262,1.109-0.262,1.678
	c0,6.081,10.159,11.016,22.683,11.016c12.527,0,22.683-4.935,22.683-11.016c0-0.67-0.124-1.328-0.359-1.966
	c-3.53,4.095-12.274,6.99-22.502,6.99C52.05,187.186,43.478,184.42,39.793,180.483L39.793,180.483z M39.793,189.489
	c-0.172,0.548-0.262,1.108-0.262,1.682c0,6.08,10.159,11.011,22.683,11.011c12.527,0,22.683-4.931,22.683-11.011
	c0-0.675-0.124-1.329-0.359-1.967c-3.53,4.091-12.274,6.986-22.502,6.986C52.05,196.19,43.478,193.429,39.793,189.489
	L39.793,189.489z"/>
</svg>
