<?xml version="1.0" encoding="utf-8"?>
<!DOCTYPE svg PUBLIC "-//W3C//DTD SVG 1.1//EN" "http://www.w3.org/Graphics/SVG/1.1/DTD/svg11.dtd">
<svg version="1.1" xmlns="http://www.w3.org/2000/svg" xmlns:xlink="http://www.w3.org/1999/xlink" x="0px" y="0px" width="216px" height="216px" viewBox="0 0 216 216" enable-background="new 0 0 216 216" xml:space="preserve">
<path fill-rule="evenodd" clip-rule="evenodd" d="M98.04,137.369
	c-13.984,8.521-21.971,20.935-17.834,27.727c4.137,6.793,18.833,5.388,32.816-3.132c13.988-8.516,21.971-20.934,17.834-27.726
	C126.719,127.445,112.024,128.85,98.04,137.369L98.04,137.369z M85.345,172.873c0.182,0.73,0.46,1.417,0.85,2.055
	c4.137,6.792,18.833,5.388,32.82-3.132c13.98-8.521,21.967-20.938,17.83-27.727c-0.456-0.747-1.041-1.396-1.735-1.949
	c-1.158,6.97-8.951,16.151-20.369,23.109C103.587,172.021,92.138,174.766,85.345,172.873L85.345,172.873z M136.146,54.893h38.208
	c2.797,0,5.081,2.288,5.081,5.085v0.333c0,2.797-2.284,5.083-5.081,5.083h-38.208c-2.797,0-5.081-2.286-5.081-5.083v-0.333
	C131.065,57.181,133.35,54.893,136.146,54.893L136.146,54.893z M42.89,35.947h17.066c3.779,0,6.871,3.093,6.871,6.873v17.063
	c0,3.78-3.092,6.873-6.871,6.873H42.89c-3.779,0-6.871-3.093-6.871-6.873V42.82C36.019,39.04,39.111,35.947,42.89,35.947
	L42.89,35.947z"/>
</svg>
