<?xml version="1.0" encoding="utf-8"?>
<!DOCTYPE svg PUBLIC "-//W3C//DTD SVG 1.1//EN" "http://www.w3.org/Graphics/SVG/1.1/DTD/svg11.dtd">
<svg version="1.1" xmlns="http://www.w3.org/2000/svg" xmlns:xlink="http://www.w3.org/1999/xlink" x="0px" y="0px" width="216px" height="216px" viewBox="0 0 216 216" enable-background="new 0 0 216 216" xml:space="preserve">
<path fill-rule="evenodd" clip-rule="evenodd" d="M160.503,128.272v26.383
	c0.674,4.642,2.265,7.817,7.402,8.1c7.373,0.404,14.808,0,22.209,0c14,0.061,22.532-0.278,1.122,7.749l-66.947,25.107
	c-15.863,5.948-14.553,5.933-30.416-0.013c-21.991-8.249-43.984-16.498-65.978-24.743c-19.578-7.342-9.864-8.06-1.388-8.101
	c7.807,0,15.615,0,23.42,0c7.01-1.323,8.054-4.185,7.767-8.1v-26.383H19.206c-1.51,0-2.745-1.234-2.745-2.74V21.268
	c0-1.509,1.235-2.744,2.745-2.744h177.43c1.51,0,2.745,1.235,2.745,2.744v104.264c0,1.506-1.235,2.74-2.745,2.74H160.503
	L160.503,128.272z M79.956,171.711l0.583,2.353c0.299,1.215,0.777,2.373,1.427,3.438c3.622,5.945,11.024,7.14,17.417,6.53
	c7.704-0.734,15.641-4.008,22.208-8.007c6.562-4,13.112-9.553,17.297-16.063c3.476-5.399,5.808-12.522,2.188-18.472
	c-0.763-1.251-1.743-2.345-2.897-3.253l-1.315-1.041c-0.149-1.897-0.698-3.77-1.776-5.533c-3.62-5.945-11.021-7.14-17.414-6.53
	c-7.705,0.734-15.643,4.008-22.208,8.007c-6.564,4-13.113,9.554-17.3,16.063c-3.475,5.399-5.806,12.522-2.186,18.472
	C77.025,169.395,78.39,170.714,79.956,171.711L79.956,171.711z M25.199,27.257H190.3v92.677H25.199V27.257L25.199,27.257z"/>
</svg>
