<?xml version="1.0" encoding="utf-8"?>
<!DOCTYPE svg PUBLIC "-//W3C//DTD SVG 1.1//EN" "http://www.w3.org/Graphics/SVG/1.1/DTD/svg11.dtd">
<svg version="1.1" xmlns="http://www.w3.org/2000/svg" xmlns:xlink="http://www.w3.org/1999/xlink" x="0px" y="0px" width="216px" height="216px" viewBox="0 0 216 216" enable-background="new 0 0 216 216" xml:space="preserve">
<path fill-rule="evenodd" clip-rule="evenodd" d="M11.512,5.758h192.816c3.164,0,5.751,2.589,5.751,5.753
	v192.816c0,3.164-2.587,5.752-5.751,5.752H11.512c-3.165,0-5.753-2.588-5.753-5.752V11.512C5.758,8.348,8.347,5.758,11.512,5.758
	L11.512,5.758z M11.512,0.8h192.816c5.893,0,10.712,4.819,10.712,10.711v192.816c0,5.893-4.819,10.712-10.712,10.712H11.512
	c-5.893,0-10.711-4.819-10.711-10.712V11.512C0.8,5.619,5.619,0.8,11.512,0.8L11.512,0.8z M25.199,27.257H190.3v92.677H25.199
	V27.257L25.199,27.257z M93.877,81.493H82.884c-1.231,0-2.609-0.186-3.635-0.922c-1.015-0.745-1.417-1.865-1.417-3.088
	c0-1.267,0.418-2.474,1.655-3.027c1.025-0.46,2.282-0.571,3.396-0.571h16.189c1.29,0,2.861,0.145,3.943,0.896
	c1.082,0.738,1.473,1.927,1.473,3.186c0,1.145-0.758,2.353-1.42,3.247c-0.92,1.241-1.858,2.466-2.809,3.685
	c-1.187,1.514-2.215,3.188-3.152,4.859c-1.239,2.228-2.188,4.673-2.966,7.087c-0.307,0.999-0.597,2.022-0.801,3.043
	c-0.2,1.063-0.371,2.133-0.524,3.205c-0.156,1.035-0.307,2.088-0.523,3.107c-0.27,1.302-0.745,2.906-1.705,3.884
	c-0.861,0.872-1.987,1.245-3.21,1.245c-1.231,0-2.309-0.438-3.13-1.359c-0.882-1.007-1.14-2.361-1.14-3.657
	c0-1.435,0.339-3.026,0.684-4.415c0.547-2.189,1.342-4.367,2.182-6.459c1.063-2.647,2.345-5.212,3.765-7.688
	C90.979,85.58,92.374,83.495,93.877,81.493L93.877,81.493z M135.537,90.039c0.719,0.408,1.393,0.892,2.006,1.463
	c0.993,0.947,1.768,2.057,2.28,3.322c0.541,1.313,0.771,2.712,0.771,4.126c0,2.133-0.521,4.151-1.626,5.987
	c-1.134,1.885-2.78,3.271-4.763,4.235c-2.243,1.084-4.718,1.493-7.199,1.493c-2.515,0-5.062-0.394-7.338-1.495
	c-1.973-0.956-3.616-2.333-4.737-4.209c-1.094-1.831-1.599-3.84-1.599-5.961c0-4.076,1.72-7.077,5.017-8.944
	c-2.434-1.645-3.822-4.02-3.822-7.202c0-1.813,0.509-3.499,1.466-5.043c1.041-1.665,2.534-2.888,4.29-3.766
	c2.001-0.989,4.209-1.376,6.433-1.376c1.824,0,3.681,0.208,5.412,0.799c1.457,0.497,2.837,1.225,3.987,2.254
	c1.029,0.932,1.86,2.028,2.409,3.305c0.521,1.233,0.783,2.535,0.783,3.873c0,1.711-0.448,3.312-1.393,4.748
	C137.276,88.603,136.462,89.392,135.537,90.039L135.537,90.039z M131.945,98.754c0-0.968-0.178-1.935-0.658-2.791
	c-0.419-0.755-1.009-1.334-1.779-1.739c-0.84-0.444-1.739-0.63-2.692-0.63c-1.344,0-2.494,0.412-3.454,1.348
	c-1.062,1.031-1.381,2.432-1.381,3.86c0,0.987,0.186,1.959,0.666,2.831c0.432,0.773,1.005,1.382,1.772,1.826
	c0.791,0.448,1.638,0.648,2.546,0.648c0.912,0,1.772-0.2,2.559-0.66c0.764-0.444,1.34-1.069,1.76-1.849
	C131.76,100.722,131.945,99.743,131.945,98.754L131.945,98.754z M126.868,79.229c-1.138,0-2.167,0.295-2.975,1.106
	c-0.799,0.815-1.109,1.804-1.109,2.93c0,1.065,0.343,1.949,1.118,2.69c0.839,0.789,1.868,1.08,3.015,1.08
	c0.581,0,1.17-0.085,1.715-0.291c0.468-0.18,0.904-0.44,1.268-0.785c0.354-0.335,0.621-0.732,0.807-1.181
	c0.206-0.496,0.291-1.029,0.291-1.564c0-0.728-0.153-1.42-0.517-2.058c-0.348-0.605-0.819-1.063-1.429-1.406
	C128.374,79.375,127.635,79.229,126.868,79.229L126.868,79.229z M168.926,95.857c-0.605,0.462-1.255,0.866-1.953,1.199
	c-1.514,0.722-3.14,1.049-4.814,1.049c-1.623,0-3.188-0.309-4.67-0.963c-1.437-0.635-2.7-1.536-3.758-2.69
	c-1.069-1.168-1.876-2.514-2.417-3.995c-0.569-1.526-0.844-3.116-0.844-4.74c0-1.742,0.307-3.433,0.944-5.057
	c0.622-1.574,1.521-2.982,2.721-4.185c1.198-1.205,2.623-2.119,4.205-2.771c1.699-0.688,3.512-0.983,5.344-0.983
	c2.074,0,4.124,0.351,6.009,1.221c1.792,0.819,3.294,2.026,4.5,3.569c1.324,1.689,2.184,3.703,2.753,5.757
	c0.678,2.482,0.928,5.085,0.928,7.652c0,2.801-0.25,5.674-0.977,8.389c-0.602,2.226-1.521,4.391-2.926,6.237
	c-1.251,1.663-2.817,2.984-4.714,3.862c-1.934,0.896-4.027,1.257-6.154,1.257c-2.063,0-4.101-0.356-5.949-1.299
	c-1.533-0.787-2.926-1.847-3.915-3.273c-0.803-1.176-1.38-2.512-1.38-3.953c0-0.952,0.363-1.786,1.021-2.468
	c0.703-0.753,1.615-1.108,2.644-1.108c0.908,0,1.748,0.252,2.479,0.763c0.807,0.545,1.336,1.34,1.667,2.236
	c0.282,0.765,0.742,1.376,1.416,1.853c0.666,0.468,1.393,0.692,2.212,0.692c0.767,0,1.469-0.192,2.139-0.569
	c0.723-0.406,1.308-0.987,1.772-1.663C168.203,100.417,168.684,98.008,168.926,95.857L168.926,95.857z M168.57,85.995
	c0-0.916-0.116-1.834-0.399-2.71c-0.246-0.749-0.597-1.455-1.089-2.07c-0.452-0.557-0.989-1.005-1.631-1.334
	c-0.63-0.321-1.3-0.464-2.006-0.464c-1.324,0-2.32,0.595-3.144,1.596c-1.058,1.287-1.381,2.936-1.381,4.554
	c0,1.59,0.319,3.212,1.368,4.462c0.872,1.025,1.938,1.542,3.298,1.542c0.859,0,1.643-0.228,2.389-0.646
	c0.799-0.462,1.404-1.114,1.864-1.907C168.373,88.092,168.57,87.051,168.57,85.995L168.57,85.995z M67.558,110.715
	c-1.231,0-2.333-0.397-3.255-1.205c-1.015-0.89-1.429-2.106-1.429-3.426c0-1.241,0.45-2.325,1.326-3.212
	c0.894-0.904,2.016-1.354,3.291-1.354c1.273,0,2.396,0.442,3.31,1.322c0.914,0.882,1.378,1.981,1.378,3.245
	c0,1.31-0.412,2.51-1.407,3.403C69.868,110.297,68.782,110.715,67.558,110.715L67.558,110.715z M54.005,110.715
	c-1.231,0-2.333-0.397-3.257-1.205c-1.013-0.89-1.429-2.106-1.429-3.426c0-1.241,0.452-2.325,1.328-3.212
	c0.894-0.904,2.018-1.354,3.292-1.354s2.395,0.442,3.305,1.322c0.917,0.882,1.38,1.981,1.38,3.245c0,1.31-0.412,2.51-1.406,3.403
	C56.313,110.297,55.228,110.715,54.005,110.715L54.005,110.715z M40.196,110.715c-1.231,0-2.335-0.397-3.255-1.205
	c-1.015-0.89-1.431-2.106-1.431-3.426c0-1.241,0.452-2.325,1.33-3.212c0.892-0.904,2.016-1.354,3.29-1.354
	c1.273,0,2.397,0.442,3.307,1.322c0.914,0.882,1.378,1.981,1.378,3.245c0,1.31-0.41,2.51-1.404,3.403
	C42.507,110.297,41.421,110.715,40.196,110.715L40.196,110.715z M42.89,35.947h17.066c3.779,0,6.871,3.093,6.871,6.873v17.063
	c0,3.78-3.092,6.873-6.871,6.873H42.89c-3.779,0-6.871-3.093-6.871-6.873V42.82C36.019,39.04,39.111,35.947,42.89,35.947
	L42.89,35.947z M83.075,35.947h90.892c2.926,0,5.315,2.391,5.315,5.313v0.002c0,2.922-2.39,5.313-5.315,5.313H83.075
	c-2.922,0-5.313-2.392-5.313-5.313V41.26C77.762,38.338,80.153,35.947,83.075,35.947L83.075,35.947z M136.146,54.893h38.208
	c2.797,0,5.081,2.288,5.081,5.085v0.333c0,2.797-2.284,5.083-5.081,5.083h-38.208c-2.797,0-5.081-2.286-5.081-5.083v-0.333
	C131.065,57.181,133.35,54.893,136.146,54.893L136.146,54.893z M83.011,54.893h37.872c2.89,0,5.251,2.365,5.251,5.25v0.002
	c0,2.888-2.361,5.249-5.251,5.249H83.011c-2.888,0-5.249-2.361-5.249-5.249v-0.002C77.762,57.258,80.123,54.893,83.011,54.893
	L83.011,54.893z"/>
</svg>
