<?xml version="1.0" encoding="utf-8"?>
<!DOCTYPE svg PUBLIC "-//W3C//DTD SVG 1.1//EN" "http://www.w3.org/Graphics/SVG/1.1/DTD/svg11.dtd">
<svg version="1.1" xmlns="http://www.w3.org/2000/svg" xmlns:xlink="http://www.w3.org/1999/xlink" x="0px" y="0px" width="216px" height="216px" viewBox="0 0 216 216" enable-background="new 0 0 216 216" xml:space="preserve">
<path id="_x33_" fill-rule="evenodd" clip-rule="evenodd" fill="#F58031" d="M30.642,110.215h24.07v18.396h-24.07V110.215
	L30.642,110.215z M27.189,81.983h100.097c6.274,0,11.409,5.135,11.409,11.413v61.206c0,6.278-5.135,11.413-11.409,11.413H27.189
	c-6.276,0-11.411-5.135-11.411-11.413V93.396C15.778,87.118,20.914,81.983,27.189,81.983L27.189,81.983z"/>
<path id="_x32_" fill-rule="evenodd" clip-rule="evenodd" fill="#999557" d="M10.791,4.995h194.258c3.188,0,5.794,2.608,5.794,5.796
	v194.258c0,3.188-2.606,5.794-5.794,5.794H10.791c-3.188,0-5.796-2.606-5.796-5.794V10.791C4.995,7.604,7.604,4.995,10.791,4.995
	L10.791,4.995z M10.791,0h194.258c5.937,0,10.791,4.855,10.791,10.791v194.258c0,5.937-4.854,10.791-10.791,10.791H10.791
	C4.855,215.84,0,210.985,0,205.049V10.791C0,4.855,4.855,0,10.791,0L10.791,0z M69.38,18.476v18.653
	c-0.512,3.505-1.714,5.901-5.591,6.113c-5.568,0.307-11.18,0-16.771,0c-10.569,0.046-17.01-0.209-0.843,5.853l50.546,18.956
	c11.976,4.491,10.986,4.48,22.964-0.008c16.606-6.229,33.212-12.456,49.817-18.683c14.779-5.542,7.444-6.085,1.045-6.117
	c-5.892,0-11.787,0-17.684,0c-5.294-1-6.078-3.155-5.863-6.113c0-5.886,0-11.773,0-17.659c0-4.967-2.776-5.337-6.217-5.337H74.664
	C70.161,14.39,69.38,14.325,69.38,18.476L69.38,18.476z"/>
<path id="_x31_" fill-rule="evenodd" clip-rule="evenodd" fill="#7E5628" d="M143.692,111.908h43.734
	c6.948,0,12.637,5.688,12.637,12.638v59.262c0,6.949-5.688,12.634-12.637,12.634H89.82c-6.951,0-12.637-5.685-12.637-12.634v-12.8
	h12.202v14.105h27.358h71.118v-30.39h-44.173l0.004-0.122V137.24h44.169v-12.26h-21.688h-22.481V111.908L143.692,111.908z"/>
</svg>
