<?xml version="1.0" encoding="utf-8"?>
<!DOCTYPE svg PUBLIC "-//W3C//DTD SVG 1.1//EN" "http://www.w3.org/Graphics/SVG/1.1/DTD/svg11.dtd">
<svg version="1.1" xmlns="http://www.w3.org/2000/svg" xmlns:xlink="http://www.w3.org/1999/xlink" x="0px" y="0px" width="216px" height="216px" viewBox="0 0 216 216" enable-background="new 0 0 216 216" xml:space="preserve">
<path fill-rule="evenodd" clip-rule="evenodd" d="M10.791,4.995h194.258c3.188,0,5.794,2.608,5.794,5.796
	v194.258c0,3.188-2.606,5.794-5.794,5.794H10.791c-3.188,0-5.796-2.606-5.796-5.794V10.791C4.995,7.604,7.604,4.995,10.791,4.995
	L10.791,4.995z M10.791,0h194.258c5.937,0,10.791,4.855,10.791,10.791v194.258c0,5.937-4.854,10.791-10.791,10.791H10.791
	C4.855,215.84,0,210.985,0,205.049V10.791C0,4.855,4.855,0,10.791,0L10.791,0z M69.38,18.476v18.653
	c-0.512,3.505-1.714,5.901-5.591,6.113c-5.568,0.307-11.18,0-16.771,0c-10.569,0.046-17.01-0.209-0.843,5.853l50.546,18.956
	c11.976,4.491,10.986,4.48,22.964-0.008c16.606-6.229,33.212-12.456,49.817-18.683c14.779-5.542,7.444-6.085,1.045-6.117
	c-5.892,0-11.787,0-17.684,0c-5.294-1-6.078-3.155-5.863-6.113c0-5.886,0-11.773,0-17.659c0-4.967-2.776-5.337-6.217-5.337H74.664
	C70.161,14.39,69.38,14.325,69.38,18.476L69.38,18.476z"/>
</svg>
