<?xml version="1.0" encoding="utf-8"?>
<!DOCTYPE svg PUBLIC "-//W3C//DTD SVG 1.1//EN" "http://www.w3.org/Graphics/SVG/1.1/DTD/svg11.dtd">
<svg version="1.1" xmlns="http://www.w3.org/2000/svg" xmlns:xlink="http://www.w3.org/1999/xlink" x="0px" y="0px" width="216px" height="216px" viewBox="0 0 216 216" enable-background="new 0 0 216 216" xml:space="preserve">
<path fill-rule="evenodd" clip-rule="evenodd" d="M24.581,98.983h166.334v93.368H24.581V98.983
	L24.581,98.983z M39.69,183.063c-1.24,0-2.353-0.402-3.279-1.216c-1.022-0.895-1.441-2.118-1.441-3.447
	c0-1.253,0.455-2.343,1.34-3.241c0.898-0.906,2.031-1.362,3.313-1.362c1.283,0,2.416,0.443,3.332,1.33
	c0.921,0.891,1.389,2,1.389,3.273c0,1.317-0.413,2.524-1.415,3.423C42.018,182.645,40.924,183.063,39.69,183.063L39.69,183.063z
	 M53.602,183.063c-1.24,0-2.35-0.402-3.281-1.216c-1.021-0.895-1.439-2.118-1.439-3.447c0-1.253,0.456-2.343,1.338-3.241
	c0.9-0.906,2.033-1.362,3.316-1.362c1.283,0,2.413,0.443,3.33,1.33c0.923,0.891,1.391,2,1.391,3.273
	c0,1.317-0.415,2.524-1.417,3.423C55.928,182.645,54.834,183.063,53.602,183.063L53.602,183.063z M67.256,183.063
	c-1.24,0-2.35-0.402-3.279-1.216c-1.022-0.895-1.439-2.118-1.439-3.447c0-1.253,0.454-2.343,1.336-3.241
	c0.9-0.906,2.031-1.362,3.315-1.362c1.283,0,2.414,0.443,3.334,1.33c0.921,0.891,1.388,2,1.388,3.273
	c0,1.317-0.415,2.524-1.417,3.423C69.583,182.645,68.49,183.063,67.256,183.063L67.256,183.063z M93.772,153.622H82.696
	c-1.24,0-2.628-0.184-3.661-0.928c-1.023-0.748-1.427-1.878-1.427-3.11c0-1.276,0.421-2.492,1.667-3.049
	c1.033-0.464,2.299-0.573,3.421-0.573h16.311c1.299,0,2.883,0.146,3.972,0.902c1.09,0.744,1.484,1.939,1.484,3.208
	c0,1.154-0.765,2.37-1.431,3.269c-0.927,1.253-1.873,2.489-2.83,3.717c-1.195,1.521-2.232,3.212-3.176,4.892
	c-1.248,2.244-2.204,4.708-2.988,7.14c-0.309,1.009-0.602,2.041-0.807,3.065c-0.201,1.074-0.374,2.151-0.529,3.232
	c-0.156,1.041-0.309,2.103-0.526,3.131c-0.272,1.31-0.75,2.928-1.718,3.912c-0.868,0.878-2.002,1.256-3.235,1.256
	c-1.24,0-2.326-0.443-3.153-1.374c-0.889-1.013-1.149-2.374-1.149-3.68c0-1.447,0.342-3.054,0.689-4.452
	c0.551-2.204,1.352-4.396,2.198-6.506c1.071-2.667,2.362-5.253,3.793-7.746C90.853,157.74,92.258,155.643,93.772,153.622
	L93.772,153.622z M135.743,162.233c0.724,0.411,1.403,0.898,2.021,1.472c1,0.956,1.78,2.074,2.297,3.351
	c0.545,1.321,0.776,2.732,0.776,4.155c0,2.151-0.524,4.181-1.639,6.034c-1.143,1.899-2.801,3.294-4.798,4.266
	c-2.261,1.094-4.753,1.504-7.253,1.504c-2.533,0-5.1-0.395-7.393-1.504c-1.988-0.968-3.643-2.354-4.773-4.245
	c-1.102-1.842-1.61-3.867-1.61-6.006c0-4.103,1.732-7.127,5.055-9.006c-2.452-1.659-3.851-4.054-3.851-7.258
	c0-1.825,0.512-3.525,1.476-5.082c1.049-1.676,2.554-2.907,4.322-3.794c2.017-0.996,4.241-1.387,6.481-1.387
	c1.838,0,3.708,0.212,5.452,0.806c1.468,0.5,2.858,1.235,4.018,2.272c1.036,0.939,1.874,2.045,2.427,3.33
	c0.525,1.244,0.789,2.554,0.789,3.903c0,1.72-0.451,3.334-1.402,4.781C137.496,160.786,136.675,161.579,135.743,162.233
	L135.743,162.233z M132.125,171.012c0-0.972-0.179-1.947-0.663-2.81c-0.423-0.76-1.017-1.346-1.793-1.752
	c-0.846-0.447-1.753-0.635-2.712-0.635c-1.354,0-2.513,0.415-3.48,1.358c-1.069,1.037-1.391,2.452-1.391,3.887
	c0,0.996,0.187,1.977,0.671,2.854c0.435,0.776,1.013,1.395,1.785,1.838c0.797,0.451,1.65,0.655,2.565,0.655
	c0.919,0,1.785-0.204,2.578-0.663c0.769-0.451,1.35-1.078,1.772-1.862C131.938,172.996,132.125,172.013,132.125,171.012
	L132.125,171.012z M127.01,151.341c-1.146,0-2.184,0.297-2.997,1.114c-0.805,0.821-1.118,1.817-1.118,2.952
	c0,1.073,0.346,1.968,1.127,2.712c0.846,0.797,1.883,1.09,3.037,1.09c0.586,0,1.179-0.086,1.729-0.297
	c0.471-0.18,0.91-0.439,1.276-0.789c0.357-0.338,0.626-0.736,0.813-1.191c0.207-0.5,0.292-1.033,0.292-1.573
	c0-0.736-0.154-1.432-0.521-2.074c-0.35-0.609-0.825-1.073-1.439-1.415C128.526,151.491,127.782,151.341,127.01,151.341
	L127.01,151.341z M169.382,168.093c-0.61,0.468-1.265,0.874-1.968,1.208c-1.525,0.731-3.164,1.057-4.852,1.057
	c-1.634,0-3.212-0.309-4.704-0.968c-1.447-0.639-2.72-1.549-3.785-2.708c-1.077-1.179-1.891-2.533-2.436-4.029
	c-0.573-1.537-0.85-3.135-0.85-4.773c0-1.752,0.309-3.46,0.951-5.095c0.626-1.586,1.533-3.005,2.74-4.217
	c1.208-1.216,2.644-2.134,4.237-2.793c1.712-0.691,3.537-0.988,5.383-0.988c2.09,0,4.155,0.354,6.055,1.229
	c1.805,0.825,3.317,2.041,4.533,3.598c1.334,1.7,2.2,3.733,2.773,5.799c0.683,2.505,0.935,5.127,0.935,7.713
	c0,2.822-0.252,5.713-0.983,8.449c-0.605,2.244-1.533,4.424-2.948,6.286c-1.26,1.671-2.838,3.005-4.749,3.887
	c-1.947,0.903-4.058,1.269-6.2,1.269c-2.078,0-4.132-0.361-5.993-1.309c-1.546-0.793-2.948-1.862-3.944-3.298
	c-0.81-1.188-1.391-2.533-1.391-3.984c0-0.96,0.366-1.798,1.028-2.484c0.708-0.761,1.627-1.114,2.664-1.114
	c0.914,0,1.76,0.252,2.496,0.769c0.813,0.545,1.346,1.346,1.68,2.248c0.284,0.772,0.748,1.391,1.427,1.866
	c0.671,0.472,1.402,0.7,2.229,0.7c0.772,0,1.479-0.195,2.154-0.574c0.729-0.406,1.317-0.991,1.785-1.675
	C168.654,172.691,169.138,170.264,169.382,168.093L169.382,168.093z M169.023,158.159c0-0.923-0.117-1.85-0.402-2.728
	c-0.248-0.757-0.602-1.469-1.098-2.091c-0.455-0.557-0.996-1.012-1.643-1.342c-0.635-0.32-1.31-0.467-2.021-0.467
	c-1.334,0-2.338,0.598-3.168,1.609c-1.065,1.293-1.391,2.956-1.391,4.587c0,1.602,0.321,3.236,1.379,4.497
	c0.878,1.032,1.951,1.553,3.321,1.553c0.866,0,1.655-0.231,2.407-0.654c0.806-0.464,1.415-1.122,1.879-1.919
	C168.824,160.273,169.023,159.221,169.023,158.159L169.023,158.159z M82.824,126.827h38.155c2.911,0,5.29,2.378,5.29,5.29l0,0
	c0,2.906-2.379,5.289-5.29,5.289H82.824c-2.909,0-5.288-2.383-5.288-5.289l0,0C77.537,129.205,79.915,126.827,82.824,126.827
	L82.824,126.827z M82.89,107.737h91.57c2.948,0,5.355,2.41,5.355,5.355l0,0c0,2.943-2.407,5.351-5.355,5.351H82.89
	c-2.944,0-5.353-2.407-5.353-5.351l0,0C77.537,110.146,79.946,107.737,82.89,107.737L82.89,107.737z M136.357,126.827h38.493
	c2.817,0,5.119,2.305,5.119,5.123v0.333c0,2.818-2.302,5.123-5.119,5.123h-38.493c-2.817,0-5.119-2.305-5.119-5.123v-0.333
	C131.238,129.132,133.54,126.827,136.357,126.827L136.357,126.827z M42.404,107.737h17.193c3.808,0,6.922,3.115,6.922,6.924v17.191
	c0,3.81-3.115,6.925-6.922,6.925H42.404c-3.808,0-6.922-3.115-6.922-6.925v-17.191C35.482,110.852,38.597,107.737,42.404,107.737
	L42.404,107.737z"/>
</svg>
