<?xml version="1.0" encoding="utf-8"?>
<!DOCTYPE svg PUBLIC "-//W3C//DTD SVG 1.1//EN" "http://www.w3.org/Graphics/SVG/1.1/DTD/svg11.dtd">
<svg version="1.1" xmlns="http://www.w3.org/2000/svg" xmlns:xlink="http://www.w3.org/1999/xlink" x="0px" y="0px" width="216px" height="216px" viewBox="0 0 216 216" enable-background="new 0 0 216 216" xml:space="preserve">
<path fill-rule="evenodd" clip-rule="evenodd" d="M97.966,35.317
	C83.877,43.9,75.831,56.412,79.999,63.255c4.167,6.839,18.974,5.428,33.061-3.157c14.093-8.582,22.135-21.09,17.968-27.932
	C126.859,25.323,112.055,26.734,97.966,35.317L97.966,35.317z M85.177,71.086c0.181,0.736,0.465,1.429,0.856,2.07
	c4.167,6.843,18.974,5.428,33.061-3.151c14.092-8.585,22.135-21.094,17.967-27.936c-0.459-0.754-1.049-1.409-1.748-1.962
	c-1.167,7.018-9.019,16.27-20.521,23.278C103.555,70.228,92.02,72.995,85.177,71.086L85.177,71.086z M136.357,126.827h38.493
	c2.817,0,5.119,2.305,5.119,5.123v0.333c0,2.818-2.302,5.123-5.119,5.123h-38.493c-2.817,0-5.119-2.305-5.119-5.123v-0.333
	C131.238,129.132,133.54,126.827,136.357,126.827L136.357,126.827z M42.404,107.737h17.193c3.808,0,6.922,3.115,6.922,6.924v17.191
	c0,3.81-3.115,6.925-6.922,6.925H42.404c-3.808,0-6.922-3.115-6.922-6.925v-17.191C35.482,110.852,38.597,107.737,42.404,107.737
	L42.404,107.737z"/>
</svg>
