<?xml version="1.0" encoding="utf-8"?>
<!DOCTYPE svg PUBLIC "-//W3C//DTD SVG 1.1//EN" "http://www.w3.org/Graphics/SVG/1.1/DTD/svg11.dtd">
<svg version="1.1" xmlns="http://www.w3.org/2000/svg" xmlns:xlink="http://www.w3.org/1999/xlink" x="0px" y="0px" width="216px" height="216px" viewBox="0 0 216 216" enable-background="new 0 0 216 216" xml:space="preserve">
<path fill-rule="evenodd" clip-rule="evenodd" d="M10.791,4.995h194.258c3.188,0,5.794,2.608,5.794,5.796
	v194.258c0,3.188-2.606,5.794-5.794,5.794H10.791c-3.188,0-5.796-2.606-5.796-5.794V10.791C4.995,7.604,7.604,4.995,10.791,4.995
	L10.791,4.995z M10.791,0h194.258c5.937,0,10.791,4.855,10.791,10.791v194.258c0,5.937-4.854,10.791-10.791,10.791H10.791
	C4.855,215.84,0,210.985,0,205.049V10.791C0,4.855,4.855,0,10.791,0L10.791,0z M18.543,200.755c-1.521,0-2.765-1.244-2.765-2.765
	V92.949c0-1.521,1.244-2.765,2.765-2.765h73.469l-64.715-24.27c-19.724-7.396-9.937-8.12-1.398-8.161c7.866,0,15.731,0,23.595,0
	c7.063-1.333,8.114-4.214,7.825-8.16l0.004-35.46h103.573v35.46c0.68,4.678,2.281,7.875,7.457,8.16c7.429,0.407,14.919,0,22.376,0
	c14.104,0.063,22.7-0.28,1.13,7.809l-65.662,24.622h71.103c1.521,0,2.765,1.244,2.765,2.765V197.99c0,1.521-1.244,2.765-2.765,2.765
	C107.286,200.755,110.122,200.755,18.543,200.755L18.543,200.755z M79.747,69.917l0.587,2.369c0.301,1.224,0.783,2.391,1.438,3.466
	c3.649,5.991,11.106,7.19,17.547,6.579c7.762-0.74,15.758-4.04,22.373-8.069c6.611-4.027,13.211-9.623,17.427-16.181
	c3.501-5.442,5.852-12.619,2.204-18.608c-0.769-1.262-1.757-2.364-2.92-3.281l-1.325-1.049c-0.15-1.911-0.703-3.794-1.789-5.575
	c-3.647-5.987-11.104-7.193-17.545-6.579c-7.762,0.742-15.76,4.04-22.373,8.069c-6.613,4.027-13.21,9.622-17.429,16.181
	c-3.501,5.442-5.849,12.619-2.202,18.61C76.794,67.581,78.169,68.915,79.747,69.917L79.747,69.917z M24.581,98.983h166.334v93.368
	H24.581V98.983L24.581,98.983z"/>
</svg>
