<?xml version="1.0" encoding="utf-8"?>
<!DOCTYPE svg PUBLIC "-//W3C//DTD SVG 1.1//EN" "http://www.w3.org/Graphics/SVG/1.1/DTD/svg11.dtd">
<svg version="1.1" xmlns="http://www.w3.org/2000/svg" xmlns:xlink="http://www.w3.org/1999/xlink" x="0px" y="0px" width="216px" height="216px" viewBox="0 0 216 216" enable-background="new 0 0 216 216" xml:space="preserve">
<path fill-rule="evenodd" clip-rule="evenodd" fill="#F58031" d="M199.666,96.2c0.464-0.218,1.213,0.832,0.903,1.239
	c-14.487,19.062-26.361,39.896-37.269,61.392c-0.341,0.651-1.831,0.594-2.222-0.032c-6.625-10.581-15.073-20.519-24.767-29.992
	c-0.627-0.61-0.506-1.938,0.032-2.637c1.669-2.198,3.809-3.28,5.331-4.232c1.514-0.96,2.67-0.594,3.313-0.09
	c4.916,3.898,9.278,8.147,14.129,12.127c0.416,0.35,1.254,0.269,1.628-0.138c10.401-11.362,20.038-23.496,31.979-32.715
	C194.97,99.39,197.102,97.405,199.666,96.2L199.666,96.2z M175.599,105.106H85.362c-6.525,0-11.812,5.287-11.812,11.81v7.878h-3.937
	c-6.523,0-11.81,5.282-11.81,11.81v49.257c0,8.701,7.048,15.749,15.747,15.749h98.109c8.701,0,15.749-7.048,15.749-15.749v-59.112
	c-2.71,4.436-5.331,8.92-7.87,13.453v45.659l0,0c0,4.339-3.532,7.879-7.879,7.879H73.55c-4.34,0-7.873-3.54-7.873-7.879v-49.257
	c0-2.173,1.763-3.938,3.936-3.938h3.937v49.265c0,2.173,1.76,3.931,3.938,3.931s3.937-1.758,3.937-3.931v-65.014
	c0-2.172,1.766-3.936,3.938-3.936h86.599c2.328-2.505,4.688-4.969,7.138-7.347C177.991,105.289,176.82,105.106,175.599,105.106
	L175.599,105.106z"/>
<path fill-rule="evenodd" clip-rule="evenodd" fill="#999557" d="M11.21,5.685h194.421
	c3.191,0,5.804,2.608,5.804,5.801v194.422c0,3.19-2.612,5.803-5.804,5.803H11.21c-3.192,0-5.803-2.612-5.803-5.803V11.485
	C5.407,8.293,8.018,5.685,11.21,5.685L11.21,5.685z M11.21,0.683h194.421c5.942,0,10.801,4.861,10.801,10.802v194.422
	c0,5.941-4.858,10.801-10.801,10.801H11.21c-5.943,0-10.802-4.859-10.802-10.801V11.485C0.408,5.544,5.267,0.683,11.21,0.683
	L11.21,0.683z M133.993,21.944H43.758c-6.523,0-11.81,5.286-11.81,11.812v7.876h-3.939c-6.521,0-11.81,5.286-11.81,11.807v49.262
	c0,8.698,7.051,15.753,15.749,15.753h36.06v-1.538c0-2.238,0.423-4.375,1.194-6.338H31.948c-4.342,0-7.875-3.539-7.875-7.877V53.439
	c0-2.17,1.762-3.937,3.935-3.937h3.939v49.263c0,2.175,1.76,3.935,3.937,3.935c2.175,0,3.936-1.76,3.936-3.935v-65.01
	c0-2.171,1.766-3.937,3.937-3.937h86.597c2.328-2.503,4.696-4.967,7.138-7.348C136.386,22.129,135.214,21.944,133.993,21.944
	L133.993,21.944z M145.811,99.562V43.585c-2.711,4.434-5.331,8.925-7.878,13.458v42.518H145.811L145.811,99.562z M158.067,13.038
	c0.456-0.216,1.205,0.834,0.896,1.241c-14.487,19.058-26.354,39.895-37.269,61.388c-0.333,0.659-1.822,0.598-2.222-0.028
	c-6.619-10.585-15.069-20.519-24.765-29.99c-0.627-0.615-0.502-1.937,0.03-2.639c1.67-2.2,3.813-3.28,5.331-4.236
	c1.518-0.954,2.669-0.594,3.317-0.083c4.916,3.895,9.28,8.147,14.125,12.127c0.424,0.346,1.262,0.262,1.628-0.141
	c10.401-11.366,20.038-23.497,31.986-32.715C153.371,16.229,155.495,14.245,158.067,13.038L158.067,13.038z"/>
<path fill-rule="evenodd" clip-rule="evenodd" fill="#7E5628" d="M156.334,26.005
	c17.751,6.597,30.032,19.701,30.424,42.19l7.293,0.079c-3.957,5.848-7.912,11.698-11.867,17.548
	c-2.986,4.352-6.112,4.002-8.351-0.234L162.43,67.934l7.293,0.079c-0.448-14.931-9.327-22.185-22.081-26.616L156.334,26.005
	L156.334,26.005z M53.496,85.974h68.776v8.115H53.496V85.974L53.496,85.974z M53.496,65.014h41.854v8.114H53.496V65.014
	L53.496,65.014z M53.496,43.958h30.688v8.112H53.496V43.958L53.496,43.958z M97.868,172.944h68.779v8.114H97.868V172.944
	L97.868,172.944z M97.868,151.979h41.855v8.114H97.868V151.979L97.868,151.979z M97.868,130.923h30.688v8.114H97.868V130.923
	L97.868,130.923z"/>
</svg>
