<?xml version="1.0" encoding="utf-8"?>
<!DOCTYPE svg PUBLIC "-//W3C//DTD SVG 1.1//EN" "http://www.w3.org/Graphics/SVG/1.1/DTD/svg11.dtd">
<svg version="1.1" xmlns="http://www.w3.org/2000/svg" xmlns:xlink="http://www.w3.org/1999/xlink" x="0px" y="0px" width="216px" height="216px" viewBox="0 0 216 216" enable-background="new 0 0 216 216" xml:space="preserve">
<path fill-rule="evenodd" clip-rule="evenodd" d="M10.692,5.273h194.035
	c3.186,0,5.791,2.607,5.791,5.797v194.282c0,3.188-2.605,5.799-5.791,5.799H10.692c-3.186,0-5.792-2.61-5.792-5.799V11.07
	C4.9,7.88,7.506,5.273,10.692,5.273L10.692,5.273z M10.692,0.275h194.035c5.932,0,10.779,4.858,10.779,10.795v194.282
	c0,5.938-4.848,10.793-10.779,10.793H10.692c-5.932,0-10.781-4.855-10.781-10.793V11.07C-0.089,5.133,4.76,0.275,10.692,0.275
	L10.692,0.275z M133.23,21.521H43.175c-6.511,0-11.786,5.283-11.786,11.804v7.871h-3.932c-6.509,0-11.787,5.283-11.787,11.799
	v49.227c0,8.692,7.036,15.741,15.718,15.741h35.987v-1.537c0-2.236,0.422-4.371,1.192-6.333H31.389
	c-4.334,0-7.859-3.537-7.859-7.871V52.994c0-2.169,1.759-3.934,3.928-3.934h3.932v49.228c0,2.174,1.756,3.933,3.929,3.933
	c2.171,0,3.927-1.759,3.927-3.933V33.325c0-2.17,1.763-3.935,3.93-3.935H129.6c2.322-2.501,4.686-4.963,7.123-7.342
	C135.619,21.707,134.449,21.521,133.23,21.521L133.23,21.521z M145.025,99.083V43.147c-2.705,4.43-5.32,8.918-7.863,13.448v42.487
	H145.025L145.025,99.083z M157.258,12.622c0.455-0.215,1.201,0.833,0.895,1.24c-14.459,19.043-26.303,39.867-37.195,61.344
	c-0.332,0.659-1.82,0.598-2.217-0.028c-6.607-10.577-15.041-20.504-24.716-29.969c-0.626-0.614-0.501-1.936,0.03-2.637
	c1.667-2.198,3.806-3.277,5.321-4.233c1.515-0.953,2.665-0.593,3.311-0.083c4.906,3.891,9.26,8.141,14.096,12.118
	c0.422,0.346,1.26,0.262,1.625-0.141c10.381-11.358,19.998-23.48,31.924-32.69C152.57,15.81,154.691,13.827,157.258,12.622
	L157.258,12.622z"/>
</svg>
