<?xml version="1.0" encoding="utf-8"?>
<!DOCTYPE svg PUBLIC "-//W3C//DTD SVG 1.1//EN" "http://www.w3.org/Graphics/SVG/1.1/DTD/svg11.dtd">
<svg version="1.1" xmlns="http://www.w3.org/2000/svg" xmlns:xlink="http://www.w3.org/1999/xlink" x="0px" y="0px" width="216px" height="216px" viewBox="0 0 216 216" enable-background="new 0 0 216 216" xml:space="preserve">
<path fill-rule="evenodd" clip-rule="evenodd" d="M199.666,96.2c0.464-0.218,1.213,0.832,0.903,1.239
	c-14.487,19.062-26.361,39.896-37.269,61.392c-0.341,0.651-1.831,0.594-2.222-0.032c-6.625-10.581-15.073-20.519-24.767-29.992
	c-0.627-0.61-0.506-1.938,0.032-2.637c1.669-2.198,3.809-3.28,5.331-4.232c1.514-0.96,2.67-0.594,3.313-0.09
	c4.916,3.898,9.278,8.147,14.129,12.127c0.416,0.35,1.254,0.269,1.628-0.138c10.401-11.362,20.038-23.496,31.979-32.715
	C194.97,99.39,197.102,97.405,199.666,96.2L199.666,96.2z M175.599,105.106H85.362c-6.525,0-11.812,5.287-11.812,11.81v7.878h-3.937
	c-6.523,0-11.81,5.282-11.81,11.81v49.257c0,8.701,7.048,15.749,15.747,15.749h98.109c8.701,0,15.749-7.048,15.749-15.749v-59.112
	c-2.71,4.436-5.331,8.92-7.87,13.453v45.659l0,0c0,4.339-3.532,7.879-7.879,7.879H73.55c-4.34,0-7.873-3.54-7.873-7.879v-49.257
	c0-2.173,1.763-3.938,3.936-3.938h3.937v49.265c0,2.173,1.76,3.931,3.938,3.931s3.937-1.758,3.937-3.931v-65.014
	c0-2.172,1.766-3.936,3.938-3.936h86.599c2.328-2.505,4.688-4.969,7.138-7.347C177.991,105.289,176.82,105.106,175.599,105.106
	L175.599,105.106z"/>
</svg>
