<?xml version="1.0" encoding="utf-8"?>
<!DOCTYPE svg PUBLIC "-//W3C//DTD SVG 1.1//EN" "http://www.w3.org/Graphics/SVG/1.1/DTD/svg11.dtd">
<svg version="1.1" xmlns="http://www.w3.org/2000/svg" xmlns:xlink="http://www.w3.org/1999/xlink" x="0px" y="0px" width="216px" height="216px" viewBox="0 0 216 216" enable-background="new 0 0 216 216" xml:space="preserve">
<path fill-rule="evenodd" clip-rule="evenodd" d="M156.334,26.005
	c17.751,6.597,30.032,19.701,30.424,42.19l7.293,0.079c-3.957,5.848-7.912,11.698-11.867,17.548
	c-2.986,4.352-6.112,4.002-8.351-0.234L162.43,67.934l7.293,0.079c-0.448-14.931-9.327-22.185-22.081-26.616L156.334,26.005
	L156.334,26.005z M53.496,85.974h68.776v8.115H53.496V85.974L53.496,85.974z M53.496,65.014h41.854v8.114H53.496V65.014
	L53.496,65.014z M53.496,43.958h30.688v8.112H53.496V43.958L53.496,43.958z M97.868,172.944h68.779v8.114H97.868V172.944
	L97.868,172.944z M97.868,151.979h41.855v8.114H97.868V151.979L97.868,151.979z M97.868,130.923h30.688v8.114H97.868V130.923
	L97.868,130.923z"/>
</svg>
