<?xml version="1.0" encoding="utf-8"?>
<!DOCTYPE svg PUBLIC "-//W3C//DTD SVG 1.1//EN" "http://www.w3.org/Graphics/SVG/1.1/DTD/svg11.dtd">
<svg version="1.1" xmlns="http://www.w3.org/2000/svg" xmlns:xlink="http://www.w3.org/1999/xlink" x="0px" y="0px" width="216px" height="216px" viewBox="0 0 216 216" enable-background="new 0 0 216 216" xml:space="preserve">
<path fill-rule="evenodd" clip-rule="evenodd" d="M21.036,14.829h173.768
	c2.519,0,4.577,2.058,4.577,4.572v176.093c0,2.515-2.059,4.572-4.577,4.572H21.036c-2.519,0-4.575-2.058-4.575-4.572V19.401
	C16.461,16.887,18.518,14.829,21.036,14.829L21.036,14.829z M174.374,183.839c-1.404,0-2.655-0.456-3.713-1.393
	c-1.15-1.021-1.618-2.422-1.618-3.939c0-1.433,0.513-2.676,1.514-3.7c1.017-1.038,2.288-1.555,3.741-1.555s2.728,0.505,3.766,1.521
	c1.041,1.018,1.565,2.276,1.565,3.733c0,1.506-0.46,2.886-1.59,3.915C177.006,183.358,175.771,183.839,174.374,183.839
	L174.374,183.839z M157.226,183.516c-1.404,0-2.659-0.456-3.709-1.393c-1.153-1.021-1.622-2.421-1.622-3.938
	c0-1.433,0.513-2.676,1.51-3.701c1.017-1.037,2.292-1.558,3.745-1.558c1.449,0,2.724,0.508,3.766,1.521
	c1.041,1.017,1.565,2.28,1.565,3.737c0,1.505-0.46,2.886-1.594,3.91C159.857,183.035,158.622,183.516,157.226,183.516
	L157.226,183.516z M139.384,183.839c-1.409,0-2.66-0.456-3.713-1.393c-1.154-1.021-1.623-2.422-1.623-3.939
	c0-1.433,0.513-2.676,1.514-3.7c1.017-1.038,2.288-1.555,3.741-1.555s2.729,0.505,3.766,1.521c1.041,1.018,1.565,2.276,1.565,3.733
	c0,1.506-0.46,2.886-1.59,3.915C142.011,183.358,140.775,183.839,139.384,183.839L139.384,183.839z M103.983,164.745h9.749
	l-4.919-13.456L103.983,164.745L103.983,164.745z M116.75,173.095h-15.709l-1.768,4.751c-0.517,1.367-1.263,3.333-2.147,4.495
	c-0.835,1.122-2.155,1.498-3.503,1.498c-1.352,0-2.537-0.513-3.513-1.445c-0.957-0.912-1.536-2.038-1.536-3.378
	c0-0.698,0.123-1.396,0.329-2.066c0.279-0.884,0.625-1.764,0.973-2.615l10.74-27.262c0.365-0.94,0.736-1.877,1.104-2.817
	c0.394-1.005,0.864-2.03,1.471-2.93c0.583-0.86,1.35-1.55,2.256-2.063c1.042-0.59,2.232-0.804,3.418-0.804
	c1.19,0,2.399,0.21,3.446,0.804c0.893,0.509,1.663,1.183,2.252,2.03c0.521,0.771,0.965,1.594,1.328,2.457
	c0.44,1.078,0.859,2.172,1.275,3.257l10.966,27.089c0.561,1.353,1.364,3.391,1.364,4.871c0,1.316-0.59,2.442-1.51,3.362
	c-0.997,0.993-2.224,1.51-3.628,1.51c-0.751,0-1.498-0.126-2.159-0.465c-0.605-0.298-1.122-0.71-1.538-1.243
	c-0.48-0.609-0.863-1.396-1.175-2.11c-0.326-0.751-0.661-1.51-0.973-2.28L116.75,173.095L116.75,173.095z M62.053,147.523v8.896
	h6.808c1.425,0,3.227-0.081,4.585-0.553c0.953-0.331,1.632-0.957,2.123-1.856c0.404-0.674,0.579-1.417,0.579-2.204
	c0-1.38-0.333-2.704-1.683-3.325c-1.81-0.831-4.534-0.957-6.494-0.957H62.053L62.053,147.523z M62.053,164.482v10.296h8.148
	c3.727,0,7.64-0.791,7.64-5.235c0-1.554-0.43-2.922-1.776-3.785c-1.683-1.069-4.209-1.275-6.148-1.275H62.053L62.053,164.482z
	 M81.501,159.761c4.288,1.921,6.925,5.267,6.925,10.416c0,2.471-0.629,4.783-1.963,6.865c-1.304,2.046-3.083,3.567-5.315,4.549
	c-1.487,0.613-3.069,0.988-4.659,1.19c-1.958,0.271-3.963,0.343-5.935,0.343H57.718c-1.646,0-3.485-0.299-4.671-1.546
	c-1.164-1.223-1.463-3.022-1.463-4.645v-31.569c0-1.638,0.289-3.471,1.5-4.682c1.201-1.198,3-1.509,4.635-1.509h13.607
	c1.786,0,3.606,0.093,5.37,0.383c1.521,0.255,2.977,0.759,4.294,1.555c1.102,0.661,2.054,1.488,2.883,2.466
	c0.832,0.98,1.473,2.095,1.915,3.301c0.446,1.231,0.664,2.507,0.664,3.814C86.451,154.752,84.639,157.73,81.501,159.761
	L81.501,159.761z M34.834,177.353v-33.082c0-1.602,0.315-3.301,1.429-4.523c0.997-1.098,2.294-1.61,3.766-1.61
	c1.485,0,2.803,0.492,3.822,1.582c1.134,1.219,1.453,2.941,1.453,4.552v33.082c0,1.614-0.323,3.33-1.451,4.553
	c-1.015,1.105-2.331,1.61-3.824,1.61c-1.471,0-2.75-0.533-3.745-1.622C35.162,180.662,34.834,178.967,34.834,177.353L34.834,177.353
	z M25.199,23.918H190.3v99.79H25.199V23.918L25.199,23.918z M11.512,5.758h192.816c3.164,0,5.751,2.589,5.751,5.753v192.816
	c0,3.164-2.587,5.752-5.751,5.752H11.512c-3.165,0-5.753-2.588-5.753-5.752V11.512C5.758,8.348,8.347,5.758,11.512,5.758
	L11.512,5.758z M11.512,0.8h192.816c5.893,0,10.712,4.819,10.712,10.711v192.816c0,5.893-4.819,10.712-10.712,10.712H11.512
	c-5.893,0-10.711-4.819-10.711-10.712V11.512C0.8,5.619,5.619,0.8,11.512,0.8L11.512,0.8z"/>
</svg>
