<?xml version="1.0" encoding="utf-8"?>
<!DOCTYPE svg PUBLIC "-//W3C//DTD SVG 1.1//EN" "http://www.w3.org/Graphics/SVG/1.1/DTD/svg11.dtd">
<svg version="1.1" xmlns="http://www.w3.org/2000/svg" xmlns:xlink="http://www.w3.org/1999/xlink" x="0px" y="0px" width="216px" height="216px" viewBox="0 0 216 216" enable-background="new 0 0 216 216" xml:space="preserve">
<path fill-rule="evenodd" clip-rule="evenodd" d="M25.199,23.918H190.3v99.79H25.199V23.918
	L25.199,23.918z M83.075,35.008h90.892c2.926,0,5.315,2.391,5.315,5.315l0,0c0,2.924-2.39,5.315-5.315,5.315H83.075
	c-2.922,0-5.313-2.391-5.313-5.315l0,0C77.762,37.399,80.153,35.008,83.075,35.008L83.075,35.008z M40.196,109.776
	c-1.231,0-2.335-0.397-3.255-1.205c-1.015-0.89-1.431-2.104-1.431-3.424c0-1.243,0.452-2.325,1.33-3.215
	c0.892-0.902,2.016-1.352,3.29-1.352c1.273,0,2.397,0.439,3.307,1.319c0.914,0.884,1.378,1.984,1.378,3.247
	c0,1.31-0.41,2.508-1.404,3.4C42.507,109.36,41.421,109.776,40.196,109.776L40.196,109.776z M54.005,109.776
	c-1.231,0-2.333-0.397-3.257-1.205c-1.013-0.89-1.429-2.104-1.429-3.424c0-1.243,0.452-2.325,1.328-3.215
	c0.894-0.902,2.018-1.352,3.292-1.352s2.395,0.439,3.305,1.319c0.917,0.884,1.38,1.984,1.38,3.247c0,1.31-0.412,2.508-1.406,3.4
	C56.313,109.36,55.228,109.776,54.005,109.776L54.005,109.776z M67.558,109.776c-1.231,0-2.333-0.397-3.255-1.205
	c-1.015-0.89-1.429-2.104-1.429-3.424c0-1.243,0.45-2.325,1.326-3.215c0.894-0.902,2.016-1.352,3.291-1.352
	c1.273,0,2.396,0.439,3.31,1.319c0.914,0.884,1.378,1.984,1.378,3.247c0,1.31-0.412,2.508-1.407,3.4
	C69.868,109.36,68.782,109.776,67.558,109.776L67.558,109.776z M83.011,53.957h37.872c2.89,0,5.251,2.363,5.251,5.25l0,0
	c0,2.89-2.361,5.251-5.251,5.251H83.011c-2.888,0-5.249-2.361-5.249-5.251l0,0C77.762,56.319,80.123,53.957,83.011,53.957
	L83.011,53.957z M93.877,80.557H82.884c-1.231,0-2.609-0.186-3.635-0.922c-1.015-0.745-1.417-1.867-1.417-3.089
	c0-1.265,0.418-2.472,1.655-3.025c1.025-0.46,2.282-0.571,3.396-0.571h16.189c1.29,0,2.861,0.146,3.943,0.896
	c1.082,0.739,1.473,1.927,1.473,3.187c0,1.144-0.758,2.351-1.42,3.247c-0.92,1.239-1.858,2.466-2.809,3.685
	c-1.187,1.511-2.215,3.188-3.152,4.857c-1.239,2.23-2.188,4.673-2.966,7.087c-0.307,1.001-0.597,2.024-0.801,3.043
	c-0.2,1.063-0.371,2.133-0.524,3.207c-0.156,1.033-0.307,2.088-0.523,3.108c-0.27,1.301-0.745,2.906-1.705,3.882
	c-0.861,0.874-1.987,1.247-3.21,1.247c-1.231,0-2.309-0.438-3.13-1.361c-0.882-1.005-1.14-2.359-1.14-3.655
	c0-1.435,0.339-3.029,0.684-4.415c0.547-2.189,1.342-4.367,2.182-6.459c1.063-2.649,2.345-5.212,3.765-7.69
	C90.979,84.641,92.374,82.559,93.877,80.557L93.877,80.557z M135.537,89.103c0.719,0.407,1.393,0.89,2.006,1.461
	c0.993,0.946,1.768,2.058,2.28,3.323c0.541,1.312,0.771,2.712,0.771,4.125c0,2.135-0.521,4.151-1.626,5.989
	c-1.134,1.885-2.78,3.271-4.763,4.234c-2.243,1.085-4.718,1.496-7.199,1.496c-2.515,0-5.062-0.394-7.338-1.496
	c-1.973-0.958-3.616-2.333-4.737-4.211c-1.094-1.828-1.599-3.84-1.599-5.961c0-4.074,1.72-7.075,5.017-8.941
	c-2.434-1.645-3.822-4.022-3.822-7.204c0-1.81,0.509-3.497,1.466-5.043c1.041-1.663,2.534-2.885,4.29-3.765
	c2.001-0.989,4.209-1.375,6.433-1.375c1.824,0,3.681,0.206,5.412,0.799c1.457,0.494,2.837,1.223,3.987,2.252
	c1.029,0.934,1.86,2.03,2.409,3.307c0.521,1.233,0.783,2.533,0.783,3.873c0,1.709-0.448,3.312-1.393,4.746
	C137.276,87.666,136.462,88.453,135.537,89.103L135.537,89.103z M131.945,97.816c0-0.967-0.178-1.934-0.658-2.791
	c-0.419-0.755-1.009-1.334-1.779-1.737c-0.84-0.444-1.739-0.632-2.692-0.632c-1.344,0-2.494,0.412-3.454,1.35
	c-1.062,1.029-1.381,2.432-1.381,3.858c0,0.987,0.186,1.961,0.666,2.831c0.432,0.773,1.005,1.384,1.772,1.826
	c0.791,0.448,1.638,0.65,2.546,0.65c0.912,0,1.772-0.2,2.559-0.66c0.764-0.444,1.34-1.069,1.76-1.848
	C131.76,99.784,131.945,98.807,131.945,97.816L131.945,97.816z M126.868,78.293c-1.138,0-2.167,0.292-2.975,1.105
	c-0.799,0.813-1.109,1.802-1.109,2.93c0,1.063,0.343,1.949,1.118,2.69c0.839,0.789,1.868,1.08,3.015,1.08
	c0.581,0,1.17-0.085,1.715-0.292c0.468-0.18,0.904-0.438,1.268-0.783c0.354-0.335,0.621-0.732,0.807-1.18
	c0.206-0.499,0.291-1.029,0.291-1.566c0-0.729-0.153-1.419-0.517-2.059c-0.348-0.603-0.819-1.063-1.429-1.404
	C128.374,78.438,127.635,78.293,126.868,78.293L126.868,78.293z M168.926,94.918c-0.605,0.462-1.255,0.868-1.953,1.201
	c-1.514,0.723-3.14,1.049-4.814,1.049c-1.623,0-3.188-0.311-4.67-0.964c-1.437-0.634-2.7-1.536-3.758-2.688
	c-1.069-1.168-1.876-2.514-2.417-3.998c-0.569-1.523-0.844-3.114-0.844-4.74c0-1.739,0.307-3.43,0.944-5.057
	c0.622-1.572,1.521-2.98,2.721-4.184c1.198-1.207,2.623-2.121,4.205-2.771c1.699-0.688,3.512-0.982,5.344-0.982
	c2.074,0,4.124,0.349,6.009,1.221c1.792,0.817,3.294,2.024,4.5,3.568c1.324,1.691,2.184,3.705,2.753,5.757
	c0.678,2.484,0.928,5.087,0.928,7.654c0,2.801-0.25,5.672-0.977,8.386c-0.602,2.228-1.521,4.391-2.926,6.239
	c-1.251,1.663-2.817,2.983-4.714,3.86c-1.934,0.896-4.027,1.26-6.154,1.26c-2.063,0-4.101-0.359-5.949-1.3
	c-1.533-0.789-2.926-1.847-3.915-3.275c-0.803-1.174-1.38-2.512-1.38-3.953c0-0.95,0.363-1.784,1.021-2.466
	c0.703-0.752,1.615-1.108,2.644-1.108c0.908,0,1.748,0.252,2.479,0.763c0.807,0.544,1.336,1.338,1.667,2.235
	c0.282,0.763,0.742,1.376,1.416,1.851c0.666,0.47,1.393,0.694,2.212,0.694c0.767,0,1.469-0.192,2.139-0.569
	c0.723-0.405,1.308-0.986,1.772-1.665C168.203,99.481,168.684,97.072,168.926,94.918L168.926,94.918z M168.57,85.059
	c0-0.917-0.116-1.836-0.399-2.71c-0.246-0.749-0.597-1.457-1.089-2.07c-0.452-0.557-0.989-1.007-1.631-1.334
	c-0.63-0.321-1.3-0.464-2.006-0.464c-1.324,0-2.32,0.593-3.144,1.596c-1.058,1.288-1.381,2.934-1.381,4.554
	c0,1.588,0.319,3.213,1.368,4.462c0.872,1.025,1.938,1.542,3.298,1.542c0.859,0,1.643-0.23,2.389-0.647
	c0.799-0.46,1.404-1.112,1.864-1.907C168.373,87.155,168.57,86.112,168.57,85.059L168.57,85.059z M136.146,53.957h38.208
	c2.797,0,5.081,2.289,5.081,5.085v0.331c0,2.797-2.284,5.085-5.081,5.085h-38.208c-2.797,0-5.081-2.289-5.081-5.085v-0.331
	C131.065,56.245,133.35,53.957,136.146,53.957L136.146,53.957z M42.89,35.008h17.066c3.779,0,6.871,3.093,6.871,6.873v17.063
	c0,3.782-3.092,6.873-6.871,6.873H42.89c-3.779,0-6.871-3.091-6.871-6.873V41.881C36.019,38.102,39.111,35.008,42.89,35.008
	L42.89,35.008z"/>

</svg>
