<?xml version="1.0" encoding="utf-8"?>
<!DOCTYPE svg PUBLIC "-//W3C//DTD SVG 1.1//EN" "http://www.w3.org/Graphics/SVG/1.1/DTD/svg11.dtd">
<svg version="1.1" xmlns="http://www.w3.org/2000/svg" xmlns:xlink="http://www.w3.org/1999/xlink" x="0px" y="0px" width="216px" height="216px" viewBox="0 0 216 216" enable-background="new 0 0 216 216" xml:space="preserve">
<path id="_x33_" fill-rule="evenodd" clip-rule="evenodd" fill="#F58031" d="M25.199,23.918H190.3v99.79H25.199V23.918
	L25.199,23.918z M83.075,35.008h90.892c2.926,0,5.315,2.391,5.315,5.315l0,0c0,2.924-2.39,5.315-5.315,5.315H83.075
	c-2.922,0-5.313-2.391-5.313-5.315l0,0C77.762,37.399,80.153,35.008,83.075,35.008L83.075,35.008z M40.196,109.776
	c-1.231,0-2.335-0.397-3.255-1.205c-1.015-0.89-1.431-2.104-1.431-3.424c0-1.243,0.452-2.325,1.33-3.215
	c0.892-0.902,2.016-1.352,3.29-1.352c1.273,0,2.397,0.439,3.307,1.319c0.914,0.884,1.378,1.984,1.378,3.247
	c0,1.31-0.41,2.508-1.404,3.4C42.507,109.36,41.421,109.776,40.196,109.776L40.196,109.776z M54.005,109.776
	c-1.231,0-2.333-0.397-3.257-1.205c-1.013-0.89-1.429-2.104-1.429-3.424c0-1.243,0.452-2.325,1.328-3.215
	c0.894-0.902,2.018-1.352,3.292-1.352s2.395,0.439,3.305,1.319c0.917,0.884,1.38,1.984,1.38,3.247c0,1.31-0.412,2.508-1.406,3.4
	C56.313,109.36,55.228,109.776,54.005,109.776L54.005,109.776z M67.558,109.776c-1.231,0-2.333-0.397-3.255-1.205
	c-1.015-0.89-1.429-2.104-1.429-3.424c0-1.243,0.45-2.325,1.326-3.215c0.894-0.902,2.016-1.352,3.291-1.352
	c1.273,0,2.396,0.439,3.31,1.319c0.914,0.884,1.378,1.984,1.378,3.247c0,1.31-0.412,2.508-1.407,3.4
	C69.868,109.36,68.782,109.776,67.558,109.776L67.558,109.776z M83.011,53.957h37.872c2.89,0,5.251,2.363,5.251,5.25l0,0
	c0,2.89-2.361,5.251-5.251,5.251H83.011c-2.888,0-5.249-2.361-5.249-5.251l0,0C77.762,56.319,80.123,53.957,83.011,53.957
	L83.011,53.957z M93.877,80.557H82.884c-1.231,0-2.609-0.186-3.635-0.922c-1.015-0.745-1.417-1.867-1.417-3.089
	c0-1.265,0.418-2.472,1.655-3.025c1.025-0.46,2.282-0.571,3.396-0.571h16.189c1.29,0,2.861,0.146,3.943,0.896
	c1.082,0.739,1.473,1.927,1.473,3.187c0,1.144-0.758,2.351-1.42,3.247c-0.92,1.239-1.858,2.466-2.809,3.685
	c-1.187,1.511-2.215,3.188-3.152,4.857c-1.239,2.23-2.188,4.673-2.966,7.087c-0.307,1.001-0.597,2.024-0.801,3.043
	c-0.2,1.063-0.371,2.133-0.524,3.207c-0.156,1.033-0.307,2.088-0.523,3.108c-0.27,1.301-0.745,2.906-1.705,3.882
	c-0.861,0.874-1.987,1.247-3.21,1.247c-1.231,0-2.309-0.438-3.13-1.361c-0.882-1.005-1.14-2.359-1.14-3.655
	c0-1.435,0.339-3.029,0.684-4.415c0.547-2.189,1.342-4.367,2.182-6.459c1.063-2.649,2.345-5.212,3.765-7.69
	C90.979,84.641,92.374,82.559,93.877,80.557L93.877,80.557z M135.537,89.103c0.719,0.407,1.393,0.89,2.006,1.461
	c0.993,0.946,1.768,2.058,2.28,3.323c0.541,1.312,0.771,2.712,0.771,4.125c0,2.135-0.521,4.151-1.626,5.989
	c-1.134,1.885-2.78,3.271-4.763,4.234c-2.243,1.085-4.718,1.496-7.199,1.496c-2.515,0-5.062-0.394-7.338-1.496
	c-1.973-0.958-3.616-2.333-4.737-4.211c-1.094-1.828-1.599-3.84-1.599-5.961c0-4.074,1.72-7.075,5.017-8.941
	c-2.434-1.645-3.822-4.022-3.822-7.204c0-1.81,0.509-3.497,1.466-5.043c1.041-1.663,2.534-2.885,4.29-3.765
	c2.001-0.989,4.209-1.375,6.433-1.375c1.824,0,3.681,0.206,5.412,0.799c1.457,0.494,2.837,1.223,3.987,2.252
	c1.029,0.934,1.86,2.03,2.409,3.307c0.521,1.233,0.783,2.533,0.783,3.873c0,1.709-0.448,3.312-1.393,4.746
	C137.276,87.666,136.462,88.453,135.537,89.103L135.537,89.103z M131.945,97.816c0-0.967-0.178-1.934-0.658-2.791
	c-0.419-0.755-1.009-1.334-1.779-1.737c-0.84-0.444-1.739-0.632-2.692-0.632c-1.344,0-2.494,0.412-3.454,1.35
	c-1.062,1.029-1.381,2.432-1.381,3.858c0,0.987,0.186,1.961,0.666,2.831c0.432,0.773,1.005,1.384,1.772,1.826
	c0.791,0.448,1.638,0.65,2.546,0.65c0.912,0,1.772-0.2,2.559-0.66c0.764-0.444,1.34-1.069,1.76-1.848
	C131.76,99.784,131.945,98.807,131.945,97.816L131.945,97.816z M126.868,78.293c-1.138,0-2.167,0.292-2.975,1.105
	c-0.799,0.813-1.109,1.802-1.109,2.93c0,1.063,0.343,1.949,1.118,2.69c0.839,0.789,1.868,1.08,3.015,1.08
	c0.581,0,1.17-0.085,1.715-0.292c0.468-0.18,0.904-0.438,1.268-0.783c0.354-0.335,0.621-0.732,0.807-1.18
	c0.206-0.499,0.291-1.029,0.291-1.566c0-0.729-0.153-1.419-0.517-2.059c-0.348-0.603-0.819-1.063-1.429-1.404
	C128.374,78.438,127.635,78.293,126.868,78.293L126.868,78.293z M168.926,94.918c-0.605,0.462-1.255,0.868-1.953,1.201
	c-1.514,0.723-3.14,1.049-4.814,1.049c-1.623,0-3.188-0.311-4.67-0.964c-1.437-0.634-2.7-1.536-3.758-2.688
	c-1.069-1.168-1.876-2.514-2.417-3.998c-0.569-1.523-0.844-3.114-0.844-4.74c0-1.739,0.307-3.43,0.944-5.057
	c0.622-1.572,1.521-2.98,2.721-4.184c1.198-1.207,2.623-2.121,4.205-2.771c1.699-0.688,3.512-0.982,5.344-0.982
	c2.074,0,4.124,0.349,6.009,1.221c1.792,0.817,3.294,2.024,4.5,3.568c1.324,1.691,2.184,3.705,2.753,5.757
	c0.678,2.484,0.928,5.087,0.928,7.654c0,2.801-0.25,5.672-0.977,8.386c-0.602,2.228-1.521,4.391-2.926,6.239
	c-1.251,1.663-2.817,2.983-4.714,3.86c-1.934,0.896-4.027,1.26-6.154,1.26c-2.063,0-4.101-0.359-5.949-1.3
	c-1.533-0.789-2.926-1.847-3.915-3.275c-0.803-1.174-1.38-2.512-1.38-3.953c0-0.95,0.363-1.784,1.021-2.466
	c0.703-0.752,1.615-1.108,2.644-1.108c0.908,0,1.748,0.252,2.479,0.763c0.807,0.544,1.336,1.338,1.667,2.235
	c0.282,0.763,0.742,1.376,1.416,1.851c0.666,0.47,1.393,0.694,2.212,0.694c0.767,0,1.469-0.192,2.139-0.569
	c0.723-0.405,1.308-0.986,1.772-1.665C168.203,99.481,168.684,97.072,168.926,94.918L168.926,94.918z M168.57,85.059
	c0-0.917-0.116-1.836-0.399-2.71c-0.246-0.749-0.597-1.457-1.089-2.07c-0.452-0.557-0.989-1.007-1.631-1.334
	c-0.63-0.321-1.3-0.464-2.006-0.464c-1.324,0-2.32,0.593-3.144,1.596c-1.058,1.288-1.381,2.934-1.381,4.554
	c0,1.588,0.319,3.213,1.368,4.462c0.872,1.025,1.938,1.542,3.298,1.542c0.859,0,1.643-0.23,2.389-0.647
	c0.799-0.46,1.404-1.112,1.864-1.907C168.373,87.155,168.57,86.112,168.57,85.059L168.57,85.059z M136.146,53.957h38.208
	c2.797,0,5.081,2.289,5.081,5.085v0.331c0,2.797-2.284,5.085-5.081,5.085h-38.208c-2.797,0-5.081-2.289-5.081-5.085v-0.331
	C131.065,56.245,133.35,53.957,136.146,53.957L136.146,53.957z M42.89,35.008h17.066c3.779,0,6.871,3.093,6.871,6.873v17.063
	c0,3.782-3.092,6.873-6.871,6.873H42.89c-3.779,0-6.871-3.091-6.871-6.873V41.881C36.019,38.102,39.111,35.008,42.89,35.008
	L42.89,35.008z"/>
<path id="_x32_" fill-rule="evenodd" clip-rule="evenodd" fill="#999557" d="M21.036,14.829h173.768
	c2.519,0,4.577,2.058,4.577,4.572v176.093c0,2.515-2.059,4.572-4.577,4.572H21.036c-2.519,0-4.575-2.058-4.575-4.572V19.401
	C16.461,16.887,18.518,14.829,21.036,14.829L21.036,14.829z M174.374,183.839c-1.404,0-2.655-0.456-3.713-1.393
	c-1.15-1.021-1.618-2.422-1.618-3.939c0-1.433,0.513-2.676,1.514-3.7c1.017-1.038,2.288-1.555,3.741-1.555s2.728,0.505,3.766,1.521
	c1.041,1.018,1.565,2.276,1.565,3.733c0,1.506-0.46,2.886-1.59,3.915C177.006,183.358,175.771,183.839,174.374,183.839
	L174.374,183.839z M157.226,183.516c-1.404,0-2.659-0.456-3.709-1.393c-1.153-1.021-1.622-2.421-1.622-3.938
	c0-1.433,0.513-2.676,1.51-3.701c1.017-1.037,2.292-1.558,3.745-1.558c1.449,0,2.724,0.508,3.766,1.521
	c1.041,1.017,1.565,2.28,1.565,3.737c0,1.505-0.46,2.886-1.594,3.91C159.857,183.035,158.622,183.516,157.226,183.516
	L157.226,183.516z M139.384,183.839c-1.409,0-2.66-0.456-3.713-1.393c-1.154-1.021-1.623-2.422-1.623-3.939
	c0-1.433,0.513-2.676,1.514-3.7c1.017-1.038,2.288-1.555,3.741-1.555s2.729,0.505,3.766,1.521c1.041,1.018,1.565,2.276,1.565,3.733
	c0,1.506-0.46,2.886-1.59,3.915C142.011,183.358,140.775,183.839,139.384,183.839L139.384,183.839z M103.983,164.745h9.749
	l-4.919-13.456L103.983,164.745L103.983,164.745z M116.75,173.095h-15.709l-1.768,4.751c-0.517,1.367-1.263,3.333-2.147,4.495
	c-0.835,1.122-2.155,1.498-3.503,1.498c-1.352,0-2.537-0.513-3.513-1.445c-0.957-0.912-1.536-2.038-1.536-3.378
	c0-0.698,0.123-1.396,0.329-2.066c0.279-0.884,0.625-1.764,0.973-2.615l10.74-27.262c0.365-0.94,0.736-1.877,1.104-2.817
	c0.394-1.005,0.864-2.03,1.471-2.93c0.583-0.86,1.35-1.55,2.256-2.063c1.042-0.59,2.232-0.804,3.418-0.804
	c1.19,0,2.399,0.21,3.446,0.804c0.893,0.509,1.663,1.183,2.252,2.03c0.521,0.771,0.965,1.594,1.328,2.457
	c0.44,1.078,0.859,2.172,1.275,3.257l10.966,27.089c0.561,1.353,1.364,3.391,1.364,4.871c0,1.316-0.59,2.442-1.51,3.362
	c-0.997,0.993-2.224,1.51-3.628,1.51c-0.751,0-1.498-0.126-2.159-0.465c-0.605-0.298-1.122-0.71-1.538-1.243
	c-0.48-0.609-0.863-1.396-1.175-2.11c-0.326-0.751-0.661-1.51-0.973-2.28L116.75,173.095L116.75,173.095z M62.053,147.523v8.896
	h6.808c1.425,0,3.227-0.081,4.585-0.553c0.953-0.331,1.632-0.957,2.123-1.856c0.404-0.674,0.579-1.417,0.579-2.204
	c0-1.38-0.333-2.704-1.683-3.325c-1.81-0.831-4.534-0.957-6.494-0.957H62.053L62.053,147.523z M62.053,164.482v10.296h8.148
	c3.727,0,7.64-0.791,7.64-5.235c0-1.554-0.43-2.922-1.776-3.785c-1.683-1.069-4.209-1.275-6.148-1.275H62.053L62.053,164.482z
	 M81.501,159.761c4.288,1.921,6.925,5.267,6.925,10.416c0,2.471-0.629,4.783-1.963,6.865c-1.304,2.046-3.083,3.567-5.315,4.549
	c-1.487,0.613-3.069,0.988-4.659,1.19c-1.958,0.271-3.963,0.343-5.935,0.343H57.718c-1.646,0-3.485-0.299-4.671-1.546
	c-1.164-1.223-1.463-3.022-1.463-4.645v-31.569c0-1.638,0.289-3.471,1.5-4.682c1.201-1.198,3-1.509,4.635-1.509h13.607
	c1.786,0,3.606,0.093,5.37,0.383c1.521,0.255,2.977,0.759,4.294,1.555c1.102,0.661,2.054,1.488,2.883,2.466
	c0.832,0.98,1.473,2.095,1.915,3.301c0.446,1.231,0.664,2.507,0.664,3.814C86.451,154.752,84.639,157.73,81.501,159.761
	L81.501,159.761z M34.834,177.353v-33.082c0-1.602,0.315-3.301,1.429-4.523c0.997-1.098,2.294-1.61,3.766-1.61
	c1.485,0,2.803,0.492,3.822,1.582c1.134,1.219,1.453,2.941,1.453,4.552v33.082c0,1.614-0.323,3.33-1.451,4.553
	c-1.015,1.105-2.331,1.61-3.824,1.61c-1.471,0-2.75-0.533-3.745-1.622C35.162,180.662,34.834,178.967,34.834,177.353L34.834,177.353
	z M25.199,23.918H190.3v99.79H25.199V23.918L25.199,23.918z M11.512,5.758h192.816c3.164,0,5.751,2.589,5.751,5.753v192.816
	c0,3.164-2.587,5.752-5.751,5.752H11.512c-3.165,0-5.753-2.588-5.753-5.752V11.512C5.758,8.348,8.347,5.758,11.512,5.758
	L11.512,5.758z M11.512,0.8h192.816c5.893,0,10.712,4.819,10.712,10.711v192.816c0,5.893-4.819,10.712-10.712,10.712H11.512
	c-5.893,0-10.711-4.819-10.711-10.712V11.512C0.8,5.619,5.619,0.8,11.512,0.8L11.512,0.8z"/>
<path id="_x31_" fill-rule="evenodd" clip-rule="evenodd" fill="#7E5628" d="M136.146,53.957h38.208
	c2.797,0,5.081,2.289,5.081,5.085v0.331c0,2.797-2.284,5.085-5.081,5.085h-38.208c-2.797,0-5.081-2.289-5.081-5.085v-0.331
	C131.065,56.245,133.35,53.957,136.146,53.957L136.146,53.957z M42.89,35.008h17.066c3.779,0,6.871,3.093,6.871,6.873v17.063
	c0,3.782-3.092,6.873-6.871,6.873H42.89c-3.779,0-6.871-3.091-6.871-6.873V41.881C36.019,38.102,39.111,35.008,42.89,35.008
	L42.89,35.008z"/>
</svg>
