<?xml version="1.0" encoding="utf-8"?>
<!DOCTYPE svg PUBLIC "-//W3C//DTD SVG 1.1//EN" "http://www.w3.org/Graphics/SVG/1.1/DTD/svg11.dtd">
<svg version="1.1" xmlns="http://www.w3.org/2000/svg" xmlns:xlink="http://www.w3.org/1999/xlink" x="0px" y="0px" width="216px" height="216px" viewBox="0 0 216 216" enable-background="new 0 0 216 216" xml:space="preserve">
<path fill-rule="evenodd" clip-rule="evenodd" d="M136.146,53.957h38.208
	c2.797,0,5.081,2.289,5.081,5.085v0.331c0,2.797-2.284,5.085-5.081,5.085h-38.208c-2.797,0-5.081-2.289-5.081-5.085v-0.331
	C131.065,56.245,133.35,53.957,136.146,53.957L136.146,53.957z M42.89,35.008h17.066c3.779,0,6.871,3.093,6.871,6.873v17.063
	c0,3.782-3.092,6.873-6.871,6.873H42.89c-3.779,0-6.871-3.091-6.871-6.873V41.881C36.019,38.102,39.111,35.008,42.89,35.008
	L42.89,35.008z"/>
</svg>
