<?xml version="1.0" encoding="utf-8"?>
<!DOCTYPE svg PUBLIC "-//W3C//DTD SVG 1.1//EN" "http://www.w3.org/Graphics/SVG/1.1/DTD/svg11.dtd">
<svg version="1.1" xmlns="http://www.w3.org/2000/svg" xmlns:xlink="http://www.w3.org/1999/xlink" x="0px" y="0px" width="216px" height="216px" viewBox="0 0 216 216" enable-background="new 0 0 216 216" xml:space="preserve">

<path fill-rule="evenodd" clip-rule="evenodd" d="M16.187,0h183.467c8.904,0,16.187,7.284,16.187,16.187
	v183.467c0,8.9-7.282,16.187-16.187,16.187H16.187C7.284,215.84,0,208.554,0,199.653V16.187C0,7.284,7.284,0,16.187,0L16.187,0z
	 M63.897,4.995v18.84c-0.583,3.997-1.954,6.731-6.378,6.973c-6.349,0.35-12.747,0-19.125,0c-12.056,0.053-19.403-0.238-0.963,6.674
	L95.077,59.1c13.66,5.123,12.53,5.109,26.191-0.01c18.936-7.102,37.875-14.205,56.814-21.306c16.857-6.32,8.494-6.94,1.195-6.975
	c-6.726,0-13.446,0-20.167,0c-6.038-1.143-6.938-3.601-6.689-6.973V4.995h47.231c6.155,0,11.189,5.036,11.189,11.191v183.467
	c0,6.155-5.034,11.189-11.189,11.189h-67.964l46.394-17.398c16.857-6.318,8.494-6.94,1.195-6.974c-6.726,0-13.446,0-20.167,0
	c-6.038-1.143-6.938-3.603-6.689-6.973c0-6.717,0-13.426,0-20.139c0-5.664-3.167-6.087-7.091-6.087H69.923
	c-5.135,0.288-6.025,0.215-6.025,4.952v21.273c-0.583,3.997-1.954,6.729-6.378,6.973c-6.349,0.346-12.747,0-19.125,0
	c-12.056,0.053-19.403-0.239-0.963,6.673l47.198,17.699H16.187c-6.156,0-11.191-5.034-11.191-11.189V16.187
	c0-6.156,5.036-11.191,11.191-11.191H63.897L63.897,4.995z"/>
</svg>
