<?xml version="1.0" encoding="utf-8"?>
<!DOCTYPE svg PUBLIC "-//W3C//DTD SVG 1.1//EN" "http://www.w3.org/Graphics/SVG/1.1/DTD/svg11.dtd">
<svg version="1.1" xmlns="http://www.w3.org/2000/svg" xmlns:xlink="http://www.w3.org/1999/xlink" x="0px" y="0px" width="216px" height="216px" viewBox="0 0 216 216" enable-background="new 0 0 216 216" xml:space="preserve">

<path fill-rule="evenodd" clip-rule="evenodd" d="M138.797,85.534
	c14.781-7.632,29.775-8.001,33.481-0.824c3.707,7.179-5.272,19.188-20.058,26.823c-14.78,7.634-29.771,8.003-33.477,0.824
	C115.033,105.177,124.017,93.168,138.797,85.534L138.797,85.534z M176.313,93.279c0.537,0.541,0.984,1.148,1.333,1.822
	c3.706,7.179-5.276,19.19-20.058,26.821c-14.78,7.634-29.774,8.003-33.481,0.824c-0.409-0.792-0.664-1.641-0.771-2.534
	c6.658,2.678,18.741,0.763,30.813-5.47C165.932,108.658,174.365,100.171,176.313,93.279L176.313,93.279z M20.773,191.545h92.001
	c0.513,0,0.931,0.791,0.931,1.763v6.462c0,0.968-0.418,1.763-0.931,1.763H20.773c-0.51,0-0.929-0.795-0.929-1.763v-6.462
	C19.844,192.336,20.261,191.545,20.773,191.545L20.773,191.545z M20.773,17.104h92.001c0.513,0,0.931,0.793,0.931,1.763v6.461
	c0,0.97-0.418,1.763-0.931,1.763H20.773c-0.51,0-0.929-0.793-0.929-1.763v-6.461C19.844,17.897,20.261,17.104,20.773,17.104
	L20.773,17.104z"/>
</svg>
