<?xml version="1.0" encoding="utf-8"?>
<!DOCTYPE svg PUBLIC "-//W3C//DTD SVG 1.1//EN" "http://www.w3.org/Graphics/SVG/1.1/DTD/svg11.dtd">
<svg version="1.1" xmlns="http://www.w3.org/2000/svg" xmlns:xlink="http://www.w3.org/1999/xlink" x="0px" y="0px" width="216px" height="216px" viewBox="0 0 216 216" enable-background="new 0 0 216 216" xml:space="preserve">

<path  fill-rule="evenodd" clip-rule="evenodd" d="M9.978,4.133h195.885c3.214,0,5.843,2.63,5.843,5.844
	v195.885c0,3.214-2.629,5.843-5.843,5.843H9.978c-3.214,0-5.845-2.629-5.845-5.843V9.978C4.133,6.763,6.763,4.133,9.978,4.133
	L9.978,4.133z M9.978-0.904h195.885c5.985,0,10.881,4.896,10.881,10.881v195.885c0,5.986-4.896,10.882-10.881,10.882H9.978
	c-5.986,0-10.881-4.896-10.881-10.882V9.978C-0.904,3.992,3.992-0.904,9.978-0.904L9.978-0.904z M22.003,34.408
	c-1.152,0-2.095,0.943-2.095,2.091v5.982c0,1.148,0.943,2.089,2.095,2.089h3.362c-0.006,0.431-0.01,0.863-0.01,1.296
	c0,28.842,13.196,53.542,31.902,63.778c-18.707,10.232-31.902,34.931-31.902,63.774c0,0.583,0.006,1.161,0.016,1.734h-4.077
	c-1.152,0-2.095,0.939-2.095,2.092v5.981c0,1.148,0.941,2.091,2.095,2.091h43.2h6.542h40.984c1.152,0,2.096-0.947,2.096-2.091
	v-5.981c0-1.148-0.947-2.092-2.096-2.092h-1.861l0.017-1.734c0-14.711-13.196-53.542-31.902-63.774
	c18.707-10.235,32.38-41.06,31.902-63.778l-0.008-1.296h2.246c1.152,0,2.096-0.943,2.096-2.089v-5.982
	c0-1.146-0.947-2.091-2.096-2.091C76.653,34.408,57.764,34.408,22.003,34.408L22.003,34.408z M60.072,101.04
	c-15.14-9.096-25.765-30.375-25.765-55.174c0-0.433,0.004-0.865,0.012-1.296c22.296,0,44.594,0,66.892,0l0.013,1.296
	c0.606,17.292-10.545,44-25.941,54.789c-2.341,1.642-2.308,1.277-2.185,4.203v8.995c0,3.518-0.094,3.141,2.677,5.142
	c15.188,10.968,26.052,37.482,25.449,54.633l-0.013,1.296H71.036h-6.542H34.32c-0.008-0.431-0.012-0.86-0.012-1.296
	c0-24.387,10.276-45.375,25.016-54.715c2.96-1.874,3.395-1.271,3.535-4.834l-0.115-8.766
	C62.743,102.169,62.712,102.629,60.072,101.04L60.072,101.04z"/>
</svg>
