<?xml version="1.0" encoding="utf-8"?>
<!DOCTYPE svg PUBLIC "-//W3C//DTD SVG 1.1//EN" "http://www.w3.org/Graphics/SVG/1.1/DTD/svg11.dtd">
<svg version="1.1" xmlns="http://www.w3.org/2000/svg" xmlns:xlink="http://www.w3.org/1999/xlink" x="0px" y="0px" width="216px" height="216px" viewBox="0 0 216 216" enable-background="new 0 0 216 216" xml:space="preserve">

<path id="_x31_" fill-rule="evenodd" clip-rule="evenodd" d="M90.29,79.58c20.724-10.702,41.746-11.218,46.946-1.155
	c5.192,10.063-7.396,26.905-28.124,37.606c-20.723,10.702-41.744,11.219-46.94,1.155C56.973,107.121,69.565,90.282,90.29,79.58
	L90.29,79.58z M142.888,90.436c0.752,0.76,1.378,1.612,1.866,2.558c5.2,10.063-7.396,26.905-28.116,37.606
	c-20.727,10.702-41.748,11.219-46.944,1.155c-0.573-1.11-0.929-2.302-1.083-3.558c9.335,3.753,26.278,1.073,43.201-7.665
	C128.335,112,140.159,100.105,142.888,90.436L142.888,90.436z"/>
</svg>
