<?xml version="1.0" encoding="utf-8"?>
<!DOCTYPE svg PUBLIC "-//W3C//DTD SVG 1.1//EN" "http://www.w3.org/Graphics/SVG/1.1/DTD/svg11.dtd">
<svg version="1.1" xmlns="http://www.w3.org/2000/svg" xmlns:xlink="http://www.w3.org/1999/xlink" x="0px" y="0px" width="216px" height="216px" viewBox="0 0 216 216" enable-background="new 0 0 216 216" xml:space="preserve">
<path id="_x33_" fill-rule="evenodd" clip-rule="evenodd" fill="#3" d="M115.829,161.405h43.985
	c4.961,0.726,8.355,2.423,8.659,7.913c0.431,7.889,0,15.83,0,23.747c0.065,14.97-0.3,24.088,8.286,1.197l26.839-71.574
	c6.363-16.96,6.347-15.56-0.012-32.52c-8.819-23.512-17.635-47.028-26.454-70.54c-7.848-20.933-8.618-10.545-8.659-1.484
	c0,8.348,0,16.693,0,25.039c-1.419,7.495-4.474,8.61-8.659,8.305h-42.76c-1.443,20.025-11.54,44.422-26.95,57.998
	c6.933,6.744,12.329,15.933,16.163,24.055C109.806,141.044,113.774,151.627,115.829,161.405L115.829,161.405z M178.149,87.987
	l1.734,1.749c0.895,0.902,1.648,1.929,2.23,3.057c3.243,6.283,0.369,13.335-3.538,18.561c-4.707,6.296-11.742,11.458-18.68,15.037
	c-6.938,3.584-15.216,6.33-23.079,6.527c-6.523,0.16-13.937-1.578-17.18-7.864c-0.685-1.324-1.115-2.751-1.296-4.235l-0.209-1.688
	c-1.566-1.136-2.898-2.6-3.862-4.466c-3.243-6.285-0.368-13.335,3.539-18.561c4.706-6.298,11.742-11.456,18.68-15.039
	c6.938-3.581,15.215-6.331,23.075-6.525c6.527-0.162,13.939,1.581,17.183,7.862C177.687,84.222,178.113,86.104,178.149,87.987
	L178.149,87.987z M46.251,138.519c1.372,0,2.486,1.111,2.486,2.48s-1.115,2.48-2.486,2.48s-2.485-1.111-2.485-2.48
	S44.879,138.519,46.251,138.519L46.251,138.519z M73.494,134.861c1.847,0,3.348,1.496,3.348,3.338c0,1.845-1.5,3.341-3.348,3.341
	s-3.348-1.496-3.348-3.341C70.146,136.357,71.646,134.861,73.494,134.861L73.494,134.861z M89.021,153.315
	c2.345,0,4.25,1.898,4.25,4.24c0,2.341-1.905,4.239-4.25,4.239c-2.349,0-4.254-1.898-4.254-4.239
	C84.767,155.214,86.671,153.315,89.021,153.315L89.021,153.315z M93.801,161.774c2.452,0,4.44,1.988,4.44,4.432
	c0,2.448-1.989,4.429-4.44,4.429s-4.44-1.98-4.44-4.429C89.361,163.763,91.35,161.774,93.801,161.774L93.801,161.774z
	 M73.059,141.975c1.849,0,3.348,1.497,3.348,3.338c0,1.845-1.499,3.338-3.348,3.338c-1.847,0-3.346-1.493-3.346-3.338
	C69.713,143.472,71.212,141.975,73.059,141.975L73.059,141.975z M78.869,145.587c1.744,0,3.161,1.411,3.161,3.149
	s-1.417,3.152-3.161,3.152c-1.743,0-3.159-1.414-3.159-3.152S77.126,145.587,78.869,145.587L78.869,145.587z M78.268,153.964
	c2.345,0,4.25,1.898,4.25,4.239s-1.905,4.239-4.25,4.239c-2.349,0-4.251-1.898-4.251-4.239S75.919,153.964,78.268,153.964
	L78.268,153.964z M83.471,161.774c2.454,0,4.442,1.988,4.442,4.432c0,2.448-1.988,4.429-4.442,4.429
	c-2.452,0-4.442-1.98-4.442-4.429C79.029,163.763,81.02,161.774,83.471,161.774L83.471,161.774z M59.654,135.727
	c1.849,0,3.35,1.492,3.35,3.338c0,1.841-1.501,3.337-3.35,3.337s-3.346-1.496-3.346-3.337
	C56.308,137.219,57.805,135.727,59.654,135.727L59.654,135.727z M88.767,146.354c1.771,0,3.206,1.432,3.206,3.198
	c0,1.763-1.435,3.198-3.206,3.198c-1.77,0-3.208-1.436-3.208-3.198C85.558,147.785,86.997,146.354,88.767,146.354L88.767,146.354z
	 M68.229,146.784c1.769,0,3.206,1.431,3.206,3.198s-1.437,3.198-3.206,3.198c-1.771,0-3.208-1.431-3.208-3.198
	S66.458,146.784,68.229,146.784L68.229,146.784z M47.628,153.964c2.345,0,4.25,1.898,4.25,4.239s-1.905,4.239-4.25,4.239
	c-2.349,0-4.254-1.898-4.254-4.239S45.279,153.964,47.628,153.964L47.628,153.964z M73.141,161.774c2.454,0,4.442,1.988,4.442,4.432
	c0,2.448-1.989,4.429-4.442,4.429c-2.452,0-4.44-1.98-4.44-4.429C68.701,163.763,70.689,161.774,73.141,161.774L73.141,161.774z
	 M66.468,137.219c2.393,0,4.33,1.936,4.33,4.313c0,2.386-1.937,4.317-4.33,4.317c-2.386,0-4.326-1.932-4.326-4.317
	C62.143,139.154,64.082,137.219,66.468,137.219L66.468,137.219z M59.39,142.877c2.077,0,3.762,1.681,3.762,3.752
	c0,2.07-1.685,3.747-3.762,3.747c-2.075,0-3.758-1.677-3.758-3.747C55.632,144.558,57.315,142.877,59.39,142.877L59.39,142.877z
	 M68.008,153.533c2.345,0,4.25,1.898,4.25,4.239s-1.905,4.239-4.25,4.239c-2.349,0-4.254-1.898-4.254-4.239
	S65.659,153.533,68.008,153.533L68.008,153.533z M62.813,161.774c2.45,0,4.44,1.988,4.44,4.432c0,2.448-1.991,4.429-4.44,4.429
	c-2.452,0-4.442-1.98-4.442-4.429C58.371,163.763,60.361,161.774,62.813,161.774L62.813,161.774z M83.647,150.384
	c1.374,0,2.485,1.107,2.485,2.477c0,1.365-1.111,2.477-2.485,2.477c-1.372,0-2.482-1.111-2.482-2.477
	C81.165,151.491,82.276,150.384,83.647,150.384L83.647,150.384z M73.705,149.954c1.369,0,2.48,1.106,2.48,2.476
	c0,1.366-1.111,2.473-2.48,2.473c-1.374,0-2.485-1.106-2.485-2.473C71.22,151.061,72.332,149.954,73.705,149.954L73.705,149.954z
	 M84.08,143.054c1.372,0,2.482,1.106,2.482,2.476c0,1.366-1.111,2.477-2.482,2.477s-2.485-1.11-2.485-2.477
	C81.595,144.16,82.708,143.054,84.08,143.054L84.08,143.054z M86.241,138.31c1.372,0,2.485,1.111,2.485,2.477
	c0,1.369-1.113,2.477-2.485,2.477c-1.37,0-2.482-1.107-2.482-2.477C83.758,139.421,84.871,138.31,86.241,138.31L86.241,138.31z
	 M90.564,140.896c1.371,0,2.484,1.111,2.484,2.477s-1.113,2.477-2.484,2.477c-1.37,0-2.483-1.111-2.483-2.477
	S89.195,140.896,90.564,140.896L90.564,140.896z M62.678,149.736c1.372,0,2.482,1.111,2.482,2.477c0,1.369-1.111,2.477-2.482,2.477
	c-1.369,0-2.482-1.107-2.482-2.477C60.195,150.848,61.309,149.736,62.678,149.736L62.678,149.736z M94.022,149.954
	c1.372,0,2.485,1.106,2.485,2.476c0,1.366-1.113,2.473-2.485,2.473c-1.369,0-2.48-1.106-2.48-2.473
	C91.542,151.061,92.653,149.954,94.022,149.954L94.022,149.954z M41.925,151.245c1.37,0,2.482,1.107,2.482,2.477
	s-1.113,2.477-2.482,2.477c-1.374,0-2.485-1.107-2.485-2.477S40.552,151.245,41.925,151.245L41.925,151.245z M95.753,156.637
	c1.372,0,2.482,1.107,2.482,2.477c0,1.365-1.111,2.477-2.482,2.477s-2.482-1.111-2.482-2.477
	C93.271,157.744,94.381,156.637,95.753,156.637L95.753,156.637z M40.41,156.637c1.374,0,2.485,1.107,2.485,2.477
	c0,1.365-1.111,2.477-2.485,2.477c-1.369,0-2.482-1.111-2.482-2.477C37.928,157.744,39.041,156.637,40.41,156.637L40.41,156.637z
	 M79.615,137.489c2.077,0,3.76,1.682,3.76,3.748c0,2.07-1.683,3.751-3.76,3.751s-3.76-1.681-3.76-3.751
	C75.855,139.171,77.539,137.489,79.615,137.489L79.615,137.489z M64.482,129.945c2.077,0,3.76,1.677,3.76,3.748
	c0,2.07-1.683,3.751-3.76,3.751c-2.075,0-3.76-1.681-3.76-3.751C60.722,131.622,62.407,129.945,64.482,129.945L64.482,129.945z
	 M70.378,122.614c1.088,0,1.972,0.878,1.972,1.964c0,1.087-0.883,1.964-1.972,1.964c-1.087,0-1.968-0.877-1.968-1.964
	C68.41,123.492,69.291,122.614,70.378,122.614L70.378,122.614z M48.762,135.115c1.088,0,1.97,0.882,1.97,1.969
	c0,1.082-0.882,1.964-1.97,1.964s-1.972-0.882-1.972-1.964C46.79,135.997,47.674,135.115,48.762,135.115L48.762,135.115z
	 M52.436,127.571c1.088,0,1.97,0.882,1.97,1.964c0,1.087-0.881,1.969-1.97,1.969c-1.087,0-1.968-0.882-1.968-1.969
	C50.468,128.453,51.349,127.571,52.436,127.571L52.436,127.571z M84.215,134.902c1.086,0,1.97,0.882,1.97,1.964
	c0,1.087-0.884,1.964-1.97,1.964c-1.088,0-1.97-0.877-1.97-1.964C82.245,135.784,83.127,134.902,84.215,134.902L84.215,134.902z
	 M78.485,124.554c1.505,0,2.727,1.218,2.727,2.719c0,1.5-1.222,2.718-2.727,2.718c-1.502,0-2.727-1.218-2.727-2.718
	C75.759,125.771,76.983,124.554,78.485,124.554L78.485,124.554z M65.347,122.614c2.077,0,3.758,1.677,3.758,3.748
	c0,2.07-1.681,3.747-3.758,3.747c-2.074,0-3.762-1.677-3.762-3.747C61.585,124.291,63.272,122.614,65.347,122.614L65.347,122.614z
	 M79.615,129.945c2.077,0,3.76,1.677,3.76,3.748c0,2.07-1.683,3.751-3.76,3.751s-3.76-1.681-3.76-3.751
	C75.855,131.622,77.539,129.945,79.615,129.945L79.615,129.945z M58.43,125.415c2.075,0,3.76,1.681,3.76,3.751
	c0,2.066-1.685,3.748-3.76,3.748c-2.077,0-3.76-1.682-3.76-3.748C54.67,127.096,56.354,125.415,58.43,125.415L58.43,125.415z
	 M53.674,131.237c2.075,0,3.76,1.677,3.76,3.751c0,2.066-1.685,3.748-3.76,3.748c-2.077,0-3.76-1.682-3.76-3.748
	C49.914,132.914,51.597,131.237,53.674,131.237L53.674,131.237z M52.376,146.978c2.077,0,3.76,1.677,3.76,3.747
	s-1.683,3.747-3.76,3.747s-3.76-1.677-3.76-3.747S50.3,146.978,52.376,146.978L52.376,146.978z M57.686,153.533
	c2.349,0,4.251,1.898,4.251,4.239s-1.902,4.239-4.251,4.239c-2.345,0-4.252-1.898-4.252-4.239S55.341,153.533,57.686,153.533
	L57.686,153.533z M52.483,161.774c2.452,0,4.442,1.988,4.442,4.432c0,2.448-1.991,4.429-4.442,4.429s-4.442-1.98-4.442-4.429
	C48.041,163.763,50.031,161.774,52.483,161.774L52.483,161.774z M52.307,138.728c2.21,0,4.004,1.788,4.004,3.993
	c0,2.202-1.794,3.99-4.004,3.99s-4.001-1.788-4.001-3.99C48.305,140.516,50.097,138.728,52.307,138.728L52.307,138.728z
	 M45.579,143.959c2.075,0,3.76,1.678,3.76,3.748s-1.685,3.747-3.76,3.747s-3.758-1.677-3.758-3.747S43.504,143.959,45.579,143.959
	L45.579,143.959z M72.012,126.153c2.347,0,4.251,1.897,4.251,4.239c0,2.341-1.904,4.239-4.251,4.239
	c-2.345,0-4.252-1.898-4.252-4.239C67.76,128.051,69.667,126.153,72.012,126.153L72.012,126.153z M42.153,161.774
	c2.454,0,4.442,1.988,4.442,4.432c0,2.448-1.988,4.429-4.442,4.429c-2.452,0-4.44-1.98-4.44-4.429
	C37.712,163.763,39.701,161.774,42.153,161.774L42.153,161.774z M67.862,115.279c2.025,0,3.669,1.641,3.669,3.657
	c0,2.021-1.644,3.661-3.669,3.661s-3.669-1.64-3.669-3.661C64.193,116.92,65.837,115.279,67.862,115.279L67.862,115.279z
	 M67.862,103.25c2.405,0,4.352,1.943,4.352,4.34c0,2.398-1.947,4.34-4.352,4.34c-2.403,0-4.35-1.941-4.35-4.34
	C63.512,105.193,65.459,103.25,67.862,103.25L67.862,103.25z"/>
<path id="_x32_" fill-rule="evenodd" clip-rule="evenodd" fill="#2" d="M9.978,4.133h195.885c3.214,0,5.843,2.63,5.843,5.844
	v195.885c0,3.214-2.629,5.843-5.843,5.843H9.978c-3.214,0-5.845-2.629-5.845-5.843V9.978C4.133,6.763,6.763,4.133,9.978,4.133
	L9.978,4.133z M9.978-0.904h195.885c5.985,0,10.881,4.896,10.881,10.881v195.885c0,5.986-4.896,10.882-10.881,10.882H9.978
	c-5.986,0-10.881-4.896-10.881-10.882V9.978C-0.904,3.992,3.992-0.904,9.978-0.904L9.978-0.904z M22.003,34.408
	c-1.152,0-2.095,0.943-2.095,2.091v5.982c0,1.148,0.943,2.089,2.095,2.089h3.362c-0.006,0.431-0.01,0.863-0.01,1.296
	c0,28.842,13.196,53.542,31.902,63.778c-18.707,10.232-31.902,34.931-31.902,63.774c0,0.583,0.006,1.161,0.016,1.734h-4.077
	c-1.152,0-2.095,0.939-2.095,2.092v5.981c0,1.148,0.941,2.091,2.095,2.091h43.2h6.542h40.984c1.152,0,2.096-0.947,2.096-2.091
	v-5.981c0-1.148-0.947-2.092-2.096-2.092h-1.861l0.017-1.734c0-14.711-13.196-53.542-31.902-63.774
	c18.707-10.235,32.38-41.06,31.902-63.778l-0.008-1.296h2.246c1.152,0,2.096-0.943,2.096-2.089v-5.982
	c0-1.146-0.947-2.091-2.096-2.091C76.653,34.408,57.764,34.408,22.003,34.408L22.003,34.408z M60.072,101.04
	c-15.14-9.096-25.765-30.375-25.765-55.174c0-0.433,0.004-0.865,0.012-1.296c22.296,0,44.594,0,66.892,0l0.013,1.296
	c0.606,17.292-10.545,44-25.941,54.789c-2.341,1.642-2.308,1.277-2.185,4.203v8.995c0,3.518-0.094,3.141,2.677,5.142
	c15.188,10.968,26.052,37.482,25.449,54.633l-0.013,1.296H71.036h-6.542H34.32c-0.008-0.431-0.012-0.86-0.012-1.296
	c0-24.387,10.276-45.375,25.016-54.715c2.96-1.874,3.395-1.271,3.535-4.834l-0.115-8.766
	C62.743,102.169,62.712,102.629,60.072,101.04L60.072,101.04z"/>
<path id="_x31_" fill-rule="evenodd" clip-rule="evenodd" fill="#1" d="M138.797,85.534
	c14.781-7.632,29.775-8.001,33.481-0.824c3.707,7.179-5.272,19.188-20.058,26.823c-14.78,7.634-29.771,8.003-33.477,0.824
	C115.033,105.177,124.017,93.168,138.797,85.534L138.797,85.534z M176.313,93.279c0.537,0.541,0.984,1.148,1.333,1.822
	c3.706,7.179-5.276,19.19-20.058,26.821c-14.78,7.634-29.774,8.003-33.481,0.824c-0.409-0.792-0.664-1.641-0.771-2.534
	c6.658,2.678,18.741,0.763,30.813-5.47C165.932,108.658,174.365,100.171,176.313,93.279L176.313,93.279z M20.773,191.545h92.001
	c0.513,0,0.931,0.791,0.931,1.763v6.462c0,0.968-0.418,1.763-0.931,1.763H20.773c-0.51,0-0.929-0.795-0.929-1.763v-6.462
	C19.844,192.336,20.261,191.545,20.773,191.545L20.773,191.545z M20.773,17.104h92.001c0.513,0,0.931,0.793,0.931,1.763v6.461
	c0,0.97-0.418,1.763-0.931,1.763H20.773c-0.51,0-0.929-0.793-0.929-1.763v-6.461C19.844,17.897,20.261,17.104,20.773,17.104
	L20.773,17.104z"/>
</svg>
