<?xml version="1.0" encoding="utf-8"?>
<!DOCTYPE svg PUBLIC "-//W3C//DTD SVG 1.1//EN" "http://www.w3.org/Graphics/SVG/1.1/DTD/svg11.dtd">
<svg version="1.1" xmlns="http://www.w3.org/2000/svg" xmlns:xlink="http://www.w3.org/1999/xlink" x="0px" y="0px" width="216px" height="216px" viewBox="0 0 216 216" enable-background="new 0 0 216 216" xml:space="preserve">
<path id="_x33_" fill-rule="evenodd" clip-rule="evenodd" fill="#3" d="M190.744,71.015l7.063-4.159
	c-7.131-3.487-14.268-6.971-21.399-10.456c-5.343-2.576-8.192-0.479-8.006,4.902l-1.224,23.589l7.063-4.16l0.077,0.083
	c7.502,18.884,6.16,40.744-4.781,58.902c-6.916,11.475,7.107,23.811,14.995,11.397c15.365-24.16,17.154-53.781,6.498-78.98
	C190.936,71.663,190.838,71.279,190.744,71.015L190.744,71.015z M20.346,137.374l-7.246,3.838
	c6.969,3.807,13.938,7.608,20.905,11.414c5.221,2.813,8.165,0.85,8.218-4.538l2.291-23.51l-7.242,3.834l-0.077-0.085
	c-6.636-19.206-4.306-40.981,7.447-58.624c7.427-11.149-6.02-24.107-14.469-12.066c-16.439,23.44-19.568,52.949-10.06,78.606
	C20.184,136.72,20.265,137.105,20.346,137.374L20.346,137.374z"/>
<path id="_x32_" fill-rule="evenodd" clip-rule="evenodd" fill="#2" d="M16.187,0h183.467c8.904,0,16.187,7.284,16.187,16.187
	v183.467c0,8.9-7.282,16.187-16.187,16.187H16.187C7.284,215.84,0,208.554,0,199.653V16.187C0,7.284,7.284,0,16.187,0L16.187,0z
	 M63.897,4.995v18.84c-0.583,3.997-1.954,6.731-6.378,6.973c-6.349,0.35-12.747,0-19.125,0c-12.056,0.053-19.403-0.238-0.963,6.674
	L95.077,59.1c13.66,5.123,12.53,5.109,26.191-0.01c18.936-7.102,37.875-14.205,56.814-21.306c16.857-6.32,8.494-6.94,1.195-6.975
	c-6.726,0-13.446,0-20.167,0c-6.038-1.143-6.938-3.601-6.689-6.973V4.995h47.231c6.155,0,11.189,5.036,11.189,11.191v183.467
	c0,6.155-5.034,11.189-11.189,11.189h-67.964l46.394-17.398c16.857-6.318,8.494-6.94,1.195-6.974c-6.726,0-13.446,0-20.167,0
	c-6.038-1.143-6.938-3.603-6.689-6.973c0-6.717,0-13.426,0-20.139c0-5.664-3.167-6.087-7.091-6.087H69.923
	c-5.135,0.288-6.025,0.215-6.025,4.952v21.273c-0.583,3.997-1.954,6.729-6.378,6.973c-6.349,0.346-12.747,0-19.125,0
	c-12.056,0.053-19.403-0.239-0.963,6.673l47.198,17.699H16.187c-6.156,0-11.191-5.034-11.191-11.189V16.187
	c0-6.156,5.036-11.191,11.191-11.191H63.897L63.897,4.995z"/>
<path id="_x31_" fill-rule="evenodd" clip-rule="evenodd" fill="#1" d="M90.29,79.58c20.724-10.702,41.746-11.218,46.946-1.155
	c5.192,10.063-7.396,26.905-28.124,37.606c-20.723,10.702-41.744,11.219-46.94,1.155C56.973,107.121,69.565,90.282,90.29,79.58
	L90.29,79.58z M142.888,90.436c0.752,0.76,1.378,1.612,1.866,2.558c5.2,10.063-7.396,26.905-28.116,37.606
	c-20.727,10.702-41.748,11.219-46.944,1.155c-0.573-1.11-0.929-2.302-1.083-3.558c9.335,3.753,26.278,1.073,43.201-7.665
	C128.335,112,140.159,100.105,142.888,90.436L142.888,90.436z"/>
</svg>
