<?xml version="1.0" encoding="utf-8"?>
<!DOCTYPE svg PUBLIC "-//W3C//DTD SVG 1.1//EN" "http://www.w3.org/Graphics/SVG/1.1/DTD/svg11.dtd">
<svg version="1.1" id="Layer_1" xmlns="http://www.w3.org/2000/svg" xmlns:xlink="http://www.w3.org/1999/xlink" x="0px" y="0px" width="216px" height="216px" viewBox="0 0 216 216" enable-background="new 0 0 216 216" xml:space="preserve">

<path fill-rule="evenodd" clip-rule="evenodd"  d="M198.288,73.559h12.786c2.45,0,4.455,2.462,4.455,5.471
	l0,0c0,3.009-2.005,5.471-4.455,5.471h-12.786c-2.451,0-4.456-2.462-4.456-5.471l0,0C193.832,76.021,195.837,73.559,198.288,73.559
	L198.288,73.559z M198.288,129.644h12.786c2.45,0,4.455,2.462,4.455,5.471l0,0c0,3.009-2.005,5.471-4.455,5.471h-12.786
	c-2.451,0-4.456-2.462-4.456-5.471l0,0C193.832,132.105,195.837,129.644,198.288,129.644L198.288,129.644z M198.288,101.428h12.786
	c2.45,0,4.455,2.462,4.455,5.471l0,0c0,3.009-2.005,5.471-4.455,5.471h-12.786c-2.451,0-4.456-2.462-4.456-5.471l0,0
	C193.832,103.89,195.837,101.428,198.288,101.428L198.288,101.428z M3.455,73.559h12.786c2.451,0,4.456,2.462,4.456,5.471l0,0
	c0,3.009-2.005,5.471-4.456,5.471H3.455C1.004,84.5-1,82.038-1,79.029l0,0C-1,76.021,1.004,73.559,3.455,73.559L3.455,73.559z
	 M3.455,129.644h12.786c2.451,0,4.456,2.462,4.456,5.471l0,0c0,3.009-2.005,5.471-4.456,5.471H3.455
	c-2.451,0-4.455-2.462-4.455-5.471l0,0C-1,132.105,1.004,129.644,3.455,129.644L3.455,129.644z M3.455,101.428h12.786
	c2.451,0,4.456,2.462,4.456,5.471l0,0c0,3.009-2.005,5.471-4.456,5.471H3.455c-2.451,0-4.455-2.462-4.455-5.471l0,0
	C-1,103.89,1.004,101.428,3.455,101.428L3.455,101.428z M116.629,173.432c-3.556-1.128-7.81-1.713-11.433-0.575
	c-0.826,0.259-1.643,0.547-2.45,0.858c-7.401,2.846-14.015,7.349-21.578,9.978c-6.417,2.231-10.82,3.685-17.877,3.469
	c-2.896-0.088-4.337-1.899-4.372-3.724c-0.038-1.941,1.517-3.896,4.601-3.803c6.03,0.184,9.682-1.146,15.175-3.055
	c8.367-2.908,15.665-8.215,24.246-10.909c5.16-1.619,10.88-1.03,15.965,0.582c3.029,0.961,3.807,3.438,3.016,5.276
	C121.223,173.152,119.302,174.279,116.629,173.432L116.629,173.432z M101.012,23.418c7.507-1.346,16.401-0.686,23.55,2.079
	c7.688,2.973,13.944,7.887,19.319,14.094c6.145,7.097,14.594,15.103,14.689,25.188l0.436,45.521
	c0.053,5.552,7.128,7.925,11.713,7.796c3.178-0.089,4.727,1.994,4.584,3.991c-0.126,1.763-1.569,3.458-4.372,3.537
	c-8.982,0.252-19.358-5.147-19.456-15.252l-0.435-45.521c-0.069-7.224-8.396-15.184-12.853-20.331
	c-4.559-5.266-9.815-9.476-16.343-12c-5.858-2.265-13.361-2.791-19.505-1.69c-2.944,0.527-4.749-1.062-5.081-2.915
	C96.928,26.063,98.067,23.945,101.012,23.418L101.012,23.418z M128.299,119.562c4.4,6.635,7.761,14.899,13.572,20.355
	c7.424,6.968,17.096,8.975,26.763,10.632c2.765,0.474,3.953,2.356,3.829,4.118c-0.141,1.998-1.969,3.841-5.101,3.304
	c-11.312-1.938-21.947-4.399-30.645-12.563c-6.628-6.221-9.797-14.298-14.695-21.684c-1.653-2.493-0.911-4.78,0.658-5.82
	C124.249,116.862,126.645,117.068,128.299,119.562L128.299,119.562z M44.124,118.314c7.233-0.279,16.273-1.713,22.38-5.873
	c8.172-5.566,15.244-13.56,19.35-22.584c0.328-0.72,0.573-1.472,0.757-2.241c0.562-2.346,0.592-4.9,0.625-7.303
	c0.069-4.905,0.139-9.603,2.478-14.06c3.721-7.087,9.956-11.656,18.179-11.216c8.024,0.43,15.232,5.192,18.169,12.766
	c3.347,8.636,0.492,17.643-0.802,26.341c-1.516,10.193-10.416,25.701-17.392,33.366c-9.953,10.936-19.646,18.676-33.074,25.008
	c-8.509,4.013-19.651,4.26-28.939,4.419c-5.982,0.102-6.11-7.428-0.129-7.529c7.933-0.137,18.606-0.282,25.855-3.7
	c12.528-5.909,21.43-13.063,30.717-23.267c2.933-3.223,5.517-7.021,7.729-10.77c2.936-4.973,6.929-12.891,7.783-18.635
	c1.003-6.742,3.753-15.999,1.229-22.512c-1.863-4.806-6.49-7.697-11.551-7.968c-5.234-0.28-8.769,2.739-11.108,7.197
	c-0.407,0.774-0.705,1.594-0.924,2.44c-0.676,2.605-0.654,5.544-0.691,8.225c-0.061,4.343-0.229,8.536-2.058,12.557
	c-4.678,10.282-12.651,19.345-21.965,25.69c-7.379,5.026-17.558,6.835-26.328,7.174c-3.176,0.122-4.747-1.944-4.626-3.942
	C39.896,120.134,41.321,118.423,44.124,118.314L44.124,118.314z M43.108,87c2.483,0.047,7.3-0.664,9.1-2.54
	c2.313-2.41,3.938-6.006,3.953-9.369c0.029-6.613,0.615-13.234,3.004-19.454c2.606-6.785,7.736-13.398,12.789-18.541
	c4.072-4.143,7.638-7.563,13.13-9.709c2.612-1.021,4.603-0.022,5.406,1.551c0.91,1.783,0.296,4.306-2.664,5.462
	c-4.342,1.697-7.284,4.701-10.501,7.975c-4.289,4.364-8.915,10.193-11.13,15.962c-2.042,5.315-2.479,11.142-2.503,16.787
	c-0.022,5.299-2.396,10.743-6.05,14.551c-3.422,3.566-9.871,4.946-14.676,4.854c-0.628-0.012-1.255-0.024-1.883-0.036
	c-1.442-0.027-2.35-1.7-2.316-3.457C38.805,89.044,40.054,86.942,43.108,87L43.108,87z"/>
</svg>
