<?xml version="1.0" encoding="utf-8"?>
<!DOCTYPE svg PUBLIC "-//W3C//DTD SVG 1.1//EN" "http://www.w3.org/Graphics/SVG/1.1/DTD/svg11.dtd">
<svg version="1.1" xmlns="http://www.w3.org/2000/svg" xmlns:xlink="http://www.w3.org/1999/xlink" x="0px" y="0px" width="216px" height="216px" viewBox="0 0 216 216" enable-background="new 0 0 216 216" xml:space="preserve">
<path fill-rule="evenodd" clip-rule="evenodd" d="M72.477,18.114v17.087
	c-0.47,3.214-1.569,5.408-5.123,5.603c-5.101,0.281-10.243,0-15.366,0c-9.683,0.043-15.585-0.193-0.772,5.363l46.312,17.368
	c10.974,4.115,10.067,4.105,21.041-0.008c15.216-5.709,30.431-11.414,45.646-17.118c13.544-5.078,6.822-5.576,0.959-5.605
	c-5.399,0-10.799,0-16.202,0c-4.847-0.917-5.571-2.891-5.372-5.603c0-5.391,0-10.785,0-16.178c0-4.552-2.545-4.89-5.696-4.89H77.317
	C73.192,14.367,72.477,14.308,72.477,18.114L72.477,18.114z M10.791,0h194.258c5.937,0,10.791,4.855,10.791,10.791v194.258
	c0,5.937-4.854,10.791-10.791,10.791H10.791C4.855,215.84,0,210.985,0,205.049V10.791C0,4.855,4.855,0,10.791,0L10.791,0z
	 M10.791,4.995h194.258c3.188,0,5.794,2.608,5.794,5.796v194.258c0,3.188-2.606,5.794-5.794,5.794H10.791
	c-3.188,0-5.796-2.606-5.796-5.794V10.791C4.995,7.604,7.604,4.995,10.791,4.995L10.791,4.995z M34.699,123.302h146.604
	c6.368,0,11.576,5.208,11.576,11.576v54.297c0,6.367-5.208,11.58-11.576,11.58H34.699c-6.367,0-11.578-5.213-11.578-11.58V162.53
	v-16.02v-11.633C23.121,128.51,28.332,123.302,34.699,123.302L34.699,123.302z M91.505,170.919c0,2.496,0.465,4.691,1.393,6.587
	c0.929,1.887,2.198,3.468,3.792,4.725c1.594,1.265,3.452,2.208,5.587,2.846c2.135,0.643,4.417,0.956,6.843,0.956
	c1.643,0,3.176-0.126,4.583-0.402c1.406-0.265,2.646-0.59,3.729-0.964c1.077-0.395,1.979-0.781,2.712-1.208
	c0.715-0.415,1.24-0.776,1.553-1.105c0.329-0.313,0.553-0.777,0.68-1.366c0.138-0.602,0.203-1.473,0.203-2.603
	c0-0.765-0.028-1.391-0.065-1.907c-0.049-0.516-0.138-0.939-0.24-1.256c-0.113-0.313-0.26-0.537-0.451-0.675
	c-0.175-0.139-0.39-0.204-0.638-0.204c-0.342,0-0.83,0.204-1.456,0.606c-0.618,0.398-1.419,0.85-2.411,1.342
	c-0.979,0.487-2.146,0.939-3.505,1.342c-1.366,0.402-2.936,0.605-4.73,0.605c-1.182,0-2.234-0.138-3.164-0.415
	c-0.929-0.292-1.722-0.69-2.373-1.207c-0.641-0.513-1.143-1.143-1.482-1.907c-0.352-0.765-0.515-1.61-0.515-2.537
	c0-1.077,0.289-2.009,0.878-2.773c0.589-0.78,1.356-1.468,2.299-2.061c0.618-0.395,1.299-0.777,2.033-1.143h16.408
	c0.24,0,0.436-0.265,0.436-0.586v-2.346c0-0.321-0.195-0.586-0.436-0.586H89.066c-0.242,0-0.437,0.265-0.437,0.586v2.346
	c0,0.321,0.195,0.586,0.437,0.586h3.212C91.757,167.556,91.505,169.125,91.505,170.919L91.505,170.919z M89.066,156.086h15.959
	l0.451-0.195c1.23-0.517,2.324-1.082,3.292-1.684c0.966-0.602,1.744-1.293,2.321-2.062c0.578-0.776,0.866-1.691,0.866-2.748
	c0-0.699-0.136-1.379-0.388-2.021c-0.265-0.638-0.655-1.179-1.18-1.63c-0.53-0.451-1.181-0.817-1.974-1.065
	c-0.777-0.265-1.694-0.391-2.749-0.391c-1.356,0-2.586,0.163-3.716,0.5c-1.128,0.33-2.12,0.691-2.974,1.106
	c-0.866,0.398-1.582,0.776-2.171,1.118c-0.591,0.337-1.016,0.513-1.293,0.513c-0.264,0-0.478-0.073-0.642-0.224
	c-0.163-0.139-0.289-0.379-0.364-0.691c-0.087-0.325-0.148-0.729-0.187-1.216c-0.039-0.492-0.051-1.094-0.051-1.797
	c0-0.643,0.012-1.18,0.026-1.606c0.024-0.427,0.075-0.781,0.138-1.069c0.061-0.276,0.126-0.5,0.214-0.675
	c0.087-0.179,0.25-0.378,0.5-0.631c0.24-0.239,0.742-0.553,1.506-0.915c0.767-0.365,1.632-0.703,2.612-0.991
	c0.978-0.306,2.035-0.529,3.164-0.704s2.261-0.252,3.379-0.252c2.184,0,4.255,0.276,6.198,0.842c1.95,0.565,3.642,1.419,5.072,2.562
	c1.443,1.131,2.586,2.574,3.428,4.294c0.842,1.732,1.269,3.74,1.269,6.014c0,1.996-0.288,3.691-0.878,5.123
	c-0.069,0.167-0.143,0.333-0.22,0.496h2.492c0.24,0,0.436,0.264,0.436,0.585v2.347c0,0.321-0.195,0.585-0.436,0.585H89.066
	c-0.242,0-0.437-0.264-0.437-0.585v-2.347C88.629,156.35,88.824,156.086,89.066,156.086L89.066,156.086z M88.907,190.374
	c-9.289-6.014-15.437-16.463-15.437-28.348c0-10.893,5.166-20.578,13.176-26.746H53.143c-2.443,8.697-9.777,15.349-18.842,16.813
	v21.863c8.929,1.439,16.175,7.916,18.728,16.418H88.907L88.907,190.374z M127.786,135.28c8.011,6.168,13.174,15.854,13.174,26.746
	c0,11.885-6.144,22.334-15.435,28.348h38.696c2.436-8.104,9.128-14.365,17.479-16.183v-22.338
	c-8.485-1.847-15.26-8.283-17.593-16.573H127.786L127.786,135.28z M181.701,183.942c-3.159,1.199-5.773,3.5-7.375,6.432h7.375
	V183.942L181.701,183.942z M34.301,183.531c3.712,1.024,6.814,3.529,8.624,6.843h-8.624V183.531L34.301,183.531z M34.301,142.514
	c3.858-1.065,7.055-3.729,8.832-7.233h-8.832V142.514L34.301,142.514z M181.701,142.103c-3.297-1.252-6.001-3.704-7.578-6.822h7.578
	v5.615V142.103L181.701,142.103z M155.549,150.775c6.709,0,12.146,5.437,12.146,12.146c0,6.705-5.437,12.146-12.146,12.146
	s-12.145-5.44-12.145-12.146C143.404,156.212,148.84,150.775,155.549,150.775L155.549,150.775z M155.549,157.396
	c3.05,0,5.526,2.476,5.526,5.525s-2.477,5.521-5.526,5.521c-3.049,0-5.521-2.472-5.521-5.521S152.5,157.396,155.549,157.396
	L155.549,157.396z M58.156,150.775c6.708,0,12.147,5.437,12.147,12.146c0,6.705-5.438,12.146-12.147,12.146
	c-6.705,0-12.144-5.44-12.144-12.146C46.013,156.212,51.451,150.775,58.156,150.775L58.156,150.775z M58.158,157.396
	c3.051,0,5.523,2.476,5.523,5.525s-2.472,5.521-5.523,5.521c-3.05,0-5.524-2.472-5.524-5.521S55.108,157.396,58.158,157.396
	L58.158,157.396z M26.232,89.582h162.503c1.936,0,3.525,2.035,3.525,4.525l0,0c0,2.491-1.59,4.526-3.525,4.526H26.232
	c-1.938,0-3.523-2.035-3.523-4.526l0,0C22.708,91.617,24.294,89.582,26.232,89.582L26.232,89.582z"/>

</svg>
