<?xml version="1.0" encoding="utf-8"?>
<!DOCTYPE svg PUBLIC "-//W3C//DTD SVG 1.1//EN" "http://www.w3.org/Graphics/SVG/1.1/DTD/svg11.dtd">
<svg version="1.1" xmlns="http://www.w3.org/2000/svg" xmlns:xlink="http://www.w3.org/1999/xlink" x="0px" y="0px" width="216px" height="216px" viewBox="0 0 216 216" enable-background="new 0 0 216 216" xml:space="preserve">
<path fill-rule="evenodd" clip-rule="evenodd" d="M36.046,96.004h20.535l0.58-0.251
	c1.584-0.661,2.99-1.39,4.233-2.165c1.244-0.775,2.244-1.665,2.986-2.649c0.745-1.002,1.116-2.181,1.116-3.538
	c0-0.904-0.176-1.775-0.499-2.6c-0.341-0.822-0.842-1.52-1.519-2.1c-0.68-0.58-1.52-1.051-2.536-1.374
	c-1.002-0.339-2.181-0.501-3.536-0.501c-1.747,0-3.329,0.211-4.783,0.647c-1.453,0.42-2.73,0.887-3.828,1.422
	c-1.113,0.517-2.034,1.002-2.795,1.436c-0.759,0.438-1.307,0.661-1.664,0.661c-0.339,0-0.613-0.095-0.822-0.29
	c-0.211-0.176-0.373-0.485-0.47-0.886c-0.114-0.42-0.193-0.939-0.242-1.568c-0.048-0.629-0.065-1.406-0.065-2.311
	c0-0.823,0.017-1.517,0.033-2.065c0.032-0.552,0.097-1.004,0.176-1.375c0.081-0.353,0.163-0.645,0.276-0.873
	c0.112-0.225,0.323-0.484,0.645-0.805c0.309-0.308,0.954-0.712,1.939-1.181c0.986-0.468,2.1-0.905,3.359-1.276
	c1.259-0.387,2.617-0.678,4.069-0.905c1.455-0.225,2.909-0.322,4.347-0.322c2.81,0,5.475,0.355,7.978,1.081
	c2.503,0.728,4.684,1.828,6.526,3.296c1.856,1.452,3.327,3.311,4.408,5.523c1.083,2.228,1.633,4.812,1.633,7.737
	c0,2.568-0.372,4.749-1.132,6.591c-0.089,0.215-0.182,0.428-0.278,0.639h3.203c0.311,0,0.562,0.339,0.562,0.757v3.014
	c0,0.416-0.251,0.757-0.562,0.757H36.046c-0.308,0-0.562-0.339-0.562-0.757v-3.014C35.484,96.343,35.735,96.004,36.046,96.004
	L36.046,96.004z M39.186,115.085c0,3.217,0.596,6.04,1.791,8.482c1.195,2.423,2.826,4.455,4.879,6.069
	c2.051,1.636,4.44,2.845,7.187,3.668c2.744,0.823,5.684,1.229,8.804,1.229c2.116,0,4.083-0.162,5.893-0.52
	c1.81-0.337,3.41-0.759,4.799-1.241c1.388-0.503,2.552-1.002,3.489-1.55c0.921-0.536,1.598-1.002,2.002-1.424
	c0.42-0.402,0.71-1.003,0.873-1.761c0.178-0.775,0.257-1.887,0.257-3.344c0-0.985-0.03-1.793-0.079-2.454
	c-0.065-0.661-0.178-1.209-0.308-1.614c-0.146-0.402-0.339-0.694-0.583-0.873c-0.225-0.178-0.499-0.26-0.821-0.26
	c-0.438,0-1.067,0.26-1.875,0.775c-0.791,0.52-1.826,1.1-3.102,1.729c-1.26,0.633-2.761,1.213-4.507,1.729
	c-1.761,0.519-3.779,0.778-6.087,0.778c-1.52,0-2.875-0.179-4.071-0.535c-1.195-0.373-2.213-0.889-3.053-1.55
	c-0.822-0.661-1.469-1.469-1.905-2.455c-0.455-0.985-0.664-2.068-0.664-3.266c0-1.388,0.372-2.58,1.13-3.566
	c0.761-1.002,1.747-1.891,2.958-2.648c0.797-0.512,1.674-1.003,2.617-1.471H79.92c0.311,0,0.562-0.341,0.562-0.757v-3.017
	c0-0.416-0.251-0.757-0.562-0.757H36.046c-0.311,0-0.562,0.341-0.562,0.757v3.017c0,0.416,0.254,0.757,0.562,0.757h4.134
	C39.513,110.762,39.186,112.78,39.186,115.085L39.186,115.085z M59.398,147.066c-23.973,0-43.416-19.441-43.416-43.418
	c0-23.973,19.443-43.416,43.416-43.416c23.977,0,43.418,19.443,43.418,43.416C102.816,127.625,83.375,147.066,59.398,147.066
	L59.398,147.066z"/>

</svg>
