<?xml version="1.0" encoding="utf-8"?>
<!DOCTYPE svg PUBLIC "-//W3C//DTD SVG 1.1//EN" "http://www.w3.org/Graphics/SVG/1.1/DTD/svg11.dtd">
<svg version="1.1" xmlns="http://www.w3.org/2000/svg" xmlns:xlink="http://www.w3.org/1999/xlink" x="0px" y="0px" width="216px" height="216px" viewBox="0 0 216 216" enable-background="new 0 0 216 216" xml:space="preserve">
<path fill-rule="evenodd" clip-rule="evenodd"  d="M11.006,5.223h193.828c3.181,0,5.781,2.603,5.781,5.783
	v193.828c0,3.181-2.601,5.781-5.781,5.781H11.006c-3.181,0-5.783-2.601-5.783-5.781V11.006C5.223,7.825,7.825,5.223,11.006,5.223
	L11.006,5.223z M11.006,0.239h193.828c5.923,0,10.768,4.844,10.768,10.767v193.828c0,5.923-4.845,10.768-10.768,10.768H11.006
	c-5.923,0-10.767-4.845-10.767-10.768V11.006C0.239,5.083,5.083,0.239,11.006,0.239L11.006,0.239z M73.77,18.22v16.662
	c-0.457,3.132-1.527,5.272-4.992,5.46c-4.974,0.274-9.986,0-14.98,0c-9.443,0.042-15.195-0.187-0.754,5.229l45.152,16.932
	c10.698,4.012,9.814,4.002,20.517-0.008c14.828-5.564,29.664-11.126,44.497-16.688c13.205-4.952,6.653-5.437,0.938-5.465
	c-5.267,0-10.532,0-15.799,0c-4.727-0.893-5.432-2.82-5.237-5.46c0-5.258,0-10.516,0-15.774c0-4.436-2.482-4.767-5.554-4.767H78.49
	C74.47,14.568,73.77,14.511,73.77,18.22L73.77,18.22z"/>

</svg>
