<?xml version="1.0" encoding="utf-8"?>
<!DOCTYPE svg PUBLIC "-//W3C//DTD SVG 1.1//EN" "http://www.w3.org/Graphics/SVG/1.1/DTD/svg11.dtd">
<svg version="1.1" xmlns="http://www.w3.org/2000/svg" xmlns:xlink="http://www.w3.org/1999/xlink" x="0px" y="0px" width="216px" height="216px" viewBox="0 0 216 216" enable-background="new 0 0 216 216" xml:space="preserve">
<path fill-rule="evenodd" clip-rule="evenodd" d="M26.642,174.479h161.934
	c1.934,0,3.516,2.03,3.516,4.512l0,0c0,2.482-1.582,4.508-3.516,4.508H26.642c-1.931,0-3.511-2.025-3.511-4.508l0,0
	C23.131,176.51,24.711,174.479,26.642,174.479L26.642,174.479z M72.723,63.165V46.135c-0.464-3.201-1.562-5.39-5.101-5.583
	c-5.085-0.279-10.207,0-15.312,0c-9.654-0.042-15.532,0.191-0.773-5.346L97.689,17.9c10.937-4.101,10.033-4.092,20.97,0.008
	c15.159,5.687,30.321,11.373,45.484,17.058c13.496,5.063,6.8,5.558,0.956,5.586c-5.384,0-10.764,0-16.147,0
	c-4.831,0.914-5.553,2.883-5.355,5.583c0,5.374,0,10.748,0,16.123c0,4.534-2.534,4.872-5.674,4.872H77.55
	C73.439,66.897,72.723,66.956,72.723,63.165L72.723,63.165z"/>
</svg>
