<?xml version="1.0" encoding="utf-8"?>
<!DOCTYPE svg PUBLIC "-//W3C//DTD SVG 1.1//EN" "http://www.w3.org/Graphics/SVG/1.1/DTD/svg11.dtd">
<svg version="1.1" xmlns="http://www.w3.org/2000/svg" xmlns:xlink="http://www.w3.org/1999/xlink" x="0px" y="0px" width="216px" height="216px" viewBox="0 0 216 216" enable-background="new 0 0 216 216" xml:space="preserve">
<path fill-rule="evenodd" clip-rule="evenodd" d="M26.642,191.047h161.934
	c1.934,0,3.516,2.029,3.516,4.508l0,0c0,2.481-1.582,4.512-3.516,4.512H26.642c-1.931,0-3.511-2.03-3.511-4.512l0,0
	C23.131,193.076,24.711,191.047,26.642,191.047L26.642,191.047z M35.081,73.892h146.09c6.344,0,11.534,5.192,11.534,11.539v54.107
	c0,6.344-5.19,11.538-11.534,11.538H35.081c-6.345,0-11.539-5.189-11.539-11.538V112.98V97.021V85.43
	C23.542,79.084,28.734,73.892,35.081,73.892L35.081,73.892z M91.688,121.344c0,2.485,0.462,4.677,1.389,6.565
	c0.924,1.877,2.189,3.451,3.777,4.702c1.59,1.264,3.441,2.203,5.567,2.841c2.127,0.638,4.403,0.953,6.818,0.953
	c1.639,0,3.165-0.125,4.565-0.403c1.404-0.259,2.639-0.586,3.717-0.961c1.073-0.388,1.974-0.775,2.7-1.203
	c0.714-0.411,1.238-0.774,1.554-1.098c0.322-0.314,0.549-0.778,0.674-1.368c0.137-0.597,0.201-1.461,0.201-2.587
	c0-0.763-0.023-1.388-0.064-1.9c-0.048-0.513-0.137-0.94-0.238-1.251c-0.112-0.315-0.262-0.537-0.447-0.679
	c-0.178-0.137-0.388-0.197-0.638-0.197c-0.339,0-0.827,0.197-1.453,0.597c-0.613,0.404-1.412,0.852-2.401,1.341
	c-0.977,0.488-2.139,0.939-3.491,1.34c-1.364,0.399-2.926,0.601-4.716,0.601c-1.176,0-2.226-0.141-3.152-0.415
	c-0.926-0.287-1.715-0.687-2.365-1.199c-0.638-0.513-1.138-1.138-1.476-1.9c-0.351-0.763-0.514-1.603-0.514-2.526
	c0-1.078,0.289-2.006,0.875-2.769c0.589-0.775,1.352-1.461,2.291-2.051c0.618-0.396,1.295-0.774,2.026-1.138h16.354
	c0.238,0,0.432-0.263,0.432-0.585v-2.337c0-0.323-0.193-0.586-0.432-0.586H89.256c-0.24,0-0.436,0.263-0.436,0.586v2.337
	c0,0.322,0.196,0.585,0.436,0.585h3.202C91.94,117.993,91.688,119.556,91.688,121.344L91.688,121.344z M89.256,106.56h15.903
	l0.452-0.194c1.225-0.513,2.314-1.076,3.277-1.675c0.965-0.602,1.739-1.29,2.314-2.052c0.575-0.777,0.863-1.689,0.863-2.74
	c0-0.7-0.137-1.376-0.389-2.014c-0.263-0.64-0.65-1.176-1.175-1.626c-0.524-0.45-1.177-0.813-1.963-1.063
	c-0.777-0.262-1.689-0.387-2.74-0.387c-1.352,0-2.577,0.161-3.703,0.5c-1.126,0.325-2.115,0.686-2.966,1.102
	c-0.862,0.4-1.574,0.775-2.163,1.112c-0.587,0.339-1.013,0.513-1.288,0.513c-0.264,0-0.476-0.075-0.64-0.224
	c-0.164-0.139-0.287-0.375-0.363-0.69c-0.087-0.323-0.149-0.725-0.188-1.211c-0.037-0.488-0.051-1.089-0.051-1.792
	c0-0.635,0.014-1.174,0.026-1.598c0.024-0.426,0.075-0.777,0.137-1.065c0.063-0.274,0.125-0.5,0.214-0.674
	c0.087-0.176,0.249-0.375,0.5-0.625c0.238-0.238,0.737-0.551,1.5-0.914c0.765-0.363,1.628-0.7,2.603-0.989
	c0.977-0.299,2.028-0.525,3.152-0.701c1.126-0.173,2.252-0.25,3.366-0.25c2.177,0,4.239,0.274,6.181,0.839
	c1.938,0.561,3.628,1.413,5.053,2.551c1.438,1.126,2.579,2.565,3.414,4.278c0.84,1.728,1.264,3.729,1.264,5.994
	c0,1.989-0.286,3.678-0.876,5.103c-0.068,0.167-0.141,0.333-0.214,0.495h2.482c0.238,0,0.432,0.264,0.432,0.587v2.337
	c0,0.32-0.193,0.585-0.432,0.585H89.256c-0.24,0-0.436-0.265-0.436-0.585v-2.337C88.82,106.824,89.016,106.56,89.256,106.56
	L89.256,106.56z M89.099,140.731c-9.256-5.993-15.382-16.405-15.382-28.251c0-10.853,5.146-20.504,13.128-26.653H53.46
	c-2.438,8.667-9.742,15.298-18.776,16.755v21.788c8.897,1.433,16.115,7.886,18.662,16.361H89.099L89.099,140.731z M127.841,85.828
	c7.983,6.149,13.133,15.8,13.133,26.653c0,11.846-6.126,22.258-15.385,28.251h38.563c2.426-8.075,9.097-14.315,17.415-16.127
	v-22.258c-8.455-1.843-15.203-8.255-17.528-16.519H127.841L127.841,85.828z M181.566,134.318c-3.145,1.199-5.751,3.491-7.346,6.413
	h7.346V134.318L181.566,134.318z M34.684,133.911c3.699,1.024,6.788,3.519,8.594,6.82h-8.594V133.911L34.684,133.911z
	 M34.684,93.038c3.846-1.061,7.028-3.717,8.8-7.21h-8.8V93.038L34.684,93.038z M181.566,92.63c-3.281-1.251-5.978-3.695-7.551-6.803
	h7.551v5.596V92.63L181.566,92.63z M155.507,101.271c6.688,0,12.104,5.418,12.104,12.101c0,6.684-5.416,12.104-12.104,12.104
	c-6.684,0-12.1-5.42-12.1-12.104C143.407,106.689,148.823,101.271,155.507,101.271L155.507,101.271z M155.511,107.868
	c3.039,0,5.505,2.465,5.505,5.504s-2.466,5.505-5.505,5.505c-3.043,0-5.505-2.466-5.505-5.505S152.468,107.868,155.511,107.868
	L155.511,107.868z M58.457,101.271c6.684,0,12.104,5.418,12.104,12.101c0,6.684-5.42,12.104-12.104,12.104
	s-12.104-5.42-12.104-12.104C46.353,106.689,51.773,101.271,58.457,101.271L58.457,101.271z M58.457,107.868
	c3.041,0,5.505,2.465,5.505,5.504s-2.464,5.505-5.505,5.505c-3.039,0-5.505-2.466-5.505-5.505S55.417,107.868,58.457,107.868
	L58.457,107.868z"/>
</svg>
