<?xml version="1.0" encoding="utf-8"?>
<!DOCTYPE svg PUBLIC "-//W3C//DTD SVG 1.1//EN" "http://www.w3.org/Graphics/SVG/1.1/DTD/svg11.dtd">
<svg version="1.1" xmlns="http://www.w3.org/2000/svg" xmlns:xlink="http://www.w3.org/1999/xlink" x="0px" y="0px" width="216px" height="216px" viewBox="0 0 216 216" enable-background="new 0 0 216 216" xml:space="preserve">
<path fill-rule="evenodd" clip-rule="evenodd" d="M11.512,0.8h192.816
	c5.893,0,10.712,4.819,10.712,10.711v192.816c0,5.893-4.819,10.712-10.712,10.712H11.512c-5.893,0-10.711-4.819-10.711-10.712
	V11.512C0.8,5.619,5.619,0.8,11.512,0.8L11.512,0.8z M11.512,5.758h192.816c3.164,0,5.751,2.589,5.751,5.753v192.816
	c0,3.164-2.587,5.752-5.751,5.752H11.512c-3.165,0-5.753-2.588-5.753-5.752V11.512C5.758,8.348,8.347,5.758,11.512,5.758
	L11.512,5.758z M26.642,157.916h161.934c1.934,0,3.516,2.03,3.516,4.513l0,0c0,2.478-1.582,4.508-3.516,4.508H26.642
	c-1.931,0-3.511-2.03-3.511-4.508C23.131,159.946,24.711,157.916,26.642,157.916L26.642,157.916z"/>
</svg>
